<?xml version="1.0" encoding="UTF-8" standalone="no"?>
<!DOCTYPE svg PUBLIC "-//W3C//DTD SVG 1.1//EN"
 "http://www.w3.org/Graphics/SVG/1.1/DTD/svg11.dtd">
<!-- Generated by graphviz version 2.26.3 (20100126.1600)
 -->
<!-- Title: Intensity Pages: 1 -->
<svg width="390pt" height="342pt"
 viewBox="0.00 0.00 390.00 342.00" xmlns="http://www.w3.org/2000/svg" xmlns:xlink="http://www.w3.org/1999/xlink">
<g id="graph1" class="graph" transform="scale(1 1) rotate(0) translate(4 338)">
<title>Intensity</title>
<polygon fill="white" stroke="white" points="-4,5 -4,-338 387,-338 387,5 -4,5"/>
<!-- Node1 -->
<g id="node1" class="node"><title>Node1</title>
<polygon fill="#bfbfbf" stroke="black" points="149.5,-192.5 149.5,-333.5 230.5,-333.5 230.5,-192.5 149.5,-192.5"/>
<text text-anchor="middle" x="190" y="-320.5" font-family="Helvetica,sans-Serif" font-size="10.00">Intensity</text>
<polyline fill="none" stroke="black" points="149.5,-312.5 230.5,-312.5 "/>
<text text-anchor="start" x="157.5" y="-299.5" font-family="Helvetica,sans-Serif" font-size="10.00">+ fFreqArray</text>
<text text-anchor="start" x="157.5" y="-286.5" font-family="Helvetica,sans-Serif" font-size="10.00">+ fImpedance</text>
<text text-anchor="start" x="157.5" y="-273.5" font-family="Helvetica,sans-Serif" font-size="10.00">+ fTimeArray</text>
<text text-anchor="start" x="157.5" y="-260.5" font-family="Helvetica,sans-Serif" font-size="10.00">+ fWake</text>
<polyline fill="none" stroke="black" points="149.5,-252.5 230.5,-252.5 "/>
<text text-anchor="start" x="157.5" y="-239.5" font-family="Helvetica,sans-Serif" font-size="10.00">+ Intensity()</text>
<text text-anchor="start" x="157.5" y="-226.5" font-family="Helvetica,sans-Serif" font-size="10.00">+ ~Intensity()</text>
<text text-anchor="start" x="157.5" y="-213.5" font-family="Helvetica,sans-Serif" font-size="10.00">+ imped_calc()</text>
<text text-anchor="start" x="157.5" y="-200.5" font-family="Helvetica,sans-Serif" font-size="10.00">+ wake_calc()</text>
</g>
<!-- Node2 -->
<g id="node3" class="node"><title>Node2</title>
<a xlink:href="../../db/da5/classInputTable.html" target="_top" xlink:title="{InputTable\n|+ fFrequencyArrayLoaded\l+ fImpedanceLoaded\l+ fImZArrayLoaded\l+ fReZArrayLoaded\l+ fWakeArray\l|+ InputTable()\l+ ~InputTable()\l+ imped_calc()\l+ wake_calc()\l}">
<polygon fill="white" stroke="black" points="-0.5,-1 -0.5,-155 128.5,-155 128.5,-1 -0.5,-1"/>
<text text-anchor="middle" x="64" y="-142" font-family="Helvetica,sans-Serif" font-size="10.00">InputTable</text>
<polyline fill="none" stroke="black" points="-0.5,-134 128.5,-134 "/>
<text text-anchor="start" x="7.5" y="-121" font-family="Helvetica,sans-Serif" font-size="10.00">+ fFrequencyArrayLoaded</text>
<text text-anchor="start" x="7.5" y="-108" font-family="Helvetica,sans-Serif" font-size="10.00">+ fImpedanceLoaded</text>
<text text-anchor="start" x="7.5" y="-95" font-family="Helvetica,sans-Serif" font-size="10.00">+ fImZArrayLoaded</text>
<text text-anchor="start" x="7.5" y="-82" font-family="Helvetica,sans-Serif" font-size="10.00">+ fReZArrayLoaded</text>
<text text-anchor="start" x="7.5" y="-69" font-family="Helvetica,sans-Serif" font-size="10.00">+ fWakeArray</text>
<polyline fill="none" stroke="black" points="-0.5,-61 128.5,-61 "/>
<text text-anchor="start" x="7.5" y="-48" font-family="Helvetica,sans-Serif" font-size="10.00">+ InputTable()</text>
<text text-anchor="start" x="7.5" y="-35" font-family="Helvetica,sans-Serif" font-size="10.00">+ ~InputTable()</text>
<text text-anchor="start" x="7.5" y="-22" font-family="Helvetica,sans-Serif" font-size="10.00">+ imped_calc()</text>
<text text-anchor="start" x="7.5" y="-9" font-family="Helvetica,sans-Serif" font-size="10.00">+ wake_calc()</text>
</a>
</g>
<!-- Node1&#45;&gt;Node2 -->
<g id="edge2" class="edge"><title>Node1&#45;&gt;Node2</title>
<path fill="none" stroke="midnightblue" d="M143.693,-195.009C134.832,-181.999 125.496,-168.291 116.457,-155.021"/>
<polygon fill="none" stroke="midnightblue" points="140.917,-197.152 149.439,-203.447 146.703,-193.211 140.917,-197.152"/>
</g>
<!-- Node3 -->
<g id="node5" class="node"><title>Node3</title>
<a xlink:href="../../da/d97/classResonators.html" target="_top" xlink:title="{Resonators\n|+ fFrequencyR\l+ fNResonators\l+ fOmegaR\l+ fQ\l+ fRS\l|+ Resonators()\l+ ~Resonators()\l+ imped_calc()\l+ wake_calc()\l}">
<polygon fill="white" stroke="black" points="146,-1 146,-155 234,-155 234,-1 146,-1"/>
<text text-anchor="middle" x="190" y="-142" font-family="Helvetica,sans-Serif" font-size="10.00">Resonators</text>
<polyline fill="none" stroke="black" points="146,-134 234,-134 "/>
<text text-anchor="start" x="154" y="-121" font-family="Helvetica,sans-Serif" font-size="10.00">+ fFrequencyR</text>
<text text-anchor="start" x="154" y="-108" font-family="Helvetica,sans-Serif" font-size="10.00">+ fNResonators</text>
<text text-anchor="start" x="154" y="-95" font-family="Helvetica,sans-Serif" font-size="10.00">+ fOmegaR</text>
<text text-anchor="start" x="154" y="-82" font-family="Helvetica,sans-Serif" font-size="10.00">+ fQ</text>
<text text-anchor="start" x="154" y="-69" font-family="Helvetica,sans-Serif" font-size="10.00">+ fRS</text>
<polyline fill="none" stroke="black" points="146,-61 234,-61 "/>
<text text-anchor="start" x="154" y="-48" font-family="Helvetica,sans-Serif" font-size="10.00">+ Resonators()</text>
<text text-anchor="start" x="154" y="-35" font-family="Helvetica,sans-Serif" font-size="10.00">+ ~Resonators()</text>
<text text-anchor="start" x="154" y="-22" font-family="Helvetica,sans-Serif" font-size="10.00">+ imped_calc()</text>
<text text-anchor="start" x="154" y="-9" font-family="Helvetica,sans-Serif" font-size="10.00">+ wake_calc()</text>
</a>
</g>
<!-- Node1&#45;&gt;Node3 -->
<g id="edge4" class="edge"><title>Node1&#45;&gt;Node3</title>
<path fill="none" stroke="midnightblue" d="M190,-182.21C190,-173.229 190,-164.098 190,-155.164"/>
<polygon fill="none" stroke="midnightblue" points="186.5,-182.268 190,-192.268 193.5,-182.268 186.5,-182.268"/>
</g>
<!-- Node4 -->
<g id="node7" class="node"><title>Node4</title>
<a xlink:href="../../d4/df6/classTravelingWaveCavity.html" target="_top" xlink:title="{TravelingWaveCavity\n|+ faFactor\l+ fFrequencyR\l+ fNResonators\l+ fOmegaR\l+ fRS\l|+ TravelingWaveCavity()\l+ ~TravelingWaveCavity()\l+ imped_calc()\l+ wake_calc()\l}">
<polygon fill="white" stroke="black" points="251.5,-1 251.5,-155 382.5,-155 382.5,-1 251.5,-1"/>
<text text-anchor="middle" x="317" y="-142" font-family="Helvetica,sans-Serif" font-size="10.00">TravelingWaveCavity</text>
<polyline fill="none" stroke="black" points="251.5,-134 382.5,-134 "/>
<text text-anchor="start" x="259.5" y="-121" font-family="Helvetica,sans-Serif" font-size="10.00">+ faFactor</text>
<text text-anchor="start" x="259.5" y="-108" font-family="Helvetica,sans-Serif" font-size="10.00">+ fFrequencyR</text>
<text text-anchor="start" x="259.5" y="-95" font-family="Helvetica,sans-Serif" font-size="10.00">+ fNResonators</text>
<text text-anchor="start" x="259.5" y="-82" font-family="Helvetica,sans-Serif" font-size="10.00">+ fOmegaR</text>
<text text-anchor="start" x="259.5" y="-69" font-family="Helvetica,sans-Serif" font-size="10.00">+ fRS</text>
<polyline fill="none" stroke="black" points="251.5,-61 382.5,-61 "/>
<text text-anchor="start" x="259.5" y="-48" font-family="Helvetica,sans-Serif" font-size="10.00">+ TravelingWaveCavity()</text>
<text text-anchor="start" x="259.5" y="-35" font-family="Helvetica,sans-Serif" font-size="10.00">+ ~TravelingWaveCavity()</text>
<text text-anchor="start" x="259.5" y="-22" font-family="Helvetica,sans-Serif" font-size="10.00">+ imped_calc()</text>
<text text-anchor="start" x="259.5" y="-9" font-family="Helvetica,sans-Serif" font-size="10.00">+ wake_calc()</text>
</a>
</g>
<!-- Node1&#45;&gt;Node4 -->
<g id="edge6" class="edge"><title>Node1&#45;&gt;Node4</title>
<path fill="none" stroke="midnightblue" d="M236.374,-195.448C245.384,-182.323 254.891,-168.474 264.092,-155.07"/>
<polygon fill="none" stroke="midnightblue" points="233.307,-193.731 230.533,-203.956 239.078,-197.693 233.307,-193.731"/>
</g>
</g>
</svg>
