<?xml version="1.0" encoding="UTF-8" standalone="no"?>
<!DOCTYPE svg PUBLIC "-//W3C//DTD SVG 1.1//EN"
 "http://www.w3.org/Graphics/SVG/1.1/DTD/svg11.dtd">
<!-- Generated by graphviz version 2.26.3 (20100126.1600)
 -->
<!-- Title: operator&lt; Pages: 1 -->
<svg width="476pt" height="122pt"
 viewBox="0.00 0.00 476.00 122.00" xmlns="http://www.w3.org/2000/svg" xmlns:xlink="http://www.w3.org/1999/xlink">
<g id="graph1" class="graph" transform="scale(1 1) rotate(0) translate(4 118)">
<title>operator&lt;</title>
<polygon fill="white" stroke="white" points="-4,5 -4,-118 473,-118 473,5 -4,5"/>
<!-- Node1 -->
<g id="node1" class="node"><title>Node1</title>
<polygon fill="#bfbfbf" stroke="black" points="0,-40.5 0,-61.5 58,-61.5 58,-40.5 0,-40.5"/>
<text text-anchor="middle" x="29" y="-48.5" font-family="Helvetica,sans-Serif" font-size="10.00">operator&lt;</text>
</g>
<!-- Node2 -->
<g id="node3" class="node"><title>Node2</title>
<a xlink:href="../../dc/d7d/Distributions_8h.html#a5493d96431d1b52db9fc4617281f457d" target="_top" xlink:title="matched_from_distribution\l_density">
<polygon fill="white" stroke="black" points="96.5,-80 96.5,-114 227.5,-114 227.5,-80 96.5,-80"/>
<text text-anchor="start" x="104.5" y="-101" font-family="Helvetica,sans-Serif" font-size="10.00">matched_from_distribution</text>
<text text-anchor="middle" x="162" y="-88" font-family="Helvetica,sans-Serif" font-size="10.00">_density</text>
</a>
</g>
<!-- Node1&#45;&gt;Node2 -->
<g id="edge2" class="edge"><title>Node1&#45;&gt;Node2</title>
<path fill="none" stroke="midnightblue" d="M67.9923,-64.4861C82.0003,-69.3309 97.9852,-74.8595 112.751,-79.9665"/>
<polygon fill="midnightblue" stroke="midnightblue" points="68.7822,-61.0559 58.1874,-61.0949 66.4941,-67.6714 68.7822,-61.0559"/>
</g>
<!-- Node3 -->
<g id="node5" class="node"><title>Node3</title>
<a xlink:href="../../dc/d7d/Distributions_8h.html#a00d3d5dce2d6cb66bd5b4bcc53abb901" target="_top" xlink:title="matched_from_line_density">
<polygon fill="white" stroke="black" points="94,-40.5 94,-61.5 230,-61.5 230,-40.5 94,-40.5"/>
<text text-anchor="middle" x="162" y="-48.5" font-family="Helvetica,sans-Serif" font-size="10.00">matched_from_line_density</text>
</a>
</g>
<!-- Node1&#45;&gt;Node3 -->
<g id="edge4" class="edge"><title>Node1&#45;&gt;Node3</title>
<path fill="none" stroke="midnightblue" d="M68.3754,-51C76.446,-51 85.1598,-51 93.9103,-51"/>
<polygon fill="midnightblue" stroke="midnightblue" points="68.1874,-47.5001 58.1874,-51 68.1874,-54.5001 68.1874,-47.5001"/>
</g>
<!-- Node4 -->
<g id="node7" class="node"><title>Node4</title>
<a xlink:href="../../dc/d45/classSlices.html#a66da8b26310c40415c351b99d6d390e9" target="_top" xlink:title="Slices::sort_particles">
<polygon fill="white" stroke="black" points="108,-0.5 108,-21.5 216,-21.5 216,-0.5 108,-0.5"/>
<text text-anchor="middle" x="162" y="-8.5" font-family="Helvetica,sans-Serif" font-size="10.00">Slices::sort_particles</text>
</a>
</g>
<!-- Node1&#45;&gt;Node4 -->
<g id="edge6" class="edge"><title>Node1&#45;&gt;Node4</title>
<path fill="none" stroke="midnightblue" d="M67.9015,-38.9439C76.4909,-36.306 85.5487,-33.5429 94,-31 104.37,-27.8798 115.645,-24.5415 125.979,-21.5037"/>
<polygon fill="midnightblue" stroke="midnightblue" points="66.625,-35.6747 58.0977,-41.9623 68.6849,-42.3648 66.625,-35.6747"/>
</g>
<!-- Node5 -->
<g id="node9" class="node"><title>Node5</title>
<a xlink:href="../../dc/d45/classSlices.html#a842041861f0211874450e5d659aec229" target="_top" xlink:title="Slices::set_cuts">
<polygon fill="white" stroke="black" points="266.5,-0.5 266.5,-21.5 353.5,-21.5 353.5,-0.5 266.5,-0.5"/>
<text text-anchor="middle" x="310" y="-8.5" font-family="Helvetica,sans-Serif" font-size="10.00">Slices::set_cuts</text>
</a>
</g>
<!-- Node4&#45;&gt;Node5 -->
<g id="edge8" class="edge"><title>Node4&#45;&gt;Node5</title>
<path fill="none" stroke="midnightblue" d="M226.468,-11C239.954,-11 253.87,-11 266.383,-11"/>
<polygon fill="midnightblue" stroke="midnightblue" points="226.269,-7.5001 216.269,-11 226.269,-14.5001 226.269,-7.5001"/>
</g>
<!-- Node6 -->
<g id="node11" class="node"><title>Node6</title>
<a xlink:href="../../dc/d45/classSlices.html#aa6f4a80f2e363315eb7c3a325b0b50c3" target="_top" xlink:title="Slices::Slices">
<polygon fill="white" stroke="black" points="390.5,-0.5 390.5,-21.5 467.5,-21.5 467.5,-0.5 390.5,-0.5"/>
<text text-anchor="middle" x="429" y="-8.5" font-family="Helvetica,sans-Serif" font-size="10.00">Slices::Slices</text>
</a>
</g>
<!-- Node5&#45;&gt;Node6 -->
<g id="edge10" class="edge"><title>Node5&#45;&gt;Node6</title>
<path fill="none" stroke="midnightblue" d="M363.705,-11C372.731,-11 381.936,-11 390.48,-11"/>
<polygon fill="midnightblue" stroke="midnightblue" points="363.636,-7.5001 353.635,-11 363.635,-14.5001 363.636,-7.5001"/>
</g>
</g>
</svg>
