<?xml version="1.0" encoding="UTF-8" standalone="no"?>
<!DOCTYPE svg PUBLIC "-//W3C//DTD SVG 1.1//EN"
 "http://www.w3.org/Graphics/SVG/1.1/DTD/svg11.dtd">
<!-- Generated by graphviz version 2.26.3 (20100126.1600)
 -->
<!-- Title: PSBPhaseNoiseInjection Pages: 1 -->
<svg width="357pt" height="644pt"
 viewBox="0.00 0.00 357.01 644.00" xmlns="http://www.w3.org/2000/svg" xmlns:xlink="http://www.w3.org/1999/xlink">
<g id="graph1" class="graph" transform="scale(1 1) rotate(0) translate(4 640)">
<title>PSBPhaseNoiseInjection</title>
<polygon fill="white" stroke="white" points="-4,5 -4,-640 354.007,-640 354.007,5 -4,5"/>
<!-- Node1 -->
<g id="node1" class="node"><title>Node1</title>
<polygon fill="#bfbfbf" stroke="black" points="39.0075,-0.5 39.0075,-89.5 187.007,-89.5 187.007,-0.5 39.0075,-0.5"/>
<text text-anchor="middle" x="113.007" y="-76.5" font-family="Helvetica,sans-Serif" font-size="10.00">PSBPhaseNoiseInjection</text>
<polyline fill="none" stroke="black" points="39.0075,-68.5 187.007,-68.5 "/>
<text text-anchor="middle" x="113.007" y="-55.5" font-family="Helvetica,sans-Serif" font-size="10.00"> </text>
<polyline fill="none" stroke="black" points="39.0075,-47.5 187.007,-47.5 "/>
<text text-anchor="start" x="47.0075" y="-34.5" font-family="Helvetica,sans-Serif" font-size="10.00">+ PSBPhaseNoiseInjection()</text>
<text text-anchor="start" x="47.0075" y="-21.5" font-family="Helvetica,sans-Serif" font-size="10.00">+ ~PSBPhaseNoiseInjection()</text>
<text text-anchor="start" x="47.0075" y="-8.5" font-family="Helvetica,sans-Serif" font-size="10.00">+ generate()</text>
</g>
<!-- Node2 -->
<g id="node2" class="node"><title>Node2</title>
<a xlink:href="../../da/dd4/classPhaseNoise.html" target="_top" xlink:title="{PhaseNoise\n||+ PhaseNoise()\l+ ~PhaseNoise()\l+ generate()\l+ spectrum_generation()\l+ spectrum_to_phase_noise()\l}">
<polygon fill="white" stroke="black" points="40.0075,-140.5 40.0075,-255.5 186.007,-255.5 186.007,-140.5 40.0075,-140.5"/>
<text text-anchor="middle" x="113.007" y="-242.5" font-family="Helvetica,sans-Serif" font-size="10.00">PhaseNoise</text>
<polyline fill="none" stroke="black" points="40.0075,-234.5 186.007,-234.5 "/>
<text text-anchor="middle" x="113.007" y="-221.5" font-family="Helvetica,sans-Serif" font-size="10.00"> </text>
<polyline fill="none" stroke="black" points="40.0075,-213.5 186.007,-213.5 "/>
<text text-anchor="start" x="48.0075" y="-200.5" font-family="Helvetica,sans-Serif" font-size="10.00">+ PhaseNoise()</text>
<text text-anchor="start" x="48.0075" y="-187.5" font-family="Helvetica,sans-Serif" font-size="10.00">+ ~PhaseNoise()</text>
<text text-anchor="start" x="48.0075" y="-174.5" font-family="Helvetica,sans-Serif" font-size="10.00">+ generate()</text>
<text text-anchor="start" x="48.0075" y="-161.5" font-family="Helvetica,sans-Serif" font-size="10.00">+ spectrum_generation()</text>
<text text-anchor="start" x="48.0075" y="-148.5" font-family="Helvetica,sans-Serif" font-size="10.00">+ spectrum_to_phase_noise()</text>
</a>
</g>
<!-- Node2&#45;&gt;Node1 -->
<g id="edge2" class="edge"><title>Node2&#45;&gt;Node1</title>
<path fill="none" stroke="midnightblue" d="M113.007,-129.819C113.007,-116.17 113.007,-102.164 113.007,-89.5655"/>
<polygon fill="none" stroke="midnightblue" points="109.508,-130.157 113.007,-140.157 116.508,-130.157 109.508,-130.157"/>
</g>
<!-- Node3 -->
<g id="node4" class="node"><title>Node3</title>
<polygon fill="white" stroke="#bfbfbf" points="75.0075,-344.5 75.0075,-407.5 153.007,-407.5 153.007,-344.5 75.0075,-344.5"/>
<text text-anchor="middle" x="114.007" y="-394.5" font-family="Helvetica,sans-Serif" font-size="10.00">predistortion_t</text>
<polyline fill="none" stroke="#bfbfbf" points="75.0075,-386.5 153.007,-386.5 "/>
<text text-anchor="middle" x="114.007" y="-373.5" font-family="Helvetica,sans-Serif" font-size="10.00"> </text>
<polyline fill="none" stroke="#bfbfbf" points="75.0075,-365.5 153.007,-365.5 "/>
<text text-anchor="middle" x="114.007" y="-352.5" font-family="Helvetica,sans-Serif" font-size="10.00"> </text>
</g>
<!-- Node3&#45;&gt;Node2 -->
<g id="edge4" class="edge"><title>Node3&#45;&gt;Node2</title>
<path fill="none" stroke="#404040" d="M113.829,-344.177C113.71,-323.027 113.549,-294.406 113.401,-268.096"/>
<polygon fill="none" stroke="#404040" points="113.4,-267.809 109.366,-261.831 113.332,-255.809 117.366,-261.786 113.4,-267.809"/>
<text text-anchor="middle" x="147.507" y="-297.5" font-family="Helvetica,sans-Serif" font-size="10.00"> +fPredistortion</text>
</g>
<!-- Node4 -->
<g id="node6" class="node"><title>Node4</title>
<polygon fill="white" stroke="#bfbfbf" points="172.507,-458.5 172.507,-521.5 217.507,-521.5 217.507,-458.5 172.507,-458.5"/>
<text text-anchor="middle" x="195.007" y="-508.5" font-family="Helvetica,sans-Serif" font-size="10.00">double</text>
<polyline fill="none" stroke="#bfbfbf" points="172.507,-500.5 217.507,-500.5 "/>
<text text-anchor="middle" x="195.007" y="-487.5" font-family="Helvetica,sans-Serif" font-size="10.00"> </text>
<polyline fill="none" stroke="#bfbfbf" points="172.507,-479.5 217.507,-479.5 "/>
<text text-anchor="middle" x="195.007" y="-466.5" font-family="Helvetica,sans-Serif" font-size="10.00"> </text>
</g>
<!-- Node4&#45;&gt;Node1 -->
<g id="edge18" class="edge"><title>Node4&#45;&gt;Node1</title>
<path fill="none" stroke="#404040" d="M172.374,-486.23C134.44,-478.651 58.4176,-457.823 20.0075,-408 -2.61324,-378.658 8.35449,-362.898 5.00747,-326 -2.53323,-242.871 -5.43946,-215.093 31.0075,-140 37.9819,-125.63 47.6867,-111.7 57.986,-99.1354"/>
<polygon fill="none" stroke="#404040" points="58.1542,-98.9382 59.0052,-91.7775 65.9425,-89.809 65.0914,-96.9697 58.1542,-98.9382"/>
<text text-anchor="middle" x="26.0075" y="-297.5" font-family="Helvetica,sans-Serif" font-size="10.00"> +fDeltaF</text>
</g>
<!-- Node4&#45;&gt;Node2 -->
<g id="edge6" class="edge"><title>Node4&#45;&gt;Node2</title>
<path fill="none" stroke="#404040" d="M199.221,-458.14C203.602,-414.661 206.672,-335.16 181.007,-274 179.88,-271.314 178.617,-268.659 177.24,-266.043"/>
<polygon fill="none" stroke="#404040" points="177.12,-265.84 170.618,-262.723 170.995,-255.521 177.497,-258.639 177.12,-265.84"/>
<text text-anchor="middle" x="220.007" y="-386.5" font-family="Helvetica,sans-Serif" font-size="10.00"> +fFMin</text>
<text text-anchor="middle" x="220.007" y="-373.5" font-family="Helvetica,sans-Serif" font-size="10.00">+fFMax</text>
<text text-anchor="middle" x="220.007" y="-360.5" font-family="Helvetica,sans-Serif" font-size="10.00">+fAi</text>
</g>
<!-- Node6 -->
<g id="node10" class="node"><title>Node6</title>
<polygon fill="white" stroke="#bfbfbf" points="246.507,-344.5 246.507,-407.5 349.507,-407.5 349.507,-344.5 246.507,-344.5"/>
<text text-anchor="middle" x="298.007" y="-394.5" font-family="Helvetica,sans-Serif" font-size="10.00">std::vector&lt; ftype &gt;</text>
<polyline fill="none" stroke="#bfbfbf" points="246.507,-386.5 349.507,-386.5 "/>
<text text-anchor="middle" x="298.007" y="-373.5" font-family="Helvetica,sans-Serif" font-size="10.00"> </text>
<polyline fill="none" stroke="#bfbfbf" points="246.507,-365.5 349.507,-365.5 "/>
<text text-anchor="middle" x="298.007" y="-352.5" font-family="Helvetica,sans-Serif" font-size="10.00"> </text>
</g>
<!-- Node4&#45;&gt;Node6 -->
<g id="edge12" class="edge"><title>Node4&#45;&gt;Node6</title>
<path fill="none" stroke="#404040" d="M217.751,-458.954C225.999,-448.228 235.607,-436.319 245.007,-426 247.994,-422.721 251.157,-419.403 254.392,-416.117"/>
<polygon fill="none" stroke="#404040" points="254.523,-415.987 255.973,-408.923 263.051,-407.544 261.601,-414.608 254.523,-415.987"/>
<text text-anchor="middle" x="269.507" y="-430.5" font-family="Helvetica,sans-Serif" font-size="10.00"> +elements</text>
</g>
<!-- Node5 -->
<g id="node8" class="node"><title>Node5</title>
<polygon fill="white" stroke="#bfbfbf" points="28.5075,-344.5 28.5075,-407.5 57.5075,-407.5 57.5075,-344.5 28.5075,-344.5"/>
<text text-anchor="middle" x="43.0075" y="-394.5" font-family="Helvetica,sans-Serif" font-size="10.00">int</text>
<polyline fill="none" stroke="#bfbfbf" points="28.5075,-386.5 57.5075,-386.5 "/>
<text text-anchor="middle" x="43.0075" y="-373.5" font-family="Helvetica,sans-Serif" font-size="10.00"> </text>
<polyline fill="none" stroke="#bfbfbf" points="28.5075,-365.5 57.5075,-365.5 "/>
<text text-anchor="middle" x="43.0075" y="-352.5" font-family="Helvetica,sans-Serif" font-size="10.00"> </text>
</g>
<!-- Node5&#45;&gt;Node2 -->
<g id="edge8" class="edge"><title>Node5&#45;&gt;Node2</title>
<path fill="none" stroke="#404040" d="M46.9067,-344.353C50.1455,-323.767 55.7577,-296.639 65.0075,-274 66.0146,-271.535 67.1007,-269.061 68.2507,-266.59"/>
<polygon fill="none" stroke="#404040" points="68.2756,-266.541 67.3907,-259.384 73.6565,-255.815 74.5414,-262.971 68.2756,-266.541"/>
<text text-anchor="middle" x="87.5075" y="-317" font-family="Helvetica,sans-Serif" font-size="10.00"> +fNTurns</text>
<text text-anchor="middle" x="87.5075" y="-304" font-family="Helvetica,sans-Serif" font-size="10.00">+fCorr</text>
<text text-anchor="middle" x="87.5075" y="-291" font-family="Helvetica,sans-Serif" font-size="10.00">+fSeed1</text>
<text text-anchor="middle" x="87.5075" y="-278" font-family="Helvetica,sans-Serif" font-size="10.00">+fSeed2</text>
</g>
<!-- Node6&#45;&gt;Node2 -->
<g id="edge10" class="edge"><title>Node6&#45;&gt;Node2</title>
<path fill="none" stroke="#404040" d="M272.924,-344.313C255.814,-323.463 232.142,-296.054 209.007,-274 204.601,-269.799 199.979,-265.587 195.244,-261.419"/>
<polygon fill="none" stroke="#404040" points="195.116,-261.308 187.96,-260.419 186.028,-253.471 193.184,-254.36 195.116,-261.308"/>
<text text-anchor="middle" x="272.007" y="-304" font-family="Helvetica,sans-Serif" font-size="10.00"> +fFs</text>
<text text-anchor="middle" x="272.007" y="-291" font-family="Helvetica,sans-Serif" font-size="10.00">+fDphi</text>
</g>
<!-- Node7 -->
<g id="node13" class="node"><title>Node7</title>
<a xlink:title="STL class.">
<polygon fill="white" stroke="#bfbfbf" points="256.507,-458.5 256.507,-521.5 343.507,-521.5 343.507,-458.5 256.507,-458.5"/>
<text text-anchor="middle" x="300.007" y="-508.5" font-family="Helvetica,sans-Serif" font-size="10.00">std::vector&lt; T &gt;</text>
<polyline fill="none" stroke="#bfbfbf" points="256.507,-500.5 343.507,-500.5 "/>
<text text-anchor="middle" x="300.007" y="-487.5" font-family="Helvetica,sans-Serif" font-size="10.00"> </text>
<polyline fill="none" stroke="#bfbfbf" points="256.507,-479.5 343.507,-479.5 "/>
<text text-anchor="middle" x="300.007" y="-466.5" font-family="Helvetica,sans-Serif" font-size="10.00"> </text>
</a>
</g>
<!-- Node7&#45;&gt;Node6 -->
<g id="edge14" class="edge"><title>Node7&#45;&gt;Node6</title>
<path fill="none" stroke="orange" d="M299.268,-447.866C299.034,-434.538 298.78,-420.043 298.562,-407.585"/>
<polygon fill="orange" stroke="orange" points="295.775,-448.308 299.45,-458.245 302.774,-448.185 295.775,-448.308"/>
<text text-anchor="middle" x="320.507" y="-430.5" font-family="Helvetica,sans-Serif" font-size="10.00"> &lt; ftype &gt;</text>
</g>
<!-- Node8 -->
<g id="node15" class="node"><title>Node8</title>
<polygon fill="white" stroke="#bfbfbf" points="285.507,-572.5 285.507,-635.5 314.507,-635.5 314.507,-572.5 285.507,-572.5"/>
<text text-anchor="middle" x="300.007" y="-622.5" font-family="Helvetica,sans-Serif" font-size="10.00">T</text>
<polyline fill="none" stroke="#bfbfbf" points="285.507,-614.5 314.507,-614.5 "/>
<text text-anchor="middle" x="300.007" y="-601.5" font-family="Helvetica,sans-Serif" font-size="10.00"> </text>
<polyline fill="none" stroke="#bfbfbf" points="285.507,-593.5 314.507,-593.5 "/>
<text text-anchor="middle" x="300.007" y="-580.5" font-family="Helvetica,sans-Serif" font-size="10.00"> </text>
</g>
<!-- Node8&#45;&gt;Node7 -->
<g id="edge16" class="edge"><title>Node8&#45;&gt;Node7</title>
<path fill="none" stroke="#404040" d="M300.007,-572.245C300.007,-560.386 300.007,-546.7 300.007,-533.938"/>
<polygon fill="none" stroke="#404040" points="300.008,-533.585 296.008,-527.585 300.007,-521.585 304.008,-527.585 300.008,-533.585"/>
<text text-anchor="middle" x="324.507" y="-544.5" font-family="Helvetica,sans-Serif" font-size="10.00"> +elements</text>
</g>
<!-- Node9 -->
<g id="node18" class="node"><title>Node9</title>
<polygon fill="white" stroke="#bfbfbf" points="203.507,-166.5 203.507,-229.5 286.507,-229.5 286.507,-166.5 203.507,-166.5"/>
<text text-anchor="middle" x="245.007" y="-216.5" font-family="Helvetica,sans-Serif" font-size="10.00">rescale_ampl_t</text>
<polyline fill="none" stroke="#bfbfbf" points="203.507,-208.5 286.507,-208.5 "/>
<text text-anchor="middle" x="245.007" y="-195.5" font-family="Helvetica,sans-Serif" font-size="10.00"> </text>
<polyline fill="none" stroke="#bfbfbf" points="203.507,-187.5 286.507,-187.5 "/>
<text text-anchor="middle" x="245.007" y="-174.5" font-family="Helvetica,sans-Serif" font-size="10.00"> </text>
</g>
<!-- Node9&#45;&gt;Node1 -->
<g id="edge20" class="edge"><title>Node9&#45;&gt;Node1</title>
<path fill="none" stroke="#404040" d="M217.764,-166.39C210.38,-157.825 202.389,-148.557 195.007,-140 183.56,-126.73 171.211,-112.42 159.657,-99.0335"/>
<polygon fill="none" stroke="#404040" points="159.647,-99.0217 152.698,-97.0934 151.806,-89.9377 158.754,-91.866 159.647,-99.0217"/>
<text text-anchor="middle" x="215.507" y="-112.5" font-family="Helvetica,sans-Serif" font-size="10.00"> +fRescaleAmpl</text>
</g>
</g>
</svg>
