<?xml version="1.0" encoding="UTF-8" standalone="no"?>
<!DOCTYPE svg PUBLIC "-//W3C//DTD SVG 1.1//EN"
 "http://www.w3.org/Graphics/SVG/1.1/DTD/svg11.dtd">
<!-- Generated by graphviz version 2.26.3 (20100126.1600)
 -->
<!-- Title: plot_RL_radial_error Pages: 1 -->
<svg width="266pt" height="202pt"
 viewBox="0.00 0.00 266.00 202.00" xmlns="http://www.w3.org/2000/svg" xmlns:xlink="http://www.w3.org/1999/xlink">
<g id="graph1" class="graph" transform="scale(1 1) rotate(0) translate(4 198)">
<title>plot_RL_radial_error</title>
<polygon fill="white" stroke="white" points="-4,5 -4,-198 263,-198 263,5 -4,5"/>
<!-- Node1 -->
<g id="node1" class="node"><title>Node1</title>
<polygon fill="#bfbfbf" stroke="black" points="0,-80.5 0,-101.5 104,-101.5 104,-80.5 0,-80.5"/>
<text text-anchor="middle" x="52" y="-88.5" font-family="Helvetica,sans-Serif" font-size="10.00">plot_RL_radial_error</text>
</g>
<!-- Node2 -->
<g id="node3" class="node"><title>Node2</title>
<a xlink:href="../../de/d4a/namespacepython.html#a38f56692b4793b00b074fc192783947e" target="_top" xlink:title="python::convert_double\l_array">
<polygon fill="white" stroke="black" points="140,-160 140,-194 258,-194 258,-160 140,-160"/>
<text text-anchor="start" x="148" y="-181" font-family="Helvetica,sans-Serif" font-size="10.00">python::convert_double</text>
<text text-anchor="middle" x="199" y="-168" font-family="Helvetica,sans-Serif" font-size="10.00">_array</text>
</a>
</g>
<!-- Node1&#45;&gt;Node2 -->
<g id="edge2" class="edge"><title>Node1&#45;&gt;Node2</title>
<path fill="none" stroke="midnightblue" d="M65.8158,-101.599C82.7279,-114.291 112.516,-135.744 140,-151 142.702,-152.5 145.508,-153.979 148.363,-155.424"/>
<polygon fill="midnightblue" stroke="midnightblue" points="147.061,-158.682 157.585,-159.906 150.121,-152.387 147.061,-158.682"/>
</g>
<!-- Node3 -->
<g id="node5" class="node"><title>Node3</title>
<a xlink:href="../../de/d4a/namespacepython.html#adb27db8de2c6c5b4f381fadcc86a4939" target="_top" xlink:title="python::convert_int">
<polygon fill="white" stroke="black" points="149,-120.5 149,-141.5 249,-141.5 249,-120.5 149,-120.5"/>
<text text-anchor="middle" x="199" y="-128.5" font-family="Helvetica,sans-Serif" font-size="10.00">python::convert_int</text>
</a>
</g>
<!-- Node1&#45;&gt;Node3 -->
<g id="edge4" class="edge"><title>Node1&#45;&gt;Node3</title>
<path fill="none" stroke="midnightblue" d="M90.6225,-101.51C108.949,-106.496 131.043,-112.508 150.488,-117.799"/>
<polygon fill="midnightblue" stroke="midnightblue" points="149.812,-121.243 160.38,-120.491 151.65,-114.488 149.812,-121.243"/>
</g>
<!-- Node4 -->
<g id="node7" class="node"><title>Node4</title>
<a xlink:href="../../de/d4a/namespacepython.html#aaed0c03f36b79c4703d003314d78b412" target="_top" xlink:title="python::convert_string">
<polygon fill="white" stroke="black" points="142.5,-80.5 142.5,-101.5 255.5,-101.5 255.5,-80.5 142.5,-80.5"/>
<text text-anchor="middle" x="199" y="-88.5" font-family="Helvetica,sans-Serif" font-size="10.00">python::convert_string</text>
</a>
</g>
<!-- Node1&#45;&gt;Node4 -->
<g id="edge6" class="edge"><title>Node1&#45;&gt;Node4</title>
<path fill="none" stroke="midnightblue" d="M104.241,-91C113.331,-91 122.896,-91 132.311,-91"/>
<polygon fill="midnightblue" stroke="midnightblue" points="132.439,-94.5001 142.439,-91 132.439,-87.5001 132.439,-94.5001"/>
</g>
<!-- Node5 -->
<g id="node9" class="node"><title>Node5</title>
<a xlink:href="../../de/d4a/namespacepython.html#a713f8b295244715fb64ea92c5b172d33" target="_top" xlink:title="python::import">
<polygon fill="white" stroke="black" points="159.5,-40.5 159.5,-61.5 238.5,-61.5 238.5,-40.5 159.5,-40.5"/>
<text text-anchor="middle" x="199" y="-48.5" font-family="Helvetica,sans-Serif" font-size="10.00">python::import</text>
</a>
</g>
<!-- Node1&#45;&gt;Node5 -->
<g id="edge8" class="edge"><title>Node1&#45;&gt;Node5</title>
<path fill="none" stroke="midnightblue" d="M90.6225,-80.4905C108.949,-75.5035 131.043,-69.4918 150.488,-64.2007"/>
<polygon fill="midnightblue" stroke="midnightblue" points="151.65,-67.5116 160.38,-61.5087 149.812,-60.7572 151.65,-67.5116"/>
</g>
<!-- Node6 -->
<g id="node11" class="node"><title>Node6</title>
<a xlink:href="../../da/dda/Monitors_8cpp.html#a24cd35802fcba6633b02321bc436ab5f" target="_top" xlink:title="read_1D">
<polygon fill="white" stroke="black" points="172.5,-0.5 172.5,-21.5 225.5,-21.5 225.5,-0.5 172.5,-0.5"/>
<text text-anchor="middle" x="199" y="-8.5" font-family="Helvetica,sans-Serif" font-size="10.00">read_1D</text>
</a>
</g>
<!-- Node1&#45;&gt;Node6 -->
<g id="edge10" class="edge"><title>Node1&#45;&gt;Node6</title>
<path fill="none" stroke="midnightblue" d="M65.0131,-80.4442C81.5976,-67.3999 111.539,-45.1943 140,-31 147.146,-27.4364 155.077,-24.2648 162.746,-21.5555"/>
<polygon fill="midnightblue" stroke="midnightblue" points="163.87,-24.8701 172.242,-18.3763 161.648,-18.2323 163.87,-24.8701"/>
</g>
</g>
</svg>
