<?xml version="1.0" encoding="UTF-8" standalone="no"?>
<!DOCTYPE svg PUBLIC "-//W3C//DTD SVG 1.1//EN"
 "http://www.w3.org/Graphics/SVG/1.1/DTD/svg11.dtd">
<!-- Generated by graphviz version 2.26.3 (20100126.1600)
 -->
<!-- Title: plot_LHCNoiseFB_FWHM_bbb Pages: 1 -->
<svg width="316pt" height="202pt"
 viewBox="0.00 0.00 316.00 202.00" xmlns="http://www.w3.org/2000/svg" xmlns:xlink="http://www.w3.org/1999/xlink">
<g id="graph1" class="graph" transform="scale(1 1) rotate(0) translate(4 198)">
<title>plot_LHCNoiseFB_FWHM_bbb</title>
<polygon fill="white" stroke="white" points="-4,5 -4,-198 313,-198 313,5 -4,5"/>
<!-- Node1 -->
<g id="node1" class="node"><title>Node1</title>
<polygon fill="#bfbfbf" stroke="black" points="0,-80.5 0,-101.5 154,-101.5 154,-80.5 0,-80.5"/>
<text text-anchor="middle" x="77" y="-88.5" font-family="Helvetica,sans-Serif" font-size="10.00">plot_LHCNoiseFB_FWHM_bbb</text>
</g>
<!-- Node2 -->
<g id="node3" class="node"><title>Node2</title>
<a xlink:href="../../de/d4a/namespacepython.html#aded750ac9f79158f844ee939da42f420" target="_top" xlink:title="python::convert_double\l_2d_array">
<polygon fill="white" stroke="black" points="190,-160 190,-194 308,-194 308,-160 190,-160"/>
<text text-anchor="start" x="198" y="-181" font-family="Helvetica,sans-Serif" font-size="10.00">python::convert_double</text>
<text text-anchor="middle" x="249" y="-168" font-family="Helvetica,sans-Serif" font-size="10.00">_2d_array</text>
</a>
</g>
<!-- Node1&#45;&gt;Node2 -->
<g id="edge2" class="edge"><title>Node1&#45;&gt;Node2</title>
<path fill="none" stroke="midnightblue" d="M95.9755,-101.622C118.252,-113.964 156.425,-134.715 190,-151 193.168,-152.536 196.448,-154.088 199.765,-155.627"/>
<polygon fill="midnightblue" stroke="midnightblue" points="198.597,-158.942 209.147,-159.912 201.505,-152.574 198.597,-158.942"/>
</g>
<!-- Node3 -->
<g id="node5" class="node"><title>Node3</title>
<a xlink:href="../../de/d4a/namespacepython.html#adb27db8de2c6c5b4f381fadcc86a4939" target="_top" xlink:title="python::convert_int">
<polygon fill="white" stroke="black" points="199,-120.5 199,-141.5 299,-141.5 299,-120.5 199,-120.5"/>
<text text-anchor="middle" x="249" y="-128.5" font-family="Helvetica,sans-Serif" font-size="10.00">python::convert_int</text>
</a>
</g>
<!-- Node1&#45;&gt;Node3 -->
<g id="edge4" class="edge"><title>Node1&#45;&gt;Node3</title>
<path fill="none" stroke="midnightblue" d="M122.191,-101.51C144.127,-106.611 170.673,-112.785 193.798,-118.162"/>
<polygon fill="midnightblue" stroke="midnightblue" points="193.28,-121.635 203.813,-120.491 194.865,-114.817 193.28,-121.635"/>
</g>
<!-- Node4 -->
<g id="node7" class="node"><title>Node4</title>
<a xlink:href="../../de/d4a/namespacepython.html#aaed0c03f36b79c4703d003314d78b412" target="_top" xlink:title="python::convert_string">
<polygon fill="white" stroke="black" points="192.5,-80.5 192.5,-101.5 305.5,-101.5 305.5,-80.5 192.5,-80.5"/>
<text text-anchor="middle" x="249" y="-88.5" font-family="Helvetica,sans-Serif" font-size="10.00">python::convert_string</text>
</a>
</g>
<!-- Node1&#45;&gt;Node4 -->
<g id="edge6" class="edge"><title>Node1&#45;&gt;Node4</title>
<path fill="none" stroke="midnightblue" d="M154.195,-91C163.539,-91 173.023,-91 182.199,-91"/>
<polygon fill="midnightblue" stroke="midnightblue" points="182.405,-94.5001 192.405,-91 182.405,-87.5001 182.405,-94.5001"/>
</g>
<!-- Node5 -->
<g id="node9" class="node"><title>Node5</title>
<a xlink:href="../../de/d4a/namespacepython.html#a713f8b295244715fb64ea92c5b172d33" target="_top" xlink:title="python::import">
<polygon fill="white" stroke="black" points="209.5,-40.5 209.5,-61.5 288.5,-61.5 288.5,-40.5 209.5,-40.5"/>
<text text-anchor="middle" x="249" y="-48.5" font-family="Helvetica,sans-Serif" font-size="10.00">python::import</text>
</a>
</g>
<!-- Node1&#45;&gt;Node5 -->
<g id="edge8" class="edge"><title>Node1&#45;&gt;Node5</title>
<path fill="none" stroke="midnightblue" d="M122.191,-80.4905C145.985,-74.9569 175.206,-68.1614 199.598,-62.4889"/>
<polygon fill="midnightblue" stroke="midnightblue" points="200.431,-65.8887 209.378,-60.2145 198.845,-59.0707 200.431,-65.8887"/>
</g>
<!-- Node6 -->
<g id="node11" class="node"><title>Node6</title>
<a xlink:href="../../da/dda/Monitors_8cpp.html#aa772acf54ad202bb2e5ed534215c8f8b" target="_top" xlink:title="read_2D">
<polygon fill="white" stroke="black" points="222.5,-0.5 222.5,-21.5 275.5,-21.5 275.5,-0.5 222.5,-0.5"/>
<text text-anchor="middle" x="249" y="-8.5" font-family="Helvetica,sans-Serif" font-size="10.00">read_2D</text>
</a>
</g>
<!-- Node1&#45;&gt;Node6 -->
<g id="edge10" class="edge"><title>Node1&#45;&gt;Node6</title>
<path fill="none" stroke="midnightblue" d="M94.9519,-80.302C116.876,-67.5127 155.331,-45.9641 190,-31 197.181,-27.9006 205.012,-24.9564 212.554,-22.327"/>
<polygon fill="midnightblue" stroke="midnightblue" points="213.866,-25.5782 222.223,-19.0652 211.628,-18.9455 213.866,-25.5782"/>
</g>
</g>
</svg>
