<?xml version="1.0" encoding="UTF-8" standalone="no"?>
<!DOCTYPE svg PUBLIC "-//W3C//DTD SVG 1.1//EN"
 "http://www.w3.org/Graphics/SVG/1.1/DTD/svg11.dtd">
<!-- Generated by graphviz version 2.26.3 (20100126.1600)
 -->
<!-- Title: RfParameters::eta_0 Pages: 1 -->
<!--zoomable 251 -->
<svg id="main" version="1.1" xmlns="http://www.w3.org/2000/svg" xmlns:xlink="http://www.w3.org/1999/xlink" xml:space="preserve" onload="init(evt)">
        <defs>
                <circle id="rim" cx="0" cy="0" r="7"/>
                <circle id="rim2" cx="0" cy="0" r="3.5"/>
                <g id="zoomPlus">
                        <use xlink:href="#rim" fill="#404040">
                                <set attributeName="fill" to="#808080" begin="zoomplus.mouseover" end="zoomplus.mouseout"/>
                        </use>
                        <path d="M-4,0h8M0,-4v8" fill="none" stroke="white" stroke-width="1.5" pointer-events="none"/>
                </g>
                <g id="zoomMin">
                        <use xlink:href="#rim" fill="#404040">
                                <set attributeName="fill" to="#808080" begin="zoomminus.mouseover" end="zoomminus.mouseout"/>
                        </use>
                        <path d="M-4,0h8" fill="none" stroke="white" stroke-width="1.5" pointer-events="none"/>
                </g>
                <g id="dirArrow">
                        <path fill="none" stroke="white" stroke-width="1.5" d="M0,-3.0v7 M-2.5,-0.5L0,-3.0L2.5,-0.5"/>
                </g>
               <g id="resetDef">
                       <use xlink:href="#rim2" fill="#404040">
                               <set attributeName="fill" to="#808080" begin="reset.mouseover" end="reset.mouseout"/>
                       </use>
               </g>
        </defs>

<script type="text/javascript">
var viewWidth = 758;
var viewHeight = 251;
var sectionId = 'dynsection-4';
</script>
<script xlink:href="../../svgpan.js"/>
<svg id="graph" class="graph">
<g id="viewport">
<title>RfParameters::eta_0</title>
<polygon fill="white" stroke="white" points="-4,5 -4,-247 755,-247 755,5 -4,5"/>
<!-- Node1 -->
<g id="node1" class="node"><title>Node1</title>
<polygon fill="#bfbfbf" stroke="black" points="0.5,-110.5 0.5,-131.5 107.5,-131.5 107.5,-110.5 0.5,-110.5"/>
<text text-anchor="middle" x="54" y="-118.5" font-family="Helvetica,sans-Serif" font-size="10.00">RfParameters::eta_0</text>
</g>
<!-- Node2 -->
<g id="node3" class="node"><title>Node2</title>
<a xlink:href="../../d6/db7/RfParameters_8h.html#a9b0a0b6ba8dfcfaaf01c436e35731750" target="_top" xlink:title="calc_phi_s">
<polygon fill="white" stroke="black" points="181.5,-208.5 181.5,-229.5 244.5,-229.5 244.5,-208.5 181.5,-208.5"/>
<text text-anchor="middle" x="213" y="-216.5" font-family="Helvetica,sans-Serif" font-size="10.00">calc_phi_s</text>
</a>
</g>
<!-- Node1&#45;&gt;Node2 -->
<g id="edge2" class="edge"><title>Node1&#45;&gt;Node2</title>
<path fill="none" stroke="midnightblue" d="M72.114,-138.785C89.3942,-154.963 116.758,-178.599 144,-194 155.646,-200.584 169.346,-205.973 181.457,-210.039"/>
<polygon fill="midnightblue" stroke="midnightblue" points="74.1382,-135.879 64.4856,-131.511 69.3074,-140.945 74.1382,-135.879"/>
</g>
<!-- Node4 -->
<g id="node7" class="node"><title>Node4</title>
<a xlink:href="../../da/d49/classRfParameters.html#a52dd5384f6f923f5950f7473fe1aa5ca" target="_top" xlink:title="RfParameters::RfParameters">
<polygon fill="white" stroke="black" points="318,-169.5 318,-190.5 462,-190.5 462,-169.5 318,-169.5"/>
<text text-anchor="middle" x="390" y="-177.5" font-family="Helvetica,sans-Serif" font-size="10.00">RfParameters::RfParameters</text>
</a>
</g>
<!-- Node1&#45;&gt;Node4 -->
<g id="edge20" class="edge"><title>Node1&#45;&gt;Node4</title>
<path fill="none" stroke="midnightblue" d="M81.638,-136.244C99.006,-145.065 122.18,-155.483 144,-161 201.31,-175.49 268.317,-179.879 317.913,-180.847"/>
<polygon fill="midnightblue" stroke="midnightblue" points="83.1174,-133.068 72.632,-131.549 79.8815,-139.275 83.1174,-133.068"/>
</g>
<!-- Node5 -->
<g id="node9" class="node"><title>Node5</title>
<a xlink:href="../../da/d49/classRfParameters.html#aa006029417d26dd656276464d55d6c21" target="_top" xlink:title="RfParameters::eta_tracking">
<polygon fill="white" stroke="black" points="144.5,-130.5 144.5,-151.5 281.5,-151.5 281.5,-130.5 144.5,-130.5"/>
<text text-anchor="middle" x="213" y="-138.5" font-family="Helvetica,sans-Serif" font-size="10.00">RfParameters::eta_tracking</text>
</a>
</g>
<!-- Node1&#45;&gt;Node5 -->
<g id="edge8" class="edge"><title>Node1&#45;&gt;Node5</title>
<path fill="none" stroke="midnightblue" d="M117.884,-129.036C126.571,-130.128 135.518,-131.254 144.286,-132.357"/>
<polygon fill="midnightblue" stroke="midnightblue" points="118.189,-125.547 107.83,-127.771 117.315,-132.492 118.189,-125.547"/>
</g>
<!-- Node6 -->
<g id="node11" class="node"><title>Node6</title>
<a xlink:href="../../de/d44/trackers_2utilities_8h.html#a87fe86bb22d0eb949c7eda2b11e8e83d" target="_top" xlink:title="hamiltonian">
<polygon fill="white" stroke="black" points="357,-110.5 357,-131.5 423,-131.5 423,-110.5 357,-110.5"/>
<text text-anchor="middle" x="390" y="-118.5" font-family="Helvetica,sans-Serif" font-size="10.00">hamiltonian</text>
</a>
</g>
<!-- Node1&#45;&gt;Node6 -->
<g id="edge16" class="edge"><title>Node1&#45;&gt;Node6</title>
<path fill="none" stroke="midnightblue" d="M117.809,-121C189.037,-121 301.552,-121 356.95,-121"/>
<polygon fill="midnightblue" stroke="midnightblue" points="117.612,-117.5 107.612,-121 117.612,-124.5 117.612,-117.5"/>
</g>
<!-- Node9 -->
<g id="node18" class="node"><title>Node9</title>
<a xlink:href="../../d8/d94/plot__beams_8h.html#a60f0c5f4e19f811bd8cea940c70007b6" target="_top" xlink:title="plot_long_phase_space">
<polygon fill="white" stroke="black" points="153.5,-52.5 153.5,-73.5 272.5,-73.5 272.5,-52.5 153.5,-52.5"/>
<text text-anchor="middle" x="213" y="-60.5" font-family="Helvetica,sans-Serif" font-size="10.00">plot_long_phase_space</text>
</a>
</g>
<!-- Node1&#45;&gt;Node9 -->
<g id="edge18" class="edge"><title>Node1&#45;&gt;Node9</title>
<path fill="none" stroke="midnightblue" d="M92.3147,-106.915C108.289,-101.051 127.037,-94.1827 144,-88 157.048,-83.244 171.494,-78.0058 183.782,-73.5583"/>
<polygon fill="midnightblue" stroke="midnightblue" points="90.9484,-103.688 82.7676,-110.42 93.3612,-110.259 90.9484,-103.688"/>
</g>
<!-- Node10 -->
<g id="node21" class="node"><title>Node10</title>
<a xlink:href="../../da/d49/classRfParameters.html#ae8a2bfb2ac202e7a3ee40a37b182bc2c" target="_top" xlink:title="RfParameters::sign\l_eta_0">
<polygon fill="white" stroke="black" points="162.5,-0 162.5,-34 263.5,-34 263.5,-0 162.5,-0"/>
<text text-anchor="start" x="170.5" y="-21" font-family="Helvetica,sans-Serif" font-size="10.00">RfParameters::sign</text>
<text text-anchor="middle" x="213" y="-8" font-family="Helvetica,sans-Serif" font-size="10.00">_eta_0</text>
</a>
</g>
<!-- Node1&#45;&gt;Node10 -->
<g id="edge22" class="edge"><title>Node1&#45;&gt;Node10</title>
<path fill="none" stroke="midnightblue" d="M70.905,-103.038C87.9846,-85.739 115.81,-59.792 144,-43 149.719,-39.5934 155.962,-36.498 162.279,-33.7279"/>
<polygon fill="midnightblue" stroke="midnightblue" points="68.2991,-100.697 63.8511,-110.313 73.3248,-105.57 68.2991,-100.697"/>
</g>
<!-- Node3 -->
<g id="node5" class="node"><title>Node3</title>
<a xlink:href="../../d5/d73/classLHCFlatSpectrum.html#a59be7af0b9fd8ae1c67f3860aacc0a96" target="_top" xlink:title="LHCFlatSpectrum::LHCFlat\lSpectrum">
<polygon fill="white" stroke="black" points="321,-209 321,-243 459,-243 459,-209 321,-209"/>
<text text-anchor="start" x="329" y="-230" font-family="Helvetica,sans-Serif" font-size="10.00">LHCFlatSpectrum::LHCFlat</text>
<text text-anchor="middle" x="390" y="-217" font-family="Helvetica,sans-Serif" font-size="10.00">Spectrum</text>
</a>
</g>
<!-- Node2&#45;&gt;Node3 -->
<g id="edge4" class="edge"><title>Node2&#45;&gt;Node3</title>
<path fill="none" stroke="midnightblue" d="M254.813,-220.654C274.517,-221.433 298.547,-222.383 320.852,-223.265"/>
<polygon fill="midnightblue" stroke="midnightblue" points="254.775,-217.149 244.644,-220.251 254.498,-224.144 254.775,-217.149"/>
</g>
<!-- Node2&#45;&gt;Node4 -->
<g id="edge6" class="edge"><title>Node2&#45;&gt;Node4</title>
<path fill="none" stroke="midnightblue" d="M254.664,-209.82C280.936,-204.031 314.944,-196.538 342.296,-190.511"/>
<polygon fill="midnightblue" stroke="midnightblue" points="253.657,-206.458 244.644,-212.028 255.163,-213.294 253.657,-206.458"/>
</g>
<!-- Node5&#45;&gt;Node6 -->
<g id="edge10" class="edge"><title>Node5&#45;&gt;Node6</title>
<path fill="none" stroke="midnightblue" d="M291.781,-132.098C314.694,-129.509 338.487,-126.821 356.916,-124.738"/>
<polygon fill="midnightblue" stroke="midnightblue" points="291.23,-128.638 281.686,-133.239 292.016,-135.594 291.23,-128.638"/>
</g>
<!-- Node7 -->
<g id="node13" class="node"><title>Node7</title>
<a xlink:href="../../de/d44/trackers_2utilities_8h.html#a8813a5065ff3ab5a0923846ab24ea265" target="_top" xlink:title="is_in_separatrix">
<polygon fill="white" stroke="black" points="498.5,-110.5 498.5,-131.5 583.5,-131.5 583.5,-110.5 498.5,-110.5"/>
<text text-anchor="middle" x="541" y="-118.5" font-family="Helvetica,sans-Serif" font-size="10.00">is_in_separatrix</text>
</a>
</g>
<!-- Node6&#45;&gt;Node7 -->
<g id="edge12" class="edge"><title>Node6&#45;&gt;Node7</title>
<path fill="none" stroke="midnightblue" d="M433.148,-121C453.637,-121 478.046,-121 498.457,-121"/>
<polygon fill="midnightblue" stroke="midnightblue" points="433.138,-117.5 423.138,-121 433.138,-124.5 433.138,-117.5"/>
</g>
<!-- Node8 -->
<g id="node15" class="node"><title>Node8</title>
<a xlink:href="../../d9/d7c/classBeams.html#a76e4b807fd1a83ae8fe190a774acaa19" target="_top" xlink:title="Beams::losses_separatrix">
<polygon fill="white" stroke="black" points="620,-110.5 620,-131.5 750,-131.5 750,-110.5 620,-110.5"/>
<text text-anchor="middle" x="685" y="-118.5" font-family="Helvetica,sans-Serif" font-size="10.00">Beams::losses_separatrix</text>
</a>
</g>
<!-- Node7&#45;&gt;Node8 -->
<g id="edge14" class="edge"><title>Node7&#45;&gt;Node8</title>
<path fill="none" stroke="midnightblue" d="M593.922,-121C602.391,-121 611.239,-121 619.95,-121"/>
<polygon fill="midnightblue" stroke="midnightblue" points="593.815,-117.5 583.815,-121 593.815,-124.5 593.815,-117.5"/>
</g>
</g>
</svg>
        <g id="navigator" transform="translate(0 0)" fill="#404254">
                <rect fill="#f2f5e9" fill-opacity="0.5" stroke="#606060" stroke-width=".5" x="0" y="0" width="60" height="60"/>
                <use id="zoomplus" xlink:href="#zoomPlus" x="17" y="9" onmousedown="handleZoom(evt,'in')"/>
                <use id="zoomminus" xlink:href="#zoomMin" x="42" y="9" onmousedown="handleZoom(evt,'out')"/>
                <use id="reset" xlink:href="#resetDef" x="30" y="36" onmousedown="handleReset()"/>
                <g id="arrowUp" xlink:href="#dirArrow" transform="translate(30 24)" onmousedown="handlePan(0,-1)">
                  <use xlink:href="#rim" fill="#404040">
                        <set attributeName="fill" to="#808080" begin="arrowUp.mouseover" end="arrowUp.mouseout"/>
                  </use>
                  <path fill="none" stroke="white" stroke-width="1.5" d="M0,-3.0v7 M-2.5,-0.5L0,-3.0L2.5,-0.5"/>
                </g>
                <g id="arrowRight" xlink:href="#dirArrow" transform="rotate(90) translate(36 -43)" onmousedown="handlePan(1,0)">
                  <use xlink:href="#rim" fill="#404040">
                        <set attributeName="fill" to="#808080" begin="arrowRight.mouseover" end="arrowRight.mouseout"/>
                  </use>
                  <path fill="none" stroke="white" stroke-width="1.5" d="M0,-3.0v7 M-2.5,-0.5L0,-3.0L2.5,-0.5"/>
                </g>
                <g id="arrowDown" xlink:href="#dirArrow" transform="rotate(180) translate(-30 -48)" onmousedown="handlePan(0,1)">
                  <use xlink:href="#rim" fill="#404040">
                        <set attributeName="fill" to="#808080" begin="arrowDown.mouseover" end="arrowDown.mouseout"/>
                  </use>
                  <path fill="none" stroke="white" stroke-width="1.5" d="M0,-3.0v7 M-2.5,-0.5L0,-3.0L2.5,-0.5"/>
                </g>
                <g id="arrowLeft" xlink:href="#dirArrow" transform="rotate(270) translate(-36 17)" onmousedown="handlePan(-1,0)">
                  <use xlink:href="#rim" fill="#404040">
                        <set attributeName="fill" to="#808080" begin="arrowLeft.mouseover" end="arrowLeft.mouseout"/>
                  </use>
                  <path fill="none" stroke="white" stroke-width="1.5" d="M0,-3.0v7 M-2.5,-0.5L0,-3.0L2.5,-0.5"/>
                </g>
        </g>
        <svg viewBox="0 0 15 15" width="100%" height="30px" preserveAspectRatio="xMaxYMin meet">
         <g id="arrow_out" transform="scale(0.3 0.3)">
          <a xlink:href="classRfParameters_a7166ec3f2397ce1afc561e07a1754f52_icgraph_org.svg" target="_base">
           <rect id="button" ry="5" rx="5" y="6" x="6" height="38" width="38"
                fill="#f2f5e9" fill-opacity="0.5" stroke="#606060" stroke-width="1.0"/>
           <path id="arrow"
             d="M 11.500037,31.436501 C 11.940474,20.09759 22.043105,11.32322 32.158766,21.979434 L 37.068811,17.246167 C 37.068811,17.246167 37.088388,32 37.088388,32 L 22.160133,31.978069 C 22.160133,31.978069 26.997745,27.140456 26.997745,27.140456 C 18.528582,18.264221 13.291696,25.230495 11.500037,31.436501 z"
             style="fill:#404040;"/>
          </a>
         </g>
        </svg>
</svg>
