<?xml version="1.0" encoding="UTF-8" standalone="no"?>
<!DOCTYPE svg PUBLIC "-//W3C//DTD SVG 1.1//EN"
 "http://www.w3.org/Graphics/SVG/1.1/DTD/svg11.dtd">
<!-- Generated by graphviz version 2.26.3 (20100126.1600)
 -->
<!-- Title: RfParameters::calc_phi_s Pages: 1 -->
<svg width="268pt" height="110pt"
 viewBox="0.00 0.00 268.00 110.00" xmlns="http://www.w3.org/2000/svg" xmlns:xlink="http://www.w3.org/1999/xlink">
<g id="graph1" class="graph" transform="scale(1 1) rotate(0) translate(4 106)">
<title>RfParameters::calc_phi_s</title>
<polygon fill="white" stroke="white" points="-4,5 -4,-106 265,-106 265,5 -4,5"/>
<!-- Node1 -->
<g id="node1" class="node"><title>Node1</title>
<polygon fill="#bfbfbf" stroke="black" points="0.5,-34 0.5,-68 101.5,-68 101.5,-34 0.5,-34"/>
<text text-anchor="start" x="8.5" y="-55" font-family="Helvetica,sans-Serif" font-size="10.00">RfParameters::calc</text>
<text text-anchor="middle" x="51" y="-42" font-family="Helvetica,sans-Serif" font-size="10.00">_phi_s</text>
</g>
<!-- Node2 -->
<g id="node3" class="node"><title>Node2</title>
<a xlink:href="../../df/d6d/namespacemymath.html#a37e69ec6da5a044211b293b350ed0df5" target="_top" xlink:title="mymath::cum_trapezoid">
<polygon fill="white" stroke="black" points="138,-80.5 138,-101.5 260,-101.5 260,-80.5 138,-80.5"/>
<text text-anchor="middle" x="199" y="-88.5" font-family="Helvetica,sans-Serif" font-size="10.00">mymath::cum_trapezoid</text>
</a>
</g>
<!-- Node1&#45;&gt;Node2 -->
<g id="edge2" class="edge"><title>Node1&#45;&gt;Node2</title>
<path fill="none" stroke="midnightblue" d="M101.519,-64.6539C117.181,-68.8868 134.408,-73.5428 149.968,-77.748"/>
<polygon fill="midnightblue" stroke="midnightblue" points="149.351,-81.2069 159.918,-80.4373 151.178,-74.4494 149.351,-81.2069"/>
</g>
<!-- Node3 -->
<g id="node5" class="node"><title>Node3</title>
<a xlink:href="../../df/d6d/namespacemymath.html#ae6f0d1529ee101163ab6f5a40dd268f4" target="_top" xlink:title="mymath::linspace">
<polygon fill="white" stroke="black" points="152,-40.5 152,-61.5 246,-61.5 246,-40.5 152,-40.5"/>
<text text-anchor="middle" x="199" y="-48.5" font-family="Helvetica,sans-Serif" font-size="10.00">mymath::linspace</text>
</a>
</g>
<!-- Node1&#45;&gt;Node3 -->
<g id="edge4" class="edge"><title>Node1&#45;&gt;Node3</title>
<path fill="none" stroke="midnightblue" d="M101.519,-51C114.338,-51 128.205,-51 141.348,-51"/>
<polygon fill="midnightblue" stroke="midnightblue" points="141.7,-54.5001 151.7,-51 141.7,-47.5001 141.7,-54.5001"/>
</g>
<!-- Node4 -->
<g id="node7" class="node"><title>Node4</title>
<a xlink:href="../../df/d6d/namespacemymath.html#a5bcc40b5ebadd9d98f351775df65ec9f" target="_top" xlink:title="mymath::min">
<polygon fill="white" stroke="black" points="162,-0.5 162,-21.5 236,-21.5 236,-0.5 162,-0.5"/>
<text text-anchor="middle" x="199" y="-8.5" font-family="Helvetica,sans-Serif" font-size="10.00">mymath::min</text>
</a>
</g>
<!-- Node1&#45;&gt;Node4 -->
<g id="edge6" class="edge"><title>Node1&#45;&gt;Node4</title>
<path fill="none" stroke="midnightblue" d="M101.519,-37.3461C117.885,-32.923 135.96,-28.0378 152.055,-23.6878"/>
<polygon fill="midnightblue" stroke="midnightblue" points="153.047,-27.0453 161.788,-21.0574 151.221,-20.2878 153.047,-27.0453"/>
</g>
</g>
</svg>
