<?xml version="1.0" encoding="UTF-8" standalone="no"?>
<!DOCTYPE svg PUBLIC "-//W3C//DTD SVG 1.1//EN"
 "http://www.w3.org/Graphics/SVG/1.1/DTD/svg11.dtd">
<!-- Generated by graphviz version 2.26.3 (20100126.1600)
 -->
<!-- Title: option::printUsage Pages: 1 -->
<!--zoomable 614 -->
<svg id="main" version="1.1" xmlns="http://www.w3.org/2000/svg" xmlns:xlink="http://www.w3.org/1999/xlink" xml:space="preserve" onload="init(evt)">
        <defs>
                <circle id="rim" cx="0" cy="0" r="7"/>
                <circle id="rim2" cx="0" cy="0" r="3.5"/>
                <g id="zoomPlus">
                        <use xlink:href="#rim" fill="#404040">
                                <set attributeName="fill" to="#808080" begin="zoomplus.mouseover" end="zoomplus.mouseout"/>
                        </use>
                        <path d="M-4,0h8M0,-4v8" fill="none" stroke="white" stroke-width="1.5" pointer-events="none"/>
                </g>
                <g id="zoomMin">
                        <use xlink:href="#rim" fill="#404040">
                                <set attributeName="fill" to="#808080" begin="zoomminus.mouseover" end="zoomminus.mouseout"/>
                        </use>
                        <path d="M-4,0h8" fill="none" stroke="white" stroke-width="1.5" pointer-events="none"/>
                </g>
                <g id="dirArrow">
                        <path fill="none" stroke="white" stroke-width="1.5" d="M0,-3.0v7 M-2.5,-0.5L0,-3.0L2.5,-0.5"/>
                </g>
               <g id="resetDef">
                       <use xlink:href="#rim2" fill="#404040">
                               <set attributeName="fill" to="#808080" begin="reset.mouseover" end="reset.mouseout"/>
                       </use>
               </g>
        </defs>

<script type="text/javascript">
var viewWidth = 504;
var viewHeight = 614;
var sectionId = 'dynsection-4';
</script>
<script xlink:href="../../svgpan.js"/>
<svg id="graph" class="graph">
<g id="viewport">
<title>option::printUsage</title>
<polygon fill="white" stroke="white" points="-4,5 -4,-610 501,-610 501,5 -4,5"/>
<!-- Node1 -->
<g id="node1" class="node"><title>Node1</title>
<polygon fill="#bfbfbf" stroke="black" points="0,-292.5 0,-313.5 96,-313.5 96,-292.5 0,-292.5"/>
<text text-anchor="middle" x="48" y="-300.5" font-family="Helvetica,sans-Serif" font-size="10.00">option::printUsage</text>
</g>
<!-- Node2 -->
<g id="node3" class="node"><title>Node2</title>
<a xlink:href="../../da/dfb/structoption_1_1PrintUsageImplementation.html#ab38c4198c5cccea2ccd992c8e014df70" target="_top" xlink:title="option::PrintUsageImplementation\l::printUsage">
<polygon fill="white" stroke="black" points="132,-286 132,-320 296,-320 296,-286 132,-286"/>
<text text-anchor="start" x="140" y="-307" font-family="Helvetica,sans-Serif" font-size="10.00">option::PrintUsageImplementation</text>
<text text-anchor="middle" x="214" y="-294" font-family="Helvetica,sans-Serif" font-size="10.00">::printUsage</text>
</a>
</g>
<!-- Node1&#45;&gt;Node2 -->
<g id="edge2" class="edge"><title>Node1&#45;&gt;Node2</title>
<path fill="none" stroke="midnightblue" d="M96.0141,-303C104.223,-303 112.992,-303 121.902,-303"/>
<polygon fill="midnightblue" stroke="midnightblue" points="121.999,-306.5 131.999,-303 121.999,-299.5 121.999,-306.5"/>
</g>
<!-- Node3 -->
<g id="node5" class="node"><title>Node3</title>
<a xlink:href="../../de/dc9/classoption_1_1PrintUsageImplementation_1_1LinePartIterator.html#afe43ca12d399ed3c871e4dc5bf63356e" target="_top" xlink:title="Moves iteration to the next table (if any). Has to be called once on a new LinePartIterator to move t...">
<polygon fill="white" stroke="black" points="332,-572 332,-606 496,-606 496,-572 332,-572"/>
<text text-anchor="start" x="340" y="-593" font-family="Helvetica,sans-Serif" font-size="10.00">option::PrintUsageImplementation</text>
<text text-anchor="middle" x="414" y="-580" font-family="Helvetica,sans-Serif" font-size="10.00">::LinePartIterator::nextTable</text>
</a>
</g>
<!-- Node2&#45;&gt;Node3 -->
<g id="edge4" class="edge"><title>Node2&#45;&gt;Node3</title>
<path fill="none" stroke="midnightblue" d="M216.818,-320.108C225.327,-366.313 255.072,-494.722 332,-563 333.305,-564.159 334.663,-565.266 336.064,-566.323"/>
<polygon fill="midnightblue" stroke="midnightblue" points="334.239,-569.312 344.523,-571.858 338.071,-563.454 334.239,-569.312"/>
</g>
<!-- Node4 -->
<g id="node7" class="node"><title>Node4</title>
<a xlink:href="../../de/dc9/classoption_1_1PrintUsageImplementation_1_1LinePartIterator.html#a0cbe8ed79ab4958a70b957598dd76fa6" target="_top" xlink:title="Reset iteration to the beginning of the current table.">
<polygon fill="white" stroke="black" points="332,-520 332,-554 496,-554 496,-520 332,-520"/>
<text text-anchor="start" x="340" y="-541" font-family="Helvetica,sans-Serif" font-size="10.00">option::PrintUsageImplementation</text>
<text text-anchor="middle" x="414" y="-528" font-family="Helvetica,sans-Serif" font-size="10.00">::LinePartIterator::restartTable</text>
</a>
</g>
<!-- Node2&#45;&gt;Node4 -->
<g id="edge6" class="edge"><title>Node2&#45;&gt;Node4</title>
<path fill="none" stroke="midnightblue" d="M218.929,-320.107C231.217,-359.713 266.998,-458.338 332,-511 333.567,-512.269 335.196,-513.477 336.877,-514.626"/>
<polygon fill="midnightblue" stroke="midnightblue" points="335.288,-517.754 345.664,-519.896 338.889,-511.751 335.288,-517.754"/>
</g>
<!-- Node5 -->
<g id="node9" class="node"><title>Node5</title>
<a xlink:href="../../de/dc9/classoption_1_1PrintUsageImplementation_1_1LinePartIterator.html#a55d5c3e50f9c1d8cd48f518899a5a48c" target="_top" xlink:title="Moves iteration to the next row (if any). Has to be called once after each call to nextTable() to mov...">
<polygon fill="white" stroke="black" points="332,-468 332,-502 496,-502 496,-468 332,-468"/>
<text text-anchor="start" x="340" y="-489" font-family="Helvetica,sans-Serif" font-size="10.00">option::PrintUsageImplementation</text>
<text text-anchor="middle" x="414" y="-476" font-family="Helvetica,sans-Serif" font-size="10.00">::LinePartIterator::nextRow</text>
</a>
</g>
<!-- Node2&#45;&gt;Node5 -->
<g id="edge8" class="edge"><title>Node2&#45;&gt;Node5</title>
<path fill="none" stroke="midnightblue" d="M222.453,-320.32C239,-352.438 278.751,-421.375 332,-459 334.081,-460.47 336.249,-461.86 338.483,-463.174"/>
<polygon fill="midnightblue" stroke="midnightblue" points="336.906,-466.299 347.383,-467.871 340.173,-460.108 336.906,-466.299"/>
</g>
<!-- Node6 -->
<g id="node11" class="node"><title>Node6</title>
<a xlink:href="../../de/dc9/classoption_1_1PrintUsageImplementation_1_1LinePartIterator.html#a58b8743da57de2d108472eee60324df6" target="_top" xlink:title="Moves iteration to the next part (if any). Has to be called once after each call to nextRow() to move...">
<polygon fill="white" stroke="black" points="332,-416 332,-450 496,-450 496,-416 332,-416"/>
<text text-anchor="start" x="340" y="-437" font-family="Helvetica,sans-Serif" font-size="10.00">option::PrintUsageImplementation</text>
<text text-anchor="middle" x="414" y="-424" font-family="Helvetica,sans-Serif" font-size="10.00">::LinePartIterator::next</text>
</a>
</g>
<!-- Node2&#45;&gt;Node6 -->
<g id="edge10" class="edge"><title>Node2&#45;&gt;Node6</title>
<path fill="none" stroke="midnightblue" d="M229.112,-320.189C250.081,-343.056 290.167,-383.34 332,-407 335.016,-408.706 338.159,-410.316 341.382,-411.834"/>
<polygon fill="midnightblue" stroke="midnightblue" points="340.067,-415.079 350.632,-415.871 342.866,-408.663 340.067,-415.079"/>
</g>
<!-- Node7 -->
<g id="node13" class="node"><title>Node7</title>
<a xlink:href="../../de/dc9/classoption_1_1PrintUsageImplementation_1_1LinePartIterator.html#afa41382acabcd37ca70f7e8b9994b8c0" target="_top" xlink:title="Returns the index (counting from 0) of the column in which the part pointed to by data() is located...">
<polygon fill="white" stroke="black" points="332,-364 332,-398 496,-398 496,-364 332,-364"/>
<text text-anchor="start" x="340" y="-385" font-family="Helvetica,sans-Serif" font-size="10.00">option::PrintUsageImplementation</text>
<text text-anchor="middle" x="414" y="-372" font-family="Helvetica,sans-Serif" font-size="10.00">::LinePartIterator::column</text>
</a>
</g>
<!-- Node2&#45;&gt;Node7 -->
<g id="edge12" class="edge"><title>Node2&#45;&gt;Node7</title>
<path fill="none" stroke="midnightblue" d="M249.993,-320.073C273.152,-330.754 304.04,-344.442 332,-355 337.065,-356.913 342.339,-358.805 347.663,-360.644"/>
<polygon fill="midnightblue" stroke="midnightblue" points="346.669,-364.003 357.263,-363.891 348.911,-357.371 346.669,-364.003"/>
</g>
<!-- Node8 -->
<g id="node15" class="node"><title>Node8</title>
<a xlink:href="../../de/dc9/classoption_1_1PrintUsageImplementation_1_1LinePartIterator.html#a03b6fedfe805d7fc73216da5cd33270e" target="_top" xlink:title="Returns the width in screen columns of the part pointed to by data(). Takes multi&#45;byte UTF&#45;8 sequence...">
<polygon fill="white" stroke="black" points="332,-312 332,-346 496,-346 496,-312 332,-312"/>
<text text-anchor="start" x="340" y="-333" font-family="Helvetica,sans-Serif" font-size="10.00">option::PrintUsageImplementation</text>
<text text-anchor="middle" x="414" y="-320" font-family="Helvetica,sans-Serif" font-size="10.00">::LinePartIterator::screenLength</text>
</a>
</g>
<!-- Node2&#45;&gt;Node8 -->
<g id="edge14" class="edge"><title>Node2&#45;&gt;Node8</title>
<path fill="none" stroke="midnightblue" d="M296.213,-313.688C304.654,-314.785 313.27,-315.905 321.809,-317.015"/>
<polygon fill="midnightblue" stroke="midnightblue" points="321.415,-320.493 331.783,-318.312 322.317,-313.552 321.415,-320.493"/>
</g>
<!-- Node9 -->
<g id="node17" class="node"><title>Node9</title>
<a xlink:href="../../de/dc9/classoption_1_1PrintUsageImplementation_1_1LinePartIterator.html#a8ad1201d95bf0bd9453a731da8c15a10" target="_top" xlink:title="Returns the index (counting from 0) of the line within the current column this part belongs to...">
<polygon fill="white" stroke="black" points="332,-260 332,-294 496,-294 496,-260 332,-260"/>
<text text-anchor="start" x="340" y="-281" font-family="Helvetica,sans-Serif" font-size="10.00">option::PrintUsageImplementation</text>
<text text-anchor="middle" x="414" y="-268" font-family="Helvetica,sans-Serif" font-size="10.00">::LinePartIterator::line</text>
</a>
</g>
<!-- Node2&#45;&gt;Node9 -->
<g id="edge16" class="edge"><title>Node2&#45;&gt;Node9</title>
<path fill="none" stroke="midnightblue" d="M296.213,-292.312C304.654,-291.215 313.27,-290.095 321.809,-288.985"/>
<polygon fill="midnightblue" stroke="midnightblue" points="322.317,-292.448 331.783,-287.688 321.415,-285.507 322.317,-292.448"/>
</g>
<!-- Node10 -->
<g id="node19" class="node"><title>Node10</title>
<a xlink:href="../../de/dc9/classoption_1_1PrintUsageImplementation_1_1LinePartIterator.html#ada26229add63bd479c7877f2f8e32908" target="_top" xlink:title="Returns the current part of the iteration.">
<polygon fill="white" stroke="black" points="332,-208 332,-242 496,-242 496,-208 332,-208"/>
<text text-anchor="start" x="340" y="-229" font-family="Helvetica,sans-Serif" font-size="10.00">option::PrintUsageImplementation</text>
<text text-anchor="middle" x="414" y="-216" font-family="Helvetica,sans-Serif" font-size="10.00">::LinePartIterator::data</text>
</a>
</g>
<!-- Node2&#45;&gt;Node10 -->
<g id="edge18" class="edge"><title>Node2&#45;&gt;Node10</title>
<path fill="none" stroke="midnightblue" d="M249.993,-285.927C273.152,-275.246 304.04,-261.558 332,-251 337.065,-249.087 342.339,-247.195 347.663,-245.356"/>
<polygon fill="midnightblue" stroke="midnightblue" points="348.911,-248.629 357.263,-242.109 346.669,-241.997 348.911,-248.629"/>
</g>
<!-- Node11 -->
<g id="node21" class="node"><title>Node11</title>
<a xlink:href="../../de/dc9/classoption_1_1PrintUsageImplementation_1_1LinePartIterator.html#a557e521cb41e951a34df2737d25f9dce" target="_top" xlink:title="Returns the length of the part pointed to by data() in raw chars (not UTF&#45;8 characters).">
<polygon fill="white" stroke="black" points="332,-156 332,-190 496,-190 496,-156 332,-156"/>
<text text-anchor="start" x="340" y="-177" font-family="Helvetica,sans-Serif" font-size="10.00">option::PrintUsageImplementation</text>
<text text-anchor="middle" x="414" y="-164" font-family="Helvetica,sans-Serif" font-size="10.00">::LinePartIterator::length</text>
</a>
</g>
<!-- Node2&#45;&gt;Node11 -->
<g id="edge20" class="edge"><title>Node2&#45;&gt;Node11</title>
<path fill="none" stroke="midnightblue" d="M229.112,-285.811C250.081,-262.944 290.167,-222.66 332,-199 335.016,-197.294 338.159,-195.684 341.382,-194.166"/>
<polygon fill="midnightblue" stroke="midnightblue" points="342.866,-197.337 350.632,-190.129 340.067,-190.921 342.866,-197.337"/>
</g>
<!-- Node12 -->
<g id="node23" class="node"><title>Node12</title>
<a xlink:href="../../de/d50/classoption_1_1PrintUsageImplementation_1_1LineWrapper.html#add20eca40865ad892d6c28b412ac14d5" target="_top" xlink:title="Process, wrap and output the next piece of data.">
<polygon fill="white" stroke="black" points="332,-104 332,-138 496,-138 496,-104 332,-104"/>
<text text-anchor="start" x="340" y="-125" font-family="Helvetica,sans-Serif" font-size="10.00">option::PrintUsageImplementation</text>
<text text-anchor="middle" x="414" y="-112" font-family="Helvetica,sans-Serif" font-size="10.00">::LineWrapper::process</text>
</a>
</g>
<!-- Node2&#45;&gt;Node12 -->
<g id="edge22" class="edge"><title>Node2&#45;&gt;Node12</title>
<path fill="none" stroke="midnightblue" d="M222.453,-285.68C239,-253.562 278.751,-184.625 332,-147 334.081,-145.53 336.249,-144.14 338.483,-142.826"/>
<polygon fill="midnightblue" stroke="midnightblue" points="340.173,-145.892 347.383,-138.129 336.906,-139.701 340.173,-145.892"/>
</g>
<!-- Node13 -->
<g id="node25" class="node"><title>Node13</title>
<a xlink:href="../../de/dc9/classoption_1_1PrintUsageImplementation_1_1LinePartIterator.html#a96c448939f33a811174ea7b5addb312e" target="_top" xlink:title="Reset iteration to the beginning of the current row.">
<polygon fill="white" stroke="black" points="332,-52 332,-86 496,-86 496,-52 332,-52"/>
<text text-anchor="start" x="340" y="-73" font-family="Helvetica,sans-Serif" font-size="10.00">option::PrintUsageImplementation</text>
<text text-anchor="middle" x="414" y="-60" font-family="Helvetica,sans-Serif" font-size="10.00">::LinePartIterator::restartRow</text>
</a>
</g>
<!-- Node2&#45;&gt;Node13 -->
<g id="edge24" class="edge"><title>Node2&#45;&gt;Node13</title>
<path fill="none" stroke="midnightblue" d="M218.929,-285.893C231.217,-246.287 266.998,-147.662 332,-95 333.567,-93.7308 335.196,-92.5232 336.877,-91.3742"/>
<polygon fill="midnightblue" stroke="midnightblue" points="338.889,-94.2489 345.664,-86.1036 335.288,-88.2459 338.889,-94.2489"/>
</g>
<!-- Node14 -->
<g id="node27" class="node"><title>Node14</title>
<a xlink:href="../../de/d50/classoption_1_1PrintUsageImplementation_1_1LineWrapper.html#a9383db9fd3fb18ce091db63ce0b149fd" target="_top" xlink:title="Writes out all remaining data from the LineWrapper using write. Unlike process() this method indents ...">
<polygon fill="white" stroke="black" points="332,-0 332,-34 496,-34 496,-0 332,-0"/>
<text text-anchor="start" x="340" y="-21" font-family="Helvetica,sans-Serif" font-size="10.00">option::PrintUsageImplementation</text>
<text text-anchor="middle" x="414" y="-8" font-family="Helvetica,sans-Serif" font-size="10.00">::LineWrapper::flush</text>
</a>
</g>
<!-- Node2&#45;&gt;Node14 -->
<g id="edge26" class="edge"><title>Node2&#45;&gt;Node14</title>
<path fill="none" stroke="midnightblue" d="M216.818,-285.892C225.327,-239.687 255.072,-111.278 332,-43 333.305,-41.8413 334.663,-40.7343 336.064,-39.6765"/>
<polygon fill="midnightblue" stroke="midnightblue" points="338.071,-42.5458 344.523,-34.1416 334.239,-36.6884 338.071,-42.5458"/>
</g>
</g>
</svg>
        <g id="navigator" transform="translate(0 0)" fill="#404254">
                <rect fill="#f2f5e9" fill-opacity="0.5" stroke="#606060" stroke-width=".5" x="0" y="0" width="60" height="60"/>
                <use id="zoomplus" xlink:href="#zoomPlus" x="17" y="9" onmousedown="handleZoom(evt,'in')"/>
                <use id="zoomminus" xlink:href="#zoomMin" x="42" y="9" onmousedown="handleZoom(evt,'out')"/>
                <use id="reset" xlink:href="#resetDef" x="30" y="36" onmousedown="handleReset()"/>
                <g id="arrowUp" xlink:href="#dirArrow" transform="translate(30 24)" onmousedown="handlePan(0,-1)">
                  <use xlink:href="#rim" fill="#404040">
                        <set attributeName="fill" to="#808080" begin="arrowUp.mouseover" end="arrowUp.mouseout"/>
                  </use>
                  <path fill="none" stroke="white" stroke-width="1.5" d="M0,-3.0v7 M-2.5,-0.5L0,-3.0L2.5,-0.5"/>
                </g>
                <g id="arrowRight" xlink:href="#dirArrow" transform="rotate(90) translate(36 -43)" onmousedown="handlePan(1,0)">
                  <use xlink:href="#rim" fill="#404040">
                        <set attributeName="fill" to="#808080" begin="arrowRight.mouseover" end="arrowRight.mouseout"/>
                  </use>
                  <path fill="none" stroke="white" stroke-width="1.5" d="M0,-3.0v7 M-2.5,-0.5L0,-3.0L2.5,-0.5"/>
                </g>
                <g id="arrowDown" xlink:href="#dirArrow" transform="rotate(180) translate(-30 -48)" onmousedown="handlePan(0,1)">
                  <use xlink:href="#rim" fill="#404040">
                        <set attributeName="fill" to="#808080" begin="arrowDown.mouseover" end="arrowDown.mouseout"/>
                  </use>
                  <path fill="none" stroke="white" stroke-width="1.5" d="M0,-3.0v7 M-2.5,-0.5L0,-3.0L2.5,-0.5"/>
                </g>
                <g id="arrowLeft" xlink:href="#dirArrow" transform="rotate(270) translate(-36 17)" onmousedown="handlePan(-1,0)">
                  <use xlink:href="#rim" fill="#404040">
                        <set attributeName="fill" to="#808080" begin="arrowLeft.mouseover" end="arrowLeft.mouseout"/>
                  </use>
                  <path fill="none" stroke="white" stroke-width="1.5" d="M0,-3.0v7 M-2.5,-0.5L0,-3.0L2.5,-0.5"/>
                </g>
        </g>
        <svg viewBox="0 0 15 15" width="100%" height="30px" preserveAspectRatio="xMaxYMin meet">
         <g id="arrow_out" transform="scale(0.3 0.3)">
          <a xlink:href="namespaceoption_a27bfa29dc37bb1bfc5e0b891509e5881_cgraph_org.svg" target="_base">
           <rect id="button" ry="5" rx="5" y="6" x="6" height="38" width="38"
                fill="#f2f5e9" fill-opacity="0.5" stroke="#606060" stroke-width="1.0"/>
           <path id="arrow"
             d="M 11.500037,31.436501 C 11.940474,20.09759 22.043105,11.32322 32.158766,21.979434 L 37.068811,17.246167 C 37.068811,17.246167 37.088388,32 37.088388,32 L 22.160133,31.978069 C 22.160133,31.978069 26.997745,27.140456 26.997745,27.140456 C 18.528582,18.264221 13.291696,25.230495 11.500037,31.436501 z"
             style="fill:#404040;"/>
          </a>
         </g>
        </svg>
</svg>
