<?xml version="1.0" encoding="UTF-8" standalone="no"?>
<!DOCTYPE svg PUBLIC "-//W3C//DTD SVG 1.1//EN"
 "http://www.w3.org/Graphics/SVG/1.1/DTD/svg11.dtd">
<!-- Generated by graphviz version 2.26.3 (20100126.1600)
 -->
<!-- Title: Slices::gaussian_fit Pages: 1 -->
<svg width="332pt" height="30pt"
 viewBox="0.00 0.00 332.00 30.00" xmlns="http://www.w3.org/2000/svg" xmlns:xlink="http://www.w3.org/1999/xlink">
<g id="graph1" class="graph" transform="scale(1 1) rotate(0) translate(4 26)">
<title>Slices::gaussian_fit</title>
<polygon fill="white" stroke="white" points="-4,5 -4,-26 329,-26 329,5 -4,5"/>
<!-- Node1 -->
<g id="node1" class="node"><title>Node1</title>
<polygon fill="#bfbfbf" stroke="black" points="0,-0.5 0,-21.5 102,-21.5 102,-0.5 0,-0.5"/>
<text text-anchor="middle" x="51" y="-8.5" font-family="Helvetica,sans-Serif" font-size="10.00">Slices::gaussian_fit</text>
</g>
<!-- Node2 -->
<g id="node3" class="node"><title>Node2</title>
<a xlink:href="../../dc/d45/classSlices.html#adee634f207f19e4484a7a509e07776b2" target="_top" xlink:title="Slices::track">
<polygon fill="white" stroke="black" points="138.5,-0.5 138.5,-21.5 209.5,-21.5 209.5,-0.5 138.5,-0.5"/>
<text text-anchor="middle" x="174" y="-8.5" font-family="Helvetica,sans-Serif" font-size="10.00">Slices::track</text>
</a>
</g>
<!-- Node1&#45;&gt;Node2 -->
<g id="edge2" class="edge"><title>Node1&#45;&gt;Node2</title>
<path fill="none" stroke="midnightblue" d="M112.142,-11C121.08,-11 130.029,-11 138.232,-11"/>
<polygon fill="midnightblue" stroke="midnightblue" points="112.095,-7.5001 102.095,-11 112.094,-14.5001 112.095,-7.5001"/>
</g>
<!-- Node3 -->
<g id="node5" class="node"><title>Node3</title>
<a xlink:href="../../dc/d45/classSlices.html#a10c5c52b833e4f5d7fe45aa3cefbc782" target="_top" xlink:title="Slices::Slices">
<polygon fill="white" stroke="black" points="246.5,-0.5 246.5,-21.5 323.5,-21.5 323.5,-0.5 246.5,-0.5"/>
<text text-anchor="middle" x="285" y="-8.5" font-family="Helvetica,sans-Serif" font-size="10.00">Slices::Slices</text>
</a>
</g>
<!-- Node2&#45;&gt;Node3 -->
<g id="edge4" class="edge"><title>Node2&#45;&gt;Node3</title>
<path fill="none" stroke="midnightblue" d="M219.834,-11C228.617,-11 237.733,-11 246.265,-11"/>
<polygon fill="midnightblue" stroke="midnightblue" points="219.732,-7.5001 209.732,-11 219.732,-14.5001 219.732,-7.5001"/>
</g>
</g>
</svg>
