<?xml version="1.0" encoding="UTF-8" standalone="no"?>
<!DOCTYPE svg PUBLIC "-//W3C//DTD SVG 1.1//EN"
 "http://www.w3.org/Graphics/SVG/1.1/DTD/svg11.dtd">
<!-- Generated by graphviz version 2.26.3 (20100126.1600)
 -->
<!-- Title: Slices::Slices Pages: 1 -->
<!--zoomable 280 -->
<svg id="main" version="1.1" xmlns="http://www.w3.org/2000/svg" xmlns:xlink="http://www.w3.org/1999/xlink" xml:space="preserve" onload="init(evt)">
        <defs>
                <circle id="rim" cx="0" cy="0" r="7"/>
                <circle id="rim2" cx="0" cy="0" r="3.5"/>
                <g id="zoomPlus">
                        <use xlink:href="#rim" fill="#404040">
                                <set attributeName="fill" to="#808080" begin="zoomplus.mouseover" end="zoomplus.mouseout"/>
                        </use>
                        <path d="M-4,0h8M0,-4v8" fill="none" stroke="white" stroke-width="1.5" pointer-events="none"/>
                </g>
                <g id="zoomMin">
                        <use xlink:href="#rim" fill="#404040">
                                <set attributeName="fill" to="#808080" begin="zoomminus.mouseover" end="zoomminus.mouseout"/>
                        </use>
                        <path d="M-4,0h8" fill="none" stroke="white" stroke-width="1.5" pointer-events="none"/>
                </g>
                <g id="dirArrow">
                        <path fill="none" stroke="white" stroke-width="1.5" d="M0,-3.0v7 M-2.5,-0.5L0,-3.0L2.5,-0.5"/>
                </g>
               <g id="resetDef">
                       <use xlink:href="#rim2" fill="#404040">
                               <set attributeName="fill" to="#808080" begin="reset.mouseover" end="reset.mouseout"/>
                       </use>
               </g>
        </defs>

<script type="text/javascript">
var viewWidth = 666;
var viewHeight = 280;
var sectionId = 'dynsection-1';
</script>
<script xlink:href="../../svgpan.js"/>
<svg id="graph" class="graph">
<g id="viewport">
<title>Slices::Slices</title>
<polygon fill="white" stroke="white" points="-4,5 -4,-276 663,-276 663,5 -4,5"/>
<!-- Node1 -->
<g id="node1" class="node"><title>Node1</title>
<polygon fill="#bfbfbf" stroke="black" points="0.5,-99.5 0.5,-120.5 77.5,-120.5 77.5,-99.5 0.5,-99.5"/>
<text text-anchor="middle" x="39" y="-107.5" font-family="Helvetica,sans-Serif" font-size="10.00">Slices::Slices</text>
</g>
<!-- Node2 -->
<g id="node3" class="node"><title>Node2</title>
<a xlink:href="../../dc/d45/classSlices.html#a842041861f0211874450e5d659aec229" target="_top" xlink:title="Slices::set_cuts">
<polygon fill="white" stroke="black" points="114.5,-152.5 114.5,-173.5 201.5,-173.5 201.5,-152.5 114.5,-152.5"/>
<text text-anchor="middle" x="158" y="-160.5" font-family="Helvetica,sans-Serif" font-size="10.00">Slices::set_cuts</text>
</a>
</g>
<!-- Node1&#45;&gt;Node2 -->
<g id="edge2" class="edge"><title>Node1&#45;&gt;Node2</title>
<path fill="none" stroke="midnightblue" d="M62.7954,-120.598C80.6317,-128.542 105.261,-139.511 125,-148.302"/>
<polygon fill="midnightblue" stroke="midnightblue" points="123.687,-151.549 134.246,-152.42 126.535,-145.155 123.687,-151.549"/>
</g>
<!-- Node8 -->
<g id="node16" class="node"><title>Node8</title>
<a xlink:href="../../dc/d45/classSlices.html#adee634f207f19e4484a7a509e07776b2" target="_top" xlink:title="Slices::track">
<polygon fill="white" stroke="black" points="122.5,-46.5 122.5,-67.5 193.5,-67.5 193.5,-46.5 122.5,-46.5"/>
<text text-anchor="middle" x="158" y="-54.5" font-family="Helvetica,sans-Serif" font-size="10.00">Slices::track</text>
</a>
</g>
<!-- Node1&#45;&gt;Node8 -->
<g id="edge16" class="edge"><title>Node1&#45;&gt;Node8</title>
<path fill="none" stroke="midnightblue" d="M62.7954,-99.402C80.6317,-91.4582 105.261,-80.4889 125,-71.6976"/>
<polygon fill="midnightblue" stroke="midnightblue" points="126.535,-74.8454 134.246,-67.5796 123.687,-68.4509 126.535,-74.8454"/>
</g>
<!-- Node3 -->
<g id="node5" class="node"><title>Node3</title>
<a xlink:href="../../dc/d45/classSlices.html#a66da8b26310c40415c351b99d6d390e9" target="_top" xlink:title="Slices::sort_particles">
<polygon fill="white" stroke="black" points="254,-250.5 254,-271.5 362,-271.5 362,-250.5 254,-250.5"/>
<text text-anchor="middle" x="308" y="-258.5" font-family="Helvetica,sans-Serif" font-size="10.00">Slices::sort_particles</text>
</a>
</g>
<!-- Node2&#45;&gt;Node3 -->
<g id="edge4" class="edge"><title>Node2&#45;&gt;Node3</title>
<path fill="none" stroke="midnightblue" d="M167.066,-173.61C180.919,-189.233 208.834,-218.464 238,-236 244.843,-240.114 252.467,-243.7 260.096,-246.773"/>
<polygon fill="midnightblue" stroke="midnightblue" points="259.11,-250.142 269.702,-250.392 261.578,-243.591 259.11,-250.142"/>
</g>
<!-- Node4 -->
<g id="node7" class="node"><title>Node4</title>
<a xlink:href="../../df/d6d/namespacemymath.html#a0c3266208d3fd64201093717945f63f5" target="_top" xlink:title="mymath::mean">
<polygon fill="white" stroke="black" points="419,-191.5 419,-212.5 501,-212.5 501,-191.5 419,-191.5"/>
<text text-anchor="middle" x="460" y="-199.5" font-family="Helvetica,sans-Serif" font-size="10.00">mymath::mean</text>
</a>
</g>
<!-- Node2&#45;&gt;Node4 -->
<g id="edge6" class="edge"><title>Node2&#45;&gt;Node4</title>
<path fill="none" stroke="midnightblue" d="M173.697,-173.619C189.245,-183.447 214.122,-197.363 238,-203 295.246,-216.514 363.134,-213.56 408.632,-208.97"/>
<polygon fill="midnightblue" stroke="midnightblue" points="409.271,-212.422 418.84,-207.875 408.524,-205.462 409.271,-212.422"/>
</g>
<!-- Node5 -->
<g id="node9" class="node"><title>Node5</title>
<a xlink:href="../../df/d6d/namespacemymath.html#ab01df805ab25fb8c5851fb2916e2c81e" target="_top" xlink:title="mymath::standard_deviation">
<polygon fill="white" stroke="black" points="238,-172.5 238,-193.5 378,-193.5 378,-172.5 238,-172.5"/>
<text text-anchor="middle" x="308" y="-180.5" font-family="Helvetica,sans-Serif" font-size="10.00">mymath::standard_deviation</text>
</a>
</g>
<!-- Node2&#45;&gt;Node5 -->
<g id="edge8" class="edge"><title>Node2&#45;&gt;Node5</title>
<path fill="none" stroke="midnightblue" d="M201.789,-168.839C210.02,-169.936 218.861,-171.115 227.801,-172.307"/>
<polygon fill="midnightblue" stroke="midnightblue" points="227.534,-175.802 237.909,-173.655 228.459,-168.864 227.534,-175.802"/>
</g>
<!-- Node6 -->
<g id="node12" class="node"><title>Node6</title>
<a xlink:href="../../dc/d45/classSlices.html#aad2f5ba39d65310d1c0570b36dfb3d9c" target="_top" xlink:title="Slices::convert_coordinates">
<polygon fill="white" stroke="black" points="239.5,-132.5 239.5,-153.5 376.5,-153.5 376.5,-132.5 239.5,-132.5"/>
<text text-anchor="middle" x="308" y="-140.5" font-family="Helvetica,sans-Serif" font-size="10.00">Slices::convert_coordinates</text>
</a>
</g>
<!-- Node2&#45;&gt;Node6 -->
<g id="edge12" class="edge"><title>Node2&#45;&gt;Node6</title>
<path fill="none" stroke="midnightblue" d="M201.789,-157.161C210.426,-156.01 219.735,-154.769 229.124,-153.517"/>
<polygon fill="midnightblue" stroke="midnightblue" points="229.868,-156.949 239.317,-152.158 228.942,-150.01 229.868,-156.949"/>
</g>
<!-- Node7 -->
<g id="node14" class="node"><title>Node7</title>
<a xlink:href="../../df/d6d/namespacemymath.html#a45cee6943f76e1f289057abfa0c9c1fc" target="_top" xlink:title="mymath::linspace">
<polygon fill="white" stroke="black" points="261,-92.5 261,-113.5 355,-113.5 355,-92.5 261,-92.5"/>
<text text-anchor="middle" x="308" y="-100.5" font-family="Helvetica,sans-Serif" font-size="10.00">mymath::linspace</text>
</a>
</g>
<!-- Node2&#45;&gt;Node7 -->
<g id="edge14" class="edge"><title>Node2&#45;&gt;Node7</title>
<path fill="none" stroke="midnightblue" d="M176.624,-152.449C192.557,-143.726 216.292,-131.444 238,-123 243.875,-120.715 250.118,-118.561 256.362,-116.574"/>
<polygon fill="midnightblue" stroke="midnightblue" points="257.581,-119.861 266.123,-113.594 255.537,-113.166 257.581,-119.861"/>
</g>
<!-- Node5&#45;&gt;Node4 -->
<g id="edge10" class="edge"><title>Node5&#45;&gt;Node4</title>
<path fill="none" stroke="midnightblue" d="M378.216,-191.777C388.492,-193.062 398.91,-194.364 408.713,-195.589"/>
<polygon fill="midnightblue" stroke="midnightblue" points="408.317,-199.067 418.674,-196.834 409.185,-192.121 408.317,-199.067"/>
</g>
<!-- Node9 -->
<g id="node18" class="node"><title>Node9</title>
<a xlink:href="../../dc/d45/classSlices.html#ae9463517699373a87a1dae18becf9319" target="_top" xlink:title="Slices::slice_constant\l_space_histogram">
<polygon fill="white" stroke="black" points="251.5,-40 251.5,-74 364.5,-74 364.5,-40 251.5,-40"/>
<text text-anchor="start" x="259.5" y="-61" font-family="Helvetica,sans-Serif" font-size="10.00">Slices::slice_constant</text>
<text text-anchor="middle" x="308" y="-48" font-family="Helvetica,sans-Serif" font-size="10.00">_space_histogram</text>
</a>
</g>
<!-- Node8&#45;&gt;Node9 -->
<g id="edge18" class="edge"><title>Node8&#45;&gt;Node9</title>
<path fill="none" stroke="midnightblue" d="M193.548,-57C207.825,-57 224.769,-57 241.183,-57"/>
<polygon fill="midnightblue" stroke="midnightblue" points="241.306,-60.5001 251.306,-57 241.306,-53.5001 241.306,-60.5001"/>
</g>
<!-- Node14 -->
<g id="node28" class="node"><title>Node14</title>
<a xlink:href="../../dc/d45/classSlices.html#a31398a7ae3bf058bf358e38e61eb50c9" target="_top" xlink:title="Slices::gaussian_fit">
<polygon fill="white" stroke="black" points="257,-0.5 257,-21.5 359,-21.5 359,-0.5 257,-0.5"/>
<text text-anchor="middle" x="308" y="-8.5" font-family="Helvetica,sans-Serif" font-size="10.00">Slices::gaussian_fit</text>
</a>
</g>
<!-- Node8&#45;&gt;Node14 -->
<g id="edge28" class="edge"><title>Node8&#45;&gt;Node14</title>
<path fill="none" stroke="midnightblue" d="M189.454,-46.4886C204.162,-41.6479 221.937,-35.9032 238,-31 245.229,-28.7935 252.899,-26.5266 260.411,-24.3479"/>
<polygon fill="midnightblue" stroke="midnightblue" points="261.503,-27.6759 270.145,-21.547 259.567,-20.9489 261.503,-27.6759"/>
</g>
<!-- Node10 -->
<g id="node20" class="node"><title>Node10</title>
<a xlink:href="../../dc/d45/classSlices.html#a1ad6096cfca13a05fbee0197367b8f82" target="_top" xlink:title="Slices::histogram">
<polygon fill="white" stroke="black" points="414,-46.5 414,-67.5 506,-67.5 506,-46.5 414,-46.5"/>
<text text-anchor="middle" x="460" y="-54.5" font-family="Helvetica,sans-Serif" font-size="10.00">Slices::histogram</text>
</a>
</g>
<!-- Node9&#45;&gt;Node10 -->
<g id="edge20" class="edge"><title>Node9&#45;&gt;Node10</title>
<path fill="none" stroke="midnightblue" d="M364.599,-57C377.387,-57 390.959,-57 403.733,-57"/>
<polygon fill="midnightblue" stroke="midnightblue" points="403.776,-60.5001 413.776,-57 403.776,-53.5001 403.776,-60.5001"/>
</g>
<!-- Node11 -->
<g id="node22" class="node"><title>Node11</title>
<a xlink:href="../../df/d28/omp_8h.html#ab628587850957d925be0c2157f5f6823" target="_top" xlink:title="omp_get_num_threads">
<polygon fill="white" stroke="black" points="542,-86.5 542,-107.5 658,-107.5 658,-86.5 542,-86.5"/>
<text text-anchor="middle" x="600" y="-94.5" font-family="Helvetica,sans-Serif" font-size="10.00">omp_get_num_threads</text>
</a>
</g>
<!-- Node10&#45;&gt;Node11 -->
<g id="edge22" class="edge"><title>Node10&#45;&gt;Node11</title>
<path fill="none" stroke="midnightblue" d="M496.783,-67.5095C514.089,-72.454 534.92,-78.4058 553.324,-83.6639"/>
<polygon fill="midnightblue" stroke="midnightblue" points="552.399,-87.0398 562.976,-86.4218 554.323,-80.3092 552.399,-87.0398"/>
</g>
<!-- Node12 -->
<g id="node24" class="node"><title>Node12</title>
<a xlink:href="../../df/d28/omp_8h.html#aba06990768c6b572ca3f69029334a9df" target="_top" xlink:title="omp_get_thread_num">
<polygon fill="white" stroke="black" points="545,-46.5 545,-67.5 655,-67.5 655,-46.5 545,-46.5"/>
<text text-anchor="middle" x="600" y="-54.5" font-family="Helvetica,sans-Serif" font-size="10.00">omp_get_thread_num</text>
</a>
</g>
<!-- Node10&#45;&gt;Node12 -->
<g id="edge24" class="edge"><title>Node10&#45;&gt;Node12</title>
<path fill="none" stroke="midnightblue" d="M506.229,-57C515.237,-57 524.84,-57 534.337,-57"/>
<polygon fill="midnightblue" stroke="midnightblue" points="534.566,-60.5001 544.566,-57 534.566,-53.5001 534.566,-60.5001"/>
</g>
<!-- Node13 -->
<g id="node26" class="node"><title>Node13</title>
<a xlink:href="../../df/d6d/namespacemymath.html#a5bcc40b5ebadd9d98f351775df65ec9f" target="_top" xlink:title="mymath::min">
<polygon fill="white" stroke="black" points="563,-6.5 563,-27.5 637,-27.5 637,-6.5 563,-6.5"/>
<text text-anchor="middle" x="600" y="-14.5" font-family="Helvetica,sans-Serif" font-size="10.00">mymath::min</text>
</a>
</g>
<!-- Node10&#45;&gt;Node13 -->
<g id="edge26" class="edge"><title>Node10&#45;&gt;Node13</title>
<path fill="none" stroke="midnightblue" d="M496.783,-46.4905C514.089,-41.546 534.92,-35.5942 553.324,-30.3361"/>
<polygon fill="midnightblue" stroke="midnightblue" points="554.323,-33.6908 562.976,-27.5782 552.399,-26.9602 554.323,-33.6908"/>
</g>
</g>
</svg>
        <g id="navigator" transform="translate(0 0)" fill="#404254">
                <rect fill="#f2f5e9" fill-opacity="0.5" stroke="#606060" stroke-width=".5" x="0" y="0" width="60" height="60"/>
                <use id="zoomplus" xlink:href="#zoomPlus" x="17" y="9" onmousedown="handleZoom(evt,'in')"/>
                <use id="zoomminus" xlink:href="#zoomMin" x="42" y="9" onmousedown="handleZoom(evt,'out')"/>
                <use id="reset" xlink:href="#resetDef" x="30" y="36" onmousedown="handleReset()"/>
                <g id="arrowUp" xlink:href="#dirArrow" transform="translate(30 24)" onmousedown="handlePan(0,-1)">
                  <use xlink:href="#rim" fill="#404040">
                        <set attributeName="fill" to="#808080" begin="arrowUp.mouseover" end="arrowUp.mouseout"/>
                  </use>
                  <path fill="none" stroke="white" stroke-width="1.5" d="M0,-3.0v7 M-2.5,-0.5L0,-3.0L2.5,-0.5"/>
                </g>
                <g id="arrowRight" xlink:href="#dirArrow" transform="rotate(90) translate(36 -43)" onmousedown="handlePan(1,0)">
                  <use xlink:href="#rim" fill="#404040">
                        <set attributeName="fill" to="#808080" begin="arrowRight.mouseover" end="arrowRight.mouseout"/>
                  </use>
                  <path fill="none" stroke="white" stroke-width="1.5" d="M0,-3.0v7 M-2.5,-0.5L0,-3.0L2.5,-0.5"/>
                </g>
                <g id="arrowDown" xlink:href="#dirArrow" transform="rotate(180) translate(-30 -48)" onmousedown="handlePan(0,1)">
                  <use xlink:href="#rim" fill="#404040">
                        <set attributeName="fill" to="#808080" begin="arrowDown.mouseover" end="arrowDown.mouseout"/>
                  </use>
                  <path fill="none" stroke="white" stroke-width="1.5" d="M0,-3.0v7 M-2.5,-0.5L0,-3.0L2.5,-0.5"/>
                </g>
                <g id="arrowLeft" xlink:href="#dirArrow" transform="rotate(270) translate(-36 17)" onmousedown="handlePan(-1,0)">
                  <use xlink:href="#rim" fill="#404040">
                        <set attributeName="fill" to="#808080" begin="arrowLeft.mouseover" end="arrowLeft.mouseout"/>
                  </use>
                  <path fill="none" stroke="white" stroke-width="1.5" d="M0,-3.0v7 M-2.5,-0.5L0,-3.0L2.5,-0.5"/>
                </g>
        </g>
        <svg viewBox="0 0 15 15" width="100%" height="30px" preserveAspectRatio="xMaxYMin meet">
         <g id="arrow_out" transform="scale(0.3 0.3)">
          <a xlink:href="classSlices_a7a38e2aee99dad7db53da5cc7e005619_cgraph_org.svg" target="_base">
           <rect id="button" ry="5" rx="5" y="6" x="6" height="38" width="38"
                fill="#f2f5e9" fill-opacity="0.5" stroke="#606060" stroke-width="1.0"/>
           <path id="arrow"
             d="M 11.500037,31.436501 C 11.940474,20.09759 22.043105,11.32322 32.158766,21.979434 L 37.068811,17.246167 C 37.068811,17.246167 37.088388,32 37.088388,32 L 22.160133,31.978069 C 22.160133,31.978069 26.997745,27.140456 26.997745,27.140456 C 18.528582,18.264221 13.291696,25.230495 11.500037,31.436501 z"
             style="fill:#404040;"/>
          </a>
         </g>
        </svg>
</svg>
