<?xml version="1.0" encoding="UTF-8" standalone="no"?>
<!DOCTYPE svg PUBLIC "-//W3C//DTD SVG 1.1//EN"
 "http://www.w3.org/Graphics/SVG/1.1/DTD/svg11.dtd">
<!-- Generated by graphviz version 2.26.3 (20100126.1600)
 -->
<!-- Title: Slices::histogram Pages: 1 -->
<svg width="472pt" height="42pt"
 viewBox="0.00 0.00 472.00 42.00" xmlns="http://www.w3.org/2000/svg" xmlns:xlink="http://www.w3.org/1999/xlink">
<g id="graph1" class="graph" transform="scale(1 1) rotate(0) translate(4 38)">
<title>Slices::histogram</title>
<polygon fill="white" stroke="white" points="-4,5 -4,-38 469,-38 469,5 -4,5"/>
<!-- Node1 -->
<g id="node1" class="node"><title>Node1</title>
<polygon fill="#bfbfbf" stroke="black" points="0,-6.5 0,-27.5 92,-27.5 92,-6.5 0,-6.5"/>
<text text-anchor="middle" x="46" y="-14.5" font-family="Helvetica,sans-Serif" font-size="10.00">Slices::histogram</text>
</g>
<!-- Node2 -->
<g id="node3" class="node"><title>Node2</title>
<a xlink:href="../../dc/d45/classSlices.html#ae9463517699373a87a1dae18becf9319" target="_top" xlink:title="Slices::slice_constant\l_space_histogram">
<polygon fill="white" stroke="black" points="128.5,-0 128.5,-34 241.5,-34 241.5,-0 128.5,-0"/>
<text text-anchor="start" x="136.5" y="-21" font-family="Helvetica,sans-Serif" font-size="10.00">Slices::slice_constant</text>
<text text-anchor="middle" x="185" y="-8" font-family="Helvetica,sans-Serif" font-size="10.00">_space_histogram</text>
</a>
</g>
<!-- Node1&#45;&gt;Node2 -->
<g id="edge2" class="edge"><title>Node1&#45;&gt;Node2</title>
<path fill="none" stroke="midnightblue" d="M102.489,-17C110.994,-17 119.769,-17 128.279,-17"/>
<polygon fill="midnightblue" stroke="midnightblue" points="102.285,-13.5001 92.285,-17 102.285,-20.5001 102.285,-13.5001"/>
</g>
<!-- Node3 -->
<g id="node5" class="node"><title>Node3</title>
<a xlink:href="../../dc/d45/classSlices.html#adee634f207f19e4484a7a509e07776b2" target="_top" xlink:title="Slices::track">
<polygon fill="white" stroke="black" points="278.5,-6.5 278.5,-27.5 349.5,-27.5 349.5,-6.5 278.5,-6.5"/>
<text text-anchor="middle" x="314" y="-14.5" font-family="Helvetica,sans-Serif" font-size="10.00">Slices::track</text>
</a>
</g>
<!-- Node2&#45;&gt;Node3 -->
<g id="edge4" class="edge"><title>Node2&#45;&gt;Node3</title>
<path fill="none" stroke="midnightblue" d="M251.85,-17C260.956,-17 270,-17 278.254,-17"/>
<polygon fill="midnightblue" stroke="midnightblue" points="251.581,-13.5001 241.581,-17 251.581,-20.5001 251.581,-13.5001"/>
</g>
<!-- Node4 -->
<g id="node7" class="node"><title>Node4</title>
<a xlink:href="../../dc/d45/classSlices.html#a7a38e2aee99dad7db53da5cc7e005619" target="_top" xlink:title="Slices::Slices">
<polygon fill="white" stroke="black" points="386.5,-6.5 386.5,-27.5 463.5,-27.5 463.5,-6.5 386.5,-6.5"/>
<text text-anchor="middle" x="425" y="-14.5" font-family="Helvetica,sans-Serif" font-size="10.00">Slices::Slices</text>
</a>
</g>
<!-- Node3&#45;&gt;Node4 -->
<g id="edge6" class="edge"><title>Node3&#45;&gt;Node4</title>
<path fill="none" stroke="midnightblue" d="M359.834,-17C368.617,-17 377.733,-17 386.265,-17"/>
<polygon fill="midnightblue" stroke="midnightblue" points="359.732,-13.5001 349.732,-17 359.732,-20.5001 359.732,-13.5001"/>
</g>
</g>
</svg>
