<?xml version="1.0" encoding="UTF-8" standalone="no"?>
<!DOCTYPE svg PUBLIC "-//W3C//DTD SVG 1.1//EN"
 "http://www.w3.org/Graphics/SVG/1.1/DTD/svg11.dtd">
<!-- Generated by graphviz version 2.26.3 (20100126.1600)
 -->
<!-- Title: Slices::histogram Pages: 1 -->
<svg width="252pt" height="110pt"
 viewBox="0.00 0.00 252.00 110.00" xmlns="http://www.w3.org/2000/svg" xmlns:xlink="http://www.w3.org/1999/xlink">
<g id="graph1" class="graph" transform="scale(1 1) rotate(0) translate(4 106)">
<title>Slices::histogram</title>
<polygon fill="white" stroke="white" points="-4,5 -4,-106 249,-106 249,5 -4,5"/>
<!-- Node1 -->
<g id="node1" class="node"><title>Node1</title>
<polygon fill="#bfbfbf" stroke="black" points="0,-40.5 0,-61.5 92,-61.5 92,-40.5 0,-40.5"/>
<text text-anchor="middle" x="46" y="-48.5" font-family="Helvetica,sans-Serif" font-size="10.00">Slices::histogram</text>
</g>
<!-- Node2 -->
<g id="node3" class="node"><title>Node2</title>
<a xlink:href="../../df/d6d/namespacemymath.html#a5bcc40b5ebadd9d98f351775df65ec9f" target="_top" xlink:title="mymath::min">
<polygon fill="white" stroke="black" points="149,-80.5 149,-101.5 223,-101.5 223,-80.5 149,-80.5"/>
<text text-anchor="middle" x="186" y="-88.5" font-family="Helvetica,sans-Serif" font-size="10.00">mymath::min</text>
</a>
</g>
<!-- Node1&#45;&gt;Node2 -->
<g id="edge2" class="edge"><title>Node1&#45;&gt;Node2</title>
<path fill="none" stroke="midnightblue" d="M82.7834,-61.5095C100.089,-66.454 120.92,-72.4058 139.324,-77.6639"/>
<polygon fill="midnightblue" stroke="midnightblue" points="138.399,-81.0398 148.976,-80.4218 140.323,-74.3092 138.399,-81.0398"/>
</g>
<!-- Node3 -->
<g id="node5" class="node"><title>Node3</title>
<a xlink:href="../../d1/db0/openmp_8h.html#ad5abda85be2c3d59dc7eaa0e1d320670" target="_top" xlink:title="omp_get_num_threads">
<polygon fill="white" stroke="black" points="128,-40.5 128,-61.5 244,-61.5 244,-40.5 128,-40.5"/>
<text text-anchor="middle" x="186" y="-48.5" font-family="Helvetica,sans-Serif" font-size="10.00">omp_get_num_threads</text>
</a>
</g>
<!-- Node1&#45;&gt;Node3 -->
<g id="edge4" class="edge"><title>Node1&#45;&gt;Node3</title>
<path fill="none" stroke="midnightblue" d="M92.2292,-51C100.358,-51 108.972,-51 117.555,-51"/>
<polygon fill="midnightblue" stroke="midnightblue" points="117.586,-54.5001 127.586,-51 117.586,-47.5001 117.586,-54.5001"/>
</g>
<!-- Node4 -->
<g id="node7" class="node"><title>Node4</title>
<a xlink:href="../../d1/db0/openmp_8h.html#afa582dd42157e33aa4ac4b4e60872b9f" target="_top" xlink:title="omp_get_thread_num">
<polygon fill="white" stroke="black" points="131,-0.5 131,-21.5 241,-21.5 241,-0.5 131,-0.5"/>
<text text-anchor="middle" x="186" y="-8.5" font-family="Helvetica,sans-Serif" font-size="10.00">omp_get_thread_num</text>
</a>
</g>
<!-- Node1&#45;&gt;Node4 -->
<g id="edge6" class="edge"><title>Node1&#45;&gt;Node4</title>
<path fill="none" stroke="midnightblue" d="M82.7834,-40.4905C100.089,-35.546 120.92,-29.5942 139.324,-24.3361"/>
<polygon fill="midnightblue" stroke="midnightblue" points="140.323,-27.6908 148.976,-21.5782 138.399,-20.9602 140.323,-27.6908"/>
</g>
</g>
</svg>
