<?xml version="1.0" encoding="UTF-8" standalone="no"?>
<!DOCTYPE svg PUBLIC "-//W3C//DTD SVG 1.1//EN"
 "http://www.w3.org/Graphics/SVG/1.1/DTD/svg11.dtd">
<!-- Generated by graphviz version 2.26.3 (20100126.1600)
 -->
<!-- Title: Slices::track Pages: 1 -->
<svg width="510pt" height="116pt"
 viewBox="0.00 0.00 510.00 116.00" xmlns="http://www.w3.org/2000/svg" xmlns:xlink="http://www.w3.org/1999/xlink">
<g id="graph1" class="graph" transform="scale(1 1) rotate(0) translate(4 112)">
<title>Slices::track</title>
<polygon fill="white" stroke="white" points="-4,5 -4,-112 507,-112 507,5 -4,5"/>
<!-- Node1 -->
<g id="node1" class="node"><title>Node1</title>
<polygon fill="#bfbfbf" stroke="black" points="0.5,-63.5 0.5,-84.5 71.5,-84.5 71.5,-63.5 0.5,-63.5"/>
<text text-anchor="middle" x="36" y="-71.5" font-family="Helvetica,sans-Serif" font-size="10.00">Slices::track</text>
</g>
<!-- Node2 -->
<g id="node3" class="node"><title>Node2</title>
<a xlink:href="../../dc/d45/classSlices.html#a31398a7ae3bf058bf358e38e61eb50c9" target="_top" xlink:title="Slices::gaussian_fit">
<polygon fill="white" stroke="black" points="114,-86.5 114,-107.5 216,-107.5 216,-86.5 114,-86.5"/>
<text text-anchor="middle" x="165" y="-94.5" font-family="Helvetica,sans-Serif" font-size="10.00">Slices::gaussian_fit</text>
</a>
</g>
<!-- Node1&#45;&gt;Node2 -->
<g id="edge2" class="edge"><title>Node1&#45;&gt;Node2</title>
<path fill="none" stroke="midnightblue" d="M71.5913,-80.3457C81.5263,-82.1171 92.6151,-84.0942 103.585,-86.05"/>
<polygon fill="midnightblue" stroke="midnightblue" points="103.129,-89.5239 113.589,-87.8336 104.358,-82.6326 103.129,-89.5239"/>
</g>
<!-- Node3 -->
<g id="node5" class="node"><title>Node3</title>
<a xlink:href="../../dc/d45/classSlices.html#ae9463517699373a87a1dae18becf9319" target="_top" xlink:title="Slices::slice_constant\l_space_histogram">
<polygon fill="white" stroke="black" points="108.5,-34 108.5,-68 221.5,-68 221.5,-34 108.5,-34"/>
<text text-anchor="start" x="116.5" y="-55" font-family="Helvetica,sans-Serif" font-size="10.00">Slices::slice_constant</text>
<text text-anchor="middle" x="165" y="-42" font-family="Helvetica,sans-Serif" font-size="10.00">_space_histogram</text>
</a>
</g>
<!-- Node1&#45;&gt;Node3 -->
<g id="edge4" class="edge"><title>Node1&#45;&gt;Node3</title>
<path fill="none" stroke="midnightblue" d="M71.5913,-67.6543C79.9159,-66.17 89.0506,-64.5414 98.2464,-62.9018"/>
<polygon fill="midnightblue" stroke="midnightblue" points="98.983,-66.3258 108.213,-61.1247 97.7543,-59.4344 98.983,-66.3258"/>
</g>
<!-- Node4 -->
<g id="node7" class="node"><title>Node4</title>
<a xlink:href="../../dc/d45/classSlices.html#a1ad6096cfca13a05fbee0197367b8f82" target="_top" xlink:title="Slices::histogram">
<polygon fill="white" stroke="black" points="258,-40.5 258,-61.5 350,-61.5 350,-40.5 258,-40.5"/>
<text text-anchor="middle" x="304" y="-48.5" font-family="Helvetica,sans-Serif" font-size="10.00">Slices::histogram</text>
</a>
</g>
<!-- Node3&#45;&gt;Node4 -->
<g id="edge6" class="edge"><title>Node3&#45;&gt;Node4</title>
<path fill="none" stroke="midnightblue" d="M221.537,-51C230.086,-51 238.907,-51 247.457,-51"/>
<polygon fill="midnightblue" stroke="midnightblue" points="247.715,-54.5001 257.715,-51 247.715,-47.5001 247.715,-54.5001"/>
</g>
<!-- Node5 -->
<g id="node9" class="node"><title>Node5</title>
<a xlink:href="../../df/d6d/namespacemymath.html#a5bcc40b5ebadd9d98f351775df65ec9f" target="_top" xlink:title="mymath::min">
<polygon fill="white" stroke="black" points="407,-80.5 407,-101.5 481,-101.5 481,-80.5 407,-80.5"/>
<text text-anchor="middle" x="444" y="-88.5" font-family="Helvetica,sans-Serif" font-size="10.00">mymath::min</text>
</a>
</g>
<!-- Node4&#45;&gt;Node5 -->
<g id="edge8" class="edge"><title>Node4&#45;&gt;Node5</title>
<path fill="none" stroke="midnightblue" d="M340.783,-61.5095C358.089,-66.454 378.92,-72.4058 397.324,-77.6639"/>
<polygon fill="midnightblue" stroke="midnightblue" points="396.399,-81.0398 406.976,-80.4218 398.323,-74.3092 396.399,-81.0398"/>
</g>
<!-- Node6 -->
<g id="node11" class="node"><title>Node6</title>
<a xlink:href="../../df/d28/omp_8h.html#ab628587850957d925be0c2157f5f6823" target="_top" xlink:title="omp_get_num_threads">
<polygon fill="white" stroke="black" points="386,-40.5 386,-61.5 502,-61.5 502,-40.5 386,-40.5"/>
<text text-anchor="middle" x="444" y="-48.5" font-family="Helvetica,sans-Serif" font-size="10.00">omp_get_num_threads</text>
</a>
</g>
<!-- Node4&#45;&gt;Node6 -->
<g id="edge10" class="edge"><title>Node4&#45;&gt;Node6</title>
<path fill="none" stroke="midnightblue" d="M350.229,-51C358.358,-51 366.972,-51 375.555,-51"/>
<polygon fill="midnightblue" stroke="midnightblue" points="375.586,-54.5001 385.586,-51 375.586,-47.5001 375.586,-54.5001"/>
</g>
<!-- Node7 -->
<g id="node13" class="node"><title>Node7</title>
<a xlink:href="../../df/d28/omp_8h.html#aba06990768c6b572ca3f69029334a9df" target="_top" xlink:title="omp_get_thread_num">
<polygon fill="white" stroke="black" points="389,-0.5 389,-21.5 499,-21.5 499,-0.5 389,-0.5"/>
<text text-anchor="middle" x="444" y="-8.5" font-family="Helvetica,sans-Serif" font-size="10.00">omp_get_thread_num</text>
</a>
</g>
<!-- Node4&#45;&gt;Node7 -->
<g id="edge12" class="edge"><title>Node4&#45;&gt;Node7</title>
<path fill="none" stroke="midnightblue" d="M340.783,-40.4905C358.089,-35.546 378.92,-29.5942 397.324,-24.3361"/>
<polygon fill="midnightblue" stroke="midnightblue" points="398.323,-27.6908 406.976,-21.5782 396.399,-20.9602 398.323,-27.6908"/>
</g>
</g>
</svg>
