<?xml version="1.0" encoding="UTF-8" standalone="no"?>
<!DOCTYPE svg PUBLIC "-//W3C//DTD SVG 1.1//EN"
 "http://www.w3.org/Graphics/SVG/1.1/DTD/svg11.dtd">
<!-- Generated by graphviz version 2.26.3 (20100126.1600)
 -->
<!-- Title: Slices::sort_particles Pages: 1 -->
<svg width="354pt" height="30pt"
 viewBox="0.00 0.00 354.00 30.00" xmlns="http://www.w3.org/2000/svg" xmlns:xlink="http://www.w3.org/1999/xlink">
<g id="graph1" class="graph" transform="scale(1 1) rotate(0) translate(4 26)">
<title>Slices::sort_particles</title>
<polygon fill="white" stroke="white" points="-4,5 -4,-26 351,-26 351,5 -4,5"/>
<!-- Node1 -->
<g id="node1" class="node"><title>Node1</title>
<polygon fill="#bfbfbf" stroke="black" points="0,-0.5 0,-21.5 108,-21.5 108,-0.5 0,-0.5"/>
<text text-anchor="middle" x="54" y="-8.5" font-family="Helvetica,sans-Serif" font-size="10.00">Slices::sort_particles</text>
</g>
<!-- Node2 -->
<g id="node3" class="node"><title>Node2</title>
<a xlink:href="../../dc/d45/classSlices.html#a842041861f0211874450e5d659aec229" target="_top" xlink:title="Slices::set_cuts">
<polygon fill="white" stroke="black" points="144.5,-0.5 144.5,-21.5 231.5,-21.5 231.5,-0.5 144.5,-0.5"/>
<text text-anchor="middle" x="188" y="-8.5" font-family="Helvetica,sans-Serif" font-size="10.00">Slices::set_cuts</text>
</a>
</g>
<!-- Node1&#45;&gt;Node2 -->
<g id="edge2" class="edge"><title>Node1&#45;&gt;Node2</title>
<path fill="none" stroke="midnightblue" d="M118.391,-11C127.198,-11 136.065,-11 144.383,-11"/>
<polygon fill="midnightblue" stroke="midnightblue" points="118.117,-7.5001 108.117,-11 118.117,-14.5001 118.117,-7.5001"/>
</g>
<!-- Node3 -->
<g id="node5" class="node"><title>Node3</title>
<a xlink:href="../../dc/d45/classSlices.html#a7a38e2aee99dad7db53da5cc7e005619" target="_top" xlink:title="Slices::Slices">
<polygon fill="white" stroke="black" points="268.5,-0.5 268.5,-21.5 345.5,-21.5 345.5,-0.5 268.5,-0.5"/>
<text text-anchor="middle" x="307" y="-8.5" font-family="Helvetica,sans-Serif" font-size="10.00">Slices::Slices</text>
</a>
</g>
<!-- Node2&#45;&gt;Node3 -->
<g id="edge4" class="edge"><title>Node2&#45;&gt;Node3</title>
<path fill="none" stroke="midnightblue" d="M241.705,-11C250.731,-11 259.936,-11 268.48,-11"/>
<polygon fill="midnightblue" stroke="midnightblue" points="241.636,-7.5001 231.635,-11 241.635,-14.5001 241.636,-7.5001"/>
</g>
</g>
</svg>
