<?xml version="1.0" encoding="UTF-8" standalone="no"?>
<!DOCTYPE svg PUBLIC "-//W3C//DTD SVG 1.1//EN"
 "http://www.w3.org/Graphics/SVG/1.1/DTD/svg11.dtd">
<!-- Generated by graphviz version 2.26.3 (20100126.1600)
 -->
<!-- Title: Slices::track Pages: 1 -->
<!--zoomable 281 -->
<svg id="main" version="1.1" xmlns="http://www.w3.org/2000/svg" xmlns:xlink="http://www.w3.org/1999/xlink" xml:space="preserve" onload="init(evt)">
        <defs>
                <circle id="rim" cx="0" cy="0" r="7"/>
                <circle id="rim2" cx="0" cy="0" r="3.5"/>
                <g id="zoomPlus">
                        <use xlink:href="#rim" fill="#404040">
                                <set attributeName="fill" to="#808080" begin="zoomplus.mouseover" end="zoomplus.mouseout"/>
                        </use>
                        <path d="M-4,0h8M0,-4v8" fill="none" stroke="white" stroke-width="1.5" pointer-events="none"/>
                </g>
                <g id="zoomMin">
                        <use xlink:href="#rim" fill="#404040">
                                <set attributeName="fill" to="#808080" begin="zoomminus.mouseover" end="zoomminus.mouseout"/>
                        </use>
                        <path d="M-4,0h8" fill="none" stroke="white" stroke-width="1.5" pointer-events="none"/>
                </g>
                <g id="dirArrow">
                        <path fill="none" stroke="white" stroke-width="1.5" d="M0,-3.0v7 M-2.5,-0.5L0,-3.0L2.5,-0.5"/>
                </g>
               <g id="resetDef">
                       <use xlink:href="#rim2" fill="#404040">
                               <set attributeName="fill" to="#808080" begin="reset.mouseover" end="reset.mouseout"/>
                       </use>
               </g>
        </defs>

<script type="text/javascript">
var viewWidth = 672;
var viewHeight = 281;
var sectionId = 'dynsection-27';
</script>
<script xlink:href="../../svgpan.js"/>
<svg id="graph" class="graph">
<g id="viewport">
<title>Slices::track</title>
<polygon fill="white" stroke="white" points="-4,5 -4,-277 669,-277 669,5 -4,5"/>
<!-- Node1 -->
<g id="node1" class="node"><title>Node1</title>
<polygon fill="#bfbfbf" stroke="black" points="0.5,-107.5 0.5,-128.5 71.5,-128.5 71.5,-107.5 0.5,-107.5"/>
<text text-anchor="middle" x="36" y="-115.5" font-family="Helvetica,sans-Serif" font-size="10.00">Slices::track</text>
</g>
<!-- Node2 -->
<g id="node3" class="node"><title>Node2</title>
<a xlink:href="../../dc/d45/classSlices.html#a31398a7ae3bf058bf358e38e61eb50c9" target="_top" xlink:title="Slices::gaussian_fit">
<polygon fill="white" stroke="black" points="114,-139.5 114,-160.5 216,-160.5 216,-139.5 114,-139.5"/>
<text text-anchor="middle" x="165" y="-147.5" font-family="Helvetica,sans-Serif" font-size="10.00">Slices::gaussian_fit</text>
</a>
</g>
<!-- Node1&#45;&gt;Node2 -->
<g id="edge2" class="edge"><title>Node1&#45;&gt;Node2</title>
<path fill="none" stroke="midnightblue" d="M71.5913,-126.829C84.3136,-129.985 98.9279,-133.61 112.761,-137.041"/>
<polygon fill="midnightblue" stroke="midnightblue" points="112.109,-140.486 122.657,-139.496 113.794,-133.692 112.109,-140.486"/>
</g>
<!-- Node9 -->
<g id="node18" class="node"><title>Node9</title>
<a xlink:href="../../dc/d45/classSlices.html#ae9463517699373a87a1dae18becf9319" target="_top" xlink:title="Slices::slice_constant\l_space_histogram">
<polygon fill="white" stroke="black" points="108.5,-70 108.5,-104 221.5,-104 221.5,-70 108.5,-70"/>
<text text-anchor="start" x="116.5" y="-91" font-family="Helvetica,sans-Serif" font-size="10.00">Slices::slice_constant</text>
<text text-anchor="middle" x="165" y="-78" font-family="Helvetica,sans-Serif" font-size="10.00">_space_histogram</text>
</a>
</g>
<!-- Node1&#45;&gt;Node9 -->
<g id="edge18" class="edge"><title>Node1&#45;&gt;Node9</title>
<path fill="none" stroke="midnightblue" d="M71.5913,-109.447C79.9159,-107.447 89.0506,-105.251 98.2464,-103.042"/>
<polygon fill="midnightblue" stroke="midnightblue" points="99.308,-106.386 108.213,-100.646 97.6724,-99.5799 99.308,-106.386"/>
</g>
<!-- Node3 -->
<g id="node5" class="node"><title>Node3</title>
<a xlink:href="../../de/d4a/namespacepython.html#a38f56692b4793b00b074fc192783947e" target="_top" xlink:title="python::convert_double\l_array">
<polygon fill="white" stroke="black" points="269,-239 269,-273 387,-273 387,-239 269,-239"/>
<text text-anchor="start" x="277" y="-260" font-family="Helvetica,sans-Serif" font-size="10.00">python::convert_double</text>
<text text-anchor="middle" x="328" y="-247" font-family="Helvetica,sans-Serif" font-size="10.00">_array</text>
</a>
</g>
<!-- Node2&#45;&gt;Node3 -->
<g id="edge4" class="edge"><title>Node2&#45;&gt;Node3</title>
<path fill="none" stroke="midnightblue" d="M174.922,-160.699C190.971,-177.471 224.249,-210.087 258,-230 260.791,-231.647 263.705,-233.22 266.691,-234.718"/>
<polygon fill="midnightblue" stroke="midnightblue" points="265.272,-237.918 275.813,-238.986 268.239,-231.578 265.272,-237.918"/>
</g>
<!-- Node4 -->
<g id="node7" class="node"><title>Node4</title>
<a xlink:href="../../de/d4a/namespacepython.html#a713f8b295244715fb64ea92c5b172d33" target="_top" xlink:title="python::import">
<polygon fill="white" stroke="black" points="288.5,-199.5 288.5,-220.5 367.5,-220.5 367.5,-199.5 288.5,-199.5"/>
<text text-anchor="middle" x="328" y="-207.5" font-family="Helvetica,sans-Serif" font-size="10.00">python::import</text>
</a>
</g>
<!-- Node2&#45;&gt;Node4 -->
<g id="edge6" class="edge"><title>Node2&#45;&gt;Node4</title>
<path fill="none" stroke="midnightblue" d="M187.23,-160.516C205.873,-169.103 233.331,-181.211 258,-190 264.559,-192.337 271.538,-194.594 278.451,-196.698"/>
<polygon fill="midnightblue" stroke="midnightblue" points="277.894,-200.183 288.476,-199.662 279.878,-193.47 277.894,-200.183"/>
</g>
<!-- Node5 -->
<g id="node9" class="node"><title>Node5</title>
<a xlink:href="../../df/d6d/namespacemymath.html#a2a11685fa6ce2396ae977fa1502a2cc4" target="_top" xlink:title="mymath::max">
<polygon fill="white" stroke="black" points="289.5,-159.5 289.5,-180.5 366.5,-180.5 366.5,-159.5 289.5,-159.5"/>
<text text-anchor="middle" x="328" y="-167.5" font-family="Helvetica,sans-Serif" font-size="10.00">mymath::max</text>
</a>
</g>
<!-- Node2&#45;&gt;Node5 -->
<g id="edge8" class="edge"><title>Node2&#45;&gt;Node5</title>
<path fill="none" stroke="midnightblue" d="M216.127,-156.273C236.321,-158.751 259.419,-161.585 279.363,-164.032"/>
<polygon fill="midnightblue" stroke="midnightblue" points="279.121,-167.529 289.473,-165.273 279.974,-160.581 279.121,-167.529"/>
</g>
<!-- Node6 -->
<g id="node11" class="node"><title>Node6</title>
<a xlink:href="../../df/d6d/namespacemymath.html#ac815b54cedc0318b700fb483ee23ec2e" target="_top" xlink:title="mymath::mean">
<polygon fill="white" stroke="black" points="451,-120.5 451,-141.5 533,-141.5 533,-120.5 451,-120.5"/>
<text text-anchor="middle" x="492" y="-128.5" font-family="Helvetica,sans-Serif" font-size="10.00">mymath::mean</text>
</a>
</g>
<!-- Node2&#45;&gt;Node6 -->
<g id="edge10" class="edge"><title>Node2&#45;&gt;Node6</title>
<path fill="none" stroke="midnightblue" d="M216.094,-147.031C277.223,-143.479 378.983,-137.567 440.355,-134.001"/>
<polygon fill="midnightblue" stroke="midnightblue" points="440.805,-137.481 450.585,-133.406 440.399,-130.492 440.805,-137.481"/>
</g>
<!-- Node8 -->
<g id="node15" class="node"><title>Node8</title>
<a xlink:href="../../df/d6d/namespacemymath.html#aa50ebf887bdf0acc40e9d54519351de6" target="_top" xlink:title="mymath::standard_deviation">
<polygon fill="white" stroke="black" points="258,-81.5 258,-102.5 398,-102.5 398,-81.5 258,-81.5"/>
<text text-anchor="middle" x="328" y="-89.5" font-family="Helvetica,sans-Serif" font-size="10.00">mymath::standard_deviation</text>
</a>
</g>
<!-- Node2&#45;&gt;Node8 -->
<g id="edge14" class="edge"><title>Node2&#45;&gt;Node8</title>
<path fill="none" stroke="midnightblue" d="M194.518,-139.497C220.976,-130.082 259.979,-116.204 289,-105.877"/>
<polygon fill="midnightblue" stroke="midnightblue" points="290.179,-109.173 298.427,-102.523 287.832,-102.578 290.179,-109.173"/>
</g>
<!-- Node7 -->
<g id="node13" class="node"><title>Node7</title>
<a xlink:href="../../df/d6d/namespacemymath.html#a80532a0f537928e78a30ae10afeecb6c" target="_top" xlink:title="mymath::sum">
<polygon fill="white" stroke="black" points="586.5,-120.5 586.5,-141.5 663.5,-141.5 663.5,-120.5 586.5,-120.5"/>
<text text-anchor="middle" x="625" y="-128.5" font-family="Helvetica,sans-Serif" font-size="10.00">mymath::sum</text>
</a>
</g>
<!-- Node6&#45;&gt;Node7 -->
<g id="edge12" class="edge"><title>Node6&#45;&gt;Node7</title>
<path fill="none" stroke="midnightblue" d="M533.353,-131C546.975,-131 562.248,-131 576.362,-131"/>
<polygon fill="midnightblue" stroke="midnightblue" points="576.394,-134.5 586.394,-131 576.394,-127.5 576.394,-134.5"/>
</g>
<!-- Node8&#45;&gt;Node6 -->
<g id="edge16" class="edge"><title>Node8&#45;&gt;Node6</title>
<path fill="none" stroke="midnightblue" d="M372.381,-102.554C393.605,-107.601 419.121,-113.669 441.126,-118.902"/>
<polygon fill="midnightblue" stroke="midnightblue" points="440.423,-122.332 450.961,-121.241 442.042,-115.522 440.423,-122.332"/>
</g>
<!-- Node10 -->
<g id="node20" class="node"><title>Node10</title>
<a xlink:href="../../dc/d45/classSlices.html#a663512ec224f285fa8e5b3e3bee65761" target="_top" xlink:title="Slices::histogram">
<polygon fill="white" stroke="black" points="282,-40.5 282,-61.5 374,-61.5 374,-40.5 282,-40.5"/>
<text text-anchor="middle" x="328" y="-48.5" font-family="Helvetica,sans-Serif" font-size="10.00">Slices::histogram</text>
</a>
</g>
<!-- Node9&#45;&gt;Node10 -->
<g id="edge20" class="edge"><title>Node9&#45;&gt;Node10</title>
<path fill="none" stroke="midnightblue" d="M221.552,-74.51C237.847,-70.911 255.615,-66.9869 271.884,-63.3938"/>
<polygon fill="midnightblue" stroke="midnightblue" points="272.783,-66.7795 281.793,-61.2052 271.274,-59.9443 272.783,-66.7795"/>
</g>
<!-- Node11 -->
<g id="node22" class="node"><title>Node11</title>
<a xlink:href="../../df/d6d/namespacemymath.html#a5bcc40b5ebadd9d98f351775df65ec9f" target="_top" xlink:title="mymath::min">
<polygon fill="white" stroke="black" points="455,-80.5 455,-101.5 529,-101.5 529,-80.5 455,-80.5"/>
<text text-anchor="middle" x="492" y="-88.5" font-family="Helvetica,sans-Serif" font-size="10.00">mymath::min</text>
</a>
</g>
<!-- Node10&#45;&gt;Node11 -->
<g id="edge22" class="edge"><title>Node10&#45;&gt;Node11</title>
<path fill="none" stroke="midnightblue" d="M371.089,-61.5095C393.741,-67.0343 421.549,-73.8168 444.784,-79.4838"/>
<polygon fill="midnightblue" stroke="midnightblue" points="444.222,-82.9494 454.767,-81.9187 445.881,-76.1487 444.222,-82.9494"/>
</g>
<!-- Node12 -->
<g id="node24" class="node"><title>Node12</title>
<a xlink:href="../../d1/db0/openmp_8h.html#ad5abda85be2c3d59dc7eaa0e1d320670" target="_top" xlink:title="omp_get_num_threads">
<polygon fill="white" stroke="black" points="434,-40.5 434,-61.5 550,-61.5 550,-40.5 434,-40.5"/>
<text text-anchor="middle" x="492" y="-48.5" font-family="Helvetica,sans-Serif" font-size="10.00">omp_get_num_threads</text>
</a>
</g>
<!-- Node10&#45;&gt;Node12 -->
<g id="edge24" class="edge"><title>Node10&#45;&gt;Node12</title>
<path fill="none" stroke="midnightblue" d="M374.12,-51C389.497,-51 406.972,-51 423.668,-51"/>
<polygon fill="midnightblue" stroke="midnightblue" points="423.938,-54.5001 433.938,-51 423.938,-47.5001 423.938,-54.5001"/>
</g>
<!-- Node13 -->
<g id="node26" class="node"><title>Node13</title>
<a xlink:href="../../d1/db0/openmp_8h.html#afa582dd42157e33aa4ac4b4e60872b9f" target="_top" xlink:title="omp_get_thread_num">
<polygon fill="white" stroke="black" points="437,-0.5 437,-21.5 547,-21.5 547,-0.5 437,-0.5"/>
<text text-anchor="middle" x="492" y="-8.5" font-family="Helvetica,sans-Serif" font-size="10.00">omp_get_thread_num</text>
</a>
</g>
<!-- Node10&#45;&gt;Node13 -->
<g id="edge26" class="edge"><title>Node10&#45;&gt;Node13</title>
<path fill="none" stroke="midnightblue" d="M371.089,-40.4905C391.911,-35.412 417.09,-29.2708 439.068,-23.9102"/>
<polygon fill="midnightblue" stroke="midnightblue" points="440.028,-27.2787 448.914,-21.5087 438.37,-20.478 440.028,-27.2787"/>
</g>
</g>
</svg>
        <g id="navigator" transform="translate(0 0)" fill="#404254">
                <rect fill="#f2f5e9" fill-opacity="0.5" stroke="#606060" stroke-width=".5" x="0" y="0" width="60" height="60"/>
                <use id="zoomplus" xlink:href="#zoomPlus" x="17" y="9" onmousedown="handleZoom(evt,'in')"/>
                <use id="zoomminus" xlink:href="#zoomMin" x="42" y="9" onmousedown="handleZoom(evt,'out')"/>
                <use id="reset" xlink:href="#resetDef" x="30" y="36" onmousedown="handleReset()"/>
                <g id="arrowUp" xlink:href="#dirArrow" transform="translate(30 24)" onmousedown="handlePan(0,-1)">
                  <use xlink:href="#rim" fill="#404040">
                        <set attributeName="fill" to="#808080" begin="arrowUp.mouseover" end="arrowUp.mouseout"/>
                  </use>
                  <path fill="none" stroke="white" stroke-width="1.5" d="M0,-3.0v7 M-2.5,-0.5L0,-3.0L2.5,-0.5"/>
                </g>
                <g id="arrowRight" xlink:href="#dirArrow" transform="rotate(90) translate(36 -43)" onmousedown="handlePan(1,0)">
                  <use xlink:href="#rim" fill="#404040">
                        <set attributeName="fill" to="#808080" begin="arrowRight.mouseover" end="arrowRight.mouseout"/>
                  </use>
                  <path fill="none" stroke="white" stroke-width="1.5" d="M0,-3.0v7 M-2.5,-0.5L0,-3.0L2.5,-0.5"/>
                </g>
                <g id="arrowDown" xlink:href="#dirArrow" transform="rotate(180) translate(-30 -48)" onmousedown="handlePan(0,1)">
                  <use xlink:href="#rim" fill="#404040">
                        <set attributeName="fill" to="#808080" begin="arrowDown.mouseover" end="arrowDown.mouseout"/>
                  </use>
                  <path fill="none" stroke="white" stroke-width="1.5" d="M0,-3.0v7 M-2.5,-0.5L0,-3.0L2.5,-0.5"/>
                </g>
                <g id="arrowLeft" xlink:href="#dirArrow" transform="rotate(270) translate(-36 17)" onmousedown="handlePan(-1,0)">
                  <use xlink:href="#rim" fill="#404040">
                        <set attributeName="fill" to="#808080" begin="arrowLeft.mouseover" end="arrowLeft.mouseout"/>
                  </use>
                  <path fill="none" stroke="white" stroke-width="1.5" d="M0,-3.0v7 M-2.5,-0.5L0,-3.0L2.5,-0.5"/>
                </g>
        </g>
        <svg viewBox="0 0 15 15" width="100%" height="30px" preserveAspectRatio="xMaxYMin meet">
         <g id="arrow_out" transform="scale(0.3 0.3)">
          <a xlink:href="classSlices_adee634f207f19e4484a7a509e07776b2_cgraph_org.svg" target="_base">
           <rect id="button" ry="5" rx="5" y="6" x="6" height="38" width="38"
                fill="#f2f5e9" fill-opacity="0.5" stroke="#606060" stroke-width="1.0"/>
           <path id="arrow"
             d="M 11.500037,31.436501 C 11.940474,20.09759 22.043105,11.32322 32.158766,21.979434 L 37.068811,17.246167 C 37.068811,17.246167 37.088388,32 37.088388,32 L 22.160133,31.978069 C 22.160133,31.978069 26.997745,27.140456 26.997745,27.140456 C 18.528582,18.264221 13.291696,25.230495 11.500037,31.436501 z"
             style="fill:#404040;"/>
          </a>
         </g>
        </svg>
</svg>
