<?xml version="1.0" encoding="UTF-8" standalone="no"?>
<!DOCTYPE svg PUBLIC "-//W3C//DTD SVG 1.1//EN"
 "http://www.w3.org/Graphics/SVG/1.1/DTD/svg11.dtd">
<!-- Generated by graphviz version 2.26.3 (20100126.1600)
 -->
<!-- Title: Slices::convert_coordinates Pages: 1 -->
<svg width="384pt" height="30pt"
 viewBox="0.00 0.00 384.00 30.00" xmlns="http://www.w3.org/2000/svg" xmlns:xlink="http://www.w3.org/1999/xlink">
<g id="graph1" class="graph" transform="scale(1 1) rotate(0) translate(4 26)">
<title>Slices::convert_coordinates</title>
<polygon fill="white" stroke="white" points="-4,5 -4,-26 381,-26 381,5 -4,5"/>
<!-- Node1 -->
<g id="node1" class="node"><title>Node1</title>
<polygon fill="#bfbfbf" stroke="black" points="0.5,-0.5 0.5,-21.5 137.5,-21.5 137.5,-0.5 0.5,-0.5"/>
<text text-anchor="middle" x="69" y="-8.5" font-family="Helvetica,sans-Serif" font-size="10.00">Slices::convert_coordinates</text>
</g>
<!-- Node2 -->
<g id="node3" class="node"><title>Node2</title>
<a xlink:href="../../dc/d45/classSlices.html#a842041861f0211874450e5d659aec229" target="_top" xlink:title="Slices::set_cuts">
<polygon fill="white" stroke="black" points="174.5,-0.5 174.5,-21.5 261.5,-21.5 261.5,-0.5 174.5,-0.5"/>
<text text-anchor="middle" x="218" y="-8.5" font-family="Helvetica,sans-Serif" font-size="10.00">Slices::set_cuts</text>
</a>
</g>
<!-- Node1&#45;&gt;Node2 -->
<g id="edge2" class="edge"><title>Node1&#45;&gt;Node2</title>
<path fill="none" stroke="midnightblue" d="M147.982,-11C156.966,-11 165.862,-11 174.147,-11"/>
<polygon fill="midnightblue" stroke="midnightblue" points="147.83,-7.5001 137.83,-11 147.83,-14.5001 147.83,-7.5001"/>
</g>
<!-- Node3 -->
<g id="node5" class="node"><title>Node3</title>
<a xlink:href="../../dc/d45/classSlices.html#a7a38e2aee99dad7db53da5cc7e005619" target="_top" xlink:title="Slices::Slices">
<polygon fill="white" stroke="black" points="298.5,-0.5 298.5,-21.5 375.5,-21.5 375.5,-0.5 298.5,-0.5"/>
<text text-anchor="middle" x="337" y="-8.5" font-family="Helvetica,sans-Serif" font-size="10.00">Slices::Slices</text>
</a>
</g>
<!-- Node2&#45;&gt;Node3 -->
<g id="edge4" class="edge"><title>Node2&#45;&gt;Node3</title>
<path fill="none" stroke="midnightblue" d="M271.705,-11C280.731,-11 289.936,-11 298.48,-11"/>
<polygon fill="midnightblue" stroke="midnightblue" points="271.636,-7.5001 261.635,-11 271.635,-14.5001 271.636,-7.5001"/>
</g>
</g>
</svg>
