<?xml version="1.0" encoding="UTF-8" standalone="no"?>
<!DOCTYPE svg PUBLIC "-//W3C//DTD SVG 1.1//EN"
 "http://www.w3.org/Graphics/SVG/1.1/DTD/svg11.dtd">
<!-- Generated by graphviz version 2.26.3 (20100126.1600)
 -->
<!-- Title: Slices.cpp Pages: 1 -->
<!--zoomable 522 -->
<svg id="main" version="1.1" xmlns="http://www.w3.org/2000/svg" xmlns:xlink="http://www.w3.org/1999/xlink" xml:space="preserve" onload="init(evt)">
        <defs>
                <circle id="rim" cx="0" cy="0" r="7"/>
                <circle id="rim2" cx="0" cy="0" r="3.5"/>
                <g id="zoomPlus">
                        <use xlink:href="#rim" fill="#404040">
                                <set attributeName="fill" to="#808080" begin="zoomplus.mouseover" end="zoomplus.mouseout"/>
                        </use>
                        <path d="M-4,0h8M0,-4v8" fill="none" stroke="white" stroke-width="1.5" pointer-events="none"/>
                </g>
                <g id="zoomMin">
                        <use xlink:href="#rim" fill="#404040">
                                <set attributeName="fill" to="#808080" begin="zoomminus.mouseover" end="zoomminus.mouseout"/>
                        </use>
                        <path d="M-4,0h8" fill="none" stroke="white" stroke-width="1.5" pointer-events="none"/>
                </g>
                <g id="dirArrow">
                        <path fill="none" stroke="white" stroke-width="1.5" d="M0,-3.0v7 M-2.5,-0.5L0,-3.0L2.5,-0.5"/>
                </g>
               <g id="resetDef">
                       <use xlink:href="#rim2" fill="#404040">
                               <set attributeName="fill" to="#808080" begin="reset.mouseover" end="reset.mouseout"/>
                       </use>
               </g>
        </defs>

<script type="text/javascript">
var viewWidth = 1770;
var viewHeight = 522;
var sectionId = 'dynsection-0';
</script>
<script xlink:href="../../svgpan.js"/>
<svg id="graph" class="graph">
<g id="viewport">
<title>Slices.cpp</title>
<polygon fill="white" stroke="white" points="-4,5 -4,-518 1767.02,-518 1767.02,5 -4,5"/>
<!-- Node1 -->
<g id="node1" class="node"><title>Node1</title>
<polygon fill="#bfbfbf" stroke="black" points="930.016,-492.5 930.016,-513.5 992.016,-513.5 992.016,-492.5 930.016,-492.5"/>
<text text-anchor="middle" x="961.016" y="-500.5" font-family="Helvetica,sans-Serif" font-size="10.00">Slices.cpp</text>
</g>
<!-- Node2 -->
<g id="node3" class="node"><title>Node2</title>
<a xlink:href="../../dc/df2/Slices_8h.html" target="_top" xlink:title="blond/beams/Slices.h">
<polygon fill="white" stroke="black" points="651.016,-434.5 651.016,-455.5 761.016,-455.5 761.016,-434.5 651.016,-434.5"/>
<text text-anchor="middle" x="706.016" y="-442.5" font-family="Helvetica,sans-Serif" font-size="10.00">blond/beams/Slices.h</text>
</a>
</g>
<!-- Node1&#45;&gt;Node2 -->
<g id="edge2" class="edge"><title>Node1&#45;&gt;Node2</title>
<path fill="none" stroke="midnightblue" d="M930.003,-495.946C888.442,-486.493 813.94,-469.547 762.334,-457.81"/>
<polygon fill="midnightblue" stroke="midnightblue" points="762.862,-454.34 752.334,-455.535 761.309,-461.166 762.862,-454.34"/>
</g>
<!-- Node21 -->
<g id="node43" class="node"><title>Node21</title>
<a xlink:href="../../d5/d87/globals_8h.html" target="_top" xlink:title="blond/globals.h">
<polygon fill="white" stroke="black" points="474.016,-246.5 474.016,-267.5 556.016,-267.5 556.016,-246.5 474.016,-246.5"/>
<text text-anchor="middle" x="515.016" y="-254.5" font-family="Helvetica,sans-Serif" font-size="10.00">blond/globals.h</text>
</a>
</g>
<!-- Node1&#45;&gt;Node21 -->
<g id="edge108" class="edge"><title>Node1&#45;&gt;Node21</title>
<path fill="none" stroke="midnightblue" d="M929.772,-502.2C871.596,-499.889 743.375,-490.906 642.016,-456 592.708,-439.019 572.35,-438.916 540.016,-398 512.269,-362.89 511.182,-307.443 512.982,-277.617"/>
<polygon fill="midnightblue" stroke="midnightblue" points="516.48,-277.777 513.763,-267.537 509.501,-277.236 516.48,-277.777"/>
</g>
<!-- Node23 -->
<g id="node58" class="node"><title>Node23</title>
<a xlink:href="../../d2/de2/math__functions_8h.html" target="_top" xlink:title="blond/math_functions.h">
<polygon fill="white" stroke="black" points="1178.02,-304.5 1178.02,-325.5 1296.02,-325.5 1296.02,-304.5 1178.02,-304.5"/>
<text text-anchor="middle" x="1237.02" y="-312.5" font-family="Helvetica,sans-Serif" font-size="10.00">blond/math_functions.h</text>
</a>
</g>
<!-- Node1&#45;&gt;Node23 -->
<g id="edge110" class="edge"><title>Node1&#45;&gt;Node23</title>
<path fill="none" stroke="midnightblue" d="M976.646,-492.354C1022.66,-461.009 1157.88,-368.903 1213.11,-331.286"/>
<polygon fill="midnightblue" stroke="midnightblue" points="1215.26,-334.052 1221.56,-325.53 1211.32,-328.267 1215.26,-334.052"/>
</g>
<!-- Node35 -->
<g id="node91" class="node"><title>Node35</title>
<a xlink:href="../../d7/d76/fft_8h.html" target="_top" xlink:title="blond/fft.h">
<polygon fill="white" stroke="black" points="931.016,-304.5 931.016,-325.5 991.016,-325.5 991.016,-304.5 931.016,-304.5"/>
<text text-anchor="middle" x="961.016" y="-312.5" font-family="Helvetica,sans-Serif" font-size="10.00">blond/fft.h</text>
</a>
</g>
<!-- Node1&#45;&gt;Node35 -->
<g id="edge112" class="edge"><title>Node1&#45;&gt;Node35</title>
<path fill="none" stroke="midnightblue" d="M961.016,-492.354C961.016,-462.172 961.016,-375.656 961.016,-335.693"/>
<polygon fill="midnightblue" stroke="midnightblue" points="964.516,-335.53 961.016,-325.53 957.516,-335.53 964.516,-335.53"/>
</g>
<!-- Node38 -->
<g id="node103" class="node"><title>Node38</title>
<a xlink:href="../../d1/da8/python_8h.html" target="_top" xlink:title="blond/python.h">
<polygon fill="white" stroke="black" points="1342.02,-434.5 1342.02,-455.5 1422.02,-455.5 1422.02,-434.5 1342.02,-434.5"/>
<text text-anchor="middle" x="1382.02" y="-442.5" font-family="Helvetica,sans-Serif" font-size="10.00">blond/python.h</text>
</a>
</g>
<!-- Node1&#45;&gt;Node38 -->
<g id="edge130" class="edge"><title>Node1&#45;&gt;Node38</title>
<path fill="none" stroke="midnightblue" d="M992.315,-498.688C1064.63,-488.726 1243.82,-464.039 1331.74,-451.926"/>
<polygon fill="midnightblue" stroke="midnightblue" points="1332.31,-455.381 1341.74,-450.549 1331.36,-448.446 1332.31,-455.381"/>
</g>
<!-- Node3 -->
<g id="node5" class="node"><title>Node3</title>
<a xlink:href="../../d2/d2c/configuration_8h.html" target="_top" xlink:title="blond/configuration.h">
<polygon fill="white" stroke="black" points="934.516,-58.5 934.516,-79.5 1041.52,-79.5 1041.52,-58.5 934.516,-58.5"/>
<text text-anchor="middle" x="988.016" y="-66.5" font-family="Helvetica,sans-Serif" font-size="10.00">blond/configuration.h</text>
</a>
</g>
<!-- Node2&#45;&gt;Node3 -->
<g id="edge4" class="edge"><title>Node2&#45;&gt;Node3</title>
<path fill="none" stroke="midnightblue" d="M710.108,-434.244C724.798,-396.375 777.603,-266.524 845.016,-174 866.483,-144.536 873.89,-137.924 903.016,-116 919.346,-103.708 939.268,-92.5192 955.719,-84.1449"/>
<polygon fill="midnightblue" stroke="midnightblue" points="957.557,-87.14 964.951,-79.5523 954.439,-80.8727 957.557,-87.14"/>
</g>
<!-- Node6 -->
<g id="node11" class="node"><title>Node6</title>
<a xlink:href="../../de/df0/utilities_8h.html" target="_top" xlink:title="blond/utilities.h">
<polygon fill="white" stroke="black" points="474.016,-116.5 474.016,-137.5 556.016,-137.5 556.016,-116.5 474.016,-116.5"/>
<text text-anchor="middle" x="515.016" y="-124.5" font-family="Helvetica,sans-Serif" font-size="10.00">blond/utilities.h</text>
</a>
</g>
<!-- Node2&#45;&gt;Node6 -->
<g id="edge10" class="edge"><title>Node2&#45;&gt;Node6</title>
<path fill="none" stroke="midnightblue" d="M650.857,-434.61C558.605,-415.643 383.016,-372.048 383.016,-315 383.016,-315 383.016,-315 383.016,-257 383.016,-201.763 442.418,-162.134 481.524,-142.029"/>
<polygon fill="midnightblue" stroke="midnightblue" points="483.098,-145.155 490.497,-137.572 479.984,-138.886 483.098,-145.155"/>
</g>
<!-- Node19 -->
<g id="node39" class="node"><title>Node19</title>
<a xlink:href="../../d6/db7/RfParameters_8h.html" target="_top" xlink:title="blond/input_parameters\l/RfParameters.h">
<polygon fill="white" stroke="black" points="579.016,-363 579.016,-397 697.016,-397 697.016,-363 579.016,-363"/>
<text text-anchor="start" x="587.016" y="-384" font-family="Helvetica,sans-Serif" font-size="10.00">blond/input_parameters</text>
<text text-anchor="middle" x="638.016" y="-371" font-family="Helvetica,sans-Serif" font-size="10.00">/RfParameters.h</text>
</a>
</g>
<!-- Node2&#45;&gt;Node19 -->
<g id="edge40" class="edge"><title>Node2&#45;&gt;Node19</title>
<path fill="none" stroke="midnightblue" d="M694.787,-434.267C686.205,-426.063 674.041,-414.436 663.173,-404.047"/>
<polygon fill="midnightblue" stroke="midnightblue" points="665.563,-401.49 655.916,-397.11 660.726,-406.55 665.563,-401.49"/>
</g>
<!-- Node34 -->
<g id="node87" class="node"><title>Node34</title>
<polygon fill="white" stroke="#bfbfbf" points="864.516,-369.5 864.516,-390.5 899.516,-390.5 899.516,-369.5 864.516,-369.5"/>
<text text-anchor="middle" x="882.016" y="-377.5" font-family="Helvetica,sans-Serif" font-size="10.00">map</text>
</g>
<!-- Node2&#45;&gt;Node34 -->
<g id="edge106" class="edge"><title>Node2&#45;&gt;Node34</title>
<path fill="none" stroke="midnightblue" d="M734.685,-434.412C767.733,-422.207 821.677,-402.284 854.312,-390.232"/>
<polygon fill="midnightblue" stroke="midnightblue" points="855.937,-393.363 864.105,-386.615 853.512,-386.796 855.937,-393.363"/>
</g>
<!-- Node4 -->
<g id="node7" class="node"><title>Node4</title>
<polygon fill="white" stroke="#bfbfbf" points="961.516,-0.5 961.516,-21.5 1014.52,-21.5 1014.52,-0.5 961.516,-0.5"/>
<text text-anchor="middle" x="988.016" y="-8.5" font-family="Helvetica,sans-Serif" font-size="10.00">complex</text>
</g>
<!-- Node3&#45;&gt;Node4 -->
<g id="edge6" class="edge"><title>Node3&#45;&gt;Node4</title>
<path fill="none" stroke="midnightblue" d="M988.016,-58.3619C988.016,-50.9219 988.016,-40.7427 988.016,-31.7276"/>
<polygon fill="midnightblue" stroke="midnightblue" points="991.516,-31.5706 988.016,-21.5707 984.516,-31.5707 991.516,-31.5706"/>
</g>
<!-- Node5 -->
<g id="node9" class="node"><title>Node5</title>
<polygon fill="white" stroke="#bfbfbf" points="885.016,-0.5 885.016,-21.5 929.016,-21.5 929.016,-0.5 885.016,-0.5"/>
<text text-anchor="middle" x="907.016" y="-8.5" font-family="Helvetica,sans-Serif" font-size="10.00">vector</text>
</g>
<!-- Node3&#45;&gt;Node5 -->
<g id="edge8" class="edge"><title>Node3&#45;&gt;Node5</title>
<path fill="none" stroke="midnightblue" d="M973.159,-58.3619C961.17,-49.7773 944.089,-37.5459 930.288,-27.6636"/>
<polygon fill="midnightblue" stroke="midnightblue" points="931.947,-24.5469 921.778,-21.5707 927.871,-30.2383 931.947,-24.5469"/>
</g>
<!-- Node6&#45;&gt;Node3 -->
<g id="edge34" class="edge"><title>Node6&#45;&gt;Node3</title>
<path fill="none" stroke="midnightblue" d="M556.216,-122.098C572.368,-120.184 591.06,-117.978 608.016,-116 747.101,-99.7761 782.331,-99.3486 921.016,-80 922.096,-79.8493 923.185,-79.6952 924.282,-79.538"/>
<polygon fill="midnightblue" stroke="midnightblue" points="924.915,-82.9825 934.294,-78.054 923.889,-76.0582 924.915,-82.9825"/>
</g>
<!-- Node6&#45;&gt;Node5 -->
<g id="edge30" class="edge"><title>Node6&#45;&gt;Node5</title>
<path fill="none" stroke="midnightblue" d="M556.312,-122.097C652.751,-110.607 884.89,-82.7072 888.016,-80 901.696,-68.1529 905.96,-47.4516 907.094,-31.806"/>
<polygon fill="midnightblue" stroke="midnightblue" points="910.603,-31.6229 907.457,-21.5059 903.607,-31.3765 910.603,-31.6229"/>
</g>
<!-- Node7 -->
<g id="node13" class="node"><title>Node7</title>
<polygon fill="white" stroke="#bfbfbf" points="833.016,-58.5 833.016,-79.5 879.016,-79.5 879.016,-58.5 833.016,-58.5"/>
<text text-anchor="middle" x="856.016" y="-66.5" font-family="Helvetica,sans-Serif" font-size="10.00">chrono</text>
</g>
<!-- Node6&#45;&gt;Node7 -->
<g id="edge12" class="edge"><title>Node6&#45;&gt;Node7</title>
<path fill="none" stroke="midnightblue" d="M556.059,-121.692C624.2,-112.733 758.768,-94.3775 822.738,-79.9192"/>
<polygon fill="midnightblue" stroke="midnightblue" points="823.822,-83.2594 832.742,-77.5431 822.204,-76.4489 823.822,-83.2594"/>
</g>
<!-- Node8 -->
<g id="node15" class="node"><title>Node8</title>
<polygon fill="white" stroke="#bfbfbf" points="16.516,-58.5 16.516,-79.5 59.516,-79.5 59.516,-58.5 16.516,-58.5"/>
<text text-anchor="middle" x="38.016" y="-66.5" font-family="Helvetica,sans-Serif" font-size="10.00">cstdio</text>
</g>
<!-- Node6&#45;&gt;Node8 -->
<g id="edge14" class="edge"><title>Node6&#45;&gt;Node8</title>
<path fill="none" stroke="midnightblue" d="M473.78,-126.049C395.992,-123.531 222.386,-114.457 69.8002,-79.9936"/>
<polygon fill="midnightblue" stroke="midnightblue" points="70.3116,-76.5199 59.7812,-77.6867 68.7409,-83.3414 70.3116,-76.5199"/>
</g>
<!-- Node9 -->
<g id="node17" class="node"><title>Node9</title>
<polygon fill="white" stroke="#bfbfbf" points="76.516,-58.5 76.516,-79.5 121.516,-79.5 121.516,-58.5 76.516,-58.5"/>
<text text-anchor="middle" x="99.016" y="-66.5" font-family="Helvetica,sans-Serif" font-size="10.00">cstdlib</text>
</g>
<!-- Node6&#45;&gt;Node9 -->
<g id="edge16" class="edge"><title>Node6&#45;&gt;Node9</title>
<path fill="none" stroke="midnightblue" d="M473.753,-124.937C404.517,-120.835 260.624,-109.565 131.585,-79.9834"/>
<polygon fill="midnightblue" stroke="midnightblue" points="132.065,-76.5015 121.531,-77.6339 130.472,-83.3178 132.065,-76.5015"/>
</g>
<!-- Node10 -->
<g id="node19" class="node"><title>Node10</title>
<polygon fill="white" stroke="#bfbfbf" points="139.016,-58.5 139.016,-79.5 189.016,-79.5 189.016,-58.5 139.016,-58.5"/>
<text text-anchor="middle" x="164.016" y="-66.5" font-family="Helvetica,sans-Serif" font-size="10.00">fstream</text>
</g>
<!-- Node6&#45;&gt;Node10 -->
<g id="edge18" class="edge"><title>Node6&#45;&gt;Node10</title>
<path fill="none" stroke="midnightblue" d="M473.823,-123.096C414.858,-117.029 302.935,-103.733 199.152,-79.9722"/>
<polygon fill="midnightblue" stroke="midnightblue" points="199.669,-76.4991 189.136,-77.6401 198.082,-83.3167 199.669,-76.4991"/>
</g>
<!-- Node11 -->
<g id="node21" class="node"><title>Node11</title>
<polygon fill="white" stroke="#bfbfbf" points="207.016,-58.5 207.016,-79.5 261.016,-79.5 261.016,-58.5 207.016,-58.5"/>
<text text-anchor="middle" x="234.016" y="-66.5" font-family="Helvetica,sans-Serif" font-size="10.00">iostream</text>
</g>
<!-- Node6&#45;&gt;Node11 -->
<g id="edge20" class="edge"><title>Node6&#45;&gt;Node11</title>
<path fill="none" stroke="midnightblue" d="M473.976,-120.508C427.081,-112.786 347.892,-98.8205 270.918,-80.038"/>
<polygon fill="midnightblue" stroke="midnightblue" points="271.604,-76.6023 261.056,-77.6017 269.925,-83.398 271.604,-76.6023"/>
</g>
<!-- Node12 -->
<g id="node23" class="node"><title>Node12</title>
<polygon fill="white" stroke="#bfbfbf" points="278.516,-58.5 278.516,-79.5 325.516,-79.5 325.516,-58.5 278.516,-58.5"/>
<text text-anchor="middle" x="302.016" y="-66.5" font-family="Helvetica,sans-Serif" font-size="10.00">iterator</text>
</g>
<!-- Node6&#45;&gt;Node12 -->
<g id="edge22" class="edge"><title>Node6&#45;&gt;Node12</title>
<path fill="none" stroke="midnightblue" d="M473.79,-117.255C439.099,-108.84 388.002,-95.9487 335.526,-80.3231"/>
<polygon fill="midnightblue" stroke="midnightblue" points="336.3,-76.901 325.716,-77.3742 334.285,-83.6047 336.3,-76.901"/>
</g>
<!-- Node13 -->
<g id="node25" class="node"><title>Node13</title>
<polygon fill="white" stroke="#bfbfbf" points="343.016,-58.5 343.016,-79.5 395.016,-79.5 395.016,-58.5 343.016,-58.5"/>
<text text-anchor="middle" x="369.016" y="-66.5" font-family="Helvetica,sans-Serif" font-size="10.00">memory</text>
</g>
<!-- Node6&#45;&gt;Node13 -->
<g id="edge24" class="edge"><title>Node6&#45;&gt;Node13</title>
<path fill="none" stroke="midnightblue" d="M488.576,-116.497C465.114,-107.176 430.638,-93.4799 404.729,-83.1872"/>
<polygon fill="midnightblue" stroke="midnightblue" points="405.845,-79.8645 395.259,-79.4252 403.26,-86.37 405.845,-79.8645"/>
</g>
<!-- Node14 -->
<g id="node27" class="node"><title>Node14</title>
<polygon fill="white" stroke="#bfbfbf" points="413.016,-58.5 413.016,-79.5 465.016,-79.5 465.016,-58.5 413.016,-58.5"/>
<text text-anchor="middle" x="439.016" y="-66.5" font-family="Helvetica,sans-Serif" font-size="10.00">sstream</text>
</g>
<!-- Node6&#45;&gt;Node14 -->
<g id="edge26" class="edge"><title>Node6&#45;&gt;Node14</title>
<path fill="none" stroke="midnightblue" d="M501.076,-116.362C489.828,-107.777 473.8,-95.5459 460.851,-85.6636"/>
<polygon fill="midnightblue" stroke="midnightblue" points="462.94,-82.8551 452.867,-79.5707 458.693,-88.4198 462.94,-82.8551"/>
</g>
<!-- Node15 -->
<g id="node29" class="node"><title>Node15</title>
<polygon fill="white" stroke="#bfbfbf" points="482.516,-58.5 482.516,-79.5 523.516,-79.5 523.516,-58.5 482.516,-58.5"/>
<text text-anchor="middle" x="503.016" y="-66.5" font-family="Helvetica,sans-Serif" font-size="10.00">string</text>
</g>
<!-- Node6&#45;&gt;Node15 -->
<g id="edge28" class="edge"><title>Node6&#45;&gt;Node15</title>
<path fill="none" stroke="midnightblue" d="M512.815,-116.362C511.259,-108.84 509.123,-98.5187 507.243,-89.4308"/>
<polygon fill="midnightblue" stroke="midnightblue" points="510.657,-88.6541 505.203,-79.5707 503.802,-90.0724 510.657,-88.6541"/>
</g>
<!-- Node16 -->
<g id="node32" class="node"><title>Node16</title>
<polygon fill="white" stroke="#bfbfbf" points="541.016,-58.5 541.016,-79.5 601.016,-79.5 601.016,-58.5 541.016,-58.5"/>
<text text-anchor="middle" x="571.016" y="-66.5" font-family="Helvetica,sans-Serif" font-size="10.00">sys/stat.h</text>
</g>
<!-- Node6&#45;&gt;Node16 -->
<g id="edge32" class="edge"><title>Node6&#45;&gt;Node16</title>
<path fill="none" stroke="midnightblue" d="M525.287,-116.362C533.26,-108.104 544.491,-96.4725 553.827,-86.8029"/>
<polygon fill="midnightblue" stroke="midnightblue" points="556.382,-89.1958 560.81,-79.5707 551.346,-84.3336 556.382,-89.1958"/>
</g>
<!-- Node17 -->
<g id="node35" class="node"><title>Node17</title>
<polygon fill="white" stroke="#bfbfbf" points="618.516,-58.5 618.516,-79.5 693.516,-79.5 693.516,-58.5 618.516,-58.5"/>
<text text-anchor="middle" x="656.016" y="-66.5" font-family="Helvetica,sans-Serif" font-size="10.00">mm_malloc.h</text>
</g>
<!-- Node6&#45;&gt;Node17 -->
<g id="edge36" class="edge"><title>Node6&#45;&gt;Node17</title>
<path fill="none" stroke="midnightblue" d="M540.55,-116.497C562.969,-107.275 595.801,-93.7695 620.729,-83.5153"/>
<polygon fill="midnightblue" stroke="midnightblue" points="622.279,-86.6623 630.195,-79.6212 619.616,-80.1886 622.279,-86.6623"/>
</g>
<!-- Node18 -->
<g id="node37" class="node"><title>Node18</title>
<a xlink:href="../../da/d69/optionparser_8h.html" target="_top" xlink:title="This is the only file required to use The Lean Mean C++ Option Parser. Just #include it and you&#39;re se...">
<polygon fill="white" stroke="black" points="711.016,-58.5 711.016,-79.5 815.016,-79.5 815.016,-58.5 711.016,-58.5"/>
<text text-anchor="middle" x="763.016" y="-66.5" font-family="Helvetica,sans-Serif" font-size="10.00">blond/optionparser.h</text>
</a>
</g>
<!-- Node6&#45;&gt;Node18 -->
<g id="edge38" class="edge"><title>Node6&#45;&gt;Node18</title>
<path fill="none" stroke="midnightblue" d="M556.247,-117.357C597.822,-107.634 662.243,-92.5679 708.122,-81.8382"/>
<polygon fill="midnightblue" stroke="midnightblue" points="708.965,-85.2355 717.905,-79.5501 707.371,-78.4194 708.965,-85.2355"/>
</g>
<!-- Node20 -->
<g id="node41" class="node"><title>Node20</title>
<a xlink:href="../../d7/d74/Beams_8h.html" target="_top" xlink:title="blond/beams/Beams.h">
<polygon fill="white" stroke="black" points="581.016,-304.5 581.016,-325.5 695.016,-325.5 695.016,-304.5 581.016,-304.5"/>
<text text-anchor="middle" x="638.016" y="-312.5" font-family="Helvetica,sans-Serif" font-size="10.00">blond/beams/Beams.h</text>
</a>
</g>
<!-- Node19&#45;&gt;Node20 -->
<g id="edge42" class="edge"><title>Node19&#45;&gt;Node20</title>
<path fill="none" stroke="midnightblue" d="M631.993,-362.922C631.152,-354.67 631.041,-344.692 631.658,-335.982"/>
<polygon fill="midnightblue" stroke="midnightblue" points="635.157,-336.188 632.829,-325.852 628.204,-335.384 635.157,-336.188"/>
</g>
<!-- Node19&#45;&gt;Node21 -->
<g id="edge104" class="edge"><title>Node19&#45;&gt;Node21</title>
<path fill="none" stroke="midnightblue" d="M606.88,-362.787C592.69,-352.657 576.342,-339.264 563.016,-326 547.297,-310.355 531.387,-290.706 521.945,-276.381"/>
<polygon fill="midnightblue" stroke="midnightblue" points="524.931,-274.555 516.742,-267.833 518.951,-278.194 524.931,-274.555"/>
</g>
<!-- Node22 -->
<g id="node45" class="node"><title>Node22</title>
<a xlink:href="../../d5/d34/GeneralParameters_8h.html" target="_top" xlink:title="blond/input_parameters\l/GeneralParameters.h">
<polygon fill="white" stroke="black" points="456.016,-175 456.016,-209 574.016,-209 574.016,-175 456.016,-175"/>
<text text-anchor="start" x="464.016" y="-196" font-family="Helvetica,sans-Serif" font-size="10.00">blond/input_parameters</text>
<text text-anchor="middle" x="515.016" y="-183" font-family="Helvetica,sans-Serif" font-size="10.00">/GeneralParameters.h</text>
</a>
</g>
<!-- Node19&#45;&gt;Node22 -->
<g id="edge68" class="edge"><title>Node19&#45;&gt;Node22</title>
<path fill="none" stroke="midnightblue" d="M586.769,-362.943C545.32,-346.067 489.903,-315.752 465.016,-268 455.544,-249.825 468.522,-230.548 483.624,-215.956"/>
<polygon fill="midnightblue" stroke="midnightblue" points="486.038,-218.492 491.119,-209.195 481.349,-213.294 486.038,-218.492"/>
</g>
<!-- Node19&#45;&gt;Node23 -->
<g id="edge70" class="edge"><title>Node19&#45;&gt;Node23</title>
<path fill="none" stroke="midnightblue" d="M697.09,-373.59C808.509,-361.499 1049.14,-335.387 1167.88,-322.503"/>
<polygon fill="midnightblue" stroke="midnightblue" points="1168.38,-325.969 1177.94,-321.41 1167.62,-319.01 1168.38,-325.969"/>
</g>
<!-- Node33 -->
<g id="node83" class="node"><title>Node33</title>
<a xlink:href="../../d2/d6f/constants_8h.html" target="_top" xlink:title="blond/constants.h">
<polygon fill="white" stroke="black" points="726.016,-116.5 726.016,-137.5 820.016,-137.5 820.016,-116.5 726.016,-116.5"/>
<text text-anchor="middle" x="773.016" y="-124.5" font-family="Helvetica,sans-Serif" font-size="10.00">blond/constants.h</text>
</a>
</g>
<!-- Node19&#45;&gt;Node33 -->
<g id="edge100" class="edge"><title>Node19&#45;&gt;Node33</title>
<path fill="none" stroke="midnightblue" d="M665.496,-362.806C678.71,-353.343 693.847,-340.568 704.016,-326 744.02,-268.691 762.752,-186.029 769.676,-147.817"/>
<polygon fill="midnightblue" stroke="midnightblue" points="773.141,-148.317 771.391,-137.868 766.243,-147.128 773.141,-148.317"/>
</g>
<!-- Node20&#45;&gt;Node3 -->
<g id="edge60" class="edge"><title>Node20&#45;&gt;Node3</title>
<path fill="none" stroke="midnightblue" d="M638.753,-304.268C641.683,-270.535 655.567,-165.927 717.016,-116 725.052,-109.471 846.62,-90.2112 924.175,-78.4706"/>
<polygon fill="midnightblue" stroke="midnightblue" points="924.975,-81.8896 934.341,-76.9365 923.931,-74.968 924.975,-81.8896"/>
</g>
<!-- Node20&#45;&gt;Node6 -->
<g id="edge62" class="edge"><title>Node20&#45;&gt;Node6</title>
<path fill="none" stroke="midnightblue" d="M636.101,-304.383C631.147,-279.355 615.933,-215.637 583.016,-174 572.964,-161.286 558.547,-150.642 545.572,-142.717"/>
<polygon fill="midnightblue" stroke="midnightblue" points="547.296,-139.671 536.892,-137.672 543.779,-145.723 547.296,-139.671"/>
</g>
<!-- Node20&#45;&gt;Node19 -->
<g id="edge66" class="edge"><title>Node20&#45;&gt;Node19</title>
<path fill="none" stroke="midnightblue" d="M643.203,-325.852C644.476,-333.195 644.972,-343.242 644.689,-352.688"/>
<polygon fill="midnightblue" stroke="midnightblue" points="641.18,-352.72 644.039,-362.922 648.166,-353.164 641.18,-352.72"/>
</g>
<!-- Node20&#45;&gt;Node21 -->
<g id="edge44" class="edge"><title>Node20&#45;&gt;Node21</title>
<path fill="none" stroke="midnightblue" d="M610.402,-304.497C589.66,-295.479 561.624,-282.365 541.233,-272.201"/>
<polygon fill="midnightblue" stroke="midnightblue" points="542.682,-269.012 532.179,-267.621 539.523,-275.258 542.682,-269.012"/>
</g>
<!-- Node20&#45;&gt;Node22 -->
<g id="edge64" class="edge"><title>Node20&#45;&gt;Node22</title>
<path fill="none" stroke="midnightblue" d="M627.101,-304.085C607.539,-284.523 566.068,-243.052 539.425,-216.409"/>
<polygon fill="midnightblue" stroke="midnightblue" points="541.879,-213.914 532.333,-209.317 536.93,-218.863 541.879,-213.914"/>
</g>
<!-- Node21&#45;&gt;Node2 -->
<g id="edge58" class="edge"><title>Node21&#45;&gt;Node2</title>
<path fill="none" stroke="midnightblue" d="M516.168,-267.874C519.512,-294.031 531.568,-361.029 570.016,-398 589.331,-416.572 616.335,-427.832 641.195,-434.647"/>
<polygon fill="midnightblue" stroke="midnightblue" points="640.404,-438.058 650.959,-437.133 642.131,-431.274 640.404,-438.058"/>
</g>
<!-- Node21&#45;&gt;Node19 -->
<g id="edge54" class="edge"><title>Node21&#45;&gt;Node19</title>
<path fill="none" stroke="midnightblue" d="M529.09,-267.833C542.407,-281.906 561.854,-306.928 581.016,-326 591.636,-336.57 604.173,-347.222 614.897,-356.239"/>
<polygon fill="midnightblue" stroke="midnightblue" points="612.776,-359.029 622.682,-362.787 617.282,-353.672 612.776,-359.029"/>
</g>
<!-- Node21&#45;&gt;Node20 -->
<g id="edge56" class="edge"><title>Node21&#45;&gt;Node20</title>
<path fill="none" stroke="midnightblue" d="M542.901,-267.621C563.706,-276.675 591.74,-289.793 612.065,-299.932"/>
<polygon fill="midnightblue" stroke="midnightblue" points="610.579,-303.103 621.082,-304.497 613.741,-296.857 610.579,-303.103"/>
</g>
<!-- Node21&#45;&gt;Node22 -->
<g id="edge46" class="edge"><title>Node21&#45;&gt;Node22</title>
<path fill="none" stroke="midnightblue" d="M515.016,-246.267C515.016,-238.931 515.016,-228.857 515.016,-219.38"/>
<polygon fill="midnightblue" stroke="midnightblue" points="518.516,-219.11 515.016,-209.11 511.516,-219.11 518.516,-219.11"/>
</g>
<!-- Node22&#45;&gt;Node3 -->
<g id="edge48" class="edge"><title>Node22&#45;&gt;Node3</title>
<path fill="none" stroke="midnightblue" d="M546.121,-174.933C579.307,-157.469 633.892,-130.849 684.016,-116 706.566,-109.32 842.02,-89.5795 924.323,-77.9151"/>
<polygon fill="midnightblue" stroke="midnightblue" points="924.921,-81.3655 934.332,-76.4993 923.94,-74.4345 924.921,-81.3655"/>
</g>
<!-- Node22&#45;&gt;Node5 -->
<g id="edge52" class="edge"><title>Node22&#45;&gt;Node5</title>
<path fill="none" stroke="midnightblue" d="M455.826,-186.307C308.866,-171.062 -56.3426,-125.811 8.01598,-58 38.4201,-25.9648 716.227,-13.8564 874.28,-11.4633"/>
<polygon fill="midnightblue" stroke="midnightblue" points="874.799,-14.9561 884.745,-11.3077 874.694,-7.95687 874.799,-14.9561"/>
</g>
<!-- Node22&#45;&gt;Node6 -->
<g id="edge50" class="edge"><title>Node22&#45;&gt;Node6</title>
<path fill="none" stroke="midnightblue" d="M515.016,-174.922C515.016,-166.67 515.016,-156.692 515.016,-147.982"/>
<polygon fill="midnightblue" stroke="midnightblue" points="518.516,-147.852 515.016,-137.852 511.516,-147.852 518.516,-147.852"/>
</g>
<!-- Node23&#45;&gt;Node3 -->
<g id="edge74" class="edge"><title>Node23&#45;&gt;Node3</title>
<path fill="none" stroke="midnightblue" d="M1248.91,-304.044C1262.37,-290.264 1281.07,-265.987 1270.02,-246 1219.86,-155.305 1101.63,-104.828 1035.29,-82.722"/>
<polygon fill="midnightblue" stroke="midnightblue" points="1036.09,-79.3022 1025.5,-79.5403 1033.92,-85.9595 1036.09,-79.3022"/>
</g>
<!-- Node23&#45;&gt;Node6 -->
<g id="edge92" class="edge"><title>Node23&#45;&gt;Node6</title>
<path fill="none" stroke="midnightblue" d="M1244.52,-304.328C1253.93,-289.513 1267.21,-262.664 1253.02,-246 1208.17,-193.339 726.186,-145.858 566.256,-131.452"/>
<polygon fill="midnightblue" stroke="midnightblue" points="566.467,-127.957 556.195,-130.551 565.843,-134.929 566.467,-127.957"/>
</g>
<!-- Node24 -->
<g id="node60" class="node"><title>Node24</title>
<polygon fill="white" stroke="#bfbfbf" points="1018.02,-246.5 1018.02,-267.5 1074.02,-267.5 1074.02,-246.5 1018.02,-246.5"/>
<text text-anchor="middle" x="1046.02" y="-254.5" font-family="Helvetica,sans-Serif" font-size="10.00">algorithm</text>
</g>
<!-- Node23&#45;&gt;Node24 -->
<g id="edge72" class="edge"><title>Node23&#45;&gt;Node24</title>
<path fill="none" stroke="midnightblue" d="M1202.43,-304.497C1168.96,-294.335 1118.38,-278.974 1083.86,-268.491"/>
<polygon fill="midnightblue" stroke="midnightblue" points="1084.72,-265.096 1074.14,-265.539 1082.69,-271.794 1084.72,-265.096"/>
</g>
<!-- Node25 -->
<g id="node63" class="node"><title>Node25</title>
<a xlink:href="../../d8/dcd/exp_8h.html" target="_top" xlink:title="blond/exp.h">
<polygon fill="white" stroke="black" points="1375.52,-246.5 1375.52,-267.5 1442.52,-267.5 1442.52,-246.5 1375.52,-246.5"/>
<text text-anchor="middle" x="1409.02" y="-254.5" font-family="Helvetica,sans-Serif" font-size="10.00">blond/exp.h</text>
</a>
</g>
<!-- Node23&#45;&gt;Node25 -->
<g id="edge76" class="edge"><title>Node23&#45;&gt;Node25</title>
<path fill="none" stroke="midnightblue" d="M1268.16,-304.497C1296.2,-295.041 1337.6,-281.083 1368.26,-270.743"/>
<polygon fill="midnightblue" stroke="midnightblue" points="1369.45,-274.035 1377.81,-267.523 1367.22,-267.402 1369.45,-274.035"/>
</g>
<!-- Node27 -->
<g id="node67" class="node"><title>Node27</title>
<polygon fill="white" stroke="#bfbfbf" points="1365.02,-58.5 1365.02,-79.5 1409.02,-79.5 1409.02,-58.5 1365.02,-58.5"/>
<text text-anchor="middle" x="1387.02" y="-66.5" font-family="Helvetica,sans-Serif" font-size="10.00">cmath</text>
</g>
<!-- Node23&#45;&gt;Node27 -->
<g id="edge94" class="edge"><title>Node23&#45;&gt;Node27</title>
<path fill="none" stroke="midnightblue" d="M1270.21,-304.36C1288.52,-296.897 1310.27,-285.147 1324.02,-268 1367.92,-213.215 1343.67,-182.211 1367.02,-116 1370.2,-106.963 1374.26,-97.1803 1377.89,-88.8922"/>
<polygon fill="midnightblue" stroke="midnightblue" points="1381.13,-90.2317 1382.01,-79.6742 1374.74,-87.3731 1381.13,-90.2317"/>
</g>
<!-- Node29 -->
<g id="node71" class="node"><title>Node29</title>
<a xlink:href="../../d1/d3d/sin_8h.html" target="_top" xlink:title="blond/sin.h">
<polygon fill="white" stroke="black" points="1460.02,-246.5 1460.02,-267.5 1524.02,-267.5 1524.02,-246.5 1460.02,-246.5"/>
<text text-anchor="middle" x="1492.02" y="-254.5" font-family="Helvetica,sans-Serif" font-size="10.00">blond/sin.h</text>
</a>
</g>
<!-- Node23&#45;&gt;Node29 -->
<g id="edge84" class="edge"><title>Node23&#45;&gt;Node29</title>
<path fill="none" stroke="midnightblue" d="M1288.19,-304.451C1329.43,-295.792 1389.14,-282.907 1450.04,-268.168"/>
<polygon fill="midnightblue" stroke="midnightblue" points="1450.93,-271.553 1459.82,-265.787 1449.28,-264.751 1450.93,-271.553"/>
</g>
<!-- Node31 -->
<g id="node79" class="node"><title>Node31</title>
<polygon fill="white" stroke="#bfbfbf" points="1091.52,-246.5 1091.52,-267.5 1140.52,-267.5 1140.52,-246.5 1091.52,-246.5"/>
<text text-anchor="middle" x="1116.02" y="-254.5" font-family="Helvetica,sans-Serif" font-size="10.00">cassert</text>
</g>
<!-- Node23&#45;&gt;Node31 -->
<g id="edge96" class="edge"><title>Node23&#45;&gt;Node31</title>
<path fill="none" stroke="midnightblue" d="M1215.1,-304.497C1196.21,-295.438 1168.68,-282.246 1147.44,-272.063"/>
<polygon fill="midnightblue" stroke="midnightblue" points="1148.7,-268.788 1138.17,-267.621 1145.68,-275.1 1148.7,-268.788"/>
</g>
<!-- Node32 -->
<g id="node81" class="node"><title>Node32</title>
<a xlink:href="../../d1/db0/openmp_8h.html" target="_top" xlink:title="blond/openmp.h">
<polygon fill="white" stroke="black" points="1158.02,-246.5 1158.02,-267.5 1244.02,-267.5 1244.02,-246.5 1158.02,-246.5"/>
<text text-anchor="middle" x="1201.02" y="-254.5" font-family="Helvetica,sans-Serif" font-size="10.00">blond/openmp.h</text>
</a>
</g>
<!-- Node23&#45;&gt;Node32 -->
<g id="edge98" class="edge"><title>Node23&#45;&gt;Node32</title>
<path fill="none" stroke="midnightblue" d="M1230.41,-304.362C1225.54,-296.513 1218.78,-285.616 1212.97,-276.253"/>
<polygon fill="midnightblue" stroke="midnightblue" points="1215.82,-274.221 1207.58,-267.571 1209.88,-277.913 1215.82,-274.221"/>
</g>
<!-- Node26 -->
<g id="node65" class="node"><title>Node26</title>
<a xlink:href="../../df/de1/vdtcore__common_8h.html" target="_top" xlink:title="vdtcore_common.h">
<polygon fill="white" stroke="black" points="1376.02,-116.5 1376.02,-137.5 1476.02,-137.5 1476.02,-116.5 1376.02,-116.5"/>
<text text-anchor="middle" x="1426.02" y="-124.5" font-family="Helvetica,sans-Serif" font-size="10.00">vdtcore_common.h</text>
</a>
</g>
<!-- Node25&#45;&gt;Node26 -->
<g id="edge78" class="edge"><title>Node25&#45;&gt;Node26</title>
<path fill="none" stroke="midnightblue" d="M1413.69,-246.425C1417.57,-237.061 1422.8,-222.913 1425.02,-210 1428.6,-189.113 1428.4,-164.833 1427.58,-147.951"/>
<polygon fill="midnightblue" stroke="midnightblue" points="1431.05,-147.348 1426.95,-137.578 1424.06,-147.772 1431.05,-147.348"/>
</g>
<!-- Node28 -->
<g id="node69" class="node"><title>Node28</title>
<polygon fill="white" stroke="#bfbfbf" points="1376.02,-181.5 1376.02,-202.5 1416.02,-202.5 1416.02,-181.5 1376.02,-181.5"/>
<text text-anchor="middle" x="1396.02" y="-189.5" font-family="Helvetica,sans-Serif" font-size="10.00">limits</text>
</g>
<!-- Node25&#45;&gt;Node28 -->
<g id="edge82" class="edge"><title>Node25&#45;&gt;Node28</title>
<path fill="none" stroke="midnightblue" d="M1406.87,-246.267C1405.03,-237.085 1402.34,-223.615 1400.09,-212.392"/>
<polygon fill="midnightblue" stroke="midnightblue" points="1403.52,-211.653 1398.12,-202.534 1396.65,-213.026 1403.52,-211.653"/>
</g>
<!-- Node26&#45;&gt;Node27 -->
<g id="edge80" class="edge"><title>Node26&#45;&gt;Node27</title>
<path fill="none" stroke="midnightblue" d="M1418.86,-116.362C1413.53,-108.431 1406.1,-97.3885 1399.77,-87.9606"/>
<polygon fill="midnightblue" stroke="midnightblue" points="1402.61,-85.9161 1394.12,-79.5707 1396.8,-89.8221 1402.61,-85.9161"/>
</g>
<!-- Node30 -->
<g id="node73" class="node"><title>Node30</title>
<a xlink:href="../../dc/dfa/sincos_8h.html" target="_top" xlink:title="sincos.h">
<polygon fill="white" stroke="black" points="1471.52,-181.5 1471.52,-202.5 1524.52,-202.5 1524.52,-181.5 1471.52,-181.5"/>
<text text-anchor="middle" x="1498.02" y="-189.5" font-family="Helvetica,sans-Serif" font-size="10.00">sincos.h</text>
</a>
</g>
<!-- Node29&#45;&gt;Node30 -->
<g id="edge86" class="edge"><title>Node29&#45;&gt;Node30</title>
<path fill="none" stroke="midnightblue" d="M1493.01,-246.267C1493.85,-237.18 1495.07,-223.892 1496.1,-212.74"/>
<polygon fill="midnightblue" stroke="midnightblue" points="1499.61,-212.813 1497.04,-202.534 1492.64,-212.17 1499.61,-212.813"/>
</g>
<!-- Node30&#45;&gt;Node26 -->
<g id="edge88" class="edge"><title>Node30&#45;&gt;Node26</title>
<path fill="none" stroke="midnightblue" d="M1486.13,-181.267C1475.01,-171.233 1458.23,-156.078 1445.21,-144.331"/>
<polygon fill="midnightblue" stroke="midnightblue" points="1447.45,-141.637 1437.68,-137.534 1442.76,-146.833 1447.45,-141.637"/>
</g>
<!-- Node30&#45;&gt;Node27 -->
<g id="edge90" class="edge"><title>Node30&#45;&gt;Node27</title>
<path fill="none" stroke="midnightblue" d="M1499.06,-181.495C1500.07,-165.655 1499.69,-135.446 1485.02,-116 1469.02,-94.8064 1441,-82.7114 1419.01,-76.1158"/>
<polygon fill="midnightblue" stroke="midnightblue" points="1419.65,-72.6636 1409.08,-73.3817 1417.79,-79.4122 1419.65,-72.6636"/>
</g>
<!-- Node33&#45;&gt;Node3 -->
<g id="edge102" class="edge"><title>Node33&#45;&gt;Node3</title>
<path fill="none" stroke="midnightblue" d="M811.951,-116.497C847.609,-106.877 900.54,-92.5981 939.052,-82.209"/>
<polygon fill="midnightblue" stroke="midnightblue" points="940.265,-85.5069 949.008,-79.5231 938.442,-78.7485 940.265,-85.5069"/>
</g>
<!-- Node35&#45;&gt;Node3 -->
<g id="edge116" class="edge"><title>Node35&#45;&gt;Node3</title>
<path fill="none" stroke="midnightblue" d="M930.928,-311.984C887.581,-306.1 814.467,-289.596 831.016,-246 858.007,-174.896 928.084,-114.055 964.802,-85.8268"/>
<polygon fill="midnightblue" stroke="midnightblue" points="967.076,-88.4954 972.95,-79.6781 962.859,-82.9077 967.076,-88.4954"/>
</g>
<!-- Node35&#45;&gt;Node6 -->
<g id="edge118" class="edge"><title>Node35&#45;&gt;Node6</title>
<path fill="none" stroke="midnightblue" d="M930.733,-308.019C897.59,-299.978 843.159,-285.586 798.016,-268 772.3,-257.982 612.337,-176.687 544.922,-142.286"/>
<polygon fill="midnightblue" stroke="midnightblue" points="546.172,-138.994 535.674,-137.564 542.989,-145.229 546.172,-138.994"/>
</g>
<!-- Node35&#45;&gt;Node24 -->
<g id="edge114" class="edge"><title>Node35&#45;&gt;Node24</title>
<path fill="none" stroke="midnightblue" d="M976.606,-304.362C989.307,-295.696 1007.45,-283.313 1022.01,-273.382"/>
<polygon fill="midnightblue" stroke="midnightblue" points="1024.24,-276.098 1030.52,-267.571 1020.29,-270.316 1024.24,-276.098"/>
</g>
<!-- Node35&#45;&gt;Node27 -->
<g id="edge122" class="edge"><title>Node35&#45;&gt;Node27</title>
<path fill="none" stroke="midnightblue" d="M966.138,-304.35C973.708,-289.561 989.157,-262.743 1009.02,-246 1118.89,-153.37 1285.38,-98.0337 1354.83,-77.8003"/>
<polygon fill="midnightblue" stroke="midnightblue" points="1356.09,-81.0807 1364.73,-74.9615 1354.16,-74.3515 1356.09,-81.0807"/>
</g>
<!-- Node35&#45;&gt;Node31 -->
<g id="edge120" class="edge"><title>Node35&#45;&gt;Node31</title>
<path fill="none" stroke="midnightblue" d="M989.085,-304.497C1015.11,-294.757 1053.91,-280.24 1081.75,-269.82"/>
<polygon fill="midnightblue" stroke="midnightblue" points="1083.33,-272.966 1091.47,-266.184 1080.88,-266.41 1083.33,-272.966"/>
</g>
<!-- Node35&#45;&gt;Node32 -->
<g id="edge128" class="edge"><title>Node35&#45;&gt;Node32</title>
<path fill="none" stroke="midnightblue" d="M991.412,-307.654C1030.74,-298.149 1099.91,-281.434 1147.99,-269.816"/>
<polygon fill="midnightblue" stroke="midnightblue" points="1149.01,-273.17 1157.91,-267.418 1147.36,-266.365 1149.01,-273.17"/>
</g>
<!-- Node36 -->
<g id="node98" class="node"><title>Node36</title>
<polygon fill="white" stroke="#bfbfbf" points="839.516,-246.5 839.516,-267.5 886.516,-267.5 886.516,-246.5 839.516,-246.5"/>
<text text-anchor="middle" x="863.016" y="-254.5" font-family="Helvetica,sans-Serif" font-size="10.00">fftw3.h</text>
</g>
<!-- Node35&#45;&gt;Node36 -->
<g id="edge124" class="edge"><title>Node35&#45;&gt;Node36</title>
<path fill="none" stroke="midnightblue" d="M943.041,-304.362C928.122,-295.532 906.683,-282.844 889.75,-272.822"/>
<polygon fill="midnightblue" stroke="midnightblue" points="891.265,-269.652 880.877,-267.571 887.7,-275.676 891.265,-269.652"/>
</g>
<!-- Node37 -->
<g id="node100" class="node"><title>Node37</title>
<polygon fill="white" stroke="#bfbfbf" points="903.516,-246.5 903.516,-267.5 962.516,-267.5 962.516,-246.5 903.516,-246.5"/>
<text text-anchor="middle" x="933.016" y="-254.5" font-family="Helvetica,sans-Serif" font-size="10.00">functional</text>
</g>
<!-- Node35&#45;&gt;Node37 -->
<g id="edge126" class="edge"><title>Node35&#45;&gt;Node37</title>
<path fill="none" stroke="midnightblue" d="M955.88,-304.362C952.17,-296.677 947.049,-286.069 942.594,-276.84"/>
<polygon fill="midnightblue" stroke="midnightblue" points="945.619,-275.055 938.119,-267.571 939.315,-278.098 945.619,-275.055"/>
</g>
<!-- Node38&#45;&gt;Node3 -->
<g id="edge138" class="edge"><title>Node38&#45;&gt;Node3</title>
<path fill="none" stroke="midnightblue" d="M1420.17,-434.429C1470.29,-417.942 1552.02,-380.949 1552.02,-315 1552.02,-315 1552.02,-315 1552.02,-192 1552.02,-146.971 1525.14,-136.444 1485.02,-116 1447.27,-96.7675 1177.32,-79.499 1051.84,-72.4114"/>
<polygon fill="midnightblue" stroke="midnightblue" points="1051.79,-68.9032 1041.61,-71.838 1051.4,-75.8922 1051.79,-68.9032"/>
</g>
<!-- Node38&#45;&gt;Node24 -->
<g id="edge140" class="edge"><title>Node38&#45;&gt;Node24</title>
<path fill="none" stroke="midnightblue" d="M1362.92,-434.344C1325.63,-413.538 1240.54,-366.039 1169.02,-326 1136.24,-307.652 1098.58,-286.517 1073.66,-272.524"/>
<polygon fill="midnightblue" stroke="midnightblue" points="1075.2,-269.375 1064.76,-267.531 1071.77,-275.479 1075.2,-269.375"/>
</g>
<!-- Node38&#45;&gt;Node34 -->
<g id="edge136" class="edge"><title>Node38&#45;&gt;Node34</title>
<path fill="none" stroke="midnightblue" d="M1341.94,-439.791C1243.82,-427.034 993.417,-394.482 909.73,-383.603"/>
<polygon fill="midnightblue" stroke="midnightblue" points="910.08,-380.119 899.713,-382.301 909.178,-387.061 910.08,-380.119"/>
</g>
<!-- Node39 -->
<g id="node105" class="node"><title>Node39</title>
<polygon fill="white" stroke="#bfbfbf" points="1580.02,-369.5 1580.02,-390.5 1636.02,-390.5 1636.02,-369.5 1580.02,-369.5"/>
<text text-anchor="middle" x="1608.02" y="-377.5" font-family="Helvetica,sans-Serif" font-size="10.00">Python.h</text>
</g>
<!-- Node38&#45;&gt;Node39 -->
<g id="edge132" class="edge"><title>Node38&#45;&gt;Node39</title>
<path fill="none" stroke="midnightblue" d="M1422.02,-436.661C1459.64,-428.378 1517.32,-414.544 1566.02,-398 1569.17,-396.928 1572.42,-395.724 1575.65,-394.459"/>
<polygon fill="midnightblue" stroke="midnightblue" points="1577.24,-397.591 1585.16,-390.555 1574.58,-391.115 1577.24,-397.591"/>
</g>
<!-- Node40 -->
<g id="node107" class="node"><title>Node40</title>
<polygon fill="white" stroke="#bfbfbf" points="1654.02,-363 1654.02,-397 1762.02,-397 1762.02,-363 1654.02,-363"/>
<text text-anchor="start" x="1662.02" y="-384" font-family="Helvetica,sans-Serif" font-size="10.00">numpy/core/include</text>
<text text-anchor="middle" x="1708.02" y="-371" font-family="Helvetica,sans-Serif" font-size="10.00">/numpy/arrayobject.h</text>
</g>
<!-- Node38&#45;&gt;Node40 -->
<g id="edge134" class="edge"><title>Node38&#45;&gt;Node40</title>
<path fill="none" stroke="midnightblue" d="M1422.37,-439.091C1472.24,-431.503 1559.85,-417.243 1643.85,-398.155"/>
<polygon fill="midnightblue" stroke="midnightblue" points="1644.85,-401.517 1653.81,-395.865 1643.28,-394.695 1644.85,-401.517"/>
</g>
</g>
</svg>
        <g id="navigator" transform="translate(0 0)" fill="#404254">
                <rect fill="#f2f5e9" fill-opacity="0.5" stroke="#606060" stroke-width=".5" x="0" y="0" width="60" height="60"/>
                <use id="zoomplus" xlink:href="#zoomPlus" x="17" y="9" onmousedown="handleZoom(evt,'in')"/>
                <use id="zoomminus" xlink:href="#zoomMin" x="42" y="9" onmousedown="handleZoom(evt,'out')"/>
                <use id="reset" xlink:href="#resetDef" x="30" y="36" onmousedown="handleReset()"/>
                <g id="arrowUp" xlink:href="#dirArrow" transform="translate(30 24)" onmousedown="handlePan(0,-1)">
                  <use xlink:href="#rim" fill="#404040">
                        <set attributeName="fill" to="#808080" begin="arrowUp.mouseover" end="arrowUp.mouseout"/>
                  </use>
                  <path fill="none" stroke="white" stroke-width="1.5" d="M0,-3.0v7 M-2.5,-0.5L0,-3.0L2.5,-0.5"/>
                </g>
                <g id="arrowRight" xlink:href="#dirArrow" transform="rotate(90) translate(36 -43)" onmousedown="handlePan(1,0)">
                  <use xlink:href="#rim" fill="#404040">
                        <set attributeName="fill" to="#808080" begin="arrowRight.mouseover" end="arrowRight.mouseout"/>
                  </use>
                  <path fill="none" stroke="white" stroke-width="1.5" d="M0,-3.0v7 M-2.5,-0.5L0,-3.0L2.5,-0.5"/>
                </g>
                <g id="arrowDown" xlink:href="#dirArrow" transform="rotate(180) translate(-30 -48)" onmousedown="handlePan(0,1)">
                  <use xlink:href="#rim" fill="#404040">
                        <set attributeName="fill" to="#808080" begin="arrowDown.mouseover" end="arrowDown.mouseout"/>
                  </use>
                  <path fill="none" stroke="white" stroke-width="1.5" d="M0,-3.0v7 M-2.5,-0.5L0,-3.0L2.5,-0.5"/>
                </g>
                <g id="arrowLeft" xlink:href="#dirArrow" transform="rotate(270) translate(-36 17)" onmousedown="handlePan(-1,0)">
                  <use xlink:href="#rim" fill="#404040">
                        <set attributeName="fill" to="#808080" begin="arrowLeft.mouseover" end="arrowLeft.mouseout"/>
                  </use>
                  <path fill="none" stroke="white" stroke-width="1.5" d="M0,-3.0v7 M-2.5,-0.5L0,-3.0L2.5,-0.5"/>
                </g>
        </g>
        <svg viewBox="0 0 15 15" width="100%" height="30px" preserveAspectRatio="xMaxYMin meet">
         <g id="arrow_out" transform="scale(0.3 0.3)">
          <a xlink:href="Slices_8cpp__incl_org.svg" target="_base">
           <rect id="button" ry="5" rx="5" y="6" x="6" height="38" width="38"
                fill="#f2f5e9" fill-opacity="0.5" stroke="#606060" stroke-width="1.0"/>
           <path id="arrow"
             d="M 11.500037,31.436501 C 11.940474,20.09759 22.043105,11.32322 32.158766,21.979434 L 37.068811,17.246167 C 37.068811,17.246167 37.088388,32 37.088388,32 L 22.160133,31.978069 C 22.160133,31.978069 26.997745,27.140456 26.997745,27.140456 C 18.528582,18.264221 13.291696,25.230495 11.500037,31.436501 z"
             style="fill:#404040;"/>
          </a>
         </g>
        </svg>
</svg>
