<?xml version="1.0" encoding="UTF-8" standalone="no"?>
<!DOCTYPE svg PUBLIC "-//W3C//DTD SVG 1.1//EN"
 "http://www.w3.org/Graphics/SVG/1.1/DTD/svg11.dtd">
<!-- Generated by graphviz version 2.26.3 (20100126.1600)
 -->
<!-- Title: globals.h Pages: 1 -->
<svg width="1593pt" height="522pt"
 viewBox="0.00 0.00 1593.03 522.00" xmlns="http://www.w3.org/2000/svg" xmlns:xlink="http://www.w3.org/1999/xlink">
<g id="graph1" class="graph" transform="scale(1 1) rotate(0) translate(4 518)">
<title>globals.h</title>
<polygon fill="white" stroke="white" points="-4,5 -4,-518 1590.03,-518 1590.03,5 -4,5"/>
<!-- Node1 -->
<g id="node1" class="node"><title>Node1</title>
<polygon fill="#bfbfbf" stroke="black" points="638,-492.5 638,-513.5 694,-513.5 694,-492.5 638,-492.5"/>
<text text-anchor="middle" x="666" y="-500.5" font-family="Helvetica,sans-Serif" font-size="10.00">globals.h</text>
</g>
<!-- Node2 -->
<g id="node3" class="node"><title>Node2</title>
<a xlink:href="../../d5/d34/GeneralParameters_8h.html" target="_top" xlink:title="blond/input_parameters\l/GeneralParameters.h">
<polygon fill="white" stroke="black" points="666,-233 666,-267 784,-267 784,-233 666,-233"/>
<text text-anchor="start" x="674" y="-254" font-family="Helvetica,sans-Serif" font-size="10.00">blond/input_parameters</text>
<text text-anchor="middle" x="725" y="-241" font-family="Helvetica,sans-Serif" font-size="10.00">/GeneralParameters.h</text>
</a>
</g>
<!-- Node1&#45;&gt;Node2 -->
<g id="edge2" class="edge"><title>Node1&#45;&gt;Node2</title>
<path fill="none" stroke="midnightblue" d="M677.092,-492.471C686.317,-483.361 699.436,-469.555 709,-456 746.712,-402.553 762.199,-389.475 778,-326 780.362,-316.512 781.7,-313.051 778,-304 773.387,-292.714 765.153,-282.514 756.529,-274.096"/>
<polygon fill="midnightblue" stroke="midnightblue" points="758.681,-271.321 748.931,-267.174 753.966,-276.496 758.681,-271.321"/>
</g>
<!-- Node19 -->
<g id="node40" class="node"><title>Node19</title>
<a xlink:href="../../d6/db7/RfParameters_8h.html" target="_top" xlink:title="blond/input_parameters\l/RfParameters.h">
<polygon fill="white" stroke="black" points="467,-363 467,-397 585,-397 585,-363 467,-363"/>
<text text-anchor="start" x="475" y="-384" font-family="Helvetica,sans-Serif" font-size="10.00">blond/input_parameters</text>
<text text-anchor="middle" x="526" y="-371" font-family="Helvetica,sans-Serif" font-size="10.00">/RfParameters.h</text>
</a>
</g>
<!-- Node1&#45;&gt;Node19 -->
<g id="edge42" class="edge"><title>Node1&#45;&gt;Node19</title>
<path fill="none" stroke="midnightblue" d="M637.625,-498.923C610.623,-493.288 571.18,-480.862 547,-456 534.143,-442.78 526.608,-423.388 523.483,-407.502"/>
<polygon fill="midnightblue" stroke="midnightblue" points="526.889,-406.589 522.014,-397.183 519.959,-407.576 526.889,-406.589"/>
</g>
<!-- Node20 -->
<g id="node42" class="node"><title>Node20</title>
<a xlink:href="../../d7/d74/Beams_8h.html" target="_top" xlink:title="blond/beams/Beams.h">
<polygon fill="white" stroke="black" points="655,-304.5 655,-325.5 769,-325.5 769,-304.5 655,-304.5"/>
<text text-anchor="middle" x="712" y="-312.5" font-family="Helvetica,sans-Serif" font-size="10.00">blond/beams/Beams.h</text>
</a>
</g>
<!-- Node1&#45;&gt;Node20 -->
<g id="edge96" class="edge"><title>Node1&#45;&gt;Node20</title>
<path fill="none" stroke="midnightblue" d="M663.559,-492.35C665.663,-482.937 671.318,-468.761 675,-456 687.154,-413.874 695.813,-363.163 702.959,-335.49"/>
<polygon fill="midnightblue" stroke="midnightblue" points="706.356,-336.337 705.729,-325.761 699.624,-334.42 706.356,-336.337"/>
</g>
<!-- Node33 -->
<g id="node82" class="node"><title>Node33</title>
<a xlink:href="../../dc/df2/Slices_8h.html" target="_top" xlink:title="blond/beams/Slices.h">
<polygon fill="white" stroke="black" points="565,-434.5 565,-455.5 675,-455.5 675,-434.5 565,-434.5"/>
<text text-anchor="middle" x="620" y="-442.5" font-family="Helvetica,sans-Serif" font-size="10.00">blond/beams/Slices.h</text>
</a>
</g>
<!-- Node1&#45;&gt;Node33 -->
<g id="edge98" class="edge"><title>Node1&#45;&gt;Node33</title>
<path fill="none" stroke="midnightblue" d="M657.563,-492.362C651.208,-484.35 642.334,-473.161 634.807,-463.67"/>
<polygon fill="midnightblue" stroke="midnightblue" points="637.34,-461.231 628.384,-455.571 631.855,-465.581 637.34,-461.231"/>
</g>
<!-- Node3 -->
<g id="node5" class="node"><title>Node3</title>
<a xlink:href="../../d2/d2c/configuration_8h.html" target="_top" xlink:title="blond/configuration.h">
<polygon fill="white" stroke="black" points="546.5,-116.5 546.5,-137.5 653.5,-137.5 653.5,-116.5 546.5,-116.5"/>
<text text-anchor="middle" x="600" y="-124.5" font-family="Helvetica,sans-Serif" font-size="10.00">blond/configuration.h</text>
</a>
</g>
<!-- Node2&#45;&gt;Node3 -->
<g id="edge4" class="edge"><title>Node2&#45;&gt;Node3</title>
<path fill="none" stroke="midnightblue" d="M709.099,-232.762C694.532,-217.136 672.222,-193.618 652,-174 641.628,-163.938 629.69,-153.098 619.87,-144.366"/>
<polygon fill="midnightblue" stroke="midnightblue" points="622.012,-141.589 612.2,-137.591 617.378,-146.835 622.012,-141.589"/>
</g>
<!-- Node5 -->
<g id="node9" class="node"><title>Node5</title>
<polygon fill="white" stroke="#bfbfbf" points="659,-58.5 659,-79.5 703,-79.5 703,-58.5 659,-58.5"/>
<text text-anchor="middle" x="681" y="-66.5" font-family="Helvetica,sans-Serif" font-size="10.00">vector</text>
</g>
<!-- Node2&#45;&gt;Node5 -->
<g id="edge40" class="edge"><title>Node2&#45;&gt;Node5</title>
<path fill="none" stroke="midnightblue" d="M720.861,-232.972C712.757,-199.635 694.825,-125.869 686.043,-89.747"/>
<polygon fill="midnightblue" stroke="midnightblue" points="689.396,-88.7219 683.633,-79.8317 682.594,-90.3755 689.396,-88.7219"/>
</g>
<!-- Node6 -->
<g id="node11" class="node"><title>Node6</title>
<a xlink:href="../../de/df0/utilities_8h.html" target="_top" xlink:title="blond/utilities.h">
<polygon fill="white" stroke="black" points="933,-174.5 933,-195.5 1015,-195.5 1015,-174.5 933,-174.5"/>
<text text-anchor="middle" x="974" y="-182.5" font-family="Helvetica,sans-Serif" font-size="10.00">blond/utilities.h</text>
</a>
</g>
<!-- Node2&#45;&gt;Node6 -->
<g id="edge10" class="edge"><title>Node2&#45;&gt;Node6</title>
<path fill="none" stroke="midnightblue" d="M784.01,-234.596C826.567,-223.486 883.397,-208.651 923.785,-198.108"/>
<polygon fill="midnightblue" stroke="midnightblue" points="924.889,-201.438 933.68,-195.525 923.12,-194.665 924.889,-201.438"/>
</g>
<!-- Node4 -->
<g id="node7" class="node"><title>Node4</title>
<polygon fill="white" stroke="#bfbfbf" points="573.5,-58.5 573.5,-79.5 626.5,-79.5 626.5,-58.5 573.5,-58.5"/>
<text text-anchor="middle" x="600" y="-66.5" font-family="Helvetica,sans-Serif" font-size="10.00">complex</text>
</g>
<!-- Node3&#45;&gt;Node4 -->
<g id="edge6" class="edge"><title>Node3&#45;&gt;Node4</title>
<path fill="none" stroke="midnightblue" d="M600,-116.362C600,-108.922 600,-98.7427 600,-89.7276"/>
<polygon fill="midnightblue" stroke="midnightblue" points="603.5,-89.5706 600,-79.5707 596.5,-89.5707 603.5,-89.5706"/>
</g>
<!-- Node3&#45;&gt;Node5 -->
<g id="edge8" class="edge"><title>Node3&#45;&gt;Node5</title>
<path fill="none" stroke="midnightblue" d="M614.857,-116.362C626.846,-107.777 643.927,-95.5459 657.728,-85.6636"/>
<polygon fill="midnightblue" stroke="midnightblue" points="660.145,-88.2383 666.238,-79.5707 656.069,-82.5469 660.145,-88.2383"/>
</g>
<!-- Node6&#45;&gt;Node3 -->
<g id="edge34" class="edge"><title>Node6&#45;&gt;Node3</title>
<path fill="none" stroke="midnightblue" d="M932.906,-178.627C867.892,-168.545 740.816,-148.838 663.852,-136.902"/>
<polygon fill="midnightblue" stroke="midnightblue" points="664.216,-133.417 653.798,-135.343 663.144,-140.334 664.216,-133.417"/>
</g>
<!-- Node6&#45;&gt;Node5 -->
<g id="edge30" class="edge"><title>Node6&#45;&gt;Node5</title>
<path fill="none" stroke="midnightblue" d="M1015.1,-183.332C1148.32,-177.73 1560.78,-158.766 1580,-138 1586.64,-130.824 1586.73,-123.092 1580,-116 1549.6,-83.9648 871.789,-71.8564 713.736,-69.4633"/>
<polygon fill="midnightblue" stroke="midnightblue" points="713.322,-65.9569 703.271,-69.3077 713.217,-72.9561 713.322,-65.9569"/>
</g>
<!-- Node7 -->
<g id="node13" class="node"><title>Node7</title>
<polygon fill="white" stroke="#bfbfbf" points="1403,-116.5 1403,-137.5 1449,-137.5 1449,-116.5 1403,-116.5"/>
<text text-anchor="middle" x="1426" y="-124.5" font-family="Helvetica,sans-Serif" font-size="10.00">chrono</text>
</g>
<!-- Node6&#45;&gt;Node7 -->
<g id="edge12" class="edge"><title>Node6&#45;&gt;Node7</title>
<path fill="none" stroke="midnightblue" d="M1015.04,-183.397C1089.07,-179.862 1249.84,-169.248 1392.92,-137.85"/>
<polygon fill="midnightblue" stroke="midnightblue" points="1393.76,-141.249 1402.75,-135.653 1392.23,-134.418 1393.76,-141.249"/>
</g>
<!-- Node8 -->
<g id="node15" class="node"><title>Node8</title>
<polygon fill="white" stroke="#bfbfbf" points="1466.5,-116.5 1466.5,-137.5 1509.5,-137.5 1509.5,-116.5 1466.5,-116.5"/>
<text text-anchor="middle" x="1488" y="-124.5" font-family="Helvetica,sans-Serif" font-size="10.00">cstdio</text>
</g>
<!-- Node6&#45;&gt;Node8 -->
<g id="edge14" class="edge"><title>Node6&#45;&gt;Node8</title>
<path fill="none" stroke="midnightblue" d="M1015.03,-182.364C1112.47,-175.895 1356.48,-158.413 1456.21,-137.897"/>
<polygon fill="midnightblue" stroke="midnightblue" points="1457.22,-141.259 1466.24,-135.708 1455.72,-134.42 1457.22,-141.259"/>
</g>
<!-- Node9 -->
<g id="node17" class="node"><title>Node9</title>
<polygon fill="white" stroke="#bfbfbf" points="1526.5,-116.5 1526.5,-137.5 1571.5,-137.5 1571.5,-116.5 1526.5,-116.5"/>
<text text-anchor="middle" x="1549" y="-124.5" font-family="Helvetica,sans-Serif" font-size="10.00">cstdlib</text>
</g>
<!-- Node6&#45;&gt;Node9 -->
<g id="edge16" class="edge"><title>Node6&#45;&gt;Node9</title>
<path fill="none" stroke="midnightblue" d="M1015.22,-182.801C1121.58,-176.918 1404.18,-159.895 1516.19,-137.908"/>
<polygon fill="midnightblue" stroke="midnightblue" points="1517.09,-141.295 1526.17,-135.834 1515.66,-134.442 1517.09,-141.295"/>
</g>
<!-- Node10 -->
<g id="node19" class="node"><title>Node10</title>
<polygon fill="white" stroke="#bfbfbf" points="709,-116.5 709,-137.5 759,-137.5 759,-116.5 709,-116.5"/>
<text text-anchor="middle" x="734" y="-124.5" font-family="Helvetica,sans-Serif" font-size="10.00">fstream</text>
</g>
<!-- Node6&#45;&gt;Node10 -->
<g id="edge18" class="edge"><title>Node6&#45;&gt;Node10</title>
<path fill="none" stroke="midnightblue" d="M932.693,-176.7C893.032,-168.481 831.261,-155.031 769.145,-138.157"/>
<polygon fill="midnightblue" stroke="midnightblue" points="769.746,-134.692 759.176,-135.42 767.892,-141.443 769.746,-134.692"/>
</g>
<!-- Node11 -->
<g id="node21" class="node"><title>Node11</title>
<polygon fill="white" stroke="#bfbfbf" points="777,-116.5 777,-137.5 831,-137.5 831,-116.5 777,-116.5"/>
<text text-anchor="middle" x="804" y="-124.5" font-family="Helvetica,sans-Serif" font-size="10.00">iostream</text>
</g>
<!-- Node6&#45;&gt;Node11 -->
<g id="edge20" class="edge"><title>Node6&#45;&gt;Node11</title>
<path fill="none" stroke="midnightblue" d="M943.214,-174.497C914.502,-164.701 871.625,-150.072 841.05,-139.641"/>
<polygon fill="midnightblue" stroke="midnightblue" points="841.786,-136.194 831.191,-136.277 839.525,-142.819 841.786,-136.194"/>
</g>
<!-- Node12 -->
<g id="node23" class="node"><title>Node12</title>
<polygon fill="white" stroke="#bfbfbf" points="848.5,-116.5 848.5,-137.5 895.5,-137.5 895.5,-116.5 848.5,-116.5"/>
<text text-anchor="middle" x="872" y="-124.5" font-family="Helvetica,sans-Serif" font-size="10.00">iterator</text>
</g>
<!-- Node6&#45;&gt;Node12 -->
<g id="edge22" class="edge"><title>Node6&#45;&gt;Node12</title>
<path fill="none" stroke="midnightblue" d="M955.292,-174.362C939.619,-165.45 917.036,-152.609 899.337,-142.545"/>
<polygon fill="midnightblue" stroke="midnightblue" points="901.013,-139.471 890.59,-137.571 897.553,-145.556 901.013,-139.471"/>
</g>
<!-- Node13 -->
<g id="node25" class="node"><title>Node13</title>
<polygon fill="white" stroke="#bfbfbf" points="913,-116.5 913,-137.5 965,-137.5 965,-116.5 913,-116.5"/>
<text text-anchor="middle" x="939" y="-124.5" font-family="Helvetica,sans-Serif" font-size="10.00">memory</text>
</g>
<!-- Node6&#45;&gt;Node13 -->
<g id="edge24" class="edge"><title>Node6&#45;&gt;Node13</title>
<path fill="none" stroke="midnightblue" d="M967.58,-174.362C962.844,-166.513 956.268,-155.616 950.618,-146.253"/>
<polygon fill="midnightblue" stroke="midnightblue" points="953.542,-144.324 945.379,-137.571 947.549,-147.941 953.542,-144.324"/>
</g>
<!-- Node14 -->
<g id="node27" class="node"><title>Node14</title>
<polygon fill="white" stroke="#bfbfbf" points="983,-116.5 983,-137.5 1035,-137.5 1035,-116.5 983,-116.5"/>
<text text-anchor="middle" x="1009" y="-124.5" font-family="Helvetica,sans-Serif" font-size="10.00">sstream</text>
</g>
<!-- Node6&#45;&gt;Node14 -->
<g id="edge26" class="edge"><title>Node6&#45;&gt;Node14</title>
<path fill="none" stroke="midnightblue" d="M980.42,-174.362C985.156,-166.513 991.732,-155.616 997.382,-146.253"/>
<polygon fill="midnightblue" stroke="midnightblue" points="1000.45,-147.941 1002.62,-137.571 994.458,-144.324 1000.45,-147.941"/>
</g>
<!-- Node15 -->
<g id="node29" class="node"><title>Node15</title>
<polygon fill="white" stroke="#bfbfbf" points="1052.5,-116.5 1052.5,-137.5 1093.5,-137.5 1093.5,-116.5 1052.5,-116.5"/>
<text text-anchor="middle" x="1073" y="-124.5" font-family="Helvetica,sans-Serif" font-size="10.00">string</text>
</g>
<!-- Node6&#45;&gt;Node15 -->
<g id="edge28" class="edge"><title>Node6&#45;&gt;Node15</title>
<path fill="none" stroke="midnightblue" d="M992.158,-174.362C1007.23,-165.532 1028.89,-152.844 1045.99,-142.822"/>
<polygon fill="midnightblue" stroke="midnightblue" points="1048.1,-145.646 1054.96,-137.571 1044.56,-139.606 1048.1,-145.646"/>
</g>
<!-- Node16 -->
<g id="node32" class="node"><title>Node16</title>
<polygon fill="white" stroke="#bfbfbf" points="1111,-116.5 1111,-137.5 1171,-137.5 1171,-116.5 1111,-116.5"/>
<text text-anchor="middle" x="1141" y="-124.5" font-family="Helvetica,sans-Serif" font-size="10.00">sys/stat.h</text>
</g>
<!-- Node6&#45;&gt;Node16 -->
<g id="edge32" class="edge"><title>Node6&#45;&gt;Node16</title>
<path fill="none" stroke="midnightblue" d="M1004.24,-174.497C1031.43,-165.053 1071.56,-151.117 1101.32,-140.781"/>
<polygon fill="midnightblue" stroke="midnightblue" points="1102.68,-144.012 1110.98,-137.425 1100.39,-137.4 1102.68,-144.012"/>
</g>
<!-- Node17 -->
<g id="node35" class="node"><title>Node17</title>
<polygon fill="white" stroke="#bfbfbf" points="1188.5,-116.5 1188.5,-137.5 1263.5,-137.5 1263.5,-116.5 1188.5,-116.5"/>
<text text-anchor="middle" x="1226" y="-124.5" font-family="Helvetica,sans-Serif" font-size="10.00">mm_malloc.h</text>
</g>
<!-- Node6&#45;&gt;Node17 -->
<g id="edge36" class="edge"><title>Node6&#45;&gt;Node17</title>
<path fill="none" stroke="midnightblue" d="M1015.07,-175.762C1054.55,-166.851 1116.19,-152.864 1178.37,-138.367"/>
<polygon fill="midnightblue" stroke="midnightblue" points="1179.41,-141.719 1188.35,-136.036 1177.82,-134.902 1179.41,-141.719"/>
</g>
<!-- Node18 -->
<g id="node37" class="node"><title>Node18</title>
<a xlink:href="../../da/d69/optionparser_8h.html" target="_top" xlink:title="This is the only file required to use The Lean Mean C++ Option Parser. Just #include it and you&#39;re se...">
<polygon fill="white" stroke="black" points="1281,-116.5 1281,-137.5 1385,-137.5 1385,-116.5 1281,-116.5"/>
<text text-anchor="middle" x="1333" y="-124.5" font-family="Helvetica,sans-Serif" font-size="10.00">blond/optionparser.h</text>
</a>
</g>
<!-- Node6&#45;&gt;Node18 -->
<g id="edge38" class="edge"><title>Node6&#45;&gt;Node18</title>
<path fill="none" stroke="midnightblue" d="M1015.02,-178.822C1070.61,-170.386 1173.23,-154.586 1270.74,-138.188"/>
<polygon fill="midnightblue" stroke="midnightblue" points="1271.49,-141.611 1280.77,-136.496 1270.33,-134.709 1271.49,-141.611"/>
</g>
<!-- Node19&#45;&gt;Node1 -->
<g id="edge94" class="edge"><title>Node19&#45;&gt;Node1</title>
<path fill="none" stroke="midnightblue" d="M535.619,-397.183C541.413,-414.11 549.176,-439.729 565,-456 582.249,-473.736 607.266,-485.143 628.178,-492.271"/>
<polygon fill="midnightblue" stroke="midnightblue" points="627.167,-495.622 637.758,-495.344 629.305,-488.957 627.167,-495.622"/>
</g>
<!-- Node19&#45;&gt;Node2 -->
<g id="edge56" class="edge"><title>Node19&#45;&gt;Node2</title>
<path fill="none" stroke="midnightblue" d="M552.426,-362.737C587.909,-339.557 651.026,-298.325 690.302,-272.667"/>
<polygon fill="midnightblue" stroke="midnightblue" points="692.324,-275.527 698.782,-267.127 688.496,-269.666 692.324,-275.527"/>
</g>
<!-- Node19&#45;&gt;Node20 -->
<g id="edge44" class="edge"><title>Node19&#45;&gt;Node20</title>
<path fill="none" stroke="midnightblue" d="M568.846,-362.922C598.223,-352.277 637.036,-338.758 666.887,-328.795"/>
<polygon fill="midnightblue" stroke="midnightblue" points="668.25,-332.031 676.64,-325.562 666.047,-325.386 668.25,-332.031"/>
</g>
<!-- Node21 -->
<g id="node50" class="node"><title>Node21</title>
<a xlink:href="../../d2/de2/math__functions_8h.html" target="_top" xlink:title="blond/math_functions.h">
<polygon fill="white" stroke="black" points="285,-239.5 285,-260.5 403,-260.5 403,-239.5 285,-239.5"/>
<text text-anchor="middle" x="344" y="-247.5" font-family="Helvetica,sans-Serif" font-size="10.00">blond/math_functions.h</text>
</a>
</g>
<!-- Node19&#45;&gt;Node21 -->
<g id="edge58" class="edge"><title>Node19&#45;&gt;Node21</title>
<path fill="none" stroke="midnightblue" d="M499.104,-362.939C482.948,-352.53 462.085,-338.805 444,-326 416.282,-306.374 385.276,-282.498 365.243,-266.807"/>
<polygon fill="midnightblue" stroke="midnightblue" points="367.396,-264.048 357.371,-260.62 363.07,-269.551 367.396,-264.048"/>
</g>
<!-- Node32 -->
<g id="node77" class="node"><title>Node32</title>
<a xlink:href="../../d2/d6f/constants_8h.html" target="_top" xlink:title="blond/constants.h">
<polygon fill="white" stroke="black" points="453,-304.5 453,-325.5 547,-325.5 547,-304.5 453,-304.5"/>
<text text-anchor="middle" x="500" y="-312.5" font-family="Helvetica,sans-Serif" font-size="10.00">blond/constants.h</text>
</a>
</g>
<!-- Node19&#45;&gt;Node32 -->
<g id="edge90" class="edge"><title>Node19&#45;&gt;Node32</title>
<path fill="none" stroke="midnightblue" d="M519.169,-362.922C515.795,-354.487 511.699,-344.248 508.161,-335.403"/>
<polygon fill="midnightblue" stroke="midnightblue" points="511.304,-333.837 504.341,-325.852 504.805,-336.437 511.304,-333.837"/>
</g>
<!-- Node20&#45;&gt;Node1 -->
<g id="edge46" class="edge"><title>Node20&#45;&gt;Node1</title>
<path fill="none" stroke="midnightblue" d="M715.274,-325.761C716.05,-349.549 706.768,-408.282 693,-456 690.354,-465.172 686.688,-475.075 682.655,-483.415"/>
<polygon fill="midnightblue" stroke="midnightblue" points="679.499,-481.894 677.792,-492.35 685.647,-485.24 679.499,-481.894"/>
</g>
<!-- Node20&#45;&gt;Node2 -->
<g id="edge52" class="edge"><title>Node20&#45;&gt;Node2</title>
<path fill="none" stroke="midnightblue" d="M714.147,-304.267C715.63,-296.852 717.672,-286.64 719.585,-277.074"/>
<polygon fill="midnightblue" stroke="midnightblue" points="723.049,-277.602 721.578,-267.11 716.185,-276.229 723.049,-277.602"/>
</g>
<!-- Node20&#45;&gt;Node3 -->
<g id="edge48" class="edge"><title>Node20&#45;&gt;Node3</title>
<path fill="none" stroke="midnightblue" d="M695.697,-304.312C683.648,-295.715 667.567,-282.679 657,-268 642.524,-247.89 618.636,-181.478 606.918,-147.466"/>
<polygon fill="midnightblue" stroke="midnightblue" points="610.113,-145.993 603.568,-137.662 603.489,-148.256 610.113,-145.993"/>
</g>
<!-- Node20&#45;&gt;Node6 -->
<g id="edge50" class="edge"><title>Node20&#45;&gt;Node6</title>
<path fill="none" stroke="midnightblue" d="M732.565,-304.338C749.303,-295.363 773.297,-281.812 793,-268 813.409,-253.693 814.279,-244.225 836,-232 863.087,-216.754 895.945,-205.32 922.802,-197.548"/>
<polygon fill="midnightblue" stroke="midnightblue" points="924.095,-200.821 932.777,-194.749 922.204,-194.081 924.095,-200.821"/>
</g>
<!-- Node20&#45;&gt;Node19 -->
<g id="edge54" class="edge"><title>Node20&#45;&gt;Node19</title>
<path fill="none" stroke="midnightblue" d="M686.913,-325.562C662.236,-334.757 623.739,-348.348 590.548,-359.649"/>
<polygon fill="midnightblue" stroke="midnightblue" points="589.239,-356.397 580.893,-362.922 591.487,-363.026 589.239,-356.397"/>
</g>
<!-- Node21&#45;&gt;Node3 -->
<g id="edge62" class="edge"><title>Node21&#45;&gt;Node3</title>
<path fill="none" stroke="midnightblue" d="M349.245,-239.297C357.988,-222.626 377.165,-190.648 403,-174 424.913,-159.879 487.537,-146.347 536.357,-137.461"/>
<polygon fill="midnightblue" stroke="midnightblue" points="537.007,-140.9 546.233,-135.691 535.772,-134.01 537.007,-140.9"/>
</g>
<!-- Node21&#45;&gt;Node6 -->
<g id="edge80" class="edge"><title>Node21&#45;&gt;Node6</title>
<path fill="none" stroke="midnightblue" d="M403.269,-243.885C526.217,-231.2 807.157,-202.214 922.81,-190.282"/>
<polygon fill="midnightblue" stroke="midnightblue" points="923.233,-193.757 932.821,-189.249 922.514,-186.794 923.233,-193.757"/>
</g>
<!-- Node22 -->
<g id="node52" class="node"><title>Node22</title>
<polygon fill="white" stroke="#bfbfbf" points="412,-174.5 412,-195.5 468,-195.5 468,-174.5 412,-174.5"/>
<text text-anchor="middle" x="440" y="-182.5" font-family="Helvetica,sans-Serif" font-size="10.00">algorithm</text>
</g>
<!-- Node21&#45;&gt;Node22 -->
<g id="edge60" class="edge"><title>Node21&#45;&gt;Node22</title>
<path fill="none" stroke="midnightblue" d="M359.852,-239.267C375.09,-228.949 398.327,-213.216 415.864,-201.342"/>
<polygon fill="midnightblue" stroke="midnightblue" points="418.124,-204.038 424.443,-195.534 414.2,-198.242 418.124,-204.038"/>
</g>
<!-- Node23 -->
<g id="node55" class="node"><title>Node23</title>
<a xlink:href="../../d8/dcd/exp_8h.html" target="_top" xlink:title="blond/exp.h">
<polygon fill="white" stroke="black" points="185.5,-174.5 185.5,-195.5 252.5,-195.5 252.5,-174.5 185.5,-174.5"/>
<text text-anchor="middle" x="219" y="-182.5" font-family="Helvetica,sans-Serif" font-size="10.00">blond/exp.h</text>
</a>
</g>
<!-- Node21&#45;&gt;Node23 -->
<g id="edge64" class="edge"><title>Node21&#45;&gt;Node23</title>
<path fill="none" stroke="midnightblue" d="M323.638,-239.412C303.209,-228.788 271.535,-212.318 248.385,-200.28"/>
<polygon fill="midnightblue" stroke="midnightblue" points="249.84,-197.092 239.353,-195.584 246.61,-203.302 249.84,-197.092"/>
</g>
<!-- Node25 -->
<g id="node59" class="node"><title>Node25</title>
<polygon fill="white" stroke="#bfbfbf" points="101,-0.5 101,-21.5 145,-21.5 145,-0.5 101,-0.5"/>
<text text-anchor="middle" x="123" y="-8.5" font-family="Helvetica,sans-Serif" font-size="10.00">cmath</text>
</g>
<!-- Node21&#45;&gt;Node25 -->
<g id="edge82" class="edge"><title>Node21&#45;&gt;Node25</title>
<path fill="none" stroke="midnightblue" d="M284.816,-245.554C218.866,-239.226 118.393,-225.01 95,-196 55.6922,-147.254 91.4608,-67.0189 111.527,-30.3597"/>
<polygon fill="midnightblue" stroke="midnightblue" points="114.588,-32.0566 116.465,-21.6294 108.495,-28.6101 114.588,-32.0566"/>
</g>
<!-- Node27 -->
<g id="node63" class="node"><title>Node27</title>
<a xlink:href="../../d1/d3d/sin_8h.html" target="_top" xlink:title="blond/sin.h">
<polygon fill="white" stroke="black" points="104,-174.5 104,-195.5 168,-195.5 168,-174.5 104,-174.5"/>
<text text-anchor="middle" x="136" y="-182.5" font-family="Helvetica,sans-Serif" font-size="10.00">blond/sin.h</text>
</a>
</g>
<!-- Node21&#45;&gt;Node27 -->
<g id="edge72" class="edge"><title>Node21&#45;&gt;Node27</title>
<path fill="none" stroke="midnightblue" d="M310.118,-239.412C274.084,-228.151 217.028,-210.321 178.124,-198.164"/>
<polygon fill="midnightblue" stroke="midnightblue" points="178.746,-194.691 168.157,-195.049 176.658,-201.373 178.746,-194.691"/>
</g>
<!-- Node29 -->
<g id="node71" class="node"><title>Node29</title>
<polygon fill="white" stroke="#bfbfbf" points="485.5,-174.5 485.5,-195.5 534.5,-195.5 534.5,-174.5 485.5,-174.5"/>
<text text-anchor="middle" x="510" y="-182.5" font-family="Helvetica,sans-Serif" font-size="10.00">random</text>
</g>
<!-- Node21&#45;&gt;Node29 -->
<g id="edge84" class="edge"><title>Node21&#45;&gt;Node29</title>
<path fill="none" stroke="midnightblue" d="M371.04,-239.412C399.641,-228.213 444.834,-210.517 475.869,-198.364"/>
<polygon fill="midnightblue" stroke="midnightblue" points="477.374,-201.534 485.409,-194.629 474.821,-195.016 477.374,-201.534"/>
</g>
<!-- Node30 -->
<g id="node73" class="node"><title>Node30</title>
<polygon fill="white" stroke="#bfbfbf" points="-0.5,-174.5 -0.5,-195.5 48.5,-195.5 48.5,-174.5 -0.5,-174.5"/>
<text text-anchor="middle" x="24" y="-182.5" font-family="Helvetica,sans-Serif" font-size="10.00">cassert</text>
</g>
<!-- Node21&#45;&gt;Node30 -->
<g id="edge86" class="edge"><title>Node21&#45;&gt;Node30</title>
<path fill="none" stroke="midnightblue" d="M284.788,-240.304C227.49,-230.536 138.344,-214.318 62,-196 60.9314,-195.744 59.848,-195.476 58.7557,-195.2"/>
<polygon fill="midnightblue" stroke="midnightblue" points="59.4145,-191.754 48.8497,-192.551 57.6056,-198.516 59.4145,-191.754"/>
</g>
<!-- Node31 -->
<g id="node75" class="node"><title>Node31</title>
<a xlink:href="../../d1/db0/openmp_8h.html" target="_top" xlink:title="blond/openmp.h">
<polygon fill="white" stroke="black" points="270,-174.5 270,-195.5 356,-195.5 356,-174.5 270,-174.5"/>
<text text-anchor="middle" x="313" y="-182.5" font-family="Helvetica,sans-Serif" font-size="10.00">blond/openmp.h</text>
</a>
</g>
<!-- Node21&#45;&gt;Node31 -->
<g id="edge88" class="edge"><title>Node21&#45;&gt;Node31</title>
<path fill="none" stroke="midnightblue" d="M338.881,-239.267C334.412,-229.896 327.812,-216.057 322.396,-204.7"/>
<polygon fill="midnightblue" stroke="midnightblue" points="325.488,-203.053 318.024,-195.534 319.169,-206.066 325.488,-203.053"/>
</g>
<!-- Node24 -->
<g id="node57" class="node"><title>Node24</title>
<a xlink:href="../../df/de1/vdtcore__common_8h.html" target="_top" xlink:title="vdtcore_common.h">
<polygon fill="white" stroke="black" points="151,-58.5 151,-79.5 251,-79.5 251,-58.5 151,-58.5"/>
<text text-anchor="middle" x="201" y="-66.5" font-family="Helvetica,sans-Serif" font-size="10.00">vdtcore_common.h</text>
</a>
</g>
<!-- Node23&#45;&gt;Node24 -->
<g id="edge66" class="edge"><title>Node23&#45;&gt;Node24</title>
<path fill="none" stroke="midnightblue" d="M222.385,-174.079C226.129,-160.335 231.012,-136.094 226,-116 223.589,-106.332 218.774,-96.4711 214.009,-88.2947"/>
<polygon fill="midnightblue" stroke="midnightblue" points="216.841,-86.2211 208.583,-79.5825 210.898,-89.9213 216.841,-86.2211"/>
</g>
<!-- Node26 -->
<g id="node61" class="node"><title>Node26</title>
<polygon fill="white" stroke="#bfbfbf" points="177,-116.5 177,-137.5 217,-137.5 217,-116.5 177,-116.5"/>
<text text-anchor="middle" x="197" y="-124.5" font-family="Helvetica,sans-Serif" font-size="10.00">limits</text>
</g>
<!-- Node23&#45;&gt;Node26 -->
<g id="edge70" class="edge"><title>Node23&#45;&gt;Node26</title>
<path fill="none" stroke="midnightblue" d="M214.965,-174.362C212.081,-166.758 208.112,-156.294 204.637,-147.135"/>
<polygon fill="midnightblue" stroke="midnightblue" points="207.829,-145.679 201.01,-137.571 201.284,-148.162 207.829,-145.679"/>
</g>
<!-- Node24&#45;&gt;Node25 -->
<g id="edge68" class="edge"><title>Node24&#45;&gt;Node25</title>
<path fill="none" stroke="midnightblue" d="M186.694,-58.3619C175.149,-49.7773 158.7,-37.5459 145.41,-27.6636"/>
<polygon fill="midnightblue" stroke="midnightblue" points="147.329,-24.7291 137.216,-21.5707 143.152,-30.3463 147.329,-24.7291"/>
</g>
<!-- Node28 -->
<g id="node65" class="node"><title>Node28</title>
<a xlink:href="../../dc/dfa/sincos_8h.html" target="_top" xlink:title="sincos.h">
<polygon fill="white" stroke="black" points="106.5,-116.5 106.5,-137.5 159.5,-137.5 159.5,-116.5 106.5,-116.5"/>
<text text-anchor="middle" x="133" y="-124.5" font-family="Helvetica,sans-Serif" font-size="10.00">sincos.h</text>
</a>
</g>
<!-- Node27&#45;&gt;Node28 -->
<g id="edge74" class="edge"><title>Node27&#45;&gt;Node28</title>
<path fill="none" stroke="midnightblue" d="M135.45,-174.362C135.065,-166.922 134.538,-156.743 134.072,-147.728"/>
<polygon fill="midnightblue" stroke="midnightblue" points="137.559,-147.376 133.547,-137.571 130.568,-147.738 137.559,-147.376"/>
</g>
<!-- Node28&#45;&gt;Node24 -->
<g id="edge76" class="edge"><title>Node28&#45;&gt;Node24</title>
<path fill="none" stroke="midnightblue" d="M145.472,-116.362C155.345,-107.941 169.333,-96.0105 180.798,-86.2308"/>
<polygon fill="midnightblue" stroke="midnightblue" points="183.27,-88.7231 188.607,-79.5707 178.727,-83.3972 183.27,-88.7231"/>
</g>
<!-- Node28&#45;&gt;Node25 -->
<g id="edge78" class="edge"><title>Node28&#45;&gt;Node25</title>
<path fill="none" stroke="midnightblue" d="M132.077,-116.295C130.425,-97.1314 126.936,-56.654 124.797,-31.8434"/>
<polygon fill="midnightblue" stroke="midnightblue" points="128.267,-31.3416 123.921,-21.6792 121.293,-31.9429 128.267,-31.3416"/>
</g>
<!-- Node32&#45;&gt;Node3 -->
<g id="edge92" class="edge"><title>Node32&#45;&gt;Node3</title>
<path fill="none" stroke="midnightblue" d="M505.663,-304.354C521.889,-273.849 568.725,-185.797 589.667,-146.426"/>
<polygon fill="midnightblue" stroke="midnightblue" points="592.793,-148.002 594.399,-137.53 586.613,-144.715 592.793,-148.002"/>
</g>
<!-- Node33&#45;&gt;Node3 -->
<g id="edge100" class="edge"><title>Node33&#45;&gt;Node3</title>
<path fill="none" stroke="midnightblue" d="M619.335,-434.42C616.47,-388.866 605.157,-209.002 601.298,-147.64"/>
<polygon fill="midnightblue" stroke="midnightblue" points="604.789,-147.381 600.668,-137.62 597.803,-147.82 604.789,-147.381"/>
</g>
<!-- Node33&#45;&gt;Node6 -->
<g id="edge102" class="edge"><title>Node33&#45;&gt;Node6</title>
<path fill="none" stroke="midnightblue" d="M634.316,-434.486C688.908,-394.389 884.313,-250.872 951.286,-201.682"/>
<polygon fill="midnightblue" stroke="midnightblue" points="953.518,-204.386 959.506,-195.645 949.375,-198.744 953.518,-204.386"/>
</g>
<!-- Node33&#45;&gt;Node19 -->
<g id="edge104" class="edge"><title>Node33&#45;&gt;Node19</title>
<path fill="none" stroke="midnightblue" d="M604.478,-434.267C592.158,-425.748 574.499,-413.537 559.051,-402.854"/>
<polygon fill="midnightblue" stroke="midnightblue" points="560.959,-399.919 550.743,-397.11 556.978,-405.676 560.959,-399.919"/>
</g>
<!-- Node34 -->
<g id="node87" class="node"><title>Node34</title>
<polygon fill="white" stroke="#bfbfbf" points="640.5,-369.5 640.5,-390.5 675.5,-390.5 675.5,-369.5 640.5,-369.5"/>
<text text-anchor="middle" x="658" y="-377.5" font-family="Helvetica,sans-Serif" font-size="10.00">map</text>
</g>
<!-- Node33&#45;&gt;Node34 -->
<g id="edge106" class="edge"><title>Node33&#45;&gt;Node34</title>
<path fill="none" stroke="midnightblue" d="M626.275,-434.267C631.808,-424.801 640.007,-410.777 646.684,-399.357"/>
<polygon fill="midnightblue" stroke="midnightblue" points="649.816,-400.933 651.842,-390.534 643.773,-397.4 649.816,-400.933"/>
</g>
</g>
</svg>
