<?xml version="1.0" encoding="UTF-8" standalone="no"?>
<!DOCTYPE svg PUBLIC "-//W3C//DTD SVG 1.1//EN"
 "http://www.w3.org/Graphics/SVG/1.1/DTD/svg11.dtd">
<!-- Generated by graphviz version 2.26.3 (20100126.1600)
 -->
<!-- Title: Monitors.cpp Pages: 1 -->
<!--zoomable 638 -->
<svg id="main" version="1.1" xmlns="http://www.w3.org/2000/svg" xmlns:xlink="http://www.w3.org/1999/xlink" xml:space="preserve" onload="init(evt)">
        <defs>
                <circle id="rim" cx="0" cy="0" r="7"/>
                <circle id="rim2" cx="0" cy="0" r="3.5"/>
                <g id="zoomPlus">
                        <use xlink:href="#rim" fill="#404040">
                                <set attributeName="fill" to="#808080" begin="zoomplus.mouseover" end="zoomplus.mouseout"/>
                        </use>
                        <path d="M-4,0h8M0,-4v8" fill="none" stroke="white" stroke-width="1.5" pointer-events="none"/>
                </g>
                <g id="zoomMin">
                        <use xlink:href="#rim" fill="#404040">
                                <set attributeName="fill" to="#808080" begin="zoomminus.mouseover" end="zoomminus.mouseout"/>
                        </use>
                        <path d="M-4,0h8" fill="none" stroke="white" stroke-width="1.5" pointer-events="none"/>
                </g>
                <g id="dirArrow">
                        <path fill="none" stroke="white" stroke-width="1.5" d="M0,-3.0v7 M-2.5,-0.5L0,-3.0L2.5,-0.5"/>
                </g>
               <g id="resetDef">
                       <use xlink:href="#rim2" fill="#404040">
                               <set attributeName="fill" to="#808080" begin="reset.mouseover" end="reset.mouseout"/>
                       </use>
               </g>
        </defs>

<script type="text/javascript">
var viewWidth = 1173;
var viewHeight = 638;
var sectionId = 'dynsection-0';
</script>
<script xlink:href="../../svgpan.js"/>
<svg id="graph" class="graph">
<g id="viewport">
<title>Monitors.cpp</title>
<polygon fill="white" stroke="white" points="-4,5 -4,-634 1170,-634 1170,5 -4,5"/>
<!-- Node1 -->
<g id="node1" class="node"><title>Node1</title>
<polygon fill="#bfbfbf" stroke="black" points="1025.5,-608.5 1025.5,-629.5 1098.5,-629.5 1098.5,-608.5 1025.5,-608.5"/>
<text text-anchor="middle" x="1062" y="-616.5" font-family="Helvetica,sans-Serif" font-size="10.00">Monitors.cpp</text>
</g>
<!-- Node2 -->
<g id="node3" class="node"><title>Node2</title>
<a xlink:href="../../d0/da6/Monitors_8h.html" target="_top" xlink:title="blond/monitors/Monitors.h">
<polygon fill="white" stroke="black" points="668.5,-550.5 668.5,-571.5 797.5,-571.5 797.5,-550.5 668.5,-550.5"/>
<text text-anchor="middle" x="733" y="-558.5" font-family="Helvetica,sans-Serif" font-size="10.00">blond/monitors/Monitors.h</text>
</a>
</g>
<!-- Node1&#45;&gt;Node2 -->
<g id="edge2" class="edge"><title>Node1&#45;&gt;Node2</title>
<path fill="none" stroke="midnightblue" d="M1025.22,-612.515C971.548,-603.054 870.783,-585.29 802.779,-573.301"/>
<polygon fill="midnightblue" stroke="midnightblue" points="803.031,-569.792 792.575,-571.503 801.816,-576.686 803.031,-569.792"/>
</g>
<!-- Node14 -->
<g id="node27" class="node"><title>Node14</title>
<polygon fill="white" stroke="#bfbfbf" points="956,-58.5 956,-79.5 1010,-79.5 1010,-58.5 956,-58.5"/>
<text text-anchor="middle" x="983" y="-66.5" font-family="Helvetica,sans-Serif" font-size="10.00">iostream</text>
</g>
<!-- Node1&#45;&gt;Node14 -->
<g id="edge114" class="edge"><title>Node1&#45;&gt;Node14</title>
<path fill="none" stroke="midnightblue" d="M1059.03,-608.222C1053.69,-587.841 1043,-542.182 1043,-503 1043,-503 1043,-503 1043,-192 1043,-151.55 1016.46,-110.501 998.686,-87.5407"/>
<polygon fill="midnightblue" stroke="midnightblue" points="1001.36,-85.2802 992.375,-79.6654 995.897,-89.6576 1001.36,-85.2802"/>
</g>
<!-- Node18 -->
<g id="node35" class="node"><title>Node18</title>
<polygon fill="white" stroke="#bfbfbf" points="1043.5,-58.5 1043.5,-79.5 1084.5,-79.5 1084.5,-58.5 1043.5,-58.5"/>
<text text-anchor="middle" x="1064" y="-66.5" font-family="Helvetica,sans-Serif" font-size="10.00">string</text>
</g>
<!-- Node1&#45;&gt;Node18 -->
<g id="edge112" class="edge"><title>Node1&#45;&gt;Node18</title>
<path fill="none" stroke="midnightblue" d="M1064.97,-608.222C1070.31,-587.841 1081,-542.182 1081,-503 1081,-503 1081,-503 1081,-192 1081,-155.733 1073.66,-114.014 1068.62,-89.6701"/>
<polygon fill="midnightblue" stroke="midnightblue" points="1072.02,-88.8354 1066.51,-79.7901 1065.18,-90.3013 1072.02,-88.8354"/>
</g>
<!-- Node32 -->
<g id="node90" class="node"><title>Node32</title>
<polygon fill="white" stroke="#bfbfbf" points="1109,-550.5 1109,-571.5 1165,-571.5 1165,-550.5 1109,-550.5"/>
<text text-anchor="middle" x="1137" y="-558.5" font-family="Helvetica,sans-Serif" font-size="10.00">algorithm</text>
</g>
<!-- Node1&#45;&gt;Node32 -->
<g id="edge116" class="edge"><title>Node1&#45;&gt;Node32</title>
<path fill="none" stroke="midnightblue" d="M1075.76,-608.362C1086.75,-599.859 1102.37,-587.779 1115.09,-577.947"/>
<polygon fill="midnightblue" stroke="midnightblue" points="1117.56,-580.457 1123.33,-571.571 1113.28,-574.919 1117.56,-580.457"/>
</g>
<!-- Node3 -->
<g id="node5" class="node"><title>Node3</title>
<polygon fill="white" stroke="#bfbfbf" points="780,-492.5 780,-513.5 836,-513.5 836,-492.5 780,-492.5"/>
<text text-anchor="middle" x="808" y="-500.5" font-family="Helvetica,sans-Serif" font-size="10.00">H5Cpp.h</text>
</g>
<!-- Node2&#45;&gt;Node3 -->
<g id="edge4" class="edge"><title>Node2&#45;&gt;Node3</title>
<path fill="none" stroke="midnightblue" d="M746.756,-550.362C757.751,-541.859 773.373,-529.779 786.086,-519.947"/>
<polygon fill="midnightblue" stroke="midnightblue" points="788.562,-522.457 794.331,-513.571 784.279,-516.919 788.562,-522.457"/>
</g>
<!-- Node4 -->
<g id="node7" class="node"><title>Node4</title>
<polygon fill="white" stroke="#bfbfbf" points="854,-492.5 854,-513.5 898,-513.5 898,-492.5 854,-492.5"/>
<text text-anchor="middle" x="876" y="-500.5" font-family="Helvetica,sans-Serif" font-size="10.00">hdf5.h</text>
</g>
<!-- Node2&#45;&gt;Node4 -->
<g id="edge6" class="edge"><title>Node2&#45;&gt;Node4</title>
<path fill="none" stroke="midnightblue" d="M758.896,-550.497C782.876,-540.771 818.601,-526.281 844.282,-515.865"/>
<polygon fill="midnightblue" stroke="midnightblue" points="845.636,-519.092 853.587,-512.09 843.005,-512.606 845.636,-519.092"/>
</g>
<!-- Node5 -->
<g id="node9" class="node"><title>Node5</title>
<polygon fill="white" stroke="#bfbfbf" points="916,-492.5 916,-513.5 972,-513.5 972,-492.5 916,-492.5"/>
<text text-anchor="middle" x="944" y="-500.5" font-family="Helvetica,sans-Serif" font-size="10.00">hdf5_hl.h</text>
</g>
<!-- Node2&#45;&gt;Node5 -->
<g id="edge8" class="edge"><title>Node2&#45;&gt;Node5</title>
<path fill="none" stroke="midnightblue" d="M773.163,-550.458C806.342,-541.681 854.918,-528.674 905.863,-514.281"/>
<polygon fill="midnightblue" stroke="midnightblue" points="907.073,-517.576 915.74,-511.481 905.164,-510.841 907.073,-517.576"/>
</g>
<!-- Node6 -->
<g id="node11" class="node"><title>Node6</title>
<a xlink:href="../../d2/d2c/configuration_8h.html" target="_top" xlink:title="blond/configuration.h">
<polygon fill="white" stroke="black" points="799.5,-58.5 799.5,-79.5 906.5,-79.5 906.5,-58.5 799.5,-58.5"/>
<text text-anchor="middle" x="853" y="-66.5" font-family="Helvetica,sans-Serif" font-size="10.00">blond/configuration.h</text>
</a>
</g>
<!-- Node2&#45;&gt;Node6 -->
<g id="edge10" class="edge"><title>Node2&#45;&gt;Node6</title>
<path fill="none" stroke="midnightblue" d="M797.587,-556.048C861.664,-549.885 954.079,-537.218 981,-514 1005.59,-492.794 1005,-477.469 1005,-445 1005,-445 1005,-445 1005,-192 1005,-135.864 941.575,-100.927 896.666,-83.2262"/>
<polygon fill="midnightblue" stroke="midnightblue" points="897.703,-79.8764 887.112,-79.6065 895.223,-86.4223 897.703,-79.8764"/>
</g>
<!-- Node9 -->
<g id="node17" class="node"><title>Node9</title>
<a xlink:href="../../de/df0/utilities_8h.html" target="_top" xlink:title="blond/utilities.h">
<polygon fill="white" stroke="black" points="463,-116.5 463,-137.5 545,-137.5 545,-116.5 463,-116.5"/>
<text text-anchor="middle" x="504" y="-124.5" font-family="Helvetica,sans-Serif" font-size="10.00">blond/utilities.h</text>
</a>
</g>
<!-- Node2&#45;&gt;Node9 -->
<g id="edge16" class="edge"><title>Node2&#45;&gt;Node9</title>
<path fill="none" stroke="midnightblue" d="M668.057,-557.035C548.958,-549.38 304.596,-531.748 270,-514 233.581,-495.316 209,-485.932 209,-445 209,-445 209,-445 209,-264 209,-210.822 368.678,-161.737 453.078,-139.506"/>
<polygon fill="midnightblue" stroke="midnightblue" points="454.185,-142.835 462.982,-136.93 452.422,-136.06 454.185,-142.835"/>
</g>
<!-- Node22 -->
<g id="node45" class="node"><title>Node22</title>
<a xlink:href="../../d7/d74/Beams_8h.html" target="_top" xlink:title="blond/beams/Beams.h">
<polygon fill="white" stroke="black" points="353,-318.5 353,-339.5 467,-339.5 467,-318.5 353,-318.5"/>
<text text-anchor="middle" x="410" y="-326.5" font-family="Helvetica,sans-Serif" font-size="10.00">blond/beams/Beams.h</text>
</a>
</g>
<!-- Node2&#45;&gt;Node22 -->
<g id="edge46" class="edge"><title>Node2&#45;&gt;Node22</title>
<path fill="none" stroke="midnightblue" d="M671.068,-550.461C637.302,-543.167 595.486,-531.55 561,-514 487.447,-476.569 454.942,-470.764 416,-398 408.121,-383.277 407.024,-364.222 407.67,-349.868"/>
<polygon fill="midnightblue" stroke="midnightblue" points="411.188,-349.776 408.466,-339.537 404.209,-349.239 411.188,-349.776"/>
</g>
<!-- Node23 -->
<g id="node49" class="node"><title>Node23</title>
<a xlink:href="../../d5/d34/GeneralParameters_8h.html" target="_top" xlink:title="blond/input_parameters\l/GeneralParameters.h">
<polygon fill="white" stroke="black" points="351,-175 351,-209 469,-209 469,-175 351,-175"/>
<text text-anchor="start" x="359" y="-196" font-family="Helvetica,sans-Serif" font-size="10.00">blond/input_parameters</text>
<text text-anchor="middle" x="410" y="-183" font-family="Helvetica,sans-Serif" font-size="10.00">/GeneralParameters.h</text>
</a>
</g>
<!-- Node2&#45;&gt;Node23 -->
<g id="edge74" class="edge"><title>Node2&#45;&gt;Node23</title>
<path fill="none" stroke="midnightblue" d="M668.243,-558.538C568.18,-553.912 381.229,-541.769 321,-514 280.163,-495.172 247,-489.968 247,-445 247,-445 247,-445 247,-329 247,-291.157 241.089,-274.487 266,-246 285.176,-224.072 314.161,-211.026 341.112,-203.275"/>
<polygon fill="midnightblue" stroke="midnightblue" points="342.17,-206.615 350.928,-200.652 340.363,-199.852 342.17,-206.615"/>
</g>
<!-- Node24 -->
<g id="node54" class="node"><title>Node24</title>
<a xlink:href="../../d6/db7/RfParameters_8h.html" target="_top" xlink:title="blond/input_parameters\l/RfParameters.h">
<polygon fill="white" stroke="black" points="275,-247 275,-281 393,-281 393,-247 275,-247"/>
<text text-anchor="start" x="283" y="-268" font-family="Helvetica,sans-Serif" font-size="10.00">blond/input_parameters</text>
<text text-anchor="middle" x="334" y="-255" font-family="Helvetica,sans-Serif" font-size="10.00">/RfParameters.h</text>
</a>
</g>
<!-- Node2&#45;&gt;Node24 -->
<g id="edge76" class="edge"><title>Node2&#45;&gt;Node24</title>
<path fill="none" stroke="midnightblue" d="M668.148,-557.604C544.451,-549.344 287,-522.806 287,-445 287,-445 287,-445 287,-387 287,-351.683 304.117,-314.197 317.692,-290.022"/>
<polygon fill="midnightblue" stroke="midnightblue" points="320.859,-291.538 322.862,-281.134 314.808,-288.018 320.859,-291.538"/>
</g>
<!-- Node25 -->
<g id="node58" class="node"><title>Node25</title>
<a xlink:href="../../dc/df2/Slices_8h.html" target="_top" xlink:title="blond/beams/Slices.h">
<polygon fill="white" stroke="black" points="639,-318.5 639,-339.5 749,-339.5 749,-318.5 639,-318.5"/>
<text text-anchor="middle" x="694" y="-326.5" font-family="Helvetica,sans-Serif" font-size="10.00">blond/beams/Slices.h</text>
</a>
</g>
<!-- Node2&#45;&gt;Node25 -->
<g id="edge66" class="edge"><title>Node2&#45;&gt;Node25</title>
<path fill="none" stroke="midnightblue" d="M731.223,-550.429C725.208,-514.648 705.542,-397.663 697.488,-349.748"/>
<polygon fill="midnightblue" stroke="midnightblue" points="700.897,-348.915 695.788,-339.634 693.994,-350.075 700.897,-348.915"/>
</g>
<!-- Node27 -->
<g id="node66" class="node"><title>Node27</title>
<a xlink:href="../../d3/d33/PhaseLoop_8h.html" target="_top" xlink:title="blond/llrf/PhaseLoop.h">
<polygon fill="white" stroke="black" points="569.5,-492.5 569.5,-513.5 682.5,-513.5 682.5,-492.5 569.5,-492.5"/>
<text text-anchor="middle" x="626" y="-500.5" font-family="Helvetica,sans-Serif" font-size="10.00">blond/llrf/PhaseLoop.h</text>
</a>
</g>
<!-- Node2&#45;&gt;Node27 -->
<g id="edge78" class="edge"><title>Node2&#45;&gt;Node27</title>
<path fill="none" stroke="midnightblue" d="M713.375,-550.362C696.859,-541.409 673.026,-528.491 654.422,-518.406"/>
<polygon fill="midnightblue" stroke="midnightblue" points="655.96,-515.259 645.501,-513.571 652.625,-521.413 655.96,-515.259"/>
</g>
<!-- Node29 -->
<g id="node75" class="node"><title>Node29</title>
<a xlink:href="../../d4/dba/LHCNoiseFB_8h.html" target="_top" xlink:title="blond/llrf/LHCNoiseFB.h">
<polygon fill="white" stroke="black" points="833.5,-434.5 833.5,-455.5 956.5,-455.5 956.5,-434.5 833.5,-434.5"/>
<text text-anchor="middle" x="895" y="-442.5" font-family="Helvetica,sans-Serif" font-size="10.00">blond/llrf/LHCNoiseFB.h</text>
</a>
</g>
<!-- Node2&#45;&gt;Node29 -->
<g id="edge110" class="edge"><title>Node2&#45;&gt;Node29</title>
<path fill="none" stroke="midnightblue" d="M736.228,-550.383C741.301,-535.387 752.513,-508.046 771,-492 789.023,-476.356 812.781,-465.676 834.675,-458.503"/>
<polygon fill="midnightblue" stroke="midnightblue" points="835.727,-461.842 844.248,-455.545 833.66,-455.154 835.727,-461.842"/>
</g>
<!-- Node7 -->
<g id="node13" class="node"><title>Node7</title>
<polygon fill="white" stroke="#bfbfbf" points="826.5,-0.5 826.5,-21.5 879.5,-21.5 879.5,-0.5 826.5,-0.5"/>
<text text-anchor="middle" x="853" y="-8.5" font-family="Helvetica,sans-Serif" font-size="10.00">complex</text>
</g>
<!-- Node6&#45;&gt;Node7 -->
<g id="edge12" class="edge"><title>Node6&#45;&gt;Node7</title>
<path fill="none" stroke="midnightblue" d="M853,-58.3619C853,-50.9219 853,-40.7427 853,-31.7276"/>
<polygon fill="midnightblue" stroke="midnightblue" points="856.5,-31.5706 853,-21.5707 849.5,-31.5707 856.5,-31.5706"/>
</g>
<!-- Node8 -->
<g id="node15" class="node"><title>Node8</title>
<polygon fill="white" stroke="#bfbfbf" points="0,-0.5 0,-21.5 44,-21.5 44,-0.5 0,-0.5"/>
<text text-anchor="middle" x="22" y="-8.5" font-family="Helvetica,sans-Serif" font-size="10.00">vector</text>
</g>
<!-- Node6&#45;&gt;Node8 -->
<g id="edge14" class="edge"><title>Node6&#45;&gt;Node8</title>
<path fill="none" stroke="midnightblue" d="M799.287,-59.0822C796.489,-58.6871 793.714,-58.3226 791,-58 506.57,-24.1891 159.893,-14.0564 54.1367,-11.6468"/>
<polygon fill="midnightblue" stroke="midnightblue" points="54.1802,-8.14705 44.1053,-11.4253 54.0256,-15.1453 54.1802,-8.14705"/>
</g>
<!-- Node9&#45;&gt;Node6 -->
<g id="edge40" class="edge"><title>Node9&#45;&gt;Node6</title>
<path fill="none" stroke="midnightblue" d="M545.109,-118.576C549.788,-117.677 554.494,-116.8 559,-116 658.629,-98.3159 686.404,-97.1705 789.376,-80.2432"/>
<polygon fill="midnightblue" stroke="midnightblue" points="789.949,-83.696 799.244,-78.6108 788.807,-76.7899 789.949,-83.696"/>
</g>
<!-- Node9&#45;&gt;Node8 -->
<g id="edge36" class="edge"><title>Node9&#45;&gt;Node8</title>
<path fill="none" stroke="midnightblue" d="M462.727,-125.444C355.262,-121.027 72.8966,-106.955 41,-80 27.1778,-68.3191 22.9334,-47.595 21.8426,-31.8986"/>
<polygon fill="midnightblue" stroke="midnightblue" points="25.33,-31.4428 21.5138,-21.5591 18.3335,-31.6653 25.33,-31.4428"/>
</g>
<!-- Node10 -->
<g id="node19" class="node"><title>Node10</title>
<polygon fill="white" stroke="#bfbfbf" points="482,-58.5 482,-79.5 528,-79.5 528,-58.5 482,-58.5"/>
<text text-anchor="middle" x="505" y="-66.5" font-family="Helvetica,sans-Serif" font-size="10.00">chrono</text>
</g>
<!-- Node9&#45;&gt;Node10 -->
<g id="edge18" class="edge"><title>Node9&#45;&gt;Node10</title>
<path fill="none" stroke="midnightblue" d="M504.183,-116.362C504.312,-108.922 504.487,-98.7427 504.643,-89.7276"/>
<polygon fill="midnightblue" stroke="midnightblue" points="508.145,-89.6295 504.818,-79.5707 501.146,-89.5088 508.145,-89.6295"/>
</g>
<!-- Node11 -->
<g id="node21" class="node"><title>Node11</title>
<polygon fill="white" stroke="#bfbfbf" points="545.5,-58.5 545.5,-79.5 588.5,-79.5 588.5,-58.5 545.5,-58.5"/>
<text text-anchor="middle" x="567" y="-66.5" font-family="Helvetica,sans-Serif" font-size="10.00">cstdio</text>
</g>
<!-- Node9&#45;&gt;Node11 -->
<g id="edge20" class="edge"><title>Node9&#45;&gt;Node11</title>
<path fill="none" stroke="midnightblue" d="M515.555,-116.362C524.613,-108.023 537.41,-96.2418 547.974,-86.5162"/>
<polygon fill="midnightblue" stroke="midnightblue" points="550.532,-88.9187 555.518,-79.5707 545.79,-83.7688 550.532,-88.9187"/>
</g>
<!-- Node12 -->
<g id="node23" class="node"><title>Node12</title>
<polygon fill="white" stroke="#bfbfbf" points="605.5,-58.5 605.5,-79.5 650.5,-79.5 650.5,-58.5 605.5,-58.5"/>
<text text-anchor="middle" x="628" y="-66.5" font-family="Helvetica,sans-Serif" font-size="10.00">cstdlib</text>
</g>
<!-- Node9&#45;&gt;Node12 -->
<g id="edge22" class="edge"><title>Node9&#45;&gt;Node12</title>
<path fill="none" stroke="midnightblue" d="M526.455,-116.497C545.91,-107.397 574.28,-94.1273 596.091,-83.9253"/>
<polygon fill="midnightblue" stroke="midnightblue" points="597.717,-87.0285 605.293,-79.6212 594.752,-80.6878 597.717,-87.0285"/>
</g>
<!-- Node13 -->
<g id="node25" class="node"><title>Node13</title>
<polygon fill="white" stroke="#bfbfbf" points="668,-58.5 668,-79.5 718,-79.5 718,-58.5 668,-58.5"/>
<text text-anchor="middle" x="693" y="-66.5" font-family="Helvetica,sans-Serif" font-size="10.00">fstream</text>
</g>
<!-- Node9&#45;&gt;Node13 -->
<g id="edge24" class="edge"><title>Node9&#45;&gt;Node13</title>
<path fill="none" stroke="midnightblue" d="M539.455,-116.452C568.881,-107.653 612.064,-94.636 658.193,-80.2199"/>
<polygon fill="midnightblue" stroke="midnightblue" points="659.269,-83.5507 667.766,-77.2214 657.177,-76.8707 659.269,-83.5507"/>
</g>
<!-- Node9&#45;&gt;Node14 -->
<g id="edge26" class="edge"><title>Node9&#45;&gt;Node14</title>
<path fill="none" stroke="midnightblue" d="M545.207,-122.929C619.327,-115.463 780.002,-98.6275 915,-80 925.023,-78.6169 935.849,-76.9465 945.852,-75.3298"/>
<polygon fill="midnightblue" stroke="midnightblue" points="946.609,-78.7524 955.91,-73.6787 945.475,-71.8449 946.609,-78.7524"/>
</g>
<!-- Node15 -->
<g id="node29" class="node"><title>Node15</title>
<polygon fill="white" stroke="#bfbfbf" points="735.5,-58.5 735.5,-79.5 782.5,-79.5 782.5,-58.5 735.5,-58.5"/>
<text text-anchor="middle" x="759" y="-66.5" font-family="Helvetica,sans-Serif" font-size="10.00">iterator</text>
</g>
<!-- Node9&#45;&gt;Node15 -->
<g id="edge28" class="edge"><title>Node9&#45;&gt;Node15</title>
<path fill="none" stroke="midnightblue" d="M545.269,-118.589C598.785,-107.644 688.862,-89.0741 725.203,-80.1356"/>
<polygon fill="midnightblue" stroke="midnightblue" points="726.54,-83.4042 735.336,-77.4985 724.777,-76.6299 726.54,-83.4042"/>
</g>
<!-- Node16 -->
<g id="node31" class="node"><title>Node16</title>
<polygon fill="white" stroke="#bfbfbf" points="50,-58.5 50,-79.5 102,-79.5 102,-58.5 50,-58.5"/>
<text text-anchor="middle" x="76" y="-66.5" font-family="Helvetica,sans-Serif" font-size="10.00">memory</text>
</g>
<!-- Node9&#45;&gt;Node16 -->
<g id="edge30" class="edge"><title>Node9&#45;&gt;Node16</title>
<path fill="none" stroke="midnightblue" d="M462.853,-124.599C392.614,-119.956 245.068,-107.837 112.181,-79.9428"/>
<polygon fill="midnightblue" stroke="midnightblue" points="112.744,-76.4842 102.233,-77.8189 111.282,-83.3299 112.744,-76.4842"/>
</g>
<!-- Node17 -->
<g id="node33" class="node"><title>Node17</title>
<polygon fill="white" stroke="#bfbfbf" points="120,-58.5 120,-79.5 172,-79.5 172,-58.5 120,-58.5"/>
<text text-anchor="middle" x="146" y="-66.5" font-family="Helvetica,sans-Serif" font-size="10.00">sstream</text>
</g>
<!-- Node9&#45;&gt;Node17 -->
<g id="edge32" class="edge"><title>Node9&#45;&gt;Node17</title>
<path fill="none" stroke="midnightblue" d="M462.822,-123.141C402.925,-117.064 288.209,-103.677 182.155,-79.9936"/>
<polygon fill="midnightblue" stroke="midnightblue" points="182.776,-76.5457 172.25,-77.7454 181.227,-83.3721 182.776,-76.5457"/>
</g>
<!-- Node9&#45;&gt;Node18 -->
<g id="edge34" class="edge"><title>Node9&#45;&gt;Node18</title>
<path fill="none" stroke="midnightblue" d="M545.322,-125.316C633.079,-121.284 844.323,-109.154 1019,-80 1023.59,-79.2346 1028.4,-78.2539 1033.09,-77.1941"/>
<polygon fill="midnightblue" stroke="midnightblue" points="1034.16,-80.5368 1043.07,-74.801 1032.53,-73.7299 1034.16,-80.5368"/>
</g>
<!-- Node19 -->
<g id="node38" class="node"><title>Node19</title>
<polygon fill="white" stroke="#bfbfbf" points="190,-58.5 190,-79.5 250,-79.5 250,-58.5 190,-58.5"/>
<text text-anchor="middle" x="220" y="-66.5" font-family="Helvetica,sans-Serif" font-size="10.00">sys/stat.h</text>
</g>
<!-- Node9&#45;&gt;Node19 -->
<g id="edge38" class="edge"><title>Node9&#45;&gt;Node19</title>
<path fill="none" stroke="midnightblue" d="M462.59,-120.167C415.695,-112.184 336.824,-98.0182 260.009,-80.1025"/>
<polygon fill="midnightblue" stroke="midnightblue" points="260.704,-76.6703 250.167,-77.7834 259.098,-83.4837 260.704,-76.6703"/>
</g>
<!-- Node20 -->
<g id="node41" class="node"><title>Node20</title>
<polygon fill="white" stroke="#bfbfbf" points="267.5,-58.5 267.5,-79.5 342.5,-79.5 342.5,-58.5 267.5,-58.5"/>
<text text-anchor="middle" x="305" y="-66.5" font-family="Helvetica,sans-Serif" font-size="10.00">mm_malloc.h</text>
</g>
<!-- Node9&#45;&gt;Node20 -->
<g id="edge42" class="edge"><title>Node9&#45;&gt;Node20</title>
<path fill="none" stroke="midnightblue" d="M467.963,-116.497C435.099,-106.918 386.383,-92.7196 350.776,-82.3418"/>
<polygon fill="midnightblue" stroke="midnightblue" points="351.685,-78.9611 341.105,-79.5231 349.726,-85.6815 351.685,-78.9611"/>
</g>
<!-- Node21 -->
<g id="node43" class="node"><title>Node21</title>
<a xlink:href="../../da/d69/optionparser_8h.html" target="_top" xlink:title="This is the only file required to use The Lean Mean C++ Option Parser. Just #include it and you&#39;re se...">
<polygon fill="white" stroke="black" points="360,-58.5 360,-79.5 464,-79.5 464,-58.5 360,-58.5"/>
<text text-anchor="middle" x="412" y="-66.5" font-family="Helvetica,sans-Serif" font-size="10.00">blond/optionparser.h</text>
</a>
</g>
<!-- Node9&#45;&gt;Node21 -->
<g id="edge44" class="edge"><title>Node9&#45;&gt;Node21</title>
<path fill="none" stroke="midnightblue" d="M487.126,-116.362C473.249,-107.614 453.366,-95.0786 437.54,-85.1015"/>
<polygon fill="midnightblue" stroke="midnightblue" points="439.093,-81.943 428.767,-79.5707 435.36,-87.8645 439.093,-81.943"/>
</g>
<!-- Node22&#45;&gt;Node6 -->
<g id="edge48" class="edge"><title>Node22&#45;&gt;Node6</title>
<path fill="none" stroke="midnightblue" d="M424.792,-318.338C470.663,-285.546 615.177,-184.283 744,-116 767.211,-103.697 794.334,-91.9924 815.717,-83.3412"/>
<polygon fill="midnightblue" stroke="midnightblue" points="817.116,-86.5512 825.103,-79.5899 814.518,-80.0511 817.116,-86.5512"/>
</g>
<!-- Node22&#45;&gt;Node9 -->
<g id="edge50" class="edge"><title>Node22&#45;&gt;Node9</title>
<path fill="none" stroke="midnightblue" d="M417.2,-318.258C430.616,-297.875 459.732,-251.875 478,-210 486.965,-189.45 494.277,-164.818 498.837,-147.751"/>
<polygon fill="midnightblue" stroke="midnightblue" points="502.309,-148.305 501.427,-137.747 495.533,-146.551 502.309,-148.305"/>
</g>
<!-- Node22&#45;&gt;Node23 -->
<g id="edge52" class="edge"><title>Node22&#45;&gt;Node23</title>
<path fill="none" stroke="midnightblue" d="M410,-318.25C410,-297.239 410,-250.131 410,-219.776"/>
<polygon fill="midnightblue" stroke="midnightblue" points="413.5,-219.429 410,-209.429 406.5,-219.429 413.5,-219.429"/>
</g>
<!-- Node22&#45;&gt;Node24 -->
<g id="edge60" class="edge"><title>Node22&#45;&gt;Node24</title>
<path fill="none" stroke="midnightblue" d="M392.284,-318.267C381.255,-310.063 367.201,-298.436 355.574,-288.047"/>
<polygon fill="midnightblue" stroke="midnightblue" points="357.723,-285.27 347.979,-281.11 353.002,-290.438 357.723,-285.27"/>
</g>
<!-- Node23&#45;&gt;Node6 -->
<g id="edge54" class="edge"><title>Node23&#45;&gt;Node6</title>
<path fill="none" stroke="midnightblue" d="M459.546,-175C487.58,-164.989 523.103,-151.644 554,-138 573.638,-129.328 576.672,-122.9 597,-116 601.585,-114.444 714.836,-93.8941 789.155,-80.4877"/>
<polygon fill="midnightblue" stroke="midnightblue" points="790.147,-83.8652 799.368,-78.6462 788.905,-76.9763 790.147,-83.8652"/>
</g>
<!-- Node23&#45;&gt;Node8 -->
<g id="edge58" class="edge"><title>Node23&#45;&gt;Node8</title>
<path fill="none" stroke="midnightblue" d="M350.871,-183.408C252.997,-167.862 64.0936,-131.8 24,-80 13.4934,-66.4256 14.1178,-46.4407 16.7064,-31.4683"/>
<polygon fill="midnightblue" stroke="midnightblue" points="20.145,-32.1253 18.8075,-21.6152 13.2989,-30.6654 20.145,-32.1253"/>
</g>
<!-- Node23&#45;&gt;Node9 -->
<g id="edge56" class="edge"><title>Node23&#45;&gt;Node9</title>
<path fill="none" stroke="midnightblue" d="M434.697,-174.922C448.709,-165.233 466.162,-153.165 480.048,-143.562"/>
<polygon fill="midnightblue" stroke="midnightblue" points="482.352,-146.225 488.586,-137.658 478.371,-140.467 482.352,-146.225"/>
</g>
<!-- Node24&#45;&gt;Node22 -->
<g id="edge62" class="edge"><title>Node24&#45;&gt;Node22</title>
<path fill="none" stroke="midnightblue" d="M360.032,-281.11C371.841,-290.403 385.28,-301.879 395.354,-311.267"/>
<polygon fill="midnightblue" stroke="midnightblue" points="392.987,-313.847 402.616,-318.267 397.845,-308.807 392.987,-313.847"/>
</g>
<!-- Node24&#45;&gt;Node23 -->
<g id="edge64" class="edge"><title>Node24&#45;&gt;Node23</title>
<path fill="none" stroke="midnightblue" d="M352.011,-246.937C361.689,-237.768 373.786,-226.308 384.423,-216.231"/>
<polygon fill="midnightblue" stroke="midnightblue" points="387.003,-218.608 391.855,-209.19 382.188,-213.527 387.003,-218.608"/>
</g>
<!-- Node25&#45;&gt;Node6 -->
<g id="edge68" class="edge"><title>Node25&#45;&gt;Node6</title>
<path fill="none" stroke="midnightblue" d="M701.017,-318.182C706.784,-308.896 714.82,-294.993 720,-282 748.225,-211.206 715.584,-175.666 763,-116 774.551,-101.464 791.833,-90.9336 808.173,-83.5728"/>
<polygon fill="midnightblue" stroke="midnightblue" points="809.771,-86.698 817.636,-79.5988 807.06,-80.2441 809.771,-86.698"/>
</g>
<!-- Node25&#45;&gt;Node9 -->
<g id="edge70" class="edge"><title>Node25&#45;&gt;Node9</title>
<path fill="none" stroke="midnightblue" d="M687.603,-318.474C668.638,-287.483 612.454,-197.285 587,-174 572.701,-160.919 554.129,-149.976 538.18,-141.949"/>
<polygon fill="midnightblue" stroke="midnightblue" points="539.669,-138.782 529.145,-137.566 536.614,-145.08 539.669,-138.782"/>
</g>
<!-- Node26 -->
<g id="node62" class="node"><title>Node26</title>
<polygon fill="white" stroke="#bfbfbf" points="676.5,-253.5 676.5,-274.5 711.5,-274.5 711.5,-253.5 676.5,-253.5"/>
<text text-anchor="middle" x="694" y="-261.5" font-family="Helvetica,sans-Serif" font-size="10.00">map</text>
</g>
<!-- Node25&#45;&gt;Node26 -->
<g id="edge72" class="edge"><title>Node25&#45;&gt;Node26</title>
<path fill="none" stroke="midnightblue" d="M694,-318.267C694,-309.18 694,-295.892 694,-284.74"/>
<polygon fill="midnightblue" stroke="midnightblue" points="697.5,-284.534 694,-274.534 690.5,-284.534 697.5,-284.534"/>
</g>
<!-- Node27&#45;&gt;Node6 -->
<g id="edge80" class="edge"><title>Node27&#45;&gt;Node6</title>
<path fill="none" stroke="midnightblue" d="M644.272,-492.465C658.473,-483.762 678.181,-470.516 693,-456 738.659,-411.274 750.131,-397.519 778,-340 820.574,-252.132 842.403,-136.144 849.916,-89.6105"/>
<polygon fill="midnightblue" stroke="midnightblue" points="853.399,-89.992 851.486,-79.5713 846.483,-88.9105 853.399,-89.992"/>
</g>
<!-- Node27&#45;&gt;Node9 -->
<g id="edge108" class="edge"><title>Node27&#45;&gt;Node9</title>
<path fill="none" stroke="midnightblue" d="M603.156,-492.469C588.073,-484.44 568.957,-472.035 557,-456 537.759,-430.197 535,-419.188 535,-387 535,-387 535,-387 535,-264 535,-221.777 520.819,-173.999 511.64,-147.495"/>
<polygon fill="midnightblue" stroke="midnightblue" points="514.844,-146.059 508.181,-137.821 508.252,-148.416 514.844,-146.059"/>
</g>
<!-- Node28 -->
<g id="node69" class="node"><title>Node28</title>
<a xlink:href="../../d5/d87/globals_8h.html" target="_top" xlink:title="blond/globals.h">
<polygon fill="white" stroke="black" points="425,-376.5 425,-397.5 507,-397.5 507,-376.5 425,-376.5"/>
<text text-anchor="middle" x="466" y="-384.5" font-family="Helvetica,sans-Serif" font-size="10.00">blond/globals.h</text>
</a>
</g>
<!-- Node27&#45;&gt;Node28 -->
<g id="edge82" class="edge"><title>Node27&#45;&gt;Node28</title>
<path fill="none" stroke="midnightblue" d="M592.085,-492.496C570.345,-484.684 542.311,-472.517 521,-456 503.152,-442.167 487.622,-421.387 477.659,-406.247"/>
<polygon fill="midnightblue" stroke="midnightblue" points="480.521,-404.224 472.204,-397.661 474.613,-407.978 480.521,-404.224"/>
</g>
<!-- Node27&#45;&gt;Node29 -->
<g id="edge92" class="edge"><title>Node27&#45;&gt;Node29</title>
<path fill="none" stroke="midnightblue" d="M674.714,-492.497C720.087,-482.714 787.814,-468.111 836.182,-457.682"/>
<polygon fill="midnightblue" stroke="midnightblue" points="837.157,-461.052 846.195,-455.523 835.682,-454.209 837.157,-461.052"/>
</g>
<!-- Node31 -->
<g id="node81" class="node"><title>Node31</title>
<a xlink:href="../../d9/dc8/PhaseNoise_8h.html" target="_top" xlink:title="blond/llrf/PhaseNoise.h">
<polygon fill="white" stroke="black" points="566,-434.5 566,-455.5 684,-455.5 684,-434.5 566,-434.5"/>
<text text-anchor="middle" x="625" y="-442.5" font-family="Helvetica,sans-Serif" font-size="10.00">blond/llrf/PhaseNoise.h</text>
</a>
</g>
<!-- Node27&#45;&gt;Node31 -->
<g id="edge100" class="edge"><title>Node27&#45;&gt;Node31</title>
<path fill="none" stroke="midnightblue" d="M625.817,-492.362C625.688,-484.922 625.513,-474.743 625.357,-465.728"/>
<polygon fill="midnightblue" stroke="midnightblue" points="628.854,-465.509 625.182,-455.571 621.855,-465.63 628.854,-465.509"/>
</g>
<!-- Node28&#45;&gt;Node22 -->
<g id="edge84" class="edge"><title>Node28&#45;&gt;Node22</title>
<path fill="none" stroke="midnightblue" d="M455.729,-376.362C447.756,-368.104 436.525,-356.472 427.189,-346.803"/>
<polygon fill="midnightblue" stroke="midnightblue" points="429.67,-344.334 420.206,-339.571 424.634,-349.196 429.67,-344.334"/>
</g>
<!-- Node28&#45;&gt;Node23 -->
<g id="edge88" class="edge"><title>Node28&#45;&gt;Node23</title>
<path fill="none" stroke="midnightblue" d="M470.13,-376.118C474.75,-362.415 480.974,-338.216 476,-318 466.804,-280.626 444.342,-242.056 428.175,-217.6"/>
<polygon fill="midnightblue" stroke="midnightblue" points="431.038,-215.585 422.54,-209.257 425.237,-219.503 431.038,-215.585"/>
</g>
<!-- Node28&#45;&gt;Node24 -->
<g id="edge90" class="edge"><title>Node28&#45;&gt;Node24</title>
<path fill="none" stroke="midnightblue" d="M424.779,-381.996C397.56,-376.431 363.446,-364.7 344,-340 333.365,-326.492 330.917,-307.263 331.101,-291.527"/>
<polygon fill="midnightblue" stroke="midnightblue" points="334.608,-291.458 331.581,-281.304 327.616,-291.129 334.608,-291.458"/>
</g>
<!-- Node28&#45;&gt;Node25 -->
<g id="edge86" class="edge"><title>Node28&#45;&gt;Node25</title>
<path fill="none" stroke="midnightblue" d="M507.025,-376.564C545.045,-366.892 601.747,-352.468 642.736,-342.041"/>
<polygon fill="midnightblue" stroke="midnightblue" points="643.706,-345.406 652.535,-339.548 641.981,-338.622 643.706,-345.406"/>
</g>
<!-- Node29&#45;&gt;Node6 -->
<g id="edge94" class="edge"><title>Node29&#45;&gt;Node6</title>
<path fill="none" stroke="midnightblue" d="M894.392,-434.448C893.273,-414.073 891,-367.891 891,-329 891,-329 891,-329 891,-192 891,-154.061 874.292,-112.355 863.034,-88.5581"/>
<polygon fill="midnightblue" stroke="midnightblue" points="866.149,-86.9608 858.607,-79.5194 859.862,-90.0397 866.149,-86.9608"/>
</g>
<!-- Node29&#45;&gt;Node9 -->
<g id="edge96" class="edge"><title>Node29&#45;&gt;Node9</title>
<path fill="none" stroke="midnightblue" d="M886.693,-434.186C869.468,-411.916 828.344,-359.538 791,-318 723.429,-242.841 703.656,-222.526 615,-174 591.917,-161.366 564.73,-149.804 543.04,-141.309"/>
<polygon fill="midnightblue" stroke="midnightblue" points="544.085,-137.961 533.496,-137.629 541.567,-144.492 544.085,-137.961"/>
</g>
<!-- Node30 -->
<g id="node79" class="node"><title>Node30</title>
<polygon fill="white" stroke="#bfbfbf" points="918.5,-376.5 918.5,-397.5 977.5,-397.5 977.5,-376.5 918.5,-376.5"/>
<text text-anchor="middle" x="948" y="-384.5" font-family="Helvetica,sans-Serif" font-size="10.00">functional</text>
</g>
<!-- Node29&#45;&gt;Node30 -->
<g id="edge98" class="edge"><title>Node29&#45;&gt;Node30</title>
<path fill="none" stroke="midnightblue" d="M904.721,-434.362C912.192,-426.186 922.686,-414.702 931.469,-405.091"/>
<polygon fill="midnightblue" stroke="midnightblue" points="934.179,-407.314 938.341,-397.571 929.011,-402.592 934.179,-407.314"/>
</g>
<!-- Node31&#45;&gt;Node6 -->
<g id="edge102" class="edge"><title>Node31&#45;&gt;Node6</title>
<path fill="none" stroke="midnightblue" d="M645.606,-434.491C675.181,-418.317 729.258,-384.475 758,-340 776.898,-310.758 777,-298.817 777,-264 777,-264 777,-264 777,-192 777,-149.337 810.499,-109.107 833.016,-86.8847"/>
<polygon fill="midnightblue" stroke="midnightblue" points="835.625,-89.2333 840.45,-79.8008 830.796,-84.1657 835.625,-89.2333"/>
</g>
<!-- Node31&#45;&gt;Node9 -->
<g id="edge106" class="edge"><title>Node31&#45;&gt;Node9</title>
<path fill="none" stroke="midnightblue" d="M616.413,-434.206C601.644,-414.519 573,-370.933 573,-329 573,-329 573,-329 573,-264 573,-222.602 569.286,-210.087 549,-174 542.812,-162.992 533.448,-152.637 524.862,-144.462"/>
<polygon fill="midnightblue" stroke="midnightblue" points="527.067,-141.737 517.308,-137.612 522.365,-146.923 527.067,-141.737"/>
</g>
<!-- Node31&#45;&gt;Node28 -->
<g id="edge104" class="edge"><title>Node31&#45;&gt;Node28</title>
<path fill="none" stroke="midnightblue" d="M596.206,-434.497C570.509,-425.123 532.682,-411.324 504.413,-401.012"/>
<polygon fill="midnightblue" stroke="midnightblue" points="505.442,-397.662 494.848,-397.523 503.043,-404.238 505.442,-397.662"/>
</g>
</g>
</svg>
        <g id="navigator" transform="translate(0 0)" fill="#404254">
                <rect fill="#f2f5e9" fill-opacity="0.5" stroke="#606060" stroke-width=".5" x="0" y="0" width="60" height="60"/>
                <use id="zoomplus" xlink:href="#zoomPlus" x="17" y="9" onmousedown="handleZoom(evt,'in')"/>
                <use id="zoomminus" xlink:href="#zoomMin" x="42" y="9" onmousedown="handleZoom(evt,'out')"/>
                <use id="reset" xlink:href="#resetDef" x="30" y="36" onmousedown="handleReset()"/>
                <g id="arrowUp" xlink:href="#dirArrow" transform="translate(30 24)" onmousedown="handlePan(0,-1)">
                  <use xlink:href="#rim" fill="#404040">
                        <set attributeName="fill" to="#808080" begin="arrowUp.mouseover" end="arrowUp.mouseout"/>
                  </use>
                  <path fill="none" stroke="white" stroke-width="1.5" d="M0,-3.0v7 M-2.5,-0.5L0,-3.0L2.5,-0.5"/>
                </g>
                <g id="arrowRight" xlink:href="#dirArrow" transform="rotate(90) translate(36 -43)" onmousedown="handlePan(1,0)">
                  <use xlink:href="#rim" fill="#404040">
                        <set attributeName="fill" to="#808080" begin="arrowRight.mouseover" end="arrowRight.mouseout"/>
                  </use>
                  <path fill="none" stroke="white" stroke-width="1.5" d="M0,-3.0v7 M-2.5,-0.5L0,-3.0L2.5,-0.5"/>
                </g>
                <g id="arrowDown" xlink:href="#dirArrow" transform="rotate(180) translate(-30 -48)" onmousedown="handlePan(0,1)">
                  <use xlink:href="#rim" fill="#404040">
                        <set attributeName="fill" to="#808080" begin="arrowDown.mouseover" end="arrowDown.mouseout"/>
                  </use>
                  <path fill="none" stroke="white" stroke-width="1.5" d="M0,-3.0v7 M-2.5,-0.5L0,-3.0L2.5,-0.5"/>
                </g>
                <g id="arrowLeft" xlink:href="#dirArrow" transform="rotate(270) translate(-36 17)" onmousedown="handlePan(-1,0)">
                  <use xlink:href="#rim" fill="#404040">
                        <set attributeName="fill" to="#808080" begin="arrowLeft.mouseover" end="arrowLeft.mouseout"/>
                  </use>
                  <path fill="none" stroke="white" stroke-width="1.5" d="M0,-3.0v7 M-2.5,-0.5L0,-3.0L2.5,-0.5"/>
                </g>
        </g>
        <svg viewBox="0 0 15 15" width="100%" height="30px" preserveAspectRatio="xMaxYMin meet">
         <g id="arrow_out" transform="scale(0.3 0.3)">
          <a xlink:href="Monitors_8cpp__incl_org.svg" target="_base">
           <rect id="button" ry="5" rx="5" y="6" x="6" height="38" width="38"
                fill="#f2f5e9" fill-opacity="0.5" stroke="#606060" stroke-width="1.0"/>
           <path id="arrow"
             d="M 11.500037,31.436501 C 11.940474,20.09759 22.043105,11.32322 32.158766,21.979434 L 37.068811,17.246167 C 37.068811,17.246167 37.088388,32 37.088388,32 L 22.160133,31.978069 C 22.160133,31.978069 26.997745,27.140456 26.997745,27.140456 C 18.528582,18.264221 13.291696,25.230495 11.500037,31.436501 z"
             style="fill:#404040;"/>
          </a>
         </g>
        </svg>
</svg>
