<?xml version="1.0" encoding="UTF-8" standalone="no"?>
<!DOCTYPE svg PUBLIC "-//W3C//DTD SVG 1.1//EN"
 "http://www.w3.org/Graphics/SVG/1.1/DTD/svg11.dtd">
<!-- Generated by graphviz version 2.26.3 (20100126.1600)
 -->
<!-- Title: Monitors.cpp Pages: 1 -->
<!--zoomable 696 -->
<svg id="main" version="1.1" xmlns="http://www.w3.org/2000/svg" xmlns:xlink="http://www.w3.org/1999/xlink" xml:space="preserve" onload="init(evt)">
        <defs>
                <circle id="rim" cx="0" cy="0" r="7"/>
                <circle id="rim2" cx="0" cy="0" r="3.5"/>
                <g id="zoomPlus">
                        <use xlink:href="#rim" fill="#404040">
                                <set attributeName="fill" to="#808080" begin="zoomplus.mouseover" end="zoomplus.mouseout"/>
                        </use>
                        <path d="M-4,0h8M0,-4v8" fill="none" stroke="white" stroke-width="1.5" pointer-events="none"/>
                </g>
                <g id="zoomMin">
                        <use xlink:href="#rim" fill="#404040">
                                <set attributeName="fill" to="#808080" begin="zoomminus.mouseover" end="zoomminus.mouseout"/>
                        </use>
                        <path d="M-4,0h8" fill="none" stroke="white" stroke-width="1.5" pointer-events="none"/>
                </g>
                <g id="dirArrow">
                        <path fill="none" stroke="white" stroke-width="1.5" d="M0,-3.0v7 M-2.5,-0.5L0,-3.0L2.5,-0.5"/>
                </g>
               <g id="resetDef">
                       <use xlink:href="#rim2" fill="#404040">
                               <set attributeName="fill" to="#808080" begin="reset.mouseover" end="reset.mouseout"/>
                       </use>
               </g>
        </defs>

<script type="text/javascript">
var viewWidth = 1729;
var viewHeight = 696;
var sectionId = 'dynsection-0';
</script>
<script xlink:href="../../svgpan.js"/>
<svg id="graph" class="graph">
<g id="viewport">
<title>Monitors.cpp</title>
<polygon fill="white" stroke="white" points="-4,5 -4,-692 1726,-692 1726,5 -4,5"/>
<!-- Node1 -->
<g id="node1" class="node"><title>Node1</title>
<polygon fill="#bfbfbf" stroke="black" points="1299.5,-666.5 1299.5,-687.5 1372.5,-687.5 1372.5,-666.5 1299.5,-666.5"/>
<text text-anchor="middle" x="1336" y="-674.5" font-family="Helvetica,sans-Serif" font-size="10.00">Monitors.cpp</text>
</g>
<!-- Node2 -->
<g id="node3" class="node"><title>Node2</title>
<a xlink:href="../../d0/da6/Monitors_8h.html" target="_top" xlink:title="blond/monitors/Monitors.h">
<polygon fill="white" stroke="black" points="408.5,-608.5 408.5,-629.5 537.5,-629.5 537.5,-608.5 408.5,-608.5"/>
<text text-anchor="middle" x="473" y="-616.5" font-family="Helvetica,sans-Serif" font-size="10.00">blond/monitors/Monitors.h</text>
</a>
</g>
<!-- Node1&#45;&gt;Node2 -->
<g id="edge2" class="edge"><title>Node1&#45;&gt;Node2</title>
<path fill="none" stroke="midnightblue" d="M1299.47,-674.545C1169.18,-665.788 725.599,-635.977 547.703,-624.021"/>
<polygon fill="midnightblue" stroke="midnightblue" points="547.86,-620.523 537.647,-623.345 547.39,-627.508 547.86,-620.523"/>
</g>
<!-- Node14 -->
<g id="node27" class="node"><title>Node14</title>
<polygon fill="white" stroke="#bfbfbf" points="1609,-116.5 1609,-137.5 1663,-137.5 1663,-116.5 1609,-116.5"/>
<text text-anchor="middle" x="1636" y="-124.5" font-family="Helvetica,sans-Serif" font-size="10.00">iostream</text>
</g>
<!-- Node1&#45;&gt;Node14 -->
<g id="edge156" class="edge"><title>Node1&#45;&gt;Node14</title>
<path fill="none" stroke="midnightblue" d="M1347.87,-666.457C1367.85,-647.497 1406,-605.456 1406,-561 1406,-561 1406,-561 1406,-250 1406,-206.803 1533.75,-159.674 1598.83,-138.467"/>
<polygon fill="midnightblue" stroke="midnightblue" points="1600.26,-141.684 1608.71,-135.291 1598.12,-135.02 1600.26,-141.684"/>
</g>
<!-- Node18 -->
<g id="node35" class="node"><title>Node18</title>
<polygon fill="white" stroke="#bfbfbf" points="1680.5,-116.5 1680.5,-137.5 1721.5,-137.5 1721.5,-116.5 1680.5,-116.5"/>
<text text-anchor="middle" x="1701" y="-124.5" font-family="Helvetica,sans-Serif" font-size="10.00">string</text>
</g>
<!-- Node1&#45;&gt;Node18 -->
<g id="edge154" class="edge"><title>Node1&#45;&gt;Node18</title>
<path fill="none" stroke="midnightblue" d="M1372.52,-671.405C1455.08,-657.727 1649,-619.387 1649,-561 1649,-561 1649,-561 1649,-250 1649,-210.498 1672.03,-169.093 1687.44,-145.816"/>
<polygon fill="midnightblue" stroke="midnightblue" points="1690.34,-147.78 1693.1,-137.551 1684.56,-143.824 1690.34,-147.78"/>
</g>
<!-- Node26 -->
<g id="node58" class="node"><title>Node26</title>
<polygon fill="white" stroke="#bfbfbf" points="1271,-174.5 1271,-195.5 1327,-195.5 1327,-174.5 1271,-174.5"/>
<text text-anchor="middle" x="1299" y="-182.5" font-family="Helvetica,sans-Serif" font-size="10.00">algorithm</text>
</g>
<!-- Node1&#45;&gt;Node26 -->
<g id="edge158" class="edge"><title>Node1&#45;&gt;Node26</title>
<path fill="none" stroke="midnightblue" d="M1331.62,-666.333C1323.75,-646.139 1308,-600.777 1308,-561 1308,-561 1308,-561 1308,-322 1308,-280.704 1303.88,-232.557 1301.21,-205.745"/>
<polygon fill="midnightblue" stroke="midnightblue" points="1304.68,-205.233 1300.18,-195.643 1297.72,-205.948 1304.68,-205.233"/>
</g>
<!-- Node3 -->
<g id="node5" class="node"><title>Node3</title>
<polygon fill="white" stroke="#bfbfbf" points="0,-550.5 0,-571.5 56,-571.5 56,-550.5 0,-550.5"/>
<text text-anchor="middle" x="28" y="-558.5" font-family="Helvetica,sans-Serif" font-size="10.00">H5Cpp.h</text>
</g>
<!-- Node2&#45;&gt;Node3 -->
<g id="edge4" class="edge"><title>Node2&#45;&gt;Node3</title>
<path fill="none" stroke="midnightblue" d="M408.5,-615.056C329.664,-609.459 192.178,-597.193 65.9914,-571.922"/>
<polygon fill="midnightblue" stroke="midnightblue" points="66.6504,-568.485 56.1533,-569.921 65.2547,-575.344 66.6504,-568.485"/>
</g>
<!-- Node4 -->
<g id="node7" class="node"><title>Node4</title>
<polygon fill="white" stroke="#bfbfbf" points="74,-550.5 74,-571.5 118,-571.5 118,-550.5 74,-550.5"/>
<text text-anchor="middle" x="96" y="-558.5" font-family="Helvetica,sans-Serif" font-size="10.00">hdf5.h</text>
</g>
<!-- Node2&#45;&gt;Node4 -->
<g id="edge6" class="edge"><title>Node2&#45;&gt;Node4</title>
<path fill="none" stroke="midnightblue" d="M408.494,-614.234C340.631,-608.326 230.749,-596.226 128.095,-571.883"/>
<polygon fill="midnightblue" stroke="midnightblue" points="128.727,-568.435 118.185,-569.489 127.083,-575.24 128.727,-568.435"/>
</g>
<!-- Node5 -->
<g id="node9" class="node"><title>Node5</title>
<polygon fill="white" stroke="#bfbfbf" points="136,-550.5 136,-571.5 192,-571.5 192,-550.5 136,-550.5"/>
<text text-anchor="middle" x="164" y="-558.5" font-family="Helvetica,sans-Serif" font-size="10.00">hdf5_hl.h</text>
</g>
<!-- Node2&#45;&gt;Node5 -->
<g id="edge8" class="edge"><title>Node2&#45;&gt;Node5</title>
<path fill="none" stroke="midnightblue" d="M408.238,-609.123C353.987,-600.486 274.627,-587.001 206,-572 204.757,-571.728 203.496,-571.445 202.224,-571.152"/>
<polygon fill="midnightblue" stroke="midnightblue" points="202.933,-567.723 192.39,-568.772 201.287,-574.526 202.933,-567.723"/>
</g>
<!-- Node6 -->
<g id="node11" class="node"><title>Node6</title>
<a xlink:href="../../d2/d2c/configuration_8h.html" target="_top" xlink:title="blond/configuration.h">
<polygon fill="white" stroke="black" points="351.5,-116.5 351.5,-137.5 458.5,-137.5 458.5,-116.5 351.5,-116.5"/>
<text text-anchor="middle" x="405" y="-124.5" font-family="Helvetica,sans-Serif" font-size="10.00">blond/configuration.h</text>
</a>
</g>
<!-- Node2&#45;&gt;Node6 -->
<g id="edge10" class="edge"><title>Node2&#45;&gt;Node6</title>
<path fill="none" stroke="midnightblue" d="M429.22,-608.483C356.808,-589.799 220,-548.482 220,-503 220,-503 220,-503 220,-250 220,-188.819 291.031,-156.232 345.066,-140.294"/>
<polygon fill="midnightblue" stroke="midnightblue" points="346.263,-143.593 354.936,-137.509 344.362,-136.856 346.263,-143.593"/>
</g>
<!-- Node9 -->
<g id="node17" class="node"><title>Node9</title>
<a xlink:href="../../de/df0/utilities_8h.html" target="_top" xlink:title="blond/utilities.h">
<polygon fill="white" stroke="black" points="1068,-174.5 1068,-195.5 1150,-195.5 1150,-174.5 1068,-174.5"/>
<text text-anchor="middle" x="1109" y="-182.5" font-family="Helvetica,sans-Serif" font-size="10.00">blond/utilities.h</text>
</a>
</g>
<!-- Node2&#45;&gt;Node9 -->
<g id="edge16" class="edge"><title>Node2&#45;&gt;Node9</title>
<path fill="none" stroke="midnightblue" d="M537.84,-614.521C647.193,-606.621 863.633,-589.393 938,-572 1023.04,-552.11 1122,-590.339 1122,-503 1122,-503 1122,-503 1122,-322 1122,-280.608 1116.05,-232.494 1112.2,-205.715"/>
<polygon fill="midnightblue" stroke="midnightblue" points="1115.63,-205.004 1110.7,-195.626 1108.71,-206.031 1115.63,-205.004"/>
</g>
<!-- Node21 -->
<g id="node43" class="node"><title>Node21</title>
<a xlink:href="../../d7/d74/Beams_8h.html" target="_top" xlink:title="blond/beams/Beams.h">
<polygon fill="white" stroke="black" points="362,-492.5 362,-513.5 476,-513.5 476,-492.5 362,-492.5"/>
<text text-anchor="middle" x="419" y="-500.5" font-family="Helvetica,sans-Serif" font-size="10.00">blond/beams/Beams.h</text>
</a>
</g>
<!-- Node2&#45;&gt;Node21 -->
<g id="edge44" class="edge"><title>Node2&#45;&gt;Node21</title>
<path fill="none" stroke="midnightblue" d="M468.017,-608.295C458.975,-588.872 439.742,-547.556 428.239,-522.846"/>
<polygon fill="midnightblue" stroke="midnightblue" points="431.365,-521.268 423.971,-513.679 425.019,-524.222 431.365,-521.268"/>
</g>
<!-- Node23 -->
<g id="node47" class="node"><title>Node23</title>
<a xlink:href="../../d5/d34/GeneralParameters_8h.html" target="_top" xlink:title="blond/input_parameters\l/GeneralParameters.h">
<polygon fill="white" stroke="black" points="474,-233 474,-267 592,-267 592,-233 474,-233"/>
<text text-anchor="start" x="482" y="-254" font-family="Helvetica,sans-Serif" font-size="10.00">blond/input_parameters</text>
<text text-anchor="middle" x="533" y="-241" font-family="Helvetica,sans-Serif" font-size="10.00">/GeneralParameters.h</text>
</a>
</g>
<!-- Node2&#45;&gt;Node23 -->
<g id="edge124" class="edge"><title>Node2&#45;&gt;Node23</title>
<path fill="none" stroke="midnightblue" d="M452.519,-608.463C423.986,-592.48 373.476,-559.124 353,-514 348.96,-505.096 351.459,-501.656 353,-492 360.148,-447.218 412.924,-313.888 422,-304 434.777,-290.079 451.92,-279.342 468.906,-271.247"/>
<polygon fill="midnightblue" stroke="midnightblue" points="470.617,-274.315 478.298,-267.018 467.743,-267.932 470.617,-274.315"/>
</g>
<!-- Node24 -->
<g id="node52" class="node"><title>Node24</title>
<a xlink:href="../../d6/db7/RfParameters_8h.html" target="_top" xlink:title="blond/input_parameters\l/RfParameters.h">
<polygon fill="white" stroke="black" points="452,-305 452,-339 570,-339 570,-305 452,-305"/>
<text text-anchor="start" x="460" y="-326" font-family="Helvetica,sans-Serif" font-size="10.00">blond/input_parameters</text>
<text text-anchor="middle" x="511" y="-313" font-family="Helvetica,sans-Serif" font-size="10.00">/RfParameters.h</text>
</a>
</g>
<!-- Node2&#45;&gt;Node24 -->
<g id="edge126" class="edge"><title>Node2&#45;&gt;Node24</title>
<path fill="none" stroke="midnightblue" d="M477.844,-608.379C486.562,-588.262 504,-543.024 504,-503 504,-503 504,-503 504,-445 504,-412.022 506.539,-374.151 508.559,-349.243"/>
<polygon fill="midnightblue" stroke="midnightblue" points="512.062,-349.353 509.412,-339.095 505.087,-348.767 512.062,-349.353"/>
</g>
<!-- Node37 -->
<g id="node89" class="node"><title>Node37</title>
<a xlink:href="../../dc/df2/Slices_8h.html" target="_top" xlink:title="blond/beams/Slices.h">
<polygon fill="white" stroke="black" points="626,-376.5 626,-397.5 736,-397.5 736,-376.5 626,-376.5"/>
<text text-anchor="middle" x="681" y="-384.5" font-family="Helvetica,sans-Serif" font-size="10.00">blond/beams/Slices.h</text>
</a>
</g>
<!-- Node2&#45;&gt;Node37 -->
<g id="edge122" class="edge"><title>Node2&#45;&gt;Node37</title>
<path fill="none" stroke="midnightblue" d="M537.654,-614.462C597.1,-608.784 678.959,-596.638 699,-572 738.088,-523.947 708.438,-443.944 691.156,-406.921"/>
<polygon fill="midnightblue" stroke="midnightblue" points="694.188,-405.153 686.677,-397.681 687.889,-408.206 694.188,-405.153"/>
</g>
<!-- Node39 -->
<g id="node103" class="node"><title>Node39</title>
<a xlink:href="../../d3/d33/PhaseLoop_8h.html" target="_top" xlink:title="blond/llrf/PhaseLoop.h">
<polygon fill="white" stroke="black" points="577.5,-550.5 577.5,-571.5 690.5,-571.5 690.5,-550.5 577.5,-550.5"/>
<text text-anchor="middle" x="634" y="-558.5" font-family="Helvetica,sans-Serif" font-size="10.00">blond/llrf/PhaseLoop.h</text>
</a>
</g>
<!-- Node2&#45;&gt;Node39 -->
<g id="edge128" class="edge"><title>Node2&#45;&gt;Node39</title>
<path fill="none" stroke="midnightblue" d="M502.156,-608.497C528.176,-599.123 566.479,-585.324 595.104,-575.012"/>
<polygon fill="midnightblue" stroke="midnightblue" points="596.568,-578.205 604.789,-571.523 594.195,-571.62 596.568,-578.205"/>
</g>
<!-- Node40 -->
<g id="node107" class="node"><title>Node40</title>
<a xlink:href="../../d4/dba/LHCNoiseFB_8h.html" target="_top" xlink:title="blond/llrf/LHCNoiseFB.h">
<polygon fill="white" stroke="black" points="921.5,-492.5 921.5,-513.5 1044.5,-513.5 1044.5,-492.5 921.5,-492.5"/>
<text text-anchor="middle" x="983" y="-500.5" font-family="Helvetica,sans-Serif" font-size="10.00">blond/llrf/LHCNoiseFB.h</text>
</a>
</g>
<!-- Node2&#45;&gt;Node40 -->
<g id="edge152" class="edge"><title>Node2&#45;&gt;Node40</title>
<path fill="none" stroke="midnightblue" d="M537.511,-616.956C642.103,-612.827 843.489,-601.251 908,-572 932.974,-560.676 955.198,-537.774 968.848,-521.463"/>
<polygon fill="midnightblue" stroke="midnightblue" points="971.614,-523.609 975.174,-513.63 966.168,-519.21 971.614,-523.609"/>
</g>
<!-- Node7 -->
<g id="node13" class="node"><title>Node7</title>
<polygon fill="white" stroke="#bfbfbf" points="378.5,-58.5 378.5,-79.5 431.5,-79.5 431.5,-58.5 378.5,-58.5"/>
<text text-anchor="middle" x="405" y="-66.5" font-family="Helvetica,sans-Serif" font-size="10.00">complex</text>
</g>
<!-- Node6&#45;&gt;Node7 -->
<g id="edge12" class="edge"><title>Node6&#45;&gt;Node7</title>
<path fill="none" stroke="midnightblue" d="M405,-116.362C405,-108.922 405,-98.7427 405,-89.7276"/>
<polygon fill="midnightblue" stroke="midnightblue" points="408.5,-89.5706 405,-79.5707 401.5,-89.5707 408.5,-89.5706"/>
</g>
<!-- Node8 -->
<g id="node15" class="node"><title>Node8</title>
<polygon fill="white" stroke="#bfbfbf" points="464,-58.5 464,-79.5 508,-79.5 508,-58.5 464,-58.5"/>
<text text-anchor="middle" x="486" y="-66.5" font-family="Helvetica,sans-Serif" font-size="10.00">vector</text>
</g>
<!-- Node6&#45;&gt;Node8 -->
<g id="edge14" class="edge"><title>Node6&#45;&gt;Node8</title>
<path fill="none" stroke="midnightblue" d="M419.857,-116.362C431.846,-107.777 448.927,-95.5459 462.728,-85.6636"/>
<polygon fill="midnightblue" stroke="midnightblue" points="465.145,-88.2383 471.238,-79.5707 461.069,-82.5469 465.145,-88.2383"/>
</g>
<!-- Node9&#45;&gt;Node6 -->
<g id="edge40" class="edge"><title>Node9&#45;&gt;Node6</title>
<path fill="none" stroke="midnightblue" d="M1067.89,-175.46C1064.89,-174.917 1061.9,-174.421 1059,-174 1001.67,-165.678 621.959,-140.871 468.84,-131.059"/>
<polygon fill="midnightblue" stroke="midnightblue" points="468.854,-127.553 458.65,-130.407 468.406,-134.539 468.854,-127.553"/>
</g>
<!-- Node9&#45;&gt;Node8 -->
<g id="edge36" class="edge"><title>Node9&#45;&gt;Node8</title>
<path fill="none" stroke="midnightblue" d="M1067.87,-175.567C1064.88,-174.998 1061.9,-174.468 1059,-174 906.81,-149.399 865.126,-168.465 714,-138 642.539,-123.594 561.391,-96.3136 517.777,-80.7179"/>
<polygon fill="midnightblue" stroke="midnightblue" points="518.885,-77.3968 508.29,-77.2977 516.51,-83.9819 518.885,-77.3968"/>
</g>
<!-- Node10 -->
<g id="node19" class="node"><title>Node10</title>
<polygon fill="white" stroke="#bfbfbf" points="1423,-116.5 1423,-137.5 1469,-137.5 1469,-116.5 1423,-116.5"/>
<text text-anchor="middle" x="1446" y="-124.5" font-family="Helvetica,sans-Serif" font-size="10.00">chrono</text>
</g>
<!-- Node9&#45;&gt;Node10 -->
<g id="edge18" class="edge"><title>Node9&#45;&gt;Node10</title>
<path fill="none" stroke="midnightblue" d="M1150.41,-180.987C1207.59,-174.928 1314.01,-161.8 1412.88,-137.956"/>
<polygon fill="midnightblue" stroke="midnightblue" points="1413.85,-141.321 1422.72,-135.538 1412.18,-134.523 1413.85,-141.321"/>
</g>
<!-- Node11 -->
<g id="node21" class="node"><title>Node11</title>
<polygon fill="white" stroke="#bfbfbf" points="1486.5,-116.5 1486.5,-137.5 1529.5,-137.5 1529.5,-116.5 1486.5,-116.5"/>
<text text-anchor="middle" x="1508" y="-124.5" font-family="Helvetica,sans-Serif" font-size="10.00">cstdio</text>
</g>
<!-- Node9&#45;&gt;Node11 -->
<g id="edge20" class="edge"><title>Node9&#45;&gt;Node11</title>
<path fill="none" stroke="midnightblue" d="M1150.23,-182.777C1217.19,-178.514 1353.7,-167.105 1476.29,-138.03"/>
<polygon fill="midnightblue" stroke="midnightblue" points="1477.32,-141.382 1486.22,-135.629 1475.68,-134.578 1477.32,-141.382"/>
</g>
<!-- Node12 -->
<g id="node23" class="node"><title>Node12</title>
<polygon fill="white" stroke="#bfbfbf" points="1546.5,-116.5 1546.5,-137.5 1591.5,-137.5 1591.5,-116.5 1546.5,-116.5"/>
<text text-anchor="middle" x="1569" y="-124.5" font-family="Helvetica,sans-Serif" font-size="10.00">cstdlib</text>
</g>
<!-- Node9&#45;&gt;Node12 -->
<g id="edge22" class="edge"><title>Node9&#45;&gt;Node12</title>
<path fill="none" stroke="midnightblue" d="M1150.08,-181.723C1239.03,-174.435 1447.96,-156.24 1536.55,-137.852"/>
<polygon fill="midnightblue" stroke="midnightblue" points="1537.48,-141.232 1546.49,-135.667 1535.97,-134.395 1537.48,-141.232"/>
</g>
<!-- Node13 -->
<g id="node25" class="node"><title>Node13</title>
<polygon fill="white" stroke="#bfbfbf" points="951,-116.5 951,-137.5 1001,-137.5 1001,-116.5 951,-116.5"/>
<text text-anchor="middle" x="976" y="-124.5" font-family="Helvetica,sans-Serif" font-size="10.00">fstream</text>
</g>
<!-- Node9&#45;&gt;Node13 -->
<g id="edge24" class="edge"><title>Node9&#45;&gt;Node13</title>
<path fill="none" stroke="midnightblue" d="M1084.91,-174.497C1063.86,-165.315 1033.07,-151.889 1009.6,-141.652"/>
<polygon fill="midnightblue" stroke="midnightblue" points="1010.92,-138.41 1000.36,-137.621 1008.12,-144.827 1010.92,-138.41"/>
</g>
<!-- Node9&#45;&gt;Node14 -->
<g id="edge26" class="edge"><title>Node9&#45;&gt;Node14</title>
<path fill="none" stroke="midnightblue" d="M1150.19,-182.129C1248.74,-175.094 1496.9,-156.352 1598.67,-137.886"/>
<polygon fill="midnightblue" stroke="midnightblue" points="1599.46,-141.298 1608.63,-135.985 1598.15,-134.423 1599.46,-141.298"/>
</g>
<!-- Node15 -->
<g id="node29" class="node"><title>Node15</title>
<polygon fill="white" stroke="#bfbfbf" points="1018.5,-116.5 1018.5,-137.5 1065.5,-137.5 1065.5,-116.5 1018.5,-116.5"/>
<text text-anchor="middle" x="1042" y="-124.5" font-family="Helvetica,sans-Serif" font-size="10.00">iterator</text>
</g>
<!-- Node9&#45;&gt;Node15 -->
<g id="edge28" class="edge"><title>Node9&#45;&gt;Node15</title>
<path fill="none" stroke="midnightblue" d="M1096.71,-174.362C1086.98,-165.941 1073.2,-154.011 1061.9,-144.231"/>
<polygon fill="midnightblue" stroke="midnightblue" points="1064.06,-141.469 1054.21,-137.571 1059.48,-146.762 1064.06,-141.469"/>
</g>
<!-- Node16 -->
<g id="node31" class="node"><title>Node16</title>
<polygon fill="white" stroke="#bfbfbf" points="1083,-116.5 1083,-137.5 1135,-137.5 1135,-116.5 1083,-116.5"/>
<text text-anchor="middle" x="1109" y="-124.5" font-family="Helvetica,sans-Serif" font-size="10.00">memory</text>
</g>
<!-- Node9&#45;&gt;Node16 -->
<g id="edge30" class="edge"><title>Node9&#45;&gt;Node16</title>
<path fill="none" stroke="midnightblue" d="M1109,-174.362C1109,-166.922 1109,-156.743 1109,-147.728"/>
<polygon fill="midnightblue" stroke="midnightblue" points="1112.5,-147.571 1109,-137.571 1105.5,-147.571 1112.5,-147.571"/>
</g>
<!-- Node17 -->
<g id="node33" class="node"><title>Node17</title>
<polygon fill="white" stroke="#bfbfbf" points="1153,-116.5 1153,-137.5 1205,-137.5 1205,-116.5 1153,-116.5"/>
<text text-anchor="middle" x="1179" y="-124.5" font-family="Helvetica,sans-Serif" font-size="10.00">sstream</text>
</g>
<!-- Node9&#45;&gt;Node17 -->
<g id="edge32" class="edge"><title>Node9&#45;&gt;Node17</title>
<path fill="none" stroke="midnightblue" d="M1121.84,-174.362C1132,-165.941 1146.4,-154.011 1158.2,-144.231"/>
<polygon fill="midnightblue" stroke="midnightblue" points="1160.78,-146.646 1166.24,-137.571 1156.31,-141.256 1160.78,-146.646"/>
</g>
<!-- Node9&#45;&gt;Node18 -->
<g id="edge34" class="edge"><title>Node9&#45;&gt;Node18</title>
<path fill="none" stroke="midnightblue" d="M1150.04,-181.889C1267.6,-172.938 1601.16,-147.258 1670.17,-137.396"/>
<polygon fill="midnightblue" stroke="midnightblue" points="1671.05,-140.796 1680.31,-135.644 1669.86,-133.898 1671.05,-140.796"/>
</g>
<!-- Node19 -->
<g id="node38" class="node"><title>Node19</title>
<polygon fill="white" stroke="#bfbfbf" points="1223,-116.5 1223,-137.5 1283,-137.5 1283,-116.5 1223,-116.5"/>
<text text-anchor="middle" x="1253" y="-124.5" font-family="Helvetica,sans-Serif" font-size="10.00">sys/stat.h</text>
</g>
<!-- Node9&#45;&gt;Node19 -->
<g id="edge38" class="edge"><title>Node9&#45;&gt;Node19</title>
<path fill="none" stroke="midnightblue" d="M1135.08,-174.497C1158.07,-165.234 1191.8,-151.65 1217.3,-141.379"/>
<polygon fill="midnightblue" stroke="midnightblue" points="1218.66,-144.604 1226.63,-137.621 1216.05,-138.111 1218.66,-144.604"/>
</g>
<!-- Node20 -->
<g id="node41" class="node"><title>Node20</title>
<a xlink:href="../../da/d69/optionparser_8h.html" target="_top" xlink:title="This is the only file required to use The Lean Mean C++ Option Parser. Just #include it and you&#39;re se...">
<polygon fill="white" stroke="black" points="1301,-116.5 1301,-137.5 1405,-137.5 1405,-116.5 1301,-116.5"/>
<text text-anchor="middle" x="1353" y="-124.5" font-family="Helvetica,sans-Serif" font-size="10.00">blond/optionparser.h</text>
</a>
</g>
<!-- Node9&#45;&gt;Node20 -->
<g id="edge42" class="edge"><title>Node9&#45;&gt;Node20</title>
<path fill="none" stroke="midnightblue" d="M1150.12,-175.227C1191.03,-165.502 1254.02,-150.528 1298.96,-139.846"/>
<polygon fill="midnightblue" stroke="midnightblue" points="1299.91,-143.219 1308.82,-137.501 1298.29,-136.408 1299.91,-143.219"/>
</g>
<!-- Node21&#45;&gt;Node6 -->
<g id="edge114" class="edge"><title>Node21&#45;&gt;Node6</title>
<path fill="none" stroke="midnightblue" d="M411.683,-492.42C399.201,-473.977 373.629,-434.423 358,-398 334.263,-342.682 328.531,-327.588 320,-268 314.08,-226.644 298.777,-209.986 320,-174 328.654,-159.325 343.717,-148.913 358.781,-141.685"/>
<polygon fill="midnightblue" stroke="midnightblue" points="360.358,-144.815 368.104,-137.586 357.541,-138.407 360.358,-144.815"/>
</g>
<!-- Node21&#45;&gt;Node9 -->
<g id="edge116" class="edge"><title>Node21&#45;&gt;Node9</title>
<path fill="none" stroke="midnightblue" d="M476.175,-494.494C519.714,-487.039 580.695,-474.478 632,-456 685.112,-436.871 699.901,-431.953 745,-398 825.884,-337.106 813.105,-282.248 901,-232 902.736,-231.007 996.981,-209.922 1058,-196.334"/>
<polygon fill="midnightblue" stroke="midnightblue" points="1058.86,-199.728 1067.86,-194.139 1057.34,-192.896 1058.86,-199.728"/>
</g>
<!-- Node22 -->
<g id="node45" class="node"><title>Node22</title>
<a xlink:href="../../d5/d87/globals_8h.html" target="_top" xlink:title="blond/globals.h">
<polygon fill="white" stroke="black" points="541,-434.5 541,-455.5 623,-455.5 623,-434.5 541,-434.5"/>
<text text-anchor="middle" x="582" y="-442.5" font-family="Helvetica,sans-Serif" font-size="10.00">blond/globals.h</text>
</a>
</g>
<!-- Node21&#45;&gt;Node22 -->
<g id="edge46" class="edge"><title>Node21&#45;&gt;Node22</title>
<path fill="none" stroke="midnightblue" d="M443.178,-492.497C468.056,-483.041 507.117,-469.083 537.538,-458.743"/>
<polygon fill="midnightblue" stroke="midnightblue" points="538.726,-462.036 547.083,-455.523 536.489,-455.403 538.726,-462.036"/>
</g>
<!-- Node21&#45;&gt;Node23 -->
<g id="edge118" class="edge"><title>Node21&#45;&gt;Node23</title>
<path fill="none" stroke="midnightblue" d="M417.261,-492.426C412.653,-460.848 403.056,-365.61 443,-304 451.619,-290.705 464.767,-280.212 478.372,-272.151"/>
<polygon fill="midnightblue" stroke="midnightblue" points="480.274,-275.099 487.335,-267.2 476.889,-268.971 480.274,-275.099"/>
</g>
<!-- Node21&#45;&gt;Node24 -->
<g id="edge120" class="edge"><title>Node21&#45;&gt;Node24</title>
<path fill="none" stroke="midnightblue" d="M420.968,-492.486C431.212,-464.628 469.51,-388.283 492.952,-347.875"/>
<polygon fill="midnightblue" stroke="midnightblue" points="496.049,-349.513 498.139,-339.126 490.028,-345.943 496.049,-349.513"/>
</g>
<!-- Node22&#45;&gt;Node21 -->
<g id="edge102" class="edge"><title>Node22&#45;&gt;Node21</title>
<path fill="none" stroke="midnightblue" d="M557.77,-455.523C532.872,-464.985 493.808,-478.944 463.398,-489.279"/>
<polygon fill="midnightblue" stroke="midnightblue" points="462.215,-485.984 453.858,-492.497 464.452,-492.617 462.215,-485.984"/>
</g>
<!-- Node22&#45;&gt;Node23 -->
<g id="edge48" class="edge"><title>Node22&#45;&gt;Node23</title>
<path fill="none" stroke="midnightblue" d="M584.131,-434.281C588.447,-410.084 596.407,-349.771 579,-304 574.911,-293.248 567.682,-283.153 560.149,-274.667"/>
<polygon fill="midnightblue" stroke="midnightblue" points="562.642,-272.21 553.226,-267.354 557.558,-277.022 562.642,-272.21"/>
</g>
<!-- Node22&#45;&gt;Node24 -->
<g id="edge56" class="edge"><title>Node22&#45;&gt;Node24</title>
<path fill="none" stroke="midnightblue" d="M571.652,-434.085C557.706,-415.024 534.158,-375.165 520.625,-348.487"/>
<polygon fill="midnightblue" stroke="midnightblue" points="523.674,-346.755 516.128,-339.317 517.389,-349.837 523.674,-346.755"/>
</g>
<!-- Node22&#45;&gt;Node37 -->
<g id="edge104" class="edge"><title>Node22&#45;&gt;Node37</title>
<path fill="none" stroke="midnightblue" d="M600.158,-434.362C615.23,-425.532 636.887,-412.844 653.993,-402.822"/>
<polygon fill="midnightblue" stroke="midnightblue" points="656.098,-405.646 662.957,-397.571 652.559,-399.606 656.098,-405.646"/>
</g>
<!-- Node23&#45;&gt;Node6 -->
<g id="edge50" class="edge"><title>Node23&#45;&gt;Node6</title>
<path fill="none" stroke="midnightblue" d="M487.214,-232.936C468.745,-224.198 448.436,-211.981 434,-196 421.524,-182.189 413.93,-162.232 409.661,-147.33"/>
<polygon fill="midnightblue" stroke="midnightblue" points="413.018,-146.333 407.118,-137.533 406.243,-148.092 413.018,-146.333"/>
</g>
<!-- Node23&#45;&gt;Node8 -->
<g id="edge54" class="edge"><title>Node23&#45;&gt;Node8</title>
<path fill="none" stroke="midnightblue" d="M528.578,-232.972C519.922,-199.635 500.767,-125.869 491.387,-89.747"/>
<polygon fill="midnightblue" stroke="midnightblue" points="494.714,-88.631 488.813,-79.8317 487.938,-90.3904 494.714,-88.631"/>
</g>
<!-- Node23&#45;&gt;Node9 -->
<g id="edge52" class="edge"><title>Node23&#45;&gt;Node9</title>
<path fill="none" stroke="midnightblue" d="M592.154,-242.195C618.159,-238.87 649.075,-235.06 677,-232 843.287,-213.776 888.8,-222.039 1057.89,-196.021"/>
<polygon fill="midnightblue" stroke="midnightblue" points="1058.53,-199.462 1067.87,-194.466 1057.46,-192.546 1058.53,-199.462"/>
</g>
<!-- Node24&#45;&gt;Node21 -->
<g id="edge58" class="edge"><title>Node24&#45;&gt;Node21</title>
<path fill="none" stroke="midnightblue" d="M506.451,-339.126C492.658,-372.918 454.58,-447.979 433.256,-483.564"/>
<polygon fill="midnightblue" stroke="midnightblue" points="430.018,-482.144 427.72,-492.486 435.966,-485.834 430.018,-482.144"/>
</g>
<!-- Node24&#45;&gt;Node22 -->
<g id="edge100" class="edge"><title>Node24&#45;&gt;Node22</title>
<path fill="none" stroke="midnightblue" d="M525.864,-339.317C541.28,-361.843 564.044,-401.12 575.556,-424.924"/>
<polygon fill="midnightblue" stroke="midnightblue" points="572.404,-426.447 579.746,-434.085 578.769,-423.535 572.404,-426.447"/>
</g>
<!-- Node24&#45;&gt;Node23 -->
<g id="edge60" class="edge"><title>Node24&#45;&gt;Node23</title>
<path fill="none" stroke="midnightblue" d="M516.214,-304.937C518.752,-296.63 521.864,-286.444 524.717,-277.108"/>
<polygon fill="midnightblue" stroke="midnightblue" points="528.096,-278.027 527.671,-267.441 521.401,-275.981 528.096,-278.027"/>
</g>
<!-- Node25 -->
<g id="node56" class="node"><title>Node25</title>
<a xlink:href="../../d2/de2/math__functions_8h.html" target="_top" xlink:title="blond/math_functions.h">
<polygon fill="white" stroke="black" points="686,-239.5 686,-260.5 804,-260.5 804,-239.5 686,-239.5"/>
<text text-anchor="middle" x="745" y="-247.5" font-family="Helvetica,sans-Serif" font-size="10.00">blond/math_functions.h</text>
</a>
</g>
<!-- Node24&#45;&gt;Node25 -->
<g id="edge62" class="edge"><title>Node24&#45;&gt;Node25</title>
<path fill="none" stroke="midnightblue" d="M566.455,-304.937C607.52,-292.302 662.726,-275.315 700.826,-263.592"/>
<polygon fill="midnightblue" stroke="midnightblue" points="702.08,-266.868 710.608,-260.582 700.021,-260.178 702.08,-266.868"/>
</g>
<!-- Node36 -->
<g id="node84" class="node"><title>Node36</title>
<a xlink:href="../../d2/d6f/constants_8h.html" target="_top" xlink:title="blond/constants.h">
<polygon fill="white" stroke="black" points="362,-239.5 362,-260.5 456,-260.5 456,-239.5 362,-239.5"/>
<text text-anchor="middle" x="409" y="-247.5" font-family="Helvetica,sans-Serif" font-size="10.00">blond/constants.h</text>
</a>
</g>
<!-- Node24&#45;&gt;Node36 -->
<g id="edge96" class="edge"><title>Node24&#45;&gt;Node36</title>
<path fill="none" stroke="midnightblue" d="M486.827,-304.937C470.424,-293.358 448.845,-278.126 432.57,-266.638"/>
<polygon fill="midnightblue" stroke="midnightblue" points="434.329,-263.596 424.141,-260.688 430.293,-269.314 434.329,-263.596"/>
</g>
<!-- Node25&#45;&gt;Node6 -->
<g id="edge66" class="edge"><title>Node25&#45;&gt;Node6</title>
<path fill="none" stroke="midnightblue" d="M707.601,-239.487C673.965,-229.61 623.461,-213.727 581,-196 561.19,-187.729 557.72,-182.484 538,-174 508.677,-161.384 474.734,-149.431 448.478,-140.736"/>
<polygon fill="midnightblue" stroke="midnightblue" points="449.41,-137.358 438.817,-137.568 447.229,-144.01 449.41,-137.358"/>
</g>
<!-- Node25&#45;&gt;Node9 -->
<g id="edge84" class="edge"><title>Node25&#45;&gt;Node9</title>
<path fill="none" stroke="midnightblue" d="M785.012,-239.42C795.686,-236.793 807.243,-234.125 818,-232 921.134,-211.628 950.775,-215.397 1057.93,-196.099"/>
<polygon fill="midnightblue" stroke="midnightblue" points="1058.64,-199.528 1067.84,-194.288 1057.38,-192.641 1058.64,-199.528"/>
</g>
<!-- Node25&#45;&gt;Node26 -->
<g id="edge64" class="edge"><title>Node25&#45;&gt;Node26</title>
<path fill="none" stroke="midnightblue" d="M804.025,-243.075C918.101,-229.69 1165.96,-200.61 1260.92,-189.468"/>
<polygon fill="midnightblue" stroke="midnightblue" points="1261.42,-192.934 1270.94,-188.292 1260.6,-185.981 1261.42,-192.934"/>
</g>
<!-- Node27 -->
<g id="node61" class="node"><title>Node27</title>
<a xlink:href="../../d8/dcd/exp_8h.html" target="_top" xlink:title="blond/exp.h">
<polygon fill="white" stroke="black" points="983.5,-174.5 983.5,-195.5 1050.5,-195.5 1050.5,-174.5 983.5,-174.5"/>
<text text-anchor="middle" x="1017" y="-182.5" font-family="Helvetica,sans-Serif" font-size="10.00">blond/exp.h</text>
</a>
</g>
<!-- Node25&#45;&gt;Node27 -->
<g id="edge68" class="edge"><title>Node25&#45;&gt;Node27</title>
<path fill="none" stroke="midnightblue" d="M787.444,-239.46C797.46,-236.993 808.103,-234.389 818,-232 847.136,-224.967 924.422,-206.762 973.658,-195.184"/>
<polygon fill="midnightblue" stroke="midnightblue" points="974.476,-198.587 983.41,-192.891 972.874,-191.773 974.476,-198.587"/>
</g>
<!-- Node29 -->
<g id="node65" class="node"><title>Node29</title>
<polygon fill="white" stroke="#bfbfbf" points="727,-0.5 727,-21.5 771,-21.5 771,-0.5 727,-0.5"/>
<text text-anchor="middle" x="749" y="-8.5" font-family="Helvetica,sans-Serif" font-size="10.00">cmath</text>
</g>
<!-- Node25&#45;&gt;Node29 -->
<g id="edge86" class="edge"><title>Node25&#45;&gt;Node29</title>
<path fill="none" stroke="midnightblue" d="M781.963,-239.473C825.247,-226.777 891.974,-205.909 899,-196 926.547,-157.149 847.471,-139.716 846,-138 820.378,-108.118 832.468,-88.8342 808,-58 798.659,-46.2285 785.838,-35.5667 774.533,-27.3848"/>
<polygon fill="midnightblue" stroke="midnightblue" points="776.474,-24.4718 766.266,-21.6343 772.477,-30.2182 776.474,-24.4718"/>
</g>
<!-- Node30 -->
<g id="node67" class="node"><title>Node30</title>
<polygon fill="white" stroke="#bfbfbf" points="855,-116.5 855,-137.5 895,-137.5 895,-116.5 855,-116.5"/>
<text text-anchor="middle" x="875" y="-124.5" font-family="Helvetica,sans-Serif" font-size="10.00">limits</text>
</g>
<!-- Node25&#45;&gt;Node30 -->
<g id="edge90" class="edge"><title>Node25&#45;&gt;Node30</title>
<path fill="none" stroke="midnightblue" d="M786.149,-239.454C839.832,-225.502 927.506,-201.975 932,-196 946.056,-177.311 923.885,-156.749 903.224,-142.975"/>
<polygon fill="midnightblue" stroke="midnightblue" points="904.896,-139.892 894.572,-137.513 901.16,-145.811 904.896,-139.892"/>
</g>
<!-- Node31 -->
<g id="node69" class="node"><title>Node31</title>
<a xlink:href="../../d1/d3d/sin_8h.html" target="_top" xlink:title="blond/sin.h">
<polygon fill="white" stroke="black" points="826,-174.5 826,-195.5 890,-195.5 890,-174.5 826,-174.5"/>
<text text-anchor="middle" x="858" y="-182.5" font-family="Helvetica,sans-Serif" font-size="10.00">blond/sin.h</text>
</a>
</g>
<!-- Node25&#45;&gt;Node31 -->
<g id="edge76" class="edge"><title>Node25&#45;&gt;Node31</title>
<path fill="none" stroke="midnightblue" d="M763.407,-239.412C781.711,-228.883 810,-212.611 830.876,-200.602"/>
<polygon fill="midnightblue" stroke="midnightblue" points="832.678,-203.604 839.601,-195.584 829.188,-197.536 832.678,-203.604"/>
</g>
<!-- Node33 -->
<g id="node77" class="node"><title>Node33</title>
<polygon fill="white" stroke="#bfbfbf" points="589.5,-174.5 589.5,-195.5 638.5,-195.5 638.5,-174.5 589.5,-174.5"/>
<text text-anchor="middle" x="614" y="-182.5" font-family="Helvetica,sans-Serif" font-size="10.00">random</text>
</g>
<!-- Node25&#45;&gt;Node33 -->
<g id="edge88" class="edge"><title>Node25&#45;&gt;Node33</title>
<path fill="none" stroke="midnightblue" d="M723.661,-239.412C702.155,-228.741 668.761,-212.172 644.472,-200.12"/>
<polygon fill="midnightblue" stroke="midnightblue" points="645.843,-196.893 635.33,-195.584 642.732,-203.164 645.843,-196.893"/>
</g>
<!-- Node34 -->
<g id="node80" class="node"><title>Node34</title>
<polygon fill="white" stroke="#bfbfbf" points="655.5,-174.5 655.5,-195.5 704.5,-195.5 704.5,-174.5 655.5,-174.5"/>
<text text-anchor="middle" x="680" y="-182.5" font-family="Helvetica,sans-Serif" font-size="10.00">cassert</text>
</g>
<!-- Node25&#45;&gt;Node34 -->
<g id="edge92" class="edge"><title>Node25&#45;&gt;Node34</title>
<path fill="none" stroke="midnightblue" d="M734.267,-239.267C724.328,-229.328 709.363,-214.363 697.664,-202.664"/>
<polygon fill="midnightblue" stroke="midnightblue" points="700.08,-200.13 690.534,-195.534 695.13,-205.08 700.08,-200.13"/>
</g>
<!-- Node35 -->
<g id="node82" class="node"><title>Node35</title>
<a xlink:href="../../d1/db0/openmp_8h.html" target="_top" xlink:title="blond/openmp.h">
<polygon fill="white" stroke="black" points="722,-174.5 722,-195.5 808,-195.5 808,-174.5 722,-174.5"/>
<text text-anchor="middle" x="765" y="-182.5" font-family="Helvetica,sans-Serif" font-size="10.00">blond/openmp.h</text>
</a>
</g>
<!-- Node25&#45;&gt;Node35 -->
<g id="edge94" class="edge"><title>Node25&#45;&gt;Node35</title>
<path fill="none" stroke="midnightblue" d="M748.303,-239.267C751.128,-230.085 755.272,-216.615 758.726,-205.392"/>
<polygon fill="midnightblue" stroke="midnightblue" points="762.163,-206.121 761.759,-195.534 755.473,-204.062 762.163,-206.121"/>
</g>
<!-- Node28 -->
<g id="node63" class="node"><title>Node28</title>
<a xlink:href="../../df/de1/vdtcore__common_8h.html" target="_top" xlink:title="vdtcore_common.h">
<polygon fill="white" stroke="black" points="699,-58.5 699,-79.5 799,-79.5 799,-58.5 699,-58.5"/>
<text text-anchor="middle" x="749" y="-66.5" font-family="Helvetica,sans-Serif" font-size="10.00">vdtcore_common.h</text>
</a>
</g>
<!-- Node27&#45;&gt;Node28 -->
<g id="edge70" class="edge"><title>Node27&#45;&gt;Node28</title>
<path fill="none" stroke="midnightblue" d="M1000.33,-174.496C971.383,-156.31 913.964,-120.465 904,-116 872.069,-101.691 834.559,-90.1877 804.437,-82.1436"/>
<polygon fill="midnightblue" stroke="midnightblue" points="805.084,-78.6951 794.524,-79.5491 803.312,-85.4671 805.084,-78.6951"/>
</g>
<!-- Node27&#45;&gt;Node30 -->
<g id="edge74" class="edge"><title>Node27&#45;&gt;Node30</title>
<path fill="none" stroke="midnightblue" d="M991.285,-174.497C966.872,-164.525 930.2,-149.547 904.586,-139.084"/>
<polygon fill="midnightblue" stroke="midnightblue" points="905.605,-135.72 895.024,-135.179 902.958,-142.2 905.605,-135.72"/>
</g>
<!-- Node28&#45;&gt;Node29 -->
<g id="edge72" class="edge"><title>Node28&#45;&gt;Node29</title>
<path fill="none" stroke="midnightblue" d="M749,-58.3619C749,-50.9219 749,-40.7427 749,-31.7276"/>
<polygon fill="midnightblue" stroke="midnightblue" points="752.5,-31.5706 749,-21.5707 745.5,-31.5707 752.5,-31.5706"/>
</g>
<!-- Node32 -->
<g id="node71" class="node"><title>Node32</title>
<a xlink:href="../../dc/dfa/sincos_8h.html" target="_top" xlink:title="sincos.h">
<polygon fill="white" stroke="black" points="722.5,-116.5 722.5,-137.5 775.5,-137.5 775.5,-116.5 722.5,-116.5"/>
<text text-anchor="middle" x="749" y="-124.5" font-family="Helvetica,sans-Serif" font-size="10.00">sincos.h</text>
</a>
</g>
<!-- Node31&#45;&gt;Node32 -->
<g id="edge78" class="edge"><title>Node31&#45;&gt;Node32</title>
<path fill="none" stroke="midnightblue" d="M838.261,-174.497C821.39,-165.519 796.891,-152.484 777.826,-142.339"/>
<polygon fill="midnightblue" stroke="midnightblue" points="779.433,-139.229 768.961,-137.621 776.144,-145.409 779.433,-139.229"/>
</g>
<!-- Node32&#45;&gt;Node28 -->
<g id="edge80" class="edge"><title>Node32&#45;&gt;Node28</title>
<path fill="none" stroke="midnightblue" d="M749,-116.362C749,-108.922 749,-98.7427 749,-89.7276"/>
<polygon fill="midnightblue" stroke="midnightblue" points="752.5,-89.5706 749,-79.5707 745.5,-89.5707 752.5,-89.5706"/>
</g>
<!-- Node32&#45;&gt;Node29 -->
<g id="edge82" class="edge"><title>Node32&#45;&gt;Node29</title>
<path fill="none" stroke="midnightblue" d="M728.422,-116.377C707.162,-103.85 678.573,-81.7118 690,-58 696.207,-45.1205 707.849,-34.6785 719.163,-26.9373"/>
<polygon fill="midnightblue" stroke="midnightblue" points="721.087,-29.8617 727.655,-21.5484 717.336,-23.9513 721.087,-29.8617"/>
</g>
<!-- Node36&#45;&gt;Node6 -->
<g id="edge98" class="edge"><title>Node36&#45;&gt;Node6</title>
<path fill="none" stroke="midnightblue" d="M405.654,-239.378C402.442,-228.585 397.818,-211.321 396,-196 394.848,-186.29 395.076,-183.734 396,-174 396.829,-165.259 398.508,-155.724 400.193,-147.542"/>
<polygon fill="midnightblue" stroke="midnightblue" points="403.618,-148.261 402.341,-137.744 396.781,-146.762 403.618,-148.261"/>
</g>
<!-- Node37&#45;&gt;Node6 -->
<g id="edge106" class="edge"><title>Node37&#45;&gt;Node6</title>
<path fill="none" stroke="midnightblue" d="M674.882,-376.242C669.53,-366.76 661.601,-352.543 655,-340 630.006,-292.51 640.56,-268.263 601,-232 568.937,-202.61 548.598,-216.048 510,-196 480.02,-180.428 447.884,-158.444 427.174,-143.505"/>
<polygon fill="midnightblue" stroke="midnightblue" points="429.18,-140.636 419.038,-137.573 425.056,-146.292 429.18,-140.636"/>
</g>
<!-- Node37&#45;&gt;Node9 -->
<g id="edge108" class="edge"><title>Node37&#45;&gt;Node9</title>
<path fill="none" stroke="midnightblue" d="M692.533,-376.474C729.963,-342.355 846.202,-236.735 856,-232 935.68,-193.491 966.971,-212.435 1057.94,-196.072"/>
<polygon fill="midnightblue" stroke="midnightblue" points="1058.65,-199.499 1067.83,-194.198 1057.35,-192.622 1058.65,-199.499"/>
</g>
<!-- Node37&#45;&gt;Node24 -->
<g id="edge110" class="edge"><title>Node37&#45;&gt;Node24</title>
<path fill="none" stroke="midnightblue" d="M653.308,-376.412C629.555,-367.33 594.627,-353.975 565.319,-342.769"/>
<polygon fill="midnightblue" stroke="midnightblue" points="566.21,-339.363 555.62,-339.06 563.71,-345.901 566.21,-339.363"/>
</g>
<!-- Node38 -->
<g id="node94" class="node"><title>Node38</title>
<polygon fill="white" stroke="#bfbfbf" points="663.5,-311.5 663.5,-332.5 698.5,-332.5 698.5,-311.5 663.5,-311.5"/>
<text text-anchor="middle" x="681" y="-319.5" font-family="Helvetica,sans-Serif" font-size="10.00">map</text>
</g>
<!-- Node37&#45;&gt;Node38 -->
<g id="edge112" class="edge"><title>Node37&#45;&gt;Node38</title>
<path fill="none" stroke="midnightblue" d="M681,-376.267C681,-367.18 681,-353.892 681,-342.74"/>
<polygon fill="midnightblue" stroke="midnightblue" points="684.5,-342.534 681,-332.534 677.5,-342.534 684.5,-342.534"/>
</g>
<!-- Node39&#45;&gt;Node6 -->
<g id="edge130" class="edge"><title>Node39&#45;&gt;Node6</title>
<path fill="none" stroke="midnightblue" d="M577.23,-557.563C505.626,-552.215 387.653,-539.721 353,-514 276.551,-457.255 258,-417.208 258,-322 258,-322 258,-322 258,-250 258,-194.624 320.118,-159.266 363.594,-141.302"/>
<polygon fill="midnightblue" stroke="midnightblue" points="365.102,-144.468 373.103,-137.523 362.517,-137.963 365.102,-144.468"/>
</g>
<!-- Node39&#45;&gt;Node9 -->
<g id="edge150" class="edge"><title>Node39&#45;&gt;Node9</title>
<path fill="none" stroke="midnightblue" d="M669.333,-550.386C715.854,-535.132 798.471,-503.511 856,-456 951.137,-377.431 926.618,-312.646 1020,-232 1035.51,-218.605 1055.49,-207.619 1072.59,-199.646"/>
<polygon fill="midnightblue" stroke="midnightblue" points="1074.06,-202.823 1081.74,-195.53 1071.19,-196.438 1074.06,-202.823"/>
</g>
<!-- Node39&#45;&gt;Node22 -->
<g id="edge132" class="edge"><title>Node39&#45;&gt;Node22</title>
<path fill="none" stroke="midnightblue" d="M643.391,-550.248C654.401,-536.262 669.85,-511.333 659,-492 651.015,-477.771 636.777,-467.34 622.698,-459.971"/>
<polygon fill="midnightblue" stroke="midnightblue" points="624.065,-456.745 613.536,-455.562 621.029,-463.052 624.065,-456.745"/>
</g>
<!-- Node39&#45;&gt;Node40 -->
<g id="edge134" class="edge"><title>Node39&#45;&gt;Node40</title>
<path fill="none" stroke="midnightblue" d="M690.85,-551.552C750.986,-541.558 846.016,-525.765 911.265,-514.922"/>
<polygon fill="midnightblue" stroke="midnightblue" points="912.181,-518.317 921.472,-513.225 911.033,-511.412 912.181,-518.317"/>
</g>
<!-- Node42 -->
<g id="node113" class="node"><title>Node42</title>
<a xlink:href="../../d9/dc8/PhaseNoise_8h.html" target="_top" xlink:title="blond/llrf/PhaseNoise.h">
<polygon fill="white" stroke="black" points="532,-492.5 532,-513.5 650,-513.5 650,-492.5 532,-492.5"/>
<text text-anchor="middle" x="591" y="-500.5" font-family="Helvetica,sans-Serif" font-size="10.00">blond/llrf/PhaseNoise.h</text>
</a>
</g>
<!-- Node39&#45;&gt;Node42 -->
<g id="edge142" class="edge"><title>Node39&#45;&gt;Node42</title>
<path fill="none" stroke="midnightblue" d="M626.113,-550.362C620.173,-542.35 611.878,-531.161 604.841,-521.67"/>
<polygon fill="midnightblue" stroke="midnightblue" points="607.604,-519.519 598.837,-513.571 601.981,-523.688 607.604,-519.519"/>
</g>
<!-- Node40&#45;&gt;Node6 -->
<g id="edge136" class="edge"><title>Node40&#45;&gt;Node6</title>
<path fill="none" stroke="midnightblue" d="M969.061,-492.278C904.526,-442.645 637.483,-237.382 628,-232 590.533,-210.734 576.128,-216.056 538,-196 522.4,-187.794 520.352,-182.662 505,-174 483.75,-162.011 458.932,-150.334 439.336,-141.617"/>
<polygon fill="midnightblue" stroke="midnightblue" points="440.737,-138.41 430.174,-137.588 437.919,-144.818 440.737,-138.41"/>
</g>
<!-- Node40&#45;&gt;Node9 -->
<g id="edge138" class="edge"><title>Node40&#45;&gt;Node9</title>
<path fill="none" stroke="midnightblue" d="M986.906,-492.291C993.938,-472.027 1008,-426.554 1008,-387 1008,-387 1008,-387 1008,-322 1008,-270.362 1055.06,-225.385 1084.94,-202.036"/>
<polygon fill="midnightblue" stroke="midnightblue" points="1087.36,-204.594 1093.22,-195.768 1083.13,-199.012 1087.36,-204.594"/>
</g>
<!-- Node41 -->
<g id="node111" class="node"><title>Node41</title>
<polygon fill="white" stroke="#bfbfbf" points="1035.5,-434.5 1035.5,-455.5 1094.5,-455.5 1094.5,-434.5 1035.5,-434.5"/>
<text text-anchor="middle" x="1065" y="-442.5" font-family="Helvetica,sans-Serif" font-size="10.00">functional</text>
</g>
<!-- Node40&#45;&gt;Node41 -->
<g id="edge140" class="edge"><title>Node40&#45;&gt;Node41</title>
<path fill="none" stroke="midnightblue" d="M998.04,-492.362C1010.29,-483.696 1027.8,-471.313 1041.84,-461.382"/>
<polygon fill="midnightblue" stroke="midnightblue" points="1043.91,-464.203 1050.06,-455.571 1039.87,-458.488 1043.91,-464.203"/>
</g>
<!-- Node42&#45;&gt;Node6 -->
<g id="edge144" class="edge"><title>Node42&#45;&gt;Node6</title>
<path fill="none" stroke="midnightblue" d="M572.393,-492.319C524.461,-463.553 397.418,-379.066 353,-268 335.603,-224.499 368.196,-172.651 389.209,-145.569"/>
<polygon fill="midnightblue" stroke="midnightblue" points="392.007,-147.674 395.547,-137.688 386.552,-143.287 392.007,-147.674"/>
</g>
<!-- Node42&#45;&gt;Node9 -->
<g id="edge148" class="edge"><title>Node42&#45;&gt;Node9</title>
<path fill="none" stroke="midnightblue" d="M650.266,-497.695C712.301,-491.07 804.456,-477.866 832,-456 876.25,-420.871 860.971,-391.592 884,-340 905.41,-292.034 892.031,-266.082 932,-232 936.933,-227.794 1007.45,-209.864 1057.96,-197.409"/>
<polygon fill="midnightblue" stroke="midnightblue" points="1058.9,-200.783 1067.77,-194.996 1057.23,-193.985 1058.9,-200.783"/>
</g>
<!-- Node42&#45;&gt;Node22 -->
<g id="edge146" class="edge"><title>Node42&#45;&gt;Node22</title>
<path fill="none" stroke="midnightblue" d="M589.349,-492.362C588.195,-484.922 586.615,-474.743 585.216,-465.728"/>
<polygon fill="midnightblue" stroke="midnightblue" points="588.632,-464.916 583.64,-455.571 581.715,-465.989 588.632,-464.916"/>
</g>
</g>
</svg>
        <g id="navigator" transform="translate(0 0)" fill="#404254">
                <rect fill="#f2f5e9" fill-opacity="0.5" stroke="#606060" stroke-width=".5" x="0" y="0" width="60" height="60"/>
                <use id="zoomplus" xlink:href="#zoomPlus" x="17" y="9" onmousedown="handleZoom(evt,'in')"/>
                <use id="zoomminus" xlink:href="#zoomMin" x="42" y="9" onmousedown="handleZoom(evt,'out')"/>
                <use id="reset" xlink:href="#resetDef" x="30" y="36" onmousedown="handleReset()"/>
                <g id="arrowUp" xlink:href="#dirArrow" transform="translate(30 24)" onmousedown="handlePan(0,-1)">
                  <use xlink:href="#rim" fill="#404040">
                        <set attributeName="fill" to="#808080" begin="arrowUp.mouseover" end="arrowUp.mouseout"/>
                  </use>
                  <path fill="none" stroke="white" stroke-width="1.5" d="M0,-3.0v7 M-2.5,-0.5L0,-3.0L2.5,-0.5"/>
                </g>
                <g id="arrowRight" xlink:href="#dirArrow" transform="rotate(90) translate(36 -43)" onmousedown="handlePan(1,0)">
                  <use xlink:href="#rim" fill="#404040">
                        <set attributeName="fill" to="#808080" begin="arrowRight.mouseover" end="arrowRight.mouseout"/>
                  </use>
                  <path fill="none" stroke="white" stroke-width="1.5" d="M0,-3.0v7 M-2.5,-0.5L0,-3.0L2.5,-0.5"/>
                </g>
                <g id="arrowDown" xlink:href="#dirArrow" transform="rotate(180) translate(-30 -48)" onmousedown="handlePan(0,1)">
                  <use xlink:href="#rim" fill="#404040">
                        <set attributeName="fill" to="#808080" begin="arrowDown.mouseover" end="arrowDown.mouseout"/>
                  </use>
                  <path fill="none" stroke="white" stroke-width="1.5" d="M0,-3.0v7 M-2.5,-0.5L0,-3.0L2.5,-0.5"/>
                </g>
                <g id="arrowLeft" xlink:href="#dirArrow" transform="rotate(270) translate(-36 17)" onmousedown="handlePan(-1,0)">
                  <use xlink:href="#rim" fill="#404040">
                        <set attributeName="fill" to="#808080" begin="arrowLeft.mouseover" end="arrowLeft.mouseout"/>
                  </use>
                  <path fill="none" stroke="white" stroke-width="1.5" d="M0,-3.0v7 M-2.5,-0.5L0,-3.0L2.5,-0.5"/>
                </g>
        </g>
        <svg viewBox="0 0 15 15" width="100%" height="30px" preserveAspectRatio="xMaxYMin meet">
         <g id="arrow_out" transform="scale(0.3 0.3)">
          <a xlink:href="Monitors_8cpp__incl_org.svg" target="_base">
           <rect id="button" ry="5" rx="5" y="6" x="6" height="38" width="38"
                fill="#f2f5e9" fill-opacity="0.5" stroke="#606060" stroke-width="1.0"/>
           <path id="arrow"
             d="M 11.500037,31.436501 C 11.940474,20.09759 22.043105,11.32322 32.158766,21.979434 L 37.068811,17.246167 C 37.068811,17.246167 37.088388,32 37.088388,32 L 22.160133,31.978069 C 22.160133,31.978069 26.997745,27.140456 26.997745,27.140456 C 18.528582,18.264221 13.291696,25.230495 11.500037,31.436501 z"
             style="fill:#404040;"/>
          </a>
         </g>
        </svg>
</svg>
