<?xml version="1.0" encoding="UTF-8" standalone="no"?>
<!DOCTYPE svg PUBLIC "-//W3C//DTD SVG 1.1//EN"
 "http://www.w3.org/Graphics/SVG/1.1/DTD/svg11.dtd">
<!-- Generated by graphviz version 2.26.3 (20100126.1600)
 -->
<!-- Title: blond::PhaseNoise Pages: 1 -->
<!--zoomable 504 -->
<svg id="main" version="1.1" xmlns="http://www.w3.org/2000/svg" xmlns:xlink="http://www.w3.org/1999/xlink" xml:space="preserve" onload="init(evt)">
        <defs>
                <circle id="rim" cx="0" cy="0" r="7"/>
                <circle id="rim2" cx="0" cy="0" r="3.5"/>
                <g id="zoomPlus">
                        <use xlink:href="#rim" fill="#404040">
                                <set attributeName="fill" to="#808080" begin="zoomplus.mouseover" end="zoomplus.mouseout"/>
                        </use>
                        <path d="M-4,0h8M0,-4v8" fill="none" stroke="white" stroke-width="1.5" pointer-events="none"/>
                </g>
                <g id="zoomMin">
                        <use xlink:href="#rim" fill="#404040">
                                <set attributeName="fill" to="#808080" begin="zoomminus.mouseover" end="zoomminus.mouseout"/>
                        </use>
                        <path d="M-4,0h8" fill="none" stroke="white" stroke-width="1.5" pointer-events="none"/>
                </g>
                <g id="dirArrow">
                        <path fill="none" stroke="white" stroke-width="1.5" d="M0,-3.0v7 M-2.5,-0.5L0,-3.0L2.5,-0.5"/>
                </g>
               <g id="resetDef">
                       <use xlink:href="#rim2" fill="#404040">
                               <set attributeName="fill" to="#808080" begin="reset.mouseover" end="reset.mouseout"/>
                       </use>
               </g>
        </defs>

<script type="text/javascript">
var viewWidth = 337;
var viewHeight = 504;
var sectionId = 'dynsection-1';
</script>
<script xlink:href="../../svgpan.js"/>
<svg id="graph" class="graph">
<g id="viewport">
<title>blond::PhaseNoise</title>
<polygon fill="white" stroke="white" points="-4,5 -4,-500 334,-500 334,5 -4,5"/>
<!-- Node1 -->
<g id="node1" class="node"><title>Node1</title>
<polygon fill="#bfbfbf" stroke="black" points="83,-0.5 83,-115.5 229,-115.5 229,-0.5 83,-0.5"/>
<text text-anchor="middle" x="156" y="-102.5" font-family="Helvetica,sans-Serif" font-size="10.00">blond::PhaseNoise</text>
<polyline fill="none" stroke="black" points="83,-94.5 229,-94.5 "/>
<text text-anchor="middle" x="156" y="-81.5" font-family="Helvetica,sans-Serif" font-size="10.00"> </text>
<polyline fill="none" stroke="black" points="83,-73.5 229,-73.5 "/>
<text text-anchor="start" x="91" y="-60.5" font-family="Helvetica,sans-Serif" font-size="10.00">+ PhaseNoise()</text>
<text text-anchor="start" x="91" y="-47.5" font-family="Helvetica,sans-Serif" font-size="10.00">+ ~PhaseNoise()</text>
<text text-anchor="start" x="91" y="-34.5" font-family="Helvetica,sans-Serif" font-size="10.00">+ generate()</text>
<text text-anchor="start" x="91" y="-21.5" font-family="Helvetica,sans-Serif" font-size="10.00">+ spectrum_generation()</text>
<text text-anchor="start" x="91" y="-8.5" font-family="Helvetica,sans-Serif" font-size="10.00">+ spectrum_to_phase_noise()</text>
</g>
<!-- Node2 -->
<g id="node2" class="node"><title>Node2</title>
<polygon fill="white" stroke="#bfbfbf" points="0,-204.5 0,-267.5 78,-267.5 78,-204.5 0,-204.5"/>
<text text-anchor="middle" x="39" y="-254.5" font-family="Helvetica,sans-Serif" font-size="10.00">predistortion_t</text>
<polyline fill="none" stroke="#bfbfbf" points="0,-246.5 78,-246.5 "/>
<text text-anchor="middle" x="39" y="-233.5" font-family="Helvetica,sans-Serif" font-size="10.00"> </text>
<polyline fill="none" stroke="#bfbfbf" points="0,-225.5 78,-225.5 "/>
<text text-anchor="middle" x="39" y="-212.5" font-family="Helvetica,sans-Serif" font-size="10.00"> </text>
</g>
<!-- Node2&#45;&gt;Node1 -->
<g id="edge2" class="edge"><title>Node2&#45;&gt;Node1</title>
<path fill="none" stroke="#404040" d="M31.9032,-204.17C28.8939,-183.003 28.362,-155.288 40,-134 47.8529,-119.635 59.7179,-107.54 72.9095,-97.5216"/>
<polygon fill="none" stroke="#404040" points="72.9131,-97.5191 75.5028,-90.789 82.7112,-90.591 80.1215,-97.321 72.9131,-97.5191"/>
<text text-anchor="middle" x="73.5" y="-157.5" font-family="Helvetica,sans-Serif" font-size="10.00"> +fPredistortion</text>
</g>
<!-- Node3 -->
<g id="node4" class="node"><title>Node3</title>
<polygon fill="white" stroke="#bfbfbf" points="110.5,-318.5 110.5,-381.5 155.5,-381.5 155.5,-318.5 110.5,-318.5"/>
<text text-anchor="middle" x="133" y="-368.5" font-family="Helvetica,sans-Serif" font-size="10.00">double</text>
<polyline fill="none" stroke="#bfbfbf" points="110.5,-360.5 155.5,-360.5 "/>
<text text-anchor="middle" x="133" y="-347.5" font-family="Helvetica,sans-Serif" font-size="10.00"> </text>
<polyline fill="none" stroke="#bfbfbf" points="110.5,-339.5 155.5,-339.5 "/>
<text text-anchor="middle" x="133" y="-326.5" font-family="Helvetica,sans-Serif" font-size="10.00"> </text>
</g>
<!-- Node3&#45;&gt;Node1 -->
<g id="edge4" class="edge"><title>Node3&#45;&gt;Node1</title>
<path fill="none" stroke="#404040" d="M131.577,-318.467C130.958,-303.225 130.305,-284.665 130,-268 129.48,-239.56 127.497,-232.334 130,-204 132.219,-178.879 136.547,-151.608 141.044,-127.509"/>
<polygon fill="none" stroke="#404040" points="141.069,-127.377 138.271,-120.731 143.329,-115.592 146.127,-122.238 141.069,-127.377"/>
<text text-anchor="middle" x="147" y="-246.5" font-family="Helvetica,sans-Serif" font-size="10.00"> +fFMin</text>
<text text-anchor="middle" x="147" y="-233.5" font-family="Helvetica,sans-Serif" font-size="10.00">+fFMax</text>
<text text-anchor="middle" x="147" y="-220.5" font-family="Helvetica,sans-Serif" font-size="10.00">+fAi</text>
</g>
<!-- Node5 -->
<g id="node8" class="node"><title>Node5</title>
<polygon fill="white" stroke="#bfbfbf" points="173,-204.5 173,-267.5 283,-267.5 283,-204.5 173,-204.5"/>
<text text-anchor="middle" x="228" y="-254.5" font-family="Helvetica,sans-Serif" font-size="10.00">std::vector&lt; double &gt;</text>
<polyline fill="none" stroke="#bfbfbf" points="173,-246.5 283,-246.5 "/>
<text text-anchor="middle" x="228" y="-233.5" font-family="Helvetica,sans-Serif" font-size="10.00"> </text>
<polyline fill="none" stroke="#bfbfbf" points="173,-225.5 283,-225.5 "/>
<text text-anchor="middle" x="228" y="-212.5" font-family="Helvetica,sans-Serif" font-size="10.00"> </text>
</g>
<!-- Node3&#45;&gt;Node5 -->
<g id="edge10" class="edge"><title>Node3&#45;&gt;Node5</title>
<path fill="none" stroke="#404040" d="M151.686,-318.362C158.517,-307.7 166.633,-295.981 175,-286 177.682,-282.801 180.553,-279.596 183.52,-276.439"/>
<polygon fill="none" stroke="#404040" points="183.663,-276.293 185.002,-269.207 192.058,-267.718 190.719,-274.803 183.663,-276.293"/>
<text text-anchor="middle" x="199.5" y="-290.5" font-family="Helvetica,sans-Serif" font-size="10.00"> +elements</text>
</g>
<!-- Node4 -->
<g id="node6" class="node"><title>Node4</title>
<polygon fill="white" stroke="#bfbfbf" points="300.5,-204.5 300.5,-267.5 329.5,-267.5 329.5,-204.5 300.5,-204.5"/>
<text text-anchor="middle" x="315" y="-254.5" font-family="Helvetica,sans-Serif" font-size="10.00">int</text>
<polyline fill="none" stroke="#bfbfbf" points="300.5,-246.5 329.5,-246.5 "/>
<text text-anchor="middle" x="315" y="-233.5" font-family="Helvetica,sans-Serif" font-size="10.00"> </text>
<polyline fill="none" stroke="#bfbfbf" points="300.5,-225.5 329.5,-225.5 "/>
<text text-anchor="middle" x="315" y="-212.5" font-family="Helvetica,sans-Serif" font-size="10.00"> </text>
</g>
<!-- Node4&#45;&gt;Node1 -->
<g id="edge6" class="edge"><title>Node4&#45;&gt;Node1</title>
<path fill="none" stroke="#404040" d="M300.419,-215.672C297.629,-211.794 294.727,-207.769 292,-204 269.434,-172.816 266.825,-162.544 241,-134 238.037,-130.725 234.944,-127.443 231.768,-124.181"/>
<polygon fill="none" stroke="#404040" points="231.68,-124.094 224.609,-122.681 223.193,-115.61 230.265,-117.023 231.68,-124.094"/>
<text text-anchor="middle" x="301.5" y="-177" font-family="Helvetica,sans-Serif" font-size="10.00"> +fNTurns</text>
<text text-anchor="middle" x="301.5" y="-164" font-family="Helvetica,sans-Serif" font-size="10.00">+fCorr</text>
<text text-anchor="middle" x="301.5" y="-151" font-family="Helvetica,sans-Serif" font-size="10.00">+fSeed1</text>
<text text-anchor="middle" x="301.5" y="-138" font-family="Helvetica,sans-Serif" font-size="10.00">+fSeed2</text>
</g>
<!-- Node5&#45;&gt;Node1 -->
<g id="edge8" class="edge"><title>Node5&#45;&gt;Node1</title>
<path fill="none" stroke="#404040" d="M215.128,-204.177C206.457,-182.74 194.681,-153.628 183.921,-127.026"/>
<polygon fill="none" stroke="#404040" points="183.883,-126.933 177.925,-122.871 179.383,-115.809 185.341,-119.871 183.883,-126.933"/>
<text text-anchor="middle" x="222" y="-164" font-family="Helvetica,sans-Serif" font-size="10.00"> +fFs</text>
<text text-anchor="middle" x="222" y="-151" font-family="Helvetica,sans-Serif" font-size="10.00">+fDphi</text>
</g>
<!-- Node6 -->
<g id="node11" class="node"><title>Node6</title>
<a xlink:title="STL class.">
<polygon fill="white" stroke="#bfbfbf" points="184.5,-318.5 184.5,-381.5 271.5,-381.5 271.5,-318.5 184.5,-318.5"/>
<text text-anchor="middle" x="228" y="-368.5" font-family="Helvetica,sans-Serif" font-size="10.00">std::vector&lt; T &gt;</text>
<polyline fill="none" stroke="#bfbfbf" points="184.5,-360.5 271.5,-360.5 "/>
<text text-anchor="middle" x="228" y="-347.5" font-family="Helvetica,sans-Serif" font-size="10.00"> </text>
<polyline fill="none" stroke="#bfbfbf" points="184.5,-339.5 271.5,-339.5 "/>
<text text-anchor="middle" x="228" y="-326.5" font-family="Helvetica,sans-Serif" font-size="10.00"> </text>
</a>
</g>
<!-- Node6&#45;&gt;Node5 -->
<g id="edge12" class="edge"><title>Node6&#45;&gt;Node5</title>
<path fill="none" stroke="orange" d="M228,-307.866C228,-294.538 228,-280.043 228,-267.585"/>
<polygon fill="orange" stroke="orange" points="224.5,-308.245 228,-318.245 231.5,-308.245 224.5,-308.245"/>
<text text-anchor="middle" x="253" y="-290.5" font-family="Helvetica,sans-Serif" font-size="10.00"> &lt; double &gt;</text>
</g>
<!-- Node7 -->
<g id="node13" class="node"><title>Node7</title>
<polygon fill="white" stroke="#bfbfbf" points="213.5,-432.5 213.5,-495.5 242.5,-495.5 242.5,-432.5 213.5,-432.5"/>
<text text-anchor="middle" x="228" y="-482.5" font-family="Helvetica,sans-Serif" font-size="10.00">T</text>
<polyline fill="none" stroke="#bfbfbf" points="213.5,-474.5 242.5,-474.5 "/>
<text text-anchor="middle" x="228" y="-461.5" font-family="Helvetica,sans-Serif" font-size="10.00"> </text>
<polyline fill="none" stroke="#bfbfbf" points="213.5,-453.5 242.5,-453.5 "/>
<text text-anchor="middle" x="228" y="-440.5" font-family="Helvetica,sans-Serif" font-size="10.00"> </text>
</g>
<!-- Node7&#45;&gt;Node6 -->
<g id="edge14" class="edge"><title>Node7&#45;&gt;Node6</title>
<path fill="none" stroke="#404040" d="M228,-432.245C228,-420.386 228,-406.7 228,-393.938"/>
<polygon fill="none" stroke="#404040" points="228,-393.585 224,-387.585 228,-381.585 232,-387.585 228,-393.585"/>
<text text-anchor="middle" x="252.5" y="-404.5" font-family="Helvetica,sans-Serif" font-size="10.00"> +elements</text>
</g>
</g>
</svg>
        <g id="navigator" transform="translate(0 0)" fill="#404254">
                <rect fill="#f2f5e9" fill-opacity="0.5" stroke="#606060" stroke-width=".5" x="0" y="0" width="60" height="60"/>
                <use id="zoomplus" xlink:href="#zoomPlus" x="17" y="9" onmousedown="handleZoom(evt,'in')"/>
                <use id="zoomminus" xlink:href="#zoomMin" x="42" y="9" onmousedown="handleZoom(evt,'out')"/>
                <use id="reset" xlink:href="#resetDef" x="30" y="36" onmousedown="handleReset()"/>
                <g id="arrowUp" xlink:href="#dirArrow" transform="translate(30 24)" onmousedown="handlePan(0,-1)">
                  <use xlink:href="#rim" fill="#404040">
                        <set attributeName="fill" to="#808080" begin="arrowUp.mouseover" end="arrowUp.mouseout"/>
                  </use>
                  <path fill="none" stroke="white" stroke-width="1.5" d="M0,-3.0v7 M-2.5,-0.5L0,-3.0L2.5,-0.5"/>
                </g>
                <g id="arrowRight" xlink:href="#dirArrow" transform="rotate(90) translate(36 -43)" onmousedown="handlePan(1,0)">
                  <use xlink:href="#rim" fill="#404040">
                        <set attributeName="fill" to="#808080" begin="arrowRight.mouseover" end="arrowRight.mouseout"/>
                  </use>
                  <path fill="none" stroke="white" stroke-width="1.5" d="M0,-3.0v7 M-2.5,-0.5L0,-3.0L2.5,-0.5"/>
                </g>
                <g id="arrowDown" xlink:href="#dirArrow" transform="rotate(180) translate(-30 -48)" onmousedown="handlePan(0,1)">
                  <use xlink:href="#rim" fill="#404040">
                        <set attributeName="fill" to="#808080" begin="arrowDown.mouseover" end="arrowDown.mouseout"/>
                  </use>
                  <path fill="none" stroke="white" stroke-width="1.5" d="M0,-3.0v7 M-2.5,-0.5L0,-3.0L2.5,-0.5"/>
                </g>
                <g id="arrowLeft" xlink:href="#dirArrow" transform="rotate(270) translate(-36 17)" onmousedown="handlePan(-1,0)">
                  <use xlink:href="#rim" fill="#404040">
                        <set attributeName="fill" to="#808080" begin="arrowLeft.mouseover" end="arrowLeft.mouseout"/>
                  </use>
                  <path fill="none" stroke="white" stroke-width="1.5" d="M0,-3.0v7 M-2.5,-0.5L0,-3.0L2.5,-0.5"/>
                </g>
        </g>
        <svg viewBox="0 0 15 15" width="100%" height="30px" preserveAspectRatio="xMaxYMin meet">
         <g id="arrow_out" transform="scale(0.3 0.3)">
          <a xlink:href="classblond_1_1PhaseNoise__coll__graph_org.svg" target="_base">
           <rect id="button" ry="5" rx="5" y="6" x="6" height="38" width="38"
                fill="#f2f5e9" fill-opacity="0.5" stroke="#606060" stroke-width="1.0"/>
           <path id="arrow"
             d="M 11.500037,31.436501 C 11.940474,20.09759 22.043105,11.32322 32.158766,21.979434 L 37.068811,17.246167 C 37.068811,17.246167 37.088388,32 37.088388,32 L 22.160133,31.978069 C 22.160133,31.978069 26.997745,27.140456 26.997745,27.140456 C 18.528582,18.264221 13.291696,25.230495 11.500037,31.436501 z"
             style="fill:#404040;"/>
          </a>
         </g>
        </svg>
</svg>
