<?xml version="1.0" encoding="UTF-8" standalone="no"?>
<!DOCTYPE svg PUBLIC "-//W3C//DTD SVG 1.1//EN"
 "http://www.w3.org/Graphics/SVG/1.1/DTD/svg11.dtd">
<!-- Generated by graphviz version 2.26.3 (20100126.1600)
 -->
<!-- Title: blond::optionparser::PrintUsageImplementation::LinePartIterator::nextRow Pages: 1 -->
<svg width="326pt" height="56pt"
 viewBox="0.00 0.00 326.00 56.00" xmlns="http://www.w3.org/2000/svg" xmlns:xlink="http://www.w3.org/1999/xlink">
<g id="graph1" class="graph" transform="scale(1 1) rotate(0) translate(4 52)">
<title>blond::optionparser::PrintUsageImplementation::LinePartIterator::nextRow</title>
<polygon fill="white" stroke="white" points="-4,5 -4,-52 323,-52 323,5 -4,5"/>
<!-- Node1 -->
<g id="node1" class="node"><title>Node1</title>
<polygon fill="#bfbfbf" stroke="black" points="0,-0.5 0,-47.5 138,-47.5 138,-0.5 0,-0.5"/>
<text text-anchor="start" x="8" y="-34.5" font-family="Helvetica,sans-Serif" font-size="10.00">blond::optionparser</text>
<text text-anchor="start" x="8" y="-21.5" font-family="Helvetica,sans-Serif" font-size="10.00">::PrintUsageImplementation</text>
<text text-anchor="middle" x="69" y="-8.5" font-family="Helvetica,sans-Serif" font-size="10.00">::LinePartIterator::nextRow</text>
</g>
<!-- Node2 -->
<g id="node3" class="node"><title>Node2</title>
<a xlink:href="../../d0/d3d/classblond_1_1optionparser_1_1PrintUsageImplementation_1_1LinePartIterator.html#a0e51f40eed4bdc9998662d2b43bf1930" target="_top" xlink:title="Reset iteration to the beginning of the current row.">
<polygon fill="white" stroke="black" points="174.5,-0.5 174.5,-47.5 317.5,-47.5 317.5,-0.5 174.5,-0.5"/>
<text text-anchor="start" x="182.5" y="-34.5" font-family="Helvetica,sans-Serif" font-size="10.00">blond::optionparser</text>
<text text-anchor="start" x="182.5" y="-21.5" font-family="Helvetica,sans-Serif" font-size="10.00">::PrintUsageImplementation</text>
<text text-anchor="middle" x="246" y="-8.5" font-family="Helvetica,sans-Serif" font-size="10.00">::LinePartIterator::restartRow</text>
</a>
</g>
<!-- Node1&#45;&gt;Node2 -->
<g id="edge2" class="edge"><title>Node1&#45;&gt;Node2</title>
<path fill="none" stroke="midnightblue" d="M138.193,-24C146.695,-24 155.447,-24 164.114,-24"/>
<polygon fill="midnightblue" stroke="midnightblue" points="164.23,-27.5001 174.23,-24 164.23,-20.5001 164.23,-27.5001"/>
</g>
</g>
</svg>
