<?xml version="1.0" encoding="UTF-8" standalone="no"?>
<!DOCTYPE svg PUBLIC "-//W3C//DTD SVG 1.1//EN"
 "http://www.w3.org/Graphics/SVG/1.1/DTD/svg11.dtd">
<!-- Generated by graphviz version 2.26.3 (20100126.1600)
 -->
<!-- Title: blond::optionparser::PrintUsageImplementation::LinePartIterator::update_length Pages: 1 -->
<svg width="648pt" height="56pt"
 viewBox="0.00 0.00 648.00 56.00" xmlns="http://www.w3.org/2000/svg" xmlns:xlink="http://www.w3.org/1999/xlink">
<g id="graph1" class="graph" transform="scale(1 1) rotate(0) translate(4 52)">
<title>blond::optionparser::PrintUsageImplementation::LinePartIterator::update_length</title>
<polygon fill="white" stroke="white" points="-4,5 -4,-52 645,-52 645,5 -4,5"/>
<!-- Node1 -->
<g id="node1" class="node"><title>Node1</title>
<polygon fill="#bfbfbf" stroke="black" points="0,-0.5 0,-47.5 156,-47.5 156,-0.5 0,-0.5"/>
<text text-anchor="start" x="8" y="-34.5" font-family="Helvetica,sans-Serif" font-size="10.00">blond::optionparser</text>
<text text-anchor="start" x="8" y="-21.5" font-family="Helvetica,sans-Serif" font-size="10.00">::PrintUsageImplementation</text>
<text text-anchor="middle" x="78" y="-8.5" font-family="Helvetica,sans-Serif" font-size="10.00">::LinePartIterator::update_length</text>
</g>
<!-- Node2 -->
<g id="node3" class="node"><title>Node2</title>
<a xlink:href="../../d0/d3d/classblond_1_1optionparser_1_1PrintUsageImplementation_1_1LinePartIterator.html#a99d6e09b27f21ba2ff51dc5f9a3da817" target="_top" xlink:title="Moves iteration to the next part (if any). Has to be called once after each call to nextRow() to move...">
<polygon fill="white" stroke="black" points="192,-0.5 192,-47.5 330,-47.5 330,-0.5 192,-0.5"/>
<text text-anchor="start" x="200" y="-34.5" font-family="Helvetica,sans-Serif" font-size="10.00">blond::optionparser</text>
<text text-anchor="start" x="200" y="-21.5" font-family="Helvetica,sans-Serif" font-size="10.00">::PrintUsageImplementation</text>
<text text-anchor="middle" x="261" y="-8.5" font-family="Helvetica,sans-Serif" font-size="10.00">::LinePartIterator::next</text>
</a>
</g>
<!-- Node1&#45;&gt;Node2 -->
<g id="edge2" class="edge"><title>Node1&#45;&gt;Node2</title>
<path fill="none" stroke="midnightblue" d="M166.194,-24C174.789,-24 183.424,-24 191.793,-24"/>
<polygon fill="midnightblue" stroke="midnightblue" points="166.139,-20.5001 156.139,-24 166.139,-27.5001 166.139,-20.5001"/>
</g>
<!-- Node3 -->
<g id="node5" class="node"><title>Node3</title>
<a xlink:href="../../d6/d32/structblond_1_1optionparser_1_1PrintUsageImplementation.html#a6c367f953aee7147ad3ba5fd39b6821b" target="_top" xlink:title="blond::optionparser\l::PrintUsageImplementation\l::printUsage">
<polygon fill="white" stroke="black" points="366,-0.5 366,-47.5 504,-47.5 504,-0.5 366,-0.5"/>
<text text-anchor="start" x="374" y="-34.5" font-family="Helvetica,sans-Serif" font-size="10.00">blond::optionparser</text>
<text text-anchor="start" x="374" y="-21.5" font-family="Helvetica,sans-Serif" font-size="10.00">::PrintUsageImplementation</text>
<text text-anchor="middle" x="435" y="-8.5" font-family="Helvetica,sans-Serif" font-size="10.00">::printUsage</text>
</a>
</g>
<!-- Node2&#45;&gt;Node3 -->
<g id="edge4" class="edge"><title>Node2&#45;&gt;Node3</title>
<path fill="none" stroke="midnightblue" d="M340.035,-24C348.625,-24 357.319,-24 365.779,-24"/>
<polygon fill="midnightblue" stroke="midnightblue" points="340.019,-20.5001 330.019,-24 340.019,-27.5001 340.019,-20.5001"/>
</g>
<!-- Node4 -->
<g id="node7" class="node"><title>Node4</title>
<a xlink:href="../../d1/d2f/namespaceblond_1_1optionparser.html#a7cde80b4921a01fdb0ecb23580be9d45" target="_top" xlink:title="Outputs a nicely formatted usage string with support for multi&#45;column formatting and line&#45;wrapping...">
<polygon fill="white" stroke="black" points="540.5,-7 540.5,-41 639.5,-41 639.5,-7 540.5,-7"/>
<text text-anchor="start" x="548.5" y="-28" font-family="Helvetica,sans-Serif" font-size="10.00">blond::optionparser</text>
<text text-anchor="middle" x="590" y="-15" font-family="Helvetica,sans-Serif" font-size="10.00">::printUsage</text>
</a>
</g>
<!-- Node3&#45;&gt;Node4 -->
<g id="edge6" class="edge"><title>Node3&#45;&gt;Node4</title>
<path fill="none" stroke="midnightblue" d="M514.578,-24C523.309,-24 532.004,-24 540.221,-24"/>
<polygon fill="midnightblue" stroke="midnightblue" points="514.34,-20.5001 504.34,-24 514.34,-27.5001 514.34,-20.5001"/>
</g>
</g>
</svg>
