<?xml version="1.0" encoding="UTF-8" standalone="no"?>
<!DOCTYPE svg PUBLIC "-//W3C//DTD SVG 1.1//EN"
 "http://www.w3.org/Graphics/SVG/1.1/DTD/svg11.dtd">
<!-- Generated by graphviz version 2.26.3 (20100126.1600)
 -->
<!-- Title: configuration.h Pages: 1 -->
<svg width="2456pt" height="552pt"
 viewBox="0.00 0.00 2456.07 552.00" xmlns="http://www.w3.org/2000/svg" xmlns:xlink="http://www.w3.org/1999/xlink">
<g id="graph1" class="graph" transform="scale(1 1) rotate(0) translate(4 548)">
<title>configuration.h</title>
<polygon fill="white" stroke="white" points="-4,5 -4,-548 2453.07,-548 2453.07,5 -4,5"/>
<!-- Node1 -->
<g id="node1" class="node"><title>Node1</title>
<polygon fill="#bfbfbf" stroke="black" points="1173.07,-522.5 1173.07,-543.5 1253.07,-543.5 1253.07,-522.5 1173.07,-522.5"/>
<text text-anchor="middle" x="1213.07" y="-530.5" font-family="Helvetica,sans-Serif" font-size="10.00">configuration.h</text>
</g>
<!-- Node2 -->
<g id="node3" class="node"><title>Node2</title>
<a xlink:href="../../d7/d74/Beams_8h.html" target="_top" xlink:title="Beams.h">
<polygon fill="white" stroke="black" points="1638.07,-348.5 1638.07,-369.5 1694.07,-369.5 1694.07,-348.5 1638.07,-348.5"/>
<text text-anchor="middle" x="1666.07" y="-356.5" font-family="Helvetica,sans-Serif" font-size="10.00">Beams.h</text>
</a>
</g>
<!-- Node1&#45;&gt;Node2 -->
<g id="edge2" class="edge"><title>Node1&#45;&gt;Node2</title>
<path fill="none" stroke="midnightblue" d="M1263.39,-526.076C1361.96,-511.616 1575.71,-475.569 1631.07,-428 1649.3,-412.33 1659.15,-384.839 1663.42,-369.719"/>
<polygon fill="midnightblue" stroke="midnightblue" points="1262.76,-522.63 1253.37,-527.53 1263.76,-529.558 1262.76,-522.63"/>
</g>
<!-- Node10 -->
<g id="node19" class="node"><title>Node10</title>
<a xlink:href="../../dc/d7d/Distributions_8h.html" target="_top" xlink:title="Distributions.h">
<polygon fill="white" stroke="black" points="824.067,-0.5 824.067,-21.5 904.067,-21.5 904.067,-0.5 824.067,-0.5"/>
<text text-anchor="middle" x="864.067" y="-8.5" font-family="Helvetica,sans-Serif" font-size="10.00">Distributions.h</text>
</a>
</g>
<!-- Node1&#45;&gt;Node10 -->
<g id="edge76" class="edge"><title>Node1&#45;&gt;Node10</title>
<path fill="none" stroke="midnightblue" d="M1162.51,-532.664C961.065,-531.074 221.843,-522.764 124.067,-486 78.1985,-468.753 38.0672,-466.004 38.0672,-417 38.0672,-417 38.0672,-417 38.0672,-127 38.0672,-87.2228 59.6157,-76.0392 95.0672,-58 160.223,-24.8459 674.941,-14.0411 823.846,-11.5929"/>
<polygon fill="midnightblue" stroke="midnightblue" points="1162.77,-536.166 1172.8,-532.743 1162.82,-529.166 1162.77,-536.166"/>
</g>
<!-- Node11 -->
<g id="node21" class="node"><title>Node11</title>
<a xlink:href="../../d3/d33/PhaseLoop_8h.html" target="_top" xlink:title="PhaseLoop.h">
<polygon fill="white" stroke="black" points="1092.07,-116.5 1092.07,-137.5 1166.07,-137.5 1166.07,-116.5 1092.07,-116.5"/>
<text text-anchor="middle" x="1129.07" y="-124.5" font-family="Helvetica,sans-Serif" font-size="10.00">PhaseLoop.h</text>
</a>
</g>
<!-- Node1&#45;&gt;Node11 -->
<g id="edge176" class="edge"><title>Node1&#45;&gt;Node11</title>
<path fill="none" stroke="midnightblue" d="M1162.53,-531.37C1007.4,-526.167 539.477,-508.949 389.067,-486 264.498,-466.994 114.067,-543.011 114.067,-417 114.067,-417 114.067,-417 114.067,-301 114.067,-230.511 146.866,-207.161 209.067,-174 248.627,-152.91 924.828,-132.704 1091.95,-128.016"/>
<polygon fill="midnightblue" stroke="midnightblue" points="1162.61,-534.874 1172.72,-531.709 1162.84,-527.878 1162.61,-534.874"/>
</g>
<!-- Node13 -->
<g id="node25" class="node"><title>Node13</title>
<a xlink:href="../../d0/da6/Monitors_8h.html" target="_top" xlink:title="Monitors.h">
<polygon fill="white" stroke="black" points="1688.07,-58.5 1688.07,-79.5 1750.07,-79.5 1750.07,-58.5 1688.07,-58.5"/>
<text text-anchor="middle" x="1719.07" y="-66.5" font-family="Helvetica,sans-Serif" font-size="10.00">Monitors.h</text>
</a>
</g>
<!-- Node1&#45;&gt;Node13 -->
<g id="edge202" class="edge"><title>Node1&#45;&gt;Node13</title>
<path fill="none" stroke="midnightblue" d="M1263.46,-532.016C1456.22,-527.593 2136.07,-505.709 2136.07,-417 2136.07,-417 2136.07,-417 2136.07,-243 2136.07,-211.192 2139.07,-196.97 2117.07,-174 2088,-143.651 1977.66,-126.886 1937.07,-116 1871.25,-98.3484 1792.89,-82.7529 1750.35,-74.7295"/>
<polygon fill="midnightblue" stroke="midnightblue" points="1263.24,-528.519 1253.32,-532.242 1263.4,-535.518 1263.24,-528.519"/>
</g>
<!-- Node19 -->
<g id="node38" class="node"><title>Node19</title>
<a xlink:href="../../d9/dc8/PhaseNoise_8h.html" target="_top" xlink:title="PhaseNoise.h">
<polygon fill="white" stroke="black" points="1012.07,-174.5 1012.07,-195.5 1090.07,-195.5 1090.07,-174.5 1012.07,-174.5"/>
<text text-anchor="middle" x="1051.07" y="-182.5" font-family="Helvetica,sans-Serif" font-size="10.00">PhaseNoise.h</text>
</a>
</g>
<!-- Node1&#45;&gt;Node19 -->
<g id="edge178" class="edge"><title>Node1&#45;&gt;Node19</title>
<path fill="none" stroke="midnightblue" d="M1162.81,-531.143C1053.62,-526.64 797.97,-513.435 716.067,-486 660.629,-467.43 604.067,-475.466 604.067,-417 604.067,-417 604.067,-417 604.067,-301 604.067,-269.192 598.704,-252.449 623.067,-232 688.037,-177.468 919.326,-209.503 1003.07,-196 1005.94,-195.537 1008.89,-195.003 1011.86,-194.426"/>
<polygon fill="midnightblue" stroke="midnightblue" points="1162.78,-534.644 1172.91,-531.552 1163.06,-527.65 1162.78,-534.644"/>
</g>
<!-- Node26 -->
<g id="node59" class="node"><title>Node26</title>
<a xlink:href="../../de/d44/trackers_2utilities_8h.html" target="_top" xlink:title="utilities.h">
<polygon fill="white" stroke="black" points="768.067,-232.5 768.067,-253.5 824.067,-253.5 824.067,-232.5 768.067,-232.5"/>
<text text-anchor="middle" x="796.067" y="-240.5" font-family="Helvetica,sans-Serif" font-size="10.00">utilities.h</text>
</a>
</g>
<!-- Node1&#45;&gt;Node26 -->
<g id="edge230" class="edge"><title>Node1&#45;&gt;Node26</title>
<path fill="none" stroke="midnightblue" d="M1162.73,-530.816C1044.14,-524.301 757.067,-499.962 757.067,-417 757.067,-417 757.067,-417 757.067,-359 757.067,-318.419 778.777,-273.82 789.801,-253.789"/>
<polygon fill="midnightblue" stroke="midnightblue" points="1162.83,-534.326 1173,-531.358 1163.2,-527.335 1162.83,-534.326"/>
</g>
<!-- Node28 -->
<g id="node67" class="node"><title>Node28</title>
<a xlink:href="../../dc/df2/Slices_8h.html" target="_top" xlink:title="Slices.h">
<polygon fill="white" stroke="black" points="1559.07,-290.5 1559.07,-311.5 1611.07,-311.5 1611.07,-290.5 1559.07,-290.5"/>
<text text-anchor="middle" x="1585.07" y="-298.5" font-family="Helvetica,sans-Serif" font-size="10.00">Slices.h</text>
</a>
</g>
<!-- Node1&#45;&gt;Node28 -->
<g id="edge78" class="edge"><title>Node1&#45;&gt;Node28</title>
<path fill="none" stroke="midnightblue" d="M1263.44,-530.874C1372.26,-525.852 1626.07,-511.701 1708.07,-486 1758.2,-470.286 1784.55,-473.356 1811.07,-428 1858.25,-347.278 1680.02,-313.933 1611.15,-304.231"/>
<polygon fill="midnightblue" stroke="midnightblue" points="1263.2,-527.381 1253.37,-531.332 1263.52,-534.374 1263.2,-527.381"/>
</g>
<!-- Node31 -->
<g id="node79" class="node"><title>Node31</title>
<a xlink:href="../../d2/d6f/constants_8h.html" target="_top" xlink:title="constants.h">
<polygon fill="white" stroke="black" points="270.067,-290.5 270.067,-311.5 338.067,-311.5 338.067,-290.5 270.067,-290.5"/>
<text text-anchor="middle" x="304.067" y="-298.5" font-family="Helvetica,sans-Serif" font-size="10.00">constants.h</text>
</a>
</g>
<!-- Node1&#45;&gt;Node31 -->
<g id="edge96" class="edge"><title>Node1&#45;&gt;Node31</title>
<path fill="none" stroke="midnightblue" d="M1162.48,-532.655C997.914,-531.17 484.694,-523.543 421.067,-486 351.681,-445.059 316.978,-345.055 307.099,-311.888"/>
<polygon fill="midnightblue" stroke="midnightblue" points="1162.78,-536.158 1172.81,-532.744 1162.84,-529.158 1162.78,-536.158"/>
</g>
<!-- Node34 -->
<g id="node95" class="node"><title>Node34</title>
<a xlink:href="../../d7/d76/fft_8h.html" target="_top" xlink:title="fft.h">
<polygon fill="white" stroke="black" points="1234.07,-232.5 1234.07,-253.5 1268.07,-253.5 1268.07,-232.5 1234.07,-232.5"/>
<text text-anchor="middle" x="1251.07" y="-240.5" font-family="Helvetica,sans-Serif" font-size="10.00">fft.h</text>
</a>
</g>
<!-- Node1&#45;&gt;Node34 -->
<g id="edge122" class="edge"><title>Node1&#45;&gt;Node34</title>
<path fill="none" stroke="midnightblue" d="M1231.62,-514.899C1238.72,-506.783 1246.07,-496.645 1250.07,-486 1281.81,-401.483 1261.18,-288.461 1253.56,-253.651"/>
<polygon fill="midnightblue" stroke="midnightblue" points="1229,-512.584 1224.74,-522.286 1234.12,-517.357 1229,-512.584"/>
</g>
<!-- Node35 -->
<g id="node100" class="node"><title>Node35</title>
<a xlink:href="../../d9/dee/InducedVoltage_8h.html" target="_top" xlink:title="InducedVoltage.h">
<polygon fill="white" stroke="black" points="918.067,-232.5 918.067,-253.5 1010.07,-253.5 1010.07,-232.5 918.067,-232.5"/>
<text text-anchor="middle" x="964.067" y="-240.5" font-family="Helvetica,sans-Serif" font-size="10.00">InducedVoltage.h</text>
</a>
</g>
<!-- Node1&#45;&gt;Node35 -->
<g id="edge130" class="edge"><title>Node1&#45;&gt;Node35</title>
<path fill="none" stroke="midnightblue" d="M1163.19,-520.296C1116.39,-505.774 1047.95,-477.376 1009.07,-428 966.328,-373.723 963.381,-284.764 963.739,-253.929"/>
<polygon fill="midnightblue" stroke="midnightblue" points="1162.24,-523.667 1172.83,-523.187 1164.26,-516.962 1162.24,-523.667"/>
</g>
<!-- Node36 -->
<g id="node105" class="node"><title>Node36</title>
<a xlink:href="../../d6/d70/Intensity_8h.html" target="_top" xlink:title="Intensity.h">
<polygon fill="white" stroke="black" points="667.067,-406.5 667.067,-427.5 729.067,-427.5 729.067,-406.5 667.067,-406.5"/>
<text text-anchor="middle" x="698.067" y="-414.5" font-family="Helvetica,sans-Serif" font-size="10.00">Intensity.h</text>
</a>
</g>
<!-- Node1&#45;&gt;Node36 -->
<g id="edge138" class="edge"><title>Node1&#45;&gt;Node36</title>
<path fill="none" stroke="midnightblue" d="M1162.55,-530.409C1048.52,-524.209 778.315,-507.431 743.067,-486 720.827,-472.478 707.465,-443.308 701.599,-427.574"/>
<polygon fill="midnightblue" stroke="midnightblue" points="1162.59,-533.916 1172.76,-530.958 1162.97,-526.926 1162.59,-533.916"/>
</g>
<!-- Node37 -->
<g id="node109" class="node"><title>Node37</title>
<a xlink:href="../../d5/d34/GeneralParameters_8h.html" target="_top" xlink:title="GeneralParameters.h">
<polygon fill="white" stroke="black" points="1693.57,-406.5 1693.57,-427.5 1802.57,-427.5 1802.57,-406.5 1693.57,-406.5"/>
<text text-anchor="middle" x="1748.07" y="-414.5" font-family="Helvetica,sans-Serif" font-size="10.00">GeneralParameters.h</text>
</a>
</g>
<!-- Node1&#45;&gt;Node37 -->
<g id="edge144" class="edge"><title>Node1&#45;&gt;Node37</title>
<path fill="none" stroke="midnightblue" d="M1263.44,-532.208C1368.54,-529.87 1607.43,-520.776 1680.07,-486 1707.68,-472.782 1730.4,-443.484 1741.23,-427.65"/>
<polygon fill="midnightblue" stroke="midnightblue" points="1263.32,-528.71 1253.4,-532.42 1263.47,-535.708 1263.32,-528.71"/>
</g>
<!-- Node38 -->
<g id="node120" class="node"><title>Node38</title>
<a xlink:href="../../d4/dba/LHCNoiseFB_8h.html" target="_top" xlink:title="LHCNoiseFB.h">
<polygon fill="white" stroke="black" points="1475.57,-232.5 1475.57,-253.5 1558.57,-253.5 1558.57,-232.5 1475.57,-232.5"/>
<text text-anchor="middle" x="1517.07" y="-240.5" font-family="Helvetica,sans-Serif" font-size="10.00">LHCNoiseFB.h</text>
</a>
</g>
<!-- Node1&#45;&gt;Node38 -->
<g id="edge164" class="edge"><title>Node1&#45;&gt;Node38</title>
<path fill="none" stroke="midnightblue" d="M1233.32,-515.835C1243.55,-507.044 1256.1,-496.092 1267.07,-486 1361.95,-398.717 1472.01,-288.455 1506.31,-253.877"/>
<polygon fill="midnightblue" stroke="midnightblue" points="1231.01,-513.206 1225.68,-522.364 1235.55,-518.528 1231.01,-513.206"/>
</g>
<!-- Node39 -->
<g id="node129" class="node"><title>Node39</title>
<a xlink:href="../../d2/de2/math__functions_8h.html" target="_top" xlink:title="math_functions.h">
<polygon fill="white" stroke="black" points="370.067,-232.5 370.067,-253.5 462.067,-253.5 462.067,-232.5 370.067,-232.5"/>
<text text-anchor="middle" x="416.067" y="-240.5" font-family="Helvetica,sans-Serif" font-size="10.00">math_functions.h</text>
</a>
</g>
<!-- Node1&#45;&gt;Node39 -->
<g id="edge180" class="edge"><title>Node1&#45;&gt;Node39</title>
<path fill="none" stroke="midnightblue" d="M1162.47,-531.415C1034.07,-527.036 698.119,-513.252 590.067,-486 516.951,-467.559 435.067,-492.406 435.067,-417 435.067,-417 435.067,-417 435.067,-359 435.067,-319.818 424.38,-274.159 419.036,-253.778"/>
<polygon fill="midnightblue" stroke="midnightblue" points="1162.68,-534.924 1172.8,-531.762 1162.92,-527.928 1162.68,-534.924"/>
</g>
<!-- Node40 -->
<g id="node142" class="node"><title>Node40</title>
<a xlink:href="../../d8/d1b/plot__parameters_8h.html" target="_top" xlink:title="plot_parameters.h">
<polygon fill="white" stroke="black" points="2353.57,-174.5 2353.57,-195.5 2448.57,-195.5 2448.57,-174.5 2353.57,-174.5"/>
<text text-anchor="middle" x="2401.07" y="-182.5" font-family="Helvetica,sans-Serif" font-size="10.00">plot_parameters.h</text>
</a>
</g>
<!-- Node1&#45;&gt;Node40 -->
<g id="edge204" class="edge"><title>Node1&#45;&gt;Node40</title>
<path fill="none" stroke="midnightblue" d="M1263.25,-531.682C1448.32,-526.665 2086.4,-507.936 2175.07,-486 2245.52,-468.57 2323.07,-489.575 2323.07,-417 2323.07,-417 2323.07,-417 2323.07,-301 2323.07,-255.376 2365.13,-214.202 2387.48,-195.548"/>
<polygon fill="midnightblue" stroke="midnightblue" points="1263.15,-528.183 1253.25,-531.951 1263.34,-535.181 1263.15,-528.183"/>
</g>
<!-- Node42 -->
<g id="node146" class="node"><title>Node42</title>
<a xlink:href="../../d1/da8/python_8h.html" target="_top" xlink:title="python.h">
<polygon fill="white" stroke="black" points="2164.07,-232.5 2164.07,-253.5 2218.07,-253.5 2218.07,-232.5 2164.07,-232.5"/>
<text text-anchor="middle" x="2191.07" y="-240.5" font-family="Helvetica,sans-Serif" font-size="10.00">python.h</text>
</a>
</g>
<!-- Node1&#45;&gt;Node42 -->
<g id="edge208" class="edge"><title>Node1&#45;&gt;Node42</title>
<path fill="none" stroke="midnightblue" d="M1263.52,-531.893C1452.97,-527.555 2112.93,-510.723 2150.07,-486 2178.36,-467.161 2183.07,-450.993 2183.07,-417 2183.07,-417 2183.07,-417 2183.07,-359 2183.07,-320.04 2187.61,-273.893 2189.85,-253.539"/>
<polygon fill="midnightblue" stroke="midnightblue" points="1263.21,-528.4 1253.29,-532.126 1263.37,-535.398 1263.21,-528.4"/>
</g>
<!-- Node43 -->
<g id="node159" class="node"><title>Node43</title>
<a xlink:href="../../de/df0/utilities_8h.html" target="_top" xlink:title="utilities.h">
<polygon fill="white" stroke="black" points="1185.07,-464.5 1185.07,-485.5 1241.07,-485.5 1241.07,-464.5 1185.07,-464.5"/>
<text text-anchor="middle" x="1213.07" y="-472.5" font-family="Helvetica,sans-Serif" font-size="10.00">utilities.h</text>
</a>
</g>
<!-- Node1&#45;&gt;Node43 -->
<g id="edge232" class="edge"><title>Node1&#45;&gt;Node43</title>
<path fill="none" stroke="midnightblue" d="M1213.07,-512.191C1213.07,-503.168 1213.07,-492.994 1213.07,-485.571"/>
<polygon fill="midnightblue" stroke="midnightblue" points="1209.57,-512.362 1213.07,-522.362 1216.57,-512.362 1209.57,-512.362"/>
</g>
<!-- Node3 -->
<g id="node5" class="node"><title>Node3</title>
<a xlink:href="../../dc/d0f/Beams_8cpp.html" target="_top" xlink:title="Beams.cpp">
<polygon fill="white" stroke="black" points="506.067,-174.5 506.067,-195.5 572.067,-195.5 572.067,-174.5 506.067,-174.5"/>
<text text-anchor="middle" x="539.067" y="-182.5" font-family="Helvetica,sans-Serif" font-size="10.00">Beams.cpp</text>
</a>
</g>
<!-- Node2&#45;&gt;Node3 -->
<g id="edge4" class="edge"><title>Node2&#45;&gt;Node3</title>
<path fill="none" stroke="midnightblue" d="M1627.89,-355.665C1516.33,-345.502 1181.56,-312.022 909.067,-254 874.674,-246.677 867.383,-239.679 833.067,-232 739.497,-211.061 627.163,-195.79 572.388,-188.966"/>
<polygon fill="midnightblue" stroke="midnightblue" points="1627.7,-359.163 1637.98,-356.576 1628.33,-352.191 1627.7,-359.163"/>
</g>
<!-- Node4 -->
<g id="node7" class="node"><title>Node4</title>
<a xlink:href="../../d5/d87/globals_8h.html" target="_top" xlink:title="globals.h">
<polygon fill="white" stroke="black" points="1364.07,-232.5 1364.07,-253.5 1420.07,-253.5 1420.07,-232.5 1364.07,-232.5"/>
<text text-anchor="middle" x="1392.07" y="-240.5" font-family="Helvetica,sans-Serif" font-size="10.00">globals.h</text>
</a>
</g>
<!-- Node2&#45;&gt;Node4 -->
<g id="edge6" class="edge"><title>Node2&#45;&gt;Node4</title>
<path fill="none" stroke="midnightblue" d="M1629.91,-344.64C1606.97,-335.458 1576.7,-323.21 1550.07,-312 1502.2,-291.855 1446.64,-267.323 1415.8,-253.603"/>
<polygon fill="midnightblue" stroke="midnightblue" points="1628.68,-347.915 1639.26,-348.375 1631.27,-341.415 1628.68,-347.915"/>
</g>
<!-- Node2&#45;&gt;Node13 -->
<g id="edge72" class="edge"><title>Node2&#45;&gt;Node13</title>
<path fill="none" stroke="midnightblue" d="M1669.85,-338.326C1680.29,-281.196 1709.28,-122.569 1717.1,-79.7622"/>
<polygon fill="midnightblue" stroke="midnightblue" points="1666.37,-337.868 1668.02,-348.335 1673.26,-339.127 1666.37,-337.868"/>
</g>
<!-- Node21 -->
<g id="node43" class="node"><title>Node21</title>
<a xlink:href="../../d6/db7/RfParameters_8h.html" target="_top" xlink:title="RfParameters.h">
<polygon fill="white" stroke="black" points="1705.07,-290.5 1705.07,-311.5 1791.07,-311.5 1791.07,-290.5 1705.07,-290.5"/>
<text text-anchor="middle" x="1748.07" y="-298.5" font-family="Helvetica,sans-Serif" font-size="10.00">RfParameters.h</text>
</a>
</g>
<!-- Node2&#45;&gt;Node21 -->
<g id="edge44" class="edge"><title>Node2&#45;&gt;Node21</title>
<path fill="none" stroke="midnightblue" d="M1683.93,-341.975C1696.9,-332.132 1714.26,-320.055 1727.77,-311.571"/>
<polygon fill="midnightblue" stroke="midnightblue" points="1681.47,-339.45 1675.74,-348.362 1685.78,-344.969 1681.47,-339.45"/>
</g>
<!-- Node22 -->
<g id="node49" class="node"><title>Node22</title>
<a xlink:href="../../d8/d94/plot__beams_8h.html" target="_top" xlink:title="plot_beams.h">
<polygon fill="white" stroke="black" points="1803.57,-232.5 1803.57,-253.5 1878.57,-253.5 1878.57,-232.5 1803.57,-232.5"/>
<text text-anchor="middle" x="1841.07" y="-240.5" font-family="Helvetica,sans-Serif" font-size="10.00">plot_beams.h</text>
</a>
</g>
<!-- Node2&#45;&gt;Node22 -->
<g id="edge74" class="edge"><title>Node2&#45;&gt;Node22</title>
<path fill="none" stroke="midnightblue" d="M1704.36,-352.89C1733.24,-346.669 1772.46,-334.601 1800.07,-312 1819.37,-296.2 1831.72,-268.761 1837.41,-253.684"/>
<polygon fill="midnightblue" stroke="midnightblue" points="1703.34,-349.525 1694.23,-354.926 1704.72,-356.387 1703.34,-349.525"/>
</g>
<!-- Node5 -->
<g id="node9" class="node"><title>Node5</title>
<a xlink:href="../../d7/d91/Slices_8cpp.html" target="_top" xlink:title="Slices.cpp">
<polygon fill="white" stroke="black" points="1420.07,-174.5 1420.07,-195.5 1482.07,-195.5 1482.07,-174.5 1420.07,-174.5"/>
<text text-anchor="middle" x="1451.07" y="-182.5" font-family="Helvetica,sans-Serif" font-size="10.00">Slices.cpp</text>
</a>
</g>
<!-- Node4&#45;&gt;Node5 -->
<g id="edge8" class="edge"><title>Node4&#45;&gt;Node5</title>
<path fill="none" stroke="midnightblue" d="M1410.26,-225.118C1420.1,-215.438 1431.93,-203.81 1440.31,-195.571"/>
<polygon fill="midnightblue" stroke="midnightblue" points="1407.57,-222.856 1402.89,-232.362 1412.47,-227.847 1407.57,-222.856"/>
</g>
<!-- Node6 -->
<g id="node11" class="node"><title>Node6</title>
<a xlink:href="../../da/d77/globals_8cpp.html" target="_top" xlink:title="globals.cpp">
<polygon fill="white" stroke="black" points="1336.07,-174.5 1336.07,-195.5 1402.07,-195.5 1402.07,-174.5 1336.07,-174.5"/>
<text text-anchor="middle" x="1369.07" y="-182.5" font-family="Helvetica,sans-Serif" font-size="10.00">globals.cpp</text>
</a>
</g>
<!-- Node4&#45;&gt;Node6 -->
<g id="edge10" class="edge"><title>Node4&#45;&gt;Node6</title>
<path fill="none" stroke="midnightblue" d="M1384.05,-222.784C1380.42,-213.617 1376.27,-203.157 1373.26,-195.571"/>
<polygon fill="midnightblue" stroke="midnightblue" points="1380.91,-224.356 1387.85,-232.362 1387.42,-221.776 1380.91,-224.356"/>
</g>
<!-- Node7 -->
<g id="node13" class="node"><title>Node7</title>
<a xlink:href="../../d5/dfa/InducedVoltage_8cpp.html" target="_top" xlink:title="InducedVoltage.cpp">
<polygon fill="white" stroke="black" points="665.567,-174.5 665.567,-195.5 768.567,-195.5 768.567,-174.5 665.567,-174.5"/>
<text text-anchor="middle" x="717.067" y="-182.5" font-family="Helvetica,sans-Serif" font-size="10.00">InducedVoltage.cpp</text>
</a>
</g>
<!-- Node4&#45;&gt;Node7 -->
<g id="edge12" class="edge"><title>Node4&#45;&gt;Node7</title>
<path fill="none" stroke="midnightblue" d="M1353.63,-239.096C1331.29,-236.884 1302.6,-234.14 1277.07,-232 1055.05,-213.392 998.082,-224.13 777.067,-196 774.336,-195.652 771.54,-195.262 768.722,-194.841"/>
<polygon fill="midnightblue" stroke="midnightblue" points="1353.43,-242.593 1363.73,-240.102 1354.12,-235.628 1353.43,-242.593"/>
</g>
<!-- Node8 -->
<g id="node15" class="node"><title>Node8</title>
<a xlink:href="../../dc/d61/RfParameters_8cpp.html" target="_top" xlink:title="RfParameters.cpp">
<polygon fill="white" stroke="black" points="786.067,-174.5 786.067,-195.5 882.067,-195.5 882.067,-174.5 786.067,-174.5"/>
<text text-anchor="middle" x="834.067" y="-182.5" font-family="Helvetica,sans-Serif" font-size="10.00">RfParameters.cpp</text>
</a>
</g>
<!-- Node4&#45;&gt;Node8 -->
<g id="edge14" class="edge"><title>Node4&#45;&gt;Node8</title>
<path fill="none" stroke="midnightblue" d="M1353.87,-232.691C1352.59,-232.443 1351.32,-232.212 1350.07,-232 1148.29,-197.943 1093.85,-223.43 891.067,-196 888.171,-195.608 885.199,-195.164 882.207,-194.684"/>
<polygon fill="midnightblue" stroke="midnightblue" points="1353.23,-236.134 1363.75,-234.853 1354.73,-229.296 1353.23,-236.134"/>
</g>
<!-- Node9 -->
<g id="node17" class="node"><title>Node9</title>
<a xlink:href="../../d3/db7/LHCNoiseFB_8cpp.html" target="_top" xlink:title="LHCNoiseFB.cpp">
<polygon fill="white" stroke="black" points="900.067,-174.5 900.067,-195.5 994.067,-195.5 994.067,-174.5 900.067,-174.5"/>
<text text-anchor="middle" x="947.067" y="-182.5" font-family="Helvetica,sans-Serif" font-size="10.00">LHCNoiseFB.cpp</text>
</a>
</g>
<!-- Node4&#45;&gt;Node9 -->
<g id="edge16" class="edge"><title>Node4&#45;&gt;Node9</title>
<path fill="none" stroke="midnightblue" d="M1353.87,-232.732C1352.59,-232.473 1351.32,-232.227 1350.07,-232 1197.52,-204.277 1156.41,-218.966 1003.07,-196 1000.13,-195.56 997.108,-195.072 994.067,-194.553"/>
<polygon fill="midnightblue" stroke="midnightblue" points="1353.21,-236.172 1363.73,-234.952 1354.74,-229.342 1353.21,-236.172"/>
</g>
<!-- Node4&#45;&gt;Node10 -->
<g id="edge18" class="edge"><title>Node4&#45;&gt;Node10</title>
<path fill="none" stroke="midnightblue" d="M1368.09,-226.402C1355.66,-217.613 1340.34,-206.493 1327.07,-196 1253.4,-137.768 1252.32,-97.3858 1167.07,-58 1120.98,-36.7059 975.347,-21.0506 904.103,-14.4535"/>
<polygon fill="midnightblue" stroke="midnightblue" points="1366.36,-229.466 1376.56,-232.347 1370.38,-223.737 1366.36,-229.466"/>
</g>
<!-- Node4&#45;&gt;Node11 -->
<g id="edge20" class="edge"><title>Node4&#45;&gt;Node11</title>
<path fill="none" stroke="midnightblue" d="M1354.26,-231.781C1326.61,-223.134 1288.44,-210.27 1256.07,-196 1215.43,-178.084 1170.27,-151.958 1146.27,-137.539"/>
<polygon fill="midnightblue" stroke="midnightblue" points="1353.35,-235.165 1363.94,-234.771 1355.42,-228.476 1353.35,-235.165"/>
</g>
<!-- Node4&#45;&gt;Node19 -->
<g id="edge38" class="edge"><title>Node4&#45;&gt;Node19</title>
<path fill="none" stroke="midnightblue" d="M1353.85,-232.818C1352.58,-232.534 1351.31,-232.26 1350.07,-232 1257.74,-212.704 1147.89,-197.36 1090.48,-189.913"/>
<polygon fill="midnightblue" stroke="midnightblue" points="1353.15,-236.25 1363.69,-235.157 1354.77,-229.44 1353.15,-236.25"/>
</g>
<!-- Node12 -->
<g id="node23" class="node"><title>Node12</title>
<a xlink:href="../../db/dee/PhaseLoop_8cpp.html" target="_top" xlink:title="PhaseLoop.cpp">
<polygon fill="white" stroke="black" points="244.067,-58.5 244.067,-79.5 328.067,-79.5 328.067,-58.5 244.067,-58.5"/>
<text text-anchor="middle" x="286.067" y="-66.5" font-family="Helvetica,sans-Serif" font-size="10.00">PhaseLoop.cpp</text>
</a>
</g>
<!-- Node11&#45;&gt;Node12 -->
<g id="edge22" class="edge"><title>Node11&#45;&gt;Node12</title>
<path fill="none" stroke="midnightblue" d="M1081.8,-123.748C932.159,-113.452 470.277,-81.674 328.134,-71.8943"/>
<polygon fill="midnightblue" stroke="midnightblue" points="1081.81,-127.257 1092.03,-124.452 1082.29,-120.274 1081.81,-127.257"/>
</g>
<!-- Node11&#45;&gt;Node13 -->
<g id="edge24" class="edge"><title>Node11&#45;&gt;Node13</title>
<path fill="none" stroke="midnightblue" d="M1176.46,-122.341C1292.85,-110.899 1590.39,-81.65 1687.73,-72.081"/>
<polygon fill="midnightblue" stroke="midnightblue" points="1176.03,-118.866 1166.42,-123.328 1176.72,-125.833 1176.03,-118.866"/>
</g>
<!-- Node17 -->
<g id="node33" class="node"><title>Node17</title>
<a xlink:href="../../d2/d0e/Tracker_8h.html" target="_top" xlink:title="Tracker.h">
<polygon fill="white" stroke="black" points="1100.07,-58.5 1100.07,-79.5 1158.07,-79.5 1158.07,-58.5 1100.07,-58.5"/>
<text text-anchor="middle" x="1129.07" y="-66.5" font-family="Helvetica,sans-Serif" font-size="10.00">Tracker.h</text>
</a>
</g>
<!-- Node11&#45;&gt;Node17 -->
<g id="edge32" class="edge"><title>Node11&#45;&gt;Node17</title>
<path fill="none" stroke="midnightblue" d="M1129.07,-106.191C1129.07,-97.1684 1129.07,-86.9941 1129.07,-79.5707"/>
<polygon fill="midnightblue" stroke="midnightblue" points="1125.57,-106.362 1129.07,-116.362 1132.57,-106.362 1125.57,-106.362"/>
</g>
<!-- Node14 -->
<g id="node27" class="node"><title>Node14</title>
<a xlink:href="../../da/dda/Monitors_8cpp.html" target="_top" xlink:title="Monitors.cpp">
<polygon fill="white" stroke="black" points="1682.57,-0.5 1682.57,-21.5 1755.57,-21.5 1755.57,-0.5 1682.57,-0.5"/>
<text text-anchor="middle" x="1719.07" y="-8.5" font-family="Helvetica,sans-Serif" font-size="10.00">Monitors.cpp</text>
</a>
</g>
<!-- Node13&#45;&gt;Node14 -->
<g id="edge26" class="edge"><title>Node13&#45;&gt;Node14</title>
<path fill="none" stroke="midnightblue" d="M1719.07,-48.1906C1719.07,-39.1684 1719.07,-28.9941 1719.07,-21.5707"/>
<polygon fill="midnightblue" stroke="midnightblue" points="1715.57,-48.3619 1719.07,-58.3619 1722.57,-48.3619 1715.57,-48.3619"/>
</g>
<!-- Node15 -->
<g id="node29" class="node"><title>Node15</title>
<a xlink:href="../../d3/d2c/plot__beams_8cpp.html" target="_top" xlink:title="plot_beams.cpp">
<polygon fill="white" stroke="black" points="1843.07,-0.5 1843.07,-21.5 1929.07,-21.5 1929.07,-0.5 1843.07,-0.5"/>
<text text-anchor="middle" x="1886.07" y="-8.5" font-family="Helvetica,sans-Serif" font-size="10.00">plot_beams.cpp</text>
</a>
</g>
<!-- Node13&#45;&gt;Node15 -->
<g id="edge28" class="edge"><title>Node13&#45;&gt;Node15</title>
<path fill="none" stroke="midnightblue" d="M1758.96,-55.1443C1788.68,-44.8229 1828.64,-30.9439 1855.77,-21.5231"/>
<polygon fill="midnightblue" stroke="midnightblue" points="1757.61,-51.9095 1749.31,-58.4966 1759.9,-58.522 1757.61,-51.9095"/>
</g>
<!-- Node16 -->
<g id="node31" class="node"><title>Node16</title>
<a xlink:href="../../d3/dca/plot__llrf_8cpp.html" target="_top" xlink:title="plot_llrf.cpp">
<polygon fill="white" stroke="black" points="2178.57,-0.5 2178.57,-21.5 2245.57,-21.5 2245.57,-0.5 2178.57,-0.5"/>
<text text-anchor="middle" x="2212.07" y="-8.5" font-family="Helvetica,sans-Serif" font-size="10.00">plot_llrf.cpp</text>
</a>
</g>
<!-- Node13&#45;&gt;Node16 -->
<g id="edge30" class="edge"><title>Node13&#45;&gt;Node16</title>
<path fill="none" stroke="midnightblue" d="M1760.43,-64.1337C1856.04,-52.8859 2090.83,-25.2627 2178.41,-14.9596"/>
<polygon fill="midnightblue" stroke="midnightblue" points="1759.8,-60.6833 1750.28,-65.3278 1760.62,-67.6354 1759.8,-60.6833"/>
</g>
<!-- Node17&#45;&gt;Node10 -->
<g id="edge36" class="edge"><title>Node17&#45;&gt;Node10</title>
<path fill="none" stroke="midnightblue" d="M1089.9,-60.428C1040.16,-49.5415 954.767,-30.8512 904.452,-19.8389"/>
<polygon fill="midnightblue" stroke="midnightblue" points="1089.43,-63.908 1099.95,-62.6271 1090.93,-57.0699 1089.43,-63.908"/>
</g>
<!-- Node18 -->
<g id="node35" class="node"><title>Node18</title>
<a xlink:href="../../d2/d6f/Tracker_8cpp.html" target="_top" xlink:title="Tracker.cpp">
<polygon fill="white" stroke="black" points="322.067,-0.5 322.067,-21.5 390.067,-21.5 390.067,-0.5 322.067,-0.5"/>
<text text-anchor="middle" x="356.067" y="-8.5" font-family="Helvetica,sans-Serif" font-size="10.00">Tracker.cpp</text>
</a>
</g>
<!-- Node17&#45;&gt;Node18 -->
<g id="edge34" class="edge"><title>Node17&#45;&gt;Node18</title>
<path fill="none" stroke="midnightblue" d="M1089.45,-66.0274C954.791,-55.9237 516.118,-23.009 390.166,-13.5585"/>
<polygon fill="midnightblue" stroke="midnightblue" points="1089.47,-69.539 1099.71,-66.7972 1090,-62.5587 1089.47,-69.539"/>
</g>
<!-- Node19&#45;&gt;Node11 -->
<g id="edge42" class="edge"><title>Node19&#45;&gt;Node11</title>
<path fill="none" stroke="midnightblue" d="M1073.58,-168.259C1086.89,-158.364 1103.33,-146.136 1114.85,-137.571"/>
<polygon fill="midnightblue" stroke="midnightblue" points="1071.31,-165.586 1065.37,-174.362 1075.49,-171.203 1071.31,-165.586"/>
</g>
<!-- Node20 -->
<g id="node40" class="node"><title>Node20</title>
<a xlink:href="../../db/d82/PhaseNoise_8cpp.html" target="_top" xlink:title="PhaseNoise.cpp">
<polygon fill="white" stroke="black" points="627.567,-116.5 627.567,-137.5 716.567,-137.5 716.567,-116.5 627.567,-116.5"/>
<text text-anchor="middle" x="672.067" y="-124.5" font-family="Helvetica,sans-Serif" font-size="10.00">PhaseNoise.cpp</text>
</a>
</g>
<!-- Node19&#45;&gt;Node20 -->
<g id="edge40" class="edge"><title>Node19&#45;&gt;Node20</title>
<path fill="none" stroke="midnightblue" d="M1001.76,-173.869C893.938,-154.204 778.532,-139.494 716.698,-132.126"/>
<polygon fill="midnightblue" stroke="midnightblue" points="1001.36,-177.355 1011.83,-175.725 1002.63,-170.471 1001.36,-177.355"/>
</g>
<!-- Node21&#45;&gt;Node2 -->
<g id="edge48" class="edge"><title>Node21&#45;&gt;Node2</title>
<path fill="none" stroke="midnightblue" d="M1730.31,-317.947C1717.36,-327.779 1700,-339.859 1686.47,-348.362"/>
<polygon fill="midnightblue" stroke="midnightblue" points="1732.75,-320.484 1738.47,-311.571 1728.44,-314.967 1732.75,-320.484"/>
</g>
<!-- Node21&#45;&gt;Node4 -->
<g id="edge50" class="edge"><title>Node21&#45;&gt;Node4</title>
<path fill="none" stroke="midnightblue" d="M1694.84,-292.328C1618.22,-279.846 1479.57,-257.255 1420.23,-247.589"/>
<polygon fill="midnightblue" stroke="midnightblue" points="1694.34,-295.792 1704.77,-293.946 1695.46,-288.883 1694.34,-295.792"/>
</g>
<!-- Node21&#45;&gt;Node8 -->
<g id="edge46" class="edge"><title>Node21&#45;&gt;Node8</title>
<path fill="none" stroke="midnightblue" d="M1694.79,-295.669C1603.01,-286.313 1418.82,-266.722 1355.07,-254 1319.74,-246.951 1312.48,-238.589 1277.07,-232 1107.67,-200.483 1061.64,-220.353 891.067,-196 888.174,-195.587 885.204,-195.126 882.214,-194.634"/>
<polygon fill="midnightblue" stroke="midnightblue" points="1694.67,-299.176 1704.98,-296.705 1695.38,-292.211 1694.67,-299.176"/>
</g>
<!-- Node21&#45;&gt;Node13 -->
<g id="edge52" class="edge"><title>Node21&#45;&gt;Node13</title>
<path fill="none" stroke="midnightblue" d="M1745.48,-280.335C1739.5,-232.5 1724.88,-115.508 1720.4,-79.6335"/>
<polygon fill="midnightblue" stroke="midnightblue" points="1742.03,-280.94 1746.75,-290.429 1748.98,-280.072 1742.03,-280.94"/>
</g>
<!-- Node21&#45;&gt;Node22 -->
<g id="edge54" class="edge"><title>Node21&#45;&gt;Node22</title>
<path fill="none" stroke="midnightblue" d="M1774.01,-284.821C1790.03,-274.831 1810.12,-262.299 1824.12,-253.571"/>
<polygon fill="midnightblue" stroke="midnightblue" points="1771.76,-282.1 1765.12,-290.362 1775.46,-288.04 1771.76,-282.1"/>
</g>
<!-- Node23 -->
<g id="node52" class="node"><title>Node23</title>
<a xlink:href="../../d3/dda/plot__llrf_8h.html" target="_top" xlink:title="plot_llrf.h">
<polygon fill="white" stroke="black" points="2052.07,-174.5 2052.07,-195.5 2108.07,-195.5 2108.07,-174.5 2052.07,-174.5"/>
<text text-anchor="middle" x="2080.07" y="-182.5" font-family="Helvetica,sans-Serif" font-size="10.00">plot_llrf.h</text>
</a>
</g>
<!-- Node21&#45;&gt;Node23 -->
<g id="edge58" class="edge"><title>Node21&#45;&gt;Node23</title>
<path fill="none" stroke="midnightblue" d="M1801.31,-295.718C1848.4,-289.719 1918.26,-277.536 1975.07,-254 2011.34,-238.972 2048.51,-210.965 2067.39,-195.66"/>
<polygon fill="midnightblue" stroke="midnightblue" points="1800.82,-292.251 1791.32,-296.941 1801.67,-299.199 1800.82,-292.251"/>
</g>
<!-- Node24 -->
<g id="node55" class="node"><title>Node24</title>
<a xlink:href="../../d2/d51/plot__slices_8h.html" target="_top" xlink:title="plot_slices.h">
<polygon fill="white" stroke="black" points="1895.57,-232.5 1895.57,-253.5 1966.57,-253.5 1966.57,-232.5 1895.57,-232.5"/>
<text text-anchor="middle" x="1931.07" y="-240.5" font-family="Helvetica,sans-Serif" font-size="10.00">plot_slices.h</text>
</a>
</g>
<!-- Node21&#45;&gt;Node24 -->
<g id="edge62" class="edge"><title>Node21&#45;&gt;Node24</title>
<path fill="none" stroke="midnightblue" d="M1790.94,-287.413C1823.59,-277.065 1867.88,-263.026 1897.87,-253.523"/>
<polygon fill="midnightblue" stroke="midnightblue" points="1789.68,-284.139 1781.21,-290.497 1791.8,-290.812 1789.68,-284.139"/>
</g>
<!-- Node21&#45;&gt;Node26 -->
<g id="edge66" class="edge"><title>Node21&#45;&gt;Node26</title>
<path fill="none" stroke="midnightblue" d="M1694.62,-295.985C1671.69,-293.942 1644.57,-291.673 1620.07,-290 1304.4,-268.451 1224.61,-277.334 909.067,-254 880.171,-251.863 847.201,-248.553 824.364,-246.122"/>
<polygon fill="midnightblue" stroke="midnightblue" points="1694.57,-299.495 1704.85,-296.905 1695.2,-292.523 1694.57,-299.495"/>
</g>
<!-- Node22&#45;&gt;Node15 -->
<g id="edge56" class="edge"><title>Node22&#45;&gt;Node15</title>
<path fill="none" stroke="midnightblue" d="M1853.93,-223.896C1858.86,-215.656 1864.03,-205.697 1867.07,-196 1887.06,-132.227 1887.14,-50.6294 1886.44,-21.7293"/>
<polygon fill="midnightblue" stroke="midnightblue" points="1850.97,-222.038 1848.6,-232.364 1856.89,-225.771 1850.97,-222.038"/>
</g>
<!-- Node23&#45;&gt;Node16 -->
<g id="edge60" class="edge"><title>Node23&#45;&gt;Node16</title>
<path fill="none" stroke="midnightblue" d="M2113.38,-169.688C2127.66,-161.825 2143.64,-151.119 2155.07,-138 2186.65,-101.73 2203.57,-45.1072 2209.55,-21.6903"/>
<polygon fill="midnightblue" stroke="midnightblue" points="2111.54,-166.7 2104.31,-174.442 2114.79,-172.901 2111.54,-166.7"/>
</g>
<!-- Node25 -->
<g id="node57" class="node"><title>Node25</title>
<a xlink:href="../../d4/dfd/plot__slices_8cpp.html" target="_top" xlink:title="plot_slices.cpp">
<polygon fill="white" stroke="black" points="1914.07,-174.5 1914.07,-195.5 1996.07,-195.5 1996.07,-174.5 1914.07,-174.5"/>
<text text-anchor="middle" x="1955.07" y="-182.5" font-family="Helvetica,sans-Serif" font-size="10.00">plot_slices.cpp</text>
</a>
</g>
<!-- Node24&#45;&gt;Node25 -->
<g id="edge64" class="edge"><title>Node24&#45;&gt;Node25</title>
<path fill="none" stroke="midnightblue" d="M1939.31,-223.079C1943.13,-213.842 1947.52,-203.239 1950.69,-195.571"/>
<polygon fill="midnightblue" stroke="midnightblue" points="1936.06,-221.783 1935.47,-232.362 1942.53,-224.46 1936.06,-221.783"/>
</g>
<!-- Node26&#45;&gt;Node3 -->
<g id="edge68" class="edge"><title>Node26&#45;&gt;Node3</title>
<path fill="none" stroke="midnightblue" d="M757.72,-231.802C681.167,-212.777 659.607,-212.255 586.067,-196 581.567,-195.005 576.831,-193.93 572.168,-192.855"/>
<polygon fill="midnightblue" stroke="midnightblue" points="757.301,-235.305 767.853,-234.347 759.007,-228.516 757.301,-235.305"/>
</g>
<!-- Node27 -->
<g id="node62" class="node"><title>Node27</title>
<a xlink:href="../../de/da5/utilities_8cpp.html" target="_top" xlink:title="utilities.cpp">
<polygon fill="white" stroke="black" points="422.067,-174.5 422.067,-195.5 488.067,-195.5 488.067,-174.5 422.067,-174.5"/>
<text text-anchor="middle" x="455.067" y="-182.5" font-family="Helvetica,sans-Serif" font-size="10.00">utilities.cpp</text>
</a>
</g>
<!-- Node26&#45;&gt;Node27 -->
<g id="edge70" class="edge"><title>Node26&#45;&gt;Node27</title>
<path fill="none" stroke="midnightblue" d="M757.954,-232.018C642.376,-207.797 609.195,-218.304 497.067,-196 494.258,-195.441 491.357,-194.806 488.454,-194.129"/>
<polygon fill="midnightblue" stroke="midnightblue" points="757.389,-235.476 767.9,-234.144 758.853,-228.631 757.389,-235.476"/>
</g>
<!-- Node28&#45;&gt;Node4 -->
<g id="edge82" class="edge"><title>Node28&#45;&gt;Node4</title>
<path fill="none" stroke="midnightblue" d="M1549.09,-290.189C1511.8,-278.981 1454.28,-261.695 1420.18,-251.449"/>
<polygon fill="midnightblue" stroke="midnightblue" points="1548.45,-293.652 1559.04,-293.178 1550.47,-286.948 1548.45,-293.652"/>
</g>
<!-- Node28&#45;&gt;Node5 -->
<g id="edge80" class="edge"><title>Node28&#45;&gt;Node5</title>
<path fill="none" stroke="midnightblue" d="M1548.9,-295.701C1522.46,-289.929 1487.75,-278.068 1467.07,-254 1452.8,-237.398 1450.64,-210.524 1450.65,-195.69"/>
<polygon fill="midnightblue" stroke="midnightblue" points="1548.45,-299.18 1558.94,-297.692 1549.81,-292.314 1548.45,-299.18"/>
</g>
<!-- Node28&#45;&gt;Node13 -->
<g id="edge84" class="edge"><title>Node28&#45;&gt;Node13</title>
<path fill="none" stroke="midnightblue" d="M1594.86,-281.364C1612.15,-247.125 1649.68,-174.56 1686.07,-116 1694.06,-103.128 1704.2,-88.9718 1711.11,-79.5947"/>
<polygon fill="midnightblue" stroke="midnightblue" points="1591.72,-279.826 1590.36,-290.333 1597.98,-282.969 1591.72,-279.826"/>
</g>
<!-- Node28&#45;&gt;Node17 -->
<g id="edge94" class="edge"><title>Node28&#45;&gt;Node17</title>
<path fill="none" stroke="midnightblue" d="M1581.43,-280.3C1578.55,-266.294 1573.87,-247.578 1567.07,-232 1535.69,-160.113 1507.8,-142.762 1434.07,-116 1337.12,-80.8111 1213.52,-71.9676 1158.16,-69.7455"/>
<polygon fill="midnightblue" stroke="midnightblue" points="1578.04,-281.212 1583.36,-290.374 1584.92,-279.894 1578.04,-281.212"/>
</g>
<!-- Node28&#45;&gt;Node22 -->
<g id="edge86" class="edge"><title>Node28&#45;&gt;Node22</title>
<path fill="none" stroke="midnightblue" d="M1621.5,-292.746C1669.71,-281.822 1754.31,-262.655 1803.23,-251.573"/>
<polygon fill="midnightblue" stroke="midnightblue" points="1620.48,-289.388 1611.5,-295.011 1622.03,-296.215 1620.48,-289.388"/>
</g>
<!-- Node28&#45;&gt;Node24 -->
<g id="edge92" class="edge"><title>Node28&#45;&gt;Node24</title>
<path fill="none" stroke="midnightblue" d="M1621.42,-296.426C1678.34,-289.02 1791.84,-273.272 1887.07,-254 1889.69,-253.469 1892.39,-252.885 1895.11,-252.271"/>
<polygon fill="midnightblue" stroke="midnightblue" points="1620.94,-292.959 1611.47,-297.71 1621.83,-299.901 1620.94,-292.959"/>
</g>
<!-- Node29 -->
<g id="node73" class="node"><title>Node29</title>
<a xlink:href="../../da/d77/plot__impedance_8h.html" target="_top" xlink:title="plot_impedance.h">
<polygon fill="white" stroke="black" points="1765.57,-174.5 1765.57,-195.5 1858.57,-195.5 1858.57,-174.5 1765.57,-174.5"/>
<text text-anchor="middle" x="1812.07" y="-182.5" font-family="Helvetica,sans-Serif" font-size="10.00">plot_impedance.h</text>
</a>
</g>
<!-- Node28&#45;&gt;Node29 -->
<g id="edge88" class="edge"><title>Node28&#45;&gt;Node29</title>
<path fill="none" stroke="midnightblue" d="M1615.06,-285.671C1661.91,-261.731 1751.24,-216.082 1791.5,-195.512"/>
<polygon fill="midnightblue" stroke="midnightblue" points="1613.33,-282.628 1606.02,-290.295 1616.51,-288.861 1613.33,-282.628"/>
</g>
<!-- Node30 -->
<g id="node75" class="node"><title>Node30</title>
<a xlink:href="../../d8/d29/plot__impedance_8cpp.html" target="_top" xlink:title="plot_impedance.cpp">
<polygon fill="white" stroke="black" points="2042.07,-116.5 2042.07,-137.5 2146.07,-137.5 2146.07,-116.5 2042.07,-116.5"/>
<text text-anchor="middle" x="2094.07" y="-124.5" font-family="Helvetica,sans-Serif" font-size="10.00">plot_impedance.cpp</text>
</a>
</g>
<!-- Node29&#45;&gt;Node30 -->
<g id="edge90" class="edge"><title>Node29&#45;&gt;Node30</title>
<path fill="none" stroke="midnightblue" d="M1868.48,-173.398C1919.31,-162.943 1993.42,-147.701 2042.65,-137.575"/>
<polygon fill="midnightblue" stroke="midnightblue" points="1867.72,-169.98 1858.63,-175.422 1869.13,-176.836 1867.72,-169.98"/>
</g>
<!-- Node31&#45;&gt;Node3 -->
<g id="edge98" class="edge"><title>Node31&#45;&gt;Node3</title>
<path fill="none" stroke="midnightblue" d="M315.384,-281.474C325.443,-265.824 341.558,-244.484 361.067,-232 361.845,-231.502 454.456,-207.179 505.766,-193.725"/>
<polygon fill="midnightblue" stroke="midnightblue" points="312.181,-280.001 309.927,-290.353 318.145,-283.666 312.181,-280.001"/>
</g>
<!-- Node31&#45;&gt;Node7 -->
<g id="edge100" class="edge"><title>Node31&#45;&gt;Node7</title>
<path fill="none" stroke="midnightblue" d="M348.418,-291.067C382.532,-282.821 430.534,-269.891 471.067,-254 491.053,-246.165 493.903,-239.365 514.067,-232 564.017,-213.755 623.537,-200.966 665.167,-193.383"/>
<polygon fill="midnightblue" stroke="midnightblue" points="347.219,-287.755 338.3,-293.474 348.839,-294.565 347.219,-287.755"/>
</g>
<!-- Node31&#45;&gt;Node8 -->
<g id="edge106" class="edge"><title>Node31&#45;&gt;Node8</title>
<path fill="none" stroke="midnightblue" d="M348.243,-293.768C389.927,-286.246 453.797,-272.911 507.067,-254 528.047,-246.552 530.844,-238.721 552.067,-232 648.614,-201.426 677.336,-213.597 777.067,-196 779.946,-195.492 782.903,-194.958 785.885,-194.411"/>
<polygon fill="midnightblue" stroke="midnightblue" points="347.38,-290.366 338.143,-295.554 348.6,-297.259 347.38,-290.366"/>
</g>
<!-- Node31&#45;&gt;Node9 -->
<g id="edge108" class="edge"><title>Node31&#45;&gt;Node9</title>
<path fill="none" stroke="midnightblue" d="M348.363,-295.741C397.182,-289.164 477.602,-276.007 544.067,-254 565.581,-246.877 568.304,-238.319 590.067,-232 719.455,-194.434 757.983,-216.999 891.067,-196 894.003,-195.537 897.02,-195.031 900.059,-194.499"/>
<polygon fill="midnightblue" stroke="midnightblue" points="347.604,-292.311 338.145,-297.083 348.516,-299.251 347.604,-292.311"/>
</g>
<!-- Node31&#45;&gt;Node10 -->
<g id="edge118" class="edge"><title>Node31&#45;&gt;Node10</title>
<path fill="none" stroke="midnightblue" d="M259.754,-297.988C193.435,-290.806 76.0672,-266.573 76.0672,-185 76.0672,-185 76.0672,-185 76.0672,-127 76.0672,-49.9661 160.278,-76.4615 235.067,-58 347.495,-30.2474 703.484,-16.2713 823.848,-12.251"/>
<polygon fill="midnightblue" stroke="midnightblue" points="259.636,-301.493 269.933,-299 260.329,-294.528 259.636,-301.493"/>
</g>
<!-- Node31&#45;&gt;Node12 -->
<g id="edge110" class="edge"><title>Node31&#45;&gt;Node12</title>
<path fill="none" stroke="midnightblue" d="M260.443,-287.436C243.164,-280.06 224.496,-269.25 212.067,-254 195.173,-233.272 199.655,-222.499 196.067,-196 194.755,-186.311 192.675,-183.17 196.067,-174 211.311,-132.792 250.751,-96.8435 272.005,-79.6923"/>
<polygon fill="midnightblue" stroke="midnightblue" points="259.265,-290.734 269.851,-291.186 261.858,-284.232 259.265,-290.734"/>
</g>
<!-- Node31&#45;&gt;Node18 -->
<g id="edge114" class="edge"><title>Node31&#45;&gt;Node18</title>
<path fill="none" stroke="midnightblue" d="M259.785,-295.822C199.486,-288.194 95.2475,-272.791 62.0672,-254 26.1929,-233.683 0.0672238,-226.228 0.0672238,-185 0.0672238,-185 0.0672238,-185 0.0672238,-127 0.0672238,-94.5312 -1.00836,-78.6261 24.0672,-58 46.8554,-39.2554 241.795,-20.7211 321.907,-13.8216"/>
<polygon fill="midnightblue" stroke="midnightblue" points="259.431,-299.305 269.787,-297.066 260.296,-292.358 259.431,-299.305"/>
</g>
<!-- Node31&#45;&gt;Node20 -->
<g id="edge112" class="edge"><title>Node31&#45;&gt;Node20</title>
<path fill="none" stroke="midnightblue" d="M276.957,-284.965C238.237,-260.135 175.313,-211.354 209.067,-174 236.795,-143.315 516.344,-131.649 627.162,-128.207"/>
<polygon fill="midnightblue" stroke="midnightblue" points="275.406,-288.122 285.74,-290.456 279.117,-282.187 275.406,-288.122"/>
</g>
<!-- Node31&#45;&gt;Node26 -->
<g id="edge120" class="edge"><title>Node31&#45;&gt;Node26</title>
<path fill="none" stroke="midnightblue" d="M348.547,-299.153C430.459,-295.145 610.382,-283.514 759.067,-254 761.959,-253.426 764.95,-252.724 767.921,-251.956"/>
<polygon fill="midnightblue" stroke="midnightblue" points="348.174,-295.667 338.352,-299.637 348.506,-302.659 348.174,-295.667"/>
</g>
<!-- Node31&#45;&gt;Node27 -->
<g id="edge116" class="edge"><title>Node31&#45;&gt;Node27</title>
<path fill="none" stroke="midnightblue" d="M292.338,-281.118C285.247,-266.229 279.434,-246.084 290.067,-232 305.905,-211.021 378.336,-196.629 421.795,-189.713"/>
<polygon fill="midnightblue" stroke="midnightblue" points="289.271,-282.805 297.023,-290.027 295.467,-279.547 289.271,-282.805"/>
</g>
<!-- Node32 -->
<g id="node83" class="node"><title>Node32</title>
<a xlink:href="../../d1/dca/Intensity_8cpp.html" target="_top" xlink:title="Intensity.cpp">
<polygon fill="white" stroke="black" points="217.567,-174.5 217.567,-195.5 290.567,-195.5 290.567,-174.5 217.567,-174.5"/>
<text text-anchor="middle" x="254.067" y="-182.5" font-family="Helvetica,sans-Serif" font-size="10.00">Intensity.cpp</text>
</a>
</g>
<!-- Node31&#45;&gt;Node32 -->
<g id="edge102" class="edge"><title>Node31&#45;&gt;Node32</title>
<path fill="none" stroke="midnightblue" d="M277.749,-284.378C267.747,-276.513 257.469,-266.164 252.067,-254 243.604,-234.942 247.569,-209.915 250.978,-195.837"/>
<polygon fill="midnightblue" stroke="midnightblue" points="275.832,-287.313 285.972,-290.386 279.962,-281.66 275.832,-287.313"/>
</g>
<!-- Node33 -->
<g id="node85" class="node"><title>Node33</title>
<a xlink:href="../../da/d56/GeneralParameters_8cpp.html" target="_top" xlink:title="GeneralParameters.cpp">
<polygon fill="white" stroke="black" points="631.567,-232.5 631.567,-253.5 750.567,-253.5 750.567,-232.5 631.567,-232.5"/>
<text text-anchor="middle" x="691.067" y="-240.5" font-family="Helvetica,sans-Serif" font-size="10.00">GeneralParameters.cpp</text>
</a>
</g>
<!-- Node31&#45;&gt;Node33 -->
<g id="edge104" class="edge"><title>Node31&#45;&gt;Node33</title>
<path fill="none" stroke="midnightblue" d="M348.256,-294.377C417.867,-283.945 553.165,-263.668 631.359,-251.948"/>
<polygon fill="midnightblue" stroke="midnightblue" points="347.442,-290.96 338.072,-295.904 348.48,-297.883 347.442,-290.96"/>
</g>
<!-- Node34&#45;&gt;Node5 -->
<g id="edge124" class="edge"><title>Node34&#45;&gt;Node5</title>
<path fill="none" stroke="midnightblue" d="M1278.14,-235.149C1315.02,-224.454 1380.9,-205.348 1419.83,-194.059"/>
<polygon fill="midnightblue" stroke="midnightblue" points="1276.75,-231.908 1268.12,-238.055 1278.7,-238.631 1276.75,-231.908"/>
</g>
<!-- Node34&#45;&gt;Node7 -->
<g id="edge126" class="edge"><title>Node34&#45;&gt;Node7</title>
<path fill="none" stroke="midnightblue" d="M1223.62,-241.075C1150.69,-235.787 946.082,-219.831 777.067,-196 774.341,-195.616 771.549,-195.196 768.734,-194.752"/>
<polygon fill="midnightblue" stroke="midnightblue" points="1223.56,-244.58 1233.79,-241.804 1224.06,-237.598 1223.56,-244.58"/>
</g>
<!-- Node34&#45;&gt;Node20 -->
<g id="edge128" class="edge"><title>Node34&#45;&gt;Node20</title>
<path fill="none" stroke="midnightblue" d="M1225.13,-228.143C1195.62,-211.975 1145.47,-186.736 1099.07,-174 1027.78,-154.432 810.824,-136.985 716.569,-130.109"/>
<polygon fill="midnightblue" stroke="midnightblue" points="1223.52,-231.25 1233.96,-233.045 1226.92,-225.13 1223.52,-231.25"/>
</g>
<!-- Node35&#45;&gt;Node7 -->
<g id="edge132" class="edge"><title>Node35&#45;&gt;Node7</title>
<path fill="none" stroke="midnightblue" d="M909.591,-230.208C865.241,-219.794 803.396,-205.272 761.881,-195.523"/>
<polygon fill="midnightblue" stroke="midnightblue" points="908.802,-233.618 919.337,-232.497 910.402,-226.803 908.802,-233.618"/>
</g>
<!-- Node35&#45;&gt;Node17 -->
<g id="edge136" class="edge"><title>Node35&#45;&gt;Node17</title>
<path fill="none" stroke="midnightblue" d="M907.898,-232.637C906.609,-232.421 905.331,-232.208 904.067,-232 792.799,-213.698 586.518,-261.968 657.067,-174 685.396,-138.677 1001.22,-88.3146 1099.83,-73.3511"/>
<polygon fill="midnightblue" stroke="midnightblue" points="907.46,-236.113 917.909,-234.362 908.648,-229.215 907.46,-236.113"/>
</g>
<!-- Node35&#45;&gt;Node29 -->
<g id="edge134" class="edge"><title>Node35&#45;&gt;Node29</title>
<path fill="none" stroke="midnightblue" d="M1020.67,-239.129C1178.31,-228.347 1620.28,-198.118 1765.31,-188.198"/>
<polygon fill="midnightblue" stroke="midnightblue" points="1020,-235.666 1010.26,-239.84 1020.48,-242.65 1020,-235.666"/>
</g>
<!-- Node36&#45;&gt;Node32 -->
<g id="edge140" class="edge"><title>Node36&#45;&gt;Node32</title>
<path fill="none" stroke="midnightblue" d="M664.198,-402.276C602.666,-375.163 468.919,-314.559 361.067,-254 327.339,-235.061 289.722,-209.772 269.295,-195.664"/>
<polygon fill="midnightblue" stroke="midnightblue" points="662.875,-405.517 673.438,-406.334 665.69,-399.108 662.875,-405.517"/>
</g>
<!-- Node36&#45;&gt;Node35 -->
<g id="edge142" class="edge"><title>Node36&#45;&gt;Node35</title>
<path fill="none" stroke="midnightblue" d="M722.882,-400.768C776.646,-365.599 902.661,-283.168 947.703,-253.705"/>
<polygon fill="midnightblue" stroke="midnightblue" points="720.759,-397.974 714.306,-406.377 724.591,-403.832 720.759,-397.974"/>
</g>
<!-- Node37&#45;&gt;Node2 -->
<g id="edge148" class="edge"><title>Node37&#45;&gt;Node2</title>
<path fill="none" stroke="midnightblue" d="M1724.8,-400.541C1710.74,-390.597 1693.24,-378.218 1681.01,-369.571"/>
<polygon fill="midnightblue" stroke="midnightblue" points="1722.84,-403.445 1733.03,-406.362 1726.88,-397.73 1722.84,-403.445"/>
</g>
<!-- Node37&#45;&gt;Node4 -->
<g id="edge150" class="edge"><title>Node37&#45;&gt;Node4</title>
<path fill="none" stroke="midnightblue" d="M1708,-402.982C1657.66,-384.742 1569.26,-350.607 1498.07,-312 1464.09,-293.576 1426.73,-267.872 1406.7,-253.606"/>
<polygon fill="midnightblue" stroke="midnightblue" points="1706.95,-406.323 1717.54,-406.414 1709.32,-399.736 1706.95,-406.323"/>
</g>
<!-- Node37&#45;&gt;Node13 -->
<g id="edge154" class="edge"><title>Node37&#45;&gt;Node13</title>
<path fill="none" stroke="midnightblue" d="M1786.8,-402.788C1874.67,-368.36 2076.13,-275.791 2005.07,-174 1974.87,-130.738 1818.05,-91.1372 1750.3,-75.7642"/>
<polygon fill="midnightblue" stroke="midnightblue" points="1785.49,-399.544 1777.42,-406.413 1788.01,-406.074 1785.49,-399.544"/>
</g>
<!-- Node37&#45;&gt;Node21 -->
<g id="edge152" class="edge"><title>Node37&#45;&gt;Node21</title>
<path fill="none" stroke="midnightblue" d="M1748.07,-396.123C1748.07,-371.298 1748.07,-330.824 1748.07,-311.679"/>
<polygon fill="midnightblue" stroke="midnightblue" points="1744.57,-396.295 1748.07,-406.295 1751.57,-396.295 1744.57,-396.295"/>
</g>
<!-- Node37&#45;&gt;Node22 -->
<g id="edge156" class="edge"><title>Node37&#45;&gt;Node22</title>
<path fill="none" stroke="midnightblue" d="M1764.25,-398.82C1781.22,-378.854 1807.53,-345.199 1823.07,-312 1832.2,-292.49 1837.23,-267.625 1839.52,-253.698"/>
<polygon fill="midnightblue" stroke="midnightblue" points="1761.5,-396.644 1757.61,-406.497 1766.8,-401.224 1761.5,-396.644"/>
</g>
<!-- Node37&#45;&gt;Node23 -->
<g id="edge158" class="edge"><title>Node37&#45;&gt;Node23</title>
<path fill="none" stroke="midnightblue" d="M1813.06,-414.584C1887.88,-410.438 2004.54,-399.339 2036.07,-370 2087.06,-322.541 2083.88,-227.638 2081.19,-195.74"/>
<polygon fill="midnightblue" stroke="midnightblue" points="1812.59,-411.104 1802.79,-415.124 1812.96,-418.094 1812.59,-411.104"/>
</g>
<!-- Node37&#45;&gt;Node24 -->
<g id="edge160" class="edge"><title>Node37&#45;&gt;Node24</title>
<path fill="none" stroke="midnightblue" d="M1771.02,-400.193C1782.45,-391.529 1796.31,-380.582 1808.07,-370 1853.01,-329.543 1901.62,-276.145 1921.64,-253.681"/>
<polygon fill="midnightblue" stroke="midnightblue" points="1768.73,-397.534 1762.82,-406.329 1772.92,-403.138 1768.73,-397.534"/>
</g>
<!-- Node37&#45;&gt;Node26 -->
<g id="edge162" class="edge"><title>Node37&#45;&gt;Node26</title>
<path fill="none" stroke="midnightblue" d="M1700.05,-403.767C1642.32,-388.305 1542.29,-362.941 1455.07,-348 1308.78,-322.942 1269.72,-334.824 1123.07,-312 995.342,-292.122 963.972,-283.275 838.067,-254 833.662,-252.976 829.015,-251.827 824.481,-250.669"/>
<polygon fill="midnightblue" stroke="midnightblue" points="1699.41,-407.22 1709.98,-406.441 1701.23,-400.461 1699.41,-407.22"/>
</g>
<!-- Node37&#45;&gt;Node33 -->
<g id="edge146" class="edge"><title>Node37&#45;&gt;Node33</title>
<path fill="none" stroke="midnightblue" d="M1682.98,-409.901C1551.73,-395.16 1246.17,-358.679 992.067,-312 898.208,-294.758 789.35,-268.134 731.729,-253.511"/>
<polygon fill="midnightblue" stroke="midnightblue" points="1682.93,-413.417 1693.25,-411.051 1683.71,-406.461 1682.93,-413.417"/>
</g>
<!-- Node38&#45;&gt;Node9 -->
<g id="edge166" class="edge"><title>Node38&#45;&gt;Node9</title>
<path fill="none" stroke="midnightblue" d="M1465.26,-236.173C1453.38,-234.705 1440.79,-233.228 1429.07,-232 1240.09,-212.212 1191.24,-222.351 1003.07,-196 1000.22,-195.602 997.302,-195.152 994.362,-194.669"/>
<polygon fill="midnightblue" stroke="midnightblue" points="1465.12,-239.683 1475.48,-237.454 1465.99,-232.737 1465.12,-239.683"/>
</g>
<!-- Node38&#45;&gt;Node11 -->
<g id="edge168" class="edge"><title>Node38&#45;&gt;Node11</title>
<path fill="none" stroke="midnightblue" d="M1514.97,-222.499C1512.21,-206.717 1505.83,-185.687 1491.07,-174 1465.88,-154.058 1253.53,-136.223 1166.27,-129.666"/>
<polygon fill="midnightblue" stroke="midnightblue" points="1511.5,-222.99 1516.36,-232.407 1518.43,-222.018 1511.5,-222.99"/>
</g>
<!-- Node38&#45;&gt;Node13 -->
<g id="edge170" class="edge"><title>Node38&#45;&gt;Node13</title>
<path fill="none" stroke="midnightblue" d="M1534.89,-224.917C1564.97,-194.522 1624.84,-134.679 1648.07,-116 1665.23,-102.196 1686.47,-88.5392 1701.22,-79.5342"/>
<polygon fill="midnightblue" stroke="midnightblue" points="1532.12,-222.737 1527.58,-232.31 1537.1,-227.657 1532.12,-222.737"/>
</g>
<!-- Node38&#45;&gt;Node17 -->
<g id="edge174" class="edge"><title>Node38&#45;&gt;Node17</title>
<path fill="none" stroke="midnightblue" d="M1521.37,-222.367C1523.25,-207.311 1522.99,-187.292 1512.07,-174 1466.27,-118.264 1239.45,-83.4913 1158.14,-72.6498"/>
<polygon fill="midnightblue" stroke="midnightblue" points="1517.91,-221.852 1519.74,-232.287 1524.81,-222.988 1517.91,-221.852"/>
</g>
<!-- Node38&#45;&gt;Node23 -->
<g id="edge172" class="edge"><title>Node38&#45;&gt;Node23</title>
<path fill="none" stroke="midnightblue" d="M1568.71,-238.874C1657.87,-231.561 1846.38,-215.267 2005.07,-196 2020.61,-194.112 2037.91,-191.603 2051.98,-189.457"/>
<polygon fill="midnightblue" stroke="midnightblue" points="1568.28,-235.397 1558.6,-239.7 1568.85,-242.374 1568.28,-235.397"/>
</g>
<!-- Node39&#45;&gt;Node3 -->
<g id="edge182" class="edge"><title>Node39&#45;&gt;Node3</title>
<path fill="none" stroke="midnightblue" d="M447.44,-228.206C469.019,-218.031 497.169,-204.757 516.543,-195.621"/>
<polygon fill="midnightblue" stroke="midnightblue" points="445.894,-225.066 438.342,-232.497 448.879,-231.397 445.894,-225.066"/>
</g>
<!-- Node39&#45;&gt;Node5 -->
<g id="edge184" class="edge"><title>Node39&#45;&gt;Node5</title>
<path fill="none" stroke="midnightblue" d="M472.317,-239.898C513.945,-237.629 572.037,-234.521 623.067,-232 973.228,-214.698 1064.79,-250.82 1411.07,-196 1413.91,-195.55 1416.85,-194.971 1419.77,-194.316"/>
<polygon fill="midnightblue" stroke="midnightblue" points="471.897,-236.415 462.103,-240.455 472.279,-243.405 471.897,-236.415"/>
</g>
<!-- Node39&#45;&gt;Node7 -->
<g id="edge186" class="edge"><title>Node39&#45;&gt;Node7</title>
<path fill="none" stroke="midnightblue" d="M472.112,-232.201C527.539,-221.52 611.655,-205.312 665.478,-194.941"/>
<polygon fill="midnightblue" stroke="midnightblue" points="471.267,-228.799 462.11,-234.128 472.592,-235.673 471.267,-228.799"/>
</g>
<!-- Node39&#45;&gt;Node8 -->
<g id="edge190" class="edge"><title>Node39&#45;&gt;Node8</title>
<path fill="none" stroke="midnightblue" d="M472.155,-236.775C543.271,-228.635 669.575,-213.353 777.067,-196 779.953,-195.534 782.916,-195.033 785.902,-194.51"/>
<polygon fill="midnightblue" stroke="midnightblue" points="471.611,-233.314 462.072,-237.924 472.404,-240.269 471.611,-233.314"/>
</g>
<!-- Node39&#45;&gt;Node9 -->
<g id="edge192" class="edge"><title>Node39&#45;&gt;Node9</title>
<path fill="none" stroke="midnightblue" d="M472.175,-238.126C579.784,-228.665 811.547,-207.717 891.067,-196 893.91,-195.581 896.827,-195.116 899.766,-194.621"/>
<polygon fill="midnightblue" stroke="midnightblue" points="471.814,-234.644 462.158,-239.005 472.426,-241.617 471.814,-234.644"/>
</g>
<!-- Node39&#45;&gt;Node12 -->
<g id="edge194" class="edge"><title>Node39&#45;&gt;Node12</title>
<path fill="none" stroke="midnightblue" d="M383.164,-227.638C369.068,-219.765 353.299,-209.064 342.067,-196 310.806,-159.638 294.307,-103.066 288.51,-79.6766"/>
<polygon fill="midnightblue" stroke="midnightblue" points="381.649,-230.796 392.122,-232.399 384.935,-224.615 381.649,-230.796"/>
</g>
<!-- Node39&#45;&gt;Node18 -->
<g id="edge198" class="edge"><title>Node39&#45;&gt;Node18</title>
<path fill="none" stroke="midnightblue" d="M409.707,-222.395C407.237,-214.204 404.438,-204.68 402.067,-196 384.105,-130.231 365.265,-50.5174 358.59,-21.8882"/>
<polygon fill="midnightblue" stroke="midnightblue" points="406.436,-223.669 412.701,-232.213 413.132,-221.627 406.436,-223.669"/>
</g>
<!-- Node39&#45;&gt;Node20 -->
<g id="edge196" class="edge"><title>Node39&#45;&gt;Node20</title>
<path fill="none" stroke="midnightblue" d="M408.427,-222.304C404.31,-207.215 402.06,-187.184 413.067,-174 439.866,-141.901 560.7,-131.676 627.434,-128.455"/>
<polygon fill="midnightblue" stroke="midnightblue" points="405.224,-223.782 411.592,-232.25 411.894,-221.659 405.224,-223.782"/>
</g>
<!-- Node39&#45;&gt;Node27 -->
<g id="edge200" class="edge"><title>Node39&#45;&gt;Node27</title>
<path fill="none" stroke="midnightblue" d="M428.871,-223.959C435.216,-214.522 442.639,-203.484 447.959,-195.571"/>
<polygon fill="midnightblue" stroke="midnightblue" points="425.896,-222.11 423.22,-232.362 431.705,-226.016 425.896,-222.11"/>
</g>
<!-- Node39&#45;&gt;Node32 -->
<g id="edge188" class="edge"><title>Node39&#45;&gt;Node32</title>
<path fill="none" stroke="midnightblue" d="M376.99,-229.009C348.201,-218.702 309.658,-204.903 283.459,-195.523"/>
<polygon fill="midnightblue" stroke="midnightblue" points="376.136,-232.421 386.73,-232.497 378.495,-225.831 376.136,-232.421"/>
</g>
<!-- Node41 -->
<g id="node144" class="node"><title>Node41</title>
<a xlink:href="../../d2/d3c/plot__parameters_8cpp.html" target="_top" xlink:title="plot_parameters.cpp">
<polygon fill="white" stroke="black" points="2331.57,-116.5 2331.57,-137.5 2436.57,-137.5 2436.57,-116.5 2331.57,-116.5"/>
<text text-anchor="middle" x="2384.07" y="-124.5" font-family="Helvetica,sans-Serif" font-size="10.00">plot_parameters.cpp</text>
</a>
</g>
<!-- Node40&#45;&gt;Node41 -->
<g id="edge206" class="edge"><title>Node40&#45;&gt;Node41</title>
<path fill="none" stroke="midnightblue" d="M2395.05,-164.488C2392.39,-155.392 2389.37,-145.076 2387.17,-137.571"/>
<polygon fill="midnightblue" stroke="midnightblue" points="2391.78,-165.75 2397.95,-174.362 2398.5,-163.781 2391.78,-165.75"/>
</g>
<!-- Node42&#45;&gt;Node5 -->
<g id="edge210" class="edge"><title>Node42&#45;&gt;Node5</title>
<path fill="none" stroke="midnightblue" d="M2153.7,-240.071C2024.91,-229.977 1600.83,-196.738 1482.17,-187.438"/>
<polygon fill="midnightblue" stroke="midnightblue" points="2153.61,-243.575 2163.85,-240.867 2154.16,-236.596 2153.61,-243.575"/>
</g>
<!-- Node42&#45;&gt;Node10 -->
<g id="edge222" class="edge"><title>Node42&#45;&gt;Node10</title>
<path fill="none" stroke="midnightblue" d="M2191.61,-222.039C2191.13,-193.474 2185.64,-142.814 2155.07,-116 2058.81,-31.5743 1112.03,-14.2622 904.244,-11.4694"/>
<polygon fill="midnightblue" stroke="midnightblue" points="2188.11,-222.131 2191.59,-232.139 2195.11,-222.147 2188.11,-222.131"/>
</g>
<!-- Node42&#45;&gt;Node15 -->
<g id="edge212" class="edge"><title>Node42&#45;&gt;Node15</title>
<path fill="none" stroke="midnightblue" d="M2209.1,-224.575C2215.8,-216.491 2222.6,-206.464 2226.07,-196 2242.17,-147.421 2223.69,-88.2692 2188.07,-58 2149.8,-25.4889 2003.07,-15.3604 1929.15,-12.2888"/>
<polygon fill="midnightblue" stroke="midnightblue" points="2206.33,-222.43 2202.31,-232.234 2211.57,-227.074 2206.33,-222.43"/>
</g>
<!-- Node42&#45;&gt;Node16 -->
<g id="edge216" class="edge"><title>Node42&#45;&gt;Node16</title>
<path fill="none" stroke="midnightblue" d="M2227.5,-228.763C2241.55,-221.265 2256.13,-210.545 2264.07,-196 2293.44,-142.157 2288.96,-114.054 2264.07,-58 2257.15,-42.4299 2242.25,-29.8332 2230.16,-21.6143"/>
<polygon fill="midnightblue" stroke="midnightblue" points="2225.84,-225.677 2218.41,-233.232 2228.93,-231.958 2225.84,-225.677"/>
</g>
<!-- Node42&#45;&gt;Node23 -->
<g id="edge226" class="edge"><title>Node42&#45;&gt;Node23</title>
<path fill="none" stroke="midnightblue" d="M2161.97,-227.794C2142.6,-217.675 2117.64,-204.634 2100.39,-195.621"/>
<polygon fill="midnightblue" stroke="midnightblue" points="2160.48,-230.968 2170.97,-232.497 2163.72,-224.763 2160.48,-230.968"/>
</g>
<!-- Node42&#45;&gt;Node25 -->
<g id="edge220" class="edge"><title>Node42&#45;&gt;Node25</title>
<path fill="none" stroke="midnightblue" d="M2154.27,-233.956C2111.5,-223.444 2041.09,-206.141 1996.45,-195.17"/>
<polygon fill="midnightblue" stroke="midnightblue" points="2153.45,-237.359 2164,-236.347 2155.12,-230.561 2153.45,-237.359"/>
</g>
<!-- Node42&#45;&gt;Node29 -->
<g id="edge224" class="edge"><title>Node42&#45;&gt;Node29</title>
<path fill="none" stroke="midnightblue" d="M2153.75,-237.29C2084.23,-226.65 1935.02,-203.817 1858.87,-192.162"/>
<polygon fill="midnightblue" stroke="midnightblue" points="2153.4,-240.776 2163.81,-238.829 2154.46,-233.856 2153.4,-240.776"/>
</g>
<!-- Node42&#45;&gt;Node30 -->
<g id="edge214" class="edge"><title>Node42&#45;&gt;Node30</title>
<path fill="none" stroke="midnightblue" d="M2181.7,-223.412C2174.25,-208.935 2162.97,-189.184 2150.07,-174 2138.07,-159.879 2121.54,-146.577 2109.55,-137.754"/>
<polygon fill="midnightblue" stroke="midnightblue" points="2178.62,-225.082 2186.21,-232.472 2184.88,-221.96 2178.62,-225.082"/>
</g>
<!-- Node42&#45;&gt;Node40 -->
<g id="edge228" class="edge"><title>Node42&#45;&gt;Node40</title>
<path fill="none" stroke="midnightblue" d="M2228.19,-232.748C2266.04,-222.294 2324.49,-206.151 2362.76,-195.58"/>
<polygon fill="midnightblue" stroke="midnightblue" points="2226.8,-229.5 2218.09,-235.536 2228.66,-236.248 2226.8,-229.5"/>
</g>
<!-- Node42&#45;&gt;Node41 -->
<g id="edge218" class="edge"><title>Node42&#45;&gt;Node41</title>
<path fill="none" stroke="midnightblue" d="M2227.63,-230.677C2249.94,-222.399 2278.6,-210.388 2302.07,-196 2329.98,-178.883 2358.27,-152.689 2373.23,-137.989"/>
<polygon fill="midnightblue" stroke="midnightblue" points="2226.38,-227.405 2218.17,-234.102 2228.77,-233.986 2226.38,-227.405"/>
</g>
<!-- Node43&#45;&gt;Node2 -->
<g id="edge238" class="edge"><title>Node43&#45;&gt;Node2</title>
<path fill="none" stroke="midnightblue" d="M1251.18,-473.805C1337.09,-470.573 1543.13,-459.661 1604.07,-428 1630.08,-414.486 1650.44,-385.312 1660.04,-369.576"/>
<polygon fill="midnightblue" stroke="midnightblue" points="1250.94,-470.311 1241.07,-474.17 1251.19,-477.306 1250.94,-470.311"/>
</g>
<!-- Node43&#45;&gt;Node7 -->
<g id="edge234" class="edge"><title>Node43&#45;&gt;Node7</title>
<path fill="none" stroke="midnightblue" d="M1183.4,-459.255C1169.8,-451.107 1154.06,-440.292 1142.07,-428 1070.24,-354.4 1105.15,-288.276 1019.07,-232 928.053,-172.497 884.338,-213.807 777.067,-196 774.351,-195.549 771.567,-195.076 768.759,-194.591"/>
<polygon fill="midnightblue" stroke="midnightblue" points="1182,-462.486 1192.41,-464.455 1185.5,-456.424 1182,-462.486"/>
</g>
<!-- Node43&#45;&gt;Node10 -->
<g id="edge240" class="edge"><title>Node43&#45;&gt;Node10</title>
<path fill="none" stroke="midnightblue" d="M1174.63,-471.204C1114.49,-464.681 1001.59,-449.896 968.067,-428 879.509,-370.158 921.774,-289.615 833.067,-232 759.89,-184.471 706.585,-252.473 640.067,-196 612.044,-172.209 598.831,-146.689 619.067,-116 664.794,-46.653 766.849,-22.9319 823.759,-14.9474"/>
<polygon fill="midnightblue" stroke="midnightblue" points="1174.54,-474.715 1184.86,-472.29 1175.28,-467.754 1174.54,-474.715"/>
</g>
<!-- Node43&#45;&gt;Node11 -->
<g id="edge252" class="edge"><title>Node43&#45;&gt;Node11</title>
<path fill="none" stroke="midnightblue" d="M1206.64,-454.414C1204.16,-446.225 1201.37,-436.698 1199.07,-428 1169.18,-315.2 1139.55,-176.799 1131.31,-137.722"/>
<polygon fill="midnightblue" stroke="midnightblue" points="1203.37,-455.695 1209.65,-464.226 1210.06,-453.639 1203.37,-455.695"/>
</g>
<!-- Node43&#45;&gt;Node13 -->
<g id="edge258" class="edge"><title>Node43&#45;&gt;Node13</title>
<path fill="none" stroke="midnightblue" d="M1226.39,-455.665C1231.72,-447.388 1237.64,-437.464 1242.07,-428 1292.54,-320.189 1240.35,-255.56 1327.07,-174 1380.31,-123.919 1604.78,-86.0404 1687.92,-73.4855"/>
<polygon fill="midnightblue" stroke="midnightblue" points="1223.34,-453.93 1220.73,-464.198 1229.17,-457.801 1223.34,-453.93"/>
</g>
<!-- Node43&#45;&gt;Node17 -->
<g id="edge260" class="edge"><title>Node43&#45;&gt;Node17</title>
<path fill="none" stroke="midnightblue" d="M1215.44,-454.054C1221.01,-396.74 1230.52,-233.768 1175.07,-116 1168.06,-101.125 1154.38,-88.1134 1143.76,-79.5753"/>
<polygon fill="midnightblue" stroke="midnightblue" points="1211.93,-454.037 1214.37,-464.346 1218.89,-454.762 1211.93,-454.037"/>
</g>
<!-- Node43&#45;&gt;Node19 -->
<g id="edge254" class="edge"><title>Node43&#45;&gt;Node19</title>
<path fill="none" stroke="midnightblue" d="M1190.38,-458.017C1180.46,-449.763 1169.25,-439.212 1161.07,-428 1102.37,-347.577 1064.68,-230.843 1054.11,-195.514"/>
<polygon fill="midnightblue" stroke="midnightblue" points="1188.32,-460.852 1198.32,-464.373 1192.7,-455.389 1188.32,-460.852"/>
</g>
<!-- Node43&#45;&gt;Node25 -->
<g id="edge236" class="edge"><title>Node43&#45;&gt;Node25</title>
<path fill="none" stroke="midnightblue" d="M1251,-465.864C1284.39,-457.398 1334.09,-443.76 1376.07,-428 1472.3,-391.871 1698.92,-268.368 1795.07,-232 1834.74,-216.994 1881.4,-203.771 1914.06,-195.204"/>
<polygon fill="midnightblue" stroke="midnightblue" points="1250.04,-462.497 1241.19,-468.322 1251.74,-469.287 1250.04,-462.497"/>
</g>
<!-- Node43&#45;&gt;Node26 -->
<g id="edge262" class="edge"><title>Node43&#45;&gt;Node26</title>
<path fill="none" stroke="midnightblue" d="M1174.69,-471.759C1132.21,-466.931 1062.67,-455.28 1009.07,-428 916.963,-381.121 831.988,-285.842 804.96,-253.794"/>
<polygon fill="midnightblue" stroke="midnightblue" points="1174.57,-475.266 1184.88,-472.845 1175.31,-468.305 1174.57,-475.266"/>
</g>
<!-- Node43&#45;&gt;Node28 -->
<g id="edge242" class="edge"><title>Node43&#45;&gt;Node28</title>
<path fill="none" stroke="midnightblue" d="M1250.94,-462.522C1276.69,-453.693 1311.34,-441.13 1341.07,-428 1427.78,-389.701 1526.72,-334.439 1566.79,-311.547"/>
<polygon fill="midnightblue" stroke="midnightblue" points="1249.53,-459.303 1241.19,-465.833 1251.79,-465.931 1249.53,-459.303"/>
</g>
<!-- Node43&#45;&gt;Node34 -->
<g id="edge244" class="edge"><title>Node43&#45;&gt;Node34</title>
<path fill="none" stroke="midnightblue" d="M1219.95,-454.521C1222.49,-446.347 1225.2,-436.802 1227.07,-428 1240.99,-362.421 1248.09,-281.938 1250.3,-253.531"/>
<polygon fill="midnightblue" stroke="midnightblue" points="1216.53,-453.708 1216.79,-464.3 1223.19,-455.858 1216.53,-453.708"/>
</g>
<!-- Node43&#45;&gt;Node36 -->
<g id="edge246" class="edge"><title>Node43&#45;&gt;Node36</title>
<path fill="none" stroke="midnightblue" d="M1175.03,-471.164C1099.75,-463.505 926.462,-445.541 781.067,-428 763.894,-425.928 744.752,-423.406 729.182,-421.299"/>
<polygon fill="midnightblue" stroke="midnightblue" points="1174.69,-474.647 1184.99,-472.175 1175.4,-467.683 1174.69,-474.647"/>
</g>
<!-- Node43&#45;&gt;Node37 -->
<g id="edge248" class="edge"><title>Node43&#45;&gt;Node37</title>
<path fill="none" stroke="midnightblue" d="M1251.19,-470.867C1344.49,-460.753 1584.54,-434.728 1693.19,-422.949"/>
<polygon fill="midnightblue" stroke="midnightblue" points="1250.64,-467.406 1241.08,-471.963 1251.4,-474.365 1250.64,-467.406"/>
</g>
<!-- Node43&#45;&gt;Node38 -->
<g id="edge250" class="edge"><title>Node43&#45;&gt;Node38</title>
<path fill="none" stroke="midnightblue" d="M1248.21,-460.242C1265.6,-452.072 1286.38,-440.949 1303.07,-428 1368.21,-377.443 1361.93,-340.557 1427.07,-290 1446.84,-274.653 1472.37,-261.87 1491.18,-253.53"/>
<polygon fill="midnightblue" stroke="midnightblue" points="1246.59,-457.134 1238.95,-464.47 1249.5,-463.502 1246.59,-457.134"/>
</g>
<!-- Node43&#45;&gt;Node39 -->
<g id="edge256" class="edge"><title>Node43&#45;&gt;Node39</title>
<path fill="none" stroke="midnightblue" d="M1174.78,-471.959C1089.35,-464.929 885.505,-446.713 819.067,-428 661.971,-383.753 488.692,-285.919 433.768,-253.595"/>
<polygon fill="midnightblue" stroke="midnightblue" points="1174.58,-475.455 1184.83,-472.78 1175.15,-468.478 1174.58,-475.455"/>
</g>
</g>
</svg>
