<?xml version="1.0" encoding="UTF-8" standalone="no"?>
<!DOCTYPE svg PUBLIC "-//W3C//DTD SVG 1.1//EN"
 "http://www.w3.org/Graphics/SVG/1.1/DTD/svg11.dtd">
<!-- Generated by graphviz version 2.26.3 (20100126.1600)
 -->
<!-- Title: vdt::details::fast_sincos_m45_45 Pages: 1 -->
<svg width="958pt" height="162pt"
 viewBox="0.00 0.00 958.00 162.00" xmlns="http://www.w3.org/2000/svg" xmlns:xlink="http://www.w3.org/1999/xlink">
<g id="graph1" class="graph" transform="scale(1 1) rotate(0) translate(4 158)">
<title>vdt::details::fast_sincos_m45_45</title>
<polygon fill="white" stroke="white" points="-4,5 -4,-158 955,-158 955,5 -4,5"/>
<!-- Node1 -->
<g id="node1" class="node"><title>Node1</title>
<polygon fill="#bfbfbf" stroke="black" points="0,-86 0,-120 90,-120 90,-86 0,-86"/>
<text text-anchor="start" x="8" y="-107" font-family="Helvetica,sans-Serif" font-size="10.00">vdt::details::fast</text>
<text text-anchor="middle" x="45" y="-94" font-family="Helvetica,sans-Serif" font-size="10.00">_sincos_m45_45</text>
</g>
<!-- Node2 -->
<g id="node3" class="node"><title>Node2</title>
<a xlink:href="../../d5/d7b/namespacevdt.html#a1993fb5f0f92028ffbf6e853790a0161" target="_top" xlink:title="Double precision sincos.">
<polygon fill="white" stroke="black" points="126,-92.5 126,-113.5 212,-113.5 212,-92.5 126,-92.5"/>
<text text-anchor="middle" x="169" y="-100.5" font-family="Helvetica,sans-Serif" font-size="10.00">vdt::fast_sincos</text>
</a>
</g>
<!-- Node1&#45;&gt;Node2 -->
<g id="edge2" class="edge"><title>Node1&#45;&gt;Node2</title>
<path fill="none" stroke="midnightblue" d="M100.377,-103C108.893,-103 117.577,-103 125.778,-103"/>
<polygon fill="midnightblue" stroke="midnightblue" points="100.118,-99.5001 90.1176,-103 100.118,-106.5 100.118,-99.5001"/>
</g>
<!-- Node3 -->
<g id="node5" class="node"><title>Node3</title>
<a xlink:href="../../d5/d7b/namespacevdt.html#a0013dcb44ade5e87e083c6a0daddcfd9" target="_top" xlink:title="Double precision sine: just call sincos.">
<polygon fill="white" stroke="black" points="248.5,-92.5 248.5,-113.5 319.5,-113.5 319.5,-92.5 248.5,-92.5"/>
<text text-anchor="middle" x="284" y="-100.5" font-family="Helvetica,sans-Serif" font-size="10.00">vdt::fast_sin</text>
</a>
</g>
<!-- Node2&#45;&gt;Node3 -->
<g id="edge4" class="edge"><title>Node2&#45;&gt;Node3</title>
<path fill="none" stroke="midnightblue" d="M222.419,-103C231.261,-103 240.233,-103 248.492,-103"/>
<polygon fill="midnightblue" stroke="midnightblue" points="222.149,-99.5001 212.149,-103 222.149,-106.5 222.149,-99.5001"/>
</g>
<!-- Node4 -->
<g id="node7" class="node"><title>Node4</title>
<a xlink:href="../../df/d6d/namespacemymath.html#a56db34e8382851729defc7a3eb906220" target="_top" xlink:title="mymath::fast_cos">
<polygon fill="white" stroke="black" points="356.5,-112.5 356.5,-133.5 451.5,-133.5 451.5,-112.5 356.5,-112.5"/>
<text text-anchor="middle" x="404" y="-120.5" font-family="Helvetica,sans-Serif" font-size="10.00">mymath::fast_cos</text>
</a>
</g>
<!-- Node3&#45;&gt;Node4 -->
<g id="edge6" class="edge"><title>Node3&#45;&gt;Node4</title>
<path fill="none" stroke="midnightblue" d="M329.647,-110.608C338.346,-112.058 347.472,-113.579 356.235,-115.039"/>
<polygon fill="midnightblue" stroke="midnightblue" points="330.118,-107.138 319.679,-108.947 328.968,-114.043 330.118,-107.138"/>
</g>
<!-- Node9 -->
<g id="node17" class="node"><title>Node9</title>
<a xlink:href="../../df/d6d/namespacemymath.html#a38897799c9327d162f914bbb097fb8e3" target="_top" xlink:title="mymath::fast_sin">
<polygon fill="white" stroke="black" points="358,-72.5 358,-93.5 450,-93.5 450,-72.5 358,-72.5"/>
<text text-anchor="middle" x="404" y="-80.5" font-family="Helvetica,sans-Serif" font-size="10.00">mymath::fast_sin</text>
</a>
</g>
<!-- Node3&#45;&gt;Node9 -->
<g id="edge16" class="edge"><title>Node3&#45;&gt;Node9</title>
<path fill="none" stroke="midnightblue" d="M329.544,-95.4093C338.857,-93.8572 348.664,-92.2227 357.992,-90.668"/>
<polygon fill="midnightblue" stroke="midnightblue" points="328.968,-91.957 319.679,-97.0535 330.118,-98.8618 328.968,-91.957"/>
</g>
<!-- Node5 -->
<g id="node9" class="node"><title>Node5</title>
<a xlink:href="../../de/d44/trackers_2utilities_8h.html#a31907045e09e1acf77495337b7c92830" target="_top" xlink:title="hamiltonian">
<polygon fill="white" stroke="black" points="517,-112.5 517,-133.5 583,-133.5 583,-112.5 517,-112.5"/>
<text text-anchor="middle" x="550" y="-120.5" font-family="Helvetica,sans-Serif" font-size="10.00">hamiltonian</text>
</a>
</g>
<!-- Node4&#45;&gt;Node5 -->
<g id="edge8" class="edge"><title>Node4&#45;&gt;Node5</title>
<path fill="none" stroke="midnightblue" d="M461.991,-123C480.637,-123 500.648,-123 516.87,-123"/>
<polygon fill="midnightblue" stroke="midnightblue" points="461.806,-119.5 451.806,-123 461.806,-126.5 461.806,-119.5"/>
</g>
<!-- Node6 -->
<g id="node11" class="node"><title>Node6</title>
<a xlink:href="../../de/d44/trackers_2utilities_8h.html#a8813a5065ff3ab5a0923846ab24ea265" target="_top" xlink:title="is_in_separatrix">
<polygon fill="white" stroke="black" points="673.5,-112.5 673.5,-133.5 758.5,-133.5 758.5,-112.5 673.5,-112.5"/>
<text text-anchor="middle" x="716" y="-120.5" font-family="Helvetica,sans-Serif" font-size="10.00">is_in_separatrix</text>
</a>
</g>
<!-- Node5&#45;&gt;Node6 -->
<g id="edge10" class="edge"><title>Node5&#45;&gt;Node6</title>
<path fill="none" stroke="midnightblue" d="M593.362,-123C618.044,-123 648.838,-123 673.394,-123"/>
<polygon fill="midnightblue" stroke="midnightblue" points="593.194,-119.5 583.194,-123 593.194,-126.5 593.194,-119.5"/>
</g>
<!-- Node7 -->
<g id="node13" class="node"><title>Node7</title>
<a xlink:href="../../dc/d7d/Distributions_8h.html#ad9600030e832de537807b8cae4b59590" target="_top" xlink:title="longitudinal_bigaussian">
<polygon fill="white" stroke="black" points="826.5,-132.5 826.5,-153.5 943.5,-153.5 943.5,-132.5 826.5,-132.5"/>
<text text-anchor="middle" x="885" y="-140.5" font-family="Helvetica,sans-Serif" font-size="10.00">longitudinal_bigaussian</text>
</a>
</g>
<!-- Node6&#45;&gt;Node7 -->
<g id="edge12" class="edge"><title>Node6&#45;&gt;Node7</title>
<path fill="none" stroke="midnightblue" d="M768.822,-129.251C787.103,-131.415 807.695,-133.852 826.411,-136.066"/>
<polygon fill="midnightblue" stroke="midnightblue" points="768.988,-125.746 758.646,-128.047 768.165,-132.698 768.988,-125.746"/>
</g>
<!-- Node8 -->
<g id="node15" class="node"><title>Node8</title>
<a xlink:href="../../d9/d7c/classBeams.html#a76e4b807fd1a83ae8fe190a774acaa19" target="_top" xlink:title="Beams::losses_separatrix">
<polygon fill="white" stroke="black" points="820,-92.5 820,-113.5 950,-113.5 950,-92.5 820,-92.5"/>
<text text-anchor="middle" x="885" y="-100.5" font-family="Helvetica,sans-Serif" font-size="10.00">Beams::losses_separatrix</text>
</a>
</g>
<!-- Node6&#45;&gt;Node8 -->
<g id="edge14" class="edge"><title>Node6&#45;&gt;Node8</title>
<path fill="none" stroke="midnightblue" d="M768.98,-116.73C785.147,-114.817 803.11,-112.691 819.977,-110.695"/>
<polygon fill="midnightblue" stroke="midnightblue" points="768.165,-113.302 758.646,-117.953 768.988,-120.254 768.165,-113.302"/>
</g>
<!-- Node9&#45;&gt;Node5 -->
<g id="edge18" class="edge"><title>Node9&#45;&gt;Node5</title>
<path fill="none" stroke="midnightblue" d="M452.16,-96.1946C473.362,-102.003 497.736,-108.681 516.853,-113.919"/>
<polygon fill="midnightblue" stroke="midnightblue" points="452.929,-92.7763 442.36,-93.5095 451.08,-99.5276 452.929,-92.7763"/>
</g>
<!-- Node10 -->
<g id="node20" class="node"><title>Node10</title>
<a xlink:href="../../de/da1/classRingAndRfSection.html#a10f29492bc5c4da2f978d76e6ffef564" target="_top" xlink:title="RingAndRfSection::kick">
<polygon fill="white" stroke="black" points="489,-72.5 489,-93.5 611,-93.5 611,-72.5 489,-72.5"/>
<text text-anchor="middle" x="550" y="-80.5" font-family="Helvetica,sans-Serif" font-size="10.00">RingAndRfSection::kick</text>
</a>
</g>
<!-- Node9&#45;&gt;Node10 -->
<g id="edge20" class="edge"><title>Node9&#45;&gt;Node10</title>
<path fill="none" stroke="midnightblue" d="M460.199,-83C469.588,-83 479.37,-83 488.876,-83"/>
<polygon fill="midnightblue" stroke="midnightblue" points="460.195,-79.5001 450.195,-83 460.195,-86.5001 460.195,-79.5001"/>
</g>
<!-- Node11 -->
<g id="node22" class="node"><title>Node11</title>
<a xlink:href="../../d6/d13/classFullRingAndRf.html#a76ca8401684654596782338b81268ef2" target="_top" xlink:title="FullRingAndRf::potential\l_well_generation">
<polygon fill="white" stroke="black" points="488.5,-20 488.5,-54 611.5,-54 611.5,-20 488.5,-20"/>
<text text-anchor="start" x="496.5" y="-41" font-family="Helvetica,sans-Serif" font-size="10.00">FullRingAndRf::potential</text>
<text text-anchor="middle" x="550" y="-28" font-family="Helvetica,sans-Serif" font-size="10.00">_well_generation</text>
</a>
</g>
<!-- Node9&#45;&gt;Node11 -->
<g id="edge22" class="edge"><title>Node9&#45;&gt;Node11</title>
<path fill="none" stroke="midnightblue" d="M447.171,-69.398C462.409,-64.5972 479.74,-59.1366 495.775,-54.0845"/>
<polygon fill="midnightblue" stroke="midnightblue" points="445.981,-66.1033 437.495,-72.4467 448.085,-72.7798 445.981,-66.1033"/>
</g>
<!-- Node12 -->
<g id="node24" class="node"><title>Node12</title>
<a xlink:href="../../dc/d7d/Distributions_8h.html#a39ba163b714fe197bd81ac64ffa48d30" target="_top" xlink:title="matched_from_distribution\l_density">
<polygon fill="white" stroke="black" points="650.5,-40 650.5,-74 781.5,-74 781.5,-40 650.5,-40"/>
<text text-anchor="start" x="658.5" y="-61" font-family="Helvetica,sans-Serif" font-size="10.00">matched_from_distribution</text>
<text text-anchor="middle" x="716" y="-48" font-family="Helvetica,sans-Serif" font-size="10.00">_density</text>
</a>
</g>
<!-- Node11&#45;&gt;Node12 -->
<g id="edge24" class="edge"><title>Node11&#45;&gt;Node12</title>
<path fill="none" stroke="midnightblue" d="M621.925,-45.6657C631.336,-46.7996 640.941,-47.9568 650.243,-49.0775"/>
<polygon fill="midnightblue" stroke="midnightblue" points="622.159,-42.1686 611.812,-44.4473 621.322,-49.1184 622.159,-42.1686"/>
</g>
<!-- Node13 -->
<g id="node26" class="node"><title>Node13</title>
<a xlink:href="../../dc/d7d/Distributions_8h.html#a392bda1df22a9c5034cb059fc9f8f349" target="_top" xlink:title="matched_from_line_density">
<polygon fill="white" stroke="black" points="648,-0.5 648,-21.5 784,-21.5 784,-0.5 648,-0.5"/>
<text text-anchor="middle" x="716" y="-8.5" font-family="Helvetica,sans-Serif" font-size="10.00">matched_from_line_density</text>
</a>
</g>
<!-- Node11&#45;&gt;Node13 -->
<g id="edge26" class="edge"><title>Node11&#45;&gt;Node13</title>
<path fill="none" stroke="midnightblue" d="M621.839,-25.7481C630.807,-24.3435 639.951,-22.9112 648.844,-21.5184"/>
<polygon fill="midnightblue" stroke="midnightblue" points="621.15,-22.3132 611.812,-27.3186 622.233,-29.2289 621.15,-22.3132"/>
</g>
</g>
</svg>
