<?xml version="1.0" encoding="UTF-8" standalone="no"?>
<!DOCTYPE svg PUBLIC "-//W3C//DTD SVG 1.1//EN"
 "http://www.w3.org/Graphics/SVG/1.1/DTD/svg11.dtd">
<!-- Generated by graphviz version 2.26.3 (20100126.1600)
 -->
<!-- Title: vdt::details::get_sin_px Pages: 1 -->
<!--zoomable 162 -->
<svg id="main" version="1.1" xmlns="http://www.w3.org/2000/svg" xmlns:xlink="http://www.w3.org/1999/xlink" xml:space="preserve" onload="init(evt)">
        <defs>
                <circle id="rim" cx="0" cy="0" r="7"/>
                <circle id="rim2" cx="0" cy="0" r="3.5"/>
                <g id="zoomPlus">
                        <use xlink:href="#rim" fill="#404040">
                                <set attributeName="fill" to="#808080" begin="zoomplus.mouseover" end="zoomplus.mouseout"/>
                        </use>
                        <path d="M-4,0h8M0,-4v8" fill="none" stroke="white" stroke-width="1.5" pointer-events="none"/>
                </g>
                <g id="zoomMin">
                        <use xlink:href="#rim" fill="#404040">
                                <set attributeName="fill" to="#808080" begin="zoomminus.mouseover" end="zoomminus.mouseout"/>
                        </use>
                        <path d="M-4,0h8" fill="none" stroke="white" stroke-width="1.5" pointer-events="none"/>
                </g>
                <g id="dirArrow">
                        <path fill="none" stroke="white" stroke-width="1.5" d="M0,-3.0v7 M-2.5,-0.5L0,-3.0L2.5,-0.5"/>
                </g>
               <g id="resetDef">
                       <use xlink:href="#rim2" fill="#404040">
                               <set attributeName="fill" to="#808080" begin="reset.mouseover" end="reset.mouseout"/>
                       </use>
               </g>
        </defs>

<script type="text/javascript">
var viewWidth = 1112;
var viewHeight = 162;
var sectionId = 'dynsection-13';
</script>
<script xlink:href="../../svgpan.js"/>
<svg id="graph" class="graph">
<g id="viewport">
<title>vdt::details::get_sin_px</title>
<polygon fill="white" stroke="white" points="-4,5 -4,-158 1109,-158 1109,5 -4,5"/>
<!-- Node1 -->
<g id="node1" class="node"><title>Node1</title>
<polygon fill="#bfbfbf" stroke="black" points="0,-92.5 0,-113.5 118,-113.5 118,-92.5 0,-92.5"/>
<text text-anchor="middle" x="59" y="-100.5" font-family="Helvetica,sans-Serif" font-size="10.00">vdt::details::get_sin_px</text>
</g>
<!-- Node2 -->
<g id="node3" class="node"><title>Node2</title>
<a xlink:href="../../d1/d47/namespacevdt_1_1details.html#aefa743c10ceb855329b7005d9f353a5d" target="_top" xlink:title="Sincos only for &#45;45deg &lt; x &lt; 45deg.">
<polygon fill="white" stroke="black" points="154,-86 154,-120 244,-120 244,-86 154,-86"/>
<text text-anchor="start" x="162" y="-107" font-family="Helvetica,sans-Serif" font-size="10.00">vdt::details::fast</text>
<text text-anchor="middle" x="199" y="-94" font-family="Helvetica,sans-Serif" font-size="10.00">_sincos_m45_45</text>
</a>
</g>
<!-- Node1&#45;&gt;Node2 -->
<g id="edge2" class="edge"><title>Node1&#45;&gt;Node2</title>
<path fill="none" stroke="midnightblue" d="M128.502,-103C137.161,-103 145.831,-103 153.981,-103"/>
<polygon fill="midnightblue" stroke="midnightblue" points="128.373,-99.5001 118.373,-103 128.373,-106.5 128.373,-99.5001"/>
</g>
<!-- Node3 -->
<g id="node5" class="node"><title>Node3</title>
<a xlink:href="../../d5/d7b/namespacevdt.html#a1993fb5f0f92028ffbf6e853790a0161" target="_top" xlink:title="Double precision sincos.">
<polygon fill="white" stroke="black" points="280,-92.5 280,-113.5 366,-113.5 366,-92.5 280,-92.5"/>
<text text-anchor="middle" x="323" y="-100.5" font-family="Helvetica,sans-Serif" font-size="10.00">vdt::fast_sincos</text>
</a>
</g>
<!-- Node2&#45;&gt;Node3 -->
<g id="edge4" class="edge"><title>Node2&#45;&gt;Node3</title>
<path fill="none" stroke="midnightblue" d="M254.377,-103C262.893,-103 271.577,-103 279.778,-103"/>
<polygon fill="midnightblue" stroke="midnightblue" points="254.118,-99.5001 244.118,-103 254.118,-106.5 254.118,-99.5001"/>
</g>
<!-- Node4 -->
<g id="node7" class="node"><title>Node4</title>
<a xlink:href="../../d5/d7b/namespacevdt.html#a0013dcb44ade5e87e083c6a0daddcfd9" target="_top" xlink:title="Double precision sine: just call sincos.">
<polygon fill="white" stroke="black" points="402.5,-92.5 402.5,-113.5 473.5,-113.5 473.5,-92.5 402.5,-92.5"/>
<text text-anchor="middle" x="438" y="-100.5" font-family="Helvetica,sans-Serif" font-size="10.00">vdt::fast_sin</text>
</a>
</g>
<!-- Node3&#45;&gt;Node4 -->
<g id="edge6" class="edge"><title>Node3&#45;&gt;Node4</title>
<path fill="none" stroke="midnightblue" d="M376.419,-103C385.261,-103 394.233,-103 402.492,-103"/>
<polygon fill="midnightblue" stroke="midnightblue" points="376.149,-99.5001 366.149,-103 376.149,-106.5 376.149,-99.5001"/>
</g>
<!-- Node5 -->
<g id="node9" class="node"><title>Node5</title>
<a xlink:href="../../df/d6d/namespacemymath.html#a56db34e8382851729defc7a3eb906220" target="_top" xlink:title="mymath::fast_cos">
<polygon fill="white" stroke="black" points="510.5,-112.5 510.5,-133.5 605.5,-133.5 605.5,-112.5 510.5,-112.5"/>
<text text-anchor="middle" x="558" y="-120.5" font-family="Helvetica,sans-Serif" font-size="10.00">mymath::fast_cos</text>
</a>
</g>
<!-- Node4&#45;&gt;Node5 -->
<g id="edge8" class="edge"><title>Node4&#45;&gt;Node5</title>
<path fill="none" stroke="midnightblue" d="M483.647,-110.608C492.346,-112.058 501.472,-113.579 510.235,-115.039"/>
<polygon fill="midnightblue" stroke="midnightblue" points="484.118,-107.138 473.679,-108.947 482.968,-114.043 484.118,-107.138"/>
</g>
<!-- Node10 -->
<g id="node19" class="node"><title>Node10</title>
<a xlink:href="../../df/d6d/namespacemymath.html#a38897799c9327d162f914bbb097fb8e3" target="_top" xlink:title="mymath::fast_sin">
<polygon fill="white" stroke="black" points="512,-72.5 512,-93.5 604,-93.5 604,-72.5 512,-72.5"/>
<text text-anchor="middle" x="558" y="-80.5" font-family="Helvetica,sans-Serif" font-size="10.00">mymath::fast_sin</text>
</a>
</g>
<!-- Node4&#45;&gt;Node10 -->
<g id="edge18" class="edge"><title>Node4&#45;&gt;Node10</title>
<path fill="none" stroke="midnightblue" d="M483.544,-95.4093C492.857,-93.8572 502.664,-92.2227 511.992,-90.668"/>
<polygon fill="midnightblue" stroke="midnightblue" points="482.968,-91.957 473.679,-97.0535 484.118,-98.8618 482.968,-91.957"/>
</g>
<!-- Node6 -->
<g id="node11" class="node"><title>Node6</title>
<a xlink:href="../../de/d44/trackers_2utilities_8h.html#a31907045e09e1acf77495337b7c92830" target="_top" xlink:title="hamiltonian">
<polygon fill="white" stroke="black" points="671,-112.5 671,-133.5 737,-133.5 737,-112.5 671,-112.5"/>
<text text-anchor="middle" x="704" y="-120.5" font-family="Helvetica,sans-Serif" font-size="10.00">hamiltonian</text>
</a>
</g>
<!-- Node5&#45;&gt;Node6 -->
<g id="edge10" class="edge"><title>Node5&#45;&gt;Node6</title>
<path fill="none" stroke="midnightblue" d="M615.991,-123C634.637,-123 654.648,-123 670.87,-123"/>
<polygon fill="midnightblue" stroke="midnightblue" points="615.806,-119.5 605.806,-123 615.806,-126.5 615.806,-119.5"/>
</g>
<!-- Node7 -->
<g id="node13" class="node"><title>Node7</title>
<a xlink:href="../../de/d44/trackers_2utilities_8h.html#a8813a5065ff3ab5a0923846ab24ea265" target="_top" xlink:title="is_in_separatrix">
<polygon fill="white" stroke="black" points="827.5,-112.5 827.5,-133.5 912.5,-133.5 912.5,-112.5 827.5,-112.5"/>
<text text-anchor="middle" x="870" y="-120.5" font-family="Helvetica,sans-Serif" font-size="10.00">is_in_separatrix</text>
</a>
</g>
<!-- Node6&#45;&gt;Node7 -->
<g id="edge12" class="edge"><title>Node6&#45;&gt;Node7</title>
<path fill="none" stroke="midnightblue" d="M747.362,-123C772.044,-123 802.838,-123 827.394,-123"/>
<polygon fill="midnightblue" stroke="midnightblue" points="747.194,-119.5 737.194,-123 747.194,-126.5 747.194,-119.5"/>
</g>
<!-- Node8 -->
<g id="node15" class="node"><title>Node8</title>
<a xlink:href="../../dc/d7d/Distributions_8h.html#ad9600030e832de537807b8cae4b59590" target="_top" xlink:title="longitudinal_bigaussian">
<polygon fill="white" stroke="black" points="980.5,-132.5 980.5,-153.5 1097.5,-153.5 1097.5,-132.5 980.5,-132.5"/>
<text text-anchor="middle" x="1039" y="-140.5" font-family="Helvetica,sans-Serif" font-size="10.00">longitudinal_bigaussian</text>
</a>
</g>
<!-- Node7&#45;&gt;Node8 -->
<g id="edge14" class="edge"><title>Node7&#45;&gt;Node8</title>
<path fill="none" stroke="midnightblue" d="M922.822,-129.251C941.103,-131.415 961.695,-133.852 980.411,-136.066"/>
<polygon fill="midnightblue" stroke="midnightblue" points="922.988,-125.746 912.646,-128.047 922.165,-132.698 922.988,-125.746"/>
</g>
<!-- Node9 -->
<g id="node17" class="node"><title>Node9</title>
<a xlink:href="../../d9/d7c/classBeams.html#a76e4b807fd1a83ae8fe190a774acaa19" target="_top" xlink:title="Beams::losses_separatrix">
<polygon fill="white" stroke="black" points="974,-92.5 974,-113.5 1104,-113.5 1104,-92.5 974,-92.5"/>
<text text-anchor="middle" x="1039" y="-100.5" font-family="Helvetica,sans-Serif" font-size="10.00">Beams::losses_separatrix</text>
</a>
</g>
<!-- Node7&#45;&gt;Node9 -->
<g id="edge16" class="edge"><title>Node7&#45;&gt;Node9</title>
<path fill="none" stroke="midnightblue" d="M922.98,-116.73C939.147,-114.817 957.11,-112.691 973.977,-110.695"/>
<polygon fill="midnightblue" stroke="midnightblue" points="922.165,-113.302 912.646,-117.953 922.988,-120.254 922.165,-113.302"/>
</g>
<!-- Node10&#45;&gt;Node6 -->
<g id="edge20" class="edge"><title>Node10&#45;&gt;Node6</title>
<path fill="none" stroke="midnightblue" d="M606.16,-96.1946C627.362,-102.003 651.736,-108.681 670.853,-113.919"/>
<polygon fill="midnightblue" stroke="midnightblue" points="606.929,-92.7763 596.36,-93.5095 605.08,-99.5276 606.929,-92.7763"/>
</g>
<!-- Node11 -->
<g id="node22" class="node"><title>Node11</title>
<a xlink:href="../../de/da1/classRingAndRfSection.html#a10f29492bc5c4da2f978d76e6ffef564" target="_top" xlink:title="RingAndRfSection::kick">
<polygon fill="white" stroke="black" points="643,-72.5 643,-93.5 765,-93.5 765,-72.5 643,-72.5"/>
<text text-anchor="middle" x="704" y="-80.5" font-family="Helvetica,sans-Serif" font-size="10.00">RingAndRfSection::kick</text>
</a>
</g>
<!-- Node10&#45;&gt;Node11 -->
<g id="edge22" class="edge"><title>Node10&#45;&gt;Node11</title>
<path fill="none" stroke="midnightblue" d="M614.199,-83C623.588,-83 633.37,-83 642.876,-83"/>
<polygon fill="midnightblue" stroke="midnightblue" points="614.195,-79.5001 604.195,-83 614.195,-86.5001 614.195,-79.5001"/>
</g>
<!-- Node12 -->
<g id="node24" class="node"><title>Node12</title>
<a xlink:href="../../d6/d13/classFullRingAndRf.html#a76ca8401684654596782338b81268ef2" target="_top" xlink:title="FullRingAndRf::potential\l_well_generation">
<polygon fill="white" stroke="black" points="642.5,-20 642.5,-54 765.5,-54 765.5,-20 642.5,-20"/>
<text text-anchor="start" x="650.5" y="-41" font-family="Helvetica,sans-Serif" font-size="10.00">FullRingAndRf::potential</text>
<text text-anchor="middle" x="704" y="-28" font-family="Helvetica,sans-Serif" font-size="10.00">_well_generation</text>
</a>
</g>
<!-- Node10&#45;&gt;Node12 -->
<g id="edge24" class="edge"><title>Node10&#45;&gt;Node12</title>
<path fill="none" stroke="midnightblue" d="M601.171,-69.398C616.409,-64.5972 633.74,-59.1366 649.775,-54.0845"/>
<polygon fill="midnightblue" stroke="midnightblue" points="599.981,-66.1033 591.495,-72.4467 602.085,-72.7798 599.981,-66.1033"/>
</g>
<!-- Node13 -->
<g id="node26" class="node"><title>Node13</title>
<a xlink:href="../../dc/d7d/Distributions_8h.html#a39ba163b714fe197bd81ac64ffa48d30" target="_top" xlink:title="matched_from_distribution\l_density">
<polygon fill="white" stroke="black" points="804.5,-40 804.5,-74 935.5,-74 935.5,-40 804.5,-40"/>
<text text-anchor="start" x="812.5" y="-61" font-family="Helvetica,sans-Serif" font-size="10.00">matched_from_distribution</text>
<text text-anchor="middle" x="870" y="-48" font-family="Helvetica,sans-Serif" font-size="10.00">_density</text>
</a>
</g>
<!-- Node12&#45;&gt;Node13 -->
<g id="edge26" class="edge"><title>Node12&#45;&gt;Node13</title>
<path fill="none" stroke="midnightblue" d="M775.925,-45.6657C785.336,-46.7996 794.941,-47.9568 804.243,-49.0775"/>
<polygon fill="midnightblue" stroke="midnightblue" points="776.159,-42.1686 765.812,-44.4473 775.322,-49.1184 776.159,-42.1686"/>
</g>
<!-- Node14 -->
<g id="node28" class="node"><title>Node14</title>
<a xlink:href="../../dc/d7d/Distributions_8h.html#aa18b9fc400fa994778e7e811423c2f06" target="_top" xlink:title="matched_from_line_density">
<polygon fill="white" stroke="black" points="802,-0.5 802,-21.5 938,-21.5 938,-0.5 802,-0.5"/>
<text text-anchor="middle" x="870" y="-8.5" font-family="Helvetica,sans-Serif" font-size="10.00">matched_from_line_density</text>
</a>
</g>
<!-- Node12&#45;&gt;Node14 -->
<g id="edge28" class="edge"><title>Node12&#45;&gt;Node14</title>
<path fill="none" stroke="midnightblue" d="M775.839,-25.7481C784.807,-24.3435 793.951,-22.9112 802.844,-21.5184"/>
<polygon fill="midnightblue" stroke="midnightblue" points="775.15,-22.3132 765.812,-27.3186 776.233,-29.2289 775.15,-22.3132"/>
</g>
</g>
</svg>
        <g id="navigator" transform="translate(0 0)" fill="#404254">
                <rect fill="#f2f5e9" fill-opacity="0.5" stroke="#606060" stroke-width=".5" x="0" y="0" width="60" height="60"/>
                <use id="zoomplus" xlink:href="#zoomPlus" x="17" y="9" onmousedown="handleZoom(evt,'in')"/>
                <use id="zoomminus" xlink:href="#zoomMin" x="42" y="9" onmousedown="handleZoom(evt,'out')"/>
                <use id="reset" xlink:href="#resetDef" x="30" y="36" onmousedown="handleReset()"/>
                <g id="arrowUp" xlink:href="#dirArrow" transform="translate(30 24)" onmousedown="handlePan(0,-1)">
                  <use xlink:href="#rim" fill="#404040">
                        <set attributeName="fill" to="#808080" begin="arrowUp.mouseover" end="arrowUp.mouseout"/>
                  </use>
                  <path fill="none" stroke="white" stroke-width="1.5" d="M0,-3.0v7 M-2.5,-0.5L0,-3.0L2.5,-0.5"/>
                </g>
                <g id="arrowRight" xlink:href="#dirArrow" transform="rotate(90) translate(36 -43)" onmousedown="handlePan(1,0)">
                  <use xlink:href="#rim" fill="#404040">
                        <set attributeName="fill" to="#808080" begin="arrowRight.mouseover" end="arrowRight.mouseout"/>
                  </use>
                  <path fill="none" stroke="white" stroke-width="1.5" d="M0,-3.0v7 M-2.5,-0.5L0,-3.0L2.5,-0.5"/>
                </g>
                <g id="arrowDown" xlink:href="#dirArrow" transform="rotate(180) translate(-30 -48)" onmousedown="handlePan(0,1)">
                  <use xlink:href="#rim" fill="#404040">
                        <set attributeName="fill" to="#808080" begin="arrowDown.mouseover" end="arrowDown.mouseout"/>
                  </use>
                  <path fill="none" stroke="white" stroke-width="1.5" d="M0,-3.0v7 M-2.5,-0.5L0,-3.0L2.5,-0.5"/>
                </g>
                <g id="arrowLeft" xlink:href="#dirArrow" transform="rotate(270) translate(-36 17)" onmousedown="handlePan(-1,0)">
                  <use xlink:href="#rim" fill="#404040">
                        <set attributeName="fill" to="#808080" begin="arrowLeft.mouseover" end="arrowLeft.mouseout"/>
                  </use>
                  <path fill="none" stroke="white" stroke-width="1.5" d="M0,-3.0v7 M-2.5,-0.5L0,-3.0L2.5,-0.5"/>
                </g>
        </g>
        <svg viewBox="0 0 15 15" width="100%" height="30px" preserveAspectRatio="xMaxYMin meet">
         <g id="arrow_out" transform="scale(0.3 0.3)">
          <a xlink:href="namespacevdt_1_1details_a72ab4125be9fdc73004f1fcec303dea6_icgraph_org.svg" target="_base">
           <rect id="button" ry="5" rx="5" y="6" x="6" height="38" width="38"
                fill="#f2f5e9" fill-opacity="0.5" stroke="#606060" stroke-width="1.0"/>
           <path id="arrow"
             d="M 11.500037,31.436501 C 11.940474,20.09759 22.043105,11.32322 32.158766,21.979434 L 37.068811,17.246167 C 37.068811,17.246167 37.088388,32 37.088388,32 L 22.160133,31.978069 C 22.160133,31.978069 26.997745,27.140456 26.997745,27.140456 C 18.528582,18.264221 13.291696,25.230495 11.500037,31.436501 z"
             style="fill:#404040;"/>
          </a>
         </g>
        </svg>
</svg>
