<?xml version="1.0" encoding="UTF-8" standalone="no"?>
<!DOCTYPE svg PUBLIC "-//W3C//DTD SVG 1.1//EN"
 "http://www.w3.org/Graphics/SVG/1.1/DTD/svg11.dtd">
<!-- Generated by graphviz version 2.26.3 (20100126.1600)
 -->
<!-- Title: vdt::details::fast_sincos_m45_45 Pages: 1 -->
<svg width="958pt" height="205pt"
 viewBox="0.00 0.00 958.00 205.00" xmlns="http://www.w3.org/2000/svg" xmlns:xlink="http://www.w3.org/1999/xlink">
<g id="graph1" class="graph" transform="scale(1 1) rotate(0) translate(4 201)">
<title>vdt::details::fast_sincos_m45_45</title>
<polygon fill="white" stroke="white" points="-4,5 -4,-201 955,-201 955,5 -4,5"/>
<!-- Node1 -->
<g id="node1" class="node"><title>Node1</title>
<polygon fill="#bfbfbf" stroke="black" points="0,-109 0,-143 90,-143 90,-109 0,-109"/>
<text text-anchor="start" x="8" y="-130" font-family="Helvetica,sans-Serif" font-size="10.00">vdt::details::fast</text>
<text text-anchor="middle" x="45" y="-117" font-family="Helvetica,sans-Serif" font-size="10.00">_sincos_m45_45</text>
</g>
<!-- Node2 -->
<g id="node3" class="node"><title>Node2</title>
<a xlink:href="../../d5/d7b/namespacevdt.html#a1993fb5f0f92028ffbf6e853790a0161" target="_top" xlink:title="Double precision sincos.">
<polygon fill="white" stroke="black" points="126,-115.5 126,-136.5 212,-136.5 212,-115.5 126,-115.5"/>
<text text-anchor="middle" x="169" y="-123.5" font-family="Helvetica,sans-Serif" font-size="10.00">vdt::fast_sincos</text>
</a>
</g>
<!-- Node1&#45;&gt;Node2 -->
<g id="edge2" class="edge"><title>Node1&#45;&gt;Node2</title>
<path fill="none" stroke="midnightblue" d="M100.377,-126C108.893,-126 117.577,-126 125.778,-126"/>
<polygon fill="midnightblue" stroke="midnightblue" points="100.118,-122.5 90.1176,-126 100.118,-129.5 100.118,-122.5"/>
</g>
<!-- Node3 -->
<g id="node5" class="node"><title>Node3</title>
<a xlink:href="../../d5/d7b/namespacevdt.html#a0013dcb44ade5e87e083c6a0daddcfd9" target="_top" xlink:title="Double precision sine: just call sincos.">
<polygon fill="white" stroke="black" points="248.5,-115.5 248.5,-136.5 319.5,-136.5 319.5,-115.5 248.5,-115.5"/>
<text text-anchor="middle" x="284" y="-123.5" font-family="Helvetica,sans-Serif" font-size="10.00">vdt::fast_sin</text>
</a>
</g>
<!-- Node2&#45;&gt;Node3 -->
<g id="edge4" class="edge"><title>Node2&#45;&gt;Node3</title>
<path fill="none" stroke="midnightblue" d="M222.419,-126C231.261,-126 240.233,-126 248.492,-126"/>
<polygon fill="midnightblue" stroke="midnightblue" points="222.149,-122.5 212.149,-126 222.149,-129.5 222.149,-122.5"/>
</g>
<!-- Node4 -->
<g id="node7" class="node"><title>Node4</title>
<a xlink:href="../../df/d6d/namespacemymath.html#a56db34e8382851729defc7a3eb906220" target="_top" xlink:title="mymath::fast_cos">
<polygon fill="white" stroke="black" points="356.5,-135.5 356.5,-156.5 451.5,-156.5 451.5,-135.5 356.5,-135.5"/>
<text text-anchor="middle" x="404" y="-143.5" font-family="Helvetica,sans-Serif" font-size="10.00">mymath::fast_cos</text>
</a>
</g>
<!-- Node3&#45;&gt;Node4 -->
<g id="edge6" class="edge"><title>Node3&#45;&gt;Node4</title>
<path fill="none" stroke="midnightblue" d="M329.647,-133.608C338.346,-135.058 347.472,-136.579 356.235,-138.039"/>
<polygon fill="midnightblue" stroke="midnightblue" points="330.118,-130.138 319.679,-131.947 328.968,-137.043 330.118,-130.138"/>
</g>
<!-- Node10 -->
<g id="node19" class="node"><title>Node10</title>
<a xlink:href="../../df/d6d/namespacemymath.html#a38897799c9327d162f914bbb097fb8e3" target="_top" xlink:title="mymath::fast_sin">
<polygon fill="white" stroke="black" points="358,-95.5 358,-116.5 450,-116.5 450,-95.5 358,-95.5"/>
<text text-anchor="middle" x="404" y="-103.5" font-family="Helvetica,sans-Serif" font-size="10.00">mymath::fast_sin</text>
</a>
</g>
<!-- Node3&#45;&gt;Node10 -->
<g id="edge18" class="edge"><title>Node3&#45;&gt;Node10</title>
<path fill="none" stroke="midnightblue" d="M329.544,-118.409C338.857,-116.857 348.664,-115.223 357.992,-113.668"/>
<polygon fill="midnightblue" stroke="midnightblue" points="328.968,-114.957 319.679,-120.053 330.118,-121.862 328.968,-114.957"/>
</g>
<!-- Node5 -->
<g id="node9" class="node"><title>Node5</title>
<a xlink:href="../../de/d44/trackers_2utilities_8h.html#a31907045e09e1acf77495337b7c92830" target="_top" xlink:title="hamiltonian">
<polygon fill="white" stroke="black" points="517,-155.5 517,-176.5 583,-176.5 583,-155.5 517,-155.5"/>
<text text-anchor="middle" x="550" y="-163.5" font-family="Helvetica,sans-Serif" font-size="10.00">hamiltonian</text>
</a>
</g>
<!-- Node4&#45;&gt;Node5 -->
<g id="edge8" class="edge"><title>Node4&#45;&gt;Node5</title>
<path fill="none" stroke="midnightblue" d="M461.733,-153.909C480.452,-156.473 500.573,-159.229 516.87,-161.462"/>
<polygon fill="midnightblue" stroke="midnightblue" points="462.188,-150.438 451.806,-152.549 461.238,-157.374 462.188,-150.438"/>
</g>
<!-- Node9 -->
<g id="node17" class="node"><title>Node9</title>
<a xlink:href="../../d2/d2f/classMusic.html#a2016c0b24cc8359176692b37f8f1917e" target="_top" xlink:title="Music::track">
<polygon fill="white" stroke="black" points="514.5,-115.5 514.5,-136.5 585.5,-136.5 585.5,-115.5 514.5,-115.5"/>
<text text-anchor="middle" x="550" y="-123.5" font-family="Helvetica,sans-Serif" font-size="10.00">Music::track</text>
</a>
</g>
<!-- Node4&#45;&gt;Node9 -->
<g id="edge16" class="edge"><title>Node4&#45;&gt;Node9</title>
<path fill="none" stroke="midnightblue" d="M462,-138.055C479.607,-135.643 498.432,-133.064 514.132,-130.913"/>
<polygon fill="midnightblue" stroke="midnightblue" points="461.238,-134.626 451.806,-139.451 462.188,-141.562 461.238,-134.626"/>
</g>
<!-- Node6 -->
<g id="node11" class="node"><title>Node6</title>
<a xlink:href="../../de/d44/trackers_2utilities_8h.html#a8813a5065ff3ab5a0923846ab24ea265" target="_top" xlink:title="is_in_separatrix">
<polygon fill="white" stroke="black" points="673.5,-155.5 673.5,-176.5 758.5,-176.5 758.5,-155.5 673.5,-155.5"/>
<text text-anchor="middle" x="716" y="-163.5" font-family="Helvetica,sans-Serif" font-size="10.00">is_in_separatrix</text>
</a>
</g>
<!-- Node5&#45;&gt;Node6 -->
<g id="edge10" class="edge"><title>Node5&#45;&gt;Node6</title>
<path fill="none" stroke="midnightblue" d="M593.362,-166C618.044,-166 648.838,-166 673.394,-166"/>
<polygon fill="midnightblue" stroke="midnightblue" points="593.194,-162.5 583.194,-166 593.194,-169.5 593.194,-162.5"/>
</g>
<!-- Node7 -->
<g id="node13" class="node"><title>Node7</title>
<a xlink:href="../../dc/d7d/Distributions_8h.html#ad9600030e832de537807b8cae4b59590" target="_top" xlink:title="longitudinal_bigaussian">
<polygon fill="white" stroke="black" points="826.5,-175.5 826.5,-196.5 943.5,-196.5 943.5,-175.5 826.5,-175.5"/>
<text text-anchor="middle" x="885" y="-183.5" font-family="Helvetica,sans-Serif" font-size="10.00">longitudinal_bigaussian</text>
</a>
</g>
<!-- Node6&#45;&gt;Node7 -->
<g id="edge12" class="edge"><title>Node6&#45;&gt;Node7</title>
<path fill="none" stroke="midnightblue" d="M768.822,-172.251C787.103,-174.415 807.695,-176.852 826.411,-179.066"/>
<polygon fill="midnightblue" stroke="midnightblue" points="768.988,-168.746 758.646,-171.047 768.165,-175.698 768.988,-168.746"/>
</g>
<!-- Node8 -->
<g id="node15" class="node"><title>Node8</title>
<a xlink:href="../../d9/d7c/classBeams.html#a76e4b807fd1a83ae8fe190a774acaa19" target="_top" xlink:title="Beams::losses_separatrix">
<polygon fill="white" stroke="black" points="820,-135.5 820,-156.5 950,-156.5 950,-135.5 820,-135.5"/>
<text text-anchor="middle" x="885" y="-143.5" font-family="Helvetica,sans-Serif" font-size="10.00">Beams::losses_separatrix</text>
</a>
</g>
<!-- Node6&#45;&gt;Node8 -->
<g id="edge14" class="edge"><title>Node6&#45;&gt;Node8</title>
<path fill="none" stroke="midnightblue" d="M768.98,-159.73C785.147,-157.817 803.11,-155.691 819.977,-153.695"/>
<polygon fill="midnightblue" stroke="midnightblue" points="768.165,-156.302 758.646,-160.953 768.988,-163.254 768.165,-156.302"/>
</g>
<!-- Node10&#45;&gt;Node5 -->
<g id="edge20" class="edge"><title>Node10&#45;&gt;Node5</title>
<path fill="none" stroke="midnightblue" d="M440.185,-120.563C444.2,-122.331 448.206,-124.163 452,-126 468.474,-133.977 471.21,-138.711 488,-146 497.13,-149.963 507.309,-153.565 516.737,-156.586"/>
<polygon fill="midnightblue" stroke="midnightblue" points="441.465,-117.304 430.895,-116.582 438.708,-123.738 441.465,-117.304"/>
</g>
<!-- Node10&#45;&gt;Node9 -->
<g id="edge30" class="edge"><title>Node10&#45;&gt;Node9</title>
<path fill="none" stroke="midnightblue" d="M460.121,-113.688C478.317,-116.18 497.994,-118.876 514.284,-121.107"/>
<polygon fill="midnightblue" stroke="midnightblue" points="460.578,-110.218 450.195,-112.328 459.628,-117.153 460.578,-110.218"/>
</g>
<!-- Node11 -->
<g id="node22" class="node"><title>Node11</title>
<a xlink:href="../../de/da1/classRingAndRfSection.html#a10f29492bc5c4da2f978d76e6ffef564" target="_top" xlink:title="RingAndRfSection::kick">
<polygon fill="white" stroke="black" points="489,-75.5 489,-96.5 611,-96.5 611,-75.5 489,-75.5"/>
<text text-anchor="middle" x="550" y="-83.5" font-family="Helvetica,sans-Serif" font-size="10.00">RingAndRfSection::kick</text>
</a>
</g>
<!-- Node10&#45;&gt;Node11 -->
<g id="edge22" class="edge"><title>Node10&#45;&gt;Node11</title>
<path fill="none" stroke="midnightblue" d="M460.199,-98.3016C469.588,-97.0153 479.37,-95.6753 488.876,-94.3732"/>
<polygon fill="midnightblue" stroke="midnightblue" points="459.628,-94.847 450.195,-99.6719 460.578,-101.782 459.628,-94.847"/>
</g>
<!-- Node12 -->
<g id="node24" class="node"><title>Node12</title>
<a xlink:href="../../d6/d13/classFullRingAndRf.html#a76ca8401684654596782338b81268ef2" target="_top" xlink:title="FullRingAndRf::potential\l_well_generation">
<polygon fill="white" stroke="black" points="488.5,-23 488.5,-57 611.5,-57 611.5,-23 488.5,-23"/>
<text text-anchor="start" x="496.5" y="-44" font-family="Helvetica,sans-Serif" font-size="10.00">FullRingAndRf::potential</text>
<text text-anchor="middle" x="550" y="-31" font-family="Helvetica,sans-Serif" font-size="10.00">_well_generation</text>
</a>
</g>
<!-- Node10&#45;&gt;Node12 -->
<g id="edge24" class="edge"><title>Node10&#45;&gt;Node12</title>
<path fill="none" stroke="midnightblue" d="M434.922,-90.8453C450.719,-83.2128 470.296,-73.922 488,-66 494.606,-63.0442 501.648,-59.9951 508.529,-57.0713"/>
<polygon fill="midnightblue" stroke="midnightblue" points="433.094,-87.8421 425.624,-95.3564 436.149,-94.14 433.094,-87.8421"/>
</g>
<!-- Node13 -->
<g id="node26" class="node"><title>Node13</title>
<a xlink:href="../../dc/d7d/Distributions_8h.html#a5493d96431d1b52db9fc4617281f457d" target="_top" xlink:title="matched_from_distribution\l_density">
<polygon fill="white" stroke="black" points="650.5,-0 650.5,-34 781.5,-34 781.5,-0 650.5,-0"/>
<text text-anchor="start" x="658.5" y="-21" font-family="Helvetica,sans-Serif" font-size="10.00">matched_from_distribution</text>
<text text-anchor="middle" x="716" y="-8" font-family="Helvetica,sans-Serif" font-size="10.00">_density</text>
</a>
</g>
<!-- Node12&#45;&gt;Node13 -->
<g id="edge26" class="edge"><title>Node12&#45;&gt;Node13</title>
<path fill="none" stroke="midnightblue" d="M621.925,-30.0345C631.336,-28.7305 640.941,-27.3997 650.243,-26.1109"/>
<polygon fill="midnightblue" stroke="midnightblue" points="621.237,-26.5963 611.812,-31.4356 622.198,-33.53 621.237,-26.5963"/>
</g>
<!-- Node14 -->
<g id="node28" class="node"><title>Node14</title>
<a xlink:href="../../dc/d7d/Distributions_8h.html#a00d3d5dce2d6cb66bd5b4bcc53abb901" target="_top" xlink:title="matched_from_line_density">
<polygon fill="white" stroke="black" points="648,-52.5 648,-73.5 784,-73.5 784,-52.5 648,-52.5"/>
<text text-anchor="middle" x="716" y="-60.5" font-family="Helvetica,sans-Serif" font-size="10.00">matched_from_line_density</text>
</a>
</g>
<!-- Node12&#45;&gt;Node14 -->
<g id="edge28" class="edge"><title>Node12&#45;&gt;Node14</title>
<path fill="none" stroke="midnightblue" d="M621.81,-49.9496C630.41,-51.1412 639.174,-52.3554 647.722,-53.5397"/>
<polygon fill="midnightblue" stroke="midnightblue" points="622.198,-46.47 611.812,-48.5644 621.237,-53.4037 622.198,-46.47"/>
</g>
</g>
</svg>
