<?xml version="1.0" encoding="UTF-8" standalone="no"?>
<!DOCTYPE svg PUBLIC "-//W3C//DTD SVG 1.1//EN"
 "http://www.w3.org/Graphics/SVG/1.1/DTD/svg11.dtd">
<!-- Generated by graphviz version 2.26.3 (20100126.1600)
 -->
<!-- Title: blond::LHCNoiseFB Pages: 1 -->
<!--zoomable 508 -->
<svg id="main" version="1.1" xmlns="http://www.w3.org/2000/svg" xmlns:xlink="http://www.w3.org/1999/xlink" xml:space="preserve" onload="init(evt)">
        <defs>
                <circle id="rim" cx="0" cy="0" r="7"/>
                <circle id="rim2" cx="0" cy="0" r="3.5"/>
                <g id="zoomPlus">
                        <use xlink:href="#rim" fill="#404040">
                                <set attributeName="fill" to="#808080" begin="zoomplus.mouseover" end="zoomplus.mouseout"/>
                        </use>
                        <path d="M-4,0h8M0,-4v8" fill="none" stroke="white" stroke-width="1.5" pointer-events="none"/>
                </g>
                <g id="zoomMin">
                        <use xlink:href="#rim" fill="#404040">
                                <set attributeName="fill" to="#808080" begin="zoomminus.mouseover" end="zoomminus.mouseout"/>
                        </use>
                        <path d="M-4,0h8" fill="none" stroke="white" stroke-width="1.5" pointer-events="none"/>
                </g>
                <g id="dirArrow">
                        <path fill="none" stroke="white" stroke-width="1.5" d="M0,-3.0v7 M-2.5,-0.5L0,-3.0L2.5,-0.5"/>
                </g>
               <g id="resetDef">
                       <use xlink:href="#rim2" fill="#404040">
                               <set attributeName="fill" to="#808080" begin="reset.mouseover" end="reset.mouseout"/>
                       </use>
               </g>
        </defs>

<script type="text/javascript">
var viewWidth = 474;
var viewHeight = 508;
var sectionId = 'dynsection-0';
</script>
<script xlink:href="../../svgpan.js"/>
<svg id="graph" class="graph">
<g id="viewport">
<title>blond::LHCNoiseFB</title>
<polygon fill="white" stroke="white" points="-4,5 -4,-504 471,-504 471,5 -4,5"/>
<!-- Node1 -->
<g id="node1" class="node"><title>Node1</title>
<polygon fill="#bfbfbf" stroke="black" points="181,-1 181,-129 299,-129 299,-1 181,-1"/>
<text text-anchor="middle" x="240" y="-116" font-family="Helvetica,sans-Serif" font-size="10.00">blond::LHCNoiseFB</text>
<polyline fill="none" stroke="black" points="181,-108 299,-108 "/>
<text text-anchor="middle" x="240" y="-95" font-family="Helvetica,sans-Serif" font-size="10.00"> </text>
<polyline fill="none" stroke="black" points="181,-87 299,-87 "/>
<text text-anchor="start" x="189" y="-74" font-family="Helvetica,sans-Serif" font-size="10.00">+ LHCNoiseFB()</text>
<text text-anchor="start" x="189" y="-61" font-family="Helvetica,sans-Serif" font-size="10.00">+ ~LHCNoiseFB()</text>
<text text-anchor="start" x="189" y="-48" font-family="Helvetica,sans-Serif" font-size="10.00">+ fwhm_interpolation()</text>
<text text-anchor="start" x="189" y="-35" font-family="Helvetica,sans-Serif" font-size="10.00">+ fwhm_multi_bunch()</text>
<text text-anchor="start" x="189" y="-22" font-family="Helvetica,sans-Serif" font-size="10.00">+ fwhm_single_bunch()</text>
<text text-anchor="start" x="189" y="-9" font-family="Helvetica,sans-Serif" font-size="10.00">+ track()</text>
</g>
<!-- Node2 -->
<g id="node2" class="node"><title>Node2</title>
<polygon fill="white" stroke="#bfbfbf" points="0,-207.5 0,-270.5 90,-270.5 90,-207.5 0,-207.5"/>
<text text-anchor="middle" x="45" y="-257.5" font-family="Helvetica,sans-Serif" font-size="10.00">function&lt; void()&gt;</text>
<polyline fill="none" stroke="#bfbfbf" points="0,-249.5 90,-249.5 "/>
<text text-anchor="middle" x="45" y="-236.5" font-family="Helvetica,sans-Serif" font-size="10.00"> </text>
<polyline fill="none" stroke="#bfbfbf" points="0,-228.5 90,-228.5 "/>
<text text-anchor="middle" x="45" y="-215.5" font-family="Helvetica,sans-Serif" font-size="10.00"> </text>
</g>
<!-- Node2&#45;&gt;Node1 -->
<g id="edge2" class="edge"><title>Node2&#45;&gt;Node1</title>
<path fill="none" stroke="#404040" d="M48.0018,-207.341C51.2431,-188.309 57.9836,-164.635 72,-148 97.0329,-118.29 135.269,-98.2376 168.943,-85.297"/>
<polygon fill="none" stroke="#404040" points="169.367,-85.1416 173.624,-79.3212 180.634,-81.0122 176.377,-86.8326 169.367,-85.1416"/>
<text text-anchor="middle" x="92" y="-165.5" font-family="Helvetica,sans-Serif" font-size="10.00"> +fFwhm</text>
</g>
<!-- Node3 -->
<g id="node4" class="node"><title>Node3</title>
<polygon fill="white" stroke="#bfbfbf" points="121.5,-322.5 121.5,-385.5 166.5,-385.5 166.5,-322.5 121.5,-322.5"/>
<text text-anchor="middle" x="144" y="-372.5" font-family="Helvetica,sans-Serif" font-size="10.00">double</text>
<polyline fill="none" stroke="#bfbfbf" points="121.5,-364.5 166.5,-364.5 "/>
<text text-anchor="middle" x="144" y="-351.5" font-family="Helvetica,sans-Serif" font-size="10.00"> </text>
<polyline fill="none" stroke="#bfbfbf" points="121.5,-343.5 166.5,-343.5 "/>
<text text-anchor="middle" x="144" y="-330.5" font-family="Helvetica,sans-Serif" font-size="10.00"> </text>
</g>
<!-- Node3&#45;&gt;Node1 -->
<g id="edge4" class="edge"><title>Node3&#45;&gt;Node1</title>
<path fill="none" stroke="#404040" d="M135.363,-322.221C128.591,-291.635 122.245,-244.485 135,-206 143.248,-181.115 157.782,-157.055 173.455,-136.068"/>
<polygon fill="none" stroke="#404040" points="173.634,-135.837 174.135,-128.643 180.967,-126.338 180.467,-133.531 173.634,-135.837"/>
<text text-anchor="middle" x="158" y="-262.5" font-family="Helvetica,sans-Serif" font-size="10.00"> +fBlMeas</text>
<text text-anchor="middle" x="158" y="-249.5" font-family="Helvetica,sans-Serif" font-size="10.00">+fBlTarg</text>
<text text-anchor="middle" x="158" y="-236.5" font-family="Helvetica,sans-Serif" font-size="10.00">+fA</text>
<text text-anchor="middle" x="158" y="-223.5" font-family="Helvetica,sans-Serif" font-size="10.00">&#45;cfwhm</text>
<text text-anchor="middle" x="158" y="-210.5" font-family="Helvetica,sans-Serif" font-size="10.00">+fX</text>
</g>
<!-- Node6 -->
<g id="node10" class="node"><title>Node6</title>
<polygon fill="white" stroke="#bfbfbf" points="190,-207.5 190,-270.5 300,-270.5 300,-207.5 190,-207.5"/>
<text text-anchor="middle" x="245" y="-257.5" font-family="Helvetica,sans-Serif" font-size="10.00">std::vector&lt; double &gt;</text>
<polyline fill="none" stroke="#bfbfbf" points="190,-249.5 300,-249.5 "/>
<text text-anchor="middle" x="245" y="-236.5" font-family="Helvetica,sans-Serif" font-size="10.00"> </text>
<polyline fill="none" stroke="#bfbfbf" points="190,-228.5 300,-228.5 "/>
<text text-anchor="middle" x="245" y="-215.5" font-family="Helvetica,sans-Serif" font-size="10.00"> </text>
</g>
<!-- Node3&#45;&gt;Node6 -->
<g id="edge12" class="edge"><title>Node3&#45;&gt;Node6</title>
<path fill="none" stroke="#404040" d="M166.22,-322.282C174.023,-311.725 183.076,-300.092 192,-290 195.146,-286.443 198.496,-282.843 201.925,-279.287"/>
<polygon fill="none" stroke="#404040" points="202.093,-279.117 203.474,-272.04 210.538,-270.592 209.157,-277.67 202.093,-279.117"/>
<text text-anchor="middle" x="216.5" y="-294.5" font-family="Helvetica,sans-Serif" font-size="10.00"> +elements</text>
</g>
<!-- Node4 -->
<g id="node6" class="node"><title>Node4</title>
<polygon fill="white" stroke="#bfbfbf" points="317.5,-207.5 317.5,-270.5 346.5,-270.5 346.5,-207.5 317.5,-207.5"/>
<text text-anchor="middle" x="332" y="-257.5" font-family="Helvetica,sans-Serif" font-size="10.00">int</text>
<polyline fill="none" stroke="#bfbfbf" points="317.5,-249.5 346.5,-249.5 "/>
<text text-anchor="middle" x="332" y="-236.5" font-family="Helvetica,sans-Serif" font-size="10.00"> </text>
<polyline fill="none" stroke="#bfbfbf" points="317.5,-228.5 346.5,-228.5 "/>
<text text-anchor="middle" x="332" y="-215.5" font-family="Helvetica,sans-Serif" font-size="10.00"> </text>
</g>
<!-- Node4&#45;&gt;Node1 -->
<g id="edge6" class="edge"><title>Node4&#45;&gt;Node1</title>
<path fill="none" stroke="#404040" d="M328.052,-207.419C324.902,-189.309 319.402,-166.559 310,-148 308.533,-145.105 306.947,-142.223 305.264,-139.367"/>
<polygon fill="none" stroke="#404040" points="305.215,-139.29 298.624,-136.365 298.788,-129.156 305.38,-132.08 305.215,-139.29"/>
<text text-anchor="middle" x="349" y="-165.5" font-family="Helvetica,sans-Serif" font-size="10.00"> +fNUpdate</text>
</g>
<!-- Node5 -->
<g id="node8" class="node"><title>Node5</title>
<polygon fill="white" stroke="#bfbfbf" points="389.5,-207.5 389.5,-270.5 424.5,-270.5 424.5,-207.5 389.5,-207.5"/>
<text text-anchor="middle" x="407" y="-257.5" font-family="Helvetica,sans-Serif" font-size="10.00">bool</text>
<polyline fill="none" stroke="#bfbfbf" points="389.5,-249.5 424.5,-249.5 "/>
<text text-anchor="middle" x="407" y="-236.5" font-family="Helvetica,sans-Serif" font-size="10.00"> </text>
<polyline fill="none" stroke="#bfbfbf" points="389.5,-228.5 424.5,-228.5 "/>
<text text-anchor="middle" x="407" y="-215.5" font-family="Helvetica,sans-Serif" font-size="10.00"> </text>
</g>
<!-- Node5&#45;&gt;Node1 -->
<g id="edge8" class="edge"><title>Node5&#45;&gt;Node1</title>
<path fill="none" stroke="#404040" d="M403.055,-207.282C399.389,-188.463 392.37,-165.033 379,-148 361.01,-125.082 334.799,-107.115 309.973,-93.8472"/>
<polygon fill="none" stroke="#404040" points="309.755,-93.7354 302.591,-94.5604 299.074,-88.265 306.238,-87.44 309.755,-93.7354"/>
<text text-anchor="middle" x="432" y="-165.5" font-family="Helvetica,sans-Serif" font-size="10.00"> +fVariableGain</text>
</g>
<!-- Node6&#45;&gt;Node1 -->
<g id="edge10" class="edge"><title>Node6&#45;&gt;Node1</title>
<path fill="none" stroke="#404040" d="M242.179,-207.463C241.701,-201.028 241.272,-194.3 241,-188 240.349,-172.933 239.981,-156.819 239.789,-141.381"/>
<polygon fill="none" stroke="#404040" points="239.787,-141.178 235.729,-135.217 239.671,-129.179 243.729,-135.14 239.787,-141.178"/>
<text text-anchor="middle" x="275.5" y="-178.5" font-family="Helvetica,sans-Serif" font-size="10.00"> +fBlMeasBBB</text>
<text text-anchor="middle" x="275.5" y="-165.5" font-family="Helvetica,sans-Serif" font-size="10.00">+fBunchPattern</text>
<text text-anchor="middle" x="275.5" y="-152.5" font-family="Helvetica,sans-Serif" font-size="10.00">+fG</text>
</g>
<!-- Node7 -->
<g id="node13" class="node"><title>Node7</title>
<a xlink:title="STL class.">
<polygon fill="white" stroke="#bfbfbf" points="201.5,-322.5 201.5,-385.5 288.5,-385.5 288.5,-322.5 201.5,-322.5"/>
<text text-anchor="middle" x="245" y="-372.5" font-family="Helvetica,sans-Serif" font-size="10.00">std::vector&lt; T &gt;</text>
<polyline fill="none" stroke="#bfbfbf" points="201.5,-364.5 288.5,-364.5 "/>
<text text-anchor="middle" x="245" y="-351.5" font-family="Helvetica,sans-Serif" font-size="10.00"> </text>
<polyline fill="none" stroke="#bfbfbf" points="201.5,-343.5 288.5,-343.5 "/>
<text text-anchor="middle" x="245" y="-330.5" font-family="Helvetica,sans-Serif" font-size="10.00"> </text>
</a>
</g>
<!-- Node7&#45;&gt;Node6 -->
<g id="edge14" class="edge"><title>Node7&#45;&gt;Node6</title>
<path fill="none" stroke="orange" d="M245,-312.104C245,-298.408 245,-283.434 245,-270.625"/>
<polygon fill="orange" stroke="orange" points="241.5,-312.271 245,-322.271 248.5,-312.271 241.5,-312.271"/>
<text text-anchor="middle" x="270" y="-294.5" font-family="Helvetica,sans-Serif" font-size="10.00"> &lt; double &gt;</text>
</g>
<!-- Node8 -->
<g id="node15" class="node"><title>Node8</title>
<polygon fill="white" stroke="#bfbfbf" points="230.5,-436.5 230.5,-499.5 259.5,-499.5 259.5,-436.5 230.5,-436.5"/>
<text text-anchor="middle" x="245" y="-486.5" font-family="Helvetica,sans-Serif" font-size="10.00">T</text>
<polyline fill="none" stroke="#bfbfbf" points="230.5,-478.5 259.5,-478.5 "/>
<text text-anchor="middle" x="245" y="-465.5" font-family="Helvetica,sans-Serif" font-size="10.00"> </text>
<polyline fill="none" stroke="#bfbfbf" points="230.5,-457.5 259.5,-457.5 "/>
<text text-anchor="middle" x="245" y="-444.5" font-family="Helvetica,sans-Serif" font-size="10.00"> </text>
</g>
<!-- Node8&#45;&gt;Node7 -->
<g id="edge16" class="edge"><title>Node8&#45;&gt;Node7</title>
<path fill="none" stroke="#404040" d="M245,-436.245C245,-424.386 245,-410.7 245,-397.938"/>
<polygon fill="none" stroke="#404040" points="245,-397.585 241,-391.585 245,-385.585 249,-391.585 245,-397.585"/>
<text text-anchor="middle" x="269.5" y="-408.5" font-family="Helvetica,sans-Serif" font-size="10.00"> +elements</text>
</g>
</g>
</svg>
        <g id="navigator" transform="translate(0 0)" fill="#404254">
                <rect fill="#f2f5e9" fill-opacity="0.5" stroke="#606060" stroke-width=".5" x="0" y="0" width="60" height="60"/>
                <use id="zoomplus" xlink:href="#zoomPlus" x="17" y="9" onmousedown="handleZoom(evt,'in')"/>
                <use id="zoomminus" xlink:href="#zoomMin" x="42" y="9" onmousedown="handleZoom(evt,'out')"/>
                <use id="reset" xlink:href="#resetDef" x="30" y="36" onmousedown="handleReset()"/>
                <g id="arrowUp" xlink:href="#dirArrow" transform="translate(30 24)" onmousedown="handlePan(0,-1)">
                  <use xlink:href="#rim" fill="#404040">
                        <set attributeName="fill" to="#808080" begin="arrowUp.mouseover" end="arrowUp.mouseout"/>
                  </use>
                  <path fill="none" stroke="white" stroke-width="1.5" d="M0,-3.0v7 M-2.5,-0.5L0,-3.0L2.5,-0.5"/>
                </g>
                <g id="arrowRight" xlink:href="#dirArrow" transform="rotate(90) translate(36 -43)" onmousedown="handlePan(1,0)">
                  <use xlink:href="#rim" fill="#404040">
                        <set attributeName="fill" to="#808080" begin="arrowRight.mouseover" end="arrowRight.mouseout"/>
                  </use>
                  <path fill="none" stroke="white" stroke-width="1.5" d="M0,-3.0v7 M-2.5,-0.5L0,-3.0L2.5,-0.5"/>
                </g>
                <g id="arrowDown" xlink:href="#dirArrow" transform="rotate(180) translate(-30 -48)" onmousedown="handlePan(0,1)">
                  <use xlink:href="#rim" fill="#404040">
                        <set attributeName="fill" to="#808080" begin="arrowDown.mouseover" end="arrowDown.mouseout"/>
                  </use>
                  <path fill="none" stroke="white" stroke-width="1.5" d="M0,-3.0v7 M-2.5,-0.5L0,-3.0L2.5,-0.5"/>
                </g>
                <g id="arrowLeft" xlink:href="#dirArrow" transform="rotate(270) translate(-36 17)" onmousedown="handlePan(-1,0)">
                  <use xlink:href="#rim" fill="#404040">
                        <set attributeName="fill" to="#808080" begin="arrowLeft.mouseover" end="arrowLeft.mouseout"/>
                  </use>
                  <path fill="none" stroke="white" stroke-width="1.5" d="M0,-3.0v7 M-2.5,-0.5L0,-3.0L2.5,-0.5"/>
                </g>
        </g>
        <svg viewBox="0 0 15 15" width="100%" height="30px" preserveAspectRatio="xMaxYMin meet">
         <g id="arrow_out" transform="scale(0.3 0.3)">
          <a xlink:href="classblond_1_1LHCNoiseFB__coll__graph_org.svg" target="_base">
           <rect id="button" ry="5" rx="5" y="6" x="6" height="38" width="38"
                fill="#f2f5e9" fill-opacity="0.5" stroke="#606060" stroke-width="1.0"/>
           <path id="arrow"
             d="M 11.500037,31.436501 C 11.940474,20.09759 22.043105,11.32322 32.158766,21.979434 L 37.068811,17.246167 C 37.068811,17.246167 37.088388,32 37.088388,32 L 22.160133,31.978069 C 22.160133,31.978069 26.997745,27.140456 26.997745,27.140456 C 18.528582,18.264221 13.291696,25.230495 11.500037,31.436501 z"
             style="fill:#404040;"/>
          </a>
         </g>
        </svg>
</svg>
