<?xml version="1.0" encoding="UTF-8" standalone="no"?>
<!DOCTYPE svg PUBLIC "-//W3C//DTD SVG 1.1//EN"
 "http://www.w3.org/Graphics/SVG/1.1/DTD/svg11.dtd">
<!-- Generated by graphviz version 2.26.3 (20100126.1600)
 -->
<!-- Title: PhaseNoise::spectrum_to_phase_noise Pages: 1 -->
<svg width="610pt" height="230pt"
 viewBox="0.00 0.00 610.00 230.00" xmlns="http://www.w3.org/2000/svg" xmlns:xlink="http://www.w3.org/1999/xlink">
<g id="graph1" class="graph" transform="scale(1 1) rotate(0) translate(4 226)">
<title>PhaseNoise::spectrum_to_phase_noise</title>
<polygon fill="white" stroke="white" points="-4,5 -4,-226 607,-226 607,5 -4,5"/>
<!-- Node1 -->
<g id="node1" class="node"><title>Node1</title>
<polygon fill="#bfbfbf" stroke="black" points="0,-94 0,-128 116,-128 116,-94 0,-94"/>
<text text-anchor="start" x="8" y="-115" font-family="Helvetica,sans-Serif" font-size="10.00">PhaseNoise::spectrum</text>
<text text-anchor="middle" x="58" y="-102" font-family="Helvetica,sans-Serif" font-size="10.00">_to_phase_noise</text>
</g>
<!-- Node2 -->
<g id="node3" class="node"><title>Node2</title>
<a xlink:href="../../d8/de0/namespacefft.html#ace866b5e38da8e32910f39bc63eb91e9" target="_top" xlink:title="fft::fft">
<polygon fill="white" stroke="black" points="196.5,-200.5 196.5,-221.5 237.5,-221.5 237.5,-200.5 196.5,-200.5"/>
<text text-anchor="middle" x="217" y="-208.5" font-family="Helvetica,sans-Serif" font-size="10.00">fft::fft</text>
</a>
</g>
<!-- Node1&#45;&gt;Node2 -->
<g id="edge2" class="edge"><title>Node1&#45;&gt;Node2</title>
<path fill="none" stroke="midnightblue" d="M73.7567,-128.02C91.2765,-146.018 121.188,-174.095 152,-191 162.62,-196.826 175.167,-201.195 186.391,-204.339"/>
<polygon fill="midnightblue" stroke="midnightblue" points="185.676,-207.769 196.234,-206.888 187.431,-200.992 185.676,-207.769"/>
</g>
<!-- Node9 -->
<g id="node17" class="node"><title>Node9</title>
<a xlink:href="../../d8/de0/namespacefft.html#abf17de86632e9d1624635de461dbcd4f" target="_top" xlink:title="fft::ifft">
<polygon fill="white" stroke="black" points="195.5,-160.5 195.5,-181.5 238.5,-181.5 238.5,-160.5 195.5,-160.5"/>
<text text-anchor="middle" x="217" y="-168.5" font-family="Helvetica,sans-Serif" font-size="10.00">fft::ifft</text>
</a>
</g>
<!-- Node1&#45;&gt;Node9 -->
<g id="edge16" class="edge"><title>Node1&#45;&gt;Node9</title>
<path fill="none" stroke="midnightblue" d="M95.6038,-128.059C112.656,-135.52 133.177,-144.12 152,-151 162.841,-154.962 174.88,-158.815 185.623,-162.064"/>
<polygon fill="midnightblue" stroke="midnightblue" points="184.86,-165.488 195.443,-164.978 186.852,-158.777 184.86,-165.488"/>
</g>
<!-- Node10 -->
<g id="node21" class="node"><title>Node10</title>
<a xlink:href="../../d8/de0/namespacefft.html#a7870786fb204fa75feedfb6eeadbd788" target="_top" xlink:title="fft::irfft">
<polygon fill="white" stroke="black" points="194,-120.5 194,-141.5 240,-141.5 240,-120.5 194,-120.5"/>
<text text-anchor="middle" x="217" y="-128.5" font-family="Helvetica,sans-Serif" font-size="10.00">fft::irfft</text>
</a>
</g>
<!-- Node1&#45;&gt;Node10 -->
<g id="edge22" class="edge"><title>Node1&#45;&gt;Node10</title>
<path fill="none" stroke="midnightblue" d="M116.303,-118.334C139.142,-121.207 164.498,-124.396 184.053,-126.856"/>
<polygon fill="midnightblue" stroke="midnightblue" points="183.628,-130.33 193.986,-128.105 184.501,-123.384 183.628,-130.33"/>
</g>
<!-- Node11 -->
<g id="node25" class="node"><title>Node11</title>
<a xlink:href="../../df/d6d/namespacemymath.html#ae6f0d1529ee101163ab6f5a40dd268f4" target="_top" xlink:title="mymath::linspace">
<polygon fill="white" stroke="black" points="170,-40.5 170,-61.5 264,-61.5 264,-40.5 170,-40.5"/>
<text text-anchor="middle" x="217" y="-48.5" font-family="Helvetica,sans-Serif" font-size="10.00">mymath::linspace</text>
</a>
</g>
<!-- Node1&#45;&gt;Node11 -->
<g id="edge28" class="edge"><title>Node1&#45;&gt;Node11</title>
<path fill="none" stroke="midnightblue" d="M95.6038,-93.9405C112.656,-86.4796 133.177,-77.8798 152,-71 157.967,-68.8189 164.298,-66.6711 170.576,-64.6389"/>
<polygon fill="midnightblue" stroke="midnightblue" points="171.858,-67.9044 180.337,-61.5524 169.747,-61.2301 171.858,-67.9044"/>
</g>
<!-- Node12 -->
<g id="node27" class="node"><title>Node12</title>
<a xlink:href="../../d6/d72/namespaceutil.html#a490b3dd52b27f7d7de8cf81a753b97fa" target="_top" xlink:title="util::read_vector_from_file">
<polygon fill="white" stroke="black" points="152.5,-0.5 152.5,-21.5 281.5,-21.5 281.5,-0.5 152.5,-0.5"/>
<text text-anchor="middle" x="217" y="-8.5" font-family="Helvetica,sans-Serif" font-size="10.00">util::read_vector_from_file</text>
</a>
</g>
<!-- Node1&#45;&gt;Node12 -->
<g id="edge30" class="edge"><title>Node1&#45;&gt;Node12</title>
<path fill="none" stroke="midnightblue" d="M73.7567,-93.9798C91.2765,-75.9824 121.188,-47.9048 152,-31 155.95,-28.833 160.166,-26.8677 164.482,-25.0921"/>
<polygon fill="midnightblue" stroke="midnightblue" points="165.896,-28.2997 174.023,-21.5033 163.431,-21.7478 165.896,-28.2997"/>
</g>
<!-- Node13 -->
<g id="node29" class="node"><title>Node13</title>
<a xlink:href="../../d8/de0/namespacefft.html#a789573d204d06c288f6b74c45cd92137" target="_top" xlink:title="fft::rfft">
<polygon fill="white" stroke="black" points="195,-80.5 195,-101.5 239,-101.5 239,-80.5 195,-80.5"/>
<text text-anchor="middle" x="217" y="-88.5" font-family="Helvetica,sans-Serif" font-size="10.00">fft::rfft</text>
</a>
</g>
<!-- Node1&#45;&gt;Node13 -->
<g id="edge32" class="edge"><title>Node1&#45;&gt;Node13</title>
<path fill="none" stroke="midnightblue" d="M116.303,-103.666C139.442,-100.756 165.166,-97.52 184.822,-95.0475"/>
<polygon fill="midnightblue" stroke="midnightblue" points="185.297,-98.5155 194.782,-93.7947 184.423,-91.5702 185.297,-98.5155"/>
</g>
<!-- Node3 -->
<g id="node5" class="node"><title>Node3</title>
<a xlink:href="../../d8/de0/namespacefft.html#af7197252dd2a265bd53282a343582d02" target="_top" xlink:title="fft::find_plan">
<polygon fill="white" stroke="black" points="318.5,-160.5 318.5,-181.5 389.5,-181.5 389.5,-160.5 318.5,-160.5"/>
<text text-anchor="middle" x="354" y="-168.5" font-family="Helvetica,sans-Serif" font-size="10.00">fft::find_plan</text>
</a>
</g>
<!-- Node2&#45;&gt;Node3 -->
<g id="edge4" class="edge"><title>Node2&#45;&gt;Node3</title>
<path fill="none" stroke="midnightblue" d="M237.51,-205.012C256.274,-199.533 284.691,-191.236 308.761,-184.209"/>
<polygon fill="midnightblue" stroke="midnightblue" points="309.807,-187.549 318.425,-181.387 307.845,-180.83 309.807,-187.549"/>
</g>
<!-- Node8 -->
<g id="node15" class="node"><title>Node8</title>
<a xlink:href="../../d8/de0/namespacefft.html#a032995ee545c6cd17120d4478fcb25b5" target="_top" xlink:title="fft::run_fft">
<polygon fill="white" stroke="black" points="324.5,-120.5 324.5,-141.5 383.5,-141.5 383.5,-120.5 324.5,-120.5"/>
<text text-anchor="middle" x="354" y="-128.5" font-family="Helvetica,sans-Serif" font-size="10.00">fft::run_fft</text>
</a>
</g>
<!-- Node2&#45;&gt;Node8 -->
<g id="edge14" class="edge"><title>Node2&#45;&gt;Node8</title>
<path fill="none" stroke="midnightblue" d="M237.536,-207.632C250.967,-204.746 268.466,-199.641 282,-191 302.159,-178.129 299.291,-165.9 318,-151 319.772,-149.589 321.657,-148.22 323.6,-146.906"/>
<polygon fill="midnightblue" stroke="midnightblue" points="325.648,-149.755 332.317,-141.522 321.969,-143.799 325.648,-149.755"/>
</g>
<!-- Node4 -->
<g id="node7" class="node"><title>Node4</title>
<a xlink:href="../../d8/de0/namespacefft.html#abb6f84e834ac2b3b2b1da535a152bcbb" target="_top" xlink:title="fft::init_fft">
<polygon fill="white" stroke="black" points="428.5,-200.5 428.5,-221.5 487.5,-221.5 487.5,-200.5 428.5,-200.5"/>
<text text-anchor="middle" x="458" y="-208.5" font-family="Helvetica,sans-Serif" font-size="10.00">fft::init_fft</text>
</a>
</g>
<!-- Node3&#45;&gt;Node4 -->
<g id="edge6" class="edge"><title>Node3&#45;&gt;Node4</title>
<path fill="none" stroke="midnightblue" d="M381.325,-181.51C393.41,-186.158 407.81,-191.696 420.851,-196.712"/>
<polygon fill="midnightblue" stroke="midnightblue" points="419.907,-200.099 430.497,-200.422 422.42,-193.565 419.907,-200.099"/>
</g>
<!-- Node6 -->
<g id="node11" class="node"><title>Node6</title>
<a xlink:href="../../d8/de0/namespacefft.html#af7856d4e781deb223b6ff7cde32ac5fa" target="_top" xlink:title="fft::init_rfft">
<polygon fill="white" stroke="black" points="427,-160.5 427,-181.5 489,-181.5 489,-160.5 427,-160.5"/>
<text text-anchor="middle" x="458" y="-168.5" font-family="Helvetica,sans-Serif" font-size="10.00">fft::init_rfft</text>
</a>
</g>
<!-- Node3&#45;&gt;Node6 -->
<g id="edge10" class="edge"><title>Node3&#45;&gt;Node6</title>
<path fill="none" stroke="midnightblue" d="M389.5,-171C398.213,-171 407.615,-171 416.579,-171"/>
<polygon fill="midnightblue" stroke="midnightblue" points="416.833,-174.5 426.833,-171 416.833,-167.5 416.833,-174.5"/>
</g>
<!-- Node7 -->
<g id="node13" class="node"><title>Node7</title>
<a xlink:href="../../d8/de0/namespacefft.html#ab6d7e93ba5e86251017f8f72a84ab3b0" target="_top" xlink:title="fft::init_irfft">
<polygon fill="white" stroke="black" points="426,-120.5 426,-141.5 490,-141.5 490,-120.5 426,-120.5"/>
<text text-anchor="middle" x="458" y="-128.5" font-family="Helvetica,sans-Serif" font-size="10.00">fft::init_irfft</text>
</a>
</g>
<!-- Node3&#45;&gt;Node7 -->
<g id="edge12" class="edge"><title>Node3&#45;&gt;Node7</title>
<path fill="none" stroke="midnightblue" d="M381.325,-160.49C393.41,-155.842 407.81,-150.304 420.851,-145.288"/>
<polygon fill="midnightblue" stroke="midnightblue" points="422.42,-148.435 430.497,-141.578 419.907,-141.901 422.42,-148.435"/>
</g>
<!-- Node5 -->
<g id="node9" class="node"><title>Node5</title>
<a xlink:href="../../df/d6d/namespacemymath.html#a31743e3fc7ec3ccb0df630d0cad57959" target="_top" xlink:title="mymath::sign">
<polygon fill="white" stroke="black" points="526,-200.5 526,-221.5 602,-221.5 602,-200.5 526,-200.5"/>
<text text-anchor="middle" x="564" y="-208.5" font-family="Helvetica,sans-Serif" font-size="10.00">mymath::sign</text>
</a>
</g>
<!-- Node4&#45;&gt;Node5 -->
<g id="edge8" class="edge"><title>Node4&#45;&gt;Node5</title>
<path fill="none" stroke="midnightblue" d="M487.527,-211C496.254,-211 506.046,-211 515.634,-211"/>
<polygon fill="midnightblue" stroke="midnightblue" points="515.898,-214.5 525.898,-211 515.898,-207.5 515.898,-214.5"/>
</g>
<!-- Node9&#45;&gt;Node3 -->
<g id="edge18" class="edge"><title>Node9&#45;&gt;Node3</title>
<path fill="none" stroke="midnightblue" d="M238.708,-171C257.308,-171 284.724,-171 308.156,-171"/>
<polygon fill="midnightblue" stroke="midnightblue" points="308.254,-174.5 318.254,-171 308.254,-167.5 308.254,-174.5"/>
</g>
<!-- Node9&#45;&gt;Node8 -->
<g id="edge20" class="edge"><title>Node9&#45;&gt;Node8</title>
<path fill="none" stroke="midnightblue" d="M238.708,-164.662C259.066,-158.718 289.987,-149.69 314.683,-142.479"/>
<polygon fill="midnightblue" stroke="midnightblue" points="315.874,-145.778 324.492,-139.615 313.912,-139.058 315.874,-145.778"/>
</g>
<!-- Node10&#45;&gt;Node3 -->
<g id="edge24" class="edge"><title>Node10&#45;&gt;Node3</title>
<path fill="none" stroke="midnightblue" d="M240.24,-137.785C258.86,-143.222 285.556,-151.016 308.408,-157.689"/>
<polygon fill="midnightblue" stroke="midnightblue" points="307.682,-161.123 318.262,-160.566 309.644,-154.403 307.682,-161.123"/>
</g>
<!-- Node10&#45;&gt;Node8 -->
<g id="edge26" class="edge"><title>Node10&#45;&gt;Node8</title>
<path fill="none" stroke="midnightblue" d="M240.24,-131C260.456,-131 290.192,-131 314.192,-131"/>
<polygon fill="midnightblue" stroke="midnightblue" points="314.421,-134.5 324.421,-131 314.421,-127.5 314.421,-134.5"/>
</g>
<!-- Node13&#45;&gt;Node3 -->
<g id="edge34" class="edge"><title>Node13&#45;&gt;Node3</title>
<path fill="none" stroke="midnightblue" d="M239.033,-94.695C252.249,-97.6344 268.964,-102.676 282,-111 302.159,-123.871 299.291,-136.1 318,-151 319.772,-152.411 321.657,-153.78 323.6,-155.094"/>
<polygon fill="midnightblue" stroke="midnightblue" points="321.969,-158.201 332.317,-160.478 325.648,-152.245 321.969,-158.201"/>
</g>
<!-- Node13&#45;&gt;Node8 -->
<g id="edge36" class="edge"><title>Node13&#45;&gt;Node8</title>
<path fill="none" stroke="midnightblue" d="M239.011,-97.4267C259.354,-103.366 290.053,-112.329 314.616,-119.501"/>
<polygon fill="midnightblue" stroke="midnightblue" points="313.796,-122.908 324.376,-122.351 315.758,-116.188 313.796,-122.908"/>
</g>
</g>
</svg>
