<?xml version="1.0" encoding="UTF-8" standalone="no"?>
<!DOCTYPE svg PUBLIC "-//W3C//DTD SVG 1.1//EN"
 "http://www.w3.org/Graphics/SVG/1.1/DTD/svg11.dtd">
<!-- Generated by graphviz version 2.26.3 (20100126.1600)
 -->
<!-- Title: option::PrintUsageImplementation::LinePartIterator::next Pages: 1 -->
<svg width="504pt" height="42pt"
 viewBox="0.00 0.00 504.00 42.00" xmlns="http://www.w3.org/2000/svg" xmlns:xlink="http://www.w3.org/1999/xlink">
<g id="graph1" class="graph" transform="scale(1 1) rotate(0) translate(4 38)">
<title>option::PrintUsageImplementation::LinePartIterator::next</title>
<polygon fill="white" stroke="white" points="-4,5 -4,-38 501,-38 501,5 -4,5"/>
<!-- Node1 -->
<g id="node1" class="node"><title>Node1</title>
<polygon fill="#bfbfbf" stroke="black" points="0,-0 0,-34 164,-34 164,-0 0,-0"/>
<text text-anchor="start" x="8" y="-21" font-family="Helvetica,sans-Serif" font-size="10.00">option::PrintUsageImplementation</text>
<text text-anchor="middle" x="82" y="-8" font-family="Helvetica,sans-Serif" font-size="10.00">::LinePartIterator::next</text>
</g>
<!-- Node2 -->
<g id="node3" class="node"><title>Node2</title>
<a xlink:href="../../da/dfb/structoption_1_1PrintUsageImplementation.html#ab38c4198c5cccea2ccd992c8e014df70" target="_top" xlink:title="option::PrintUsageImplementation\l::printUsage">
<polygon fill="white" stroke="black" points="200,-0 200,-34 364,-34 364,-0 200,-0"/>
<text text-anchor="start" x="208" y="-21" font-family="Helvetica,sans-Serif" font-size="10.00">option::PrintUsageImplementation</text>
<text text-anchor="middle" x="282" y="-8" font-family="Helvetica,sans-Serif" font-size="10.00">::printUsage</text>
</a>
</g>
<!-- Node1&#45;&gt;Node2 -->
<g id="edge2" class="edge"><title>Node1&#45;&gt;Node2</title>
<path fill="none" stroke="midnightblue" d="M174.466,-17C182.914,-17 191.434,-17 199.783,-17"/>
<polygon fill="midnightblue" stroke="midnightblue" points="174.213,-13.5001 164.213,-17 174.213,-20.5001 174.213,-13.5001"/>
</g>
<!-- Node3 -->
<g id="node5" class="node"><title>Node3</title>
<a xlink:href="../../df/de0/namespaceoption.html#afc8bb7e040a98a0b33ff1ce9da1be0d1" target="_top" xlink:title="Outputs a nicely formatted usage string with support for multi&#45;column formatting and line&#45;wrapping...">
<polygon fill="white" stroke="black" points="400,-6.5 400,-27.5 496,-27.5 496,-6.5 400,-6.5"/>
<text text-anchor="middle" x="448" y="-14.5" font-family="Helvetica,sans-Serif" font-size="10.00">option::printUsage</text>
</a>
</g>
<!-- Node2&#45;&gt;Node3 -->
<g id="edge4" class="edge"><title>Node2&#45;&gt;Node3</title>
<path fill="none" stroke="midnightblue" d="M374.063,-17C382.918,-17 391.634,-17 399.801,-17"/>
<polygon fill="midnightblue" stroke="midnightblue" points="374.027,-13.5001 364.027,-17 374.027,-20.5001 374.027,-13.5001"/>
</g>
</g>
</svg>
