<?xml version="1.0" encoding="UTF-8" standalone="no"?>
<!DOCTYPE svg PUBLIC "-//W3C//DTD SVG 1.1//EN"
 "http://www.w3.org/Graphics/SVG/1.1/DTD/svg11.dtd">
<!-- Generated by graphviz version 2.26.3 (20100126.1600)
 -->
<!-- Title: blond::optionparser::Parser::Action::perform Pages: 1 -->
<!--zoomable 198 -->
<svg id="main" version="1.1" xmlns="http://www.w3.org/2000/svg" xmlns:xlink="http://www.w3.org/1999/xlink" xml:space="preserve" onload="init(evt)">
        <defs>
                <circle id="rim" cx="0" cy="0" r="7"/>
                <circle id="rim2" cx="0" cy="0" r="3.5"/>
                <g id="zoomPlus">
                        <use xlink:href="#rim" fill="#404040">
                                <set attributeName="fill" to="#808080" begin="zoomplus.mouseover" end="zoomplus.mouseout"/>
                        </use>
                        <path d="M-4,0h8M0,-4v8" fill="none" stroke="white" stroke-width="1.5" pointer-events="none"/>
                </g>
                <g id="zoomMin">
                        <use xlink:href="#rim" fill="#404040">
                                <set attributeName="fill" to="#808080" begin="zoomminus.mouseover" end="zoomminus.mouseout"/>
                        </use>
                        <path d="M-4,0h8" fill="none" stroke="white" stroke-width="1.5" pointer-events="none"/>
                </g>
                <g id="dirArrow">
                        <path fill="none" stroke="white" stroke-width="1.5" d="M0,-3.0v7 M-2.5,-0.5L0,-3.0L2.5,-0.5"/>
                </g>
               <g id="resetDef">
                       <use xlink:href="#rim2" fill="#404040">
                               <set attributeName="fill" to="#808080" begin="reset.mouseover" end="reset.mouseout"/>
                       </use>
               </g>
        </defs>

<script type="text/javascript">
var viewWidth = 542;
var viewHeight = 198;
var sectionId = 'dynsection-3';
</script>
<script xlink:href="../../svgpan.js"/>
<svg id="graph" class="graph">
<g id="viewport">
<title>blond::optionparser::Parser::Action::perform</title>
<polygon fill="white" stroke="white" points="-4,5 -4,-194 539,-194 539,5 -4,5"/>
<!-- Node1 -->
<g id="node1" class="node"><title>Node1</title>
<polygon fill="#bfbfbf" stroke="black" points="0,-78 0,-112 124,-112 124,-78 0,-78"/>
<text text-anchor="start" x="8" y="-99" font-family="Helvetica,sans-Serif" font-size="10.00">blond::optionparser</text>
<text text-anchor="middle" x="62" y="-86" font-family="Helvetica,sans-Serif" font-size="10.00">::Parser::Action::perform</text>
</g>
<!-- Node2 -->
<g id="node3" class="node"><title>Node2</title>
<a xlink:href="../../d7/d37/classblond_1_1optionparser_1_1Parser.html#a4e8dfcaec473d79adc141719b64822eb" target="_top" xlink:title="blond::optionparser\l::Parser::workhorse">
<polygon fill="white" stroke="black" points="160,-78 160,-112 262,-112 262,-78 160,-78"/>
<text text-anchor="start" x="168" y="-99" font-family="Helvetica,sans-Serif" font-size="10.00">blond::optionparser</text>
<text text-anchor="middle" x="211" y="-86" font-family="Helvetica,sans-Serif" font-size="10.00">::Parser::workhorse</text>
</a>
</g>
<!-- Node1&#45;&gt;Node2 -->
<g id="edge2" class="edge"><title>Node1&#45;&gt;Node2</title>
<path fill="none" stroke="midnightblue" d="M134.356,-95C142.939,-95 151.559,-95 159.762,-95"/>
<polygon fill="midnightblue" stroke="midnightblue" points="134.326,-91.5001 124.326,-95 134.326,-98.5001 134.326,-91.5001"/>
</g>
<!-- Node3 -->
<g id="node5" class="node"><title>Node3</title>
<a xlink:href="../../d7/db4/structblond_1_1optionparser_1_1Stats.html#a2afe2582dbd05f7c8c07802875b5bc15" target="_top" xlink:title="Updates this Stats object for the given usage and argument vector. You may pass 0 for argc and/or arg...">
<polygon fill="white" stroke="black" points="298.5,-104 298.5,-138 397.5,-138 397.5,-104 298.5,-104"/>
<text text-anchor="start" x="306.5" y="-125" font-family="Helvetica,sans-Serif" font-size="10.00">blond::optionparser</text>
<text text-anchor="middle" x="348" y="-112" font-family="Helvetica,sans-Serif" font-size="10.00">::Stats::add</text>
</a>
</g>
<!-- Node2&#45;&gt;Node3 -->
<g id="edge4" class="edge"><title>Node2&#45;&gt;Node3</title>
<path fill="none" stroke="midnightblue" d="M271.886,-106.555C280.722,-108.232 289.729,-109.941 298.31,-111.57"/>
<polygon fill="midnightblue" stroke="midnightblue" points="272.491,-103.107 262.014,-104.681 271.186,-109.985 272.491,-103.107"/>
</g>
<!-- Node6 -->
<g id="node11" class="node"><title>Node6</title>
<a xlink:href="../../d7/d37/classblond_1_1optionparser_1_1Parser.html#a57cf71d93a757d8aa8dd95e2b09497db" target="_top" xlink:title="Parses the given argument vector.">
<polygon fill="white" stroke="black" points="298.5,-52 298.5,-86 397.5,-86 397.5,-52 298.5,-52"/>
<text text-anchor="start" x="306.5" y="-73" font-family="Helvetica,sans-Serif" font-size="10.00">blond::optionparser</text>
<text text-anchor="middle" x="348" y="-60" font-family="Helvetica,sans-Serif" font-size="10.00">::Parser::parse</text>
</a>
</g>
<!-- Node2&#45;&gt;Node6 -->
<g id="edge10" class="edge"><title>Node2&#45;&gt;Node6</title>
<path fill="none" stroke="midnightblue" d="M271.886,-83.4451C280.722,-81.7681 289.729,-80.0587 298.31,-78.4303"/>
<polygon fill="midnightblue" stroke="midnightblue" points="271.186,-80.0153 262.014,-85.3186 272.491,-86.8926 271.186,-80.0153"/>
</g>
<!-- Node4 -->
<g id="node7" class="node"><title>Node4</title>
<a xlink:href="../../d7/db4/structblond_1_1optionparser_1_1Stats.html#ae04489ca60b8af44af7581761ab4104c" target="_top" xlink:title="Creates a new Stats object and immediately updates it for the given usage and argument vector...">
<polygon fill="white" stroke="black" points="434.5,-156 434.5,-190 533.5,-190 533.5,-156 434.5,-156"/>
<text text-anchor="start" x="442.5" y="-177" font-family="Helvetica,sans-Serif" font-size="10.00">blond::optionparser</text>
<text text-anchor="middle" x="484" y="-164" font-family="Helvetica,sans-Serif" font-size="10.00">::Stats::Stats</text>
</a>
</g>
<!-- Node3&#45;&gt;Node4 -->
<g id="edge6" class="edge"><title>Node3&#45;&gt;Node4</title>
<path fill="none" stroke="midnightblue" d="M401.876,-141.6C414.302,-146.351 427.386,-151.354 439.368,-155.935"/>
<polygon fill="midnightblue" stroke="midnightblue" points="403.122,-138.329 392.531,-138.027 400.622,-144.867 403.122,-138.329"/>
</g>
<!-- Node5 -->
<g id="node9" class="node"><title>Node5</title>
<a xlink:href="../../d7/db4/structblond_1_1optionparser_1_1Stats.html#aa07a5530bc761238a9a7d50aa75ce608" target="_top" xlink:title="add() with non&#45;const argv.">
<polygon fill="white" stroke="black" points="434.5,-104 434.5,-138 533.5,-138 533.5,-104 434.5,-104"/>
<text text-anchor="start" x="442.5" y="-125" font-family="Helvetica,sans-Serif" font-size="10.00">blond::optionparser</text>
<text text-anchor="middle" x="484" y="-112" font-family="Helvetica,sans-Serif" font-size="10.00">::Stats::add</text>
</a>
</g>
<!-- Node3&#45;&gt;Node5 -->
<g id="edge8" class="edge"><title>Node3&#45;&gt;Node5</title>
<path fill="none" stroke="midnightblue" d="M408,-121C416.729,-121 425.637,-121 434.137,-121"/>
<polygon fill="midnightblue" stroke="midnightblue" points="407.869,-117.5 397.869,-121 407.869,-124.5 407.869,-117.5"/>
</g>
<!-- Node7 -->
<g id="node13" class="node"><title>Node7</title>
<a xlink:href="../../d7/d37/classblond_1_1optionparser_1_1Parser.html#a7aa518176685e3c1ae464f70cd8ce20f" target="_top" xlink:title="parse() with non&#45;const argv.">
<polygon fill="white" stroke="black" points="434.5,-52 434.5,-86 533.5,-86 533.5,-52 434.5,-52"/>
<text text-anchor="start" x="442.5" y="-73" font-family="Helvetica,sans-Serif" font-size="10.00">blond::optionparser</text>
<text text-anchor="middle" x="484" y="-60" font-family="Helvetica,sans-Serif" font-size="10.00">::Parser::parse</text>
</a>
</g>
<!-- Node6&#45;&gt;Node7 -->
<g id="edge12" class="edge"><title>Node6&#45;&gt;Node7</title>
<path fill="none" stroke="midnightblue" d="M408,-69C416.729,-69 425.637,-69 434.137,-69"/>
<polygon fill="midnightblue" stroke="midnightblue" points="407.869,-65.5001 397.869,-69 407.869,-72.5001 407.869,-65.5001"/>
</g>
<!-- Node8 -->
<g id="node15" class="node"><title>Node8</title>
<a xlink:href="../../d7/d37/classblond_1_1optionparser_1_1Parser.html#a8f85d4db6a8a545caaf30f64124b1718" target="_top" xlink:title="Creates a new Parser and immediately parses the given argument vector.">
<polygon fill="white" stroke="black" points="434.5,-0 434.5,-34 533.5,-34 533.5,-0 434.5,-0"/>
<text text-anchor="start" x="442.5" y="-21" font-family="Helvetica,sans-Serif" font-size="10.00">blond::optionparser</text>
<text text-anchor="middle" x="484" y="-8" font-family="Helvetica,sans-Serif" font-size="10.00">::Parser::Parser</text>
</a>
</g>
<!-- Node6&#45;&gt;Node8 -->
<g id="edge14" class="edge"><title>Node6&#45;&gt;Node8</title>
<path fill="none" stroke="midnightblue" d="M401.876,-48.4003C414.302,-43.6492 427.386,-38.6464 439.368,-34.065"/>
<polygon fill="midnightblue" stroke="midnightblue" points="400.622,-45.1326 392.531,-51.9733 403.122,-51.671 400.622,-45.1326"/>
</g>
</g>
</svg>
        <g id="navigator" transform="translate(0 0)" fill="#404254">
                <rect fill="#f2f5e9" fill-opacity="0.5" stroke="#606060" stroke-width=".5" x="0" y="0" width="60" height="60"/>
                <use id="zoomplus" xlink:href="#zoomPlus" x="17" y="9" onmousedown="handleZoom(evt,'in')"/>
                <use id="zoomminus" xlink:href="#zoomMin" x="42" y="9" onmousedown="handleZoom(evt,'out')"/>
                <use id="reset" xlink:href="#resetDef" x="30" y="36" onmousedown="handleReset()"/>
                <g id="arrowUp" xlink:href="#dirArrow" transform="translate(30 24)" onmousedown="handlePan(0,-1)">
                  <use xlink:href="#rim" fill="#404040">
                        <set attributeName="fill" to="#808080" begin="arrowUp.mouseover" end="arrowUp.mouseout"/>
                  </use>
                  <path fill="none" stroke="white" stroke-width="1.5" d="M0,-3.0v7 M-2.5,-0.5L0,-3.0L2.5,-0.5"/>
                </g>
                <g id="arrowRight" xlink:href="#dirArrow" transform="rotate(90) translate(36 -43)" onmousedown="handlePan(1,0)">
                  <use xlink:href="#rim" fill="#404040">
                        <set attributeName="fill" to="#808080" begin="arrowRight.mouseover" end="arrowRight.mouseout"/>
                  </use>
                  <path fill="none" stroke="white" stroke-width="1.5" d="M0,-3.0v7 M-2.5,-0.5L0,-3.0L2.5,-0.5"/>
                </g>
                <g id="arrowDown" xlink:href="#dirArrow" transform="rotate(180) translate(-30 -48)" onmousedown="handlePan(0,1)">
                  <use xlink:href="#rim" fill="#404040">
                        <set attributeName="fill" to="#808080" begin="arrowDown.mouseover" end="arrowDown.mouseout"/>
                  </use>
                  <path fill="none" stroke="white" stroke-width="1.5" d="M0,-3.0v7 M-2.5,-0.5L0,-3.0L2.5,-0.5"/>
                </g>
                <g id="arrowLeft" xlink:href="#dirArrow" transform="rotate(270) translate(-36 17)" onmousedown="handlePan(-1,0)">
                  <use xlink:href="#rim" fill="#404040">
                        <set attributeName="fill" to="#808080" begin="arrowLeft.mouseover" end="arrowLeft.mouseout"/>
                  </use>
                  <path fill="none" stroke="white" stroke-width="1.5" d="M0,-3.0v7 M-2.5,-0.5L0,-3.0L2.5,-0.5"/>
                </g>
        </g>
        <svg viewBox="0 0 15 15" width="100%" height="30px" preserveAspectRatio="xMaxYMin meet">
         <g id="arrow_out" transform="scale(0.3 0.3)">
          <a xlink:href="structblond_1_1optionparser_1_1Parser_1_1Action_ab48199f5d033f49f0c085262939f14c6_icgraph_org.svg" target="_base">
           <rect id="button" ry="5" rx="5" y="6" x="6" height="38" width="38"
                fill="#f2f5e9" fill-opacity="0.5" stroke="#606060" stroke-width="1.0"/>
           <path id="arrow"
             d="M 11.500037,31.436501 C 11.940474,20.09759 22.043105,11.32322 32.158766,21.979434 L 37.068811,17.246167 C 37.068811,17.246167 37.088388,32 37.088388,32 L 22.160133,31.978069 C 22.160133,31.978069 26.997745,27.140456 26.997745,27.140456 C 18.528582,18.264221 13.291696,25.230495 11.500037,31.436501 z"
             style="fill:#404040;"/>
          </a>
         </g>
        </svg>
</svg>
