<?xml version="1.0" encoding="UTF-8" standalone="no"?>
<!DOCTYPE svg PUBLIC "-//W3C//DTD SVG 1.1//EN"
 "http://www.w3.org/Graphics/SVG/1.1/DTD/svg11.dtd">
<!-- Generated by graphviz version 2.26.3 (20100126.1600)
 -->
<!-- Title: blond::multi_t Pages: 1 -->
<svg width="433pt" height="534pt"
 viewBox="0.00 0.00 433.00 534.00" xmlns="http://www.w3.org/2000/svg" xmlns:xlink="http://www.w3.org/1999/xlink">
<g id="graph1" class="graph" transform="scale(1 1) rotate(0) translate(4 530)">
<title>blond::multi_t</title>
<polygon fill="white" stroke="white" points="-4,5 -4,-530 430,-530 430,5 -4,5"/>
<!-- Node1 -->
<g id="node1" class="node"><title>Node1</title>
<polygon fill="#bfbfbf" stroke="black" points="190.5,-1 190.5,-129 265.5,-129 265.5,-1 190.5,-1"/>
<text text-anchor="middle" x="228" y="-116" font-family="Helvetica,sans-Serif" font-size="10.00">blond::multi_t</text>
<polyline fill="none" stroke="black" points="190.5,-108 265.5,-108 "/>
<text text-anchor="middle" x="228" y="-95" font-family="Helvetica,sans-Serif" font-size="10.00"> </text>
<polyline fill="none" stroke="black" points="190.5,-87 265.5,-87 "/>
<text text-anchor="start" x="198.5" y="-74" font-family="Helvetica,sans-Serif" font-size="10.00">+ multi_t()</text>
<text text-anchor="start" x="198.5" y="-61" font-family="Helvetica,sans-Serif" font-size="10.00">+ multi_t()</text>
<text text-anchor="start" x="198.5" y="-48" font-family="Helvetica,sans-Serif" font-size="10.00">+ multi_t()</text>
<text text-anchor="start" x="198.5" y="-35" font-family="Helvetica,sans-Serif" font-size="10.00">+ multi_t()</text>
<text text-anchor="start" x="198.5" y="-22" font-family="Helvetica,sans-Serif" font-size="10.00">+ multi_t()</text>
<text text-anchor="start" x="198.5" y="-9" font-family="Helvetica,sans-Serif" font-size="10.00">+ multi_t()</text>
</g>
<!-- Node2 -->
<g id="node2" class="node"><title>Node2</title>
<polygon fill="white" stroke="#bfbfbf" points="-0.5,-341.5 -0.5,-404.5 44.5,-404.5 44.5,-341.5 -0.5,-341.5"/>
<text text-anchor="middle" x="22" y="-391.5" font-family="Helvetica,sans-Serif" font-size="10.00">double</text>
<polyline fill="none" stroke="#bfbfbf" points="-0.5,-383.5 44.5,-383.5 "/>
<text text-anchor="middle" x="22" y="-370.5" font-family="Helvetica,sans-Serif" font-size="10.00"> </text>
<polyline fill="none" stroke="#bfbfbf" points="-0.5,-362.5 44.5,-362.5 "/>
<text text-anchor="middle" x="22" y="-349.5" font-family="Helvetica,sans-Serif" font-size="10.00"> </text>
</g>
<!-- Node2&#45;&gt;Node1 -->
<g id="edge2" class="edge"><title>Node2&#45;&gt;Node1</title>
<path fill="none" stroke="#404040" d="M12.3088,-341.389C1.8828,-300.926 -9.5344,-230.077 20,-180 53.9859,-122.375 128.353,-91.6143 178.32,-76.8034"/>
<polygon fill="none" stroke="#404040" points="178.599,-76.7247 183.284,-71.2428 190.146,-73.459 185.461,-78.9409 178.599,-76.7247"/>
<text text-anchor="middle" x="27.5" y="-229.5" font-family="Helvetica,sans-Serif" font-size="10.00"> +d</text>
</g>
<!-- Node7 -->
<g id="node12" class="node"><title>Node7</title>
<polygon fill="white" stroke="#bfbfbf" points="44,-200.5 44,-263.5 154,-263.5 154,-200.5 44,-200.5"/>
<text text-anchor="middle" x="99" y="-250.5" font-family="Helvetica,sans-Serif" font-size="10.00">std::vector&lt; double &gt;</text>
<polyline fill="none" stroke="#bfbfbf" points="44,-242.5 154,-242.5 "/>
<text text-anchor="middle" x="99" y="-229.5" font-family="Helvetica,sans-Serif" font-size="10.00"> </text>
<polyline fill="none" stroke="#bfbfbf" points="44,-221.5 154,-221.5 "/>
<text text-anchor="middle" x="99" y="-208.5" font-family="Helvetica,sans-Serif" font-size="10.00"> </text>
</g>
<!-- Node2&#45;&gt;Node7 -->
<g id="edge14" class="edge"><title>Node2&#45;&gt;Node7</title>
<path fill="none" stroke="#404040" d="M35.6217,-341.475C41.2751,-329.006 48.116,-314.657 55,-302 60.0279,-292.755 65.7845,-283.065 71.4402,-273.942"/>
<polygon fill="none" stroke="#404040" points="71.5878,-273.708 71.401,-266.499 77.9834,-263.554 78.1701,-270.763 71.5878,-273.708"/>
<text text-anchor="middle" x="79.5" y="-306.5" font-family="Helvetica,sans-Serif" font-size="10.00"> +elements</text>
</g>
<!-- Node3 -->
<g id="node4" class="node"><title>Node3</title>
<polygon fill="white" stroke="#bfbfbf" points="171.5,-181 171.5,-283 284.5,-283 284.5,-181 171.5,-181"/>
<text text-anchor="start" x="179.5" y="-270" font-family="Helvetica,sans-Serif" font-size="10.00">function&lt; f_vector</text>
<text text-anchor="start" x="179.5" y="-257" font-family="Helvetica,sans-Serif" font-size="10.00">_t(const f_vector_t</text>
<text text-anchor="start" x="179.5" y="-244" font-family="Helvetica,sans-Serif" font-size="10.00"> &amp;, std::string, double,</text>
<text text-anchor="middle" x="228" y="-231" font-family="Helvetica,sans-Serif" font-size="10.00"> double)&gt;</text>
<polyline fill="none" stroke="#bfbfbf" points="171.5,-223 284.5,-223 "/>
<text text-anchor="middle" x="228" y="-210" font-family="Helvetica,sans-Serif" font-size="10.00"> </text>
<polyline fill="none" stroke="#bfbfbf" points="171.5,-202 284.5,-202 "/>
<text text-anchor="middle" x="228" y="-189" font-family="Helvetica,sans-Serif" font-size="10.00"> </text>
</g>
<!-- Node3&#45;&gt;Node1 -->
<g id="edge4" class="edge"><title>Node3&#45;&gt;Node1</title>
<path fill="none" stroke="#404040" d="M228,-180.987C228,-168.502 228,-154.87 228,-141.479"/>
<polygon fill="none" stroke="#404040" points="228,-141.29 224,-135.29 228,-129.29 232,-135.29 228,-141.29"/>
<text text-anchor="middle" x="234.5" y="-152.5" font-family="Helvetica,sans-Serif" font-size="10.00"> +f</text>
</g>
<!-- Node4 -->
<g id="node6" class="node"><title>Node4</title>
<polygon fill="white" stroke="#bfbfbf" points="301.5,-200.5 301.5,-263.5 330.5,-263.5 330.5,-200.5 301.5,-200.5"/>
<text text-anchor="middle" x="316" y="-250.5" font-family="Helvetica,sans-Serif" font-size="10.00">int</text>
<polyline fill="none" stroke="#bfbfbf" points="301.5,-242.5 330.5,-242.5 "/>
<text text-anchor="middle" x="316" y="-229.5" font-family="Helvetica,sans-Serif" font-size="10.00"> </text>
<polyline fill="none" stroke="#bfbfbf" points="301.5,-221.5 330.5,-221.5 "/>
<text text-anchor="middle" x="316" y="-208.5" font-family="Helvetica,sans-Serif" font-size="10.00"> </text>
</g>
<!-- Node4&#45;&gt;Node1 -->
<g id="edge6" class="edge"><title>Node4&#45;&gt;Node1</title>
<path fill="none" stroke="#404040" d="M302.626,-200.421C299.584,-193.627 296.279,-186.528 293,-180 286.34,-166.74 278.894,-152.836 271.486,-139.461"/>
<polygon fill="none" stroke="#404040" points="271.421,-139.346 265.003,-136.06 265.568,-128.871 271.986,-132.157 271.421,-139.346"/>
<text text-anchor="middle" x="290" y="-152.5" font-family="Helvetica,sans-Serif" font-size="10.00"> +i</text>
</g>
<!-- Node5 -->
<g id="node8" class="node"><title>Node5</title>
<a xlink:title="STL class.">
<polygon fill="white" stroke="#bfbfbf" points="348,-200.5 348,-263.5 408,-263.5 408,-200.5 348,-200.5"/>
<text text-anchor="middle" x="378" y="-250.5" font-family="Helvetica,sans-Serif" font-size="10.00">std::string</text>
<polyline fill="none" stroke="#bfbfbf" points="348,-242.5 408,-242.5 "/>
<text text-anchor="middle" x="378" y="-229.5" font-family="Helvetica,sans-Serif" font-size="10.00"> </text>
<polyline fill="none" stroke="#bfbfbf" points="348,-221.5 408,-221.5 "/>
<text text-anchor="middle" x="378" y="-208.5" font-family="Helvetica,sans-Serif" font-size="10.00"> </text>
</a>
</g>
<!-- Node5&#45;&gt;Node1 -->
<g id="edge8" class="edge"><title>Node5&#45;&gt;Node1</title>
<path fill="none" stroke="#404040" d="M355.312,-200.436C350.109,-193.573 344.489,-186.443 339,-180 318.689,-156.158 294.709,-130.983 274.245,-110.287"/>
<polygon fill="none" stroke="#404040" points="274.174,-110.215 267.107,-108.783 265.711,-101.708 272.778,-103.141 274.174,-110.215"/>
<text text-anchor="middle" x="328.5" y="-152.5" font-family="Helvetica,sans-Serif" font-size="10.00"> +s</text>
</g>
<!-- Node6 -->
<g id="node10" class="node"><title>Node6</title>
<a xlink:title="STL class.">
<polygon fill="white" stroke="#bfbfbf" points="330.5,-335 330.5,-411 425.5,-411 425.5,-335 330.5,-335"/>
<text text-anchor="start" x="338.5" y="-398" font-family="Helvetica,sans-Serif" font-size="10.00">std::basic_string&lt;</text>
<text text-anchor="middle" x="378" y="-385" font-family="Helvetica,sans-Serif" font-size="10.00"> char &gt;</text>
<polyline fill="none" stroke="#bfbfbf" points="330.5,-377 425.5,-377 "/>
<text text-anchor="middle" x="378" y="-364" font-family="Helvetica,sans-Serif" font-size="10.00"> </text>
<polyline fill="none" stroke="#bfbfbf" points="330.5,-356 425.5,-356 "/>
<text text-anchor="middle" x="378" y="-343" font-family="Helvetica,sans-Serif" font-size="10.00"> </text>
</a>
</g>
<!-- Node6&#45;&gt;Node5 -->
<g id="edge10" class="edge"><title>Node6&#45;&gt;Node5</title>
<path fill="none" stroke="midnightblue" d="M378,-324.566C378,-304.368 378,-281.483 378,-263.521"/>
<polygon fill="none" stroke="midnightblue" points="374.5,-324.843 378,-334.843 381.5,-324.843 374.5,-324.843"/>
</g>
<!-- Node7&#45;&gt;Node1 -->
<g id="edge12" class="edge"><title>Node7&#45;&gt;Node1</title>
<path fill="none" stroke="#404040" d="M123.568,-200.195C140.291,-178.545 162.92,-149.251 182.838,-123.466"/>
<polygon fill="none" stroke="#404040" points="182.985,-123.275 183.487,-116.082 190.321,-113.779 189.818,-120.972 182.985,-123.275"/>
<text text-anchor="middle" x="171.5" y="-152.5" font-family="Helvetica,sans-Serif" font-size="10.00"> +v</text>
</g>
<!-- Node8 -->
<g id="node15" class="node"><title>Node8</title>
<a xlink:title="STL class.">
<polygon fill="white" stroke="#bfbfbf" points="72.5,-341.5 72.5,-404.5 159.5,-404.5 159.5,-341.5 72.5,-341.5"/>
<text text-anchor="middle" x="116" y="-391.5" font-family="Helvetica,sans-Serif" font-size="10.00">std::vector&lt; T &gt;</text>
<polyline fill="none" stroke="#bfbfbf" points="72.5,-383.5 159.5,-383.5 "/>
<text text-anchor="middle" x="116" y="-370.5" font-family="Helvetica,sans-Serif" font-size="10.00"> </text>
<polyline fill="none" stroke="#bfbfbf" points="72.5,-362.5 159.5,-362.5 "/>
<text text-anchor="middle" x="116" y="-349.5" font-family="Helvetica,sans-Serif" font-size="10.00"> </text>
</a>
</g>
<!-- Node8&#45;&gt;Node7 -->
<g id="edge16" class="edge"><title>Node8&#45;&gt;Node7</title>
<path fill="none" stroke="orange" d="M110.986,-331.416C108.368,-309.702 105.217,-283.563 102.802,-263.538"/>
<polygon fill="orange" stroke="orange" points="107.513,-331.848 112.185,-341.357 114.463,-331.01 107.513,-331.848"/>
<text text-anchor="middle" x="135" y="-306.5" font-family="Helvetica,sans-Serif" font-size="10.00"> &lt; double &gt;</text>
</g>
<!-- Node9 -->
<g id="node17" class="node"><title>Node9</title>
<polygon fill="white" stroke="#bfbfbf" points="101.5,-462.5 101.5,-525.5 130.5,-525.5 130.5,-462.5 101.5,-462.5"/>
<text text-anchor="middle" x="116" y="-512.5" font-family="Helvetica,sans-Serif" font-size="10.00">T</text>
<polyline fill="none" stroke="#bfbfbf" points="101.5,-504.5 130.5,-504.5 "/>
<text text-anchor="middle" x="116" y="-491.5" font-family="Helvetica,sans-Serif" font-size="10.00"> </text>
<polyline fill="none" stroke="#bfbfbf" points="101.5,-483.5 130.5,-483.5 "/>
<text text-anchor="middle" x="116" y="-470.5" font-family="Helvetica,sans-Serif" font-size="10.00"> </text>
</g>
<!-- Node9&#45;&gt;Node8 -->
<g id="edge18" class="edge"><title>Node9&#45;&gt;Node8</title>
<path fill="none" stroke="#404040" d="M116,-462.209C116,-448.314 116,-431.79 116,-416.761"/>
<polygon fill="none" stroke="#404040" points="116,-416.579 112,-410.579 116,-404.579 120,-410.579 116,-416.579"/>
<text text-anchor="middle" x="140.5" y="-434.5" font-family="Helvetica,sans-Serif" font-size="10.00"> +elements</text>
</g>
</g>
</svg>
