<?xml version="1.0" encoding="UTF-8" standalone="no"?>
<!DOCTYPE svg PUBLIC "-//W3C//DTD SVG 1.1//EN"
 "http://www.w3.org/Graphics/SVG/1.1/DTD/svg11.dtd">
<!-- Generated by graphviz version 2.26.3 (20100126.1600)
 -->
<!-- Title: blond Pages: 1 -->
<svg width="306pt" height="329pt"
 viewBox="0.00 0.00 306.00 329.00" xmlns="http://www.w3.org/2000/svg" xmlns:xlink="http://www.w3.org/1999/xlink">
<g id="graph1" class="graph" transform="scale(1 1) rotate(0) translate(4 325)">
<title>blond</title>
<polygon fill="white" stroke="white" points="-4,5 -4,-325 303,-325 303,5 -4,5"/>
<g id="graph2" class="cluster"><title>clusterdir_b2c71bdfd3af65c97a5a70fadf3dc512</title>
<a xlink:href="dir_b2c71bdfd3af65c97a5a70fadf3dc512.html" target="_top" xlink:title="include">
<polygon fill="#ddddee" stroke="black" points="8,-8 8,-313 290,-313 290,-8 8,-8"/>
<text text-anchor="middle" x="149" y="-300" font-family="Helvetica,sans-Serif" font-size="10.00">include</text>
</a>
</g>
<g id="graph3" class="cluster"><title>clusterdir_c0e22518f92c7490e2ab56f92eef9024</title>
<a xlink:href="dir_c0e22518f92c7490e2ab56f92eef9024.html" target="_top">
<polygon fill="#eeeeff" stroke="black" points="16,-16 16,-284 282,-284 282,-16 16,-16"/>
</a>
</g>
<!-- dir_c0e22518f92c7490e2ab56f92eef9024 -->
<g id="node3" class="node"><title>dir_c0e22518f92c7490e2ab56f92eef9024</title>
<text text-anchor="middle" x="204" y="-255.5" font-family="Helvetica,sans-Serif" font-size="10.00">blond</text>
</g>
<!-- dir_bfe264249dd5d020073d1a146b564611 -->
<g id="node4" class="node"><title>dir_bfe264249dd5d020073d1a146b564611</title>
<a xlink:href="dir_bfe264249dd5d020073d1a146b564611.html" target="_top" xlink:title="beams">
<polygon fill="white" stroke="black" points="159,-204 105,-204 105,-168 159,-168 159,-204"/>
<text text-anchor="middle" x="132" y="-183.5" font-family="Helvetica,sans-Serif" font-size="10.00">beams</text>
</a>
</g>
<!-- dir_c0e22518f92c7490e2ab56f92eef9024&#45;&gt;dir_bfe264249dd5d020073d1a146b564611 -->
<g id="edge28" class="edge"><title>dir_c0e22518f92c7490e2ab56f92eef9024&#45;&gt;dir_bfe264249dd5d020073d1a146b564611</title>
<path fill="none" stroke="black" d="M185.831,-239.831C177.285,-231.285 166.944,-220.944 157.62,-211.62"/>
<polygon fill="black" stroke="black" points="159.959,-209.009 150.413,-204.413 155.009,-213.959 159.959,-209.009"/>
<a xlink:href="dir_000003_000004.html" target="_top" xlink:title="8">
<text text-anchor="middle" x="164.509" y="-207.044" font-family="Helvetica,sans-Serif" font-size="10.00">8</text>
</a>
</g>
<!-- dir_039ef7b09f081299fc574738fdf1e1e8 -->
<g id="node6" class="node"><title>dir_039ef7b09f081299fc574738fdf1e1e8</title>
<a xlink:href="dir_039ef7b09f081299fc574738fdf1e1e8.html" target="_top" xlink:title="input_parameters">
<polygon fill="white" stroke="black" points="116,-60 24,-60 24,-24 116,-24 116,-60"/>
<text text-anchor="middle" x="70" y="-39.5" font-family="Helvetica,sans-Serif" font-size="10.00">input_parameters</text>
</a>
</g>
<!-- dir_bfe264249dd5d020073d1a146b564611&#45;&gt;dir_039ef7b09f081299fc574738fdf1e1e8 -->
<g id="edge22" class="edge"><title>dir_bfe264249dd5d020073d1a146b564611&#45;&gt;dir_039ef7b09f081299fc574738fdf1e1e8</title>
<path fill="none" stroke="black" d="M119.474,-167.762C106.325,-142.985 86.9017,-98.4714 76.4343,-69.5939"/>
<polygon fill="black" stroke="black" points="79.7199,-68.3859 73.1303,-60.0896 73.108,-70.6844 79.7199,-68.3859"/>
<a xlink:href="dir_000004_000006.html" target="_top" xlink:title="2">
<text text-anchor="middle" x="83.582" y="-68.3489" font-family="Helvetica,sans-Serif" font-size="10.00">2</text>
</a>
</g>
<!-- dir_b352a1e4614f05f90506f2bd7dbb11d3 -->
<g id="node10" class="node"><title>dir_b352a1e4614f05f90506f2bd7dbb11d3</title>
<a xlink:href="dir_b352a1e4614f05f90506f2bd7dbb11d3.html" target="_top" xlink:title="trackers">
<polygon fill="white" stroke="black" points="173,-132 119,-132 119,-96 173,-96 173,-132"/>
<text text-anchor="middle" x="146" y="-111.5" font-family="Helvetica,sans-Serif" font-size="10.00">trackers</text>
</a>
</g>
<!-- dir_bfe264249dd5d020073d1a146b564611&#45;&gt;dir_b352a1e4614f05f90506f2bd7dbb11d3 -->
<g id="edge20" class="edge"><title>dir_bfe264249dd5d020073d1a146b564611&#45;&gt;dir_b352a1e4614f05f90506f2bd7dbb11d3</title>
<path fill="none" stroke="black" d="M129.58,-167.831C130.335,-160.046 131.921,-150.773 133.925,-142.135"/>
<polygon fill="black" stroke="black" points="137.323,-142.972 136.444,-132.413 130.547,-141.216 137.323,-142.972"/>
<a xlink:href="dir_000004_000016.html" target="_top" xlink:title="1">
<text text-anchor="middle" x="139.17" y="-144.663" font-family="Helvetica,sans-Serif" font-size="10.00">1</text>
</a>
</g>
<!-- dir_bdd3d23d615269b317a0f6c6bfe1c1a8 -->
<g id="node5" class="node"><title>dir_bdd3d23d615269b317a0f6c6bfe1c1a8</title>
<a xlink:href="dir_bdd3d23d615269b317a0f6c6bfe1c1a8.html" target="_top" xlink:title="impedances">
<polygon fill="white" stroke="black" points="202,-60 134,-60 134,-24 202,-24 202,-60"/>
<text text-anchor="middle" x="168" y="-39.5" font-family="Helvetica,sans-Serif" font-size="10.00">impedances</text>
</a>
</g>
<!-- dir_039ef7b09f081299fc574738fdf1e1e8&#45;&gt;dir_bfe264249dd5d020073d1a146b564611 -->
<g id="edge18" class="edge"><title>dir_039ef7b09f081299fc574738fdf1e1e8&#45;&gt;dir_bfe264249dd5d020073d1a146b564611</title>
<path fill="none" stroke="black" d="M82.4469,-60.0896C95.5714,-84.7884 115,-129.293 125.503,-158.233"/>
<polygon fill="black" stroke="black" points="122.227,-159.469 128.821,-167.762 128.838,-157.167 122.227,-159.469"/>
<a xlink:href="dir_000006_000004.html" target="_top" xlink:title="1">
<text text-anchor="middle" x="118.364" y="-154.508" font-family="Helvetica,sans-Serif" font-size="10.00">1</text>
</a>
</g>
<!-- dir_b3fced96d94b1a05c1bcd3c568646e7c -->
<g id="node7" class="node"><title>dir_b3fced96d94b1a05c1bcd3c568646e7c</title>
<a xlink:href="dir_b3fced96d94b1a05c1bcd3c568646e7c.html" target="_top" xlink:title="llrf">
<polygon fill="white" stroke="black" points="274,-60 220,-60 220,-24 274,-24 274,-60"/>
<text text-anchor="middle" x="247" y="-39.5" font-family="Helvetica,sans-Serif" font-size="10.00">llrf</text>
</a>
</g>
<!-- dir_d0b39b9eb5a701590d015623f4a53079 -->
<g id="node8" class="node"><title>dir_d0b39b9eb5a701590d015623f4a53079</title>
<a xlink:href="dir_d0b39b9eb5a701590d015623f4a53079.html" target="_top" xlink:title="monitors">
<polygon fill="white" stroke="black" points="159,-276 105,-276 105,-240 159,-240 159,-276"/>
<text text-anchor="middle" x="132" y="-255.5" font-family="Helvetica,sans-Serif" font-size="10.00">monitors</text>
</a>
</g>
<!-- dir_d0b39b9eb5a701590d015623f4a53079&#45;&gt;dir_bfe264249dd5d020073d1a146b564611 -->
<g id="edge14" class="edge"><title>dir_d0b39b9eb5a701590d015623f4a53079&#45;&gt;dir_bfe264249dd5d020073d1a146b564611</title>
<path fill="none" stroke="black" d="M132,-239.831C132,-232.131 132,-222.974 132,-214.417"/>
<polygon fill="black" stroke="black" points="135.5,-214.413 132,-204.413 128.5,-214.413 135.5,-214.413"/>
<a xlink:href="dir_000012_000004.html" target="_top" xlink:title="2">
<text text-anchor="middle" x="138.339" y="-215.508" font-family="Helvetica,sans-Serif" font-size="10.00">2</text>
</a>
</g>
<!-- dir_d0b39b9eb5a701590d015623f4a53079&#45;&gt;dir_039ef7b09f081299fc574738fdf1e1e8 -->
<g id="edge12" class="edge"><title>dir_d0b39b9eb5a701590d015623f4a53079&#45;&gt;dir_039ef7b09f081299fc574738fdf1e1e8</title>
<path fill="none" stroke="black" d="M116.859,-239.622C109.428,-229.662 101.017,-216.798 96,-204 78.535,-159.444 72.7956,-103.596 70.9134,-70.4685"/>
<polygon fill="black" stroke="black" points="74.3935,-69.9721 70.4117,-60.154 67.4018,-70.3123 74.3935,-69.9721"/>
<a xlink:href="dir_000012_000006.html" target="_top" xlink:title="2">
<text text-anchor="middle" x="77.404" y="-70.9245" font-family="Helvetica,sans-Serif" font-size="10.00">2</text>
</a>
</g>
<!-- dir_d0b39b9eb5a701590d015623f4a53079&#45;&gt;dir_b3fced96d94b1a05c1bcd3c568646e7c -->
<g id="edge16" class="edge"><title>dir_d0b39b9eb5a701590d015623f4a53079&#45;&gt;dir_b3fced96d94b1a05c1bcd3c568646e7c</title>
<path fill="none" stroke="black" d="M144.956,-239.894C152.104,-229.588 160.935,-216.314 168,-204 194.247,-158.25 220.18,-102.512 234.833,-69.7747"/>
<polygon fill="black" stroke="black" points="238.142,-70.9492 239.007,-60.3897 231.745,-68.105 238.142,-70.9492"/>
<a xlink:href="dir_000012_000010.html" target="_top" xlink:title="2">
<text text-anchor="middle" x="239.275" y="-72.8873" font-family="Helvetica,sans-Serif" font-size="10.00">2</text>
</a>
</g>
<!-- dir_acefc2b4e542c43fbc30a2faea09b820 -->
<g id="node9" class="node"><title>dir_acefc2b4e542c43fbc30a2faea09b820</title>
<a xlink:href="dir_acefc2b4e542c43fbc30a2faea09b820.html" target="_top" xlink:title="plots">
<polygon fill="white" stroke="black" points="87,-276 33,-276 33,-240 87,-240 87,-276"/>
<text text-anchor="middle" x="60" y="-255.5" font-family="Helvetica,sans-Serif" font-size="10.00">plots</text>
</a>
</g>
<!-- dir_acefc2b4e542c43fbc30a2faea09b820&#45;&gt;dir_bfe264249dd5d020073d1a146b564611 -->
<g id="edge26" class="edge"><title>dir_acefc2b4e542c43fbc30a2faea09b820&#45;&gt;dir_bfe264249dd5d020073d1a146b564611</title>
<path fill="none" stroke="black" d="M78.1686,-239.831C86.7152,-231.285 97.0557,-220.944 106.38,-211.62"/>
<polygon fill="black" stroke="black" points="108.991,-213.959 113.587,-204.413 104.041,-209.009 108.991,-213.959"/>
<a xlink:href="dir_000014_000004.html" target="_top" xlink:title="2">
<text text-anchor="middle" x="108.456" y="-216.009" font-family="Helvetica,sans-Serif" font-size="10.00">2</text>
</a>
</g>
<!-- dir_acefc2b4e542c43fbc30a2faea09b820&#45;&gt;dir_039ef7b09f081299fc574738fdf1e1e8 -->
<g id="edge24" class="edge"><title>dir_acefc2b4e542c43fbc30a2faea09b820&#45;&gt;dir_039ef7b09f081299fc574738fdf1e1e8</title>
<path fill="none" stroke="black" d="M60.8354,-239.955C62.5744,-202.394 66.5947,-115.554 68.6847,-70.4103"/>
<polygon fill="black" stroke="black" points="72.1936,-70.2963 69.16,-60.1451 65.2011,-69.9725 72.1936,-70.2963"/>
<a xlink:href="dir_000014_000006.html" target="_top" xlink:title="4">
<text text-anchor="middle" x="74.8637" y="-71.5183" font-family="Helvetica,sans-Serif" font-size="10.00">4</text>
</a>
</g>
<!-- dir_b352a1e4614f05f90506f2bd7dbb11d3&#45;&gt;dir_bfe264249dd5d020073d1a146b564611 -->
<g id="edge6" class="edge"><title>dir_b352a1e4614f05f90506f2bd7dbb11d3&#45;&gt;dir_bfe264249dd5d020073d1a146b564611</title>
<path fill="none" stroke="black" d="M148.396,-132.413C147.623,-140.229 146.025,-149.511 144.012,-158.136"/>
<polygon fill="black" stroke="black" points="140.621,-157.272 141.485,-167.831 147.394,-159.038 140.621,-157.272"/>
<a xlink:href="dir_000016_000004.html" target="_top" xlink:title="1">
<text text-anchor="middle" x="138.78" y="-150.577" font-family="Helvetica,sans-Serif" font-size="10.00">1</text>
</a>
</g>
<!-- dir_b352a1e4614f05f90506f2bd7dbb11d3&#45;&gt;dir_bdd3d23d615269b317a0f6c6bfe1c1a8 -->
<g id="edge10" class="edge"><title>dir_b352a1e4614f05f90506f2bd7dbb11d3&#45;&gt;dir_bdd3d23d615269b317a0f6c6bfe1c1a8</title>
<path fill="none" stroke="black" d="M151.552,-95.8314C153.93,-88.0463 156.764,-78.7729 159.403,-70.1347"/>
<polygon fill="black" stroke="black" points="162.799,-70.9996 162.374,-60.4133 156.104,-68.954 162.799,-70.9996"/>
<a xlink:href="dir_000016_000008.html" target="_top" xlink:title="1">
<text text-anchor="middle" x="164.464" y="-72.767" font-family="Helvetica,sans-Serif" font-size="10.00">1</text>
</a>
</g>
<!-- dir_b352a1e4614f05f90506f2bd7dbb11d3&#45;&gt;dir_039ef7b09f081299fc574738fdf1e1e8 -->
<g id="edge4" class="edge"><title>dir_b352a1e4614f05f90506f2bd7dbb11d3&#45;&gt;dir_039ef7b09f081299fc574738fdf1e1e8</title>
<path fill="none" stroke="black" d="M126.822,-95.8314C117.641,-87.1337 106.499,-76.5783 96.5224,-67.1265"/>
<polygon fill="black" stroke="black" points="98.8385,-64.4995 89.1719,-60.1628 94.0243,-69.5811 98.8385,-64.4995"/>
<a xlink:href="dir_000016_000006.html" target="_top" xlink:title="2">
<text text-anchor="middle" x="103.401" y="-62.4104" font-family="Helvetica,sans-Serif" font-size="10.00">2</text>
</a>
</g>
<!-- dir_b352a1e4614f05f90506f2bd7dbb11d3&#45;&gt;dir_b3fced96d94b1a05c1bcd3c568646e7c -->
<g id="edge8" class="edge"><title>dir_b352a1e4614f05f90506f2bd7dbb11d3&#45;&gt;dir_b3fced96d94b1a05c1bcd3c568646e7c</title>
<path fill="none" stroke="black" d="M171.487,-95.8314C184.166,-86.7927 199.66,-75.7476 213.306,-66.0198"/>
<polygon fill="black" stroke="black" points="215.41,-68.8176 221.522,-60.1628 211.347,-63.1176 215.41,-68.8176"/>
<a xlink:href="dir_000016_000010.html" target="_top" xlink:title="2">
<text text-anchor="middle" x="214.132" y="-70.7161" font-family="Helvetica,sans-Serif" font-size="10.00">2</text>
</a>
</g>
</g>
</svg>
