<?xml version="1.0" encoding="UTF-8" standalone="no"?>
<!DOCTYPE svg PUBLIC "-//W3C//DTD SVG 1.1//EN"
 "http://www.w3.org/Graphics/SVG/1.1/DTD/svg11.dtd">
<!-- Generated by graphviz version 2.26.3 (20100126.1600)
 -->
<!-- Title: monitors Pages: 1 -->
<svg width="169pt" height="225pt"
 viewBox="0.00 0.00 169.00 225.00" xmlns="http://www.w3.org/2000/svg" xmlns:xlink="http://www.w3.org/1999/xlink">
<g id="graph1" class="graph" transform="scale(1 1) rotate(0) translate(4 221)">
<title>monitors</title>
<polygon fill="white" stroke="white" points="-4,5 -4,-221 166,-221 166,5 -4,5"/>
<g id="graph2" class="cluster"><title>clusterdir_4a4b9f9a898a71f152a99978051a04a6</title>
<a xlink:href="dir_4a4b9f9a898a71f152a99978051a04a6.html" target="_top" xlink:title="blond">
<polygon fill="#ddddee" stroke="black" points="83,-136 83,-209 153,-209 153,-136 83,-136"/>
<text text-anchor="middle" x="118" y="-196" font-family="Helvetica,sans-Serif" font-size="10.00">blond</text>
</a>
</g>
<!-- dir_ff956a6f6efb2e6f02cf29e442795936 -->
<g id="node2" class="node"><title>dir_ff956a6f6efb2e6f02cf29e442795936</title>
<a xlink:href="dir_ff956a6f6efb2e6f02cf29e442795936.html" target="_top" xlink:title="monitors">
<polygon fill="#eeeeff" stroke="black" points="145,-180 91,-180 91,-144 145,-144 145,-180"/>
<text text-anchor="middle" x="118" y="-159.5" font-family="Helvetica,sans-Serif" font-size="10.00">monitors</text>
</a>
</g>
<!-- dir_0f46bbf322b1c503e543e0bfd6f16d56 -->
<g id="node3" class="node"><title>dir_0f46bbf322b1c503e543e0bfd6f16d56</title>
<a xlink:href="dir_0f46bbf322b1c503e543e0bfd6f16d56.html" target="_top" xlink:title="beams">
<polygon fill="none" stroke="black" points="73,-108 19,-108 19,-72 73,-72 73,-108"/>
<text text-anchor="middle" x="46" y="-87.5" font-family="Helvetica,sans-Serif" font-size="10.00">beams</text>
</a>
</g>
<!-- dir_ff956a6f6efb2e6f02cf29e442795936&#45;&gt;dir_0f46bbf322b1c503e543e0bfd6f16d56 -->
<g id="edge7" class="edge"><title>dir_ff956a6f6efb2e6f02cf29e442795936&#45;&gt;dir_0f46bbf322b1c503e543e0bfd6f16d56</title>
<path fill="none" stroke="black" d="M99.8314,-143.831C91.2848,-135.285 80.9443,-124.944 71.6198,-115.62"/>
<polygon fill="black" stroke="black" points="73.9592,-113.009 64.4133,-108.413 69.0095,-117.959 73.9592,-113.009"/>
<a xlink:href="dir_000012_000004.html" target="_top" xlink:title="2">
<text text-anchor="middle" x="78.5087" y="-111.044" font-family="Helvetica,sans-Serif" font-size="10.00">2</text>
</a>
</g>
<!-- dir_0271091ab6fbdc769d4e6247c5291f5c -->
<g id="node4" class="node"><title>dir_0271091ab6fbdc769d4e6247c5291f5c</title>
<a xlink:href="dir_0271091ab6fbdc769d4e6247c5291f5c.html" target="_top" xlink:title="llrf">
<polygon fill="none" stroke="black" points="145,-108 91,-108 91,-72 145,-72 145,-108"/>
<text text-anchor="middle" x="118" y="-87.5" font-family="Helvetica,sans-Serif" font-size="10.00">llrf</text>
</a>
</g>
<!-- dir_ff956a6f6efb2e6f02cf29e442795936&#45;&gt;dir_0271091ab6fbdc769d4e6247c5291f5c -->
<g id="edge9" class="edge"><title>dir_ff956a6f6efb2e6f02cf29e442795936&#45;&gt;dir_0271091ab6fbdc769d4e6247c5291f5c</title>
<path fill="none" stroke="black" d="M118,-143.831C118,-136.131 118,-126.974 118,-118.417"/>
<polygon fill="black" stroke="black" points="121.5,-118.413 118,-108.413 114.5,-118.413 121.5,-118.413"/>
<a xlink:href="dir_000012_000010.html" target="_top" xlink:title="2">
<text text-anchor="middle" x="124.339" y="-119.508" font-family="Helvetica,sans-Serif" font-size="10.00">2</text>
</a>
</g>
<!-- dir_903239d11b14492f567a0e307153a118 -->
<g id="node5" class="node"><title>dir_903239d11b14492f567a0e307153a118</title>
<a xlink:href="dir_903239d11b14492f567a0e307153a118.html" target="_top" xlink:title="input_parameters">
<polygon fill="none" stroke="black" points="92,-36 4.26326e-14,-36 0,-1.77636e-14 92,-3.55271e-15 92,-36"/>
<text text-anchor="middle" x="46" y="-15.5" font-family="Helvetica,sans-Serif" font-size="10.00">input_parameters</text>
</a>
</g>
<!-- dir_ff956a6f6efb2e6f02cf29e442795936&#45;&gt;dir_903239d11b14492f567a0e307153a118 -->
<g id="edge11" class="edge"><title>dir_ff956a6f6efb2e6f02cf29e442795936&#45;&gt;dir_903239d11b14492f567a0e307153a118</title>
<path fill="none" stroke="black" d="M134.794,-143.888C150.109,-125.071 168.333,-95.1908 154,-72 142.298,-53.065 121.722,-40.5474 101.648,-32.3813"/>
<polygon fill="black" stroke="black" points="102.778,-29.0667 92.1858,-28.8206 100.312,-35.6183 102.778,-29.0667"/>
<a xlink:href="dir_000012_000006.html" target="_top" xlink:title="2">
<text text-anchor="middle" x="107.142" y="-25.1753" font-family="Helvetica,sans-Serif" font-size="10.00">2</text>
</a>
</g>
<!-- dir_0f46bbf322b1c503e543e0bfd6f16d56&#45;&gt;dir_903239d11b14492f567a0e307153a118 -->
<g id="edge3" class="edge"><title>dir_0f46bbf322b1c503e543e0bfd6f16d56&#45;&gt;dir_903239d11b14492f567a0e307153a118</title>
<path fill="none" stroke="black" d="M40.0476,-71.8314C39.2972,-64.131 39.0763,-54.9743 39.3849,-46.4166"/>
<polygon fill="black" stroke="black" points="42.8792,-46.6161 40.024,-36.4133 35.8935,-46.1697 42.8792,-46.6161"/>
<a xlink:href="dir_000004_000006.html" target="_top" xlink:title="2">
<text text-anchor="middle" x="45.4836" y="-47.8844" font-family="Helvetica,sans-Serif" font-size="10.00">2</text>
</a>
</g>
<!-- dir_903239d11b14492f567a0e307153a118&#45;&gt;dir_0f46bbf322b1c503e543e0bfd6f16d56 -->
<g id="edge5" class="edge"><title>dir_903239d11b14492f567a0e307153a118&#45;&gt;dir_0f46bbf322b1c503e543e0bfd6f16d56</title>
<path fill="none" stroke="black" d="M51.976,-36.4133C52.7071,-44.0593 52.9203,-53.1084 52.6155,-61.5726"/>
<polygon fill="black" stroke="black" points="49.1048,-61.6264 51.9524,-71.8314 56.0902,-62.078 49.1048,-61.6264"/>
<a xlink:href="dir_000006_000004.html" target="_top" xlink:title="1">
<text text-anchor="middle" x="46.5032" y="-55.3562" font-family="Helvetica,sans-Serif" font-size="10.00">1</text>
</a>
</g>
</g>
</svg>
