<?xml version="1.0" encoding="UTF-8" standalone="no"?>
<!DOCTYPE svg PUBLIC "-//W3C//DTD SVG 1.1//EN"
 "http://www.w3.org/Graphics/SVG/1.1/DTD/svg11.dtd">
<!-- Generated by graphviz version 2.26.3 (20100126.1600)
 -->
<!-- Title: impedances Pages: 1 -->
<svg width="108pt" height="153pt"
 viewBox="0.00 0.00 108.00 153.00" xmlns="http://www.w3.org/2000/svg" xmlns:xlink="http://www.w3.org/1999/xlink">
<g id="graph1" class="graph" transform="scale(1 1) rotate(0) translate(4 149)">
<title>impedances</title>
<polygon fill="white" stroke="white" points="-4,5 -4,-149 105,-149 105,5 -4,5"/>
<g id="graph2" class="cluster"><title>clusterdir_4a4b9f9a898a71f152a99978051a04a6</title>
<a xlink:href="dir_4a4b9f9a898a71f152a99978051a04a6.html" target="_top" xlink:title="blond">
<polygon fill="#ddddee" stroke="black" points="8,-64 8,-137 92,-137 92,-64 8,-64"/>
<text text-anchor="middle" x="50" y="-124" font-family="Helvetica,sans-Serif" font-size="10.00">blond</text>
</a>
</g>
<!-- dir_f27bc4dde0dbac1a1aead375e843bd78 -->
<g id="node2" class="node"><title>dir_f27bc4dde0dbac1a1aead375e843bd78</title>
<a xlink:href="dir_f27bc4dde0dbac1a1aead375e843bd78.html" target="_top" xlink:title="impedances">
<polygon fill="#eeeeff" stroke="black" points="84,-108 16,-108 16,-72 84,-72 84,-108"/>
<text text-anchor="middle" x="50" y="-87.5" font-family="Helvetica,sans-Serif" font-size="10.00">impedances</text>
</a>
</g>
<!-- dir_0f46bbf322b1c503e543e0bfd6f16d56 -->
<g id="node3" class="node"><title>dir_0f46bbf322b1c503e543e0bfd6f16d56</title>
<a xlink:href="dir_0f46bbf322b1c503e543e0bfd6f16d56.html" target="_top" xlink:title="beams">
<polygon fill="none" stroke="black" points="77,-36 23,-36 23,-1.77636e-14 77,-3.55271e-15 77,-36"/>
<text text-anchor="middle" x="50" y="-15.5" font-family="Helvetica,sans-Serif" font-size="10.00">beams</text>
</a>
</g>
<!-- dir_f27bc4dde0dbac1a1aead375e843bd78&#45;&gt;dir_0f46bbf322b1c503e543e0bfd6f16d56 -->
<g id="edge5" class="edge"><title>dir_f27bc4dde0dbac1a1aead375e843bd78&#45;&gt;dir_0f46bbf322b1c503e543e0bfd6f16d56</title>
<path fill="none" stroke="black" d="M44.0476,-71.8314C43.2972,-64.131 43.0763,-54.9743 43.3849,-46.4166"/>
<polygon fill="black" stroke="black" points="46.8792,-46.6161 44.024,-36.4133 39.8935,-46.1697 46.8792,-46.6161"/>
<a xlink:href="dir_000008_000004.html" target="_top" xlink:title="2">
<text text-anchor="middle" x="49.4836" y="-47.8844" font-family="Helvetica,sans-Serif" font-size="10.00">2</text>
</a>
</g>
<!-- dir_0f46bbf322b1c503e543e0bfd6f16d56&#45;&gt;dir_f27bc4dde0dbac1a1aead375e843bd78 -->
<g id="edge3" class="edge"><title>dir_0f46bbf322b1c503e543e0bfd6f16d56&#45;&gt;dir_f27bc4dde0dbac1a1aead375e843bd78</title>
<path fill="none" stroke="black" d="M55.976,-36.4133C56.7071,-44.0593 56.9203,-53.1084 56.6155,-61.5726"/>
<polygon fill="black" stroke="black" points="53.1048,-61.6264 55.9524,-71.8314 60.0902,-62.078 53.1048,-61.6264"/>
<a xlink:href="dir_000004_000008.html" target="_top" xlink:title="1">
<text text-anchor="middle" x="50.5032" y="-55.3562" font-family="Helvetica,sans-Serif" font-size="10.00">1</text>
</a>
</g>
</g>
</svg>
