<?xml version="1.0" encoding="UTF-8" standalone="no"?>
<!DOCTYPE svg PUBLIC "-//W3C//DTD SVG 1.1//EN"
 "http://www.w3.org/Graphics/SVG/1.1/DTD/svg11.dtd">
<!-- Generated by graphviz version 2.26.3 (20100126.1600)
 -->
<!-- Title: plots Pages: 1 -->
<svg width="296pt" height="225pt"
 viewBox="0.00 0.00 296.00 225.00" xmlns="http://www.w3.org/2000/svg" xmlns:xlink="http://www.w3.org/1999/xlink">
<g id="graph1" class="graph" transform="scale(1 1) rotate(0) translate(4 221)">
<title>plots</title>
<polygon fill="white" stroke="white" points="-4,5 -4,-221 293,-221 293,5 -4,5"/>
<g id="graph2" class="cluster"><title>clusterdir_c0e22518f92c7490e2ab56f92eef9024</title>
<a xlink:href="dir_c0e22518f92c7490e2ab56f92eef9024.html" target="_top" xlink:title="blond">
<polygon fill="#ddddee" stroke="black" points="112,-136 112,-209 182,-209 182,-136 112,-136"/>
<text text-anchor="middle" x="147" y="-196" font-family="Helvetica,sans-Serif" font-size="10.00">blond</text>
</a>
</g>
<!-- dir_acefc2b4e542c43fbc30a2faea09b820 -->
<g id="node2" class="node"><title>dir_acefc2b4e542c43fbc30a2faea09b820</title>
<a xlink:href="dir_acefc2b4e542c43fbc30a2faea09b820.html" target="_top" xlink:title="plots">
<polygon fill="#eeeeff" stroke="black" points="174,-180 120,-180 120,-144 174,-144 174,-180"/>
<text text-anchor="middle" x="147" y="-159.5" font-family="Helvetica,sans-Serif" font-size="10.00">plots</text>
</a>
</g>
<!-- dir_039ef7b09f081299fc574738fdf1e1e8 -->
<g id="node3" class="node"><title>dir_039ef7b09f081299fc574738fdf1e1e8</title>
<a xlink:href="dir_039ef7b09f081299fc574738fdf1e1e8.html" target="_top" xlink:title="input_parameters">
<polygon fill="none" stroke="black" points="92,-108 4.26326e-14,-108 0,-72 92,-72 92,-108"/>
<text text-anchor="middle" x="46" y="-87.5" font-family="Helvetica,sans-Serif" font-size="10.00">input_parameters</text>
</a>
</g>
<!-- dir_acefc2b4e542c43fbc30a2faea09b820&#45;&gt;dir_039ef7b09f081299fc574738fdf1e1e8 -->
<g id="edge7" class="edge"><title>dir_acefc2b4e542c43fbc30a2faea09b820&#45;&gt;dir_039ef7b09f081299fc574738fdf1e1e8</title>
<path fill="none" stroke="black" d="M121.513,-143.831C108.834,-134.793 93.3404,-123.748 79.6945,-114.02"/>
<polygon fill="black" stroke="black" points="81.6529,-111.118 71.4784,-108.163 77.5895,-116.818 81.6529,-111.118"/>
<a xlink:href="dir_000014_000006.html" target="_top" xlink:title="6">
<text text-anchor="middle" x="86.228" y="-108.392" font-family="Helvetica,sans-Serif" font-size="10.00">6</text>
</a>
</g>
<!-- dir_bfe264249dd5d020073d1a146b564611 -->
<g id="node4" class="node"><title>dir_bfe264249dd5d020073d1a146b564611</title>
<a xlink:href="dir_bfe264249dd5d020073d1a146b564611.html" target="_top" xlink:title="beams">
<polygon fill="none" stroke="black" points="73,-36 19,-36 19,-1.77636e-14 73,-3.55271e-15 73,-36"/>
<text text-anchor="middle" x="46" y="-15.5" font-family="Helvetica,sans-Serif" font-size="10.00">beams</text>
</a>
</g>
<!-- dir_acefc2b4e542c43fbc30a2faea09b820&#45;&gt;dir_bfe264249dd5d020073d1a146b564611 -->
<g id="edge9" class="edge"><title>dir_acefc2b4e542c43fbc30a2faea09b820&#45;&gt;dir_bfe264249dd5d020073d1a146b564611</title>
<path fill="none" stroke="black" d="M139.755,-143.775C131.779,-124.866 117.829,-94.9106 101,-72 93.4495,-61.7208 83.8973,-51.6104 74.8806,-42.968"/>
<polygon fill="black" stroke="black" points="77.1911,-40.337 67.4882,-36.0822 72.42,-45.4592 77.1911,-40.337"/>
<a xlink:href="dir_000014_000004.html" target="_top" xlink:title="4">
<text text-anchor="middle" x="81.7566" y="-38.2095" font-family="Helvetica,sans-Serif" font-size="10.00">4</text>
</a>
</g>
<!-- dir_b3fced96d94b1a05c1bcd3c568646e7c -->
<g id="node5" class="node"><title>dir_b3fced96d94b1a05c1bcd3c568646e7c</title>
<a xlink:href="dir_b3fced96d94b1a05c1bcd3c568646e7c.html" target="_top" xlink:title="llrf">
<polygon fill="none" stroke="black" points="202,-108 148,-108 148,-72 202,-72 202,-108"/>
<text text-anchor="middle" x="175" y="-87.5" font-family="Helvetica,sans-Serif" font-size="10.00">llrf</text>
</a>
</g>
<!-- dir_acefc2b4e542c43fbc30a2faea09b820&#45;&gt;dir_b3fced96d94b1a05c1bcd3c568646e7c -->
<g id="edge11" class="edge"><title>dir_acefc2b4e542c43fbc30a2faea09b820&#45;&gt;dir_b3fced96d94b1a05c1bcd3c568646e7c</title>
<path fill="none" stroke="black" d="M154.066,-143.831C157.126,-135.962 160.778,-126.571 164.168,-117.853"/>
<polygon fill="black" stroke="black" points="167.477,-119.002 167.839,-108.413 160.953,-116.465 167.477,-119.002"/>
<a xlink:href="dir_000014_000010.html" target="_top" xlink:title="1">
<text text-anchor="middle" x="168.82" y="-120.881" font-family="Helvetica,sans-Serif" font-size="10.00">1</text>
</a>
</g>
<!-- dir_bdd3d23d615269b317a0f6c6bfe1c1a8 -->
<g id="node6" class="node"><title>dir_bdd3d23d615269b317a0f6c6bfe1c1a8</title>
<a xlink:href="dir_bdd3d23d615269b317a0f6c6bfe1c1a8.html" target="_top" xlink:title="impedances">
<polygon fill="none" stroke="black" points="288,-108 220,-108 220,-72 288,-72 288,-108"/>
<text text-anchor="middle" x="254" y="-87.5" font-family="Helvetica,sans-Serif" font-size="10.00">impedances</text>
</a>
</g>
<!-- dir_acefc2b4e542c43fbc30a2faea09b820&#45;&gt;dir_bdd3d23d615269b317a0f6c6bfe1c1a8 -->
<g id="edge13" class="edge"><title>dir_acefc2b4e542c43fbc30a2faea09b820&#45;&gt;dir_bdd3d23d615269b317a0f6c6bfe1c1a8</title>
<path fill="none" stroke="black" d="M174.001,-143.831C187.433,-134.793 203.847,-123.748 218.304,-114.02"/>
<polygon fill="black" stroke="black" points="220.665,-116.649 227.008,-108.163 216.757,-110.842 220.665,-116.649"/>
<a xlink:href="dir_000014_000008.html" target="_top" xlink:title="1">
<text text-anchor="middle" x="219.268" y="-118.512" font-family="Helvetica,sans-Serif" font-size="10.00">1</text>
</a>
</g>
<!-- dir_039ef7b09f081299fc574738fdf1e1e8&#45;&gt;dir_bfe264249dd5d020073d1a146b564611 -->
<g id="edge3" class="edge"><title>dir_039ef7b09f081299fc574738fdf1e1e8&#45;&gt;dir_bfe264249dd5d020073d1a146b564611</title>
<path fill="none" stroke="black" d="M40.0476,-71.8314C39.2972,-64.131 39.0763,-54.9743 39.3849,-46.4166"/>
<polygon fill="black" stroke="black" points="42.8792,-46.6161 40.024,-36.4133 35.8935,-46.1697 42.8792,-46.6161"/>
<a xlink:href="dir_000006_000004.html" target="_top" xlink:title="1">
<text text-anchor="middle" x="45.4836" y="-47.8844" font-family="Helvetica,sans-Serif" font-size="10.00">1</text>
</a>
</g>
<!-- dir_bfe264249dd5d020073d1a146b564611&#45;&gt;dir_039ef7b09f081299fc574738fdf1e1e8 -->
<g id="edge5" class="edge"><title>dir_bfe264249dd5d020073d1a146b564611&#45;&gt;dir_039ef7b09f081299fc574738fdf1e1e8</title>
<path fill="none" stroke="black" d="M51.976,-36.4133C52.7071,-44.0593 52.9203,-53.1084 52.6155,-61.5726"/>
<polygon fill="black" stroke="black" points="49.1048,-61.6264 51.9524,-71.8314 56.0902,-62.078 49.1048,-61.6264"/>
<a xlink:href="dir_000004_000006.html" target="_top" xlink:title="2">
<text text-anchor="middle" x="46.5032" y="-55.3562" font-family="Helvetica,sans-Serif" font-size="10.00">2</text>
</a>
</g>
</g>
</svg>
