<?xml version="1.0" encoding="UTF-8" standalone="no"?>
<!DOCTYPE svg PUBLIC "-//W3C//DTD SVG 1.1//EN"
 "http://www.w3.org/Graphics/SVG/1.1/DTD/svg11.dtd">
<!-- Generated by graphviz version 2.26.3 (20100126.1600)
 -->
<!-- Title: input_parameters Pages: 1 -->
<svg width="132pt" height="153pt"
 viewBox="0.00 0.00 132.00 153.00" xmlns="http://www.w3.org/2000/svg" xmlns:xlink="http://www.w3.org/1999/xlink">
<g id="graph1" class="graph" transform="scale(1 1) rotate(0) translate(4 149)">
<title>input_parameters</title>
<polygon fill="white" stroke="white" points="-4,5 -4,-149 129,-149 129,5 -4,5"/>
<g id="graph2" class="cluster"><title>clusterdir_4a4b9f9a898a71f152a99978051a04a6</title>
<a xlink:href="dir_4a4b9f9a898a71f152a99978051a04a6.html" target="_top" xlink:title="blond">
<polygon fill="#ddddee" stroke="black" points="8,-64 8,-137 116,-137 116,-64 8,-64"/>
<text text-anchor="middle" x="62" y="-124" font-family="Helvetica,sans-Serif" font-size="10.00">blond</text>
</a>
</g>
<!-- dir_903239d11b14492f567a0e307153a118 -->
<g id="node2" class="node"><title>dir_903239d11b14492f567a0e307153a118</title>
<a xlink:href="dir_903239d11b14492f567a0e307153a118.html" target="_top" xlink:title="input_parameters">
<polygon fill="#eeeeff" stroke="black" points="108,-108 16,-108 16,-72 108,-72 108,-108"/>
<text text-anchor="middle" x="62" y="-87.5" font-family="Helvetica,sans-Serif" font-size="10.00">input_parameters</text>
</a>
</g>
<!-- dir_0f46bbf322b1c503e543e0bfd6f16d56 -->
<g id="node3" class="node"><title>dir_0f46bbf322b1c503e543e0bfd6f16d56</title>
<a xlink:href="dir_0f46bbf322b1c503e543e0bfd6f16d56.html" target="_top" xlink:title="beams">
<polygon fill="none" stroke="black" points="89,-36 35,-36 35,-1.77636e-14 89,-3.55271e-15 89,-36"/>
<text text-anchor="middle" x="62" y="-15.5" font-family="Helvetica,sans-Serif" font-size="10.00">beams</text>
</a>
</g>
<!-- dir_903239d11b14492f567a0e307153a118&#45;&gt;dir_0f46bbf322b1c503e543e0bfd6f16d56 -->
<g id="edge5" class="edge"><title>dir_903239d11b14492f567a0e307153a118&#45;&gt;dir_0f46bbf322b1c503e543e0bfd6f16d56</title>
<path fill="none" stroke="black" d="M56.0476,-71.8314C55.2972,-64.131 55.0763,-54.9743 55.3849,-46.4166"/>
<polygon fill="black" stroke="black" points="58.8792,-46.6161 56.024,-36.4133 51.8935,-46.1697 58.8792,-46.6161"/>
<a xlink:href="dir_000006_000004.html" target="_top" xlink:title="1">
<text text-anchor="middle" x="61.4836" y="-47.8844" font-family="Helvetica,sans-Serif" font-size="10.00">1</text>
</a>
</g>
<!-- dir_0f46bbf322b1c503e543e0bfd6f16d56&#45;&gt;dir_903239d11b14492f567a0e307153a118 -->
<g id="edge3" class="edge"><title>dir_0f46bbf322b1c503e543e0bfd6f16d56&#45;&gt;dir_903239d11b14492f567a0e307153a118</title>
<path fill="none" stroke="black" d="M67.976,-36.4133C68.7071,-44.0593 68.9203,-53.1084 68.6155,-61.5726"/>
<polygon fill="black" stroke="black" points="65.1048,-61.6264 67.9524,-71.8314 72.0902,-62.078 65.1048,-61.6264"/>
<a xlink:href="dir_000004_000006.html" target="_top" xlink:title="3">
<text text-anchor="middle" x="62.5032" y="-55.3562" font-family="Helvetica,sans-Serif" font-size="10.00">3</text>
</a>
</g>
</g>
</svg>
