<?xml version="1.0" encoding="UTF-8" standalone="no"?>
<!DOCTYPE svg PUBLIC "-//W3C//DTD SVG 1.1//EN"
 "http://www.w3.org/Graphics/SVG/1.1/DTD/svg11.dtd">
<!-- Generated by graphviz version 2.26.3 (20100126.1600)
 -->
<!-- Title: Graphical Class Hierarchy Pages: 1 -->
<svg width="242pt" height="70pt"
 viewBox="0.00 0.00 242.00 70.00" xmlns="http://www.w3.org/2000/svg" xmlns:xlink="http://www.w3.org/1999/xlink">
<g id="graph1" class="graph" transform="scale(1 1) rotate(0) translate(4 66)">
<title>Graphical Class Hierarchy</title>
<polygon fill="white" stroke="white" points="-4,5 -4,-66 239,-66 239,5 -4,5"/>
<!-- Node1 -->
<g id="node1" class="node"><title>Node1</title>
<a xlink:href="da/dd4/classPhaseNoise.html" target="_top" xlink:title="PhaseNoise">
<polygon fill="white" stroke="black" points="0,-20.5 0,-41.5 70,-41.5 70,-20.5 0,-20.5"/>
<text text-anchor="middle" x="35" y="-28.5" font-family="Helvetica,sans-Serif" font-size="10.00">PhaseNoise</text>
</a>
</g>
<!-- Node2 -->
<g id="node3" class="node"><title>Node2</title>
<a xlink:href="d5/d73/classLHCFlatSpectrum.html" target="_top" xlink:title="LHCFlatSpectrum">
<polygon fill="white" stroke="black" points="122.5,-40.5 122.5,-61.5 217.5,-61.5 217.5,-40.5 122.5,-40.5"/>
<text text-anchor="middle" x="170" y="-48.5" font-family="Helvetica,sans-Serif" font-size="10.00">LHCFlatSpectrum</text>
</a>
</g>
<!-- Node1&#45;&gt;Node2 -->
<g id="edge2" class="edge"><title>Node1&#45;&gt;Node2</title>
<path fill="none" stroke="midnightblue" d="M80.1776,-37.693C93.7337,-39.7013 108.643,-41.9101 122.354,-43.9413"/>
<polygon fill="midnightblue" stroke="midnightblue" points="80.5222,-34.2059 70.1172,-36.2026 79.4963,-41.1303 80.5222,-34.2059"/>
</g>
<!-- Node3 -->
<g id="node5" class="node"><title>Node3</title>
<a xlink:href="db/d7b/classPSBPhaseNoiseInjection.html" target="_top" xlink:title="PSBPhaseNoiseInjection">
<polygon fill="white" stroke="black" points="106.5,-0.5 106.5,-21.5 233.5,-21.5 233.5,-0.5 106.5,-0.5"/>
<text text-anchor="middle" x="170" y="-8.5" font-family="Helvetica,sans-Serif" font-size="10.00">PSBPhaseNoiseInjection</text>
</a>
</g>
<!-- Node1&#45;&gt;Node3 -->
<g id="edge4" class="edge"><title>Node1&#45;&gt;Node3</title>
<path fill="none" stroke="midnightblue" d="M80.0799,-24.3215C88.4943,-23.0749 97.4331,-21.7506 106.285,-20.4393"/>
<polygon fill="midnightblue" stroke="midnightblue" points="79.4963,-20.8697 70.1172,-25.7974 80.5222,-27.7941 79.4963,-20.8697"/>
</g>
</g>
</svg>
