<?xml version="1.0" encoding="UTF-8" standalone="no"?>
<!DOCTYPE svg PUBLIC "-//W3C//DTD SVG 1.1//EN"
 "http://www.w3.org/Graphics/SVG/1.1/DTD/svg11.dtd">
<!-- Generated by graphviz version 2.26.3 (20100126.1600)
 -->
<!-- Title: Graphical Class Hierarchy Pages: 1 -->
<svg width="234pt" height="110pt"
 viewBox="0.00 0.00 234.00 110.00" xmlns="http://www.w3.org/2000/svg" xmlns:xlink="http://www.w3.org/1999/xlink">
<g id="graph1" class="graph" transform="scale(1 1) rotate(0) translate(4 106)">
<title>Graphical Class Hierarchy</title>
<polygon fill="white" stroke="white" points="-4,5 -4,-106 231,-106 231,5 -4,5"/>
<!-- Node1 -->
<g id="node1" class="node"><title>Node1</title>
<a xlink:href="dd/de2/classInducedVoltage.html" target="_top" xlink:title="InducedVoltage">
<polygon fill="white" stroke="black" points="0,-40.5 0,-61.5 84,-61.5 84,-40.5 0,-40.5"/>
<text text-anchor="middle" x="42" y="-48.5" font-family="Helvetica,sans-Serif" font-size="10.00">InducedVoltage</text>
</a>
</g>
<!-- Node2 -->
<g id="node3" class="node"><title>Node2</title>
<a xlink:href="d5/de7/classInducedVoltageFreq.html" target="_top" xlink:title="InducedVoltageFreq">
<polygon fill="white" stroke="black" points="121,-80.5 121,-101.5 225,-101.5 225,-80.5 121,-80.5"/>
<text text-anchor="middle" x="173" y="-88.5" font-family="Helvetica,sans-Serif" font-size="10.00">InducedVoltageFreq</text>
</a>
</g>
<!-- Node1&#45;&gt;Node2 -->
<g id="edge2" class="edge"><title>Node1&#45;&gt;Node2</title>
<path fill="none" stroke="midnightblue" d="M86.1515,-64.4814C103.174,-69.6792 122.357,-75.5365 138.356,-80.4218"/>
<polygon fill="midnightblue" stroke="midnightblue" points="87.0049,-61.0825 76.4187,-61.5095 84.9607,-67.7774 87.0049,-61.0825"/>
</g>
<!-- Node3 -->
<g id="node5" class="node"><title>Node3</title>
<a xlink:href="d0/d6b/classInducedVoltageTime.html" target="_top" xlink:title="InducedVoltageTime">
<polygon fill="white" stroke="black" points="120,-40.5 120,-61.5 226,-61.5 226,-40.5 120,-40.5"/>
<text text-anchor="middle" x="173" y="-48.5" font-family="Helvetica,sans-Serif" font-size="10.00">InducedVoltageTime</text>
</a>
</g>
<!-- Node1&#45;&gt;Node3 -->
<g id="edge4" class="edge"><title>Node1&#45;&gt;Node3</title>
<path fill="none" stroke="midnightblue" d="M94.2601,-51C102.688,-51 111.422,-51 119.871,-51"/>
<polygon fill="midnightblue" stroke="midnightblue" points="94.1703,-47.5001 84.1703,-51 94.1703,-54.5001 94.1703,-47.5001"/>
</g>
<!-- Node4 -->
<g id="node7" class="node"><title>Node4</title>
<a xlink:href="d4/dd7/classTotalInducedVoltage.html" target="_top" xlink:title="TotalInducedVoltage">
<polygon fill="white" stroke="black" points="120,-0.5 120,-21.5 226,-21.5 226,-0.5 120,-0.5"/>
<text text-anchor="middle" x="173" y="-8.5" font-family="Helvetica,sans-Serif" font-size="10.00">TotalInducedVoltage</text>
</a>
</g>
<!-- Node1&#45;&gt;Node4 -->
<g id="edge6" class="edge"><title>Node1&#45;&gt;Node4</title>
<path fill="none" stroke="midnightblue" d="M86.1515,-37.5186C103.174,-32.3208 122.357,-26.4635 138.356,-21.5782"/>
<polygon fill="midnightblue" stroke="midnightblue" points="84.9607,-34.2226 76.4187,-40.4905 87.0049,-40.9175 84.9607,-34.2226"/>
</g>
</g>
</svg>
