<?xml version="1.0" encoding="UTF-8" standalone="no"?>
<!DOCTYPE svg PUBLIC "-//W3C//DTD SVG 1.1//EN"
 "http://www.w3.org/Graphics/SVG/1.1/DTD/svg11.dtd">
<!-- Generated by graphviz version 2.26.3 (20100126.1600)
 -->
<!-- Title: matched_from_line_density Pages: 1 -->
<!--zoomable 695 -->
<svg id="main" version="1.1" xmlns="http://www.w3.org/2000/svg" xmlns:xlink="http://www.w3.org/1999/xlink" xml:space="preserve" onload="init(evt)">
        <defs>
                <circle id="rim" cx="0" cy="0" r="7"/>
                <circle id="rim2" cx="0" cy="0" r="3.5"/>
                <g id="zoomPlus">
                        <use xlink:href="#rim" fill="#404040">
                                <set attributeName="fill" to="#808080" begin="zoomplus.mouseover" end="zoomplus.mouseout"/>
                        </use>
                        <path d="M-4,0h8M0,-4v8" fill="none" stroke="white" stroke-width="1.5" pointer-events="none"/>
                </g>
                <g id="zoomMin">
                        <use xlink:href="#rim" fill="#404040">
                                <set attributeName="fill" to="#808080" begin="zoomminus.mouseover" end="zoomminus.mouseout"/>
                        </use>
                        <path d="M-4,0h8" fill="none" stroke="white" stroke-width="1.5" pointer-events="none"/>
                </g>
                <g id="dirArrow">
                        <path fill="none" stroke="white" stroke-width="1.5" d="M0,-3.0v7 M-2.5,-0.5L0,-3.0L2.5,-0.5"/>
                </g>
               <g id="resetDef">
                       <use xlink:href="#rim2" fill="#404040">
                               <set attributeName="fill" to="#808080" begin="reset.mouseover" end="reset.mouseout"/>
                       </use>
               </g>
        </defs>

<script type="text/javascript">
var viewWidth = 1040;
var viewHeight = 695;
var sectionId = 'dynsection-4';
</script>
<script xlink:href="../../svgpan.js"/>
<svg id="graph" class="graph">
<g id="viewport">
<title>matched_from_line_density</title>
<polygon fill="white" stroke="white" points="-4,5 -4,-691 1037,-691 1037,5 -4,5"/>
<!-- Node1 -->
<g id="node1" class="node"><title>Node1</title>
<polygon fill="#bfbfbf" stroke="black" points="0,-343.5 0,-364.5 136,-364.5 136,-343.5 0,-343.5"/>
<text text-anchor="middle" x="68" y="-351.5" font-family="Helvetica,sans-Serif" font-size="10.00">matched_from_line_density</text>
</g>
<!-- Node2 -->
<g id="node3" class="node"><title>Node2</title>
<a xlink:href="../../df/d6d/namespacemymath.html#a604bb4037dc4262bc4a8af03cfbb0bfe" target="_top" xlink:title="mymath::arange">
<polygon fill="white" stroke="black" points="190.5,-665.5 190.5,-686.5 277.5,-686.5 277.5,-665.5 190.5,-665.5"/>
<text text-anchor="middle" x="234" y="-673.5" font-family="Helvetica,sans-Serif" font-size="10.00">mymath::arange</text>
</a>
</g>
<!-- Node1&#45;&gt;Node2 -->
<g id="edge2" class="edge"><title>Node1&#45;&gt;Node2</title>
<path fill="none" stroke="midnightblue" d="M68.6465,-364.523C71.7745,-406.493 88.8204,-563.863 172,-651 175.614,-654.786 179.878,-658.013 184.452,-660.762"/>
<polygon fill="midnightblue" stroke="midnightblue" points="183.051,-663.978 193.539,-665.479 186.276,-657.765 183.051,-663.978"/>
</g>
<!-- Node3 -->
<g id="node5" class="node"><title>Node3</title>
<a xlink:href="../../df/d6d/namespacemymath.html#a37e69ec6da5a044211b293b350ed0df5" target="_top" xlink:title="mymath::cum_trapezoid">
<polygon fill="white" stroke="black" points="332,-471.5 332,-492.5 454,-492.5 454,-471.5 332,-471.5"/>
<text text-anchor="middle" x="393" y="-479.5" font-family="Helvetica,sans-Serif" font-size="10.00">mymath::cum_trapezoid</text>
</a>
</g>
<!-- Node1&#45;&gt;Node3 -->
<g id="edge4" class="edge"><title>Node1&#45;&gt;Node3</title>
<path fill="none" stroke="midnightblue" d="M74.4059,-364.8C88.6291,-387.645 125.308,-440.599 172,-463 218.385,-485.253 276.542,-489.455 321.553,-488.385"/>
<polygon fill="midnightblue" stroke="midnightblue" points="321.942,-491.874 331.821,-488.045 321.71,-484.878 321.942,-491.874"/>
</g>
<!-- Node4 -->
<g id="node7" class="node"><title>Node4</title>
<a xlink:href="../../df/d6d/namespacemymath.html#a46c2185537cdd77f6c5596907ffea994" target="_top" xlink:title="mymath::flatten">
<polygon fill="white" stroke="black" points="191.5,-304.5 191.5,-325.5 276.5,-325.5 276.5,-304.5 191.5,-304.5"/>
<text text-anchor="middle" x="234" y="-312.5" font-family="Helvetica,sans-Serif" font-size="10.00">mymath::flatten</text>
</a>
</g>
<!-- Node1&#45;&gt;Node4 -->
<g id="edge6" class="edge"><title>Node1&#45;&gt;Node4</title>
<path fill="none" stroke="midnightblue" d="M112.922,-343.446C134.072,-338.477 159.433,-332.519 181.467,-327.342"/>
<polygon fill="midnightblue" stroke="midnightblue" points="182.396,-330.719 191.33,-325.025 180.795,-323.905 182.396,-330.719"/>
</g>
<!-- Node5 -->
<g id="node9" class="node"><title>Node5</title>
<a xlink:href="../../df/d6d/namespacemymath.html#a9be6643559654e4fd81774f43bd8cdc0" target="_top" xlink:title="mymath::interp">
<polygon fill="white" stroke="black" points="490,-549.5 490,-570.5 572,-570.5 572,-549.5 490,-549.5"/>
<text text-anchor="middle" x="531" y="-557.5" font-family="Helvetica,sans-Serif" font-size="10.00">mymath::interp</text>
</a>
</g>
<!-- Node1&#45;&gt;Node5 -->
<g id="edge8" class="edge"><title>Node1&#45;&gt;Node5</title>
<path fill="none" stroke="midnightblue" d="M69.427,-364.683C74.8808,-400.812 97.9733,-518.957 172,-569 271.198,-636.06 423.609,-597.436 493.56,-573.956"/>
<polygon fill="midnightblue" stroke="midnightblue" points="494.95,-577.18 503.267,-570.616 492.672,-570.561 494.95,-577.18"/>
</g>
<!-- Node6 -->
<g id="node11" class="node"><title>Node6</title>
<a xlink:href="../../df/d6d/namespacemymath.html#a2a11685fa6ce2396ae977fa1502a2cc4" target="_top" xlink:title="mymath::max">
<polygon fill="white" stroke="black" points="612.5,-549.5 612.5,-570.5 689.5,-570.5 689.5,-549.5 612.5,-549.5"/>
<text text-anchor="middle" x="651" y="-557.5" font-family="Helvetica,sans-Serif" font-size="10.00">mymath::max</text>
</a>
</g>
<!-- Node1&#45;&gt;Node6 -->
<g id="edge18" class="edge"><title>Node1&#45;&gt;Node6</title>
<path fill="none" stroke="midnightblue" d="M68.6928,-364.576C71.8969,-403.898 88.9186,-542.408 172,-601 313.246,-700.612 539.41,-612.241 620.686,-574.831"/>
<polygon fill="midnightblue" stroke="midnightblue" points="622.289,-577.945 629.864,-570.537 619.323,-571.604 622.289,-577.945"/>
</g>
<!-- Node8 -->
<g id="node15" class="node"><title>Node8</title>
<a xlink:href="../../db/de1/Distributions_8cpp.html#a6d6073d940268d94172e059b9b48f99c" target="_top" xlink:title="line_density_function">
<polygon fill="white" stroke="black" points="180,-264.5 180,-285.5 288,-285.5 288,-264.5 180,-264.5"/>
<text text-anchor="middle" x="234" y="-272.5" font-family="Helvetica,sans-Serif" font-size="10.00">line_density_function</text>
</a>
</g>
<!-- Node1&#45;&gt;Node8 -->
<g id="edge14" class="edge"><title>Node1&#45;&gt;Node8</title>
<path fill="none" stroke="midnightblue" d="M84.3865,-343.305C104.431,-330.557 139.692,-309.197 172,-295 176.983,-292.81 182.284,-290.737 187.606,-288.814"/>
<polygon fill="midnightblue" stroke="midnightblue" points="188.836,-292.092 197.147,-285.521 186.552,-285.475 188.836,-292.092"/>
</g>
<!-- Node9 -->
<g id="node17" class="node"><title>Node9</title>
<a xlink:href="../../df/d6d/namespacemymath.html#ae6f0d1529ee101163ab6f5a40dd268f4" target="_top" xlink:title="mymath::linspace">
<polygon fill="white" stroke="black" points="346,-315.5 346,-336.5 440,-336.5 440,-315.5 346,-315.5"/>
<text text-anchor="middle" x="393" y="-323.5" font-family="Helvetica,sans-Serif" font-size="10.00">mymath::linspace</text>
</a>
</g>
<!-- Node1&#45;&gt;Node9 -->
<g id="edge16" class="edge"><title>Node1&#45;&gt;Node9</title>
<path fill="none" stroke="midnightblue" d="M109.228,-364.586C155.575,-374.651 232.629,-385.831 296,-368 314.05,-362.921 314.977,-353.863 332,-346 336.624,-343.864 341.541,-341.854 346.5,-339.991"/>
<polygon fill="midnightblue" stroke="midnightblue" points="347.774,-343.253 356.019,-336.6 345.425,-336.659 347.774,-343.253"/>
</g>
<!-- Node10 -->
<g id="node20" class="node"><title>Node10</title>
<a xlink:href="../../df/d6d/namespacemymath.html#a7e2dd5ac3ea27ff891d733ff22a3df56" target="_top" xlink:title="mymath::meshgrid">
<polygon fill="white" stroke="black" points="185,-224.5 185,-245.5 283,-245.5 283,-224.5 185,-224.5"/>
<text text-anchor="middle" x="234" y="-232.5" font-family="Helvetica,sans-Serif" font-size="10.00">mymath::meshgrid</text>
</a>
</g>
<!-- Node1&#45;&gt;Node10 -->
<g id="edge20" class="edge"><title>Node1&#45;&gt;Node10</title>
<path fill="none" stroke="midnightblue" d="M76.2819,-343.431C92.5351,-323.371 130.646,-279.587 172,-255 175.456,-252.945 179.147,-251.076 182.942,-249.379"/>
<polygon fill="midnightblue" stroke="midnightblue" points="184.553,-252.503 192.514,-245.513 181.931,-246.013 184.553,-252.503"/>
</g>
<!-- Node11 -->
<g id="node22" class="node"><title>Node11</title>
<a xlink:href="../../de/da5/utilities_8cpp.html#a69254a443ce03ae3f136093fff843cae" target="_top" xlink:title="minmax_location">
<polygon fill="white" stroke="black" points="348,-549.5 348,-570.5 438,-570.5 438,-549.5 348,-549.5"/>
<text text-anchor="middle" x="393" y="-557.5" font-family="Helvetica,sans-Serif" font-size="10.00">minmax_location</text>
</a>
</g>
<!-- Node1&#45;&gt;Node11 -->
<g id="edge22" class="edge"><title>Node1&#45;&gt;Node11</title>
<path fill="none" stroke="midnightblue" d="M70.3017,-364.881C77.9519,-398.046 105.889,-498.203 172,-541 221.242,-572.876 290.128,-573.546 337.847,-568.86"/>
<polygon fill="midnightblue" stroke="midnightblue" points="338.432,-572.317 347.993,-567.752 337.672,-565.358 338.432,-572.317"/>
</g>
<!-- Node12 -->
<g id="node25" class="node"><title>Node12</title>
<a xlink:href="../../db/de1/Distributions_8cpp.html#a2bb3b5294fedc5f82a515348a586d417" target="_top" xlink:title="plot_generated_bunch">
<polygon fill="white" stroke="black" points="178,-184.5 178,-205.5 290,-205.5 290,-184.5 178,-184.5"/>
<text text-anchor="middle" x="234" y="-192.5" font-family="Helvetica,sans-Serif" font-size="10.00">plot_generated_bunch</text>
</a>
</g>
<!-- Node1&#45;&gt;Node12 -->
<g id="edge26" class="edge"><title>Node1&#45;&gt;Node12</title>
<path fill="none" stroke="midnightblue" d="M73.1254,-343.166C85.9903,-317.128 122.214,-250.561 172,-215 174.669,-213.094 177.529,-211.362 180.502,-209.791"/>
<polygon fill="midnightblue" stroke="midnightblue" points="182.079,-212.918 189.685,-205.543 179.14,-206.565 182.079,-212.918"/>
</g>
<!-- Node16 -->
<g id="node33" class="node"><title>Node16</title>
<a xlink:href="../../de/da5/utilities_8cpp.html#ab18ed3529eff62c38aca18633f6a7cd1" target="_top" xlink:title="potential_well_cut">
<polygon fill="white" stroke="black" points="186.5,-510.5 186.5,-531.5 281.5,-531.5 281.5,-510.5 186.5,-510.5"/>
<text text-anchor="middle" x="234" y="-518.5" font-family="Helvetica,sans-Serif" font-size="10.00">potential_well_cut</text>
</a>
</g>
<!-- Node1&#45;&gt;Node16 -->
<g id="edge34" class="edge"><title>Node1&#45;&gt;Node16</title>
<path fill="none" stroke="midnightblue" d="M73.2306,-364.842C86.3292,-390.943 123.032,-457.92 172,-496 177.05,-499.928 182.801,-503.323 188.715,-506.233"/>
<polygon fill="midnightblue" stroke="midnightblue" points="187.51,-509.528 198.067,-510.413 190.366,-503.137 187.51,-509.528"/>
</g>
<!-- Node17 -->
<g id="node37" class="node"><title>Node17</title>
<a xlink:href="../../d6/d13/classFullRingAndRf.html#a76ca8401684654596782338b81268ef2" target="_top" xlink:title="FullRingAndRf::potential\l_well_generation">
<polygon fill="white" stroke="black" points="172.5,-420 172.5,-454 295.5,-454 295.5,-420 172.5,-420"/>
<text text-anchor="start" x="180.5" y="-441" font-family="Helvetica,sans-Serif" font-size="10.00">FullRingAndRf::potential</text>
<text text-anchor="middle" x="234" y="-428" font-family="Helvetica,sans-Serif" font-size="10.00">_well_generation</text>
</a>
</g>
<!-- Node1&#45;&gt;Node17 -->
<g id="edge40" class="edge"><title>Node1&#45;&gt;Node17</title>
<path fill="none" stroke="midnightblue" d="M89.024,-364.512C114.433,-377.217 157.847,-398.924 190.56,-415.28"/>
<polygon fill="midnightblue" stroke="midnightblue" points="189.397,-418.612 199.906,-419.953 192.527,-412.351 189.397,-418.612"/>
</g>
<!-- Node25 -->
<g id="node56" class="node"><title>Node25</title>
<a xlink:href="../../df/d6d/namespacemymath.html#a31743e3fc7ec3ccb0df630d0cad57959" target="_top" xlink:title="mymath::sign">
<polygon fill="white" stroke="black" points="355,-275.5 355,-296.5 431,-296.5 431,-275.5 355,-275.5"/>
<text text-anchor="middle" x="393" y="-283.5" font-family="Helvetica,sans-Serif" font-size="10.00">mymath::sign</text>
</a>
</g>
<!-- Node1&#45;&gt;Node25 -->
<g id="edge70" class="edge"><title>Node1&#45;&gt;Node25</title>
<path fill="none" stroke="midnightblue" d="M136.23,-358.591C182.83,-359.294 245.109,-355.364 296,-335 315.075,-327.367 313.945,-315.804 332,-306 336.187,-303.726 340.677,-301.654 345.251,-299.78"/>
<polygon fill="midnightblue" stroke="midnightblue" points="346.576,-303.021 354.69,-296.209 344.099,-296.474 346.576,-303.021"/>
</g>
<!-- Node26 -->
<g id="node59" class="node"><title>Node26</title>
<a xlink:href="../../df/d6d/namespacemymath.html#ada0a7d5b58b157b862416d7aa854b375" target="_top" xlink:title="mymath::random_choice">
<polygon fill="white" stroke="black" points="172,-144.5 172,-165.5 296,-165.5 296,-144.5 172,-144.5"/>
<text text-anchor="middle" x="234" y="-152.5" font-family="Helvetica,sans-Serif" font-size="10.00">mymath::random_choice</text>
</a>
</g>
<!-- Node1&#45;&gt;Node26 -->
<g id="edge66" class="edge"><title>Node1&#45;&gt;Node26</title>
<path fill="none" stroke="midnightblue" d="M71.1743,-343.326C80.8963,-312.47 113.229,-222.356 172,-175 174.081,-173.323 176.305,-171.786 178.63,-170.376"/>
<polygon fill="midnightblue" stroke="midnightblue" points="180.711,-173.241 187.995,-165.548 177.503,-167.02 180.711,-173.241"/>
</g>
<!-- Node27 -->
<g id="node61" class="node"><title>Node27</title>
<a xlink:href="../../d4/dd7/classTotalInducedVoltage.html#aa6a56e9472a574c98871114d05dfea3b" target="_top" xlink:title="TotalInducedVoltage\l::reprocess">
<polygon fill="white" stroke="black" points="181,-92 181,-126 287,-126 287,-92 181,-92"/>
<text text-anchor="start" x="189" y="-113" font-family="Helvetica,sans-Serif" font-size="10.00">TotalInducedVoltage</text>
<text text-anchor="middle" x="234" y="-100" font-family="Helvetica,sans-Serif" font-size="10.00">::reprocess</text>
</a>
</g>
<!-- Node1&#45;&gt;Node27 -->
<g id="edge68" class="edge"><title>Node1&#45;&gt;Node27</title>
<path fill="none" stroke="midnightblue" d="M70.2188,-343.273C77.9491,-308.445 106.852,-197.201 172,-135 173.108,-133.942 174.265,-132.924 175.464,-131.945"/>
<polygon fill="midnightblue" stroke="midnightblue" points="177.715,-134.641 183.892,-126.033 173.695,-128.911 177.715,-134.641"/>
</g>
<!-- Node28 -->
<g id="node64" class="node"><title>Node28</title>
<a xlink:href="../../d6/d72/namespaceutil.html#a14a8aba3310095e612d55c2ea5a4f788" target="_top" xlink:title="util::string_to_double\l_vector">
<polygon fill="white" stroke="black" points="180.5,-40 180.5,-74 287.5,-74 287.5,-40 180.5,-40"/>
<text text-anchor="start" x="188.5" y="-61" font-family="Helvetica,sans-Serif" font-size="10.00">util::string_to_double</text>
<text text-anchor="middle" x="234" y="-48" font-family="Helvetica,sans-Serif" font-size="10.00">_vector</text>
</a>
</g>
<!-- Node1&#45;&gt;Node28 -->
<g id="edge72" class="edge"><title>Node1&#45;&gt;Node28</title>
<path fill="none" stroke="midnightblue" d="M69.1063,-343.347C73.7787,-303.578 95.3418,-162.044 172,-83 172.914,-82.0574 173.868,-81.1474 174.855,-80.269"/>
<polygon fill="midnightblue" stroke="midnightblue" points="177.122,-82.944 183.01,-74.136 172.914,-77.3496 177.122,-82.944"/>
</g>
<!-- Node29 -->
<g id="node66" class="node"><title>Node29</title>
<a xlink:href="../../df/d6d/namespacemymath.html#a3cd62eeb1068e15105a0c617c9cc1fc6" target="_top" xlink:title="mymath::trapezoid">
<polygon fill="white" stroke="black" points="185,-0.5 185,-21.5 283,-21.5 283,-0.5 185,-0.5"/>
<text text-anchor="middle" x="234" y="-8.5" font-family="Helvetica,sans-Serif" font-size="10.00">mymath::trapezoid</text>
</a>
</g>
<!-- Node1&#45;&gt;Node29 -->
<g id="edge74" class="edge"><title>Node1&#45;&gt;Node29</title>
<path fill="none" stroke="midnightblue" d="M70.0774,-343.339C80.1165,-292.815 125.045,-77.9807 172,-31 173.439,-29.5601 174.982,-28.2238 176.608,-26.9836"/>
<polygon fill="midnightblue" stroke="midnightblue" points="178.689,-29.8109 185.322,-21.5497 174.985,-23.8712 178.689,-29.8109"/>
</g>
<!-- Node5&#45;&gt;Node6 -->
<g id="edge10" class="edge"><title>Node5&#45;&gt;Node6</title>
<path fill="none" stroke="midnightblue" d="M572.297,-560C581.958,-560 592.338,-560 602.288,-560"/>
<polygon fill="midnightblue" stroke="midnightblue" points="602.453,-563.5 612.453,-560 602.453,-556.5 602.453,-563.5"/>
</g>
<!-- Node7 -->
<g id="node13" class="node"><title>Node7</title>
<a xlink:href="../../df/d6d/namespacemymath.html#a5bcc40b5ebadd9d98f351775df65ec9f" target="_top" xlink:title="mymath::min">
<polygon fill="white" stroke="black" points="614,-509.5 614,-530.5 688,-530.5 688,-509.5 614,-509.5"/>
<text text-anchor="middle" x="651" y="-517.5" font-family="Helvetica,sans-Serif" font-size="10.00">mymath::min</text>
</a>
</g>
<!-- Node5&#45;&gt;Node7 -->
<g id="edge12" class="edge"><title>Node5&#45;&gt;Node7</title>
<path fill="none" stroke="midnightblue" d="M562.529,-549.49C576.883,-544.706 594.069,-538.977 609.459,-533.847"/>
<polygon fill="midnightblue" stroke="midnightblue" points="610.885,-537.061 619.265,-530.578 608.672,-530.42 610.885,-537.061"/>
</g>
<!-- Node11&#45;&gt;Node5 -->
<g id="edge24" class="edge"><title>Node11&#45;&gt;Node5</title>
<path fill="none" stroke="midnightblue" d="M438.186,-560C451.466,-560 466.087,-560 479.718,-560"/>
<polygon fill="midnightblue" stroke="midnightblue" points="479.911,-563.5 489.911,-560 479.911,-556.5 479.911,-563.5"/>
</g>
<!-- Node13 -->
<g id="node27" class="node"><title>Node13</title>
<a xlink:href="../../de/d4a/namespacepython.html#a713f8b295244715fb64ea92c5b172d33" target="_top" xlink:title="python::import">
<polygon fill="white" stroke="black" points="353.5,-143.5 353.5,-164.5 432.5,-164.5 432.5,-143.5 353.5,-143.5"/>
<text text-anchor="middle" x="393" y="-151.5" font-family="Helvetica,sans-Serif" font-size="10.00">python::import</text>
</a>
</g>
<!-- Node12&#45;&gt;Node13 -->
<g id="edge28" class="edge"><title>Node12&#45;&gt;Node13</title>
<path fill="none" stroke="midnightblue" d="M274.946,-184.441C295.852,-179.051 321.451,-172.45 343.461,-166.774"/>
<polygon fill="midnightblue" stroke="midnightblue" points="344.482,-170.126 353.291,-164.239 342.734,-163.347 344.482,-170.126"/>
</g>
<!-- Node14 -->
<g id="node29" class="node"><title>Node14</title>
<a xlink:href="../../de/d4a/namespacepython.html#a38f56692b4793b00b074fc192783947e" target="_top" xlink:title="python::convert_double\l_array">
<polygon fill="white" stroke="black" points="334,-223 334,-257 452,-257 452,-223 334,-223"/>
<text text-anchor="start" x="342" y="-244" font-family="Helvetica,sans-Serif" font-size="10.00">python::convert_double</text>
<text text-anchor="middle" x="393" y="-231" font-family="Helvetica,sans-Serif" font-size="10.00">_array</text>
</a>
</g>
<!-- Node12&#45;&gt;Node14 -->
<g id="edge30" class="edge"><title>Node12&#45;&gt;Node14</title>
<path fill="none" stroke="midnightblue" d="M271.278,-205.551C287.073,-210.021 305.999,-215.377 324.169,-220.519"/>
<polygon fill="midnightblue" stroke="midnightblue" points="323.294,-223.909 333.869,-223.265 325.2,-217.174 323.294,-223.909"/>
</g>
<!-- Node15 -->
<g id="node31" class="node"><title>Node15</title>
<a xlink:href="../../de/d4a/namespacepython.html#aaed0c03f36b79c4703d003314d78b412" target="_top" xlink:title="python::convert_string">
<polygon fill="white" stroke="black" points="336.5,-183.5 336.5,-204.5 449.5,-204.5 449.5,-183.5 336.5,-183.5"/>
<text text-anchor="middle" x="393" y="-191.5" font-family="Helvetica,sans-Serif" font-size="10.00">python::convert_string</text>
</a>
</g>
<!-- Node12&#45;&gt;Node15 -->
<g id="edge32" class="edge"><title>Node12&#45;&gt;Node15</title>
<path fill="none" stroke="midnightblue" d="M290.057,-194.647C301.792,-194.574 314.276,-194.495 326.352,-194.419"/>
<polygon fill="midnightblue" stroke="midnightblue" points="326.398,-197.919 336.376,-194.356 326.354,-190.919 326.398,-197.919"/>
</g>
<!-- Node16&#45;&gt;Node7 -->
<g id="edge38" class="edge"><title>Node16&#45;&gt;Node7</title>
<path fill="none" stroke="midnightblue" d="M281.835,-520.885C362.195,-520.693 523.347,-520.306 603.489,-520.114"/>
<polygon fill="midnightblue" stroke="midnightblue" points="603.788,-523.613 613.779,-520.089 603.771,-516.613 603.788,-523.613"/>
</g>
<!-- Node16&#45;&gt;Node11 -->
<g id="edge36" class="edge"><title>Node16&#45;&gt;Node11</title>
<path fill="none" stroke="midnightblue" d="M277.028,-531.554C296.471,-536.323 319.63,-542.003 340.121,-547.03"/>
<polygon fill="midnightblue" stroke="midnightblue" points="339.392,-550.455 349.938,-549.438 341.06,-543.656 339.392,-550.455"/>
</g>
<!-- Node17&#45;&gt;Node3 -->
<g id="edge64" class="edge"><title>Node17&#45;&gt;Node3</title>
<path fill="none" stroke="midnightblue" d="M294.111,-454.013C311.298,-458.877 329.773,-464.106 346.048,-468.712"/>
<polygon fill="midnightblue" stroke="midnightblue" points="345.291,-472.135 355.866,-471.49 347.197,-465.399 345.291,-472.135"/>
</g>
<!-- Node17&#45;&gt;Node6 -->
<g id="edge44" class="edge"><title>Node17&#45;&gt;Node6</title>
<path fill="none" stroke="midnightblue" d="M295.867,-438.188C340.612,-440.445 402.078,-446.45 454,-462 527.498,-484.012 538.985,-506.484 608,-540 611.384,-541.643 614.929,-543.337 618.471,-545.011"/>
<polygon fill="midnightblue" stroke="midnightblue" points="617.184,-548.273 627.724,-549.347 620.154,-541.934 617.184,-548.273"/>
</g>
<!-- Node17&#45;&gt;Node7 -->
<g id="edge42" class="edge"><title>Node17&#45;&gt;Node7</title>
<path fill="none" stroke="midnightblue" d="M295.814,-420.021C366.152,-404.12 482.815,-388.321 572,-429 604.002,-443.597 628.042,-478.268 640.777,-500.352"/>
<polygon fill="midnightblue" stroke="midnightblue" points="637.778,-502.162 645.676,-509.224 643.905,-498.778 637.778,-502.162"/>
</g>
<!-- Node17&#45;&gt;Node9 -->
<g id="edge46" class="edge"><title>Node17&#45;&gt;Node9</title>
<path fill="none" stroke="midnightblue" d="M276.454,-419.856C283.439,-415.929 290.261,-411.315 296,-406 318.818,-384.87 307.694,-365.399 332,-346 334.246,-344.208 336.658,-342.573 339.18,-341.084"/>
<polygon fill="midnightblue" stroke="midnightblue" points="340.766,-344.204 348.097,-336.556 337.596,-337.962 340.766,-344.204"/>
</g>
<!-- Node18 -->
<g id="node42" class="node"><title>Node18</title>
<a xlink:href="../../df/d6d/namespacemymath.html#a38897799c9327d162f914bbb097fb8e3" target="_top" xlink:title="mymath::fast_sin">
<polygon fill="white" stroke="black" points="347,-355.5 347,-376.5 439,-376.5 439,-355.5 347,-355.5"/>
<text text-anchor="middle" x="393" y="-363.5" font-family="Helvetica,sans-Serif" font-size="10.00">mymath::fast_sin</text>
</a>
</g>
<!-- Node17&#45;&gt;Node18 -->
<g id="edge48" class="edge"><title>Node17&#45;&gt;Node18</title>
<path fill="none" stroke="midnightblue" d="M269.187,-419.964C287.765,-411.102 311.006,-400.222 332,-391 340.059,-387.46 348.781,-383.791 357.04,-380.389"/>
<polygon fill="midnightblue" stroke="midnightblue" points="358.522,-383.565 366.456,-376.543 355.875,-377.084 358.522,-383.565"/>
</g>
<!-- Node17&#45;&gt;Node25 -->
<g id="edge62" class="edge"><title>Node17&#45;&gt;Node25</title>
<path fill="none" stroke="midnightblue" d="M251.111,-419.982C264.195,-406.511 282.261,-386.882 296,-368 314.748,-342.235 307.239,-326.055 332,-306 336.011,-302.751 340.567,-300.024 345.34,-297.735"/>
<polygon fill="midnightblue" stroke="midnightblue" points="346.803,-300.917 354.699,-293.852 344.121,-294.451 346.803,-300.917"/>
</g>
<!-- Node19 -->
<g id="node44" class="node"><title>Node19</title>
<a xlink:href="../../d5/d7b/namespacevdt.html#a0013dcb44ade5e87e083c6a0daddcfd9" target="_top" xlink:title="Double precision sine: just call sincos.">
<polygon fill="white" stroke="black" points="495.5,-355.5 495.5,-376.5 566.5,-376.5 566.5,-355.5 495.5,-355.5"/>
<text text-anchor="middle" x="531" y="-363.5" font-family="Helvetica,sans-Serif" font-size="10.00">vdt::fast_sin</text>
</a>
</g>
<!-- Node18&#45;&gt;Node19 -->
<g id="edge50" class="edge"><title>Node18&#45;&gt;Node19</title>
<path fill="none" stroke="midnightblue" d="M439.336,-366C454.08,-366 470.377,-366 485.091,-366"/>
<polygon fill="midnightblue" stroke="midnightblue" points="485.48,-369.5 495.48,-366 485.48,-362.5 485.48,-369.5"/>
</g>
<!-- Node20 -->
<g id="node46" class="node"><title>Node20</title>
<a xlink:href="../../d5/d7b/namespacevdt.html#a1993fb5f0f92028ffbf6e853790a0161" target="_top" xlink:title="Double precision sincos.">
<polygon fill="white" stroke="black" points="608,-355.5 608,-376.5 694,-376.5 694,-355.5 608,-355.5"/>
<text text-anchor="middle" x="651" y="-363.5" font-family="Helvetica,sans-Serif" font-size="10.00">vdt::fast_sincos</text>
</a>
</g>
<!-- Node19&#45;&gt;Node20 -->
<g id="edge52" class="edge"><title>Node19&#45;&gt;Node20</title>
<path fill="none" stroke="midnightblue" d="M566.679,-366C576.317,-366 586.962,-366 597.351,-366"/>
<polygon fill="midnightblue" stroke="midnightblue" points="597.607,-369.5 607.607,-366 597.607,-362.5 597.607,-369.5"/>
</g>
<!-- Node21 -->
<g id="node48" class="node"><title>Node21</title>
<a xlink:href="../../d1/d47/namespacevdt_1_1details.html#a50fa4cb8145d71e1867a3d899452fbba" target="_top" xlink:title="Reduce to 0 to 45.">
<polygon fill="white" stroke="black" points="730.5,-378.5 730.5,-399.5 873.5,-399.5 873.5,-378.5 730.5,-378.5"/>
<text text-anchor="middle" x="802" y="-386.5" font-family="Helvetica,sans-Serif" font-size="10.00">vdt::details::reduce2quadrant</text>
</a>
</g>
<!-- Node20&#45;&gt;Node21 -->
<g id="edge54" class="edge"><title>Node20&#45;&gt;Node21</title>
<path fill="none" stroke="midnightblue" d="M694.271,-372.591C703.196,-373.95 712.862,-375.423 722.615,-376.908"/>
<polygon fill="midnightblue" stroke="midnightblue" points="722.369,-380.411 732.782,-378.457 723.423,-373.491 722.369,-380.411"/>
</g>
<!-- Node22 -->
<g id="node50" class="node"><title>Node22</title>
<a xlink:href="../../d1/d47/namespacevdt_1_1details.html#aefa743c10ceb855329b7005d9f353a5d" target="_top" xlink:title="Sincos only for &#45;45deg &lt; x &lt; 45deg.">
<polygon fill="white" stroke="black" points="757,-326 757,-360 847,-360 847,-326 757,-326"/>
<text text-anchor="start" x="765" y="-347" font-family="Helvetica,sans-Serif" font-size="10.00">vdt::details::fast</text>
<text text-anchor="middle" x="802" y="-334" font-family="Helvetica,sans-Serif" font-size="10.00">_sincos_m45_45</text>
</a>
</g>
<!-- Node20&#45;&gt;Node22 -->
<g id="edge56" class="edge"><title>Node20&#45;&gt;Node22</title>
<path fill="none" stroke="midnightblue" d="M694.271,-359.409C710.662,-356.912 729.549,-354.036 746.885,-351.395"/>
<polygon fill="midnightblue" stroke="midnightblue" points="747.524,-354.838 756.883,-349.872 746.47,-347.918 747.524,-354.838"/>
</g>
<!-- Node23 -->
<g id="node52" class="node"><title>Node23</title>
<a xlink:href="../../d1/d47/namespacevdt_1_1details.html#a72ab4125be9fdc73004f1fcec303dea6" target="_top" xlink:title="vdt::details::get_sin_px">
<polygon fill="white" stroke="black" points="912,-352.5 912,-373.5 1030,-373.5 1030,-352.5 912,-352.5"/>
<text text-anchor="middle" x="971" y="-360.5" font-family="Helvetica,sans-Serif" font-size="10.00">vdt::details::get_sin_px</text>
</a>
</g>
<!-- Node22&#45;&gt;Node23 -->
<g id="edge58" class="edge"><title>Node22&#45;&gt;Node23</title>
<path fill="none" stroke="midnightblue" d="M847.289,-348.36C864.036,-350.341 883.422,-352.636 901.809,-354.812"/>
<polygon fill="midnightblue" stroke="midnightblue" points="901.556,-358.306 911.898,-356.006 902.378,-351.355 901.556,-358.306"/>
</g>
<!-- Node24 -->
<g id="node54" class="node"><title>Node24</title>
<a xlink:href="../../d1/d47/namespacevdt_1_1details.html#a2d78ddff70416636dcab4eabcab25c8f" target="_top" xlink:title="vdt::details::get_cos_px">
<polygon fill="white" stroke="black" points="910.5,-312.5 910.5,-333.5 1031.5,-333.5 1031.5,-312.5 910.5,-312.5"/>
<text text-anchor="middle" x="971" y="-320.5" font-family="Helvetica,sans-Serif" font-size="10.00">vdt::details::get_cos_px</text>
</a>
</g>
<!-- Node22&#45;&gt;Node24 -->
<g id="edge60" class="edge"><title>Node22&#45;&gt;Node24</title>
<path fill="none" stroke="midnightblue" d="M847.289,-337.64C863.548,-335.716 882.295,-333.498 900.199,-331.379"/>
<polygon fill="midnightblue" stroke="midnightblue" points="900.807,-334.831 910.327,-330.18 899.984,-327.88 900.807,-334.831"/>
</g>
</g>
</svg>
        <g id="navigator" transform="translate(0 0)" fill="#404254">
                <rect fill="#f2f5e9" fill-opacity="0.5" stroke="#606060" stroke-width=".5" x="0" y="0" width="60" height="60"/>
                <use id="zoomplus" xlink:href="#zoomPlus" x="17" y="9" onmousedown="handleZoom(evt,'in')"/>
                <use id="zoomminus" xlink:href="#zoomMin" x="42" y="9" onmousedown="handleZoom(evt,'out')"/>
                <use id="reset" xlink:href="#resetDef" x="30" y="36" onmousedown="handleReset()"/>
                <g id="arrowUp" xlink:href="#dirArrow" transform="translate(30 24)" onmousedown="handlePan(0,-1)">
                  <use xlink:href="#rim" fill="#404040">
                        <set attributeName="fill" to="#808080" begin="arrowUp.mouseover" end="arrowUp.mouseout"/>
                  </use>
                  <path fill="none" stroke="white" stroke-width="1.5" d="M0,-3.0v7 M-2.5,-0.5L0,-3.0L2.5,-0.5"/>
                </g>
                <g id="arrowRight" xlink:href="#dirArrow" transform="rotate(90) translate(36 -43)" onmousedown="handlePan(1,0)">
                  <use xlink:href="#rim" fill="#404040">
                        <set attributeName="fill" to="#808080" begin="arrowRight.mouseover" end="arrowRight.mouseout"/>
                  </use>
                  <path fill="none" stroke="white" stroke-width="1.5" d="M0,-3.0v7 M-2.5,-0.5L0,-3.0L2.5,-0.5"/>
                </g>
                <g id="arrowDown" xlink:href="#dirArrow" transform="rotate(180) translate(-30 -48)" onmousedown="handlePan(0,1)">
                  <use xlink:href="#rim" fill="#404040">
                        <set attributeName="fill" to="#808080" begin="arrowDown.mouseover" end="arrowDown.mouseout"/>
                  </use>
                  <path fill="none" stroke="white" stroke-width="1.5" d="M0,-3.0v7 M-2.5,-0.5L0,-3.0L2.5,-0.5"/>
                </g>
                <g id="arrowLeft" xlink:href="#dirArrow" transform="rotate(270) translate(-36 17)" onmousedown="handlePan(-1,0)">
                  <use xlink:href="#rim" fill="#404040">
                        <set attributeName="fill" to="#808080" begin="arrowLeft.mouseover" end="arrowLeft.mouseout"/>
                  </use>
                  <path fill="none" stroke="white" stroke-width="1.5" d="M0,-3.0v7 M-2.5,-0.5L0,-3.0L2.5,-0.5"/>
                </g>
        </g>
        <svg viewBox="0 0 15 15" width="100%" height="30px" preserveAspectRatio="xMaxYMin meet">
         <g id="arrow_out" transform="scale(0.3 0.3)">
          <a xlink:href="Distributions_8cpp_a41bc3ce61f4e9f0418a6caa65b25820d_cgraph_org.svg" target="_base">
           <rect id="button" ry="5" rx="5" y="6" x="6" height="38" width="38"
                fill="#f2f5e9" fill-opacity="0.5" stroke="#606060" stroke-width="1.0"/>
           <path id="arrow"
             d="M 11.500037,31.436501 C 11.940474,20.09759 22.043105,11.32322 32.158766,21.979434 L 37.068811,17.246167 C 37.068811,17.246167 37.088388,32 37.088388,32 L 22.160133,31.978069 C 22.160133,31.978069 26.997745,27.140456 26.997745,27.140456 C 18.528582,18.264221 13.291696,25.230495 11.500037,31.436501 z"
             style="fill:#404040;"/>
          </a>
         </g>
        </svg>
</svg>
