<?xml version="1.0" encoding="UTF-8" standalone="no"?>
<!DOCTYPE svg PUBLIC "-//W3C//DTD SVG 1.1//EN"
 "http://www.w3.org/Graphics/SVG/1.1/DTD/svg11.dtd">
<!-- Generated by graphviz version 2.26.3 (20100126.1600)
 -->
<!-- Title: longitudinal_bigaussian Pages: 1 -->
<svg width="1136pt" height="237pt"
 viewBox="0.00 0.00 1136.00 237.00" xmlns="http://www.w3.org/2000/svg" xmlns:xlink="http://www.w3.org/1999/xlink">
<g id="graph1" class="graph" transform="scale(1 1) rotate(0) translate(4 233)">
<title>longitudinal_bigaussian</title>
<polygon fill="white" stroke="white" points="-4,5 -4,-233 1133,-233 1133,5 -4,5"/>
<!-- Node1 -->
<g id="node1" class="node"><title>Node1</title>
<polygon fill="#bfbfbf" stroke="black" points="0.5,-89.5 0.5,-110.5 117.5,-110.5 117.5,-89.5 0.5,-89.5"/>
<text text-anchor="middle" x="59" y="-97.5" font-family="Helvetica,sans-Serif" font-size="10.00">longitudinal_bigaussian</text>
</g>
<!-- Node2 -->
<g id="node3" class="node"><title>Node2</title>
<a xlink:href="../../de/da5/utilities_8cpp.html#abdb8c63453b171d9a2ee00711825c33c" target="_top" xlink:title="is_in_separatrix">
<polygon fill="white" stroke="black" points="176.5,-109.5 176.5,-130.5 261.5,-130.5 261.5,-109.5 176.5,-109.5"/>
<text text-anchor="middle" x="219" y="-117.5" font-family="Helvetica,sans-Serif" font-size="10.00">is_in_separatrix</text>
</a>
</g>
<!-- Node1&#45;&gt;Node2 -->
<g id="edge2" class="edge"><title>Node1&#45;&gt;Node2</title>
<path fill="none" stroke="midnightblue" d="M117.67,-107.334C133.619,-109.327 150.788,-111.474 166.38,-113.422"/>
<polygon fill="midnightblue" stroke="midnightblue" points="166.012,-116.904 176.369,-114.671 166.881,-109.958 166.012,-116.904"/>
</g>
<!-- Node15 -->
<g id="node30" class="node"><title>Node15</title>
<a xlink:href="../../d6/d72/namespaceutil.html#a490b3dd52b27f7d7de8cf81a753b97fa" target="_top" xlink:title="util::read_vector_from_file">
<polygon fill="white" stroke="black" points="154.5,-69.5 154.5,-90.5 283.5,-90.5 283.5,-69.5 154.5,-69.5"/>
<text text-anchor="middle" x="219" y="-77.5" font-family="Helvetica,sans-Serif" font-size="10.00">util::read_vector_from_file</text>
</a>
</g>
<!-- Node1&#45;&gt;Node15 -->
<g id="edge30" class="edge"><title>Node1&#45;&gt;Node15</title>
<path fill="none" stroke="midnightblue" d="M117.67,-92.6663C126.353,-91.5809 135.398,-90.4503 144.353,-89.3309"/>
<polygon fill="midnightblue" stroke="midnightblue" points="144.912,-92.7883 154.401,-88.0749 144.044,-85.8423 144.912,-92.7883"/>
</g>
<!-- Node3 -->
<g id="node5" class="node"><title>Node3</title>
<a xlink:href="../../de/da5/utilities_8cpp.html#a22b3cea36e661181f590b17471e42f38" target="_top" xlink:title="hamiltonian">
<polygon fill="white" stroke="black" points="320,-109.5 320,-130.5 386,-130.5 386,-109.5 320,-109.5"/>
<text text-anchor="middle" x="353" y="-117.5" font-family="Helvetica,sans-Serif" font-size="10.00">hamiltonian</text>
</a>
</g>
<!-- Node2&#45;&gt;Node3 -->
<g id="edge4" class="edge"><title>Node2&#45;&gt;Node3</title>
<path fill="none" stroke="midnightblue" d="M261.767,-120C277.076,-120 294.336,-120 309.691,-120"/>
<polygon fill="midnightblue" stroke="midnightblue" points="309.969,-123.5 319.969,-120 309.969,-116.5 309.969,-123.5"/>
</g>
<!-- Node4 -->
<g id="node7" class="node"><title>Node4</title>
<a xlink:href="../../da/d49/classRfParameters.html#a4b2692022b8cb71a3475e964fcc0c474" target="_top" xlink:title="RfParameters::eta_tracking">
<polygon fill="white" stroke="black" points="422.5,-207.5 422.5,-228.5 559.5,-228.5 559.5,-207.5 422.5,-207.5"/>
<text text-anchor="middle" x="491" y="-215.5" font-family="Helvetica,sans-Serif" font-size="10.00">RfParameters::eta_tracking</text>
</a>
</g>
<!-- Node3&#45;&gt;Node4 -->
<g id="edge6" class="edge"><title>Node3&#45;&gt;Node4</title>
<path fill="none" stroke="midnightblue" d="M359.457,-130.543C370.29,-147.343 393.739,-180.11 422,-198 425.191,-200.02 428.593,-201.842 432.11,-203.484"/>
<polygon fill="midnightblue" stroke="midnightblue" points="431.05,-206.833 441.628,-207.426 433.728,-200.366 431.05,-206.833"/>
</g>
<!-- Node5 -->
<g id="node9" class="node"><title>Node5</title>
<a xlink:href="../../de/d44/trackers_2utilities_8h.html#a9e21d0f7015cfb95d271ecb0d0531f13" target="_top" xlink:title="phase_modulo_below\l_transition">
<polygon fill="white" stroke="black" points="436,-155 436,-189 546,-189 546,-155 436,-155"/>
<text text-anchor="start" x="444" y="-176" font-family="Helvetica,sans-Serif" font-size="10.00">phase_modulo_below</text>
<text text-anchor="middle" x="491" y="-163" font-family="Helvetica,sans-Serif" font-size="10.00">_transition</text>
</a>
</g>
<!-- Node3&#45;&gt;Node5 -->
<g id="edge8" class="edge"><title>Node3&#45;&gt;Node5</title>
<path fill="none" stroke="midnightblue" d="M380.926,-130.523C396.827,-136.514 417.303,-144.23 436.273,-151.378"/>
<polygon fill="midnightblue" stroke="midnightblue" points="435.138,-154.691 445.73,-154.942 437.606,-148.14 435.138,-154.691"/>
</g>
<!-- Node6 -->
<g id="node11" class="node"><title>Node6</title>
<a xlink:href="../../de/d44/trackers_2utilities_8h.html#a138356080609cce92babac6fb4e12657" target="_top" xlink:title="phase_modulo_above\l_transition">
<polygon fill="white" stroke="black" points="435.5,-103 435.5,-137 546.5,-137 546.5,-103 435.5,-103"/>
<text text-anchor="start" x="443.5" y="-124" font-family="Helvetica,sans-Serif" font-size="10.00">phase_modulo_above</text>
<text text-anchor="middle" x="491" y="-111" font-family="Helvetica,sans-Serif" font-size="10.00">_transition</text>
</a>
</g>
<!-- Node3&#45;&gt;Node6 -->
<g id="edge10" class="edge"><title>Node3&#45;&gt;Node6</title>
<path fill="none" stroke="midnightblue" d="M386.054,-120C397.81,-120 411.496,-120 425.027,-120"/>
<polygon fill="midnightblue" stroke="midnightblue" points="425.309,-123.5 435.309,-120 425.309,-116.5 425.309,-123.5"/>
</g>
<!-- Node7 -->
<g id="node13" class="node"><title>Node7</title>
<a xlink:href="../../df/d6d/namespacemymath.html#a56db34e8382851729defc7a3eb906220" target="_top" xlink:title="mymath::fast_cos">
<polygon fill="white" stroke="black" points="443.5,-63.5 443.5,-84.5 538.5,-84.5 538.5,-63.5 443.5,-63.5"/>
<text text-anchor="middle" x="491" y="-71.5" font-family="Helvetica,sans-Serif" font-size="10.00">mymath::fast_cos</text>
</a>
</g>
<!-- Node3&#45;&gt;Node7 -->
<g id="edge12" class="edge"><title>Node3&#45;&gt;Node7</title>
<path fill="none" stroke="midnightblue" d="M379.696,-109.384C392.422,-104.467 407.91,-98.6887 422,-94 428.599,-91.8039 435.598,-89.6156 442.508,-87.5358"/>
<polygon fill="midnightblue" stroke="midnightblue" points="443.916,-90.7695 452.513,-84.5781 441.931,-84.0567 443.916,-90.7695"/>
</g>
<!-- Node14 -->
<g id="node27" class="node"><title>Node14</title>
<a xlink:href="../../df/d6d/namespacemymath.html#a38897799c9327d162f914bbb097fb8e3" target="_top" xlink:title="mymath::fast_sin">
<polygon fill="white" stroke="black" points="445,-23.5 445,-44.5 537,-44.5 537,-23.5 445,-23.5"/>
<text text-anchor="middle" x="491" y="-31.5" font-family="Helvetica,sans-Serif" font-size="10.00">mymath::fast_sin</text>
</a>
</g>
<!-- Node3&#45;&gt;Node14 -->
<g id="edge26" class="edge"><title>Node3&#45;&gt;Node14</title>
<path fill="none" stroke="midnightblue" d="M361.193,-109.455C373.061,-94.884 396.432,-68.7292 422,-54 426.171,-51.5972 430.652,-49.4643 435.256,-47.5746"/>
<polygon fill="midnightblue" stroke="midnightblue" points="436.658,-50.7876 444.817,-44.0286 434.224,-44.2245 436.658,-50.7876"/>
</g>
<!-- Node8 -->
<g id="node15" class="node"><title>Node8</title>
<a xlink:href="../../d5/d7b/namespacevdt.html#a0013dcb44ade5e87e083c6a0daddcfd9" target="_top" xlink:title="Double precision sine: just call sincos.">
<polygon fill="white" stroke="black" points="596.5,-43.5 596.5,-64.5 667.5,-64.5 667.5,-43.5 596.5,-43.5"/>
<text text-anchor="middle" x="632" y="-51.5" font-family="Helvetica,sans-Serif" font-size="10.00">vdt::fast_sin</text>
</a>
</g>
<!-- Node7&#45;&gt;Node8 -->
<g id="edge14" class="edge"><title>Node7&#45;&gt;Node8</title>
<path fill="none" stroke="midnightblue" d="M538.736,-67.2289C554.056,-65.0559 570.982,-62.6551 586.162,-60.5018"/>
<polygon fill="midnightblue" stroke="midnightblue" points="586.942,-63.9263 596.351,-59.0565 585.959,-56.9957 586.942,-63.9263"/>
</g>
<!-- Node9 -->
<g id="node17" class="node"><title>Node9</title>
<a xlink:href="../../d5/d7b/namespacevdt.html#a1993fb5f0f92028ffbf6e853790a0161" target="_top" xlink:title="Double precision sincos.">
<polygon fill="white" stroke="black" points="704,-43.5 704,-64.5 790,-64.5 790,-43.5 704,-43.5"/>
<text text-anchor="middle" x="747" y="-51.5" font-family="Helvetica,sans-Serif" font-size="10.00">vdt::fast_sincos</text>
</a>
</g>
<!-- Node8&#45;&gt;Node9 -->
<g id="edge16" class="edge"><title>Node8&#45;&gt;Node9</title>
<path fill="none" stroke="midnightblue" d="M667.756,-54C676.002,-54 684.948,-54 693.759,-54"/>
<polygon fill="midnightblue" stroke="midnightblue" points="693.992,-57.5001 703.992,-54 693.992,-50.5001 693.992,-57.5001"/>
</g>
<!-- Node10 -->
<g id="node19" class="node"><title>Node10</title>
<a xlink:href="../../d1/d47/namespacevdt_1_1details.html#a50fa4cb8145d71e1867a3d899452fbba" target="_top" xlink:title="Reduce to 0 to 45.">
<polygon fill="white" stroke="black" points="826.5,-66.5 826.5,-87.5 969.5,-87.5 969.5,-66.5 826.5,-66.5"/>
<text text-anchor="middle" x="898" y="-74.5" font-family="Helvetica,sans-Serif" font-size="10.00">vdt::details::reduce2quadrant</text>
</a>
</g>
<!-- Node9&#45;&gt;Node10 -->
<g id="edge18" class="edge"><title>Node9&#45;&gt;Node10</title>
<path fill="none" stroke="midnightblue" d="M790.271,-60.5909C799.196,-61.9505 808.862,-63.4227 818.615,-64.9082"/>
<polygon fill="midnightblue" stroke="midnightblue" points="818.369,-68.4111 828.782,-66.4569 819.423,-61.4909 818.369,-68.4111"/>
</g>
<!-- Node11 -->
<g id="node21" class="node"><title>Node11</title>
<a xlink:href="../../d1/d47/namespacevdt_1_1details.html#aefa743c10ceb855329b7005d9f353a5d" target="_top" xlink:title="Sincos only for &#45;45deg &lt; x &lt; 45deg.">
<polygon fill="white" stroke="black" points="853,-14 853,-48 943,-48 943,-14 853,-14"/>
<text text-anchor="start" x="861" y="-35" font-family="Helvetica,sans-Serif" font-size="10.00">vdt::details::fast</text>
<text text-anchor="middle" x="898" y="-22" font-family="Helvetica,sans-Serif" font-size="10.00">_sincos_m45_45</text>
</a>
</g>
<!-- Node9&#45;&gt;Node11 -->
<g id="edge20" class="edge"><title>Node9&#45;&gt;Node11</title>
<path fill="none" stroke="midnightblue" d="M790.271,-47.4091C806.662,-44.9124 825.549,-42.0356 842.885,-39.395"/>
<polygon fill="midnightblue" stroke="midnightblue" points="843.524,-42.8381 852.883,-37.8722 842.47,-35.918 843.524,-42.8381"/>
</g>
<!-- Node12 -->
<g id="node23" class="node"><title>Node12</title>
<a xlink:href="../../d1/d47/namespacevdt_1_1details.html#a72ab4125be9fdc73004f1fcec303dea6" target="_top" xlink:title="vdt::details::get_sin_px">
<polygon fill="white" stroke="black" points="1008,-40.5 1008,-61.5 1126,-61.5 1126,-40.5 1008,-40.5"/>
<text text-anchor="middle" x="1067" y="-48.5" font-family="Helvetica,sans-Serif" font-size="10.00">vdt::details::get_sin_px</text>
</a>
</g>
<!-- Node11&#45;&gt;Node12 -->
<g id="edge22" class="edge"><title>Node11&#45;&gt;Node12</title>
<path fill="none" stroke="midnightblue" d="M943.289,-36.3596C960.036,-38.3415 979.422,-40.6358 997.809,-42.8117"/>
<polygon fill="midnightblue" stroke="midnightblue" points="997.556,-46.3061 1007.9,-44.0056 998.378,-39.3546 997.556,-46.3061"/>
</g>
<!-- Node13 -->
<g id="node25" class="node"><title>Node13</title>
<a xlink:href="../../d1/d47/namespacevdt_1_1details.html#a2d78ddff70416636dcab4eabcab25c8f" target="_top" xlink:title="vdt::details::get_cos_px">
<polygon fill="white" stroke="black" points="1006.5,-0.5 1006.5,-21.5 1127.5,-21.5 1127.5,-0.5 1006.5,-0.5"/>
<text text-anchor="middle" x="1067" y="-8.5" font-family="Helvetica,sans-Serif" font-size="10.00">vdt::details::get_cos_px</text>
</a>
</g>
<!-- Node11&#45;&gt;Node13 -->
<g id="edge24" class="edge"><title>Node11&#45;&gt;Node13</title>
<path fill="none" stroke="midnightblue" d="M943.289,-25.6404C959.548,-23.7163 978.295,-21.4977 996.199,-19.3788"/>
<polygon fill="midnightblue" stroke="midnightblue" points="996.807,-22.8314 1006.33,-18.1803 995.984,-15.8799 996.807,-22.8314"/>
</g>
<!-- Node14&#45;&gt;Node8 -->
<g id="edge28" class="edge"><title>Node14&#45;&gt;Node8</title>
<path fill="none" stroke="midnightblue" d="M537.169,-40.5487C552.981,-42.7916 570.654,-45.2985 586.419,-47.5347"/>
<polygon fill="midnightblue" stroke="midnightblue" points="586.073,-51.0205 596.465,-48.9596 587.056,-44.0898 586.073,-51.0205"/>
</g>
</g>
</svg>
