<?xml version="1.0" encoding="UTF-8" standalone="no"?>
<!DOCTYPE svg PUBLIC "-//W3C//DTD SVG 1.1//EN"
 "http://www.w3.org/Graphics/SVG/1.1/DTD/svg11.dtd">
<!-- Generated by graphviz version 2.26.3 (20100126.1600)
 -->
<!-- Title: distribution_density_function Pages: 1 -->
<svg width="332pt" height="42pt"
 viewBox="0.00 0.00 332.00 42.00" xmlns="http://www.w3.org/2000/svg" xmlns:xlink="http://www.w3.org/1999/xlink">
<g id="graph1" class="graph" transform="scale(1 1) rotate(0) translate(4 38)">
<title>distribution_density_function</title>
<polygon fill="white" stroke="white" points="-4,5 -4,-38 329,-38 329,5 -4,5"/>
<!-- Node1 -->
<g id="node1" class="node"><title>Node1</title>
<polygon fill="#bfbfbf" stroke="black" points="0.5,-0 0.5,-34 101.5,-34 101.5,-0 0.5,-0"/>
<text text-anchor="start" x="8.5" y="-21" font-family="Helvetica,sans-Serif" font-size="10.00">distribution_density</text>
<text text-anchor="middle" x="51" y="-8" font-family="Helvetica,sans-Serif" font-size="10.00">_function</text>
</g>
<!-- Node2 -->
<g id="node3" class="node"><title>Node2</title>
<a xlink:href="../../db/de1/Distributions_8cpp.html#a71ac4b7e67dc4e456b3cdeb2dc28c1a5" target="_top" xlink:title="distribution_density\l_function">
<polygon fill="white" stroke="black" points="138.5,-0 138.5,-34 239.5,-34 239.5,-0 138.5,-0"/>
<text text-anchor="start" x="146.5" y="-21" font-family="Helvetica,sans-Serif" font-size="10.00">distribution_density</text>
<text text-anchor="middle" x="189" y="-8" font-family="Helvetica,sans-Serif" font-size="10.00">_function</text>
</a>
</g>
<!-- Node1&#45;&gt;Node2 -->
<g id="edge2" class="edge"><title>Node1&#45;&gt;Node2</title>
<path fill="none" stroke="midnightblue" d="M101.603,-17C110.228,-17 119.266,-17 128.124,-17"/>
<polygon fill="midnightblue" stroke="midnightblue" points="128.404,-20.5001 138.404,-17 128.404,-13.5001 128.404,-20.5001"/>
</g>
<!-- Node3 -->
<g id="node5" class="node"><title>Node3</title>
<a xlink:href="../../da/d30/vector__math_8h.html#afb2484611b26c333e3a00f3dac1e5f99" target="_top" xlink:title="apply_f">
<polygon fill="white" stroke="black" points="276,-6.5 276,-27.5 324,-27.5 324,-6.5 276,-6.5"/>
<text text-anchor="middle" x="300" y="-14.5" font-family="Helvetica,sans-Serif" font-size="10.00">apply_f</text>
</a>
</g>
<!-- Node2&#45;&gt;Node3 -->
<g id="edge4" class="edge"><title>Node2&#45;&gt;Node3</title>
<path fill="none" stroke="midnightblue" d="M239.628,-17C248.472,-17 257.483,-17 265.753,-17"/>
<polygon fill="midnightblue" stroke="midnightblue" points="265.763,-20.5001 275.763,-17 265.763,-13.5001 265.763,-20.5001"/>
</g>
</g>
</svg>
