<?xml version="1.0" encoding="UTF-8" standalone="no"?>
<!DOCTYPE svg PUBLIC "-//W3C//DTD SVG 1.1//EN"
 "http://www.w3.org/Graphics/SVG/1.1/DTD/svg11.dtd">
<!-- Generated by graphviz version 2.26.3 (20100126.1600)
 -->
<!-- Title: option::Stats::add Pages: 1 -->
<svg width="426pt" height="150pt"
 viewBox="0.00 0.00 426.00 150.00" xmlns="http://www.w3.org/2000/svg" xmlns:xlink="http://www.w3.org/1999/xlink">
<g id="graph1" class="graph" transform="scale(1 1) rotate(0) translate(4 146)">
<title>option::Stats::add</title>
<polygon fill="white" stroke="white" points="-4,5 -4,-146 423,-146 423,5 -4,5"/>
<!-- Node1 -->
<g id="node1" class="node"><title>Node1</title>
<polygon fill="#bfbfbf" stroke="black" points="0,-60.5 0,-81.5 94,-81.5 94,-60.5 0,-60.5"/>
<text text-anchor="middle" x="47" y="-68.5" font-family="Helvetica,sans-Serif" font-size="10.00">option::Stats::add</text>
</g>
<!-- Node2 -->
<g id="node3" class="node"><title>Node2</title>
<a xlink:href="../../d6/d83/classoption_1_1Parser.html#ab8c03a700a6f350bba434b3482a6563b" target="_top" xlink:title="option::Parser::workhorse">
<polygon fill="white" stroke="black" points="130,-60.5 130,-81.5 258,-81.5 258,-60.5 130,-60.5"/>
<text text-anchor="middle" x="194" y="-68.5" font-family="Helvetica,sans-Serif" font-size="10.00">option::Parser::workhorse</text>
</a>
</g>
<!-- Node1&#45;&gt;Node2 -->
<g id="edge2" class="edge"><title>Node1&#45;&gt;Node2</title>
<path fill="none" stroke="midnightblue" d="M94.3209,-71C102.465,-71 111.102,-71 119.753,-71"/>
<polygon fill="midnightblue" stroke="midnightblue" points="119.886,-74.5001 129.886,-71 119.886,-67.5001 119.886,-74.5001"/>
</g>
<!-- Node3 -->
<g id="node5" class="node"><title>Node3</title>
<a xlink:href="../../d6/d83/classoption_1_1Parser.html#aadfd08a040c5eac5bc09356071a28e49" target="_top" xlink:title="option::Parser::instr">
<polygon fill="white" stroke="black" points="305,-120.5 305,-141.5 407,-141.5 407,-120.5 305,-120.5"/>
<text text-anchor="middle" x="356" y="-128.5" font-family="Helvetica,sans-Serif" font-size="10.00">option::Parser::instr</text>
</a>
</g>
<!-- Node2&#45;&gt;Node3 -->
<g id="edge4" class="edge"><title>Node2&#45;&gt;Node3</title>
<path fill="none" stroke="midnightblue" d="M218.887,-81.5059C239.01,-89.8668 268.145,-101.671 294,-111 299.865,-113.116 306.078,-115.248 312.219,-117.291"/>
<polygon fill="midnightblue" stroke="midnightblue" points="311.155,-120.626 321.748,-120.413 313.335,-113.974 311.155,-120.626"/>
</g>
<!-- Node4 -->
<g id="node7" class="node"><title>Node4</title>
<a xlink:href="../../d6/d83/classoption_1_1Parser.html#a50028a8c1f78607119e164ba8059018c" target="_top" xlink:title="option::Parser::shift">
<polygon fill="white" stroke="black" points="305,-80.5 305,-101.5 407,-101.5 407,-80.5 305,-80.5"/>
<text text-anchor="middle" x="356" y="-88.5" font-family="Helvetica,sans-Serif" font-size="10.00">option::Parser::shift</text>
</a>
</g>
<!-- Node2&#45;&gt;Node4 -->
<g id="edge6" class="edge"><title>Node2&#45;&gt;Node4</title>
<path fill="none" stroke="midnightblue" d="M258.027,-78.9045C270.187,-80.4058 282.882,-81.9731 294.948,-83.4627"/>
<polygon fill="midnightblue" stroke="midnightblue" points="294.555,-86.9407 304.909,-84.6925 295.413,-79.9935 294.555,-86.9407"/>
</g>
<!-- Node5 -->
<g id="node9" class="node"><title>Node5</title>
<a xlink:href="../../d6/d83/classoption_1_1Parser.html#ab1638764142e2789b552b8cc3196e365" target="_top" xlink:title="option::Parser::streq">
<polygon fill="white" stroke="black" points="303.5,-40.5 303.5,-61.5 408.5,-61.5 408.5,-40.5 303.5,-40.5"/>
<text text-anchor="middle" x="356" y="-48.5" font-family="Helvetica,sans-Serif" font-size="10.00">option::Parser::streq</text>
</a>
</g>
<!-- Node2&#45;&gt;Node5 -->
<g id="edge8" class="edge"><title>Node2&#45;&gt;Node5</title>
<path fill="none" stroke="midnightblue" d="M258.027,-63.0955C269.655,-61.6598 281.773,-60.1639 293.361,-58.7333"/>
<polygon fill="midnightblue" stroke="midnightblue" points="293.886,-62.195 303.382,-57.496 293.029,-55.2477 293.886,-62.195"/>
</g>
<!-- Node6 -->
<g id="node11" class="node"><title>Node6</title>
<a xlink:href="../../d6/d83/classoption_1_1Parser.html#abcdbe5be641eb3586a0602a4189dc913" target="_top" xlink:title="option::Parser::streqabbr">
<polygon fill="white" stroke="black" points="294,-0.5 294,-21.5 418,-21.5 418,-0.5 294,-0.5"/>
<text text-anchor="middle" x="356" y="-8.5" font-family="Helvetica,sans-Serif" font-size="10.00">option::Parser::streqabbr</text>
</a>
</g>
<!-- Node2&#45;&gt;Node6 -->
<g id="edge10" class="edge"><title>Node2&#45;&gt;Node6</title>
<path fill="none" stroke="midnightblue" d="M218.887,-60.4941C239.01,-52.1332 268.145,-40.3289 294,-31 299.865,-28.884 306.078,-26.7519 312.219,-24.7088"/>
<polygon fill="midnightblue" stroke="midnightblue" points="313.335,-28.0264 321.748,-21.5865 311.155,-21.3744 313.335,-28.0264"/>
</g>
</g>
</svg>
