<?xml version="1.0" encoding="UTF-8" standalone="no"?>
<!DOCTYPE svg PUBLIC "-//W3C//DTD SVG 1.1//EN"
 "http://www.w3.org/Graphics/SVG/1.1/DTD/svg11.dtd">
<!-- Generated by graphviz version 2.26.3 (20100126.1600)
 -->
<!-- Title: blond::InducedVoltageTime::sum_wakes Pages: 1 -->
<svg width="316pt" height="94pt"
 viewBox="0.00 0.00 316.00 94.00" xmlns="http://www.w3.org/2000/svg" xmlns:xlink="http://www.w3.org/1999/xlink">
<g id="graph1" class="graph" transform="scale(1 1) rotate(0) translate(4 90)">
<title>blond::InducedVoltageTime::sum_wakes</title>
<polygon fill="white" stroke="white" points="-4,5 -4,-90 313,-90 313,5 -4,5"/>
<!-- Node1 -->
<g id="node1" class="node"><title>Node1</title>
<polygon fill="#bfbfbf" stroke="black" points="0.5,-26 0.5,-60 135.5,-60 135.5,-26 0.5,-26"/>
<text text-anchor="start" x="8.5" y="-47" font-family="Helvetica,sans-Serif" font-size="10.00">blond::InducedVoltageTime</text>
<text text-anchor="middle" x="68" y="-34" font-family="Helvetica,sans-Serif" font-size="10.00">::sum_wakes</text>
</g>
<!-- Node2 -->
<g id="node3" class="node"><title>Node2</title>
<a xlink:href="../../db/de7/classblond_1_1InducedVoltageTime.html#a2fe4f53ea9bf27fa1b96edf5667e2574" target="_top" xlink:title="blond::InducedVoltageTime\l::InducedVoltageTime">
<polygon fill="white" stroke="black" points="172.5,-52 172.5,-86 307.5,-86 307.5,-52 172.5,-52"/>
<text text-anchor="start" x="180.5" y="-73" font-family="Helvetica,sans-Serif" font-size="10.00">blond::InducedVoltageTime</text>
<text text-anchor="middle" x="240" y="-60" font-family="Helvetica,sans-Serif" font-size="10.00">::InducedVoltageTime</text>
</a>
</g>
<!-- Node1&#45;&gt;Node2 -->
<g id="edge2" class="edge"><title>Node1&#45;&gt;Node2</title>
<path fill="none" stroke="midnightblue" d="M146.134,-54.811C154.846,-56.1279 163.666,-57.4611 172.233,-58.7562"/>
<polygon fill="midnightblue" stroke="midnightblue" points="146.39,-51.3099 135.979,-53.2759 145.343,-58.2313 146.39,-51.3099"/>
</g>
<!-- Node3 -->
<g id="node5" class="node"><title>Node3</title>
<a xlink:href="../../db/de7/classblond_1_1InducedVoltageTime.html#a9280ee5b2b2a8630827c74ac429e23d4" target="_top" xlink:title="blond::InducedVoltageTime\l::reprocess">
<polygon fill="white" stroke="black" points="172.5,-0 172.5,-34 307.5,-34 307.5,-0 172.5,-0"/>
<text text-anchor="start" x="180.5" y="-21" font-family="Helvetica,sans-Serif" font-size="10.00">blond::InducedVoltageTime</text>
<text text-anchor="middle" x="240" y="-8" font-family="Helvetica,sans-Serif" font-size="10.00">::reprocess</text>
</a>
</g>
<!-- Node1&#45;&gt;Node3 -->
<g id="edge4" class="edge"><title>Node1&#45;&gt;Node3</title>
<path fill="none" stroke="midnightblue" d="M146.134,-31.189C154.846,-29.8721 163.666,-28.5389 172.233,-27.2438"/>
<polygon fill="midnightblue" stroke="midnightblue" points="145.343,-27.7687 135.979,-32.7241 146.39,-34.6901 145.343,-27.7687"/>
</g>
</g>
</svg>
