<?xml version="1.0" encoding="UTF-8" standalone="no"?>
<!DOCTYPE svg PUBLIC "-//W3C//DTD SVG 1.1//EN"
 "http://www.w3.org/Graphics/SVG/1.1/DTD/svg11.dtd">
<!-- Generated by graphviz version 2.26.3 (20100126.1600)
 -->
<!-- Title: blond::InducedVoltageTime::induced_voltage_generation Pages: 1 -->
<!--zoomable 162 -->
<svg id="main" version="1.1" xmlns="http://www.w3.org/2000/svg" xmlns:xlink="http://www.w3.org/1999/xlink" xml:space="preserve" onload="init(evt)">
        <defs>
                <circle id="rim" cx="0" cy="0" r="7"/>
                <circle id="rim2" cx="0" cy="0" r="3.5"/>
                <g id="zoomPlus">
                        <use xlink:href="#rim" fill="#404040">
                                <set attributeName="fill" to="#808080" begin="zoomplus.mouseover" end="zoomplus.mouseout"/>
                        </use>
                        <path d="M-4,0h8M0,-4v8" fill="none" stroke="white" stroke-width="1.5" pointer-events="none"/>
                </g>
                <g id="zoomMin">
                        <use xlink:href="#rim" fill="#404040">
                                <set attributeName="fill" to="#808080" begin="zoomminus.mouseover" end="zoomminus.mouseout"/>
                        </use>
                        <path d="M-4,0h8" fill="none" stroke="white" stroke-width="1.5" pointer-events="none"/>
                </g>
                <g id="dirArrow">
                        <path fill="none" stroke="white" stroke-width="1.5" d="M0,-3.0v7 M-2.5,-0.5L0,-3.0L2.5,-0.5"/>
                </g>
               <g id="resetDef">
                       <use xlink:href="#rim2" fill="#404040">
                               <set attributeName="fill" to="#808080" begin="reset.mouseover" end="reset.mouseout"/>
                       </use>
               </g>
        </defs>

<script type="text/javascript">
var viewWidth = 878;
var viewHeight = 162;
var sectionId = 'dynsection-4';
</script>
<script xlink:href="../../svgpan.js"/>
<svg id="graph" class="graph">
<g id="viewport">
<title>blond::InducedVoltageTime::induced_voltage_generation</title>
<polygon fill="white" stroke="white" points="-4,5 -4,-158 875,-158 875,5 -4,5"/>
<!-- Node1 -->
<g id="node1" class="node"><title>Node1</title>
<polygon fill="#bfbfbf" stroke="black" points="0.5,-69 0.5,-103 143.5,-103 143.5,-69 0.5,-69"/>
<text text-anchor="start" x="8.5" y="-90" font-family="Helvetica,sans-Serif" font-size="10.00">blond::InducedVoltageTime</text>
<text text-anchor="middle" x="72" y="-77" font-family="Helvetica,sans-Serif" font-size="10.00">::induced_voltage_generation</text>
</g>
<!-- Node2 -->
<g id="node3" class="node"><title>Node2</title>
<a xlink:href="../../dc/d3e/namespaceblond_1_1mymath.html#a44dec96d72ff005f8cf90f5fafe48928" target="_top" xlink:title="blond::mymath::convolution">
<polygon fill="white" stroke="black" points="180.5,-98.5 180.5,-119.5 317.5,-119.5 317.5,-98.5 180.5,-98.5"/>
<text text-anchor="middle" x="249" y="-106.5" font-family="Helvetica,sans-Serif" font-size="10.00">blond::mymath::convolution</text>
</a>
</g>
<!-- Node1&#45;&gt;Node2 -->
<g id="edge2" class="edge"><title>Node1&#45;&gt;Node2</title>
<path fill="none" stroke="midnightblue" d="M143.738,-95.3218C152.51,-96.4618 161.511,-97.6314 170.378,-98.7836"/>
<polygon fill="midnightblue" stroke="midnightblue" points="169.945,-102.257 180.313,-100.075 170.847,-95.315 169.945,-102.257"/>
</g>
<!-- Node3 -->
<g id="node5" class="node"><title>Node3</title>
<a xlink:href="../../d3/d4e/namespaceblond_1_1fft.html#a6e134220d8959b84a08cbe724ce65f2c" target="_top" xlink:title="blond::fft::convolution\l_with_ffts">
<polygon fill="white" stroke="black" points="194,-46 194,-80 304,-80 304,-46 194,-46"/>
<text text-anchor="start" x="202" y="-67" font-family="Helvetica,sans-Serif" font-size="10.00">blond::fft::convolution</text>
<text text-anchor="middle" x="249" y="-54" font-family="Helvetica,sans-Serif" font-size="10.00">_with_ffts</text>
</a>
</g>
<!-- Node1&#45;&gt;Node3 -->
<g id="edge4" class="edge"><title>Node1&#45;&gt;Node3</title>
<path fill="none" stroke="midnightblue" d="M143.738,-76.6782C156.894,-74.9685 170.564,-73.1922 183.526,-71.5079"/>
<polygon fill="midnightblue" stroke="midnightblue" points="184.28,-74.9394 193.746,-70.1799 183.378,-67.9978 184.28,-74.9394"/>
</g>
<!-- Node4 -->
<g id="node7" class="node"><title>Node4</title>
<a xlink:href="../../d3/d4e/namespaceblond_1_1fft.html#aab55a4741fafe3a1bbbce2db72a7930c" target="_top" xlink:title="blond::fft::rfft">
<polygon fill="white" stroke="black" points="371.5,-52.5 371.5,-73.5 444.5,-73.5 444.5,-52.5 371.5,-52.5"/>
<text text-anchor="middle" x="408" y="-60.5" font-family="Helvetica,sans-Serif" font-size="10.00">blond::fft::rfft</text>
</a>
</g>
<!-- Node3&#45;&gt;Node4 -->
<g id="edge6" class="edge"><title>Node3&#45;&gt;Node4</title>
<path fill="none" stroke="midnightblue" d="M304.164,-63C322.759,-63 343.319,-63 361.205,-63"/>
<polygon fill="midnightblue" stroke="midnightblue" points="361.391,-66.5001 371.391,-63 361.391,-59.5001 361.391,-66.5001"/>
</g>
<!-- Node11 -->
<g id="node21" class="node"><title>Node11</title>
<a xlink:href="../../d5/d60/namespaceblond.html#a4b29fc0875cbcb04033fee03ac0fa989" target="_top" xlink:title="blond::omp_get_max\l_threads">
<polygon fill="white" stroke="black" points="354.5,-0 354.5,-34 461.5,-34 461.5,-0 354.5,-0"/>
<text text-anchor="start" x="362.5" y="-21" font-family="Helvetica,sans-Serif" font-size="10.00">blond::omp_get_max</text>
<text text-anchor="middle" x="408" y="-8" font-family="Helvetica,sans-Serif" font-size="10.00">_threads</text>
</a>
</g>
<!-- Node3&#45;&gt;Node11 -->
<g id="edge20" class="edge"><title>Node3&#45;&gt;Node11</title>
<path fill="none" stroke="midnightblue" d="M304.164,-47.0405C317.228,-43.2611 331.262,-39.201 344.657,-35.3257"/>
<polygon fill="midnightblue" stroke="midnightblue" points="345.641,-38.6845 354.275,-32.5432 343.696,-31.9602 345.641,-38.6845"/>
</g>
<!-- Node12 -->
<g id="node23" class="node"><title>Node12</title>
<a xlink:href="../../d3/d4e/namespaceblond_1_1fft.html#af47bde766cda6e8d4d10abe619840306" target="_top" xlink:title="blond::fft::irfft">
<polygon fill="white" stroke="black" points="370.5,-92.5 370.5,-113.5 445.5,-113.5 445.5,-92.5 370.5,-92.5"/>
<text text-anchor="middle" x="408" y="-100.5" font-family="Helvetica,sans-Serif" font-size="10.00">blond::fft::irfft</text>
</a>
</g>
<!-- Node3&#45;&gt;Node12 -->
<g id="edge22" class="edge"><title>Node3&#45;&gt;Node12</title>
<path fill="none" stroke="midnightblue" d="M304.164,-76.8778C322.459,-81.4802 342.656,-86.5613 360.337,-91.0093"/>
<polygon fill="midnightblue" stroke="midnightblue" points="359.871,-94.5011 370.423,-93.5467 361.579,-87.7127 359.871,-94.5011"/>
</g>
<!-- Node5 -->
<g id="node9" class="node"><title>Node5</title>
<a xlink:href="../../d3/d4e/namespaceblond_1_1fft.html#a4d694b9a511d426d61f827ae67867af0" target="_top" xlink:title="blond::fft::find_plan">
<polygon fill="white" stroke="black" points="498,-92.5 498,-113.5 598,-113.5 598,-92.5 498,-92.5"/>
<text text-anchor="middle" x="548" y="-100.5" font-family="Helvetica,sans-Serif" font-size="10.00">blond::fft::find_plan</text>
</a>
</g>
<!-- Node4&#45;&gt;Node5 -->
<g id="edge8" class="edge"><title>Node4&#45;&gt;Node5</title>
<path fill="none" stroke="midnightblue" d="M444.783,-73.5095C462.089,-78.454 482.92,-84.4058 501.324,-89.6639"/>
<polygon fill="midnightblue" stroke="midnightblue" points="500.399,-93.0398 510.976,-92.4218 502.323,-86.3092 500.399,-93.0398"/>
</g>
<!-- Node10 -->
<g id="node19" class="node"><title>Node10</title>
<a xlink:href="../../d3/d4e/namespaceblond_1_1fft.html#ae51b67b43753656e0abcdbbeb847dc6d" target="_top" xlink:title="blond::fft::run_fft">
<polygon fill="white" stroke="black" points="503.5,-52.5 503.5,-73.5 592.5,-73.5 592.5,-52.5 503.5,-52.5"/>
<text text-anchor="middle" x="548" y="-60.5" font-family="Helvetica,sans-Serif" font-size="10.00">blond::fft::run_fft</text>
</a>
</g>
<!-- Node4&#45;&gt;Node10 -->
<g id="edge18" class="edge"><title>Node4&#45;&gt;Node10</title>
<path fill="none" stroke="midnightblue" d="M444.783,-63C459.537,-63 476.853,-63 493.043,-63"/>
<polygon fill="midnightblue" stroke="midnightblue" points="493.481,-66.5001 503.481,-63 493.481,-59.5001 493.481,-66.5001"/>
</g>
<!-- Node6 -->
<g id="node11" class="node"><title>Node6</title>
<a xlink:href="../../d3/d4e/namespaceblond_1_1fft.html#a35b440b10540932759ed4717efff2ff0" target="_top" xlink:title="blond::fft::init_fft">
<polygon fill="white" stroke="black" points="637,-132.5 637,-153.5 725,-153.5 725,-132.5 637,-132.5"/>
<text text-anchor="middle" x="681" y="-140.5" font-family="Helvetica,sans-Serif" font-size="10.00">blond::fft::init_fft</text>
</a>
</g>
<!-- Node5&#45;&gt;Node6 -->
<g id="edge10" class="edge"><title>Node5&#45;&gt;Node6</title>
<path fill="none" stroke="midnightblue" d="M582.944,-113.51C599.157,-118.386 618.628,-124.241 635.931,-129.445"/>
<polygon fill="midnightblue" stroke="midnightblue" points="635.243,-132.893 645.827,-132.422 637.259,-126.19 635.243,-132.893"/>
</g>
<!-- Node8 -->
<g id="node15" class="node"><title>Node8</title>
<a xlink:href="../../d3/d4e/namespaceblond_1_1fft.html#a513059305dbf73b667991950c11cc4ba" target="_top" xlink:title="blond::fft::init_rfft">
<polygon fill="white" stroke="black" points="635.5,-92.5 635.5,-113.5 726.5,-113.5 726.5,-92.5 635.5,-92.5"/>
<text text-anchor="middle" x="681" y="-100.5" font-family="Helvetica,sans-Serif" font-size="10.00">blond::fft::init_rfft</text>
</a>
</g>
<!-- Node5&#45;&gt;Node8 -->
<g id="edge14" class="edge"><title>Node5&#45;&gt;Node8</title>
<path fill="none" stroke="midnightblue" d="M598.282,-103C607.154,-103 616.436,-103 625.443,-103"/>
<polygon fill="midnightblue" stroke="midnightblue" points="625.459,-106.5 635.459,-103 625.459,-99.5001 625.459,-106.5"/>
</g>
<!-- Node9 -->
<g id="node17" class="node"><title>Node9</title>
<a xlink:href="../../d3/d4e/namespaceblond_1_1fft.html#a03d82dcc1442ea1299b83874ced97f19" target="_top" xlink:title="blond::fft::init_irfft">
<polygon fill="white" stroke="black" points="634.5,-52.5 634.5,-73.5 727.5,-73.5 727.5,-52.5 634.5,-52.5"/>
<text text-anchor="middle" x="681" y="-60.5" font-family="Helvetica,sans-Serif" font-size="10.00">blond::fft::init_irfft</text>
</a>
</g>
<!-- Node5&#45;&gt;Node9 -->
<g id="edge16" class="edge"><title>Node5&#45;&gt;Node9</title>
<path fill="none" stroke="midnightblue" d="M582.944,-92.4905C599.157,-87.6144 618.628,-81.7585 635.931,-76.5546"/>
<polygon fill="midnightblue" stroke="midnightblue" points="637.259,-79.8101 645.827,-73.5782 635.243,-73.1067 637.259,-79.8101"/>
</g>
<!-- Node7 -->
<g id="node13" class="node"><title>Node7</title>
<a xlink:href="../../dc/d3e/namespaceblond_1_1mymath.html#a571019da04b332a0d4981d4357050fa1" target="_top" xlink:title="blond::mymath::sign">
<polygon fill="white" stroke="black" points="764.5,-132.5 764.5,-153.5 869.5,-153.5 869.5,-132.5 764.5,-132.5"/>
<text text-anchor="middle" x="817" y="-140.5" font-family="Helvetica,sans-Serif" font-size="10.00">blond::mymath::sign</text>
</a>
</g>
<!-- Node6&#45;&gt;Node7 -->
<g id="edge12" class="edge"><title>Node6&#45;&gt;Node7</title>
<path fill="none" stroke="midnightblue" d="M725.155,-143C734.366,-143 744.244,-143 753.986,-143"/>
<polygon fill="midnightblue" stroke="midnightblue" points="754.054,-146.5 764.054,-143 754.054,-139.5 754.054,-146.5"/>
</g>
<!-- Node12&#45;&gt;Node5 -->
<g id="edge24" class="edge"><title>Node12&#45;&gt;Node5</title>
<path fill="none" stroke="midnightblue" d="M445.517,-103C458.487,-103 473.369,-103 487.698,-103"/>
<polygon fill="midnightblue" stroke="midnightblue" points="487.999,-106.5 497.999,-103 487.999,-99.5001 487.999,-106.5"/>
</g>
<!-- Node12&#45;&gt;Node10 -->
<g id="edge26" class="edge"><title>Node12&#45;&gt;Node10</title>
<path fill="none" stroke="midnightblue" d="M444.783,-92.4905C462.089,-87.546 482.92,-81.5942 501.324,-76.3361"/>
<polygon fill="midnightblue" stroke="midnightblue" points="502.323,-79.6908 510.976,-73.5782 500.399,-72.9602 502.323,-79.6908"/>
</g>
</g>
</svg>
        <g id="navigator" transform="translate(0 0)" fill="#404254">
                <rect fill="#f2f5e9" fill-opacity="0.5" stroke="#606060" stroke-width=".5" x="0" y="0" width="60" height="60"/>
                <use id="zoomplus" xlink:href="#zoomPlus" x="17" y="9" onmousedown="handleZoom(evt,'in')"/>
                <use id="zoomminus" xlink:href="#zoomMin" x="42" y="9" onmousedown="handleZoom(evt,'out')"/>
                <use id="reset" xlink:href="#resetDef" x="30" y="36" onmousedown="handleReset()"/>
                <g id="arrowUp" xlink:href="#dirArrow" transform="translate(30 24)" onmousedown="handlePan(0,-1)">
                  <use xlink:href="#rim" fill="#404040">
                        <set attributeName="fill" to="#808080" begin="arrowUp.mouseover" end="arrowUp.mouseout"/>
                  </use>
                  <path fill="none" stroke="white" stroke-width="1.5" d="M0,-3.0v7 M-2.5,-0.5L0,-3.0L2.5,-0.5"/>
                </g>
                <g id="arrowRight" xlink:href="#dirArrow" transform="rotate(90) translate(36 -43)" onmousedown="handlePan(1,0)">
                  <use xlink:href="#rim" fill="#404040">
                        <set attributeName="fill" to="#808080" begin="arrowRight.mouseover" end="arrowRight.mouseout"/>
                  </use>
                  <path fill="none" stroke="white" stroke-width="1.5" d="M0,-3.0v7 M-2.5,-0.5L0,-3.0L2.5,-0.5"/>
                </g>
                <g id="arrowDown" xlink:href="#dirArrow" transform="rotate(180) translate(-30 -48)" onmousedown="handlePan(0,1)">
                  <use xlink:href="#rim" fill="#404040">
                        <set attributeName="fill" to="#808080" begin="arrowDown.mouseover" end="arrowDown.mouseout"/>
                  </use>
                  <path fill="none" stroke="white" stroke-width="1.5" d="M0,-3.0v7 M-2.5,-0.5L0,-3.0L2.5,-0.5"/>
                </g>
                <g id="arrowLeft" xlink:href="#dirArrow" transform="rotate(270) translate(-36 17)" onmousedown="handlePan(-1,0)">
                  <use xlink:href="#rim" fill="#404040">
                        <set attributeName="fill" to="#808080" begin="arrowLeft.mouseover" end="arrowLeft.mouseout"/>
                  </use>
                  <path fill="none" stroke="white" stroke-width="1.5" d="M0,-3.0v7 M-2.5,-0.5L0,-3.0L2.5,-0.5"/>
                </g>
        </g>
        <svg viewBox="0 0 15 15" width="100%" height="30px" preserveAspectRatio="xMaxYMin meet">
         <g id="arrow_out" transform="scale(0.3 0.3)">
          <a xlink:href="classblond_1_1InducedVoltageTime_a40304e836dcf242c889cd46751e25c88_cgraph_org.svg" target="_base">
           <rect id="button" ry="5" rx="5" y="6" x="6" height="38" width="38"
                fill="#f2f5e9" fill-opacity="0.5" stroke="#606060" stroke-width="1.0"/>
           <path id="arrow"
             d="M 11.500037,31.436501 C 11.940474,20.09759 22.043105,11.32322 32.158766,21.979434 L 37.068811,17.246167 C 37.068811,17.246167 37.088388,32 37.088388,32 L 22.160133,31.978069 C 22.160133,31.978069 26.997745,27.140456 26.997745,27.140456 C 18.528582,18.264221 13.291696,25.230495 11.500037,31.436501 z"
             style="fill:#404040;"/>
          </a>
         </g>
        </svg>
</svg>
