<?xml version="1.0" encoding="UTF-8" standalone="no"?>
<!DOCTYPE svg PUBLIC "-//W3C//DTD SVG 1.1//EN"
 "http://www.w3.org/Graphics/SVG/1.1/DTD/svg11.dtd">
<!-- Generated by graphviz version 2.26.3 (20100126.1600)
 -->
<!-- Title: blond::LHCNoiseFB::fwhm_interpolation Pages: 1 -->
<svg width="410pt" height="94pt"
 viewBox="0.00 0.00 410.00 94.00" xmlns="http://www.w3.org/2000/svg" xmlns:xlink="http://www.w3.org/1999/xlink">
<g id="graph1" class="graph" transform="scale(1 1) rotate(0) translate(4 90)">
<title>blond::LHCNoiseFB::fwhm_interpolation</title>
<polygon fill="white" stroke="white" points="-4,5 -4,-90 407,-90 407,5 -4,5"/>
<!-- Node1 -->
<g id="node1" class="node"><title>Node1</title>
<polygon fill="#bfbfbf" stroke="black" points="0,-26 0,-60 110,-60 110,-26 0,-26"/>
<text text-anchor="start" x="8" y="-47" font-family="Helvetica,sans-Serif" font-size="10.00">blond::LHCNoiseFB::</text>
<text text-anchor="middle" x="55" y="-34" font-family="Helvetica,sans-Serif" font-size="10.00">fwhm_interpolation</text>
</g>
<!-- Node2 -->
<g id="node3" class="node"><title>Node2</title>
<a xlink:href="../../d7/d8d/classblond_1_1LHCNoiseFB.html#a1f4261d97326d23f1f980cd2adc3d2be" target="_top" xlink:title="blond::LHCNoiseFB::\lfwhm_multi_bunch">
<polygon fill="white" stroke="black" points="146,-52 146,-86 256,-86 256,-52 146,-52"/>
<text text-anchor="start" x="154" y="-73" font-family="Helvetica,sans-Serif" font-size="10.00">blond::LHCNoiseFB::</text>
<text text-anchor="middle" x="201" y="-60" font-family="Helvetica,sans-Serif" font-size="10.00">fwhm_multi_bunch</text>
</a>
</g>
<!-- Node1&#45;&gt;Node2 -->
<g id="edge2" class="edge"><title>Node1&#45;&gt;Node2</title>
<path fill="none" stroke="midnightblue" d="M120.131,-54.5987C128.676,-56.1204 137.366,-57.6679 145.726,-59.1566"/>
<polygon fill="midnightblue" stroke="midnightblue" points="120.655,-51.137 110.196,-52.8295 119.428,-58.0286 120.655,-51.137"/>
</g>
<!-- Node4 -->
<g id="node7" class="node"><title>Node4</title>
<a xlink:href="../../d7/d8d/classblond_1_1LHCNoiseFB.html#a06601d6fb2617658517590f0c5ca9ff8" target="_top" xlink:title="blond::LHCNoiseFB::\lfwhm_single_bunch">
<polygon fill="white" stroke="black" points="146,-0 146,-34 256,-34 256,-0 146,-0"/>
<text text-anchor="start" x="154" y="-21" font-family="Helvetica,sans-Serif" font-size="10.00">blond::LHCNoiseFB::</text>
<text text-anchor="middle" x="201" y="-8" font-family="Helvetica,sans-Serif" font-size="10.00">fwhm_single_bunch</text>
</a>
</g>
<!-- Node1&#45;&gt;Node4 -->
<g id="edge6" class="edge"><title>Node1&#45;&gt;Node4</title>
<path fill="none" stroke="midnightblue" d="M120.131,-31.4013C128.676,-29.8796 137.366,-28.3321 145.726,-26.8434"/>
<polygon fill="midnightblue" stroke="midnightblue" points="119.428,-27.9714 110.196,-33.1705 120.655,-34.863 119.428,-27.9714"/>
</g>
<!-- Node3 -->
<g id="node5" class="node"><title>Node3</title>
<a xlink:href="../../d7/d8d/classblond_1_1LHCNoiseFB.html#a200019c2d3e3ea77870f95dca0142d35" target="_top" xlink:title="blond::LHCNoiseFB::\lLHCNoiseFB">
<polygon fill="white" stroke="black" points="292,-26 292,-60 402,-60 402,-26 292,-26"/>
<text text-anchor="start" x="300" y="-47" font-family="Helvetica,sans-Serif" font-size="10.00">blond::LHCNoiseFB::</text>
<text text-anchor="middle" x="347" y="-34" font-family="Helvetica,sans-Serif" font-size="10.00">LHCNoiseFB</text>
</a>
</g>
<!-- Node2&#45;&gt;Node3 -->
<g id="edge4" class="edge"><title>Node2&#45;&gt;Node3</title>
<path fill="none" stroke="midnightblue" d="M266.131,-57.4013C274.676,-55.8796 283.366,-54.3321 291.726,-52.8434"/>
<polygon fill="midnightblue" stroke="midnightblue" points="265.428,-53.9714 256.196,-59.1705 266.655,-60.863 265.428,-53.9714"/>
</g>
<!-- Node4&#45;&gt;Node3 -->
<g id="edge8" class="edge"><title>Node4&#45;&gt;Node3</title>
<path fill="none" stroke="midnightblue" d="M266.131,-28.5987C274.676,-30.1204 283.366,-31.6679 291.726,-33.1566"/>
<polygon fill="midnightblue" stroke="midnightblue" points="266.655,-25.137 256.196,-26.8295 265.428,-32.0286 266.655,-25.137"/>
</g>
</g>
</svg>
