<?xml version="1.0" encoding="UTF-8" standalone="no"?>
<!DOCTYPE svg PUBLIC "-//W3C//DTD SVG 1.1//EN"
 "http://www.w3.org/Graphics/SVG/1.1/DTD/svg11.dtd">
<!-- Generated by graphviz version 2.26.3 (20100126.1600)
 -->
<!-- Title: blond::LHCNoiseFB::fwhm_multi_bunch Pages: 1 -->
<svg width="408pt" height="82pt"
 viewBox="0.00 0.00 408.00 82.00" xmlns="http://www.w3.org/2000/svg" xmlns:xlink="http://www.w3.org/1999/xlink">
<g id="graph1" class="graph" transform="scale(1 1) rotate(0) translate(4 78)">
<title>blond::LHCNoiseFB::fwhm_multi_bunch</title>
<polygon fill="white" stroke="white" points="-4,5 -4,-78 405,-78 405,5 -4,5"/>
<!-- Node1 -->
<g id="node1" class="node"><title>Node1</title>
<polygon fill="#bfbfbf" stroke="black" points="0,-17 0,-51 110,-51 110,-17 0,-17"/>
<text text-anchor="start" x="8" y="-38" font-family="Helvetica,sans-Serif" font-size="10.00">blond::LHCNoiseFB::</text>
<text text-anchor="middle" x="55" y="-25" font-family="Helvetica,sans-Serif" font-size="10.00">fwhm_multi_bunch</text>
</g>
<!-- Node2 -->
<g id="node3" class="node"><title>Node2</title>
<a xlink:href="../../d7/d8d/classblond_1_1LHCNoiseFB.html#ab08738c2c4ca453ae8514067c5333ab9" target="_top" xlink:title="blond::LHCNoiseFB::\lfwhm_interpolation">
<polygon fill="white" stroke="black" points="147,-40 147,-74 257,-74 257,-40 147,-40"/>
<text text-anchor="start" x="155" y="-61" font-family="Helvetica,sans-Serif" font-size="10.00">blond::LHCNoiseFB::</text>
<text text-anchor="middle" x="202" y="-48" font-family="Helvetica,sans-Serif" font-size="10.00">fwhm_interpolation</text>
</a>
</g>
<!-- Node1&#45;&gt;Node2 -->
<g id="edge2" class="edge"><title>Node1&#45;&gt;Node2</title>
<path fill="none" stroke="midnightblue" d="M110.156,-42.6298C118.798,-43.9819 127.801,-45.3906 136.645,-46.7744"/>
<polygon fill="midnightblue" stroke="midnightblue" points="136.114,-50.2339 146.535,-48.3218 137.197,-43.318 136.114,-50.2339"/>
</g>
<!-- Node3 -->
<g id="node5" class="node"><title>Node3</title>
<a xlink:href="../../dc/d3e/namespaceblond_1_1mymath.html#aa68c909c903cc3dcebbcbc0aea962e05" target="_top" xlink:title="blond::mymath::mean">
<polygon fill="white" stroke="black" points="146.5,-0.5 146.5,-21.5 257.5,-21.5 257.5,-0.5 146.5,-0.5"/>
<text text-anchor="middle" x="202" y="-8.5" font-family="Helvetica,sans-Serif" font-size="10.00">blond::mymath::mean</text>
</a>
</g>
<!-- Node1&#45;&gt;Node3 -->
<g id="edge4" class="edge"><title>Node1&#45;&gt;Node3</title>
<path fill="none" stroke="midnightblue" d="M110.156,-25.3702C118.588,-24.0509 127.364,-22.6778 136,-21.3265"/>
<polygon fill="midnightblue" stroke="midnightblue" points="136.707,-24.7586 146.046,-19.7548 135.625,-17.8427 136.707,-24.7586"/>
</g>
<!-- Node4 -->
<g id="node7" class="node"><title>Node4</title>
<a xlink:href="../../dc/d3e/namespaceblond_1_1mymath.html#ae5e33c74478fa3d59ff0513645639781" target="_top" xlink:title="blond::mymath::sum">
<polygon fill="white" stroke="black" points="294,-0.5 294,-21.5 400,-21.5 400,-0.5 294,-0.5"/>
<text text-anchor="middle" x="347" y="-8.5" font-family="Helvetica,sans-Serif" font-size="10.00">blond::mymath::sum</text>
</a>
</g>
<!-- Node3&#45;&gt;Node4 -->
<g id="edge6" class="edge"><title>Node3&#45;&gt;Node4</title>
<path fill="none" stroke="midnightblue" d="M257.646,-11C266.142,-11 274.964,-11 283.611,-11"/>
<polygon fill="midnightblue" stroke="midnightblue" points="283.651,-14.5001 293.651,-11 283.651,-7.5001 283.651,-14.5001"/>
</g>
</g>
</svg>
