<?xml version="1.0" encoding="UTF-8" standalone="no"?>
<!DOCTYPE svg PUBLIC "-//W3C//DTD SVG 1.1//EN"
 "http://www.w3.org/Graphics/SVG/1.1/DTD/svg11.dtd">
<!-- Generated by graphviz version 2.26.3 (20100126.1600)
 -->
<!-- Title: blond::vdt::details::fast_sincos_m45_45 Pages: 1 -->
<svg width="252pt" height="94pt"
 viewBox="0.00 0.00 252.00 94.00" xmlns="http://www.w3.org/2000/svg" xmlns:xlink="http://www.w3.org/1999/xlink">
<g id="graph1" class="graph" transform="scale(1 1) rotate(0) translate(4 90)">
<title>blond::vdt::details::fast_sincos_m45_45</title>
<polygon fill="white" stroke="white" points="-4,5 -4,-90 249,-90 249,5 -4,5"/>
<!-- Node1 -->
<g id="node1" class="node"><title>Node1</title>
<polygon fill="#bfbfbf" stroke="black" points="0.5,-26 0.5,-60 113.5,-60 113.5,-26 0.5,-26"/>
<text text-anchor="start" x="8.5" y="-47" font-family="Helvetica,sans-Serif" font-size="10.00">blond::vdt::details</text>
<text text-anchor="middle" x="57" y="-34" font-family="Helvetica,sans-Serif" font-size="10.00">::fast_sincos_m45_45</text>
</g>
<!-- Node2 -->
<g id="node3" class="node"><title>Node2</title>
<a xlink:href="../../d0/dad/namespaceblond_1_1vdt_1_1details.html#acf4c8cd4999c31bee56232ac4edc2d73" target="_top" xlink:title="blond::vdt::details\l::get_cos_px">
<polygon fill="white" stroke="black" points="150,-52 150,-86 244,-86 244,-52 150,-52"/>
<text text-anchor="start" x="158" y="-73" font-family="Helvetica,sans-Serif" font-size="10.00">blond::vdt::details</text>
<text text-anchor="middle" x="197" y="-60" font-family="Helvetica,sans-Serif" font-size="10.00">::get_cos_px</text>
</a>
</g>
<!-- Node1&#45;&gt;Node2 -->
<g id="edge2" class="edge"><title>Node1&#45;&gt;Node2</title>
<path fill="none" stroke="midnightblue" d="M113.54,-53.5003C122.158,-55.1008 131.059,-56.7538 139.693,-58.3573"/>
<polygon fill="midnightblue" stroke="midnightblue" points="139.203,-61.8261 149.674,-60.2109 140.481,-54.9437 139.203,-61.8261"/>
</g>
<!-- Node3 -->
<g id="node5" class="node"><title>Node3</title>
<a xlink:href="../../d0/dad/namespaceblond_1_1vdt_1_1details.html#aeb1305422832914b75f04731bea5e04d" target="_top" xlink:title="blond::vdt::details\l::get_sin_px">
<polygon fill="white" stroke="black" points="150,-0 150,-34 244,-34 244,-0 150,-0"/>
<text text-anchor="start" x="158" y="-21" font-family="Helvetica,sans-Serif" font-size="10.00">blond::vdt::details</text>
<text text-anchor="middle" x="197" y="-8" font-family="Helvetica,sans-Serif" font-size="10.00">::get_sin_px</text>
</a>
</g>
<!-- Node1&#45;&gt;Node3 -->
<g id="edge4" class="edge"><title>Node1&#45;&gt;Node3</title>
<path fill="none" stroke="midnightblue" d="M113.54,-32.4997C122.158,-30.8992 131.059,-29.2462 139.693,-27.6427"/>
<polygon fill="midnightblue" stroke="midnightblue" points="140.481,-31.0563 149.674,-25.7891 139.203,-24.1739 140.481,-31.0563"/>
</g>
</g>
</svg>
