<?xml version="1.0" encoding="UTF-8" standalone="no"?>
<!DOCTYPE svg PUBLIC "-//W3C//DTD SVG 1.1//EN"
 "http://www.w3.org/Graphics/SVG/1.1/DTD/svg11.dtd">
<!-- Generated by graphviz version 2.26.3 (20100126.1600)
 -->
<!-- Title: PhaseLoop.h Pages: 1 -->
<!--zoomable 204 -->
<svg id="main" version="1.1" xmlns="http://www.w3.org/2000/svg" xmlns:xlink="http://www.w3.org/1999/xlink" xml:space="preserve" onload="init(evt)">
        <defs>
                <circle id="rim" cx="0" cy="0" r="7"/>
                <circle id="rim2" cx="0" cy="0" r="3.5"/>
                <g id="zoomPlus">
                        <use xlink:href="#rim" fill="#404040">
                                <set attributeName="fill" to="#808080" begin="zoomplus.mouseover" end="zoomplus.mouseout"/>
                        </use>
                        <path d="M-4,0h8M0,-4v8" fill="none" stroke="white" stroke-width="1.5" pointer-events="none"/>
                </g>
                <g id="zoomMin">
                        <use xlink:href="#rim" fill="#404040">
                                <set attributeName="fill" to="#808080" begin="zoomminus.mouseover" end="zoomminus.mouseout"/>
                        </use>
                        <path d="M-4,0h8" fill="none" stroke="white" stroke-width="1.5" pointer-events="none"/>
                </g>
                <g id="dirArrow">
                        <path fill="none" stroke="white" stroke-width="1.5" d="M0,-3.0v7 M-2.5,-0.5L0,-3.0L2.5,-0.5"/>
                </g>
               <g id="resetDef">
                       <use xlink:href="#rim2" fill="#404040">
                               <set attributeName="fill" to="#808080" begin="reset.mouseover" end="reset.mouseout"/>
                       </use>
               </g>
        </defs>

<script type="text/javascript">
var viewWidth = 673;
var viewHeight = 204;
var sectionId = 'dynsection-1';
</script>
<script xlink:href="../../svgpan.js"/>
<svg id="graph" class="graph">
<g id="viewport">
<title>PhaseLoop.h</title>
<polygon fill="white" stroke="white" points="-4,5 -4,-200 670,-200 670,5 -4,5"/>
<!-- Node1 -->
<g id="node1" class="node"><title>Node1</title>
<polygon fill="#bfbfbf" stroke="black" points="126,-174.5 126,-195.5 200,-195.5 200,-174.5 126,-174.5"/>
<text text-anchor="middle" x="163" y="-182.5" font-family="Helvetica,sans-Serif" font-size="10.00">PhaseLoop.h</text>
</g>
<!-- Node2 -->
<g id="node3" class="node"><title>Node2</title>
<a xlink:href="../../db/dee/PhaseLoop_8cpp.html" target="_top" xlink:title="PhaseLoop.cpp">
<polygon fill="white" stroke="black" points="0,-116.5 0,-137.5 84,-137.5 84,-116.5 0,-116.5"/>
<text text-anchor="middle" x="42" y="-124.5" font-family="Helvetica,sans-Serif" font-size="10.00">PhaseLoop.cpp</text>
</a>
</g>
<!-- Node1&#45;&gt;Node2 -->
<g id="edge2" class="edge"><title>Node1&#45;&gt;Node2</title>
<path fill="none" stroke="midnightblue" d="M131.851,-170.069C110.661,-159.912 83.1311,-146.716 64.1581,-137.621"/>
<polygon fill="midnightblue" stroke="midnightblue" points="130.557,-173.33 141.088,-174.497 133.583,-167.018 130.557,-173.33"/>
</g>
<!-- Node3 -->
<g id="node5" class="node"><title>Node3</title>
<a xlink:href="../../d5/dde/blond_8h.html" target="_top" xlink:title="blond.h">
<polygon fill="white" stroke="black" points="284,-0.5 284,-21.5 332,-21.5 332,-0.5 284,-0.5"/>
<text text-anchor="middle" x="308" y="-8.5" font-family="Helvetica,sans-Serif" font-size="10.00">blond.h</text>
</a>
</g>
<!-- Node1&#45;&gt;Node3 -->
<g id="edge4" class="edge"><title>Node1&#45;&gt;Node3</title>
<path fill="none" stroke="midnightblue" d="M155.787,-164.579C147.607,-137.442 138.156,-89.2875 161,-58 175.615,-37.9836 245.875,-22.3523 283.723,-15.2214"/>
<polygon fill="midnightblue" stroke="midnightblue" points="152.487,-165.751 158.898,-174.186 159.147,-163.594 152.487,-165.751"/>
</g>
<!-- Node4 -->
<g id="node7" class="node"><title>Node4</title>
<a xlink:href="../../d0/da6/Monitors_8h.html" target="_top" xlink:title="Monitors.h">
<polygon fill="white" stroke="black" points="183,-116.5 183,-137.5 245,-137.5 245,-116.5 183,-116.5"/>
<text text-anchor="middle" x="214" y="-124.5" font-family="Helvetica,sans-Serif" font-size="10.00">Monitors.h</text>
</a>
</g>
<!-- Node1&#45;&gt;Node4 -->
<g id="edge6" class="edge"><title>Node1&#45;&gt;Node4</title>
<path fill="none" stroke="midnightblue" d="M178.977,-166.83C187.438,-157.208 197.532,-145.728 204.705,-137.571"/>
<polygon fill="midnightblue" stroke="midnightblue" points="176.329,-164.541 172.354,-174.362 181.586,-169.163 176.329,-164.541"/>
</g>
<!-- Node8 -->
<g id="node16" class="node"><title>Node8</title>
<a xlink:href="../../d2/d0e/Tracker_8h.html" target="_top" xlink:title="Tracker.h">
<polygon fill="white" stroke="black" points="468,-116.5 468,-137.5 526,-137.5 526,-116.5 468,-116.5"/>
<text text-anchor="middle" x="497" y="-124.5" font-family="Helvetica,sans-Serif" font-size="10.00">Tracker.h</text>
</a>
</g>
<!-- Node1&#45;&gt;Node8 -->
<g id="edge16" class="edge"><title>Node1&#45;&gt;Node8</title>
<path fill="none" stroke="midnightblue" d="M209.895,-176.857C279.871,-164.705 409.584,-142.18 467.611,-132.103"/>
<polygon fill="midnightblue" stroke="midnightblue" points="209.274,-173.412 200.02,-178.571 210.471,-180.309 209.274,-173.412"/>
</g>
<!-- Node4&#45;&gt;Node3 -->
<g id="edge14" class="edge"><title>Node4&#45;&gt;Node3</title>
<path fill="none" stroke="midnightblue" d="M190.367,-109.895C173.784,-95.7574 156.605,-75.2757 169,-58 182.588,-39.0616 247.779,-23.1821 283.853,-15.6658"/>
<polygon fill="midnightblue" stroke="midnightblue" points="188.338,-112.754 198.328,-116.283 192.719,-107.295 188.338,-112.754"/>
</g>
<!-- Node5 -->
<g id="node9" class="node"><title>Node5</title>
<a xlink:href="../../da/dda/Monitors_8cpp.html" target="_top" xlink:title="Monitors.cpp">
<polygon fill="white" stroke="black" points="177.5,-58.5 177.5,-79.5 250.5,-79.5 250.5,-58.5 177.5,-58.5"/>
<text text-anchor="middle" x="214" y="-66.5" font-family="Helvetica,sans-Serif" font-size="10.00">Monitors.cpp</text>
</a>
</g>
<!-- Node4&#45;&gt;Node5 -->
<g id="edge8" class="edge"><title>Node4&#45;&gt;Node5</title>
<path fill="none" stroke="midnightblue" d="M214,-106.191C214,-97.1684 214,-86.9941 214,-79.5707"/>
<polygon fill="midnightblue" stroke="midnightblue" points="210.5,-106.362 214,-116.362 217.5,-106.362 210.5,-106.362"/>
</g>
<!-- Node6 -->
<g id="node11" class="node"><title>Node6</title>
<a xlink:href="../../d3/d2c/plot__beams_8cpp.html" target="_top" xlink:title="plot_beams.cpp">
<polygon fill="white" stroke="black" points="268,-58.5 268,-79.5 354,-79.5 354,-58.5 268,-58.5"/>
<text text-anchor="middle" x="311" y="-66.5" font-family="Helvetica,sans-Serif" font-size="10.00">plot_beams.cpp</text>
</a>
</g>
<!-- Node4&#45;&gt;Node6 -->
<g id="edge10" class="edge"><title>Node4&#45;&gt;Node6</title>
<path fill="none" stroke="midnightblue" d="M240.59,-111.101C257.373,-101.066 278.587,-88.3808 293.321,-79.5707"/>
<polygon fill="midnightblue" stroke="midnightblue" points="238.578,-108.226 231.791,-116.362 242.17,-114.234 238.578,-108.226"/>
</g>
<!-- Node7 -->
<g id="node13" class="node"><title>Node7</title>
<a xlink:href="../../d3/dca/plot__llrf_8cpp.html" target="_top" xlink:title="plot_llrf.cpp">
<polygon fill="white" stroke="black" points="371.5,-58.5 371.5,-79.5 438.5,-79.5 438.5,-58.5 371.5,-58.5"/>
<text text-anchor="middle" x="405" y="-66.5" font-family="Helvetica,sans-Serif" font-size="10.00">plot_llrf.cpp</text>
</a>
</g>
<!-- Node4&#45;&gt;Node7 -->
<g id="edge12" class="edge"><title>Node4&#45;&gt;Node7</title>
<path fill="none" stroke="midnightblue" d="M254.941,-114.568C289.66,-104.025 338.856,-89.0856 371.327,-79.2253"/>
<polygon fill="midnightblue" stroke="midnightblue" points="253.664,-111.298 245.113,-117.552 255.698,-117.996 253.664,-111.298"/>
</g>
<!-- Node8&#45;&gt;Node3 -->
<g id="edge26" class="edge"><title>Node8&#45;&gt;Node3</title>
<path fill="none" stroke="midnightblue" d="M487.019,-107.088C478.365,-91.6879 464.489,-70.8834 447,-58 411.928,-32.1645 361.69,-19.873 332.196,-14.559"/>
<polygon fill="midnightblue" stroke="midnightblue" points="484.137,-109.121 491.937,-116.291 490.311,-105.821 484.137,-109.121"/>
</g>
<!-- Node9 -->
<g id="node18" class="node"><title>Node9</title>
<a xlink:href="../../d2/d6f/Tracker_8cpp.html" target="_top" xlink:title="Tracker.cpp">
<polygon fill="white" stroke="black" points="494,-58.5 494,-79.5 562,-79.5 562,-58.5 494,-58.5"/>
<text text-anchor="middle" x="528" y="-66.5" font-family="Helvetica,sans-Serif" font-size="10.00">Tracker.cpp</text>
</a>
</g>
<!-- Node8&#45;&gt;Node9 -->
<g id="edge18" class="edge"><title>Node8&#45;&gt;Node9</title>
<path fill="none" stroke="midnightblue" d="M507.49,-107.373C512.464,-98.0682 518.208,-87.3204 522.35,-79.5707"/>
<polygon fill="midnightblue" stroke="midnightblue" points="504.313,-105.893 502.686,-116.362 510.486,-109.192 504.313,-105.893"/>
</g>
<!-- Node10 -->
<g id="node20" class="node"><title>Node10</title>
<a xlink:href="../../dc/d7d/Distributions_8h.html" target="_top" xlink:title="Distributions.h">
<polygon fill="white" stroke="black" points="580,-58.5 580,-79.5 660,-79.5 660,-58.5 580,-58.5"/>
<text text-anchor="middle" x="620" y="-66.5" font-family="Helvetica,sans-Serif" font-size="10.00">Distributions.h</text>
</a>
</g>
<!-- Node8&#45;&gt;Node10 -->
<g id="edge20" class="edge"><title>Node8&#45;&gt;Node10</title>
<path fill="none" stroke="midnightblue" d="M528.373,-112.206C549.951,-102.031 578.102,-88.7567 597.476,-79.6212"/>
<polygon fill="midnightblue" stroke="midnightblue" points="526.826,-109.066 519.274,-116.497 529.812,-115.397 526.826,-109.066"/>
</g>
<!-- Node10&#45;&gt;Node3 -->
<g id="edge24" class="edge"><title>Node10&#45;&gt;Node3</title>
<path fill="none" stroke="midnightblue" d="M569.98,-57.8552C476.141,-39.117 376.742,-22.3216 332,-14.9256"/>
<polygon fill="midnightblue" stroke="midnightblue" points="569.426,-61.3137 579.919,-59.8516 570.804,-54.4508 569.426,-61.3137"/>
</g>
<!-- Node11 -->
<g id="node22" class="node"><title>Node11</title>
<a xlink:href="../../db/de1/Distributions_8cpp.html" target="_top" xlink:title="Distributions.cpp">
<polygon fill="white" stroke="black" points="575,-0.5 575,-21.5 665,-21.5 665,-0.5 575,-0.5"/>
<text text-anchor="middle" x="620" y="-8.5" font-family="Helvetica,sans-Serif" font-size="10.00">Distributions.cpp</text>
</a>
</g>
<!-- Node10&#45;&gt;Node11 -->
<g id="edge22" class="edge"><title>Node10&#45;&gt;Node11</title>
<path fill="none" stroke="midnightblue" d="M620,-48.1906C620,-39.1684 620,-28.9941 620,-21.5707"/>
<polygon fill="midnightblue" stroke="midnightblue" points="616.5,-48.3619 620,-58.3619 623.5,-48.3619 616.5,-48.3619"/>
</g>
</g>
</svg>
        <g id="navigator" transform="translate(0 0)" fill="#404254">
                <rect fill="#f2f5e9" fill-opacity="0.5" stroke="#606060" stroke-width=".5" x="0" y="0" width="60" height="60"/>
                <use id="zoomplus" xlink:href="#zoomPlus" x="17" y="9" onmousedown="handleZoom(evt,'in')"/>
                <use id="zoomminus" xlink:href="#zoomMin" x="42" y="9" onmousedown="handleZoom(evt,'out')"/>
                <use id="reset" xlink:href="#resetDef" x="30" y="36" onmousedown="handleReset()"/>
                <g id="arrowUp" xlink:href="#dirArrow" transform="translate(30 24)" onmousedown="handlePan(0,-1)">
                  <use xlink:href="#rim" fill="#404040">
                        <set attributeName="fill" to="#808080" begin="arrowUp.mouseover" end="arrowUp.mouseout"/>
                  </use>
                  <path fill="none" stroke="white" stroke-width="1.5" d="M0,-3.0v7 M-2.5,-0.5L0,-3.0L2.5,-0.5"/>
                </g>
                <g id="arrowRight" xlink:href="#dirArrow" transform="rotate(90) translate(36 -43)" onmousedown="handlePan(1,0)">
                  <use xlink:href="#rim" fill="#404040">
                        <set attributeName="fill" to="#808080" begin="arrowRight.mouseover" end="arrowRight.mouseout"/>
                  </use>
                  <path fill="none" stroke="white" stroke-width="1.5" d="M0,-3.0v7 M-2.5,-0.5L0,-3.0L2.5,-0.5"/>
                </g>
                <g id="arrowDown" xlink:href="#dirArrow" transform="rotate(180) translate(-30 -48)" onmousedown="handlePan(0,1)">
                  <use xlink:href="#rim" fill="#404040">
                        <set attributeName="fill" to="#808080" begin="arrowDown.mouseover" end="arrowDown.mouseout"/>
                  </use>
                  <path fill="none" stroke="white" stroke-width="1.5" d="M0,-3.0v7 M-2.5,-0.5L0,-3.0L2.5,-0.5"/>
                </g>
                <g id="arrowLeft" xlink:href="#dirArrow" transform="rotate(270) translate(-36 17)" onmousedown="handlePan(-1,0)">
                  <use xlink:href="#rim" fill="#404040">
                        <set attributeName="fill" to="#808080" begin="arrowLeft.mouseover" end="arrowLeft.mouseout"/>
                  </use>
                  <path fill="none" stroke="white" stroke-width="1.5" d="M0,-3.0v7 M-2.5,-0.5L0,-3.0L2.5,-0.5"/>
                </g>
        </g>
        <svg viewBox="0 0 15 15" width="100%" height="30px" preserveAspectRatio="xMaxYMin meet">
         <g id="arrow_out" transform="scale(0.3 0.3)">
          <a xlink:href="PhaseLoop_8h__dep__incl_org.svg" target="_base">
           <rect id="button" ry="5" rx="5" y="6" x="6" height="38" width="38"
                fill="#f2f5e9" fill-opacity="0.5" stroke="#606060" stroke-width="1.0"/>
           <path id="arrow"
             d="M 11.500037,31.436501 C 11.940474,20.09759 22.043105,11.32322 32.158766,21.979434 L 37.068811,17.246167 C 37.068811,17.246167 37.088388,32 37.088388,32 L 22.160133,31.978069 C 22.160133,31.978069 26.997745,27.140456 26.997745,27.140456 C 18.528582,18.264221 13.291696,25.230495 11.500037,31.436501 z"
             style="fill:#404040;"/>
          </a>
         </g>
        </svg>
</svg>
