<?xml version="1.0" encoding="UTF-8" standalone="no"?>
<!DOCTYPE svg PUBLIC "-//W3C//DTD SVG 1.1//EN"
 "http://www.w3.org/Graphics/SVG/1.1/DTD/svg11.dtd">
<!-- Generated by graphviz version 2.26.3 (20100126.1600)
 -->
<!-- Title: utilities.cpp Pages: 1 -->
<svg width="1529pt" height="522pt"
 viewBox="0.00 0.00 1529.00 522.00" xmlns="http://www.w3.org/2000/svg" xmlns:xlink="http://www.w3.org/1999/xlink">
<g id="graph1" class="graph" transform="scale(1 1) rotate(0) translate(4 518)">
<title>utilities.cpp</title>
<polygon fill="white" stroke="white" points="-4,5 -4,-518 1526,-518 1526,5 -4,5"/>
<!-- Node1 -->
<g id="node1" class="node"><title>Node1</title>
<polygon fill="#bfbfbf" stroke="black" points="898,-492.5 898,-513.5 964,-513.5 964,-492.5 898,-492.5"/>
<text text-anchor="middle" x="931" y="-500.5" font-family="Helvetica,sans-Serif" font-size="10.00">utilities.cpp</text>
</g>
<!-- Node2 -->
<g id="node3" class="node"><title>Node2</title>
<polygon fill="white" stroke="#bfbfbf" points="1181,-58.5 1181,-79.5 1225,-79.5 1225,-58.5 1181,-58.5"/>
<text text-anchor="middle" x="1203" y="-66.5" font-family="Helvetica,sans-Serif" font-size="10.00">cmath</text>
</g>
<!-- Node1&#45;&gt;Node2 -->
<g id="edge2" class="edge"><title>Node1&#45;&gt;Node2</title>
<path fill="none" stroke="midnightblue" d="M964.411,-499.625C1089.22,-486.574 1521,-437.286 1521,-380 1521,-380 1521,-380 1521,-192 1521,-131.171 1316.04,-88.7355 1235.22,-74.3656"/>
<polygon fill="midnightblue" stroke="midnightblue" points="1235.56,-70.8733 1225.11,-72.6007 1234.36,-77.7689 1235.56,-70.8733"/>
</g>
<!-- Node3 -->
<g id="node5" class="node"><title>Node3</title>
<polygon fill="white" stroke="#bfbfbf" points="0,-58.5 0,-79.5 54,-79.5 54,-58.5 0,-58.5"/>
<text text-anchor="middle" x="27" y="-66.5" font-family="Helvetica,sans-Serif" font-size="10.00">iostream</text>
</g>
<!-- Node1&#45;&gt;Node3 -->
<g id="edge4" class="edge"><title>Node1&#45;&gt;Node3</title>
<path fill="none" stroke="midnightblue" d="M897.817,-502.006C735.842,-496.723 36,-468.763 36,-380 36,-380 36,-380 36,-192 36,-155.956 32.1083,-114.129 29.4431,-89.7108"/>
<polygon fill="midnightblue" stroke="midnightblue" points="32.8913,-89.0544 28.2895,-79.5111 25.9356,-89.8412 32.8913,-89.0544"/>
</g>
<!-- Node4 -->
<g id="node7" class="node"><title>Node4</title>
<a xlink:href="../../de/d44/trackers_2utilities_8h.html" target="_top" xlink:title="blond/trackers/utilities.h">
<polygon fill="white" stroke="black" points="689,-434.5 689,-455.5 809,-455.5 809,-434.5 689,-434.5"/>
<text text-anchor="middle" x="749" y="-442.5" font-family="Helvetica,sans-Serif" font-size="10.00">blond/trackers/utilities.h</text>
</a>
</g>
<!-- Node1&#45;&gt;Node4 -->
<g id="edge6" class="edge"><title>Node1&#45;&gt;Node4</title>
<path fill="none" stroke="midnightblue" d="M898.041,-492.497C868.242,-483 824.191,-468.962 791.703,-458.609"/>
<polygon fill="midnightblue" stroke="midnightblue" points="792.611,-455.225 782.021,-455.523 790.486,-461.894 792.611,-455.225"/>
</g>
<!-- Node25 -->
<g id="node66" class="node"><title>Node25</title>
<a xlink:href="../../d2/de2/math__functions_8h.html" target="_top" xlink:title="blond/math_functions.h">
<polygon fill="white" stroke="black" points="1014,-304.5 1014,-325.5 1132,-325.5 1132,-304.5 1014,-304.5"/>
<text text-anchor="middle" x="1073" y="-312.5" font-family="Helvetica,sans-Serif" font-size="10.00">blond/math_functions.h</text>
</a>
</g>
<!-- Node1&#45;&gt;Node25 -->
<g id="edge126" class="edge"><title>Node1&#45;&gt;Node25</title>
<path fill="none" stroke="midnightblue" d="M939.041,-492.354C962.18,-461.719 1029.15,-373.05 1058.7,-333.928"/>
<polygon fill="midnightblue" stroke="midnightblue" points="1061.81,-335.619 1065.05,-325.53 1056.23,-331.4 1061.81,-335.619"/>
</g>
<!-- Node35 -->
<g id="node93" class="node"><title>Node35</title>
<a xlink:href="../../d2/d6f/constants_8h.html" target="_top" xlink:title="blond/constants.h">
<polygon fill="white" stroke="black" points="771,-304.5 771,-325.5 865,-325.5 865,-304.5 771,-304.5"/>
<text text-anchor="middle" x="818" y="-312.5" font-family="Helvetica,sans-Serif" font-size="10.00">blond/constants.h</text>
</a>
</g>
<!-- Node1&#45;&gt;Node35 -->
<g id="edge124" class="edge"><title>Node1&#45;&gt;Node35</title>
<path fill="none" stroke="midnightblue" d="M924.601,-492.354C906.265,-461.849 853.341,-373.797 829.676,-334.426"/>
<polygon fill="midnightblue" stroke="midnightblue" points="832.48,-332.297 824.329,-325.53 826.481,-335.904 832.48,-332.297"/>
</g>
<!-- Node5 -->
<g id="node9" class="node"><title>Node5</title>
<a xlink:href="../../d2/d2c/configuration_8h.html" target="_top" xlink:title="blond/configuration.h">
<polygon fill="white" stroke="black" points="863.5,-58.5 863.5,-79.5 970.5,-79.5 970.5,-58.5 863.5,-58.5"/>
<text text-anchor="middle" x="917" y="-66.5" font-family="Helvetica,sans-Serif" font-size="10.00">blond/configuration.h</text>
</a>
</g>
<!-- Node4&#45;&gt;Node5 -->
<g id="edge8" class="edge"><title>Node4&#45;&gt;Node5</title>
<path fill="none" stroke="midnightblue" d="M777.106,-434.497C819.013,-416.8 893,-376.804 893,-315 893,-315 893,-315 893,-192 893,-155.397 903.365,-113.783 910.472,-89.5517"/>
<polygon fill="midnightblue" stroke="midnightblue" points="913.9,-90.3076 913.459,-79.7219 907.202,-88.2722 913.9,-90.3076"/>
</g>
<!-- Node8 -->
<g id="node15" class="node"><title>Node8</title>
<a xlink:href="../../de/df0/utilities_8h.html" target="_top" xlink:title="blond/utilities.h">
<polygon fill="white" stroke="black" points="461,-116.5 461,-137.5 543,-137.5 543,-116.5 461,-116.5"/>
<text text-anchor="middle" x="502" y="-124.5" font-family="Helvetica,sans-Serif" font-size="10.00">blond/utilities.h</text>
</a>
</g>
<!-- Node4&#45;&gt;Node8 -->
<g id="edge14" class="edge"><title>Node4&#45;&gt;Node8</title>
<path fill="none" stroke="midnightblue" d="M689.287,-434.438C593.217,-415.728 415,-373.179 415,-315 415,-315 415,-315 415,-257 415,-219.157 412.772,-205.328 434,-174 442.895,-160.872 456.781,-150.32 469.691,-142.567"/>
<polygon fill="midnightblue" stroke="midnightblue" points="471.414,-145.614 478.4,-137.649 467.972,-139.519 471.414,-145.614"/>
</g>
<!-- Node19 -->
<g id="node40" class="node"><title>Node19</title>
<a xlink:href="../../d5/d34/GeneralParameters_8h.html" target="_top" xlink:title="blond/input_parameters\l/GeneralParameters.h">
<polygon fill="white" stroke="black" points="443,-175 443,-209 561,-209 561,-175 443,-175"/>
<text text-anchor="start" x="451" y="-196" font-family="Helvetica,sans-Serif" font-size="10.00">blond/input_parameters</text>
<text text-anchor="middle" x="502" y="-183" font-family="Helvetica,sans-Serif" font-size="10.00">/GeneralParameters.h</text>
</a>
</g>
<!-- Node4&#45;&gt;Node19 -->
<g id="edge42" class="edge"><title>Node4&#45;&gt;Node19</title>
<path fill="none" stroke="midnightblue" d="M703.137,-434.498C649.682,-419.75 562.837,-387.532 517,-326 493.958,-295.069 494.363,-248.445 497.578,-219.141"/>
<polygon fill="midnightblue" stroke="midnightblue" points="501.054,-219.554 498.851,-209.19 494.11,-218.665 501.054,-219.554"/>
</g>
<!-- Node20 -->
<g id="node45" class="node"><title>Node20</title>
<a xlink:href="../../d6/db7/RfParameters_8h.html" target="_top" xlink:title="blond/input_parameters\l/RfParameters.h">
<polygon fill="white" stroke="black" points="637,-363 637,-397 755,-397 755,-363 637,-363"/>
<text text-anchor="start" x="645" y="-384" font-family="Helvetica,sans-Serif" font-size="10.00">blond/input_parameters</text>
<text text-anchor="middle" x="696" y="-371" font-family="Helvetica,sans-Serif" font-size="10.00">/RfParameters.h</text>
</a>
</g>
<!-- Node4&#45;&gt;Node20 -->
<g id="edge50" class="edge"><title>Node4&#45;&gt;Node20</title>
<path fill="none" stroke="midnightblue" d="M740.248,-434.267C733.752,-426.3 724.623,-415.104 716.343,-404.949"/>
<polygon fill="midnightblue" stroke="midnightblue" points="718.983,-402.648 709.951,-397.11 713.558,-407.072 718.983,-402.648"/>
</g>
<!-- Node4&#45;&gt;Node35 -->
<g id="edge122" class="edge"><title>Node4&#45;&gt;Node35</title>
<path fill="none" stroke="midnightblue" d="M754.647,-434.362C766.221,-412.555 792.788,-362.5 807.579,-334.634"/>
<polygon fill="midnightblue" stroke="midnightblue" points="810.679,-336.259 812.275,-325.785 804.496,-332.977 810.679,-336.259"/>
</g>
<!-- Node6 -->
<g id="node11" class="node"><title>Node6</title>
<polygon fill="white" stroke="#bfbfbf" points="890.5,-0.5 890.5,-21.5 943.5,-21.5 943.5,-0.5 890.5,-0.5"/>
<text text-anchor="middle" x="917" y="-8.5" font-family="Helvetica,sans-Serif" font-size="10.00">complex</text>
</g>
<!-- Node5&#45;&gt;Node6 -->
<g id="edge10" class="edge"><title>Node5&#45;&gt;Node6</title>
<path fill="none" stroke="midnightblue" d="M917,-58.3619C917,-50.9219 917,-40.7427 917,-31.7276"/>
<polygon fill="midnightblue" stroke="midnightblue" points="920.5,-31.5706 917,-21.5707 913.5,-31.5707 920.5,-31.5706"/>
</g>
<!-- Node7 -->
<g id="node13" class="node"><title>Node7</title>
<polygon fill="white" stroke="#bfbfbf" points="98,-0.5 98,-21.5 142,-21.5 142,-0.5 98,-0.5"/>
<text text-anchor="middle" x="120" y="-8.5" font-family="Helvetica,sans-Serif" font-size="10.00">vector</text>
</g>
<!-- Node5&#45;&gt;Node7 -->
<g id="edge12" class="edge"><title>Node5&#45;&gt;Node7</title>
<path fill="none" stroke="midnightblue" d="M863.286,-59.0916C860.488,-58.694 857.713,-58.3264 855,-58 584.338,-25.4391 254.706,-14.5141 152.061,-11.7714"/>
<polygon fill="midnightblue" stroke="midnightblue" points="152.117,-8.27175 142.029,-11.5103 151.935,-15.2694 152.117,-8.27175"/>
</g>
<!-- Node8&#45;&gt;Node3 -->
<g id="edge24" class="edge"><title>Node8&#45;&gt;Node3</title>
<path fill="none" stroke="midnightblue" d="M460.921,-122.401C388.958,-114.284 235.432,-96.6902 106,-80 92.3455,-78.2393 77.3815,-76.187 64.1845,-74.3353"/>
<polygon fill="midnightblue" stroke="midnightblue" points="64.4296,-70.8352 54.0384,-72.9026 63.4508,-77.7665 64.4296,-70.8352"/>
</g>
<!-- Node8&#45;&gt;Node5 -->
<g id="edge38" class="edge"><title>Node8&#45;&gt;Node5</title>
<path fill="none" stroke="midnightblue" d="M543.268,-119.618C550.82,-118.35 558.639,-117.09 566,-116 690.789,-97.5138 725.276,-99.2101 853.078,-80.2355"/>
<polygon fill="midnightblue" stroke="midnightblue" points="853.889,-83.6532 863.259,-78.7097 852.851,-76.7305 853.889,-83.6532"/>
</g>
<!-- Node8&#45;&gt;Node7 -->
<g id="edge34" class="edge"><title>Node8&#45;&gt;Node7</title>
<path fill="none" stroke="midnightblue" d="M460.932,-124.229C371.05,-117.805 162.983,-100.841 139,-80 125.416,-68.1951 121.121,-47.6599 119.952,-32.0526"/>
<polygon fill="midnightblue" stroke="midnightblue" points="123.439,-31.616 119.566,-21.7543 116.443,-31.8785 123.439,-31.616"/>
</g>
<!-- Node9 -->
<g id="node17" class="node"><title>Node9</title>
<polygon fill="white" stroke="#bfbfbf" points="740,-58.5 740,-79.5 786,-79.5 786,-58.5 740,-58.5"/>
<text text-anchor="middle" x="763" y="-66.5" font-family="Helvetica,sans-Serif" font-size="10.00">chrono</text>
</g>
<!-- Node8&#45;&gt;Node9 -->
<g id="edge16" class="edge"><title>Node8&#45;&gt;Node9</title>
<path fill="none" stroke="midnightblue" d="M543.118,-119.221C595.122,-109.277 682.705,-92.1532 729.745,-80.0545"/>
<polygon fill="midnightblue" stroke="midnightblue" points="730.93,-83.3609 739.689,-77.4009 729.125,-76.5975 730.93,-83.3609"/>
</g>
<!-- Node10 -->
<g id="node19" class="node"><title>Node10</title>
<polygon fill="white" stroke="#bfbfbf" points="803.5,-58.5 803.5,-79.5 846.5,-79.5 846.5,-58.5 803.5,-58.5"/>
<text text-anchor="middle" x="825" y="-66.5" font-family="Helvetica,sans-Serif" font-size="10.00">cstdio</text>
</g>
<!-- Node8&#45;&gt;Node10 -->
<g id="edge18" class="edge"><title>Node8&#45;&gt;Node10</title>
<path fill="none" stroke="midnightblue" d="M543.299,-119.813C550.848,-118.524 558.658,-117.208 566,-116 664.484,-99.7963 693.472,-105.469 793.314,-80.1059"/>
<polygon fill="midnightblue" stroke="midnightblue" points="794.394,-83.4418 803.202,-77.5528 792.644,-76.664 794.394,-83.4418"/>
</g>
<!-- Node11 -->
<g id="node21" class="node"><title>Node11</title>
<polygon fill="white" stroke="#bfbfbf" points="147.5,-58.5 147.5,-79.5 192.5,-79.5 192.5,-58.5 147.5,-58.5"/>
<text text-anchor="middle" x="170" y="-66.5" font-family="Helvetica,sans-Serif" font-size="10.00">cstdlib</text>
</g>
<!-- Node8&#45;&gt;Node11 -->
<g id="edge20" class="edge"><title>Node8&#45;&gt;Node11</title>
<path fill="none" stroke="midnightblue" d="M460.616,-123.004C404.078,-117.007 299.505,-104.005 202.502,-80.0508"/>
<polygon fill="midnightblue" stroke="midnightblue" points="203.089,-76.5894 192.537,-77.5439 201.381,-83.3778 203.089,-76.5894"/>
</g>
<!-- Node12 -->
<g id="node23" class="node"><title>Node12</title>
<polygon fill="white" stroke="#bfbfbf" points="210,-58.5 210,-79.5 260,-79.5 260,-58.5 210,-58.5"/>
<text text-anchor="middle" x="235" y="-66.5" font-family="Helvetica,sans-Serif" font-size="10.00">fstream</text>
</g>
<!-- Node8&#45;&gt;Node12 -->
<g id="edge22" class="edge"><title>Node8&#45;&gt;Node12</title>
<path fill="none" stroke="midnightblue" d="M460.849,-120.162C416.049,-112.394 342.163,-98.6429 269.88,-80.0282"/>
<polygon fill="midnightblue" stroke="midnightblue" points="270.716,-76.6293 260.157,-77.4916 268.949,-83.4026 270.716,-76.6293"/>
</g>
<!-- Node13 -->
<g id="node26" class="node"><title>Node13</title>
<polygon fill="white" stroke="#bfbfbf" points="277.5,-58.5 277.5,-79.5 324.5,-79.5 324.5,-58.5 277.5,-58.5"/>
<text text-anchor="middle" x="301" y="-66.5" font-family="Helvetica,sans-Serif" font-size="10.00">iterator</text>
</g>
<!-- Node8&#45;&gt;Node13 -->
<g id="edge26" class="edge"><title>Node8&#45;&gt;Node13</title>
<path fill="none" stroke="midnightblue" d="M461.509,-116.469C429.296,-107.927 382.877,-95.2583 334.427,-80.3411"/>
<polygon fill="midnightblue" stroke="midnightblue" points="335.302,-76.9479 324.714,-77.3282 333.228,-83.6337 335.302,-76.9479"/>
</g>
<!-- Node14 -->
<g id="node28" class="node"><title>Node14</title>
<polygon fill="white" stroke="#bfbfbf" points="342,-58.5 342,-79.5 394,-79.5 394,-58.5 342,-58.5"/>
<text text-anchor="middle" x="368" y="-66.5" font-family="Helvetica,sans-Serif" font-size="10.00">memory</text>
</g>
<!-- Node8&#45;&gt;Node14 -->
<g id="edge28" class="edge"><title>Node8&#45;&gt;Node14</title>
<path fill="none" stroke="midnightblue" d="M477.734,-116.497C456.522,-107.315 425.502,-93.8889 401.85,-83.6516"/>
<polygon fill="midnightblue" stroke="midnightblue" points="403.106,-80.3815 392.539,-79.6212 400.326,-86.8055 403.106,-80.3815"/>
</g>
<!-- Node15 -->
<g id="node30" class="node"><title>Node15</title>
<polygon fill="white" stroke="#bfbfbf" points="412,-58.5 412,-79.5 464,-79.5 464,-58.5 412,-58.5"/>
<text text-anchor="middle" x="438" y="-66.5" font-family="Helvetica,sans-Serif" font-size="10.00">sstream</text>
</g>
<!-- Node8&#45;&gt;Node15 -->
<g id="edge30" class="edge"><title>Node8&#45;&gt;Node15</title>
<path fill="none" stroke="midnightblue" d="M490.261,-116.362C481.059,-108.023 468.06,-96.2418 457.328,-86.5162"/>
<polygon fill="midnightblue" stroke="midnightblue" points="459.424,-83.6924 449.664,-79.5707 454.724,-88.8793 459.424,-83.6924"/>
</g>
<!-- Node16 -->
<g id="node32" class="node"><title>Node16</title>
<polygon fill="white" stroke="#bfbfbf" points="481.5,-58.5 481.5,-79.5 522.5,-79.5 522.5,-58.5 481.5,-58.5"/>
<text text-anchor="middle" x="502" y="-66.5" font-family="Helvetica,sans-Serif" font-size="10.00">string</text>
</g>
<!-- Node8&#45;&gt;Node16 -->
<g id="edge32" class="edge"><title>Node8&#45;&gt;Node16</title>
<path fill="none" stroke="midnightblue" d="M502,-116.362C502,-108.922 502,-98.7427 502,-89.7276"/>
<polygon fill="midnightblue" stroke="midnightblue" points="505.5,-89.5706 502,-79.5707 498.5,-89.5707 505.5,-89.5706"/>
</g>
<!-- Node17 -->
<g id="node35" class="node"><title>Node17</title>
<polygon fill="white" stroke="#bfbfbf" points="540,-58.5 540,-79.5 600,-79.5 600,-58.5 540,-58.5"/>
<text text-anchor="middle" x="570" y="-66.5" font-family="Helvetica,sans-Serif" font-size="10.00">sys/stat.h</text>
</g>
<!-- Node8&#45;&gt;Node17 -->
<g id="edge36" class="edge"><title>Node8&#45;&gt;Node17</title>
<path fill="none" stroke="midnightblue" d="M514.472,-116.362C524.345,-107.941 538.333,-96.0105 549.798,-86.2308"/>
<polygon fill="midnightblue" stroke="midnightblue" points="552.27,-88.7231 557.607,-79.5707 547.727,-83.3972 552.27,-88.7231"/>
</g>
<!-- Node18 -->
<g id="node38" class="node"><title>Node18</title>
<a xlink:href="../../da/d69/optionparser_8h.html" target="_top" xlink:title="This is the only file required to use The Lean Mean C++ Option Parser. Just #include it and you&#39;re se...">
<polygon fill="white" stroke="black" points="618,-58.5 618,-79.5 722,-79.5 722,-58.5 618,-58.5"/>
<text text-anchor="middle" x="670" y="-66.5" font-family="Helvetica,sans-Serif" font-size="10.00">blond/optionparser.h</text>
</a>
</g>
<!-- Node8&#45;&gt;Node18 -->
<g id="edge40" class="edge"><title>Node8&#45;&gt;Node18</title>
<path fill="none" stroke="midnightblue" d="M532.424,-116.497C559.694,-107.082 599.893,-93.2036 629.804,-82.8773"/>
<polygon fill="midnightblue" stroke="midnightblue" points="631.209,-86.0949 639.519,-79.5231 628.925,-79.4781 631.209,-86.0949"/>
</g>
<!-- Node19&#45;&gt;Node5 -->
<g id="edge44" class="edge"><title>Node19&#45;&gt;Node5</title>
<path fill="none" stroke="midnightblue" d="M521.274,-174.704C542.252,-156.917 577.563,-129.909 613,-116 711.256,-77.4344 745.66,-96.308 853.297,-80.1891"/>
<polygon fill="midnightblue" stroke="midnightblue" points="853.909,-83.636 863.247,-78.6314 852.826,-76.7203 853.909,-83.636"/>
</g>
<!-- Node19&#45;&gt;Node7 -->
<g id="edge48" class="edge"><title>Node19&#45;&gt;Node7</title>
<path fill="none" stroke="midnightblue" d="M442.619,-183.078C345.922,-167.22 161.254,-130.937 122,-80 111.522,-66.4034 112.143,-46.4212 114.723,-31.4554"/>
<polygon fill="midnightblue" stroke="midnightblue" points="118.161,-32.1169 116.817,-21.6075 111.314,-30.6607 118.161,-32.1169"/>
</g>
<!-- Node19&#45;&gt;Node8 -->
<g id="edge46" class="edge"><title>Node19&#45;&gt;Node8</title>
<path fill="none" stroke="midnightblue" d="M502,-174.922C502,-166.67 502,-156.692 502,-147.982"/>
<polygon fill="midnightblue" stroke="midnightblue" points="505.5,-147.852 502,-137.852 498.5,-147.852 505.5,-147.852"/>
</g>
<!-- Node20&#45;&gt;Node19 -->
<g id="edge80" class="edge"><title>Node20&#45;&gt;Node19</title>
<path fill="none" stroke="midnightblue" d="M636.646,-366.281C597.153,-356.008 550.041,-341.167 536,-326 508.989,-296.825 502.698,-249.298 501.623,-219.386"/>
<polygon fill="midnightblue" stroke="midnightblue" points="505.119,-219.163 501.433,-209.23 498.12,-219.293 505.119,-219.163"/>
</g>
<!-- Node21 -->
<g id="node47" class="node"><title>Node21</title>
<a xlink:href="../../d7/d74/Beams_8h.html" target="_top" xlink:title="blond/beams/Beams.h">
<polygon fill="white" stroke="black" points="545,-304.5 545,-325.5 659,-325.5 659,-304.5 545,-304.5"/>
<text text-anchor="middle" x="602" y="-312.5" font-family="Helvetica,sans-Serif" font-size="10.00">blond/beams/Beams.h</text>
</a>
</g>
<!-- Node20&#45;&gt;Node21 -->
<g id="edge52" class="edge"><title>Node20&#45;&gt;Node21</title>
<path fill="none" stroke="midnightblue" d="M665.279,-362.922C650.519,-353.387 633.397,-341.546 620.597,-332.02"/>
<polygon fill="midnightblue" stroke="midnightblue" points="622.581,-329.132 612.507,-325.852 618.337,-334.699 622.581,-329.132"/>
</g>
<!-- Node22 -->
<g id="node49" class="node"><title>Node22</title>
<a xlink:href="../../d5/d87/globals_8h.html" target="_top" xlink:title="blond/globals.h">
<polygon fill="white" stroke="black" points="655,-246.5 655,-267.5 737,-267.5 737,-246.5 655,-246.5"/>
<text text-anchor="middle" x="696" y="-254.5" font-family="Helvetica,sans-Serif" font-size="10.00">blond/globals.h</text>
</a>
</g>
<!-- Node20&#45;&gt;Node22 -->
<g id="edge120" class="edge"><title>Node20&#45;&gt;Node22</title>
<path fill="none" stroke="midnightblue" d="M691.155,-362.897C688.748,-340.673 688.622,-301.886 690.777,-277.929"/>
<polygon fill="midnightblue" stroke="midnightblue" points="694.278,-278.129 691.973,-267.787 687.326,-277.309 694.278,-278.129"/>
</g>
<!-- Node20&#45;&gt;Node25 -->
<g id="edge82" class="edge"><title>Node20&#45;&gt;Node25</title>
<path fill="none" stroke="midnightblue" d="M755.321,-369.772C822.617,-358.169 932.239,-339.269 1003.49,-326.985"/>
<polygon fill="midnightblue" stroke="midnightblue" points="1004.45,-330.37 1013.71,-325.222 1003.26,-323.472 1004.45,-330.37"/>
</g>
<!-- Node20&#45;&gt;Node35 -->
<g id="edge116" class="edge"><title>Node20&#45;&gt;Node35</title>
<path fill="none" stroke="midnightblue" d="M728.054,-362.922C746.931,-352.864 770.624,-340.242 788.953,-330.476"/>
<polygon fill="midnightblue" stroke="midnightblue" points="790.815,-333.449 797.995,-325.658 787.524,-327.272 790.815,-333.449"/>
</g>
<!-- Node21&#45;&gt;Node5 -->
<g id="edge72" class="edge"><title>Node21&#45;&gt;Node5</title>
<path fill="none" stroke="midnightblue" d="M605.008,-304.341C613.281,-275.448 636.77,-196.309 652,-174 674.207,-141.472 683.944,-133.953 719,-116 742.241,-104.098 804.657,-90.2706 853.258,-80.7097"/>
<polygon fill="midnightblue" stroke="midnightblue" points="853.942,-84.1423 863.089,-78.7964 852.605,-77.2713 853.942,-84.1423"/>
</g>
<!-- Node21&#45;&gt;Node8 -->
<g id="edge74" class="edge"><title>Node21&#45;&gt;Node8</title>
<path fill="none" stroke="midnightblue" d="M602.121,-304.432C601.907,-279.509 598.404,-216.003 570,-174 561.117,-160.864 547.233,-150.311 534.321,-142.559"/>
<polygon fill="midnightblue" stroke="midnightblue" points="536.039,-139.51 525.61,-137.642 532.598,-145.606 536.039,-139.51"/>
</g>
<!-- Node21&#45;&gt;Node19 -->
<g id="edge76" class="edge"><title>Node21&#45;&gt;Node19</title>
<path fill="none" stroke="midnightblue" d="M593.126,-304.085C577.358,-284.69 544.081,-243.76 522.402,-217.095"/>
<polygon fill="midnightblue" stroke="midnightblue" points="525.103,-214.869 516.079,-209.317 519.672,-219.284 525.103,-214.869"/>
</g>
<!-- Node21&#45;&gt;Node20 -->
<g id="edge78" class="edge"><title>Node21&#45;&gt;Node20</title>
<path fill="none" stroke="midnightblue" d="M622.567,-325.658C636.272,-334.105 654.234,-346.216 669.034,-356.862"/>
<polygon fill="midnightblue" stroke="midnightblue" points="667.187,-359.847 677.326,-362.922 671.317,-354.196 667.187,-359.847"/>
</g>
<!-- Node21&#45;&gt;Node22 -->
<g id="edge54" class="edge"><title>Node21&#45;&gt;Node22</title>
<path fill="none" stroke="midnightblue" d="M613.877,-304.362C626.743,-295.45 647.324,-282.609 664.749,-272.545"/>
<polygon fill="midnightblue" stroke="midnightblue" points="666.546,-275.55 673.516,-267.571 663.091,-269.461 666.546,-275.55"/>
</g>
<!-- Node22&#45;&gt;Node19 -->
<g id="edge56" class="edge"><title>Node22&#45;&gt;Node19</title>
<path fill="none" stroke="midnightblue" d="M664.399,-246.412C636.939,-237.212 596.391,-223.626 562.682,-212.332"/>
<polygon fill="midnightblue" stroke="midnightblue" points="563.513,-208.919 552.919,-209.06 561.289,-215.556 563.513,-208.919"/>
</g>
<!-- Node22&#45;&gt;Node20 -->
<g id="edge58" class="edge"><title>Node22&#45;&gt;Node20</title>
<path fill="none" stroke="midnightblue" d="M700.027,-267.787C702.957,-286.594 703.522,-325.926 701.723,-352.654"/>
<polygon fill="midnightblue" stroke="midnightblue" points="698.212,-352.635 700.845,-362.897 705.187,-353.233 698.212,-352.635"/>
</g>
<!-- Node22&#45;&gt;Node21 -->
<g id="edge60" class="edge"><title>Node22&#45;&gt;Node21</title>
<path fill="none" stroke="midnightblue" d="M684.22,-267.571C671.393,-276.462 650.824,-289.301 633.383,-299.379"/>
<polygon fill="midnightblue" stroke="midnightblue" points="631.574,-296.381 624.605,-304.362 635.029,-302.469 631.574,-296.381"/>
</g>
<!-- Node23 -->
<g id="node54" class="node"><title>Node23</title>
<a xlink:href="../../dc/df2/Slices_8h.html" target="_top" xlink:title="blond/beams/Slices.h">
<polygon fill="white" stroke="black" points="661,-181.5 661,-202.5 771,-202.5 771,-181.5 661,-181.5"/>
<text text-anchor="middle" x="716" y="-189.5" font-family="Helvetica,sans-Serif" font-size="10.00">blond/beams/Slices.h</text>
</a>
</g>
<!-- Node22&#45;&gt;Node23 -->
<g id="edge62" class="edge"><title>Node22&#45;&gt;Node23</title>
<path fill="none" stroke="midnightblue" d="M699.303,-246.267C702.128,-237.085 706.272,-223.615 709.726,-212.392"/>
<polygon fill="midnightblue" stroke="midnightblue" points="713.163,-213.121 712.759,-202.534 706.473,-211.062 713.163,-213.121"/>
</g>
<!-- Node23&#45;&gt;Node5 -->
<g id="edge64" class="edge"><title>Node23&#45;&gt;Node5</title>
<path fill="none" stroke="midnightblue" d="M715.477,-181.295C715.293,-164.912 717.469,-133.667 735,-116 743.709,-107.223 805.896,-92.3651 855.188,-81.7028"/>
<polygon fill="midnightblue" stroke="midnightblue" points="856.127,-85.0812 865.171,-79.5622 854.659,-78.2368 856.127,-85.0812"/>
</g>
<!-- Node23&#45;&gt;Node8 -->
<g id="edge66" class="edge"><title>Node23&#45;&gt;Node8</title>
<path fill="none" stroke="midnightblue" d="M681.141,-181.412C644.455,-170.269 586.592,-152.694 546.602,-140.547"/>
<polygon fill="midnightblue" stroke="midnightblue" points="547.43,-137.141 536.844,-137.584 545.395,-143.839 547.43,-137.141"/>
</g>
<!-- Node23&#45;&gt;Node20 -->
<g id="edge68" class="edge"><title>Node23&#45;&gt;Node20</title>
<path fill="none" stroke="midnightblue" d="M724.236,-202.868C731.581,-213.295 741.803,-229.805 746,-246 748.453,-255.465 748.038,-258.437 746,-268 739.36,-299.162 723.401,-332.157 711.285,-354.198"/>
<polygon fill="midnightblue" stroke="midnightblue" points="708.222,-352.505 706.366,-362.936 714.322,-355.939 708.222,-352.505"/>
</g>
<!-- Node24 -->
<g id="node59" class="node"><title>Node24</title>
<polygon fill="white" stroke="#bfbfbf" points="743.5,-116.5 743.5,-137.5 778.5,-137.5 778.5,-116.5 743.5,-116.5"/>
<text text-anchor="middle" x="761" y="-124.5" font-family="Helvetica,sans-Serif" font-size="10.00">map</text>
</g>
<!-- Node23&#45;&gt;Node24 -->
<g id="edge70" class="edge"><title>Node23&#45;&gt;Node24</title>
<path fill="none" stroke="midnightblue" d="M723.431,-181.267C730.049,-171.707 739.887,-157.496 747.836,-146.015"/>
<polygon fill="midnightblue" stroke="midnightblue" points="750.893,-147.748 753.707,-137.534 745.138,-143.763 750.893,-147.748"/>
</g>
<!-- Node25&#45;&gt;Node2 -->
<g id="edge106" class="edge"><title>Node25&#45;&gt;Node2</title>
<path fill="none" stroke="midnightblue" d="M1068.19,-304.43C1062.62,-290.64 1055.03,-265.924 1062,-246 1086.03,-177.28 1149.14,-115.309 1182.17,-86.3205"/>
<polygon fill="midnightblue" stroke="midnightblue" points="1184.59,-88.8571 1189.88,-79.677 1180.02,-83.5549 1184.59,-88.8571"/>
</g>
<!-- Node25&#45;&gt;Node5 -->
<g id="edge86" class="edge"><title>Node25&#45;&gt;Node5</title>
<path fill="none" stroke="midnightblue" d="M1013.82,-305.485C990.631,-298.785 965.838,-287.384 950,-268 907.153,-215.561 910.206,-128.803 914.265,-89.49"/>
<polygon fill="midnightblue" stroke="midnightblue" points="917.746,-89.8578 915.426,-79.5201 910.793,-89.048 917.746,-89.8578"/>
</g>
<!-- Node25&#45;&gt;Node8 -->
<g id="edge104" class="edge"><title>Node25&#45;&gt;Node8</title>
<path fill="none" stroke="midnightblue" d="M1024.47,-304.488C992.933,-296.674 951.434,-284.506 917,-268 850.412,-236.081 848.454,-201.693 780,-174 704.817,-143.585 610.502,-132.852 553.314,-129.065"/>
<polygon fill="midnightblue" stroke="midnightblue" points="553.276,-125.556 543.08,-128.436 552.847,-132.543 553.276,-125.556"/>
</g>
<!-- Node26 -->
<g id="node68" class="node"><title>Node26</title>
<polygon fill="white" stroke="#bfbfbf" points="959,-246.5 959,-267.5 1015,-267.5 1015,-246.5 959,-246.5"/>
<text text-anchor="middle" x="987" y="-254.5" font-family="Helvetica,sans-Serif" font-size="10.00">algorithm</text>
</g>
<!-- Node25&#45;&gt;Node26 -->
<g id="edge84" class="edge"><title>Node25&#45;&gt;Node26</title>
<path fill="none" stroke="midnightblue" d="M1057.23,-304.362C1044.38,-295.696 1026.02,-283.313 1011.29,-273.382"/>
<polygon fill="midnightblue" stroke="midnightblue" points="1012.92,-270.26 1002.67,-267.571 1009.01,-276.064 1012.92,-270.26"/>
</g>
<!-- Node27 -->
<g id="node71" class="node"><title>Node27</title>
<a xlink:href="../../d8/dcd/exp_8h.html" target="_top" xlink:title="blond/exp.h">
<polygon fill="white" stroke="black" points="1426.5,-246.5 1426.5,-267.5 1493.5,-267.5 1493.5,-246.5 1426.5,-246.5"/>
<text text-anchor="middle" x="1460" y="-254.5" font-family="Helvetica,sans-Serif" font-size="10.00">blond/exp.h</text>
</a>
</g>
<!-- Node25&#45;&gt;Node27 -->
<g id="edge88" class="edge"><title>Node25&#45;&gt;Node27</title>
<path fill="none" stroke="midnightblue" d="M1132.27,-309.127C1199.13,-302.011 1311.25,-288.598 1416.04,-268.232"/>
<polygon fill="midnightblue" stroke="midnightblue" points="1417.02,-271.606 1426.16,-266.239 1415.67,-264.738 1417.02,-271.606"/>
</g>
<!-- Node29 -->
<g id="node76" class="node"><title>Node29</title>
<polygon fill="white" stroke="#bfbfbf" points="1239,-181.5 1239,-202.5 1279,-202.5 1279,-181.5 1239,-181.5"/>
<text text-anchor="middle" x="1259" y="-189.5" font-family="Helvetica,sans-Serif" font-size="10.00">limits</text>
</g>
<!-- Node25&#45;&gt;Node29 -->
<g id="edge110" class="edge"><title>Node25&#45;&gt;Node29</title>
<path fill="none" stroke="midnightblue" d="M1089.18,-304.3C1121.83,-282.71 1195.76,-233.82 1234.41,-208.26"/>
<polygon fill="midnightblue" stroke="midnightblue" points="1236.58,-211.023 1242.99,-202.588 1232.72,-205.185 1236.58,-211.023"/>
</g>
<!-- Node30 -->
<g id="node78" class="node"><title>Node30</title>
<a xlink:href="../../d1/d3d/sin_8h.html" target="_top" xlink:title="blond/sin.h">
<polygon fill="white" stroke="black" points="1071,-246.5 1071,-267.5 1135,-267.5 1135,-246.5 1071,-246.5"/>
<text text-anchor="middle" x="1103" y="-254.5" font-family="Helvetica,sans-Serif" font-size="10.00">blond/sin.h</text>
</a>
</g>
<!-- Node25&#45;&gt;Node30 -->
<g id="edge96" class="edge"><title>Node25&#45;&gt;Node30</title>
<path fill="none" stroke="midnightblue" d="M1078.5,-304.362C1082.52,-296.595 1088.08,-285.843 1092.89,-276.546"/>
<polygon fill="midnightblue" stroke="midnightblue" points="1096.05,-278.061 1097.53,-267.571 1089.83,-274.845 1096.05,-278.061"/>
</g>
<!-- Node32 -->
<g id="node86" class="node"><title>Node32</title>
<polygon fill="white" stroke="#bfbfbf" points="1190.5,-246.5 1190.5,-267.5 1239.5,-267.5 1239.5,-246.5 1190.5,-246.5"/>
<text text-anchor="middle" x="1215" y="-254.5" font-family="Helvetica,sans-Serif" font-size="10.00">random</text>
</g>
<!-- Node25&#45;&gt;Node32 -->
<g id="edge108" class="edge"><title>Node25&#45;&gt;Node32</title>
<path fill="none" stroke="midnightblue" d="M1098.72,-304.497C1121.72,-295.102 1155.6,-281.262 1180.87,-270.942"/>
<polygon fill="midnightblue" stroke="midnightblue" points="1182.49,-274.059 1190.43,-267.037 1179.85,-267.578 1182.49,-274.059"/>
</g>
<!-- Node33 -->
<g id="node89" class="node"><title>Node33</title>
<polygon fill="white" stroke="#bfbfbf" points="1256.5,-246.5 1256.5,-267.5 1305.5,-267.5 1305.5,-246.5 1256.5,-246.5"/>
<text text-anchor="middle" x="1281" y="-254.5" font-family="Helvetica,sans-Serif" font-size="10.00">cassert</text>
</g>
<!-- Node25&#45;&gt;Node33 -->
<g id="edge112" class="edge"><title>Node25&#45;&gt;Node33</title>
<path fill="none" stroke="midnightblue" d="M1114.92,-304.487C1148.34,-295.939 1196.54,-283.241 1246.5,-268.353"/>
<polygon fill="midnightblue" stroke="midnightblue" points="1247.61,-271.675 1256.18,-265.447 1245.6,-264.97 1247.61,-271.675"/>
</g>
<!-- Node34 -->
<g id="node91" class="node"><title>Node34</title>
<a xlink:href="../../d1/db0/openmp_8h.html" target="_top" xlink:title="blond/openmp.h">
<polygon fill="white" stroke="black" points="1323,-246.5 1323,-267.5 1409,-267.5 1409,-246.5 1323,-246.5"/>
<text text-anchor="middle" x="1366" y="-254.5" font-family="Helvetica,sans-Serif" font-size="10.00">blond/openmp.h</text>
</a>
</g>
<!-- Node25&#45;&gt;Node34 -->
<g id="edge114" class="edge"><title>Node25&#45;&gt;Node34</title>
<path fill="none" stroke="midnightblue" d="M1128.57,-304.422C1175.16,-295.495 1243.71,-282.223 1312.7,-268.244"/>
<polygon fill="midnightblue" stroke="midnightblue" points="1313.78,-271.596 1322.88,-266.176 1312.38,-264.736 1313.78,-271.596"/>
</g>
<!-- Node28 -->
<g id="node73" class="node"><title>Node28</title>
<a xlink:href="../../df/de1/vdtcore__common_8h.html" target="_top" xlink:title="vdtcore_common.h">
<polygon fill="white" stroke="black" points="1192,-116.5 1192,-137.5 1292,-137.5 1292,-116.5 1192,-116.5"/>
<text text-anchor="middle" x="1242" y="-124.5" font-family="Helvetica,sans-Serif" font-size="10.00">vdtcore_common.h</text>
</a>
</g>
<!-- Node27&#45;&gt;Node28 -->
<g id="edge90" class="edge"><title>Node27&#45;&gt;Node28</title>
<path fill="none" stroke="midnightblue" d="M1442.16,-246.362C1403.82,-223.499 1313.41,-169.583 1268.4,-142.745"/>
<polygon fill="midnightblue" stroke="midnightblue" points="1270.16,-139.719 1259.78,-137.603 1266.58,-145.731 1270.16,-139.719"/>
</g>
<!-- Node27&#45;&gt;Node29 -->
<g id="edge94" class="edge"><title>Node27&#45;&gt;Node29</title>
<path fill="none" stroke="midnightblue" d="M1427.26,-246.412C1388.92,-234.015 1325.97,-213.657 1288.9,-201.671"/>
<polygon fill="midnightblue" stroke="midnightblue" points="1289.77,-198.272 1279.18,-198.525 1287.62,-204.932 1289.77,-198.272"/>
</g>
<!-- Node28&#45;&gt;Node2 -->
<g id="edge92" class="edge"><title>Node28&#45;&gt;Node2</title>
<path fill="none" stroke="midnightblue" d="M1234.85,-116.362C1229.51,-108.431 1222.09,-97.3885 1215.75,-87.9606"/>
<polygon fill="midnightblue" stroke="midnightblue" points="1218.59,-85.9161 1210.11,-79.5707 1212.78,-89.8221 1218.59,-85.9161"/>
</g>
<!-- Node31 -->
<g id="node80" class="node"><title>Node31</title>
<a xlink:href="../../dc/dfa/sincos_8h.html" target="_top" xlink:title="sincos.h">
<polygon fill="white" stroke="black" points="1137.5,-181.5 1137.5,-202.5 1190.5,-202.5 1190.5,-181.5 1137.5,-181.5"/>
<text text-anchor="middle" x="1164" y="-189.5" font-family="Helvetica,sans-Serif" font-size="10.00">sincos.h</text>
</a>
</g>
<!-- Node30&#45;&gt;Node31 -->
<g id="edge98" class="edge"><title>Node30&#45;&gt;Node31</title>
<path fill="none" stroke="midnightblue" d="M1113.07,-246.267C1122.31,-236.423 1136.18,-221.648 1147.11,-210"/>
<polygon fill="midnightblue" stroke="midnightblue" points="1149.82,-212.221 1154.11,-202.534 1144.72,-207.43 1149.82,-212.221"/>
</g>
<!-- Node31&#45;&gt;Node2 -->
<g id="edge102" class="edge"><title>Node31&#45;&gt;Node2</title>
<path fill="none" stroke="midnightblue" d="M1166.18,-181.022C1169.26,-166.106 1175.39,-138.694 1183,-116 1186.05,-106.915 1190.09,-97.125 1193.74,-88.8443"/>
<polygon fill="midnightblue" stroke="midnightblue" points="1196.97,-90.1943 1197.9,-79.6409 1190.59,-87.3075 1196.97,-90.1943"/>
</g>
<!-- Node31&#45;&gt;Node28 -->
<g id="edge100" class="edge"><title>Node31&#45;&gt;Node28</title>
<path fill="none" stroke="midnightblue" d="M1176.88,-181.267C1189.03,-171.139 1207.45,-155.792 1221.6,-144"/>
<polygon fill="midnightblue" stroke="midnightblue" points="1223.92,-146.624 1229.36,-137.534 1219.44,-141.247 1223.92,-146.624"/>
</g>
<!-- Node35&#45;&gt;Node5 -->
<g id="edge118" class="edge"><title>Node35&#45;&gt;Node5</title>
<path fill="none" stroke="midnightblue" d="M819.828,-304.083C825.324,-273.123 843.545,-182.683 879,-116 884.468,-105.716 892.338,-95.5139 899.5,-87.2562"/>
<polygon fill="midnightblue" stroke="midnightblue" points="902.205,-89.483 906.31,-79.7156 897.01,-84.7913 902.205,-89.483"/>
</g>
</g>
</svg>
