<?xml version="1.0" encoding="UTF-8" standalone="no"?>
<!DOCTYPE svg PUBLIC "-//W3C//DTD SVG 1.1//EN"
 "http://www.w3.org/Graphics/SVG/1.1/DTD/svg11.dtd">
<!-- Generated by graphviz version 2.26.3 (20100126.1600)
 -->
<!-- Title: constants.h Pages: 1 -->
<!--zoomable 146 -->
<svg id="main" version="1.1" xmlns="http://www.w3.org/2000/svg" xmlns:xlink="http://www.w3.org/1999/xlink" xml:space="preserve" onload="init(evt)">
        <defs>
                <circle id="rim" cx="0" cy="0" r="7"/>
                <circle id="rim2" cx="0" cy="0" r="3.5"/>
                <g id="zoomPlus">
                        <use xlink:href="#rim" fill="#404040">
                                <set attributeName="fill" to="#808080" begin="zoomplus.mouseover" end="zoomplus.mouseout"/>
                        </use>
                        <path d="M-4,0h8M0,-4v8" fill="none" stroke="white" stroke-width="1.5" pointer-events="none"/>
                </g>
                <g id="zoomMin">
                        <use xlink:href="#rim" fill="#404040">
                                <set attributeName="fill" to="#808080" begin="zoomminus.mouseover" end="zoomminus.mouseout"/>
                        </use>
                        <path d="M-4,0h8" fill="none" stroke="white" stroke-width="1.5" pointer-events="none"/>
                </g>
                <g id="dirArrow">
                        <path fill="none" stroke="white" stroke-width="1.5" d="M0,-3.0v7 M-2.5,-0.5L0,-3.0L2.5,-0.5"/>
                </g>
               <g id="resetDef">
                       <use xlink:href="#rim2" fill="#404040">
                               <set attributeName="fill" to="#808080" begin="reset.mouseover" end="reset.mouseout"/>
                       </use>
               </g>
        </defs>

<script type="text/javascript">
var viewWidth = 1057;
var viewHeight = 146;
var sectionId = 'dynsection-1';
</script>
<script xlink:href="../../svgpan.js"/>
<svg id="graph" class="graph">
<g id="viewport">
<title>constants.h</title>
<polygon fill="white" stroke="white" points="-4,5 -4,-142 1054.37,-142 1054.37,5 -4,5"/>
<!-- Node1 -->
<g id="node1" class="node"><title>Node1</title>
<polygon fill="#bfbfbf" stroke="black" points="540.923,-116.5 540.923,-137.5 608.923,-137.5 608.923,-116.5 540.923,-116.5"/>
<text text-anchor="middle" x="574.923" y="-124.5" font-family="Helvetica,sans-Serif" font-size="10.00">constants.h</text>
</g>
<!-- Node2 -->
<g id="node3" class="node"><title>Node2</title>
<a xlink:href="../../dc/d0f/Beams_8cpp.html" target="_top" xlink:title="Beams.cpp">
<polygon fill="white" stroke="black" points="372.923,-0.5 372.923,-21.5 438.923,-21.5 438.923,-0.5 372.923,-0.5"/>
<text text-anchor="middle" x="405.923" y="-8.5" font-family="Helvetica,sans-Serif" font-size="10.00">Beams.cpp</text>
</a>
</g>
<!-- Node1&#45;&gt;Node2 -->
<g id="edge2" class="edge"><title>Node1&#45;&gt;Node2</title>
<path fill="none" stroke="midnightblue" d="M530.441,-126.707C402.635,-125.407 41.2294,-118.343 5.92313,-80 -45.0935,-24.5957 267.948,-13.6082 372.665,-11.4906"/>
<polygon fill="midnightblue" stroke="midnightblue" points="530.621,-130.209 540.653,-126.804 530.687,-123.209 530.621,-130.209"/>
</g>
<!-- Node3 -->
<g id="node5" class="node"><title>Node3</title>
<a xlink:href="../../d5/dfa/InducedVoltage_8cpp.html" target="_top" xlink:title="InducedVoltage.cpp">
<polygon fill="white" stroke="black" points="14.4231,-58.5 14.4231,-79.5 117.423,-79.5 117.423,-58.5 14.4231,-58.5"/>
<text text-anchor="middle" x="65.9231" y="-66.5" font-family="Helvetica,sans-Serif" font-size="10.00">InducedVoltage.cpp</text>
</a>
</g>
<!-- Node1&#45;&gt;Node3 -->
<g id="edge4" class="edge"><title>Node1&#45;&gt;Node3</title>
<path fill="none" stroke="midnightblue" d="M530.44,-123.487C449.644,-116.852 273.487,-101.218 125.923,-80 123.198,-79.6081 120.407,-79.1824 117.592,-78.7337"/>
<polygon fill="midnightblue" stroke="midnightblue" points="530.483,-127.002 540.735,-124.326 531.052,-120.025 530.483,-127.002"/>
</g>
<!-- Node4 -->
<g id="node7" class="node"><title>Node4</title>
<a xlink:href="../../d1/dca/Intensity_8cpp.html" target="_top" xlink:title="Intensity.cpp">
<polygon fill="white" stroke="black" points="134.423,-58.5 134.423,-79.5 207.423,-79.5 207.423,-58.5 134.423,-58.5"/>
<text text-anchor="middle" x="170.923" y="-66.5" font-family="Helvetica,sans-Serif" font-size="10.00">Intensity.cpp</text>
</a>
</g>
<!-- Node1&#45;&gt;Node4 -->
<g id="edge6" class="edge"><title>Node1&#45;&gt;Node4</title>
<path fill="none" stroke="midnightblue" d="M530.477,-122.764C462.403,-115.921 328.382,-101.041 215.923,-80 213.235,-79.4971 210.468,-78.9338 207.689,-78.3349"/>
<polygon fill="midnightblue" stroke="midnightblue" points="530.525,-126.286 540.822,-123.793 531.218,-119.321 530.525,-126.286"/>
</g>
<!-- Node5 -->
<g id="node9" class="node"><title>Node5</title>
<a xlink:href="../../da/d56/GeneralParameters_8cpp.html" target="_top" xlink:title="GeneralParameters.cpp">
<polygon fill="white" stroke="black" points="224.423,-58.5 224.423,-79.5 343.423,-79.5 343.423,-58.5 224.423,-58.5"/>
<text text-anchor="middle" x="283.923" y="-66.5" font-family="Helvetica,sans-Serif" font-size="10.00">GeneralParameters.cpp</text>
</a>
</g>
<!-- Node1&#45;&gt;Node5 -->
<g id="edge8" class="edge"><title>Node1&#45;&gt;Node5</title>
<path fill="none" stroke="midnightblue" d="M530.752,-118.196C478.694,-107.82 392.263,-90.5935 336.719,-79.5229"/>
<polygon fill="midnightblue" stroke="midnightblue" points="530.195,-121.654 540.686,-120.176 531.563,-114.789 530.195,-121.654"/>
</g>
<!-- Node6 -->
<g id="node11" class="node"><title>Node6</title>
<a xlink:href="../../dc/d61/RfParameters_8cpp.html" target="_top" xlink:title="RfParameters.cpp">
<polygon fill="white" stroke="black" points="360.923,-58.5 360.923,-79.5 456.923,-79.5 456.923,-58.5 360.923,-58.5"/>
<text text-anchor="middle" x="408.923" y="-66.5" font-family="Helvetica,sans-Serif" font-size="10.00">RfParameters.cpp</text>
</a>
</g>
<!-- Node1&#45;&gt;Node6 -->
<g id="edge10" class="edge"><title>Node1&#45;&gt;Node6</title>
<path fill="none" stroke="midnightblue" d="M535.267,-113.144C505.727,-102.823 466.004,-88.9439 439.041,-79.5231"/>
<polygon fill="midnightblue" stroke="midnightblue" points="534.267,-116.502 544.862,-116.497 536.576,-109.894 534.267,-116.502"/>
</g>
<!-- Node7 -->
<g id="node13" class="node"><title>Node7</title>
<a xlink:href="../../d3/db7/LHCNoiseFB_8cpp.html" target="_top" xlink:title="LHCNoiseFB.cpp">
<polygon fill="white" stroke="black" points="474.923,-58.5 474.923,-79.5 568.923,-79.5 568.923,-58.5 474.923,-58.5"/>
<text text-anchor="middle" x="521.923" y="-66.5" font-family="Helvetica,sans-Serif" font-size="10.00">LHCNoiseFB.cpp</text>
</a>
</g>
<!-- Node1&#45;&gt;Node7 -->
<g id="edge12" class="edge"><title>Node1&#45;&gt;Node7</title>
<path fill="none" stroke="midnightblue" d="M558.319,-108.83C549.527,-99.2078 539.037,-87.7282 531.583,-79.5707"/>
<polygon fill="midnightblue" stroke="midnightblue" points="555.873,-111.341 565.202,-116.362 561.04,-106.619 555.873,-111.341"/>
</g>
<!-- Node8 -->
<g id="node15" class="node"><title>Node8</title>
<a xlink:href="../../db/dee/PhaseLoop_8cpp.html" target="_top" xlink:title="PhaseLoop.cpp">
<polygon fill="white" stroke="black" points="586.923,-58.5 586.923,-79.5 670.923,-79.5 670.923,-58.5 586.923,-58.5"/>
<text text-anchor="middle" x="628.923" y="-66.5" font-family="Helvetica,sans-Serif" font-size="10.00">PhaseLoop.cpp</text>
</a>
</g>
<!-- Node1&#45;&gt;Node8 -->
<g id="edge14" class="edge"><title>Node1&#45;&gt;Node8</title>
<path fill="none" stroke="midnightblue" d="M591.84,-108.83C600.799,-99.2078 611.486,-87.7282 619.081,-79.5707"/>
<polygon fill="midnightblue" stroke="midnightblue" points="589.08,-106.658 584.828,-116.362 594.203,-111.428 589.08,-106.658"/>
</g>
<!-- Node9 -->
<g id="node17" class="node"><title>Node9</title>
<a xlink:href="../../db/d82/PhaseNoise_8cpp.html" target="_top" xlink:title="PhaseNoise.cpp">
<polygon fill="white" stroke="black" points="688.423,-58.5 688.423,-79.5 777.423,-79.5 777.423,-58.5 688.423,-58.5"/>
<text text-anchor="middle" x="732.923" y="-66.5" font-family="Helvetica,sans-Serif" font-size="10.00">PhaseNoise.cpp</text>
</a>
</g>
<!-- Node1&#45;&gt;Node9 -->
<g id="edge16" class="edge"><title>Node1&#45;&gt;Node9</title>
<path fill="none" stroke="midnightblue" d="M613.035,-113.009C641.113,-102.702 678.705,-88.903 704.257,-79.5231"/>
<polygon fill="midnightblue" stroke="midnightblue" points="611.717,-109.765 603.536,-116.497 614.129,-116.336 611.717,-109.765"/>
</g>
<!-- Node10 -->
<g id="node19" class="node"><title>Node10</title>
<a xlink:href="../../d2/d6f/Tracker_8cpp.html" target="_top" xlink:title="Tracker.cpp">
<polygon fill="white" stroke="black" points="794.923,-58.5 794.923,-79.5 862.923,-79.5 862.923,-58.5 794.923,-58.5"/>
<text text-anchor="middle" x="828.923" y="-66.5" font-family="Helvetica,sans-Serif" font-size="10.00">Tracker.cpp</text>
</a>
</g>
<!-- Node1&#45;&gt;Node10 -->
<g id="edge18" class="edge"><title>Node1&#45;&gt;Node10</title>
<path fill="none" stroke="midnightblue" d="M618.784,-117.649C661.526,-108.437 728.31,-93.7823 785.923,-80 788.771,-79.3187 791.721,-78.5974 794.68,-77.8628"/>
<polygon fill="midnightblue" stroke="midnightblue" points="618.026,-114.232 608.985,-119.756 619.497,-121.075 618.026,-114.232"/>
</g>
<!-- Node11 -->
<g id="node21" class="node"><title>Node11</title>
<a xlink:href="../../de/da5/utilities_8cpp.html" target="_top" xlink:title="utilities.cpp">
<polygon fill="white" stroke="black" points="952.923,-0.5 952.923,-21.5 1018.92,-21.5 1018.92,-0.5 952.923,-0.5"/>
<text text-anchor="middle" x="985.923" y="-8.5" font-family="Helvetica,sans-Serif" font-size="10.00">utilities.cpp</text>
</a>
</g>
<!-- Node1&#45;&gt;Node11 -->
<g id="edge20" class="edge"><title>Node1&#45;&gt;Node11</title>
<path fill="none" stroke="midnightblue" d="M619.385,-125.868C730.926,-122.571 1015.73,-111.155 1043.92,-80 1062.09,-59.9248 1029.21,-35.4715 1005.99,-21.7254"/>
<polygon fill="midnightblue" stroke="midnightblue" points="619.041,-122.376 609.146,-126.162 619.242,-129.374 619.041,-122.376"/>
</g>
<!-- Node12 -->
<g id="node23" class="node"><title>Node12</title>
<a xlink:href="../../dc/d7d/Distributions_8h.html" target="_top" xlink:title="Distributions.h">
<polygon fill="white" stroke="black" points="954.923,-58.5 954.923,-79.5 1034.92,-79.5 1034.92,-58.5 954.923,-58.5"/>
<text text-anchor="middle" x="994.923" y="-66.5" font-family="Helvetica,sans-Serif" font-size="10.00">Distributions.h</text>
</a>
</g>
<!-- Node1&#45;&gt;Node12 -->
<g id="edge22" class="edge"><title>Node1&#45;&gt;Node12</title>
<path fill="none" stroke="midnightblue" d="M619.285,-122.754C689.083,-115.765 828.677,-100.539 945.923,-80 948.843,-79.4885 951.852,-78.9188 954.874,-78.3155"/>
<polygon fill="midnightblue" stroke="midnightblue" points="618.706,-119.294 609.1,-123.765 619.397,-126.26 618.706,-119.294"/>
</g>
<!-- Node13 -->
<g id="node25" class="node"><title>Node13</title>
<a xlink:href="../../de/d44/trackers_2utilities_8h.html" target="_top" xlink:title="utilities.h">
<polygon fill="white" stroke="black" points="880.923,-58.5 880.923,-79.5 936.923,-79.5 936.923,-58.5 880.923,-58.5"/>
<text text-anchor="middle" x="908.923" y="-66.5" font-family="Helvetica,sans-Serif" font-size="10.00">utilities.h</text>
</a>
</g>
<!-- Node1&#45;&gt;Node13 -->
<g id="edge24" class="edge"><title>Node1&#45;&gt;Node13</title>
<path fill="none" stroke="midnightblue" d="M619.028,-121.87C677.334,-114.667 783.071,-100.146 871.923,-80 874.799,-79.348 877.779,-78.5952 880.743,-77.7954"/>
<polygon fill="midnightblue" stroke="midnightblue" points="618.554,-118.401 609.052,-123.088 619.403,-125.35 618.554,-118.401"/>
</g>
<!-- Node13&#45;&gt;Node2 -->
<g id="edge26" class="edge"><title>Node13&#45;&gt;Node2</title>
<path fill="none" stroke="midnightblue" d="M870.835,-58.0904C703.969,-25.9472 514.249,-15.3722 439.005,-12.1964"/>
<polygon fill="midnightblue" stroke="midnightblue" points="870.292,-61.5506 880.778,-60.0371 871.637,-54.681 870.292,-61.5506"/>
</g>
<!-- Node13&#45;&gt;Node11 -->
<g id="edge28" class="edge"><title>Node13&#45;&gt;Node11</title>
<path fill="none" stroke="midnightblue" d="M931.149,-52.2587C944.285,-42.3641 960.518,-30.1361 971.89,-21.5707"/>
<polygon fill="midnightblue" stroke="midnightblue" points="928.928,-49.5496 923.046,-58.3619 933.139,-55.1409 928.928,-49.5496"/>
</g>
</g>
</svg>
        <g id="navigator" transform="translate(0 0)" fill="#404254">
                <rect fill="#f2f5e9" fill-opacity="0.5" stroke="#606060" stroke-width=".5" x="0" y="0" width="60" height="60"/>
                <use id="zoomplus" xlink:href="#zoomPlus" x="17" y="9" onmousedown="handleZoom(evt,'in')"/>
                <use id="zoomminus" xlink:href="#zoomMin" x="42" y="9" onmousedown="handleZoom(evt,'out')"/>
                <use id="reset" xlink:href="#resetDef" x="30" y="36" onmousedown="handleReset()"/>
                <g id="arrowUp" xlink:href="#dirArrow" transform="translate(30 24)" onmousedown="handlePan(0,-1)">
                  <use xlink:href="#rim" fill="#404040">
                        <set attributeName="fill" to="#808080" begin="arrowUp.mouseover" end="arrowUp.mouseout"/>
                  </use>
                  <path fill="none" stroke="white" stroke-width="1.5" d="M0,-3.0v7 M-2.5,-0.5L0,-3.0L2.5,-0.5"/>
                </g>
                <g id="arrowRight" xlink:href="#dirArrow" transform="rotate(90) translate(36 -43)" onmousedown="handlePan(1,0)">
                  <use xlink:href="#rim" fill="#404040">
                        <set attributeName="fill" to="#808080" begin="arrowRight.mouseover" end="arrowRight.mouseout"/>
                  </use>
                  <path fill="none" stroke="white" stroke-width="1.5" d="M0,-3.0v7 M-2.5,-0.5L0,-3.0L2.5,-0.5"/>
                </g>
                <g id="arrowDown" xlink:href="#dirArrow" transform="rotate(180) translate(-30 -48)" onmousedown="handlePan(0,1)">
                  <use xlink:href="#rim" fill="#404040">
                        <set attributeName="fill" to="#808080" begin="arrowDown.mouseover" end="arrowDown.mouseout"/>
                  </use>
                  <path fill="none" stroke="white" stroke-width="1.5" d="M0,-3.0v7 M-2.5,-0.5L0,-3.0L2.5,-0.5"/>
                </g>
                <g id="arrowLeft" xlink:href="#dirArrow" transform="rotate(270) translate(-36 17)" onmousedown="handlePan(-1,0)">
                  <use xlink:href="#rim" fill="#404040">
                        <set attributeName="fill" to="#808080" begin="arrowLeft.mouseover" end="arrowLeft.mouseout"/>
                  </use>
                  <path fill="none" stroke="white" stroke-width="1.5" d="M0,-3.0v7 M-2.5,-0.5L0,-3.0L2.5,-0.5"/>
                </g>
        </g>
        <svg viewBox="0 0 15 15" width="100%" height="30px" preserveAspectRatio="xMaxYMin meet">
         <g id="arrow_out" transform="scale(0.3 0.3)">
          <a xlink:href="constants_8h__dep__incl_org.svg" target="_base">
           <rect id="button" ry="5" rx="5" y="6" x="6" height="38" width="38"
                fill="#f2f5e9" fill-opacity="0.5" stroke="#606060" stroke-width="1.0"/>
           <path id="arrow"
             d="M 11.500037,31.436501 C 11.940474,20.09759 22.043105,11.32322 32.158766,21.979434 L 37.068811,17.246167 C 37.068811,17.246167 37.088388,32 37.088388,32 L 22.160133,31.978069 C 22.160133,31.978069 26.997745,27.140456 26.997745,27.140456 C 18.528582,18.264221 13.291696,25.230495 11.500037,31.436501 z"
             style="fill:#404040;"/>
          </a>
         </g>
        </svg>
</svg>
