<?xml version="1.0" encoding="UTF-8" standalone="no"?>
<!DOCTYPE svg PUBLIC "-//W3C//DTD SVG 1.1//EN"
 "http://www.w3.org/Graphics/SVG/1.1/DTD/svg11.dtd">
<!-- Generated by graphviz version 2.26.3 (20100126.1600)
 -->
<!-- Title: constants.h Pages: 1 -->
<svg width="2056pt" height="494pt"
 viewBox="0.00 0.00 2056.00 494.00" xmlns="http://www.w3.org/2000/svg" xmlns:xlink="http://www.w3.org/1999/xlink">
<g id="graph1" class="graph" transform="scale(1 1) rotate(0) translate(4 490)">
<title>constants.h</title>
<polygon fill="white" stroke="white" points="-4,5 -4,-490 2053,-490 2053,5 -4,5"/>
<!-- Node1 -->
<g id="node1" class="node"><title>Node1</title>
<polygon fill="#bfbfbf" stroke="black" points="1519,-464.5 1519,-485.5 1587,-485.5 1587,-464.5 1519,-464.5"/>
<text text-anchor="middle" x="1553" y="-472.5" font-family="Helvetica,sans-Serif" font-size="10.00">constants.h</text>
</g>
<!-- Node2 -->
<g id="node3" class="node"><title>Node2</title>
<a xlink:href="../../dc/d0f/Beams_8cpp.html" target="_top" xlink:title="Beams.cpp">
<polygon fill="white" stroke="black" points="1520,-290.5 1520,-311.5 1586,-311.5 1586,-290.5 1520,-290.5"/>
<text text-anchor="middle" x="1553" y="-298.5" font-family="Helvetica,sans-Serif" font-size="10.00">Beams.cpp</text>
</a>
</g>
<!-- Node1&#45;&gt;Node2 -->
<g id="edge2" class="edge"><title>Node1&#45;&gt;Node2</title>
<path fill="none" stroke="midnightblue" d="M1553,-454.2C1553,-417.013 1553,-340.36 1553,-311.928"/>
<polygon fill="midnightblue" stroke="midnightblue" points="1549.5,-454.377 1553,-464.377 1556.5,-454.377 1549.5,-454.377"/>
</g>
<!-- Node3 -->
<g id="node5" class="node"><title>Node3</title>
<a xlink:href="../../d5/dfa/InducedVoltage_8cpp.html" target="_top" xlink:title="InducedVoltage.cpp">
<polygon fill="white" stroke="black" points="917.5,-232.5 917.5,-253.5 1020.5,-253.5 1020.5,-232.5 917.5,-232.5"/>
<text text-anchor="middle" x="969" y="-240.5" font-family="Helvetica,sans-Serif" font-size="10.00">InducedVoltage.cpp</text>
</a>
</g>
<!-- Node1&#45;&gt;Node3 -->
<g id="edge4" class="edge"><title>Node1&#45;&gt;Node3</title>
<path fill="none" stroke="midnightblue" d="M1508.78,-471.403C1431.01,-464.634 1273.13,-448.793 1222,-428 1115.14,-384.547 1011.76,-286.192 979.382,-253.666"/>
<polygon fill="midnightblue" stroke="midnightblue" points="1508.5,-474.891 1518.76,-472.259 1509.09,-467.917 1508.5,-474.891"/>
</g>
<!-- Node4 -->
<g id="node7" class="node"><title>Node4</title>
<a xlink:href="../../d1/dca/Intensity_8cpp.html" target="_top" xlink:title="Intensity.cpp">
<polygon fill="white" stroke="black" points="1839.5,-406.5 1839.5,-427.5 1912.5,-427.5 1912.5,-406.5 1839.5,-406.5"/>
<text text-anchor="middle" x="1876" y="-414.5" font-family="Helvetica,sans-Serif" font-size="10.00">Intensity.cpp</text>
</a>
</g>
<!-- Node1&#45;&gt;Node4 -->
<g id="edge6" class="edge"><title>Node1&#45;&gt;Node4</title>
<path fill="none" stroke="midnightblue" d="M1597.08,-468.053C1651.14,-459.384 1745.53,-443.771 1826,-428 1830.36,-427.145 1834.93,-426.205 1839.45,-425.245"/>
<polygon fill="midnightblue" stroke="midnightblue" points="1596.46,-464.606 1587.14,-469.64 1597.57,-471.519 1596.46,-464.606"/>
</g>
<!-- Node5 -->
<g id="node9" class="node"><title>Node5</title>
<a xlink:href="../../d6/df4/Music_8cpp.html" target="_top" xlink:title="Music.cpp">
<polygon fill="white" stroke="black" points="1490,-232.5 1490,-253.5 1552,-253.5 1552,-232.5 1490,-232.5"/>
<text text-anchor="middle" x="1521" y="-240.5" font-family="Helvetica,sans-Serif" font-size="10.00">Music.cpp</text>
</a>
</g>
<!-- Node1&#45;&gt;Node5 -->
<g id="edge8" class="edge"><title>Node1&#45;&gt;Node5</title>
<path fill="none" stroke="midnightblue" d="M1591.75,-460.769C1665.61,-431.555 1814.19,-361.529 1755,-290 1727.74,-257.06 1607.78,-263.079 1566,-254 1561.6,-253.044 1556.97,-251.979 1552.42,-250.9"/>
<polygon fill="midnightblue" stroke="midnightblue" points="1590.32,-457.566 1582.27,-464.453 1592.86,-464.09 1590.32,-457.566"/>
</g>
<!-- Node6 -->
<g id="node11" class="node"><title>Node6</title>
<a xlink:href="../../da/d56/GeneralParameters_8cpp.html" target="_top" xlink:title="GeneralParameters.cpp">
<polygon fill="white" stroke="black" points="1929.5,-406.5 1929.5,-427.5 2048.5,-427.5 2048.5,-406.5 1929.5,-406.5"/>
<text text-anchor="middle" x="1989" y="-414.5" font-family="Helvetica,sans-Serif" font-size="10.00">GeneralParameters.cpp</text>
</a>
</g>
<!-- Node1&#45;&gt;Node6 -->
<g id="edge10" class="edge"><title>Node1&#45;&gt;Node6</title>
<path fill="none" stroke="midnightblue" d="M1597.13,-469.845C1666.27,-461.662 1804.28,-444.889 1921,-428 1923.72,-427.606 1926.5,-427.194 1929.31,-426.771"/>
<polygon fill="midnightblue" stroke="midnightblue" points="1596.56,-466.388 1587.04,-471.037 1597.39,-473.34 1596.56,-466.388"/>
</g>
<!-- Node7 -->
<g id="node13" class="node"><title>Node7</title>
<a xlink:href="../../d3/db7/LHCNoiseFB_8cpp.html" target="_top" xlink:title="LHCNoiseFB.cpp">
<polygon fill="white" stroke="black" points="806,-232.5 806,-253.5 900,-253.5 900,-232.5 806,-232.5"/>
<text text-anchor="middle" x="853" y="-240.5" font-family="Helvetica,sans-Serif" font-size="10.00">LHCNoiseFB.cpp</text>
</a>
</g>
<!-- Node1&#45;&gt;Node7 -->
<g id="edge12" class="edge"><title>Node1&#45;&gt;Node7</title>
<path fill="none" stroke="midnightblue" d="M1508.64,-473.243C1444.18,-469.681 1321.45,-459.078 1222,-428 1076.99,-382.684 919.096,-285.551 869.104,-253.501"/>
<polygon fill="midnightblue" stroke="midnightblue" points="1508.68,-476.75 1518.85,-473.775 1509.05,-469.759 1508.68,-476.75"/>
</g>
<!-- Node8 -->
<g id="node15" class="node"><title>Node8</title>
<a xlink:href="../../db/dee/PhaseLoop_8cpp.html" target="_top" xlink:title="PhaseLoop.cpp">
<polygon fill="white" stroke="black" points="830,-116.5 830,-137.5 914,-137.5 914,-116.5 830,-116.5"/>
<text text-anchor="middle" x="872" y="-124.5" font-family="Helvetica,sans-Serif" font-size="10.00">PhaseLoop.cpp</text>
</a>
</g>
<!-- Node1&#45;&gt;Node8 -->
<g id="edge14" class="edge"><title>Node1&#45;&gt;Node8</title>
<path fill="none" stroke="midnightblue" d="M1515.7,-460.292C1477.6,-442.526 1424,-408.701 1424,-359 1424,-359 1424,-359 1424,-243 1424,-190.977 1043.66,-145.393 914.398,-131.403"/>
<polygon fill="midnightblue" stroke="midnightblue" points="1514.45,-463.568 1525.01,-464.462 1517.31,-457.18 1514.45,-463.568"/>
</g>
<!-- Node9 -->
<g id="node17" class="node"><title>Node9</title>
<a xlink:href="../../db/d82/PhaseNoise_8cpp.html" target="_top" xlink:title="PhaseNoise.cpp">
<polygon fill="white" stroke="black" points="832.5,-174.5 832.5,-195.5 921.5,-195.5 921.5,-174.5 832.5,-174.5"/>
<text text-anchor="middle" x="877" y="-182.5" font-family="Helvetica,sans-Serif" font-size="10.00">PhaseNoise.cpp</text>
</a>
</g>
<!-- Node1&#45;&gt;Node9 -->
<g id="edge16" class="edge"><title>Node1&#45;&gt;Node9</title>
<path fill="none" stroke="midnightblue" d="M1509.24,-462.506C1480.61,-453.871 1442.6,-441.535 1410,-428 1252.13,-362.458 1217.25,-335.521 1067,-254 1049.85,-244.693 1046.88,-239.821 1029,-232 993.444,-216.447 951.132,-203.809 920.19,-195.571"/>
<polygon fill="midnightblue" stroke="midnightblue" points="1508.37,-465.899 1518.96,-465.402 1510.37,-459.191 1508.37,-465.899"/>
</g>
<!-- Node10 -->
<g id="node19" class="node"><title>Node10</title>
<a xlink:href="../../d2/d6f/Tracker_8cpp.html" target="_top" xlink:title="Tracker.cpp">
<polygon fill="white" stroke="black" points="1398,-58.5 1398,-79.5 1466,-79.5 1466,-58.5 1398,-58.5"/>
<text text-anchor="middle" x="1432" y="-66.5" font-family="Helvetica,sans-Serif" font-size="10.00">Tracker.cpp</text>
</a>
</g>
<!-- Node1&#45;&gt;Node10 -->
<g id="edge18" class="edge"><title>Node1&#45;&gt;Node10</title>
<path fill="none" stroke="midnightblue" d="M1596.92,-464.889C1626.08,-457.152 1664.62,-444.918 1696,-428 1758.01,-394.566 1807.69,-351.877 1774,-290 1737.83,-223.566 1523.15,-113.768 1453.68,-79.5292"/>
<polygon fill="midnightblue" stroke="midnightblue" points="1595.83,-461.555 1587.02,-467.439 1597.58,-468.333 1595.83,-461.555"/>
</g>
<!-- Node11 -->
<g id="node21" class="node"><title>Node11</title>
<a xlink:href="../../de/da5/utilities_8cpp.html" target="_top" xlink:title="utilities.cpp">
<polygon fill="white" stroke="black" points="1680,-290.5 1680,-311.5 1746,-311.5 1746,-290.5 1680,-290.5"/>
<text text-anchor="middle" x="1713" y="-298.5" font-family="Helvetica,sans-Serif" font-size="10.00">utilities.cpp</text>
</a>
</g>
<!-- Node1&#45;&gt;Node11 -->
<g id="edge20" class="edge"><title>Node1&#45;&gt;Node11</title>
<path fill="none" stroke="midnightblue" d="M1569.55,-457.005C1602.65,-421.01 1676.13,-341.096 1702.95,-311.928"/>
<polygon fill="midnightblue" stroke="midnightblue" points="1566.96,-454.647 1562.77,-464.377 1572.11,-459.385 1566.96,-454.647"/>
</g>
<!-- Node12 -->
<g id="node23" class="node"><title>Node12</title>
<a xlink:href="../../d5/dde/blond_8h.html" target="_top" xlink:title="blond.h">
<polygon fill="white" stroke="black" points="660,-0.5 660,-21.5 708,-21.5 708,-0.5 660,-0.5"/>
<text text-anchor="middle" x="684" y="-8.5" font-family="Helvetica,sans-Serif" font-size="10.00">blond.h</text>
</a>
</g>
<!-- Node1&#45;&gt;Node12 -->
<g id="edge22" class="edge"><title>Node1&#45;&gt;Node12</title>
<path fill="none" stroke="midnightblue" d="M1508.87,-473.945C1325.86,-469.453 625.832,-451.089 406,-428 223.969,-408.881 0,-542.032 0,-359 0,-359 0,-359 0,-127 0,-87.783 20.3277,-76.3251 55,-58 109.277,-29.3133 551.117,-14.8196 659.879,-11.6658"/>
<polygon fill="midnightblue" stroke="midnightblue" points="1508.86,-477.446 1518.94,-474.191 1509.03,-470.448 1508.86,-477.446"/>
</g>
<!-- Node13 -->
<g id="node25" class="node"><title>Node13</title>
<a xlink:href="../../d6/db7/RfParameters_8h.html" target="_top" xlink:title="RfParameters.h">
<polygon fill="white" stroke="black" points="415,-406.5 415,-427.5 501,-427.5 501,-406.5 415,-406.5"/>
<text text-anchor="middle" x="458" y="-414.5" font-family="Helvetica,sans-Serif" font-size="10.00">RfParameters.h</text>
</a>
</g>
<!-- Node1&#45;&gt;Node13 -->
<g id="edge24" class="edge"><title>Node1&#45;&gt;Node13</title>
<path fill="none" stroke="midnightblue" d="M1508.73,-472.655C1331.76,-463.281 676.362,-428.566 501.252,-419.291"/>
<polygon fill="midnightblue" stroke="midnightblue" points="1508.55,-476.151 1518.72,-473.185 1508.92,-469.16 1508.55,-476.151"/>
</g>
<!-- Node37 -->
<g id="node116" class="node"><title>Node37</title>
<a xlink:href="../../de/d44/trackers_2utilities_8h.html" target="_top" xlink:title="utilities.h">
<polygon fill="white" stroke="black" points="1583,-348.5 1583,-369.5 1639,-369.5 1639,-348.5 1583,-348.5"/>
<text text-anchor="middle" x="1611" y="-356.5" font-family="Helvetica,sans-Serif" font-size="10.00">utilities.h</text>
</a>
</g>
<!-- Node1&#45;&gt;Node37 -->
<g id="edge168" class="edge"><title>Node1&#45;&gt;Node37</title>
<path fill="none" stroke="midnightblue" d="M1562.94,-455.121C1575.3,-430.396 1595.96,-389.082 1605.66,-369.679"/>
<polygon fill="midnightblue" stroke="midnightblue" points="1559.69,-453.785 1558.35,-464.295 1565.96,-456.916 1559.69,-453.785"/>
</g>
<!-- Node13&#45;&gt;Node12 -->
<g id="edge142" class="edge"><title>Node13&#45;&gt;Node12</title>
<path fill="none" stroke="midnightblue" d="M404.455,-413.475C291.265,-404.554 38,-376.19 38,-301 38,-301 38,-301 38,-127 38,-86.9383 60.3877,-76.3495 96,-58 146.752,-31.8496 555.261,-15.5943 659.737,-11.838"/>
<polygon fill="midnightblue" stroke="midnightblue" points="404.396,-416.981 414.635,-414.255 404.931,-410.001 404.396,-416.981"/>
</g>
<!-- Node14 -->
<g id="node27" class="node"><title>Node14</title>
<a xlink:href="../../dc/d61/RfParameters_8cpp.html" target="_top" xlink:title="RfParameters.cpp">
<polygon fill="white" stroke="black" points="280,-348.5 280,-369.5 376,-369.5 376,-348.5 280,-348.5"/>
<text text-anchor="middle" x="328" y="-356.5" font-family="Helvetica,sans-Serif" font-size="10.00">RfParameters.cpp</text>
</a>
</g>
<!-- Node13&#45;&gt;Node14 -->
<g id="edge26" class="edge"><title>Node13&#45;&gt;Node14</title>
<path fill="none" stroke="midnightblue" d="M425.148,-402.343C402.302,-392.15 372.374,-378.798 351.806,-369.621"/>
<polygon fill="midnightblue" stroke="midnightblue" points="423.9,-405.618 434.458,-406.497 426.752,-399.226 423.9,-405.618"/>
</g>
<!-- Node15 -->
<g id="node29" class="node"><title>Node15</title>
<a xlink:href="../../d7/d74/Beams_8h.html" target="_top" xlink:title="Beams.h">
<polygon fill="white" stroke="black" points="593,-348.5 593,-369.5 649,-369.5 649,-348.5 593,-348.5"/>
<text text-anchor="middle" x="621" y="-356.5" font-family="Helvetica,sans-Serif" font-size="10.00">Beams.h</text>
</a>
</g>
<!-- Node13&#45;&gt;Node15 -->
<g id="edge28" class="edge"><title>Node13&#45;&gt;Node15</title>
<path fill="none" stroke="midnightblue" d="M491.789,-402.882C521.726,-391.725 564.742,-376.536 592.872,-367.268"/>
<polygon fill="midnightblue" stroke="midnightblue" points="490.306,-399.7 482.178,-406.497 492.77,-406.252 490.306,-399.7"/>
</g>
<!-- Node18 -->
<g id="node38" class="node"><title>Node18</title>
<a xlink:href="../../d5/d87/globals_8h.html" target="_top" xlink:title="globals.h">
<polygon fill="white" stroke="black" points="593,-290.5 593,-311.5 649,-311.5 649,-290.5 593,-290.5"/>
<text text-anchor="middle" x="621" y="-298.5" font-family="Helvetica,sans-Serif" font-size="10.00">globals.h</text>
</a>
</g>
<!-- Node13&#45;&gt;Node18 -->
<g id="edge144" class="edge"><title>Node13&#45;&gt;Node18</title>
<path fill="none" stroke="midnightblue" d="M476.96,-399.988C508.495,-375.648 570.664,-331.61 602.147,-311.512"/>
<polygon fill="midnightblue" stroke="midnightblue" points="474.632,-397.366 468.929,-406.295 478.956,-402.872 474.632,-397.366"/>
</g>
<!-- Node22 -->
<g id="node53" class="node"><title>Node22</title>
<a xlink:href="../../d0/da6/Monitors_8h.html" target="_top" xlink:title="Monitors.h">
<polygon fill="white" stroke="black" points="392,-116.5 392,-137.5 454,-137.5 454,-116.5 392,-116.5"/>
<text text-anchor="middle" x="423" y="-124.5" font-family="Helvetica,sans-Serif" font-size="10.00">Monitors.h</text>
</a>
</g>
<!-- Node13&#45;&gt;Node22 -->
<g id="edge146" class="edge"><title>Node13&#45;&gt;Node22</title>
<path fill="none" stroke="midnightblue" d="M440.084,-398.535C433.41,-390.444 426.588,-380.424 423,-370 393.614,-284.635 413.358,-172.183 420.627,-137.583"/>
<polygon fill="midnightblue" stroke="midnightblue" points="437.607,-401.017 446.845,-406.204 442.857,-396.388 437.607,-401.017"/>
</g>
<!-- Node32 -->
<g id="node89" class="node"><title>Node32</title>
<a xlink:href="../../d8/d94/plot__beams_8h.html" target="_top" xlink:title="plot_beams.h">
<polygon fill="white" stroke="black" points="279.5,-290.5 279.5,-311.5 354.5,-311.5 354.5,-290.5 279.5,-290.5"/>
<text text-anchor="middle" x="317" y="-298.5" font-family="Helvetica,sans-Serif" font-size="10.00">plot_beams.h</text>
</a>
</g>
<!-- Node13&#45;&gt;Node32 -->
<g id="edge148" class="edge"><title>Node13&#45;&gt;Node32</title>
<path fill="none" stroke="midnightblue" d="M404.582,-410.872C355.29,-403.987 287.335,-390.948 271,-370 255.596,-350.245 282.382,-325.468 301.123,-311.622"/>
<polygon fill="midnightblue" stroke="midnightblue" points="404.414,-414.381 414.792,-412.248 405.349,-407.443 404.414,-414.381"/>
</g>
<!-- Node33 -->
<g id="node93" class="node"><title>Node33</title>
<a xlink:href="../../dc/df2/Slices_8h.html" target="_top" xlink:title="Slices.h">
<polygon fill="white" stroke="black" points="432,-348.5 432,-369.5 484,-369.5 484,-348.5 432,-348.5"/>
<text text-anchor="middle" x="458" y="-356.5" font-family="Helvetica,sans-Serif" font-size="10.00">Slices.h</text>
</a>
</g>
<!-- Node13&#45;&gt;Node33 -->
<g id="edge120" class="edge"><title>Node13&#45;&gt;Node33</title>
<path fill="none" stroke="midnightblue" d="M458,-396.191C458,-387.168 458,-376.994 458,-369.571"/>
<polygon fill="midnightblue" stroke="midnightblue" points="454.5,-396.362 458,-406.362 461.5,-396.362 454.5,-396.362"/>
</g>
<!-- Node34 -->
<g id="node101" class="node"><title>Node34</title>
<a xlink:href="../../d2/d51/plot__slices_8h.html" target="_top" xlink:title="plot_slices.h">
<polygon fill="white" stroke="black" points="112.5,-290.5 112.5,-311.5 183.5,-311.5 183.5,-290.5 112.5,-290.5"/>
<text text-anchor="middle" x="148" y="-298.5" font-family="Helvetica,sans-Serif" font-size="10.00">plot_slices.h</text>
</a>
</g>
<!-- Node13&#45;&gt;Node34 -->
<g id="edge156" class="edge"><title>Node13&#45;&gt;Node34</title>
<path fill="none" stroke="midnightblue" d="M404.79,-411.9C339.554,-404.867 233.52,-390.671 200,-370 176.891,-355.749 160.465,-327.157 152.824,-311.627"/>
<polygon fill="midnightblue" stroke="midnightblue" points="404.58,-415.397 414.893,-412.967 405.316,-408.436 404.58,-415.397"/>
</g>
<!-- Node36 -->
<g id="node111" class="node"><title>Node36</title>
<a xlink:href="../../d3/dda/plot__llrf_8h.html" target="_top" xlink:title="plot_llrf.h">
<polygon fill="white" stroke="black" points="163,-116.5 163,-137.5 219,-137.5 219,-116.5 163,-116.5"/>
<text text-anchor="middle" x="191" y="-124.5" font-family="Helvetica,sans-Serif" font-size="10.00">plot_llrf.h</text>
</a>
</g>
<!-- Node13&#45;&gt;Node36 -->
<g id="edge150" class="edge"><title>Node13&#45;&gt;Node36</title>
<path fill="none" stroke="midnightblue" d="M404.706,-408.483C355.226,-399.812 285.867,-385.474 263,-370 231.849,-348.921 214,-338.613 214,-301 214,-301 214,-301 214,-243 214,-203.581 201.062,-158.04 194.594,-137.734"/>
<polygon fill="midnightblue" stroke="midnightblue" points="404.178,-411.944 414.627,-410.193 405.367,-405.046 404.178,-411.944"/>
</g>
<!-- Node13&#45;&gt;Node37 -->
<g id="edge158" class="edge"><title>Node13&#45;&gt;Node37</title>
<path fill="none" stroke="midnightblue" d="M511.173,-414.325C713.47,-404.149 1431.35,-368.037 1582.81,-360.418"/>
<polygon fill="midnightblue" stroke="midnightblue" points="510.906,-410.834 501.095,-414.832 511.258,-417.825 510.906,-410.834"/>
</g>
<!-- Node15&#45;&gt;Node2 -->
<g id="edge30" class="edge"><title>Node15&#45;&gt;Node2</title>
<path fill="none" stroke="midnightblue" d="M659.425,-358.012C807.746,-354.036 1343.03,-338.152 1511,-312 1513.83,-311.559 1516.75,-311.007 1519.66,-310.386"/>
<polygon fill="midnightblue" stroke="midnightblue" points="659.328,-354.513 649.425,-358.277 659.514,-361.51 659.328,-354.513"/>
</g>
<!-- Node15&#45;&gt;Node12 -->
<g id="edge38" class="edge"><title>Node15&#45;&gt;Node12</title>
<path fill="none" stroke="midnightblue" d="M659.174,-358.058C774.189,-354.318 1113.39,-336.367 1177,-254 1308.82,-83.3204 823.671,-24.613 708.155,-13.1974"/>
<polygon fill="midnightblue" stroke="midnightblue" points="658.961,-354.563 649.073,-358.369 659.176,-361.56 658.961,-354.563"/>
</g>
<!-- Node15&#45;&gt;Node13 -->
<g id="edge110" class="edge"><title>Node15&#45;&gt;Node13</title>
<path fill="none" stroke="midnightblue" d="M587.133,-373.147C559.499,-383.445 520.76,-397.164 492.858,-406.497"/>
<polygon fill="midnightblue" stroke="midnightblue" points="588.642,-376.319 596.77,-369.523 586.178,-369.767 588.642,-376.319"/>
</g>
<!-- Node16 -->
<g id="node32" class="node"><title>Node16</title>
<a xlink:href="../../dc/d7d/Distributions_8h.html" target="_top" xlink:title="Distributions.h">
<polygon fill="white" stroke="black" points="1300,-58.5 1300,-79.5 1380,-79.5 1380,-58.5 1300,-58.5"/>
<text text-anchor="middle" x="1340" y="-66.5" font-family="Helvetica,sans-Serif" font-size="10.00">Distributions.h</text>
</a>
</g>
<!-- Node15&#45;&gt;Node16 -->
<g id="edge32" class="edge"><title>Node15&#45;&gt;Node16</title>
<path fill="none" stroke="midnightblue" d="M659.404,-357.781C807.827,-352.916 1337.09,-334.077 1365,-312 1390.14,-292.114 1386,-275.056 1386,-243 1386,-243 1386,-243 1386,-185 1386,-143.621 1360.39,-99.415 1347.39,-79.6344"/>
<polygon fill="midnightblue" stroke="midnightblue" points="659.269,-354.284 649.388,-358.107 659.496,-361.28 659.269,-354.284"/>
</g>
<!-- Node15&#45;&gt;Node18 -->
<g id="edge40" class="edge"><title>Node15&#45;&gt;Node18</title>
<path fill="none" stroke="midnightblue" d="M614.495,-338.191C613.941,-329.168 614.326,-318.994 615.648,-311.571"/>
<polygon fill="midnightblue" stroke="midnightblue" points="611.043,-338.814 615.636,-348.362 618,-338.034 611.043,-338.814"/>
</g>
<!-- Node15&#45;&gt;Node22 -->
<g id="edge112" class="edge"><title>Node15&#45;&gt;Node22</title>
<path fill="none" stroke="midnightblue" d="M584.838,-344.248C548.39,-327.578 493.074,-297.044 461,-254 433.635,-217.276 425.852,-160.905 423.743,-137.623"/>
<polygon fill="midnightblue" stroke="midnightblue" points="583.568,-347.514 594.127,-348.384 586.415,-341.119 583.568,-347.514"/>
</g>
<!-- Node28 -->
<g id="node72" class="node"><title>Node28</title>
<a xlink:href="../../d9/dee/InducedVoltage_8h.html" target="_top" xlink:title="InducedVoltage.h">
<polygon fill="white" stroke="black" points="1264,-290.5 1264,-311.5 1356,-311.5 1356,-290.5 1264,-290.5"/>
<text text-anchor="middle" x="1310" y="-298.5" font-family="Helvetica,sans-Serif" font-size="10.00">InducedVoltage.h</text>
</a>
</g>
<!-- Node15&#45;&gt;Node28 -->
<g id="edge88" class="edge"><title>Node15&#45;&gt;Node28</title>
<path fill="none" stroke="midnightblue" d="M659.189,-356.394C753.248,-349.881 1003.59,-331.978 1212,-312 1228.87,-310.383 1247.35,-308.371 1263.67,-306.512"/>
<polygon fill="midnightblue" stroke="midnightblue" points="658.757,-352.915 649.022,-357.096 659.239,-359.899 658.757,-352.915"/>
</g>
<!-- Node31 -->
<g id="node83" class="node"><title>Node31</title>
<a xlink:href="../../dc/d9c/Music_8h.html" target="_top" xlink:title="Music.h">
<polygon fill="white" stroke="black" points="1451.5,-290.5 1451.5,-311.5 1502.5,-311.5 1502.5,-290.5 1451.5,-290.5"/>
<text text-anchor="middle" x="1477" y="-298.5" font-family="Helvetica,sans-Serif" font-size="10.00">Music.h</text>
</a>
</g>
<!-- Node15&#45;&gt;Node31 -->
<g id="edge104" class="edge"><title>Node15&#45;&gt;Node31</title>
<path fill="none" stroke="midnightblue" d="M659.25,-357.799C772.566,-354.003 1116.3,-340.774 1400,-312 1417.2,-310.256 1436.45,-307.506 1451.4,-305.192"/>
<polygon fill="midnightblue" stroke="midnightblue" points="658.892,-354.309 649.013,-358.137 659.123,-361.305 658.892,-354.309"/>
</g>
<!-- Node15&#45;&gt;Node32 -->
<g id="edge114" class="edge"><title>Node15&#45;&gt;Node32</title>
<path fill="none" stroke="midnightblue" d="M583.011,-351.752C524.558,-340.6 413.218,-319.357 354.849,-308.221"/>
<polygon fill="midnightblue" stroke="midnightblue" points="582.467,-355.211 592.945,-353.647 583.778,-348.335 582.467,-355.211"/>
</g>
<!-- Node16&#45;&gt;Node12 -->
<g id="edge36" class="edge"><title>Node16&#45;&gt;Node12</title>
<path fill="none" stroke="midnightblue" d="M1289.88,-58.5718C1288.57,-58.3707 1287.28,-58.1795 1286,-58 1062.8,-26.6747 789.893,-14.8153 708.203,-11.82"/>
<polygon fill="midnightblue" stroke="midnightblue" points="1289.55,-62.0654 1299.99,-60.2792 1290.71,-55.1631 1289.55,-62.0654"/>
</g>
<!-- Node17 -->
<g id="node34" class="node"><title>Node17</title>
<a xlink:href="../../db/de1/Distributions_8cpp.html" target="_top" xlink:title="Distributions.cpp">
<polygon fill="white" stroke="black" points="1453,-0.5 1453,-21.5 1543,-21.5 1543,-0.5 1453,-0.5"/>
<text text-anchor="middle" x="1498" y="-8.5" font-family="Helvetica,sans-Serif" font-size="10.00">Distributions.cpp</text>
</a>
</g>
<!-- Node16&#45;&gt;Node17 -->
<g id="edge34" class="edge"><title>Node16&#45;&gt;Node17</title>
<path fill="none" stroke="midnightblue" d="M1378.11,-55.0095C1406.19,-44.7023 1443.78,-30.903 1469.33,-21.5231"/>
<polygon fill="midnightblue" stroke="midnightblue" points="1376.79,-51.7649 1368.61,-58.4966 1379.21,-58.3362 1376.79,-51.7649"/>
</g>
<!-- Node18&#45;&gt;Node3 -->
<g id="edge46" class="edge"><title>Node18&#45;&gt;Node3</title>
<path fill="none" stroke="midnightblue" d="M659.272,-294.998C714.484,-286.284 819.664,-269.477 909,-254 911.713,-253.53 914.494,-253.042 917.301,-252.544"/>
<polygon fill="midnightblue" stroke="midnightblue" points="658.571,-291.565 649.238,-296.58 659.661,-298.48 658.571,-291.565"/>
</g>
<!-- Node18&#45;&gt;Node7 -->
<g id="edge48" class="edge"><title>Node18&#45;&gt;Node7</title>
<path fill="none" stroke="midnightblue" d="M659.246,-291.439C701.022,-280.995 767.733,-264.317 810.953,-253.512"/>
<polygon fill="midnightblue" stroke="midnightblue" points="658.3,-288.067 649.448,-293.888 659.998,-294.858 658.3,-288.067"/>
</g>
<!-- Node18&#45;&gt;Node12 -->
<g id="edge52" class="edge"><title>Node18&#45;&gt;Node12</title>
<path fill="none" stroke="midnightblue" d="M601.358,-283.031C593.425,-274.852 584.794,-264.631 579,-254 563.779,-226.07 560,-216.808 560,-185 560,-185 560,-185 560,-127 560,-72.9058 623.711,-36.7601 659.797,-20.6256"/>
<polygon fill="midnightblue" stroke="midnightblue" points="599.053,-285.674 608.635,-290.195 603.964,-280.685 599.053,-285.674"/>
</g>
<!-- Node18&#45;&gt;Node13 -->
<g id="edge54" class="edge"><title>Node18&#45;&gt;Node13</title>
<path fill="none" stroke="midnightblue" d="M602.102,-317.963C570.688,-342.216 508.754,-386.096 477.156,-406.295"/>
<polygon fill="midnightblue" stroke="midnightblue" points="604.401,-320.609 610.103,-311.679 600.077,-315.104 604.401,-320.609"/>
</g>
<!-- Node18&#45;&gt;Node15 -->
<g id="edge50" class="edge"><title>Node18&#45;&gt;Node15</title>
<path fill="none" stroke="midnightblue" d="M627.5,-321.728C628.059,-330.743 627.681,-340.922 626.364,-348.362"/>
<polygon fill="midnightblue" stroke="midnightblue" points="630.953,-321.114 626.352,-311.571 623.997,-321.9 630.953,-321.114"/>
</g>
<!-- Node19 -->
<g id="node40" class="node"><title>Node19</title>
<a xlink:href="../../d7/d91/Slices_8cpp.html" target="_top" xlink:title="Slices.cpp">
<polygon fill="white" stroke="black" points="470,-232.5 470,-253.5 532,-253.5 532,-232.5 470,-232.5"/>
<text text-anchor="middle" x="501" y="-240.5" font-family="Helvetica,sans-Serif" font-size="10.00">Slices.cpp</text>
</a>
</g>
<!-- Node18&#45;&gt;Node19 -->
<g id="edge42" class="edge"><title>Node18&#45;&gt;Node19</title>
<path fill="none" stroke="midnightblue" d="M590.109,-286.069C569.094,-275.912 541.791,-262.716 522.975,-253.621"/>
<polygon fill="midnightblue" stroke="midnightblue" points="588.742,-289.296 599.269,-290.497 591.789,-282.994 588.742,-289.296"/>
</g>
<!-- Node20 -->
<g id="node42" class="node"><title>Node20</title>
<a xlink:href="../../da/d77/globals_8cpp.html" target="_top" xlink:title="globals.cpp">
<polygon fill="white" stroke="black" points="588,-232.5 588,-253.5 654,-253.5 654,-232.5 588,-232.5"/>
<text text-anchor="middle" x="621" y="-240.5" font-family="Helvetica,sans-Serif" font-size="10.00">globals.cpp</text>
</a>
</g>
<!-- Node18&#45;&gt;Node20 -->
<g id="edge44" class="edge"><title>Node18&#45;&gt;Node20</title>
<path fill="none" stroke="midnightblue" d="M621,-280.191C621,-271.168 621,-260.994 621,-253.571"/>
<polygon fill="midnightblue" stroke="midnightblue" points="617.5,-280.362 621,-290.362 624.5,-280.362 617.5,-280.362"/>
</g>
<!-- Node21 -->
<g id="node49" class="node"><title>Node21</title>
<a xlink:href="../../d3/d33/PhaseLoop_8h.html" target="_top" xlink:title="PhaseLoop.h">
<polygon fill="white" stroke="black" points="712,-174.5 712,-195.5 786,-195.5 786,-174.5 712,-174.5"/>
<text text-anchor="middle" x="749" y="-182.5" font-family="Helvetica,sans-Serif" font-size="10.00">PhaseLoop.h</text>
</a>
</g>
<!-- Node18&#45;&gt;Node21 -->
<g id="edge56" class="edge"><title>Node18&#45;&gt;Node21</title>
<path fill="none" stroke="midnightblue" d="M640.444,-283.379C667.358,-258.988 715.14,-215.686 737.216,-195.679"/>
<polygon fill="midnightblue" stroke="midnightblue" points="637.872,-280.986 632.812,-290.295 642.573,-286.173 637.872,-280.986"/>
</g>
<!-- Node27 -->
<g id="node67" class="node"><title>Node27</title>
<a xlink:href="../../d9/dc8/PhaseNoise_8h.html" target="_top" xlink:title="PhaseNoise.h">
<polygon fill="white" stroke="black" points="710,-232.5 710,-253.5 788,-253.5 788,-232.5 710,-232.5"/>
<text text-anchor="middle" x="749" y="-240.5" font-family="Helvetica,sans-Serif" font-size="10.00">PhaseNoise.h</text>
</a>
</g>
<!-- Node18&#45;&gt;Node27 -->
<g id="edge80" class="edge"><title>Node18&#45;&gt;Node27</title>
<path fill="none" stroke="midnightblue" d="M653.346,-286.343C675.841,-276.15 705.309,-262.798 725.56,-253.621"/>
<polygon fill="midnightblue" stroke="midnightblue" points="651.844,-283.181 644.18,-290.497 654.733,-289.557 651.844,-283.181"/>
</g>
<!-- Node21&#45;&gt;Node8 -->
<g id="edge58" class="edge"><title>Node21&#45;&gt;Node8</title>
<path fill="none" stroke="midnightblue" d="M780.373,-170.206C801.951,-160.031 830.102,-146.757 849.476,-137.621"/>
<polygon fill="midnightblue" stroke="midnightblue" points="778.826,-167.066 771.274,-174.497 781.812,-173.397 778.826,-167.066"/>
</g>
<!-- Node21&#45;&gt;Node12 -->
<g id="edge60" class="edge"><title>Node21&#45;&gt;Node12</title>
<path fill="none" stroke="midnightblue" d="M741.409,-164.679C727.585,-127.674 698.749,-50.483 688.082,-21.9277"/>
<polygon fill="midnightblue" stroke="midnightblue" points="738.254,-166.235 745.032,-174.377 744.811,-163.785 738.254,-166.235"/>
</g>
<!-- Node21&#45;&gt;Node22 -->
<g id="edge62" class="edge"><title>Node21&#45;&gt;Node22</title>
<path fill="none" stroke="midnightblue" d="M701.968,-176.632C634.399,-164.611 511.687,-142.779 454.237,-132.558"/>
<polygon fill="midnightblue" stroke="midnightblue" points="701.463,-180.097 711.921,-178.403 702.689,-173.206 701.463,-180.097"/>
</g>
<!-- Node26 -->
<g id="node62" class="node"><title>Node26</title>
<a xlink:href="../../d2/d0e/Tracker_8h.html" target="_top" xlink:title="Tracker.h">
<polygon fill="white" stroke="black" points="1262,-116.5 1262,-137.5 1320,-137.5 1320,-116.5 1262,-116.5"/>
<text text-anchor="middle" x="1291" y="-124.5" font-family="Helvetica,sans-Serif" font-size="10.00">Tracker.h</text>
</a>
</g>
<!-- Node21&#45;&gt;Node26 -->
<g id="edge72" class="edge"><title>Node21&#45;&gt;Node26</title>
<path fill="none" stroke="midnightblue" d="M796.448,-177.709C805.581,-176.4 815.08,-175.102 824,-174 989.381,-153.561 1188.54,-135.784 1261.98,-129.459"/>
<polygon fill="midnightblue" stroke="midnightblue" points="795.731,-174.276 786.341,-179.183 796.741,-181.203 795.731,-174.276"/>
</g>
<!-- Node22&#45;&gt;Node12 -->
<g id="edge70" class="edge"><title>Node22&#45;&gt;Node12</title>
<path fill="none" stroke="midnightblue" d="M449.65,-111.294C479.8,-93.6599 527.155,-66.4097 546,-58 584.714,-40.7234 631.845,-25.9339 659.806,-17.7732"/>
<polygon fill="midnightblue" stroke="midnightblue" points="447.752,-108.349 440.896,-116.426 451.293,-114.387 447.752,-108.349"/>
</g>
<!-- Node23 -->
<g id="node55" class="node"><title>Node23</title>
<a xlink:href="../../da/dda/Monitors_8cpp.html" target="_top" xlink:title="Monitors.cpp">
<polygon fill="white" stroke="black" points="421.5,-58.5 421.5,-79.5 494.5,-79.5 494.5,-58.5 421.5,-58.5"/>
<text text-anchor="middle" x="458" y="-66.5" font-family="Helvetica,sans-Serif" font-size="10.00">Monitors.cpp</text>
</a>
</g>
<!-- Node22&#45;&gt;Node23 -->
<g id="edge64" class="edge"><title>Node22&#45;&gt;Node23</title>
<path fill="none" stroke="midnightblue" d="M434.667,-107.667C440.322,-98.2948 446.895,-87.4019 451.621,-79.5707"/>
<polygon fill="midnightblue" stroke="midnightblue" points="431.59,-105.992 429.42,-116.362 437.583,-109.608 431.59,-105.992"/>
</g>
<!-- Node24 -->
<g id="node57" class="node"><title>Node24</title>
<a xlink:href="../../d3/d2c/plot__beams_8cpp.html" target="_top" xlink:title="plot_beams.cpp">
<polygon fill="white" stroke="black" points="318,-58.5 318,-79.5 404,-79.5 404,-58.5 318,-58.5"/>
<text text-anchor="middle" x="361" y="-66.5" font-family="Helvetica,sans-Serif" font-size="10.00">plot_beams.cpp</text>
</a>
</g>
<!-- Node22&#45;&gt;Node24 -->
<g id="edge66" class="edge"><title>Node22&#45;&gt;Node24</title>
<path fill="none" stroke="midnightblue" d="M404.192,-109.405C393.783,-99.6683 381.194,-87.8914 372.3,-79.5707"/>
<polygon fill="midnightblue" stroke="midnightblue" points="401.934,-112.086 411.628,-116.362 406.717,-106.974 401.934,-112.086"/>
</g>
<!-- Node25 -->
<g id="node59" class="node"><title>Node25</title>
<a xlink:href="../../d3/dca/plot__llrf_8cpp.html" target="_top" xlink:title="plot_llrf.cpp">
<polygon fill="white" stroke="black" points="157.5,-58.5 157.5,-79.5 224.5,-79.5 224.5,-58.5 157.5,-58.5"/>
<text text-anchor="middle" x="191" y="-66.5" font-family="Helvetica,sans-Serif" font-size="10.00">plot_llrf.cpp</text>
</a>
</g>
<!-- Node22&#45;&gt;Node25 -->
<g id="edge68" class="edge"><title>Node22&#45;&gt;Node25</title>
<path fill="none" stroke="midnightblue" d="M381.75,-116.688C336.999,-105.5 266.393,-87.8483 224.797,-77.4492"/>
<polygon fill="midnightblue" stroke="midnightblue" points="381.161,-120.148 391.711,-119.178 382.859,-113.357 381.161,-120.148"/>
</g>
<!-- Node26&#45;&gt;Node10 -->
<g id="edge74" class="edge"><title>Node26&#45;&gt;Node10</title>
<path fill="none" stroke="midnightblue" d="M1325.97,-112.615C1350.83,-102.389 1383.67,-88.8796 1406.18,-79.6212"/>
<polygon fill="midnightblue" stroke="midnightblue" points="1324.45,-109.456 1316.53,-116.497 1327.11,-115.929 1324.45,-109.456"/>
</g>
<!-- Node26&#45;&gt;Node12 -->
<g id="edge78" class="edge"><title>Node26&#45;&gt;Node12</title>
<path fill="none" stroke="midnightblue" d="M1284.19,-106.756C1277.62,-90.6246 1265.98,-68.9845 1248,-58 1201.36,-29.5108 809.744,-15.0398 708.05,-11.7403"/>
<polygon fill="midnightblue" stroke="midnightblue" points="1281.01,-108.253 1287.79,-116.393 1287.57,-105.801 1281.01,-108.253"/>
</g>
<!-- Node26&#45;&gt;Node16 -->
<g id="edge76" class="edge"><title>Node26&#45;&gt;Node16</title>
<path fill="none" stroke="midnightblue" d="M1306.59,-108.541C1314.67,-98.9786 1324.25,-87.6467 1331.07,-79.5707"/>
<polygon fill="midnightblue" stroke="midnightblue" points="1303.77,-106.464 1299.99,-116.362 1309.11,-110.982 1303.77,-106.464"/>
</g>
<!-- Node27&#45;&gt;Node9 -->
<g id="edge82" class="edge"><title>Node27&#45;&gt;Node9</title>
<path fill="none" stroke="midnightblue" d="M781.346,-228.343C803.841,-218.15 833.309,-204.798 853.56,-195.621"/>
<polygon fill="midnightblue" stroke="midnightblue" points="779.844,-225.181 772.18,-232.497 782.733,-231.557 779.844,-225.181"/>
</g>
<!-- Node27&#45;&gt;Node12 -->
<g id="edge84" class="edge"><title>Node27&#45;&gt;Node12</title>
<path fill="none" stroke="midnightblue" d="M726.444,-225.726C717.617,-217.694 708.344,-207.397 703,-196 674.487,-135.197 679.765,-51.0698 682.746,-21.6599"/>
<polygon fill="midnightblue" stroke="midnightblue" points="724.42,-228.6 734.298,-232.431 728.965,-223.276 724.42,-228.6"/>
</g>
<!-- Node27&#45;&gt;Node21 -->
<g id="edge86" class="edge"><title>Node27&#45;&gt;Node21</title>
<path fill="none" stroke="midnightblue" d="M749,-222.191C749,-213.168 749,-202.994 749,-195.571"/>
<polygon fill="midnightblue" stroke="midnightblue" points="745.5,-222.362 749,-232.362 752.5,-222.362 745.5,-222.362"/>
</g>
<!-- Node28&#45;&gt;Node3 -->
<g id="edge90" class="edge"><title>Node28&#45;&gt;Node3</title>
<path fill="none" stroke="midnightblue" d="M1253.61,-291.409C1188.78,-280.382 1083.25,-262.433 1020.54,-251.766"/>
<polygon fill="midnightblue" stroke="midnightblue" points="1253.21,-294.891 1263.66,-293.118 1254.38,-287.99 1253.21,-294.891"/>
</g>
<!-- Node28&#45;&gt;Node12 -->
<g id="edge94" class="edge"><title>Node28&#45;&gt;Node12</title>
<path fill="none" stroke="midnightblue" d="M1303.07,-280.887C1283.71,-225.196 1229.2,-72.1365 1210,-58 1169.17,-27.9285 806.023,-14.7298 708.188,-11.7007"/>
<polygon fill="midnightblue" stroke="midnightblue" points="1299.78,-282.074 1306.36,-290.379 1306.4,-279.784 1299.78,-282.074"/>
</g>
<!-- Node28&#45;&gt;Node16 -->
<g id="edge92" class="edge"><title>Node28&#45;&gt;Node16</title>
<path fill="none" stroke="midnightblue" d="M1313.79,-280.095C1315.2,-271.964 1316.76,-262.561 1318,-254 1327.53,-188.055 1335.97,-108.449 1338.9,-79.8681"/>
<polygon fill="midnightblue" stroke="midnightblue" points="1310.3,-279.739 1312,-290.197 1317.19,-280.962 1310.3,-279.739"/>
</g>
<!-- Node28&#45;&gt;Node26 -->
<g id="edge102" class="edge"><title>Node28&#45;&gt;Node26</title>
<path fill="none" stroke="midnightblue" d="M1307.73,-280.2C1303.67,-243.013 1295.3,-166.36 1292.19,-137.928"/>
<polygon fill="midnightblue" stroke="midnightblue" points="1304.28,-280.816 1308.84,-290.377 1311.23,-280.057 1304.28,-280.816"/>
</g>
<!-- Node29 -->
<g id="node77" class="node"><title>Node29</title>
<a xlink:href="../../da/d77/plot__impedance_8h.html" target="_top" xlink:title="plot_impedance.h">
<polygon fill="white" stroke="black" points="1075.5,-232.5 1075.5,-253.5 1168.5,-253.5 1168.5,-232.5 1075.5,-232.5"/>
<text text-anchor="middle" x="1122" y="-240.5" font-family="Helvetica,sans-Serif" font-size="10.00">plot_impedance.h</text>
</a>
</g>
<!-- Node28&#45;&gt;Node29 -->
<g id="edge96" class="edge"><title>Node28&#45;&gt;Node29</title>
<path fill="none" stroke="midnightblue" d="M1266.39,-287.546C1232.81,-277.186 1187.04,-263.067 1156.11,-253.523"/>
<polygon fill="midnightblue" stroke="midnightblue" points="1265.37,-290.893 1275.95,-290.497 1267.43,-284.204 1265.37,-290.893"/>
</g>
<!-- Node29&#45;&gt;Node12 -->
<g id="edge100" class="edge"><title>Node29&#45;&gt;Node12</title>
<path fill="none" stroke="midnightblue" d="M1098.54,-226.339C1062.04,-200.811 988.972,-151.273 923,-116 847.063,-75.3996 752.194,-37.227 708.324,-20.2428"/>
<polygon fill="midnightblue" stroke="midnightblue" points="1096.81,-229.403 1107,-232.289 1100.84,-223.676 1096.81,-229.403"/>
</g>
<!-- Node30 -->
<g id="node79" class="node"><title>Node30</title>
<a xlink:href="../../d8/d29/plot__impedance_8cpp.html" target="_top" xlink:title="plot_impedance.cpp">
<polygon fill="white" stroke="black" points="1064,-174.5 1064,-195.5 1168,-195.5 1168,-174.5 1064,-174.5"/>
<text text-anchor="middle" x="1116" y="-182.5" font-family="Helvetica,sans-Serif" font-size="10.00">plot_impedance.cpp</text>
</a>
</g>
<!-- Node29&#45;&gt;Node30 -->
<g id="edge98" class="edge"><title>Node29&#45;&gt;Node30</title>
<path fill="none" stroke="midnightblue" d="M1119.85,-222.191C1118.91,-213.168 1117.86,-202.994 1117.09,-195.571"/>
<polygon fill="midnightblue" stroke="midnightblue" points="1116.39,-222.775 1120.9,-232.362 1123.35,-222.055 1116.39,-222.775"/>
</g>
<!-- Node31&#45;&gt;Node5 -->
<g id="edge106" class="edge"><title>Node31&#45;&gt;Node5</title>
<path fill="none" stroke="midnightblue" d="M1491.22,-282.25C1498.43,-272.75 1506.92,-261.565 1512.98,-253.571"/>
<polygon fill="midnightblue" stroke="midnightblue" points="1488.33,-280.28 1485.07,-290.362 1493.9,-284.51 1488.33,-280.28"/>
</g>
<!-- Node31&#45;&gt;Node12 -->
<g id="edge108" class="edge"><title>Node31&#45;&gt;Node12</title>
<path fill="none" stroke="midnightblue" d="M1477.59,-280.295C1479.12,-222.992 1482.59,-65.9927 1475,-58 1447.91,-29.4835 837.666,-14.4024 708.058,-11.5149"/>
<polygon fill="midnightblue" stroke="midnightblue" points="1474.09,-280.26 1477.31,-290.352 1481.09,-280.452 1474.09,-280.26"/>
</g>
<!-- Node32&#45;&gt;Node12 -->
<g id="edge118" class="edge"><title>Node32&#45;&gt;Node12</title>
<path fill="none" stroke="midnightblue" d="M309.299,-280.693C301.319,-257.793 290,-219.272 290,-185 290,-185 290,-185 290,-127 290,-95.1919 284.948,-78.8152 309,-58 335.605,-34.9748 580.899,-17.5379 659.728,-12.4897"/>
<polygon fill="midnightblue" stroke="midnightblue" points="306.088,-282.106 312.781,-290.319 312.671,-279.725 306.088,-282.106"/>
</g>
<!-- Node32&#45;&gt;Node24 -->
<g id="edge116" class="edge"><title>Node32&#45;&gt;Node24</title>
<path fill="none" stroke="midnightblue" d="M320.919,-280.335C329.991,-232.5 352.18,-115.508 358.983,-79.6335"/>
<polygon fill="midnightblue" stroke="midnightblue" points="317.43,-279.952 319.005,-290.429 324.307,-281.256 317.43,-279.952"/>
</g>
<!-- Node33&#45;&gt;Node12 -->
<g id="edge124" class="edge"><title>Node33&#45;&gt;Node12</title>
<path fill="none" stroke="midnightblue" d="M421.669,-351.913C370.394,-341.607 281.804,-322.564 271,-312 248.257,-289.762 252,-274.808 252,-243 252,-243 252,-243 252,-127 252,-92.2025 260.251,-77.6053 289,-58 319.739,-37.0377 578.632,-18.0622 659.778,-12.5828"/>
<polygon fill="midnightblue" stroke="midnightblue" points="421.205,-355.39 431.697,-353.913 422.575,-348.525 421.205,-355.39"/>
</g>
<!-- Node33&#45;&gt;Node18 -->
<g id="edge126" class="edge"><title>Node33&#45;&gt;Node18</title>
<path fill="none" stroke="midnightblue" d="M493.804,-346.26C523.633,-335.646 565.53,-320.738 592.963,-310.976"/>
<polygon fill="midnightblue" stroke="midnightblue" points="492.437,-343.031 484.189,-349.681 494.783,-349.626 492.437,-343.031"/>
</g>
<!-- Node33&#45;&gt;Node19 -->
<g id="edge122" class="edge"><title>Node33&#45;&gt;Node19</title>
<path fill="none" stroke="midnightblue" d="M465.492,-338.79C474.67,-314.029 489.881,-272.996 497.041,-253.679"/>
<polygon fill="midnightblue" stroke="midnightblue" points="462.162,-337.702 461.968,-348.295 468.726,-340.135 462.162,-337.702"/>
</g>
<!-- Node33&#45;&gt;Node22 -->
<g id="edge128" class="edge"><title>Node33&#45;&gt;Node22</title>
<path fill="none" stroke="midnightblue" d="M450.659,-338.783C443.441,-317.876 432.826,-284.129 428,-254 421.16,-211.296 421.863,-159.537 422.568,-137.621"/>
<polygon fill="midnightblue" stroke="midnightblue" points="447.446,-340.194 454.075,-348.459 454.046,-337.864 447.446,-340.194"/>
</g>
<!-- Node33&#45;&gt;Node26 -->
<g id="edge140" class="edge"><title>Node33&#45;&gt;Node26</title>
<path fill="none" stroke="midnightblue" d="M494.369,-355.175C631.998,-340.497 1116.2,-286.96 1177,-254 1229.62,-225.476 1270.18,-162.894 1284.95,-137.761"/>
<polygon fill="midnightblue" stroke="midnightblue" points="493.906,-351.704 484.332,-356.242 494.646,-358.665 493.906,-351.704"/>
</g>
<!-- Node33&#45;&gt;Node29 -->
<g id="edge132" class="edge"><title>Node33&#45;&gt;Node29</title>
<path fill="none" stroke="midnightblue" d="M494.164,-352.682C606.475,-333.062 949.244,-273.18 1075.05,-251.201"/>
<polygon fill="midnightblue" stroke="midnightblue" points="493.278,-349.284 484.03,-354.453 494.483,-356.179 493.278,-349.284"/>
</g>
<!-- Node33&#45;&gt;Node32 -->
<g id="edge130" class="edge"><title>Node33&#45;&gt;Node32</title>
<path fill="none" stroke="midnightblue" d="M423.03,-344.615C398.17,-334.389 365.328,-320.88 342.821,-311.621"/>
<polygon fill="midnightblue" stroke="midnightblue" points="421.886,-347.929 432.466,-348.497 424.549,-341.456 421.886,-347.929"/>
</g>
<!-- Node33&#45;&gt;Node34 -->
<g id="edge134" class="edge"><title>Node33&#45;&gt;Node34</title>
<path fill="none" stroke="midnightblue" d="M421.725,-352.213C361.913,-341.022 243.314,-318.833 183.809,-307.7"/>
<polygon fill="midnightblue" stroke="midnightblue" points="421.364,-355.706 431.837,-354.105 422.651,-348.825 421.364,-355.706"/>
</g>
<!-- Node34&#45;&gt;Node12 -->
<g id="edge138" class="edge"><title>Node34&#45;&gt;Node12</title>
<path fill="none" stroke="midnightblue" d="M123.393,-284.154C113.281,-276.097 102.263,-265.663 95,-254 78.1845,-227 76,-216.808 76,-185 76,-185 76,-185 76,-127 76,-85.1726 102.42,-76.3657 140,-58 187.216,-34.925 560.809,-16.5605 659.929,-12.0596"/>
<polygon fill="midnightblue" stroke="midnightblue" points="121.484,-287.099 131.571,-290.338 125.705,-281.515 121.484,-287.099"/>
</g>
<!-- Node35 -->
<g id="node103" class="node"><title>Node35</title>
<a xlink:href="../../d4/dfd/plot__slices_8cpp.html" target="_top" xlink:title="plot_slices.cpp">
<polygon fill="white" stroke="black" points="104,-232.5 104,-253.5 186,-253.5 186,-232.5 104,-232.5"/>
<text text-anchor="middle" x="145" y="-240.5" font-family="Helvetica,sans-Serif" font-size="10.00">plot_slices.cpp</text>
</a>
</g>
<!-- Node34&#45;&gt;Node35 -->
<g id="edge136" class="edge"><title>Node34&#45;&gt;Node35</title>
<path fill="none" stroke="midnightblue" d="M146.924,-280.191C146.457,-271.168 145.931,-260.994 145.547,-253.571"/>
<polygon fill="midnightblue" stroke="midnightblue" points="143.438,-280.556 147.45,-290.362 150.428,-280.194 143.438,-280.556"/>
</g>
<!-- Node36&#45;&gt;Node12 -->
<g id="edge154" class="edge"><title>Node36&#45;&gt;Node12</title>
<path fill="none" stroke="midnightblue" d="M168.462,-109.653C151.936,-94.8857 134.673,-73.641 149,-58 183.914,-19.8841 559.764,-12.5359 659.709,-11.252"/>
<polygon fill="midnightblue" stroke="midnightblue" points="166.475,-112.555 176.375,-116.329 170.989,-107.205 166.475,-112.555"/>
</g>
<!-- Node36&#45;&gt;Node25 -->
<g id="edge152" class="edge"><title>Node36&#45;&gt;Node25</title>
<path fill="none" stroke="midnightblue" d="M191,-106.191C191,-97.1684 191,-86.9941 191,-79.5707"/>
<polygon fill="midnightblue" stroke="midnightblue" points="187.5,-106.362 191,-116.362 194.5,-106.362 187.5,-106.362"/>
</g>
<!-- Node37&#45;&gt;Node2 -->
<g id="edge160" class="edge"><title>Node37&#45;&gt;Node2</title>
<path fill="none" stroke="midnightblue" d="M1593.12,-341.118C1583.44,-331.438 1571.81,-319.81 1563.57,-311.571"/>
<polygon fill="midnightblue" stroke="midnightblue" points="1590.82,-343.766 1600.36,-348.362 1595.77,-338.816 1590.82,-343.766"/>
</g>
<!-- Node37&#45;&gt;Node11 -->
<g id="edge164" class="edge"><title>Node37&#45;&gt;Node11</title>
<path fill="none" stroke="midnightblue" d="M1638.47,-343.379C1656.19,-333.301 1678.77,-320.462 1694.41,-311.571"/>
<polygon fill="midnightblue" stroke="midnightblue" points="1636.67,-340.376 1629.71,-348.362 1640.13,-346.461 1636.67,-340.376"/>
</g>
<!-- Node37&#45;&gt;Node12 -->
<g id="edge166" class="edge"><title>Node37&#45;&gt;Node12</title>
<path fill="none" stroke="midnightblue" d="M1612.37,-338.322C1614.41,-305.737 1618,-240.441 1618,-185 1618,-185 1618,-185 1618,-127 1618,-62.3719 1552.18,-75.6321 1490,-58 1413.14,-36.2025 833.856,-15.9508 708.058,-11.7815"/>
<polygon fill="midnightblue" stroke="midnightblue" points="1608.87,-338.21 1611.72,-348.414 1615.86,-338.658 1608.87,-338.21"/>
</g>
<!-- Node37&#45;&gt;Node17 -->
<g id="edge162" class="edge"><title>Node37&#45;&gt;Node17</title>
<path fill="none" stroke="midnightblue" d="M1619.83,-338.7C1632.93,-306.677 1656,-242.188 1656,-185 1656,-185 1656,-185 1656,-127 1656,-94.5312 1654.93,-80.9888 1632,-58 1608.32,-34.2609 1571.98,-22.4799 1543.12,-16.6514"/>
<polygon fill="midnightblue" stroke="midnightblue" points="1616.46,-337.683 1615.82,-348.258 1622.92,-340.393 1616.46,-337.683"/>
</g>
</g>
</svg>
