<?xml version="1.0" encoding="UTF-8" standalone="no"?>
<!DOCTYPE svg PUBLIC "-//W3C//DTD SVG 1.1//EN"
 "http://www.w3.org/Graphics/SVG/1.1/DTD/svg11.dtd">
<!-- Generated by graphviz version 2.26.3 (20100126.1600)
 -->
<!-- Title: TotalInducedVoltage::track Pages: 1 -->
<svg width="268pt" height="82pt"
 viewBox="0.00 0.00 268.00 82.00" xmlns="http://www.w3.org/2000/svg" xmlns:xlink="http://www.w3.org/1999/xlink">
<g id="graph1" class="graph" transform="scale(1 1) rotate(0) translate(4 78)">
<title>TotalInducedVoltage::track</title>
<polygon fill="white" stroke="white" points="-4,5 -4,-78 265,-78 265,5 -4,5"/>
<!-- Node1 -->
<g id="node1" class="node"><title>Node1</title>
<polygon fill="#bfbfbf" stroke="black" points="0,-17 0,-51 106,-51 106,-17 0,-17"/>
<text text-anchor="start" x="8" y="-38" font-family="Helvetica,sans-Serif" font-size="10.00">TotalInducedVoltage</text>
<text text-anchor="middle" x="53" y="-25" font-family="Helvetica,sans-Serif" font-size="10.00">::track</text>
</g>
<!-- Node2 -->
<g id="node3" class="node"><title>Node2</title>
<a xlink:href="../../d4/dd7/classTotalInducedVoltage.html#a7f5f5569a9a0c11b84dd554b3f19fd63" target="_top" xlink:title="TotalInducedVoltage\l::induced_voltage_sum">
<polygon fill="white" stroke="black" points="142.5,-40 142.5,-74 259.5,-74 259.5,-40 142.5,-40"/>
<text text-anchor="start" x="150.5" y="-61" font-family="Helvetica,sans-Serif" font-size="10.00">TotalInducedVoltage</text>
<text text-anchor="middle" x="201" y="-48" font-family="Helvetica,sans-Serif" font-size="10.00">::induced_voltage_sum</text>
</a>
</g>
<!-- Node1&#45;&gt;Node2 -->
<g id="edge2" class="edge"><title>Node1&#45;&gt;Node2</title>
<path fill="none" stroke="midnightblue" d="M106.013,-42.2386C114.571,-43.5684 123.536,-44.9617 132.398,-46.3389"/>
<polygon fill="midnightblue" stroke="midnightblue" points="131.913,-49.8055 142.332,-47.8827 132.988,-42.8885 131.913,-49.8055"/>
</g>
<!-- Node3 -->
<g id="node5" class="node"><title>Node3</title>
<a xlink:href="../../d5/dfa/InducedVoltage_8cpp.html#a3466d4b57e8c5a8ad6b18c33131351fc" target="_top" xlink:title="linear_interp_kick">
<polygon fill="white" stroke="black" points="155,-0.5 155,-21.5 247,-21.5 247,-0.5 155,-0.5"/>
<text text-anchor="middle" x="201" y="-8.5" font-family="Helvetica,sans-Serif" font-size="10.00">linear_interp_kick</text>
</a>
</g>
<!-- Node1&#45;&gt;Node3 -->
<g id="edge4" class="edge"><title>Node1&#45;&gt;Node3</title>
<path fill="none" stroke="midnightblue" d="M106.013,-25.7614C118.579,-23.8086 132.025,-21.719 144.731,-19.7446"/>
<polygon fill="midnightblue" stroke="midnightblue" points="145.386,-23.1848 154.73,-18.1906 144.311,-16.2678 145.386,-23.1848"/>
</g>
</g>
</svg>
