<?xml version="1.0" encoding="UTF-8" standalone="no"?>
<!DOCTYPE svg PUBLIC "-//W3C//DTD SVG 1.1//EN"
 "http://www.w3.org/Graphics/SVG/1.1/DTD/svg11.dtd">
<!-- Generated by graphviz version 2.26.3 (20100126.1600)
 -->
<!-- Title: TotalInducedVoltage::induced_voltage_sum Pages: 1 -->
<svg width="268pt" height="42pt"
 viewBox="0.00 0.00 268.00 42.00" xmlns="http://www.w3.org/2000/svg" xmlns:xlink="http://www.w3.org/1999/xlink">
<g id="graph1" class="graph" transform="scale(1 1) rotate(0) translate(4 38)">
<title>TotalInducedVoltage::induced_voltage_sum</title>
<polygon fill="white" stroke="white" points="-4,5 -4,-38 265,-38 265,5 -4,5"/>
<!-- Node1 -->
<g id="node1" class="node"><title>Node1</title>
<polygon fill="#bfbfbf" stroke="black" points="0.5,-0 0.5,-34 117.5,-34 117.5,-0 0.5,-0"/>
<text text-anchor="start" x="8.5" y="-21" font-family="Helvetica,sans-Serif" font-size="10.00">TotalInducedVoltage</text>
<text text-anchor="middle" x="59" y="-8" font-family="Helvetica,sans-Serif" font-size="10.00">::induced_voltage_sum</text>
</g>
<!-- Node2 -->
<g id="node3" class="node"><title>Node2</title>
<a xlink:href="../../d4/dd7/classTotalInducedVoltage.html#a5a3986d7100023958112076c8373f5e4" target="_top" xlink:title="TotalInducedVoltage\l::track">
<polygon fill="white" stroke="black" points="154,-0 154,-34 260,-34 260,-0 154,-0"/>
<text text-anchor="start" x="162" y="-21" font-family="Helvetica,sans-Serif" font-size="10.00">TotalInducedVoltage</text>
<text text-anchor="middle" x="207" y="-8" font-family="Helvetica,sans-Serif" font-size="10.00">::track</text>
</a>
</g>
<!-- Node1&#45;&gt;Node2 -->
<g id="edge2" class="edge"><title>Node1&#45;&gt;Node2</title>
<path fill="none" stroke="midnightblue" d="M127.947,-17C136.549,-17 145.243,-17 153.56,-17"/>
<polygon fill="midnightblue" stroke="midnightblue" points="127.919,-13.5001 117.919,-17 127.919,-20.5001 127.919,-13.5001"/>
</g>
</g>
</svg>
