<?xml version="1.0" encoding="UTF-8" standalone="no"?>
<!DOCTYPE svg PUBLIC "-//W3C//DTD SVG 1.1//EN"
 "http://www.w3.org/Graphics/SVG/1.1/DTD/svg11.dtd">
<!-- Generated by graphviz version 2.26.3 (20100126.1600)
 -->
<!-- Title: SlicesMonitor Pages: 1 -->
<!--zoomable 830 -->
<svg id="main" version="1.1" xmlns="http://www.w3.org/2000/svg" xmlns:xlink="http://www.w3.org/1999/xlink" xml:space="preserve" onload="init(evt)">
        <defs>
                <circle id="rim" cx="0" cy="0" r="7"/>
                <circle id="rim2" cx="0" cy="0" r="3.5"/>
                <g id="zoomPlus">
                        <use xlink:href="#rim" fill="#404040">
                                <set attributeName="fill" to="#808080" begin="zoomplus.mouseover" end="zoomplus.mouseout"/>
                        </use>
                        <path d="M-4,0h8M0,-4v8" fill="none" stroke="white" stroke-width="1.5" pointer-events="none"/>
                </g>
                <g id="zoomMin">
                        <use xlink:href="#rim" fill="#404040">
                                <set attributeName="fill" to="#808080" begin="zoomminus.mouseover" end="zoomminus.mouseout"/>
                        </use>
                        <path d="M-4,0h8" fill="none" stroke="white" stroke-width="1.5" pointer-events="none"/>
                </g>
                <g id="dirArrow">
                        <path fill="none" stroke="white" stroke-width="1.5" d="M0,-3.0v7 M-2.5,-0.5L0,-3.0L2.5,-0.5"/>
                </g>
               <g id="resetDef">
                       <use xlink:href="#rim2" fill="#404040">
                               <set attributeName="fill" to="#808080" begin="reset.mouseover" end="reset.mouseout"/>
                       </use>
               </g>
        </defs>

<script type="text/javascript">
var viewWidth = 973;
var viewHeight = 830;
var sectionId = 'dynsection-0';
</script>
<script xlink:href="../../svgpan.js"/>
<svg id="graph" class="graph">
<g id="viewport">
<title>SlicesMonitor</title>
<polygon fill="white" stroke="white" points="-4,5 -4,-826 970,-826 970,5 -4,5"/>
<!-- Node1 -->
<g id="node1" class="node"><title>Node1</title>
<polygon fill="#bfbfbf" stroke="black" points="338.5,-1 338.5,-129 435.5,-129 435.5,-1 338.5,-1"/>
<text text-anchor="middle" x="387" y="-116" font-family="Helvetica,sans-Serif" font-size="10.00">SlicesMonitor</text>
<polyline fill="none" stroke="black" points="338.5,-108 435.5,-108 "/>
<text text-anchor="middle" x="387" y="-95" font-family="Helvetica,sans-Serif" font-size="10.00"> </text>
<polyline fill="none" stroke="black" points="338.5,-87 435.5,-87 "/>
<text text-anchor="start" x="346.5" y="-74" font-family="Helvetica,sans-Serif" font-size="10.00">+ SlicesMonitor()</text>
<text text-anchor="start" x="346.5" y="-61" font-family="Helvetica,sans-Serif" font-size="10.00">+ ~SlicesMonitor()</text>
<text text-anchor="start" x="346.5" y="-48" font-family="Helvetica,sans-Serif" font-size="10.00">+ close()</text>
<text text-anchor="start" x="346.5" y="-35" font-family="Helvetica,sans-Serif" font-size="10.00">+ create_data()</text>
<text text-anchor="start" x="346.5" y="-22" font-family="Helvetica,sans-Serif" font-size="10.00">+ track()</text>
<text text-anchor="start" x="346.5" y="-9" font-family="Helvetica,sans-Serif" font-size="10.00">+ write_data()</text>
</g>
<!-- Node2 -->
<g id="node2" class="node"><title>Node2</title>
<polygon fill="white" stroke="#bfbfbf" points="211,-265.5 211,-328.5 261,-328.5 261,-265.5 211,-265.5"/>
<text text-anchor="middle" x="236" y="-315.5" font-family="Helvetica,sans-Serif" font-size="10.00">Group *</text>
<polyline fill="none" stroke="#bfbfbf" points="211,-307.5 261,-307.5 "/>
<text text-anchor="middle" x="236" y="-294.5" font-family="Helvetica,sans-Serif" font-size="10.00"> </text>
<polyline fill="none" stroke="#bfbfbf" points="211,-286.5 261,-286.5 "/>
<text text-anchor="middle" x="236" y="-273.5" font-family="Helvetica,sans-Serif" font-size="10.00"> </text>
</g>
<!-- Node2&#45;&gt;Node1 -->
<g id="edge2" class="edge"><title>Node2&#45;&gt;Node1</title>
<path fill="none" stroke="#404040" d="M239.448,-265.408C244.214,-233.406 255.231,-183.669 280,-148 292.667,-129.759 310.554,-113.679 328.085,-100.648"/>
<polygon fill="none" stroke="#404040" points="328.558,-100.31 331.116,-93.5677 338.323,-93.3352 335.766,-100.078 328.558,-100.31"/>
<text text-anchor="middle" x="299.5" y="-152.5" font-family="Helvetica,sans-Serif" font-size="10.00"> +fGroup</text>
</g>
<!-- Node3 -->
<g id="node4" class="node"><title>Node3</title>
<polygon fill="white" stroke="#bfbfbf" points="812.5,-644.5 812.5,-707.5 841.5,-707.5 841.5,-644.5 812.5,-644.5"/>
<text text-anchor="middle" x="827" y="-694.5" font-family="Helvetica,sans-Serif" font-size="10.00">int</text>
<polyline fill="none" stroke="#bfbfbf" points="812.5,-686.5 841.5,-686.5 "/>
<text text-anchor="middle" x="827" y="-673.5" font-family="Helvetica,sans-Serif" font-size="10.00"> </text>
<polyline fill="none" stroke="#bfbfbf" points="812.5,-665.5 841.5,-665.5 "/>
<text text-anchor="middle" x="827" y="-652.5" font-family="Helvetica,sans-Serif" font-size="10.00"> </text>
</g>
<!-- Node3&#45;&gt;Node1 -->
<g id="edge4" class="edge"><title>Node3&#45;&gt;Node1</title>
<path fill="none" stroke="#404040" d="M841.543,-660.542C855.012,-645.074 874.115,-619.911 882,-594 895.457,-549.78 898.975,-532.993 882,-490 801.489,-286.085 559.757,-147.569 446.618,-92.1272"/>
<polygon fill="none" stroke="#404040" points="446.554,-92.0963 439.411,-93.0809 435.754,-86.8656 442.898,-85.8809 446.554,-92.0963"/>
<text text-anchor="middle" x="919.5" y="-462.5" font-family="Helvetica,sans-Serif" font-size="10.00"> +fNTurns</text>
<text text-anchor="middle" x="919.5" y="-449.5" font-family="Helvetica,sans-Serif" font-size="10.00">+fCompressionLevel</text>
<text text-anchor="middle" x="919.5" y="-436.5" font-family="Helvetica,sans-Serif" font-size="10.00">+fITurn</text>
</g>
<!-- Node7 -->
<g id="node12" class="node"><title>Node7</title>
<a xlink:href="../../dc/d45/classSlices.html" target="_top" xlink:title="{Slices\n||+ Slices()\l+ ~Slices()\l+ beam_profile_derivative()\l+ beam_profile_filter\l_chebyshev()\l+ beam_spectrum_generation()\l+ convert_coordinates()\l+ fast_fwhm()\l+ fwhm()\l+ fwhm_multibunch()\l+ gauss()\land 10 more...\l&#45; gaussian_filter1d()\l&#45; gradient()\l}">
<polygon fill="white" stroke="black" points="431,-181 431,-413 583,-413 583,-181 431,-181"/>
<text text-anchor="middle" x="507" y="-400" font-family="Helvetica,sans-Serif" font-size="10.00">Slices</text>
<polyline fill="none" stroke="black" points="431,-392 583,-392 "/>
<text text-anchor="middle" x="507" y="-379" font-family="Helvetica,sans-Serif" font-size="10.00"> </text>
<polyline fill="none" stroke="black" points="431,-371 583,-371 "/>
<text text-anchor="start" x="439" y="-358" font-family="Helvetica,sans-Serif" font-size="10.00">+ Slices()</text>
<text text-anchor="start" x="439" y="-345" font-family="Helvetica,sans-Serif" font-size="10.00">+ ~Slices()</text>
<text text-anchor="start" x="439" y="-332" font-family="Helvetica,sans-Serif" font-size="10.00">+ beam_profile_derivative()</text>
<text text-anchor="start" x="439" y="-319" font-family="Helvetica,sans-Serif" font-size="10.00">+ beam_profile_filter</text>
<text text-anchor="start" x="439" y="-306" font-family="Helvetica,sans-Serif" font-size="10.00">_chebyshev()</text>
<text text-anchor="start" x="439" y="-293" font-family="Helvetica,sans-Serif" font-size="10.00">+ beam_spectrum_generation()</text>
<text text-anchor="start" x="439" y="-280" font-family="Helvetica,sans-Serif" font-size="10.00">+ convert_coordinates()</text>
<text text-anchor="start" x="439" y="-267" font-family="Helvetica,sans-Serif" font-size="10.00">+ fast_fwhm()</text>
<text text-anchor="start" x="439" y="-254" font-family="Helvetica,sans-Serif" font-size="10.00">+ fwhm()</text>
<text text-anchor="start" x="439" y="-241" font-family="Helvetica,sans-Serif" font-size="10.00">+ fwhm_multibunch()</text>
<text text-anchor="start" x="439" y="-228" font-family="Helvetica,sans-Serif" font-size="10.00">+ gauss()</text>
<text text-anchor="start" x="439" y="-215" font-family="Helvetica,sans-Serif" font-size="10.00">and 10 more...</text>
<text text-anchor="start" x="439" y="-202" font-family="Helvetica,sans-Serif" font-size="10.00">&#45; gaussian_filter1d()</text>
<text text-anchor="start" x="439" y="-189" font-family="Helvetica,sans-Serif" font-size="10.00">&#45; gradient()</text>
</a>
</g>
<!-- Node3&#45;&gt;Node7 -->
<g id="edge20" class="edge"><title>Node3&#45;&gt;Node7</title>
<path fill="none" stroke="#404040" d="M830.797,-644.382C835.076,-593.741 835.875,-493.866 786,-432 738.012,-372.475 657.342,-337.437 595.053,-318.043"/>
<polygon fill="none" stroke="#404040" points="594.742,-317.949 587.843,-320.047 583.253,-314.486 590.152,-312.388 594.742,-317.949"/>
<text text-anchor="middle" x="855" y="-539.5" font-family="Helvetica,sans-Serif" font-size="10.00"> +n_sigma</text>
</g>
<!-- Node11 -->
<g id="node21" class="node"><title>Node11</title>
<polygon fill="white" stroke="#bfbfbf" points="699,-510.5 699,-573.5 791,-573.5 791,-510.5 699,-510.5"/>
<text text-anchor="middle" x="745" y="-560.5" font-family="Helvetica,sans-Serif" font-size="10.00">std::vector&lt; int &gt;</text>
<polyline fill="none" stroke="#bfbfbf" points="699,-552.5 791,-552.5 "/>
<text text-anchor="middle" x="745" y="-539.5" font-family="Helvetica,sans-Serif" font-size="10.00"> </text>
<polyline fill="none" stroke="#bfbfbf" points="699,-531.5 791,-531.5 "/>
<text text-anchor="middle" x="745" y="-518.5" font-family="Helvetica,sans-Serif" font-size="10.00"> </text>
</g>
<!-- Node3&#45;&gt;Node11 -->
<g id="edge24" class="edge"><title>Node3&#45;&gt;Node11</title>
<path fill="none" stroke="#404040" d="M812.355,-668.317C797.798,-659.902 775.964,-645.033 764,-626 756.506,-614.079 751.955,-599.562 749.195,-585.972"/>
<polygon fill="none" stroke="#404040" points="749.146,-585.682 744.195,-580.439 747.131,-573.852 752.082,-579.095 749.146,-585.682"/>
<text text-anchor="middle" x="788.5" y="-616.5" font-family="Helvetica,sans-Serif" font-size="10.00"> +elements</text>
</g>
<!-- Node4 -->
<g id="node6" class="node"><title>Node4</title>
<polygon fill="white" stroke="#bfbfbf" points="361,-265.5 361,-328.5 413,-328.5 413,-265.5 361,-265.5"/>
<text text-anchor="middle" x="387" y="-315.5" font-family="Helvetica,sans-Serif" font-size="10.00">H5File *</text>
<polyline fill="none" stroke="#bfbfbf" points="361,-307.5 413,-307.5 "/>
<text text-anchor="middle" x="387" y="-294.5" font-family="Helvetica,sans-Serif" font-size="10.00"> </text>
<polyline fill="none" stroke="#bfbfbf" points="361,-286.5 413,-286.5 "/>
<text text-anchor="middle" x="387" y="-273.5" font-family="Helvetica,sans-Serif" font-size="10.00"> </text>
</g>
<!-- Node4&#45;&gt;Node1 -->
<g id="edge6" class="edge"><title>Node4&#45;&gt;Node1</title>
<path fill="none" stroke="#404040" d="M387,-265.228C387,-233.489 387,-183.498 387,-141.408"/>
<polygon fill="none" stroke="#404040" points="387,-141.2 383,-135.2 387,-129.2 391,-135.2 387,-141.2"/>
<text text-anchor="middle" x="401" y="-152.5" font-family="Helvetica,sans-Serif" font-size="10.00"> +fFile</text>
</g>
<!-- Node5 -->
<g id="node8" class="node"><title>Node5</title>
<a xlink:title="STL class.">
<polygon fill="white" stroke="#bfbfbf" points="279,-265.5 279,-328.5 339,-328.5 339,-265.5 279,-265.5"/>
<text text-anchor="middle" x="309" y="-315.5" font-family="Helvetica,sans-Serif" font-size="10.00">std::string</text>
<polyline fill="none" stroke="#bfbfbf" points="279,-307.5 339,-307.5 "/>
<text text-anchor="middle" x="309" y="-294.5" font-family="Helvetica,sans-Serif" font-size="10.00"> </text>
<polyline fill="none" stroke="#bfbfbf" points="279,-286.5 339,-286.5 "/>
<text text-anchor="middle" x="309" y="-273.5" font-family="Helvetica,sans-Serif" font-size="10.00"> </text>
</a>
</g>
<!-- Node5&#45;&gt;Node1 -->
<g id="edge8" class="edge"><title>Node5&#45;&gt;Node1</title>
<path fill="none" stroke="#404040" d="M308.624,-265.378C309.261,-234.443 312.961,-186.5 328,-148 329.415,-144.377 331.023,-140.764 332.78,-137.186"/>
<polygon fill="none" stroke="#404040" points="332.793,-137.161 332.096,-129.984 338.453,-126.58 339.15,-133.757 332.793,-137.161"/>
<text text-anchor="middle" x="355.5" y="-152.5" font-family="Helvetica,sans-Serif" font-size="10.00"> +fFileName</text>
</g>
<!-- Node6 -->
<g id="node10" class="node"><title>Node6</title>
<a xlink:title="STL class.">
<polygon fill="white" stroke="#bfbfbf" points="-0.5,-504 -0.5,-580 94.5,-580 94.5,-504 -0.5,-504"/>
<text text-anchor="start" x="7.5" y="-567" font-family="Helvetica,sans-Serif" font-size="10.00">std::basic_string&lt;</text>
<text text-anchor="middle" x="47" y="-554" font-family="Helvetica,sans-Serif" font-size="10.00"> char &gt;</text>
<polyline fill="none" stroke="#bfbfbf" points="-0.5,-546 94.5,-546 "/>
<text text-anchor="middle" x="47" y="-533" font-family="Helvetica,sans-Serif" font-size="10.00"> </text>
<polyline fill="none" stroke="#bfbfbf" points="-0.5,-525 94.5,-525 "/>
<text text-anchor="middle" x="47" y="-512" font-family="Helvetica,sans-Serif" font-size="10.00"> </text>
</a>
</g>
<!-- Node6&#45;&gt;Node5 -->
<g id="edge10" class="edge"><title>Node6&#45;&gt;Node5</title>
<path fill="none" stroke="midnightblue" d="M65.13,-494.563C76.3047,-471.877 92.9679,-446.551 116,-432 174.258,-395.194 216.534,-457.475 270,-414 295.417,-393.333 304.383,-355.578 307.484,-328.542"/>
<polygon fill="none" stroke="midnightblue" points="61.8969,-493.214 60.8213,-503.754 68.235,-496.185 61.8969,-493.214"/>
</g>
<!-- Node7&#45;&gt;Node1 -->
<g id="edge12" class="edge"><title>Node7&#45;&gt;Node1</title>
<path fill="none" stroke="#404040" d="M446.824,-180.66C439.651,-166.793 432.482,-152.932 425.726,-139.87"/>
<polygon fill="none" stroke="#404040" points="425.67,-139.762 419.361,-136.27 420.157,-129.103 426.466,-132.595 425.67,-139.762"/>
<text text-anchor="middle" x="456" y="-152.5" font-family="Helvetica,sans-Serif" font-size="10.00"> +fSlices</text>
</g>
<!-- Node8 -->
<g id="node14" class="node"><title>Node8</title>
<polygon fill="white" stroke="#bfbfbf" points="534.5,-510.5 534.5,-573.5 583.5,-573.5 583.5,-510.5 534.5,-510.5"/>
<text text-anchor="middle" x="559" y="-560.5" font-family="Helvetica,sans-Serif" font-size="10.00">fit_type</text>
<polyline fill="none" stroke="#bfbfbf" points="534.5,-552.5 583.5,-552.5 "/>
<text text-anchor="middle" x="559" y="-539.5" font-family="Helvetica,sans-Serif" font-size="10.00"> </text>
<polyline fill="none" stroke="#bfbfbf" points="534.5,-531.5 583.5,-531.5 "/>
<text text-anchor="middle" x="559" y="-518.5" font-family="Helvetica,sans-Serif" font-size="10.00"> </text>
</g>
<!-- Node8&#45;&gt;Node7 -->
<g id="edge14" class="edge"><title>Node8&#45;&gt;Node7</title>
<path fill="none" stroke="#404040" d="M552.824,-510.193C548.51,-488.207 542.551,-458.297 537,-432 536.517,-429.71 536.026,-427.398 535.531,-425.07"/>
<polygon fill="none" stroke="#404040" points="535.526,-425.049 530.358,-420.02 533.012,-413.315 538.181,-418.344 535.526,-425.049"/>
<text text-anchor="middle" x="569.5" y="-449.5" font-family="Helvetica,sans-Serif" font-size="10.00"> +fit_option</text>
</g>
<!-- Node9 -->
<g id="node16" class="node"><title>Node9</title>
<polygon fill="white" stroke="#bfbfbf" points="145.5,-644.5 145.5,-707.5 190.5,-707.5 190.5,-644.5 145.5,-644.5"/>
<text text-anchor="middle" x="168" y="-694.5" font-family="Helvetica,sans-Serif" font-size="10.00">double</text>
<polyline fill="none" stroke="#bfbfbf" points="145.5,-686.5 190.5,-686.5 "/>
<text text-anchor="middle" x="168" y="-673.5" font-family="Helvetica,sans-Serif" font-size="10.00"> </text>
<polyline fill="none" stroke="#bfbfbf" points="145.5,-665.5 190.5,-665.5 "/>
<text text-anchor="middle" x="168" y="-652.5" font-family="Helvetica,sans-Serif" font-size="10.00"> </text>
</g>
<!-- Node9&#45;&gt;Node7 -->
<g id="edge16" class="edge"><title>Node9&#45;&gt;Node7</title>
<path fill="none" stroke="#404040" d="M151.204,-644.306C133.024,-605.232 110.232,-538.103 139,-490 166.964,-443.24 194.912,-447.98 247,-432 318.1,-410.188 350.97,-448.887 419.978,-414.223"/>
<polygon fill="none" stroke="#404040" points="420.357,-414.016 423.719,-407.637 430.901,-408.286 427.539,-414.666 420.357,-414.016"/>
<text text-anchor="middle" x="163.5" y="-585" font-family="Helvetica,sans-Serif" font-size="10.00"> +bp_fwhm</text>
<text text-anchor="middle" x="163.5" y="-572" font-family="Helvetica,sans-Serif" font-size="10.00">+cut_right</text>
<text text-anchor="middle" x="163.5" y="-559" font-family="Helvetica,sans-Serif" font-size="10.00">+bl_rms</text>
<text text-anchor="middle" x="163.5" y="-546" font-family="Helvetica,sans-Serif" font-size="10.00">+bl_fwhm</text>
<text text-anchor="middle" x="163.5" y="-533" font-family="Helvetica,sans-Serif" font-size="10.00">+bl_gauss</text>
<text text-anchor="middle" x="163.5" y="-520" font-family="Helvetica,sans-Serif" font-size="10.00">+cut_left</text>
<text text-anchor="middle" x="163.5" y="-507" font-family="Helvetica,sans-Serif" font-size="10.00">+bp_rms</text>
<text text-anchor="middle" x="163.5" y="-494" font-family="Helvetica,sans-Serif" font-size="10.00">+bp_gauss</text>
</g>
<!-- Node16 -->
<g id="node33" class="node"><title>Node16</title>
<polygon fill="white" stroke="#bfbfbf" points="196.5,-510.5 196.5,-573.5 299.5,-573.5 299.5,-510.5 196.5,-510.5"/>
<text text-anchor="middle" x="248" y="-560.5" font-family="Helvetica,sans-Serif" font-size="10.00">std::vector&lt; ftype &gt;</text>
<polyline fill="none" stroke="#bfbfbf" points="196.5,-552.5 299.5,-552.5 "/>
<text text-anchor="middle" x="248" y="-539.5" font-family="Helvetica,sans-Serif" font-size="10.00"> </text>
<polyline fill="none" stroke="#bfbfbf" points="196.5,-531.5 299.5,-531.5 "/>
<text text-anchor="middle" x="248" y="-518.5" font-family="Helvetica,sans-Serif" font-size="10.00"> </text>
</g>
<!-- Node9&#45;&gt;Node16 -->
<g id="edge38" class="edge"><title>Node9&#45;&gt;Node16</title>
<path fill="none" stroke="#404040" d="M186.959,-644.244C197.719,-626.221 211.319,-603.441 222.949,-583.96"/>
<polygon fill="none" stroke="#404040" points="223.026,-583.832 222.667,-576.629 229.177,-573.528 229.536,-580.73 223.026,-583.832"/>
<text text-anchor="middle" x="230.5" y="-616.5" font-family="Helvetica,sans-Serif" font-size="10.00"> +elements</text>
</g>
<!-- Node10 -->
<g id="node18" class="node"><title>Node10</title>
<polygon fill="white" stroke="#bfbfbf" points="601,-510.5 601,-573.5 681,-573.5 681,-510.5 601,-510.5"/>
<text text-anchor="middle" x="641" y="-560.5" font-family="Helvetica,sans-Serif" font-size="10.00">cuts_unit_type</text>
<polyline fill="none" stroke="#bfbfbf" points="601,-552.5 681,-552.5 "/>
<text text-anchor="middle" x="641" y="-539.5" font-family="Helvetica,sans-Serif" font-size="10.00"> </text>
<polyline fill="none" stroke="#bfbfbf" points="601,-531.5 681,-531.5 "/>
<text text-anchor="middle" x="641" y="-518.5" font-family="Helvetica,sans-Serif" font-size="10.00"> </text>
</g>
<!-- Node10&#45;&gt;Node7 -->
<g id="edge18" class="edge"><title>Node10&#45;&gt;Node7</title>
<path fill="none" stroke="#404040" d="M630.725,-510.372C622.94,-487.939 611.329,-457.424 598,-432 595.273,-426.798 592.388,-421.551 589.391,-416.3"/>
<polygon fill="none" stroke="#404040" points="589.151,-415.889 582.669,-412.729 583.092,-405.531 589.574,-408.691 589.151,-415.889"/>
<text text-anchor="middle" x="639.5" y="-449.5" font-family="Helvetica,sans-Serif" font-size="10.00"> +cuts_unit</text>
</g>
<!-- Node11&#45;&gt;Node7 -->
<g id="edge22" class="edge"><title>Node11&#45;&gt;Node7</title>
<path fill="none" stroke="#404040" d="M725.79,-510.019C711.311,-487.14 690.208,-456.231 668,-432 645.281,-407.212 618.049,-382.771 592.499,-361.642"/>
<polygon fill="none" stroke="#404040" points="592.461,-361.611 585.285,-360.908 583.173,-354.013 590.35,-354.716 592.461,-361.611"/>
<text text-anchor="middle" x="740" y="-449.5" font-family="Helvetica,sans-Serif" font-size="10.00"> +n_macroparticles</text>
</g>
<!-- Node12 -->
<g id="node24" class="node"><title>Node12</title>
<a xlink:title="STL class.">
<polygon fill="white" stroke="#bfbfbf" points="340.5,-644.5 340.5,-707.5 427.5,-707.5 427.5,-644.5 340.5,-644.5"/>
<text text-anchor="middle" x="384" y="-694.5" font-family="Helvetica,sans-Serif" font-size="10.00">std::vector&lt; T &gt;</text>
<polyline fill="none" stroke="#bfbfbf" points="340.5,-686.5 427.5,-686.5 "/>
<text text-anchor="middle" x="384" y="-673.5" font-family="Helvetica,sans-Serif" font-size="10.00"> </text>
<polyline fill="none" stroke="#bfbfbf" points="340.5,-665.5 427.5,-665.5 "/>
<text text-anchor="middle" x="384" y="-652.5" font-family="Helvetica,sans-Serif" font-size="10.00"> </text>
</a>
</g>
<!-- Node12&#45;&gt;Node11 -->
<g id="edge26" class="edge"><title>Node12&#45;&gt;Node11</title>
<path fill="none" stroke="orange" d="M435.174,-638.355C454.086,-624.442 471,-612 471,-612 562.452,-577.732 600.814,-633.795 690,-594 700.56,-589.288 710.359,-581.671 718.673,-573.703"/>
<polygon fill="orange" stroke="orange" points="432.971,-635.63 426.99,-644.375 437.119,-641.269 432.971,-635.63"/>
<text text-anchor="middle" x="487" y="-616.5" font-family="Helvetica,sans-Serif" font-size="10.00"> &lt; int &gt;</text>
</g>
<!-- Node14 -->
<g id="node28" class="node"><title>Node14</title>
<polygon fill="white" stroke="#bfbfbf" points="391,-510.5 391,-573.5 517,-573.5 517,-510.5 391,-510.5"/>
<text text-anchor="middle" x="454" y="-560.5" font-family="Helvetica,sans-Serif" font-size="10.00">std::vector&lt; complex_t &gt;</text>
<polyline fill="none" stroke="#bfbfbf" points="391,-552.5 517,-552.5 "/>
<text text-anchor="middle" x="454" y="-539.5" font-family="Helvetica,sans-Serif" font-size="10.00"> </text>
<polyline fill="none" stroke="#bfbfbf" points="391,-531.5 517,-531.5 "/>
<text text-anchor="middle" x="454" y="-518.5" font-family="Helvetica,sans-Serif" font-size="10.00"> </text>
</g>
<!-- Node12&#45;&gt;Node14 -->
<g id="edge34" class="edge"><title>Node12&#45;&gt;Node14</title>
<path fill="none" stroke="orange" d="M380.115,-634.212C380.666,-626.608 382.106,-618.905 385,-612 391.069,-597.521 401.687,-584.409 412.801,-573.55"/>
<polygon fill="orange" stroke="orange" points="376.61,-634.35 379.862,-644.433 383.608,-634.523 376.61,-634.35"/>
<text text-anchor="middle" x="418.5" y="-616.5" font-family="Helvetica,sans-Serif" font-size="10.00"> &lt; complex_t &gt;</text>
</g>
<!-- Node12&#45;&gt;Node16 -->
<g id="edge40" class="edge"><title>Node12&#45;&gt;Node16</title>
<path fill="none" stroke="orange" d="M344.431,-637.013C323.946,-616.829 299.264,-592.51 279.999,-573.528"/>
<polygon fill="orange" stroke="orange" points="342.19,-639.718 351.77,-644.244 347.103,-634.732 342.19,-639.718"/>
<text text-anchor="middle" x="353.5" y="-616.5" font-family="Helvetica,sans-Serif" font-size="10.00"> &lt; ftype &gt;</text>
</g>
<!-- Node13 -->
<g id="node26" class="node"><title>Node13</title>
<polygon fill="white" stroke="#bfbfbf" points="369.5,-758.5 369.5,-821.5 398.5,-821.5 398.5,-758.5 369.5,-758.5"/>
<text text-anchor="middle" x="384" y="-808.5" font-family="Helvetica,sans-Serif" font-size="10.00">T</text>
<polyline fill="none" stroke="#bfbfbf" points="369.5,-800.5 398.5,-800.5 "/>
<text text-anchor="middle" x="384" y="-787.5" font-family="Helvetica,sans-Serif" font-size="10.00"> </text>
<polyline fill="none" stroke="#bfbfbf" points="369.5,-779.5 398.5,-779.5 "/>
<text text-anchor="middle" x="384" y="-766.5" font-family="Helvetica,sans-Serif" font-size="10.00"> </text>
</g>
<!-- Node13&#45;&gt;Node12 -->
<g id="edge28" class="edge"><title>Node13&#45;&gt;Node12</title>
<path fill="none" stroke="#404040" d="M384,-758.245C384,-746.386 384,-732.7 384,-719.938"/>
<polygon fill="none" stroke="#404040" points="384,-719.585 380,-713.585 384,-707.585 388,-713.585 384,-719.585"/>
<text text-anchor="middle" x="408.5" y="-730.5" font-family="Helvetica,sans-Serif" font-size="10.00"> +elements</text>
</g>
<!-- Node14&#45;&gt;Node7 -->
<g id="edge30" class="edge"><title>Node14&#45;&gt;Node7</title>
<path fill="none" stroke="#404040" d="M453.451,-510.291C453.269,-498.295 453.089,-484.518 453,-472 452.873,-454.223 449.638,-449.457 453,-432 453.448,-429.676 453.935,-427.341 454.458,-425"/>
<polygon fill="none" stroke="#404040" points="454.482,-424.902 452.037,-418.118 457.359,-413.252 459.804,-420.036 454.482,-424.902"/>
<text text-anchor="middle" x="493" y="-449.5" font-family="Helvetica,sans-Serif" font-size="10.00"> +fBeamSpectrum</text>
</g>
<!-- Node15 -->
<g id="node30" class="node"><title>Node15</title>
<a xlink:title="STL class.">
<polygon fill="white" stroke="#bfbfbf" points="492.5,-644.5 492.5,-707.5 565.5,-707.5 565.5,-644.5 492.5,-644.5"/>
<text text-anchor="middle" x="529" y="-694.5" font-family="Helvetica,sans-Serif" font-size="10.00">std::complex</text>
<polyline fill="none" stroke="#bfbfbf" points="492.5,-686.5 565.5,-686.5 "/>
<text text-anchor="middle" x="529" y="-673.5" font-family="Helvetica,sans-Serif" font-size="10.00"> </text>
<polyline fill="none" stroke="#bfbfbf" points="492.5,-665.5 565.5,-665.5 "/>
<text text-anchor="middle" x="529" y="-652.5" font-family="Helvetica,sans-Serif" font-size="10.00"> </text>
</a>
</g>
<!-- Node15&#45;&gt;Node14 -->
<g id="edge32" class="edge"><title>Node15&#45;&gt;Node14</title>
<path fill="none" stroke="#404040" d="M520.284,-644.242C516.816,-633.682 512.359,-622.058 507,-612 501.844,-602.324 495.401,-592.559 488.802,-583.519"/>
<polygon fill="none" stroke="#404040" points="488.586,-583.233 481.775,-580.862 481.345,-573.664 488.155,-576.035 488.586,-583.233"/>
<text text-anchor="middle" x="537.5" y="-616.5" font-family="Helvetica,sans-Serif" font-size="10.00"> +elements</text>
</g>
<!-- Node16&#45;&gt;Node7 -->
<g id="edge36" class="edge"><title>Node16&#45;&gt;Node7</title>
<path fill="none" stroke="#404040" d="M246.415,-510.378C247.012,-485.332 252.282,-451.43 274,-432 320.586,-390.321 360.161,-441.16 419.877,-413.986"/>
<polygon fill="none" stroke="#404040" points="420.236,-413.797 423.684,-407.463 430.857,-408.21 427.409,-414.544 420.236,-413.797"/>
<text text-anchor="middle" x="322.5" y="-462.5" font-family="Helvetica,sans-Serif" font-size="10.00"> +bin_centers</text>
<text text-anchor="middle" x="322.5" y="-449.5" font-family="Helvetica,sans-Serif" font-size="10.00">+fBeamSpectrumFreq</text>
<text text-anchor="middle" x="322.5" y="-436.5" font-family="Helvetica,sans-Serif" font-size="10.00">+edges</text>
</g>
<!-- Node17 -->
<g id="node37" class="node"><title>Node17</title>
<polygon fill="white" stroke="#bfbfbf" points="317,-510.5 317,-573.5 373,-573.5 373,-510.5 317,-510.5"/>
<text text-anchor="middle" x="345" y="-560.5" font-family="Helvetica,sans-Serif" font-size="10.00">unsigned</text>
<polyline fill="none" stroke="#bfbfbf" points="317,-552.5 373,-552.5 "/>
<text text-anchor="middle" x="345" y="-539.5" font-family="Helvetica,sans-Serif" font-size="10.00"> </text>
<polyline fill="none" stroke="#bfbfbf" points="317,-531.5 373,-531.5 "/>
<text text-anchor="middle" x="345" y="-518.5" font-family="Helvetica,sans-Serif" font-size="10.00"> </text>
</g>
<!-- Node17&#45;&gt;Node7 -->
<g id="edge42" class="edge"><title>Node17&#45;&gt;Node7</title>
<path fill="none" stroke="#404040" d="M357.232,-510.216C367.014,-487.146 382.186,-455.917 401,-432 408.6,-422.338 413.664,-423.034 422,-414 422.279,-413.697 422.559,-413.394 422.838,-413.089"/>
<polygon fill="none" stroke="#404040" points="422.922,-412.994 423.92,-405.852 430.896,-404.026 429.898,-411.168 422.922,-412.994"/>
<text text-anchor="middle" x="424" y="-449.5" font-family="Helvetica,sans-Serif" font-size="10.00"> +n_slices</text>
</g>
</g>
</svg>
        <g id="navigator" transform="translate(0 0)" fill="#404254">
                <rect fill="#f2f5e9" fill-opacity="0.5" stroke="#606060" stroke-width=".5" x="0" y="0" width="60" height="60"/>
                <use id="zoomplus" xlink:href="#zoomPlus" x="17" y="9" onmousedown="handleZoom(evt,'in')"/>
                <use id="zoomminus" xlink:href="#zoomMin" x="42" y="9" onmousedown="handleZoom(evt,'out')"/>
                <use id="reset" xlink:href="#resetDef" x="30" y="36" onmousedown="handleReset()"/>
                <g id="arrowUp" xlink:href="#dirArrow" transform="translate(30 24)" onmousedown="handlePan(0,-1)">
                  <use xlink:href="#rim" fill="#404040">
                        <set attributeName="fill" to="#808080" begin="arrowUp.mouseover" end="arrowUp.mouseout"/>
                  </use>
                  <path fill="none" stroke="white" stroke-width="1.5" d="M0,-3.0v7 M-2.5,-0.5L0,-3.0L2.5,-0.5"/>
                </g>
                <g id="arrowRight" xlink:href="#dirArrow" transform="rotate(90) translate(36 -43)" onmousedown="handlePan(1,0)">
                  <use xlink:href="#rim" fill="#404040">
                        <set attributeName="fill" to="#808080" begin="arrowRight.mouseover" end="arrowRight.mouseout"/>
                  </use>
                  <path fill="none" stroke="white" stroke-width="1.5" d="M0,-3.0v7 M-2.5,-0.5L0,-3.0L2.5,-0.5"/>
                </g>
                <g id="arrowDown" xlink:href="#dirArrow" transform="rotate(180) translate(-30 -48)" onmousedown="handlePan(0,1)">
                  <use xlink:href="#rim" fill="#404040">
                        <set attributeName="fill" to="#808080" begin="arrowDown.mouseover" end="arrowDown.mouseout"/>
                  </use>
                  <path fill="none" stroke="white" stroke-width="1.5" d="M0,-3.0v7 M-2.5,-0.5L0,-3.0L2.5,-0.5"/>
                </g>
                <g id="arrowLeft" xlink:href="#dirArrow" transform="rotate(270) translate(-36 17)" onmousedown="handlePan(-1,0)">
                  <use xlink:href="#rim" fill="#404040">
                        <set attributeName="fill" to="#808080" begin="arrowLeft.mouseover" end="arrowLeft.mouseout"/>
                  </use>
                  <path fill="none" stroke="white" stroke-width="1.5" d="M0,-3.0v7 M-2.5,-0.5L0,-3.0L2.5,-0.5"/>
                </g>
        </g>
        <svg viewBox="0 0 15 15" width="100%" height="30px" preserveAspectRatio="xMaxYMin meet">
         <g id="arrow_out" transform="scale(0.3 0.3)">
          <a xlink:href="classSlicesMonitor__coll__graph_org.svg" target="_base">
           <rect id="button" ry="5" rx="5" y="6" x="6" height="38" width="38"
                fill="#f2f5e9" fill-opacity="0.5" stroke="#606060" stroke-width="1.0"/>
           <path id="arrow"
             d="M 11.500037,31.436501 C 11.940474,20.09759 22.043105,11.32322 32.158766,21.979434 L 37.068811,17.246167 C 37.068811,17.246167 37.088388,32 37.088388,32 L 22.160133,31.978069 C 22.160133,31.978069 26.997745,27.140456 26.997745,27.140456 C 18.528582,18.264221 13.291696,25.230495 11.500037,31.436501 z"
             style="fill:#404040;"/>
          </a>
         </g>
        </svg>
</svg>
