<?xml version="1.0" encoding="UTF-8" standalone="no"?>
<!DOCTYPE svg PUBLIC "-//W3C//DTD SVG 1.1//EN"
 "http://www.w3.org/Graphics/SVG/1.1/DTD/svg11.dtd">
<!-- Generated by graphviz version 2.26.3 (20100126.1600)
 -->
<!-- Title: Context Pages: 1 -->
<svg width="1657pt" height="854pt"
 viewBox="0.00 0.00 1656.71 854.00" xmlns="http://www.w3.org/2000/svg" xmlns:xlink="http://www.w3.org/1999/xlink">
<g id="graph1" class="graph" transform="scale(1 1) rotate(0) translate(4 850)">
<title>Context</title>
<polygon fill="white" stroke="white" points="-4,5 -4,-850 1653.71,-850 1653.71,5 -4,5"/>
<!-- Node1 -->
<g id="node1" class="node"><title>Node1</title>
<polygon fill="#bfbfbf" stroke="black" points="784.206,-0.5 784.206,-63.5 835.206,-63.5 835.206,-0.5 784.206,-0.5"/>
<text text-anchor="middle" x="809.706" y="-50.5" font-family="Helvetica,sans-Serif" font-size="10.00">Context</text>
<polyline fill="none" stroke="black" points="784.206,-42.5 835.206,-42.5 "/>
<text text-anchor="middle" x="809.706" y="-29.5" font-family="Helvetica,sans-Serif" font-size="10.00"> </text>
<polyline fill="none" stroke="black" points="784.206,-21.5 835.206,-21.5 "/>
<text text-anchor="middle" x="809.706" y="-8.5" font-family="Helvetica,sans-Serif" font-size="10.00"> </text>
</g>
<!-- Node2 -->
<g id="node2" class="node"><title>Node2</title>
<a xlink:href="../../d9/d7c/classBeams.html" target="_top" xlink:title="{Beams\n||+ Beams()\l+ ~Beams()\l+ losses_energy_cut()\l+ losses_longitudinal_cut()\l+ losses_separatrix()\l+ n_macroparticles_alive()\l+ statistics()\l&#45; statistics()\l}">
<polygon fill="white" stroke="black" points="743.206,-160 743.206,-314 876.206,-314 876.206,-160 743.206,-160"/>
<text text-anchor="middle" x="809.706" y="-301" font-family="Helvetica,sans-Serif" font-size="10.00">Beams</text>
<polyline fill="none" stroke="black" points="743.206,-293 876.206,-293 "/>
<text text-anchor="middle" x="809.706" y="-280" font-family="Helvetica,sans-Serif" font-size="10.00"> </text>
<polyline fill="none" stroke="black" points="743.206,-272 876.206,-272 "/>
<text text-anchor="start" x="751.206" y="-259" font-family="Helvetica,sans-Serif" font-size="10.00">+ Beams()</text>
<text text-anchor="start" x="751.206" y="-246" font-family="Helvetica,sans-Serif" font-size="10.00">+ ~Beams()</text>
<text text-anchor="start" x="751.206" y="-233" font-family="Helvetica,sans-Serif" font-size="10.00">+ losses_energy_cut()</text>
<text text-anchor="start" x="751.206" y="-220" font-family="Helvetica,sans-Serif" font-size="10.00">+ losses_longitudinal_cut()</text>
<text text-anchor="start" x="751.206" y="-207" font-family="Helvetica,sans-Serif" font-size="10.00">+ losses_separatrix()</text>
<text text-anchor="start" x="751.206" y="-194" font-family="Helvetica,sans-Serif" font-size="10.00">+ n_macroparticles_alive()</text>
<text text-anchor="start" x="751.206" y="-181" font-family="Helvetica,sans-Serif" font-size="10.00">+ statistics()</text>
<text text-anchor="start" x="751.206" y="-168" font-family="Helvetica,sans-Serif" font-size="10.00">&#45; statistics()</text>
</a>
</g>
<!-- Node2&#45;&gt;Node1 -->
<g id="edge2" class="edge"><title>Node2&#45;&gt;Node1</title>
<path fill="none" stroke="#404040" d="M809.706,-159.79C809.706,-131.375 809.706,-100.194 809.706,-75.7456"/>
<polygon fill="none" stroke="#404040" points="809.706,-75.6249 805.706,-69.6249 809.706,-63.6249 813.706,-69.6248 809.706,-75.6249"/>
<text text-anchor="middle" x="827.206" y="-86.5" font-family="Helvetica,sans-Serif" font-size="10.00"> +Beam</text>
</g>
<!-- Node3 -->
<g id="node4" class="node"><title>Node3</title>
<polygon fill="white" stroke="#bfbfbf" points="477.206,-668.5 477.206,-731.5 522.206,-731.5 522.206,-668.5 477.206,-668.5"/>
<text text-anchor="middle" x="499.706" y="-718.5" font-family="Helvetica,sans-Serif" font-size="10.00">double</text>
<polyline fill="none" stroke="#bfbfbf" points="477.206,-710.5 522.206,-710.5 "/>
<text text-anchor="middle" x="499.706" y="-697.5" font-family="Helvetica,sans-Serif" font-size="10.00"> </text>
<polyline fill="none" stroke="#bfbfbf" points="477.206,-689.5 522.206,-689.5 "/>
<text text-anchor="middle" x="499.706" y="-676.5" font-family="Helvetica,sans-Serif" font-size="10.00"> </text>
</g>
<!-- Node3&#45;&gt;Node2 -->
<g id="edge4" class="edge"><title>Node3&#45;&gt;Node2</title>
<path fill="none" stroke="#404040" d="M490.579,-668.369C480.897,-627.478 471.599,-556.494 508.706,-514 537.546,-480.973 573.944,-526.228 605.706,-496 644.751,-458.841 604.884,-423.548 633.706,-378 658.381,-339.005 697.643,-306.028 732.829,-281.794"/>
<polygon fill="none" stroke="#404040" points="733.156,-281.575 735.901,-274.907 743.112,-274.876 740.367,-281.544 733.156,-281.575"/>
<text text-anchor="middle" x="537.206" y="-596" font-family="Helvetica,sans-Serif" font-size="10.00"> +sigma_dt</text>
<text text-anchor="middle" x="537.206" y="-583" font-family="Helvetica,sans-Serif" font-size="10.00">+sigma_dE</text>
<text text-anchor="middle" x="537.206" y="-570" font-family="Helvetica,sans-Serif" font-size="10.00">+ratio</text>
<text text-anchor="middle" x="537.206" y="-557" font-family="Helvetica,sans-Serif" font-size="10.00">+epsn_rms_l</text>
<text text-anchor="middle" x="537.206" y="-544" font-family="Helvetica,sans-Serif" font-size="10.00">+mean_dE</text>
<text text-anchor="middle" x="537.206" y="-531" font-family="Helvetica,sans-Serif" font-size="10.00">+mean_dt</text>
</g>
<!-- Node9 -->
<g id="node17" class="node"><title>Node9</title>
<polygon fill="white" stroke="#bfbfbf" points="716.206,-534.5 716.206,-597.5 819.206,-597.5 819.206,-534.5 716.206,-534.5"/>
<text text-anchor="middle" x="767.706" y="-584.5" font-family="Helvetica,sans-Serif" font-size="10.00">std::vector&lt; ftype &gt;</text>
<polyline fill="none" stroke="#bfbfbf" points="716.206,-576.5 819.206,-576.5 "/>
<text text-anchor="middle" x="767.706" y="-563.5" font-family="Helvetica,sans-Serif" font-size="10.00"> </text>
<polyline fill="none" stroke="#bfbfbf" points="716.206,-555.5 819.206,-555.5 "/>
<text text-anchor="middle" x="767.706" y="-542.5" font-family="Helvetica,sans-Serif" font-size="10.00"> </text>
</g>
<!-- Node3&#45;&gt;Node9 -->
<g id="edge20" class="edge"><title>Node3&#45;&gt;Node9</title>
<path fill="none" stroke="#404040" d="M522.445,-696.69C570.208,-689.405 679.086,-670.953 709.706,-650 725.154,-639.429 737.728,-623.281 747.17,-607.958"/>
<polygon fill="none" stroke="#404040" points="747.181,-607.94 746.732,-600.742 753.203,-597.56 753.652,-604.757 747.181,-607.94"/>
<text text-anchor="middle" x="748.206" y="-640.5" font-family="Helvetica,sans-Serif" font-size="10.00"> +elements</text>
</g>
<!-- Node10 -->
<g id="node21" class="node"><title>Node10</title>
<a xlink:href="../../d1/dfc/classGeneralParameters.html" target="_top" xlink:title="{GeneralParameters\n||+ GeneralParameters()\l+ ~GeneralParameters()\l&#45; _eta0()\l&#45; _eta1()\l&#45; _eta2()\l&#45; eta_generation()\l}">
<polygon fill="white" stroke="black" points="190.706,-173 190.706,-301 312.706,-301 312.706,-173 190.706,-173"/>
<text text-anchor="middle" x="251.706" y="-288" font-family="Helvetica,sans-Serif" font-size="10.00">GeneralParameters</text>
<polyline fill="none" stroke="black" points="190.706,-280 312.706,-280 "/>
<text text-anchor="middle" x="251.706" y="-267" font-family="Helvetica,sans-Serif" font-size="10.00"> </text>
<polyline fill="none" stroke="black" points="190.706,-259 312.706,-259 "/>
<text text-anchor="start" x="198.706" y="-246" font-family="Helvetica,sans-Serif" font-size="10.00">+ GeneralParameters()</text>
<text text-anchor="start" x="198.706" y="-233" font-family="Helvetica,sans-Serif" font-size="10.00">+ ~GeneralParameters()</text>
<text text-anchor="start" x="198.706" y="-220" font-family="Helvetica,sans-Serif" font-size="10.00">&#45; _eta0()</text>
<text text-anchor="start" x="198.706" y="-207" font-family="Helvetica,sans-Serif" font-size="10.00">&#45; _eta1()</text>
<text text-anchor="start" x="198.706" y="-194" font-family="Helvetica,sans-Serif" font-size="10.00">&#45; _eta2()</text>
<text text-anchor="start" x="198.706" y="-181" font-family="Helvetica,sans-Serif" font-size="10.00">&#45; eta_generation()</text>
</a>
</g>
<!-- Node3&#45;&gt;Node10 -->
<g id="edge26" class="edge"><title>Node3&#45;&gt;Node10</title>
<path fill="none" stroke="#404040" d="M476.946,-699.729C390.769,-698.179 86.4014,-687.772 27.7059,-618 -61.2389,-512.271 85.764,-366.779 180.797,-289.771"/>
<polygon fill="none" stroke="#404040" points="181.027,-289.586 183.209,-282.713 190.393,-282.083 188.211,-288.956 181.027,-289.586"/>
<text text-anchor="middle" x="73.7059" y="-602.5" font-family="Helvetica,sans-Serif" font-size="10.00"> +ring_circumference</text>
<text text-anchor="middle" x="73.7059" y="-589.5" font-family="Helvetica,sans-Serif" font-size="10.00">+cumulative_times</text>
<text text-anchor="middle" x="73.7059" y="-576.5" font-family="Helvetica,sans-Serif" font-size="10.00">+charge2</text>
<text text-anchor="middle" x="73.7059" y="-563.5" font-family="Helvetica,sans-Serif" font-size="10.00">+mass2</text>
<text text-anchor="middle" x="73.7059" y="-550.5" font-family="Helvetica,sans-Serif" font-size="10.00">+ring_radius</text>
<text text-anchor="middle" x="73.7059" y="-537.5" font-family="Helvetica,sans-Serif" font-size="10.00">+charge</text>
<text text-anchor="middle" x="73.7059" y="-524.5" font-family="Helvetica,sans-Serif" font-size="10.00">+mass</text>
</g>
<!-- Node14 -->
<g id="node34" class="node"><title>Node14</title>
<a xlink:href="../../da/d49/classRfParameters.html" target="_top" xlink:title="{RfParameters\n||+ RfParameters()\l+ ~RfParameters()\l+ beta()\l+ energy()\l+ eta_0()\l+ eta_1()\l+ eta_2()\l+ eta_tracking()\l+ gamma()\l+ momentum()\l+ sign_eta_0()\l}">
<polygon fill="white" stroke="black" points="490.706,-140.5 490.706,-333.5 588.706,-333.5 588.706,-140.5 490.706,-140.5"/>
<text text-anchor="middle" x="539.706" y="-320.5" font-family="Helvetica,sans-Serif" font-size="10.00">RfParameters</text>
<polyline fill="none" stroke="black" points="490.706,-312.5 588.706,-312.5 "/>
<text text-anchor="middle" x="539.706" y="-299.5" font-family="Helvetica,sans-Serif" font-size="10.00"> </text>
<polyline fill="none" stroke="black" points="490.706,-291.5 588.706,-291.5 "/>
<text text-anchor="start" x="498.706" y="-278.5" font-family="Helvetica,sans-Serif" font-size="10.00">+ RfParameters()</text>
<text text-anchor="start" x="498.706" y="-265.5" font-family="Helvetica,sans-Serif" font-size="10.00">+ ~RfParameters()</text>
<text text-anchor="start" x="498.706" y="-252.5" font-family="Helvetica,sans-Serif" font-size="10.00">+ beta()</text>
<text text-anchor="start" x="498.706" y="-239.5" font-family="Helvetica,sans-Serif" font-size="10.00">+ energy()</text>
<text text-anchor="start" x="498.706" y="-226.5" font-family="Helvetica,sans-Serif" font-size="10.00">+ eta_0()</text>
<text text-anchor="start" x="498.706" y="-213.5" font-family="Helvetica,sans-Serif" font-size="10.00">+ eta_1()</text>
<text text-anchor="start" x="498.706" y="-200.5" font-family="Helvetica,sans-Serif" font-size="10.00">+ eta_2()</text>
<text text-anchor="start" x="498.706" y="-187.5" font-family="Helvetica,sans-Serif" font-size="10.00">+ eta_tracking()</text>
<text text-anchor="start" x="498.706" y="-174.5" font-family="Helvetica,sans-Serif" font-size="10.00">+ gamma()</text>
<text text-anchor="start" x="498.706" y="-161.5" font-family="Helvetica,sans-Serif" font-size="10.00">+ momentum()</text>
<text text-anchor="start" x="498.706" y="-148.5" font-family="Helvetica,sans-Serif" font-size="10.00">+ sign_eta_0()</text>
</a>
</g>
<!-- Node3&#45;&gt;Node14 -->
<g id="edge44" class="edge"><title>Node3&#45;&gt;Node14</title>
<path fill="none" stroke="#404040" d="M476.922,-687.49C454.552,-673.763 421.796,-649.434 407.706,-618 388.799,-575.821 401.463,-559.799 407.706,-514 408.827,-505.773 410.636,-504.041 412.706,-496 426.144,-443.801 418.601,-427.16 440.706,-378 451.875,-353.161 467.623,-328.153 483.28,-306.24"/>
<polygon fill="none" stroke="#404040" points="483.383,-306.099 483.684,-298.894 490.451,-296.401 490.15,-303.606 483.383,-306.099"/>
<text text-anchor="middle" x="442.706" y="-570" font-family="Helvetica,sans-Serif" font-size="10.00"> +length_ratio</text>
<text text-anchor="middle" x="442.706" y="-557" font-family="Helvetica,sans-Serif" font-size="10.00">+section_length</text>
</g>
<!-- Node15 -->
<g id="node40" class="node"><title>Node15</title>
<a xlink:href="../../dc/d45/classSlices.html" target="_top" xlink:title="{Slices\n||+ Slices()\l+ ~Slices()\l+ beam_profile_derivative()\l+ beam_profile_filter\l_chebyshev()\l+ beam_profile_filter\l_chebyshev()\l+ beam_spectrum_generation()\l+ convert_coordinates()\l+ fwhm()\l+ fwhm_multibunch()\l+ gaussian_fit()\land 9 more...\l&#45; gaussian_filter1d()\l&#45; gradient()\l}">
<polygon fill="white" stroke="black" points="1186.71,-114.5 1186.71,-359.5 1338.71,-359.5 1338.71,-114.5 1186.71,-114.5"/>
<text text-anchor="middle" x="1262.71" y="-346.5" font-family="Helvetica,sans-Serif" font-size="10.00">Slices</text>
<polyline fill="none" stroke="black" points="1186.71,-338.5 1338.71,-338.5 "/>
<text text-anchor="middle" x="1262.71" y="-325.5" font-family="Helvetica,sans-Serif" font-size="10.00"> </text>
<polyline fill="none" stroke="black" points="1186.71,-317.5 1338.71,-317.5 "/>
<text text-anchor="start" x="1194.71" y="-304.5" font-family="Helvetica,sans-Serif" font-size="10.00">+ Slices()</text>
<text text-anchor="start" x="1194.71" y="-291.5" font-family="Helvetica,sans-Serif" font-size="10.00">+ ~Slices()</text>
<text text-anchor="start" x="1194.71" y="-278.5" font-family="Helvetica,sans-Serif" font-size="10.00">+ beam_profile_derivative()</text>
<text text-anchor="start" x="1194.71" y="-265.5" font-family="Helvetica,sans-Serif" font-size="10.00">+ beam_profile_filter</text>
<text text-anchor="start" x="1194.71" y="-252.5" font-family="Helvetica,sans-Serif" font-size="10.00">_chebyshev()</text>
<text text-anchor="start" x="1194.71" y="-239.5" font-family="Helvetica,sans-Serif" font-size="10.00">+ beam_profile_filter</text>
<text text-anchor="start" x="1194.71" y="-226.5" font-family="Helvetica,sans-Serif" font-size="10.00">_chebyshev()</text>
<text text-anchor="start" x="1194.71" y="-213.5" font-family="Helvetica,sans-Serif" font-size="10.00">+ beam_spectrum_generation()</text>
<text text-anchor="start" x="1194.71" y="-200.5" font-family="Helvetica,sans-Serif" font-size="10.00">+ convert_coordinates()</text>
<text text-anchor="start" x="1194.71" y="-187.5" font-family="Helvetica,sans-Serif" font-size="10.00">+ fwhm()</text>
<text text-anchor="start" x="1194.71" y="-174.5" font-family="Helvetica,sans-Serif" font-size="10.00">+ fwhm_multibunch()</text>
<text text-anchor="start" x="1194.71" y="-161.5" font-family="Helvetica,sans-Serif" font-size="10.00">+ gaussian_fit()</text>
<text text-anchor="start" x="1194.71" y="-148.5" font-family="Helvetica,sans-Serif" font-size="10.00">and 9 more...</text>
<text text-anchor="start" x="1194.71" y="-135.5" font-family="Helvetica,sans-Serif" font-size="10.00">&#45; gaussian_filter1d()</text>
<text text-anchor="start" x="1194.71" y="-122.5" font-family="Helvetica,sans-Serif" font-size="10.00">&#45; gradient()</text>
</a>
</g>
<!-- Node3&#45;&gt;Node15 -->
<g id="edge54" class="edge"><title>Node3&#45;&gt;Node15</title>
<path fill="none" stroke="#404040" d="M522.456,-698.627C592.484,-694.13 803.803,-678.48 865.706,-650 885.154,-641.052 889.819,-635.804 901.706,-618 928.866,-577.321 901.283,-546.647 937.706,-514 964.521,-489.964 987.736,-517.39 1016.71,-496 1065.4,-460.046 1045.17,-423.831 1084.71,-378 1111.31,-347.159 1145.44,-318.246 1176.68,-294.728"/>
<polygon fill="none" stroke="#404040" points="1177.07,-294.437 1179.5,-287.649 1186.7,-287.286 1184.27,-294.074 1177.07,-294.437"/>
<text text-anchor="middle" x="962.206" y="-609" font-family="Helvetica,sans-Serif" font-size="10.00"> +bp_fwhm</text>
<text text-anchor="middle" x="962.206" y="-596" font-family="Helvetica,sans-Serif" font-size="10.00">+cut_right</text>
<text text-anchor="middle" x="962.206" y="-583" font-family="Helvetica,sans-Serif" font-size="10.00">+bl_rms</text>
<text text-anchor="middle" x="962.206" y="-570" font-family="Helvetica,sans-Serif" font-size="10.00">+bl_fwhm</text>
<text text-anchor="middle" x="962.206" y="-557" font-family="Helvetica,sans-Serif" font-size="10.00">+bl_gauss</text>
<text text-anchor="middle" x="962.206" y="-544" font-family="Helvetica,sans-Serif" font-size="10.00">+cut_left</text>
<text text-anchor="middle" x="962.206" y="-531" font-family="Helvetica,sans-Serif" font-size="10.00">+bp_rms</text>
<text text-anchor="middle" x="962.206" y="-518" font-family="Helvetica,sans-Serif" font-size="10.00">+bp_gauss</text>
</g>
<!-- Node4 -->
<g id="node6" class="node"><title>Node4</title>
<polygon fill="white" stroke="#bfbfbf" points="836.706,-534.5 836.706,-597.5 892.706,-597.5 892.706,-534.5 836.706,-534.5"/>
<text text-anchor="middle" x="864.706" y="-584.5" font-family="Helvetica,sans-Serif" font-size="10.00">long long</text>
<polyline fill="none" stroke="#bfbfbf" points="836.706,-576.5 892.706,-576.5 "/>
<text text-anchor="middle" x="864.706" y="-563.5" font-family="Helvetica,sans-Serif" font-size="10.00"> </text>
<polyline fill="none" stroke="#bfbfbf" points="836.706,-555.5 892.706,-555.5 "/>
<text text-anchor="middle" x="864.706" y="-542.5" font-family="Helvetica,sans-Serif" font-size="10.00"> </text>
</g>
<!-- Node4&#45;&gt;Node2 -->
<g id="edge6" class="edge"><title>Node4&#45;&gt;Node2</title>
<path fill="none" stroke="#404040" d="M843.282,-534.405C838.34,-527.544 832.98,-520.421 827.706,-514 820.722,-505.497 814.791,-506.218 810.706,-496 789.302,-442.465 789.088,-377.584 794.207,-326.152"/>
<polygon fill="none" stroke="#404040" points="794.225,-325.983 790.903,-319.583 795.533,-314.055 798.855,-320.455 794.225,-325.983"/>
<text text-anchor="middle" x="833.706" y="-434.5" font-family="Helvetica,sans-Serif" font-size="10.00"> +intensity</text>
</g>
<!-- Node5 -->
<g id="node8" class="node"><title>Node5</title>
<polygon fill="white" stroke="#bfbfbf" points="1365.21,-668.5 1365.21,-731.5 1394.21,-731.5 1394.21,-668.5 1365.21,-668.5"/>
<text text-anchor="middle" x="1379.71" y="-718.5" font-family="Helvetica,sans-Serif" font-size="10.00">int</text>
<polyline fill="none" stroke="#bfbfbf" points="1365.21,-710.5 1394.21,-710.5 "/>
<text text-anchor="middle" x="1379.71" y="-697.5" font-family="Helvetica,sans-Serif" font-size="10.00"> </text>
<polyline fill="none" stroke="#bfbfbf" points="1365.21,-689.5 1394.21,-689.5 "/>
<text text-anchor="middle" x="1379.71" y="-676.5" font-family="Helvetica,sans-Serif" font-size="10.00"> </text>
</g>
<!-- Node5&#45;&gt;Node1 -->
<g id="edge40" class="edge"><title>Node5&#45;&gt;Node1</title>
<path fill="none" stroke="#404040" d="M1394.31,-696.634C1438.46,-686.138 1568.93,-652.627 1592.71,-618 1601.5,-605.185 1596.19,-394.152 1589.71,-378 1530.37,-230.302 1488.14,-188.917 1347.71,-114 1260.29,-67.3681 955.025,-42.1071 847.52,-34.4983"/>
<polygon fill="none" stroke="#404040" points="847.389,-34.4893 841.126,-38.0639 835.417,-33.6577 841.68,-30.0831 847.389,-34.4893"/>
<text text-anchor="middle" x="1622.71" y="-434.5" font-family="Helvetica,sans-Serif" font-size="10.00"> +n_threads</text>
</g>
<!-- Node5&#45;&gt;Node2 -->
<g id="edge8" class="edge"><title>Node5&#45;&gt;Node2</title>
<path fill="none" stroke="#404040" d="M1364.89,-691.918C1342.66,-679.077 1300.74,-651.957 1276.71,-618 1248.45,-578.073 1275.08,-548.799 1240.71,-514 1224.11,-497.197 1211.23,-507.689 1190.71,-496 1119.1,-455.22 1115.13,-425.364 1047.71,-378 995.916,-341.62 934.378,-305.331 886.851,-278.679"/>
<polygon fill="none" stroke="#404040" points="886.798,-278.649 879.609,-279.219 876.319,-272.802 883.507,-272.233 886.798,-278.649"/>
<text text-anchor="middle" x="1327.71" y="-570" font-family="Helvetica,sans-Serif" font-size="10.00"> +n_macroparticles</text>
<text text-anchor="middle" x="1327.71" y="-557" font-family="Helvetica,sans-Serif" font-size="10.00">+n_macroparticles_lost</text>
</g>
<!-- Node6 -->
<g id="node10" class="node"><title>Node6</title>
<polygon fill="white" stroke="#bfbfbf" points="995.706,-534.5 995.706,-597.5 1087.71,-597.5 1087.71,-534.5 995.706,-534.5"/>
<text text-anchor="middle" x="1041.71" y="-584.5" font-family="Helvetica,sans-Serif" font-size="10.00">std::vector&lt; int &gt;</text>
<polyline fill="none" stroke="#bfbfbf" points="995.706,-576.5 1087.71,-576.5 "/>
<text text-anchor="middle" x="1041.71" y="-563.5" font-family="Helvetica,sans-Serif" font-size="10.00"> </text>
<polyline fill="none" stroke="#bfbfbf" points="995.706,-555.5 1087.71,-555.5 "/>
<text text-anchor="middle" x="1041.71" y="-542.5" font-family="Helvetica,sans-Serif" font-size="10.00"> </text>
</g>
<!-- Node5&#45;&gt;Node6 -->
<g id="edge12" class="edge"><title>Node5&#45;&gt;Node6</title>
<path fill="none" stroke="#404040" d="M1364.93,-695.598C1340.83,-688.599 1291.45,-675.009 1248.71,-668 1225.6,-664.21 1054.54,-667.252 1038.71,-650 1028.84,-639.25 1027.14,-624.081 1028.73,-609.586"/>
<polygon fill="none" stroke="#404040" points="1028.74,-609.513 1025.79,-602.933 1030.73,-597.68 1033.68,-604.261 1028.74,-609.513"/>
<text text-anchor="middle" x="1063.21" y="-640.5" font-family="Helvetica,sans-Serif" font-size="10.00"> +elements</text>
</g>
<!-- Node5&#45;&gt;Node15 -->
<g id="edge58" class="edge"><title>Node5&#45;&gt;Node15</title>
<path fill="none" stroke="#404040" d="M1394.26,-690.393C1413.4,-676.835 1446.27,-650.123 1460.71,-618 1482.58,-569.327 1493.6,-425.202 1468.71,-378 1443.45,-330.101 1393.77,-295.37 1349.53,-272.363"/>
<polygon fill="none" stroke="#404040" points="1349.43,-272.313 1342.27,-273.183 1338.71,-266.911 1345.87,-266.04 1349.43,-272.313"/>
<text text-anchor="middle" x="1503.71" y="-570" font-family="Helvetica,sans-Serif" font-size="10.00"> +n_sigma</text>
<text text-anchor="middle" x="1503.71" y="-557" font-family="Helvetica,sans-Serif" font-size="10.00">+n_slices</text>
</g>
<!-- Node6&#45;&gt;Node2 -->
<g id="edge10" class="edge"><title>Node6&#45;&gt;Node2</title>
<path fill="none" stroke="#404040" d="M1036.16,-534.381C1028.1,-495.011 1010.31,-426.983 976.706,-378 952.683,-342.979 917.745,-311.629 886.028,-287.435"/>
<polygon fill="none" stroke="#404040" points="885.912,-287.348 878.712,-286.957 876.303,-280.16 883.504,-280.551 885.912,-287.348"/>
<text text-anchor="middle" x="1035.21" y="-434.5" font-family="Helvetica,sans-Serif" font-size="10.00"> +id</text>
</g>
<!-- Node6&#45;&gt;Node15 -->
<g id="edge60" class="edge"><title>Node6&#45;&gt;Node15</title>
<path fill="none" stroke="#404040" d="M1062.9,-534.454C1089.76,-494.456 1137.67,-423.134 1179.84,-360.356"/>
<polygon fill="none" stroke="#404040" points="1179.87,-360.321 1179.89,-353.11 1186.56,-350.36 1186.53,-357.571 1179.87,-360.321"/>
<text text-anchor="middle" x="1206.71" y="-434.5" font-family="Helvetica,sans-Serif" font-size="10.00"> +n_macroparticles</text>
</g>
<!-- Node7 -->
<g id="node13" class="node"><title>Node7</title>
<a xlink:title="STL class.">
<polygon fill="white" stroke="#bfbfbf" points="877.206,-668.5 877.206,-731.5 964.206,-731.5 964.206,-668.5 877.206,-668.5"/>
<text text-anchor="middle" x="920.706" y="-718.5" font-family="Helvetica,sans-Serif" font-size="10.00">std::vector&lt; T &gt;</text>
<polyline fill="none" stroke="#bfbfbf" points="877.206,-710.5 964.206,-710.5 "/>
<text text-anchor="middle" x="920.706" y="-697.5" font-family="Helvetica,sans-Serif" font-size="10.00"> </text>
<polyline fill="none" stroke="#bfbfbf" points="877.206,-689.5 964.206,-689.5 "/>
<text text-anchor="middle" x="920.706" y="-676.5" font-family="Helvetica,sans-Serif" font-size="10.00"> </text>
</a>
</g>
<!-- Node7&#45;&gt;Node6 -->
<g id="edge14" class="edge"><title>Node7&#45;&gt;Node6</title>
<path fill="none" stroke="orange" d="M956.151,-660.747C974.329,-640.616 996.171,-616.427 1013.24,-597.528"/>
<polygon fill="orange" stroke="orange" points="953.485,-658.476 949.381,-668.244 958.681,-663.168 953.485,-658.476"/>
<text text-anchor="middle" x="992.706" y="-640.5" font-family="Helvetica,sans-Serif" font-size="10.00"> &lt; int &gt;</text>
</g>
<!-- Node7&#45;&gt;Node9 -->
<g id="edge22" class="edge"><title>Node7&#45;&gt;Node9</title>
<path fill="none" stroke="orange" d="M896.708,-659.976C890.086,-651.23 882.321,-642.62 873.706,-636 856.298,-622.623 846.496,-629.354 827.706,-618 818.15,-612.226 808.634,-604.9 800.09,-597.582"/>
<polygon fill="orange" stroke="orange" points="894.031,-662.25 902.697,-668.344 899.723,-658.175 894.031,-662.25"/>
<text text-anchor="middle" x="909.206" y="-640.5" font-family="Helvetica,sans-Serif" font-size="10.00"> &lt; ftype &gt;</text>
</g>
<!-- Node11 -->
<g id="node24" class="node"><title>Node11</title>
<polygon fill="white" stroke="#bfbfbf" points="574.206,-534.5 574.206,-597.5 699.206,-597.5 699.206,-534.5 574.206,-534.5"/>
<text text-anchor="middle" x="636.706" y="-584.5" font-family="Helvetica,sans-Serif" font-size="10.00">std::vector&lt; f_vector_t &gt;</text>
<polyline fill="none" stroke="#bfbfbf" points="574.206,-576.5 699.206,-576.5 "/>
<text text-anchor="middle" x="636.706" y="-563.5" font-family="Helvetica,sans-Serif" font-size="10.00"> </text>
<polyline fill="none" stroke="#bfbfbf" points="574.206,-555.5 699.206,-555.5 "/>
<text text-anchor="middle" x="636.706" y="-542.5" font-family="Helvetica,sans-Serif" font-size="10.00"> </text>
</g>
<!-- Node7&#45;&gt;Node11 -->
<g id="edge30" class="edge"><title>Node7&#45;&gt;Node11</title>
<path fill="none" stroke="#404040" d="M877.024,-678.35C848.857,-664.952 811.178,-648.066 776.706,-636 746.792,-625.529 736.331,-631.604 707.706,-618 699.831,-614.258 691.94,-609.6 684.43,-604.621"/>
<polygon fill="none" stroke="#404040" points="684.314,-604.541 677.105,-604.398 674.463,-597.688 681.673,-597.831 684.314,-604.541"/>
<text text-anchor="middle" x="837.206" y="-640.5" font-family="Helvetica,sans-Serif" font-size="10.00"> +elements</text>
</g>
<!-- Node7&#45;&gt;Node11 -->
<g id="edge32" class="edge"><title>Node7&#45;&gt;Node11</title>
<path fill="none" stroke="orange" d="M866.638,-698.098C793.745,-694.292 669.712,-683.016 640.706,-650 628.468,-636.07 627.388,-615.288 629.407,-597.881"/>
<polygon fill="orange" stroke="orange" points="866.845,-701.613 877.005,-698.607 867.188,-694.621 866.845,-701.613"/>
<text text-anchor="middle" x="673.206" y="-640.5" font-family="Helvetica,sans-Serif" font-size="10.00"> &lt; f_vector_t &gt;</text>
</g>
<!-- Node17 -->
<g id="node47" class="node"><title>Node17</title>
<polygon fill="white" stroke="#bfbfbf" points="1105.71,-534.5 1105.71,-597.5 1231.71,-597.5 1231.71,-534.5 1105.71,-534.5"/>
<text text-anchor="middle" x="1168.71" y="-584.5" font-family="Helvetica,sans-Serif" font-size="10.00">std::vector&lt; complex_t &gt;</text>
<polyline fill="none" stroke="#bfbfbf" points="1105.71,-576.5 1231.71,-576.5 "/>
<text text-anchor="middle" x="1168.71" y="-563.5" font-family="Helvetica,sans-Serif" font-size="10.00"> </text>
<polyline fill="none" stroke="#bfbfbf" points="1105.71,-555.5 1231.71,-555.5 "/>
<text text-anchor="middle" x="1168.71" y="-542.5" font-family="Helvetica,sans-Serif" font-size="10.00"> </text>
</g>
<!-- Node7&#45;&gt;Node17 -->
<g id="edge66" class="edge"><title>Node7&#45;&gt;Node17</title>
<path fill="none" stroke="orange" d="M974.605,-692.002C1009.92,-684.96 1055.97,-672.237 1091.71,-650 1113.37,-636.516 1132.76,-615.292 1146.65,-597.552"/>
<polygon fill="orange" stroke="orange" points="973.654,-688.62 964.482,-693.925 974.96,-695.497 973.654,-688.62"/>
<text text-anchor="middle" x="1142.21" y="-640.5" font-family="Helvetica,sans-Serif" font-size="10.00"> &lt; complex_t &gt;</text>
</g>
<!-- Node8 -->
<g id="node15" class="node"><title>Node8</title>
<polygon fill="white" stroke="#bfbfbf" points="906.206,-782.5 906.206,-845.5 935.206,-845.5 935.206,-782.5 906.206,-782.5"/>
<text text-anchor="middle" x="920.706" y="-832.5" font-family="Helvetica,sans-Serif" font-size="10.00">T</text>
<polyline fill="none" stroke="#bfbfbf" points="906.206,-824.5 935.206,-824.5 "/>
<text text-anchor="middle" x="920.706" y="-811.5" font-family="Helvetica,sans-Serif" font-size="10.00"> </text>
<polyline fill="none" stroke="#bfbfbf" points="906.206,-803.5 935.206,-803.5 "/>
<text text-anchor="middle" x="920.706" y="-790.5" font-family="Helvetica,sans-Serif" font-size="10.00"> </text>
</g>
<!-- Node8&#45;&gt;Node7 -->
<g id="edge16" class="edge"><title>Node8&#45;&gt;Node7</title>
<path fill="none" stroke="#404040" d="M920.706,-782.245C920.706,-770.386 920.706,-756.7 920.706,-743.938"/>
<polygon fill="none" stroke="#404040" points="920.706,-743.585 916.706,-737.585 920.706,-731.585 924.706,-737.585 920.706,-743.585"/>
<text text-anchor="middle" x="945.206" y="-754.5" font-family="Helvetica,sans-Serif" font-size="10.00"> +elements</text>
</g>
<!-- Node9&#45;&gt;Node2 -->
<g id="edge18" class="edge"><title>Node9&#45;&gt;Node2</title>
<path fill="none" stroke="#404040" d="M765.208,-534.2C762.872,-496.653 760.806,-432.427 768.706,-378 771.19,-360.884 775.238,-342.937 779.845,-325.802"/>
<polygon fill="none" stroke="#404040" points="779.888,-325.648 777.646,-318.794 783.111,-314.089 785.352,-320.943 779.888,-325.648"/>
<text text-anchor="middle" x="778.206" y="-441" font-family="Helvetica,sans-Serif" font-size="10.00"> +dt</text>
<text text-anchor="middle" x="778.206" y="-428" font-family="Helvetica,sans-Serif" font-size="10.00">+dE</text>
</g>
<!-- Node9&#45;&gt;Node10 -->
<g id="edge36" class="edge"><title>Node9&#45;&gt;Node10</title>
<path fill="none" stroke="#404040" d="M738.561,-534.253C729.485,-526.285 718.898,-518.678 707.706,-514 660.2,-494.143 519.517,-524.607 476.706,-496 427.788,-463.312 453.105,-424.224 416.706,-378 389.982,-344.062 354.104,-312.244 322.629,-287.453"/>
<polygon fill="none" stroke="#404040" points="322.496,-287.35 315.304,-286.83 313.018,-279.99 320.21,-280.511 322.496,-287.35"/>
<text text-anchor="middle" x="505.206" y="-460.5" font-family="Helvetica,sans-Serif" font-size="10.00"> +ring_length</text>
<text text-anchor="middle" x="505.206" y="-447.5" font-family="Helvetica,sans-Serif" font-size="10.00">+omega_rev</text>
<text text-anchor="middle" x="505.206" y="-434.5" font-family="Helvetica,sans-Serif" font-size="10.00">+t_rev</text>
<text text-anchor="middle" x="505.206" y="-421.5" font-family="Helvetica,sans-Serif" font-size="10.00">+f_rev</text>
<text text-anchor="middle" x="505.206" y="-408.5" font-family="Helvetica,sans-Serif" font-size="10.00">+cycle_time</text>
</g>
<!-- Node9&#45;&gt;Node14 -->
<g id="edge48" class="edge"><title>Node9&#45;&gt;Node14</title>
<path fill="none" stroke="#404040" d="M733.94,-534.275C725.662,-527.202 716.613,-520.022 707.706,-514 693.215,-504.202 684.125,-509.25 672.706,-496 636.555,-454.052 657.039,-427.743 632.706,-378 622.124,-356.367 608.76,-334.103 595.489,-313.839"/>
<polygon fill="none" stroke="#404040" points="595.427,-313.746 588.774,-310.964 588.784,-303.752 595.436,-306.535 595.427,-313.746"/>
<text text-anchor="middle" x="715.706" y="-473.5" font-family="Helvetica,sans-Serif" font-size="10.00"> +dphi_RF_steering</text>
<text text-anchor="middle" x="715.706" y="-460.5" font-family="Helvetica,sans-Serif" font-size="10.00">+omega_s0</text>
<text text-anchor="middle" x="715.706" y="-447.5" font-family="Helvetica,sans-Serif" font-size="10.00">+phi_s</text>
<text text-anchor="middle" x="715.706" y="-434.5" font-family="Helvetica,sans-Serif" font-size="10.00">+Qs</text>
<text text-anchor="middle" x="715.706" y="-421.5" font-family="Helvetica,sans-Serif" font-size="10.00">+t_RF</text>
<text text-anchor="middle" x="715.706" y="-408.5" font-family="Helvetica,sans-Serif" font-size="10.00">+dphi_RF</text>
<text text-anchor="middle" x="715.706" y="-395.5" font-family="Helvetica,sans-Serif" font-size="10.00">+E_increment</text>
</g>
<!-- Node9&#45;&gt;Node15 -->
<g id="edge68" class="edge"><title>Node9&#45;&gt;Node15</title>
<path fill="none" stroke="#404040" d="M802.471,-534.242C810.556,-527.319 819.271,-520.212 827.706,-514 839.921,-505.004 848.298,-508.626 856.706,-496 886.148,-451.786 841.872,-418.951 875.706,-378 914.479,-331.071 1072.86,-284.197 1174.6,-258.063"/>
<polygon fill="none" stroke="#404040" points="1174.78,-258.017 1179.6,-252.661 1186.41,-255.057 1181.58,-260.414 1174.78,-258.017"/>
<text text-anchor="middle" x="924.206" y="-454" font-family="Helvetica,sans-Serif" font-size="10.00"> +bin_centers</text>
<text text-anchor="middle" x="924.206" y="-441" font-family="Helvetica,sans-Serif" font-size="10.00">+fFloatMacroparticles</text>
<text text-anchor="middle" x="924.206" y="-428" font-family="Helvetica,sans-Serif" font-size="10.00">+fBeamSpectrumFreq</text>
<text text-anchor="middle" x="924.206" y="-415" font-family="Helvetica,sans-Serif" font-size="10.00">+edges</text>
</g>
<!-- Node10&#45;&gt;Node1 -->
<g id="edge24" class="edge"><title>Node10&#45;&gt;Node1</title>
<path fill="none" stroke="#404040" d="M313.182,-198.743C358.411,-171.951 422.134,-136.971 481.706,-114 583.411,-74.7826 710.161,-49.3124 772.101,-38.2818"/>
<polygon fill="none" stroke="#404040" points="772.13,-38.2768 777.351,-33.3022 783.95,-36.2078 778.73,-41.1824 772.13,-38.2768"/>
<text text-anchor="middle" x="589.706" y="-86.5" font-family="Helvetica,sans-Serif" font-size="10.00"> +GP</text>
</g>
<!-- Node11&#45;&gt;Node10 -->
<g id="edge28" class="edge"><title>Node11&#45;&gt;Node10</title>
<path fill="none" stroke="#404040" d="M599.043,-534.424C587.435,-526.354 574.153,-518.652 560.706,-514 532.082,-504.097 310.919,-516.59 288.706,-496 285.314,-492.856 271.252,-388.803 261.476,-313.561"/>
<polygon fill="none" stroke="#404040" points="261.428,-313.185 256.69,-307.749 259.886,-301.284 264.624,-306.721 261.428,-313.185"/>
<text text-anchor="middle" x="316.206" y="-486.5" font-family="Helvetica,sans-Serif" font-size="10.00"> +alpha</text>
<text text-anchor="middle" x="316.206" y="-473.5" font-family="Helvetica,sans-Serif" font-size="10.00">+energy</text>
<text text-anchor="middle" x="316.206" y="-460.5" font-family="Helvetica,sans-Serif" font-size="10.00">+eta_0</text>
<text text-anchor="middle" x="316.206" y="-447.5" font-family="Helvetica,sans-Serif" font-size="10.00">+gamma</text>
<text text-anchor="middle" x="316.206" y="-434.5" font-family="Helvetica,sans-Serif" font-size="10.00">+eta_1</text>
<text text-anchor="middle" x="316.206" y="-421.5" font-family="Helvetica,sans-Serif" font-size="10.00">+beta</text>
<text text-anchor="middle" x="316.206" y="-408.5" font-family="Helvetica,sans-Serif" font-size="10.00">+eta_2</text>
<text text-anchor="middle" x="316.206" y="-395.5" font-family="Helvetica,sans-Serif" font-size="10.00">+kin_energy</text>
<text text-anchor="middle" x="316.206" y="-382.5" font-family="Helvetica,sans-Serif" font-size="10.00">+momentum</text>
</g>
<!-- Node11&#45;&gt;Node14 -->
<g id="edge46" class="edge"><title>Node11&#45;&gt;Node14</title>
<path fill="none" stroke="#404040" d="M596.681,-534.441C585.474,-523.497 574.508,-510.338 567.706,-496 545.77,-449.76 537.756,-393.792 535.642,-345.732"/>
<polygon fill="none" stroke="#404040" points="535.641,-345.687 531.436,-339.829 535.227,-333.695 539.431,-339.553 535.641,-345.687"/>
<text text-anchor="middle" x="600.206" y="-473.5" font-family="Helvetica,sans-Serif" font-size="10.00"> +phi_RF</text>
<text text-anchor="middle" x="600.206" y="-460.5" font-family="Helvetica,sans-Serif" font-size="10.00">+harmonic</text>
<text text-anchor="middle" x="600.206" y="-447.5" font-family="Helvetica,sans-Serif" font-size="10.00">+phi_offset</text>
<text text-anchor="middle" x="600.206" y="-434.5" font-family="Helvetica,sans-Serif" font-size="10.00">+voltage</text>
<text text-anchor="middle" x="600.206" y="-421.5" font-family="Helvetica,sans-Serif" font-size="10.00">+omega_RF</text>
<text text-anchor="middle" x="600.206" y="-408.5" font-family="Helvetica,sans-Serif" font-size="10.00">+omega_RF_d</text>
<text text-anchor="middle" x="600.206" y="-395.5" font-family="Helvetica,sans-Serif" font-size="10.00">+phi_noise</text>
</g>
<!-- Node12 -->
<g id="node28" class="node"><title>Node12</title>
<polygon fill="white" stroke="#bfbfbf" points="128.706,-534.5 128.706,-597.5 200.706,-597.5 200.706,-534.5 128.706,-534.5"/>
<text text-anchor="middle" x="164.706" y="-584.5" font-family="Helvetica,sans-Serif" font-size="10.00">particle_type</text>
<polyline fill="none" stroke="#bfbfbf" points="128.706,-576.5 200.706,-576.5 "/>
<text text-anchor="middle" x="164.706" y="-563.5" font-family="Helvetica,sans-Serif" font-size="10.00"> </text>
<polyline fill="none" stroke="#bfbfbf" points="128.706,-555.5 200.706,-555.5 "/>
<text text-anchor="middle" x="164.706" y="-542.5" font-family="Helvetica,sans-Serif" font-size="10.00"> </text>
</g>
<!-- Node12&#45;&gt;Node10 -->
<g id="edge34" class="edge"><title>Node12&#45;&gt;Node10</title>
<path fill="none" stroke="#404040" d="M151.311,-534.166C147.025,-522.395 142.839,-508.799 140.706,-496 132.084,-444.269 123.54,-427.556 140.706,-378 149.722,-351.972 165.75,-327.104 182.872,-305.699"/>
<polygon fill="none" stroke="#404040" points="182.885,-305.684 183.621,-298.51 190.526,-296.431 189.79,-303.605 182.885,-305.684"/>
<text text-anchor="middle" x="166.706" y="-441" font-family="Helvetica,sans-Serif" font-size="10.00"> +particle_2</text>
<text text-anchor="middle" x="166.706" y="-428" font-family="Helvetica,sans-Serif" font-size="10.00">+particle</text>
</g>
<!-- Node13 -->
<g id="node31" class="node"><title>Node13</title>
<polygon fill="white" stroke="#bfbfbf" points="273.706,-534.5 273.706,-597.5 329.706,-597.5 329.706,-534.5 273.706,-534.5"/>
<text text-anchor="middle" x="301.706" y="-584.5" font-family="Helvetica,sans-Serif" font-size="10.00">unsigned</text>
<polyline fill="none" stroke="#bfbfbf" points="273.706,-576.5 329.706,-576.5 "/>
<text text-anchor="middle" x="301.706" y="-563.5" font-family="Helvetica,sans-Serif" font-size="10.00"> </text>
<polyline fill="none" stroke="#bfbfbf" points="273.706,-555.5 329.706,-555.5 "/>
<text text-anchor="middle" x="301.706" y="-542.5" font-family="Helvetica,sans-Serif" font-size="10.00"> </text>
</g>
<!-- Node13&#45;&gt;Node10 -->
<g id="edge38" class="edge"><title>Node13&#45;&gt;Node10</title>
<path fill="none" stroke="#404040" d="M273.476,-552.634C252.43,-540.954 225.246,-521.816 212.706,-496 184.803,-438.555 199.254,-366.187 217.985,-312.56"/>
<polygon fill="none" stroke="#404040" points="218.062,-312.349 216.353,-305.343 222.162,-301.071 223.871,-308.077 218.062,-312.349"/>
<text text-anchor="middle" x="241.206" y="-447.5" font-family="Helvetica,sans-Serif" font-size="10.00"> +n_turns</text>
<text text-anchor="middle" x="241.206" y="-434.5" font-family="Helvetica,sans-Serif" font-size="10.00">+n_sections</text>
<text text-anchor="middle" x="241.206" y="-421.5" font-family="Helvetica,sans-Serif" font-size="10.00">+alpha_order</text>
</g>
<!-- Node13&#45;&gt;Node14 -->
<g id="edge50" class="edge"><title>Node13&#45;&gt;Node14</title>
<path fill="none" stroke="#404040" d="M326.259,-534.352C334.163,-522.821 342.273,-509.332 347.706,-496 367.869,-446.519 343.511,-423.993 370.706,-378 397.105,-333.354 443.022,-296.412 480.337,-271.556"/>
<polygon fill="none" stroke="#404040" points="480.553,-271.416 483.399,-264.79 490.61,-264.87 487.763,-271.495 480.553,-271.416"/>
<text text-anchor="middle" x="391.706" y="-447.5" font-family="Helvetica,sans-Serif" font-size="10.00"> +counter</text>
<text text-anchor="middle" x="391.706" y="-434.5" font-family="Helvetica,sans-Serif" font-size="10.00">+idx</text>
<text text-anchor="middle" x="391.706" y="-421.5" font-family="Helvetica,sans-Serif" font-size="10.00">+n_rf</text>
</g>
<!-- Node14&#45;&gt;Node1 -->
<g id="edge42" class="edge"><title>Node14&#45;&gt;Node1</title>
<path fill="none" stroke="#404040" d="M588.914,-199.638C642.479,-158.969 726.812,-94.9377 774.247,-58.9222"/>
<polygon fill="none" stroke="#404040" points="774.509,-58.7237 776.869,-51.9096 784.066,-51.4671 781.706,-58.2812 774.509,-58.7237"/>
<text text-anchor="middle" x="750.206" y="-86.5" font-family="Helvetica,sans-Serif" font-size="10.00"> +RfP</text>
</g>
<!-- Node15&#45;&gt;Node1 -->
<g id="edge52" class="edge"><title>Node15&#45;&gt;Node1</title>
<path fill="none" stroke="#404040" d="M1186.63,-202.572C1088.07,-157.972 920.168,-81.9885 846.356,-48.5856"/>
<polygon fill="none" stroke="#404040" points="846.275,-48.549 839.16,-49.7195 835.342,-43.6015 842.458,-42.431 846.275,-48.549"/>
<text text-anchor="middle" x="958.206" y="-86.5" font-family="Helvetica,sans-Serif" font-size="10.00"> +Slice</text>
</g>
<!-- Node16 -->
<g id="node43" class="node"><title>Node16</title>
<polygon fill="white" stroke="#bfbfbf" points="1387.21,-534.5 1387.21,-597.5 1452.21,-597.5 1452.21,-534.5 1387.21,-534.5"/>
<text text-anchor="middle" x="1419.71" y="-584.5" font-family="Helvetica,sans-Serif" font-size="10.00">cuts_unit_t</text>
<polyline fill="none" stroke="#bfbfbf" points="1387.21,-576.5 1452.21,-576.5 "/>
<text text-anchor="middle" x="1419.71" y="-563.5" font-family="Helvetica,sans-Serif" font-size="10.00"> </text>
<polyline fill="none" stroke="#bfbfbf" points="1387.21,-555.5 1452.21,-555.5 "/>
<text text-anchor="middle" x="1419.71" y="-542.5" font-family="Helvetica,sans-Serif" font-size="10.00"> </text>
</g>
<!-- Node16&#45;&gt;Node15 -->
<g id="edge56" class="edge"><title>Node16&#45;&gt;Node15</title>
<path fill="none" stroke="#404040" d="M1419.56,-534.471C1418.23,-495.785 1412.18,-429.054 1387.71,-378 1377.3,-356.297 1362.56,-335.423 1346.82,-316.694"/>
<polygon fill="none" stroke="#404040" points="1346.63,-316.468 1339.68,-314.546 1338.78,-307.391 1345.73,-309.313 1346.63,-316.468"/>
<text text-anchor="middle" x="1440.21" y="-434.5" font-family="Helvetica,sans-Serif" font-size="10.00"> +cuts_unit</text>
</g>
<!-- Node17&#45;&gt;Node15 -->
<g id="edge62" class="edge"><title>Node17&#45;&gt;Node15</title>
<path fill="none" stroke="#404040" d="M1211.56,-534.397C1222.39,-527.162 1234.22,-519.879 1245.71,-514 1266.36,-503.431 1281.43,-515.025 1294.71,-496 1309.14,-475.32 1304.97,-423.645 1295.64,-371.844"/>
<polygon fill="none" stroke="#404040" points="1295.59,-371.546 1290.55,-366.385 1293.38,-359.751 1298.41,-364.912 1295.59,-371.546"/>
<text text-anchor="middle" x="1343.71" y="-434.5" font-family="Helvetica,sans-Serif" font-size="10.00"> +fBeamSpectrum</text>
</g>
<!-- Node18 -->
<g id="node49" class="node"><title>Node18</title>
<a xlink:title="STL class.">
<polygon fill="white" stroke="#bfbfbf" points="1167.21,-668.5 1167.21,-731.5 1240.21,-731.5 1240.21,-668.5 1167.21,-668.5"/>
<text text-anchor="middle" x="1203.71" y="-718.5" font-family="Helvetica,sans-Serif" font-size="10.00">std::complex</text>
<polyline fill="none" stroke="#bfbfbf" points="1167.21,-710.5 1240.21,-710.5 "/>
<text text-anchor="middle" x="1203.71" y="-697.5" font-family="Helvetica,sans-Serif" font-size="10.00"> </text>
<polyline fill="none" stroke="#bfbfbf" points="1167.21,-689.5 1240.21,-689.5 "/>
<text text-anchor="middle" x="1203.71" y="-676.5" font-family="Helvetica,sans-Serif" font-size="10.00"> </text>
</a>
</g>
<!-- Node18&#45;&gt;Node17 -->
<g id="edge64" class="edge"><title>Node18&#45;&gt;Node17</title>
<path fill="none" stroke="#404040" d="M1195.41,-668.244C1190.81,-650.638 1185.03,-628.493 1180.02,-609.318"/>
<polygon fill="none" stroke="#404040" points="1179.97,-609.139 1174.59,-604.344 1176.94,-597.528 1182.33,-602.323 1179.97,-609.139"/>
<text text-anchor="middle" x="1214.21" y="-640.5" font-family="Helvetica,sans-Serif" font-size="10.00"> +elements</text>
</g>
<!-- Node19 -->
<g id="node53" class="node"><title>Node19</title>
<polygon fill="white" stroke="#bfbfbf" points="1551.21,-534.5 1551.21,-597.5 1584.21,-597.5 1584.21,-534.5 1551.21,-534.5"/>
<text text-anchor="middle" x="1567.71" y="-584.5" font-family="Helvetica,sans-Serif" font-size="10.00">fit_t</text>
<polyline fill="none" stroke="#bfbfbf" points="1551.21,-576.5 1584.21,-576.5 "/>
<text text-anchor="middle" x="1567.71" y="-563.5" font-family="Helvetica,sans-Serif" font-size="10.00"> </text>
<polyline fill="none" stroke="#bfbfbf" points="1551.21,-555.5 1584.21,-555.5 "/>
<text text-anchor="middle" x="1567.71" y="-542.5" font-family="Helvetica,sans-Serif" font-size="10.00"> </text>
</g>
<!-- Node19&#45;&gt;Node15 -->
<g id="edge70" class="edge"><title>Node19&#45;&gt;Node15</title>
<path fill="none" stroke="#404040" d="M1555.15,-534.412C1550.48,-522.43 1545.23,-508.632 1540.71,-496 1522.09,-443.995 1536.37,-421.001 1501.71,-378 1462.13,-328.907 1400.54,-293.155 1349.8,-269.935"/>
<polygon fill="none" stroke="#404040" points="1349.77,-269.924 1342.66,-271.127 1338.81,-265.026 1345.92,-263.823 1349.77,-269.924"/>
<text text-anchor="middle" x="1565.21" y="-434.5" font-family="Helvetica,sans-Serif" font-size="10.00"> +fit_option</text>
</g>
</g>
</svg>
