<?xml version="1.0" encoding="UTF-8" standalone="no"?>
<!DOCTYPE svg PUBLIC "-//W3C//DTD SVG 1.1//EN"
 "http://www.w3.org/Graphics/SVG/1.1/DTD/svg11.dtd">
<!-- Generated by graphviz version 2.26.3 (20100126.1600)
 -->
<!-- Title: Context Pages: 1 -->
<!--zoomable 842 -->
<svg id="main" version="1.1" xmlns="http://www.w3.org/2000/svg" xmlns:xlink="http://www.w3.org/1999/xlink" xml:space="preserve" onload="init(evt)">
        <defs>
                <circle id="rim" cx="0" cy="0" r="7"/>
                <circle id="rim2" cx="0" cy="0" r="3.5"/>
                <g id="zoomPlus">
                        <use xlink:href="#rim" fill="#404040">
                                <set attributeName="fill" to="#808080" begin="zoomplus.mouseover" end="zoomplus.mouseout"/>
                        </use>
                        <path d="M-4,0h8M0,-4v8" fill="none" stroke="white" stroke-width="1.5" pointer-events="none"/>
                </g>
                <g id="zoomMin">
                        <use xlink:href="#rim" fill="#404040">
                                <set attributeName="fill" to="#808080" begin="zoomminus.mouseover" end="zoomminus.mouseout"/>
                        </use>
                        <path d="M-4,0h8" fill="none" stroke="white" stroke-width="1.5" pointer-events="none"/>
                </g>
                <g id="dirArrow">
                        <path fill="none" stroke="white" stroke-width="1.5" d="M0,-3.0v7 M-2.5,-0.5L0,-3.0L2.5,-0.5"/>
                </g>
               <g id="resetDef">
                       <use xlink:href="#rim2" fill="#404040">
                               <set attributeName="fill" to="#808080" begin="reset.mouseover" end="reset.mouseout"/>
                       </use>
               </g>
        </defs>

<script type="text/javascript">
var viewWidth = 1778;
var viewHeight = 842;
var sectionId = 'dynsection-0';
</script>
<script xlink:href="../../svgpan.js"/>
<svg id="graph" class="graph">
<g id="viewport">
<title>Context</title>
<polygon fill="white" stroke="white" points="-4,5 -4,-838 1775.12,-838 1775.12,5 -4,5"/>
<!-- Node1 -->
<g id="node1" class="node"><title>Node1</title>
<polygon fill="#bfbfbf" stroke="black" points="991.622,-0.5 991.622,-63.5 1042.62,-63.5 1042.62,-0.5 991.622,-0.5"/>
<text text-anchor="middle" x="1017.12" y="-50.5" font-family="Helvetica,sans-Serif" font-size="10.00">Context</text>
<polyline fill="none" stroke="black" points="991.622,-42.5 1042.62,-42.5 "/>
<text text-anchor="middle" x="1017.12" y="-29.5" font-family="Helvetica,sans-Serif" font-size="10.00"> </text>
<polyline fill="none" stroke="black" points="991.622,-21.5 1042.62,-21.5 "/>
<text text-anchor="middle" x="1017.12" y="-8.5" font-family="Helvetica,sans-Serif" font-size="10.00"> </text>
</g>
<!-- Node2 -->
<g id="node2" class="node"><title>Node2</title>
<a xlink:href="../../d9/d7c/classBeams.html" target="_top" xlink:title="{Beams\n||+ Beams()\l+ ~Beams()\l+ losses_energy_cut()\l+ losses_longitudinal_cut()\l+ losses_separatrix()\l+ n_macroparticles_alive()\l+ statistics()\l}">
<polygon fill="white" stroke="black" points="950.622,-160.5 950.622,-301.5 1083.62,-301.5 1083.62,-160.5 950.622,-160.5"/>
<text text-anchor="middle" x="1017.12" y="-288.5" font-family="Helvetica,sans-Serif" font-size="10.00">Beams</text>
<polyline fill="none" stroke="black" points="950.622,-280.5 1083.62,-280.5 "/>
<text text-anchor="middle" x="1017.12" y="-267.5" font-family="Helvetica,sans-Serif" font-size="10.00"> </text>
<polyline fill="none" stroke="black" points="950.622,-259.5 1083.62,-259.5 "/>
<text text-anchor="start" x="958.622" y="-246.5" font-family="Helvetica,sans-Serif" font-size="10.00">+ Beams()</text>
<text text-anchor="start" x="958.622" y="-233.5" font-family="Helvetica,sans-Serif" font-size="10.00">+ ~Beams()</text>
<text text-anchor="start" x="958.622" y="-220.5" font-family="Helvetica,sans-Serif" font-size="10.00">+ losses_energy_cut()</text>
<text text-anchor="start" x="958.622" y="-207.5" font-family="Helvetica,sans-Serif" font-size="10.00">+ losses_longitudinal_cut()</text>
<text text-anchor="start" x="958.622" y="-194.5" font-family="Helvetica,sans-Serif" font-size="10.00">+ losses_separatrix()</text>
<text text-anchor="start" x="958.622" y="-181.5" font-family="Helvetica,sans-Serif" font-size="10.00">+ n_macroparticles_alive()</text>
<text text-anchor="start" x="958.622" y="-168.5" font-family="Helvetica,sans-Serif" font-size="10.00">+ statistics()</text>
</a>
</g>
<!-- Node2&#45;&gt;Node1 -->
<g id="edge2" class="edge"><title>Node2&#45;&gt;Node1</title>
<path fill="none" stroke="#404040" d="M1017.12,-160.28C1017.12,-132.12 1017.12,-100.596 1017.12,-75.8454"/>
<polygon fill="none" stroke="#404040" points="1017.12,-75.5734 1013.12,-69.5734 1017.12,-63.5734 1021.12,-69.5733 1017.12,-75.5734"/>
<text text-anchor="middle" x="1034.62" y="-86.5" font-family="Helvetica,sans-Serif" font-size="10.00"> +Beam</text>
</g>
<!-- Node3 -->
<g id="node4" class="node"><title>Node3</title>
<polygon fill="white" stroke="#bfbfbf" points="690.622,-656.5 690.622,-719.5 735.622,-719.5 735.622,-656.5 690.622,-656.5"/>
<text text-anchor="middle" x="713.122" y="-706.5" font-family="Helvetica,sans-Serif" font-size="10.00">double</text>
<polyline fill="none" stroke="#bfbfbf" points="690.622,-698.5 735.622,-698.5 "/>
<text text-anchor="middle" x="713.122" y="-685.5" font-family="Helvetica,sans-Serif" font-size="10.00"> </text>
<polyline fill="none" stroke="#bfbfbf" points="690.622,-677.5 735.622,-677.5 "/>
<text text-anchor="middle" x="713.122" y="-664.5" font-family="Helvetica,sans-Serif" font-size="10.00"> </text>
</g>
<!-- Node3&#45;&gt;Node2 -->
<g id="edge4" class="edge"><title>Node3&#45;&gt;Node2</title>
<path fill="none" stroke="#404040" d="M704.058,-656.424C694.445,-615.593 685.222,-544.674 722.122,-502 749.374,-470.484 784.081,-512.869 814.122,-484 852.986,-446.652 812.883,-411.281 842.122,-366 866.56,-328.152 905.393,-296.624 940.275,-273.581"/>
<polygon fill="none" stroke="#404040" points="940.386,-273.509 943.262,-266.896 950.472,-267.007 947.597,-273.62 940.386,-273.509"/>
<text text-anchor="middle" x="750.622" y="-584" font-family="Helvetica,sans-Serif" font-size="10.00"> +sigma_dt</text>
<text text-anchor="middle" x="750.622" y="-571" font-family="Helvetica,sans-Serif" font-size="10.00">+sigma_dE</text>
<text text-anchor="middle" x="750.622" y="-558" font-family="Helvetica,sans-Serif" font-size="10.00">+ratio</text>
<text text-anchor="middle" x="750.622" y="-545" font-family="Helvetica,sans-Serif" font-size="10.00">+epsn_rms_l</text>
<text text-anchor="middle" x="750.622" y="-532" font-family="Helvetica,sans-Serif" font-size="10.00">+mean_dE</text>
<text text-anchor="middle" x="750.622" y="-519" font-family="Helvetica,sans-Serif" font-size="10.00">+mean_dt</text>
</g>
<!-- Node9 -->
<g id="node17" class="node"><title>Node9</title>
<polygon fill="white" stroke="#bfbfbf" points="787.622,-522.5 787.622,-585.5 890.622,-585.5 890.622,-522.5 787.622,-522.5"/>
<text text-anchor="middle" x="839.122" y="-572.5" font-family="Helvetica,sans-Serif" font-size="10.00">std::vector&lt; ftype &gt;</text>
<polyline fill="none" stroke="#bfbfbf" points="787.622,-564.5 890.622,-564.5 "/>
<text text-anchor="middle" x="839.122" y="-551.5" font-family="Helvetica,sans-Serif" font-size="10.00"> </text>
<polyline fill="none" stroke="#bfbfbf" points="787.622,-543.5 890.622,-543.5 "/>
<text text-anchor="middle" x="839.122" y="-530.5" font-family="Helvetica,sans-Serif" font-size="10.00"> </text>
</g>
<!-- Node3&#45;&gt;Node9 -->
<g id="edge20" class="edge"><title>Node3&#45;&gt;Node9</title>
<path fill="none" stroke="#404040" d="M736.003,-682.061C758.44,-675.098 792.109,-661.423 812.122,-638 821.819,-626.651 828.046,-611.769 832.039,-597.69"/>
<polygon fill="none" stroke="#404040" points="832.139,-597.285 829.688,-590.503 835.005,-585.632 837.456,-592.414 832.139,-597.285"/>
<text text-anchor="middle" x="845.622" y="-628.5" font-family="Helvetica,sans-Serif" font-size="10.00"> +elements</text>
</g>
<!-- Node10 -->
<g id="node21" class="node"><title>Node10</title>
<a xlink:href="../../d1/dfc/classGeneralParameters.html" target="_top" xlink:title="{GeneralParameters\n||+ GeneralParameters()\l+ ~GeneralParameters()\l&#45; _eta0()\l&#45; _eta1()\l&#45; _eta2()\l&#45; eta_generation()\l}">
<polygon fill="white" stroke="black" points="245.122,-167 245.122,-295 367.122,-295 367.122,-167 245.122,-167"/>
<text text-anchor="middle" x="306.122" y="-282" font-family="Helvetica,sans-Serif" font-size="10.00">GeneralParameters</text>
<polyline fill="none" stroke="black" points="245.122,-274 367.122,-274 "/>
<text text-anchor="middle" x="306.122" y="-261" font-family="Helvetica,sans-Serif" font-size="10.00"> </text>
<polyline fill="none" stroke="black" points="245.122,-253 367.122,-253 "/>
<text text-anchor="start" x="253.122" y="-240" font-family="Helvetica,sans-Serif" font-size="10.00">+ GeneralParameters()</text>
<text text-anchor="start" x="253.122" y="-227" font-family="Helvetica,sans-Serif" font-size="10.00">+ ~GeneralParameters()</text>
<text text-anchor="start" x="253.122" y="-214" font-family="Helvetica,sans-Serif" font-size="10.00">&#45; _eta0()</text>
<text text-anchor="start" x="253.122" y="-201" font-family="Helvetica,sans-Serif" font-size="10.00">&#45; _eta1()</text>
<text text-anchor="start" x="253.122" y="-188" font-family="Helvetica,sans-Serif" font-size="10.00">&#45; _eta2()</text>
<text text-anchor="start" x="253.122" y="-175" font-family="Helvetica,sans-Serif" font-size="10.00">&#45; eta_generation()</text>
</a>
</g>
<!-- Node3&#45;&gt;Node10 -->
<g id="edge26" class="edge"><title>Node3&#45;&gt;Node10</title>
<path fill="none" stroke="#404040" d="M690.479,-687.039C576.938,-681.992 73.2379,-656.839 28.1218,-606 -72.5549,-492.553 122.56,-344.553 234.781,-273.158"/>
<polygon fill="none" stroke="#404040" points="234.883,-273.094 237.828,-266.512 245.037,-266.699 242.092,-273.281 234.883,-273.094"/>
<text text-anchor="middle" x="74.1218" y="-590.5" font-family="Helvetica,sans-Serif" font-size="10.00"> +ring_circumference</text>
<text text-anchor="middle" x="74.1218" y="-577.5" font-family="Helvetica,sans-Serif" font-size="10.00">+cumulative_times</text>
<text text-anchor="middle" x="74.1218" y="-564.5" font-family="Helvetica,sans-Serif" font-size="10.00">+charge2</text>
<text text-anchor="middle" x="74.1218" y="-551.5" font-family="Helvetica,sans-Serif" font-size="10.00">+mass2</text>
<text text-anchor="middle" x="74.1218" y="-538.5" font-family="Helvetica,sans-Serif" font-size="10.00">+ring_radius</text>
<text text-anchor="middle" x="74.1218" y="-525.5" font-family="Helvetica,sans-Serif" font-size="10.00">+charge</text>
<text text-anchor="middle" x="74.1218" y="-512.5" font-family="Helvetica,sans-Serif" font-size="10.00">+mass</text>
</g>
<!-- Node14 -->
<g id="node34" class="node"><title>Node14</title>
<a xlink:href="../../da/d49/classRfParameters.html" target="_top" xlink:title="{RfParameters\n||+ RfParameters()\l+ ~RfParameters()\l+ beta()\l+ energy()\l+ eta_0()\l+ eta_1()\l+ eta_2()\l+ eta_tracking()\l+ gamma()\l+ momentum()\l+ sign_eta_0()\l}">
<polygon fill="white" stroke="black" points="464.122,-134.5 464.122,-327.5 562.122,-327.5 562.122,-134.5 464.122,-134.5"/>
<text text-anchor="middle" x="513.122" y="-314.5" font-family="Helvetica,sans-Serif" font-size="10.00">RfParameters</text>
<polyline fill="none" stroke="black" points="464.122,-306.5 562.122,-306.5 "/>
<text text-anchor="middle" x="513.122" y="-293.5" font-family="Helvetica,sans-Serif" font-size="10.00"> </text>
<polyline fill="none" stroke="black" points="464.122,-285.5 562.122,-285.5 "/>
<text text-anchor="start" x="472.122" y="-272.5" font-family="Helvetica,sans-Serif" font-size="10.00">+ RfParameters()</text>
<text text-anchor="start" x="472.122" y="-259.5" font-family="Helvetica,sans-Serif" font-size="10.00">+ ~RfParameters()</text>
<text text-anchor="start" x="472.122" y="-246.5" font-family="Helvetica,sans-Serif" font-size="10.00">+ beta()</text>
<text text-anchor="start" x="472.122" y="-233.5" font-family="Helvetica,sans-Serif" font-size="10.00">+ energy()</text>
<text text-anchor="start" x="472.122" y="-220.5" font-family="Helvetica,sans-Serif" font-size="10.00">+ eta_0()</text>
<text text-anchor="start" x="472.122" y="-207.5" font-family="Helvetica,sans-Serif" font-size="10.00">+ eta_1()</text>
<text text-anchor="start" x="472.122" y="-194.5" font-family="Helvetica,sans-Serif" font-size="10.00">+ eta_2()</text>
<text text-anchor="start" x="472.122" y="-181.5" font-family="Helvetica,sans-Serif" font-size="10.00">+ eta_tracking()</text>
<text text-anchor="start" x="472.122" y="-168.5" font-family="Helvetica,sans-Serif" font-size="10.00">+ gamma()</text>
<text text-anchor="start" x="472.122" y="-155.5" font-family="Helvetica,sans-Serif" font-size="10.00">+ momentum()</text>
<text text-anchor="start" x="472.122" y="-142.5" font-family="Helvetica,sans-Serif" font-size="10.00">+ sign_eta_0()</text>
</a>
</g>
<!-- Node3&#45;&gt;Node14 -->
<g id="edge44" class="edge"><title>Node3&#45;&gt;Node14</title>
<path fill="none" stroke="#404040" d="M690.53,-686.718C610.94,-681.754 345.079,-661.254 284.122,-606 244.164,-569.781 212.742,-406.703 248.122,-366 266.966,-344.321 349.932,-359.798 376.122,-348 405.074,-334.957 432.609,-313.858 455.298,-293.145"/>
<polygon fill="none" stroke="#404040" points="455.307,-293.136 456.955,-286.115 464.069,-284.936 462.421,-291.956 455.307,-293.136"/>
<text text-anchor="middle" x="319.122" y="-558" font-family="Helvetica,sans-Serif" font-size="10.00"> +length_ratio</text>
<text text-anchor="middle" x="319.122" y="-545" font-family="Helvetica,sans-Serif" font-size="10.00">+section_length</text>
</g>
<!-- Node15 -->
<g id="node40" class="node"><title>Node15</title>
<a xlink:href="../../dc/d45/classSlices.html" target="_top" xlink:title="{Slices\n||+ Slices()\l+ ~Slices()\l+ beam_profile_derivative()\l+ beam_profile_filter\l_chebyshev()\l+ beam_spectrum_generation()\l+ convert_coordinates()\l+ fast_fwhm()\l+ fwhm()\l+ fwhm_multibunch()\l+ gauss()\land 10 more...\l&#45; gaussian_filter1d()\l&#45; gradient()\l}">
<polygon fill="white" stroke="black" points="1101.12,-115 1101.12,-347 1253.12,-347 1253.12,-115 1101.12,-115"/>
<text text-anchor="middle" x="1177.12" y="-334" font-family="Helvetica,sans-Serif" font-size="10.00">Slices</text>
<polyline fill="none" stroke="black" points="1101.12,-326 1253.12,-326 "/>
<text text-anchor="middle" x="1177.12" y="-313" font-family="Helvetica,sans-Serif" font-size="10.00"> </text>
<polyline fill="none" stroke="black" points="1101.12,-305 1253.12,-305 "/>
<text text-anchor="start" x="1109.12" y="-292" font-family="Helvetica,sans-Serif" font-size="10.00">+ Slices()</text>
<text text-anchor="start" x="1109.12" y="-279" font-family="Helvetica,sans-Serif" font-size="10.00">+ ~Slices()</text>
<text text-anchor="start" x="1109.12" y="-266" font-family="Helvetica,sans-Serif" font-size="10.00">+ beam_profile_derivative()</text>
<text text-anchor="start" x="1109.12" y="-253" font-family="Helvetica,sans-Serif" font-size="10.00">+ beam_profile_filter</text>
<text text-anchor="start" x="1109.12" y="-240" font-family="Helvetica,sans-Serif" font-size="10.00">_chebyshev()</text>
<text text-anchor="start" x="1109.12" y="-227" font-family="Helvetica,sans-Serif" font-size="10.00">+ beam_spectrum_generation()</text>
<text text-anchor="start" x="1109.12" y="-214" font-family="Helvetica,sans-Serif" font-size="10.00">+ convert_coordinates()</text>
<text text-anchor="start" x="1109.12" y="-201" font-family="Helvetica,sans-Serif" font-size="10.00">+ fast_fwhm()</text>
<text text-anchor="start" x="1109.12" y="-188" font-family="Helvetica,sans-Serif" font-size="10.00">+ fwhm()</text>
<text text-anchor="start" x="1109.12" y="-175" font-family="Helvetica,sans-Serif" font-size="10.00">+ fwhm_multibunch()</text>
<text text-anchor="start" x="1109.12" y="-162" font-family="Helvetica,sans-Serif" font-size="10.00">+ gauss()</text>
<text text-anchor="start" x="1109.12" y="-149" font-family="Helvetica,sans-Serif" font-size="10.00">and 10 more...</text>
<text text-anchor="start" x="1109.12" y="-136" font-family="Helvetica,sans-Serif" font-size="10.00">&#45; gaussian_filter1d()</text>
<text text-anchor="start" x="1109.12" y="-123" font-family="Helvetica,sans-Serif" font-size="10.00">&#45; gradient()</text>
</a>
</g>
<!-- Node3&#45;&gt;Node15 -->
<g id="edge56" class="edge"><title>Node3&#45;&gt;Node15</title>
<path fill="none" stroke="#404040" d="M735.951,-685.786C789.485,-680.21 921.213,-664.138 956.122,-638 1008.05,-599.119 959.797,-544.136 1009.12,-502 1043.79,-472.384 1076.98,-515.316 1110.12,-484 1149.3,-446.98 1124.42,-418.129 1138.12,-366 1138.73,-363.7 1139.34,-361.379 1139.97,-359.042"/>
<polygon fill="none" stroke="#404040" points="1140.02,-358.835 1137.73,-351.999 1143.15,-347.25 1145.45,-354.086 1140.02,-358.835"/>
<text text-anchor="middle" x="1033.62" y="-597" font-family="Helvetica,sans-Serif" font-size="10.00"> +bp_fwhm</text>
<text text-anchor="middle" x="1033.62" y="-584" font-family="Helvetica,sans-Serif" font-size="10.00">+cut_right</text>
<text text-anchor="middle" x="1033.62" y="-571" font-family="Helvetica,sans-Serif" font-size="10.00">+bl_rms</text>
<text text-anchor="middle" x="1033.62" y="-558" font-family="Helvetica,sans-Serif" font-size="10.00">+bl_fwhm</text>
<text text-anchor="middle" x="1033.62" y="-545" font-family="Helvetica,sans-Serif" font-size="10.00">+bl_gauss</text>
<text text-anchor="middle" x="1033.62" y="-532" font-family="Helvetica,sans-Serif" font-size="10.00">+cut_left</text>
<text text-anchor="middle" x="1033.62" y="-519" font-family="Helvetica,sans-Serif" font-size="10.00">+bp_rms</text>
<text text-anchor="middle" x="1033.62" y="-506" font-family="Helvetica,sans-Serif" font-size="10.00">+bp_gauss</text>
</g>
<!-- Node4 -->
<g id="node6" class="node"><title>Node4</title>
<polygon fill="white" stroke="#bfbfbf" points="908.122,-522.5 908.122,-585.5 964.122,-585.5 964.122,-522.5 908.122,-522.5"/>
<text text-anchor="middle" x="936.122" y="-572.5" font-family="Helvetica,sans-Serif" font-size="10.00">long long</text>
<polyline fill="none" stroke="#bfbfbf" points="908.122,-564.5 964.122,-564.5 "/>
<text text-anchor="middle" x="936.122" y="-551.5" font-family="Helvetica,sans-Serif" font-size="10.00"> </text>
<polyline fill="none" stroke="#bfbfbf" points="908.122,-543.5 964.122,-543.5 "/>
<text text-anchor="middle" x="936.122" y="-530.5" font-family="Helvetica,sans-Serif" font-size="10.00"> </text>
</g>
<!-- Node4&#45;&gt;Node2 -->
<g id="edge6" class="edge"><title>Node4&#45;&gt;Node2</title>
<path fill="none" stroke="#404040" d="M959.67,-522.479C965.419,-515.472 971.755,-508.27 978.122,-502 987.371,-492.892 995.071,-495.484 1001.12,-484 1016.22,-455.345 1019.25,-376.007 1019.09,-313.738"/>
<polygon fill="none" stroke="#404040" points="1019.09,-313.532 1015.05,-307.555 1019.02,-301.532 1023.05,-307.509 1019.09,-313.532"/>
<text text-anchor="middle" x="1041.12" y="-422.5" font-family="Helvetica,sans-Serif" font-size="10.00"> +intensity</text>
</g>
<!-- Node5 -->
<g id="node8" class="node"><title>Node5</title>
<polygon fill="white" stroke="#bfbfbf" points="1482.62,-656.5 1482.62,-719.5 1511.62,-719.5 1511.62,-656.5 1482.62,-656.5"/>
<text text-anchor="middle" x="1497.12" y="-706.5" font-family="Helvetica,sans-Serif" font-size="10.00">int</text>
<polyline fill="none" stroke="#bfbfbf" points="1482.62,-698.5 1511.62,-698.5 "/>
<text text-anchor="middle" x="1497.12" y="-685.5" font-family="Helvetica,sans-Serif" font-size="10.00"> </text>
<polyline fill="none" stroke="#bfbfbf" points="1482.62,-677.5 1511.62,-677.5 "/>
<text text-anchor="middle" x="1497.12" y="-664.5" font-family="Helvetica,sans-Serif" font-size="10.00"> </text>
</g>
<!-- Node5&#45;&gt;Node1 -->
<g id="edge40" class="edge"><title>Node5&#45;&gt;Node1</title>
<path fill="none" stroke="#404040" d="M1511.68,-687.28C1550.3,-684.492 1655.36,-670.989 1699.12,-606 1760.59,-514.707 1709.11,-450.107 1638.12,-366 1472.55,-169.824 1161.55,-70.9301 1054.47,-41.5738"/>
<polygon fill="none" stroke="#404040" points="1054.32,-41.533 1047.48,-43.8349 1042.73,-38.4121 1049.56,-36.1102 1054.32,-41.533"/>
<text text-anchor="middle" x="1744.12" y="-422.5" font-family="Helvetica,sans-Serif" font-size="10.00"> +n_threads</text>
</g>
<!-- Node5&#45;&gt;Node2 -->
<g id="edge8" class="edge"><title>Node5&#45;&gt;Node2</title>
<path fill="none" stroke="#404040" d="M1482.55,-683.89C1452.95,-674.807 1385.42,-650.246 1348.12,-606 1316.59,-568.604 1330.56,-547.304 1312.12,-502 1286.94,-440.126 1302.38,-404.973 1248.12,-366 1191.44,-325.282 1151.34,-384.944 1092.12,-348 1077.49,-338.868 1065.17,-325.711 1055.03,-311.488"/>
<polygon fill="none" stroke="#404040" points="1055.03,-311.482 1048.37,-308.72 1048.35,-301.509 1055.02,-304.271 1055.03,-311.482"/>
<text text-anchor="middle" x="1399.12" y="-558" font-family="Helvetica,sans-Serif" font-size="10.00"> +n_macroparticles</text>
<text text-anchor="middle" x="1399.12" y="-545" font-family="Helvetica,sans-Serif" font-size="10.00">+n_macroparticles_lost</text>
</g>
<!-- Node6 -->
<g id="node10" class="node"><title>Node6</title>
<polygon fill="white" stroke="#bfbfbf" points="1067.12,-522.5 1067.12,-585.5 1159.12,-585.5 1159.12,-522.5 1067.12,-522.5"/>
<text text-anchor="middle" x="1113.12" y="-572.5" font-family="Helvetica,sans-Serif" font-size="10.00">std::vector&lt; int &gt;</text>
<polyline fill="none" stroke="#bfbfbf" points="1067.12,-564.5 1159.12,-564.5 "/>
<text text-anchor="middle" x="1113.12" y="-551.5" font-family="Helvetica,sans-Serif" font-size="10.00"> </text>
<polyline fill="none" stroke="#bfbfbf" points="1067.12,-543.5 1159.12,-543.5 "/>
<text text-anchor="middle" x="1113.12" y="-530.5" font-family="Helvetica,sans-Serif" font-size="10.00"> </text>
</g>
<!-- Node5&#45;&gt;Node6 -->
<g id="edge12" class="edge"><title>Node5&#45;&gt;Node6</title>
<path fill="none" stroke="#404040" d="M1482.5,-684.97C1453.64,-679.034 1387.24,-665.614 1331.12,-656 1277.97,-646.894 1260.91,-658.719 1211.12,-638 1210.43,-637.714 1168.69,-606.479 1168.12,-606 1163.64,-602.237 1159.05,-598.209 1154.54,-594.123"/>
<polygon fill="none" stroke="#404040" points="1154.24,-593.848 1147.11,-592.727 1145.41,-585.72 1152.53,-586.841 1154.24,-593.848"/>
<text text-anchor="middle" x="1235.62" y="-628.5" font-family="Helvetica,sans-Serif" font-size="10.00"> +elements</text>
</g>
<!-- Node5&#45;&gt;Node15 -->
<g id="edge60" class="edge"><title>Node5&#45;&gt;Node15</title>
<path fill="none" stroke="#404040" d="M1511.69,-682.954C1537.89,-672.988 1592.25,-648.028 1614.12,-606 1663.45,-511.19 1666.78,-448.731 1599.12,-366 1556.6,-314.007 1375.71,-270.127 1265.02,-247.486"/>
<polygon fill="none" stroke="#404040" points="1264.97,-247.476 1258.3,-250.207 1253.21,-245.096 1259.89,-242.366 1264.97,-247.476"/>
<text text-anchor="middle" x="1672.12" y="-551.5" font-family="Helvetica,sans-Serif" font-size="10.00"> +n_sigma</text>
</g>
<!-- Node6&#45;&gt;Node2 -->
<g id="edge10" class="edge"><title>Node6&#45;&gt;Node2</title>
<path fill="none" stroke="#404040" d="M1106.83,-522.405C1099.05,-484.782 1084.78,-420.217 1068.12,-366 1062.78,-348.613 1056.37,-330.231 1049.92,-312.816"/>
<polygon fill="none" stroke="#404040" points="1049.9,-312.768 1044.05,-308.554 1045.69,-301.532 1051.54,-305.746 1049.9,-312.768"/>
<text text-anchor="middle" x="1105.62" y="-422.5" font-family="Helvetica,sans-Serif" font-size="10.00"> +id</text>
</g>
<!-- Node6&#45;&gt;Node15 -->
<g id="edge62" class="edge"><title>Node6&#45;&gt;Node15</title>
<path fill="none" stroke="#404040" d="M1125.87,-522.335C1130.27,-510.465 1134.89,-496.76 1138.12,-484 1148.28,-443.894 1156.2,-399.501 1162.18,-359.243"/>
<polygon fill="none" stroke="#404040" points="1162.21,-359.047 1159.11,-352.534 1163.93,-347.171 1167.03,-353.683 1162.21,-359.047"/>
<text text-anchor="middle" x="1202.12" y="-422.5" font-family="Helvetica,sans-Serif" font-size="10.00"> +n_macroparticles</text>
</g>
<!-- Node7 -->
<g id="node13" class="node"><title>Node7</title>
<a xlink:title="STL class.">
<polygon fill="white" stroke="#bfbfbf" points="959.622,-656.5 959.622,-719.5 1046.62,-719.5 1046.62,-656.5 959.622,-656.5"/>
<text text-anchor="middle" x="1003.12" y="-706.5" font-family="Helvetica,sans-Serif" font-size="10.00">std::vector&lt; T &gt;</text>
<polyline fill="none" stroke="#bfbfbf" points="959.622,-698.5 1046.62,-698.5 "/>
<text text-anchor="middle" x="1003.12" y="-685.5" font-family="Helvetica,sans-Serif" font-size="10.00"> </text>
<polyline fill="none" stroke="#bfbfbf" points="959.622,-677.5 1046.62,-677.5 "/>
<text text-anchor="middle" x="1003.12" y="-664.5" font-family="Helvetica,sans-Serif" font-size="10.00"> </text>
</a>
</g>
<!-- Node7&#45;&gt;Node6 -->
<g id="edge14" class="edge"><title>Node7&#45;&gt;Node6</title>
<path fill="none" stroke="orange" d="M1038.08,-648.687C1041.16,-645.095 1044.21,-641.495 1047.12,-638 1061.24,-621.032 1076.49,-601.688 1088.77,-585.844"/>
<polygon fill="orange" stroke="orange" points="1035.22,-646.639 1031.32,-656.49 1040.51,-651.222 1035.22,-646.639"/>
<text text-anchor="middle" x="1074.12" y="-628.5" font-family="Helvetica,sans-Serif" font-size="10.00"> &lt; int &gt;</text>
</g>
<!-- Node7&#45;&gt;Node9 -->
<g id="edge22" class="edge"><title>Node7&#45;&gt;Node9</title>
<path fill="none" stroke="orange" d="M981.585,-647.712C975.322,-638.895 967.791,-630.321 959.122,-624 936.625,-607.598 923.517,-619.415 899.122,-606 889.097,-600.487 879.265,-593.083 870.555,-585.593"/>
<polygon fill="orange" stroke="orange" points="978.753,-649.774 987.197,-656.174 984.586,-645.905 978.753,-649.774"/>
<text text-anchor="middle" x="993.622" y="-628.5" font-family="Helvetica,sans-Serif" font-size="10.00"> &lt; ftype &gt;</text>
</g>
<!-- Node11 -->
<g id="node24" class="node"><title>Node11</title>
<polygon fill="white" stroke="#bfbfbf" points="362.622,-522.5 362.622,-585.5 487.622,-585.5 487.622,-522.5 362.622,-522.5"/>
<text text-anchor="middle" x="425.122" y="-572.5" font-family="Helvetica,sans-Serif" font-size="10.00">std::vector&lt; f_vector_t &gt;</text>
<polyline fill="none" stroke="#bfbfbf" points="362.622,-564.5 487.622,-564.5 "/>
<text text-anchor="middle" x="425.122" y="-551.5" font-family="Helvetica,sans-Serif" font-size="10.00"> </text>
<polyline fill="none" stroke="#bfbfbf" points="362.622,-543.5 487.622,-543.5 "/>
<text text-anchor="middle" x="425.122" y="-530.5" font-family="Helvetica,sans-Serif" font-size="10.00"> </text>
</g>
<!-- Node7&#45;&gt;Node11 -->
<g id="edge30" class="edge"><title>Node7&#45;&gt;Node11</title>
<path fill="none" stroke="#404040" d="M959.416,-665.206C925.641,-647.78 883.166,-626.348 874.122,-624 792.726,-602.864 575.407,-634.034 496.122,-606 487.108,-602.813 478.258,-598.076 470.031,-592.739"/>
<polygon fill="none" stroke="#404040" points="469.82,-592.592 462.611,-592.441 459.977,-585.728 467.187,-585.879 469.82,-592.592"/>
<text text-anchor="middle" x="929.622" y="-628.5" font-family="Helvetica,sans-Serif" font-size="10.00"> +elements</text>
</g>
<!-- Node7&#45;&gt;Node11 -->
<g id="edge32" class="edge"><title>Node7&#45;&gt;Node11</title>
<path fill="none" stroke="orange" d="M949.388,-680.761C827.528,-664.135 537.534,-623.326 496.122,-606 484,-600.929 472.01,-593.396 461.431,-585.629"/>
<polygon fill="orange" stroke="orange" points="949.223,-684.27 959.604,-682.152 950.168,-677.334 949.223,-684.27"/>
<text text-anchor="middle" x="687.622" y="-628.5" font-family="Helvetica,sans-Serif" font-size="10.00"> &lt; f_vector_t &gt;</text>
</g>
<!-- Node18 -->
<g id="node49" class="node"><title>Node18</title>
<polygon fill="white" stroke="#bfbfbf" points="1177.12,-522.5 1177.12,-585.5 1303.12,-585.5 1303.12,-522.5 1177.12,-522.5"/>
<text text-anchor="middle" x="1240.12" y="-572.5" font-family="Helvetica,sans-Serif" font-size="10.00">std::vector&lt; complex_t &gt;</text>
<polyline fill="none" stroke="#bfbfbf" points="1177.12,-564.5 1303.12,-564.5 "/>
<text text-anchor="middle" x="1240.12" y="-551.5" font-family="Helvetica,sans-Serif" font-size="10.00"> </text>
<polyline fill="none" stroke="#bfbfbf" points="1177.12,-543.5 1303.12,-543.5 "/>
<text text-anchor="middle" x="1240.12" y="-530.5" font-family="Helvetica,sans-Serif" font-size="10.00"> </text>
</g>
<!-- Node7&#45;&gt;Node18 -->
<g id="edge68" class="edge"><title>Node7&#45;&gt;Node18</title>
<path fill="none" stroke="orange" d="M1055.61,-659.189C1076.97,-647.803 1102.02,-634.87 1125.12,-624 1143.87,-615.179 1150.05,-616.131 1168.12,-606 1178.75,-600.043 1189.67,-592.811 1199.7,-585.658"/>
<polygon fill="orange" stroke="orange" points="1053.87,-656.155 1046.71,-663.963 1057.17,-662.325 1053.87,-656.155"/>
<text text-anchor="middle" x="1158.62" y="-628.5" font-family="Helvetica,sans-Serif" font-size="10.00"> &lt; complex_t &gt;</text>
</g>
<!-- Node8 -->
<g id="node15" class="node"><title>Node8</title>
<polygon fill="white" stroke="#bfbfbf" points="988.622,-770.5 988.622,-833.5 1017.62,-833.5 1017.62,-770.5 988.622,-770.5"/>
<text text-anchor="middle" x="1003.12" y="-820.5" font-family="Helvetica,sans-Serif" font-size="10.00">T</text>
<polyline fill="none" stroke="#bfbfbf" points="988.622,-812.5 1017.62,-812.5 "/>
<text text-anchor="middle" x="1003.12" y="-799.5" font-family="Helvetica,sans-Serif" font-size="10.00"> </text>
<polyline fill="none" stroke="#bfbfbf" points="988.622,-791.5 1017.62,-791.5 "/>
<text text-anchor="middle" x="1003.12" y="-778.5" font-family="Helvetica,sans-Serif" font-size="10.00"> </text>
</g>
<!-- Node8&#45;&gt;Node7 -->
<g id="edge16" class="edge"><title>Node8&#45;&gt;Node7</title>
<path fill="none" stroke="#404040" d="M1003.12,-770.245C1003.12,-758.386 1003.12,-744.7 1003.12,-731.938"/>
<polygon fill="none" stroke="#404040" points="1003.12,-731.585 999.122,-725.585 1003.12,-719.585 1007.12,-725.585 1003.12,-731.585"/>
<text text-anchor="middle" x="1027.62" y="-742.5" font-family="Helvetica,sans-Serif" font-size="10.00"> +elements</text>
</g>
<!-- Node9&#45;&gt;Node2 -->
<g id="edge18" class="edge"><title>Node9&#45;&gt;Node2</title>
<path fill="none" stroke="#404040" d="M840.277,-522.198C842.418,-475.841 848.131,-392.357 862.122,-366 880.386,-331.593 911.257,-301.982 940.662,-279.334"/>
<polygon fill="none" stroke="#404040" points="940.953,-279.116 943.357,-272.318 950.558,-271.923 948.153,-278.722 940.953,-279.116"/>
<text text-anchor="middle" x="871.622" y="-429" font-family="Helvetica,sans-Serif" font-size="10.00"> +dt</text>
<text text-anchor="middle" x="871.622" y="-416" font-family="Helvetica,sans-Serif" font-size="10.00">+dE</text>
</g>
<!-- Node9&#45;&gt;Node10 -->
<g id="edge36" class="edge"><title>Node9&#45;&gt;Node10</title>
<path fill="none" stroke="#404040" d="M807.121,-522.355C797.282,-514.388 785.916,-506.757 774.122,-502 733.764,-485.721 611.4,-513.188 579.122,-484 539.491,-448.163 594.207,-403.476 556.122,-366 523.621,-334.02 496.736,-366.635 455.122,-348 427.288,-335.536 400.069,-316.752 376.672,-297.86"/>
<polygon fill="none" stroke="#404040" points="376.481,-297.702 369.307,-296.967 367.227,-290.062 374.401,-290.798 376.481,-297.702"/>
<text text-anchor="middle" x="607.622" y="-448.5" font-family="Helvetica,sans-Serif" font-size="10.00"> +ring_length</text>
<text text-anchor="middle" x="607.622" y="-435.5" font-family="Helvetica,sans-Serif" font-size="10.00">+omega_rev</text>
<text text-anchor="middle" x="607.622" y="-422.5" font-family="Helvetica,sans-Serif" font-size="10.00">+t_rev</text>
<text text-anchor="middle" x="607.622" y="-409.5" font-family="Helvetica,sans-Serif" font-size="10.00">+f_rev</text>
<text text-anchor="middle" x="607.622" y="-396.5" font-family="Helvetica,sans-Serif" font-size="10.00">+cycle_time</text>
</g>
<!-- Node9&#45;&gt;Node14 -->
<g id="edge48" class="edge"><title>Node9&#45;&gt;Node14</title>
<path fill="none" stroke="#404040" d="M799.512,-522.309C776.775,-504.088 752.608,-484.658 752.122,-484 718.584,-438.591 740.111,-410.3 705.122,-366 669.458,-320.846 614.721,-284.431 572.803,-260.852"/>
<polygon fill="none" stroke="#404040" points="572.677,-260.783 565.492,-261.389 562.168,-254.989 569.354,-254.383 572.677,-260.783"/>
<text text-anchor="middle" x="795.122" y="-461.5" font-family="Helvetica,sans-Serif" font-size="10.00"> +dphi_RF_steering</text>
<text text-anchor="middle" x="795.122" y="-448.5" font-family="Helvetica,sans-Serif" font-size="10.00">+omega_s0</text>
<text text-anchor="middle" x="795.122" y="-435.5" font-family="Helvetica,sans-Serif" font-size="10.00">+phi_s</text>
<text text-anchor="middle" x="795.122" y="-422.5" font-family="Helvetica,sans-Serif" font-size="10.00">+Qs</text>
<text text-anchor="middle" x="795.122" y="-409.5" font-family="Helvetica,sans-Serif" font-size="10.00">+t_RF</text>
<text text-anchor="middle" x="795.122" y="-396.5" font-family="Helvetica,sans-Serif" font-size="10.00">+dphi_RF</text>
<text text-anchor="middle" x="795.122" y="-383.5" font-family="Helvetica,sans-Serif" font-size="10.00">+E_increment</text>
</g>
<!-- Node9&#45;&gt;Node15 -->
<g id="edge70" class="edge"><title>Node9&#45;&gt;Node15</title>
<path fill="none" stroke="#404040" d="M861.707,-522.18C868.939,-510.635 876.31,-497.18 881.122,-484 899.338,-434.101 861.338,-402.298 900.122,-366 929.149,-338.833 1037.52,-364.844 1089.89,-347.269"/>
<polygon fill="none" stroke="#404040" points="1090.07,-347.187 1093.94,-341.099 1101.04,-342.323 1097.18,-348.412 1090.07,-347.187"/>
<text text-anchor="middle" x="948.622" y="-435.5" font-family="Helvetica,sans-Serif" font-size="10.00"> +bin_centers</text>
<text text-anchor="middle" x="948.622" y="-422.5" font-family="Helvetica,sans-Serif" font-size="10.00">+fBeamSpectrumFreq</text>
<text text-anchor="middle" x="948.622" y="-409.5" font-family="Helvetica,sans-Serif" font-size="10.00">+edges</text>
</g>
<!-- Node10&#45;&gt;Node1 -->
<g id="edge24" class="edge"><title>Node10&#45;&gt;Node1</title>
<path fill="none" stroke="#404040" d="M367.36,-171.114C392.616,-149.745 423.385,-127.616 455.122,-114 550.566,-73.0515 869.485,-43.9692 979.461,-34.9521"/>
<polygon fill="none" stroke="#404040" points="979.553,-34.9446 985.211,-30.4733 991.514,-33.9759 985.857,-38.4472 979.553,-34.9446"/>
<text text-anchor="middle" x="583.122" y="-86.5" font-family="Helvetica,sans-Serif" font-size="10.00"> +GP</text>
</g>
<!-- Node11&#45;&gt;Node10 -->
<g id="edge28" class="edge"><title>Node11&#45;&gt;Node10</title>
<path fill="none" stroke="#404040" d="M362.562,-525.036C345.893,-517.436 327.864,-509.32 311.122,-502 292.139,-493.7 279.6,-501.248 268.122,-484 233.318,-431.7 248.571,-359.962 269.194,-306.23"/>
<polygon fill="none" stroke="#404040" points="269.208,-306.194 267.719,-299.139 273.66,-295.051 275.148,-302.106 269.208,-306.194"/>
<text text-anchor="middle" x="295.622" y="-474.5" font-family="Helvetica,sans-Serif" font-size="10.00"> +alpha</text>
<text text-anchor="middle" x="295.622" y="-461.5" font-family="Helvetica,sans-Serif" font-size="10.00">+energy</text>
<text text-anchor="middle" x="295.622" y="-448.5" font-family="Helvetica,sans-Serif" font-size="10.00">+eta_0</text>
<text text-anchor="middle" x="295.622" y="-435.5" font-family="Helvetica,sans-Serif" font-size="10.00">+gamma</text>
<text text-anchor="middle" x="295.622" y="-422.5" font-family="Helvetica,sans-Serif" font-size="10.00">+eta_1</text>
<text text-anchor="middle" x="295.622" y="-409.5" font-family="Helvetica,sans-Serif" font-size="10.00">+beta</text>
<text text-anchor="middle" x="295.622" y="-396.5" font-family="Helvetica,sans-Serif" font-size="10.00">+eta_2</text>
<text text-anchor="middle" x="295.622" y="-383.5" font-family="Helvetica,sans-Serif" font-size="10.00">+kin_energy</text>
<text text-anchor="middle" x="295.622" y="-370.5" font-family="Helvetica,sans-Serif" font-size="10.00">+momentum</text>
</g>
<!-- Node11&#45;&gt;Node14 -->
<g id="edge46" class="edge"><title>Node11&#45;&gt;Node14</title>
<path fill="none" stroke="#404040" d="M423.175,-522.324C421.776,-484.348 422.367,-419.17 438.122,-366 443.042,-349.395 450.254,-332.575 458.288,-316.705"/>
<polygon fill="none" stroke="#404040" points="458.39,-316.511 457.635,-309.34 463.964,-305.885 464.719,-313.056 458.39,-316.511"/>
<text text-anchor="middle" x="470.622" y="-461.5" font-family="Helvetica,sans-Serif" font-size="10.00"> +phi_RF</text>
<text text-anchor="middle" x="470.622" y="-448.5" font-family="Helvetica,sans-Serif" font-size="10.00">+harmonic</text>
<text text-anchor="middle" x="470.622" y="-435.5" font-family="Helvetica,sans-Serif" font-size="10.00">+phi_offset</text>
<text text-anchor="middle" x="470.622" y="-422.5" font-family="Helvetica,sans-Serif" font-size="10.00">+voltage</text>
<text text-anchor="middle" x="470.622" y="-409.5" font-family="Helvetica,sans-Serif" font-size="10.00">+omega_RF</text>
<text text-anchor="middle" x="470.622" y="-396.5" font-family="Helvetica,sans-Serif" font-size="10.00">+omega_RF_d</text>
<text text-anchor="middle" x="470.622" y="-383.5" font-family="Helvetica,sans-Serif" font-size="10.00">+phi_noise</text>
</g>
<!-- Node12 -->
<g id="node28" class="node"><title>Node12</title>
<polygon fill="white" stroke="#bfbfbf" points="129.122,-522.5 129.122,-585.5 201.122,-585.5 201.122,-522.5 129.122,-522.5"/>
<text text-anchor="middle" x="165.122" y="-572.5" font-family="Helvetica,sans-Serif" font-size="10.00">particle_type</text>
<polyline fill="none" stroke="#bfbfbf" points="129.122,-564.5 201.122,-564.5 "/>
<text text-anchor="middle" x="165.122" y="-551.5" font-family="Helvetica,sans-Serif" font-size="10.00"> </text>
<polyline fill="none" stroke="#bfbfbf" points="129.122,-543.5 201.122,-543.5 "/>
<text text-anchor="middle" x="165.122" y="-530.5" font-family="Helvetica,sans-Serif" font-size="10.00"> </text>
</g>
<!-- Node12&#45;&gt;Node10 -->
<g id="edge34" class="edge"><title>Node12&#45;&gt;Node10</title>
<path fill="none" stroke="#404040" d="M158.544,-522.205C152.103,-483.544 146.132,-417.128 168.122,-366 182.455,-332.674 209.337,-303.396 235.595,-280.7"/>
<polygon fill="none" stroke="#404040" points="235.64,-280.662 237.667,-273.742 244.835,-272.951 242.808,-279.871 235.64,-280.662"/>
<text text-anchor="middle" x="194.122" y="-429" font-family="Helvetica,sans-Serif" font-size="10.00"> +particle_2</text>
<text text-anchor="middle" x="194.122" y="-416" font-family="Helvetica,sans-Serif" font-size="10.00">+particle</text>
</g>
<!-- Node13 -->
<g id="node31" class="node"><title>Node13</title>
<polygon fill="white" stroke="#bfbfbf" points="505.122,-522.5 505.122,-585.5 561.122,-585.5 561.122,-522.5 505.122,-522.5"/>
<text text-anchor="middle" x="533.122" y="-572.5" font-family="Helvetica,sans-Serif" font-size="10.00">unsigned</text>
<polyline fill="none" stroke="#bfbfbf" points="505.122,-564.5 561.122,-564.5 "/>
<text text-anchor="middle" x="533.122" y="-551.5" font-family="Helvetica,sans-Serif" font-size="10.00"> </text>
<polyline fill="none" stroke="#bfbfbf" points="505.122,-543.5 561.122,-543.5 "/>
<text text-anchor="middle" x="533.122" y="-530.5" font-family="Helvetica,sans-Serif" font-size="10.00"> </text>
</g>
<!-- Node13&#45;&gt;Node10 -->
<g id="edge38" class="edge"><title>Node13&#45;&gt;Node10</title>
<path fill="none" stroke="#404040" d="M516.831,-522.441C511.295,-514.576 504.377,-506.976 496.122,-502 444.281,-470.751 405.632,-525.022 361.122,-484 347.979,-471.887 329.938,-377.169 318.157,-307.163"/>
<polygon fill="none" stroke="#404040" points="318.15,-307.12 313.218,-301.859 316.178,-295.283 321.109,-300.544 318.15,-307.12"/>
<text text-anchor="middle" x="389.622" y="-435.5" font-family="Helvetica,sans-Serif" font-size="10.00"> +n_turns</text>
<text text-anchor="middle" x="389.622" y="-422.5" font-family="Helvetica,sans-Serif" font-size="10.00">+n_sections</text>
<text text-anchor="middle" x="389.622" y="-409.5" font-family="Helvetica,sans-Serif" font-size="10.00">+alpha_order</text>
</g>
<!-- Node13&#45;&gt;Node14 -->
<g id="edge50" class="edge"><title>Node13&#45;&gt;Node14</title>
<path fill="none" stroke="#404040" d="M522.637,-522.301C519.21,-510.426 515.844,-496.728 514.122,-484 507.755,-436.951 506.587,-384.53 507.362,-339.66"/>
<polygon fill="none" stroke="#404040" points="507.365,-339.516 503.494,-333.431 507.621,-327.518 511.492,-333.602 507.365,-339.516"/>
<text text-anchor="middle" x="535.122" y="-435.5" font-family="Helvetica,sans-Serif" font-size="10.00"> +counter</text>
<text text-anchor="middle" x="535.122" y="-422.5" font-family="Helvetica,sans-Serif" font-size="10.00">+idx</text>
<text text-anchor="middle" x="535.122" y="-409.5" font-family="Helvetica,sans-Serif" font-size="10.00">+n_rf</text>
</g>
<!-- Node13&#45;&gt;Node15 -->
<g id="edge72" class="edge"><title>Node13&#45;&gt;Node15</title>
<path fill="none" stroke="#404040" d="M561.571,-542.456C585.474,-531.204 618.477,-511.725 636.122,-484 664.642,-439.186 615.402,-401.272 655.122,-366 689.401,-335.559 1009.78,-366.956 1089.25,-346.936"/>
<polygon fill="none" stroke="#404040" points="1089.56,-346.825 1093.85,-341.025 1100.85,-342.749 1096.56,-348.549 1089.56,-346.825"/>
<text text-anchor="middle" x="678.122" y="-422.5" font-family="Helvetica,sans-Serif" font-size="10.00"> +n_slices</text>
</g>
<!-- Node14&#45;&gt;Node1 -->
<g id="edge42" class="edge"><title>Node14&#45;&gt;Node1</title>
<path fill="none" stroke="#404040" d="M562.365,-211.557C663.127,-171.772 890.852,-81.8565 980.178,-46.587"/>
<polygon fill="none" stroke="#404040" points="980.431,-46.4871 984.543,-40.5631 991.593,-42.08 987.481,-48.004 980.431,-46.4871"/>
<text text-anchor="middle" x="894.622" y="-86.5" font-family="Helvetica,sans-Serif" font-size="10.00"> +RfP</text>
</g>
<!-- Node15&#45;&gt;Node1 -->
<g id="edge52" class="edge"><title>Node15&#45;&gt;Node1</title>
<path fill="none" stroke="#404040" d="M1100.97,-125.036C1098.02,-121.288 1095.06,-117.598 1092.12,-114 1079.31,-98.3067 1064.39,-81.6922 1051.25,-67.5521"/>
<polygon fill="none" stroke="#404040" points="1051.12,-67.4081 1044.09,-65.7651 1042.91,-58.6519 1049.93,-60.2949 1051.12,-67.4081"/>
<text text-anchor="middle" x="1091.62" y="-86.5" font-family="Helvetica,sans-Serif" font-size="10.00"> +Slice</text>
</g>
<!-- Node16 -->
<g id="node42" class="node"><title>Node16</title>
<polygon fill="white" stroke="#bfbfbf" points="1458.62,-522.5 1458.62,-585.5 1507.62,-585.5 1507.62,-522.5 1458.62,-522.5"/>
<text text-anchor="middle" x="1483.12" y="-572.5" font-family="Helvetica,sans-Serif" font-size="10.00">fit_type</text>
<polyline fill="none" stroke="#bfbfbf" points="1458.62,-564.5 1507.62,-564.5 "/>
<text text-anchor="middle" x="1483.12" y="-551.5" font-family="Helvetica,sans-Serif" font-size="10.00"> </text>
<polyline fill="none" stroke="#bfbfbf" points="1458.62,-543.5 1507.62,-543.5 "/>
<text text-anchor="middle" x="1483.12" y="-530.5" font-family="Helvetica,sans-Serif" font-size="10.00"> </text>
</g>
<!-- Node16&#45;&gt;Node15 -->
<g id="edge54" class="edge"><title>Node16&#45;&gt;Node15</title>
<path fill="none" stroke="#404040" d="M1460.1,-522.313C1455.18,-515.591 1449.99,-508.549 1445.12,-502 1399.86,-441.166 1394.72,-420.612 1342.12,-366 1318.11,-341.07 1289.62,-316.34 1263.14,-294.989"/>
<polygon fill="none" stroke="#404040" points="1262.86,-294.768 1255.67,-294.151 1253.48,-287.282 1260.66,-287.899 1262.86,-294.768"/>
<text text-anchor="middle" x="1454.62" y="-422.5" font-family="Helvetica,sans-Serif" font-size="10.00"> +fit_option</text>
</g>
<!-- Node17 -->
<g id="node45" class="node"><title>Node17</title>
<polygon fill="white" stroke="#bfbfbf" points="1525.12,-522.5 1525.12,-585.5 1605.12,-585.5 1605.12,-522.5 1525.12,-522.5"/>
<text text-anchor="middle" x="1565.12" y="-572.5" font-family="Helvetica,sans-Serif" font-size="10.00">cuts_unit_type</text>
<polyline fill="none" stroke="#bfbfbf" points="1525.12,-564.5 1605.12,-564.5 "/>
<text text-anchor="middle" x="1565.12" y="-551.5" font-family="Helvetica,sans-Serif" font-size="10.00"> </text>
<polyline fill="none" stroke="#bfbfbf" points="1525.12,-543.5 1605.12,-543.5 "/>
<text text-anchor="middle" x="1565.12" y="-530.5" font-family="Helvetica,sans-Serif" font-size="10.00"> </text>
</g>
<!-- Node17&#45;&gt;Node15 -->
<g id="edge58" class="edge"><title>Node17&#45;&gt;Node15</title>
<path fill="none" stroke="#404040" d="M1558.81,-522.357C1549.14,-481.386 1526.97,-410.029 1483.12,-366 1423.41,-306.032 1332.5,-270.589 1265.27,-251.183"/>
<polygon fill="none" stroke="#404040" points="1264.99,-251.102 1258.13,-253.332 1253.43,-247.859 1260.29,-245.629 1264.99,-251.102"/>
<text text-anchor="middle" x="1570.62" y="-422.5" font-family="Helvetica,sans-Serif" font-size="10.00"> +cuts_unit</text>
</g>
<!-- Node18&#45;&gt;Node15 -->
<g id="edge64" class="edge"><title>Node18&#45;&gt;Node15</title>
<path fill="none" stroke="#404040" d="M1248.07,-522.493C1256.26,-484.682 1266.03,-419.663 1252.12,-366 1251.52,-363.664 1250.86,-361.326 1250.16,-358.988"/>
<polygon fill="none" stroke="#404040" points="1250.07,-358.706 1244.38,-354.269 1246.29,-347.315 1251.98,-351.752 1250.07,-358.706"/>
<text text-anchor="middle" x="1298.12" y="-422.5" font-family="Helvetica,sans-Serif" font-size="10.00"> +fBeamSpectrum</text>
</g>
<!-- Node19 -->
<g id="node51" class="node"><title>Node19</title>
<a xlink:title="STL class.">
<polygon fill="white" stroke="#bfbfbf" points="1249.62,-656.5 1249.62,-719.5 1322.62,-719.5 1322.62,-656.5 1249.62,-656.5"/>
<text text-anchor="middle" x="1286.12" y="-706.5" font-family="Helvetica,sans-Serif" font-size="10.00">std::complex</text>
<polyline fill="none" stroke="#bfbfbf" points="1249.62,-698.5 1322.62,-698.5 "/>
<text text-anchor="middle" x="1286.12" y="-685.5" font-family="Helvetica,sans-Serif" font-size="10.00"> </text>
<polyline fill="none" stroke="#bfbfbf" points="1249.62,-677.5 1322.62,-677.5 "/>
<text text-anchor="middle" x="1286.12" y="-664.5" font-family="Helvetica,sans-Serif" font-size="10.00"> </text>
</a>
</g>
<!-- Node19&#45;&gt;Node18 -->
<g id="edge66" class="edge"><title>Node19&#45;&gt;Node18</title>
<path fill="none" stroke="#404040" d="M1275.22,-656.244C1269.15,-638.555 1261.5,-616.283 1254.9,-597.046"/>
<polygon fill="none" stroke="#404040" points="1254.84,-596.878 1249.11,-592.502 1250.94,-585.528 1256.68,-589.904 1254.84,-596.878"/>
<text text-anchor="middle" x="1292.62" y="-628.5" font-family="Helvetica,sans-Serif" font-size="10.00"> +elements</text>
</g>
</g>
</svg>
        <g id="navigator" transform="translate(0 0)" fill="#404254">
                <rect fill="#f2f5e9" fill-opacity="0.5" stroke="#606060" stroke-width=".5" x="0" y="0" width="60" height="60"/>
                <use id="zoomplus" xlink:href="#zoomPlus" x="17" y="9" onmousedown="handleZoom(evt,'in')"/>
                <use id="zoomminus" xlink:href="#zoomMin" x="42" y="9" onmousedown="handleZoom(evt,'out')"/>
                <use id="reset" xlink:href="#resetDef" x="30" y="36" onmousedown="handleReset()"/>
                <g id="arrowUp" xlink:href="#dirArrow" transform="translate(30 24)" onmousedown="handlePan(0,-1)">
                  <use xlink:href="#rim" fill="#404040">
                        <set attributeName="fill" to="#808080" begin="arrowUp.mouseover" end="arrowUp.mouseout"/>
                  </use>
                  <path fill="none" stroke="white" stroke-width="1.5" d="M0,-3.0v7 M-2.5,-0.5L0,-3.0L2.5,-0.5"/>
                </g>
                <g id="arrowRight" xlink:href="#dirArrow" transform="rotate(90) translate(36 -43)" onmousedown="handlePan(1,0)">
                  <use xlink:href="#rim" fill="#404040">
                        <set attributeName="fill" to="#808080" begin="arrowRight.mouseover" end="arrowRight.mouseout"/>
                  </use>
                  <path fill="none" stroke="white" stroke-width="1.5" d="M0,-3.0v7 M-2.5,-0.5L0,-3.0L2.5,-0.5"/>
                </g>
                <g id="arrowDown" xlink:href="#dirArrow" transform="rotate(180) translate(-30 -48)" onmousedown="handlePan(0,1)">
                  <use xlink:href="#rim" fill="#404040">
                        <set attributeName="fill" to="#808080" begin="arrowDown.mouseover" end="arrowDown.mouseout"/>
                  </use>
                  <path fill="none" stroke="white" stroke-width="1.5" d="M0,-3.0v7 M-2.5,-0.5L0,-3.0L2.5,-0.5"/>
                </g>
                <g id="arrowLeft" xlink:href="#dirArrow" transform="rotate(270) translate(-36 17)" onmousedown="handlePan(-1,0)">
                  <use xlink:href="#rim" fill="#404040">
                        <set attributeName="fill" to="#808080" begin="arrowLeft.mouseover" end="arrowLeft.mouseout"/>
                  </use>
                  <path fill="none" stroke="white" stroke-width="1.5" d="M0,-3.0v7 M-2.5,-0.5L0,-3.0L2.5,-0.5"/>
                </g>
        </g>
        <svg viewBox="0 0 15 15" width="100%" height="30px" preserveAspectRatio="xMaxYMin meet">
         <g id="arrow_out" transform="scale(0.3 0.3)">
          <a xlink:href="structContext__coll__graph_org.svg" target="_base">
           <rect id="button" ry="5" rx="5" y="6" x="6" height="38" width="38"
                fill="#f2f5e9" fill-opacity="0.5" stroke="#606060" stroke-width="1.0"/>
           <path id="arrow"
             d="M 11.500037,31.436501 C 11.940474,20.09759 22.043105,11.32322 32.158766,21.979434 L 37.068811,17.246167 C 37.068811,17.246167 37.088388,32 37.088388,32 L 22.160133,31.978069 C 22.160133,31.978069 26.997745,27.140456 26.997745,27.140456 C 18.528582,18.264221 13.291696,25.230495 11.500037,31.436501 z"
             style="fill:#404040;"/>
          </a>
         </g>
        </svg>
</svg>
