<?xml version="1.0" encoding="UTF-8" standalone="no"?>
<!DOCTYPE svg PUBLIC "-//W3C//DTD SVG 1.1//EN"
 "http://www.w3.org/Graphics/SVG/1.1/DTD/svg11.dtd">
<!-- Generated by graphviz version 2.26.3 (20100126.1600)
 -->
<!-- Title: InducedVoltage.h Pages: 1 -->
<svg width="470pt" height="204pt"
 viewBox="0.00 0.00 470.00 204.00" xmlns="http://www.w3.org/2000/svg" xmlns:xlink="http://www.w3.org/1999/xlink">
<g id="graph1" class="graph" transform="scale(1 1) rotate(0) translate(4 200)">
<title>InducedVoltage.h</title>
<polygon fill="white" stroke="white" points="-4,5 -4,-200 467,-200 467,5 -4,5"/>
<!-- Node1 -->
<g id="node1" class="node"><title>Node1</title>
<polygon fill="#bfbfbf" stroke="black" points="122,-174.5 122,-195.5 214,-195.5 214,-174.5 122,-174.5"/>
<text text-anchor="middle" x="168" y="-182.5" font-family="Helvetica,sans-Serif" font-size="10.00">InducedVoltage.h</text>
</g>
<!-- Node2 -->
<g id="node3" class="node"><title>Node2</title>
<a xlink:href="../../d5/dfa/InducedVoltage_8cpp.html" target="_top" xlink:title="InducedVoltage.cpp">
<polygon fill="white" stroke="black" points="-0.5,-116.5 -0.5,-137.5 102.5,-137.5 102.5,-116.5 -0.5,-116.5"/>
<text text-anchor="middle" x="51" y="-124.5" font-family="Helvetica,sans-Serif" font-size="10.00">InducedVoltage.cpp</text>
</a>
</g>
<!-- Node1&#45;&gt;Node2 -->
<g id="edge2" class="edge"><title>Node1&#45;&gt;Node2</title>
<path fill="none" stroke="midnightblue" d="M137.604,-169.932C117.152,-159.793 90.6887,-146.675 72.4256,-137.621"/>
<polygon fill="midnightblue" stroke="midnightblue" points="136.298,-173.191 146.812,-174.497 139.407,-166.919 136.298,-173.191"/>
</g>
<!-- Node3 -->
<g id="node5" class="node"><title>Node3</title>
<a xlink:href="../../dc/d7d/Distributions_8h.html" target="_top" xlink:title="Distributions.h">
<polygon fill="white" stroke="black" points="60,-58.5 60,-79.5 140,-79.5 140,-58.5 60,-58.5"/>
<text text-anchor="middle" x="100" y="-66.5" font-family="Helvetica,sans-Serif" font-size="10.00">Distributions.h</text>
</a>
</g>
<!-- Node1&#45;&gt;Node3 -->
<g id="edge4" class="edge"><title>Node1&#45;&gt;Node3</title>
<path fill="none" stroke="midnightblue" d="M156.539,-165.45C142.068,-140.764 117.685,-99.1685 106.26,-79.6792"/>
<polygon fill="midnightblue" stroke="midnightblue" points="153.648,-167.438 161.725,-174.295 159.687,-163.898 153.648,-167.438"/>
</g>
<!-- Node5 -->
<g id="node9" class="node"><title>Node5</title>
<a xlink:href="../../d5/dde/blond_8h.html" target="_top" xlink:title="blond.h">
<polygon fill="white" stroke="black" points="172,-0.5 172,-21.5 220,-21.5 220,-0.5 172,-0.5"/>
<text text-anchor="middle" x="196" y="-8.5" font-family="Helvetica,sans-Serif" font-size="10.00">blond.h</text>
</a>
</g>
<!-- Node1&#45;&gt;Node5 -->
<g id="edge10" class="edge"><title>Node1&#45;&gt;Node5</title>
<path fill="none" stroke="midnightblue" d="M171.347,-164.2C177.331,-127.013 189.666,-50.3605 194.242,-21.9277"/>
<polygon fill="midnightblue" stroke="midnightblue" points="167.843,-163.948 169.709,-174.377 174.754,-165.061 167.843,-163.948"/>
</g>
<!-- Node6 -->
<g id="node12" class="node"><title>Node6</title>
<a xlink:href="../../da/d77/plot__impedance_8h.html" target="_top" xlink:title="plot_impedance.h">
<polygon fill="white" stroke="black" points="283.5,-116.5 283.5,-137.5 376.5,-137.5 376.5,-116.5 283.5,-116.5"/>
<text text-anchor="middle" x="330" y="-124.5" font-family="Helvetica,sans-Serif" font-size="10.00">plot_impedance.h</text>
</a>
</g>
<!-- Node1&#45;&gt;Node6 -->
<g id="edge12" class="edge"><title>Node1&#45;&gt;Node6</title>
<path fill="none" stroke="midnightblue" d="M207.077,-171.009C235.866,-160.702 274.409,-146.903 300.608,-137.523"/>
<polygon fill="midnightblue" stroke="midnightblue" points="205.572,-167.831 197.337,-174.497 207.932,-174.421 205.572,-167.831"/>
</g>
<!-- Node8 -->
<g id="node17" class="node"><title>Node8</title>
<a xlink:href="../../d2/d0e/Tracker_8h.html" target="_top" xlink:title="Tracker.h">
<polygon fill="white" stroke="black" points="196,-116.5 196,-137.5 254,-137.5 254,-116.5 196,-116.5"/>
<text text-anchor="middle" x="225" y="-124.5" font-family="Helvetica,sans-Serif" font-size="10.00">Tracker.h</text>
</a>
</g>
<!-- Node1&#45;&gt;Node8 -->
<g id="edge18" class="edge"><title>Node1&#45;&gt;Node8</title>
<path fill="none" stroke="midnightblue" d="M185.574,-167.118C195.087,-157.438 206.514,-145.81 214.612,-137.571"/>
<polygon fill="midnightblue" stroke="midnightblue" points="182.968,-164.776 178.455,-174.362 187.96,-169.683 182.968,-164.776"/>
</g>
<!-- Node4 -->
<g id="node7" class="node"><title>Node4</title>
<a xlink:href="../../db/de1/Distributions_8cpp.html" target="_top" xlink:title="Distributions.cpp">
<polygon fill="white" stroke="black" points="55,-0.5 55,-21.5 145,-21.5 145,-0.5 55,-0.5"/>
<text text-anchor="middle" x="100" y="-8.5" font-family="Helvetica,sans-Serif" font-size="10.00">Distributions.cpp</text>
</a>
</g>
<!-- Node3&#45;&gt;Node4 -->
<g id="edge6" class="edge"><title>Node3&#45;&gt;Node4</title>
<path fill="none" stroke="midnightblue" d="M100,-48.1906C100,-39.1684 100,-28.9941 100,-21.5707"/>
<polygon fill="midnightblue" stroke="midnightblue" points="96.5001,-48.3619 100,-58.3619 103.5,-48.3619 96.5001,-48.3619"/>
</g>
<!-- Node3&#45;&gt;Node5 -->
<g id="edge8" class="edge"><title>Node3&#45;&gt;Node5</title>
<path fill="none" stroke="midnightblue" d="M126.316,-53.1009C142.926,-43.0658 163.921,-30.3808 178.504,-21.5707"/>
<polygon fill="midnightblue" stroke="midnightblue" points="124.357,-50.195 117.608,-58.3619 127.977,-56.1864 124.357,-50.195"/>
</g>
<!-- Node6&#45;&gt;Node5 -->
<g id="edge16" class="edge"><title>Node6&#45;&gt;Node5</title>
<path fill="none" stroke="midnightblue" d="M329.013,-105.939C327.265,-90.9401 322.697,-71.1828 311,-58 287.38,-31.3805 246.434,-19.5504 220.309,-14.5036"/>
<polygon fill="midnightblue" stroke="midnightblue" points="325.557,-106.617 329.871,-116.294 332.533,-106.039 325.557,-106.617"/>
</g>
<!-- Node7 -->
<g id="node14" class="node"><title>Node7</title>
<a xlink:href="../../d8/d29/plot__impedance_8cpp.html" target="_top" xlink:title="plot_impedance.cpp">
<polygon fill="white" stroke="black" points="358,-58.5 358,-79.5 462,-79.5 462,-58.5 358,-58.5"/>
<text text-anchor="middle" x="410" y="-66.5" font-family="Helvetica,sans-Serif" font-size="10.00">plot_impedance.cpp</text>
</a>
</g>
<!-- Node6&#45;&gt;Node7 -->
<g id="edge14" class="edge"><title>Node6&#45;&gt;Node7</title>
<path fill="none" stroke="midnightblue" d="M353.092,-110.259C366.739,-100.364 383.605,-88.1361 395.42,-79.5707"/>
<polygon fill="midnightblue" stroke="midnightblue" points="350.715,-107.659 344.673,-116.362 354.824,-113.326 350.715,-107.659"/>
</g>
<!-- Node8&#45;&gt;Node3 -->
<g id="edge22" class="edge"><title>Node8&#45;&gt;Node3</title>
<path fill="none" stroke="midnightblue" d="M193.117,-112.206C171.188,-102.031 142.579,-88.7567 122.891,-79.6212"/>
<polygon fill="midnightblue" stroke="midnightblue" points="191.819,-115.462 202.363,-116.497 194.766,-109.113 191.819,-115.462"/>
</g>
<!-- Node8&#45;&gt;Node5 -->
<g id="edge24" class="edge"><title>Node8&#45;&gt;Node5</title>
<path fill="none" stroke="midnightblue" d="M219.864,-106.458C213.666,-81.6635 203.477,-40.9098 198.67,-21.6792"/>
<polygon fill="midnightblue" stroke="midnightblue" points="216.503,-107.442 222.324,-116.295 223.294,-105.745 216.503,-107.442"/>
</g>
<!-- Node9 -->
<g id="node19" class="node"><title>Node9</title>
<a xlink:href="../../d2/d6f/Tracker_8cpp.html" target="_top" xlink:title="Tracker.cpp">
<polygon fill="white" stroke="black" points="234,-58.5 234,-79.5 302,-79.5 302,-58.5 234,-58.5"/>
<text text-anchor="middle" x="268" y="-66.5" font-family="Helvetica,sans-Serif" font-size="10.00">Tracker.cpp</text>
</a>
</g>
<!-- Node8&#45;&gt;Node9 -->
<g id="edge20" class="edge"><title>Node8&#45;&gt;Node9</title>
<path fill="none" stroke="midnightblue" d="M238.901,-108.25C245.944,-98.75 254.236,-87.5651 260.163,-79.5707"/>
<polygon fill="midnightblue" stroke="midnightblue" points="236.031,-106.244 232.887,-116.362 241.654,-110.413 236.031,-106.244"/>
</g>
</g>
</svg>
