<?xml version="1.0" encoding="UTF-8" standalone="no"?>
<!DOCTYPE svg PUBLIC "-//W3C//DTD SVG 1.1//EN"
 "http://www.w3.org/Graphics/SVG/1.1/DTD/svg11.dtd">
<!-- Generated by graphviz version 2.26.3 (20100126.1600)
 -->
<!-- Title: blond::Slices::beam_spectrum_generation Pages: 1 -->
<svg width="656pt" height="130pt"
 viewBox="0.00 0.00 656.00 130.00" xmlns="http://www.w3.org/2000/svg" xmlns:xlink="http://www.w3.org/1999/xlink">
<g id="graph1" class="graph" transform="scale(1 1) rotate(0) translate(4 126)">
<title>blond::Slices::beam_spectrum_generation</title>
<polygon fill="white" stroke="white" points="-4,5 -4,-126 653,-126 653,5 -4,5"/>
<!-- Node1 -->
<g id="node1" class="node"><title>Node1</title>
<polygon fill="#bfbfbf" stroke="black" points="0.5,-14 0.5,-48 113.5,-48 113.5,-14 0.5,-14"/>
<text text-anchor="start" x="8.5" y="-35" font-family="Helvetica,sans-Serif" font-size="10.00">blond::Slices::beam</text>
<text text-anchor="middle" x="57" y="-22" font-family="Helvetica,sans-Serif" font-size="10.00">_spectrum_generation</text>
</g>
<!-- Node2 -->
<g id="node3" class="node"><title>Node2</title>
<a xlink:href="../../d3/d4e/namespaceblond_1_1fft.html#aab55a4741fafe3a1bbbce2db72a7930c" target="_top" xlink:title="blond::fft::rfft">
<polygon fill="white" stroke="black" points="158.5,-40.5 158.5,-61.5 231.5,-61.5 231.5,-40.5 158.5,-40.5"/>
<text text-anchor="middle" x="195" y="-48.5" font-family="Helvetica,sans-Serif" font-size="10.00">blond::fft::rfft</text>
</a>
</g>
<!-- Node1&#45;&gt;Node2 -->
<g id="edge2" class="edge"><title>Node1&#45;&gt;Node2</title>
<path fill="none" stroke="midnightblue" d="M113.528,-39.1925C125.04,-40.8608 137.031,-42.5987 148.161,-44.2117"/>
<polygon fill="midnightblue" stroke="midnightblue" points="147.703,-47.6819 158.102,-45.6525 148.708,-40.7543 147.703,-47.6819"/>
</g>
<!-- Node9 -->
<g id="node17" class="node"><title>Node9</title>
<a xlink:href="../../d3/d4e/namespaceblond_1_1fft.html#aaf1611aaca30376aa93e86c1bb7c770a" target="_top" xlink:title="blond::fft::rfftfreq">
<polygon fill="white" stroke="black" points="150.5,-0.5 150.5,-21.5 239.5,-21.5 239.5,-0.5 150.5,-0.5"/>
<text text-anchor="middle" x="195" y="-8.5" font-family="Helvetica,sans-Serif" font-size="10.00">blond::fft::rfftfreq</text>
</a>
</g>
<!-- Node1&#45;&gt;Node9 -->
<g id="edge16" class="edge"><title>Node1&#45;&gt;Node9</title>
<path fill="none" stroke="midnightblue" d="M113.528,-22.8075C122.302,-21.5359 131.354,-20.224 140.092,-18.9577"/>
<polygon fill="midnightblue" stroke="midnightblue" points="140.774,-22.3955 150.169,-17.4973 139.77,-15.4679 140.774,-22.3955"/>
</g>
<!-- Node3 -->
<g id="node5" class="node"><title>Node3</title>
<a xlink:href="../../d3/d4e/namespaceblond_1_1fft.html#a4d694b9a511d426d61f827ae67867af0" target="_top" xlink:title="blond::fft::find_plan">
<polygon fill="white" stroke="black" points="276,-60.5 276,-81.5 376,-81.5 376,-60.5 276,-60.5"/>
<text text-anchor="middle" x="326" y="-68.5" font-family="Helvetica,sans-Serif" font-size="10.00">blond::fft::find_plan</text>
</a>
</g>
<!-- Node2&#45;&gt;Node3 -->
<g id="edge4" class="edge"><title>Node2&#45;&gt;Node3</title>
<path fill="none" stroke="midnightblue" d="M231.839,-56.6243C242.375,-58.2328 254.143,-60.0295 265.694,-61.793"/>
<polygon fill="midnightblue" stroke="midnightblue" points="265.339,-65.2793 275.753,-63.3287 266.396,-58.3595 265.339,-65.2793"/>
</g>
<!-- Node8 -->
<g id="node15" class="node"><title>Node8</title>
<a xlink:href="../../d3/d4e/namespaceblond_1_1fft.html#ae51b67b43753656e0abcdbbeb847dc6d" target="_top" xlink:title="blond::fft::run_fft">
<polygon fill="white" stroke="black" points="281.5,-20.5 281.5,-41.5 370.5,-41.5 370.5,-20.5 281.5,-20.5"/>
<text text-anchor="middle" x="326" y="-28.5" font-family="Helvetica,sans-Serif" font-size="10.00">blond::fft::run_fft</text>
</a>
</g>
<!-- Node2&#45;&gt;Node8 -->
<g id="edge14" class="edge"><title>Node2&#45;&gt;Node8</title>
<path fill="none" stroke="midnightblue" d="M231.839,-45.3757C244.021,-43.5159 257.85,-41.4046 271.087,-39.3837"/>
<polygon fill="midnightblue" stroke="midnightblue" points="271.699,-42.8309 281.056,-37.8617 270.642,-35.9111 271.699,-42.8309"/>
</g>
<!-- Node4 -->
<g id="node7" class="node"><title>Node4</title>
<a xlink:href="../../d3/d4e/namespaceblond_1_1fft.html#a35b440b10540932759ed4717efff2ff0" target="_top" xlink:title="blond::fft::init_fft">
<polygon fill="white" stroke="black" points="415,-100.5 415,-121.5 503,-121.5 503,-100.5 415,-100.5"/>
<text text-anchor="middle" x="459" y="-108.5" font-family="Helvetica,sans-Serif" font-size="10.00">blond::fft::init_fft</text>
</a>
</g>
<!-- Node3&#45;&gt;Node4 -->
<g id="edge6" class="edge"><title>Node3&#45;&gt;Node4</title>
<path fill="none" stroke="midnightblue" d="M360.944,-81.5095C377.157,-86.3856 396.628,-92.2415 413.931,-97.4454"/>
<polygon fill="midnightblue" stroke="midnightblue" points="413.243,-100.893 423.827,-100.422 415.259,-94.1899 413.243,-100.893"/>
</g>
<!-- Node6 -->
<g id="node11" class="node"><title>Node6</title>
<a xlink:href="../../d3/d4e/namespaceblond_1_1fft.html#a513059305dbf73b667991950c11cc4ba" target="_top" xlink:title="blond::fft::init_rfft">
<polygon fill="white" stroke="black" points="413.5,-60.5 413.5,-81.5 504.5,-81.5 504.5,-60.5 413.5,-60.5"/>
<text text-anchor="middle" x="459" y="-68.5" font-family="Helvetica,sans-Serif" font-size="10.00">blond::fft::init_rfft</text>
</a>
</g>
<!-- Node3&#45;&gt;Node6 -->
<g id="edge10" class="edge"><title>Node3&#45;&gt;Node6</title>
<path fill="none" stroke="midnightblue" d="M376.282,-71C385.154,-71 394.436,-71 403.443,-71"/>
<polygon fill="midnightblue" stroke="midnightblue" points="403.459,-74.5001 413.459,-71 403.459,-67.5001 403.459,-74.5001"/>
</g>
<!-- Node7 -->
<g id="node13" class="node"><title>Node7</title>
<a xlink:href="../../d3/d4e/namespaceblond_1_1fft.html#a03d82dcc1442ea1299b83874ced97f19" target="_top" xlink:title="blond::fft::init_irfft">
<polygon fill="white" stroke="black" points="412.5,-20.5 412.5,-41.5 505.5,-41.5 505.5,-20.5 412.5,-20.5"/>
<text text-anchor="middle" x="459" y="-28.5" font-family="Helvetica,sans-Serif" font-size="10.00">blond::fft::init_irfft</text>
</a>
</g>
<!-- Node3&#45;&gt;Node7 -->
<g id="edge12" class="edge"><title>Node3&#45;&gt;Node7</title>
<path fill="none" stroke="midnightblue" d="M360.944,-60.4905C377.157,-55.6144 396.628,-49.7585 413.931,-44.5546"/>
<polygon fill="midnightblue" stroke="midnightblue" points="415.259,-47.8101 423.827,-41.5782 413.243,-41.1067 415.259,-47.8101"/>
</g>
<!-- Node5 -->
<g id="node9" class="node"><title>Node5</title>
<a xlink:href="../../dc/d3e/namespaceblond_1_1mymath.html#a571019da04b332a0d4981d4357050fa1" target="_top" xlink:title="blond::mymath::sign">
<polygon fill="white" stroke="black" points="542.5,-100.5 542.5,-121.5 647.5,-121.5 647.5,-100.5 542.5,-100.5"/>
<text text-anchor="middle" x="595" y="-108.5" font-family="Helvetica,sans-Serif" font-size="10.00">blond::mymath::sign</text>
</a>
</g>
<!-- Node4&#45;&gt;Node5 -->
<g id="edge8" class="edge"><title>Node4&#45;&gt;Node5</title>
<path fill="none" stroke="midnightblue" d="M503.155,-111C512.366,-111 522.244,-111 531.986,-111"/>
<polygon fill="midnightblue" stroke="midnightblue" points="532.054,-114.5 542.054,-111 532.054,-107.5 532.054,-114.5"/>
</g>
</g>
</svg>
