<?xml version="1.0" encoding="UTF-8" standalone="no"?>
<!DOCTYPE svg PUBLIC "-//W3C//DTD SVG 1.1//EN"
 "http://www.w3.org/Graphics/SVG/1.1/DTD/svg11.dtd">
<!-- Generated by graphviz version 2.26.3 (20100126.1600)
 -->
<!-- Title: blond::Slices::gaussian_fit Pages: 1 -->
<svg width="592pt" height="212pt"
 viewBox="0.00 0.00 592.00 212.00" xmlns="http://www.w3.org/2000/svg" xmlns:xlink="http://www.w3.org/1999/xlink">
<g id="graph1" class="graph" transform="scale(1 1) rotate(0) translate(4 208)">
<title>blond::Slices::gaussian_fit</title>
<polygon fill="white" stroke="white" points="-4,5 -4,-208 589,-208 589,5 -4,5"/>
<!-- Node1 -->
<g id="node1" class="node"><title>Node1</title>
<polygon fill="#bfbfbf" stroke="black" points="0.5,-90.5 0.5,-111.5 131.5,-111.5 131.5,-90.5 0.5,-90.5"/>
<text text-anchor="middle" x="66" y="-98.5" font-family="Helvetica,sans-Serif" font-size="10.00">blond::Slices::gaussian_fit</text>
</g>
<!-- Node2 -->
<g id="node3" class="node"><title>Node2</title>
<a xlink:href="../../d4/d48/namespaceblond_1_1python.html#a358bb67c6e13aba766d6c4e09ec3e5d3" target="_top" xlink:title="blond::python::convert\l_double_array">
<polygon fill="white" stroke="black" points="174.5,-170 174.5,-204 287.5,-204 287.5,-170 174.5,-170"/>
<text text-anchor="start" x="182.5" y="-191" font-family="Helvetica,sans-Serif" font-size="10.00">blond::python::convert</text>
<text text-anchor="middle" x="231" y="-178" font-family="Helvetica,sans-Serif" font-size="10.00">_double_array</text>
</a>
</g>
<!-- Node1&#45;&gt;Node2 -->
<g id="edge2" class="edge"><title>Node1&#45;&gt;Node2</title>
<path fill="none" stroke="midnightblue" d="M82.5629,-111.721C102.418,-124.342 136.912,-145.537 168,-161 171.264,-162.624 174.656,-164.233 178.096,-165.808"/>
<polygon fill="midnightblue" stroke="midnightblue" points="176.704,-169.02 187.263,-169.884 179.548,-162.623 176.704,-169.02"/>
</g>
<!-- Node3 -->
<g id="node5" class="node"><title>Node3</title>
<a xlink:href="../../d4/d48/namespaceblond_1_1python.html#a83fe87000238e499d1a364facbbff28f" target="_top" xlink:title="blond::python::import">
<polygon fill="white" stroke="black" points="177,-130.5 177,-151.5 285,-151.5 285,-130.5 177,-130.5"/>
<text text-anchor="middle" x="231" y="-138.5" font-family="Helvetica,sans-Serif" font-size="10.00">blond::python::import</text>
</a>
</g>
<!-- Node1&#45;&gt;Node3 -->
<g id="edge4" class="edge"><title>Node1&#45;&gt;Node3</title>
<path fill="none" stroke="midnightblue" d="M109.352,-111.51C130.3,-116.588 155.633,-122.729 177.746,-128.09"/>
<polygon fill="midnightblue" stroke="midnightblue" points="177.108,-131.537 187.652,-130.491 178.758,-124.734 177.108,-131.537"/>
</g>
<!-- Node4 -->
<g id="node7" class="node"><title>Node4</title>
<a xlink:href="../../dc/d3e/namespaceblond_1_1mymath.html#a83a157fe9d741c9321ff00508d680354" target="_top" xlink:title="blond::mymath::max">
<polygon fill="white" stroke="black" points="178,-90.5 178,-111.5 284,-111.5 284,-90.5 178,-90.5"/>
<text text-anchor="middle" x="231" y="-98.5" font-family="Helvetica,sans-Serif" font-size="10.00">blond::mymath::max</text>
</a>
</g>
<!-- Node1&#45;&gt;Node4 -->
<g id="edge6" class="edge"><title>Node1&#45;&gt;Node4</title>
<path fill="none" stroke="midnightblue" d="M131.686,-101C143.572,-101 155.945,-101 167.759,-101"/>
<polygon fill="midnightblue" stroke="midnightblue" points="167.971,-104.5 177.971,-101 167.971,-97.5001 167.971,-104.5"/>
</g>
<!-- Node5 -->
<g id="node9" class="node"><title>Node5</title>
<a xlink:href="../../dc/d3e/namespaceblond_1_1mymath.html#aa68c909c903cc3dcebbcbc0aea962e05" target="_top" xlink:title="blond::mymath::mean">
<polygon fill="white" stroke="black" points="330.5,-28.5 330.5,-49.5 441.5,-49.5 441.5,-28.5 330.5,-28.5"/>
<text text-anchor="middle" x="386" y="-36.5" font-family="Helvetica,sans-Serif" font-size="10.00">blond::mymath::mean</text>
</a>
</g>
<!-- Node1&#45;&gt;Node5 -->
<g id="edge8" class="edge"><title>Node1&#45;&gt;Node5</title>
<path fill="none" stroke="midnightblue" d="M119.46,-90.4832C135.103,-87.4153 152.235,-84.0643 168,-81 219.423,-71.005 277.691,-59.7845 321.041,-51.4571"/>
<polygon fill="midnightblue" stroke="midnightblue" points="321.729,-54.889 330.889,-49.5657 320.409,-48.0146 321.729,-54.889"/>
</g>
<!-- Node7 -->
<g id="node13" class="node"><title>Node7</title>
<a xlink:href="../../dc/d3e/namespaceblond_1_1mymath.html#a0f49409acc85f23dff7512413236f5a4" target="_top" xlink:title="blond::mymath::standard\l_deviation">
<polygon fill="white" stroke="black" points="168.5,-0 168.5,-34 293.5,-34 293.5,-0 168.5,-0"/>
<text text-anchor="start" x="176.5" y="-21" font-family="Helvetica,sans-Serif" font-size="10.00">blond::mymath::standard</text>
<text text-anchor="middle" x="231" y="-8" font-family="Helvetica,sans-Serif" font-size="10.00">_deviation</text>
</a>
</g>
<!-- Node1&#45;&gt;Node7 -->
<g id="edge12" class="edge"><title>Node1&#45;&gt;Node7</title>
<path fill="none" stroke="midnightblue" d="M86.2529,-90.31C106.786,-79.5111 139.507,-62.4106 168,-48 174.066,-44.932 180.479,-41.7297 186.799,-38.597"/>
<polygon fill="midnightblue" stroke="midnightblue" points="188.527,-41.6477 195.943,-34.0811 185.427,-35.3715 188.527,-41.6477"/>
</g>
<!-- Node6 -->
<g id="node11" class="node"><title>Node6</title>
<a xlink:href="../../dc/d3e/namespaceblond_1_1mymath.html#ae5e33c74478fa3d59ff0513645639781" target="_top" xlink:title="blond::mymath::sum">
<polygon fill="white" stroke="black" points="478,-28.5 478,-49.5 584,-49.5 584,-28.5 478,-28.5"/>
<text text-anchor="middle" x="531" y="-36.5" font-family="Helvetica,sans-Serif" font-size="10.00">blond::mymath::sum</text>
</a>
</g>
<!-- Node5&#45;&gt;Node6 -->
<g id="edge10" class="edge"><title>Node5&#45;&gt;Node6</title>
<path fill="none" stroke="midnightblue" d="M441.646,-39C450.142,-39 458.964,-39 467.611,-39"/>
<polygon fill="midnightblue" stroke="midnightblue" points="467.651,-42.5001 477.651,-39 467.651,-35.5001 467.651,-42.5001"/>
</g>
<!-- Node7&#45;&gt;Node5 -->
<g id="edge14" class="edge"><title>Node7&#45;&gt;Node5</title>
<path fill="none" stroke="midnightblue" d="M293.598,-25.8848C302.294,-27.1191 311.25,-28.3903 320.006,-29.6331"/>
<polygon fill="midnightblue" stroke="midnightblue" points="319.772,-33.1349 330.165,-31.075 320.756,-26.2044 319.772,-33.1349"/>
</g>
</g>
</svg>
