<?xml version="1.0" encoding="UTF-8" standalone="no"?>
<!DOCTYPE svg PUBLIC "-//W3C//DTD SVG 1.1//EN"
 "http://www.w3.org/Graphics/SVG/1.1/DTD/svg11.dtd">
<!-- Generated by graphviz version 2.26.3 (20100126.1600)
 -->
<!-- Title: Music.cpp Pages: 1 -->
<!--zoomable 638 -->
<svg id="main" version="1.1" xmlns="http://www.w3.org/2000/svg" xmlns:xlink="http://www.w3.org/1999/xlink" xml:space="preserve" onload="init(evt)">
        <defs>
                <circle id="rim" cx="0" cy="0" r="7"/>
                <circle id="rim2" cx="0" cy="0" r="3.5"/>
                <g id="zoomPlus">
                        <use xlink:href="#rim" fill="#404040">
                                <set attributeName="fill" to="#808080" begin="zoomplus.mouseover" end="zoomplus.mouseout"/>
                        </use>
                        <path d="M-4,0h8M0,-4v8" fill="none" stroke="white" stroke-width="1.5" pointer-events="none"/>
                </g>
                <g id="zoomMin">
                        <use xlink:href="#rim" fill="#404040">
                                <set attributeName="fill" to="#808080" begin="zoomminus.mouseover" end="zoomminus.mouseout"/>
                        </use>
                        <path d="M-4,0h8" fill="none" stroke="white" stroke-width="1.5" pointer-events="none"/>
                </g>
                <g id="dirArrow">
                        <path fill="none" stroke="white" stroke-width="1.5" d="M0,-3.0v7 M-2.5,-0.5L0,-3.0L2.5,-0.5"/>
                </g>
               <g id="resetDef">
                       <use xlink:href="#rim2" fill="#404040">
                               <set attributeName="fill" to="#808080" begin="reset.mouseover" end="reset.mouseout"/>
                       </use>
               </g>
        </defs>

<script type="text/javascript">
var viewWidth = 1356;
var viewHeight = 638;
var sectionId = 'dynsection-0';
</script>
<script xlink:href="../../svgpan.js"/>
<svg id="graph" class="graph">
<g id="viewport">
<title>Music.cpp</title>
<polygon fill="white" stroke="white" points="-4,5 -4,-634 1353,-634 1353,5 -4,5"/>
<!-- Node1 -->
<g id="node1" class="node"><title>Node1</title>
<polygon fill="#bfbfbf" stroke="black" points="773,-608.5 773,-629.5 835,-629.5 835,-608.5 773,-608.5"/>
<text text-anchor="middle" x="804" y="-616.5" font-family="Helvetica,sans-Serif" font-size="10.00">Music.cpp</text>
</g>
<!-- Node2 -->
<g id="node3" class="node"><title>Node2</title>
<a xlink:href="../../dc/d9c/Music_8h.html" target="_top" xlink:title="blond/impedances/Music.h">
<polygon fill="white" stroke="black" points="407.5,-550.5 407.5,-571.5 540.5,-571.5 540.5,-550.5 407.5,-550.5"/>
<text text-anchor="middle" x="474" y="-558.5" font-family="Helvetica,sans-Serif" font-size="10.00">blond/impedances/Music.h</text>
</a>
</g>
<!-- Node1&#45;&gt;Node2 -->
<g id="edge2" class="edge"><title>Node1&#45;&gt;Node2</title>
<path fill="none" stroke="midnightblue" d="M772.954,-613.544C720.883,-604.392 614.709,-585.731 543.941,-573.293"/>
<polygon fill="midnightblue" stroke="midnightblue" points="544.222,-569.789 533.767,-571.505 543.01,-576.683 544.222,-569.789"/>
</g>
<!-- Node22 -->
<g id="node48" class="node"><title>Node22</title>
<a xlink:href="../../d2/de2/math__functions_8h.html" target="_top" xlink:title="blond/math_functions.h">
<polygon fill="white" stroke="black" points="745,-239.5 745,-260.5 863,-260.5 863,-239.5 745,-239.5"/>
<text text-anchor="middle" x="804" y="-247.5" font-family="Helvetica,sans-Serif" font-size="10.00">blond/math_functions.h</text>
</a>
</g>
<!-- Node1&#45;&gt;Node22 -->
<g id="edge138" class="edge"><title>Node1&#45;&gt;Node22</title>
<path fill="none" stroke="midnightblue" d="M804,-608.444C804,-588.062 804,-541.868 804,-503 804,-503 804,-503 804,-387 804,-345.793 804,-297.614 804,-270.773"/>
<polygon fill="midnightblue" stroke="midnightblue" points="807.5,-270.658 804,-260.658 800.5,-270.658 807.5,-270.658"/>
</g>
<!-- Node23 -->
<g id="node50" class="node"><title>Node23</title>
<polygon fill="white" stroke="#bfbfbf" points="1102,-174.5 1102,-195.5 1158,-195.5 1158,-174.5 1102,-174.5"/>
<text text-anchor="middle" x="1130" y="-182.5" font-family="Helvetica,sans-Serif" font-size="10.00">algorithm</text>
</g>
<!-- Node1&#45;&gt;Node23 -->
<g id="edge140" class="edge"><title>Node1&#45;&gt;Node23</title>
<path fill="none" stroke="midnightblue" d="M835.169,-614.859C890.009,-605.634 998,-577.953 998,-503 998,-503 998,-503 998,-322 998,-264.362 1059.34,-221.643 1098.39,-200.287"/>
<polygon fill="midnightblue" stroke="midnightblue" points="1100.11,-203.338 1107.31,-195.566 1096.83,-197.151 1100.11,-203.338"/>
</g>
<!-- Node33 -->
<g id="node76" class="node"><title>Node33</title>
<a xlink:href="../../d2/d6f/constants_8h.html" target="_top" xlink:title="blond/constants.h">
<polygon fill="white" stroke="black" points="107,-239.5 107,-260.5 201,-260.5 201,-239.5 107,-239.5"/>
<text text-anchor="middle" x="154" y="-247.5" font-family="Helvetica,sans-Serif" font-size="10.00">blond/constants.h</text>
</a>
</g>
<!-- Node1&#45;&gt;Node33 -->
<g id="edge136" class="edge"><title>Node1&#45;&gt;Node33</title>
<path fill="none" stroke="midnightblue" d="M772.787,-617.143C637.552,-608.688 109,-571.275 109,-503 109,-503 109,-503 109,-445 109,-379.823 133.164,-305.457 146.078,-270.368"/>
<polygon fill="midnightblue" stroke="midnightblue" points="149.435,-271.385 149.685,-260.793 142.884,-268.917 149.435,-271.385"/>
</g>
<!-- Node37 -->
<g id="node98" class="node"><title>Node37</title>
<a xlink:href="../../da/d30/vector__math_8h.html" target="_top" xlink:title="blond/vector_math.h">
<polygon fill="white" stroke="black" points="1133.5,-239.5 1133.5,-260.5 1238.5,-260.5 1238.5,-239.5 1133.5,-239.5"/>
<text text-anchor="middle" x="1186" y="-247.5" font-family="Helvetica,sans-Serif" font-size="10.00">blond/vector_math.h</text>
</a>
</g>
<!-- Node1&#45;&gt;Node37 -->
<g id="edge122" class="edge"><title>Node1&#45;&gt;Node37</title>
<path fill="none" stroke="midnightblue" d="M835.126,-614.073C913.175,-600.846 1111,-561.543 1111,-503 1111,-503 1111,-503 1111,-387 1111,-339.495 1146.13,-292.847 1168.3,-268.133"/>
<polygon fill="midnightblue" stroke="midnightblue" points="1171.03,-270.338 1175.25,-260.622 1165.89,-265.582 1171.03,-270.338"/>
</g>
<!-- Node3 -->
<g id="node5" class="node"><title>Node3</title>
<a xlink:href="../../d7/d74/Beams_8h.html" target="_top" xlink:title="blond/beams/Beams.h">
<polygon fill="white" stroke="black" points="339,-492.5 339,-513.5 453,-513.5 453,-492.5 339,-492.5"/>
<text text-anchor="middle" x="396" y="-500.5" font-family="Helvetica,sans-Serif" font-size="10.00">blond/beams/Beams.h</text>
</a>
</g>
<!-- Node2&#45;&gt;Node3 -->
<g id="edge4" class="edge"><title>Node2&#45;&gt;Node3</title>
<path fill="none" stroke="midnightblue" d="M459.694,-550.362C448.149,-541.777 431.7,-529.546 418.41,-519.664"/>
<polygon fill="midnightblue" stroke="midnightblue" points="420.329,-516.729 410.216,-513.571 416.152,-522.346 420.329,-516.729"/>
</g>
<!-- Node6 -->
<g id="node11" class="node"><title>Node6</title>
<a xlink:href="../../d2/d2c/configuration_8h.html" target="_top" xlink:title="blond/configuration.h">
<polygon fill="white" stroke="black" points="-0.5,-116.5 -0.5,-137.5 106.5,-137.5 106.5,-116.5 -0.5,-116.5"/>
<text text-anchor="middle" x="53" y="-124.5" font-family="Helvetica,sans-Serif" font-size="10.00">blond/configuration.h</text>
</a>
</g>
<!-- Node2&#45;&gt;Node6 -->
<g id="edge112" class="edge"><title>Node2&#45;&gt;Node6</title>
<path fill="none" stroke="midnightblue" d="M407.017,-558.393C276.983,-551.497 3,-527.214 3,-445 3,-445 3,-445 3,-250 3,-210.899 24.9528,-169.612 39.766,-146.203"/>
<polygon fill="midnightblue" stroke="midnightblue" points="42.8514,-147.88 45.4061,-137.598 36.9969,-144.043 42.8514,-147.88"/>
</g>
<!-- Node36 -->
<g id="node93" class="node"><title>Node36</title>
<a xlink:href="../../d6/d70/Intensity_8h.html" target="_top" xlink:title="blond/impedances/Intensity.h">
<polygon fill="white" stroke="black" points="511,-239.5 511,-260.5 655,-260.5 655,-239.5 511,-239.5"/>
<text text-anchor="middle" x="583" y="-247.5" font-family="Helvetica,sans-Serif" font-size="10.00">blond/impedances/Intensity.h</text>
</a>
</g>
<!-- Node2&#45;&gt;Node36 -->
<g id="edge114" class="edge"><title>Node2&#45;&gt;Node36</title>
<path fill="none" stroke="midnightblue" d="M487.587,-550.452C509.934,-531.798 552,-490.624 552,-445 552,-445 552,-445 552,-387 552,-344.777 566.181,-296.999 575.36,-270.495"/>
<polygon fill="midnightblue" stroke="midnightblue" points="578.748,-271.416 578.819,-260.821 572.156,-269.059 578.748,-271.416"/>
</g>
<!-- Node4 -->
<g id="node7" class="node"><title>Node4</title>
<a xlink:href="../../d5/d87/globals_8h.html" target="_top" xlink:title="blond/globals.h">
<polygon fill="white" stroke="black" points="277,-434.5 277,-455.5 359,-455.5 359,-434.5 277,-434.5"/>
<text text-anchor="middle" x="318" y="-442.5" font-family="Helvetica,sans-Serif" font-size="10.00">blond/globals.h</text>
</a>
</g>
<!-- Node3&#45;&gt;Node4 -->
<g id="edge6" class="edge"><title>Node3&#45;&gt;Node4</title>
<path fill="none" stroke="midnightblue" d="M376.33,-492.362C363.39,-483.859 346.864,-471.779 334.588,-461.947"/>
<polygon fill="midnightblue" stroke="midnightblue" points="336.804,-459.237 326.864,-455.571 332.348,-464.636 336.804,-459.237"/>
</g>
<!-- Node5 -->
<g id="node9" class="node"><title>Node5</title>
<a xlink:href="../../d5/d34/GeneralParameters_8h.html" target="_top" xlink:title="blond/input_parameters\l/GeneralParameters.h">
<polygon fill="white" stroke="black" points="280,-233 280,-267 398,-267 398,-233 280,-233"/>
<text text-anchor="start" x="288" y="-254" font-family="Helvetica,sans-Serif" font-size="10.00">blond/input_parameters</text>
<text text-anchor="middle" x="339" y="-241" font-family="Helvetica,sans-Serif" font-size="10.00">/GeneralParameters.h</text>
</a>
</g>
<!-- Node3&#45;&gt;Node5 -->
<g id="edge108" class="edge"><title>Node3&#45;&gt;Node5</title>
<path fill="none" stroke="midnightblue" d="M402.013,-492.244C418.631,-460.952 461.668,-368.119 426,-304 418.627,-290.747 406.507,-280.329 393.621,-272.33"/>
<polygon fill="midnightblue" stroke="midnightblue" points="395.044,-269.111 384.627,-267.173 391.562,-275.184 395.044,-269.111"/>
</g>
<!-- Node3&#45;&gt;Node6 -->
<g id="edge104" class="edge"><title>Node3&#45;&gt;Node6</title>
<path fill="none" stroke="midnightblue" d="M338.852,-494.824C278.674,-483.33 184.919,-456.788 128,-398 59.0085,-326.743 52.2861,-197.895 52.4495,-147.753"/>
<polygon fill="midnightblue" stroke="midnightblue" points="55.9521,-147.579 52.5869,-137.533 48.9527,-147.485 55.9521,-147.579"/>
</g>
<!-- Node9 -->
<g id="node17" class="node"><title>Node9</title>
<a xlink:href="../../de/df0/utilities_8h.html" target="_top" xlink:title="blond/utilities.h">
<polygon fill="white" stroke="black" points="476,-174.5 476,-195.5 558,-195.5 558,-174.5 476,-174.5"/>
<text text-anchor="middle" x="517" y="-182.5" font-family="Helvetica,sans-Serif" font-size="10.00">blond/utilities.h</text>
</a>
</g>
<!-- Node3&#45;&gt;Node9 -->
<g id="edge106" class="edge"><title>Node3&#45;&gt;Node9</title>
<path fill="none" stroke="midnightblue" d="M411.957,-492.226C437.073,-473.842 483,-433.823 483,-387 483,-387 483,-387 483,-322 483,-279.569 498.553,-231.864 508.621,-205.429"/>
<polygon fill="midnightblue" stroke="midnightblue" points="512.011,-206.371 512.415,-195.784 505.497,-203.808 512.011,-206.371"/>
</g>
<!-- Node21 -->
<g id="node44" class="node"><title>Node21</title>
<a xlink:href="../../d6/db7/RfParameters_8h.html" target="_top" xlink:title="blond/input_parameters\l/RfParameters.h">
<polygon fill="white" stroke="black" points="299,-305 299,-339 417,-339 417,-305 299,-305"/>
<text text-anchor="start" x="307" y="-326" font-family="Helvetica,sans-Serif" font-size="10.00">blond/input_parameters</text>
<text text-anchor="middle" x="358" y="-313" font-family="Helvetica,sans-Serif" font-size="10.00">/RfParameters.h</text>
</a>
</g>
<!-- Node3&#45;&gt;Node21 -->
<g id="edge110" class="edge"><title>Node3&#45;&gt;Node21</title>
<path fill="none" stroke="midnightblue" d="M390.417,-492.486C380.754,-464.921 364.464,-389.885 358.716,-349.163"/>
<polygon fill="midnightblue" stroke="midnightblue" points="362.173,-348.605 357.44,-339.126 355.229,-349.488 362.173,-348.605"/>
</g>
<!-- Node4&#45;&gt;Node3 -->
<g id="edge92" class="edge"><title>Node4&#45;&gt;Node3</title>
<path fill="none" stroke="midnightblue" d="M337.568,-455.571C350.488,-464.055 367.016,-476.132 379.315,-485.975"/>
<polygon fill="midnightblue" stroke="midnightblue" points="377.116,-488.699 387.058,-492.362 381.57,-483.299 377.116,-488.699"/>
</g>
<!-- Node4&#45;&gt;Node5 -->
<g id="edge8" class="edge"><title>Node4&#45;&gt;Node5</title>
<path fill="none" stroke="midnightblue" d="M311.986,-434.395C299.225,-410.432 272.023,-350.564 290,-304 294.302,-292.856 302.09,-282.591 310.21,-274.071"/>
<polygon fill="midnightblue" stroke="midnightblue" points="312.671,-276.559 317.351,-267.054 307.765,-271.566 312.671,-276.559"/>
</g>
<!-- Node4&#45;&gt;Node21 -->
<g id="edge46" class="edge"><title>Node4&#45;&gt;Node21</title>
<path fill="none" stroke="midnightblue" d="M317.503,-434.085C320.743,-415.108 333.072,-375.514 343.583,-348.838"/>
<polygon fill="midnightblue" stroke="midnightblue" points="346.932,-349.897 347.5,-339.317 340.459,-347.234 346.932,-349.897"/>
</g>
<!-- Node34 -->
<g id="node81" class="node"><title>Node34</title>
<a xlink:href="../../dc/df2/Slices_8h.html" target="_top" xlink:title="blond/beams/Slices.h">
<polygon fill="white" stroke="black" points="137,-376.5 137,-397.5 247,-397.5 247,-376.5 137,-376.5"/>
<text text-anchor="middle" x="192" y="-384.5" font-family="Helvetica,sans-Serif" font-size="10.00">blond/beams/Slices.h</text>
</a>
</g>
<!-- Node4&#45;&gt;Node34 -->
<g id="edge94" class="edge"><title>Node4&#45;&gt;Node34</title>
<path fill="none" stroke="midnightblue" d="M295.182,-434.497C275.414,-425.397 246.587,-412.127 224.424,-401.925"/>
<polygon fill="midnightblue" stroke="midnightblue" points="225.621,-398.623 215.074,-397.621 222.694,-404.982 225.621,-398.623"/>
</g>
<!-- Node5&#45;&gt;Node6 -->
<g id="edge10" class="edge"><title>Node5&#45;&gt;Node6</title>
<path fill="none" stroke="midnightblue" d="M280.303,-232.909C249.629,-223.301 211.756,-210.364 179,-196 143.152,-180.28 103.9,-157.9 78.8917,-142.936"/>
<polygon fill="midnightblue" stroke="midnightblue" points="80.4112,-139.765 70.0414,-137.592 76.7934,-145.757 80.4112,-139.765"/>
</g>
<!-- Node8 -->
<g id="node15" class="node"><title>Node8</title>
<polygon fill="white" stroke="#bfbfbf" points="802,-58.5 802,-79.5 846,-79.5 846,-58.5 802,-58.5"/>
<text text-anchor="middle" x="824" y="-66.5" font-family="Helvetica,sans-Serif" font-size="10.00">vector</text>
</g>
<!-- Node5&#45;&gt;Node8 -->
<g id="edge44" class="edge"><title>Node5&#45;&gt;Node8</title>
<path fill="none" stroke="midnightblue" d="M282.275,-232.95C238.326,-216.413 180.448,-186.568 153,-138 148.189,-129.488 146.332,-123.151 153,-116 175.028,-92.3754 660.306,-74.4761 791.535,-70.0554"/>
<polygon fill="midnightblue" stroke="midnightblue" points="791.867,-73.5464 801.745,-69.7147 791.634,-66.5503 791.867,-73.5464"/>
</g>
<!-- Node5&#45;&gt;Node9 -->
<g id="edge16" class="edge"><title>Node5&#45;&gt;Node9</title>
<path fill="none" stroke="midnightblue" d="M385.767,-232.922C414.665,-222.37 451.296,-208.993 478.508,-199.056"/>
<polygon fill="midnightblue" stroke="midnightblue" points="479.884,-202.28 488.076,-195.562 477.483,-195.705 479.884,-202.28"/>
</g>
<!-- Node7 -->
<g id="node13" class="node"><title>Node7</title>
<polygon fill="white" stroke="#bfbfbf" points="26.5,-58.5 26.5,-79.5 79.5,-79.5 79.5,-58.5 26.5,-58.5"/>
<text text-anchor="middle" x="53" y="-66.5" font-family="Helvetica,sans-Serif" font-size="10.00">complex</text>
</g>
<!-- Node6&#45;&gt;Node7 -->
<g id="edge12" class="edge"><title>Node6&#45;&gt;Node7</title>
<path fill="none" stroke="midnightblue" d="M53,-116.362C53,-108.922 53,-98.7427 53,-89.7276"/>
<polygon fill="midnightblue" stroke="midnightblue" points="56.5001,-89.5706 53,-79.5707 49.5001,-89.5707 56.5001,-89.5706"/>
</g>
<!-- Node6&#45;&gt;Node8 -->
<g id="edge14" class="edge"><title>Node6&#45;&gt;Node8</title>
<path fill="none" stroke="midnightblue" d="M106.693,-117.719C111.187,-117.084 115.667,-116.499 120,-116 378.011,-86.277 691.55,-73.5488 791.656,-70.053"/>
<polygon fill="midnightblue" stroke="midnightblue" points="791.862,-73.5481 801.736,-69.7072 791.621,-66.5522 791.862,-73.5481"/>
</g>
<!-- Node9&#45;&gt;Node6 -->
<g id="edge40" class="edge"><title>Node9&#45;&gt;Node6</title>
<path fill="none" stroke="midnightblue" d="M475.823,-179.853C394.637,-169.705 213.418,-147.052 116.698,-134.962"/>
<polygon fill="midnightblue" stroke="midnightblue" points="117.111,-131.487 106.754,-133.719 116.243,-138.433 117.111,-131.487"/>
</g>
<!-- Node9&#45;&gt;Node8 -->
<g id="edge36" class="edge"><title>Node9&#45;&gt;Node8</title>
<path fill="none" stroke="midnightblue" d="M558.255,-177.97C566.136,-176.641 574.322,-175.269 582,-174 631.525,-165.812 767.63,-171.515 805,-138 818.398,-125.984 822.717,-105.477 823.942,-89.9332"/>
<polygon fill="midnightblue" stroke="midnightblue" points="827.45,-89.8231 824.373,-79.6849 820.456,-89.5291 827.45,-89.8231"/>
</g>
<!-- Node10 -->
<g id="node19" class="node"><title>Node10</title>
<polygon fill="white" stroke="#bfbfbf" points="420,-116.5 420,-137.5 466,-137.5 466,-116.5 420,-116.5"/>
<text text-anchor="middle" x="443" y="-124.5" font-family="Helvetica,sans-Serif" font-size="10.00">chrono</text>
</g>
<!-- Node9&#45;&gt;Node10 -->
<g id="edge18" class="edge"><title>Node9&#45;&gt;Node10</title>
<path fill="none" stroke="midnightblue" d="M503.427,-174.362C492.579,-165.859 477.166,-153.779 464.621,-143.947"/>
<polygon fill="midnightblue" stroke="midnightblue" points="466.516,-140.985 456.487,-137.571 462.198,-146.494 466.516,-140.985"/>
</g>
<!-- Node11 -->
<g id="node21" class="node"><title>Node11</title>
<polygon fill="white" stroke="#bfbfbf" points="483.5,-116.5 483.5,-137.5 526.5,-137.5 526.5,-116.5 483.5,-116.5"/>
<text text-anchor="middle" x="505" y="-124.5" font-family="Helvetica,sans-Serif" font-size="10.00">cstdio</text>
</g>
<!-- Node9&#45;&gt;Node11 -->
<g id="edge20" class="edge"><title>Node9&#45;&gt;Node11</title>
<path fill="none" stroke="midnightblue" d="M514.799,-174.362C513.243,-166.84 511.107,-156.519 509.227,-147.431"/>
<polygon fill="midnightblue" stroke="midnightblue" points="512.641,-146.654 507.187,-137.571 505.786,-148.072 512.641,-146.654"/>
</g>
<!-- Node12 -->
<g id="node23" class="node"><title>Node12</title>
<polygon fill="white" stroke="#bfbfbf" points="543.5,-116.5 543.5,-137.5 588.5,-137.5 588.5,-116.5 543.5,-116.5"/>
<text text-anchor="middle" x="566" y="-124.5" font-family="Helvetica,sans-Serif" font-size="10.00">cstdlib</text>
</g>
<!-- Node9&#45;&gt;Node12 -->
<g id="edge22" class="edge"><title>Node9&#45;&gt;Node12</title>
<path fill="none" stroke="midnightblue" d="M525.987,-174.362C532.825,-166.268 542.402,-154.932 550.472,-145.38"/>
<polygon fill="midnightblue" stroke="midnightblue" points="553.29,-147.468 557.07,-137.571 547.942,-142.951 553.29,-147.468"/>
</g>
<!-- Node13 -->
<g id="node25" class="node"><title>Node13</title>
<polygon fill="white" stroke="#bfbfbf" points="606,-116.5 606,-137.5 656,-137.5 656,-116.5 606,-116.5"/>
<text text-anchor="middle" x="631" y="-124.5" font-family="Helvetica,sans-Serif" font-size="10.00">fstream</text>
</g>
<!-- Node9&#45;&gt;Node13 -->
<g id="edge24" class="edge"><title>Node9&#45;&gt;Node13</title>
<path fill="none" stroke="midnightblue" d="M537.645,-174.497C555.37,-165.479 581.145,-152.365 601.123,-142.201"/>
<polygon fill="midnightblue" stroke="midnightblue" points="602.798,-145.275 610.124,-137.621 599.624,-139.036 602.798,-145.275"/>
</g>
<!-- Node14 -->
<g id="node27" class="node"><title>Node14</title>
<polygon fill="white" stroke="#bfbfbf" points="1032,-116.5 1032,-137.5 1086,-137.5 1086,-116.5 1032,-116.5"/>
<text text-anchor="middle" x="1059" y="-124.5" font-family="Helvetica,sans-Serif" font-size="10.00">iostream</text>
</g>
<!-- Node9&#45;&gt;Node14 -->
<g id="edge26" class="edge"><title>Node9&#45;&gt;Node14</title>
<path fill="none" stroke="midnightblue" d="M558.473,-180.227C575.921,-178.25 596.442,-175.964 615,-174 775.784,-156.982 816.408,-156.751 977,-138 991.552,-136.301 1007.53,-134.209 1021.48,-132.308"/>
<polygon fill="midnightblue" stroke="midnightblue" points="1022.27,-135.733 1031.7,-130.901 1021.31,-128.798 1022.27,-135.733"/>
</g>
<!-- Node15 -->
<g id="node29" class="node"><title>Node15</title>
<polygon fill="white" stroke="#bfbfbf" points="1126.5,-116.5 1126.5,-137.5 1173.5,-137.5 1173.5,-116.5 1126.5,-116.5"/>
<text text-anchor="middle" x="1150" y="-124.5" font-family="Helvetica,sans-Serif" font-size="10.00">iterator</text>
</g>
<!-- Node9&#45;&gt;Node15 -->
<g id="edge28" class="edge"><title>Node9&#45;&gt;Node15</title>
<path fill="none" stroke="midnightblue" d="M558.451,-180.005C575.895,-177.991 596.42,-175.739 615,-174 828.002,-154.065 883.047,-167.032 1095,-138 1101.94,-137.05 1109.31,-135.766 1116.34,-134.411"/>
<polygon fill="midnightblue" stroke="midnightblue" points="1117.17,-137.813 1126.28,-132.404 1115.79,-130.951 1117.17,-137.813"/>
</g>
<!-- Node16 -->
<g id="node31" class="node"><title>Node16</title>
<polygon fill="white" stroke="#bfbfbf" points="674,-116.5 674,-137.5 726,-137.5 726,-116.5 674,-116.5"/>
<text text-anchor="middle" x="700" y="-124.5" font-family="Helvetica,sans-Serif" font-size="10.00">memory</text>
</g>
<!-- Node9&#45;&gt;Node16 -->
<g id="edge30" class="edge"><title>Node9&#45;&gt;Node16</title>
<path fill="none" stroke="midnightblue" d="M550.14,-174.497C582.343,-164.29 631.099,-148.837 664.183,-138.352"/>
<polygon fill="midnightblue" stroke="midnightblue" points="665.437,-141.626 673.912,-135.268 663.322,-134.953 665.437,-141.626"/>
</g>
<!-- Node17 -->
<g id="node33" class="node"><title>Node17</title>
<polygon fill="white" stroke="#bfbfbf" points="744,-116.5 744,-137.5 796,-137.5 796,-116.5 744,-116.5"/>
<text text-anchor="middle" x="770" y="-124.5" font-family="Helvetica,sans-Serif" font-size="10.00">sstream</text>
</g>
<!-- Node9&#45;&gt;Node17 -->
<g id="edge32" class="edge"><title>Node9&#45;&gt;Node17</title>
<path fill="none" stroke="midnightblue" d="M558.251,-177.284C600.226,-169.171 667.326,-155.488 733.889,-138.137"/>
<polygon fill="midnightblue" stroke="midnightblue" points="734.925,-141.483 743.702,-135.551 733.141,-134.715 734.925,-141.483"/>
</g>
<!-- Node18 -->
<g id="node35" class="node"><title>Node18</title>
<polygon fill="white" stroke="#bfbfbf" points="161.5,-116.5 161.5,-137.5 202.5,-137.5 202.5,-116.5 161.5,-116.5"/>
<text text-anchor="middle" x="182" y="-124.5" font-family="Helvetica,sans-Serif" font-size="10.00">string</text>
</g>
<!-- Node9&#45;&gt;Node18 -->
<g id="edge34" class="edge"><title>Node9&#45;&gt;Node18</title>
<path fill="none" stroke="midnightblue" d="M475.752,-179.758C408.028,-170.979 275.234,-152.998 212.535,-137.949"/>
<polygon fill="midnightblue" stroke="midnightblue" points="213.292,-134.53 202.738,-135.465 211.571,-141.315 213.292,-134.53"/>
</g>
<!-- Node19 -->
<g id="node38" class="node"><title>Node19</title>
<polygon fill="white" stroke="#bfbfbf" points="220,-116.5 220,-137.5 280,-137.5 280,-116.5 220,-116.5"/>
<text text-anchor="middle" x="250" y="-124.5" font-family="Helvetica,sans-Serif" font-size="10.00">sys/stat.h</text>
</g>
<!-- Node9&#45;&gt;Node19 -->
<g id="edge38" class="edge"><title>Node9&#45;&gt;Node19</title>
<path fill="none" stroke="midnightblue" d="M475.613,-177.392C431.836,-169.141 360.555,-155.124 290.109,-138.156"/>
<polygon fill="midnightblue" stroke="midnightblue" points="290.721,-134.703 280.177,-135.742 289.068,-141.505 290.721,-134.703"/>
</g>
<!-- Node20 -->
<g id="node41" class="node"><title>Node20</title>
<a xlink:href="../../da/d69/optionparser_8h.html" target="_top" xlink:title="This is the only file required to use The Lean Mean C++ Option Parser. Just #include it and you&#39;re se...">
<polygon fill="white" stroke="black" points="298,-116.5 298,-137.5 402,-137.5 402,-116.5 298,-116.5"/>
<text text-anchor="middle" x="350" y="-124.5" font-family="Helvetica,sans-Serif" font-size="10.00">blond/optionparser.h</text>
</a>
</g>
<!-- Node9&#45;&gt;Node20 -->
<g id="edge42" class="edge"><title>Node9&#45;&gt;Node20</title>
<path fill="none" stroke="midnightblue" d="M486.758,-174.497C459.65,-165.082 419.69,-151.204 389.957,-140.877"/>
<polygon fill="midnightblue" stroke="midnightblue" points="390.894,-137.498 380.299,-137.523 388.597,-144.11 390.894,-137.498"/>
</g>
<!-- Node21&#45;&gt;Node3 -->
<g id="edge48" class="edge"><title>Node21&#45;&gt;Node3</title>
<path fill="none" stroke="midnightblue" d="M365.752,-339.126C376.095,-372.485 391.657,-446.061 396.127,-482.176"/>
<polygon fill="midnightblue" stroke="midnightblue" points="392.681,-482.889 397.168,-492.486 399.646,-482.185 392.681,-482.889"/>
</g>
<!-- Node21&#45;&gt;Node4 -->
<g id="edge90" class="edge"><title>Node21&#45;&gt;Node4</title>
<path fill="none" stroke="midnightblue" d="M357.236,-339.317C352.324,-361.843 339.644,-401.12 329.673,-424.924"/>
<polygon fill="midnightblue" stroke="midnightblue" points="326.465,-423.525 325.597,-434.085 332.86,-426.371 326.465,-423.525"/>
</g>
<!-- Node21&#45;&gt;Node5 -->
<g id="edge50" class="edge"><title>Node21&#45;&gt;Node5</title>
<path fill="none" stroke="midnightblue" d="M353.497,-304.937C351.329,-296.719 348.674,-286.66 346.232,-277.406"/>
<polygon fill="midnightblue" stroke="midnightblue" points="349.538,-276.217 343.602,-267.441 342.77,-278.003 349.538,-276.217"/>
</g>
<!-- Node21&#45;&gt;Node22 -->
<g id="edge52" class="edge"><title>Node21&#45;&gt;Node22</title>
<path fill="none" stroke="midnightblue" d="M417.225,-312.439C499.394,-299.174 647.679,-275.236 734.829,-261.167"/>
<polygon fill="midnightblue" stroke="midnightblue" points="735.571,-264.592 744.885,-259.543 734.455,-257.682 735.571,-264.592"/>
</g>
<!-- Node21&#45;&gt;Node33 -->
<g id="edge86" class="edge"><title>Node21&#45;&gt;Node33</title>
<path fill="none" stroke="midnightblue" d="M309.655,-304.937C274.312,-292.463 226.953,-275.748 193.79,-264.044"/>
<polygon fill="midnightblue" stroke="midnightblue" points="194.578,-260.61 183.983,-260.582 192.248,-267.211 194.578,-260.61"/>
</g>
<!-- Node22&#45;&gt;Node6 -->
<g id="edge56" class="edge"><title>Node22&#45;&gt;Node6</title>
<path fill="none" stroke="midnightblue" d="M744.932,-240.65C677.633,-229.97 564.365,-211.914 467,-196 342.867,-175.71 197.907,-151.411 116.644,-137.734"/>
<polygon fill="midnightblue" stroke="midnightblue" points="117.016,-134.248 106.574,-136.039 115.854,-141.151 117.016,-134.248"/>
</g>
<!-- Node22&#45;&gt;Node9 -->
<g id="edge74" class="edge"><title>Node22&#45;&gt;Node9</title>
<path fill="none" stroke="midnightblue" d="M757.57,-239.484C705.703,-227.738 621.987,-208.778 568.243,-196.606"/>
<polygon fill="midnightblue" stroke="midnightblue" points="568.768,-193.136 558.242,-194.34 567.222,-199.963 568.768,-193.136"/>
</g>
<!-- Node22&#45;&gt;Node23 -->
<g id="edge54" class="edge"><title>Node22&#45;&gt;Node23</title>
<path fill="none" stroke="midnightblue" d="M863.053,-240.819C919.554,-231.616 1007.3,-216.237 1092.02,-196.067"/>
<polygon fill="midnightblue" stroke="midnightblue" points="1092.9,-199.456 1101.8,-193.713 1091.26,-192.65 1092.9,-199.456"/>
</g>
<!-- Node24 -->
<g id="node53" class="node"><title>Node24</title>
<a xlink:href="../../d8/dcd/exp_8h.html" target="_top" xlink:title="blond/exp.h">
<polygon fill="white" stroke="black" points="869.5,-174.5 869.5,-195.5 936.5,-195.5 936.5,-174.5 869.5,-174.5"/>
<text text-anchor="middle" x="903" y="-182.5" font-family="Helvetica,sans-Serif" font-size="10.00">blond/exp.h</text>
</a>
</g>
<!-- Node22&#45;&gt;Node24 -->
<g id="edge58" class="edge"><title>Node22&#45;&gt;Node24</title>
<path fill="none" stroke="midnightblue" d="M820.348,-239.267C836.062,-228.949 860.025,-213.216 878.11,-201.342"/>
<polygon fill="midnightblue" stroke="midnightblue" points="880.518,-203.948 886.956,-195.534 876.676,-198.096 880.518,-203.948"/>
</g>
<!-- Node26 -->
<g id="node57" class="node"><title>Node26</title>
<polygon fill="white" stroke="#bfbfbf" points="1195,-0.5 1195,-21.5 1239,-21.5 1239,-0.5 1195,-0.5"/>
<text text-anchor="middle" x="1217" y="-8.5" font-family="Helvetica,sans-Serif" font-size="10.00">cmath</text>
</g>
<!-- Node22&#45;&gt;Node26 -->
<g id="edge76" class="edge"><title>Node22&#45;&gt;Node26</title>
<path fill="none" stroke="midnightblue" d="M806.61,-239.455C810.882,-223.831 820.58,-194.205 837,-174 865.153,-139.357 879.347,-136.502 919,-116 1010.97,-68.4466 1129.32,-33.9355 1185.15,-19.0857"/>
<polygon fill="midnightblue" stroke="midnightblue" points="1186.05,-22.4694 1194.83,-16.543 1184.27,-15.6992 1186.05,-22.4694"/>
</g>
<!-- Node27 -->
<g id="node59" class="node"><title>Node27</title>
<polygon fill="white" stroke="#bfbfbf" points="928,-116.5 928,-137.5 968,-137.5 968,-116.5 928,-116.5"/>
<text text-anchor="middle" x="948" y="-124.5" font-family="Helvetica,sans-Serif" font-size="10.00">limits</text>
</g>
<!-- Node22&#45;&gt;Node27 -->
<g id="edge80" class="edge"><title>Node22&#45;&gt;Node27</title>
<path fill="none" stroke="midnightblue" d="M809.988,-239.271C819.256,-223.411 838.386,-193.488 861,-174 878.117,-159.249 900.632,-147.241 918.468,-139.056"/>
<polygon fill="midnightblue" stroke="midnightblue" points="920.106,-142.159 927.832,-134.909 917.272,-135.758 920.106,-142.159"/>
</g>
<!-- Node28 -->
<g id="node61" class="node"><title>Node28</title>
<a xlink:href="../../d1/d3d/sin_8h.html" target="_top" xlink:title="blond/sin.h">
<polygon fill="white" stroke="black" points="954,-174.5 954,-195.5 1018,-195.5 1018,-174.5 954,-174.5"/>
<text text-anchor="middle" x="986" y="-182.5" font-family="Helvetica,sans-Serif" font-size="10.00">blond/sin.h</text>
</a>
</g>
<!-- Node22&#45;&gt;Node28 -->
<g id="edge66" class="edge"><title>Node22&#45;&gt;Node28</title>
<path fill="none" stroke="midnightblue" d="M833.647,-239.412C864.45,-228.411 912.809,-211.14 946.763,-199.013"/>
<polygon fill="midnightblue" stroke="midnightblue" points="948.126,-202.243 956.366,-195.584 945.772,-195.651 948.126,-202.243"/>
</g>
<!-- Node30 -->
<g id="node69" class="node"><title>Node30</title>
<polygon fill="white" stroke="#bfbfbf" points="623.5,-174.5 623.5,-195.5 672.5,-195.5 672.5,-174.5 623.5,-174.5"/>
<text text-anchor="middle" x="648" y="-182.5" font-family="Helvetica,sans-Serif" font-size="10.00">random</text>
</g>
<!-- Node22&#45;&gt;Node30 -->
<g id="edge78" class="edge"><title>Node22&#45;&gt;Node30</title>
<path fill="none" stroke="midnightblue" d="M778.589,-239.412C752.293,-228.455 711.072,-211.28 681.987,-199.161"/>
<polygon fill="midnightblue" stroke="midnightblue" points="683.205,-195.877 672.628,-195.262 680.512,-202.339 683.205,-195.877"/>
</g>
<!-- Node31 -->
<g id="node72" class="node"><title>Node31</title>
<polygon fill="white" stroke="#bfbfbf" points="1035.5,-174.5 1035.5,-195.5 1084.5,-195.5 1084.5,-174.5 1035.5,-174.5"/>
<text text-anchor="middle" x="1060" y="-182.5" font-family="Helvetica,sans-Serif" font-size="10.00">cassert</text>
</g>
<!-- Node22&#45;&gt;Node31 -->
<g id="edge82" class="edge"><title>Node22&#45;&gt;Node31</title>
<path fill="none" stroke="midnightblue" d="M852.594,-239.473C895.761,-229.843 960.736,-214.67 1025.27,-196.359"/>
<polygon fill="midnightblue" stroke="midnightblue" points="1026.55,-199.632 1035.2,-193.514 1024.63,-192.903 1026.55,-199.632"/>
</g>
<!-- Node32 -->
<g id="node74" class="node"><title>Node32</title>
<a xlink:href="../../d1/db0/openmp_8h.html" target="_top" xlink:title="blond/openmp.h">
<polygon fill="white" stroke="black" points="690,-174.5 690,-195.5 776,-195.5 776,-174.5 690,-174.5"/>
<text text-anchor="middle" x="733" y="-182.5" font-family="Helvetica,sans-Serif" font-size="10.00">blond/openmp.h</text>
</a>
</g>
<!-- Node22&#45;&gt;Node32 -->
<g id="edge84" class="edge"><title>Node22&#45;&gt;Node32</title>
<path fill="none" stroke="midnightblue" d="M792.276,-239.267C781.316,-229.233 764.762,-214.078 751.931,-202.331"/>
<polygon fill="midnightblue" stroke="midnightblue" points="754.245,-199.705 744.506,-195.534 749.519,-204.868 754.245,-199.705"/>
</g>
<!-- Node25 -->
<g id="node55" class="node"><title>Node25</title>
<a xlink:href="../../df/de1/vdtcore__common_8h.html" target="_top" xlink:title="vdtcore_common.h">
<polygon fill="white" stroke="black" points="1167,-58.5 1167,-79.5 1267,-79.5 1267,-58.5 1167,-58.5"/>
<text text-anchor="middle" x="1217" y="-66.5" font-family="Helvetica,sans-Serif" font-size="10.00">vdtcore_common.h</text>
</a>
</g>
<!-- Node24&#45;&gt;Node25 -->
<g id="edge60" class="edge"><title>Node24&#45;&gt;Node25</title>
<path fill="none" stroke="midnightblue" d="M936.854,-175.806C939.602,-175.16 942.342,-174.548 945,-174 1049.34,-152.473 1095.66,-200.429 1182,-138 1198.01,-126.425 1207.17,-105.379 1212.08,-89.5621"/>
<polygon fill="midnightblue" stroke="midnightblue" points="1215.53,-90.1996 1214.82,-79.6287 1208.78,-88.3354 1215.53,-90.1996"/>
</g>
<!-- Node24&#45;&gt;Node27 -->
<g id="edge64" class="edge"><title>Node24&#45;&gt;Node27</title>
<path fill="none" stroke="midnightblue" d="M911.254,-174.362C917.47,-166.35 926.151,-155.161 933.515,-145.67"/>
<polygon fill="midnightblue" stroke="midnightblue" points="936.434,-147.617 939.799,-137.571 930.903,-143.326 936.434,-147.617"/>
</g>
<!-- Node25&#45;&gt;Node26 -->
<g id="edge62" class="edge"><title>Node25&#45;&gt;Node26</title>
<path fill="none" stroke="midnightblue" d="M1217,-58.3619C1217,-50.9219 1217,-40.7427 1217,-31.7276"/>
<polygon fill="midnightblue" stroke="midnightblue" points="1220.5,-31.5706 1217,-21.5707 1213.5,-31.5707 1220.5,-31.5706"/>
</g>
<!-- Node29 -->
<g id="node63" class="node"><title>Node29</title>
<a xlink:href="../../dc/dfa/sincos_8h.html" target="_top" xlink:title="sincos.h">
<polygon fill="white" stroke="black" points="1283.5,-116.5 1283.5,-137.5 1336.5,-137.5 1336.5,-116.5 1283.5,-116.5"/>
<text text-anchor="middle" x="1310" y="-124.5" font-family="Helvetica,sans-Serif" font-size="10.00">sincos.h</text>
</a>
</g>
<!-- Node28&#45;&gt;Node29 -->
<g id="edge68" class="edge"><title>Node28&#45;&gt;Node29</title>
<path fill="none" stroke="midnightblue" d="M1018.16,-176.055C1021.14,-175.322 1024.12,-174.624 1027,-174 1114.62,-155.018 1218.93,-139.494 1273.15,-131.949"/>
<polygon fill="midnightblue" stroke="midnightblue" points="1273.88,-135.382 1283.3,-130.547 1272.92,-128.447 1273.88,-135.382"/>
</g>
<!-- Node29&#45;&gt;Node25 -->
<g id="edge70" class="edge"><title>Node29&#45;&gt;Node25</title>
<path fill="none" stroke="midnightblue" d="M1292.94,-116.362C1278.92,-107.614 1258.82,-95.0786 1242.82,-85.1015"/>
<polygon fill="midnightblue" stroke="midnightblue" points="1244.29,-81.8927 1233.95,-79.5707 1240.58,-87.8323 1244.29,-81.8927"/>
</g>
<!-- Node29&#45;&gt;Node26 -->
<g id="edge72" class="edge"><title>Node29&#45;&gt;Node26</title>
<path fill="none" stroke="midnightblue" d="M1306.43,-116.36C1301.28,-102.054 1290.74,-76.3059 1276,-58 1266.51,-46.2147 1253.57,-35.4932 1242.22,-27.2761"/>
<polygon fill="midnightblue" stroke="midnightblue" points="1244.15,-24.3512 1233.94,-21.5045 1240.14,-30.094 1244.15,-24.3512"/>
</g>
<!-- Node33&#45;&gt;Node6 -->
<g id="edge88" class="edge"><title>Node33&#45;&gt;Node6</title>
<path fill="none" stroke="midnightblue" d="M145.41,-239.097C133.689,-224.267 111.971,-196.952 93,-174 85.1369,-164.487 76.2516,-154.019 68.8559,-145.382"/>
<polygon fill="midnightblue" stroke="midnightblue" points="71.4741,-143.059 62.3035,-137.753 66.1637,-147.619 71.4741,-143.059"/>
</g>
<!-- Node34&#45;&gt;Node6 -->
<g id="edge96" class="edge"><title>Node34&#45;&gt;Node6</title>
<path fill="none" stroke="midnightblue" d="M181.464,-376.468C162.315,-356.788 121.61,-312.399 98,-268 76.6985,-227.943 63.3744,-176.069 57.1566,-147.733"/>
<polygon fill="midnightblue" stroke="midnightblue" points="60.5446,-146.837 55.054,-137.776 53.6956,-148.283 60.5446,-146.837"/>
</g>
<!-- Node34&#45;&gt;Node9 -->
<g id="edge98" class="edge"><title>Node34&#45;&gt;Node9</title>
<path fill="none" stroke="midnightblue" d="M197.16,-376.245C213.676,-341.905 264.539,-236.852 271,-232 301.095,-209.4 402.978,-195.874 465.798,-189.483"/>
<polygon fill="midnightblue" stroke="midnightblue" points="466.301,-192.951 475.907,-188.482 465.611,-185.985 466.301,-192.951"/>
</g>
<!-- Node34&#45;&gt;Node21 -->
<g id="edge100" class="edge"><title>Node34&#45;&gt;Node21</title>
<path fill="none" stroke="midnightblue" d="M219.04,-376.412C242.234,-367.33 276.341,-353.975 304.959,-342.769"/>
<polygon fill="midnightblue" stroke="midnightblue" points="306.395,-345.966 314.43,-339.06 303.843,-339.448 306.395,-345.966"/>
</g>
<!-- Node35 -->
<g id="node86" class="node"><title>Node35</title>
<polygon fill="white" stroke="#bfbfbf" points="170.5,-311.5 170.5,-332.5 205.5,-332.5 205.5,-311.5 170.5,-311.5"/>
<text text-anchor="middle" x="188" y="-319.5" font-family="Helvetica,sans-Serif" font-size="10.00">map</text>
</g>
<!-- Node34&#45;&gt;Node35 -->
<g id="edge102" class="edge"><title>Node34&#45;&gt;Node35</title>
<path fill="none" stroke="midnightblue" d="M191.339,-376.267C190.78,-367.18 189.963,-353.892 189.276,-342.74"/>
<polygon fill="midnightblue" stroke="midnightblue" points="192.756,-342.3 188.648,-332.534 185.769,-342.73 192.756,-342.3"/>
</g>
<!-- Node36&#45;&gt;Node6 -->
<g id="edge116" class="edge"><title>Node36&#45;&gt;Node6</title>
<path fill="none" stroke="midnightblue" d="M537.354,-239.407C440.178,-216.854 213.165,-164.17 108.124,-139.793"/>
<polygon fill="midnightblue" stroke="midnightblue" points="108.88,-136.376 98.3481,-137.524 107.298,-143.194 108.88,-136.376"/>
</g>
<!-- Node36&#45;&gt;Node8 -->
<g id="edge120" class="edge"><title>Node36&#45;&gt;Node8</title>
<path fill="none" stroke="midnightblue" d="M584.274,-239.233C586.864,-222.475 594.369,-190.379 615,-174 689.163,-115.12 763.959,-210.396 825,-138 836.062,-124.881 834.432,-104.842 830.85,-89.7333"/>
<polygon fill="midnightblue" stroke="midnightblue" points="834.126,-88.4526 828.05,-79.7728 827.387,-90.3468 834.126,-88.4526"/>
</g>
<!-- Node36&#45;&gt;Node9 -->
<g id="edge118" class="edge"><title>Node36&#45;&gt;Node9</title>
<path fill="none" stroke="midnightblue" d="M572.101,-239.267C562.01,-229.328 546.815,-214.363 534.936,-202.664"/>
<polygon fill="midnightblue" stroke="midnightblue" points="537.277,-200.057 527.696,-195.534 532.365,-205.044 537.277,-200.057"/>
</g>
<!-- Node37&#45;&gt;Node8 -->
<g id="edge130" class="edge"><title>Node37&#45;&gt;Node8</title>
<path fill="none" stroke="midnightblue" d="M1193.69,-239.487C1200.81,-229.054 1210.9,-212.305 1215,-196 1224.38,-158.7 1213.92,-137.463 1182,-116 1129.09,-80.4183 934.202,-71.7076 856.394,-69.6305"/>
<polygon fill="midnightblue" stroke="midnightblue" points="856.303,-66.1273 846.219,-69.3793 856.13,-73.1251 856.303,-66.1273"/>
</g>
<!-- Node37&#45;&gt;Node14 -->
<g id="edge132" class="edge"><title>Node37&#45;&gt;Node14</title>
<path fill="none" stroke="midnightblue" d="M1186.16,-239.355C1185.85,-223.333 1183,-192.89 1167,-174 1148.96,-152.699 1119.45,-140.751 1095.84,-134.238"/>
<polygon fill="midnightblue" stroke="midnightblue" points="1096.68,-130.842 1086.13,-131.768 1094.96,-137.626 1096.68,-130.842"/>
</g>
<!-- Node37&#45;&gt;Node15 -->
<g id="edge134" class="edge"><title>Node37&#45;&gt;Node15</title>
<path fill="none" stroke="midnightblue" d="M1191.62,-239.492C1198.89,-224.417 1209.53,-196.043 1200,-174 1194.88,-162.16 1185.15,-151.927 1175.62,-144.06"/>
<polygon fill="midnightblue" stroke="midnightblue" points="1177.48,-141.081 1167.42,-137.775 1173.22,-146.637 1177.48,-141.081"/>
</g>
<!-- Node37&#45;&gt;Node23 -->
<g id="edge124" class="edge"><title>Node37&#45;&gt;Node23</title>
<path fill="none" stroke="midnightblue" d="M1176.75,-239.267C1168.35,-229.517 1155.79,-214.932 1145.8,-203.336"/>
<polygon fill="midnightblue" stroke="midnightblue" points="1148.25,-200.825 1139.08,-195.534 1142.95,-205.394 1148.25,-200.825"/>
</g>
<!-- Node37&#45;&gt;Node31 -->
<g id="edge128" class="edge"><title>Node37&#45;&gt;Node31</title>
<path fill="none" stroke="midnightblue" d="M1165.48,-239.412C1144.88,-228.788 1112.96,-212.318 1089.62,-200.28"/>
<polygon fill="midnightblue" stroke="midnightblue" points="1091.01,-197.058 1080.52,-195.584 1087.8,-203.279 1091.01,-197.058"/>
</g>
<!-- Node38 -->
<g id="node101" class="node"><title>Node38</title>
<polygon fill="white" stroke="#bfbfbf" points="1289.5,-174.5 1289.5,-195.5 1348.5,-195.5 1348.5,-174.5 1289.5,-174.5"/>
<text text-anchor="middle" x="1319" y="-182.5" font-family="Helvetica,sans-Serif" font-size="10.00">functional</text>
</g>
<!-- Node37&#45;&gt;Node38 -->
<g id="edge126" class="edge"><title>Node37&#45;&gt;Node38</title>
<path fill="none" stroke="midnightblue" d="M1207.66,-239.412C1229.5,-228.741 1263.4,-212.172 1288.06,-200.12"/>
<polygon fill="midnightblue" stroke="midnightblue" points="1289.9,-203.119 1297.34,-195.584 1286.82,-196.83 1289.9,-203.119"/>
</g>
</g>
</svg>
        <g id="navigator" transform="translate(0 0)" fill="#404254">
                <rect fill="#f2f5e9" fill-opacity="0.5" stroke="#606060" stroke-width=".5" x="0" y="0" width="60" height="60"/>
                <use id="zoomplus" xlink:href="#zoomPlus" x="17" y="9" onmousedown="handleZoom(evt,'in')"/>
                <use id="zoomminus" xlink:href="#zoomMin" x="42" y="9" onmousedown="handleZoom(evt,'out')"/>
                <use id="reset" xlink:href="#resetDef" x="30" y="36" onmousedown="handleReset()"/>
                <g id="arrowUp" xlink:href="#dirArrow" transform="translate(30 24)" onmousedown="handlePan(0,-1)">
                  <use xlink:href="#rim" fill="#404040">
                        <set attributeName="fill" to="#808080" begin="arrowUp.mouseover" end="arrowUp.mouseout"/>
                  </use>
                  <path fill="none" stroke="white" stroke-width="1.5" d="M0,-3.0v7 M-2.5,-0.5L0,-3.0L2.5,-0.5"/>
                </g>
                <g id="arrowRight" xlink:href="#dirArrow" transform="rotate(90) translate(36 -43)" onmousedown="handlePan(1,0)">
                  <use xlink:href="#rim" fill="#404040">
                        <set attributeName="fill" to="#808080" begin="arrowRight.mouseover" end="arrowRight.mouseout"/>
                  </use>
                  <path fill="none" stroke="white" stroke-width="1.5" d="M0,-3.0v7 M-2.5,-0.5L0,-3.0L2.5,-0.5"/>
                </g>
                <g id="arrowDown" xlink:href="#dirArrow" transform="rotate(180) translate(-30 -48)" onmousedown="handlePan(0,1)">
                  <use xlink:href="#rim" fill="#404040">
                        <set attributeName="fill" to="#808080" begin="arrowDown.mouseover" end="arrowDown.mouseout"/>
                  </use>
                  <path fill="none" stroke="white" stroke-width="1.5" d="M0,-3.0v7 M-2.5,-0.5L0,-3.0L2.5,-0.5"/>
                </g>
                <g id="arrowLeft" xlink:href="#dirArrow" transform="rotate(270) translate(-36 17)" onmousedown="handlePan(-1,0)">
                  <use xlink:href="#rim" fill="#404040">
                        <set attributeName="fill" to="#808080" begin="arrowLeft.mouseover" end="arrowLeft.mouseout"/>
                  </use>
                  <path fill="none" stroke="white" stroke-width="1.5" d="M0,-3.0v7 M-2.5,-0.5L0,-3.0L2.5,-0.5"/>
                </g>
        </g>
        <svg viewBox="0 0 15 15" width="100%" height="30px" preserveAspectRatio="xMaxYMin meet">
         <g id="arrow_out" transform="scale(0.3 0.3)">
          <a xlink:href="Music_8cpp__incl_org.svg" target="_base">
           <rect id="button" ry="5" rx="5" y="6" x="6" height="38" width="38"
                fill="#f2f5e9" fill-opacity="0.5" stroke="#606060" stroke-width="1.0"/>
           <path id="arrow"
             d="M 11.500037,31.436501 C 11.940474,20.09759 22.043105,11.32322 32.158766,21.979434 L 37.068811,17.246167 C 37.068811,17.246167 37.088388,32 37.088388,32 L 22.160133,31.978069 C 22.160133,31.978069 26.997745,27.140456 26.997745,27.140456 C 18.528582,18.264221 13.291696,25.230495 11.500037,31.436501 z"
             style="fill:#404040;"/>
          </a>
         </g>
        </svg>
</svg>
