<?xml version="1.0" encoding="UTF-8" standalone="no"?>
<!DOCTYPE svg PUBLIC "-//W3C//DTD SVG 1.1//EN"
 "http://www.w3.org/Graphics/SVG/1.1/DTD/svg11.dtd">
<!-- Generated by graphviz version 2.26.3 (20100126.1600)
 -->
<!-- Title: Beams Pages: 1 -->
<!--zoomable 532 -->
<svg id="main" version="1.1" xmlns="http://www.w3.org/2000/svg" xmlns:xlink="http://www.w3.org/1999/xlink" xml:space="preserve" onload="init(evt)">
        <defs>
                <circle id="rim" cx="0" cy="0" r="7"/>
                <circle id="rim2" cx="0" cy="0" r="3.5"/>
                <g id="zoomPlus">
                        <use xlink:href="#rim" fill="#404040">
                                <set attributeName="fill" to="#808080" begin="zoomplus.mouseover" end="zoomplus.mouseout"/>
                        </use>
                        <path d="M-4,0h8M0,-4v8" fill="none" stroke="white" stroke-width="1.5" pointer-events="none"/>
                </g>
                <g id="zoomMin">
                        <use xlink:href="#rim" fill="#404040">
                                <set attributeName="fill" to="#808080" begin="zoomminus.mouseover" end="zoomminus.mouseout"/>
                        </use>
                        <path d="M-4,0h8" fill="none" stroke="white" stroke-width="1.5" pointer-events="none"/>
                </g>
                <g id="dirArrow">
                        <path fill="none" stroke="white" stroke-width="1.5" d="M0,-3.0v7 M-2.5,-0.5L0,-3.0L2.5,-0.5"/>
                </g>
               <g id="resetDef">
                       <use xlink:href="#rim2" fill="#404040">
                               <set attributeName="fill" to="#808080" begin="reset.mouseover" end="reset.mouseout"/>
                       </use>
               </g>
        </defs>

<script type="text/javascript">
var viewWidth = 507;
var viewHeight = 532;
var sectionId = 'dynsection-0';
</script>
<script xlink:href="../../svgpan.js"/>
<svg id="graph" class="graph">
<g id="viewport">
<title>Beams</title>
<polygon fill="white" stroke="white" points="-4,5 -4,-528 504.27,-528 504.27,5 -4,5"/>
<!-- Node1 -->
<g id="node1" class="node"><title>Node1</title>
<polygon fill="#bfbfbf" stroke="black" points="100.77,-1 100.77,-155 233.77,-155 233.77,-1 100.77,-1"/>
<text text-anchor="middle" x="167.27" y="-142" font-family="Helvetica,sans-Serif" font-size="10.00">Beams</text>
<polyline fill="none" stroke="black" points="100.77,-134 233.77,-134 "/>
<text text-anchor="middle" x="167.27" y="-121" font-family="Helvetica,sans-Serif" font-size="10.00"> </text>
<polyline fill="none" stroke="black" points="100.77,-113 233.77,-113 "/>
<text text-anchor="start" x="108.77" y="-100" font-family="Helvetica,sans-Serif" font-size="10.00">+ Beams()</text>
<text text-anchor="start" x="108.77" y="-87" font-family="Helvetica,sans-Serif" font-size="10.00">+ ~Beams()</text>
<text text-anchor="start" x="108.77" y="-74" font-family="Helvetica,sans-Serif" font-size="10.00">+ losses_energy_cut()</text>
<text text-anchor="start" x="108.77" y="-61" font-family="Helvetica,sans-Serif" font-size="10.00">+ losses_longitudinal_cut()</text>
<text text-anchor="start" x="108.77" y="-48" font-family="Helvetica,sans-Serif" font-size="10.00">+ losses_separatrix()</text>
<text text-anchor="start" x="108.77" y="-35" font-family="Helvetica,sans-Serif" font-size="10.00">+ n_macroparticles_alive()</text>
<text text-anchor="start" x="108.77" y="-22" font-family="Helvetica,sans-Serif" font-size="10.00">+ statistics()</text>
<text text-anchor="start" x="108.77" y="-9" font-family="Helvetica,sans-Serif" font-size="10.00">&#45; statistics()</text>
</g>
<!-- Node2 -->
<g id="node2" class="node"><title>Node2</title>
<polygon fill="white" stroke="#bfbfbf" points="11.7705,-346.5 11.7705,-409.5 56.7705,-409.5 56.7705,-346.5 11.7705,-346.5"/>
<text text-anchor="middle" x="34.2705" y="-396.5" font-family="Helvetica,sans-Serif" font-size="10.00">double</text>
<polyline fill="none" stroke="#bfbfbf" points="11.7705,-388.5 56.7705,-388.5 "/>
<text text-anchor="middle" x="34.2705" y="-375.5" font-family="Helvetica,sans-Serif" font-size="10.00"> </text>
<polyline fill="none" stroke="#bfbfbf" points="11.7705,-367.5 56.7705,-367.5 "/>
<text text-anchor="middle" x="34.2705" y="-354.5" font-family="Helvetica,sans-Serif" font-size="10.00"> </text>
</g>
<!-- Node2&#45;&gt;Node1 -->
<g id="edge2" class="edge"><title>Node2&#45;&gt;Node1</title>
<path fill="none" stroke="#404040" d="M19.1988,-346.233C5.6484,-312.901 -9.47811,-259.662 9.27045,-218 26.3762,-179.988 59.4687,-148.119 90.9666,-124.436"/>
<polygon fill="none" stroke="#404040" points="90.979,-124.427 93.4665,-117.659 100.671,-117.352 98.1836,-124.12 90.979,-124.427"/>
<text text-anchor="middle" x="37.7705" y="-287" font-family="Helvetica,sans-Serif" font-size="10.00"> +sigma_dt</text>
<text text-anchor="middle" x="37.7705" y="-274" font-family="Helvetica,sans-Serif" font-size="10.00">+sigma_dE</text>
<text text-anchor="middle" x="37.7705" y="-261" font-family="Helvetica,sans-Serif" font-size="10.00">+ratio</text>
<text text-anchor="middle" x="37.7705" y="-248" font-family="Helvetica,sans-Serif" font-size="10.00">+epsn_rms_l</text>
<text text-anchor="middle" x="37.7705" y="-235" font-family="Helvetica,sans-Serif" font-size="10.00">+mean_dE</text>
<text text-anchor="middle" x="37.7705" y="-222" font-family="Helvetica,sans-Serif" font-size="10.00">+mean_dt</text>
</g>
<!-- Node8 -->
<g id="node15" class="node"><title>Node8</title>
<polygon fill="white" stroke="#bfbfbf" points="286.77,-225.5 286.77,-288.5 389.77,-288.5 389.77,-225.5 286.77,-225.5"/>
<text text-anchor="middle" x="338.27" y="-275.5" font-family="Helvetica,sans-Serif" font-size="10.00">std::vector&lt; ftype &gt;</text>
<polyline fill="none" stroke="#bfbfbf" points="286.77,-267.5 389.77,-267.5 "/>
<text text-anchor="middle" x="338.27" y="-254.5" font-family="Helvetica,sans-Serif" font-size="10.00"> </text>
<polyline fill="none" stroke="#bfbfbf" points="286.77,-246.5 389.77,-246.5 "/>
<text text-anchor="middle" x="338.27" y="-233.5" font-family="Helvetica,sans-Serif" font-size="10.00"> </text>
</g>
<!-- Node2&#45;&gt;Node8 -->
<g id="edge18" class="edge"><title>Node2&#45;&gt;Node8</title>
<path fill="none" stroke="#404040" d="M56.9582,-371.942C100.149,-360.037 196.707,-331.621 273.27,-296 274.646,-295.36 276.03,-294.698 277.418,-294.018"/>
<polygon fill="none" stroke="#404040" points="277.429,-294.013 280.923,-287.705 288.09,-288.503 284.596,-294.811 277.429,-294.013"/>
<text text-anchor="middle" x="252.77" y="-318.5" font-family="Helvetica,sans-Serif" font-size="10.00"> +elements</text>
</g>
<!-- Node3 -->
<g id="node4" class="node"><title>Node3</title>
<polygon fill="white" stroke="#bfbfbf" points="75.2705,-225.5 75.2705,-288.5 131.27,-288.5 131.27,-225.5 75.2705,-225.5"/>
<text text-anchor="middle" x="103.27" y="-275.5" font-family="Helvetica,sans-Serif" font-size="10.00">long long</text>
<polyline fill="none" stroke="#bfbfbf" points="75.2705,-267.5 131.27,-267.5 "/>
<text text-anchor="middle" x="103.27" y="-254.5" font-family="Helvetica,sans-Serif" font-size="10.00"> </text>
<polyline fill="none" stroke="#bfbfbf" points="75.2705,-246.5 131.27,-246.5 "/>
<text text-anchor="middle" x="103.27" y="-233.5" font-family="Helvetica,sans-Serif" font-size="10.00"> </text>
</g>
<!-- Node3&#45;&gt;Node1 -->
<g id="edge4" class="edge"><title>Node3&#45;&gt;Node1</title>
<path fill="none" stroke="#404040" d="M101.075,-225.207C100.917,-209.47 102.142,-190.383 107.27,-174 108.07,-171.447 108.953,-168.895 109.91,-166.35"/>
<polygon fill="none" stroke="#404040" points="109.917,-166.332 108.538,-159.254 114.541,-155.259 115.921,-162.337 109.917,-166.332"/>
<text text-anchor="middle" x="130.27" y="-184.5" font-family="Helvetica,sans-Serif" font-size="10.00"> +intensity</text>
</g>
<!-- Node4 -->
<g id="node6" class="node"><title>Node4</title>
<polygon fill="white" stroke="#bfbfbf" points="191.77,-346.5 191.77,-409.5 220.77,-409.5 220.77,-346.5 191.77,-346.5"/>
<text text-anchor="middle" x="206.27" y="-396.5" font-family="Helvetica,sans-Serif" font-size="10.00">int</text>
<polyline fill="none" stroke="#bfbfbf" points="191.77,-388.5 220.77,-388.5 "/>
<text text-anchor="middle" x="206.27" y="-375.5" font-family="Helvetica,sans-Serif" font-size="10.00"> </text>
<polyline fill="none" stroke="#bfbfbf" points="191.77,-367.5 220.77,-367.5 "/>
<text text-anchor="middle" x="206.27" y="-354.5" font-family="Helvetica,sans-Serif" font-size="10.00"> </text>
</g>
<!-- Node4&#45;&gt;Node1 -->
<g id="edge6" class="edge"><title>Node4&#45;&gt;Node1</title>
<path fill="none" stroke="#404040" d="M192.083,-346.337C186.064,-331.383 179.665,-313.099 176.27,-296 167.964,-254.164 165.224,-206.955 164.76,-167.194"/>
<polygon fill="none" stroke="#404040" points="164.759,-167.107 160.722,-161.132 164.685,-155.107 168.722,-161.082 164.759,-167.107"/>
<text text-anchor="middle" x="227.27" y="-261" font-family="Helvetica,sans-Serif" font-size="10.00"> +n_macroparticles</text>
<text text-anchor="middle" x="227.27" y="-248" font-family="Helvetica,sans-Serif" font-size="10.00">+n_macroparticles_lost</text>
</g>
<!-- Node5 -->
<g id="node8" class="node"><title>Node5</title>
<polygon fill="white" stroke="#bfbfbf" points="407.27,-225.5 407.27,-288.5 499.27,-288.5 499.27,-225.5 407.27,-225.5"/>
<text text-anchor="middle" x="453.27" y="-275.5" font-family="Helvetica,sans-Serif" font-size="10.00">std::vector&lt; int &gt;</text>
<polyline fill="none" stroke="#bfbfbf" points="407.27,-267.5 499.27,-267.5 "/>
<text text-anchor="middle" x="453.27" y="-254.5" font-family="Helvetica,sans-Serif" font-size="10.00"> </text>
<polyline fill="none" stroke="#bfbfbf" points="407.27,-246.5 499.27,-246.5 "/>
<text text-anchor="middle" x="453.27" y="-233.5" font-family="Helvetica,sans-Serif" font-size="10.00"> </text>
</g>
<!-- Node4&#45;&gt;Node5 -->
<g id="edge10" class="edge"><title>Node4&#45;&gt;Node5</title>
<path fill="none" stroke="#404040" d="M221.037,-366.988C240.954,-352.662 278.007,-327.834 313.27,-314 349.219,-299.897 362.898,-311.49 398.27,-296 399.477,-295.472 400.683,-294.915 401.888,-294.332"/>
<polygon fill="none" stroke="#404040" points="402.064,-294.236 405.423,-287.856 412.605,-288.502 409.246,-294.883 402.064,-294.236"/>
<text text-anchor="middle" x="337.77" y="-318.5" font-family="Helvetica,sans-Serif" font-size="10.00"> +elements</text>
</g>
<!-- Node5&#45;&gt;Node1 -->
<g id="edge8" class="edge"><title>Node5&#45;&gt;Node1</title>
<path fill="none" stroke="#404040" d="M409.334,-225.426C405.614,-222.881 401.891,-220.377 398.27,-218 347.715,-184.817 289.477,-149.541 244.125,-122.7"/>
<polygon fill="none" stroke="#404040" points="244.104,-122.687 236.903,-123.081 233.771,-116.586 240.971,-116.192 244.104,-122.687"/>
<text text-anchor="middle" x="375.77" y="-184.5" font-family="Helvetica,sans-Serif" font-size="10.00"> +id</text>
</g>
<!-- Node6 -->
<g id="node11" class="node"><title>Node6</title>
<a xlink:title="STL class.">
<polygon fill="white" stroke="#bfbfbf" points="351.77,-346.5 351.77,-409.5 438.77,-409.5 438.77,-346.5 351.77,-346.5"/>
<text text-anchor="middle" x="395.27" y="-396.5" font-family="Helvetica,sans-Serif" font-size="10.00">std::vector&lt; T &gt;</text>
<polyline fill="none" stroke="#bfbfbf" points="351.77,-388.5 438.77,-388.5 "/>
<text text-anchor="middle" x="395.27" y="-375.5" font-family="Helvetica,sans-Serif" font-size="10.00"> </text>
<polyline fill="none" stroke="#bfbfbf" points="351.77,-367.5 438.77,-367.5 "/>
<text text-anchor="middle" x="395.27" y="-354.5" font-family="Helvetica,sans-Serif" font-size="10.00"> </text>
</a>
</g>
<!-- Node6&#45;&gt;Node5 -->
<g id="edge12" class="edge"><title>Node6&#45;&gt;Node5</title>
<path fill="none" stroke="orange" d="M414.854,-337.145C422.453,-321.291 431.021,-303.417 438.133,-288.579"/>
<polygon fill="orange" stroke="orange" points="411.676,-335.678 410.509,-346.209 417.988,-338.704 411.676,-335.678"/>
<text text-anchor="middle" x="440.27" y="-318.5" font-family="Helvetica,sans-Serif" font-size="10.00"> &lt; int &gt;</text>
</g>
<!-- Node6&#45;&gt;Node8 -->
<g id="edge20" class="edge"><title>Node6&#45;&gt;Node8</title>
<path fill="none" stroke="orange" d="M376.025,-337.145C368.556,-321.291 360.137,-303.417 353.147,-288.579"/>
<polygon fill="orange" stroke="orange" points="372.866,-338.654 380.294,-346.209 379.199,-335.671 372.866,-338.654"/>
<text text-anchor="middle" x="390.77" y="-318.5" font-family="Helvetica,sans-Serif" font-size="10.00"> &lt; ftype &gt;</text>
</g>
<!-- Node7 -->
<g id="node13" class="node"><title>Node7</title>
<polygon fill="white" stroke="#bfbfbf" points="380.77,-460.5 380.77,-523.5 409.77,-523.5 409.77,-460.5 380.77,-460.5"/>
<text text-anchor="middle" x="395.27" y="-510.5" font-family="Helvetica,sans-Serif" font-size="10.00">T</text>
<polyline fill="none" stroke="#bfbfbf" points="380.77,-502.5 409.77,-502.5 "/>
<text text-anchor="middle" x="395.27" y="-489.5" font-family="Helvetica,sans-Serif" font-size="10.00"> </text>
<polyline fill="none" stroke="#bfbfbf" points="380.77,-481.5 409.77,-481.5 "/>
<text text-anchor="middle" x="395.27" y="-468.5" font-family="Helvetica,sans-Serif" font-size="10.00"> </text>
</g>
<!-- Node7&#45;&gt;Node6 -->
<g id="edge14" class="edge"><title>Node7&#45;&gt;Node6</title>
<path fill="none" stroke="#404040" d="M395.27,-460.245C395.27,-448.386 395.27,-434.7 395.27,-421.938"/>
<polygon fill="none" stroke="#404040" points="395.271,-421.585 391.271,-415.585 395.27,-409.585 399.271,-415.585 395.271,-421.585"/>
<text text-anchor="middle" x="419.77" y="-432.5" font-family="Helvetica,sans-Serif" font-size="10.00"> +elements</text>
</g>
<!-- Node8&#45;&gt;Node1 -->
<g id="edge16" class="edge"><title>Node8&#45;&gt;Node1</title>
<path fill="none" stroke="#404040" d="M308.093,-225.41C289.819,-206.281 265.635,-180.967 242.475,-156.723"/>
<polygon fill="none" stroke="#404040" points="242.291,-156.53 235.254,-154.954 234.001,-147.853 241.038,-149.428 242.291,-156.53"/>
<text text-anchor="middle" x="291.77" y="-191" font-family="Helvetica,sans-Serif" font-size="10.00"> +dt</text>
<text text-anchor="middle" x="291.77" y="-178" font-family="Helvetica,sans-Serif" font-size="10.00">+dE</text>
</g>
</g>
</svg>
        <g id="navigator" transform="translate(0 0)" fill="#404254">
                <rect fill="#f2f5e9" fill-opacity="0.5" stroke="#606060" stroke-width=".5" x="0" y="0" width="60" height="60"/>
                <use id="zoomplus" xlink:href="#zoomPlus" x="17" y="9" onmousedown="handleZoom(evt,'in')"/>
                <use id="zoomminus" xlink:href="#zoomMin" x="42" y="9" onmousedown="handleZoom(evt,'out')"/>
                <use id="reset" xlink:href="#resetDef" x="30" y="36" onmousedown="handleReset()"/>
                <g id="arrowUp" xlink:href="#dirArrow" transform="translate(30 24)" onmousedown="handlePan(0,-1)">
                  <use xlink:href="#rim" fill="#404040">
                        <set attributeName="fill" to="#808080" begin="arrowUp.mouseover" end="arrowUp.mouseout"/>
                  </use>
                  <path fill="none" stroke="white" stroke-width="1.5" d="M0,-3.0v7 M-2.5,-0.5L0,-3.0L2.5,-0.5"/>
                </g>
                <g id="arrowRight" xlink:href="#dirArrow" transform="rotate(90) translate(36 -43)" onmousedown="handlePan(1,0)">
                  <use xlink:href="#rim" fill="#404040">
                        <set attributeName="fill" to="#808080" begin="arrowRight.mouseover" end="arrowRight.mouseout"/>
                  </use>
                  <path fill="none" stroke="white" stroke-width="1.5" d="M0,-3.0v7 M-2.5,-0.5L0,-3.0L2.5,-0.5"/>
                </g>
                <g id="arrowDown" xlink:href="#dirArrow" transform="rotate(180) translate(-30 -48)" onmousedown="handlePan(0,1)">
                  <use xlink:href="#rim" fill="#404040">
                        <set attributeName="fill" to="#808080" begin="arrowDown.mouseover" end="arrowDown.mouseout"/>
                  </use>
                  <path fill="none" stroke="white" stroke-width="1.5" d="M0,-3.0v7 M-2.5,-0.5L0,-3.0L2.5,-0.5"/>
                </g>
                <g id="arrowLeft" xlink:href="#dirArrow" transform="rotate(270) translate(-36 17)" onmousedown="handlePan(-1,0)">
                  <use xlink:href="#rim" fill="#404040">
                        <set attributeName="fill" to="#808080" begin="arrowLeft.mouseover" end="arrowLeft.mouseout"/>
                  </use>
                  <path fill="none" stroke="white" stroke-width="1.5" d="M0,-3.0v7 M-2.5,-0.5L0,-3.0L2.5,-0.5"/>
                </g>
        </g>
        <svg viewBox="0 0 15 15" width="100%" height="30px" preserveAspectRatio="xMaxYMin meet">
         <g id="arrow_out" transform="scale(0.3 0.3)">
          <a xlink:href="classBeams__coll__graph_org.svg" target="_base">
           <rect id="button" ry="5" rx="5" y="6" x="6" height="38" width="38"
                fill="#f2f5e9" fill-opacity="0.5" stroke="#606060" stroke-width="1.0"/>
           <path id="arrow"
             d="M 11.500037,31.436501 C 11.940474,20.09759 22.043105,11.32322 32.158766,21.979434 L 37.068811,17.246167 C 37.068811,17.246167 37.088388,32 37.088388,32 L 22.160133,31.978069 C 22.160133,31.978069 26.997745,27.140456 26.997745,27.140456 C 18.528582,18.264221 13.291696,25.230495 11.500037,31.436501 z"
             style="fill:#404040;"/>
          </a>
         </g>
        </svg>
</svg>
