<?xml version="1.0" encoding="UTF-8" standalone="no"?>
<!DOCTYPE svg PUBLIC "-//W3C//DTD SVG 1.1//EN"
 "http://www.w3.org/Graphics/SVG/1.1/DTD/svg11.dtd">
<!-- Generated by graphviz version 2.26.3 (20100126.1600)
 -->
<!-- Title: Beams Pages: 1 -->
<!--zoomable 518 -->
<svg id="main" version="1.1" xmlns="http://www.w3.org/2000/svg" xmlns:xlink="http://www.w3.org/1999/xlink" xml:space="preserve" onload="init(evt)">
        <defs>
                <circle id="rim" cx="0" cy="0" r="7"/>
                <circle id="rim2" cx="0" cy="0" r="3.5"/>
                <g id="zoomPlus">
                        <use xlink:href="#rim" fill="#404040">
                                <set attributeName="fill" to="#808080" begin="zoomplus.mouseover" end="zoomplus.mouseout"/>
                        </use>
                        <path d="M-4,0h8M0,-4v8" fill="none" stroke="white" stroke-width="1.5" pointer-events="none"/>
                </g>
                <g id="zoomMin">
                        <use xlink:href="#rim" fill="#404040">
                                <set attributeName="fill" to="#808080" begin="zoomminus.mouseover" end="zoomminus.mouseout"/>
                        </use>
                        <path d="M-4,0h8" fill="none" stroke="white" stroke-width="1.5" pointer-events="none"/>
                </g>
                <g id="dirArrow">
                        <path fill="none" stroke="white" stroke-width="1.5" d="M0,-3.0v7 M-2.5,-0.5L0,-3.0L2.5,-0.5"/>
                </g>
               <g id="resetDef">
                       <use xlink:href="#rim2" fill="#404040">
                               <set attributeName="fill" to="#808080" begin="reset.mouseover" end="reset.mouseout"/>
                       </use>
               </g>
        </defs>

<script type="text/javascript">
var viewWidth = 508;
var viewHeight = 518;
var sectionId = 'dynsection-0';
</script>
<script xlink:href="../../svgpan.js"/>
<svg id="graph" class="graph">
<g id="viewport">
<title>Beams</title>
<polygon fill="white" stroke="white" points="-4,5 -4,-514 504.611,-514 504.611,5 -4,5"/>
<!-- Node1 -->
<g id="node1" class="node"><title>Node1</title>
<polygon fill="#bfbfbf" stroke="black" points="101.111,-0.5 101.111,-141.5 234.111,-141.5 234.111,-0.5 101.111,-0.5"/>
<text text-anchor="middle" x="167.611" y="-128.5" font-family="Helvetica,sans-Serif" font-size="10.00">Beams</text>
<polyline fill="none" stroke="black" points="101.111,-120.5 234.111,-120.5 "/>
<text text-anchor="middle" x="167.611" y="-107.5" font-family="Helvetica,sans-Serif" font-size="10.00"> </text>
<polyline fill="none" stroke="black" points="101.111,-99.5 234.111,-99.5 "/>
<text text-anchor="start" x="109.111" y="-86.5" font-family="Helvetica,sans-Serif" font-size="10.00">+ Beams()</text>
<text text-anchor="start" x="109.111" y="-73.5" font-family="Helvetica,sans-Serif" font-size="10.00">+ ~Beams()</text>
<text text-anchor="start" x="109.111" y="-60.5" font-family="Helvetica,sans-Serif" font-size="10.00">+ losses_energy_cut()</text>
<text text-anchor="start" x="109.111" y="-47.5" font-family="Helvetica,sans-Serif" font-size="10.00">+ losses_longitudinal_cut()</text>
<text text-anchor="start" x="109.111" y="-34.5" font-family="Helvetica,sans-Serif" font-size="10.00">+ losses_separatrix()</text>
<text text-anchor="start" x="109.111" y="-21.5" font-family="Helvetica,sans-Serif" font-size="10.00">+ n_macroparticles_alive()</text>
<text text-anchor="start" x="109.111" y="-8.5" font-family="Helvetica,sans-Serif" font-size="10.00">+ statistics()</text>
</g>
<!-- Node2 -->
<g id="node2" class="node"><title>Node2</title>
<polygon fill="white" stroke="#bfbfbf" points="12.1115,-332.5 12.1115,-395.5 57.1115,-395.5 57.1115,-332.5 12.1115,-332.5"/>
<text text-anchor="middle" x="34.6115" y="-382.5" font-family="Helvetica,sans-Serif" font-size="10.00">double</text>
<polyline fill="none" stroke="#bfbfbf" points="12.1115,-374.5 57.1115,-374.5 "/>
<text text-anchor="middle" x="34.6115" y="-361.5" font-family="Helvetica,sans-Serif" font-size="10.00"> </text>
<polyline fill="none" stroke="#bfbfbf" points="12.1115,-353.5 57.1115,-353.5 "/>
<text text-anchor="middle" x="34.6115" y="-340.5" font-family="Helvetica,sans-Serif" font-size="10.00"> </text>
</g>
<!-- Node2&#45;&gt;Node1 -->
<g id="edge2" class="edge"><title>Node2&#45;&gt;Node1</title>
<path fill="none" stroke="#404040" d="M19.4556,-332.445C5.69878,-299.053 -9.72337,-245.549 9.61149,-204 26.7426,-167.187 59.6353,-136.917 90.9927,-114.606"/>
<polygon fill="none" stroke="#404040" points="91.2163,-114.452 93.8876,-107.754 101.098,-107.643 98.4266,-114.341 91.2163,-114.452"/>
<text text-anchor="middle" x="38.1115" y="-273" font-family="Helvetica,sans-Serif" font-size="10.00"> +sigma_dt</text>
<text text-anchor="middle" x="38.1115" y="-260" font-family="Helvetica,sans-Serif" font-size="10.00">+sigma_dE</text>
<text text-anchor="middle" x="38.1115" y="-247" font-family="Helvetica,sans-Serif" font-size="10.00">+ratio</text>
<text text-anchor="middle" x="38.1115" y="-234" font-family="Helvetica,sans-Serif" font-size="10.00">+epsn_rms_l</text>
<text text-anchor="middle" x="38.1115" y="-221" font-family="Helvetica,sans-Serif" font-size="10.00">+mean_dE</text>
<text text-anchor="middle" x="38.1115" y="-208" font-family="Helvetica,sans-Serif" font-size="10.00">+mean_dt</text>
</g>
<!-- Node8 -->
<g id="node15" class="node"><title>Node8</title>
<polygon fill="white" stroke="#bfbfbf" points="287.111,-211.5 287.111,-274.5 390.111,-274.5 390.111,-211.5 287.111,-211.5"/>
<text text-anchor="middle" x="338.611" y="-261.5" font-family="Helvetica,sans-Serif" font-size="10.00">std::vector&lt; ftype &gt;</text>
<polyline fill="none" stroke="#bfbfbf" points="287.111,-253.5 390.111,-253.5 "/>
<text text-anchor="middle" x="338.611" y="-240.5" font-family="Helvetica,sans-Serif" font-size="10.00"> </text>
<polyline fill="none" stroke="#bfbfbf" points="287.111,-232.5 390.111,-232.5 "/>
<text text-anchor="middle" x="338.611" y="-219.5" font-family="Helvetica,sans-Serif" font-size="10.00"> </text>
</g>
<!-- Node2&#45;&gt;Node8 -->
<g id="edge18" class="edge"><title>Node2&#45;&gt;Node8</title>
<path fill="none" stroke="#404040" d="M57.2992,-357.942C100.49,-346.037 197.048,-317.621 273.611,-282 274.987,-281.36 276.371,-280.698 277.759,-280.018"/>
<polygon fill="none" stroke="#404040" points="277.77,-280.013 281.264,-273.705 288.431,-274.503 284.937,-280.811 277.77,-280.013"/>
<text text-anchor="middle" x="253.111" y="-304.5" font-family="Helvetica,sans-Serif" font-size="10.00"> +elements</text>
</g>
<!-- Node3 -->
<g id="node4" class="node"><title>Node3</title>
<polygon fill="white" stroke="#bfbfbf" points="75.6115,-211.5 75.6115,-274.5 131.611,-274.5 131.611,-211.5 75.6115,-211.5"/>
<text text-anchor="middle" x="103.611" y="-261.5" font-family="Helvetica,sans-Serif" font-size="10.00">long long</text>
<polyline fill="none" stroke="#bfbfbf" points="75.6115,-253.5 131.611,-253.5 "/>
<text text-anchor="middle" x="103.611" y="-240.5" font-family="Helvetica,sans-Serif" font-size="10.00"> </text>
<polyline fill="none" stroke="#bfbfbf" points="75.6115,-232.5 131.611,-232.5 "/>
<text text-anchor="middle" x="103.611" y="-219.5" font-family="Helvetica,sans-Serif" font-size="10.00"> </text>
</g>
<!-- Node3&#45;&gt;Node1 -->
<g id="edge4" class="edge"><title>Node3&#45;&gt;Node1</title>
<path fill="none" stroke="#404040" d="M101.173,-211.128C100.956,-195.373 102.2,-176.292 107.611,-160 108.415,-157.582 109.303,-155.169 110.265,-152.766"/>
<polygon fill="none" stroke="#404040" points="110.352,-152.573 109.159,-145.461 115.266,-141.625 116.458,-148.737 110.352,-152.573"/>
<text text-anchor="middle" x="130.611" y="-170.5" font-family="Helvetica,sans-Serif" font-size="10.00"> +intensity</text>
</g>
<!-- Node4 -->
<g id="node6" class="node"><title>Node4</title>
<polygon fill="white" stroke="#bfbfbf" points="192.111,-332.5 192.111,-395.5 221.111,-395.5 221.111,-332.5 192.111,-332.5"/>
<text text-anchor="middle" x="206.611" y="-382.5" font-family="Helvetica,sans-Serif" font-size="10.00">int</text>
<polyline fill="none" stroke="#bfbfbf" points="192.111,-374.5 221.111,-374.5 "/>
<text text-anchor="middle" x="206.611" y="-361.5" font-family="Helvetica,sans-Serif" font-size="10.00"> </text>
<polyline fill="none" stroke="#bfbfbf" points="192.111,-353.5 221.111,-353.5 "/>
<text text-anchor="middle" x="206.611" y="-340.5" font-family="Helvetica,sans-Serif" font-size="10.00"> </text>
</g>
<!-- Node4&#45;&gt;Node1 -->
<g id="edge6" class="edge"><title>Node4&#45;&gt;Node1</title>
<path fill="none" stroke="#404040" d="M192.434,-332.335C186.418,-317.38 180.018,-299.097 176.611,-282 168.318,-240.378 165.685,-193.258 165.288,-154.121"/>
<polygon fill="none" stroke="#404040" points="165.287,-153.98 161.26,-147.998 165.233,-141.98 169.26,-147.962 165.287,-153.98"/>
<text text-anchor="middle" x="227.611" y="-247" font-family="Helvetica,sans-Serif" font-size="10.00"> +n_macroparticles</text>
<text text-anchor="middle" x="227.611" y="-234" font-family="Helvetica,sans-Serif" font-size="10.00">+n_macroparticles_lost</text>
</g>
<!-- Node5 -->
<g id="node8" class="node"><title>Node5</title>
<polygon fill="white" stroke="#bfbfbf" points="407.611,-211.5 407.611,-274.5 499.611,-274.5 499.611,-211.5 407.611,-211.5"/>
<text text-anchor="middle" x="453.611" y="-261.5" font-family="Helvetica,sans-Serif" font-size="10.00">std::vector&lt; int &gt;</text>
<polyline fill="none" stroke="#bfbfbf" points="407.611,-253.5 499.611,-253.5 "/>
<text text-anchor="middle" x="453.611" y="-240.5" font-family="Helvetica,sans-Serif" font-size="10.00"> </text>
<polyline fill="none" stroke="#bfbfbf" points="407.611,-232.5 499.611,-232.5 "/>
<text text-anchor="middle" x="453.611" y="-219.5" font-family="Helvetica,sans-Serif" font-size="10.00"> </text>
</g>
<!-- Node4&#45;&gt;Node5 -->
<g id="edge10" class="edge"><title>Node4&#45;&gt;Node5</title>
<path fill="none" stroke="#404040" d="M221.378,-352.988C241.295,-338.662 278.348,-313.834 313.611,-300 349.56,-285.897 363.239,-297.49 398.611,-282 399.818,-281.472 401.024,-280.915 402.229,-280.332"/>
<polygon fill="none" stroke="#404040" points="402.405,-280.236 405.764,-273.856 412.946,-274.502 409.587,-280.883 402.405,-280.236"/>
<text text-anchor="middle" x="338.111" y="-304.5" font-family="Helvetica,sans-Serif" font-size="10.00"> +elements</text>
</g>
<!-- Node5&#45;&gt;Node1 -->
<g id="edge8" class="edge"><title>Node5&#45;&gt;Node1</title>
<path fill="none" stroke="#404040" d="M409.734,-211.337C406.001,-208.811 402.259,-206.336 398.611,-204 348.463,-171.885 290.363,-138.45 244.976,-113.137"/>
<polygon fill="none" stroke="#404040" points="244.804,-113.042 237.616,-113.623 234.316,-107.211 241.503,-106.63 244.804,-113.042"/>
<text text-anchor="middle" x="376.111" y="-170.5" font-family="Helvetica,sans-Serif" font-size="10.00"> +id</text>
</g>
<!-- Node6 -->
<g id="node11" class="node"><title>Node6</title>
<a xlink:title="STL class.">
<polygon fill="white" stroke="#bfbfbf" points="352.111,-332.5 352.111,-395.5 439.111,-395.5 439.111,-332.5 352.111,-332.5"/>
<text text-anchor="middle" x="395.611" y="-382.5" font-family="Helvetica,sans-Serif" font-size="10.00">std::vector&lt; T &gt;</text>
<polyline fill="none" stroke="#bfbfbf" points="352.111,-374.5 439.111,-374.5 "/>
<text text-anchor="middle" x="395.611" y="-361.5" font-family="Helvetica,sans-Serif" font-size="10.00"> </text>
<polyline fill="none" stroke="#bfbfbf" points="352.111,-353.5 439.111,-353.5 "/>
<text text-anchor="middle" x="395.611" y="-340.5" font-family="Helvetica,sans-Serif" font-size="10.00"> </text>
</a>
</g>
<!-- Node6&#45;&gt;Node5 -->
<g id="edge12" class="edge"><title>Node6&#45;&gt;Node5</title>
<path fill="none" stroke="orange" d="M415.195,-323.145C422.794,-307.291 431.362,-289.417 438.474,-274.579"/>
<polygon fill="orange" stroke="orange" points="412.017,-321.678 410.85,-332.209 418.329,-324.704 412.017,-321.678"/>
<text text-anchor="middle" x="440.611" y="-304.5" font-family="Helvetica,sans-Serif" font-size="10.00"> &lt; int &gt;</text>
</g>
<!-- Node6&#45;&gt;Node8 -->
<g id="edge20" class="edge"><title>Node6&#45;&gt;Node8</title>
<path fill="none" stroke="orange" d="M376.366,-323.145C368.897,-307.291 360.478,-289.417 353.488,-274.579"/>
<polygon fill="orange" stroke="orange" points="373.208,-324.654 380.635,-332.209 379.54,-321.671 373.208,-324.654"/>
<text text-anchor="middle" x="391.111" y="-304.5" font-family="Helvetica,sans-Serif" font-size="10.00"> &lt; ftype &gt;</text>
</g>
<!-- Node7 -->
<g id="node13" class="node"><title>Node7</title>
<polygon fill="white" stroke="#bfbfbf" points="381.111,-446.5 381.111,-509.5 410.111,-509.5 410.111,-446.5 381.111,-446.5"/>
<text text-anchor="middle" x="395.611" y="-496.5" font-family="Helvetica,sans-Serif" font-size="10.00">T</text>
<polyline fill="none" stroke="#bfbfbf" points="381.111,-488.5 410.111,-488.5 "/>
<text text-anchor="middle" x="395.611" y="-475.5" font-family="Helvetica,sans-Serif" font-size="10.00"> </text>
<polyline fill="none" stroke="#bfbfbf" points="381.111,-467.5 410.111,-467.5 "/>
<text text-anchor="middle" x="395.611" y="-454.5" font-family="Helvetica,sans-Serif" font-size="10.00"> </text>
</g>
<!-- Node7&#45;&gt;Node6 -->
<g id="edge14" class="edge"><title>Node7&#45;&gt;Node6</title>
<path fill="none" stroke="#404040" d="M395.611,-446.245C395.611,-434.386 395.611,-420.7 395.611,-407.938"/>
<polygon fill="none" stroke="#404040" points="395.612,-407.585 391.612,-401.585 395.611,-395.585 399.612,-401.585 395.612,-407.585"/>
<text text-anchor="middle" x="420.111" y="-418.5" font-family="Helvetica,sans-Serif" font-size="10.00"> +elements</text>
</g>
<!-- Node8&#45;&gt;Node1 -->
<g id="edge16" class="edge"><title>Node8&#45;&gt;Node1</title>
<path fill="none" stroke="#404040" d="M307.247,-211.453C289.122,-193.221 265.483,-169.444 242.822,-146.651"/>
<polygon fill="none" stroke="#404040" points="242.659,-146.487 235.592,-145.052 234.199,-137.977 241.266,-139.412 242.659,-146.487"/>
<text text-anchor="middle" x="287.111" y="-177" font-family="Helvetica,sans-Serif" font-size="10.00"> +dt</text>
<text text-anchor="middle" x="287.111" y="-164" font-family="Helvetica,sans-Serif" font-size="10.00">+dE</text>
</g>
</g>
</svg>
        <g id="navigator" transform="translate(0 0)" fill="#404254">
                <rect fill="#f2f5e9" fill-opacity="0.5" stroke="#606060" stroke-width=".5" x="0" y="0" width="60" height="60"/>
                <use id="zoomplus" xlink:href="#zoomPlus" x="17" y="9" onmousedown="handleZoom(evt,'in')"/>
                <use id="zoomminus" xlink:href="#zoomMin" x="42" y="9" onmousedown="handleZoom(evt,'out')"/>
                <use id="reset" xlink:href="#resetDef" x="30" y="36" onmousedown="handleReset()"/>
                <g id="arrowUp" xlink:href="#dirArrow" transform="translate(30 24)" onmousedown="handlePan(0,-1)">
                  <use xlink:href="#rim" fill="#404040">
                        <set attributeName="fill" to="#808080" begin="arrowUp.mouseover" end="arrowUp.mouseout"/>
                  </use>
                  <path fill="none" stroke="white" stroke-width="1.5" d="M0,-3.0v7 M-2.5,-0.5L0,-3.0L2.5,-0.5"/>
                </g>
                <g id="arrowRight" xlink:href="#dirArrow" transform="rotate(90) translate(36 -43)" onmousedown="handlePan(1,0)">
                  <use xlink:href="#rim" fill="#404040">
                        <set attributeName="fill" to="#808080" begin="arrowRight.mouseover" end="arrowRight.mouseout"/>
                  </use>
                  <path fill="none" stroke="white" stroke-width="1.5" d="M0,-3.0v7 M-2.5,-0.5L0,-3.0L2.5,-0.5"/>
                </g>
                <g id="arrowDown" xlink:href="#dirArrow" transform="rotate(180) translate(-30 -48)" onmousedown="handlePan(0,1)">
                  <use xlink:href="#rim" fill="#404040">
                        <set attributeName="fill" to="#808080" begin="arrowDown.mouseover" end="arrowDown.mouseout"/>
                  </use>
                  <path fill="none" stroke="white" stroke-width="1.5" d="M0,-3.0v7 M-2.5,-0.5L0,-3.0L2.5,-0.5"/>
                </g>
                <g id="arrowLeft" xlink:href="#dirArrow" transform="rotate(270) translate(-36 17)" onmousedown="handlePan(-1,0)">
                  <use xlink:href="#rim" fill="#404040">
                        <set attributeName="fill" to="#808080" begin="arrowLeft.mouseover" end="arrowLeft.mouseout"/>
                  </use>
                  <path fill="none" stroke="white" stroke-width="1.5" d="M0,-3.0v7 M-2.5,-0.5L0,-3.0L2.5,-0.5"/>
                </g>
        </g>
        <svg viewBox="0 0 15 15" width="100%" height="30px" preserveAspectRatio="xMaxYMin meet">
         <g id="arrow_out" transform="scale(0.3 0.3)">
          <a xlink:href="classBeams__coll__graph_org.svg" target="_base">
           <rect id="button" ry="5" rx="5" y="6" x="6" height="38" width="38"
                fill="#f2f5e9" fill-opacity="0.5" stroke="#606060" stroke-width="1.0"/>
           <path id="arrow"
             d="M 11.500037,31.436501 C 11.940474,20.09759 22.043105,11.32322 32.158766,21.979434 L 37.068811,17.246167 C 37.068811,17.246167 37.088388,32 37.088388,32 L 22.160133,31.978069 C 22.160133,31.978069 26.997745,27.140456 26.997745,27.140456 C 18.528582,18.264221 13.291696,25.230495 11.500037,31.436501 z"
             style="fill:#404040;"/>
          </a>
         </g>
        </svg>
</svg>
