<?xml version="1.0" encoding="UTF-8" standalone="no"?>
<!DOCTYPE svg PUBLIC "-//W3C//DTD SVG 1.1//EN"
 "http://www.w3.org/Graphics/SVG/1.1/DTD/svg11.dtd">
<!-- Generated by graphviz version 2.26.3 (20100126.1600)
 -->
<!-- Title: Tracker.h Pages: 1 -->
<!--zoomable 580 -->
<svg id="main" version="1.1" xmlns="http://www.w3.org/2000/svg" xmlns:xlink="http://www.w3.org/1999/xlink" xml:space="preserve" onload="init(evt)">
        <defs>
                <circle id="rim" cx="0" cy="0" r="7"/>
                <circle id="rim2" cx="0" cy="0" r="3.5"/>
                <g id="zoomPlus">
                        <use xlink:href="#rim" fill="#404040">
                                <set attributeName="fill" to="#808080" begin="zoomplus.mouseover" end="zoomplus.mouseout"/>
                        </use>
                        <path d="M-4,0h8M0,-4v8" fill="none" stroke="white" stroke-width="1.5" pointer-events="none"/>
                </g>
                <g id="zoomMin">
                        <use xlink:href="#rim" fill="#404040">
                                <set attributeName="fill" to="#808080" begin="zoomminus.mouseover" end="zoomminus.mouseout"/>
                        </use>
                        <path d="M-4,0h8" fill="none" stroke="white" stroke-width="1.5" pointer-events="none"/>
                </g>
                <g id="dirArrow">
                        <path fill="none" stroke="white" stroke-width="1.5" d="M0,-3.0v7 M-2.5,-0.5L0,-3.0L2.5,-0.5"/>
                </g>
               <g id="resetDef">
                       <use xlink:href="#rim2" fill="#404040">
                               <set attributeName="fill" to="#808080" begin="reset.mouseover" end="reset.mouseout"/>
                       </use>
               </g>
        </defs>

<script type="text/javascript">
var viewWidth = 1726;
var viewHeight = 580;
var sectionId = 'dynsection-0';
</script>
<script xlink:href="../../svgpan.js"/>
<svg id="graph" class="graph">
<g id="viewport">
<title>Tracker.h</title>
<polygon fill="white" stroke="white" points="-4,5 -4,-576 1723,-576 1723,5 -4,5"/>
<!-- Node1 -->
<g id="node1" class="node"><title>Node1</title>
<polygon fill="#bfbfbf" stroke="black" points="1169,-550.5 1169,-571.5 1227,-571.5 1227,-550.5 1169,-550.5"/>
<text text-anchor="middle" x="1198" y="-558.5" font-family="Helvetica,sans-Serif" font-size="10.00">Tracker.h</text>
</g>
<!-- Node2 -->
<g id="node3" class="node"><title>Node2</title>
<a xlink:href="../../dc/df2/Slices_8h.html" target="_top" xlink:title="blond/beams/Slices.h">
<polygon fill="white" stroke="black" points="713,-492.5 713,-513.5 823,-513.5 823,-492.5 713,-492.5"/>
<text text-anchor="middle" x="768" y="-500.5" font-family="Helvetica,sans-Serif" font-size="10.00">blond/beams/Slices.h</text>
</a>
</g>
<!-- Node1&#45;&gt;Node2 -->
<g id="edge2" class="edge"><title>Node1&#45;&gt;Node2</title>
<path fill="none" stroke="midnightblue" d="M1168.78,-557.059C1100.3,-547.822 928.056,-524.589 833.188,-511.793"/>
<polygon fill="midnightblue" stroke="midnightblue" points="833.513,-508.305 823.135,-510.437 832.577,-515.242 833.513,-508.305"/>
</g>
<!-- Node6 -->
<g id="node11" class="node"><title>Node6</title>
<a xlink:href="../../de/df0/utilities_8h.html" target="_top" xlink:title="blond/utilities.h">
<polygon fill="white" stroke="black" points="1115,-174.5 1115,-195.5 1197,-195.5 1197,-174.5 1115,-174.5"/>
<text text-anchor="middle" x="1156" y="-182.5" font-family="Helvetica,sans-Serif" font-size="10.00">blond/utilities.h</text>
</a>
</g>
<!-- Node1&#45;&gt;Node6 -->
<g id="edge152" class="edge"><title>Node1&#45;&gt;Node6</title>
<path fill="none" stroke="midnightblue" d="M1227.07,-560.411C1336.58,-557.419 1718,-539.698 1718,-438 1718,-438 1718,-438 1718,-315 1718,-210.809 1346.71,-190.107 1207.71,-186.008"/>
<polygon fill="midnightblue" stroke="midnightblue" points="1207.42,-182.498 1197.33,-185.72 1207.22,-189.496 1207.42,-182.498"/>
</g>
<!-- Node36 -->
<g id="node91" class="node"><title>Node36</title>
<a xlink:href="../../d9/dee/InducedVoltage_8h.html" target="_top" xlink:title="blond/impedances/Induced\lVoltage.h">
<polygon fill="white" stroke="black" points="1225.5,-421 1225.5,-455 1358.5,-455 1358.5,-421 1225.5,-421"/>
<text text-anchor="start" x="1233.5" y="-442" font-family="Helvetica,sans-Serif" font-size="10.00">blond/impedances/Induced</text>
<text text-anchor="middle" x="1292" y="-429" font-family="Helvetica,sans-Serif" font-size="10.00">Voltage.h</text>
</a>
</g>
<!-- Node1&#45;&gt;Node36 -->
<g id="edge110" class="edge"><title>Node1&#45;&gt;Node36</title>
<path fill="none" stroke="midnightblue" d="M1206.34,-550.085C1221.1,-530.773 1252.17,-490.112 1272.56,-463.441"/>
<polygon fill="midnightblue" stroke="midnightblue" points="1275.47,-465.388 1278.77,-455.317 1269.91,-461.138 1275.47,-465.388"/>
</g>
<!-- Node38 -->
<g id="node101" class="node"><title>Node38</title>
<a xlink:href="../../d4/dba/LHCNoiseFB_8h.html" target="_top" xlink:title="blond/llrf/LHCNoiseFB.h">
<polygon fill="white" stroke="black" points="1139.5,-362.5 1139.5,-383.5 1262.5,-383.5 1262.5,-362.5 1139.5,-362.5"/>
<text text-anchor="middle" x="1201" y="-370.5" font-family="Helvetica,sans-Serif" font-size="10.00">blond/llrf/LHCNoiseFB.h</text>
</a>
</g>
<!-- Node1&#45;&gt;Node38 -->
<g id="edge126" class="edge"><title>Node1&#45;&gt;Node38</title>
<path fill="none" stroke="midnightblue" d="M1198.17,-550.354C1198.65,-520.172 1200.03,-433.656 1200.67,-393.693"/>
<polygon fill="midnightblue" stroke="midnightblue" points="1204.17,-393.584 1200.83,-383.53 1197.17,-393.472 1204.17,-393.584"/>
</g>
<!-- Node40 -->
<g id="node107" class="node"><title>Node40</title>
<a xlink:href="../../d3/d33/PhaseLoop_8h.html" target="_top" xlink:title="blond/llrf/PhaseLoop.h">
<polygon fill="white" stroke="black" points="1011.5,-427.5 1011.5,-448.5 1124.5,-448.5 1124.5,-427.5 1011.5,-427.5"/>
<text text-anchor="middle" x="1068" y="-435.5" font-family="Helvetica,sans-Serif" font-size="10.00">blond/llrf/PhaseLoop.h</text>
</a>
</g>
<!-- Node1&#45;&gt;Node40 -->
<g id="edge134" class="edge"><title>Node1&#45;&gt;Node40</title>
<path fill="none" stroke="midnightblue" d="M1186.46,-550.085C1163.95,-528.787 1114,-481.52 1086.7,-455.692"/>
<polygon fill="midnightblue" stroke="midnightblue" points="1088.99,-453.046 1079.33,-448.715 1084.18,-458.131 1088.99,-453.046"/>
</g>
<!-- Node3 -->
<g id="node5" class="node"><title>Node3</title>
<a xlink:href="../../d2/d2c/configuration_8h.html" target="_top" xlink:title="blond/configuration.h">
<polygon fill="white" stroke="black" points="589.5,-116.5 589.5,-137.5 696.5,-137.5 696.5,-116.5 589.5,-116.5"/>
<text text-anchor="middle" x="643" y="-124.5" font-family="Helvetica,sans-Serif" font-size="10.00">blond/configuration.h</text>
</a>
</g>
<!-- Node2&#45;&gt;Node3 -->
<g id="edge4" class="edge"><title>Node2&#45;&gt;Node3</title>
<path fill="none" stroke="midnightblue" d="M712.838,-496.711C565.874,-479.215 176,-427.652 176,-373 176,-373 176,-373 176,-250 176,-215.183 168.714,-196.831 195,-174 223.406,-149.328 462.266,-135.19 579.121,-129.69"/>
<polygon fill="midnightblue" stroke="midnightblue" points="579.531,-133.175 589.359,-129.216 579.207,-126.183 579.531,-133.175"/>
</g>
<!-- Node2&#45;&gt;Node6 -->
<g id="edge10" class="edge"><title>Node2&#45;&gt;Node6</title>
<path fill="none" stroke="midnightblue" d="M712.784,-497.574C641.36,-487.161 526,-457.296 526,-373 526,-373 526,-373 526,-315 526,-304.454 460.896,-297.941 695,-232 770.895,-210.622 1000.84,-194.427 1104.43,-188.011"/>
<polygon fill="midnightblue" stroke="midnightblue" points="1104.88,-191.49 1114.65,-187.385 1104.45,-184.503 1104.88,-191.49"/>
</g>
<!-- Node19 -->
<g id="node39" class="node"><title>Node19</title>
<a xlink:href="../../d6/db7/RfParameters_8h.html" target="_top" xlink:title="blond/input_parameters\l/RfParameters.h">
<polygon fill="white" stroke="black" points="662,-421 662,-455 780,-455 780,-421 662,-421"/>
<text text-anchor="start" x="670" y="-442" font-family="Helvetica,sans-Serif" font-size="10.00">blond/input_parameters</text>
<text text-anchor="middle" x="721" y="-429" font-family="Helvetica,sans-Serif" font-size="10.00">/RfParameters.h</text>
</a>
</g>
<!-- Node2&#45;&gt;Node19 -->
<g id="edge40" class="edge"><title>Node2&#45;&gt;Node19</title>
<path fill="none" stroke="midnightblue" d="M760.239,-492.267C754.535,-484.379 746.543,-473.325 739.258,-463.251"/>
<polygon fill="midnightblue" stroke="midnightblue" points="742.067,-461.163 733.372,-455.11 736.395,-465.264 742.067,-461.163"/>
</g>
<!-- Node35 -->
<g id="node89" class="node"><title>Node35</title>
<polygon fill="white" stroke="#bfbfbf" points="797.5,-427.5 797.5,-448.5 832.5,-448.5 832.5,-427.5 797.5,-427.5"/>
<text text-anchor="middle" x="815" y="-435.5" font-family="Helvetica,sans-Serif" font-size="10.00">map</text>
</g>
<!-- Node2&#45;&gt;Node35 -->
<g id="edge108" class="edge"><title>Node2&#45;&gt;Node35</title>
<path fill="none" stroke="midnightblue" d="M775.761,-492.267C782.742,-482.612 793.153,-468.215 801.497,-456.675"/>
<polygon fill="midnightblue" stroke="midnightblue" points="804.36,-458.688 807.383,-448.534 798.688,-454.586 804.36,-458.688"/>
</g>
<!-- Node4 -->
<g id="node7" class="node"><title>Node4</title>
<polygon fill="white" stroke="#bfbfbf" points="616.5,-58.5 616.5,-79.5 669.5,-79.5 669.5,-58.5 616.5,-58.5"/>
<text text-anchor="middle" x="643" y="-66.5" font-family="Helvetica,sans-Serif" font-size="10.00">complex</text>
</g>
<!-- Node3&#45;&gt;Node4 -->
<g id="edge6" class="edge"><title>Node3&#45;&gt;Node4</title>
<path fill="none" stroke="midnightblue" d="M643,-116.362C643,-108.922 643,-98.7427 643,-89.7276"/>
<polygon fill="midnightblue" stroke="midnightblue" points="646.5,-89.5706 643,-79.5707 639.5,-89.5707 646.5,-89.5706"/>
</g>
<!-- Node5 -->
<g id="node9" class="node"><title>Node5</title>
<polygon fill="white" stroke="#bfbfbf" points="1582,-58.5 1582,-79.5 1626,-79.5 1626,-58.5 1582,-58.5"/>
<text text-anchor="middle" x="1604" y="-66.5" font-family="Helvetica,sans-Serif" font-size="10.00">vector</text>
</g>
<!-- Node3&#45;&gt;Node5 -->
<g id="edge8" class="edge"><title>Node3&#45;&gt;Node5</title>
<path fill="none" stroke="midnightblue" d="M696.709,-117.053C699.508,-116.666 702.285,-116.311 705,-116 1042.29,-77.4114 1454.45,-70.4699 1571.58,-69.2523"/>
<polygon fill="midnightblue" stroke="midnightblue" points="1571.71,-72.7513 1581.68,-69.1542 1571.64,-65.7516 1571.71,-72.7513"/>
</g>
<!-- Node6&#45;&gt;Node3 -->
<g id="edge34" class="edge"><title>Node6&#45;&gt;Node3</title>
<path fill="none" stroke="midnightblue" d="M1114.94,-176.29C1110.25,-175.443 1105.53,-174.657 1101,-174 929.349,-149.105 881.911,-160.995 706.795,-138.153"/>
<polygon fill="midnightblue" stroke="midnightblue" points="707.098,-134.662 696.725,-136.82 706.179,-141.602 707.098,-134.662"/>
</g>
<!-- Node6&#45;&gt;Node5 -->
<g id="edge30" class="edge"><title>Node6&#45;&gt;Node5</title>
<path fill="none" stroke="midnightblue" d="M1197.19,-183.094C1298.88,-178.024 1555.81,-162.871 1585,-138 1598.78,-126.264 1603.03,-105.548 1604.13,-89.868"/>
<polygon fill="midnightblue" stroke="midnightblue" points="1607.64,-89.6513 1604.47,-79.5415 1600.64,-89.421 1607.64,-89.6513"/>
</g>
<!-- Node7 -->
<g id="node13" class="node"><title>Node7</title>
<polygon fill="white" stroke="#bfbfbf" points="836,-116.5 836,-137.5 882,-137.5 882,-116.5 836,-116.5"/>
<text text-anchor="middle" x="859" y="-124.5" font-family="Helvetica,sans-Serif" font-size="10.00">chrono</text>
</g>
<!-- Node6&#45;&gt;Node7 -->
<g id="edge12" class="edge"><title>Node6&#45;&gt;Node7</title>
<path fill="none" stroke="midnightblue" d="M1114.88,-176.647C1110.2,-175.735 1105.5,-174.836 1101,-174 1010.99,-157.287 984.486,-161.177 892.049,-137.979"/>
<polygon fill="midnightblue" stroke="midnightblue" points="892.841,-134.569 882.287,-135.491 891.113,-141.352 892.841,-134.569"/>
</g>
<!-- Node8 -->
<g id="node15" class="node"><title>Node8</title>
<polygon fill="white" stroke="#bfbfbf" points="899.5,-116.5 899.5,-137.5 942.5,-137.5 942.5,-116.5 899.5,-116.5"/>
<text text-anchor="middle" x="921" y="-124.5" font-family="Helvetica,sans-Serif" font-size="10.00">cstdio</text>
</g>
<!-- Node6&#45;&gt;Node8 -->
<g id="edge14" class="edge"><title>Node6&#45;&gt;Node8</title>
<path fill="none" stroke="midnightblue" d="M1114.87,-176.215C1068.21,-166.143 994.047,-149.799 952.378,-138.121"/>
<polygon fill="midnightblue" stroke="midnightblue" points="953.1,-134.687 942.521,-135.26 951.149,-141.409 953.1,-134.687"/>
</g>
<!-- Node9 -->
<g id="node17" class="node"><title>Node9</title>
<polygon fill="white" stroke="#bfbfbf" points="959.5,-116.5 959.5,-137.5 1004.5,-137.5 1004.5,-116.5 959.5,-116.5"/>
<text text-anchor="middle" x="982" y="-124.5" font-family="Helvetica,sans-Serif" font-size="10.00">cstdlib</text>
</g>
<!-- Node6&#45;&gt;Node9 -->
<g id="edge16" class="edge"><title>Node6&#45;&gt;Node9</title>
<path fill="none" stroke="midnightblue" d="M1123.27,-174.484C1096.28,-165.758 1056.76,-152.861 1014.34,-138.415"/>
<polygon fill="midnightblue" stroke="midnightblue" points="1015.26,-135.032 1004.67,-135.112 1013,-141.656 1015.26,-135.032"/>
</g>
<!-- Node10 -->
<g id="node19" class="node"><title>Node10</title>
<polygon fill="white" stroke="#bfbfbf" points="1022,-116.5 1022,-137.5 1072,-137.5 1072,-116.5 1022,-116.5"/>
<text text-anchor="middle" x="1047" y="-124.5" font-family="Helvetica,sans-Serif" font-size="10.00">fstream</text>
</g>
<!-- Node6&#45;&gt;Node10 -->
<g id="edge18" class="edge"><title>Node6&#45;&gt;Node10</title>
<path fill="none" stroke="midnightblue" d="M1136.26,-174.497C1119.39,-165.519 1094.89,-152.484 1075.83,-142.339"/>
<polygon fill="midnightblue" stroke="midnightblue" points="1077.43,-139.229 1066.96,-137.621 1074.14,-145.409 1077.43,-139.229"/>
</g>
<!-- Node11 -->
<g id="node21" class="node"><title>Node11</title>
<polygon fill="white" stroke="#bfbfbf" points="1090,-116.5 1090,-137.5 1144,-137.5 1144,-116.5 1090,-116.5"/>
<text text-anchor="middle" x="1117" y="-124.5" font-family="Helvetica,sans-Serif" font-size="10.00">iostream</text>
</g>
<!-- Node6&#45;&gt;Node11 -->
<g id="edge20" class="edge"><title>Node6&#45;&gt;Node11</title>
<path fill="none" stroke="midnightblue" d="M1148.85,-174.362C1143.51,-166.431 1136.09,-155.389 1129.75,-145.961"/>
<polygon fill="midnightblue" stroke="midnightblue" points="1132.59,-143.916 1124.11,-137.571 1126.78,-147.822 1132.59,-143.916"/>
</g>
<!-- Node12 -->
<g id="node23" class="node"><title>Node12</title>
<polygon fill="white" stroke="#bfbfbf" points="1161.5,-116.5 1161.5,-137.5 1208.5,-137.5 1208.5,-116.5 1161.5,-116.5"/>
<text text-anchor="middle" x="1185" y="-124.5" font-family="Helvetica,sans-Serif" font-size="10.00">iterator</text>
</g>
<!-- Node6&#45;&gt;Node12 -->
<g id="edge22" class="edge"><title>Node6&#45;&gt;Node12</title>
<path fill="none" stroke="midnightblue" d="M1161.32,-174.362C1165.2,-166.595 1170.58,-155.843 1175.23,-146.546"/>
<polygon fill="midnightblue" stroke="midnightblue" points="1178.37,-148.08 1179.71,-137.571 1172.11,-144.95 1178.37,-148.08"/>
</g>
<!-- Node13 -->
<g id="node25" class="node"><title>Node13</title>
<polygon fill="white" stroke="#bfbfbf" points="1226,-116.5 1226,-137.5 1278,-137.5 1278,-116.5 1226,-116.5"/>
<text text-anchor="middle" x="1252" y="-124.5" font-family="Helvetica,sans-Serif" font-size="10.00">memory</text>
</g>
<!-- Node6&#45;&gt;Node13 -->
<g id="edge24" class="edge"><title>Node6&#45;&gt;Node13</title>
<path fill="none" stroke="midnightblue" d="M1173.61,-174.362C1188.22,-165.532 1209.22,-152.844 1225.81,-142.822"/>
<polygon fill="midnightblue" stroke="midnightblue" points="1227.75,-145.738 1234.5,-137.571 1224.13,-139.746 1227.75,-145.738"/>
</g>
<!-- Node14 -->
<g id="node27" class="node"><title>Node14</title>
<polygon fill="white" stroke="#bfbfbf" points="1296,-116.5 1296,-137.5 1348,-137.5 1348,-116.5 1296,-116.5"/>
<text text-anchor="middle" x="1322" y="-124.5" font-family="Helvetica,sans-Serif" font-size="10.00">sstream</text>
</g>
<!-- Node6&#45;&gt;Node14 -->
<g id="edge26" class="edge"><title>Node6&#45;&gt;Node14</title>
<path fill="none" stroke="midnightblue" d="M1186.06,-174.497C1214.27,-164.642 1256.47,-149.897 1286.36,-139.454"/>
<polygon fill="midnightblue" stroke="midnightblue" points="1287.7,-142.693 1295.98,-136.09 1285.39,-136.085 1287.7,-142.693"/>
</g>
<!-- Node15 -->
<g id="node29" class="node"><title>Node15</title>
<polygon fill="white" stroke="#bfbfbf" points="1365.5,-116.5 1365.5,-137.5 1406.5,-137.5 1406.5,-116.5 1365.5,-116.5"/>
<text text-anchor="middle" x="1386" y="-124.5" font-family="Helvetica,sans-Serif" font-size="10.00">string</text>
</g>
<!-- Node6&#45;&gt;Node15 -->
<g id="edge28" class="edge"><title>Node6&#45;&gt;Node15</title>
<path fill="none" stroke="midnightblue" d="M1197.23,-177.032C1236,-169.169 1295.78,-156.099 1355.28,-138.285"/>
<polygon fill="midnightblue" stroke="midnightblue" points="1356.66,-141.524 1365.21,-135.266 1354.62,-134.826 1356.66,-141.524"/>
</g>
<!-- Node16 -->
<g id="node32" class="node"><title>Node16</title>
<polygon fill="white" stroke="#bfbfbf" points="1424,-116.5 1424,-137.5 1484,-137.5 1484,-116.5 1424,-116.5"/>
<text text-anchor="middle" x="1454" y="-124.5" font-family="Helvetica,sans-Serif" font-size="10.00">sys/stat.h</text>
</g>
<!-- Node6&#45;&gt;Node16 -->
<g id="edge32" class="edge"><title>Node6&#45;&gt;Node16</title>
<path fill="none" stroke="midnightblue" d="M1197.07,-178.789C1246.4,-171.055 1331.82,-156.794 1414.09,-138.06"/>
<polygon fill="midnightblue" stroke="midnightblue" points="1414.88,-141.468 1423.84,-135.814 1413.31,-134.647 1414.88,-141.468"/>
</g>
<!-- Node17 -->
<g id="node35" class="node"><title>Node17</title>
<polygon fill="white" stroke="#bfbfbf" points="1501.5,-116.5 1501.5,-137.5 1576.5,-137.5 1576.5,-116.5 1501.5,-116.5"/>
<text text-anchor="middle" x="1539" y="-124.5" font-family="Helvetica,sans-Serif" font-size="10.00">mm_malloc.h</text>
</g>
<!-- Node6&#45;&gt;Node17 -->
<g id="edge36" class="edge"><title>Node6&#45;&gt;Node17</title>
<path fill="none" stroke="midnightblue" d="M1197.19,-180.549C1259.04,-173.584 1379.73,-158.899 1491.33,-138.192"/>
<polygon fill="midnightblue" stroke="midnightblue" points="1492.22,-141.585 1501.41,-136.301 1490.93,-134.705 1492.22,-141.585"/>
</g>
<!-- Node18 -->
<g id="node37" class="node"><title>Node18</title>
<a xlink:href="../../da/d69/optionparser_8h.html" target="_top" xlink:title="This is the only file required to use The Lean Mean C++ Option Parser. Just #include it and you&#39;re se...">
<polygon fill="white" stroke="black" points="714,-116.5 714,-137.5 818,-137.5 818,-116.5 714,-116.5"/>
<text text-anchor="middle" x="766" y="-124.5" font-family="Helvetica,sans-Serif" font-size="10.00">blond/optionparser.h</text>
</a>
</g>
<!-- Node6&#45;&gt;Node18 -->
<g id="edge38" class="edge"><title>Node6&#45;&gt;Node18</title>
<path fill="none" stroke="midnightblue" d="M1114.91,-176.47C1110.23,-175.591 1105.52,-174.747 1101,-174 983.019,-154.474 950.082,-156.764 828.308,-138.145"/>
<polygon fill="midnightblue" stroke="midnightblue" points="828.633,-134.654 818.216,-136.585 827.564,-141.571 828.633,-134.654"/>
</g>
<!-- Node20 -->
<g id="node41" class="node"><title>Node20</title>
<a xlink:href="../../d7/d74/Beams_8h.html" target="_top" xlink:title="blond/beams/Beams.h">
<polygon fill="white" stroke="black" points="664,-362.5 664,-383.5 778,-383.5 778,-362.5 664,-362.5"/>
<text text-anchor="middle" x="721" y="-370.5" font-family="Helvetica,sans-Serif" font-size="10.00">blond/beams/Beams.h</text>
</a>
</g>
<!-- Node19&#45;&gt;Node20 -->
<g id="edge42" class="edge"><title>Node19&#45;&gt;Node20</title>
<path fill="none" stroke="midnightblue" d="M714.977,-420.922C714.136,-412.67 714.025,-402.692 714.642,-393.982"/>
<polygon fill="midnightblue" stroke="midnightblue" points="718.141,-394.188 715.813,-383.852 711.188,-393.384 718.141,-394.188"/>
</g>
<!-- Node21 -->
<g id="node43" class="node"><title>Node21</title>
<a xlink:href="../../d5/d87/globals_8h.html" target="_top" xlink:title="blond/globals.h">
<polygon fill="white" stroke="black" points="821,-304.5 821,-325.5 903,-325.5 903,-304.5 821,-304.5"/>
<text text-anchor="middle" x="862" y="-312.5" font-family="Helvetica,sans-Serif" font-size="10.00">blond/globals.h</text>
</a>
</g>
<!-- Node19&#45;&gt;Node21 -->
<g id="edge106" class="edge"><title>Node19&#45;&gt;Node21</title>
<path fill="none" stroke="midnightblue" d="M734.841,-420.8C746.671,-410.343 763.464,-396.614 778,-384 797.867,-366.759 819.954,-346.272 836.744,-332.124"/>
<polygon fill="midnightblue" stroke="midnightblue" points="839.023,-334.782 844.528,-325.73 834.58,-329.373 839.023,-334.782"/>
</g>
<!-- Node22 -->
<g id="node45" class="node"><title>Node22</title>
<a xlink:href="../../d5/d34/GeneralParameters_8h.html" target="_top" xlink:title="blond/input_parameters\l/GeneralParameters.h">
<polygon fill="white" stroke="black" points="704,-233 704,-267 822,-267 822,-233 704,-233"/>
<text text-anchor="start" x="712" y="-254" font-family="Helvetica,sans-Serif" font-size="10.00">blond/input_parameters</text>
<text text-anchor="middle" x="763" y="-241" font-family="Helvetica,sans-Serif" font-size="10.00">/GeneralParameters.h</text>
</a>
</g>
<!-- Node19&#45;&gt;Node22 -->
<g id="edge68" class="edge"><title>Node19&#45;&gt;Node22</title>
<path fill="none" stroke="midnightblue" d="M689.187,-420.779C667.95,-406.759 645.516,-385.498 655,-362 669.961,-324.932 703.714,-293.293 729.534,-273.194"/>
<polygon fill="midnightblue" stroke="midnightblue" points="731.746,-275.909 737.605,-267.081 727.52,-270.329 731.746,-275.909"/>
</g>
<!-- Node23 -->
<g id="node58" class="node"><title>Node23</title>
<a xlink:href="../../d2/de2/math__functions_8h.html" target="_top" xlink:title="blond/math_functions.h">
<polygon fill="white" stroke="black" points="357,-239.5 357,-260.5 475,-260.5 475,-239.5 357,-239.5"/>
<text text-anchor="middle" x="416" y="-247.5" font-family="Helvetica,sans-Serif" font-size="10.00">blond/math_functions.h</text>
</a>
</g>
<!-- Node19&#45;&gt;Node23 -->
<g id="edge70" class="edge"><title>Node19&#45;&gt;Node23</title>
<path fill="none" stroke="midnightblue" d="M680.849,-420.987C658.616,-411.073 630.754,-397.825 607,-384 542.452,-346.433 471.807,-293.472 437.33,-266.777"/>
<polygon fill="midnightblue" stroke="midnightblue" points="439.41,-263.961 429.369,-260.581 435.111,-269.485 439.41,-263.961"/>
</g>
<!-- Node34 -->
<g id="node85" class="node"><title>Node34</title>
<a xlink:href="../../d2/d6f/constants_8h.html" target="_top" xlink:title="blond/constants.h">
<polygon fill="white" stroke="black" points="554,-304.5 554,-325.5 648,-325.5 648,-304.5 554,-304.5"/>
<text text-anchor="middle" x="601" y="-312.5" font-family="Helvetica,sans-Serif" font-size="10.00">blond/constants.h</text>
</a>
</g>
<!-- Node19&#45;&gt;Node34 -->
<g id="edge102" class="edge"><title>Node19&#45;&gt;Node34</title>
<path fill="none" stroke="midnightblue" d="M672.871,-420.923C654.694,-412.342 635.228,-400.244 622,-384 610.784,-370.228 605.55,-350.534 603.113,-335.709"/>
<polygon fill="midnightblue" stroke="midnightblue" points="606.541,-334.945 601.741,-325.5 599.604,-335.877 606.541,-334.945"/>
</g>
<!-- Node20&#45;&gt;Node3 -->
<g id="edge60" class="edge"><title>Node20&#45;&gt;Node3</title>
<path fill="none" stroke="midnightblue" d="M717.648,-362.43C705.722,-324.817 665.217,-197.068 649.401,-147.187"/>
<polygon fill="midnightblue" stroke="midnightblue" points="652.698,-146.005 646.339,-137.531 646.025,-148.121 652.698,-146.005"/>
</g>
<!-- Node20&#45;&gt;Node6 -->
<g id="edge62" class="edge"><title>Node20&#45;&gt;Node6</title>
<path fill="none" stroke="midnightblue" d="M732.528,-362.32C749.039,-347.497 780.876,-320.637 812,-304 910.138,-251.541 1036.03,-214.946 1105.06,-197.212"/>
<polygon fill="midnightblue" stroke="midnightblue" points="1105.99,-200.586 1114.82,-194.733 1104.27,-193.802 1105.99,-200.586"/>
</g>
<!-- Node20&#45;&gt;Node19 -->
<g id="edge66" class="edge"><title>Node20&#45;&gt;Node19</title>
<path fill="none" stroke="midnightblue" d="M726.187,-383.852C727.46,-391.195 727.956,-401.242 727.673,-410.688"/>
<polygon fill="midnightblue" stroke="midnightblue" points="724.164,-410.72 727.023,-420.922 731.15,-411.164 724.164,-410.72"/>
</g>
<!-- Node20&#45;&gt;Node21 -->
<g id="edge44" class="edge"><title>Node20&#45;&gt;Node21</title>
<path fill="none" stroke="midnightblue" d="M741.194,-362.497C762.209,-353.164 795.377,-339.445 821.715,-329.147"/>
<polygon fill="midnightblue" stroke="midnightblue" points="823.013,-332.398 831.074,-325.523 820.485,-325.87 823.013,-332.398"/>
</g>
<!-- Node20&#45;&gt;Node22 -->
<g id="edge64" class="edge"><title>Node20&#45;&gt;Node22</title>
<path fill="none" stroke="midnightblue" d="M724.727,-362.085C731.207,-343.108 744.727,-303.514 753.836,-276.838"/>
<polygon fill="midnightblue" stroke="midnightblue" points="757.167,-277.912 757.087,-267.317 750.543,-275.65 757.167,-277.912"/>
</g>
<!-- Node21&#45;&gt;Node2 -->
<g id="edge58" class="edge"><title>Node21&#45;&gt;Node2</title>
<path fill="none" stroke="midnightblue" d="M863.211,-325.568C865.515,-350.492 868.117,-414 841,-456 832.231,-469.581 817.997,-480.032 804.416,-487.592"/>
<polygon fill="midnightblue" stroke="midnightblue" points="802.465,-484.661 795.193,-492.366 805.683,-490.877 802.465,-484.661"/>
</g>
<!-- Node21&#45;&gt;Node19 -->
<g id="edge54" class="edge"><title>Node21&#45;&gt;Node19</title>
<path fill="none" stroke="midnightblue" d="M856.769,-325.969C844.94,-339.763 818.984,-364.054 796,-384 784.189,-394.249 770.889,-405.234 758.707,-414.602"/>
<polygon fill="midnightblue" stroke="midnightblue" points="756.363,-411.986 750.484,-420.8 760.576,-417.576 756.363,-411.986"/>
</g>
<!-- Node21&#45;&gt;Node20 -->
<g id="edge56" class="edge"><title>Node21&#45;&gt;Node20</title>
<path fill="none" stroke="midnightblue" d="M841.541,-325.621C820.582,-334.921 787.73,-348.509 761.545,-358.751"/>
<polygon fill="midnightblue" stroke="midnightblue" points="759.935,-355.621 751.874,-362.497 762.463,-362.148 759.935,-355.621"/>
</g>
<!-- Node21&#45;&gt;Node22 -->
<g id="edge46" class="edge"><title>Node21&#45;&gt;Node22</title>
<path fill="none" stroke="midnightblue" d="M845.652,-304.267C832.677,-295.748 814.079,-283.537 797.809,-272.854"/>
<polygon fill="midnightblue" stroke="midnightblue" points="799.34,-269.673 789.06,-267.11 795.498,-275.524 799.34,-269.673"/>
</g>
<!-- Node22&#45;&gt;Node3 -->
<g id="edge48" class="edge"><title>Node22&#45;&gt;Node3</title>
<path fill="none" stroke="midnightblue" d="M746.572,-232.7C731.841,-217.233 709.593,-193.991 690,-174 680.504,-164.311 669.818,-153.609 661.037,-144.868"/>
<polygon fill="midnightblue" stroke="midnightblue" points="663.45,-142.331 653.889,-137.766 658.516,-147.297 663.45,-142.331"/>
</g>
<!-- Node22&#45;&gt;Node5 -->
<g id="edge52" class="edge"><title>Node22&#45;&gt;Node5</title>
<path fill="none" stroke="midnightblue" d="M705.027,-232.959C635.452,-209.787 533.709,-165.514 581,-116 616.014,-79.3402 1400.85,-70.6953 1571.46,-69.2467"/>
<polygon fill="midnightblue" stroke="midnightblue" points="1571.61,-72.7457 1581.58,-69.1632 1571.55,-65.7459 1571.61,-72.7457"/>
</g>
<!-- Node22&#45;&gt;Node6 -->
<g id="edge50" class="edge"><title>Node22&#45;&gt;Node6</title>
<path fill="none" stroke="midnightblue" d="M822.256,-234.884C826.895,-233.856 831.517,-232.88 836,-232 930.212,-213.51 1041.32,-198.753 1104.73,-190.99"/>
<polygon fill="midnightblue" stroke="midnightblue" points="1105.36,-194.44 1114.87,-189.76 1104.52,-187.491 1105.36,-194.44"/>
</g>
<!-- Node23&#45;&gt;Node3 -->
<g id="edge74" class="edge"><title>Node23&#45;&gt;Node3</title>
<path fill="none" stroke="midnightblue" d="M445.279,-239.488C471.537,-229.612 510.778,-213.729 543,-196 571.493,-180.322 601.939,-158.5 621.649,-143.622"/>
<polygon fill="midnightblue" stroke="midnightblue" points="623.826,-146.364 629.653,-137.515 619.58,-140.798 623.826,-146.364"/>
</g>
<!-- Node23&#45;&gt;Node6 -->
<g id="edge92" class="edge"><title>Node23&#45;&gt;Node6</title>
<path fill="none" stroke="midnightblue" d="M466.152,-239.494C480.871,-236.711 497.034,-233.943 512,-232 731.43,-203.513 995.334,-191.014 1104.68,-186.783"/>
<polygon fill="midnightblue" stroke="midnightblue" points="1104.92,-190.277 1114.78,-186.4 1104.65,-183.282 1104.92,-190.277"/>
</g>
<!-- Node24 -->
<g id="node60" class="node"><title>Node24</title>
<polygon fill="white" stroke="#bfbfbf" points="308,-174.5 308,-195.5 364,-195.5 364,-174.5 308,-174.5"/>
<text text-anchor="middle" x="336" y="-182.5" font-family="Helvetica,sans-Serif" font-size="10.00">algorithm</text>
</g>
<!-- Node23&#45;&gt;Node24 -->
<g id="edge72" class="edge"><title>Node23&#45;&gt;Node24</title>
<path fill="none" stroke="midnightblue" d="M402.79,-239.267C390.325,-229.139 371.436,-213.792 356.923,-202"/>
<polygon fill="midnightblue" stroke="midnightblue" points="358.933,-199.123 348.965,-195.534 354.519,-204.556 358.933,-199.123"/>
</g>
<!-- Node25 -->
<g id="node63" class="node"><title>Node25</title>
<a xlink:href="../../d8/dcd/exp_8h.html" target="_top" xlink:title="blond/exp.h">
<polygon fill="white" stroke="black" points="81.5,-174.5 81.5,-195.5 148.5,-195.5 148.5,-174.5 81.5,-174.5"/>
<text text-anchor="middle" x="115" y="-182.5" font-family="Helvetica,sans-Serif" font-size="10.00">blond/exp.h</text>
</a>
</g>
<!-- Node23&#45;&gt;Node25 -->
<g id="edge76" class="edge"><title>Node23&#45;&gt;Node25</title>
<path fill="none" stroke="midnightblue" d="M367.305,-239.484C309.506,-227.003 213.994,-206.377 158.551,-194.405"/>
<polygon fill="midnightblue" stroke="midnightblue" points="159.196,-190.963 148.682,-192.274 157.718,-197.806 159.196,-190.963"/>
</g>
<!-- Node27 -->
<g id="node67" class="node"><title>Node27</title>
<polygon fill="white" stroke="#bfbfbf" points="91,-0.5 91,-21.5 135,-21.5 135,-0.5 91,-0.5"/>
<text text-anchor="middle" x="113" y="-8.5" font-family="Helvetica,sans-Serif" font-size="10.00">cmath</text>
</g>
<!-- Node23&#45;&gt;Node27 -->
<g id="edge94" class="edge"><title>Node23&#45;&gt;Node27</title>
<path fill="none" stroke="midnightblue" d="M411.972,-239.36C405.605,-223.614 391.96,-193.835 373,-174 304.035,-101.852 196.77,-48.0088 144.193,-24.3165"/>
<polygon fill="midnightblue" stroke="midnightblue" points="145.593,-21.1088 135.034,-20.2459 142.75,-27.5055 145.593,-21.1088"/>
</g>
<!-- Node29 -->
<g id="node71" class="node"><title>Node29</title>
<a xlink:href="../../d1/d3d/sin_8h.html" target="_top" xlink:title="blond/sin.h">
<polygon fill="white" stroke="black" points="0,-174.5 0,-195.5 64,-195.5 64,-174.5 0,-174.5"/>
<text text-anchor="middle" x="32" y="-182.5" font-family="Helvetica,sans-Serif" font-size="10.00">blond/sin.h</text>
</a>
</g>
<!-- Node23&#45;&gt;Node29 -->
<g id="edge84" class="edge"><title>Node23&#45;&gt;Node29</title>
<path fill="none" stroke="midnightblue" d="M356.779,-242.617C290.21,-233.884 178.774,-217.964 73.9477,-196.042"/>
<polygon fill="midnightblue" stroke="midnightblue" points="74.6587,-192.615 64.1511,-193.971 73.2111,-199.464 74.6587,-192.615"/>
</g>
<!-- Node31 -->
<g id="node79" class="node"><title>Node31</title>
<polygon fill="white" stroke="#bfbfbf" points="419.5,-174.5 419.5,-195.5 468.5,-195.5 468.5,-174.5 419.5,-174.5"/>
<text text-anchor="middle" x="444" y="-182.5" font-family="Helvetica,sans-Serif" font-size="10.00">random</text>
</g>
<!-- Node23&#45;&gt;Node31 -->
<g id="edge96" class="edge"><title>Node23&#45;&gt;Node31</title>
<path fill="none" stroke="midnightblue" d="M420.624,-239.267C424.619,-229.991 430.501,-216.336 435.365,-205.045"/>
<polygon fill="midnightblue" stroke="midnightblue" points="438.721,-206.103 439.462,-195.534 432.292,-203.333 438.721,-206.103"/>
</g>
<!-- Node32 -->
<g id="node81" class="node"><title>Node32</title>
<polygon fill="white" stroke="#bfbfbf" points="485.5,-174.5 485.5,-195.5 534.5,-195.5 534.5,-174.5 485.5,-174.5"/>
<text text-anchor="middle" x="510" y="-182.5" font-family="Helvetica,sans-Serif" font-size="10.00">cassert</text>
</g>
<!-- Node23&#45;&gt;Node32 -->
<g id="edge98" class="edge"><title>Node23&#45;&gt;Node32</title>
<path fill="none" stroke="midnightblue" d="M431.522,-239.267C446.442,-228.949 469.195,-213.216 486.367,-201.342"/>
<polygon fill="midnightblue" stroke="midnightblue" points="488.532,-204.1 494.767,-195.534 484.551,-198.343 488.532,-204.1"/>
</g>
<!-- Node33 -->
<g id="node83" class="node"><title>Node33</title>
<a xlink:href="../../d1/db0/openmp_8h.html" target="_top" xlink:title="blond/openmp.h">
<polygon fill="white" stroke="black" points="204,-174.5 204,-195.5 290,-195.5 290,-174.5 204,-174.5"/>
<text text-anchor="middle" x="247" y="-182.5" font-family="Helvetica,sans-Serif" font-size="10.00">blond/openmp.h</text>
</a>
</g>
<!-- Node23&#45;&gt;Node33 -->
<g id="edge100" class="edge"><title>Node23&#45;&gt;Node33</title>
<path fill="none" stroke="midnightblue" d="M388.471,-239.412C360.114,-228.505 315.733,-211.436 284.249,-199.327"/>
<polygon fill="midnightblue" stroke="midnightblue" points="285.107,-195.907 274.517,-195.584 282.594,-202.44 285.107,-195.907"/>
</g>
<!-- Node26 -->
<g id="node65" class="node"><title>Node26</title>
<a xlink:href="../../df/de1/vdtcore__common_8h.html" target="_top" xlink:title="vdtcore_common.h">
<polygon fill="white" stroke="black" points="63,-58.5 63,-79.5 163,-79.5 163,-58.5 63,-58.5"/>
<text text-anchor="middle" x="113" y="-66.5" font-family="Helvetica,sans-Serif" font-size="10.00">vdtcore_common.h</text>
</a>
</g>
<!-- Node25&#45;&gt;Node26 -->
<g id="edge78" class="edge"><title>Node25&#45;&gt;Node26</title>
<path fill="none" stroke="midnightblue" d="M114.815,-174.295C114.485,-155.131 113.787,-114.654 113.359,-89.8434"/>
<polygon fill="midnightblue" stroke="midnightblue" points="116.856,-89.6173 113.184,-79.6792 109.857,-89.7381 116.856,-89.6173"/>
</g>
<!-- Node28 -->
<g id="node69" class="node"><title>Node28</title>
<polygon fill="white" stroke="#bfbfbf" points="141,-116.5 141,-137.5 181,-137.5 181,-116.5 141,-116.5"/>
<text text-anchor="middle" x="161" y="-124.5" font-family="Helvetica,sans-Serif" font-size="10.00">limits</text>
</g>
<!-- Node25&#45;&gt;Node28 -->
<g id="edge82" class="edge"><title>Node25&#45;&gt;Node28</title>
<path fill="none" stroke="midnightblue" d="M123.437,-174.362C129.792,-166.35 138.666,-155.161 146.193,-145.67"/>
<polygon fill="midnightblue" stroke="midnightblue" points="149.145,-147.581 152.616,-137.571 143.66,-143.231 149.145,-147.581"/>
</g>
<!-- Node26&#45;&gt;Node27 -->
<g id="edge80" class="edge"><title>Node26&#45;&gt;Node27</title>
<path fill="none" stroke="midnightblue" d="M113,-58.3619C113,-50.9219 113,-40.7427 113,-31.7276"/>
<polygon fill="midnightblue" stroke="midnightblue" points="116.5,-31.5706 113,-21.5707 109.5,-31.5707 116.5,-31.5706"/>
</g>
<!-- Node30 -->
<g id="node73" class="node"><title>Node30</title>
<a xlink:href="../../dc/dfa/sincos_8h.html" target="_top" xlink:title="sincos.h">
<polygon fill="white" stroke="black" points="8.5,-116.5 8.5,-137.5 61.5,-137.5 61.5,-116.5 8.5,-116.5"/>
<text text-anchor="middle" x="35" y="-124.5" font-family="Helvetica,sans-Serif" font-size="10.00">sincos.h</text>
</a>
</g>
<!-- Node29&#45;&gt;Node30 -->
<g id="edge86" class="edge"><title>Node29&#45;&gt;Node30</title>
<path fill="none" stroke="midnightblue" d="M32.5502,-174.362C32.9351,-166.922 33.4616,-156.743 33.9279,-147.728"/>
<polygon fill="midnightblue" stroke="midnightblue" points="37.4319,-147.738 34.4532,-137.571 30.4413,-147.376 37.4319,-147.738"/>
</g>
<!-- Node30&#45;&gt;Node26 -->
<g id="edge88" class="edge"><title>Node30&#45;&gt;Node26</title>
<path fill="none" stroke="midnightblue" d="M49.3064,-116.362C60.8512,-107.777 77.3004,-95.5459 90.5904,-85.6636"/>
<polygon fill="midnightblue" stroke="midnightblue" points="92.8481,-88.3463 98.7843,-79.5707 88.6712,-82.7291 92.8481,-88.3463"/>
</g>
<!-- Node30&#45;&gt;Node27 -->
<g id="edge90" class="edge"><title>Node30&#45;&gt;Node27</title>
<path fill="none" stroke="midnightblue" d="M35.8775,-116.343C37.4904,-102.02 41.9534,-76.2508 54,-58 62.1058,-45.7195 74.4619,-35.1651 85.7757,-27.1871"/>
<polygon fill="midnightblue" stroke="midnightblue" points="87.765,-30.0674 94.1368,-21.6027 83.877,-24.2464 87.765,-30.0674"/>
</g>
<!-- Node34&#45;&gt;Node3 -->
<g id="edge104" class="edge"><title>Node34&#45;&gt;Node3</title>
<path fill="none" stroke="midnightblue" d="M603.378,-304.354C610.136,-274.107 629.532,-187.285 638.434,-147.437"/>
<polygon fill="midnightblue" stroke="midnightblue" points="641.883,-148.052 640.648,-137.53 635.051,-146.526 641.883,-148.052"/>
</g>
<!-- Node36&#45;&gt;Node3 -->
<g id="edge112" class="edge"><title>Node36&#45;&gt;Node3</title>
<path fill="none" stroke="midnightblue" d="M1290.06,-420.903C1287.62,-404.738 1282.27,-380.299 1271,-362 1221.67,-281.914 1020.33,-181.883 998,-174 877.301,-131.393 836.73,-156.184 706.674,-138.151"/>
<polygon fill="midnightblue" stroke="midnightblue" points="707.138,-134.682 696.74,-136.715 706.136,-141.61 707.138,-134.682"/>
</g>
<!-- Node36&#45;&gt;Node5 -->
<g id="edge124" class="edge"><title>Node36&#45;&gt;Node5</title>
<path fill="none" stroke="midnightblue" d="M1358.7,-430.747C1469.63,-416.81 1680,-381.602 1680,-315 1680,-315 1680,-315 1680,-185 1680,-144.51 1647.2,-107.158 1624.7,-86.2949"/>
<polygon fill="midnightblue" stroke="midnightblue" points="1627.03,-83.681 1617.24,-79.6247 1622.36,-88.8993 1627.03,-83.681"/>
</g>
<!-- Node36&#45;&gt;Node20 -->
<g id="edge114" class="edge"><title>Node36&#45;&gt;Node20</title>
<path fill="none" stroke="midnightblue" d="M1225.38,-430.416C1115.69,-417.93 898.271,-393.18 788.201,-380.65"/>
<polygon fill="midnightblue" stroke="midnightblue" points="788.544,-377.166 778.213,-379.513 787.752,-384.121 788.544,-377.166"/>
</g>
<!-- Node37 -->
<g id="node95" class="node"><title>Node37</title>
<a xlink:href="../../d6/d70/Intensity_8h.html" target="_top" xlink:title="blond/impedances/Intensity.h">
<polygon fill="white" stroke="black" points="1255,-239.5 1255,-260.5 1399,-260.5 1399,-239.5 1255,-239.5"/>
<text text-anchor="middle" x="1327" y="-247.5" font-family="Helvetica,sans-Serif" font-size="10.00">blond/impedances/Intensity.h</text>
</a>
</g>
<!-- Node36&#45;&gt;Node37 -->
<g id="edge116" class="edge"><title>Node36&#45;&gt;Node37</title>
<path fill="none" stroke="midnightblue" d="M1296.11,-420.535C1298.53,-409.984 1301.59,-396.25 1304,-384 1311.86,-344.078 1319.56,-297.165 1323.76,-270.775"/>
<polygon fill="midnightblue" stroke="midnightblue" points="1327.23,-271.225 1325.33,-260.802 1320.31,-270.134 1327.23,-271.225"/>
</g>
<!-- Node37&#45;&gt;Node3 -->
<g id="edge118" class="edge"><title>Node37&#45;&gt;Node3</title>
<path fill="none" stroke="midnightblue" d="M1267.72,-239.427C1222.57,-230.444 1159.3,-215.837 1106,-196 1085.88,-188.513 1083.59,-180.068 1063,-174 912.753,-129.726 865.336,-158.736 706.833,-138.148"/>
<polygon fill="midnightblue" stroke="midnightblue" points="707.107,-134.653 696.729,-136.788 706.173,-141.59 707.107,-134.653"/>
</g>
<!-- Node37&#45;&gt;Node5 -->
<g id="edge122" class="edge"><title>Node37&#45;&gt;Node5</title>
<path fill="none" stroke="midnightblue" d="M1399.06,-243.081C1465.08,-232.489 1559.28,-205.704 1605,-138 1614.49,-123.938 1613.18,-104.317 1610.11,-89.5916"/>
<polygon fill="midnightblue" stroke="midnightblue" points="1613.5,-88.7417 1607.69,-79.8838 1606.71,-90.4333 1613.5,-88.7417"/>
</g>
<!-- Node37&#45;&gt;Node6 -->
<g id="edge120" class="edge"><title>Node37&#45;&gt;Node6</title>
<path fill="none" stroke="midnightblue" d="M1299.15,-239.412C1270.33,-228.458 1225.16,-211.288 1193.28,-199.17"/>
<polygon fill="midnightblue" stroke="midnightblue" points="1194.43,-195.865 1183.84,-195.584 1191.95,-202.408 1194.43,-195.865"/>
</g>
<!-- Node38&#45;&gt;Node3 -->
<g id="edge128" class="edge"><title>Node38&#45;&gt;Node3</title>
<path fill="none" stroke="midnightblue" d="M1178.27,-362.47C1144.25,-345.913 1079.34,-311.182 1035,-268 998.97,-232.911 1014.69,-200.595 972,-174 873.149,-112.413 825.923,-154.041 706.952,-138.156"/>
<polygon fill="midnightblue" stroke="midnightblue" points="707.144,-134.647 696.746,-136.676 706.14,-141.575 707.144,-134.647"/>
</g>
<!-- Node38&#45;&gt;Node6 -->
<g id="edge130" class="edge"><title>Node38&#45;&gt;Node6</title>
<path fill="none" stroke="midnightblue" d="M1203.86,-362.132C1207.02,-348.443 1211.16,-324.26 1207,-304 1199.41,-267.01 1179.82,-227.32 1167.24,-204.404"/>
<polygon fill="midnightblue" stroke="midnightblue" points="1170.29,-202.675 1162.34,-195.667 1164.18,-206.101 1170.29,-202.675"/>
</g>
<!-- Node39 -->
<g id="node105" class="node"><title>Node39</title>
<polygon fill="white" stroke="#bfbfbf" points="1139.5,-304.5 1139.5,-325.5 1198.5,-325.5 1198.5,-304.5 1139.5,-304.5"/>
<text text-anchor="middle" x="1169" y="-312.5" font-family="Helvetica,sans-Serif" font-size="10.00">functional</text>
</g>
<!-- Node38&#45;&gt;Node39 -->
<g id="edge132" class="edge"><title>Node38&#45;&gt;Node39</title>
<path fill="none" stroke="midnightblue" d="M1195.13,-362.362C1190.85,-354.595 1184.91,-343.843 1179.78,-334.546"/>
<polygon fill="midnightblue" stroke="midnightblue" points="1182.73,-332.636 1174.83,-325.571 1176.6,-336.017 1182.73,-332.636"/>
</g>
<!-- Node40&#45;&gt;Node3 -->
<g id="edge136" class="edge"><title>Node40&#45;&gt;Node3</title>
<path fill="none" stroke="midnightblue" d="M1033.73,-427.458C1009.99,-418.794 978.838,-404.573 957,-384 927.307,-356.026 937.596,-335.765 912,-304 881.778,-266.495 870.258,-259.908 831,-232 779.035,-195.058 712.869,-160.736 674.488,-141.939"/>
<polygon fill="midnightblue" stroke="midnightblue" points="675.878,-138.724 665.354,-137.503 672.82,-145.02 675.878,-138.724"/>
</g>
<!-- Node40&#45;&gt;Node6 -->
<g id="edge150" class="edge"><title>Node40&#45;&gt;Node6</title>
<path fill="none" stroke="midnightblue" d="M1073.39,-427.415C1078.75,-416.652 1087.02,-399.41 1093,-384 1117.83,-320.009 1140.4,-241.774 1150.47,-205.402"/>
<polygon fill="midnightblue" stroke="midnightblue" points="1153.91,-206.089 1153.18,-195.52 1147.16,-204.238 1153.91,-206.089"/>
</g>
<!-- Node40&#45;&gt;Node21 -->
<g id="edge138" class="edge"><title>Node40&#45;&gt;Node21</title>
<path fill="none" stroke="midnightblue" d="M1024.14,-427.487C994.189,-418.939 954.546,-404.843 924,-384 904.094,-370.418 886.277,-349.14 874.907,-333.803"/>
<polygon fill="midnightblue" stroke="midnightblue" points="877.666,-331.644 868.99,-325.562 871.979,-335.727 877.666,-331.644"/>
</g>
<!-- Node40&#45;&gt;Node38 -->
<g id="edge140" class="edge"><title>Node40&#45;&gt;Node38</title>
<path fill="none" stroke="midnightblue" d="M1089.66,-427.412C1111.5,-416.741 1145.4,-400.172 1170.06,-388.12"/>
<polygon fill="midnightblue" stroke="midnightblue" points="1171.9,-391.119 1179.34,-383.584 1168.82,-384.83 1171.9,-391.119"/>
</g>
<!-- Node41 -->
<g id="node112" class="node"><title>Node41</title>
<a xlink:href="../../d9/dc8/PhaseNoise_8h.html" target="_top" xlink:title="blond/llrf/PhaseNoise.h">
<polygon fill="white" stroke="black" points="966,-362.5 966,-383.5 1084,-383.5 1084,-362.5 966,-362.5"/>
<text text-anchor="middle" x="1025" y="-370.5" font-family="Helvetica,sans-Serif" font-size="10.00">blond/llrf/PhaseNoise.h</text>
</a>
</g>
<!-- Node40&#45;&gt;Node41 -->
<g id="edge142" class="edge"><title>Node40&#45;&gt;Node41</title>
<path fill="none" stroke="midnightblue" d="M1060.9,-427.267C1054.58,-417.707 1045.17,-403.496 1037.58,-392.015"/>
<polygon fill="midnightblue" stroke="midnightblue" points="1040.4,-389.943 1031.97,-383.534 1034.57,-393.805 1040.4,-389.943"/>
</g>
<!-- Node41&#45;&gt;Node3 -->
<g id="edge144" class="edge"><title>Node41&#45;&gt;Node3</title>
<path fill="none" stroke="midnightblue" d="M1022.42,-362.3C1013.14,-324.637 980.296,-199.113 949,-174 908.423,-141.439 773.776,-146.175 706.882,-138.056"/>
<polygon fill="midnightblue" stroke="midnightblue" points="707.142,-134.559 696.752,-136.635 706.169,-141.491 707.142,-134.559"/>
</g>
<!-- Node41&#45;&gt;Node6 -->
<g id="edge148" class="edge"><title>Node41&#45;&gt;Node6</title>
<path fill="none" stroke="midnightblue" d="M1030.53,-362.236C1043.21,-337.946 1076.04,-277.455 1111,-232 1118.91,-221.717 1128.78,-211.201 1137.26,-202.731"/>
<polygon fill="midnightblue" stroke="midnightblue" points="1139.85,-205.087 1144.56,-195.593 1134.96,-200.082 1139.85,-205.087"/>
</g>
<!-- Node41&#45;&gt;Node21 -->
<g id="edge146" class="edge"><title>Node41&#45;&gt;Node21</title>
<path fill="none" stroke="midnightblue" d="M995.482,-362.497C969.024,-353.082 930.021,-339.204 901,-328.877"/>
<polygon fill="midnightblue" stroke="midnightblue" points="902.168,-325.578 891.573,-325.523 899.821,-332.173 902.168,-325.578"/>
</g>
</g>
</svg>
        <g id="navigator" transform="translate(0 0)" fill="#404254">
                <rect fill="#f2f5e9" fill-opacity="0.5" stroke="#606060" stroke-width=".5" x="0" y="0" width="60" height="60"/>
                <use id="zoomplus" xlink:href="#zoomPlus" x="17" y="9" onmousedown="handleZoom(evt,'in')"/>
                <use id="zoomminus" xlink:href="#zoomMin" x="42" y="9" onmousedown="handleZoom(evt,'out')"/>
                <use id="reset" xlink:href="#resetDef" x="30" y="36" onmousedown="handleReset()"/>
                <g id="arrowUp" xlink:href="#dirArrow" transform="translate(30 24)" onmousedown="handlePan(0,-1)">
                  <use xlink:href="#rim" fill="#404040">
                        <set attributeName="fill" to="#808080" begin="arrowUp.mouseover" end="arrowUp.mouseout"/>
                  </use>
                  <path fill="none" stroke="white" stroke-width="1.5" d="M0,-3.0v7 M-2.5,-0.5L0,-3.0L2.5,-0.5"/>
                </g>
                <g id="arrowRight" xlink:href="#dirArrow" transform="rotate(90) translate(36 -43)" onmousedown="handlePan(1,0)">
                  <use xlink:href="#rim" fill="#404040">
                        <set attributeName="fill" to="#808080" begin="arrowRight.mouseover" end="arrowRight.mouseout"/>
                  </use>
                  <path fill="none" stroke="white" stroke-width="1.5" d="M0,-3.0v7 M-2.5,-0.5L0,-3.0L2.5,-0.5"/>
                </g>
                <g id="arrowDown" xlink:href="#dirArrow" transform="rotate(180) translate(-30 -48)" onmousedown="handlePan(0,1)">
                  <use xlink:href="#rim" fill="#404040">
                        <set attributeName="fill" to="#808080" begin="arrowDown.mouseover" end="arrowDown.mouseout"/>
                  </use>
                  <path fill="none" stroke="white" stroke-width="1.5" d="M0,-3.0v7 M-2.5,-0.5L0,-3.0L2.5,-0.5"/>
                </g>
                <g id="arrowLeft" xlink:href="#dirArrow" transform="rotate(270) translate(-36 17)" onmousedown="handlePan(-1,0)">
                  <use xlink:href="#rim" fill="#404040">
                        <set attributeName="fill" to="#808080" begin="arrowLeft.mouseover" end="arrowLeft.mouseout"/>
                  </use>
                  <path fill="none" stroke="white" stroke-width="1.5" d="M0,-3.0v7 M-2.5,-0.5L0,-3.0L2.5,-0.5"/>
                </g>
        </g>
        <svg viewBox="0 0 15 15" width="100%" height="30px" preserveAspectRatio="xMaxYMin meet">
         <g id="arrow_out" transform="scale(0.3 0.3)">
          <a xlink:href="Tracker_8h__incl_org.svg" target="_base">
           <rect id="button" ry="5" rx="5" y="6" x="6" height="38" width="38"
                fill="#f2f5e9" fill-opacity="0.5" stroke="#606060" stroke-width="1.0"/>
           <path id="arrow"
             d="M 11.500037,31.436501 C 11.940474,20.09759 22.043105,11.32322 32.158766,21.979434 L 37.068811,17.246167 C 37.068811,17.246167 37.088388,32 37.088388,32 L 22.160133,31.978069 C 22.160133,31.978069 26.997745,27.140456 26.997745,27.140456 C 18.528582,18.264221 13.291696,25.230495 11.500037,31.436501 z"
             style="fill:#404040;"/>
          </a>
         </g>
        </svg>
</svg>
