<?xml version="1.0" encoding="UTF-8" standalone="no"?>
<!DOCTYPE svg PUBLIC "-//W3C//DTD SVG 1.1//EN"
 "http://www.w3.org/Graphics/SVG/1.1/DTD/svg11.dtd">
<!-- Generated by graphviz version 2.26.3 (20100126.1600)
 -->
<!-- Title: Intensity Pages: 1 -->
<!--zoomable 480 -->
<svg id="main" version="1.1" xmlns="http://www.w3.org/2000/svg" xmlns:xlink="http://www.w3.org/1999/xlink" xml:space="preserve" onload="init(evt)">
        <defs>
                <circle id="rim" cx="0" cy="0" r="7"/>
                <circle id="rim2" cx="0" cy="0" r="3.5"/>
                <g id="zoomPlus">
                        <use xlink:href="#rim" fill="#404040">
                                <set attributeName="fill" to="#808080" begin="zoomplus.mouseover" end="zoomplus.mouseout"/>
                        </use>
                        <path d="M-4,0h8M0,-4v8" fill="none" stroke="white" stroke-width="1.5" pointer-events="none"/>
                </g>
                <g id="zoomMin">
                        <use xlink:href="#rim" fill="#404040">
                                <set attributeName="fill" to="#808080" begin="zoomminus.mouseover" end="zoomminus.mouseout"/>
                        </use>
                        <path d="M-4,0h8" fill="none" stroke="white" stroke-width="1.5" pointer-events="none"/>
                </g>
                <g id="dirArrow">
                        <path fill="none" stroke="white" stroke-width="1.5" d="M0,-3.0v7 M-2.5,-0.5L0,-3.0L2.5,-0.5"/>
                </g>
               <g id="resetDef">
                       <use xlink:href="#rim2" fill="#404040">
                               <set attributeName="fill" to="#808080" begin="reset.mouseover" end="reset.mouseout"/>
                       </use>
               </g>
        </defs>

<script type="text/javascript">
var viewWidth = 304;
var viewHeight = 480;
var sectionId = 'dynsection-1';
</script>
<script xlink:href="../../svgpan.js"/>
<svg id="graph" class="graph">
<g id="viewport">
<title>Intensity</title>
<polygon fill="white" stroke="white" points="-4,5 -4,-476 301,-476 301,5 -4,5"/>
<!-- Node1 -->
<g id="node1" class="node"><title>Node1</title>
<polygon fill="#bfbfbf" stroke="black" points="118.5,-1 118.5,-103 199.5,-103 199.5,-1 118.5,-1"/>
<text text-anchor="middle" x="159" y="-90" font-family="Helvetica,sans-Serif" font-size="10.00">Intensity</text>
<polyline fill="none" stroke="black" points="118.5,-82 199.5,-82 "/>
<text text-anchor="middle" x="159" y="-69" font-family="Helvetica,sans-Serif" font-size="10.00"> </text>
<polyline fill="none" stroke="black" points="118.5,-61 199.5,-61 "/>
<text text-anchor="start" x="126.5" y="-48" font-family="Helvetica,sans-Serif" font-size="10.00">+ Intensity()</text>
<text text-anchor="start" x="126.5" y="-35" font-family="Helvetica,sans-Serif" font-size="10.00">+ ~Intensity()</text>
<text text-anchor="start" x="126.5" y="-22" font-family="Helvetica,sans-Serif" font-size="10.00">+ imped_calc()</text>
<text text-anchor="start" x="126.5" y="-9" font-family="Helvetica,sans-Serif" font-size="10.00">+ wake_calc()</text>
</g>
<!-- Node2 -->
<g id="node2" class="node"><title>Node2</title>
<polygon fill="white" stroke="#bfbfbf" points="24,-180.5 24,-243.5 150,-243.5 150,-180.5 24,-180.5"/>
<text text-anchor="middle" x="87" y="-230.5" font-family="Helvetica,sans-Serif" font-size="10.00">std::vector&lt; complex_t &gt;</text>
<polyline fill="none" stroke="#bfbfbf" points="24,-222.5 150,-222.5 "/>
<text text-anchor="middle" x="87" y="-209.5" font-family="Helvetica,sans-Serif" font-size="10.00"> </text>
<polyline fill="none" stroke="#bfbfbf" points="24,-201.5 150,-201.5 "/>
<text text-anchor="middle" x="87" y="-188.5" font-family="Helvetica,sans-Serif" font-size="10.00"> </text>
</g>
<!-- Node2&#45;&gt;Node1 -->
<g id="edge2" class="edge"><title>Node2&#45;&gt;Node1</title>
<path fill="none" stroke="#404040" d="M97.2693,-180.273C103.259,-162.811 111.33,-140.91 120,-122 121.199,-119.386 122.458,-116.737 123.76,-114.077"/>
<polygon fill="none" stroke="#404040" points="123.883,-113.836 123.03,-106.675 129.312,-103.134 130.165,-110.294 123.883,-113.836"/>
<text text-anchor="middle" x="150.5" y="-139.5" font-family="Helvetica,sans-Serif" font-size="10.00"> +fImpedance</text>
</g>
<!-- Node3 -->
<g id="node4" class="node"><title>Node3</title>
<a xlink:title="STL class.">
<polygon fill="white" stroke="#bfbfbf" points="-0.5,-294.5 -0.5,-357.5 72.5,-357.5 72.5,-294.5 -0.5,-294.5"/>
<text text-anchor="middle" x="36" y="-344.5" font-family="Helvetica,sans-Serif" font-size="10.00">std::complex</text>
<polyline fill="none" stroke="#bfbfbf" points="-0.5,-336.5 72.5,-336.5 "/>
<text text-anchor="middle" x="36" y="-323.5" font-family="Helvetica,sans-Serif" font-size="10.00"> </text>
<polyline fill="none" stroke="#bfbfbf" points="-0.5,-315.5 72.5,-315.5 "/>
<text text-anchor="middle" x="36" y="-302.5" font-family="Helvetica,sans-Serif" font-size="10.00"> </text>
</a>
</g>
<!-- Node3&#45;&gt;Node2 -->
<g id="edge4" class="edge"><title>Node3&#45;&gt;Node2</title>
<path fill="none" stroke="#404040" d="M31.8204,-294.416C31.6123,-283.758 32.754,-272.028 37,-262 38.2145,-259.131 39.6795,-256.34 41.3334,-253.639"/>
<polygon fill="none" stroke="#404040" points="41.49,-253.423 41.7622,-246.217 48.5186,-243.697 48.2464,-250.903 41.49,-253.423"/>
<text text-anchor="middle" x="61.5" y="-266.5" font-family="Helvetica,sans-Serif" font-size="10.00"> +elements</text>
</g>
<!-- Node4 -->
<g id="node6" class="node"><title>Node4</title>
<a xlink:title="STL class.">
<polygon fill="white" stroke="#bfbfbf" points="113.5,-294.5 113.5,-357.5 200.5,-357.5 200.5,-294.5 113.5,-294.5"/>
<text text-anchor="middle" x="157" y="-344.5" font-family="Helvetica,sans-Serif" font-size="10.00">std::vector&lt; T &gt;</text>
<polyline fill="none" stroke="#bfbfbf" points="113.5,-336.5 200.5,-336.5 "/>
<text text-anchor="middle" x="157" y="-323.5" font-family="Helvetica,sans-Serif" font-size="10.00"> </text>
<polyline fill="none" stroke="#bfbfbf" points="113.5,-315.5 200.5,-315.5 "/>
<text text-anchor="middle" x="157" y="-302.5" font-family="Helvetica,sans-Serif" font-size="10.00"> </text>
</a>
</g>
<!-- Node4&#45;&gt;Node2 -->
<g id="edge6" class="edge"><title>Node4&#45;&gt;Node2</title>
<path fill="none" stroke="orange" d="M120.216,-286.533C117.633,-283.074 115.189,-279.541 113,-276 106.819,-266.003 101.56,-254.282 97.4233,-243.62"/>
<polygon fill="orange" stroke="orange" points="117.504,-288.746 126.442,-294.434 123.002,-284.414 117.504,-288.746"/>
<text text-anchor="middle" x="146.5" y="-266.5" font-family="Helvetica,sans-Serif" font-size="10.00"> &lt; complex_t &gt;</text>
</g>
<!-- Node6 -->
<g id="node10" class="node"><title>Node6</title>
<polygon fill="white" stroke="#bfbfbf" points="167.5,-180.5 167.5,-243.5 270.5,-243.5 270.5,-180.5 167.5,-180.5"/>
<text text-anchor="middle" x="219" y="-230.5" font-family="Helvetica,sans-Serif" font-size="10.00">std::vector&lt; ftype &gt;</text>
<polyline fill="none" stroke="#bfbfbf" points="167.5,-222.5 270.5,-222.5 "/>
<text text-anchor="middle" x="219" y="-209.5" font-family="Helvetica,sans-Serif" font-size="10.00"> </text>
<polyline fill="none" stroke="#bfbfbf" points="167.5,-201.5 270.5,-201.5 "/>
<text text-anchor="middle" x="219" y="-188.5" font-family="Helvetica,sans-Serif" font-size="10.00"> </text>
</g>
<!-- Node4&#45;&gt;Node6 -->
<g id="edge14" class="edge"><title>Node4&#45;&gt;Node6</title>
<path fill="none" stroke="orange" d="M179.057,-285.444C186.538,-271.689 194.778,-256.536 201.822,-243.585"/>
<polygon fill="orange" stroke="orange" points="175.974,-283.788 174.27,-294.245 182.123,-287.132 175.974,-283.788"/>
<text text-anchor="middle" x="212.5" y="-266.5" font-family="Helvetica,sans-Serif" font-size="10.00"> &lt; ftype &gt;</text>
</g>
<!-- Node5 -->
<g id="node8" class="node"><title>Node5</title>
<polygon fill="white" stroke="#bfbfbf" points="142.5,-408.5 142.5,-471.5 171.5,-471.5 171.5,-408.5 142.5,-408.5"/>
<text text-anchor="middle" x="157" y="-458.5" font-family="Helvetica,sans-Serif" font-size="10.00">T</text>
<polyline fill="none" stroke="#bfbfbf" points="142.5,-450.5 171.5,-450.5 "/>
<text text-anchor="middle" x="157" y="-437.5" font-family="Helvetica,sans-Serif" font-size="10.00"> </text>
<polyline fill="none" stroke="#bfbfbf" points="142.5,-429.5 171.5,-429.5 "/>
<text text-anchor="middle" x="157" y="-416.5" font-family="Helvetica,sans-Serif" font-size="10.00"> </text>
</g>
<!-- Node5&#45;&gt;Node4 -->
<g id="edge8" class="edge"><title>Node5&#45;&gt;Node4</title>
<path fill="none" stroke="#404040" d="M157,-408.245C157,-396.386 157,-382.7 157,-369.938"/>
<polygon fill="none" stroke="#404040" points="157,-369.585 153,-363.585 157,-357.585 161,-363.585 157,-369.585"/>
<text text-anchor="middle" x="181.5" y="-380.5" font-family="Helvetica,sans-Serif" font-size="10.00"> +elements</text>
</g>
<!-- Node6&#45;&gt;Node1 -->
<g id="edge10" class="edge"><title>Node6&#45;&gt;Node1</title>
<path fill="none" stroke="#404040" d="M207.146,-180.389C200.076,-161.535 190.851,-136.937 182.371,-114.323"/>
<polygon fill="none" stroke="#404040" points="182.364,-114.304 176.512,-110.091 178.151,-103.068 184.003,-107.282 182.364,-114.304"/>
<text text-anchor="middle" x="228" y="-152.5" font-family="Helvetica,sans-Serif" font-size="10.00"> +fTimeArray</text>
<text text-anchor="middle" x="228" y="-139.5" font-family="Helvetica,sans-Serif" font-size="10.00">+fFreqArray</text>
<text text-anchor="middle" x="228" y="-126.5" font-family="Helvetica,sans-Serif" font-size="10.00">+fWake</text>
</g>
<!-- Node7 -->
<g id="node12" class="node"><title>Node7</title>
<polygon fill="white" stroke="#bfbfbf" points="241.5,-294.5 241.5,-357.5 286.5,-357.5 286.5,-294.5 241.5,-294.5"/>
<text text-anchor="middle" x="264" y="-344.5" font-family="Helvetica,sans-Serif" font-size="10.00">double</text>
<polyline fill="none" stroke="#bfbfbf" points="241.5,-336.5 286.5,-336.5 "/>
<text text-anchor="middle" x="264" y="-323.5" font-family="Helvetica,sans-Serif" font-size="10.00"> </text>
<polyline fill="none" stroke="#bfbfbf" points="241.5,-315.5 286.5,-315.5 "/>
<text text-anchor="middle" x="264" y="-302.5" font-family="Helvetica,sans-Serif" font-size="10.00"> </text>
</g>
<!-- Node7&#45;&gt;Node6 -->
<g id="edge12" class="edge"><title>Node7&#45;&gt;Node6</title>
<path fill="none" stroke="#404040" d="M253.767,-294.193C250.252,-283.846 246.152,-272.361 242,-262 241.018,-259.55 239.98,-257.046 238.91,-254.529"/>
<polygon fill="none" stroke="#404040" points="238.907,-254.521 232.832,-250.634 234.084,-243.533 240.158,-247.419 238.907,-254.521"/>
<text text-anchor="middle" x="271.5" y="-266.5" font-family="Helvetica,sans-Serif" font-size="10.00"> +elements</text>
</g>
</g>
</svg>
        <g id="navigator" transform="translate(0 0)" fill="#404254">
                <rect fill="#f2f5e9" fill-opacity="0.5" stroke="#606060" stroke-width=".5" x="0" y="0" width="60" height="60"/>
                <use id="zoomplus" xlink:href="#zoomPlus" x="17" y="9" onmousedown="handleZoom(evt,'in')"/>
                <use id="zoomminus" xlink:href="#zoomMin" x="42" y="9" onmousedown="handleZoom(evt,'out')"/>
                <use id="reset" xlink:href="#resetDef" x="30" y="36" onmousedown="handleReset()"/>
                <g id="arrowUp" xlink:href="#dirArrow" transform="translate(30 24)" onmousedown="handlePan(0,-1)">
                  <use xlink:href="#rim" fill="#404040">
                        <set attributeName="fill" to="#808080" begin="arrowUp.mouseover" end="arrowUp.mouseout"/>
                  </use>
                  <path fill="none" stroke="white" stroke-width="1.5" d="M0,-3.0v7 M-2.5,-0.5L0,-3.0L2.5,-0.5"/>
                </g>
                <g id="arrowRight" xlink:href="#dirArrow" transform="rotate(90) translate(36 -43)" onmousedown="handlePan(1,0)">
                  <use xlink:href="#rim" fill="#404040">
                        <set attributeName="fill" to="#808080" begin="arrowRight.mouseover" end="arrowRight.mouseout"/>
                  </use>
                  <path fill="none" stroke="white" stroke-width="1.5" d="M0,-3.0v7 M-2.5,-0.5L0,-3.0L2.5,-0.5"/>
                </g>
                <g id="arrowDown" xlink:href="#dirArrow" transform="rotate(180) translate(-30 -48)" onmousedown="handlePan(0,1)">
                  <use xlink:href="#rim" fill="#404040">
                        <set attributeName="fill" to="#808080" begin="arrowDown.mouseover" end="arrowDown.mouseout"/>
                  </use>
                  <path fill="none" stroke="white" stroke-width="1.5" d="M0,-3.0v7 M-2.5,-0.5L0,-3.0L2.5,-0.5"/>
                </g>
                <g id="arrowLeft" xlink:href="#dirArrow" transform="rotate(270) translate(-36 17)" onmousedown="handlePan(-1,0)">
                  <use xlink:href="#rim" fill="#404040">
                        <set attributeName="fill" to="#808080" begin="arrowLeft.mouseover" end="arrowLeft.mouseout"/>
                  </use>
                  <path fill="none" stroke="white" stroke-width="1.5" d="M0,-3.0v7 M-2.5,-0.5L0,-3.0L2.5,-0.5"/>
                </g>
        </g>
        <svg viewBox="0 0 15 15" width="100%" height="30px" preserveAspectRatio="xMaxYMin meet">
         <g id="arrow_out" transform="scale(0.3 0.3)">
          <a xlink:href="classIntensity__coll__graph_org.svg" target="_base">
           <rect id="button" ry="5" rx="5" y="6" x="6" height="38" width="38"
                fill="#f2f5e9" fill-opacity="0.5" stroke="#606060" stroke-width="1.0"/>
           <path id="arrow"
             d="M 11.500037,31.436501 C 11.940474,20.09759 22.043105,11.32322 32.158766,21.979434 L 37.068811,17.246167 C 37.068811,17.246167 37.088388,32 37.088388,32 L 22.160133,31.978069 C 22.160133,31.978069 26.997745,27.140456 26.997745,27.140456 C 18.528582,18.264221 13.291696,25.230495 11.500037,31.436501 z"
             style="fill:#404040;"/>
          </a>
         </g>
        </svg>
</svg>
