<?xml version="1.0" encoding="UTF-8" standalone="no"?>
<!DOCTYPE svg PUBLIC "-//W3C//DTD SVG 1.1//EN"
 "http://www.w3.org/Graphics/SVG/1.1/DTD/svg11.dtd">
<!-- Generated by graphviz version 2.26.3 (20100126.1600)
 -->
<!-- Title: option::PrintUsageImplementation::LineWrapper Pages: 1 -->
<svg width="303pt" height="356pt"
 viewBox="0.00 0.00 303.00 356.00" xmlns="http://www.w3.org/2000/svg" xmlns:xlink="http://www.w3.org/1999/xlink">
<g id="graph1" class="graph" transform="scale(1 1) rotate(0) translate(4 352)">
<title>option::PrintUsageImplementation::LineWrapper</title>
<polygon fill="white" stroke="white" points="-4,5 -4,-352 300,-352 300,5 -4,5"/>
<!-- Node1 -->
<g id="node1" class="node"><title>Node1</title>
<polygon fill="#bfbfbf" stroke="black" points="39,-1 39,-181 203,-181 203,-1 39,-1"/>
<text text-anchor="start" x="47" y="-168" font-family="Helvetica,sans-Serif" font-size="10.00">option::PrintUsageImplementation</text>
<text text-anchor="middle" x="121" y="-155" font-family="Helvetica,sans-Serif" font-size="10.00">::LineWrapper</text>
<polyline fill="none" stroke="black" points="39,-147 203,-147 "/>
<text text-anchor="middle" x="121" y="-134" font-family="Helvetica,sans-Serif" font-size="10.00"> </text>
<polyline fill="none" stroke="black" points="39,-126 203,-126 "/>
<text text-anchor="start" x="47" y="-113" font-family="Helvetica,sans-Serif" font-size="10.00">+ LineWrapper()</text>
<text text-anchor="start" x="47" y="-100" font-family="Helvetica,sans-Serif" font-size="10.00">+ flush()</text>
<text text-anchor="start" x="47" y="-87" font-family="Helvetica,sans-Serif" font-size="10.00">+ process()</text>
<text text-anchor="start" x="47" y="-74" font-family="Helvetica,sans-Serif" font-size="10.00">&#45; buf_empty()</text>
<text text-anchor="start" x="47" y="-61" font-family="Helvetica,sans-Serif" font-size="10.00">&#45; buf_full()</text>
<text text-anchor="start" x="47" y="-48" font-family="Helvetica,sans-Serif" font-size="10.00">&#45; buf_next()</text>
<text text-anchor="start" x="47" y="-35" font-family="Helvetica,sans-Serif" font-size="10.00">&#45; buf_store()</text>
<text text-anchor="start" x="47" y="-22" font-family="Helvetica,sans-Serif" font-size="10.00">&#45; output()</text>
<text text-anchor="start" x="47" y="-9" font-family="Helvetica,sans-Serif" font-size="10.00">&#45; write_one_line()</text>
</g>
<!-- Node2 -->
<g id="node2" class="node"><title>Node2</title>
<polygon fill="white" stroke="#bfbfbf" points="-0.5,-284.5 -0.5,-347.5 28.5,-347.5 28.5,-284.5 -0.5,-284.5"/>
<text text-anchor="middle" x="14" y="-334.5" font-family="Helvetica,sans-Serif" font-size="10.00">int</text>
<polyline fill="none" stroke="#bfbfbf" points="-0.5,-326.5 28.5,-326.5 "/>
<text text-anchor="middle" x="14" y="-313.5" font-family="Helvetica,sans-Serif" font-size="10.00"> </text>
<polyline fill="none" stroke="#bfbfbf" points="-0.5,-305.5 28.5,-305.5 "/>
<text text-anchor="middle" x="14" y="-292.5" font-family="Helvetica,sans-Serif" font-size="10.00"> </text>
</g>
<!-- Node2&#45;&gt;Node1 -->
<g id="edge2" class="edge"><title>Node2&#45;&gt;Node1</title>
<path fill="none" stroke="#404040" d="M20.5333,-284.287C26.0999,-260.423 35.2378,-227.277 48,-200 49.2879,-197.247 50.6399,-194.485 52.0458,-191.723"/>
<polygon fill="none" stroke="#404040" points="52.0726,-191.672 51.363,-184.496 57.7141,-181.081 58.4238,-188.257 52.0726,-191.672"/>
<text text-anchor="middle" x="64.5" y="-256.5" font-family="Helvetica,sans-Serif" font-size="10.00"> &#45;lenbuf</text>
<text text-anchor="middle" x="64.5" y="-243.5" font-family="Helvetica,sans-Serif" font-size="10.00">&#45;width</text>
<text text-anchor="middle" x="64.5" y="-230.5" font-family="Helvetica,sans-Serif" font-size="10.00">&#45;x</text>
<text text-anchor="middle" x="64.5" y="-217.5" font-family="Helvetica,sans-Serif" font-size="10.00">&#45;head</text>
<text text-anchor="middle" x="64.5" y="-204.5" font-family="Helvetica,sans-Serif" font-size="10.00">&#45;tail</text>
</g>
<!-- Node3 -->
<g id="node4" class="node"><title>Node3</title>
<polygon fill="white" stroke="#bfbfbf" points="45.5,-284.5 45.5,-347.5 126.5,-347.5 126.5,-284.5 45.5,-284.5"/>
<text text-anchor="middle" x="86" y="-334.5" font-family="Helvetica,sans-Serif" font-size="10.00">static const int</text>
<polyline fill="none" stroke="#bfbfbf" points="45.5,-326.5 126.5,-326.5 "/>
<text text-anchor="middle" x="86" y="-313.5" font-family="Helvetica,sans-Serif" font-size="10.00"> </text>
<polyline fill="none" stroke="#bfbfbf" points="45.5,-305.5 126.5,-305.5 "/>
<text text-anchor="middle" x="86" y="-292.5" font-family="Helvetica,sans-Serif" font-size="10.00"> </text>
</g>
<!-- Node3&#45;&gt;Node1 -->
<g id="edge4" class="edge"><title>Node3&#45;&gt;Node1</title>
<path fill="none" stroke="#404040" d="M85.4487,-284.3C85.5051,-260.875 86.5576,-228.277 91,-200 91.3655,-197.673 91.7627,-195.325 92.1878,-192.963"/>
<polygon fill="none" stroke="#404040" points="92.2119,-192.84 89.4452,-186.18 94.528,-181.065 97.2947,-187.724 92.2119,-192.84"/>
<text text-anchor="middle" x="113" y="-230.5" font-family="Helvetica,sans-Serif" font-size="10.00"> &#45;bufmask</text>
</g>
<!-- Node4 -->
<g id="node6" class="node"><title>Node4</title>
<polygon fill="white" stroke="#bfbfbf" points="143.5,-284.5 143.5,-347.5 178.5,-347.5 178.5,-284.5 143.5,-284.5"/>
<text text-anchor="middle" x="161" y="-334.5" font-family="Helvetica,sans-Serif" font-size="10.00">bool</text>
<polyline fill="none" stroke="#bfbfbf" points="143.5,-326.5 178.5,-326.5 "/>
<text text-anchor="middle" x="161" y="-313.5" font-family="Helvetica,sans-Serif" font-size="10.00"> </text>
<polyline fill="none" stroke="#bfbfbf" points="143.5,-305.5 178.5,-305.5 "/>
<text text-anchor="middle" x="161" y="-292.5" font-family="Helvetica,sans-Serif" font-size="10.00"> </text>
</g>
<!-- Node4&#45;&gt;Node1 -->
<g id="edge6" class="edge"><title>Node4&#45;&gt;Node1</title>
<path fill="none" stroke="#404040" d="M155.354,-284.24C151.115,-260.397 145.058,-226.328 139.208,-193.419"/>
<polygon fill="none" stroke="#404040" points="139.166,-193.182 134.177,-187.975 137.065,-181.368 142.054,-186.575 139.166,-193.182"/>
<text text-anchor="middle" x="191.5" y="-230.5" font-family="Helvetica,sans-Serif" font-size="10.00"> &#45;wrote_something</text>
</g>
<!-- Node5 -->
<g id="node8" class="node"><title>Node5</title>
<polygon fill="white" stroke="#bfbfbf" points="226.5,-284.5 226.5,-347.5 295.5,-347.5 295.5,-284.5 226.5,-284.5"/>
<text text-anchor="middle" x="261" y="-334.5" font-family="Helvetica,sans-Serif" font-size="10.00">const char *</text>
<polyline fill="none" stroke="#bfbfbf" points="226.5,-326.5 295.5,-326.5 "/>
<text text-anchor="middle" x="261" y="-313.5" font-family="Helvetica,sans-Serif" font-size="10.00"> </text>
<polyline fill="none" stroke="#bfbfbf" points="226.5,-305.5 295.5,-305.5 "/>
<text text-anchor="middle" x="261" y="-292.5" font-family="Helvetica,sans-Serif" font-size="10.00"> </text>
</g>
<!-- Node5&#45;&gt;Node1 -->
<g id="edge8" class="edge"><title>Node5&#45;&gt;Node1</title>
<path fill="none" stroke="#404040" d="M259.259,-284.424C256.758,-260.027 250.691,-226.128 236,-200 229.274,-188.038 220.802,-176.599 211.521,-165.933"/>
<polygon fill="none" stroke="#404040" points="211.256,-165.642 204.259,-163.896 203.18,-156.766 210.176,-158.512 211.256,-165.642"/>
<text text-anchor="middle" x="273" y="-230.5" font-family="Helvetica,sans-Serif" font-size="10.00"> &#45;datbuf</text>
</g>
</g>
</svg>
