<?xml version="1.0" encoding="UTF-8" standalone="no"?>
<!DOCTYPE svg PUBLIC "-//W3C//DTD SVG 1.1//EN"
 "http://www.w3.org/Graphics/SVG/1.1/DTD/svg11.dtd">
<!-- Generated by graphviz version 2.26.3 (20100126.1600)
 -->
<!-- Title: Beams.cpp Pages: 1 -->
<!--zoomable 580 -->
<svg id="main" version="1.1" xmlns="http://www.w3.org/2000/svg" xmlns:xlink="http://www.w3.org/1999/xlink" xml:space="preserve" onload="init(evt)">
        <defs>
                <circle id="rim" cx="0" cy="0" r="7"/>
                <circle id="rim2" cx="0" cy="0" r="3.5"/>
                <g id="zoomPlus">
                        <use xlink:href="#rim" fill="#404040">
                                <set attributeName="fill" to="#808080" begin="zoomplus.mouseover" end="zoomplus.mouseout"/>
                        </use>
                        <path d="M-4,0h8M0,-4v8" fill="none" stroke="white" stroke-width="1.5" pointer-events="none"/>
                </g>
                <g id="zoomMin">
                        <use xlink:href="#rim" fill="#404040">
                                <set attributeName="fill" to="#808080" begin="zoomminus.mouseover" end="zoomminus.mouseout"/>
                        </use>
                        <path d="M-4,0h8" fill="none" stroke="white" stroke-width="1.5" pointer-events="none"/>
                </g>
                <g id="dirArrow">
                        <path fill="none" stroke="white" stroke-width="1.5" d="M0,-3.0v7 M-2.5,-0.5L0,-3.0L2.5,-0.5"/>
                </g>
               <g id="resetDef">
                       <use xlink:href="#rim2" fill="#404040">
                               <set attributeName="fill" to="#808080" begin="reset.mouseover" end="reset.mouseout"/>
                       </use>
               </g>
        </defs>

<script type="text/javascript">
var viewWidth = 1238;
var viewHeight = 580;
var sectionId = 'dynsection-0';
</script>
<script xlink:href="../../svgpan.js"/>
<svg id="graph" class="graph">
<g id="viewport">
<title>Beams.cpp</title>
<polygon fill="white" stroke="white" points="-4,5 -4,-576 1235.44,-576 1235.44,5 -4,5"/>
<!-- Node1 -->
<g id="node1" class="node"><title>Node1</title>
<polygon fill="#bfbfbf" stroke="black" points="675.791,-550.5 675.791,-571.5 741.791,-571.5 741.791,-550.5 675.791,-550.5"/>
<text text-anchor="middle" x="708.791" y="-558.5" font-family="Helvetica,sans-Serif" font-size="10.00">Beams.cpp</text>
</g>
<!-- Node2 -->
<g id="node3" class="node"><title>Node2</title>
<a xlink:href="../../d7/d74/Beams_8h.html" target="_top" xlink:title="blond/beams/Beams.h">
<polygon fill="white" stroke="black" points="844.791,-492.5 844.791,-513.5 958.791,-513.5 958.791,-492.5 844.791,-492.5"/>
<text text-anchor="middle" x="901.791" y="-500.5" font-family="Helvetica,sans-Serif" font-size="10.00">blond/beams/Beams.h</text>
</a>
</g>
<!-- Node1&#45;&gt;Node2 -->
<g id="edge2" class="edge"><title>Node1&#45;&gt;Node2</title>
<path fill="none" stroke="midnightblue" d="M741.969,-551.029C773.653,-541.508 821.643,-527.086 856.768,-516.53"/>
<polygon fill="midnightblue" stroke="midnightblue" points="858.196,-519.756 866.766,-513.526 856.182,-513.052 858.196,-519.756"/>
</g>
<!-- Node22 -->
<g id="node48" class="node"><title>Node22</title>
<a xlink:href="../../d2/de2/math__functions_8h.html" target="_top" xlink:title="blond/math_functions.h">
<polygon fill="white" stroke="black" points="303.791,-239.5 303.791,-260.5 421.791,-260.5 421.791,-239.5 303.791,-239.5"/>
<text text-anchor="middle" x="362.791" y="-247.5" font-family="Helvetica,sans-Serif" font-size="10.00">blond/math_functions.h</text>
</a>
</g>
<!-- Node1&#45;&gt;Node22 -->
<g id="edge114" class="edge"><title>Node1&#45;&gt;Node22</title>
<path fill="none" stroke="midnightblue" d="M675.353,-558.089C615.166,-550.82 494.791,-526.139 494.791,-445 494.791,-445 494.791,-445 494.791,-387 494.791,-329.362 433.452,-286.643 394.402,-265.287"/>
<polygon fill="midnightblue" stroke="midnightblue" points="395.958,-262.151 385.483,-260.566 392.683,-268.338 395.958,-262.151"/>
</g>
<!-- Node33 -->
<g id="node76" class="node"><title>Node33</title>
<a xlink:href="../../d2/d6f/constants_8h.html" target="_top" xlink:title="blond/constants.h">
<polygon fill="white" stroke="black" points="698.791,-239.5 698.791,-260.5 792.791,-260.5 792.791,-239.5 698.791,-239.5"/>
<text text-anchor="middle" x="745.791" y="-247.5" font-family="Helvetica,sans-Serif" font-size="10.00">blond/constants.h</text>
</a>
</g>
<!-- Node1&#45;&gt;Node33 -->
<g id="edge112" class="edge"><title>Node1&#45;&gt;Node33</title>
<path fill="none" stroke="midnightblue" d="M706.29,-550.458C699.934,-522.025 684.507,-441.482 696.791,-376 704.137,-336.841 723.286,-294.214 735.354,-269.935"/>
<polygon fill="midnightblue" stroke="midnightblue" points="738.629,-271.217 740.038,-260.717 732.388,-268.047 738.629,-271.217"/>
</g>
<!-- Node36 -->
<g id="node94" class="node"><title>Node36</title>
<a xlink:href="../../de/d44/trackers_2utilities_8h.html" target="_top" xlink:title="blond/trackers/utilities.h">
<polygon fill="white" stroke="black" points="705.791,-376.5 705.791,-397.5 825.791,-397.5 825.791,-376.5 705.791,-376.5"/>
<text text-anchor="middle" x="765.791" y="-384.5" font-family="Helvetica,sans-Serif" font-size="10.00">blond/trackers/utilities.h</text>
</a>
</g>
<!-- Node1&#45;&gt;Node36 -->
<g id="edge116" class="edge"><title>Node1&#45;&gt;Node36</title>
<path fill="none" stroke="midnightblue" d="M712.271,-550.377C721.51,-522.172 746.787,-445.012 759.003,-407.72"/>
<polygon fill="midnightblue" stroke="midnightblue" points="762.424,-408.52 762.211,-397.928 755.772,-406.341 762.424,-408.52"/>
</g>
<!-- Node3 -->
<g id="node5" class="node"><title>Node3</title>
<a xlink:href="../../d5/d87/globals_8h.html" target="_top" xlink:title="blond/globals.h">
<polygon fill="white" stroke="black" points="899.791,-434.5 899.791,-455.5 981.791,-455.5 981.791,-434.5 899.791,-434.5"/>
<text text-anchor="middle" x="940.791" y="-442.5" font-family="Helvetica,sans-Serif" font-size="10.00">blond/globals.h</text>
</a>
</g>
<!-- Node2&#45;&gt;Node3 -->
<g id="edge4" class="edge"><title>Node2&#45;&gt;Node3</title>
<path fill="none" stroke="midnightblue" d="M903.58,-492.362C907.55,-484.35 914.744,-473.161 921.883,-463.67"/>
<polygon fill="midnightblue" stroke="midnightblue" points="924.841,-465.574 928.331,-455.571 919.364,-461.214 924.841,-465.574"/>
</g>
<!-- Node4 -->
<g id="node7" class="node"><title>Node4</title>
<a xlink:href="../../d5/d34/GeneralParameters_8h.html" target="_top" xlink:title="blond/input_parameters\l/GeneralParameters.h">
<polygon fill="white" stroke="black" points="1023.79,-233 1023.79,-267 1141.79,-267 1141.79,-233 1023.79,-233"/>
<text text-anchor="start" x="1031.79" y="-254" font-family="Helvetica,sans-Serif" font-size="10.00">blond/input_parameters</text>
<text text-anchor="middle" x="1082.79" y="-241" font-family="Helvetica,sans-Serif" font-size="10.00">/GeneralParameters.h</text>
</a>
</g>
<!-- Node2&#45;&gt;Node4 -->
<g id="edge108" class="edge"><title>Node2&#45;&gt;Node4</title>
<path fill="none" stroke="midnightblue" d="M940.217,-492.482C984.217,-478.396 1055.18,-449.064 1093.79,-398 1119.27,-364.308 1116.88,-345.25 1107.79,-304 1105.72,-294.617 1101.86,-284.925 1097.78,-276.386"/>
<polygon fill="midnightblue" stroke="midnightblue" points="1100.81,-274.638 1093.16,-267.314 1094.58,-277.814 1100.81,-274.638"/>
</g>
<!-- Node5 -->
<g id="node9" class="node"><title>Node5</title>
<a xlink:href="../../d2/d2c/configuration_8h.html" target="_top" xlink:title="blond/configuration.h">
<polygon fill="white" stroke="black" points="1111.29,-116.5 1111.29,-137.5 1218.29,-137.5 1218.29,-116.5 1111.29,-116.5"/>
<text text-anchor="middle" x="1164.79" y="-124.5" font-family="Helvetica,sans-Serif" font-size="10.00">blond/configuration.h</text>
</a>
</g>
<!-- Node2&#45;&gt;Node5 -->
<g id="edge104" class="edge"><title>Node2&#45;&gt;Node5</title>
<path fill="none" stroke="midnightblue" d="M958.988,-493.375C1047.56,-476.83 1207.79,-439.624 1207.79,-387 1207.79,-387 1207.79,-387 1207.79,-250 1207.79,-211.798 1189.08,-170.472 1176.34,-146.768"/>
<polygon fill="midnightblue" stroke="midnightblue" points="1179.24,-144.784 1171.32,-137.749 1173.13,-148.189 1179.24,-144.784"/>
</g>
<!-- Node8 -->
<g id="node15" class="node"><title>Node8</title>
<a xlink:href="../../de/df0/utilities_8h.html" target="_top" xlink:title="blond/utilities.h">
<polygon fill="white" stroke="black" points="634.791,-174.5 634.791,-195.5 716.791,-195.5 716.791,-174.5 634.791,-174.5"/>
<text text-anchor="middle" x="675.791" y="-182.5" font-family="Helvetica,sans-Serif" font-size="10.00">blond/utilities.h</text>
</a>
</g>
<!-- Node2&#45;&gt;Node8 -->
<g id="edge106" class="edge"><title>Node2&#45;&gt;Node8</title>
<path fill="none" stroke="midnightblue" d="M852.583,-492.44C774.705,-474.29 631.791,-434.511 631.791,-387 631.791,-387 631.791,-387 631.791,-322 631.791,-278.554 652.098,-230.91 665.12,-204.823"/>
<polygon fill="midnightblue" stroke="midnightblue" points="668.386,-206.127 669.857,-195.634 662.164,-202.919 668.386,-206.127"/>
</g>
<!-- Node21 -->
<g id="node44" class="node"><title>Node21</title>
<a xlink:href="../../d6/db7/RfParameters_8h.html" target="_top" xlink:title="blond/input_parameters\l/RfParameters.h">
<polygon fill="white" stroke="black" points="849.791,-305 849.791,-339 967.791,-339 967.791,-305 849.791,-305"/>
<text text-anchor="start" x="857.791" y="-326" font-family="Helvetica,sans-Serif" font-size="10.00">blond/input_parameters</text>
<text text-anchor="middle" x="908.791" y="-313" font-family="Helvetica,sans-Serif" font-size="10.00">/RfParameters.h</text>
</a>
</g>
<!-- Node2&#45;&gt;Node21 -->
<g id="edge110" class="edge"><title>Node2&#45;&gt;Node21</title>
<path fill="none" stroke="midnightblue" d="M891.427,-492.297C886.856,-482.851 883.252,-468.654 881.791,-456 877.494,-418.782 885.552,-375.885 894.411,-348.857"/>
<polygon fill="midnightblue" stroke="midnightblue" points="897.749,-349.915 897.821,-339.32 891.158,-347.558 897.749,-349.915"/>
</g>
<!-- Node3&#45;&gt;Node2 -->
<g id="edge92" class="edge"><title>Node3&#45;&gt;Node2</title>
<path fill="none" stroke="midnightblue" d="M939.035,-455.571C935.043,-463.647 927.752,-474.979 920.54,-484.541"/>
<polygon fill="midnightblue" stroke="midnightblue" points="917.803,-482.36 914.308,-492.362 923.277,-486.722 917.803,-482.36"/>
</g>
<!-- Node3&#45;&gt;Node4 -->
<g id="edge6" class="edge"><title>Node3&#45;&gt;Node4</title>
<path fill="none" stroke="midnightblue" d="M981.891,-435.878C1016.92,-427.198 1063.36,-413.233 1074.79,-398 1101.02,-363.051 1095.97,-309.35 1089.6,-277.15"/>
<polygon fill="midnightblue" stroke="midnightblue" points="1092.96,-276.148 1087.43,-267.113 1086.12,-277.626 1092.96,-276.148"/>
</g>
<!-- Node3&#45;&gt;Node21 -->
<g id="edge46" class="edge"><title>Node3&#45;&gt;Node21</title>
<path fill="none" stroke="midnightblue" d="M933.904,-434.085C926.071,-415.191 915.283,-375.862 910.152,-349.192"/>
<polygon fill="midnightblue" stroke="midnightblue" points="913.596,-348.566 908.428,-339.317 906.701,-349.77 913.596,-348.566"/>
</g>
<!-- Node34 -->
<g id="node81" class="node"><title>Node34</title>
<a xlink:href="../../dc/df2/Slices_8h.html" target="_top" xlink:title="blond/beams/Slices.h">
<polygon fill="white" stroke="black" points="955.791,-376.5 955.791,-397.5 1065.79,-397.5 1065.79,-376.5 955.791,-376.5"/>
<text text-anchor="middle" x="1010.79" y="-384.5" font-family="Helvetica,sans-Serif" font-size="10.00">blond/beams/Slices.h</text>
</a>
</g>
<!-- Node3&#45;&gt;Node34 -->
<g id="edge94" class="edge"><title>Node3&#45;&gt;Node34</title>
<path fill="none" stroke="midnightblue" d="M953.63,-434.362C963.793,-425.941 978.192,-414.011 989.995,-404.231"/>
<polygon fill="midnightblue" stroke="midnightblue" points="992.566,-406.646 998.033,-397.571 988.1,-401.256 992.566,-406.646"/>
</g>
<!-- Node4&#45;&gt;Node5 -->
<g id="edge8" class="edge"><title>Node4&#45;&gt;Node5</title>
<path fill="none" stroke="midnightblue" d="M1094.19,-232.897C1109.34,-210.17 1136.04,-170.123 1151.91,-146.326"/>
<polygon fill="midnightblue" stroke="midnightblue" points="1154.96,-148.049 1157.6,-137.787 1149.14,-144.167 1154.96,-148.049"/>
</g>
<!-- Node7 -->
<g id="node13" class="node"><title>Node7</title>
<polygon fill="white" stroke="#bfbfbf" points="1109.79,-58.5 1109.79,-79.5 1153.79,-79.5 1153.79,-58.5 1109.79,-58.5"/>
<text text-anchor="middle" x="1131.79" y="-66.5" font-family="Helvetica,sans-Serif" font-size="10.00">vector</text>
</g>
<!-- Node4&#45;&gt;Node7 -->
<g id="edge44" class="edge"><title>Node4&#45;&gt;Node7</title>
<path fill="none" stroke="midnightblue" d="M1120.61,-232.918C1155.42,-214.876 1204.87,-182.81 1226.79,-138 1231.09,-129.216 1231.95,-124.307 1226.79,-116 1219.51,-104.27 1188.11,-90.1399 1163.38,-80.4556"/>
<polygon fill="midnightblue" stroke="midnightblue" points="1164.55,-77.1543 1153.96,-76.85 1162.05,-83.6922 1164.55,-77.1543"/>
</g>
<!-- Node4&#45;&gt;Node8 -->
<g id="edge14" class="edge"><title>Node4&#45;&gt;Node8</title>
<path fill="none" stroke="midnightblue" d="M1023.54,-234.854C1018.9,-233.832 1014.28,-232.866 1009.79,-232 910.327,-212.791 792.769,-198.081 726.991,-190.561"/>
<polygon fill="midnightblue" stroke="midnightblue" points="727.22,-187.064 716.89,-189.416 726.432,-194.02 727.22,-187.064"/>
</g>
<!-- Node6 -->
<g id="node11" class="node"><title>Node6</title>
<polygon fill="white" stroke="#bfbfbf" points="1171.29,-58.5 1171.29,-79.5 1224.29,-79.5 1224.29,-58.5 1171.29,-58.5"/>
<text text-anchor="middle" x="1197.79" y="-66.5" font-family="Helvetica,sans-Serif" font-size="10.00">complex</text>
</g>
<!-- Node5&#45;&gt;Node6 -->
<g id="edge10" class="edge"><title>Node5&#45;&gt;Node6</title>
<path fill="none" stroke="midnightblue" d="M1170.84,-116.362C1175.26,-108.595 1181.38,-97.8426 1186.67,-88.5458"/>
<polygon fill="midnightblue" stroke="midnightblue" points="1189.87,-89.9932 1191.78,-79.5707 1183.79,-86.5315 1189.87,-89.9932"/>
</g>
<!-- Node5&#45;&gt;Node7 -->
<g id="edge12" class="edge"><title>Node5&#45;&gt;Node7</title>
<path fill="none" stroke="midnightblue" d="M1158.74,-116.362C1154.32,-108.595 1148.2,-97.8426 1142.91,-88.5458"/>
<polygon fill="midnightblue" stroke="midnightblue" points="1145.79,-86.5315 1137.81,-79.5707 1139.71,-89.9932 1145.79,-86.5315"/>
</g>
<!-- Node8&#45;&gt;Node5 -->
<g id="edge38" class="edge"><title>Node8&#45;&gt;Node5</title>
<path fill="none" stroke="midnightblue" d="M716.858,-176.322C721.545,-175.47 726.264,-174.673 730.791,-174 892.903,-149.899 935.285,-159.287 1097.79,-138 1098.87,-137.858 1099.96,-137.713 1101.06,-137.563"/>
<polygon fill="midnightblue" stroke="midnightblue" points="1101.67,-141.011 1111.08,-136.133 1100.69,-134.081 1101.67,-141.011"/>
</g>
<!-- Node8&#45;&gt;Node7 -->
<g id="edge34" class="edge"><title>Node8&#45;&gt;Node7</title>
<path fill="none" stroke="midnightblue" d="M716.865,-176.365C721.551,-175.505 726.267,-174.695 730.791,-174 878.365,-151.337 930.594,-203.444 1064.79,-138 1087.84,-126.761 1107.34,-104.178 1119.26,-87.9038"/>
<polygon fill="midnightblue" stroke="midnightblue" points="1122.2,-89.8188 1125.08,-79.6241 1116.47,-85.7951 1122.2,-89.8188"/>
</g>
<!-- Node9 -->
<g id="node17" class="node"><title>Node9</title>
<polygon fill="white" stroke="#bfbfbf" points="485.791,-116.5 485.791,-137.5 531.791,-137.5 531.791,-116.5 485.791,-116.5"/>
<text text-anchor="middle" x="508.791" y="-124.5" font-family="Helvetica,sans-Serif" font-size="10.00">chrono</text>
</g>
<!-- Node8&#45;&gt;Node9 -->
<g id="edge16" class="edge"><title>Node8&#45;&gt;Node9</title>
<path fill="none" stroke="midnightblue" d="M645.549,-174.497C616.161,-164.29 571.668,-148.837 541.476,-138.352"/>
<polygon fill="midnightblue" stroke="midnightblue" points="542.423,-134.976 531.828,-135.001 540.126,-141.588 542.423,-134.976"/>
</g>
<!-- Node10 -->
<g id="node19" class="node"><title>Node10</title>
<polygon fill="white" stroke="#bfbfbf" points="549.291,-116.5 549.291,-137.5 592.291,-137.5 592.291,-116.5 549.291,-116.5"/>
<text text-anchor="middle" x="570.791" y="-124.5" font-family="Helvetica,sans-Serif" font-size="10.00">cstdio</text>
</g>
<!-- Node8&#45;&gt;Node10 -->
<g id="edge18" class="edge"><title>Node8&#45;&gt;Node10</title>
<path fill="none" stroke="midnightblue" d="M656.532,-174.362C640.325,-165.409 616.938,-152.491 598.682,-142.406"/>
<polygon fill="midnightblue" stroke="midnightblue" points="600.373,-139.342 589.927,-137.571 596.989,-145.47 600.373,-139.342"/>
</g>
<!-- Node11 -->
<g id="node21" class="node"><title>Node11</title>
<polygon fill="white" stroke="#bfbfbf" points="609.291,-116.5 609.291,-137.5 654.291,-137.5 654.291,-116.5 609.291,-116.5"/>
<text text-anchor="middle" x="631.791" y="-124.5" font-family="Helvetica,sans-Serif" font-size="10.00">cstdlib</text>
</g>
<!-- Node8&#45;&gt;Node11 -->
<g id="edge20" class="edge"><title>Node8&#45;&gt;Node11</title>
<path fill="none" stroke="midnightblue" d="M667.721,-174.362C661.642,-166.35 653.154,-155.161 645.954,-145.67"/>
<polygon fill="midnightblue" stroke="midnightblue" points="648.642,-143.422 639.81,-137.571 643.066,-147.653 648.642,-143.422"/>
</g>
<!-- Node12 -->
<g id="node23" class="node"><title>Node12</title>
<polygon fill="white" stroke="#bfbfbf" points="671.791,-116.5 671.791,-137.5 721.791,-137.5 721.791,-116.5 671.791,-116.5"/>
<text text-anchor="middle" x="696.791" y="-124.5" font-family="Helvetica,sans-Serif" font-size="10.00">fstream</text>
</g>
<!-- Node8&#45;&gt;Node12 -->
<g id="edge22" class="edge"><title>Node8&#45;&gt;Node12</title>
<path fill="none" stroke="midnightblue" d="M679.643,-174.362C682.396,-166.758 686.185,-156.294 689.501,-147.135"/>
<polygon fill="midnightblue" stroke="midnightblue" points="692.85,-148.165 692.964,-137.571 686.268,-145.782 692.85,-148.165"/>
</g>
<!-- Node13 -->
<g id="node25" class="node"><title>Node13</title>
<polygon fill="white" stroke="#bfbfbf" points="739.791,-116.5 739.791,-137.5 793.791,-137.5 793.791,-116.5 739.791,-116.5"/>
<text text-anchor="middle" x="766.791" y="-124.5" font-family="Helvetica,sans-Serif" font-size="10.00">iostream</text>
</g>
<!-- Node8&#45;&gt;Node13 -->
<g id="edge24" class="edge"><title>Node8&#45;&gt;Node13</title>
<path fill="none" stroke="midnightblue" d="M692.482,-174.362C706.207,-165.614 725.875,-153.079 741.528,-143.101"/>
<polygon fill="midnightblue" stroke="midnightblue" points="743.654,-145.897 750.206,-137.571 739.892,-139.994 743.654,-145.897"/>
</g>
<!-- Node14 -->
<g id="node27" class="node"><title>Node14</title>
<polygon fill="white" stroke="#bfbfbf" points="811.291,-116.5 811.291,-137.5 858.291,-137.5 858.291,-116.5 811.291,-116.5"/>
<text text-anchor="middle" x="834.791" y="-124.5" font-family="Helvetica,sans-Serif" font-size="10.00">iterator</text>
</g>
<!-- Node8&#45;&gt;Node14 -->
<g id="edge26" class="edge"><title>Node8&#45;&gt;Node14</title>
<path fill="none" stroke="midnightblue" d="M704.585,-174.497C731.803,-164.568 772.63,-149.675 801.293,-139.219"/>
<polygon fill="midnightblue" stroke="midnightblue" points="802.687,-142.436 810.882,-135.721 800.288,-135.86 802.687,-142.436"/>
</g>
<!-- Node15 -->
<g id="node29" class="node"><title>Node15</title>
<polygon fill="white" stroke="#bfbfbf" points="875.791,-116.5 875.791,-137.5 927.791,-137.5 927.791,-116.5 875.791,-116.5"/>
<text text-anchor="middle" x="901.791" y="-124.5" font-family="Helvetica,sans-Serif" font-size="10.00">memory</text>
</g>
<!-- Node8&#45;&gt;Node15 -->
<g id="edge28" class="edge"><title>Node8&#45;&gt;Node15</title>
<path fill="none" stroke="midnightblue" d="M716.971,-175.661C753.664,-167.162 809.022,-153.907 865.636,-138.215"/>
<polygon fill="midnightblue" stroke="midnightblue" points="866.781,-141.53 875.471,-135.468 864.898,-134.788 866.781,-141.53"/>
</g>
<!-- Node16 -->
<g id="node31" class="node"><title>Node16</title>
<polygon fill="white" stroke="#bfbfbf" points="945.791,-116.5 945.791,-137.5 997.791,-137.5 997.791,-116.5 945.791,-116.5"/>
<text text-anchor="middle" x="971.791" y="-124.5" font-family="Helvetica,sans-Serif" font-size="10.00">sstream</text>
</g>
<!-- Node8&#45;&gt;Node16 -->
<g id="edge30" class="edge"><title>Node8&#45;&gt;Node16</title>
<path fill="none" stroke="midnightblue" d="M716.915,-176.661C721.592,-175.747 726.293,-174.843 730.791,-174 819.022,-157.47 844.742,-159.793 935.623,-138.063"/>
<polygon fill="midnightblue" stroke="midnightblue" points="936.628,-141.42 945.522,-135.663 934.979,-134.617 936.628,-141.42"/>
</g>
<!-- Node17 -->
<g id="node33" class="node"><title>Node17</title>
<polygon fill="white" stroke="#bfbfbf" points="1015.29,-116.5 1015.29,-137.5 1056.29,-137.5 1056.29,-116.5 1015.29,-116.5"/>
<text text-anchor="middle" x="1035.79" y="-124.5" font-family="Helvetica,sans-Serif" font-size="10.00">string</text>
</g>
<!-- Node8&#45;&gt;Node17 -->
<g id="edge32" class="edge"><title>Node8&#45;&gt;Node17</title>
<path fill="none" stroke="midnightblue" d="M716.881,-176.466C721.564,-175.588 726.275,-174.745 730.791,-174 849.628,-154.389 884.961,-167.411 1005.12,-138.007"/>
<polygon fill="midnightblue" stroke="midnightblue" points="1006.21,-141.341 1015.07,-135.523 1004.52,-134.549 1006.21,-141.341"/>
</g>
<!-- Node18 -->
<g id="node36" class="node"><title>Node18</title>
<polygon fill="white" stroke="#bfbfbf" points="193.791,-116.5 193.791,-137.5 253.791,-137.5 253.791,-116.5 193.791,-116.5"/>
<text text-anchor="middle" x="223.791" y="-124.5" font-family="Helvetica,sans-Serif" font-size="10.00">sys/stat.h</text>
</g>
<!-- Node8&#45;&gt;Node18 -->
<g id="edge36" class="edge"><title>Node8&#45;&gt;Node18</title>
<path fill="none" stroke="midnightblue" d="M634.641,-181.172C548.295,-173.004 349.75,-153.491 263.815,-137.895"/>
<polygon fill="midnightblue" stroke="midnightblue" points="264.386,-134.441 253.908,-136.014 263.08,-141.318 264.386,-134.441"/>
</g>
<!-- Node19 -->
<g id="node39" class="node"><title>Node19</title>
<polygon fill="white" stroke="#bfbfbf" points="271.291,-116.5 271.291,-137.5 346.291,-137.5 346.291,-116.5 271.291,-116.5"/>
<text text-anchor="middle" x="308.791" y="-124.5" font-family="Helvetica,sans-Serif" font-size="10.00">mm_malloc.h</text>
</g>
<!-- Node8&#45;&gt;Node19 -->
<g id="edge40" class="edge"><title>Node8&#45;&gt;Node19</title>
<path fill="none" stroke="midnightblue" d="M634.549,-180.159C575.113,-172.92 461.754,-158.136 356.244,-138.165"/>
<polygon fill="midnightblue" stroke="midnightblue" points="356.867,-134.721 346.387,-136.28 355.552,-141.596 356.867,-134.721"/>
</g>
<!-- Node20 -->
<g id="node41" class="node"><title>Node20</title>
<a xlink:href="../../da/d69/optionparser_8h.html" target="_top" xlink:title="This is the only file required to use The Lean Mean C++ Option Parser. Just #include it and you&#39;re se...">
<polygon fill="white" stroke="black" points="363.791,-116.5 363.791,-137.5 467.791,-137.5 467.791,-116.5 363.791,-116.5"/>
<text text-anchor="middle" x="415.791" y="-124.5" font-family="Helvetica,sans-Serif" font-size="10.00">blond/optionparser.h</text>
</a>
</g>
<!-- Node8&#45;&gt;Node20 -->
<g id="edge42" class="edge"><title>Node8&#45;&gt;Node20</title>
<path fill="none" stroke="midnightblue" d="M634.593,-175.81C590.922,-166.068 521.64,-150.613 472.755,-139.707"/>
<polygon fill="midnightblue" stroke="midnightblue" points="473.48,-136.283 462.957,-137.522 471.955,-143.115 473.48,-136.283"/>
</g>
<!-- Node21&#45;&gt;Node2 -->
<g id="edge48" class="edge"><title>Node21&#45;&gt;Node2</title>
<path fill="none" stroke="midnightblue" d="M909.564,-339.32C905.812,-364.831 894.945,-414.028 899.791,-456 900.795,-464.7 902.813,-474.128 904.237,-482.241"/>
<polygon fill="midnightblue" stroke="midnightblue" points="900.793,-482.886 905.659,-492.297 907.724,-481.905 900.793,-482.886"/>
</g>
<!-- Node21&#45;&gt;Node3 -->
<g id="edge90" class="edge"><title>Node21&#45;&gt;Node3</title>
<path fill="none" stroke="midnightblue" d="M918.164,-339.317C926.327,-361.541 936.473,-400.071 940.55,-423.959"/>
<polygon fill="midnightblue" stroke="midnightblue" points="937.117,-424.681 941.998,-434.085 944.047,-423.69 937.117,-424.681"/>
</g>
<!-- Node21&#45;&gt;Node4 -->
<g id="edge50" class="edge"><title>Node21&#45;&gt;Node4</title>
<path fill="none" stroke="midnightblue" d="M950.027,-304.937C974.64,-294.752 1006.09,-281.74 1032.2,-270.936"/>
<polygon fill="midnightblue" stroke="midnightblue" points="1033.65,-274.123 1041.55,-267.065 1030.97,-267.655 1033.65,-274.123"/>
</g>
<!-- Node21&#45;&gt;Node22 -->
<g id="edge52" class="edge"><title>Node21&#45;&gt;Node22</title>
<path fill="none" stroke="midnightblue" d="M849.581,-314.192C747.819,-300.773 540.272,-273.404 432.002,-259.127"/>
<polygon fill="midnightblue" stroke="midnightblue" points="432.213,-255.624 421.842,-257.787 431.298,-262.564 432.213,-255.624"/>
</g>
<!-- Node21&#45;&gt;Node33 -->
<g id="edge86" class="edge"><title>Node21&#45;&gt;Node33</title>
<path fill="none" stroke="midnightblue" d="M870.162,-304.937C842.493,-292.715 805.608,-276.422 779.204,-264.759"/>
<polygon fill="midnightblue" stroke="midnightblue" points="780.549,-261.527 769.987,-260.688 777.721,-267.93 780.549,-261.527"/>
</g>
<!-- Node22&#45;&gt;Node5 -->
<g id="edge56" class="edge"><title>Node22&#45;&gt;Node5</title>
<path fill="none" stroke="midnightblue" d="M421.936,-245.937C494.614,-239.871 621.16,-225.8 725.791,-196 749.532,-189.238 752.937,-180.354 776.791,-174 913.38,-137.614 952.677,-156.677 1092.79,-138 1095.46,-137.644 1098.18,-137.271 1100.93,-136.887"/>
<polygon fill="midnightblue" stroke="midnightblue" points="1101.56,-140.334 1110.96,-135.454 1100.57,-133.404 1101.56,-140.334"/>
</g>
<!-- Node22&#45;&gt;Node8 -->
<g id="edge74" class="edge"><title>Node22&#45;&gt;Node8</title>
<path fill="none" stroke="midnightblue" d="M413.428,-239.484C471.534,-227.418 566.293,-207.739 624.622,-195.626"/>
<polygon fill="midnightblue" stroke="midnightblue" points="625.639,-198.99 634.718,-193.529 624.216,-192.136 625.639,-198.99"/>
</g>
<!-- Node23 -->
<g id="node50" class="node"><title>Node23</title>
<polygon fill="white" stroke="#bfbfbf" points="27.791,-174.5 27.791,-195.5 83.791,-195.5 83.791,-174.5 27.791,-174.5"/>
<text text-anchor="middle" x="55.791" y="-182.5" font-family="Helvetica,sans-Serif" font-size="10.00">algorithm</text>
</g>
<!-- Node22&#45;&gt;Node23 -->
<g id="edge54" class="edge"><title>Node22&#45;&gt;Node23</title>
<path fill="none" stroke="midnightblue" d="M303.72,-239.795C251.04,-230.331 171.661,-215.177 93.9582,-196.14"/>
<polygon fill="midnightblue" stroke="midnightblue" points="94.5476,-192.68 83.9997,-193.676 92.8664,-199.475 94.5476,-192.68"/>
</g>
<!-- Node24 -->
<g id="node53" class="node"><title>Node24</title>
<a xlink:href="../../d8/dcd/exp_8h.html" target="_top" xlink:title="blond/exp.h">
<polygon fill="white" stroke="black" points="221.291,-174.5 221.291,-195.5 288.291,-195.5 288.291,-174.5 221.291,-174.5"/>
<text text-anchor="middle" x="254.791" y="-182.5" font-family="Helvetica,sans-Serif" font-size="10.00">blond/exp.h</text>
</a>
</g>
<!-- Node22&#45;&gt;Node24 -->
<g id="edge58" class="edge"><title>Node22&#45;&gt;Node24</title>
<path fill="none" stroke="midnightblue" d="M344.957,-239.267C327.5,-228.76 300.711,-212.637 280.865,-200.692"/>
<polygon fill="midnightblue" stroke="midnightblue" points="282.666,-197.692 272.293,-195.534 279.056,-203.689 282.666,-197.692"/>
</g>
<!-- Node26 -->
<g id="node57" class="node"><title>Node26</title>
<polygon fill="white" stroke="#bfbfbf" points="23.791,-0.5 23.791,-21.5 67.791,-21.5 67.791,-0.5 23.791,-0.5"/>
<text text-anchor="middle" x="45.791" y="-8.5" font-family="Helvetica,sans-Serif" font-size="10.00">cmath</text>
</g>
<!-- Node22&#45;&gt;Node26 -->
<g id="edge76" class="edge"><title>Node22&#45;&gt;Node26</title>
<path fill="none" stroke="midnightblue" d="M303.417,-244.852C209.913,-236.139 37.0377,-217.334 18.791,-196 -21.8783,-148.449 14.0122,-67.609 34.2213,-30.5783"/>
<polygon fill="midnightblue" stroke="midnightblue" points="37.3334,-32.185 39.1976,-21.7554 31.2363,-28.7461 37.3334,-32.185"/>
</g>
<!-- Node27 -->
<g id="node59" class="node"><title>Node27</title>
<polygon fill="white" stroke="#bfbfbf" points="97.791,-116.5 97.791,-137.5 137.791,-137.5 137.791,-116.5 97.791,-116.5"/>
<text text-anchor="middle" x="117.791" y="-124.5" font-family="Helvetica,sans-Serif" font-size="10.00">limits</text>
</g>
<!-- Node22&#45;&gt;Node27 -->
<g id="edge80" class="edge"><title>Node22&#45;&gt;Node27</title>
<path fill="none" stroke="midnightblue" d="M324.241,-239.415C293.171,-230.117 248.872,-215.1 212.791,-196 184.982,-181.279 156.17,-159.224 137.675,-144.032"/>
<polygon fill="midnightblue" stroke="midnightblue" points="139.865,-141.301 129.943,-137.586 135.382,-146.678 139.865,-141.301"/>
</g>
<!-- Node28 -->
<g id="node61" class="node"><title>Node28</title>
<a xlink:href="../../d1/d3d/sin_8h.html" target="_top" xlink:title="blond/sin.h">
<polygon fill="white" stroke="black" points="101.791,-174.5 101.791,-195.5 165.791,-195.5 165.791,-174.5 101.791,-174.5"/>
<text text-anchor="middle" x="133.791" y="-182.5" font-family="Helvetica,sans-Serif" font-size="10.00">blond/sin.h</text>
</a>
</g>
<!-- Node22&#45;&gt;Node28 -->
<g id="edge66" class="edge"><title>Node22&#45;&gt;Node28</title>
<path fill="none" stroke="midnightblue" d="M325.744,-239.484C284.727,-227.842 218.747,-209.114 175.828,-196.932"/>
<polygon fill="midnightblue" stroke="midnightblue" points="176.55,-193.499 165.975,-194.135 174.639,-200.233 176.55,-193.499"/>
</g>
<!-- Node30 -->
<g id="node69" class="node"><title>Node30</title>
<polygon fill="white" stroke="#bfbfbf" points="305.291,-174.5 305.291,-195.5 354.291,-195.5 354.291,-174.5 305.291,-174.5"/>
<text text-anchor="middle" x="329.791" y="-182.5" font-family="Helvetica,sans-Serif" font-size="10.00">random</text>
</g>
<!-- Node22&#45;&gt;Node30 -->
<g id="edge78" class="edge"><title>Node22&#45;&gt;Node30</title>
<path fill="none" stroke="midnightblue" d="M357.342,-239.267C352.584,-229.896 345.559,-216.057 339.793,-204.7"/>
<polygon fill="midnightblue" stroke="midnightblue" points="342.787,-202.866 335.139,-195.534 336.545,-206.035 342.787,-202.866"/>
</g>
<!-- Node31 -->
<g id="node72" class="node"><title>Node31</title>
<polygon fill="white" stroke="#bfbfbf" points="371.291,-174.5 371.291,-195.5 420.291,-195.5 420.291,-174.5 371.291,-174.5"/>
<text text-anchor="middle" x="395.791" y="-182.5" font-family="Helvetica,sans-Serif" font-size="10.00">cassert</text>
</g>
<!-- Node22&#45;&gt;Node31 -->
<g id="edge82" class="edge"><title>Node22&#45;&gt;Node31</title>
<path fill="none" stroke="midnightblue" d="M368.24,-239.267C372.998,-229.896 380.023,-216.057 385.789,-204.7"/>
<polygon fill="midnightblue" stroke="midnightblue" points="389.037,-206.035 390.443,-195.534 382.795,-202.866 389.037,-206.035"/>
</g>
<!-- Node32 -->
<g id="node74" class="node"><title>Node32</title>
<a xlink:href="../../d1/db0/openmp_8h.html" target="_top" xlink:title="blond/openmp.h">
<polygon fill="white" stroke="black" points="437.791,-174.5 437.791,-195.5 523.791,-195.5 523.791,-174.5 437.791,-174.5"/>
<text text-anchor="middle" x="480.791" y="-182.5" font-family="Helvetica,sans-Serif" font-size="10.00">blond/openmp.h</text>
</a>
</g>
<!-- Node22&#45;&gt;Node32 -->
<g id="edge84" class="edge"><title>Node22&#45;&gt;Node32</title>
<path fill="none" stroke="midnightblue" d="M382.012,-239.412C401.212,-228.836 430.932,-212.465 452.76,-200.441"/>
<polygon fill="midnightblue" stroke="midnightblue" points="454.508,-203.474 461.578,-195.584 451.13,-197.343 454.508,-203.474"/>
</g>
<!-- Node25 -->
<g id="node55" class="node"><title>Node25</title>
<a xlink:href="../../df/de1/vdtcore__common_8h.html" target="_top" xlink:title="vdtcore_common.h">
<polygon fill="white" stroke="black" points="73.791,-58.5 73.791,-79.5 173.791,-79.5 173.791,-58.5 73.791,-58.5"/>
<text text-anchor="middle" x="123.791" y="-66.5" font-family="Helvetica,sans-Serif" font-size="10.00">vdtcore_common.h</text>
</a>
</g>
<!-- Node24&#45;&gt;Node25 -->
<g id="edge60" class="edge"><title>Node24&#45;&gt;Node25</title>
<path fill="none" stroke="midnightblue" d="M236.332,-174.403C221.659,-165.567 200.981,-152.174 184.791,-138 167.256,-122.65 149.915,-102.412 138.231,-87.8286"/>
<polygon fill="midnightblue" stroke="midnightblue" points="140.67,-85.2679 131.736,-79.5729 135.168,-89.5963 140.67,-85.2679"/>
</g>
<!-- Node24&#45;&gt;Node27 -->
<g id="edge64" class="edge"><title>Node24&#45;&gt;Node27</title>
<path fill="none" stroke="midnightblue" d="M229.981,-174.497C206.701,-164.641 171.864,-149.892 147.196,-139.449"/>
<polygon fill="midnightblue" stroke="midnightblue" points="148.534,-136.215 137.961,-135.539 145.805,-142.661 148.534,-136.215"/>
</g>
<!-- Node25&#45;&gt;Node26 -->
<g id="edge62" class="edge"><title>Node25&#45;&gt;Node26</title>
<path fill="none" stroke="midnightblue" d="M109.485,-58.3619C97.9397,-49.7773 81.4906,-37.5459 68.2006,-27.6636"/>
<polygon fill="midnightblue" stroke="midnightblue" points="70.1198,-24.7291 60.0067,-21.5707 65.9428,-30.3463 70.1198,-24.7291"/>
</g>
<!-- Node29 -->
<g id="node63" class="node"><title>Node29</title>
<a xlink:href="../../dc/dfa/sincos_8h.html" target="_top" xlink:title="sincos.h">
<polygon fill="white" stroke="black" points="27.291,-116.5 27.291,-137.5 80.291,-137.5 80.291,-116.5 27.291,-116.5"/>
<text text-anchor="middle" x="53.791" y="-124.5" font-family="Helvetica,sans-Serif" font-size="10.00">sincos.h</text>
</a>
</g>
<!-- Node28&#45;&gt;Node29 -->
<g id="edge68" class="edge"><title>Node28&#45;&gt;Node29</title>
<path fill="none" stroke="midnightblue" d="M119.118,-174.362C107.277,-165.777 90.4059,-153.546 76.7752,-143.664"/>
<polygon fill="midnightblue" stroke="midnightblue" points="78.5217,-140.607 68.3712,-137.571 74.4129,-146.274 78.5217,-140.607"/>
</g>
<!-- Node29&#45;&gt;Node25 -->
<g id="edge70" class="edge"><title>Node29&#45;&gt;Node25</title>
<path fill="none" stroke="midnightblue" d="M66.63,-116.362C76.7934,-107.941 91.1921,-96.0105 102.995,-86.2308"/>
<polygon fill="midnightblue" stroke="midnightblue" points="105.566,-88.6459 111.033,-79.5707 101.1,-83.2558 105.566,-88.6459"/>
</g>
<!-- Node29&#45;&gt;Node26 -->
<g id="edge72" class="edge"><title>Node29&#45;&gt;Node26</title>
<path fill="none" stroke="midnightblue" d="M53.0527,-116.295C51.7311,-97.1314 48.9395,-56.654 47.2284,-31.8434"/>
<polygon fill="midnightblue" stroke="midnightblue" points="50.7073,-31.4147 46.5275,-21.6792 43.7239,-31.8963 50.7073,-31.4147"/>
</g>
<!-- Node33&#45;&gt;Node5 -->
<g id="edge88" class="edge"><title>Node33&#45;&gt;Node5</title>
<path fill="none" stroke="midnightblue" d="M750.815,-239.499C759.56,-222.503 779.308,-189.329 806.791,-174 920.605,-110.521 968.8,-156.56 1097.79,-138 1098.87,-137.845 1099.96,-137.686 1101.06,-137.525"/>
<polygon fill="midnightblue" stroke="midnightblue" points="1101.7,-140.968 1111.06,-136.013 1100.65,-134.046 1101.7,-140.968"/>
</g>
<!-- Node34&#45;&gt;Node5 -->
<g id="edge96" class="edge"><title>Node34&#45;&gt;Node5</title>
<path fill="none" stroke="midnightblue" d="M1031.35,-376.407C1063.2,-358.752 1123.66,-320.047 1150.79,-268 1170.97,-229.293 1169.9,-176.502 1167.35,-147.748"/>
<polygon fill="midnightblue" stroke="midnightblue" points="1170.81,-147.241 1166.3,-137.657 1163.85,-147.966 1170.81,-147.241"/>
</g>
<!-- Node34&#45;&gt;Node8 -->
<g id="edge98" class="edge"><title>Node34&#45;&gt;Node8</title>
<path fill="none" stroke="midnightblue" d="M1009.15,-376.374C1005.93,-359.024 997.256,-324.496 976.791,-304 907.634,-234.737 793.241,-204.637 727.184,-192.472"/>
<polygon fill="midnightblue" stroke="midnightblue" points="727.468,-188.968 717.011,-190.67 726.248,-195.86 727.468,-188.968"/>
</g>
<!-- Node34&#45;&gt;Node21 -->
<g id="edge100" class="edge"><title>Node34&#45;&gt;Node21</title>
<path fill="none" stroke="midnightblue" d="M993.948,-376.267C980.456,-367.669 961.062,-355.31 944.189,-344.558"/>
<polygon fill="midnightblue" stroke="midnightblue" points="945.954,-341.532 935.64,-339.11 942.193,-347.436 945.954,-341.532"/>
</g>
<!-- Node35 -->
<g id="node86" class="node"><title>Node35</title>
<polygon fill="white" stroke="#bfbfbf" points="1023.29,-311.5 1023.29,-332.5 1058.29,-332.5 1058.29,-311.5 1023.29,-311.5"/>
<text text-anchor="middle" x="1040.79" y="-319.5" font-family="Helvetica,sans-Serif" font-size="10.00">map</text>
</g>
<!-- Node34&#45;&gt;Node35 -->
<g id="edge102" class="edge"><title>Node34&#45;&gt;Node35</title>
<path fill="none" stroke="midnightblue" d="M1015.74,-376.267C1020.07,-366.896 1026.46,-353.057 1031.7,-341.7"/>
<polygon fill="midnightblue" stroke="midnightblue" points="1034.92,-343.08 1035.93,-332.534 1028.56,-340.147 1034.92,-343.08"/>
</g>
<!-- Node36&#45;&gt;Node4 -->
<g id="edge122" class="edge"><title>Node36&#45;&gt;Node4</title>
<path fill="none" stroke="midnightblue" d="M772.178,-376.435C783.585,-358.531 809.247,-322.388 840.791,-304 869.723,-287.135 952.877,-270.824 1013.66,-260.622"/>
<polygon fill="midnightblue" stroke="midnightblue" points="1014.29,-264.065 1023.59,-258.976 1013.15,-257.159 1014.29,-264.065"/>
</g>
<!-- Node36&#45;&gt;Node5 -->
<g id="edge118" class="edge"><title>Node36&#45;&gt;Node5</title>
<path fill="none" stroke="midnightblue" d="M767.342,-376.236C770.339,-358.998 778.427,-325.008 797.791,-304 883.652,-210.849 1028.99,-161.406 1108.57,-140.105"/>
<polygon fill="midnightblue" stroke="midnightblue" points="1109.62,-143.447 1118.41,-137.525 1107.85,-136.676 1109.62,-143.447"/>
</g>
<!-- Node36&#45;&gt;Node8 -->
<g id="edge120" class="edge"><title>Node36&#45;&gt;Node8</title>
<path fill="none" stroke="midnightblue" d="M756.836,-376.331C740.644,-356.429 706.623,-311.691 689.791,-268 681.948,-247.641 678.491,-222.799 676.972,-205.628"/>
<polygon fill="midnightblue" stroke="midnightblue" points="680.457,-205.289 676.227,-195.575 673.476,-205.806 680.457,-205.289"/>
</g>
<!-- Node36&#45;&gt;Node21 -->
<g id="edge124" class="edge"><title>Node36&#45;&gt;Node21</title>
<path fill="none" stroke="midnightblue" d="M789.085,-376.412C808.804,-367.448 837.681,-354.323 862.132,-343.209"/>
<polygon fill="midnightblue" stroke="midnightblue" points="863.603,-346.385 871.258,-339.06 860.706,-340.012 863.603,-346.385"/>
</g>
<!-- Node36&#45;&gt;Node33 -->
<g id="edge126" class="edge"><title>Node36&#45;&gt;Node33</title>
<path fill="none" stroke="midnightblue" d="M764.222,-376.25C760.906,-353.541 753.141,-300.348 748.823,-270.768"/>
<polygon fill="midnightblue" stroke="midnightblue" points="752.261,-270.09 747.353,-260.7 745.334,-271.101 752.261,-270.09"/>
</g>
</g>
</svg>
        <g id="navigator" transform="translate(0 0)" fill="#404254">
                <rect fill="#f2f5e9" fill-opacity="0.5" stroke="#606060" stroke-width=".5" x="0" y="0" width="60" height="60"/>
                <use id="zoomplus" xlink:href="#zoomPlus" x="17" y="9" onmousedown="handleZoom(evt,'in')"/>
                <use id="zoomminus" xlink:href="#zoomMin" x="42" y="9" onmousedown="handleZoom(evt,'out')"/>
                <use id="reset" xlink:href="#resetDef" x="30" y="36" onmousedown="handleReset()"/>
                <g id="arrowUp" xlink:href="#dirArrow" transform="translate(30 24)" onmousedown="handlePan(0,-1)">
                  <use xlink:href="#rim" fill="#404040">
                        <set attributeName="fill" to="#808080" begin="arrowUp.mouseover" end="arrowUp.mouseout"/>
                  </use>
                  <path fill="none" stroke="white" stroke-width="1.5" d="M0,-3.0v7 M-2.5,-0.5L0,-3.0L2.5,-0.5"/>
                </g>
                <g id="arrowRight" xlink:href="#dirArrow" transform="rotate(90) translate(36 -43)" onmousedown="handlePan(1,0)">
                  <use xlink:href="#rim" fill="#404040">
                        <set attributeName="fill" to="#808080" begin="arrowRight.mouseover" end="arrowRight.mouseout"/>
                  </use>
                  <path fill="none" stroke="white" stroke-width="1.5" d="M0,-3.0v7 M-2.5,-0.5L0,-3.0L2.5,-0.5"/>
                </g>
                <g id="arrowDown" xlink:href="#dirArrow" transform="rotate(180) translate(-30 -48)" onmousedown="handlePan(0,1)">
                  <use xlink:href="#rim" fill="#404040">
                        <set attributeName="fill" to="#808080" begin="arrowDown.mouseover" end="arrowDown.mouseout"/>
                  </use>
                  <path fill="none" stroke="white" stroke-width="1.5" d="M0,-3.0v7 M-2.5,-0.5L0,-3.0L2.5,-0.5"/>
                </g>
                <g id="arrowLeft" xlink:href="#dirArrow" transform="rotate(270) translate(-36 17)" onmousedown="handlePan(-1,0)">
                  <use xlink:href="#rim" fill="#404040">
                        <set attributeName="fill" to="#808080" begin="arrowLeft.mouseover" end="arrowLeft.mouseout"/>
                  </use>
                  <path fill="none" stroke="white" stroke-width="1.5" d="M0,-3.0v7 M-2.5,-0.5L0,-3.0L2.5,-0.5"/>
                </g>
        </g>
        <svg viewBox="0 0 15 15" width="100%" height="30px" preserveAspectRatio="xMaxYMin meet">
         <g id="arrow_out" transform="scale(0.3 0.3)">
          <a xlink:href="Beams_8cpp__incl_org.svg" target="_base">
           <rect id="button" ry="5" rx="5" y="6" x="6" height="38" width="38"
                fill="#f2f5e9" fill-opacity="0.5" stroke="#606060" stroke-width="1.0"/>
           <path id="arrow"
             d="M 11.500037,31.436501 C 11.940474,20.09759 22.043105,11.32322 32.158766,21.979434 L 37.068811,17.246167 C 37.068811,17.246167 37.088388,32 37.088388,32 L 22.160133,31.978069 C 22.160133,31.978069 26.997745,27.140456 26.997745,27.140456 C 18.528582,18.264221 13.291696,25.230495 11.500037,31.436501 z"
             style="fill:#404040;"/>
          </a>
         </g>
        </svg>
</svg>
