<?xml version="1.0" encoding="UTF-8" standalone="no"?>
<!DOCTYPE svg PUBLIC "-//W3C//DTD SVG 1.1//EN"
 "http://www.w3.org/Graphics/SVG/1.1/DTD/svg11.dtd">
<!-- Generated by graphviz version 2.26.3 (20100126.1600)
 -->
<!-- Title: vector_math.h Pages: 1 -->
<svg width="524pt" height="88pt"
 viewBox="0.00 0.00 524.00 88.00" xmlns="http://www.w3.org/2000/svg" xmlns:xlink="http://www.w3.org/1999/xlink">
<g id="graph1" class="graph" transform="scale(1 1) rotate(0) translate(4 84)">
<title>vector_math.h</title>
<polygon fill="white" stroke="white" points="-4,5 -4,-84 521,-84 521,5 -4,5"/>
<!-- Node1 -->
<g id="node1" class="node"><title>Node1</title>
<polygon fill="#bfbfbf" stroke="black" points="199.5,-58.5 199.5,-79.5 278.5,-79.5 278.5,-58.5 199.5,-58.5"/>
<text text-anchor="middle" x="239" y="-66.5" font-family="Helvetica,sans-Serif" font-size="10.00">vector_math.h</text>
</g>
<!-- Node2 -->
<g id="node3" class="node"><title>Node2</title>
<a xlink:href="../../db/de1/Distributions_8cpp.html" target="_top" xlink:title="Distributions.cpp">
<polygon fill="white" stroke="black" points="0,-0.5 0,-21.5 90,-21.5 90,-0.5 0,-0.5"/>
<text text-anchor="middle" x="45" y="-8.5" font-family="Helvetica,sans-Serif" font-size="10.00">Distributions.cpp</text>
</a>
</g>
<!-- Node1&#45;&gt;Node2 -->
<g id="edge2" class="edge"><title>Node1&#45;&gt;Node2</title>
<path fill="none" stroke="midnightblue" d="M194,-55.5464C159.345,-45.1857 112.12,-31.0668 80.1978,-21.5231"/>
<polygon fill="midnightblue" stroke="midnightblue" points="193.285,-58.9855 203.868,-58.4966 195.29,-52.2788 193.285,-58.9855"/>
</g>
<!-- Node3 -->
<g id="node5" class="node"><title>Node3</title>
<a xlink:href="../../d7/d91/Slices_8cpp.html" target="_top" xlink:title="Slices.cpp">
<polygon fill="white" stroke="black" points="108,-0.5 108,-21.5 170,-21.5 170,-0.5 108,-0.5"/>
<text text-anchor="middle" x="139" y="-8.5" font-family="Helvetica,sans-Serif" font-size="10.00">Slices.cpp</text>
</a>
</g>
<!-- Node1&#45;&gt;Node3 -->
<g id="edge4" class="edge"><title>Node1&#45;&gt;Node3</title>
<path fill="none" stroke="midnightblue" d="M211.588,-53.1009C194.286,-43.0658 172.415,-30.3808 157.225,-21.5707"/>
<polygon fill="midnightblue" stroke="midnightblue" points="210.252,-56.3723 220.658,-58.3619 213.764,-50.3171 210.252,-56.3723"/>
</g>
<!-- Node4 -->
<g id="node7" class="node"><title>Node4</title>
<a xlink:href="../../d5/dfa/InducedVoltage_8cpp.html" target="_top" xlink:title="InducedVoltage.cpp">
<polygon fill="white" stroke="black" points="187.5,-0.5 187.5,-21.5 290.5,-21.5 290.5,-0.5 187.5,-0.5"/>
<text text-anchor="middle" x="239" y="-8.5" font-family="Helvetica,sans-Serif" font-size="10.00">InducedVoltage.cpp</text>
</a>
</g>
<!-- Node1&#45;&gt;Node4 -->
<g id="edge6" class="edge"><title>Node1&#45;&gt;Node4</title>
<path fill="none" stroke="midnightblue" d="M239,-48.1906C239,-39.1684 239,-28.9941 239,-21.5707"/>
<polygon fill="midnightblue" stroke="midnightblue" points="235.5,-48.3619 239,-58.3619 242.5,-48.3619 235.5,-48.3619"/>
</g>
<!-- Node5 -->
<g id="node9" class="node"><title>Node5</title>
<a xlink:href="../../d1/dca/Intensity_8cpp.html" target="_top" xlink:title="Intensity.cpp">
<polygon fill="white" stroke="black" points="307.5,-0.5 307.5,-21.5 380.5,-21.5 380.5,-0.5 307.5,-0.5"/>
<text text-anchor="middle" x="344" y="-8.5" font-family="Helvetica,sans-Serif" font-size="10.00">Intensity.cpp</text>
</a>
</g>
<!-- Node1&#45;&gt;Node5 -->
<g id="edge8" class="edge"><title>Node1&#45;&gt;Node5</title>
<path fill="none" stroke="midnightblue" d="M267.029,-53.5175C285.311,-43.4189 308.692,-30.5032 324.863,-21.5707"/>
<polygon fill="midnightblue" stroke="midnightblue" points="265.32,-50.463 258.259,-58.3619 268.704,-56.5903 265.32,-50.463"/>
</g>
<!-- Node6 -->
<g id="node11" class="node"><title>Node6</title>
<a xlink:href="../../da/d56/GeneralParameters_8cpp.html" target="_top" xlink:title="GeneralParameters.cpp">
<polygon fill="white" stroke="black" points="397.5,-0.5 397.5,-21.5 516.5,-21.5 516.5,-0.5 397.5,-0.5"/>
<text text-anchor="middle" x="457" y="-8.5" font-family="Helvetica,sans-Serif" font-size="10.00">GeneralParameters.cpp</text>
</a>
</g>
<!-- Node1&#45;&gt;Node6 -->
<g id="edge10" class="edge"><title>Node1&#45;&gt;Node6</title>
<path fill="none" stroke="midnightblue" d="M288.568,-55.8123C327.597,-45.4285 381.269,-31.1487 417.448,-21.5231"/>
<polygon fill="midnightblue" stroke="midnightblue" points="287.242,-52.5431 278.478,-58.4966 289.042,-59.3078 287.242,-52.5431"/>
</g>
</g>
</svg>
