<?xml version="1.0" encoding="UTF-8" standalone="no"?>
<!DOCTYPE svg PUBLIC "-//W3C//DTD SVG 1.1//EN"
 "http://www.w3.org/Graphics/SVG/1.1/DTD/svg11.dtd">
<!-- Generated by graphviz version 2.26.3 (20100126.1600)
 -->
<!-- Title: blond::fft::rfftfreq Pages: 1 -->
<svg width="618pt" height="120pt"
 viewBox="0.00 0.00 618.00 120.00" xmlns="http://www.w3.org/2000/svg" xmlns:xlink="http://www.w3.org/1999/xlink">
<g id="graph1" class="graph" transform="scale(1 1) rotate(0) translate(4 116)">
<title>blond::fft::rfftfreq</title>
<polygon fill="white" stroke="white" points="-4,5 -4,-116 615,-116 615,5 -4,5"/>
<!-- Node1 -->
<g id="node1" class="node"><title>Node1</title>
<polygon fill="#bfbfbf" stroke="black" points="0.5,-32.5 0.5,-53.5 89.5,-53.5 89.5,-32.5 0.5,-32.5"/>
<text text-anchor="middle" x="45" y="-40.5" font-family="Helvetica,sans-Serif" font-size="10.00">blond::fft::rfftfreq</text>
</g>
<!-- Node2 -->
<g id="node3" class="node"><title>Node2</title>
<a xlink:href="../../d4/d46/classblond_1_1Slices.html#a2fbf7afb49412b0c6cbbcac5cca64ee4" target="_top" xlink:title="blond::Slices::beam\l_spectrum_generation">
<polygon fill="white" stroke="black" points="136.5,-52 136.5,-86 249.5,-86 249.5,-52 136.5,-52"/>
<text text-anchor="start" x="144.5" y="-73" font-family="Helvetica,sans-Serif" font-size="10.00">blond::Slices::beam</text>
<text text-anchor="middle" x="193" y="-60" font-family="Helvetica,sans-Serif" font-size="10.00">_spectrum_generation</text>
</a>
</g>
<!-- Node1&#45;&gt;Node2 -->
<g id="edge2" class="edge"><title>Node1&#45;&gt;Node2</title>
<path fill="none" stroke="midnightblue" d="M99.9987,-52.6619C111.839,-54.7419 124.375,-56.9442 136.279,-59.0354"/>
<polygon fill="midnightblue" stroke="midnightblue" points="100.261,-49.1545 89.8065,-50.8714 99.0501,-56.049 100.261,-49.1545"/>
</g>
<!-- Node6 -->
<g id="node11" class="node"><title>Node6</title>
<a xlink:href="../../d2/d0a/classblond_1_1InducedVoltageFreq.html#afe551bb3c872cbd81f707837cf253402" target="_top" xlink:title="blond::InducedVoltageFreq\l::InducedVoltageFreq">
<polygon fill="white" stroke="black" points="126.5,-0 126.5,-34 259.5,-34 259.5,-0 126.5,-0"/>
<text text-anchor="start" x="134.5" y="-21" font-family="Helvetica,sans-Serif" font-size="10.00">blond::InducedVoltageFreq</text>
<text text-anchor="middle" x="193" y="-8" font-family="Helvetica,sans-Serif" font-size="10.00">::InducedVoltageFreq</text>
</a>
</g>
<!-- Node1&#45;&gt;Node6 -->
<g id="edge10" class="edge"><title>Node1&#45;&gt;Node6</title>
<path fill="none" stroke="midnightblue" d="M99.7318,-33.385C108.36,-31.8692 117.364,-30.2875 126.228,-28.7302"/>
<polygon fill="midnightblue" stroke="midnightblue" points="99.0501,-29.951 89.8065,-35.1286 100.261,-36.8455 99.0501,-29.951"/>
</g>
<!-- Node3 -->
<g id="node5" class="node"><title>Node3</title>
<a xlink:href="../../d2/d0a/classblond_1_1InducedVoltageFreq.html#a0c630f8ec5ab6d27427bb73dc11986a1" target="_top" xlink:title="blond::InducedVoltageFreq\l::induced_voltage_generation">
<polygon fill="white" stroke="black" points="296.5,-78 296.5,-112 439.5,-112 439.5,-78 296.5,-78"/>
<text text-anchor="start" x="304.5" y="-99" font-family="Helvetica,sans-Serif" font-size="10.00">blond::InducedVoltageFreq</text>
<text text-anchor="middle" x="368" y="-86" font-family="Helvetica,sans-Serif" font-size="10.00">::induced_voltage_generation</text>
</a>
</g>
<!-- Node2&#45;&gt;Node3 -->
<g id="edge4" class="edge"><title>Node2&#45;&gt;Node3</title>
<path fill="none" stroke="midnightblue" d="M259.749,-78.917C271.753,-80.7004 284.31,-82.566 296.443,-84.3687"/>
<polygon fill="midnightblue" stroke="midnightblue" points="260.223,-75.4491 249.817,-77.4415 259.195,-82.3731 260.223,-75.4491"/>
</g>
<!-- Node5 -->
<g id="node9" class="node"><title>Node5</title>
<a xlink:href="../../d2/d0a/classblond_1_1InducedVoltageFreq.html#ae3727a320bc179d51b54be5721224c99" target="_top" xlink:title="blond::InducedVoltageFreq\l::reprocess">
<polygon fill="white" stroke="black" points="301.5,-26 301.5,-60 434.5,-60 434.5,-26 301.5,-26"/>
<text text-anchor="start" x="309.5" y="-47" font-family="Helvetica,sans-Serif" font-size="10.00">blond::InducedVoltageFreq</text>
<text text-anchor="middle" x="368" y="-34" font-family="Helvetica,sans-Serif" font-size="10.00">::reprocess</text>
</a>
</g>
<!-- Node2&#45;&gt;Node5 -->
<g id="edge8" class="edge"><title>Node2&#45;&gt;Node5</title>
<path fill="none" stroke="midnightblue" d="M260.034,-59.0406C273.603,-57.0247 287.867,-54.9055 301.42,-52.8919"/>
<polygon fill="midnightblue" stroke="midnightblue" points="259.195,-55.6269 249.817,-60.5585 260.223,-62.5509 259.195,-55.6269"/>
</g>
<!-- Node4 -->
<g id="node7" class="node"><title>Node4</title>
<a xlink:href="../../d2/d0a/classblond_1_1InducedVoltageFreq.html#a93a0cc8269cbf89d0714e6f1513fa68a" target="_top" xlink:title="blond::InducedVoltageFreq\l::track">
<polygon fill="white" stroke="black" points="476.5,-78 476.5,-112 609.5,-112 609.5,-78 476.5,-78"/>
<text text-anchor="start" x="484.5" y="-99" font-family="Helvetica,sans-Serif" font-size="10.00">blond::InducedVoltageFreq</text>
<text text-anchor="middle" x="543" y="-86" font-family="Helvetica,sans-Serif" font-size="10.00">::track</text>
</a>
</g>
<!-- Node3&#45;&gt;Node4 -->
<g id="edge6" class="edge"><title>Node3&#45;&gt;Node4</title>
<path fill="none" stroke="midnightblue" d="M449.747,-95C458.709,-95 467.751,-95 476.496,-95"/>
<polygon fill="midnightblue" stroke="midnightblue" points="449.684,-91.5001 439.684,-95 449.684,-98.5001 449.684,-91.5001"/>
</g>
</g>
</svg>
