<?xml version="1.0" encoding="UTF-8" standalone="no"?>
<!DOCTYPE svg PUBLIC "-//W3C//DTD SVG 1.1//EN"
 "http://www.w3.org/Graphics/SVG/1.1/DTD/svg11.dtd">
<!-- Generated by graphviz version 2.26.3 (20100126.1600)
 -->
<!-- Title: blond::fft::convolution_with_ffts Pages: 1 -->
<!--zoomable 162 -->
<svg id="main" version="1.1" xmlns="http://www.w3.org/2000/svg" xmlns:xlink="http://www.w3.org/1999/xlink" xml:space="preserve" onload="init(evt)">
        <defs>
                <circle id="rim" cx="0" cy="0" r="7"/>
                <circle id="rim2" cx="0" cy="0" r="3.5"/>
                <g id="zoomPlus">
                        <use xlink:href="#rim" fill="#404040">
                                <set attributeName="fill" to="#808080" begin="zoomplus.mouseover" end="zoomplus.mouseout"/>
                        </use>
                        <path d="M-4,0h8M0,-4v8" fill="none" stroke="white" stroke-width="1.5" pointer-events="none"/>
                </g>
                <g id="zoomMin">
                        <use xlink:href="#rim" fill="#404040">
                                <set attributeName="fill" to="#808080" begin="zoomminus.mouseover" end="zoomminus.mouseout"/>
                        </use>
                        <path d="M-4,0h8" fill="none" stroke="white" stroke-width="1.5" pointer-events="none"/>
                </g>
                <g id="dirArrow">
                        <path fill="none" stroke="white" stroke-width="1.5" d="M0,-3.0v7 M-2.5,-0.5L0,-3.0L2.5,-0.5"/>
                </g>
               <g id="resetDef">
                       <use xlink:href="#rim2" fill="#404040">
                               <set attributeName="fill" to="#808080" begin="reset.mouseover" end="reset.mouseout"/>
                       </use>
               </g>
        </defs>

<script type="text/javascript">
var viewWidth = 670;
var viewHeight = 162;
var sectionId = 'dynsection-0';
</script>
<script xlink:href="../../svgpan.js"/>
<svg id="graph" class="graph">
<g id="viewport">
<title>blond::fft::convolution_with_ffts</title>
<polygon fill="white" stroke="white" points="-4,5 -4,-158 667,-158 667,5 -4,5"/>
<!-- Node1 -->
<g id="node1" class="node"><title>Node1</title>
<polygon fill="#bfbfbf" stroke="black" points="0,-46 0,-80 110,-80 110,-46 0,-46"/>
<text text-anchor="start" x="8" y="-67" font-family="Helvetica,sans-Serif" font-size="10.00">blond::fft::convolution</text>
<text text-anchor="middle" x="55" y="-54" font-family="Helvetica,sans-Serif" font-size="10.00">_with_ffts</text>
</g>
<!-- Node2 -->
<g id="node3" class="node"><title>Node2</title>
<a xlink:href="../../d3/d4e/namespaceblond_1_1fft.html#af47bde766cda6e8d4d10abe619840306" target="_top" xlink:title="blond::fft::irfft">
<polygon fill="white" stroke="black" points="162.5,-52.5 162.5,-73.5 237.5,-73.5 237.5,-52.5 162.5,-52.5"/>
<text text-anchor="middle" x="200" y="-60.5" font-family="Helvetica,sans-Serif" font-size="10.00">blond::fft::irfft</text>
</a>
</g>
<!-- Node1&#45;&gt;Node2 -->
<g id="edge2" class="edge"><title>Node1&#45;&gt;Node2</title>
<path fill="none" stroke="midnightblue" d="M110.232,-63C124.135,-63 138.938,-63 152.429,-63"/>
<polygon fill="midnightblue" stroke="midnightblue" points="152.454,-66.5001 162.454,-63 152.454,-59.5001 152.454,-66.5001"/>
</g>
<!-- Node9 -->
<g id="node17" class="node"><title>Node9</title>
<a xlink:href="../../d5/d60/namespaceblond.html#a4b29fc0875cbcb04033fee03ac0fa989" target="_top" xlink:title="blond::omp_get_max\l_threads">
<polygon fill="white" stroke="black" points="146.5,-0 146.5,-34 253.5,-34 253.5,-0 146.5,-0"/>
<text text-anchor="start" x="154.5" y="-21" font-family="Helvetica,sans-Serif" font-size="10.00">blond::omp_get_max</text>
<text text-anchor="middle" x="200" y="-8" font-family="Helvetica,sans-Serif" font-size="10.00">_threads</text>
</a>
</g>
<!-- Node1&#45;&gt;Node9 -->
<g id="edge16" class="edge"><title>Node1&#45;&gt;Node9</title>
<path fill="none" stroke="midnightblue" d="M108.993,-45.8713C118.076,-42.9896 127.575,-39.9762 136.865,-37.0289"/>
<polygon fill="midnightblue" stroke="midnightblue" points="137.972,-40.35 146.445,-33.9898 135.855,-33.6777 137.972,-40.35"/>
</g>
<!-- Node10 -->
<g id="node19" class="node"><title>Node10</title>
<a xlink:href="../../d3/d4e/namespaceblond_1_1fft.html#aab55a4741fafe3a1bbbce2db72a7930c" target="_top" xlink:title="blond::fft::rfft">
<polygon fill="white" stroke="black" points="163.5,-92.5 163.5,-113.5 236.5,-113.5 236.5,-92.5 163.5,-92.5"/>
<text text-anchor="middle" x="200" y="-100.5" font-family="Helvetica,sans-Serif" font-size="10.00">blond::fft::rfft</text>
</a>
</g>
<!-- Node1&#45;&gt;Node10 -->
<g id="edge18" class="edge"><title>Node1&#45;&gt;Node10</title>
<path fill="none" stroke="midnightblue" d="M110.232,-78.2364C124.529,-82.1804 139.778,-86.3869 153.573,-90.1925"/>
<polygon fill="midnightblue" stroke="midnightblue" points="152.756,-93.5979 163.327,-92.8833 154.618,-86.85 152.756,-93.5979"/>
</g>
<!-- Node3 -->
<g id="node5" class="node"><title>Node3</title>
<a xlink:href="../../d3/d4e/namespaceblond_1_1fft.html#a4d694b9a511d426d61f827ae67867af0" target="_top" xlink:title="blond::fft::find_plan">
<polygon fill="white" stroke="black" points="290,-92.5 290,-113.5 390,-113.5 390,-92.5 290,-92.5"/>
<text text-anchor="middle" x="340" y="-100.5" font-family="Helvetica,sans-Serif" font-size="10.00">blond::fft::find_plan</text>
</a>
</g>
<!-- Node2&#45;&gt;Node3 -->
<g id="edge4" class="edge"><title>Node2&#45;&gt;Node3</title>
<path fill="none" stroke="midnightblue" d="M236.783,-73.5095C254.089,-78.454 274.92,-84.4058 293.324,-89.6639"/>
<polygon fill="midnightblue" stroke="midnightblue" points="292.399,-93.0398 302.976,-92.4218 294.323,-86.3092 292.399,-93.0398"/>
</g>
<!-- Node8 -->
<g id="node15" class="node"><title>Node8</title>
<a xlink:href="../../d3/d4e/namespaceblond_1_1fft.html#ae51b67b43753656e0abcdbbeb847dc6d" target="_top" xlink:title="blond::fft::run_fft">
<polygon fill="white" stroke="black" points="295.5,-52.5 295.5,-73.5 384.5,-73.5 384.5,-52.5 295.5,-52.5"/>
<text text-anchor="middle" x="340" y="-60.5" font-family="Helvetica,sans-Serif" font-size="10.00">blond::fft::run_fft</text>
</a>
</g>
<!-- Node2&#45;&gt;Node8 -->
<g id="edge14" class="edge"><title>Node2&#45;&gt;Node8</title>
<path fill="none" stroke="midnightblue" d="M237.517,-63C252.135,-63 269.18,-63 285.125,-63"/>
<polygon fill="midnightblue" stroke="midnightblue" points="285.409,-66.5001 295.408,-63 285.408,-59.5001 285.409,-66.5001"/>
</g>
<!-- Node4 -->
<g id="node7" class="node"><title>Node4</title>
<a xlink:href="../../d3/d4e/namespaceblond_1_1fft.html#a35b440b10540932759ed4717efff2ff0" target="_top" xlink:title="blond::fft::init_fft">
<polygon fill="white" stroke="black" points="429,-132.5 429,-153.5 517,-153.5 517,-132.5 429,-132.5"/>
<text text-anchor="middle" x="473" y="-140.5" font-family="Helvetica,sans-Serif" font-size="10.00">blond::fft::init_fft</text>
</a>
</g>
<!-- Node3&#45;&gt;Node4 -->
<g id="edge6" class="edge"><title>Node3&#45;&gt;Node4</title>
<path fill="none" stroke="midnightblue" d="M374.944,-113.51C391.157,-118.386 410.628,-124.241 427.931,-129.445"/>
<polygon fill="midnightblue" stroke="midnightblue" points="427.243,-132.893 437.827,-132.422 429.259,-126.19 427.243,-132.893"/>
</g>
<!-- Node6 -->
<g id="node11" class="node"><title>Node6</title>
<a xlink:href="../../d3/d4e/namespaceblond_1_1fft.html#a513059305dbf73b667991950c11cc4ba" target="_top" xlink:title="blond::fft::init_rfft">
<polygon fill="white" stroke="black" points="427.5,-92.5 427.5,-113.5 518.5,-113.5 518.5,-92.5 427.5,-92.5"/>
<text text-anchor="middle" x="473" y="-100.5" font-family="Helvetica,sans-Serif" font-size="10.00">blond::fft::init_rfft</text>
</a>
</g>
<!-- Node3&#45;&gt;Node6 -->
<g id="edge10" class="edge"><title>Node3&#45;&gt;Node6</title>
<path fill="none" stroke="midnightblue" d="M390.282,-103C399.154,-103 408.436,-103 417.443,-103"/>
<polygon fill="midnightblue" stroke="midnightblue" points="417.459,-106.5 427.459,-103 417.459,-99.5001 417.459,-106.5"/>
</g>
<!-- Node7 -->
<g id="node13" class="node"><title>Node7</title>
<a xlink:href="../../d3/d4e/namespaceblond_1_1fft.html#a03d82dcc1442ea1299b83874ced97f19" target="_top" xlink:title="blond::fft::init_irfft">
<polygon fill="white" stroke="black" points="426.5,-52.5 426.5,-73.5 519.5,-73.5 519.5,-52.5 426.5,-52.5"/>
<text text-anchor="middle" x="473" y="-60.5" font-family="Helvetica,sans-Serif" font-size="10.00">blond::fft::init_irfft</text>
</a>
</g>
<!-- Node3&#45;&gt;Node7 -->
<g id="edge12" class="edge"><title>Node3&#45;&gt;Node7</title>
<path fill="none" stroke="midnightblue" d="M374.944,-92.4905C391.157,-87.6144 410.628,-81.7585 427.931,-76.5546"/>
<polygon fill="midnightblue" stroke="midnightblue" points="429.259,-79.8101 437.827,-73.5782 427.243,-73.1067 429.259,-79.8101"/>
</g>
<!-- Node5 -->
<g id="node9" class="node"><title>Node5</title>
<a xlink:href="../../dc/d3e/namespaceblond_1_1mymath.html#a571019da04b332a0d4981d4357050fa1" target="_top" xlink:title="blond::mymath::sign">
<polygon fill="white" stroke="black" points="556.5,-132.5 556.5,-153.5 661.5,-153.5 661.5,-132.5 556.5,-132.5"/>
<text text-anchor="middle" x="609" y="-140.5" font-family="Helvetica,sans-Serif" font-size="10.00">blond::mymath::sign</text>
</a>
</g>
<!-- Node4&#45;&gt;Node5 -->
<g id="edge8" class="edge"><title>Node4&#45;&gt;Node5</title>
<path fill="none" stroke="midnightblue" d="M517.155,-143C526.366,-143 536.244,-143 545.986,-143"/>
<polygon fill="midnightblue" stroke="midnightblue" points="546.054,-146.5 556.054,-143 546.054,-139.5 546.054,-146.5"/>
</g>
<!-- Node10&#45;&gt;Node3 -->
<g id="edge20" class="edge"><title>Node10&#45;&gt;Node3</title>
<path fill="none" stroke="midnightblue" d="M236.783,-103C249.822,-103 264.862,-103 279.356,-103"/>
<polygon fill="midnightblue" stroke="midnightblue" points="279.778,-106.5 289.778,-103 279.778,-99.5001 279.778,-106.5"/>
</g>
<!-- Node10&#45;&gt;Node8 -->
<g id="edge22" class="edge"><title>Node10&#45;&gt;Node8</title>
<path fill="none" stroke="midnightblue" d="M236.783,-92.4905C254.089,-87.546 274.92,-81.5942 293.324,-76.3361"/>
<polygon fill="midnightblue" stroke="midnightblue" points="294.323,-79.6908 302.976,-73.5782 292.399,-72.9602 294.323,-79.6908"/>
</g>
</g>
</svg>
        <g id="navigator" transform="translate(0 0)" fill="#404254">
                <rect fill="#f2f5e9" fill-opacity="0.5" stroke="#606060" stroke-width=".5" x="0" y="0" width="60" height="60"/>
                <use id="zoomplus" xlink:href="#zoomPlus" x="17" y="9" onmousedown="handleZoom(evt,'in')"/>
                <use id="zoomminus" xlink:href="#zoomMin" x="42" y="9" onmousedown="handleZoom(evt,'out')"/>
                <use id="reset" xlink:href="#resetDef" x="30" y="36" onmousedown="handleReset()"/>
                <g id="arrowUp" xlink:href="#dirArrow" transform="translate(30 24)" onmousedown="handlePan(0,-1)">
                  <use xlink:href="#rim" fill="#404040">
                        <set attributeName="fill" to="#808080" begin="arrowUp.mouseover" end="arrowUp.mouseout"/>
                  </use>
                  <path fill="none" stroke="white" stroke-width="1.5" d="M0,-3.0v7 M-2.5,-0.5L0,-3.0L2.5,-0.5"/>
                </g>
                <g id="arrowRight" xlink:href="#dirArrow" transform="rotate(90) translate(36 -43)" onmousedown="handlePan(1,0)">
                  <use xlink:href="#rim" fill="#404040">
                        <set attributeName="fill" to="#808080" begin="arrowRight.mouseover" end="arrowRight.mouseout"/>
                  </use>
                  <path fill="none" stroke="white" stroke-width="1.5" d="M0,-3.0v7 M-2.5,-0.5L0,-3.0L2.5,-0.5"/>
                </g>
                <g id="arrowDown" xlink:href="#dirArrow" transform="rotate(180) translate(-30 -48)" onmousedown="handlePan(0,1)">
                  <use xlink:href="#rim" fill="#404040">
                        <set attributeName="fill" to="#808080" begin="arrowDown.mouseover" end="arrowDown.mouseout"/>
                  </use>
                  <path fill="none" stroke="white" stroke-width="1.5" d="M0,-3.0v7 M-2.5,-0.5L0,-3.0L2.5,-0.5"/>
                </g>
                <g id="arrowLeft" xlink:href="#dirArrow" transform="rotate(270) translate(-36 17)" onmousedown="handlePan(-1,0)">
                  <use xlink:href="#rim" fill="#404040">
                        <set attributeName="fill" to="#808080" begin="arrowLeft.mouseover" end="arrowLeft.mouseout"/>
                  </use>
                  <path fill="none" stroke="white" stroke-width="1.5" d="M0,-3.0v7 M-2.5,-0.5L0,-3.0L2.5,-0.5"/>
                </g>
        </g>
        <svg viewBox="0 0 15 15" width="100%" height="30px" preserveAspectRatio="xMaxYMin meet">
         <g id="arrow_out" transform="scale(0.3 0.3)">
          <a xlink:href="namespaceblond_1_1fft_a6e134220d8959b84a08cbe724ce65f2c_cgraph_org.svg" target="_base">
           <rect id="button" ry="5" rx="5" y="6" x="6" height="38" width="38"
                fill="#f2f5e9" fill-opacity="0.5" stroke="#606060" stroke-width="1.0"/>
           <path id="arrow"
             d="M 11.500037,31.436501 C 11.940474,20.09759 22.043105,11.32322 32.158766,21.979434 L 37.068811,17.246167 C 37.068811,17.246167 37.088388,32 37.088388,32 L 22.160133,31.978069 C 22.160133,31.978069 26.997745,27.140456 26.997745,27.140456 C 18.528582,18.264221 13.291696,25.230495 11.500037,31.436501 z"
             style="fill:#404040;"/>
          </a>
         </g>
        </svg>
</svg>
