<?xml version="1.0" encoding="UTF-8" standalone="no"?>
<!DOCTYPE svg PUBLIC "-//W3C//DTD SVG 1.1//EN"
 "http://www.w3.org/Graphics/SVG/1.1/DTD/svg11.dtd">
<!-- Generated by graphviz version 2.26.3 (20100126.1600)
 -->
<!-- Title: blond::fft::run_fft Pages: 1 -->
<!--zoomable 250 -->
<svg id="main" version="1.1" xmlns="http://www.w3.org/2000/svg" xmlns:xlink="http://www.w3.org/1999/xlink" xml:space="preserve" onload="init(evt)">
        <defs>
                <circle id="rim" cx="0" cy="0" r="7"/>
                <circle id="rim2" cx="0" cy="0" r="3.5"/>
                <g id="zoomPlus">
                        <use xlink:href="#rim" fill="#404040">
                                <set attributeName="fill" to="#808080" begin="zoomplus.mouseover" end="zoomplus.mouseout"/>
                        </use>
                        <path d="M-4,0h8M0,-4v8" fill="none" stroke="white" stroke-width="1.5" pointer-events="none"/>
                </g>
                <g id="zoomMin">
                        <use xlink:href="#rim" fill="#404040">
                                <set attributeName="fill" to="#808080" begin="zoomminus.mouseover" end="zoomminus.mouseout"/>
                        </use>
                        <path d="M-4,0h8" fill="none" stroke="white" stroke-width="1.5" pointer-events="none"/>
                </g>
                <g id="dirArrow">
                        <path fill="none" stroke="white" stroke-width="1.5" d="M0,-3.0v7 M-2.5,-0.5L0,-3.0L2.5,-0.5"/>
                </g>
               <g id="resetDef">
                       <use xlink:href="#rim2" fill="#404040">
                               <set attributeName="fill" to="#808080" begin="reset.mouseover" end="reset.mouseout"/>
                       </use>
               </g>
        </defs>

<script type="text/javascript">
var viewWidth = 742;
var viewHeight = 250;
var sectionId = 'dynsection-18';
</script>
<script xlink:href="../../svgpan.js"/>
<svg id="graph" class="graph">
<g id="viewport">
<title>blond::fft::run_fft</title>
<polygon fill="white" stroke="white" points="-4,5 -4,-246 739,-246 739,5 -4,5"/>
<!-- Node1 -->
<g id="node1" class="node"><title>Node1</title>
<polygon fill="#bfbfbf" stroke="black" points="0.5,-131.5 0.5,-152.5 89.5,-152.5 89.5,-131.5 0.5,-131.5"/>
<text text-anchor="middle" x="45" y="-139.5" font-family="Helvetica,sans-Serif" font-size="10.00">blond::fft::run_fft</text>
</g>
<!-- Node2 -->
<g id="node3" class="node"><title>Node2</title>
<a xlink:href="../../d3/d4e/namespaceblond_1_1fft.html#a0910435f734bc58c834c412ef06cdade" target="_top" xlink:title="blond::fft::fft">
<polygon fill="white" stroke="black" points="129,-191.5 129,-212.5 199,-212.5 199,-191.5 129,-191.5"/>
<text text-anchor="middle" x="164" y="-199.5" font-family="Helvetica,sans-Serif" font-size="10.00">blond::fft::fft</text>
</a>
</g>
<!-- Node1&#45;&gt;Node2 -->
<g id="edge2" class="edge"><title>Node1&#45;&gt;Node2</title>
<path fill="none" stroke="midnightblue" d="M75.1878,-157.221C96.3098,-167.87 124.001,-181.833 142.809,-191.315"/>
<polygon fill="midnightblue" stroke="midnightblue" points="76.5059,-153.966 66.0009,-152.589 73.3543,-160.216 76.5059,-153.966"/>
</g>
<!-- Node6 -->
<g id="node11" class="node"><title>Node6</title>
<a xlink:href="../../d3/d4e/namespaceblond_1_1fft.html#aa8add91c70bc4dd5be3a56f08ddb05e7" target="_top" xlink:title="blond::fft::ifft">
<polygon fill="white" stroke="black" points="128,-151.5 128,-172.5 200,-172.5 200,-151.5 128,-151.5"/>
<text text-anchor="middle" x="164" y="-159.5" font-family="Helvetica,sans-Serif" font-size="10.00">blond::fft::ifft</text>
</a>
</g>
<!-- Node1&#45;&gt;Node6 -->
<g id="edge10" class="edge"><title>Node1&#45;&gt;Node6</title>
<path fill="none" stroke="midnightblue" d="M99.7884,-151.208C109.231,-152.795 118.833,-154.409 127.636,-155.888"/>
<polygon fill="midnightblue" stroke="midnightblue" points="100.092,-147.71 89.6498,-149.504 98.9313,-154.613 100.092,-147.71"/>
</g>
<!-- Node7 -->
<g id="node14" class="node"><title>Node7</title>
<a xlink:href="../../d3/d4e/namespaceblond_1_1fft.html#af47bde766cda6e8d4d10abe619840306" target="_top" xlink:title="blond::fft::irfft">
<polygon fill="white" stroke="black" points="126.5,-111.5 126.5,-132.5 201.5,-132.5 201.5,-111.5 126.5,-111.5"/>
<text text-anchor="middle" x="164" y="-119.5" font-family="Helvetica,sans-Serif" font-size="10.00">blond::fft::irfft</text>
</a>
</g>
<!-- Node1&#45;&gt;Node7 -->
<g id="edge14" class="edge"><title>Node1&#45;&gt;Node7</title>
<path fill="none" stroke="midnightblue" d="M99.7567,-132.797C108.804,-131.277 117.998,-129.731 126.496,-128.303"/>
<polygon fill="midnightblue" stroke="midnightblue" points="98.9313,-129.387 89.6498,-134.496 100.092,-136.29 98.9313,-129.387"/>
</g>
<!-- Node13 -->
<g id="node27" class="node"><title>Node13</title>
<a xlink:href="../../d3/d4e/namespaceblond_1_1fft.html#aab55a4741fafe3a1bbbce2db72a7930c" target="_top" xlink:title="blond::fft::rfft">
<polygon fill="white" stroke="black" points="127.5,-69.5 127.5,-90.5 200.5,-90.5 200.5,-69.5 127.5,-69.5"/>
<text text-anchor="middle" x="164" y="-77.5" font-family="Helvetica,sans-Serif" font-size="10.00">blond::fft::rfft</text>
</a>
</g>
<!-- Node1&#45;&gt;Node13 -->
<g id="edge28" class="edge"><title>Node1&#45;&gt;Node13</title>
<path fill="none" stroke="midnightblue" d="M74.2344,-126.769C95.8088,-115.528 124.619,-100.518 143.714,-90.569"/>
<polygon fill="midnightblue" stroke="midnightblue" points="72.438,-123.758 65.1867,-131.483 75.6725,-129.966 72.438,-123.758"/>
</g>
<!-- Node3 -->
<g id="node5" class="node"><title>Node3</title>
<a xlink:href="../../dc/d58/classblond_1_1PhaseNoise.html#a5b9bb8a443851f55cd0845608c35112f" target="_top" xlink:title="blond::PhaseNoise::\lspectrum_to_phase_noise">
<polygon fill="white" stroke="black" points="238.5,-154 238.5,-188 369.5,-188 369.5,-154 238.5,-154"/>
<text text-anchor="start" x="246.5" y="-175" font-family="Helvetica,sans-Serif" font-size="10.00">blond::PhaseNoise::</text>
<text text-anchor="middle" x="304" y="-162" font-family="Helvetica,sans-Serif" font-size="10.00">spectrum_to_phase_noise</text>
</a>
</g>
<!-- Node2&#45;&gt;Node3 -->
<g id="edge4" class="edge"><title>Node2&#45;&gt;Node3</title>
<path fill="none" stroke="midnightblue" d="M209.158,-192.001C218.497,-189.933 228.514,-187.715 238.413,-185.523"/>
<polygon fill="midnightblue" stroke="midnightblue" points="208.335,-188.598 199.328,-194.177 209.848,-195.433 208.335,-188.598"/>
</g>
<!-- Node4 -->
<g id="node7" class="node"><title>Node4</title>
<a xlink:href="../../dd/d85/classblond_1_1LHCFlatSpectrum.html#a2c1a3a410f3213af74e4839aaa560e80" target="_top" xlink:title="blond::LHCFlatSpectrum\l::generate">
<polygon fill="white" stroke="black" points="421.5,-156 421.5,-190 546.5,-190 546.5,-156 421.5,-156"/>
<text text-anchor="start" x="429.5" y="-177" font-family="Helvetica,sans-Serif" font-size="10.00">blond::LHCFlatSpectrum</text>
<text text-anchor="middle" x="484" y="-164" font-family="Helvetica,sans-Serif" font-size="10.00">::generate</text>
</a>
</g>
<!-- Node3&#45;&gt;Node4 -->
<g id="edge6" class="edge"><title>Node3&#45;&gt;Node4</title>
<path fill="none" stroke="midnightblue" d="M379.755,-171.842C393.638,-171.996 407.984,-172.155 421.428,-172.305"/>
<polygon fill="midnightblue" stroke="midnightblue" points="379.787,-168.342 369.748,-171.731 379.709,-175.342 379.787,-168.342"/>
</g>
<!-- Node5 -->
<g id="node9" class="node"><title>Node5</title>
<a xlink:href="../../db/d42/classblond_1_1PSBPhaseNoiseInjection.html#a0afaaacc5c71047473edfcf7613f6f6f" target="_top" xlink:title="blond::PSBPhaseNoiseInjection\l::generate">
<polygon fill="white" stroke="black" points="406,-208 406,-242 562,-242 562,-208 406,-208"/>
<text text-anchor="start" x="414" y="-229" font-family="Helvetica,sans-Serif" font-size="10.00">blond::PSBPhaseNoiseInjection</text>
<text text-anchor="middle" x="484" y="-216" font-family="Helvetica,sans-Serif" font-size="10.00">::generate</text>
</a>
</g>
<!-- Node3&#45;&gt;Node5 -->
<g id="edge8" class="edge"><title>Node3&#45;&gt;Node5</title>
<path fill="none" stroke="midnightblue" d="M370.779,-191.034C389.294,-196.588 409.216,-202.565 427.109,-207.933"/>
<polygon fill="midnightblue" stroke="midnightblue" points="371.537,-187.607 360.953,-188.086 369.526,-194.312 371.537,-187.607"/>
</g>
<!-- Node6&#45;&gt;Node3 -->
<g id="edge12" class="edge"><title>Node6&#45;&gt;Node3</title>
<path fill="none" stroke="midnightblue" d="M210.323,-164.978C219.339,-165.558 228.949,-166.175 238.45,-166.786"/>
<polygon fill="midnightblue" stroke="midnightblue" points="210.257,-161.467 200.053,-164.318 209.808,-168.452 210.257,-161.467"/>
</g>
<!-- Node7&#45;&gt;Node3 -->
<g id="edge26" class="edge"><title>Node7&#45;&gt;Node3</title>
<path fill="none" stroke="midnightblue" d="M203.652,-135.878C219.712,-141.499 238.416,-148.046 255.294,-153.953"/>
<polygon fill="midnightblue" stroke="midnightblue" points="204.628,-132.512 194.034,-132.512 202.316,-139.119 204.628,-132.512"/>
</g>
<!-- Node8 -->
<g id="node16" class="node"><title>Node8</title>
<a xlink:href="../../d3/d4e/namespaceblond_1_1fft.html#a6e134220d8959b84a08cbe724ce65f2c" target="_top" xlink:title="blond::fft::convolution\l_with_ffts">
<polygon fill="white" stroke="black" points="249,-62 249,-96 359,-96 359,-62 249,-62"/>
<text text-anchor="start" x="257" y="-83" font-family="Helvetica,sans-Serif" font-size="10.00">blond::fft::convolution</text>
<text text-anchor="middle" x="304" y="-70" font-family="Helvetica,sans-Serif" font-size="10.00">_with_ffts</text>
</a>
</g>
<!-- Node7&#45;&gt;Node8 -->
<g id="edge16" class="edge"><title>Node7&#45;&gt;Node8</title>
<path fill="none" stroke="midnightblue" d="M207.867,-108.527C220.85,-104.539 235.234,-100.121 248.835,-95.9436"/>
<polygon fill="midnightblue" stroke="midnightblue" points="206.779,-105.199 198.248,-111.481 208.835,-111.891 206.779,-105.199"/>
</g>
<!-- Node11 -->
<g id="node22" class="node"><title>Node11</title>
<a xlink:href="../../d2/d0a/classblond_1_1InducedVoltageFreq.html#a0c630f8ec5ab6d27427bb73dc11986a1" target="_top" xlink:title="blond::InducedVoltageFreq\l::induced_voltage_generation">
<polygon fill="white" stroke="black" points="412.5,-104 412.5,-138 555.5,-138 555.5,-104 412.5,-104"/>
<text text-anchor="start" x="420.5" y="-125" font-family="Helvetica,sans-Serif" font-size="10.00">blond::InducedVoltageFreq</text>
<text text-anchor="middle" x="484" y="-112" font-family="Helvetica,sans-Serif" font-size="10.00">::induced_voltage_generation</text>
</a>
</g>
<!-- Node7&#45;&gt;Node11 -->
<g id="edge22" class="edge"><title>Node7&#45;&gt;Node11</title>
<path fill="none" stroke="midnightblue" d="M211.806,-121.851C264.891,-121.685 351.146,-121.415 412.318,-121.224"/>
<polygon fill="midnightblue" stroke="midnightblue" points="211.638,-118.351 201.649,-121.882 211.66,-125.351 211.638,-118.351"/>
</g>
<!-- Node9 -->
<g id="node18" class="node"><title>Node9</title>
<a xlink:href="../../db/de7/classblond_1_1InducedVoltageTime.html#a40304e836dcf242c889cd46751e25c88" target="_top" xlink:title="blond::InducedVoltageTime\l::induced_voltage_generation">
<polygon fill="white" stroke="black" points="412.5,-52 412.5,-86 555.5,-86 555.5,-52 412.5,-52"/>
<text text-anchor="start" x="420.5" y="-73" font-family="Helvetica,sans-Serif" font-size="10.00">blond::InducedVoltageTime</text>
<text text-anchor="middle" x="484" y="-60" font-family="Helvetica,sans-Serif" font-size="10.00">::induced_voltage_generation</text>
</a>
</g>
<!-- Node8&#45;&gt;Node9 -->
<g id="edge18" class="edge"><title>Node8&#45;&gt;Node9</title>
<path fill="none" stroke="midnightblue" d="M369.473,-75.3626C383.441,-74.5866 398.262,-73.7632 412.445,-72.9753"/>
<polygon fill="midnightblue" stroke="midnightblue" points="369.265,-71.8687 359.475,-75.9181 369.653,-78.8579 369.265,-71.8687"/>
</g>
<!-- Node10 -->
<g id="node20" class="node"><title>Node10</title>
<a xlink:href="../../db/de7/classblond_1_1InducedVoltageTime.html#af93ca939b9d7e240a346c89d791c30c8" target="_top" xlink:title="blond::InducedVoltageTime\l::track">
<polygon fill="white" stroke="black" points="598.5,-52 598.5,-86 733.5,-86 733.5,-52 598.5,-52"/>
<text text-anchor="start" x="606.5" y="-73" font-family="Helvetica,sans-Serif" font-size="10.00">blond::InducedVoltageTime</text>
<text text-anchor="middle" x="666" y="-60" font-family="Helvetica,sans-Serif" font-size="10.00">::track</text>
</a>
</g>
<!-- Node9&#45;&gt;Node10 -->
<g id="edge20" class="edge"><title>Node9&#45;&gt;Node10</title>
<path fill="none" stroke="midnightblue" d="M565.953,-69C576.755,-69 587.728,-69 598.257,-69"/>
<polygon fill="midnightblue" stroke="midnightblue" points="565.67,-65.5001 555.67,-69 565.67,-72.5001 565.67,-65.5001"/>
</g>
<!-- Node12 -->
<g id="node24" class="node"><title>Node12</title>
<a xlink:href="../../d2/d0a/classblond_1_1InducedVoltageFreq.html#a93a0cc8269cbf89d0714e6f1513fa68a" target="_top" xlink:title="blond::InducedVoltageFreq\l::track">
<polygon fill="white" stroke="black" points="599.5,-104 599.5,-138 732.5,-138 732.5,-104 599.5,-104"/>
<text text-anchor="start" x="607.5" y="-125" font-family="Helvetica,sans-Serif" font-size="10.00">blond::InducedVoltageFreq</text>
<text text-anchor="middle" x="666" y="-112" font-family="Helvetica,sans-Serif" font-size="10.00">::track</text>
</a>
</g>
<!-- Node11&#45;&gt;Node12 -->
<g id="edge24" class="edge"><title>Node11&#45;&gt;Node12</title>
<path fill="none" stroke="midnightblue" d="M565.904,-121C577.126,-121 588.534,-121 599.437,-121"/>
<polygon fill="midnightblue" stroke="midnightblue" points="565.67,-117.5 555.67,-121 565.67,-124.5 565.67,-117.5"/>
</g>
<!-- Node13&#45;&gt;Node3 -->
<g id="edge38" class="edge"><title>Node13&#45;&gt;Node3</title>
<path fill="none" stroke="midnightblue" d="M191.956,-95.8861C195.361,-97.9087 198.774,-99.9786 202,-102 228.994,-118.915 259.118,-139.515 279.585,-153.779"/>
<polygon fill="midnightblue" stroke="midnightblue" points="193.497,-92.7329 183.098,-90.7086 189.965,-98.7764 193.497,-92.7329"/>
</g>
<!-- Node13&#45;&gt;Node8 -->
<g id="edge36" class="edge"><title>Node13&#45;&gt;Node8</title>
<path fill="none" stroke="midnightblue" d="M211.098,-79.6636C223.183,-79.5773 236.291,-79.4836 248.747,-79.3947"/>
<polygon fill="midnightblue" stroke="midnightblue" points="210.758,-76.1658 200.783,-79.7373 210.808,-83.1656 210.758,-76.1658"/>
</g>
<!-- Node14 -->
<g id="node29" class="node"><title>Node14</title>
<a xlink:href="../../d4/d46/classblond_1_1Slices.html#a2fbf7afb49412b0c6cbbcac5cca64ee4" target="_top" xlink:title="blond::Slices::beam\l_spectrum_generation">
<polygon fill="white" stroke="black" points="247.5,-10 247.5,-44 360.5,-44 360.5,-10 247.5,-10"/>
<text text-anchor="start" x="255.5" y="-31" font-family="Helvetica,sans-Serif" font-size="10.00">blond::Slices::beam</text>
<text text-anchor="middle" x="304" y="-18" font-family="Helvetica,sans-Serif" font-size="10.00">_spectrum_generation</text>
</a>
</g>
<!-- Node13&#45;&gt;Node14 -->
<g id="edge30" class="edge"><title>Node13&#45;&gt;Node14</title>
<path fill="none" stroke="midnightblue" d="M201.419,-65.8341C219.118,-59.1339 240.393,-51.0798 258.969,-44.0476"/>
<polygon fill="midnightblue" stroke="midnightblue" points="200.108,-62.5882 191.995,-69.402 202.586,-69.1348 200.108,-62.5882"/>
</g>
<!-- Node14&#45;&gt;Node11 -->
<g id="edge32" class="edge"><title>Node14&#45;&gt;Node11</title>
<path fill="none" stroke="midnightblue" d="M364.163,-49.1634C366.172,-50.3867 368.125,-51.6652 370,-53 390.028,-67.2594 385.598,-81.2816 406,-95 410.975,-98.3452 416.417,-101.293 422.039,-103.883"/>
<polygon fill="midnightblue" stroke="midnightblue" points="365.505,-45.9068 355.057,-44.1503 362.129,-52.039 365.505,-45.9068"/>
</g>
<!-- Node15 -->
<g id="node32" class="node"><title>Node15</title>
<a xlink:href="../../d2/d0a/classblond_1_1InducedVoltageFreq.html#ae3727a320bc179d51b54be5721224c99" target="_top" xlink:title="blond::InducedVoltageFreq\l::reprocess">
<polygon fill="white" stroke="black" points="417.5,-0 417.5,-34 550.5,-34 550.5,-0 417.5,-0"/>
<text text-anchor="start" x="425.5" y="-21" font-family="Helvetica,sans-Serif" font-size="10.00">blond::InducedVoltageFreq</text>
<text text-anchor="middle" x="484" y="-8" font-family="Helvetica,sans-Serif" font-size="10.00">::reprocess</text>
</a>
</g>
<!-- Node14&#45;&gt;Node15 -->
<g id="edge34" class="edge"><title>Node14&#45;&gt;Node15</title>
<path fill="none" stroke="midnightblue" d="M371.225,-23.2653C386.307,-22.4274 402.301,-21.5388 417.358,-20.7023"/>
<polygon fill="midnightblue" stroke="midnightblue" points="370.744,-19.7865 360.953,-23.8359 371.132,-26.7758 370.744,-19.7865"/>
</g>
</g>
</svg>
        <g id="navigator" transform="translate(0 0)" fill="#404254">
                <rect fill="#f2f5e9" fill-opacity="0.5" stroke="#606060" stroke-width=".5" x="0" y="0" width="60" height="60"/>
                <use id="zoomplus" xlink:href="#zoomPlus" x="17" y="9" onmousedown="handleZoom(evt,'in')"/>
                <use id="zoomminus" xlink:href="#zoomMin" x="42" y="9" onmousedown="handleZoom(evt,'out')"/>
                <use id="reset" xlink:href="#resetDef" x="30" y="36" onmousedown="handleReset()"/>
                <g id="arrowUp" xlink:href="#dirArrow" transform="translate(30 24)" onmousedown="handlePan(0,-1)">
                  <use xlink:href="#rim" fill="#404040">
                        <set attributeName="fill" to="#808080" begin="arrowUp.mouseover" end="arrowUp.mouseout"/>
                  </use>
                  <path fill="none" stroke="white" stroke-width="1.5" d="M0,-3.0v7 M-2.5,-0.5L0,-3.0L2.5,-0.5"/>
                </g>
                <g id="arrowRight" xlink:href="#dirArrow" transform="rotate(90) translate(36 -43)" onmousedown="handlePan(1,0)">
                  <use xlink:href="#rim" fill="#404040">
                        <set attributeName="fill" to="#808080" begin="arrowRight.mouseover" end="arrowRight.mouseout"/>
                  </use>
                  <path fill="none" stroke="white" stroke-width="1.5" d="M0,-3.0v7 M-2.5,-0.5L0,-3.0L2.5,-0.5"/>
                </g>
                <g id="arrowDown" xlink:href="#dirArrow" transform="rotate(180) translate(-30 -48)" onmousedown="handlePan(0,1)">
                  <use xlink:href="#rim" fill="#404040">
                        <set attributeName="fill" to="#808080" begin="arrowDown.mouseover" end="arrowDown.mouseout"/>
                  </use>
                  <path fill="none" stroke="white" stroke-width="1.5" d="M0,-3.0v7 M-2.5,-0.5L0,-3.0L2.5,-0.5"/>
                </g>
                <g id="arrowLeft" xlink:href="#dirArrow" transform="rotate(270) translate(-36 17)" onmousedown="handlePan(-1,0)">
                  <use xlink:href="#rim" fill="#404040">
                        <set attributeName="fill" to="#808080" begin="arrowLeft.mouseover" end="arrowLeft.mouseout"/>
                  </use>
                  <path fill="none" stroke="white" stroke-width="1.5" d="M0,-3.0v7 M-2.5,-0.5L0,-3.0L2.5,-0.5"/>
                </g>
        </g>
        <svg viewBox="0 0 15 15" width="100%" height="30px" preserveAspectRatio="xMaxYMin meet">
         <g id="arrow_out" transform="scale(0.3 0.3)">
          <a xlink:href="namespaceblond_1_1fft_ae51b67b43753656e0abcdbbeb847dc6d_icgraph_org.svg" target="_base">
           <rect id="button" ry="5" rx="5" y="6" x="6" height="38" width="38"
                fill="#f2f5e9" fill-opacity="0.5" stroke="#606060" stroke-width="1.0"/>
           <path id="arrow"
             d="M 11.500037,31.436501 C 11.940474,20.09759 22.043105,11.32322 32.158766,21.979434 L 37.068811,17.246167 C 37.068811,17.246167 37.088388,32 37.088388,32 L 22.160133,31.978069 C 22.160133,31.978069 26.997745,27.140456 26.997745,27.140456 C 18.528582,18.264221 13.291696,25.230495 11.500037,31.436501 z"
             style="fill:#404040;"/>
          </a>
         </g>
        </svg>
</svg>
