<?xml version="1.0" encoding="UTF-8" standalone="no"?>
<!DOCTYPE svg PUBLIC "-//W3C//DTD SVG 1.1//EN"
 "http://www.w3.org/Graphics/SVG/1.1/DTD/svg11.dtd">
<!-- Generated by graphviz version 2.26.3 (20100126.1600)
 -->
<!-- Title: blond::fft::init_fft Pages: 1 -->
<!--zoomable 250 -->
<svg id="main" version="1.1" xmlns="http://www.w3.org/2000/svg" xmlns:xlink="http://www.w3.org/1999/xlink" xml:space="preserve" onload="init(evt)">
        <defs>
                <circle id="rim" cx="0" cy="0" r="7"/>
                <circle id="rim2" cx="0" cy="0" r="3.5"/>
                <g id="zoomPlus">
                        <use xlink:href="#rim" fill="#404040">
                                <set attributeName="fill" to="#808080" begin="zoomplus.mouseover" end="zoomplus.mouseout"/>
                        </use>
                        <path d="M-4,0h8M0,-4v8" fill="none" stroke="white" stroke-width="1.5" pointer-events="none"/>
                </g>
                <g id="zoomMin">
                        <use xlink:href="#rim" fill="#404040">
                                <set attributeName="fill" to="#808080" begin="zoomminus.mouseover" end="zoomminus.mouseout"/>
                        </use>
                        <path d="M-4,0h8" fill="none" stroke="white" stroke-width="1.5" pointer-events="none"/>
                </g>
                <g id="dirArrow">
                        <path fill="none" stroke="white" stroke-width="1.5" d="M0,-3.0v7 M-2.5,-0.5L0,-3.0L2.5,-0.5"/>
                </g>
               <g id="resetDef">
                       <use xlink:href="#rim2" fill="#404040">
                               <set attributeName="fill" to="#808080" begin="reset.mouseover" end="reset.mouseout"/>
                       </use>
               </g>
        </defs>

<script type="text/javascript">
var viewWidth = 876;
var viewHeight = 250;
var sectionId = 'dynsection-10';
</script>
<script xlink:href="../../svgpan.js"/>
<svg id="graph" class="graph">
<g id="viewport">
<title>blond::fft::init_fft</title>
<polygon fill="white" stroke="white" points="-4,5 -4,-246 873,-246 873,5 -4,5"/>
<!-- Node1 -->
<g id="node1" class="node"><title>Node1</title>
<polygon fill="#bfbfbf" stroke="black" points="0,-131.5 0,-152.5 88,-152.5 88,-131.5 0,-131.5"/>
<text text-anchor="middle" x="44" y="-139.5" font-family="Helvetica,sans-Serif" font-size="10.00">blond::fft::init_fft</text>
</g>
<!-- Node2 -->
<g id="node3" class="node"><title>Node2</title>
<a xlink:href="../../d3/d4e/namespaceblond_1_1fft.html#a4d694b9a511d426d61f827ae67867af0" target="_top" xlink:title="blond::fft::find_plan">
<polygon fill="white" stroke="black" points="124,-131.5 124,-152.5 224,-152.5 224,-131.5 124,-131.5"/>
<text text-anchor="middle" x="174" y="-139.5" font-family="Helvetica,sans-Serif" font-size="10.00">blond::fft::find_plan</text>
</a>
</g>
<!-- Node1&#45;&gt;Node2 -->
<g id="edge2" class="edge"><title>Node1&#45;&gt;Node2</title>
<path fill="none" stroke="midnightblue" d="M98.1825,-142C106.656,-142 115.382,-142 123.762,-142"/>
<polygon fill="midnightblue" stroke="midnightblue" points="98.0121,-138.5 88.0121,-142 98.012,-145.5 98.0121,-138.5"/>
</g>
<!-- Node3 -->
<g id="node5" class="node"><title>Node3</title>
<a xlink:href="../../d3/d4e/namespaceblond_1_1fft.html#a0910435f734bc58c834c412ef06cdade" target="_top" xlink:title="blond::fft::fft">
<polygon fill="white" stroke="black" points="263,-191.5 263,-212.5 333,-212.5 333,-191.5 263,-191.5"/>
<text text-anchor="middle" x="298" y="-199.5" font-family="Helvetica,sans-Serif" font-size="10.00">blond::fft::fft</text>
</a>
</g>
<!-- Node2&#45;&gt;Node3 -->
<g id="edge4" class="edge"><title>Node2&#45;&gt;Node3</title>
<path fill="none" stroke="midnightblue" d="M205.159,-157.077C227.206,-167.745 256.232,-181.79 275.918,-191.315"/>
<polygon fill="midnightblue" stroke="midnightblue" points="206.409,-153.794 195.883,-152.589 203.36,-160.095 206.409,-153.794"/>
</g>
<!-- Node7 -->
<g id="node13" class="node"><title>Node7</title>
<a xlink:href="../../d3/d4e/namespaceblond_1_1fft.html#aa8add91c70bc4dd5be3a56f08ddb05e7" target="_top" xlink:title="blond::fft::ifft">
<polygon fill="white" stroke="black" points="262,-151.5 262,-172.5 334,-172.5 334,-151.5 262,-151.5"/>
<text text-anchor="middle" x="298" y="-159.5" font-family="Helvetica,sans-Serif" font-size="10.00">blond::fft::ifft</text>
</a>
</g>
<!-- Node2&#45;&gt;Node7 -->
<g id="edge12" class="edge"><title>Node2&#45;&gt;Node7</title>
<path fill="none" stroke="midnightblue" d="M233.951,-151.669C243.483,-153.207 253.081,-154.755 261.84,-156.168"/>
<polygon fill="midnightblue" stroke="midnightblue" points="234.508,-148.214 224.078,-150.077 233.393,-155.125 234.508,-148.214"/>
</g>
<!-- Node8 -->
<g id="node16" class="node"><title>Node8</title>
<a xlink:href="../../d3/d4e/namespaceblond_1_1fft.html#af47bde766cda6e8d4d10abe619840306" target="_top" xlink:title="blond::fft::irfft">
<polygon fill="white" stroke="black" points="260.5,-111.5 260.5,-132.5 335.5,-132.5 335.5,-111.5 260.5,-111.5"/>
<text text-anchor="middle" x="298" y="-119.5" font-family="Helvetica,sans-Serif" font-size="10.00">blond::fft::irfft</text>
</a>
</g>
<!-- Node2&#45;&gt;Node8 -->
<g id="edge16" class="edge"><title>Node2&#45;&gt;Node8</title>
<path fill="none" stroke="midnightblue" d="M234.105,-132.306C243.04,-130.865 252.028,-129.415 260.325,-128.077"/>
<polygon fill="midnightblue" stroke="midnightblue" points="233.393,-128.875 224.078,-133.923 234.508,-135.786 233.393,-128.875"/>
</g>
<!-- Node14 -->
<g id="node29" class="node"><title>Node14</title>
<a xlink:href="../../d3/d4e/namespaceblond_1_1fft.html#aab55a4741fafe3a1bbbce2db72a7930c" target="_top" xlink:title="blond::fft::rfft">
<polygon fill="white" stroke="black" points="261.5,-69.5 261.5,-90.5 334.5,-90.5 334.5,-69.5 261.5,-69.5"/>
<text text-anchor="middle" x="298" y="-77.5" font-family="Helvetica,sans-Serif" font-size="10.00">blond::fft::rfft</text>
</a>
</g>
<!-- Node2&#45;&gt;Node14 -->
<g id="edge30" class="edge"><title>Node2&#45;&gt;Node14</title>
<path fill="none" stroke="midnightblue" d="M204.161,-126.92C226.674,-115.663 256.875,-100.563 276.862,-90.569"/>
<polygon fill="midnightblue" stroke="midnightblue" points="202.414,-123.88 195.035,-131.483 205.544,-130.141 202.414,-123.88"/>
</g>
<!-- Node4 -->
<g id="node7" class="node"><title>Node4</title>
<a xlink:href="../../dc/d58/classblond_1_1PhaseNoise.html#a5b9bb8a443851f55cd0845608c35112f" target="_top" xlink:title="blond::PhaseNoise::\lspectrum_to_phase_noise">
<polygon fill="white" stroke="black" points="372.5,-154 372.5,-188 503.5,-188 503.5,-154 372.5,-154"/>
<text text-anchor="start" x="380.5" y="-175" font-family="Helvetica,sans-Serif" font-size="10.00">blond::PhaseNoise::</text>
<text text-anchor="middle" x="438" y="-162" font-family="Helvetica,sans-Serif" font-size="10.00">spectrum_to_phase_noise</text>
</a>
</g>
<!-- Node3&#45;&gt;Node4 -->
<g id="edge6" class="edge"><title>Node3&#45;&gt;Node4</title>
<path fill="none" stroke="midnightblue" d="M343.158,-192.001C352.497,-189.933 362.514,-187.715 372.413,-185.523"/>
<polygon fill="midnightblue" stroke="midnightblue" points="342.335,-188.598 333.328,-194.177 343.848,-195.433 342.335,-188.598"/>
</g>
<!-- Node5 -->
<g id="node9" class="node"><title>Node5</title>
<a xlink:href="../../dd/d85/classblond_1_1LHCFlatSpectrum.html#a2c1a3a410f3213af74e4839aaa560e80" target="_top" xlink:title="blond::LHCFlatSpectrum\l::generate">
<polygon fill="white" stroke="black" points="555.5,-156 555.5,-190 680.5,-190 680.5,-156 555.5,-156"/>
<text text-anchor="start" x="563.5" y="-177" font-family="Helvetica,sans-Serif" font-size="10.00">blond::LHCFlatSpectrum</text>
<text text-anchor="middle" x="618" y="-164" font-family="Helvetica,sans-Serif" font-size="10.00">::generate</text>
</a>
</g>
<!-- Node4&#45;&gt;Node5 -->
<g id="edge8" class="edge"><title>Node4&#45;&gt;Node5</title>
<path fill="none" stroke="midnightblue" d="M513.755,-171.842C527.638,-171.996 541.984,-172.155 555.428,-172.305"/>
<polygon fill="midnightblue" stroke="midnightblue" points="513.787,-168.342 503.748,-171.731 513.709,-175.342 513.787,-168.342"/>
</g>
<!-- Node6 -->
<g id="node11" class="node"><title>Node6</title>
<a xlink:href="../../db/d42/classblond_1_1PSBPhaseNoiseInjection.html#a0afaaacc5c71047473edfcf7613f6f6f" target="_top" xlink:title="blond::PSBPhaseNoiseInjection\l::generate">
<polygon fill="white" stroke="black" points="540,-208 540,-242 696,-242 696,-208 540,-208"/>
<text text-anchor="start" x="548" y="-229" font-family="Helvetica,sans-Serif" font-size="10.00">blond::PSBPhaseNoiseInjection</text>
<text text-anchor="middle" x="618" y="-216" font-family="Helvetica,sans-Serif" font-size="10.00">::generate</text>
</a>
</g>
<!-- Node4&#45;&gt;Node6 -->
<g id="edge10" class="edge"><title>Node4&#45;&gt;Node6</title>
<path fill="none" stroke="midnightblue" d="M504.779,-191.034C523.294,-196.588 543.216,-202.565 561.109,-207.933"/>
<polygon fill="midnightblue" stroke="midnightblue" points="505.537,-187.607 494.953,-188.086 503.526,-194.312 505.537,-187.607"/>
</g>
<!-- Node7&#45;&gt;Node4 -->
<g id="edge14" class="edge"><title>Node7&#45;&gt;Node4</title>
<path fill="none" stroke="midnightblue" d="M344.323,-164.978C353.339,-165.558 362.949,-166.175 372.45,-166.786"/>
<polygon fill="midnightblue" stroke="midnightblue" points="344.257,-161.467 334.053,-164.318 343.808,-168.452 344.257,-161.467"/>
</g>
<!-- Node8&#45;&gt;Node4 -->
<g id="edge28" class="edge"><title>Node8&#45;&gt;Node4</title>
<path fill="none" stroke="midnightblue" d="M337.652,-135.878C353.712,-141.499 372.416,-148.046 389.294,-153.953"/>
<polygon fill="midnightblue" stroke="midnightblue" points="338.628,-132.512 328.034,-132.512 336.316,-139.119 338.628,-132.512"/>
</g>
<!-- Node9 -->
<g id="node18" class="node"><title>Node9</title>
<a xlink:href="../../d3/d4e/namespaceblond_1_1fft.html#a6e134220d8959b84a08cbe724ce65f2c" target="_top" xlink:title="blond::fft::convolution\l_with_ffts">
<polygon fill="white" stroke="black" points="383,-62 383,-96 493,-96 493,-62 383,-62"/>
<text text-anchor="start" x="391" y="-83" font-family="Helvetica,sans-Serif" font-size="10.00">blond::fft::convolution</text>
<text text-anchor="middle" x="438" y="-70" font-family="Helvetica,sans-Serif" font-size="10.00">_with_ffts</text>
</a>
</g>
<!-- Node8&#45;&gt;Node9 -->
<g id="edge18" class="edge"><title>Node8&#45;&gt;Node9</title>
<path fill="none" stroke="midnightblue" d="M341.867,-108.527C354.85,-104.539 369.234,-100.121 382.835,-95.9436"/>
<polygon fill="midnightblue" stroke="midnightblue" points="340.779,-105.199 332.248,-111.481 342.835,-111.891 340.779,-105.199"/>
</g>
<!-- Node12 -->
<g id="node24" class="node"><title>Node12</title>
<a xlink:href="../../d2/d0a/classblond_1_1InducedVoltageFreq.html#a0c630f8ec5ab6d27427bb73dc11986a1" target="_top" xlink:title="blond::InducedVoltageFreq\l::induced_voltage_generation">
<polygon fill="white" stroke="black" points="546.5,-104 546.5,-138 689.5,-138 689.5,-104 546.5,-104"/>
<text text-anchor="start" x="554.5" y="-125" font-family="Helvetica,sans-Serif" font-size="10.00">blond::InducedVoltageFreq</text>
<text text-anchor="middle" x="618" y="-112" font-family="Helvetica,sans-Serif" font-size="10.00">::induced_voltage_generation</text>
</a>
</g>
<!-- Node8&#45;&gt;Node12 -->
<g id="edge24" class="edge"><title>Node8&#45;&gt;Node12</title>
<path fill="none" stroke="midnightblue" d="M345.806,-121.851C398.891,-121.685 485.146,-121.415 546.318,-121.224"/>
<polygon fill="midnightblue" stroke="midnightblue" points="345.638,-118.351 335.649,-121.882 345.66,-125.351 345.638,-118.351"/>
</g>
<!-- Node10 -->
<g id="node20" class="node"><title>Node10</title>
<a xlink:href="../../db/de7/classblond_1_1InducedVoltageTime.html#a40304e836dcf242c889cd46751e25c88" target="_top" xlink:title="blond::InducedVoltageTime\l::induced_voltage_generation">
<polygon fill="white" stroke="black" points="546.5,-52 546.5,-86 689.5,-86 689.5,-52 546.5,-52"/>
<text text-anchor="start" x="554.5" y="-73" font-family="Helvetica,sans-Serif" font-size="10.00">blond::InducedVoltageTime</text>
<text text-anchor="middle" x="618" y="-60" font-family="Helvetica,sans-Serif" font-size="10.00">::induced_voltage_generation</text>
</a>
</g>
<!-- Node9&#45;&gt;Node10 -->
<g id="edge20" class="edge"><title>Node9&#45;&gt;Node10</title>
<path fill="none" stroke="midnightblue" d="M503.473,-75.3626C517.441,-74.5866 532.262,-73.7632 546.445,-72.9753"/>
<polygon fill="midnightblue" stroke="midnightblue" points="503.265,-71.8687 493.475,-75.9181 503.653,-78.8579 503.265,-71.8687"/>
</g>
<!-- Node11 -->
<g id="node22" class="node"><title>Node11</title>
<a xlink:href="../../db/de7/classblond_1_1InducedVoltageTime.html#af93ca939b9d7e240a346c89d791c30c8" target="_top" xlink:title="blond::InducedVoltageTime\l::track">
<polygon fill="white" stroke="black" points="732.5,-52 732.5,-86 867.5,-86 867.5,-52 732.5,-52"/>
<text text-anchor="start" x="740.5" y="-73" font-family="Helvetica,sans-Serif" font-size="10.00">blond::InducedVoltageTime</text>
<text text-anchor="middle" x="800" y="-60" font-family="Helvetica,sans-Serif" font-size="10.00">::track</text>
</a>
</g>
<!-- Node10&#45;&gt;Node11 -->
<g id="edge22" class="edge"><title>Node10&#45;&gt;Node11</title>
<path fill="none" stroke="midnightblue" d="M699.953,-69C710.755,-69 721.728,-69 732.257,-69"/>
<polygon fill="midnightblue" stroke="midnightblue" points="699.67,-65.5001 689.67,-69 699.67,-72.5001 699.67,-65.5001"/>
</g>
<!-- Node13 -->
<g id="node26" class="node"><title>Node13</title>
<a xlink:href="../../d2/d0a/classblond_1_1InducedVoltageFreq.html#a93a0cc8269cbf89d0714e6f1513fa68a" target="_top" xlink:title="blond::InducedVoltageFreq\l::track">
<polygon fill="white" stroke="black" points="733.5,-104 733.5,-138 866.5,-138 866.5,-104 733.5,-104"/>
<text text-anchor="start" x="741.5" y="-125" font-family="Helvetica,sans-Serif" font-size="10.00">blond::InducedVoltageFreq</text>
<text text-anchor="middle" x="800" y="-112" font-family="Helvetica,sans-Serif" font-size="10.00">::track</text>
</a>
</g>
<!-- Node12&#45;&gt;Node13 -->
<g id="edge26" class="edge"><title>Node12&#45;&gt;Node13</title>
<path fill="none" stroke="midnightblue" d="M699.904,-121C711.126,-121 722.534,-121 733.437,-121"/>
<polygon fill="midnightblue" stroke="midnightblue" points="699.67,-117.5 689.67,-121 699.67,-124.5 699.67,-117.5"/>
</g>
<!-- Node14&#45;&gt;Node4 -->
<g id="edge34" class="edge"><title>Node14&#45;&gt;Node4</title>
<path fill="none" stroke="midnightblue" d="M325.956,-95.8861C329.361,-97.9087 332.774,-99.9786 336,-102 362.994,-118.915 393.118,-139.515 413.585,-153.779"/>
<polygon fill="midnightblue" stroke="midnightblue" points="327.497,-92.7329 317.098,-90.7086 323.965,-98.7764 327.497,-92.7329"/>
</g>
<!-- Node14&#45;&gt;Node9 -->
<g id="edge32" class="edge"><title>Node14&#45;&gt;Node9</title>
<path fill="none" stroke="midnightblue" d="M345.098,-79.6636C357.183,-79.5773 370.291,-79.4836 382.747,-79.3947"/>
<polygon fill="midnightblue" stroke="midnightblue" points="344.758,-76.1658 334.783,-79.7373 344.808,-83.1656 344.758,-76.1658"/>
</g>
<!-- Node15 -->
<g id="node33" class="node"><title>Node15</title>
<a xlink:href="../../d4/d46/classblond_1_1Slices.html#a2fbf7afb49412b0c6cbbcac5cca64ee4" target="_top" xlink:title="blond::Slices::beam\l_spectrum_generation">
<polygon fill="white" stroke="black" points="381.5,-10 381.5,-44 494.5,-44 494.5,-10 381.5,-10"/>
<text text-anchor="start" x="389.5" y="-31" font-family="Helvetica,sans-Serif" font-size="10.00">blond::Slices::beam</text>
<text text-anchor="middle" x="438" y="-18" font-family="Helvetica,sans-Serif" font-size="10.00">_spectrum_generation</text>
</a>
</g>
<!-- Node14&#45;&gt;Node15 -->
<g id="edge36" class="edge"><title>Node14&#45;&gt;Node15</title>
<path fill="none" stroke="midnightblue" d="M335.419,-65.8341C353.118,-59.1339 374.393,-51.0798 392.969,-44.0476"/>
<polygon fill="midnightblue" stroke="midnightblue" points="334.108,-62.5882 325.995,-69.402 336.586,-69.1348 334.108,-62.5882"/>
</g>
<!-- Node15&#45;&gt;Node12 -->
<g id="edge38" class="edge"><title>Node15&#45;&gt;Node12</title>
<path fill="none" stroke="midnightblue" d="M498.163,-49.1634C500.172,-50.3867 502.125,-51.6652 504,-53 524.028,-67.2594 519.598,-81.2816 540,-95 544.975,-98.3452 550.417,-101.293 556.039,-103.883"/>
<polygon fill="midnightblue" stroke="midnightblue" points="499.505,-45.9068 489.057,-44.1503 496.129,-52.039 499.505,-45.9068"/>
</g>
<!-- Node16 -->
<g id="node36" class="node"><title>Node16</title>
<a xlink:href="../../d2/d0a/classblond_1_1InducedVoltageFreq.html#ae3727a320bc179d51b54be5721224c99" target="_top" xlink:title="blond::InducedVoltageFreq\l::reprocess">
<polygon fill="white" stroke="black" points="551.5,-0 551.5,-34 684.5,-34 684.5,-0 551.5,-0"/>
<text text-anchor="start" x="559.5" y="-21" font-family="Helvetica,sans-Serif" font-size="10.00">blond::InducedVoltageFreq</text>
<text text-anchor="middle" x="618" y="-8" font-family="Helvetica,sans-Serif" font-size="10.00">::reprocess</text>
</a>
</g>
<!-- Node15&#45;&gt;Node16 -->
<g id="edge40" class="edge"><title>Node15&#45;&gt;Node16</title>
<path fill="none" stroke="midnightblue" d="M505.225,-23.2653C520.307,-22.4274 536.301,-21.5388 551.358,-20.7023"/>
<polygon fill="midnightblue" stroke="midnightblue" points="504.744,-19.7865 494.953,-23.8359 505.132,-26.7758 504.744,-19.7865"/>
</g>
</g>
</svg>
        <g id="navigator" transform="translate(0 0)" fill="#404254">
                <rect fill="#f2f5e9" fill-opacity="0.5" stroke="#606060" stroke-width=".5" x="0" y="0" width="60" height="60"/>
                <use id="zoomplus" xlink:href="#zoomPlus" x="17" y="9" onmousedown="handleZoom(evt,'in')"/>
                <use id="zoomminus" xlink:href="#zoomMin" x="42" y="9" onmousedown="handleZoom(evt,'out')"/>
                <use id="reset" xlink:href="#resetDef" x="30" y="36" onmousedown="handleReset()"/>
                <g id="arrowUp" xlink:href="#dirArrow" transform="translate(30 24)" onmousedown="handlePan(0,-1)">
                  <use xlink:href="#rim" fill="#404040">
                        <set attributeName="fill" to="#808080" begin="arrowUp.mouseover" end="arrowUp.mouseout"/>
                  </use>
                  <path fill="none" stroke="white" stroke-width="1.5" d="M0,-3.0v7 M-2.5,-0.5L0,-3.0L2.5,-0.5"/>
                </g>
                <g id="arrowRight" xlink:href="#dirArrow" transform="rotate(90) translate(36 -43)" onmousedown="handlePan(1,0)">
                  <use xlink:href="#rim" fill="#404040">
                        <set attributeName="fill" to="#808080" begin="arrowRight.mouseover" end="arrowRight.mouseout"/>
                  </use>
                  <path fill="none" stroke="white" stroke-width="1.5" d="M0,-3.0v7 M-2.5,-0.5L0,-3.0L2.5,-0.5"/>
                </g>
                <g id="arrowDown" xlink:href="#dirArrow" transform="rotate(180) translate(-30 -48)" onmousedown="handlePan(0,1)">
                  <use xlink:href="#rim" fill="#404040">
                        <set attributeName="fill" to="#808080" begin="arrowDown.mouseover" end="arrowDown.mouseout"/>
                  </use>
                  <path fill="none" stroke="white" stroke-width="1.5" d="M0,-3.0v7 M-2.5,-0.5L0,-3.0L2.5,-0.5"/>
                </g>
                <g id="arrowLeft" xlink:href="#dirArrow" transform="rotate(270) translate(-36 17)" onmousedown="handlePan(-1,0)">
                  <use xlink:href="#rim" fill="#404040">
                        <set attributeName="fill" to="#808080" begin="arrowLeft.mouseover" end="arrowLeft.mouseout"/>
                  </use>
                  <path fill="none" stroke="white" stroke-width="1.5" d="M0,-3.0v7 M-2.5,-0.5L0,-3.0L2.5,-0.5"/>
                </g>
        </g>
        <svg viewBox="0 0 15 15" width="100%" height="30px" preserveAspectRatio="xMaxYMin meet">
         <g id="arrow_out" transform="scale(0.3 0.3)">
          <a xlink:href="namespaceblond_1_1fft_a35b440b10540932759ed4717efff2ff0_icgraph_org.svg" target="_base">
           <rect id="button" ry="5" rx="5" y="6" x="6" height="38" width="38"
                fill="#f2f5e9" fill-opacity="0.5" stroke="#606060" stroke-width="1.0"/>
           <path id="arrow"
             d="M 11.500037,31.436501 C 11.940474,20.09759 22.043105,11.32322 32.158766,21.979434 L 37.068811,17.246167 C 37.068811,17.246167 37.088388,32 37.088388,32 L 22.160133,31.978069 C 22.160133,31.978069 26.997745,27.140456 26.997745,27.140456 C 18.528582,18.264221 13.291696,25.230495 11.500037,31.436501 z"
             style="fill:#404040;"/>
          </a>
         </g>
        </svg>
</svg>
