<?xml version="1.0" encoding="UTF-8" standalone="no"?>
<!DOCTYPE svg PUBLIC "-//W3C//DTD SVG 1.1//EN"
 "http://www.w3.org/Graphics/SVG/1.1/DTD/svg11.dtd">
<!-- Generated by graphviz version 2.26.3 (20100126.1600)
 -->
<!-- Title: blond::fft::fft Pages: 1 -->
<svg width="486pt" height="110pt"
 viewBox="0.00 0.00 486.00 110.00" xmlns="http://www.w3.org/2000/svg" xmlns:xlink="http://www.w3.org/1999/xlink">
<g id="graph1" class="graph" transform="scale(1 1) rotate(0) translate(4 106)">
<title>blond::fft::fft</title>
<polygon fill="white" stroke="white" points="-4,5 -4,-106 483,-106 483,5 -4,5"/>
<!-- Node1 -->
<g id="node1" class="node"><title>Node1</title>
<polygon fill="#bfbfbf" stroke="black" points="0,-20.5 0,-41.5 70,-41.5 70,-20.5 0,-20.5"/>
<text text-anchor="middle" x="35" y="-28.5" font-family="Helvetica,sans-Serif" font-size="10.00">blond::fft::fft</text>
</g>
<!-- Node2 -->
<g id="node3" class="node"><title>Node2</title>
<a xlink:href="../../d3/d4e/namespaceblond_1_1fft.html#a4d694b9a511d426d61f827ae67867af0" target="_top" xlink:title="blond::fft::find_plan">
<polygon fill="white" stroke="black" points="106,-40.5 106,-61.5 206,-61.5 206,-40.5 106,-40.5"/>
<text text-anchor="middle" x="156" y="-48.5" font-family="Helvetica,sans-Serif" font-size="10.00">blond::fft::find_plan</text>
</a>
</g>
<!-- Node1&#45;&gt;Node2 -->
<g id="edge2" class="edge"><title>Node1&#45;&gt;Node2</title>
<path fill="none" stroke="midnightblue" d="M70.3235,-36.8386C78.2451,-38.1479 86.8676,-39.5732 95.4904,-40.9984"/>
<polygon fill="midnightblue" stroke="midnightblue" points="95.1339,-44.4869 105.571,-42.6646 96.2755,-37.5806 95.1339,-44.4869"/>
</g>
<!-- Node7 -->
<g id="node13" class="node"><title>Node7</title>
<a xlink:href="../../d3/d4e/namespaceblond_1_1fft.html#ae51b67b43753656e0abcdbbeb847dc6d" target="_top" xlink:title="blond::fft::run_fft">
<polygon fill="white" stroke="black" points="111.5,-0.5 111.5,-21.5 200.5,-21.5 200.5,-0.5 111.5,-0.5"/>
<text text-anchor="middle" x="156" y="-8.5" font-family="Helvetica,sans-Serif" font-size="10.00">blond::fft::run_fft</text>
</a>
</g>
<!-- Node1&#45;&gt;Node7 -->
<g id="edge12" class="edge"><title>Node1&#45;&gt;Node7</title>
<path fill="none" stroke="midnightblue" d="M70.3235,-25.1614C80.05,-23.5537 90.8332,-21.7714 101.376,-20.0287"/>
<polygon fill="midnightblue" stroke="midnightblue" points="102.073,-23.4611 111.368,-18.3771 100.931,-16.5548 102.073,-23.4611"/>
</g>
<!-- Node3 -->
<g id="node5" class="node"><title>Node3</title>
<a xlink:href="../../d3/d4e/namespaceblond_1_1fft.html#a35b440b10540932759ed4717efff2ff0" target="_top" xlink:title="blond::fft::init_fft">
<polygon fill="white" stroke="black" points="245,-80.5 245,-101.5 333,-101.5 333,-80.5 245,-80.5"/>
<text text-anchor="middle" x="289" y="-88.5" font-family="Helvetica,sans-Serif" font-size="10.00">blond::fft::init_fft</text>
</a>
</g>
<!-- Node2&#45;&gt;Node3 -->
<g id="edge4" class="edge"><title>Node2&#45;&gt;Node3</title>
<path fill="none" stroke="midnightblue" d="M190.944,-61.5095C207.157,-66.3856 226.628,-72.2415 243.931,-77.4454"/>
<polygon fill="midnightblue" stroke="midnightblue" points="243.243,-80.8933 253.827,-80.4218 245.259,-74.1899 243.243,-80.8933"/>
</g>
<!-- Node5 -->
<g id="node9" class="node"><title>Node5</title>
<a xlink:href="../../d3/d4e/namespaceblond_1_1fft.html#a513059305dbf73b667991950c11cc4ba" target="_top" xlink:title="blond::fft::init_rfft">
<polygon fill="white" stroke="black" points="243.5,-40.5 243.5,-61.5 334.5,-61.5 334.5,-40.5 243.5,-40.5"/>
<text text-anchor="middle" x="289" y="-48.5" font-family="Helvetica,sans-Serif" font-size="10.00">blond::fft::init_rfft</text>
</a>
</g>
<!-- Node2&#45;&gt;Node5 -->
<g id="edge8" class="edge"><title>Node2&#45;&gt;Node5</title>
<path fill="none" stroke="midnightblue" d="M206.282,-51C215.154,-51 224.436,-51 233.443,-51"/>
<polygon fill="midnightblue" stroke="midnightblue" points="233.459,-54.5001 243.459,-51 233.459,-47.5001 233.459,-54.5001"/>
</g>
<!-- Node6 -->
<g id="node11" class="node"><title>Node6</title>
<a xlink:href="../../d3/d4e/namespaceblond_1_1fft.html#a03d82dcc1442ea1299b83874ced97f19" target="_top" xlink:title="blond::fft::init_irfft">
<polygon fill="white" stroke="black" points="242.5,-0.5 242.5,-21.5 335.5,-21.5 335.5,-0.5 242.5,-0.5"/>
<text text-anchor="middle" x="289" y="-8.5" font-family="Helvetica,sans-Serif" font-size="10.00">blond::fft::init_irfft</text>
</a>
</g>
<!-- Node2&#45;&gt;Node6 -->
<g id="edge10" class="edge"><title>Node2&#45;&gt;Node6</title>
<path fill="none" stroke="midnightblue" d="M190.944,-40.4905C207.157,-35.6144 226.628,-29.7585 243.931,-24.5546"/>
<polygon fill="midnightblue" stroke="midnightblue" points="245.259,-27.8101 253.827,-21.5782 243.243,-21.1067 245.259,-27.8101"/>
</g>
<!-- Node4 -->
<g id="node7" class="node"><title>Node4</title>
<a xlink:href="../../dc/d3e/namespaceblond_1_1mymath.html#a571019da04b332a0d4981d4357050fa1" target="_top" xlink:title="blond::mymath::sign">
<polygon fill="white" stroke="black" points="372.5,-80.5 372.5,-101.5 477.5,-101.5 477.5,-80.5 372.5,-80.5"/>
<text text-anchor="middle" x="425" y="-88.5" font-family="Helvetica,sans-Serif" font-size="10.00">blond::mymath::sign</text>
</a>
</g>
<!-- Node3&#45;&gt;Node4 -->
<g id="edge6" class="edge"><title>Node3&#45;&gt;Node4</title>
<path fill="none" stroke="midnightblue" d="M333.155,-91C342.366,-91 352.244,-91 361.986,-91"/>
<polygon fill="midnightblue" stroke="midnightblue" points="362.054,-94.5001 372.054,-91 362.054,-87.5001 362.054,-94.5001"/>
</g>
</g>
</svg>
