<?xml version="1.0" encoding="UTF-8" standalone="no"?>
<!DOCTYPE svg PUBLIC "-//W3C//DTD SVG 1.1//EN"
 "http://www.w3.org/Graphics/SVG/1.1/DTD/svg11.dtd">
<!-- Generated by graphviz version 2.26.3 (20100126.1600)
 -->
<!-- Title: blond::fft::find_plan Pages: 1 -->
<svg width="380pt" height="110pt"
 viewBox="0.00 0.00 380.00 110.00" xmlns="http://www.w3.org/2000/svg" xmlns:xlink="http://www.w3.org/1999/xlink">
<g id="graph1" class="graph" transform="scale(1 1) rotate(0) translate(4 106)">
<title>blond::fft::find_plan</title>
<polygon fill="white" stroke="white" points="-4,5 -4,-106 377,-106 377,5 -4,5"/>
<!-- Node1 -->
<g id="node1" class="node"><title>Node1</title>
<polygon fill="#bfbfbf" stroke="black" points="0,-40.5 0,-61.5 100,-61.5 100,-40.5 0,-40.5"/>
<text text-anchor="middle" x="50" y="-48.5" font-family="Helvetica,sans-Serif" font-size="10.00">blond::fft::find_plan</text>
</g>
<!-- Node2 -->
<g id="node3" class="node"><title>Node2</title>
<a xlink:href="../../d3/d4e/namespaceblond_1_1fft.html#a35b440b10540932759ed4717efff2ff0" target="_top" xlink:title="blond::fft::init_fft">
<polygon fill="white" stroke="black" points="139,-80.5 139,-101.5 227,-101.5 227,-80.5 139,-80.5"/>
<text text-anchor="middle" x="183" y="-88.5" font-family="Helvetica,sans-Serif" font-size="10.00">blond::fft::init_fft</text>
</a>
</g>
<!-- Node1&#45;&gt;Node2 -->
<g id="edge2" class="edge"><title>Node1&#45;&gt;Node2</title>
<path fill="none" stroke="midnightblue" d="M84.9442,-61.5095C101.157,-66.3856 120.628,-72.2415 137.931,-77.4454"/>
<polygon fill="midnightblue" stroke="midnightblue" points="137.243,-80.8933 147.827,-80.4218 139.259,-74.1899 137.243,-80.8933"/>
</g>
<!-- Node4 -->
<g id="node7" class="node"><title>Node4</title>
<a xlink:href="../../d3/d4e/namespaceblond_1_1fft.html#a03d82dcc1442ea1299b83874ced97f19" target="_top" xlink:title="blond::fft::init_irfft">
<polygon fill="white" stroke="black" points="136.5,-40.5 136.5,-61.5 229.5,-61.5 229.5,-40.5 136.5,-40.5"/>
<text text-anchor="middle" x="183" y="-48.5" font-family="Helvetica,sans-Serif" font-size="10.00">blond::fft::init_irfft</text>
</a>
</g>
<!-- Node1&#45;&gt;Node4 -->
<g id="edge6" class="edge"><title>Node1&#45;&gt;Node4</title>
<path fill="none" stroke="midnightblue" d="M100.282,-51C108.649,-51 117.382,-51 125.904,-51"/>
<polygon fill="midnightblue" stroke="midnightblue" points="126.156,-54.5001 136.156,-51 126.156,-47.5001 126.156,-54.5001"/>
</g>
<!-- Node5 -->
<g id="node9" class="node"><title>Node5</title>
<a xlink:href="../../d3/d4e/namespaceblond_1_1fft.html#a513059305dbf73b667991950c11cc4ba" target="_top" xlink:title="blond::fft::init_rfft">
<polygon fill="white" stroke="black" points="137.5,-0.5 137.5,-21.5 228.5,-21.5 228.5,-0.5 137.5,-0.5"/>
<text text-anchor="middle" x="183" y="-8.5" font-family="Helvetica,sans-Serif" font-size="10.00">blond::fft::init_rfft</text>
</a>
</g>
<!-- Node1&#45;&gt;Node5 -->
<g id="edge8" class="edge"><title>Node1&#45;&gt;Node5</title>
<path fill="none" stroke="midnightblue" d="M84.9442,-40.4905C101.157,-35.6144 120.628,-29.7585 137.931,-24.5546"/>
<polygon fill="midnightblue" stroke="midnightblue" points="139.259,-27.8101 147.827,-21.5782 137.243,-21.1067 139.259,-27.8101"/>
</g>
<!-- Node3 -->
<g id="node5" class="node"><title>Node3</title>
<a xlink:href="../../dc/d3e/namespaceblond_1_1mymath.html#a571019da04b332a0d4981d4357050fa1" target="_top" xlink:title="blond::mymath::sign">
<polygon fill="white" stroke="black" points="266.5,-80.5 266.5,-101.5 371.5,-101.5 371.5,-80.5 266.5,-80.5"/>
<text text-anchor="middle" x="319" y="-88.5" font-family="Helvetica,sans-Serif" font-size="10.00">blond::mymath::sign</text>
</a>
</g>
<!-- Node2&#45;&gt;Node3 -->
<g id="edge4" class="edge"><title>Node2&#45;&gt;Node3</title>
<path fill="none" stroke="midnightblue" d="M227.155,-91C236.366,-91 246.244,-91 255.986,-91"/>
<polygon fill="midnightblue" stroke="midnightblue" points="256.054,-94.5001 266.054,-91 256.054,-87.5001 256.054,-94.5001"/>
</g>
</g>
</svg>
