<?xml version="1.0" encoding="UTF-8" standalone="no"?>
<!DOCTYPE svg PUBLIC "-//W3C//DTD SVG 1.1//EN"
 "http://www.w3.org/Graphics/SVG/1.1/DTD/svg11.dtd">
<!-- Generated by graphviz version 2.26.3 (20100126.1600)
 -->
<!-- Title: blond::optionparser::Parser::nonOption Pages: 1 -->
<svg width="254pt" height="42pt"
 viewBox="0.00 0.00 254.00 42.00" xmlns="http://www.w3.org/2000/svg" xmlns:xlink="http://www.w3.org/1999/xlink">
<g id="graph1" class="graph" transform="scale(1 1) rotate(0) translate(4 38)">
<title>blond::optionparser::Parser::nonOption</title>
<polygon fill="white" stroke="white" points="-4,5 -4,-38 251,-38 251,5 -4,5"/>
<!-- Node1 -->
<g id="node1" class="node"><title>Node1</title>
<polygon fill="#bfbfbf" stroke="black" points="0.5,-0 0.5,-34 101.5,-34 101.5,-0 0.5,-0"/>
<text text-anchor="start" x="8.5" y="-21" font-family="Helvetica,sans-Serif" font-size="10.00">blond::optionparser</text>
<text text-anchor="middle" x="51" y="-8" font-family="Helvetica,sans-Serif" font-size="10.00">::Parser::nonOption</text>
</g>
<!-- Node2 -->
<g id="node3" class="node"><title>Node2</title>
<a xlink:href="../../d7/d37/classblond_1_1optionparser_1_1Parser.html#afcaa835302825db11015fd533285616d" target="_top" xlink:title="Returns a pointer to an array of non&#45;option arguments (only valid if nonOptionsCount() &gt;0 )...">
<polygon fill="white" stroke="black" points="138.5,-0 138.5,-34 245.5,-34 245.5,-0 138.5,-0"/>
<text text-anchor="start" x="146.5" y="-21" font-family="Helvetica,sans-Serif" font-size="10.00">blond::optionparser</text>
<text text-anchor="middle" x="192" y="-8" font-family="Helvetica,sans-Serif" font-size="10.00">::Parser::nonOptions</text>
</a>
</g>
<!-- Node1&#45;&gt;Node2 -->
<g id="edge2" class="edge"><title>Node1&#45;&gt;Node2</title>
<path fill="none" stroke="midnightblue" d="M101.506,-17C110.025,-17 118.969,-17 127.782,-17"/>
<polygon fill="midnightblue" stroke="midnightblue" points="128.032,-20.5001 138.032,-17 128.032,-13.5001 128.032,-20.5001"/>
</g>
</g>
</svg>
