<?xml version="1.0" encoding="UTF-8" standalone="no"?>
<!DOCTYPE svg PUBLIC "-//W3C//DTD SVG 1.1//EN"
 "http://www.w3.org/Graphics/SVG/1.1/DTD/svg11.dtd">
<!-- Generated by graphviz version 2.26.3 (20100126.1600)
 -->
<!-- Title: utilities.h Pages: 1 -->
<!--zoomable 522 -->
<svg id="main" version="1.1" xmlns="http://www.w3.org/2000/svg" xmlns:xlink="http://www.w3.org/1999/xlink" xml:space="preserve" onload="init(evt)">
        <defs>
                <circle id="rim" cx="0" cy="0" r="7"/>
                <circle id="rim2" cx="0" cy="0" r="3.5"/>
                <g id="zoomPlus">
                        <use xlink:href="#rim" fill="#404040">
                                <set attributeName="fill" to="#808080" begin="zoomplus.mouseover" end="zoomplus.mouseout"/>
                        </use>
                        <path d="M-4,0h8M0,-4v8" fill="none" stroke="white" stroke-width="1.5" pointer-events="none"/>
                </g>
                <g id="zoomMin">
                        <use xlink:href="#rim" fill="#404040">
                                <set attributeName="fill" to="#808080" begin="zoomminus.mouseover" end="zoomminus.mouseout"/>
                        </use>
                        <path d="M-4,0h8" fill="none" stroke="white" stroke-width="1.5" pointer-events="none"/>
                </g>
                <g id="dirArrow">
                        <path fill="none" stroke="white" stroke-width="1.5" d="M0,-3.0v7 M-2.5,-0.5L0,-3.0L2.5,-0.5"/>
                </g>
               <g id="resetDef">
                       <use xlink:href="#rim2" fill="#404040">
                               <set attributeName="fill" to="#808080" begin="reset.mouseover" end="reset.mouseout"/>
                       </use>
               </g>
        </defs>

<script type="text/javascript">
var viewWidth = 1340;
var viewHeight = 522;
var sectionId = 'dynsection-0';
</script>
<script xlink:href="../../svgpan.js"/>
<svg id="graph" class="graph">
<g id="viewport">
<title>utilities.h</title>
<polygon fill="white" stroke="white" points="-4,5 -4,-518 1336.53,-518 1336.53,5 -4,5"/>
<!-- Node1 -->
<g id="node1" class="node"><title>Node1</title>
<polygon fill="#bfbfbf" stroke="black" points="1039.53,-492.5 1039.53,-513.5 1095.53,-513.5 1095.53,-492.5 1039.53,-492.5"/>
<text text-anchor="middle" x="1067.53" y="-500.5" font-family="Helvetica,sans-Serif" font-size="10.00">utilities.h</text>
</g>
<!-- Node2 -->
<g id="node3" class="node"><title>Node2</title>
<a xlink:href="../../d2/d2c/configuration_8h.html" target="_top" xlink:title="blond/configuration.h">
<polygon fill="white" stroke="black" points="1149.03,-116.5 1149.03,-137.5 1256.03,-137.5 1256.03,-116.5 1149.03,-116.5"/>
<text text-anchor="middle" x="1202.53" y="-124.5" font-family="Helvetica,sans-Serif" font-size="10.00">blond/configuration.h</text>
</a>
</g>
<!-- Node1&#45;&gt;Node2 -->
<g id="edge2" class="edge"><title>Node1&#45;&gt;Node2</title>
<path fill="none" stroke="midnightblue" d="M1095.79,-495.538C1163.89,-476.721 1331.53,-425.111 1331.53,-373 1331.53,-373 1331.53,-373 1331.53,-250 1331.53,-197.938 1275.82,-161.181 1237.62,-142.099"/>
<polygon fill="midnightblue" stroke="midnightblue" points="1238.86,-138.811 1228.33,-137.629 1235.82,-145.119 1238.86,-138.811"/>
</g>
<!-- Node5 -->
<g id="node9" class="node"><title>Node5</title>
<a xlink:href="../../de/df0/utilities_8h.html" target="_top" xlink:title="blond/utilities.h">
<polygon fill="white" stroke="black" points="746.535,-174.5 746.535,-195.5 828.535,-195.5 828.535,-174.5 746.535,-174.5"/>
<text text-anchor="middle" x="787.535" y="-182.5" font-family="Helvetica,sans-Serif" font-size="10.00">blond/utilities.h</text>
</a>
</g>
<!-- Node1&#45;&gt;Node5 -->
<g id="edge8" class="edge"><title>Node1&#45;&gt;Node5</title>
<path fill="none" stroke="midnightblue" d="M1039.22,-501.798C971.829,-497.27 807.535,-475.7 807.535,-373 807.535,-373 807.535,-373 807.535,-315 807.535,-276.013 798.639,-231.206 792.713,-205.683"/>
<polygon fill="midnightblue" stroke="midnightblue" points="796.054,-204.607 790.316,-195.7 789.248,-206.241 796.054,-204.607"/>
</g>
<!-- Node18 -->
<g id="node37" class="node"><title>Node18</title>
<a xlink:href="../../d5/d34/GeneralParameters_8h.html" target="_top" xlink:title="blond/input_parameters\l/GeneralParameters.h">
<polygon fill="white" stroke="black" points="960.535,-233 960.535,-267 1078.53,-267 1078.53,-233 960.535,-233"/>
<text text-anchor="start" x="968.535" y="-254" font-family="Helvetica,sans-Serif" font-size="10.00">blond/input_parameters</text>
<text text-anchor="middle" x="1019.53" y="-241" font-family="Helvetica,sans-Serif" font-size="10.00">/GeneralParameters.h</text>
</a>
</g>
<!-- Node1&#45;&gt;Node18 -->
<g id="edge38" class="edge"><title>Node1&#45;&gt;Node18</title>
<path fill="none" stroke="midnightblue" d="M1048.11,-492.425C1033.6,-483.887 1013.88,-470.875 999.535,-456 973.175,-428.666 964.184,-420.449 953.535,-384 948.138,-365.528 954.237,-314.416 959.535,-304 965.501,-292.271 975.162,-281.881 985.006,-273.426"/>
<polygon fill="midnightblue" stroke="midnightblue" points="987.292,-276.078 992.872,-267.072 982.894,-270.633 987.292,-276.078"/>
</g>
<!-- Node19 -->
<g id="node42" class="node"><title>Node19</title>
<a xlink:href="../../d6/db7/RfParameters_8h.html" target="_top" xlink:title="blond/input_parameters\l/RfParameters.h">
<polygon fill="white" stroke="black" points="1008.53,-421 1008.53,-455 1126.53,-455 1126.53,-421 1008.53,-421"/>
<text text-anchor="start" x="1016.53" y="-442" font-family="Helvetica,sans-Serif" font-size="10.00">blond/input_parameters</text>
<text text-anchor="middle" x="1067.53" y="-429" font-family="Helvetica,sans-Serif" font-size="10.00">/RfParameters.h</text>
</a>
</g>
<!-- Node1&#45;&gt;Node19 -->
<g id="edge46" class="edge"><title>Node1&#45;&gt;Node19</title>
<path fill="none" stroke="midnightblue" d="M1067.53,-492.267C1067.53,-484.931 1067.53,-474.857 1067.53,-465.38"/>
<polygon fill="midnightblue" stroke="midnightblue" points="1071.03,-465.11 1067.53,-455.11 1064.03,-465.11 1071.03,-465.11"/>
</g>
<!-- Node35 -->
<g id="node90" class="node"><title>Node35</title>
<a xlink:href="../../d2/d6f/constants_8h.html" target="_top" xlink:title="blond/constants.h">
<polygon fill="white" stroke="black" points="1209.53,-362.5 1209.53,-383.5 1303.53,-383.5 1303.53,-362.5 1209.53,-362.5"/>
<text text-anchor="middle" x="1256.53" y="-370.5" font-family="Helvetica,sans-Serif" font-size="10.00">blond/constants.h</text>
</a>
</g>
<!-- Node1&#45;&gt;Node35 -->
<g id="edge116" class="edge"><title>Node1&#45;&gt;Node35</title>
<path fill="none" stroke="midnightblue" d="M1083,-492.362C1115.89,-469.737 1192.99,-416.705 1232.41,-389.595"/>
<polygon fill="midnightblue" stroke="midnightblue" points="1234.86,-392.154 1241.12,-383.603 1230.9,-386.387 1234.86,-392.154"/>
</g>
<!-- Node3 -->
<g id="node5" class="node"><title>Node3</title>
<polygon fill="white" stroke="#bfbfbf" points="1176.03,-58.5 1176.03,-79.5 1229.03,-79.5 1229.03,-58.5 1176.03,-58.5"/>
<text text-anchor="middle" x="1202.53" y="-66.5" font-family="Helvetica,sans-Serif" font-size="10.00">complex</text>
</g>
<!-- Node2&#45;&gt;Node3 -->
<g id="edge4" class="edge"><title>Node2&#45;&gt;Node3</title>
<path fill="none" stroke="midnightblue" d="M1202.53,-116.362C1202.53,-108.922 1202.53,-98.7427 1202.53,-89.7276"/>
<polygon fill="midnightblue" stroke="midnightblue" points="1206.03,-89.5706 1202.53,-79.5707 1199.03,-89.5707 1206.03,-89.5706"/>
</g>
<!-- Node4 -->
<g id="node7" class="node"><title>Node4</title>
<polygon fill="white" stroke="#bfbfbf" points="1099.53,-58.5 1099.53,-79.5 1143.53,-79.5 1143.53,-58.5 1099.53,-58.5"/>
<text text-anchor="middle" x="1121.53" y="-66.5" font-family="Helvetica,sans-Serif" font-size="10.00">vector</text>
</g>
<!-- Node2&#45;&gt;Node4 -->
<g id="edge6" class="edge"><title>Node2&#45;&gt;Node4</title>
<path fill="none" stroke="midnightblue" d="M1187.68,-116.362C1175.69,-107.777 1158.61,-95.5459 1144.81,-85.6636"/>
<polygon fill="midnightblue" stroke="midnightblue" points="1146.47,-82.5469 1136.3,-79.5707 1142.39,-88.2383 1146.47,-82.5469"/>
</g>
<!-- Node5&#45;&gt;Node2 -->
<g id="edge32" class="edge"><title>Node5&#45;&gt;Node2</title>
<path fill="none" stroke="midnightblue" d="M828.844,-179.227C901.516,-169.07 1052.67,-147.944 1138.81,-135.906"/>
<polygon fill="midnightblue" stroke="midnightblue" points="1139.31,-139.37 1148.73,-134.52 1138.34,-132.438 1139.31,-139.37"/>
</g>
<!-- Node5&#45;&gt;Node4 -->
<g id="edge28" class="edge"><title>Node5&#45;&gt;Node4</title>
<path fill="none" stroke="midnightblue" d="M746.122,-183.078C618.742,-176.969 240.26,-157.261 222.535,-138 215.914,-130.805 215.804,-123.092 222.535,-116 252.939,-83.9648 930.746,-71.8564 1088.8,-69.4633"/>
<polygon fill="midnightblue" stroke="midnightblue" points="1089.32,-72.9561 1099.26,-69.3077 1089.21,-65.9569 1089.32,-72.9561"/>
</g>
<!-- Node6 -->
<g id="node11" class="node"><title>Node6</title>
<polygon fill="white" stroke="#bfbfbf" points="857.535,-116.5 857.535,-137.5 903.535,-137.5 903.535,-116.5 857.535,-116.5"/>
<text text-anchor="middle" x="880.535" y="-124.5" font-family="Helvetica,sans-Serif" font-size="10.00">chrono</text>
</g>
<!-- Node5&#45;&gt;Node6 -->
<g id="edge10" class="edge"><title>Node5&#45;&gt;Node6</title>
<path fill="none" stroke="midnightblue" d="M804.592,-174.362C818.62,-165.614 838.719,-153.079 854.717,-143.101"/>
<polygon fill="midnightblue" stroke="midnightblue" points="856.952,-145.832 863.585,-137.571 853.248,-139.893 856.952,-145.832"/>
</g>
<!-- Node7 -->
<g id="node13" class="node"><title>Node7</title>
<polygon fill="white" stroke="#bfbfbf" points="921.035,-116.5 921.035,-137.5 964.035,-137.5 964.035,-116.5 921.035,-116.5"/>
<text text-anchor="middle" x="942.535" y="-124.5" font-family="Helvetica,sans-Serif" font-size="10.00">cstdio</text>
</g>
<!-- Node5&#45;&gt;Node7 -->
<g id="edge12" class="edge"><title>Node5&#45;&gt;Node7</title>
<path fill="none" stroke="midnightblue" d="M815.604,-174.497C842.488,-164.437 882.991,-149.281 910.98,-138.808"/>
<polygon fill="midnightblue" stroke="midnightblue" points="912.539,-141.962 920.678,-135.179 910.085,-135.405 912.539,-141.962"/>
</g>
<!-- Node8 -->
<g id="node15" class="node"><title>Node8</title>
<polygon fill="white" stroke="#bfbfbf" points="981.035,-116.5 981.035,-137.5 1026.03,-137.5 1026.03,-116.5 981.035,-116.5"/>
<text text-anchor="middle" x="1003.53" y="-124.5" font-family="Helvetica,sans-Serif" font-size="10.00">cstdlib</text>
</g>
<!-- Node5&#45;&gt;Node8 -->
<g id="edge14" class="edge"><title>Node5&#45;&gt;Node8</title>
<path fill="none" stroke="midnightblue" d="M828.617,-175.711C864.171,-167.416 917.125,-154.453 971.182,-138.247"/>
<polygon fill="midnightblue" stroke="midnightblue" points="972.373,-141.543 980.928,-135.293 970.343,-134.844 972.373,-141.543"/>
</g>
<!-- Node9 -->
<g id="node17" class="node"><title>Node9</title>
<polygon fill="white" stroke="#bfbfbf" points="1043.53,-116.5 1043.53,-137.5 1093.53,-137.5 1093.53,-116.5 1043.53,-116.5"/>
<text text-anchor="middle" x="1068.53" y="-124.5" font-family="Helvetica,sans-Serif" font-size="10.00">fstream</text>
</g>
<!-- Node5&#45;&gt;Node9 -->
<g id="edge16" class="edge"><title>Node5&#45;&gt;Node9</title>
<path fill="none" stroke="midnightblue" d="M828.964,-178.74C876.29,-171.232 956.173,-157.473 1033.48,-138.047"/>
<polygon fill="midnightblue" stroke="midnightblue" points="1034.56,-141.384 1043.39,-135.523 1032.83,-134.601 1034.56,-141.384"/>
</g>
<!-- Node10 -->
<g id="node19" class="node"><title>Node10</title>
<polygon fill="white" stroke="#bfbfbf" points="231.535,-116.5 231.535,-137.5 285.535,-137.5 285.535,-116.5 231.535,-116.5"/>
<text text-anchor="middle" x="258.535" y="-124.5" font-family="Helvetica,sans-Serif" font-size="10.00">iostream</text>
</g>
<!-- Node5&#45;&gt;Node10 -->
<g id="edge18" class="edge"><title>Node5&#45;&gt;Node10</title>
<path fill="none" stroke="midnightblue" d="M746.226,-183.868C662.629,-180.975 467.452,-171.168 295.872,-137.947"/>
<polygon fill="midnightblue" stroke="midnightblue" points="296.395,-134.483 285.907,-135.986 295.043,-141.351 296.395,-134.483"/>
</g>
<!-- Node11 -->
<g id="node21" class="node"><title>Node11</title>
<polygon fill="white" stroke="#bfbfbf" points="303.035,-116.5 303.035,-137.5 350.035,-137.5 350.035,-116.5 303.035,-116.5"/>
<text text-anchor="middle" x="326.535" y="-124.5" font-family="Helvetica,sans-Serif" font-size="10.00">iterator</text>
</g>
<!-- Node5&#45;&gt;Node11 -->
<g id="edge20" class="edge"><title>Node5&#45;&gt;Node11</title>
<path fill="none" stroke="midnightblue" d="M746.525,-183.532C671.322,-180.191 506.365,-169.847 360.178,-137.995"/>
<polygon fill="midnightblue" stroke="midnightblue" points="360.653,-134.516 350.132,-135.766 359.136,-141.349 360.653,-134.516"/>
</g>
<!-- Node12 -->
<g id="node23" class="node"><title>Node12</title>
<polygon fill="white" stroke="#bfbfbf" points="367.535,-116.5 367.535,-137.5 419.535,-137.5 419.535,-116.5 367.535,-116.5"/>
<text text-anchor="middle" x="393.535" y="-124.5" font-family="Helvetica,sans-Serif" font-size="10.00">memory</text>
</g>
<!-- Node5&#45;&gt;Node12 -->
<g id="edge22" class="edge"><title>Node5&#45;&gt;Node12</title>
<path fill="none" stroke="midnightblue" d="M746.485,-181.968C681.207,-176.64 549.687,-163.836 429.852,-137.997"/>
<polygon fill="midnightblue" stroke="midnightblue" points="430.293,-134.51 419.775,-135.787 428.793,-141.348 430.293,-134.51"/>
</g>
<!-- Node13 -->
<g id="node25" class="node"><title>Node13</title>
<polygon fill="white" stroke="#bfbfbf" points="437.535,-116.5 437.535,-137.5 489.535,-137.5 489.535,-116.5 437.535,-116.5"/>
<text text-anchor="middle" x="463.535" y="-124.5" font-family="Helvetica,sans-Serif" font-size="10.00">sstream</text>
</g>
<!-- Node5&#45;&gt;Node13 -->
<g id="edge24" class="edge"><title>Node5&#45;&gt;Node13</title>
<path fill="none" stroke="midnightblue" d="M746.489,-180.207C692.057,-173.44 592.907,-159.686 499.67,-138.027"/>
<polygon fill="midnightblue" stroke="midnightblue" points="500.332,-134.587 489.796,-135.697 498.725,-141.4 500.332,-134.587"/>
</g>
<!-- Node14 -->
<g id="node27" class="node"><title>Node14</title>
<polygon fill="white" stroke="#bfbfbf" points="507.035,-116.5 507.035,-137.5 548.035,-137.5 548.035,-116.5 507.035,-116.5"/>
<text text-anchor="middle" x="527.535" y="-124.5" font-family="Helvetica,sans-Serif" font-size="10.00">string</text>
</g>
<!-- Node5&#45;&gt;Node14 -->
<g id="edge26" class="edge"><title>Node5&#45;&gt;Node14</title>
<path fill="none" stroke="midnightblue" d="M746.155,-178.658C701.644,-171.38 628.718,-158.14 558.234,-138.199"/>
<polygon fill="midnightblue" stroke="midnightblue" points="558.885,-134.744 548.307,-135.34 556.948,-141.471 558.885,-134.744"/>
</g>
<!-- Node15 -->
<g id="node30" class="node"><title>Node15</title>
<polygon fill="white" stroke="#bfbfbf" points="565.535,-116.5 565.535,-137.5 625.535,-137.5 625.535,-116.5 565.535,-116.5"/>
<text text-anchor="middle" x="595.535" y="-124.5" font-family="Helvetica,sans-Serif" font-size="10.00">sys/stat.h</text>
</g>
<!-- Node5&#45;&gt;Node15 -->
<g id="edge30" class="edge"><title>Node5&#45;&gt;Node15</title>
<path fill="none" stroke="midnightblue" d="M752.765,-174.497C719.718,-164.514 670.055,-149.511 635.416,-139.047"/>
<polygon fill="midnightblue" stroke="midnightblue" points="636.212,-135.632 625.627,-136.09 634.188,-142.333 636.212,-135.632"/>
</g>
<!-- Node16 -->
<g id="node33" class="node"><title>Node16</title>
<polygon fill="white" stroke="#bfbfbf" points="643.035,-116.5 643.035,-137.5 718.035,-137.5 718.035,-116.5 643.035,-116.5"/>
<text text-anchor="middle" x="680.535" y="-124.5" font-family="Helvetica,sans-Serif" font-size="10.00">mm_malloc.h</text>
</g>
<!-- Node5&#45;&gt;Node16 -->
<g id="edge34" class="edge"><title>Node5&#45;&gt;Node16</title>
<path fill="none" stroke="midnightblue" d="M767.909,-174.362C751.394,-165.409 727.561,-152.491 708.957,-142.406"/>
<polygon fill="midnightblue" stroke="midnightblue" points="710.495,-139.259 700.036,-137.571 707.159,-145.413 710.495,-139.259"/>
</g>
<!-- Node17 -->
<g id="node35" class="node"><title>Node17</title>
<a xlink:href="../../da/d69/optionparser_8h.html" target="_top" xlink:title="This is the only file required to use The Lean Mean C++ Option Parser. Just #include it and you&#39;re se...">
<polygon fill="white" stroke="black" points="735.535,-116.5 735.535,-137.5 839.535,-137.5 839.535,-116.5 735.535,-116.5"/>
<text text-anchor="middle" x="787.535" y="-124.5" font-family="Helvetica,sans-Serif" font-size="10.00">blond/optionparser.h</text>
</a>
</g>
<!-- Node5&#45;&gt;Node17 -->
<g id="edge36" class="edge"><title>Node5&#45;&gt;Node17</title>
<path fill="none" stroke="midnightblue" d="M787.535,-174.362C787.535,-166.922 787.535,-156.743 787.535,-147.728"/>
<polygon fill="midnightblue" stroke="midnightblue" points="791.035,-147.571 787.535,-137.571 784.035,-147.571 791.035,-147.571"/>
</g>
<!-- Node18&#45;&gt;Node2 -->
<g id="edge40" class="edge"><title>Node18&#45;&gt;Node2</title>
<path fill="none" stroke="midnightblue" d="M1037.99,-232.734C1055.94,-216.447 1084.39,-191.923 1111.53,-174 1129.81,-161.93 1151.57,-150.593 1169.23,-142.079"/>
<polygon fill="midnightblue" stroke="midnightblue" points="1171.03,-145.098 1178.57,-137.652 1168.03,-138.772 1171.03,-145.098"/>
</g>
<!-- Node18&#45;&gt;Node4 -->
<g id="edge44" class="edge"><title>Node18&#45;&gt;Node4</title>
<path fill="none" stroke="midnightblue" d="M1032.94,-232.656C1055.13,-203.835 1097.55,-148.226 1102.53,-138 1110,-122.663 1114.93,-103.93 1117.89,-89.8555"/>
<polygon fill="midnightblue" stroke="midnightblue" points="1121.38,-90.2035 1119.85,-79.7203 1114.51,-88.8722 1121.38,-90.2035"/>
</g>
<!-- Node18&#45;&gt;Node5 -->
<g id="edge42" class="edge"><title>Node18&#45;&gt;Node5</title>
<path fill="none" stroke="midnightblue" d="M960.391,-233.43C921.491,-222.531 871.258,-208.457 834.979,-198.292"/>
<polygon fill="midnightblue" stroke="midnightblue" points="835.711,-194.863 825.137,-195.535 833.822,-201.603 835.711,-194.863"/>
</g>
<!-- Node19&#45;&gt;Node18 -->
<g id="edge76" class="edge"><title>Node19&#45;&gt;Node18</title>
<path fill="none" stroke="midnightblue" d="M1008.87,-420.901C991.194,-412.703 973.781,-400.865 963.535,-384 941.849,-348.305 971.674,-302.699 995.428,-274.954"/>
<polygon fill="midnightblue" stroke="midnightblue" points="998.212,-277.09 1002.23,-267.286 992.975,-272.444 998.212,-277.09"/>
</g>
<!-- Node20 -->
<g id="node44" class="node"><title>Node20</title>
<a xlink:href="../../d7/d74/Beams_8h.html" target="_top" xlink:title="blond/beams/Beams.h">
<polygon fill="white" stroke="black" points="972.535,-362.5 972.535,-383.5 1086.53,-383.5 1086.53,-362.5 972.535,-362.5"/>
<text text-anchor="middle" x="1029.53" y="-370.5" font-family="Helvetica,sans-Serif" font-size="10.00">blond/beams/Beams.h</text>
</a>
</g>
<!-- Node19&#45;&gt;Node20 -->
<g id="edge48" class="edge"><title>Node19&#45;&gt;Node20</title>
<path fill="none" stroke="midnightblue" d="M1051.53,-420.922C1045.67,-412.395 1039.52,-402.025 1035,-393.115"/>
<polygon fill="midnightblue" stroke="midnightblue" points="1038.08,-391.443 1030.69,-383.852 1031.74,-394.395 1038.08,-391.443"/>
</g>
<!-- Node21 -->
<g id="node46" class="node"><title>Node21</title>
<a xlink:href="../../d5/d87/globals_8h.html" target="_top" xlink:title="blond/globals.h">
<polygon fill="white" stroke="black" points="1082.53,-304.5 1082.53,-325.5 1164.53,-325.5 1164.53,-304.5 1082.53,-304.5"/>
<text text-anchor="middle" x="1123.53" y="-312.5" font-family="Helvetica,sans-Serif" font-size="10.00">blond/globals.h</text>
</a>
</g>
<!-- Node19&#45;&gt;Node21 -->
<g id="edge114" class="edge"><title>Node19&#45;&gt;Node21</title>
<path fill="none" stroke="midnightblue" d="M1069.21,-420.694C1073.66,-410.198 1080.79,-396.468 1086.53,-384 1094.03,-367.75 1101.6,-348.902 1108.4,-335.016"/>
<polygon fill="midnightblue" stroke="midnightblue" points="1111.65,-336.368 1113.21,-325.889 1105.45,-333.108 1111.65,-336.368"/>
</g>
<!-- Node24 -->
<g id="node63" class="node"><title>Node24</title>
<a xlink:href="../../d2/de2/math__functions_8h.html" target="_top" xlink:title="blond/math_functions.h">
<polygon fill="white" stroke="black" points="265.535,-239.5 265.535,-260.5 383.535,-260.5 383.535,-239.5 265.535,-239.5"/>
<text text-anchor="middle" x="324.535" y="-247.5" font-family="Helvetica,sans-Serif" font-size="10.00">blond/math_functions.h</text>
</a>
</g>
<!-- Node19&#45;&gt;Node24 -->
<g id="edge78" class="edge"><title>Node19&#45;&gt;Node24</title>
<path fill="none" stroke="midnightblue" d="M1008.3,-423.012C866.567,-387.149 509.768,-296.869 376.134,-263.056"/>
<polygon fill="midnightblue" stroke="midnightblue" points="376.705,-259.59 366.152,-260.53 374.988,-266.376 376.705,-259.59"/>
</g>
<!-- Node19&#45;&gt;Node35 -->
<g id="edge110" class="edge"><title>Node19&#45;&gt;Node35</title>
<path fill="none" stroke="midnightblue" d="M1117.19,-420.922C1148.01,-410.323 1187.11,-396.876 1216.04,-386.925"/>
<polygon fill="midnightblue" stroke="midnightblue" points="1217.51,-390.124 1225.82,-383.562 1215.23,-383.505 1217.51,-390.124"/>
</g>
<!-- Node20&#45;&gt;Node2 -->
<g id="edge68" class="edge"><title>Node20&#45;&gt;Node2</title>
<path fill="none" stroke="midnightblue" d="M1036.2,-362.118C1044.66,-348.414 1059.81,-324.216 1073.53,-304 1113.56,-245.056 1164.11,-177.57 1188.33,-145.628"/>
<polygon fill="midnightblue" stroke="midnightblue" points="1191.17,-147.677 1194.43,-137.598 1185.59,-143.442 1191.17,-147.677"/>
</g>
<!-- Node20&#45;&gt;Node5 -->
<g id="edge70" class="edge"><title>Node20&#45;&gt;Node5</title>
<path fill="none" stroke="midnightblue" d="M1015.83,-362.354C975.648,-331.138 857.897,-239.662 809.101,-201.754"/>
<polygon fill="midnightblue" stroke="midnightblue" points="811.133,-198.901 801.089,-195.53 806.839,-204.428 811.133,-198.901"/>
</g>
<!-- Node20&#45;&gt;Node18 -->
<g id="edge72" class="edge"><title>Node20&#45;&gt;Node18</title>
<path fill="none" stroke="midnightblue" d="M1028.65,-362.085C1027.12,-343.275 1023.94,-304.21 1021.77,-277.547"/>
<polygon fill="midnightblue" stroke="midnightblue" points="1025.24,-277.001 1020.94,-267.317 1018.26,-277.568 1025.24,-277.001"/>
</g>
<!-- Node20&#45;&gt;Node19 -->
<g id="edge74" class="edge"><title>Node20&#45;&gt;Node19</title>
<path fill="none" stroke="midnightblue" d="M1041.07,-383.852C1046.87,-391.511 1053.55,-402.111 1058.91,-411.903"/>
<polygon fill="midnightblue" stroke="midnightblue" points="1055.87,-413.647 1063.57,-420.922 1062.09,-410.432 1055.87,-413.647"/>
</g>
<!-- Node20&#45;&gt;Node21 -->
<g id="edge50" class="edge"><title>Node20&#45;&gt;Node21</title>
<path fill="none" stroke="midnightblue" d="M1041.41,-362.362C1054.28,-353.45 1074.86,-340.609 1092.28,-330.545"/>
<polygon fill="midnightblue" stroke="midnightblue" points="1094.08,-333.55 1101.05,-325.571 1090.63,-327.461 1094.08,-333.55"/>
</g>
<!-- Node21&#45;&gt;Node18 -->
<g id="edge52" class="edge"><title>Node21&#45;&gt;Node18</title>
<path fill="none" stroke="midnightblue" d="M1106.36,-304.267C1092.61,-295.669 1072.83,-283.31 1055.63,-272.558"/>
<polygon fill="midnightblue" stroke="midnightblue" points="1057.25,-269.442 1046.91,-267.11 1053.54,-275.378 1057.25,-269.442"/>
</g>
<!-- Node21&#45;&gt;Node19 -->
<g id="edge54" class="edge"><title>Node21&#45;&gt;Node19</title>
<path fill="none" stroke="midnightblue" d="M1125.75,-325.889C1123.28,-339.6 1113.84,-363.806 1104.53,-384 1100.27,-393.253 1095.24,-403.202 1090.15,-412.008"/>
<polygon fill="midnightblue" stroke="midnightblue" points="1087.07,-410.334 1084.85,-420.694 1093.05,-413.98 1087.07,-410.334"/>
</g>
<!-- Node21&#45;&gt;Node20 -->
<g id="edge56" class="edge"><title>Node21&#45;&gt;Node20</title>
<path fill="none" stroke="midnightblue" d="M1111.76,-325.571C1098.93,-334.462 1078.36,-347.301 1060.92,-357.379"/>
<polygon fill="midnightblue" stroke="midnightblue" points="1059.11,-354.381 1052.14,-362.362 1062.56,-360.469 1059.11,-354.381"/>
</g>
<!-- Node22 -->
<g id="node51" class="node"><title>Node22</title>
<a xlink:href="../../dc/df2/Slices_8h.html" target="_top" xlink:title="blond/beams/Slices.h">
<polygon fill="white" stroke="black" points="1134.53,-239.5 1134.53,-260.5 1244.53,-260.5 1244.53,-239.5 1134.53,-239.5"/>
<text text-anchor="middle" x="1189.53" y="-247.5" font-family="Helvetica,sans-Serif" font-size="10.00">blond/beams/Slices.h</text>
</a>
</g>
<!-- Node21&#45;&gt;Node22 -->
<g id="edge58" class="edge"><title>Node21&#45;&gt;Node22</title>
<path fill="none" stroke="midnightblue" d="M1134.43,-304.267C1144.52,-294.328 1159.72,-279.363 1171.6,-267.664"/>
<polygon fill="midnightblue" stroke="midnightblue" points="1174.17,-270.044 1178.84,-260.534 1169.26,-265.057 1174.17,-270.044"/>
</g>
<!-- Node22&#45;&gt;Node2 -->
<g id="edge60" class="edge"><title>Node22&#45;&gt;Node2</title>
<path fill="none" stroke="midnightblue" d="M1190.69,-239.085C1192.85,-218.609 1197.55,-174.133 1200.34,-147.778"/>
<polygon fill="midnightblue" stroke="midnightblue" points="1203.83,-148.028 1201.4,-137.715 1196.87,-147.292 1203.83,-148.028"/>
</g>
<!-- Node22&#45;&gt;Node5 -->
<g id="edge62" class="edge"><title>Node22&#45;&gt;Node5</title>
<path fill="none" stroke="midnightblue" d="M1134.51,-240.09C1119.31,-237.406 1102.79,-234.541 1087.53,-232 1000.28,-217.467 898.524,-201.794 838.762,-192.718"/>
<polygon fill="midnightblue" stroke="midnightblue" points="839.235,-189.25 828.823,-191.211 838.185,-196.171 839.235,-189.25"/>
</g>
<!-- Node22&#45;&gt;Node19 -->
<g id="edge64" class="edge"><title>Node22&#45;&gt;Node19</title>
<path fill="none" stroke="midnightblue" d="M1189,-260.634C1187.86,-275.861 1184.34,-304.42 1173.53,-326 1155.65,-361.7 1122.63,-393.816 1098.18,-414.408"/>
<polygon fill="midnightblue" stroke="midnightblue" points="1095.74,-411.88 1090.25,-420.938 1100.19,-417.283 1095.74,-411.88"/>
</g>
<!-- Node23 -->
<g id="node56" class="node"><title>Node23</title>
<polygon fill="white" stroke="#bfbfbf" points="1210.03,-174.5 1210.03,-195.5 1245.03,-195.5 1245.03,-174.5 1210.03,-174.5"/>
<text text-anchor="middle" x="1227.53" y="-182.5" font-family="Helvetica,sans-Serif" font-size="10.00">map</text>
</g>
<!-- Node22&#45;&gt;Node23 -->
<g id="edge66" class="edge"><title>Node22&#45;&gt;Node23</title>
<path fill="none" stroke="midnightblue" d="M1195.81,-239.267C1201.34,-229.801 1209.54,-215.777 1216.22,-204.357"/>
<polygon fill="midnightblue" stroke="midnightblue" points="1219.35,-205.933 1221.38,-195.534 1213.31,-202.4 1219.35,-205.933"/>
</g>
<!-- Node24&#45;&gt;Node2 -->
<g id="edge82" class="edge"><title>Node24&#45;&gt;Node2</title>
<path fill="none" stroke="midnightblue" d="M383.589,-245.368C479.234,-237.51 673.84,-220.047 837.535,-196 946.089,-180.053 1071.57,-154.827 1143.53,-139.699"/>
<polygon fill="midnightblue" stroke="midnightblue" points="1144.69,-143.031 1153.75,-137.542 1143.24,-136.182 1144.69,-143.031"/>
</g>
<!-- Node24&#45;&gt;Node5 -->
<g id="edge100" class="edge"><title>Node24&#45;&gt;Node5</title>
<path fill="none" stroke="midnightblue" d="M383.644,-241.702C475.242,-228.842 649.907,-204.321 736.396,-192.179"/>
<polygon fill="midnightblue" stroke="midnightblue" points="737.079,-195.618 746.495,-190.762 736.106,-188.686 737.079,-195.618"/>
</g>
<!-- Node25 -->
<g id="node65" class="node"><title>Node25</title>
<polygon fill="white" stroke="#bfbfbf" points="27.5349,-174.5 27.5349,-195.5 83.5349,-195.5 83.5349,-174.5 27.5349,-174.5"/>
<text text-anchor="middle" x="55.5349" y="-182.5" font-family="Helvetica,sans-Serif" font-size="10.00">algorithm</text>
</g>
<!-- Node24&#45;&gt;Node25 -->
<g id="edge80" class="edge"><title>Node24&#45;&gt;Node25</title>
<path fill="none" stroke="midnightblue" d="M275.441,-239.475C230.545,-229.646 162.089,-214.155 93.8334,-196.244"/>
<polygon fill="midnightblue" stroke="midnightblue" points="94.3295,-192.755 83.7671,-193.584 92.5412,-199.523 94.3295,-192.755"/>
</g>
<!-- Node26 -->
<g id="node68" class="node"><title>Node26</title>
<a xlink:href="../../d8/dcd/exp_8h.html" target="_top" xlink:title="blond/exp.h">
<polygon fill="white" stroke="black" points="183.035,-174.5 183.035,-195.5 250.035,-195.5 250.035,-174.5 183.035,-174.5"/>
<text text-anchor="middle" x="216.535" y="-182.5" font-family="Helvetica,sans-Serif" font-size="10.00">blond/exp.h</text>
</a>
</g>
<!-- Node24&#45;&gt;Node26 -->
<g id="edge84" class="edge"><title>Node24&#45;&gt;Node26</title>
<path fill="none" stroke="midnightblue" d="M306.701,-239.267C289.244,-228.76 262.455,-212.637 242.608,-200.692"/>
<polygon fill="midnightblue" stroke="midnightblue" points="244.41,-197.692 234.037,-195.534 240.8,-203.689 244.41,-197.692"/>
</g>
<!-- Node28 -->
<g id="node72" class="node"><title>Node28</title>
<polygon fill="white" stroke="#bfbfbf" points="23.5349,-0.5 23.5349,-21.5 67.5349,-21.5 67.5349,-0.5 23.5349,-0.5"/>
<text text-anchor="middle" x="45.5349" y="-8.5" font-family="Helvetica,sans-Serif" font-size="10.00">cmath</text>
</g>
<!-- Node24&#45;&gt;Node28 -->
<g id="edge102" class="edge"><title>Node24&#45;&gt;Node28</title>
<path fill="none" stroke="midnightblue" d="M265.218,-248.259C185.278,-244.52 49.3937,-232.781 18.5349,-196 -21.6817,-148.065 13.9797,-67.4196 34.0481,-30.5081"/>
<polygon fill="midnightblue" stroke="midnightblue" points="37.1416,-32.1475 38.9893,-21.715 31.0391,-28.7182 37.1416,-32.1475"/>
</g>
<!-- Node30 -->
<g id="node76" class="node"><title>Node30</title>
<a xlink:href="../../d1/d3d/sin_8h.html" target="_top" xlink:title="blond/sin.h">
<polygon fill="white" stroke="black" points="101.535,-174.5 101.535,-195.5 165.535,-195.5 165.535,-174.5 101.535,-174.5"/>
<text text-anchor="middle" x="133.535" y="-182.5" font-family="Helvetica,sans-Serif" font-size="10.00">blond/sin.h</text>
</a>
</g>
<!-- Node24&#45;&gt;Node30 -->
<g id="edge92" class="edge"><title>Node24&#45;&gt;Node30</title>
<path fill="none" stroke="midnightblue" d="M293.422,-239.412C260.957,-228.364 209.909,-210.991 174.254,-198.857"/>
<polygon fill="midnightblue" stroke="midnightblue" points="175.229,-195.492 164.634,-195.584 172.973,-202.119 175.229,-195.492"/>
</g>
<!-- Node32 -->
<g id="node84" class="node"><title>Node32</title>
<polygon fill="white" stroke="#bfbfbf" points="267.035,-174.5 267.035,-195.5 316.035,-195.5 316.035,-174.5 267.035,-174.5"/>
<text text-anchor="middle" x="291.535" y="-182.5" font-family="Helvetica,sans-Serif" font-size="10.00">random</text>
</g>
<!-- Node24&#45;&gt;Node32 -->
<g id="edge104" class="edge"><title>Node24&#45;&gt;Node32</title>
<path fill="none" stroke="midnightblue" d="M319.086,-239.267C314.328,-229.896 307.302,-216.057 301.537,-204.7"/>
<polygon fill="midnightblue" stroke="midnightblue" points="304.531,-202.866 296.883,-195.534 298.289,-206.035 304.531,-202.866"/>
</g>
<!-- Node33 -->
<g id="node86" class="node"><title>Node33</title>
<polygon fill="white" stroke="#bfbfbf" points="333.035,-174.5 333.035,-195.5 382.035,-195.5 382.035,-174.5 333.035,-174.5"/>
<text text-anchor="middle" x="357.535" y="-182.5" font-family="Helvetica,sans-Serif" font-size="10.00">cassert</text>
</g>
<!-- Node24&#45;&gt;Node33 -->
<g id="edge106" class="edge"><title>Node24&#45;&gt;Node33</title>
<path fill="none" stroke="midnightblue" d="M329.984,-239.267C334.742,-229.896 341.767,-216.057 347.533,-204.7"/>
<polygon fill="midnightblue" stroke="midnightblue" points="350.781,-206.035 352.187,-195.534 344.539,-202.866 350.781,-206.035"/>
</g>
<!-- Node34 -->
<g id="node88" class="node"><title>Node34</title>
<a xlink:href="../../d1/db0/openmp_8h.html" target="_top" xlink:title="blond/openmp.h">
<polygon fill="white" stroke="black" points="399.535,-174.5 399.535,-195.5 485.535,-195.5 485.535,-174.5 399.535,-174.5"/>
<text text-anchor="middle" x="442.535" y="-182.5" font-family="Helvetica,sans-Serif" font-size="10.00">blond/openmp.h</text>
</a>
</g>
<!-- Node24&#45;&gt;Node34 -->
<g id="edge108" class="edge"><title>Node24&#45;&gt;Node34</title>
<path fill="none" stroke="midnightblue" d="M343.756,-239.412C362.956,-228.836 392.676,-212.465 414.504,-200.441"/>
<polygon fill="midnightblue" stroke="midnightblue" points="416.251,-203.474 423.322,-195.584 412.874,-197.343 416.251,-203.474"/>
</g>
<!-- Node27 -->
<g id="node70" class="node"><title>Node27</title>
<a xlink:href="../../df/de1/vdtcore__common_8h.html" target="_top" xlink:title="vdtcore_common.h">
<polygon fill="white" stroke="black" points="73.5349,-58.5 73.5349,-79.5 173.535,-79.5 173.535,-58.5 73.5349,-58.5"/>
<text text-anchor="middle" x="123.535" y="-66.5" font-family="Helvetica,sans-Serif" font-size="10.00">vdtcore_common.h</text>
</a>
</g>
<!-- Node26&#45;&gt;Node27 -->
<g id="edge86" class="edge"><title>Node26&#45;&gt;Node27</title>
<path fill="none" stroke="midnightblue" d="M207.952,-174.295C192.104,-154.527 158.073,-112.08 138.402,-87.5443"/>
<polygon fill="midnightblue" stroke="midnightblue" points="141.083,-85.292 132.097,-79.6792 135.621,-89.6707 141.083,-85.292"/>
</g>
<!-- Node29 -->
<g id="node74" class="node"><title>Node29</title>
<polygon fill="white" stroke="#bfbfbf" points="97.5349,-116.5 97.5349,-137.5 137.535,-137.5 137.535,-116.5 97.5349,-116.5"/>
<text text-anchor="middle" x="117.535" y="-124.5" font-family="Helvetica,sans-Serif" font-size="10.00">limits</text>
</g>
<!-- Node26&#45;&gt;Node29 -->
<g id="edge90" class="edge"><title>Node26&#45;&gt;Node29</title>
<path fill="none" stroke="midnightblue" d="M198.377,-174.362C183.305,-165.532 161.648,-152.844 144.542,-142.822"/>
<polygon fill="midnightblue" stroke="midnightblue" points="145.975,-139.606 135.578,-137.571 142.437,-145.646 145.975,-139.606"/>
</g>
<!-- Node27&#45;&gt;Node28 -->
<g id="edge88" class="edge"><title>Node27&#45;&gt;Node28</title>
<path fill="none" stroke="midnightblue" d="M109.228,-58.3619C97.6836,-49.7773 81.2345,-37.5459 67.9445,-27.6636"/>
<polygon fill="midnightblue" stroke="midnightblue" points="69.8637,-24.7291 59.7506,-21.5707 65.6867,-30.3463 69.8637,-24.7291"/>
</g>
<!-- Node31 -->
<g id="node78" class="node"><title>Node31</title>
<a xlink:href="../../dc/dfa/sincos_8h.html" target="_top" xlink:title="sincos.h">
<polygon fill="white" stroke="black" points="27.0349,-116.5 27.0349,-137.5 80.0349,-137.5 80.0349,-116.5 27.0349,-116.5"/>
<text text-anchor="middle" x="53.5349" y="-124.5" font-family="Helvetica,sans-Serif" font-size="10.00">sincos.h</text>
</a>
</g>
<!-- Node30&#45;&gt;Node31 -->
<g id="edge94" class="edge"><title>Node30&#45;&gt;Node31</title>
<path fill="none" stroke="midnightblue" d="M118.862,-174.362C107.021,-165.777 90.1499,-153.546 76.5191,-143.664"/>
<polygon fill="midnightblue" stroke="midnightblue" points="78.2656,-140.607 68.1151,-137.571 74.1568,-146.274 78.2656,-140.607"/>
</g>
<!-- Node31&#45;&gt;Node27 -->
<g id="edge96" class="edge"><title>Node31&#45;&gt;Node27</title>
<path fill="none" stroke="midnightblue" d="M66.3739,-116.362C76.5374,-107.941 90.936,-96.0105 102.739,-86.2308"/>
<polygon fill="midnightblue" stroke="midnightblue" points="105.31,-88.6459 110.777,-79.5707 100.844,-83.2558 105.31,-88.6459"/>
</g>
<!-- Node31&#45;&gt;Node28 -->
<g id="edge98" class="edge"><title>Node31&#45;&gt;Node28</title>
<path fill="none" stroke="midnightblue" d="M52.7966,-116.295C51.475,-97.1314 48.6834,-56.654 46.9723,-31.8434"/>
<polygon fill="midnightblue" stroke="midnightblue" points="50.4512,-31.4147 46.2714,-21.6792 43.4678,-31.8963 50.4512,-31.4147"/>
</g>
<!-- Node35&#45;&gt;Node2 -->
<g id="edge112" class="edge"><title>Node35&#45;&gt;Node2</title>
<path fill="none" stroke="midnightblue" d="M1259.15,-362.449C1266.2,-331.713 1283.16,-240.235 1253.53,-174 1248.12,-161.893 1237.92,-151.502 1228.06,-143.593"/>
<polygon fill="midnightblue" stroke="midnightblue" points="1230.07,-140.729 1219.97,-137.55 1225.88,-146.338 1230.07,-140.729"/>
</g>
</g>
</svg>
        <g id="navigator" transform="translate(0 0)" fill="#404254">
                <rect fill="#f2f5e9" fill-opacity="0.5" stroke="#606060" stroke-width=".5" x="0" y="0" width="60" height="60"/>
                <use id="zoomplus" xlink:href="#zoomPlus" x="17" y="9" onmousedown="handleZoom(evt,'in')"/>
                <use id="zoomminus" xlink:href="#zoomMin" x="42" y="9" onmousedown="handleZoom(evt,'out')"/>
                <use id="reset" xlink:href="#resetDef" x="30" y="36" onmousedown="handleReset()"/>
                <g id="arrowUp" xlink:href="#dirArrow" transform="translate(30 24)" onmousedown="handlePan(0,-1)">
                  <use xlink:href="#rim" fill="#404040">
                        <set attributeName="fill" to="#808080" begin="arrowUp.mouseover" end="arrowUp.mouseout"/>
                  </use>
                  <path fill="none" stroke="white" stroke-width="1.5" d="M0,-3.0v7 M-2.5,-0.5L0,-3.0L2.5,-0.5"/>
                </g>
                <g id="arrowRight" xlink:href="#dirArrow" transform="rotate(90) translate(36 -43)" onmousedown="handlePan(1,0)">
                  <use xlink:href="#rim" fill="#404040">
                        <set attributeName="fill" to="#808080" begin="arrowRight.mouseover" end="arrowRight.mouseout"/>
                  </use>
                  <path fill="none" stroke="white" stroke-width="1.5" d="M0,-3.0v7 M-2.5,-0.5L0,-3.0L2.5,-0.5"/>
                </g>
                <g id="arrowDown" xlink:href="#dirArrow" transform="rotate(180) translate(-30 -48)" onmousedown="handlePan(0,1)">
                  <use xlink:href="#rim" fill="#404040">
                        <set attributeName="fill" to="#808080" begin="arrowDown.mouseover" end="arrowDown.mouseout"/>
                  </use>
                  <path fill="none" stroke="white" stroke-width="1.5" d="M0,-3.0v7 M-2.5,-0.5L0,-3.0L2.5,-0.5"/>
                </g>
                <g id="arrowLeft" xlink:href="#dirArrow" transform="rotate(270) translate(-36 17)" onmousedown="handlePan(-1,0)">
                  <use xlink:href="#rim" fill="#404040">
                        <set attributeName="fill" to="#808080" begin="arrowLeft.mouseover" end="arrowLeft.mouseout"/>
                  </use>
                  <path fill="none" stroke="white" stroke-width="1.5" d="M0,-3.0v7 M-2.5,-0.5L0,-3.0L2.5,-0.5"/>
                </g>
        </g>
        <svg viewBox="0 0 15 15" width="100%" height="30px" preserveAspectRatio="xMaxYMin meet">
         <g id="arrow_out" transform="scale(0.3 0.3)">
          <a xlink:href="trackers_2utilities_8h__incl_org.svg" target="_base">
           <rect id="button" ry="5" rx="5" y="6" x="6" height="38" width="38"
                fill="#f2f5e9" fill-opacity="0.5" stroke="#606060" stroke-width="1.0"/>
           <path id="arrow"
             d="M 11.500037,31.436501 C 11.940474,20.09759 22.043105,11.32322 32.158766,21.979434 L 37.068811,17.246167 C 37.068811,17.246167 37.088388,32 37.088388,32 L 22.160133,31.978069 C 22.160133,31.978069 26.997745,27.140456 26.997745,27.140456 C 18.528582,18.264221 13.291696,25.230495 11.500037,31.436501 z"
             style="fill:#404040;"/>
          </a>
         </g>
        </svg>
</svg>
