<?xml version="1.0" encoding="UTF-8" standalone="no"?>
<!DOCTYPE svg PUBLIC "-//W3C//DTD SVG 1.1//EN"
 "http://www.w3.org/Graphics/SVG/1.1/DTD/svg11.dtd">
<!-- Generated by graphviz version 2.26.3 (20100126.1600)
 -->
<!-- Title: option::PrintUsageImplementation::OStreamWriter&lt; OStream &gt; Pages: 1 -->
<svg width="254pt" height="226pt"
 viewBox="0.00 0.00 254.00 226.00" xmlns="http://www.w3.org/2000/svg" xmlns:xlink="http://www.w3.org/1999/xlink">
<g id="graph1" class="graph" transform="scale(1 1) rotate(0) translate(4 222)">
<title>option::PrintUsageImplementation::OStreamWriter&lt; OStream &gt;</title>
<polygon fill="white" stroke="white" points="-4,5 -4,-222 251,-222 251,5 -4,5"/>
<!-- Node1 -->
<g id="node1" class="node"><title>Node1</title>
<polygon fill="#bfbfbf" stroke="black" points="66,-0.5 66,-89.5 230,-89.5 230,-0.5 66,-0.5"/>
<text text-anchor="start" x="74" y="-76.5" font-family="Helvetica,sans-Serif" font-size="10.00">option::PrintUsageImplementation</text>
<text text-anchor="middle" x="148" y="-63.5" font-family="Helvetica,sans-Serif" font-size="10.00">::OStreamWriter&lt; OStream &gt;</text>
<polyline fill="none" stroke="black" points="66,-55.5 230,-55.5 "/>
<text text-anchor="middle" x="148" y="-42.5" font-family="Helvetica,sans-Serif" font-size="10.00"> </text>
<polyline fill="none" stroke="black" points="66,-34.5 230,-34.5 "/>
<text text-anchor="start" x="74" y="-21.5" font-family="Helvetica,sans-Serif" font-size="10.00">+ OStreamWriter()</text>
<text text-anchor="start" x="74" y="-8.5" font-family="Helvetica,sans-Serif" font-size="10.00">+ operator()()</text>
</g>
<!-- Node2 -->
<g id="node2" class="node"><title>Node2</title>
<a xlink:href="../../dd/d0b/structoption_1_1PrintUsageImplementation_1_1IStringWriter.html" target="_top" xlink:title="{option::PrintUsageImplementation\l::IStringWriter\n||+ operator()()\l}">
<polygon fill="white" stroke="black" points="0,-141 0,-217 164,-217 164,-141 0,-141"/>
<text text-anchor="start" x="8" y="-204" font-family="Helvetica,sans-Serif" font-size="10.00">option::PrintUsageImplementation</text>
<text text-anchor="middle" x="82" y="-191" font-family="Helvetica,sans-Serif" font-size="10.00">::IStringWriter</text>
<polyline fill="none" stroke="black" points="0,-183 164,-183 "/>
<text text-anchor="middle" x="82" y="-170" font-family="Helvetica,sans-Serif" font-size="10.00"> </text>
<polyline fill="none" stroke="black" points="0,-162 164,-162 "/>
<text text-anchor="start" x="8" y="-149" font-family="Helvetica,sans-Serif" font-size="10.00">+ operator()()</text>
</a>
</g>
<!-- Node2&#45;&gt;Node1 -->
<g id="edge2" class="edge"><title>Node2&#45;&gt;Node1</title>
<path fill="none" stroke="midnightblue" d="M105.278,-131.739C111.996,-118.1 119.304,-103.261 125.946,-89.7772"/>
<polygon fill="none" stroke="midnightblue" points="102.015,-130.442 100.736,-140.959 108.295,-133.535 102.015,-130.442"/>
</g>
<!-- Node3 -->
<g id="node4" class="node"><title>Node3</title>
<polygon fill="white" stroke="#bfbfbf" points="181.5,-147.5 181.5,-210.5 246.5,-210.5 246.5,-147.5 181.5,-147.5"/>
<text text-anchor="middle" x="214" y="-197.5" font-family="Helvetica,sans-Serif" font-size="10.00">OStream &amp;</text>
<polyline fill="none" stroke="#bfbfbf" points="181.5,-189.5 246.5,-189.5 "/>
<text text-anchor="middle" x="214" y="-176.5" font-family="Helvetica,sans-Serif" font-size="10.00"> </text>
<polyline fill="none" stroke="#bfbfbf" points="181.5,-168.5 246.5,-168.5 "/>
<text text-anchor="middle" x="214" y="-155.5" font-family="Helvetica,sans-Serif" font-size="10.00"> </text>
</g>
<!-- Node3&#45;&gt;Node1 -->
<g id="edge4" class="edge"><title>Node3&#45;&gt;Node1</title>
<path fill="none" stroke="#404040" d="M198.359,-147.244C191.483,-133.284 183.202,-116.47 175.359,-100.546"/>
<polygon fill="none" stroke="#404040" points="175.324,-100.475 169.084,-96.8602 170.021,-89.7103 176.261,-93.3254 175.324,-100.475"/>
<text text-anchor="middle" x="206.5" y="-112.5" font-family="Helvetica,sans-Serif" font-size="10.00"> +ostream</text>
</g>
</g>
</svg>
