<?xml version="1.0" encoding="UTF-8" standalone="no"?>
<!DOCTYPE svg PUBLIC "-//W3C//DTD SVG 1.1//EN"
 "http://www.w3.org/Graphics/SVG/1.1/DTD/svg11.dtd">
<!-- Generated by graphviz version 2.26.3 (20100126.1600)
 -->
<!-- Title: blond::SPS_RL::track Pages: 1 -->
<svg width="450pt" height="250pt"
 viewBox="0.00 0.00 450.00 250.00" xmlns="http://www.w3.org/2000/svg" xmlns:xlink="http://www.w3.org/1999/xlink">
<g id="graph1" class="graph" transform="scale(1 1) rotate(0) translate(4 246)">
<title>blond::SPS_RL::track</title>
<polygon fill="white" stroke="white" points="-4,5 -4,-246 447,-246 447,5 -4,5"/>
<!-- Node1 -->
<g id="node1" class="node"><title>Node1</title>
<polygon fill="#bfbfbf" stroke="black" points="0,-110.5 0,-131.5 112,-131.5 112,-110.5 0,-110.5"/>
<text text-anchor="middle" x="56" y="-118.5" font-family="Helvetica,sans-Serif" font-size="10.00">blond::SPS_RL::track</text>
</g>
<!-- Node2 -->
<g id="node3" class="node"><title>Node2</title>
<a xlink:href="../../db/d01/classblond_1_1PhaseLoop.html#aa62e59a49e478864890f339e62b3b428" target="_top" xlink:title="blond::PhaseLoop::beam\l_phase">
<polygon fill="white" stroke="black" points="150.5,-208 150.5,-242 275.5,-242 275.5,-208 150.5,-208"/>
<text text-anchor="start" x="158.5" y="-229" font-family="Helvetica,sans-Serif" font-size="10.00">blond::PhaseLoop::beam</text>
<text text-anchor="middle" x="213" y="-216" font-family="Helvetica,sans-Serif" font-size="10.00">_phase</text>
</a>
</g>
<!-- Node1&#45;&gt;Node2 -->
<g id="edge2" class="edge"><title>Node1&#45;&gt;Node2</title>
<path fill="none" stroke="midnightblue" d="M66.1674,-131.589C82.264,-147.871 115.169,-179.237 148,-199 150.623,-200.579 153.359,-202.099 156.16,-203.556"/>
<polygon fill="midnightblue" stroke="midnightblue" points="154.748,-206.761 165.271,-207.992 157.812,-200.468 154.748,-206.761"/>
</g>
<!-- Node4 -->
<g id="node7" class="node"><title>Node4</title>
<a xlink:href="../../db/d01/classblond_1_1PhaseLoop.html#aa9249dc8c9d21f044065cd903929172f" target="_top" xlink:title="blond::PhaseLoop::default\l_track">
<polygon fill="white" stroke="black" points="148,-156 148,-190 278,-190 278,-156 148,-156"/>
<text text-anchor="start" x="156" y="-177" font-family="Helvetica,sans-Serif" font-size="10.00">blond::PhaseLoop::default</text>
<text text-anchor="middle" x="213" y="-164" font-family="Helvetica,sans-Serif" font-size="10.00">_track</text>
</a>
</g>
<!-- Node1&#45;&gt;Node4 -->
<g id="edge6" class="edge"><title>Node1&#45;&gt;Node4</title>
<path fill="none" stroke="midnightblue" d="M87.7713,-131.523C106.191,-137.624 130.009,-145.512 151.919,-152.769"/>
<polygon fill="midnightblue" stroke="midnightblue" points="150.904,-156.12 161.497,-155.942 153.105,-149.475 150.904,-156.12"/>
</g>
<!-- Node5 -->
<g id="node9" class="node"><title>Node5</title>
<a xlink:href="../../db/d01/classblond_1_1PhaseLoop.html#a5c272e2d61820256ab38d422b4b59df5" target="_top" xlink:title="blond::PhaseLoop::phase\l_difference">
<polygon fill="white" stroke="black" points="149.5,-104 149.5,-138 276.5,-138 276.5,-104 149.5,-104"/>
<text text-anchor="start" x="157.5" y="-125" font-family="Helvetica,sans-Serif" font-size="10.00">blond::PhaseLoop::phase</text>
<text text-anchor="middle" x="213" y="-112" font-family="Helvetica,sans-Serif" font-size="10.00">_difference</text>
</a>
</g>
<!-- Node1&#45;&gt;Node5 -->
<g id="edge8" class="edge"><title>Node1&#45;&gt;Node5</title>
<path fill="none" stroke="midnightblue" d="M112.237,-121C120.995,-121 130.157,-121 139.233,-121"/>
<polygon fill="midnightblue" stroke="midnightblue" points="139.419,-124.5 149.419,-121 139.419,-117.5 139.419,-124.5"/>
</g>
<!-- Node6 -->
<g id="node11" class="node"><title>Node6</title>
<a xlink:href="../../db/d01/classblond_1_1PhaseLoop.html#a533be96ab317002d494f831e746c465a" target="_top" xlink:title="blond::PhaseLoop::radial\l_difference">
<polygon fill="white" stroke="black" points="151,-52 151,-86 275,-86 275,-52 151,-52"/>
<text text-anchor="start" x="159" y="-73" font-family="Helvetica,sans-Serif" font-size="10.00">blond::PhaseLoop::radial</text>
<text text-anchor="middle" x="213" y="-60" font-family="Helvetica,sans-Serif" font-size="10.00">_difference</text>
</a>
</g>
<!-- Node1&#45;&gt;Node6 -->
<g id="edge10" class="edge"><title>Node1&#45;&gt;Node6</title>
<path fill="none" stroke="midnightblue" d="M87.7713,-110.477C106.191,-104.376 130.009,-96.4876 151.919,-89.2306"/>
<polygon fill="midnightblue" stroke="midnightblue" points="153.105,-92.525 161.497,-86.0582 150.904,-85.8799 153.105,-92.525"/>
</g>
<!-- Node8 -->
<g id="node15" class="node"><title>Node8</title>
<a xlink:href="../../db/d01/classblond_1_1PhaseLoop.html#a8b9be8d7df4932c531d6b4a4e8438173" target="_top" xlink:title="blond::PhaseLoop::radial\l_steering_from_freq">
<polygon fill="white" stroke="black" points="151,-0 151,-34 275,-34 275,-0 151,-0"/>
<text text-anchor="start" x="159" y="-21" font-family="Helvetica,sans-Serif" font-size="10.00">blond::PhaseLoop::radial</text>
<text text-anchor="middle" x="213" y="-8" font-family="Helvetica,sans-Serif" font-size="10.00">_steering_from_freq</text>
</a>
</g>
<!-- Node1&#45;&gt;Node8 -->
<g id="edge14" class="edge"><title>Node1&#45;&gt;Node8</title>
<path fill="none" stroke="midnightblue" d="M66.1674,-110.411C82.264,-94.1294 115.169,-62.7633 148,-43 150.623,-41.4212 153.359,-39.9013 156.16,-38.4442"/>
<polygon fill="midnightblue" stroke="midnightblue" points="157.812,-41.5325 165.271,-34.0081 154.748,-35.2388 157.812,-41.5325"/>
</g>
<!-- Node3 -->
<g id="node5" class="node"><title>Node3</title>
<a xlink:href="../../dc/d3e/namespaceblond_1_1mymath.html#aed09bae4588ac02eda04e9b8afb694cd" target="_top" xlink:title="blond::mymath::trapezoid">
<polygon fill="white" stroke="black" points="314.5,-214.5 314.5,-235.5 441.5,-235.5 441.5,-214.5 314.5,-214.5"/>
<text text-anchor="middle" x="378" y="-222.5" font-family="Helvetica,sans-Serif" font-size="10.00">blond::mymath::trapezoid</text>
</a>
</g>
<!-- Node2&#45;&gt;Node3 -->
<g id="edge4" class="edge"><title>Node2&#45;&gt;Node3</title>
<path fill="none" stroke="midnightblue" d="M275.85,-225C285.08,-225 294.658,-225 304.085,-225"/>
<polygon fill="midnightblue" stroke="midnightblue" points="304.231,-228.5 314.231,-225 304.231,-221.5 304.231,-228.5"/>
</g>
<!-- Node7 -->
<g id="node13" class="node"><title>Node7</title>
<a xlink:href="../../dc/d3e/namespaceblond_1_1mymath.html#ae5e33c74478fa3d59ff0513645639781" target="_top" xlink:title="blond::mymath::sum">
<polygon fill="white" stroke="black" points="325,-58.5 325,-79.5 431,-79.5 431,-58.5 325,-58.5"/>
<text text-anchor="middle" x="378" y="-66.5" font-family="Helvetica,sans-Serif" font-size="10.00">blond::mymath::sum</text>
</a>
</g>
<!-- Node6&#45;&gt;Node7 -->
<g id="edge12" class="edge"><title>Node6&#45;&gt;Node7</title>
<path fill="none" stroke="midnightblue" d="M275.379,-69C288.269,-69 301.857,-69 314.776,-69"/>
<polygon fill="midnightblue" stroke="midnightblue" points="314.968,-72.5001 324.968,-69 314.968,-65.5001 314.968,-72.5001"/>
</g>
</g>
</svg>
