<?xml version="1.0" encoding="UTF-8" standalone="no"?>
<!DOCTYPE svg PUBLIC "-//W3C//DTD SVG 1.1//EN"
 "http://www.w3.org/Graphics/SVG/1.1/DTD/svg11.dtd">
<!-- Generated by graphviz version 2.26.3 (20100126.1600)
 -->
<!-- Title: blond::omp_get_max_threads Pages: 1 -->
<svg width="614pt" height="82pt"
 viewBox="0.00 0.00 614.00 82.00" xmlns="http://www.w3.org/2000/svg" xmlns:xlink="http://www.w3.org/1999/xlink">
<g id="graph1" class="graph" transform="scale(1 1) rotate(0) translate(4 78)">
<title>blond::omp_get_max_threads</title>
<polygon fill="white" stroke="white" points="-4,5 -4,-78 611,-78 611,5 -4,5"/>
<!-- Node1 -->
<g id="node1" class="node"><title>Node1</title>
<polygon fill="#bfbfbf" stroke="black" points="0.5,-17 0.5,-51 107.5,-51 107.5,-17 0.5,-17"/>
<text text-anchor="start" x="8.5" y="-38" font-family="Helvetica,sans-Serif" font-size="10.00">blond::omp_get_max</text>
<text text-anchor="middle" x="54" y="-25" font-family="Helvetica,sans-Serif" font-size="10.00">_threads</text>
</g>
<!-- Node2 -->
<g id="node3" class="node"><title>Node2</title>
<a xlink:href="../../d3/d4e/namespaceblond_1_1fft.html#a6e134220d8959b84a08cbe724ce65f2c" target="_top" xlink:title="blond::fft::convolution\l_with_ffts">
<polygon fill="white" stroke="black" points="144,-40 144,-74 254,-74 254,-40 144,-40"/>
<text text-anchor="start" x="152" y="-61" font-family="Helvetica,sans-Serif" font-size="10.00">blond::fft::convolution</text>
<text text-anchor="middle" x="199" y="-48" font-family="Helvetica,sans-Serif" font-size="10.00">_with_ffts</text>
</a>
</g>
<!-- Node1&#45;&gt;Node2 -->
<g id="edge2" class="edge"><title>Node1&#45;&gt;Node2</title>
<path fill="none" stroke="midnightblue" d="M117.658,-44.0975C126.336,-45.474 135.185,-46.8776 143.699,-48.228"/>
<polygon fill="midnightblue" stroke="midnightblue" points="118.006,-40.6089 107.581,-42.499 116.909,-47.5225 118.006,-40.6089"/>
</g>
<!-- Node5 -->
<g id="node9" class="node"><title>Node5</title>
<a xlink:href="../../d4/d46/classblond_1_1Slices.html#aa6f4a80f2e363315eb7c3a325b0b50c3" target="_top" xlink:title="blond::Slices::Slices">
<polygon fill="white" stroke="black" points="146,-0.5 146,-21.5 252,-21.5 252,-0.5 146,-0.5"/>
<text text-anchor="middle" x="199" y="-8.5" font-family="Helvetica,sans-Serif" font-size="10.00">blond::Slices::Slices</text>
</a>
</g>
<!-- Node1&#45;&gt;Node5 -->
<g id="edge8" class="edge"><title>Node1&#45;&gt;Node5</title>
<path fill="none" stroke="midnightblue" d="M117.62,-23.9086C126.971,-22.4253 136.523,-20.9102 145.64,-19.4641"/>
<polygon fill="midnightblue" stroke="midnightblue" points="116.909,-20.4775 107.581,-25.501 118.006,-27.3911 116.909,-20.4775"/>
</g>
<!-- Node3 -->
<g id="node5" class="node"><title>Node3</title>
<a xlink:href="../../db/de7/classblond_1_1InducedVoltageTime.html#a40304e836dcf242c889cd46751e25c88" target="_top" xlink:title="blond::InducedVoltageTime\l::induced_voltage_generation">
<polygon fill="white" stroke="black" points="290.5,-40 290.5,-74 433.5,-74 433.5,-40 290.5,-40"/>
<text text-anchor="start" x="298.5" y="-61" font-family="Helvetica,sans-Serif" font-size="10.00">blond::InducedVoltageTime</text>
<text text-anchor="middle" x="362" y="-48" font-family="Helvetica,sans-Serif" font-size="10.00">::induced_voltage_generation</text>
</a>
</g>
<!-- Node2&#45;&gt;Node3 -->
<g id="edge4" class="edge"><title>Node2&#45;&gt;Node3</title>
<path fill="none" stroke="midnightblue" d="M264.45,-57C272.988,-57 281.77,-57 290.402,-57"/>
<polygon fill="midnightblue" stroke="midnightblue" points="264.184,-53.5001 254.184,-57 264.184,-60.5001 264.184,-53.5001"/>
</g>
<!-- Node4 -->
<g id="node7" class="node"><title>Node4</title>
<a xlink:href="../../db/de7/classblond_1_1InducedVoltageTime.html#af93ca939b9d7e240a346c89d791c30c8" target="_top" xlink:title="blond::InducedVoltageTime\l::track">
<polygon fill="white" stroke="black" points="470.5,-40 470.5,-74 605.5,-74 605.5,-40 470.5,-40"/>
<text text-anchor="start" x="478.5" y="-61" font-family="Helvetica,sans-Serif" font-size="10.00">blond::InducedVoltageTime</text>
<text text-anchor="middle" x="538" y="-48" font-family="Helvetica,sans-Serif" font-size="10.00">::track</text>
</a>
</g>
<!-- Node3&#45;&gt;Node4 -->
<g id="edge6" class="edge"><title>Node3&#45;&gt;Node4</title>
<path fill="none" stroke="midnightblue" d="M443.656,-57C452.627,-57 461.685,-57 470.457,-57"/>
<polygon fill="midnightblue" stroke="midnightblue" points="443.586,-53.5001 433.586,-57 443.586,-60.5001 443.586,-53.5001"/>
</g>
</g>
</svg>
