<?xml version="1.0" encoding="UTF-8" standalone="no"?>
<!DOCTYPE svg PUBLIC "-//W3C//DTD SVG 1.1//EN"
 "http://www.w3.org/Graphics/SVG/1.1/DTD/svg11.dtd">
<!-- Generated by graphviz version 2.26.3 (20100126.1600)
 -->
<!-- Title: blond::plot_beam_profile Pages: 1 -->
<svg width="296pt" height="174pt"
 viewBox="0.00 0.00 296.00 174.00" xmlns="http://www.w3.org/2000/svg" xmlns:xlink="http://www.w3.org/1999/xlink">
<g id="graph1" class="graph" transform="scale(1 1) rotate(0) translate(4 170)">
<title>blond::plot_beam_profile</title>
<polygon fill="white" stroke="white" points="-4,5 -4,-170 293,-170 293,5 -4,5"/>
<!-- Node1 -->
<g id="node1" class="node"><title>Node1</title>
<polygon fill="#bfbfbf" stroke="black" points="0,-69.5 0,-90.5 122,-90.5 122,-69.5 0,-69.5"/>
<text text-anchor="middle" x="61" y="-77.5" font-family="Helvetica,sans-Serif" font-size="10.00">blond::plot_beam_profile</text>
</g>
<!-- Node2 -->
<g id="node3" class="node"><title>Node2</title>
<a xlink:href="../../d4/d48/namespaceblond_1_1python.html#a358bb67c6e13aba766d6c4e09ec3e5d3" target="_top" xlink:title="blond::python::convert\l_double_array">
<polygon fill="white" stroke="black" points="166.5,-132 166.5,-166 279.5,-166 279.5,-132 166.5,-132"/>
<text text-anchor="start" x="174.5" y="-153" font-family="Helvetica,sans-Serif" font-size="10.00">blond::python::convert</text>
<text text-anchor="middle" x="223" y="-140" font-family="Helvetica,sans-Serif" font-size="10.00">_double_array</text>
</a>
</g>
<!-- Node1&#45;&gt;Node2 -->
<g id="edge2" class="edge"><title>Node1&#45;&gt;Node2</title>
<path fill="none" stroke="midnightblue" d="M84.4161,-90.6695C103.998,-99.522 132.708,-112.34 158,-123 161.906,-124.646 165.954,-126.327 170.033,-128.001"/>
<polygon fill="midnightblue" stroke="midnightblue" points="168.973,-131.348 179.554,-131.879 171.613,-124.865 168.973,-131.348"/>
</g>
<!-- Node3 -->
<g id="node5" class="node"><title>Node3</title>
<a xlink:href="../../d4/d48/namespaceblond_1_1python.html#aa8b3e76a211499c930e4ace15b4b6db0" target="_top" xlink:title="blond::python::convert_int">
<polygon fill="white" stroke="black" points="158.5,-92.5 158.5,-113.5 287.5,-113.5 287.5,-92.5 158.5,-92.5"/>
<text text-anchor="middle" x="223" y="-100.5" font-family="Helvetica,sans-Serif" font-size="10.00">blond::python::convert_int</text>
</a>
</g>
<!-- Node1&#45;&gt;Node3 -->
<g id="edge4" class="edge"><title>Node1&#45;&gt;Node3</title>
<path fill="none" stroke="midnightblue" d="M122.245,-88.6953C130.746,-89.9022 139.556,-91.153 148.269,-92.39"/>
<polygon fill="midnightblue" stroke="midnightblue" points="148.035,-95.8918 158.428,-93.8323 149.019,-88.9613 148.035,-95.8918"/>
</g>
<!-- Node4 -->
<g id="node7" class="node"><title>Node4</title>
<a xlink:href="../../d4/d48/namespaceblond_1_1python.html#a960d71f6af5aa04d4dfd470986d0faea" target="_top" xlink:title="blond::python::convert\l_string">
<polygon fill="white" stroke="black" points="166.5,-40 166.5,-74 279.5,-74 279.5,-40 166.5,-40"/>
<text text-anchor="start" x="174.5" y="-61" font-family="Helvetica,sans-Serif" font-size="10.00">blond::python::convert</text>
<text text-anchor="middle" x="223" y="-48" font-family="Helvetica,sans-Serif" font-size="10.00">_string</text>
</a>
</g>
<!-- Node1&#45;&gt;Node4 -->
<g id="edge6" class="edge"><title>Node1&#45;&gt;Node4</title>
<path fill="none" stroke="midnightblue" d="M122.245,-71.3047C133.359,-69.7269 145,-68.074 156.262,-66.4751"/>
<polygon fill="midnightblue" stroke="midnightblue" points="157.063,-69.8966 166.472,-65.0256 156.079,-62.9661 157.063,-69.8966"/>
</g>
<!-- Node5 -->
<g id="node9" class="node"><title>Node5</title>
<a xlink:href="../../d4/d48/namespaceblond_1_1python.html#a83fe87000238e499d1a364facbbff28f" target="_top" xlink:title="blond::python::import">
<polygon fill="white" stroke="black" points="169,-0.5 169,-21.5 277,-21.5 277,-0.5 169,-0.5"/>
<text text-anchor="middle" x="223" y="-8.5" font-family="Helvetica,sans-Serif" font-size="10.00">blond::python::import</text>
</a>
</g>
<!-- Node1&#45;&gt;Node5 -->
<g id="edge8" class="edge"><title>Node1&#45;&gt;Node5</title>
<path fill="none" stroke="midnightblue" d="M79.5203,-69.4559C98.7242,-58.8084 129.826,-42.3553 158,-31 163.472,-28.7945 169.284,-26.688 175.096,-24.7259"/>
<polygon fill="midnightblue" stroke="midnightblue" points="176.385,-27.9871 184.814,-21.5682 174.222,-21.3297 176.385,-27.9871"/>
</g>
</g>
</svg>
