<?xml version="1.0" encoding="UTF-8" standalone="no"?>
<!DOCTYPE svg PUBLIC "-//W3C//DTD SVG 1.1//EN"
 "http://www.w3.org/Graphics/SVG/1.1/DTD/svg11.dtd">
<!-- Generated by graphviz version 2.26.3 (20100126.1600)
 -->
<!-- Title: blond::matched_from_distribution_density Pages: 1 -->
<!--zoomable 718 -->
<svg id="main" version="1.1" xmlns="http://www.w3.org/2000/svg" xmlns:xlink="http://www.w3.org/1999/xlink" xml:space="preserve" onload="init(evt)">
        <defs>
                <circle id="rim" cx="0" cy="0" r="7"/>
                <circle id="rim2" cx="0" cy="0" r="3.5"/>
                <g id="zoomPlus">
                        <use xlink:href="#rim" fill="#404040">
                                <set attributeName="fill" to="#808080" begin="zoomplus.mouseover" end="zoomplus.mouseout"/>
                        </use>
                        <path d="M-4,0h8M0,-4v8" fill="none" stroke="white" stroke-width="1.5" pointer-events="none"/>
                </g>
                <g id="zoomMin">
                        <use xlink:href="#rim" fill="#404040">
                                <set attributeName="fill" to="#808080" begin="zoomminus.mouseover" end="zoomminus.mouseout"/>
                        </use>
                        <path d="M-4,0h8" fill="none" stroke="white" stroke-width="1.5" pointer-events="none"/>
                </g>
                <g id="dirArrow">
                        <path fill="none" stroke="white" stroke-width="1.5" d="M0,-3.0v7 M-2.5,-0.5L0,-3.0L2.5,-0.5"/>
                </g>
               <g id="resetDef">
                       <use xlink:href="#rim2" fill="#404040">
                               <set attributeName="fill" to="#808080" begin="reset.mouseover" end="reset.mouseout"/>
                       </use>
               </g>
        </defs>

<script type="text/javascript">
var viewWidth = 1028;
var viewHeight = 718;
var sectionId = 'dynsection-13';
</script>
<script xlink:href="../../svgpan.js"/>
<svg id="graph" class="graph">
<g id="viewport">
<title>blond::matched_from_distribution_density</title>
<polygon fill="white" stroke="white" points="-4,5 -4,-714 1025,-714 1025,5 -4,5"/>
<!-- Node1 -->
<g id="node1" class="node"><title>Node1</title>
<polygon fill="#bfbfbf" stroke="black" points="0,-348 0,-382 108,-382 108,-348 0,-348"/>
<text text-anchor="start" x="8" y="-369" font-family="Helvetica,sans-Serif" font-size="10.00">blond::matched_from</text>
<text text-anchor="middle" x="54" y="-356" font-family="Helvetica,sans-Serif" font-size="10.00">_distribution_density</text>
</g>
<!-- Node2 -->
<g id="node3" class="node"><title>Node2</title>
<a xlink:href="../../d5/d60/namespaceblond.html#a2587498805f32833cf16fa645fcac22e" target="_top" xlink:title="blond::apply_f">
<polygon fill="white" stroke="black" points="339.5,-659.5 339.5,-680.5 416.5,-680.5 416.5,-659.5 339.5,-659.5"/>
<text text-anchor="middle" x="378" y="-667.5" font-family="Helvetica,sans-Serif" font-size="10.00">blond::apply_f</text>
</a>
</g>
<!-- Node1&#45;&gt;Node2 -->
<g id="edge2" class="edge"><title>Node1&#45;&gt;Node2</title>
<path fill="none" stroke="midnightblue" d="M57.4483,-382.005C68.5325,-434.975 104.818,-595.469 144,-629 171.178,-652.259 268.963,-662.822 329.19,-667.216"/>
<polygon fill="midnightblue" stroke="midnightblue" points="329.025,-670.713 339.245,-667.918 329.513,-663.73 329.025,-670.713"/>
</g>
<!-- Node3 -->
<g id="node5" class="node"><title>Node3</title>
<a xlink:href="../../dc/d3e/namespaceblond_1_1mymath.html#a1c0a373aff7124446ad1aaeb86641744" target="_top" xlink:title="blond::mymath::arange">
<polygon fill="white" stroke="black" points="154,-598.5 154,-619.5 270,-619.5 270,-598.5 154,-598.5"/>
<text text-anchor="middle" x="212" y="-606.5" font-family="Helvetica,sans-Serif" font-size="10.00">blond::mymath::arange</text>
</a>
</g>
<!-- Node1&#45;&gt;Node3 -->
<g id="edge4" class="edge"><title>Node1&#45;&gt;Node3</title>
<path fill="none" stroke="midnightblue" d="M56.2936,-382.131C62.6267,-422.836 84.044,-526.257 144,-584 148.02,-587.872 152.69,-591.153 157.663,-593.931"/>
<polygon fill="midnightblue" stroke="midnightblue" points="156.344,-597.181 166.868,-598.408 159.406,-590.886 156.344,-597.181"/>
</g>
<!-- Node4 -->
<g id="node7" class="node"><title>Node4</title>
<a xlink:href="../../dc/d3e/namespaceblond_1_1mymath.html#a5bdd7d4109401bba88b972052a757f05" target="_top" xlink:title="blond::mymath::cum\l_trapezoid">
<polygon fill="white" stroke="black" points="325,-553 325,-587 431,-587 431,-553 325,-553"/>
<text text-anchor="start" x="333" y="-574" font-family="Helvetica,sans-Serif" font-size="10.00">blond::mymath::cum</text>
<text text-anchor="middle" x="378" y="-561" font-family="Helvetica,sans-Serif" font-size="10.00">_trapezoid</text>
</a>
</g>
<!-- Node1&#45;&gt;Node4 -->
<g id="edge6" class="edge"><title>Node1&#45;&gt;Node4</title>
<path fill="none" stroke="midnightblue" d="M57.2972,-382.169C65.1859,-418.134 88.7583,-501.255 144,-540 193.566,-574.764 263.908,-579.384 314.508,-577.081"/>
<polygon fill="midnightblue" stroke="midnightblue" points="314.882,-580.565 324.672,-576.513 314.492,-573.576 314.882,-580.565"/>
</g>
<!-- Node5 -->
<g id="node9" class="node"><title>Node5</title>
<a xlink:href="../../d5/d60/namespaceblond.html#a2780f38beb4b159a3cee088e84641609" target="_top" xlink:title="blond::distribution\l_density_function">
<polygon fill="white" stroke="black" points="165.5,-676 165.5,-710 258.5,-710 258.5,-676 165.5,-676"/>
<text text-anchor="start" x="173.5" y="-697" font-family="Helvetica,sans-Serif" font-size="10.00">blond::distribution</text>
<text text-anchor="middle" x="212" y="-684" font-family="Helvetica,sans-Serif" font-size="10.00">_density_function</text>
</a>
</g>
<!-- Node1&#45;&gt;Node5 -->
<g id="edge8" class="edge"><title>Node1&#45;&gt;Node5</title>
<path fill="none" stroke="midnightblue" d="M57.2518,-382.059C68.3055,-438.551 105.868,-618.405 144,-662 147.63,-666.15 151.929,-669.777 156.575,-672.94"/>
<polygon fill="midnightblue" stroke="midnightblue" points="154.867,-675.997 165.242,-678.144 158.471,-669.996 154.867,-675.997"/>
</g>
<!-- Node6 -->
<g id="node12" class="node"><title>Node6</title>
<a xlink:href="../../dc/d3e/namespaceblond_1_1mymath.html#a46e69f8689ae8648fa459b272b6b095d" target="_top" xlink:title="blond::mymath::flatten">
<polygon fill="white" stroke="black" points="155,-354.5 155,-375.5 269,-375.5 269,-354.5 155,-354.5"/>
<text text-anchor="middle" x="212" y="-362.5" font-family="Helvetica,sans-Serif" font-size="10.00">blond::mymath::flatten</text>
</a>
</g>
<!-- Node1&#45;&gt;Node6 -->
<g id="edge12" class="edge"><title>Node1&#45;&gt;Node6</title>
<path fill="none" stroke="midnightblue" d="M108.375,-365C120.091,-365 132.61,-365 144.75,-365"/>
<polygon fill="midnightblue" stroke="midnightblue" points="144.833,-368.5 154.833,-365 144.833,-361.5 144.833,-368.5"/>
</g>
<!-- Node7 -->
<g id="node14" class="node"><title>Node7</title>
<a xlink:href="../../d2/df1/classblond_1_1TotalInducedVoltage.html#aa0dbeae9aad573c4a1cfd886c06623ae" target="_top" xlink:title="blond::TotalInducedVoltage\l::induced_voltage_sum">
<polygon fill="white" stroke="black" points="144.5,-302 144.5,-336 279.5,-336 279.5,-302 144.5,-302"/>
<text text-anchor="start" x="152.5" y="-323" font-family="Helvetica,sans-Serif" font-size="10.00">blond::TotalInducedVoltage</text>
<text text-anchor="middle" x="212" y="-310" font-family="Helvetica,sans-Serif" font-size="10.00">::induced_voltage_sum</text>
</a>
</g>
<!-- Node1&#45;&gt;Node7 -->
<g id="edge14" class="edge"><title>Node1&#45;&gt;Node7</title>
<path fill="none" stroke="midnightblue" d="M108.375,-349.169C119.742,-345.86 131.865,-342.33 143.665,-338.895"/>
<polygon fill="midnightblue" stroke="midnightblue" points="144.854,-342.194 153.477,-336.038 142.897,-335.473 144.854,-342.194"/>
</g>
<!-- Node8 -->
<g id="node16" class="node"><title>Node8</title>
<a xlink:href="../../dc/d3e/namespaceblond_1_1mymath.html#a327b8a840092340348b9d229adf4b342" target="_top" xlink:title="blond::mymath::interp">
<polygon fill="white" stroke="black" points="476.5,-263.5 476.5,-284.5 587.5,-284.5 587.5,-263.5 476.5,-263.5"/>
<text text-anchor="middle" x="532" y="-271.5" font-family="Helvetica,sans-Serif" font-size="10.00">blond::mymath::interp</text>
</a>
</g>
<!-- Node1&#45;&gt;Node8 -->
<g id="edge16" class="edge"><title>Node1&#45;&gt;Node8</title>
<path fill="none" stroke="midnightblue" d="M61.7393,-347.685C74.5332,-321.484 102.835,-272.73 144,-253 260.782,-197.028 420.601,-236.81 493.242,-260.212"/>
<polygon fill="midnightblue" stroke="midnightblue" points="492.306,-263.588 502.9,-263.393 494.497,-256.94 492.306,-263.588"/>
</g>
<!-- Node9 -->
<g id="node18" class="node"><title>Node9</title>
<a xlink:href="../../dc/d3e/namespaceblond_1_1mymath.html#ae19d9e56b0b93999a2cddc979cbbc4c7" target="_top" xlink:title="blond::mymath::linspace">
<polygon fill="white" stroke="black" points="316.5,-513.5 316.5,-534.5 439.5,-534.5 439.5,-513.5 316.5,-513.5"/>
<text text-anchor="middle" x="378" y="-521.5" font-family="Helvetica,sans-Serif" font-size="10.00">blond::mymath::linspace</text>
</a>
</g>
<!-- Node1&#45;&gt;Node9 -->
<g id="edge18" class="edge"><title>Node1&#45;&gt;Node9</title>
<path fill="none" stroke="midnightblue" d="M58.6013,-382.095C68.2818,-414.299 94.0912,-483.374 144,-513 196.349,-544.075 267.483,-542.571 317.536,-535.962"/>
<polygon fill="midnightblue" stroke="midnightblue" points="318.161,-539.408 327.567,-534.532 317.174,-532.478 318.161,-539.408"/>
</g>
<!-- Node10 -->
<g id="node20" class="node"><title>Node10</title>
<a xlink:href="../../dc/d3e/namespaceblond_1_1mymath.html#a8fa9fc4458071d4d862c3b969341c314" target="_top" xlink:title="blond::mymath::meshgrid">
<polygon fill="white" stroke="black" points="148.5,-184.5 148.5,-205.5 275.5,-205.5 275.5,-184.5 148.5,-184.5"/>
<text text-anchor="middle" x="212" y="-192.5" font-family="Helvetica,sans-Serif" font-size="10.00">blond::mymath::meshgrid</text>
</a>
</g>
<!-- Node1&#45;&gt;Node10 -->
<g id="edge20" class="edge"><title>Node1&#45;&gt;Node10</title>
<path fill="none" stroke="midnightblue" d="M60.3473,-347.672C72.2232,-317.551 100.592,-255.377 144,-220 148.927,-215.985 154.558,-212.58 160.424,-209.703"/>
<polygon fill="midnightblue" stroke="midnightblue" points="162.017,-212.826 169.767,-205.601 159.203,-206.416 162.017,-212.826"/>
</g>
<!-- Node11 -->
<g id="node22" class="node"><title>Node11</title>
<a xlink:href="../../d5/d60/namespaceblond.html#a5e8b686f3dc6b50d3ab43c3547aa07b8" target="_top" xlink:title="blond::operator\&lt;">
<polygon fill="white" stroke="black" points="168.5,-144.5 168.5,-165.5 255.5,-165.5 255.5,-144.5 168.5,-144.5"/>
<text text-anchor="middle" x="212" y="-152.5" font-family="Helvetica,sans-Serif" font-size="10.00">blond::operator&lt;</text>
</a>
</g>
<!-- Node1&#45;&gt;Node11 -->
<g id="edge22" class="edge"><title>Node1&#45;&gt;Node11</title>
<path fill="none" stroke="midnightblue" d="M57.1868,-347.955C65.029,-310.826 88.7863,-222.193 144,-175 148.326,-171.302 153.309,-168.288 158.569,-165.83"/>
<polygon fill="midnightblue" stroke="midnightblue" points="160.256,-168.926 168.257,-161.981 157.671,-162.421 160.256,-168.926"/>
</g>
<!-- Node12 -->
<g id="node24" class="node"><title>Node12</title>
<a xlink:href="../../d5/d60/namespaceblond.html#a69b86d2cb27029772b69aeac947ef6af" target="_top" xlink:title="blond::potential_well_cut">
<polygon fill="white" stroke="black" points="150,-262.5 150,-283.5 274,-283.5 274,-262.5 150,-262.5"/>
<text text-anchor="middle" x="212" y="-270.5" font-family="Helvetica,sans-Serif" font-size="10.00">blond::potential_well_cut</text>
</a>
</g>
<!-- Node1&#45;&gt;Node12 -->
<g id="edge24" class="edge"><title>Node1&#45;&gt;Node12</title>
<path fill="none" stroke="midnightblue" d="M71.1433,-347.848C88.2514,-331.612 115.963,-307.61 144,-293 148.212,-290.805 152.699,-288.818 157.283,-287.025"/>
<polygon fill="midnightblue" stroke="midnightblue" points="158.545,-290.291 166.771,-283.614 156.176,-283.703 158.545,-290.291"/>
</g>
<!-- Node15 -->
<g id="node31" class="node"><title>Node15</title>
<a xlink:href="../../dc/d8c/classblond_1_1FullRingAndRf.html#a76ca8401684654596782338b81268ef2" target="_top" xlink:title="blond::FullRingAndRf\l::potential_well_generation">
<polygon fill="white" stroke="black" points="146,-470 146,-504 278,-504 278,-470 146,-470"/>
<text text-anchor="start" x="154" y="-491" font-family="Helvetica,sans-Serif" font-size="10.00">blond::FullRingAndRf</text>
<text text-anchor="middle" x="212" y="-478" font-family="Helvetica,sans-Serif" font-size="10.00">::potential_well_generation</text>
</a>
</g>
<!-- Node1&#45;&gt;Node15 -->
<g id="edge32" class="edge"><title>Node1&#45;&gt;Node15</title>
<path fill="none" stroke="midnightblue" d="M67.7413,-382.293C84.1947,-402.121 113.388,-434.635 144,-456 148.771,-459.33 153.957,-462.444 159.267,-465.317"/>
<polygon fill="midnightblue" stroke="midnightblue" points="157.77,-468.482 168.267,-469.918 160.956,-462.249 157.77,-468.482"/>
</g>
<!-- Node16 -->
<g id="node34" class="node"><title>Node16</title>
<a xlink:href="../../dc/d3e/namespaceblond_1_1mymath.html#ae5e33c74478fa3d59ff0513645639781" target="_top" xlink:title="blond::mymath::sum">
<polygon fill="white" stroke="black" points="325,-433.5 325,-454.5 431,-454.5 431,-433.5 325,-433.5"/>
<text text-anchor="middle" x="378" y="-441.5" font-family="Helvetica,sans-Serif" font-size="10.00">blond::mymath::sum</text>
</a>
</g>
<!-- Node1&#45;&gt;Node16 -->
<g id="edge62" class="edge"><title>Node1&#45;&gt;Node16</title>
<path fill="none" stroke="midnightblue" d="M86.9946,-382.079C103.695,-390.094 124.512,-399.149 144,-405 200.41,-421.937 266.818,-432.122 314.45,-437.812"/>
<polygon fill="midnightblue" stroke="midnightblue" points="314.284,-441.317 324.621,-438.993 315.091,-434.363 314.284,-441.317"/>
</g>
<!-- Node24 -->
<g id="node50" class="node"><title>Node24</title>
<a xlink:href="../../dc/d3e/namespaceblond_1_1mymath.html#a571019da04b332a0d4981d4357050fa1" target="_top" xlink:title="blond::mymath::sign">
<polygon fill="white" stroke="black" points="325.5,-393.5 325.5,-414.5 430.5,-414.5 430.5,-393.5 325.5,-393.5"/>
<text text-anchor="middle" x="378" y="-401.5" font-family="Helvetica,sans-Serif" font-size="10.00">blond::mymath::sign</text>
</a>
</g>
<!-- Node1&#45;&gt;Node24 -->
<g id="edge60" class="edge"><title>Node1&#45;&gt;Node24</title>
<path fill="none" stroke="midnightblue" d="M108.029,-378.272C119.827,-380.815 132.288,-383.232 144,-385 201.635,-393.701 267.899,-398.61 315.166,-401.249"/>
<polygon fill="midnightblue" stroke="midnightblue" points="315.079,-404.749 325.253,-401.793 315.456,-397.759 315.079,-404.749"/>
</g>
<!-- Node25 -->
<g id="node53" class="node"><title>Node25</title>
<a xlink:href="../../dc/d3e/namespaceblond_1_1mymath.html#a562a3820ec7143c0849a72ea8faa54f2" target="_top" xlink:title="blond::mymath::random\l_choice">
<polygon fill="white" stroke="black" points="152.5,-92 152.5,-126 271.5,-126 271.5,-92 152.5,-92"/>
<text text-anchor="start" x="160.5" y="-113" font-family="Helvetica,sans-Serif" font-size="10.00">blond::mymath::random</text>
<text text-anchor="middle" x="212" y="-100" font-family="Helvetica,sans-Serif" font-size="10.00">_choice</text>
</a>
</g>
<!-- Node1&#45;&gt;Node25 -->
<g id="edge56" class="edge"><title>Node1&#45;&gt;Node25</title>
<path fill="none" stroke="midnightblue" d="M55.9878,-347.703C61.7236,-305.545 82.0593,-196.46 144,-135 145.065,-133.943 146.178,-132.928 147.332,-131.953"/>
<polygon fill="midnightblue" stroke="midnightblue" points="149.4,-134.778 155.467,-126.092 145.308,-129.098 149.4,-134.778"/>
</g>
<!-- Node26 -->
<g id="node55" class="node"><title>Node26</title>
<a xlink:href="../../d2/df1/classblond_1_1TotalInducedVoltage.html#aa6a56e9472a574c98871114d05dfea3b" target="_top" xlink:title="blond::TotalInducedVoltage\l::reprocess">
<polygon fill="white" stroke="black" points="144.5,-40 144.5,-74 279.5,-74 279.5,-40 144.5,-40"/>
<text text-anchor="start" x="152.5" y="-61" font-family="Helvetica,sans-Serif" font-size="10.00">blond::TotalInducedVoltage</text>
<text text-anchor="middle" x="212" y="-48" font-family="Helvetica,sans-Serif" font-size="10.00">::reprocess</text>
</a>
</g>
<!-- Node1&#45;&gt;Node26 -->
<g id="edge58" class="edge"><title>Node1&#45;&gt;Node26</title>
<path fill="none" stroke="midnightblue" d="M57.4224,-347.946C68.7143,-293.171 106.226,-122.961 144,-83 144.903,-82.0442 145.846,-81.1231 146.823,-80.2355"/>
<polygon fill="midnightblue" stroke="midnightblue" points="149.079,-82.9164 154.904,-74.0664 144.831,-77.3524 149.079,-82.9164"/>
</g>
<!-- Node27 -->
<g id="node59" class="node"><title>Node27</title>
<a xlink:href="../../dc/d3e/namespaceblond_1_1mymath.html#aed09bae4588ac02eda04e9b8afb694cd" target="_top" xlink:title="blond::mymath::trapezoid">
<polygon fill="white" stroke="black" points="148.5,-0.5 148.5,-21.5 275.5,-21.5 275.5,-0.5 148.5,-0.5"/>
<text text-anchor="middle" x="212" y="-8.5" font-family="Helvetica,sans-Serif" font-size="10.00">blond::mymath::trapezoid</text>
</a>
</g>
<!-- Node1&#45;&gt;Node27 -->
<g id="edge64" class="edge"><title>Node1&#45;&gt;Node27</title>
<path fill="none" stroke="midnightblue" d="M56.397,-347.779C65.3041,-286.141 98.3499,-77.7049 144,-31 145.271,-29.6992 146.623,-28.482 148.04,-27.343"/>
<polygon fill="midnightblue" stroke="midnightblue" points="150.326,-30.0308 156.792,-21.6379 146.504,-24.1667 150.326,-30.0308"/>
</g>
<!-- Node5&#45;&gt;Node2 -->
<g id="edge10" class="edge"><title>Node5&#45;&gt;Node2</title>
<path fill="none" stroke="midnightblue" d="M258.682,-686.532C280.719,-683.479 307.011,-679.836 329.3,-676.748"/>
<polygon fill="midnightblue" stroke="midnightblue" points="329.804,-680.211 339.229,-675.372 328.843,-673.278 329.804,-680.211"/>
</g>
<!-- Node13 -->
<g id="node26" class="node"><title>Node13</title>
<a xlink:href="../../d5/d60/namespaceblond.html#a867e337c1f98d7cd9c4bce3a4e7221da" target="_top" xlink:title="blond::minmax_location">
<polygon fill="white" stroke="black" points="318.5,-302.5 318.5,-323.5 437.5,-323.5 437.5,-302.5 318.5,-302.5"/>
<text text-anchor="middle" x="378" y="-310.5" font-family="Helvetica,sans-Serif" font-size="10.00">blond::minmax_location</text>
</a>
</g>
<!-- Node12&#45;&gt;Node13 -->
<g id="edge26" class="edge"><title>Node12&#45;&gt;Node13</title>
<path fill="none" stroke="midnightblue" d="M255.615,-283.51C276.69,-288.588 302.176,-294.729 324.423,-300.09"/>
<polygon fill="midnightblue" stroke="midnightblue" points="323.847,-303.551 334.389,-302.491 325.487,-296.746 323.847,-303.551"/>
</g>
<!-- Node14 -->
<g id="node29" class="node"><title>Node14</title>
<a xlink:href="../../dc/d3e/namespaceblond_1_1mymath.html#a4a9d8b4eccf2cc72a6d02594d225c80f" target="_top" xlink:title="blond::mymath::min">
<polygon fill="white" stroke="black" points="326.5,-262.5 326.5,-283.5 429.5,-283.5 429.5,-262.5 326.5,-262.5"/>
<text text-anchor="middle" x="378" y="-270.5" font-family="Helvetica,sans-Serif" font-size="10.00">blond::mymath::min</text>
</a>
</g>
<!-- Node12&#45;&gt;Node14 -->
<g id="edge30" class="edge"><title>Node12&#45;&gt;Node14</title>
<path fill="none" stroke="midnightblue" d="M274.285,-273C287.994,-273 302.508,-273 316.198,-273"/>
<polygon fill="midnightblue" stroke="midnightblue" points="316.48,-276.5 326.48,-273 316.48,-269.5 316.48,-276.5"/>
</g>
<!-- Node13&#45;&gt;Node8 -->
<g id="edge28" class="edge"><title>Node13&#45;&gt;Node8</title>
<path fill="none" stroke="midnightblue" d="M419.675,-302.446C438.421,-297.699 460.733,-292.048 480.513,-287.039"/>
<polygon fill="midnightblue" stroke="midnightblue" points="481.457,-290.41 490.292,-284.562 479.739,-283.625 481.457,-290.41"/>
</g>
<!-- Node15&#45;&gt;Node4 -->
<g id="edge54" class="edge"><title>Node15&#45;&gt;Node4</title>
<path fill="none" stroke="midnightblue" d="M241.159,-504.047C261.775,-515.835 290.22,-531.572 316,-544 319.351,-545.616 322.829,-547.232 326.35,-548.824"/>
<polygon fill="midnightblue" stroke="midnightblue" points="325.153,-552.121 335.714,-552.963 327.983,-545.719 325.153,-552.121"/>
</g>
<!-- Node15&#45;&gt;Node9 -->
<g id="edge34" class="edge"><title>Node15&#45;&gt;Node9</title>
<path fill="none" stroke="midnightblue" d="M278.085,-501.73C292.272,-504.892 307.148,-508.208 320.958,-511.286"/>
<polygon fill="midnightblue" stroke="midnightblue" points="320.278,-514.72 330.8,-513.479 321.801,-507.888 320.278,-514.72"/>
</g>
<!-- Node15&#45;&gt;Node16 -->
<g id="edge36" class="edge"><title>Node15&#45;&gt;Node16</title>
<path fill="none" stroke="midnightblue" d="M278.085,-469.882C294.402,-465.655 311.629,-461.192 327.099,-457.185"/>
<polygon fill="midnightblue" stroke="midnightblue" points="328.18,-460.521 336.983,-454.625 326.425,-453.744 328.18,-460.521"/>
</g>
<!-- Node17 -->
<g id="node36" class="node"><title>Node17</title>
<a xlink:href="../../dc/d3e/namespaceblond_1_1mymath.html#ab346536245c573512b391c0a76c01551" target="_top" xlink:title="blond::mymath::fast_sin">
<polygon fill="white" stroke="black" points="317,-473.5 317,-494.5 439,-494.5 439,-473.5 317,-473.5"/>
<text text-anchor="middle" x="378" y="-481.5" font-family="Helvetica,sans-Serif" font-size="10.00">blond::mymath::fast_sin</text>
</a>
</g>
<!-- Node15&#45;&gt;Node17 -->
<g id="edge38" class="edge"><title>Node15&#45;&gt;Node17</title>
<path fill="none" stroke="midnightblue" d="M278.085,-485.806C287.513,-485.635 297.246,-485.459 306.767,-485.287"/>
<polygon fill="midnightblue" stroke="midnightblue" points="307.057,-488.783 316.992,-485.103 306.931,-481.784 307.057,-488.783"/>
</g>
<!-- Node15&#45;&gt;Node24 -->
<g id="edge52" class="edge"><title>Node15&#45;&gt;Node24</title>
<path fill="none" stroke="midnightblue" d="M236.737,-469.752C257.261,-456.006 287.58,-436.977 316,-424 320.702,-421.853 325.701,-419.835 330.742,-417.969"/>
<polygon fill="midnightblue" stroke="midnightblue" points="332.142,-421.187 340.418,-414.572 329.823,-414.582 332.142,-421.187"/>
</g>
<!-- Node18 -->
<g id="node38" class="node"><title>Node18</title>
<a xlink:href="../../df/d63/namespaceblond_1_1vdt.html#ae8ed88b8591aa51524029d3a7aceb2b7" target="_top" xlink:title="Double precision sine: just call sincos.">
<polygon fill="white" stroke="black" points="482,-473.5 482,-494.5 582,-494.5 582,-473.5 482,-473.5"/>
<text text-anchor="middle" x="532" y="-481.5" font-family="Helvetica,sans-Serif" font-size="10.00">blond::vdt::fast_sin</text>
</a>
</g>
<!-- Node17&#45;&gt;Node18 -->
<g id="edge40" class="edge"><title>Node17&#45;&gt;Node18</title>
<path fill="none" stroke="midnightblue" d="M439.307,-484C449.986,-484 461.085,-484 471.736,-484"/>
<polygon fill="midnightblue" stroke="midnightblue" points="471.781,-487.5 481.781,-484 471.781,-480.5 471.781,-487.5"/>
</g>
<!-- Node19 -->
<g id="node40" class="node"><title>Node19</title>
<a xlink:href="../../df/d63/namespaceblond_1_1vdt.html#a5f8658f62b3ef888d46522c0b4bcb785" target="_top" xlink:title="Double precision sincos.">
<polygon fill="white" stroke="black" points="624,-473.5 624,-494.5 740,-494.5 740,-473.5 624,-473.5"/>
<text text-anchor="middle" x="682" y="-481.5" font-family="Helvetica,sans-Serif" font-size="10.00">blond::vdt::fast_sincos</text>
</a>
</g>
<!-- Node18&#45;&gt;Node19 -->
<g id="edge42" class="edge"><title>Node18&#45;&gt;Node19</title>
<path fill="none" stroke="midnightblue" d="M582.365,-484C592.491,-484 603.291,-484 613.906,-484"/>
<polygon fill="midnightblue" stroke="midnightblue" points="613.997,-487.5 623.997,-484 613.997,-480.5 613.997,-487.5"/>
</g>
<!-- Node20 -->
<g id="node42" class="node"><title>Node20</title>
<a xlink:href="../../d0/dad/namespaceblond_1_1vdt_1_1details.html#a71961342755aa7fdf6302a229da05aa6" target="_top" xlink:title="Reduce to 0 to 45.">
<polygon fill="white" stroke="black" points="785.5,-493 785.5,-527 880.5,-527 880.5,-493 785.5,-493"/>
<text text-anchor="start" x="793.5" y="-514" font-family="Helvetica,sans-Serif" font-size="10.00">blond::vdt::details</text>
<text text-anchor="middle" x="833" y="-501" font-family="Helvetica,sans-Serif" font-size="10.00">::reduce2quadrant</text>
</a>
</g>
<!-- Node19&#45;&gt;Node20 -->
<g id="edge44" class="edge"><title>Node19&#45;&gt;Node20</title>
<path fill="none" stroke="midnightblue" d="M740.381,-494.052C751.691,-496 763.542,-498.04 774.845,-499.987"/>
<polygon fill="midnightblue" stroke="midnightblue" points="774.591,-503.494 785.04,-501.742 775.778,-496.596 774.591,-503.494"/>
</g>
<!-- Node21 -->
<g id="node44" class="node"><title>Node21</title>
<a xlink:href="../../d0/dad/namespaceblond_1_1vdt_1_1details.html#abc6ff14d4237c2a56fd976a2b34c4285" target="_top" xlink:title="Sincos only for &#45;45deg &lt; x &lt; 45deg.">
<polygon fill="white" stroke="black" points="776.5,-441 776.5,-475 889.5,-475 889.5,-441 776.5,-441"/>
<text text-anchor="start" x="784.5" y="-462" font-family="Helvetica,sans-Serif" font-size="10.00">blond::vdt::details</text>
<text text-anchor="middle" x="833" y="-449" font-family="Helvetica,sans-Serif" font-size="10.00">::fast_sincos_m45_45</text>
</a>
</g>
<!-- Node19&#45;&gt;Node21 -->
<g id="edge46" class="edge"><title>Node19&#45;&gt;Node21</title>
<path fill="none" stroke="midnightblue" d="M740.381,-473.948C748.851,-472.489 757.625,-470.979 766.244,-469.494"/>
<polygon fill="midnightblue" stroke="midnightblue" points="767.004,-472.915 776.265,-467.769 765.816,-466.017 767.004,-472.915"/>
</g>
<!-- Node22 -->
<g id="node46" class="node"><title>Node22</title>
<a xlink:href="../../d0/dad/namespaceblond_1_1vdt_1_1details.html#aeb1305422832914b75f04731bea5e04d" target="_top" xlink:title="blond::vdt::details\l::get_sin_px">
<polygon fill="white" stroke="black" points="926,-467 926,-501 1020,-501 1020,-467 926,-467"/>
<text text-anchor="start" x="934" y="-488" font-family="Helvetica,sans-Serif" font-size="10.00">blond::vdt::details</text>
<text text-anchor="middle" x="973" y="-475" font-family="Helvetica,sans-Serif" font-size="10.00">::get_sin_px</text>
</a>
</g>
<!-- Node21&#45;&gt;Node22 -->
<g id="edge48" class="edge"><title>Node21&#45;&gt;Node22</title>
<path fill="none" stroke="midnightblue" d="M889.54,-468.5C898.158,-470.101 907.059,-471.754 915.693,-473.357"/>
<polygon fill="midnightblue" stroke="midnightblue" points="915.203,-476.826 925.674,-475.211 916.481,-469.944 915.203,-476.826"/>
</g>
<!-- Node23 -->
<g id="node48" class="node"><title>Node23</title>
<a xlink:href="../../d0/dad/namespaceblond_1_1vdt_1_1details.html#acf4c8cd4999c31bee56232ac4edc2d73" target="_top" xlink:title="blond::vdt::details\l::get_cos_px">
<polygon fill="white" stroke="black" points="926,-415 926,-449 1020,-449 1020,-415 926,-415"/>
<text text-anchor="start" x="934" y="-436" font-family="Helvetica,sans-Serif" font-size="10.00">blond::vdt::details</text>
<text text-anchor="middle" x="973" y="-423" font-family="Helvetica,sans-Serif" font-size="10.00">::get_cos_px</text>
</a>
</g>
<!-- Node21&#45;&gt;Node23 -->
<g id="edge50" class="edge"><title>Node21&#45;&gt;Node23</title>
<path fill="none" stroke="midnightblue" d="M889.54,-447.5C898.158,-445.899 907.059,-444.246 915.693,-442.643"/>
<polygon fill="midnightblue" stroke="midnightblue" points="916.481,-446.056 925.674,-440.789 915.203,-439.174 916.481,-446.056"/>
</g>
</g>
</svg>
        <g id="navigator" transform="translate(0 0)" fill="#404254">
                <rect fill="#f2f5e9" fill-opacity="0.5" stroke="#606060" stroke-width=".5" x="0" y="0" width="60" height="60"/>
                <use id="zoomplus" xlink:href="#zoomPlus" x="17" y="9" onmousedown="handleZoom(evt,'in')"/>
                <use id="zoomminus" xlink:href="#zoomMin" x="42" y="9" onmousedown="handleZoom(evt,'out')"/>
                <use id="reset" xlink:href="#resetDef" x="30" y="36" onmousedown="handleReset()"/>
                <g id="arrowUp" xlink:href="#dirArrow" transform="translate(30 24)" onmousedown="handlePan(0,-1)">
                  <use xlink:href="#rim" fill="#404040">
                        <set attributeName="fill" to="#808080" begin="arrowUp.mouseover" end="arrowUp.mouseout"/>
                  </use>
                  <path fill="none" stroke="white" stroke-width="1.5" d="M0,-3.0v7 M-2.5,-0.5L0,-3.0L2.5,-0.5"/>
                </g>
                <g id="arrowRight" xlink:href="#dirArrow" transform="rotate(90) translate(36 -43)" onmousedown="handlePan(1,0)">
                  <use xlink:href="#rim" fill="#404040">
                        <set attributeName="fill" to="#808080" begin="arrowRight.mouseover" end="arrowRight.mouseout"/>
                  </use>
                  <path fill="none" stroke="white" stroke-width="1.5" d="M0,-3.0v7 M-2.5,-0.5L0,-3.0L2.5,-0.5"/>
                </g>
                <g id="arrowDown" xlink:href="#dirArrow" transform="rotate(180) translate(-30 -48)" onmousedown="handlePan(0,1)">
                  <use xlink:href="#rim" fill="#404040">
                        <set attributeName="fill" to="#808080" begin="arrowDown.mouseover" end="arrowDown.mouseout"/>
                  </use>
                  <path fill="none" stroke="white" stroke-width="1.5" d="M0,-3.0v7 M-2.5,-0.5L0,-3.0L2.5,-0.5"/>
                </g>
                <g id="arrowLeft" xlink:href="#dirArrow" transform="rotate(270) translate(-36 17)" onmousedown="handlePan(-1,0)">
                  <use xlink:href="#rim" fill="#404040">
                        <set attributeName="fill" to="#808080" begin="arrowLeft.mouseover" end="arrowLeft.mouseout"/>
                  </use>
                  <path fill="none" stroke="white" stroke-width="1.5" d="M0,-3.0v7 M-2.5,-0.5L0,-3.0L2.5,-0.5"/>
                </g>
        </g>
        <svg viewBox="0 0 15 15" width="100%" height="30px" preserveAspectRatio="xMaxYMin meet">
         <g id="arrow_out" transform="scale(0.3 0.3)">
          <a xlink:href="namespaceblond_aebe061e211acc5564fd70cc5db1d3c12_cgraph_org.svg" target="_base">
           <rect id="button" ry="5" rx="5" y="6" x="6" height="38" width="38"
                fill="#f2f5e9" fill-opacity="0.5" stroke="#606060" stroke-width="1.0"/>
           <path id="arrow"
             d="M 11.500037,31.436501 C 11.940474,20.09759 22.043105,11.32322 32.158766,21.979434 L 37.068811,17.246167 C 37.068811,17.246167 37.088388,32 37.088388,32 L 22.160133,31.978069 C 22.160133,31.978069 26.997745,27.140456 26.997745,27.140456 C 18.528582,18.264221 13.291696,25.230495 11.500037,31.436501 z"
             style="fill:#404040;"/>
          </a>
         </g>
        </svg>
</svg>
