<?xml version="1.0" encoding="UTF-8" standalone="no"?>
<!DOCTYPE svg PUBLIC "-//W3C//DTD SVG 1.1//EN"
 "http://www.w3.org/Graphics/SVG/1.1/DTD/svg11.dtd">
<!-- Generated by graphviz version 2.26.3 (20100126.1600)
 -->
<!-- Title: blond::potential_well_cut Pages: 1 -->
<svg width="436pt" height="70pt"
 viewBox="0.00 0.00 436.00 70.00" xmlns="http://www.w3.org/2000/svg" xmlns:xlink="http://www.w3.org/1999/xlink">
<g id="graph1" class="graph" transform="scale(1 1) rotate(0) translate(4 66)">
<title>blond::potential_well_cut</title>
<polygon fill="white" stroke="white" points="-4,5 -4,-66 433,-66 433,5 -4,5"/>
<!-- Node1 -->
<g id="node1" class="node"><title>Node1</title>
<polygon fill="#bfbfbf" stroke="black" points="0,-20.5 0,-41.5 124,-41.5 124,-20.5 0,-20.5"/>
<text text-anchor="middle" x="62" y="-28.5" font-family="Helvetica,sans-Serif" font-size="10.00">blond::potential_well_cut</text>
</g>
<!-- Node2 -->
<g id="node3" class="node"><title>Node2</title>
<a xlink:href="../../dc/d3e/namespaceblond_1_1mymath.html#a4a9d8b4eccf2cc72a6d02594d225c80f" target="_top" xlink:title="blond::mymath::min">
<polygon fill="white" stroke="black" points="168.5,-40.5 168.5,-61.5 271.5,-61.5 271.5,-40.5 168.5,-40.5"/>
<text text-anchor="middle" x="220" y="-48.5" font-family="Helvetica,sans-Serif" font-size="10.00">blond::mymath::min</text>
</a>
</g>
<!-- Node1&#45;&gt;Node2 -->
<g id="edge2" class="edge"><title>Node1&#45;&gt;Node2</title>
<path fill="none" stroke="midnightblue" d="M124.446,-38.9045C135.541,-40.3089 147.092,-41.7711 158.169,-43.1733"/>
<polygon fill="midnightblue" stroke="midnightblue" points="157.822,-46.6573 168.183,-44.4409 158.702,-39.7127 157.822,-46.6573"/>
</g>
<!-- Node3 -->
<g id="node5" class="node"><title>Node3</title>
<a xlink:href="../../d5/d60/namespaceblond.html#a867e337c1f98d7cd9c4bce3a4e7221da" target="_top" xlink:title="blond::minmax_location">
<polygon fill="white" stroke="black" points="160.5,-0.5 160.5,-21.5 279.5,-21.5 279.5,-0.5 160.5,-0.5"/>
<text text-anchor="middle" x="220" y="-8.5" font-family="Helvetica,sans-Serif" font-size="10.00">blond::minmax_location</text>
</a>
</g>
<!-- Node1&#45;&gt;Node3 -->
<g id="edge4" class="edge"><title>Node1&#45;&gt;Node3</title>
<path fill="none" stroke="midnightblue" d="M124.446,-23.0955C132.939,-22.0203 141.7,-20.9113 150.312,-19.8213"/>
<polygon fill="midnightblue" stroke="midnightblue" points="150.846,-23.2818 160.327,-18.5536 149.966,-16.3372 150.846,-23.2818"/>
</g>
<!-- Node4 -->
<g id="node7" class="node"><title>Node4</title>
<a xlink:href="../../dc/d3e/namespaceblond_1_1mymath.html#a327b8a840092340348b9d229adf4b342" target="_top" xlink:title="blond::mymath::interp">
<polygon fill="white" stroke="black" points="316.5,-0.5 316.5,-21.5 427.5,-21.5 427.5,-0.5 316.5,-0.5"/>
<text text-anchor="middle" x="372" y="-8.5" font-family="Helvetica,sans-Serif" font-size="10.00">blond::mymath::interp</text>
</a>
</g>
<!-- Node3&#45;&gt;Node4 -->
<g id="edge6" class="edge"><title>Node3&#45;&gt;Node4</title>
<path fill="none" stroke="midnightblue" d="M279.638,-11C288.246,-11 297.149,-11 305.874,-11"/>
<polygon fill="midnightblue" stroke="midnightblue" points="306.008,-14.5001 316.008,-11 306.008,-7.5001 306.008,-14.5001"/>
</g>
</g>
</svg>
