<?xml version="1.0" encoding="UTF-8" standalone="no"?>
<!DOCTYPE svg PUBLIC "-//W3C//DTD SVG 1.1//EN"
 "http://www.w3.org/Graphics/SVG/1.1/DTD/svg11.dtd">
<!-- Generated by graphviz version 2.26.3 (20100126.1600)
 -->
<!-- Title: blond::plot_PL_freq_corr Pages: 1 -->
<svg width="296pt" height="214pt"
 viewBox="0.00 0.00 296.00 214.00" xmlns="http://www.w3.org/2000/svg" xmlns:xlink="http://www.w3.org/1999/xlink">
<g id="graph1" class="graph" transform="scale(1 1) rotate(0) translate(4 210)">
<title>blond::plot_PL_freq_corr</title>
<polygon fill="white" stroke="white" points="-4,5 -4,-210 293,-210 293,5 -4,5"/>
<!-- Node1 -->
<g id="node1" class="node"><title>Node1</title>
<polygon fill="#bfbfbf" stroke="black" points="0,-86.5 0,-107.5 122,-107.5 122,-86.5 0,-86.5"/>
<text text-anchor="middle" x="61" y="-94.5" font-family="Helvetica,sans-Serif" font-size="10.00">blond::plot_PL_freq_corr</text>
</g>
<!-- Node2 -->
<g id="node3" class="node"><title>Node2</title>
<a xlink:href="../../d4/d48/namespaceblond_1_1python.html#a358bb67c6e13aba766d6c4e09ec3e5d3" target="_top" xlink:title="blond::python::convert\l_double_array">
<polygon fill="white" stroke="black" points="166.5,-172 166.5,-206 279.5,-206 279.5,-172 166.5,-172"/>
<text text-anchor="start" x="174.5" y="-193" font-family="Helvetica,sans-Serif" font-size="10.00">blond::python::convert</text>
<text text-anchor="middle" x="223" y="-180" font-family="Helvetica,sans-Serif" font-size="10.00">_double_array</text>
</a>
</g>
<!-- Node1&#45;&gt;Node2 -->
<g id="edge2" class="edge"><title>Node1&#45;&gt;Node2</title>
<path fill="none" stroke="midnightblue" d="M74.5365,-107.612C92.7584,-121.563 126.532,-146.256 158,-163 161.043,-164.619 164.209,-166.198 167.434,-167.727"/>
<polygon fill="midnightblue" stroke="midnightblue" points="166.072,-170.953 176.626,-171.892 168.962,-164.577 166.072,-170.953"/>
</g>
<!-- Node3 -->
<g id="node5" class="node"><title>Node3</title>
<a xlink:href="../../d4/d48/namespaceblond_1_1python.html#aa8b3e76a211499c930e4ace15b4b6db0" target="_top" xlink:title="blond::python::convert_int">
<polygon fill="white" stroke="black" points="158.5,-132.5 158.5,-153.5 287.5,-153.5 287.5,-132.5 158.5,-132.5"/>
<text text-anchor="middle" x="223" y="-140.5" font-family="Helvetica,sans-Serif" font-size="10.00">blond::python::convert_int</text>
</a>
</g>
<!-- Node1&#45;&gt;Node3 -->
<g id="edge4" class="edge"><title>Node1&#45;&gt;Node3</title>
<path fill="none" stroke="midnightblue" d="M98.1661,-107.553C121.319,-114.128 151.309,-122.643 176.092,-129.68"/>
<polygon fill="midnightblue" stroke="midnightblue" points="175.431,-133.131 186.007,-132.496 177.343,-126.397 175.431,-133.131"/>
</g>
<!-- Node4 -->
<g id="node7" class="node"><title>Node4</title>
<a xlink:href="../../d4/d48/namespaceblond_1_1python.html#a960d71f6af5aa04d4dfd470986d0faea" target="_top" xlink:title="blond::python::convert\l_string">
<polygon fill="white" stroke="black" points="166.5,-80 166.5,-114 279.5,-114 279.5,-80 166.5,-80"/>
<text text-anchor="start" x="174.5" y="-101" font-family="Helvetica,sans-Serif" font-size="10.00">blond::python::convert</text>
<text text-anchor="middle" x="223" y="-88" font-family="Helvetica,sans-Serif" font-size="10.00">_string</text>
</a>
</g>
<!-- Node1&#45;&gt;Node4 -->
<g id="edge6" class="edge"><title>Node1&#45;&gt;Node4</title>
<path fill="none" stroke="midnightblue" d="M122.245,-97C133.359,-97 145,-97 156.262,-97"/>
<polygon fill="midnightblue" stroke="midnightblue" points="156.472,-100.5 166.472,-97 156.472,-93.5001 156.472,-100.5"/>
</g>
<!-- Node5 -->
<g id="node9" class="node"><title>Node5</title>
<a xlink:href="../../d4/d48/namespaceblond_1_1python.html#a83fe87000238e499d1a364facbbff28f" target="_top" xlink:title="blond::python::import">
<polygon fill="white" stroke="black" points="169,-40.5 169,-61.5 277,-61.5 277,-40.5 169,-40.5"/>
<text text-anchor="middle" x="223" y="-48.5" font-family="Helvetica,sans-Serif" font-size="10.00">blond::python::import</text>
</a>
</g>
<!-- Node1&#45;&gt;Node5 -->
<g id="edge8" class="edge"><title>Node1&#45;&gt;Node5</title>
<path fill="none" stroke="midnightblue" d="M98.1661,-86.4467C121.319,-79.8724 151.309,-71.3566 176.092,-64.3197"/>
<polygon fill="midnightblue" stroke="midnightblue" points="177.343,-67.6027 186.007,-61.5042 175.431,-60.8689 177.343,-67.6027"/>
</g>
<!-- Node6 -->
<g id="node11" class="node"><title>Node6</title>
<a xlink:href="../../d5/d60/namespaceblond.html#afccd3b378d7b863a508dbe75b13752fc" target="_top" xlink:title="blond::read_1D">
<polygon fill="white" stroke="black" points="181.5,-0.5 181.5,-21.5 264.5,-21.5 264.5,-0.5 181.5,-0.5"/>
<text text-anchor="middle" x="223" y="-8.5" font-family="Helvetica,sans-Serif" font-size="10.00">blond::read_1D</text>
</a>
</g>
<!-- Node1&#45;&gt;Node6 -->
<g id="edge10" class="edge"><title>Node1&#45;&gt;Node6</title>
<path fill="none" stroke="midnightblue" d="M73.7272,-86.4849C91.5742,-72.1889 125.505,-46.6161 158,-31 162.604,-28.7874 167.509,-26.7514 172.481,-24.8955"/>
<polygon fill="midnightblue" stroke="midnightblue" points="173.776,-28.1504 182.063,-21.5495 171.469,-21.5417 173.776,-28.1504"/>
</g>
</g>
</svg>
