<?xml version="1.0" encoding="UTF-8" standalone="no"?>
<!DOCTYPE svg PUBLIC "-//W3C//DTD SVG 1.1//EN"
 "http://www.w3.org/Graphics/SVG/1.1/DTD/svg11.dtd">
<!-- Generated by graphviz version 2.26.3 (20100126.1600)
 -->
<!-- Title: blond::plot_xy Pages: 1 -->
<svg width="236pt" height="186pt"
 viewBox="0.00 0.00 236.00 186.00" xmlns="http://www.w3.org/2000/svg" xmlns:xlink="http://www.w3.org/1999/xlink">
<g id="graph1" class="graph" transform="scale(1 1) rotate(0) translate(4 182)">
<title>blond::plot_xy</title>
<polygon fill="white" stroke="white" points="-4,5 -4,-182 233,-182 233,5 -4,5"/>
<!-- Node1 -->
<g id="node1" class="node"><title>Node1</title>
<polygon fill="#bfbfbf" stroke="black" points="0.5,-72.5 0.5,-93.5 77.5,-93.5 77.5,-72.5 0.5,-72.5"/>
<text text-anchor="middle" x="39" y="-80.5" font-family="Helvetica,sans-Serif" font-size="10.00">blond::plot_xy</text>
</g>
<!-- Node2 -->
<g id="node3" class="node"><title>Node2</title>
<a xlink:href="../../d4/d48/namespaceblond_1_1python.html#a645f76c2bf5b759da8b0e76530fa9190" target="_top" xlink:title="blond::python::convert\l_double">
<polygon fill="white" stroke="black" points="114.5,-144 114.5,-178 227.5,-178 227.5,-144 114.5,-144"/>
<text text-anchor="start" x="122.5" y="-165" font-family="Helvetica,sans-Serif" font-size="10.00">blond::python::convert</text>
<text text-anchor="middle" x="171" y="-152" font-family="Helvetica,sans-Serif" font-size="10.00">_double</text>
</a>
</g>
<!-- Node1&#45;&gt;Node2 -->
<g id="edge2" class="edge"><title>Node1&#45;&gt;Node2</title>
<path fill="none" stroke="midnightblue" d="M52.6142,-93.5469C67.2831,-104.642 91.5503,-122.233 114,-135 116.656,-136.511 119.416,-138.003 122.224,-139.462"/>
<polygon fill="midnightblue" stroke="midnightblue" points="120.783,-142.655 131.293,-143.996 123.913,-136.394 120.783,-142.655"/>
</g>
<!-- Node3 -->
<g id="node5" class="node"><title>Node3</title>
<a xlink:href="../../d4/d48/namespaceblond_1_1python.html#a358bb67c6e13aba766d6c4e09ec3e5d3" target="_top" xlink:title="blond::python::convert\l_double_array">
<polygon fill="white" stroke="black" points="114.5,-92 114.5,-126 227.5,-126 227.5,-92 114.5,-92"/>
<text text-anchor="start" x="122.5" y="-113" font-family="Helvetica,sans-Serif" font-size="10.00">blond::python::convert</text>
<text text-anchor="middle" x="171" y="-100" font-family="Helvetica,sans-Serif" font-size="10.00">_double_array</text>
</a>
</g>
<!-- Node1&#45;&gt;Node3 -->
<g id="edge4" class="edge"><title>Node1&#45;&gt;Node3</title>
<path fill="none" stroke="midnightblue" d="M77.5347,-90.5902C85.9173,-92.2413 95.0192,-94.0341 104.143,-95.8312"/>
<polygon fill="midnightblue" stroke="midnightblue" points="103.531,-99.2778 114.019,-97.7765 104.884,-92.4098 103.531,-99.2778"/>
</g>
<!-- Node4 -->
<g id="node7" class="node"><title>Node4</title>
<a xlink:href="../../d4/d48/namespaceblond_1_1python.html#a960d71f6af5aa04d4dfd470986d0faea" target="_top" xlink:title="blond::python::convert\l_string">
<polygon fill="white" stroke="black" points="114.5,-40 114.5,-74 227.5,-74 227.5,-40 114.5,-40"/>
<text text-anchor="start" x="122.5" y="-61" font-family="Helvetica,sans-Serif" font-size="10.00">blond::python::convert</text>
<text text-anchor="middle" x="171" y="-48" font-family="Helvetica,sans-Serif" font-size="10.00">_string</text>
</a>
</g>
<!-- Node1&#45;&gt;Node4 -->
<g id="edge6" class="edge"><title>Node1&#45;&gt;Node4</title>
<path fill="none" stroke="midnightblue" d="M77.5347,-75.4098C85.9173,-73.7587 95.0192,-71.9659 104.143,-70.1688"/>
<polygon fill="midnightblue" stroke="midnightblue" points="104.884,-73.5902 114.019,-68.2235 103.531,-66.7222 104.884,-73.5902"/>
</g>
<!-- Node5 -->
<g id="node9" class="node"><title>Node5</title>
<a xlink:href="../../d4/d48/namespaceblond_1_1python.html#a83fe87000238e499d1a364facbbff28f" target="_top" xlink:title="blond::python::import">
<polygon fill="white" stroke="black" points="117,-0.5 117,-21.5 225,-21.5 225,-0.5 117,-0.5"/>
<text text-anchor="middle" x="171" y="-8.5" font-family="Helvetica,sans-Serif" font-size="10.00">blond::python::import</text>
</a>
</g>
<!-- Node1&#45;&gt;Node5 -->
<g id="edge8" class="edge"><title>Node1&#45;&gt;Node5</title>
<path fill="none" stroke="midnightblue" d="M51.8658,-72.4639C66.2882,-61.0499 90.7135,-42.8829 114,-31 117.996,-28.9607 122.249,-27.0444 126.56,-25.2671"/>
<polygon fill="midnightblue" stroke="midnightblue" points="127.956,-28.48 136.016,-21.604 125.427,-21.9526 127.956,-28.48"/>
</g>
</g>
</svg>
