<?xml version="1.0" encoding="UTF-8" standalone="no"?>
<!DOCTYPE svg PUBLIC "-//W3C//DTD SVG 1.1//EN"
 "http://www.w3.org/Graphics/SVG/1.1/DTD/svg11.dtd">
<!-- Generated by graphviz version 2.26.3 (20100126.1600)
 -->
<!-- Title: blond::plot_bunch_length_evol_gaussian Pages: 1 -->
<svg width="300pt" height="214pt"
 viewBox="0.00 0.00 300.00 214.00" xmlns="http://www.w3.org/2000/svg" xmlns:xlink="http://www.w3.org/1999/xlink">
<g id="graph1" class="graph" transform="scale(1 1) rotate(0) translate(4 210)">
<title>blond::plot_bunch_length_evol_gaussian</title>
<polygon fill="white" stroke="white" points="-4,5 -4,-210 297,-210 297,5 -4,5"/>
<!-- Node1 -->
<g id="node1" class="node"><title>Node1</title>
<polygon fill="#bfbfbf" stroke="black" points="0.5,-80 0.5,-114 125.5,-114 125.5,-80 0.5,-80"/>
<text text-anchor="start" x="8.5" y="-101" font-family="Helvetica,sans-Serif" font-size="10.00">blond::plot_bunch_length</text>
<text text-anchor="middle" x="63" y="-88" font-family="Helvetica,sans-Serif" font-size="10.00">_evol_gaussian</text>
</g>
<!-- Node2 -->
<g id="node3" class="node"><title>Node2</title>
<a xlink:href="../../d4/d48/namespaceblond_1_1python.html#a358bb67c6e13aba766d6c4e09ec3e5d3" target="_top" xlink:title="blond::python::convert\l_double_array">
<polygon fill="white" stroke="black" points="170.5,-172 170.5,-206 283.5,-206 283.5,-172 170.5,-172"/>
<text text-anchor="start" x="178.5" y="-193" font-family="Helvetica,sans-Serif" font-size="10.00">blond::python::convert</text>
<text text-anchor="middle" x="227" y="-180" font-family="Helvetica,sans-Serif" font-size="10.00">_double_array</text>
</a>
</g>
<!-- Node1&#45;&gt;Node2 -->
<g id="edge2" class="edge"><title>Node1&#45;&gt;Node2</title>
<path fill="none" stroke="midnightblue" d="M85.7593,-114.156C105.302,-128.395 134.577,-148.575 162,-163 165.106,-164.634 168.338,-166.23 171.629,-167.776"/>
<polygon fill="midnightblue" stroke="midnightblue" points="170.444,-171.081 181,-171.99 173.315,-164.697 170.444,-171.081"/>
</g>
<!-- Node3 -->
<g id="node5" class="node"><title>Node3</title>
<a xlink:href="../../d4/d48/namespaceblond_1_1python.html#aa8b3e76a211499c930e4ace15b4b6db0" target="_top" xlink:title="blond::python::convert_int">
<polygon fill="white" stroke="black" points="162.5,-132.5 162.5,-153.5 291.5,-153.5 291.5,-132.5 162.5,-132.5"/>
<text text-anchor="middle" x="227" y="-140.5" font-family="Helvetica,sans-Serif" font-size="10.00">blond::python::convert_int</text>
</a>
</g>
<!-- Node1&#45;&gt;Node3 -->
<g id="edge4" class="edge"><title>Node1&#45;&gt;Node3</title>
<path fill="none" stroke="midnightblue" d="M124.068,-114.129C142.338,-119.253 162.095,-124.795 179.368,-129.64"/>
<polygon fill="midnightblue" stroke="midnightblue" points="178.647,-133.073 189.221,-132.403 180.538,-126.333 178.647,-133.073"/>
</g>
<!-- Node4 -->
<g id="node7" class="node"><title>Node4</title>
<a xlink:href="../../d4/d48/namespaceblond_1_1python.html#a960d71f6af5aa04d4dfd470986d0faea" target="_top" xlink:title="blond::python::convert\l_string">
<polygon fill="white" stroke="black" points="170.5,-80 170.5,-114 283.5,-114 283.5,-80 170.5,-80"/>
<text text-anchor="start" x="178.5" y="-101" font-family="Helvetica,sans-Serif" font-size="10.00">blond::python::convert</text>
<text text-anchor="middle" x="227" y="-88" font-family="Helvetica,sans-Serif" font-size="10.00">_string</text>
</a>
</g>
<!-- Node1&#45;&gt;Node4 -->
<g id="edge6" class="edge"><title>Node1&#45;&gt;Node4</title>
<path fill="none" stroke="midnightblue" d="M125.938,-97C137.141,-97 148.848,-97 160.156,-97"/>
<polygon fill="midnightblue" stroke="midnightblue" points="160.403,-100.5 170.403,-97 160.403,-93.5001 160.403,-100.5"/>
</g>
<!-- Node5 -->
<g id="node9" class="node"><title>Node5</title>
<a xlink:href="../../d4/d48/namespaceblond_1_1python.html#a83fe87000238e499d1a364facbbff28f" target="_top" xlink:title="blond::python::import">
<polygon fill="white" stroke="black" points="173,-40.5 173,-61.5 281,-61.5 281,-40.5 173,-40.5"/>
<text text-anchor="middle" x="227" y="-48.5" font-family="Helvetica,sans-Serif" font-size="10.00">blond::python::import</text>
</a>
</g>
<!-- Node1&#45;&gt;Node5 -->
<g id="edge8" class="edge"><title>Node1&#45;&gt;Node5</title>
<path fill="none" stroke="midnightblue" d="M124.068,-79.8713C142.338,-74.7466 162.095,-69.2051 179.368,-64.3603"/>
<polygon fill="midnightblue" stroke="midnightblue" points="180.538,-67.6673 189.221,-61.5966 178.647,-60.9274 180.538,-67.6673"/>
</g>
<!-- Node6 -->
<g id="node11" class="node"><title>Node6</title>
<a xlink:href="../../d5/d60/namespaceblond.html#afccd3b378d7b863a508dbe75b13752fc" target="_top" xlink:title="blond::read_1D">
<polygon fill="white" stroke="black" points="185.5,-0.5 185.5,-21.5 268.5,-21.5 268.5,-0.5 185.5,-0.5"/>
<text text-anchor="middle" x="227" y="-8.5" font-family="Helvetica,sans-Serif" font-size="10.00">blond::read_1D</text>
</a>
</g>
<!-- Node1&#45;&gt;Node6 -->
<g id="edge10" class="edge"><title>Node1&#45;&gt;Node6</title>
<path fill="none" stroke="midnightblue" d="M84.6977,-79.8398C104.053,-65.2088 133.636,-44.4661 162,-31 166.615,-28.8092 171.526,-26.7876 176.502,-24.9407"/>
<polygon fill="midnightblue" stroke="midnightblue" points="177.795,-28.1967 186.09,-21.6055 175.495,-21.5852 177.795,-28.1967"/>
</g>
</g>
</svg>
