<?xml version="1.0" encoding="UTF-8" standalone="no"?>
<!DOCTYPE svg PUBLIC "-//W3C//DTD SVG 1.1//EN"
 "http://www.w3.org/Graphics/SVG/1.1/DTD/svg11.dtd">
<!-- Generated by graphviz version 2.26.3 (20100126.1600)
 -->
<!-- Title: blond::plot_bunch_length_evol Pages: 1 -->
<svg width="322pt" height="214pt"
 viewBox="0.00 0.00 322.00 214.00" xmlns="http://www.w3.org/2000/svg" xmlns:xlink="http://www.w3.org/1999/xlink">
<g id="graph1" class="graph" transform="scale(1 1) rotate(0) translate(4 210)">
<title>blond::plot_bunch_length_evol</title>
<polygon fill="white" stroke="white" points="-4,5 -4,-210 319,-210 319,5 -4,5"/>
<!-- Node1 -->
<g id="node1" class="node"><title>Node1</title>
<polygon fill="#bfbfbf" stroke="black" points="0,-86.5 0,-107.5 148,-107.5 148,-86.5 0,-86.5"/>
<text text-anchor="middle" x="74" y="-94.5" font-family="Helvetica,sans-Serif" font-size="10.00">blond::plot_bunch_length_evol</text>
</g>
<!-- Node2 -->
<g id="node3" class="node"><title>Node2</title>
<a xlink:href="../../d4/d48/namespaceblond_1_1python.html#a358bb67c6e13aba766d6c4e09ec3e5d3" target="_top" xlink:title="blond::python::convert\l_double_array">
<polygon fill="white" stroke="black" points="192.5,-172 192.5,-206 305.5,-206 305.5,-172 192.5,-172"/>
<text text-anchor="start" x="200.5" y="-193" font-family="Helvetica,sans-Serif" font-size="10.00">blond::python::convert</text>
<text text-anchor="middle" x="249" y="-180" font-family="Helvetica,sans-Serif" font-size="10.00">_double_array</text>
</a>
</g>
<!-- Node1&#45;&gt;Node2 -->
<g id="edge2" class="edge"><title>Node1&#45;&gt;Node2</title>
<path fill="none" stroke="midnightblue" d="M89.9425,-107.677C110.943,-121.478 149.285,-145.78 184,-163 187.297,-164.635 190.724,-166.248 194.203,-167.82"/>
<polygon fill="midnightblue" stroke="midnightblue" points="192.918,-171.078 203.483,-171.874 195.72,-164.663 192.918,-171.078"/>
</g>
<!-- Node3 -->
<g id="node5" class="node"><title>Node3</title>
<a xlink:href="../../d4/d48/namespaceblond_1_1python.html#aa8b3e76a211499c930e4ace15b4b6db0" target="_top" xlink:title="blond::python::convert_int">
<polygon fill="white" stroke="black" points="184.5,-132.5 184.5,-153.5 313.5,-153.5 313.5,-132.5 184.5,-132.5"/>
<text text-anchor="middle" x="249" y="-140.5" font-family="Helvetica,sans-Serif" font-size="10.00">blond::python::convert_int</text>
</a>
</g>
<!-- Node1&#45;&gt;Node3 -->
<g id="edge4" class="edge"><title>Node1&#45;&gt;Node3</title>
<path fill="none" stroke="midnightblue" d="M114.149,-107.553C139.382,-114.186 172.133,-122.795 199.04,-129.868"/>
<polygon fill="midnightblue" stroke="midnightblue" points="198.477,-133.339 209.038,-132.496 200.257,-126.568 198.477,-133.339"/>
</g>
<!-- Node4 -->
<g id="node7" class="node"><title>Node4</title>
<a xlink:href="../../d4/d48/namespaceblond_1_1python.html#a960d71f6af5aa04d4dfd470986d0faea" target="_top" xlink:title="blond::python::convert\l_string">
<polygon fill="white" stroke="black" points="192.5,-80 192.5,-114 305.5,-114 305.5,-80 192.5,-80"/>
<text text-anchor="start" x="200.5" y="-101" font-family="Helvetica,sans-Serif" font-size="10.00">blond::python::convert</text>
<text text-anchor="middle" x="249" y="-88" font-family="Helvetica,sans-Serif" font-size="10.00">_string</text>
</a>
</g>
<!-- Node1&#45;&gt;Node4 -->
<g id="edge6" class="edge"><title>Node1&#45;&gt;Node4</title>
<path fill="none" stroke="midnightblue" d="M148.216,-97C159.556,-97 171.201,-97 182.365,-97"/>
<polygon fill="midnightblue" stroke="midnightblue" points="182.46,-100.5 192.46,-97 182.46,-93.5001 182.46,-100.5"/>
</g>
<!-- Node5 -->
<g id="node9" class="node"><title>Node5</title>
<a xlink:href="../../d4/d48/namespaceblond_1_1python.html#a83fe87000238e499d1a364facbbff28f" target="_top" xlink:title="blond::python::import">
<polygon fill="white" stroke="black" points="195,-40.5 195,-61.5 303,-61.5 303,-40.5 195,-40.5"/>
<text text-anchor="middle" x="249" y="-48.5" font-family="Helvetica,sans-Serif" font-size="10.00">blond::python::import</text>
</a>
</g>
<!-- Node1&#45;&gt;Node5 -->
<g id="edge8" class="edge"><title>Node1&#45;&gt;Node5</title>
<path fill="none" stroke="midnightblue" d="M114.149,-86.4467C139.382,-79.814 172.133,-71.2051 199.04,-64.1324"/>
<polygon fill="midnightblue" stroke="midnightblue" points="200.257,-67.4315 209.038,-61.5042 198.477,-60.6615 200.257,-67.4315"/>
</g>
<!-- Node6 -->
<g id="node11" class="node"><title>Node6</title>
<a xlink:href="../../d5/d60/namespaceblond.html#afccd3b378d7b863a508dbe75b13752fc" target="_top" xlink:title="blond::read_1D">
<polygon fill="white" stroke="black" points="207.5,-0.5 207.5,-21.5 290.5,-21.5 290.5,-0.5 207.5,-0.5"/>
<text text-anchor="middle" x="249" y="-8.5" font-family="Helvetica,sans-Serif" font-size="10.00">blond::read_1D</text>
</a>
</g>
<!-- Node1&#45;&gt;Node6 -->
<g id="edge10" class="edge"><title>Node1&#45;&gt;Node6</title>
<path fill="none" stroke="midnightblue" d="M89.0247,-86.3692C109.633,-72.1726 148.201,-46.9636 184,-31 188.987,-28.7761 194.294,-26.7029 199.642,-24.7986"/>
<polygon fill="midnightblue" stroke="midnightblue" points="200.896,-28.0695 209.253,-21.5572 198.659,-21.4365 200.896,-28.0695"/>
</g>
</g>
</svg>
