<?xml version="1.0" encoding="UTF-8" standalone="no"?>
<!DOCTYPE svg PUBLIC "-//W3C//DTD SVG 1.1//EN"
 "http://www.w3.org/Graphics/SVG/1.1/DTD/svg11.dtd">
<!-- Generated by graphviz version 2.26.3 (20100126.1600)
 -->
<!-- Title: blond::apply_f Pages: 1 -->
<svg width="362pt" height="287pt"
 viewBox="0.00 0.00 362.00 287.00" xmlns="http://www.w3.org/2000/svg" xmlns:xlink="http://www.w3.org/1999/xlink">
<g id="graph1" class="graph" transform="scale(1 1) rotate(0) translate(4 283)">
<title>blond::apply_f</title>
<polygon fill="white" stroke="white" points="-4,5 -4,-283 359,-283 359,5 -4,5"/>
<!-- Node1 -->
<g id="node1" class="node"><title>Node1</title>
<polygon fill="#bfbfbf" stroke="black" points="0.5,-120.5 0.5,-141.5 77.5,-141.5 77.5,-120.5 0.5,-120.5"/>
<text text-anchor="middle" x="39" y="-128.5" font-family="Helvetica,sans-Serif" font-size="10.00">blond::apply_f</text>
</g>
<!-- Node2 -->
<g id="node3" class="node"><title>Node2</title>
<a xlink:href="../../d5/d60/namespaceblond.html#a2780f38beb4b159a3cee088e84641609" target="_top" xlink:title="blond::distribution\l_density_function">
<polygon fill="white" stroke="black" points="115.5,-200 115.5,-234 208.5,-234 208.5,-200 115.5,-200"/>
<text text-anchor="start" x="123.5" y="-221" font-family="Helvetica,sans-Serif" font-size="10.00">blond::distribution</text>
<text text-anchor="middle" x="162" y="-208" font-family="Helvetica,sans-Serif" font-size="10.00">_density_function</text>
</a>
</g>
<!-- Node1&#45;&gt;Node2 -->
<g id="edge2" class="edge"><title>Node1&#45;&gt;Node2</title>
<path fill="none" stroke="midnightblue" d="M58.8591,-148.506C73.5633,-161.058 94.3678,-177.98 114,-191 118.66,-194.09 123.722,-197.137 128.752,-199.997"/>
<polygon fill="midnightblue" stroke="midnightblue" points="60.8166,-145.572 50.9614,-141.682 56.2403,-150.869 60.8166,-145.572"/>
</g>
<!-- Node3 -->
<g id="node5" class="node"><title>Node3</title>
<a xlink:href="../../d5/d60/namespaceblond.html#aebe061e211acc5564fd70cc5db1d3c12" target="_top" xlink:title="blond::matched_from\l_distribution_density">
<polygon fill="white" stroke="black" points="246,-245 246,-279 354,-279 354,-245 246,-245"/>
<text text-anchor="start" x="254" y="-266" font-family="Helvetica,sans-Serif" font-size="10.00">blond::matched_from</text>
<text text-anchor="middle" x="300" y="-253" font-family="Helvetica,sans-Serif" font-size="10.00">_distribution_density</text>
</a>
</g>
<!-- Node1&#45;&gt;Node3 -->
<g id="edge8" class="edge"><title>Node1&#45;&gt;Node3</title>
<path fill="none" stroke="midnightblue" d="M46.2501,-151.249C56.7663,-177.36 78.9209,-221.912 114,-243 153.504,-266.748 206.412,-269.996 245.698,-268.18"/>
<polygon fill="midnightblue" stroke="midnightblue" points="49.4065,-149.704 42.5628,-141.616 42.8691,-152.207 49.4065,-149.704"/>
</g>
<!-- Node5 -->
<g id="node10" class="node"><title>Node5</title>
<a xlink:href="../../d5/d60/namespaceblond.html#a476ba9da52bf9ea77035feb4474120eb" target="_top" xlink:title="blond::operator*">
<polygon fill="white" stroke="black" points="119.5,-160.5 119.5,-181.5 204.5,-181.5 204.5,-160.5 119.5,-160.5"/>
<text text-anchor="middle" x="162" y="-168.5" font-family="Helvetica,sans-Serif" font-size="10.00">blond::operator*</text>
</a>
</g>
<!-- Node1&#45;&gt;Node5 -->
<g id="edge10" class="edge"><title>Node1&#45;&gt;Node5</title>
<path fill="none" stroke="midnightblue" d="M80.9039,-144.627C96.7749,-149.789 114.59,-155.582 129.472,-160.422"/>
<polygon fill="midnightblue" stroke="midnightblue" points="81.909,-141.274 71.3168,-141.51 79.7441,-147.931 81.909,-141.274"/>
</g>
<!-- Node6 -->
<g id="node12" class="node"><title>Node6</title>
<a xlink:href="../../d5/d60/namespaceblond.html#a9c21bd05bf70b4bfd158d368bbd1e6d7" target="_top" xlink:title="blond::operator+">
<polygon fill="white" stroke="black" points="118.5,-120.5 118.5,-141.5 205.5,-141.5 205.5,-120.5 118.5,-120.5"/>
<text text-anchor="middle" x="162" y="-128.5" font-family="Helvetica,sans-Serif" font-size="10.00">blond::operator+</text>
</a>
</g>
<!-- Node1&#45;&gt;Node6 -->
<g id="edge12" class="edge"><title>Node1&#45;&gt;Node6</title>
<path fill="none" stroke="midnightblue" d="M87.8747,-131C97.9639,-131 108.527,-131 118.413,-131"/>
<polygon fill="midnightblue" stroke="midnightblue" points="87.5805,-127.5 77.5805,-131 87.5805,-134.5 87.5805,-127.5"/>
</g>
<!-- Node7 -->
<g id="node14" class="node"><title>Node7</title>
<a xlink:href="../../d5/d60/namespaceblond.html#a75ba2154977667328633b3c4be599b5f" target="_top" xlink:title="blond::operator&#45;">
<polygon fill="white" stroke="black" points="120,-80.5 120,-101.5 204,-101.5 204,-80.5 120,-80.5"/>
<text text-anchor="middle" x="162" y="-88.5" font-family="Helvetica,sans-Serif" font-size="10.00">blond::operator&#45;</text>
</a>
</g>
<!-- Node1&#45;&gt;Node7 -->
<g id="edge14" class="edge"><title>Node1&#45;&gt;Node7</title>
<path fill="none" stroke="midnightblue" d="M80.9039,-117.373C96.7749,-112.211 114.59,-106.418 129.472,-101.578"/>
<polygon fill="midnightblue" stroke="midnightblue" points="79.7441,-114.069 71.3168,-120.49 81.909,-120.726 79.7441,-114.069"/>
</g>
<!-- Node8 -->
<g id="node16" class="node"><title>Node8</title>
<a xlink:href="../../d5/d60/namespaceblond.html#acdf7a350e9f1e81b49150ff27d5749bb" target="_top" xlink:title="blond::operator/">
<polygon fill="white" stroke="black" points="120,-40.5 120,-61.5 204,-61.5 204,-40.5 120,-40.5"/>
<text text-anchor="middle" x="162" y="-48.5" font-family="Helvetica,sans-Serif" font-size="10.00">blond::operator/</text>
</a>
</g>
<!-- Node1&#45;&gt;Node8 -->
<g id="edge16" class="edge"><title>Node1&#45;&gt;Node8</title>
<path fill="none" stroke="midnightblue" d="M58.2189,-113.111C72.7478,-100.235 93.6119,-83.0767 114,-71 119.903,-67.5033 126.532,-64.3201 132.935,-61.5724"/>
<polygon fill="midnightblue" stroke="midnightblue" points="55.525,-110.828 50.448,-120.127 60.2159,-116.023 55.525,-110.828"/>
</g>
<!-- Node9 -->
<g id="node18" class="node"><title>Node9</title>
<a xlink:href="../../d4/d46/classblond_1_1Slices.html#a1395f49295f86c0bb9f769504c90417f" target="_top" xlink:title="blond::Slices::rms">
<polygon fill="white" stroke="black" points="114.5,-0.5 114.5,-21.5 209.5,-21.5 209.5,-0.5 114.5,-0.5"/>
<text text-anchor="middle" x="162" y="-8.5" font-family="Helvetica,sans-Serif" font-size="10.00">blond::Slices::rms</text>
</a>
</g>
<!-- Node1&#45;&gt;Node9 -->
<g id="edge18" class="edge"><title>Node1&#45;&gt;Node9</title>
<path fill="none" stroke="midnightblue" d="M49.2651,-111.657C61.8814,-89.5069 85.2008,-53.3994 114,-31 118.774,-27.2865 124.338,-24.1469 129.95,-21.5351"/>
<polygon fill="midnightblue" stroke="midnightblue" points="46.1603,-110.039 44.3842,-120.484 52.2862,-113.427 46.1603,-110.039"/>
</g>
<!-- Node2&#45;&gt;Node3 -->
<g id="edge4" class="edge"><title>Node2&#45;&gt;Node3</title>
<path fill="none" stroke="midnightblue" d="M218.279,-235.352C227.983,-238.516 238.036,-241.794 247.631,-244.923"/>
<polygon fill="midnightblue" stroke="midnightblue" points="219.313,-232.008 208.721,-232.235 217.143,-238.663 219.313,-232.008"/>
</g>
<!-- Node4 -->
<g id="node7" class="node"><title>Node4</title>
<a xlink:href="../../d5/d60/namespaceblond.html#aeb76ffbbe68d36cec03dadc994a33b4b" target="_top" xlink:title="blond::distribution\l_density_function">
<polygon fill="white" stroke="black" points="253.5,-193 253.5,-227 346.5,-227 346.5,-193 253.5,-193"/>
<text text-anchor="start" x="261.5" y="-214" font-family="Helvetica,sans-Serif" font-size="10.00">blond::distribution</text>
<text text-anchor="middle" x="300" y="-201" font-family="Helvetica,sans-Serif" font-size="10.00">_density_function</text>
</a>
</g>
<!-- Node2&#45;&gt;Node4 -->
<g id="edge6" class="edge"><title>Node2&#45;&gt;Node4</title>
<path fill="none" stroke="midnightblue" d="M219.038,-214.107C230.451,-213.528 242.315,-212.926 253.328,-212.367"/>
<polygon fill="midnightblue" stroke="midnightblue" points="218.53,-210.628 208.721,-214.63 218.885,-217.619 218.53,-210.628"/>
</g>
</g>
</svg>
