<?xml version="1.0" encoding="UTF-8" standalone="no"?>
<!DOCTYPE svg PUBLIC "-//W3C//DTD SVG 1.1//EN"
 "http://www.w3.org/Graphics/SVG/1.1/DTD/svg11.dtd">
<!-- Generated by graphviz version 2.26.3 (20100126.1600)
 -->
<!-- Title: blond::plot_beam_profile_derivative Pages: 1 -->
<svg width="444pt" height="278pt"
 viewBox="0.00 0.00 444.00 278.00" xmlns="http://www.w3.org/2000/svg" xmlns:xlink="http://www.w3.org/1999/xlink">
<g id="graph1" class="graph" transform="scale(1 1) rotate(0) translate(4 274)">
<title>blond::plot_beam_profile_derivative</title>
<polygon fill="white" stroke="white" points="-4,5 -4,-274 441,-274 441,5 -4,5"/>
<!-- Node1 -->
<g id="node1" class="node"><title>Node1</title>
<polygon fill="#bfbfbf" stroke="black" points="0,-115 0,-149 122,-149 122,-115 0,-115"/>
<text text-anchor="start" x="8" y="-136" font-family="Helvetica,sans-Serif" font-size="10.00">blond::plot_beam_profile</text>
<text text-anchor="middle" x="61" y="-123" font-family="Helvetica,sans-Serif" font-size="10.00">_derivative</text>
</g>
<!-- Node2 -->
<g id="node3" class="node"><title>Node2</title>
<a xlink:href="../../d4/d46/classblond_1_1Slices.html#ada42a57f8bea7bb582076bfb6f9f1812" target="_top" xlink:title="blond::Slices::beam\l_profile_derivative">
<polygon fill="white" stroke="black" points="171.5,-236 171.5,-270 274.5,-270 274.5,-236 171.5,-236"/>
<text text-anchor="start" x="179.5" y="-257" font-family="Helvetica,sans-Serif" font-size="10.00">blond::Slices::beam</text>
<text text-anchor="middle" x="223" y="-244" font-family="Helvetica,sans-Serif" font-size="10.00">_profile_derivative</text>
</a>
</g>
<!-- Node1&#45;&gt;Node2 -->
<g id="edge2" class="edge"><title>Node1&#45;&gt;Node2</title>
<path fill="none" stroke="midnightblue" d="M74.8126,-149.184C92.2981,-169.995 124.235,-204.987 158,-227 160.261,-228.474 162.618,-229.888 165.038,-231.24"/>
<polygon fill="midnightblue" stroke="midnightblue" points="163.526,-234.399 174.018,-235.873 166.735,-228.178 163.526,-234.399"/>
</g>
<!-- Node4 -->
<g id="node7" class="node"><title>Node4</title>
<a xlink:href="../../d4/d48/namespaceblond_1_1python.html#a9403b5feefb6d9550c4e948b2c2f9883" target="_top" xlink:title="blond::python::convert\l_double_2d_array">
<polygon fill="white" stroke="black" points="166.5,-184 166.5,-218 279.5,-218 279.5,-184 166.5,-184"/>
<text text-anchor="start" x="174.5" y="-205" font-family="Helvetica,sans-Serif" font-size="10.00">blond::python::convert</text>
<text text-anchor="middle" x="223" y="-192" font-family="Helvetica,sans-Serif" font-size="10.00">_double_2d_array</text>
</a>
</g>
<!-- Node1&#45;&gt;Node4 -->
<g id="edge6" class="edge"><title>Node1&#45;&gt;Node4</title>
<path fill="none" stroke="midnightblue" d="M98.6336,-149.068C116.547,-157.094 138.309,-166.701 158,-175 161.906,-176.646 165.954,-178.327 170.033,-180.001"/>
<polygon fill="midnightblue" stroke="midnightblue" points="168.973,-183.348 179.554,-183.879 171.613,-176.865 168.973,-183.348"/>
</g>
<!-- Node5 -->
<g id="node9" class="node"><title>Node5</title>
<a xlink:href="../../d4/d48/namespaceblond_1_1python.html#aa8b3e76a211499c930e4ace15b4b6db0" target="_top" xlink:title="blond::python::convert_int">
<polygon fill="white" stroke="black" points="158.5,-144.5 158.5,-165.5 287.5,-165.5 287.5,-144.5 158.5,-144.5"/>
<text text-anchor="middle" x="223" y="-152.5" font-family="Helvetica,sans-Serif" font-size="10.00">blond::python::convert_int</text>
</a>
</g>
<!-- Node1&#45;&gt;Node5 -->
<g id="edge8" class="edge"><title>Node1&#45;&gt;Node5</title>
<path fill="none" stroke="midnightblue" d="M122.245,-140.695C130.746,-141.902 139.556,-143.153 148.269,-144.39"/>
<polygon fill="midnightblue" stroke="midnightblue" points="148.035,-147.892 158.428,-145.832 149.019,-140.961 148.035,-147.892"/>
</g>
<!-- Node6 -->
<g id="node11" class="node"><title>Node6</title>
<a xlink:href="../../d4/d48/namespaceblond_1_1python.html#a960d71f6af5aa04d4dfd470986d0faea" target="_top" xlink:title="blond::python::convert\l_string">
<polygon fill="white" stroke="black" points="166.5,-92 166.5,-126 279.5,-126 279.5,-92 166.5,-92"/>
<text text-anchor="start" x="174.5" y="-113" font-family="Helvetica,sans-Serif" font-size="10.00">blond::python::convert</text>
<text text-anchor="middle" x="223" y="-100" font-family="Helvetica,sans-Serif" font-size="10.00">_string</text>
</a>
</g>
<!-- Node1&#45;&gt;Node6 -->
<g id="edge10" class="edge"><title>Node1&#45;&gt;Node6</title>
<path fill="none" stroke="midnightblue" d="M122.245,-123.305C133.359,-121.727 145,-120.074 156.262,-118.475"/>
<polygon fill="midnightblue" stroke="midnightblue" points="157.063,-121.897 166.472,-117.026 156.079,-114.966 157.063,-121.897"/>
</g>
<!-- Node7 -->
<g id="node13" class="node"><title>Node7</title>
<a xlink:href="../../d4/d48/namespaceblond_1_1python.html#a7e59284b9cf96801a4ce10e455789106" target="_top" xlink:title="blond::python::convert\l_string_array">
<polygon fill="white" stroke="black" points="166.5,-40 166.5,-74 279.5,-74 279.5,-40 166.5,-40"/>
<text text-anchor="start" x="174.5" y="-61" font-family="Helvetica,sans-Serif" font-size="10.00">blond::python::convert</text>
<text text-anchor="middle" x="223" y="-48" font-family="Helvetica,sans-Serif" font-size="10.00">_string_array</text>
</a>
</g>
<!-- Node1&#45;&gt;Node7 -->
<g id="edge12" class="edge"><title>Node1&#45;&gt;Node7</title>
<path fill="none" stroke="midnightblue" d="M92.9925,-114.954C111.74,-105.188 135.99,-92.9384 158,-83 161.635,-81.3588 165.405,-79.7112 169.218,-78.0857"/>
<polygon fill="midnightblue" stroke="midnightblue" points="170.852,-81.1961 178.726,-74.1073 168.15,-74.7386 170.852,-81.1961"/>
</g>
<!-- Node8 -->
<g id="node15" class="node"><title>Node8</title>
<a xlink:href="../../d4/d48/namespaceblond_1_1python.html#a83fe87000238e499d1a364facbbff28f" target="_top" xlink:title="blond::python::import">
<polygon fill="white" stroke="black" points="169,-0.5 169,-21.5 277,-21.5 277,-0.5 169,-0.5"/>
<text text-anchor="middle" x="223" y="-8.5" font-family="Helvetica,sans-Serif" font-size="10.00">blond::python::import</text>
</a>
</g>
<!-- Node1&#45;&gt;Node8 -->
<g id="edge14" class="edge"><title>Node1&#45;&gt;Node8</title>
<path fill="none" stroke="midnightblue" d="M73.1077,-114.766C89.7479,-92.3168 121.774,-53.3123 158,-31 161.354,-28.9344 164.937,-27.0676 168.633,-25.3827"/>
<polygon fill="midnightblue" stroke="midnightblue" points="170.054,-28.583 177.987,-21.56 167.406,-22.1032 170.054,-28.583"/>
</g>
<!-- Node3 -->
<g id="node5" class="node"><title>Node3</title>
<a xlink:href="../../dc/d3e/namespaceblond_1_1mymath.html#a327b8a840092340348b9d229adf4b342" target="_top" xlink:title="blond::mymath::interp">
<polygon fill="white" stroke="black" points="324.5,-242.5 324.5,-263.5 435.5,-263.5 435.5,-242.5 324.5,-242.5"/>
<text text-anchor="middle" x="380" y="-250.5" font-family="Helvetica,sans-Serif" font-size="10.00">blond::mymath::interp</text>
</a>
</g>
<!-- Node2&#45;&gt;Node3 -->
<g id="edge4" class="edge"><title>Node2&#45;&gt;Node3</title>
<path fill="none" stroke="midnightblue" d="M274.843,-253C287.388,-253 300.963,-253 314.06,-253"/>
<polygon fill="midnightblue" stroke="midnightblue" points="314.432,-256.5 324.432,-253 314.432,-249.5 314.432,-256.5"/>
</g>
</g>
</svg>
