<?xml version="1.0" encoding="UTF-8" standalone="no"?>
<!DOCTYPE svg PUBLIC "-//W3C//DTD SVG 1.1//EN"
 "http://www.w3.org/Graphics/SVG/1.1/DTD/svg11.dtd">
<!-- Generated by graphviz version 2.26.3 (20100126.1600)
 -->
<!-- Title: blond::plot_voltage_programme Pages: 1 -->
<svg width="272pt" height="174pt"
 viewBox="0.00 0.00 272.00 174.00" xmlns="http://www.w3.org/2000/svg" xmlns:xlink="http://www.w3.org/1999/xlink">
<g id="graph1" class="graph" transform="scale(1 1) rotate(0) translate(4 170)">
<title>blond::plot_voltage_programme</title>
<polygon fill="white" stroke="white" points="-4,5 -4,-170 269,-170 269,5 -4,5"/>
<!-- Node1 -->
<g id="node1" class="node"><title>Node1</title>
<polygon fill="#bfbfbf" stroke="black" points="0,-63 0,-97 98,-97 98,-63 0,-63"/>
<text text-anchor="start" x="8" y="-84" font-family="Helvetica,sans-Serif" font-size="10.00">blond::plot_voltage</text>
<text text-anchor="middle" x="49" y="-71" font-family="Helvetica,sans-Serif" font-size="10.00">_programme</text>
</g>
<!-- Node2 -->
<g id="node3" class="node"><title>Node2</title>
<a xlink:href="../../d4/d48/namespaceblond_1_1python.html#a358bb67c6e13aba766d6c4e09ec3e5d3" target="_top" xlink:title="blond::python::convert\l_double_array">
<polygon fill="white" stroke="black" points="142.5,-132 142.5,-166 255.5,-166 255.5,-132 142.5,-132"/>
<text text-anchor="start" x="150.5" y="-153" font-family="Helvetica,sans-Serif" font-size="10.00">blond::python::convert</text>
<text text-anchor="middle" x="199" y="-140" font-family="Helvetica,sans-Serif" font-size="10.00">_double_array</text>
</a>
</g>
<!-- Node1&#45;&gt;Node2 -->
<g id="edge2" class="edge"><title>Node1&#45;&gt;Node2</title>
<path fill="none" stroke="midnightblue" d="M80.9676,-97.0089C96.7681,-105.2 116.217,-114.964 134,-123 137.634,-124.642 141.405,-126.291 145.217,-127.917"/>
<polygon fill="midnightblue" stroke="midnightblue" points="144.148,-131.264 154.724,-131.896 146.851,-124.806 144.148,-131.264"/>
</g>
<!-- Node3 -->
<g id="node5" class="node"><title>Node3</title>
<a xlink:href="../../d4/d48/namespaceblond_1_1python.html#aa8b3e76a211499c930e4ace15b4b6db0" target="_top" xlink:title="blond::python::convert_int">
<polygon fill="white" stroke="black" points="134.5,-92.5 134.5,-113.5 263.5,-113.5 263.5,-92.5 134.5,-92.5"/>
<text text-anchor="middle" x="199" y="-100.5" font-family="Helvetica,sans-Serif" font-size="10.00">blond::python::convert_int</text>
</a>
</g>
<!-- Node1&#45;&gt;Node3 -->
<g id="edge4" class="edge"><title>Node1&#45;&gt;Node3</title>
<path fill="none" stroke="midnightblue" d="M98.1156,-87.5311C106.558,-88.8256 115.5,-90.1966 124.433,-91.5664"/>
<polygon fill="midnightblue" stroke="midnightblue" points="124.074,-95.0521 134.489,-93.1083 125.135,-88.133 124.074,-95.0521"/>
</g>
<!-- Node4 -->
<g id="node7" class="node"><title>Node4</title>
<a xlink:href="../../d4/d48/namespaceblond_1_1python.html#a960d71f6af5aa04d4dfd470986d0faea" target="_top" xlink:title="blond::python::convert\l_string">
<polygon fill="white" stroke="black" points="142.5,-40 142.5,-74 255.5,-74 255.5,-40 142.5,-40"/>
<text text-anchor="start" x="150.5" y="-61" font-family="Helvetica,sans-Serif" font-size="10.00">blond::python::convert</text>
<text text-anchor="middle" x="199" y="-48" font-family="Helvetica,sans-Serif" font-size="10.00">_string</text>
</a>
</g>
<!-- Node1&#45;&gt;Node4 -->
<g id="edge6" class="edge"><title>Node1&#45;&gt;Node4</title>
<path fill="none" stroke="midnightblue" d="M98.1156,-72.4689C109.086,-70.7869 120.898,-68.9757 132.44,-67.2059"/>
<polygon fill="midnightblue" stroke="midnightblue" points="133.131,-70.6409 142.485,-65.6656 132.07,-63.7217 133.131,-70.6409"/>
</g>
<!-- Node5 -->
<g id="node9" class="node"><title>Node5</title>
<a xlink:href="../../d4/d48/namespaceblond_1_1python.html#a83fe87000238e499d1a364facbbff28f" target="_top" xlink:title="blond::python::import">
<polygon fill="white" stroke="black" points="145,-0.5 145,-21.5 253,-21.5 253,-0.5 145,-0.5"/>
<text text-anchor="middle" x="199" y="-8.5" font-family="Helvetica,sans-Serif" font-size="10.00">blond::python::import</text>
</a>
</g>
<!-- Node1&#45;&gt;Node5 -->
<g id="edge8" class="edge"><title>Node1&#45;&gt;Node5</title>
<path fill="none" stroke="midnightblue" d="M74.999,-62.9667C91.4312,-52.7242 113.386,-39.9772 134,-31 139.074,-28.7903 144.469,-26.7192 149.898,-24.8101"/>
<polygon fill="midnightblue" stroke="midnightblue" points="151.268,-28.0426 159.643,-21.5538 149.05,-21.4034 151.268,-28.0426"/>
</g>
</g>
</svg>
