<?xml version="1.0" encoding="UTF-8" standalone="no"?>
<!DOCTYPE svg PUBLIC "-//W3C//DTD SVG 1.1//EN"
 "http://www.w3.org/Graphics/SVG/1.1/DTD/svg11.dtd">
<!-- Generated by graphviz version 2.26.3 (20100126.1600)
 -->
<!-- Title: PhaseLoop.h Pages: 1 -->
<!--zoomable 638 -->
<svg id="main" version="1.1" xmlns="http://www.w3.org/2000/svg" xmlns:xlink="http://www.w3.org/1999/xlink" xml:space="preserve" onload="init(evt)">
        <defs>
                <circle id="rim" cx="0" cy="0" r="7"/>
                <circle id="rim2" cx="0" cy="0" r="3.5"/>
                <g id="zoomPlus">
                        <use xlink:href="#rim" fill="#404040">
                                <set attributeName="fill" to="#808080" begin="zoomplus.mouseover" end="zoomplus.mouseout"/>
                        </use>
                        <path d="M-4,0h8M0,-4v8" fill="none" stroke="white" stroke-width="1.5" pointer-events="none"/>
                </g>
                <g id="zoomMin">
                        <use xlink:href="#rim" fill="#404040">
                                <set attributeName="fill" to="#808080" begin="zoomminus.mouseover" end="zoomminus.mouseout"/>
                        </use>
                        <path d="M-4,0h8" fill="none" stroke="white" stroke-width="1.5" pointer-events="none"/>
                </g>
                <g id="dirArrow">
                        <path fill="none" stroke="white" stroke-width="1.5" d="M0,-3.0v7 M-2.5,-0.5L0,-3.0L2.5,-0.5"/>
                </g>
               <g id="resetDef">
                       <use xlink:href="#rim2" fill="#404040">
                               <set attributeName="fill" to="#808080" begin="reset.mouseover" end="reset.mouseout"/>
                       </use>
               </g>
        </defs>

<script type="text/javascript">
var viewWidth = 1548;
var viewHeight = 638;
var sectionId = 'dynsection-0';
</script>
<script xlink:href="../../svgpan.js"/>
<svg id="graph" class="graph">
<g id="viewport">
<title>PhaseLoop.h</title>
<polygon fill="white" stroke="white" points="-4,5 -4,-634 1544.76,-634 1544.76,5 -4,5"/>
<!-- Node1 -->
<g id="node1" class="node"><title>Node1</title>
<polygon fill="#bfbfbf" stroke="black" points="182,-608.5 182,-629.5 256,-629.5 256,-608.5 182,-608.5"/>
<text text-anchor="middle" x="219" y="-616.5" font-family="Helvetica,sans-Serif" font-size="10.00">PhaseLoop.h</text>
</g>
<!-- Node2 -->
<g id="node3" class="node"><title>Node2</title>
<a xlink:href="../../d2/d2c/configuration_8h.html" target="_top" xlink:title="blond/configuration.h">
<polygon fill="white" stroke="black" points="-0.5,-116.5 -0.5,-137.5 106.5,-137.5 106.5,-116.5 -0.5,-116.5"/>
<text text-anchor="middle" x="53" y="-124.5" font-family="Helvetica,sans-Serif" font-size="10.00">blond/configuration.h</text>
</a>
</g>
<!-- Node1&#45;&gt;Node2 -->
<g id="edge2" class="edge"><title>Node1&#45;&gt;Node2</title>
<path fill="none" stroke="midnightblue" d="M181.758,-614.189C124.402,-604.461 21,-576.704 21,-503 21,-503 21,-503 21,-250 21,-212.712 34.9445,-171.054 44.4233,-147.045"/>
<polygon fill="midnightblue" stroke="midnightblue" points="47.7332,-148.198 48.2783,-137.617 41.2539,-145.548 47.7332,-148.198"/>
</g>
<!-- Node5 -->
<g id="node9" class="node"><title>Node5</title>
<a xlink:href="../../d5/d87/globals_8h.html" target="_top" xlink:title="blond/globals.h">
<polygon fill="white" stroke="black" points="291,-492.5 291,-513.5 373,-513.5 373,-492.5 291,-492.5"/>
<text text-anchor="middle" x="332" y="-500.5" font-family="Helvetica,sans-Serif" font-size="10.00">blond/globals.h</text>
</a>
</g>
<!-- Node1&#45;&gt;Node5 -->
<g id="edge8" class="edge"><title>Node1&#45;&gt;Node5</title>
<path fill="none" stroke="midnightblue" d="M238.381,-608.386C252.871,-599.828 272.585,-586.808 287,-572 301.266,-557.346 313.635,-537.533 321.775,-522.898"/>
<polygon fill="midnightblue" stroke="midnightblue" points="325.057,-524.185 326.707,-513.719 318.891,-520.872 325.057,-524.185"/>
</g>
<!-- Node7 -->
<g id="node14" class="node"><title>Node7</title>
<a xlink:href="../../de/df0/utilities_8h.html" target="_top" xlink:title="blond/utilities.h">
<polygon fill="white" stroke="black" points="441,-174.5 441,-195.5 523,-195.5 523,-174.5 441,-174.5"/>
<text text-anchor="middle" x="482" y="-182.5" font-family="Helvetica,sans-Serif" font-size="10.00">blond/utilities.h</text>
</a>
</g>
<!-- Node1&#45;&gt;Node7 -->
<g id="edge142" class="edge"><title>Node1&#45;&gt;Node7</title>
<path fill="none" stroke="midnightblue" d="M256.289,-616.401C357.008,-608.367 627,-579.678 627,-503 627,-503 627,-503 627,-315 627,-257.479 562.958,-218.996 519.996,-199.651"/>
<polygon fill="midnightblue" stroke="midnightblue" points="521.214,-196.364 510.647,-195.591 518.425,-202.785 521.214,-196.364"/>
</g>
<!-- Node37 -->
<g id="node100" class="node"><title>Node37</title>
<a xlink:href="../../d4/dba/LHCNoiseFB_8h.html" target="_top" xlink:title="blond/llrf/LHCNoiseFB.h">
<polygon fill="white" stroke="black" points="162.5,-239.5 162.5,-260.5 285.5,-260.5 285.5,-239.5 162.5,-239.5"/>
<text text-anchor="middle" x="224" y="-247.5" font-family="Helvetica,sans-Serif" font-size="10.00">blond/llrf/LHCNoiseFB.h</text>
</a>
</g>
<!-- Node1&#45;&gt;Node37 -->
<g id="edge126" class="edge"><title>Node1&#45;&gt;Node37</title>
<path fill="none" stroke="midnightblue" d="M193.425,-608.448C157.65,-591.784 97,-555.754 97,-503 97,-503 97,-503 97,-380 97,-325.753 154.283,-285.734 191.906,-265.301"/>
<polygon fill="midnightblue" stroke="midnightblue" points="193.771,-268.275 201.001,-260.531 190.52,-262.076 193.771,-268.275"/>
</g>
<!-- Node38 -->
<g id="node105" class="node"><title>Node38</title>
<a xlink:href="../../d9/dc8/PhaseNoise_8h.html" target="_top" xlink:title="blond/llrf/PhaseNoise.h">
<polygon fill="white" stroke="black" points="160,-550.5 160,-571.5 278,-571.5 278,-550.5 160,-550.5"/>
<text text-anchor="middle" x="219" y="-558.5" font-family="Helvetica,sans-Serif" font-size="10.00">blond/llrf/PhaseNoise.h</text>
</a>
</g>
<!-- Node1&#45;&gt;Node38 -->
<g id="edge134" class="edge"><title>Node1&#45;&gt;Node38</title>
<path fill="none" stroke="midnightblue" d="M219,-608.362C219,-600.922 219,-590.743 219,-581.728"/>
<polygon fill="midnightblue" stroke="midnightblue" points="222.5,-581.571 219,-571.571 215.5,-581.571 222.5,-581.571"/>
</g>
<!-- Node3 -->
<g id="node5" class="node"><title>Node3</title>
<polygon fill="white" stroke="#bfbfbf" points="26.5,-58.5 26.5,-79.5 79.5,-79.5 79.5,-58.5 26.5,-58.5"/>
<text text-anchor="middle" x="53" y="-66.5" font-family="Helvetica,sans-Serif" font-size="10.00">complex</text>
</g>
<!-- Node2&#45;&gt;Node3 -->
<g id="edge4" class="edge"><title>Node2&#45;&gt;Node3</title>
<path fill="none" stroke="midnightblue" d="M53,-116.362C53,-108.922 53,-98.7427 53,-89.7276"/>
<polygon fill="midnightblue" stroke="midnightblue" points="56.5001,-89.5706 53,-79.5707 49.5001,-89.5707 56.5001,-89.5706"/>
</g>
<!-- Node4 -->
<g id="node7" class="node"><title>Node4</title>
<polygon fill="white" stroke="#bfbfbf" points="851,-58.5 851,-79.5 895,-79.5 895,-58.5 851,-58.5"/>
<text text-anchor="middle" x="873" y="-66.5" font-family="Helvetica,sans-Serif" font-size="10.00">vector</text>
</g>
<!-- Node2&#45;&gt;Node4 -->
<g id="edge6" class="edge"><title>Node2&#45;&gt;Node4</title>
<path fill="none" stroke="midnightblue" d="M106.713,-117.085C109.511,-116.689 112.286,-116.324 115,-116 394.763,-82.6186 735.619,-72.2179 840.651,-69.6917"/>
<polygon fill="midnightblue" stroke="midnightblue" points="840.988,-73.1849 850.903,-69.4524 840.824,-66.1868 840.988,-73.1849"/>
</g>
<!-- Node6 -->
<g id="node11" class="node"><title>Node6</title>
<a xlink:href="../../d5/d34/GeneralParameters_8h.html" target="_top" xlink:title="blond/input_parameters\l/GeneralParameters.h">
<polygon fill="white" stroke="black" points="417,-233 417,-267 535,-267 535,-233 417,-233"/>
<text text-anchor="start" x="425" y="-254" font-family="Helvetica,sans-Serif" font-size="10.00">blond/input_parameters</text>
<text text-anchor="middle" x="476" y="-241" font-family="Helvetica,sans-Serif" font-size="10.00">/GeneralParameters.h</text>
</a>
</g>
<!-- Node5&#45;&gt;Node6 -->
<g id="edge10" class="edge"><title>Node5&#45;&gt;Node6</title>
<path fill="none" stroke="midnightblue" d="M367.345,-492.386C386.138,-485.025 408.156,-473.368 422,-456 444.113,-428.257 463.42,-326.334 471.7,-277.047"/>
<polygon fill="midnightblue" stroke="midnightblue" points="475.167,-277.534 473.341,-267.097 468.26,-276.394 475.167,-277.534"/>
</g>
<!-- Node19 -->
<g id="node41" class="node"><title>Node19</title>
<a xlink:href="../../d6/db7/RfParameters_8h.html" target="_top" xlink:title="blond/input_parameters\l/RfParameters.h">
<polygon fill="white" stroke="black" points="467,-363 467,-397 585,-397 585,-363 467,-363"/>
<text text-anchor="start" x="475" y="-384" font-family="Helvetica,sans-Serif" font-size="10.00">blond/input_parameters</text>
<text text-anchor="middle" x="526" y="-371" font-family="Helvetica,sans-Serif" font-size="10.00">/RfParameters.h</text>
</a>
</g>
<!-- Node5&#45;&gt;Node19 -->
<g id="edge44" class="edge"><title>Node5&#45;&gt;Node19</title>
<path fill="none" stroke="midnightblue" d="M365.23,-492.457C389.044,-484.813 420.963,-472.843 446,-456 466.6,-442.142 485.553,-421.245 500.081,-404.869"/>
<polygon fill="midnightblue" stroke="midnightblue" points="502.828,-407.047 506.845,-397.244 497.591,-402.402 502.828,-407.047"/>
</g>
<!-- Node20 -->
<g id="node43" class="node"><title>Node20</title>
<a xlink:href="../../d7/d74/Beams_8h.html" target="_top" xlink:title="blond/beams/Beams.h">
<polygon fill="white" stroke="black" points="247,-304.5 247,-325.5 361,-325.5 361,-304.5 247,-304.5"/>
<text text-anchor="middle" x="304" y="-312.5" font-family="Helvetica,sans-Serif" font-size="10.00">blond/beams/Beams.h</text>
</a>
</g>
<!-- Node5&#45;&gt;Node20 -->
<g id="edge114" class="edge"><title>Node5&#45;&gt;Node20</title>
<path fill="none" stroke="midnightblue" d="M312.48,-492.424C301.75,-483.699 290.108,-470.443 285,-456 270.488,-414.969 280.881,-363.121 291.63,-335.133"/>
<polygon fill="midnightblue" stroke="midnightblue" points="294.975,-336.216 295.716,-325.647 288.546,-333.446 294.975,-336.216"/>
</g>
<!-- Node35 -->
<g id="node93" class="node"><title>Node35</title>
<a xlink:href="../../dc/df2/Slices_8h.html" target="_top" xlink:title="blond/beams/Slices.h">
<polygon fill="white" stroke="black" points="303,-434.5 303,-455.5 413,-455.5 413,-434.5 303,-434.5"/>
<text text-anchor="middle" x="358" y="-442.5" font-family="Helvetica,sans-Serif" font-size="10.00">blond/beams/Slices.h</text>
</a>
</g>
<!-- Node5&#45;&gt;Node35 -->
<g id="edge116" class="edge"><title>Node5&#45;&gt;Node35</title>
<path fill="none" stroke="midnightblue" d="M336.769,-492.362C340.214,-484.677 344.969,-474.069 349.106,-464.84"/>
<polygon fill="midnightblue" stroke="midnightblue" points="352.365,-466.127 353.261,-455.571 345.977,-463.264 352.365,-466.127"/>
</g>
<!-- Node6&#45;&gt;Node2 -->
<g id="edge12" class="edge"><title>Node6&#45;&gt;Node2</title>
<path fill="none" stroke="midnightblue" d="M416.905,-234.77C376.77,-224.268 322.549,-209.771 275,-196 212.108,-177.785 139.773,-154.947 95.221,-140.659"/>
<polygon fill="midnightblue" stroke="midnightblue" points="96.1966,-137.297 85.6053,-137.57 94.0555,-143.961 96.1966,-137.297"/>
</g>
<!-- Node6&#45;&gt;Node4 -->
<g id="edge42" class="edge"><title>Node6&#45;&gt;Node4</title>
<path fill="none" stroke="midnightblue" d="M535.402,-244.653C649.195,-233.049 891.093,-201.355 941,-138 957.128,-117.526 928.812,-96.5548 903.95,-83.1912"/>
<polygon fill="midnightblue" stroke="midnightblue" points="905.531,-80.0689 895.035,-78.627 902.341,-86.2998 905.531,-80.0689"/>
</g>
<!-- Node6&#45;&gt;Node7 -->
<g id="edge14" class="edge"><title>Node6&#45;&gt;Node7</title>
<path fill="none" stroke="midnightblue" d="M477.576,-232.922C478.338,-224.67 479.259,-214.692 480.063,-205.982"/>
<polygon fill="midnightblue" stroke="midnightblue" points="483.564,-206.131 480.998,-195.852 476.594,-205.488 483.564,-206.131"/>
</g>
<!-- Node7&#45;&gt;Node2 -->
<g id="edge38" class="edge"><title>Node7&#45;&gt;Node2</title>
<path fill="none" stroke="midnightblue" d="M440.921,-176.399C436.236,-175.533 431.521,-174.712 427,-174 292.343,-152.803 254.86,-157.94 116.849,-138.204"/>
<polygon fill="midnightblue" stroke="midnightblue" points="117.135,-134.709 106.736,-136.74 116.131,-141.637 117.135,-134.709"/>
</g>
<!-- Node7&#45;&gt;Node4 -->
<g id="edge34" class="edge"><title>Node7&#45;&gt;Node4</title>
<path fill="none" stroke="midnightblue" d="M523.031,-183.511C579.688,-180.29 684.253,-170.117 767,-138 775.774,-134.595 820.338,-104.803 848.819,-85.4952"/>
<polygon fill="midnightblue" stroke="midnightblue" points="851.13,-88.1562 857.435,-79.6414 847.197,-82.366 851.13,-88.1562"/>
</g>
<!-- Node8 -->
<g id="node16" class="node"><title>Node8</title>
<polygon fill="white" stroke="#bfbfbf" points="652,-116.5 652,-137.5 698,-137.5 698,-116.5 652,-116.5"/>
<text text-anchor="middle" x="675" y="-124.5" font-family="Helvetica,sans-Serif" font-size="10.00">chrono</text>
</g>
<!-- Node7&#45;&gt;Node8 -->
<g id="edge16" class="edge"><title>Node7&#45;&gt;Node8</title>
<path fill="none" stroke="midnightblue" d="M519.887,-174.484C550.501,-165.865 594.911,-153.091 642.167,-138.174"/>
<polygon fill="midnightblue" stroke="midnightblue" points="643.499,-141.423 651.971,-135.061 641.381,-134.751 643.499,-141.423"/>
</g>
<!-- Node9 -->
<g id="node18" class="node"><title>Node9</title>
<polygon fill="white" stroke="#bfbfbf" points="715.5,-116.5 715.5,-137.5 758.5,-137.5 758.5,-116.5 715.5,-116.5"/>
<text text-anchor="middle" x="737" y="-124.5" font-family="Helvetica,sans-Serif" font-size="10.00">cstdio</text>
</g>
<!-- Node7&#45;&gt;Node9 -->
<g id="edge18" class="edge"><title>Node7&#45;&gt;Node9</title>
<path fill="none" stroke="midnightblue" d="M523.082,-178.272C566.484,-170.756 637.002,-157.384 705.801,-138.075"/>
<polygon fill="midnightblue" stroke="midnightblue" points="706.837,-141.419 715.494,-135.311 704.917,-134.687 706.837,-141.419"/>
</g>
<!-- Node10 -->
<g id="node20" class="node"><title>Node10</title>
<polygon fill="white" stroke="#bfbfbf" points="123.5,-116.5 123.5,-137.5 168.5,-137.5 168.5,-116.5 123.5,-116.5"/>
<text text-anchor="middle" x="146" y="-124.5" font-family="Helvetica,sans-Serif" font-size="10.00">cstdlib</text>
</g>
<!-- Node7&#45;&gt;Node10 -->
<g id="edge20" class="edge"><title>Node7&#45;&gt;Node10</title>
<path fill="none" stroke="midnightblue" d="M440.9,-176.526C436.219,-175.637 431.511,-174.775 427,-174 319.498,-155.524 287.771,-164.363 178.303,-137.975"/>
<polygon fill="midnightblue" stroke="midnightblue" points="179.075,-134.56 168.529,-135.576 177.407,-141.359 179.075,-134.56"/>
</g>
<!-- Node11 -->
<g id="node22" class="node"><title>Node11</title>
<polygon fill="white" stroke="#bfbfbf" points="186,-116.5 186,-137.5 236,-137.5 236,-116.5 186,-116.5"/>
<text text-anchor="middle" x="211" y="-124.5" font-family="Helvetica,sans-Serif" font-size="10.00">fstream</text>
</g>
<!-- Node7&#45;&gt;Node11 -->
<g id="edge22" class="edge"><title>Node7&#45;&gt;Node11</title>
<path fill="none" stroke="midnightblue" d="M440.856,-176.761C436.183,-175.829 431.489,-174.893 427,-174 349.287,-158.543 326.565,-158.689 246.243,-138.116"/>
<polygon fill="midnightblue" stroke="midnightblue" points="246.712,-134.623 236.154,-135.502 244.956,-141.399 246.712,-134.623"/>
</g>
<!-- Node12 -->
<g id="node24" class="node"><title>Node12</title>
<polygon fill="white" stroke="#bfbfbf" points="878,-116.5 878,-137.5 932,-137.5 932,-116.5 878,-116.5"/>
<text text-anchor="middle" x="905" y="-124.5" font-family="Helvetica,sans-Serif" font-size="10.00">iostream</text>
</g>
<!-- Node7&#45;&gt;Node12 -->
<g id="edge24" class="edge"><title>Node7&#45;&gt;Node12</title>
<path fill="none" stroke="midnightblue" d="M523.062,-182.393C592.353,-177.481 736.936,-165.017 867.443,-138.049"/>
<polygon fill="midnightblue" stroke="midnightblue" points="868.546,-141.393 877.612,-135.911 867.106,-134.543 868.546,-141.393"/>
</g>
<!-- Node13 -->
<g id="node26" class="node"><title>Node13</title>
<polygon fill="white" stroke="#bfbfbf" points="813.5,-116.5 813.5,-137.5 860.5,-137.5 860.5,-116.5 813.5,-116.5"/>
<text text-anchor="middle" x="837" y="-124.5" font-family="Helvetica,sans-Serif" font-size="10.00">iterator</text>
</g>
<!-- Node7&#45;&gt;Node13 -->
<g id="edge26" class="edge"><title>Node7&#45;&gt;Node13</title>
<path fill="none" stroke="midnightblue" d="M523.253,-180.801C584.225,-174.168 701.784,-159.742 800,-138 801.08,-137.761 802.174,-137.507 803.276,-137.241"/>
<polygon fill="midnightblue" stroke="midnightblue" points="804.474,-140.545 813.246,-134.604 802.684,-133.778 804.474,-140.545"/>
</g>
<!-- Node14 -->
<g id="node28" class="node"><title>Node14</title>
<polygon fill="white" stroke="#bfbfbf" points="254,-116.5 254,-137.5 306,-137.5 306,-116.5 254,-116.5"/>
<text text-anchor="middle" x="280" y="-124.5" font-family="Helvetica,sans-Serif" font-size="10.00">memory</text>
</g>
<!-- Node7&#45;&gt;Node14 -->
<g id="edge28" class="edge"><title>Node7&#45;&gt;Node14</title>
<path fill="none" stroke="midnightblue" d="M443.098,-174.409C411.31,-165.675 364.976,-152.763 316.143,-138.289"/>
<polygon fill="midnightblue" stroke="midnightblue" points="316.93,-134.871 306.347,-135.374 314.934,-141.581 316.93,-134.871"/>
</g>
<!-- Node15 -->
<g id="node30" class="node"><title>Node15</title>
<polygon fill="white" stroke="#bfbfbf" points="324,-116.5 324,-137.5 376,-137.5 376,-116.5 324,-116.5"/>
<text text-anchor="middle" x="350" y="-124.5" font-family="Helvetica,sans-Serif" font-size="10.00">sstream</text>
</g>
<!-- Node7&#45;&gt;Node15 -->
<g id="edge30" class="edge"><title>Node7&#45;&gt;Node15</title>
<path fill="none" stroke="midnightblue" d="M458.096,-174.497C437.2,-165.315 406.644,-151.889 383.345,-141.652"/>
<polygon fill="midnightblue" stroke="midnightblue" points="384.736,-138.44 374.172,-137.621 381.92,-144.848 384.736,-138.44"/>
</g>
<!-- Node16 -->
<g id="node32" class="node"><title>Node16</title>
<polygon fill="white" stroke="#bfbfbf" points="393.5,-116.5 393.5,-137.5 434.5,-137.5 434.5,-116.5 393.5,-116.5"/>
<text text-anchor="middle" x="414" y="-124.5" font-family="Helvetica,sans-Serif" font-size="10.00">string</text>
</g>
<!-- Node7&#45;&gt;Node16 -->
<g id="edge32" class="edge"><title>Node7&#45;&gt;Node16</title>
<path fill="none" stroke="midnightblue" d="M469.528,-174.362C459.655,-165.941 445.667,-154.011 434.202,-144.231"/>
<polygon fill="midnightblue" stroke="midnightblue" points="436.273,-141.397 426.393,-137.571 431.73,-146.723 436.273,-141.397"/>
</g>
<!-- Node17 -->
<g id="node35" class="node"><title>Node17</title>
<polygon fill="white" stroke="#bfbfbf" points="452,-116.5 452,-137.5 512,-137.5 512,-116.5 452,-116.5"/>
<text text-anchor="middle" x="482" y="-124.5" font-family="Helvetica,sans-Serif" font-size="10.00">sys/stat.h</text>
</g>
<!-- Node7&#45;&gt;Node17 -->
<g id="edge36" class="edge"><title>Node7&#45;&gt;Node17</title>
<path fill="none" stroke="midnightblue" d="M482,-174.362C482,-166.922 482,-156.743 482,-147.728"/>
<polygon fill="midnightblue" stroke="midnightblue" points="485.5,-147.571 482,-137.571 478.5,-147.571 485.5,-147.571"/>
</g>
<!-- Node18 -->
<g id="node38" class="node"><title>Node18</title>
<a xlink:href="../../da/d69/optionparser_8h.html" target="_top" xlink:title="This is the only file required to use The Lean Mean C++ Option Parser. Just #include it and you&#39;re se...">
<polygon fill="white" stroke="black" points="530,-116.5 530,-137.5 634,-137.5 634,-116.5 530,-116.5"/>
<text text-anchor="middle" x="582" y="-124.5" font-family="Helvetica,sans-Serif" font-size="10.00">blond/optionparser.h</text>
</a>
</g>
<!-- Node7&#45;&gt;Node18 -->
<g id="edge40" class="edge"><title>Node7&#45;&gt;Node18</title>
<path fill="none" stroke="midnightblue" d="M500.342,-174.362C515.566,-165.532 537.441,-152.844 554.72,-142.822"/>
<polygon fill="midnightblue" stroke="midnightblue" points="556.88,-145.615 563.775,-137.571 553.368,-139.56 556.88,-145.615"/>
</g>
<!-- Node19&#45;&gt;Node5 -->
<g id="edge98" class="edge"><title>Node19&#45;&gt;Node5</title>
<path fill="none" stroke="midnightblue" d="M520.451,-397.244C509.712,-414.218 487.971,-439.874 464,-456 439.613,-472.406 408.696,-484.188 382.819,-491.853"/>
<polygon fill="midnightblue" stroke="midnightblue" points="381.838,-488.493 373.173,-494.59 383.749,-495.227 381.838,-488.493"/>
</g>
<!-- Node19&#45;&gt;Node6 -->
<g id="edge58" class="edge"><title>Node19&#45;&gt;Node6</title>
<path fill="none" stroke="midnightblue" d="M514.84,-362.553C508.62,-352.237 501.12,-338.737 496,-326 489.694,-310.313 484.807,-292.004 481.442,-277.288"/>
<polygon fill="midnightblue" stroke="midnightblue" points="484.813,-276.321 479.263,-267.296 477.974,-277.813 484.813,-276.321"/>
</g>
<!-- Node19&#45;&gt;Node20 -->
<g id="edge46" class="edge"><title>Node19&#45;&gt;Node20</title>
<path fill="none" stroke="midnightblue" d="M466.966,-364.431C428.338,-353.492 378.938,-339.003 344.65,-328.543"/>
<polygon fill="midnightblue" stroke="midnightblue" points="345.55,-325.158 334.963,-325.57 343.496,-331.85 345.55,-325.158"/>
</g>
<!-- Node21 -->
<g id="node51" class="node"><title>Node21</title>
<a xlink:href="../../d2/de2/math__functions_8h.html" target="_top" xlink:title="blond/math_functions.h">
<polygon fill="white" stroke="black" points="1111,-239.5 1111,-260.5 1229,-260.5 1229,-239.5 1111,-239.5"/>
<text text-anchor="middle" x="1170" y="-247.5" font-family="Helvetica,sans-Serif" font-size="10.00">blond/math_functions.h</text>
</a>
</g>
<!-- Node19&#45;&gt;Node21 -->
<g id="edge60" class="edge"><title>Node19&#45;&gt;Node21</title>
<path fill="none" stroke="midnightblue" d="M585.144,-368.061C706.726,-343.518 983.705,-287.606 1107.82,-262.551"/>
<polygon fill="midnightblue" stroke="midnightblue" points="1108.81,-265.922 1117.92,-260.513 1107.43,-259.061 1108.81,-265.922"/>
</g>
<!-- Node32 -->
<g id="node79" class="node"><title>Node32</title>
<a xlink:href="../../d2/d6f/constants_8h.html" target="_top" xlink:title="blond/constants.h">
<polygon fill="white" stroke="black" points="505,-304.5 505,-325.5 599,-325.5 599,-304.5 505,-304.5"/>
<text text-anchor="middle" x="552" y="-312.5" font-family="Helvetica,sans-Serif" font-size="10.00">blond/constants.h</text>
</a>
</g>
<!-- Node19&#45;&gt;Node32 -->
<g id="edge94" class="edge"><title>Node19&#45;&gt;Node32</title>
<path fill="none" stroke="midnightblue" d="M532.831,-362.922C536.205,-354.487 540.301,-344.248 543.839,-335.403"/>
<polygon fill="midnightblue" stroke="midnightblue" points="547.195,-336.437 547.659,-325.852 540.696,-333.837 547.195,-336.437"/>
</g>
<!-- Node33 -->
<g id="node83" class="node"><title>Node33</title>
<a xlink:href="../../da/d30/vector__math_8h.html" target="_top" xlink:title="blond/vector_math.h">
<polygon fill="white" stroke="black" points="879.5,-239.5 879.5,-260.5 984.5,-260.5 984.5,-239.5 879.5,-239.5"/>
<text text-anchor="middle" x="932" y="-247.5" font-family="Helvetica,sans-Serif" font-size="10.00">blond/vector_math.h</text>
</a>
</g>
<!-- Node19&#45;&gt;Node33 -->
<g id="edge100" class="edge"><title>Node19&#45;&gt;Node33</title>
<path fill="none" stroke="midnightblue" d="M579.495,-362.871C661.1,-336.741 815.034,-287.452 889.51,-263.605"/>
<polygon fill="midnightblue" stroke="midnightblue" points="890.59,-266.934 899.047,-260.552 888.456,-260.268 890.59,-266.934"/>
</g>
<!-- Node20&#45;&gt;Node2 -->
<g id="edge50" class="edge"><title>Node20&#45;&gt;Node2</title>
<path fill="none" stroke="midnightblue" d="M246.829,-308.471C216.239,-302.391 179.687,-290.653 154,-268 119.543,-237.614 139.146,-210.31 111,-174 101.978,-162.361 89.5387,-151.795 78.493,-143.642"/>
<polygon fill="midnightblue" stroke="midnightblue" points="80.2092,-140.569 70.0253,-137.647 76.1643,-146.282 80.2092,-140.569"/>
</g>
<!-- Node20&#45;&gt;Node5 -->
<g id="edge48" class="edge"><title>Node20&#45;&gt;Node5</title>
<path fill="none" stroke="midnightblue" d="M305.133,-325.647C301.943,-349.696 286.634,-409.728 303,-456 306.751,-466.607 314.026,-476.573 320.554,-484.575"/>
<polygon fill="midnightblue" stroke="midnightblue" points="318.032,-487.015 327.141,-492.424 323.394,-482.514 318.032,-487.015"/>
</g>
<!-- Node20&#45;&gt;Node6 -->
<g id="edge54" class="edge"><title>Node20&#45;&gt;Node6</title>
<path fill="none" stroke="midnightblue" d="M332.018,-304.412C356.154,-295.291 391.697,-281.859 421.428,-270.623"/>
<polygon fill="midnightblue" stroke="midnightblue" points="422.739,-273.87 430.856,-267.06 420.264,-267.322 422.739,-273.87"/>
</g>
<!-- Node20&#45;&gt;Node7 -->
<g id="edge52" class="edge"><title>Node20&#45;&gt;Node7</title>
<path fill="none" stroke="midnightblue" d="M310.67,-304.492C322.031,-287.311 346.679,-253.021 375,-232 393.987,-217.907 417.862,-206.905 438.24,-199.1"/>
<polygon fill="midnightblue" stroke="midnightblue" points="439.458,-202.381 447.625,-195.633 437.032,-195.815 439.458,-202.381"/>
</g>
<!-- Node20&#45;&gt;Node19 -->
<g id="edge56" class="edge"><title>Node20&#45;&gt;Node19</title>
<path fill="none" stroke="midnightblue" d="M345.209,-325.562C378.535,-334.836 425.864,-348.581 463.775,-359.939"/>
<polygon fill="midnightblue" stroke="midnightblue" points="463.111,-363.394 473.695,-362.922 465.127,-356.691 463.111,-363.394"/>
</g>
<!-- Node21&#45;&gt;Node2 -->
<g id="edge64" class="edge"><title>Node21&#45;&gt;Node2</title>
<path fill="none" stroke="midnightblue" d="M1110.65,-243.407C1076.31,-239.731 1032.25,-235.254 993,-232 744.008,-211.358 672.894,-262.279 432,-196 411.302,-190.305 409.497,-180.38 389,-174 274.818,-138.458 238.308,-155.757 116.805,-138.193"/>
<polygon fill="midnightblue" stroke="midnightblue" points="117.152,-134.706 106.744,-136.688 116.116,-141.629 117.152,-134.706"/>
</g>
<!-- Node21&#45;&gt;Node7 -->
<g id="edge82" class="edge"><title>Node21&#45;&gt;Node7</title>
<path fill="none" stroke="midnightblue" d="M1110.61,-243.816C1076.26,-240.275 1032.2,-235.796 993,-232 824.793,-215.712 625.299,-197.757 533.237,-189.548"/>
<polygon fill="midnightblue" stroke="midnightblue" points="533.351,-186.044 523.079,-188.643 532.729,-193.017 533.351,-186.044"/>
</g>
<!-- Node22 -->
<g id="node53" class="node"><title>Node22</title>
<polygon fill="white" stroke="#bfbfbf" points="998,-174.5 998,-195.5 1054,-195.5 1054,-174.5 998,-174.5"/>
<text text-anchor="middle" x="1026" y="-182.5" font-family="Helvetica,sans-Serif" font-size="10.00">algorithm</text>
</g>
<!-- Node21&#45;&gt;Node22 -->
<g id="edge62" class="edge"><title>Node21&#45;&gt;Node22</title>
<path fill="none" stroke="midnightblue" d="M1146.54,-239.412C1122.69,-228.647 1085.55,-211.878 1058.79,-199.801"/>
<polygon fill="midnightblue" stroke="midnightblue" points="1060,-196.508 1049.45,-195.584 1057.12,-202.888 1060,-196.508"/>
</g>
<!-- Node23 -->
<g id="node56" class="node"><title>Node23</title>
<a xlink:href="../../d8/dcd/exp_8h.html" target="_top" xlink:title="blond/exp.h">
<polygon fill="white" stroke="black" points="1427.5,-174.5 1427.5,-195.5 1494.5,-195.5 1494.5,-174.5 1427.5,-174.5"/>
<text text-anchor="middle" x="1461" y="-182.5" font-family="Helvetica,sans-Serif" font-size="10.00">blond/exp.h</text>
</a>
</g>
<!-- Node21&#45;&gt;Node23 -->
<g id="edge66" class="edge"><title>Node21&#45;&gt;Node23</title>
<path fill="none" stroke="midnightblue" d="M1221.65,-239.468C1269.94,-229.47 1344.3,-213.692 1417.29,-196.354"/>
<polygon fill="midnightblue" stroke="midnightblue" points="1418.19,-199.736 1427.11,-194.01 1416.57,-192.927 1418.19,-199.736"/>
</g>
<!-- Node25 -->
<g id="node60" class="node"><title>Node25</title>
<polygon fill="white" stroke="#bfbfbf" points="1417,-0.5 1417,-21.5 1461,-21.5 1461,-0.5 1417,-0.5"/>
<text text-anchor="middle" x="1439" y="-8.5" font-family="Helvetica,sans-Serif" font-size="10.00">cmath</text>
</g>
<!-- Node21&#45;&gt;Node25 -->
<g id="edge84" class="edge"><title>Node21&#45;&gt;Node25</title>
<path fill="none" stroke="midnightblue" d="M1229.32,-244.531C1320.26,-235.541 1485.49,-216.574 1503,-196 1519.69,-176.386 1578.99,-217.205 1498,-58 1491.52,-45.2572 1479.83,-34.8352 1468.56,-27.0722"/>
<polygon fill="midnightblue" stroke="midnightblue" points="1470.43,-24.1094 1460.12,-21.6596 1466.65,-30.0027 1470.43,-24.1094"/>
</g>
<!-- Node26 -->
<g id="node62" class="node"><title>Node26</title>
<polygon fill="white" stroke="#bfbfbf" points="1393,-116.5 1393,-137.5 1433,-137.5 1433,-116.5 1393,-116.5"/>
<text text-anchor="middle" x="1413" y="-124.5" font-family="Helvetica,sans-Serif" font-size="10.00">limits</text>
</g>
<!-- Node21&#45;&gt;Node26 -->
<g id="edge88" class="edge"><title>Node21&#45;&gt;Node26</title>
<path fill="none" stroke="midnightblue" d="M1177.99,-239.427C1191.03,-222.935 1218.5,-191.197 1249,-174 1300.45,-144.995 1322.69,-155.82 1383.18,-137.947"/>
<polygon fill="midnightblue" stroke="midnightblue" points="1384.3,-141.266 1392.81,-134.959 1382.22,-134.58 1384.3,-141.266"/>
</g>
<!-- Node27 -->
<g id="node64" class="node"><title>Node27</title>
<a xlink:href="../../d1/d3d/sin_8h.html" target="_top" xlink:title="blond/sin.h">
<polygon fill="white" stroke="black" points="1138,-174.5 1138,-195.5 1202,-195.5 1202,-174.5 1138,-174.5"/>
<text text-anchor="middle" x="1170" y="-182.5" font-family="Helvetica,sans-Serif" font-size="10.00">blond/sin.h</text>
</a>
</g>
<!-- Node21&#45;&gt;Node27 -->
<g id="edge74" class="edge"><title>Node21&#45;&gt;Node27</title>
<path fill="none" stroke="midnightblue" d="M1170,-239.267C1170,-230.18 1170,-216.892 1170,-205.74"/>
<polygon fill="midnightblue" stroke="midnightblue" points="1173.5,-205.534 1170,-195.534 1166.5,-205.534 1173.5,-205.534"/>
</g>
<!-- Node29 -->
<g id="node72" class="node"><title>Node29</title>
<polygon fill="white" stroke="#bfbfbf" points="1257.5,-174.5 1257.5,-195.5 1306.5,-195.5 1306.5,-174.5 1257.5,-174.5"/>
<text text-anchor="middle" x="1282" y="-182.5" font-family="Helvetica,sans-Serif" font-size="10.00">random</text>
</g>
<!-- Node21&#45;&gt;Node29 -->
<g id="edge86" class="edge"><title>Node21&#45;&gt;Node29</title>
<path fill="none" stroke="midnightblue" d="M1188.49,-239.267C1206.6,-228.76 1234.38,-212.637 1254.96,-200.692"/>
<polygon fill="midnightblue" stroke="midnightblue" points="1256.96,-203.58 1263.85,-195.534 1253.44,-197.526 1256.96,-203.58"/>
</g>
<!-- Node30 -->
<g id="node75" class="node"><title>Node30</title>
<polygon fill="white" stroke="#bfbfbf" points="1071.5,-174.5 1071.5,-195.5 1120.5,-195.5 1120.5,-174.5 1071.5,-174.5"/>
<text text-anchor="middle" x="1096" y="-182.5" font-family="Helvetica,sans-Serif" font-size="10.00">cassert</text>
</g>
<!-- Node21&#45;&gt;Node30 -->
<g id="edge90" class="edge"><title>Node21&#45;&gt;Node30</title>
<path fill="none" stroke="midnightblue" d="M1157.78,-239.267C1146.36,-229.233 1129.1,-214.078 1115.73,-202.331"/>
<polygon fill="midnightblue" stroke="midnightblue" points="1117.82,-199.504 1107.99,-195.534 1113.2,-204.763 1117.82,-199.504"/>
</g>
<!-- Node31 -->
<g id="node77" class="node"><title>Node31</title>
<a xlink:href="../../d1/db0/openmp_8h.html" target="_top" xlink:title="blond/openmp.h">
<polygon fill="white" stroke="black" points="1324,-174.5 1324,-195.5 1410,-195.5 1410,-174.5 1324,-174.5"/>
<text text-anchor="middle" x="1367" y="-182.5" font-family="Helvetica,sans-Serif" font-size="10.00">blond/openmp.h</text>
</a>
</g>
<!-- Node21&#45;&gt;Node31 -->
<g id="edge92" class="edge"><title>Node21&#45;&gt;Node31</title>
<path fill="none" stroke="midnightblue" d="M1202.09,-239.412C1235.58,-228.364 1288.23,-210.991 1325,-198.857"/>
<polygon fill="midnightblue" stroke="midnightblue" points="1326.52,-202.041 1334.92,-195.584 1324.33,-195.393 1326.52,-202.041"/>
</g>
<!-- Node24 -->
<g id="node58" class="node"><title>Node24</title>
<a xlink:href="../../df/de1/vdtcore__common_8h.html" target="_top" xlink:title="vdtcore_common.h">
<polygon fill="white" stroke="black" points="1389,-58.5 1389,-79.5 1489,-79.5 1489,-58.5 1389,-58.5"/>
<text text-anchor="middle" x="1439" y="-66.5" font-family="Helvetica,sans-Serif" font-size="10.00">vdtcore_common.h</text>
</a>
</g>
<!-- Node23&#45;&gt;Node24 -->
<g id="edge68" class="edge"><title>Node23&#45;&gt;Node24</title>
<path fill="none" stroke="midnightblue" d="M1458.97,-174.295C1455.32,-155.045 1447.59,-114.289 1442.89,-89.5091"/>
<polygon fill="midnightblue" stroke="midnightblue" points="1446.33,-88.8519 1441.03,-79.6792 1439.45,-90.1563 1446.33,-88.8519"/>
</g>
<!-- Node23&#45;&gt;Node26 -->
<g id="edge72" class="edge"><title>Node23&#45;&gt;Node26</title>
<path fill="none" stroke="midnightblue" d="M1452.2,-174.362C1445.5,-166.268 1436.12,-154.932 1428.21,-145.38"/>
<polygon fill="midnightblue" stroke="midnightblue" points="1430.82,-143.043 1421.75,-137.571 1425.43,-147.506 1430.82,-143.043"/>
</g>
<!-- Node24&#45;&gt;Node25 -->
<g id="edge70" class="edge"><title>Node24&#45;&gt;Node25</title>
<path fill="none" stroke="midnightblue" d="M1439,-58.3619C1439,-50.9219 1439,-40.7427 1439,-31.7276"/>
<polygon fill="midnightblue" stroke="midnightblue" points="1442.5,-31.5706 1439,-21.5707 1435.5,-31.5707 1442.5,-31.5706"/>
</g>
<!-- Node28 -->
<g id="node66" class="node"><title>Node28</title>
<a xlink:href="../../dc/dfa/sincos_8h.html" target="_top" xlink:title="sincos.h">
<polygon fill="white" stroke="black" points="1322.5,-116.5 1322.5,-137.5 1375.5,-137.5 1375.5,-116.5 1322.5,-116.5"/>
<text text-anchor="middle" x="1349" y="-124.5" font-family="Helvetica,sans-Serif" font-size="10.00">sincos.h</text>
</a>
</g>
<!-- Node27&#45;&gt;Node28 -->
<g id="edge76" class="edge"><title>Node27&#45;&gt;Node28</title>
<path fill="none" stroke="midnightblue" d="M1202,-174.631C1233.08,-164.561 1280.19,-149.295 1312.66,-138.774"/>
<polygon fill="midnightblue" stroke="midnightblue" points="1313.8,-142.084 1322.24,-135.672 1311.64,-135.425 1313.8,-142.084"/>
</g>
<!-- Node28&#45;&gt;Node24 -->
<g id="edge78" class="edge"><title>Node28&#45;&gt;Node24</title>
<path fill="none" stroke="midnightblue" d="M1365.51,-116.362C1379.08,-107.614 1398.53,-95.0786 1414.01,-85.1015"/>
<polygon fill="midnightblue" stroke="midnightblue" points="1416.09,-87.9297 1422.6,-79.5707 1412.3,-82.0457 1416.09,-87.9297"/>
</g>
<!-- Node28&#45;&gt;Node25 -->
<g id="edge80" class="edge"><title>Node28&#45;&gt;Node25</title>
<path fill="none" stroke="midnightblue" d="M1352.04,-116.345C1356.49,-102.024 1365.83,-76.2567 1380,-58 1389.22,-46.1301 1402.02,-35.4581 1413.35,-27.295"/>
<polygon fill="midnightblue" stroke="midnightblue" points="1415.41,-30.1292 1421.64,-21.5634 1411.43,-24.3712 1415.41,-30.1292"/>
</g>
<!-- Node32&#45;&gt;Node2 -->
<g id="edge96" class="edge"><title>Node32&#45;&gt;Node2</title>
<path fill="none" stroke="midnightblue" d="M554.512,-304.32C557.925,-286.892 561.741,-252.255 544,-232 497.402,-178.799 454.769,-222.003 389,-196 370.852,-188.825 369.41,-180.473 351,-174 253.934,-139.873 221.641,-154.32 116.791,-138.219"/>
<polygon fill="midnightblue" stroke="midnightblue" points="117.181,-134.737 106.755,-136.619 116.079,-141.65 117.181,-134.737"/>
</g>
<!-- Node33&#45;&gt;Node4 -->
<g id="edge108" class="edge"><title>Node33&#45;&gt;Node4</title>
<path fill="none" stroke="midnightblue" d="M940.913,-239.471C959.834,-215.774 1000.21,-157.113 974,-116 958.964,-92.4193 928.69,-80.4821 905.189,-74.5583"/>
<polygon fill="midnightblue" stroke="midnightblue" points="905.799,-71.1078 895.272,-72.3053 904.248,-77.9339 905.799,-71.1078"/>
</g>
<!-- Node33&#45;&gt;Node12 -->
<g id="edge110" class="edge"><title>Node33&#45;&gt;Node12</title>
<path fill="none" stroke="midnightblue" d="M929.604,-239.085C925.109,-218.609 915.346,-174.133 909.561,-147.778"/>
<polygon fill="midnightblue" stroke="midnightblue" points="912.915,-146.732 907.352,-137.715 906.078,-148.233 912.915,-146.732"/>
</g>
<!-- Node33&#45;&gt;Node13 -->
<g id="edge112" class="edge"><title>Node33&#45;&gt;Node13</title>
<path fill="none" stroke="midnightblue" d="M923.569,-239.085C907.332,-218.061 871.55,-171.733 851.443,-145.7"/>
<polygon fill="midnightblue" stroke="midnightblue" points="854.159,-143.49 845.276,-137.715 848.619,-147.769 854.159,-143.49"/>
</g>
<!-- Node33&#45;&gt;Node22 -->
<g id="edge102" class="edge"><title>Node33&#45;&gt;Node22</title>
<path fill="none" stroke="midnightblue" d="M947.522,-239.267C962.442,-228.949 985.195,-213.216 1002.37,-201.342"/>
<polygon fill="midnightblue" stroke="midnightblue" points="1004.53,-204.1 1010.77,-195.534 1000.55,-198.343 1004.53,-204.1"/>
</g>
<!-- Node33&#45;&gt;Node30 -->
<g id="edge106" class="edge"><title>Node33&#45;&gt;Node30</title>
<path fill="none" stroke="midnightblue" d="M958.714,-239.412C986.888,-228.246 1031.36,-210.619 1062.01,-198.47"/>
<polygon fill="midnightblue" stroke="midnightblue" points="1063.44,-201.672 1071.44,-194.733 1060.86,-195.164 1063.44,-201.672"/>
</g>
<!-- Node34 -->
<g id="node86" class="node"><title>Node34</title>
<polygon fill="white" stroke="#bfbfbf" points="283.5,-174.5 283.5,-195.5 342.5,-195.5 342.5,-174.5 283.5,-174.5"/>
<text text-anchor="middle" x="313" y="-182.5" font-family="Helvetica,sans-Serif" font-size="10.00">functional</text>
</g>
<!-- Node33&#45;&gt;Node34 -->
<g id="edge104" class="edge"><title>Node33&#45;&gt;Node34</title>
<path fill="none" stroke="midnightblue" d="M879.372,-245.13C783.675,-236.172 574.798,-216.145 399,-196 383.958,-194.276 367.46,-192.209 352.972,-190.334"/>
<polygon fill="midnightblue" stroke="midnightblue" points="353.196,-186.834 342.827,-189.011 352.29,-193.775 353.196,-186.834"/>
</g>
<!-- Node35&#45;&gt;Node2 -->
<g id="edge118" class="edge"><title>Node35&#45;&gt;Node2</title>
<path fill="none" stroke="midnightblue" d="M339.568,-434.482C297.731,-409.883 194.179,-344.824 129,-268 112.044,-248.014 78.8526,-181.013 62.5283,-147.07"/>
<polygon fill="midnightblue" stroke="midnightblue" points="65.5124,-145.198 58.0403,-137.686 59.1974,-148.218 65.5124,-145.198"/>
</g>
<!-- Node35&#45;&gt;Node7 -->
<g id="edge120" class="edge"><title>Node35&#45;&gt;Node7</title>
<path fill="none" stroke="midnightblue" d="M360.841,-434.192C363.322,-424.678 366.988,-410.441 370,-398 387.808,-324.439 364.333,-293.819 408,-232 417.58,-218.438 432.435,-207.899 446.329,-200.27"/>
<polygon fill="midnightblue" stroke="midnightblue" points="447.966,-203.363 455.255,-195.674 444.762,-197.14 447.966,-203.363"/>
</g>
<!-- Node35&#45;&gt;Node19 -->
<g id="edge122" class="edge"><title>Node35&#45;&gt;Node19</title>
<path fill="none" stroke="midnightblue" d="M385.366,-434.412C408.839,-425.33 443.357,-411.975 472.32,-400.769"/>
<polygon fill="midnightblue" stroke="midnightblue" points="473.842,-403.933 481.905,-397.06 471.316,-397.405 473.842,-403.933"/>
</g>
<!-- Node36 -->
<g id="node98" class="node"><title>Node36</title>
<polygon fill="white" stroke="#bfbfbf" points="326.5,-369.5 326.5,-390.5 361.5,-390.5 361.5,-369.5 326.5,-369.5"/>
<text text-anchor="middle" x="344" y="-377.5" font-family="Helvetica,sans-Serif" font-size="10.00">map</text>
</g>
<!-- Node35&#45;&gt;Node36 -->
<g id="edge124" class="edge"><title>Node35&#45;&gt;Node36</title>
<path fill="none" stroke="midnightblue" d="M355.688,-434.267C353.711,-425.085 350.809,-411.615 348.392,-400.392"/>
<polygon fill="midnightblue" stroke="midnightblue" points="351.796,-399.573 346.269,-390.534 344.953,-401.046 351.796,-399.573"/>
</g>
<!-- Node37&#45;&gt;Node2 -->
<g id="edge128" class="edge"><title>Node37&#45;&gt;Node2</title>
<path fill="none" stroke="midnightblue" d="M215.473,-239.298C202.451,-223.473 176.236,-193.595 149,-174 130.785,-160.895 108.358,-149.684 89.7633,-141.502"/>
<polygon fill="midnightblue" stroke="midnightblue" points="91.0015,-138.225 80.4311,-137.505 88.2455,-144.659 91.0015,-138.225"/>
</g>
<!-- Node37&#45;&gt;Node7 -->
<g id="edge130" class="edge"><title>Node37&#45;&gt;Node7</title>
<path fill="none" stroke="midnightblue" d="M265.739,-239.484C310.742,-228.146 382.419,-210.088 430.796,-197.9"/>
<polygon fill="midnightblue" stroke="midnightblue" points="431.906,-201.23 440.748,-195.393 430.196,-194.442 431.906,-201.23"/>
</g>
<!-- Node37&#45;&gt;Node34 -->
<g id="edge132" class="edge"><title>Node37&#45;&gt;Node34</title>
<path fill="none" stroke="midnightblue" d="M238.697,-239.267C252.694,-229.044 273.971,-213.504 290.175,-201.67"/>
<polygon fill="midnightblue" stroke="midnightblue" points="292.566,-204.258 298.577,-195.534 288.437,-198.605 292.566,-204.258"/>
</g>
<!-- Node38&#45;&gt;Node2 -->
<g id="edge136" class="edge"><title>Node38&#45;&gt;Node2</title>
<path fill="none" stroke="midnightblue" d="M177.38,-550.401C129.972,-535.53 59,-503.499 59,-445 59,-445 59,-445 59,-250 59,-214.01 56.4056,-172.166 54.6288,-147.73"/>
<polygon fill="midnightblue" stroke="midnightblue" points="58.1012,-147.23 53.8597,-137.522 51.1209,-147.756 58.1012,-147.23"/>
</g>
<!-- Node38&#45;&gt;Node5 -->
<g id="edge138" class="edge"><title>Node38&#45;&gt;Node5</title>
<path fill="none" stroke="midnightblue" d="M239.463,-550.497C257.033,-541.479 282.582,-528.365 302.385,-518.201"/>
<polygon fill="midnightblue" stroke="midnightblue" points="304.009,-521.301 311.307,-513.621 300.812,-515.074 304.009,-521.301"/>
</g>
<!-- Node38&#45;&gt;Node7 -->
<g id="edge140" class="edge"><title>Node38&#45;&gt;Node7</title>
<path fill="none" stroke="midnightblue" d="M219,-550.444C219,-530.062 219,-483.868 219,-445 219,-445 219,-445 219,-380 219,-345.183 217.707,-332.292 238,-304 255.245,-279.957 270.373,-285.811 294,-268 313.364,-253.403 313.896,-243.944 335,-232 364.828,-215.119 401.55,-203.373 430.829,-195.845"/>
<polygon fill="midnightblue" stroke="midnightblue" points="431.989,-199.164 440.852,-193.357 430.303,-192.37 431.989,-199.164"/>
</g>
</g>
</svg>
        <g id="navigator" transform="translate(0 0)" fill="#404254">
                <rect fill="#f2f5e9" fill-opacity="0.5" stroke="#606060" stroke-width=".5" x="0" y="0" width="60" height="60"/>
                <use id="zoomplus" xlink:href="#zoomPlus" x="17" y="9" onmousedown="handleZoom(evt,'in')"/>
                <use id="zoomminus" xlink:href="#zoomMin" x="42" y="9" onmousedown="handleZoom(evt,'out')"/>
                <use id="reset" xlink:href="#resetDef" x="30" y="36" onmousedown="handleReset()"/>
                <g id="arrowUp" xlink:href="#dirArrow" transform="translate(30 24)" onmousedown="handlePan(0,-1)">
                  <use xlink:href="#rim" fill="#404040">
                        <set attributeName="fill" to="#808080" begin="arrowUp.mouseover" end="arrowUp.mouseout"/>
                  </use>
                  <path fill="none" stroke="white" stroke-width="1.5" d="M0,-3.0v7 M-2.5,-0.5L0,-3.0L2.5,-0.5"/>
                </g>
                <g id="arrowRight" xlink:href="#dirArrow" transform="rotate(90) translate(36 -43)" onmousedown="handlePan(1,0)">
                  <use xlink:href="#rim" fill="#404040">
                        <set attributeName="fill" to="#808080" begin="arrowRight.mouseover" end="arrowRight.mouseout"/>
                  </use>
                  <path fill="none" stroke="white" stroke-width="1.5" d="M0,-3.0v7 M-2.5,-0.5L0,-3.0L2.5,-0.5"/>
                </g>
                <g id="arrowDown" xlink:href="#dirArrow" transform="rotate(180) translate(-30 -48)" onmousedown="handlePan(0,1)">
                  <use xlink:href="#rim" fill="#404040">
                        <set attributeName="fill" to="#808080" begin="arrowDown.mouseover" end="arrowDown.mouseout"/>
                  </use>
                  <path fill="none" stroke="white" stroke-width="1.5" d="M0,-3.0v7 M-2.5,-0.5L0,-3.0L2.5,-0.5"/>
                </g>
                <g id="arrowLeft" xlink:href="#dirArrow" transform="rotate(270) translate(-36 17)" onmousedown="handlePan(-1,0)">
                  <use xlink:href="#rim" fill="#404040">
                        <set attributeName="fill" to="#808080" begin="arrowLeft.mouseover" end="arrowLeft.mouseout"/>
                  </use>
                  <path fill="none" stroke="white" stroke-width="1.5" d="M0,-3.0v7 M-2.5,-0.5L0,-3.0L2.5,-0.5"/>
                </g>
        </g>
        <svg viewBox="0 0 15 15" width="100%" height="30px" preserveAspectRatio="xMaxYMin meet">
         <g id="arrow_out" transform="scale(0.3 0.3)">
          <a xlink:href="PhaseLoop_8h__incl_org.svg" target="_base">
           <rect id="button" ry="5" rx="5" y="6" x="6" height="38" width="38"
                fill="#f2f5e9" fill-opacity="0.5" stroke="#606060" stroke-width="1.0"/>
           <path id="arrow"
             d="M 11.500037,31.436501 C 11.940474,20.09759 22.043105,11.32322 32.158766,21.979434 L 37.068811,17.246167 C 37.068811,17.246167 37.088388,32 37.088388,32 L 22.160133,31.978069 C 22.160133,31.978069 26.997745,27.140456 26.997745,27.140456 C 18.528582,18.264221 13.291696,25.230495 11.500037,31.436501 z"
             style="fill:#404040;"/>
          </a>
         </g>
        </svg>
</svg>
