<?xml version="1.0" encoding="UTF-8" standalone="no"?>
<!DOCTYPE svg PUBLIC "-//W3C//DTD SVG 1.1//EN"
 "http://www.w3.org/Graphics/SVG/1.1/DTD/svg11.dtd">
<!-- Generated by graphviz version 2.26.3 (20100126.1600)
 -->
<!-- Title: PhaseLoop.h Pages: 1 -->
<svg width="1355pt" height="638pt"
 viewBox="0.00 0.00 1354.52 638.00" xmlns="http://www.w3.org/2000/svg" xmlns:xlink="http://www.w3.org/1999/xlink">
<g id="graph1" class="graph" transform="scale(1 1) rotate(0) translate(4 634)">
<title>PhaseLoop.h</title>
<polygon fill="white" stroke="white" points="-4,5 -4,-634 1351.52,-634 1351.52,5 -4,5"/>
<!-- Node1 -->
<g id="node1" class="node"><title>Node1</title>
<polygon fill="#bfbfbf" stroke="black" points="961.52,-608.5 961.52,-629.5 1035.52,-629.5 1035.52,-608.5 961.52,-608.5"/>
<text text-anchor="middle" x="998.52" y="-616.5" font-family="Helvetica,sans-Serif" font-size="10.00">PhaseLoop.h</text>
</g>
<!-- Node2 -->
<g id="node3" class="node"><title>Node2</title>
<a xlink:href="../../d2/d2c/configuration_8h.html" target="_top" xlink:title="blond/configuration.h">
<polygon fill="white" stroke="black" points="1058.02,-116.5 1058.02,-137.5 1165.02,-137.5 1165.02,-116.5 1058.02,-116.5"/>
<text text-anchor="middle" x="1111.52" y="-124.5" font-family="Helvetica,sans-Serif" font-size="10.00">blond/configuration.h</text>
</a>
</g>
<!-- Node1&#45;&gt;Node2 -->
<g id="edge2" class="edge"><title>Node1&#45;&gt;Node2</title>
<path fill="none" stroke="midnightblue" d="M1035.76,-614.626C1125.54,-603.051 1346.52,-567.958 1346.52,-503 1346.52,-503 1346.52,-503 1346.52,-250 1346.52,-210.745 1333.02,-197.422 1301.52,-174 1281.54,-159.141 1222.15,-145.89 1175.03,-137.276"/>
<polygon fill="midnightblue" stroke="midnightblue" points="1175.64,-133.83 1165.18,-135.51 1174.41,-140.72 1175.64,-133.83"/>
</g>
<!-- Node5 -->
<g id="node9" class="node"><title>Node5</title>
<a xlink:href="../../d5/d87/globals_8h.html" target="_top" xlink:title="blond/globals.h">
<polygon fill="white" stroke="black" points="870.52,-492.5 870.52,-513.5 952.52,-513.5 952.52,-492.5 870.52,-492.5"/>
<text text-anchor="middle" x="911.52" y="-500.5" font-family="Helvetica,sans-Serif" font-size="10.00">blond/globals.h</text>
</a>
</g>
<!-- Node1&#45;&gt;Node5 -->
<g id="edge8" class="edge"><title>Node1&#45;&gt;Node5</title>
<path fill="none" stroke="midnightblue" d="M997.822,-608.221C996.412,-593.758 992.179,-567.831 979.52,-550 970.272,-536.974 956.21,-526.39 943.269,-518.587"/>
<polygon fill="midnightblue" stroke="midnightblue" points="944.984,-515.536 934.562,-513.633 941.523,-521.62 944.984,-515.536"/>
</g>
<!-- Node7 -->
<g id="node14" class="node"><title>Node7</title>
<a xlink:href="../../de/df0/utilities_8h.html" target="_top" xlink:title="blond/utilities.h">
<polygon fill="white" stroke="black" points="668.52,-174.5 668.52,-195.5 750.52,-195.5 750.52,-174.5 668.52,-174.5"/>
<text text-anchor="middle" x="709.52" y="-182.5" font-family="Helvetica,sans-Serif" font-size="10.00">blond/utilities.h</text>
</a>
</g>
<!-- Node1&#45;&gt;Node7 -->
<g id="edge128" class="edge"><title>Node1&#45;&gt;Node7</title>
<path fill="none" stroke="midnightblue" d="M961.265,-616.09C862.686,-607.373 602.52,-577.325 602.52,-503 602.52,-503 602.52,-503 602.52,-315 602.52,-264.501 651.248,-222.957 682.937,-201.278"/>
<polygon fill="midnightblue" stroke="midnightblue" points="684.96,-204.137 691.369,-195.7 681.097,-198.299 684.96,-204.137"/>
</g>
<!-- Node35 -->
<g id="node91" class="node"><title>Node35</title>
<a xlink:href="../../d4/dba/LHCNoiseFB_8h.html" target="_top" xlink:title="blond/llrf/LHCNoiseFB.h">
<polygon fill="white" stroke="black" points="1196.02,-239.5 1196.02,-260.5 1319.02,-260.5 1319.02,-239.5 1196.02,-239.5"/>
<text text-anchor="middle" x="1257.52" y="-247.5" font-family="Helvetica,sans-Serif" font-size="10.00">blond/llrf/LHCNoiseFB.h</text>
</a>
</g>
<!-- Node1&#45;&gt;Node35 -->
<g id="edge112" class="edge"><title>Node1&#45;&gt;Node35</title>
<path fill="none" stroke="midnightblue" d="M1035.6,-608.888C1101.58,-589.788 1232.52,-546.416 1232.52,-503 1232.52,-503 1232.52,-503 1232.52,-380 1232.52,-340.584 1243.74,-295.636 1251.15,-270.258"/>
<polygon fill="midnightblue" stroke="midnightblue" points="1254.51,-271.237 1254.04,-260.652 1247.8,-269.216 1254.51,-271.237"/>
</g>
<!-- Node37 -->
<g id="node97" class="node"><title>Node37</title>
<a xlink:href="../../d9/dc8/PhaseNoise_8h.html" target="_top" xlink:title="blond/llrf/PhaseNoise.h">
<polygon fill="white" stroke="black" points="852.52,-550.5 852.52,-571.5 970.52,-571.5 970.52,-550.5 852.52,-550.5"/>
<text text-anchor="middle" x="911.52" y="-558.5" font-family="Helvetica,sans-Serif" font-size="10.00">blond/llrf/PhaseNoise.h</text>
</a>
</g>
<!-- Node1&#45;&gt;Node37 -->
<g id="edge120" class="edge"><title>Node1&#45;&gt;Node37</title>
<path fill="none" stroke="midnightblue" d="M982.562,-608.362C969.563,-599.696 950.988,-587.313 936.092,-577.382"/>
<polygon fill="midnightblue" stroke="midnightblue" points="937.638,-574.206 927.376,-571.571 933.755,-580.03 937.638,-574.206"/>
</g>
<!-- Node3 -->
<g id="node5" class="node"><title>Node3</title>
<polygon fill="white" stroke="#bfbfbf" points="1085.02,-58.5 1085.02,-79.5 1138.02,-79.5 1138.02,-58.5 1085.02,-58.5"/>
<text text-anchor="middle" x="1111.52" y="-66.5" font-family="Helvetica,sans-Serif" font-size="10.00">complex</text>
</g>
<!-- Node2&#45;&gt;Node3 -->
<g id="edge4" class="edge"><title>Node2&#45;&gt;Node3</title>
<path fill="none" stroke="midnightblue" d="M1111.52,-116.362C1111.52,-108.922 1111.52,-98.7427 1111.52,-89.7276"/>
<polygon fill="midnightblue" stroke="midnightblue" points="1115.02,-89.5706 1111.52,-79.5707 1108.02,-89.5707 1115.02,-89.5706"/>
</g>
<!-- Node4 -->
<g id="node7" class="node"><title>Node4</title>
<polygon fill="white" stroke="#bfbfbf" points="1008.52,-58.5 1008.52,-79.5 1052.52,-79.5 1052.52,-58.5 1008.52,-58.5"/>
<text text-anchor="middle" x="1030.52" y="-66.5" font-family="Helvetica,sans-Serif" font-size="10.00">vector</text>
</g>
<!-- Node2&#45;&gt;Node4 -->
<g id="edge6" class="edge"><title>Node2&#45;&gt;Node4</title>
<path fill="none" stroke="midnightblue" d="M1096.66,-116.362C1084.67,-107.777 1067.59,-95.5459 1053.79,-85.6636"/>
<polygon fill="midnightblue" stroke="midnightblue" points="1055.45,-82.5469 1045.28,-79.5707 1051.37,-88.2383 1055.45,-82.5469"/>
</g>
<!-- Node6 -->
<g id="node11" class="node"><title>Node6</title>
<a xlink:href="../../d5/d34/GeneralParameters_8h.html" target="_top" xlink:title="blond/input_parameters\l/GeneralParameters.h">
<polygon fill="white" stroke="black" points="921.52,-233 921.52,-267 1039.52,-267 1039.52,-233 921.52,-233"/>
<text text-anchor="start" x="929.52" y="-254" font-family="Helvetica,sans-Serif" font-size="10.00">blond/input_parameters</text>
<text text-anchor="middle" x="980.52" y="-241" font-family="Helvetica,sans-Serif" font-size="10.00">/GeneralParameters.h</text>
</a>
</g>
<!-- Node5&#45;&gt;Node6 -->
<g id="edge10" class="edge"><title>Node5&#45;&gt;Node6</title>
<path fill="none" stroke="midnightblue" d="M921.395,-492.422C937.29,-474.593 967.94,-436.7 979.52,-398 991.655,-357.44 988.584,-307.782 984.853,-277.54"/>
<polygon fill="midnightblue" stroke="midnightblue" points="988.281,-276.771 983.476,-267.329 981.344,-277.707 988.281,-276.771"/>
</g>
<!-- Node19 -->
<g id="node41" class="node"><title>Node19</title>
<a xlink:href="../../d6/db7/RfParameters_8h.html" target="_top" xlink:title="blond/input_parameters\l/RfParameters.h">
<polygon fill="white" stroke="black" points="852.52,-363 852.52,-397 970.52,-397 970.52,-363 852.52,-363"/>
<text text-anchor="start" x="860.52" y="-384" font-family="Helvetica,sans-Serif" font-size="10.00">blond/input_parameters</text>
<text text-anchor="middle" x="911.52" y="-371" font-family="Helvetica,sans-Serif" font-size="10.00">/RfParameters.h</text>
</a>
</g>
<!-- Node5&#45;&gt;Node19 -->
<g id="edge44" class="edge"><title>Node5&#45;&gt;Node19</title>
<path fill="none" stroke="midnightblue" d="M907.473,-492.085C904.567,-473.275 904.004,-434.21 905.783,-407.547"/>
<polygon fill="midnightblue" stroke="midnightblue" points="909.293,-407.578 906.652,-397.317 902.318,-406.985 909.293,-407.578"/>
</g>
<!-- Node20 -->
<g id="node43" class="node"><title>Node20</title>
<a xlink:href="../../d7/d74/Beams_8h.html" target="_top" xlink:title="blond/beams/Beams.h">
<polygon fill="white" stroke="black" points="800.52,-304.5 800.52,-325.5 914.52,-325.5 914.52,-304.5 800.52,-304.5"/>
<text text-anchor="middle" x="857.52" y="-312.5" font-family="Helvetica,sans-Serif" font-size="10.00">blond/beams/Beams.h</text>
</a>
</g>
<!-- Node5&#45;&gt;Node20 -->
<g id="edge100" class="edge"><title>Node5&#45;&gt;Node20</title>
<path fill="none" stroke="midnightblue" d="M870.185,-497.382C826.082,-489.945 760.987,-475.468 746.52,-456 712.956,-410.834 782.221,-356.754 825.922,-330.638"/>
<polygon fill="midnightblue" stroke="midnightblue" points="827.904,-333.535 834.813,-325.503 824.403,-327.474 827.904,-333.535"/>
</g>
<!-- Node33 -->
<g id="node84" class="node"><title>Node33</title>
<a xlink:href="../../dc/df2/Slices_8h.html" target="_top" xlink:title="blond/beams/Slices.h">
<polygon fill="white" stroke="black" points="764.52,-434.5 764.52,-455.5 874.52,-455.5 874.52,-434.5 764.52,-434.5"/>
<text text-anchor="middle" x="819.52" y="-442.5" font-family="Helvetica,sans-Serif" font-size="10.00">blond/beams/Slices.h</text>
</a>
</g>
<!-- Node5&#45;&gt;Node33 -->
<g id="edge102" class="edge"><title>Node5&#45;&gt;Node33</title>
<path fill="none" stroke="midnightblue" d="M894.645,-492.362C880.769,-483.614 860.886,-471.079 845.06,-461.101"/>
<polygon fill="midnightblue" stroke="midnightblue" points="846.613,-457.943 836.287,-455.571 842.88,-463.864 846.613,-457.943"/>
</g>
<!-- Node6&#45;&gt;Node2 -->
<g id="edge12" class="edge"><title>Node6&#45;&gt;Node2</title>
<path fill="none" stroke="midnightblue" d="M998.735,-232.897C1023.48,-209.668 1067.49,-168.342 1092.59,-144.771"/>
<polygon fill="midnightblue" stroke="midnightblue" points="1095.14,-147.184 1100.03,-137.787 1090.34,-142.081 1095.14,-147.184"/>
</g>
<!-- Node6&#45;&gt;Node4 -->
<g id="edge42" class="edge"><title>Node6&#45;&gt;Node4</title>
<path fill="none" stroke="midnightblue" d="M985.223,-232.972C994.432,-199.635 1014.81,-125.869 1024.79,-89.747"/>
<polygon fill="midnightblue" stroke="midnightblue" points="1028.24,-90.4027 1027.53,-79.8317 1021.49,-88.5387 1028.24,-90.4027"/>
</g>
<!-- Node6&#45;&gt;Node7 -->
<g id="edge14" class="edge"><title>Node6&#45;&gt;Node7</title>
<path fill="none" stroke="midnightblue" d="M921.382,-235.816C873.457,-224.321 806.608,-208.287 760.896,-197.323"/>
<polygon fill="midnightblue" stroke="midnightblue" points="761.444,-193.855 750.904,-194.926 759.812,-200.662 761.444,-193.855"/>
</g>
<!-- Node7&#45;&gt;Node2 -->
<g id="edge38" class="edge"><title>Node7&#45;&gt;Node2</title>
<path fill="none" stroke="midnightblue" d="M750.651,-179.066C820.863,-168.936 964.314,-148.239 1047.65,-136.215"/>
<polygon fill="midnightblue" stroke="midnightblue" points="1048.36,-139.649 1057.76,-134.757 1047.36,-132.721 1048.36,-139.649"/>
</g>
<!-- Node7&#45;&gt;Node4 -->
<g id="edge34" class="edge"><title>Node7&#45;&gt;Node4</title>
<path fill="none" stroke="midnightblue" d="M750.594,-181.168C815.02,-174.584 936.327,-159.705 973.52,-138 993.635,-126.261 1009.74,-104.614 1019.63,-88.6856"/>
<polygon fill="midnightblue" stroke="midnightblue" points="1022.89,-90.0374 1024.96,-79.6468 1016.87,-86.4784 1022.89,-90.0374"/>
</g>
<!-- Node8 -->
<g id="node16" class="node"><title>Node8</title>
<polygon fill="white" stroke="#bfbfbf" points="394.52,-116.5 394.52,-137.5 440.52,-137.5 440.52,-116.5 394.52,-116.5"/>
<text text-anchor="middle" x="417.52" y="-124.5" font-family="Helvetica,sans-Serif" font-size="10.00">chrono</text>
</g>
<!-- Node7&#45;&gt;Node8 -->
<g id="edge16" class="edge"><title>Node7&#45;&gt;Node8</title>
<path fill="none" stroke="midnightblue" d="M668.12,-179.503C618.478,-172.477 532.68,-158.951 450.779,-138.051"/>
<polygon fill="midnightblue" stroke="midnightblue" points="451.371,-134.589 440.813,-135.466 449.614,-141.365 451.371,-134.589"/>
</g>
<!-- Node9 -->
<g id="node18" class="node"><title>Node9</title>
<polygon fill="white" stroke="#bfbfbf" points="458.02,-116.5 458.02,-137.5 501.02,-137.5 501.02,-116.5 458.02,-116.5"/>
<text text-anchor="middle" x="479.52" y="-124.5" font-family="Helvetica,sans-Serif" font-size="10.00">cstdio</text>
</g>
<!-- Node7&#45;&gt;Node9 -->
<g id="edge18" class="edge"><title>Node7&#45;&gt;Node9</title>
<path fill="none" stroke="midnightblue" d="M668.152,-176.802C629.585,-168.822 570.336,-155.704 510.959,-138.208"/>
<polygon fill="midnightblue" stroke="midnightblue" points="511.628,-134.755 501.045,-135.245 509.624,-141.462 511.628,-134.755"/>
</g>
<!-- Node10 -->
<g id="node20" class="node"><title>Node10</title>
<polygon fill="white" stroke="#bfbfbf" points="518.02,-116.5 518.02,-137.5 563.02,-137.5 563.02,-116.5 518.02,-116.5"/>
<text text-anchor="middle" x="540.52" y="-124.5" font-family="Helvetica,sans-Serif" font-size="10.00">cstdlib</text>
</g>
<!-- Node7&#45;&gt;Node10 -->
<g id="edge20" class="edge"><title>Node7&#45;&gt;Node10</title>
<path fill="none" stroke="midnightblue" d="M678.24,-174.473C652.268,-165.705 614.114,-152.759 572.882,-138.451"/>
<polygon fill="midnightblue" stroke="midnightblue" points="573.79,-135.061 563.195,-135.083 571.491,-141.673 573.79,-135.061"/>
</g>
<!-- Node11 -->
<g id="node22" class="node"><title>Node11</title>
<polygon fill="white" stroke="#bfbfbf" points="580.52,-116.5 580.52,-137.5 630.52,-137.5 630.52,-116.5 580.52,-116.5"/>
<text text-anchor="middle" x="605.52" y="-124.5" font-family="Helvetica,sans-Serif" font-size="10.00">fstream</text>
</g>
<!-- Node7&#45;&gt;Node11 -->
<g id="edge22" class="edge"><title>Node7&#45;&gt;Node11</title>
<path fill="none" stroke="midnightblue" d="M690.444,-174.362C674.465,-165.45 651.439,-152.609 633.393,-142.545"/>
<polygon fill="midnightblue" stroke="midnightblue" points="634.912,-139.385 624.474,-137.571 631.503,-145.498 634.912,-139.385"/>
</g>
<!-- Node12 -->
<g id="node24" class="node"><title>Node12</title>
<polygon fill="white" stroke="#bfbfbf" points="648.52,-116.5 648.52,-137.5 702.52,-137.5 702.52,-116.5 648.52,-116.5"/>
<text text-anchor="middle" x="675.52" y="-124.5" font-family="Helvetica,sans-Serif" font-size="10.00">iostream</text>
</g>
<!-- Node7&#45;&gt;Node12 -->
<g id="edge24" class="edge"><title>Node7&#45;&gt;Node12</title>
<path fill="none" stroke="midnightblue" d="M703.283,-174.362C698.682,-166.513 692.294,-155.616 686.806,-146.253"/>
<polygon fill="midnightblue" stroke="midnightblue" points="689.793,-144.428 681.716,-137.571 683.754,-147.968 689.793,-144.428"/>
</g>
<!-- Node13 -->
<g id="node26" class="node"><title>Node13</title>
<polygon fill="white" stroke="#bfbfbf" points="720.02,-116.5 720.02,-137.5 767.02,-137.5 767.02,-116.5 720.02,-116.5"/>
<text text-anchor="middle" x="743.52" y="-124.5" font-family="Helvetica,sans-Serif" font-size="10.00">iterator</text>
</g>
<!-- Node7&#45;&gt;Node13 -->
<g id="edge26" class="edge"><title>Node7&#45;&gt;Node13</title>
<path fill="none" stroke="midnightblue" d="M715.756,-174.362C720.357,-166.513 726.745,-155.616 732.234,-146.253"/>
<polygon fill="midnightblue" stroke="midnightblue" points="735.285,-147.968 737.323,-137.571 729.246,-144.428 735.285,-147.968"/>
</g>
<!-- Node14 -->
<g id="node28" class="node"><title>Node14</title>
<polygon fill="white" stroke="#bfbfbf" points="784.52,-116.5 784.52,-137.5 836.52,-137.5 836.52,-116.5 784.52,-116.5"/>
<text text-anchor="middle" x="810.52" y="-124.5" font-family="Helvetica,sans-Serif" font-size="10.00">memory</text>
</g>
<!-- Node7&#45;&gt;Node14 -->
<g id="edge28" class="edge"><title>Node7&#45;&gt;Node14</title>
<path fill="none" stroke="midnightblue" d="M728.045,-174.362C743.421,-165.532 765.515,-152.844 782.967,-142.822"/>
<polygon fill="midnightblue" stroke="midnightblue" points="785.183,-145.586 792.112,-137.571 781.697,-139.515 785.183,-145.586"/>
</g>
<!-- Node15 -->
<g id="node30" class="node"><title>Node15</title>
<polygon fill="white" stroke="#bfbfbf" points="854.52,-116.5 854.52,-137.5 906.52,-137.5 906.52,-116.5 854.52,-116.5"/>
<text text-anchor="middle" x="880.52" y="-124.5" font-family="Helvetica,sans-Serif" font-size="10.00">sstream</text>
</g>
<!-- Node7&#45;&gt;Node15 -->
<g id="edge30" class="edge"><title>Node7&#45;&gt;Node15</title>
<path fill="none" stroke="midnightblue" d="M740.486,-174.497C769.84,-164.54 813.913,-149.592 844.752,-139.132"/>
<polygon fill="midnightblue" stroke="midnightblue" points="845.919,-142.432 854.265,-135.905 843.67,-135.803 845.919,-142.432"/>
</g>
<!-- Node16 -->
<g id="node32" class="node"><title>Node16</title>
<polygon fill="white" stroke="#bfbfbf" points="924.02,-116.5 924.02,-137.5 965.02,-137.5 965.02,-116.5 924.02,-116.5"/>
<text text-anchor="middle" x="944.52" y="-124.5" font-family="Helvetica,sans-Serif" font-size="10.00">string</text>
</g>
<!-- Node7&#45;&gt;Node16 -->
<g id="edge32" class="edge"><title>Node7&#45;&gt;Node16</title>
<path fill="none" stroke="midnightblue" d="M750.604,-177.367C790.37,-169.595 852.453,-156.451 913.88,-138.245"/>
<polygon fill="midnightblue" stroke="midnightblue" points="915.163,-141.514 923.729,-135.28 913.145,-134.811 915.163,-141.514"/>
</g>
<!-- Node17 -->
<g id="node35" class="node"><title>Node17</title>
<polygon fill="white" stroke="#bfbfbf" points="194.52,-116.5 194.52,-137.5 254.52,-137.5 254.52,-116.5 194.52,-116.5"/>
<text text-anchor="middle" x="224.52" y="-124.5" font-family="Helvetica,sans-Serif" font-size="10.00">sys/stat.h</text>
</g>
<!-- Node7&#45;&gt;Node17 -->
<g id="edge36" class="edge"><title>Node7&#45;&gt;Node17</title>
<path fill="none" stroke="midnightblue" d="M668.285,-183C590.882,-178.74 418.509,-166.861 264.733,-137.967"/>
<polygon fill="midnightblue" stroke="midnightblue" points="265.111,-134.476 254.632,-136.039 263.799,-141.352 265.111,-134.476"/>
</g>
<!-- Node18 -->
<g id="node38" class="node"><title>Node18</title>
<a xlink:href="../../da/d69/optionparser_8h.html" target="_top" xlink:title="This is the only file required to use The Lean Mean C++ Option Parser. Just #include it and you&#39;re se...">
<polygon fill="white" stroke="black" points="272.52,-116.5 272.52,-137.5 376.52,-137.5 376.52,-116.5 272.52,-116.5"/>
<text text-anchor="middle" x="324.52" y="-124.5" font-family="Helvetica,sans-Serif" font-size="10.00">blond/optionparser.h</text>
</a>
</g>
<!-- Node7&#45;&gt;Node18 -->
<g id="edge40" class="edge"><title>Node7&#45;&gt;Node18</title>
<path fill="none" stroke="midnightblue" d="M668.278,-179.48C608.518,-171.379 494.119,-155.492 386.774,-138.166"/>
<polygon fill="midnightblue" stroke="midnightblue" points="387.174,-134.685 376.743,-136.539 386.053,-141.595 387.174,-134.685"/>
</g>
<!-- Node19&#45;&gt;Node5 -->
<g id="edge98" class="edge"><title>Node19&#45;&gt;Node5</title>
<path fill="none" stroke="midnightblue" d="M916.388,-397.317C918.769,-419.541 918.89,-458.071 916.752,-481.959"/>
<polygon fill="midnightblue" stroke="midnightblue" points="913.254,-481.745 915.567,-492.085 920.206,-482.56 913.254,-481.745"/>
</g>
<!-- Node19&#45;&gt;Node6 -->
<g id="edge58" class="edge"><title>Node19&#45;&gt;Node6</title>
<path fill="none" stroke="midnightblue" d="M920.682,-362.737C932.436,-340.592 952.934,-301.972 966.616,-276.196"/>
<polygon fill="midnightblue" stroke="midnightblue" points="969.722,-277.808 971.319,-267.334 963.539,-274.526 969.722,-277.808"/>
</g>
<!-- Node19&#45;&gt;Node20 -->
<g id="edge46" class="edge"><title>Node19&#45;&gt;Node20</title>
<path fill="none" stroke="midnightblue" d="M891.308,-362.922C883.1,-354.12 874.089,-343.354 867.293,-334.258"/>
<polygon fill="midnightblue" stroke="midnightblue" points="869.98,-331.995 861.348,-325.852 864.265,-336.037 869.98,-331.995"/>
</g>
<!-- Node21 -->
<g id="node51" class="node"><title>Node21</title>
<a xlink:href="../../d2/de2/math__functions_8h.html" target="_top" xlink:title="blond/math_functions.h">
<polygon fill="white" stroke="black" points="263.52,-239.5 263.52,-260.5 381.52,-260.5 381.52,-239.5 263.52,-239.5"/>
<text text-anchor="middle" x="322.52" y="-247.5" font-family="Helvetica,sans-Serif" font-size="10.00">blond/math_functions.h</text>
</a>
</g>
<!-- Node19&#45;&gt;Node21 -->
<g id="edge60" class="edge"><title>Node19&#45;&gt;Node21</title>
<path fill="none" stroke="midnightblue" d="M852.223,-364.128C849.283,-363.396 846.37,-362.683 843.52,-362 679.072,-322.582 483.856,-282.357 385.641,-262.571"/>
<polygon fill="midnightblue" stroke="midnightblue" points="386.077,-259.089 375.583,-260.548 384.697,-265.952 386.077,-259.089"/>
</g>
<!-- Node32 -->
<g id="node79" class="node"><title>Node32</title>
<a xlink:href="../../d2/d6f/constants_8h.html" target="_top" xlink:title="blond/constants.h">
<polygon fill="white" stroke="black" points="1008.52,-304.5 1008.52,-325.5 1102.52,-325.5 1102.52,-304.5 1008.52,-304.5"/>
<text text-anchor="middle" x="1055.52" y="-312.5" font-family="Helvetica,sans-Serif" font-size="10.00">blond/constants.h</text>
</a>
</g>
<!-- Node19&#45;&gt;Node32 -->
<g id="edge94" class="edge"><title>Node19&#45;&gt;Node32</title>
<path fill="none" stroke="midnightblue" d="M949.354,-362.922C972.146,-352.634 1000.89,-339.661 1022.71,-329.809"/>
<polygon fill="midnightblue" stroke="midnightblue" points="1024.23,-332.963 1031.91,-325.658 1021.35,-326.583 1024.23,-332.963"/>
</g>
<!-- Node20&#45;&gt;Node2 -->
<g id="edge50" class="edge"><title>Node20&#45;&gt;Node2</title>
<path fill="none" stroke="midnightblue" d="M862.393,-304.34C870.644,-287.248 888.808,-253.458 912.52,-232 960.081,-188.959 1028.5,-157.933 1071.46,-141.217"/>
<polygon fill="midnightblue" stroke="midnightblue" points="1072.91,-144.407 1081.01,-137.572 1070.42,-137.867 1072.91,-144.407"/>
</g>
<!-- Node20&#45;&gt;Node5 -->
<g id="edge48" class="edge"><title>Node20&#45;&gt;Node5</title>
<path fill="none" stroke="midnightblue" d="M844.294,-325.503C810.595,-349.015 728.568,-407.621 764.52,-456 776.445,-472.048 822.77,-484.704 860.352,-492.821"/>
<polygon fill="midnightblue" stroke="midnightblue" points="859.68,-496.256 870.186,-494.887 861.12,-489.406 859.68,-496.256"/>
</g>
<!-- Node20&#45;&gt;Node6 -->
<g id="edge54" class="edge"><title>Node20&#45;&gt;Node6</title>
<path fill="none" stroke="midnightblue" d="M877.555,-304.412C894.159,-295.638 918.31,-282.875 939.049,-271.915"/>
<polygon fill="midnightblue" stroke="midnightblue" points="940.791,-274.954 947.997,-267.187 937.52,-268.765 940.791,-274.954"/>
</g>
<!-- Node20&#45;&gt;Node7 -->
<g id="edge52" class="edge"><title>Node20&#45;&gt;Node7</title>
<path fill="none" stroke="midnightblue" d="M850.133,-304.366C838.138,-287.605 813.08,-254.626 786.52,-232 772.204,-219.804 754.377,-208.709 739.482,-200.365"/>
<polygon fill="midnightblue" stroke="midnightblue" points="741.099,-197.26 730.645,-195.54 737.745,-203.404 741.099,-197.26"/>
</g>
<!-- Node20&#45;&gt;Node19 -->
<g id="edge56" class="edge"><title>Node20&#45;&gt;Node19</title>
<path fill="none" stroke="midnightblue" d="M871.722,-325.852C879.651,-333.748 889.277,-344.769 897.188,-354.809"/>
<polygon fill="midnightblue" stroke="midnightblue" points="894.517,-357.079 903.355,-362.922 900.09,-352.843 894.517,-357.079"/>
</g>
<!-- Node21&#45;&gt;Node2 -->
<g id="edge64" class="edge"><title>Node21&#45;&gt;Node2</title>
<path fill="none" stroke="midnightblue" d="M381.726,-244.025C465.919,-235.224 624.959,-217.475 759.52,-196 863.705,-179.373 984.156,-154.533 1053.71,-139.634"/>
<polygon fill="midnightblue" stroke="midnightblue" points="1054.56,-143.032 1063.6,-137.509 1053.09,-136.188 1054.56,-143.032"/>
</g>
<!-- Node21&#45;&gt;Node7 -->
<g id="edge82" class="edge"><title>Node21&#45;&gt;Node7</title>
<path fill="none" stroke="midnightblue" d="M381.718,-240.057C457.297,-227.363 586.816,-205.609 658.332,-193.597"/>
<polygon fill="midnightblue" stroke="midnightblue" points="659.168,-197.006 668.45,-191.898 658.008,-190.103 659.168,-197.006"/>
</g>
<!-- Node22 -->
<g id="node53" class="node"><title>Node22</title>
<polygon fill="white" stroke="#bfbfbf" points="383.52,-174.5 383.52,-195.5 439.52,-195.5 439.52,-174.5 383.52,-174.5"/>
<text text-anchor="middle" x="411.52" y="-182.5" font-family="Helvetica,sans-Serif" font-size="10.00">algorithm</text>
</g>
<!-- Node21&#45;&gt;Node22 -->
<g id="edge62" class="edge"><title>Node21&#45;&gt;Node22</title>
<path fill="none" stroke="midnightblue" d="M337.216,-239.267C351.213,-229.044 372.491,-213.504 388.695,-201.67"/>
<polygon fill="midnightblue" stroke="midnightblue" points="391.085,-204.258 397.097,-195.534 386.957,-198.605 391.085,-204.258"/>
</g>
<!-- Node23 -->
<g id="node56" class="node"><title>Node23</title>
<a xlink:href="../../d8/dcd/exp_8h.html" target="_top" xlink:title="blond/exp.h">
<polygon fill="white" stroke="black" points="457.02,-174.5 457.02,-195.5 524.02,-195.5 524.02,-174.5 457.02,-174.5"/>
<text text-anchor="middle" x="490.52" y="-182.5" font-family="Helvetica,sans-Serif" font-size="10.00">blond/exp.h</text>
</a>
</g>
<!-- Node21&#45;&gt;Node23 -->
<g id="edge66" class="edge"><title>Node21&#45;&gt;Node23</title>
<path fill="none" stroke="midnightblue" d="M349.886,-239.412C378.075,-228.505 422.194,-211.436 453.491,-199.327"/>
<polygon fill="midnightblue" stroke="midnightblue" points="455.102,-202.456 463.165,-195.584 452.576,-195.928 455.102,-202.456"/>
</g>
<!-- Node25 -->
<g id="node60" class="node"><title>Node25</title>
<polygon fill="white" stroke="#bfbfbf" points="23.5196,-0.5 23.5196,-21.5 67.5196,-21.5 67.5196,-0.5 23.5196,-0.5"/>
<text text-anchor="middle" x="45.5196" y="-8.5" font-family="Helvetica,sans-Serif" font-size="10.00">cmath</text>
</g>
<!-- Node21&#45;&gt;Node25 -->
<g id="edge84" class="edge"><title>Node21&#45;&gt;Node25</title>
<path fill="none" stroke="midnightblue" d="M263.251,-248.183C183.785,-244.356 49.1192,-232.514 18.5196,-196 -21.6699,-148.042 13.9778,-67.4084 34.0377,-30.504"/>
<polygon fill="midnightblue" stroke="midnightblue" points="37.1302,-32.1452 38.9769,-21.7126 31.0273,-28.7166 37.1302,-32.1452"/>
</g>
<!-- Node26 -->
<g id="node62" class="node"><title>Node26</title>
<polygon fill="white" stroke="#bfbfbf" points="98.5196,-116.5 98.5196,-137.5 138.52,-137.5 138.52,-116.5 98.5196,-116.5"/>
<text text-anchor="middle" x="118.52" y="-124.5" font-family="Helvetica,sans-Serif" font-size="10.00">limits</text>
</g>
<!-- Node21&#45;&gt;Node26 -->
<g id="edge88" class="edge"><title>Node21&#45;&gt;Node26</title>
<path fill="none" stroke="midnightblue" d="M265.398,-239.474C218.304,-229.701 156.439,-213.98 138.52,-196 125.838,-183.276 121.095,-163.026 119.373,-147.748"/>
<polygon fill="midnightblue" stroke="midnightblue" points="122.854,-147.375 118.582,-137.68 115.876,-147.924 122.854,-147.375"/>
</g>
<!-- Node27 -->
<g id="node64" class="node"><title>Node27</title>
<a xlink:href="../../d1/d3d/sin_8h.html" target="_top" xlink:title="blond/sin.h">
<polygon fill="white" stroke="black" points="27.5196,-174.5 27.5196,-195.5 91.5196,-195.5 91.5196,-174.5 27.5196,-174.5"/>
<text text-anchor="middle" x="59.5196" y="-182.5" font-family="Helvetica,sans-Serif" font-size="10.00">blond/sin.h</text>
</a>
</g>
<!-- Node21&#45;&gt;Node27 -->
<g id="edge74" class="edge"><title>Node21&#45;&gt;Node27</title>
<path fill="none" stroke="midnightblue" d="M279.972,-239.484C230.839,-227.341 150.517,-207.49 101.588,-195.397"/>
<polygon fill="midnightblue" stroke="midnightblue" points="102.194,-191.942 91.6462,-192.94 100.514,-198.737 102.194,-191.942"/>
</g>
<!-- Node29 -->
<g id="node72" class="node"><title>Node29</title>
<polygon fill="white" stroke="#bfbfbf" points="147.02,-174.5 147.02,-195.5 196.02,-195.5 196.02,-174.5 147.02,-174.5"/>
<text text-anchor="middle" x="171.52" y="-182.5" font-family="Helvetica,sans-Serif" font-size="10.00">random</text>
</g>
<!-- Node21&#45;&gt;Node29 -->
<g id="edge86" class="edge"><title>Node21&#45;&gt;Node29</title>
<path fill="none" stroke="midnightblue" d="M297.923,-239.412C272.805,-228.6 233.617,-211.731 205.535,-199.642"/>
<polygon fill="midnightblue" stroke="midnightblue" points="206.675,-196.323 196.106,-195.584 203.907,-202.752 206.675,-196.323"/>
</g>
<!-- Node30 -->
<g id="node75" class="node"><title>Node30</title>
<polygon fill="white" stroke="#bfbfbf" points="213.02,-174.5 213.02,-195.5 262.02,-195.5 262.02,-174.5 213.02,-174.5"/>
<text text-anchor="middle" x="237.52" y="-182.5" font-family="Helvetica,sans-Serif" font-size="10.00">cassert</text>
</g>
<!-- Node21&#45;&gt;Node30 -->
<g id="edge90" class="edge"><title>Node21&#45;&gt;Node30</title>
<path fill="none" stroke="midnightblue" d="M308.484,-239.267C295.116,-229.044 274.794,-213.504 259.319,-201.67"/>
<polygon fill="midnightblue" stroke="midnightblue" points="261.364,-198.828 251.294,-195.534 257.112,-204.389 261.364,-198.828"/>
</g>
<!-- Node31 -->
<g id="node77" class="node"><title>Node31</title>
<a xlink:href="../../d1/db0/openmp_8h.html" target="_top" xlink:title="blond/openmp.h">
<polygon fill="white" stroke="black" points="279.52,-174.5 279.52,-195.5 365.52,-195.5 365.52,-174.5 279.52,-174.5"/>
<text text-anchor="middle" x="322.52" y="-182.5" font-family="Helvetica,sans-Serif" font-size="10.00">blond/openmp.h</text>
</a>
</g>
<!-- Node21&#45;&gt;Node31 -->
<g id="edge92" class="edge"><title>Node21&#45;&gt;Node31</title>
<path fill="none" stroke="midnightblue" d="M322.52,-239.267C322.52,-230.18 322.52,-216.892 322.52,-205.74"/>
<polygon fill="midnightblue" stroke="midnightblue" points="326.02,-205.534 322.52,-195.534 319.02,-205.534 326.02,-205.534"/>
</g>
<!-- Node24 -->
<g id="node58" class="node"><title>Node24</title>
<a xlink:href="../../df/de1/vdtcore__common_8h.html" target="_top" xlink:title="vdtcore_common.h">
<polygon fill="white" stroke="black" points="73.5196,-58.5 73.5196,-79.5 173.52,-79.5 173.52,-58.5 73.5196,-58.5"/>
<text text-anchor="middle" x="123.52" y="-66.5" font-family="Helvetica,sans-Serif" font-size="10.00">vdtcore_common.h</text>
</a>
</g>
<!-- Node23&#45;&gt;Node24 -->
<g id="edge68" class="edge"><title>Node23&#45;&gt;Node24</title>
<path fill="none" stroke="midnightblue" d="M456.675,-175.763C453.925,-175.126 451.181,-174.529 448.52,-174 332.802,-151.013 289.76,-193.254 185.52,-138 163.871,-126.525 146.056,-104.319 135.164,-88.1896"/>
<polygon fill="midnightblue" stroke="midnightblue" points="137.936,-86.0292 129.575,-79.5221 132.053,-89.823 137.936,-86.0292"/>
</g>
<!-- Node23&#45;&gt;Node26 -->
<g id="edge72" class="edge"><title>Node23&#45;&gt;Node26</title>
<path fill="none" stroke="midnightblue" d="M456.683,-175.719C453.931,-175.092 451.185,-174.509 448.52,-174 318.344,-149.155 281.938,-166.528 152.52,-138 151.259,-137.722 149.978,-137.417 148.689,-137.09"/>
<polygon fill="midnightblue" stroke="midnightblue" points="149.418,-133.658 138.841,-134.275 147.494,-140.389 149.418,-133.658"/>
</g>
<!-- Node24&#45;&gt;Node25 -->
<g id="edge70" class="edge"><title>Node24&#45;&gt;Node25</title>
<path fill="none" stroke="midnightblue" d="M109.213,-58.3619C97.6684,-49.7773 81.2192,-37.5459 67.9292,-27.6636"/>
<polygon fill="midnightblue" stroke="midnightblue" points="69.8484,-24.7291 59.7353,-21.5707 65.6715,-30.3463 69.8484,-24.7291"/>
</g>
<!-- Node28 -->
<g id="node66" class="node"><title>Node28</title>
<a xlink:href="../../dc/dfa/sincos_8h.html" target="_top" xlink:title="sincos.h">
<polygon fill="white" stroke="black" points="28.0196,-116.5 28.0196,-137.5 81.0196,-137.5 81.0196,-116.5 28.0196,-116.5"/>
<text text-anchor="middle" x="54.5196" y="-124.5" font-family="Helvetica,sans-Serif" font-size="10.00">sincos.h</text>
</a>
</g>
<!-- Node27&#45;&gt;Node28 -->
<g id="edge76" class="edge"><title>Node27&#45;&gt;Node28</title>
<path fill="none" stroke="midnightblue" d="M58.6025,-174.362C57.9611,-166.922 57.0836,-156.743 56.3065,-147.728"/>
<polygon fill="midnightblue" stroke="midnightblue" points="59.7769,-147.233 55.4309,-137.571 52.8028,-147.834 59.7769,-147.233"/>
</g>
<!-- Node28&#45;&gt;Node24 -->
<g id="edge78" class="edge"><title>Node28&#45;&gt;Node24</title>
<path fill="none" stroke="midnightblue" d="M67.1753,-116.362C77.1935,-107.941 91.3864,-96.0105 103.021,-86.2308"/>
<polygon fill="midnightblue" stroke="midnightblue" points="105.541,-88.6844 110.944,-79.5707 101.037,-83.326 105.541,-88.6844"/>
</g>
<!-- Node28&#45;&gt;Node25 -->
<g id="edge80" class="edge"><title>Node28&#45;&gt;Node25</title>
<path fill="none" stroke="midnightblue" d="M53.689,-116.295C52.2022,-97.1314 49.0617,-56.654 47.1368,-31.8434"/>
<polygon fill="midnightblue" stroke="midnightblue" points="50.6113,-31.3785 46.3482,-21.6792 43.6323,-31.92 50.6113,-31.3785"/>
</g>
<!-- Node32&#45;&gt;Node2 -->
<g id="edge96" class="edge"><title>Node32&#45;&gt;Node2</title>
<path fill="none" stroke="midnightblue" d="M1058.69,-304.354C1067.72,-274.043 1093.67,-186.914 1105.51,-147.182"/>
<polygon fill="midnightblue" stroke="midnightblue" points="1108.88,-148.113 1108.38,-137.53 1102.17,-146.114 1108.88,-148.113"/>
</g>
<!-- Node33&#45;&gt;Node2 -->
<g id="edge104" class="edge"><title>Node33&#45;&gt;Node2</title>
<path fill="none" stroke="midnightblue" d="M871.574,-434.466C960.108,-415.04 1130.52,-370.448 1130.52,-315 1130.52,-315 1130.52,-315 1130.52,-250 1130.52,-213.649 1122.31,-171.956 1116.69,-147.64"/>
<polygon fill="midnightblue" stroke="midnightblue" points="1120.06,-146.682 1114.32,-137.773 1113.25,-148.313 1120.06,-146.682"/>
</g>
<!-- Node33&#45;&gt;Node7 -->
<g id="edge106" class="edge"><title>Node33&#45;&gt;Node7</title>
<path fill="none" stroke="midnightblue" d="M812.535,-434.461C806.518,-425.119 797.83,-410.985 791.52,-398 758.272,-329.59 728.781,-244.016 716.106,-205.48"/>
<polygon fill="midnightblue" stroke="midnightblue" points="719.414,-204.334 712.988,-195.911 712.759,-206.503 719.414,-204.334"/>
</g>
<!-- Node33&#45;&gt;Node19 -->
<g id="edge108" class="edge"><title>Node33&#45;&gt;Node19</title>
<path fill="none" stroke="midnightblue" d="M834.712,-434.267C846.657,-425.827 863.733,-413.762 878.752,-403.151"/>
<polygon fill="midnightblue" stroke="midnightblue" points="881.155,-405.739 887.303,-397.11 877.116,-400.022 881.155,-405.739"/>
</g>
<!-- Node34 -->
<g id="node89" class="node"><title>Node34</title>
<polygon fill="white" stroke="#bfbfbf" points="800.02,-369.5 800.02,-390.5 835.02,-390.5 835.02,-369.5 800.02,-369.5"/>
<text text-anchor="middle" x="817.52" y="-377.5" font-family="Helvetica,sans-Serif" font-size="10.00">map</text>
</g>
<!-- Node33&#45;&gt;Node34 -->
<g id="edge110" class="edge"><title>Node33&#45;&gt;Node34</title>
<path fill="none" stroke="midnightblue" d="M819.189,-434.267C818.91,-425.18 818.501,-411.892 818.158,-400.74"/>
<polygon fill="midnightblue" stroke="midnightblue" points="821.65,-400.421 817.844,-390.534 814.653,-400.637 821.65,-400.421"/>
</g>
<!-- Node35&#45;&gt;Node2 -->
<g id="edge114" class="edge"><title>Node35&#45;&gt;Node2</title>
<path fill="none" stroke="midnightblue" d="M1248.43,-239.487C1234.9,-224.159 1208.29,-195.198 1182.52,-174 1168.66,-162.599 1151.98,-151.441 1138.27,-142.859"/>
<polygon fill="midnightblue" stroke="midnightblue" points="1140.1,-139.876 1129.75,-137.616 1136.43,-145.838 1140.1,-139.876"/>
</g>
<!-- Node35&#45;&gt;Node7 -->
<g id="edge116" class="edge"><title>Node35&#45;&gt;Node7</title>
<path fill="none" stroke="midnightblue" d="M1195.99,-242.701C1086.91,-229.764 861.646,-203.044 760.565,-191.055"/>
<polygon fill="midnightblue" stroke="midnightblue" points="760.942,-187.575 750.599,-189.873 760.117,-194.526 760.942,-187.575"/>
</g>
<!-- Node36 -->
<g id="node95" class="node"><title>Node36</title>
<polygon fill="white" stroke="#bfbfbf" points="1234.02,-174.5 1234.02,-195.5 1293.02,-195.5 1293.02,-174.5 1234.02,-174.5"/>
<text text-anchor="middle" x="1263.52" y="-182.5" font-family="Helvetica,sans-Serif" font-size="10.00">functional</text>
</g>
<!-- Node35&#45;&gt;Node36 -->
<g id="edge118" class="edge"><title>Node35&#45;&gt;Node36</title>
<path fill="none" stroke="midnightblue" d="M1258.51,-239.267C1259.35,-230.18 1260.58,-216.892 1261.61,-205.74"/>
<polygon fill="midnightblue" stroke="midnightblue" points="1265.11,-205.813 1262.55,-195.534 1258.14,-205.17 1265.11,-205.813"/>
</g>
<!-- Node37&#45;&gt;Node2 -->
<g id="edge122" class="edge"><title>Node37&#45;&gt;Node2</title>
<path fill="none" stroke="midnightblue" d="M956.58,-550.46C1030.29,-531.896 1168.52,-490.954 1168.52,-445 1168.52,-445 1168.52,-445 1168.52,-250 1168.52,-210.107 1143.53,-169.119 1126.64,-145.975"/>
<polygon fill="midnightblue" stroke="midnightblue" points="1129.25,-143.614 1120.43,-137.746 1123.66,-147.834 1129.25,-143.614"/>
</g>
<!-- Node37&#45;&gt;Node5 -->
<g id="edge124" class="edge"><title>Node37&#45;&gt;Node5</title>
<path fill="none" stroke="midnightblue" d="M911.52,-550.362C911.52,-542.922 911.52,-532.743 911.52,-523.728"/>
<polygon fill="midnightblue" stroke="midnightblue" points="915.02,-523.571 911.52,-513.571 908.02,-523.571 915.02,-523.571"/>
</g>
<!-- Node37&#45;&gt;Node7 -->
<g id="edge126" class="edge"><title>Node37&#45;&gt;Node7</title>
<path fill="none" stroke="midnightblue" d="M852.423,-556.795C783.394,-548.295 678.52,-522.609 678.52,-445 678.52,-445 678.52,-445 678.52,-315 678.52,-275.208 692.432,-230.388 701.617,-205.135"/>
<polygon fill="midnightblue" stroke="midnightblue" points="704.965,-206.174 705.209,-195.582 698.413,-203.71 704.965,-206.174"/>
</g>
</g>
</svg>
