<?xml version="1.0" encoding="UTF-8" standalone="no"?>
<!DOCTYPE svg PUBLIC "-//W3C//DTD SVG 1.1//EN"
 "http://www.w3.org/Graphics/SVG/1.1/DTD/svg11.dtd">
<!-- Generated by graphviz version 2.26.3 (20100126.1600)
 -->
<!-- Title: PhaseLoop.h Pages: 1 -->
<svg width="1608pt" height="638pt"
 viewBox="0.00 0.00 1608.00 638.00" xmlns="http://www.w3.org/2000/svg" xmlns:xlink="http://www.w3.org/1999/xlink">
<g id="graph1" class="graph" transform="scale(1 1) rotate(0) translate(4 634)">
<title>PhaseLoop.h</title>
<polygon fill="white" stroke="white" points="-4,5 -4,-634 1605,-634 1605,5 -4,5"/>
<!-- Node1 -->
<g id="node1" class="node"><title>Node1</title>
<polygon fill="#bfbfbf" stroke="black" points="707,-608.5 707,-629.5 781,-629.5 781,-608.5 707,-608.5"/>
<text text-anchor="middle" x="744" y="-616.5" font-family="Helvetica,sans-Serif" font-size="10.00">PhaseLoop.h</text>
</g>
<!-- Node2 -->
<g id="node3" class="node"><title>Node2</title>
<a xlink:href="../../d2/d2c/configuration_8h.html" target="_top" xlink:title="blond/configuration.h">
<polygon fill="white" stroke="black" points="955.5,-116.5 955.5,-137.5 1062.5,-137.5 1062.5,-116.5 955.5,-116.5"/>
<text text-anchor="middle" x="1009" y="-124.5" font-family="Helvetica,sans-Serif" font-size="10.00">blond/configuration.h</text>
</a>
</g>
<!-- Node1&#45;&gt;Node2 -->
<g id="edge2" class="edge"><title>Node1&#45;&gt;Node2</title>
<path fill="none" stroke="midnightblue" d="M781.043,-616.639C922.943,-607.107 1424,-568.794 1424,-503 1424,-503 1424,-503 1424,-250 1424,-207.778 1403.45,-195.305 1367,-174 1318.41,-145.598 1161.82,-133.916 1072.67,-129.472"/>
<polygon fill="midnightblue" stroke="midnightblue" points="1072.83,-125.975 1062.67,-128.989 1072.49,-132.967 1072.83,-125.975"/>
</g>
<!-- Node5 -->
<g id="node9" class="node"><title>Node5</title>
<a xlink:href="../../d5/d87/globals_8h.html" target="_top" xlink:title="blond/globals.h">
<polygon fill="white" stroke="black" points="790,-492.5 790,-513.5 872,-513.5 872,-492.5 790,-492.5"/>
<text text-anchor="middle" x="831" y="-500.5" font-family="Helvetica,sans-Serif" font-size="10.00">blond/globals.h</text>
</a>
</g>
<!-- Node1&#45;&gt;Node5 -->
<g id="edge8" class="edge"><title>Node1&#45;&gt;Node5</title>
<path fill="none" stroke="midnightblue" d="M767.042,-608.367C781.944,-600.365 800.619,-588.032 812,-572 822.088,-557.791 826.825,-538.441 829.047,-523.848"/>
<polygon fill="midnightblue" stroke="midnightblue" points="832.538,-524.136 830.302,-513.779 825.591,-523.269 832.538,-524.136"/>
</g>
<!-- Node7 -->
<g id="node14" class="node"><title>Node7</title>
<a xlink:href="../../de/df0/utilities_8h.html" target="_top" xlink:title="blond/utilities.h">
<polygon fill="white" stroke="black" points="591,-174.5 591,-195.5 673,-195.5 673,-174.5 591,-174.5"/>
<text text-anchor="middle" x="632" y="-182.5" font-family="Helvetica,sans-Serif" font-size="10.00">blond/utilities.h</text>
</a>
</g>
<!-- Node1&#45;&gt;Node7 -->
<g id="edge126" class="edge"><title>Node1&#45;&gt;Node7</title>
<path fill="none" stroke="midnightblue" d="M721.604,-608.439C688.92,-591.289 632,-554.089 632,-503 632,-503 632,-503 632,-315 632,-276.466 632,-231.508 632,-205.834"/>
<polygon fill="midnightblue" stroke="midnightblue" points="635.5,-205.786 632,-195.786 628.5,-205.786 635.5,-205.786"/>
</g>
<!-- Node35 -->
<g id="node90" class="node"><title>Node35</title>
<a xlink:href="../../d4/dba/LHCNoiseFB_8h.html" target="_top" xlink:title="blond/llrf/LHCNoiseFB.h">
<polygon fill="white" stroke="black" points="481.5,-239.5 481.5,-260.5 604.5,-260.5 604.5,-239.5 481.5,-239.5"/>
<text text-anchor="middle" x="543" y="-247.5" font-family="Helvetica,sans-Serif" font-size="10.00">blond/llrf/LHCNoiseFB.h</text>
</a>
</g>
<!-- Node1&#45;&gt;Node35 -->
<g id="edge110" class="edge"><title>Node1&#45;&gt;Node35</title>
<path fill="none" stroke="midnightblue" d="M706.887,-611.747C655.517,-599.305 569,-568.611 569,-503 569,-503 569,-503 569,-380 569,-340.527 557.331,-295.598 549.628,-270.239"/>
<polygon fill="midnightblue" stroke="midnightblue" points="552.95,-269.134 546.615,-260.642 546.271,-271.231 552.95,-269.134"/>
</g>
<!-- Node37 -->
<g id="node96" class="node"><title>Node37</title>
<a xlink:href="../../d9/dc8/PhaseNoise_8h.html" target="_top" xlink:title="blond/llrf/PhaseNoise.h">
<polygon fill="white" stroke="black" points="685,-550.5 685,-571.5 803,-571.5 803,-550.5 685,-550.5"/>
<text text-anchor="middle" x="744" y="-558.5" font-family="Helvetica,sans-Serif" font-size="10.00">blond/llrf/PhaseNoise.h</text>
</a>
</g>
<!-- Node1&#45;&gt;Node37 -->
<g id="edge118" class="edge"><title>Node1&#45;&gt;Node37</title>
<path fill="none" stroke="midnightblue" d="M744,-608.362C744,-600.922 744,-590.743 744,-581.728"/>
<polygon fill="midnightblue" stroke="midnightblue" points="747.5,-581.571 744,-571.571 740.5,-581.571 747.5,-581.571"/>
</g>
<!-- Node3 -->
<g id="node5" class="node"><title>Node3</title>
<polygon fill="white" stroke="#bfbfbf" points="982.5,-58.5 982.5,-79.5 1035.5,-79.5 1035.5,-58.5 982.5,-58.5"/>
<text text-anchor="middle" x="1009" y="-66.5" font-family="Helvetica,sans-Serif" font-size="10.00">complex</text>
</g>
<!-- Node2&#45;&gt;Node3 -->
<g id="edge4" class="edge"><title>Node2&#45;&gt;Node3</title>
<path fill="none" stroke="midnightblue" d="M1009,-116.362C1009,-108.922 1009,-98.7427 1009,-89.7276"/>
<polygon fill="midnightblue" stroke="midnightblue" points="1012.5,-89.5706 1009,-79.5707 1005.5,-89.5707 1012.5,-89.5706"/>
</g>
<!-- Node4 -->
<g id="node7" class="node"><title>Node4</title>
<polygon fill="white" stroke="#bfbfbf" points="906,-58.5 906,-79.5 950,-79.5 950,-58.5 906,-58.5"/>
<text text-anchor="middle" x="928" y="-66.5" font-family="Helvetica,sans-Serif" font-size="10.00">vector</text>
</g>
<!-- Node2&#45;&gt;Node4 -->
<g id="edge6" class="edge"><title>Node2&#45;&gt;Node4</title>
<path fill="none" stroke="midnightblue" d="M994.143,-116.362C982.154,-107.777 965.073,-95.5459 951.272,-85.6636"/>
<polygon fill="midnightblue" stroke="midnightblue" points="952.931,-82.5469 942.762,-79.5707 948.855,-88.2383 952.931,-82.5469"/>
</g>
<!-- Node6 -->
<g id="node11" class="node"><title>Node6</title>
<a xlink:href="../../d5/d34/GeneralParameters_8h.html" target="_top" xlink:title="blond/input_parameters\l/GeneralParameters.h">
<polygon fill="white" stroke="black" points="778,-233 778,-267 896,-267 896,-233 778,-233"/>
<text text-anchor="start" x="786" y="-254" font-family="Helvetica,sans-Serif" font-size="10.00">blond/input_parameters</text>
<text text-anchor="middle" x="837" y="-241" font-family="Helvetica,sans-Serif" font-size="10.00">/GeneralParameters.h</text>
</a>
</g>
<!-- Node5&#45;&gt;Node6 -->
<g id="edge10" class="edge"><title>Node5&#45;&gt;Node6</title>
<path fill="none" stroke="midnightblue" d="M821.703,-492.221C796.498,-461.622 730.979,-372.043 765,-304 771.298,-291.405 782.085,-280.985 793.42,-272.77"/>
<polygon fill="midnightblue" stroke="midnightblue" points="795.379,-275.671 801.714,-267.179 791.466,-269.866 795.379,-275.671"/>
</g>
<!-- Node20 -->
<g id="node43" class="node"><title>Node20</title>
<a xlink:href="../../d6/db7/RfParameters_8h.html" target="_top" xlink:title="blond/input_parameters\l/RfParameters.h">
<polygon fill="white" stroke="black" points="868,-363 868,-397 986,-397 986,-363 868,-363"/>
<text text-anchor="start" x="876" y="-384" font-family="Helvetica,sans-Serif" font-size="10.00">blond/input_parameters</text>
<text text-anchor="middle" x="927" y="-371" font-family="Helvetica,sans-Serif" font-size="10.00">/RfParameters.h</text>
</a>
</g>
<!-- Node5&#45;&gt;Node20 -->
<g id="edge46" class="edge"><title>Node5&#45;&gt;Node20</title>
<path fill="none" stroke="midnightblue" d="M835.472,-492.085C847.614,-472.69 879.054,-431.76 901.85,-405.095"/>
<polygon fill="midnightblue" stroke="midnightblue" points="904.693,-407.159 908.616,-397.317 899.412,-402.565 904.693,-407.159"/>
</g>
<!-- Node21 -->
<g id="node45" class="node"><title>Node21</title>
<a xlink:href="../../d7/d74/Beams_8h.html" target="_top" xlink:title="blond/beams/Beams.h">
<polygon fill="white" stroke="black" points="774,-304.5 774,-325.5 888,-325.5 888,-304.5 774,-304.5"/>
<text text-anchor="middle" x="831" y="-312.5" font-family="Helvetica,sans-Serif" font-size="10.00">blond/beams/Beams.h</text>
</a>
</g>
<!-- Node5&#45;&gt;Node21 -->
<g id="edge98" class="edge"><title>Node5&#45;&gt;Node21</title>
<path fill="none" stroke="midnightblue" d="M827.662,-492.354C823.508,-462.172 823.147,-375.656 826.58,-335.693"/>
<polygon fill="midnightblue" stroke="midnightblue" points="830.083,-335.848 827.678,-325.53 823.124,-335.096 830.083,-335.848"/>
</g>
<!-- Node33 -->
<g id="node83" class="node"><title>Node33</title>
<a xlink:href="../../dc/df2/Slices_8h.html" target="_top" xlink:title="blond/beams/Slices.h">
<polygon fill="white" stroke="black" points="924,-434.5 924,-455.5 1034,-455.5 1034,-434.5 924,-434.5"/>
<text text-anchor="middle" x="979" y="-442.5" font-family="Helvetica,sans-Serif" font-size="10.00">blond/beams/Slices.h</text>
</a>
</g>
<!-- Node5&#45;&gt;Node33 -->
<g id="edge100" class="edge"><title>Node5&#45;&gt;Node33</title>
<path fill="none" stroke="midnightblue" d="M857.802,-492.497C881.438,-483.234 916.1,-469.65 942.308,-459.379"/>
<polygon fill="midnightblue" stroke="midnightblue" points="943.864,-462.529 951.898,-455.621 941.31,-456.011 943.864,-462.529"/>
</g>
<!-- Node6&#45;&gt;Node2 -->
<g id="edge12" class="edge"><title>Node6&#45;&gt;Node2</title>
<path fill="none" stroke="midnightblue" d="M859.178,-232.704C879.453,-217.038 910.396,-193.496 938,-174 953.056,-163.367 970.288,-151.942 984.006,-143.019"/>
<polygon fill="midnightblue" stroke="midnightblue" points="985.962,-145.922 992.454,-137.55 982.158,-140.046 985.962,-145.922"/>
</g>
<!-- Node6&#45;&gt;Node4 -->
<g id="edge44" class="edge"><title>Node6&#45;&gt;Node4</title>
<path fill="none" stroke="midnightblue" d="M850.492,-232.721C866.483,-211.497 892.976,-173.881 909,-138 915.956,-122.424 920.916,-103.708 924.02,-89.701"/>
<polygon fill="midnightblue" stroke="midnightblue" points="927.506,-90.1299 926.114,-79.6269 920.652,-88.7053 927.506,-90.1299"/>
</g>
<!-- Node6&#45;&gt;Node7 -->
<g id="edge14" class="edge"><title>Node6&#45;&gt;Node7</title>
<path fill="none" stroke="midnightblue" d="M783.139,-232.922C749.42,-222.231 706.559,-208.641 675.099,-198.665"/>
<polygon fill="midnightblue" stroke="midnightblue" points="675.901,-195.248 665.311,-195.562 673.785,-201.921 675.901,-195.248"/>
</g>
<!-- Node7&#45;&gt;Node2 -->
<g id="edge38" class="edge"><title>Node7&#45;&gt;Node2</title>
<path fill="none" stroke="midnightblue" d="M673.063,-178.683C738.631,-168.595 867.473,-148.773 945.145,-136.824"/>
<polygon fill="midnightblue" stroke="midnightblue" points="945.936,-140.243 955.287,-135.264 944.871,-133.325 945.936,-140.243"/>
</g>
<!-- Node7&#45;&gt;Node4 -->
<g id="edge34" class="edge"><title>Node7&#45;&gt;Node4</title>
<path fill="none" stroke="midnightblue" d="M590.87,-174.941C558.387,-166.067 516.931,-152.344 507,-138 501.434,-129.961 500.481,-123.287 507,-116 532.85,-87.1037 801.77,-73.9221 895.776,-70.1727"/>
<polygon fill="midnightblue" stroke="midnightblue" points="895.985,-73.6674 905.841,-69.7809 895.713,-66.6726 895.985,-73.6674"/>
</g>
<!-- Node8 -->
<g id="node16" class="node"><title>Node8</title>
<polygon fill="white" stroke="#bfbfbf" points="292,-116.5 292,-137.5 338,-137.5 338,-116.5 292,-116.5"/>
<text text-anchor="middle" x="315" y="-124.5" font-family="Helvetica,sans-Serif" font-size="10.00">chrono</text>
</g>
<!-- Node7&#45;&gt;Node8 -->
<g id="edge16" class="edge"><title>Node7&#45;&gt;Node8</title>
<path fill="none" stroke="midnightblue" d="M590.846,-175.903C587.52,-175.235 584.207,-174.592 581,-174 480.657,-155.477 450.947,-162.726 348.123,-137.954"/>
<polygon fill="midnightblue" stroke="midnightblue" points="348.821,-134.521 338.275,-135.538 347.153,-141.32 348.821,-134.521"/>
</g>
<!-- Node9 -->
<g id="node18" class="node"><title>Node9</title>
<polygon fill="white" stroke="#bfbfbf" points="355.5,-116.5 355.5,-137.5 398.5,-137.5 398.5,-116.5 355.5,-116.5"/>
<text text-anchor="middle" x="377" y="-124.5" font-family="Helvetica,sans-Serif" font-size="10.00">cstdio</text>
</g>
<!-- Node7&#45;&gt;Node9 -->
<g id="edge18" class="edge"><title>Node7&#45;&gt;Node9</title>
<path fill="none" stroke="midnightblue" d="M590.81,-176.085C587.492,-175.376 584.19,-174.674 581,-174 506.904,-158.344 484.745,-159.52 408.582,-138.181"/>
<polygon fill="midnightblue" stroke="midnightblue" points="409.081,-134.684 398.505,-135.316 407.167,-141.417 409.081,-134.684"/>
</g>
<!-- Node10 -->
<g id="node20" class="node"><title>Node10</title>
<polygon fill="white" stroke="#bfbfbf" points="415.5,-116.5 415.5,-137.5 460.5,-137.5 460.5,-116.5 415.5,-116.5"/>
<text text-anchor="middle" x="438" y="-124.5" font-family="Helvetica,sans-Serif" font-size="10.00">cstdlib</text>
</g>
<!-- Node7&#45;&gt;Node10 -->
<g id="edge20" class="edge"><title>Node7&#45;&gt;Node10</title>
<path fill="none" stroke="midnightblue" d="M596.209,-174.436C564.171,-164.959 515.922,-150.64 474,-138 472.936,-137.679 471.855,-137.353 470.763,-137.022"/>
<polygon fill="midnightblue" stroke="midnightblue" points="471.431,-133.567 460.845,-134.008 469.396,-140.265 471.431,-133.567"/>
</g>
<!-- Node11 -->
<g id="node22" class="node"><title>Node11</title>
<polygon fill="white" stroke="#bfbfbf" points="516,-116.5 516,-137.5 566,-137.5 566,-116.5 516,-116.5"/>
<text text-anchor="middle" x="541" y="-124.5" font-family="Helvetica,sans-Serif" font-size="10.00">fstream</text>
</g>
<!-- Node7&#45;&gt;Node11 -->
<g id="edge22" class="edge"><title>Node7&#45;&gt;Node11</title>
<path fill="none" stroke="midnightblue" d="M615.309,-174.362C601.584,-165.614 581.916,-153.079 566.263,-143.101"/>
<polygon fill="midnightblue" stroke="midnightblue" points="567.899,-139.994 557.585,-137.571 564.137,-145.897 567.899,-139.994"/>
</g>
<!-- Node12 -->
<g id="node24" class="node"><title>Node12</title>
<polygon fill="white" stroke="#bfbfbf" points="584,-116.5 584,-137.5 638,-137.5 638,-116.5 584,-116.5"/>
<text text-anchor="middle" x="611" y="-124.5" font-family="Helvetica,sans-Serif" font-size="10.00">iostream</text>
</g>
<!-- Node7&#45;&gt;Node12 -->
<g id="edge24" class="edge"><title>Node7&#45;&gt;Node12</title>
<path fill="none" stroke="midnightblue" d="M628.148,-174.362C625.395,-166.758 621.606,-156.294 618.29,-147.135"/>
<polygon fill="midnightblue" stroke="midnightblue" points="621.523,-145.782 614.827,-137.571 614.941,-148.165 621.523,-145.782"/>
</g>
<!-- Node13 -->
<g id="node26" class="node"><title>Node13</title>
<polygon fill="white" stroke="#bfbfbf" points="655.5,-116.5 655.5,-137.5 702.5,-137.5 702.5,-116.5 655.5,-116.5"/>
<text text-anchor="middle" x="679" y="-124.5" font-family="Helvetica,sans-Serif" font-size="10.00">iterator</text>
</g>
<!-- Node7&#45;&gt;Node13 -->
<g id="edge26" class="edge"><title>Node7&#45;&gt;Node13</title>
<path fill="none" stroke="midnightblue" d="M640.621,-174.362C647.18,-166.268 656.366,-154.932 664.106,-145.38"/>
<polygon fill="midnightblue" stroke="midnightblue" points="666.858,-147.544 670.434,-137.571 661.419,-143.136 666.858,-147.544"/>
</g>
<!-- Node14 -->
<g id="node28" class="node"><title>Node14</title>
<polygon fill="white" stroke="#bfbfbf" points="720,-116.5 720,-137.5 772,-137.5 772,-116.5 720,-116.5"/>
<text text-anchor="middle" x="746" y="-124.5" font-family="Helvetica,sans-Serif" font-size="10.00">memory</text>
</g>
<!-- Node7&#45;&gt;Node14 -->
<g id="edge28" class="edge"><title>Node7&#45;&gt;Node14</title>
<path fill="none" stroke="midnightblue" d="M652.645,-174.497C670.37,-165.479 696.145,-152.365 716.123,-142.201"/>
<polygon fill="midnightblue" stroke="midnightblue" points="717.798,-145.275 725.124,-137.621 714.624,-139.036 717.798,-145.275"/>
</g>
<!-- Node15 -->
<g id="node30" class="node"><title>Node15</title>
<polygon fill="white" stroke="#bfbfbf" points="790,-116.5 790,-137.5 842,-137.5 842,-116.5 790,-116.5"/>
<text text-anchor="middle" x="816" y="-124.5" font-family="Helvetica,sans-Serif" font-size="10.00">sstream</text>
</g>
<!-- Node7&#45;&gt;Node15 -->
<g id="edge30" class="edge"><title>Node7&#45;&gt;Node15</title>
<path fill="none" stroke="midnightblue" d="M665.321,-174.497C697.7,-164.29 746.723,-148.837 779.988,-138.352"/>
<polygon fill="midnightblue" stroke="midnightblue" points="781.284,-141.613 789.769,-135.268 779.18,-134.937 781.284,-141.613"/>
</g>
<!-- Node16 -->
<g id="node32" class="node"><title>Node16</title>
<polygon fill="white" stroke="#bfbfbf" points="859.5,-116.5 859.5,-137.5 900.5,-137.5 900.5,-116.5 859.5,-116.5"/>
<text text-anchor="middle" x="880" y="-124.5" font-family="Helvetica,sans-Serif" font-size="10.00">string</text>
</g>
<!-- Node7&#45;&gt;Node16 -->
<g id="edge32" class="edge"><title>Node7&#45;&gt;Node16</title>
<path fill="none" stroke="midnightblue" d="M673.23,-178.074C715.522,-170.547 783.293,-157.312 849.47,-138.179"/>
<polygon fill="midnightblue" stroke="midnightblue" points="850.613,-141.491 859.22,-135.313 848.638,-134.775 850.613,-141.491"/>
</g>
<!-- Node17 -->
<g id="node35" class="node"><title>Node17</title>
<polygon fill="white" stroke="#bfbfbf" points="0,-116.5 0,-137.5 60,-137.5 60,-116.5 0,-116.5"/>
<text text-anchor="middle" x="30" y="-124.5" font-family="Helvetica,sans-Serif" font-size="10.00">sys/stat.h</text>
</g>
<!-- Node7&#45;&gt;Node17 -->
<g id="edge36" class="edge"><title>Node7&#45;&gt;Node17</title>
<path fill="none" stroke="midnightblue" d="M590.895,-175.609C587.557,-175.007 584.228,-174.459 581,-174 358.465,-142.342 295.565,-176.148 70.2505,-137.899"/>
<polygon fill="midnightblue" stroke="midnightblue" points="70.5428,-134.398 60.093,-136.145 69.3516,-141.296 70.5428,-134.398"/>
</g>
<!-- Node18 -->
<g id="node38" class="node"><title>Node18</title>
<polygon fill="white" stroke="#bfbfbf" points="77.5,-116.5 77.5,-137.5 152.5,-137.5 152.5,-116.5 77.5,-116.5"/>
<text text-anchor="middle" x="115" y="-124.5" font-family="Helvetica,sans-Serif" font-size="10.00">mm_malloc.h</text>
</g>
<!-- Node7&#45;&gt;Node18 -->
<g id="edge40" class="edge"><title>Node7&#45;&gt;Node18</title>
<path fill="none" stroke="midnightblue" d="M590.887,-175.664C587.551,-175.049 584.225,-174.484 581,-174 398.981,-146.682 347.746,-167.123 162.63,-138.073"/>
<polygon fill="midnightblue" stroke="midnightblue" points="162.99,-134.586 152.563,-136.465 161.886,-141.498 162.99,-134.586"/>
</g>
<!-- Node19 -->
<g id="node40" class="node"><title>Node19</title>
<a xlink:href="../../da/d69/optionparser_8h.html" target="_top" xlink:title="This is the only file required to use The Lean Mean C++ Option Parser. Just #include it and you&#39;re se...">
<polygon fill="white" stroke="black" points="170,-116.5 170,-137.5 274,-137.5 274,-116.5 170,-116.5"/>
<text text-anchor="middle" x="222" y="-124.5" font-family="Helvetica,sans-Serif" font-size="10.00">blond/optionparser.h</text>
</a>
</g>
<!-- Node7&#45;&gt;Node19 -->
<g id="edge42" class="edge"><title>Node7&#45;&gt;Node19</title>
<path fill="none" stroke="midnightblue" d="M590.867,-175.788C587.536,-175.145 584.216,-174.54 581,-174 452.646,-152.452 416.666,-157.573 284.329,-138.128"/>
<polygon fill="midnightblue" stroke="midnightblue" points="284.617,-134.632 274.21,-136.621 283.586,-141.556 284.617,-134.632"/>
</g>
<!-- Node20&#45;&gt;Node5 -->
<g id="edge96" class="edge"><title>Node20&#45;&gt;Node5</title>
<path fill="none" stroke="midnightblue" d="M918.352,-397.317C902.846,-420.346 871.25,-460.881 850.435,-484.495"/>
<polygon fill="midnightblue" stroke="midnightblue" points="847.681,-482.321 843.566,-492.085 852.871,-487.018 847.681,-482.321"/>
</g>
<!-- Node20&#45;&gt;Node6 -->
<g id="edge60" class="edge"><title>Node20&#45;&gt;Node6</title>
<path fill="none" stroke="midnightblue" d="M922.71,-362.9C918.108,-346.733 909.703,-322.293 897,-304 889.242,-292.828 878.742,-282.366 868.695,-273.68"/>
<polygon fill="midnightblue" stroke="midnightblue" points="870.724,-270.815 860.796,-267.117 866.25,-276.199 870.724,-270.815"/>
</g>
<!-- Node20&#45;&gt;Node21 -->
<g id="edge48" class="edge"><title>Node20&#45;&gt;Node21</title>
<path fill="none" stroke="midnightblue" d="M895.754,-362.922C880.604,-353.326 862.99,-341.394 849.869,-331.837"/>
<polygon fill="midnightblue" stroke="midnightblue" points="851.696,-328.834 841.588,-325.658 847.51,-334.444 851.696,-328.834"/>
</g>
<!-- Node22 -->
<g id="node53" class="node"><title>Node22</title>
<a xlink:href="../../d2/de2/math__functions_8h.html" target="_top" xlink:title="blond/math_functions.h">
<polygon fill="white" stroke="black" points="1182,-239.5 1182,-260.5 1300,-260.5 1300,-239.5 1182,-239.5"/>
<text text-anchor="middle" x="1241" y="-247.5" font-family="Helvetica,sans-Serif" font-size="10.00">blond/math_functions.h</text>
</a>
</g>
<!-- Node20&#45;&gt;Node22 -->
<g id="edge62" class="edge"><title>Node20&#45;&gt;Node22</title>
<path fill="none" stroke="midnightblue" d="M968.373,-362.871C1030.71,-337.061 1147.63,-288.656 1205.99,-264.493"/>
<polygon fill="midnightblue" stroke="midnightblue" points="1207.61,-267.611 1215.51,-260.552 1204.94,-261.143 1207.61,-267.611"/>
</g>
<!-- Node32 -->
<g id="node78" class="node"><title>Node32</title>
<a xlink:href="../../d2/d6f/constants_8h.html" target="_top" xlink:title="blond/constants.h">
<polygon fill="white" stroke="black" points="944,-304.5 944,-325.5 1038,-325.5 1038,-304.5 944,-304.5"/>
<text text-anchor="middle" x="991" y="-312.5" font-family="Helvetica,sans-Serif" font-size="10.00">blond/constants.h</text>
</a>
</g>
<!-- Node20&#45;&gt;Node32 -->
<g id="edge92" class="edge"><title>Node20&#45;&gt;Node32</title>
<path fill="none" stroke="midnightblue" d="M943.815,-362.922C952.843,-353.754 963.969,-342.454 973.15,-333.129"/>
<polygon fill="midnightblue" stroke="midnightblue" points="975.793,-335.433 980.315,-325.852 970.805,-330.522 975.793,-335.433"/>
</g>
<!-- Node21&#45;&gt;Node2 -->
<g id="edge52" class="edge"><title>Node21&#45;&gt;Node2</title>
<path fill="none" stroke="midnightblue" d="M851.896,-304.467C867.562,-295.951 888.973,-282.948 905,-268 945.37,-230.348 980.769,-175.218 997.956,-146.314"/>
<polygon fill="midnightblue" stroke="midnightblue" points="1001.04,-147.979 1003.07,-137.58 994.996,-144.443 1001.04,-147.979"/>
</g>
<!-- Node21&#45;&gt;Node5 -->
<g id="edge50" class="edge"><title>Node21&#45;&gt;Node5</title>
<path fill="none" stroke="midnightblue" d="M834.322,-325.53C838.495,-355.63 838.858,-442.439 835.411,-482.408"/>
<polygon fill="midnightblue" stroke="midnightblue" points="831.931,-482.036 834.338,-492.354 838.891,-482.787 831.931,-482.036"/>
</g>
<!-- Node21&#45;&gt;Node6 -->
<g id="edge56" class="edge"><title>Node21&#45;&gt;Node6</title>
<path fill="none" stroke="midnightblue" d="M831.991,-304.267C832.675,-296.852 833.618,-286.64 834.501,-277.074"/>
<polygon fill="midnightblue" stroke="midnightblue" points="837.987,-277.389 835.421,-267.11 831.016,-276.746 837.987,-277.389"/>
</g>
<!-- Node21&#45;&gt;Node7 -->
<g id="edge54" class="edge"><title>Node21&#45;&gt;Node7</title>
<path fill="none" stroke="midnightblue" d="M816.702,-304.193C804.126,-294.68 785.33,-280.444 769,-268 748.071,-252.052 744.189,-246.143 722,-232 703.438,-220.169 681.57,-208.697 664.038,-200.048"/>
<polygon fill="midnightblue" stroke="midnightblue" points="665.316,-196.778 654.793,-195.55 662.253,-203.073 665.316,-196.778"/>
</g>
<!-- Node21&#45;&gt;Node20 -->
<g id="edge58" class="edge"><title>Node21&#45;&gt;Node20</title>
<path fill="none" stroke="midnightblue" d="M851.895,-325.658C865.86,-334.105 884.195,-346.216 899.322,-356.862"/>
<polygon fill="midnightblue" stroke="midnightblue" points="897.63,-359.955 907.8,-362.922 901.7,-354.26 897.63,-359.955"/>
</g>
<!-- Node22&#45;&gt;Node2 -->
<g id="edge66" class="edge"><title>Node22&#45;&gt;Node2</title>
<path fill="none" stroke="midnightblue" d="M1215.73,-239.441C1191.56,-229.106 1154.26,-212.544 1123,-196 1091.55,-179.356 1056.74,-157.805 1033.96,-143.251"/>
<polygon fill="midnightblue" stroke="midnightblue" points="1035.57,-140.128 1025.27,-137.665 1031.79,-146.016 1035.57,-140.128"/>
</g>
<!-- Node22&#45;&gt;Node7 -->
<g id="edge84" class="edge"><title>Node22&#45;&gt;Node7</title>
<path fill="none" stroke="midnightblue" d="M1181.78,-243.679C1062.5,-230.948 795.195,-202.418 683.054,-190.449"/>
<polygon fill="midnightblue" stroke="midnightblue" points="683.33,-186.959 673.015,-189.378 682.587,-193.919 683.33,-186.959"/>
</g>
<!-- Node23 -->
<g id="node55" class="node"><title>Node23</title>
<polygon fill="white" stroke="#bfbfbf" points="1302,-174.5 1302,-195.5 1358,-195.5 1358,-174.5 1302,-174.5"/>
<text text-anchor="middle" x="1330" y="-182.5" font-family="Helvetica,sans-Serif" font-size="10.00">algorithm</text>
</g>
<!-- Node22&#45;&gt;Node23 -->
<g id="edge64" class="edge"><title>Node22&#45;&gt;Node23</title>
<path fill="none" stroke="midnightblue" d="M1255.7,-239.267C1269.69,-229.044 1290.97,-213.504 1307.18,-201.67"/>
<polygon fill="midnightblue" stroke="midnightblue" points="1309.57,-204.258 1315.58,-195.534 1305.44,-198.605 1309.57,-204.258"/>
</g>
<!-- Node24 -->
<g id="node58" class="node"><title>Node24</title>
<a xlink:href="../../d8/dcd/exp_8h.html" target="_top" xlink:title="blond/exp.h">
<polygon fill="white" stroke="black" points="1533.5,-174.5 1533.5,-195.5 1600.5,-195.5 1600.5,-174.5 1533.5,-174.5"/>
<text text-anchor="middle" x="1567" y="-182.5" font-family="Helvetica,sans-Serif" font-size="10.00">blond/exp.h</text>
</a>
</g>
<!-- Node22&#45;&gt;Node24 -->
<g id="edge68" class="edge"><title>Node22&#45;&gt;Node24</title>
<path fill="none" stroke="midnightblue" d="M1300.26,-239.947C1355.69,-230.27 1440.97,-214.678 1523.35,-196.283"/>
<polygon fill="midnightblue" stroke="midnightblue" points="1524.13,-199.694 1533.12,-194.085 1522.6,-192.865 1524.13,-199.694"/>
</g>
<!-- Node26 -->
<g id="node62" class="node"><title>Node26</title>
<polygon fill="white" stroke="#bfbfbf" points="1425,-0.5 1425,-21.5 1469,-21.5 1469,-0.5 1425,-0.5"/>
<text text-anchor="middle" x="1447" y="-8.5" font-family="Helvetica,sans-Serif" font-size="10.00">cmath</text>
</g>
<!-- Node22&#45;&gt;Node26 -->
<g id="edge86" class="edge"><title>Node22&#45;&gt;Node26</title>
<path fill="none" stroke="midnightblue" d="M1286.9,-239.413C1313.18,-231.321 1345.17,-217.758 1367,-196 1414.17,-148.987 1435.42,-69.6324 1443.22,-32.0042"/>
<polygon fill="midnightblue" stroke="midnightblue" points="1446.74,-32.2335 1445.22,-21.7481 1439.87,-30.8919 1446.74,-32.2335"/>
</g>
<!-- Node28 -->
<g id="node66" class="node"><title>Node28</title>
<a xlink:href="../../d1/d3d/sin_8h.html" target="_top" xlink:title="blond/sin.h">
<polygon fill="white" stroke="black" points="1452,-174.5 1452,-195.5 1516,-195.5 1516,-174.5 1452,-174.5"/>
<text text-anchor="middle" x="1484" y="-182.5" font-family="Helvetica,sans-Serif" font-size="10.00">blond/sin.h</text>
</a>
</g>
<!-- Node22&#45;&gt;Node28 -->
<g id="edge76" class="edge"><title>Node22&#45;&gt;Node28</title>
<path fill="none" stroke="midnightblue" d="M1280.31,-239.484C1324.64,-227.626 1396.46,-208.416 1441.9,-196.26"/>
<polygon fill="midnightblue" stroke="midnightblue" points="1442.98,-199.595 1451.74,-193.629 1441.17,-192.832 1442.98,-199.595"/>
</g>
<!-- Node30 -->
<g id="node74" class="node"><title>Node30</title>
<polygon fill="white" stroke="#bfbfbf" points="1131.5,-174.5 1131.5,-195.5 1180.5,-195.5 1180.5,-174.5 1131.5,-174.5"/>
<text text-anchor="middle" x="1156" y="-182.5" font-family="Helvetica,sans-Serif" font-size="10.00">cassert</text>
</g>
<!-- Node22&#45;&gt;Node30 -->
<g id="edge88" class="edge"><title>Node22&#45;&gt;Node30</title>
<path fill="none" stroke="midnightblue" d="M1226.96,-239.267C1213.6,-229.044 1193.27,-213.504 1177.8,-201.67"/>
<polygon fill="midnightblue" stroke="midnightblue" points="1179.84,-198.828 1169.77,-195.534 1175.59,-204.389 1179.84,-198.828"/>
</g>
<!-- Node31 -->
<g id="node76" class="node"><title>Node31</title>
<a xlink:href="../../d1/db0/openmp_8h.html" target="_top" xlink:title="blond/openmp.h">
<polygon fill="white" stroke="black" points="1198,-174.5 1198,-195.5 1284,-195.5 1284,-174.5 1198,-174.5"/>
<text text-anchor="middle" x="1241" y="-182.5" font-family="Helvetica,sans-Serif" font-size="10.00">blond/openmp.h</text>
</a>
</g>
<!-- Node22&#45;&gt;Node31 -->
<g id="edge90" class="edge"><title>Node22&#45;&gt;Node31</title>
<path fill="none" stroke="midnightblue" d="M1241,-239.267C1241,-230.18 1241,-216.892 1241,-205.74"/>
<polygon fill="midnightblue" stroke="midnightblue" points="1244.5,-205.534 1241,-195.534 1237.5,-205.534 1244.5,-205.534"/>
</g>
<!-- Node25 -->
<g id="node60" class="node"><title>Node25</title>
<a xlink:href="../../df/de1/vdtcore__common_8h.html" target="_top" xlink:title="vdtcore_common.h">
<polygon fill="white" stroke="black" points="1475,-58.5 1475,-79.5 1575,-79.5 1575,-58.5 1475,-58.5"/>
<text text-anchor="middle" x="1525" y="-66.5" font-family="Helvetica,sans-Serif" font-size="10.00">vdtcore_common.h</text>
</a>
</g>
<!-- Node24&#45;&gt;Node25 -->
<g id="edge70" class="edge"><title>Node24&#45;&gt;Node25</title>
<path fill="none" stroke="midnightblue" d="M1568.35,-174.291C1569.67,-160.352 1570.53,-135.474 1563,-116 1558.86,-105.283 1551.31,-95.1352 1544.02,-87.0303"/>
<polygon fill="midnightblue" stroke="midnightblue" points="1546.4,-84.4599 1536.96,-79.661 1541.35,-89.3029 1546.4,-84.4599"/>
</g>
<!-- Node27 -->
<g id="node64" class="node"><title>Node27</title>
<polygon fill="white" stroke="#bfbfbf" points="1514,-116.5 1514,-137.5 1554,-137.5 1554,-116.5 1514,-116.5"/>
<text text-anchor="middle" x="1534" y="-124.5" font-family="Helvetica,sans-Serif" font-size="10.00">limits</text>
</g>
<!-- Node24&#45;&gt;Node27 -->
<g id="edge74" class="edge"><title>Node24&#45;&gt;Node27</title>
<path fill="none" stroke="midnightblue" d="M1560.95,-174.362C1556.53,-166.595 1550.41,-155.843 1545.12,-146.546"/>
<polygon fill="midnightblue" stroke="midnightblue" points="1548,-144.531 1540.01,-137.571 1541.92,-147.993 1548,-144.531"/>
</g>
<!-- Node25&#45;&gt;Node26 -->
<g id="edge72" class="edge"><title>Node25&#45;&gt;Node26</title>
<path fill="none" stroke="midnightblue" d="M1510.69,-58.3619C1499.15,-49.7773 1482.7,-37.5459 1469.41,-27.6636"/>
<polygon fill="midnightblue" stroke="midnightblue" points="1471.33,-24.7291 1461.22,-21.5707 1467.15,-30.3463 1471.33,-24.7291"/>
</g>
<!-- Node29 -->
<g id="node68" class="node"><title>Node29</title>
<a xlink:href="../../dc/dfa/sincos_8h.html" target="_top" xlink:title="sincos.h">
<polygon fill="white" stroke="black" points="1443.5,-116.5 1443.5,-137.5 1496.5,-137.5 1496.5,-116.5 1443.5,-116.5"/>
<text text-anchor="middle" x="1470" y="-124.5" font-family="Helvetica,sans-Serif" font-size="10.00">sincos.h</text>
</a>
</g>
<!-- Node28&#45;&gt;Node29 -->
<g id="edge78" class="edge"><title>Node28&#45;&gt;Node29</title>
<path fill="none" stroke="midnightblue" d="M1481.43,-174.362C1479.62,-166.84 1477.13,-156.519 1474.93,-147.431"/>
<polygon fill="midnightblue" stroke="midnightblue" points="1478.3,-146.47 1472.55,-137.571 1471.5,-148.113 1478.3,-146.47"/>
</g>
<!-- Node29&#45;&gt;Node25 -->
<g id="edge80" class="edge"><title>Node29&#45;&gt;Node25</title>
<path fill="none" stroke="midnightblue" d="M1480.09,-116.362C1487.84,-108.186 1498.73,-96.7025 1507.85,-87.0907"/>
<polygon fill="midnightblue" stroke="midnightblue" points="1510.63,-89.2352 1514.98,-79.5707 1505.56,-84.4186 1510.63,-89.2352"/>
</g>
<!-- Node29&#45;&gt;Node26 -->
<g id="edge82" class="edge"><title>Node29&#45;&gt;Node26</title>
<path fill="none" stroke="midnightblue" d="M1467.88,-116.295C1464.06,-97.0451 1455.98,-56.2889 1451.07,-31.5091"/>
<polygon fill="midnightblue" stroke="midnightblue" points="1454.5,-30.8075 1449.12,-21.6792 1447.63,-32.169 1454.5,-30.8075"/>
</g>
<!-- Node32&#45;&gt;Node2 -->
<g id="edge94" class="edge"><title>Node32&#45;&gt;Node2</title>
<path fill="none" stroke="midnightblue" d="M992.019,-304.354C994.909,-274.172 1003.19,-187.656 1007.02,-147.693"/>
<polygon fill="midnightblue" stroke="midnightblue" points="1010.52,-147.818 1007.99,-137.53 1003.55,-147.15 1010.52,-147.818"/>
</g>
<!-- Node33&#45;&gt;Node2 -->
<g id="edge102" class="edge"><title>Node33&#45;&gt;Node2</title>
<path fill="none" stroke="midnightblue" d="M987.669,-434.376C1003.22,-414.548 1035.33,-369.926 1047,-326 1064.09,-261.644 1035.12,-183.645 1018.87,-147.375"/>
<polygon fill="midnightblue" stroke="midnightblue" points="1021.87,-145.511 1014.49,-137.907 1015.51,-148.452 1021.87,-145.511"/>
</g>
<!-- Node33&#45;&gt;Node7 -->
<g id="edge104" class="edge"><title>Node33&#45;&gt;Node7</title>
<path fill="none" stroke="midnightblue" d="M944.745,-434.449C920.092,-426.18 886.48,-413.496 859,-398 813.161,-372.151 803.268,-362.124 765,-326 724.897,-288.143 722.531,-271.455 684,-232 674.036,-221.798 662.298,-211.087 652.498,-202.471"/>
<polygon fill="midnightblue" stroke="midnightblue" points="654.647,-199.702 644.803,-195.784 650.055,-204.986 654.647,-199.702"/>
</g>
<!-- Node33&#45;&gt;Node20 -->
<g id="edge106" class="edge"><title>Node33&#45;&gt;Node20</title>
<path fill="none" stroke="midnightblue" d="M970.413,-434.267C964.04,-426.3 955.083,-415.104 946.959,-404.949"/>
<polygon fill="midnightblue" stroke="midnightblue" points="949.668,-402.732 940.688,-397.11 944.202,-407.105 949.668,-402.732"/>
</g>
<!-- Node34 -->
<g id="node88" class="node"><title>Node34</title>
<polygon fill="white" stroke="#bfbfbf" points="1079.5,-369.5 1079.5,-390.5 1114.5,-390.5 1114.5,-369.5 1079.5,-369.5"/>
<text text-anchor="middle" x="1097" y="-377.5" font-family="Helvetica,sans-Serif" font-size="10.00">map</text>
</g>
<!-- Node33&#45;&gt;Node34 -->
<g id="edge108" class="edge"><title>Node33&#45;&gt;Node34</title>
<path fill="none" stroke="midnightblue" d="M999.138,-434.347C1016.83,-424.932 1043.24,-410.754 1066,-398 1067.49,-397.163 1069.02,-396.299 1070.56,-395.422"/>
<polygon fill="midnightblue" stroke="midnightblue" points="1072.42,-398.392 1079.35,-390.375 1068.93,-392.322 1072.42,-398.392"/>
</g>
<!-- Node35&#45;&gt;Node2 -->
<g id="edge112" class="edge"><title>Node35&#45;&gt;Node2</title>
<path fill="none" stroke="midnightblue" d="M583.134,-239.407C668.231,-216.945 866.568,-164.595 959.41,-140.089"/>
<polygon fill="midnightblue" stroke="midnightblue" points="960.352,-143.46 969.128,-137.524 958.566,-136.692 960.352,-143.46"/>
</g>
<!-- Node35&#45;&gt;Node7 -->
<g id="edge114" class="edge"><title>Node35&#45;&gt;Node7</title>
<path fill="none" stroke="midnightblue" d="M557.697,-239.267C571.694,-229.044 592.971,-213.504 609.175,-201.67"/>
<polygon fill="midnightblue" stroke="midnightblue" points="611.566,-204.258 617.577,-195.534 607.437,-198.605 611.566,-204.258"/>
</g>
<!-- Node36 -->
<g id="node94" class="node"><title>Node36</title>
<polygon fill="white" stroke="#bfbfbf" points="513.5,-174.5 513.5,-195.5 572.5,-195.5 572.5,-174.5 513.5,-174.5"/>
<text text-anchor="middle" x="543" y="-182.5" font-family="Helvetica,sans-Serif" font-size="10.00">functional</text>
</g>
<!-- Node35&#45;&gt;Node36 -->
<g id="edge116" class="edge"><title>Node35&#45;&gt;Node36</title>
<path fill="none" stroke="midnightblue" d="M543,-239.267C543,-230.18 543,-216.892 543,-205.74"/>
<polygon fill="midnightblue" stroke="midnightblue" points="546.5,-205.534 543,-195.534 539.5,-205.534 546.5,-205.534"/>
</g>
<!-- Node37&#45;&gt;Node2 -->
<g id="edge120" class="edge"><title>Node37&#45;&gt;Node2</title>
<path fill="none" stroke="midnightblue" d="M803.155,-556.127C914.025,-545.353 1142,-514.723 1142,-445 1142,-445 1142,-445 1142,-380 1142,-281.785 1062.5,-184.21 1026.43,-144.992"/>
<polygon fill="midnightblue" stroke="midnightblue" points="1028.83,-142.432 1019.44,-137.529 1023.72,-147.219 1028.83,-142.432"/>
</g>
<!-- Node37&#45;&gt;Node5 -->
<g id="edge122" class="edge"><title>Node37&#45;&gt;Node5</title>
<path fill="none" stroke="midnightblue" d="M759.957,-550.362C772.957,-541.696 791.531,-529.313 806.427,-519.382"/>
<polygon fill="midnightblue" stroke="midnightblue" points="808.765,-522.03 815.144,-513.571 804.882,-516.206 808.765,-522.03"/>
</g>
<!-- Node37&#45;&gt;Node7 -->
<g id="edge124" class="edge"><title>Node37&#45;&gt;Node7</title>
<path fill="none" stroke="midnightblue" d="M731.11,-550.3C709.909,-531.417 670,-489.909 670,-445 670,-445 670,-445 670,-315 670,-274.7 652.968,-230.094 641.71,-205.01"/>
<polygon fill="midnightblue" stroke="midnightblue" points="644.828,-203.414 637.444,-195.816 638.478,-206.36 644.828,-203.414"/>
</g>
</g>
</svg>
