<?xml version="1.0" encoding="UTF-8" standalone="no"?>
<!DOCTYPE svg PUBLIC "-//W3C//DTD SVG 1.1//EN"
 "http://www.w3.org/Graphics/SVG/1.1/DTD/svg11.dtd">
<!-- Generated by graphviz version 2.26.3 (20100126.1600)
 -->
<!-- Title: blond::vdt::fast_sin Pages: 1 -->
<!--zoomable 232 -->
<svg id="main" version="1.1" xmlns="http://www.w3.org/2000/svg" xmlns:xlink="http://www.w3.org/1999/xlink" xml:space="preserve" onload="init(evt)">
        <defs>
                <circle id="rim" cx="0" cy="0" r="7"/>
                <circle id="rim2" cx="0" cy="0" r="3.5"/>
                <g id="zoomPlus">
                        <use xlink:href="#rim" fill="#404040">
                                <set attributeName="fill" to="#808080" begin="zoomplus.mouseover" end="zoomplus.mouseout"/>
                        </use>
                        <path d="M-4,0h8M0,-4v8" fill="none" stroke="white" stroke-width="1.5" pointer-events="none"/>
                </g>
                <g id="zoomMin">
                        <use xlink:href="#rim" fill="#404040">
                                <set attributeName="fill" to="#808080" begin="zoomminus.mouseover" end="zoomminus.mouseout"/>
                        </use>
                        <path d="M-4,0h8" fill="none" stroke="white" stroke-width="1.5" pointer-events="none"/>
                </g>
                <g id="dirArrow">
                        <path fill="none" stroke="white" stroke-width="1.5" d="M0,-3.0v7 M-2.5,-0.5L0,-3.0L2.5,-0.5"/>
                </g>
               <g id="resetDef">
                       <use xlink:href="#rim2" fill="#404040">
                               <set attributeName="fill" to="#808080" begin="reset.mouseover" end="reset.mouseout"/>
                       </use>
               </g>
        </defs>

<script type="text/javascript">
var viewWidth = 736;
var viewHeight = 232;
var sectionId = 'dynsection-4';
</script>
<script xlink:href="../../svgpan.js"/>
<svg id="graph" class="graph">
<g id="viewport">
<title>blond::vdt::fast_sin</title>
<polygon fill="white" stroke="white" points="-4,5 -4,-228 733,-228 733,5 -4,5"/>
<!-- Node1 -->
<g id="node1" class="node"><title>Node1</title>
<polygon fill="#bfbfbf" stroke="black" points="0,-130.5 0,-151.5 100,-151.5 100,-130.5 0,-130.5"/>
<text text-anchor="middle" x="50" y="-138.5" font-family="Helvetica,sans-Serif" font-size="10.00">blond::vdt::fast_sin</text>
</g>
<!-- Node2 -->
<g id="node3" class="node"><title>Node2</title>
<a xlink:href="../../dc/d3e/namespaceblond_1_1mymath.html#ab42c47780533d15c41a9f2338bdf7adb" target="_top" xlink:title="blond::mymath::fast_cos">
<polygon fill="white" stroke="black" points="136.5,-150.5 136.5,-171.5 261.5,-171.5 261.5,-150.5 136.5,-150.5"/>
<text text-anchor="middle" x="199" y="-158.5" font-family="Helvetica,sans-Serif" font-size="10.00">blond::mymath::fast_cos</text>
</a>
</g>
<!-- Node1&#45;&gt;Node2 -->
<g id="edge2" class="edge"><title>Node1&#45;&gt;Node2</title>
<path fill="none" stroke="midnightblue" d="M110.057,-149.061C118.731,-150.226 127.677,-151.426 136.399,-152.597"/>
<polygon fill="midnightblue" stroke="midnightblue" points="110.406,-145.577 100.029,-147.715 109.475,-152.515 110.406,-145.577"/>
</g>
<!-- Node8 -->
<g id="node15" class="node"><title>Node8</title>
<a xlink:href="../../dc/d3e/namespaceblond_1_1mymath.html#ab346536245c573512b391c0a76c01551" target="_top" xlink:title="blond::mymath::fast_sin">
<polygon fill="white" stroke="black" points="138,-110.5 138,-131.5 260,-131.5 260,-110.5 138,-110.5"/>
<text text-anchor="middle" x="199" y="-118.5" font-family="Helvetica,sans-Serif" font-size="10.00">blond::mymath::fast_sin</text>
</a>
</g>
<!-- Node1&#45;&gt;Node8 -->
<g id="edge14" class="edge"><title>Node1&#45;&gt;Node8</title>
<path fill="none" stroke="midnightblue" d="M110.205,-132.919C119.358,-131.69 128.81,-130.422 137.98,-129.191"/>
<polygon fill="midnightblue" stroke="midnightblue" points="109.475,-129.485 100.029,-134.285 110.406,-136.423 109.475,-129.485"/>
</g>
<!-- Node3 -->
<g id="node5" class="node"><title>Node3</title>
<a xlink:href="../../d5/d60/namespaceblond.html#a106e399c7476038d62c238d5bcaa2a86" target="_top" xlink:title="blond::hamiltonian">
<polygon fill="white" stroke="black" points="316.5,-170.5 316.5,-191.5 411.5,-191.5 411.5,-170.5 316.5,-170.5"/>
<text text-anchor="middle" x="364" y="-178.5" font-family="Helvetica,sans-Serif" font-size="10.00">blond::hamiltonian</text>
</a>
</g>
<!-- Node2&#45;&gt;Node3 -->
<g id="edge4" class="edge"><title>Node2&#45;&gt;Node3</title>
<path fill="none" stroke="midnightblue" d="M272.161,-169.868C287.188,-171.689 302.633,-173.562 316.468,-175.239"/>
<polygon fill="midnightblue" stroke="midnightblue" points="272.199,-166.347 261.85,-168.618 271.356,-173.296 272.199,-166.347"/>
</g>
<!-- Node7 -->
<g id="node13" class="node"><title>Node7</title>
<a xlink:href="../../d9/d12/classblond_1_1Music.html#a2016c0b24cc8359176692b37f8f1917e" target="_top" xlink:title="blond::Music::track">
<polygon fill="white" stroke="black" points="314,-130.5 314,-151.5 414,-151.5 414,-130.5 314,-130.5"/>
<text text-anchor="middle" x="364" y="-138.5" font-family="Helvetica,sans-Serif" font-size="10.00">blond::Music::track</text>
</a>
</g>
<!-- Node2&#45;&gt;Node7 -->
<g id="edge12" class="edge"><title>Node2&#45;&gt;Node7</title>
<path fill="none" stroke="midnightblue" d="M272.05,-152.145C286.182,-150.432 300.689,-148.674 313.883,-147.075"/>
<polygon fill="midnightblue" stroke="midnightblue" points="271.356,-148.704 261.85,-153.382 272.199,-155.653 271.356,-148.704"/>
</g>
<!-- Node4 -->
<g id="node7" class="node"><title>Node4</title>
<a xlink:href="../../d5/d60/namespaceblond.html#acbee17d469bcfbb3c1248eb200bc1f37" target="_top" xlink:title="blond::is_in_separatrix">
<polygon fill="white" stroke="black" points="466,-170.5 466,-191.5 580,-191.5 580,-170.5 466,-170.5"/>
<text text-anchor="middle" x="523" y="-178.5" font-family="Helvetica,sans-Serif" font-size="10.00">blond::is_in_separatrix</text>
</a>
</g>
<!-- Node3&#45;&gt;Node4 -->
<g id="edge6" class="edge"><title>Node3&#45;&gt;Node4</title>
<path fill="none" stroke="midnightblue" d="M421.911,-181C436.213,-181 451.523,-181 465.79,-181"/>
<polygon fill="midnightblue" stroke="midnightblue" points="421.705,-177.5 411.705,-181 421.705,-184.5 421.705,-177.5"/>
</g>
<!-- Node5 -->
<g id="node9" class="node"><title>Node5</title>
<a xlink:href="../../d5/d60/namespaceblond.html#a4828be53be1c19b4953c81929830f4ef" target="_top" xlink:title="blond::longitudinal\l_bigaussian">
<polygon fill="white" stroke="black" points="624.5,-190 624.5,-224 719.5,-224 719.5,-190 624.5,-190"/>
<text text-anchor="start" x="632.5" y="-211" font-family="Helvetica,sans-Serif" font-size="10.00">blond::longitudinal</text>
<text text-anchor="middle" x="672" y="-198" font-family="Helvetica,sans-Serif" font-size="10.00">_bigaussian</text>
</a>
</g>
<!-- Node4&#45;&gt;Node5 -->
<g id="edge8" class="edge"><title>Node4&#45;&gt;Node5</title>
<path fill="none" stroke="midnightblue" d="M590.227,-192.731C601.759,-194.743 613.525,-196.796 624.407,-198.695"/>
<polygon fill="midnightblue" stroke="midnightblue" points="590.634,-189.249 580.181,-190.978 589.431,-196.145 590.634,-189.249"/>
</g>
<!-- Node6 -->
<g id="node11" class="node"><title>Node6</title>
<a xlink:href="../../d5/d0c/classblond_1_1Beams.html#a76e4b807fd1a83ae8fe190a774acaa19" target="_top" xlink:title="blond::Beams::losses\l_separatrix">
<polygon fill="white" stroke="black" points="616.5,-138 616.5,-172 727.5,-172 727.5,-138 616.5,-138"/>
<text text-anchor="start" x="624.5" y="-159" font-family="Helvetica,sans-Serif" font-size="10.00">blond::Beams::losses</text>
<text text-anchor="middle" x="672" y="-146" font-family="Helvetica,sans-Serif" font-size="10.00">_separatrix</text>
</a>
</g>
<!-- Node4&#45;&gt;Node6 -->
<g id="edge10" class="edge"><title>Node4&#45;&gt;Node6</title>
<path fill="none" stroke="midnightblue" d="M590.27,-169.262C598.94,-167.749 607.742,-166.213 616.2,-164.737"/>
<polygon fill="midnightblue" stroke="midnightblue" points="589.431,-165.855 580.181,-171.022 590.634,-172.751 589.431,-165.855"/>
</g>
<!-- Node8&#45;&gt;Node3 -->
<g id="edge16" class="edge"><title>Node8&#45;&gt;Node3</title>
<path fill="none" stroke="midnightblue" d="M246.127,-134.819C251.538,-136.741 256.929,-138.813 262,-141 278.806,-148.25 281.146,-153.861 298,-161 306.268,-164.502 315.357,-167.669 324.075,-170.396"/>
<polygon fill="midnightblue" stroke="midnightblue" points="247.024,-131.427 236.43,-131.527 244.774,-138.055 247.024,-131.427"/>
</g>
<!-- Node8&#45;&gt;Node7 -->
<g id="edge26" class="edge"><title>Node8&#45;&gt;Node7</title>
<path fill="none" stroke="midnightblue" d="M270.457,-129.661C285.067,-131.432 300.149,-133.26 313.823,-134.918"/>
<polygon fill="midnightblue" stroke="midnightblue" points="270.788,-126.176 260.44,-128.447 269.946,-133.125 270.788,-126.176"/>
</g>
<!-- Node9 -->
<g id="node18" class="node"><title>Node9</title>
<a xlink:href="../../d7/df8/classblond_1_1RingAndRfSection.html#a10f29492bc5c4da2f978d76e6ffef564" target="_top" xlink:title="blond::RingAndRfSection\l::kick">
<polygon fill="white" stroke="black" points="300.5,-78 300.5,-112 427.5,-112 427.5,-78 300.5,-78"/>
<text text-anchor="start" x="308.5" y="-99" font-family="Helvetica,sans-Serif" font-size="10.00">blond::RingAndRfSection</text>
<text text-anchor="middle" x="364" y="-86" font-family="Helvetica,sans-Serif" font-size="10.00">::kick</text>
</a>
</g>
<!-- Node8&#45;&gt;Node9 -->
<g id="edge18" class="edge"><title>Node8&#45;&gt;Node9</title>
<path fill="none" stroke="midnightblue" d="M270.628,-109.713C280.501,-108.157 290.586,-106.568 300.303,-105.037"/>
<polygon fill="midnightblue" stroke="midnightblue" points="269.773,-106.305 260.44,-111.319 270.863,-113.219 269.773,-106.305"/>
</g>
<!-- Node10 -->
<g id="node20" class="node"><title>Node10</title>
<a xlink:href="../../dc/d8c/classblond_1_1FullRingAndRf.html#a76ca8401684654596782338b81268ef2" target="_top" xlink:title="blond::FullRingAndRf\l::potential_well_generation">
<polygon fill="white" stroke="black" points="298,-26 298,-60 430,-60 430,-26 298,-26"/>
<text text-anchor="start" x="306" y="-47" font-family="Helvetica,sans-Serif" font-size="10.00">blond::FullRingAndRf</text>
<text text-anchor="middle" x="364" y="-34" font-family="Helvetica,sans-Serif" font-size="10.00">::potential_well_generation</text>
</a>
</g>
<!-- Node8&#45;&gt;Node10 -->
<g id="edge20" class="edge"><title>Node8&#45;&gt;Node10</title>
<path fill="none" stroke="midnightblue" d="M226.668,-105.435C246.301,-94.6463 273.426,-80.2539 298,-69 304.606,-65.9746 311.673,-62.9627 318.637,-60.1187"/>
<polygon fill="midnightblue" stroke="midnightblue" points="224.729,-102.508 217.675,-110.413 228.119,-108.632 224.729,-102.508"/>
</g>
<!-- Node11 -->
<g id="node22" class="node"><title>Node11</title>
<a xlink:href="../../d5/d60/namespaceblond.html#aebe061e211acc5564fd70cc5db1d3c12" target="_top" xlink:title="blond::matched_from\l_distribution_density">
<polygon fill="white" stroke="black" points="469,-0 469,-34 577,-34 577,-0 469,-0"/>
<text text-anchor="start" x="477" y="-21" font-family="Helvetica,sans-Serif" font-size="10.00">blond::matched_from</text>
<text text-anchor="middle" x="523" y="-8" font-family="Helvetica,sans-Serif" font-size="10.00">_distribution_density</text>
</a>
</g>
<!-- Node10&#45;&gt;Node11 -->
<g id="edge22" class="edge"><title>Node10&#45;&gt;Node11</title>
<path fill="none" stroke="midnightblue" d="M440.153,-30.5473C449.896,-28.9541 459.706,-27.3499 468.997,-25.8308"/>
<polygon fill="midnightblue" stroke="midnightblue" points="439.353,-27.1315 430.049,-32.1995 440.483,-34.0398 439.353,-27.1315"/>
</g>
<!-- Node12 -->
<g id="node24" class="node"><title>Node12</title>
<a xlink:href="../../d5/d60/namespaceblond.html#a87deee1fff62742855312a1fedec871d" target="_top" xlink:title="blond::matched_from\l_line_density">
<polygon fill="white" stroke="black" points="469,-52 469,-86 577,-86 577,-52 469,-52"/>
<text text-anchor="start" x="477" y="-73" font-family="Helvetica,sans-Serif" font-size="10.00">blond::matched_from</text>
<text text-anchor="middle" x="523" y="-60" font-family="Helvetica,sans-Serif" font-size="10.00">_line_density</text>
</a>
</g>
<!-- Node10&#45;&gt;Node12 -->
<g id="edge24" class="edge"><title>Node10&#45;&gt;Node12</title>
<path fill="none" stroke="midnightblue" d="M440.153,-55.4527C449.896,-57.0459 459.706,-58.6501 468.997,-60.1692"/>
<polygon fill="midnightblue" stroke="midnightblue" points="440.483,-51.9602 430.049,-53.8005 439.353,-58.8685 440.483,-51.9602"/>
</g>
</g>
</svg>
        <g id="navigator" transform="translate(0 0)" fill="#404254">
                <rect fill="#f2f5e9" fill-opacity="0.5" stroke="#606060" stroke-width=".5" x="0" y="0" width="60" height="60"/>
                <use id="zoomplus" xlink:href="#zoomPlus" x="17" y="9" onmousedown="handleZoom(evt,'in')"/>
                <use id="zoomminus" xlink:href="#zoomMin" x="42" y="9" onmousedown="handleZoom(evt,'out')"/>
                <use id="reset" xlink:href="#resetDef" x="30" y="36" onmousedown="handleReset()"/>
                <g id="arrowUp" xlink:href="#dirArrow" transform="translate(30 24)" onmousedown="handlePan(0,-1)">
                  <use xlink:href="#rim" fill="#404040">
                        <set attributeName="fill" to="#808080" begin="arrowUp.mouseover" end="arrowUp.mouseout"/>
                  </use>
                  <path fill="none" stroke="white" stroke-width="1.5" d="M0,-3.0v7 M-2.5,-0.5L0,-3.0L2.5,-0.5"/>
                </g>
                <g id="arrowRight" xlink:href="#dirArrow" transform="rotate(90) translate(36 -43)" onmousedown="handlePan(1,0)">
                  <use xlink:href="#rim" fill="#404040">
                        <set attributeName="fill" to="#808080" begin="arrowRight.mouseover" end="arrowRight.mouseout"/>
                  </use>
                  <path fill="none" stroke="white" stroke-width="1.5" d="M0,-3.0v7 M-2.5,-0.5L0,-3.0L2.5,-0.5"/>
                </g>
                <g id="arrowDown" xlink:href="#dirArrow" transform="rotate(180) translate(-30 -48)" onmousedown="handlePan(0,1)">
                  <use xlink:href="#rim" fill="#404040">
                        <set attributeName="fill" to="#808080" begin="arrowDown.mouseover" end="arrowDown.mouseout"/>
                  </use>
                  <path fill="none" stroke="white" stroke-width="1.5" d="M0,-3.0v7 M-2.5,-0.5L0,-3.0L2.5,-0.5"/>
                </g>
                <g id="arrowLeft" xlink:href="#dirArrow" transform="rotate(270) translate(-36 17)" onmousedown="handlePan(-1,0)">
                  <use xlink:href="#rim" fill="#404040">
                        <set attributeName="fill" to="#808080" begin="arrowLeft.mouseover" end="arrowLeft.mouseout"/>
                  </use>
                  <path fill="none" stroke="white" stroke-width="1.5" d="M0,-3.0v7 M-2.5,-0.5L0,-3.0L2.5,-0.5"/>
                </g>
        </g>
        <svg viewBox="0 0 15 15" width="100%" height="30px" preserveAspectRatio="xMaxYMin meet">
         <g id="arrow_out" transform="scale(0.3 0.3)">
          <a xlink:href="namespaceblond_1_1vdt_ae8ed88b8591aa51524029d3a7aceb2b7_icgraph_org.svg" target="_base">
           <rect id="button" ry="5" rx="5" y="6" x="6" height="38" width="38"
                fill="#f2f5e9" fill-opacity="0.5" stroke="#606060" stroke-width="1.0"/>
           <path id="arrow"
             d="M 11.500037,31.436501 C 11.940474,20.09759 22.043105,11.32322 32.158766,21.979434 L 37.068811,17.246167 C 37.068811,17.246167 37.088388,32 37.088388,32 L 22.160133,31.978069 C 22.160133,31.978069 26.997745,27.140456 26.997745,27.140456 C 18.528582,18.264221 13.291696,25.230495 11.500037,31.436501 z"
             style="fill:#404040;"/>
          </a>
         </g>
        </svg>
</svg>
