<?xml version="1.0" encoding="UTF-8" standalone="no"?>
<!DOCTYPE svg PUBLIC "-//W3C//DTD SVG 1.1//EN"
 "http://www.w3.org/Graphics/SVG/1.1/DTD/svg11.dtd">
<!-- Generated by graphviz version 2.26.3 (20100126.1600)
 -->
<!-- Title: blond::vdt::fast_sincosf Pages: 1 -->
<svg width="280pt" height="94pt"
 viewBox="0.00 0.00 280.00 94.00" xmlns="http://www.w3.org/2000/svg" xmlns:xlink="http://www.w3.org/1999/xlink">
<g id="graph1" class="graph" transform="scale(1 1) rotate(0) translate(4 90)">
<title>blond::vdt::fast_sincosf</title>
<polygon fill="white" stroke="white" points="-4,5 -4,-90 277,-90 277,5 -4,5"/>
<!-- Node1 -->
<g id="node1" class="node"><title>Node1</title>
<polygon fill="#bfbfbf" stroke="black" points="0.5,-32.5 0.5,-53.5 119.5,-53.5 119.5,-32.5 0.5,-32.5"/>
<text text-anchor="middle" x="60" y="-40.5" font-family="Helvetica,sans-Serif" font-size="10.00">blond::vdt::fast_sincosf</text>
</g>
<!-- Node2 -->
<g id="node3" class="node"><title>Node2</title>
<a xlink:href="../../d0/dad/namespaceblond_1_1vdt_1_1details.html#a5de0091777b5b8267f2027c7ea1cb2dd" target="_top" xlink:title="Sincos only for &#45;45deg &lt; x &lt; 45deg.">
<polygon fill="white" stroke="black" points="156,-52 156,-86 272,-86 272,-52 156,-52"/>
<text text-anchor="start" x="164" y="-73" font-family="Helvetica,sans-Serif" font-size="10.00">blond::vdt::details</text>
<text text-anchor="middle" x="214" y="-60" font-family="Helvetica,sans-Serif" font-size="10.00">::fast_sincosf_m45_45</text>
</a>
</g>
<!-- Node1&#45;&gt;Node2 -->
<g id="edge2" class="edge"><title>Node1&#45;&gt;Node2</title>
<path fill="none" stroke="midnightblue" d="M119.54,-53.0523C128.211,-54.5162 137.194,-56.0328 146.017,-57.5223"/>
<polygon fill="midnightblue" stroke="midnightblue" points="145.442,-60.9746 155.885,-59.1883 146.607,-54.0723 145.442,-60.9746"/>
</g>
<!-- Node3 -->
<g id="node5" class="node"><title>Node3</title>
<a xlink:href="../../d0/dad/namespaceblond_1_1vdt_1_1details.html#a71961342755aa7fdf6302a229da05aa6" target="_top" xlink:title="Reduce to 0 to 45.">
<polygon fill="white" stroke="black" points="166.5,-0 166.5,-34 261.5,-34 261.5,-0 166.5,-0"/>
<text text-anchor="start" x="174.5" y="-21" font-family="Helvetica,sans-Serif" font-size="10.00">blond::vdt::details</text>
<text text-anchor="middle" x="214" y="-8" font-family="Helvetica,sans-Serif" font-size="10.00">::reduce2quadrant</text>
</a>
</g>
<!-- Node1&#45;&gt;Node3 -->
<g id="edge4" class="edge"><title>Node1&#45;&gt;Node3</title>
<path fill="none" stroke="midnightblue" d="M119.54,-32.9477C131.575,-30.9159 144.211,-28.7826 156.185,-26.761"/>
<polygon fill="midnightblue" stroke="midnightblue" points="156.782,-30.2098 166.06,-25.0938 155.617,-23.3074 156.782,-30.2098"/>
</g>
</g>
</svg>
