<?xml version="1.0" encoding="UTF-8" standalone="no"?>
<!DOCTYPE svg PUBLIC "-//W3C//DTD SVG 1.1//EN"
 "http://www.w3.org/Graphics/SVG/1.1/DTD/svg11.dtd">
<!-- Generated by graphviz version 2.26.3 (20100126.1600)
 -->
<!-- Title: blond::vdt::fast_exp Pages: 1 -->
<svg width="410pt" height="30pt"
 viewBox="0.00 0.00 410.00 30.00" xmlns="http://www.w3.org/2000/svg" xmlns:xlink="http://www.w3.org/1999/xlink">
<g id="graph1" class="graph" transform="scale(1 1) rotate(0) translate(4 26)">
<title>blond::vdt::fast_exp</title>
<polygon fill="white" stroke="white" points="-4,5 -4,-26 407,-26 407,5 -4,5"/>
<!-- Node1 -->
<g id="node1" class="node"><title>Node1</title>
<polygon fill="#bfbfbf" stroke="black" points="0.5,-0.5 0.5,-21.5 103.5,-21.5 103.5,-0.5 0.5,-0.5"/>
<text text-anchor="middle" x="52" y="-8.5" font-family="Helvetica,sans-Serif" font-size="10.00">blond::vdt::fast_exp</text>
</g>
<!-- Node2 -->
<g id="node3" class="node"><title>Node2</title>
<a xlink:href="../../dc/d3e/namespaceblond_1_1mymath.html#aab8fbc26ad7c1ccf281977c57d892512" target="_top" xlink:title="blond::mymath::fast_exp">
<polygon fill="white" stroke="black" points="140.5,-0.5 140.5,-21.5 265.5,-21.5 265.5,-0.5 140.5,-0.5"/>
<text text-anchor="middle" x="203" y="-8.5" font-family="Helvetica,sans-Serif" font-size="10.00">blond::mymath::fast_exp</text>
</a>
</g>
<!-- Node1&#45;&gt;Node2 -->
<g id="edge2" class="edge"><title>Node1&#45;&gt;Node2</title>
<path fill="none" stroke="midnightblue" d="M113.743,-11C122.558,-11 131.632,-11 140.463,-11"/>
<polygon fill="midnightblue" stroke="midnightblue" points="113.543,-7.5001 103.543,-11 113.543,-14.5001 113.543,-7.5001"/>
</g>
<!-- Node3 -->
<g id="node5" class="node"><title>Node3</title>
<a xlink:href="../../d9/d12/classblond_1_1Music.html#a2016c0b24cc8359176692b37f8f1917e" target="_top" xlink:title="blond::Music::track">
<polygon fill="white" stroke="black" points="302,-0.5 302,-21.5 402,-21.5 402,-0.5 302,-0.5"/>
<text text-anchor="middle" x="352" y="-8.5" font-family="Helvetica,sans-Serif" font-size="10.00">blond::Music::track</text>
</a>
</g>
<!-- Node2&#45;&gt;Node3 -->
<g id="edge4" class="edge"><title>Node2&#45;&gt;Node3</title>
<path fill="none" stroke="midnightblue" d="M276.029,-11C284.814,-11 293.626,-11 301.977,-11"/>
<polygon fill="midnightblue" stroke="midnightblue" points="275.758,-7.5001 265.758,-11 275.758,-14.5001 275.758,-7.5001"/>
</g>
</g>
</svg>
