<?xml version="1.0" encoding="UTF-8" standalone="no"?>
<!DOCTYPE svg PUBLIC "-//W3C//DTD SVG 1.1//EN"
 "http://www.w3.org/Graphics/SVG/1.1/DTD/svg11.dtd">
<!-- Generated by graphviz version 2.26.3 (20100126.1600)
 -->
<!-- Title: Slices.h Pages: 1 -->
<svg width="862pt" height="320pt"
 viewBox="0.00 0.00 862.00 320.00" xmlns="http://www.w3.org/2000/svg" xmlns:xlink="http://www.w3.org/1999/xlink">
<g id="graph1" class="graph" transform="scale(1 1) rotate(0) translate(4 316)">
<title>Slices.h</title>
<polygon fill="white" stroke="white" points="-4,5 -4,-316 858.998,-316 858.998,5 -4,5"/>
<!-- Node1 -->
<g id="node1" class="node"><title>Node1</title>
<polygon fill="#bfbfbf" stroke="black" points="510.998,-290.5 510.998,-311.5 562.998,-311.5 562.998,-290.5 510.998,-290.5"/>
<text text-anchor="middle" x="536.998" y="-298.5" font-family="Helvetica,sans-Serif" font-size="10.00">Slices.h</text>
</g>
<!-- Node2 -->
<g id="node3" class="node"><title>Node2</title>
<a xlink:href="../../d7/d91/Slices_8cpp.html" target="_top" xlink:title="Slices.cpp">
<polygon fill="white" stroke="black" points="13.9983,-174.5 13.9983,-195.5 75.9983,-195.5 75.9983,-174.5 13.9983,-174.5"/>
<text text-anchor="middle" x="44.9983" y="-182.5" font-family="Helvetica,sans-Serif" font-size="10.00">Slices.cpp</text>
</a>
</g>
<!-- Node1&#45;&gt;Node2 -->
<g id="edge2" class="edge"><title>Node1&#45;&gt;Node2</title>
<path fill="none" stroke="midnightblue" d="M500.805,-293.152C423.963,-276.367 238.947,-235.302 84.9983,-196 82.2069,-195.287 79.3113,-194.529 76.4121,-193.756"/>
<polygon fill="midnightblue" stroke="midnightblue" points="500.399,-296.646 510.915,-295.357 501.891,-289.806 500.399,-296.646"/>
</g>
<!-- Node3 -->
<g id="node5" class="node"><title>Node3</title>
<a xlink:href="../../d5/d87/globals_8h.html" target="_top" xlink:title="globals.h">
<polygon fill="white" stroke="black" points="339.998,-232.5 339.998,-253.5 395.998,-253.5 395.998,-232.5 339.998,-232.5"/>
<text text-anchor="middle" x="367.998" y="-240.5" font-family="Helvetica,sans-Serif" font-size="10.00">globals.h</text>
</a>
</g>
<!-- Node1&#45;&gt;Node3 -->
<g id="edge4" class="edge"><title>Node1&#45;&gt;Node3</title>
<path fill="none" stroke="midnightblue" d="M501.293,-288.746C469.915,-277.977 424.883,-262.522 396.036,-252.622"/>
<polygon fill="midnightblue" stroke="midnightblue" points="500.368,-292.129 510.962,-292.065 502.64,-285.508 500.368,-292.129"/>
</g>
<!-- Node11 -->
<g id="node22" class="node"><title>Node11</title>
<a xlink:href="../../d0/da6/Monitors_8h.html" target="_top" xlink:title="Monitors.h">
<polygon fill="white" stroke="black" points="642.998,-58.5 642.998,-79.5 704.998,-79.5 704.998,-58.5 642.998,-58.5"/>
<text text-anchor="middle" x="673.998" y="-66.5" font-family="Helvetica,sans-Serif" font-size="10.00">Monitors.h</text>
</a>
</g>
<!-- Node1&#45;&gt;Node11 -->
<g id="edge42" class="edge"><title>Node1&#45;&gt;Node11</title>
<path fill="none" stroke="midnightblue" d="M572.264,-287.807C608.536,-272.106 663.011,-242.071 686.998,-196 707.265,-157.075 688.405,-102.39 678.819,-79.609"/>
<polygon fill="midnightblue" stroke="midnightblue" points="570.888,-284.589 563.011,-291.674 573.587,-291.048 570.888,-284.589"/>
</g>
<!-- Node15 -->
<g id="node30" class="node"><title>Node15</title>
<a xlink:href="../../d2/d0e/Tracker_8h.html" target="_top" xlink:title="Tracker.h">
<polygon fill="white" stroke="black" points="357.998,-58.5 357.998,-79.5 415.998,-79.5 415.998,-58.5 357.998,-58.5"/>
<text text-anchor="middle" x="386.998" y="-66.5" font-family="Helvetica,sans-Serif" font-size="10.00">Tracker.h</text>
</a>
</g>
<!-- Node1&#45;&gt;Node15 -->
<g id="edge52" class="edge"><title>Node1&#45;&gt;Node15</title>
<path fill="none" stroke="midnightblue" d="M500.581,-299.748C390.674,-295.112 66.1067,-274.859 4.99827,-196 -41.1281,-136.475 261.097,-87.171 357.878,-73.0606"/>
<polygon fill="midnightblue" stroke="midnightblue" points="500.696,-303.255 510.828,-300.16 500.977,-296.261 500.696,-303.255"/>
</g>
<!-- Node19 -->
<g id="node41" class="node"><title>Node19</title>
<a xlink:href="../../d8/d94/plot__beams_8h.html" target="_top" xlink:title="plot_beams.h">
<polygon fill="white" stroke="black" points="733.498,-116.5 733.498,-137.5 808.498,-137.5 808.498,-116.5 733.498,-116.5"/>
<text text-anchor="middle" x="770.998" y="-124.5" font-family="Helvetica,sans-Serif" font-size="10.00">plot_beams.h</text>
</a>
</g>
<!-- Node1&#45;&gt;Node19 -->
<g id="edge44" class="edge"><title>Node1&#45;&gt;Node19</title>
<path fill="none" stroke="midnightblue" d="M573.316,-295.639C620.198,-288.064 698.336,-273.006 719.998,-254 738.394,-237.86 760.208,-165.46 768.027,-137.794"/>
<polygon fill="midnightblue" stroke="midnightblue" points="572.585,-292.211 563.254,-297.228 573.677,-299.125 572.585,-292.211"/>
</g>
<!-- Node20 -->
<g id="node44" class="node"><title>Node20</title>
<a xlink:href="../../d2/d51/plot__slices_8h.html" target="_top" xlink:title="plot_slices.h">
<polygon fill="white" stroke="black" points="774.498,-232.5 774.498,-253.5 845.498,-253.5 845.498,-232.5 774.498,-232.5"/>
<text text-anchor="middle" x="809.998" y="-240.5" font-family="Helvetica,sans-Serif" font-size="10.00">plot_slices.h</text>
</a>
</g>
<!-- Node1&#45;&gt;Node20 -->
<g id="edge48" class="edge"><title>Node1&#45;&gt;Node20</title>
<path fill="none" stroke="midnightblue" d="M573.024,-293.346C625.343,-282.231 721.794,-261.739 774.063,-250.635"/>
<polygon fill="midnightblue" stroke="midnightblue" points="572.229,-289.937 563.175,-295.439 573.684,-296.784 572.229,-289.937"/>
</g>
<!-- Node3&#45;&gt;Node2 -->
<g id="edge6" class="edge"><title>Node3&#45;&gt;Node2</title>
<path fill="none" stroke="midnightblue" d="M329.762,-237.935C275.153,-230.411 171.823,-215.094 84.9983,-196 82.1846,-195.381 79.2736,-194.687 76.3645,-193.957"/>
<polygon fill="midnightblue" stroke="midnightblue" points="329.314,-241.406 339.695,-239.292 330.261,-234.471 329.314,-241.406"/>
</g>
<!-- Node4 -->
<g id="node8" class="node"><title>Node4</title>
<a xlink:href="../../da/d77/globals_8cpp.html" target="_top" xlink:title="globals.cpp">
<polygon fill="white" stroke="black" points="395.998,-174.5 395.998,-195.5 461.998,-195.5 461.998,-174.5 395.998,-174.5"/>
<text text-anchor="middle" x="428.998" y="-182.5" font-family="Helvetica,sans-Serif" font-size="10.00">globals.cpp</text>
</a>
</g>
<!-- Node3&#45;&gt;Node4 -->
<g id="edge8" class="edge"><title>Node3&#45;&gt;Node4</title>
<path fill="none" stroke="midnightblue" d="M386.503,-225.405C396.744,-215.668 409.13,-203.891 417.881,-195.571"/>
<polygon fill="midnightblue" stroke="midnightblue" points="384.022,-222.935 379.187,-232.362 388.845,-228.008 384.022,-222.935"/>
</g>
<!-- Node5 -->
<g id="node10" class="node"><title>Node5</title>
<a xlink:href="../../d5/dfa/InducedVoltage_8cpp.html" target="_top" xlink:title="InducedVoltage.cpp">
<polygon fill="white" stroke="black" points="575.498,-174.5 575.498,-195.5 678.498,-195.5 678.498,-174.5 575.498,-174.5"/>
<text text-anchor="middle" x="626.998" y="-182.5" font-family="Helvetica,sans-Serif" font-size="10.00">InducedVoltage.cpp</text>
</a>
</g>
<!-- Node3&#45;&gt;Node5 -->
<g id="edge10" class="edge"><title>Node3&#45;&gt;Node5</title>
<path fill="none" stroke="midnightblue" d="M406.123,-234.462C452.327,-224.116 530.168,-206.684 580.028,-195.518"/>
<polygon fill="midnightblue" stroke="midnightblue" points="405.202,-231.082 396.209,-236.683 406.732,-237.913 405.202,-231.082"/>
</g>
<!-- Node6 -->
<g id="node12" class="node"><title>Node6</title>
<a xlink:href="../../dc/d61/RfParameters_8cpp.html" target="_top" xlink:title="RfParameters.cpp">
<polygon fill="white" stroke="black" points="93.9983,-174.5 93.9983,-195.5 189.998,-195.5 189.998,-174.5 93.9983,-174.5"/>
<text text-anchor="middle" x="141.998" y="-182.5" font-family="Helvetica,sans-Serif" font-size="10.00">RfParameters.cpp</text>
</a>
</g>
<!-- Node3&#45;&gt;Node6 -->
<g id="edge12" class="edge"><title>Node3&#45;&gt;Node6</title>
<path fill="none" stroke="midnightblue" d="M330.031,-233.256C289.367,-222.82 225.048,-206.314 183.184,-195.57"/>
<polygon fill="midnightblue" stroke="midnightblue" points="329.276,-236.676 339.832,-235.772 331.016,-229.896 329.276,-236.676"/>
</g>
<!-- Node7 -->
<g id="node14" class="node"><title>Node7</title>
<a xlink:href="../../d3/db7/LHCNoiseFB_8cpp.html" target="_top" xlink:title="LHCNoiseFB.cpp">
<polygon fill="white" stroke="black" points="207.998,-174.5 207.998,-195.5 301.998,-195.5 301.998,-174.5 207.998,-174.5"/>
<text text-anchor="middle" x="254.998" y="-182.5" font-family="Helvetica,sans-Serif" font-size="10.00">LHCNoiseFB.cpp</text>
</a>
</g>
<!-- Node3&#45;&gt;Node7 -->
<g id="edge14" class="edge"><title>Node3&#45;&gt;Node7</title>
<path fill="none" stroke="midnightblue" d="M338.373,-227.794C318.657,-217.675 293.25,-204.634 275.691,-195.621"/>
<polygon fill="midnightblue" stroke="midnightblue" points="337.04,-231.044 347.535,-232.497 340.237,-224.816 337.04,-231.044"/>
</g>
<!-- Node8 -->
<g id="node16" class="node"><title>Node8</title>
<a xlink:href="../../dc/d7d/Distributions_8h.html" target="_top" xlink:title="Distributions.h">
<polygon fill="white" stroke="black" points="289.998,-0.5 289.998,-21.5 369.998,-21.5 369.998,-0.5 289.998,-0.5"/>
<text text-anchor="middle" x="329.998" y="-8.5" font-family="Helvetica,sans-Serif" font-size="10.00">Distributions.h</text>
</a>
</g>
<!-- Node3&#45;&gt;Node8 -->
<g id="edge16" class="edge"><title>Node3&#45;&gt;Node8</title>
<path fill="none" stroke="midnightblue" d="M364.613,-222.335C356.778,-174.5 337.616,-57.5078 331.74,-21.6335"/>
<polygon fill="midnightblue" stroke="midnightblue" points="361.196,-223.126 366.267,-232.429 368.104,-221.994 361.196,-223.126"/>
</g>
<!-- Node9 -->
<g id="node18" class="node"><title>Node9</title>
<a xlink:href="../../d3/d33/PhaseLoop_8h.html" target="_top" xlink:title="PhaseLoop.h">
<polygon fill="white" stroke="black" points="410.998,-116.5 410.998,-137.5 484.998,-137.5 484.998,-116.5 410.998,-116.5"/>
<text text-anchor="middle" x="447.998" y="-124.5" font-family="Helvetica,sans-Serif" font-size="10.00">PhaseLoop.h</text>
</a>
</g>
<!-- Node3&#45;&gt;Node9 -->
<g id="edge18" class="edge"><title>Node3&#45;&gt;Node9</title>
<path fill="none" stroke="midnightblue" d="M370.179,-222.309C372.509,-207.791 377.281,-188.465 386.998,-174 397.435,-158.463 414.7,-145.863 428.203,-137.635"/>
<polygon fill="midnightblue" stroke="midnightblue" points="366.698,-221.937 368.833,-232.315 373.635,-222.871 366.698,-221.937"/>
</g>
<!-- Node17 -->
<g id="node35" class="node"><title>Node17</title>
<a xlink:href="../../d9/dc8/PhaseNoise_8h.html" target="_top" xlink:title="PhaseNoise.h">
<polygon fill="white" stroke="black" points="479.998,-174.5 479.998,-195.5 557.998,-195.5 557.998,-174.5 479.998,-174.5"/>
<text text-anchor="middle" x="518.998" y="-182.5" font-family="Helvetica,sans-Serif" font-size="10.00">PhaseNoise.h</text>
</a>
</g>
<!-- Node3&#45;&gt;Node17 -->
<g id="edge36" class="edge"><title>Node3&#45;&gt;Node17</title>
<path fill="none" stroke="midnightblue" d="M404.774,-228.874C431.57,-218.582 467.289,-204.862 491.602,-195.523"/>
<polygon fill="midnightblue" stroke="midnightblue" points="403.423,-225.644 395.343,-232.497 405.933,-232.178 403.423,-225.644"/>
</g>
<!-- Node10 -->
<g id="node20" class="node"><title>Node10</title>
<a xlink:href="../../db/dee/PhaseLoop_8cpp.html" target="_top" xlink:title="PhaseLoop.cpp">
<polygon fill="white" stroke="black" points="433.998,-58.5 433.998,-79.5 517.998,-79.5 517.998,-58.5 433.998,-58.5"/>
<text text-anchor="middle" x="475.998" y="-66.5" font-family="Helvetica,sans-Serif" font-size="10.00">PhaseLoop.cpp</text>
</a>
</g>
<!-- Node9&#45;&gt;Node10 -->
<g id="edge20" class="edge"><title>Node9&#45;&gt;Node10</title>
<path fill="none" stroke="midnightblue" d="M457.615,-107.079C462.074,-97.8422 467.193,-87.2388 470.895,-79.5707"/>
<polygon fill="midnightblue" stroke="midnightblue" points="454.33,-105.835 453.134,-116.362 460.633,-108.878 454.33,-105.835"/>
</g>
<!-- Node9&#45;&gt;Node11 -->
<g id="edge22" class="edge"><title>Node9&#45;&gt;Node11</title>
<path fill="none" stroke="midnightblue" d="M495.018,-114.933C539.332,-103.56 604.482,-86.8405 642.74,-77.0219"/>
<polygon fill="midnightblue" stroke="midnightblue" points="493.881,-111.611 485.064,-117.487 495.621,-118.392 493.881,-111.611"/>
</g>
<!-- Node9&#45;&gt;Node15 -->
<g id="edge30" class="edge"><title>Node9&#45;&gt;Node15</title>
<path fill="none" stroke="midnightblue" d="M429.493,-109.405C419.253,-99.6683 406.867,-87.8914 398.116,-79.5707"/>
<polygon fill="midnightblue" stroke="midnightblue" points="427.151,-112.008 436.81,-116.362 431.975,-106.935 427.151,-112.008"/>
</g>
<!-- Node12 -->
<g id="node24" class="node"><title>Node12</title>
<a xlink:href="../../da/dda/Monitors_8cpp.html" target="_top" xlink:title="Monitors.cpp">
<polygon fill="white" stroke="black" points="637.498,-0.5 637.498,-21.5 710.498,-21.5 710.498,-0.5 637.498,-0.5"/>
<text text-anchor="middle" x="673.998" y="-8.5" font-family="Helvetica,sans-Serif" font-size="10.00">Monitors.cpp</text>
</a>
</g>
<!-- Node11&#45;&gt;Node12 -->
<g id="edge24" class="edge"><title>Node11&#45;&gt;Node12</title>
<path fill="none" stroke="midnightblue" d="M673.998,-48.1906C673.998,-39.1684 673.998,-28.9941 673.998,-21.5707"/>
<polygon fill="midnightblue" stroke="midnightblue" points="670.498,-48.3619 673.998,-58.3619 677.498,-48.3619 670.498,-48.3619"/>
</g>
<!-- Node13 -->
<g id="node26" class="node"><title>Node13</title>
<a xlink:href="../../d3/d2c/plot__beams_8cpp.html" target="_top" xlink:title="plot_beams.cpp">
<polygon fill="white" stroke="black" points="727.998,-0.5 727.998,-21.5 813.998,-21.5 813.998,-0.5 727.998,-0.5"/>
<text text-anchor="middle" x="770.998" y="-8.5" font-family="Helvetica,sans-Serif" font-size="10.00">plot_beams.cpp</text>
</a>
</g>
<!-- Node11&#45;&gt;Node13 -->
<g id="edge26" class="edge"><title>Node11&#45;&gt;Node13</title>
<path fill="none" stroke="midnightblue" d="M700.588,-53.1009C717.371,-43.0658 738.585,-30.3808 753.32,-21.5707"/>
<polygon fill="midnightblue" stroke="midnightblue" points="698.576,-50.226 691.79,-58.3619 702.168,-56.2339 698.576,-50.226"/>
</g>
<!-- Node14 -->
<g id="node28" class="node"><title>Node14</title>
<a xlink:href="../../d3/dca/plot__llrf_8cpp.html" target="_top" xlink:title="plot_llrf.cpp">
<polygon fill="white" stroke="black" points="553.498,-0.5 553.498,-21.5 620.498,-21.5 620.498,-0.5 553.498,-0.5"/>
<text text-anchor="middle" x="586.998" y="-8.5" font-family="Helvetica,sans-Serif" font-size="10.00">plot_llrf.cpp</text>
</a>
</g>
<!-- Node11&#45;&gt;Node14 -->
<g id="edge28" class="edge"><title>Node11&#45;&gt;Node14</title>
<path fill="none" stroke="midnightblue" d="M649.309,-52.5407C634.394,-42.5973 615.825,-30.2177 602.854,-21.5707"/>
<polygon fill="midnightblue" stroke="midnightblue" points="647.779,-55.727 658.041,-58.3619 651.662,-49.9027 647.779,-55.727"/>
</g>
<!-- Node15&#45;&gt;Node8 -->
<g id="edge34" class="edge"><title>Node15&#45;&gt;Node8</title>
<path fill="none" stroke="midnightblue" d="M369.425,-51.118C359.911,-41.4377 348.484,-29.8098 340.387,-21.5707"/>
<polygon fill="midnightblue" stroke="midnightblue" points="367.038,-53.6829 376.544,-58.3619 372.031,-48.7763 367.038,-53.6829"/>
</g>
<!-- Node16 -->
<g id="node32" class="node"><title>Node16</title>
<a xlink:href="../../d2/d6f/Tracker_8cpp.html" target="_top" xlink:title="Tracker.cpp">
<polygon fill="white" stroke="black" points="387.998,-0.5 387.998,-21.5 455.998,-21.5 455.998,-0.5 387.998,-0.5"/>
<text text-anchor="middle" x="421.998" y="-8.5" font-family="Helvetica,sans-Serif" font-size="10.00">Tracker.cpp</text>
</a>
</g>
<!-- Node15&#45;&gt;Node16 -->
<g id="edge32" class="edge"><title>Node15&#45;&gt;Node16</title>
<path fill="none" stroke="midnightblue" d="M398.665,-49.6667C404.32,-40.2948 410.894,-29.4019 415.619,-21.5707"/>
<polygon fill="midnightblue" stroke="midnightblue" points="395.588,-47.9917 393.418,-58.3619 401.581,-51.6084 395.588,-47.9917"/>
</g>
<!-- Node17&#45;&gt;Node9 -->
<g id="edge40" class="edge"><title>Node17&#45;&gt;Node9</title>
<path fill="none" stroke="midnightblue" d="M498.158,-167.975C486.108,-158.132 471.324,-146.055 460.938,-137.571"/>
<polygon fill="midnightblue" stroke="midnightblue" points="496.017,-170.746 505.976,-174.362 500.446,-165.325 496.017,-170.746"/>
</g>
<!-- Node18 -->
<g id="node37" class="node"><title>Node18</title>
<a xlink:href="../../db/d82/PhaseNoise_8cpp.html" target="_top" xlink:title="PhaseNoise.cpp">
<polygon fill="white" stroke="black" points="502.498,-116.5 502.498,-137.5 591.498,-137.5 591.498,-116.5 502.498,-116.5"/>
<text text-anchor="middle" x="546.998" y="-124.5" font-family="Helvetica,sans-Serif" font-size="10.00">PhaseNoise.cpp</text>
</a>
</g>
<!-- Node17&#45;&gt;Node18 -->
<g id="edge38" class="edge"><title>Node17&#45;&gt;Node18</title>
<path fill="none" stroke="midnightblue" d="M528.615,-165.079C533.074,-155.842 538.193,-145.239 541.895,-137.571"/>
<polygon fill="midnightblue" stroke="midnightblue" points="525.33,-163.835 524.134,-174.362 531.633,-166.878 525.33,-163.835"/>
</g>
<!-- Node19&#45;&gt;Node13 -->
<g id="edge46" class="edge"><title>Node19&#45;&gt;Node13</title>
<path fill="none" stroke="midnightblue" d="M770.998,-106.123C770.998,-81.2984 770.998,-40.8235 770.998,-21.6792"/>
<polygon fill="midnightblue" stroke="midnightblue" points="767.498,-106.295 770.998,-116.295 774.498,-106.295 767.498,-106.295"/>
</g>
<!-- Node21 -->
<g id="node46" class="node"><title>Node21</title>
<a xlink:href="../../d4/dfd/plot__slices_8cpp.html" target="_top" xlink:title="plot_slices.cpp">
<polygon fill="white" stroke="black" points="771.998,-174.5 771.998,-195.5 853.998,-195.5 853.998,-174.5 771.998,-174.5"/>
<text text-anchor="middle" x="812.998" y="-182.5" font-family="Helvetica,sans-Serif" font-size="10.00">plot_slices.cpp</text>
</a>
</g>
<!-- Node20&#45;&gt;Node21 -->
<g id="edge50" class="edge"><title>Node20&#45;&gt;Node21</title>
<path fill="none" stroke="midnightblue" d="M811.075,-222.191C811.541,-213.168 812.068,-202.994 812.452,-195.571"/>
<polygon fill="midnightblue" stroke="midnightblue" points="807.57,-222.194 810.549,-232.362 814.56,-222.556 807.57,-222.194"/>
</g>
</g>
</svg>
