<?xml version="1.0" encoding="UTF-8" standalone="no"?>
<!DOCTYPE svg PUBLIC "-//W3C//DTD SVG 1.1//EN"
 "http://www.w3.org/Graphics/SVG/1.1/DTD/svg11.dtd">
<!-- Generated by graphviz version 2.26.3 (20100126.1600)
 -->
<!-- Title: python::multi_t Pages: 1 -->
<!--zoomable 492 -->
<svg id="main" version="1.1" xmlns="http://www.w3.org/2000/svg" xmlns:xlink="http://www.w3.org/1999/xlink" xml:space="preserve" onload="init(evt)">
        <defs>
                <circle id="rim" cx="0" cy="0" r="7"/>
                <circle id="rim2" cx="0" cy="0" r="3.5"/>
                <g id="zoomPlus">
                        <use xlink:href="#rim" fill="#404040">
                                <set attributeName="fill" to="#808080" begin="zoomplus.mouseover" end="zoomplus.mouseout"/>
                        </use>
                        <path d="M-4,0h8M0,-4v8" fill="none" stroke="white" stroke-width="1.5" pointer-events="none"/>
                </g>
                <g id="zoomMin">
                        <use xlink:href="#rim" fill="#404040">
                                <set attributeName="fill" to="#808080" begin="zoomminus.mouseover" end="zoomminus.mouseout"/>
                        </use>
                        <path d="M-4,0h8" fill="none" stroke="white" stroke-width="1.5" pointer-events="none"/>
                </g>
                <g id="dirArrow">
                        <path fill="none" stroke="white" stroke-width="1.5" d="M0,-3.0v7 M-2.5,-0.5L0,-3.0L2.5,-0.5"/>
                </g>
               <g id="resetDef">
                       <use xlink:href="#rim2" fill="#404040">
                               <set attributeName="fill" to="#808080" begin="reset.mouseover" end="reset.mouseout"/>
                       </use>
               </g>
        </defs>

<script type="text/javascript">
var viewWidth = 303;
var viewHeight = 492;
var sectionId = 'dynsection-0';
</script>
<script xlink:href="../../svgpan.js"/>
<svg id="graph" class="graph">
<g id="viewport">
<title>python::multi_t</title>
<polygon fill="white" stroke="white" points="-4,5 -4,-488 300,-488 300,5 -4,5"/>
<!-- Node1 -->
<g id="node1" class="node"><title>Node1</title>
<polygon fill="#bfbfbf" stroke="black" points="113.5,-0.5 113.5,-115.5 194.5,-115.5 194.5,-0.5 113.5,-0.5"/>
<text text-anchor="middle" x="154" y="-102.5" font-family="Helvetica,sans-Serif" font-size="10.00">python::multi_t</text>
<polyline fill="none" stroke="black" points="113.5,-94.5 194.5,-94.5 "/>
<text text-anchor="middle" x="154" y="-81.5" font-family="Helvetica,sans-Serif" font-size="10.00"> </text>
<polyline fill="none" stroke="black" points="113.5,-73.5 194.5,-73.5 "/>
<text text-anchor="start" x="121.5" y="-60.5" font-family="Helvetica,sans-Serif" font-size="10.00">+ multi_t()</text>
<text text-anchor="start" x="121.5" y="-47.5" font-family="Helvetica,sans-Serif" font-size="10.00">+ multi_t()</text>
<text text-anchor="start" x="121.5" y="-34.5" font-family="Helvetica,sans-Serif" font-size="10.00">+ multi_t()</text>
<text text-anchor="start" x="121.5" y="-21.5" font-family="Helvetica,sans-Serif" font-size="10.00">+ multi_t()</text>
<text text-anchor="start" x="121.5" y="-8.5" font-family="Helvetica,sans-Serif" font-size="10.00">+ multi_t()</text>
</g>
<!-- Node2 -->
<g id="node2" class="node"><title>Node2</title>
<polygon fill="white" stroke="#bfbfbf" points="-0.5,-299.5 -0.5,-362.5 44.5,-362.5 44.5,-299.5 -0.5,-299.5"/>
<text text-anchor="middle" x="22" y="-349.5" font-family="Helvetica,sans-Serif" font-size="10.00">double</text>
<polyline fill="none" stroke="#bfbfbf" points="-0.5,-341.5 44.5,-341.5 "/>
<text text-anchor="middle" x="22" y="-328.5" font-family="Helvetica,sans-Serif" font-size="10.00"> </text>
<polyline fill="none" stroke="#bfbfbf" points="-0.5,-320.5 44.5,-320.5 "/>
<text text-anchor="middle" x="22" y="-307.5" font-family="Helvetica,sans-Serif" font-size="10.00"> </text>
</g>
<!-- Node2&#45;&gt;Node1 -->
<g id="edge2" class="edge"><title>Node2&#45;&gt;Node1</title>
<path fill="none" stroke="#404040" d="M14.1106,-299.261C7.80827,-267.183 2.60558,-216.927 20,-178 37.0552,-139.832 72.915,-108.768 103.249,-87.8158"/>
<polygon fill="none" stroke="#404040" points="103.314,-87.7724 106.078,-81.1121 113.289,-81.1021 110.525,-87.7624 103.314,-87.7724"/>
<text text-anchor="middle" x="27.5" y="-207.5" font-family="Helvetica,sans-Serif" font-size="10.00"> +d</text>
</g>
<!-- Node6 -->
<g id="node10" class="node"><title>Node6</title>
<polygon fill="white" stroke="#bfbfbf" points="44,-178.5 44,-241.5 154,-241.5 154,-178.5 44,-178.5"/>
<text text-anchor="middle" x="99" y="-228.5" font-family="Helvetica,sans-Serif" font-size="10.00">std::vector&lt; double &gt;</text>
<polyline fill="none" stroke="#bfbfbf" points="44,-220.5 154,-220.5 "/>
<text text-anchor="middle" x="99" y="-207.5" font-family="Helvetica,sans-Serif" font-size="10.00"> </text>
<polyline fill="none" stroke="#bfbfbf" points="44,-199.5 154,-199.5 "/>
<text text-anchor="middle" x="99" y="-186.5" font-family="Helvetica,sans-Serif" font-size="10.00"> </text>
</g>
<!-- Node2&#45;&gt;Node6 -->
<g id="edge12" class="edge"><title>Node2&#45;&gt;Node6</title>
<path fill="none" stroke="#404040" d="M33.8679,-299.155C39.2071,-286.507 46.0944,-272.116 54,-260 55.9145,-257.066 57.9983,-254.133 60.1854,-251.241"/>
<polygon fill="none" stroke="#404040" points="60.4005,-250.973 61.0457,-243.791 67.9236,-241.624 67.2783,-248.807 60.4005,-250.973"/>
<text text-anchor="middle" x="78.5" y="-264.5" font-family="Helvetica,sans-Serif" font-size="10.00"> +elements</text>
</g>
<!-- Node3 -->
<g id="node4" class="node"><title>Node3</title>
<polygon fill="white" stroke="#bfbfbf" points="171.5,-178.5 171.5,-241.5 200.5,-241.5 200.5,-178.5 171.5,-178.5"/>
<text text-anchor="middle" x="186" y="-228.5" font-family="Helvetica,sans-Serif" font-size="10.00">int</text>
<polyline fill="none" stroke="#bfbfbf" points="171.5,-220.5 200.5,-220.5 "/>
<text text-anchor="middle" x="186" y="-207.5" font-family="Helvetica,sans-Serif" font-size="10.00"> </text>
<polyline fill="none" stroke="#bfbfbf" points="171.5,-199.5 200.5,-199.5 "/>
<text text-anchor="middle" x="186" y="-186.5" font-family="Helvetica,sans-Serif" font-size="10.00"> </text>
</g>
<!-- Node3&#45;&gt;Node1 -->
<g id="edge4" class="edge"><title>Node3&#45;&gt;Node1</title>
<path fill="none" stroke="#404040" d="M179.292,-178.136C176.18,-163.353 172.35,-145.161 168.62,-127.447"/>
<polygon fill="none" stroke="#404040" points="168.601,-127.356 163.451,-122.309 166.129,-115.614 171.279,-120.661 168.601,-127.356"/>
<text text-anchor="middle" x="180" y="-144.5" font-family="Helvetica,sans-Serif" font-size="10.00"> +i</text>
</g>
<!-- Node4 -->
<g id="node6" class="node"><title>Node4</title>
<a xlink:title="STL class.">
<polygon fill="white" stroke="#bfbfbf" points="218,-178.5 218,-241.5 278,-241.5 278,-178.5 218,-178.5"/>
<text text-anchor="middle" x="248" y="-228.5" font-family="Helvetica,sans-Serif" font-size="10.00">std::string</text>
<polyline fill="none" stroke="#bfbfbf" points="218,-220.5 278,-220.5 "/>
<text text-anchor="middle" x="248" y="-207.5" font-family="Helvetica,sans-Serif" font-size="10.00"> </text>
<polyline fill="none" stroke="#bfbfbf" points="218,-199.5 278,-199.5 "/>
<text text-anchor="middle" x="248" y="-186.5" font-family="Helvetica,sans-Serif" font-size="10.00"> </text>
</a>
</g>
<!-- Node4&#45;&gt;Node1 -->
<g id="edge6" class="edge"><title>Node4&#45;&gt;Node1</title>
<path fill="none" stroke="#404040" d="M228.295,-178.136C218.89,-162.929 207.255,-144.114 196.005,-125.923"/>
<polygon fill="none" stroke="#404040" points="195.941,-125.82 189.383,-122.821 189.63,-115.614 196.187,-118.613 195.941,-125.82"/>
<text text-anchor="middle" x="228" y="-151" font-family="Helvetica,sans-Serif" font-size="10.00"> +type</text>
<text text-anchor="middle" x="228" y="-138" font-family="Helvetica,sans-Serif" font-size="10.00">+s</text>
</g>
<!-- Node5 -->
<g id="node8" class="node"><title>Node5</title>
<a xlink:title="STL class.">
<polygon fill="white" stroke="#bfbfbf" points="200.5,-293 200.5,-369 295.5,-369 295.5,-293 200.5,-293"/>
<text text-anchor="start" x="208.5" y="-356" font-family="Helvetica,sans-Serif" font-size="10.00">std::basic_string&lt;</text>
<text text-anchor="middle" x="248" y="-343" font-family="Helvetica,sans-Serif" font-size="10.00"> char &gt;</text>
<polyline fill="none" stroke="#bfbfbf" points="200.5,-335 295.5,-335 "/>
<text text-anchor="middle" x="248" y="-322" font-family="Helvetica,sans-Serif" font-size="10.00"> </text>
<polyline fill="none" stroke="#bfbfbf" points="200.5,-314 295.5,-314 "/>
<text text-anchor="middle" x="248" y="-301" font-family="Helvetica,sans-Serif" font-size="10.00"> </text>
</a>
</g>
<!-- Node5&#45;&gt;Node4 -->
<g id="edge8" class="edge"><title>Node5&#45;&gt;Node4</title>
<path fill="none" stroke="midnightblue" d="M248,-282.407C248,-268.644 248,-254.026 248,-241.554"/>
<polygon fill="none" stroke="midnightblue" points="244.5,-282.715 248,-292.715 251.5,-282.715 244.5,-282.715"/>
</g>
<!-- Node6&#45;&gt;Node1 -->
<g id="edge10" class="edge"><title>Node6&#45;&gt;Node1</title>
<path fill="none" stroke="#404040" d="M110.53,-178.136C115.93,-163.212 122.588,-144.813 129.055,-126.939"/>
<polygon fill="none" stroke="#404040" points="129.07,-126.898 127.35,-119.895 133.153,-115.614 134.873,-122.617 129.07,-126.898"/>
<text text-anchor="middle" x="134.5" y="-144.5" font-family="Helvetica,sans-Serif" font-size="10.00"> +v</text>
</g>
<!-- Node7 -->
<g id="node13" class="node"><title>Node7</title>
<a xlink:title="STL class.">
<polygon fill="white" stroke="#bfbfbf" points="72.5,-299.5 72.5,-362.5 159.5,-362.5 159.5,-299.5 72.5,-299.5"/>
<text text-anchor="middle" x="116" y="-349.5" font-family="Helvetica,sans-Serif" font-size="10.00">std::vector&lt; T &gt;</text>
<polyline fill="none" stroke="#bfbfbf" points="72.5,-341.5 159.5,-341.5 "/>
<text text-anchor="middle" x="116" y="-328.5" font-family="Helvetica,sans-Serif" font-size="10.00"> </text>
<polyline fill="none" stroke="#bfbfbf" points="72.5,-320.5 159.5,-320.5 "/>
<text text-anchor="middle" x="116" y="-307.5" font-family="Helvetica,sans-Serif" font-size="10.00"> </text>
</a>
</g>
<!-- Node7&#45;&gt;Node6 -->
<g id="edge14" class="edge"><title>Node7&#45;&gt;Node6</title>
<path fill="none" stroke="orange" d="M110.135,-289.254C107.939,-273.624 105.482,-256.14 103.437,-241.579"/>
<polygon fill="orange" stroke="orange" points="106.676,-289.793 111.533,-299.209 113.608,-288.819 106.676,-289.793"/>
<text text-anchor="middle" x="133" y="-264.5" font-family="Helvetica,sans-Serif" font-size="10.00"> &lt; double &gt;</text>
</g>
<!-- Node8 -->
<g id="node15" class="node"><title>Node8</title>
<polygon fill="white" stroke="#bfbfbf" points="101.5,-420.5 101.5,-483.5 130.5,-483.5 130.5,-420.5 101.5,-420.5"/>
<text text-anchor="middle" x="116" y="-470.5" font-family="Helvetica,sans-Serif" font-size="10.00">T</text>
<polyline fill="none" stroke="#bfbfbf" points="101.5,-462.5 130.5,-462.5 "/>
<text text-anchor="middle" x="116" y="-449.5" font-family="Helvetica,sans-Serif" font-size="10.00"> </text>
<polyline fill="none" stroke="#bfbfbf" points="101.5,-441.5 130.5,-441.5 "/>
<text text-anchor="middle" x="116" y="-428.5" font-family="Helvetica,sans-Serif" font-size="10.00"> </text>
</g>
<!-- Node8&#45;&gt;Node7 -->
<g id="edge16" class="edge"><title>Node8&#45;&gt;Node7</title>
<path fill="none" stroke="#404040" d="M116,-420.209C116,-406.314 116,-389.79 116,-374.761"/>
<polygon fill="none" stroke="#404040" points="116,-374.579 112,-368.579 116,-362.579 120,-368.579 116,-374.579"/>
<text text-anchor="middle" x="140.5" y="-392.5" font-family="Helvetica,sans-Serif" font-size="10.00"> +elements</text>
</g>
</g>
</svg>
        <g id="navigator" transform="translate(0 0)" fill="#404254">
                <rect fill="#f2f5e9" fill-opacity="0.5" stroke="#606060" stroke-width=".5" x="0" y="0" width="60" height="60"/>
                <use id="zoomplus" xlink:href="#zoomPlus" x="17" y="9" onmousedown="handleZoom(evt,'in')"/>
                <use id="zoomminus" xlink:href="#zoomMin" x="42" y="9" onmousedown="handleZoom(evt,'out')"/>
                <use id="reset" xlink:href="#resetDef" x="30" y="36" onmousedown="handleReset()"/>
                <g id="arrowUp" xlink:href="#dirArrow" transform="translate(30 24)" onmousedown="handlePan(0,-1)">
                  <use xlink:href="#rim" fill="#404040">
                        <set attributeName="fill" to="#808080" begin="arrowUp.mouseover" end="arrowUp.mouseout"/>
                  </use>
                  <path fill="none" stroke="white" stroke-width="1.5" d="M0,-3.0v7 M-2.5,-0.5L0,-3.0L2.5,-0.5"/>
                </g>
                <g id="arrowRight" xlink:href="#dirArrow" transform="rotate(90) translate(36 -43)" onmousedown="handlePan(1,0)">
                  <use xlink:href="#rim" fill="#404040">
                        <set attributeName="fill" to="#808080" begin="arrowRight.mouseover" end="arrowRight.mouseout"/>
                  </use>
                  <path fill="none" stroke="white" stroke-width="1.5" d="M0,-3.0v7 M-2.5,-0.5L0,-3.0L2.5,-0.5"/>
                </g>
                <g id="arrowDown" xlink:href="#dirArrow" transform="rotate(180) translate(-30 -48)" onmousedown="handlePan(0,1)">
                  <use xlink:href="#rim" fill="#404040">
                        <set attributeName="fill" to="#808080" begin="arrowDown.mouseover" end="arrowDown.mouseout"/>
                  </use>
                  <path fill="none" stroke="white" stroke-width="1.5" d="M0,-3.0v7 M-2.5,-0.5L0,-3.0L2.5,-0.5"/>
                </g>
                <g id="arrowLeft" xlink:href="#dirArrow" transform="rotate(270) translate(-36 17)" onmousedown="handlePan(-1,0)">
                  <use xlink:href="#rim" fill="#404040">
                        <set attributeName="fill" to="#808080" begin="arrowLeft.mouseover" end="arrowLeft.mouseout"/>
                  </use>
                  <path fill="none" stroke="white" stroke-width="1.5" d="M0,-3.0v7 M-2.5,-0.5L0,-3.0L2.5,-0.5"/>
                </g>
        </g>
        <svg viewBox="0 0 15 15" width="100%" height="30px" preserveAspectRatio="xMaxYMin meet">
         <g id="arrow_out" transform="scale(0.3 0.3)">
          <a xlink:href="structpython_1_1multi__t__coll__graph_org.svg" target="_base">
           <rect id="button" ry="5" rx="5" y="6" x="6" height="38" width="38"
                fill="#f2f5e9" fill-opacity="0.5" stroke="#606060" stroke-width="1.0"/>
           <path id="arrow"
             d="M 11.500037,31.436501 C 11.940474,20.09759 22.043105,11.32322 32.158766,21.979434 L 37.068811,17.246167 C 37.068811,17.246167 37.088388,32 37.088388,32 L 22.160133,31.978069 C 22.160133,31.978069 26.997745,27.140456 26.997745,27.140456 C 18.528582,18.264221 13.291696,25.230495 11.500037,31.436501 z"
             style="fill:#404040;"/>
          </a>
         </g>
        </svg>
</svg>
