<?xml version="1.0" encoding="UTF-8" standalone="no"?>
<!DOCTYPE svg PUBLIC "-//W3C//DTD SVG 1.1//EN"
 "http://www.w3.org/Graphics/SVG/1.1/DTD/svg11.dtd">
<!-- Generated by graphviz version 2.26.3 (20100126.1600)
 -->
<!-- Title: plot_PL_RF_phase Pages: 1 -->
<svg width="262pt" height="202pt"
 viewBox="0.00 0.00 262.00 202.00" xmlns="http://www.w3.org/2000/svg" xmlns:xlink="http://www.w3.org/1999/xlink">
<g id="graph1" class="graph" transform="scale(1 1) rotate(0) translate(4 198)">
<title>plot_PL_RF_phase</title>
<polygon fill="white" stroke="white" points="-4,5 -4,-198 259,-198 259,5 -4,5"/>
<!-- Node1 -->
<g id="node1" class="node"><title>Node1</title>
<polygon fill="#bfbfbf" stroke="black" points="0,-80.5 0,-101.5 100,-101.5 100,-80.5 0,-80.5"/>
<text text-anchor="middle" x="50" y="-88.5" font-family="Helvetica,sans-Serif" font-size="10.00">plot_PL_RF_phase</text>
</g>
<!-- Node2 -->
<g id="node3" class="node"><title>Node2</title>
<a xlink:href="../../de/d4a/namespacepython.html#a38f56692b4793b00b074fc192783947e" target="_top" xlink:title="python::convert_double\l_array">
<polygon fill="white" stroke="black" points="136,-160 136,-194 254,-194 254,-160 136,-160"/>
<text text-anchor="start" x="144" y="-181" font-family="Helvetica,sans-Serif" font-size="10.00">python::convert_double</text>
<text text-anchor="middle" x="195" y="-168" font-family="Helvetica,sans-Serif" font-size="10.00">_array</text>
</a>
</g>
<!-- Node1&#45;&gt;Node2 -->
<g id="edge2" class="edge"><title>Node1&#45;&gt;Node2</title>
<path fill="none" stroke="midnightblue" d="M63.4617,-101.63C79.9497,-114.352 109.022,-135.834 136,-151 138.694,-152.514 141.493,-154.005 144.343,-155.458"/>
<polygon fill="midnightblue" stroke="midnightblue" points="143.034,-158.714 153.555,-159.961 146.108,-152.425 143.034,-158.714"/>
</g>
<!-- Node3 -->
<g id="node5" class="node"><title>Node3</title>
<a xlink:href="../../de/d4a/namespacepython.html#adb27db8de2c6c5b4f381fadcc86a4939" target="_top" xlink:title="python::convert_int">
<polygon fill="white" stroke="black" points="145,-120.5 145,-141.5 245,-141.5 245,-120.5 145,-120.5"/>
<text text-anchor="middle" x="195" y="-128.5" font-family="Helvetica,sans-Serif" font-size="10.00">python::convert_int</text>
</a>
</g>
<!-- Node1&#45;&gt;Node3 -->
<g id="edge4" class="edge"><title>Node1&#45;&gt;Node3</title>
<path fill="none" stroke="midnightblue" d="M88.097,-101.51C106.175,-106.496 127.967,-112.508 147.148,-117.799"/>
<polygon fill="midnightblue" stroke="midnightblue" points="146.335,-121.206 156.906,-120.491 148.197,-114.458 146.335,-121.206"/>
</g>
<!-- Node4 -->
<g id="node7" class="node"><title>Node4</title>
<a xlink:href="../../de/d4a/namespacepython.html#aaed0c03f36b79c4703d003314d78b412" target="_top" xlink:title="python::convert_string">
<polygon fill="white" stroke="black" points="138.5,-80.5 138.5,-101.5 251.5,-101.5 251.5,-80.5 138.5,-80.5"/>
<text text-anchor="middle" x="195" y="-88.5" font-family="Helvetica,sans-Serif" font-size="10.00">python::convert_string</text>
</a>
</g>
<!-- Node1&#45;&gt;Node4 -->
<g id="edge6" class="edge"><title>Node1&#45;&gt;Node4</title>
<path fill="none" stroke="midnightblue" d="M100.307,-91C109.317,-91 118.834,-91 128.222,-91"/>
<polygon fill="midnightblue" stroke="midnightblue" points="128.328,-94.5001 138.328,-91 128.328,-87.5001 128.328,-94.5001"/>
</g>
<!-- Node5 -->
<g id="node9" class="node"><title>Node5</title>
<a xlink:href="../../de/d4a/namespacepython.html#a713f8b295244715fb64ea92c5b172d33" target="_top" xlink:title="python::import">
<polygon fill="white" stroke="black" points="155.5,-40.5 155.5,-61.5 234.5,-61.5 234.5,-40.5 155.5,-40.5"/>
<text text-anchor="middle" x="195" y="-48.5" font-family="Helvetica,sans-Serif" font-size="10.00">python::import</text>
</a>
</g>
<!-- Node1&#45;&gt;Node5 -->
<g id="edge8" class="edge"><title>Node1&#45;&gt;Node5</title>
<path fill="none" stroke="midnightblue" d="M88.097,-80.4905C106.175,-75.5035 127.967,-69.4918 147.148,-64.2007"/>
<polygon fill="midnightblue" stroke="midnightblue" points="148.197,-67.5421 156.906,-61.5087 146.335,-60.7941 148.197,-67.5421"/>
</g>
<!-- Node6 -->
<g id="node11" class="node"><title>Node6</title>
<a xlink:href="../../da/dda/Monitors_8cpp.html#a24cd35802fcba6633b02321bc436ab5f" target="_top" xlink:title="read_1D">
<polygon fill="white" stroke="black" points="168.5,-0.5 168.5,-21.5 221.5,-21.5 221.5,-0.5 168.5,-0.5"/>
<text text-anchor="middle" x="195" y="-8.5" font-family="Helvetica,sans-Serif" font-size="10.00">read_1D</text>
</a>
</g>
<!-- Node1&#45;&gt;Node6 -->
<g id="edge10" class="edge"><title>Node1&#45;&gt;Node6</title>
<path fill="none" stroke="midnightblue" d="M62.6749,-80.4219C78.8387,-67.3546 108.054,-45.1252 136,-31 143.126,-27.398 151.049,-24.2102 158.717,-21.4972"/>
<polygon fill="midnightblue" stroke="midnightblue" points="159.841,-24.812 168.213,-18.3194 157.619,-18.1738 159.841,-24.812"/>
</g>
</g>
</svg>
