<?xml version="1.0" encoding="UTF-8" standalone="no"?>
<!DOCTYPE svg PUBLIC "-//W3C//DTD SVG 1.1//EN"
 "http://www.w3.org/Graphics/SVG/1.1/DTD/svg11.dtd">
<!-- Generated by graphviz version 2.26.3 (20100126.1600)
 -->
<!-- Title: PhaseLoop.cpp Pages: 1 -->
<svg width="1495pt" height="696pt"
 viewBox="0.00 0.00 1495.12 696.00" xmlns="http://www.w3.org/2000/svg" xmlns:xlink="http://www.w3.org/1999/xlink">
<g id="graph1" class="graph" transform="scale(1 1) rotate(0) translate(4 692)">
<title>PhaseLoop.cpp</title>
<polygon fill="white" stroke="white" points="-4,5 -4,-692 1492.12,-692 1492.12,5 -4,5"/>
<!-- Node1 -->
<g id="node1" class="node"><title>Node1</title>
<polygon fill="#bfbfbf" stroke="black" points="307,-666.5 307,-687.5 391,-687.5 391,-666.5 307,-666.5"/>
<text text-anchor="middle" x="349" y="-674.5" font-family="Helvetica,sans-Serif" font-size="10.00">PhaseLoop.cpp</text>
</g>
<!-- Node2 -->
<g id="node3" class="node"><title>Node2</title>
<a xlink:href="../../d2/d6f/constants_8h.html" target="_top" xlink:title="blond/constants.h">
<polygon fill="white" stroke="black" points="100,-304.5 100,-325.5 194,-325.5 194,-304.5 100,-304.5"/>
<text text-anchor="middle" x="147" y="-312.5" font-family="Helvetica,sans-Serif" font-size="10.00">blond/constants.h</text>
</a>
</g>
<!-- Node1&#45;&gt;Node2 -->
<g id="edge2" class="edge"><title>Node1&#45;&gt;Node2</title>
<path fill="none" stroke="midnightblue" d="M306.845,-670.557C221.01,-656.248 34,-618.476 34,-561 34,-561 34,-561 34,-503 34,-431.384 94.9822,-363.532 127.349,-332.562"/>
<polygon fill="midnightblue" stroke="midnightblue" points="129.988,-334.887 134.907,-325.503 125.21,-329.771 129.988,-334.887"/>
</g>
<!-- Node6 -->
<g id="node11" class="node"><title>Node6</title>
<a xlink:href="../../d3/d33/PhaseLoop_8h.html" target="_top" xlink:title="blond/llrf/PhaseLoop.h">
<polygon fill="white" stroke="black" points="292.5,-608.5 292.5,-629.5 405.5,-629.5 405.5,-608.5 292.5,-608.5"/>
<text text-anchor="middle" x="349" y="-616.5" font-family="Helvetica,sans-Serif" font-size="10.00">blond/llrf/PhaseLoop.h</text>
</a>
</g>
<!-- Node1&#45;&gt;Node6 -->
<g id="edge10" class="edge"><title>Node1&#45;&gt;Node6</title>
<path fill="none" stroke="midnightblue" d="M349,-666.362C349,-658.922 349,-648.743 349,-639.728"/>
<polygon fill="midnightblue" stroke="midnightblue" points="352.5,-639.571 349,-629.571 345.5,-639.571 352.5,-639.571"/>
</g>
<!-- Node23 -->
<g id="node56" class="node"><title>Node23</title>
<a xlink:href="../../d2/de2/math__functions_8h.html" target="_top" xlink:title="blond/math_functions.h">
<polygon fill="white" stroke="black" points="1061,-239.5 1061,-260.5 1179,-260.5 1179,-239.5 1061,-239.5"/>
<text text-anchor="middle" x="1120" y="-247.5" font-family="Helvetica,sans-Serif" font-size="10.00">blond/math_functions.h</text>
</a>
</g>
<!-- Node1&#45;&gt;Node23 -->
<g id="edge148" class="edge"><title>Node1&#45;&gt;Node23</title>
<path fill="none" stroke="midnightblue" d="M391.214,-674.84C547.605,-666.285 1085,-631.741 1085,-561 1085,-561 1085,-561 1085,-380 1085,-339.915 1100.71,-295.194 1111.08,-270.039"/>
<polygon fill="midnightblue" stroke="midnightblue" points="1114.43,-271.098 1115.13,-260.526 1107.99,-268.352 1114.43,-271.098"/>
</g>
<!-- Node3 -->
<g id="node5" class="node"><title>Node3</title>
<a xlink:href="../../d2/d2c/configuration_8h.html" target="_top" xlink:title="blond/configuration.h">
<polygon fill="white" stroke="black" points="-0.5,-116.5 -0.5,-137.5 106.5,-137.5 106.5,-116.5 -0.5,-116.5"/>
<text text-anchor="middle" x="53" y="-124.5" font-family="Helvetica,sans-Serif" font-size="10.00">blond/configuration.h</text>
</a>
</g>
<!-- Node2&#45;&gt;Node3 -->
<g id="edge4" class="edge"><title>Node2&#45;&gt;Node3</title>
<path fill="none" stroke="midnightblue" d="M143.26,-304.393C134.629,-280.425 112.052,-220.549 86,-174 80.6362,-164.416 73.7784,-154.378 67.7053,-146.05"/>
<polygon fill="midnightblue" stroke="midnightblue" points="70.3211,-143.704 61.5313,-137.789 64.7138,-147.894 70.3211,-143.704"/>
</g>
<!-- Node4 -->
<g id="node7" class="node"><title>Node4</title>
<polygon fill="white" stroke="#bfbfbf" points="26.5,-58.5 26.5,-79.5 79.5,-79.5 79.5,-58.5 26.5,-58.5"/>
<text text-anchor="middle" x="53" y="-66.5" font-family="Helvetica,sans-Serif" font-size="10.00">complex</text>
</g>
<!-- Node3&#45;&gt;Node4 -->
<g id="edge6" class="edge"><title>Node3&#45;&gt;Node4</title>
<path fill="none" stroke="midnightblue" d="M53,-116.362C53,-108.922 53,-98.7427 53,-89.7276"/>
<polygon fill="midnightblue" stroke="midnightblue" points="56.5001,-89.5706 53,-79.5707 49.5001,-89.5707 56.5001,-89.5706"/>
</g>
<!-- Node5 -->
<g id="node9" class="node"><title>Node5</title>
<polygon fill="white" stroke="#bfbfbf" points="851,-58.5 851,-79.5 895,-79.5 895,-58.5 851,-58.5"/>
<text text-anchor="middle" x="873" y="-66.5" font-family="Helvetica,sans-Serif" font-size="10.00">vector</text>
</g>
<!-- Node3&#45;&gt;Node5 -->
<g id="edge8" class="edge"><title>Node3&#45;&gt;Node5</title>
<path fill="none" stroke="midnightblue" d="M106.713,-117.085C109.511,-116.689 112.286,-116.324 115,-116 394.763,-82.6186 735.619,-72.2179 840.651,-69.6917"/>
<polygon fill="midnightblue" stroke="midnightblue" points="840.988,-73.1849 850.903,-69.4524 840.824,-66.1868 840.988,-73.1849"/>
</g>
<!-- Node6&#45;&gt;Node3 -->
<g id="edge12" class="edge"><title>Node6&#45;&gt;Node3</title>
<path fill="none" stroke="midnightblue" d="M321.871,-608.428C245.463,-576.679 34,-474.413 34,-315 34,-315 34,-315 34,-250 34,-213.649 42.2055,-171.956 47.8317,-147.64"/>
<polygon fill="midnightblue" stroke="midnightblue" points="51.2695,-148.313 50.1965,-137.773 44.4622,-146.682 51.2695,-148.313"/>
</g>
<!-- Node7 -->
<g id="node14" class="node"><title>Node7</title>
<a xlink:href="../../d5/d87/globals_8h.html" target="_top" xlink:title="blond/globals.h">
<polygon fill="white" stroke="black" points="483,-492.5 483,-513.5 565,-513.5 565,-492.5 483,-492.5"/>
<text text-anchor="middle" x="524" y="-500.5" font-family="Helvetica,sans-Serif" font-size="10.00">blond/globals.h</text>
</a>
</g>
<!-- Node6&#45;&gt;Node7 -->
<g id="edge14" class="edge"><title>Node6&#45;&gt;Node7</title>
<path fill="none" stroke="midnightblue" d="M365.15,-608.295C395.962,-587.871 463.296,-543.238 499.617,-519.162"/>
<polygon fill="midnightblue" stroke="midnightblue" points="501.741,-521.954 508.142,-513.512 497.873,-516.119 501.741,-521.954"/>
</g>
<!-- Node9 -->
<g id="node19" class="node"><title>Node9</title>
<a xlink:href="../../de/df0/utilities_8h.html" target="_top" xlink:title="blond/utilities.h">
<polygon fill="white" stroke="black" points="523,-174.5 523,-195.5 605,-195.5 605,-174.5 523,-174.5"/>
<text text-anchor="middle" x="564" y="-182.5" font-family="Helvetica,sans-Serif" font-size="10.00">blond/utilities.h</text>
</a>
</g>
<!-- Node6&#45;&gt;Node9 -->
<g id="edge146" class="edge"><title>Node6&#45;&gt;Node9</title>
<path fill="none" stroke="midnightblue" d="M405.737,-614.278C515.235,-603.592 745,-572.848 745,-503 745,-503 745,-503 745,-315 745,-250.533 668.317,-214.912 614.776,-197.898"/>
<polygon fill="midnightblue" stroke="midnightblue" points="615.658,-194.508 605.072,-194.935 613.614,-201.203 615.658,-194.508"/>
</g>
<!-- Node38 -->
<g id="node103" class="node"><title>Node38</title>
<a xlink:href="../../d4/dba/LHCNoiseFB_8h.html" target="_top" xlink:title="blond/llrf/LHCNoiseFB.h">
<polygon fill="white" stroke="black" points="192.5,-239.5 192.5,-260.5 315.5,-260.5 315.5,-239.5 192.5,-239.5"/>
<text text-anchor="middle" x="254" y="-247.5" font-family="Helvetica,sans-Serif" font-size="10.00">blond/llrf/LHCNoiseFB.h</text>
</a>
</g>
<!-- Node6&#45;&gt;Node38 -->
<g id="edge130" class="edge"><title>Node6&#45;&gt;Node38</title>
<path fill="none" stroke="midnightblue" d="M326.421,-608.443C311.527,-600.402 292.679,-587.994 281,-572 262.096,-546.112 260,-535.056 260,-503 260,-503 260,-503 260,-380 260,-341.425 257.331,-296.48 255.553,-270.82"/>
<polygon fill="midnightblue" stroke="midnightblue" points="259.04,-270.503 254.834,-260.778 252.058,-271.003 259.04,-270.503"/>
</g>
<!-- Node39 -->
<g id="node108" class="node"><title>Node39</title>
<a xlink:href="../../d9/dc8/PhaseNoise_8h.html" target="_top" xlink:title="blond/llrf/PhaseNoise.h">
<polygon fill="white" stroke="black" points="290,-550.5 290,-571.5 408,-571.5 408,-550.5 290,-550.5"/>
<text text-anchor="middle" x="349" y="-558.5" font-family="Helvetica,sans-Serif" font-size="10.00">blond/llrf/PhaseNoise.h</text>
</a>
</g>
<!-- Node6&#45;&gt;Node39 -->
<g id="edge138" class="edge"><title>Node6&#45;&gt;Node39</title>
<path fill="none" stroke="midnightblue" d="M349,-608.362C349,-600.922 349,-590.743 349,-581.728"/>
<polygon fill="midnightblue" stroke="midnightblue" points="352.5,-581.571 349,-571.571 345.5,-581.571 352.5,-581.571"/>
</g>
<!-- Node8 -->
<g id="node16" class="node"><title>Node8</title>
<a xlink:href="../../d5/d34/GeneralParameters_8h.html" target="_top" xlink:title="blond/input_parameters\l/GeneralParameters.h">
<polygon fill="white" stroke="black" points="544,-233 544,-267 662,-267 662,-233 544,-233"/>
<text text-anchor="start" x="552" y="-254" font-family="Helvetica,sans-Serif" font-size="10.00">blond/input_parameters</text>
<text text-anchor="middle" x="603" y="-241" font-family="Helvetica,sans-Serif" font-size="10.00">/GeneralParameters.h</text>
</a>
</g>
<!-- Node7&#45;&gt;Node8 -->
<g id="edge16" class="edge"><title>Node7&#45;&gt;Node8</title>
<path fill="none" stroke="midnightblue" d="M528.952,-492.308C533.226,-482.869 539.417,-468.676 544,-456 566.814,-392.892 586.77,-316.443 596.569,-276.785"/>
<polygon fill="midnightblue" stroke="midnightblue" points="599.969,-277.616 598.948,-267.07 593.17,-275.951 599.969,-277.616"/>
</g>
<!-- Node21 -->
<g id="node46" class="node"><title>Node21</title>
<a xlink:href="../../d6/db7/RfParameters_8h.html" target="_top" xlink:title="blond/input_parameters\l/RfParameters.h">
<polygon fill="white" stroke="black" points="599,-363 599,-397 717,-397 717,-363 599,-363"/>
<text text-anchor="start" x="607" y="-384" font-family="Helvetica,sans-Serif" font-size="10.00">blond/input_parameters</text>
<text text-anchor="middle" x="658" y="-371" font-family="Helvetica,sans-Serif" font-size="10.00">/RfParameters.h</text>
</a>
</g>
<!-- Node7&#45;&gt;Node21 -->
<g id="edge50" class="edge"><title>Node7&#45;&gt;Node21</title>
<path fill="none" stroke="midnightblue" d="M531.845,-492.385C542.693,-483.223 561.07,-469.388 576,-456 594.26,-439.625 613.415,-419.558 628.812,-404.157"/>
<polygon fill="midnightblue" stroke="midnightblue" points="631.395,-406.526 636.049,-397.008 626.475,-401.546 631.395,-406.526"/>
</g>
<!-- Node22 -->
<g id="node48" class="node"><title>Node22</title>
<a xlink:href="../../d7/d74/Beams_8h.html" target="_top" xlink:title="blond/beams/Beams.h">
<polygon fill="white" stroke="black" points="460,-304.5 460,-325.5 574,-325.5 574,-304.5 460,-304.5"/>
<text text-anchor="middle" x="517" y="-312.5" font-family="Helvetica,sans-Serif" font-size="10.00">blond/beams/Beams.h</text>
</a>
</g>
<!-- Node7&#45;&gt;Node22 -->
<g id="edge118" class="edge"><title>Node7&#45;&gt;Node22</title>
<path fill="none" stroke="midnightblue" d="M520.265,-492.354C514.987,-462.172 511.406,-375.656 513.35,-335.693"/>
<polygon fill="midnightblue" stroke="midnightblue" points="516.855,-335.752 514.07,-325.53 509.872,-335.257 516.855,-335.752"/>
</g>
<!-- Node36 -->
<g id="node96" class="node"><title>Node36</title>
<a xlink:href="../../dc/df2/Slices_8h.html" target="_top" xlink:title="blond/beams/Slices.h">
<polygon fill="white" stroke="black" points="377,-434.5 377,-455.5 487,-455.5 487,-434.5 377,-434.5"/>
<text text-anchor="middle" x="432" y="-442.5" font-family="Helvetica,sans-Serif" font-size="10.00">blond/beams/Slices.h</text>
</a>
</g>
<!-- Node7&#45;&gt;Node36 -->
<g id="edge120" class="edge"><title>Node7&#45;&gt;Node36</title>
<path fill="none" stroke="midnightblue" d="M507.126,-492.362C493.249,-483.614 473.366,-471.079 457.54,-461.101"/>
<polygon fill="midnightblue" stroke="midnightblue" points="459.093,-457.943 448.767,-455.571 455.36,-463.864 459.093,-457.943"/>
</g>
<!-- Node8&#45;&gt;Node3 -->
<g id="edge18" class="edge"><title>Node8&#45;&gt;Node3</title>
<path fill="none" stroke="midnightblue" d="M562.907,-232.929C538.979,-222.574 508.077,-208.907 481,-196 461.622,-186.763 458.559,-180.179 438,-174 302.775,-133.36 259.886,-157.485 116.761,-138.155"/>
<polygon fill="midnightblue" stroke="midnightblue" points="117.123,-134.672 106.734,-136.752 116.153,-141.604 117.123,-134.672"/>
</g>
<!-- Node8&#45;&gt;Node5 -->
<g id="edge48" class="edge"><title>Node8&#45;&gt;Node5</title>
<path fill="none" stroke="midnightblue" d="M662.06,-238.986C749.829,-221.283 907.931,-183.795 941,-138 956.104,-117.083 928.69,-96.458 904.29,-83.2858"/>
<polygon fill="midnightblue" stroke="midnightblue" points="905.676,-80.0636 895.181,-78.6173 902.484,-86.2931 905.676,-80.0636"/>
</g>
<!-- Node8&#45;&gt;Node9 -->
<g id="edge20" class="edge"><title>Node8&#45;&gt;Node9</title>
<path fill="none" stroke="midnightblue" d="M592.753,-232.922C587.527,-224.212 581.147,-213.578 575.725,-204.542"/>
<polygon fill="midnightblue" stroke="midnightblue" points="578.657,-202.626 570.511,-195.852 572.655,-206.228 578.657,-202.626"/>
</g>
<!-- Node9&#45;&gt;Node3 -->
<g id="edge44" class="edge"><title>Node9&#45;&gt;Node3</title>
<path fill="none" stroke="midnightblue" d="M522.937,-176.292C518.249,-175.445 513.529,-174.658 509,-174 338.215,-149.191 291.02,-160.923 116.747,-138.147"/>
<polygon fill="midnightblue" stroke="midnightblue" points="117.099,-134.663 106.725,-136.818 116.178,-141.603 117.099,-134.663"/>
</g>
<!-- Node9&#45;&gt;Node5 -->
<g id="edge40" class="edge"><title>Node9&#45;&gt;Node5</title>
<path fill="none" stroke="midnightblue" d="M605.368,-179.748C647.346,-173.434 713.574,-160.732 767,-138 783.899,-130.81 823.972,-103.555 849.719,-85.5277"/>
<polygon fill="midnightblue" stroke="midnightblue" points="852.002,-88.2008 858.167,-79.584 847.974,-82.4758 852.002,-88.2008"/>
</g>
<!-- Node10 -->
<g id="node21" class="node"><title>Node10</title>
<polygon fill="white" stroke="#bfbfbf" points="452,-116.5 452,-137.5 498,-137.5 498,-116.5 452,-116.5"/>
<text text-anchor="middle" x="475" y="-124.5" font-family="Helvetica,sans-Serif" font-size="10.00">chrono</text>
</g>
<!-- Node9&#45;&gt;Node10 -->
<g id="edge22" class="edge"><title>Node9&#45;&gt;Node10</title>
<path fill="none" stroke="midnightblue" d="M547.676,-174.362C534.252,-165.614 515.017,-153.079 499.707,-143.101"/>
<polygon fill="midnightblue" stroke="midnightblue" points="501.509,-140.098 491.22,-137.571 497.688,-145.963 501.509,-140.098"/>
</g>
<!-- Node11 -->
<g id="node23" class="node"><title>Node11</title>
<polygon fill="white" stroke="#bfbfbf" points="515.5,-116.5 515.5,-137.5 558.5,-137.5 558.5,-116.5 515.5,-116.5"/>
<text text-anchor="middle" x="537" y="-124.5" font-family="Helvetica,sans-Serif" font-size="10.00">cstdio</text>
</g>
<!-- Node9&#45;&gt;Node11 -->
<g id="edge24" class="edge"><title>Node9&#45;&gt;Node11</title>
<path fill="none" stroke="midnightblue" d="M559.048,-174.362C555.47,-166.677 550.532,-156.069 546.236,-146.84"/>
<polygon fill="midnightblue" stroke="midnightblue" points="549.314,-145.159 541.921,-137.571 542.968,-148.114 549.314,-145.159"/>
</g>
<!-- Node12 -->
<g id="node25" class="node"><title>Node12</title>
<polygon fill="white" stroke="#bfbfbf" points="575.5,-116.5 575.5,-137.5 620.5,-137.5 620.5,-116.5 575.5,-116.5"/>
<text text-anchor="middle" x="598" y="-124.5" font-family="Helvetica,sans-Serif" font-size="10.00">cstdlib</text>
</g>
<!-- Node9&#45;&gt;Node12 -->
<g id="edge26" class="edge"><title>Node9&#45;&gt;Node12</title>
<path fill="none" stroke="midnightblue" d="M570.236,-174.362C574.837,-166.513 581.225,-155.616 586.714,-146.253"/>
<polygon fill="midnightblue" stroke="midnightblue" points="589.766,-147.968 591.803,-137.571 583.727,-144.428 589.766,-147.968"/>
</g>
<!-- Node13 -->
<g id="node27" class="node"><title>Node13</title>
<polygon fill="white" stroke="#bfbfbf" points="638,-116.5 638,-137.5 688,-137.5 688,-116.5 638,-116.5"/>
<text text-anchor="middle" x="663" y="-124.5" font-family="Helvetica,sans-Serif" font-size="10.00">fstream</text>
</g>
<!-- Node9&#45;&gt;Node13 -->
<g id="edge28" class="edge"><title>Node9&#45;&gt;Node13</title>
<path fill="none" stroke="midnightblue" d="M582.158,-174.362C597.23,-165.532 618.887,-152.844 635.993,-142.822"/>
<polygon fill="midnightblue" stroke="midnightblue" points="638.098,-145.646 644.957,-137.571 634.559,-139.606 638.098,-145.646"/>
</g>
<!-- Node14 -->
<g id="node29" class="node"><title>Node14</title>
<polygon fill="white" stroke="#bfbfbf" points="878,-116.5 878,-137.5 932,-137.5 932,-116.5 878,-116.5"/>
<text text-anchor="middle" x="905" y="-124.5" font-family="Helvetica,sans-Serif" font-size="10.00">iostream</text>
</g>
<!-- Node9&#45;&gt;Node14 -->
<g id="edge30" class="edge"><title>Node9&#45;&gt;Node14</title>
<path fill="none" stroke="midnightblue" d="M605.301,-180.545C662.368,-173.972 768.639,-160.233 868.077,-137.963"/>
<polygon fill="midnightblue" stroke="midnightblue" points="869.011,-141.34 877.986,-135.71 867.458,-134.514 869.011,-141.34"/>
</g>
<!-- Node15 -->
<g id="node31" class="node"><title>Node15</title>
<polygon fill="white" stroke="#bfbfbf" points="813.5,-116.5 813.5,-137.5 860.5,-137.5 860.5,-116.5 813.5,-116.5"/>
<text text-anchor="middle" x="837" y="-124.5" font-family="Helvetica,sans-Serif" font-size="10.00">iterator</text>
</g>
<!-- Node9&#45;&gt;Node15 -->
<g id="edge32" class="edge"><title>Node9&#45;&gt;Node15</title>
<path fill="none" stroke="midnightblue" d="M605.184,-177.989C652.482,-169.663 732.279,-154.772 800,-138 801.073,-137.734 802.162,-137.457 803.26,-137.171"/>
<polygon fill="midnightblue" stroke="midnightblue" points="804.496,-140.461 813.205,-134.426 802.634,-133.713 804.496,-140.461"/>
</g>
<!-- Node16 -->
<g id="node33" class="node"><title>Node16</title>
<polygon fill="white" stroke="#bfbfbf" points="706,-116.5 706,-137.5 758,-137.5 758,-116.5 706,-116.5"/>
<text text-anchor="middle" x="732" y="-124.5" font-family="Helvetica,sans-Serif" font-size="10.00">memory</text>
</g>
<!-- Node9&#45;&gt;Node16 -->
<g id="edge34" class="edge"><title>Node9&#45;&gt;Node16</title>
<path fill="none" stroke="midnightblue" d="M594.424,-174.497C623.053,-164.613 665.932,-149.809 696.197,-139.361"/>
<polygon fill="midnightblue" stroke="midnightblue" points="697.628,-142.569 705.938,-135.998 695.343,-135.953 697.628,-142.569"/>
</g>
<!-- Node17 -->
<g id="node35" class="node"><title>Node17</title>
<polygon fill="white" stroke="#bfbfbf" points="124,-116.5 124,-137.5 176,-137.5 176,-116.5 124,-116.5"/>
<text text-anchor="middle" x="150" y="-124.5" font-family="Helvetica,sans-Serif" font-size="10.00">sstream</text>
</g>
<!-- Node9&#45;&gt;Node17 -->
<g id="edge36" class="edge"><title>Node9&#45;&gt;Node17</title>
<path fill="none" stroke="midnightblue" d="M522.924,-176.38C518.238,-175.517 513.523,-174.702 509,-174 369.045,-152.271 328.583,-167.157 186.206,-137.929"/>
<polygon fill="midnightblue" stroke="midnightblue" points="186.733,-134.463 176.228,-135.843 185.3,-141.315 186.733,-134.463"/>
</g>
<!-- Node18 -->
<g id="node37" class="node"><title>Node18</title>
<polygon fill="white" stroke="#bfbfbf" points="193.5,-116.5 193.5,-137.5 234.5,-137.5 234.5,-116.5 193.5,-116.5"/>
<text text-anchor="middle" x="214" y="-124.5" font-family="Helvetica,sans-Serif" font-size="10.00">string</text>
</g>
<!-- Node9&#45;&gt;Node18 -->
<g id="edge38" class="edge"><title>Node9&#45;&gt;Node18</title>
<path fill="none" stroke="midnightblue" d="M522.907,-176.488C518.224,-175.605 513.514,-174.756 509,-174 394.556,-154.831 360.487,-166.656 244.69,-138.023"/>
<polygon fill="midnightblue" stroke="midnightblue" points="245.278,-134.562 234.726,-135.511 243.567,-141.35 245.278,-134.562"/>
</g>
<!-- Node19 -->
<g id="node40" class="node"><title>Node19</title>
<polygon fill="white" stroke="#bfbfbf" points="252,-116.5 252,-137.5 312,-137.5 312,-116.5 252,-116.5"/>
<text text-anchor="middle" x="282" y="-124.5" font-family="Helvetica,sans-Serif" font-size="10.00">sys/stat.h</text>
</g>
<!-- Node9&#45;&gt;Node19 -->
<g id="edge42" class="edge"><title>Node9&#45;&gt;Node19</title>
<path fill="none" stroke="midnightblue" d="M522.862,-176.734C518.188,-175.806 513.491,-174.879 509,-174 428.609,-158.264 405.49,-157.594 322.086,-138.122"/>
<polygon fill="midnightblue" stroke="midnightblue" points="322.703,-134.671 312.167,-135.784 321.098,-141.485 322.703,-134.671"/>
</g>
<!-- Node20 -->
<g id="node43" class="node"><title>Node20</title>
<a xlink:href="../../da/d69/optionparser_8h.html" target="_top" xlink:title="This is the only file required to use The Lean Mean C++ Option Parser. Just #include it and you&#39;re se...">
<polygon fill="white" stroke="black" points="330,-116.5 330,-137.5 434,-137.5 434,-116.5 330,-116.5"/>
<text text-anchor="middle" x="382" y="-124.5" font-family="Helvetica,sans-Serif" font-size="10.00">blond/optionparser.h</text>
</a>
</g>
<!-- Node9&#45;&gt;Node20 -->
<g id="edge46" class="edge"><title>Node9&#45;&gt;Node20</title>
<path fill="none" stroke="midnightblue" d="M531.041,-174.497C501.242,-165 457.191,-150.962 424.703,-140.609"/>
<polygon fill="midnightblue" stroke="midnightblue" points="425.611,-137.225 415.021,-137.523 423.486,-143.894 425.611,-137.225"/>
</g>
<!-- Node21&#45;&gt;Node2 -->
<g id="edge100" class="edge"><title>Node21&#45;&gt;Node2</title>
<path fill="none" stroke="midnightblue" d="M598.883,-372.48C499.925,-359.893 301.998,-334.716 204.281,-322.286"/>
<polygon fill="midnightblue" stroke="midnightblue" points="204.653,-318.805 194.291,-321.016 203.77,-325.75 204.653,-318.805"/>
</g>
<!-- Node21&#45;&gt;Node7 -->
<g id="edge102" class="edge"><title>Node21&#45;&gt;Node7</title>
<path fill="none" stroke="midnightblue" d="M649.976,-397.008C637.708,-412.892 615.248,-436.946 594,-456 581.869,-466.878 567.463,-478.051 554.727,-486.773"/>
<polygon fill="midnightblue" stroke="midnightblue" points="552.642,-483.955 546.224,-492.385 556.498,-489.797 552.642,-483.955"/>
</g>
<!-- Node21&#45;&gt;Node8 -->
<g id="edge64" class="edge"><title>Node21&#45;&gt;Node8</title>
<path fill="none" stroke="midnightblue" d="M650.696,-362.737C641.41,-340.786 625.274,-302.649 614.371,-276.877"/>
<polygon fill="midnightblue" stroke="midnightblue" points="617.454,-275.18 610.334,-267.334 611.007,-277.908 617.454,-275.18"/>
</g>
<!-- Node21&#45;&gt;Node22 -->
<g id="edge52" class="edge"><title>Node21&#45;&gt;Node22</title>
<path fill="none" stroke="midnightblue" d="M614.931,-362.922C591.88,-352.772 564.264,-340.01 544.173,-330.208"/>
<polygon fill="midnightblue" stroke="midnightblue" points="545.483,-326.951 534.967,-325.658 542.382,-333.227 545.483,-326.951"/>
</g>
<!-- Node21&#45;&gt;Node23 -->
<g id="edge66" class="edge"><title>Node21&#45;&gt;Node23</title>
<path fill="none" stroke="midnightblue" d="M717.453,-363.271C810.308,-337.143 987.887,-287.175 1072.67,-263.318"/>
<polygon fill="midnightblue" stroke="midnightblue" points="1073.86,-266.619 1082.54,-260.541 1071.96,-259.881 1073.86,-266.619"/>
</g>
<!-- Node34 -->
<g id="node86" class="node"><title>Node34</title>
<a xlink:href="../../da/d30/vector__math_8h.html" target="_top" xlink:title="blond/vector_math.h">
<polygon fill="white" stroke="black" points="852.5,-239.5 852.5,-260.5 957.5,-260.5 957.5,-239.5 852.5,-239.5"/>
<text text-anchor="middle" x="905" y="-247.5" font-family="Helvetica,sans-Serif" font-size="10.00">blond/vector_math.h</text>
</a>
</g>
<!-- Node21&#45;&gt;Node34 -->
<g id="edge104" class="edge"><title>Node21&#45;&gt;Node34</title>
<path fill="none" stroke="midnightblue" d="M690.545,-362.871C739.077,-337.328 829.659,-289.653 876.027,-265.249"/>
<polygon fill="midnightblue" stroke="midnightblue" points="877.733,-268.306 884.952,-260.552 874.473,-262.112 877.733,-268.306"/>
</g>
<!-- Node22&#45;&gt;Node3 -->
<g id="edge56" class="edge"><title>Node22&#45;&gt;Node3</title>
<path fill="none" stroke="midnightblue" d="M496.351,-304.465C447.14,-279.612 318.711,-216.245 207,-174 172.703,-161.03 133.121,-149.012 102.675,-140.375"/>
<polygon fill="midnightblue" stroke="midnightblue" points="103.295,-136.914 92.7207,-137.58 101.402,-143.653 103.295,-136.914"/>
</g>
<!-- Node22&#45;&gt;Node7 -->
<g id="edge54" class="edge"><title>Node22&#45;&gt;Node7</title>
<path fill="none" stroke="midnightblue" d="M520.714,-325.53C525.996,-355.566 529.588,-442.068 527.657,-482.152"/>
<polygon fill="midnightblue" stroke="midnightblue" points="524.15,-482.133 526.942,-492.354 531.133,-482.623 524.15,-482.133"/>
</g>
<!-- Node22&#45;&gt;Node8 -->
<g id="edge60" class="edge"><title>Node22&#45;&gt;Node8</title>
<path fill="none" stroke="midnightblue" d="M531.201,-304.267C542.368,-295.827 558.33,-283.762 572.369,-273.151"/>
<polygon fill="midnightblue" stroke="midnightblue" points="574.495,-275.932 580.362,-267.11 570.274,-270.347 574.495,-275.932"/>
</g>
<!-- Node22&#45;&gt;Node9 -->
<g id="edge58" class="edge"><title>Node22&#45;&gt;Node9</title>
<path fill="none" stroke="midnightblue" d="M518.127,-304.443C520.102,-288.34 524.967,-256.889 535,-232 538.907,-222.308 544.743,-212.351 550.158,-204.109"/>
<polygon fill="midnightblue" stroke="midnightblue" points="553.197,-205.867 555.967,-195.64 547.424,-201.907 553.197,-205.867"/>
</g>
<!-- Node22&#45;&gt;Node21 -->
<g id="edge62" class="edge"><title>Node22&#45;&gt;Node21</title>
<path fill="none" stroke="midnightblue" d="M545.274,-325.658C566.105,-334.539 594.571,-347.471 617.737,-358.491"/>
<polygon fill="midnightblue" stroke="midnightblue" points="616.447,-361.754 626.977,-362.922 619.474,-355.442 616.447,-361.754"/>
</g>
<!-- Node23&#45;&gt;Node3 -->
<g id="edge70" class="edge"><title>Node23&#45;&gt;Node3</title>
<path fill="none" stroke="midnightblue" d="M1060.82,-242.566C1032.2,-239.103 997.343,-235.079 966,-232 765.44,-212.299 707.34,-252.85 514,-196 494.16,-190.166 492.778,-180.039 473,-174 323.194,-128.257 275.354,-158.676 116.834,-138.146"/>
<polygon fill="midnightblue" stroke="midnightblue" points="117.106,-134.651 106.729,-136.788 116.174,-141.589 117.106,-134.651"/>
</g>
<!-- Node23&#45;&gt;Node9 -->
<g id="edge88" class="edge"><title>Node23&#45;&gt;Node9</title>
<path fill="none" stroke="midnightblue" d="M1060.76,-243.075C951.201,-230.266 718.685,-203.084 615.35,-191.003"/>
<polygon fill="midnightblue" stroke="midnightblue" points="615.51,-187.498 605.171,-189.813 614.697,-194.451 615.51,-187.498"/>
</g>
<!-- Node24 -->
<g id="node58" class="node"><title>Node24</title>
<polygon fill="white" stroke="#bfbfbf" points="1037,-174.5 1037,-195.5 1093,-195.5 1093,-174.5 1037,-174.5"/>
<text text-anchor="middle" x="1065" y="-182.5" font-family="Helvetica,sans-Serif" font-size="10.00">algorithm</text>
</g>
<!-- Node23&#45;&gt;Node24 -->
<g id="edge68" class="edge"><title>Node23&#45;&gt;Node24</title>
<path fill="none" stroke="midnightblue" d="M1110.92,-239.267C1102.67,-229.517 1090.33,-214.932 1080.52,-203.336"/>
<polygon fill="midnightblue" stroke="midnightblue" points="1083.04,-200.907 1073.91,-195.534 1077.7,-205.428 1083.04,-200.907"/>
</g>
<!-- Node25 -->
<g id="node61" class="node"><title>Node25</title>
<a xlink:href="../../d8/dcd/exp_8h.html" target="_top" xlink:title="blond/exp.h">
<polygon fill="white" stroke="black" points="1362.5,-174.5 1362.5,-195.5 1429.5,-195.5 1429.5,-174.5 1362.5,-174.5"/>
<text text-anchor="middle" x="1396" y="-182.5" font-family="Helvetica,sans-Serif" font-size="10.00">blond/exp.h</text>
</a>
</g>
<!-- Node23&#45;&gt;Node25 -->
<g id="edge72" class="edge"><title>Node23&#45;&gt;Node25</title>
<path fill="none" stroke="midnightblue" d="M1167.6,-239.445C1212.83,-229.32 1282.98,-213.366 1352.32,-196.375"/>
<polygon fill="midnightblue" stroke="midnightblue" points="1353.22,-199.758 1362.1,-193.971 1351.55,-192.96 1353.22,-199.758"/>
</g>
<!-- Node27 -->
<g id="node65" class="node"><title>Node27</title>
<polygon fill="white" stroke="#bfbfbf" points="1374,-0.5 1374,-21.5 1418,-21.5 1418,-0.5 1374,-0.5"/>
<text text-anchor="middle" x="1396" y="-8.5" font-family="Helvetica,sans-Serif" font-size="10.00">cmath</text>
</g>
<!-- Node23&#45;&gt;Node27 -->
<g id="edge90" class="edge"><title>Node23&#45;&gt;Node27</title>
<path fill="none" stroke="midnightblue" d="M1179.04,-247.875C1264.38,-243.614 1416.43,-231.18 1457,-196 1503.34,-155.813 1490.4,-108.097 1455,-58 1446.45,-45.8972 1433.93,-35.3109 1422.62,-27.2651"/>
<polygon fill="midnightblue" stroke="midnightblue" points="1424.54,-24.3357 1414.3,-21.6245 1420.61,-30.131 1424.54,-24.3357"/>
</g>
<!-- Node28 -->
<g id="node67" class="node"><title>Node28</title>
<polygon fill="white" stroke="#bfbfbf" points="1426,-116.5 1426,-137.5 1466,-137.5 1466,-116.5 1426,-116.5"/>
<text text-anchor="middle" x="1446" y="-124.5" font-family="Helvetica,sans-Serif" font-size="10.00">limits</text>
</g>
<!-- Node23&#45;&gt;Node28 -->
<g id="edge94" class="edge"><title>Node23&#45;&gt;Node28</title>
<path fill="none" stroke="midnightblue" d="M1179.3,-248.168C1261.38,-244.308 1403.46,-232.413 1438,-196 1449.95,-183.398 1450.99,-163.133 1449.61,-147.818"/>
<polygon fill="midnightblue" stroke="midnightblue" points="1453.06,-147.187 1448.3,-137.721 1446.11,-148.089 1453.06,-147.187"/>
</g>
<!-- Node29 -->
<g id="node69" class="node"><title>Node29</title>
<a xlink:href="../../d1/d3d/sin_8h.html" target="_top" xlink:title="blond/sin.h">
<polygon fill="white" stroke="black" points="1281,-174.5 1281,-195.5 1345,-195.5 1345,-174.5 1281,-174.5"/>
<text text-anchor="middle" x="1313" y="-182.5" font-family="Helvetica,sans-Serif" font-size="10.00">blond/sin.h</text>
</a>
</g>
<!-- Node23&#45;&gt;Node29 -->
<g id="edge80" class="edge"><title>Node23&#45;&gt;Node29</title>
<path fill="none" stroke="midnightblue" d="M1151.44,-239.412C1184.24,-228.364 1235.83,-210.991 1271.85,-198.857"/>
<polygon fill="midnightblue" stroke="midnightblue" points="1273.22,-202.092 1281.58,-195.584 1270.98,-195.458 1273.22,-202.092"/>
</g>
<!-- Node31 -->
<g id="node77" class="node"><title>Node31</title>
<polygon fill="white" stroke="#bfbfbf" points="1110.5,-174.5 1110.5,-195.5 1159.5,-195.5 1159.5,-174.5 1110.5,-174.5"/>
<text text-anchor="middle" x="1135" y="-182.5" font-family="Helvetica,sans-Serif" font-size="10.00">random</text>
</g>
<!-- Node23&#45;&gt;Node31 -->
<g id="edge92" class="edge"><title>Node23&#45;&gt;Node31</title>
<path fill="none" stroke="midnightblue" d="M1122.48,-239.267C1124.6,-230.085 1127.7,-216.615 1130.29,-205.392"/>
<polygon fill="midnightblue" stroke="midnightblue" points="1133.73,-206.065 1132.57,-195.534 1126.91,-204.491 1133.73,-206.065"/>
</g>
<!-- Node32 -->
<g id="node80" class="node"><title>Node32</title>
<polygon fill="white" stroke="#bfbfbf" points="970.5,-174.5 970.5,-195.5 1019.5,-195.5 1019.5,-174.5 970.5,-174.5"/>
<text text-anchor="middle" x="995" y="-182.5" font-family="Helvetica,sans-Serif" font-size="10.00">cassert</text>
</g>
<!-- Node23&#45;&gt;Node32 -->
<g id="edge96" class="edge"><title>Node23&#45;&gt;Node32</title>
<path fill="none" stroke="midnightblue" d="M1099.64,-239.412C1079.21,-228.788 1047.54,-212.318 1024.38,-200.28"/>
<polygon fill="midnightblue" stroke="midnightblue" points="1025.84,-197.092 1015.35,-195.584 1022.61,-203.302 1025.84,-197.092"/>
</g>
<!-- Node33 -->
<g id="node82" class="node"><title>Node33</title>
<a xlink:href="../../d1/db0/openmp_8h.html" target="_top" xlink:title="blond/openmp.h">
<polygon fill="white" stroke="black" points="1177,-174.5 1177,-195.5 1263,-195.5 1263,-174.5 1177,-174.5"/>
<text text-anchor="middle" x="1220" y="-182.5" font-family="Helvetica,sans-Serif" font-size="10.00">blond/openmp.h</text>
</a>
</g>
<!-- Node23&#45;&gt;Node33 -->
<g id="edge98" class="edge"><title>Node23&#45;&gt;Node33</title>
<path fill="none" stroke="midnightblue" d="M1136.51,-239.267C1152.53,-228.855 1177.04,-212.927 1195.36,-201.016"/>
<polygon fill="midnightblue" stroke="midnightblue" points="1197.32,-203.918 1203.79,-195.534 1193.5,-198.049 1197.32,-203.918"/>
</g>
<!-- Node26 -->
<g id="node63" class="node"><title>Node26</title>
<a xlink:href="../../df/de1/vdtcore__common_8h.html" target="_top" xlink:title="vdtcore_common.h">
<polygon fill="white" stroke="black" points="1346,-58.5 1346,-79.5 1446,-79.5 1446,-58.5 1346,-58.5"/>
<text text-anchor="middle" x="1396" y="-66.5" font-family="Helvetica,sans-Serif" font-size="10.00">vdtcore_common.h</text>
</a>
</g>
<!-- Node25&#45;&gt;Node26 -->
<g id="edge74" class="edge"><title>Node25&#45;&gt;Node26</title>
<path fill="none" stroke="midnightblue" d="M1396,-174.295C1396,-155.131 1396,-114.654 1396,-89.8434"/>
<polygon fill="midnightblue" stroke="midnightblue" points="1399.5,-89.6792 1396,-79.6792 1392.5,-89.6792 1399.5,-89.6792"/>
</g>
<!-- Node25&#45;&gt;Node28 -->
<g id="edge78" class="edge"><title>Node25&#45;&gt;Node28</title>
<path fill="none" stroke="midnightblue" d="M1405.17,-174.362C1412.15,-166.268 1421.92,-154.932 1430.16,-145.38"/>
<polygon fill="midnightblue" stroke="midnightblue" points="1433.01,-147.43 1436.89,-137.571 1427.71,-142.859 1433.01,-147.43"/>
</g>
<!-- Node26&#45;&gt;Node27 -->
<g id="edge76" class="edge"><title>Node26&#45;&gt;Node27</title>
<path fill="none" stroke="midnightblue" d="M1396,-58.3619C1396,-50.9219 1396,-40.7427 1396,-31.7276"/>
<polygon fill="midnightblue" stroke="midnightblue" points="1399.5,-31.5706 1396,-21.5707 1392.5,-31.5707 1399.5,-31.5706"/>
</g>
<!-- Node30 -->
<g id="node71" class="node"><title>Node30</title>
<a xlink:href="../../dc/dfa/sincos_8h.html" target="_top" xlink:title="sincos.h">
<polygon fill="white" stroke="black" points="1291.5,-116.5 1291.5,-137.5 1344.5,-137.5 1344.5,-116.5 1291.5,-116.5"/>
<text text-anchor="middle" x="1318" y="-124.5" font-family="Helvetica,sans-Serif" font-size="10.00">sincos.h</text>
</a>
</g>
<!-- Node29&#45;&gt;Node30 -->
<g id="edge82" class="edge"><title>Node29&#45;&gt;Node30</title>
<path fill="none" stroke="midnightblue" d="M1313.92,-174.362C1314.56,-166.922 1315.44,-156.743 1316.21,-147.728"/>
<polygon fill="midnightblue" stroke="midnightblue" points="1319.72,-147.834 1317.09,-137.571 1312.74,-147.233 1319.72,-147.834"/>
</g>
<!-- Node30&#45;&gt;Node26 -->
<g id="edge84" class="edge"><title>Node30&#45;&gt;Node26</title>
<path fill="none" stroke="midnightblue" d="M1332.31,-116.362C1343.85,-107.777 1360.3,-95.5459 1373.59,-85.6636"/>
<polygon fill="midnightblue" stroke="midnightblue" points="1375.85,-88.3463 1381.78,-79.5707 1371.67,-82.7291 1375.85,-88.3463"/>
</g>
<!-- Node30&#45;&gt;Node27 -->
<g id="edge86" class="edge"><title>Node30&#45;&gt;Node27</title>
<path fill="none" stroke="midnightblue" d="M1318.88,-116.343C1320.49,-102.02 1324.95,-76.2508 1337,-58 1345.11,-45.7195 1357.46,-35.1651 1368.78,-27.1871"/>
<polygon fill="midnightblue" stroke="midnightblue" points="1370.77,-30.0674 1377.14,-21.6027 1366.88,-24.2464 1370.77,-30.0674"/>
</g>
<!-- Node34&#45;&gt;Node5 -->
<g id="edge112" class="edge"><title>Node34&#45;&gt;Node5</title>
<path fill="none" stroke="midnightblue" d="M913.527,-239.262C934.981,-211.645 988.49,-138.725 974,-116 958.964,-92.4193 928.69,-80.4821 905.189,-74.5583"/>
<polygon fill="midnightblue" stroke="midnightblue" points="905.799,-71.1078 895.272,-72.3053 904.248,-77.9339 905.799,-71.1078"/>
</g>
<!-- Node34&#45;&gt;Node14 -->
<g id="edge114" class="edge"><title>Node34&#45;&gt;Node14</title>
<path fill="none" stroke="midnightblue" d="M905,-239.085C905,-218.609 905,-174.133 905,-147.778"/>
<polygon fill="midnightblue" stroke="midnightblue" points="908.5,-147.715 905,-137.715 901.5,-147.715 908.5,-147.715"/>
</g>
<!-- Node34&#45;&gt;Node15 -->
<g id="edge116" class="edge"><title>Node34&#45;&gt;Node15</title>
<path fill="none" stroke="midnightblue" d="M898.965,-239.085C887.494,-218.335 862.396,-172.937 847.907,-146.729"/>
<polygon fill="midnightblue" stroke="midnightblue" points="850.825,-144.774 842.924,-137.715 844.699,-148.16 850.825,-144.774"/>
</g>
<!-- Node34&#45;&gt;Node24 -->
<g id="edge106" class="edge"><title>Node34&#45;&gt;Node24</title>
<path fill="none" stroke="midnightblue" d="M931.063,-239.412C957.794,-228.552 999.564,-211.583 1029.35,-199.484"/>
<polygon fill="midnightblue" stroke="midnightblue" points="1031,-202.59 1038.95,-195.584 1028.37,-196.105 1031,-202.59"/>
</g>
<!-- Node34&#45;&gt;Node32 -->
<g id="edge110" class="edge"><title>Node34&#45;&gt;Node32</title>
<path fill="none" stroke="midnightblue" d="M919.862,-239.267C934.016,-229.044 955.533,-213.504 971.919,-201.67"/>
<polygon fill="midnightblue" stroke="midnightblue" points="974.357,-204.226 980.415,-195.534 970.259,-198.551 974.357,-204.226"/>
</g>
<!-- Node35 -->
<g id="node89" class="node"><title>Node35</title>
<polygon fill="white" stroke="#bfbfbf" points="370.5,-174.5 370.5,-195.5 429.5,-195.5 429.5,-174.5 370.5,-174.5"/>
<text text-anchor="middle" x="400" y="-182.5" font-family="Helvetica,sans-Serif" font-size="10.00">functional</text>
</g>
<!-- Node34&#45;&gt;Node35 -->
<g id="edge108" class="edge"><title>Node34&#45;&gt;Node35</title>
<path fill="none" stroke="midnightblue" d="M852.432,-243.447C772.281,-233.424 614.716,-213.594 481,-196 467.566,-194.232 452.886,-192.253 439.758,-190.466"/>
<polygon fill="midnightblue" stroke="midnightblue" points="439.997,-186.966 429.615,-189.082 439.05,-193.902 439.997,-186.966"/>
</g>
<!-- Node36&#45;&gt;Node3 -->
<g id="edge122" class="edge"><title>Node36&#45;&gt;Node3</title>
<path fill="none" stroke="midnightblue" d="M413.997,-434.408C371.423,-408.898 262.254,-340.757 184,-268 144.242,-231.035 143.752,-213.012 106,-174 95.9778,-163.643 84.0252,-152.92 74.0096,-144.335"/>
<polygon fill="midnightblue" stroke="midnightblue" points="76.0342,-141.464 66.137,-137.683 71.516,-146.81 76.0342,-141.464"/>
</g>
<!-- Node36&#45;&gt;Node9 -->
<g id="edge124" class="edge"><title>Node36&#45;&gt;Node9</title>
<path fill="none" stroke="midnightblue" d="M431.284,-434.472C430.071,-410.162 429.551,-348.775 451,-304 471.88,-260.412 514.708,-222.337 541.227,-201.609"/>
<polygon fill="midnightblue" stroke="midnightblue" points="543.395,-204.357 549.215,-195.504 539.144,-198.795 543.395,-204.357"/>
</g>
<!-- Node36&#45;&gt;Node21 -->
<g id="edge126" class="edge"><title>Node36&#45;&gt;Node21</title>
<path fill="none" stroke="midnightblue" d="M468.562,-434.484C501.108,-425.124 549.58,-411.183 589.344,-399.746"/>
<polygon fill="midnightblue" stroke="midnightblue" points="590.346,-403.1 598.989,-396.972 588.411,-396.373 590.346,-403.1"/>
</g>
<!-- Node37 -->
<g id="node101" class="node"><title>Node37</title>
<polygon fill="white" stroke="#bfbfbf" points="452.5,-369.5 452.5,-390.5 487.5,-390.5 487.5,-369.5 452.5,-369.5"/>
<text text-anchor="middle" x="470" y="-377.5" font-family="Helvetica,sans-Serif" font-size="10.00">map</text>
</g>
<!-- Node36&#45;&gt;Node37 -->
<g id="edge128" class="edge"><title>Node36&#45;&gt;Node37</title>
<path fill="none" stroke="midnightblue" d="M438.275,-434.267C443.808,-424.801 452.007,-410.777 458.684,-399.357"/>
<polygon fill="midnightblue" stroke="midnightblue" points="461.816,-400.933 463.842,-390.534 455.773,-397.4 461.816,-400.933"/>
</g>
<!-- Node38&#45;&gt;Node3 -->
<g id="edge132" class="edge"><title>Node38&#45;&gt;Node3</title>
<path fill="none" stroke="midnightblue" d="M246.129,-239.482C233.566,-223.35 207.477,-192.435 179,-174 156.176,-159.224 128.043,-148.166 104.155,-140.5"/>
<polygon fill="midnightblue" stroke="midnightblue" points="105.136,-137.14 94.5481,-137.524 103.064,-143.826 105.136,-137.14"/>
</g>
<!-- Node38&#45;&gt;Node9 -->
<g id="edge134" class="edge"><title>Node38&#45;&gt;Node9</title>
<path fill="none" stroke="midnightblue" d="M304.151,-239.484C361.539,-227.452 455.025,-207.85 512.834,-195.728"/>
<polygon fill="midnightblue" stroke="midnightblue" points="513.776,-199.107 522.845,-193.629 512.34,-192.256 513.776,-199.107"/>
</g>
<!-- Node38&#45;&gt;Node35 -->
<g id="edge136" class="edge"><title>Node38&#45;&gt;Node35</title>
<path fill="none" stroke="midnightblue" d="M277.782,-239.412C301.962,-228.647 339.628,-211.878 366.755,-199.801"/>
<polygon fill="midnightblue" stroke="midnightblue" points="368.516,-202.848 376.228,-195.584 365.669,-196.453 368.516,-202.848"/>
</g>
<!-- Node39&#45;&gt;Node3 -->
<g id="edge140" class="edge"><title>Node39&#45;&gt;Node3</title>
<path fill="none" stroke="midnightblue" d="M330.995,-550.495C283.139,-521.541 152.263,-435.434 91,-326 58.3018,-267.591 53.2189,-186.047 52.7633,-148.046"/>
<polygon fill="midnightblue" stroke="midnightblue" points="56.2628,-147.717 52.745,-137.724 49.2628,-147.73 56.2628,-147.717"/>
</g>
<!-- Node39&#45;&gt;Node7 -->
<g id="edge142" class="edge"><title>Node39&#45;&gt;Node7</title>
<path fill="none" stroke="midnightblue" d="M380.691,-550.497C409.221,-541.041 451.336,-527.083 482.535,-516.743"/>
<polygon fill="midnightblue" stroke="midnightblue" points="483.858,-519.991 492.249,-513.523 481.656,-513.347 483.858,-519.991"/>
</g>
<!-- Node39&#45;&gt;Node9 -->
<g id="edge144" class="edge"><title>Node39&#45;&gt;Node9</title>
<path fill="none" stroke="midnightblue" d="M349.459,-550.203C350.652,-527.963 354.751,-475.639 368,-434 398.494,-338.16 398.743,-302.976 470,-232 484.289,-217.768 503.762,-207.064 521.279,-199.494"/>
<polygon fill="midnightblue" stroke="midnightblue" points="522.837,-202.639 530.765,-195.609 520.184,-196.161 522.837,-202.639"/>
</g>
</g>
</svg>
