<?xml version="1.0" encoding="UTF-8" standalone="no"?>
<!DOCTYPE svg PUBLIC "-//W3C//DTD SVG 1.1//EN"
 "http://www.w3.org/Graphics/SVG/1.1/DTD/svg11.dtd">
<!-- Generated by graphviz version 2.26.3 (20100126.1600)
 -->
<!-- Title: plot_impedance.cpp Pages: 1 -->
<svg width="1588pt" height="710pt"
 viewBox="0.00 0.00 1588.00 710.00" xmlns="http://www.w3.org/2000/svg" xmlns:xlink="http://www.w3.org/1999/xlink">
<g id="graph1" class="graph" transform="scale(1 1) rotate(0) translate(4 706)">
<title>plot_impedance.cpp</title>
<polygon fill="white" stroke="white" points="-4,5 -4,-706 1585,-706 1585,5 -4,5"/>
<!-- Node1 -->
<g id="node1" class="node"><title>Node1</title>
<polygon fill="#bfbfbf" stroke="black" points="1062,-680.5 1062,-701.5 1166,-701.5 1166,-680.5 1062,-680.5"/>
<text text-anchor="middle" x="1114" y="-688.5" font-family="Helvetica,sans-Serif" font-size="10.00">plot_impedance.cpp</text>
</g>
<!-- Node2 -->
<g id="node3" class="node"><title>Node2</title>
<a xlink:href="../../da/d77/plot__impedance_8h.html" target="_top" xlink:title="blond/plots/plot_impedance.h">
<polygon fill="white" stroke="black" points="934.5,-622.5 934.5,-643.5 1077.5,-643.5 1077.5,-622.5 934.5,-622.5"/>
<text text-anchor="middle" x="1006" y="-630.5" font-family="Helvetica,sans-Serif" font-size="10.00">blond/plots/plot_impedance.h</text>
</a>
</g>
<!-- Node1&#45;&gt;Node2 -->
<g id="edge2" class="edge"><title>Node1&#45;&gt;Node2</title>
<path fill="none" stroke="midnightblue" d="M1094.44,-680.497C1077.8,-671.56 1053.67,-658.602 1034.82,-648.477"/>
<polygon fill="midnightblue" stroke="midnightblue" points="1036.24,-645.269 1025.78,-643.621 1032.93,-651.436 1036.24,-645.269"/>
</g>
<!-- Node38 -->
<g id="node101" class="node"><title>Node38</title>
<a xlink:href="../../d1/da8/python_8h.html" target="_top" xlink:title="blond/python.h">
<polygon fill="white" stroke="black" points="1128,-376.5 1128,-397.5 1208,-397.5 1208,-376.5 1128,-376.5"/>
<text text-anchor="middle" x="1168" y="-384.5" font-family="Helvetica,sans-Serif" font-size="10.00">blond/python.h</text>
</a>
</g>
<!-- Node1&#45;&gt;Node38 -->
<g id="edge138" class="edge"><title>Node1&#45;&gt;Node38</title>
<path fill="none" stroke="midnightblue" d="M1122.2,-680.497C1137.31,-660.064 1168,-613.01 1168,-568 1168,-568 1168,-568 1168,-503 1168,-469.598 1168,-430.785 1168,-407.594"/>
<polygon fill="midnightblue" stroke="midnightblue" points="1171.5,-407.556 1168,-397.556 1164.5,-407.556 1171.5,-407.556"/>
</g>
<!-- Node3 -->
<g id="node5" class="node"><title>Node3</title>
<a xlink:href="../../d9/dee/InducedVoltage_8h.html" target="_top" xlink:title="blond/impedances/Induced\lVoltage.h">
<polygon fill="white" stroke="black" points="770.5,-551 770.5,-585 903.5,-585 903.5,-551 770.5,-551"/>
<text text-anchor="start" x="778.5" y="-572" font-family="Helvetica,sans-Serif" font-size="10.00">blond/impedances/Induced</text>
<text text-anchor="middle" x="837" y="-559" font-family="Helvetica,sans-Serif" font-size="10.00">Voltage.h</text>
</a>
</g>
<!-- Node2&#45;&gt;Node3 -->
<g id="edge4" class="edge"><title>Node2&#45;&gt;Node3</title>
<path fill="none" stroke="midnightblue" d="M978.471,-622.412C954.858,-613.33 920.135,-599.975 890.999,-588.769"/>
<polygon fill="midnightblue" stroke="midnightblue" points="891.947,-585.384 881.357,-585.06 889.434,-591.917 891.947,-585.384"/>
</g>
<!-- Node35 -->
<g id="node83" class="node"><title>Node35</title>
<a xlink:href="../../dc/df2/Slices_8h.html" target="_top" xlink:title="blond/beams/Slices.h">
<polygon fill="white" stroke="black" points="874,-376.5 874,-397.5 984,-397.5 984,-376.5 874,-376.5"/>
<text text-anchor="middle" x="929" y="-384.5" font-family="Helvetica,sans-Serif" font-size="10.00">blond/beams/Slices.h</text>
</a>
</g>
<!-- Node2&#45;&gt;Node35 -->
<g id="edge124" class="edge"><title>Node2&#45;&gt;Node35</title>
<path fill="none" stroke="midnightblue" d="M1002.69,-622.43C990.918,-584.817 950.932,-457.068 935.319,-407.187"/>
<polygon fill="midnightblue" stroke="midnightblue" points="938.624,-406.029 932.296,-397.531 931.943,-408.12 938.624,-406.029"/>
</g>
<!-- Node2&#45;&gt;Node38 -->
<g id="edge126" class="edge"><title>Node2&#45;&gt;Node38</title>
<path fill="none" stroke="midnightblue" d="M1016.63,-622.238C1036.07,-602.186 1077.9,-557.212 1106,-514 1129.16,-478.384 1149.35,-432.85 1160,-407.107"/>
<polygon fill="midnightblue" stroke="midnightblue" points="1163.31,-408.252 1163.84,-397.671 1156.83,-405.614 1163.31,-408.252"/>
</g>
<!-- Node4 -->
<g id="node7" class="node"><title>Node4</title>
<a xlink:href="../../d2/d2c/configuration_8h.html" target="_top" xlink:title="blond/configuration.h">
<polygon fill="white" stroke="black" points="1021.5,-116.5 1021.5,-137.5 1128.5,-137.5 1128.5,-116.5 1021.5,-116.5"/>
<text text-anchor="middle" x="1075" y="-124.5" font-family="Helvetica,sans-Serif" font-size="10.00">blond/configuration.h</text>
</a>
</g>
<!-- Node3&#45;&gt;Node4 -->
<g id="edge6" class="edge"><title>Node3&#45;&gt;Node4</title>
<path fill="none" stroke="midnightblue" d="M900.361,-550.907C975.883,-528.622 1092,-487.455 1092,-445 1092,-445 1092,-445 1092,-387 1092,-297.948 1081.95,-192.105 1077.3,-147.957"/>
<polygon fill="midnightblue" stroke="midnightblue" points="1080.77,-147.452 1076.22,-137.882 1073.81,-148.198 1080.77,-147.452"/>
</g>
<!-- Node6 -->
<g id="node11" class="node"><title>Node6</title>
<polygon fill="white" stroke="#bfbfbf" points="54,-58.5 54,-79.5 98,-79.5 98,-58.5 54,-58.5"/>
<text text-anchor="middle" x="76" y="-66.5" font-family="Helvetica,sans-Serif" font-size="10.00">vector</text>
</g>
<!-- Node3&#45;&gt;Node6 -->
<g id="edge122" class="edge"><title>Node3&#45;&gt;Node6</title>
<path fill="none" stroke="midnightblue" d="M770.271,-565.198C571.978,-555.993 0,-522.705 0,-445 0,-445 0,-445 0,-185 0,-144.51 32.7975,-107.158 55.3017,-86.2949"/>
<polygon fill="midnightblue" stroke="midnightblue" points="57.6399,-88.8993 62.7618,-79.6247 52.9742,-83.681 57.6399,-88.8993"/>
</g>
<!-- Node7 -->
<g id="node13" class="node"><title>Node7</title>
<a xlink:href="../../d7/d74/Beams_8h.html" target="_top" xlink:title="blond/beams/Beams.h">
<polygon fill="white" stroke="black" points="780,-492.5 780,-513.5 894,-513.5 894,-492.5 780,-492.5"/>
<text text-anchor="middle" x="837" y="-500.5" font-family="Helvetica,sans-Serif" font-size="10.00">blond/beams/Beams.h</text>
</a>
</g>
<!-- Node3&#45;&gt;Node7 -->
<g id="edge12" class="edge"><title>Node3&#45;&gt;Node7</title>
<path fill="none" stroke="midnightblue" d="M837,-550.922C837,-542.67 837,-532.692 837,-523.982"/>
<polygon fill="midnightblue" stroke="midnightblue" points="840.5,-523.852 837,-513.852 833.5,-523.852 840.5,-523.852"/>
</g>
<!-- Node37 -->
<g id="node94" class="node"><title>Node37</title>
<a xlink:href="../../d6/d70/Intensity_8h.html" target="_top" xlink:title="blond/impedances/Intensity.h">
<polygon fill="white" stroke="black" points="444,-239.5 444,-260.5 588,-260.5 588,-239.5 444,-239.5"/>
<text text-anchor="middle" x="516" y="-247.5" font-family="Helvetica,sans-Serif" font-size="10.00">blond/impedances/Intensity.h</text>
</a>
</g>
<!-- Node3&#45;&gt;Node37 -->
<g id="edge114" class="edge"><title>Node3&#45;&gt;Node37</title>
<path fill="none" stroke="midnightblue" d="M770.468,-553.745C684.85,-533.443 547,-493.263 547,-445 547,-445 547,-445 547,-387 547,-344.777 532.819,-296.999 523.64,-270.495"/>
<polygon fill="midnightblue" stroke="midnightblue" points="526.844,-269.059 520.181,-260.821 520.252,-271.416 526.844,-269.059"/>
</g>
<!-- Node5 -->
<g id="node9" class="node"><title>Node5</title>
<polygon fill="white" stroke="#bfbfbf" points="1048.5,-58.5 1048.5,-79.5 1101.5,-79.5 1101.5,-58.5 1048.5,-58.5"/>
<text text-anchor="middle" x="1075" y="-66.5" font-family="Helvetica,sans-Serif" font-size="10.00">complex</text>
</g>
<!-- Node4&#45;&gt;Node5 -->
<g id="edge8" class="edge"><title>Node4&#45;&gt;Node5</title>
<path fill="none" stroke="midnightblue" d="M1075,-116.362C1075,-108.922 1075,-98.7427 1075,-89.7276"/>
<polygon fill="midnightblue" stroke="midnightblue" points="1078.5,-89.5706 1075,-79.5707 1071.5,-89.5707 1078.5,-89.5706"/>
</g>
<!-- Node4&#45;&gt;Node6 -->
<g id="edge10" class="edge"><title>Node4&#45;&gt;Node6</title>
<path fill="none" stroke="midnightblue" d="M1021.29,-117.046C1018.49,-116.66 1015.72,-116.308 1013,-116 660.272,-76.0229 228.998,-70.0494 108.575,-69.1568"/>
<polygon fill="midnightblue" stroke="midnightblue" points="108.241,-65.6546 98.2179,-69.0872 108.194,-72.6544 108.241,-65.6546"/>
</g>
<!-- Node7&#45;&gt;Node4 -->
<g id="edge106" class="edge"><title>Node7&#45;&gt;Node4</title>
<path fill="none" stroke="midnightblue" d="M819.583,-492.225C807.953,-483.93 793.62,-471.309 787,-456 783.119,-447.025 784.81,-443.529 787,-434 809.345,-336.749 824.256,-311.166 885,-232 908.976,-200.753 918.204,-194.224 952,-174 975.6,-159.877 1004.19,-148.648 1027.86,-140.712"/>
<polygon fill="midnightblue" stroke="midnightblue" points="1029.25,-143.939 1037.67,-137.513 1027.08,-137.284 1029.25,-143.939"/>
</g>
<!-- Node8 -->
<g id="node15" class="node"><title>Node8</title>
<a xlink:href="../../d5/d87/globals_8h.html" target="_top" xlink:title="blond/globals.h">
<polygon fill="white" stroke="black" points="796,-434.5 796,-455.5 878,-455.5 878,-434.5 796,-434.5"/>
<text text-anchor="middle" x="837" y="-442.5" font-family="Helvetica,sans-Serif" font-size="10.00">blond/globals.h</text>
</a>
</g>
<!-- Node7&#45;&gt;Node8 -->
<g id="edge14" class="edge"><title>Node7&#45;&gt;Node8</title>
<path fill="none" stroke="midnightblue" d="M831.636,-492.362C830.319,-484.922 829.941,-474.743 830.5,-465.728"/>
<polygon fill="midnightblue" stroke="midnightblue" points="834.003,-465.9 831.648,-455.571 827.047,-465.114 834.003,-465.9"/>
</g>
<!-- Node9 -->
<g id="node17" class="node"><title>Node9</title>
<a xlink:href="../../d5/d34/GeneralParameters_8h.html" target="_top" xlink:title="blond/input_parameters\l/GeneralParameters.h">
<polygon fill="white" stroke="black" points="644,-233 644,-267 762,-267 762,-233 644,-233"/>
<text text-anchor="start" x="652" y="-254" font-family="Helvetica,sans-Serif" font-size="10.00">blond/input_parameters</text>
<text text-anchor="middle" x="703" y="-241" font-family="Helvetica,sans-Serif" font-size="10.00">/GeneralParameters.h</text>
</a>
</g>
<!-- Node7&#45;&gt;Node9 -->
<g id="edge110" class="edge"><title>Node7&#45;&gt;Node9</title>
<path fill="none" stroke="midnightblue" d="M793.776,-492.447C773.83,-485.381 751.607,-473.977 738,-456 697.819,-402.916 697.261,-320.073 700.166,-277.42"/>
<polygon fill="midnightblue" stroke="midnightblue" points="703.672,-277.488 700.979,-267.241 696.694,-276.931 703.672,-277.488"/>
</g>
<!-- Node10 -->
<g id="node20" class="node"><title>Node10</title>
<a xlink:href="../../de/df0/utilities_8h.html" target="_top" xlink:title="blond/utilities.h">
<polygon fill="white" stroke="black" points="585,-174.5 585,-195.5 667,-195.5 667,-174.5 585,-174.5"/>
<text text-anchor="middle" x="626" y="-182.5" font-family="Helvetica,sans-Serif" font-size="10.00">blond/utilities.h</text>
</a>
</g>
<!-- Node7&#45;&gt;Node10 -->
<g id="edge108" class="edge"><title>Node7&#45;&gt;Node10</title>
<path fill="none" stroke="midnightblue" d="M779.8,-497.591C714.318,-487.884 616,-460.99 616,-387 616,-387 616,-387 616,-322 616,-280.683 620.58,-232.543 623.541,-205.738"/>
<polygon fill="midnightblue" stroke="midnightblue" points="627.037,-205.971 624.693,-195.639 620.082,-205.178 627.037,-205.971"/>
</g>
<!-- Node23 -->
<g id="node49" class="node"><title>Node23</title>
<a xlink:href="../../d6/db7/RfParameters_8h.html" target="_top" xlink:title="blond/input_parameters\l/RfParameters.h">
<polygon fill="white" stroke="black" points="894,-305 894,-339 1012,-339 1012,-305 894,-305"/>
<text text-anchor="start" x="902" y="-326" font-family="Helvetica,sans-Serif" font-size="10.00">blond/input_parameters</text>
<text text-anchor="middle" x="953" y="-313" font-family="Helvetica,sans-Serif" font-size="10.00">/RfParameters.h</text>
</a>
</g>
<!-- Node7&#45;&gt;Node23 -->
<g id="edge112" class="edge"><title>Node7&#45;&gt;Node23</title>
<path fill="none" stroke="midnightblue" d="M861.876,-492.386C896.619,-477.75 957.69,-447.423 984,-398 992.961,-381.167 982.984,-362.183 971.878,-347.4"/>
<polygon fill="midnightblue" stroke="midnightblue" points="974.322,-344.852 965.342,-339.229 968.855,-349.225 974.322,-344.852"/>
</g>
<!-- Node8&#45;&gt;Node7 -->
<g id="edge94" class="edge"><title>Node8&#45;&gt;Node7</title>
<path fill="none" stroke="midnightblue" d="M842.352,-455.571C843.674,-462.994 844.059,-473.168 843.505,-482.191"/>
<polygon fill="midnightblue" stroke="midnightblue" points="840,-482.034 842.364,-492.362 846.957,-482.814 840,-482.034"/>
</g>
<!-- Node8&#45;&gt;Node9 -->
<g id="edge16" class="edge"><title>Node8&#45;&gt;Node9</title>
<path fill="none" stroke="midnightblue" d="M829.605,-434.238C808.919,-404.135 750.046,-318.463 720.444,-275.385"/>
<polygon fill="midnightblue" stroke="midnightblue" points="723.313,-273.379 714.765,-267.12 717.544,-277.344 723.313,-273.379"/>
</g>
<!-- Node8&#45;&gt;Node23 -->
<g id="edge52" class="edge"><title>Node8&#45;&gt;Node23</title>
<path fill="none" stroke="midnightblue" d="M833.109,-434.082C833.572,-419.463 841.291,-393.359 856,-376 866.94,-363.089 881.778,-352.357 896.604,-343.953"/>
<polygon fill="midnightblue" stroke="midnightblue" points="898.64,-346.833 905.798,-339.022 895.331,-340.664 898.64,-346.833"/>
</g>
<!-- Node8&#45;&gt;Node35 -->
<g id="edge96" class="edge"><title>Node8&#45;&gt;Node35</title>
<path fill="none" stroke="midnightblue" d="M853.874,-434.362C867.751,-425.614 887.634,-413.079 903.46,-403.101"/>
<polygon fill="midnightblue" stroke="midnightblue" points="905.64,-405.864 912.233,-397.571 901.907,-399.943 905.64,-405.864"/>
</g>
<!-- Node9&#45;&gt;Node4 -->
<g id="edge18" class="edge"><title>Node9&#45;&gt;Node4</title>
<path fill="none" stroke="midnightblue" d="M714.186,-232.958C726.894,-215.113 749.361,-187.806 776,-174 867.73,-126.461 905.564,-153.544 1011.15,-138.187"/>
<polygon fill="midnightblue" stroke="midnightblue" points="1011.9,-141.613 1021.25,-136.621 1010.83,-134.696 1011.9,-141.613"/>
</g>
<!-- Node9&#45;&gt;Node6 -->
<g id="edge50" class="edge"><title>Node9&#45;&gt;Node6</title>
<path fill="none" stroke="midnightblue" d="M643.936,-239.752C494.693,-213.757 113.499,-146.686 103,-138 88.644,-126.123 81.8897,-105.597 78.7309,-90.0118"/>
<polygon fill="midnightblue" stroke="midnightblue" points="82.1128,-89.015 77.0089,-79.7306 75.2089,-90.1714 82.1128,-89.015"/>
</g>
<!-- Node9&#45;&gt;Node10 -->
<g id="edge20" class="edge"><title>Node9&#45;&gt;Node10</title>
<path fill="none" stroke="midnightblue" d="M682.769,-232.922C671.691,-223.57 657.985,-212.001 646.816,-202.572"/>
<polygon fill="midnightblue" stroke="midnightblue" points="648.755,-199.628 638.856,-195.852 644.239,-204.977 648.755,-199.628"/>
</g>
<!-- Node10&#45;&gt;Node4 -->
<g id="edge44" class="edge"><title>Node10&#45;&gt;Node4</title>
<path fill="none" stroke="midnightblue" d="M667.294,-177.287C674.196,-176.109 681.291,-174.966 688,-174 828.615,-153.76 867.425,-158.475 1011.19,-138.193"/>
<polygon fill="midnightblue" stroke="midnightblue" points="1011.86,-141.632 1021.27,-136.755 1010.87,-134.703 1011.86,-141.632"/>
</g>
<!-- Node10&#45;&gt;Node6 -->
<g id="edge40" class="edge"><title>Node10&#45;&gt;Node6</title>
<path fill="none" stroke="midnightblue" d="M584.669,-182.872C473.268,-176.884 172.496,-158.95 133,-138 112.117,-126.923 95.9232,-104.642 86.2212,-88.386"/>
<polygon fill="midnightblue" stroke="midnightblue" points="89.2438,-86.6206 81.2725,-79.6414 83.1517,-90.0683 89.2438,-86.6206"/>
</g>
<!-- Node11 -->
<g id="node22" class="node"><title>Node11</title>
<polygon fill="white" stroke="#bfbfbf" points="696,-116.5 696,-137.5 742,-137.5 742,-116.5 696,-116.5"/>
<text text-anchor="middle" x="719" y="-124.5" font-family="Helvetica,sans-Serif" font-size="10.00">chrono</text>
</g>
<!-- Node10&#45;&gt;Node11 -->
<g id="edge22" class="edge"><title>Node10&#45;&gt;Node11</title>
<path fill="none" stroke="midnightblue" d="M643.058,-174.362C657.085,-165.614 677.184,-153.079 693.182,-143.101"/>
<polygon fill="midnightblue" stroke="midnightblue" points="695.418,-145.832 702.051,-137.571 691.713,-139.893 695.418,-145.832"/>
</g>
<!-- Node12 -->
<g id="node24" class="node"><title>Node12</title>
<polygon fill="white" stroke="#bfbfbf" points="759.5,-116.5 759.5,-137.5 802.5,-137.5 802.5,-116.5 759.5,-116.5"/>
<text text-anchor="middle" x="781" y="-124.5" font-family="Helvetica,sans-Serif" font-size="10.00">cstdio</text>
</g>
<!-- Node10&#45;&gt;Node12 -->
<g id="edge24" class="edge"><title>Node10&#45;&gt;Node12</title>
<path fill="none" stroke="midnightblue" d="M654.069,-174.497C680.953,-164.437 721.456,-149.281 749.445,-138.808"/>
<polygon fill="midnightblue" stroke="midnightblue" points="751.004,-141.962 759.143,-135.179 748.55,-135.405 751.004,-141.962"/>
</g>
<!-- Node13 -->
<g id="node26" class="node"><title>Node13</title>
<polygon fill="white" stroke="#bfbfbf" points="819.5,-116.5 819.5,-137.5 864.5,-137.5 864.5,-116.5 819.5,-116.5"/>
<text text-anchor="middle" x="842" y="-124.5" font-family="Helvetica,sans-Serif" font-size="10.00">cstdlib</text>
</g>
<!-- Node10&#45;&gt;Node13 -->
<g id="edge26" class="edge"><title>Node10&#45;&gt;Node13</title>
<path fill="none" stroke="midnightblue" d="M667.082,-175.711C702.636,-167.416 755.59,-154.453 809.647,-138.247"/>
<polygon fill="midnightblue" stroke="midnightblue" points="810.838,-141.543 819.393,-135.293 808.808,-134.844 810.838,-141.543"/>
</g>
<!-- Node14 -->
<g id="node28" class="node"><title>Node14</title>
<polygon fill="white" stroke="#bfbfbf" points="882,-116.5 882,-137.5 932,-137.5 932,-116.5 882,-116.5"/>
<text text-anchor="middle" x="907" y="-124.5" font-family="Helvetica,sans-Serif" font-size="10.00">fstream</text>
</g>
<!-- Node10&#45;&gt;Node14 -->
<g id="edge28" class="edge"><title>Node10&#45;&gt;Node14</title>
<path fill="none" stroke="midnightblue" d="M667.155,-177.46C726.34,-166.576 832.041,-146.978 872.036,-137.889"/>
<polygon fill="midnightblue" stroke="midnightblue" points="872.95,-141.269 881.851,-135.523 871.31,-134.464 872.95,-141.269"/>
</g>
<!-- Node15 -->
<g id="node30" class="node"><title>Node15</title>
<polygon fill="white" stroke="#bfbfbf" points="950,-116.5 950,-137.5 1004,-137.5 1004,-116.5 950,-116.5"/>
<text text-anchor="middle" x="977" y="-124.5" font-family="Helvetica,sans-Serif" font-size="10.00">iostream</text>
</g>
<!-- Node10&#45;&gt;Node15 -->
<g id="edge30" class="edge"><title>Node10&#45;&gt;Node15</title>
<path fill="none" stroke="midnightblue" d="M667.321,-177.466C674.219,-176.266 681.307,-175.07 688,-174 796.978,-156.585 828.37,-162.315 940.022,-137.952"/>
<polygon fill="midnightblue" stroke="midnightblue" points="940.987,-141.324 949.993,-135.744 939.473,-134.489 940.987,-141.324"/>
</g>
<!-- Node16 -->
<g id="node32" class="node"><title>Node16</title>
<polygon fill="white" stroke="#bfbfbf" points="141.5,-116.5 141.5,-137.5 188.5,-137.5 188.5,-116.5 141.5,-116.5"/>
<text text-anchor="middle" x="165" y="-124.5" font-family="Helvetica,sans-Serif" font-size="10.00">iterator</text>
</g>
<!-- Node10&#45;&gt;Node16 -->
<g id="edge32" class="edge"><title>Node10&#45;&gt;Node16</title>
<path fill="none" stroke="midnightblue" d="M584.99,-183.532C509.787,-180.191 344.83,-169.847 198.643,-137.995"/>
<polygon fill="midnightblue" stroke="midnightblue" points="199.118,-134.516 188.597,-135.766 197.601,-141.349 199.118,-134.516"/>
</g>
<!-- Node17 -->
<g id="node34" class="node"><title>Node17</title>
<polygon fill="white" stroke="#bfbfbf" points="206,-116.5 206,-137.5 258,-137.5 258,-116.5 206,-116.5"/>
<text text-anchor="middle" x="232" y="-124.5" font-family="Helvetica,sans-Serif" font-size="10.00">memory</text>
</g>
<!-- Node10&#45;&gt;Node17 -->
<g id="edge34" class="edge"><title>Node10&#45;&gt;Node17</title>
<path fill="none" stroke="midnightblue" d="M584.95,-181.968C519.672,-176.64 388.152,-163.836 268.317,-137.997"/>
<polygon fill="midnightblue" stroke="midnightblue" points="268.758,-134.51 258.24,-135.787 267.258,-141.348 268.758,-134.51"/>
</g>
<!-- Node18 -->
<g id="node36" class="node"><title>Node18</title>
<polygon fill="white" stroke="#bfbfbf" points="276,-116.5 276,-137.5 328,-137.5 328,-116.5 276,-116.5"/>
<text text-anchor="middle" x="302" y="-124.5" font-family="Helvetica,sans-Serif" font-size="10.00">sstream</text>
</g>
<!-- Node10&#45;&gt;Node18 -->
<g id="edge36" class="edge"><title>Node10&#45;&gt;Node18</title>
<path fill="none" stroke="midnightblue" d="M584.955,-180.207C530.522,-173.44 431.372,-159.686 338.135,-138.027"/>
<polygon fill="midnightblue" stroke="midnightblue" points="338.797,-134.587 328.261,-135.697 337.19,-141.4 338.797,-134.587"/>
</g>
<!-- Node19 -->
<g id="node38" class="node"><title>Node19</title>
<polygon fill="white" stroke="#bfbfbf" points="345.5,-116.5 345.5,-137.5 386.5,-137.5 386.5,-116.5 345.5,-116.5"/>
<text text-anchor="middle" x="366" y="-124.5" font-family="Helvetica,sans-Serif" font-size="10.00">string</text>
</g>
<!-- Node10&#45;&gt;Node19 -->
<g id="edge38" class="edge"><title>Node10&#45;&gt;Node19</title>
<path fill="none" stroke="midnightblue" d="M584.62,-178.658C540.109,-171.38 467.183,-158.14 396.699,-138.199"/>
<polygon fill="midnightblue" stroke="midnightblue" points="397.35,-134.744 386.772,-135.34 395.413,-141.471 397.35,-134.744"/>
</g>
<!-- Node20 -->
<g id="node41" class="node"><title>Node20</title>
<polygon fill="white" stroke="#bfbfbf" points="404,-116.5 404,-137.5 464,-137.5 464,-116.5 404,-116.5"/>
<text text-anchor="middle" x="434" y="-124.5" font-family="Helvetica,sans-Serif" font-size="10.00">sys/stat.h</text>
</g>
<!-- Node10&#45;&gt;Node20 -->
<g id="edge42" class="edge"><title>Node10&#45;&gt;Node20</title>
<path fill="none" stroke="midnightblue" d="M591.23,-174.497C558.183,-164.514 508.52,-149.511 473.881,-139.047"/>
<polygon fill="midnightblue" stroke="midnightblue" points="474.677,-135.632 464.092,-136.09 472.653,-142.333 474.677,-135.632"/>
</g>
<!-- Node21 -->
<g id="node44" class="node"><title>Node21</title>
<polygon fill="white" stroke="#bfbfbf" points="481.5,-116.5 481.5,-137.5 556.5,-137.5 556.5,-116.5 481.5,-116.5"/>
<text text-anchor="middle" x="519" y="-124.5" font-family="Helvetica,sans-Serif" font-size="10.00">mm_malloc.h</text>
</g>
<!-- Node10&#45;&gt;Node21 -->
<g id="edge46" class="edge"><title>Node10&#45;&gt;Node21</title>
<path fill="none" stroke="midnightblue" d="M606.375,-174.362C589.859,-165.409 566.026,-152.491 547.422,-142.406"/>
<polygon fill="midnightblue" stroke="midnightblue" points="548.96,-139.259 538.501,-137.571 545.625,-145.413 548.96,-139.259"/>
</g>
<!-- Node22 -->
<g id="node46" class="node"><title>Node22</title>
<a xlink:href="../../da/d69/optionparser_8h.html" target="_top" xlink:title="This is the only file required to use The Lean Mean C++ Option Parser. Just #include it and you&#39;re se...">
<polygon fill="white" stroke="black" points="574,-116.5 574,-137.5 678,-137.5 678,-116.5 574,-116.5"/>
<text text-anchor="middle" x="626" y="-124.5" font-family="Helvetica,sans-Serif" font-size="10.00">blond/optionparser.h</text>
</a>
</g>
<!-- Node10&#45;&gt;Node22 -->
<g id="edge48" class="edge"><title>Node10&#45;&gt;Node22</title>
<path fill="none" stroke="midnightblue" d="M626,-174.362C626,-166.922 626,-156.743 626,-147.728"/>
<polygon fill="midnightblue" stroke="midnightblue" points="629.5,-147.571 626,-137.571 622.5,-147.571 629.5,-147.571"/>
</g>
<!-- Node23&#45;&gt;Node7 -->
<g id="edge54" class="edge"><title>Node23&#45;&gt;Node7</title>
<path fill="none" stroke="midnightblue" d="M979.5,-339.229C996.338,-354.649 1012.72,-377.863 1002,-398 977.694,-443.658 923.722,-473.019 883.979,-488.767"/>
<polygon fill="midnightblue" stroke="midnightblue" points="882.566,-485.56 874.464,-492.386 885.055,-492.103 882.566,-485.56"/>
</g>
<!-- Node23&#45;&gt;Node8 -->
<g id="edge92" class="edge"><title>Node23&#45;&gt;Node8</title>
<path fill="none" stroke="midnightblue" d="M922.209,-339.022C906.106,-347.996 887.21,-360.41 874,-376 862.049,-390.104 854.713,-409.981 848.996,-424.781"/>
<polygon fill="midnightblue" stroke="midnightblue" points="845.739,-423.498 845.26,-434.082 852.235,-426.107 845.739,-423.498"/>
</g>
<!-- Node23&#45;&gt;Node9 -->
<g id="edge56" class="edge"><title>Node23&#45;&gt;Node9</title>
<path fill="none" stroke="midnightblue" d="M893.753,-304.937C857.303,-294.439 810.425,-280.938 772.262,-269.948"/>
<polygon fill="midnightblue" stroke="midnightblue" points="772.832,-266.469 762.254,-267.065 770.895,-273.196 772.832,-266.469"/>
</g>
<!-- Node24 -->
<g id="node53" class="node"><title>Node24</title>
<a xlink:href="../../d2/de2/math__functions_8h.html" target="_top" xlink:title="blond/math_functions.h">
<polygon fill="white" stroke="black" points="1181,-239.5 1181,-260.5 1299,-260.5 1299,-239.5 1181,-239.5"/>
<text text-anchor="middle" x="1240" y="-247.5" font-family="Helvetica,sans-Serif" font-size="10.00">blond/math_functions.h</text>
</a>
</g>
<!-- Node23&#45;&gt;Node24 -->
<g id="edge58" class="edge"><title>Node23&#45;&gt;Node24</title>
<path fill="none" stroke="midnightblue" d="M1012.32,-306.233C1015.26,-305.474 1018.16,-304.726 1021,-304 1077.32,-289.604 1141.95,-273.748 1186.33,-262.964"/>
<polygon fill="midnightblue" stroke="midnightblue" points="1187.42,-266.3 1196.32,-260.54 1185.77,-259.498 1187.42,-266.3"/>
</g>
<!-- Node34 -->
<g id="node78" class="node"><title>Node34</title>
<a xlink:href="../../d2/d6f/constants_8h.html" target="_top" xlink:title="blond/constants.h">
<polygon fill="white" stroke="black" points="926,-239.5 926,-260.5 1020,-260.5 1020,-239.5 926,-239.5"/>
<text text-anchor="middle" x="973" y="-247.5" font-family="Helvetica,sans-Serif" font-size="10.00">blond/constants.h</text>
</a>
</g>
<!-- Node23&#45;&gt;Node34 -->
<g id="edge88" class="edge"><title>Node23&#45;&gt;Node34</title>
<path fill="none" stroke="midnightblue" d="M957.74,-304.937C960.581,-294.707 964.215,-281.625 967.224,-270.794"/>
<polygon fill="midnightblue" stroke="midnightblue" points="970.668,-271.473 969.972,-260.901 963.923,-269.599 970.668,-271.473"/>
</g>
<!-- Node24&#45;&gt;Node4 -->
<g id="edge62" class="edge"><title>Node24&#45;&gt;Node4</title>
<path fill="none" stroke="midnightblue" d="M1185.92,-239.429C1158.11,-231.562 1125.44,-218.214 1103,-196 1089.77,-182.899 1082.56,-162.697 1078.79,-147.532"/>
<polygon fill="midnightblue" stroke="midnightblue" points="1082.16,-146.578 1076.61,-137.553 1075.32,-148.069 1082.16,-146.578"/>
</g>
<!-- Node24&#45;&gt;Node10 -->
<g id="edge80" class="edge"><title>Node24&#45;&gt;Node10</title>
<path fill="none" stroke="midnightblue" d="M1180.85,-243.738C1060.77,-231.026 790.239,-202.387 677.177,-190.418"/>
<polygon fill="midnightblue" stroke="midnightblue" points="677.371,-186.919 667.058,-189.347 676.634,-193.88 677.371,-186.919"/>
</g>
<!-- Node25 -->
<g id="node55" class="node"><title>Node25</title>
<polygon fill="white" stroke="#bfbfbf" points="1524,-174.5 1524,-195.5 1580,-195.5 1580,-174.5 1524,-174.5"/>
<text text-anchor="middle" x="1552" y="-182.5" font-family="Helvetica,sans-Serif" font-size="10.00">algorithm</text>
</g>
<!-- Node24&#45;&gt;Node25 -->
<g id="edge60" class="edge"><title>Node24&#45;&gt;Node25</title>
<path fill="none" stroke="midnightblue" d="M1299.1,-240.073C1352.73,-230.683 1434.17,-215.487 1513.61,-196.185"/>
<polygon fill="midnightblue" stroke="midnightblue" points="1514.92,-199.469 1523.79,-193.686 1513.25,-192.671 1514.92,-199.469"/>
</g>
<!-- Node26 -->
<g id="node58" class="node"><title>Node26</title>
<a xlink:href="../../d8/dcd/exp_8h.html" target="_top" xlink:title="blond/exp.h">
<polygon fill="white" stroke="black" points="1357.5,-174.5 1357.5,-195.5 1424.5,-195.5 1424.5,-174.5 1357.5,-174.5"/>
<text text-anchor="middle" x="1391" y="-182.5" font-family="Helvetica,sans-Serif" font-size="10.00">blond/exp.h</text>
</a>
</g>
<!-- Node24&#45;&gt;Node26 -->
<g id="edge64" class="edge"><title>Node24&#45;&gt;Node26</title>
<path fill="none" stroke="midnightblue" d="M1264.6,-239.412C1289.71,-228.6 1328.9,-211.731 1356.98,-199.642"/>
<polygon fill="midnightblue" stroke="midnightblue" points="1358.61,-202.752 1366.41,-195.584 1355.84,-196.323 1358.61,-202.752"/>
</g>
<!-- Node28 -->
<g id="node62" class="node"><title>Node28</title>
<polygon fill="white" stroke="#bfbfbf" points="1371,-0.5 1371,-21.5 1415,-21.5 1415,-0.5 1371,-0.5"/>
<text text-anchor="middle" x="1393" y="-8.5" font-family="Helvetica,sans-Serif" font-size="10.00">cmath</text>
</g>
<!-- Node24&#45;&gt;Node28 -->
<g id="edge82" class="edge"><title>Node24&#45;&gt;Node28</title>
<path fill="none" stroke="midnightblue" d="M1247,-239.484C1253.99,-228.774 1264.85,-211.573 1273,-196 1304.11,-136.594 1293.04,-111.092 1334,-58 1343.18,-46.1023 1355.98,-35.4275 1367.32,-27.2696"/>
<polygon fill="midnightblue" stroke="midnightblue" points="1369.38,-30.104 1375.62,-21.5434 1365.4,-24.3427 1369.38,-30.104"/>
</g>
<!-- Node30 -->
<g id="node66" class="node"><title>Node30</title>
<a xlink:href="../../d1/d3d/sin_8h.html" target="_top" xlink:title="blond/sin.h">
<polygon fill="white" stroke="black" points="1442,-174.5 1442,-195.5 1506,-195.5 1506,-174.5 1442,-174.5"/>
<text text-anchor="middle" x="1474" y="-182.5" font-family="Helvetica,sans-Serif" font-size="10.00">blond/sin.h</text>
</a>
</g>
<!-- Node24&#45;&gt;Node30 -->
<g id="edge72" class="edge"><title>Node24&#45;&gt;Node30</title>
<path fill="none" stroke="midnightblue" d="M1277.86,-239.484C1320.1,-227.751 1388.25,-208.82 1432.07,-196.647"/>
<polygon fill="midnightblue" stroke="midnightblue" points="1433.15,-199.98 1441.85,-193.931 1431.27,-193.236 1433.15,-199.98"/>
</g>
<!-- Node32 -->
<g id="node74" class="node"><title>Node32</title>
<polygon fill="white" stroke="#bfbfbf" points="1215.5,-174.5 1215.5,-195.5 1264.5,-195.5 1264.5,-174.5 1215.5,-174.5"/>
<text text-anchor="middle" x="1240" y="-182.5" font-family="Helvetica,sans-Serif" font-size="10.00">cassert</text>
</g>
<!-- Node24&#45;&gt;Node32 -->
<g id="edge84" class="edge"><title>Node24&#45;&gt;Node32</title>
<path fill="none" stroke="midnightblue" d="M1240,-239.267C1240,-230.18 1240,-216.892 1240,-205.74"/>
<polygon fill="midnightblue" stroke="midnightblue" points="1243.5,-205.534 1240,-195.534 1236.5,-205.534 1243.5,-205.534"/>
</g>
<!-- Node33 -->
<g id="node76" class="node"><title>Node33</title>
<a xlink:href="../../d1/db0/openmp_8h.html" target="_top" xlink:title="blond/openmp.h">
<polygon fill="white" stroke="black" points="1112,-174.5 1112,-195.5 1198,-195.5 1198,-174.5 1112,-174.5"/>
<text text-anchor="middle" x="1155" y="-182.5" font-family="Helvetica,sans-Serif" font-size="10.00">blond/openmp.h</text>
</a>
</g>
<!-- Node24&#45;&gt;Node33 -->
<g id="edge86" class="edge"><title>Node24&#45;&gt;Node33</title>
<path fill="none" stroke="midnightblue" d="M1225.96,-239.267C1212.6,-229.044 1192.27,-213.504 1176.8,-201.67"/>
<polygon fill="midnightblue" stroke="midnightblue" points="1178.84,-198.828 1168.77,-195.534 1174.59,-204.389 1178.84,-198.828"/>
</g>
<!-- Node27 -->
<g id="node60" class="node"><title>Node27</title>
<a xlink:href="../../df/de1/vdtcore__common_8h.html" target="_top" xlink:title="vdtcore_common.h">
<polygon fill="white" stroke="black" points="1343,-58.5 1343,-79.5 1443,-79.5 1443,-58.5 1343,-58.5"/>
<text text-anchor="middle" x="1393" y="-66.5" font-family="Helvetica,sans-Serif" font-size="10.00">vdtcore_common.h</text>
</a>
</g>
<!-- Node26&#45;&gt;Node27 -->
<g id="edge66" class="edge"><title>Node26&#45;&gt;Node27</title>
<path fill="none" stroke="midnightblue" d="M1391.18,-174.295C1391.51,-155.131 1392.21,-114.654 1392.64,-89.8434"/>
<polygon fill="midnightblue" stroke="midnightblue" points="1396.14,-89.7381 1392.82,-79.6792 1389.14,-89.6173 1396.14,-89.7381"/>
</g>
<!-- Node29 -->
<g id="node64" class="node"><title>Node29</title>
<polygon fill="white" stroke="#bfbfbf" points="1325,-116.5 1325,-137.5 1365,-137.5 1365,-116.5 1325,-116.5"/>
<text text-anchor="middle" x="1345" y="-124.5" font-family="Helvetica,sans-Serif" font-size="10.00">limits</text>
</g>
<!-- Node26&#45;&gt;Node29 -->
<g id="edge70" class="edge"><title>Node26&#45;&gt;Node29</title>
<path fill="none" stroke="midnightblue" d="M1382.56,-174.362C1376.21,-166.35 1367.33,-155.161 1359.81,-145.67"/>
<polygon fill="midnightblue" stroke="midnightblue" points="1362.34,-143.231 1353.38,-137.571 1356.86,-147.581 1362.34,-143.231"/>
</g>
<!-- Node27&#45;&gt;Node28 -->
<g id="edge68" class="edge"><title>Node27&#45;&gt;Node28</title>
<path fill="none" stroke="midnightblue" d="M1393,-58.3619C1393,-50.9219 1393,-40.7427 1393,-31.7276"/>
<polygon fill="midnightblue" stroke="midnightblue" points="1396.5,-31.5706 1393,-21.5707 1389.5,-31.5707 1396.5,-31.5706"/>
</g>
<!-- Node31 -->
<g id="node68" class="node"><title>Node31</title>
<a xlink:href="../../dc/dfa/sincos_8h.html" target="_top" xlink:title="sincos.h">
<polygon fill="white" stroke="black" points="1444.5,-116.5 1444.5,-137.5 1497.5,-137.5 1497.5,-116.5 1444.5,-116.5"/>
<text text-anchor="middle" x="1471" y="-124.5" font-family="Helvetica,sans-Serif" font-size="10.00">sincos.h</text>
</a>
</g>
<!-- Node30&#45;&gt;Node31 -->
<g id="edge74" class="edge"><title>Node30&#45;&gt;Node31</title>
<path fill="none" stroke="midnightblue" d="M1473.45,-174.362C1473.06,-166.922 1472.54,-156.743 1472.07,-147.728"/>
<polygon fill="midnightblue" stroke="midnightblue" points="1475.56,-147.376 1471.55,-137.571 1468.57,-147.738 1475.56,-147.376"/>
</g>
<!-- Node31&#45;&gt;Node27 -->
<g id="edge76" class="edge"><title>Node31&#45;&gt;Node27</title>
<path fill="none" stroke="midnightblue" d="M1456.69,-116.362C1445.15,-107.777 1428.7,-95.5459 1415.41,-85.6636"/>
<polygon fill="midnightblue" stroke="midnightblue" points="1417.33,-82.7291 1407.22,-79.5707 1413.15,-88.3463 1417.33,-82.7291"/>
</g>
<!-- Node31&#45;&gt;Node28 -->
<g id="edge78" class="edge"><title>Node31&#45;&gt;Node28</title>
<path fill="none" stroke="midnightblue" d="M1470.12,-116.343C1468.51,-102.02 1464.05,-76.2508 1452,-58 1443.89,-45.7195 1431.54,-35.1651 1420.22,-27.1871"/>
<polygon fill="midnightblue" stroke="midnightblue" points="1422.12,-24.2464 1411.86,-21.6027 1418.23,-30.0674 1422.12,-24.2464"/>
</g>
<!-- Node34&#45;&gt;Node4 -->
<g id="edge90" class="edge"><title>Node34&#45;&gt;Node4</title>
<path fill="none" stroke="midnightblue" d="M980.756,-239.464C991.796,-224.594 1012.83,-196.73 1032,-174 1040.3,-164.161 1049.94,-153.555 1057.98,-144.912"/>
<polygon fill="midnightblue" stroke="midnightblue" points="1060.55,-147.292 1064.84,-137.605 1055.45,-142.501 1060.55,-147.292"/>
</g>
<!-- Node35&#45;&gt;Node4 -->
<g id="edge98" class="edge"><title>Node35&#45;&gt;Node4</title>
<path fill="none" stroke="midnightblue" d="M914.499,-376.479C904.096,-367.97 890.914,-354.97 885,-340 866.607,-293.439 884.701,-270.25 917,-232 951.767,-190.827 1006.63,-159.393 1041.71,-142.067"/>
<polygon fill="midnightblue" stroke="midnightblue" points="1043.56,-145.06 1051.04,-137.558 1040.51,-138.756 1043.56,-145.06"/>
</g>
<!-- Node35&#45;&gt;Node10 -->
<g id="edge100" class="edge"><title>Node35&#45;&gt;Node10</title>
<path fill="none" stroke="midnightblue" d="M906.924,-376.416C890.658,-367.963 868.574,-355.063 852,-340 807.597,-299.647 819.82,-266.88 771,-232 743.264,-212.183 706.729,-200.41 677.271,-193.602"/>
<polygon fill="midnightblue" stroke="midnightblue" points="677.689,-190.111 667.173,-191.396 676.195,-196.95 677.689,-190.111"/>
</g>
<!-- Node35&#45;&gt;Node23 -->
<g id="edge102" class="edge"><title>Node35&#45;&gt;Node23</title>
<path fill="none" stroke="midnightblue" d="M932.963,-376.267C935.73,-368.773 939.552,-358.423 943.116,-348.769"/>
<polygon fill="midnightblue" stroke="midnightblue" points="946.502,-349.703 946.683,-339.11 939.935,-347.278 946.502,-349.703"/>
</g>
<!-- Node36 -->
<g id="node88" class="node"><title>Node36</title>
<polygon fill="white" stroke="#bfbfbf" points="1029.5,-311.5 1029.5,-332.5 1064.5,-332.5 1064.5,-311.5 1029.5,-311.5"/>
<text text-anchor="middle" x="1047" y="-319.5" font-family="Helvetica,sans-Serif" font-size="10.00">map</text>
</g>
<!-- Node35&#45;&gt;Node36 -->
<g id="edge104" class="edge"><title>Node35&#45;&gt;Node36</title>
<path fill="none" stroke="midnightblue" d="M951.76,-376.419C970.661,-367.387 998.064,-353.715 1021,-340 1021.94,-339.436 1022.9,-338.851 1023.85,-338.251"/>
<polygon fill="midnightblue" stroke="midnightblue" points="1025.96,-341.057 1032.38,-332.629 1022.1,-335.214 1025.96,-341.057"/>
</g>
<!-- Node37&#45;&gt;Node4 -->
<g id="edge116" class="edge"><title>Node37&#45;&gt;Node4</title>
<path fill="none" stroke="midnightblue" d="M547.488,-239.368C609.034,-218.593 739.537,-174.572 742,-174 857.231,-147.234 891.154,-156.11 1011.3,-138.198"/>
<polygon fill="midnightblue" stroke="midnightblue" points="1011.9,-141.648 1021.26,-136.683 1010.84,-134.728 1011.9,-141.648"/>
</g>
<!-- Node37&#45;&gt;Node6 -->
<g id="edge120" class="edge"><title>Node37&#45;&gt;Node6</title>
<path fill="none" stroke="midnightblue" d="M443.62,-246.576C321.87,-240.069 86.8716,-224.005 62,-196 35.7626,-166.457 52.8151,-116.54 65.6178,-88.9051"/>
<polygon fill="midnightblue" stroke="midnightblue" points="68.8155,-90.333 70.0543,-79.8108 62.5242,-87.2639 68.8155,-90.333"/>
</g>
<!-- Node37&#45;&gt;Node10 -->
<g id="edge118" class="edge"><title>Node37&#45;&gt;Node10</title>
<path fill="none" stroke="midnightblue" d="M534.164,-239.267C551.944,-228.76 579.23,-212.637 599.444,-200.692"/>
<polygon fill="midnightblue" stroke="midnightblue" points="601.345,-203.634 608.174,-195.534 597.784,-197.608 601.345,-203.634"/>
</g>
<!-- Node38&#45;&gt;Node4 -->
<g id="edge134" class="edge"><title>Node38&#45;&gt;Node4</title>
<path fill="none" stroke="midnightblue" d="M1208.07,-379.273C1245.95,-371.06 1298.74,-356.934 1311,-340 1317.77,-330.654 1316.88,-261.501 1308,-232 1299.32,-203.169 1297.32,-191.749 1273,-174 1251.77,-158.509 1188.36,-145.152 1138.96,-136.679"/>
<polygon fill="midnightblue" stroke="midnightblue" points="1139.41,-133.205 1128.97,-134.998 1138.25,-140.108 1139.41,-133.205"/>
</g>
<!-- Node38&#45;&gt;Node25 -->
<g id="edge136" class="edge"><title>Node38&#45;&gt;Node25</title>
<path fill="none" stroke="midnightblue" d="M1208.32,-380.731C1245.02,-373.996 1300.02,-361.284 1344,-340 1421.31,-302.589 1498.87,-234.897 1533.4,-202.803"/>
<polygon fill="midnightblue" stroke="midnightblue" points="1535.96,-205.201 1540.85,-195.804 1531.17,-200.098 1535.96,-205.201"/>
</g>
<!-- Node38&#45;&gt;Node36 -->
<g id="edge132" class="edge"><title>Node38&#45;&gt;Node36</title>
<path fill="none" stroke="midnightblue" d="M1148.29,-376.412C1128.02,-365.521 1096.3,-348.485 1073.77,-336.379"/>
<polygon fill="midnightblue" stroke="midnightblue" points="1075.2,-333.174 1064.73,-331.525 1071.88,-339.341 1075.2,-333.174"/>
</g>
<!-- Node39 -->
<g id="node103" class="node"><title>Node39</title>
<polygon fill="white" stroke="#bfbfbf" points="1120,-311.5 1120,-332.5 1176,-332.5 1176,-311.5 1120,-311.5"/>
<text text-anchor="middle" x="1148" y="-319.5" font-family="Helvetica,sans-Serif" font-size="10.00">Python.h</text>
</g>
<!-- Node38&#45;&gt;Node39 -->
<g id="edge128" class="edge"><title>Node38&#45;&gt;Node39</title>
<path fill="none" stroke="midnightblue" d="M1164.7,-376.267C1161.87,-367.085 1157.73,-353.615 1154.27,-342.392"/>
<polygon fill="midnightblue" stroke="midnightblue" points="1157.53,-341.062 1151.24,-332.534 1150.84,-343.121 1157.53,-341.062"/>
</g>
<!-- Node40 -->
<g id="node105" class="node"><title>Node40</title>
<polygon fill="white" stroke="#bfbfbf" points="1194,-305 1194,-339 1302,-339 1302,-305 1194,-305"/>
<text text-anchor="start" x="1202" y="-326" font-family="Helvetica,sans-Serif" font-size="10.00">numpy/core/include</text>
<text text-anchor="middle" x="1248" y="-313" font-family="Helvetica,sans-Serif" font-size="10.00">/numpy/arrayobject.h</text>
</g>
<!-- Node38&#45;&gt;Node40 -->
<g id="edge130" class="edge"><title>Node38&#45;&gt;Node40</title>
<path fill="none" stroke="midnightblue" d="M1181.21,-376.267C1191.5,-367.906 1206.17,-355.988 1219.14,-345.449"/>
<polygon fill="midnightblue" stroke="midnightblue" points="1221.39,-348.132 1226.94,-339.11 1216.97,-342.699 1221.39,-348.132"/>
</g>
</g>
</svg>
