<?xml version="1.0" encoding="UTF-8" standalone="no"?>
<!DOCTYPE svg PUBLIC "-//W3C//DTD SVG 1.1//EN"
 "http://www.w3.org/Graphics/SVG/1.1/DTD/svg11.dtd">
<!-- Generated by graphviz version 2.26.3 (20100126.1600)
 -->
<!-- Title: RfParameters.cpp Pages: 1 -->
<!--zoomable 522 -->
<svg id="main" version="1.1" xmlns="http://www.w3.org/2000/svg" xmlns:xlink="http://www.w3.org/1999/xlink" xml:space="preserve" onload="init(evt)">
        <defs>
                <circle id="rim" cx="0" cy="0" r="7"/>
                <circle id="rim2" cx="0" cy="0" r="3.5"/>
                <g id="zoomPlus">
                        <use xlink:href="#rim" fill="#404040">
                                <set attributeName="fill" to="#808080" begin="zoomplus.mouseover" end="zoomplus.mouseout"/>
                        </use>
                        <path d="M-4,0h8M0,-4v8" fill="none" stroke="white" stroke-width="1.5" pointer-events="none"/>
                </g>
                <g id="zoomMin">
                        <use xlink:href="#rim" fill="#404040">
                                <set attributeName="fill" to="#808080" begin="zoomminus.mouseover" end="zoomminus.mouseout"/>
                        </use>
                        <path d="M-4,0h8" fill="none" stroke="white" stroke-width="1.5" pointer-events="none"/>
                </g>
                <g id="dirArrow">
                        <path fill="none" stroke="white" stroke-width="1.5" d="M0,-3.0v7 M-2.5,-0.5L0,-3.0L2.5,-0.5"/>
                </g>
               <g id="resetDef">
                       <use xlink:href="#rim2" fill="#404040">
                               <set attributeName="fill" to="#808080" begin="reset.mouseover" end="reset.mouseout"/>
                       </use>
               </g>
        </defs>

<script type="text/javascript">
var viewWidth = 1453;
var viewHeight = 522;
var sectionId = 'dynsection-0';
</script>
<script xlink:href="../../svgpan.js"/>
<svg id="graph" class="graph">
<g id="viewport">
<title>RfParameters.cpp</title>
<polygon fill="white" stroke="white" points="-4,5 -4,-518 1450,-518 1450,5 -4,5"/>
<!-- Node1 -->
<g id="node1" class="node"><title>Node1</title>
<polygon fill="#bfbfbf" stroke="black" points="733,-492.5 733,-513.5 829,-513.5 829,-492.5 733,-492.5"/>
<text text-anchor="middle" x="781" y="-500.5" font-family="Helvetica,sans-Serif" font-size="10.00">RfParameters.cpp</text>
</g>
<!-- Node2 -->
<g id="node3" class="node"><title>Node2</title>
<a xlink:href="../../d6/db7/RfParameters_8h.html" target="_top" xlink:title="blond/input_parameters\l/RfParameters.h">
<polygon fill="white" stroke="black" points="722,-421 722,-455 840,-455 840,-421 722,-421"/>
<text text-anchor="start" x="730" y="-442" font-family="Helvetica,sans-Serif" font-size="10.00">blond/input_parameters</text>
<text text-anchor="middle" x="781" y="-429" font-family="Helvetica,sans-Serif" font-size="10.00">/RfParameters.h</text>
</a>
</g>
<!-- Node1&#45;&gt;Node2 -->
<g id="edge2" class="edge"><title>Node1&#45;&gt;Node2</title>
<path fill="none" stroke="midnightblue" d="M781,-492.267C781,-484.931 781,-474.857 781,-465.38"/>
<polygon fill="midnightblue" stroke="midnightblue" points="784.5,-465.11 781,-455.11 777.5,-465.11 784.5,-465.11"/>
</g>
<!-- Node3 -->
<g id="node5" class="node"><title>Node3</title>
<a xlink:href="../../d7/d74/Beams_8h.html" target="_top" xlink:title="blond/beams/Beams.h">
<polygon fill="white" stroke="black" points="630,-362.5 630,-383.5 744,-383.5 744,-362.5 630,-362.5"/>
<text text-anchor="middle" x="687" y="-370.5" font-family="Helvetica,sans-Serif" font-size="10.00">blond/beams/Beams.h</text>
</a>
</g>
<!-- Node2&#45;&gt;Node3 -->
<g id="edge4" class="edge"><title>Node2&#45;&gt;Node3</title>
<path fill="none" stroke="midnightblue" d="M750.279,-420.922C735.519,-411.387 718.397,-399.546 705.597,-390.02"/>
<polygon fill="midnightblue" stroke="midnightblue" points="707.581,-387.132 697.507,-383.852 703.337,-392.699 707.581,-387.132"/>
</g>
<!-- Node4 -->
<g id="node7" class="node"><title>Node4</title>
<a xlink:href="../../d5/d87/globals_8h.html" target="_top" xlink:title="blond/globals.h">
<polygon fill="white" stroke="black" points="718,-304.5 718,-325.5 800,-325.5 800,-304.5 718,-304.5"/>
<text text-anchor="middle" x="759" y="-312.5" font-family="Helvetica,sans-Serif" font-size="10.00">blond/globals.h</text>
</a>
</g>
<!-- Node2&#45;&gt;Node4 -->
<g id="edge108" class="edge"><title>Node2&#45;&gt;Node4</title>
<path fill="none" stroke="midnightblue" d="M773.096,-420.897C766.714,-398.673 759.65,-359.886 757.521,-335.929"/>
<polygon fill="midnightblue" stroke="midnightblue" points="761.005,-335.556 756.902,-325.787 754.017,-335.982 761.005,-335.556"/>
</g>
<!-- Node5 -->
<g id="node9" class="node"><title>Node5</title>
<a xlink:href="../../d5/d34/GeneralParameters_8h.html" target="_top" xlink:title="blond/input_parameters\l/GeneralParameters.h">
<polygon fill="white" stroke="black" points="567,-233 567,-267 685,-267 685,-233 567,-233"/>
<text text-anchor="start" x="575" y="-254" font-family="Helvetica,sans-Serif" font-size="10.00">blond/input_parameters</text>
<text text-anchor="middle" x="626" y="-241" font-family="Helvetica,sans-Serif" font-size="10.00">/GeneralParameters.h</text>
</a>
</g>
<!-- Node2&#45;&gt;Node5 -->
<g id="edge70" class="edge"><title>Node2&#45;&gt;Node5</title>
<path fill="none" stroke="midnightblue" d="M721.719,-425.575C681.378,-415.778 633.182,-400.968 621,-384 598.532,-352.704 607.202,-305.874 616.141,-276.671"/>
<polygon fill="midnightblue" stroke="midnightblue" points="619.479,-277.724 619.264,-267.131 612.826,-275.546 619.479,-277.724"/>
</g>
<!-- Node24 -->
<g id="node60" class="node"><title>Node24</title>
<a xlink:href="../../d2/de2/math__functions_8h.html" target="_top" xlink:title="blond/math_functions.h">
<polygon fill="white" stroke="black" points="1022,-239.5 1022,-260.5 1140,-260.5 1140,-239.5 1022,-239.5"/>
<text text-anchor="middle" x="1081" y="-247.5" font-family="Helvetica,sans-Serif" font-size="10.00">blond/math_functions.h</text>
</a>
</g>
<!-- Node2&#45;&gt;Node24 -->
<g id="edge72" class="edge"><title>Node2&#45;&gt;Node24</title>
<path fill="none" stroke="midnightblue" d="M808.152,-420.985C865.672,-384.939 999.122,-301.31 1055.32,-266.093"/>
<polygon fill="midnightblue" stroke="midnightblue" points="1057.35,-268.954 1063.96,-260.678 1053.63,-263.022 1057.35,-268.954"/>
</g>
<!-- Node35 -->
<g id="node87" class="node"><title>Node35</title>
<a xlink:href="../../d2/d6f/constants_8h.html" target="_top" xlink:title="blond/constants.h">
<polygon fill="white" stroke="black" points="856,-304.5 856,-325.5 950,-325.5 950,-304.5 856,-304.5"/>
<text text-anchor="middle" x="903" y="-312.5" font-family="Helvetica,sans-Serif" font-size="10.00">blond/constants.h</text>
</a>
</g>
<!-- Node2&#45;&gt;Node35 -->
<g id="edge104" class="edge"><title>Node2&#45;&gt;Node35</title>
<path fill="none" stroke="midnightblue" d="M801.62,-420.845C813.714,-410.517 829.103,-396.906 842,-384 858.286,-367.703 875.564,-347.892 887.558,-333.685"/>
<polygon fill="midnightblue" stroke="midnightblue" points="890.553,-335.561 894.287,-325.646 885.185,-331.068 890.553,-335.561"/>
</g>
<!-- Node3&#45;&gt;Node2 -->
<g id="edge68" class="edge"><title>Node3&#45;&gt;Node2</title>
<path fill="none" stroke="midnightblue" d="M707.567,-383.658C721.272,-392.105 739.234,-404.216 754.034,-414.862"/>
<polygon fill="midnightblue" stroke="midnightblue" points="752.187,-417.847 762.326,-420.922 756.317,-412.196 752.187,-417.847"/>
</g>
<!-- Node3&#45;&gt;Node4 -->
<g id="edge6" class="edge"><title>Node3&#45;&gt;Node4</title>
<path fill="none" stroke="midnightblue" d="M694.842,-362.362C703.979,-353.777 718.893,-341.546 732.139,-331.664"/>
<polygon fill="midnightblue" stroke="midnightblue" points="734.493,-334.28 740.526,-325.571 730.378,-328.617 734.493,-334.28"/>
</g>
<!-- Node3&#45;&gt;Node5 -->
<g id="edge66" class="edge"><title>Node3&#45;&gt;Node5</title>
<path fill="none" stroke="midnightblue" d="M681.587,-362.085C672.134,-343.024 652.366,-303.165 639.136,-276.487"/>
<polygon fill="midnightblue" stroke="midnightblue" points="642.167,-274.721 634.588,-267.317 635.896,-277.831 642.167,-274.721"/>
</g>
<!-- Node6 -->
<g id="node11" class="node"><title>Node6</title>
<a xlink:href="../../d2/d2c/configuration_8h.html" target="_top" xlink:title="blond/configuration.h">
<polygon fill="white" stroke="black" points="929.5,-116.5 929.5,-137.5 1036.5,-137.5 1036.5,-116.5 929.5,-116.5"/>
<text text-anchor="middle" x="983" y="-124.5" font-family="Helvetica,sans-Serif" font-size="10.00">blond/configuration.h</text>
</a>
</g>
<!-- Node3&#45;&gt;Node6 -->
<g id="edge62" class="edge"><title>Node3&#45;&gt;Node6</title>
<path fill="none" stroke="midnightblue" d="M690.428,-362.243C694.754,-348.668 702.425,-324.602 709,-304 719.213,-271.997 713.93,-260.319 732,-232 752.472,-199.916 761.501,-192.064 795,-174 816.45,-162.434 873.828,-148.907 919.602,-139.342"/>
<polygon fill="midnightblue" stroke="midnightblue" points="920.387,-142.754 929.472,-137.303 918.971,-135.899 920.387,-142.754"/>
</g>
<!-- Node9 -->
<g id="node17" class="node"><title>Node9</title>
<a xlink:href="../../de/df0/utilities_8h.html" target="_top" xlink:title="blond/utilities.h">
<polygon fill="white" stroke="black" points="500,-174.5 500,-195.5 582,-195.5 582,-174.5 500,-174.5"/>
<text text-anchor="middle" x="541" y="-182.5" font-family="Helvetica,sans-Serif" font-size="10.00">blond/utilities.h</text>
</a>
</g>
<!-- Node3&#45;&gt;Node9 -->
<g id="edge64" class="edge"><title>Node3&#45;&gt;Node9</title>
<path fill="none" stroke="midnightblue" d="M666.765,-362.486C637.77,-346.304 584.938,-312.453 558,-268 546.439,-248.923 542.61,-223.32 541.409,-205.618"/>
<polygon fill="midnightblue" stroke="midnightblue" points="544.9,-205.341 540.949,-195.511 537.907,-205.659 544.9,-205.341"/>
</g>
<!-- Node4&#45;&gt;Node2 -->
<g id="edge48" class="edge"><title>Node4&#45;&gt;Node2</title>
<path fill="none" stroke="midnightblue" d="M764.957,-325.787C771.25,-344.594 778.851,-383.926 781.832,-410.654"/>
<polygon fill="midnightblue" stroke="midnightblue" points="778.374,-411.265 782.786,-420.897 785.344,-410.616 778.374,-411.265"/>
</g>
<!-- Node4&#45;&gt;Node3 -->
<g id="edge50" class="edge"><title>Node4&#45;&gt;Node3</title>
<path fill="none" stroke="midnightblue" d="M751.23,-325.571C742.123,-334.136 727.22,-346.364 713.965,-356.259"/>
<polygon fill="midnightblue" stroke="midnightblue" points="711.6,-353.651 705.57,-362.362 715.716,-359.312 711.6,-353.651"/>
</g>
<!-- Node4&#45;&gt;Node5 -->
<g id="edge8" class="edge"><title>Node4&#45;&gt;Node5</title>
<path fill="none" stroke="midnightblue" d="M737.335,-304.412C719.156,-295.527 692.61,-282.554 669.998,-271.503"/>
<polygon fill="midnightblue" stroke="midnightblue" points="671.429,-268.307 660.908,-267.06 668.356,-274.596 671.429,-268.307"/>
</g>
<!-- Node22 -->
<g id="node48" class="node"><title>Node22</title>
<a xlink:href="../../dc/df2/Slices_8h.html" target="_top" xlink:title="blond/beams/Slices.h">
<polygon fill="white" stroke="black" points="741,-239.5 741,-260.5 851,-260.5 851,-239.5 741,-239.5"/>
<text text-anchor="middle" x="796" y="-247.5" font-family="Helvetica,sans-Serif" font-size="10.00">blond/beams/Slices.h</text>
</a>
</g>
<!-- Node4&#45;&gt;Node22 -->
<g id="edge52" class="edge"><title>Node4&#45;&gt;Node22</title>
<path fill="none" stroke="midnightblue" d="M765.11,-304.267C770.498,-294.801 778.481,-280.777 784.981,-269.357"/>
<polygon fill="midnightblue" stroke="midnightblue" points="788.099,-270.956 790.004,-260.534 782.015,-267.493 788.099,-270.956"/>
</g>
<!-- Node5&#45;&gt;Node6 -->
<g id="edge10" class="edge"><title>Node5&#45;&gt;Node6</title>
<path fill="none" stroke="midnightblue" d="M637.447,-232.683C650.218,-214.877 672.592,-187.854 699,-174 784.662,-129.06 820.147,-153.057 919.136,-138.205"/>
<polygon fill="midnightblue" stroke="midnightblue" points="919.919,-141.625 929.24,-136.588 918.813,-134.712 919.919,-141.625"/>
</g>
<!-- Node8 -->
<g id="node15" class="node"><title>Node8</title>
<polygon fill="white" stroke="#bfbfbf" points="0,-58.5 0,-79.5 44,-79.5 44,-58.5 0,-58.5"/>
<text text-anchor="middle" x="22" y="-66.5" font-family="Helvetica,sans-Serif" font-size="10.00">vector</text>
</g>
<!-- Node5&#45;&gt;Node8 -->
<g id="edge46" class="edge"><title>Node5&#45;&gt;Node8</title>
<path fill="none" stroke="midnightblue" d="M566.774,-248.062C429.1,-242.202 93.9041,-219.672 24,-138 12.8381,-124.959 13.5405,-104.911 16.325,-89.7788"/>
<polygon fill="midnightblue" stroke="midnightblue" points="19.7897,-90.3255 18.5807,-79.7998 12.9619,-88.782 19.7897,-90.3255"/>
</g>
<!-- Node5&#45;&gt;Node9 -->
<g id="edge16" class="edge"><title>Node5&#45;&gt;Node9</title>
<path fill="none" stroke="midnightblue" d="M603.667,-232.922C591.118,-223.326 575.515,-211.394 563.018,-201.837"/>
<polygon fill="midnightblue" stroke="midnightblue" points="565.008,-198.953 554.938,-195.658 560.755,-204.513 565.008,-198.953"/>
</g>
<!-- Node7 -->
<g id="node13" class="node"><title>Node7</title>
<polygon fill="white" stroke="#bfbfbf" points="956.5,-58.5 956.5,-79.5 1009.5,-79.5 1009.5,-58.5 956.5,-58.5"/>
<text text-anchor="middle" x="983" y="-66.5" font-family="Helvetica,sans-Serif" font-size="10.00">complex</text>
</g>
<!-- Node6&#45;&gt;Node7 -->
<g id="edge12" class="edge"><title>Node6&#45;&gt;Node7</title>
<path fill="none" stroke="midnightblue" d="M983,-116.362C983,-108.922 983,-98.7427 983,-89.7276"/>
<polygon fill="midnightblue" stroke="midnightblue" points="986.5,-89.5706 983,-79.5707 979.5,-89.5707 986.5,-89.5706"/>
</g>
<!-- Node6&#45;&gt;Node8 -->
<g id="edge14" class="edge"><title>Node6&#45;&gt;Node8</title>
<path fill="none" stroke="midnightblue" d="M929.291,-117.053C926.492,-116.666 923.715,-116.311 921,-116 583.71,-77.4114 171.555,-70.4699 54.4212,-69.2523"/>
<polygon fill="midnightblue" stroke="midnightblue" points="54.3584,-65.7516 44.3249,-69.1542 54.2904,-72.7513 54.3584,-65.7516"/>
</g>
<!-- Node9&#45;&gt;Node6 -->
<g id="edge40" class="edge"><title>Node9&#45;&gt;Node6</title>
<path fill="none" stroke="midnightblue" d="M582.252,-180.176C662.985,-170.691 840.223,-149.642 919.23,-138.195"/>
<polygon fill="midnightblue" stroke="midnightblue" points="919.879,-141.637 929.26,-136.713 918.856,-134.712 919.879,-141.637"/>
</g>
<!-- Node9&#45;&gt;Node8 -->
<g id="edge36" class="edge"><title>Node9&#45;&gt;Node8</title>
<path fill="none" stroke="midnightblue" d="M499.751,-183.776C386.332,-180.045 75.8626,-167.24 41,-138 27.1344,-126.371 22.896,-105.639 21.8184,-89.9273"/>
<polygon fill="midnightblue" stroke="midnightblue" points="25.3059,-89.4632 21.5,-79.5756 18.3092,-89.6785 25.3059,-89.4632"/>
</g>
<!-- Node10 -->
<g id="node19" class="node"><title>Node10</title>
<polygon fill="white" stroke="#bfbfbf" points="806,-116.5 806,-137.5 852,-137.5 852,-116.5 806,-116.5"/>
<text text-anchor="middle" x="829" y="-124.5" font-family="Helvetica,sans-Serif" font-size="10.00">chrono</text>
</g>
<!-- Node9&#45;&gt;Node10 -->
<g id="edge18" class="edge"><title>Node9&#45;&gt;Node10</title>
<path fill="none" stroke="midnightblue" d="M582.205,-179.376C631.152,-172.269 715.351,-158.704 795.902,-138.017"/>
<polygon fill="midnightblue" stroke="midnightblue" points="796.913,-141.37 805.705,-135.458 795.145,-134.597 796.913,-141.37"/>
</g>
<!-- Node11 -->
<g id="node21" class="node"><title>Node11</title>
<polygon fill="white" stroke="#bfbfbf" points="869.5,-116.5 869.5,-137.5 912.5,-137.5 912.5,-116.5 869.5,-116.5"/>
<text text-anchor="middle" x="891" y="-124.5" font-family="Helvetica,sans-Serif" font-size="10.00">cstdio</text>
</g>
<!-- Node9&#45;&gt;Node11 -->
<g id="edge20" class="edge"><title>Node9&#45;&gt;Node11</title>
<path fill="none" stroke="midnightblue" d="M582.071,-180.037C652.319,-171.379 793.633,-153.187 859.335,-137.99"/>
<polygon fill="midnightblue" stroke="midnightblue" points="860.325,-141.352 869.209,-135.579 858.664,-134.552 860.325,-141.352"/>
</g>
<!-- Node12 -->
<g id="node23" class="node"><title>Node12</title>
<polygon fill="white" stroke="#bfbfbf" points="49.5,-116.5 49.5,-137.5 94.5,-137.5 94.5,-116.5 49.5,-116.5"/>
<text text-anchor="middle" x="72" y="-124.5" font-family="Helvetica,sans-Serif" font-size="10.00">cstdlib</text>
</g>
<!-- Node9&#45;&gt;Node12 -->
<g id="edge22" class="edge"><title>Node9&#45;&gt;Node12</title>
<path fill="none" stroke="midnightblue" d="M499.713,-183.782C423.098,-180.833 253.835,-171.082 104.324,-137.893"/>
<polygon fill="midnightblue" stroke="midnightblue" points="105.032,-134.465 94.506,-135.673 103.488,-141.293 105.032,-134.465"/>
</g>
<!-- Node13 -->
<g id="node25" class="node"><title>Node13</title>
<polygon fill="white" stroke="#bfbfbf" points="112,-116.5 112,-137.5 162,-137.5 162,-116.5 112,-116.5"/>
<text text-anchor="middle" x="137" y="-124.5" font-family="Helvetica,sans-Serif" font-size="10.00">fstream</text>
</g>
<!-- Node9&#45;&gt;Node13 -->
<g id="edge24" class="edge"><title>Node9&#45;&gt;Node13</title>
<path fill="none" stroke="midnightblue" d="M499.78,-182.286C432.799,-177.33 296.156,-164.951 172.151,-137.928"/>
<polygon fill="midnightblue" stroke="midnightblue" points="172.627,-134.448 162.106,-135.7 171.111,-141.282 172.627,-134.448"/>
</g>
<!-- Node14 -->
<g id="node27" class="node"><title>Node14</title>
<polygon fill="white" stroke="#bfbfbf" points="180,-116.5 180,-137.5 234,-137.5 234,-116.5 180,-116.5"/>
<text text-anchor="middle" x="207" y="-124.5" font-family="Helvetica,sans-Serif" font-size="10.00">iostream</text>
</g>
<!-- Node9&#45;&gt;Node14 -->
<g id="edge26" class="edge"><title>Node9&#45;&gt;Node14</title>
<path fill="none" stroke="midnightblue" d="M499.678,-180.341C443.742,-173.629 340.724,-159.832 243.962,-137.979"/>
<polygon fill="midnightblue" stroke="midnightblue" points="244.546,-134.523 234.017,-135.699 242.982,-141.346 244.546,-134.523"/>
</g>
<!-- Node15 -->
<g id="node29" class="node"><title>Node15</title>
<polygon fill="white" stroke="#bfbfbf" points="251.5,-116.5 251.5,-137.5 298.5,-137.5 298.5,-116.5 251.5,-116.5"/>
<text text-anchor="middle" x="275" y="-124.5" font-family="Helvetica,sans-Serif" font-size="10.00">iterator</text>
</g>
<!-- Node9&#45;&gt;Node15 -->
<g id="edge28" class="edge"><title>Node9&#45;&gt;Node15</title>
<path fill="none" stroke="midnightblue" d="M499.612,-178.4C454.567,-170.839 380.316,-157.277 308.335,-138.136"/>
<polygon fill="midnightblue" stroke="midnightblue" points="309.223,-134.75 298.657,-135.524 307.4,-141.509 309.223,-134.75"/>
</g>
<!-- Node16 -->
<g id="node31" class="node"><title>Node16</title>
<polygon fill="white" stroke="#bfbfbf" points="316,-116.5 316,-137.5 368,-137.5 368,-116.5 316,-116.5"/>
<text text-anchor="middle" x="342" y="-124.5" font-family="Helvetica,sans-Serif" font-size="10.00">memory</text>
</g>
<!-- Node9&#45;&gt;Node16 -->
<g id="edge30" class="edge"><title>Node9&#45;&gt;Node16</title>
<path fill="none" stroke="midnightblue" d="M503.14,-174.444C471.929,-165.677 426.269,-152.7 378.03,-138.266"/>
<polygon fill="midnightblue" stroke="midnightblue" points="378.935,-134.884 368.351,-135.361 376.923,-141.588 378.935,-134.884"/>
</g>
<!-- Node17 -->
<g id="node33" class="node"><title>Node17</title>
<polygon fill="white" stroke="#bfbfbf" points="386,-116.5 386,-137.5 438,-137.5 438,-116.5 386,-116.5"/>
<text text-anchor="middle" x="412" y="-124.5" font-family="Helvetica,sans-Serif" font-size="10.00">sstream</text>
</g>
<!-- Node9&#45;&gt;Node17 -->
<g id="edge32" class="edge"><title>Node9&#45;&gt;Node17</title>
<path fill="none" stroke="midnightblue" d="M517.639,-174.497C497.309,-165.356 467.622,-152.008 444.891,-141.788"/>
<polygon fill="midnightblue" stroke="midnightblue" points="446.179,-138.53 435.623,-137.621 443.308,-144.914 446.179,-138.53"/>
</g>
<!-- Node18 -->
<g id="node35" class="node"><title>Node18</title>
<polygon fill="white" stroke="#bfbfbf" points="455.5,-116.5 455.5,-137.5 496.5,-137.5 496.5,-116.5 455.5,-116.5"/>
<text text-anchor="middle" x="476" y="-124.5" font-family="Helvetica,sans-Serif" font-size="10.00">string</text>
</g>
<!-- Node9&#45;&gt;Node18 -->
<g id="edge34" class="edge"><title>Node9&#45;&gt;Node18</title>
<path fill="none" stroke="midnightblue" d="M529.078,-174.362C519.641,-165.941 506.27,-154.011 495.31,-144.231"/>
<polygon fill="midnightblue" stroke="midnightblue" points="497.638,-141.617 487.846,-137.571 492.978,-146.84 497.638,-141.617"/>
</g>
<!-- Node19 -->
<g id="node38" class="node"><title>Node19</title>
<polygon fill="white" stroke="#bfbfbf" points="514,-116.5 514,-137.5 574,-137.5 574,-116.5 514,-116.5"/>
<text text-anchor="middle" x="544" y="-124.5" font-family="Helvetica,sans-Serif" font-size="10.00">sys/stat.h</text>
</g>
<!-- Node9&#45;&gt;Node19 -->
<g id="edge38" class="edge"><title>Node9&#45;&gt;Node19</title>
<path fill="none" stroke="midnightblue" d="M541.55,-174.362C541.935,-166.922 542.462,-156.743 542.928,-147.728"/>
<polygon fill="midnightblue" stroke="midnightblue" points="546.432,-147.738 543.453,-137.571 539.441,-147.376 546.432,-147.738"/>
</g>
<!-- Node20 -->
<g id="node41" class="node"><title>Node20</title>
<polygon fill="white" stroke="#bfbfbf" points="591.5,-116.5 591.5,-137.5 666.5,-137.5 666.5,-116.5 591.5,-116.5"/>
<text text-anchor="middle" x="629" y="-124.5" font-family="Helvetica,sans-Serif" font-size="10.00">mm_malloc.h</text>
</g>
<!-- Node9&#45;&gt;Node20 -->
<g id="edge42" class="edge"><title>Node9&#45;&gt;Node20</title>
<path fill="none" stroke="midnightblue" d="M557.141,-174.362C570.414,-165.614 589.432,-153.079 604.57,-143.101"/>
<polygon fill="midnightblue" stroke="midnightblue" points="606.538,-145.996 612.962,-137.571 602.686,-140.151 606.538,-145.996"/>
</g>
<!-- Node21 -->
<g id="node43" class="node"><title>Node21</title>
<a xlink:href="../../da/d69/optionparser_8h.html" target="_top" xlink:title="This is the only file required to use The Lean Mean C++ Option Parser. Just #include it and you&#39;re se...">
<polygon fill="white" stroke="black" points="684,-116.5 684,-137.5 788,-137.5 788,-116.5 684,-116.5"/>
<text text-anchor="middle" x="736" y="-124.5" font-family="Helvetica,sans-Serif" font-size="10.00">blond/optionparser.h</text>
</a>
</g>
<!-- Node9&#45;&gt;Node21 -->
<g id="edge44" class="edge"><title>Node9&#45;&gt;Node21</title>
<path fill="none" stroke="midnightblue" d="M576.313,-174.497C608.379,-164.959 655.845,-150.841 690.696,-140.475"/>
<polygon fill="midnightblue" stroke="midnightblue" points="692.034,-143.729 700.621,-137.523 690.038,-137.019 692.034,-143.729"/>
</g>
<!-- Node22&#45;&gt;Node2 -->
<g id="edge58" class="edge"><title>Node22&#45;&gt;Node2</title>
<path fill="none" stroke="midnightblue" d="M799.346,-260.622C802.558,-271.415 807.182,-288.679 809,-304 813.47,-341.669 801.482,-384.455 791.821,-411.335"/>
<polygon fill="midnightblue" stroke="midnightblue" points="788.5,-410.222 788.271,-420.814 795.056,-412.677 788.5,-410.222"/>
</g>
<!-- Node22&#45;&gt;Node6 -->
<g id="edge54" class="edge"><title>Node22&#45;&gt;Node6</title>
<path fill="none" stroke="midnightblue" d="M795.036,-239.368C794.18,-223.084 795.09,-191.97 812,-174 819.986,-165.514 878.329,-150.628 924.677,-139.879"/>
<polygon fill="midnightblue" stroke="midnightblue" points="925.699,-143.235 934.661,-137.584 924.131,-136.413 925.699,-143.235"/>
</g>
<!-- Node22&#45;&gt;Node9 -->
<g id="edge56" class="edge"><title>Node22&#45;&gt;Node9</title>
<path fill="none" stroke="midnightblue" d="M754.746,-239.484C710.398,-228.18 639.842,-210.195 592.033,-198.008"/>
<polygon fill="midnightblue" stroke="midnightblue" points="592.749,-194.579 582.194,-195.501 591.02,-201.362 592.749,-194.579"/>
</g>
<!-- Node23 -->
<g id="node53" class="node"><title>Node23</title>
<polygon fill="white" stroke="#bfbfbf" points="820.5,-174.5 820.5,-195.5 855.5,-195.5 855.5,-174.5 820.5,-174.5"/>
<text text-anchor="middle" x="838" y="-182.5" font-family="Helvetica,sans-Serif" font-size="10.00">map</text>
</g>
<!-- Node22&#45;&gt;Node23 -->
<g id="edge60" class="edge"><title>Node22&#45;&gt;Node23</title>
<path fill="none" stroke="midnightblue" d="M802.935,-239.267C809.113,-229.707 818.295,-215.496 825.713,-204.015"/>
<polygon fill="midnightblue" stroke="midnightblue" points="828.706,-205.832 831.194,-195.534 822.827,-202.033 828.706,-205.832"/>
</g>
<!-- Node24&#45;&gt;Node6 -->
<g id="edge76" class="edge"><title>Node24&#45;&gt;Node6</title>
<path fill="none" stroke="midnightblue" d="M1059.73,-239.49C1042.94,-230.187 1020.07,-215.128 1006,-196 995.506,-181.735 989.607,-162.39 986.418,-147.813"/>
<polygon fill="midnightblue" stroke="midnightblue" points="989.809,-146.914 984.476,-137.759 982.936,-148.241 989.809,-146.914"/>
</g>
<!-- Node24&#45;&gt;Node9 -->
<g id="edge94" class="edge"><title>Node24&#45;&gt;Node9</title>
<path fill="none" stroke="midnightblue" d="M1021.92,-242.889C915.407,-230.067 692.907,-203.285 592.324,-191.178"/>
<polygon fill="midnightblue" stroke="midnightblue" points="592.461,-187.669 582.114,-189.949 591.624,-194.619 592.461,-187.669"/>
</g>
<!-- Node25 -->
<g id="node62" class="node"><title>Node25</title>
<polygon fill="white" stroke="#bfbfbf" points="1223,-174.5 1223,-195.5 1279,-195.5 1279,-174.5 1223,-174.5"/>
<text text-anchor="middle" x="1251" y="-182.5" font-family="Helvetica,sans-Serif" font-size="10.00">algorithm</text>
</g>
<!-- Node24&#45;&gt;Node25 -->
<g id="edge74" class="edge"><title>Node24&#45;&gt;Node25</title>
<path fill="none" stroke="midnightblue" d="M1108.69,-239.412C1137.34,-228.458 1182.25,-211.288 1213.94,-199.17"/>
<polygon fill="midnightblue" stroke="midnightblue" points="1215.23,-202.424 1223.32,-195.584 1212.73,-195.886 1215.23,-202.424"/>
</g>
<!-- Node26 -->
<g id="node65" class="node"><title>Node26</title>
<a xlink:href="../../d8/dcd/exp_8h.html" target="_top" xlink:title="blond/exp.h">
<polygon fill="white" stroke="black" points="1378.5,-174.5 1378.5,-195.5 1445.5,-195.5 1445.5,-174.5 1378.5,-174.5"/>
<text text-anchor="middle" x="1412" y="-182.5" font-family="Helvetica,sans-Serif" font-size="10.00">blond/exp.h</text>
</a>
</g>
<!-- Node24&#45;&gt;Node26 -->
<g id="edge78" class="edge"><title>Node24&#45;&gt;Node26</title>
<path fill="none" stroke="midnightblue" d="M1140.2,-240.213C1196.56,-230.607 1283.96,-214.966 1368.14,-196.322"/>
<polygon fill="midnightblue" stroke="midnightblue" points="1369.13,-199.689 1378.12,-194.094 1367.6,-192.857 1369.13,-199.689"/>
</g>
<!-- Node28 -->
<g id="node69" class="node"><title>Node28</title>
<polygon fill="white" stroke="#bfbfbf" points="1220,-0.5 1220,-21.5 1264,-21.5 1264,-0.5 1220,-0.5"/>
<text text-anchor="middle" x="1242" y="-8.5" font-family="Helvetica,sans-Serif" font-size="10.00">cmath</text>
</g>
<!-- Node24&#45;&gt;Node28 -->
<g id="edge96" class="edge"><title>Node24&#45;&gt;Node28</title>
<path fill="none" stroke="midnightblue" d="M1111.32,-239.316C1132.11,-230.586 1158.92,-216.343 1176,-196 1217.53,-146.529 1233.73,-68.9921 1239.36,-32.0001"/>
<polygon fill="midnightblue" stroke="midnightblue" points="1242.85,-32.2876 1240.78,-21.8975 1235.92,-31.3124 1242.85,-32.2876"/>
</g>
<!-- Node30 -->
<g id="node73" class="node"><title>Node30</title>
<a xlink:href="../../d1/d3d/sin_8h.html" target="_top" xlink:title="blond/sin.h">
<polygon fill="white" stroke="black" points="1297,-174.5 1297,-195.5 1361,-195.5 1361,-174.5 1297,-174.5"/>
<text text-anchor="middle" x="1329" y="-182.5" font-family="Helvetica,sans-Serif" font-size="10.00">blond/sin.h</text>
</a>
</g>
<!-- Node24&#45;&gt;Node30 -->
<g id="edge86" class="edge"><title>Node24&#45;&gt;Node30</title>
<path fill="none" stroke="midnightblue" d="M1121.87,-239.428C1161.6,-229.13 1223.92,-212.926 1287.05,-196.241"/>
<polygon fill="midnightblue" stroke="midnightblue" points="1288,-199.609 1296.78,-193.668 1286.21,-192.841 1288,-199.609"/>
</g>
<!-- Node32 -->
<g id="node81" class="node"><title>Node32</title>
<polygon fill="white" stroke="#bfbfbf" points="910.5,-174.5 910.5,-195.5 959.5,-195.5 959.5,-174.5 910.5,-174.5"/>
<text text-anchor="middle" x="935" y="-182.5" font-family="Helvetica,sans-Serif" font-size="10.00">random</text>
</g>
<!-- Node24&#45;&gt;Node32 -->
<g id="edge98" class="edge"><title>Node24&#45;&gt;Node32</title>
<path fill="none" stroke="midnightblue" d="M1057.22,-239.412C1033.04,-228.647 995.372,-211.878 968.245,-199.801"/>
<polygon fill="midnightblue" stroke="midnightblue" points="969.331,-196.453 958.772,-195.584 966.484,-202.848 969.331,-196.453"/>
</g>
<!-- Node33 -->
<g id="node83" class="node"><title>Node33</title>
<polygon fill="white" stroke="#bfbfbf" points="1014.5,-174.5 1014.5,-195.5 1063.5,-195.5 1063.5,-174.5 1014.5,-174.5"/>
<text text-anchor="middle" x="1039" y="-182.5" font-family="Helvetica,sans-Serif" font-size="10.00">cassert</text>
</g>
<!-- Node24&#45;&gt;Node33 -->
<g id="edge100" class="edge"><title>Node24&#45;&gt;Node33</title>
<path fill="none" stroke="midnightblue" d="M1074.06,-239.267C1067.89,-229.707 1058.71,-215.496 1051.29,-204.015"/>
<polygon fill="midnightblue" stroke="midnightblue" points="1054.17,-202.033 1045.81,-195.534 1048.29,-205.832 1054.17,-202.033"/>
</g>
<!-- Node34 -->
<g id="node85" class="node"><title>Node34</title>
<a xlink:href="../../d1/db0/openmp_8h.html" target="_top" xlink:title="blond/openmp.h">
<polygon fill="white" stroke="black" points="1081,-174.5 1081,-195.5 1167,-195.5 1167,-174.5 1081,-174.5"/>
<text text-anchor="middle" x="1124" y="-182.5" font-family="Helvetica,sans-Serif" font-size="10.00">blond/openmp.h</text>
</a>
</g>
<!-- Node24&#45;&gt;Node34 -->
<g id="edge102" class="edge"><title>Node24&#45;&gt;Node34</title>
<path fill="none" stroke="midnightblue" d="M1088.1,-239.267C1094.42,-229.707 1103.83,-215.496 1111.42,-204.015"/>
<polygon fill="midnightblue" stroke="midnightblue" points="1114.43,-205.805 1117.03,-195.534 1108.6,-201.943 1114.43,-205.805"/>
</g>
<!-- Node27 -->
<g id="node67" class="node"><title>Node27</title>
<a xlink:href="../../df/de1/vdtcore__common_8h.html" target="_top" xlink:title="vdtcore_common.h">
<polygon fill="white" stroke="black" points="1270,-58.5 1270,-79.5 1370,-79.5 1370,-58.5 1270,-58.5"/>
<text text-anchor="middle" x="1320" y="-66.5" font-family="Helvetica,sans-Serif" font-size="10.00">vdtcore_common.h</text>
</a>
</g>
<!-- Node26&#45;&gt;Node27 -->
<g id="edge80" class="edge"><title>Node26&#45;&gt;Node27</title>
<path fill="none" stroke="midnightblue" d="M1413.39,-174.163C1414.68,-159.636 1414.88,-133.636 1403,-116 1393.35,-101.668 1377.78,-91.2105 1362.71,-83.8508"/>
<polygon fill="midnightblue" stroke="midnightblue" points="1364.01,-80.5963 1353.46,-79.6616 1361.12,-86.9735 1364.01,-80.5963"/>
</g>
<!-- Node29 -->
<g id="node71" class="node"><title>Node29</title>
<polygon fill="white" stroke="#bfbfbf" points="1354,-116.5 1354,-137.5 1394,-137.5 1394,-116.5 1354,-116.5"/>
<text text-anchor="middle" x="1374" y="-124.5" font-family="Helvetica,sans-Serif" font-size="10.00">limits</text>
</g>
<!-- Node26&#45;&gt;Node29 -->
<g id="edge84" class="edge"><title>Node26&#45;&gt;Node29</title>
<path fill="none" stroke="midnightblue" d="M1405.03,-174.362C1399.83,-166.431 1392.6,-155.389 1386.42,-145.961"/>
<polygon fill="midnightblue" stroke="midnightblue" points="1389.33,-144.017 1380.93,-137.571 1383.48,-147.853 1389.33,-144.017"/>
</g>
<!-- Node27&#45;&gt;Node28 -->
<g id="edge82" class="edge"><title>Node27&#45;&gt;Node28</title>
<path fill="none" stroke="midnightblue" d="M1305.69,-58.3619C1294.15,-49.7773 1277.7,-37.5459 1264.41,-27.6636"/>
<polygon fill="midnightblue" stroke="midnightblue" points="1266.33,-24.7291 1256.22,-21.5707 1262.15,-30.3463 1266.33,-24.7291"/>
</g>
<!-- Node31 -->
<g id="node75" class="node"><title>Node31</title>
<a xlink:href="../../dc/dfa/sincos_8h.html" target="_top" xlink:title="sincos.h">
<polygon fill="white" stroke="black" points="1283.5,-116.5 1283.5,-137.5 1336.5,-137.5 1336.5,-116.5 1283.5,-116.5"/>
<text text-anchor="middle" x="1310" y="-124.5" font-family="Helvetica,sans-Serif" font-size="10.00">sincos.h</text>
</a>
</g>
<!-- Node30&#45;&gt;Node31 -->
<g id="edge88" class="edge"><title>Node30&#45;&gt;Node31</title>
<path fill="none" stroke="midnightblue" d="M1325.52,-174.362C1323.02,-166.758 1319.6,-156.294 1316.6,-147.135"/>
<polygon fill="midnightblue" stroke="midnightblue" points="1319.9,-145.984 1313.46,-137.571 1313.25,-148.163 1319.9,-145.984"/>
</g>
<!-- Node31&#45;&gt;Node27 -->
<g id="edge90" class="edge"><title>Node31&#45;&gt;Node27</title>
<path fill="none" stroke="midnightblue" d="M1311.83,-116.362C1313.13,-108.84 1314.91,-98.5187 1316.48,-89.4308"/>
<polygon fill="midnightblue" stroke="midnightblue" points="1319.93,-90.02 1318.18,-79.5707 1313.03,-88.8306 1319.93,-90.02"/>
</g>
<!-- Node31&#45;&gt;Node28 -->
<g id="edge92" class="edge"><title>Node31&#45;&gt;Node28</title>
<path fill="none" stroke="midnightblue" d="M1295.06,-116.256C1284.11,-107.629 1269.69,-94.581 1261,-80 1252.08,-65.0308 1247.23,-45.7537 1244.67,-31.3817"/>
<polygon fill="midnightblue" stroke="midnightblue" points="1248.13,-30.8408 1243.13,-21.5 1241.21,-31.9201 1248.13,-30.8408"/>
</g>
<!-- Node35&#45;&gt;Node6 -->
<g id="edge106" class="edge"><title>Node35&#45;&gt;Node6</title>
<path fill="none" stroke="midnightblue" d="M899.481,-304.176C892.065,-279.244 877.444,-216.639 902,-174 910.253,-159.669 924.736,-149.306 939.195,-142.021"/>
<polygon fill="midnightblue" stroke="midnightblue" points="941.015,-145.036 948.627,-137.667 938.081,-138.68 941.015,-145.036"/>
</g>
</g>
</svg>
        <g id="navigator" transform="translate(0 0)" fill="#404254">
                <rect fill="#f2f5e9" fill-opacity="0.5" stroke="#606060" stroke-width=".5" x="0" y="0" width="60" height="60"/>
                <use id="zoomplus" xlink:href="#zoomPlus" x="17" y="9" onmousedown="handleZoom(evt,'in')"/>
                <use id="zoomminus" xlink:href="#zoomMin" x="42" y="9" onmousedown="handleZoom(evt,'out')"/>
                <use id="reset" xlink:href="#resetDef" x="30" y="36" onmousedown="handleReset()"/>
                <g id="arrowUp" xlink:href="#dirArrow" transform="translate(30 24)" onmousedown="handlePan(0,-1)">
                  <use xlink:href="#rim" fill="#404040">
                        <set attributeName="fill" to="#808080" begin="arrowUp.mouseover" end="arrowUp.mouseout"/>
                  </use>
                  <path fill="none" stroke="white" stroke-width="1.5" d="M0,-3.0v7 M-2.5,-0.5L0,-3.0L2.5,-0.5"/>
                </g>
                <g id="arrowRight" xlink:href="#dirArrow" transform="rotate(90) translate(36 -43)" onmousedown="handlePan(1,0)">
                  <use xlink:href="#rim" fill="#404040">
                        <set attributeName="fill" to="#808080" begin="arrowRight.mouseover" end="arrowRight.mouseout"/>
                  </use>
                  <path fill="none" stroke="white" stroke-width="1.5" d="M0,-3.0v7 M-2.5,-0.5L0,-3.0L2.5,-0.5"/>
                </g>
                <g id="arrowDown" xlink:href="#dirArrow" transform="rotate(180) translate(-30 -48)" onmousedown="handlePan(0,1)">
                  <use xlink:href="#rim" fill="#404040">
                        <set attributeName="fill" to="#808080" begin="arrowDown.mouseover" end="arrowDown.mouseout"/>
                  </use>
                  <path fill="none" stroke="white" stroke-width="1.5" d="M0,-3.0v7 M-2.5,-0.5L0,-3.0L2.5,-0.5"/>
                </g>
                <g id="arrowLeft" xlink:href="#dirArrow" transform="rotate(270) translate(-36 17)" onmousedown="handlePan(-1,0)">
                  <use xlink:href="#rim" fill="#404040">
                        <set attributeName="fill" to="#808080" begin="arrowLeft.mouseover" end="arrowLeft.mouseout"/>
                  </use>
                  <path fill="none" stroke="white" stroke-width="1.5" d="M0,-3.0v7 M-2.5,-0.5L0,-3.0L2.5,-0.5"/>
                </g>
        </g>
        <svg viewBox="0 0 15 15" width="100%" height="30px" preserveAspectRatio="xMaxYMin meet">
         <g id="arrow_out" transform="scale(0.3 0.3)">
          <a xlink:href="RfParameters_8cpp__incl_org.svg" target="_base">
           <rect id="button" ry="5" rx="5" y="6" x="6" height="38" width="38"
                fill="#f2f5e9" fill-opacity="0.5" stroke="#606060" stroke-width="1.0"/>
           <path id="arrow"
             d="M 11.500037,31.436501 C 11.940474,20.09759 22.043105,11.32322 32.158766,21.979434 L 37.068811,17.246167 C 37.068811,17.246167 37.088388,32 37.088388,32 L 22.160133,31.978069 C 22.160133,31.978069 26.997745,27.140456 26.997745,27.140456 C 18.528582,18.264221 13.291696,25.230495 11.500037,31.436501 z"
             style="fill:#404040;"/>
          </a>
         </g>
        </svg>
</svg>
