<?xml version="1.0" encoding="UTF-8" standalone="no"?>
<!DOCTYPE svg PUBLIC "-//W3C//DTD SVG 1.1//EN"
 "http://www.w3.org/Graphics/SVG/1.1/DTD/svg11.dtd">
<!-- Generated by graphviz version 2.26.3 (20100126.1600)
 -->
<!-- Title: RfParameters.cpp Pages: 1 -->
<svg width="1335pt" height="522pt"
 viewBox="0.00 0.00 1334.78 522.00" xmlns="http://www.w3.org/2000/svg" xmlns:xlink="http://www.w3.org/1999/xlink">
<g id="graph1" class="graph" transform="scale(1 1) rotate(0) translate(4 518)">
<title>RfParameters.cpp</title>
<polygon fill="white" stroke="white" points="-4,5 -4,-518 1331.78,-518 1331.78,5 -4,5"/>
<!-- Node1 -->
<g id="node1" class="node"><title>Node1</title>
<polygon fill="#bfbfbf" stroke="black" points="410,-492.5 410,-513.5 506,-513.5 506,-492.5 410,-492.5"/>
<text text-anchor="middle" x="458" y="-500.5" font-family="Helvetica,sans-Serif" font-size="10.00">RfParameters.cpp</text>
</g>
<!-- Node2 -->
<g id="node3" class="node"><title>Node2</title>
<a xlink:href="../../d2/d6f/constants_8h.html" target="_top" xlink:title="blond/constants.h">
<polygon fill="white" stroke="black" points="81,-376.5 81,-397.5 175,-397.5 175,-376.5 81,-376.5"/>
<text text-anchor="middle" x="128" y="-384.5" font-family="Helvetica,sans-Serif" font-size="10.00">blond/constants.h</text>
</a>
</g>
<!-- Node1&#45;&gt;Node2 -->
<g id="edge2" class="edge"><title>Node1&#45;&gt;Node2</title>
<path fill="none" stroke="midnightblue" d="M427.84,-492.398C368.06,-471.385 234.556,-424.456 167.718,-400.961"/>
<polygon fill="midnightblue" stroke="midnightblue" points="168.566,-397.55 157.971,-397.535 166.244,-404.153 168.566,-397.55"/>
</g>
<!-- Node6 -->
<g id="node11" class="node"><title>Node6</title>
<a xlink:href="../../d5/d87/globals_8h.html" target="_top" xlink:title="blond/globals.h">
<polygon fill="white" stroke="black" points="383,-434.5 383,-455.5 465,-455.5 465,-434.5 383,-434.5"/>
<text text-anchor="middle" x="424" y="-442.5" font-family="Helvetica,sans-Serif" font-size="10.00">blond/globals.h</text>
</a>
</g>
<!-- Node1&#45;&gt;Node6 -->
<g id="edge10" class="edge"><title>Node1&#45;&gt;Node6</title>
<path fill="none" stroke="midnightblue" d="M451.764,-492.362C447.163,-484.513 440.775,-473.616 435.286,-464.253"/>
<polygon fill="midnightblue" stroke="midnightblue" points="438.273,-462.428 430.197,-455.571 432.234,-465.968 438.273,-462.428"/>
</g>
<!-- Node21 -->
<g id="node47" class="node"><title>Node21</title>
<a xlink:href="../../d6/db7/RfParameters_8h.html" target="_top" xlink:title="blond/input_parameters\l/RfParameters.h">
<polygon fill="white" stroke="black" points="398,-305 398,-339 516,-339 516,-305 398,-305"/>
<text text-anchor="start" x="406" y="-326" font-family="Helvetica,sans-Serif" font-size="10.00">blond/input_parameters</text>
<text text-anchor="middle" x="457" y="-313" font-family="Helvetica,sans-Serif" font-size="10.00">/RfParameters.h</text>
</a>
</g>
<!-- Node1&#45;&gt;Node21 -->
<g id="edge68" class="edge"><title>Node1&#45;&gt;Node21</title>
<path fill="none" stroke="midnightblue" d="M462.717,-492.432C466.621,-483.072 471.86,-468.926 474,-456 480.086,-419.236 472.066,-376.483 465.108,-349.34"/>
<polygon fill="midnightblue" stroke="midnightblue" points="468.412,-348.15 462.428,-339.407 461.654,-349.974 468.412,-348.15"/>
</g>
<!-- Node23 -->
<g id="node58" class="node"><title>Node23</title>
<a xlink:href="../../d2/de2/math__functions_8h.html" target="_top" xlink:title="blond/math_functions.h">
<polygon fill="white" stroke="black" points="952,-239.5 952,-260.5 1070,-260.5 1070,-239.5 952,-239.5"/>
<text text-anchor="middle" x="1011" y="-247.5" font-family="Helvetica,sans-Serif" font-size="10.00">blond/math_functions.h</text>
</a>
</g>
<!-- Node1&#45;&gt;Node23 -->
<g id="edge70" class="edge"><title>Node1&#45;&gt;Node23</title>
<path fill="none" stroke="midnightblue" d="M481.058,-492.451C568.189,-452.588 877.54,-311.058 978.717,-264.77"/>
<polygon fill="midnightblue" stroke="midnightblue" points="980.207,-267.937 987.844,-260.594 977.294,-261.572 980.207,-267.937"/>
</g>
<!-- Node3 -->
<g id="node5" class="node"><title>Node3</title>
<a xlink:href="../../d2/d2c/configuration_8h.html" target="_top" xlink:title="blond/configuration.h">
<polygon fill="white" stroke="black" points="-0.5,-116.5 -0.5,-137.5 106.5,-137.5 106.5,-116.5 -0.5,-116.5"/>
<text text-anchor="middle" x="53" y="-124.5" font-family="Helvetica,sans-Serif" font-size="10.00">blond/configuration.h</text>
</a>
</g>
<!-- Node2&#45;&gt;Node3 -->
<g id="edge4" class="edge"><title>Node2&#45;&gt;Node3</title>
<path fill="none" stroke="midnightblue" d="M124.967,-376.486C113.684,-337.371 74.0113,-199.839 58.9028,-147.463"/>
<polygon fill="midnightblue" stroke="midnightblue" points="62.2053,-146.283 56.0707,-137.645 55.4795,-148.223 62.2053,-146.283"/>
</g>
<!-- Node4 -->
<g id="node7" class="node"><title>Node4</title>
<polygon fill="white" stroke="#bfbfbf" points="26.5,-58.5 26.5,-79.5 79.5,-79.5 79.5,-58.5 26.5,-58.5"/>
<text text-anchor="middle" x="53" y="-66.5" font-family="Helvetica,sans-Serif" font-size="10.00">complex</text>
</g>
<!-- Node3&#45;&gt;Node4 -->
<g id="edge6" class="edge"><title>Node3&#45;&gt;Node4</title>
<path fill="none" stroke="midnightblue" d="M53,-116.362C53,-108.922 53,-98.7427 53,-89.7276"/>
<polygon fill="midnightblue" stroke="midnightblue" points="56.5001,-89.5706 53,-79.5707 49.5001,-89.5707 56.5001,-89.5706"/>
</g>
<!-- Node5 -->
<g id="node9" class="node"><title>Node5</title>
<polygon fill="white" stroke="#bfbfbf" points="914,-58.5 914,-79.5 958,-79.5 958,-58.5 914,-58.5"/>
<text text-anchor="middle" x="936" y="-66.5" font-family="Helvetica,sans-Serif" font-size="10.00">vector</text>
</g>
<!-- Node3&#45;&gt;Node5 -->
<g id="edge8" class="edge"><title>Node3&#45;&gt;Node5</title>
<path fill="none" stroke="midnightblue" d="M106.711,-117.069C109.51,-116.678 112.285,-116.317 115,-116 420.342,-80.3003 792.878,-71.4043 903.539,-69.4787"/>
<polygon fill="midnightblue" stroke="midnightblue" points="903.771,-72.9754 913.711,-69.3088 903.654,-65.9764 903.771,-72.9754"/>
</g>
<!-- Node7 -->
<g id="node13" class="node"><title>Node7</title>
<a xlink:href="../../d7/d74/Beams_8h.html" target="_top" xlink:title="blond/beams/Beams.h">
<polygon fill="white" stroke="black" points="313,-376.5 313,-397.5 427,-397.5 427,-376.5 313,-376.5"/>
<text text-anchor="middle" x="370" y="-384.5" font-family="Helvetica,sans-Serif" font-size="10.00">blond/beams/Beams.h</text>
</a>
</g>
<!-- Node6&#45;&gt;Node7 -->
<g id="edge12" class="edge"><title>Node6&#45;&gt;Node7</title>
<path fill="none" stroke="midnightblue" d="M414.096,-434.362C406.484,-426.186 395.792,-414.702 386.843,-405.091"/>
<polygon fill="midnightblue" stroke="midnightblue" points="389.217,-402.505 379.842,-397.571 384.094,-407.275 389.217,-402.505"/>
</g>
<!-- Node20 -->
<g id="node42" class="node"><title>Node20</title>
<a xlink:href="../../d5/d34/GeneralParameters_8h.html" target="_top" xlink:title="blond/input_parameters\l/GeneralParameters.h">
<polygon fill="white" stroke="black" points="398,-233 398,-267 516,-267 516,-233 398,-233"/>
<text text-anchor="start" x="406" y="-254" font-family="Helvetica,sans-Serif" font-size="10.00">blond/input_parameters</text>
<text text-anchor="middle" x="457" y="-241" font-family="Helvetica,sans-Serif" font-size="10.00">/GeneralParameters.h</text>
</a>
</g>
<!-- Node6&#45;&gt;Node20 -->
<g id="edge64" class="edge"><title>Node6&#45;&gt;Node20</title>
<path fill="none" stroke="midnightblue" d="M440.127,-434.455C464.006,-417.756 507.797,-382.699 525,-340 530.979,-325.159 531.957,-318.408 525,-304 519.045,-291.667 508.754,-281.288 497.953,-273.028"/>
<polygon fill="midnightblue" stroke="midnightblue" points="499.836,-270.071 489.658,-267.127 495.778,-275.776 499.836,-270.071"/>
</g>
<!-- Node6&#45;&gt;Node21 -->
<g id="edge66" class="edge"><title>Node6&#45;&gt;Node21</title>
<path fill="none" stroke="midnightblue" d="M426.929,-434.085C431.997,-415.191 442.549,-375.862 449.705,-349.192"/>
<polygon fill="midnightblue" stroke="midnightblue" points="453.143,-349.883 452.354,-339.317 446.382,-348.069 453.143,-349.883"/>
</g>
<!-- Node22 -->
<g id="node51" class="node"><title>Node22</title>
<a xlink:href="../../dc/df2/Slices_8h.html" target="_top" xlink:title="blond/beams/Slices.h">
<polygon fill="white" stroke="black" points="156,-239.5 156,-260.5 266,-260.5 266,-239.5 156,-239.5"/>
<text text-anchor="middle" x="211" y="-247.5" font-family="Helvetica,sans-Serif" font-size="10.00">blond/beams/Slices.h</text>
</a>
</g>
<!-- Node6&#45;&gt;Node22 -->
<g id="edge58" class="edge"><title>Node6&#45;&gt;Node22</title>
<path fill="none" stroke="midnightblue" d="M382.824,-435.858C357.943,-428.742 326.749,-416.835 304,-398 260.949,-362.357 231.706,-301.394 218.687,-269.994"/>
<polygon fill="midnightblue" stroke="midnightblue" points="221.872,-268.533 214.897,-260.558 215.376,-271.142 221.872,-268.533"/>
</g>
<!-- Node7&#45;&gt;Node3 -->
<g id="edge14" class="edge"><title>Node7&#45;&gt;Node3</title>
<path fill="none" stroke="midnightblue" d="M365.925,-376.141C355.106,-348.612 323.155,-275.214 275,-232 223.791,-186.046 148.923,-156.303 100.576,-140.595"/>
<polygon fill="midnightblue" stroke="midnightblue" points="101.567,-137.238 90.9771,-137.548 99.4491,-143.91 101.567,-137.238"/>
</g>
<!-- Node8 -->
<g id="node16" class="node"><title>Node8</title>
<a xlink:href="../../de/df0/utilities_8h.html" target="_top" xlink:title="blond/utilities.h">
<polygon fill="white" stroke="black" points="416,-174.5 416,-195.5 498,-195.5 498,-174.5 416,-174.5"/>
<text text-anchor="middle" x="457" y="-182.5" font-family="Helvetica,sans-Serif" font-size="10.00">blond/utilities.h</text>
</a>
</g>
<!-- Node7&#45;&gt;Node8 -->
<g id="edge16" class="edge"><title>Node7&#45;&gt;Node8</title>
<path fill="none" stroke="midnightblue" d="M368.231,-376.462C364.332,-349.684 357.667,-277.904 389,-232 397.854,-219.028 411.565,-208.558 424.362,-200.821"/>
<polygon fill="midnightblue" stroke="midnightblue" points="426.465,-203.652 433.436,-195.674 423.012,-197.563 426.465,-203.652"/>
</g>
<!-- Node7&#45;&gt;Node20 -->
<g id="edge44" class="edge"><title>Node7&#45;&gt;Node20</title>
<path fill="none" stroke="midnightblue" d="M370.222,-376.457C371.027,-359.822 374.498,-327.011 389,-304 396.558,-292.008 407.738,-281.539 418.86,-273.094"/>
<polygon fill="midnightblue" stroke="midnightblue" points="421.211,-275.714 427.292,-267.038 417.128,-270.029 421.211,-275.714"/>
</g>
<!-- Node7&#45;&gt;Node21 -->
<g id="edge52" class="edge"><title>Node7&#45;&gt;Node21</title>
<path fill="none" stroke="midnightblue" d="M379.2,-376.267C389.017,-367.827 404.722,-355.762 419.518,-345.151"/>
<polygon fill="midnightblue" stroke="midnightblue" points="421.923,-347.737 428.073,-339.11 417.885,-342.019 421.923,-347.737"/>
</g>
<!-- Node8&#45;&gt;Node3 -->
<g id="edge38" class="edge"><title>Node8&#45;&gt;Node3</title>
<path fill="none" stroke="midnightblue" d="M415.79,-177.003C409.83,-175.938 403.765,-174.903 398,-174 275.918,-154.871 242.052,-156.957 116.726,-138.21"/>
<polygon fill="midnightblue" stroke="midnightblue" points="117.153,-134.734 106.742,-136.701 116.107,-141.656 117.153,-134.734"/>
</g>
<!-- Node8&#45;&gt;Node5 -->
<g id="edge36" class="edge"><title>Node8&#45;&gt;Node5</title>
<path fill="none" stroke="midnightblue" d="M498.007,-183.426C604.776,-178.964 885.317,-164.793 917,-138 930.818,-126.315 935.063,-105.591 936.155,-89.8961"/>
<polygon fill="midnightblue" stroke="midnightblue" points="939.664,-89.6641 936.485,-79.5576 932.668,-89.441 939.664,-89.6641"/>
</g>
<!-- Node9 -->
<g id="node18" class="node"><title>Node9</title>
<polygon fill="white" stroke="#bfbfbf" points="672,-116.5 672,-137.5 718,-137.5 718,-116.5 672,-116.5"/>
<text text-anchor="middle" x="695" y="-124.5" font-family="Helvetica,sans-Serif" font-size="10.00">chrono</text>
</g>
<!-- Node8&#45;&gt;Node9 -->
<g id="edge18" class="edge"><title>Node8&#45;&gt;Node9</title>
<path fill="none" stroke="midnightblue" d="M498.367,-176.917C538.074,-168.858 599.88,-155.532 661.746,-138.163"/>
<polygon fill="midnightblue" stroke="midnightblue" points="663.011,-141.442 671.673,-135.341 661.097,-134.709 663.011,-141.442"/>
</g>
<!-- Node10 -->
<g id="node20" class="node"><title>Node10</title>
<polygon fill="white" stroke="#bfbfbf" points="735.5,-116.5 735.5,-137.5 778.5,-137.5 778.5,-116.5 735.5,-116.5"/>
<text text-anchor="middle" x="757" y="-124.5" font-family="Helvetica,sans-Serif" font-size="10.00">cstdio</text>
</g>
<!-- Node8&#45;&gt;Node10 -->
<g id="edge20" class="edge"><title>Node8&#45;&gt;Node10</title>
<path fill="none" stroke="midnightblue" d="M498.206,-180.162C549.609,-173.616 640.221,-160.402 725.372,-138.126"/>
<polygon fill="midnightblue" stroke="midnightblue" points="726.429,-141.467 735.191,-135.51 724.627,-134.703 726.429,-141.467"/>
</g>
<!-- Node11 -->
<g id="node22" class="node"><title>Node11</title>
<polygon fill="white" stroke="#bfbfbf" points="795.5,-116.5 795.5,-137.5 840.5,-137.5 840.5,-116.5 795.5,-116.5"/>
<text text-anchor="middle" x="818" y="-124.5" font-family="Helvetica,sans-Serif" font-size="10.00">cstdlib</text>
</g>
<!-- Node8&#45;&gt;Node11 -->
<g id="edge22" class="edge"><title>Node8&#45;&gt;Node11</title>
<path fill="none" stroke="midnightblue" d="M498.143,-181.796C559.237,-176.462 677.534,-163.924 785.707,-137.967"/>
<polygon fill="midnightblue" stroke="midnightblue" points="786.589,-141.355 795.472,-135.58 784.927,-134.555 786.589,-141.355"/>
</g>
<!-- Node12 -->
<g id="node24" class="node"><title>Node12</title>
<polygon fill="white" stroke="#bfbfbf" points="858,-116.5 858,-137.5 908,-137.5 908,-116.5 858,-116.5"/>
<text text-anchor="middle" x="883" y="-124.5" font-family="Helvetica,sans-Serif" font-size="10.00">fstream</text>
</g>
<!-- Node8&#45;&gt;Node12 -->
<g id="edge24" class="edge"><title>Node8&#45;&gt;Node12</title>
<path fill="none" stroke="midnightblue" d="M498.066,-182.699C568.162,-178.205 715.385,-166.306 847.973,-137.885"/>
<polygon fill="midnightblue" stroke="midnightblue" points="848.874,-141.271 857.898,-135.72 847.382,-134.432 848.874,-141.271"/>
</g>
<!-- Node13 -->
<g id="node26" class="node"><title>Node13</title>
<polygon fill="white" stroke="#bfbfbf" points="124,-116.5 124,-137.5 178,-137.5 178,-116.5 124,-116.5"/>
<text text-anchor="middle" x="151" y="-124.5" font-family="Helvetica,sans-Serif" font-size="10.00">iostream</text>
</g>
<!-- Node8&#45;&gt;Node13 -->
<g id="edge26" class="edge"><title>Node8&#45;&gt;Node13</title>
<path fill="none" stroke="midnightblue" d="M415.752,-177.226C409.798,-176.129 403.744,-175.025 398,-174 307.457,-157.837 281.289,-159.789 187.892,-137.994"/>
<polygon fill="midnightblue" stroke="midnightblue" points="188.562,-134.556 178.026,-135.662 186.953,-141.368 188.562,-134.556"/>
</g>
<!-- Node14 -->
<g id="node28" class="node"><title>Node14</title>
<polygon fill="white" stroke="#bfbfbf" points="195.5,-116.5 195.5,-137.5 242.5,-137.5 242.5,-116.5 195.5,-116.5"/>
<text text-anchor="middle" x="219" y="-124.5" font-family="Helvetica,sans-Serif" font-size="10.00">iterator</text>
</g>
<!-- Node8&#45;&gt;Node14 -->
<g id="edge28" class="edge"><title>Node8&#45;&gt;Node14</title>
<path fill="none" stroke="midnightblue" d="M415.633,-176.917C375.926,-168.858 314.12,-155.532 252.552,-138.26"/>
<polygon fill="midnightblue" stroke="midnightblue" points="253.252,-134.82 242.676,-135.454 251.339,-141.554 253.252,-134.82"/>
</g>
<!-- Node15 -->
<g id="node30" class="node"><title>Node15</title>
<polygon fill="white" stroke="#bfbfbf" points="260,-116.5 260,-137.5 312,-137.5 312,-116.5 260,-116.5"/>
<text text-anchor="middle" x="286" y="-124.5" font-family="Helvetica,sans-Serif" font-size="10.00">memory</text>
</g>
<!-- Node8&#45;&gt;Node15 -->
<g id="edge30" class="edge"><title>Node8&#45;&gt;Node15</title>
<path fill="none" stroke="midnightblue" d="M426.033,-174.497C396.679,-164.54 352.607,-149.592 321.767,-139.132"/>
<polygon fill="midnightblue" stroke="midnightblue" points="322.849,-135.803 312.255,-135.905 320.601,-142.432 322.849,-135.803"/>
</g>
<!-- Node16 -->
<g id="node32" class="node"><title>Node16</title>
<polygon fill="white" stroke="#bfbfbf" points="330,-116.5 330,-137.5 382,-137.5 382,-116.5 330,-116.5"/>
<text text-anchor="middle" x="356" y="-124.5" font-family="Helvetica,sans-Serif" font-size="10.00">sstream</text>
</g>
<!-- Node8&#45;&gt;Node16 -->
<g id="edge32" class="edge"><title>Node8&#45;&gt;Node16</title>
<path fill="none" stroke="midnightblue" d="M438.475,-174.362C423.099,-165.532 401.004,-152.844 383.553,-142.822"/>
<polygon fill="midnightblue" stroke="midnightblue" points="384.822,-139.515 374.408,-137.571 381.336,-145.586 384.822,-139.515"/>
</g>
<!-- Node17 -->
<g id="node34" class="node"><title>Node17</title>
<polygon fill="white" stroke="#bfbfbf" points="399.5,-116.5 399.5,-137.5 440.5,-137.5 440.5,-116.5 399.5,-116.5"/>
<text text-anchor="middle" x="420" y="-124.5" font-family="Helvetica,sans-Serif" font-size="10.00">string</text>
</g>
<!-- Node8&#45;&gt;Node17 -->
<g id="edge34" class="edge"><title>Node8&#45;&gt;Node17</title>
<path fill="none" stroke="midnightblue" d="M450.214,-174.362C445.207,-166.513 438.255,-155.616 432.282,-146.253"/>
<polygon fill="midnightblue" stroke="midnightblue" points="435.072,-144.119 426.743,-137.571 429.171,-147.884 435.072,-144.119"/>
</g>
<!-- Node18 -->
<g id="node38" class="node"><title>Node18</title>
<polygon fill="white" stroke="#bfbfbf" points="457.5,-116.5 457.5,-137.5 532.5,-137.5 532.5,-116.5 457.5,-116.5"/>
<text text-anchor="middle" x="495" y="-124.5" font-family="Helvetica,sans-Serif" font-size="10.00">mm_malloc.h</text>
</g>
<!-- Node8&#45;&gt;Node18 -->
<g id="edge40" class="edge"><title>Node8&#45;&gt;Node18</title>
<path fill="none" stroke="midnightblue" d="M463.97,-174.362C469.166,-166.431 476.401,-155.389 482.578,-145.961"/>
<polygon fill="midnightblue" stroke="midnightblue" points="485.522,-147.853 488.074,-137.571 479.666,-144.017 485.522,-147.853"/>
</g>
<!-- Node19 -->
<g id="node40" class="node"><title>Node19</title>
<a xlink:href="../../da/d69/optionparser_8h.html" target="_top" xlink:title="This is the only file required to use The Lean Mean C++ Option Parser. Just #include it and you&#39;re se...">
<polygon fill="white" stroke="black" points="550,-116.5 550,-137.5 654,-137.5 654,-116.5 550,-116.5"/>
<text text-anchor="middle" x="602" y="-124.5" font-family="Helvetica,sans-Serif" font-size="10.00">blond/optionparser.h</text>
</a>
</g>
<!-- Node8&#45;&gt;Node19 -->
<g id="edge42" class="edge"><title>Node8&#45;&gt;Node19</title>
<path fill="none" stroke="midnightblue" d="M483.258,-174.497C506.416,-165.234 540.375,-151.65 566.052,-141.379"/>
<polygon fill="midnightblue" stroke="midnightblue" points="567.462,-144.585 575.447,-137.621 564.862,-138.086 567.462,-144.585"/>
</g>
<!-- Node20&#45;&gt;Node3 -->
<g id="edge46" class="edge"><title>Node20&#45;&gt;Node3</title>
<path fill="none" stroke="midnightblue" d="M429.505,-232.896C400.384,-215.53 352.55,-189.109 308,-174 303.438,-172.453 190.938,-151.956 116.905,-138.546"/>
<polygon fill="midnightblue" stroke="midnightblue" points="117.193,-135.041 106.729,-136.704 115.946,-141.929 117.193,-135.041"/>
</g>
<!-- Node20&#45;&gt;Node5 -->
<g id="edge50" class="edge"><title>Node20&#45;&gt;Node5</title>
<path fill="none" stroke="midnightblue" d="M516.042,-245.169C632.491,-234.288 885.005,-203.523 937,-138 947.667,-124.558 946.084,-104.557 942.62,-89.5453"/>
<polygon fill="midnightblue" stroke="midnightblue" points="945.93,-88.3816 939.914,-79.661 939.179,-90.2303 945.93,-88.3816"/>
</g>
<!-- Node20&#45;&gt;Node8 -->
<g id="edge48" class="edge"><title>Node20&#45;&gt;Node8</title>
<path fill="none" stroke="midnightblue" d="M457,-232.922C457,-224.67 457,-214.692 457,-205.982"/>
<polygon fill="midnightblue" stroke="midnightblue" points="460.5,-205.852 457,-195.852 453.5,-205.852 460.5,-205.852"/>
</g>
<!-- Node21&#45;&gt;Node7 -->
<g id="edge54" class="edge"><title>Node21&#45;&gt;Node7</title>
<path fill="none" stroke="midnightblue" d="M440.126,-339.11C428.062,-348.863 411.763,-361.02 397.838,-370.645"/>
<polygon fill="midnightblue" stroke="midnightblue" points="395.852,-367.763 389.533,-376.267 399.776,-373.56 395.852,-367.763"/>
</g>
<!-- Node21&#45;&gt;Node20 -->
<g id="edge56" class="edge"><title>Node21&#45;&gt;Node20</title>
<path fill="none" stroke="midnightblue" d="M457,-304.937C457,-296.807 457,-286.876 457,-277.705"/>
<polygon fill="midnightblue" stroke="midnightblue" points="460.5,-277.441 457,-267.441 453.5,-277.441 460.5,-277.441"/>
</g>
<!-- Node22&#45;&gt;Node3 -->
<g id="edge60" class="edge"><title>Node22&#45;&gt;Node3</title>
<path fill="none" stroke="midnightblue" d="M197.255,-239.3C169.825,-217.946 108.088,-169.885 74.9729,-144.106"/>
<polygon fill="midnightblue" stroke="midnightblue" points="76.8667,-141.144 66.8258,-137.763 72.5666,-146.668 76.8667,-141.144"/>
</g>
<!-- Node22&#45;&gt;Node8 -->
<g id="edge62" class="edge"><title>Node22&#45;&gt;Node8</title>
<path fill="none" stroke="midnightblue" d="M250.798,-239.484C293.491,-228.204 361.362,-210.27 407.478,-198.085"/>
<polygon fill="midnightblue" stroke="midnightblue" points="408.486,-201.439 417.26,-195.501 406.697,-194.671 408.486,-201.439"/>
</g>
<!-- Node23&#45;&gt;Node3 -->
<g id="edge74" class="edge"><title>Node23&#45;&gt;Node3</title>
<path fill="none" stroke="midnightblue" d="M951.677,-246.722C820.571,-239.147 509.672,-219.287 407,-196 379.707,-189.81 375.08,-181.062 348,-174 249.676,-148.359 220.147,-154.725 116.668,-138.227"/>
<polygon fill="midnightblue" stroke="midnightblue" points="117.188,-134.765 106.756,-136.613 116.064,-141.674 117.188,-134.765"/>
</g>
<!-- Node23&#45;&gt;Node8 -->
<g id="edge92" class="edge"><title>Node23&#45;&gt;Node8</title>
<path fill="none" stroke="midnightblue" d="M951.975,-243.075C842.808,-230.266 611.129,-203.084 508.166,-191.003"/>
<polygon fill="midnightblue" stroke="midnightblue" points="508.363,-187.502 498.023,-189.813 507.547,-194.455 508.363,-187.502"/>
</g>
<!-- Node24 -->
<g id="node60" class="node"><title>Node24</title>
<polygon fill="white" stroke="#bfbfbf" points="1141,-174.5 1141,-195.5 1197,-195.5 1197,-174.5 1141,-174.5"/>
<text text-anchor="middle" x="1169" y="-182.5" font-family="Helvetica,sans-Serif" font-size="10.00">algorithm</text>
</g>
<!-- Node23&#45;&gt;Node24 -->
<g id="edge72" class="edge"><title>Node23&#45;&gt;Node24</title>
<path fill="none" stroke="midnightblue" d="M1036.74,-239.412C1063.13,-228.552 1104.38,-211.583 1133.79,-199.484"/>
<polygon fill="midnightblue" stroke="midnightblue" points="1135.36,-202.625 1143.27,-195.584 1132.69,-196.151 1135.36,-202.625"/>
</g>
<!-- Node25 -->
<g id="node63" class="node"><title>Node25</title>
<a xlink:href="../../d8/dcd/exp_8h.html" target="_top" xlink:title="blond/exp.h">
<polygon fill="white" stroke="black" points="1214.5,-174.5 1214.5,-195.5 1281.5,-195.5 1281.5,-174.5 1214.5,-174.5"/>
<text text-anchor="middle" x="1248" y="-182.5" font-family="Helvetica,sans-Serif" font-size="10.00">blond/exp.h</text>
</a>
</g>
<!-- Node23&#45;&gt;Node25 -->
<g id="edge76" class="edge"><title>Node23&#45;&gt;Node25</title>
<path fill="none" stroke="midnightblue" d="M1049.34,-239.484C1091.76,-227.851 1159.97,-209.142 1204.39,-196.959"/>
<polygon fill="midnightblue" stroke="midnightblue" points="1205.6,-200.258 1214.32,-194.238 1203.75,-193.507 1205.6,-200.258"/>
</g>
<!-- Node27 -->
<g id="node67" class="node"><title>Node27</title>
<polygon fill="white" stroke="#bfbfbf" points="1205,-0.5 1205,-21.5 1249,-21.5 1249,-0.5 1205,-0.5"/>
<text text-anchor="middle" x="1227" y="-8.5" font-family="Helvetica,sans-Serif" font-size="10.00">cmath</text>
</g>
<!-- Node23&#45;&gt;Node27 -->
<g id="edge94" class="edge"><title>Node23&#45;&gt;Node27</title>
<path fill="none" stroke="midnightblue" d="M1070.13,-247.119C1143.61,-242.157 1262.68,-229.109 1290,-196 1306.22,-176.34 1365.9,-216.756 1286,-58 1279.57,-45.2294 1267.9,-34.8034 1256.62,-27.0448"/>
<polygon fill="midnightblue" stroke="midnightblue" points="1258.48,-24.0774 1248.17,-21.637 1254.7,-29.9741 1258.48,-24.0774"/>
</g>
<!-- Node29 -->
<g id="node71" class="node"><title>Node29</title>
<a xlink:href="../../d1/d3d/sin_8h.html" target="_top" xlink:title="blond/sin.h">
<polygon fill="white" stroke="black" points="905,-174.5 905,-195.5 969,-195.5 969,-174.5 905,-174.5"/>
<text text-anchor="middle" x="937" y="-182.5" font-family="Helvetica,sans-Serif" font-size="10.00">blond/sin.h</text>
</a>
</g>
<!-- Node23&#45;&gt;Node29 -->
<g id="edge84" class="edge"><title>Node23&#45;&gt;Node29</title>
<path fill="none" stroke="midnightblue" d="M998.78,-239.267C987.358,-229.233 970.104,-214.078 956.731,-202.331"/>
<polygon fill="midnightblue" stroke="midnightblue" points="958.815,-199.504 948.992,-195.534 954.196,-204.763 958.815,-199.504"/>
</g>
<!-- Node31 -->
<g id="node79" class="node"><title>Node31</title>
<polygon fill="white" stroke="#bfbfbf" points="986.5,-174.5 986.5,-195.5 1035.5,-195.5 1035.5,-174.5 986.5,-174.5"/>
<text text-anchor="middle" x="1011" y="-182.5" font-family="Helvetica,sans-Serif" font-size="10.00">cassert</text>
</g>
<!-- Node23&#45;&gt;Node31 -->
<g id="edge96" class="edge"><title>Node23&#45;&gt;Node31</title>
<path fill="none" stroke="midnightblue" d="M1011,-239.267C1011,-230.18 1011,-216.892 1011,-205.74"/>
<polygon fill="midnightblue" stroke="midnightblue" points="1014.5,-205.534 1011,-195.534 1007.5,-205.534 1014.5,-205.534"/>
</g>
<!-- Node32 -->
<g id="node81" class="node"><title>Node32</title>
<a xlink:href="../../df/d28/omp_8h.html" target="_top" xlink:title="blond/omp.h">
<polygon fill="white" stroke="black" points="1053,-174.5 1053,-195.5 1123,-195.5 1123,-174.5 1053,-174.5"/>
<text text-anchor="middle" x="1088" y="-182.5" font-family="Helvetica,sans-Serif" font-size="10.00">blond/omp.h</text>
</a>
</g>
<!-- Node23&#45;&gt;Node32 -->
<g id="edge98" class="edge"><title>Node23&#45;&gt;Node32</title>
<path fill="none" stroke="midnightblue" d="M1023.71,-239.267C1035.71,-229.139 1053.89,-213.792 1067.86,-202"/>
<polygon fill="midnightblue" stroke="midnightblue" points="1070.14,-204.659 1075.52,-195.534 1065.62,-199.31 1070.14,-204.659"/>
</g>
<!-- Node26 -->
<g id="node65" class="node"><title>Node26</title>
<a xlink:href="../../df/de1/vdtcore__common_8h.html" target="_top" xlink:title="vdtcore_common.h">
<polygon fill="white" stroke="black" points="1177,-58.5 1177,-79.5 1277,-79.5 1277,-58.5 1177,-58.5"/>
<text text-anchor="middle" x="1227" y="-66.5" font-family="Helvetica,sans-Serif" font-size="10.00">vdtcore_common.h</text>
</a>
</g>
<!-- Node25&#45;&gt;Node26 -->
<g id="edge78" class="edge"><title>Node25&#45;&gt;Node26</title>
<path fill="none" stroke="midnightblue" d="M1246.06,-174.295C1242.59,-155.131 1235.26,-114.654 1230.77,-89.8434"/>
<polygon fill="midnightblue" stroke="midnightblue" points="1234.16,-88.8957 1228.93,-79.6792 1227.27,-90.1428 1234.16,-88.8957"/>
</g>
<!-- Node28 -->
<g id="node69" class="node"><title>Node28</title>
<polygon fill="white" stroke="#bfbfbf" points="1183,-116.5 1183,-137.5 1223,-137.5 1223,-116.5 1183,-116.5"/>
<text text-anchor="middle" x="1203" y="-124.5" font-family="Helvetica,sans-Serif" font-size="10.00">limits</text>
</g>
<!-- Node25&#45;&gt;Node28 -->
<g id="edge82" class="edge"><title>Node25&#45;&gt;Node28</title>
<path fill="none" stroke="midnightblue" d="M1239.75,-174.362C1233.53,-166.35 1224.85,-155.161 1217.49,-145.67"/>
<polygon fill="midnightblue" stroke="midnightblue" points="1220.1,-143.326 1211.2,-137.571 1214.57,-147.617 1220.1,-143.326"/>
</g>
<!-- Node26&#45;&gt;Node27 -->
<g id="edge80" class="edge"><title>Node26&#45;&gt;Node27</title>
<path fill="none" stroke="midnightblue" d="M1227,-58.3619C1227,-50.9219 1227,-40.7427 1227,-31.7276"/>
<polygon fill="midnightblue" stroke="midnightblue" points="1230.5,-31.5706 1227,-21.5707 1223.5,-31.5707 1230.5,-31.5706"/>
</g>
<!-- Node30 -->
<g id="node73" class="node"><title>Node30</title>
<a xlink:href="../../dc/dfa/sincos_8h.html" target="_top" xlink:title="sincos.h">
<polygon fill="white" stroke="black" points="1112.5,-116.5 1112.5,-137.5 1165.5,-137.5 1165.5,-116.5 1112.5,-116.5"/>
<text text-anchor="middle" x="1139" y="-124.5" font-family="Helvetica,sans-Serif" font-size="10.00">sincos.h</text>
</a>
</g>
<!-- Node29&#45;&gt;Node30 -->
<g id="edge86" class="edge"><title>Node29&#45;&gt;Node30</title>
<path fill="none" stroke="midnightblue" d="M969.008,-175.81C1005.36,-165.371 1064.56,-148.373 1102.63,-137.442"/>
<polygon fill="midnightblue" stroke="midnightblue" points="1103.66,-140.789 1112.3,-134.665 1101.73,-134.061 1103.66,-140.789"/>
</g>
<!-- Node30&#45;&gt;Node26 -->
<g id="edge88" class="edge"><title>Node30&#45;&gt;Node26</title>
<path fill="none" stroke="midnightblue" d="M1155.14,-116.362C1168.41,-107.614 1187.43,-95.0786 1202.57,-85.1015"/>
<polygon fill="midnightblue" stroke="midnightblue" points="1204.54,-87.9962 1210.96,-79.5707 1200.69,-82.1515 1204.54,-87.9962"/>
</g>
<!-- Node30&#45;&gt;Node27 -->
<g id="edge90" class="edge"><title>Node30&#45;&gt;Node27</title>
<path fill="none" stroke="midnightblue" d="M1141.68,-116.339C1145.67,-102.009 1154.2,-76.2339 1168,-58 1177.01,-46.1019 1189.69,-35.4836 1200.98,-27.3632"/>
<polygon fill="midnightblue" stroke="midnightblue" points="1203.02,-30.2133 1209.27,-21.6606 1199.05,-24.447 1203.02,-30.2133"/>
</g>
</g>
</svg>
