<?xml version="1.0" encoding="UTF-8" standalone="no"?>
<!DOCTYPE svg PUBLIC "-//W3C//DTD SVG 1.1//EN"
 "http://www.w3.org/Graphics/SVG/1.1/DTD/svg11.dtd">
<!-- Generated by graphviz version 2.26.3 (20100126.1600)
 -->
<!-- Title: blond::PhaseNoise Pages: 1 -->
<svg width="306pt" height="382pt"
 viewBox="0.00 0.00 306.00 382.00" xmlns="http://www.w3.org/2000/svg" xmlns:xlink="http://www.w3.org/1999/xlink">
<g id="graph1" class="graph" transform="scale(1 1) rotate(0) translate(4 378)">
<title>blond::PhaseNoise</title>
<polygon fill="white" stroke="white" points="-4,5 -4,-378 303,-378 303,5 -4,5"/>
<!-- Node1 -->
<g id="node1" class="node"><title>Node1</title>
<polygon fill="#bfbfbf" stroke="black" points="68,-141 68,-373 214,-373 214,-141 68,-141"/>
<text text-anchor="middle" x="141" y="-360" font-family="Helvetica,sans-Serif" font-size="10.00">blond::PhaseNoise</text>
<polyline fill="none" stroke="black" points="68,-352 214,-352 "/>
<text text-anchor="start" x="76" y="-339" font-family="Helvetica,sans-Serif" font-size="10.00">+ fAi</text>
<text text-anchor="start" x="76" y="-326" font-family="Helvetica,sans-Serif" font-size="10.00">+ fCorr</text>
<text text-anchor="start" x="76" y="-313" font-family="Helvetica,sans-Serif" font-size="10.00">+ fDphi</text>
<text text-anchor="start" x="76" y="-300" font-family="Helvetica,sans-Serif" font-size="10.00">+ fFMax</text>
<text text-anchor="start" x="76" y="-287" font-family="Helvetica,sans-Serif" font-size="10.00">+ fFMin</text>
<text text-anchor="start" x="76" y="-274" font-family="Helvetica,sans-Serif" font-size="10.00">+ fFs</text>
<text text-anchor="start" x="76" y="-261" font-family="Helvetica,sans-Serif" font-size="10.00">+ fNTurns</text>
<text text-anchor="start" x="76" y="-248" font-family="Helvetica,sans-Serif" font-size="10.00">+ fPredistortion</text>
<text text-anchor="start" x="76" y="-235" font-family="Helvetica,sans-Serif" font-size="10.00">+ fSeed1</text>
<text text-anchor="start" x="76" y="-222" font-family="Helvetica,sans-Serif" font-size="10.00">+ fSeed2</text>
<polyline fill="none" stroke="black" points="68,-214 214,-214 "/>
<text text-anchor="start" x="76" y="-201" font-family="Helvetica,sans-Serif" font-size="10.00">+ PhaseNoise()</text>
<text text-anchor="start" x="76" y="-188" font-family="Helvetica,sans-Serif" font-size="10.00">+ ~PhaseNoise()</text>
<text text-anchor="start" x="76" y="-175" font-family="Helvetica,sans-Serif" font-size="10.00">+ generate()</text>
<text text-anchor="start" x="76" y="-162" font-family="Helvetica,sans-Serif" font-size="10.00">+ spectrum_generation()</text>
<text text-anchor="start" x="76" y="-149" font-family="Helvetica,sans-Serif" font-size="10.00">+ spectrum_to_phase_noise()</text>
</g>
<!-- Node2 -->
<g id="node3" class="node"><title>Node2</title>
<a xlink:href="../../dd/d85/classblond_1_1LHCFlatSpectrum.html" target="_top" xlink:title="{blond::LHCFlatSpectrum\n|+ fNt\l|+ LHCFlatSpectrum()\l+ ~LHCFlatSpectrum()\l+ generate()\l}">
<polygon fill="white" stroke="black" points="-0.5,-7.5 -0.5,-96.5 124.5,-96.5 124.5,-7.5 -0.5,-7.5"/>
<text text-anchor="middle" x="62" y="-83.5" font-family="Helvetica,sans-Serif" font-size="10.00">blond::LHCFlatSpectrum</text>
<polyline fill="none" stroke="black" points="-0.5,-75.5 124.5,-75.5 "/>
<text text-anchor="start" x="7.5" y="-62.5" font-family="Helvetica,sans-Serif" font-size="10.00">+ fNt</text>
<polyline fill="none" stroke="black" points="-0.5,-54.5 124.5,-54.5 "/>
<text text-anchor="start" x="7.5" y="-41.5" font-family="Helvetica,sans-Serif" font-size="10.00">+ LHCFlatSpectrum()</text>
<text text-anchor="start" x="7.5" y="-28.5" font-family="Helvetica,sans-Serif" font-size="10.00">+ ~LHCFlatSpectrum()</text>
<text text-anchor="start" x="7.5" y="-15.5" font-family="Helvetica,sans-Serif" font-size="10.00">+ generate()</text>
</a>
</g>
<!-- Node1&#45;&gt;Node2 -->
<g id="edge2" class="edge"><title>Node1&#45;&gt;Node2</title>
<path fill="none" stroke="midnightblue" d="M92.5662,-131.317C87.8653,-119.119 83.3425,-107.382 79.2835,-96.8495"/>
<polygon fill="none" stroke="midnightblue" points="89.3292,-132.651 96.1911,-140.724 95.861,-130.134 89.3292,-132.651"/>
</g>
<!-- Node3 -->
<g id="node5" class="node"><title>Node3</title>
<a xlink:href="../../db/d42/classblond_1_1PSBPhaseNoiseInjection.html" target="_top" xlink:title="{blond::PSBPhaseNoiseInjection\n|+ fDeltaF\l+ fRescaleAmpl\l|+ PSBPhaseNoiseInjection()\l+ ~PSBPhaseNoiseInjection()\l+ generate()\l}">
<polygon fill="white" stroke="black" points="142,-1 142,-103 298,-103 298,-1 142,-1"/>
<text text-anchor="middle" x="220" y="-90" font-family="Helvetica,sans-Serif" font-size="10.00">blond::PSBPhaseNoiseInjection</text>
<polyline fill="none" stroke="black" points="142,-82 298,-82 "/>
<text text-anchor="start" x="150" y="-69" font-family="Helvetica,sans-Serif" font-size="10.00">+ fDeltaF</text>
<text text-anchor="start" x="150" y="-56" font-family="Helvetica,sans-Serif" font-size="10.00">+ fRescaleAmpl</text>
<polyline fill="none" stroke="black" points="142,-48 298,-48 "/>
<text text-anchor="start" x="150" y="-35" font-family="Helvetica,sans-Serif" font-size="10.00">+ PSBPhaseNoiseInjection()</text>
<text text-anchor="start" x="150" y="-22" font-family="Helvetica,sans-Serif" font-size="10.00">+ ~PSBPhaseNoiseInjection()</text>
<text text-anchor="start" x="150" y="-9" font-family="Helvetica,sans-Serif" font-size="10.00">+ generate()</text>
</a>
</g>
<!-- Node1&#45;&gt;Node3 -->
<g id="edge4" class="edge"><title>Node1&#45;&gt;Node3</title>
<path fill="none" stroke="midnightblue" d="M189.427,-131.334C193.17,-121.622 196.8,-112.202 200.173,-103.449"/>
<polygon fill="none" stroke="midnightblue" points="186.139,-130.134 185.809,-140.724 192.671,-132.651 186.139,-130.134"/>
</g>
</g>
</svg>
