<?xml version="1.0" encoding="UTF-8" standalone="no"?>
<!DOCTYPE svg PUBLIC "-//W3C//DTD SVG 1.1//EN"
 "http://www.w3.org/Graphics/SVG/1.1/DTD/svg11.dtd">
<!-- Generated by graphviz version 2.26.3 (20100126.1600)
 -->
<!-- Title: Beams.h Pages: 1 -->
<svg width="1219pt" height="378pt"
 viewBox="0.00 0.00 1219.07 378.00" xmlns="http://www.w3.org/2000/svg" xmlns:xlink="http://www.w3.org/1999/xlink">
<g id="graph1" class="graph" transform="scale(1 1) rotate(0) translate(4 374)">
<title>Beams.h</title>
<polygon fill="white" stroke="white" points="-4,5 -4,-374 1216.07,-374 1216.07,5 -4,5"/>
<!-- Node1 -->
<g id="node1" class="node"><title>Node1</title>
<polygon fill="#bfbfbf" stroke="black" points="645.068,-348.5 645.068,-369.5 701.068,-369.5 701.068,-348.5 645.068,-348.5"/>
<text text-anchor="middle" x="673.068" y="-356.5" font-family="Helvetica,sans-Serif" font-size="10.00">Beams.h</text>
</g>
<!-- Node2 -->
<g id="node3" class="node"><title>Node2</title>
<a xlink:href="../../dc/d0f/Beams_8cpp.html" target="_top" xlink:title="Beams.cpp">
<polygon fill="white" stroke="black" points="29.0676,-116.5 29.0676,-137.5 95.0676,-137.5 95.0676,-116.5 29.0676,-116.5"/>
<text text-anchor="middle" x="62.0676" y="-124.5" font-family="Helvetica,sans-Serif" font-size="10.00">Beams.cpp</text>
</a>
</g>
<!-- Node1&#45;&gt;Node2 -->
<g id="edge2" class="edge"><title>Node1&#45;&gt;Node2</title>
<path fill="none" stroke="midnightblue" d="M634.995,-355.879C539.729,-346.477 286.489,-311.524 116.068,-196 93.4033,-180.637 75.9139,-152.765 67.527,-137.571"/>
<polygon fill="midnightblue" stroke="midnightblue" points="634.744,-359.371 645.03,-356.832 635.406,-352.402 634.744,-359.371"/>
</g>
<!-- Node3 -->
<g id="node5" class="node"><title>Node3</title>
<a xlink:href="../../dc/d7d/Distributions_8h.html" target="_top" xlink:title="Distributions.h">
<polygon fill="white" stroke="black" points="214.068,-58.5 214.068,-79.5 294.068,-79.5 294.068,-58.5 214.068,-58.5"/>
<text text-anchor="middle" x="254.068" y="-66.5" font-family="Helvetica,sans-Serif" font-size="10.00">Distributions.h</text>
</a>
</g>
<!-- Node1&#45;&gt;Node3 -->
<g id="edge4" class="edge"><title>Node1&#45;&gt;Node3</title>
<path fill="none" stroke="midnightblue" d="M635.05,-356.496C492.941,-346.636 1.06756,-307.825 1.06756,-243 1.06756,-243 1.06756,-243 1.06756,-185 1.06756,-153.192 -3.20268,-137.685 20.0676,-116 47.6534,-90.2931 154.287,-77.3829 213.629,-72.0672"/>
<polygon fill="midnightblue" stroke="midnightblue" points="634.832,-359.989 645.048,-357.181 635.311,-353.005 634.832,-359.989"/>
</g>
<!-- Node5 -->
<g id="node9" class="node"><title>Node5</title>
<a xlink:href="../../d5/d87/globals_8h.html" target="_top" xlink:title="globals.h">
<polygon fill="white" stroke="black" points="734.068,-290.5 734.068,-311.5 790.068,-311.5 790.068,-290.5 734.068,-290.5"/>
<text text-anchor="middle" x="762.068" y="-298.5" font-family="Helvetica,sans-Serif" font-size="10.00">globals.h</text>
</a>
</g>
<!-- Node1&#45;&gt;Node5 -->
<g id="edge8" class="edge"><title>Node1&#45;&gt;Node5</title>
<path fill="none" stroke="midnightblue" d="M692.17,-342.541C706.422,-332.597 725.686,-320.218 740.495,-311.571"/>
<polygon fill="midnightblue" stroke="midnightblue" points="690.127,-339.699 684.027,-348.362 694.198,-345.393 690.127,-339.699"/>
</g>
<!-- Node10 -->
<g id="node20" class="node"><title>Node10</title>
<a xlink:href="../../d6/db7/RfParameters_8h.html" target="_top" xlink:title="RfParameters.h">
<polygon fill="white" stroke="black" points="563.068,-232.5 563.068,-253.5 649.068,-253.5 649.068,-232.5 563.068,-232.5"/>
<text text-anchor="middle" x="606.068" y="-240.5" font-family="Helvetica,sans-Serif" font-size="10.00">RfParameters.h</text>
</a>
</g>
<!-- Node1&#45;&gt;Node10 -->
<g id="edge106" class="edge"><title>Node1&#45;&gt;Node10</title>
<path fill="none" stroke="midnightblue" d="M657.011,-340.101C640.356,-315.502 616.348,-273.341 608.127,-253.679"/>
<polygon fill="midnightblue" stroke="midnightblue" points="654.157,-342.127 662.771,-348.295 659.883,-338.101 654.157,-342.127"/>
</g>
<!-- Node13 -->
<g id="node29" class="node"><title>Node13</title>
<a xlink:href="../../d0/da6/Monitors_8h.html" target="_top" xlink:title="Monitors.h">
<polygon fill="white" stroke="black" points="877.068,-116.5 877.068,-137.5 939.068,-137.5 939.068,-116.5 877.068,-116.5"/>
<text text-anchor="middle" x="908.068" y="-124.5" font-family="Helvetica,sans-Serif" font-size="10.00">Monitors.h</text>
</a>
</g>
<!-- Node1&#45;&gt;Node13 -->
<g id="edge108" class="edge"><title>Node1&#45;&gt;Node13</title>
<path fill="none" stroke="midnightblue" d="M711.22,-355.045C803.66,-344.596 1035.38,-312.931 1081.07,-254 1093.97,-237.362 1085.81,-192.139 1069.07,-174 1066.81,-171.553 985.508,-148.587 939.325,-135.689"/>
<polygon fill="midnightblue" stroke="midnightblue" points="710.724,-351.578 701.171,-356.159 711.496,-358.536 710.724,-351.578"/>
</g>
<!-- Node17 -->
<g id="node37" class="node"><title>Node17</title>
<a xlink:href="../../d8/d94/plot__beams_8h.html" target="_top" xlink:title="plot_beams.h">
<polygon fill="white" stroke="black" points="704.568,-116.5 704.568,-137.5 779.568,-137.5 779.568,-116.5 704.568,-116.5"/>
<text text-anchor="middle" x="742.068" y="-124.5" font-family="Helvetica,sans-Serif" font-size="10.00">plot_beams.h</text>
</a>
</g>
<!-- Node1&#45;&gt;Node17 -->
<g id="edge110" class="edge"><title>Node1&#45;&gt;Node17</title>
<path fill="none" stroke="midnightblue" d="M682.737,-338.805C696.769,-308.53 722.474,-249.239 735.068,-196 739.835,-175.846 741.356,-151.626 741.841,-137.902"/>
<polygon fill="midnightblue" stroke="midnightblue" points="679.385,-337.707 678.3,-348.246 685.721,-340.684 679.385,-337.707"/>
</g>
<!-- Node31 -->
<g id="node77" class="node"><title>Node31</title>
<a xlink:href="../../d9/dee/InducedVoltage_8h.html" target="_top" xlink:title="InducedVoltage.h">
<polygon fill="white" stroke="black" points="316.068,-174.5 316.068,-195.5 408.068,-195.5 408.068,-174.5 316.068,-174.5"/>
<text text-anchor="middle" x="362.068" y="-182.5" font-family="Helvetica,sans-Serif" font-size="10.00">InducedVoltage.h</text>
</a>
</g>
<!-- Node1&#45;&gt;Node31 -->
<g id="edge92" class="edge"><title>Node1&#45;&gt;Node31</title>
<path fill="none" stroke="midnightblue" d="M645.214,-343.416C583.026,-308.623 434.188,-225.351 381.201,-195.705"/>
<polygon fill="midnightblue" stroke="midnightblue" points="643.645,-346.549 654.081,-348.377 647.063,-340.44 643.645,-346.549"/>
</g>
<!-- Node32 -->
<g id="node83" class="node"><title>Node32</title>
<a xlink:href="../../dc/d9c/Music_8h.html" target="_top" xlink:title="Music.h">
<polygon fill="white" stroke="black" points="1151.57,-290.5 1151.57,-311.5 1202.57,-311.5 1202.57,-290.5 1151.57,-290.5"/>
<text text-anchor="middle" x="1177.07" y="-298.5" font-family="Helvetica,sans-Serif" font-size="10.00">Music.h</text>
</a>
</g>
<!-- Node1&#45;&gt;Node32 -->
<g id="edge102" class="edge"><title>Node1&#45;&gt;Node32</title>
<path fill="none" stroke="midnightblue" d="M711.157,-357.124C790.533,-352.777 979.224,-340.16 1135.07,-312 1140.41,-311.035 1146.07,-309.743 1151.44,-308.383"/>
<polygon fill="midnightblue" stroke="midnightblue" points="710.938,-353.631 701.14,-357.66 711.312,-360.621 710.938,-353.631"/>
</g>
<!-- Node4 -->
<g id="node7" class="node"><title>Node4</title>
<a xlink:href="../../db/de1/Distributions_8cpp.html" target="_top" xlink:title="Distributions.cpp">
<polygon fill="white" stroke="black" points="143.068,-0.5 143.068,-21.5 233.068,-21.5 233.068,-0.5 143.068,-0.5"/>
<text text-anchor="middle" x="188.068" y="-8.5" font-family="Helvetica,sans-Serif" font-size="10.00">Distributions.cpp</text>
</a>
</g>
<!-- Node3&#45;&gt;Node4 -->
<g id="edge6" class="edge"><title>Node3&#45;&gt;Node4</title>
<path fill="none" stroke="midnightblue" d="M234.371,-51.6908C223.229,-41.8996 209.657,-29.973 200.096,-21.5707"/>
<polygon fill="midnightblue" stroke="midnightblue" points="232.14,-54.3898 241.962,-58.3619 236.761,-49.1316 232.14,-54.3898"/>
</g>
<!-- Node5&#45;&gt;Node1 -->
<g id="edge18" class="edge"><title>Node5&#45;&gt;Node1</title>
<path fill="none" stroke="midnightblue" d="M742.673,-317.664C728.487,-327.546 709.448,-339.777 694.756,-348.362"/>
<polygon fill="midnightblue" stroke="midnightblue" points="745.098,-320.232 751.199,-311.571 741.028,-314.537 745.098,-320.232"/>
</g>
<!-- Node6 -->
<g id="node11" class="node"><title>Node6</title>
<a xlink:href="../../d7/d91/Slices_8cpp.html" target="_top" xlink:title="Slices.cpp">
<polygon fill="white" stroke="black" points="797.068,-116.5 797.068,-137.5 859.068,-137.5 859.068,-116.5 797.068,-116.5"/>
<text text-anchor="middle" x="828.068" y="-124.5" font-family="Helvetica,sans-Serif" font-size="10.00">Slices.cpp</text>
</a>
</g>
<!-- Node5&#45;&gt;Node6 -->
<g id="edge10" class="edge"><title>Node5&#45;&gt;Node6</title>
<path fill="none" stroke="midnightblue" d="M800.387,-297.798C877.832,-290.937 1047.09,-273.823 1064.07,-254 1079.55,-235.918 1066.49,-191.142 1048.07,-174 988.346,-118.418 947.45,-156.828 868.068,-138 865.264,-137.335 862.361,-136.609 859.456,-135.858"/>
<polygon fill="midnightblue" stroke="midnightblue" points="799.752,-294.34 790.094,-298.697 800.361,-301.313 799.752,-294.34"/>
</g>
<!-- Node7 -->
<g id="node13" class="node"><title>Node7</title>
<a xlink:href="../../da/d77/globals_8cpp.html" target="_top" xlink:title="globals.cpp">
<polygon fill="white" stroke="black" points="781.068,-232.5 781.068,-253.5 847.068,-253.5 847.068,-232.5 781.068,-232.5"/>
<text text-anchor="middle" x="814.068" y="-240.5" font-family="Helvetica,sans-Serif" font-size="10.00">globals.cpp</text>
</a>
</g>
<!-- Node5&#45;&gt;Node7 -->
<g id="edge12" class="edge"><title>Node5&#45;&gt;Node7</title>
<path fill="none" stroke="midnightblue" d="M778.358,-282.83C786.985,-273.208 797.277,-261.728 804.59,-253.571"/>
<polygon fill="midnightblue" stroke="midnightblue" points="775.675,-280.58 771.605,-290.362 780.887,-285.253 775.675,-280.58"/>
</g>
<!-- Node8 -->
<g id="node15" class="node"><title>Node8</title>
<a xlink:href="../../d5/dfa/InducedVoltage_8cpp.html" target="_top" xlink:title="InducedVoltage.cpp">
<polygon fill="white" stroke="black" points="234.568,-116.5 234.568,-137.5 337.568,-137.5 337.568,-116.5 234.568,-116.5"/>
<text text-anchor="middle" x="286.068" y="-124.5" font-family="Helvetica,sans-Serif" font-size="10.00">InducedVoltage.cpp</text>
</a>
</g>
<!-- Node5&#45;&gt;Node8 -->
<g id="edge14" class="edge"><title>Node5&#45;&gt;Node8</title>
<path fill="none" stroke="midnightblue" d="M723.741,-297.082C625.475,-286.293 367.992,-253.099 307.068,-196 290.622,-180.587 286.921,-152.736 286.173,-137.558"/>
<polygon fill="midnightblue" stroke="midnightblue" points="723.513,-300.578 733.831,-298.172 724.265,-293.618 723.513,-300.578"/>
</g>
<!-- Node9 -->
<g id="node17" class="node"><title>Node9</title>
<a xlink:href="../../d3/db7/LHCNoiseFB_8cpp.html" target="_top" xlink:title="LHCNoiseFB.cpp">
<polygon fill="white" stroke="black" points="961.068,-232.5 961.068,-253.5 1055.07,-253.5 1055.07,-232.5 961.068,-232.5"/>
<text text-anchor="middle" x="1008.07" y="-240.5" font-family="Helvetica,sans-Serif" font-size="10.00">LHCNoiseFB.cpp</text>
</a>
</g>
<!-- Node5&#45;&gt;Node9 -->
<g id="edge16" class="edge"><title>Node5&#45;&gt;Node9</title>
<path fill="none" stroke="midnightblue" d="M800.021,-292.052C843.999,-281.683 916.393,-264.614 963.14,-253.593"/>
<polygon fill="midnightblue" stroke="midnightblue" points="799.217,-288.645 790.287,-294.347 800.823,-295.458 799.217,-288.645"/>
</g>
<!-- Node5&#45;&gt;Node10 -->
<g id="edge20" class="edge"><title>Node5&#45;&gt;Node10</title>
<path fill="none" stroke="midnightblue" d="M724.08,-288.957C694.326,-278.497 654.071,-263.498 629.004,-253.514"/>
<polygon fill="midnightblue" stroke="midnightblue" points="723.135,-292.334 733.73,-292.317 725.437,-285.724 723.135,-292.334"/>
</g>
<!-- Node27 -->
<g id="node66" class="node"><title>Node27</title>
<a xlink:href="../../d3/d33/PhaseLoop_8h.html" target="_top" xlink:title="PhaseLoop.h">
<polygon fill="white" stroke="black" points="859.068,-174.5 859.068,-195.5 933.068,-195.5 933.068,-174.5 859.068,-174.5"/>
<text text-anchor="middle" x="896.068" y="-182.5" font-family="Helvetica,sans-Serif" font-size="10.00">PhaseLoop.h</text>
</a>
</g>
<!-- Node5&#45;&gt;Node27 -->
<g id="edge78" class="edge"><title>Node5&#45;&gt;Node27</title>
<path fill="none" stroke="midnightblue" d="M759.85,-280.064C759.414,-265.126 761.322,-245.391 772.068,-232 783.27,-218.039 826.614,-203.697 858.92,-194.588"/>
<polygon fill="midnightblue" stroke="midnightblue" points="756.379,-280.62 760.531,-290.367 763.363,-280.157 756.379,-280.62"/>
</g>
<!-- Node29 -->
<g id="node72" class="node"><title>Node29</title>
<a xlink:href="../../d9/dc8/PhaseNoise_8h.html" target="_top" xlink:title="PhaseNoise.h">
<polygon fill="white" stroke="black" points="865.068,-232.5 865.068,-253.5 943.068,-253.5 943.068,-232.5 865.068,-232.5"/>
<text text-anchor="middle" x="904.068" y="-240.5" font-family="Helvetica,sans-Serif" font-size="10.00">PhaseNoise.h</text>
</a>
</g>
<!-- Node5&#45;&gt;Node29 -->
<g id="edge86" class="edge"><title>Node5&#45;&gt;Node29</title>
<path fill="none" stroke="midnightblue" d="M797.285,-286.615C822.322,-276.389 855.397,-262.88 878.064,-253.621"/>
<polygon fill="midnightblue" stroke="midnightblue" points="795.717,-283.475 787.783,-290.497 798.364,-289.955 795.717,-283.475"/>
</g>
<!-- Node10&#45;&gt;Node1 -->
<g id="edge24" class="edge"><title>Node10&#45;&gt;Node1</title>
<path fill="none" stroke="midnightblue" d="M622.103,-261.867C638.751,-286.45 662.762,-328.613 670.998,-348.295"/>
<polygon fill="midnightblue" stroke="midnightblue" points="624.96,-259.846 616.345,-253.679 619.234,-263.872 624.96,-259.846"/>
</g>
<!-- Node10&#45;&gt;Node5 -->
<g id="edge58" class="edge"><title>Node10&#45;&gt;Node5</title>
<path fill="none" stroke="midnightblue" d="M649.25,-256.877C678.367,-267.204 715.523,-281.082 739.157,-290.497"/>
<polygon fill="midnightblue" stroke="midnightblue" points="650.309,-253.54 639.715,-253.523 647.986,-260.143 650.309,-253.54"/>
</g>
<!-- Node11 -->
<g id="node22" class="node"><title>Node11</title>
<a xlink:href="../../dc/d61/RfParameters_8cpp.html" target="_top" xlink:title="RfParameters.cpp">
<polygon fill="white" stroke="black" points="464.068,-174.5 464.068,-195.5 560.068,-195.5 560.068,-174.5 464.068,-174.5"/>
<text text-anchor="middle" x="512.068" y="-182.5" font-family="Helvetica,sans-Serif" font-size="10.00">RfParameters.cpp</text>
</a>
</g>
<!-- Node10&#45;&gt;Node11 -->
<g id="edge22" class="edge"><title>Node10&#45;&gt;Node11</title>
<path fill="none" stroke="midnightblue" d="M580.3,-227.101C564.036,-217.066 543.478,-204.381 529.199,-195.571"/>
<polygon fill="midnightblue" stroke="midnightblue" points="578.478,-230.089 588.827,-232.362 582.154,-224.132 578.478,-230.089"/>
</g>
<!-- Node12 -->
<g id="node25" class="node"><title>Node12</title>
<a xlink:href="../../dc/df2/Slices_8h.html" target="_top" xlink:title="Slices.h">
<polygon fill="white" stroke="black" points="652.068,-174.5 652.068,-195.5 704.068,-195.5 704.068,-174.5 652.068,-174.5"/>
<text text-anchor="middle" x="678.068" y="-182.5" font-family="Helvetica,sans-Serif" font-size="10.00">Slices.h</text>
</a>
</g>
<!-- Node10&#45;&gt;Node12 -->
<g id="edge26" class="edge"><title>Node10&#45;&gt;Node12</title>
<path fill="none" stroke="midnightblue" d="M627.202,-225.975C639.422,-216.132 654.414,-204.055 664.945,-195.571"/>
<polygon fill="midnightblue" stroke="midnightblue" points="624.865,-223.363 619.273,-232.362 629.257,-228.814 624.865,-223.363"/>
</g>
<!-- Node10&#45;&gt;Node13 -->
<g id="edge60" class="edge"><title>Node10&#45;&gt;Node13</title>
<path fill="none" stroke="midnightblue" d="M645.596,-228.946C671.185,-219.763 705.183,-207.401 735.068,-196 787.636,-175.946 848.666,-151.276 882.37,-137.53"/>
<polygon fill="midnightblue" stroke="midnightblue" points="644.114,-225.759 635.879,-232.426 646.474,-232.35 644.114,-225.759"/>
</g>
<!-- Node10&#45;&gt;Node17 -->
<g id="edge62" class="edge"><title>Node10&#45;&gt;Node17</title>
<path fill="none" stroke="midnightblue" d="M658.348,-229.04C677.52,-221.778 698.154,-211.155 713.068,-196 729.291,-179.515 736.974,-152.595 740.15,-137.722"/>
<polygon fill="midnightblue" stroke="midnightblue" points="657.04,-225.79 648.791,-232.439 659.385,-232.386 657.04,-225.79"/>
</g>
<!-- Node20 -->
<g id="node44" class="node"><title>Node20</title>
<a xlink:href="../../d2/d51/plot__slices_8h.html" target="_top" xlink:title="plot_slices.h">
<polygon fill="white" stroke="black" points="502.568,-116.5 502.568,-137.5 573.568,-137.5 573.568,-116.5 502.568,-116.5"/>
<text text-anchor="middle" x="538.068" y="-124.5" font-family="Helvetica,sans-Serif" font-size="10.00">plot_slices.h</text>
</a>
</g>
<!-- Node10&#45;&gt;Node20 -->
<g id="edge68" class="edge"><title>Node10&#45;&gt;Node20</title>
<path fill="none" stroke="midnightblue" d="M552.935,-233.358C514.364,-225.151 466.945,-212.137 455.068,-196 436.739,-171.099 476.517,-149.633 507.113,-137.518"/>
<polygon fill="midnightblue" stroke="midnightblue" points="552.531,-236.848 563.032,-235.442 553.946,-229.993 552.531,-236.848"/>
</g>
<!-- Node24 -->
<g id="node56" class="node"><title>Node24</title>
<a xlink:href="../../d3/dda/plot__llrf_8h.html" target="_top" xlink:title="plot_llrf.h">
<polygon fill="white" stroke="black" points="578.068,-174.5 578.068,-195.5 634.068,-195.5 634.068,-174.5 578.068,-174.5"/>
<text text-anchor="middle" x="606.068" y="-182.5" font-family="Helvetica,sans-Serif" font-size="10.00">plot_llrf.h</text>
</a>
</g>
<!-- Node10&#45;&gt;Node24 -->
<g id="edge64" class="edge"><title>Node10&#45;&gt;Node24</title>
<path fill="none" stroke="midnightblue" d="M606.068,-222.191C606.068,-213.168 606.068,-202.994 606.068,-195.571"/>
<polygon fill="midnightblue" stroke="midnightblue" points="602.568,-222.362 606.068,-232.362 609.568,-222.362 602.568,-222.362"/>
</g>
<!-- Node25 -->
<g id="node60" class="node"><title>Node25</title>
<a xlink:href="../../de/d44/trackers_2utilities_8h.html" target="_top" xlink:title="utilities.h">
<polygon fill="white" stroke="black" points="125.068,-174.5 125.068,-195.5 181.068,-195.5 181.068,-174.5 125.068,-174.5"/>
<text text-anchor="middle" x="153.068" y="-182.5" font-family="Helvetica,sans-Serif" font-size="10.00">utilities.h</text>
</a>
</g>
<!-- Node10&#45;&gt;Node25 -->
<g id="edge70" class="edge"><title>Node10&#45;&gt;Node25</title>
<path fill="none" stroke="midnightblue" d="M552.913,-236.194C456.344,-223.83 255.244,-198.082 181.212,-188.604"/>
<polygon fill="midnightblue" stroke="midnightblue" points="552.678,-239.693 563.042,-237.491 553.568,-232.749 552.678,-239.693"/>
</g>
<!-- Node12&#45;&gt;Node5 -->
<g id="edge30" class="edge"><title>Node12&#45;&gt;Node5</title>
<path fill="none" stroke="midnightblue" d="M691.73,-203.867C709.532,-228.45 740.064,-270.613 754.316,-290.295"/>
<polygon fill="midnightblue" stroke="midnightblue" points="694.501,-201.726 685.801,-195.679 688.831,-205.831 694.501,-201.726"/>
</g>
<!-- Node12&#45;&gt;Node6 -->
<g id="edge28" class="edge"><title>Node12&#45;&gt;Node6</title>
<path fill="none" stroke="midnightblue" d="M713.564,-171.275C740.243,-160.959 776.254,-147.035 800.719,-137.575"/>
<polygon fill="midnightblue" stroke="midnightblue" points="712.26,-168.026 704.196,-174.897 714.785,-174.555 712.26,-168.026"/>
</g>
<!-- Node12&#45;&gt;Node13 -->
<g id="edge32" class="edge"><title>Node12&#45;&gt;Node13</title>
<path fill="none" stroke="midnightblue" d="M714.388,-176.311C752.679,-167.081 814.725,-151.93 868.068,-138 870.855,-137.272 873.748,-136.503 876.645,-135.724"/>
<polygon fill="midnightblue" stroke="midnightblue" points="713.149,-173.009 704.245,-178.751 714.787,-179.815 713.149,-173.009"/>
</g>
<!-- Node12&#45;&gt;Node17 -->
<g id="edge40" class="edge"><title>Node12&#45;&gt;Node17</title>
<path fill="none" stroke="midnightblue" d="M697.483,-167.405C708.227,-157.668 721.222,-145.891 730.403,-137.571"/>
<polygon fill="midnightblue" stroke="midnightblue" points="694.866,-165.053 689.806,-174.362 699.566,-170.24 694.866,-165.053"/>
</g>
<!-- Node18 -->
<g id="node40" class="node"><title>Node18</title>
<a xlink:href="../../da/d77/plot__impedance_8h.html" target="_top" xlink:title="plot_impedance.h">
<polygon fill="white" stroke="black" points="392.568,-116.5 392.568,-137.5 485.568,-137.5 485.568,-116.5 392.568,-116.5"/>
<text text-anchor="middle" x="439.068" y="-124.5" font-family="Helvetica,sans-Serif" font-size="10.00">plot_impedance.h</text>
</a>
</g>
<!-- Node12&#45;&gt;Node18 -->
<g id="edge44" class="edge"><title>Node12&#45;&gt;Node18</title>
<path fill="none" stroke="midnightblue" d="M641.926,-173.822C583.086,-158.007 525.24,-145.096 485.913,-136.704"/>
<polygon fill="midnightblue" stroke="midnightblue" points="641.192,-177.249 651.759,-176.49 643.025,-170.493 641.192,-177.249"/>
</g>
<!-- Node12&#45;&gt;Node20 -->
<g id="edge48" class="edge"><title>Node12&#45;&gt;Node20</title>
<path fill="none" stroke="midnightblue" d="M643.346,-170.615C618.662,-160.389 586.053,-146.88 563.705,-137.621"/>
<polygon fill="midnightblue" stroke="midnightblue" points="642.136,-173.903 652.715,-174.497 644.816,-167.436 642.136,-173.903"/>
</g>
<!-- Node22 -->
<g id="node48" class="node"><title>Node22</title>
<a xlink:href="../../d2/d0e/Tracker_8h.html" target="_top" xlink:title="Tracker.h">
<polygon fill="white" stroke="black" points="591.068,-116.5 591.068,-137.5 649.068,-137.5 649.068,-116.5 591.068,-116.5"/>
<text text-anchor="middle" x="620.068" y="-124.5" font-family="Helvetica,sans-Serif" font-size="10.00">Tracker.h</text>
</a>
</g>
<!-- Node12&#45;&gt;Node22 -->
<g id="edge52" class="edge"><title>Node12&#45;&gt;Node22</title>
<path fill="none" stroke="midnightblue" d="M660.186,-167.118C650.505,-157.438 638.877,-145.81 630.638,-137.571"/>
<polygon fill="midnightblue" stroke="midnightblue" points="657.883,-169.766 667.429,-174.362 662.833,-164.816 657.883,-169.766"/>
</g>
<!-- Node14 -->
<g id="node31" class="node"><title>Node14</title>
<a xlink:href="../../da/dda/Monitors_8cpp.html" target="_top" xlink:title="Monitors.cpp">
<polygon fill="white" stroke="black" points="871.568,-58.5 871.568,-79.5 944.568,-79.5 944.568,-58.5 871.568,-58.5"/>
<text text-anchor="middle" x="908.068" y="-66.5" font-family="Helvetica,sans-Serif" font-size="10.00">Monitors.cpp</text>
</a>
</g>
<!-- Node13&#45;&gt;Node14 -->
<g id="edge34" class="edge"><title>Node13&#45;&gt;Node14</title>
<path fill="none" stroke="midnightblue" d="M908.068,-106.191C908.068,-97.1684 908.068,-86.9941 908.068,-79.5707"/>
<polygon fill="midnightblue" stroke="midnightblue" points="904.568,-106.362 908.068,-116.362 911.568,-106.362 904.568,-106.362"/>
</g>
<!-- Node15 -->
<g id="node33" class="node"><title>Node15</title>
<a xlink:href="../../d3/d2c/plot__beams_8cpp.html" target="_top" xlink:title="plot_beams.cpp">
<polygon fill="white" stroke="black" points="768.068,-58.5 768.068,-79.5 854.068,-79.5 854.068,-58.5 768.068,-58.5"/>
<text text-anchor="middle" x="811.068" y="-66.5" font-family="Helvetica,sans-Serif" font-size="10.00">plot_beams.cpp</text>
</a>
</g>
<!-- Node13&#45;&gt;Node15 -->
<g id="edge36" class="edge"><title>Node13&#45;&gt;Node15</title>
<path fill="none" stroke="midnightblue" d="M881.478,-111.101C864.695,-101.066 843.48,-88.3808 828.746,-79.5707"/>
<polygon fill="midnightblue" stroke="midnightblue" points="879.897,-114.234 890.276,-116.362 883.49,-108.226 879.897,-114.234"/>
</g>
<!-- Node16 -->
<g id="node35" class="node"><title>Node16</title>
<a xlink:href="../../d3/dca/plot__llrf_8cpp.html" target="_top" xlink:title="plot_llrf.cpp">
<polygon fill="white" stroke="black" points="683.568,-58.5 683.568,-79.5 750.568,-79.5 750.568,-58.5 683.568,-58.5"/>
<text text-anchor="middle" x="717.068" y="-66.5" font-family="Helvetica,sans-Serif" font-size="10.00">plot_llrf.cpp</text>
</a>
</g>
<!-- Node13&#45;&gt;Node16 -->
<g id="edge38" class="edge"><title>Node13&#45;&gt;Node16</title>
<path fill="none" stroke="midnightblue" d="M867.127,-114.568C832.408,-104.025 783.211,-89.0856 750.741,-79.2253"/>
<polygon fill="midnightblue" stroke="midnightblue" points="866.369,-117.996 876.955,-117.552 868.403,-111.298 866.369,-117.996"/>
</g>
<!-- Node17&#45;&gt;Node15 -->
<g id="edge42" class="edge"><title>Node17&#45;&gt;Node15</title>
<path fill="none" stroke="midnightblue" d="M762.66,-109.691C774.308,-99.8996 788.496,-87.973 798.492,-79.5707"/>
<polygon fill="midnightblue" stroke="midnightblue" points="760.126,-107.248 754.723,-116.362 764.63,-112.607 760.126,-107.248"/>
</g>
<!-- Node19 -->
<g id="node42" class="node"><title>Node19</title>
<a xlink:href="../../d8/d29/plot__impedance_8cpp.html" target="_top" xlink:title="plot_impedance.cpp">
<polygon fill="white" stroke="black" points="375.068,-58.5 375.068,-79.5 479.068,-79.5 479.068,-58.5 375.068,-58.5"/>
<text text-anchor="middle" x="427.068" y="-66.5" font-family="Helvetica,sans-Serif" font-size="10.00">plot_impedance.cpp</text>
</a>
</g>
<!-- Node18&#45;&gt;Node19 -->
<g id="edge46" class="edge"><title>Node18&#45;&gt;Node19</title>
<path fill="none" stroke="midnightblue" d="M434.824,-106.488C432.942,-97.3924 430.807,-87.0756 429.255,-79.5707"/>
<polygon fill="midnightblue" stroke="midnightblue" points="431.413,-107.278 436.867,-116.362 438.268,-105.86 431.413,-107.278"/>
</g>
<!-- Node21 -->
<g id="node46" class="node"><title>Node21</title>
<a xlink:href="../../d4/dfd/plot__slices_8cpp.html" target="_top" xlink:title="plot_slices.cpp">
<polygon fill="white" stroke="black" points="497.068,-58.5 497.068,-79.5 579.068,-79.5 579.068,-58.5 497.068,-58.5"/>
<text text-anchor="middle" x="538.068" y="-66.5" font-family="Helvetica,sans-Serif" font-size="10.00">plot_slices.cpp</text>
</a>
</g>
<!-- Node20&#45;&gt;Node21 -->
<g id="edge50" class="edge"><title>Node20&#45;&gt;Node21</title>
<path fill="none" stroke="midnightblue" d="M538.068,-106.191C538.068,-97.1684 538.068,-86.9941 538.068,-79.5707"/>
<polygon fill="midnightblue" stroke="midnightblue" points="534.568,-106.362 538.068,-116.362 541.568,-106.362 534.568,-106.362"/>
</g>
<!-- Node22&#45;&gt;Node3 -->
<g id="edge56" class="edge"><title>Node22&#45;&gt;Node3</title>
<path fill="none" stroke="midnightblue" d="M580.904,-115.965C472.279,-93.0631 354.618,-79.2362 294.274,-72.9341"/>
<polygon fill="midnightblue" stroke="midnightblue" points="580.201,-119.394 590.712,-118.064 581.666,-112.549 580.201,-119.394"/>
</g>
<!-- Node23 -->
<g id="node50" class="node"><title>Node23</title>
<a xlink:href="../../d2/d6f/Tracker_8cpp.html" target="_top" xlink:title="Tracker.cpp">
<polygon fill="white" stroke="black" points="597.068,-58.5 597.068,-79.5 665.068,-79.5 665.068,-58.5 597.068,-58.5"/>
<text text-anchor="middle" x="631.068" y="-66.5" font-family="Helvetica,sans-Serif" font-size="10.00">Tracker.cpp</text>
</a>
</g>
<!-- Node22&#45;&gt;Node23 -->
<g id="edge54" class="edge"><title>Node22&#45;&gt;Node23</title>
<path fill="none" stroke="midnightblue" d="M623.958,-106.488C625.683,-97.3924 627.639,-87.0756 629.063,-79.5707"/>
<polygon fill="midnightblue" stroke="midnightblue" points="620.51,-105.885 622.085,-116.362 627.387,-107.189 620.51,-105.885"/>
</g>
<!-- Node24&#45;&gt;Node16 -->
<g id="edge66" class="edge"><title>Node24&#45;&gt;Node16</title>
<path fill="none" stroke="midnightblue" d="M626.583,-167.545C636.387,-158.934 648.124,-148.221 658.068,-138 677.191,-118.343 697.575,-93.5309 708.672,-79.6525"/>
<polygon fill="midnightblue" stroke="midnightblue" points="624.141,-165.03 618.884,-174.228 628.73,-170.316 624.141,-165.03"/>
</g>
<!-- Node25&#45;&gt;Node2 -->
<g id="edge72" class="edge"><title>Node25&#45;&gt;Node2</title>
<path fill="none" stroke="midnightblue" d="M127.684,-168.821C112.01,-158.831 92.3474,-146.299 78.6525,-137.571"/>
<polygon fill="midnightblue" stroke="midnightblue" points="126.063,-171.939 136.377,-174.362 129.825,-166.036 126.063,-171.939"/>
</g>
<!-- Node25&#45;&gt;Node4 -->
<g id="edge74" class="edge"><title>Node25&#45;&gt;Node4</title>
<path fill="none" stroke="midnightblue" d="M145.829,-164.289C141.988,-150.535 138.693,-132.114 142.068,-116 149.737,-79.3792 170.95,-39.918 181.678,-21.5381"/>
<polygon fill="midnightblue" stroke="midnightblue" points="142.596,-165.677 148.91,-174.184 149.279,-163.596 142.596,-165.677"/>
</g>
<!-- Node26 -->
<g id="node64" class="node"><title>Node26</title>
<a xlink:href="../../de/da5/utilities_8cpp.html" target="_top" xlink:title="utilities.cpp">
<polygon fill="white" stroke="black" points="151.068,-116.5 151.068,-137.5 217.068,-137.5 217.068,-116.5 151.068,-116.5"/>
<text text-anchor="middle" x="184.068" y="-124.5" font-family="Helvetica,sans-Serif" font-size="10.00">utilities.cpp</text>
</a>
</g>
<!-- Node25&#45;&gt;Node26 -->
<g id="edge76" class="edge"><title>Node25&#45;&gt;Node26</title>
<path fill="none" stroke="midnightblue" d="M163.558,-165.373C168.531,-156.068 174.276,-145.32 178.418,-137.571"/>
<polygon fill="midnightblue" stroke="midnightblue" points="160.38,-163.893 158.753,-174.362 166.554,-167.192 160.38,-163.893"/>
</g>
<!-- Node27&#45;&gt;Node13 -->
<g id="edge82" class="edge"><title>Node27&#45;&gt;Node13</title>
<path fill="none" stroke="midnightblue" d="M900.312,-164.488C902.193,-155.392 904.328,-145.076 905.881,-137.571"/>
<polygon fill="midnightblue" stroke="midnightblue" points="896.867,-163.86 898.269,-174.362 903.722,-165.278 896.867,-163.86"/>
</g>
<!-- Node27&#45;&gt;Node22 -->
<g id="edge84" class="edge"><title>Node27&#45;&gt;Node22</title>
<path fill="none" stroke="midnightblue" d="M848.95,-175.099C791.656,-163.058 696.727,-143.11 649.144,-133.11"/>
<polygon fill="midnightblue" stroke="midnightblue" points="848.339,-178.546 858.845,-177.178 849.779,-171.696 848.339,-178.546"/>
</g>
<!-- Node28 -->
<g id="node68" class="node"><title>Node28</title>
<a xlink:href="../../db/dee/PhaseLoop_8cpp.html" target="_top" xlink:title="PhaseLoop.cpp">
<polygon fill="white" stroke="black" points="957.068,-116.5 957.068,-137.5 1041.07,-137.5 1041.07,-116.5 957.068,-116.5"/>
<text text-anchor="middle" x="999.068" y="-124.5" font-family="Helvetica,sans-Serif" font-size="10.00">PhaseLoop.cpp</text>
</a>
</g>
<!-- Node27&#45;&gt;Node28 -->
<g id="edge80" class="edge"><title>Node27&#45;&gt;Node28</title>
<path fill="none" stroke="midnightblue" d="M923.808,-169.379C941.705,-159.301 964.505,-146.462 980.296,-137.571"/>
<polygon fill="midnightblue" stroke="midnightblue" points="921.956,-166.405 914.959,-174.362 925.39,-172.505 921.956,-166.405"/>
</g>
<!-- Node29&#45;&gt;Node27 -->
<g id="edge90" class="edge"><title>Node29&#45;&gt;Node27</title>
<path fill="none" stroke="midnightblue" d="M901.197,-222.191C899.953,-213.168 898.549,-202.994 897.526,-195.571"/>
<polygon fill="midnightblue" stroke="midnightblue" points="897.767,-222.934 902.6,-232.362 904.701,-221.977 897.767,-222.934"/>
</g>
<!-- Node30 -->
<g id="node74" class="node"><title>Node30</title>
<a xlink:href="../../db/d82/PhaseNoise_8cpp.html" target="_top" xlink:title="PhaseNoise.cpp">
<polygon fill="white" stroke="black" points="950.568,-174.5 950.568,-195.5 1039.57,-195.5 1039.57,-174.5 950.568,-174.5"/>
<text text-anchor="middle" x="995.068" y="-182.5" font-family="Helvetica,sans-Serif" font-size="10.00">PhaseNoise.cpp</text>
</a>
</g>
<!-- Node29&#45;&gt;Node30 -->
<g id="edge88" class="edge"><title>Node29&#45;&gt;Node30</title>
<path fill="none" stroke="midnightblue" d="M929.451,-226.821C945.125,-216.831 964.788,-204.299 978.483,-195.571"/>
<polygon fill="midnightblue" stroke="midnightblue" points="927.31,-224.036 920.758,-232.362 931.072,-229.939 927.31,-224.036"/>
</g>
<!-- Node31&#45;&gt;Node3 -->
<g id="edge96" class="edge"><title>Node31&#45;&gt;Node3</title>
<path fill="none" stroke="midnightblue" d="M361.766,-164.275C360.556,-149.442 356.806,-129.745 346.068,-116 332.376,-98.4736 310.363,-86.8988 291.303,-79.622"/>
<polygon fill="midnightblue" stroke="midnightblue" points="358.281,-164.675 362.27,-174.491 365.273,-164.33 358.281,-164.675"/>
</g>
<!-- Node31&#45;&gt;Node8 -->
<g id="edge94" class="edge"><title>Node31&#45;&gt;Node8</title>
<path fill="none" stroke="midnightblue" d="M340.131,-168.259C327.165,-158.364 311.142,-146.136 299.919,-137.571"/>
<polygon fill="midnightblue" stroke="midnightblue" points="338.055,-171.077 348.128,-174.362 342.302,-165.513 338.055,-171.077"/>
</g>
<!-- Node31&#45;&gt;Node18 -->
<g id="edge98" class="edge"><title>Node31&#45;&gt;Node18</title>
<path fill="none" stroke="midnightblue" d="M384.293,-168.259C397.429,-158.364 413.663,-146.136 425.034,-137.571"/>
<polygon fill="midnightblue" stroke="midnightblue" points="382.072,-165.55 376.191,-174.362 386.284,-171.141 382.072,-165.55"/>
</g>
<!-- Node31&#45;&gt;Node22 -->
<g id="edge100" class="edge"><title>Node31&#45;&gt;Node22</title>
<path fill="none" stroke="midnightblue" d="M418.277,-174.141C462.881,-165.248 526.719,-151.904 582.068,-138 584.865,-137.297 587.768,-136.529 590.665,-135.736"/>
<polygon fill="midnightblue" stroke="midnightblue" points="417.344,-170.758 408.216,-176.137 418.706,-177.624 417.344,-170.758"/>
</g>
<!-- Node33 -->
<g id="node85" class="node"><title>Node33</title>
<a xlink:href="../../d6/df4/Music_8cpp.html" target="_top" xlink:title="Music.cpp">
<polygon fill="white" stroke="black" points="1149.07,-232.5 1149.07,-253.5 1211.07,-253.5 1211.07,-232.5 1149.07,-232.5"/>
<text text-anchor="middle" x="1180.07" y="-240.5" font-family="Helvetica,sans-Serif" font-size="10.00">Music.cpp</text>
</a>
</g>
<!-- Node32&#45;&gt;Node33 -->
<g id="edge104" class="edge"><title>Node32&#45;&gt;Node33</title>
<path fill="none" stroke="midnightblue" d="M1178.14,-280.191C1178.61,-271.168 1179.14,-260.994 1179.52,-253.571"/>
<polygon fill="midnightblue" stroke="midnightblue" points="1174.64,-280.194 1177.62,-290.362 1181.63,-280.556 1174.64,-280.194"/>
</g>
</g>
</svg>
