<?xml version="1.0" encoding="UTF-8" standalone="no"?>
<!DOCTYPE svg PUBLIC "-//W3C//DTD SVG 1.1//EN"
 "http://www.w3.org/Graphics/SVG/1.1/DTD/svg11.dtd">
<!-- Generated by graphviz version 2.26.3 (20100126.1600)
 -->
<!-- Title: Beams.h Pages: 1 -->
<!--zoomable 378 -->
<svg id="main" version="1.1" xmlns="http://www.w3.org/2000/svg" xmlns:xlink="http://www.w3.org/1999/xlink" xml:space="preserve" onload="init(evt)">
        <defs>
                <circle id="rim" cx="0" cy="0" r="7"/>
                <circle id="rim2" cx="0" cy="0" r="3.5"/>
                <g id="zoomPlus">
                        <use xlink:href="#rim" fill="#404040">
                                <set attributeName="fill" to="#808080" begin="zoomplus.mouseover" end="zoomplus.mouseout"/>
                        </use>
                        <path d="M-4,0h8M0,-4v8" fill="none" stroke="white" stroke-width="1.5" pointer-events="none"/>
                </g>
                <g id="zoomMin">
                        <use xlink:href="#rim" fill="#404040">
                                <set attributeName="fill" to="#808080" begin="zoomminus.mouseover" end="zoomminus.mouseout"/>
                        </use>
                        <path d="M-4,0h8" fill="none" stroke="white" stroke-width="1.5" pointer-events="none"/>
                </g>
                <g id="dirArrow">
                        <path fill="none" stroke="white" stroke-width="1.5" d="M0,-3.0v7 M-2.5,-0.5L0,-3.0L2.5,-0.5"/>
                </g>
               <g id="resetDef">
                       <use xlink:href="#rim2" fill="#404040">
                               <set attributeName="fill" to="#808080" begin="reset.mouseover" end="reset.mouseout"/>
                       </use>
               </g>
        </defs>

<script type="text/javascript">
var viewWidth = 1496;
var viewHeight = 378;
var sectionId = 'dynsection-1';
</script>
<script xlink:href="../../svgpan.js"/>
<svg id="graph" class="graph">
<g id="viewport">
<title>Beams.h</title>
<polygon fill="white" stroke="white" points="-4,5 -4,-374 1493,-374 1493,5 -4,5"/>
<!-- Node1 -->
<g id="node1" class="node"><title>Node1</title>
<polygon fill="#bfbfbf" stroke="black" points="905,-348.5 905,-369.5 961,-369.5 961,-348.5 905,-348.5"/>
<text text-anchor="middle" x="933" y="-356.5" font-family="Helvetica,sans-Serif" font-size="10.00">Beams.h</text>
</g>
<!-- Node2 -->
<g id="node3" class="node"><title>Node2</title>
<a xlink:href="../../dc/d0f/Beams_8cpp.html" target="_top" xlink:title="Beams.cpp">
<polygon fill="white" stroke="black" points="1202,-116.5 1202,-137.5 1268,-137.5 1268,-116.5 1202,-116.5"/>
<text text-anchor="middle" x="1235" y="-124.5" font-family="Helvetica,sans-Serif" font-size="10.00">Beams.cpp</text>
</a>
</g>
<!-- Node1&#45;&gt;Node2 -->
<g id="edge2" class="edge"><title>Node1&#45;&gt;Node2</title>
<path fill="none" stroke="midnightblue" d="M961.673,-343.616C1009.48,-317.191 1107.21,-259.823 1178,-196 1198.31,-177.688 1217.64,-151.942 1227.73,-137.639"/>
<polygon fill="midnightblue" stroke="midnightblue" points="959.885,-340.604 952.799,-348.481 963.251,-346.742 959.885,-340.604"/>
</g>
<!-- Node3 -->
<g id="node5" class="node"><title>Node3</title>
<a xlink:href="../../dc/d7d/Distributions_8h.html" target="_top" xlink:title="Distributions.h">
<polygon fill="white" stroke="black" points="146,-58.5 146,-79.5 226,-79.5 226,-58.5 146,-58.5"/>
<text text-anchor="middle" x="186" y="-66.5" font-family="Helvetica,sans-Serif" font-size="10.00">Distributions.h</text>
</a>
</g>
<!-- Node1&#45;&gt;Node3 -->
<g id="edge4" class="edge"><title>Node1&#45;&gt;Node3</title>
<path fill="none" stroke="midnightblue" d="M894.763,-358.338C719.331,-354.805 0,-334.726 0,-243 0,-243 0,-243 0,-185 0,-116.878 90.9367,-87.3073 145.641,-75.6815"/>
<polygon fill="midnightblue" stroke="midnightblue" points="894.757,-361.838 904.823,-358.534 894.893,-354.84 894.757,-361.838"/>
</g>
<!-- Node5 -->
<g id="node9" class="node"><title>Node5</title>
<a xlink:href="../../d5/dde/blond_8h.html" target="_top" xlink:title="blond.h">
<polygon fill="white" stroke="black" points="647,-0.5 647,-21.5 695,-21.5 695,-0.5 647,-0.5"/>
<text text-anchor="middle" x="671" y="-8.5" font-family="Helvetica,sans-Serif" font-size="10.00">blond.h</text>
</a>
</g>
<!-- Node1&#45;&gt;Node5 -->
<g id="edge10" class="edge"><title>Node1&#45;&gt;Node5</title>
<path fill="none" stroke="midnightblue" d="M971.289,-358.026C1069.1,-355.087 1325.92,-344.42 1404,-312 1448.62,-293.472 1488,-291.314 1488,-243 1488,-243 1488,-243 1488,-127 1488,-51.5936 1406.16,-76.2794 1333,-58 1208.5,-26.8923 799.457,-14.3354 695.301,-11.5983"/>
<polygon fill="midnightblue" stroke="midnightblue" points="971.141,-354.528 961.247,-358.317 971.344,-361.525 971.141,-354.528"/>
</g>
<!-- Node6 -->
<g id="node12" class="node"><title>Node6</title>
<a xlink:href="../../d5/d87/globals_8h.html" target="_top" xlink:title="globals.h">
<polygon fill="white" stroke="black" points="660,-290.5 660,-311.5 716,-311.5 716,-290.5 660,-290.5"/>
<text text-anchor="middle" x="688" y="-298.5" font-family="Helvetica,sans-Serif" font-size="10.00">globals.h</text>
</a>
</g>
<!-- Node1&#45;&gt;Node6 -->
<g id="edge12" class="edge"><title>Node1&#45;&gt;Node6</title>
<path fill="none" stroke="midnightblue" d="M894.844,-351.105C845.293,-339.99 760.245,-319.854 716.143,-308.794"/>
<polygon fill="midnightblue" stroke="midnightblue" points="894.329,-354.576 904.851,-353.333 895.851,-347.743 894.329,-354.576"/>
</g>
<!-- Node11 -->
<g id="node24" class="node"><title>Node11</title>
<a xlink:href="../../d6/db7/RfParameters_8h.html" target="_top" xlink:title="RfParameters.h">
<polygon fill="white" stroke="black" points="890,-232.5 890,-253.5 976,-253.5 976,-232.5 890,-232.5"/>
<text text-anchor="middle" x="933" y="-240.5" font-family="Helvetica,sans-Serif" font-size="10.00">RfParameters.h</text>
</a>
</g>
<!-- Node1&#45;&gt;Node11 -->
<g id="edge138" class="edge"><title>Node1&#45;&gt;Node11</title>
<path fill="none" stroke="midnightblue" d="M927.672,-338.123C925.432,-313.298 925.839,-272.824 928.891,-253.679"/>
<polygon fill="midnightblue" stroke="midnightblue" points="924.225,-338.781 928.887,-348.295 931.176,-337.95 924.225,-338.781"/>
</g>
<!-- Node14 -->
<g id="node34" class="node"><title>Node14</title>
<a xlink:href="../../d0/da6/Monitors_8h.html" target="_top" xlink:title="Monitors.h">
<polygon fill="white" stroke="black" points="962,-116.5 962,-137.5 1024,-137.5 1024,-116.5 962,-116.5"/>
<text text-anchor="middle" x="993" y="-124.5" font-family="Helvetica,sans-Serif" font-size="10.00">Monitors.h</text>
</a>
</g>
<!-- Node1&#45;&gt;Node14 -->
<g id="edge140" class="edge"><title>Node1&#45;&gt;Node14</title>
<path fill="none" stroke="midnightblue" d="M971.422,-356.068C1051.65,-349.555 1231.06,-332.804 1249,-312 1288.7,-265.956 1323.67,-281.366 1178,-174 1153.73,-156.108 1070.46,-139.901 1024.35,-132.026"/>
<polygon fill="midnightblue" stroke="midnightblue" points="970.928,-352.596 961.239,-356.883 971.487,-359.574 970.928,-352.596"/>
</g>
<!-- Node18 -->
<g id="node43" class="node"><title>Node18</title>
<a xlink:href="../../d8/d94/plot__beams_8h.html" target="_top" xlink:title="plot_beams.h">
<polygon fill="white" stroke="black" points="831.5,-116.5 831.5,-137.5 906.5,-137.5 906.5,-116.5 831.5,-116.5"/>
<text text-anchor="middle" x="869" y="-124.5" font-family="Helvetica,sans-Serif" font-size="10.00">plot_beams.h</text>
</a>
</g>
<!-- Node1&#45;&gt;Node18 -->
<g id="edge142" class="edge"><title>Node1&#45;&gt;Node18</title>
<path fill="none" stroke="midnightblue" d="M971.337,-356.5C1056.08,-350.583 1253.39,-334.512 1273,-312 1279.42,-304.628 1276.29,-299.208 1273,-290 1250.58,-227.245 1235.9,-206.982 1178,-174 1166.29,-167.328 986.512,-142.687 906.691,-131.999"/>
<polygon fill="midnightblue" stroke="midnightblue" points="970.841,-353.025 961.105,-357.203 971.321,-360.009 970.841,-353.025"/>
</g>
<!-- Node32 -->
<g id="node92" class="node"><title>Node32</title>
<a xlink:href="../../d9/dee/InducedVoltage_8h.html" target="_top" xlink:title="InducedVoltage.h">
<polygon fill="white" stroke="black" points="127,-174.5 127,-195.5 219,-195.5 219,-174.5 127,-174.5"/>
<text text-anchor="middle" x="173" y="-182.5" font-family="Helvetica,sans-Serif" font-size="10.00">InducedVoltage.h</text>
</a>
</g>
<!-- Node1&#45;&gt;Node32 -->
<g id="edge120" class="edge"><title>Node1&#45;&gt;Node32</title>
<path fill="none" stroke="midnightblue" d="M894.9,-357.256C794.4,-351.699 514.883,-330.021 297,-254 254.897,-239.31 210.344,-210.9 187.852,-195.514"/>
<polygon fill="midnightblue" stroke="midnightblue" points="894.714,-360.751 904.886,-357.787 895.086,-353.761 894.714,-360.751"/>
</g>
<!-- Node33 -->
<g id="node99" class="node"><title>Node33</title>
<a xlink:href="../../dc/d9c/Music_8h.html" target="_top" xlink:title="Music.h">
<polygon fill="white" stroke="black" points="1344.5,-290.5 1344.5,-311.5 1395.5,-311.5 1395.5,-290.5 1344.5,-290.5"/>
<text text-anchor="middle" x="1370" y="-298.5" font-family="Helvetica,sans-Serif" font-size="10.00">Music.h</text>
</a>
</g>
<!-- Node1&#45;&gt;Node33 -->
<g id="edge132" class="edge"><title>Node1&#45;&gt;Node33</title>
<path fill="none" stroke="midnightblue" d="M971.389,-355.943C1041.85,-349.99 1196.38,-335.343 1325,-312 1331.33,-310.851 1338.1,-309.346 1344.41,-307.82"/>
<polygon fill="midnightblue" stroke="midnightblue" points="970.893,-352.472 961.218,-356.791 971.474,-359.448 970.893,-352.472"/>
</g>
<!-- Node4 -->
<g id="node7" class="node"><title>Node4</title>
<a xlink:href="../../db/de1/Distributions_8cpp.html" target="_top" xlink:title="Distributions.cpp">
<polygon fill="white" stroke="black" points="330,-0.5 330,-21.5 420,-21.5 420,-0.5 330,-0.5"/>
<text text-anchor="middle" x="375" y="-8.5" font-family="Helvetica,sans-Serif" font-size="10.00">Distributions.cpp</text>
</a>
</g>
<!-- Node3&#45;&gt;Node4 -->
<g id="edge6" class="edge"><title>Node3&#45;&gt;Node4</title>
<path fill="none" stroke="midnightblue" d="M229.84,-55.5464C263.602,-45.1857 309.61,-31.0668 340.709,-21.5231"/>
<polygon fill="midnightblue" stroke="midnightblue" points="228.76,-52.2168 220.226,-58.4966 230.813,-58.9088 228.76,-52.2168"/>
</g>
<!-- Node3&#45;&gt;Node5 -->
<g id="edge8" class="edge"><title>Node3&#45;&gt;Node5</title>
<path fill="none" stroke="midnightblue" d="M236.209,-57.9513C398.58,-31.5866 581.859,-17.2462 646.764,-12.6426"/>
<polygon fill="midnightblue" stroke="midnightblue" points="235.339,-54.5473 226.039,-59.6231 236.474,-61.4546 235.339,-54.5473"/>
</g>
<!-- Node6&#45;&gt;Node1 -->
<g id="edge22" class="edge"><title>Node6&#45;&gt;Node1</title>
<path fill="none" stroke="midnightblue" d="M726.284,-308.924C775.811,-320.035 860.651,-340.122 904.747,-351.178"/>
<polygon fill="midnightblue" stroke="midnightblue" points="726.8,-305.453 716.278,-306.695 725.278,-312.286 726.8,-305.453"/>
</g>
<!-- Node6&#45;&gt;Node5 -->
<g id="edge24" class="edge"><title>Node6&#45;&gt;Node5</title>
<path fill="none" stroke="midnightblue" d="M697.618,-280.987C706.997,-260.275 720.614,-226.71 726,-196 735.348,-142.699 705.77,-131.451 689,-80 682.401,-59.7546 676.544,-35.5662 673.411,-21.8724"/>
<polygon fill="midnightblue" stroke="midnightblue" points="694.326,-279.765 693.286,-290.309 700.674,-282.715 694.326,-279.765"/>
</g>
<!-- Node7 -->
<g id="node14" class="node"><title>Node7</title>
<a xlink:href="../../d7/d91/Slices_8cpp.html" target="_top" xlink:title="Slices.cpp">
<polygon fill="white" stroke="black" points="588,-116.5 588,-137.5 650,-137.5 650,-116.5 588,-116.5"/>
<text text-anchor="middle" x="619" y="-124.5" font-family="Helvetica,sans-Serif" font-size="10.00">Slices.cpp</text>
</a>
</g>
<!-- Node6&#45;&gt;Node7 -->
<g id="edge14" class="edge"><title>Node6&#45;&gt;Node7</title>
<path fill="none" stroke="midnightblue" d="M679.942,-280.679C665.267,-243.674 634.657,-166.483 623.333,-137.928"/>
<polygon fill="midnightblue" stroke="midnightblue" points="676.848,-282.372 683.788,-290.377 683.355,-279.791 676.848,-282.372"/>
</g>
<!-- Node8 -->
<g id="node16" class="node"><title>Node8</title>
<a xlink:href="../../da/d77/globals_8cpp.html" target="_top" xlink:title="globals.cpp">
<polygon fill="white" stroke="black" points="463,-232.5 463,-253.5 529,-253.5 529,-232.5 463,-232.5"/>
<text text-anchor="middle" x="496" y="-240.5" font-family="Helvetica,sans-Serif" font-size="10.00">globals.cpp</text>
</a>
</g>
<!-- Node6&#45;&gt;Node8 -->
<g id="edge16" class="edge"><title>Node6&#45;&gt;Node8</title>
<path fill="none" stroke="midnightblue" d="M649.758,-289.448C614.548,-278.811 562.837,-263.19 529.29,-253.056"/>
<polygon fill="midnightblue" stroke="midnightblue" points="649.085,-292.901 659.67,-292.442 651.109,-286.2 649.085,-292.901"/>
</g>
<!-- Node9 -->
<g id="node18" class="node"><title>Node9</title>
<a xlink:href="../../d5/dfa/InducedVoltage_8cpp.html" target="_top" xlink:title="InducedVoltage.cpp">
<polygon fill="white" stroke="black" points="103.5,-116.5 103.5,-137.5 206.5,-137.5 206.5,-116.5 103.5,-116.5"/>
<text text-anchor="middle" x="155" y="-124.5" font-family="Helvetica,sans-Serif" font-size="10.00">InducedVoltage.cpp</text>
</a>
</g>
<!-- Node6&#45;&gt;Node9 -->
<g id="edge18" class="edge"><title>Node6&#45;&gt;Node9</title>
<path fill="none" stroke="midnightblue" d="M649.564,-298.009C571.937,-291.602 399.154,-275.378 344,-254 285.606,-231.367 280.113,-208.733 228,-174 208.935,-161.293 186.775,-147.106 171.915,-137.677"/>
<polygon fill="midnightblue" stroke="midnightblue" points="649.613,-301.525 659.864,-298.848 650.181,-294.548 649.613,-301.525"/>
</g>
<!-- Node10 -->
<g id="node20" class="node"><title>Node10</title>
<a xlink:href="../../d3/db7/LHCNoiseFB_8cpp.html" target="_top" xlink:title="LHCNoiseFB.cpp">
<polygon fill="white" stroke="black" points="547,-232.5 547,-253.5 641,-253.5 641,-232.5 547,-232.5"/>
<text text-anchor="middle" x="594" y="-240.5" font-family="Helvetica,sans-Serif" font-size="10.00">LHCNoiseFB.cpp</text>
</a>
</g>
<!-- Node6&#45;&gt;Node10 -->
<g id="edge20" class="edge"><title>Node6&#45;&gt;Node10</title>
<path fill="none" stroke="midnightblue" d="M662.233,-285.101C645.969,-275.066 625.41,-262.381 611.132,-253.571"/>
<polygon fill="midnightblue" stroke="midnightblue" points="660.411,-288.089 670.759,-290.362 664.086,-282.132 660.411,-288.089"/>
</g>
<!-- Node6&#45;&gt;Node11 -->
<g id="edge26" class="edge"><title>Node6&#45;&gt;Node11</title>
<path fill="none" stroke="midnightblue" d="M726.076,-290.732C770.443,-279.752 843.36,-262.509 889.802,-252.03"/>
<polygon fill="midnightblue" stroke="midnightblue" points="725.111,-287.365 716.253,-293.178 726.803,-294.158 725.111,-287.365"/>
</g>
<!-- Node28 -->
<g id="node79" class="node"><title>Node28</title>
<a xlink:href="../../d3/d33/PhaseLoop_8h.html" target="_top" xlink:title="PhaseLoop.h">
<polygon fill="white" stroke="black" points="318,-174.5 318,-195.5 392,-195.5 392,-174.5 318,-174.5"/>
<text text-anchor="middle" x="355" y="-182.5" font-family="Helvetica,sans-Serif" font-size="10.00">PhaseLoop.h</text>
</a>
</g>
<!-- Node6&#45;&gt;Node28 -->
<g id="edge102" class="edge"><title>Node6&#45;&gt;Node28</title>
<path fill="none" stroke="midnightblue" d="M649.964,-298.287C567.363,-292.017 377.405,-275.407 358,-254 343.585,-238.098 347.862,-210.699 351.739,-195.656"/>
<polygon fill="midnightblue" stroke="midnightblue" points="649.719,-301.778 659.952,-299.034 650.241,-294.798 649.719,-301.778"/>
</g>
<!-- Node30 -->
<g id="node86" class="node"><title>Node30</title>
<a xlink:href="../../d9/dc8/PhaseNoise_8h.html" target="_top" xlink:title="PhaseNoise.h">
<polygon fill="white" stroke="black" points="367,-232.5 367,-253.5 445,-253.5 445,-232.5 367,-232.5"/>
<text text-anchor="middle" x="406" y="-240.5" font-family="Helvetica,sans-Serif" font-size="10.00">PhaseNoise.h</text>
</a>
</g>
<!-- Node6&#45;&gt;Node30 -->
<g id="edge112" class="edge"><title>Node6&#45;&gt;Node30</title>
<path fill="none" stroke="midnightblue" d="M649.944,-293.685C603.586,-284.698 522.922,-268.816 454,-254 451.075,-253.371 448.052,-252.709 445.013,-252.033"/>
<polygon fill="midnightblue" stroke="midnightblue" points="649.371,-297.139 659.854,-295.602 650.701,-290.266 649.371,-297.139"/>
</g>
<!-- Node11&#45;&gt;Node1 -->
<g id="edge30" class="edge"><title>Node11&#45;&gt;Node1</title>
<path fill="none" stroke="midnightblue" d="M938.325,-263.843C940.567,-288.654 940.163,-329.131 937.113,-348.295"/>
<polygon fill="midnightblue" stroke="midnightblue" points="941.773,-263.193 937.109,-253.679 934.822,-264.024 941.773,-263.193"/>
</g>
<!-- Node11&#45;&gt;Node5 -->
<g id="edge76" class="edge"><title>Node11&#45;&gt;Node5</title>
<path fill="none" stroke="midnightblue" d="M936.648,-222.406C944.494,-176.803 961.447,-70.3462 951,-58 934.444,-38.4331 759.948,-19.6351 695.094,-13.2737"/>
<polygon fill="midnightblue" stroke="midnightblue" points="933.182,-221.905 934.913,-232.358 940.078,-223.107 933.182,-221.905"/>
</g>
<!-- Node11&#45;&gt;Node6 -->
<g id="edge78" class="edge"><title>Node11&#45;&gt;Node6</title>
<path fill="none" stroke="midnightblue" d="M883.655,-256.041C833.305,-268.372 757.094,-286.293 716.149,-295.333"/>
<polygon fill="midnightblue" stroke="midnightblue" points="884.799,-259.365 893.674,-253.577 883.127,-252.567 884.799,-259.365"/>
</g>
<!-- Node12 -->
<g id="node26" class="node"><title>Node12</title>
<a xlink:href="../../dc/d61/RfParameters_8cpp.html" target="_top" xlink:title="RfParameters.cpp">
<polygon fill="white" stroke="black" points="1073,-174.5 1073,-195.5 1169,-195.5 1169,-174.5 1073,-174.5"/>
<text text-anchor="middle" x="1121" y="-182.5" font-family="Helvetica,sans-Serif" font-size="10.00">RfParameters.cpp</text>
</a>
</g>
<!-- Node11&#45;&gt;Node12 -->
<g id="edge28" class="edge"><title>Node11&#45;&gt;Node12</title>
<path fill="none" stroke="midnightblue" d="M976.608,-229.546C1010.19,-219.186 1055.96,-205.067 1086.89,-195.523"/>
<polygon fill="midnightblue" stroke="midnightblue" points="975.569,-226.204 967.045,-232.497 977.633,-232.893 975.569,-226.204"/>
</g>
<!-- Node13 -->
<g id="node29" class="node"><title>Node13</title>
<a xlink:href="../../dc/df2/Slices_8h.html" target="_top" xlink:title="Slices.h">
<polygon fill="white" stroke="black" points="665,-174.5 665,-195.5 717,-195.5 717,-174.5 665,-174.5"/>
<text text-anchor="middle" x="691" y="-182.5" font-family="Helvetica,sans-Serif" font-size="10.00">Slices.h</text>
</a>
</g>
<!-- Node11&#45;&gt;Node13 -->
<g id="edge32" class="edge"><title>Node11&#45;&gt;Node13</title>
<path fill="none" stroke="midnightblue" d="M879.984,-230.294C829.589,-218.215 755.901,-200.555 717.108,-191.257"/>
<polygon fill="midnightblue" stroke="midnightblue" points="879.195,-233.704 889.735,-232.631 880.826,-226.896 879.195,-233.704"/>
</g>
<!-- Node11&#45;&gt;Node14 -->
<g id="edge80" class="edge"><title>Node11&#45;&gt;Node14</title>
<path fill="none" stroke="midnightblue" d="M943.282,-223.121C956.071,-198.396 977.44,-157.082 987.476,-137.679"/>
<polygon fill="midnightblue" stroke="midnightblue" points="940.023,-221.805 938.537,-232.295 946.24,-225.021 940.023,-221.805"/>
</g>
<!-- Node11&#45;&gt;Node18 -->
<g id="edge82" class="edge"><title>Node11&#45;&gt;Node18</title>
<path fill="none" stroke="midnightblue" d="M922.214,-223.45C908.594,-198.764 885.645,-157.168 874.892,-137.679"/>
<polygon fill="midnightblue" stroke="midnightblue" points="919.198,-225.23 927.094,-232.295 925.327,-221.848 919.198,-225.23"/>
</g>
<!-- Node21 -->
<g id="node52" class="node"><title>Node21</title>
<a xlink:href="../../d2/d51/plot__slices_8h.html" target="_top" xlink:title="plot_slices.h">
<polygon fill="white" stroke="black" points="743.5,-116.5 743.5,-137.5 814.5,-137.5 814.5,-116.5 743.5,-116.5"/>
<text text-anchor="middle" x="779" y="-124.5" font-family="Helvetica,sans-Serif" font-size="10.00">plot_slices.h</text>
</a>
</g>
<!-- Node11&#45;&gt;Node21 -->
<g id="edge90" class="edge"><title>Node11&#45;&gt;Node21</title>
<path fill="none" stroke="midnightblue" d="M910.439,-226.006C878.219,-201.736 819.967,-157.858 793.178,-137.679"/>
<polygon fill="midnightblue" stroke="midnightblue" points="908.695,-229.074 918.788,-232.295 912.906,-223.483 908.695,-229.074"/>
</g>
<!-- Node25 -->
<g id="node67" class="node"><title>Node25</title>
<a xlink:href="../../d3/dda/plot__llrf_8h.html" target="_top" xlink:title="plot_llrf.h">
<polygon fill="white" stroke="black" points="1286,-116.5 1286,-137.5 1342,-137.5 1342,-116.5 1286,-116.5"/>
<text text-anchor="middle" x="1314" y="-124.5" font-family="Helvetica,sans-Serif" font-size="10.00">plot_llrf.h</text>
</a>
</g>
<!-- Node11&#45;&gt;Node25 -->
<g id="edge84" class="edge"><title>Node11&#45;&gt;Node25</title>
<path fill="none" stroke="midnightblue" d="M986.453,-237.126C1036.84,-230.572 1113.97,-217.896 1178,-196 1223.09,-180.579 1272.01,-152.731 1297.08,-137.556"/>
<polygon fill="midnightblue" stroke="midnightblue" points="985.913,-233.666 976.431,-238.394 986.792,-240.611 985.913,-233.666"/>
</g>
<!-- Node26 -->
<g id="node72" class="node"><title>Node26</title>
<a xlink:href="../../de/d44/trackers_2utilities_8h.html" target="_top" xlink:title="utilities.h">
<polygon fill="white" stroke="black" points="999,-174.5 999,-195.5 1055,-195.5 1055,-174.5 999,-174.5"/>
<text text-anchor="middle" x="1027" y="-182.5" font-family="Helvetica,sans-Serif" font-size="10.00">utilities.h</text>
</a>
</g>
<!-- Node11&#45;&gt;Node26 -->
<g id="edge92" class="edge"><title>Node11&#45;&gt;Node26</title>
<path fill="none" stroke="midnightblue" d="M958.767,-227.101C975.031,-217.066 995.59,-204.381 1009.87,-195.571"/>
<polygon fill="midnightblue" stroke="midnightblue" points="956.914,-224.132 950.241,-232.362 960.589,-230.089 956.914,-224.132"/>
</g>
<!-- Node13&#45;&gt;Node5 -->
<g id="edge36" class="edge"><title>Node13&#45;&gt;Node5</title>
<path fill="none" stroke="midnightblue" d="M682.12,-164.547C675.956,-150.687 667.376,-132.044 659,-116 650.427,-99.5799 642.834,-97.8813 638,-80 635.448,-70.5611 635.054,-67.3233 638,-58 642.446,-43.9299 652.781,-30.4197 660.71,-21.5245"/>
<polygon fill="midnightblue" stroke="midnightblue" points="679.089,-166.348 686.32,-174.091 685.496,-163.529 679.089,-166.348"/>
</g>
<!-- Node13&#45;&gt;Node6 -->
<g id="edge38" class="edge"><title>Node13&#45;&gt;Node6</title>
<path fill="none" stroke="midnightblue" d="M690.461,-205.843C689.819,-230.654 688.772,-271.131 688.277,-290.295"/>
<polygon fill="midnightblue" stroke="midnightblue" points="693.964,-205.766 690.724,-195.679 686.966,-205.585 693.964,-205.766"/>
</g>
<!-- Node13&#45;&gt;Node7 -->
<g id="edge34" class="edge"><title>Node13&#45;&gt;Node7</title>
<path fill="none" stroke="midnightblue" d="M669.866,-167.975C657.646,-158.132 642.654,-146.055 632.122,-137.571"/>
<polygon fill="midnightblue" stroke="midnightblue" points="667.811,-170.814 677.794,-174.362 672.202,-165.363 667.811,-170.814"/>
</g>
<!-- Node13&#45;&gt;Node14 -->
<g id="edge40" class="edge"><title>Node13&#45;&gt;Node14</title>
<path fill="none" stroke="midnightblue" d="M727.104,-178.066C786.809,-166.6 905.116,-143.878 961.582,-133.034"/>
<polygon fill="midnightblue" stroke="midnightblue" points="726.17,-174.681 717.01,-180.005 727.49,-181.556 726.17,-174.681"/>
</g>
<!-- Node13&#45;&gt;Node18 -->
<g id="edge50" class="edge"><title>Node13&#45;&gt;Node18</title>
<path fill="none" stroke="midnightblue" d="M727.138,-173.225C759.222,-162.77 805.68,-147.632 836.585,-137.562"/>
<polygon fill="midnightblue" stroke="midnightblue" points="725.688,-170.016 717.265,-176.442 727.857,-176.672 725.688,-170.016"/>
</g>
<!-- Node19 -->
<g id="node47" class="node"><title>Node19</title>
<a xlink:href="../../da/d77/plot__impedance_8h.html" target="_top" xlink:title="plot_impedance.h">
<polygon fill="white" stroke="black" points="439.5,-116.5 439.5,-137.5 532.5,-137.5 532.5,-116.5 439.5,-116.5"/>
<text text-anchor="middle" x="486" y="-124.5" font-family="Helvetica,sans-Serif" font-size="10.00">plot_impedance.h</text>
</a>
</g>
<!-- Node13&#45;&gt;Node19 -->
<g id="edge56" class="edge"><title>Node13&#45;&gt;Node19</title>
<path fill="none" stroke="midnightblue" d="M654.764,-174.748C617.815,-164.294 560.759,-148.151 523.395,-137.58"/>
<polygon fill="midnightblue" stroke="midnightblue" points="654.044,-178.182 664.62,-177.536 655.95,-171.446 654.044,-178.182"/>
</g>
<!-- Node13&#45;&gt;Node21 -->
<g id="edge62" class="edge"><title>Node13&#45;&gt;Node21</title>
<path fill="none" stroke="midnightblue" d="M715.547,-168.821C730.704,-158.831 749.718,-146.299 762.962,-137.571"/>
<polygon fill="midnightblue" stroke="midnightblue" points="713.564,-165.936 707.141,-174.362 717.416,-171.781 713.564,-165.936"/>
</g>
<!-- Node23 -->
<g id="node57" class="node"><title>Node23</title>
<a xlink:href="../../d2/d0e/Tracker_8h.html" target="_top" xlink:title="Tracker.h">
<polygon fill="white" stroke="black" points="326,-116.5 326,-137.5 384,-137.5 384,-116.5 326,-116.5"/>
<text text-anchor="middle" x="355" y="-124.5" font-family="Helvetica,sans-Serif" font-size="10.00">Tracker.h</text>
</a>
</g>
<!-- Node13&#45;&gt;Node23 -->
<g id="edge68" class="edge"><title>Node13&#45;&gt;Node23</title>
<path fill="none" stroke="midnightblue" d="M654.824,-178.755C587.783,-167.183 445.493,-142.621 384.148,-132.031"/>
<polygon fill="midnightblue" stroke="midnightblue" points="654.465,-182.245 664.914,-180.497 655.655,-175.347 654.465,-182.245"/>
</g>
<!-- Node14&#45;&gt;Node5 -->
<g id="edge48" class="edge"><title>Node14&#45;&gt;Node5</title>
<path fill="none" stroke="midnightblue" d="M996.313,-106.336C997.522,-90.9368 996.253,-70.4921 984,-58 963.751,-37.3557 765.176,-18.8839 695.229,-12.9699"/>
<polygon fill="midnightblue" stroke="midnightblue" points="992.813,-106.13 995.117,-116.472 999.765,-106.951 992.813,-106.13"/>
</g>
<!-- Node15 -->
<g id="node36" class="node"><title>Node15</title>
<a xlink:href="../../da/dda/Monitors_8cpp.html" target="_top" xlink:title="Monitors.cpp">
<polygon fill="white" stroke="black" points="1035.5,-58.5 1035.5,-79.5 1108.5,-79.5 1108.5,-58.5 1035.5,-58.5"/>
<text text-anchor="middle" x="1072" y="-66.5" font-family="Helvetica,sans-Serif" font-size="10.00">Monitors.cpp</text>
</a>
</g>
<!-- Node14&#45;&gt;Node15 -->
<g id="edge42" class="edge"><title>Node14&#45;&gt;Node15</title>
<path fill="none" stroke="midnightblue" d="M1015.8,-110.259C1029.28,-100.364 1045.94,-88.1361 1057.6,-79.5707"/>
<polygon fill="midnightblue" stroke="midnightblue" points="1013.48,-107.623 1007.49,-116.362 1017.62,-113.265 1013.48,-107.623"/>
</g>
<!-- Node16 -->
<g id="node38" class="node"><title>Node16</title>
<a xlink:href="../../d3/d2c/plot__beams_8cpp.html" target="_top" xlink:title="plot_beams.cpp">
<polygon fill="white" stroke="black" points="856,-58.5 856,-79.5 942,-79.5 942,-58.5 856,-58.5"/>
<text text-anchor="middle" x="899" y="-66.5" font-family="Helvetica,sans-Serif" font-size="10.00">plot_beams.cpp</text>
</a>
</g>
<!-- Node14&#45;&gt;Node16 -->
<g id="edge44" class="edge"><title>Node14&#45;&gt;Node16</title>
<path fill="none" stroke="midnightblue" d="M967.233,-111.101C950.969,-101.066 930.41,-88.3808 916.132,-79.5707"/>
<polygon fill="midnightblue" stroke="midnightblue" points="965.411,-114.089 975.759,-116.362 969.086,-108.132 965.411,-114.089"/>
</g>
<!-- Node17 -->
<g id="node40" class="node"><title>Node17</title>
<a xlink:href="../../d3/dca/plot__llrf_8cpp.html" target="_top" xlink:title="plot_llrf.cpp">
<polygon fill="white" stroke="black" points="1163.5,-58.5 1163.5,-79.5 1230.5,-79.5 1230.5,-58.5 1163.5,-58.5"/>
<text text-anchor="middle" x="1197" y="-66.5" font-family="Helvetica,sans-Serif" font-size="10.00">plot_llrf.cpp</text>
</a>
</g>
<!-- Node14&#45;&gt;Node17 -->
<g id="edge46" class="edge"><title>Node14&#45;&gt;Node17</title>
<path fill="none" stroke="midnightblue" d="M1034.15,-115.301C1072.09,-104.514 1127.73,-88.6939 1163.16,-78.6223"/>
<polygon fill="midnightblue" stroke="midnightblue" points="1033.09,-111.963 1024.43,-118.065 1035,-118.696 1033.09,-111.963"/>
</g>
<!-- Node18&#45;&gt;Node5 -->
<g id="edge54" class="edge"><title>Node18&#45;&gt;Node5</title>
<path fill="none" stroke="midnightblue" d="M856.744,-108.024C845.883,-92.5827 828.716,-71.2484 809,-58 773.287,-34.0026 724.15,-21.1507 695.167,-15.2241"/>
<polygon fill="midnightblue" stroke="midnightblue" points="853.87,-110.022 862.382,-116.329 859.661,-106.09 853.87,-110.022"/>
</g>
<!-- Node18&#45;&gt;Node16 -->
<g id="edge52" class="edge"><title>Node18&#45;&gt;Node16</title>
<path fill="none" stroke="midnightblue" d="M879.152,-107.373C883.965,-98.0682 889.524,-87.3204 893.532,-79.5707"/>
<polygon fill="midnightblue" stroke="midnightblue" points="875.988,-105.872 874.502,-116.362 882.206,-109.088 875.988,-105.872"/>
</g>
<!-- Node19&#45;&gt;Node5 -->
<g id="edge60" class="edge"><title>Node19&#45;&gt;Node5</title>
<path fill="none" stroke="midnightblue" d="M502.685,-108.808C517.24,-93.7279 539.497,-72.4913 562,-58 589.202,-40.4825 624.035,-26.774 646.909,-18.791"/>
<polygon fill="midnightblue" stroke="midnightblue" points="499.767,-106.799 495.439,-116.47 504.853,-111.609 499.767,-106.799"/>
</g>
<!-- Node20 -->
<g id="node49" class="node"><title>Node20</title>
<a xlink:href="../../d8/d29/plot__impedance_8cpp.html" target="_top" xlink:title="plot_impedance.cpp">
<polygon fill="white" stroke="black" points="406,-58.5 406,-79.5 510,-79.5 510,-58.5 406,-58.5"/>
<text text-anchor="middle" x="458" y="-66.5" font-family="Helvetica,sans-Serif" font-size="10.00">plot_impedance.cpp</text>
</a>
</g>
<!-- Node19&#45;&gt;Node20 -->
<g id="edge58" class="edge"><title>Node19&#45;&gt;Node20</title>
<path fill="none" stroke="midnightblue" d="M476.383,-107.079C471.924,-97.8422 466.805,-87.2388 463.103,-79.5707"/>
<polygon fill="midnightblue" stroke="midnightblue" points="473.365,-108.878 480.864,-116.362 479.669,-105.835 473.365,-108.878"/>
</g>
<!-- Node21&#45;&gt;Node5 -->
<g id="edge66" class="edge"><title>Node21&#45;&gt;Node5</title>
<path fill="none" stroke="midnightblue" d="M749.164,-111.309C735.749,-103.23 720.406,-92.4551 709,-80 692.745,-62.2493 680.879,-36.2925 675.051,-21.803"/>
<polygon fill="midnightblue" stroke="midnightblue" points="747.662,-114.484 758.071,-116.46 751.166,-108.424 747.662,-114.484"/>
</g>
<!-- Node22 -->
<g id="node54" class="node"><title>Node22</title>
<a xlink:href="../../d4/dfd/plot__slices_8cpp.html" target="_top" xlink:title="plot_slices.cpp">
<polygon fill="white" stroke="black" points="718,-58.5 718,-79.5 800,-79.5 800,-58.5 718,-58.5"/>
<text text-anchor="middle" x="759" y="-66.5" font-family="Helvetica,sans-Serif" font-size="10.00">plot_slices.cpp</text>
</a>
</g>
<!-- Node21&#45;&gt;Node22 -->
<g id="edge64" class="edge"><title>Node21&#45;&gt;Node22</title>
<path fill="none" stroke="midnightblue" d="M772.029,-106.784C768.868,-97.617 765.261,-87.1572 762.645,-79.5707"/>
<polygon fill="midnightblue" stroke="midnightblue" points="768.763,-108.049 775.332,-116.362 775.381,-105.767 768.763,-108.049"/>
</g>
<!-- Node23&#45;&gt;Node3 -->
<g id="edge72" class="edge"><title>Node23&#45;&gt;Node3</title>
<path fill="none" stroke="midnightblue" d="M316.162,-113.671C285.944,-103.3 244.59,-89.1077 216.67,-79.5257"/>
<polygon fill="midnightblue" stroke="midnightblue" points="315.353,-117.094 325.948,-117.029 317.626,-110.473 315.353,-117.094"/>
</g>
<!-- Node23&#45;&gt;Node5 -->
<g id="edge74" class="edge"><title>Node23&#45;&gt;Node5</title>
<path fill="none" stroke="midnightblue" d="M351.697,-106.346C350.494,-90.9521 351.765,-70.5096 364,-58 383.793,-37.7623 577.697,-19.1002 646.743,-13.0469"/>
<polygon fill="midnightblue" stroke="midnightblue" points="348.244,-106.955 352.889,-116.477 355.196,-106.137 348.244,-106.955"/>
</g>
<!-- Node24 -->
<g id="node59" class="node"><title>Node24</title>
<a xlink:href="../../d2/d6f/Tracker_8cpp.html" target="_top" xlink:title="Tracker.cpp">
<polygon fill="white" stroke="black" points="244,-58.5 244,-79.5 312,-79.5 312,-58.5 244,-58.5"/>
<text text-anchor="middle" x="278" y="-66.5" font-family="Helvetica,sans-Serif" font-size="10.00">Tracker.cpp</text>
</a>
</g>
<!-- Node23&#45;&gt;Node24 -->
<g id="edge70" class="edge"><title>Node23&#45;&gt;Node24</title>
<path fill="none" stroke="midnightblue" d="M332.774,-110.259C319.639,-100.364 303.405,-88.1361 292.033,-79.5707"/>
<polygon fill="midnightblue" stroke="midnightblue" points="330.784,-113.141 340.877,-116.362 334.995,-107.55 330.784,-113.141"/>
</g>
<!-- Node25&#45;&gt;Node5 -->
<g id="edge88" class="edge"><title>Node25&#45;&gt;Node5</title>
<path fill="none" stroke="midnightblue" d="M1307.49,-106.744C1301.15,-90.6057 1289.84,-68.9619 1272,-58 1222.18,-27.3831 801.261,-14.4023 695.191,-11.5998"/>
<polygon fill="midnightblue" stroke="midnightblue" points="1304.28,-108.157 1310.95,-116.387 1310.87,-105.792 1304.28,-108.157"/>
</g>
<!-- Node25&#45;&gt;Node17 -->
<g id="edge86" class="edge"><title>Node25&#45;&gt;Node17</title>
<path fill="none" stroke="midnightblue" d="M1283.6,-111.932C1263.15,-101.793 1236.69,-88.6748 1218.43,-79.6212"/>
<polygon fill="midnightblue" stroke="midnightblue" points="1282.3,-115.191 1292.81,-116.497 1285.41,-108.919 1282.3,-115.191"/>
</g>
<!-- Node26&#45;&gt;Node2 -->
<g id="edge94" class="edge"><title>Node26&#45;&gt;Node2</title>
<path fill="none" stroke="midnightblue" d="M1065.19,-173.695C1118.24,-158.573 1169.37,-144.654 1201.84,-135.895"/>
<polygon fill="midnightblue" stroke="midnightblue" points="1063.92,-170.418 1055.26,-176.532 1065.84,-177.149 1063.92,-170.418"/>
</g>
<!-- Node26&#45;&gt;Node4 -->
<g id="edge96" class="edge"><title>Node26&#45;&gt;Node4</title>
<path fill="none" stroke="midnightblue" d="M1064.99,-172.236C1096.62,-161.393 1138.97,-146.305 1155,-138 1165.07,-132.782 1233.73,-90.0433 1239,-80 1243.54,-71.3419 1245.72,-65.0992 1239,-58 1231.89,-50.4887 596.757,-21.0803 420.125,-13.0408"/>
<polygon fill="midnightblue" stroke="midnightblue" points="1063.48,-169.053 1055.15,-175.594 1065.74,-175.679 1063.48,-169.053"/>
</g>
<!-- Node26&#45;&gt;Node5 -->
<g id="edge100" class="edge"><title>Node26&#45;&gt;Node5</title>
<path fill="none" stroke="midnightblue" d="M1037.17,-165.329C1045.21,-150.809 1057.34,-131.041 1071,-116 1088.45,-96.7798 1105.63,-103.338 1117,-80 1121.28,-71.21 1123.54,-65.2672 1117,-58 1088.55,-26.3897 783.758,-14.5002 695.075,-11.6952"/>
<polygon fill="midnightblue" stroke="midnightblue" points="1033.93,-163.955 1032.28,-174.42 1040.1,-167.269 1033.93,-163.955"/>
</g>
<!-- Node27 -->
<g id="node76" class="node"><title>Node27</title>
<a xlink:href="../../de/da5/utilities_8cpp.html" target="_top" xlink:title="utilities.cpp">
<polygon fill="white" stroke="black" points="1080,-116.5 1080,-137.5 1146,-137.5 1146,-116.5 1080,-116.5"/>
<text text-anchor="middle" x="1113" y="-124.5" font-family="Helvetica,sans-Serif" font-size="10.00">utilities.cpp</text>
</a>
</g>
<!-- Node26&#45;&gt;Node27 -->
<g id="edge98" class="edge"><title>Node26&#45;&gt;Node27</title>
<path fill="none" stroke="midnightblue" d="M1051.41,-168.541C1066.15,-158.597 1084.5,-146.218 1097.33,-137.571"/>
<polygon fill="midnightblue" stroke="midnightblue" points="1049.11,-165.869 1042.77,-174.362 1053.02,-171.672 1049.11,-165.869"/>
</g>
<!-- Node28&#45;&gt;Node5 -->
<g id="edge106" class="edge"><title>Node28&#45;&gt;Node5</title>
<path fill="none" stroke="midnightblue" d="M374.062,-166.986C381.354,-158.884 388.899,-148.733 393,-138 405.705,-104.744 373.381,-84.6362 397,-58 429.822,-20.9855 585.78,-13.1133 646.617,-11.4457"/>
<polygon fill="midnightblue" stroke="midnightblue" points="371.391,-164.714 366.99,-174.351 376.441,-169.562 371.391,-164.714"/>
</g>
<!-- Node28&#45;&gt;Node14 -->
<g id="edge108" class="edge"><title>Node28&#45;&gt;Node14</title>
<path fill="none" stroke="midnightblue" d="M401.944,-174.077C629.083,-139.887 690.482,-161.664 915,-138 930.504,-136.366 947.668,-134.006 961.938,-131.89"/>
<polygon fill="midnightblue" stroke="midnightblue" points="401.411,-170.618 392.053,-175.585 402.467,-177.538 401.411,-170.618"/>
</g>
<!-- Node28&#45;&gt;Node23 -->
<g id="edge110" class="edge"><title>Node28&#45;&gt;Node23</title>
<path fill="none" stroke="midnightblue" d="M355,-164.191C355,-155.168 355,-144.994 355,-137.571"/>
<polygon fill="midnightblue" stroke="midnightblue" points="351.5,-164.362 355,-174.362 358.5,-164.362 351.5,-164.362"/>
</g>
<!-- Node29 -->
<g id="node81" class="node"><title>Node29</title>
<a xlink:href="../../db/dee/PhaseLoop_8cpp.html" target="_top" xlink:title="PhaseLoop.cpp">
<polygon fill="white" stroke="black" points="224,-116.5 224,-137.5 308,-137.5 308,-116.5 224,-116.5"/>
<text text-anchor="middle" x="266" y="-124.5" font-family="Helvetica,sans-Serif" font-size="10.00">PhaseLoop.cpp</text>
</a>
</g>
<!-- Node28&#45;&gt;Node29 -->
<g id="edge104" class="edge"><title>Node28&#45;&gt;Node29</title>
<path fill="none" stroke="midnightblue" d="M330.174,-168.821C314.844,-158.831 295.614,-146.299 282.22,-137.571"/>
<polygon fill="midnightblue" stroke="midnightblue" points="328.387,-171.834 338.676,-174.362 332.209,-165.97 328.387,-171.834"/>
</g>
<!-- Node30&#45;&gt;Node5 -->
<g id="edge116" class="edge"><title>Node30&#45;&gt;Node5</title>
<path fill="none" stroke="midnightblue" d="M446.427,-228.652C465.792,-220.7 488.694,-209.645 507,-196 511.7,-192.497 627.849,-60.2033 661.776,-21.5205"/>
<polygon fill="midnightblue" stroke="midnightblue" points="444.956,-225.471 436.954,-232.415 447.54,-231.976 444.956,-225.471"/>
</g>
<!-- Node30&#45;&gt;Node28 -->
<g id="edge118" class="edge"><title>Node30&#45;&gt;Node28</title>
<path fill="none" stroke="midnightblue" d="M390.023,-224.83C381.562,-215.208 371.468,-203.728 364.295,-195.571"/>
<polygon fill="midnightblue" stroke="midnightblue" points="387.414,-227.163 396.646,-232.362 392.671,-222.541 387.414,-227.163"/>
</g>
<!-- Node31 -->
<g id="node88" class="node"><title>Node31</title>
<a xlink:href="../../db/d82/PhaseNoise_8cpp.html" target="_top" xlink:title="PhaseNoise.cpp">
<polygon fill="white" stroke="black" points="409.5,-174.5 409.5,-195.5 498.5,-195.5 498.5,-174.5 409.5,-174.5"/>
<text text-anchor="middle" x="454" y="-182.5" font-family="Helvetica,sans-Serif" font-size="10.00">PhaseNoise.cpp</text>
</a>
</g>
<!-- Node30&#45;&gt;Node31 -->
<g id="edge114" class="edge"><title>Node30&#45;&gt;Node31</title>
<path fill="none" stroke="midnightblue" d="M421.277,-224.541C429.19,-214.979 438.568,-203.647 445.252,-195.571"/>
<polygon fill="midnightblue" stroke="midnightblue" points="418.483,-222.426 414.804,-232.362 423.876,-226.889 418.483,-222.426"/>
</g>
<!-- Node32&#45;&gt;Node3 -->
<g id="edge124" class="edge"><title>Node32&#45;&gt;Node3</title>
<path fill="none" stroke="midnightblue" d="M134.601,-170.233C108.594,-157.833 81.2641,-138.554 95,-116 106.099,-97.776 126.788,-86.3099 145.637,-79.2704"/>
<polygon fill="midnightblue" stroke="midnightblue" points="133.488,-173.57 144.044,-174.483 136.361,-167.187 133.488,-173.57"/>
</g>
<!-- Node32&#45;&gt;Node5 -->
<g id="edge126" class="edge"><title>Node32&#45;&gt;Node5</title>
<path fill="none" stroke="midnightblue" d="M125.877,-170.259C110.762,-163.05 95.6971,-152.664 87,-138 64.3591,-99.8251 131.243,-60.95 137,-58 182.812,-34.5232 548.304,-16.5201 646.685,-12.0652"/>
<polygon fill="midnightblue" stroke="midnightblue" points="124.673,-173.552 135.238,-174.347 127.475,-167.138 124.673,-173.552"/>
</g>
<!-- Node32&#45;&gt;Node9 -->
<g id="edge122" class="edge"><title>Node32&#45;&gt;Node9</title>
<path fill="none" stroke="midnightblue" d="M166.726,-164.784C163.881,-155.617 160.635,-145.157 158.281,-137.571"/>
<polygon fill="midnightblue" stroke="midnightblue" points="163.392,-165.849 169.699,-174.362 170.077,-163.774 163.392,-165.849"/>
</g>
<!-- Node32&#45;&gt;Node19 -->
<g id="edge128" class="edge"><title>Node32&#45;&gt;Node19</title>
<path fill="none" stroke="midnightblue" d="M229.248,-174.577C289.283,-163.452 383.308,-146.029 439.371,-135.641"/>
<polygon fill="midnightblue" stroke="midnightblue" points="228.379,-171.178 219.184,-176.442 229.655,-178.061 228.379,-171.178"/>
</g>
<!-- Node32&#45;&gt;Node23 -->
<g id="edge130" class="edge"><title>Node32&#45;&gt;Node23</title>
<path fill="none" stroke="midnightblue" d="M215.607,-171.422C249.532,-160.611 296.112,-145.766 325.889,-136.277"/>
<polygon fill="midnightblue" stroke="midnightblue" points="214.424,-168.125 205.959,-174.497 216.549,-174.795 214.424,-168.125"/>
</g>
<!-- Node33&#45;&gt;Node5 -->
<g id="edge136" class="edge"><title>Node33&#45;&gt;Node5</title>
<path fill="none" stroke="midnightblue" d="M1370,-280.406C1370,-257.215 1370,-218.402 1370,-185 1370,-185 1370,-185 1370,-127 1370,-82.032 1337.19,-76.0381 1296,-58 1240.18,-33.5568 803.53,-15.9048 695.239,-11.8738"/>
<polygon fill="midnightblue" stroke="midnightblue" points="1366.5,-280.444 1370,-290.444 1373.5,-280.444 1366.5,-280.444"/>
</g>
<!-- Node34 -->
<g id="node101" class="node"><title>Node34</title>
<a xlink:href="../../d6/df4/Music_8cpp.html" target="_top" xlink:title="Music.cpp">
<polygon fill="white" stroke="black" points="1398,-232.5 1398,-253.5 1460,-253.5 1460,-232.5 1398,-232.5"/>
<text text-anchor="middle" x="1429" y="-240.5" font-family="Helvetica,sans-Serif" font-size="10.00">Music.cpp</text>
</a>
</g>
<!-- Node33&#45;&gt;Node34 -->
<g id="edge134" class="edge"><title>Node33&#45;&gt;Node34</title>
<path fill="none" stroke="midnightblue" d="M1388.19,-283.118C1398.04,-273.438 1409.87,-261.81 1418.25,-253.571"/>
<polygon fill="midnightblue" stroke="midnightblue" points="1385.5,-280.856 1380.82,-290.362 1390.41,-285.847 1385.5,-280.856"/>
</g>
</g>
</svg>
        <g id="navigator" transform="translate(0 0)" fill="#404254">
                <rect fill="#f2f5e9" fill-opacity="0.5" stroke="#606060" stroke-width=".5" x="0" y="0" width="60" height="60"/>
                <use id="zoomplus" xlink:href="#zoomPlus" x="17" y="9" onmousedown="handleZoom(evt,'in')"/>
                <use id="zoomminus" xlink:href="#zoomMin" x="42" y="9" onmousedown="handleZoom(evt,'out')"/>
                <use id="reset" xlink:href="#resetDef" x="30" y="36" onmousedown="handleReset()"/>
                <g id="arrowUp" xlink:href="#dirArrow" transform="translate(30 24)" onmousedown="handlePan(0,-1)">
                  <use xlink:href="#rim" fill="#404040">
                        <set attributeName="fill" to="#808080" begin="arrowUp.mouseover" end="arrowUp.mouseout"/>
                  </use>
                  <path fill="none" stroke="white" stroke-width="1.5" d="M0,-3.0v7 M-2.5,-0.5L0,-3.0L2.5,-0.5"/>
                </g>
                <g id="arrowRight" xlink:href="#dirArrow" transform="rotate(90) translate(36 -43)" onmousedown="handlePan(1,0)">
                  <use xlink:href="#rim" fill="#404040">
                        <set attributeName="fill" to="#808080" begin="arrowRight.mouseover" end="arrowRight.mouseout"/>
                  </use>
                  <path fill="none" stroke="white" stroke-width="1.5" d="M0,-3.0v7 M-2.5,-0.5L0,-3.0L2.5,-0.5"/>
                </g>
                <g id="arrowDown" xlink:href="#dirArrow" transform="rotate(180) translate(-30 -48)" onmousedown="handlePan(0,1)">
                  <use xlink:href="#rim" fill="#404040">
                        <set attributeName="fill" to="#808080" begin="arrowDown.mouseover" end="arrowDown.mouseout"/>
                  </use>
                  <path fill="none" stroke="white" stroke-width="1.5" d="M0,-3.0v7 M-2.5,-0.5L0,-3.0L2.5,-0.5"/>
                </g>
                <g id="arrowLeft" xlink:href="#dirArrow" transform="rotate(270) translate(-36 17)" onmousedown="handlePan(-1,0)">
                  <use xlink:href="#rim" fill="#404040">
                        <set attributeName="fill" to="#808080" begin="arrowLeft.mouseover" end="arrowLeft.mouseout"/>
                  </use>
                  <path fill="none" stroke="white" stroke-width="1.5" d="M0,-3.0v7 M-2.5,-0.5L0,-3.0L2.5,-0.5"/>
                </g>
        </g>
        <svg viewBox="0 0 15 15" width="100%" height="30px" preserveAspectRatio="xMaxYMin meet">
         <g id="arrow_out" transform="scale(0.3 0.3)">
          <a xlink:href="Beams_8h__dep__incl_org.svg" target="_base">
           <rect id="button" ry="5" rx="5" y="6" x="6" height="38" width="38"
                fill="#f2f5e9" fill-opacity="0.5" stroke="#606060" stroke-width="1.0"/>
           <path id="arrow"
             d="M 11.500037,31.436501 C 11.940474,20.09759 22.043105,11.32322 32.158766,21.979434 L 37.068811,17.246167 C 37.068811,17.246167 37.088388,32 37.088388,32 L 22.160133,31.978069 C 22.160133,31.978069 26.997745,27.140456 26.997745,27.140456 C 18.528582,18.264221 13.291696,25.230495 11.500037,31.436501 z"
             style="fill:#404040;"/>
          </a>
         </g>
        </svg>
</svg>
