<?xml version="1.0" encoding="UTF-8" standalone="no"?>
<!DOCTYPE svg PUBLIC "-//W3C//DTD SVG 1.1//EN"
 "http://www.w3.org/Graphics/SVG/1.1/DTD/svg11.dtd">
<!-- Generated by graphviz version 2.26.3 (20100126.1600)
 -->
<!-- Title: Beams.h Pages: 1 -->
<!--zoomable 522 -->
<svg id="main" version="1.1" xmlns="http://www.w3.org/2000/svg" xmlns:xlink="http://www.w3.org/1999/xlink" xml:space="preserve" onload="init(evt)">
        <defs>
                <circle id="rim" cx="0" cy="0" r="7"/>
                <circle id="rim2" cx="0" cy="0" r="3.5"/>
                <g id="zoomPlus">
                        <use xlink:href="#rim" fill="#404040">
                                <set attributeName="fill" to="#808080" begin="zoomplus.mouseover" end="zoomplus.mouseout"/>
                        </use>
                        <path d="M-4,0h8M0,-4v8" fill="none" stroke="white" stroke-width="1.5" pointer-events="none"/>
                </g>
                <g id="zoomMin">
                        <use xlink:href="#rim" fill="#404040">
                                <set attributeName="fill" to="#808080" begin="zoomminus.mouseover" end="zoomminus.mouseout"/>
                        </use>
                        <path d="M-4,0h8" fill="none" stroke="white" stroke-width="1.5" pointer-events="none"/>
                </g>
                <g id="dirArrow">
                        <path fill="none" stroke="white" stroke-width="1.5" d="M0,-3.0v7 M-2.5,-0.5L0,-3.0L2.5,-0.5"/>
                </g>
               <g id="resetDef">
                       <use xlink:href="#rim2" fill="#404040">
                               <set attributeName="fill" to="#808080" begin="reset.mouseover" end="reset.mouseout"/>
                       </use>
               </g>
        </defs>

<script type="text/javascript">
var viewWidth = 1438;
var viewHeight = 522;
var sectionId = 'dynsection-0';
</script>
<script xlink:href="../../svgpan.js"/>
<svg id="graph" class="graph">
<g id="viewport">
<title>Beams.h</title>
<polygon fill="white" stroke="white" points="-4,5 -4,-518 1435.22,-518 1435.22,5 -4,5"/>
<!-- Node1 -->
<g id="node1" class="node"><title>Node1</title>
<polygon fill="#bfbfbf" stroke="black" points="575.217,-492.5 575.217,-513.5 631.217,-513.5 631.217,-492.5 575.217,-492.5"/>
<text text-anchor="middle" x="603.217" y="-500.5" font-family="Helvetica,sans-Serif" font-size="10.00">Beams.h</text>
</g>
<!-- Node2 -->
<g id="node3" class="node"><title>Node2</title>
<a xlink:href="../../d5/d87/globals_8h.html" target="_top" xlink:title="blond/globals.h">
<polygon fill="white" stroke="black" points="562.217,-434.5 562.217,-455.5 644.217,-455.5 644.217,-434.5 562.217,-434.5"/>
<text text-anchor="middle" x="603.217" y="-442.5" font-family="Helvetica,sans-Serif" font-size="10.00">blond/globals.h</text>
</a>
</g>
<!-- Node1&#45;&gt;Node2 -->
<g id="edge2" class="edge"><title>Node1&#45;&gt;Node2</title>
<path fill="none" stroke="midnightblue" d="M597.853,-492.362C596.536,-484.922 596.158,-474.743 596.717,-465.728"/>
<polygon fill="midnightblue" stroke="midnightblue" points="600.22,-465.9 597.865,-455.571 593.264,-465.114 600.22,-465.9"/>
</g>
<!-- Node3 -->
<g id="node5" class="node"><title>Node3</title>
<a xlink:href="../../d5/d34/GeneralParameters_8h.html" target="_top" xlink:title="blond/input_parameters\l/GeneralParameters.h">
<polygon fill="white" stroke="black" points="660.217,-233 660.217,-267 778.217,-267 778.217,-233 660.217,-233"/>
<text text-anchor="start" x="668.217" y="-254" font-family="Helvetica,sans-Serif" font-size="10.00">blond/input_parameters</text>
<text text-anchor="middle" x="719.217" y="-241" font-family="Helvetica,sans-Serif" font-size="10.00">/GeneralParameters.h</text>
</a>
</g>
<!-- Node1&#45;&gt;Node3 -->
<g id="edge102" class="edge"><title>Node1&#45;&gt;Node3</title>
<path fill="none" stroke="midnightblue" d="M631.409,-501.038C683.888,-496.735 793.329,-484.488 816.217,-456 862.578,-398.293 789.216,-314.788 746.473,-274.102"/>
<polygon fill="midnightblue" stroke="midnightblue" points="748.835,-271.519 739.137,-267.251 744.057,-276.634 748.835,-271.519"/>
</g>
<!-- Node4 -->
<g id="node7" class="node"><title>Node4</title>
<a xlink:href="../../d2/d2c/configuration_8h.html" target="_top" xlink:title="blond/configuration.h">
<polygon fill="white" stroke="black" points="393.717,-116.5 393.717,-137.5 500.717,-137.5 500.717,-116.5 393.717,-116.5"/>
<text text-anchor="middle" x="447.217" y="-124.5" font-family="Helvetica,sans-Serif" font-size="10.00">blond/configuration.h</text>
</a>
</g>
<!-- Node1&#45;&gt;Node4 -->
<g id="edge98" class="edge"><title>Node1&#45;&gt;Node4</title>
<path fill="none" stroke="midnightblue" d="M620.734,-492.418C678.569,-456.146 855.923,-333.481 787.217,-232 748.304,-174.525 708.349,-195.075 642.217,-174 598.662,-160.12 548.502,-148.116 509.963,-139.715"/>
<polygon fill="midnightblue" stroke="midnightblue" points="510.436,-136.236 499.923,-137.55 508.961,-143.079 510.436,-136.236"/>
</g>
<!-- Node7 -->
<g id="node13" class="node"><title>Node7</title>
<a xlink:href="../../de/df0/utilities_8h.html" target="_top" xlink:title="blond/utilities.h">
<polygon fill="white" stroke="black" points="837.217,-174.5 837.217,-195.5 919.217,-195.5 919.217,-174.5 837.217,-174.5"/>
<text text-anchor="middle" x="878.217" y="-182.5" font-family="Helvetica,sans-Serif" font-size="10.00">blond/utilities.h</text>
</a>
</g>
<!-- Node1&#45;&gt;Node7 -->
<g id="edge100" class="edge"><title>Node1&#45;&gt;Node7</title>
<path fill="none" stroke="midnightblue" d="M631.267,-500.111C685.521,-494.079 802.383,-478.787 835.217,-456 864.902,-435.398 878.217,-423.134 878.217,-387 878.217,-387 878.217,-387 878.217,-322 878.217,-280.793 878.217,-232.614 878.217,-205.773"/>
<polygon fill="midnightblue" stroke="midnightblue" points="881.717,-205.658 878.217,-195.658 874.717,-205.658 881.717,-205.658"/>
</g>
<!-- Node20 -->
<g id="node42" class="node"><title>Node20</title>
<a xlink:href="../../d6/db7/RfParameters_8h.html" target="_top" xlink:title="blond/input_parameters\l/RfParameters.h">
<polygon fill="white" stroke="black" points="396.217,-305 396.217,-339 514.217,-339 514.217,-305 396.217,-305"/>
<text text-anchor="start" x="404.217" y="-326" font-family="Helvetica,sans-Serif" font-size="10.00">blond/input_parameters</text>
<text text-anchor="middle" x="455.217" y="-313" font-family="Helvetica,sans-Serif" font-size="10.00">/RfParameters.h</text>
</a>
</g>
<!-- Node1&#45;&gt;Node20 -->
<g id="edge104" class="edge"><title>Node1&#45;&gt;Node20</title>
<path fill="none" stroke="midnightblue" d="M583.497,-492.386C571.184,-483.224 556.052,-469.389 544.217,-456 513.004,-420.69 481.683,-375.818 465.471,-348.005"/>
<polygon fill="midnightblue" stroke="midnightblue" points="468.515,-346.278 460.574,-339.265 462.408,-349.7 468.515,-346.278"/>
</g>
<!-- Node2&#45;&gt;Node1 -->
<g id="edge86" class="edge"><title>Node2&#45;&gt;Node1</title>
<path fill="none" stroke="midnightblue" d="M608.569,-455.571C609.891,-462.994 610.275,-473.168 609.722,-482.191"/>
<polygon fill="midnightblue" stroke="midnightblue" points="606.217,-482.034 608.581,-492.362 613.174,-482.814 606.217,-482.034"/>
</g>
<!-- Node2&#45;&gt;Node3 -->
<g id="edge4" class="edge"><title>Node2&#45;&gt;Node3</title>
<path fill="none" stroke="midnightblue" d="M623.653,-434.347C637.664,-426.11 655.728,-413.507 667.217,-398 694.6,-361.038 708.486,-308.423 714.764,-276.9"/>
<polygon fill="midnightblue" stroke="midnightblue" points="718.204,-277.546 716.611,-267.071 711.325,-276.253 718.204,-277.546"/>
</g>
<!-- Node2&#45;&gt;Node20 -->
<g id="edge44" class="edge"><title>Node2&#45;&gt;Node20</title>
<path fill="none" stroke="midnightblue" d="M580.735,-434.408C565.713,-425.148 546.345,-411.161 530.217,-398 510.105,-381.588 488.402,-361.897 473.329,-346.67"/>
<polygon fill="midnightblue" stroke="midnightblue" points="475.551,-343.932 466.094,-339.155 470.508,-348.787 475.551,-343.932"/>
</g>
<!-- Node32 -->
<g id="node76" class="node"><title>Node32</title>
<a xlink:href="../../dc/df2/Slices_8h.html" target="_top" xlink:title="blond/beams/Slices.h">
<polygon fill="white" stroke="black" points="548.217,-376.5 548.217,-397.5 658.217,-397.5 658.217,-376.5 548.217,-376.5"/>
<text text-anchor="middle" x="603.217" y="-384.5" font-family="Helvetica,sans-Serif" font-size="10.00">blond/beams/Slices.h</text>
</a>
</g>
<!-- Node2&#45;&gt;Node32 -->
<g id="edge88" class="edge"><title>Node2&#45;&gt;Node32</title>
<path fill="none" stroke="midnightblue" d="M603.217,-434.362C603.217,-426.922 603.217,-416.743 603.217,-407.728"/>
<polygon fill="midnightblue" stroke="midnightblue" points="606.717,-407.571 603.217,-397.571 599.717,-407.571 606.717,-407.571"/>
</g>
<!-- Node3&#45;&gt;Node4 -->
<g id="edge6" class="edge"><title>Node3&#45;&gt;Node4</title>
<path fill="none" stroke="midnightblue" d="M698.344,-232.699C676.906,-215.681 641.99,-189.991 608.217,-174 576.514,-158.99 538.998,-147.699 508.159,-139.951"/>
<polygon fill="midnightblue" stroke="midnightblue" points="508.943,-136.539 498.397,-137.559 507.277,-143.338 508.943,-136.539"/>
</g>
<!-- Node6 -->
<g id="node11" class="node"><title>Node6</title>
<polygon fill="white" stroke="#bfbfbf" points="1386.22,-58.5 1386.22,-79.5 1430.22,-79.5 1430.22,-58.5 1386.22,-58.5"/>
<text text-anchor="middle" x="1408.22" y="-66.5" font-family="Helvetica,sans-Serif" font-size="10.00">vector</text>
</g>
<!-- Node3&#45;&gt;Node6 -->
<g id="edge42" class="edge"><title>Node3&#45;&gt;Node6</title>
<path fill="none" stroke="midnightblue" d="M778.293,-244.76C937.857,-230.015 1368.3,-186.094 1409.22,-138 1420.34,-124.93 1418.7,-104.885 1415.1,-89.7619"/>
<polygon fill="midnightblue" stroke="midnightblue" points="1418.37,-88.4637 1412.29,-79.7898 1411.63,-90.3645 1418.37,-88.4637"/>
</g>
<!-- Node3&#45;&gt;Node7 -->
<g id="edge12" class="edge"><title>Node3&#45;&gt;Node7</title>
<path fill="none" stroke="midnightblue" d="M760.992,-232.922C786.385,-222.541 818.462,-209.428 842.639,-199.544"/>
<polygon fill="midnightblue" stroke="midnightblue" points="844.213,-202.682 852.145,-195.658 841.564,-196.203 844.213,-202.682"/>
</g>
<!-- Node5 -->
<g id="node9" class="node"><title>Node5</title>
<polygon fill="white" stroke="#bfbfbf" points="420.717,-58.5 420.717,-79.5 473.717,-79.5 473.717,-58.5 420.717,-58.5"/>
<text text-anchor="middle" x="447.217" y="-66.5" font-family="Helvetica,sans-Serif" font-size="10.00">complex</text>
</g>
<!-- Node4&#45;&gt;Node5 -->
<g id="edge8" class="edge"><title>Node4&#45;&gt;Node5</title>
<path fill="none" stroke="midnightblue" d="M447.217,-116.362C447.217,-108.922 447.217,-98.7427 447.217,-89.7276"/>
<polygon fill="midnightblue" stroke="midnightblue" points="450.717,-89.5706 447.217,-79.5707 443.717,-89.5707 450.717,-89.5706"/>
</g>
<!-- Node4&#45;&gt;Node6 -->
<g id="edge10" class="edge"><title>Node4&#45;&gt;Node6</title>
<path fill="none" stroke="midnightblue" d="M500.926,-117.053C503.725,-116.666 506.501,-116.311 509.217,-116 846.507,-77.4114 1258.66,-70.4699 1375.8,-69.2523"/>
<polygon fill="midnightblue" stroke="midnightblue" points="1375.93,-72.7513 1385.89,-69.1542 1375.86,-65.7516 1375.93,-72.7513"/>
</g>
<!-- Node7&#45;&gt;Node4 -->
<g id="edge36" class="edge"><title>Node7&#45;&gt;Node4</title>
<path fill="none" stroke="midnightblue" d="M837.089,-176.82C831.432,-175.806 825.688,-174.834 820.217,-174 685.886,-153.514 648.626,-157.936 511.036,-138.202"/>
<polygon fill="midnightblue" stroke="midnightblue" points="511.352,-134.711 500.953,-136.738 510.347,-141.638 511.352,-134.711"/>
</g>
<!-- Node7&#45;&gt;Node6 -->
<g id="edge32" class="edge"><title>Node7&#45;&gt;Node6</title>
<path fill="none" stroke="midnightblue" d="M919.541,-183.863C1034.76,-180.327 1353.48,-167.913 1389.22,-138 1403.09,-126.385 1407.33,-105.651 1408.4,-89.9351"/>
<polygon fill="midnightblue" stroke="midnightblue" points="1411.91,-89.6821 1408.72,-79.58 1404.92,-89.4687 1411.91,-89.6821"/>
</g>
<!-- Node8 -->
<g id="node15" class="node"><title>Node8</title>
<polygon fill="white" stroke="#bfbfbf" points="732.217,-116.5 732.217,-137.5 778.217,-137.5 778.217,-116.5 732.217,-116.5"/>
<text text-anchor="middle" x="755.217" y="-124.5" font-family="Helvetica,sans-Serif" font-size="10.00">chrono</text>
</g>
<!-- Node7&#45;&gt;Node8 -->
<g id="edge14" class="edge"><title>Node7&#45;&gt;Node8</title>
<path fill="none" stroke="midnightblue" d="M855.942,-174.497C836.645,-165.397 808.504,-152.127 786.869,-141.925"/>
<polygon fill="midnightblue" stroke="midnightblue" points="788.279,-138.721 777.741,-137.621 785.293,-145.052 788.279,-138.721"/>
</g>
<!-- Node9 -->
<g id="node17" class="node"><title>Node9</title>
<polygon fill="white" stroke="#bfbfbf" points="795.717,-116.5 795.717,-137.5 838.717,-137.5 838.717,-116.5 795.717,-116.5"/>
<text text-anchor="middle" x="817.217" y="-124.5" font-family="Helvetica,sans-Serif" font-size="10.00">cstdio</text>
</g>
<!-- Node7&#45;&gt;Node9 -->
<g id="edge16" class="edge"><title>Node7&#45;&gt;Node9</title>
<path fill="none" stroke="midnightblue" d="M867.028,-174.362C858.258,-166.023 845.868,-154.242 835.639,-144.516"/>
<polygon fill="midnightblue" stroke="midnightblue" points="837.993,-141.925 828.334,-137.571 833.17,-146.998 837.993,-141.925"/>
</g>
<!-- Node10 -->
<g id="node19" class="node"><title>Node10</title>
<polygon fill="white" stroke="#bfbfbf" points="855.717,-116.5 855.717,-137.5 900.717,-137.5 900.717,-116.5 855.717,-116.5"/>
<text text-anchor="middle" x="878.217" y="-124.5" font-family="Helvetica,sans-Serif" font-size="10.00">cstdlib</text>
</g>
<!-- Node7&#45;&gt;Node10 -->
<g id="edge18" class="edge"><title>Node7&#45;&gt;Node10</title>
<path fill="none" stroke="midnightblue" d="M878.217,-174.362C878.217,-166.922 878.217,-156.743 878.217,-147.728"/>
<polygon fill="midnightblue" stroke="midnightblue" points="881.717,-147.571 878.217,-137.571 874.717,-147.571 881.717,-147.571"/>
</g>
<!-- Node11 -->
<g id="node21" class="node"><title>Node11</title>
<polygon fill="white" stroke="#bfbfbf" points="918.217,-116.5 918.217,-137.5 968.217,-137.5 968.217,-116.5 918.217,-116.5"/>
<text text-anchor="middle" x="943.217" y="-124.5" font-family="Helvetica,sans-Serif" font-size="10.00">fstream</text>
</g>
<!-- Node7&#45;&gt;Node11 -->
<g id="edge20" class="edge"><title>Node7&#45;&gt;Node11</title>
<path fill="none" stroke="midnightblue" d="M890.139,-174.362C899.576,-165.941 912.946,-154.011 923.906,-144.231"/>
<polygon fill="midnightblue" stroke="midnightblue" points="926.239,-146.84 931.37,-137.571 921.579,-141.617 926.239,-146.84"/>
</g>
<!-- Node12 -->
<g id="node23" class="node"><title>Node12</title>
<polygon fill="white" stroke="#bfbfbf" points="986.217,-116.5 986.217,-137.5 1040.22,-137.5 1040.22,-116.5 986.217,-116.5"/>
<text text-anchor="middle" x="1013.22" y="-124.5" font-family="Helvetica,sans-Serif" font-size="10.00">iostream</text>
</g>
<!-- Node7&#45;&gt;Node12 -->
<g id="edge22" class="edge"><title>Node7&#45;&gt;Node12</title>
<path fill="none" stroke="midnightblue" d="M902.664,-174.497C924.034,-165.315 955.286,-151.889 979.114,-141.652"/>
<polygon fill="midnightblue" stroke="midnightblue" points="980.689,-144.784 988.495,-137.621 977.925,-138.353 980.689,-144.784"/>
</g>
<!-- Node13 -->
<g id="node25" class="node"><title>Node13</title>
<polygon fill="white" stroke="#bfbfbf" points="1057.72,-116.5 1057.72,-137.5 1104.72,-137.5 1104.72,-116.5 1057.72,-116.5"/>
<text text-anchor="middle" x="1081.22" y="-124.5" font-family="Helvetica,sans-Serif" font-size="10.00">iterator</text>
</g>
<!-- Node7&#45;&gt;Node13 -->
<g id="edge24" class="edge"><title>Node7&#45;&gt;Node13</title>
<path fill="none" stroke="midnightblue" d="M919.544,-174.42C952.136,-165.902 998.936,-153.288 1047.72,-138.354"/>
<polygon fill="midnightblue" stroke="midnightblue" points="1048.98,-141.629 1057.51,-135.336 1046.92,-134.94 1048.98,-141.629"/>
</g>
<!-- Node14 -->
<g id="node27" class="node"><title>Node14</title>
<polygon fill="white" stroke="#bfbfbf" points="1122.22,-116.5 1122.22,-137.5 1174.22,-137.5 1174.22,-116.5 1122.22,-116.5"/>
<text text-anchor="middle" x="1148.22" y="-124.5" font-family="Helvetica,sans-Serif" font-size="10.00">memory</text>
</g>
<!-- Node7&#45;&gt;Node14 -->
<g id="edge26" class="edge"><title>Node7&#45;&gt;Node14</title>
<path fill="none" stroke="midnightblue" d="M919.272,-178.164C964.387,-170.349 1039.14,-156.509 1112.11,-138.1"/>
<polygon fill="midnightblue" stroke="midnightblue" points="1113.11,-141.459 1121.93,-135.593 1111.38,-134.677 1113.11,-141.459"/>
</g>
<!-- Node15 -->
<g id="node29" class="node"><title>Node15</title>
<polygon fill="white" stroke="#bfbfbf" points="1192.22,-116.5 1192.22,-137.5 1244.22,-137.5 1244.22,-116.5 1192.22,-116.5"/>
<text text-anchor="middle" x="1218.22" y="-124.5" font-family="Helvetica,sans-Serif" font-size="10.00">sstream</text>
</g>
<!-- Node7&#45;&gt;Node15 -->
<g id="edge28" class="edge"><title>Node7&#45;&gt;Node15</title>
<path fill="none" stroke="midnightblue" d="M919.541,-180.647C976.635,-174.193 1082.94,-160.595 1182.08,-138.008"/>
<polygon fill="midnightblue" stroke="midnightblue" points="1183.01,-141.386 1191.96,-135.721 1181.43,-134.566 1183.01,-141.386"/>
</g>
<!-- Node16 -->
<g id="node31" class="node"><title>Node16</title>
<polygon fill="white" stroke="#bfbfbf" points="1261.72,-116.5 1261.72,-137.5 1302.72,-137.5 1302.72,-116.5 1261.72,-116.5"/>
<text text-anchor="middle" x="1282.22" y="-124.5" font-family="Helvetica,sans-Serif" font-size="10.00">string</text>
</g>
<!-- Node7&#45;&gt;Node16 -->
<g id="edge30" class="edge"><title>Node7&#45;&gt;Node16</title>
<path fill="none" stroke="midnightblue" d="M919.308,-183.048C987.166,-179.134 1126.82,-168.172 1251.76,-137.939"/>
<polygon fill="midnightblue" stroke="midnightblue" points="1252.63,-141.33 1261.5,-135.536 1250.95,-134.534 1252.63,-141.33"/>
</g>
<!-- Node17 -->
<g id="node34" class="node"><title>Node17</title>
<polygon fill="white" stroke="#bfbfbf" points="1320.22,-116.5 1320.22,-137.5 1380.22,-137.5 1380.22,-116.5 1320.22,-116.5"/>
<text text-anchor="middle" x="1350.22" y="-124.5" font-family="Helvetica,sans-Serif" font-size="10.00">sys/stat.h</text>
</g>
<!-- Node7&#45;&gt;Node17 -->
<g id="edge34" class="edge"><title>Node7&#45;&gt;Node17</title>
<path fill="none" stroke="midnightblue" d="M919.451,-182.82C995.101,-178.325 1161.2,-166.162 1309.88,-137.997"/>
<polygon fill="midnightblue" stroke="midnightblue" points="1310.94,-141.357 1320.1,-136.03 1309.62,-134.483 1310.94,-141.357"/>
</g>
<!-- Node18 -->
<g id="node37" class="node"><title>Node18</title>
<polygon fill="white" stroke="#bfbfbf" points="517.717,-116.5 517.717,-137.5 592.717,-137.5 592.717,-116.5 517.717,-116.5"/>
<text text-anchor="middle" x="555.217" y="-124.5" font-family="Helvetica,sans-Serif" font-size="10.00">mm_malloc.h</text>
</g>
<!-- Node7&#45;&gt;Node18 -->
<g id="edge38" class="edge"><title>Node7&#45;&gt;Node18</title>
<path fill="none" stroke="midnightblue" d="M837.049,-177.063C831.398,-176.012 825.667,-174.965 820.217,-174 726.217,-157.363 699.61,-157.458 602.74,-138.214"/>
<polygon fill="midnightblue" stroke="midnightblue" points="603.317,-134.76 592.824,-136.225 601.94,-141.623 603.317,-134.76"/>
</g>
<!-- Node19 -->
<g id="node39" class="node"><title>Node19</title>
<a xlink:href="../../da/d69/optionparser_8h.html" target="_top" xlink:title="This is the only file required to use The Lean Mean C++ Option Parser. Just #include it and you&#39;re se...">
<polygon fill="white" stroke="black" points="610.217,-116.5 610.217,-137.5 714.217,-137.5 714.217,-116.5 610.217,-116.5"/>
<text text-anchor="middle" x="662.217" y="-124.5" font-family="Helvetica,sans-Serif" font-size="10.00">blond/optionparser.h</text>
</a>
</g>
<!-- Node7&#45;&gt;Node19 -->
<g id="edge40" class="edge"><title>Node7&#45;&gt;Node19</title>
<path fill="none" stroke="midnightblue" d="M839.101,-174.497C803.277,-164.877 750.099,-150.598 711.409,-140.209"/>
<polygon fill="midnightblue" stroke="midnightblue" points="711.972,-136.736 701.406,-137.523 710.156,-143.497 711.972,-136.736"/>
</g>
<!-- Node20&#45;&gt;Node1 -->
<g id="edge46" class="edge"><title>Node20&#45;&gt;Node1</title>
<path fill="none" stroke="midnightblue" d="M472.106,-339.265C492.6,-365.551 527.476,-416.699 562.217,-456 571.278,-466.251 582.272,-476.763 590.829,-485.24"/>
<polygon fill="midnightblue" stroke="midnightblue" points="588.362,-487.723 597.876,-492.386 593.346,-482.808 588.362,-487.723"/>
</g>
<!-- Node20&#45;&gt;Node2 -->
<g id="edge84" class="edge"><title>Node20&#45;&gt;Node2</title>
<path fill="none" stroke="midnightblue" d="M480.099,-339.155C498.787,-354.932 524.599,-378.728 548.217,-398 560.858,-408.316 575.491,-419.139 586.682,-427.796"/>
<polygon fill="midnightblue" stroke="midnightblue" points="584.799,-430.769 594.815,-434.223 589.139,-425.277 584.799,-430.769"/>
</g>
<!-- Node20&#45;&gt;Node3 -->
<g id="edge48" class="edge"><title>Node20&#45;&gt;Node3</title>
<path fill="none" stroke="midnightblue" d="M514.464,-305.842C554.715,-294.864 608.093,-280.307 650.256,-268.807"/>
<polygon fill="midnightblue" stroke="midnightblue" points="651.441,-272.112 660.168,-266.104 649.599,-265.359 651.441,-272.112"/>
</g>
<!-- Node21 -->
<g id="node46" class="node"><title>Node21</title>
<a xlink:href="../../d2/de2/math__functions_8h.html" target="_top" xlink:title="blond/math_functions.h">
<polygon fill="white" stroke="black" points="243.217,-239.5 243.217,-260.5 361.217,-260.5 361.217,-239.5 243.217,-239.5"/>
<text text-anchor="middle" x="302.217" y="-247.5" font-family="Helvetica,sans-Serif" font-size="10.00">blond/math_functions.h</text>
</a>
</g>
<!-- Node20&#45;&gt;Node21 -->
<g id="edge50" class="edge"><title>Node20&#45;&gt;Node21</title>
<path fill="none" stroke="midnightblue" d="M418.958,-304.937C393.214,-292.822 358.97,-276.708 334.235,-265.067"/>
<polygon fill="midnightblue" stroke="midnightblue" points="335.467,-261.779 324.929,-260.688 332.487,-268.113 335.467,-261.779"/>
</g>
<!-- Node31 -->
<g id="node71" class="node"><title>Node31</title>
<a xlink:href="../../d2/d6f/constants_8h.html" target="_top" xlink:title="blond/constants.h">
<polygon fill="white" stroke="black" points="425.217,-239.5 425.217,-260.5 519.217,-260.5 519.217,-239.5 425.217,-239.5"/>
<text text-anchor="middle" x="472.217" y="-247.5" font-family="Helvetica,sans-Serif" font-size="10.00">blond/constants.h</text>
</a>
</g>
<!-- Node20&#45;&gt;Node31 -->
<g id="edge80" class="edge"><title>Node20&#45;&gt;Node31</title>
<path fill="none" stroke="midnightblue" d="M459.246,-304.937C461.661,-294.707 464.75,-281.625 467.307,-270.794"/>
<polygon fill="midnightblue" stroke="midnightblue" points="470.751,-271.438 469.643,-260.901 463.939,-269.829 470.751,-271.438"/>
</g>
<!-- Node21&#45;&gt;Node4 -->
<g id="edge54" class="edge"><title>Node21&#45;&gt;Node4</title>
<path fill="none" stroke="midnightblue" d="M352.696,-239.473C378.649,-231.603 408.817,-218.239 428.217,-196 439.802,-182.719 444.382,-162.972 446.163,-148.002"/>
<polygon fill="midnightblue" stroke="midnightblue" points="449.682,-147.934 447.049,-137.672 442.707,-147.336 449.682,-147.934"/>
</g>
<!-- Node21&#45;&gt;Node7 -->
<g id="edge72" class="edge"><title>Node21&#45;&gt;Node7</title>
<path fill="none" stroke="midnightblue" d="M361.296,-240.036C378.934,-237.233 398.333,-234.32 416.217,-232 564.922,-212.711 741.416,-196.641 826.825,-189.295"/>
<polygon fill="midnightblue" stroke="midnightblue" points="827.363,-192.761 837.028,-188.421 826.766,-185.787 827.363,-192.761"/>
</g>
<!-- Node22 -->
<g id="node48" class="node"><title>Node22</title>
<polygon fill="white" stroke="#bfbfbf" points="363.217,-174.5 363.217,-195.5 419.217,-195.5 419.217,-174.5 363.217,-174.5"/>
<text text-anchor="middle" x="391.217" y="-182.5" font-family="Helvetica,sans-Serif" font-size="10.00">algorithm</text>
</g>
<!-- Node21&#45;&gt;Node22 -->
<g id="edge52" class="edge"><title>Node21&#45;&gt;Node22</title>
<path fill="none" stroke="midnightblue" d="M316.913,-239.267C330.91,-229.044 352.188,-213.504 368.392,-201.67"/>
<polygon fill="midnightblue" stroke="midnightblue" points="370.782,-204.258 376.794,-195.534 366.654,-198.605 370.782,-204.258"/>
</g>
<!-- Node23 -->
<g id="node51" class="node"><title>Node23</title>
<a xlink:href="../../d8/dcd/exp_8h.html" target="_top" xlink:title="blond/exp.h">
<polygon fill="white" stroke="black" points="108.717,-174.5 108.717,-195.5 175.717,-195.5 175.717,-174.5 108.717,-174.5"/>
<text text-anchor="middle" x="142.217" y="-182.5" font-family="Helvetica,sans-Serif" font-size="10.00">blond/exp.h</text>
</a>
</g>
<!-- Node21&#45;&gt;Node23 -->
<g id="edge56" class="edge"><title>Node21&#45;&gt;Node23</title>
<path fill="none" stroke="midnightblue" d="M276.154,-239.412C249.423,-228.552 207.653,-211.583 177.87,-199.484"/>
<polygon fill="midnightblue" stroke="midnightblue" points="178.851,-196.105 168.268,-195.584 176.216,-202.59 178.851,-196.105"/>
</g>
<!-- Node25 -->
<g id="node55" class="node"><title>Node25</title>
<polygon fill="white" stroke="#bfbfbf" points="24.2168,-0.5 24.2168,-21.5 68.2168,-21.5 68.2168,-0.5 24.2168,-0.5"/>
<text text-anchor="middle" x="46.2168" y="-8.5" font-family="Helvetica,sans-Serif" font-size="10.00">cmath</text>
</g>
<!-- Node21&#45;&gt;Node25 -->
<g id="edge74" class="edge"><title>Node21&#45;&gt;Node25</title>
<path fill="none" stroke="midnightblue" d="M243.003,-247.343C168.301,-242.605 46.1796,-229.781 18.2168,-196 -21.7133,-147.762 14.3702,-67.27 34.6295,-30.4527"/>
<polygon fill="midnightblue" stroke="midnightblue" points="37.7157,-32.106 39.6162,-21.683 31.6306,-28.6459 37.7157,-32.106"/>
</g>
<!-- Node27 -->
<g id="node59" class="node"><title>Node27</title>
<a xlink:href="../../d1/d3d/sin_8h.html" target="_top" xlink:title="blond/sin.h">
<polygon fill="white" stroke="black" points="27.2168,-174.5 27.2168,-195.5 91.2168,-195.5 91.2168,-174.5 27.2168,-174.5"/>
<text text-anchor="middle" x="59.2168" y="-182.5" font-family="Helvetica,sans-Serif" font-size="10.00">blond/sin.h</text>
</a>
</g>
<!-- Node21&#45;&gt;Node27 -->
<g id="edge64" class="edge"><title>Node21&#45;&gt;Node27</title>
<path fill="none" stroke="midnightblue" d="M262.733,-239.456C224.08,-229.132 163.244,-212.876 101.38,-196.31"/>
<polygon fill="midnightblue" stroke="midnightblue" points="102.01,-192.856 91.445,-193.65 100.199,-199.617 102.01,-192.856"/>
</g>
<!-- Node29 -->
<g id="node67" class="node"><title>Node29</title>
<polygon fill="white" stroke="#bfbfbf" points="192.717,-174.5 192.717,-195.5 241.717,-195.5 241.717,-174.5 192.717,-174.5"/>
<text text-anchor="middle" x="217.217" y="-182.5" font-family="Helvetica,sans-Serif" font-size="10.00">cassert</text>
</g>
<!-- Node21&#45;&gt;Node29 -->
<g id="edge76" class="edge"><title>Node21&#45;&gt;Node29</title>
<path fill="none" stroke="midnightblue" d="M288.181,-239.267C274.813,-229.044 254.492,-213.504 239.016,-201.67"/>
<polygon fill="midnightblue" stroke="midnightblue" points="241.061,-198.828 230.992,-195.534 236.809,-204.389 241.061,-198.828"/>
</g>
<!-- Node30 -->
<g id="node69" class="node"><title>Node30</title>
<a xlink:href="../../d1/db0/openmp_8h.html" target="_top" xlink:title="blond/openmp.h">
<polygon fill="white" stroke="black" points="259.217,-174.5 259.217,-195.5 345.217,-195.5 345.217,-174.5 259.217,-174.5"/>
<text text-anchor="middle" x="302.217" y="-182.5" font-family="Helvetica,sans-Serif" font-size="10.00">blond/openmp.h</text>
</a>
</g>
<!-- Node21&#45;&gt;Node30 -->
<g id="edge78" class="edge"><title>Node21&#45;&gt;Node30</title>
<path fill="none" stroke="midnightblue" d="M302.217,-239.267C302.217,-230.18 302.217,-216.892 302.217,-205.74"/>
<polygon fill="midnightblue" stroke="midnightblue" points="305.717,-205.534 302.217,-195.534 298.717,-205.534 305.717,-205.534"/>
</g>
<!-- Node24 -->
<g id="node53" class="node"><title>Node24</title>
<a xlink:href="../../df/de1/vdtcore__common_8h.html" target="_top" xlink:title="vdtcore_common.h">
<polygon fill="white" stroke="black" points="74.2168,-58.5 74.2168,-79.5 174.217,-79.5 174.217,-58.5 74.2168,-58.5"/>
<text text-anchor="middle" x="124.217" y="-66.5" font-family="Helvetica,sans-Serif" font-size="10.00">vdtcore_common.h</text>
</a>
</g>
<!-- Node23&#45;&gt;Node24 -->
<g id="edge58" class="edge"><title>Node23&#45;&gt;Node24</title>
<path fill="none" stroke="midnightblue" d="M145.602,-174.079C149.346,-160.335 154.229,-136.094 149.217,-116 146.805,-106.332 141.991,-96.4711 137.225,-88.2947"/>
<polygon fill="midnightblue" stroke="midnightblue" points="140.057,-86.2211 131.8,-79.5825 134.115,-89.9213 140.057,-86.2211"/>
</g>
<!-- Node26 -->
<g id="node57" class="node"><title>Node26</title>
<polygon fill="white" stroke="#bfbfbf" points="100.217,-116.5 100.217,-137.5 140.217,-137.5 140.217,-116.5 100.217,-116.5"/>
<text text-anchor="middle" x="120.217" y="-124.5" font-family="Helvetica,sans-Serif" font-size="10.00">limits</text>
</g>
<!-- Node23&#45;&gt;Node26 -->
<g id="edge62" class="edge"><title>Node23&#45;&gt;Node26</title>
<path fill="none" stroke="midnightblue" d="M138.182,-174.362C135.298,-166.758 131.328,-156.294 127.854,-147.135"/>
<polygon fill="midnightblue" stroke="midnightblue" points="131.045,-145.679 124.226,-137.571 124.5,-148.162 131.045,-145.679"/>
</g>
<!-- Node24&#45;&gt;Node25 -->
<g id="edge60" class="edge"><title>Node24&#45;&gt;Node25</title>
<path fill="none" stroke="midnightblue" d="M109.91,-58.3619C98.3655,-49.7773 81.9164,-37.5459 68.6264,-27.6636"/>
<polygon fill="midnightblue" stroke="midnightblue" points="70.5456,-24.7291 60.4325,-21.5707 66.3687,-30.3463 70.5456,-24.7291"/>
</g>
<!-- Node28 -->
<g id="node61" class="node"><title>Node28</title>
<a xlink:href="../../dc/dfa/sincos_8h.html" target="_top" xlink:title="sincos.h">
<polygon fill="white" stroke="black" points="29.7168,-116.5 29.7168,-137.5 82.7168,-137.5 82.7168,-116.5 29.7168,-116.5"/>
<text text-anchor="middle" x="56.2168" y="-124.5" font-family="Helvetica,sans-Serif" font-size="10.00">sincos.h</text>
</a>
</g>
<!-- Node27&#45;&gt;Node28 -->
<g id="edge66" class="edge"><title>Node27&#45;&gt;Node28</title>
<path fill="none" stroke="midnightblue" d="M58.6665,-174.362C58.2817,-166.922 57.7552,-156.743 57.2889,-147.728"/>
<polygon fill="midnightblue" stroke="midnightblue" points="60.7755,-147.376 56.7635,-137.571 53.7849,-147.738 60.7755,-147.376"/>
</g>
<!-- Node28&#45;&gt;Node24 -->
<g id="edge68" class="edge"><title>Node28&#45;&gt;Node24</title>
<path fill="none" stroke="midnightblue" d="M68.689,-116.362C78.5621,-107.941 92.5493,-96.0105 104.015,-86.2308"/>
<polygon fill="midnightblue" stroke="midnightblue" points="106.487,-88.7231 111.824,-79.5707 101.944,-83.3972 106.487,-88.7231"/>
</g>
<!-- Node28&#45;&gt;Node25 -->
<g id="edge70" class="edge"><title>Node28&#45;&gt;Node25</title>
<path fill="none" stroke="midnightblue" d="M55.2939,-116.295C53.6419,-97.1314 50.1525,-56.654 48.0136,-31.8434"/>
<polygon fill="midnightblue" stroke="midnightblue" points="51.4834,-31.3416 47.1374,-21.6792 44.5093,-31.9429 51.4834,-31.3416"/>
</g>
<!-- Node31&#45;&gt;Node4 -->
<g id="edge82" class="edge"><title>Node31&#45;&gt;Node4</title>
<path fill="none" stroke="midnightblue" d="M471.143,-239.087C469.568,-224.244 466.26,-196.916 461.217,-174 459.283,-165.212 456.56,-155.67 454.028,-147.493"/>
<polygon fill="midnightblue" stroke="midnightblue" points="457.278,-146.166 450.894,-137.71 450.612,-148.301 457.278,-146.166"/>
</g>
<!-- Node32&#45;&gt;Node4 -->
<g id="edge90" class="edge"><title>Node32&#45;&gt;Node4</title>
<path fill="none" stroke="midnightblue" d="M600.58,-376.445C596.355,-360.346 587.302,-328.9 575.217,-304 544.493,-240.695 491.061,-176.17 463.98,-145.451"/>
<polygon fill="midnightblue" stroke="midnightblue" points="466.349,-142.849 457.082,-137.713 461.124,-147.507 466.349,-142.849"/>
</g>
<!-- Node32&#45;&gt;Node7 -->
<g id="edge92" class="edge"><title>Node32&#45;&gt;Node7</title>
<path fill="none" stroke="midnightblue" d="M605.105,-376.168C610.874,-344.322 629.216,-251.981 651.217,-232 676.511,-209.028 768.123,-195.852 826.946,-189.584"/>
<polygon fill="midnightblue" stroke="midnightblue" points="827.578,-193.037 837.165,-188.529 826.859,-186.074 827.578,-193.037"/>
</g>
<!-- Node32&#45;&gt;Node20 -->
<g id="edge94" class="edge"><title>Node32&#45;&gt;Node20</title>
<path fill="none" stroke="midnightblue" d="M579.109,-376.412C558.699,-367.448 528.813,-354.323 503.507,-343.209"/>
<polygon fill="midnightblue" stroke="midnightblue" points="504.625,-339.877 494.062,-339.06 501.81,-346.286 504.625,-339.877"/>
</g>
<!-- Node33 -->
<g id="node81" class="node"><title>Node33</title>
<polygon fill="white" stroke="#bfbfbf" points="531.717,-311.5 531.717,-332.5 566.717,-332.5 566.717,-311.5 531.717,-311.5"/>
<text text-anchor="middle" x="549.217" y="-319.5" font-family="Helvetica,sans-Serif" font-size="10.00">map</text>
</g>
<!-- Node32&#45;&gt;Node33 -->
<g id="edge96" class="edge"><title>Node32&#45;&gt;Node33</title>
<path fill="none" stroke="midnightblue" d="M594.3,-376.267C586.2,-366.517 574.083,-351.932 564.45,-340.336"/>
<polygon fill="midnightblue" stroke="midnightblue" points="567.05,-337.989 557.968,-332.534 561.666,-342.462 567.05,-337.989"/>
</g>
</g>
</svg>
        <g id="navigator" transform="translate(0 0)" fill="#404254">
                <rect fill="#f2f5e9" fill-opacity="0.5" stroke="#606060" stroke-width=".5" x="0" y="0" width="60" height="60"/>
                <use id="zoomplus" xlink:href="#zoomPlus" x="17" y="9" onmousedown="handleZoom(evt,'in')"/>
                <use id="zoomminus" xlink:href="#zoomMin" x="42" y="9" onmousedown="handleZoom(evt,'out')"/>
                <use id="reset" xlink:href="#resetDef" x="30" y="36" onmousedown="handleReset()"/>
                <g id="arrowUp" xlink:href="#dirArrow" transform="translate(30 24)" onmousedown="handlePan(0,-1)">
                  <use xlink:href="#rim" fill="#404040">
                        <set attributeName="fill" to="#808080" begin="arrowUp.mouseover" end="arrowUp.mouseout"/>
                  </use>
                  <path fill="none" stroke="white" stroke-width="1.5" d="M0,-3.0v7 M-2.5,-0.5L0,-3.0L2.5,-0.5"/>
                </g>
                <g id="arrowRight" xlink:href="#dirArrow" transform="rotate(90) translate(36 -43)" onmousedown="handlePan(1,0)">
                  <use xlink:href="#rim" fill="#404040">
                        <set attributeName="fill" to="#808080" begin="arrowRight.mouseover" end="arrowRight.mouseout"/>
                  </use>
                  <path fill="none" stroke="white" stroke-width="1.5" d="M0,-3.0v7 M-2.5,-0.5L0,-3.0L2.5,-0.5"/>
                </g>
                <g id="arrowDown" xlink:href="#dirArrow" transform="rotate(180) translate(-30 -48)" onmousedown="handlePan(0,1)">
                  <use xlink:href="#rim" fill="#404040">
                        <set attributeName="fill" to="#808080" begin="arrowDown.mouseover" end="arrowDown.mouseout"/>
                  </use>
                  <path fill="none" stroke="white" stroke-width="1.5" d="M0,-3.0v7 M-2.5,-0.5L0,-3.0L2.5,-0.5"/>
                </g>
                <g id="arrowLeft" xlink:href="#dirArrow" transform="rotate(270) translate(-36 17)" onmousedown="handlePan(-1,0)">
                  <use xlink:href="#rim" fill="#404040">
                        <set attributeName="fill" to="#808080" begin="arrowLeft.mouseover" end="arrowLeft.mouseout"/>
                  </use>
                  <path fill="none" stroke="white" stroke-width="1.5" d="M0,-3.0v7 M-2.5,-0.5L0,-3.0L2.5,-0.5"/>
                </g>
        </g>
        <svg viewBox="0 0 15 15" width="100%" height="30px" preserveAspectRatio="xMaxYMin meet">
         <g id="arrow_out" transform="scale(0.3 0.3)">
          <a xlink:href="Beams_8h__incl_org.svg" target="_base">
           <rect id="button" ry="5" rx="5" y="6" x="6" height="38" width="38"
                fill="#f2f5e9" fill-opacity="0.5" stroke="#606060" stroke-width="1.0"/>
           <path id="arrow"
             d="M 11.500037,31.436501 C 11.940474,20.09759 22.043105,11.32322 32.158766,21.979434 L 37.068811,17.246167 C 37.068811,17.246167 37.088388,32 37.088388,32 L 22.160133,31.978069 C 22.160133,31.978069 26.997745,27.140456 26.997745,27.140456 C 18.528582,18.264221 13.291696,25.230495 11.500037,31.436501 z"
             style="fill:#404040;"/>
          </a>
         </g>
        </svg>
</svg>
