<?xml version="1.0" encoding="UTF-8" standalone="no"?>
<!DOCTYPE svg PUBLIC "-//W3C//DTD SVG 1.1//EN"
 "http://www.w3.org/Graphics/SVG/1.1/DTD/svg11.dtd">
<!-- Generated by graphviz version 2.26.3 (20100126.1600)
 -->
<!-- Title: Beams.h Pages: 1 -->
<svg width="1498pt" height="522pt"
 viewBox="0.00 0.00 1498.00 522.00" xmlns="http://www.w3.org/2000/svg" xmlns:xlink="http://www.w3.org/1999/xlink">
<g id="graph1" class="graph" transform="scale(1 1) rotate(0) translate(4 518)">
<title>Beams.h</title>
<polygon fill="white" stroke="white" points="-4,5 -4,-518 1495,-518 1495,5 -4,5"/>
<!-- Node1 -->
<g id="node1" class="node"><title>Node1</title>
<polygon fill="#bfbfbf" stroke="black" points="581,-492.5 581,-513.5 637,-513.5 637,-492.5 581,-492.5"/>
<text text-anchor="middle" x="609" y="-500.5" font-family="Helvetica,sans-Serif" font-size="10.00">Beams.h</text>
</g>
<!-- Node2 -->
<g id="node3" class="node"><title>Node2</title>
<a xlink:href="../../d5/d87/globals_8h.html" target="_top" xlink:title="blond/globals.h">
<polygon fill="white" stroke="black" points="568,-434.5 568,-455.5 650,-455.5 650,-434.5 568,-434.5"/>
<text text-anchor="middle" x="609" y="-442.5" font-family="Helvetica,sans-Serif" font-size="10.00">blond/globals.h</text>
</a>
</g>
<!-- Node1&#45;&gt;Node2 -->
<g id="edge2" class="edge"><title>Node1&#45;&gt;Node2</title>
<path fill="none" stroke="midnightblue" d="M603.636,-492.362C602.319,-484.922 601.941,-474.743 602.5,-465.728"/>
<polygon fill="midnightblue" stroke="midnightblue" points="606.003,-465.9 603.648,-455.571 599.047,-465.114 606.003,-465.9"/>
</g>
<!-- Node3 -->
<g id="node5" class="node"><title>Node3</title>
<a xlink:href="../../d5/d34/GeneralParameters_8h.html" target="_top" xlink:title="blond/input_parameters\l/GeneralParameters.h">
<polygon fill="white" stroke="black" points="666,-233 666,-267 784,-267 784,-233 666,-233"/>
<text text-anchor="start" x="674" y="-254" font-family="Helvetica,sans-Serif" font-size="10.00">blond/input_parameters</text>
<text text-anchor="middle" x="725" y="-241" font-family="Helvetica,sans-Serif" font-size="10.00">/GeneralParameters.h</text>
</a>
</g>
<!-- Node1&#45;&gt;Node3 -->
<g id="edge104" class="edge"><title>Node1&#45;&gt;Node3</title>
<path fill="none" stroke="midnightblue" d="M637.203,-500.94C689.107,-496.499 796.521,-484.067 819,-456 865.039,-398.518 793.356,-314.848 751.593,-274.102"/>
<polygon fill="midnightblue" stroke="midnightblue" points="753.824,-271.392 744.179,-267.009 748.985,-276.451 753.824,-271.392"/>
</g>
<!-- Node4 -->
<g id="node7" class="node"><title>Node4</title>
<a xlink:href="../../d2/d2c/configuration_8h.html" target="_top" xlink:title="blond/configuration.h">
<polygon fill="white" stroke="black" points="453.5,-116.5 453.5,-137.5 560.5,-137.5 560.5,-116.5 453.5,-116.5"/>
<text text-anchor="middle" x="507" y="-124.5" font-family="Helvetica,sans-Serif" font-size="10.00">blond/configuration.h</text>
</a>
</g>
<!-- Node1&#45;&gt;Node4 -->
<g id="edge100" class="edge"><title>Node1&#45;&gt;Node4</title>
<path fill="none" stroke="midnightblue" d="M626.535,-492.406C684.428,-456.095 861.944,-333.319 793,-232 766.729,-193.393 640.638,-158.091 564.924,-139.902"/>
<polygon fill="midnightblue" stroke="midnightblue" points="565.582,-136.461 555.044,-137.556 563.965,-143.271 565.582,-136.461"/>
</g>
<!-- Node7 -->
<g id="node13" class="node"><title>Node7</title>
<a xlink:href="../../de/df0/utilities_8h.html" target="_top" xlink:title="blond/utilities.h">
<polygon fill="white" stroke="black" points="840,-174.5 840,-195.5 922,-195.5 922,-174.5 840,-174.5"/>
<text text-anchor="middle" x="881" y="-182.5" font-family="Helvetica,sans-Serif" font-size="10.00">blond/utilities.h</text>
</a>
</g>
<!-- Node1&#45;&gt;Node7 -->
<g id="edge102" class="edge"><title>Node1&#45;&gt;Node7</title>
<path fill="none" stroke="midnightblue" d="M637.104,-500.022C690.838,-493.883 805.686,-478.487 838,-456 867.659,-435.36 881,-423.134 881,-387 881,-387 881,-387 881,-322 881,-280.793 881,-232.614 881,-205.773"/>
<polygon fill="midnightblue" stroke="midnightblue" points="884.5,-205.658 881,-195.658 877.5,-205.658 884.5,-205.658"/>
</g>
<!-- Node20 -->
<g id="node42" class="node"><title>Node20</title>
<a xlink:href="../../d6/db7/RfParameters_8h.html" target="_top" xlink:title="blond/input_parameters\l/RfParameters.h">
<polygon fill="white" stroke="black" points="402,-305 402,-339 520,-339 520,-305 402,-305"/>
<text text-anchor="start" x="410" y="-326" font-family="Helvetica,sans-Serif" font-size="10.00">blond/input_parameters</text>
<text text-anchor="middle" x="461" y="-313" font-family="Helvetica,sans-Serif" font-size="10.00">/RfParameters.h</text>
</a>
</g>
<!-- Node1&#45;&gt;Node20 -->
<g id="edge106" class="edge"><title>Node1&#45;&gt;Node20</title>
<path fill="none" stroke="midnightblue" d="M589.28,-492.386C576.967,-483.224 561.836,-469.389 550,-456 518.787,-420.69 487.466,-375.818 471.254,-348.005"/>
<polygon fill="midnightblue" stroke="midnightblue" points="474.298,-346.278 466.357,-339.265 468.192,-349.7 474.298,-346.278"/>
</g>
<!-- Node2&#45;&gt;Node1 -->
<g id="edge88" class="edge"><title>Node2&#45;&gt;Node1</title>
<path fill="none" stroke="midnightblue" d="M614.352,-455.571C615.674,-462.994 616.059,-473.168 615.505,-482.191"/>
<polygon fill="midnightblue" stroke="midnightblue" points="612,-482.034 614.364,-492.362 618.957,-482.814 612,-482.034"/>
</g>
<!-- Node2&#45;&gt;Node3 -->
<g id="edge4" class="edge"><title>Node2&#45;&gt;Node3</title>
<path fill="none" stroke="midnightblue" d="M629.436,-434.347C643.448,-426.11 661.511,-413.507 673,-398 700.383,-361.038 714.269,-308.423 720.548,-276.9"/>
<polygon fill="midnightblue" stroke="midnightblue" points="723.987,-277.546 722.394,-267.071 717.108,-276.253 723.987,-277.546"/>
</g>
<!-- Node2&#45;&gt;Node20 -->
<g id="edge44" class="edge"><title>Node2&#45;&gt;Node20</title>
<path fill="none" stroke="midnightblue" d="M586.519,-434.408C571.496,-425.148 552.128,-411.161 536,-398 515.888,-381.588 494.185,-361.897 479.112,-346.67"/>
<polygon fill="midnightblue" stroke="midnightblue" points="481.334,-343.932 471.877,-339.155 476.291,-348.787 481.334,-343.932"/>
</g>
<!-- Node33 -->
<g id="node78" class="node"><title>Node33</title>
<a xlink:href="../../dc/df2/Slices_8h.html" target="_top" xlink:title="blond/beams/Slices.h">
<polygon fill="white" stroke="black" points="554,-376.5 554,-397.5 664,-397.5 664,-376.5 554,-376.5"/>
<text text-anchor="middle" x="609" y="-384.5" font-family="Helvetica,sans-Serif" font-size="10.00">blond/beams/Slices.h</text>
</a>
</g>
<!-- Node2&#45;&gt;Node33 -->
<g id="edge90" class="edge"><title>Node2&#45;&gt;Node33</title>
<path fill="none" stroke="midnightblue" d="M609,-434.362C609,-426.922 609,-416.743 609,-407.728"/>
<polygon fill="midnightblue" stroke="midnightblue" points="612.5,-407.571 609,-397.571 605.5,-407.571 612.5,-407.571"/>
</g>
<!-- Node3&#45;&gt;Node4 -->
<g id="edge6" class="edge"><title>Node3&#45;&gt;Node4</title>
<path fill="none" stroke="midnightblue" d="M702.836,-232.994C680.979,-216.671 646.257,-191.922 614,-174 591.646,-161.58 565.367,-149.997 544.446,-141.438"/>
<polygon fill="midnightblue" stroke="midnightblue" points="545.53,-138.101 534.946,-137.607 542.912,-144.593 545.53,-138.101"/>
</g>
<!-- Node6 -->
<g id="node11" class="node"><title>Node6</title>
<polygon fill="white" stroke="#bfbfbf" points="1446,-58.5 1446,-79.5 1490,-79.5 1490,-58.5 1446,-58.5"/>
<text text-anchor="middle" x="1468" y="-66.5" font-family="Helvetica,sans-Serif" font-size="10.00">vector</text>
</g>
<!-- Node3&#45;&gt;Node6 -->
<g id="edge42" class="edge"><title>Node3&#45;&gt;Node6</title>
<path fill="none" stroke="midnightblue" d="M784.1,-245.485C952.276,-232.045 1424.26,-189.975 1469,-138 1480.26,-124.921 1478.53,-104.716 1474.87,-89.5445"/>
<polygon fill="midnightblue" stroke="midnightblue" points="1478.13,-88.2145 1472.01,-79.5607 1471.4,-90.1375 1478.13,-88.2145"/>
</g>
<!-- Node3&#45;&gt;Node7 -->
<g id="edge12" class="edge"><title>Node3&#45;&gt;Node7</title>
<path fill="none" stroke="midnightblue" d="M765.987,-232.922C790.901,-222.541 822.372,-209.428 846.094,-199.544"/>
<polygon fill="midnightblue" stroke="midnightblue" points="847.535,-202.735 855.42,-195.658 844.843,-196.274 847.535,-202.735"/>
</g>
<!-- Node5 -->
<g id="node9" class="node"><title>Node5</title>
<polygon fill="white" stroke="#bfbfbf" points="480.5,-58.5 480.5,-79.5 533.5,-79.5 533.5,-58.5 480.5,-58.5"/>
<text text-anchor="middle" x="507" y="-66.5" font-family="Helvetica,sans-Serif" font-size="10.00">complex</text>
</g>
<!-- Node4&#45;&gt;Node5 -->
<g id="edge8" class="edge"><title>Node4&#45;&gt;Node5</title>
<path fill="none" stroke="midnightblue" d="M507,-116.362C507,-108.922 507,-98.7427 507,-89.7276"/>
<polygon fill="midnightblue" stroke="midnightblue" points="510.5,-89.5706 507,-79.5707 503.5,-89.5707 510.5,-89.5706"/>
</g>
<!-- Node4&#45;&gt;Node6 -->
<g id="edge10" class="edge"><title>Node4&#45;&gt;Node6</title>
<path fill="none" stroke="midnightblue" d="M560.709,-117.053C563.508,-116.666 566.285,-116.311 569,-116 906.29,-77.4114 1318.45,-70.4699 1435.58,-69.2523"/>
<polygon fill="midnightblue" stroke="midnightblue" points="1435.71,-72.7513 1445.68,-69.1542 1435.64,-65.7516 1435.71,-72.7513"/>
</g>
<!-- Node7&#45;&gt;Node4 -->
<g id="edge36" class="edge"><title>Node7&#45;&gt;Node4</title>
<path fill="none" stroke="midnightblue" d="M839.903,-176.509C835.221,-175.622 830.512,-174.767 826,-174 715.512,-155.229 684.644,-156.015 570.908,-138.26"/>
<polygon fill="midnightblue" stroke="midnightblue" points="571.171,-134.758 560.748,-136.659 570.082,-141.673 571.171,-134.758"/>
</g>
<!-- Node7&#45;&gt;Node6 -->
<g id="edge32" class="edge"><title>Node7&#45;&gt;Node6</title>
<path fill="none" stroke="midnightblue" d="M922.431,-184.27C1046.45,-181.715 1408.68,-171.436 1449,-138 1462.93,-126.448 1467.16,-105.706 1468.22,-89.9706"/>
<polygon fill="midnightblue" stroke="midnightblue" points="1471.73,-89.6984 1468.52,-79.6004 1464.73,-89.4938 1471.73,-89.6984"/>
</g>
<!-- Node8 -->
<g id="node15" class="node"><title>Node8</title>
<polygon fill="white" stroke="#bfbfbf" points="1204,-116.5 1204,-137.5 1250,-137.5 1250,-116.5 1204,-116.5"/>
<text text-anchor="middle" x="1227" y="-124.5" font-family="Helvetica,sans-Serif" font-size="10.00">chrono</text>
</g>
<!-- Node7&#45;&gt;Node8 -->
<g id="edge14" class="edge"><title>Node7&#45;&gt;Node8</title>
<path fill="none" stroke="midnightblue" d="M922.109,-181.264C980.65,-175.419 1091.42,-162.415 1193.84,-137.953"/>
<polygon fill="midnightblue" stroke="midnightblue" points="1194.84,-141.313 1203.73,-135.55 1193.18,-134.511 1194.84,-141.313"/>
</g>
<!-- Node9 -->
<g id="node17" class="node"><title>Node9</title>
<polygon fill="white" stroke="#bfbfbf" points="1267.5,-116.5 1267.5,-137.5 1310.5,-137.5 1310.5,-116.5 1267.5,-116.5"/>
<text text-anchor="middle" x="1289" y="-124.5" font-family="Helvetica,sans-Serif" font-size="10.00">cstdio</text>
</g>
<!-- Node7&#45;&gt;Node9 -->
<g id="edge16" class="edge"><title>Node7&#45;&gt;Node9</title>
<path fill="none" stroke="midnightblue" d="M922.104,-182.957C990.346,-178.904 1131.26,-167.73 1257.4,-137.999"/>
<polygon fill="midnightblue" stroke="midnightblue" points="1258.32,-141.377 1267.22,-135.637 1256.68,-134.571 1258.32,-141.377"/>
</g>
<!-- Node10 -->
<g id="node19" class="node"><title>Node10</title>
<polygon fill="white" stroke="#bfbfbf" points="1327.5,-116.5 1327.5,-137.5 1372.5,-137.5 1372.5,-116.5 1327.5,-116.5"/>
<text text-anchor="middle" x="1350" y="-124.5" font-family="Helvetica,sans-Serif" font-size="10.00">cstdlib</text>
</g>
<!-- Node7&#45;&gt;Node10 -->
<g id="edge18" class="edge"><title>Node7&#45;&gt;Node10</title>
<path fill="none" stroke="midnightblue" d="M922.287,-183.782C998.902,-180.833 1168.16,-171.082 1317.68,-137.893"/>
<polygon fill="midnightblue" stroke="midnightblue" points="1318.51,-141.293 1327.49,-135.673 1316.97,-134.465 1318.51,-141.293"/>
</g>
<!-- Node11 -->
<g id="node21" class="node"><title>Node11</title>
<polygon fill="white" stroke="#bfbfbf" points="1390,-116.5 1390,-137.5 1440,-137.5 1440,-116.5 1390,-116.5"/>
<text text-anchor="middle" x="1415" y="-124.5" font-family="Helvetica,sans-Serif" font-size="10.00">fstream</text>
</g>
<!-- Node7&#45;&gt;Node11 -->
<g id="edge20" class="edge"><title>Node7&#45;&gt;Node11</title>
<path fill="none" stroke="midnightblue" d="M922.281,-184.17C1006.81,-181.816 1205.65,-172.931 1380.05,-137.814"/>
<polygon fill="midnightblue" stroke="midnightblue" points="1380.82,-141.229 1389.91,-135.794 1379.42,-134.371 1380.82,-141.229"/>
</g>
<!-- Node12 -->
<g id="node23" class="node"><title>Node12</title>
<polygon fill="white" stroke="#bfbfbf" points="578,-116.5 578,-137.5 632,-137.5 632,-116.5 578,-116.5"/>
<text text-anchor="middle" x="605" y="-124.5" font-family="Helvetica,sans-Serif" font-size="10.00">iostream</text>
</g>
<!-- Node7&#45;&gt;Node12 -->
<g id="edge22" class="edge"><title>Node7&#45;&gt;Node12</title>
<path fill="none" stroke="midnightblue" d="M839.859,-176.748C835.185,-175.817 830.49,-174.886 826,-174 746.869,-158.388 723.958,-158.254 641.811,-138.024"/>
<polygon fill="midnightblue" stroke="midnightblue" points="642.591,-134.612 632.042,-135.594 640.901,-141.405 642.591,-134.612"/>
</g>
<!-- Node13 -->
<g id="node25" class="node"><title>Node13</title>
<polygon fill="white" stroke="#bfbfbf" points="649.5,-116.5 649.5,-137.5 696.5,-137.5 696.5,-116.5 649.5,-116.5"/>
<text text-anchor="middle" x="673" y="-124.5" font-family="Helvetica,sans-Serif" font-size="10.00">iterator</text>
</g>
<!-- Node7&#45;&gt;Node13 -->
<g id="edge24" class="edge"><title>Node7&#45;&gt;Node13</title>
<path fill="none" stroke="midnightblue" d="M839.872,-174.886C806.224,-166.418 757.211,-153.642 706.523,-138.344"/>
<polygon fill="midnightblue" stroke="midnightblue" points="707.291,-134.92 696.705,-135.356 705.252,-141.616 707.291,-134.92"/>
</g>
<!-- Node14 -->
<g id="node27" class="node"><title>Node14</title>
<polygon fill="white" stroke="#bfbfbf" points="714,-116.5 714,-137.5 766,-137.5 766,-116.5 714,-116.5"/>
<text text-anchor="middle" x="740" y="-124.5" font-family="Helvetica,sans-Serif" font-size="10.00">memory</text>
</g>
<!-- Node7&#45;&gt;Node14 -->
<g id="edge26" class="edge"><title>Node7&#45;&gt;Node14</title>
<path fill="none" stroke="midnightblue" d="M855.466,-174.497C833.047,-165.275 800.215,-151.769 775.287,-141.515"/>
<polygon fill="midnightblue" stroke="midnightblue" points="776.4,-138.189 765.821,-137.621 773.737,-144.662 776.4,-138.189"/>
</g>
<!-- Node15 -->
<g id="node29" class="node"><title>Node15</title>
<polygon fill="white" stroke="#bfbfbf" points="784,-116.5 784,-137.5 836,-137.5 836,-116.5 784,-116.5"/>
<text text-anchor="middle" x="810" y="-124.5" font-family="Helvetica,sans-Serif" font-size="10.00">sstream</text>
</g>
<!-- Node7&#45;&gt;Node15 -->
<g id="edge28" class="edge"><title>Node7&#45;&gt;Node15</title>
<path fill="none" stroke="midnightblue" d="M867.978,-174.362C857.569,-165.859 842.781,-153.779 830.745,-143.947"/>
<polygon fill="midnightblue" stroke="midnightblue" points="832.899,-141.187 822.94,-137.571 828.47,-146.608 832.899,-141.187"/>
</g>
<!-- Node16 -->
<g id="node31" class="node"><title>Node16</title>
<polygon fill="white" stroke="#bfbfbf" points="853.5,-116.5 853.5,-137.5 894.5,-137.5 894.5,-116.5 853.5,-116.5"/>
<text text-anchor="middle" x="874" y="-124.5" font-family="Helvetica,sans-Serif" font-size="10.00">string</text>
</g>
<!-- Node7&#45;&gt;Node16 -->
<g id="edge30" class="edge"><title>Node7&#45;&gt;Node16</title>
<path fill="none" stroke="midnightblue" d="M879.716,-174.362C878.818,-166.922 877.59,-156.743 876.502,-147.728"/>
<polygon fill="midnightblue" stroke="midnightblue" points="879.949,-147.079 875.276,-137.571 872.999,-147.918 879.949,-147.079"/>
</g>
<!-- Node17 -->
<g id="node34" class="node"><title>Node17</title>
<polygon fill="white" stroke="#bfbfbf" points="912,-116.5 912,-137.5 972,-137.5 972,-116.5 912,-116.5"/>
<text text-anchor="middle" x="942" y="-124.5" font-family="Helvetica,sans-Serif" font-size="10.00">sys/stat.h</text>
</g>
<!-- Node7&#45;&gt;Node17 -->
<g id="edge34" class="edge"><title>Node7&#45;&gt;Node17</title>
<path fill="none" stroke="midnightblue" d="M892.188,-174.362C900.959,-166.023 913.349,-154.242 923.578,-144.516"/>
<polygon fill="midnightblue" stroke="midnightblue" points="926.047,-146.998 930.883,-137.571 921.224,-141.925 926.047,-146.998"/>
</g>
<!-- Node18 -->
<g id="node37" class="node"><title>Node18</title>
<polygon fill="white" stroke="#bfbfbf" points="989.5,-116.5 989.5,-137.5 1064.5,-137.5 1064.5,-116.5 989.5,-116.5"/>
<text text-anchor="middle" x="1027" y="-124.5" font-family="Helvetica,sans-Serif" font-size="10.00">mm_malloc.h</text>
</g>
<!-- Node7&#45;&gt;Node18 -->
<g id="edge38" class="edge"><title>Node7&#45;&gt;Node18</title>
<path fill="none" stroke="midnightblue" d="M907.439,-174.497C930.756,-165.234 964.95,-151.65 990.804,-141.379"/>
<polygon fill="midnightblue" stroke="midnightblue" points="992.263,-144.566 1000.26,-137.621 989.678,-138.06 992.263,-144.566"/>
</g>
<!-- Node19 -->
<g id="node39" class="node"><title>Node19</title>
<a xlink:href="../../da/d69/optionparser_8h.html" target="_top" xlink:title="This is the only file required to use The Lean Mean C++ Option Parser. Just #include it and you&#39;re se...">
<polygon fill="white" stroke="black" points="1082,-116.5 1082,-137.5 1186,-137.5 1186,-116.5 1082,-116.5"/>
<text text-anchor="middle" x="1134" y="-124.5" font-family="Helvetica,sans-Serif" font-size="10.00">blond/optionparser.h</text>
</a>
</g>
<!-- Node7&#45;&gt;Node19 -->
<g id="edge40" class="edge"><title>Node7&#45;&gt;Node19</title>
<path fill="none" stroke="midnightblue" d="M922.212,-175.552C964.697,-165.813 1031.21,-150.566 1078.34,-139.759"/>
<polygon fill="midnightblue" stroke="midnightblue" points="1079.13,-143.17 1088.09,-137.524 1077.56,-136.347 1079.13,-143.17"/>
</g>
<!-- Node20&#45;&gt;Node1 -->
<g id="edge46" class="edge"><title>Node20&#45;&gt;Node1</title>
<path fill="none" stroke="midnightblue" d="M477.889,-339.265C498.383,-365.551 533.259,-416.699 568,-456 577.062,-466.251 588.055,-476.763 596.612,-485.24"/>
<polygon fill="midnightblue" stroke="midnightblue" points="594.145,-487.723 603.659,-492.386 599.129,-482.808 594.145,-487.723"/>
</g>
<!-- Node20&#45;&gt;Node2 -->
<g id="edge86" class="edge"><title>Node20&#45;&gt;Node2</title>
<path fill="none" stroke="midnightblue" d="M485.882,-339.155C504.571,-354.932 530.383,-378.728 554,-398 566.642,-408.316 581.274,-419.139 592.465,-427.796"/>
<polygon fill="midnightblue" stroke="midnightblue" points="590.582,-430.769 600.599,-434.223 594.922,-425.277 590.582,-430.769"/>
</g>
<!-- Node20&#45;&gt;Node3 -->
<g id="edge48" class="edge"><title>Node20&#45;&gt;Node3</title>
<path fill="none" stroke="midnightblue" d="M520.247,-305.842C560.499,-294.864 613.876,-280.307 656.039,-268.807"/>
<polygon fill="midnightblue" stroke="midnightblue" points="657.224,-272.112 665.951,-266.104 655.382,-265.359 657.224,-272.112"/>
</g>
<!-- Node21 -->
<g id="node46" class="node"><title>Node21</title>
<a xlink:href="../../d2/de2/math__functions_8h.html" target="_top" xlink:title="blond/math_functions.h">
<polygon fill="white" stroke="black" points="297,-239.5 297,-260.5 415,-260.5 415,-239.5 297,-239.5"/>
<text text-anchor="middle" x="356" y="-247.5" font-family="Helvetica,sans-Serif" font-size="10.00">blond/math_functions.h</text>
</a>
</g>
<!-- Node20&#45;&gt;Node21 -->
<g id="edge50" class="edge"><title>Node20&#45;&gt;Node21</title>
<path fill="none" stroke="midnightblue" d="M436.116,-304.937C419.231,-293.358 397.017,-278.126 380.264,-266.638"/>
<polygon fill="midnightblue" stroke="midnightblue" points="381.813,-263.457 371.587,-260.688 377.855,-269.23 381.813,-263.457"/>
</g>
<!-- Node32 -->
<g id="node73" class="node"><title>Node32</title>
<a xlink:href="../../d2/d6f/constants_8h.html" target="_top" xlink:title="blond/constants.h">
<polygon fill="white" stroke="black" points="456,-239.5 456,-260.5 550,-260.5 550,-239.5 456,-239.5"/>
<text text-anchor="middle" x="503" y="-247.5" font-family="Helvetica,sans-Serif" font-size="10.00">blond/constants.h</text>
</a>
</g>
<!-- Node20&#45;&gt;Node32 -->
<g id="edge82" class="edge"><title>Node20&#45;&gt;Node32</title>
<path fill="none" stroke="midnightblue" d="M470.953,-304.937C477.107,-294.387 485.03,-280.805 491.459,-269.785"/>
<polygon fill="midnightblue" stroke="midnightblue" points="494.626,-271.302 496.641,-260.901 488.579,-267.775 494.626,-271.302"/>
</g>
<!-- Node21&#45;&gt;Node4 -->
<g id="edge54" class="edge"><title>Node21&#45;&gt;Node4</title>
<path fill="none" stroke="midnightblue" d="M374.591,-239.483C391.95,-229.304 418.227,-212.962 439,-196 458.167,-180.35 477.762,-159.898 490.964,-145.333"/>
<polygon fill="midnightblue" stroke="midnightblue" points="493.893,-147.308 497.946,-137.518 488.673,-142.644 493.893,-147.308"/>
</g>
<!-- Node21&#45;&gt;Node7 -->
<g id="edge72" class="edge"><title>Node21&#45;&gt;Node7</title>
<path fill="none" stroke="midnightblue" d="M404.978,-239.496C418.547,-236.809 433.309,-234.091 447,-232 584.765,-210.957 748.542,-195.894 829.881,-189.078"/>
<polygon fill="midnightblue" stroke="midnightblue" points="830.181,-192.565 839.857,-188.249 829.601,-185.589 830.181,-192.565"/>
</g>
<!-- Node22 -->
<g id="node48" class="node"><title>Node22</title>
<polygon fill="white" stroke="#bfbfbf" points="170,-174.5 170,-195.5 226,-195.5 226,-174.5 170,-174.5"/>
<text text-anchor="middle" x="198" y="-182.5" font-family="Helvetica,sans-Serif" font-size="10.00">algorithm</text>
</g>
<!-- Node21&#45;&gt;Node22 -->
<g id="edge52" class="edge"><title>Node21&#45;&gt;Node22</title>
<path fill="none" stroke="midnightblue" d="M330.263,-239.412C303.866,-228.552 262.618,-211.583 233.208,-199.484"/>
<polygon fill="midnightblue" stroke="midnightblue" points="234.306,-196.151 223.726,-195.584 231.642,-202.625 234.306,-196.151"/>
</g>
<!-- Node23 -->
<g id="node51" class="node"><title>Node23</title>
<a xlink:href="../../d8/dcd/exp_8h.html" target="_top" xlink:title="blond/exp.h">
<polygon fill="white" stroke="black" points="281.5,-174.5 281.5,-195.5 348.5,-195.5 348.5,-174.5 281.5,-174.5"/>
<text text-anchor="middle" x="315" y="-182.5" font-family="Helvetica,sans-Serif" font-size="10.00">blond/exp.h</text>
</a>
</g>
<!-- Node21&#45;&gt;Node23 -->
<g id="edge56" class="edge"><title>Node21&#45;&gt;Node23</title>
<path fill="none" stroke="midnightblue" d="M349.23,-239.267C343.2,-229.707 334.236,-215.496 326.994,-204.015"/>
<polygon fill="midnightblue" stroke="midnightblue" points="329.94,-202.124 321.644,-195.534 324.019,-205.859 329.94,-202.124"/>
</g>
<!-- Node25 -->
<g id="node55" class="node"><title>Node25</title>
<polygon fill="white" stroke="#bfbfbf" points="319,-0.5 319,-21.5 363,-21.5 363,-0.5 319,-0.5"/>
<text text-anchor="middle" x="341" y="-8.5" font-family="Helvetica,sans-Serif" font-size="10.00">cmath</text>
</g>
<!-- Node21&#45;&gt;Node25 -->
<g id="edge74" class="edge"><title>Node21&#45;&gt;Node25</title>
<path fill="none" stroke="midnightblue" d="M326.563,-239.449C307.546,-230.916 284.311,-216.853 273,-196 243.695,-141.972 251.139,-111.154 282,-58 289.283,-45.4554 301.31,-34.9675 312.611,-27.1049"/>
<polygon fill="midnightblue" stroke="midnightblue" points="314.561,-30.0114 321.021,-21.6136 310.734,-24.1502 314.561,-30.0114"/>
</g>
<!-- Node27 -->
<g id="node59" class="node"><title>Node27</title>
<a xlink:href="../../d1/d3d/sin_8h.html" target="_top" xlink:title="blond/sin.h">
<polygon fill="white" stroke="black" points="366,-174.5 366,-195.5 430,-195.5 430,-174.5 366,-174.5"/>
<text text-anchor="middle" x="398" y="-182.5" font-family="Helvetica,sans-Serif" font-size="10.00">blond/sin.h</text>
</a>
</g>
<!-- Node21&#45;&gt;Node27 -->
<g id="edge64" class="edge"><title>Node21&#45;&gt;Node27</title>
<path fill="none" stroke="midnightblue" d="M362.935,-239.267C369.113,-229.707 378.295,-215.496 385.713,-204.015"/>
<polygon fill="midnightblue" stroke="midnightblue" points="388.706,-205.832 391.194,-195.534 382.827,-202.033 388.706,-205.832"/>
</g>
<!-- Node29 -->
<g id="node67" class="node"><title>Node29</title>
<polygon fill="white" stroke="#bfbfbf" points="485.5,-174.5 485.5,-195.5 534.5,-195.5 534.5,-174.5 485.5,-174.5"/>
<text text-anchor="middle" x="510" y="-182.5" font-family="Helvetica,sans-Serif" font-size="10.00">random</text>
</g>
<!-- Node21&#45;&gt;Node29 -->
<g id="edge76" class="edge"><title>Node21&#45;&gt;Node29</title>
<path fill="none" stroke="midnightblue" d="M381.086,-239.412C406.967,-228.488 447.497,-211.381 476.194,-199.269"/>
<polygon fill="midnightblue" stroke="midnightblue" points="477.583,-202.482 485.435,-195.369 474.861,-196.033 477.583,-202.482"/>
</g>
<!-- Node30 -->
<g id="node69" class="node"><title>Node30</title>
<polygon fill="white" stroke="#bfbfbf" points="-0.5,-174.5 -0.5,-195.5 48.5,-195.5 48.5,-174.5 -0.5,-174.5"/>
<text text-anchor="middle" x="24" y="-182.5" font-family="Helvetica,sans-Serif" font-size="10.00">cassert</text>
</g>
<!-- Node21&#45;&gt;Node30 -->
<g id="edge78" class="edge"><title>Node21&#45;&gt;Node30</title>
<path fill="none" stroke="midnightblue" d="M296.744,-241.856C238.223,-233.239 146.108,-218.137 58.5758,-196.173"/>
<polygon fill="midnightblue" stroke="midnightblue" points="59.3073,-192.747 48.7531,-193.674 57.5813,-199.531 59.3073,-192.747"/>
</g>
<!-- Node31 -->
<g id="node71" class="node"><title>Node31</title>
<a xlink:href="../../d1/db0/openmp_8h.html" target="_top" xlink:title="blond/openmp.h">
<polygon fill="white" stroke="black" points="66,-174.5 66,-195.5 152,-195.5 152,-174.5 66,-174.5"/>
<text text-anchor="middle" x="109" y="-182.5" font-family="Helvetica,sans-Serif" font-size="10.00">blond/openmp.h</text>
</a>
</g>
<!-- Node21&#45;&gt;Node31 -->
<g id="edge80" class="edge"><title>Node21&#45;&gt;Node31</title>
<path fill="none" stroke="midnightblue" d="M316.041,-239.484C273.173,-228.204 205.027,-210.27 158.723,-198.085"/>
<polygon fill="midnightblue" stroke="midnightblue" points="159.463,-194.661 148.902,-195.501 157.682,-201.43 159.463,-194.661"/>
</g>
<!-- Node24 -->
<g id="node53" class="node"><title>Node24</title>
<a xlink:href="../../df/de1/vdtcore__common_8h.html" target="_top" xlink:title="vdtcore_common.h">
<polygon fill="white" stroke="black" points="291,-58.5 291,-79.5 391,-79.5 391,-58.5 291,-58.5"/>
<text text-anchor="middle" x="341" y="-66.5" font-family="Helvetica,sans-Serif" font-size="10.00">vdtcore_common.h</text>
</a>
</g>
<!-- Node23&#45;&gt;Node24 -->
<g id="edge58" class="edge"><title>Node23&#45;&gt;Node24</title>
<path fill="none" stroke="midnightblue" d="M319.259,-174.339C322.87,-164.919 327.936,-150.739 331,-138 334.803,-122.186 337.369,-103.962 338.949,-90.2161"/>
<polygon fill="midnightblue" stroke="midnightblue" points="342.471,-90.1876 340.049,-79.8734 335.511,-89.447 342.471,-90.1876"/>
</g>
<!-- Node26 -->
<g id="node57" class="node"><title>Node26</title>
<polygon fill="white" stroke="#bfbfbf" points="282,-116.5 282,-137.5 322,-137.5 322,-116.5 282,-116.5"/>
<text text-anchor="middle" x="302" y="-124.5" font-family="Helvetica,sans-Serif" font-size="10.00">limits</text>
</g>
<!-- Node23&#45;&gt;Node26 -->
<g id="edge62" class="edge"><title>Node23&#45;&gt;Node26</title>
<path fill="none" stroke="midnightblue" d="M312.616,-174.362C310.93,-166.84 308.616,-156.519 306.579,-147.431"/>
<polygon fill="midnightblue" stroke="midnightblue" points="309.972,-146.563 304.369,-137.571 303.141,-148.094 309.972,-146.563"/>
</g>
<!-- Node24&#45;&gt;Node25 -->
<g id="edge60" class="edge"><title>Node24&#45;&gt;Node25</title>
<path fill="none" stroke="midnightblue" d="M341,-58.3619C341,-50.9219 341,-40.7427 341,-31.7276"/>
<polygon fill="midnightblue" stroke="midnightblue" points="344.5,-31.5706 341,-21.5707 337.5,-31.5707 344.5,-31.5706"/>
</g>
<!-- Node28 -->
<g id="node61" class="node"><title>Node28</title>
<a xlink:href="../../dc/dfa/sincos_8h.html" target="_top" xlink:title="sincos.h">
<polygon fill="white" stroke="black" points="377.5,-116.5 377.5,-137.5 430.5,-137.5 430.5,-116.5 377.5,-116.5"/>
<text text-anchor="middle" x="404" y="-124.5" font-family="Helvetica,sans-Serif" font-size="10.00">sincos.h</text>
</a>
</g>
<!-- Node27&#45;&gt;Node28 -->
<g id="edge66" class="edge"><title>Node27&#45;&gt;Node28</title>
<path fill="none" stroke="midnightblue" d="M399.1,-174.362C399.87,-166.922 400.923,-156.743 401.856,-147.728"/>
<polygon fill="midnightblue" stroke="midnightblue" points="405.359,-147.878 402.906,-137.571 398.396,-147.157 405.359,-147.878"/>
</g>
<!-- Node28&#45;&gt;Node24 -->
<g id="edge68" class="edge"><title>Node28&#45;&gt;Node24</title>
<path fill="none" stroke="midnightblue" d="M392.445,-116.362C383.387,-108.023 370.59,-96.2418 360.026,-86.5162"/>
<polygon fill="midnightblue" stroke="midnightblue" points="362.21,-83.7688 352.482,-79.5707 357.468,-88.9187 362.21,-83.7688"/>
</g>
<!-- Node28&#45;&gt;Node25 -->
<g id="edge70" class="edge"><title>Node28&#45;&gt;Node25</title>
<path fill="none" stroke="midnightblue" d="M405.918,-116.49C407.963,-102.333 409.715,-76.7515 400,-58 393.375,-45.2129 381.555,-34.7389 370.225,-26.9502"/>
<polygon fill="midnightblue" stroke="midnightblue" points="372.06,-23.969 361.751,-21.5238 368.285,-29.864 372.06,-23.969"/>
</g>
<!-- Node32&#45;&gt;Node4 -->
<g id="edge84" class="edge"><title>Node32&#45;&gt;Node4</title>
<path fill="none" stroke="midnightblue" d="M514.308,-239.239C524.038,-229.138 537.369,-213.062 543,-196 546.064,-186.715 546.139,-183.26 543,-174 539.387,-163.341 532.278,-153.201 525.325,-145.087"/>
<polygon fill="midnightblue" stroke="midnightblue" points="527.896,-142.712 518.56,-137.704 522.735,-147.441 527.896,-142.712"/>
</g>
<!-- Node33&#45;&gt;Node4 -->
<g id="edge92" class="edge"><title>Node33&#45;&gt;Node4</title>
<path fill="none" stroke="midnightblue" d="M608.704,-376.432C607.36,-343.912 599.932,-243.348 559,-174 552.138,-162.374 541.458,-151.998 531.558,-143.972"/>
<polygon fill="midnightblue" stroke="midnightblue" points="533.59,-141.12 523.526,-137.807 529.328,-146.672 533.59,-141.12"/>
</g>
<!-- Node33&#45;&gt;Node7 -->
<g id="edge94" class="edge"><title>Node33&#45;&gt;Node7</title>
<path fill="none" stroke="midnightblue" d="M610.891,-376.171C616.667,-344.332 635.026,-252.01 657,-232 681.805,-209.412 771.347,-196.173 829.431,-189.778"/>
<polygon fill="midnightblue" stroke="midnightblue" points="829.96,-193.241 839.532,-188.7 829.217,-186.281 829.96,-193.241"/>
</g>
<!-- Node33&#45;&gt;Node20 -->
<g id="edge96" class="edge"><title>Node33&#45;&gt;Node20</title>
<path fill="none" stroke="midnightblue" d="M584.892,-376.412C564.483,-367.448 534.596,-354.323 509.29,-343.209"/>
<polygon fill="midnightblue" stroke="midnightblue" points="510.409,-339.877 499.845,-339.06 507.594,-346.286 510.409,-339.877"/>
</g>
<!-- Node34 -->
<g id="node83" class="node"><title>Node34</title>
<polygon fill="white" stroke="#bfbfbf" points="537.5,-311.5 537.5,-332.5 572.5,-332.5 572.5,-311.5 537.5,-311.5"/>
<text text-anchor="middle" x="555" y="-319.5" font-family="Helvetica,sans-Serif" font-size="10.00">map</text>
</g>
<!-- Node33&#45;&gt;Node34 -->
<g id="edge98" class="edge"><title>Node33&#45;&gt;Node34</title>
<path fill="none" stroke="midnightblue" d="M600.083,-376.267C591.984,-366.517 579.866,-351.932 570.233,-340.336"/>
<polygon fill="midnightblue" stroke="midnightblue" points="572.833,-337.989 563.751,-332.534 567.449,-342.462 572.833,-337.989"/>
</g>
</g>
</svg>
