<?xml version="1.0" encoding="UTF-8" standalone="no"?>
<!DOCTYPE svg PUBLIC "-//W3C//DTD SVG 1.1//EN"
 "http://www.w3.org/Graphics/SVG/1.1/DTD/svg11.dtd">
<!-- Generated by graphviz version 2.26.3 (20100126.1600)
 -->
<!-- Title: blond::mymath::fast_sin Pages: 1 -->
<svg width="698pt" height="120pt"
 viewBox="0.00 0.00 698.00 120.00" xmlns="http://www.w3.org/2000/svg" xmlns:xlink="http://www.w3.org/1999/xlink">
<g id="graph1" class="graph" transform="scale(1 1) rotate(0) translate(4 116)">
<title>blond::mymath::fast_sin</title>
<polygon fill="white" stroke="white" points="-4,5 -4,-116 695,-116 695,5 -4,5"/>
<!-- Node1 -->
<g id="node1" class="node"><title>Node1</title>
<polygon fill="#bfbfbf" stroke="black" points="0,-58.5 0,-79.5 122,-79.5 122,-58.5 0,-58.5"/>
<text text-anchor="middle" x="61" y="-66.5" font-family="Helvetica,sans-Serif" font-size="10.00">blond::mymath::fast_sin</text>
</g>
<!-- Node2 -->
<g id="node3" class="node"><title>Node2</title>
<a xlink:href="../../df/d63/namespaceblond_1_1vdt.html#ae8ed88b8591aa51524029d3a7aceb2b7" target="_top" xlink:title="Double precision sine: just call sincos.">
<polygon fill="white" stroke="black" points="158,-58.5 158,-79.5 258,-79.5 258,-58.5 158,-58.5"/>
<text text-anchor="middle" x="208" y="-66.5" font-family="Helvetica,sans-Serif" font-size="10.00">blond::vdt::fast_sin</text>
</a>
</g>
<!-- Node1&#45;&gt;Node2 -->
<g id="edge2" class="edge"><title>Node1&#45;&gt;Node2</title>
<path fill="none" stroke="midnightblue" d="M122.064,-69C130.476,-69 139.112,-69 147.514,-69"/>
<polygon fill="midnightblue" stroke="midnightblue" points="147.615,-72.5001 157.615,-69 147.615,-65.5001 147.615,-72.5001"/>
</g>
<!-- Node3 -->
<g id="node5" class="node"><title>Node3</title>
<a xlink:href="../../df/d63/namespaceblond_1_1vdt.html#a5f8658f62b3ef888d46522c0b4bcb785" target="_top" xlink:title="Double precision sincos.">
<polygon fill="white" stroke="black" points="294,-58.5 294,-79.5 410,-79.5 410,-58.5 294,-58.5"/>
<text text-anchor="middle" x="352" y="-66.5" font-family="Helvetica,sans-Serif" font-size="10.00">blond::vdt::fast_sincos</text>
</a>
</g>
<!-- Node2&#45;&gt;Node3 -->
<g id="edge4" class="edge"><title>Node2&#45;&gt;Node3</title>
<path fill="none" stroke="midnightblue" d="M258.364,-69C266.437,-69 274.909,-69 283.321,-69"/>
<polygon fill="midnightblue" stroke="midnightblue" points="283.521,-72.5001 293.521,-69 283.52,-65.5001 283.521,-72.5001"/>
</g>
<!-- Node4 -->
<g id="node7" class="node"><title>Node4</title>
<a xlink:href="../../d0/dad/namespaceblond_1_1vdt_1_1details.html#a71961342755aa7fdf6302a229da05aa6" target="_top" xlink:title="Reduce to 0 to 45.">
<polygon fill="white" stroke="black" points="455.5,-78 455.5,-112 550.5,-112 550.5,-78 455.5,-78"/>
<text text-anchor="start" x="463.5" y="-99" font-family="Helvetica,sans-Serif" font-size="10.00">blond::vdt::details</text>
<text text-anchor="middle" x="503" y="-86" font-family="Helvetica,sans-Serif" font-size="10.00">::reduce2quadrant</text>
</a>
</g>
<!-- Node3&#45;&gt;Node4 -->
<g id="edge6" class="edge"><title>Node3&#45;&gt;Node4</title>
<path fill="none" stroke="midnightblue" d="M410.381,-79.0523C421.691,-80.9997 433.542,-83.0403 444.845,-84.9865"/>
<polygon fill="midnightblue" stroke="midnightblue" points="444.591,-88.4942 455.04,-86.7419 445.778,-81.5957 444.591,-88.4942"/>
</g>
<!-- Node5 -->
<g id="node9" class="node"><title>Node5</title>
<a xlink:href="../../d0/dad/namespaceblond_1_1vdt_1_1details.html#abc6ff14d4237c2a56fd976a2b34c4285" target="_top" xlink:title="Sincos only for &#45;45deg &lt; x &lt; 45deg.">
<polygon fill="white" stroke="black" points="446.5,-26 446.5,-60 559.5,-60 559.5,-26 446.5,-26"/>
<text text-anchor="start" x="454.5" y="-47" font-family="Helvetica,sans-Serif" font-size="10.00">blond::vdt::details</text>
<text text-anchor="middle" x="503" y="-34" font-family="Helvetica,sans-Serif" font-size="10.00">::fast_sincos_m45_45</text>
</a>
</g>
<!-- Node3&#45;&gt;Node5 -->
<g id="edge8" class="edge"><title>Node3&#45;&gt;Node5</title>
<path fill="none" stroke="midnightblue" d="M410.381,-58.9477C418.851,-57.4893 427.625,-55.9786 436.244,-54.4944"/>
<polygon fill="midnightblue" stroke="midnightblue" points="437.004,-57.9152 446.265,-52.769 435.816,-51.0167 437.004,-57.9152"/>
</g>
<!-- Node6 -->
<g id="node11" class="node"><title>Node6</title>
<a xlink:href="../../d0/dad/namespaceblond_1_1vdt_1_1details.html#aeb1305422832914b75f04731bea5e04d" target="_top" xlink:title="blond::vdt::details\l::get_sin_px">
<polygon fill="white" stroke="black" points="596,-52 596,-86 690,-86 690,-52 596,-52"/>
<text text-anchor="start" x="604" y="-73" font-family="Helvetica,sans-Serif" font-size="10.00">blond::vdt::details</text>
<text text-anchor="middle" x="643" y="-60" font-family="Helvetica,sans-Serif" font-size="10.00">::get_sin_px</text>
</a>
</g>
<!-- Node5&#45;&gt;Node6 -->
<g id="edge10" class="edge"><title>Node5&#45;&gt;Node6</title>
<path fill="none" stroke="midnightblue" d="M559.54,-53.5003C568.158,-55.1008 577.059,-56.7538 585.693,-58.3573"/>
<polygon fill="midnightblue" stroke="midnightblue" points="585.203,-61.8261 595.674,-60.2109 586.481,-54.9437 585.203,-61.8261"/>
</g>
<!-- Node7 -->
<g id="node13" class="node"><title>Node7</title>
<a xlink:href="../../d0/dad/namespaceblond_1_1vdt_1_1details.html#acf4c8cd4999c31bee56232ac4edc2d73" target="_top" xlink:title="blond::vdt::details\l::get_cos_px">
<polygon fill="white" stroke="black" points="596,-0 596,-34 690,-34 690,-0 596,-0"/>
<text text-anchor="start" x="604" y="-21" font-family="Helvetica,sans-Serif" font-size="10.00">blond::vdt::details</text>
<text text-anchor="middle" x="643" y="-8" font-family="Helvetica,sans-Serif" font-size="10.00">::get_cos_px</text>
</a>
</g>
<!-- Node5&#45;&gt;Node7 -->
<g id="edge12" class="edge"><title>Node5&#45;&gt;Node7</title>
<path fill="none" stroke="midnightblue" d="M559.54,-32.4997C568.158,-30.8992 577.059,-29.2462 585.693,-27.6427"/>
<polygon fill="midnightblue" stroke="midnightblue" points="586.481,-31.0563 595.674,-25.7891 585.203,-24.1739 586.481,-31.0563"/>
</g>
</g>
</svg>
