<?xml version="1.0" encoding="UTF-8" standalone="no"?>
<!DOCTYPE svg PUBLIC "-//W3C//DTD SVG 1.1//EN"
 "http://www.w3.org/Graphics/SVG/1.1/DTD/svg11.dtd">
<!-- Generated by graphviz version 2.26.3 (20100126.1600)
 -->
<!-- Title: blond::mymath::interp Pages: 1 -->
<!--zoomable 340 -->
<svg id="main" version="1.1" xmlns="http://www.w3.org/2000/svg" xmlns:xlink="http://www.w3.org/1999/xlink" xml:space="preserve" onload="init(evt)">
        <defs>
                <circle id="rim" cx="0" cy="0" r="7"/>
                <circle id="rim2" cx="0" cy="0" r="3.5"/>
                <g id="zoomPlus">
                        <use xlink:href="#rim" fill="#404040">
                                <set attributeName="fill" to="#808080" begin="zoomplus.mouseover" end="zoomplus.mouseout"/>
                        </use>
                        <path d="M-4,0h8M0,-4v8" fill="none" stroke="white" stroke-width="1.5" pointer-events="none"/>
                </g>
                <g id="zoomMin">
                        <use xlink:href="#rim" fill="#404040">
                                <set attributeName="fill" to="#808080" begin="zoomminus.mouseover" end="zoomminus.mouseout"/>
                        </use>
                        <path d="M-4,0h8" fill="none" stroke="white" stroke-width="1.5" pointer-events="none"/>
                </g>
                <g id="dirArrow">
                        <path fill="none" stroke="white" stroke-width="1.5" d="M0,-3.0v7 M-2.5,-0.5L0,-3.0L2.5,-0.5"/>
                </g>
               <g id="resetDef">
                       <use xlink:href="#rim2" fill="#404040">
                               <set attributeName="fill" to="#808080" begin="reset.mouseover" end="reset.mouseout"/>
                       </use>
               </g>
        </defs>

<script type="text/javascript">
var viewWidth = 580;
var viewHeight = 340;
var sectionId = 'dynsection-10';
</script>
<script xlink:href="../../svgpan.js"/>
<svg id="graph" class="graph">
<g id="viewport">
<title>blond::mymath::interp</title>
<polygon fill="white" stroke="white" points="-4,5 -4,-336 577,-336 577,5 -4,5"/>
<!-- Node1 -->
<g id="node1" class="node"><title>Node1</title>
<polygon fill="#bfbfbf" stroke="black" points="0.5,-167.5 0.5,-188.5 111.5,-188.5 111.5,-167.5 0.5,-167.5"/>
<text text-anchor="middle" x="56" y="-175.5" font-family="Helvetica,sans-Serif" font-size="10.00">blond::mymath::interp</text>
</g>
<!-- Node2 -->
<g id="node3" class="node"><title>Node2</title>
<a xlink:href="../../d4/d46/classblond_1_1Slices.html#ada42a57f8bea7bb582076bfb6f9f1812" target="_top" xlink:title="blond::Slices::beam\l_profile_derivative">
<polygon fill="white" stroke="black" points="156.5,-298 156.5,-332 259.5,-332 259.5,-298 156.5,-298"/>
<text text-anchor="start" x="164.5" y="-319" font-family="Helvetica,sans-Serif" font-size="10.00">blond::Slices::beam</text>
<text text-anchor="middle" x="208" y="-306" font-family="Helvetica,sans-Serif" font-size="10.00">_profile_derivative</text>
</a>
</g>
<!-- Node1&#45;&gt;Node2 -->
<g id="edge2" class="edge"><title>Node1&#45;&gt;Node2</title>
<path fill="none" stroke="midnightblue" d="M67.8115,-197.229C83.5175,-221.44 113.361,-263.004 148,-289 152.358,-292.271 157.192,-295.229 162.169,-297.877"/>
<polygon fill="midnightblue" stroke="midnightblue" points="70.6384,-195.151 62.3261,-188.581 64.7273,-198.901 70.6384,-195.151"/>
</g>
<!-- Node4 -->
<g id="node7" class="node"><title>Node4</title>
<a xlink:href="../../d0/d8a/classblond_1_1InputTable.html#a8fd3b73432c461936a7f8f5e0aebbdcd" target="_top" xlink:title="blond::InputTable::\limped_calc">
<polygon fill="white" stroke="black" points="159,-246 159,-280 257,-280 257,-246 159,-246"/>
<text text-anchor="start" x="167" y="-267" font-family="Helvetica,sans-Serif" font-size="10.00">blond::InputTable::</text>
<text text-anchor="middle" x="208" y="-254" font-family="Helvetica,sans-Serif" font-size="10.00">imped_calc</text>
</a>
</g>
<!-- Node1&#45;&gt;Node4 -->
<g id="edge6" class="edge"><title>Node1&#45;&gt;Node4</title>
<path fill="none" stroke="midnightblue" d="M79.1066,-194.3C97.3436,-206.797 123.68,-224.041 148,-237 153.811,-240.096 160.069,-243.124 166.273,-245.956"/>
<polygon fill="midnightblue" stroke="midnightblue" points="81.0638,-191.398 70.8488,-188.586 77.0808,-197.154 81.0638,-191.398"/>
</g>
<!-- Node5 -->
<g id="node9" class="node"><title>Node5</title>
<a xlink:href="../../dc/d3e/namespaceblond_1_1mymath.html#a77133114d9b0bdb726ef580fb842aea1" target="_top" xlink:title="blond::mymath::interp">
<polygon fill="white" stroke="black" points="152.5,-206.5 152.5,-227.5 263.5,-227.5 263.5,-206.5 152.5,-206.5"/>
<text text-anchor="middle" x="208" y="-214.5" font-family="Helvetica,sans-Serif" font-size="10.00">blond::mymath::interp</text>
</a>
</g>
<!-- Node1&#45;&gt;Node5 -->
<g id="edge8" class="edge"><title>Node1&#45;&gt;Node5</title>
<path fill="none" stroke="midnightblue" d="M107.051,-191.099C126.505,-196.09 148.412,-201.711 166.834,-206.438"/>
<polygon fill="midnightblue" stroke="midnightblue" points="107.69,-187.649 97.1334,-188.554 105.95,-194.43 107.69,-187.649"/>
</g>
<!-- Node6 -->
<g id="node11" class="node"><title>Node6</title>
<a xlink:href="../../d5/d60/namespaceblond.html#aebe061e211acc5564fd70cc5db1d3c12" target="_top" xlink:title="blond::matched_from\l_distribution_density">
<polygon fill="white" stroke="black" points="464,-148 464,-182 572,-182 572,-148 464,-148"/>
<text text-anchor="start" x="472" y="-169" font-family="Helvetica,sans-Serif" font-size="10.00">blond::matched_from</text>
<text text-anchor="middle" x="518" y="-156" font-family="Helvetica,sans-Serif" font-size="10.00">_distribution_density</text>
</a>
</g>
<!-- Node1&#45;&gt;Node6 -->
<g id="edge10" class="edge"><title>Node1&#45;&gt;Node6</title>
<path fill="none" stroke="midnightblue" d="M121.743,-176.15C213.615,-173.565 378.682,-168.92 463.865,-166.523"/>
<polygon fill="midnightblue" stroke="midnightblue" points="121.626,-172.652 111.728,-176.432 121.823,-179.649 121.626,-172.652"/>
</g>
<!-- Node7 -->
<g id="node13" class="node"><title>Node7</title>
<a xlink:href="../../d5/d60/namespaceblond.html#a87deee1fff62742855312a1fedec871d" target="_top" xlink:title="blond::matched_from\l_line_density">
<polygon fill="white" stroke="black" points="464,-83 464,-117 572,-117 572,-83 464,-83"/>
<text text-anchor="start" x="472" y="-104" font-family="Helvetica,sans-Serif" font-size="10.00">blond::matched_from</text>
<text text-anchor="middle" x="518" y="-91" font-family="Helvetica,sans-Serif" font-size="10.00">_line_density</text>
</a>
</g>
<!-- Node1&#45;&gt;Node7 -->
<g id="edge12" class="edge"><title>Node1&#45;&gt;Node7</title>
<path fill="none" stroke="midnightblue" d="M76.3304,-161.055C94.0733,-147.27 121.122,-128.585 148,-119 254.779,-80.9209 389.908,-86.269 463.738,-93.2965"/>
<polygon fill="midnightblue" stroke="midnightblue" points="74.0485,-158.398 68.4093,-167.368 78.4111,-163.873 74.0485,-158.398"/>
</g>
<!-- Node8 -->
<g id="node15" class="node"><title>Node8</title>
<a xlink:href="../../d5/d60/namespaceblond.html#a867e337c1f98d7cd9c4bce3a4e7221da" target="_top" xlink:title="blond::minmax_location">
<polygon fill="white" stroke="black" points="148.5,-128.5 148.5,-149.5 267.5,-149.5 267.5,-128.5 148.5,-128.5"/>
<text text-anchor="middle" x="208" y="-136.5" font-family="Helvetica,sans-Serif" font-size="10.00">blond::minmax_location</text>
</a>
</g>
<!-- Node1&#45;&gt;Node8 -->
<g id="edge14" class="edge"><title>Node1&#45;&gt;Node8</title>
<path fill="none" stroke="midnightblue" d="M107.051,-164.901C126.505,-159.91 148.412,-154.289 166.834,-149.562"/>
<polygon fill="midnightblue" stroke="midnightblue" points="105.95,-161.57 97.1334,-167.446 107.69,-168.351 105.95,-161.57"/>
</g>
<!-- Node10 -->
<g id="node22" class="node"><title>Node10</title>
<a xlink:href="../../d0/d8a/classblond_1_1InputTable.html#ae64468233934df7fe3d6ee8d4dcce12d" target="_top" xlink:title="blond::InputTable::\lwake_calc">
<polygon fill="white" stroke="black" points="159,-0 159,-34 257,-34 257,-0 159,-0"/>
<text text-anchor="start" x="167" y="-21" font-family="Helvetica,sans-Serif" font-size="10.00">blond::InputTable::</text>
<text text-anchor="middle" x="208" y="-8" font-family="Helvetica,sans-Serif" font-size="10.00">wake_calc</text>
</a>
</g>
<!-- Node1&#45;&gt;Node10 -->
<g id="edge24" class="edge"><title>Node1&#45;&gt;Node10</title>
<path fill="none" stroke="midnightblue" d="M66.0448,-158.203C80.8515,-130.603 110.841,-80.3233 148,-48 154.016,-42.7674 161.069,-38.1273 168.184,-34.1342"/>
<polygon fill="midnightblue" stroke="midnightblue" points="62.8349,-156.788 61.2915,-167.269 69.0346,-160.038 62.8349,-156.788"/>
</g>
<!-- Node3 -->
<g id="node5" class="node"><title>Node3</title>
<a xlink:href="../../d5/d60/namespaceblond.html#ab9c0b997c8b94ee83493eea4daf50c12" target="_top" xlink:title="blond::plot_beam_profile\l_derivative">
<polygon fill="white" stroke="black" points="305,-298 305,-332 427,-332 427,-298 305,-298"/>
<text text-anchor="start" x="313" y="-319" font-family="Helvetica,sans-Serif" font-size="10.00">blond::plot_beam_profile</text>
<text text-anchor="middle" x="366" y="-306" font-family="Helvetica,sans-Serif" font-size="10.00">_derivative</text>
</a>
</g>
<!-- Node2&#45;&gt;Node3 -->
<g id="edge4" class="edge"><title>Node2&#45;&gt;Node3</title>
<path fill="none" stroke="midnightblue" d="M270.058,-315C281.482,-315 293.402,-315 304.8,-315"/>
<polygon fill="midnightblue" stroke="midnightblue" points="269.735,-311.5 259.735,-315 269.735,-318.5 269.735,-311.5"/>
</g>
<!-- Node8&#45;&gt;Node7 -->
<g id="edge16" class="edge"><title>Node8&#45;&gt;Node7</title>
<path fill="none" stroke="midnightblue" d="M263.191,-126.352C276.5,-123.621 290.714,-120.967 304,-119 358.054,-110.998 420.324,-105.932 463.704,-103.063"/>
<polygon fill="midnightblue" stroke="midnightblue" points="262.289,-122.965 253.221,-128.445 263.727,-129.815 262.289,-122.965"/>
</g>
<!-- Node9 -->
<g id="node18" class="node"><title>Node9</title>
<a xlink:href="../../d5/d60/namespaceblond.html#a69b86d2cb27029772b69aeac947ef6af" target="_top" xlink:title="blond::potential_well_cut">
<polygon fill="white" stroke="black" points="304,-128.5 304,-149.5 428,-149.5 428,-128.5 304,-128.5"/>
<text text-anchor="middle" x="366" y="-136.5" font-family="Helvetica,sans-Serif" font-size="10.00">blond::potential_well_cut</text>
</a>
</g>
<!-- Node8&#45;&gt;Node9 -->
<g id="edge18" class="edge"><title>Node8&#45;&gt;Node9</title>
<path fill="none" stroke="midnightblue" d="M277.807,-139C286.468,-139 295.279,-139 303.815,-139"/>
<polygon fill="midnightblue" stroke="midnightblue" points="277.733,-135.5 267.733,-139 277.733,-142.5 277.733,-135.5"/>
</g>
<!-- Node9&#45;&gt;Node6 -->
<g id="edge20" class="edge"><title>Node9&#45;&gt;Node6</title>
<path fill="none" stroke="midnightblue" d="M437.342,-151.203C446.215,-152.721 455.173,-154.253 463.73,-155.717"/>
<polygon fill="midnightblue" stroke="midnightblue" points="437.833,-147.736 427.386,-149.5 436.653,-154.636 437.833,-147.736"/>
</g>
<!-- Node9&#45;&gt;Node7 -->
<g id="edge22" class="edge"><title>Node9&#45;&gt;Node7</title>
<path fill="none" stroke="midnightblue" d="M416.84,-125.955C431.986,-122.069 448.634,-117.798 463.975,-113.862"/>
<polygon fill="midnightblue" stroke="midnightblue" points="415.95,-122.57 407.133,-128.446 417.69,-129.351 415.95,-122.57"/>
</g>
</g>
</svg>
        <g id="navigator" transform="translate(0 0)" fill="#404254">
                <rect fill="#f2f5e9" fill-opacity="0.5" stroke="#606060" stroke-width=".5" x="0" y="0" width="60" height="60"/>
                <use id="zoomplus" xlink:href="#zoomPlus" x="17" y="9" onmousedown="handleZoom(evt,'in')"/>
                <use id="zoomminus" xlink:href="#zoomMin" x="42" y="9" onmousedown="handleZoom(evt,'out')"/>
                <use id="reset" xlink:href="#resetDef" x="30" y="36" onmousedown="handleReset()"/>
                <g id="arrowUp" xlink:href="#dirArrow" transform="translate(30 24)" onmousedown="handlePan(0,-1)">
                  <use xlink:href="#rim" fill="#404040">
                        <set attributeName="fill" to="#808080" begin="arrowUp.mouseover" end="arrowUp.mouseout"/>
                  </use>
                  <path fill="none" stroke="white" stroke-width="1.5" d="M0,-3.0v7 M-2.5,-0.5L0,-3.0L2.5,-0.5"/>
                </g>
                <g id="arrowRight" xlink:href="#dirArrow" transform="rotate(90) translate(36 -43)" onmousedown="handlePan(1,0)">
                  <use xlink:href="#rim" fill="#404040">
                        <set attributeName="fill" to="#808080" begin="arrowRight.mouseover" end="arrowRight.mouseout"/>
                  </use>
                  <path fill="none" stroke="white" stroke-width="1.5" d="M0,-3.0v7 M-2.5,-0.5L0,-3.0L2.5,-0.5"/>
                </g>
                <g id="arrowDown" xlink:href="#dirArrow" transform="rotate(180) translate(-30 -48)" onmousedown="handlePan(0,1)">
                  <use xlink:href="#rim" fill="#404040">
                        <set attributeName="fill" to="#808080" begin="arrowDown.mouseover" end="arrowDown.mouseout"/>
                  </use>
                  <path fill="none" stroke="white" stroke-width="1.5" d="M0,-3.0v7 M-2.5,-0.5L0,-3.0L2.5,-0.5"/>
                </g>
                <g id="arrowLeft" xlink:href="#dirArrow" transform="rotate(270) translate(-36 17)" onmousedown="handlePan(-1,0)">
                  <use xlink:href="#rim" fill="#404040">
                        <set attributeName="fill" to="#808080" begin="arrowLeft.mouseover" end="arrowLeft.mouseout"/>
                  </use>
                  <path fill="none" stroke="white" stroke-width="1.5" d="M0,-3.0v7 M-2.5,-0.5L0,-3.0L2.5,-0.5"/>
                </g>
        </g>
        <svg viewBox="0 0 15 15" width="100%" height="30px" preserveAspectRatio="xMaxYMin meet">
         <g id="arrow_out" transform="scale(0.3 0.3)">
          <a xlink:href="namespaceblond_1_1mymath_a327b8a840092340348b9d229adf4b342_icgraph_org.svg" target="_base">
           <rect id="button" ry="5" rx="5" y="6" x="6" height="38" width="38"
                fill="#f2f5e9" fill-opacity="0.5" stroke="#606060" stroke-width="1.0"/>
           <path id="arrow"
             d="M 11.500037,31.436501 C 11.940474,20.09759 22.043105,11.32322 32.158766,21.979434 L 37.068811,17.246167 C 37.068811,17.246167 37.088388,32 37.088388,32 L 22.160133,31.978069 C 22.160133,31.978069 26.997745,27.140456 26.997745,27.140456 C 18.528582,18.264221 13.291696,25.230495 11.500037,31.436501 z"
             style="fill:#404040;"/>
          </a>
         </g>
        </svg>
</svg>
