<?xml version="1.0" encoding="UTF-8" standalone="no"?>
<!DOCTYPE svg PUBLIC "-//W3C//DTD SVG 1.1//EN"
 "http://www.w3.org/Graphics/SVG/1.1/DTD/svg11.dtd">
<!-- Generated by graphviz version 2.26.3 (20100126.1600)
 -->
<!-- Title: blond::mymath::min Pages: 1 -->
<svg width="416pt" height="146pt"
 viewBox="0.00 0.00 416.00 146.00" xmlns="http://www.w3.org/2000/svg" xmlns:xlink="http://www.w3.org/1999/xlink">
<g id="graph1" class="graph" transform="scale(1 1) rotate(0) translate(4 142)">
<title>blond::mymath::min</title>
<polygon fill="white" stroke="white" points="-4,5 -4,-142 413,-142 413,5 -4,5"/>
<!-- Node1 -->
<g id="node1" class="node"><title>Node1</title>
<polygon fill="#bfbfbf" stroke="black" points="0.5,-58.5 0.5,-79.5 103.5,-79.5 103.5,-58.5 0.5,-58.5"/>
<text text-anchor="middle" x="52" y="-66.5" font-family="Helvetica,sans-Serif" font-size="10.00">blond::mymath::min</text>
</g>
<!-- Node2 -->
<g id="node3" class="node"><title>Node2</title>
<a xlink:href="../../d2/d1a/classblond_1_1RfParameters.html#a89b4a71d7f56a66f1a35586adc06b760" target="_top" xlink:title="blond::RfParameters\l::calc_phi_s">
<polygon fill="white" stroke="black" points="148.5,-101 148.5,-135 255.5,-135 255.5,-101 148.5,-101"/>
<text text-anchor="start" x="156.5" y="-122" font-family="Helvetica,sans-Serif" font-size="10.00">blond::RfParameters</text>
<text text-anchor="middle" x="202" y="-109" font-family="Helvetica,sans-Serif" font-size="10.00">::calc_phi_s</text>
</a>
</g>
<!-- Node1&#45;&gt;Node2 -->
<g id="edge2" class="edge"><title>Node1&#45;&gt;Node2</title>
<path fill="none" stroke="midnightblue" d="M93.998,-82.7193C111.314,-88.3758 131.561,-94.9899 149.815,-100.953"/>
<polygon fill="midnightblue" stroke="midnightblue" points="94.7713,-79.29 84.1788,-79.5117 92.5976,-85.944 94.7713,-79.29"/>
</g>
<!-- Node4 -->
<g id="node7" class="node"><title>Node4</title>
<a xlink:href="../../d5/d60/namespaceblond.html#a69b86d2cb27029772b69aeac947ef6af" target="_top" xlink:title="blond::potential_well_cut">
<polygon fill="white" stroke="black" points="140,-58.5 140,-79.5 264,-79.5 264,-58.5 140,-58.5"/>
<text text-anchor="middle" x="202" y="-66.5" font-family="Helvetica,sans-Serif" font-size="10.00">blond::potential_well_cut</text>
</a>
</g>
<!-- Node1&#45;&gt;Node4 -->
<g id="edge6" class="edge"><title>Node1&#45;&gt;Node4</title>
<path fill="none" stroke="midnightblue" d="M113.66,-69C122.332,-69 131.25,-69 139.93,-69"/>
<polygon fill="midnightblue" stroke="midnightblue" points="113.622,-65.5001 103.621,-69 113.621,-72.5001 113.622,-65.5001"/>
</g>
<!-- Node7 -->
<g id="node13" class="node"><title>Node7</title>
<a xlink:href="../../d7/d8d/classblond_1_1LHCNoiseFB.html#af1f65e30469f9049bc3116d9033635dd" target="_top" xlink:title="blond::LHCNoiseFB::\ltrack">
<polygon fill="white" stroke="black" points="147,-6 147,-40 257,-40 257,-6 147,-6"/>
<text text-anchor="start" x="155" y="-27" font-family="Helvetica,sans-Serif" font-size="10.00">blond::LHCNoiseFB::</text>
<text text-anchor="middle" x="202" y="-14" font-family="Helvetica,sans-Serif" font-size="10.00">track</text>
</a>
</g>
<!-- Node1&#45;&gt;Node7 -->
<g id="edge12" class="edge"><title>Node1&#45;&gt;Node7</title>
<path fill="none" stroke="midnightblue" d="M96.0033,-55.5056C111.929,-50.6219 130.116,-45.0443 146.877,-39.9044"/>
<polygon fill="midnightblue" stroke="midnightblue" points="94.9474,-52.1685 86.413,-58.4467 96.9998,-58.8609 94.9474,-52.1685"/>
</g>
<!-- Node3 -->
<g id="node5" class="node"><title>Node3</title>
<a xlink:href="../../d2/d1a/classblond_1_1RfParameters.html#a0ba8eee5d2c9afdc7c01447676fe0f94" target="_top" xlink:title="blond::RfParameters\l::RfParameters">
<polygon fill="white" stroke="black" points="300.5,-104 300.5,-138 407.5,-138 407.5,-104 300.5,-104"/>
<text text-anchor="start" x="308.5" y="-125" font-family="Helvetica,sans-Serif" font-size="10.00">blond::RfParameters</text>
<text text-anchor="middle" x="354" y="-112" font-family="Helvetica,sans-Serif" font-size="10.00">::RfParameters</text>
</a>
</g>
<!-- Node2&#45;&gt;Node3 -->
<g id="edge4" class="edge"><title>Node2&#45;&gt;Node3</title>
<path fill="none" stroke="midnightblue" d="M265.622,-119.256C277.186,-119.484 289.143,-119.72 300.382,-119.942"/>
<polygon fill="midnightblue" stroke="midnightblue" points="265.657,-115.756 255.59,-119.058 265.518,-122.754 265.657,-115.756"/>
</g>
<!-- Node5 -->
<g id="node9" class="node"><title>Node5</title>
<a xlink:href="../../d5/d60/namespaceblond.html#aebe061e211acc5564fd70cc5db1d3c12" target="_top" xlink:title="blond::matched_from\l_distribution_density">
<polygon fill="white" stroke="black" points="300,-52 300,-86 408,-86 408,-52 300,-52"/>
<text text-anchor="start" x="308" y="-73" font-family="Helvetica,sans-Serif" font-size="10.00">blond::matched_from</text>
<text text-anchor="middle" x="354" y="-60" font-family="Helvetica,sans-Serif" font-size="10.00">_distribution_density</text>
</a>
</g>
<!-- Node4&#45;&gt;Node5 -->
<g id="edge8" class="edge"><title>Node4&#45;&gt;Node5</title>
<path fill="none" stroke="midnightblue" d="M274.306,-69C282.909,-69 291.575,-69 299.862,-69"/>
<polygon fill="midnightblue" stroke="midnightblue" points="274.263,-65.5001 264.263,-69 274.263,-72.5001 274.263,-65.5001"/>
</g>
<!-- Node6 -->
<g id="node11" class="node"><title>Node6</title>
<a xlink:href="../../d5/d60/namespaceblond.html#a87deee1fff62742855312a1fedec871d" target="_top" xlink:title="blond::matched_from\l_line_density">
<polygon fill="white" stroke="black" points="300,-0 300,-34 408,-34 408,-0 300,-0"/>
<text text-anchor="start" x="308" y="-21" font-family="Helvetica,sans-Serif" font-size="10.00">blond::matched_from</text>
<text text-anchor="middle" x="354" y="-8" font-family="Helvetica,sans-Serif" font-size="10.00">_line_density</text>
</a>
</g>
<!-- Node4&#45;&gt;Node6 -->
<g id="edge10" class="edge"><title>Node4&#45;&gt;Node6</title>
<path fill="none" stroke="midnightblue" d="M245.048,-55.2951C251.413,-53.2162 257.884,-51.0731 264,-49 277.978,-44.2617 293.115,-38.9503 306.915,-34.0371"/>
<polygon fill="midnightblue" stroke="midnightblue" points="243.633,-52.0746 235.201,-58.4897 245.793,-58.7329 243.633,-52.0746"/>
</g>
</g>
</svg>
