<?xml version="1.0" encoding="UTF-8" standalone="no"?>
<!DOCTYPE svg PUBLIC "-//W3C//DTD SVG 1.1//EN"
 "http://www.w3.org/Graphics/SVG/1.1/DTD/svg11.dtd">
<!-- Generated by graphviz version 2.26.3 (20100126.1600)
 -->
<!-- Title: LHCNoiseFB::fwhm_multi_bunch Pages: 1 -->
<svg width="340pt" height="70pt"
 viewBox="0.00 0.00 340.00 70.00" xmlns="http://www.w3.org/2000/svg" xmlns:xlink="http://www.w3.org/1999/xlink">
<g id="graph1" class="graph" transform="scale(1 1) rotate(0) translate(4 66)">
<title>LHCNoiseFB::fwhm_multi_bunch</title>
<polygon fill="white" stroke="white" points="-4,5 -4,-66 337,-66 337,5 -4,5"/>
<!-- Node1 -->
<g id="node1" class="node"><title>Node1</title>
<polygon fill="#bfbfbf" stroke="black" points="0.5,-14 0.5,-48 131.5,-48 131.5,-14 0.5,-14"/>
<text text-anchor="start" x="8.5" y="-35" font-family="Helvetica,sans-Serif" font-size="10.00">LHCNoiseFB::fwhm_multi</text>
<text text-anchor="middle" x="66" y="-22" font-family="Helvetica,sans-Serif" font-size="10.00">_bunch</text>
</g>
<!-- Node2 -->
<g id="node3" class="node"><title>Node2</title>
<a xlink:href="../../d8/d2b/classLHCNoiseFB.html#ae80df891fa97e43ec93229a6adbe9fb7" target="_top" xlink:title="LHCNoiseFB::fwhm_interpolation">
<polygon fill="white" stroke="black" points="168.5,-40.5 168.5,-61.5 331.5,-61.5 331.5,-40.5 168.5,-40.5"/>
<text text-anchor="middle" x="250" y="-48.5" font-family="Helvetica,sans-Serif" font-size="10.00">LHCNoiseFB::fwhm_interpolation</text>
</a>
</g>
<!-- Node1&#45;&gt;Node2 -->
<g id="edge2" class="edge"><title>Node1&#45;&gt;Node2</title>
<path fill="none" stroke="midnightblue" d="M131.649,-38.1358C140.272,-39.0731 149.233,-40.0471 158.192,-41.0208"/>
<polygon fill="midnightblue" stroke="midnightblue" points="157.967,-44.5169 168.287,-42.1181 158.724,-37.5579 157.967,-44.5169"/>
</g>
<!-- Node3 -->
<g id="node5" class="node"><title>Node3</title>
<a xlink:href="../../df/d6d/namespacemymath.html#a0c3266208d3fd64201093717945f63f5" target="_top" xlink:title="mymath::mean">
<polygon fill="white" stroke="black" points="209,-0.5 209,-21.5 291,-21.5 291,-0.5 209,-0.5"/>
<text text-anchor="middle" x="250" y="-8.5" font-family="Helvetica,sans-Serif" font-size="10.00">mymath::mean</text>
</a>
</g>
<!-- Node1&#45;&gt;Node3 -->
<g id="edge4" class="edge"><title>Node1&#45;&gt;Node3</title>
<path fill="none" stroke="midnightblue" d="M131.649,-23.8642C153.633,-21.4746 177.81,-18.8467 198.55,-16.5924"/>
<polygon fill="midnightblue" stroke="midnightblue" points="199.177,-20.0449 208.74,-15.4847 198.421,-13.0859 199.177,-20.0449"/>
</g>
</g>
</svg>
