<?xml version="1.0" encoding="UTF-8" standalone="no"?>
<!DOCTYPE svg PUBLIC "-//W3C//DTD SVG 1.1//EN"
 "http://www.w3.org/Graphics/SVG/1.1/DTD/svg11.dtd">
<!-- Generated by graphviz version 2.26.3 (20100126.1600)
 -->
<!-- Title: LHCNoiseFB::fwhm_single_bunch Pages: 1 -->
<svg width="344pt" height="70pt"
 viewBox="0.00 0.00 344.00 70.00" xmlns="http://www.w3.org/2000/svg" xmlns:xlink="http://www.w3.org/1999/xlink">
<g id="graph1" class="graph" transform="scale(1 1) rotate(0) translate(4 66)">
<title>LHCNoiseFB::fwhm_single_bunch</title>
<polygon fill="white" stroke="white" points="-4,5 -4,-66 341,-66 341,5 -4,5"/>
<!-- Node1 -->
<g id="node1" class="node"><title>Node1</title>
<polygon fill="#bfbfbf" stroke="black" points="0,-14 0,-48 136,-48 136,-14 0,-14"/>
<text text-anchor="start" x="8" y="-35" font-family="Helvetica,sans-Serif" font-size="10.00">LHCNoiseFB::fwhm_single</text>
<text text-anchor="middle" x="68" y="-22" font-family="Helvetica,sans-Serif" font-size="10.00">_bunch</text>
</g>
<!-- Node2 -->
<g id="node3" class="node"><title>Node2</title>
<a xlink:href="../../d8/d2b/classLHCNoiseFB.html#ab08738c2c4ca453ae8514067c5333ab9" target="_top" xlink:title="LHCNoiseFB::fwhm_interpolation">
<polygon fill="white" stroke="black" points="172.5,-40.5 172.5,-61.5 335.5,-61.5 335.5,-40.5 172.5,-40.5"/>
<text text-anchor="middle" x="254" y="-48.5" font-family="Helvetica,sans-Serif" font-size="10.00">LHCNoiseFB::fwhm_interpolation</text>
</a>
</g>
<!-- Node1&#45;&gt;Node2 -->
<g id="edge2" class="edge"><title>Node1&#45;&gt;Node2</title>
<path fill="none" stroke="midnightblue" d="M136.203,-38.3337C144.624,-39.2392 153.338,-40.1761 162.039,-41.1117"/>
<polygon fill="midnightblue" stroke="midnightblue" points="161.913,-44.6182 172.229,-42.2075 162.661,-37.6583 161.913,-44.6182"/>
</g>
<!-- Node3 -->
<g id="node5" class="node"><title>Node3</title>
<a xlink:href="../../df/d6d/namespacemymath.html#a2a11685fa6ce2396ae977fa1502a2cc4" target="_top" xlink:title="mymath::max">
<polygon fill="white" stroke="black" points="215.5,-0.5 215.5,-21.5 292.5,-21.5 292.5,-0.5 215.5,-0.5"/>
<text text-anchor="middle" x="254" y="-8.5" font-family="Helvetica,sans-Serif" font-size="10.00">mymath::max</text>
</a>
</g>
<!-- Node1&#45;&gt;Node3 -->
<g id="edge4" class="edge"><title>Node1&#45;&gt;Node3</title>
<path fill="none" stroke="midnightblue" d="M136.203,-23.6663C159.102,-21.2041 184.165,-18.5092 205.263,-16.2405"/>
<polygon fill="midnightblue" stroke="midnightblue" points="205.707,-19.7131 215.275,-15.1639 204.958,-12.7532 205.707,-19.7131"/>
</g>
</g>
</svg>
