<?xml version="1.0" encoding="UTF-8" standalone="no"?>
<!DOCTYPE svg PUBLIC "-//W3C//DTD SVG 1.1//EN"
 "http://www.w3.org/Graphics/SVG/1.1/DTD/svg11.dtd">
<!-- Generated by graphviz version 2.26.3 (20100126.1600)
 -->
<!-- Title: LHCNoiseFB::fwhm_interpolation Pages: 1 -->
<!--zoomable 94 -->
<svg id="main" version="1.1" xmlns="http://www.w3.org/2000/svg" xmlns:xlink="http://www.w3.org/1999/xlink" xml:space="preserve" onload="init(evt)">
        <defs>
                <circle id="rim" cx="0" cy="0" r="7"/>
                <circle id="rim2" cx="0" cy="0" r="3.5"/>
                <g id="zoomPlus">
                        <use xlink:href="#rim" fill="#404040">
                                <set attributeName="fill" to="#808080" begin="zoomplus.mouseover" end="zoomplus.mouseout"/>
                        </use>
                        <path d="M-4,0h8M0,-4v8" fill="none" stroke="white" stroke-width="1.5" pointer-events="none"/>
                </g>
                <g id="zoomMin">
                        <use xlink:href="#rim" fill="#404040">
                                <set attributeName="fill" to="#808080" begin="zoomminus.mouseover" end="zoomminus.mouseout"/>
                        </use>
                        <path d="M-4,0h8" fill="none" stroke="white" stroke-width="1.5" pointer-events="none"/>
                </g>
                <g id="dirArrow">
                        <path fill="none" stroke="white" stroke-width="1.5" d="M0,-3.0v7 M-2.5,-0.5L0,-3.0L2.5,-0.5"/>
                </g>
               <g id="resetDef">
                       <use xlink:href="#rim2" fill="#404040">
                               <set attributeName="fill" to="#808080" begin="reset.mouseover" end="reset.mouseout"/>
                       </use>
               </g>
        </defs>

<script type="text/javascript">
var viewWidth = 520;
var viewHeight = 94;
var sectionId = 'dynsection-2';
</script>
<script xlink:href="../../svgpan.js"/>
<svg id="graph" class="graph">
<g id="viewport">
<title>LHCNoiseFB::fwhm_interpolation</title>
<polygon fill="white" stroke="white" points="-4,5 -4,-90 517,-90 517,5 -4,5"/>
<!-- Node1 -->
<g id="node1" class="node"><title>Node1</title>
<polygon fill="#bfbfbf" stroke="black" points="0.5,-32.5 0.5,-53.5 163.5,-53.5 163.5,-32.5 0.5,-32.5"/>
<text text-anchor="middle" x="82" y="-40.5" font-family="Helvetica,sans-Serif" font-size="10.00">LHCNoiseFB::fwhm_interpolation</text>
</g>
<!-- Node2 -->
<g id="node3" class="node"><title>Node2</title>
<a xlink:href="../../d8/d2b/classLHCNoiseFB.html#a1f4261d97326d23f1f980cd2adc3d2be" target="_top" xlink:title="LHCNoiseFB::fwhm_multi\l_bunch">
<polygon fill="white" stroke="black" points="202.5,-52 202.5,-86 333.5,-86 333.5,-52 202.5,-52"/>
<text text-anchor="start" x="210.5" y="-73" font-family="Helvetica,sans-Serif" font-size="10.00">LHCNoiseFB::fwhm_multi</text>
<text text-anchor="middle" x="268" y="-60" font-family="Helvetica,sans-Serif" font-size="10.00">_bunch</text>
</a>
</g>
<!-- Node1&#45;&gt;Node2 -->
<g id="edge2" class="edge"><title>Node1&#45;&gt;Node2</title>
<path fill="none" stroke="midnightblue" d="M167.051,-54.8889C178.948,-56.5518 191.018,-58.2391 202.478,-59.8409"/>
<polygon fill="midnightblue" stroke="midnightblue" points="167.505,-51.4184 157.117,-53.5003 166.536,-58.351 167.505,-51.4184"/>
</g>
<!-- Node4 -->
<g id="node7" class="node"><title>Node4</title>
<a xlink:href="../../d8/d2b/classLHCNoiseFB.html#a06601d6fb2617658517590f0c5ca9ff8" target="_top" xlink:title="LHCNoiseFB::fwhm_single\l_bunch">
<polygon fill="white" stroke="black" points="200,-0 200,-34 336,-34 336,-0 200,-0"/>
<text text-anchor="start" x="208" y="-21" font-family="Helvetica,sans-Serif" font-size="10.00">LHCNoiseFB::fwhm_single</text>
<text text-anchor="middle" x="268" y="-8" font-family="Helvetica,sans-Serif" font-size="10.00">_bunch</text>
</a>
</g>
<!-- Node1&#45;&gt;Node4 -->
<g id="edge6" class="edge"><title>Node1&#45;&gt;Node4</title>
<path fill="none" stroke="midnightblue" d="M167.119,-31.1017C178.073,-29.5704 189.175,-28.0186 199.809,-26.5321"/>
<polygon fill="midnightblue" stroke="midnightblue" points="166.536,-27.649 157.117,-32.4997 167.505,-34.5816 166.536,-27.649"/>
</g>
<!-- Node3 -->
<g id="node5" class="node"><title>Node3</title>
<a xlink:href="../../d8/d2b/classLHCNoiseFB.html#a200019c2d3e3ea77870f95dca0142d35" target="_top" xlink:title="LHCNoiseFB::LHCNoiseFB">
<polygon fill="white" stroke="black" points="372,-32.5 372,-53.5 512,-53.5 512,-32.5 372,-32.5"/>
<text text-anchor="middle" x="442" y="-40.5" font-family="Helvetica,sans-Serif" font-size="10.00">LHCNoiseFB::LHCNoiseFB</text>
</a>
</g>
<!-- Node2&#45;&gt;Node3 -->
<g id="edge4" class="edge"><title>Node2&#45;&gt;Node3</title>
<path fill="none" stroke="midnightblue" d="M343.784,-57.6759C353.084,-56.2863 362.557,-54.8707 371.77,-53.4941"/>
<polygon fill="midnightblue" stroke="midnightblue" points="343.155,-54.231 333.782,-59.1705 344.189,-61.1542 343.155,-54.231"/>
</g>
<!-- Node4&#45;&gt;Node3 -->
<g id="edge8" class="edge"><title>Node4&#45;&gt;Node3</title>
<path fill="none" stroke="midnightblue" d="M346.244,-28.6916C354.801,-29.9703 363.473,-31.2661 371.924,-32.5289"/>
<polygon fill="midnightblue" stroke="midnightblue" points="346.677,-25.2176 336.27,-27.2013 345.643,-32.1408 346.677,-25.2176"/>
</g>
</g>
</svg>
        <g id="navigator" transform="translate(0 0)" fill="#404254">
                <rect fill="#f2f5e9" fill-opacity="0.5" stroke="#606060" stroke-width=".5" x="0" y="0" width="60" height="60"/>
                <use id="zoomplus" xlink:href="#zoomPlus" x="17" y="9" onmousedown="handleZoom(evt,'in')"/>
                <use id="zoomminus" xlink:href="#zoomMin" x="42" y="9" onmousedown="handleZoom(evt,'out')"/>
                <use id="reset" xlink:href="#resetDef" x="30" y="36" onmousedown="handleReset()"/>
                <g id="arrowUp" xlink:href="#dirArrow" transform="translate(30 24)" onmousedown="handlePan(0,-1)">
                  <use xlink:href="#rim" fill="#404040">
                        <set attributeName="fill" to="#808080" begin="arrowUp.mouseover" end="arrowUp.mouseout"/>
                  </use>
                  <path fill="none" stroke="white" stroke-width="1.5" d="M0,-3.0v7 M-2.5,-0.5L0,-3.0L2.5,-0.5"/>
                </g>
                <g id="arrowRight" xlink:href="#dirArrow" transform="rotate(90) translate(36 -43)" onmousedown="handlePan(1,0)">
                  <use xlink:href="#rim" fill="#404040">
                        <set attributeName="fill" to="#808080" begin="arrowRight.mouseover" end="arrowRight.mouseout"/>
                  </use>
                  <path fill="none" stroke="white" stroke-width="1.5" d="M0,-3.0v7 M-2.5,-0.5L0,-3.0L2.5,-0.5"/>
                </g>
                <g id="arrowDown" xlink:href="#dirArrow" transform="rotate(180) translate(-30 -48)" onmousedown="handlePan(0,1)">
                  <use xlink:href="#rim" fill="#404040">
                        <set attributeName="fill" to="#808080" begin="arrowDown.mouseover" end="arrowDown.mouseout"/>
                  </use>
                  <path fill="none" stroke="white" stroke-width="1.5" d="M0,-3.0v7 M-2.5,-0.5L0,-3.0L2.5,-0.5"/>
                </g>
                <g id="arrowLeft" xlink:href="#dirArrow" transform="rotate(270) translate(-36 17)" onmousedown="handlePan(-1,0)">
                  <use xlink:href="#rim" fill="#404040">
                        <set attributeName="fill" to="#808080" begin="arrowLeft.mouseover" end="arrowLeft.mouseout"/>
                  </use>
                  <path fill="none" stroke="white" stroke-width="1.5" d="M0,-3.0v7 M-2.5,-0.5L0,-3.0L2.5,-0.5"/>
                </g>
        </g>
        <svg viewBox="0 0 15 15" width="100%" height="30px" preserveAspectRatio="xMaxYMin meet">
         <g id="arrow_out" transform="scale(0.3 0.3)">
          <a xlink:href="classLHCNoiseFB_ab08738c2c4ca453ae8514067c5333ab9_icgraph_org.svg" target="_base">
           <rect id="button" ry="5" rx="5" y="6" x="6" height="38" width="38"
                fill="#f2f5e9" fill-opacity="0.5" stroke="#606060" stroke-width="1.0"/>
           <path id="arrow"
             d="M 11.500037,31.436501 C 11.940474,20.09759 22.043105,11.32322 32.158766,21.979434 L 37.068811,17.246167 C 37.068811,17.246167 37.088388,32 37.088388,32 L 22.160133,31.978069 C 22.160133,31.978069 26.997745,27.140456 26.997745,27.140456 C 18.528582,18.264221 13.291696,25.230495 11.500037,31.436501 z"
             style="fill:#404040;"/>
          </a>
         </g>
        </svg>
</svg>
