<?xml version="1.0" encoding="UTF-8" standalone="no"?>
<!DOCTYPE svg PUBLIC "-//W3C//DTD SVG 1.1//EN"
 "http://www.w3.org/Graphics/SVG/1.1/DTD/svg11.dtd">
<!-- Generated by graphviz version 2.26.3 (20100126.1600)
 -->
<!-- Title: GeneralParameters.cpp Pages: 1 -->
<!--zoomable 276 -->
<svg id="main" version="1.1" xmlns="http://www.w3.org/2000/svg" xmlns:xlink="http://www.w3.org/1999/xlink" xml:space="preserve" onload="init(evt)">
        <defs>
                <circle id="rim" cx="0" cy="0" r="7"/>
                <circle id="rim2" cx="0" cy="0" r="3.5"/>
                <g id="zoomPlus">
                        <use xlink:href="#rim" fill="#404040">
                                <set attributeName="fill" to="#808080" begin="zoomplus.mouseover" end="zoomplus.mouseout"/>
                        </use>
                        <path d="M-4,0h8M0,-4v8" fill="none" stroke="white" stroke-width="1.5" pointer-events="none"/>
                </g>
                <g id="zoomMin">
                        <use xlink:href="#rim" fill="#404040">
                                <set attributeName="fill" to="#808080" begin="zoomminus.mouseover" end="zoomminus.mouseout"/>
                        </use>
                        <path d="M-4,0h8" fill="none" stroke="white" stroke-width="1.5" pointer-events="none"/>
                </g>
                <g id="dirArrow">
                        <path fill="none" stroke="white" stroke-width="1.5" d="M0,-3.0v7 M-2.5,-0.5L0,-3.0L2.5,-0.5"/>
                </g>
               <g id="resetDef">
                       <use xlink:href="#rim2" fill="#404040">
                               <set attributeName="fill" to="#808080" begin="reset.mouseover" end="reset.mouseout"/>
                       </use>
               </g>
        </defs>

<script type="text/javascript">
var viewWidth = 1044;
var viewHeight = 276;
var sectionId = 'dynsection-0';
</script>
<script xlink:href="../../svgpan.js"/>
<svg id="graph" class="graph">
<g id="viewport">
<title>GeneralParameters.cpp</title>
<polygon fill="white" stroke="white" points="-4,5 -4,-272 1041,-272 1041,5 -4,5"/>
<!-- Node1 -->
<g id="node1" class="node"><title>Node1</title>
<polygon fill="#bfbfbf" stroke="black" points="745.5,-246.5 745.5,-267.5 864.5,-267.5 864.5,-246.5 745.5,-246.5"/>
<text text-anchor="middle" x="805" y="-254.5" font-family="Helvetica,sans-Serif" font-size="10.00">GeneralParameters.cpp</text>
</g>
<!-- Node2 -->
<g id="node3" class="node"><title>Node2</title>
<a xlink:href="../../d2/d6f/constants_8h.html" target="_top" xlink:title="blond/constants.h">
<polygon fill="white" stroke="black" points="842,-116.5 842,-137.5 936,-137.5 936,-116.5 842,-116.5"/>
<text text-anchor="middle" x="889" y="-124.5" font-family="Helvetica,sans-Serif" font-size="10.00">blond/constants.h</text>
</a>
</g>
<!-- Node1&#45;&gt;Node2 -->
<g id="edge2" class="edge"><title>Node1&#45;&gt;Node2</title>
<path fill="none" stroke="midnightblue" d="M805.1,-246.378C805.737,-229.634 808.983,-196.678 824,-174 832.538,-161.106 845.899,-150.555 858.293,-142.74"/>
<polygon fill="midnightblue" stroke="midnightblue" points="860.248,-145.65 867.064,-137.539 856.677,-139.629 860.248,-145.65"/>
</g>
<!-- Node6 -->
<g id="node11" class="node"><title>Node6</title>
<a xlink:href="../../d5/d34/GeneralParameters_8h.html" target="_top" xlink:title="blond/input_parameters\l/GeneralParameters.h">
<polygon fill="white" stroke="black" points="491,-175 491,-209 609,-209 609,-175 491,-175"/>
<text text-anchor="start" x="499" y="-196" font-family="Helvetica,sans-Serif" font-size="10.00">blond/input_parameters</text>
<text text-anchor="middle" x="550" y="-183" font-family="Helvetica,sans-Serif" font-size="10.00">/GeneralParameters.h</text>
</a>
</g>
<!-- Node1&#45;&gt;Node6 -->
<g id="edge10" class="edge"><title>Node1&#45;&gt;Node6</title>
<path fill="none" stroke="midnightblue" d="M763.746,-246.484C724.744,-236.543 665.471,-221.434 619.227,-209.646"/>
<polygon fill="midnightblue" stroke="midnightblue" points="619.826,-206.187 609.272,-207.108 618.097,-212.97 619.826,-206.187"/>
</g>
<!-- Node20 -->
<g id="node43" class="node"><title>Node20</title>
<polygon fill="white" stroke="#bfbfbf" points="832.5,-181.5 832.5,-202.5 883.5,-202.5 883.5,-181.5 832.5,-181.5"/>
<text text-anchor="middle" x="858" y="-189.5" font-family="Helvetica,sans-Serif" font-size="10.00">numeric</text>
</g>
<!-- Node1&#45;&gt;Node20 -->
<g id="edge46" class="edge"><title>Node1&#45;&gt;Node20</title>
<path fill="none" stroke="midnightblue" d="M813.752,-246.267C821.701,-236.517 833.594,-221.932 843.049,-210.336"/>
<polygon fill="midnightblue" stroke="midnightblue" points="845.804,-212.496 849.411,-202.534 840.379,-208.072 845.804,-212.496"/>
</g>
<!-- Node3 -->
<g id="node5" class="node"><title>Node3</title>
<a xlink:href="../../d2/d2c/configuration_8h.html" target="_top" xlink:title="blond/configuration.h">
<polygon fill="white" stroke="black" points="929.5,-58.5 929.5,-79.5 1036.5,-79.5 1036.5,-58.5 929.5,-58.5"/>
<text text-anchor="middle" x="983" y="-66.5" font-family="Helvetica,sans-Serif" font-size="10.00">blond/configuration.h</text>
</a>
</g>
<!-- Node2&#45;&gt;Node3 -->
<g id="edge4" class="edge"><title>Node2&#45;&gt;Node3</title>
<path fill="none" stroke="midnightblue" d="M906.241,-116.362C920.552,-107.532 941.115,-94.844 957.357,-84.8224"/>
<polygon fill="midnightblue" stroke="midnightblue" points="959.196,-87.8004 965.868,-79.5707 955.52,-81.8431 959.196,-87.8004"/>
</g>
<!-- Node4 -->
<g id="node7" class="node"><title>Node4</title>
<polygon fill="white" stroke="#bfbfbf" points="956.5,-0.5 956.5,-21.5 1009.5,-21.5 1009.5,-0.5 956.5,-0.5"/>
<text text-anchor="middle" x="983" y="-8.5" font-family="Helvetica,sans-Serif" font-size="10.00">complex</text>
</g>
<!-- Node3&#45;&gt;Node4 -->
<g id="edge6" class="edge"><title>Node3&#45;&gt;Node4</title>
<path fill="none" stroke="midnightblue" d="M983,-58.3619C983,-50.9219 983,-40.7427 983,-31.7276"/>
<polygon fill="midnightblue" stroke="midnightblue" points="986.5,-31.5706 983,-21.5707 979.5,-31.5707 986.5,-31.5706"/>
</g>
<!-- Node5 -->
<g id="node9" class="node"><title>Node5</title>
<polygon fill="white" stroke="#bfbfbf" points="0,-0.5 0,-21.5 44,-21.5 44,-0.5 0,-0.5"/>
<text text-anchor="middle" x="22" y="-8.5" font-family="Helvetica,sans-Serif" font-size="10.00">vector</text>
</g>
<!-- Node3&#45;&gt;Node5 -->
<g id="edge8" class="edge"><title>Node3&#45;&gt;Node5</title>
<path fill="none" stroke="midnightblue" d="M929.291,-59.053C926.492,-58.6655 923.715,-58.3106 921,-58 583.71,-19.4114 171.555,-12.4699 54.4212,-11.2523"/>
<polygon fill="midnightblue" stroke="midnightblue" points="54.3584,-7.75163 44.3249,-11.1542 54.2904,-14.7513 54.3584,-7.75163"/>
</g>
<!-- Node6&#45;&gt;Node3 -->
<g id="edge12" class="edge"><title>Node6&#45;&gt;Node3</title>
<path fill="none" stroke="midnightblue" d="M609.299,-175.155C696.369,-150.422 857.037,-104.782 936.291,-82.2685"/>
<polygon fill="midnightblue" stroke="midnightblue" points="937.338,-85.6096 946.001,-79.5102 935.425,-78.876 937.338,-85.6096"/>
</g>
<!-- Node6&#45;&gt;Node5 -->
<g id="edge44" class="edge"><title>Node6&#45;&gt;Node5</title>
<path fill="none" stroke="midnightblue" d="M490.632,-188.408C365.612,-179.486 81.871,-151.63 23,-80 12.1043,-66.7429 13.088,-46.7202 16.0688,-31.653"/>
<polygon fill="midnightblue" stroke="midnightblue" points="19.521,-32.2657 18.4509,-21.725 12.7142,-30.6324 19.521,-32.2657"/>
</g>
<!-- Node7 -->
<g id="node14" class="node"><title>Node7</title>
<a xlink:href="../../de/df0/utilities_8h.html" target="_top" xlink:title="blond/utilities.h">
<polygon fill="white" stroke="black" points="425,-116.5 425,-137.5 507,-137.5 507,-116.5 425,-116.5"/>
<text text-anchor="middle" x="466" y="-124.5" font-family="Helvetica,sans-Serif" font-size="10.00">blond/utilities.h</text>
</a>
</g>
<!-- Node6&#45;&gt;Node7 -->
<g id="edge14" class="edge"><title>Node6&#45;&gt;Node7</title>
<path fill="none" stroke="midnightblue" d="M527.93,-174.922C515.608,-165.387 500.306,-153.546 487.995,-144.02"/>
<polygon fill="midnightblue" stroke="midnightblue" points="490.075,-141.204 480.024,-137.852 485.791,-146.74 490.075,-141.204"/>
</g>
<!-- Node7&#45;&gt;Node3 -->
<g id="edge38" class="edge"><title>Node7&#45;&gt;Node3</title>
<path fill="none" stroke="midnightblue" d="M507.217,-123.753C585.494,-117.367 761.254,-101.983 918.912,-80.2217"/>
<polygon fill="midnightblue" stroke="midnightblue" points="919.848,-83.6252 929.27,-78.7791 918.882,-76.6921 919.848,-83.6252"/>
</g>
<!-- Node7&#45;&gt;Node5 -->
<g id="edge34" class="edge"><title>Node7&#45;&gt;Node5</title>
<path fill="none" stroke="midnightblue" d="M424.827,-125.049C323.822,-119.9 69.8775,-104.627 41,-80 27.2303,-68.2572 22.9787,-47.5416 21.8719,-31.8641"/>
<polygon fill="midnightblue" stroke="midnightblue" points="25.3592,-31.4182 21.5307,-21.5393 18.363,-31.6495 25.3592,-31.4182"/>
</g>
<!-- Node8 -->
<g id="node16" class="node"><title>Node8</title>
<polygon fill="white" stroke="#bfbfbf" points="50,-58.5 50,-79.5 96,-79.5 96,-58.5 50,-58.5"/>
<text text-anchor="middle" x="73" y="-66.5" font-family="Helvetica,sans-Serif" font-size="10.00">chrono</text>
</g>
<!-- Node7&#45;&gt;Node8 -->
<g id="edge16" class="edge"><title>Node7&#45;&gt;Node8</title>
<path fill="none" stroke="midnightblue" d="M424.915,-124.358C359.195,-119.547 226.388,-107.422 106.01,-79.8748"/>
<polygon fill="midnightblue" stroke="midnightblue" points="106.793,-76.4635 96.2594,-77.6027 105.204,-83.2808 106.793,-76.4635"/>
</g>
<!-- Node9 -->
<g id="node18" class="node"><title>Node9</title>
<polygon fill="white" stroke="#bfbfbf" points="113.5,-58.5 113.5,-79.5 156.5,-79.5 156.5,-58.5 113.5,-58.5"/>
<text text-anchor="middle" x="135" y="-66.5" font-family="Helvetica,sans-Serif" font-size="10.00">cstdio</text>
</g>
<!-- Node7&#45;&gt;Node9 -->
<g id="edge18" class="edge"><title>Node7&#45;&gt;Node9</title>
<path fill="none" stroke="midnightblue" d="M424.582,-123.137C368.005,-117.293 263.386,-104.47 166.726,-80.1066"/>
<polygon fill="midnightblue" stroke="midnightblue" points="167.354,-76.6544 156.797,-77.5555 165.612,-83.4341 167.354,-76.6544"/>
</g>
<!-- Node10 -->
<g id="node20" class="node"><title>Node10</title>
<polygon fill="white" stroke="#bfbfbf" points="173.5,-58.5 173.5,-79.5 218.5,-79.5 218.5,-58.5 173.5,-58.5"/>
<text text-anchor="middle" x="196" y="-66.5" font-family="Helvetica,sans-Serif" font-size="10.00">cstdlib</text>
</g>
<!-- Node7&#45;&gt;Node10 -->
<g id="edge20" class="edge"><title>Node7&#45;&gt;Node10</title>
<path fill="none" stroke="midnightblue" d="M424.98,-120.816C379.093,-113.484 302.459,-100.006 228.507,-80.1514"/>
<polygon fill="midnightblue" stroke="midnightblue" points="229.134,-76.6946 218.565,-77.4385 227.291,-83.4477 229.134,-76.6946"/>
</g>
<!-- Node11 -->
<g id="node22" class="node"><title>Node11</title>
<polygon fill="white" stroke="#bfbfbf" points="236,-58.5 236,-79.5 286,-79.5 286,-58.5 236,-58.5"/>
<text text-anchor="middle" x="261" y="-66.5" font-family="Helvetica,sans-Serif" font-size="10.00">fstream</text>
</g>
<!-- Node7&#45;&gt;Node11 -->
<g id="edge22" class="edge"><title>Node7&#45;&gt;Node11</title>
<path fill="none" stroke="midnightblue" d="M425.776,-116.488C393.135,-107.836 345.715,-94.9922 295.875,-80.1825"/>
<polygon fill="midnightblue" stroke="midnightblue" points="296.795,-76.8046 286.212,-77.2952 294.791,-83.5116 296.795,-76.8046"/>
</g>
<!-- Node12 -->
<g id="node24" class="node"><title>Node12</title>
<polygon fill="white" stroke="#bfbfbf" points="304,-58.5 304,-79.5 358,-79.5 358,-58.5 304,-58.5"/>
<text text-anchor="middle" x="331" y="-66.5" font-family="Helvetica,sans-Serif" font-size="10.00">iostream</text>
</g>
<!-- Node7&#45;&gt;Node12 -->
<g id="edge24" class="edge"><title>Node7&#45;&gt;Node12</title>
<path fill="none" stroke="midnightblue" d="M441.553,-116.497C420.182,-107.315 388.931,-93.8889 365.103,-83.6516"/>
<polygon fill="midnightblue" stroke="midnightblue" points="366.291,-80.3529 355.722,-79.6212 363.528,-86.7845 366.291,-80.3529"/>
</g>
<!-- Node13 -->
<g id="node26" class="node"><title>Node13</title>
<polygon fill="white" stroke="#bfbfbf" points="375.5,-58.5 375.5,-79.5 422.5,-79.5 422.5,-58.5 375.5,-58.5"/>
<text text-anchor="middle" x="399" y="-66.5" font-family="Helvetica,sans-Serif" font-size="10.00">iterator</text>
</g>
<!-- Node7&#45;&gt;Node13 -->
<g id="edge26" class="edge"><title>Node7&#45;&gt;Node13</title>
<path fill="none" stroke="midnightblue" d="M453.711,-116.362C443.983,-107.941 430.202,-96.0105 418.905,-86.2308"/>
<polygon fill="midnightblue" stroke="midnightblue" points="421.062,-83.4695 411.211,-79.5707 416.481,-88.7619 421.062,-83.4695"/>
</g>
<!-- Node14 -->
<g id="node28" class="node"><title>Node14</title>
<polygon fill="white" stroke="#bfbfbf" points="440,-58.5 440,-79.5 492,-79.5 492,-58.5 440,-58.5"/>
<text text-anchor="middle" x="466" y="-66.5" font-family="Helvetica,sans-Serif" font-size="10.00">memory</text>
</g>
<!-- Node7&#45;&gt;Node14 -->
<g id="edge28" class="edge"><title>Node7&#45;&gt;Node14</title>
<path fill="none" stroke="midnightblue" d="M466,-116.362C466,-108.922 466,-98.7427 466,-89.7276"/>
<polygon fill="midnightblue" stroke="midnightblue" points="469.5,-89.5706 466,-79.5707 462.5,-89.5707 469.5,-89.5706"/>
</g>
<!-- Node15 -->
<g id="node30" class="node"><title>Node15</title>
<polygon fill="white" stroke="#bfbfbf" points="510,-58.5 510,-79.5 562,-79.5 562,-58.5 510,-58.5"/>
<text text-anchor="middle" x="536" y="-66.5" font-family="Helvetica,sans-Serif" font-size="10.00">sstream</text>
</g>
<!-- Node7&#45;&gt;Node15 -->
<g id="edge30" class="edge"><title>Node7&#45;&gt;Node15</title>
<path fill="none" stroke="midnightblue" d="M478.839,-116.362C489.002,-107.941 503.401,-96.0105 515.204,-86.2308"/>
<polygon fill="midnightblue" stroke="midnightblue" points="517.775,-88.6459 523.242,-79.5707 513.309,-83.2558 517.775,-88.6459"/>
</g>
<!-- Node16 -->
<g id="node32" class="node"><title>Node16</title>
<polygon fill="white" stroke="#bfbfbf" points="579.5,-58.5 579.5,-79.5 620.5,-79.5 620.5,-58.5 579.5,-58.5"/>
<text text-anchor="middle" x="600" y="-66.5" font-family="Helvetica,sans-Serif" font-size="10.00">string</text>
</g>
<!-- Node7&#45;&gt;Node16 -->
<g id="edge32" class="edge"><title>Node7&#45;&gt;Node16</title>
<path fill="none" stroke="midnightblue" d="M490.266,-116.497C512.671,-106.799 546.019,-92.365 570.068,-81.9556"/>
<polygon fill="midnightblue" stroke="midnightblue" points="571.639,-85.0895 579.426,-77.9052 568.858,-78.6655 571.639,-85.0895"/>
</g>
<!-- Node17 -->
<g id="node35" class="node"><title>Node17</title>
<polygon fill="white" stroke="#bfbfbf" points="638,-58.5 638,-79.5 698,-79.5 698,-58.5 638,-58.5"/>
<text text-anchor="middle" x="668" y="-66.5" font-family="Helvetica,sans-Serif" font-size="10.00">sys/stat.h</text>
</g>
<!-- Node7&#45;&gt;Node17 -->
<g id="edge36" class="edge"><title>Node7&#45;&gt;Node17</title>
<path fill="none" stroke="midnightblue" d="M502.581,-116.497C538.018,-106.321 591.615,-90.9323 628.127,-80.4486"/>
<polygon fill="midnightblue" stroke="midnightblue" points="629.298,-83.754 637.943,-77.6301 627.366,-77.0259 629.298,-83.754"/>
</g>
<!-- Node18 -->
<g id="node38" class="node"><title>Node18</title>
<polygon fill="white" stroke="#bfbfbf" points="715.5,-58.5 715.5,-79.5 790.5,-79.5 790.5,-58.5 715.5,-58.5"/>
<text text-anchor="middle" x="753" y="-66.5" font-family="Helvetica,sans-Serif" font-size="10.00">mm_malloc.h</text>
</g>
<!-- Node7&#45;&gt;Node18 -->
<g id="edge40" class="edge"><title>Node7&#45;&gt;Node18</title>
<path fill="none" stroke="midnightblue" d="M507.044,-119.54C553.029,-111.062 630.035,-96.5049 705.256,-80.3229"/>
<polygon fill="midnightblue" stroke="midnightblue" points="706.34,-83.6694 715.374,-78.1339 704.86,-76.8277 706.34,-83.6694"/>
</g>
<!-- Node19 -->
<g id="node40" class="node"><title>Node19</title>
<a xlink:href="../../da/d69/optionparser_8h.html" target="_top" xlink:title="This is the only file required to use The Lean Mean C++ Option Parser. Just #include it and you&#39;re se...">
<polygon fill="white" stroke="black" points="808,-58.5 808,-79.5 912,-79.5 912,-58.5 808,-58.5"/>
<text text-anchor="middle" x="860" y="-66.5" font-family="Helvetica,sans-Serif" font-size="10.00">blond/optionparser.h</text>
</a>
</g>
<!-- Node7&#45;&gt;Node19 -->
<g id="edge42" class="edge"><title>Node7&#45;&gt;Node19</title>
<path fill="none" stroke="midnightblue" d="M507.088,-121.714C568.192,-113.742 686.868,-97.8253 797.761,-80.1566"/>
<polygon fill="midnightblue" stroke="midnightblue" points="798.458,-83.5897 807.779,-78.5522 797.351,-76.6778 798.458,-83.5897"/>
</g>
</g>
</svg>
        <g id="navigator" transform="translate(0 0)" fill="#404254">
                <rect fill="#f2f5e9" fill-opacity="0.5" stroke="#606060" stroke-width=".5" x="0" y="0" width="60" height="60"/>
                <use id="zoomplus" xlink:href="#zoomPlus" x="17" y="9" onmousedown="handleZoom(evt,'in')"/>
                <use id="zoomminus" xlink:href="#zoomMin" x="42" y="9" onmousedown="handleZoom(evt,'out')"/>
                <use id="reset" xlink:href="#resetDef" x="30" y="36" onmousedown="handleReset()"/>
                <g id="arrowUp" xlink:href="#dirArrow" transform="translate(30 24)" onmousedown="handlePan(0,-1)">
                  <use xlink:href="#rim" fill="#404040">
                        <set attributeName="fill" to="#808080" begin="arrowUp.mouseover" end="arrowUp.mouseout"/>
                  </use>
                  <path fill="none" stroke="white" stroke-width="1.5" d="M0,-3.0v7 M-2.5,-0.5L0,-3.0L2.5,-0.5"/>
                </g>
                <g id="arrowRight" xlink:href="#dirArrow" transform="rotate(90) translate(36 -43)" onmousedown="handlePan(1,0)">
                  <use xlink:href="#rim" fill="#404040">
                        <set attributeName="fill" to="#808080" begin="arrowRight.mouseover" end="arrowRight.mouseout"/>
                  </use>
                  <path fill="none" stroke="white" stroke-width="1.5" d="M0,-3.0v7 M-2.5,-0.5L0,-3.0L2.5,-0.5"/>
                </g>
                <g id="arrowDown" xlink:href="#dirArrow" transform="rotate(180) translate(-30 -48)" onmousedown="handlePan(0,1)">
                  <use xlink:href="#rim" fill="#404040">
                        <set attributeName="fill" to="#808080" begin="arrowDown.mouseover" end="arrowDown.mouseout"/>
                  </use>
                  <path fill="none" stroke="white" stroke-width="1.5" d="M0,-3.0v7 M-2.5,-0.5L0,-3.0L2.5,-0.5"/>
                </g>
                <g id="arrowLeft" xlink:href="#dirArrow" transform="rotate(270) translate(-36 17)" onmousedown="handlePan(-1,0)">
                  <use xlink:href="#rim" fill="#404040">
                        <set attributeName="fill" to="#808080" begin="arrowLeft.mouseover" end="arrowLeft.mouseout"/>
                  </use>
                  <path fill="none" stroke="white" stroke-width="1.5" d="M0,-3.0v7 M-2.5,-0.5L0,-3.0L2.5,-0.5"/>
                </g>
        </g>
        <svg viewBox="0 0 15 15" width="100%" height="30px" preserveAspectRatio="xMaxYMin meet">
         <g id="arrow_out" transform="scale(0.3 0.3)">
          <a xlink:href="GeneralParameters_8cpp__incl_org.svg" target="_base">
           <rect id="button" ry="5" rx="5" y="6" x="6" height="38" width="38"
                fill="#f2f5e9" fill-opacity="0.5" stroke="#606060" stroke-width="1.0"/>
           <path id="arrow"
             d="M 11.500037,31.436501 C 11.940474,20.09759 22.043105,11.32322 32.158766,21.979434 L 37.068811,17.246167 C 37.068811,17.246167 37.088388,32 37.088388,32 L 22.160133,31.978069 C 22.160133,31.978069 26.997745,27.140456 26.997745,27.140456 C 18.528582,18.264221 13.291696,25.230495 11.500037,31.436501 z"
             style="fill:#404040;"/>
          </a>
         </g>
        </svg>
</svg>
