<?xml version="1.0" encoding="UTF-8" standalone="no"?>
<!DOCTYPE svg PUBLIC "-//W3C//DTD SVG 1.1//EN"
 "http://www.w3.org/Graphics/SVG/1.1/DTD/svg11.dtd">
<!-- Generated by graphviz version 2.26.3 (20100126.1600)
 -->
<!-- Title: LHC Pages: 1 -->
<svg width="874pt" height="918pt"
 viewBox="0.00 0.00 874.00 918.00" xmlns="http://www.w3.org/2000/svg" xmlns:xlink="http://www.w3.org/1999/xlink">
<g id="graph1" class="graph" transform="scale(1 1) rotate(0) translate(4 914)">
<title>LHC</title>
<polygon fill="white" stroke="white" points="-4,5 -4,-914 871,-914 871,5 -4,5"/>
<!-- Node1 -->
<g id="node1" class="node"><title>Node1</title>
<polygon fill="#bfbfbf" stroke="black" points="662,-0.5 662,-89.5 720,-89.5 720,-0.5 662,-0.5"/>
<text text-anchor="middle" x="691" y="-76.5" font-family="Helvetica,sans-Serif" font-size="10.00">LHC</text>
<polyline fill="none" stroke="black" points="662,-68.5 720,-68.5 "/>
<text text-anchor="middle" x="691" y="-55.5" font-family="Helvetica,sans-Serif" font-size="10.00"> </text>
<polyline fill="none" stroke="black" points="662,-47.5 720,-47.5 "/>
<text text-anchor="start" x="670" y="-34.5" font-family="Helvetica,sans-Serif" font-size="10.00">+ LHC()</text>
<text text-anchor="start" x="670" y="-21.5" font-family="Helvetica,sans-Serif" font-size="10.00">+ ~LHC()</text>
<text text-anchor="start" x="670" y="-8.5" font-family="Helvetica,sans-Serif" font-size="10.00">+ track()</text>
</g>
<!-- Node2 -->
<g id="node2" class="node"><title>Node2</title>
<a xlink:href="../../d6/d87/classPhaseLoop.html" target="_top" xlink:title="{PhaseLoop\n||+ PhaseLoop()\l+ PhaseLoop()\l+ ~PhaseLoop()\l+ beam_phase()\l+ default_track()\l+ phase_difference()\l+ radial_difference()\l+ radial_steering_from_freq()\l+ track()\l}">
<polygon fill="white" stroke="black" points="298.5,-128.5 298.5,-295.5 439.5,-295.5 439.5,-128.5 298.5,-128.5"/>
<text text-anchor="middle" x="369" y="-282.5" font-family="Helvetica,sans-Serif" font-size="10.00">PhaseLoop</text>
<polyline fill="none" stroke="black" points="298.5,-274.5 439.5,-274.5 "/>
<text text-anchor="middle" x="369" y="-261.5" font-family="Helvetica,sans-Serif" font-size="10.00"> </text>
<polyline fill="none" stroke="black" points="298.5,-253.5 439.5,-253.5 "/>
<text text-anchor="start" x="306.5" y="-240.5" font-family="Helvetica,sans-Serif" font-size="10.00">+ PhaseLoop()</text>
<text text-anchor="start" x="306.5" y="-227.5" font-family="Helvetica,sans-Serif" font-size="10.00">+ PhaseLoop()</text>
<text text-anchor="start" x="306.5" y="-214.5" font-family="Helvetica,sans-Serif" font-size="10.00">+ ~PhaseLoop()</text>
<text text-anchor="start" x="306.5" y="-201.5" font-family="Helvetica,sans-Serif" font-size="10.00">+ beam_phase()</text>
<text text-anchor="start" x="306.5" y="-188.5" font-family="Helvetica,sans-Serif" font-size="10.00">+ default_track()</text>
<text text-anchor="start" x="306.5" y="-175.5" font-family="Helvetica,sans-Serif" font-size="10.00">+ phase_difference()</text>
<text text-anchor="start" x="306.5" y="-162.5" font-family="Helvetica,sans-Serif" font-size="10.00">+ radial_difference()</text>
<text text-anchor="start" x="306.5" y="-149.5" font-family="Helvetica,sans-Serif" font-size="10.00">+ radial_steering_from_freq()</text>
<text text-anchor="start" x="306.5" y="-136.5" font-family="Helvetica,sans-Serif" font-size="10.00">+ track()</text>
</a>
</g>
<!-- Node2&#45;&gt;Node1 -->
<g id="edge2" class="edge"><title>Node2&#45;&gt;Node1</title>
<path fill="none" stroke="midnightblue" d="M448.815,-170.605C518.019,-134.714 614.329,-84.7641 661.955,-60.0639"/>
<polygon fill="none" stroke="midnightblue" points="446.93,-167.64 439.664,-175.351 450.153,-173.854 446.93,-167.64"/>
</g>
<!-- Node3 -->
<g id="node4" class="node"><title>Node3</title>
<a xlink:href="../../d8/d2b/classLHCNoiseFB.html" target="_top" xlink:title="{LHCNoiseFB\n||+ LHCNoiseFB()\l+ ~LHCNoiseFB()\l+ fwhm_interpolation()\l+ fwhm_multi_bunch()\l+ fwhm_single_bunch()\l+ track()\l}">
<polygon fill="white" stroke="black" points="151,-373 151,-501 269,-501 269,-373 151,-373"/>
<text text-anchor="middle" x="210" y="-488" font-family="Helvetica,sans-Serif" font-size="10.00">LHCNoiseFB</text>
<polyline fill="none" stroke="black" points="151,-480 269,-480 "/>
<text text-anchor="middle" x="210" y="-467" font-family="Helvetica,sans-Serif" font-size="10.00"> </text>
<polyline fill="none" stroke="black" points="151,-459 269,-459 "/>
<text text-anchor="start" x="159" y="-446" font-family="Helvetica,sans-Serif" font-size="10.00">+ LHCNoiseFB()</text>
<text text-anchor="start" x="159" y="-433" font-family="Helvetica,sans-Serif" font-size="10.00">+ ~LHCNoiseFB()</text>
<text text-anchor="start" x="159" y="-420" font-family="Helvetica,sans-Serif" font-size="10.00">+ fwhm_interpolation()</text>
<text text-anchor="start" x="159" y="-407" font-family="Helvetica,sans-Serif" font-size="10.00">+ fwhm_multi_bunch()</text>
<text text-anchor="start" x="159" y="-394" font-family="Helvetica,sans-Serif" font-size="10.00">+ fwhm_single_bunch()</text>
<text text-anchor="start" x="159" y="-381" font-family="Helvetica,sans-Serif" font-size="10.00">+ track()</text>
</a>
</g>
<!-- Node3&#45;&gt;Node2 -->
<g id="edge4" class="edge"><title>Node3&#45;&gt;Node2</title>
<path fill="none" stroke="#404040" d="M222.363,-372.931C228.106,-352.977 236.337,-331.608 248,-314 259.057,-297.307 273.624,-281.853 288.807,-268.284"/>
<polygon fill="none" stroke="#404040" points="289.226,-267.922 291.158,-260.974 298.314,-260.085 296.382,-267.033 289.226,-267.922"/>
<text text-anchor="middle" x="271" y="-331.5" font-family="Helvetica,sans-Serif" font-size="10.00"> +noiseFB</text>
</g>
<!-- Node4 -->
<g id="node6" class="node"><title>Node4</title>
<polygon fill="white" stroke="#bfbfbf" points="0,-617.5 0,-680.5 90,-680.5 90,-617.5 0,-617.5"/>
<text text-anchor="middle" x="45" y="-667.5" font-family="Helvetica,sans-Serif" font-size="10.00">function&lt; void()&gt;</text>
<polyline fill="none" stroke="#bfbfbf" points="0,-659.5 90,-659.5 "/>
<text text-anchor="middle" x="45" y="-646.5" font-family="Helvetica,sans-Serif" font-size="10.00"> </text>
<polyline fill="none" stroke="#bfbfbf" points="0,-638.5 90,-638.5 "/>
<text text-anchor="middle" x="45" y="-625.5" font-family="Helvetica,sans-Serif" font-size="10.00"> </text>
</g>
<!-- Node4&#45;&gt;Node3 -->
<g id="edge6" class="edge"><title>Node4&#45;&gt;Node3</title>
<path fill="none" stroke="#404040" d="M44.7345,-617.289C46.0008,-589.306 51.655,-548.63 72,-520 88.9286,-496.178 115.041,-477.971 140.015,-464.766"/>
<polygon fill="none" stroke="#404040" points="140.279,-464.634 143.835,-458.361 150.994,-459.231 147.437,-465.504 140.279,-464.634"/>
<text text-anchor="middle" x="92" y="-556.5" font-family="Helvetica,sans-Serif" font-size="10.00"> +fFwhm</text>
</g>
<!-- Node5 -->
<g id="node8" class="node"><title>Node5</title>
<polygon fill="white" stroke="#bfbfbf" points="498.5,-732.5 498.5,-795.5 543.5,-795.5 543.5,-732.5 498.5,-732.5"/>
<text text-anchor="middle" x="521" y="-782.5" font-family="Helvetica,sans-Serif" font-size="10.00">double</text>
<polyline fill="none" stroke="#bfbfbf" points="498.5,-774.5 543.5,-774.5 "/>
<text text-anchor="middle" x="521" y="-761.5" font-family="Helvetica,sans-Serif" font-size="10.00"> </text>
<polyline fill="none" stroke="#bfbfbf" points="498.5,-753.5 543.5,-753.5 "/>
<text text-anchor="middle" x="521" y="-740.5" font-family="Helvetica,sans-Serif" font-size="10.00"> </text>
</g>
<!-- Node5&#45;&gt;Node1 -->
<g id="edge36" class="edge"><title>Node5&#45;&gt;Node1</title>
<path fill="none" stroke="#404040" d="M543.879,-759.163C607.866,-744.981 784,-701.201 784,-649 784,-649 784,-649 784,-212 784,-163.73 753.977,-116.401 728.048,-84.525"/>
<polygon fill="none" stroke="#404040" points="727.888,-84.3341 720.966,-82.3119 720.171,-75.1448 727.092,-77.167 727.888,-84.3341"/>
<text text-anchor="middle" x="800.5" y="-441" font-family="Helvetica,sans-Serif" font-size="10.00"> +lhc_y</text>
<text text-anchor="middle" x="800.5" y="-428" font-family="Helvetica,sans-Serif" font-size="10.00">+gain2</text>
</g>
<!-- Node5&#45;&gt;Node2 -->
<g id="edge22" class="edge"><title>Node5&#45;&gt;Node2</title>
<path fill="none" stroke="#404040" d="M498.343,-756.255C468.681,-744.877 417.371,-720.7 391,-682 350.976,-623.263 355.201,-427.196 362.011,-307.649"/>
<polygon fill="none" stroke="#404040" points="362.014,-307.591 358.374,-301.366 362.72,-295.611 366.36,-301.836 362.014,-307.591"/>
<text text-anchor="middle" x="392" y="-589" font-family="Helvetica,sans-Serif" font-size="10.00"> +alpha</text>
<text text-anchor="middle" x="392" y="-576" font-family="Helvetica,sans-Serif" font-size="10.00">+domega_rf</text>
<text text-anchor="middle" x="392" y="-563" font-family="Helvetica,sans-Serif" font-size="10.00">+dphi</text>
<text text-anchor="middle" x="392" y="-550" font-family="Helvetica,sans-Serif" font-size="10.00">+drho</text>
<text text-anchor="middle" x="392" y="-537" font-family="Helvetica,sans-Serif" font-size="10.00">+phi_beam</text>
<text text-anchor="middle" x="392" y="-524" font-family="Helvetica,sans-Serif" font-size="10.00">+reference</text>
</g>
<!-- Node5&#45;&gt;Node3 -->
<g id="edge8" class="edge"><title>Node5&#45;&gt;Node3</title>
<path fill="none" stroke="#404040" d="M498.398,-761.239C434.744,-752.965 256.318,-726.176 221,-682 200.841,-656.785 200.705,-575.478 203.944,-513.378"/>
<polygon fill="none" stroke="#404040" points="203.953,-513.217 200.298,-507 204.631,-501.236 208.286,-507.453 203.953,-513.217"/>
<text text-anchor="middle" x="244" y="-672.5" font-family="Helvetica,sans-Serif" font-size="10.00"> +fBlMeas</text>
<text text-anchor="middle" x="244" y="-659.5" font-family="Helvetica,sans-Serif" font-size="10.00">+fBlTarg</text>
<text text-anchor="middle" x="244" y="-646.5" font-family="Helvetica,sans-Serif" font-size="10.00">+fA</text>
<text text-anchor="middle" x="244" y="-633.5" font-family="Helvetica,sans-Serif" font-size="10.00">&#45;cfwhm</text>
<text text-anchor="middle" x="244" y="-620.5" font-family="Helvetica,sans-Serif" font-size="10.00">+fX</text>
</g>
<!-- Node8 -->
<g id="node14" class="node"><title>Node8</title>
<polygon fill="white" stroke="#bfbfbf" points="582,-617.5 582,-680.5 692,-680.5 692,-617.5 582,-617.5"/>
<text text-anchor="middle" x="637" y="-667.5" font-family="Helvetica,sans-Serif" font-size="10.00">std::vector&lt; double &gt;</text>
<polyline fill="none" stroke="#bfbfbf" points="582,-659.5 692,-659.5 "/>
<text text-anchor="middle" x="637" y="-646.5" font-family="Helvetica,sans-Serif" font-size="10.00"> </text>
<polyline fill="none" stroke="#bfbfbf" points="582,-638.5 692,-638.5 "/>
<text text-anchor="middle" x="637" y="-625.5" font-family="Helvetica,sans-Serif" font-size="10.00"> </text>
</g>
<!-- Node5&#45;&gt;Node8 -->
<g id="edge16" class="edge"><title>Node5&#45;&gt;Node8</title>
<path fill="none" stroke="#404040" d="M543.641,-741.554C558.576,-726.748 578.57,-706.927 596.222,-689.426"/>
<polygon fill="none" stroke="#404040" points="596.679,-688.974 598.123,-681.909 605.201,-680.525 603.756,-687.59 596.679,-688.974"/>
<text text-anchor="middle" x="606.5" y="-704.5" font-family="Helvetica,sans-Serif" font-size="10.00"> +elements</text>
</g>
<!-- Node11 -->
<g id="node23" class="node"><title>Node11</title>
<a xlink:href="../../da/dd4/classPhaseNoise.html" target="_top" xlink:title="{PhaseNoise\n||+ PhaseNoise()\l+ ~PhaseNoise()\l+ generate()\l+ spectrum_generation()\l+ spectrum_to_phase_noise()\l}">
<polygon fill="white" stroke="black" points="448,-379.5 448,-494.5 594,-494.5 594,-379.5 448,-379.5"/>
<text text-anchor="middle" x="521" y="-481.5" font-family="Helvetica,sans-Serif" font-size="10.00">PhaseNoise</text>
<polyline fill="none" stroke="black" points="448,-473.5 594,-473.5 "/>
<text text-anchor="middle" x="521" y="-460.5" font-family="Helvetica,sans-Serif" font-size="10.00"> </text>
<polyline fill="none" stroke="black" points="448,-452.5 594,-452.5 "/>
<text text-anchor="start" x="456" y="-439.5" font-family="Helvetica,sans-Serif" font-size="10.00">+ PhaseNoise()</text>
<text text-anchor="start" x="456" y="-426.5" font-family="Helvetica,sans-Serif" font-size="10.00">+ ~PhaseNoise()</text>
<text text-anchor="start" x="456" y="-413.5" font-family="Helvetica,sans-Serif" font-size="10.00">+ generate()</text>
<text text-anchor="start" x="456" y="-400.5" font-family="Helvetica,sans-Serif" font-size="10.00">+ spectrum_generation()</text>
<text text-anchor="start" x="456" y="-387.5" font-family="Helvetica,sans-Serif" font-size="10.00">+ spectrum_to_phase_noise()</text>
</a>
</g>
<!-- Node5&#45;&gt;Node11 -->
<g id="edge30" class="edge"><title>Node5&#45;&gt;Node11</title>
<path fill="none" stroke="#404040" d="M521,-732.349C521,-680.561 521,-576.518 521,-506.795"/>
<polygon fill="none" stroke="#404040" points="521,-506.627 517,-500.627 521,-494.627 525,-500.627 521,-506.627"/>
<text text-anchor="middle" x="538" y="-659.5" font-family="Helvetica,sans-Serif" font-size="10.00"> +fFMin</text>
<text text-anchor="middle" x="538" y="-646.5" font-family="Helvetica,sans-Serif" font-size="10.00">+fFMax</text>
<text text-anchor="middle" x="538" y="-633.5" font-family="Helvetica,sans-Serif" font-size="10.00">+fAi</text>
</g>
<!-- Node6 -->
<g id="node10" class="node"><title>Node6</title>
<polygon fill="white" stroke="#bfbfbf" points="107.5,-617.5 107.5,-680.5 142.5,-680.5 142.5,-617.5 107.5,-617.5"/>
<text text-anchor="middle" x="125" y="-667.5" font-family="Helvetica,sans-Serif" font-size="10.00">bool</text>
<polyline fill="none" stroke="#bfbfbf" points="107.5,-659.5 142.5,-659.5 "/>
<text text-anchor="middle" x="125" y="-646.5" font-family="Helvetica,sans-Serif" font-size="10.00"> </text>
<polyline fill="none" stroke="#bfbfbf" points="107.5,-638.5 142.5,-638.5 "/>
<text text-anchor="middle" x="125" y="-625.5" font-family="Helvetica,sans-Serif" font-size="10.00"> </text>
</g>
<!-- Node6&#45;&gt;Node3 -->
<g id="edge10" class="edge"><title>Node6&#45;&gt;Node3</title>
<path fill="none" stroke="#404040" d="M118.727,-617.421C114.86,-590.438 112.844,-551.155 126,-520 130.114,-510.257 135.981,-501.071 142.728,-492.612"/>
<polygon fill="none" stroke="#404040" points="142.844,-492.476 143.726,-485.319 150.671,-483.38 149.79,-490.537 142.844,-492.476"/>
<text text-anchor="middle" x="160" y="-556.5" font-family="Helvetica,sans-Serif" font-size="10.00"> +fVariableGain</text>
</g>
<!-- Node7 -->
<g id="node12" class="node"><title>Node7</title>
<polygon fill="white" stroke="#bfbfbf" points="276,-617.5 276,-680.5 332,-680.5 332,-617.5 276,-617.5"/>
<text text-anchor="middle" x="304" y="-667.5" font-family="Helvetica,sans-Serif" font-size="10.00">unsigned</text>
<polyline fill="none" stroke="#bfbfbf" points="276,-659.5 332,-659.5 "/>
<text text-anchor="middle" x="304" y="-646.5" font-family="Helvetica,sans-Serif" font-size="10.00"> </text>
<polyline fill="none" stroke="#bfbfbf" points="276,-638.5 332,-638.5 "/>
<text text-anchor="middle" x="304" y="-625.5" font-family="Helvetica,sans-Serif" font-size="10.00"> </text>
</g>
<!-- Node7&#45;&gt;Node2 -->
<g id="edge24" class="edge"><title>Node7&#45;&gt;Node2</title>
<path fill="none" stroke="#404040" d="M303.798,-617.156C303.975,-565.353 306.451,-459.788 322,-372 325.749,-350.833 331.277,-328.485 337.237,-307.421"/>
<polygon fill="none" stroke="#404040" points="337.245,-307.394 335.072,-300.517 340.584,-295.867 342.756,-302.743 337.245,-307.394"/>
<text text-anchor="middle" x="338.5" y="-434.5" font-family="Helvetica,sans-Serif" font-size="10.00"> +delay</text>
</g>
<!-- Node7&#45;&gt;Node3 -->
<g id="edge12" class="edge"><title>Node7&#45;&gt;Node3</title>
<path fill="none" stroke="#404040" d="M275.762,-628.731C261.599,-618.007 246.509,-605.534 242,-598 233.261,-583.399 225.712,-547.386 220.144,-513.114"/>
<polygon fill="none" stroke="#404040" points="220.12,-512.957 215.238,-507.65 218.259,-501.102 223.141,-506.409 220.12,-512.957"/>
<text text-anchor="middle" x="268" y="-556.5" font-family="Helvetica,sans-Serif" font-size="10.00"> +fNUpdate</text>
</g>
<!-- Node8&#45;&gt;Node1 -->
<g id="edge38" class="edge"><title>Node8&#45;&gt;Node1</title>
<path fill="none" stroke="#404040" d="M664.217,-617.43C668.185,-611.328 671.701,-604.729 674,-598 733.019,-425.234 713.77,-204.167 699.941,-101.763"/>
<polygon fill="none" stroke="#404040" points="699.9,-101.466 695.111,-96.0751 698.245,-89.5809 703.034,-94.972 699.9,-101.466"/>
<text text-anchor="middle" x="729" y="-344.5" font-family="Helvetica,sans-Serif" font-size="10.00"> +gain</text>
<text text-anchor="middle" x="729" y="-331.5" font-family="Helvetica,sans-Serif" font-size="10.00">+lhc_a</text>
<text text-anchor="middle" x="729" y="-318.5" font-family="Helvetica,sans-Serif" font-size="10.00">+lhc_t</text>
</g>
<!-- Node8&#45;&gt;Node3 -->
<g id="edge14" class="edge"><title>Node8&#45;&gt;Node3</title>
<path fill="none" stroke="#404040" d="M581.746,-622.51C570.698,-615.567 559.8,-607.358 551,-598 524.311,-569.619 543.408,-541.623 511,-520 469.275,-492.16 332.323,-521.241 286,-502 283.926,-501.138 281.867,-500.198 279.827,-499.189"/>
<polygon fill="none" stroke="#404040" points="279.594,-499.058 272.405,-499.615 269.125,-493.193 276.315,-492.636 279.594,-499.058"/>
<text text-anchor="middle" x="585.5" y="-569.5" font-family="Helvetica,sans-Serif" font-size="10.00"> +fBlMeasBBB</text>
<text text-anchor="middle" x="585.5" y="-556.5" font-family="Helvetica,sans-Serif" font-size="10.00">+fBunchPattern</text>
<text text-anchor="middle" x="585.5" y="-543.5" font-family="Helvetica,sans-Serif" font-size="10.00">+fG</text>
</g>
<!-- Node8&#45;&gt;Node11 -->
<g id="edge34" class="edge"><title>Node8&#45;&gt;Node11</title>
<path fill="none" stroke="#404040" d="M640.376,-617.323C641.824,-589.92 640.297,-550.083 624,-520 618.479,-509.809 611.132,-500.41 602.893,-491.888"/>
<polygon fill="none" stroke="#404040" points="602.658,-491.661 595.563,-490.372 594.024,-483.327 601.119,-484.616 602.658,-491.661"/>
<text text-anchor="middle" x="655" y="-563" font-family="Helvetica,sans-Serif" font-size="10.00"> +fFs</text>
<text text-anchor="middle" x="655" y="-550" font-family="Helvetica,sans-Serif" font-size="10.00">+fDphi</text>
</g>
<!-- Node9 -->
<g id="node17" class="node"><title>Node9</title>
<a xlink:title="STL class.">
<polygon fill="white" stroke="#bfbfbf" points="773.5,-732.5 773.5,-795.5 860.5,-795.5 860.5,-732.5 773.5,-732.5"/>
<text text-anchor="middle" x="817" y="-782.5" font-family="Helvetica,sans-Serif" font-size="10.00">std::vector&lt; T &gt;</text>
<polyline fill="none" stroke="#bfbfbf" points="773.5,-774.5 860.5,-774.5 "/>
<text text-anchor="middle" x="817" y="-761.5" font-family="Helvetica,sans-Serif" font-size="10.00"> </text>
<polyline fill="none" stroke="#bfbfbf" points="773.5,-753.5 860.5,-753.5 "/>
<text text-anchor="middle" x="817" y="-740.5" font-family="Helvetica,sans-Serif" font-size="10.00"> </text>
</a>
</g>
<!-- Node9&#45;&gt;Node8 -->
<g id="edge18" class="edge"><title>Node9&#45;&gt;Node8</title>
<path fill="none" stroke="orange" d="M764.905,-730.717C740.219,-714.946 710.878,-696.2 686.528,-680.643"/>
<polygon fill="orange" stroke="orange" points="763.116,-733.727 773.427,-736.162 766.884,-727.828 763.116,-733.727"/>
<text text-anchor="middle" x="762" y="-704.5" font-family="Helvetica,sans-Serif" font-size="10.00"> &lt; double &gt;</text>
</g>
<!-- Node10 -->
<g id="node19" class="node"><title>Node10</title>
<polygon fill="white" stroke="#bfbfbf" points="802.5,-846.5 802.5,-909.5 831.5,-909.5 831.5,-846.5 802.5,-846.5"/>
<text text-anchor="middle" x="817" y="-896.5" font-family="Helvetica,sans-Serif" font-size="10.00">T</text>
<polyline fill="none" stroke="#bfbfbf" points="802.5,-888.5 831.5,-888.5 "/>
<text text-anchor="middle" x="817" y="-875.5" font-family="Helvetica,sans-Serif" font-size="10.00"> </text>
<polyline fill="none" stroke="#bfbfbf" points="802.5,-867.5 831.5,-867.5 "/>
<text text-anchor="middle" x="817" y="-854.5" font-family="Helvetica,sans-Serif" font-size="10.00"> </text>
</g>
<!-- Node10&#45;&gt;Node9 -->
<g id="edge20" class="edge"><title>Node10&#45;&gt;Node9</title>
<path fill="none" stroke="#404040" d="M817,-846.245C817,-834.386 817,-820.7 817,-807.938"/>
<polygon fill="none" stroke="#404040" points="817,-807.585 813,-801.585 817,-795.585 821,-801.585 817,-807.585"/>
<text text-anchor="middle" x="841.5" y="-818.5" font-family="Helvetica,sans-Serif" font-size="10.00"> +elements</text>
</g>
<!-- Node11&#45;&gt;Node2 -->
<g id="edge26" class="edge"><title>Node11&#45;&gt;Node2</title>
<path fill="none" stroke="#404040" d="M482.054,-379.349C466.978,-357.034 449.328,-330.907 432.516,-306.02"/>
<polygon fill="none" stroke="#404040" points="432.341,-305.761 425.667,-303.028 425.623,-295.817 432.297,-298.55 432.341,-305.761"/>
<text text-anchor="middle" x="487" y="-331.5" font-family="Helvetica,sans-Serif" font-size="10.00"> +RFnoise</text>
</g>
<!-- Node12 -->
<g id="node25" class="node"><title>Node12</title>
<polygon fill="white" stroke="#bfbfbf" points="400,-617.5 400,-680.5 478,-680.5 478,-617.5 400,-617.5"/>
<text text-anchor="middle" x="439" y="-667.5" font-family="Helvetica,sans-Serif" font-size="10.00">predistortion_t</text>
<polyline fill="none" stroke="#bfbfbf" points="400,-659.5 478,-659.5 "/>
<text text-anchor="middle" x="439" y="-646.5" font-family="Helvetica,sans-Serif" font-size="10.00"> </text>
<polyline fill="none" stroke="#bfbfbf" points="400,-638.5 478,-638.5 "/>
<text text-anchor="middle" x="439" y="-625.5" font-family="Helvetica,sans-Serif" font-size="10.00"> </text>
</g>
<!-- Node12&#45;&gt;Node11 -->
<g id="edge28" class="edge"><title>Node12&#45;&gt;Node11</title>
<path fill="none" stroke="#404040" d="M432.87,-617.481C429.093,-590.535 427.128,-551.273 440,-520 442.184,-514.694 444.886,-509.54 447.963,-504.571"/>
<polygon fill="none" stroke="#404040" points="447.982,-504.543 448.071,-497.332 454.76,-494.641 454.672,-501.851 447.982,-504.543"/>
<text text-anchor="middle" x="473.5" y="-556.5" font-family="Helvetica,sans-Serif" font-size="10.00"> +fPredistortion</text>
</g>
<!-- Node13 -->
<g id="node28" class="node"><title>Node13</title>
<polygon fill="white" stroke="#bfbfbf" points="709.5,-617.5 709.5,-680.5 738.5,-680.5 738.5,-617.5 709.5,-617.5"/>
<text text-anchor="middle" x="724" y="-667.5" font-family="Helvetica,sans-Serif" font-size="10.00">int</text>
<polyline fill="none" stroke="#bfbfbf" points="709.5,-659.5 738.5,-659.5 "/>
<text text-anchor="middle" x="724" y="-646.5" font-family="Helvetica,sans-Serif" font-size="10.00"> </text>
<polyline fill="none" stroke="#bfbfbf" points="709.5,-638.5 738.5,-638.5 "/>
<text text-anchor="middle" x="724" y="-625.5" font-family="Helvetica,sans-Serif" font-size="10.00"> </text>
</g>
<!-- Node13&#45;&gt;Node11 -->
<g id="edge32" class="edge"><title>Node13&#45;&gt;Node11</title>
<path fill="none" stroke="#404040" d="M718.216,-617.381C711.654,-589.075 698.519,-547.856 674,-520 655.303,-498.758 629.813,-481.951 605.001,-469.176"/>
<polygon fill="none" stroke="#404040" points="604.813,-469.083 597.662,-470.012 594.054,-463.768 601.205,-462.839 604.813,-469.083"/>
<text text-anchor="middle" x="734.5" y="-576" font-family="Helvetica,sans-Serif" font-size="10.00"> +fNTurns</text>
<text text-anchor="middle" x="734.5" y="-563" font-family="Helvetica,sans-Serif" font-size="10.00">+fCorr</text>
<text text-anchor="middle" x="734.5" y="-550" font-family="Helvetica,sans-Serif" font-size="10.00">+fSeed1</text>
<text text-anchor="middle" x="734.5" y="-537" font-family="Helvetica,sans-Serif" font-size="10.00">+fSeed2</text>
</g>
</g>
</svg>
