<?xml version="1.0" encoding="UTF-8" standalone="no"?>
<!DOCTYPE svg PUBLIC "-//W3C//DTD SVG 1.1//EN"
 "http://www.w3.org/Graphics/SVG/1.1/DTD/svg11.dtd">
<!-- Generated by graphviz version 2.26.3 (20100126.1600)
 -->
<!-- Title: LHC Pages: 1 -->
<svg width="882pt" height="918pt"
 viewBox="0.00 0.00 882.00 918.00" xmlns="http://www.w3.org/2000/svg" xmlns:xlink="http://www.w3.org/1999/xlink">
<g id="graph1" class="graph" transform="scale(1 1) rotate(0) translate(4 914)">
<title>LHC</title>
<polygon fill="white" stroke="white" points="-4,5 -4,-914 879,-914 879,5 -4,5"/>
<!-- Node1 -->
<g id="node1" class="node"><title>Node1</title>
<polygon fill="#bfbfbf" stroke="black" points="670,-0.5 670,-89.5 728,-89.5 728,-0.5 670,-0.5"/>
<text text-anchor="middle" x="699" y="-76.5" font-family="Helvetica,sans-Serif" font-size="10.00">LHC</text>
<polyline fill="none" stroke="black" points="670,-68.5 728,-68.5 "/>
<text text-anchor="middle" x="699" y="-55.5" font-family="Helvetica,sans-Serif" font-size="10.00"> </text>
<polyline fill="none" stroke="black" points="670,-47.5 728,-47.5 "/>
<text text-anchor="start" x="678" y="-34.5" font-family="Helvetica,sans-Serif" font-size="10.00">+ LHC()</text>
<text text-anchor="start" x="678" y="-21.5" font-family="Helvetica,sans-Serif" font-size="10.00">+ ~LHC()</text>
<text text-anchor="start" x="678" y="-8.5" font-family="Helvetica,sans-Serif" font-size="10.00">+ track()</text>
</g>
<!-- Node2 -->
<g id="node2" class="node"><title>Node2</title>
<a xlink:href="../../d6/d87/classPhaseLoop.html" target="_top" xlink:title="{PhaseLoop\n||+ PhaseLoop()\l+ PhaseLoop()\l+ ~PhaseLoop()\l+ beam_phase()\l+ default_track()\l+ phase_difference()\l+ radial_difference()\l+ radial_steering_from_freq()\l+ track()\l}">
<polygon fill="white" stroke="black" points="298.5,-128.5 298.5,-295.5 439.5,-295.5 439.5,-128.5 298.5,-128.5"/>
<text text-anchor="middle" x="369" y="-282.5" font-family="Helvetica,sans-Serif" font-size="10.00">PhaseLoop</text>
<polyline fill="none" stroke="black" points="298.5,-274.5 439.5,-274.5 "/>
<text text-anchor="middle" x="369" y="-261.5" font-family="Helvetica,sans-Serif" font-size="10.00"> </text>
<polyline fill="none" stroke="black" points="298.5,-253.5 439.5,-253.5 "/>
<text text-anchor="start" x="306.5" y="-240.5" font-family="Helvetica,sans-Serif" font-size="10.00">+ PhaseLoop()</text>
<text text-anchor="start" x="306.5" y="-227.5" font-family="Helvetica,sans-Serif" font-size="10.00">+ PhaseLoop()</text>
<text text-anchor="start" x="306.5" y="-214.5" font-family="Helvetica,sans-Serif" font-size="10.00">+ ~PhaseLoop()</text>
<text text-anchor="start" x="306.5" y="-201.5" font-family="Helvetica,sans-Serif" font-size="10.00">+ beam_phase()</text>
<text text-anchor="start" x="306.5" y="-188.5" font-family="Helvetica,sans-Serif" font-size="10.00">+ default_track()</text>
<text text-anchor="start" x="306.5" y="-175.5" font-family="Helvetica,sans-Serif" font-size="10.00">+ phase_difference()</text>
<text text-anchor="start" x="306.5" y="-162.5" font-family="Helvetica,sans-Serif" font-size="10.00">+ radial_difference()</text>
<text text-anchor="start" x="306.5" y="-149.5" font-family="Helvetica,sans-Serif" font-size="10.00">+ radial_steering_from_freq()</text>
<text text-anchor="start" x="306.5" y="-136.5" font-family="Helvetica,sans-Serif" font-size="10.00">+ track()</text>
</a>
</g>
<!-- Node2&#45;&gt;Node1 -->
<g id="edge2" class="edge"><title>Node2&#45;&gt;Node1</title>
<path fill="none" stroke="midnightblue" d="M448.775,-171.629C520.078,-135.546 620.647,-84.6511 669.74,-59.8075"/>
<polygon fill="none" stroke="midnightblue" points="447.135,-168.536 439.793,-176.174 450.296,-174.782 447.135,-168.536"/>
</g>
<!-- Node3 -->
<g id="node4" class="node"><title>Node3</title>
<a xlink:href="../../d8/d2b/classLHCNoiseFB.html" target="_top" xlink:title="{LHCNoiseFB\n||+ LHCNoiseFB()\l+ ~LHCNoiseFB()\l+ fwhm_interpolation()\l+ fwhm_multi_bunch()\l+ fwhm_single_bunch()\l+ track()\l}">
<polygon fill="white" stroke="black" points="151,-373 151,-501 269,-501 269,-373 151,-373"/>
<text text-anchor="middle" x="210" y="-488" font-family="Helvetica,sans-Serif" font-size="10.00">LHCNoiseFB</text>
<polyline fill="none" stroke="black" points="151,-480 269,-480 "/>
<text text-anchor="middle" x="210" y="-467" font-family="Helvetica,sans-Serif" font-size="10.00"> </text>
<polyline fill="none" stroke="black" points="151,-459 269,-459 "/>
<text text-anchor="start" x="159" y="-446" font-family="Helvetica,sans-Serif" font-size="10.00">+ LHCNoiseFB()</text>
<text text-anchor="start" x="159" y="-433" font-family="Helvetica,sans-Serif" font-size="10.00">+ ~LHCNoiseFB()</text>
<text text-anchor="start" x="159" y="-420" font-family="Helvetica,sans-Serif" font-size="10.00">+ fwhm_interpolation()</text>
<text text-anchor="start" x="159" y="-407" font-family="Helvetica,sans-Serif" font-size="10.00">+ fwhm_multi_bunch()</text>
<text text-anchor="start" x="159" y="-394" font-family="Helvetica,sans-Serif" font-size="10.00">+ fwhm_single_bunch()</text>
<text text-anchor="start" x="159" y="-381" font-family="Helvetica,sans-Serif" font-size="10.00">+ track()</text>
</a>
</g>
<!-- Node3&#45;&gt;Node2 -->
<g id="edge4" class="edge"><title>Node3&#45;&gt;Node2</title>
<path fill="none" stroke="#404040" d="M222.363,-372.931C228.106,-352.977 236.337,-331.608 248,-314 259.057,-297.307 273.624,-281.853 288.807,-268.284"/>
<polygon fill="none" stroke="#404040" points="289.226,-267.922 291.158,-260.974 298.314,-260.085 296.382,-267.033 289.226,-267.922"/>
<text text-anchor="middle" x="271" y="-331.5" font-family="Helvetica,sans-Serif" font-size="10.00"> +noiseFB</text>
</g>
<!-- Node4 -->
<g id="node6" class="node"><title>Node4</title>
<polygon fill="white" stroke="#bfbfbf" points="0,-617.5 0,-680.5 90,-680.5 90,-617.5 0,-617.5"/>
<text text-anchor="middle" x="45" y="-667.5" font-family="Helvetica,sans-Serif" font-size="10.00">function&lt; void()&gt;</text>
<polyline fill="none" stroke="#bfbfbf" points="0,-659.5 90,-659.5 "/>
<text text-anchor="middle" x="45" y="-646.5" font-family="Helvetica,sans-Serif" font-size="10.00"> </text>
<polyline fill="none" stroke="#bfbfbf" points="0,-638.5 90,-638.5 "/>
<text text-anchor="middle" x="45" y="-625.5" font-family="Helvetica,sans-Serif" font-size="10.00"> </text>
</g>
<!-- Node4&#45;&gt;Node3 -->
<g id="edge6" class="edge"><title>Node4&#45;&gt;Node3</title>
<path fill="none" stroke="#404040" d="M44.7345,-617.289C46.0008,-589.306 51.655,-548.63 72,-520 88.9286,-496.178 115.041,-477.971 140.015,-464.766"/>
<polygon fill="none" stroke="#404040" points="140.279,-464.634 143.835,-458.361 150.994,-459.231 147.437,-465.504 140.279,-464.634"/>
<text text-anchor="middle" x="92" y="-556.5" font-family="Helvetica,sans-Serif" font-size="10.00"> +fFwhm</text>
</g>
<!-- Node5 -->
<g id="node8" class="node"><title>Node5</title>
<polygon fill="white" stroke="#bfbfbf" points="506.5,-732.5 506.5,-795.5 551.5,-795.5 551.5,-732.5 506.5,-732.5"/>
<text text-anchor="middle" x="529" y="-782.5" font-family="Helvetica,sans-Serif" font-size="10.00">double</text>
<polyline fill="none" stroke="#bfbfbf" points="506.5,-774.5 551.5,-774.5 "/>
<text text-anchor="middle" x="529" y="-761.5" font-family="Helvetica,sans-Serif" font-size="10.00"> </text>
<polyline fill="none" stroke="#bfbfbf" points="506.5,-753.5 551.5,-753.5 "/>
<text text-anchor="middle" x="529" y="-740.5" font-family="Helvetica,sans-Serif" font-size="10.00"> </text>
</g>
<!-- Node5&#45;&gt;Node1 -->
<g id="edge36" class="edge"><title>Node5&#45;&gt;Node1</title>
<path fill="none" stroke="#404040" d="M551.879,-759.163C615.866,-744.981 792,-701.201 792,-649 792,-649 792,-649 792,-212 792,-163.73 761.977,-116.401 736.048,-84.525"/>
<polygon fill="none" stroke="#404040" points="735.888,-84.3341 728.966,-82.3119 728.171,-75.1448 735.092,-77.167 735.888,-84.3341"/>
<text text-anchor="middle" x="808.5" y="-441" font-family="Helvetica,sans-Serif" font-size="10.00"> +lhc_y</text>
<text text-anchor="middle" x="808.5" y="-428" font-family="Helvetica,sans-Serif" font-size="10.00">+gain2</text>
</g>
<!-- Node5&#45;&gt;Node2 -->
<g id="edge22" class="edge"><title>Node5&#45;&gt;Node2</title>
<path fill="none" stroke="#404040" d="M506.353,-755.688C477.184,-743.824 426.926,-719.26 399,-682 356.273,-624.992 357.815,-427.807 363.155,-307.705"/>
<polygon fill="none" stroke="#404040" points="363.16,-307.599 359.443,-301.42 363.717,-295.612 367.434,-301.792 363.16,-307.599"/>
<text text-anchor="middle" x="402" y="-589" font-family="Helvetica,sans-Serif" font-size="10.00"> +alpha</text>
<text text-anchor="middle" x="402" y="-576" font-family="Helvetica,sans-Serif" font-size="10.00">+domega_RF</text>
<text text-anchor="middle" x="402" y="-563" font-family="Helvetica,sans-Serif" font-size="10.00">+dphi</text>
<text text-anchor="middle" x="402" y="-550" font-family="Helvetica,sans-Serif" font-size="10.00">+drho</text>
<text text-anchor="middle" x="402" y="-537" font-family="Helvetica,sans-Serif" font-size="10.00">+phi_beam</text>
<text text-anchor="middle" x="402" y="-524" font-family="Helvetica,sans-Serif" font-size="10.00">+reference</text>
</g>
<!-- Node5&#45;&gt;Node3 -->
<g id="edge8" class="edge"><title>Node5&#45;&gt;Node3</title>
<path fill="none" stroke="#404040" d="M506.269,-761.393C441.35,-753.444 257.431,-727.261 221,-682 200.758,-656.852 200.637,-575.533 203.902,-513.411"/>
<polygon fill="none" stroke="#404040" points="203.911,-513.246 200.26,-507.028 204.595,-501.265 208.247,-507.484 203.911,-513.246"/>
<text text-anchor="middle" x="244" y="-672.5" font-family="Helvetica,sans-Serif" font-size="10.00"> +fBlMeas</text>
<text text-anchor="middle" x="244" y="-659.5" font-family="Helvetica,sans-Serif" font-size="10.00">+fBlTarg</text>
<text text-anchor="middle" x="244" y="-646.5" font-family="Helvetica,sans-Serif" font-size="10.00">+fA</text>
<text text-anchor="middle" x="244" y="-633.5" font-family="Helvetica,sans-Serif" font-size="10.00">&#45;cfwhm</text>
<text text-anchor="middle" x="244" y="-620.5" font-family="Helvetica,sans-Serif" font-size="10.00">+fX</text>
</g>
<!-- Node7 -->
<g id="node12" class="node"><title>Node7</title>
<polygon fill="white" stroke="#bfbfbf" points="597.5,-617.5 597.5,-680.5 700.5,-680.5 700.5,-617.5 597.5,-617.5"/>
<text text-anchor="middle" x="649" y="-667.5" font-family="Helvetica,sans-Serif" font-size="10.00">std::vector&lt; ftype &gt;</text>
<polyline fill="none" stroke="#bfbfbf" points="597.5,-659.5 700.5,-659.5 "/>
<text text-anchor="middle" x="649" y="-646.5" font-family="Helvetica,sans-Serif" font-size="10.00"> </text>
<polyline fill="none" stroke="#bfbfbf" points="597.5,-638.5 700.5,-638.5 "/>
<text text-anchor="middle" x="649" y="-625.5" font-family="Helvetica,sans-Serif" font-size="10.00"> </text>
</g>
<!-- Node5&#45;&gt;Node7 -->
<g id="edge14" class="edge"><title>Node5&#45;&gt;Node7</title>
<path fill="none" stroke="#404040" d="M551.571,-742.369C567.279,-727.316 588.685,-706.802 607.432,-688.836"/>
<polygon fill="none" stroke="#404040" points="607.441,-688.827 609.006,-681.788 616.105,-680.524 614.541,-687.563 607.441,-688.827"/>
<text text-anchor="middle" x="616.5" y="-704.5" font-family="Helvetica,sans-Serif" font-size="10.00"> +elements</text>
</g>
<!-- Node11 -->
<g id="node23" class="node"><title>Node11</title>
<a xlink:href="../../da/dd4/classPhaseNoise.html" target="_top" xlink:title="{PhaseNoise\n||+ PhaseNoise()\l+ ~PhaseNoise()\l+ generate()\l+ spectrum_generation()\l+ spectrum_to_phase_noise()\l}">
<polygon fill="white" stroke="black" points="456,-379.5 456,-494.5 602,-494.5 602,-379.5 456,-379.5"/>
<text text-anchor="middle" x="529" y="-481.5" font-family="Helvetica,sans-Serif" font-size="10.00">PhaseNoise</text>
<polyline fill="none" stroke="black" points="456,-473.5 602,-473.5 "/>
<text text-anchor="middle" x="529" y="-460.5" font-family="Helvetica,sans-Serif" font-size="10.00"> </text>
<polyline fill="none" stroke="black" points="456,-452.5 602,-452.5 "/>
<text text-anchor="start" x="464" y="-439.5" font-family="Helvetica,sans-Serif" font-size="10.00">+ PhaseNoise()</text>
<text text-anchor="start" x="464" y="-426.5" font-family="Helvetica,sans-Serif" font-size="10.00">+ ~PhaseNoise()</text>
<text text-anchor="start" x="464" y="-413.5" font-family="Helvetica,sans-Serif" font-size="10.00">+ generate()</text>
<text text-anchor="start" x="464" y="-400.5" font-family="Helvetica,sans-Serif" font-size="10.00">+ spectrum_generation()</text>
<text text-anchor="start" x="464" y="-387.5" font-family="Helvetica,sans-Serif" font-size="10.00">+ spectrum_to_phase_noise()</text>
</a>
</g>
<!-- Node5&#45;&gt;Node11 -->
<g id="edge30" class="edge"><title>Node5&#45;&gt;Node11</title>
<path fill="none" stroke="#404040" d="M529,-732.349C529,-680.561 529,-576.518 529,-506.795"/>
<polygon fill="none" stroke="#404040" points="529,-506.627 525,-500.627 529,-494.627 533,-500.627 529,-506.627"/>
<text text-anchor="middle" x="546" y="-659.5" font-family="Helvetica,sans-Serif" font-size="10.00"> +fFMin</text>
<text text-anchor="middle" x="546" y="-646.5" font-family="Helvetica,sans-Serif" font-size="10.00">+fFMax</text>
<text text-anchor="middle" x="546" y="-633.5" font-family="Helvetica,sans-Serif" font-size="10.00">+fAi</text>
</g>
<!-- Node6 -->
<g id="node10" class="node"><title>Node6</title>
<polygon fill="white" stroke="#bfbfbf" points="107.5,-617.5 107.5,-680.5 142.5,-680.5 142.5,-617.5 107.5,-617.5"/>
<text text-anchor="middle" x="125" y="-667.5" font-family="Helvetica,sans-Serif" font-size="10.00">bool</text>
<polyline fill="none" stroke="#bfbfbf" points="107.5,-659.5 142.5,-659.5 "/>
<text text-anchor="middle" x="125" y="-646.5" font-family="Helvetica,sans-Serif" font-size="10.00"> </text>
<polyline fill="none" stroke="#bfbfbf" points="107.5,-638.5 142.5,-638.5 "/>
<text text-anchor="middle" x="125" y="-625.5" font-family="Helvetica,sans-Serif" font-size="10.00"> </text>
</g>
<!-- Node6&#45;&gt;Node3 -->
<g id="edge10" class="edge"><title>Node6&#45;&gt;Node3</title>
<path fill="none" stroke="#404040" d="M118.727,-617.421C114.86,-590.438 112.844,-551.155 126,-520 130.114,-510.257 135.981,-501.071 142.728,-492.612"/>
<polygon fill="none" stroke="#404040" points="142.844,-492.476 143.726,-485.319 150.671,-483.38 149.79,-490.537 142.844,-492.476"/>
<text text-anchor="middle" x="160" y="-556.5" font-family="Helvetica,sans-Serif" font-size="10.00"> +fVariableGain</text>
</g>
<!-- Node7&#45;&gt;Node1 -->
<g id="edge38" class="edge"><title>Node7&#45;&gt;Node1</title>
<path fill="none" stroke="#404040" d="M674.773,-617.28C678.524,-611.193 681.842,-604.638 684,-598 740.362,-424.611 721.383,-204.291 707.808,-101.983"/>
<polygon fill="none" stroke="#404040" points="707.769,-101.699 702.993,-96.296 706.143,-89.8094 710.919,-95.2121 707.769,-101.699"/>
<text text-anchor="middle" x="737" y="-344.5" font-family="Helvetica,sans-Serif" font-size="10.00"> +gain</text>
<text text-anchor="middle" x="737" y="-331.5" font-family="Helvetica,sans-Serif" font-size="10.00">+lhc_a</text>
<text text-anchor="middle" x="737" y="-318.5" font-family="Helvetica,sans-Serif" font-size="10.00">+lhc_t</text>
</g>
<!-- Node7&#45;&gt;Node3 -->
<g id="edge12" class="edge"><title>Node7&#45;&gt;Node3</title>
<path fill="none" stroke="#404040" d="M597.259,-626.41C583.674,-618.778 569.816,-609.276 559,-598 532.032,-569.883 551.437,-541.579 519,-520 475.762,-491.236 333.986,-521.855 286,-502 283.924,-501.141 281.865,-500.203 279.824,-499.196"/>
<polygon fill="none" stroke="#404040" points="279.592,-499.067 272.403,-499.63 269.118,-493.211 276.307,-492.647 279.592,-499.067"/>
<text text-anchor="middle" x="593.5" y="-569.5" font-family="Helvetica,sans-Serif" font-size="10.00"> +fBlMeasBBB</text>
<text text-anchor="middle" x="593.5" y="-556.5" font-family="Helvetica,sans-Serif" font-size="10.00">+fBunchPattern</text>
<text text-anchor="middle" x="593.5" y="-543.5" font-family="Helvetica,sans-Serif" font-size="10.00">+fG</text>
</g>
<!-- Node7&#45;&gt;Node11 -->
<g id="edge34" class="edge"><title>Node7&#45;&gt;Node11</title>
<path fill="none" stroke="#404040" d="M651.188,-617.25C651.655,-589.801 648.815,-549.937 632,-520 626.407,-510.043 619.101,-500.823 610.958,-492.429"/>
<polygon fill="none" stroke="#404040" points="610.842,-492.316 603.746,-491.028 602.206,-483.984 609.301,-485.271 610.842,-492.316"/>
<text text-anchor="middle" x="665" y="-563" font-family="Helvetica,sans-Serif" font-size="10.00"> +fFs</text>
<text text-anchor="middle" x="665" y="-550" font-family="Helvetica,sans-Serif" font-size="10.00">+fDphi</text>
</g>
<!-- Node8 -->
<g id="node15" class="node"><title>Node8</title>
<a xlink:title="STL class.">
<polygon fill="white" stroke="#bfbfbf" points="781.5,-732.5 781.5,-795.5 868.5,-795.5 868.5,-732.5 781.5,-732.5"/>
<text text-anchor="middle" x="825" y="-782.5" font-family="Helvetica,sans-Serif" font-size="10.00">std::vector&lt; T &gt;</text>
<polyline fill="none" stroke="#bfbfbf" points="781.5,-774.5 868.5,-774.5 "/>
<text text-anchor="middle" x="825" y="-761.5" font-family="Helvetica,sans-Serif" font-size="10.00"> </text>
<polyline fill="none" stroke="#bfbfbf" points="781.5,-753.5 868.5,-753.5 "/>
<text text-anchor="middle" x="825" y="-740.5" font-family="Helvetica,sans-Serif" font-size="10.00"> </text>
</a>
</g>
<!-- Node8&#45;&gt;Node7 -->
<g id="edge16" class="edge"><title>Node8&#45;&gt;Node7</title>
<path fill="none" stroke="orange" d="M772.884,-729.947C748.941,-714.303 720.722,-695.864 697.269,-680.54"/>
<polygon fill="orange" stroke="orange" points="771.208,-733.033 781.494,-735.573 775.037,-727.173 771.208,-733.033"/>
<text text-anchor="middle" x="768.5" y="-704.5" font-family="Helvetica,sans-Serif" font-size="10.00"> &lt; ftype &gt;</text>
</g>
<!-- Node9 -->
<g id="node17" class="node"><title>Node9</title>
<polygon fill="white" stroke="#bfbfbf" points="810.5,-846.5 810.5,-909.5 839.5,-909.5 839.5,-846.5 810.5,-846.5"/>
<text text-anchor="middle" x="825" y="-896.5" font-family="Helvetica,sans-Serif" font-size="10.00">T</text>
<polyline fill="none" stroke="#bfbfbf" points="810.5,-888.5 839.5,-888.5 "/>
<text text-anchor="middle" x="825" y="-875.5" font-family="Helvetica,sans-Serif" font-size="10.00"> </text>
<polyline fill="none" stroke="#bfbfbf" points="810.5,-867.5 839.5,-867.5 "/>
<text text-anchor="middle" x="825" y="-854.5" font-family="Helvetica,sans-Serif" font-size="10.00"> </text>
</g>
<!-- Node9&#45;&gt;Node8 -->
<g id="edge18" class="edge"><title>Node9&#45;&gt;Node8</title>
<path fill="none" stroke="#404040" d="M825,-846.245C825,-834.386 825,-820.7 825,-807.938"/>
<polygon fill="none" stroke="#404040" points="825,-807.585 821,-801.585 825,-795.585 829,-801.585 825,-807.585"/>
<text text-anchor="middle" x="849.5" y="-818.5" font-family="Helvetica,sans-Serif" font-size="10.00"> +elements</text>
</g>
<!-- Node10 -->
<g id="node19" class="node"><title>Node10</title>
<polygon fill="white" stroke="#bfbfbf" points="276,-617.5 276,-680.5 332,-680.5 332,-617.5 276,-617.5"/>
<text text-anchor="middle" x="304" y="-667.5" font-family="Helvetica,sans-Serif" font-size="10.00">unsigned</text>
<polyline fill="none" stroke="#bfbfbf" points="276,-659.5 332,-659.5 "/>
<text text-anchor="middle" x="304" y="-646.5" font-family="Helvetica,sans-Serif" font-size="10.00"> </text>
<polyline fill="none" stroke="#bfbfbf" points="276,-638.5 332,-638.5 "/>
<text text-anchor="middle" x="304" y="-625.5" font-family="Helvetica,sans-Serif" font-size="10.00"> </text>
</g>
<!-- Node10&#45;&gt;Node2 -->
<g id="edge24" class="edge"><title>Node10&#45;&gt;Node2</title>
<path fill="none" stroke="#404040" d="M303.798,-617.156C303.975,-565.353 306.451,-459.788 322,-372 325.749,-350.833 331.277,-328.485 337.237,-307.421"/>
<polygon fill="none" stroke="#404040" points="337.245,-307.394 335.072,-300.517 340.584,-295.867 342.756,-302.743 337.245,-307.394"/>
<text text-anchor="middle" x="338.5" y="-434.5" font-family="Helvetica,sans-Serif" font-size="10.00"> +delay</text>
</g>
<!-- Node10&#45;&gt;Node3 -->
<g id="edge20" class="edge"><title>Node10&#45;&gt;Node3</title>
<path fill="none" stroke="#404040" d="M275.762,-628.731C261.599,-618.007 246.509,-605.534 242,-598 233.261,-583.399 225.712,-547.386 220.144,-513.114"/>
<polygon fill="none" stroke="#404040" points="220.12,-512.957 215.238,-507.65 218.259,-501.102 223.141,-506.409 220.12,-512.957"/>
<text text-anchor="middle" x="268" y="-556.5" font-family="Helvetica,sans-Serif" font-size="10.00"> +fNUpdate</text>
</g>
<!-- Node11&#45;&gt;Node2 -->
<g id="edge26" class="edge"><title>Node11&#45;&gt;Node2</title>
<path fill="none" stroke="#404040" d="M488.004,-379.349C472.065,-356.935 453.391,-330.674 435.623,-305.688"/>
<polygon fill="none" stroke="#404040" points="435.558,-305.597 428.821,-303.025 428.603,-295.817 435.34,-298.389 435.558,-305.597"/>
<text text-anchor="middle" x="492" y="-331.5" font-family="Helvetica,sans-Serif" font-size="10.00"> +RFnoise</text>
</g>
<!-- Node12 -->
<g id="node25" class="node"><title>Node12</title>
<polygon fill="white" stroke="#bfbfbf" points="408,-617.5 408,-680.5 486,-680.5 486,-617.5 408,-617.5"/>
<text text-anchor="middle" x="447" y="-667.5" font-family="Helvetica,sans-Serif" font-size="10.00">predistortion_t</text>
<polyline fill="none" stroke="#bfbfbf" points="408,-659.5 486,-659.5 "/>
<text text-anchor="middle" x="447" y="-646.5" font-family="Helvetica,sans-Serif" font-size="10.00"> </text>
<polyline fill="none" stroke="#bfbfbf" points="408,-638.5 486,-638.5 "/>
<text text-anchor="middle" x="447" y="-625.5" font-family="Helvetica,sans-Serif" font-size="10.00"> </text>
</g>
<!-- Node12&#45;&gt;Node11 -->
<g id="edge28" class="edge"><title>Node12&#45;&gt;Node11</title>
<path fill="none" stroke="#404040" d="M440.87,-617.481C437.093,-590.535 435.128,-551.273 448,-520 450.184,-514.694 452.886,-509.54 455.963,-504.571"/>
<polygon fill="none" stroke="#404040" points="455.982,-504.543 456.071,-497.332 462.76,-494.641 462.672,-501.851 455.982,-504.543"/>
<text text-anchor="middle" x="481.5" y="-556.5" font-family="Helvetica,sans-Serif" font-size="10.00"> +fPredistortion</text>
</g>
<!-- Node13 -->
<g id="node28" class="node"><title>Node13</title>
<polygon fill="white" stroke="#bfbfbf" points="717.5,-617.5 717.5,-680.5 746.5,-680.5 746.5,-617.5 717.5,-617.5"/>
<text text-anchor="middle" x="732" y="-667.5" font-family="Helvetica,sans-Serif" font-size="10.00">int</text>
<polyline fill="none" stroke="#bfbfbf" points="717.5,-659.5 746.5,-659.5 "/>
<text text-anchor="middle" x="732" y="-646.5" font-family="Helvetica,sans-Serif" font-size="10.00"> </text>
<polyline fill="none" stroke="#bfbfbf" points="717.5,-638.5 746.5,-638.5 "/>
<text text-anchor="middle" x="732" y="-625.5" font-family="Helvetica,sans-Serif" font-size="10.00"> </text>
</g>
<!-- Node13&#45;&gt;Node11 -->
<g id="edge32" class="edge"><title>Node13&#45;&gt;Node11</title>
<path fill="none" stroke="#404040" d="M726.797,-617.36C720.736,-589.04 708.28,-547.812 684,-520 664.942,-498.169 638.702,-481.115 613.228,-468.297"/>
<polygon fill="none" stroke="#404040" points="613.188,-468.278 606.046,-469.272 602.381,-463.062 609.523,-462.068 613.188,-468.278"/>
<text text-anchor="middle" x="743.5" y="-576" font-family="Helvetica,sans-Serif" font-size="10.00"> +fNTurns</text>
<text text-anchor="middle" x="743.5" y="-563" font-family="Helvetica,sans-Serif" font-size="10.00">+fCorr</text>
<text text-anchor="middle" x="743.5" y="-550" font-family="Helvetica,sans-Serif" font-size="10.00">+fSeed1</text>
<text text-anchor="middle" x="743.5" y="-537" font-family="Helvetica,sans-Serif" font-size="10.00">+fSeed2</text>
</g>
</g>
</svg>
