<?xml version="1.0" encoding="UTF-8" standalone="no"?>
<!DOCTYPE svg PUBLIC "-//W3C//DTD SVG 1.1//EN"
 "http://www.w3.org/Graphics/SVG/1.1/DTD/svg11.dtd">
<!-- Generated by graphviz version 2.26.3 (20100126.1600)
 -->
<!-- Title: python.h Pages: 1 -->
<svg width="596pt" height="160pt"
 viewBox="0.00 0.00 596.00 160.00" xmlns="http://www.w3.org/2000/svg" xmlns:xlink="http://www.w3.org/1999/xlink">
<g id="graph1" class="graph" transform="scale(1 1) rotate(0) translate(4 156)">
<title>python.h</title>
<polygon fill="white" stroke="white" points="-4,5 -4,-156 593,-156 593,5 -4,5"/>
<!-- Node1 -->
<g id="node1" class="node"><title>Node1</title>
<polygon fill="#bfbfbf" stroke="black" points="318,-130.5 318,-151.5 372,-151.5 372,-130.5 318,-130.5"/>
<text text-anchor="middle" x="345" y="-138.5" font-family="Helvetica,sans-Serif" font-size="10.00">python.h</text>
</g>
<!-- Node2 -->
<g id="node3" class="node"><title>Node2</title>
<polygon fill="white" stroke="#bfbfbf" points="0,-65.5 0,-86.5 56,-86.5 56,-65.5 0,-65.5"/>
<text text-anchor="middle" x="28" y="-73.5" font-family="Helvetica,sans-Serif" font-size="10.00">Python.h</text>
</g>
<!-- Node1&#45;&gt;Node2 -->
<g id="edge2" class="edge"><title>Node1&#45;&gt;Node2</title>
<path fill="none" stroke="midnightblue" d="M317.755,-139.029C266.985,-134.789 154.906,-122.754 65,-94 62.1934,-93.1024 59.3306,-92.0267 56.5026,-90.8536"/>
<polygon fill="midnightblue" stroke="midnightblue" points="57.7061,-87.5562 47.1539,-86.6074 54.8113,-93.9296 57.7061,-87.5562"/>
</g>
<!-- Node3 -->
<g id="node5" class="node"><title>Node3</title>
<polygon fill="white" stroke="#bfbfbf" points="74,-59 74,-93 182,-93 182,-59 74,-59"/>
<text text-anchor="start" x="82" y="-80" font-family="Helvetica,sans-Serif" font-size="10.00">numpy/core/include</text>
<text text-anchor="middle" x="128" y="-67" font-family="Helvetica,sans-Serif" font-size="10.00">/numpy/arrayobject.h</text>
</g>
<!-- Node1&#45;&gt;Node3 -->
<g id="edge4" class="edge"><title>Node1&#45;&gt;Node3</title>
<path fill="none" stroke="midnightblue" d="M317.956,-132.899C286.545,-123.49 233.671,-107.653 191.671,-95.072"/>
<polygon fill="midnightblue" stroke="midnightblue" points="192.654,-91.7127 182.07,-92.196 190.645,-98.4183 192.654,-91.7127"/>
</g>
<!-- Node4 -->
<g id="node7" class="node"><title>Node4</title>
<polygon fill="white" stroke="#bfbfbf" points="199.5,-65.5 199.5,-86.5 234.5,-86.5 234.5,-65.5 199.5,-65.5"/>
<text text-anchor="middle" x="217" y="-73.5" font-family="Helvetica,sans-Serif" font-size="10.00">map</text>
</g>
<!-- Node1&#45;&gt;Node4 -->
<g id="edge6" class="edge"><title>Node1&#45;&gt;Node4</title>
<path fill="none" stroke="midnightblue" d="M318.81,-130.421C297.83,-121.596 267.892,-108.208 243,-94 241.9,-93.3723 240.788,-92.7117 239.674,-92.0291"/>
<polygon fill="midnightblue" stroke="midnightblue" points="241.573,-89.0895 231.287,-86.5498 237.745,-94.9496 241.573,-89.0895"/>
</g>
<!-- Node5 -->
<g id="node9" class="node"><title>Node5</title>
<a xlink:href="../../d2/d2c/configuration_8h.html" target="_top" xlink:title="blond/configuration.h">
<polygon fill="white" stroke="black" points="251.5,-65.5 251.5,-86.5 358.5,-86.5 358.5,-65.5 251.5,-65.5"/>
<text text-anchor="middle" x="305" y="-73.5" font-family="Helvetica,sans-Serif" font-size="10.00">blond/configuration.h</text>
</a>
</g>
<!-- Node1&#45;&gt;Node5 -->
<g id="edge8" class="edge"><title>Node1&#45;&gt;Node5</title>
<path fill="none" stroke="midnightblue" d="M338.395,-130.267C332.57,-120.801 323.94,-106.777 316.912,-95.3571"/>
<polygon fill="midnightblue" stroke="midnightblue" points="319.704,-93.2159 311.482,-86.5337 313.742,-96.8847 319.704,-93.2159"/>
</g>
<!-- Node7 -->
<g id="node13" class="node"><title>Node7</title>
<polygon fill="white" stroke="#bfbfbf" points="356,-0.5 356,-21.5 400,-21.5 400,-0.5 356,-0.5"/>
<text text-anchor="middle" x="378" y="-8.5" font-family="Helvetica,sans-Serif" font-size="10.00">vector</text>
</g>
<!-- Node1&#45;&gt;Node7 -->
<g id="edge20" class="edge"><title>Node1&#45;&gt;Node7</title>
<path fill="none" stroke="midnightblue" d="M351.239,-130.17C356.303,-120.877 363.203,-106.97 367,-94 373.006,-73.4844 375.741,-49.149 376.982,-32.1529"/>
<polygon fill="midnightblue" stroke="midnightblue" points="380.505,-31.8917 377.624,-21.696 373.518,-31.4627 380.505,-31.8917"/>
</g>
<!-- Node8 -->
<g id="node15" class="node"><title>Node8</title>
<polygon fill="white" stroke="#bfbfbf" points="413.5,-65.5 413.5,-86.5 458.5,-86.5 458.5,-65.5 413.5,-65.5"/>
<text text-anchor="middle" x="436" y="-73.5" font-family="Helvetica,sans-Serif" font-size="10.00">cstdlib</text>
</g>
<!-- Node1&#45;&gt;Node8 -->
<g id="edge14" class="edge"><title>Node1&#45;&gt;Node8</title>
<path fill="none" stroke="midnightblue" d="M360.027,-130.267C374.338,-120.044 396.094,-104.504 412.662,-92.6699"/>
<polygon fill="midnightblue" stroke="midnightblue" points="415.15,-95.1942 421.253,-86.5337 411.081,-89.4981 415.15,-95.1942"/>
</g>
<!-- Node9 -->
<g id="node17" class="node"><title>Node9</title>
<polygon fill="white" stroke="#bfbfbf" points="476,-65.5 476,-86.5 530,-86.5 530,-65.5 476,-65.5"/>
<text text-anchor="middle" x="503" y="-73.5" font-family="Helvetica,sans-Serif" font-size="10.00">iostream</text>
</g>
<!-- Node1&#45;&gt;Node9 -->
<g id="edge16" class="edge"><title>Node1&#45;&gt;Node9</title>
<path fill="none" stroke="midnightblue" d="M372.44,-131.284C397.368,-122.256 435.022,-108.115 467,-94 469.078,-93.0829 471.208,-92.1086 473.344,-91.1063"/>
<polygon fill="midnightblue" stroke="midnightblue" points="475.126,-94.1323 482.601,-86.6243 472.075,-87.8319 475.126,-94.1323"/>
</g>
<!-- Node10 -->
<g id="node19" class="node"><title>Node10</title>
<polygon fill="white" stroke="#bfbfbf" points="547.5,-65.5 547.5,-86.5 588.5,-86.5 588.5,-65.5 547.5,-65.5"/>
<text text-anchor="middle" x="568" y="-73.5" font-family="Helvetica,sans-Serif" font-size="10.00">string</text>
</g>
<!-- Node1&#45;&gt;Node10 -->
<g id="edge18" class="edge"><title>Node1&#45;&gt;Node10</title>
<path fill="none" stroke="midnightblue" d="M372.209,-137.205C410.537,-131.243 482.102,-117.828 539,-94 540.616,-93.3233 542.245,-92.5629 543.863,-91.7471"/>
<polygon fill="midnightblue" stroke="midnightblue" points="545.86,-94.6388 552.838,-86.6665 542.411,-88.5472 545.86,-94.6388"/>
</g>
<!-- Node6 -->
<g id="node11" class="node"><title>Node6</title>
<polygon fill="white" stroke="#bfbfbf" points="278.5,-0.5 278.5,-21.5 331.5,-21.5 331.5,-0.5 278.5,-0.5"/>
<text text-anchor="middle" x="305" y="-8.5" font-family="Helvetica,sans-Serif" font-size="10.00">complex</text>
</g>
<!-- Node5&#45;&gt;Node6 -->
<g id="edge10" class="edge"><title>Node5&#45;&gt;Node6</title>
<path fill="none" stroke="midnightblue" d="M305,-65.2666C305,-56.1799 305,-42.8919 305,-31.7395"/>
<polygon fill="midnightblue" stroke="midnightblue" points="308.5,-31.5337 305,-21.5337 301.5,-31.5337 308.5,-31.5337"/>
</g>
<!-- Node5&#45;&gt;Node7 -->
<g id="edge12" class="edge"><title>Node5&#45;&gt;Node7</title>
<path fill="none" stroke="midnightblue" d="M317.054,-65.2666C328.323,-55.2334 345.343,-40.078 358.536,-28.3311"/>
<polygon fill="midnightblue" stroke="midnightblue" points="361.029,-30.7977 366.17,-21.5337 356.374,-25.5698 361.029,-30.7977"/>
</g>
</g>
</svg>
