<?xml version="1.0" encoding="UTF-8" standalone="no"?>
<!DOCTYPE svg PUBLIC "-//W3C//DTD SVG 1.1//EN"
 "http://www.w3.org/Graphics/SVG/1.1/DTD/svg11.dtd">
<!-- Generated by graphviz version 2.26.3 (20100126.1600)
 -->
<!-- Title: InducedVoltageTime::sum_wakes Pages: 1 -->
<svg width="262pt" height="94pt"
 viewBox="0.00 0.00 262.00 94.00" xmlns="http://www.w3.org/2000/svg" xmlns:xlink="http://www.w3.org/1999/xlink">
<g id="graph1" class="graph" transform="scale(1 1) rotate(0) translate(4 90)">
<title>InducedVoltageTime::sum_wakes</title>
<polygon fill="white" stroke="white" points="-4,5 -4,-90 259,-90 259,5 -4,5"/>
<!-- Node1 -->
<g id="node1" class="node"><title>Node1</title>
<polygon fill="#bfbfbf" stroke="black" points="0,-26 0,-60 106,-60 106,-26 0,-26"/>
<text text-anchor="start" x="8" y="-47" font-family="Helvetica,sans-Serif" font-size="10.00">InducedVoltageTime</text>
<text text-anchor="middle" x="53" y="-34" font-family="Helvetica,sans-Serif" font-size="10.00">::sum_wakes</text>
</g>
<!-- Node2 -->
<g id="node3" class="node"><title>Node2</title>
<a xlink:href="../../d0/d6b/classInducedVoltageTime.html#a8e5cec663b800aca3b5b880b8eb298ad" target="_top" xlink:title="InducedVoltageTime\l::InducedVoltageTime">
<polygon fill="white" stroke="black" points="142,-52 142,-86 254,-86 254,-52 142,-52"/>
<text text-anchor="start" x="150" y="-73" font-family="Helvetica,sans-Serif" font-size="10.00">InducedVoltageTime</text>
<text text-anchor="middle" x="198" y="-60" font-family="Helvetica,sans-Serif" font-size="10.00">::InducedVoltageTime</text>
</a>
</g>
<!-- Node1&#45;&gt;Node2 -->
<g id="edge2" class="edge"><title>Node1&#45;&gt;Node2</title>
<path fill="none" stroke="midnightblue" d="M116.13,-54.3199C124.71,-55.8584 133.469,-57.4289 141.913,-58.9431"/>
<polygon fill="midnightblue" stroke="midnightblue" points="116.63,-50.8538 106.169,-52.5338 115.395,-57.7439 116.63,-50.8538"/>
</g>
<!-- Node3 -->
<g id="node5" class="node"><title>Node3</title>
<a xlink:href="../../d0/d6b/classInducedVoltageTime.html#a9280ee5b2b2a8630827c74ac429e23d4" target="_top" xlink:title="InducedVoltageTime\l::reprocess">
<polygon fill="white" stroke="black" points="145,-0 145,-34 251,-34 251,-0 145,-0"/>
<text text-anchor="start" x="153" y="-21" font-family="Helvetica,sans-Serif" font-size="10.00">InducedVoltageTime</text>
<text text-anchor="middle" x="198" y="-8" font-family="Helvetica,sans-Serif" font-size="10.00">::reprocess</text>
</a>
</g>
<!-- Node1&#45;&gt;Node3 -->
<g id="edge4" class="edge"><title>Node1&#45;&gt;Node3</title>
<path fill="none" stroke="midnightblue" d="M116.06,-31.6926C125.658,-29.9717 135.479,-28.2106 144.837,-26.5327"/>
<polygon fill="midnightblue" stroke="midnightblue" points="115.395,-28.2561 106.169,-33.4662 116.63,-35.1462 115.395,-28.2561"/>
</g>
</g>
</svg>
