<?xml version="1.0" encoding="UTF-8" standalone="no"?>
<!DOCTYPE svg PUBLIC "-//W3C//DTD SVG 1.1//EN"
 "http://www.w3.org/Graphics/SVG/1.1/DTD/svg11.dtd">
<!-- Generated by graphviz version 2.26.3 (20100126.1600)
 -->
<!-- Title: InducedVoltageTime::track Pages: 1 -->
<!--zoomable 136 -->
<svg id="main" version="1.1" xmlns="http://www.w3.org/2000/svg" xmlns:xlink="http://www.w3.org/1999/xlink" xml:space="preserve" onload="init(evt)">
        <defs>
                <circle id="rim" cx="0" cy="0" r="7"/>
                <circle id="rim2" cx="0" cy="0" r="3.5"/>
                <g id="zoomPlus">
                        <use xlink:href="#rim" fill="#404040">
                                <set attributeName="fill" to="#808080" begin="zoomplus.mouseover" end="zoomplus.mouseout"/>
                        </use>
                        <path d="M-4,0h8M0,-4v8" fill="none" stroke="white" stroke-width="1.5" pointer-events="none"/>
                </g>
                <g id="zoomMin">
                        <use xlink:href="#rim" fill="#404040">
                                <set attributeName="fill" to="#808080" begin="zoomminus.mouseover" end="zoomminus.mouseout"/>
                        </use>
                        <path d="M-4,0h8" fill="none" stroke="white" stroke-width="1.5" pointer-events="none"/>
                </g>
                <g id="dirArrow">
                        <path fill="none" stroke="white" stroke-width="1.5" d="M0,-3.0v7 M-2.5,-0.5L0,-3.0L2.5,-0.5"/>
                </g>
               <g id="resetDef">
                       <use xlink:href="#rim2" fill="#404040">
                               <set attributeName="fill" to="#808080" begin="reset.mouseover" end="reset.mouseout"/>
                       </use>
               </g>
        </defs>

<script type="text/javascript">
var viewWidth = 856;
var viewHeight = 136;
var sectionId = 'dynsection-8';
</script>
<script xlink:href="../../svgpan.js"/>
<svg id="graph" class="graph">
<g id="viewport">
<title>InducedVoltageTime::track</title>
<polygon fill="white" stroke="white" points="-4,5 -4,-132 853,-132 853,5 -4,5"/>
<!-- Node1 -->
<g id="node1" class="node"><title>Node1</title>
<polygon fill="#bfbfbf" stroke="black" points="0,-17 0,-51 106,-51 106,-17 0,-17"/>
<text text-anchor="start" x="8" y="-38" font-family="Helvetica,sans-Serif" font-size="10.00">InducedVoltageTime</text>
<text text-anchor="middle" x="53" y="-25" font-family="Helvetica,sans-Serif" font-size="10.00">::track</text>
</g>
<!-- Node2 -->
<g id="node3" class="node"><title>Node2</title>
<a xlink:href="../../d0/d6b/classInducedVoltageTime.html#ada28e04191e2d2933ba9e3820e61d5c2" target="_top" xlink:title="InducedVoltageTime\l::induced_voltage_generation">
<polygon fill="white" stroke="black" points="142.5,-40 142.5,-74 285.5,-74 285.5,-40 142.5,-40"/>
<text text-anchor="start" x="150.5" y="-61" font-family="Helvetica,sans-Serif" font-size="10.00">InducedVoltageTime</text>
<text text-anchor="middle" x="214" y="-48" font-family="Helvetica,sans-Serif" font-size="10.00">::induced_voltage_generation</text>
</a>
</g>
<!-- Node1&#45;&gt;Node2 -->
<g id="edge2" class="edge"><title>Node1&#45;&gt;Node2</title>
<path fill="none" stroke="midnightblue" d="M106.164,-41.5948C114.549,-42.7927 123.383,-44.0547 132.237,-45.3196"/>
<polygon fill="midnightblue" stroke="midnightblue" points="131.826,-48.7962 142.22,-46.7457 132.816,-41.8666 131.826,-48.7962"/>
</g>
<!-- Node14 -->
<g id="node29" class="node"><title>Node14</title>
<a xlink:href="../../d5/dfa/InducedVoltage_8cpp.html#a3466d4b57e8c5a8ad6b18c33131351fc" target="_top" xlink:title="linear_interp_kick">
<polygon fill="white" stroke="black" points="168,-0.5 168,-21.5 260,-21.5 260,-0.5 168,-0.5"/>
<text text-anchor="middle" x="214" y="-8.5" font-family="Helvetica,sans-Serif" font-size="10.00">linear_interp_kick</text>
</a>
</g>
<!-- Node1&#45;&gt;Node14 -->
<g id="edge30" class="edge"><title>Node1&#45;&gt;Node14</title>
<path fill="none" stroke="midnightblue" d="M106.164,-26.4052C122.699,-24.043 140.981,-21.4313 157.721,-19.0398"/>
<polygon fill="midnightblue" stroke="midnightblue" points="158.512,-22.4625 167.916,-17.5834 157.522,-15.5329 158.512,-22.4625"/>
</g>
<!-- Node3 -->
<g id="node5" class="node"><title>Node3</title>
<a xlink:href="../../df/d6d/namespacemymath.html#a34ffdf8691d17b0ceab32ea0ca68337d" target="_top" xlink:title="mymath::convolution">
<polygon fill="white" stroke="black" points="330.5,-86.5 330.5,-107.5 437.5,-107.5 437.5,-86.5 330.5,-86.5"/>
<text text-anchor="middle" x="384" y="-94.5" font-family="Helvetica,sans-Serif" font-size="10.00">mymath::convolution</text>
</a>
</g>
<!-- Node2&#45;&gt;Node3 -->
<g id="edge4" class="edge"><title>Node2&#45;&gt;Node3</title>
<path fill="none" stroke="midnightblue" d="M285.603,-73.8477C300.206,-77.2838 315.351,-80.8474 329.254,-84.1187"/>
<polygon fill="midnightblue" stroke="midnightblue" points="328.597,-87.5595 339.133,-86.4431 330.2,-80.7456 328.597,-87.5595"/>
</g>
<!-- Node4 -->
<g id="node7" class="node"><title>Node4</title>
<a xlink:href="../../d8/de0/namespacefft.html#acfc0c7a2bf86a2515926f3b0284732c8" target="_top" xlink:title="fft::convolution_with_ffts">
<polygon fill="white" stroke="black" points="322,-46.5 322,-67.5 446,-67.5 446,-46.5 322,-46.5"/>
<text text-anchor="middle" x="384" y="-54.5" font-family="Helvetica,sans-Serif" font-size="10.00">fft::convolution_with_ffts</text>
</a>
</g>
<!-- Node2&#45;&gt;Node4 -->
<g id="edge6" class="edge"><title>Node2&#45;&gt;Node4</title>
<path fill="none" stroke="midnightblue" d="M285.603,-57C294.277,-57 303.142,-57 311.825,-57"/>
<polygon fill="midnightblue" stroke="midnightblue" points="311.911,-60.5001 321.911,-57 311.911,-53.5001 311.911,-60.5001"/>
</g>
<!-- Node13 -->
<g id="node27" class="node"><title>Node13</title>
<a xlink:href="../../df/d6d/namespacemymath.html#a5bcc40b5ebadd9d98f351775df65ec9f" target="_top" xlink:title="mymath::min">
<polygon fill="white" stroke="black" points="347,-6.5 347,-27.5 421,-27.5 421,-6.5 347,-6.5"/>
<text text-anchor="middle" x="384" y="-14.5" font-family="Helvetica,sans-Serif" font-size="10.00">mymath::min</text>
</a>
</g>
<!-- Node2&#45;&gt;Node13 -->
<g id="edge28" class="edge"><title>Node2&#45;&gt;Node13</title>
<path fill="none" stroke="midnightblue" d="M285.603,-40.1523C302.872,-36.089 320.898,-31.8475 336.732,-28.1218"/>
<polygon fill="midnightblue" stroke="midnightblue" points="337.859,-31.4524 346.791,-25.755 336.255,-24.6385 337.859,-31.4524"/>
</g>
<!-- Node5 -->
<g id="node9" class="node"><title>Node5</title>
<a xlink:href="../../d8/de0/namespacefft.html#a789573d204d06c288f6b74c45cd92137" target="_top" xlink:title="fft::rfft">
<polygon fill="white" stroke="black" points="483,-66.5 483,-87.5 527,-87.5 527,-66.5 483,-66.5"/>
<text text-anchor="middle" x="505" y="-74.5" font-family="Helvetica,sans-Serif" font-size="10.00">fft::rfft</text>
</a>
</g>
<!-- Node4&#45;&gt;Node5 -->
<g id="edge8" class="edge"><title>Node4&#45;&gt;Node5</title>
<path fill="none" stroke="midnightblue" d="M446.272,-67.2929C455.474,-68.8139 464.621,-70.3257 472.861,-71.6877"/>
<polygon fill="midnightblue" stroke="midnightblue" points="472.311,-75.1443 482.748,-73.322 473.453,-68.2381 472.311,-75.1443"/>
</g>
<!-- Node12 -->
<g id="node23" class="node"><title>Node12</title>
<a xlink:href="../../d8/de0/namespacefft.html#a7870786fb204fa75feedfb6eeadbd788" target="_top" xlink:title="fft::irfft">
<polygon fill="white" stroke="black" points="482,-26.5 482,-47.5 528,-47.5 528,-26.5 482,-26.5"/>
<text text-anchor="middle" x="505" y="-34.5" font-family="Helvetica,sans-Serif" font-size="10.00">fft::irfft</text>
</a>
</g>
<!-- Node4&#45;&gt;Node12 -->
<g id="edge22" class="edge"><title>Node4&#45;&gt;Node12</title>
<path fill="none" stroke="midnightblue" d="M446.272,-46.7071C455.13,-45.243 463.937,-43.7872 471.933,-42.4656"/>
<polygon fill="midnightblue" stroke="midnightblue" points="472.618,-45.8999 481.914,-40.8159 471.477,-38.9936 472.618,-45.8999"/>
</g>
<!-- Node6 -->
<g id="node11" class="node"><title>Node6</title>
<a xlink:href="../../d8/de0/namespacefft.html#af7197252dd2a265bd53282a343582d02" target="_top" xlink:title="fft::find_plan">
<polygon fill="white" stroke="black" points="564.5,-66.5 564.5,-87.5 635.5,-87.5 635.5,-66.5 564.5,-66.5"/>
<text text-anchor="middle" x="600" y="-74.5" font-family="Helvetica,sans-Serif" font-size="10.00">fft::find_plan</text>
</a>
</g>
<!-- Node5&#45;&gt;Node6 -->
<g id="edge10" class="edge"><title>Node5&#45;&gt;Node6</title>
<path fill="none" stroke="midnightblue" d="M527.034,-77C535.165,-77 544.709,-77 554.166,-77"/>
<polygon fill="midnightblue" stroke="midnightblue" points="554.321,-80.5001 564.321,-77 554.321,-73.5001 554.321,-80.5001"/>
</g>
<!-- Node11 -->
<g id="node21" class="node"><title>Node11</title>
<a xlink:href="../../d8/de0/namespacefft.html#a032995ee545c6cd17120d4478fcb25b5" target="_top" xlink:title="fft::run_fft">
<polygon fill="white" stroke="black" points="570.5,-26.5 570.5,-47.5 629.5,-47.5 629.5,-26.5 570.5,-26.5"/>
<text text-anchor="middle" x="600" y="-34.5" font-family="Helvetica,sans-Serif" font-size="10.00">fft::run_fft</text>
</a>
</g>
<!-- Node5&#45;&gt;Node11 -->
<g id="edge20" class="edge"><title>Node5&#45;&gt;Node11</title>
<path fill="none" stroke="midnightblue" d="M527.034,-67.7227C538.39,-62.941 552.504,-56.9984 565.284,-51.6174"/>
<polygon fill="midnightblue" stroke="midnightblue" points="566.871,-54.7468 574.729,-47.6405 564.154,-48.2954 566.871,-54.7468"/>
</g>
<!-- Node7 -->
<g id="node13" class="node"><title>Node7</title>
<a xlink:href="../../d8/de0/namespacefft.html#abb6f84e834ac2b3b2b1da535a152bcbb" target="_top" xlink:title="fft::init_fft">
<polygon fill="white" stroke="black" points="674.5,-106.5 674.5,-127.5 733.5,-127.5 733.5,-106.5 674.5,-106.5"/>
<text text-anchor="middle" x="704" y="-114.5" font-family="Helvetica,sans-Serif" font-size="10.00">fft::init_fft</text>
</a>
</g>
<!-- Node6&#45;&gt;Node7 -->
<g id="edge12" class="edge"><title>Node6&#45;&gt;Node7</title>
<path fill="none" stroke="midnightblue" d="M627.325,-87.5095C639.41,-92.1578 653.81,-97.6963 666.851,-102.712"/>
<polygon fill="midnightblue" stroke="midnightblue" points="665.907,-106.099 676.497,-106.422 668.42,-99.5652 665.907,-106.099"/>
</g>
<!-- Node9 -->
<g id="node17" class="node"><title>Node9</title>
<a xlink:href="../../d8/de0/namespacefft.html#aabee360fd4b67414d2f0edca8253ecf2" target="_top" xlink:title="fft::init_rfft">
<polygon fill="white" stroke="black" points="673,-66.5 673,-87.5 735,-87.5 735,-66.5 673,-66.5"/>
<text text-anchor="middle" x="704" y="-74.5" font-family="Helvetica,sans-Serif" font-size="10.00">fft::init_rfft</text>
</a>
</g>
<!-- Node6&#45;&gt;Node9 -->
<g id="edge16" class="edge"><title>Node6&#45;&gt;Node9</title>
<path fill="none" stroke="midnightblue" d="M635.5,-77C644.213,-77 653.615,-77 662.579,-77"/>
<polygon fill="midnightblue" stroke="midnightblue" points="662.833,-80.5001 672.833,-77 662.833,-73.5001 662.833,-80.5001"/>
</g>
<!-- Node10 -->
<g id="node19" class="node"><title>Node10</title>
<a xlink:href="../../d8/de0/namespacefft.html#a88d4a20e5d9813ff03802c42ff5b944c" target="_top" xlink:title="fft::init_irfft">
<polygon fill="white" stroke="black" points="672,-26.5 672,-47.5 736,-47.5 736,-26.5 672,-26.5"/>
<text text-anchor="middle" x="704" y="-34.5" font-family="Helvetica,sans-Serif" font-size="10.00">fft::init_irfft</text>
</a>
</g>
<!-- Node6&#45;&gt;Node10 -->
<g id="edge18" class="edge"><title>Node6&#45;&gt;Node10</title>
<path fill="none" stroke="midnightblue" d="M627.325,-66.4905C639.41,-61.8422 653.81,-56.3037 666.851,-51.2882"/>
<polygon fill="midnightblue" stroke="midnightblue" points="668.42,-54.4348 676.497,-47.5782 665.907,-47.9014 668.42,-54.4348"/>
</g>
<!-- Node8 -->
<g id="node15" class="node"><title>Node8</title>
<a xlink:href="../../df/d6d/namespacemymath.html#ad7df5693cd882f31037d7533f5f77bbe" target="_top" xlink:title="mymath::sign">
<polygon fill="white" stroke="black" points="772,-106.5 772,-127.5 848,-127.5 848,-106.5 772,-106.5"/>
<text text-anchor="middle" x="810" y="-114.5" font-family="Helvetica,sans-Serif" font-size="10.00">mymath::sign</text>
</a>
</g>
<!-- Node7&#45;&gt;Node8 -->
<g id="edge14" class="edge"><title>Node7&#45;&gt;Node8</title>
<path fill="none" stroke="midnightblue" d="M733.527,-117C742.254,-117 752.046,-117 761.634,-117"/>
<polygon fill="midnightblue" stroke="midnightblue" points="761.898,-120.5 771.898,-117 761.898,-113.5 761.898,-120.5"/>
</g>
<!-- Node12&#45;&gt;Node6 -->
<g id="edge24" class="edge"><title>Node12&#45;&gt;Node6</title>
<path fill="none" stroke="midnightblue" d="M528.483,-46.8876C539.582,-51.5609 553.055,-57.2338 565.302,-62.3902"/>
<polygon fill="midnightblue" stroke="midnightblue" points="564.217,-65.7308 574.791,-66.3858 566.933,-59.2794 564.217,-65.7308"/>
</g>
<!-- Node12&#45;&gt;Node11 -->
<g id="edge26" class="edge"><title>Node12&#45;&gt;Node11</title>
<path fill="none" stroke="midnightblue" d="M528.483,-37C538.06,-37 549.404,-37 560.203,-37"/>
<polygon fill="midnightblue" stroke="midnightblue" points="560.314,-40.5001 570.314,-37 560.314,-33.5001 560.314,-40.5001"/>
</g>
</g>
</svg>
        <g id="navigator" transform="translate(0 0)" fill="#404254">
                <rect fill="#f2f5e9" fill-opacity="0.5" stroke="#606060" stroke-width=".5" x="0" y="0" width="60" height="60"/>
                <use id="zoomplus" xlink:href="#zoomPlus" x="17" y="9" onmousedown="handleZoom(evt,'in')"/>
                <use id="zoomminus" xlink:href="#zoomMin" x="42" y="9" onmousedown="handleZoom(evt,'out')"/>
                <use id="reset" xlink:href="#resetDef" x="30" y="36" onmousedown="handleReset()"/>
                <g id="arrowUp" xlink:href="#dirArrow" transform="translate(30 24)" onmousedown="handlePan(0,-1)">
                  <use xlink:href="#rim" fill="#404040">
                        <set attributeName="fill" to="#808080" begin="arrowUp.mouseover" end="arrowUp.mouseout"/>
                  </use>
                  <path fill="none" stroke="white" stroke-width="1.5" d="M0,-3.0v7 M-2.5,-0.5L0,-3.0L2.5,-0.5"/>
                </g>
                <g id="arrowRight" xlink:href="#dirArrow" transform="rotate(90) translate(36 -43)" onmousedown="handlePan(1,0)">
                  <use xlink:href="#rim" fill="#404040">
                        <set attributeName="fill" to="#808080" begin="arrowRight.mouseover" end="arrowRight.mouseout"/>
                  </use>
                  <path fill="none" stroke="white" stroke-width="1.5" d="M0,-3.0v7 M-2.5,-0.5L0,-3.0L2.5,-0.5"/>
                </g>
                <g id="arrowDown" xlink:href="#dirArrow" transform="rotate(180) translate(-30 -48)" onmousedown="handlePan(0,1)">
                  <use xlink:href="#rim" fill="#404040">
                        <set attributeName="fill" to="#808080" begin="arrowDown.mouseover" end="arrowDown.mouseout"/>
                  </use>
                  <path fill="none" stroke="white" stroke-width="1.5" d="M0,-3.0v7 M-2.5,-0.5L0,-3.0L2.5,-0.5"/>
                </g>
                <g id="arrowLeft" xlink:href="#dirArrow" transform="rotate(270) translate(-36 17)" onmousedown="handlePan(-1,0)">
                  <use xlink:href="#rim" fill="#404040">
                        <set attributeName="fill" to="#808080" begin="arrowLeft.mouseover" end="arrowLeft.mouseout"/>
                  </use>
                  <path fill="none" stroke="white" stroke-width="1.5" d="M0,-3.0v7 M-2.5,-0.5L0,-3.0L2.5,-0.5"/>
                </g>
        </g>
        <svg viewBox="0 0 15 15" width="100%" height="30px" preserveAspectRatio="xMaxYMin meet">
         <g id="arrow_out" transform="scale(0.3 0.3)">
          <a xlink:href="classInducedVoltageTime_a63d40bebb86206cd65c7d448e65a87a8_cgraph_org.svg" target="_base">
           <rect id="button" ry="5" rx="5" y="6" x="6" height="38" width="38"
                fill="#f2f5e9" fill-opacity="0.5" stroke="#606060" stroke-width="1.0"/>
           <path id="arrow"
             d="M 11.500037,31.436501 C 11.940474,20.09759 22.043105,11.32322 32.158766,21.979434 L 37.068811,17.246167 C 37.068811,17.246167 37.088388,32 37.088388,32 L 22.160133,31.978069 C 22.160133,31.978069 26.997745,27.140456 26.997745,27.140456 C 18.528582,18.264221 13.291696,25.230495 11.500037,31.436501 z"
             style="fill:#404040;"/>
          </a>
         </g>
        </svg>
</svg>
