<?xml version="1.0" encoding="UTF-8" standalone="no"?>
<!DOCTYPE svg PUBLIC "-//W3C//DTD SVG 1.1//EN"
 "http://www.w3.org/Graphics/SVG/1.1/DTD/svg11.dtd">
<!-- Generated by graphviz version 2.26.3 (20100126.1600)
 -->
<!-- Title: blond::optionparser::Parser::StoreOptionAction::perform Pages: 1 -->
<!--zoomable 139 -->
<svg id="main" version="1.1" xmlns="http://www.w3.org/2000/svg" xmlns:xlink="http://www.w3.org/1999/xlink" xml:space="preserve" onload="init(evt)">
        <defs>
                <circle id="rim" cx="0" cy="0" r="7"/>
                <circle id="rim2" cx="0" cy="0" r="3.5"/>
                <g id="zoomPlus">
                        <use xlink:href="#rim" fill="#404040">
                                <set attributeName="fill" to="#808080" begin="zoomplus.mouseover" end="zoomplus.mouseout"/>
                        </use>
                        <path d="M-4,0h8M0,-4v8" fill="none" stroke="white" stroke-width="1.5" pointer-events="none"/>
                </g>
                <g id="zoomMin">
                        <use xlink:href="#rim" fill="#404040">
                                <set attributeName="fill" to="#808080" begin="zoomminus.mouseover" end="zoomminus.mouseout"/>
                        </use>
                        <path d="M-4,0h8" fill="none" stroke="white" stroke-width="1.5" pointer-events="none"/>
                </g>
                <g id="dirArrow">
                        <path fill="none" stroke="white" stroke-width="1.5" d="M0,-3.0v7 M-2.5,-0.5L0,-3.0L2.5,-0.5"/>
                </g>
               <g id="resetDef">
                       <use xlink:href="#rim2" fill="#404040">
                               <set attributeName="fill" to="#808080" begin="reset.mouseover" end="reset.mouseout"/>
                       </use>
               </g>
        </defs>

<script type="text/javascript">
var viewWidth = 826;
var viewHeight = 139;
var sectionId = 'dynsection-2';
</script>
<script xlink:href="../../svgpan.js"/>
<svg id="graph" class="graph">
<g id="viewport">
<title>blond::optionparser::Parser::StoreOptionAction::perform</title>
<polygon fill="white" stroke="white" points="-4,5 -4,-135 823,-135 823,5 -4,5"/>
<!-- Node1 -->
<g id="node1" class="node"><title>Node1</title>
<polygon fill="#bfbfbf" stroke="black" points="0.5,-45.5 0.5,-92.5 137.5,-92.5 137.5,-45.5 0.5,-45.5"/>
<text text-anchor="start" x="8.5" y="-79.5" font-family="Helvetica,sans-Serif" font-size="10.00">blond::optionparser</text>
<text text-anchor="start" x="8.5" y="-66.5" font-family="Helvetica,sans-Serif" font-size="10.00">::Parser::StoreOptionAction</text>
<text text-anchor="middle" x="69" y="-53.5" font-family="Helvetica,sans-Serif" font-size="10.00">::perform</text>
</g>
<!-- Node2 -->
<g id="node3" class="node"><title>Node2</title>
<a xlink:href="../../d2/dd3/classblond_1_1optionparser_1_1Option.html#af27093360c748ca5c062ff1a79954721" target="_top" xlink:title="Makes new_last the new last() by chaining it into the list after last().">
<polygon fill="white" stroke="black" points="174.5,-52 174.5,-86 273.5,-86 273.5,-52 174.5,-52"/>
<text text-anchor="start" x="182.5" y="-73" font-family="Helvetica,sans-Serif" font-size="10.00">blond::optionparser</text>
<text text-anchor="middle" x="224" y="-60" font-family="Helvetica,sans-Serif" font-size="10.00">::Option::append</text>
</a>
</g>
<!-- Node1&#45;&gt;Node2 -->
<g id="edge2" class="edge"><title>Node1&#45;&gt;Node2</title>
<path fill="none" stroke="midnightblue" d="M137.888,-69C146.721,-69 155.705,-69 164.374,-69"/>
<polygon fill="midnightblue" stroke="midnightblue" points="164.378,-72.5001 174.378,-69 164.377,-65.5001 164.378,-72.5001"/>
</g>
<!-- Node3 -->
<g id="node5" class="node"><title>Node3</title>
<a xlink:href="../../d2/dd3/classblond_1_1optionparser_1_1Option.html#af276014331e898eee888c6ed7b6a0de7" target="_top" xlink:title="Returns a pointer to the first element of the linked list.">
<polygon fill="white" stroke="black" points="446.5,-97 446.5,-131 545.5,-131 545.5,-97 446.5,-97"/>
<text text-anchor="start" x="454.5" y="-118" font-family="Helvetica,sans-Serif" font-size="10.00">blond::optionparser</text>
<text text-anchor="middle" x="496" y="-105" font-family="Helvetica,sans-Serif" font-size="10.00">::Option::first</text>
</a>
</g>
<!-- Node2&#45;&gt;Node3 -->
<g id="edge4" class="edge"><title>Node2&#45;&gt;Node3</title>
<path fill="none" stroke="midnightblue" d="M273.612,-85.764C285.427,-89.2633 298.071,-92.6104 310,-95 351.747,-103.362 399.544,-108.143 436.232,-110.818"/>
<polygon fill="midnightblue" stroke="midnightblue" points="436.051,-114.314 446.271,-111.517 436.538,-107.331 436.051,-114.314"/>
</g>
<!-- Node6 -->
<g id="node11" class="node"><title>Node6</title>
<a xlink:href="../../d2/dd3/classblond_1_1optionparser_1_1Option.html#a7dd70b5b36b9e9fc26003451127d9f37" target="_top" xlink:title="Returns a pointer to the last element of the linked list.">
<polygon fill="white" stroke="black" points="310.5,-52 310.5,-86 409.5,-86 409.5,-52 310.5,-52"/>
<text text-anchor="start" x="318.5" y="-73" font-family="Helvetica,sans-Serif" font-size="10.00">blond::optionparser</text>
<text text-anchor="middle" x="360" y="-60" font-family="Helvetica,sans-Serif" font-size="10.00">::Option::last</text>
</a>
</g>
<!-- Node2&#45;&gt;Node6 -->
<g id="edge10" class="edge"><title>Node2&#45;&gt;Node6</title>
<path fill="none" stroke="midnightblue" d="M273.869,-69C282.369,-69 291.277,-69 300.006,-69"/>
<polygon fill="midnightblue" stroke="midnightblue" points="300.137,-72.5001 310.137,-69 300.137,-65.5001 300.137,-72.5001"/>
</g>
<!-- Node9 -->
<g id="node18" class="node"><title>Node9</title>
<a xlink:href="../../d2/dd3/classblond_1_1optionparser_1_1Option.html#abdaf0e31c4231122a4371e345b7263a2" target="_top" xlink:title="blond::optionparser\l::Option::tag">
<polygon fill="white" stroke="black" points="310.5,-0 310.5,-34 409.5,-34 409.5,-0 310.5,-0"/>
<text text-anchor="start" x="318.5" y="-21" font-family="Helvetica,sans-Serif" font-size="10.00">blond::optionparser</text>
<text text-anchor="middle" x="360" y="-8" font-family="Helvetica,sans-Serif" font-size="10.00">::Option::tag</text>
</a>
</g>
<!-- Node2&#45;&gt;Node9 -->
<g id="edge18" class="edge"><title>Node2&#45;&gt;Node9</title>
<path fill="none" stroke="midnightblue" d="M268.531,-51.9733C280.507,-47.3942 293.59,-42.3919 306.02,-37.6394"/>
<polygon fill="midnightblue" stroke="midnightblue" points="307.278,-40.9056 315.368,-34.065 304.778,-34.3673 307.278,-40.9056"/>
</g>
<!-- Node4 -->
<g id="node7" class="node"><title>Node4</title>
<a xlink:href="../../d2/dd3/classblond_1_1optionparser_1_1Option.html#a10773466d75fb48e8924fe08948af666" target="_top" xlink:title="Returns true iff this is the first element of the linked list.">
<polygon fill="white" stroke="black" points="582.5,-97 582.5,-131 681.5,-131 681.5,-97 582.5,-97"/>
<text text-anchor="start" x="590.5" y="-118" font-family="Helvetica,sans-Serif" font-size="10.00">blond::optionparser</text>
<text text-anchor="middle" x="632" y="-105" font-family="Helvetica,sans-Serif" font-size="10.00">::Option::isFirst</text>
</a>
</g>
<!-- Node3&#45;&gt;Node4 -->
<g id="edge6" class="edge"><title>Node3&#45;&gt;Node4</title>
<path fill="none" stroke="midnightblue" d="M545.869,-114C554.369,-114 563.277,-114 572.006,-114"/>
<polygon fill="midnightblue" stroke="midnightblue" points="572.137,-117.5 582.137,-114 572.137,-110.5 572.137,-117.5"/>
</g>
<!-- Node5 -->
<g id="node9" class="node"><title>Node5</title>
<a xlink:href="../../d2/dd3/classblond_1_1optionparser_1_1Option.html#aff58e52cacc309de21afbc70d06f0202" target="_top" xlink:title="blond::optionparser\l::Option::isTagged">
<polygon fill="white" stroke="black" points="718.5,-97 718.5,-131 817.5,-131 817.5,-97 718.5,-97"/>
<text text-anchor="start" x="726.5" y="-118" font-family="Helvetica,sans-Serif" font-size="10.00">blond::optionparser</text>
<text text-anchor="middle" x="768" y="-105" font-family="Helvetica,sans-Serif" font-size="10.00">::Option::isTagged</text>
</a>
</g>
<!-- Node4&#45;&gt;Node5 -->
<g id="edge8" class="edge"><title>Node4&#45;&gt;Node5</title>
<path fill="none" stroke="midnightblue" d="M681.869,-114C690.369,-114 699.277,-114 708.006,-114"/>
<polygon fill="midnightblue" stroke="midnightblue" points="708.137,-117.5 718.137,-114 708.137,-110.5 708.137,-117.5"/>
</g>
<!-- Node6&#45;&gt;Node3 -->
<g id="edge12" class="edge"><title>Node6&#45;&gt;Node3</title>
<path fill="none" stroke="midnightblue" d="M409.869,-85.5008C418.554,-88.3745 427.665,-91.389 436.576,-94.3375"/>
<polygon fill="midnightblue" stroke="midnightblue" points="435.544,-97.6826 446.137,-97.5012 437.743,-91.037 435.544,-97.6826"/>
</g>
<!-- Node7 -->
<g id="node14" class="node"><title>Node7</title>
<a xlink:href="../../d2/dd3/classblond_1_1optionparser_1_1Option.html#a859584a06f87693b117664dd012c814d" target="_top" xlink:title="Returns a pointer to the previous element of the linked list with wrap&#45;around from first() to last()...">
<polygon fill="white" stroke="black" points="446.5,-45 446.5,-79 545.5,-79 545.5,-45 446.5,-45"/>
<text text-anchor="start" x="454.5" y="-66" font-family="Helvetica,sans-Serif" font-size="10.00">blond::optionparser</text>
<text text-anchor="middle" x="496" y="-53" font-family="Helvetica,sans-Serif" font-size="10.00">::Option::prevwrap</text>
</a>
</g>
<!-- Node6&#45;&gt;Node7 -->
<g id="edge14" class="edge"><title>Node6&#45;&gt;Node7</title>
<path fill="none" stroke="midnightblue" d="M409.869,-66.4332C418.369,-65.9957 427.277,-65.5372 436.006,-65.0879"/>
<polygon fill="midnightblue" stroke="midnightblue" points="436.33,-68.576 446.137,-64.5665 435.97,-61.5852 436.33,-68.576"/>
</g>
<!-- Node8 -->
<g id="node16" class="node"><title>Node8</title>
<a xlink:href="../../d2/dd3/classblond_1_1optionparser_1_1Option.html#a0d80fde6565fa8b81c4931e4e2181816" target="_top" xlink:title="blond::optionparser\l::Option::untag">
<polygon fill="white" stroke="black" points="582.5,-45 582.5,-79 681.5,-79 681.5,-45 582.5,-45"/>
<text text-anchor="start" x="590.5" y="-66" font-family="Helvetica,sans-Serif" font-size="10.00">blond::optionparser</text>
<text text-anchor="middle" x="632" y="-53" font-family="Helvetica,sans-Serif" font-size="10.00">::Option::untag</text>
</a>
</g>
<!-- Node7&#45;&gt;Node8 -->
<g id="edge16" class="edge"><title>Node7&#45;&gt;Node8</title>
<path fill="none" stroke="midnightblue" d="M545.869,-62C554.369,-62 563.277,-62 572.006,-62"/>
<polygon fill="midnightblue" stroke="midnightblue" points="572.137,-65.5001 582.137,-62 572.137,-58.5001 572.137,-65.5001"/>
</g>
</g>
</svg>
        <g id="navigator" transform="translate(0 0)" fill="#404254">
                <rect fill="#f2f5e9" fill-opacity="0.5" stroke="#606060" stroke-width=".5" x="0" y="0" width="60" height="60"/>
                <use id="zoomplus" xlink:href="#zoomPlus" x="17" y="9" onmousedown="handleZoom(evt,'in')"/>
                <use id="zoomminus" xlink:href="#zoomMin" x="42" y="9" onmousedown="handleZoom(evt,'out')"/>
                <use id="reset" xlink:href="#resetDef" x="30" y="36" onmousedown="handleReset()"/>
                <g id="arrowUp" xlink:href="#dirArrow" transform="translate(30 24)" onmousedown="handlePan(0,-1)">
                  <use xlink:href="#rim" fill="#404040">
                        <set attributeName="fill" to="#808080" begin="arrowUp.mouseover" end="arrowUp.mouseout"/>
                  </use>
                  <path fill="none" stroke="white" stroke-width="1.5" d="M0,-3.0v7 M-2.5,-0.5L0,-3.0L2.5,-0.5"/>
                </g>
                <g id="arrowRight" xlink:href="#dirArrow" transform="rotate(90) translate(36 -43)" onmousedown="handlePan(1,0)">
                  <use xlink:href="#rim" fill="#404040">
                        <set attributeName="fill" to="#808080" begin="arrowRight.mouseover" end="arrowRight.mouseout"/>
                  </use>
                  <path fill="none" stroke="white" stroke-width="1.5" d="M0,-3.0v7 M-2.5,-0.5L0,-3.0L2.5,-0.5"/>
                </g>
                <g id="arrowDown" xlink:href="#dirArrow" transform="rotate(180) translate(-30 -48)" onmousedown="handlePan(0,1)">
                  <use xlink:href="#rim" fill="#404040">
                        <set attributeName="fill" to="#808080" begin="arrowDown.mouseover" end="arrowDown.mouseout"/>
                  </use>
                  <path fill="none" stroke="white" stroke-width="1.5" d="M0,-3.0v7 M-2.5,-0.5L0,-3.0L2.5,-0.5"/>
                </g>
                <g id="arrowLeft" xlink:href="#dirArrow" transform="rotate(270) translate(-36 17)" onmousedown="handlePan(-1,0)">
                  <use xlink:href="#rim" fill="#404040">
                        <set attributeName="fill" to="#808080" begin="arrowLeft.mouseover" end="arrowLeft.mouseout"/>
                  </use>
                  <path fill="none" stroke="white" stroke-width="1.5" d="M0,-3.0v7 M-2.5,-0.5L0,-3.0L2.5,-0.5"/>
                </g>
        </g>
        <svg viewBox="0 0 15 15" width="100%" height="30px" preserveAspectRatio="xMaxYMin meet">
         <g id="arrow_out" transform="scale(0.3 0.3)">
          <a xlink:href="classblond_1_1optionparser_1_1Parser_1_1StoreOptionAction_aadf15bf0ebd144216aca843e5f2d475e_cgraph_org.svg" target="_base">
           <rect id="button" ry="5" rx="5" y="6" x="6" height="38" width="38"
                fill="#f2f5e9" fill-opacity="0.5" stroke="#606060" stroke-width="1.0"/>
           <path id="arrow"
             d="M 11.500037,31.436501 C 11.940474,20.09759 22.043105,11.32322 32.158766,21.979434 L 37.068811,17.246167 C 37.068811,17.246167 37.088388,32 37.088388,32 L 22.160133,31.978069 C 22.160133,31.978069 26.997745,27.140456 26.997745,27.140456 C 18.528582,18.264221 13.291696,25.230495 11.500037,31.436501 z"
             style="fill:#404040;"/>
          </a>
         </g>
        </svg>
</svg>
