<?xml version="1.0" encoding="UTF-8" standalone="no"?>
<!DOCTYPE svg PUBLIC "-//W3C//DTD SVG 1.1//EN"
 "http://www.w3.org/Graphics/SVG/1.1/DTD/svg11.dtd">
<!-- Generated by graphviz version 2.26.3 (20100126.1600)
 -->
<!-- Title: hamiltonian Pages: 1 -->
<!--zoomable 214 -->
<svg id="main" version="1.1" xmlns="http://www.w3.org/2000/svg" xmlns:xlink="http://www.w3.org/1999/xlink" xml:space="preserve" onload="init(evt)">
        <defs>
                <circle id="rim" cx="0" cy="0" r="7"/>
                <circle id="rim2" cx="0" cy="0" r="3.5"/>
                <g id="zoomPlus">
                        <use xlink:href="#rim" fill="#404040">
                                <set attributeName="fill" to="#808080" begin="zoomplus.mouseover" end="zoomplus.mouseout"/>
                        </use>
                        <path d="M-4,0h8M0,-4v8" fill="none" stroke="white" stroke-width="1.5" pointer-events="none"/>
                </g>
                <g id="zoomMin">
                        <use xlink:href="#rim" fill="#404040">
                                <set attributeName="fill" to="#808080" begin="zoomminus.mouseover" end="zoomminus.mouseout"/>
                        </use>
                        <path d="M-4,0h8" fill="none" stroke="white" stroke-width="1.5" pointer-events="none"/>
                </g>
                <g id="dirArrow">
                        <path fill="none" stroke="white" stroke-width="1.5" d="M0,-3.0v7 M-2.5,-0.5L0,-3.0L2.5,-0.5"/>
                </g>
               <g id="resetDef">
                       <use xlink:href="#rim2" fill="#404040">
                               <set attributeName="fill" to="#808080" begin="reset.mouseover" end="reset.mouseout"/>
                       </use>
               </g>
        </defs>

<script type="text/javascript">
var viewWidth = 816;
var viewHeight = 214;
var sectionId = 'dynsection-1';
</script>
<script xlink:href="../../svgpan.js"/>
<svg id="graph" class="graph">
<g id="viewport">
<title>hamiltonian</title>
<polygon fill="white" stroke="white" points="-4,5 -4,-210 813,-210 813,5 -4,5"/>
<!-- Node1 -->
<g id="node1" class="node"><title>Node1</title>
<polygon fill="#bfbfbf" stroke="black" points="0,-104.5 0,-125.5 66,-125.5 66,-104.5 0,-104.5"/>
<text text-anchor="middle" x="33" y="-112.5" font-family="Helvetica,sans-Serif" font-size="10.00">hamiltonian</text>
</g>
<!-- Node2 -->
<g id="node3" class="node"><title>Node2</title>
<a xlink:href="../../da/d49/classRfParameters.html#a4b2692022b8cb71a3475e964fcc0c474" target="_top" xlink:title="RfParameters::eta_tracking">
<polygon fill="white" stroke="black" points="102.5,-184.5 102.5,-205.5 239.5,-205.5 239.5,-184.5 102.5,-184.5"/>
<text text-anchor="middle" x="171" y="-192.5" font-family="Helvetica,sans-Serif" font-size="10.00">RfParameters::eta_tracking</text>
</a>
</g>
<!-- Node1&#45;&gt;Node2 -->
<g id="edge2" class="edge"><title>Node1&#45;&gt;Node2</title>
<path fill="none" stroke="midnightblue" d="M42.6674,-125.921C55.1181,-139.341 78.0241,-161.935 102,-175 105.989,-177.174 110.239,-179.134 114.596,-180.897"/>
<polygon fill="midnightblue" stroke="midnightblue" points="113.651,-184.278 124.244,-184.448 116.069,-177.709 113.651,-184.278"/>
</g>
<!-- Node3 -->
<g id="node5" class="node"><title>Node3</title>
<a xlink:href="../../df/d6d/namespacemymath.html#a56db34e8382851729defc7a3eb906220" target="_top" xlink:title="mymath::fast_cos">
<polygon fill="white" stroke="black" points="123.5,-144.5 123.5,-165.5 218.5,-165.5 218.5,-144.5 123.5,-144.5"/>
<text text-anchor="middle" x="171" y="-152.5" font-family="Helvetica,sans-Serif" font-size="10.00">mymath::fast_cos</text>
</a>
</g>
<!-- Node1&#45;&gt;Node3 -->
<g id="edge4" class="edge"><title>Node1&#45;&gt;Node3</title>
<path fill="none" stroke="midnightblue" d="M66.0544,-124.581C83.5732,-129.659 105.381,-135.98 124.571,-141.542"/>
<polygon fill="midnightblue" stroke="midnightblue" points="123.752,-144.949 134.331,-144.371 125.701,-138.226 123.752,-144.949"/>
</g>
<!-- Node10 -->
<g id="node19" class="node"><title>Node10</title>
<a xlink:href="../../df/d6d/namespacemymath.html#a38897799c9327d162f914bbb097fb8e3" target="_top" xlink:title="mymath::fast_sin">
<polygon fill="white" stroke="black" points="125,-104.5 125,-125.5 217,-125.5 217,-104.5 125,-104.5"/>
<text text-anchor="middle" x="171" y="-112.5" font-family="Helvetica,sans-Serif" font-size="10.00">mymath::fast_sin</text>
</a>
</g>
<!-- Node1&#45;&gt;Node10 -->
<g id="edge18" class="edge"><title>Node1&#45;&gt;Node10</title>
<path fill="none" stroke="midnightblue" d="M66.0544,-115C80.6478,-115 98.2174,-115 114.771,-115"/>
<polygon fill="midnightblue" stroke="midnightblue" points="114.911,-118.5 124.911,-115 114.911,-111.5 114.911,-118.5"/>
</g>
<!-- Node11 -->
<g id="node22" class="node"><title>Node11</title>
<a xlink:href="../../de/d44/trackers_2utilities_8h.html#a138356080609cce92babac6fb4e12657" target="_top" xlink:title="phase_modulo_above\l_transition">
<polygon fill="white" stroke="black" points="115.5,-52 115.5,-86 226.5,-86 226.5,-52 115.5,-52"/>
<text text-anchor="start" x="123.5" y="-73" font-family="Helvetica,sans-Serif" font-size="10.00">phase_modulo_above</text>
<text text-anchor="middle" x="171" y="-60" font-family="Helvetica,sans-Serif" font-size="10.00">_transition</text>
</a>
</g>
<!-- Node1&#45;&gt;Node11 -->
<g id="edge22" class="edge"><title>Node1&#45;&gt;Node11</title>
<path fill="none" stroke="midnightblue" d="M64.66,-104.447C78.1691,-99.9436 94.4108,-94.5297 110.088,-89.3041"/>
<polygon fill="midnightblue" stroke="midnightblue" points="111.366,-92.5673 119.746,-86.0845 109.153,-85.9265 111.366,-92.5673"/>
</g>
<!-- Node12 -->
<g id="node24" class="node"><title>Node12</title>
<a xlink:href="../../de/d44/trackers_2utilities_8h.html#a9e21d0f7015cfb95d271ecb0d0531f13" target="_top" xlink:title="phase_modulo_below\l_transition">
<polygon fill="white" stroke="black" points="116,-0 116,-34 226,-34 226,-0 116,-0"/>
<text text-anchor="start" x="124" y="-21" font-family="Helvetica,sans-Serif" font-size="10.00">phase_modulo_below</text>
<text text-anchor="middle" x="171" y="-8" font-family="Helvetica,sans-Serif" font-size="10.00">_transition</text>
</a>
</g>
<!-- Node1&#45;&gt;Node12 -->
<g id="edge24" class="edge"><title>Node1&#45;&gt;Node12</title>
<path fill="none" stroke="midnightblue" d="M40.7567,-104.271C52.4456,-88.7905 75.9927,-60.1701 102,-43 104.275,-41.4979 106.649,-40.0658 109.09,-38.7024"/>
<polygon fill="midnightblue" stroke="midnightblue" points="110.852,-41.7325 118.163,-34.0643 107.666,-35.4997 110.852,-41.7325"/>
</g>
<!-- Node4 -->
<g id="node7" class="node"><title>Node4</title>
<a xlink:href="../../d5/d7b/namespacevdt.html#a0013dcb44ade5e87e083c6a0daddcfd9" target="_top" xlink:title="Double precision sine: just call sincos.">
<polygon fill="white" stroke="black" points="276.5,-124.5 276.5,-145.5 347.5,-145.5 347.5,-124.5 276.5,-124.5"/>
<text text-anchor="middle" x="312" y="-132.5" font-family="Helvetica,sans-Serif" font-size="10.00">vdt::fast_sin</text>
</a>
</g>
<!-- Node3&#45;&gt;Node4 -->
<g id="edge6" class="edge"><title>Node3&#45;&gt;Node4</title>
<path fill="none" stroke="midnightblue" d="M218.736,-148.229C234.056,-146.056 250.982,-143.655 266.162,-141.502"/>
<polygon fill="midnightblue" stroke="midnightblue" points="266.942,-144.926 276.351,-140.057 265.959,-137.996 266.942,-144.926"/>
</g>
<!-- Node5 -->
<g id="node9" class="node"><title>Node5</title>
<a xlink:href="../../d5/d7b/namespacevdt.html#a1993fb5f0f92028ffbf6e853790a0161" target="_top" xlink:title="Double precision sincos.">
<polygon fill="white" stroke="black" points="384,-124.5 384,-145.5 470,-145.5 470,-124.5 384,-124.5"/>
<text text-anchor="middle" x="427" y="-132.5" font-family="Helvetica,sans-Serif" font-size="10.00">vdt::fast_sincos</text>
</a>
</g>
<!-- Node4&#45;&gt;Node5 -->
<g id="edge8" class="edge"><title>Node4&#45;&gt;Node5</title>
<path fill="none" stroke="midnightblue" d="M347.756,-135C356.002,-135 364.948,-135 373.759,-135"/>
<polygon fill="midnightblue" stroke="midnightblue" points="373.992,-138.5 383.992,-135 373.992,-131.5 373.992,-138.5"/>
</g>
<!-- Node6 -->
<g id="node11" class="node"><title>Node6</title>
<a xlink:href="../../d1/d47/namespacevdt_1_1details.html#a50fa4cb8145d71e1867a3d899452fbba" target="_top" xlink:title="Reduce to 0 to 45.">
<polygon fill="white" stroke="black" points="506.5,-147.5 506.5,-168.5 649.5,-168.5 649.5,-147.5 506.5,-147.5"/>
<text text-anchor="middle" x="578" y="-155.5" font-family="Helvetica,sans-Serif" font-size="10.00">vdt::details::reduce2quadrant</text>
</a>
</g>
<!-- Node5&#45;&gt;Node6 -->
<g id="edge10" class="edge"><title>Node5&#45;&gt;Node6</title>
<path fill="none" stroke="midnightblue" d="M470.271,-141.591C479.196,-142.95 488.862,-144.423 498.615,-145.908"/>
<polygon fill="midnightblue" stroke="midnightblue" points="498.369,-149.411 508.782,-147.457 499.423,-142.491 498.369,-149.411"/>
</g>
<!-- Node7 -->
<g id="node13" class="node"><title>Node7</title>
<a xlink:href="../../d1/d47/namespacevdt_1_1details.html#aefa743c10ceb855329b7005d9f353a5d" target="_top" xlink:title="Sincos only for &#45;45deg &lt; x &lt; 45deg.">
<polygon fill="white" stroke="black" points="533,-95 533,-129 623,-129 623,-95 533,-95"/>
<text text-anchor="start" x="541" y="-116" font-family="Helvetica,sans-Serif" font-size="10.00">vdt::details::fast</text>
<text text-anchor="middle" x="578" y="-103" font-family="Helvetica,sans-Serif" font-size="10.00">_sincos_m45_45</text>
</a>
</g>
<!-- Node5&#45;&gt;Node7 -->
<g id="edge12" class="edge"><title>Node5&#45;&gt;Node7</title>
<path fill="none" stroke="midnightblue" d="M470.271,-128.409C486.662,-125.912 505.549,-123.036 522.885,-120.395"/>
<polygon fill="midnightblue" stroke="midnightblue" points="523.524,-123.838 532.883,-118.872 522.47,-116.918 523.524,-123.838"/>
</g>
<!-- Node8 -->
<g id="node15" class="node"><title>Node8</title>
<a xlink:href="../../d1/d47/namespacevdt_1_1details.html#a72ab4125be9fdc73004f1fcec303dea6" target="_top" xlink:title="vdt::details::get_sin_px">
<polygon fill="white" stroke="black" points="688,-121.5 688,-142.5 806,-142.5 806,-121.5 688,-121.5"/>
<text text-anchor="middle" x="747" y="-129.5" font-family="Helvetica,sans-Serif" font-size="10.00">vdt::details::get_sin_px</text>
</a>
</g>
<!-- Node7&#45;&gt;Node8 -->
<g id="edge14" class="edge"><title>Node7&#45;&gt;Node8</title>
<path fill="none" stroke="midnightblue" d="M623.289,-117.36C640.036,-119.341 659.422,-121.636 677.809,-123.812"/>
<polygon fill="midnightblue" stroke="midnightblue" points="677.556,-127.306 687.898,-125.006 678.378,-120.355 677.556,-127.306"/>
</g>
<!-- Node9 -->
<g id="node17" class="node"><title>Node9</title>
<a xlink:href="../../d1/d47/namespacevdt_1_1details.html#a2d78ddff70416636dcab4eabcab25c8f" target="_top" xlink:title="vdt::details::get_cos_px">
<polygon fill="white" stroke="black" points="686.5,-81.5 686.5,-102.5 807.5,-102.5 807.5,-81.5 686.5,-81.5"/>
<text text-anchor="middle" x="747" y="-89.5" font-family="Helvetica,sans-Serif" font-size="10.00">vdt::details::get_cos_px</text>
</a>
</g>
<!-- Node7&#45;&gt;Node9 -->
<g id="edge16" class="edge"><title>Node7&#45;&gt;Node9</title>
<path fill="none" stroke="midnightblue" d="M623.289,-106.64C639.548,-104.716 658.295,-102.498 676.199,-100.379"/>
<polygon fill="midnightblue" stroke="midnightblue" points="676.807,-103.831 686.327,-99.1803 675.984,-96.8799 676.807,-103.831"/>
</g>
<!-- Node10&#45;&gt;Node4 -->
<g id="edge20" class="edge"><title>Node10&#45;&gt;Node4</title>
<path fill="none" stroke="midnightblue" d="M217.169,-121.549C232.981,-123.792 250.654,-126.298 266.419,-128.535"/>
<polygon fill="midnightblue" stroke="midnightblue" points="266.073,-132.02 276.465,-129.96 267.056,-125.09 266.073,-132.02"/>
</g>
</g>
</svg>
        <g id="navigator" transform="translate(0 0)" fill="#404254">
                <rect fill="#f2f5e9" fill-opacity="0.5" stroke="#606060" stroke-width=".5" x="0" y="0" width="60" height="60"/>
                <use id="zoomplus" xlink:href="#zoomPlus" x="17" y="9" onmousedown="handleZoom(evt,'in')"/>
                <use id="zoomminus" xlink:href="#zoomMin" x="42" y="9" onmousedown="handleZoom(evt,'out')"/>
                <use id="reset" xlink:href="#resetDef" x="30" y="36" onmousedown="handleReset()"/>
                <g id="arrowUp" xlink:href="#dirArrow" transform="translate(30 24)" onmousedown="handlePan(0,-1)">
                  <use xlink:href="#rim" fill="#404040">
                        <set attributeName="fill" to="#808080" begin="arrowUp.mouseover" end="arrowUp.mouseout"/>
                  </use>
                  <path fill="none" stroke="white" stroke-width="1.5" d="M0,-3.0v7 M-2.5,-0.5L0,-3.0L2.5,-0.5"/>
                </g>
                <g id="arrowRight" xlink:href="#dirArrow" transform="rotate(90) translate(36 -43)" onmousedown="handlePan(1,0)">
                  <use xlink:href="#rim" fill="#404040">
                        <set attributeName="fill" to="#808080" begin="arrowRight.mouseover" end="arrowRight.mouseout"/>
                  </use>
                  <path fill="none" stroke="white" stroke-width="1.5" d="M0,-3.0v7 M-2.5,-0.5L0,-3.0L2.5,-0.5"/>
                </g>
                <g id="arrowDown" xlink:href="#dirArrow" transform="rotate(180) translate(-30 -48)" onmousedown="handlePan(0,1)">
                  <use xlink:href="#rim" fill="#404040">
                        <set attributeName="fill" to="#808080" begin="arrowDown.mouseover" end="arrowDown.mouseout"/>
                  </use>
                  <path fill="none" stroke="white" stroke-width="1.5" d="M0,-3.0v7 M-2.5,-0.5L0,-3.0L2.5,-0.5"/>
                </g>
                <g id="arrowLeft" xlink:href="#dirArrow" transform="rotate(270) translate(-36 17)" onmousedown="handlePan(-1,0)">
                  <use xlink:href="#rim" fill="#404040">
                        <set attributeName="fill" to="#808080" begin="arrowLeft.mouseover" end="arrowLeft.mouseout"/>
                  </use>
                  <path fill="none" stroke="white" stroke-width="1.5" d="M0,-3.0v7 M-2.5,-0.5L0,-3.0L2.5,-0.5"/>
                </g>
        </g>
        <svg viewBox="0 0 15 15" width="100%" height="30px" preserveAspectRatio="xMaxYMin meet">
         <g id="arrow_out" transform="scale(0.3 0.3)">
          <a xlink:href="utilities_8cpp_a22b3cea36e661181f590b17471e42f38_cgraph_org.svg" target="_base">
           <rect id="button" ry="5" rx="5" y="6" x="6" height="38" width="38"
                fill="#f2f5e9" fill-opacity="0.5" stroke="#606060" stroke-width="1.0"/>
           <path id="arrow"
             d="M 11.500037,31.436501 C 11.940474,20.09759 22.043105,11.32322 32.158766,21.979434 L 37.068811,17.246167 C 37.068811,17.246167 37.088388,32 37.088388,32 L 22.160133,31.978069 C 22.160133,31.978069 26.997745,27.140456 26.997745,27.140456 C 18.528582,18.264221 13.291696,25.230495 11.500037,31.436501 z"
             style="fill:#404040;"/>
          </a>
         </g>
        </svg>
</svg>
