<?xml version="1.0" encoding="UTF-8" standalone="no"?>
<!DOCTYPE svg PUBLIC "-//W3C//DTD SVG 1.1//EN"
 "http://www.w3.org/Graphics/SVG/1.1/DTD/svg11.dtd">
<!-- Generated by graphviz version 2.26.3 (20100126.1600)
 -->
<!-- Title: InducedVoltage.cpp Pages: 1 -->
<!--zoomable 580 -->
<svg id="main" version="1.1" xmlns="http://www.w3.org/2000/svg" xmlns:xlink="http://www.w3.org/1999/xlink" xml:space="preserve" onload="init(evt)">
        <defs>
                <circle id="rim" cx="0" cy="0" r="7"/>
                <circle id="rim2" cx="0" cy="0" r="3.5"/>
                <g id="zoomPlus">
                        <use xlink:href="#rim" fill="#404040">
                                <set attributeName="fill" to="#808080" begin="zoomplus.mouseover" end="zoomplus.mouseout"/>
                        </use>
                        <path d="M-4,0h8M0,-4v8" fill="none" stroke="white" stroke-width="1.5" pointer-events="none"/>
                </g>
                <g id="zoomMin">
                        <use xlink:href="#rim" fill="#404040">
                                <set attributeName="fill" to="#808080" begin="zoomminus.mouseover" end="zoomminus.mouseout"/>
                        </use>
                        <path d="M-4,0h8" fill="none" stroke="white" stroke-width="1.5" pointer-events="none"/>
                </g>
                <g id="dirArrow">
                        <path fill="none" stroke="white" stroke-width="1.5" d="M0,-3.0v7 M-2.5,-0.5L0,-3.0L2.5,-0.5"/>
                </g>
               <g id="resetDef">
                       <use xlink:href="#rim2" fill="#404040">
                               <set attributeName="fill" to="#808080" begin="reset.mouseover" end="reset.mouseout"/>
                       </use>
               </g>
        </defs>

<script type="text/javascript">
var viewWidth = 1537;
var viewHeight = 580;
var sectionId = 'dynsection-0';
</script>
<script xlink:href="../../svgpan.js"/>
<svg id="graph" class="graph">
<g id="viewport">
<title>InducedVoltage.cpp</title>
<polygon fill="white" stroke="white" points="-4,5 -4,-576 1533.77,-576 1533.77,5 -4,5"/>
<!-- Node1 -->
<g id="node1" class="node"><title>Node1</title>
<polygon fill="#bfbfbf" stroke="black" points="585.5,-550.5 585.5,-571.5 688.5,-571.5 688.5,-550.5 585.5,-550.5"/>
<text text-anchor="middle" x="637" y="-558.5" font-family="Helvetica,sans-Serif" font-size="10.00">InducedVoltage.cpp</text>
</g>
<!-- Node2 -->
<g id="node3" class="node"><title>Node2</title>
<a xlink:href="../../d2/d6f/constants_8h.html" target="_top" xlink:title="blond/constants.h">
<polygon fill="white" stroke="black" points="66,-304.5 66,-325.5 160,-325.5 160,-304.5 66,-304.5"/>
<text text-anchor="middle" x="113" y="-312.5" font-family="Helvetica,sans-Serif" font-size="10.00">blond/constants.h</text>
</a>
</g>
<!-- Node1&#45;&gt;Node2 -->
<g id="edge2" class="edge"><title>Node1&#45;&gt;Node2</title>
<path fill="none" stroke="midnightblue" d="M585.399,-552.769C540.563,-544.947 474.177,-531.744 418,-514 291.899,-474.17 235.476,-493.499 144,-398 127.533,-380.809 119.647,-354.071 115.984,-335.61"/>
<polygon fill="midnightblue" stroke="midnightblue" points="119.404,-334.844 114.247,-325.589 112.507,-336.04 119.404,-334.844"/>
</g>
<!-- Node6 -->
<g id="node11" class="node"><title>Node6</title>
<a xlink:href="../../d5/d87/globals_8h.html" target="_top" xlink:title="blond/globals.h">
<polygon fill="white" stroke="black" points="507,-492.5 507,-513.5 589,-513.5 589,-492.5 507,-492.5"/>
<text text-anchor="middle" x="548" y="-500.5" font-family="Helvetica,sans-Serif" font-size="10.00">blond/globals.h</text>
</a>
</g>
<!-- Node1&#45;&gt;Node6 -->
<g id="edge10" class="edge"><title>Node1&#45;&gt;Node6</title>
<path fill="none" stroke="midnightblue" d="M620.676,-550.362C607.252,-541.614 588.017,-529.079 572.707,-519.101"/>
<polygon fill="midnightblue" stroke="midnightblue" points="574.509,-516.098 564.22,-513.571 570.688,-521.963 574.509,-516.098"/>
</g>
<!-- Node8 -->
<g id="node16" class="node"><title>Node8</title>
<a xlink:href="../../de/df0/utilities_8h.html" target="_top" xlink:title="blond/utilities.h">
<polygon fill="white" stroke="black" points="596,-174.5 596,-195.5 678,-195.5 678,-174.5 596,-174.5"/>
<text text-anchor="middle" x="637" y="-182.5" font-family="Helvetica,sans-Serif" font-size="10.00">blond/utilities.h</text>
</a>
</g>
<!-- Node1&#45;&gt;Node8 -->
<g id="edge148" class="edge"><title>Node1&#45;&gt;Node8</title>
<path fill="none" stroke="midnightblue" d="M637,-550.444C637,-530.062 637,-483.868 637,-445 637,-445 637,-445 637,-315 637,-276.466 637,-231.508 637,-205.834"/>
<polygon fill="midnightblue" stroke="midnightblue" points="640.5,-205.786 637,-195.786 633.5,-205.786 640.5,-205.786"/>
</g>
<!-- Node23 -->
<g id="node55" class="node"><title>Node23</title>
<a xlink:href="../../d2/de2/math__functions_8h.html" target="_top" xlink:title="blond/math_functions.h">
<polygon fill="white" stroke="black" points="670,-239.5 670,-260.5 788,-260.5 788,-239.5 670,-239.5"/>
<text text-anchor="middle" x="729" y="-247.5" font-family="Helvetica,sans-Serif" font-size="10.00">blond/math_functions.h</text>
</a>
</g>
<!-- Node1&#45;&gt;Node23 -->
<g id="edge128" class="edge"><title>Node1&#45;&gt;Node23</title>
<path fill="none" stroke="midnightblue" d="M648.026,-550.288C666.571,-531.065 702,-488.631 702,-445 702,-445 702,-445 702,-380 702,-340.467 714.117,-295.559 722.117,-270.219"/>
<polygon fill="midnightblue" stroke="midnightblue" points="725.471,-271.223 725.246,-260.63 718.816,-269.051 725.471,-271.223"/>
</g>
<!-- Node36 -->
<g id="node92" class="node"><title>Node36</title>
<a xlink:href="../../d9/dee/InducedVoltage_8h.html" target="_top" xlink:title="blond/impedances/Induced\lVoltage.h">
<polygon fill="white" stroke="black" points="152.5,-363 152.5,-397 285.5,-397 285.5,-363 152.5,-363"/>
<text text-anchor="start" x="160.5" y="-384" font-family="Helvetica,sans-Serif" font-size="10.00">blond/impedances/Induced</text>
<text text-anchor="middle" x="219" y="-371" font-family="Helvetica,sans-Serif" font-size="10.00">Voltage.h</text>
</a>
</g>
<!-- Node1&#45;&gt;Node36 -->
<g id="edge112" class="edge"><title>Node1&#45;&gt;Node36</title>
<path fill="none" stroke="midnightblue" d="M596.769,-550.425C537.813,-534.167 425.269,-500.221 336,-456 305.399,-440.841 273.017,-419.328 250.097,-403.057"/>
<polygon fill="midnightblue" stroke="midnightblue" points="251.965,-400.089 241.8,-397.102 247.883,-405.776 251.965,-400.089"/>
</g>
<!-- Node38 -->
<g id="node103" class="node"><title>Node38</title>
<a xlink:href="../../d7/d76/fft_8h.html" target="_top" xlink:title="blond/fft.h">
<polygon fill="white" stroke="black" points="997,-239.5 997,-260.5 1057,-260.5 1057,-239.5 997,-239.5"/>
<text text-anchor="middle" x="1027" y="-247.5" font-family="Helvetica,sans-Serif" font-size="10.00">blond/fft.h</text>
</a>
</g>
<!-- Node1&#45;&gt;Node38 -->
<g id="edge130" class="edge"><title>Node1&#45;&gt;Node38</title>
<path fill="none" stroke="midnightblue" d="M688.58,-556.282C753.606,-547.175 857,-520.778 857,-445 857,-445 857,-445 857,-380 857,-314.69 937.152,-277.777 987.384,-261.056"/>
<polygon fill="midnightblue" stroke="midnightblue" points="988.542,-264.36 996.999,-257.979 986.408,-257.694 988.542,-264.36"/>
</g>
<!-- Node41 -->
<g id="node116" class="node"><title>Node41</title>
<a xlink:href="../../da/d30/vector__math_8h.html" target="_top" xlink:title="blond/vector_math.h">
<polygon fill="white" stroke="black" points="1222.5,-239.5 1222.5,-260.5 1327.5,-260.5 1327.5,-239.5 1222.5,-239.5"/>
<text text-anchor="middle" x="1275" y="-247.5" font-family="Helvetica,sans-Serif" font-size="10.00">blond/vector_math.h</text>
</a>
</g>
<!-- Node1&#45;&gt;Node41 -->
<g id="edge150" class="edge"><title>Node1&#45;&gt;Node41</title>
<path fill="none" stroke="midnightblue" d="M688.761,-554.905C820.289,-538.72 1157,-492.636 1157,-445 1157,-445 1157,-445 1157,-380 1157,-327.397 1210.63,-286.638 1245.58,-265.659"/>
<polygon fill="midnightblue" stroke="midnightblue" points="1247.55,-268.559 1254.45,-260.515 1244.04,-262.504 1247.55,-268.559"/>
</g>
<!-- Node3 -->
<g id="node5" class="node"><title>Node3</title>
<a xlink:href="../../d2/d2c/configuration_8h.html" target="_top" xlink:title="blond/configuration.h">
<polygon fill="white" stroke="black" points="114.5,-116.5 114.5,-137.5 221.5,-137.5 221.5,-116.5 114.5,-116.5"/>
<text text-anchor="middle" x="168" y="-124.5" font-family="Helvetica,sans-Serif" font-size="10.00">blond/configuration.h</text>
</a>
</g>
<!-- Node2&#45;&gt;Node3 -->
<g id="edge4" class="edge"><title>Node2&#45;&gt;Node3</title>
<path fill="none" stroke="midnightblue" d="M108.28,-304.331C98.1532,-279.725 77.0509,-217.759 100,-174 107.08,-160.5 119.991,-150.112 132.676,-142.577"/>
<polygon fill="midnightblue" stroke="midnightblue" points="134.694,-145.462 141.786,-137.591 131.333,-139.322 134.694,-145.462"/>
</g>
<!-- Node4 -->
<g id="node7" class="node"><title>Node4</title>
<polygon fill="white" stroke="#bfbfbf" points="141.5,-58.5 141.5,-79.5 194.5,-79.5 194.5,-58.5 141.5,-58.5"/>
<text text-anchor="middle" x="168" y="-66.5" font-family="Helvetica,sans-Serif" font-size="10.00">complex</text>
</g>
<!-- Node3&#45;&gt;Node4 -->
<g id="edge6" class="edge"><title>Node3&#45;&gt;Node4</title>
<path fill="none" stroke="midnightblue" d="M168,-116.362C168,-108.922 168,-98.7427 168,-89.7276"/>
<polygon fill="midnightblue" stroke="midnightblue" points="171.5,-89.5706 168,-79.5707 164.5,-89.5707 171.5,-89.5706"/>
</g>
<!-- Node5 -->
<g id="node9" class="node"><title>Node5</title>
<polygon fill="white" stroke="#bfbfbf" points="300,-58.5 300,-79.5 344,-79.5 344,-58.5 300,-58.5"/>
<text text-anchor="middle" x="322" y="-66.5" font-family="Helvetica,sans-Serif" font-size="10.00">vector</text>
</g>
<!-- Node3&#45;&gt;Node5 -->
<g id="edge8" class="edge"><title>Node3&#45;&gt;Node5</title>
<path fill="none" stroke="midnightblue" d="M195.888,-116.497C222.444,-106.495 262.375,-91.4562 290.165,-80.9896"/>
<polygon fill="midnightblue" stroke="midnightblue" points="291.683,-84.1582 299.807,-77.3582 289.216,-77.6074 291.683,-84.1582"/>
</g>
<!-- Node7 -->
<g id="node13" class="node"><title>Node7</title>
<a xlink:href="../../d5/d34/GeneralParameters_8h.html" target="_top" xlink:title="blond/input_parameters\l/GeneralParameters.h">
<polygon fill="white" stroke="black" points="351,-233 351,-267 469,-267 469,-233 351,-233"/>
<text text-anchor="start" x="359" y="-254" font-family="Helvetica,sans-Serif" font-size="10.00">blond/input_parameters</text>
<text text-anchor="middle" x="410" y="-241" font-family="Helvetica,sans-Serif" font-size="10.00">/GeneralParameters.h</text>
</a>
</g>
<!-- Node6&#45;&gt;Node7 -->
<g id="edge12" class="edge"><title>Node6&#45;&gt;Node7</title>
<path fill="none" stroke="midnightblue" d="M548.296,-492.174C548.54,-482.648 548.868,-468.405 549,-456 549.751,-385.423 548.059,-358.327 503,-304 492.143,-290.909 477.236,-280.297 462.538,-272.058"/>
<polygon fill="midnightblue" stroke="midnightblue" points="463.924,-268.831 453.451,-267.233 460.642,-275.014 463.924,-268.831"/>
</g>
<!-- Node21 -->
<g id="node45" class="node"><title>Node21</title>
<a xlink:href="../../d6/db7/RfParameters_8h.html" target="_top" xlink:title="blond/input_parameters\l/RfParameters.h">
<polygon fill="white" stroke="black" points="355,-363 355,-397 473,-397 473,-363 355,-363"/>
<text text-anchor="start" x="363" y="-384" font-family="Helvetica,sans-Serif" font-size="10.00">blond/input_parameters</text>
<text text-anchor="middle" x="414" y="-371" font-family="Helvetica,sans-Serif" font-size="10.00">/RfParameters.h</text>
</a>
</g>
<!-- Node6&#45;&gt;Node21 -->
<g id="edge48" class="edge"><title>Node6&#45;&gt;Node21</title>
<path fill="none" stroke="midnightblue" d="M532.329,-492.3C508.096,-472.853 462.278,-431.257 435.184,-404.512"/>
<polygon fill="midnightblue" stroke="midnightblue" points="437.615,-401.993 428.072,-397.393 432.663,-406.941 437.615,-401.993"/>
</g>
<!-- Node22 -->
<g id="node47" class="node"><title>Node22</title>
<a xlink:href="../../d7/d74/Beams_8h.html" target="_top" xlink:title="blond/beams/Beams.h">
<polygon fill="white" stroke="black" points="380,-304.5 380,-325.5 494,-325.5 494,-304.5 380,-304.5"/>
<text text-anchor="middle" x="437" y="-312.5" font-family="Helvetica,sans-Serif" font-size="10.00">blond/beams/Beams.h</text>
</a>
</g>
<!-- Node6&#45;&gt;Node22 -->
<g id="edge100" class="edge"><title>Node6&#45;&gt;Node22</title>
<path fill="none" stroke="midnightblue" d="M539.778,-492.477C526.882,-468.179 503.708,-406.815 473,-362 465.912,-351.656 456.511,-341.446 448.868,-333.199"/>
<polygon fill="midnightblue" stroke="midnightblue" points="451.302,-330.675 441.963,-325.673 446.145,-335.407 451.302,-330.675"/>
</g>
<!-- Node34 -->
<g id="node85" class="node"><title>Node34</title>
<a xlink:href="../../dc/df2/Slices_8h.html" target="_top" xlink:title="blond/beams/Slices.h">
<polygon fill="white" stroke="black" points="345,-434.5 345,-455.5 455,-455.5 455,-434.5 345,-434.5"/>
<text text-anchor="middle" x="400" y="-442.5" font-family="Helvetica,sans-Serif" font-size="10.00">blond/beams/Slices.h</text>
</a>
</g>
<!-- Node6&#45;&gt;Node34 -->
<g id="edge102" class="edge"><title>Node6&#45;&gt;Node34</title>
<path fill="none" stroke="midnightblue" d="M521.198,-492.497C497.562,-483.234 462.9,-469.65 436.692,-459.379"/>
<polygon fill="midnightblue" stroke="midnightblue" points="437.69,-456.011 427.102,-455.621 435.136,-462.529 437.69,-456.011"/>
</g>
<!-- Node7&#45;&gt;Node3 -->
<g id="edge14" class="edge"><title>Node7&#45;&gt;Node3</title>
<path fill="none" stroke="midnightblue" d="M350.974,-238.491C301.62,-228.016 235.884,-211.816 214,-196 196.77,-183.548 184.113,-162.505 176.486,-146.924"/>
<polygon fill="midnightblue" stroke="midnightblue" points="179.563,-145.24 172.202,-137.619 173.204,-148.167 179.563,-145.24"/>
</g>
<!-- Node7&#45;&gt;Node5 -->
<g id="edge46" class="edge"><title>Node7&#45;&gt;Node5</title>
<path fill="none" stroke="midnightblue" d="M401.721,-232.972C385.443,-199.492 349.34,-125.232 331.861,-89.282"/>
<polygon fill="midnightblue" stroke="midnightblue" points="334.786,-87.2947 327.266,-79.8317 328.491,-90.3555 334.786,-87.2947"/>
</g>
<!-- Node7&#45;&gt;Node8 -->
<g id="edge16" class="edge"><title>Node7&#45;&gt;Node8</title>
<path fill="none" stroke="midnightblue" d="M469.049,-233.092C506.831,-222.273 555.163,-208.434 590.269,-198.381"/>
<polygon fill="midnightblue" stroke="midnightblue" points="591.606,-201.639 600.256,-195.521 589.679,-194.909 591.606,-201.639"/>
</g>
<!-- Node8&#45;&gt;Node3 -->
<g id="edge40" class="edge"><title>Node8&#45;&gt;Node3</title>
<path fill="none" stroke="midnightblue" d="M595.922,-176.391C591.237,-175.526 586.522,-174.708 582,-174 458.636,-154.696 313.407,-140.056 231.889,-132.567"/>
<polygon fill="midnightblue" stroke="midnightblue" points="232.062,-129.068 221.786,-131.645 231.426,-136.039 232.062,-129.068"/>
</g>
<!-- Node8&#45;&gt;Node5 -->
<g id="edge36" class="edge"><title>Node8&#45;&gt;Node5</title>
<path fill="none" stroke="midnightblue" d="M678.121,-175.508C681.118,-174.953 684.1,-174.442 687,-174 779.489,-159.895 1168.14,-184.112 1104,-116 1077.9,-88.2859 499.186,-73.0959 354.539,-69.7237"/>
<polygon fill="midnightblue" stroke="midnightblue" points="354.214,-66.2154 344.136,-69.4842 354.052,-73.2135 354.214,-66.2154"/>
</g>
<!-- Node9 -->
<g id="node18" class="node"><title>Node9</title>
<polygon fill="white" stroke="#bfbfbf" points="491,-116.5 491,-137.5 537,-137.5 537,-116.5 491,-116.5"/>
<text text-anchor="middle" x="514" y="-124.5" font-family="Helvetica,sans-Serif" font-size="10.00">chrono</text>
</g>
<!-- Node8&#45;&gt;Node9 -->
<g id="edge18" class="edge"><title>Node8&#45;&gt;Node9</title>
<path fill="none" stroke="midnightblue" d="M614.726,-174.497C595.428,-165.397 567.287,-152.127 545.652,-141.925"/>
<polygon fill="midnightblue" stroke="midnightblue" points="547.062,-138.721 536.524,-137.621 544.076,-145.052 547.062,-138.721"/>
</g>
<!-- Node10 -->
<g id="node20" class="node"><title>Node10</title>
<polygon fill="white" stroke="#bfbfbf" points="554.5,-116.5 554.5,-137.5 597.5,-137.5 597.5,-116.5 554.5,-116.5"/>
<text text-anchor="middle" x="576" y="-124.5" font-family="Helvetica,sans-Serif" font-size="10.00">cstdio</text>
</g>
<!-- Node8&#45;&gt;Node10 -->
<g id="edge20" class="edge"><title>Node8&#45;&gt;Node10</title>
<path fill="none" stroke="midnightblue" d="M625.812,-174.362C617.041,-166.023 604.651,-154.242 594.422,-144.516"/>
<polygon fill="midnightblue" stroke="midnightblue" points="596.776,-141.925 587.117,-137.571 591.953,-146.998 596.776,-141.925"/>
</g>
<!-- Node11 -->
<g id="node22" class="node"><title>Node11</title>
<polygon fill="white" stroke="#bfbfbf" points="614.5,-116.5 614.5,-137.5 659.5,-137.5 659.5,-116.5 614.5,-116.5"/>
<text text-anchor="middle" x="637" y="-124.5" font-family="Helvetica,sans-Serif" font-size="10.00">cstdlib</text>
</g>
<!-- Node8&#45;&gt;Node11 -->
<g id="edge22" class="edge"><title>Node8&#45;&gt;Node11</title>
<path fill="none" stroke="midnightblue" d="M637,-174.362C637,-166.922 637,-156.743 637,-147.728"/>
<polygon fill="midnightblue" stroke="midnightblue" points="640.5,-147.571 637,-137.571 633.5,-147.571 640.5,-147.571"/>
</g>
<!-- Node12 -->
<g id="node24" class="node"><title>Node12</title>
<polygon fill="white" stroke="#bfbfbf" points="677,-116.5 677,-137.5 727,-137.5 727,-116.5 677,-116.5"/>
<text text-anchor="middle" x="702" y="-124.5" font-family="Helvetica,sans-Serif" font-size="10.00">fstream</text>
</g>
<!-- Node8&#45;&gt;Node12 -->
<g id="edge24" class="edge"><title>Node8&#45;&gt;Node12</title>
<path fill="none" stroke="midnightblue" d="M648.922,-174.362C658.359,-165.941 671.73,-154.011 682.69,-144.231"/>
<polygon fill="midnightblue" stroke="midnightblue" points="685.022,-146.84 690.154,-137.571 680.362,-141.617 685.022,-146.84"/>
</g>
<!-- Node13 -->
<g id="node26" class="node"><title>Node13</title>
<polygon fill="white" stroke="#bfbfbf" points="1311,-116.5 1311,-137.5 1365,-137.5 1365,-116.5 1311,-116.5"/>
<text text-anchor="middle" x="1338" y="-124.5" font-family="Helvetica,sans-Serif" font-size="10.00">iostream</text>
</g>
<!-- Node8&#45;&gt;Node13 -->
<g id="edge26" class="edge"><title>Node8&#45;&gt;Node13</title>
<path fill="none" stroke="midnightblue" d="M678.11,-175.429C681.109,-174.893 684.095,-174.408 687,-174 941.45,-138.29 1008.47,-164.914 1264,-138 1275.99,-136.737 1289.01,-134.944 1300.74,-133.172"/>
<polygon fill="midnightblue" stroke="midnightblue" points="1301.31,-136.625 1310.66,-131.633 1300.24,-129.707 1301.31,-136.625"/>
</g>
<!-- Node14 -->
<g id="node28" class="node"><title>Node14</title>
<polygon fill="white" stroke="#bfbfbf" points="1208.5,-116.5 1208.5,-137.5 1255.5,-137.5 1255.5,-116.5 1208.5,-116.5"/>
<text text-anchor="middle" x="1232" y="-124.5" font-family="Helvetica,sans-Serif" font-size="10.00">iterator</text>
</g>
<!-- Node8&#45;&gt;Node14 -->
<g id="edge28" class="edge"><title>Node8&#45;&gt;Node14</title>
<path fill="none" stroke="midnightblue" d="M678.113,-175.455C681.112,-174.913 684.097,-174.419 687,-174 909.904,-141.836 974.147,-182.318 1198.32,-137.91"/>
<polygon fill="midnightblue" stroke="midnightblue" points="1199.31,-141.28 1208.43,-135.872 1197.93,-134.418 1199.31,-141.28"/>
</g>
<!-- Node15 -->
<g id="node30" class="node"><title>Node15</title>
<polygon fill="white" stroke="#bfbfbf" points="745,-116.5 745,-137.5 797,-137.5 797,-116.5 745,-116.5"/>
<text text-anchor="middle" x="771" y="-124.5" font-family="Helvetica,sans-Serif" font-size="10.00">memory</text>
</g>
<!-- Node8&#45;&gt;Node15 -->
<g id="edge30" class="edge"><title>Node8&#45;&gt;Node15</title>
<path fill="none" stroke="midnightblue" d="M661.266,-174.497C682.478,-165.315 713.498,-151.889 737.15,-141.652"/>
<polygon fill="midnightblue" stroke="midnightblue" points="738.674,-144.806 746.461,-137.621 735.894,-138.381 738.674,-144.806"/>
</g>
<!-- Node16 -->
<g id="node32" class="node"><title>Node16</title>
<polygon fill="white" stroke="#bfbfbf" points="815,-116.5 815,-137.5 867,-137.5 867,-116.5 815,-116.5"/>
<text text-anchor="middle" x="841" y="-124.5" font-family="Helvetica,sans-Serif" font-size="10.00">sstream</text>
</g>
<!-- Node8&#45;&gt;Node16 -->
<g id="edge32" class="edge"><title>Node8&#45;&gt;Node16</title>
<path fill="none" stroke="midnightblue" d="M676.376,-174.447C708.55,-165.736 755.443,-152.838 804.763,-138.309"/>
<polygon fill="midnightblue" stroke="midnightblue" points="806.059,-141.576 814.655,-135.383 804.073,-134.864 806.059,-141.576"/>
</g>
<!-- Node17 -->
<g id="node34" class="node"><title>Node17</title>
<polygon fill="white" stroke="#bfbfbf" points="884.5,-116.5 884.5,-137.5 925.5,-137.5 925.5,-116.5 884.5,-116.5"/>
<text text-anchor="middle" x="905" y="-124.5" font-family="Helvetica,sans-Serif" font-size="10.00">string</text>
</g>
<!-- Node8&#45;&gt;Node17 -->
<g id="edge34" class="edge"><title>Node8&#45;&gt;Node17</title>
<path fill="none" stroke="midnightblue" d="M678.181,-175.843C681.163,-175.21 684.127,-174.59 687,-174 767.656,-157.45 791.925,-160.952 874.431,-138.131"/>
<polygon fill="midnightblue" stroke="midnightblue" points="875.558,-141.45 884.237,-135.372 873.663,-134.711 875.558,-141.45"/>
</g>
<!-- Node18 -->
<g id="node37" class="node"><title>Node18</title>
<polygon fill="white" stroke="#bfbfbf" points="943,-116.5 943,-137.5 1003,-137.5 1003,-116.5 943,-116.5"/>
<text text-anchor="middle" x="973" y="-124.5" font-family="Helvetica,sans-Serif" font-size="10.00">sys/stat.h</text>
</g>
<!-- Node8&#45;&gt;Node18 -->
<g id="edge38" class="edge"><title>Node8&#45;&gt;Node18</title>
<path fill="none" stroke="midnightblue" d="M678.153,-175.701C681.142,-175.101 684.115,-174.527 687,-174 792.935,-154.653 823.706,-160.717 932.77,-138.051"/>
<polygon fill="midnightblue" stroke="midnightblue" points="933.803,-141.41 942.863,-135.919 932.356,-134.561 933.803,-141.41"/>
</g>
<!-- Node19 -->
<g id="node40" class="node"><title>Node19</title>
<polygon fill="white" stroke="#bfbfbf" points="1020.5,-116.5 1020.5,-137.5 1095.5,-137.5 1095.5,-116.5 1020.5,-116.5"/>
<text text-anchor="middle" x="1058" y="-124.5" font-family="Helvetica,sans-Serif" font-size="10.00">mm_malloc.h</text>
</g>
<!-- Node8&#45;&gt;Node19 -->
<g id="edge42" class="edge"><title>Node8&#45;&gt;Node19</title>
<path fill="none" stroke="midnightblue" d="M678.134,-175.588C681.127,-175.014 684.106,-174.477 687,-174 827.171,-150.885 867.05,-162.4 1010.38,-138.119"/>
<polygon fill="midnightblue" stroke="midnightblue" points="1011.16,-141.536 1020.42,-136.388 1009.97,-134.637 1011.16,-141.536"/>
</g>
<!-- Node20 -->
<g id="node42" class="node"><title>Node20</title>
<a xlink:href="../../da/d69/optionparser_8h.html" target="_top" xlink:title="This is the only file required to use The Lean Mean C++ Option Parser. Just #include it and you&#39;re se...">
<polygon fill="white" stroke="black" points="369,-116.5 369,-137.5 473,-137.5 473,-116.5 369,-116.5"/>
<text text-anchor="middle" x="421" y="-124.5" font-family="Helvetica,sans-Serif" font-size="10.00">blond/optionparser.h</text>
</a>
</g>
<!-- Node8&#45;&gt;Node20 -->
<g id="edge44" class="edge"><title>Node8&#45;&gt;Node20</title>
<path fill="none" stroke="midnightblue" d="M597.884,-174.497C562.06,-164.877 508.883,-150.598 470.192,-140.209"/>
<polygon fill="midnightblue" stroke="midnightblue" points="470.755,-136.736 460.189,-137.523 468.94,-143.497 470.755,-136.736"/>
</g>
<!-- Node21&#45;&gt;Node2 -->
<g id="edge96" class="edge"><title>Node21&#45;&gt;Node2</title>
<path fill="none" stroke="midnightblue" d="M354.714,-364.084C351.771,-363.364 348.854,-362.665 346,-362 286.279,-348.086 217.385,-334.489 170.088,-325.529"/>
<polygon fill="midnightblue" stroke="midnightblue" points="170.513,-322.048 160.038,-323.634 169.216,-328.927 170.513,-322.048"/>
</g>
<!-- Node21&#45;&gt;Node6 -->
<g id="edge98" class="edge"><title>Node21&#45;&gt;Node6</title>
<path fill="none" stroke="midnightblue" d="M437.481,-397.106C465.129,-420.19 509.779,-461.138 533.114,-484.781"/>
<polygon fill="midnightblue" stroke="midnightblue" points="530.695,-487.315 540.155,-492.085 535.735,-482.456 530.695,-487.315"/>
</g>
<!-- Node21&#45;&gt;Node7 -->
<g id="edge62" class="edge"><title>Node21&#45;&gt;Node7</title>
<path fill="none" stroke="midnightblue" d="M395.403,-362.924C386.145,-353.136 375.903,-340.028 371,-326 364.824,-308.328 374.22,-289.607 385.333,-275.166"/>
<polygon fill="midnightblue" stroke="midnightblue" points="388.259,-277.123 391.97,-267.199 382.881,-272.642 388.259,-277.123"/>
</g>
<!-- Node21&#45;&gt;Node22 -->
<g id="edge50" class="edge"><title>Node21&#45;&gt;Node22</title>
<path fill="none" stroke="midnightblue" d="M414.02,-362.922C416.169,-354.395 419.748,-344.025 423.588,-335.115"/>
<polygon fill="midnightblue" stroke="midnightblue" points="426.858,-336.388 427.973,-325.852 420.531,-333.393 426.858,-336.388"/>
</g>
<!-- Node21&#45;&gt;Node23 -->
<g id="edge64" class="edge"><title>Node21&#45;&gt;Node23</title>
<path fill="none" stroke="midnightblue" d="M455.505,-362.871C518.044,-337.061 635.334,-288.656 693.883,-264.493"/>
<polygon fill="midnightblue" stroke="midnightblue" points="695.524,-267.602 703.433,-260.552 692.854,-261.131 695.524,-267.602"/>
</g>
<!-- Node22&#45;&gt;Node3 -->
<g id="edge54" class="edge"><title>Node22&#45;&gt;Node3</title>
<path fill="none" stroke="midnightblue" d="M379.79,-310.145C296.199,-302.465 148.837,-286.473 133,-268 102.8,-232.772 134.08,-175.36 154.074,-145.84"/>
<polygon fill="midnightblue" stroke="midnightblue" points="156.956,-147.826 159.836,-137.63 151.226,-143.805 156.956,-147.826"/>
</g>
<!-- Node22&#45;&gt;Node6 -->
<g id="edge52" class="edge"><title>Node22&#45;&gt;Node6</title>
<path fill="none" stroke="midnightblue" d="M456.485,-325.673C467.986,-334.654 481.55,-348.208 491,-362 518.109,-401.564 539.347,-454.024 546.831,-482.494"/>
<polygon fill="midnightblue" stroke="midnightblue" points="543.466,-483.484 549.066,-492.477 550.297,-481.954 543.466,-483.484"/>
</g>
<!-- Node22&#45;&gt;Node7 -->
<g id="edge58" class="edge"><title>Node22&#45;&gt;Node7</title>
<path fill="none" stroke="midnightblue" d="M432.541,-304.267C429.396,-296.694 425.039,-286.205 420.993,-276.464"/>
<polygon fill="midnightblue" stroke="midnightblue" points="424.176,-275.002 417.107,-267.11 417.711,-277.687 424.176,-275.002"/>
</g>
<!-- Node22&#45;&gt;Node8 -->
<g id="edge56" class="edge"><title>Node22&#45;&gt;Node8</title>
<path fill="none" stroke="midnightblue" d="M449.56,-304.276C469.318,-287.679 509.209,-255.26 546,-232 564.768,-220.134 586.879,-208.661 604.606,-200.021"/>
<polygon fill="midnightblue" stroke="midnightblue" points="606.457,-203.015 613.954,-195.528 603.425,-196.706 606.457,-203.015"/>
</g>
<!-- Node22&#45;&gt;Node21 -->
<g id="edge60" class="edge"><title>Node22&#45;&gt;Node21</title>
<path fill="none" stroke="midnightblue" d="M438.347,-325.852C436.979,-333.432 433.763,-343.893 429.985,-353.6"/>
<polygon fill="midnightblue" stroke="midnightblue" points="426.715,-352.347 426.066,-362.922 433.168,-355.06 426.715,-352.347"/>
</g>
<!-- Node23&#45;&gt;Node3 -->
<g id="edge68" class="edge"><title>Node23&#45;&gt;Node3</title>
<path fill="none" stroke="midnightblue" d="M680.684,-239.407C577.72,-216.832 337.049,-164.064 226.013,-139.719"/>
<polygon fill="midnightblue" stroke="midnightblue" points="226.518,-136.247 216.001,-137.524 225.019,-143.085 226.518,-136.247"/>
</g>
<!-- Node23&#45;&gt;Node8 -->
<g id="edge86" class="edge"><title>Node23&#45;&gt;Node8</title>
<path fill="none" stroke="midnightblue" d="M713.808,-239.267C699.205,-228.949 676.937,-213.216 660.13,-201.342"/>
<polygon fill="midnightblue" stroke="midnightblue" points="662.096,-198.446 651.909,-195.534 658.057,-204.163 662.096,-198.446"/>
</g>
<!-- Node24 -->
<g id="node57" class="node"><title>Node24</title>
<polygon fill="white" stroke="#bfbfbf" points="1172,-174.5 1172,-195.5 1228,-195.5 1228,-174.5 1172,-174.5"/>
<text text-anchor="middle" x="1200" y="-182.5" font-family="Helvetica,sans-Serif" font-size="10.00">algorithm</text>
</g>
<!-- Node23&#45;&gt;Node24 -->
<g id="edge66" class="edge"><title>Node23&#45;&gt;Node24</title>
<path fill="none" stroke="midnightblue" d="M788.066,-242.135C865.477,-231.784 1005.46,-212.916 1125,-196 1136.99,-194.303 1150.06,-192.404 1161.87,-190.668"/>
<polygon fill="midnightblue" stroke="midnightblue" points="1162.49,-194.115 1171.87,-189.194 1161.47,-187.19 1162.49,-194.115"/>
</g>
<!-- Node25 -->
<g id="node60" class="node"><title>Node25</title>
<a xlink:href="../../d8/dcd/exp_8h.html" target="_top" xlink:title="blond/exp.h">
<polygon fill="white" stroke="black" points="695.5,-174.5 695.5,-195.5 762.5,-195.5 762.5,-174.5 695.5,-174.5"/>
<text text-anchor="middle" x="729" y="-182.5" font-family="Helvetica,sans-Serif" font-size="10.00">blond/exp.h</text>
</a>
</g>
<!-- Node23&#45;&gt;Node25 -->
<g id="edge70" class="edge"><title>Node23&#45;&gt;Node25</title>
<path fill="none" stroke="midnightblue" d="M729,-239.267C729,-230.18 729,-216.892 729,-205.74"/>
<polygon fill="midnightblue" stroke="midnightblue" points="732.5,-205.534 729,-195.534 725.5,-205.534 732.5,-205.534"/>
</g>
<!-- Node27 -->
<g id="node64" class="node"><title>Node27</title>
<polygon fill="white" stroke="#bfbfbf" points="1460,-0.5 1460,-21.5 1504,-21.5 1504,-0.5 1460,-0.5"/>
<text text-anchor="middle" x="1482" y="-8.5" font-family="Helvetica,sans-Serif" font-size="10.00">cmath</text>
</g>
<!-- Node23&#45;&gt;Node27 -->
<g id="edge88" class="edge"><title>Node23&#45;&gt;Node27</title>
<path fill="none" stroke="midnightblue" d="M755.527,-239.476C780.912,-229.166 820.095,-212.622 853,-196 870.419,-187.201 872.316,-179.633 891,-174 953.988,-155.01 1436.92,-185.913 1482,-138 1508.93,-109.38 1498.36,-59.0529 1489.46,-31.1166"/>
<polygon fill="midnightblue" stroke="midnightblue" points="1492.75,-29.9304 1486.21,-21.5979 1486.12,-32.1925 1492.75,-29.9304"/>
</g>
<!-- Node29 -->
<g id="node68" class="node"><title>Node29</title>
<a xlink:href="../../d1/d3d/sin_8h.html" target="_top" xlink:title="blond/sin.h">
<polygon fill="white" stroke="black" points="780,-174.5 780,-195.5 844,-195.5 844,-174.5 780,-174.5"/>
<text text-anchor="middle" x="812" y="-182.5" font-family="Helvetica,sans-Serif" font-size="10.00">blond/sin.h</text>
</a>
</g>
<!-- Node23&#45;&gt;Node29 -->
<g id="edge78" class="edge"><title>Node23&#45;&gt;Node29</title>
<path fill="none" stroke="midnightblue" d="M742.706,-239.267C755.638,-229.139 775.235,-213.792 790.293,-202"/>
<polygon fill="midnightblue" stroke="midnightblue" points="792.834,-204.455 798.549,-195.534 788.518,-198.944 792.834,-204.455"/>
</g>
<!-- Node31 -->
<g id="node76" class="node"><title>Node31</title>
<polygon fill="white" stroke="#bfbfbf" points="491.5,-174.5 491.5,-195.5 540.5,-195.5 540.5,-174.5 491.5,-174.5"/>
<text text-anchor="middle" x="516" y="-182.5" font-family="Helvetica,sans-Serif" font-size="10.00">random</text>
</g>
<!-- Node23&#45;&gt;Node31 -->
<g id="edge90" class="edge"><title>Node23&#45;&gt;Node31</title>
<path fill="none" stroke="midnightblue" d="M694.304,-239.412C654.614,-227.3 590.019,-207.588 550.437,-195.509"/>
<polygon fill="midnightblue" stroke="midnightblue" points="551.288,-192.109 540.702,-192.538 549.245,-198.805 551.288,-192.109"/>
</g>
<!-- Node32 -->
<g id="node78" class="node"><title>Node32</title>
<polygon fill="white" stroke="#bfbfbf" points="1067.5,-174.5 1067.5,-195.5 1116.5,-195.5 1116.5,-174.5 1067.5,-174.5"/>
<text text-anchor="middle" x="1092" y="-182.5" font-family="Helvetica,sans-Serif" font-size="10.00">cassert</text>
</g>
<!-- Node23&#45;&gt;Node32 -->
<g id="edge92" class="edge"><title>Node23&#45;&gt;Node32</title>
<path fill="none" stroke="midnightblue" d="M788.291,-243.195C852.65,-235.162 958.485,-220.07 1057.4,-196.139"/>
<polygon fill="midnightblue" stroke="midnightblue" points="1058.38,-199.502 1067.26,-193.718 1056.71,-192.704 1058.38,-199.502"/>
</g>
<!-- Node33 -->
<g id="node80" class="node"><title>Node33</title>
<a xlink:href="../../d1/db0/openmp_8h.html" target="_top" xlink:title="blond/openmp.h">
<polygon fill="white" stroke="black" points="900,-174.5 900,-195.5 986,-195.5 986,-174.5 900,-174.5"/>
<text text-anchor="middle" x="943" y="-182.5" font-family="Helvetica,sans-Serif" font-size="10.00">blond/openmp.h</text>
</a>
</g>
<!-- Node23&#45;&gt;Node33 -->
<g id="edge94" class="edge"><title>Node23&#45;&gt;Node33</title>
<path fill="none" stroke="midnightblue" d="M763.859,-239.412C800.545,-228.269 858.408,-210.694 898.398,-198.547"/>
<polygon fill="midnightblue" stroke="midnightblue" points="899.605,-201.839 908.156,-195.584 897.57,-195.141 899.605,-201.839"/>
</g>
<!-- Node26 -->
<g id="node62" class="node"><title>Node26</title>
<a xlink:href="../../df/de1/vdtcore__common_8h.html" target="_top" xlink:title="vdtcore_common.h">
<polygon fill="white" stroke="black" points="1335,-58.5 1335,-79.5 1435,-79.5 1435,-58.5 1335,-58.5"/>
<text text-anchor="middle" x="1385" y="-66.5" font-family="Helvetica,sans-Serif" font-size="10.00">vdtcore_common.h</text>
</a>
</g>
<!-- Node25&#45;&gt;Node26 -->
<g id="edge72" class="edge"><title>Node25&#45;&gt;Node26</title>
<path fill="none" stroke="midnightblue" d="M762.811,-175.576C765.569,-174.981 768.323,-174.444 771,-174 987.728,-138.018 1054.04,-202.682 1264,-138 1282.65,-132.254 1285.06,-125.697 1302,-116 1320.38,-105.476 1341.11,-93.7362 1357.26,-84.6224"/>
<polygon fill="midnightblue" stroke="midnightblue" points="1359.19,-87.5502 1366.18,-79.5888 1355.75,-81.4532 1359.19,-87.5502"/>
</g>
<!-- Node28 -->
<g id="node66" class="node"><title>Node28</title>
<polygon fill="white" stroke="#bfbfbf" points="1151,-116.5 1151,-137.5 1191,-137.5 1191,-116.5 1151,-116.5"/>
<text text-anchor="middle" x="1171" y="-124.5" font-family="Helvetica,sans-Serif" font-size="10.00">limits</text>
</g>
<!-- Node25&#45;&gt;Node28 -->
<g id="edge76" class="edge"><title>Node25&#45;&gt;Node28</title>
<path fill="none" stroke="midnightblue" d="M762.824,-175.651C765.578,-175.039 768.329,-174.478 771,-174 931.895,-145.204 976.987,-171.349 1137,-138 1138.26,-137.737 1139.55,-137.443 1140.84,-137.127"/>
<polygon fill="midnightblue" stroke="midnightblue" points="1142.02,-140.431 1150.7,-134.354 1140.12,-133.693 1142.02,-140.431"/>
</g>
<!-- Node26&#45;&gt;Node27 -->
<g id="edge74" class="edge"><title>Node26&#45;&gt;Node27</title>
<path fill="none" stroke="midnightblue" d="M1402.79,-58.3619C1417.56,-49.532 1438.78,-36.844 1455.54,-26.8224"/>
<polygon fill="midnightblue" stroke="midnightblue" points="1457.53,-29.7066 1464.32,-21.5707 1453.94,-23.6987 1457.53,-29.7066"/>
</g>
<!-- Node30 -->
<g id="node70" class="node"><title>Node30</title>
<a xlink:href="../../dc/dfa/sincos_8h.html" target="_top" xlink:title="sincos.h">
<polygon fill="white" stroke="black" points="1420.5,-116.5 1420.5,-137.5 1473.5,-137.5 1473.5,-116.5 1420.5,-116.5"/>
<text text-anchor="middle" x="1447" y="-124.5" font-family="Helvetica,sans-Serif" font-size="10.00">sincos.h</text>
</a>
</g>
<!-- Node29&#45;&gt;Node30 -->
<g id="edge80" class="edge"><title>Node29&#45;&gt;Node30</title>
<path fill="none" stroke="midnightblue" d="M844.037,-176.625C848.697,-175.616 853.455,-174.697 858,-174 1085.23,-139.148 1145.49,-163.147 1374,-138 1385.8,-136.701 1398.62,-134.902 1410.18,-133.134"/>
<polygon fill="midnightblue" stroke="midnightblue" points="1411.03,-136.543 1420.37,-131.535 1409.95,-129.628 1411.03,-136.543"/>
</g>
<!-- Node30&#45;&gt;Node26 -->
<g id="edge82" class="edge"><title>Node30&#45;&gt;Node26</title>
<path fill="none" stroke="midnightblue" d="M1435.63,-116.362C1426.71,-108.023 1414.12,-96.2418 1403.72,-86.5162"/>
<polygon fill="midnightblue" stroke="midnightblue" points="1405.99,-83.8463 1396.3,-79.5707 1401.21,-88.9582 1405.99,-83.8463"/>
</g>
<!-- Node30&#45;&gt;Node27 -->
<g id="edge84" class="edge"><title>Node30&#45;&gt;Node27</title>
<path fill="none" stroke="midnightblue" d="M1450.23,-116.295C1456.04,-97.0451 1468.34,-56.2889 1475.81,-31.5091"/>
<polygon fill="midnightblue" stroke="midnightblue" points="1479.24,-32.264 1478.78,-21.6792 1472.54,-30.2419 1479.24,-32.264"/>
</g>
<!-- Node34&#45;&gt;Node3 -->
<g id="edge104" class="edge"><title>Node34&#45;&gt;Node3</title>
<path fill="none" stroke="midnightblue" d="M344.802,-438.77C235.071,-424.845 0,-386.651 0,-315 0,-315 0,-315 0,-250 0,-191.203 67.822,-157.467 117.281,-140.682"/>
<polygon fill="midnightblue" stroke="midnightblue" points="118.478,-143.973 126.903,-137.549 116.31,-137.317 118.478,-143.973"/>
</g>
<!-- Node34&#45;&gt;Node8 -->
<g id="edge106" class="edge"><title>Node34&#45;&gt;Node8</title>
<path fill="none" stroke="midnightblue" d="M424.348,-434.42C441.65,-426.137 464.776,-413.448 482,-398 548.853,-338.04 604.342,-244.747 626.567,-204.532"/>
<polygon fill="midnightblue" stroke="midnightblue" points="629.775,-205.96 631.488,-195.505 623.629,-202.61 629.775,-205.96"/>
</g>
<!-- Node34&#45;&gt;Node21 -->
<g id="edge108" class="edge"><title>Node34&#45;&gt;Node21</title>
<path fill="none" stroke="midnightblue" d="M402.312,-434.267C403.909,-426.852 406.108,-416.64 408.169,-407.074"/>
<polygon fill="midnightblue" stroke="midnightblue" points="411.631,-407.623 410.315,-397.11 404.788,-406.149 411.631,-407.623"/>
</g>
<!-- Node35 -->
<g id="node90" class="node"><title>Node35</title>
<polygon fill="white" stroke="#bfbfbf" points="302.5,-369.5 302.5,-390.5 337.5,-390.5 337.5,-369.5 302.5,-369.5"/>
<text text-anchor="middle" x="320" y="-377.5" font-family="Helvetica,sans-Serif" font-size="10.00">map</text>
</g>
<!-- Node34&#45;&gt;Node35 -->
<g id="edge110" class="edge"><title>Node34&#45;&gt;Node35</title>
<path fill="none" stroke="midnightblue" d="M386.79,-434.267C374.325,-424.139 355.436,-408.792 340.923,-397"/>
<polygon fill="midnightblue" stroke="midnightblue" points="342.933,-394.123 332.965,-390.534 338.519,-399.556 342.933,-394.123"/>
</g>
<!-- Node36&#45;&gt;Node3 -->
<g id="edge114" class="edge"><title>Node36&#45;&gt;Node3</title>
<path fill="none" stroke="midnightblue" d="M152.48,-366.093C113.112,-356.363 68.7008,-342.234 57,-326 31.8723,-291.137 -18.9105,-319.623 89,-174 99.2105,-160.221 114.769,-149.728 129.387,-142.191"/>
<polygon fill="midnightblue" stroke="midnightblue" points="131.302,-145.154 138.791,-137.66 128.263,-138.847 131.302,-145.154"/>
</g>
<!-- Node36&#45;&gt;Node5 -->
<g id="edge126" class="edge"><title>Node36&#45;&gt;Node5</title>
<path fill="none" stroke="midnightblue" d="M234.448,-362.837C252.231,-342.019 280.805,-305.089 295,-268 318.604,-206.326 322.06,-126.98 322.261,-89.872"/>
<polygon fill="midnightblue" stroke="midnightblue" points="325.761,-89.7701 322.238,-79.7783 318.761,-89.7864 325.761,-89.7701"/>
</g>
<!-- Node36&#45;&gt;Node22 -->
<g id="edge116" class="edge"><title>Node36&#45;&gt;Node22</title>
<path fill="none" stroke="midnightblue" d="M276.277,-362.922C312.289,-352.184 358.108,-338.523 391.602,-328.536"/>
<polygon fill="midnightblue" stroke="midnightblue" points="392.994,-331.773 401.577,-325.562 390.994,-325.065 392.994,-331.773"/>
</g>
<!-- Node37 -->
<g id="node96" class="node"><title>Node37</title>
<a xlink:href="../../d6/d70/Intensity_8h.html" target="_top" xlink:title="blond/impedances/Intensity.h">
<polygon fill="white" stroke="black" points="142,-239.5 142,-260.5 286,-260.5 286,-239.5 142,-239.5"/>
<text text-anchor="middle" x="214" y="-247.5" font-family="Helvetica,sans-Serif" font-size="10.00">blond/impedances/Intensity.h</text>
</a>
</g>
<!-- Node36&#45;&gt;Node37 -->
<g id="edge118" class="edge"><title>Node36&#45;&gt;Node37</title>
<path fill="none" stroke="midnightblue" d="M218.336,-362.737C217.42,-338.912 215.77,-296.017 214.791,-270.563"/>
<polygon fill="midnightblue" stroke="midnightblue" points="218.287,-270.385 214.405,-260.527 211.292,-270.654 218.287,-270.385"/>
</g>
<!-- Node37&#45;&gt;Node3 -->
<g id="edge120" class="edge"><title>Node37&#45;&gt;Node3</title>
<path fill="none" stroke="midnightblue" d="M204.052,-239.367C195.089,-229.107 182.372,-212.709 176,-196 170.1,-180.529 168.228,-161.806 167.76,-147.769"/>
<polygon fill="midnightblue" stroke="midnightblue" points="171.258,-147.624 167.635,-137.668 164.259,-147.711 171.258,-147.624"/>
</g>
<!-- Node37&#45;&gt;Node5 -->
<g id="edge124" class="edge"><title>Node37&#45;&gt;Node5</title>
<path fill="none" stroke="midnightblue" d="M219.479,-239.364C231.405,-216.41 260.907,-160.69 289,-116 294.986,-106.478 302.105,-96.2207 308.195,-87.7258"/>
<polygon fill="midnightblue" stroke="midnightblue" points="311.04,-89.7651 314.08,-79.6157 305.374,-85.6542 311.04,-89.7651"/>
</g>
<!-- Node37&#45;&gt;Node8 -->
<g id="edge122" class="edge"><title>Node37&#45;&gt;Node8</title>
<path fill="none" stroke="midnightblue" d="M282.432,-239.484C367.183,-226.461 509.63,-204.572 585.613,-192.896"/>
<polygon fill="midnightblue" stroke="midnightblue" points="586.528,-196.297 595.881,-191.319 585.465,-189.378 586.528,-196.297"/>
</g>
<!-- Node38&#45;&gt;Node3 -->
<g id="edge134" class="edge"><title>Node38&#45;&gt;Node3</title>
<path fill="none" stroke="midnightblue" d="M996.907,-247.884C910.617,-241.568 663.62,-221.685 587,-196 568.497,-189.797 567.501,-180.209 549,-174 491.753,-154.789 324.654,-139.226 231.901,-131.772"/>
<polygon fill="midnightblue" stroke="midnightblue" points="232.039,-128.272 221.793,-130.968 231.484,-135.25 232.039,-128.272"/>
</g>
<!-- Node38&#45;&gt;Node8 -->
<g id="edge136" class="edge"><title>Node38&#45;&gt;Node8</title>
<path fill="none" stroke="midnightblue" d="M996.879,-245.826C939.064,-237.683 808.335,-218.639 688.261,-196.161"/>
<polygon fill="midnightblue" stroke="midnightblue" points="688.636,-192.67 678.161,-194.257 687.34,-199.549 688.636,-192.67"/>
</g>
<!-- Node38&#45;&gt;Node24 -->
<g id="edge132" class="edge"><title>Node38&#45;&gt;Node24</title>
<path fill="none" stroke="midnightblue" d="M1055.18,-239.412C1084.33,-228.458 1130.03,-211.288 1162.29,-199.17"/>
<polygon fill="midnightblue" stroke="midnightblue" points="1163.7,-202.377 1171.83,-195.584 1161.24,-195.824 1163.7,-202.377"/>
</g>
<!-- Node38&#45;&gt;Node27 -->
<g id="edge140" class="edge"><title>Node38&#45;&gt;Node27</title>
<path fill="none" stroke="midnightblue" d="M1046.59,-239.363C1066.42,-228.559 1097.94,-211.287 1125,-196 1141.99,-186.402 1144.44,-180.016 1163,-174 1237.8,-149.762 1462.3,-196.36 1515,-138 1538.83,-111.61 1525.71,-91.903 1515,-58 1511.7,-47.5574 1505.16,-37.4231 1498.76,-29.2551"/>
<polygon fill="midnightblue" stroke="midnightblue" points="1501.39,-26.9468 1492.29,-21.5245 1496.02,-31.4395 1501.39,-26.9468"/>
</g>
<!-- Node38&#45;&gt;Node32 -->
<g id="edge138" class="edge"><title>Node38&#45;&gt;Node32</title>
<path fill="none" stroke="midnightblue" d="M1037.73,-239.267C1047.67,-229.328 1062.64,-214.363 1074.34,-202.664"/>
<polygon fill="midnightblue" stroke="midnightblue" points="1076.87,-205.08 1081.47,-195.534 1071.92,-200.13 1076.87,-205.08"/>
</g>
<!-- Node38&#45;&gt;Node33 -->
<g id="edge146" class="edge"><title>Node38&#45;&gt;Node33</title>
<path fill="none" stroke="midnightblue" d="M1013.13,-239.267C999.918,-229.044 979.836,-213.504 964.543,-201.67"/>
<polygon fill="midnightblue" stroke="midnightblue" points="966.663,-198.886 956.613,-195.534 962.38,-204.422 966.663,-198.886"/>
</g>
<!-- Node39 -->
<g id="node110" class="node"><title>Node39</title>
<polygon fill="white" stroke="#bfbfbf" points="1003.5,-174.5 1003.5,-195.5 1050.5,-195.5 1050.5,-174.5 1003.5,-174.5"/>
<text text-anchor="middle" x="1027" y="-182.5" font-family="Helvetica,sans-Serif" font-size="10.00">fftw3.h</text>
</g>
<!-- Node38&#45;&gt;Node39 -->
<g id="edge142" class="edge"><title>Node38&#45;&gt;Node39</title>
<path fill="none" stroke="midnightblue" d="M1027,-239.267C1027,-230.18 1027,-216.892 1027,-205.74"/>
<polygon fill="midnightblue" stroke="midnightblue" points="1030.5,-205.534 1027,-195.534 1023.5,-205.534 1030.5,-205.534"/>
</g>
<!-- Node40 -->
<g id="node112" class="node"><title>Node40</title>
<polygon fill="white" stroke="#bfbfbf" points="1245.5,-174.5 1245.5,-195.5 1304.5,-195.5 1304.5,-174.5 1245.5,-174.5"/>
<text text-anchor="middle" x="1275" y="-182.5" font-family="Helvetica,sans-Serif" font-size="10.00">functional</text>
</g>
<!-- Node38&#45;&gt;Node40 -->
<g id="edge144" class="edge"><title>Node38&#45;&gt;Node40</title>
<path fill="none" stroke="midnightblue" d="M1057.33,-242.505C1096.39,-232.787 1166.6,-215.096 1235.45,-196.379"/>
<polygon fill="midnightblue" stroke="midnightblue" points="1236.43,-199.74 1245.15,-193.732 1234.58,-192.987 1236.43,-199.74"/>
</g>
<!-- Node41&#45;&gt;Node5 -->
<g id="edge158" class="edge"><title>Node41&#45;&gt;Node5</title>
<path fill="none" stroke="midnightblue" d="M1293.17,-239.394C1331.48,-215.787 1413.88,-157.704 1374,-116 1337.89,-78.245 527.432,-70.4407 354.339,-69.2025"/>
<polygon fill="midnightblue" stroke="midnightblue" points="354.12,-65.701 344.096,-69.1317 354.072,-72.7008 354.12,-65.701"/>
</g>
<!-- Node41&#45;&gt;Node13 -->
<g id="edge160" class="edge"><title>Node41&#45;&gt;Node13</title>
<path fill="none" stroke="midnightblue" d="M1289.75,-239.363C1302.11,-229.574 1319.14,-213.891 1328,-196 1335.38,-181.109 1337.72,-162.343 1338.3,-148.143"/>
<polygon fill="midnightblue" stroke="midnightblue" points="1341.81,-147.946 1338.46,-137.894 1334.81,-147.84 1341.81,-147.946"/>
</g>
<!-- Node41&#45;&gt;Node14 -->
<g id="edge162" class="edge"><title>Node41&#45;&gt;Node14</title>
<path fill="none" stroke="midnightblue" d="M1287.08,-239.47C1302.61,-224.609 1326.1,-196.755 1313,-174 1302.66,-156.05 1282.55,-144.325 1264.96,-137.076"/>
<polygon fill="midnightblue" stroke="midnightblue" points="1266.11,-133.77 1255.52,-133.497 1263.63,-140.315 1266.11,-133.77"/>
</g>
<!-- Node41&#45;&gt;Node24 -->
<g id="edge152" class="edge"><title>Node41&#45;&gt;Node24</title>
<path fill="none" stroke="midnightblue" d="M1262.62,-239.267C1251.04,-229.233 1233.55,-214.078 1220,-202.331"/>
<polygon fill="midnightblue" stroke="midnightblue" points="1222,-199.438 1212.15,-195.534 1217.42,-204.728 1222,-199.438"/>
</g>
<!-- Node41&#45;&gt;Node32 -->
<g id="edge156" class="edge"><title>Node41&#45;&gt;Node32</title>
<path fill="none" stroke="midnightblue" d="M1245.19,-239.412C1212.56,-227.821 1160.33,-209.271 1126.1,-197.11"/>
<polygon fill="midnightblue" stroke="midnightblue" points="1127.11,-193.758 1116.52,-193.709 1124.77,-200.354 1127.11,-193.758"/>
</g>
<!-- Node41&#45;&gt;Node40 -->
<g id="edge154" class="edge"><title>Node41&#45;&gt;Node40</title>
<path fill="none" stroke="midnightblue" d="M1275,-239.267C1275,-230.18 1275,-216.892 1275,-205.74"/>
<polygon fill="midnightblue" stroke="midnightblue" points="1278.5,-205.534 1275,-195.534 1271.5,-205.534 1278.5,-205.534"/>
</g>
</g>
</svg>
        <g id="navigator" transform="translate(0 0)" fill="#404254">
                <rect fill="#f2f5e9" fill-opacity="0.5" stroke="#606060" stroke-width=".5" x="0" y="0" width="60" height="60"/>
                <use id="zoomplus" xlink:href="#zoomPlus" x="17" y="9" onmousedown="handleZoom(evt,'in')"/>
                <use id="zoomminus" xlink:href="#zoomMin" x="42" y="9" onmousedown="handleZoom(evt,'out')"/>
                <use id="reset" xlink:href="#resetDef" x="30" y="36" onmousedown="handleReset()"/>
                <g id="arrowUp" xlink:href="#dirArrow" transform="translate(30 24)" onmousedown="handlePan(0,-1)">
                  <use xlink:href="#rim" fill="#404040">
                        <set attributeName="fill" to="#808080" begin="arrowUp.mouseover" end="arrowUp.mouseout"/>
                  </use>
                  <path fill="none" stroke="white" stroke-width="1.5" d="M0,-3.0v7 M-2.5,-0.5L0,-3.0L2.5,-0.5"/>
                </g>
                <g id="arrowRight" xlink:href="#dirArrow" transform="rotate(90) translate(36 -43)" onmousedown="handlePan(1,0)">
                  <use xlink:href="#rim" fill="#404040">
                        <set attributeName="fill" to="#808080" begin="arrowRight.mouseover" end="arrowRight.mouseout"/>
                  </use>
                  <path fill="none" stroke="white" stroke-width="1.5" d="M0,-3.0v7 M-2.5,-0.5L0,-3.0L2.5,-0.5"/>
                </g>
                <g id="arrowDown" xlink:href="#dirArrow" transform="rotate(180) translate(-30 -48)" onmousedown="handlePan(0,1)">
                  <use xlink:href="#rim" fill="#404040">
                        <set attributeName="fill" to="#808080" begin="arrowDown.mouseover" end="arrowDown.mouseout"/>
                  </use>
                  <path fill="none" stroke="white" stroke-width="1.5" d="M0,-3.0v7 M-2.5,-0.5L0,-3.0L2.5,-0.5"/>
                </g>
                <g id="arrowLeft" xlink:href="#dirArrow" transform="rotate(270) translate(-36 17)" onmousedown="handlePan(-1,0)">
                  <use xlink:href="#rim" fill="#404040">
                        <set attributeName="fill" to="#808080" begin="arrowLeft.mouseover" end="arrowLeft.mouseout"/>
                  </use>
                  <path fill="none" stroke="white" stroke-width="1.5" d="M0,-3.0v7 M-2.5,-0.5L0,-3.0L2.5,-0.5"/>
                </g>
        </g>
        <svg viewBox="0 0 15 15" width="100%" height="30px" preserveAspectRatio="xMaxYMin meet">
         <g id="arrow_out" transform="scale(0.3 0.3)">
          <a xlink:href="InducedVoltage_8cpp__incl_org.svg" target="_base">
           <rect id="button" ry="5" rx="5" y="6" x="6" height="38" width="38"
                fill="#f2f5e9" fill-opacity="0.5" stroke="#606060" stroke-width="1.0"/>
           <path id="arrow"
             d="M 11.500037,31.436501 C 11.940474,20.09759 22.043105,11.32322 32.158766,21.979434 L 37.068811,17.246167 C 37.068811,17.246167 37.088388,32 37.088388,32 L 22.160133,31.978069 C 22.160133,31.978069 26.997745,27.140456 26.997745,27.140456 C 18.528582,18.264221 13.291696,25.230495 11.500037,31.436501 z"
             style="fill:#404040;"/>
          </a>
         </g>
        </svg>
</svg>
