<?xml version="1.0" encoding="UTF-8" standalone="no"?>
<!DOCTYPE svg PUBLIC "-//W3C//DTD SVG 1.1//EN"
 "http://www.w3.org/Graphics/SVG/1.1/DTD/svg11.dtd">
<!-- Generated by graphviz version 2.26.3 (20100126.1600)
 -->
<!-- Title: InducedVoltage.cpp Pages: 1 -->
<!--zoomable 522 -->
<svg id="main" version="1.1" xmlns="http://www.w3.org/2000/svg" xmlns:xlink="http://www.w3.org/1999/xlink" xml:space="preserve" onload="init(evt)">
        <defs>
                <circle id="rim" cx="0" cy="0" r="7"/>
                <circle id="rim2" cx="0" cy="0" r="3.5"/>
                <g id="zoomPlus">
                        <use xlink:href="#rim" fill="#404040">
                                <set attributeName="fill" to="#808080" begin="zoomplus.mouseover" end="zoomplus.mouseout"/>
                        </use>
                        <path d="M-4,0h8M0,-4v8" fill="none" stroke="white" stroke-width="1.5" pointer-events="none"/>
                </g>
                <g id="zoomMin">
                        <use xlink:href="#rim" fill="#404040">
                                <set attributeName="fill" to="#808080" begin="zoomminus.mouseover" end="zoomminus.mouseout"/>
                        </use>
                        <path d="M-4,0h8" fill="none" stroke="white" stroke-width="1.5" pointer-events="none"/>
                </g>
                <g id="dirArrow">
                        <path fill="none" stroke="white" stroke-width="1.5" d="M0,-3.0v7 M-2.5,-0.5L0,-3.0L2.5,-0.5"/>
                </g>
               <g id="resetDef">
                       <use xlink:href="#rim2" fill="#404040">
                               <set attributeName="fill" to="#808080" begin="reset.mouseover" end="reset.mouseout"/>
                       </use>
               </g>
        </defs>

<script type="text/javascript">
var viewWidth = 1267;
var viewHeight = 522;
var sectionId = 'dynsection-0';
</script>
<script xlink:href="../../svgpan.js"/>
<svg id="graph" class="graph">
<g id="viewport">
<title>InducedVoltage.cpp</title>
<polygon fill="white" stroke="white" points="-4,5 -4,-518 1264.02,-518 1264.02,5 -4,5"/>
<!-- Node1 -->
<g id="node1" class="node"><title>Node1</title>
<polygon fill="#bfbfbf" stroke="black" points="468.5,-492.5 468.5,-513.5 571.5,-513.5 571.5,-492.5 468.5,-492.5"/>
<text text-anchor="middle" x="520" y="-500.5" font-family="Helvetica,sans-Serif" font-size="10.00">InducedVoltage.cpp</text>
</g>
<!-- Node2 -->
<g id="node3" class="node"><title>Node2</title>
<a xlink:href="../../d2/d6f/constants_8h.html" target="_top" xlink:title="blond/constants.h">
<polygon fill="white" stroke="black" points="0,-376.5 0,-397.5 94,-397.5 94,-376.5 0,-376.5"/>
<text text-anchor="middle" x="47" y="-384.5" font-family="Helvetica,sans-Serif" font-size="10.00">blond/constants.h</text>
</a>
</g>
<!-- Node1&#45;&gt;Node2 -->
<g id="edge2" class="edge"><title>Node1&#45;&gt;Node2</title>
<path fill="none" stroke="midnightblue" d="M468.464,-499.348C381.147,-492.676 208.045,-477.227 151,-456 118.66,-443.966 86.3105,-420.203 66.478,-403.96"/>
<polygon fill="midnightblue" stroke="midnightblue" points="68.6953,-401.252 58.7812,-397.516 64.2014,-406.619 68.6953,-401.252"/>
</g>
<!-- Node6 -->
<g id="node11" class="node"><title>Node6</title>
<a xlink:href="../../d5/d87/globals_8h.html" target="_top" xlink:title="blond/globals.h">
<polygon fill="white" stroke="black" points="358,-434.5 358,-455.5 440,-455.5 440,-434.5 358,-434.5"/>
<text text-anchor="middle" x="399" y="-442.5" font-family="Helvetica,sans-Serif" font-size="10.00">blond/globals.h</text>
</a>
</g>
<!-- Node1&#45;&gt;Node6 -->
<g id="edge10" class="edge"><title>Node1&#45;&gt;Node6</title>
<path fill="none" stroke="midnightblue" d="M498.088,-492.497C479.189,-483.438 451.669,-470.246 430.424,-460.063"/>
<polygon fill="midnightblue" stroke="midnightblue" points="431.689,-456.788 421.158,-455.621 428.663,-463.1 431.689,-456.788"/>
</g>
<!-- Node8 -->
<g id="node16" class="node"><title>Node8</title>
<a xlink:href="../../de/df0/utilities_8h.html" target="_top" xlink:title="blond/utilities.h">
<polygon fill="white" stroke="black" points="552,-174.5 552,-195.5 634,-195.5 634,-174.5 552,-174.5"/>
<text text-anchor="middle" x="593" y="-182.5" font-family="Helvetica,sans-Serif" font-size="10.00">blond/utilities.h</text>
</a>
</g>
<!-- Node1&#45;&gt;Node8 -->
<g id="edge130" class="edge"><title>Node1&#45;&gt;Node8</title>
<path fill="none" stroke="midnightblue" d="M545.366,-492.389C580.847,-475.651 641,-439.527 641,-387 641,-387 641,-387 641,-322 641,-281.118 637.181,-269.959 622,-232 618.12,-222.298 612.287,-212.338 606.868,-204.099"/>
<polygon fill="midnightblue" stroke="midnightblue" points="609.599,-201.893 601.052,-195.633 603.83,-205.857 609.599,-201.893"/>
</g>
<!-- Node23 -->
<g id="node57" class="node"><title>Node23</title>
<a xlink:href="../../d9/dee/InducedVoltage_8h.html" target="_top" xlink:title="blond/impedances/Induced\lVoltage.h">
<polygon fill="white" stroke="black" points="58.5,-305 58.5,-339 191.5,-339 191.5,-305 58.5,-305"/>
<text text-anchor="start" x="66.5" y="-326" font-family="Helvetica,sans-Serif" font-size="10.00">blond/impedances/Induced</text>
<text text-anchor="middle" x="125" y="-313" font-family="Helvetica,sans-Serif" font-size="10.00">Voltage.h</text>
</a>
</g>
<!-- Node1&#45;&gt;Node23 -->
<g id="edge68" class="edge"><title>Node1&#45;&gt;Node23</title>
<path fill="none" stroke="midnightblue" d="M468.268,-492.628C433.698,-484.774 387.648,-472.508 349,-456 276.482,-425.026 199.054,-374.247 156.896,-344.899"/>
<polygon fill="midnightblue" stroke="midnightblue" points="158.896,-342.026 148.698,-339.151 154.878,-347.758 158.896,-342.026"/>
</g>
<!-- Node25 -->
<g id="node66" class="node"><title>Node25</title>
<a xlink:href="../../d2/de2/math__functions_8h.html" target="_top" xlink:title="blond/math_functions.h">
<polygon fill="white" stroke="black" points="894,-239.5 894,-260.5 1012,-260.5 1012,-239.5 894,-239.5"/>
<text text-anchor="middle" x="953" y="-247.5" font-family="Helvetica,sans-Serif" font-size="10.00">blond/math_functions.h</text>
</a>
</g>
<!-- Node1&#45;&gt;Node25 -->
<g id="edge82" class="edge"><title>Node1&#45;&gt;Node25</title>
<path fill="none" stroke="midnightblue" d="M571.857,-492.774C604.074,-485.223 645.731,-473.238 680,-456 785.919,-402.72 892.704,-307.22 934.558,-267.784"/>
<polygon fill="midnightblue" stroke="midnightblue" points="937.204,-270.098 942.043,-260.673 932.382,-265.023 937.204,-270.098"/>
</g>
<!-- Node35 -->
<g id="node91" class="node"><title>Node35</title>
<a xlink:href="../../d7/d76/fft_8h.html" target="_top" xlink:title="blond/fft.h">
<polygon fill="white" stroke="black" points="748,-239.5 748,-260.5 808,-260.5 808,-239.5 748,-239.5"/>
<text text-anchor="middle" x="778" y="-247.5" font-family="Helvetica,sans-Serif" font-size="10.00">blond/fft.h</text>
</a>
</g>
<!-- Node1&#45;&gt;Node35 -->
<g id="edge112" class="edge"><title>Node1&#45;&gt;Node35</title>
<path fill="none" stroke="midnightblue" d="M571.636,-493.904C598.726,-487.075 631.145,-475.44 655,-456 718.136,-404.549 756.581,-311.521 771.221,-270.441"/>
<polygon fill="midnightblue" stroke="midnightblue" points="774.616,-271.334 774.576,-260.74 768,-269.046 774.616,-271.334"/>
</g>
<!-- Node3 -->
<g id="node5" class="node"><title>Node3</title>
<a xlink:href="../../d2/d2c/configuration_8h.html" target="_top" xlink:title="blond/configuration.h">
<polygon fill="white" stroke="black" points="78.5,-116.5 78.5,-137.5 185.5,-137.5 185.5,-116.5 78.5,-116.5"/>
<text text-anchor="middle" x="132" y="-124.5" font-family="Helvetica,sans-Serif" font-size="10.00">blond/configuration.h</text>
</a>
</g>
<!-- Node2&#45;&gt;Node3 -->
<g id="edge4" class="edge"><title>Node2&#45;&gt;Node3</title>
<path fill="none" stroke="midnightblue" d="M46.057,-376.338C44.9399,-360.363 43.9235,-329.381 50,-304 64.5776,-243.11 100.865,-177.855 119.904,-146.296"/>
<polygon fill="midnightblue" stroke="midnightblue" points="122.976,-147.981 125.216,-137.625 117.007,-144.324 122.976,-147.981"/>
</g>
<!-- Node4 -->
<g id="node7" class="node"><title>Node4</title>
<polygon fill="white" stroke="#bfbfbf" points="105.5,-58.5 105.5,-79.5 158.5,-79.5 158.5,-58.5 105.5,-58.5"/>
<text text-anchor="middle" x="132" y="-66.5" font-family="Helvetica,sans-Serif" font-size="10.00">complex</text>
</g>
<!-- Node3&#45;&gt;Node4 -->
<g id="edge6" class="edge"><title>Node3&#45;&gt;Node4</title>
<path fill="none" stroke="midnightblue" d="M132,-116.362C132,-108.922 132,-98.7427 132,-89.7276"/>
<polygon fill="midnightblue" stroke="midnightblue" points="135.5,-89.5706 132,-79.5707 128.5,-89.5707 135.5,-89.5706"/>
</g>
<!-- Node5 -->
<g id="node9" class="node"><title>Node5</title>
<polygon fill="white" stroke="#bfbfbf" points="29,-58.5 29,-79.5 73,-79.5 73,-58.5 29,-58.5"/>
<text text-anchor="middle" x="51" y="-66.5" font-family="Helvetica,sans-Serif" font-size="10.00">vector</text>
</g>
<!-- Node3&#45;&gt;Node5 -->
<g id="edge8" class="edge"><title>Node3&#45;&gt;Node5</title>
<path fill="none" stroke="midnightblue" d="M117.143,-116.362C105.154,-107.777 88.0727,-95.5459 74.2715,-85.6636"/>
<polygon fill="midnightblue" stroke="midnightblue" points="75.9307,-82.5469 65.7625,-79.5707 71.8554,-88.2383 75.9307,-82.5469"/>
</g>
<!-- Node7 -->
<g id="node13" class="node"><title>Node7</title>
<a xlink:href="../../d7/d74/Beams_8h.html" target="_top" xlink:title="blond/beams/Beams.h">
<polygon fill="white" stroke="black" points="342,-376.5 342,-397.5 456,-397.5 456,-376.5 342,-376.5"/>
<text text-anchor="middle" x="399" y="-384.5" font-family="Helvetica,sans-Serif" font-size="10.00">blond/beams/Beams.h</text>
</a>
</g>
<!-- Node6&#45;&gt;Node7 -->
<g id="edge12" class="edge"><title>Node6&#45;&gt;Node7</title>
<path fill="none" stroke="midnightblue" d="M399,-434.362C399,-426.922 399,-416.743 399,-407.728"/>
<polygon fill="midnightblue" stroke="midnightblue" points="402.5,-407.571 399,-397.571 395.5,-407.571 402.5,-407.571"/>
</g>
<!-- Node20 -->
<g id="node42" class="node"><title>Node20</title>
<a xlink:href="../../d5/d34/GeneralParameters_8h.html" target="_top" xlink:title="blond/input_parameters\l/GeneralParameters.h">
<polygon fill="white" stroke="black" points="291,-233 291,-267 409,-267 409,-233 291,-233"/>
<text text-anchor="start" x="299" y="-254" font-family="Helvetica,sans-Serif" font-size="10.00">blond/input_parameters</text>
<text text-anchor="middle" x="350" y="-241" font-family="Helvetica,sans-Serif" font-size="10.00">/GeneralParameters.h</text>
</a>
</g>
<!-- Node6&#45;&gt;Node20 -->
<g id="edge64" class="edge"><title>Node6&#45;&gt;Node20</title>
<path fill="none" stroke="midnightblue" d="M367.183,-434.462C329.42,-419.982 268.488,-389.894 244,-340 236.95,-325.637 235.64,-317.642 244,-304 252.758,-289.709 266.616,-279.052 281.461,-271.161"/>
<polygon fill="midnightblue" stroke="midnightblue" points="283.348,-274.134 290.794,-266.598 280.273,-267.846 283.348,-274.134"/>
</g>
<!-- Node21 -->
<g id="node47" class="node"><title>Node21</title>
<a xlink:href="../../d6/db7/RfParameters_8h.html" target="_top" xlink:title="blond/input_parameters\l/RfParameters.h">
<polygon fill="white" stroke="black" points="253,-305 253,-339 371,-339 371,-305 253,-305"/>
<text text-anchor="start" x="261" y="-326" font-family="Helvetica,sans-Serif" font-size="10.00">blond/input_parameters</text>
<text text-anchor="middle" x="312" y="-313" font-family="Helvetica,sans-Serif" font-size="10.00">/RfParameters.h</text>
</a>
</g>
<!-- Node6&#45;&gt;Node21 -->
<g id="edge66" class="edge"><title>Node6&#45;&gt;Node21</title>
<path fill="none" stroke="midnightblue" d="M376.955,-434.384C362.442,-426.318 344.133,-413.902 333,-398 322.922,-383.604 317.67,-364.535 314.939,-349.099"/>
<polygon fill="midnightblue" stroke="midnightblue" points="318.382,-348.458 313.423,-339.096 311.461,-349.507 318.382,-348.458"/>
</g>
<!-- Node22 -->
<g id="node51" class="node"><title>Node22</title>
<a xlink:href="../../dc/df2/Slices_8h.html" target="_top" xlink:title="blond/beams/Slices.h">
<polygon fill="white" stroke="black" points="503,-239.5 503,-260.5 613,-260.5 613,-239.5 503,-239.5"/>
<text text-anchor="middle" x="558" y="-247.5" font-family="Helvetica,sans-Serif" font-size="10.00">blond/beams/Slices.h</text>
</a>
</g>
<!-- Node6&#45;&gt;Node22 -->
<g id="edge58" class="edge"><title>Node6&#45;&gt;Node22</title>
<path fill="none" stroke="midnightblue" d="M417.861,-434.342C431.952,-425.761 451.097,-412.731 465,-398 502.989,-357.75 534.052,-299.732 548.776,-269.692"/>
<polygon fill="midnightblue" stroke="midnightblue" points="551.948,-271.172 553.129,-260.643 545.64,-268.137 551.948,-271.172"/>
</g>
<!-- Node7&#45;&gt;Node3 -->
<g id="edge14" class="edge"><title>Node7&#45;&gt;Node3</title>
<path fill="none" stroke="midnightblue" d="M404.75,-376.422C418.492,-349.551 449.815,-277.571 418,-232 391.233,-193.658 265.011,-158.192 189.484,-139.919"/>
<polygon fill="midnightblue" stroke="midnightblue" points="190.171,-136.485 179.631,-137.563 188.543,-143.293 190.171,-136.485"/>
</g>
<!-- Node7&#45;&gt;Node8 -->
<g id="edge16" class="edge"><title>Node7&#45;&gt;Node8</title>
<path fill="none" stroke="midnightblue" d="M414.408,-376.146C425.796,-367.462 440.999,-354.389 451,-340 480.486,-297.576 458.661,-269.688 494,-232 507.835,-217.245 527.253,-206.639 545.231,-199.281"/>
<polygon fill="midnightblue" stroke="midnightblue" points="546.943,-202.373 555.025,-195.522 544.435,-195.838 546.943,-202.373"/>
</g>
<!-- Node7&#45;&gt;Node20 -->
<g id="edge44" class="edge"><title>Node7&#45;&gt;Node20</title>
<path fill="none" stroke="midnightblue" d="M397.529,-376.235C395.11,-360.13 389.577,-328.983 380,-304 376.391,-294.587 371.388,-284.806 366.501,-276.196"/>
<polygon fill="midnightblue" stroke="midnightblue" points="369.404,-274.229 361.315,-267.387 363.372,-277.78 369.404,-274.229"/>
</g>
<!-- Node7&#45;&gt;Node21 -->
<g id="edge52" class="edge"><title>Node7&#45;&gt;Node21</title>
<path fill="none" stroke="midnightblue" d="M379.467,-376.267C366.811,-367.906 350.411,-355.988 336.874,-345.449"/>
<polygon fill="midnightblue" stroke="midnightblue" points="338.886,-342.578 328.874,-339.11 334.538,-348.064 338.886,-342.578"/>
</g>
<!-- Node8&#45;&gt;Node3 -->
<g id="edge38" class="edge"><title>Node8&#45;&gt;Node3</title>
<path fill="none" stroke="midnightblue" d="M551.927,-176.358C547.241,-175.499 542.524,-174.691 538,-174 388.224,-151.119 349.15,-158.282 199,-138 197.919,-137.854 196.83,-137.704 195.732,-137.551"/>
<polygon fill="midnightblue" stroke="midnightblue" points="196.116,-134.07 185.717,-136.095 195.109,-140.997 196.116,-134.07"/>
</g>
<!-- Node8&#45;&gt;Node5 -->
<g id="edge36" class="edge"><title>Node8&#45;&gt;Node5</title>
<path fill="none" stroke="midnightblue" d="M551.919,-176.409C547.235,-175.541 542.52,-174.717 538,-174 402.752,-152.555 361.945,-181.2 232,-138 213.481,-131.844 211.81,-123.978 194,-116 157.092,-99.4662 112.55,-85.7468 83.091,-77.4811"/>
<polygon fill="midnightblue" stroke="midnightblue" points="83.9079,-74.0758 73.3371,-74.7892 82.0456,-80.8236 83.9079,-74.0758"/>
</g>
<!-- Node9 -->
<g id="node18" class="node"><title>Node9</title>
<polygon fill="white" stroke="#bfbfbf" points="979,-116.5 979,-137.5 1025,-137.5 1025,-116.5 979,-116.5"/>
<text text-anchor="middle" x="1002" y="-124.5" font-family="Helvetica,sans-Serif" font-size="10.00">chrono</text>
</g>
<!-- Node8&#45;&gt;Node9 -->
<g id="edge18" class="edge"><title>Node8&#45;&gt;Node9</title>
<path fill="none" stroke="midnightblue" d="M634.363,-179.436C647.655,-177.67 662.446,-175.728 676,-174 803.398,-157.759 839.946,-167.076 968.889,-137.888"/>
<polygon fill="midnightblue" stroke="midnightblue" points="969.783,-141.274 978.745,-135.624 968.216,-134.452 969.783,-141.274"/>
</g>
<!-- Node10 -->
<g id="node20" class="node"><title>Node10</title>
<polygon fill="white" stroke="#bfbfbf" points="240.5,-116.5 240.5,-137.5 283.5,-137.5 283.5,-116.5 240.5,-116.5"/>
<text text-anchor="middle" x="262" y="-124.5" font-family="Helvetica,sans-Serif" font-size="10.00">cstdio</text>
</g>
<!-- Node8&#45;&gt;Node10 -->
<g id="edge20" class="edge"><title>Node8&#45;&gt;Node10</title>
<path fill="none" stroke="midnightblue" d="M551.898,-176.537C547.217,-175.645 542.51,-174.78 538,-174 432.31,-155.71 400.933,-164.602 293.711,-138.08"/>
<polygon fill="midnightblue" stroke="midnightblue" points="294.343,-134.63 283.791,-135.58 292.633,-141.418 294.343,-134.63"/>
</g>
<!-- Node11 -->
<g id="node22" class="node"><title>Node11</title>
<polygon fill="white" stroke="#bfbfbf" points="300.5,-116.5 300.5,-137.5 345.5,-137.5 345.5,-116.5 300.5,-116.5"/>
<text text-anchor="middle" x="323" y="-124.5" font-family="Helvetica,sans-Serif" font-size="10.00">cstdlib</text>
</g>
<!-- Node8&#45;&gt;Node11 -->
<g id="edge22" class="edge"><title>Node8&#45;&gt;Node11</title>
<path fill="none" stroke="midnightblue" d="M551.858,-176.752C547.185,-175.821 542.49,-174.888 538,-174 459.449,-158.461 436.175,-159.852 355.673,-138.199"/>
<polygon fill="midnightblue" stroke="midnightblue" points="356.133,-134.696 345.564,-135.441 354.291,-141.45 356.133,-134.696"/>
</g>
<!-- Node12 -->
<g id="node24" class="node"><title>Node12</title>
<polygon fill="white" stroke="#bfbfbf" points="363,-116.5 363,-137.5 413,-137.5 413,-116.5 363,-116.5"/>
<text text-anchor="middle" x="388" y="-124.5" font-family="Helvetica,sans-Serif" font-size="10.00">fstream</text>
</g>
<!-- Node8&#45;&gt;Node12 -->
<g id="edge24" class="edge"><title>Node8&#45;&gt;Node12</title>
<path fill="none" stroke="midnightblue" d="M552.776,-174.488C520.135,-165.836 472.715,-152.992 422.875,-138.183"/>
<polygon fill="midnightblue" stroke="midnightblue" points="423.795,-134.805 413.212,-135.295 421.791,-141.512 423.795,-134.805"/>
</g>
<!-- Node13 -->
<g id="node26" class="node"><title>Node13</title>
<polygon fill="white" stroke="#bfbfbf" points="431,-116.5 431,-137.5 485,-137.5 485,-116.5 431,-116.5"/>
<text text-anchor="middle" x="458" y="-124.5" font-family="Helvetica,sans-Serif" font-size="10.00">iostream</text>
</g>
<!-- Node8&#45;&gt;Node13 -->
<g id="edge26" class="edge"><title>Node8&#45;&gt;Node13</title>
<path fill="none" stroke="midnightblue" d="M568.553,-174.497C547.182,-165.315 515.931,-151.889 492.103,-141.652"/>
<polygon fill="midnightblue" stroke="midnightblue" points="493.291,-138.353 482.722,-137.621 490.528,-144.784 493.291,-138.353"/>
</g>
<!-- Node14 -->
<g id="node28" class="node"><title>Node14</title>
<polygon fill="white" stroke="#bfbfbf" points="502.5,-116.5 502.5,-137.5 549.5,-137.5 549.5,-116.5 502.5,-116.5"/>
<text text-anchor="middle" x="526" y="-124.5" font-family="Helvetica,sans-Serif" font-size="10.00">iterator</text>
</g>
<!-- Node8&#45;&gt;Node14 -->
<g id="edge28" class="edge"><title>Node8&#45;&gt;Node14</title>
<path fill="none" stroke="midnightblue" d="M580.711,-174.362C570.983,-165.941 557.202,-154.011 545.905,-144.231"/>
<polygon fill="midnightblue" stroke="midnightblue" points="548.062,-141.469 538.211,-137.571 543.481,-146.762 548.062,-141.469"/>
</g>
<!-- Node15 -->
<g id="node30" class="node"><title>Node15</title>
<polygon fill="white" stroke="#bfbfbf" points="567,-116.5 567,-137.5 619,-137.5 619,-116.5 567,-116.5"/>
<text text-anchor="middle" x="593" y="-124.5" font-family="Helvetica,sans-Serif" font-size="10.00">memory</text>
</g>
<!-- Node8&#45;&gt;Node15 -->
<g id="edge30" class="edge"><title>Node8&#45;&gt;Node15</title>
<path fill="none" stroke="midnightblue" d="M593,-174.362C593,-166.922 593,-156.743 593,-147.728"/>
<polygon fill="midnightblue" stroke="midnightblue" points="596.5,-147.571 593,-137.571 589.5,-147.571 596.5,-147.571"/>
</g>
<!-- Node16 -->
<g id="node32" class="node"><title>Node16</title>
<polygon fill="white" stroke="#bfbfbf" points="637,-116.5 637,-137.5 689,-137.5 689,-116.5 637,-116.5"/>
<text text-anchor="middle" x="663" y="-124.5" font-family="Helvetica,sans-Serif" font-size="10.00">sstream</text>
</g>
<!-- Node8&#45;&gt;Node16 -->
<g id="edge32" class="edge"><title>Node8&#45;&gt;Node16</title>
<path fill="none" stroke="midnightblue" d="M605.839,-174.362C616.002,-165.941 630.401,-154.011 642.204,-144.231"/>
<polygon fill="midnightblue" stroke="midnightblue" points="644.775,-146.646 650.242,-137.571 640.309,-141.256 644.775,-146.646"/>
</g>
<!-- Node17 -->
<g id="node34" class="node"><title>Node17</title>
<polygon fill="white" stroke="#bfbfbf" points="706.5,-116.5 706.5,-137.5 747.5,-137.5 747.5,-116.5 706.5,-116.5"/>
<text text-anchor="middle" x="727" y="-124.5" font-family="Helvetica,sans-Serif" font-size="10.00">string</text>
</g>
<!-- Node8&#45;&gt;Node17 -->
<g id="edge34" class="edge"><title>Node8&#45;&gt;Node17</title>
<path fill="none" stroke="midnightblue" d="M617.266,-174.497C639.671,-164.799 673.019,-150.365 697.068,-139.956"/>
<polygon fill="midnightblue" stroke="midnightblue" points="698.639,-143.09 706.426,-135.905 695.858,-136.665 698.639,-143.09"/>
</g>
<!-- Node18 -->
<g id="node38" class="node"><title>Node18</title>
<polygon fill="white" stroke="#bfbfbf" points="764.5,-116.5 764.5,-137.5 839.5,-137.5 839.5,-116.5 764.5,-116.5"/>
<text text-anchor="middle" x="802" y="-124.5" font-family="Helvetica,sans-Serif" font-size="10.00">mm_malloc.h</text>
</g>
<!-- Node8&#45;&gt;Node18 -->
<g id="edge40" class="edge"><title>Node8&#45;&gt;Node18</title>
<path fill="none" stroke="midnightblue" d="M630.848,-174.497C665.619,-164.847 717.286,-150.509 754.752,-140.112"/>
<polygon fill="midnightblue" stroke="midnightblue" points="755.733,-143.472 764.433,-137.425 753.861,-136.727 755.733,-143.472"/>
</g>
<!-- Node19 -->
<g id="node40" class="node"><title>Node19</title>
<a xlink:href="../../da/d69/optionparser_8h.html" target="_top" xlink:title="This is the only file required to use The Lean Mean C++ Option Parser. Just #include it and you&#39;re se...">
<polygon fill="white" stroke="black" points="857,-116.5 857,-137.5 961,-137.5 961,-116.5 857,-116.5"/>
<text text-anchor="middle" x="909" y="-124.5" font-family="Helvetica,sans-Serif" font-size="10.00">blond/optionparser.h</text>
</a>
</g>
<!-- Node8&#45;&gt;Node19 -->
<g id="edge42" class="edge"><title>Node8&#45;&gt;Node19</title>
<path fill="none" stroke="midnightblue" d="M634.311,-177.418C688.43,-167.484 783.817,-149.977 846.72,-138.431"/>
<polygon fill="midnightblue" stroke="midnightblue" points="847.707,-141.809 856.91,-136.561 846.443,-134.924 847.707,-141.809"/>
</g>
<!-- Node20&#45;&gt;Node3 -->
<g id="edge46" class="edge"><title>Node20&#45;&gt;Node3</title>
<path fill="none" stroke="midnightblue" d="M319.688,-232.897C277.249,-208.953 200.735,-165.782 159.731,-142.646"/>
<polygon fill="midnightblue" stroke="midnightblue" points="161.258,-139.489 150.828,-137.623 157.818,-145.586 161.258,-139.489"/>
</g>
<!-- Node20&#45;&gt;Node5 -->
<g id="edge50" class="edge"><title>Node20&#45;&gt;Node5</title>
<path fill="none" stroke="midnightblue" d="M290.936,-233.151C218.121,-211.268 100.271,-171.86 70,-138 58.2536,-124.861 53.691,-105.099 51.9576,-90.0869"/>
<polygon fill="midnightblue" stroke="midnightblue" points="55.4135,-89.4034 51.1114,-79.7213 48.4368,-89.973 55.4135,-89.4034"/>
</g>
<!-- Node20&#45;&gt;Node8 -->
<g id="edge48" class="edge"><title>Node20&#45;&gt;Node8</title>
<path fill="none" stroke="midnightblue" d="M409.134,-234.182C450.272,-223.178 504.499,-208.673 543.385,-198.272"/>
<polygon fill="midnightblue" stroke="midnightblue" points="544.666,-201.552 553.422,-195.587 542.857,-194.79 544.666,-201.552"/>
</g>
<!-- Node21&#45;&gt;Node7 -->
<g id="edge54" class="edge"><title>Node21&#45;&gt;Node7</title>
<path fill="none" stroke="midnightblue" d="M340.927,-339.11C354.574,-348.587 370.3,-360.334 382.041,-369.822"/>
<polygon fill="midnightblue" stroke="midnightblue" points="379.871,-372.569 389.8,-376.267 384.344,-367.185 379.871,-372.569"/>
</g>
<!-- Node21&#45;&gt;Node20 -->
<g id="edge56" class="edge"><title>Node21&#45;&gt;Node20</title>
<path fill="none" stroke="midnightblue" d="M321.005,-304.937C325.483,-296.454 330.995,-286.009 336.007,-276.513"/>
<polygon fill="midnightblue" stroke="midnightblue" points="339.223,-277.918 340.795,-267.441 333.032,-274.651 339.223,-277.918"/>
</g>
<!-- Node22&#45;&gt;Node3 -->
<g id="edge60" class="edge"><title>Node22&#45;&gt;Node3</title>
<path fill="none" stroke="midnightblue" d="M541.132,-239.424C510.831,-220.598 448.102,-182.453 424,-174 328.434,-140.486 298.967,-154.204 199,-138 197.924,-137.826 196.838,-137.649 195.744,-137.472"/>
<polygon fill="midnightblue" stroke="midnightblue" points="196.186,-133.998 185.754,-135.845 195.061,-140.907 196.186,-133.998"/>
</g>
<!-- Node22&#45;&gt;Node8 -->
<g id="edge62" class="edge"><title>Node22&#45;&gt;Node8</title>
<path fill="none" stroke="midnightblue" d="M563.78,-239.267C568.876,-229.801 576.428,-215.777 582.577,-204.357"/>
<polygon fill="midnightblue" stroke="midnightblue" points="585.669,-205.998 587.328,-195.534 579.505,-202.679 585.669,-205.998"/>
</g>
<!-- Node23&#45;&gt;Node3 -->
<g id="edge70" class="edge"><title>Node23&#45;&gt;Node3</title>
<path fill="none" stroke="midnightblue" d="M122.969,-304.518C121.845,-293.961 120.565,-280.227 120,-268 119.262,-252.017 119.09,-247.974 120,-232 121.672,-202.653 125.951,-168.915 128.919,-147.776"/>
<polygon fill="midnightblue" stroke="midnightblue" points="132.409,-148.094 130.37,-137.697 125.48,-147.097 132.409,-148.094"/>
</g>
<!-- Node23&#45;&gt;Node5 -->
<g id="edge80" class="edge"><title>Node23&#45;&gt;Node5</title>
<path fill="none" stroke="midnightblue" d="M104.803,-304.855C80.3391,-282.643 40.375,-241.355 24,-196 11.925,-162.555 13.562,-150.283 23,-116 25.7108,-106.153 31.0846,-96.2859 36.4058,-88.1528"/>
<polygon fill="midnightblue" stroke="midnightblue" points="39.384,-90.0015 42.2467,-79.8007 33.6475,-85.9898 39.384,-90.0015"/>
</g>
<!-- Node24 -->
<g id="node60" class="node"><title>Node24</title>
<a xlink:href="../../d6/d70/Intensity_8h.html" target="_top" xlink:title="blond/impedances/Intensity.h">
<polygon fill="white" stroke="black" points="129,-239.5 129,-260.5 273,-260.5 273,-239.5 129,-239.5"/>
<text text-anchor="middle" x="201" y="-247.5" font-family="Helvetica,sans-Serif" font-size="10.00">blond/impedances/Intensity.h</text>
</a>
</g>
<!-- Node23&#45;&gt;Node24 -->
<g id="edge72" class="edge"><title>Node23&#45;&gt;Node24</title>
<path fill="none" stroke="midnightblue" d="M143.011,-304.937C154.821,-293.748 170.233,-279.147 182.2,-267.811"/>
<polygon fill="midnightblue" stroke="midnightblue" points="184.641,-270.319 189.493,-260.901 179.827,-265.238 184.641,-270.319"/>
</g>
<!-- Node24&#45;&gt;Node3 -->
<g id="edge74" class="edge"><title>Node24&#45;&gt;Node3</title>
<path fill="none" stroke="midnightblue" d="M194.877,-239.085C183.237,-218.335 157.77,-172.937 143.067,-146.729"/>
<polygon fill="midnightblue" stroke="midnightblue" points="145.956,-144.724 138.011,-137.715 139.851,-148.149 145.956,-144.724"/>
</g>
<!-- Node24&#45;&gt;Node5 -->
<g id="edge78" class="edge"><title>Node24&#45;&gt;Node5</title>
<path fill="none" stroke="midnightblue" d="M147.559,-239.453C104.941,-229.828 50.2667,-214.336 37,-196 14.0551,-164.288 29.393,-115.954 41.1396,-88.9791"/>
<polygon fill="midnightblue" stroke="midnightblue" points="44.3784,-90.3132 45.3784,-79.7657 38.0191,-87.3875 44.3784,-90.3132"/>
</g>
<!-- Node24&#45;&gt;Node8 -->
<g id="edge76" class="edge"><title>Node24&#45;&gt;Node8</title>
<path fill="none" stroke="midnightblue" d="M245.874,-239.452C257.599,-236.854 270.246,-234.191 282,-232 372.834,-215.064 479.464,-199.983 541.322,-191.704"/>
<polygon fill="midnightblue" stroke="midnightblue" points="542.146,-195.125 551.597,-190.336 541.223,-188.186 542.146,-195.125"/>
</g>
<!-- Node25&#45;&gt;Node3 -->
<g id="edge86" class="edge"><title>Node25&#45;&gt;Node3</title>
<path fill="none" stroke="midnightblue" d="M893.757,-242.147C869.909,-238.988 842.147,-235.316 817,-232 695.23,-215.942 660.442,-231.962 543,-196 522.094,-189.599 519.952,-180.248 499,-174 369.739,-135.453 328.674,-157.741 195.844,-138.823"/>
<polygon fill="midnightblue" stroke="midnightblue" points="196.1,-135.323 185.696,-137.324 195.077,-142.248 196.1,-135.323"/>
</g>
<!-- Node25&#45;&gt;Node8 -->
<g id="edge104" class="edge"><title>Node25&#45;&gt;Node8</title>
<path fill="none" stroke="midnightblue" d="M894.76,-239.484C825.341,-226.95 710.438,-206.204 644.254,-194.254"/>
<polygon fill="midnightblue" stroke="midnightblue" points="644.528,-190.747 634.065,-192.414 643.284,-197.636 644.528,-190.747"/>
</g>
<!-- Node26 -->
<g id="node68" class="node"><title>Node26</title>
<polygon fill="white" stroke="#bfbfbf" points="925,-174.5 925,-195.5 981,-195.5 981,-174.5 925,-174.5"/>
<text text-anchor="middle" x="953" y="-182.5" font-family="Helvetica,sans-Serif" font-size="10.00">algorithm</text>
</g>
<!-- Node25&#45;&gt;Node26 -->
<g id="edge84" class="edge"><title>Node25&#45;&gt;Node26</title>
<path fill="none" stroke="midnightblue" d="M953,-239.267C953,-230.18 953,-216.892 953,-205.74"/>
<polygon fill="midnightblue" stroke="midnightblue" points="956.5,-205.534 953,-195.534 949.5,-205.534 956.5,-205.534"/>
</g>
<!-- Node27 -->
<g id="node71" class="node"><title>Node27</title>
<a xlink:href="../../d8/dcd/exp_8h.html" target="_top" xlink:title="blond/exp.h">
<polygon fill="white" stroke="black" points="1146.5,-174.5 1146.5,-195.5 1213.5,-195.5 1213.5,-174.5 1146.5,-174.5"/>
<text text-anchor="middle" x="1180" y="-182.5" font-family="Helvetica,sans-Serif" font-size="10.00">blond/exp.h</text>
</a>
</g>
<!-- Node25&#45;&gt;Node27 -->
<g id="edge88" class="edge"><title>Node25&#45;&gt;Node27</title>
<path fill="none" stroke="midnightblue" d="M989.724,-239.484C1029.8,-228.008 1093.92,-209.648 1136.49,-197.458"/>
<polygon fill="midnightblue" stroke="midnightblue" points="1137.64,-200.769 1146.29,-194.652 1135.72,-194.04 1137.64,-200.769"/>
</g>
<!-- Node29 -->
<g id="node75" class="node"><title>Node29</title>
<polygon fill="white" stroke="#bfbfbf" points="1118,-0.5 1118,-21.5 1162,-21.5 1162,-0.5 1118,-0.5"/>
<text text-anchor="middle" x="1140" y="-8.5" font-family="Helvetica,sans-Serif" font-size="10.00">cmath</text>
</g>
<!-- Node25&#45;&gt;Node29 -->
<g id="edge106" class="edge"><title>Node25&#45;&gt;Node29</title>
<path fill="none" stroke="midnightblue" d="M1012.12,-245.984C1082.47,-239.916 1193.97,-225.793 1222,-196 1264.31,-151.028 1270.89,-110.254 1238,-58 1223.62,-35.1505 1194.7,-23.1606 1171.98,-17.0291"/>
<polygon fill="midnightblue" stroke="midnightblue" points="1172.6,-13.5777 1162.06,-14.6061 1170.94,-20.378 1172.6,-13.5777"/>
</g>
<!-- Node31 -->
<g id="node79" class="node"><title>Node31</title>
<a xlink:href="../../d1/d3d/sin_8h.html" target="_top" xlink:title="blond/sin.h">
<polygon fill="white" stroke="black" points="1065,-174.5 1065,-195.5 1129,-195.5 1129,-174.5 1065,-174.5"/>
<text text-anchor="middle" x="1097" y="-182.5" font-family="Helvetica,sans-Serif" font-size="10.00">blond/sin.h</text>
</a>
</g>
<!-- Node25&#45;&gt;Node31 -->
<g id="edge96" class="edge"><title>Node25&#45;&gt;Node31</title>
<path fill="none" stroke="midnightblue" d="M976.457,-239.412C1000.31,-228.647 1037.45,-211.878 1064.21,-199.801"/>
<polygon fill="midnightblue" stroke="midnightblue" points="1065.88,-202.888 1073.55,-195.584 1063,-196.508 1065.88,-202.888"/>
</g>
<!-- Node33 -->
<g id="node87" class="node"><title>Node33</title>
<polygon fill="white" stroke="#bfbfbf" points="998.5,-174.5 998.5,-195.5 1047.5,-195.5 1047.5,-174.5 998.5,-174.5"/>
<text text-anchor="middle" x="1023" y="-182.5" font-family="Helvetica,sans-Serif" font-size="10.00">cassert</text>
</g>
<!-- Node25&#45;&gt;Node33 -->
<g id="edge108" class="edge"><title>Node25&#45;&gt;Node33</title>
<path fill="none" stroke="midnightblue" d="M964.559,-239.267C975.262,-229.328 991.378,-214.363 1003.98,-202.664"/>
<polygon fill="midnightblue" stroke="midnightblue" points="1006.71,-204.903 1011.66,-195.534 1001.95,-199.773 1006.71,-204.903"/>
</g>
<!-- Node34 -->
<g id="node89" class="node"><title>Node34</title>
<polygon fill="white" stroke="#bfbfbf" points="863,-174.5 863,-195.5 907,-195.5 907,-174.5 863,-174.5"/>
<text text-anchor="middle" x="885" y="-182.5" font-family="Helvetica,sans-Serif" font-size="10.00">omp.h</text>
</g>
<!-- Node25&#45;&gt;Node34 -->
<g id="edge110" class="edge"><title>Node25&#45;&gt;Node34</title>
<path fill="none" stroke="midnightblue" d="M941.771,-239.267C931.374,-229.328 915.719,-214.363 903.48,-202.664"/>
<polygon fill="midnightblue" stroke="midnightblue" points="905.667,-199.913 896.02,-195.534 900.83,-204.974 905.667,-199.913"/>
</g>
<!-- Node28 -->
<g id="node73" class="node"><title>Node28</title>
<a xlink:href="../../df/de1/vdtcore__common_8h.html" target="_top" xlink:title="vdtcore_common.h">
<polygon fill="white" stroke="black" points="1129,-58.5 1129,-79.5 1229,-79.5 1229,-58.5 1129,-58.5"/>
<text text-anchor="middle" x="1179" y="-66.5" font-family="Helvetica,sans-Serif" font-size="10.00">vdtcore_common.h</text>
</a>
</g>
<!-- Node27&#45;&gt;Node28 -->
<g id="edge90" class="edge"><title>Node27&#45;&gt;Node28</title>
<path fill="none" stroke="midnightblue" d="M1186.49,-174.365C1193.91,-160.916 1204.47,-136.981 1200,-116 1198.01,-106.679 1194.04,-96.9678 1190.07,-88.809"/>
<polygon fill="midnightblue" stroke="midnightblue" points="1193.09,-87.0246 1185.38,-79.7575 1186.88,-90.2463 1193.09,-87.0246"/>
</g>
<!-- Node30 -->
<g id="node77" class="node"><title>Node30</title>
<polygon fill="white" stroke="#bfbfbf" points="1151,-116.5 1151,-137.5 1191,-137.5 1191,-116.5 1151,-116.5"/>
<text text-anchor="middle" x="1171" y="-124.5" font-family="Helvetica,sans-Serif" font-size="10.00">limits</text>
</g>
<!-- Node27&#45;&gt;Node30 -->
<g id="edge94" class="edge"><title>Node27&#45;&gt;Node30</title>
<path fill="none" stroke="midnightblue" d="M1178.35,-174.362C1177.19,-166.922 1175.62,-156.743 1174.22,-147.728"/>
<polygon fill="midnightblue" stroke="midnightblue" points="1177.63,-146.916 1172.64,-137.571 1170.72,-147.989 1177.63,-146.916"/>
</g>
<!-- Node28&#45;&gt;Node29 -->
<g id="edge92" class="edge"><title>Node28&#45;&gt;Node29</title>
<path fill="none" stroke="midnightblue" d="M1171.85,-58.3619C1166.51,-50.4313 1159.09,-39.3885 1152.75,-29.9606"/>
<polygon fill="midnightblue" stroke="midnightblue" points="1155.59,-27.9161 1147.11,-21.5707 1149.78,-31.8221 1155.59,-27.9161"/>
</g>
<!-- Node32 -->
<g id="node81" class="node"><title>Node32</title>
<a xlink:href="../../dc/dfa/sincos_8h.html" target="_top" xlink:title="sincos.h">
<polygon fill="white" stroke="black" points="1080.5,-116.5 1080.5,-137.5 1133.5,-137.5 1133.5,-116.5 1080.5,-116.5"/>
<text text-anchor="middle" x="1107" y="-124.5" font-family="Helvetica,sans-Serif" font-size="10.00">sincos.h</text>
</a>
</g>
<!-- Node31&#45;&gt;Node32 -->
<g id="edge98" class="edge"><title>Node31&#45;&gt;Node32</title>
<path fill="none" stroke="midnightblue" d="M1098.83,-174.362C1100.13,-166.84 1101.91,-156.519 1103.48,-147.431"/>
<polygon fill="midnightblue" stroke="midnightblue" points="1106.93,-148.02 1105.18,-137.571 1100.03,-146.831 1106.93,-148.02"/>
</g>
<!-- Node32&#45;&gt;Node28 -->
<g id="edge100" class="edge"><title>Node32&#45;&gt;Node28</title>
<path fill="none" stroke="midnightblue" d="M1120.21,-116.362C1130.76,-107.859 1145.76,-95.7785 1157.96,-85.9466"/>
<polygon fill="midnightblue" stroke="midnightblue" points="1160.29,-88.5696 1165.88,-79.5707 1155.89,-83.1183 1160.29,-88.5696"/>
</g>
<!-- Node32&#45;&gt;Node29 -->
<g id="edge102" class="edge"><title>Node32&#45;&gt;Node29</title>
<path fill="none" stroke="midnightblue" d="M1108.32,-116.069C1110.14,-102.316 1113.92,-78.0654 1120,-58 1122.78,-48.8292 1126.78,-39.0261 1130.47,-30.7585"/>
<polygon fill="midnightblue" stroke="midnightblue" points="1133.69,-32.1264 1134.72,-21.5813 1127.34,-29.1858 1133.69,-32.1264"/>
</g>
<!-- Node35&#45;&gt;Node3 -->
<g id="edge116" class="edge"><title>Node35&#45;&gt;Node3</title>
<path fill="none" stroke="midnightblue" d="M747.723,-246.073C697.502,-239.081 594.162,-222.651 510,-196 486.854,-188.671 483.376,-180.558 460,-174 346.626,-142.192 311.433,-156.448 195.66,-138.853"/>
<polygon fill="midnightblue" stroke="midnightblue" points="196.123,-135.383 185.701,-137.292 195.038,-142.299 196.123,-135.383"/>
</g>
<!-- Node35&#45;&gt;Node8 -->
<g id="edge118" class="edge"><title>Node35&#45;&gt;Node8</title>
<path fill="none" stroke="midnightblue" d="M747.865,-239.412C716.554,-228.411 667.397,-211.14 632.884,-199.013"/>
<polygon fill="midnightblue" stroke="midnightblue" points="633.717,-195.596 623.122,-195.584 631.397,-202.201 633.717,-195.596"/>
</g>
<!-- Node35&#45;&gt;Node26 -->
<g id="edge114" class="edge"><title>Node35&#45;&gt;Node26</title>
<path fill="none" stroke="midnightblue" d="M806.506,-239.412C836.086,-228.425 882.501,-211.185 915.142,-199.062"/>
<polygon fill="midnightblue" stroke="midnightblue" points="916.64,-202.239 924.796,-195.476 914.203,-195.677 916.64,-202.239"/>
</g>
<!-- Node35&#45;&gt;Node29 -->
<g id="edge122" class="edge"><title>Node35&#45;&gt;Node29</title>
<path fill="none" stroke="midnightblue" d="M785.272,-239.464C797.428,-222.725 823.564,-190.289 854,-174 925.931,-135.504 963.871,-179.689 1034,-138 1057.26,-124.176 1103.69,-61.9138 1126.6,-29.9969"/>
<polygon fill="midnightblue" stroke="midnightblue" points="1129.69,-31.6829 1132.64,-21.5079 1123.99,-27.6205 1129.69,-31.6829"/>
</g>
<!-- Node35&#45;&gt;Node33 -->
<g id="edge120" class="edge"><title>Node35&#45;&gt;Node33</title>
<path fill="none" stroke="midnightblue" d="M808.028,-243.075C847.424,-233.833 918.886,-216.531 988.402,-196.349"/>
<polygon fill="midnightblue" stroke="midnightblue" points="989.58,-199.651 998.194,-193.482 987.614,-192.932 989.58,-199.651"/>
</g>
<!-- Node35&#45;&gt;Node34 -->
<g id="edge128" class="edge"><title>Node35&#45;&gt;Node34</title>
<path fill="none" stroke="midnightblue" d="M795.669,-239.267C812.886,-228.807 839.267,-212.782 858.902,-200.854"/>
<polygon fill="midnightblue" stroke="midnightblue" points="860.93,-203.717 867.66,-195.534 857.296,-197.734 860.93,-203.717"/>
</g>
<!-- Node36 -->
<g id="node98" class="node"><title>Node36</title>
<polygon fill="white" stroke="#bfbfbf" points="684.5,-174.5 684.5,-195.5 731.5,-195.5 731.5,-174.5 684.5,-174.5"/>
<text text-anchor="middle" x="708" y="-182.5" font-family="Helvetica,sans-Serif" font-size="10.00">fftw3.h</text>
</g>
<!-- Node35&#45;&gt;Node36 -->
<g id="edge124" class="edge"><title>Node35&#45;&gt;Node36</title>
<path fill="none" stroke="midnightblue" d="M766.441,-239.267C755.738,-229.328 739.622,-214.363 727.023,-202.664"/>
<polygon fill="midnightblue" stroke="midnightblue" points="729.054,-199.773 719.344,-195.534 724.29,-204.903 729.054,-199.773"/>
</g>
<!-- Node37 -->
<g id="node100" class="node"><title>Node37</title>
<polygon fill="white" stroke="#bfbfbf" points="748.5,-174.5 748.5,-195.5 807.5,-195.5 807.5,-174.5 748.5,-174.5"/>
<text text-anchor="middle" x="778" y="-182.5" font-family="Helvetica,sans-Serif" font-size="10.00">functional</text>
</g>
<!-- Node35&#45;&gt;Node37 -->
<g id="edge126" class="edge"><title>Node35&#45;&gt;Node37</title>
<path fill="none" stroke="midnightblue" d="M778,-239.267C778,-230.18 778,-216.892 778,-205.74"/>
<polygon fill="midnightblue" stroke="midnightblue" points="781.5,-205.534 778,-195.534 774.5,-205.534 781.5,-205.534"/>
</g>
</g>
</svg>
        <g id="navigator" transform="translate(0 0)" fill="#404254">
                <rect fill="#f2f5e9" fill-opacity="0.5" stroke="#606060" stroke-width=".5" x="0" y="0" width="60" height="60"/>
                <use id="zoomplus" xlink:href="#zoomPlus" x="17" y="9" onmousedown="handleZoom(evt,'in')"/>
                <use id="zoomminus" xlink:href="#zoomMin" x="42" y="9" onmousedown="handleZoom(evt,'out')"/>
                <use id="reset" xlink:href="#resetDef" x="30" y="36" onmousedown="handleReset()"/>
                <g id="arrowUp" xlink:href="#dirArrow" transform="translate(30 24)" onmousedown="handlePan(0,-1)">
                  <use xlink:href="#rim" fill="#404040">
                        <set attributeName="fill" to="#808080" begin="arrowUp.mouseover" end="arrowUp.mouseout"/>
                  </use>
                  <path fill="none" stroke="white" stroke-width="1.5" d="M0,-3.0v7 M-2.5,-0.5L0,-3.0L2.5,-0.5"/>
                </g>
                <g id="arrowRight" xlink:href="#dirArrow" transform="rotate(90) translate(36 -43)" onmousedown="handlePan(1,0)">
                  <use xlink:href="#rim" fill="#404040">
                        <set attributeName="fill" to="#808080" begin="arrowRight.mouseover" end="arrowRight.mouseout"/>
                  </use>
                  <path fill="none" stroke="white" stroke-width="1.5" d="M0,-3.0v7 M-2.5,-0.5L0,-3.0L2.5,-0.5"/>
                </g>
                <g id="arrowDown" xlink:href="#dirArrow" transform="rotate(180) translate(-30 -48)" onmousedown="handlePan(0,1)">
                  <use xlink:href="#rim" fill="#404040">
                        <set attributeName="fill" to="#808080" begin="arrowDown.mouseover" end="arrowDown.mouseout"/>
                  </use>
                  <path fill="none" stroke="white" stroke-width="1.5" d="M0,-3.0v7 M-2.5,-0.5L0,-3.0L2.5,-0.5"/>
                </g>
                <g id="arrowLeft" xlink:href="#dirArrow" transform="rotate(270) translate(-36 17)" onmousedown="handlePan(-1,0)">
                  <use xlink:href="#rim" fill="#404040">
                        <set attributeName="fill" to="#808080" begin="arrowLeft.mouseover" end="arrowLeft.mouseout"/>
                  </use>
                  <path fill="none" stroke="white" stroke-width="1.5" d="M0,-3.0v7 M-2.5,-0.5L0,-3.0L2.5,-0.5"/>
                </g>
        </g>
        <svg viewBox="0 0 15 15" width="100%" height="30px" preserveAspectRatio="xMaxYMin meet">
         <g id="arrow_out" transform="scale(0.3 0.3)">
          <a xlink:href="InducedVoltage_8cpp__incl_org.svg" target="_base">
           <rect id="button" ry="5" rx="5" y="6" x="6" height="38" width="38"
                fill="#f2f5e9" fill-opacity="0.5" stroke="#606060" stroke-width="1.0"/>
           <path id="arrow"
             d="M 11.500037,31.436501 C 11.940474,20.09759 22.043105,11.32322 32.158766,21.979434 L 37.068811,17.246167 C 37.068811,17.246167 37.088388,32 37.088388,32 L 22.160133,31.978069 C 22.160133,31.978069 26.997745,27.140456 26.997745,27.140456 C 18.528582,18.264221 13.291696,25.230495 11.500037,31.436501 z"
             style="fill:#404040;"/>
          </a>
         </g>
        </svg>
</svg>
