<?xml version="1.0" encoding="UTF-8" standalone="no"?>
<!DOCTYPE svg PUBLIC "-//W3C//DTD SVG 1.1//EN"
 "http://www.w3.org/Graphics/SVG/1.1/DTD/svg11.dtd">
<!-- Generated by graphviz version 2.26.3 (20100126.1600)
 -->
<!-- Title: InducedVoltage.cpp Pages: 1 -->
<svg width="1559pt" height="580pt"
 viewBox="0.00 0.00 1559.00 580.00" xmlns="http://www.w3.org/2000/svg" xmlns:xlink="http://www.w3.org/1999/xlink">
<g id="graph1" class="graph" transform="scale(1 1) rotate(0) translate(4 576)">
<title>InducedVoltage.cpp</title>
<polygon fill="white" stroke="white" points="-4,5 -4,-576 1556,-576 1556,5 -4,5"/>
<!-- Node1 -->
<g id="node1" class="node"><title>Node1</title>
<polygon fill="#bfbfbf" stroke="black" points="718.5,-550.5 718.5,-571.5 821.5,-571.5 821.5,-550.5 718.5,-550.5"/>
<text text-anchor="middle" x="770" y="-558.5" font-family="Helvetica,sans-Serif" font-size="10.00">InducedVoltage.cpp</text>
</g>
<!-- Node2 -->
<g id="node3" class="node"><title>Node2</title>
<a xlink:href="../../d2/d6f/constants_8h.html" target="_top" xlink:title="blond/constants.h">
<polygon fill="white" stroke="black" points="266,-304.5 266,-325.5 360,-325.5 360,-304.5 266,-304.5"/>
<text text-anchor="middle" x="313" y="-312.5" font-family="Helvetica,sans-Serif" font-size="10.00">blond/constants.h</text>
</a>
</g>
<!-- Node1&#45;&gt;Node2 -->
<g id="edge2" class="edge"><title>Node1&#45;&gt;Node2</title>
<path fill="none" stroke="midnightblue" d="M718.29,-557.849C670.05,-553.232 597.142,-541.877 540,-514 446.529,-468.4 361.571,-373.922 328.091,-333.742"/>
<polygon fill="midnightblue" stroke="midnightblue" points="330.626,-331.314 321.57,-325.815 325.22,-335.761 330.626,-331.314"/>
</g>
<!-- Node6 -->
<g id="node11" class="node"><title>Node6</title>
<a xlink:href="../../d5/d87/globals_8h.html" target="_top" xlink:title="blond/globals.h">
<polygon fill="white" stroke="black" points="549,-492.5 549,-513.5 631,-513.5 631,-492.5 549,-492.5"/>
<text text-anchor="middle" x="590" y="-500.5" font-family="Helvetica,sans-Serif" font-size="10.00">blond/globals.h</text>
</a>
</g>
<!-- Node1&#45;&gt;Node6 -->
<g id="edge10" class="edge"><title>Node1&#45;&gt;Node6</title>
<path fill="none" stroke="midnightblue" d="M737.403,-550.497C707.931,-541 664.365,-526.962 632.234,-516.609"/>
<polygon fill="midnightblue" stroke="midnightblue" points="633.249,-513.259 622.658,-513.523 631.102,-519.921 633.249,-513.259"/>
</g>
<!-- Node8 -->
<g id="node16" class="node"><title>Node8</title>
<a xlink:href="../../de/df0/utilities_8h.html" target="_top" xlink:title="blond/utilities.h">
<polygon fill="white" stroke="black" points="555,-174.5 555,-195.5 637,-195.5 637,-174.5 555,-174.5"/>
<text text-anchor="middle" x="596" y="-182.5" font-family="Helvetica,sans-Serif" font-size="10.00">blond/utilities.h</text>
</a>
</g>
<!-- Node1&#45;&gt;Node8 -->
<g id="edge162" class="edge"><title>Node1&#45;&gt;Node8</title>
<path fill="none" stroke="midnightblue" d="M771.219,-550.075C774.212,-519.093 779.727,-428.604 751,-362 721.024,-292.502 653.236,-230.88 618.079,-202.142"/>
<polygon fill="midnightblue" stroke="midnightblue" points="619.874,-199.095 609.887,-195.56 615.49,-204.552 619.874,-199.095"/>
</g>
<!-- Node22 -->
<g id="node53" class="node"><title>Node22</title>
<a xlink:href="../../d2/de2/math__functions_8h.html" target="_top" xlink:title="blond/math_functions.h">
<polygon fill="white" stroke="black" points="915,-239.5 915,-260.5 1033,-260.5 1033,-239.5 915,-239.5"/>
<text text-anchor="middle" x="974" y="-247.5" font-family="Helvetica,sans-Serif" font-size="10.00">blond/math_functions.h</text>
</a>
</g>
<!-- Node1&#45;&gt;Node22 -->
<g id="edge142" class="edge"><title>Node1&#45;&gt;Node22</title>
<path fill="none" stroke="midnightblue" d="M801.087,-550.437C841.508,-534.499 907,-500.163 907,-445 907,-445 907,-445 907,-380 907,-336.13 937.52,-292.26 957.363,-268.373"/>
<polygon fill="midnightblue" stroke="midnightblue" points="960.253,-270.381 964.114,-260.514 954.943,-265.819 960.253,-270.381"/>
</g>
<!-- Node33 -->
<g id="node83" class="node"><title>Node33</title>
<a xlink:href="../../da/d30/vector__math_8h.html" target="_top" xlink:title="blond/vector_math.h">
<polygon fill="white" stroke="black" points="792.5,-239.5 792.5,-260.5 897.5,-260.5 897.5,-239.5 792.5,-239.5"/>
<text text-anchor="middle" x="845" y="-247.5" font-family="Helvetica,sans-Serif" font-size="10.00">blond/vector_math.h</text>
</a>
</g>
<!-- Node1&#45;&gt;Node33 -->
<g id="edge164" class="edge"><title>Node1&#45;&gt;Node33</title>
<path fill="none" stroke="midnightblue" d="M779.743,-550.405C796.5,-531.033 829,-487.929 829,-445 829,-445 829,-445 829,-380 829,-341.175 836.117,-296.314 840.857,-270.737"/>
<polygon fill="midnightblue" stroke="midnightblue" points="844.33,-271.211 842.775,-260.731 837.455,-269.893 844.33,-271.211"/>
</g>
<!-- Node37 -->
<g id="node100" class="node"><title>Node37</title>
<a xlink:href="../../d9/dee/InducedVoltage_8h.html" target="_top" xlink:title="blond/impedances/Induced\lVoltage.h">
<polygon fill="white" stroke="black" points="71.5,-363 71.5,-397 204.5,-397 204.5,-363 71.5,-363"/>
<text text-anchor="start" x="79.5" y="-384" font-family="Helvetica,sans-Serif" font-size="10.00">blond/impedances/Induced</text>
<text text-anchor="middle" x="138" y="-371" font-family="Helvetica,sans-Serif" font-size="10.00">Voltage.h</text>
</a>
</g>
<!-- Node1&#45;&gt;Node37 -->
<g id="edge126" class="edge"><title>Node1&#45;&gt;Node37</title>
<path fill="none" stroke="midnightblue" d="M718.136,-558.697C617.609,-553.704 399.977,-540.17 330,-514 263.382,-489.087 198.135,-435.63 163.506,-404.287"/>
<polygon fill="midnightblue" stroke="midnightblue" points="165.518,-401.383 155.783,-397.201 160.786,-406.541 165.518,-401.383"/>
</g>
<!-- Node39 -->
<g id="node111" class="node"><title>Node39</title>
<a xlink:href="../../d7/d76/fft_8h.html" target="_top" xlink:title="blond/fft.h">
<polygon fill="white" stroke="black" points="1051,-239.5 1051,-260.5 1111,-260.5 1111,-239.5 1051,-239.5"/>
<text text-anchor="middle" x="1081" y="-247.5" font-family="Helvetica,sans-Serif" font-size="10.00">blond/fft.h</text>
</a>
</g>
<!-- Node1&#45;&gt;Node39 -->
<g id="edge144" class="edge"><title>Node1&#45;&gt;Node39</title>
<path fill="none" stroke="midnightblue" d="M814.418,-550.471C887.477,-531.847 1025,-490.718 1025,-445 1025,-445 1025,-445 1025,-380 1025,-337.726 1050.29,-293.566 1066.88,-269.142"/>
<polygon fill="midnightblue" stroke="midnightblue" points="1069.86,-270.988 1072.74,-260.793 1064.13,-266.966 1069.86,-270.988"/>
</g>
<!-- Node3 -->
<g id="node5" class="node"><title>Node3</title>
<a xlink:href="../../d2/d2c/configuration_8h.html" target="_top" xlink:title="blond/configuration.h">
<polygon fill="white" stroke="black" points="84.5,-116.5 84.5,-137.5 191.5,-137.5 191.5,-116.5 84.5,-116.5"/>
<text text-anchor="middle" x="138" y="-124.5" font-family="Helvetica,sans-Serif" font-size="10.00">blond/configuration.h</text>
</a>
</g>
<!-- Node2&#45;&gt;Node3 -->
<g id="edge4" class="edge"><title>Node2&#45;&gt;Node3</title>
<path fill="none" stroke="midnightblue" d="M311.204,-304.252C306.346,-278.376 290.614,-211.954 252,-174 236.321,-158.589 214.876,-147.979 194.814,-140.798"/>
<polygon fill="midnightblue" stroke="midnightblue" points="195.702,-137.404 185.108,-137.542 193.476,-144.041 195.702,-137.404"/>
</g>
<!-- Node4 -->
<g id="node7" class="node"><title>Node4</title>
<polygon fill="white" stroke="#bfbfbf" points="111.5,-58.5 111.5,-79.5 164.5,-79.5 164.5,-58.5 111.5,-58.5"/>
<text text-anchor="middle" x="138" y="-66.5" font-family="Helvetica,sans-Serif" font-size="10.00">complex</text>
</g>
<!-- Node3&#45;&gt;Node4 -->
<g id="edge6" class="edge"><title>Node3&#45;&gt;Node4</title>
<path fill="none" stroke="midnightblue" d="M138,-116.362C138,-108.922 138,-98.7427 138,-89.7276"/>
<polygon fill="midnightblue" stroke="midnightblue" points="141.5,-89.5706 138,-79.5707 134.5,-89.5707 141.5,-89.5706"/>
</g>
<!-- Node5 -->
<g id="node9" class="node"><title>Node5</title>
<polygon fill="white" stroke="#bfbfbf" points="189,-58.5 189,-79.5 233,-79.5 233,-58.5 189,-58.5"/>
<text text-anchor="middle" x="211" y="-66.5" font-family="Helvetica,sans-Serif" font-size="10.00">vector</text>
</g>
<!-- Node3&#45;&gt;Node5 -->
<g id="edge8" class="edge"><title>Node3&#45;&gt;Node5</title>
<path fill="none" stroke="midnightblue" d="M151.389,-116.362C162.091,-107.859 177.296,-95.7785 189.671,-85.9466"/>
<polygon fill="midnightblue" stroke="midnightblue" points="192.043,-88.5318 197.696,-79.5707 187.689,-83.0511 192.043,-88.5318"/>
</g>
<!-- Node7 -->
<g id="node13" class="node"><title>Node7</title>
<a xlink:href="../../d5/d34/GeneralParameters_8h.html" target="_top" xlink:title="blond/input_parameters\l/GeneralParameters.h">
<polygon fill="white" stroke="black" points="385,-233 385,-267 503,-267 503,-233 385,-233"/>
<text text-anchor="start" x="393" y="-254" font-family="Helvetica,sans-Serif" font-size="10.00">blond/input_parameters</text>
<text text-anchor="middle" x="444" y="-241" font-family="Helvetica,sans-Serif" font-size="10.00">/GeneralParameters.h</text>
</a>
</g>
<!-- Node6&#45;&gt;Node7 -->
<g id="edge12" class="edge"><title>Node6&#45;&gt;Node7</title>
<path fill="none" stroke="midnightblue" d="M567.771,-492.41C553.509,-484.427 535.875,-472.099 526,-456 490.204,-397.64 533.083,-364.481 501,-304 494.961,-292.616 485.61,-282.277 476.216,-273.762"/>
<polygon fill="midnightblue" stroke="midnightblue" points="478.259,-270.903 468.387,-267.056 473.705,-276.22 478.259,-270.903"/>
</g>
<!-- Node20 -->
<g id="node43" class="node"><title>Node20</title>
<a xlink:href="../../d6/db7/RfParameters_8h.html" target="_top" xlink:title="blond/input_parameters\l/RfParameters.h">
<polygon fill="white" stroke="black" points="624,-363 624,-397 742,-397 742,-363 624,-363"/>
<text text-anchor="start" x="632" y="-384" font-family="Helvetica,sans-Serif" font-size="10.00">blond/input_parameters</text>
<text text-anchor="middle" x="683" y="-371" font-family="Helvetica,sans-Serif" font-size="10.00">/RfParameters.h</text>
</a>
</g>
<!-- Node6&#45;&gt;Node20 -->
<g id="edge46" class="edge"><title>Node6&#45;&gt;Node20</title>
<path fill="none" stroke="midnightblue" d="M602.515,-492.429C615.003,-484.15 633.222,-471.463 645,-456 656.091,-441.439 663.385,-422.141 669.052,-406.636"/>
<polygon fill="midnightblue" stroke="midnightblue" points="672.399,-407.675 672.564,-397.081 665.829,-405.26 672.399,-407.675"/>
</g>
<!-- Node21 -->
<g id="node45" class="node"><title>Node21</title>
<a xlink:href="../../d7/d74/Beams_8h.html" target="_top" xlink:title="blond/beams/Beams.h">
<polygon fill="white" stroke="black" points="378,-304.5 378,-325.5 492,-325.5 492,-304.5 378,-304.5"/>
<text text-anchor="middle" x="435" y="-312.5" font-family="Helvetica,sans-Serif" font-size="10.00">blond/beams/Beams.h</text>
</a>
</g>
<!-- Node6&#45;&gt;Node21 -->
<g id="edge114" class="edge"><title>Node6&#45;&gt;Node21</title>
<path fill="none" stroke="midnightblue" d="M548.525,-493.711C526.346,-486.447 500.307,-474.434 483,-456 450.468,-421.351 435.504,-365.717 432.615,-335.739"/>
<polygon fill="midnightblue" stroke="midnightblue" points="436.103,-335.408 432.088,-325.604 429.112,-335.772 436.103,-335.408"/>
</g>
<!-- Node35 -->
<g id="node93" class="node"><title>Node35</title>
<a xlink:href="../../dc/df2/Slices_8h.html" target="_top" xlink:title="blond/beams/Slices.h">
<polygon fill="white" stroke="black" points="535,-434.5 535,-455.5 645,-455.5 645,-434.5 535,-434.5"/>
<text text-anchor="middle" x="590" y="-442.5" font-family="Helvetica,sans-Serif" font-size="10.00">blond/beams/Slices.h</text>
</a>
</g>
<!-- Node6&#45;&gt;Node35 -->
<g id="edge116" class="edge"><title>Node6&#45;&gt;Node35</title>
<path fill="none" stroke="midnightblue" d="M590,-492.362C590,-484.922 590,-474.743 590,-465.728"/>
<polygon fill="midnightblue" stroke="midnightblue" points="593.5,-465.571 590,-455.571 586.5,-465.571 593.5,-465.571"/>
</g>
<!-- Node7&#45;&gt;Node3 -->
<g id="edge14" class="edge"><title>Node7&#45;&gt;Node3</title>
<path fill="none" stroke="midnightblue" d="M422.612,-232.771C400.251,-215.56 363.531,-189.496 328,-174 305.003,-163.971 245.32,-149.874 198.924,-139.739"/>
<polygon fill="midnightblue" stroke="midnightblue" points="199.461,-136.274 188.946,-137.575 197.977,-143.115 199.461,-136.274"/>
</g>
<!-- Node7&#45;&gt;Node5 -->
<g id="edge44" class="edge"><title>Node7&#45;&gt;Node5</title>
<path fill="none" stroke="midnightblue" d="M429.965,-232.709C415.068,-215.449 389.989,-189.345 363,-174 312.742,-145.425 280.728,-176.945 238,-138 224.23,-125.449 217.398,-105.012 214.062,-89.6305"/>
<polygon fill="midnightblue" stroke="midnightblue" points="217.452,-88.7113 212.201,-79.5091 210.567,-89.9771 217.452,-88.7113"/>
</g>
<!-- Node7&#45;&gt;Node8 -->
<g id="edge16" class="edge"><title>Node7&#45;&gt;Node8</title>
<path fill="none" stroke="midnightblue" d="M483.936,-232.922C508.103,-222.588 538.603,-209.545 561.68,-199.676"/>
<polygon fill="midnightblue" stroke="midnightblue" points="563.257,-202.808 571.076,-195.658 560.505,-196.372 563.257,-202.808"/>
</g>
<!-- Node8&#45;&gt;Node3 -->
<g id="edge40" class="edge"><title>Node8&#45;&gt;Node3</title>
<path fill="none" stroke="midnightblue" d="M554.952,-179.802C474.875,-169.661 297.315,-147.175 201.783,-135.077"/>
<polygon fill="midnightblue" stroke="midnightblue" points="202.036,-131.582 191.676,-133.797 201.157,-138.526 202.036,-131.582"/>
</g>
<!-- Node8&#45;&gt;Node5 -->
<g id="edge36" class="edge"><title>Node8&#45;&gt;Node5</title>
<path fill="none" stroke="midnightblue" d="M637.113,-181.366C714.108,-174.142 873.774,-157.026 890,-138 896.345,-130.56 896.671,-123.149 890,-116 867.677,-92.078 375.564,-74.3637 243.415,-70.0262"/>
<polygon fill="midnightblue" stroke="midnightblue" points="243.251,-66.519 233.142,-69.6922 243.023,-73.5153 243.251,-66.519"/>
</g>
<!-- Node9 -->
<g id="node18" class="node"><title>Node9</title>
<polygon fill="white" stroke="#bfbfbf" points="247,-116.5 247,-137.5 293,-137.5 293,-116.5 247,-116.5"/>
<text text-anchor="middle" x="270" y="-124.5" font-family="Helvetica,sans-Serif" font-size="10.00">chrono</text>
</g>
<!-- Node8&#45;&gt;Node9 -->
<g id="edge18" class="edge"><title>Node8&#45;&gt;Node9</title>
<path fill="none" stroke="midnightblue" d="M554.646,-180.67C499.231,-174.37 397.785,-161.095 303.017,-137.943"/>
<polygon fill="midnightblue" stroke="midnightblue" points="303.828,-134.538 293.279,-135.522 302.139,-141.331 303.828,-134.538"/>
</g>
<!-- Node10 -->
<g id="node20" class="node"><title>Node10</title>
<polygon fill="white" stroke="#bfbfbf" points="310.5,-116.5 310.5,-137.5 353.5,-137.5 353.5,-116.5 310.5,-116.5"/>
<text text-anchor="middle" x="332" y="-124.5" font-family="Helvetica,sans-Serif" font-size="10.00">cstdio</text>
</g>
<!-- Node8&#45;&gt;Node10 -->
<g id="edge20" class="edge"><title>Node8&#45;&gt;Node10</title>
<path fill="none" stroke="midnightblue" d="M554.967,-178.717C509.911,-171.388 435.356,-157.994 363.202,-138.057"/>
<polygon fill="midnightblue" stroke="midnightblue" points="364.074,-134.666 353.5,-135.331 362.181,-141.405 364.074,-134.666"/>
</g>
<!-- Node11 -->
<g id="node22" class="node"><title>Node11</title>
<polygon fill="white" stroke="#bfbfbf" points="370.5,-116.5 370.5,-137.5 415.5,-137.5 415.5,-116.5 370.5,-116.5"/>
<text text-anchor="middle" x="393" y="-124.5" font-family="Helvetica,sans-Serif" font-size="10.00">cstdlib</text>
</g>
<!-- Node8&#45;&gt;Node11 -->
<g id="edge22" class="edge"><title>Node8&#45;&gt;Node11</title>
<path fill="none" stroke="midnightblue" d="M554.742,-174.645C521.862,-166.187 474.475,-153.541 425.174,-138.237"/>
<polygon fill="midnightblue" stroke="midnightblue" points="426.211,-134.894 415.622,-135.245 424.119,-141.574 426.211,-134.894"/>
</g>
<!-- Node12 -->
<g id="node24" class="node"><title>Node12</title>
<polygon fill="white" stroke="#bfbfbf" points="433,-116.5 433,-137.5 483,-137.5 483,-116.5 433,-116.5"/>
<text text-anchor="middle" x="458" y="-124.5" font-family="Helvetica,sans-Serif" font-size="10.00">fstream</text>
</g>
<!-- Node8&#45;&gt;Node12 -->
<g id="edge24" class="edge"><title>Node8&#45;&gt;Node12</title>
<path fill="none" stroke="midnightblue" d="M571.009,-174.497C549.067,-165.275 516.934,-151.769 492.536,-141.515"/>
<polygon fill="midnightblue" stroke="midnightblue" points="493.846,-138.269 483.271,-137.621 491.134,-144.722 493.846,-138.269"/>
</g>
<!-- Node13 -->
<g id="node26" class="node"><title>Node13</title>
<polygon fill="white" stroke="#bfbfbf" points="1001,-116.5 1001,-137.5 1055,-137.5 1055,-116.5 1001,-116.5"/>
<text text-anchor="middle" x="1028" y="-124.5" font-family="Helvetica,sans-Serif" font-size="10.00">iostream</text>
</g>
<!-- Node8&#45;&gt;Node13 -->
<g id="edge26" class="edge"><title>Node8&#45;&gt;Node13</title>
<path fill="none" stroke="midnightblue" d="M637.111,-181.061C720.64,-172.909 908.576,-153.783 990.677,-137.934"/>
<polygon fill="midnightblue" stroke="midnightblue" points="991.509,-141.336 1000.61,-135.919 990.118,-134.476 991.509,-141.336"/>
</g>
<!-- Node14 -->
<g id="node28" class="node"><title>Node14</title>
<polygon fill="white" stroke="#bfbfbf" points="936.5,-116.5 936.5,-137.5 983.5,-137.5 983.5,-116.5 936.5,-116.5"/>
<text text-anchor="middle" x="960" y="-124.5" font-family="Helvetica,sans-Serif" font-size="10.00">iterator</text>
</g>
<!-- Node8&#45;&gt;Node14 -->
<g id="edge28" class="edge"><title>Node8&#45;&gt;Node14</title>
<path fill="none" stroke="midnightblue" d="M637.01,-179.868C712.171,-170.334 869.218,-149.793 923,-138 924.08,-137.763 925.175,-137.511 926.277,-137.247"/>
<polygon fill="midnightblue" stroke="midnightblue" points="927.472,-140.552 936.249,-134.618 925.687,-133.783 927.472,-140.552"/>
</g>
<!-- Node15 -->
<g id="node30" class="node"><title>Node15</title>
<polygon fill="white" stroke="#bfbfbf" points="501,-116.5 501,-137.5 553,-137.5 553,-116.5 501,-116.5"/>
<text text-anchor="middle" x="527" y="-124.5" font-family="Helvetica,sans-Serif" font-size="10.00">memory</text>
</g>
<!-- Node8&#45;&gt;Node15 -->
<g id="edge30" class="edge"><title>Node8&#45;&gt;Node15</title>
<path fill="none" stroke="midnightblue" d="M583.344,-174.362C573.326,-165.941 559.133,-154.011 547.499,-144.231"/>
<polygon fill="midnightblue" stroke="midnightblue" points="549.482,-141.326 539.575,-137.571 544.978,-146.684 549.482,-141.326"/>
</g>
<!-- Node16 -->
<g id="node32" class="node"><title>Node16</title>
<polygon fill="white" stroke="#bfbfbf" points="571,-116.5 571,-137.5 623,-137.5 623,-116.5 571,-116.5"/>
<text text-anchor="middle" x="597" y="-124.5" font-family="Helvetica,sans-Serif" font-size="10.00">sstream</text>
</g>
<!-- Node8&#45;&gt;Node16 -->
<g id="edge32" class="edge"><title>Node8&#45;&gt;Node16</title>
<path fill="none" stroke="midnightblue" d="M596.183,-174.362C596.312,-166.922 596.487,-156.743 596.643,-147.728"/>
<polygon fill="midnightblue" stroke="midnightblue" points="600.145,-147.63 596.818,-137.571 593.146,-147.509 600.145,-147.63"/>
</g>
<!-- Node17 -->
<g id="node34" class="node"><title>Node17</title>
<polygon fill="white" stroke="#bfbfbf" points="640.5,-116.5 640.5,-137.5 681.5,-137.5 681.5,-116.5 640.5,-116.5"/>
<text text-anchor="middle" x="661" y="-124.5" font-family="Helvetica,sans-Serif" font-size="10.00">string</text>
</g>
<!-- Node8&#45;&gt;Node17 -->
<g id="edge34" class="edge"><title>Node8&#45;&gt;Node17</title>
<path fill="none" stroke="midnightblue" d="M607.922,-174.362C617.359,-165.941 630.73,-154.011 641.69,-144.231"/>
<polygon fill="midnightblue" stroke="midnightblue" points="644.022,-146.84 649.154,-137.571 639.362,-141.617 644.022,-146.84"/>
</g>
<!-- Node18 -->
<g id="node37" class="node"><title>Node18</title>
<polygon fill="white" stroke="#bfbfbf" points="699,-116.5 699,-137.5 759,-137.5 759,-116.5 699,-116.5"/>
<text text-anchor="middle" x="729" y="-124.5" font-family="Helvetica,sans-Serif" font-size="10.00">sys/stat.h</text>
</g>
<!-- Node8&#45;&gt;Node18 -->
<g id="edge38" class="edge"><title>Node8&#45;&gt;Node18</title>
<path fill="none" stroke="midnightblue" d="M620.085,-174.497C641.139,-165.315 671.927,-151.889 695.402,-141.652"/>
<polygon fill="midnightblue" stroke="midnightblue" points="696.877,-144.827 704.644,-137.621 694.079,-138.41 696.877,-144.827"/>
</g>
<!-- Node19 -->
<g id="node40" class="node"><title>Node19</title>
<a xlink:href="../../da/d69/optionparser_8h.html" target="_top" xlink:title="This is the only file required to use The Lean Mean C++ Option Parser. Just #include it and you&#39;re se...">
<polygon fill="white" stroke="black" points="777,-116.5 777,-137.5 881,-137.5 881,-116.5 777,-116.5"/>
<text text-anchor="middle" x="829" y="-124.5" font-family="Helvetica,sans-Serif" font-size="10.00">blond/optionparser.h</text>
</a>
</g>
<!-- Node8&#45;&gt;Node19 -->
<g id="edge42" class="edge"><title>Node8&#45;&gt;Node19</title>
<path fill="none" stroke="midnightblue" d="M637.119,-174.764C676.065,-165.07 734.706,-150.472 776.905,-139.968"/>
<polygon fill="midnightblue" stroke="midnightblue" points="777.861,-143.337 786.719,-137.525 776.17,-136.544 777.861,-143.337"/>
</g>
<!-- Node20&#45;&gt;Node2 -->
<g id="edge96" class="edge"><title>Node20&#45;&gt;Node2</title>
<path fill="none" stroke="midnightblue" d="M623.929,-369.919C546.543,-356.701 416.076,-334.377 369.883,-326.109"/>
<polygon fill="midnightblue" stroke="midnightblue" points="370.502,-322.664 360.038,-324.323 369.253,-329.552 370.502,-322.664"/>
</g>
<!-- Node20&#45;&gt;Node6 -->
<g id="edge98" class="edge"><title>Node20&#45;&gt;Node6</title>
<path fill="none" stroke="midnightblue" d="M686.333,-397.081C684.398,-413.46 676.521,-438.25 663,-456 653.43,-468.563 639.609,-479.295 626.451,-487.318"/>
<polygon fill="midnightblue" stroke="midnightblue" points="624.453,-484.428 617.508,-492.429 627.927,-490.506 624.453,-484.428"/>
</g>
<!-- Node20&#45;&gt;Node7 -->
<g id="edge60" class="edge"><title>Node20&#45;&gt;Node7</title>
<path fill="none" stroke="midnightblue" d="M651.263,-362.737C608.289,-339.362 531.567,-297.63 484.489,-272.024"/>
<polygon fill="midnightblue" stroke="midnightblue" points="485.945,-268.831 475.488,-267.127 482.6,-274.98 485.945,-268.831"/>
</g>
<!-- Node20&#45;&gt;Node21 -->
<g id="edge48" class="edge"><title>Node20&#45;&gt;Node21</title>
<path fill="none" stroke="midnightblue" d="M623.825,-365.976C579.686,-354.794 520.388,-339.243 480.05,-328.266"/>
<polygon fill="midnightblue" stroke="midnightblue" points="480.792,-324.84 470.223,-325.579 478.946,-331.593 480.792,-324.84"/>
</g>
<!-- Node20&#45;&gt;Node22 -->
<g id="edge62" class="edge"><title>Node20&#45;&gt;Node22</title>
<path fill="none" stroke="midnightblue" d="M721.342,-362.871C778.997,-337.115 887.023,-288.856 941.223,-264.643"/>
<polygon fill="midnightblue" stroke="midnightblue" points="942.678,-267.826 950.381,-260.552 939.823,-261.435 942.678,-267.826"/>
</g>
<!-- Node20&#45;&gt;Node33 -->
<g id="edge100" class="edge"><title>Node20&#45;&gt;Node33</title>
<path fill="none" stroke="midnightblue" d="M685.507,-362.765C688.816,-345.797 696.192,-320.146 712,-304 731.162,-284.428 758.386,-271.708 783.217,-263.565"/>
<polygon fill="midnightblue" stroke="midnightblue" points="784.433,-266.852 792.955,-260.558 782.367,-260.164 784.433,-266.852"/>
</g>
<!-- Node21&#45;&gt;Node3 -->
<g id="edge52" class="edge"><title>Node21&#45;&gt;Node3</title>
<path fill="none" stroke="midnightblue" d="M421.723,-304.442C382.759,-273.506 270.32,-184.581 252,-174 229.07,-160.756 201.683,-149.338 179.5,-141.073"/>
<polygon fill="midnightblue" stroke="midnightblue" points="180.619,-137.755 170.025,-137.615 178.22,-144.331 180.619,-137.755"/>
</g>
<!-- Node21&#45;&gt;Node6 -->
<g id="edge50" class="edge"><title>Node21&#45;&gt;Node6</title>
<path fill="none" stroke="midnightblue" d="M441.113,-325.604C449.967,-351.159 464.312,-416.924 501,-456 514.731,-470.625 533.959,-481.208 551.105,-488.585"/>
<polygon fill="midnightblue" stroke="midnightblue" points="549.787,-491.827 560.368,-492.358 552.428,-485.344 549.787,-491.827"/>
</g>
<!-- Node21&#45;&gt;Node7 -->
<g id="edge56" class="edge"><title>Node21&#45;&gt;Node7</title>
<path fill="none" stroke="midnightblue" d="M436.486,-304.267C437.513,-296.852 438.927,-286.64 440.251,-277.074"/>
<polygon fill="midnightblue" stroke="midnightblue" points="443.726,-277.495 441.631,-267.11 436.792,-276.535 443.726,-277.495"/>
</g>
<!-- Node21&#45;&gt;Node8 -->
<g id="edge54" class="edge"><title>Node21&#45;&gt;Node8</title>
<path fill="none" stroke="midnightblue" d="M455.128,-304.408C471.168,-295.575 493.865,-282.183 512,-268 537.397,-248.137 563.291,-221.356 579.487,-203.652"/>
<polygon fill="midnightblue" stroke="midnightblue" points="582.509,-205.527 586.614,-195.76 577.314,-200.836 582.509,-205.527"/>
</g>
<!-- Node21&#45;&gt;Node20 -->
<g id="edge58" class="edge"><title>Node21&#45;&gt;Node20</title>
<path fill="none" stroke="midnightblue" d="M480.434,-325.562C517.864,-334.935 571.423,-348.874 614.102,-360.301"/>
<polygon fill="midnightblue" stroke="midnightblue" points="613.299,-363.709 623.864,-362.922 615.114,-356.949 613.299,-363.709"/>
</g>
<!-- Node22&#45;&gt;Node3 -->
<g id="edge66" class="edge"><title>Node22&#45;&gt;Node3</title>
<path fill="none" stroke="midnightblue" d="M938.595,-239.488C928.172,-236.703 916.695,-233.937 906,-232 747.777,-203.336 705.365,-217.419 546,-196 423.61,-179.551 281.625,-154.081 201.543,-139.122"/>
<polygon fill="midnightblue" stroke="midnightblue" points="202.087,-135.663 191.614,-137.262 200.798,-142.543 202.087,-135.663"/>
</g>
<!-- Node22&#45;&gt;Node8 -->
<g id="edge84" class="edge"><title>Node22&#45;&gt;Node8</title>
<path fill="none" stroke="midnightblue" d="M937.116,-239.459C927.075,-236.802 916.164,-234.109 906,-232 815.812,-213.284 709.412,-198.776 647.634,-191.09"/>
<polygon fill="midnightblue" stroke="midnightblue" points="647.725,-187.575 637.372,-189.825 646.868,-194.522 647.725,-187.575"/>
</g>
<!-- Node23 -->
<g id="node55" class="node"><title>Node23</title>
<polygon fill="white" stroke="#bfbfbf" points="981,-174.5 981,-195.5 1037,-195.5 1037,-174.5 981,-174.5"/>
<text text-anchor="middle" x="1009" y="-182.5" font-family="Helvetica,sans-Serif" font-size="10.00">algorithm</text>
</g>
<!-- Node22&#45;&gt;Node23 -->
<g id="edge64" class="edge"><title>Node22&#45;&gt;Node23</title>
<path fill="none" stroke="midnightblue" d="M979.78,-239.267C984.876,-229.801 992.428,-215.777 998.577,-204.357"/>
<polygon fill="midnightblue" stroke="midnightblue" points="1001.67,-205.998 1003.33,-195.534 995.505,-202.679 1001.67,-205.998"/>
</g>
<!-- Node24 -->
<g id="node58" class="node"><title>Node24</title>
<a xlink:href="../../d8/dcd/exp_8h.html" target="_top" xlink:title="blond/exp.h">
<polygon fill="white" stroke="black" points="1120.5,-174.5 1120.5,-195.5 1187.5,-195.5 1187.5,-174.5 1120.5,-174.5"/>
<text text-anchor="middle" x="1154" y="-182.5" font-family="Helvetica,sans-Serif" font-size="10.00">blond/exp.h</text>
</a>
</g>
<!-- Node22&#45;&gt;Node24 -->
<g id="edge68" class="edge"><title>Node22&#45;&gt;Node24</title>
<path fill="none" stroke="midnightblue" d="M1003.32,-239.412C1033.79,-228.411 1081.61,-211.14 1115.19,-199.013"/>
<polygon fill="midnightblue" stroke="midnightblue" points="1116.48,-202.272 1124.69,-195.584 1114.1,-195.688 1116.48,-202.272"/>
</g>
<!-- Node26 -->
<g id="node62" class="node"><title>Node26</title>
<polygon fill="white" stroke="#bfbfbf" points="1256,-0.5 1256,-21.5 1300,-21.5 1300,-0.5 1256,-0.5"/>
<text text-anchor="middle" x="1278" y="-8.5" font-family="Helvetica,sans-Serif" font-size="10.00">cmath</text>
</g>
<!-- Node22&#45;&gt;Node26 -->
<g id="edge86" class="edge"><title>Node22&#45;&gt;Node26</title>
<path fill="none" stroke="midnightblue" d="M1010.88,-239.465C1020.93,-236.808 1031.84,-234.114 1042,-232 1093.94,-221.197 1243.43,-236.242 1278,-196 1318,-149.434 1298.27,-69.2769 1285.7,-31.6451"/>
<polygon fill="midnightblue" stroke="midnightblue" points="1288.87,-30.0948 1282.26,-21.8172 1282.26,-32.4121 1288.87,-30.0948"/>
</g>
<!-- Node27 -->
<g id="node64" class="node"><title>Node27</title>
<polygon fill="white" stroke="#bfbfbf" points="1112,-116.5 1112,-137.5 1152,-137.5 1152,-116.5 1112,-116.5"/>
<text text-anchor="middle" x="1132" y="-124.5" font-family="Helvetica,sans-Serif" font-size="10.00">limits</text>
</g>
<!-- Node22&#45;&gt;Node27 -->
<g id="edge90" class="edge"><title>Node22&#45;&gt;Node27</title>
<path fill="none" stroke="midnightblue" d="M948.879,-239.489C918.76,-225.423 874.827,-199.302 896,-174 925.121,-139.2 1052.93,-148.825 1097,-138 1098.66,-137.593 1100.35,-137.15 1102.06,-136.684"/>
<polygon fill="midnightblue" stroke="midnightblue" points="1103.15,-140.01 1111.77,-133.84 1101.18,-133.293 1103.15,-140.01"/>
</g>
<!-- Node28 -->
<g id="node66" class="node"><title>Node28</title>
<a xlink:href="../../d1/d3d/sin_8h.html" target="_top" xlink:title="blond/sin.h">
<polygon fill="white" stroke="black" points="1205,-174.5 1205,-195.5 1269,-195.5 1269,-174.5 1205,-174.5"/>
<text text-anchor="middle" x="1237" y="-182.5" font-family="Helvetica,sans-Serif" font-size="10.00">blond/sin.h</text>
</a>
</g>
<!-- Node22&#45;&gt;Node28 -->
<g id="edge76" class="edge"><title>Node22&#45;&gt;Node28</title>
<path fill="none" stroke="midnightblue" d="M1013.14,-239.43C1022.58,-236.94 1032.64,-234.333 1042,-232 1107.14,-215.768 1126.14,-213.31 1194.77,-196.252"/>
<polygon fill="midnightblue" stroke="midnightblue" points="1195.94,-199.567 1204.8,-193.746 1194.25,-192.776 1195.94,-199.567"/>
</g>
<!-- Node30 -->
<g id="node74" class="node"><title>Node30</title>
<polygon fill="white" stroke="#bfbfbf" points="800.5,-174.5 800.5,-195.5 849.5,-195.5 849.5,-174.5 800.5,-174.5"/>
<text text-anchor="middle" x="825" y="-182.5" font-family="Helvetica,sans-Serif" font-size="10.00">random</text>
</g>
<!-- Node22&#45;&gt;Node30 -->
<g id="edge88" class="edge"><title>Node22&#45;&gt;Node30</title>
<path fill="none" stroke="midnightblue" d="M949.729,-239.412C924.944,-228.6 886.275,-211.731 858.565,-199.642"/>
<polygon fill="midnightblue" stroke="midnightblue" points="859.826,-196.374 849.261,-195.584 857.027,-202.79 859.826,-196.374"/>
</g>
<!-- Node31 -->
<g id="node77" class="node"><title>Node31</title>
<polygon fill="white" stroke="#bfbfbf" points="1054.5,-174.5 1054.5,-195.5 1103.5,-195.5 1103.5,-174.5 1054.5,-174.5"/>
<text text-anchor="middle" x="1079" y="-182.5" font-family="Helvetica,sans-Serif" font-size="10.00">cassert</text>
</g>
<!-- Node22&#45;&gt;Node31 -->
<g id="edge92" class="edge"><title>Node22&#45;&gt;Node31</title>
<path fill="none" stroke="midnightblue" d="M991.339,-239.267C1008.23,-228.807 1034.12,-212.782 1053.39,-200.854"/>
<polygon fill="midnightblue" stroke="midnightblue" points="1055.32,-203.773 1061.98,-195.534 1051.64,-197.821 1055.32,-203.773"/>
</g>
<!-- Node32 -->
<g id="node79" class="node"><title>Node32</title>
<a xlink:href="../../d1/db0/openmp_8h.html" target="_top" xlink:title="blond/openmp.h">
<polygon fill="white" stroke="black" points="1325,-174.5 1325,-195.5 1411,-195.5 1411,-174.5 1325,-174.5"/>
<text text-anchor="middle" x="1368" y="-182.5" font-family="Helvetica,sans-Serif" font-size="10.00">blond/openmp.h</text>
</a>
</g>
<!-- Node22&#45;&gt;Node32 -->
<g id="edge94" class="edge"><title>Node22&#45;&gt;Node32</title>
<path fill="none" stroke="midnightblue" d="M1010.51,-239.434C1020.64,-236.747 1031.7,-234.044 1042,-232 1160.31,-208.521 1191.95,-215.436 1311,-196 1312.26,-195.794 1313.53,-195.582 1314.82,-195.365"/>
<polygon fill="midnightblue" stroke="midnightblue" points="1315.54,-198.791 1324.79,-193.61 1314.33,-191.897 1315.54,-198.791"/>
</g>
<!-- Node25 -->
<g id="node60" class="node"><title>Node25</title>
<a xlink:href="../../df/de1/vdtcore__common_8h.html" target="_top" xlink:title="vdtcore_common.h">
<polygon fill="white" stroke="black" points="1131,-58.5 1131,-79.5 1231,-79.5 1231,-58.5 1131,-58.5"/>
<text text-anchor="middle" x="1181" y="-66.5" font-family="Helvetica,sans-Serif" font-size="10.00">vdtcore_common.h</text>
</a>
</g>
<!-- Node24&#45;&gt;Node25 -->
<g id="edge70" class="edge"><title>Node24&#45;&gt;Node25</title>
<path fill="none" stroke="midnightblue" d="M1156.49,-174.295C1160.97,-155.045 1170.46,-114.289 1176.23,-89.5091"/>
<polygon fill="midnightblue" stroke="midnightblue" points="1179.66,-90.2123 1178.51,-79.6792 1172.84,-88.6254 1179.66,-90.2123"/>
</g>
<!-- Node24&#45;&gt;Node27 -->
<g id="edge74" class="edge"><title>Node24&#45;&gt;Node27</title>
<path fill="none" stroke="midnightblue" d="M1149.96,-174.362C1147.08,-166.758 1143.11,-156.294 1139.64,-147.135"/>
<polygon fill="midnightblue" stroke="midnightblue" points="1142.83,-145.679 1136.01,-137.571 1136.28,-148.162 1142.83,-145.679"/>
</g>
<!-- Node25&#45;&gt;Node26 -->
<g id="edge72" class="edge"><title>Node25&#45;&gt;Node26</title>
<path fill="none" stroke="midnightblue" d="M1198.79,-58.3619C1213.56,-49.532 1234.78,-36.844 1251.54,-26.8224"/>
<polygon fill="midnightblue" stroke="midnightblue" points="1253.53,-29.7066 1260.32,-21.5707 1249.94,-23.6987 1253.53,-29.7066"/>
</g>
<!-- Node29 -->
<g id="node68" class="node"><title>Node29</title>
<a xlink:href="../../dc/dfa/sincos_8h.html" target="_top" xlink:title="sincos.h">
<polygon fill="white" stroke="black" points="1210.5,-116.5 1210.5,-137.5 1263.5,-137.5 1263.5,-116.5 1210.5,-116.5"/>
<text text-anchor="middle" x="1237" y="-124.5" font-family="Helvetica,sans-Serif" font-size="10.00">sincos.h</text>
</a>
</g>
<!-- Node28&#45;&gt;Node29 -->
<g id="edge78" class="edge"><title>Node28&#45;&gt;Node29</title>
<path fill="none" stroke="midnightblue" d="M1237,-174.362C1237,-166.922 1237,-156.743 1237,-147.728"/>
<polygon fill="midnightblue" stroke="midnightblue" points="1240.5,-147.571 1237,-137.571 1233.5,-147.571 1240.5,-147.571"/>
</g>
<!-- Node29&#45;&gt;Node25 -->
<g id="edge80" class="edge"><title>Node29&#45;&gt;Node25</title>
<path fill="none" stroke="midnightblue" d="M1226.73,-116.362C1218.76,-108.104 1207.53,-96.4725 1198.19,-86.8029"/>
<polygon fill="midnightblue" stroke="midnightblue" points="1200.67,-84.3336 1191.21,-79.5707 1195.63,-89.1958 1200.67,-84.3336"/>
</g>
<!-- Node29&#45;&gt;Node26 -->
<g id="edge82" class="edge"><title>Node29&#45;&gt;Node26</title>
<path fill="none" stroke="midnightblue" d="M1240.78,-116.295C1247.62,-96.9588 1262.12,-55.9229 1270.87,-31.1767"/>
<polygon fill="midnightblue" stroke="midnightblue" points="1274.19,-32.274 1274.23,-21.6792 1267.59,-29.9412 1274.19,-32.274"/>
</g>
<!-- Node33&#45;&gt;Node5 -->
<g id="edge108" class="edge"><title>Node33&#45;&gt;Node5</title>
<path fill="none" stroke="midnightblue" d="M828.349,-239.386C806.496,-224.184 773.022,-195.655 792,-174 872.371,-82.2906 983.629,-229.709 1064,-138 1070.44,-130.646 1070.72,-123.102 1064,-116 1035.28,-85.6575 396.196,-72.3157 243.536,-69.5553"/>
<polygon fill="midnightblue" stroke="midnightblue" points="243.461,-66.0535 233.4,-69.3747 243.336,-73.0524 243.461,-66.0535"/>
</g>
<!-- Node33&#45;&gt;Node13 -->
<g id="edge110" class="edge"><title>Node33&#45;&gt;Node13</title>
<path fill="none" stroke="midnightblue" d="M816.666,-239.466C783.726,-225.677 736.564,-200.169 759,-174 791.303,-136.323 925.653,-148.208 990.781,-137.687"/>
<polygon fill="midnightblue" stroke="midnightblue" points="991.834,-141.048 1000.99,-135.709 990.502,-134.176 991.834,-141.048"/>
</g>
<!-- Node33&#45;&gt;Node14 -->
<g id="edge112" class="edge"><title>Node33&#45;&gt;Node14</title>
<path fill="none" stroke="midnightblue" d="M809.8,-239.442C776.872,-228.771 731.263,-211.663 721,-196 715.641,-187.821 714.722,-181.496 721,-174 750.277,-139.044 878.632,-148.513 923,-138 924.076,-137.745 925.167,-137.477 926.266,-137.199"/>
<polygon fill="midnightblue" stroke="midnightblue" points="927.487,-140.495 936.222,-134.498 925.654,-133.739 927.487,-140.495"/>
</g>
<!-- Node33&#45;&gt;Node23 -->
<g id="edge102" class="edge"><title>Node33&#45;&gt;Node23</title>
<path fill="none" stroke="midnightblue" d="M871.714,-239.412C899.233,-228.505 942.301,-211.436 972.853,-199.327"/>
<polygon fill="midnightblue" stroke="midnightblue" points="974.29,-202.522 982.297,-195.584 971.711,-196.014 974.29,-202.522"/>
</g>
<!-- Node33&#45;&gt;Node31 -->
<g id="edge106" class="edge"><title>Node33&#45;&gt;Node31</title>
<path fill="none" stroke="midnightblue" d="M880.099,-239.413C888.564,-236.924 897.591,-234.321 906,-232 964.907,-215.741 982.662,-214.28 1044.34,-196.369"/>
<polygon fill="midnightblue" stroke="midnightblue" points="1045.58,-199.651 1054.19,-193.476 1043.61,-192.934 1045.58,-199.651"/>
</g>
<!-- Node34 -->
<g id="node86" class="node"><title>Node34</title>
<polygon fill="white" stroke="#bfbfbf" points="904.5,-174.5 904.5,-195.5 963.5,-195.5 963.5,-174.5 904.5,-174.5"/>
<text text-anchor="middle" x="934" y="-182.5" font-family="Helvetica,sans-Serif" font-size="10.00">functional</text>
</g>
<!-- Node33&#45;&gt;Node34 -->
<g id="edge104" class="edge"><title>Node33&#45;&gt;Node34</title>
<path fill="none" stroke="midnightblue" d="M859.697,-239.267C873.694,-229.044 894.971,-213.504 911.175,-201.67"/>
<polygon fill="midnightblue" stroke="midnightblue" points="913.566,-204.258 919.577,-195.534 909.437,-198.605 913.566,-204.258"/>
</g>
<!-- Node35&#45;&gt;Node3 -->
<g id="edge118" class="edge"><title>Node35&#45;&gt;Node3</title>
<path fill="none" stroke="midnightblue" d="M534.985,-439.233C462.387,-428.85 334.731,-400.611 257,-326 224.49,-294.795 241.415,-271.092 219,-232 200.178,-199.174 172.137,-165.218 154.473,-145.114"/>
<polygon fill="midnightblue" stroke="midnightblue" points="157.077,-142.775 147.814,-137.632 151.848,-147.429 157.077,-142.775"/>
</g>
<!-- Node35&#45;&gt;Node8 -->
<g id="edge120" class="edge"><title>Node35&#45;&gt;Node8</title>
<path fill="none" stroke="midnightblue" d="M590.243,-434.486C591.143,-395.453 594.306,-258.414 595.52,-205.793"/>
<polygon fill="midnightblue" stroke="midnightblue" points="599.023,-205.723 595.754,-195.645 592.024,-205.562 599.023,-205.723"/>
</g>
<!-- Node35&#45;&gt;Node20 -->
<g id="edge122" class="edge"><title>Node35&#45;&gt;Node20</title>
<path fill="none" stroke="midnightblue" d="M605.357,-434.267C617.545,-425.748 635.017,-413.537 650.301,-402.854"/>
<polygon fill="midnightblue" stroke="midnightblue" points="652.328,-405.707 658.52,-397.11 648.318,-399.97 652.328,-405.707"/>
</g>
<!-- Node36 -->
<g id="node98" class="node"><title>Node36</title>
<polygon fill="white" stroke="#bfbfbf" points="533.5,-369.5 533.5,-390.5 568.5,-390.5 568.5,-369.5 533.5,-369.5"/>
<text text-anchor="middle" x="551" y="-377.5" font-family="Helvetica,sans-Serif" font-size="10.00">map</text>
</g>
<!-- Node35&#45;&gt;Node36 -->
<g id="edge124" class="edge"><title>Node35&#45;&gt;Node36</title>
<path fill="none" stroke="midnightblue" d="M583.56,-434.267C577.881,-424.801 569.466,-410.777 562.614,-399.357"/>
<polygon fill="midnightblue" stroke="midnightblue" points="565.466,-397.308 557.32,-390.534 559.464,-400.909 565.466,-397.308"/>
</g>
<!-- Node37&#45;&gt;Node3 -->
<g id="edge128" class="edge"><title>Node37&#45;&gt;Node3</title>
<path fill="none" stroke="midnightblue" d="M120.268,-362.992C100.42,-342.603 69.416,-306.355 57,-268 41.3437,-219.635 87.7891,-169.547 116.718,-144.09"/>
<polygon fill="midnightblue" stroke="midnightblue" points="119.009,-146.736 124.347,-137.585 114.466,-141.41 119.009,-146.736"/>
</g>
<!-- Node37&#45;&gt;Node5 -->
<g id="edge140" class="edge"><title>Node37&#45;&gt;Node5</title>
<path fill="none" stroke="midnightblue" d="M98.0847,-362.986C57.328,-342.615 0,-304.309 0,-250 0,-250 0,-250 0,-185 0,-143.173 28.7003,-138.438 64,-116 73.9016,-109.706 139.07,-90.0225 179.242,-78.2181"/>
<polygon fill="midnightblue" stroke="midnightblue" points="180.254,-81.5688 188.868,-75.3997 178.287,-74.8508 180.254,-81.5688"/>
</g>
<!-- Node37&#45;&gt;Node21 -->
<g id="edge130" class="edge"><title>Node37&#45;&gt;Node21</title>
<path fill="none" stroke="midnightblue" d="M204.653,-365.413C256.334,-354.102 327.248,-338.582 376.691,-327.761"/>
<polygon fill="midnightblue" stroke="midnightblue" points="377.571,-331.152 386.591,-325.595 376.074,-324.314 377.571,-331.152"/>
</g>
<!-- Node38 -->
<g id="node104" class="node"><title>Node38</title>
<a xlink:href="../../d6/d70/Intensity_8h.html" target="_top" xlink:title="blond/impedances/Intensity.h">
<polygon fill="white" stroke="black" points="66,-239.5 66,-260.5 210,-260.5 210,-239.5 66,-239.5"/>
<text text-anchor="middle" x="138" y="-247.5" font-family="Helvetica,sans-Serif" font-size="10.00">blond/impedances/Intensity.h</text>
</a>
</g>
<!-- Node37&#45;&gt;Node38 -->
<g id="edge132" class="edge"><title>Node37&#45;&gt;Node38</title>
<path fill="none" stroke="midnightblue" d="M138,-362.737C138,-338.912 138,-296.017 138,-270.563"/>
<polygon fill="midnightblue" stroke="midnightblue" points="141.5,-270.527 138,-260.527 134.5,-270.527 141.5,-270.527"/>
</g>
<!-- Node38&#45;&gt;Node3 -->
<g id="edge134" class="edge"><title>Node38&#45;&gt;Node3</title>
<path fill="none" stroke="midnightblue" d="M138,-239.085C138,-218.609 138,-174.133 138,-147.778"/>
<polygon fill="midnightblue" stroke="midnightblue" points="141.5,-147.715 138,-137.715 134.5,-147.715 141.5,-147.715"/>
</g>
<!-- Node38&#45;&gt;Node5 -->
<g id="edge138" class="edge"><title>Node38&#45;&gt;Node5</title>
<path fill="none" stroke="midnightblue" d="M125.753,-239.213C100.305,-215.487 46.449,-157.579 76,-116 79.1179,-111.613 140.016,-91.5851 178.944,-79.1315"/>
<polygon fill="midnightblue" stroke="midnightblue" points="180.332,-82.3626 188.797,-75.9909 178.206,-75.6932 180.332,-82.3626"/>
</g>
<!-- Node38&#45;&gt;Node8 -->
<g id="edge136" class="edge"><title>Node38&#45;&gt;Node8</title>
<path fill="none" stroke="midnightblue" d="M210.066,-239.772C303.195,-226.555 463.045,-203.869 544.711,-192.279"/>
<polygon fill="midnightblue" stroke="midnightblue" points="545.34,-195.725 554.749,-190.854 544.357,-188.794 545.34,-195.725"/>
</g>
<!-- Node39&#45;&gt;Node3 -->
<g id="edge148" class="edge"><title>Node39&#45;&gt;Node3</title>
<path fill="none" stroke="midnightblue" d="M1111.02,-247.426C1190.18,-240.338 1399.96,-219.489 1420,-196 1426.35,-188.562 1426.81,-181.018 1420,-174 1374.26,-126.843 303.536,-142.595 238,-138 226.226,-137.174 213.699,-136.018 201.639,-134.763"/>
<polygon fill="midnightblue" stroke="midnightblue" points="201.96,-131.278 191.644,-133.691 201.213,-138.238 201.96,-131.278"/>
</g>
<!-- Node39&#45;&gt;Node8 -->
<g id="edge150" class="edge"><title>Node39&#45;&gt;Node8</title>
<path fill="none" stroke="midnightblue" d="M1061.23,-239.357C1055.21,-236.535 1048.47,-233.782 1042,-232 968.775,-211.837 748.128,-195.109 647.286,-188.291"/>
<polygon fill="midnightblue" stroke="midnightblue" points="647.253,-184.781 637.042,-187.605 646.785,-191.766 647.253,-184.781"/>
</g>
<!-- Node39&#45;&gt;Node23 -->
<g id="edge146" class="edge"><title>Node39&#45;&gt;Node23</title>
<path fill="none" stroke="midnightblue" d="M1069.11,-239.267C1058,-229.233 1041.21,-214.078 1028.2,-202.331"/>
<polygon fill="midnightblue" stroke="midnightblue" points="1030.44,-199.637 1020.67,-195.534 1025.75,-204.833 1030.44,-199.637"/>
</g>
<!-- Node39&#45;&gt;Node26 -->
<g id="edge154" class="edge"><title>Node39&#45;&gt;Node26</title>
<path fill="none" stroke="midnightblue" d="M1111.24,-247.634C1193.19,-240.917 1414.85,-220.615 1436,-196 1489.96,-133.21 1368.66,-58.1152 1308.85,-26.3701"/>
<polygon fill="midnightblue" stroke="midnightblue" points="1310.3,-23.1788 1299.81,-21.6559 1307.06,-29.3848 1310.3,-23.1788"/>
</g>
<!-- Node39&#45;&gt;Node31 -->
<g id="edge152" class="edge"><title>Node39&#45;&gt;Node31</title>
<path fill="none" stroke="midnightblue" d="M1080.67,-239.267C1080.39,-230.18 1079.98,-216.892 1079.64,-205.74"/>
<polygon fill="midnightblue" stroke="midnightblue" points="1083.13,-205.421 1079.32,-195.534 1076.13,-205.637 1083.13,-205.421"/>
</g>
<!-- Node39&#45;&gt;Node32 -->
<g id="edge160" class="edge"><title>Node39&#45;&gt;Node32</title>
<path fill="none" stroke="midnightblue" d="M1111.17,-243.167C1159.47,-232.228 1254.79,-210.64 1314.74,-197.062"/>
<polygon fill="midnightblue" stroke="midnightblue" points="1315.79,-200.412 1324.77,-194.79 1314.25,-193.585 1315.79,-200.412"/>
</g>
<!-- Node39&#45;&gt;Node34 -->
<g id="edge158" class="edge"><title>Node39&#45;&gt;Node34</title>
<path fill="none" stroke="midnightblue" d="M1058.35,-239.446C1053,-236.98 1047.31,-234.379 1042,-232 1017.4,-220.974 989.505,-208.842 968.224,-199.666"/>
<polygon fill="midnightblue" stroke="midnightblue" points="969.517,-196.412 958.948,-195.673 966.749,-202.842 969.517,-196.412"/>
</g>
<!-- Node40 -->
<g id="node118" class="node"><title>Node40</title>
<polygon fill="white" stroke="#bfbfbf" points="1504.5,-174.5 1504.5,-195.5 1551.5,-195.5 1551.5,-174.5 1504.5,-174.5"/>
<text text-anchor="middle" x="1528" y="-182.5" font-family="Helvetica,sans-Serif" font-size="10.00">fftw3.h</text>
</g>
<!-- Node39&#45;&gt;Node40 -->
<g id="edge156" class="edge"><title>Node39&#45;&gt;Node40</title>
<path fill="none" stroke="midnightblue" d="M1111.11,-247.675C1179.31,-242.052 1350.56,-225.928 1491,-196 1492.08,-195.77 1493.18,-195.523 1494.28,-195.264"/>
<polygon fill="midnightblue" stroke="midnightblue" points="1495.47,-198.572 1504.26,-192.66 1493.7,-191.798 1495.47,-198.572"/>
</g>
</g>
</svg>
