<?xml version="1.0" encoding="UTF-8" standalone="no"?>
<!DOCTYPE svg PUBLIC "-//W3C//DTD SVG 1.1//EN"
 "http://www.w3.org/Graphics/SVG/1.1/DTD/svg11.dtd">
<!-- Generated by graphviz version 2.26.3 (20100126.1600)
 -->
<!-- Title: LHCNoiseFB Pages: 1 -->
<svg width="477pt" height="508pt"
 viewBox="0.00 0.00 477.00 508.00" xmlns="http://www.w3.org/2000/svg" xmlns:xlink="http://www.w3.org/1999/xlink">
<g id="graph1" class="graph" transform="scale(1 1) rotate(0) translate(4 504)">
<title>LHCNoiseFB</title>
<polygon fill="white" stroke="white" points="-4,5 -4,-504 474,-504 474,5 -4,5"/>
<!-- Node1 -->
<g id="node1" class="node"><title>Node1</title>
<polygon fill="#bfbfbf" stroke="black" points="184,-1 184,-129 302,-129 302,-1 184,-1"/>
<text text-anchor="middle" x="243" y="-116" font-family="Helvetica,sans-Serif" font-size="10.00">LHCNoiseFB</text>
<polyline fill="none" stroke="black" points="184,-108 302,-108 "/>
<text text-anchor="middle" x="243" y="-95" font-family="Helvetica,sans-Serif" font-size="10.00"> </text>
<polyline fill="none" stroke="black" points="184,-87 302,-87 "/>
<text text-anchor="start" x="192" y="-74" font-family="Helvetica,sans-Serif" font-size="10.00">+ LHCNoiseFB()</text>
<text text-anchor="start" x="192" y="-61" font-family="Helvetica,sans-Serif" font-size="10.00">+ ~LHCNoiseFB()</text>
<text text-anchor="start" x="192" y="-48" font-family="Helvetica,sans-Serif" font-size="10.00">+ fwhm_interpolation()</text>
<text text-anchor="start" x="192" y="-35" font-family="Helvetica,sans-Serif" font-size="10.00">+ fwhm_multi_bunch()</text>
<text text-anchor="start" x="192" y="-22" font-family="Helvetica,sans-Serif" font-size="10.00">+ fwhm_single_bunch()</text>
<text text-anchor="start" x="192" y="-9" font-family="Helvetica,sans-Serif" font-size="10.00">+ track()</text>
</g>
<!-- Node2 -->
<g id="node2" class="node"><title>Node2</title>
<polygon fill="white" stroke="#bfbfbf" points="0,-207.5 0,-270.5 90,-270.5 90,-207.5 0,-207.5"/>
<text text-anchor="middle" x="45" y="-257.5" font-family="Helvetica,sans-Serif" font-size="10.00">function&lt; void()&gt;</text>
<polyline fill="none" stroke="#bfbfbf" points="0,-249.5 90,-249.5 "/>
<text text-anchor="middle" x="45" y="-236.5" font-family="Helvetica,sans-Serif" font-size="10.00"> </text>
<polyline fill="none" stroke="#bfbfbf" points="0,-228.5 90,-228.5 "/>
<text text-anchor="middle" x="45" y="-215.5" font-family="Helvetica,sans-Serif" font-size="10.00"> </text>
</g>
<!-- Node2&#45;&gt;Node1 -->
<g id="edge2" class="edge"><title>Node2&#45;&gt;Node1</title>
<path fill="none" stroke="#404040" d="M47.961,-207.306C51.1869,-188.262 57.9255,-164.586 72,-148 97.8971,-117.482 137.64,-97.2507 172.295,-84.4092"/>
<polygon fill="none" stroke="#404040" points="172.511,-84.3328 176.835,-78.5618 183.825,-80.3334 179.501,-86.1044 172.511,-84.3328"/>
<text text-anchor="middle" x="92" y="-165.5" font-family="Helvetica,sans-Serif" font-size="10.00"> +fFwhm</text>
</g>
<!-- Node3 -->
<g id="node4" class="node"><title>Node3</title>
<polygon fill="white" stroke="#bfbfbf" points="121.5,-322.5 121.5,-385.5 166.5,-385.5 166.5,-322.5 121.5,-322.5"/>
<text text-anchor="middle" x="144" y="-372.5" font-family="Helvetica,sans-Serif" font-size="10.00">double</text>
<polyline fill="none" stroke="#bfbfbf" points="121.5,-364.5 166.5,-364.5 "/>
<text text-anchor="middle" x="144" y="-351.5" font-family="Helvetica,sans-Serif" font-size="10.00"> </text>
<polyline fill="none" stroke="#bfbfbf" points="121.5,-343.5 166.5,-343.5 "/>
<text text-anchor="middle" x="144" y="-330.5" font-family="Helvetica,sans-Serif" font-size="10.00"> </text>
</g>
<!-- Node3&#45;&gt;Node1 -->
<g id="edge4" class="edge"><title>Node3&#45;&gt;Node1</title>
<path fill="none" stroke="#404040" d="M135.313,-322.474C128.431,-291.868 121.943,-244.519 135,-206 143.756,-180.169 159.355,-155.355 176.022,-133.94"/>
<polygon fill="none" stroke="#404040" points="176.215,-133.699 176.858,-126.517 183.735,-124.347 183.092,-131.53 176.215,-133.699"/>
<text text-anchor="middle" x="158" y="-262.5" font-family="Helvetica,sans-Serif" font-size="10.00"> +fBlMeas</text>
<text text-anchor="middle" x="158" y="-249.5" font-family="Helvetica,sans-Serif" font-size="10.00">+fBlTarg</text>
<text text-anchor="middle" x="158" y="-236.5" font-family="Helvetica,sans-Serif" font-size="10.00">+fA</text>
<text text-anchor="middle" x="158" y="-223.5" font-family="Helvetica,sans-Serif" font-size="10.00">&#45;cfwhm</text>
<text text-anchor="middle" x="158" y="-210.5" font-family="Helvetica,sans-Serif" font-size="10.00">+fX</text>
</g>
<!-- Node6 -->
<g id="node10" class="node"><title>Node6</title>
<polygon fill="white" stroke="#bfbfbf" points="190,-207.5 190,-270.5 300,-270.5 300,-207.5 190,-207.5"/>
<text text-anchor="middle" x="245" y="-257.5" font-family="Helvetica,sans-Serif" font-size="10.00">std::vector&lt; double &gt;</text>
<polyline fill="none" stroke="#bfbfbf" points="190,-249.5 300,-249.5 "/>
<text text-anchor="middle" x="245" y="-236.5" font-family="Helvetica,sans-Serif" font-size="10.00"> </text>
<polyline fill="none" stroke="#bfbfbf" points="190,-228.5 300,-228.5 "/>
<text text-anchor="middle" x="245" y="-215.5" font-family="Helvetica,sans-Serif" font-size="10.00"> </text>
</g>
<!-- Node3&#45;&gt;Node6 -->
<g id="edge12" class="edge"><title>Node3&#45;&gt;Node6</title>
<path fill="none" stroke="#404040" d="M166.22,-322.282C174.023,-311.725 183.076,-300.092 192,-290 195.146,-286.443 198.496,-282.843 201.925,-279.287"/>
<polygon fill="none" stroke="#404040" points="202.093,-279.117 203.474,-272.04 210.538,-270.592 209.157,-277.67 202.093,-279.117"/>
<text text-anchor="middle" x="216.5" y="-294.5" font-family="Helvetica,sans-Serif" font-size="10.00"> +elements</text>
</g>
<!-- Node4 -->
<g id="node6" class="node"><title>Node4</title>
<polygon fill="white" stroke="#bfbfbf" points="317.5,-207.5 317.5,-270.5 352.5,-270.5 352.5,-207.5 317.5,-207.5"/>
<text text-anchor="middle" x="335" y="-257.5" font-family="Helvetica,sans-Serif" font-size="10.00">bool</text>
<polyline fill="none" stroke="#bfbfbf" points="317.5,-249.5 352.5,-249.5 "/>
<text text-anchor="middle" x="335" y="-236.5" font-family="Helvetica,sans-Serif" font-size="10.00"> </text>
<polyline fill="none" stroke="#bfbfbf" points="317.5,-228.5 352.5,-228.5 "/>
<text text-anchor="middle" x="335" y="-215.5" font-family="Helvetica,sans-Serif" font-size="10.00"> </text>
</g>
<!-- Node4&#45;&gt;Node1 -->
<g id="edge6" class="edge"><title>Node4&#45;&gt;Node1</title>
<path fill="none" stroke="#404040" d="M331.052,-207.419C327.902,-189.309 322.402,-166.559 313,-148 311.533,-145.105 309.947,-142.223 308.264,-139.367"/>
<polygon fill="none" stroke="#404040" points="308.215,-139.29 301.624,-136.365 301.788,-129.156 308.38,-132.08 308.215,-139.29"/>
<text text-anchor="middle" x="360" y="-165.5" font-family="Helvetica,sans-Serif" font-size="10.00"> +fVariableGain</text>
</g>
<!-- Node5 -->
<g id="node8" class="node"><title>Node5</title>
<polygon fill="white" stroke="#bfbfbf" points="398,-207.5 398,-270.5 454,-270.5 454,-207.5 398,-207.5"/>
<text text-anchor="middle" x="426" y="-257.5" font-family="Helvetica,sans-Serif" font-size="10.00">unsigned</text>
<polyline fill="none" stroke="#bfbfbf" points="398,-249.5 454,-249.5 "/>
<text text-anchor="middle" x="426" y="-236.5" font-family="Helvetica,sans-Serif" font-size="10.00"> </text>
<polyline fill="none" stroke="#bfbfbf" points="398,-228.5 454,-228.5 "/>
<text text-anchor="middle" x="426" y="-215.5" font-family="Helvetica,sans-Serif" font-size="10.00"> </text>
</g>
<!-- Node5&#45;&gt;Node1 -->
<g id="edge8" class="edge"><title>Node5&#45;&gt;Node1</title>
<path fill="none" stroke="#404040" d="M422.418,-207.488C418.88,-188.512 411.869,-164.844 398,-148 376.064,-121.358 343.273,-102.06 313.492,-88.8153"/>
<polygon fill="none" stroke="#404040" points="313.297,-88.7321 306.209,-90.063 302.255,-84.0328 309.342,-82.7019 313.297,-88.7321"/>
<text text-anchor="middle" x="443" y="-165.5" font-family="Helvetica,sans-Serif" font-size="10.00"> +fNUpdate</text>
</g>
<!-- Node6&#45;&gt;Node1 -->
<g id="edge10" class="edge"><title>Node6&#45;&gt;Node1</title>
<path fill="none" stroke="#404040" d="M244.325,-207.443C244.203,-201.01 244.087,-194.287 244,-188 243.791,-172.92 243.621,-156.8 243.485,-141.361"/>
<polygon fill="none" stroke="#404040" points="243.483,-141.158 239.433,-135.192 243.382,-129.158 247.433,-135.125 243.483,-141.158"/>
<text text-anchor="middle" x="278.5" y="-178.5" font-family="Helvetica,sans-Serif" font-size="10.00"> +fBlMeasBBB</text>
<text text-anchor="middle" x="278.5" y="-165.5" font-family="Helvetica,sans-Serif" font-size="10.00">+fBunchPattern</text>
<text text-anchor="middle" x="278.5" y="-152.5" font-family="Helvetica,sans-Serif" font-size="10.00">+fG</text>
</g>
<!-- Node7 -->
<g id="node13" class="node"><title>Node7</title>
<a xlink:title="STL class.">
<polygon fill="white" stroke="#bfbfbf" points="201.5,-322.5 201.5,-385.5 288.5,-385.5 288.5,-322.5 201.5,-322.5"/>
<text text-anchor="middle" x="245" y="-372.5" font-family="Helvetica,sans-Serif" font-size="10.00">std::vector&lt; T &gt;</text>
<polyline fill="none" stroke="#bfbfbf" points="201.5,-364.5 288.5,-364.5 "/>
<text text-anchor="middle" x="245" y="-351.5" font-family="Helvetica,sans-Serif" font-size="10.00"> </text>
<polyline fill="none" stroke="#bfbfbf" points="201.5,-343.5 288.5,-343.5 "/>
<text text-anchor="middle" x="245" y="-330.5" font-family="Helvetica,sans-Serif" font-size="10.00"> </text>
</a>
</g>
<!-- Node7&#45;&gt;Node6 -->
<g id="edge14" class="edge"><title>Node7&#45;&gt;Node6</title>
<path fill="none" stroke="orange" d="M245,-312.104C245,-298.408 245,-283.434 245,-270.625"/>
<polygon fill="orange" stroke="orange" points="241.5,-312.271 245,-322.271 248.5,-312.271 241.5,-312.271"/>
<text text-anchor="middle" x="270" y="-294.5" font-family="Helvetica,sans-Serif" font-size="10.00"> &lt; double &gt;</text>
</g>
<!-- Node8 -->
<g id="node15" class="node"><title>Node8</title>
<polygon fill="white" stroke="#bfbfbf" points="230.5,-436.5 230.5,-499.5 259.5,-499.5 259.5,-436.5 230.5,-436.5"/>
<text text-anchor="middle" x="245" y="-486.5" font-family="Helvetica,sans-Serif" font-size="10.00">T</text>
<polyline fill="none" stroke="#bfbfbf" points="230.5,-478.5 259.5,-478.5 "/>
<text text-anchor="middle" x="245" y="-465.5" font-family="Helvetica,sans-Serif" font-size="10.00"> </text>
<polyline fill="none" stroke="#bfbfbf" points="230.5,-457.5 259.5,-457.5 "/>
<text text-anchor="middle" x="245" y="-444.5" font-family="Helvetica,sans-Serif" font-size="10.00"> </text>
</g>
<!-- Node8&#45;&gt;Node7 -->
<g id="edge16" class="edge"><title>Node8&#45;&gt;Node7</title>
<path fill="none" stroke="#404040" d="M245,-436.245C245,-424.386 245,-410.7 245,-397.938"/>
<polygon fill="none" stroke="#404040" points="245,-397.585 241,-391.585 245,-385.585 249,-391.585 245,-397.585"/>
<text text-anchor="middle" x="269.5" y="-408.5" font-family="Helvetica,sans-Serif" font-size="10.00"> +elements</text>
</g>
</g>
</svg>
