<?xml version="1.0" encoding="UTF-8" standalone="no"?>
<!DOCTYPE svg PUBLIC "-//W3C//DTD SVG 1.1//EN"
 "http://www.w3.org/Graphics/SVG/1.1/DTD/svg11.dtd">
<!-- Generated by graphviz version 2.26.3 (20100126.1600)
 -->
<!-- Title: LHCNoiseFB.cpp Pages: 1 -->
<!--zoomable 464 -->
<svg id="main" version="1.1" xmlns="http://www.w3.org/2000/svg" xmlns:xlink="http://www.w3.org/1999/xlink" xml:space="preserve" onload="init(evt)">
        <defs>
                <circle id="rim" cx="0" cy="0" r="7"/>
                <circle id="rim2" cx="0" cy="0" r="3.5"/>
                <g id="zoomPlus">
                        <use xlink:href="#rim" fill="#404040">
                                <set attributeName="fill" to="#808080" begin="zoomplus.mouseover" end="zoomplus.mouseout"/>
                        </use>
                        <path d="M-4,0h8M0,-4v8" fill="none" stroke="white" stroke-width="1.5" pointer-events="none"/>
                </g>
                <g id="zoomMin">
                        <use xlink:href="#rim" fill="#404040">
                                <set attributeName="fill" to="#808080" begin="zoomminus.mouseover" end="zoomminus.mouseout"/>
                        </use>
                        <path d="M-4,0h8" fill="none" stroke="white" stroke-width="1.5" pointer-events="none"/>
                </g>
                <g id="dirArrow">
                        <path fill="none" stroke="white" stroke-width="1.5" d="M0,-3.0v7 M-2.5,-0.5L0,-3.0L2.5,-0.5"/>
                </g>
               <g id="resetDef">
                       <use xlink:href="#rim2" fill="#404040">
                               <set attributeName="fill" to="#808080" begin="reset.mouseover" end="reset.mouseout"/>
                       </use>
               </g>
        </defs>

<script type="text/javascript">
var viewWidth = 1632;
var viewHeight = 464;
var sectionId = 'dynsection-0';
</script>
<script xlink:href="../../svgpan.js"/>
<svg id="graph" class="graph">
<g id="viewport">
<title>LHCNoiseFB.cpp</title>
<polygon fill="white" stroke="white" points="-4,5 -4,-460 1629,-460 1629,5 -4,5"/>
<!-- Node1 -->
<g id="node1" class="node"><title>Node1</title>
<polygon fill="#bfbfbf" stroke="black" points="1024,-434.5 1024,-455.5 1118,-455.5 1118,-434.5 1024,-434.5"/>
<text text-anchor="middle" x="1071" y="-442.5" font-family="Helvetica,sans-Serif" font-size="10.00">LHCNoiseFB.cpp</text>
</g>
<!-- Node2 -->
<g id="node3" class="node"><title>Node2</title>
<polygon fill="white" stroke="#bfbfbf" points="1118,-318.5 1118,-339.5 1174,-339.5 1174,-318.5 1118,-318.5"/>
<text text-anchor="middle" x="1146" y="-326.5" font-family="Helvetica,sans-Serif" font-size="10.00">algorithm</text>
</g>
<!-- Node1&#45;&gt;Node2 -->
<g id="edge2" class="edge"><title>Node1&#45;&gt;Node2</title>
<path fill="none" stroke="midnightblue" d="M1088.63,-434.364C1101.1,-425.97 1117.26,-413.168 1127,-398 1136.41,-383.335 1141.21,-364.029 1143.63,-349.568"/>
<polygon fill="midnightblue" stroke="midnightblue" points="1147.11,-350.006 1145.05,-339.612 1140.18,-349.017 1147.11,-350.006"/>
</g>
<!-- Node3 -->
<g id="node5" class="node"><title>Node3</title>
<a xlink:href="../../d2/d6f/constants_8h.html" target="_top" xlink:title="blond/constants.h">
<polygon fill="white" stroke="black" points="1024,-376.5 1024,-397.5 1118,-397.5 1118,-376.5 1024,-376.5"/>
<text text-anchor="middle" x="1071" y="-384.5" font-family="Helvetica,sans-Serif" font-size="10.00">blond/constants.h</text>
</a>
</g>
<!-- Node1&#45;&gt;Node3 -->
<g id="edge4" class="edge"><title>Node1&#45;&gt;Node3</title>
<path fill="none" stroke="midnightblue" d="M1071,-434.362C1071,-426.922 1071,-416.743 1071,-407.728"/>
<polygon fill="midnightblue" stroke="midnightblue" points="1074.5,-407.571 1071,-397.571 1067.5,-407.571 1074.5,-407.571"/>
</g>
<!-- Node7 -->
<g id="node13" class="node"><title>Node7</title>
<a xlink:href="../../d5/d87/globals_8h.html" target="_top" xlink:title="blond/globals.h">
<polygon fill="white" stroke="black" points="924,-376.5 924,-397.5 1006,-397.5 1006,-376.5 924,-376.5"/>
<text text-anchor="middle" x="965" y="-384.5" font-family="Helvetica,sans-Serif" font-size="10.00">blond/globals.h</text>
</a>
</g>
<!-- Node1&#45;&gt;Node7 -->
<g id="edge12" class="edge"><title>Node1&#45;&gt;Node7</title>
<path fill="none" stroke="midnightblue" d="M1051.56,-434.362C1035.2,-425.409 1011.59,-412.491 993.157,-402.406"/>
<polygon fill="midnightblue" stroke="midnightblue" points="994.771,-399.3 984.319,-397.571 991.411,-405.441 994.771,-399.3"/>
</g>
<!-- Node25 -->
<g id="node61" class="node"><title>Node25</title>
<a xlink:href="../../d4/dba/LHCNoiseFB_8h.html" target="_top" xlink:title="blond/llrf/LHCNoiseFB.h">
<polygon fill="white" stroke="black" points="541.5,-181.5 541.5,-202.5 664.5,-202.5 664.5,-181.5 541.5,-181.5"/>
<text text-anchor="middle" x="603" y="-189.5" font-family="Helvetica,sans-Serif" font-size="10.00">blond/llrf/LHCNoiseFB.h</text>
</a>
</g>
<!-- Node1&#45;&gt;Node25 -->
<g id="edge72" class="edge"><title>Node1&#45;&gt;Node25</title>
<path fill="none" stroke="midnightblue" d="M1029.69,-434.426C997.9,-425.843 953.11,-412.773 915,-398 859.395,-376.445 844.745,-371.329 794,-340 727.2,-298.759 655.996,-238.724 622.524,-209.412"/>
<polygon fill="midnightblue" stroke="midnightblue" points="624.669,-206.637 614.853,-202.652 620.041,-211.889 624.669,-206.637"/>
</g>
<!-- Node27 -->
<g id="node67" class="node"><title>Node27</title>
<a xlink:href="../../d2/de2/math__functions_8h.html" target="_top" xlink:title="blond/math_functions.h">
<polygon fill="white" stroke="black" points="1219,-376.5 1219,-397.5 1337,-397.5 1337,-376.5 1219,-376.5"/>
<text text-anchor="middle" x="1278" y="-384.5" font-family="Helvetica,sans-Serif" font-size="10.00">blond/math_functions.h</text>
</a>
</g>
<!-- Node1&#45;&gt;Node27 -->
<g id="edge80" class="edge"><title>Node1&#45;&gt;Node27</title>
<path fill="none" stroke="midnightblue" d="M1108.49,-434.497C1142.67,-424.918 1193.35,-410.72 1230.38,-400.342"/>
<polygon fill="midnightblue" stroke="midnightblue" points="1231.76,-403.591 1240.44,-397.523 1229.87,-396.851 1231.76,-403.591"/>
</g>
<!-- Node4 -->
<g id="node7" class="node"><title>Node4</title>
<a xlink:href="../../d2/d2c/configuration_8h.html" target="_top" xlink:title="blond/configuration.h">
<polygon fill="white" stroke="black" points="917.5,-58.5 917.5,-79.5 1024.5,-79.5 1024.5,-58.5 917.5,-58.5"/>
<text text-anchor="middle" x="971" y="-66.5" font-family="Helvetica,sans-Serif" font-size="10.00">blond/configuration.h</text>
</a>
</g>
<!-- Node3&#45;&gt;Node4 -->
<g id="edge6" class="edge"><title>Node3&#45;&gt;Node4</title>
<path fill="none" stroke="midnightblue" d="M1073.8,-376.227C1079.09,-354.941 1090,-305.918 1090,-264 1090,-264 1090,-264 1090,-192 1090,-141.678 1037.91,-104.104 1002.66,-84.4361"/>
<polygon fill="midnightblue" stroke="midnightblue" points="1004.13,-81.2507 993.663,-79.596 1000.81,-87.4155 1004.13,-81.2507"/>
</g>
<!-- Node5 -->
<g id="node9" class="node"><title>Node5</title>
<polygon fill="white" stroke="#bfbfbf" points="911.5,-0.5 911.5,-21.5 964.5,-21.5 964.5,-0.5 911.5,-0.5"/>
<text text-anchor="middle" x="938" y="-8.5" font-family="Helvetica,sans-Serif" font-size="10.00">complex</text>
</g>
<!-- Node4&#45;&gt;Node5 -->
<g id="edge8" class="edge"><title>Node4&#45;&gt;Node5</title>
<path fill="none" stroke="midnightblue" d="M964.947,-58.3619C960.528,-50.5949 954.41,-39.8426 949.121,-30.5458"/>
<polygon fill="midnightblue" stroke="midnightblue" points="952.002,-28.5315 944.014,-21.5707 945.918,-31.9932 952.002,-28.5315"/>
</g>
<!-- Node6 -->
<g id="node11" class="node"><title>Node6</title>
<polygon fill="white" stroke="#bfbfbf" points="982,-0.5 982,-21.5 1026,-21.5 1026,-0.5 982,-0.5"/>
<text text-anchor="middle" x="1004" y="-8.5" font-family="Helvetica,sans-Serif" font-size="10.00">vector</text>
</g>
<!-- Node4&#45;&gt;Node6 -->
<g id="edge10" class="edge"><title>Node4&#45;&gt;Node6</title>
<path fill="none" stroke="midnightblue" d="M977.053,-58.3619C981.472,-50.5949 987.59,-39.8426 992.879,-30.5458"/>
<polygon fill="midnightblue" stroke="midnightblue" points="996.082,-31.9932 997.986,-21.5707 989.998,-28.5315 996.082,-31.9932"/>
</g>
<!-- Node8 -->
<g id="node15" class="node"><title>Node8</title>
<a xlink:href="../../d7/d74/Beams_8h.html" target="_top" xlink:title="blond/beams/Beams.h">
<polygon fill="white" stroke="black" points="822,-318.5 822,-339.5 936,-339.5 936,-318.5 822,-318.5"/>
<text text-anchor="middle" x="879" y="-326.5" font-family="Helvetica,sans-Serif" font-size="10.00">blond/beams/Beams.h</text>
</a>
</g>
<!-- Node7&#45;&gt;Node8 -->
<g id="edge14" class="edge"><title>Node7&#45;&gt;Node8</title>
<path fill="none" stroke="midnightblue" d="M949.226,-376.362C936.376,-367.696 918.015,-355.313 903.29,-345.382"/>
<polygon fill="midnightblue" stroke="midnightblue" points="904.921,-342.26 894.674,-339.571 901.007,-348.064 904.921,-342.26"/>
</g>
<!-- Node22 -->
<g id="node46" class="node"><title>Node22</title>
<a xlink:href="../../d5/d34/GeneralParameters_8h.html" target="_top" xlink:title="blond/input_parameters\l/GeneralParameters.h">
<polygon fill="white" stroke="black" points="907,-175 907,-209 1025,-209 1025,-175 907,-175"/>
<text text-anchor="start" x="915" y="-196" font-family="Helvetica,sans-Serif" font-size="10.00">blond/input_parameters</text>
<text text-anchor="middle" x="966" y="-183" font-family="Helvetica,sans-Serif" font-size="10.00">/GeneralParameters.h</text>
</a>
</g>
<!-- Node7&#45;&gt;Node22 -->
<g id="edge68" class="edge"><title>Node7&#45;&gt;Node22</title>
<path fill="none" stroke="midnightblue" d="M974.904,-376.431C990.842,-358.614 1021.55,-320.739 1033,-282 1037.53,-266.656 1039.9,-260.433 1033,-246 1027.14,-233.757 1017.01,-223.403 1006.36,-215.139"/>
<polygon fill="midnightblue" stroke="midnightblue" points="1008.34,-212.253 998.19,-209.231 1004.24,-217.926 1008.34,-212.253"/>
</g>
<!-- Node23 -->
<g id="node51" class="node"><title>Node23</title>
<a xlink:href="../../d6/db7/RfParameters_8h.html" target="_top" xlink:title="blond/input_parameters\l/RfParameters.h">
<polygon fill="white" stroke="black" points="906,-247 906,-281 1024,-281 1024,-247 906,-247"/>
<text text-anchor="start" x="914" y="-268" font-family="Helvetica,sans-Serif" font-size="10.00">blond/input_parameters</text>
<text text-anchor="middle" x="965" y="-255" font-family="Helvetica,sans-Serif" font-size="10.00">/RfParameters.h</text>
</a>
</g>
<!-- Node7&#45;&gt;Node23 -->
<g id="edge70" class="edge"><title>Node7&#45;&gt;Node23</title>
<path fill="none" stroke="midnightblue" d="M965,-376.085C965,-357.275 965,-318.21 965,-291.547"/>
<polygon fill="midnightblue" stroke="midnightblue" points="968.5,-291.317 965,-281.317 961.5,-291.317 968.5,-291.317"/>
</g>
<!-- Node24 -->
<g id="node55" class="node"><title>Node24</title>
<a xlink:href="../../dc/df2/Slices_8h.html" target="_top" xlink:title="blond/beams/Slices.h">
<polygon fill="white" stroke="black" points="720,-181.5 720,-202.5 830,-202.5 830,-181.5 720,-181.5"/>
<text text-anchor="middle" x="775" y="-189.5" font-family="Helvetica,sans-Serif" font-size="10.00">blond/beams/Slices.h</text>
</a>
</g>
<!-- Node7&#45;&gt;Node24 -->
<g id="edge62" class="edge"><title>Node7&#45;&gt;Node24</title>
<path fill="none" stroke="midnightblue" d="M923.706,-378.959C884.154,-370.449 828.289,-356.05 813,-340 779.593,-304.931 774.509,-244.604 774.341,-212.885"/>
<polygon fill="midnightblue" stroke="midnightblue" points="777.844,-212.632 774.458,-202.593 770.844,-212.552 777.844,-212.632"/>
</g>
<!-- Node8&#45;&gt;Node4 -->
<g id="edge16" class="edge"><title>Node8&#45;&gt;Node4</title>
<path fill="none" stroke="midnightblue" d="M878.346,-318.463C877.541,-302.648 876.657,-271.868 880,-246 884.227,-213.287 884.362,-204.033 898,-174 913.02,-140.923 938.662,-107.234 955.212,-87.2277"/>
<polygon fill="midnightblue" stroke="midnightblue" points="957.927,-89.4371 961.69,-79.5331 952.572,-84.9285 957.927,-89.4371"/>
</g>
<!-- Node9 -->
<g id="node18" class="node"><title>Node9</title>
<a xlink:href="../../de/df0/utilities_8h.html" target="_top" xlink:title="blond/utilities.h">
<polygon fill="white" stroke="black" points="578,-116.5 578,-137.5 660,-137.5 660,-116.5 578,-116.5"/>
<text text-anchor="middle" x="619" y="-124.5" font-family="Helvetica,sans-Serif" font-size="10.00">blond/utilities.h</text>
</a>
</g>
<!-- Node8&#45;&gt;Node9 -->
<g id="edge18" class="edge"><title>Node8&#45;&gt;Node9</title>
<path fill="none" stroke="midnightblue" d="M862.213,-318.258C831.314,-298.238 763.767,-253.315 711,-210 693.018,-195.239 690.223,-189.64 673,-174 661.965,-163.979 649.417,-153.031 639.196,-144.225"/>
<polygon fill="midnightblue" stroke="midnightblue" points="641.439,-141.537 631.571,-137.68 636.879,-146.849 641.439,-141.537"/>
</g>
<!-- Node8&#45;&gt;Node22 -->
<g id="edge48" class="edge"><title>Node8&#45;&gt;Node22</title>
<path fill="none" stroke="midnightblue" d="M879.05,-318.451C879.593,-301.806 882.585,-268.984 897,-246 904.609,-233.867 915.954,-223.355 927.258,-214.912"/>
<polygon fill="midnightblue" stroke="midnightblue" points="929.282,-217.767 935.427,-209.137 925.241,-212.051 929.282,-217.767"/>
</g>
<!-- Node8&#45;&gt;Node23 -->
<g id="edge56" class="edge"><title>Node8&#45;&gt;Node23</title>
<path fill="none" stroke="midnightblue" d="M888.035,-318.267C897.722,-309.827 913.241,-297.762 927.874,-287.151"/>
<polygon fill="midnightblue" stroke="midnightblue" points="930.231,-289.769 936.336,-281.11 926.163,-284.072 930.231,-289.769"/>
</g>
<!-- Node9&#45;&gt;Node4 -->
<g id="edge42" class="edge"><title>Node9&#45;&gt;Node4</title>
<path fill="none" stroke="midnightblue" d="M660.068,-120.233C720.826,-110.222 835.201,-91.376 907.011,-79.5437"/>
<polygon fill="midnightblue" stroke="midnightblue" points="907.987,-82.9301 917.285,-77.8507 906.849,-76.0232 907.987,-82.9301"/>
</g>
<!-- Node9&#45;&gt;Node6 -->
<g id="edge38" class="edge"><title>Node9&#45;&gt;Node6</title>
<path fill="none" stroke="midnightblue" d="M660.292,-123.635C711.169,-118.517 799.632,-106.423 871,-80 889.301,-73.2242 891.801,-67.2207 909,-58 929.992,-46.7463 954.042,-34.8573 972.692,-25.8524"/>
<polygon fill="midnightblue" stroke="midnightblue" points="974.41,-28.9102 981.908,-21.4249 971.378,-22.6006 974.41,-28.9102"/>
</g>
<!-- Node10 -->
<g id="node20" class="node"><title>Node10</title>
<polygon fill="white" stroke="#bfbfbf" points="756,-58.5 756,-79.5 802,-79.5 802,-58.5 756,-58.5"/>
<text text-anchor="middle" x="779" y="-66.5" font-family="Helvetica,sans-Serif" font-size="10.00">chrono</text>
</g>
<!-- Node9&#45;&gt;Node10 -->
<g id="edge20" class="edge"><title>Node9&#45;&gt;Node10</title>
<path fill="none" stroke="midnightblue" d="M647.975,-116.497C675.686,-106.451 717.416,-91.3241 746.304,-80.8522"/>
<polygon fill="midnightblue" stroke="midnightblue" points="747.734,-84.0568 755.943,-77.3582 745.349,-77.4758 747.734,-84.0568"/>
</g>
<!-- Node11 -->
<g id="node22" class="node"><title>Node11</title>
<polygon fill="white" stroke="#bfbfbf" points="819.5,-58.5 819.5,-79.5 862.5,-79.5 862.5,-58.5 819.5,-58.5"/>
<text text-anchor="middle" x="841" y="-66.5" font-family="Helvetica,sans-Serif" font-size="10.00">cstdio</text>
</g>
<!-- Node9&#45;&gt;Node11 -->
<g id="edge22" class="edge"><title>Node9&#45;&gt;Node11</title>
<path fill="none" stroke="midnightblue" d="M660.184,-118.313C697.17,-110.202 753.091,-97.1772 809.649,-80.206"/>
<polygon fill="midnightblue" stroke="midnightblue" points="810.918,-83.4784 819.467,-77.2211 808.882,-76.7811 810.918,-83.4784"/>
</g>
<!-- Node12 -->
<g id="node24" class="node"><title>Node12</title>
<polygon fill="white" stroke="#bfbfbf" points="-0.5,-58.5 -0.5,-79.5 44.5,-79.5 44.5,-58.5 -0.5,-58.5"/>
<text text-anchor="middle" x="22" y="-66.5" font-family="Helvetica,sans-Serif" font-size="10.00">cstdlib</text>
</g>
<!-- Node9&#45;&gt;Node12 -->
<g id="edge24" class="edge"><title>Node9&#45;&gt;Node12</title>
<path fill="none" stroke="midnightblue" d="M577.887,-117.453C574.889,-116.912 571.903,-116.418 569,-116 344.681,-83.6785 279.891,-125.649 54.6313,-79.904"/>
<polygon fill="midnightblue" stroke="midnightblue" points="55.3258,-76.4736 44.8244,-77.8781 53.9095,-83.3289 55.3258,-76.4736"/>
</g>
<!-- Node13 -->
<g id="node26" class="node"><title>Node13</title>
<polygon fill="white" stroke="#bfbfbf" points="62,-58.5 62,-79.5 112,-79.5 112,-58.5 62,-58.5"/>
<text text-anchor="middle" x="87" y="-66.5" font-family="Helvetica,sans-Serif" font-size="10.00">fstream</text>
</g>
<!-- Node9&#45;&gt;Node13 -->
<g id="edge26" class="edge"><title>Node9&#45;&gt;Node13</title>
<path fill="none" stroke="midnightblue" d="M577.882,-117.488C574.885,-116.938 571.901,-116.434 569,-116 374.721,-86.962 318.757,-117.945 122.157,-79.8235"/>
<polygon fill="midnightblue" stroke="midnightblue" points="122.567,-76.337 112.078,-77.8332 121.211,-83.2044 122.567,-76.337"/>
</g>
<!-- Node14 -->
<g id="node28" class="node"><title>Node14</title>
<polygon fill="white" stroke="#bfbfbf" points="130,-58.5 130,-79.5 184,-79.5 184,-58.5 130,-58.5"/>
<text text-anchor="middle" x="157" y="-66.5" font-family="Helvetica,sans-Serif" font-size="10.00">iostream</text>
</g>
<!-- Node9&#45;&gt;Node14 -->
<g id="edge28" class="edge"><title>Node9&#45;&gt;Node14</title>
<path fill="none" stroke="midnightblue" d="M577.874,-117.539C574.879,-116.977 571.897,-116.456 569,-116 406.402,-90.4266 359.484,-111.822 194.382,-79.9534"/>
<polygon fill="midnightblue" stroke="midnightblue" points="194.86,-76.4805 184.372,-77.9847 193.509,-83.3489 194.86,-76.4805"/>
</g>
<!-- Node15 -->
<g id="node30" class="node"><title>Node15</title>
<polygon fill="white" stroke="#bfbfbf" points="201.5,-58.5 201.5,-79.5 248.5,-79.5 248.5,-58.5 201.5,-58.5"/>
<text text-anchor="middle" x="225" y="-66.5" font-family="Helvetica,sans-Serif" font-size="10.00">iterator</text>
</g>
<!-- Node9&#45;&gt;Node15 -->
<g id="edge30" class="edge"><title>Node9&#45;&gt;Node15</title>
<path fill="none" stroke="midnightblue" d="M577.864,-117.603C574.871,-117.026 571.893,-116.484 569,-116 434.552,-93.514 394.976,-110.052 258.59,-79.9957"/>
<polygon fill="midnightblue" stroke="midnightblue" points="259.125,-76.5285 248.601,-77.7499 257.589,-83.3581 259.125,-76.5285"/>
</g>
<!-- Node16 -->
<g id="node32" class="node"><title>Node16</title>
<polygon fill="white" stroke="#bfbfbf" points="266,-58.5 266,-79.5 318,-79.5 318,-58.5 266,-58.5"/>
<text text-anchor="middle" x="292" y="-66.5" font-family="Helvetica,sans-Serif" font-size="10.00">memory</text>
</g>
<!-- Node9&#45;&gt;Node16 -->
<g id="edge32" class="edge"><title>Node9&#45;&gt;Node16</title>
<path fill="none" stroke="midnightblue" d="M577.845,-117.71C574.856,-117.108 571.885,-116.531 569,-116 465.192,-96.8833 434.743,-103.927 328.118,-79.9898"/>
<polygon fill="midnightblue" stroke="midnightblue" points="328.78,-76.5509 318.252,-77.7362 327.221,-83.3752 328.78,-76.5509"/>
</g>
<!-- Node17 -->
<g id="node34" class="node"><title>Node17</title>
<polygon fill="white" stroke="#bfbfbf" points="336,-58.5 336,-79.5 388,-79.5 388,-58.5 336,-58.5"/>
<text text-anchor="middle" x="362" y="-66.5" font-family="Helvetica,sans-Serif" font-size="10.00">sstream</text>
</g>
<!-- Node9&#45;&gt;Node17 -->
<g id="edge34" class="edge"><title>Node9&#45;&gt;Node17</title>
<path fill="none" stroke="midnightblue" d="M577.807,-117.902C574.827,-117.255 571.868,-116.616 569,-116 495.77,-100.282 474.308,-99.7498 398.347,-80.1852"/>
<polygon fill="midnightblue" stroke="midnightblue" points="398.852,-76.7002 388.293,-77.5678 397.089,-83.4744 398.852,-76.7002"/>
</g>
<!-- Node18 -->
<g id="node36" class="node"><title>Node18</title>
<polygon fill="white" stroke="#bfbfbf" points="405.5,-58.5 405.5,-79.5 446.5,-79.5 446.5,-58.5 405.5,-58.5"/>
<text text-anchor="middle" x="426" y="-66.5" font-family="Helvetica,sans-Serif" font-size="10.00">string</text>
</g>
<!-- Node9&#45;&gt;Node18 -->
<g id="edge36" class="edge"><title>Node9&#45;&gt;Node18</title>
<path fill="none" stroke="midnightblue" d="M578.611,-116.435C547.39,-108.042 502.928,-95.6032 456.205,-80.2416"/>
<polygon fill="midnightblue" stroke="midnightblue" points="457.113,-76.8553 446.519,-77.0254 454.907,-83.4986 457.113,-76.8553"/>
</g>
<!-- Node19 -->
<g id="node39" class="node"><title>Node19</title>
<polygon fill="white" stroke="#bfbfbf" points="464,-58.5 464,-79.5 524,-79.5 524,-58.5 464,-58.5"/>
<text text-anchor="middle" x="494" y="-66.5" font-family="Helvetica,sans-Serif" font-size="10.00">sys/stat.h</text>
</g>
<!-- Node9&#45;&gt;Node19 -->
<g id="edge40" class="edge"><title>Node9&#45;&gt;Node19</title>
<path fill="none" stroke="midnightblue" d="M596.363,-116.497C576.752,-107.397 548.154,-94.1273 526.167,-83.9253"/>
<polygon fill="midnightblue" stroke="midnightblue" points="527.435,-80.6554 516.891,-79.6212 524.488,-87.0051 527.435,-80.6554"/>
</g>
<!-- Node20 -->
<g id="node42" class="node"><title>Node20</title>
<polygon fill="white" stroke="#bfbfbf" points="541.5,-58.5 541.5,-79.5 616.5,-79.5 616.5,-58.5 541.5,-58.5"/>
<text text-anchor="middle" x="579" y="-66.5" font-family="Helvetica,sans-Serif" font-size="10.00">mm_malloc.h</text>
</g>
<!-- Node9&#45;&gt;Node20 -->
<g id="edge44" class="edge"><title>Node9&#45;&gt;Node20</title>
<path fill="none" stroke="midnightblue" d="M611.663,-116.362C606.194,-108.431 598.578,-97.3885 592.076,-87.9606"/>
<polygon fill="midnightblue" stroke="midnightblue" points="594.849,-85.8157 586.29,-79.5707 589.086,-89.7899 594.849,-85.8157"/>
</g>
<!-- Node21 -->
<g id="node44" class="node"><title>Node21</title>
<a xlink:href="../../da/d69/optionparser_8h.html" target="_top" xlink:title="This is the only file required to use The Lean Mean C++ Option Parser. Just #include it and you&#39;re se...">
<polygon fill="white" stroke="black" points="634,-58.5 634,-79.5 738,-79.5 738,-58.5 634,-58.5"/>
<text text-anchor="middle" x="686" y="-66.5" font-family="Helvetica,sans-Serif" font-size="10.00">blond/optionparser.h</text>
</a>
</g>
<!-- Node9&#45;&gt;Node21 -->
<g id="edge46" class="edge"><title>Node9&#45;&gt;Node21</title>
<path fill="none" stroke="midnightblue" d="M631.289,-116.362C641.017,-107.941 654.798,-96.0105 666.095,-86.2308"/>
<polygon fill="midnightblue" stroke="midnightblue" points="668.519,-88.7619 673.789,-79.5707 663.938,-83.4695 668.519,-88.7619"/>
</g>
<!-- Node22&#45;&gt;Node4 -->
<g id="edge50" class="edge"><title>Node22&#45;&gt;Node4</title>
<path fill="none" stroke="midnightblue" d="M966.695,-174.897C967.599,-152.673 969.175,-113.886 970.149,-89.9293"/>
<polygon fill="midnightblue" stroke="midnightblue" points="973.652,-89.9214 970.561,-79.7875 966.658,-89.637 973.652,-89.9214"/>
</g>
<!-- Node22&#45;&gt;Node6 -->
<g id="edge54" class="edge"><title>Node22&#45;&gt;Node6</title>
<path fill="none" stroke="midnightblue" d="M980.422,-174.774C996.87,-153.897 1022.8,-116.909 1033,-80 1035.6,-70.5753 1035.67,-67.4066 1033,-58 1030.19,-48.0813 1024.62,-38.2026 1019.11,-30.0804"/>
<polygon fill="midnightblue" stroke="midnightblue" points="1021.77,-27.7851 1013.06,-21.748 1016.1,-31.8969 1021.77,-27.7851"/>
</g>
<!-- Node22&#45;&gt;Node9 -->
<g id="edge52" class="edge"><title>Node22&#45;&gt;Node9</title>
<path fill="none" stroke="midnightblue" d="M906.743,-180.9C840.183,-168.432 733.242,-148.4 670.18,-136.587"/>
<polygon fill="midnightblue" stroke="midnightblue" points="670.545,-133.095 660.071,-134.693 669.256,-139.975 670.545,-133.095"/>
</g>
<!-- Node23&#45;&gt;Node8 -->
<g id="edge58" class="edge"><title>Node23&#45;&gt;Node8</title>
<path fill="none" stroke="midnightblue" d="M948.389,-281.11C936.588,-290.771 920.667,-302.791 906.977,-312.372"/>
<polygon fill="midnightblue" stroke="midnightblue" points="904.641,-309.729 898.367,-318.267 908.596,-315.505 904.641,-309.729"/>
</g>
<!-- Node23&#45;&gt;Node22 -->
<g id="edge60" class="edge"><title>Node23&#45;&gt;Node22</title>
<path fill="none" stroke="midnightblue" d="M965.237,-246.937C965.35,-238.807 965.488,-228.876 965.615,-219.705"/>
<polygon fill="midnightblue" stroke="midnightblue" points="969.118,-219.488 965.758,-209.441 962.119,-219.391 969.118,-219.488"/>
</g>
<!-- Node24&#45;&gt;Node4 -->
<g id="edge64" class="edge"><title>Node24&#45;&gt;Node4</title>
<path fill="none" stroke="midnightblue" d="M782.039,-181.438C793.328,-165.247 816.974,-134.254 844,-116 866.26,-100.965 893.949,-89.9882 917.786,-82.4423"/>
<polygon fill="midnightblue" stroke="midnightblue" points="918.847,-85.7778 927.395,-79.5171 916.809,-79.0812 918.847,-85.7778"/>
</g>
<!-- Node24&#45;&gt;Node9 -->
<g id="edge66" class="edge"><title>Node24&#45;&gt;Node9</title>
<path fill="none" stroke="midnightblue" d="M749.589,-181.412C723.526,-170.552 682.8,-153.583 653.762,-141.484"/>
<polygon fill="midnightblue" stroke="midnightblue" points="654.977,-138.199 644.4,-137.584 652.285,-144.66 654.977,-138.199"/>
</g>
<!-- Node25&#45;&gt;Node4 -->
<g id="edge74" class="edge"><title>Node25&#45;&gt;Node4</title>
<path fill="none" stroke="midnightblue" d="M630.961,-181.456C671.366,-166.338 748.531,-137.911 815,-116 851.482,-103.974 893.158,-91.4809 924.251,-82.4005"/>
<polygon fill="midnightblue" stroke="midnightblue" points="925.33,-85.7317 933.954,-79.5771 923.374,-79.0104 925.33,-85.7317"/>
</g>
<!-- Node25&#45;&gt;Node9 -->
<g id="edge76" class="edge"><title>Node25&#45;&gt;Node9</title>
<path fill="none" stroke="midnightblue" d="M605.642,-181.267C607.902,-172.085 611.218,-158.615 613.98,-147.392"/>
<polygon fill="midnightblue" stroke="midnightblue" points="617.415,-148.08 616.407,-137.534 610.618,-146.407 617.415,-148.08"/>
</g>
<!-- Node26 -->
<g id="node65" class="node"><title>Node26</title>
<polygon fill="white" stroke="#bfbfbf" points="501.5,-116.5 501.5,-137.5 560.5,-137.5 560.5,-116.5 501.5,-116.5"/>
<text text-anchor="middle" x="531" y="-124.5" font-family="Helvetica,sans-Serif" font-size="10.00">functional</text>
</g>
<!-- Node25&#45;&gt;Node26 -->
<g id="edge78" class="edge"><title>Node25&#45;&gt;Node26</title>
<path fill="none" stroke="midnightblue" d="M591.111,-181.267C579.997,-171.233 563.209,-156.078 550.198,-144.331"/>
<polygon fill="midnightblue" stroke="midnightblue" points="552.436,-141.637 542.668,-137.534 547.745,-146.833 552.436,-141.637"/>
</g>
<!-- Node27&#45;&gt;Node2 -->
<g id="edge82" class="edge"><title>Node27&#45;&gt;Node2</title>
<path fill="none" stroke="midnightblue" d="M1254.1,-376.497C1233.2,-367.315 1202.64,-353.889 1179.34,-343.652"/>
<polygon fill="midnightblue" stroke="midnightblue" points="1180.74,-340.44 1170.17,-339.621 1177.92,-346.848 1180.74,-340.44"/>
</g>
<!-- Node27&#45;&gt;Node4 -->
<g id="edge84" class="edge"><title>Node27&#45;&gt;Node4</title>
<path fill="none" stroke="midnightblue" d="M1272.39,-376.481C1261.82,-355.638 1240,-307.359 1240,-264 1240,-264 1240,-264 1240,-192 1240,-145.155 1103.37,-102.608 1024.86,-82.0253"/>
<polygon fill="midnightblue" stroke="midnightblue" points="1025.68,-78.6219 1015.12,-79.5064 1023.92,-85.3989 1025.68,-78.6219"/>
</g>
<!-- Node27&#45;&gt;Node9 -->
<g id="edge102" class="edge"><title>Node27&#45;&gt;Node9</title>
<path fill="none" stroke="midnightblue" d="M1266.36,-376.496C1219.73,-334.453 1048.21,-180.266 1034,-174 969.905,-145.743 766.169,-133.367 670.083,-128.996"/>
<polygon fill="midnightblue" stroke="midnightblue" points="670.166,-125.496 660.021,-128.549 669.856,-132.489 670.166,-125.496"/>
</g>
<!-- Node28 -->
<g id="node71" class="node"><title>Node28</title>
<a xlink:href="../../d8/dcd/exp_8h.html" target="_top" xlink:title="blond/exp.h">
<polygon fill="white" stroke="black" points="1305.5,-318.5 1305.5,-339.5 1372.5,-339.5 1372.5,-318.5 1305.5,-318.5"/>
<text text-anchor="middle" x="1339" y="-326.5" font-family="Helvetica,sans-Serif" font-size="10.00">blond/exp.h</text>
</a>
</g>
<!-- Node27&#45;&gt;Node28 -->
<g id="edge86" class="edge"><title>Node27&#45;&gt;Node28</title>
<path fill="none" stroke="midnightblue" d="M1289.19,-376.362C1297.96,-368.023 1310.35,-356.242 1320.58,-346.516"/>
<polygon fill="midnightblue" stroke="midnightblue" points="1323.05,-348.998 1327.88,-339.571 1318.22,-343.925 1323.05,-348.998"/>
</g>
<!-- Node30 -->
<g id="node75" class="node"><title>Node30</title>
<polygon fill="white" stroke="#bfbfbf" points="1343,-116.5 1343,-137.5 1387,-137.5 1387,-116.5 1343,-116.5"/>
<text text-anchor="middle" x="1365" y="-124.5" font-family="Helvetica,sans-Serif" font-size="10.00">cmath</text>
</g>
<!-- Node27&#45;&gt;Node30 -->
<g id="edge104" class="edge"><title>Node27&#45;&gt;Node30</title>
<path fill="none" stroke="midnightblue" d="M1276.75,-376.387C1273.42,-343.736 1267.1,-242.837 1306,-174 1313.14,-161.372 1325.14,-150.872 1336.47,-143.024"/>
<polygon fill="midnightblue" stroke="midnightblue" points="1338.42,-145.928 1344.91,-137.548 1334.61,-140.057 1338.42,-145.928"/>
</g>
<!-- Node32 -->
<g id="node79" class="node"><title>Node32</title>
<a xlink:href="../../d1/d3d/sin_8h.html" target="_top" xlink:title="blond/sin.h">
<polygon fill="white" stroke="black" points="1390,-318.5 1390,-339.5 1454,-339.5 1454,-318.5 1390,-318.5"/>
<text text-anchor="middle" x="1422" y="-326.5" font-family="Helvetica,sans-Serif" font-size="10.00">blond/sin.h</text>
</a>
</g>
<!-- Node27&#45;&gt;Node32 -->
<g id="edge94" class="edge"><title>Node27&#45;&gt;Node32</title>
<path fill="none" stroke="midnightblue" d="M1304.08,-376.497C1327.07,-367.234 1360.8,-353.65 1386.3,-343.379"/>
<polygon fill="midnightblue" stroke="midnightblue" points="1387.66,-346.604 1395.63,-339.621 1385.05,-340.111 1387.66,-346.604"/>
</g>
<!-- Node34 -->
<g id="node87" class="node"><title>Node34</title>
<polygon fill="white" stroke="#bfbfbf" points="1471.5,-318.5 1471.5,-339.5 1520.5,-339.5 1520.5,-318.5 1471.5,-318.5"/>
<text text-anchor="middle" x="1496" y="-326.5" font-family="Helvetica,sans-Serif" font-size="10.00">cassert</text>
</g>
<!-- Node27&#45;&gt;Node34 -->
<g id="edge106" class="edge"><title>Node27&#45;&gt;Node34</title>
<path fill="none" stroke="midnightblue" d="M1323.49,-376.423C1358.89,-367.972 1409.43,-355.426 1461.46,-340.332"/>
<polygon fill="midnightblue" stroke="midnightblue" points="1462.58,-343.652 1471.19,-337.484 1460.61,-336.934 1462.58,-343.652"/>
</g>
<!-- Node35 -->
<g id="node89" class="node"><title>Node35</title>
<a xlink:href="../../d1/db0/openmp_8h.html" target="_top" xlink:title="blond/openmp.h">
<polygon fill="white" stroke="black" points="1538,-318.5 1538,-339.5 1624,-339.5 1624,-318.5 1538,-318.5"/>
<text text-anchor="middle" x="1581" y="-326.5" font-family="Helvetica,sans-Serif" font-size="10.00">blond/openmp.h</text>
</a>
</g>
<!-- Node27&#45;&gt;Node35 -->
<g id="edge108" class="edge"><title>Node27&#45;&gt;Node35</title>
<path fill="none" stroke="midnightblue" d="M1336.4,-376.464C1385.03,-367.599 1456.37,-354.385 1527.81,-340.208"/>
<polygon fill="midnightblue" stroke="midnightblue" points="1528.76,-343.587 1537.89,-338.201 1527.39,-336.721 1528.76,-343.587"/>
</g>
<!-- Node29 -->
<g id="node73" class="node"><title>Node29</title>
<a xlink:href="../../df/de1/vdtcore__common_8h.html" target="_top" xlink:title="vdtcore_common.h">
<polygon fill="white" stroke="black" points="1315,-181.5 1315,-202.5 1415,-202.5 1415,-181.5 1315,-181.5"/>
<text text-anchor="middle" x="1365" y="-189.5" font-family="Helvetica,sans-Serif" font-size="10.00">vdtcore_common.h</text>
</a>
</g>
<!-- Node28&#45;&gt;Node29 -->
<g id="edge88" class="edge"><title>Node28&#45;&gt;Node29</title>
<path fill="none" stroke="midnightblue" d="M1343.36,-318.363C1347.04,-308.959 1352.15,-294.788 1355,-282 1360.21,-258.619 1362.76,-231.186 1363.97,-212.808"/>
<polygon fill="midnightblue" stroke="midnightblue" points="1367.48,-212.84 1364.57,-202.653 1360.49,-212.432 1367.48,-212.84"/>
</g>
<!-- Node31 -->
<g id="node77" class="node"><title>Node31</title>
<polygon fill="white" stroke="#bfbfbf" points="1306,-253.5 1306,-274.5 1346,-274.5 1346,-253.5 1306,-253.5"/>
<text text-anchor="middle" x="1326" y="-261.5" font-family="Helvetica,sans-Serif" font-size="10.00">limits</text>
</g>
<!-- Node28&#45;&gt;Node31 -->
<g id="edge92" class="edge"><title>Node28&#45;&gt;Node31</title>
<path fill="none" stroke="midnightblue" d="M1336.85,-318.267C1335.02,-309.085 1332.32,-295.615 1330.08,-284.392"/>
<polygon fill="midnightblue" stroke="midnightblue" points="1333.5,-283.653 1328.11,-274.534 1326.64,-285.026 1333.5,-283.653"/>
</g>
<!-- Node29&#45;&gt;Node30 -->
<g id="edge90" class="edge"><title>Node29&#45;&gt;Node30</title>
<path fill="none" stroke="midnightblue" d="M1365,-181.267C1365,-172.18 1365,-158.892 1365,-147.74"/>
<polygon fill="midnightblue" stroke="midnightblue" points="1368.5,-147.534 1365,-137.534 1361.5,-147.534 1368.5,-147.534"/>
</g>
<!-- Node33 -->
<g id="node81" class="node"><title>Node33</title>
<a xlink:href="../../dc/dfa/sincos_8h.html" target="_top" xlink:title="sincos.h">
<polygon fill="white" stroke="black" points="1401.5,-253.5 1401.5,-274.5 1454.5,-274.5 1454.5,-253.5 1401.5,-253.5"/>
<text text-anchor="middle" x="1428" y="-261.5" font-family="Helvetica,sans-Serif" font-size="10.00">sincos.h</text>
</a>
</g>
<!-- Node32&#45;&gt;Node33 -->
<g id="edge96" class="edge"><title>Node32&#45;&gt;Node33</title>
<path fill="none" stroke="midnightblue" d="M1422.99,-318.267C1423.83,-309.18 1425.06,-295.892 1426.09,-284.74"/>
<polygon fill="midnightblue" stroke="midnightblue" points="1429.59,-284.813 1427.03,-274.534 1422.62,-284.17 1429.59,-284.813"/>
</g>
<!-- Node33&#45;&gt;Node29 -->
<g id="edge98" class="edge"><title>Node33&#45;&gt;Node29</title>
<path fill="none" stroke="midnightblue" d="M1418.7,-253.376C1408.84,-242.103 1393.07,-224.075 1381.16,-210.468"/>
<polygon fill="midnightblue" stroke="midnightblue" points="1383.55,-207.888 1374.33,-202.667 1378.29,-212.498 1383.55,-207.888"/>
</g>
<!-- Node33&#45;&gt;Node30 -->
<g id="edge100" class="edge"><title>Node33&#45;&gt;Node30</title>
<path fill="none" stroke="midnightblue" d="M1430.23,-253.307C1433.33,-235.685 1437.21,-199.92 1424,-174 1417.51,-161.261 1405.82,-150.84 1394.56,-143.076"/>
<polygon fill="midnightblue" stroke="midnightblue" points="1396.42,-140.114 1386.11,-137.663 1392.64,-146.007 1396.42,-140.114"/>
</g>
</g>
</svg>
        <g id="navigator" transform="translate(0 0)" fill="#404254">
                <rect fill="#f2f5e9" fill-opacity="0.5" stroke="#606060" stroke-width=".5" x="0" y="0" width="60" height="60"/>
                <use id="zoomplus" xlink:href="#zoomPlus" x="17" y="9" onmousedown="handleZoom(evt,'in')"/>
                <use id="zoomminus" xlink:href="#zoomMin" x="42" y="9" onmousedown="handleZoom(evt,'out')"/>
                <use id="reset" xlink:href="#resetDef" x="30" y="36" onmousedown="handleReset()"/>
                <g id="arrowUp" xlink:href="#dirArrow" transform="translate(30 24)" onmousedown="handlePan(0,-1)">
                  <use xlink:href="#rim" fill="#404040">
                        <set attributeName="fill" to="#808080" begin="arrowUp.mouseover" end="arrowUp.mouseout"/>
                  </use>
                  <path fill="none" stroke="white" stroke-width="1.5" d="M0,-3.0v7 M-2.5,-0.5L0,-3.0L2.5,-0.5"/>
                </g>
                <g id="arrowRight" xlink:href="#dirArrow" transform="rotate(90) translate(36 -43)" onmousedown="handlePan(1,0)">
                  <use xlink:href="#rim" fill="#404040">
                        <set attributeName="fill" to="#808080" begin="arrowRight.mouseover" end="arrowRight.mouseout"/>
                  </use>
                  <path fill="none" stroke="white" stroke-width="1.5" d="M0,-3.0v7 M-2.5,-0.5L0,-3.0L2.5,-0.5"/>
                </g>
                <g id="arrowDown" xlink:href="#dirArrow" transform="rotate(180) translate(-30 -48)" onmousedown="handlePan(0,1)">
                  <use xlink:href="#rim" fill="#404040">
                        <set attributeName="fill" to="#808080" begin="arrowDown.mouseover" end="arrowDown.mouseout"/>
                  </use>
                  <path fill="none" stroke="white" stroke-width="1.5" d="M0,-3.0v7 M-2.5,-0.5L0,-3.0L2.5,-0.5"/>
                </g>
                <g id="arrowLeft" xlink:href="#dirArrow" transform="rotate(270) translate(-36 17)" onmousedown="handlePan(-1,0)">
                  <use xlink:href="#rim" fill="#404040">
                        <set attributeName="fill" to="#808080" begin="arrowLeft.mouseover" end="arrowLeft.mouseout"/>
                  </use>
                  <path fill="none" stroke="white" stroke-width="1.5" d="M0,-3.0v7 M-2.5,-0.5L0,-3.0L2.5,-0.5"/>
                </g>
        </g>
        <svg viewBox="0 0 15 15" width="100%" height="30px" preserveAspectRatio="xMaxYMin meet">
         <g id="arrow_out" transform="scale(0.3 0.3)">
          <a xlink:href="LHCNoiseFB_8cpp__incl_org.svg" target="_base">
           <rect id="button" ry="5" rx="5" y="6" x="6" height="38" width="38"
                fill="#f2f5e9" fill-opacity="0.5" stroke="#606060" stroke-width="1.0"/>
           <path id="arrow"
             d="M 11.500037,31.436501 C 11.940474,20.09759 22.043105,11.32322 32.158766,21.979434 L 37.068811,17.246167 C 37.068811,17.246167 37.088388,32 37.088388,32 L 22.160133,31.978069 C 22.160133,31.978069 26.997745,27.140456 26.997745,27.140456 C 18.528582,18.264221 13.291696,25.230495 11.500037,31.436501 z"
             style="fill:#404040;"/>
          </a>
         </g>
        </svg>
</svg>
