<?xml version="1.0" encoding="UTF-8" standalone="no"?>
<!DOCTYPE svg PUBLIC "-//W3C//DTD SVG 1.1//EN"
 "http://www.w3.org/Graphics/SVG/1.1/DTD/svg11.dtd">
<!-- Generated by graphviz version 2.26.3 (20100126.1600)
 -->
<!-- Title: LHCNoiseFB.cpp Pages: 1 -->
<svg width="1466pt" height="464pt"
 viewBox="0.00 0.00 1465.70 464.00" xmlns="http://www.w3.org/2000/svg" xmlns:xlink="http://www.w3.org/1999/xlink">
<g id="graph1" class="graph" transform="scale(1 1) rotate(0) translate(4 460)">
<title>LHCNoiseFB.cpp</title>
<polygon fill="white" stroke="white" points="-4,5 -4,-460 1462.7,-460 1462.7,5 -4,5"/>
<!-- Node1 -->
<g id="node1" class="node"><title>Node1</title>
<polygon fill="#bfbfbf" stroke="black" points="872.806,-434.5 872.806,-455.5 966.806,-455.5 966.806,-434.5 872.806,-434.5"/>
<text text-anchor="middle" x="919.806" y="-442.5" font-family="Helvetica,sans-Serif" font-size="10.00">LHCNoiseFB.cpp</text>
</g>
<!-- Node2 -->
<g id="node3" class="node"><title>Node2</title>
<polygon fill="white" stroke="#bfbfbf" points="1216.81,-116.5 1216.81,-137.5 1272.81,-137.5 1272.81,-116.5 1216.81,-116.5"/>
<text text-anchor="middle" x="1244.81" y="-124.5" font-family="Helvetica,sans-Serif" font-size="10.00">algorithm</text>
</g>
<!-- Node1&#45;&gt;Node2 -->
<g id="edge2" class="edge"><title>Node1&#45;&gt;Node2</title>
<path fill="none" stroke="midnightblue" d="M966.896,-439.939C1029.08,-430.348 1130.81,-403.304 1130.81,-329 1130.81,-329 1130.81,-329 1130.81,-264 1130.81,-221.836 1133.93,-206.486 1160.81,-174 1173.01,-159.255 1191.1,-148.296 1207.38,-140.687"/>
<polygon fill="midnightblue" stroke="midnightblue" points="1208.94,-143.821 1216.69,-136.591 1206.13,-137.413 1208.94,-143.821"/>
</g>
<!-- Node3 -->
<g id="node5" class="node"><title>Node3</title>
<a xlink:href="../../d2/d6f/constants_8h.html" target="_top" xlink:title="blond/constants.h">
<polygon fill="white" stroke="black" points="790.806,-318.5 790.806,-339.5 884.806,-339.5 884.806,-318.5 790.806,-318.5"/>
<text text-anchor="middle" x="837.806" y="-326.5" font-family="Helvetica,sans-Serif" font-size="10.00">blond/constants.h</text>
</a>
</g>
<!-- Node1&#45;&gt;Node3 -->
<g id="edge4" class="edge"><title>Node1&#45;&gt;Node3</title>
<path fill="none" stroke="midnightblue" d="M912.239,-434.295C898.326,-414.613 868.521,-372.45 851.143,-347.867"/>
<polygon fill="midnightblue" stroke="midnightblue" points="853.986,-345.825 845.355,-339.679 848.269,-349.865 853.986,-345.825"/>
</g>
<!-- Node7 -->
<g id="node13" class="node"><title>Node7</title>
<a xlink:href="../../d5/d87/globals_8h.html" target="_top" xlink:title="blond/globals.h">
<polygon fill="white" stroke="black" points="536.806,-376.5 536.806,-397.5 618.806,-397.5 618.806,-376.5 536.806,-376.5"/>
<text text-anchor="middle" x="577.806" y="-384.5" font-family="Helvetica,sans-Serif" font-size="10.00">blond/globals.h</text>
</a>
</g>
<!-- Node1&#45;&gt;Node7 -->
<g id="edge12" class="edge"><title>Node1&#45;&gt;Node7</title>
<path fill="none" stroke="midnightblue" d="M872.611,-436.996C808.69,-426.156 695.022,-406.879 629.066,-395.693"/>
<polygon fill="midnightblue" stroke="midnightblue" points="629.35,-392.191 618.905,-393.97 628.179,-399.093 629.35,-392.191"/>
</g>
<!-- Node24 -->
<g id="node59" class="node"><title>Node24</title>
<a xlink:href="../../d4/dba/LHCNoiseFB_8h.html" target="_top" xlink:title="blond/llrf/LHCNoiseFB.h">
<polygon fill="white" stroke="black" points="858.306,-181.5 858.306,-202.5 981.306,-202.5 981.306,-181.5 858.306,-181.5"/>
<text text-anchor="middle" x="919.806" y="-189.5" font-family="Helvetica,sans-Serif" font-size="10.00">blond/llrf/LHCNoiseFB.h</text>
</a>
</g>
<!-- Node1&#45;&gt;Node24 -->
<g id="edge70" class="edge"><title>Node1&#45;&gt;Node24</title>
<path fill="none" stroke="midnightblue" d="M919.806,-434.451C919.806,-396.196 919.806,-264.307 919.806,-212.821"/>
<polygon fill="midnightblue" stroke="midnightblue" points="923.306,-212.594 919.806,-202.594 916.306,-212.594 923.306,-212.594"/>
</g>
<!-- Node26 -->
<g id="node65" class="node"><title>Node26</title>
<a xlink:href="../../d2/de2/math__functions_8h.html" target="_top" xlink:title="blond/math_functions.h">
<polygon fill="white" stroke="black" points="1158.81,-253.5 1158.81,-274.5 1276.81,-274.5 1276.81,-253.5 1158.81,-253.5"/>
<text text-anchor="middle" x="1217.81" y="-261.5" font-family="Helvetica,sans-Serif" font-size="10.00">blond/math_functions.h</text>
</a>
</g>
<!-- Node1&#45;&gt;Node26 -->
<g id="edge78" class="edge"><title>Node1&#45;&gt;Node26</title>
<path fill="none" stroke="midnightblue" d="M967.185,-439.812C1024.62,-432.73 1117.18,-418.526 1144.81,-398 1183.25,-369.437 1203.81,-314.383 1212.56,-284.502"/>
<polygon fill="midnightblue" stroke="midnightblue" points="1215.97,-285.3 1215.27,-274.728 1209.23,-283.433 1215.97,-285.3"/>
</g>
<!-- Node4 -->
<g id="node7" class="node"><title>Node4</title>
<a xlink:href="../../d2/d2c/configuration_8h.html" target="_top" xlink:title="blond/configuration.h">
<polygon fill="white" stroke="black" points="853.306,-58.5 853.306,-79.5 960.306,-79.5 960.306,-58.5 853.306,-58.5"/>
<text text-anchor="middle" x="906.806" y="-66.5" font-family="Helvetica,sans-Serif" font-size="10.00">blond/configuration.h</text>
</a>
</g>
<!-- Node3&#45;&gt;Node4 -->
<g id="edge6" class="edge"><title>Node3&#45;&gt;Node4</title>
<path fill="none" stroke="midnightblue" d="M837.12,-318.199C835.817,-292.564 834.357,-226.286 849.806,-174 859.337,-141.743 879.665,-108.22 893.287,-87.9783"/>
<polygon fill="midnightblue" stroke="midnightblue" points="896.223,-89.8864 899.011,-79.665 890.457,-85.9166 896.223,-89.8864"/>
</g>
<!-- Node5 -->
<g id="node9" class="node"><title>Node5</title>
<polygon fill="white" stroke="#bfbfbf" points="880.306,-0.5 880.306,-21.5 933.306,-21.5 933.306,-0.5 880.306,-0.5"/>
<text text-anchor="middle" x="906.806" y="-8.5" font-family="Helvetica,sans-Serif" font-size="10.00">complex</text>
</g>
<!-- Node4&#45;&gt;Node5 -->
<g id="edge8" class="edge"><title>Node4&#45;&gt;Node5</title>
<path fill="none" stroke="midnightblue" d="M906.806,-58.3619C906.806,-50.9219 906.806,-40.7427 906.806,-31.7276"/>
<polygon fill="midnightblue" stroke="midnightblue" points="910.306,-31.5706 906.806,-21.5707 903.306,-31.5707 910.306,-31.5706"/>
</g>
<!-- Node6 -->
<g id="node11" class="node"><title>Node6</title>
<polygon fill="white" stroke="#bfbfbf" points="449.806,-0.5 449.806,-21.5 493.806,-21.5 493.806,-0.5 449.806,-0.5"/>
<text text-anchor="middle" x="471.806" y="-8.5" font-family="Helvetica,sans-Serif" font-size="10.00">vector</text>
</g>
<!-- Node4&#45;&gt;Node6 -->
<g id="edge10" class="edge"><title>Node4&#45;&gt;Node6</title>
<path fill="none" stroke="midnightblue" d="M853.065,-59.2949C850.274,-58.8442 847.508,-58.4097 844.806,-58 719.187,-38.9543 568.937,-21.6974 504.149,-14.5214"/>
<polygon fill="midnightblue" stroke="midnightblue" points="504.466,-11.0352 494.143,-13.4181 503.699,-17.993 504.466,-11.0352"/>
</g>
<!-- Node8 -->
<g id="node15" class="node"><title>Node8</title>
<a xlink:href="../../d7/d74/Beams_8h.html" target="_top" xlink:title="blond/beams/Beams.h">
<polygon fill="white" stroke="black" points="435.806,-318.5 435.806,-339.5 549.806,-339.5 549.806,-318.5 435.806,-318.5"/>
<text text-anchor="middle" x="492.806" y="-326.5" font-family="Helvetica,sans-Serif" font-size="10.00">blond/beams/Beams.h</text>
</a>
</g>
<!-- Node7&#45;&gt;Node8 -->
<g id="edge14" class="edge"><title>Node7&#45;&gt;Node8</title>
<path fill="none" stroke="midnightblue" d="M562.216,-376.362C549.515,-367.696 531.368,-355.313 516.814,-345.382"/>
<polygon fill="midnightblue" stroke="midnightblue" points="518.53,-342.316 508.298,-339.571 514.585,-348.098 518.53,-342.316"/>
</g>
<!-- Node21 -->
<g id="node44" class="node"><title>Node21</title>
<a xlink:href="../../d5/d34/GeneralParameters_8h.html" target="_top" xlink:title="blond/input_parameters\l/GeneralParameters.h">
<polygon fill="white" stroke="black" points="442.806,-175 442.806,-209 560.806,-209 560.806,-175 442.806,-175"/>
<text text-anchor="start" x="450.806" y="-196" font-family="Helvetica,sans-Serif" font-size="10.00">blond/input_parameters</text>
<text text-anchor="middle" x="501.806" y="-183" font-family="Helvetica,sans-Serif" font-size="10.00">/GeneralParameters.h</text>
</a>
</g>
<!-- Node7&#45;&gt;Node21 -->
<g id="edge66" class="edge"><title>Node7&#45;&gt;Node21</title>
<path fill="none" stroke="midnightblue" d="M575.358,-376.08C572.149,-362.338 566.069,-338.099 558.806,-318 546.056,-282.717 527.634,-243.563 515.215,-218.409"/>
<polygon fill="midnightblue" stroke="midnightblue" points="518.206,-216.563 510.614,-209.173 511.941,-219.685 518.206,-216.563"/>
</g>
<!-- Node22 -->
<g id="node49" class="node"><title>Node22</title>
<a xlink:href="../../d6/db7/RfParameters_8h.html" target="_top" xlink:title="blond/input_parameters\l/RfParameters.h">
<polygon fill="white" stroke="black" points="361.806,-247 361.806,-281 479.806,-281 479.806,-247 361.806,-247"/>
<text text-anchor="start" x="369.806" y="-268" font-family="Helvetica,sans-Serif" font-size="10.00">blond/input_parameters</text>
<text text-anchor="middle" x="420.806" y="-255" font-family="Helvetica,sans-Serif" font-size="10.00">/RfParameters.h</text>
</a>
</g>
<!-- Node7&#45;&gt;Node22 -->
<g id="edge68" class="edge"><title>Node7&#45;&gt;Node22</title>
<path fill="none" stroke="midnightblue" d="M536.555,-379.521C496.767,-371.407 440.599,-357.27 426.806,-340 416.069,-326.555 414.689,-307.167 415.932,-291.339"/>
<polygon fill="midnightblue" stroke="midnightblue" points="419.448,-291.404 417.129,-281.066 412.495,-290.594 419.448,-291.404"/>
</g>
<!-- Node23 -->
<g id="node53" class="node"><title>Node23</title>
<a xlink:href="../../dc/df2/Slices_8h.html" target="_top" xlink:title="blond/beams/Slices.h">
<polygon fill="white" stroke="black" points="616.806,-181.5 616.806,-202.5 726.806,-202.5 726.806,-181.5 616.806,-181.5"/>
<text text-anchor="middle" x="671.806" y="-189.5" font-family="Helvetica,sans-Serif" font-size="10.00">blond/beams/Slices.h</text>
</a>
</g>
<!-- Node7&#45;&gt;Node23 -->
<g id="edge60" class="edge"><title>Node7&#45;&gt;Node23</title>
<path fill="none" stroke="midnightblue" d="M582.994,-376.238C598.109,-344.882 642.288,-253.235 662.052,-212.234"/>
<polygon fill="midnightblue" stroke="midnightblue" points="665.329,-213.497 666.518,-202.969 659.023,-210.457 665.329,-213.497"/>
</g>
<!-- Node8&#45;&gt;Node4 -->
<g id="edge16" class="edge"><title>Node8&#45;&gt;Node4</title>
<path fill="none" stroke="midnightblue" d="M519.421,-318.398C565.318,-299.592 661.573,-257.839 735.806,-210 795.526,-171.514 858.054,-115.195 888.274,-86.7883"/>
<polygon fill="midnightblue" stroke="midnightblue" points="891.058,-88.9721 895.911,-79.5542 886.244,-83.8899 891.058,-88.9721"/>
</g>
<!-- Node9 -->
<g id="node18" class="node"><title>Node9</title>
<a xlink:href="../../de/df0/utilities_8h.html" target="_top" xlink:title="blond/utilities.h">
<polygon fill="white" stroke="black" points="547.806,-116.5 547.806,-137.5 629.806,-137.5 629.806,-116.5 547.806,-116.5"/>
<text text-anchor="middle" x="588.806" y="-124.5" font-family="Helvetica,sans-Serif" font-size="10.00">blond/utilities.h</text>
</a>
</g>
<!-- Node8&#45;&gt;Node9 -->
<g id="edge18" class="edge"><title>Node8&#45;&gt;Node9</title>
<path fill="none" stroke="midnightblue" d="M501.64,-318.254C517.656,-298.228 551.517,-253.296 569.806,-210 578.394,-189.67 583.427,-164.823 586.131,-147.642"/>
<polygon fill="midnightblue" stroke="midnightblue" points="589.618,-147.982 587.585,-137.584 582.69,-146.98 589.618,-147.982"/>
</g>
<!-- Node8&#45;&gt;Node21 -->
<g id="edge46" class="edge"><title>Node8&#45;&gt;Node21</title>
<path fill="none" stroke="midnightblue" d="M493.512,-318.25C494.893,-297.239 497.987,-250.131 499.981,-219.776"/>
<polygon fill="midnightblue" stroke="midnightblue" points="503.498,-219.637 500.661,-209.429 496.513,-219.178 503.498,-219.637"/>
</g>
<!-- Node8&#45;&gt;Node22 -->
<g id="edge54" class="edge"><title>Node8&#45;&gt;Node22</title>
<path fill="none" stroke="midnightblue" d="M475.75,-318.267C465.327,-310.142 452.144,-298.659 441.218,-288.347"/>
<polygon fill="midnightblue" stroke="midnightblue" points="443.354,-285.544 433.732,-281.11 438.489,-290.577 443.354,-285.544"/>
</g>
<!-- Node9&#45;&gt;Node4 -->
<g id="edge40" class="edge"><title>Node9&#45;&gt;Node4</title>
<path fill="none" stroke="midnightblue" d="M630.053,-119.477C684.21,-109.599 779.831,-92.1589 843.266,-80.5891"/>
<polygon fill="midnightblue" stroke="midnightblue" points="843.949,-84.0222 853.159,-78.7846 842.693,-77.1358 843.949,-84.0222"/>
</g>
<!-- Node9&#45;&gt;Node6 -->
<g id="edge38" class="edge"><title>Node9&#45;&gt;Node6</title>
<path fill="none" stroke="midnightblue" d="M548.497,-116.368C528.517,-109.166 505.569,-97.664 490.806,-80 479.504,-66.4768 474.893,-46.7563 473.029,-31.8577"/>
<polygon fill="midnightblue" stroke="midnightblue" points="476.485,-31.2196 472.073,-21.587 469.515,-31.8684 476.485,-31.2196"/>
</g>
<!-- Node10 -->
<g id="node20" class="node"><title>Node10</title>
<polygon fill="white" stroke="#bfbfbf" points="135.806,-58.5 135.806,-79.5 181.806,-79.5 181.806,-58.5 135.806,-58.5"/>
<text text-anchor="middle" x="158.806" y="-66.5" font-family="Helvetica,sans-Serif" font-size="10.00">chrono</text>
</g>
<!-- Node9&#45;&gt;Node10 -->
<g id="edge20" class="edge"><title>Node9&#45;&gt;Node10</title>
<path fill="none" stroke="midnightblue" d="M547.636,-125.038C476.625,-121.03 326.572,-109.817 192.121,-79.916"/>
<polygon fill="midnightblue" stroke="midnightblue" points="192.584,-76.4322 182.058,-77.6358 191.037,-83.2592 192.584,-76.4322"/>
</g>
<!-- Node11 -->
<g id="node22" class="node"><title>Node11</title>
<polygon fill="white" stroke="#bfbfbf" points="199.306,-58.5 199.306,-79.5 242.306,-79.5 242.306,-58.5 199.306,-58.5"/>
<text text-anchor="middle" x="220.806" y="-66.5" font-family="Helvetica,sans-Serif" font-size="10.00">cstdio</text>
</g>
<!-- Node9&#45;&gt;Node11 -->
<g id="edge22" class="edge"><title>Node9&#45;&gt;Node11</title>
<path fill="none" stroke="midnightblue" d="M547.687,-124.124C485.394,-119.153 363.41,-107.016 252.594,-80.0788"/>
<polygon fill="midnightblue" stroke="midnightblue" points="253.141,-76.6086 242.592,-77.5992 251.456,-83.4029 253.141,-76.6086"/>
</g>
<!-- Node12 -->
<g id="node24" class="node"><title>Node12</title>
<polygon fill="white" stroke="#bfbfbf" points="259.306,-58.5 259.306,-79.5 304.306,-79.5 304.306,-58.5 259.306,-58.5"/>
<text text-anchor="middle" x="281.806" y="-66.5" font-family="Helvetica,sans-Serif" font-size="10.00">cstdlib</text>
</g>
<!-- Node9&#45;&gt;Node12 -->
<g id="edge24" class="edge"><title>Node9&#45;&gt;Node12</title>
<path fill="none" stroke="midnightblue" d="M547.654,-122.243C495.27,-115.697 401.94,-102.388 314.195,-80.0565"/>
<polygon fill="midnightblue" stroke="midnightblue" points="314.911,-76.6265 304.353,-77.5069 313.155,-83.4028 314.911,-76.6265"/>
</g>
<!-- Node13 -->
<g id="node26" class="node"><title>Node13</title>
<polygon fill="white" stroke="#bfbfbf" points="321.806,-58.5 321.806,-79.5 371.806,-79.5 371.806,-58.5 321.806,-58.5"/>
<text text-anchor="middle" x="346.806" y="-66.5" font-family="Helvetica,sans-Serif" font-size="10.00">fstream</text>
</g>
<!-- Node9&#45;&gt;Node13 -->
<g id="edge26" class="edge"><title>Node9&#45;&gt;Node13</title>
<path fill="none" stroke="midnightblue" d="M547.489,-118.816C507.379,-110.616 444.615,-97.1102 381.672,-80.0765"/>
<polygon fill="midnightblue" stroke="midnightblue" points="382.55,-76.688 371.98,-77.4256 380.703,-83.44 382.55,-76.688"/>
</g>
<!-- Node14 -->
<g id="node28" class="node"><title>Node14</title>
<polygon fill="white" stroke="#bfbfbf" points="389.806,-58.5 389.806,-79.5 443.806,-79.5 443.806,-58.5 389.806,-58.5"/>
<text text-anchor="middle" x="416.806" y="-66.5" font-family="Helvetica,sans-Serif" font-size="10.00">iostream</text>
</g>
<!-- Node9&#45;&gt;Node14 -->
<g id="edge28" class="edge"><title>Node9&#45;&gt;Node14</title>
<path fill="none" stroke="midnightblue" d="M557.658,-116.497C528.395,-106.629 484.588,-91.8568 453.612,-81.4112"/>
<polygon fill="midnightblue" stroke="midnightblue" points="454.634,-78.0624 444.04,-78.1835 452.397,-84.6954 454.634,-78.0624"/>
</g>
<!-- Node15 -->
<g id="node30" class="node"><title>Node15</title>
<polygon fill="white" stroke="#bfbfbf" points="499.306,-58.5 499.306,-79.5 546.306,-79.5 546.306,-58.5 499.306,-58.5"/>
<text text-anchor="middle" x="522.806" y="-66.5" font-family="Helvetica,sans-Serif" font-size="10.00">iterator</text>
</g>
<!-- Node9&#45;&gt;Node15 -->
<g id="edge30" class="edge"><title>Node9&#45;&gt;Node15</title>
<path fill="none" stroke="midnightblue" d="M576.701,-116.362C567.118,-107.941 553.542,-96.0105 542.413,-86.2308"/>
<polygon fill="midnightblue" stroke="midnightblue" points="544.657,-83.5427 534.835,-79.5707 540.036,-88.8009 544.657,-83.5427"/>
</g>
<!-- Node16 -->
<g id="node32" class="node"><title>Node16</title>
<polygon fill="white" stroke="#bfbfbf" points="563.806,-58.5 563.806,-79.5 615.806,-79.5 615.806,-58.5 563.806,-58.5"/>
<text text-anchor="middle" x="589.806" y="-66.5" font-family="Helvetica,sans-Serif" font-size="10.00">memory</text>
</g>
<!-- Node9&#45;&gt;Node16 -->
<g id="edge32" class="edge"><title>Node9&#45;&gt;Node16</title>
<path fill="none" stroke="midnightblue" d="M588.989,-116.362C589.118,-108.922 589.293,-98.7427 589.449,-89.7276"/>
<polygon fill="midnightblue" stroke="midnightblue" points="592.951,-89.6295 589.624,-79.5707 585.952,-89.5088 592.951,-89.6295"/>
</g>
<!-- Node17 -->
<g id="node34" class="node"><title>Node17</title>
<polygon fill="white" stroke="#bfbfbf" points="633.806,-58.5 633.806,-79.5 685.806,-79.5 685.806,-58.5 633.806,-58.5"/>
<text text-anchor="middle" x="659.806" y="-66.5" font-family="Helvetica,sans-Serif" font-size="10.00">sstream</text>
</g>
<!-- Node9&#45;&gt;Node17 -->
<g id="edge34" class="edge"><title>Node9&#45;&gt;Node17</title>
<path fill="none" stroke="midnightblue" d="M601.829,-116.362C612.237,-107.859 627.025,-95.7785 639.061,-85.9466"/>
<polygon fill="midnightblue" stroke="midnightblue" points="641.336,-88.6077 646.866,-79.5707 636.907,-83.1866 641.336,-88.6077"/>
</g>
<!-- Node18 -->
<g id="node36" class="node"><title>Node18</title>
<polygon fill="white" stroke="#bfbfbf" points="703.306,-58.5 703.306,-79.5 744.306,-79.5 744.306,-58.5 703.306,-58.5"/>
<text text-anchor="middle" x="723.806" y="-66.5" font-family="Helvetica,sans-Serif" font-size="10.00">string</text>
</g>
<!-- Node9&#45;&gt;Node18 -->
<g id="edge36" class="edge"><title>Node9&#45;&gt;Node18</title>
<path fill="none" stroke="midnightblue" d="M613.254,-116.497C635.826,-106.799 669.422,-92.365 693.651,-81.9556"/>
<polygon fill="midnightblue" stroke="midnightblue" points="695.272,-85.0684 703.078,-77.9052 692.509,-78.6369 695.272,-85.0684"/>
</g>
<!-- Node19 -->
<g id="node40" class="node"><title>Node19</title>
<polygon fill="white" stroke="#bfbfbf" points="761.306,-58.5 761.306,-79.5 836.306,-79.5 836.306,-58.5 761.306,-58.5"/>
<text text-anchor="middle" x="798.806" y="-66.5" font-family="Helvetica,sans-Serif" font-size="10.00">mm_malloc.h</text>
</g>
<!-- Node9&#45;&gt;Node19 -->
<g id="edge42" class="edge"><title>Node9&#45;&gt;Node19</title>
<path fill="none" stroke="midnightblue" d="M626.835,-116.497C661.772,-106.847 713.687,-92.5091 751.332,-82.112"/>
<polygon fill="midnightblue" stroke="midnightblue" points="752.352,-85.4612 761.06,-79.4252 750.489,-78.7138 752.352,-85.4612"/>
</g>
<!-- Node20 -->
<g id="node42" class="node"><title>Node20</title>
<a xlink:href="../../da/d69/optionparser_8h.html" target="_top" xlink:title="This is the only file required to use The Lean Mean C++ Option Parser. Just #include it and you&#39;re se...">
<polygon fill="white" stroke="black" points="13.806,-58.5 13.806,-79.5 117.806,-79.5 117.806,-58.5 13.806,-58.5"/>
<text text-anchor="middle" x="65.806" y="-66.5" font-family="Helvetica,sans-Serif" font-size="10.00">blond/optionparser.h</text>
</a>
</g>
<!-- Node9&#45;&gt;Node20 -->
<g id="edge44" class="edge"><title>Node9&#45;&gt;Node20</title>
<path fill="none" stroke="midnightblue" d="M547.577,-123.878C468.324,-117.645 289.037,-102.423 128.091,-80.0978"/>
<polygon fill="midnightblue" stroke="midnightblue" points="128.396,-76.6063 118.007,-78.6862 127.425,-83.5388 128.396,-76.6063"/>
</g>
<!-- Node21&#45;&gt;Node4 -->
<g id="edge48" class="edge"><title>Node21&#45;&gt;Node4</title>
<path fill="none" stroke="midnightblue" d="M544.16,-174.992C586.049,-158.555 652.202,-133.62 710.806,-116 755.564,-102.543 806.971,-90.3342 845.906,-81.7343"/>
<polygon fill="midnightblue" stroke="midnightblue" points="847.012,-85.0752 856.031,-79.5169 845.514,-78.2372 847.012,-85.0752"/>
</g>
<!-- Node21&#45;&gt;Node6 -->
<g id="edge52" class="edge"><title>Node21&#45;&gt;Node6</title>
<path fill="none" stroke="midnightblue" d="M442.538,-187.66C322.856,-177.535 59.0811,-147.867 4.80603,-80 -1.30082,-72.3638 -1.75261,-65.2518 4.80603,-58 33.9431,-25.7834 338.535,-14.6278 439.497,-11.7996"/>
<polygon fill="midnightblue" stroke="midnightblue" points="439.797,-15.2928 449.699,-11.5229 439.608,-8.29535 439.797,-15.2928"/>
</g>
<!-- Node21&#45;&gt;Node9 -->
<g id="edge50" class="edge"><title>Node21&#45;&gt;Node9</title>
<path fill="none" stroke="midnightblue" d="M524.664,-174.922C537.509,-165.326 553.478,-153.394 566.27,-143.837"/>
<polygon fill="midnightblue" stroke="midnightblue" points="568.624,-146.448 574.54,-137.658 564.434,-140.84 568.624,-146.448"/>
</g>
<!-- Node22&#45;&gt;Node8 -->
<g id="edge56" class="edge"><title>Node22&#45;&gt;Node8</title>
<path fill="none" stroke="midnightblue" d="M445.785,-281.11C456.911,-290.311 469.503,-301.652 478.968,-310.987"/>
<polygon fill="midnightblue" stroke="midnightblue" points="476.59,-313.562 486.083,-318.267 481.596,-308.669 476.59,-313.562"/>
</g>
<!-- Node22&#45;&gt;Node21 -->
<g id="edge58" class="edge"><title>Node22&#45;&gt;Node21</title>
<path fill="none" stroke="midnightblue" d="M440.002,-246.937C450.417,-237.679 463.46,-226.086 474.876,-215.938"/>
<polygon fill="midnightblue" stroke="midnightblue" points="477.318,-218.45 482.467,-209.19 472.668,-213.218 477.318,-218.45"/>
</g>
<!-- Node23&#45;&gt;Node4 -->
<g id="edge62" class="edge"><title>Node23&#45;&gt;Node4</title>
<path fill="none" stroke="midnightblue" d="M678.496,-181.445C689.482,-164.978 712.933,-133.273 740.806,-116 758.976,-104.74 808.487,-91.426 848.742,-81.8482"/>
<polygon fill="midnightblue" stroke="midnightblue" points="849.554,-85.2529 858.489,-79.5585 847.953,-78.4384 849.554,-85.2529"/>
</g>
<!-- Node23&#45;&gt;Node9 -->
<g id="edge64" class="edge"><title>Node23&#45;&gt;Node9</title>
<path fill="none" stroke="midnightblue" d="M658.1,-181.267C645.168,-171.139 625.571,-155.792 610.513,-144"/>
<polygon fill="midnightblue" stroke="midnightblue" points="612.288,-140.944 602.257,-137.534 607.972,-146.455 612.288,-140.944"/>
</g>
<!-- Node24&#45;&gt;Node4 -->
<g id="edge72" class="edge"><title>Node24&#45;&gt;Node4</title>
<path fill="none" stroke="midnightblue" d="M912.638,-181.404C906.004,-170.91 896.611,-154.118 892.806,-138 888.957,-121.695 893.243,-103.07 898.056,-89.2835"/>
<polygon fill="midnightblue" stroke="midnightblue" points="901.379,-90.3921 901.713,-79.8026 894.848,-87.8727 901.379,-90.3921"/>
</g>
<!-- Node24&#45;&gt;Node9 -->
<g id="edge74" class="edge"><title>Node24&#45;&gt;Node9</title>
<path fill="none" stroke="midnightblue" d="M866.257,-181.484C803.862,-169.232 701.501,-149.13 640.092,-137.071"/>
<polygon fill="midnightblue" stroke="midnightblue" points="640.717,-133.627 630.23,-135.135 639.368,-140.496 640.717,-133.627"/>
</g>
<!-- Node25 -->
<g id="node63" class="node"><title>Node25</title>
<polygon fill="white" stroke="#bfbfbf" points="934.306,-116.5 934.306,-137.5 993.306,-137.5 993.306,-116.5 934.306,-116.5"/>
<text text-anchor="middle" x="963.806" y="-124.5" font-family="Helvetica,sans-Serif" font-size="10.00">functional</text>
</g>
<!-- Node24&#45;&gt;Node25 -->
<g id="edge76" class="edge"><title>Node24&#45;&gt;Node25</title>
<path fill="none" stroke="midnightblue" d="M927.072,-181.267C933.543,-171.707 943.162,-157.496 950.934,-146.015"/>
<polygon fill="midnightblue" stroke="midnightblue" points="953.968,-147.777 956.676,-137.534 948.171,-143.853 953.968,-147.777"/>
</g>
<!-- Node26&#45;&gt;Node2 -->
<g id="edge80" class="edge"><title>Node26&#45;&gt;Node2</title>
<path fill="none" stroke="midnightblue" d="M1219.92,-253.25C1224.4,-230.541 1234.88,-177.348 1240.71,-147.768"/>
<polygon fill="midnightblue" stroke="midnightblue" points="1244.2,-148.188 1242.7,-137.7 1237.33,-146.835 1244.2,-148.188"/>
</g>
<!-- Node26&#45;&gt;Node4 -->
<g id="edge82" class="edge"><title>Node26&#45;&gt;Node4</title>
<path fill="none" stroke="midnightblue" d="M1160.82,-253.458C1123.28,-245.052 1073.85,-231.132 1033.81,-210 1011.46,-198.207 1010.67,-188.247 989.806,-174 962.853,-155.598 945.907,-163.711 925.806,-138 915.073,-124.272 910.397,-104.876 908.364,-90.1426"/>
<polygon fill="midnightblue" stroke="midnightblue" points="911.817,-89.524 907.267,-79.9562 904.858,-90.2735 911.817,-89.524"/>
</g>
<!-- Node26&#45;&gt;Node9 -->
<g id="edge116" class="edge"><title>Node26&#45;&gt;Node9</title>
<path fill="none" stroke="midnightblue" d="M1158.62,-258.305C1085.45,-250.582 957.398,-234.829 849.806,-210 847.061,-209.367 705.242,-164.152 631.84,-140.733"/>
<polygon fill="midnightblue" stroke="midnightblue" points="632.549,-137.286 621.958,-137.581 630.421,-143.955 632.549,-137.286"/>
</g>
<!-- Node27 -->
<g id="node69" class="node"><title>Node27</title>
<a xlink:href="../../d8/dcd/exp_8h.html" target="_top" xlink:title="blond/exp.h">
<polygon fill="white" stroke="black" points="1269.31,-181.5 1269.31,-202.5 1336.31,-202.5 1336.31,-181.5 1269.31,-181.5"/>
<text text-anchor="middle" x="1302.81" y="-189.5" font-family="Helvetica,sans-Serif" font-size="10.00">blond/exp.h</text>
</a>
</g>
<!-- Node26&#45;&gt;Node27 -->
<g id="edge84" class="edge"><title>Node26&#45;&gt;Node27</title>
<path fill="none" stroke="midnightblue" d="M1230.35,-253.376C1244.03,-241.784 1266.15,-223.05 1282.35,-209.324"/>
<polygon fill="midnightblue" stroke="midnightblue" points="1284.84,-211.802 1290.21,-202.667 1280.32,-206.46 1284.84,-211.802"/>
</g>
<!-- Node29 -->
<g id="node73" class="node"><title>Node29</title>
<polygon fill="white" stroke="#bfbfbf" points="1351.81,-0.5 1351.81,-21.5 1395.81,-21.5 1395.81,-0.5 1351.81,-0.5"/>
<text text-anchor="middle" x="1373.81" y="-8.5" font-family="Helvetica,sans-Serif" font-size="10.00">cmath</text>
</g>
<!-- Node26&#45;&gt;Node29 -->
<g id="edge118" class="edge"><title>Node26&#45;&gt;Node29</title>
<path fill="none" stroke="midnightblue" d="M1276.85,-256.863C1334.15,-248.678 1415.51,-233.308 1436.81,-210 1465.18,-178.947 1459.59,-156.379 1447.81,-116 1437.65,-81.1902 1410.54,-48.2408 1392.11,-28.8313"/>
<polygon fill="midnightblue" stroke="midnightblue" points="1394.55,-26.3168 1385.06,-21.6103 1389.54,-31.2089 1394.55,-26.3168"/>
</g>
<!-- Node31 -->
<g id="node77" class="node"><title>Node31</title>
<a xlink:href="../../d7/d76/fft_8h.html" target="_top" xlink:title="blond/fft.h">
<polygon fill="white" stroke="black" points="1042.81,-181.5 1042.81,-202.5 1102.81,-202.5 1102.81,-181.5 1042.81,-181.5"/>
<text text-anchor="middle" x="1072.81" y="-189.5" font-family="Helvetica,sans-Serif" font-size="10.00">blond/fft.h</text>
</a>
</g>
<!-- Node26&#45;&gt;Node31 -->
<g id="edge92" class="edge"><title>Node26&#45;&gt;Node31</title>
<path fill="none" stroke="midnightblue" d="M1196.41,-253.376C1171.89,-241.199 1131.49,-221.141 1103.59,-207.286"/>
<polygon fill="midnightblue" stroke="midnightblue" points="1104.8,-203.98 1094.29,-202.667 1101.69,-210.25 1104.8,-203.98"/>
</g>
<!-- Node34 -->
<g id="node88" class="node"><title>Node34</title>
<a xlink:href="../../d1/d3d/sin_8h.html" target="_top" xlink:title="blond/sin.h">
<polygon fill="white" stroke="black" points="1363.81,-181.5 1363.81,-202.5 1427.81,-202.5 1427.81,-181.5 1363.81,-181.5"/>
<text text-anchor="middle" x="1395.81" y="-189.5" font-family="Helvetica,sans-Serif" font-size="10.00">blond/sin.h</text>
</a>
</g>
<!-- Node26&#45;&gt;Node34 -->
<g id="edge108" class="edge"><title>Node26&#45;&gt;Node34</title>
<path fill="none" stroke="midnightblue" d="M1244.07,-253.376C1274.79,-240.951 1325.79,-220.319 1360.09,-206.446"/>
<polygon fill="midnightblue" stroke="midnightblue" points="1361.77,-209.545 1369.72,-202.55 1359.14,-203.055 1361.77,-209.545"/>
</g>
<!-- Node36 -->
<g id="node96" class="node"><title>Node36</title>
<polygon fill="white" stroke="#bfbfbf" points="1169.81,-181.5 1169.81,-202.5 1213.81,-202.5 1213.81,-181.5 1169.81,-181.5"/>
<text text-anchor="middle" x="1191.81" y="-189.5" font-family="Helvetica,sans-Serif" font-size="10.00">omp.h</text>
</g>
<!-- Node26&#45;&gt;Node36 -->
<g id="edge120" class="edge"><title>Node26&#45;&gt;Node36</title>
<path fill="none" stroke="midnightblue" d="M1213.97,-253.376C1210.09,-242.635 1204,-225.761 1199.18,-212.422"/>
<polygon fill="midnightblue" stroke="midnightblue" points="1202.35,-210.884 1195.66,-202.667 1195.76,-213.262 1202.35,-210.884"/>
</g>
<!-- Node28 -->
<g id="node71" class="node"><title>Node28</title>
<a xlink:href="../../df/de1/vdtcore__common_8h.html" target="_top" xlink:title="vdtcore_common.h">
<polygon fill="white" stroke="black" points="1284.81,-58.5 1284.81,-79.5 1384.81,-79.5 1384.81,-58.5 1284.81,-58.5"/>
<text text-anchor="middle" x="1334.81" y="-66.5" font-family="Helvetica,sans-Serif" font-size="10.00">vdtcore_common.h</text>
</a>
</g>
<!-- Node27&#45;&gt;Node28 -->
<g id="edge86" class="edge"><title>Node27&#45;&gt;Node28</title>
<path fill="none" stroke="midnightblue" d="M1304.93,-181.102C1307.88,-166.277 1313.59,-138.969 1319.81,-116 1322.2,-107.164 1325.21,-97.5144 1327.9,-89.2702"/>
<polygon fill="midnightblue" stroke="midnightblue" points="1331.24,-90.3399 1331.08,-79.7463 1324.59,-88.127 1331.24,-90.3399"/>
</g>
<!-- Node30 -->
<g id="node75" class="node"><title>Node30</title>
<polygon fill="white" stroke="#bfbfbf" points="1328.81,-116.5 1328.81,-137.5 1368.81,-137.5 1368.81,-116.5 1328.81,-116.5"/>
<text text-anchor="middle" x="1348.81" y="-124.5" font-family="Helvetica,sans-Serif" font-size="10.00">limits</text>
</g>
<!-- Node27&#45;&gt;Node30 -->
<g id="edge90" class="edge"><title>Node27&#45;&gt;Node30</title>
<path fill="none" stroke="midnightblue" d="M1310.4,-181.267C1317.17,-171.707 1327.22,-157.496 1335.35,-146.015"/>
<polygon fill="midnightblue" stroke="midnightblue" points="1338.43,-147.718 1341.35,-137.534 1332.72,-143.675 1338.43,-147.718"/>
</g>
<!-- Node28&#45;&gt;Node29 -->
<g id="edge88" class="edge"><title>Node28&#45;&gt;Node29</title>
<path fill="none" stroke="midnightblue" d="M1341.96,-58.3619C1347.29,-50.4313 1354.72,-39.3885 1361.06,-29.9606"/>
<polygon fill="midnightblue" stroke="midnightblue" points="1364.02,-31.8221 1366.7,-21.5707 1358.21,-27.9161 1364.02,-31.8221"/>
</g>
<!-- Node31&#45;&gt;Node2 -->
<g id="edge94" class="edge"><title>Node31&#45;&gt;Node2</title>
<path fill="none" stroke="midnightblue" d="M1098.34,-181.372C1104.38,-178.909 1110.8,-176.329 1116.81,-174 1147.01,-162.283 1181.49,-149.663 1207.05,-140.454"/>
<polygon fill="midnightblue" stroke="midnightblue" points="1208.5,-143.652 1216.73,-136.977 1206.14,-137.065 1208.5,-143.652"/>
</g>
<!-- Node31&#45;&gt;Node4 -->
<g id="edge96" class="edge"><title>Node31&#45;&gt;Node4</title>
<path fill="none" stroke="midnightblue" d="M1064.85,-181.274C1052.67,-165.419 1028.03,-135.502 1001.81,-116 984.077,-102.816 962.08,-91.6598 943.719,-83.5297"/>
<polygon fill="midnightblue" stroke="midnightblue" points="945.06,-80.2964 934.49,-79.5593 942.293,-86.7266 945.06,-80.2964"/>
</g>
<!-- Node31&#45;&gt;Node9 -->
<g id="edge98" class="edge"><title>Node31&#45;&gt;Node9</title>
<path fill="none" stroke="midnightblue" d="M1042.59,-184.709C1026.91,-181.114 1007.4,-176.933 989.806,-174 864.999,-153.203 716.826,-138.367 640.291,-131.425"/>
<polygon fill="midnightblue" stroke="midnightblue" points="640.251,-127.907 629.977,-130.498 639.624,-134.879 640.251,-127.907"/>
</g>
<!-- Node31&#45;&gt;Node25 -->
<g id="edge106" class="edge"><title>Node31&#45;&gt;Node25</title>
<path fill="none" stroke="midnightblue" d="M1054.81,-181.267C1037.19,-170.76 1010.15,-154.637 990.121,-142.692"/>
<polygon fill="midnightblue" stroke="midnightblue" points="991.852,-139.649 981.47,-137.534 988.266,-145.662 991.852,-139.649"/>
</g>
<!-- Node31&#45;&gt;Node29 -->
<g id="edge102" class="edge"><title>Node31&#45;&gt;Node29</title>
<path fill="none" stroke="midnightblue" d="M1093.73,-181.428C1113.71,-171.082 1144.45,-154.513 1169.81,-138 1219.27,-105.79 1225.39,-88.6917 1275.81,-58 1297.18,-44.9894 1322.7,-32.8475 1342.34,-24.1649"/>
<polygon fill="midnightblue" stroke="midnightblue" points="1343.97,-27.2725 1351.75,-20.0728 1341.18,-20.854 1343.97,-27.2725"/>
</g>
<!-- Node32 -->
<g id="node82" class="node"><title>Node32</title>
<polygon fill="white" stroke="#bfbfbf" points="1048.31,-116.5 1048.31,-137.5 1097.31,-137.5 1097.31,-116.5 1048.31,-116.5"/>
<text text-anchor="middle" x="1072.81" y="-124.5" font-family="Helvetica,sans-Serif" font-size="10.00">cassert</text>
</g>
<!-- Node31&#45;&gt;Node32 -->
<g id="edge100" class="edge"><title>Node31&#45;&gt;Node32</title>
<path fill="none" stroke="midnightblue" d="M1072.81,-181.267C1072.81,-172.18 1072.81,-158.892 1072.81,-147.74"/>
<polygon fill="midnightblue" stroke="midnightblue" points="1076.31,-147.534 1072.81,-137.534 1069.31,-147.534 1076.31,-147.534"/>
</g>
<!-- Node33 -->
<g id="node85" class="node"><title>Node33</title>
<polygon fill="white" stroke="#bfbfbf" points="1114.31,-116.5 1114.31,-137.5 1161.31,-137.5 1161.31,-116.5 1114.31,-116.5"/>
<text text-anchor="middle" x="1137.81" y="-124.5" font-family="Helvetica,sans-Serif" font-size="10.00">fftw3.h</text>
</g>
<!-- Node31&#45;&gt;Node33 -->
<g id="edge104" class="edge"><title>Node31&#45;&gt;Node33</title>
<path fill="none" stroke="midnightblue" d="M1083.54,-181.267C1093.48,-171.328 1108.44,-156.363 1120.14,-144.664"/>
<polygon fill="midnightblue" stroke="midnightblue" points="1122.68,-147.08 1127.27,-137.534 1117.73,-142.13 1122.68,-147.08"/>
</g>
<!-- Node35 -->
<g id="node90" class="node"><title>Node35</title>
<a xlink:href="../../dc/dfa/sincos_8h.html" target="_top" xlink:title="sincos.h">
<polygon fill="white" stroke="black" points="1386.31,-116.5 1386.31,-137.5 1439.31,-137.5 1439.31,-116.5 1386.31,-116.5"/>
<text text-anchor="middle" x="1412.81" y="-124.5" font-family="Helvetica,sans-Serif" font-size="10.00">sincos.h</text>
</a>
</g>
<!-- Node34&#45;&gt;Node35 -->
<g id="edge110" class="edge"><title>Node34&#45;&gt;Node35</title>
<path fill="none" stroke="midnightblue" d="M1398.61,-181.267C1401.01,-172.085 1404.54,-158.615 1407.47,-147.392"/>
<polygon fill="midnightblue" stroke="midnightblue" points="1410.91,-148.094 1410.05,-137.534 1404.13,-146.323 1410.91,-148.094"/>
</g>
<!-- Node35&#45;&gt;Node28 -->
<g id="edge112" class="edge"><title>Node35&#45;&gt;Node28</title>
<path fill="none" stroke="midnightblue" d="M1398.5,-116.362C1386.95,-107.777 1370.51,-95.5459 1357.22,-85.6636"/>
<polygon fill="midnightblue" stroke="midnightblue" points="1359.13,-82.7291 1349.02,-79.5707 1354.96,-88.3463 1359.13,-82.7291"/>
</g>
<!-- Node35&#45;&gt;Node29 -->
<g id="edge114" class="edge"><title>Node35&#45;&gt;Node29</title>
<path fill="none" stroke="midnightblue" d="M1410.28,-116.106C1407,-102.39 1400.84,-78.1794 1393.81,-58 1390.65,-48.9516 1386.6,-39.1675 1382.96,-30.8811"/>
<polygon fill="midnightblue" stroke="midnightblue" points="1386.12,-29.3581 1378.83,-21.6665 1379.73,-32.2231 1386.12,-29.3581"/>
</g>
</g>
</svg>
