<?xml version="1.0" encoding="UTF-8" standalone="no"?>
<!DOCTYPE svg PUBLIC "-//W3C//DTD SVG 1.1//EN"
 "http://www.w3.org/Graphics/SVG/1.1/DTD/svg11.dtd">
<!-- Generated by graphviz version 2.26.3 (20100126.1600)
 -->
<!-- Title: PhaseLoop Pages: 1 -->
<svg width="372pt" height="562pt"
 viewBox="0.00 0.00 372.00 562.00" xmlns="http://www.w3.org/2000/svg" xmlns:xlink="http://www.w3.org/1999/xlink">
<g id="graph1" class="graph" transform="scale(1 1) rotate(0) translate(4 558)">
<title>PhaseLoop</title>
<polygon fill="white" stroke="white" points="-4,5 -4,-558 369,-558 369,5 -4,5"/>
<!-- Node1 -->
<g id="node1" class="node"><title>Node1</title>
<polygon fill="#bfbfbf" stroke="black" points="92.5,-282.5 92.5,-553.5 233.5,-553.5 233.5,-282.5 92.5,-282.5"/>
<text text-anchor="middle" x="163" y="-540.5" font-family="Helvetica,sans-Serif" font-size="10.00">PhaseLoop</text>
<polyline fill="none" stroke="black" points="92.5,-532.5 233.5,-532.5 "/>
<text text-anchor="start" x="100.5" y="-519.5" font-family="Helvetica,sans-Serif" font-size="10.00">+ alpha</text>
<text text-anchor="start" x="100.5" y="-506.5" font-family="Helvetica,sans-Serif" font-size="10.00">+ delay</text>
<text text-anchor="start" x="100.5" y="-493.5" font-family="Helvetica,sans-Serif" font-size="10.00">+ domega_rf</text>
<text text-anchor="start" x="100.5" y="-480.5" font-family="Helvetica,sans-Serif" font-size="10.00">+ dphi</text>
<text text-anchor="start" x="100.5" y="-467.5" font-family="Helvetica,sans-Serif" font-size="10.00">+ drho</text>
<text text-anchor="start" x="100.5" y="-454.5" font-family="Helvetica,sans-Serif" font-size="10.00">+ noiseFB</text>
<text text-anchor="start" x="100.5" y="-441.5" font-family="Helvetica,sans-Serif" font-size="10.00">+ phi_beam</text>
<text text-anchor="start" x="100.5" y="-428.5" font-family="Helvetica,sans-Serif" font-size="10.00">+ reference</text>
<text text-anchor="start" x="100.5" y="-415.5" font-family="Helvetica,sans-Serif" font-size="10.00">+ RFnoise</text>
<polyline fill="none" stroke="black" points="92.5,-407.5 233.5,-407.5 "/>
<text text-anchor="start" x="100.5" y="-394.5" font-family="Helvetica,sans-Serif" font-size="10.00">+ PhaseLoop()</text>
<text text-anchor="start" x="100.5" y="-381.5" font-family="Helvetica,sans-Serif" font-size="10.00">+ PhaseLoop()</text>
<text text-anchor="start" x="100.5" y="-368.5" font-family="Helvetica,sans-Serif" font-size="10.00">+ ~PhaseLoop()</text>
<text text-anchor="start" x="100.5" y="-355.5" font-family="Helvetica,sans-Serif" font-size="10.00">+ beam_phase()</text>
<text text-anchor="start" x="100.5" y="-342.5" font-family="Helvetica,sans-Serif" font-size="10.00">+ default_track()</text>
<text text-anchor="start" x="100.5" y="-329.5" font-family="Helvetica,sans-Serif" font-size="10.00">+ phase_difference()</text>
<text text-anchor="start" x="100.5" y="-316.5" font-family="Helvetica,sans-Serif" font-size="10.00">+ radial_difference()</text>
<text text-anchor="start" x="100.5" y="-303.5" font-family="Helvetica,sans-Serif" font-size="10.00">+ radial_steering_from_freq()</text>
<text text-anchor="start" x="100.5" y="-290.5" font-family="Helvetica,sans-Serif" font-size="10.00">+ track()</text>
</g>
<!-- Node2 -->
<g id="node3" class="node"><title>Node2</title>
<a xlink:href="../../d1/dbd/classLHC.html" target="_top" xlink:title="{LHC\n|+ gain\l+ gain2\l+ lhc_a\l+ lhc_t\l+ lhc_y\l|+ LHC()\l+ ~LHC()\l+ track()\l}">
<polygon fill="white" stroke="black" points="0,-52.5 0,-193.5 58,-193.5 58,-52.5 0,-52.5"/>
<text text-anchor="middle" x="29" y="-180.5" font-family="Helvetica,sans-Serif" font-size="10.00">LHC</text>
<polyline fill="none" stroke="black" points="0,-172.5 58,-172.5 "/>
<text text-anchor="start" x="8" y="-159.5" font-family="Helvetica,sans-Serif" font-size="10.00">+ gain</text>
<text text-anchor="start" x="8" y="-146.5" font-family="Helvetica,sans-Serif" font-size="10.00">+ gain2</text>
<text text-anchor="start" x="8" y="-133.5" font-family="Helvetica,sans-Serif" font-size="10.00">+ lhc_a</text>
<text text-anchor="start" x="8" y="-120.5" font-family="Helvetica,sans-Serif" font-size="10.00">+ lhc_t</text>
<text text-anchor="start" x="8" y="-107.5" font-family="Helvetica,sans-Serif" font-size="10.00">+ lhc_y</text>
<polyline fill="none" stroke="black" points="0,-99.5 58,-99.5 "/>
<text text-anchor="start" x="8" y="-86.5" font-family="Helvetica,sans-Serif" font-size="10.00">+ LHC()</text>
<text text-anchor="start" x="8" y="-73.5" font-family="Helvetica,sans-Serif" font-size="10.00">+ ~LHC()</text>
<text text-anchor="start" x="8" y="-60.5" font-family="Helvetica,sans-Serif" font-size="10.00">+ track()</text>
</a>
</g>
<!-- Node1&#45;&gt;Node2 -->
<g id="edge2" class="edge"><title>Node1&#45;&gt;Node2</title>
<path fill="none" stroke="midnightblue" d="M87.6598,-289.823C80.2413,-275.255 73.1837,-260.45 67,-246 59.8776,-229.356 53.458,-210.931 48.0096,-193.518"/>
<polygon fill="none" stroke="midnightblue" points="84.6254,-291.575 92.3209,-298.857 90.8462,-288.365 84.6254,-291.575"/>
</g>
<!-- Node3 -->
<g id="node5" class="node"><title>Node3</title>
<a xlink:href="../../d1/df5/classLHC__F.html" target="_top" xlink:title="{LHC_F\n|+ gain\l+ gain2\l|+ LHC_F()\l+ ~LHC_F()\l+ track()\l}">
<polygon fill="white" stroke="black" points="75.5,-72 75.5,-174 144.5,-174 144.5,-72 75.5,-72"/>
<text text-anchor="middle" x="110" y="-161" font-family="Helvetica,sans-Serif" font-size="10.00">LHC_F</text>
<polyline fill="none" stroke="black" points="75.5,-153 144.5,-153 "/>
<text text-anchor="start" x="83.5" y="-140" font-family="Helvetica,sans-Serif" font-size="10.00">+ gain</text>
<text text-anchor="start" x="83.5" y="-127" font-family="Helvetica,sans-Serif" font-size="10.00">+ gain2</text>
<polyline fill="none" stroke="black" points="75.5,-119 144.5,-119 "/>
<text text-anchor="start" x="83.5" y="-106" font-family="Helvetica,sans-Serif" font-size="10.00">+ LHC_F()</text>
<text text-anchor="start" x="83.5" y="-93" font-family="Helvetica,sans-Serif" font-size="10.00">+ ~LHC_F()</text>
<text text-anchor="start" x="83.5" y="-80" font-family="Helvetica,sans-Serif" font-size="10.00">+ track()</text>
</a>
</g>
<!-- Node1&#45;&gt;Node3 -->
<g id="edge4" class="edge"><title>Node1&#45;&gt;Node3</title>
<path fill="none" stroke="midnightblue" d="M136.812,-272.237C130.487,-237.033 124.139,-201.697 119.208,-174.252"/>
<polygon fill="none" stroke="midnightblue" points="133.381,-272.933 138.594,-282.157 140.271,-271.695 133.381,-272.933"/>
</g>
<!-- Node4 -->
<g id="node7" class="node"><title>Node4</title>
<a xlink:href="../../d9/d59/classPSB.html" target="_top" xlink:title="{PSB\n|+ coefficients\l+ domega_PL\l+ domega_RL\l+ dphi_av\l+ dphi_av_prev\l+ drho_prev\l+ dt\l+ gain\l+ gain2\l+ on_time\l+ PL_counter\l+ t_accum\l|+ PSB()\l+ ~PSB()\l+ precalculate_time()\l+ track()\l}">
<polygon fill="white" stroke="black" points="162,-0.5 162,-245.5 270,-245.5 270,-0.5 162,-0.5"/>
<text text-anchor="middle" x="216" y="-232.5" font-family="Helvetica,sans-Serif" font-size="10.00">PSB</text>
<polyline fill="none" stroke="black" points="162,-224.5 270,-224.5 "/>
<text text-anchor="start" x="170" y="-211.5" font-family="Helvetica,sans-Serif" font-size="10.00">+ coefficients</text>
<text text-anchor="start" x="170" y="-198.5" font-family="Helvetica,sans-Serif" font-size="10.00">+ domega_PL</text>
<text text-anchor="start" x="170" y="-185.5" font-family="Helvetica,sans-Serif" font-size="10.00">+ domega_RL</text>
<text text-anchor="start" x="170" y="-172.5" font-family="Helvetica,sans-Serif" font-size="10.00">+ dphi_av</text>
<text text-anchor="start" x="170" y="-159.5" font-family="Helvetica,sans-Serif" font-size="10.00">+ dphi_av_prev</text>
<text text-anchor="start" x="170" y="-146.5" font-family="Helvetica,sans-Serif" font-size="10.00">+ drho_prev</text>
<text text-anchor="start" x="170" y="-133.5" font-family="Helvetica,sans-Serif" font-size="10.00">+ dt</text>
<text text-anchor="start" x="170" y="-120.5" font-family="Helvetica,sans-Serif" font-size="10.00">+ gain</text>
<text text-anchor="start" x="170" y="-107.5" font-family="Helvetica,sans-Serif" font-size="10.00">+ gain2</text>
<text text-anchor="start" x="170" y="-94.5" font-family="Helvetica,sans-Serif" font-size="10.00">+ on_time</text>
<text text-anchor="start" x="170" y="-81.5" font-family="Helvetica,sans-Serif" font-size="10.00">+ PL_counter</text>
<text text-anchor="start" x="170" y="-68.5" font-family="Helvetica,sans-Serif" font-size="10.00">+ t_accum</text>
<polyline fill="none" stroke="black" points="162,-60.5 270,-60.5 "/>
<text text-anchor="start" x="170" y="-47.5" font-family="Helvetica,sans-Serif" font-size="10.00">+ PSB()</text>
<text text-anchor="start" x="170" y="-34.5" font-family="Helvetica,sans-Serif" font-size="10.00">+ ~PSB()</text>
<text text-anchor="start" x="170" y="-21.5" font-family="Helvetica,sans-Serif" font-size="10.00">+ precalculate_time()</text>
<text text-anchor="start" x="170" y="-8.5" font-family="Helvetica,sans-Serif" font-size="10.00">+ track()</text>
</a>
</g>
<!-- Node1&#45;&gt;Node4 -->
<g id="edge6" class="edge"><title>Node1&#45;&gt;Node4</title>
<path fill="none" stroke="midnightblue" d="M189.192,-272.216C190.775,-263.403 192.36,-254.581 193.924,-245.877"/>
<polygon fill="none" stroke="midnightblue" points="185.729,-271.695 187.406,-282.157 192.619,-272.933 185.729,-271.695"/>
</g>
<!-- Node5 -->
<g id="node9" class="node"><title>Node5</title>
<a xlink:href="../../dc/d32/classSPS__RL.html" target="_top" xlink:title="{SPS_RL\n|+ gain\l+ gain2\l|+ SPS_RL()\l+ ~SPS_RL()\l+ track()\l}">
<polygon fill="white" stroke="black" points="288,-72 288,-174 364,-174 364,-72 288,-72"/>
<text text-anchor="middle" x="326" y="-161" font-family="Helvetica,sans-Serif" font-size="10.00">SPS_RL</text>
<polyline fill="none" stroke="black" points="288,-153 364,-153 "/>
<text text-anchor="start" x="296" y="-140" font-family="Helvetica,sans-Serif" font-size="10.00">+ gain</text>
<text text-anchor="start" x="296" y="-127" font-family="Helvetica,sans-Serif" font-size="10.00">+ gain2</text>
<polyline fill="none" stroke="black" points="288,-119 364,-119 "/>
<text text-anchor="start" x="296" y="-106" font-family="Helvetica,sans-Serif" font-size="10.00">+ SPS_RL()</text>
<text text-anchor="start" x="296" y="-93" font-family="Helvetica,sans-Serif" font-size="10.00">+ ~SPS_RL()</text>
<text text-anchor="start" x="296" y="-80" font-family="Helvetica,sans-Serif" font-size="10.00">+ track()</text>
</a>
</g>
<!-- Node1&#45;&gt;Node5 -->
<g id="edge8" class="edge"><title>Node1&#45;&gt;Node5</title>
<path fill="none" stroke="midnightblue" d="M239.204,-313.149C253.363,-291.491 267.346,-268.431 279,-246 290.857,-223.179 301.369,-196.662 309.429,-174.104"/>
<polygon fill="none" stroke="midnightblue" points="236.151,-311.421 233.561,-321.695 241.992,-315.278 236.151,-311.421"/>
</g>
</g>
</svg>
