<?xml version="1.0" encoding="UTF-8" standalone="no"?>
<!DOCTYPE svg PUBLIC "-//W3C//DTD SVG 1.1//EN"
 "http://www.w3.org/Graphics/SVG/1.1/DTD/svg11.dtd">
<!-- Generated by graphviz version 2.26.3 (20100126.1600)
 -->
<!-- Title: blond::util::time_diff Pages: 1 -->
<svg width="388pt" height="76pt"
 viewBox="0.00 0.00 388.00 76.00" xmlns="http://www.w3.org/2000/svg" xmlns:xlink="http://www.w3.org/1999/xlink">
<g id="graph1" class="graph" transform="scale(1 1) rotate(0) translate(4 72)">
<title>blond::util::time_diff</title>
<polygon fill="white" stroke="white" points="-4,5 -4,-72 385,-72 385,5 -4,5"/>
<!-- Node1 -->
<g id="node1" class="node"><title>Node1</title>
<polygon fill="#bfbfbf" stroke="black" points="0,-26.5 0,-47.5 102,-47.5 102,-26.5 0,-26.5"/>
<text text-anchor="middle" x="51" y="-34.5" font-family="Helvetica,sans-Serif" font-size="10.00">blond::util::time_diff</text>
</g>
<!-- Node2 -->
<g id="node3" class="node"><title>Node2</title>
<a xlink:href="../../d1/d4f/namespaceblond_1_1util.html#a554d07d4098e550a04d5b089c98b5835" target="_top" xlink:title="blond::util::print_time">
<polygon fill="white" stroke="black" points="145.5,-46.5 145.5,-67.5 252.5,-67.5 252.5,-46.5 145.5,-46.5"/>
<text text-anchor="middle" x="199" y="-54.5" font-family="Helvetica,sans-Serif" font-size="10.00">blond::util::print_time</text>
</a>
</g>
<!-- Node1&#45;&gt;Node2 -->
<g id="edge2" class="edge"><title>Node1&#45;&gt;Node2</title>
<path fill="none" stroke="midnightblue" d="M112.318,-45.2862C123.324,-46.7735 134.715,-48.3129 145.48,-49.7675"/>
<polygon fill="midnightblue" stroke="midnightblue" points="112.727,-41.8097 102.348,-43.9389 111.789,-48.7466 112.727,-41.8097"/>
</g>
<!-- Node3 -->
<g id="node5" class="node"><title>Node3</title>
<a xlink:href="../../d1/d4f/namespaceblond_1_1util.html#a35fb09392035d1bd724a47442596ac3f" target="_top" xlink:title="blond::util::time_elapsed">
<polygon fill="white" stroke="black" points="138,-6.5 138,-27.5 260,-27.5 260,-6.5 138,-6.5"/>
<text text-anchor="middle" x="199" y="-14.5" font-family="Helvetica,sans-Serif" font-size="10.00">blond::util::time_elapsed</text>
</a>
</g>
<!-- Node1&#45;&gt;Node3 -->
<g id="edge4" class="edge"><title>Node1&#45;&gt;Node3</title>
<path fill="none" stroke="midnightblue" d="M112.437,-28.6977C120.823,-27.5645 129.431,-26.4013 137.812,-25.2686"/>
<polygon fill="midnightblue" stroke="midnightblue" points="111.789,-25.2534 102.348,-30.0611 112.727,-32.1903 111.789,-25.2534"/>
</g>
<!-- Node4 -->
<g id="node7" class="node"><title>Node4</title>
<a xlink:href="../../d1/d4f/namespaceblond_1_1util.html#af4095c93ef5a3c838d8af4b6f690fc33" target="_top" xlink:title="blond::util::print\l_time_elapsed">
<polygon fill="white" stroke="black" points="296.5,-0 296.5,-34 379.5,-34 379.5,-0 296.5,-0"/>
<text text-anchor="start" x="304.5" y="-21" font-family="Helvetica,sans-Serif" font-size="10.00">blond::util::print</text>
<text text-anchor="middle" x="338" y="-8" font-family="Helvetica,sans-Serif" font-size="10.00">_time_elapsed</text>
</a>
</g>
<!-- Node3&#45;&gt;Node4 -->
<g id="edge6" class="edge"><title>Node3&#45;&gt;Node4</title>
<path fill="none" stroke="midnightblue" d="M270.604,-17C279.331,-17 288.014,-17 296.101,-17"/>
<polygon fill="midnightblue" stroke="midnightblue" points="270.372,-13.5001 260.372,-17 270.372,-20.5001 270.372,-13.5001"/>
</g>
</g>
</svg>
