<?xml version="1.0" encoding="UTF-8" standalone="no"?>
<!DOCTYPE svg PUBLIC "-//W3C//DTD SVG 1.1//EN"
 "http://www.w3.org/Graphics/SVG/1.1/DTD/svg11.dtd">
<!-- Generated by graphviz version 2.26.3 (20100126.1600)
 -->
<!-- Title: blond::optionparser::PrintUsageImplementation::LineWrapper::buf_next Pages: 1 -->
<!--zoomable 146 -->
<svg id="main" version="1.1" xmlns="http://www.w3.org/2000/svg" xmlns:xlink="http://www.w3.org/1999/xlink" xml:space="preserve" onload="init(evt)">
        <defs>
                <circle id="rim" cx="0" cy="0" r="7"/>
                <circle id="rim2" cx="0" cy="0" r="3.5"/>
                <g id="zoomPlus">
                        <use xlink:href="#rim" fill="#404040">
                                <set attributeName="fill" to="#808080" begin="zoomplus.mouseover" end="zoomplus.mouseout"/>
                        </use>
                        <path d="M-4,0h8M0,-4v8" fill="none" stroke="white" stroke-width="1.5" pointer-events="none"/>
                </g>
                <g id="zoomMin">
                        <use xlink:href="#rim" fill="#404040">
                                <set attributeName="fill" to="#808080" begin="zoomminus.mouseover" end="zoomminus.mouseout"/>
                        </use>
                        <path d="M-4,0h8" fill="none" stroke="white" stroke-width="1.5" pointer-events="none"/>
                </g>
                <g id="dirArrow">
                        <path fill="none" stroke="white" stroke-width="1.5" d="M0,-3.0v7 M-2.5,-0.5L0,-3.0L2.5,-0.5"/>
                </g>
               <g id="resetDef">
                       <use xlink:href="#rim2" fill="#404040">
                               <set attributeName="fill" to="#808080" begin="reset.mouseover" end="reset.mouseout"/>
                       </use>
               </g>
        </defs>

<script type="text/javascript">
var viewWidth = 986;
var viewHeight = 146;
var sectionId = 'dynsection-3';
</script>
<script xlink:href="../../svgpan.js"/>
<svg id="graph" class="graph">
<g id="viewport">
<title>blond::optionparser::PrintUsageImplementation::LineWrapper::buf_next</title>
<polygon fill="white" stroke="white" points="-4,5 -4,-142 983,-142 983,5 -4,5"/>
<!-- Node1 -->
<g id="node1" class="node"><title>Node1</title>
<polygon fill="#bfbfbf" stroke="black" points="0,-38.5 0,-85.5 138,-85.5 138,-38.5 0,-38.5"/>
<text text-anchor="start" x="8" y="-72.5" font-family="Helvetica,sans-Serif" font-size="10.00">blond::optionparser</text>
<text text-anchor="start" x="8" y="-59.5" font-family="Helvetica,sans-Serif" font-size="10.00">::PrintUsageImplementation</text>
<text text-anchor="middle" x="69" y="-46.5" font-family="Helvetica,sans-Serif" font-size="10.00">::LineWrapper::buf_next</text>
</g>
<!-- Node2 -->
<g id="node3" class="node"><title>Node2</title>
<a xlink:href="../../d1/d20/classblond_1_1optionparser_1_1PrintUsageImplementation_1_1LineWrapper.html#a7fe5ad01d4cd249b911926532c8a66f9" target="_top" xlink:title="Writes a single line of output from the buffer to write.">
<polygon fill="white" stroke="black" points="174,-38.5 174,-85.5 320,-85.5 320,-38.5 174,-38.5"/>
<text text-anchor="start" x="182" y="-72.5" font-family="Helvetica,sans-Serif" font-size="10.00">blond::optionparser</text>
<text text-anchor="start" x="182" y="-59.5" font-family="Helvetica,sans-Serif" font-size="10.00">::PrintUsageImplementation</text>
<text text-anchor="middle" x="247" y="-46.5" font-family="Helvetica,sans-Serif" font-size="10.00">::LineWrapper::write_one_line</text>
</a>
</g>
<!-- Node1&#45;&gt;Node2 -->
<g id="edge2" class="edge"><title>Node1&#45;&gt;Node2</title>
<path fill="none" stroke="midnightblue" d="M148.344,-62C156.83,-62 165.433,-62 173.842,-62"/>
<polygon fill="midnightblue" stroke="midnightblue" points="148.074,-58.5001 138.074,-62 148.074,-65.5001 148.074,-58.5001"/>
</g>
<!-- Node3 -->
<g id="node5" class="node"><title>Node3</title>
<a xlink:href="../../d1/d20/classblond_1_1optionparser_1_1PrintUsageImplementation_1_1LineWrapper.html#ae030e8924e6885c73a8fd17af1ef0836" target="_top" xlink:title="Writes (data,len) into the ring buffer. If the buffer is full, a single line is flushed out of the bu...">
<polygon fill="white" stroke="black" points="356,-90.5 356,-137.5 494,-137.5 494,-90.5 356,-90.5"/>
<text text-anchor="start" x="364" y="-124.5" font-family="Helvetica,sans-Serif" font-size="10.00">blond::optionparser</text>
<text text-anchor="start" x="364" y="-111.5" font-family="Helvetica,sans-Serif" font-size="10.00">::PrintUsageImplementation</text>
<text text-anchor="middle" x="425" y="-98.5" font-family="Helvetica,sans-Serif" font-size="10.00">::LineWrapper::output</text>
</a>
</g>
<!-- Node2&#45;&gt;Node3 -->
<g id="edge4" class="edge"><title>Node2&#45;&gt;Node3</title>
<path fill="none" stroke="midnightblue" d="M329.913,-86.2218C338.588,-88.756 347.34,-91.3128 355.838,-93.7953"/>
<polygon fill="midnightblue" stroke="midnightblue" points="330.75,-82.8201 320.17,-83.3755 328.787,-89.5393 330.75,-82.8201"/>
</g>
<!-- Node4 -->
<g id="node7" class="node"><title>Node4</title>
<a xlink:href="../../d1/d20/classblond_1_1optionparser_1_1PrintUsageImplementation_1_1LineWrapper.html#aa1f718d3da3a4dc45da88cdcac4b7ff2" target="_top" xlink:title="Process, wrap and output the next piece of data.">
<polygon fill="white" stroke="black" points="530,-66.5 530,-113.5 668,-113.5 668,-66.5 530,-66.5"/>
<text text-anchor="start" x="538" y="-100.5" font-family="Helvetica,sans-Serif" font-size="10.00">blond::optionparser</text>
<text text-anchor="start" x="538" y="-87.5" font-family="Helvetica,sans-Serif" font-size="10.00">::PrintUsageImplementation</text>
<text text-anchor="middle" x="599" y="-74.5" font-family="Helvetica,sans-Serif" font-size="10.00">::LineWrapper::process</text>
</a>
</g>
<!-- Node2&#45;&gt;Node4 -->
<g id="edge16" class="edge"><title>Node2&#45;&gt;Node4</title>
<path fill="none" stroke="midnightblue" d="M330.247,-68.2217C378.15,-71.8473 439.472,-76.5659 494,-81 505.58,-81.9416 517.875,-82.9699 529.819,-83.9838"/>
<polygon fill="midnightblue" stroke="midnightblue" points="330.472,-64.7288 320.236,-67.4651 329.944,-71.7089 330.472,-64.7288"/>
</g>
<!-- Node7 -->
<g id="node13" class="node"><title>Node7</title>
<a xlink:href="../../d1/d20/classblond_1_1optionparser_1_1PrintUsageImplementation_1_1LineWrapper.html#ade8d3315065bebb2ace091db5ebff9a3" target="_top" xlink:title="Writes out all remaining data from the LineWrapper using write. Unlike process() this method indents ...">
<polygon fill="white" stroke="black" points="530,-0.5 530,-47.5 668,-47.5 668,-0.5 530,-0.5"/>
<text text-anchor="start" x="538" y="-34.5" font-family="Helvetica,sans-Serif" font-size="10.00">blond::optionparser</text>
<text text-anchor="start" x="538" y="-21.5" font-family="Helvetica,sans-Serif" font-size="10.00">::PrintUsageImplementation</text>
<text text-anchor="middle" x="599" y="-8.5" font-family="Helvetica,sans-Serif" font-size="10.00">::LineWrapper::flush</text>
</a>
</g>
<!-- Node2&#45;&gt;Node7 -->
<g id="edge12" class="edge"><title>Node2&#45;&gt;Node7</title>
<path fill="none" stroke="midnightblue" d="M330.324,-53.0048C391.169,-46.4363 472.689,-37.6359 529.92,-31.4575"/>
<polygon fill="midnightblue" stroke="midnightblue" points="329.929,-49.527 320.362,-54.0802 330.68,-56.4866 329.929,-49.527"/>
</g>
<!-- Node3&#45;&gt;Node4 -->
<g id="edge6" class="edge"><title>Node3&#45;&gt;Node4</title>
<path fill="none" stroke="midnightblue" d="M504.035,-103.099C512.625,-101.914 521.319,-100.715 529.779,-99.5477"/>
<polygon fill="midnightblue" stroke="midnightblue" points="503.447,-99.6465 494.019,-104.48 504.404,-106.581 503.447,-99.6465"/>
</g>
<!-- Node5 -->
<g id="node9" class="node"><title>Node5</title>
<a xlink:href="../../d6/d32/structblond_1_1optionparser_1_1PrintUsageImplementation.html#a6c367f953aee7147ad3ba5fd39b6821b" target="_top" xlink:title="blond::optionparser\l::PrintUsageImplementation\l::printUsage">
<polygon fill="white" stroke="black" points="704,-33.5 704,-80.5 842,-80.5 842,-33.5 704,-33.5"/>
<text text-anchor="start" x="712" y="-67.5" font-family="Helvetica,sans-Serif" font-size="10.00">blond::optionparser</text>
<text text-anchor="start" x="712" y="-54.5" font-family="Helvetica,sans-Serif" font-size="10.00">::PrintUsageImplementation</text>
<text text-anchor="middle" x="773" y="-41.5" font-family="Helvetica,sans-Serif" font-size="10.00">::printUsage</text>
</a>
</g>
<!-- Node4&#45;&gt;Node5 -->
<g id="edge8" class="edge"><title>Node4&#45;&gt;Node5</title>
<path fill="none" stroke="midnightblue" d="M678.035,-75.0106C686.625,-73.3815 695.319,-71.7325 703.779,-70.128"/>
<polygon fill="midnightblue" stroke="midnightblue" points="677.192,-71.608 668.019,-76.9101 678.496,-78.4854 677.192,-71.608"/>
</g>
<!-- Node6 -->
<g id="node11" class="node"><title>Node6</title>
<a xlink:href="../../d1/d2f/namespaceblond_1_1optionparser.html#a7cde80b4921a01fdb0ecb23580be9d45" target="_top" xlink:title="Outputs a nicely formatted usage string with support for multi&#45;column formatting and line&#45;wrapping...">
<polygon fill="white" stroke="black" points="878.5,-40 878.5,-74 977.5,-74 977.5,-40 878.5,-40"/>
<text text-anchor="start" x="886.5" y="-61" font-family="Helvetica,sans-Serif" font-size="10.00">blond::optionparser</text>
<text text-anchor="middle" x="928" y="-48" font-family="Helvetica,sans-Serif" font-size="10.00">::printUsage</text>
</a>
</g>
<!-- Node5&#45;&gt;Node6 -->
<g id="edge10" class="edge"><title>Node5&#45;&gt;Node6</title>
<path fill="none" stroke="midnightblue" d="M852.578,-57C861.309,-57 870.004,-57 878.221,-57"/>
<polygon fill="midnightblue" stroke="midnightblue" points="852.34,-53.5001 842.34,-57 852.34,-60.5001 852.34,-53.5001"/>
</g>
<!-- Node7&#45;&gt;Node5 -->
<g id="edge14" class="edge"><title>Node7&#45;&gt;Node5</title>
<path fill="none" stroke="midnightblue" d="M678.035,-38.9894C686.625,-40.6185 695.319,-42.2675 703.779,-43.872"/>
<polygon fill="midnightblue" stroke="midnightblue" points="678.496,-35.5146 668.019,-37.0899 677.192,-42.392 678.496,-35.5146"/>
</g>
</g>
</svg>
        <g id="navigator" transform="translate(0 0)" fill="#404254">
                <rect fill="#f2f5e9" fill-opacity="0.5" stroke="#606060" stroke-width=".5" x="0" y="0" width="60" height="60"/>
                <use id="zoomplus" xlink:href="#zoomPlus" x="17" y="9" onmousedown="handleZoom(evt,'in')"/>
                <use id="zoomminus" xlink:href="#zoomMin" x="42" y="9" onmousedown="handleZoom(evt,'out')"/>
                <use id="reset" xlink:href="#resetDef" x="30" y="36" onmousedown="handleReset()"/>
                <g id="arrowUp" xlink:href="#dirArrow" transform="translate(30 24)" onmousedown="handlePan(0,-1)">
                  <use xlink:href="#rim" fill="#404040">
                        <set attributeName="fill" to="#808080" begin="arrowUp.mouseover" end="arrowUp.mouseout"/>
                  </use>
                  <path fill="none" stroke="white" stroke-width="1.5" d="M0,-3.0v7 M-2.5,-0.5L0,-3.0L2.5,-0.5"/>
                </g>
                <g id="arrowRight" xlink:href="#dirArrow" transform="rotate(90) translate(36 -43)" onmousedown="handlePan(1,0)">
                  <use xlink:href="#rim" fill="#404040">
                        <set attributeName="fill" to="#808080" begin="arrowRight.mouseover" end="arrowRight.mouseout"/>
                  </use>
                  <path fill="none" stroke="white" stroke-width="1.5" d="M0,-3.0v7 M-2.5,-0.5L0,-3.0L2.5,-0.5"/>
                </g>
                <g id="arrowDown" xlink:href="#dirArrow" transform="rotate(180) translate(-30 -48)" onmousedown="handlePan(0,1)">
                  <use xlink:href="#rim" fill="#404040">
                        <set attributeName="fill" to="#808080" begin="arrowDown.mouseover" end="arrowDown.mouseout"/>
                  </use>
                  <path fill="none" stroke="white" stroke-width="1.5" d="M0,-3.0v7 M-2.5,-0.5L0,-3.0L2.5,-0.5"/>
                </g>
                <g id="arrowLeft" xlink:href="#dirArrow" transform="rotate(270) translate(-36 17)" onmousedown="handlePan(-1,0)">
                  <use xlink:href="#rim" fill="#404040">
                        <set attributeName="fill" to="#808080" begin="arrowLeft.mouseover" end="arrowLeft.mouseout"/>
                  </use>
                  <path fill="none" stroke="white" stroke-width="1.5" d="M0,-3.0v7 M-2.5,-0.5L0,-3.0L2.5,-0.5"/>
                </g>
        </g>
        <svg viewBox="0 0 15 15" width="100%" height="30px" preserveAspectRatio="xMaxYMin meet">
         <g id="arrow_out" transform="scale(0.3 0.3)">
          <a xlink:href="classblond_1_1optionparser_1_1PrintUsageImplementation_1_1LineWrapper_ab6aec5179ab1a93fe6a3091c7277bd55_icgraph_org.svg" target="_base">
           <rect id="button" ry="5" rx="5" y="6" x="6" height="38" width="38"
                fill="#f2f5e9" fill-opacity="0.5" stroke="#606060" stroke-width="1.0"/>
           <path id="arrow"
             d="M 11.500037,31.436501 C 11.940474,20.09759 22.043105,11.32322 32.158766,21.979434 L 37.068811,17.246167 C 37.068811,17.246167 37.088388,32 37.088388,32 L 22.160133,31.978069 C 22.160133,31.978069 26.997745,27.140456 26.997745,27.140456 C 18.528582,18.264221 13.291696,25.230495 11.500037,31.436501 z"
             style="fill:#404040;"/>
          </a>
         </g>
        </svg>
</svg>
