<?xml version="1.0" encoding="UTF-8" standalone="no"?>
<!DOCTYPE svg PUBLIC "-//W3C//DTD SVG 1.1//EN"
 "http://www.w3.org/Graphics/SVG/1.1/DTD/svg11.dtd">
<!-- Generated by graphviz version 2.26.3 (20100126.1600)
 -->
<!-- Title: blond::optionparser::PrintUsageImplementation::LineWrapper::process Pages: 1 -->
<svg width="456pt" height="56pt"
 viewBox="0.00 0.00 456.00 56.00" xmlns="http://www.w3.org/2000/svg" xmlns:xlink="http://www.w3.org/1999/xlink">
<g id="graph1" class="graph" transform="scale(1 1) rotate(0) translate(4 52)">
<title>blond::optionparser::PrintUsageImplementation::LineWrapper::process</title>
<polygon fill="white" stroke="white" points="-4,5 -4,-52 453,-52 453,5 -4,5"/>
<!-- Node1 -->
<g id="node1" class="node"><title>Node1</title>
<polygon fill="#bfbfbf" stroke="black" points="0,-0.5 0,-47.5 138,-47.5 138,-0.5 0,-0.5"/>
<text text-anchor="start" x="8" y="-34.5" font-family="Helvetica,sans-Serif" font-size="10.00">blond::optionparser</text>
<text text-anchor="start" x="8" y="-21.5" font-family="Helvetica,sans-Serif" font-size="10.00">::PrintUsageImplementation</text>
<text text-anchor="middle" x="69" y="-8.5" font-family="Helvetica,sans-Serif" font-size="10.00">::LineWrapper::process</text>
</g>
<!-- Node2 -->
<g id="node3" class="node"><title>Node2</title>
<a xlink:href="../../d6/d32/structblond_1_1optionparser_1_1PrintUsageImplementation.html#a6c367f953aee7147ad3ba5fd39b6821b" target="_top" xlink:title="blond::optionparser\l::PrintUsageImplementation\l::printUsage">
<polygon fill="white" stroke="black" points="174,-0.5 174,-47.5 312,-47.5 312,-0.5 174,-0.5"/>
<text text-anchor="start" x="182" y="-34.5" font-family="Helvetica,sans-Serif" font-size="10.00">blond::optionparser</text>
<text text-anchor="start" x="182" y="-21.5" font-family="Helvetica,sans-Serif" font-size="10.00">::PrintUsageImplementation</text>
<text text-anchor="middle" x="243" y="-8.5" font-family="Helvetica,sans-Serif" font-size="10.00">::printUsage</text>
</a>
</g>
<!-- Node1&#45;&gt;Node2 -->
<g id="edge2" class="edge"><title>Node1&#45;&gt;Node2</title>
<path fill="none" stroke="midnightblue" d="M148.035,-24C156.625,-24 165.319,-24 173.779,-24"/>
<polygon fill="midnightblue" stroke="midnightblue" points="148.019,-20.5001 138.019,-24 148.019,-27.5001 148.019,-20.5001"/>
</g>
<!-- Node3 -->
<g id="node5" class="node"><title>Node3</title>
<a xlink:href="../../d1/d2f/namespaceblond_1_1optionparser.html#a7cde80b4921a01fdb0ecb23580be9d45" target="_top" xlink:title="Outputs a nicely formatted usage string with support for multi&#45;column formatting and line&#45;wrapping...">
<polygon fill="white" stroke="black" points="348.5,-7 348.5,-41 447.5,-41 447.5,-7 348.5,-7"/>
<text text-anchor="start" x="356.5" y="-28" font-family="Helvetica,sans-Serif" font-size="10.00">blond::optionparser</text>
<text text-anchor="middle" x="398" y="-15" font-family="Helvetica,sans-Serif" font-size="10.00">::printUsage</text>
</a>
</g>
<!-- Node2&#45;&gt;Node3 -->
<g id="edge4" class="edge"><title>Node2&#45;&gt;Node3</title>
<path fill="none" stroke="midnightblue" d="M322.578,-24C331.309,-24 340.004,-24 348.221,-24"/>
<polygon fill="midnightblue" stroke="midnightblue" points="322.34,-20.5001 312.34,-24 322.34,-27.5001 322.34,-20.5001"/>
</g>
</g>
</svg>
