<?xml version="1.0" encoding="UTF-8" standalone="no"?>
<!DOCTYPE svg PUBLIC "-//W3C//DTD SVG 1.1//EN"
 "http://www.w3.org/Graphics/SVG/1.1/DTD/svg11.dtd">
<!-- Generated by graphviz version 2.26.3 (20100126.1600)
 -->
<!-- Title: option::PrintUsageImplementation::SyscallWriter&lt; Syscall &gt; Pages: 1 -->
<svg width="172pt" height="226pt"
 viewBox="0.00 0.00 172.00 226.00" xmlns="http://www.w3.org/2000/svg" xmlns:xlink="http://www.w3.org/1999/xlink">
<g id="graph1" class="graph" transform="scale(1 1) rotate(0) translate(4 222)">
<title>option::PrintUsageImplementation::SyscallWriter&lt; Syscall &gt;</title>
<polygon fill="white" stroke="white" points="-4,5 -4,-222 169,-222 169,5 -4,5"/>
<!-- Node1 -->
<g id="node1" class="node"><title>Node1</title>
<polygon fill="#bfbfbf" stroke="black" points="0,-1 0,-103 164,-103 164,-1 0,-1"/>
<text text-anchor="start" x="8" y="-90" font-family="Helvetica,sans-Serif" font-size="10.00">option::PrintUsageImplementation</text>
<text text-anchor="middle" x="82" y="-77" font-family="Helvetica,sans-Serif" font-size="10.00">::SyscallWriter&lt; Syscall &gt;</text>
<polyline fill="none" stroke="black" points="0,-69 164,-69 "/>
<text text-anchor="start" x="8" y="-56" font-family="Helvetica,sans-Serif" font-size="10.00">+ fd</text>
<text text-anchor="start" x="8" y="-43" font-family="Helvetica,sans-Serif" font-size="10.00">+ write</text>
<polyline fill="none" stroke="black" points="0,-35 164,-35 "/>
<text text-anchor="start" x="8" y="-22" font-family="Helvetica,sans-Serif" font-size="10.00">+ SyscallWriter()</text>
<text text-anchor="start" x="8" y="-9" font-family="Helvetica,sans-Serif" font-size="10.00">+ operator()()</text>
</g>
<!-- Node2 -->
<g id="node2" class="node"><title>Node2</title>
<a xlink:href="../../dd/d0b/structoption_1_1PrintUsageImplementation_1_1IStringWriter.html" target="_top" xlink:title="{option::PrintUsageImplementation\l::IStringWriter\n||+ operator()()\l}">
<polygon fill="white" stroke="black" points="0,-141 0,-217 164,-217 164,-141 0,-141"/>
<text text-anchor="start" x="8" y="-204" font-family="Helvetica,sans-Serif" font-size="10.00">option::PrintUsageImplementation</text>
<text text-anchor="middle" x="82" y="-191" font-family="Helvetica,sans-Serif" font-size="10.00">::IStringWriter</text>
<polyline fill="none" stroke="black" points="0,-183 164,-183 "/>
<text text-anchor="middle" x="82" y="-170" font-family="Helvetica,sans-Serif" font-size="10.00"> </text>
<polyline fill="none" stroke="black" points="0,-162 164,-162 "/>
<text text-anchor="start" x="8" y="-149" font-family="Helvetica,sans-Serif" font-size="10.00">+ operator()()</text>
</a>
</g>
<!-- Node2&#45;&gt;Node1 -->
<g id="edge2" class="edge"><title>Node2&#45;&gt;Node1</title>
<path fill="none" stroke="midnightblue" d="M82,-130.621C82,-121.662 82,-112.276 82,-103.235"/>
<polygon fill="none" stroke="midnightblue" points="78.5001,-130.896 82,-140.896 85.5001,-130.896 78.5001,-130.896"/>
</g>
</g>
</svg>
