<?xml version="1.0" encoding="UTF-8" standalone="no"?>
<!DOCTYPE svg PUBLIC "-//W3C//DTD SVG 1.1//EN"
 "http://www.w3.org/Graphics/SVG/1.1/DTD/svg11.dtd">
<!-- Generated by graphviz version 2.26.3 (20100126.1600)
 -->
<!-- Title: plot_llrf.h Pages: 1 -->
<!--zoomable 536 -->
<svg id="main" version="1.1" xmlns="http://www.w3.org/2000/svg" xmlns:xlink="http://www.w3.org/1999/xlink" xml:space="preserve" onload="init(evt)">
        <defs>
                <circle id="rim" cx="0" cy="0" r="7"/>
                <circle id="rim2" cx="0" cy="0" r="3.5"/>
                <g id="zoomPlus">
                        <use xlink:href="#rim" fill="#404040">
                                <set attributeName="fill" to="#808080" begin="zoomplus.mouseover" end="zoomplus.mouseout"/>
                        </use>
                        <path d="M-4,0h8M0,-4v8" fill="none" stroke="white" stroke-width="1.5" pointer-events="none"/>
                </g>
                <g id="zoomMin">
                        <use xlink:href="#rim" fill="#404040">
                                <set attributeName="fill" to="#808080" begin="zoomminus.mouseover" end="zoomminus.mouseout"/>
                        </use>
                        <path d="M-4,0h8" fill="none" stroke="white" stroke-width="1.5" pointer-events="none"/>
                </g>
                <g id="dirArrow">
                        <path fill="none" stroke="white" stroke-width="1.5" d="M0,-3.0v7 M-2.5,-0.5L0,-3.0L2.5,-0.5"/>
                </g>
               <g id="resetDef">
                       <use xlink:href="#rim2" fill="#404040">
                               <set attributeName="fill" to="#808080" begin="reset.mouseover" end="reset.mouseout"/>
                       </use>
               </g>
        </defs>

<script type="text/javascript">
var viewWidth = 1835;
var viewHeight = 536;
var sectionId = 'dynsection-0';
</script>
<script xlink:href="../../svgpan.js"/>
<svg id="graph" class="graph">
<g id="viewport">
<title>plot_llrf.h</title>
<polygon fill="white" stroke="white" points="-4,5 -4,-532 1831.53,-532 1831.53,5 -4,5"/>
<!-- Node1 -->
<g id="node1" class="node"><title>Node1</title>
<polygon fill="#bfbfbf" stroke="black" points="1039.53,-506.5 1039.53,-527.5 1095.53,-527.5 1095.53,-506.5 1039.53,-506.5"/>
<text text-anchor="middle" x="1067.53" y="-514.5" font-family="Helvetica,sans-Serif" font-size="10.00">plot_llrf.h</text>
</g>
<!-- Node2 -->
<g id="node3" class="node"><title>Node2</title>
<a xlink:href="../../d5/d34/GeneralParameters_8h.html" target="_top" xlink:title="blond/input_parameters\l/GeneralParameters.h">
<polygon fill="white" stroke="black" points="1103.53,-247 1103.53,-281 1221.53,-281 1221.53,-247 1103.53,-247"/>
<text text-anchor="start" x="1111.53" y="-268" font-family="Helvetica,sans-Serif" font-size="10.00">blond/input_parameters</text>
<text text-anchor="middle" x="1162.53" y="-255" font-family="Helvetica,sans-Serif" font-size="10.00">/GeneralParameters.h</text>
</a>
</g>
<!-- Node1&#45;&gt;Node2 -->
<g id="edge2" class="edge"><title>Node1&#45;&gt;Node2</title>
<path fill="none" stroke="midnightblue" d="M1076.51,-506.355C1097.88,-480.193 1151.08,-409.786 1166.53,-340 1170.07,-324.014 1169.24,-305.696 1167.45,-291.049"/>
<polygon fill="midnightblue" stroke="midnightblue" points="1170.91,-290.519 1166.02,-281.119 1163.98,-291.516 1170.91,-290.519"/>
</g>
<!-- Node18 -->
<g id="node38" class="node"><title>Node18</title>
<a xlink:href="../../d6/db7/RfParameters_8h.html" target="_top" xlink:title="blond/input_parameters\l/RfParameters.h">
<polygon fill="white" stroke="black" points="898.528,-435 898.528,-469 1016.53,-469 1016.53,-435 898.528,-435"/>
<text text-anchor="start" x="906.528" y="-456" font-family="Helvetica,sans-Serif" font-size="10.00">blond/input_parameters</text>
<text text-anchor="middle" x="957.528" y="-443" font-family="Helvetica,sans-Serif" font-size="10.00">/RfParameters.h</text>
</a>
</g>
<!-- Node1&#45;&gt;Node18 -->
<g id="edge40" class="edge"><title>Node1&#45;&gt;Node18</title>
<path fill="none" stroke="midnightblue" d="M1049.36,-506.267C1034.68,-497.59 1013.51,-485.083 995.202,-474.262"/>
<polygon fill="midnightblue" stroke="midnightblue" points="996.873,-471.184 986.483,-469.11 993.312,-477.21 996.873,-471.184"/>
</g>
<!-- Node35 -->
<g id="node91" class="node"><title>Node35</title>
<a xlink:href="../../d4/dba/LHCNoiseFB_8h.html" target="_top" xlink:title="blond/llrf/LHCNoiseFB.h">
<polygon fill="white" stroke="black" points="1239.03,-253.5 1239.03,-274.5 1362.03,-274.5 1362.03,-253.5 1239.03,-253.5"/>
<text text-anchor="middle" x="1300.53" y="-261.5" font-family="Helvetica,sans-Serif" font-size="10.00">blond/llrf/LHCNoiseFB.h</text>
</a>
</g>
<!-- Node1&#45;&gt;Node35 -->
<g id="edge112" class="edge"><title>Node1&#45;&gt;Node35</title>
<path fill="none" stroke="midnightblue" d="M1083.61,-506.342C1096.62,-497.369 1115.08,-483.82 1129.53,-470 1194.85,-407.497 1259.63,-321.046 1286.98,-283.124"/>
<polygon fill="midnightblue" stroke="midnightblue" points="1290.13,-284.741 1293.1,-274.573 1284.44,-280.666 1290.13,-284.741"/>
</g>
<!-- Node37 -->
<g id="node97" class="node"><title>Node37</title>
<a xlink:href="../../d1/da8/python_8h.html" target="_top" xlink:title="blond/python.h">
<polygon fill="white" stroke="black" points="157.528,-253.5 157.528,-274.5 237.528,-274.5 237.528,-253.5 157.528,-253.5"/>
<text text-anchor="middle" x="197.528" y="-261.5" font-family="Helvetica,sans-Serif" font-size="10.00">blond/python.h</text>
</a>
</g>
<!-- Node1&#45;&gt;Node37 -->
<g id="edge120" class="edge"><title>Node1&#45;&gt;Node37</title>
<path fill="none" stroke="midnightblue" d="M1039.4,-509.862C1004.25,-500.876 942.302,-484.818 889.528,-470 643.476,-400.91 350.417,-311.206 241.295,-277.546"/>
<polygon fill="midnightblue" stroke="midnightblue" points="242.208,-274.165 231.62,-274.56 240.143,-280.853 242.208,-274.165"/>
</g>
<!-- Node3 -->
<g id="node5" class="node"><title>Node3</title>
<a xlink:href="../../d2/d2c/configuration_8h.html" target="_top" xlink:title="blond/configuration.h">
<polygon fill="white" stroke="black" points="780.028,-116.5 780.028,-137.5 887.028,-137.5 887.028,-116.5 780.028,-116.5"/>
<text text-anchor="middle" x="833.528" y="-124.5" font-family="Helvetica,sans-Serif" font-size="10.00">blond/configuration.h</text>
</a>
</g>
<!-- Node2&#45;&gt;Node3 -->
<g id="edge4" class="edge"><title>Node2&#45;&gt;Node3</title>
<path fill="none" stroke="midnightblue" d="M1143.44,-246.683C1117.33,-223.325 1071.44,-183.541 1051.53,-174 1037.6,-167.328 956.385,-150.721 897.145,-139.152"/>
<polygon fill="midnightblue" stroke="midnightblue" points="897.586,-135.672 887.102,-137.197 896.249,-142.543 897.586,-135.672"/>
</g>
<!-- Node5 -->
<g id="node9" class="node"><title>Node5</title>
<polygon fill="white" stroke="#bfbfbf" points="1354.53,-58.5 1354.53,-79.5 1398.53,-79.5 1398.53,-58.5 1354.53,-58.5"/>
<text text-anchor="middle" x="1376.53" y="-66.5" font-family="Helvetica,sans-Serif" font-size="10.00">vector</text>
</g>
<!-- Node2&#45;&gt;Node5 -->
<g id="edge38" class="edge"><title>Node2&#45;&gt;Node5</title>
<path fill="none" stroke="midnightblue" d="M1221.83,-248.145C1224.77,-247.409 1227.68,-246.69 1230.53,-246 1447.69,-193.4 1581.53,-312.141 1721.53,-138 1727.65,-130.38 1727.96,-123.366 1721.53,-116 1701.08,-92.5753 1490.62,-76.4429 1408.81,-71.0133"/>
<polygon fill="midnightblue" stroke="midnightblue" points="1408.8,-67.5056 1398.6,-70.347 1408.35,-74.4907 1408.8,-67.5056"/>
</g>
<!-- Node6 -->
<g id="node11" class="node"><title>Node6</title>
<a xlink:href="../../de/df0/utilities_8h.html" target="_top" xlink:title="blond/utilities.h">
<polygon fill="white" stroke="black" points="1152.53,-181.5 1152.53,-202.5 1234.53,-202.5 1234.53,-181.5 1152.53,-181.5"/>
<text text-anchor="middle" x="1193.53" y="-189.5" font-family="Helvetica,sans-Serif" font-size="10.00">blond/utilities.h</text>
</a>
</g>
<!-- Node2&#45;&gt;Node6 -->
<g id="edge10" class="edge"><title>Node2&#45;&gt;Node6</title>
<path fill="none" stroke="midnightblue" d="M1169.87,-246.937C1174.37,-236.494 1180.15,-223.079 1184.87,-212.12"/>
<polygon fill="midnightblue" stroke="midnightblue" points="1188.09,-213.47 1188.83,-202.901 1181.67,-210.702 1188.09,-213.47"/>
</g>
<!-- Node4 -->
<g id="node7" class="node"><title>Node4</title>
<polygon fill="white" stroke="#bfbfbf" points="807.028,-58.5 807.028,-79.5 860.028,-79.5 860.028,-58.5 807.028,-58.5"/>
<text text-anchor="middle" x="833.528" y="-66.5" font-family="Helvetica,sans-Serif" font-size="10.00">complex</text>
</g>
<!-- Node3&#45;&gt;Node4 -->
<g id="edge6" class="edge"><title>Node3&#45;&gt;Node4</title>
<path fill="none" stroke="midnightblue" d="M833.528,-116.362C833.528,-108.922 833.528,-98.7427 833.528,-89.7276"/>
<polygon fill="midnightblue" stroke="midnightblue" points="837.028,-89.5706 833.528,-79.5707 830.028,-89.5707 837.028,-89.5706"/>
</g>
<!-- Node3&#45;&gt;Node5 -->
<g id="edge8" class="edge"><title>Node3&#45;&gt;Node5</title>
<path fill="none" stroke="midnightblue" d="M887.256,-117.203C890.05,-116.776 892.82,-116.372 895.528,-116 1063.83,-92.8827 1266.8,-76.9321 1344.31,-71.2728"/>
<polygon fill="midnightblue" stroke="midnightblue" points="1344.68,-74.7555 1354.4,-70.5429 1344.18,-67.7738 1344.68,-74.7555"/>
</g>
<!-- Node6&#45;&gt;Node3 -->
<g id="edge34" class="edge"><title>Node6&#45;&gt;Node3</title>
<path fill="none" stroke="midnightblue" d="M1160.27,-181.474C1151.03,-178.787 1140.94,-176.075 1131.53,-174 1031.05,-151.851 1001.96,-155.045 897.309,-138.252"/>
<polygon fill="midnightblue" stroke="midnightblue" points="897.715,-134.772 887.283,-136.619 896.59,-141.681 897.715,-134.772"/>
</g>
<!-- Node6&#45;&gt;Node5 -->
<g id="edge30" class="edge"><title>Node6&#45;&gt;Node5</title>
<path fill="none" stroke="midnightblue" d="M1234.89,-183.08C1277.66,-173.063 1340.53,-155.859 1357.53,-138 1369.87,-125.036 1374.34,-104.817 1375.88,-89.6106"/>
<polygon fill="midnightblue" stroke="midnightblue" points="1379.38,-89.8145 1376.57,-79.5996 1372.39,-89.3383 1379.38,-89.8145"/>
</g>
<!-- Node7 -->
<g id="node13" class="node"><title>Node7</title>
<polygon fill="white" stroke="#bfbfbf" points="1404.53,-116.5 1404.53,-137.5 1450.53,-137.5 1450.53,-116.5 1404.53,-116.5"/>
<text text-anchor="middle" x="1427.53" y="-124.5" font-family="Helvetica,sans-Serif" font-size="10.00">chrono</text>
</g>
<!-- Node6&#45;&gt;Node7 -->
<g id="edge12" class="edge"><title>Node6&#45;&gt;Node7</title>
<path fill="none" stroke="midnightblue" d="M1232.84,-181.489C1272.66,-170.783 1335.97,-153.586 1390.53,-138 1391.94,-137.597 1393.38,-137.183 1394.83,-136.762"/>
<polygon fill="midnightblue" stroke="midnightblue" points="1395.84,-140.112 1404.46,-133.942 1393.88,-133.394 1395.84,-140.112"/>
</g>
<!-- Node8 -->
<g id="node15" class="node"><title>Node8</title>
<polygon fill="white" stroke="#bfbfbf" points="1468.03,-116.5 1468.03,-137.5 1511.03,-137.5 1511.03,-116.5 1468.03,-116.5"/>
<text text-anchor="middle" x="1489.53" y="-124.5" font-family="Helvetica,sans-Serif" font-size="10.00">cstdio</text>
</g>
<!-- Node6&#45;&gt;Node8 -->
<g id="edge14" class="edge"><title>Node6&#45;&gt;Node8</title>
<path fill="none" stroke="midnightblue" d="M1234.54,-185.654C1285.23,-177.378 1374.18,-161.444 1458.32,-138.063"/>
<polygon fill="midnightblue" stroke="midnightblue" points="1459.35,-141.409 1468.03,-135.326 1457.45,-134.671 1459.35,-141.409"/>
</g>
<!-- Node9 -->
<g id="node17" class="node"><title>Node9</title>
<polygon fill="white" stroke="#bfbfbf" points="1528.03,-116.5 1528.03,-137.5 1573.03,-137.5 1573.03,-116.5 1528.03,-116.5"/>
<text text-anchor="middle" x="1550.53" y="-124.5" font-family="Helvetica,sans-Serif" font-size="10.00">cstdlib</text>
</g>
<!-- Node6&#45;&gt;Node9 -->
<g id="edge16" class="edge"><title>Node6&#45;&gt;Node9</title>
<path fill="none" stroke="midnightblue" d="M1234.67,-187.553C1295.09,-180.508 1411.39,-164.996 1518.03,-138.074"/>
<polygon fill="midnightblue" stroke="midnightblue" points="1519.17,-141.395 1527.98,-135.519 1517.43,-134.614 1519.17,-141.395"/>
</g>
<!-- Node10 -->
<g id="node19" class="node"><title>Node10</title>
<polygon fill="white" stroke="#bfbfbf" points="1590.53,-116.5 1590.53,-137.5 1640.53,-137.5 1640.53,-116.5 1590.53,-116.5"/>
<text text-anchor="middle" x="1615.53" y="-124.5" font-family="Helvetica,sans-Serif" font-size="10.00">fstream</text>
</g>
<!-- Node6&#45;&gt;Node10 -->
<g id="edge18" class="edge"><title>Node6&#45;&gt;Node10</title>
<path fill="none" stroke="midnightblue" d="M1234.73,-188.648C1304.33,-182.471 1449.59,-167.362 1580.61,-137.904"/>
<polygon fill="midnightblue" stroke="midnightblue" points="1581.44,-141.303 1590.41,-135.666 1579.89,-134.479 1581.44,-141.303"/>
</g>
<!-- Node11 -->
<g id="node21" class="node"><title>Node11</title>
<polygon fill="white" stroke="#bfbfbf" points="1658.53,-116.5 1658.53,-137.5 1712.53,-137.5 1712.53,-116.5 1658.53,-116.5"/>
<text text-anchor="middle" x="1685.53" y="-124.5" font-family="Helvetica,sans-Serif" font-size="10.00">iostream</text>
</g>
<!-- Node6&#45;&gt;Node11 -->
<g id="edge20" class="edge"><title>Node6&#45;&gt;Node11</title>
<path fill="none" stroke="midnightblue" d="M1234.8,-189.59C1313.64,-184.455 1491.1,-170.331 1648.3,-137.976"/>
<polygon fill="midnightblue" stroke="midnightblue" points="1649.07,-141.39 1658.14,-135.92 1647.64,-134.538 1649.07,-141.39"/>
</g>
<!-- Node12 -->
<g id="node23" class="node"><title>Node12</title>
<polygon fill="white" stroke="#bfbfbf" points="904.028,-116.5 904.028,-137.5 951.028,-137.5 951.028,-116.5 904.028,-116.5"/>
<text text-anchor="middle" x="927.528" y="-124.5" font-family="Helvetica,sans-Serif" font-size="10.00">iterator</text>
</g>
<!-- Node6&#45;&gt;Node12 -->
<g id="edge22" class="edge"><title>Node6&#45;&gt;Node12</title>
<path fill="none" stroke="midnightblue" d="M1158.9,-181.44C1150.01,-178.87 1140.45,-176.224 1131.53,-174 1058.86,-155.874 1036.63,-158.474 961.173,-138.229"/>
<polygon fill="midnightblue" stroke="midnightblue" points="961.759,-134.761 951.191,-135.502 959.915,-141.513 961.759,-134.761"/>
</g>
<!-- Node13 -->
<g id="node25" class="node"><title>Node13</title>
<polygon fill="white" stroke="#bfbfbf" points="968.528,-116.5 968.528,-137.5 1020.53,-137.5 1020.53,-116.5 968.528,-116.5"/>
<text text-anchor="middle" x="994.528" y="-124.5" font-family="Helvetica,sans-Serif" font-size="10.00">memory</text>
</g>
<!-- Node6&#45;&gt;Node13 -->
<g id="edge24" class="edge"><title>Node6&#45;&gt;Node13</title>
<path fill="none" stroke="midnightblue" d="M1161.11,-181.412C1125.27,-169.706 1067.7,-150.901 1030.5,-138.749"/>
<polygon fill="midnightblue" stroke="midnightblue" points="1031.17,-135.287 1020.58,-135.509 1029,-141.941 1031.17,-135.287"/>
</g>
<!-- Node14 -->
<g id="node27" class="node"><title>Node14</title>
<polygon fill="white" stroke="#bfbfbf" points="1038.53,-116.5 1038.53,-137.5 1090.53,-137.5 1090.53,-116.5 1038.53,-116.5"/>
<text text-anchor="middle" x="1064.53" y="-124.5" font-family="Helvetica,sans-Serif" font-size="10.00">sstream</text>
</g>
<!-- Node6&#45;&gt;Node14 -->
<g id="edge26" class="edge"><title>Node6&#45;&gt;Node14</title>
<path fill="none" stroke="midnightblue" d="M1172.51,-181.412C1151.34,-170.741 1118.45,-154.172 1094.53,-142.12"/>
<polygon fill="midnightblue" stroke="midnightblue" points="1096.04,-138.958 1085.53,-137.584 1092.89,-145.209 1096.04,-138.958"/>
</g>
<!-- Node15 -->
<g id="node29" class="node"><title>Node15</title>
<polygon fill="white" stroke="#bfbfbf" points="1108.03,-116.5 1108.03,-137.5 1149.03,-137.5 1149.03,-116.5 1108.03,-116.5"/>
<text text-anchor="middle" x="1128.53" y="-124.5" font-family="Helvetica,sans-Serif" font-size="10.00">string</text>
</g>
<!-- Node6&#45;&gt;Node15 -->
<g id="edge28" class="edge"><title>Node6&#45;&gt;Node15</title>
<path fill="none" stroke="midnightblue" d="M1182.79,-181.267C1172.86,-171.328 1157.89,-156.363 1146.19,-144.664"/>
<polygon fill="midnightblue" stroke="midnightblue" points="1148.61,-142.13 1139.06,-137.534 1143.66,-147.08 1148.61,-142.13"/>
</g>
<!-- Node16 -->
<g id="node32" class="node"><title>Node16</title>
<polygon fill="white" stroke="#bfbfbf" points="1166.53,-116.5 1166.53,-137.5 1226.53,-137.5 1226.53,-116.5 1166.53,-116.5"/>
<text text-anchor="middle" x="1196.53" y="-124.5" font-family="Helvetica,sans-Serif" font-size="10.00">sys/stat.h</text>
</g>
<!-- Node6&#45;&gt;Node16 -->
<g id="edge32" class="edge"><title>Node6&#45;&gt;Node16</title>
<path fill="none" stroke="midnightblue" d="M1194.02,-181.267C1194.44,-172.18 1195.06,-158.892 1195.57,-147.74"/>
<polygon fill="midnightblue" stroke="midnightblue" points="1199.08,-147.684 1196.04,-137.534 1192.08,-147.362 1199.08,-147.684"/>
</g>
<!-- Node17 -->
<g id="node35" class="node"><title>Node17</title>
<a xlink:href="../../da/d69/optionparser_8h.html" target="_top" xlink:title="This is the only file required to use The Lean Mean C++ Option Parser. Just #include it and you&#39;re se...">
<polygon fill="white" stroke="black" points="1244.53,-116.5 1244.53,-137.5 1348.53,-137.5 1348.53,-116.5 1244.53,-116.5"/>
<text text-anchor="middle" x="1296.53" y="-124.5" font-family="Helvetica,sans-Serif" font-size="10.00">blond/optionparser.h</text>
</a>
</g>
<!-- Node6&#45;&gt;Node17 -->
<g id="edge36" class="edge"><title>Node6&#45;&gt;Node17</title>
<path fill="none" stroke="midnightblue" d="M1210.54,-181.267C1227.03,-170.855 1252.27,-154.927 1271.15,-143.016"/>
<polygon fill="midnightblue" stroke="midnightblue" points="1273.25,-145.83 1279.84,-137.534 1269.51,-139.911 1273.25,-145.83"/>
</g>
<!-- Node18&#45;&gt;Node2 -->
<g id="edge70" class="edge"><title>Node18&#45;&gt;Node2</title>
<path fill="none" stroke="midnightblue" d="M1016.86,-445.076C1050.39,-438.265 1090.81,-424.762 1117.53,-398 1146.25,-369.232 1156.64,-321.585 1160.4,-291.539"/>
<polygon fill="midnightblue" stroke="midnightblue" points="1163.91,-291.651 1161.51,-281.332 1156.95,-290.897 1163.91,-291.651"/>
</g>
<!-- Node19 -->
<g id="node40" class="node"><title>Node19</title>
<a xlink:href="../../d7/d74/Beams_8h.html" target="_top" xlink:title="blond/beams/Beams.h">
<polygon fill="white" stroke="black" points="994.528,-376.5 994.528,-397.5 1108.53,-397.5 1108.53,-376.5 994.528,-376.5"/>
<text text-anchor="middle" x="1051.53" y="-384.5" font-family="Helvetica,sans-Serif" font-size="10.00">blond/beams/Beams.h</text>
</a>
</g>
<!-- Node18&#45;&gt;Node19 -->
<g id="edge42" class="edge"><title>Node18&#45;&gt;Node19</title>
<path fill="none" stroke="midnightblue" d="M976.202,-434.922C989.475,-425.049 1007.37,-412.704 1022.46,-403.016"/>
<polygon fill="midnightblue" stroke="midnightblue" points="1024.37,-405.95 1030.96,-397.658 1020.63,-400.027 1024.37,-405.95"/>
</g>
<!-- Node20 -->
<g id="node42" class="node"><title>Node20</title>
<a xlink:href="../../d5/d87/globals_8h.html" target="_top" xlink:title="blond/globals.h">
<polygon fill="white" stroke="black" points="927.528,-318.5 927.528,-339.5 1009.53,-339.5 1009.53,-318.5 927.528,-318.5"/>
<text text-anchor="middle" x="968.528" y="-326.5" font-family="Helvetica,sans-Serif" font-size="10.00">blond/globals.h</text>
</a>
</g>
<!-- Node18&#45;&gt;Node20 -->
<g id="edge110" class="edge"><title>Node18&#45;&gt;Node20</title>
<path fill="none" stroke="midnightblue" d="M954.212,-434.897C953.791,-412.573 957.166,-373.535 961.492,-349.605"/>
<polygon fill="midnightblue" stroke="midnightblue" points="964.924,-350.291 963.536,-339.787 958.071,-348.864 964.924,-350.291"/>
</g>
<!-- Node23 -->
<g id="node59" class="node"><title>Node23</title>
<a xlink:href="../../d2/de2/math__functions_8h.html" target="_top" xlink:title="blond/math_functions.h">
<polygon fill="white" stroke="black" points="485.528,-253.5 485.528,-274.5 603.528,-274.5 603.528,-253.5 485.528,-253.5"/>
<text text-anchor="middle" x="544.528" y="-261.5" font-family="Helvetica,sans-Serif" font-size="10.00">blond/math_functions.h</text>
</a>
</g>
<!-- Node18&#45;&gt;Node23 -->
<g id="edge72" class="edge"><title>Node18&#45;&gt;Node23</title>
<path fill="none" stroke="midnightblue" d="M920.148,-434.985C840.146,-398.567 653.448,-313.581 577.522,-279.019"/>
<polygon fill="midnightblue" stroke="midnightblue" points="578.536,-275.635 567.985,-274.678 575.636,-282.006 578.536,-275.635"/>
</g>
<!-- Node34 -->
<g id="node87" class="node"><title>Node34</title>
<a xlink:href="../../d2/d6f/constants_8h.html" target="_top" xlink:title="blond/constants.h">
<polygon fill="white" stroke="black" points="777.528,-318.5 777.528,-339.5 871.528,-339.5 871.528,-318.5 777.528,-318.5"/>
<text text-anchor="middle" x="824.528" y="-326.5" font-family="Helvetica,sans-Serif" font-size="10.00">blond/constants.h</text>
</a>
</g>
<!-- Node18&#45;&gt;Node34 -->
<g id="edge106" class="edge"><title>Node18&#45;&gt;Node34</title>
<path fill="none" stroke="midnightblue" d="M932.216,-434.934C917.946,-424.851 900.112,-411.456 885.528,-398 868.595,-382.377 851.398,-362.481 839.599,-348.072"/>
<polygon fill="midnightblue" stroke="midnightblue" points="842.005,-345.48 833.001,-339.896 836.558,-349.876 842.005,-345.48"/>
</g>
<!-- Node19&#45;&gt;Node2 -->
<g id="edge66" class="edge"><title>Node19&#45;&gt;Node2</title>
<path fill="none" stroke="midnightblue" d="M1061.38,-376.085C1078.96,-356.606 1116.14,-315.406 1140.19,-288.751"/>
<polygon fill="midnightblue" stroke="midnightblue" points="1142.8,-291.086 1146.9,-281.317 1137.6,-286.396 1142.8,-291.086"/>
</g>
<!-- Node19&#45;&gt;Node3 -->
<g id="edge62" class="edge"><title>Node19&#45;&gt;Node3</title>
<path fill="none" stroke="midnightblue" d="M1051.56,-376.43C1051.13,-351.501 1047.1,-287.983 1018.53,-246 982.871,-193.608 915.703,-159.136 872.861,-141.367"/>
<polygon fill="midnightblue" stroke="midnightblue" points="874.165,-138.119 863.582,-137.621 871.545,-144.61 874.165,-138.119"/>
</g>
<!-- Node19&#45;&gt;Node6 -->
<g id="edge64" class="edge"><title>Node19&#45;&gt;Node6</title>
<path fill="none" stroke="midnightblue" d="M1052.1,-376.175C1053.98,-350.696 1061.87,-286.076 1094.53,-246 1109.09,-228.131 1131.2,-215.276 1150.83,-206.604"/>
<polygon fill="midnightblue" stroke="midnightblue" points="1152.35,-209.763 1160.22,-202.678 1149.65,-203.304 1152.35,-209.763"/>
</g>
<!-- Node19&#45;&gt;Node18 -->
<g id="edge68" class="edge"><title>Node19&#45;&gt;Node18</title>
<path fill="none" stroke="midnightblue" d="M1041.02,-397.852C1030.17,-406.379 1012.99,-418.553 996.979,-429.198"/>
<polygon fill="midnightblue" stroke="midnightblue" points="994.692,-426.512 988.249,-434.922 998.53,-432.366 994.692,-426.512"/>
</g>
<!-- Node19&#45;&gt;Node20 -->
<g id="edge44" class="edge"><title>Node19&#45;&gt;Node20</title>
<path fill="none" stroke="midnightblue" d="M1030.94,-376.362C1017.27,-367.859 999.701,-355.779 986.576,-345.947"/>
<polygon fill="midnightblue" stroke="midnightblue" points="988.36,-342.902 978.303,-339.571 984.087,-348.447 988.36,-342.902"/>
</g>
<!-- Node20&#45;&gt;Node2 -->
<g id="edge46" class="edge"><title>Node20&#45;&gt;Node2</title>
<path fill="none" stroke="midnightblue" d="M1000.13,-318.412C1027.59,-309.212 1068.14,-295.626 1101.85,-284.332"/>
<polygon fill="midnightblue" stroke="midnightblue" points="1103.24,-287.556 1111.61,-281.06 1101.02,-280.919 1103.24,-287.556"/>
</g>
<!-- Node20&#45;&gt;Node18 -->
<g id="edge48" class="edge"><title>Node20&#45;&gt;Node18</title>
<path fill="none" stroke="midnightblue" d="M971.59,-339.787C972.844,-358.678 969.86,-398.276 965.641,-425.01"/>
<polygon fill="midnightblue" stroke="midnightblue" points="962.187,-424.442 963.902,-434.897 969.081,-425.655 962.187,-424.442"/>
</g>
<!-- Node20&#45;&gt;Node19 -->
<g id="edge50" class="edge"><title>Node20&#45;&gt;Node19</title>
<path fill="none" stroke="midnightblue" d="M989.007,-339.571C1002.66,-348.055 1020.23,-360.132 1033.38,-369.975"/>
<polygon fill="midnightblue" stroke="midnightblue" points="1031.61,-373.034 1041.67,-376.362 1035.88,-367.488 1031.61,-373.034"/>
</g>
<!-- Node21 -->
<g id="node47" class="node"><title>Node21</title>
<a xlink:href="../../dc/df2/Slices_8h.html" target="_top" xlink:title="blond/beams/Slices.h">
<polygon fill="white" stroke="black" points="899.528,-253.5 899.528,-274.5 1009.53,-274.5 1009.53,-253.5 899.528,-253.5"/>
<text text-anchor="middle" x="954.528" y="-261.5" font-family="Helvetica,sans-Serif" font-size="10.00">blond/beams/Slices.h</text>
</a>
</g>
<!-- Node20&#45;&gt;Node21 -->
<g id="edge52" class="edge"><title>Node20&#45;&gt;Node21</title>
<path fill="none" stroke="midnightblue" d="M966.216,-318.267C964.239,-309.085 961.337,-295.615 958.92,-284.392"/>
<polygon fill="midnightblue" stroke="midnightblue" points="962.324,-283.573 956.797,-274.534 955.481,-285.046 962.324,-283.573"/>
</g>
<!-- Node21&#45;&gt;Node3 -->
<g id="edge54" class="edge"><title>Node21&#45;&gt;Node3</title>
<path fill="none" stroke="midnightblue" d="M947.248,-253.25C935.259,-235.853 910.222,-200.775 885.528,-174 875.86,-163.517 864.147,-152.783 854.287,-144.224"/>
<polygon fill="midnightblue" stroke="midnightblue" points="856.404,-141.43 846.526,-137.6 851.86,-146.754 856.404,-141.43"/>
</g>
<!-- Node21&#45;&gt;Node6 -->
<g id="edge56" class="edge"><title>Node21&#45;&gt;Node6</title>
<path fill="none" stroke="midnightblue" d="M989.537,-253.453C1031.69,-240.753 1102.57,-219.401 1148.69,-205.506"/>
<polygon fill="midnightblue" stroke="midnightblue" points="1149.86,-208.811 1158.43,-202.575 1147.84,-202.108 1149.86,-208.811"/>
</g>
<!-- Node21&#45;&gt;Node18 -->
<g id="edge58" class="edge"><title>Node21&#45;&gt;Node18</title>
<path fill="none" stroke="midnightblue" d="M944.672,-274.581C935.875,-284.805 923.621,-301.177 918.528,-318 907.223,-355.339 925.567,-398.718 940.736,-425.768"/>
<polygon fill="midnightblue" stroke="midnightblue" points="937.844,-427.756 945.915,-434.619 943.885,-424.22 937.844,-427.756"/>
</g>
<!-- Node22 -->
<g id="node52" class="node"><title>Node22</title>
<polygon fill="white" stroke="#bfbfbf" points="605.028,-181.5 605.028,-202.5 640.028,-202.5 640.028,-181.5 605.028,-181.5"/>
<text text-anchor="middle" x="622.528" y="-189.5" font-family="Helvetica,sans-Serif" font-size="10.00">map</text>
</g>
<!-- Node21&#45;&gt;Node22 -->
<g id="edge60" class="edge"><title>Node21&#45;&gt;Node22</title>
<path fill="none" stroke="midnightblue" d="M899.502,-261.381C836.681,-256.801 731.849,-244.26 648.528,-210 647.1,-209.413 645.672,-208.737 644.261,-208"/>
<polygon fill="midnightblue" stroke="midnightblue" points="645.73,-204.794 635.382,-202.52 642.053,-210.751 645.73,-204.794"/>
</g>
<!-- Node23&#45;&gt;Node3 -->
<g id="edge76" class="edge"><title>Node23&#45;&gt;Node3</title>
<path fill="none" stroke="midnightblue" d="M603.755,-259.576C673.956,-253.103 785.145,-238.582 814.528,-210 831.015,-193.963 834.479,-166.76 834.661,-147.889"/>
<polygon fill="midnightblue" stroke="midnightblue" points="838.155,-147.564 834.45,-137.638 831.157,-147.708 838.155,-147.564"/>
</g>
<!-- Node23&#45;&gt;Node6 -->
<g id="edge94" class="edge"><title>Node23&#45;&gt;Node6</title>
<path fill="none" stroke="midnightblue" d="M603.555,-257.452C729.583,-243.47 1023.16,-210.901 1142.11,-197.705"/>
<polygon fill="midnightblue" stroke="midnightblue" points="1142.84,-201.145 1152.39,-196.564 1142.07,-194.188 1142.84,-201.145"/>
</g>
<!-- Node24 -->
<g id="node61" class="node"><title>Node24</title>
<polygon fill="white" stroke="#bfbfbf" points="219.528,-181.5 219.528,-202.5 275.528,-202.5 275.528,-181.5 219.528,-181.5"/>
<text text-anchor="middle" x="247.528" y="-189.5" font-family="Helvetica,sans-Serif" font-size="10.00">algorithm</text>
</g>
<!-- Node23&#45;&gt;Node24 -->
<g id="edge74" class="edge"><title>Node23&#45;&gt;Node24</title>
<path fill="none" stroke="midnightblue" d="M485.448,-254.877C433.214,-246.014 355.316,-230.841 289.528,-210 286.174,-208.938 282.722,-207.703 279.307,-206.388"/>
<polygon fill="midnightblue" stroke="midnightblue" points="280.47,-203.083 269.889,-202.545 277.825,-209.564 280.47,-203.083"/>
</g>
<!-- Node25 -->
<g id="node64" class="node"><title>Node25</title>
<a xlink:href="../../d8/dcd/exp_8h.html" target="_top" xlink:title="blond/exp.h">
<polygon fill="white" stroke="black" points="657.028,-181.5 657.028,-202.5 724.028,-202.5 724.028,-181.5 657.028,-181.5"/>
<text text-anchor="middle" x="690.528" y="-189.5" font-family="Helvetica,sans-Serif" font-size="10.00">blond/exp.h</text>
</a>
</g>
<!-- Node23&#45;&gt;Node25 -->
<g id="edge78" class="edge"><title>Node23&#45;&gt;Node25</title>
<path fill="none" stroke="midnightblue" d="M566.071,-253.376C590.871,-241.146 631.793,-220.965 659.898,-207.105"/>
<polygon fill="midnightblue" stroke="midnightblue" points="661.476,-210.229 668.897,-202.667 658.38,-203.951 661.476,-210.229"/>
</g>
<!-- Node27 -->
<g id="node68" class="node"><title>Node27</title>
<polygon fill="white" stroke="#bfbfbf" points="648.528,-0.5 648.528,-21.5 692.528,-21.5 692.528,-0.5 648.528,-0.5"/>
<text text-anchor="middle" x="670.528" y="-8.5" font-family="Helvetica,sans-Serif" font-size="10.00">cmath</text>
</g>
<!-- Node23&#45;&gt;Node27 -->
<g id="edge96" class="edge"><title>Node23&#45;&gt;Node27</title>
<path fill="none" stroke="midnightblue" d="M485.288,-259.139C416.531,-250.873 316.516,-229.2 349.528,-174 413.018,-67.8368 570.194,-28.4009 638.253,-15.9704"/>
<polygon fill="midnightblue" stroke="midnightblue" points="639.135,-19.3696 648.383,-14.2012 637.93,-12.474 639.135,-19.3696"/>
</g>
<!-- Node28 -->
<g id="node70" class="node"><title>Node28</title>
<polygon fill="white" stroke="#bfbfbf" points="466.528,-116.5 466.528,-137.5 506.528,-137.5 506.528,-116.5 466.528,-116.5"/>
<text text-anchor="middle" x="486.528" y="-124.5" font-family="Helvetica,sans-Serif" font-size="10.00">limits</text>
</g>
<!-- Node23&#45;&gt;Node28 -->
<g id="edge100" class="edge"><title>Node23&#45;&gt;Node28</title>
<path fill="none" stroke="midnightblue" d="M485.135,-254.443C437.308,-245.393 375.642,-230.187 360.528,-210 350.939,-197.192 351.403,-187.143 360.528,-174 371.78,-157.793 423.096,-142.5 456.67,-133.978"/>
<polygon fill="midnightblue" stroke="midnightblue" points="457.589,-137.356 466.456,-131.557 455.908,-130.561 457.589,-137.356"/>
</g>
<!-- Node29 -->
<g id="node72" class="node"><title>Node29</title>
<a xlink:href="../../d1/d3d/sin_8h.html" target="_top" xlink:title="blond/sin.h">
<polygon fill="white" stroke="black" points="741.528,-181.5 741.528,-202.5 805.528,-202.5 805.528,-181.5 741.528,-181.5"/>
<text text-anchor="middle" x="773.528" y="-189.5" font-family="Helvetica,sans-Serif" font-size="10.00">blond/sin.h</text>
</a>
</g>
<!-- Node23&#45;&gt;Node29 -->
<g id="edge86" class="edge"><title>Node23&#45;&gt;Node29</title>
<path fill="none" stroke="midnightblue" d="M587.232,-253.48C625.678,-243.598 683.503,-227.712 732.528,-210 735.432,-208.951 738.422,-207.794 741.401,-206.588"/>
<polygon fill="midnightblue" stroke="midnightblue" points="742.907,-209.751 750.762,-202.641 740.188,-203.301 742.907,-209.751"/>
</g>
<!-- Node31 -->
<g id="node80" class="node"><title>Node31</title>
<polygon fill="white" stroke="#bfbfbf" points="369.028,-181.5 369.028,-202.5 418.028,-202.5 418.028,-181.5 369.028,-181.5"/>
<text text-anchor="middle" x="393.528" y="-189.5" font-family="Helvetica,sans-Serif" font-size="10.00">random</text>
</g>
<!-- Node23&#45;&gt;Node31 -->
<g id="edge98" class="edge"><title>Node23&#45;&gt;Node31</title>
<path fill="none" stroke="midnightblue" d="M519.883,-253.326C495.845,-242.773 458.356,-225.939 426.528,-210 424.777,-209.123 422.984,-208.205 421.182,-207.267"/>
<polygon fill="midnightblue" stroke="midnightblue" points="422.726,-204.124 412.255,-202.51 419.434,-210.302 422.726,-204.124"/>
</g>
<!-- Node32 -->
<g id="node83" class="node"><title>Node32</title>
<polygon fill="white" stroke="#bfbfbf" points="435.028,-181.5 435.028,-202.5 484.028,-202.5 484.028,-181.5 435.028,-181.5"/>
<text text-anchor="middle" x="459.528" y="-189.5" font-family="Helvetica,sans-Serif" font-size="10.00">cassert</text>
</g>
<!-- Node23&#45;&gt;Node32 -->
<g id="edge102" class="edge"><title>Node23&#45;&gt;Node32</title>
<path fill="none" stroke="midnightblue" d="M531.986,-253.376C518.301,-241.784 496.184,-223.05 479.98,-209.324"/>
<polygon fill="midnightblue" stroke="midnightblue" points="482.014,-206.46 472.121,-202.667 477.49,-211.802 482.014,-206.46"/>
</g>
<!-- Node33 -->
<g id="node85" class="node"><title>Node33</title>
<a xlink:href="../../d1/db0/openmp_8h.html" target="_top" xlink:title="blond/openmp.h">
<polygon fill="white" stroke="black" points="501.528,-181.5 501.528,-202.5 587.528,-202.5 587.528,-181.5 501.528,-181.5"/>
<text text-anchor="middle" x="544.528" y="-189.5" font-family="Helvetica,sans-Serif" font-size="10.00">blond/openmp.h</text>
</a>
</g>
<!-- Node23&#45;&gt;Node33 -->
<g id="edge104" class="edge"><title>Node23&#45;&gt;Node33</title>
<path fill="none" stroke="midnightblue" d="M544.528,-253.376C544.528,-242.741 544.528,-226.095 544.528,-212.82"/>
<polygon fill="midnightblue" stroke="midnightblue" points="548.028,-212.667 544.528,-202.667 541.028,-212.667 548.028,-212.667"/>
</g>
<!-- Node26 -->
<g id="node66" class="node"><title>Node26</title>
<a xlink:href="../../df/de1/vdtcore__common_8h.html" target="_top" xlink:title="vdtcore_common.h">
<polygon fill="white" stroke="black" points="620.528,-58.5 620.528,-79.5 720.528,-79.5 720.528,-58.5 620.528,-58.5"/>
<text text-anchor="middle" x="670.528" y="-66.5" font-family="Helvetica,sans-Serif" font-size="10.00">vdtcore_common.h</text>
</a>
</g>
<!-- Node25&#45;&gt;Node26 -->
<g id="edge80" class="edge"><title>Node25&#45;&gt;Node26</title>
<path fill="none" stroke="midnightblue" d="M688.753,-181.085C685.424,-160.609 678.192,-116.133 673.906,-89.778"/>
<polygon fill="midnightblue" stroke="midnightblue" points="677.33,-89.024 672.27,-79.7153 670.421,-90.1475 677.33,-89.024"/>
</g>
<!-- Node25&#45;&gt;Node28 -->
<g id="edge84" class="edge"><title>Node25&#45;&gt;Node28</title>
<path fill="none" stroke="midnightblue" d="M667.183,-181.395C661.163,-178.826 654.653,-176.192 648.528,-174 603.246,-157.797 549.393,-143.041 516.601,-134.543"/>
<polygon fill="midnightblue" stroke="midnightblue" points="517.288,-131.106 506.732,-132.01 515.548,-137.886 517.288,-131.106"/>
</g>
<!-- Node26&#45;&gt;Node27 -->
<g id="edge82" class="edge"><title>Node26&#45;&gt;Node27</title>
<path fill="none" stroke="midnightblue" d="M670.528,-58.3619C670.528,-50.9219 670.528,-40.7427 670.528,-31.7276"/>
<polygon fill="midnightblue" stroke="midnightblue" points="674.028,-31.5706 670.528,-21.5707 667.028,-31.5707 674.028,-31.5706"/>
</g>
<!-- Node30 -->
<g id="node74" class="node"><title>Node30</title>
<a xlink:href="../../dc/dfa/sincos_8h.html" target="_top" xlink:title="sincos.h">
<polygon fill="white" stroke="black" points="710.028,-116.5 710.028,-137.5 763.028,-137.5 763.028,-116.5 710.028,-116.5"/>
<text text-anchor="middle" x="736.528" y="-124.5" font-family="Helvetica,sans-Serif" font-size="10.00">sincos.h</text>
</a>
</g>
<!-- Node29&#45;&gt;Node30 -->
<g id="edge88" class="edge"><title>Node29&#45;&gt;Node30</title>
<path fill="none" stroke="midnightblue" d="M767.418,-181.267C762.03,-171.801 754.047,-157.777 747.547,-146.357"/>
<polygon fill="midnightblue" stroke="midnightblue" points="750.513,-144.493 742.524,-137.534 744.429,-147.956 750.513,-144.493"/>
</g>
<!-- Node30&#45;&gt;Node26 -->
<g id="edge90" class="edge"><title>Node30&#45;&gt;Node26</title>
<path fill="none" stroke="midnightblue" d="M724.422,-116.362C714.84,-107.941 701.264,-96.0105 690.135,-86.2308"/>
<polygon fill="midnightblue" stroke="midnightblue" points="692.379,-83.5427 682.557,-79.5707 687.758,-88.8009 692.379,-83.5427"/>
</g>
<!-- Node30&#45;&gt;Node27 -->
<g id="edge92" class="edge"><title>Node30&#45;&gt;Node27</title>
<path fill="none" stroke="midnightblue" d="M737.879,-116.446C739.182,-102.239 739.68,-76.6012 729.528,-58 722.628,-45.359 710.769,-34.9055 699.485,-27.0928"/>
<polygon fill="midnightblue" stroke="midnightblue" points="701.356,-24.1349 691.059,-21.6406 697.553,-30.0118 701.356,-24.1349"/>
</g>
<!-- Node34&#45;&gt;Node3 -->
<g id="edge108" class="edge"><title>Node34&#45;&gt;Node3</title>
<path fill="none" stroke="midnightblue" d="M826.328,-318.494C830.41,-293.498 839.843,-228.499 837.528,-174 837.165,-165.45 836.432,-156.049 835.691,-147.916"/>
<polygon fill="midnightblue" stroke="midnightblue" points="839.16,-147.426 834.71,-137.811 832.193,-148.102 839.16,-147.426"/>
</g>
<!-- Node35&#45;&gt;Node3 -->
<g id="edge114" class="edge"><title>Node35&#45;&gt;Node3</title>
<path fill="none" stroke="midnightblue" d="M1261.02,-253.476C1228.57,-244.118 1181.89,-228.989 1143.53,-210 1117.68,-197.204 1116.26,-184.827 1089.53,-174 1085.04,-172.183 971.757,-151.722 897.405,-138.402"/>
<polygon fill="midnightblue" stroke="midnightblue" points="897.648,-134.89 887.188,-136.573 896.414,-141.781 897.648,-134.89"/>
</g>
<!-- Node35&#45;&gt;Node6 -->
<g id="edge116" class="edge"><title>Node35&#45;&gt;Node6</title>
<path fill="none" stroke="midnightblue" d="M1284.74,-253.376C1267.12,-241.518 1238.39,-222.186 1217.88,-208.388"/>
<polygon fill="midnightblue" stroke="midnightblue" points="1219.63,-205.346 1209.38,-202.667 1215.72,-211.154 1219.63,-205.346"/>
</g>
<!-- Node36 -->
<g id="node95" class="node"><title>Node36</title>
<polygon fill="white" stroke="#bfbfbf" points="1768.03,-181.5 1768.03,-202.5 1827.03,-202.5 1827.03,-181.5 1768.03,-181.5"/>
<text text-anchor="middle" x="1797.53" y="-189.5" font-family="Helvetica,sans-Serif" font-size="10.00">functional</text>
</g>
<!-- Node35&#45;&gt;Node36 -->
<g id="edge118" class="edge"><title>Node35&#45;&gt;Node36</title>
<path fill="none" stroke="midnightblue" d="M1362.12,-262.083C1450.38,-258.127 1617.32,-246.121 1754.53,-210 1758.38,-208.986 1762.34,-207.696 1766.22,-206.275"/>
<polygon fill="midnightblue" stroke="midnightblue" points="1767.61,-209.49 1775.62,-202.551 1765.03,-202.982 1767.61,-209.49"/>
</g>
<!-- Node37&#45;&gt;Node3 -->
<g id="edge128" class="edge"><title>Node37&#45;&gt;Node3</title>
<path fill="none" stroke="midnightblue" d="M157.496,-259.055C89.5045,-249.185 -36.7827,-223.602 10.5279,-174 38.4568,-144.719 670.121,-142.823 769.588,-137.694"/>
<polygon fill="midnightblue" stroke="midnightblue" points="770.095,-141.167 779.821,-136.963 769.597,-134.185 770.095,-141.167"/>
</g>
<!-- Node37&#45;&gt;Node22 -->
<g id="edge126" class="edge"><title>Node37&#45;&gt;Node22</title>
<path fill="none" stroke="midnightblue" d="M237.755,-260.955C325.519,-253.925 531.52,-235.217 596.528,-210 597.967,-209.442 599.405,-208.789 600.822,-208.069"/>
<polygon fill="midnightblue" stroke="midnightblue" points="603.009,-210.834 609.72,-202.636 599.361,-204.86 603.009,-210.834"/>
</g>
<!-- Node37&#45;&gt;Node24 -->
<g id="edge130" class="edge"><title>Node37&#45;&gt;Node24</title>
<path fill="none" stroke="midnightblue" d="M204.906,-253.376C212.586,-242.316 224.783,-224.753 234.164,-211.243"/>
<polygon fill="midnightblue" stroke="midnightblue" points="237.291,-212.878 240.12,-202.667 231.541,-208.885 237.291,-212.878"/>
</g>
<!-- Node38 -->
<g id="node99" class="node"><title>Node38</title>
<polygon fill="white" stroke="#bfbfbf" points="19.5279,-181.5 19.5279,-202.5 75.5279,-202.5 75.5279,-181.5 19.5279,-181.5"/>
<text text-anchor="middle" x="47.5279" y="-189.5" font-family="Helvetica,sans-Serif" font-size="10.00">Python.h</text>
</g>
<!-- Node37&#45;&gt;Node38 -->
<g id="edge122" class="edge"><title>Node37&#45;&gt;Node38</title>
<path fill="none" stroke="midnightblue" d="M175.42,-253.491C152.625,-242.642 116.06,-225.204 84.5279,-210 82.5412,-209.042 80.4956,-208.053 78.4341,-207.055"/>
<polygon fill="midnightblue" stroke="midnightblue" points="79.953,-203.902 69.4282,-202.685 76.8971,-210.2 79.953,-203.902"/>
</g>
<!-- Node39 -->
<g id="node101" class="node"><title>Node39</title>
<polygon fill="white" stroke="#bfbfbf" points="93.5279,-175 93.5279,-209 201.528,-209 201.528,-175 93.5279,-175"/>
<text text-anchor="start" x="101.528" y="-196" font-family="Helvetica,sans-Serif" font-size="10.00">numpy/core/include</text>
<text text-anchor="middle" x="147.528" y="-183" font-family="Helvetica,sans-Serif" font-size="10.00">/numpy/arrayobject.h</text>
</g>
<!-- Node37&#45;&gt;Node39 -->
<g id="edge124" class="edge"><title>Node37&#45;&gt;Node39</title>
<path fill="none" stroke="midnightblue" d="M190.15,-253.376C183.636,-243.996 173.874,-229.939 165.336,-217.644"/>
<polygon fill="midnightblue" stroke="midnightblue" points="167.978,-215.312 159.399,-209.094 162.228,-219.304 167.978,-215.312"/>
</g>
</g>
</svg>
        <g id="navigator" transform="translate(0 0)" fill="#404254">
                <rect fill="#f2f5e9" fill-opacity="0.5" stroke="#606060" stroke-width=".5" x="0" y="0" width="60" height="60"/>
                <use id="zoomplus" xlink:href="#zoomPlus" x="17" y="9" onmousedown="handleZoom(evt,'in')"/>
                <use id="zoomminus" xlink:href="#zoomMin" x="42" y="9" onmousedown="handleZoom(evt,'out')"/>
                <use id="reset" xlink:href="#resetDef" x="30" y="36" onmousedown="handleReset()"/>
                <g id="arrowUp" xlink:href="#dirArrow" transform="translate(30 24)" onmousedown="handlePan(0,-1)">
                  <use xlink:href="#rim" fill="#404040">
                        <set attributeName="fill" to="#808080" begin="arrowUp.mouseover" end="arrowUp.mouseout"/>
                  </use>
                  <path fill="none" stroke="white" stroke-width="1.5" d="M0,-3.0v7 M-2.5,-0.5L0,-3.0L2.5,-0.5"/>
                </g>
                <g id="arrowRight" xlink:href="#dirArrow" transform="rotate(90) translate(36 -43)" onmousedown="handlePan(1,0)">
                  <use xlink:href="#rim" fill="#404040">
                        <set attributeName="fill" to="#808080" begin="arrowRight.mouseover" end="arrowRight.mouseout"/>
                  </use>
                  <path fill="none" stroke="white" stroke-width="1.5" d="M0,-3.0v7 M-2.5,-0.5L0,-3.0L2.5,-0.5"/>
                </g>
                <g id="arrowDown" xlink:href="#dirArrow" transform="rotate(180) translate(-30 -48)" onmousedown="handlePan(0,1)">
                  <use xlink:href="#rim" fill="#404040">
                        <set attributeName="fill" to="#808080" begin="arrowDown.mouseover" end="arrowDown.mouseout"/>
                  </use>
                  <path fill="none" stroke="white" stroke-width="1.5" d="M0,-3.0v7 M-2.5,-0.5L0,-3.0L2.5,-0.5"/>
                </g>
                <g id="arrowLeft" xlink:href="#dirArrow" transform="rotate(270) translate(-36 17)" onmousedown="handlePan(-1,0)">
                  <use xlink:href="#rim" fill="#404040">
                        <set attributeName="fill" to="#808080" begin="arrowLeft.mouseover" end="arrowLeft.mouseout"/>
                  </use>
                  <path fill="none" stroke="white" stroke-width="1.5" d="M0,-3.0v7 M-2.5,-0.5L0,-3.0L2.5,-0.5"/>
                </g>
        </g>
        <svg viewBox="0 0 15 15" width="100%" height="30px" preserveAspectRatio="xMaxYMin meet">
         <g id="arrow_out" transform="scale(0.3 0.3)">
          <a xlink:href="plot__llrf_8h__incl_org.svg" target="_base">
           <rect id="button" ry="5" rx="5" y="6" x="6" height="38" width="38"
                fill="#f2f5e9" fill-opacity="0.5" stroke="#606060" stroke-width="1.0"/>
           <path id="arrow"
             d="M 11.500037,31.436501 C 11.940474,20.09759 22.043105,11.32322 32.158766,21.979434 L 37.068811,17.246167 C 37.068811,17.246167 37.088388,32 37.088388,32 L 22.160133,31.978069 C 22.160133,31.978069 26.997745,27.140456 26.997745,27.140456 C 18.528582,18.264221 13.291696,25.230495 11.500037,31.436501 z"
             style="fill:#404040;"/>
          </a>
         </g>
        </svg>
</svg>
