<?xml version="1.0" encoding="UTF-8" standalone="no"?>
<!DOCTYPE svg PUBLIC "-//W3C//DTD SVG 1.1//EN"
 "http://www.w3.org/Graphics/SVG/1.1/DTD/svg11.dtd">
<!-- Generated by graphviz version 2.26.3 (20100126.1600)
 -->
<!-- Title: blond::Intensity Pages: 1 -->
<svg width="408pt" height="342pt"
 viewBox="0.00 0.00 408.00 342.00" xmlns="http://www.w3.org/2000/svg" xmlns:xlink="http://www.w3.org/1999/xlink">
<g id="graph1" class="graph" transform="scale(1 1) rotate(0) translate(4 338)">
<title>blond::Intensity</title>
<polygon fill="white" stroke="white" points="-4,5 -4,-338 405,-338 405,5 -4,5"/>
<!-- Node1 -->
<g id="node1" class="node"><title>Node1</title>
<polygon fill="#bfbfbf" stroke="black" points="152.5,-192.5 152.5,-333.5 235.5,-333.5 235.5,-192.5 152.5,-192.5"/>
<text text-anchor="middle" x="194" y="-320.5" font-family="Helvetica,sans-Serif" font-size="10.00">blond::Intensity</text>
<polyline fill="none" stroke="black" points="152.5,-312.5 235.5,-312.5 "/>
<text text-anchor="start" x="160.5" y="-299.5" font-family="Helvetica,sans-Serif" font-size="10.00">+ fFreqArray</text>
<text text-anchor="start" x="160.5" y="-286.5" font-family="Helvetica,sans-Serif" font-size="10.00">+ fImpedance</text>
<text text-anchor="start" x="160.5" y="-273.5" font-family="Helvetica,sans-Serif" font-size="10.00">+ fTimeArray</text>
<text text-anchor="start" x="160.5" y="-260.5" font-family="Helvetica,sans-Serif" font-size="10.00">+ fWake</text>
<polyline fill="none" stroke="black" points="152.5,-252.5 235.5,-252.5 "/>
<text text-anchor="start" x="160.5" y="-239.5" font-family="Helvetica,sans-Serif" font-size="10.00">+ Intensity()</text>
<text text-anchor="start" x="160.5" y="-226.5" font-family="Helvetica,sans-Serif" font-size="10.00">+ ~Intensity()</text>
<text text-anchor="start" x="160.5" y="-213.5" font-family="Helvetica,sans-Serif" font-size="10.00">+ imped_calc()</text>
<text text-anchor="start" x="160.5" y="-200.5" font-family="Helvetica,sans-Serif" font-size="10.00">+ wake_calc()</text>
</g>
<!-- Node2 -->
<g id="node3" class="node"><title>Node2</title>
<a xlink:href="../../d0/d8a/classblond_1_1InputTable.html" target="_top" xlink:title="{blond::InputTable\n|+ fFrequencyArrayLoaded\l+ fImpedanceLoaded\l+ fImZArrayLoaded\l+ fReZArrayLoaded\l+ fWakeArray\l|+ InputTable()\l+ ~InputTable()\l+ imped_calc()\l+ wake_calc()\l}">
<polygon fill="white" stroke="black" points="-0.5,-1 -0.5,-155 128.5,-155 128.5,-1 -0.5,-1"/>
<text text-anchor="middle" x="64" y="-142" font-family="Helvetica,sans-Serif" font-size="10.00">blond::InputTable</text>
<polyline fill="none" stroke="black" points="-0.5,-134 128.5,-134 "/>
<text text-anchor="start" x="7.5" y="-121" font-family="Helvetica,sans-Serif" font-size="10.00">+ fFrequencyArrayLoaded</text>
<text text-anchor="start" x="7.5" y="-108" font-family="Helvetica,sans-Serif" font-size="10.00">+ fImpedanceLoaded</text>
<text text-anchor="start" x="7.5" y="-95" font-family="Helvetica,sans-Serif" font-size="10.00">+ fImZArrayLoaded</text>
<text text-anchor="start" x="7.5" y="-82" font-family="Helvetica,sans-Serif" font-size="10.00">+ fReZArrayLoaded</text>
<text text-anchor="start" x="7.5" y="-69" font-family="Helvetica,sans-Serif" font-size="10.00">+ fWakeArray</text>
<polyline fill="none" stroke="black" points="-0.5,-61 128.5,-61 "/>
<text text-anchor="start" x="7.5" y="-48" font-family="Helvetica,sans-Serif" font-size="10.00">+ InputTable()</text>
<text text-anchor="start" x="7.5" y="-35" font-family="Helvetica,sans-Serif" font-size="10.00">+ ~InputTable()</text>
<text text-anchor="start" x="7.5" y="-22" font-family="Helvetica,sans-Serif" font-size="10.00">+ imped_calc()</text>
<text text-anchor="start" x="7.5" y="-9" font-family="Helvetica,sans-Serif" font-size="10.00">+ wake_calc()</text>
</a>
</g>
<!-- Node1&#45;&gt;Node2 -->
<g id="edge2" class="edge"><title>Node1&#45;&gt;Node2</title>
<path fill="none" stroke="midnightblue" d="M146.397,-195.258C137.247,-182.236 127.6,-168.507 118.257,-155.212"/>
<polygon fill="none" stroke="midnightblue" points="143.718,-197.532 152.331,-203.701 149.445,-193.507 143.718,-197.532"/>
</g>
<!-- Node3 -->
<g id="node5" class="node"><title>Node3</title>
<a xlink:href="../../df/d7d/classblond_1_1Resonators.html" target="_top" xlink:title="{blond::Resonators\n|+ fFrequencyR\l+ fNResonators\l+ fOmegaR\l+ fQ\l+ fRS\l|+ Resonators()\l+ ~Resonators()\l+ imped_calc()\l+ wake_calc()\l}">
<polygon fill="white" stroke="black" points="146,-1 146,-155 242,-155 242,-1 146,-1"/>
<text text-anchor="middle" x="194" y="-142" font-family="Helvetica,sans-Serif" font-size="10.00">blond::Resonators</text>
<polyline fill="none" stroke="black" points="146,-134 242,-134 "/>
<text text-anchor="start" x="154" y="-121" font-family="Helvetica,sans-Serif" font-size="10.00">+ fFrequencyR</text>
<text text-anchor="start" x="154" y="-108" font-family="Helvetica,sans-Serif" font-size="10.00">+ fNResonators</text>
<text text-anchor="start" x="154" y="-95" font-family="Helvetica,sans-Serif" font-size="10.00">+ fOmegaR</text>
<text text-anchor="start" x="154" y="-82" font-family="Helvetica,sans-Serif" font-size="10.00">+ fQ</text>
<text text-anchor="start" x="154" y="-69" font-family="Helvetica,sans-Serif" font-size="10.00">+ fRS</text>
<polyline fill="none" stroke="black" points="146,-61 242,-61 "/>
<text text-anchor="start" x="154" y="-48" font-family="Helvetica,sans-Serif" font-size="10.00">+ Resonators()</text>
<text text-anchor="start" x="154" y="-35" font-family="Helvetica,sans-Serif" font-size="10.00">+ ~Resonators()</text>
<text text-anchor="start" x="154" y="-22" font-family="Helvetica,sans-Serif" font-size="10.00">+ imped_calc()</text>
<text text-anchor="start" x="154" y="-9" font-family="Helvetica,sans-Serif" font-size="10.00">+ wake_calc()</text>
</a>
</g>
<!-- Node1&#45;&gt;Node3 -->
<g id="edge4" class="edge"><title>Node1&#45;&gt;Node3</title>
<path fill="none" stroke="midnightblue" d="M194,-182.21C194,-173.229 194,-164.098 194,-155.164"/>
<polygon fill="none" stroke="midnightblue" points="190.5,-182.268 194,-192.268 197.5,-182.268 190.5,-182.268"/>
</g>
<!-- Node4 -->
<g id="node7" class="node"><title>Node4</title>
<a xlink:href="../../de/d59/classblond_1_1TravelingWaveCavity.html" target="_top" xlink:title="{blond::TravelingWaveCavity\n|+ faFactor\l+ fFrequencyR\l+ fNResonators\l+ fRS\l|+ TravelingWaveCavity()\l+ ~TravelingWaveCavity()\l+ imped_calc()\l+ wake_calc()\l}">
<polygon fill="white" stroke="black" points="260,-7.5 260,-148.5 400,-148.5 400,-7.5 260,-7.5"/>
<text text-anchor="middle" x="330" y="-135.5" font-family="Helvetica,sans-Serif" font-size="10.00">blond::TravelingWaveCavity</text>
<polyline fill="none" stroke="black" points="260,-127.5 400,-127.5 "/>
<text text-anchor="start" x="268" y="-114.5" font-family="Helvetica,sans-Serif" font-size="10.00">+ faFactor</text>
<text text-anchor="start" x="268" y="-101.5" font-family="Helvetica,sans-Serif" font-size="10.00">+ fFrequencyR</text>
<text text-anchor="start" x="268" y="-88.5" font-family="Helvetica,sans-Serif" font-size="10.00">+ fNResonators</text>
<text text-anchor="start" x="268" y="-75.5" font-family="Helvetica,sans-Serif" font-size="10.00">+ fRS</text>
<polyline fill="none" stroke="black" points="260,-67.5 400,-67.5 "/>
<text text-anchor="start" x="268" y="-54.5" font-family="Helvetica,sans-Serif" font-size="10.00">+ TravelingWaveCavity()</text>
<text text-anchor="start" x="268" y="-41.5" font-family="Helvetica,sans-Serif" font-size="10.00">+ ~TravelingWaveCavity()</text>
<text text-anchor="start" x="268" y="-28.5" font-family="Helvetica,sans-Serif" font-size="10.00">+ imped_calc()</text>
<text text-anchor="start" x="268" y="-15.5" font-family="Helvetica,sans-Serif" font-size="10.00">+ wake_calc()</text>
</a>
</g>
<!-- Node1&#45;&gt;Node4 -->
<g id="edge6" class="edge"><title>Node1&#45;&gt;Node4</title>
<path fill="none" stroke="midnightblue" d="M241.626,-198.215C253.431,-182.156 266.139,-164.87 278.136,-148.551"/>
<polygon fill="none" stroke="midnightblue" points="238.647,-196.358 235.543,-206.489 244.287,-200.505 238.647,-196.358"/>
</g>
</g>
</svg>
