<?xml version="1.0" encoding="UTF-8" standalone="no"?>
<!DOCTYPE svg PUBLIC "-//W3C//DTD SVG 1.1//EN"
 "http://www.w3.org/Graphics/SVG/1.1/DTD/svg11.dtd">
<!-- Generated by graphviz version 2.26.3 (20100126.1600)
 -->
<!-- Title: constants.h Pages: 1 -->
<svg width="122pt" height="146pt"
 viewBox="0.00 0.00 122.00 146.00" xmlns="http://www.w3.org/2000/svg" xmlns:xlink="http://www.w3.org/1999/xlink">
<g id="graph1" class="graph" transform="scale(1 1) rotate(0) translate(4 142)">
<title>constants.h</title>
<polygon fill="white" stroke="white" points="-4,5 -4,-142 119,-142 119,5 -4,5"/>
<!-- Node1 -->
<g id="node1" class="node"><title>Node1</title>
<polygon fill="#bfbfbf" stroke="black" points="25,-116.5 25,-137.5 93,-137.5 93,-116.5 25,-116.5"/>
<text text-anchor="middle" x="59" y="-124.5" font-family="Helvetica,sans-Serif" font-size="10.00">constants.h</text>
</g>
<!-- Node2 -->
<g id="node3" class="node"><title>Node2</title>
<a xlink:href="../../d2/d2c/configuration_8h.html" target="_top" xlink:title="blond/configuration.h">
<polygon fill="white" stroke="black" points="5.5,-58.5 5.5,-79.5 112.5,-79.5 112.5,-58.5 5.5,-58.5"/>
<text text-anchor="middle" x="59" y="-66.5" font-family="Helvetica,sans-Serif" font-size="10.00">blond/configuration.h</text>
</a>
</g>
<!-- Node1&#45;&gt;Node2 -->
<g id="edge2" class="edge"><title>Node1&#45;&gt;Node2</title>
<path fill="none" stroke="midnightblue" d="M59,-116.362C59,-108.922 59,-98.7427 59,-89.7276"/>
<polygon fill="midnightblue" stroke="midnightblue" points="62.5001,-89.5706 59,-79.5707 55.5001,-89.5707 62.5001,-89.5706"/>
</g>
<!-- Node3 -->
<g id="node5" class="node"><title>Node3</title>
<polygon fill="white" stroke="#bfbfbf" points="-0.5,-0.5 -0.5,-21.5 52.5,-21.5 52.5,-0.5 -0.5,-0.5"/>
<text text-anchor="middle" x="26" y="-8.5" font-family="Helvetica,sans-Serif" font-size="10.00">complex</text>
</g>
<!-- Node2&#45;&gt;Node3 -->
<g id="edge4" class="edge"><title>Node2&#45;&gt;Node3</title>
<path fill="none" stroke="midnightblue" d="M52.9473,-58.3619C48.5281,-50.5949 42.4104,-39.8426 37.1209,-30.5458"/>
<polygon fill="midnightblue" stroke="midnightblue" points="40.0017,-28.5315 32.0143,-21.5707 33.9176,-31.9932 40.0017,-28.5315"/>
</g>
<!-- Node4 -->
<g id="node7" class="node"><title>Node4</title>
<polygon fill="white" stroke="#bfbfbf" points="70,-0.5 70,-21.5 114,-21.5 114,-0.5 70,-0.5"/>
<text text-anchor="middle" x="92" y="-8.5" font-family="Helvetica,sans-Serif" font-size="10.00">vector</text>
</g>
<!-- Node2&#45;&gt;Node4 -->
<g id="edge6" class="edge"><title>Node2&#45;&gt;Node4</title>
<path fill="none" stroke="midnightblue" d="M65.0527,-58.3619C69.4719,-50.5949 75.5896,-39.8426 80.8791,-30.5458"/>
<polygon fill="midnightblue" stroke="midnightblue" points="84.0824,-31.9932 85.9857,-21.5707 77.9983,-28.5315 84.0824,-31.9932"/>
</g>
</g>
</svg>
