<?xml version="1.0" encoding="UTF-8" standalone="no"?>
<!DOCTYPE svg PUBLIC "-//W3C//DTD SVG 1.1//EN"
 "http://www.w3.org/Graphics/SVG/1.1/DTD/svg11.dtd">
<!-- Generated by graphviz version 2.26.3 (20100126.1600)
 -->
<!-- Title: plot_impedance_vs_frequency Pages: 1 -->
<svg width="320pt" height="266pt"
 viewBox="0.00 0.00 320.00 266.00" xmlns="http://www.w3.org/2000/svg" xmlns:xlink="http://www.w3.org/1999/xlink">
<g id="graph1" class="graph" transform="scale(1 1) rotate(0) translate(4 262)">
<title>plot_impedance_vs_frequency</title>
<polygon fill="white" stroke="white" points="-4,5 -4,-262 317,-262 317,5 -4,5"/>
<!-- Node1 -->
<g id="node1" class="node"><title>Node1</title>
<polygon fill="#bfbfbf" stroke="black" points="0.5,-103.5 0.5,-124.5 149.5,-124.5 149.5,-103.5 0.5,-103.5"/>
<text text-anchor="middle" x="75" y="-111.5" font-family="Helvetica,sans-Serif" font-size="10.00">plot_impedance_vs_frequency</text>
</g>
<!-- Node2 -->
<g id="node3" class="node"><title>Node2</title>
<a xlink:href="../../de/d4a/namespacepython.html#ac861e0dca45fa6613832b68878c13528" target="_top" xlink:title="python::convert_complex\l_array">
<polygon fill="white" stroke="black" points="186,-224 186,-258 312,-258 312,-224 186,-224"/>
<text text-anchor="start" x="194" y="-245" font-family="Helvetica,sans-Serif" font-size="10.00">python::convert_complex</text>
<text text-anchor="middle" x="249" y="-232" font-family="Helvetica,sans-Serif" font-size="10.00">_array</text>
</a>
</g>
<!-- Node1&#45;&gt;Node2 -->
<g id="edge2" class="edge"><title>Node1&#45;&gt;Node2</title>
<path fill="none" stroke="midnightblue" d="M84.421,-124.761C102.435,-144.799 143.745,-188.223 186,-215 188.31,-216.464 190.716,-217.875 193.182,-219.231"/>
<polygon fill="midnightblue" stroke="midnightblue" points="191.813,-222.463 202.311,-223.898 195,-216.23 191.813,-222.463"/>
</g>
<!-- Node3 -->
<g id="node5" class="node"><title>Node3</title>
<a xlink:href="../../de/d4a/namespacepython.html#ad0235e18865fdc48462d0361f898d019" target="_top" xlink:title="python::convert_double\l_2d_array">
<polygon fill="white" stroke="black" points="190,-172 190,-206 308,-206 308,-172 190,-172"/>
<text text-anchor="start" x="198" y="-193" font-family="Helvetica,sans-Serif" font-size="10.00">python::convert_double</text>
<text text-anchor="middle" x="249" y="-180" font-family="Helvetica,sans-Serif" font-size="10.00">_2d_array</text>
</a>
</g>
<!-- Node1&#45;&gt;Node3 -->
<g id="edge4" class="edge"><title>Node1&#45;&gt;Node3</title>
<path fill="none" stroke="midnightblue" d="M98.7452,-124.682C121.171,-134.723 155.778,-150.096 186,-163 189.856,-164.647 193.852,-166.336 197.875,-168.024"/>
<polygon fill="midnightblue" stroke="midnightblue" points="196.681,-171.318 207.258,-171.94 199.378,-164.858 196.681,-171.318"/>
</g>
<!-- Node4 -->
<g id="node7" class="node"><title>Node4</title>
<a xlink:href="../../de/d4a/namespacepython.html#a38f56692b4793b00b074fc192783947e" target="_top" xlink:title="python::convert_double\l_array">
<polygon fill="white" stroke="black" points="190,-120 190,-154 308,-154 308,-120 190,-120"/>
<text text-anchor="start" x="198" y="-141" font-family="Helvetica,sans-Serif" font-size="10.00">python::convert_double</text>
<text text-anchor="middle" x="249" y="-128" font-family="Helvetica,sans-Serif" font-size="10.00">_array</text>
</a>
</g>
<!-- Node1&#45;&gt;Node4 -->
<g id="edge6" class="edge"><title>Node1&#45;&gt;Node4</title>
<path fill="none" stroke="midnightblue" d="M149.549,-123.854C159.544,-125.175 169.763,-126.526 179.663,-127.835"/>
<polygon fill="midnightblue" stroke="midnightblue" points="179.47,-131.34 189.842,-129.18 180.387,-124.4 179.47,-131.34"/>
</g>
<!-- Node5 -->
<g id="node9" class="node"><title>Node5</title>
<a xlink:href="../../de/d4a/namespacepython.html#adb27db8de2c6c5b4f381fadcc86a4939" target="_top" xlink:title="python::convert_int">
<polygon fill="white" stroke="black" points="199,-80.5 199,-101.5 299,-101.5 299,-80.5 199,-80.5"/>
<text text-anchor="middle" x="249" y="-88.5" font-family="Helvetica,sans-Serif" font-size="10.00">python::convert_int</text>
</a>
</g>
<!-- Node1&#45;&gt;Node5 -->
<g id="edge8" class="edge"><title>Node1&#45;&gt;Node5</title>
<path fill="none" stroke="midnightblue" d="M149.549,-104.146C162.723,-102.404 176.285,-100.612 188.995,-98.9318"/>
<polygon fill="midnightblue" stroke="midnightblue" points="189.526,-102.392 198.981,-97.6118 188.608,-95.4525 189.526,-102.392"/>
</g>
<!-- Node6 -->
<g id="node11" class="node"><title>Node6</title>
<a xlink:href="../../de/d4a/namespacepython.html#aaed0c03f36b79c4703d003314d78b412" target="_top" xlink:title="python::convert_string">
<polygon fill="white" stroke="black" points="192.5,-40.5 192.5,-61.5 305.5,-61.5 305.5,-40.5 192.5,-40.5"/>
<text text-anchor="middle" x="249" y="-48.5" font-family="Helvetica,sans-Serif" font-size="10.00">python::convert_string</text>
</a>
</g>
<!-- Node1&#45;&gt;Node6 -->
<g id="edge10" class="edge"><title>Node1&#45;&gt;Node6</title>
<path fill="none" stroke="midnightblue" d="M100.846,-103.462C123.235,-94.4608 156.565,-81.3625 186,-71 192.038,-68.8744 198.436,-66.7256 204.75,-64.6645"/>
<polygon fill="midnightblue" stroke="midnightblue" points="206.093,-67.9092 214.54,-61.514 203.948,-61.2458 206.093,-67.9092"/>
</g>
<!-- Node7 -->
<g id="node13" class="node"><title>Node7</title>
<a xlink:href="../../de/d4a/namespacepython.html#a713f8b295244715fb64ea92c5b172d33" target="_top" xlink:title="python::import">
<polygon fill="white" stroke="black" points="209.5,-0.5 209.5,-21.5 288.5,-21.5 288.5,-0.5 209.5,-0.5"/>
<text text-anchor="middle" x="249" y="-8.5" font-family="Helvetica,sans-Serif" font-size="10.00">python::import</text>
</a>
</g>
<!-- Node1&#45;&gt;Node7 -->
<g id="edge12" class="edge"><title>Node1&#45;&gt;Node7</title>
<path fill="none" stroke="midnightblue" d="M86.4302,-103.365C105.634,-86.0031 146.193,-51.4579 186,-31 190.303,-28.7887 194.897,-26.7634 199.569,-24.9227"/>
<polygon fill="midnightblue" stroke="midnightblue" points="201.011,-28.1223 209.203,-21.4034 198.609,-21.5473 201.011,-28.1223"/>
</g>
</g>
</svg>
