<?xml version="1.0" encoding="UTF-8" standalone="no"?>
<!DOCTYPE svg PUBLIC "-//W3C//DTD SVG 1.1//EN"
 "http://www.w3.org/Graphics/SVG/1.1/DTD/svg11.dtd">
<!-- Generated by graphviz version 2.26.3 (20100126.1600)
 -->
<!-- Title: option::Parser Pages: 1 -->
<svg width="194pt" height="498pt"
 viewBox="0.00 0.00 194.00 498.00" xmlns="http://www.w3.org/2000/svg" xmlns:xlink="http://www.w3.org/1999/xlink">
<g id="graph1" class="graph" transform="scale(1 1) rotate(0) translate(4 494)">
<title>option::Parser</title>
<polygon fill="white" stroke="white" points="-4,5 -4,-494 191,-494 191,5 -4,5"/>
<!-- Node1 -->
<g id="node1" class="node"><title>Node1</title>
<polygon fill="#bfbfbf" stroke="black" points="62,-0.5 62,-375.5 164,-375.5 164,-0.5 62,-0.5"/>
<text text-anchor="middle" x="113" y="-362.5" font-family="Helvetica,sans-Serif" font-size="10.00">option::Parser</text>
<polyline fill="none" stroke="black" points="62,-354.5 164,-354.5 "/>
<text text-anchor="start" x="70" y="-341.5" font-family="Helvetica,sans-Serif" font-size="10.00">&#45; Action</text>
<text text-anchor="start" x="70" y="-328.5" font-family="Helvetica,sans-Serif" font-size="10.00">&#45; buffer</text>
<text text-anchor="start" x="70" y="-315.5" font-family="Helvetica,sans-Serif" font-size="10.00">&#45; bufmax</text>
<text text-anchor="start" x="70" y="-302.5" font-family="Helvetica,sans-Serif" font-size="10.00">&#45; err</text>
<text text-anchor="start" x="70" y="-289.5" font-family="Helvetica,sans-Serif" font-size="10.00">&#45; nonop_args</text>
<text text-anchor="start" x="70" y="-276.5" font-family="Helvetica,sans-Serif" font-size="10.00">&#45; nonop_count</text>
<text text-anchor="start" x="70" y="-263.5" font-family="Helvetica,sans-Serif" font-size="10.00">&#45; op_count</text>
<text text-anchor="start" x="70" y="-250.5" font-family="Helvetica,sans-Serif" font-size="10.00">&#45; options</text>
<text text-anchor="start" x="70" y="-237.5" font-family="Helvetica,sans-Serif" font-size="10.00">&#45; parser</text>
<text text-anchor="start" x="70" y="-224.5" font-family="Helvetica,sans-Serif" font-size="10.00">&#45; StoreOptionAction</text>
<polyline fill="none" stroke="black" points="62,-216.5 164,-216.5 "/>
<text text-anchor="start" x="70" y="-203.5" font-family="Helvetica,sans-Serif" font-size="10.00">+ Parser()</text>
<text text-anchor="start" x="70" y="-190.5" font-family="Helvetica,sans-Serif" font-size="10.00">+ Parser()</text>
<text text-anchor="start" x="70" y="-177.5" font-family="Helvetica,sans-Serif" font-size="10.00">+ Parser()</text>
<text text-anchor="start" x="70" y="-164.5" font-family="Helvetica,sans-Serif" font-size="10.00">+ Parser()</text>
<text text-anchor="start" x="70" y="-151.5" font-family="Helvetica,sans-Serif" font-size="10.00">+ Parser()</text>
<text text-anchor="start" x="70" y="-138.5" font-family="Helvetica,sans-Serif" font-size="10.00">+ error()</text>
<text text-anchor="start" x="70" y="-125.5" font-family="Helvetica,sans-Serif" font-size="10.00">+ finished()</text>
<text text-anchor="start" x="70" y="-112.5" font-family="Helvetica,sans-Serif" font-size="10.00">+ finished()</text>
<text text-anchor="start" x="70" y="-99.5" font-family="Helvetica,sans-Serif" font-size="10.00">+ nonOption()</text>
<text text-anchor="start" x="70" y="-86.5" font-family="Helvetica,sans-Serif" font-size="10.00">+ nonOptions()</text>
<text text-anchor="start" x="70" y="-73.5" font-family="Helvetica,sans-Serif" font-size="10.00">and 9 more...</text>
<text text-anchor="start" x="70" y="-60.5" font-family="Helvetica,sans-Serif" font-size="10.00">&#45; instr()</text>
<text text-anchor="start" x="70" y="-47.5" font-family="Helvetica,sans-Serif" font-size="10.00">&#45; shift()</text>
<text text-anchor="start" x="70" y="-34.5" font-family="Helvetica,sans-Serif" font-size="10.00">&#45; streq()</text>
<text text-anchor="start" x="70" y="-21.5" font-family="Helvetica,sans-Serif" font-size="10.00">&#45; streqabbr()</text>
<text text-anchor="start" x="70" y="-8.5" font-family="Helvetica,sans-Serif" font-size="10.00">&#45; workhorse()</text>
</g>
<!-- Node2 -->
<g id="node2" class="node"><title>Node2</title>
<polygon fill="white" stroke="#bfbfbf" points="-0.5,-413 -0.5,-489 124.5,-489 124.5,-413 -0.5,-413"/>
<text text-anchor="start" x="7.5" y="-476" font-family="Helvetica,sans-Serif" font-size="10.00">StoreOptionAction public</text>
<text text-anchor="middle" x="62" y="-463" font-family="Helvetica,sans-Serif" font-size="10.00"> Parser::Action</text>
<polyline fill="none" stroke="#bfbfbf" points="-0.5,-455 124.5,-455 "/>
<text text-anchor="middle" x="62" y="-442" font-family="Helvetica,sans-Serif" font-size="10.00"> </text>
<polyline fill="none" stroke="#bfbfbf" points="-0.5,-434 124.5,-434 "/>
<text text-anchor="middle" x="62" y="-421" font-family="Helvetica,sans-Serif" font-size="10.00"> </text>
</g>
<!-- Node2&#45;&gt;Node1 -->
<g id="edge2" class="edge"><title>Node2&#45;&gt;Node1</title>
<path fill="none" stroke="#8b1a1a" d="M71.3306,-402.884C72.9645,-394.457 74.7493,-385.254 76.6312,-375.549"/>
<polygon fill="none" stroke="#8b1a1a" points="67.8836,-402.274 69.4158,-412.758 74.7556,-403.607 67.8836,-402.274"/>
</g>
<!-- Node3 -->
<g id="node4" class="node"><title>Node3</title>
<polygon fill="white" stroke="#bfbfbf" points="142,-419.5 142,-482.5 186,-482.5 186,-419.5 142,-419.5"/>
<text text-anchor="middle" x="164" y="-469.5" font-family="Helvetica,sans-Serif" font-size="10.00">Action</text>
<polyline fill="none" stroke="#bfbfbf" points="142,-461.5 186,-461.5 "/>
<text text-anchor="middle" x="164" y="-448.5" font-family="Helvetica,sans-Serif" font-size="10.00"> </text>
<polyline fill="none" stroke="#bfbfbf" points="142,-440.5 186,-440.5 "/>
<text text-anchor="middle" x="164" y="-427.5" font-family="Helvetica,sans-Serif" font-size="10.00"> </text>
</g>
<!-- Node3&#45;&gt;Node1 -->
<g id="edge4" class="edge"><title>Node3&#45;&gt;Node1</title>
<path fill="none" stroke="midnightblue" d="M155.911,-409.285C153.957,-399.208 151.742,-387.785 149.372,-375.567"/>
<polygon fill="none" stroke="midnightblue" points="152.508,-410.125 157.848,-419.276 159.38,-408.793 152.508,-410.125"/>
</g>
</g>
</svg>
