<?xml version="1.0" encoding="UTF-8" standalone="no"?>
<!DOCTYPE svg PUBLIC "-//W3C//DTD SVG 1.1//EN"
 "http://www.w3.org/Graphics/SVG/1.1/DTD/svg11.dtd">
<!-- Generated by graphviz version 2.26.3 (20100126.1600)
 -->
<!-- Title: Slices.h Pages: 1 -->
<svg width="1032pt" height="204pt"
 viewBox="0.00 0.00 1032.00 204.00" xmlns="http://www.w3.org/2000/svg" xmlns:xlink="http://www.w3.org/1999/xlink">
<g id="graph1" class="graph" transform="scale(1 1) rotate(0) translate(4 200)">
<title>Slices.h</title>
<polygon fill="white" stroke="white" points="-4,5 -4,-200 1029,-200 1029,5 -4,5"/>
<!-- Node1 -->
<g id="node1" class="node"><title>Node1</title>
<polygon fill="#bfbfbf" stroke="black" points="319,-174.5 319,-195.5 371,-195.5 371,-174.5 319,-174.5"/>
<text text-anchor="middle" x="345" y="-182.5" font-family="Helvetica,sans-Serif" font-size="10.00">Slices.h</text>
</g>
<!-- Node2 -->
<g id="node3" class="node"><title>Node2</title>
<a xlink:href="../../d2/d2c/configuration_8h.html" target="_top" xlink:title="blond/configuration.h">
<polygon fill="white" stroke="black" points="-0.5,-58.5 -0.5,-79.5 106.5,-79.5 106.5,-58.5 -0.5,-58.5"/>
<text text-anchor="middle" x="53" y="-66.5" font-family="Helvetica,sans-Serif" font-size="10.00">blond/configuration.h</text>
</a>
</g>
<!-- Node1&#45;&gt;Node2 -->
<g id="edge2" class="edge"><title>Node1&#45;&gt;Node2</title>
<path fill="none" stroke="midnightblue" d="M318.83,-174.604C266.452,-153.796 148.658,-107.001 89.0337,-83.3148"/>
<polygon fill="midnightblue" stroke="midnightblue" points="90.2237,-80.0215 79.638,-79.5822 87.6393,-86.527 90.2237,-80.0215"/>
</g>
<!-- Node5 -->
<g id="node9" class="node"><title>Node5</title>
<a xlink:href="../../de/df0/utilities_8h.html" target="_top" xlink:title="blond/utilities.h">
<polygon fill="white" stroke="black" points="402,-116.5 402,-137.5 484,-137.5 484,-116.5 402,-116.5"/>
<text text-anchor="middle" x="443" y="-124.5" font-family="Helvetica,sans-Serif" font-size="10.00">blond/utilities.h</text>
</a>
</g>
<!-- Node1&#45;&gt;Node5 -->
<g id="edge8" class="edge"><title>Node1&#45;&gt;Node5</title>
<path fill="none" stroke="midnightblue" d="M362.975,-174.362C377.894,-165.532 399.333,-152.844 416.266,-142.822"/>
<polygon fill="midnightblue" stroke="midnightblue" points="418.316,-145.676 425.139,-137.571 414.751,-139.652 418.316,-145.676"/>
</g>
<!-- Node3 -->
<g id="node5" class="node"><title>Node3</title>
<polygon fill="white" stroke="#bfbfbf" points="26.5,-0.5 26.5,-21.5 79.5,-21.5 79.5,-0.5 26.5,-0.5"/>
<text text-anchor="middle" x="53" y="-8.5" font-family="Helvetica,sans-Serif" font-size="10.00">complex</text>
</g>
<!-- Node2&#45;&gt;Node3 -->
<g id="edge4" class="edge"><title>Node2&#45;&gt;Node3</title>
<path fill="none" stroke="midnightblue" d="M53,-58.3619C53,-50.9219 53,-40.7427 53,-31.7276"/>
<polygon fill="midnightblue" stroke="midnightblue" points="56.5001,-31.5706 53,-21.5707 49.5001,-31.5707 56.5001,-31.5706"/>
</g>
<!-- Node4 -->
<g id="node7" class="node"><title>Node4</title>
<polygon fill="white" stroke="#bfbfbf" points="104,-0.5 104,-21.5 148,-21.5 148,-0.5 104,-0.5"/>
<text text-anchor="middle" x="126" y="-8.5" font-family="Helvetica,sans-Serif" font-size="10.00">vector</text>
</g>
<!-- Node2&#45;&gt;Node4 -->
<g id="edge6" class="edge"><title>Node2&#45;&gt;Node4</title>
<path fill="none" stroke="midnightblue" d="M66.3893,-58.3619C77.0912,-49.859 92.296,-37.7785 104.671,-27.9466"/>
<polygon fill="midnightblue" stroke="midnightblue" points="107.043,-30.5318 112.696,-21.5707 102.689,-25.0511 107.043,-30.5318"/>
</g>
<!-- Node5&#45;&gt;Node2 -->
<g id="edge32" class="edge"><title>Node5&#45;&gt;Node2</title>
<path fill="none" stroke="midnightblue" d="M401.919,-121.267C340.526,-112.644 221.219,-95.672 120,-80 118.922,-79.8332 117.835,-79.664 116.741,-79.493"/>
<polygon fill="midnightblue" stroke="midnightblue" points="117.167,-76.017 106.743,-77.9119 116.074,-82.9311 117.167,-76.017"/>
</g>
<!-- Node5&#45;&gt;Node4 -->
<g id="edge28" class="edge"><title>Node5&#45;&gt;Node4</title>
<path fill="none" stroke="midnightblue" d="M401.792,-125.264C331.068,-121.496 190.551,-110.319 153,-80 138.423,-68.2302 131.693,-47.5183 128.6,-31.849"/>
<polygon fill="midnightblue" stroke="midnightblue" points="131.982,-30.843 126.93,-21.5306 125.072,-31.9614 131.982,-30.843"/>
</g>
<!-- Node6 -->
<g id="node11" class="node"><title>Node6</title>
<polygon fill="white" stroke="#bfbfbf" points="162,-58.5 162,-79.5 208,-79.5 208,-58.5 162,-58.5"/>
<text text-anchor="middle" x="185" y="-66.5" font-family="Helvetica,sans-Serif" font-size="10.00">chrono</text>
</g>
<!-- Node5&#45;&gt;Node6 -->
<g id="edge10" class="edge"><title>Node5&#45;&gt;Node6</title>
<path fill="none" stroke="midnightblue" d="M401.802,-120.045C358.264,-112.339 287.482,-98.8009 218.092,-80.071"/>
<polygon fill="midnightblue" stroke="midnightblue" points="218.882,-76.6586 208.313,-77.3937 217.033,-83.4102 218.882,-76.6586"/>
</g>
<!-- Node7 -->
<g id="node13" class="node"><title>Node7</title>
<polygon fill="white" stroke="#bfbfbf" points="225.5,-58.5 225.5,-79.5 268.5,-79.5 268.5,-58.5 225.5,-58.5"/>
<text text-anchor="middle" x="247" y="-66.5" font-family="Helvetica,sans-Serif" font-size="10.00">cstdio</text>
</g>
<!-- Node5&#45;&gt;Node7 -->
<g id="edge12" class="edge"><title>Node5&#45;&gt;Node7</title>
<path fill="none" stroke="midnightblue" d="M402.491,-116.448C370.831,-107.997 325.549,-95.4603 278.082,-80.2125"/>
<polygon fill="midnightblue" stroke="midnightblue" points="279.154,-76.881 268.562,-77.1272 276.996,-83.5399 279.154,-76.881"/>
</g>
<!-- Node8 -->
<g id="node15" class="node"><title>Node8</title>
<polygon fill="white" stroke="#bfbfbf" points="285.5,-58.5 285.5,-79.5 330.5,-79.5 330.5,-58.5 285.5,-58.5"/>
<text text-anchor="middle" x="308" y="-66.5" font-family="Helvetica,sans-Serif" font-size="10.00">cstdlib</text>
</g>
<!-- Node5&#45;&gt;Node8 -->
<g id="edge14" class="edge"><title>Node5&#45;&gt;Node8</title>
<path fill="none" stroke="midnightblue" d="M418.553,-116.497C396.648,-107.086 364.362,-93.2149 340.33,-82.8899"/>
<polygon fill="midnightblue" stroke="midnightblue" points="341.485,-79.5768 330.915,-78.8451 338.722,-86.0083 341.485,-79.5768"/>
</g>
<!-- Node9 -->
<g id="node17" class="node"><title>Node9</title>
<polygon fill="white" stroke="#bfbfbf" points="348,-58.5 348,-79.5 398,-79.5 398,-58.5 348,-58.5"/>
<text text-anchor="middle" x="373" y="-66.5" font-family="Helvetica,sans-Serif" font-size="10.00">fstream</text>
</g>
<!-- Node5&#45;&gt;Node9 -->
<g id="edge16" class="edge"><title>Node5&#45;&gt;Node9</title>
<path fill="none" stroke="midnightblue" d="M430.161,-116.362C419.998,-107.941 405.599,-96.0105 393.796,-86.2308"/>
<polygon fill="midnightblue" stroke="midnightblue" points="395.691,-83.2558 385.758,-79.5707 391.225,-88.6459 395.691,-83.2558"/>
</g>
<!-- Node10 -->
<g id="node19" class="node"><title>Node10</title>
<polygon fill="white" stroke="#bfbfbf" points="416,-58.5 416,-79.5 470,-79.5 470,-58.5 416,-58.5"/>
<text text-anchor="middle" x="443" y="-66.5" font-family="Helvetica,sans-Serif" font-size="10.00">iostream</text>
</g>
<!-- Node5&#45;&gt;Node10 -->
<g id="edge18" class="edge"><title>Node5&#45;&gt;Node10</title>
<path fill="none" stroke="midnightblue" d="M443,-116.362C443,-108.922 443,-98.7427 443,-89.7276"/>
<polygon fill="midnightblue" stroke="midnightblue" points="446.5,-89.5706 443,-79.5707 439.5,-89.5707 446.5,-89.5706"/>
</g>
<!-- Node11 -->
<g id="node21" class="node"><title>Node11</title>
<polygon fill="white" stroke="#bfbfbf" points="487.5,-58.5 487.5,-79.5 534.5,-79.5 534.5,-58.5 487.5,-58.5"/>
<text text-anchor="middle" x="511" y="-66.5" font-family="Helvetica,sans-Serif" font-size="10.00">iterator</text>
</g>
<!-- Node5&#45;&gt;Node11 -->
<g id="edge20" class="edge"><title>Node5&#45;&gt;Node11</title>
<path fill="none" stroke="midnightblue" d="M455.472,-116.362C465.345,-107.941 479.333,-96.0105 490.798,-86.2308"/>
<polygon fill="midnightblue" stroke="midnightblue" points="493.27,-88.7231 498.607,-79.5707 488.727,-83.3972 493.27,-88.7231"/>
</g>
<!-- Node12 -->
<g id="node23" class="node"><title>Node12</title>
<polygon fill="white" stroke="#bfbfbf" points="552,-58.5 552,-79.5 604,-79.5 604,-58.5 552,-58.5"/>
<text text-anchor="middle" x="578" y="-66.5" font-family="Helvetica,sans-Serif" font-size="10.00">memory</text>
</g>
<!-- Node5&#45;&gt;Node12 -->
<g id="edge22" class="edge"><title>Node5&#45;&gt;Node12</title>
<path fill="none" stroke="midnightblue" d="M467.447,-116.497C488.818,-107.315 520.069,-93.8889 543.897,-83.6516"/>
<polygon fill="midnightblue" stroke="midnightblue" points="545.472,-86.7845 553.278,-79.6212 542.709,-80.3529 545.472,-86.7845"/>
</g>
<!-- Node13 -->
<g id="node25" class="node"><title>Node13</title>
<polygon fill="white" stroke="#bfbfbf" points="622,-58.5 622,-79.5 674,-79.5 674,-58.5 622,-58.5"/>
<text text-anchor="middle" x="648" y="-66.5" font-family="Helvetica,sans-Serif" font-size="10.00">sstream</text>
</g>
<!-- Node5&#45;&gt;Node13 -->
<g id="edge24" class="edge"><title>Node5&#45;&gt;Node13</title>
<path fill="none" stroke="midnightblue" d="M482.614,-116.466C515.048,-107.748 562.349,-94.8213 612.026,-80.2287"/>
<polygon fill="midnightblue" stroke="midnightblue" points="613.056,-83.5739 621.657,-77.3871 611.075,-76.86 613.056,-83.5739"/>
</g>
<!-- Node14 -->
<g id="node27" class="node"><title>Node14</title>
<polygon fill="white" stroke="#bfbfbf" points="691.5,-58.5 691.5,-79.5 732.5,-79.5 732.5,-58.5 691.5,-58.5"/>
<text text-anchor="middle" x="712" y="-66.5" font-family="Helvetica,sans-Serif" font-size="10.00">string</text>
</g>
<!-- Node5&#45;&gt;Node14 -->
<g id="edge26" class="edge"><title>Node5&#45;&gt;Node14</title>
<path fill="none" stroke="midnightblue" d="M484.266,-121.095C530.412,-114.015 607.43,-100.774 681.305,-80.1779"/>
<polygon fill="midnightblue" stroke="midnightblue" points="682.569,-83.4573 691.233,-77.3591 680.657,-76.7234 682.569,-83.4573"/>
</g>
<!-- Node15 -->
<g id="node30" class="node"><title>Node15</title>
<polygon fill="white" stroke="#bfbfbf" points="750,-58.5 750,-79.5 810,-79.5 810,-58.5 750,-58.5"/>
<text text-anchor="middle" x="780" y="-66.5" font-family="Helvetica,sans-Serif" font-size="10.00">sys/stat.h</text>
</g>
<!-- Node5&#45;&gt;Node15 -->
<g id="edge30" class="edge"><title>Node5&#45;&gt;Node15</title>
<path fill="none" stroke="midnightblue" d="M484.26,-122.064C540.125,-115.038 643.061,-100.876 739.902,-80.0524"/>
<polygon fill="midnightblue" stroke="midnightblue" points="740.83,-83.4323 749.855,-77.8833 739.34,-76.5928 740.83,-83.4323"/>
</g>
<!-- Node16 -->
<g id="node33" class="node"><title>Node16</title>
<polygon fill="white" stroke="#bfbfbf" points="827.5,-58.5 827.5,-79.5 902.5,-79.5 902.5,-58.5 827.5,-58.5"/>
<text text-anchor="middle" x="865" y="-66.5" font-family="Helvetica,sans-Serif" font-size="10.00">mm_malloc.h</text>
</g>
<!-- Node5&#45;&gt;Node16 -->
<g id="edge34" class="edge"><title>Node5&#45;&gt;Node16</title>
<path fill="none" stroke="midnightblue" d="M484.119,-123.359C551.748,-117.045 690.825,-102.692 817.539,-80.1252"/>
<polygon fill="midnightblue" stroke="midnightblue" points="818.196,-83.5633 827.416,-78.3447 816.954,-76.6744 818.196,-83.5633"/>
</g>
<!-- Node17 -->
<g id="node35" class="node"><title>Node17</title>
<a xlink:href="../../da/d69/optionparser_8h.html" target="_top" xlink:title="This is the only file required to use The Lean Mean C++ Option Parser. Just #include it and you&#39;re se...">
<polygon fill="white" stroke="black" points="920,-58.5 920,-79.5 1024,-79.5 1024,-58.5 920,-58.5"/>
<text text-anchor="middle" x="972" y="-66.5" font-family="Helvetica,sans-Serif" font-size="10.00">blond/optionparser.h</text>
</a>
</g>
<!-- Node5&#45;&gt;Node17 -->
<g id="edge36" class="edge"><title>Node5&#45;&gt;Node17</title>
<path fill="none" stroke="midnightblue" d="M484.133,-123.958C564.088,-117.811 746.241,-102.656 909.567,-80.1161"/>
<polygon fill="midnightblue" stroke="midnightblue" points="910.378,-83.5369 919.8,-78.6906 909.413,-76.6038 910.378,-83.5369"/>
</g>
</g>
</svg>
