<?xml version="1.0" encoding="UTF-8" standalone="no"?>
<!DOCTYPE svg PUBLIC "-//W3C//DTD SVG 1.1//EN"
 "http://www.w3.org/Graphics/SVG/1.1/DTD/svg11.dtd">
<!-- Generated by graphviz version 2.26.3 (20100126.1600)
 -->
<!-- Title: python.h Pages: 1 -->
<!--zoomable 146 -->
<svg id="main" version="1.1" xmlns="http://www.w3.org/2000/svg" xmlns:xlink="http://www.w3.org/1999/xlink" xml:space="preserve" onload="init(evt)">
        <defs>
                <circle id="rim" cx="0" cy="0" r="7"/>
                <circle id="rim2" cx="0" cy="0" r="3.5"/>
                <g id="zoomPlus">
                        <use xlink:href="#rim" fill="#404040">
                                <set attributeName="fill" to="#808080" begin="zoomplus.mouseover" end="zoomplus.mouseout"/>
                        </use>
                        <path d="M-4,0h8M0,-4v8" fill="none" stroke="white" stroke-width="1.5" pointer-events="none"/>
                </g>
                <g id="zoomMin">
                        <use xlink:href="#rim" fill="#404040">
                                <set attributeName="fill" to="#808080" begin="zoomminus.mouseover" end="zoomminus.mouseout"/>
                        </use>
                        <path d="M-4,0h8" fill="none" stroke="white" stroke-width="1.5" pointer-events="none"/>
                </g>
                <g id="dirArrow">
                        <path fill="none" stroke="white" stroke-width="1.5" d="M0,-3.0v7 M-2.5,-0.5L0,-3.0L2.5,-0.5"/>
                </g>
               <g id="resetDef">
                       <use xlink:href="#rim2" fill="#404040">
                               <set attributeName="fill" to="#808080" begin="reset.mouseover" end="reset.mouseout"/>
                       </use>
               </g>
        </defs>

<script type="text/javascript">
var viewWidth = 801;
var viewHeight = 146;
var sectionId = 'dynsection-1';
</script>
<script xlink:href="../../svgpan.js"/>
<svg id="graph" class="graph">
<g id="viewport">
<title>python.h</title>
<polygon fill="white" stroke="white" points="-4,5 -4,-142 798.339,-142 798.339,5 -4,5"/>
<!-- Node1 -->
<g id="node1" class="node"><title>Node1</title>
<polygon fill="#bfbfbf" stroke="black" points="390.339,-116.5 390.339,-137.5 444.339,-137.5 444.339,-116.5 390.339,-116.5"/>
<text text-anchor="middle" x="417.339" y="-124.5" font-family="Helvetica,sans-Serif" font-size="10.00">python.h</text>
</g>
<!-- Node2 -->
<g id="node3" class="node"><title>Node2</title>
<a xlink:href="../../db/de1/Distributions_8cpp.html" target="_top" xlink:title="Distributions.cpp">
<polygon fill="white" stroke="black" points="62.339,-0.5 62.339,-21.5 152.339,-21.5 152.339,-0.5 62.339,-0.5"/>
<text text-anchor="middle" x="107.339" y="-8.5" font-family="Helvetica,sans-Serif" font-size="10.00">Distributions.cpp</text>
</a>
</g>
<!-- Node1&#45;&gt;Node2 -->
<g id="edge2" class="edge"><title>Node1&#45;&gt;Node2</title>
<path fill="none" stroke="midnightblue" d="M379.963,-125.512C283.33,-121.282 31.023,-107.668 6.33902,-80 -16.6342,-54.2499 30.2535,-33.3884 67.568,-21.5846"/>
<polygon fill="midnightblue" stroke="midnightblue" points="380.013,-129.017 390.154,-125.948 380.313,-122.023 380.013,-129.017"/>
</g>
<!-- Node3 -->
<g id="node5" class="node"><title>Node3</title>
<a xlink:href="../../d7/d91/Slices_8cpp.html" target="_top" xlink:title="Slices.cpp">
<polygon fill="white" stroke="black" points="15.339,-58.5 15.339,-79.5 77.339,-79.5 77.339,-58.5 15.339,-58.5"/>
<text text-anchor="middle" x="46.339" y="-66.5" font-family="Helvetica,sans-Serif" font-size="10.00">Slices.cpp</text>
</a>
</g>
<!-- Node1&#45;&gt;Node3 -->
<g id="edge4" class="edge"><title>Node1&#45;&gt;Node3</title>
<path fill="none" stroke="midnightblue" d="M380.094,-123.276C318.543,-116.773 191.903,-101.917 86.339,-80 83.5183,-79.4144 80.6024,-78.7432 77.6901,-78.0275"/>
<polygon fill="midnightblue" stroke="midnightblue" points="379.797,-126.764 390.106,-124.321 380.523,-119.802 379.797,-126.764"/>
</g>
<!-- Node4 -->
<g id="node7" class="node"><title>Node4</title>
<a xlink:href="../../d3/d2c/plot__beams_8cpp.html" target="_top" xlink:title="plot_beams.cpp">
<polygon fill="white" stroke="black" points="95.339,-58.5 95.339,-79.5 181.339,-79.5 181.339,-58.5 95.339,-58.5"/>
<text text-anchor="middle" x="138.339" y="-66.5" font-family="Helvetica,sans-Serif" font-size="10.00">plot_beams.cpp</text>
</a>
</g>
<!-- Node1&#45;&gt;Node4 -->
<g id="edge6" class="edge"><title>Node1&#45;&gt;Node4</title>
<path fill="none" stroke="midnightblue" d="M380.191,-119.36C335.228,-110.1 257.217,-93.9971 190.339,-80 187.449,-79.3951 184.469,-78.7696 181.466,-78.138"/>
<polygon fill="midnightblue" stroke="midnightblue" points="379.576,-122.806 390.076,-121.395 380.988,-115.95 379.576,-122.806"/>
</g>
<!-- Node5 -->
<g id="node9" class="node"><title>Node5</title>
<a xlink:href="../../d8/d29/plot__impedance_8cpp.html" target="_top" xlink:title="plot_impedance.cpp">
<polygon fill="white" stroke="black" points="328.339,-0.5 328.339,-21.5 432.339,-21.5 432.339,-0.5 328.339,-0.5"/>
<text text-anchor="middle" x="380.339" y="-8.5" font-family="Helvetica,sans-Serif" font-size="10.00">plot_impedance.cpp</text>
</a>
</g>
<!-- Node1&#45;&gt;Node5 -->
<g id="edge8" class="edge"><title>Node1&#45;&gt;Node5</title>
<path fill="none" stroke="midnightblue" d="M412.181,-106.228C408.622,-92.4487 403.599,-74.0217 398.339,-58 394.196,-45.3814 388.627,-31.1781 384.786,-21.7204"/>
<polygon fill="midnightblue" stroke="midnightblue" points="408.846,-107.315 414.698,-116.147 415.631,-105.593 408.846,-107.315"/>
</g>
<!-- Node6 -->
<g id="node11" class="node"><title>Node6</title>
<a xlink:href="../../d3/dca/plot__llrf_8cpp.html" target="_top" xlink:title="plot_llrf.cpp">
<polygon fill="white" stroke="black" points="549.839,-0.5 549.839,-21.5 616.839,-21.5 616.839,-0.5 549.839,-0.5"/>
<text text-anchor="middle" x="583.339" y="-8.5" font-family="Helvetica,sans-Serif" font-size="10.00">plot_llrf.cpp</text>
</a>
</g>
<!-- Node1&#45;&gt;Node6 -->
<g id="edge10" class="edge"><title>Node1&#45;&gt;Node6</title>
<path fill="none" stroke="midnightblue" d="M454.627,-118.448C479.694,-111.303 512.4,-99.1415 536.339,-80 556.602,-63.7976 571.507,-36.5187 578.64,-21.5745"/>
<polygon fill="midnightblue" stroke="midnightblue" points="453.484,-115.132 444.744,-121.121 455.311,-121.889 453.484,-115.132"/>
</g>
<!-- Node7 -->
<g id="node13" class="node"><title>Node7</title>
<a xlink:href="../../d2/d3c/plot__parameters_8cpp.html" target="_top" xlink:title="plot_parameters.cpp">
<polygon fill="white" stroke="black" points="688.839,-0.5 688.839,-21.5 793.839,-21.5 793.839,-0.5 688.839,-0.5"/>
<text text-anchor="middle" x="741.339" y="-8.5" font-family="Helvetica,sans-Serif" font-size="10.00">plot_parameters.cpp</text>
</a>
</g>
<!-- Node1&#45;&gt;Node7 -->
<g id="edge12" class="edge"><title>Node1&#45;&gt;Node7</title>
<path fill="none" stroke="midnightblue" d="M454.794,-124.609C539.588,-118.815 740.447,-102.804 760.339,-80 774.878,-63.3335 760.013,-36.4851 749.605,-21.6717"/>
<polygon fill="midnightblue" stroke="midnightblue" points="454.316,-121.133 444.574,-125.296 454.786,-128.117 454.316,-121.133"/>
</g>
<!-- Node8 -->
<g id="node15" class="node"><title>Node8</title>
<a xlink:href="../../d4/dfd/plot__slices_8cpp.html" target="_top" xlink:title="plot_slices.cpp">
<polygon fill="white" stroke="black" points="445.339,-58.5 445.339,-79.5 527.339,-79.5 527.339,-58.5 445.339,-58.5"/>
<text text-anchor="middle" x="486.339" y="-66.5" font-family="Helvetica,sans-Serif" font-size="10.00">plot_slices.cpp</text>
</a>
</g>
<!-- Node1&#45;&gt;Node8 -->
<g id="edge14" class="edge"><title>Node1&#45;&gt;Node8</title>
<path fill="none" stroke="midnightblue" d="M437.931,-109.691C449.579,-99.8996 463.768,-87.973 473.764,-79.5707"/>
<polygon fill="midnightblue" stroke="midnightblue" points="435.397,-107.248 429.995,-116.362 439.902,-112.607 435.397,-107.248"/>
</g>
<!-- Node9 -->
<g id="node17" class="node"><title>Node9</title>
<a xlink:href="../../dc/d7d/Distributions_8h.html" target="_top" xlink:title="Distributions.h">
<polygon fill="white" stroke="black" points="199.339,-58.5 199.339,-79.5 279.339,-79.5 279.339,-58.5 199.339,-58.5"/>
<text text-anchor="middle" x="239.339" y="-66.5" font-family="Helvetica,sans-Serif" font-size="10.00">Distributions.h</text>
</a>
</g>
<!-- Node1&#45;&gt;Node9 -->
<g id="edge16" class="edge"><title>Node1&#45;&gt;Node9</title>
<path fill="none" stroke="midnightblue" d="M380.425,-114.972C348.377,-104.529 302.425,-89.5562 271.769,-79.567"/>
<polygon fill="midnightblue" stroke="midnightblue" points="379.712,-118.421 390.305,-118.191 381.881,-111.765 379.712,-118.421"/>
</g>
<!-- Node10 -->
<g id="node20" class="node"><title>Node10</title>
<a xlink:href="../../da/d77/plot__impedance_8h.html" target="_top" xlink:title="plot_impedance.h">
<polygon fill="white" stroke="black" points="296.839,-58.5 296.839,-79.5 389.839,-79.5 389.839,-58.5 296.839,-58.5"/>
<text text-anchor="middle" x="343.339" y="-66.5" font-family="Helvetica,sans-Serif" font-size="10.00">plot_impedance.h</text>
</a>
</g>
<!-- Node1&#45;&gt;Node10 -->
<g id="edge20" class="edge"><title>Node1&#45;&gt;Node10</title>
<path fill="none" stroke="midnightblue" d="M395.618,-109.975C383.059,-100.132 367.65,-88.0545 356.826,-79.5707"/>
<polygon fill="midnightblue" stroke="midnightblue" points="393.737,-112.948 403.766,-116.362 398.055,-107.438 393.737,-112.948"/>
</g>
<!-- Node11 -->
<g id="node23" class="node"><title>Node11</title>
<a xlink:href="../../d3/dda/plot__llrf_8h.html" target="_top" xlink:title="plot_llrf.h">
<polygon fill="white" stroke="black" points="583.339,-58.5 583.339,-79.5 639.339,-79.5 639.339,-58.5 583.339,-58.5"/>
<text text-anchor="middle" x="611.339" y="-66.5" font-family="Helvetica,sans-Serif" font-size="10.00">plot_llrf.h</text>
</a>
</g>
<!-- Node1&#45;&gt;Node11 -->
<g id="edge24" class="edge"><title>Node1&#45;&gt;Node11</title>
<path fill="none" stroke="midnightblue" d="M454.76,-115.812C492.3,-104.589 549.27,-87.5568 583.15,-77.4276"/>
<polygon fill="midnightblue" stroke="midnightblue" points="453.301,-112.595 444.723,-118.813 455.307,-119.302 453.301,-112.595"/>
</g>
<!-- Node12 -->
<g id="node26" class="node"><title>Node12</title>
<a xlink:href="../../d8/d1b/plot__parameters_8h.html" target="_top" xlink:title="plot_parameters.h">
<polygon fill="white" stroke="black" points="656.839,-58.5 656.839,-79.5 751.839,-79.5 751.839,-58.5 656.839,-58.5"/>
<text text-anchor="middle" x="704.339" y="-66.5" font-family="Helvetica,sans-Serif" font-size="10.00">plot_parameters.h</text>
</a>
</g>
<!-- Node1&#45;&gt;Node12 -->
<g id="edge28" class="edge"><title>Node1&#45;&gt;Node12</title>
<path fill="none" stroke="midnightblue" d="M454.393,-119.512C506.057,-109.071 599.772,-90.132 656.609,-78.6458"/>
<polygon fill="midnightblue" stroke="midnightblue" points="453.448,-116.132 444.339,-121.544 454.834,-122.993 453.448,-116.132"/>
</g>
<!-- Node9&#45;&gt;Node2 -->
<g id="edge18" class="edge"><title>Node9&#45;&gt;Node2</title>
<path fill="none" stroke="midnightblue" d="M205.982,-54.3431C182.784,-44.1502 152.396,-30.7977 131.511,-21.6212"/>
<polygon fill="midnightblue" stroke="midnightblue" points="204.872,-57.6782 215.435,-58.4966 207.688,-51.2695 204.872,-57.6782"/>
</g>
<!-- Node10&#45;&gt;Node5 -->
<g id="edge22" class="edge"><title>Node10&#45;&gt;Node5</title>
<path fill="none" stroke="midnightblue" d="M355.672,-49.6667C361.651,-40.2948 368.6,-29.4019 373.596,-21.5707"/>
<polygon fill="midnightblue" stroke="midnightblue" points="352.553,-48.0489 350.125,-58.3619 358.454,-51.8136 352.553,-48.0489"/>
</g>
<!-- Node11&#45;&gt;Node6 -->
<g id="edge26" class="edge"><title>Node11&#45;&gt;Node6</title>
<path fill="none" stroke="midnightblue" d="M601.722,-49.079C597.263,-39.8422 592.144,-29.2388 588.442,-21.5707"/>
<polygon fill="midnightblue" stroke="midnightblue" points="598.704,-50.878 606.203,-58.3619 605.008,-47.8347 598.704,-50.878"/>
</g>
<!-- Node12&#45;&gt;Node7 -->
<g id="edge30" class="edge"><title>Node12&#45;&gt;Node7</title>
<path fill="none" stroke="midnightblue" d="M716.672,-49.6667C722.651,-40.2948 729.6,-29.4019 734.596,-21.5707"/>
<polygon fill="midnightblue" stroke="midnightblue" points="713.553,-48.0489 711.125,-58.3619 719.454,-51.8136 713.553,-48.0489"/>
</g>
</g>
</svg>
        <g id="navigator" transform="translate(0 0)" fill="#404254">
                <rect fill="#f2f5e9" fill-opacity="0.5" stroke="#606060" stroke-width=".5" x="0" y="0" width="60" height="60"/>
                <use id="zoomplus" xlink:href="#zoomPlus" x="17" y="9" onmousedown="handleZoom(evt,'in')"/>
                <use id="zoomminus" xlink:href="#zoomMin" x="42" y="9" onmousedown="handleZoom(evt,'out')"/>
                <use id="reset" xlink:href="#resetDef" x="30" y="36" onmousedown="handleReset()"/>
                <g id="arrowUp" xlink:href="#dirArrow" transform="translate(30 24)" onmousedown="handlePan(0,-1)">
                  <use xlink:href="#rim" fill="#404040">
                        <set attributeName="fill" to="#808080" begin="arrowUp.mouseover" end="arrowUp.mouseout"/>
                  </use>
                  <path fill="none" stroke="white" stroke-width="1.5" d="M0,-3.0v7 M-2.5,-0.5L0,-3.0L2.5,-0.5"/>
                </g>
                <g id="arrowRight" xlink:href="#dirArrow" transform="rotate(90) translate(36 -43)" onmousedown="handlePan(1,0)">
                  <use xlink:href="#rim" fill="#404040">
                        <set attributeName="fill" to="#808080" begin="arrowRight.mouseover" end="arrowRight.mouseout"/>
                  </use>
                  <path fill="none" stroke="white" stroke-width="1.5" d="M0,-3.0v7 M-2.5,-0.5L0,-3.0L2.5,-0.5"/>
                </g>
                <g id="arrowDown" xlink:href="#dirArrow" transform="rotate(180) translate(-30 -48)" onmousedown="handlePan(0,1)">
                  <use xlink:href="#rim" fill="#404040">
                        <set attributeName="fill" to="#808080" begin="arrowDown.mouseover" end="arrowDown.mouseout"/>
                  </use>
                  <path fill="none" stroke="white" stroke-width="1.5" d="M0,-3.0v7 M-2.5,-0.5L0,-3.0L2.5,-0.5"/>
                </g>
                <g id="arrowLeft" xlink:href="#dirArrow" transform="rotate(270) translate(-36 17)" onmousedown="handlePan(-1,0)">
                  <use xlink:href="#rim" fill="#404040">
                        <set attributeName="fill" to="#808080" begin="arrowLeft.mouseover" end="arrowLeft.mouseout"/>
                  </use>
                  <path fill="none" stroke="white" stroke-width="1.5" d="M0,-3.0v7 M-2.5,-0.5L0,-3.0L2.5,-0.5"/>
                </g>
        </g>
        <svg viewBox="0 0 15 15" width="100%" height="30px" preserveAspectRatio="xMaxYMin meet">
         <g id="arrow_out" transform="scale(0.3 0.3)">
          <a xlink:href="python_8h__dep__incl_org.svg" target="_base">
           <rect id="button" ry="5" rx="5" y="6" x="6" height="38" width="38"
                fill="#f2f5e9" fill-opacity="0.5" stroke="#606060" stroke-width="1.0"/>
           <path id="arrow"
             d="M 11.500037,31.436501 C 11.940474,20.09759 22.043105,11.32322 32.158766,21.979434 L 37.068811,17.246167 C 37.068811,17.246167 37.088388,32 37.088388,32 L 22.160133,31.978069 C 22.160133,31.978069 26.997745,27.140456 26.997745,27.140456 C 18.528582,18.264221 13.291696,25.230495 11.500037,31.436501 z"
             style="fill:#404040;"/>
          </a>
         </g>
        </svg>
</svg>
