<?xml version="1.0" encoding="UTF-8" standalone="no"?>
<!DOCTYPE svg PUBLIC "-//W3C//DTD SVG 1.1//EN"
 "http://www.w3.org/Graphics/SVG/1.1/DTD/svg11.dtd">
<!-- Generated by graphviz version 2.26.3 (20100126.1600)
 -->
<!-- Title: option::PrintUsageImplementation::TemporaryWriter&lt; Temporary &gt; Pages: 1 -->
<svg width="172pt" height="212pt"
 viewBox="0.00 0.00 172.00 212.00" xmlns="http://www.w3.org/2000/svg" xmlns:xlink="http://www.w3.org/1999/xlink">
<g id="graph1" class="graph" transform="scale(1 1) rotate(0) translate(4 208)">
<title>option::PrintUsageImplementation::TemporaryWriter&lt; Temporary &gt;</title>
<polygon fill="white" stroke="white" points="-4,5 -4,-208 169,-208 169,5 -4,5"/>
<!-- Node1 -->
<g id="node1" class="node"><title>Node1</title>
<polygon fill="#bfbfbf" stroke="black" points="0,-0.5 0,-89.5 164,-89.5 164,-0.5 0,-0.5"/>
<text text-anchor="start" x="8" y="-76.5" font-family="Helvetica,sans-Serif" font-size="10.00">option::PrintUsageImplementation</text>
<text text-anchor="middle" x="82" y="-63.5" font-family="Helvetica,sans-Serif" font-size="10.00">::TemporaryWriter&lt; Temporary &gt;</text>
<polyline fill="none" stroke="black" points="0,-55.5 164,-55.5 "/>
<text text-anchor="start" x="8" y="-42.5" font-family="Helvetica,sans-Serif" font-size="10.00">+ userstream</text>
<polyline fill="none" stroke="black" points="0,-34.5 164,-34.5 "/>
<text text-anchor="start" x="8" y="-21.5" font-family="Helvetica,sans-Serif" font-size="10.00">+ TemporaryWriter()</text>
<text text-anchor="start" x="8" y="-8.5" font-family="Helvetica,sans-Serif" font-size="10.00">+ operator()()</text>
</g>
<!-- Node2 -->
<g id="node2" class="node"><title>Node2</title>
<a xlink:href="../../dd/d0b/structoption_1_1PrintUsageImplementation_1_1IStringWriter.html" target="_top" xlink:title="{option::PrintUsageImplementation\l::IStringWriter\n||+ operator()()\l}">
<polygon fill="white" stroke="black" points="0,-127 0,-203 164,-203 164,-127 0,-127"/>
<text text-anchor="start" x="8" y="-190" font-family="Helvetica,sans-Serif" font-size="10.00">option::PrintUsageImplementation</text>
<text text-anchor="middle" x="82" y="-177" font-family="Helvetica,sans-Serif" font-size="10.00">::IStringWriter</text>
<polyline fill="none" stroke="black" points="0,-169 164,-169 "/>
<text text-anchor="middle" x="82" y="-156" font-family="Helvetica,sans-Serif" font-size="10.00"> </text>
<polyline fill="none" stroke="black" points="0,-148 164,-148 "/>
<text text-anchor="start" x="8" y="-135" font-family="Helvetica,sans-Serif" font-size="10.00">+ operator()()</text>
</a>
</g>
<!-- Node2&#45;&gt;Node1 -->
<g id="edge2" class="edge"><title>Node2&#45;&gt;Node1</title>
<path fill="none" stroke="midnightblue" d="M82,-116.489C82,-107.611 82,-98.3852 82,-89.6276"/>
<polygon fill="none" stroke="midnightblue" points="78.5001,-116.701 82,-126.701 85.5001,-116.701 78.5001,-116.701"/>
</g>
</g>
</svg>
