<?xml version="1.0" encoding="UTF-8" standalone="no"?>
<!DOCTYPE svg PUBLIC "-//W3C//DTD SVG 1.1//EN"
 "http://www.w3.org/Graphics/SVG/1.1/DTD/svg11.dtd">
<!-- Generated by graphviz version 2.26.3 (20100126.1600)
 -->
<!-- Title: plot_xy Pages: 1 -->
<svg width="210pt" height="162pt"
 viewBox="0.00 0.00 210.00 162.00" xmlns="http://www.w3.org/2000/svg" xmlns:xlink="http://www.w3.org/1999/xlink">
<g id="graph1" class="graph" transform="scale(1 1) rotate(0) translate(4 158)">
<title>plot_xy</title>
<polygon fill="white" stroke="white" points="-4,5 -4,-158 207,-158 207,5 -4,5"/>
<!-- Node1 -->
<g id="node1" class="node"><title>Node1</title>
<polygon fill="#bfbfbf" stroke="black" points="0,-63.5 0,-84.5 48,-84.5 48,-63.5 0,-63.5"/>
<text text-anchor="middle" x="24" y="-71.5" font-family="Helvetica,sans-Serif" font-size="10.00">plot_xy</text>
</g>
<!-- Node2 -->
<g id="node3" class="node"><title>Node2</title>
<a xlink:href="../../de/d4a/namespacepython.html#a740e30ed26764f275117126a9547767c" target="_top" xlink:title="python::convert_double">
<polygon fill="white" stroke="black" points="84,-132.5 84,-153.5 202,-153.5 202,-132.5 84,-132.5"/>
<text text-anchor="middle" x="143" y="-140.5" font-family="Helvetica,sans-Serif" font-size="10.00">python::convert_double</text>
</a>
</g>
<!-- Node1&#45;&gt;Node2 -->
<g id="edge2" class="edge"><title>Node1&#45;&gt;Node2</title>
<path fill="none" stroke="midnightblue" d="M34.619,-84.6979C45.9764,-95.6254 64.941,-112.443 84,-123 87.7253,-125.063 91.7005,-126.965 95.7604,-128.706"/>
<polygon fill="midnightblue" stroke="midnightblue" points="94.7234,-132.06 105.31,-132.478 97.2946,-125.549 94.7234,-132.06"/>
</g>
<!-- Node3 -->
<g id="node5" class="node"><title>Node3</title>
<a xlink:href="../../de/d4a/namespacepython.html#a38f56692b4793b00b074fc192783947e" target="_top" xlink:title="python::convert_double\l_array">
<polygon fill="white" stroke="black" points="84,-80 84,-114 202,-114 202,-80 84,-80"/>
<text text-anchor="start" x="92" y="-101" font-family="Helvetica,sans-Serif" font-size="10.00">python::convert_double</text>
<text text-anchor="middle" x="143" y="-88" font-family="Helvetica,sans-Serif" font-size="10.00">_array</text>
</a>
</g>
<!-- Node1&#45;&gt;Node3 -->
<g id="edge4" class="edge"><title>Node1&#45;&gt;Node3</title>
<path fill="none" stroke="midnightblue" d="M48.0814,-78.6544C55.6624,-80.1196 64.4494,-81.8179 73.5563,-83.5781"/>
<polygon fill="midnightblue" stroke="midnightblue" points="73.0393,-87.0429 83.5218,-85.5042 74.3677,-80.1701 73.0393,-87.0429"/>
</g>
<!-- Node4 -->
<g id="node7" class="node"><title>Node4</title>
<a xlink:href="../../de/d4a/namespacepython.html#aaed0c03f36b79c4703d003314d78b412" target="_top" xlink:title="python::convert_string">
<polygon fill="white" stroke="black" points="86.5,-40.5 86.5,-61.5 199.5,-61.5 199.5,-40.5 86.5,-40.5"/>
<text text-anchor="middle" x="143" y="-48.5" font-family="Helvetica,sans-Serif" font-size="10.00">python::convert_string</text>
</a>
</g>
<!-- Node1&#45;&gt;Node4 -->
<g id="edge6" class="edge"><title>Node1&#45;&gt;Node4</title>
<path fill="none" stroke="midnightblue" d="M48.0814,-69.3456C57.0249,-67.617 67.647,-65.564 78.4925,-63.4678"/>
<polygon fill="midnightblue" stroke="midnightblue" points="79.3197,-66.8728 88.4737,-61.5387 77.9912,-60 79.3197,-66.8728"/>
</g>
<!-- Node5 -->
<g id="node9" class="node"><title>Node5</title>
<a xlink:href="../../de/d4a/namespacepython.html#a713f8b295244715fb64ea92c5b172d33" target="_top" xlink:title="python::import">
<polygon fill="white" stroke="black" points="103.5,-0.5 103.5,-21.5 182.5,-21.5 182.5,-0.5 103.5,-0.5"/>
<text text-anchor="middle" x="143" y="-8.5" font-family="Helvetica,sans-Serif" font-size="10.00">python::import</text>
</a>
</g>
<!-- Node1&#45;&gt;Node5 -->
<g id="edge8" class="edge"><title>Node1&#45;&gt;Node5</title>
<path fill="none" stroke="midnightblue" d="M36.6234,-63.2537C48.2966,-53.7439 66.4429,-40.0141 84,-31 88.0606,-28.9152 92.3858,-26.9743 96.7781,-25.1864"/>
<polygon fill="midnightblue" stroke="midnightblue" points="98.3197,-28.3448 106.424,-21.5204 95.8328,-21.8014 98.3197,-28.3448"/>
</g>
</g>
</svg>
