<?xml version="1.0" encoding="UTF-8" standalone="no"?>
<!DOCTYPE svg PUBLIC "-//W3C//DTD SVG 1.1//EN"
 "http://www.w3.org/Graphics/SVG/1.1/DTD/svg11.dtd">
<!-- Generated by graphviz version 2.26.3 (20100126.1600)
 -->
<!-- Title: globals.h Pages: 1 -->
<svg width="1584pt" height="378pt"
 viewBox="0.00 0.00 1584.39 378.00" xmlns="http://www.w3.org/2000/svg" xmlns:xlink="http://www.w3.org/1999/xlink">
<g id="graph1" class="graph" transform="scale(1 1) rotate(0) translate(4 374)">
<title>globals.h</title>
<polygon fill="white" stroke="white" points="-4,5 -4,-374 1581.39,-374 1581.39,5 -4,5"/>
<!-- Node1 -->
<g id="node1" class="node"><title>Node1</title>
<polygon fill="#bfbfbf" stroke="black" points="784.393,-348.5 784.393,-369.5 840.393,-369.5 840.393,-348.5 784.393,-348.5"/>
<text text-anchor="middle" x="812.393" y="-356.5" font-family="Helvetica,sans-Serif" font-size="10.00">globals.h</text>
</g>
<!-- Node2 -->
<g id="node3" class="node"><title>Node2</title>
<a xlink:href="../../d7/d91/Slices_8cpp.html" target="_top" xlink:title="Slices.cpp">
<polygon fill="white" stroke="black" points="25.3926,-116.5 25.3926,-137.5 87.3926,-137.5 87.3926,-116.5 25.3926,-116.5"/>
<text text-anchor="middle" x="56.3926" y="-124.5" font-family="Helvetica,sans-Serif" font-size="10.00">Slices.cpp</text>
</a>
</g>
<!-- Node1&#45;&gt;Node2 -->
<g id="edge2" class="edge"><title>Node1&#45;&gt;Node2</title>
<path fill="none" stroke="midnightblue" d="M774.09,-358.25C639.045,-355.344 190.215,-343.396 134.393,-312 69.6818,-275.605 58.6562,-171.702 56.7781,-137.825"/>
<polygon fill="midnightblue" stroke="midnightblue" points="774.285,-361.754 784.357,-358.466 774.433,-354.756 774.285,-361.754"/>
</g>
<!-- Node3 -->
<g id="node5" class="node"><title>Node3</title>
<a xlink:href="../../da/d77/globals_8cpp.html" target="_top" xlink:title="globals.cpp">
<polygon fill="white" stroke="black" points="1398.39,-290.5 1398.39,-311.5 1464.39,-311.5 1464.39,-290.5 1398.39,-290.5"/>
<text text-anchor="middle" x="1431.39" y="-298.5" font-family="Helvetica,sans-Serif" font-size="10.00">globals.cpp</text>
</a>
</g>
<!-- Node1&#45;&gt;Node3 -->
<g id="edge4" class="edge"><title>Node1&#45;&gt;Node3</title>
<path fill="none" stroke="midnightblue" d="M850.804,-357.805C943.219,-354.504 1185.09,-343.335 1384.39,-312 1388.95,-311.284 1393.71,-310.368 1398.39,-309.371"/>
<polygon fill="midnightblue" stroke="midnightblue" points="850.414,-354.316 840.541,-358.161 850.657,-361.312 850.414,-354.316"/>
</g>
<!-- Node4 -->
<g id="node7" class="node"><title>Node4</title>
<a xlink:href="../../d5/dfa/InducedVoltage_8cpp.html" target="_top" xlink:title="InducedVoltage.cpp">
<polygon fill="white" stroke="black" points="104.893,-116.5 104.893,-137.5 207.893,-137.5 207.893,-116.5 104.893,-116.5"/>
<text text-anchor="middle" x="156.393" y="-124.5" font-family="Helvetica,sans-Serif" font-size="10.00">InducedVoltage.cpp</text>
</a>
</g>
<!-- Node1&#45;&gt;Node4 -->
<g id="edge6" class="edge"><title>Node1&#45;&gt;Node4</title>
<path fill="none" stroke="midnightblue" d="M774.086,-358.065C658.992,-354.931 317.663,-343.185 211.393,-312 159.113,-296.658 131.357,-300.76 103.393,-254 96.6468,-242.72 93.0896,-202.703 106.393,-174 113.506,-158.651 128.112,-145.869 139.71,-137.529"/>
<polygon fill="midnightblue" stroke="midnightblue" points="774.1,-361.566 784.19,-358.333 774.286,-354.569 774.1,-361.566"/>
</g>
<!-- Node5 -->
<g id="node9" class="node"><title>Node5</title>
<a xlink:href="../../d3/db7/LHCNoiseFB_8cpp.html" target="_top" xlink:title="LHCNoiseFB.cpp">
<polygon fill="white" stroke="black" points="1482.39,-290.5 1482.39,-311.5 1576.39,-311.5 1576.39,-290.5 1482.39,-290.5"/>
<text text-anchor="middle" x="1529.39" y="-298.5" font-family="Helvetica,sans-Serif" font-size="10.00">LHCNoiseFB.cpp</text>
</a>
</g>
<!-- Node1&#45;&gt;Node5 -->
<g id="edge8" class="edge"><title>Node1&#45;&gt;Node5</title>
<path fill="none" stroke="midnightblue" d="M850.645,-357.925C952.387,-354.71 1237.97,-343.371 1473.39,-312 1476.24,-311.62 1479.16,-311.186 1482.1,-310.713"/>
<polygon fill="midnightblue" stroke="midnightblue" points="850.432,-354.43 840.544,-358.236 850.647,-361.426 850.432,-354.43"/>
</g>
<!-- Node6 -->
<g id="node11" class="node"><title>Node6</title>
<a xlink:href="../../d7/d74/Beams_8h.html" target="_top" xlink:title="Beams.h">
<polygon fill="white" stroke="black" points="575.393,-290.5 575.393,-311.5 631.393,-311.5 631.393,-290.5 575.393,-290.5"/>
<text text-anchor="middle" x="603.393" y="-298.5" font-family="Helvetica,sans-Serif" font-size="10.00">Beams.h</text>
</a>
</g>
<!-- Node1&#45;&gt;Node6 -->
<g id="edge10" class="edge"><title>Node1&#45;&gt;Node6</title>
<path fill="none" stroke="midnightblue" d="M774.428,-349.873C733.258,-339.064 668.73,-321.16 631.738,-310.284"/>
<polygon fill="midnightblue" stroke="midnightblue" points="773.801,-353.326 784.36,-352.459 775.565,-346.552 773.801,-353.326"/>
</g>
<!-- Node10 -->
<g id="node19" class="node"><title>Node10</title>
<a xlink:href="../../d5/dde/blond_8h.html" target="_top" xlink:title="blond.h">
<polygon fill="white" stroke="black" points="656.393,-0.5 656.393,-21.5 704.393,-21.5 704.393,-0.5 656.393,-0.5"/>
<text text-anchor="middle" x="680.393" y="-8.5" font-family="Helvetica,sans-Serif" font-size="10.00">blond.h</text>
</a>
</g>
<!-- Node1&#45;&gt;Node10 -->
<g id="edge122" class="edge"><title>Node1&#45;&gt;Node10</title>
<path fill="none" stroke="midnightblue" d="M850.395,-355.156C976.081,-341.94 1370.39,-296.233 1370.39,-243 1370.39,-243 1370.39,-243 1370.39,-127 1370.39,-69.2889 1315.16,-76.1838 1260.39,-58 1154.69,-22.9061 800.782,-13.3983 704.661,-11.4362"/>
<polygon fill="midnightblue" stroke="midnightblue" points="850.029,-351.675 840.446,-356.193 850.755,-358.638 850.029,-351.675"/>
</g>
<!-- Node18 -->
<g id="node44" class="node"><title>Node18</title>
<a xlink:href="../../d6/db7/RfParameters_8h.html" target="_top" xlink:title="RfParameters.h">
<polygon fill="white" stroke="black" points="769.393,-232.5 769.393,-253.5 855.393,-253.5 855.393,-232.5 769.393,-232.5"/>
<text text-anchor="middle" x="812.393" y="-240.5" font-family="Helvetica,sans-Serif" font-size="10.00">RfParameters.h</text>
</a>
</g>
<!-- Node1&#45;&gt;Node18 -->
<g id="edge124" class="edge"><title>Node1&#45;&gt;Node18</title>
<path fill="none" stroke="midnightblue" d="M807.064,-338.123C804.825,-313.298 805.231,-272.824 808.283,-253.679"/>
<polygon fill="midnightblue" stroke="midnightblue" points="803.618,-338.781 808.279,-348.295 810.568,-337.95 803.618,-338.781"/>
</g>
<!-- Node31 -->
<g id="node94" class="node"><title>Node31</title>
<a xlink:href="../../d3/d33/PhaseLoop_8h.html" target="_top" xlink:title="PhaseLoop.h">
<polygon fill="white" stroke="black" points="1124.39,-174.5 1124.39,-195.5 1198.39,-195.5 1198.39,-174.5 1124.39,-174.5"/>
<text text-anchor="middle" x="1161.39" y="-182.5" font-family="Helvetica,sans-Serif" font-size="10.00">PhaseLoop.h</text>
</a>
</g>
<!-- Node1&#45;&gt;Node31 -->
<g id="edge126" class="edge"><title>Node1&#45;&gt;Node31</title>
<path fill="none" stroke="midnightblue" d="M842.795,-343.842C912.062,-309.308 1080.22,-225.472 1139.92,-195.705"/>
<polygon fill="midnightblue" stroke="midnightblue" points="841.086,-340.783 833.699,-348.377 844.21,-347.048 841.086,-340.783"/>
</g>
<!-- Node33 -->
<g id="node101" class="node"><title>Node33</title>
<a xlink:href="../../d9/dc8/PhaseNoise_8h.html" target="_top" xlink:title="PhaseNoise.h">
<polygon fill="white" stroke="black" points="1171.39,-232.5 1171.39,-253.5 1249.39,-253.5 1249.39,-232.5 1171.39,-232.5"/>
<text text-anchor="middle" x="1210.39" y="-240.5" font-family="Helvetica,sans-Serif" font-size="10.00">PhaseNoise.h</text>
</a>
</g>
<!-- Node1&#45;&gt;Node33 -->
<g id="edge136" class="edge"><title>Node1&#45;&gt;Node33</title>
<path fill="none" stroke="midnightblue" d="M850.593,-353.313C896.313,-346.007 974.909,-331.857 1040.39,-312 1094.8,-295.501 1155.99,-268.464 1188.04,-253.606"/>
<polygon fill="midnightblue" stroke="midnightblue" points="849.864,-349.884 840.529,-354.895 850.951,-356.799 849.864,-349.884"/>
</g>
<!-- Node6&#45;&gt;Node1 -->
<g id="edge22" class="edge"><title>Node6&#45;&gt;Node1</title>
<path fill="none" stroke="midnightblue" d="M641.11,-310.062C682.385,-320.895 747.351,-338.921 784.365,-349.81"/>
<polygon fill="midnightblue" stroke="midnightblue" points="641.971,-306.67 631.412,-307.537 640.207,-313.444 641.971,-306.67"/>
</g>
<!-- Node7 -->
<g id="node13" class="node"><title>Node7</title>
<a xlink:href="../../dc/d0f/Beams_8cpp.html" target="_top" xlink:title="Beams.cpp">
<polygon fill="white" stroke="black" points="746.393,-116.5 746.393,-137.5 812.393,-137.5 812.393,-116.5 746.393,-116.5"/>
<text text-anchor="middle" x="779.393" y="-124.5" font-family="Helvetica,sans-Serif" font-size="10.00">Beams.cpp</text>
</a>
</g>
<!-- Node6&#45;&gt;Node7 -->
<g id="edge12" class="edge"><title>Node6&#45;&gt;Node7</title>
<path fill="none" stroke="midnightblue" d="M601.247,-280.072C599.614,-252.318 601.123,-203.423 627.393,-174 631.463,-169.441 702.567,-148.718 746.064,-136.363"/>
<polygon fill="midnightblue" stroke="midnightblue" points="597.773,-280.538 602.045,-290.233 604.751,-279.99 597.773,-280.538"/>
</g>
<!-- Node8 -->
<g id="node15" class="node"><title>Node8</title>
<a xlink:href="../../dc/d7d/Distributions_8h.html" target="_top" xlink:title="Distributions.h">
<polygon fill="white" stroke="black" points="131.393,-58.5 131.393,-79.5 211.393,-79.5 211.393,-58.5 131.393,-58.5"/>
<text text-anchor="middle" x="171.393" y="-66.5" font-family="Helvetica,sans-Serif" font-size="10.00">Distributions.h</text>
</a>
</g>
<!-- Node6&#45;&gt;Node8 -->
<g id="edge14" class="edge"><title>Node6&#45;&gt;Node8</title>
<path fill="none" stroke="midnightblue" d="M565.161,-294.544C503.748,-282.816 381.13,-253.705 293.393,-196 292.554,-195.449 210.996,-110.342 181.713,-79.7746"/>
<polygon fill="midnightblue" stroke="midnightblue" points="564.715,-298.021 575.186,-296.407 565.994,-291.139 564.715,-298.021"/>
</g>
<!-- Node6&#45;&gt;Node10 -->
<g id="edge20" class="edge"><title>Node6&#45;&gt;Node10</title>
<path fill="none" stroke="midnightblue" d="M565.106,-299.671C464.74,-295.816 196.012,-283.011 112.393,-254 39.07,-228.561 -17.2449,-190.235 5.39255,-116 14.4532,-86.2873 17.5328,-73.6042 44.3926,-58 71.3479,-42.3403 543.255,-17.8509 656.235,-12.1936"/>
<polygon fill="midnightblue" stroke="midnightblue" points="565.266,-303.179 575.39,-300.057 565.528,-296.184 565.266,-303.179"/>
</g>
<!-- Node11 -->
<g id="node23" class="node"><title>Node11</title>
<a xlink:href="../../d9/dee/InducedVoltage_8h.html" target="_top" xlink:title="InducedVoltage.h">
<polygon fill="white" stroke="black" points="302.393,-174.5 302.393,-195.5 394.393,-195.5 394.393,-174.5 302.393,-174.5"/>
<text text-anchor="middle" x="348.393" y="-182.5" font-family="Helvetica,sans-Serif" font-size="10.00">InducedVoltage.h</text>
</a>
</g>
<!-- Node6&#45;&gt;Node11 -->
<g id="edge24" class="edge"><title>Node6&#45;&gt;Node11</title>
<path fill="none" stroke="midnightblue" d="M570.679,-286.119C518.329,-262.304 417.003,-216.211 371.5,-195.512"/>
<polygon fill="midnightblue" stroke="midnightblue" points="569.308,-289.34 579.86,-290.295 572.207,-282.968 569.308,-289.34"/>
</g>
<!-- Node16 -->
<g id="node39" class="node"><title>Node16</title>
<a xlink:href="../../dc/d9c/Music_8h.html" target="_top" xlink:title="Music.h">
<polygon fill="white" stroke="black" points="120.893,-232.5 120.893,-253.5 171.893,-253.5 171.893,-232.5 120.893,-232.5"/>
<text text-anchor="middle" x="146.393" y="-240.5" font-family="Helvetica,sans-Serif" font-size="10.00">Music.h</text>
</a>
</g>
<!-- Node6&#45;&gt;Node16 -->
<g id="edge46" class="edge"><title>Node6&#45;&gt;Node16</title>
<path fill="none" stroke="midnightblue" d="M565.139,-296.591C496.31,-288.592 347.051,-270.943 221.393,-254 204.959,-251.784 186.534,-249.085 172.058,-246.915"/>
<polygon fill="midnightblue" stroke="midnightblue" points="564.753,-300.07 575.089,-297.745 565.559,-293.116 564.753,-300.07"/>
</g>
<!-- Node6&#45;&gt;Node18 -->
<g id="edge52" class="edge"><title>Node6&#45;&gt;Node18</title>
<path fill="none" stroke="midnightblue" d="M641.084,-288.988C677.15,-278.529 731.331,-263.516 769.135,-253.522"/>
<polygon fill="midnightblue" stroke="midnightblue" points="640.039,-285.647 631.42,-291.81 642.001,-292.367 640.039,-285.647"/>
</g>
<!-- Node21 -->
<g id="node54" class="node"><title>Node21</title>
<a xlink:href="../../d0/da6/Monitors_8h.html" target="_top" xlink:title="Monitors.h">
<polygon fill="white" stroke="black" points="830.393,-116.5 830.393,-137.5 892.393,-137.5 892.393,-116.5 830.393,-116.5"/>
<text text-anchor="middle" x="861.393" y="-124.5" font-family="Helvetica,sans-Serif" font-size="10.00">Monitors.h</text>
</a>
</g>
<!-- Node6&#45;&gt;Node21 -->
<g id="edge118" class="edge"><title>Node6&#45;&gt;Node21</title>
<path fill="none" stroke="midnightblue" d="M610.103,-280.415C621,-248.214 643.065,-188.14 660.393,-174 717.2,-127.642 750.245,-155.726 821.393,-138 824.188,-137.304 827.086,-136.556 829.987,-135.791"/>
<polygon fill="midnightblue" stroke="midnightblue" points="606.697,-279.566 606.859,-290.16 613.339,-281.777 606.697,-279.566"/>
</g>
<!-- Node25 -->
<g id="node63" class="node"><title>Node25</title>
<a xlink:href="../../d8/d94/plot__beams_8h.html" target="_top" xlink:title="plot_beams.h">
<polygon fill="white" stroke="black" points="653.893,-116.5 653.893,-137.5 728.893,-137.5 728.893,-116.5 653.893,-116.5"/>
<text text-anchor="middle" x="691.393" y="-124.5" font-family="Helvetica,sans-Serif" font-size="10.00">plot_beams.h</text>
</a>
</g>
<!-- Node6&#45;&gt;Node25 -->
<g id="edge120" class="edge"><title>Node6&#45;&gt;Node25</title>
<path fill="none" stroke="midnightblue" d="M593.917,-281.031C582.8,-254.403 568.38,-206.819 589.393,-174 597.462,-161.397 632.526,-147.01 659.312,-137.509"/>
<polygon fill="midnightblue" stroke="midnightblue" points="590.834,-282.714 598.079,-290.444 597.236,-279.883 590.834,-282.714"/>
</g>
<!-- Node9 -->
<g id="node17" class="node"><title>Node9</title>
<a xlink:href="../../db/de1/Distributions_8cpp.html" target="_top" xlink:title="Distributions.cpp">
<polygon fill="white" stroke="black" points="327.393,-0.5 327.393,-21.5 417.393,-21.5 417.393,-0.5 327.393,-0.5"/>
<text text-anchor="middle" x="372.393" y="-8.5" font-family="Helvetica,sans-Serif" font-size="10.00">Distributions.cpp</text>
</a>
</g>
<!-- Node8&#45;&gt;Node9 -->
<g id="edge16" class="edge"><title>Node8&#45;&gt;Node9</title>
<path fill="none" stroke="midnightblue" d="M217.555,-55.6795C253.501,-45.307 302.709,-31.1078 335.925,-21.5231"/>
<polygon fill="midnightblue" stroke="midnightblue" points="216.43,-52.3613 207.792,-58.4966 218.371,-59.0869 216.43,-52.3613"/>
</g>
<!-- Node8&#45;&gt;Node10 -->
<g id="edge18" class="edge"><title>Node8&#45;&gt;Node10</title>
<path fill="none" stroke="midnightblue" d="M221.521,-58.6148C222.824,-58.401 224.116,-58.1955 225.393,-58 389.062,-32.9385 587.946,-17.5231 656.116,-12.6654"/>
<polygon fill="midnightblue" stroke="midnightblue" points="220.661,-55.2122 211.419,-60.3918 221.874,-62.1064 220.661,-55.2122"/>
</g>
<!-- Node11&#45;&gt;Node4 -->
<g id="edge26" class="edge"><title>Node11&#45;&gt;Node4</title>
<path fill="none" stroke="midnightblue" d="M303.856,-171.546C269.559,-161.186 222.821,-147.067 191.228,-137.523"/>
<polygon fill="midnightblue" stroke="midnightblue" points="303.038,-174.955 313.623,-174.497 305.062,-168.254 303.038,-174.955"/>
</g>
<!-- Node11&#45;&gt;Node8 -->
<g id="edge28" class="edge"><title>Node11&#45;&gt;Node8</title>
<path fill="none" stroke="midnightblue" d="M335.477,-166.065C324.265,-150.822 306.812,-129.744 287.393,-116 263.803,-99.3046 233.415,-87.2709 209.659,-79.5613"/>
<polygon fill="midnightblue" stroke="midnightblue" points="332.669,-168.156 341.325,-174.266 338.369,-164.092 332.669,-168.156"/>
</g>
<!-- Node11&#45;&gt;Node10 -->
<g id="edge30" class="edge"><title>Node11&#45;&gt;Node10</title>
<path fill="none" stroke="midnightblue" d="M320.916,-169.443C294.532,-154.791 253.342,-132.665 216.393,-116 175.612,-97.6069 147.746,-116.859 122.393,-80 116.851,-71.944 115.775,-65.1982 122.393,-58 140.754,-38.0274 551.453,-17.146 656.234,-12.1302"/>
<polygon fill="midnightblue" stroke="midnightblue" points="319.494,-172.658 329.932,-174.478 322.908,-166.546 319.494,-172.658"/>
</g>
<!-- Node12 -->
<g id="node28" class="node"><title>Node12</title>
<a xlink:href="../../da/d77/plot__impedance_8h.html" target="_top" xlink:title="plot_impedance.h">
<polygon fill="white" stroke="black" points="338.893,-116.5 338.893,-137.5 431.893,-137.5 431.893,-116.5 338.893,-116.5"/>
<text text-anchor="middle" x="385.393" y="-124.5" font-family="Helvetica,sans-Serif" font-size="10.00">plot_impedance.h</text>
</a>
</g>
<!-- Node11&#45;&gt;Node12 -->
<g id="edge32" class="edge"><title>Node11&#45;&gt;Node12</title>
<path fill="none" stroke="midnightblue" d="M360.726,-165.667C366.705,-156.295 373.653,-145.402 378.649,-137.571"/>
<polygon fill="midnightblue" stroke="midnightblue" points="357.606,-164.049 355.179,-174.362 363.508,-167.814 357.606,-164.049"/>
</g>
<!-- Node14 -->
<g id="node33" class="node"><title>Node14</title>
<a xlink:href="../../d2/d0e/Tracker_8h.html" target="_top" xlink:title="Tracker.h">
<polygon fill="white" stroke="black" points="487.393,-116.5 487.393,-137.5 545.393,-137.5 545.393,-116.5 487.393,-116.5"/>
<text text-anchor="middle" x="516.393" y="-124.5" font-family="Helvetica,sans-Serif" font-size="10.00">Tracker.h</text>
</a>
</g>
<!-- Node11&#45;&gt;Node14 -->
<g id="edge38" class="edge"><title>Node11&#45;&gt;Node14</title>
<path fill="none" stroke="midnightblue" d="M388.288,-171.226C418.727,-160.718 459.95,-146.486 487.319,-137.037"/>
<polygon fill="midnightblue" stroke="midnightblue" points="387.126,-167.925 378.816,-174.497 389.411,-174.542 387.126,-167.925"/>
</g>
<!-- Node12&#45;&gt;Node10 -->
<g id="edge36" class="edge"><title>Node12&#45;&gt;Node10</title>
<path fill="none" stroke="midnightblue" d="M328.582,-116.554C283.726,-105.883 232.648,-86.7715 258.393,-58 285.091,-28.1635 570.39,-15.1191 656.148,-11.8537"/>
<polygon fill="midnightblue" stroke="midnightblue" points="328.091,-120.031 338.617,-118.83 329.639,-113.204 328.091,-120.031"/>
</g>
<!-- Node13 -->
<g id="node30" class="node"><title>Node13</title>
<a xlink:href="../../d8/d29/plot__impedance_8cpp.html" target="_top" xlink:title="plot_impedance.cpp">
<polygon fill="white" stroke="black" points="267.393,-58.5 267.393,-79.5 371.393,-79.5 371.393,-58.5 267.393,-58.5"/>
<text text-anchor="middle" x="319.393" y="-66.5" font-family="Helvetica,sans-Serif" font-size="10.00">plot_impedance.cpp</text>
</a>
</g>
<!-- Node12&#45;&gt;Node13 -->
<g id="edge34" class="edge"><title>Node12&#45;&gt;Node13</title>
<path fill="none" stroke="midnightblue" d="M365.696,-109.691C354.554,-99.8996 340.982,-87.973 331.421,-79.5707"/>
<polygon fill="midnightblue" stroke="midnightblue" points="363.465,-112.39 373.287,-116.362 368.086,-107.132 363.465,-112.39"/>
</g>
<!-- Node14&#45;&gt;Node8 -->
<g id="edge42" class="edge"><title>Node14&#45;&gt;Node8</title>
<path fill="none" stroke="midnightblue" d="M477.268,-120.423C411.21,-109.317 278.253,-86.9649 211.522,-75.7465"/>
<polygon fill="midnightblue" stroke="midnightblue" points="476.833,-123.899 487.275,-122.105 477.994,-116.995 476.833,-123.899"/>
</g>
<!-- Node14&#45;&gt;Node10 -->
<g id="edge44" class="edge"><title>Node14&#45;&gt;Node10</title>
<path fill="none" stroke="midnightblue" d="M519.361,-106.311C522.575,-91.0639 529.147,-70.8274 542.393,-58 573.847,-27.5396 625.811,-16.7844 656.199,-13.0122"/>
<polygon fill="midnightblue" stroke="midnightblue" points="515.88,-105.895 517.567,-116.355 522.771,-107.126 515.88,-105.895"/>
</g>
<!-- Node15 -->
<g id="node35" class="node"><title>Node15</title>
<a xlink:href="../../d2/d6f/Tracker_8cpp.html" target="_top" xlink:title="Tracker.cpp">
<polygon fill="white" stroke="black" points="427.393,-58.5 427.393,-79.5 495.393,-79.5 495.393,-58.5 427.393,-58.5"/>
<text text-anchor="middle" x="461.393" y="-66.5" font-family="Helvetica,sans-Serif" font-size="10.00">Tracker.cpp</text>
</a>
</g>
<!-- Node14&#45;&gt;Node15 -->
<g id="edge40" class="edge"><title>Node14&#45;&gt;Node15</title>
<path fill="none" stroke="midnightblue" d="M499.162,-108.83C490.038,-99.2078 479.152,-87.7282 471.416,-79.5707"/>
<polygon fill="midnightblue" stroke="midnightblue" points="496.884,-111.514 506.305,-116.362 501.963,-106.697 496.884,-111.514"/>
</g>
<!-- Node16&#45;&gt;Node10 -->
<g id="edge50" class="edge"><title>Node16&#45;&gt;Node10</title>
<path fill="none" stroke="midnightblue" d="M111.488,-229.161C64.104,-208.162 -11.6414,-165.426 16.3926,-116 41.174,-72.3086 65.5691,-73.3615 113.393,-58 165.645,-41.2158 554.523,-18.1502 656.151,-12.3601"/>
<polygon fill="midnightblue" stroke="midnightblue" points="110.265,-232.445 120.834,-233.186 113.034,-226.016 110.265,-232.445"/>
</g>
<!-- Node17 -->
<g id="node41" class="node"><title>Node17</title>
<a xlink:href="../../d6/df4/Music_8cpp.html" target="_top" xlink:title="Music.cpp">
<polygon fill="white" stroke="black" points="115.393,-174.5 115.393,-195.5 177.393,-195.5 177.393,-174.5 115.393,-174.5"/>
<text text-anchor="middle" x="146.393" y="-182.5" font-family="Helvetica,sans-Serif" font-size="10.00">Music.cpp</text>
</a>
</g>
<!-- Node16&#45;&gt;Node17 -->
<g id="edge48" class="edge"><title>Node16&#45;&gt;Node17</title>
<path fill="none" stroke="midnightblue" d="M146.393,-222.191C146.393,-213.168 146.393,-202.994 146.393,-195.571"/>
<polygon fill="midnightblue" stroke="midnightblue" points="142.893,-222.362 146.393,-232.362 149.893,-222.362 142.893,-222.362"/>
</g>
<!-- Node18&#45;&gt;Node1 -->
<g id="edge94" class="edge"><title>Node18&#45;&gt;Node1</title>
<path fill="none" stroke="midnightblue" d="M817.718,-263.843C819.96,-288.654 819.556,-329.131 816.506,-348.295"/>
<polygon fill="midnightblue" stroke="midnightblue" points="821.165,-263.193 816.502,-253.679 814.215,-264.024 821.165,-263.193"/>
</g>
<!-- Node18&#45;&gt;Node6 -->
<g id="edge56" class="edge"><title>Node18&#45;&gt;Node6</title>
<path fill="none" stroke="midnightblue" d="M769.99,-256.374C728.63,-268.304 667.074,-285.263 631.425,-294.459"/>
<polygon fill="midnightblue" stroke="midnightblue" points="771.155,-259.681 779.784,-253.533 769.204,-252.958 771.155,-259.681"/>
</g>
<!-- Node18&#45;&gt;Node10 -->
<g id="edge92" class="edge"><title>Node18&#45;&gt;Node10</title>
<path fill="none" stroke="midnightblue" d="M865.5,-233.872C949.14,-218.246 1105.18,-183.594 1135.39,-138 1147.9,-119.127 1136.71,-70.7606 1122.39,-58 1091,-30.0125 792.553,-15.6087 704.643,-11.9493"/>
<polygon fill="midnightblue" stroke="midnightblue" points="864.627,-230.474 855.426,-235.728 865.895,-237.358 864.627,-230.474"/>
</g>
<!-- Node19 -->
<g id="node46" class="node"><title>Node19</title>
<a xlink:href="../../dc/d61/RfParameters_8cpp.html" target="_top" xlink:title="RfParameters.cpp">
<polygon fill="white" stroke="black" points="669.393,-174.5 669.393,-195.5 765.393,-195.5 765.393,-174.5 669.393,-174.5"/>
<text text-anchor="middle" x="717.393" y="-182.5" font-family="Helvetica,sans-Serif" font-size="10.00">RfParameters.cpp</text>
</a>
</g>
<!-- Node18&#45;&gt;Node19 -->
<g id="edge54" class="edge"><title>Node18&#45;&gt;Node19</title>
<path fill="none" stroke="midnightblue" d="M786.351,-227.101C769.914,-217.066 749.137,-204.381 734.707,-195.571"/>
<polygon fill="midnightblue" stroke="midnightblue" points="784.609,-230.138 794.968,-232.362 788.257,-224.164 784.609,-230.138"/>
</g>
<!-- Node20 -->
<g id="node49" class="node"><title>Node20</title>
<a xlink:href="../../dc/df2/Slices_8h.html" target="_top" xlink:title="Slices.h">
<polygon fill="white" stroke="black" points="485.393,-174.5 485.393,-195.5 537.393,-195.5 537.393,-174.5 485.393,-174.5"/>
<text text-anchor="middle" x="511.393" y="-182.5" font-family="Helvetica,sans-Serif" font-size="10.00">Slices.h</text>
</a>
</g>
<!-- Node18&#45;&gt;Node20 -->
<g id="edge58" class="edge"><title>Node18&#45;&gt;Node20</title>
<path fill="none" stroke="midnightblue" d="M759.213,-232.753C694.21,-220.227 586.796,-199.53 537.541,-190.039"/>
<polygon fill="midnightblue" stroke="midnightblue" points="758.785,-236.235 769.267,-234.69 760.109,-229.361 758.785,-236.235"/>
</g>
<!-- Node18&#45;&gt;Node21 -->
<g id="edge96" class="edge"><title>Node18&#45;&gt;Node21</title>
<path fill="none" stroke="midnightblue" d="M828.209,-224.051C834.359,-215.859 840.974,-205.895 845.393,-196 854.117,-176.463 858.374,-151.608 860.205,-137.689"/>
<polygon fill="midnightblue" stroke="midnightblue" points="825.267,-222.13 821.844,-232.157 830.773,-226.453 825.267,-222.13"/>
</g>
<!-- Node18&#45;&gt;Node25 -->
<g id="edge98" class="edge"><title>Node18&#45;&gt;Node25</title>
<path fill="none" stroke="midnightblue" d="M816.329,-221.791C817.856,-207.026 817.304,-187.62 807.393,-174 797.739,-160.735 759.116,-146.767 729.056,-137.54"/>
<polygon fill="midnightblue" stroke="midnightblue" points="812.82,-221.611 814.877,-232.004 819.75,-222.596 812.82,-221.611"/>
</g>
<!-- Node26 -->
<g id="node68" class="node"><title>Node26</title>
<a xlink:href="../../d2/d51/plot__slices_8h.html" target="_top" xlink:title="plot_slices.h">
<polygon fill="white" stroke="black" points="563.893,-116.5 563.893,-137.5 634.893,-137.5 634.893,-116.5 563.893,-116.5"/>
<text text-anchor="middle" x="599.393" y="-124.5" font-family="Helvetica,sans-Serif" font-size="10.00">plot_slices.h</text>
</a>
</g>
<!-- Node18&#45;&gt;Node26 -->
<g id="edge106" class="edge"><title>Node18&#45;&gt;Node26</title>
<path fill="none" stroke="midnightblue" d="M806.107,-222.632C800.291,-207.1 790.133,-186.34 774.393,-174 768.822,-169.633 684.568,-148.171 635.033,-135.813"/>
<polygon fill="midnightblue" stroke="midnightblue" points="802.897,-224.062 809.456,-232.383 809.518,-221.788 802.897,-224.062"/>
</g>
<!-- Node28 -->
<g id="node78" class="node"><title>Node28</title>
<a xlink:href="../../d3/dda/plot__llrf_8h.html" target="_top" xlink:title="plot_llrf.h">
<polygon fill="white" stroke="black" points="1070.39,-116.5 1070.39,-137.5 1126.39,-137.5 1126.39,-116.5 1070.39,-116.5"/>
<text text-anchor="middle" x="1098.39" y="-124.5" font-family="Helvetica,sans-Serif" font-size="10.00">plot_llrf.h</text>
</a>
</g>
<!-- Node18&#45;&gt;Node28 -->
<g id="edge100" class="edge"><title>Node18&#45;&gt;Node28</title>
<path fill="none" stroke="midnightblue" d="M861.875,-229.737C891.469,-221.254 929.578,-209.358 962.393,-196 1005.8,-178.332 1054.2,-152.11 1079.93,-137.61"/>
<polygon fill="midnightblue" stroke="midnightblue" points="860.854,-226.388 852.185,-232.48 862.76,-233.124 860.854,-226.388"/>
</g>
<!-- Node29 -->
<g id="node83" class="node"><title>Node29</title>
<a xlink:href="../../de/d44/trackers_2utilities_8h.html" target="_top" xlink:title="utilities.h">
<polygon fill="white" stroke="black" points="897.393,-174.5 897.393,-195.5 953.393,-195.5 953.393,-174.5 897.393,-174.5"/>
<text text-anchor="middle" x="925.393" y="-182.5" font-family="Helvetica,sans-Serif" font-size="10.00">utilities.h</text>
</a>
</g>
<!-- Node18&#45;&gt;Node29 -->
<g id="edge108" class="edge"><title>Node18&#45;&gt;Node29</title>
<path fill="none" stroke="midnightblue" d="M842.018,-227.794C861.733,-217.675 887.141,-204.634 904.699,-195.621"/>
<polygon fill="midnightblue" stroke="midnightblue" points="840.154,-224.816 832.856,-232.497 843.351,-231.044 840.154,-224.816"/>
</g>
<!-- Node20&#45;&gt;Node1 -->
<g id="edge64" class="edge"><title>Node20&#45;&gt;Node1</title>
<path fill="none" stroke="midnightblue" d="M475.121,-188.955C377.34,-199.656 115.407,-228.609 112.393,-232 105.896,-239.307 106.012,-246.591 112.393,-254 157.249,-306.087 658.436,-347.335 784,-356.901"/>
<polygon fill="midnightblue" stroke="midnightblue" points="475.575,-192.426 485.136,-187.86 474.815,-185.467 475.575,-192.426"/>
</g>
<!-- Node20&#45;&gt;Node2 -->
<g id="edge60" class="edge"><title>Node20&#45;&gt;Node2</title>
<path fill="none" stroke="midnightblue" d="M475.022,-181.209C380.73,-171.334 133.155,-145.092 96.3926,-138 93.5638,-137.454 90.6425,-136.811 87.7266,-136.113"/>
<polygon fill="midnightblue" stroke="midnightblue" points="474.911,-184.716 485.221,-182.276 475.639,-177.754 474.911,-184.716"/>
</g>
<!-- Node20&#45;&gt;Node10 -->
<g id="edge62" class="edge"><title>Node20&#45;&gt;Node10</title>
<path fill="none" stroke="midnightblue" d="M492.793,-167.244C467.924,-142.997 426.066,-100.238 418.393,-80 414.926,-70.8574 412.119,-65.4995 418.393,-58 448.638,-21.8465 597.052,-13.4672 656.098,-11.5548"/>
<polygon fill="midnightblue" stroke="midnightblue" points="490.584,-169.976 500.205,-174.413 495.451,-164.945 490.584,-169.976"/>
</g>
<!-- Node20&#45;&gt;Node12 -->
<g id="edge82" class="edge"><title>Node20&#45;&gt;Node12</title>
<path fill="none" stroke="midnightblue" d="M479.255,-170.206C457.15,-160.031 428.312,-146.757 408.466,-137.621"/>
<polygon fill="midnightblue" stroke="midnightblue" points="478.028,-173.494 488.575,-174.497 480.955,-167.136 478.028,-173.494"/>
</g>
<!-- Node20&#45;&gt;Node14 -->
<g id="edge90" class="edge"><title>Node20&#45;&gt;Node14</title>
<path fill="none" stroke="midnightblue" d="M513.186,-164.191C513.964,-155.168 514.841,-144.994 515.481,-137.571"/>
<polygon fill="midnightblue" stroke="midnightblue" points="509.682,-164.098 512.31,-174.362 516.656,-164.699 509.682,-164.098"/>
</g>
<!-- Node20&#45;&gt;Node21 -->
<g id="edge66" class="edge"><title>Node20&#45;&gt;Node21</title>
<path fill="none" stroke="midnightblue" d="M547.872,-180.884C606.08,-174 723.397,-158.827 821.393,-138 824.211,-137.401 827.124,-136.721 830.035,-135.999"/>
<polygon fill="midnightblue" stroke="midnightblue" points="547.235,-177.435 537.709,-182.073 548.048,-184.387 547.235,-177.435"/>
</g>
<!-- Node20&#45;&gt;Node25 -->
<g id="edge76" class="edge"><title>Node20&#45;&gt;Node25</title>
<path fill="none" stroke="midnightblue" d="M547.142,-173.481C579.667,-163 627.273,-147.661 658.78,-137.508"/>
<polygon fill="midnightblue" stroke="midnightblue" points="546.011,-170.168 537.566,-176.566 548.158,-176.831 546.011,-170.168"/>
</g>
<!-- Node20&#45;&gt;Node26 -->
<g id="edge84" class="edge"><title>Node20&#45;&gt;Node26</title>
<path fill="none" stroke="midnightblue" d="M535.939,-168.821C551.097,-158.831 570.111,-146.299 583.354,-137.571"/>
<polygon fill="midnightblue" stroke="midnightblue" points="533.957,-165.936 527.533,-174.362 537.809,-171.781 533.957,-165.936"/>
</g>
<!-- Node21&#45;&gt;Node10 -->
<g id="edge74" class="edge"><title>Node21&#45;&gt;Node10</title>
<path fill="none" stroke="midnightblue" d="M854.504,-106.617C848.334,-91.2466 837.853,-70.7077 822.393,-58 787.687,-29.4734 735.04,-18.0383 704.549,-13.622"/>
<polygon fill="midnightblue" stroke="midnightblue" points="851.328,-108.12 858.094,-116.273 857.889,-105.68 851.328,-108.12"/>
</g>
<!-- Node22 -->
<g id="node56" class="node"><title>Node22</title>
<a xlink:href="../../da/dda/Monitors_8cpp.html" target="_top" xlink:title="Monitors.cpp">
<polygon fill="white" stroke="black" points="868.893,-58.5 868.893,-79.5 941.893,-79.5 941.893,-58.5 868.893,-58.5"/>
<text text-anchor="middle" x="905.393" y="-66.5" font-family="Helvetica,sans-Serif" font-size="10.00">Monitors.cpp</text>
</a>
</g>
<!-- Node21&#45;&gt;Node22 -->
<g id="edge68" class="edge"><title>Node21&#45;&gt;Node22</title>
<path fill="none" stroke="midnightblue" d="M875.616,-108.25C882.824,-98.75 891.309,-87.5651 897.373,-79.5707"/>
<polygon fill="midnightblue" stroke="midnightblue" points="872.718,-106.28 869.463,-116.362 878.295,-110.51 872.718,-106.28"/>
</g>
<!-- Node23 -->
<g id="node58" class="node"><title>Node23</title>
<a xlink:href="../../d3/d2c/plot__beams_8cpp.html" target="_top" xlink:title="plot_beams.cpp">
<polygon fill="white" stroke="black" points="727.393,-58.5 727.393,-79.5 813.393,-79.5 813.393,-58.5 727.393,-58.5"/>
<text text-anchor="middle" x="770.393" y="-66.5" font-family="Helvetica,sans-Serif" font-size="10.00">plot_beams.cpp</text>
</a>
</g>
<!-- Node21&#45;&gt;Node23 -->
<g id="edge70" class="edge"><title>Node21&#45;&gt;Node23</title>
<path fill="none" stroke="midnightblue" d="M836.009,-110.821C820.335,-100.831 800.672,-88.2993 786.978,-79.5707"/>
<polygon fill="midnightblue" stroke="midnightblue" points="834.388,-113.939 844.702,-116.362 838.15,-108.036 834.388,-113.939"/>
</g>
<!-- Node24 -->
<g id="node60" class="node"><title>Node24</title>
<a xlink:href="../../d3/dca/plot__llrf_8cpp.html" target="_top" xlink:title="plot_llrf.cpp">
<polygon fill="white" stroke="black" points="996.893,-58.5 996.893,-79.5 1063.89,-79.5 1063.89,-58.5 996.893,-58.5"/>
<text text-anchor="middle" x="1030.39" y="-66.5" font-family="Helvetica,sans-Serif" font-size="10.00">plot_llrf.cpp</text>
</a>
</g>
<!-- Node21&#45;&gt;Node24 -->
<g id="edge72" class="edge"><title>Node21&#45;&gt;Node24</title>
<path fill="none" stroke="midnightblue" d="M901.765,-113.144C931.84,-102.823 972.28,-88.9439 999.731,-79.5231"/>
<polygon fill="midnightblue" stroke="midnightblue" points="900.319,-109.94 891.997,-116.497 902.592,-116.561 900.319,-109.94"/>
</g>
<!-- Node25&#45;&gt;Node10 -->
<g id="edge80" class="edge"><title>Node25&#45;&gt;Node10</title>
<path fill="none" stroke="midnightblue" d="M689.413,-106.123C687.059,-81.2984 683.221,-40.8235 681.405,-21.6792"/>
<polygon fill="midnightblue" stroke="midnightblue" points="685.949,-106.67 690.377,-116.295 692.918,-106.009 685.949,-106.67"/>
</g>
<!-- Node25&#45;&gt;Node23 -->
<g id="edge78" class="edge"><title>Node25&#45;&gt;Node23</title>
<path fill="none" stroke="midnightblue" d="M714.195,-110.259C727.673,-100.364 744.328,-88.1361 755.995,-79.5707"/>
<polygon fill="midnightblue" stroke="midnightblue" points="711.872,-107.623 705.882,-116.362 716.015,-113.265 711.872,-107.623"/>
</g>
<!-- Node26&#45;&gt;Node10 -->
<g id="edge88" class="edge"><title>Node26&#45;&gt;Node10</title>
<path fill="none" stroke="midnightblue" d="M617.444,-109.303C625.576,-100.84 634.99,-90.3209 642.393,-80 656.261,-60.6636 668.832,-35.7363 675.463,-21.7512"/>
<polygon fill="midnightblue" stroke="midnightblue" points="614.949,-106.849 610.431,-116.432 619.939,-111.758 614.949,-106.849"/>
</g>
<!-- Node27 -->
<g id="node70" class="node"><title>Node27</title>
<a xlink:href="../../d4/dfd/plot__slices_8cpp.html" target="_top" xlink:title="plot_slices.cpp">
<polygon fill="white" stroke="black" points="551.393,-58.5 551.393,-79.5 633.393,-79.5 633.393,-58.5 551.393,-58.5"/>
<text text-anchor="middle" x="592.393" y="-66.5" font-family="Helvetica,sans-Serif" font-size="10.00">plot_slices.cpp</text>
</a>
</g>
<!-- Node26&#45;&gt;Node27 -->
<g id="edge86" class="edge"><title>Node26&#45;&gt;Node27</title>
<path fill="none" stroke="midnightblue" d="M596.881,-106.191C595.792,-97.1684 594.564,-86.9941 593.668,-79.5707"/>
<polygon fill="midnightblue" stroke="midnightblue" points="593.436,-106.853 598.109,-116.362 600.385,-106.015 593.436,-106.853"/>
</g>
<!-- Node28&#45;&gt;Node10 -->
<g id="edge104" class="edge"><title>Node28&#45;&gt;Node10</title>
<path fill="none" stroke="midnightblue" d="M1107.72,-106.806C1113.22,-91.5383 1117.07,-71.0454 1105.39,-58 1078.46,-27.9298 790.513,-15.0292 704.511,-11.829"/>
<polygon fill="midnightblue" stroke="midnightblue" points="1104.35,-105.804 1103.81,-116.386 1110.83,-108.447 1104.35,-105.804"/>
</g>
<!-- Node28&#45;&gt;Node24 -->
<g id="edge102" class="edge"><title>Node28&#45;&gt;Node24</title>
<path fill="none" stroke="midnightblue" d="M1078.1,-109.691C1066.62,-99.8996 1052.64,-87.973 1042.79,-79.5707"/>
<polygon fill="midnightblue" stroke="midnightblue" points="1076.04,-112.535 1085.92,-116.362 1080.58,-107.209 1076.04,-112.535"/>
</g>
<!-- Node29&#45;&gt;Node7 -->
<g id="edge110" class="edge"><title>Node29&#45;&gt;Node7</title>
<path fill="none" stroke="midnightblue" d="M889.524,-170.751C863.742,-160.509 829.537,-146.921 806.129,-137.621"/>
<polygon fill="midnightblue" stroke="midnightblue" points="888.367,-174.057 898.953,-174.497 890.952,-167.552 888.367,-174.057"/>
</g>
<!-- Node29&#45;&gt;Node9 -->
<g id="edge112" class="edge"><title>Node29&#45;&gt;Node9</title>
<path fill="none" stroke="midnightblue" d="M935.823,-165.706C944.983,-150.369 959.606,-129.343 977.393,-116 1016.96,-86.3144 1106.18,-94.1328 1072.39,-58 1061.16,-45.9898 570.543,-20.7868 417.499,-13.2041"/>
<polygon fill="midnightblue" stroke="midnightblue" points="932.776,-163.983 930.846,-174.401 938.851,-167.461 932.776,-163.983"/>
</g>
<!-- Node29&#45;&gt;Node10 -->
<g id="edge116" class="edge"><title>Node29&#45;&gt;Node10</title>
<path fill="none" stroke="midnightblue" d="M937.869,-165.756C953.768,-138.558 976.268,-88.7693 950.393,-58 919.003,-20.6748 764.748,-12.9894 704.533,-11.4087"/>
<polygon fill="midnightblue" stroke="midnightblue" points="934.836,-164.007 932.611,-174.365 940.81,-167.655 934.836,-164.007"/>
</g>
<!-- Node30 -->
<g id="node87" class="node"><title>Node30</title>
<a xlink:href="../../de/da5/utilities_8cpp.html" target="_top" xlink:title="utilities.cpp">
<polygon fill="white" stroke="black" points="986.393,-116.5 986.393,-137.5 1052.39,-137.5 1052.39,-116.5 986.393,-116.5"/>
<text text-anchor="middle" x="1019.39" y="-124.5" font-family="Helvetica,sans-Serif" font-size="10.00">utilities.cpp</text>
</a>
</g>
<!-- Node29&#45;&gt;Node30 -->
<g id="edge114" class="edge"><title>Node29&#45;&gt;Node30</title>
<path fill="none" stroke="midnightblue" d="M951.16,-169.101C967.424,-159.066 987.982,-146.381 1002.26,-137.571"/>
<polygon fill="midnightblue" stroke="midnightblue" points="949.306,-166.132 942.634,-174.362 952.982,-172.089 949.306,-166.132"/>
</g>
<!-- Node31&#45;&gt;Node10 -->
<g id="edge130" class="edge"><title>Node31&#45;&gt;Node10</title>
<path fill="none" stroke="midnightblue" d="M1208.29,-171.489C1236.06,-162.436 1267.35,-150.015 1275.39,-138 1280.83,-129.875 1280.16,-124.538 1275.39,-116 1251.47,-73.1321 1227.94,-73.5908 1181.39,-58 1091.2,-27.7923 791.97,-14.9688 704.564,-11.8111"/>
<polygon fill="midnightblue" stroke="midnightblue" points="1207.13,-168.184 1198.66,-174.544 1209.25,-174.856 1207.13,-168.184"/>
</g>
<!-- Node31&#45;&gt;Node14 -->
<g id="edge134" class="edge"><title>Node31&#45;&gt;Node14</title>
<path fill="none" stroke="midnightblue" d="M1113.75,-182.524C990.35,-175.918 662.525,-157.07 555.393,-138 552.207,-137.433 548.906,-136.714 545.636,-135.917"/>
<polygon fill="midnightblue" stroke="midnightblue" points="1113.83,-186.034 1124.01,-183.071 1114.21,-179.044 1113.83,-186.034"/>
</g>
<!-- Node31&#45;&gt;Node21 -->
<g id="edge132" class="edge"><title>Node31&#45;&gt;Node21</title>
<path fill="none" stroke="midnightblue" d="M1114.4,-175.915C1052.47,-163.941 945.219,-143.206 892.489,-133.012"/>
<polygon fill="midnightblue" stroke="midnightblue" points="1113.82,-179.368 1124.31,-177.83 1115.15,-172.495 1113.82,-179.368"/>
</g>
<!-- Node32 -->
<g id="node96" class="node"><title>Node32</title>
<a xlink:href="../../db/dee/PhaseLoop_8cpp.html" target="_top" xlink:title="PhaseLoop.cpp">
<polygon fill="white" stroke="black" points="1182.39,-116.5 1182.39,-137.5 1266.39,-137.5 1266.39,-116.5 1182.39,-116.5"/>
<text text-anchor="middle" x="1224.39" y="-124.5" font-family="Helvetica,sans-Serif" font-size="10.00">PhaseLoop.cpp</text>
</a>
</g>
<!-- Node31&#45;&gt;Node32 -->
<g id="edge128" class="edge"><title>Node31&#45;&gt;Node32</title>
<path fill="none" stroke="midnightblue" d="M1180.5,-167.405C1191.08,-157.668 1203.87,-145.891 1212.91,-137.571"/>
<polygon fill="midnightblue" stroke="midnightblue" points="1177.93,-165.014 1172.95,-174.362 1182.68,-170.164 1177.93,-165.014"/>
</g>
<!-- Node33&#45;&gt;Node10 -->
<g id="edge140" class="edge"><title>Node33&#45;&gt;Node10</title>
<path fill="none" stroke="midnightblue" d="M1259.43,-232.956C1279.74,-226.118 1301.34,-214.755 1313.39,-196 1352.73,-134.811 1292.18,-86.8147 1225.39,-58 1177.05,-37.1448 803.532,-17.1545 704.452,-12.1788"/>
<polygon fill="midnightblue" stroke="midnightblue" points="1258.14,-229.689 1249.6,-235.963 1260.19,-236.382 1258.14,-229.689"/>
</g>
<!-- Node33&#45;&gt;Node31 -->
<g id="edge142" class="edge"><title>Node33&#45;&gt;Node31</title>
<path fill="none" stroke="midnightblue" d="M1194.8,-224.541C1186.72,-214.979 1177.15,-203.647 1170.32,-195.571"/>
<polygon fill="midnightblue" stroke="midnightblue" points="1192.28,-226.982 1201.41,-232.362 1197.63,-222.464 1192.28,-226.982"/>
</g>
<!-- Node34 -->
<g id="node103" class="node"><title>Node34</title>
<a xlink:href="../../db/d82/PhaseNoise_8cpp.html" target="_top" xlink:title="PhaseNoise.cpp">
<polygon fill="white" stroke="black" points="1215.89,-174.5 1215.89,-195.5 1304.89,-195.5 1304.89,-174.5 1215.89,-174.5"/>
<text text-anchor="middle" x="1260.39" y="-182.5" font-family="Helvetica,sans-Serif" font-size="10.00">PhaseNoise.cpp</text>
</a>
</g>
<!-- Node33&#45;&gt;Node34 -->
<g id="edge138" class="edge"><title>Node33&#45;&gt;Node34</title>
<path fill="none" stroke="midnightblue" d="M1226.31,-224.541C1234.55,-214.979 1244.32,-203.647 1251.28,-195.571"/>
<polygon fill="midnightblue" stroke="midnightblue" points="1223.44,-222.502 1219.56,-232.362 1228.74,-227.073 1223.44,-222.502"/>
</g>
</g>
</svg>
