<?xml version="1.0" encoding="UTF-8" standalone="no"?>
<!DOCTYPE svg PUBLIC "-//W3C//DTD SVG 1.1//EN"
 "http://www.w3.org/Graphics/SVG/1.1/DTD/svg11.dtd">
<!-- Generated by graphviz version 2.26.3 (20100126.1600)
 -->
<!-- Title: PhaseNoise Pages: 1 -->
<!--zoomable 504 -->
<svg id="main" version="1.1" xmlns="http://www.w3.org/2000/svg" xmlns:xlink="http://www.w3.org/1999/xlink" xml:space="preserve" onload="init(evt)">
        <defs>
                <circle id="rim" cx="0" cy="0" r="7"/>
                <circle id="rim2" cx="0" cy="0" r="3.5"/>
                <g id="zoomPlus">
                        <use xlink:href="#rim" fill="#404040">
                                <set attributeName="fill" to="#808080" begin="zoomplus.mouseover" end="zoomplus.mouseout"/>
                        </use>
                        <path d="M-4,0h8M0,-4v8" fill="none" stroke="white" stroke-width="1.5" pointer-events="none"/>
                </g>
                <g id="zoomMin">
                        <use xlink:href="#rim" fill="#404040">
                                <set attributeName="fill" to="#808080" begin="zoomminus.mouseover" end="zoomminus.mouseout"/>
                        </use>
                        <path d="M-4,0h8" fill="none" stroke="white" stroke-width="1.5" pointer-events="none"/>
                </g>
                <g id="dirArrow">
                        <path fill="none" stroke="white" stroke-width="1.5" d="M0,-3.0v7 M-2.5,-0.5L0,-3.0L2.5,-0.5"/>
                </g>
               <g id="resetDef">
                       <use xlink:href="#rim2" fill="#404040">
                               <set attributeName="fill" to="#808080" begin="reset.mouseover" end="reset.mouseout"/>
                       </use>
               </g>
        </defs>

<script type="text/javascript">
var viewWidth = 329;
var viewHeight = 504;
var sectionId = 'dynsection-1';
</script>
<script xlink:href="../../svgpan.js"/>
<svg id="graph" class="graph">
<g id="viewport">
<title>PhaseNoise</title>
<polygon fill="white" stroke="white" points="-4,5 -4,-500 326,-500 326,5 -4,5"/>
<!-- Node1 -->
<g id="node1" class="node"><title>Node1</title>
<polygon fill="#bfbfbf" stroke="black" points="82,-0.5 82,-115.5 228,-115.5 228,-0.5 82,-0.5"/>
<text text-anchor="middle" x="155" y="-102.5" font-family="Helvetica,sans-Serif" font-size="10.00">PhaseNoise</text>
<polyline fill="none" stroke="black" points="82,-94.5 228,-94.5 "/>
<text text-anchor="middle" x="155" y="-81.5" font-family="Helvetica,sans-Serif" font-size="10.00"> </text>
<polyline fill="none" stroke="black" points="82,-73.5 228,-73.5 "/>
<text text-anchor="start" x="90" y="-60.5" font-family="Helvetica,sans-Serif" font-size="10.00">+ PhaseNoise()</text>
<text text-anchor="start" x="90" y="-47.5" font-family="Helvetica,sans-Serif" font-size="10.00">+ ~PhaseNoise()</text>
<text text-anchor="start" x="90" y="-34.5" font-family="Helvetica,sans-Serif" font-size="10.00">+ generate()</text>
<text text-anchor="start" x="90" y="-21.5" font-family="Helvetica,sans-Serif" font-size="10.00">+ spectrum_generation()</text>
<text text-anchor="start" x="90" y="-8.5" font-family="Helvetica,sans-Serif" font-size="10.00">+ spectrum_to_phase_noise()</text>
</g>
<!-- Node2 -->
<g id="node2" class="node"><title>Node2</title>
<polygon fill="white" stroke="#bfbfbf" points="0,-204.5 0,-267.5 78,-267.5 78,-204.5 0,-204.5"/>
<text text-anchor="middle" x="39" y="-254.5" font-family="Helvetica,sans-Serif" font-size="10.00">predistortion_t</text>
<polyline fill="none" stroke="#bfbfbf" points="0,-246.5 78,-246.5 "/>
<text text-anchor="middle" x="39" y="-233.5" font-family="Helvetica,sans-Serif" font-size="10.00"> </text>
<polyline fill="none" stroke="#bfbfbf" points="0,-225.5 78,-225.5 "/>
<text text-anchor="middle" x="39" y="-212.5" font-family="Helvetica,sans-Serif" font-size="10.00"> </text>
</g>
<!-- Node2&#45;&gt;Node1 -->
<g id="edge2" class="edge"><title>Node2&#45;&gt;Node1</title>
<path fill="none" stroke="#404040" d="M31.9306,-204.185C28.9333,-183.025 28.4044,-155.311 40,-134 47.6106,-120.013 59.034,-108.162 71.7741,-98.2827"/>
<polygon fill="none" stroke="#404040" points="71.9952,-98.1234 74.5254,-91.3707 81.7318,-91.1091 79.2016,-97.8618 71.9952,-98.1234"/>
<text text-anchor="middle" x="73.5" y="-157.5" font-family="Helvetica,sans-Serif" font-size="10.00"> +fPredistortion</text>
</g>
<!-- Node3 -->
<g id="node4" class="node"><title>Node3</title>
<polygon fill="white" stroke="#bfbfbf" points="109.5,-318.5 109.5,-381.5 154.5,-381.5 154.5,-318.5 109.5,-318.5"/>
<text text-anchor="middle" x="132" y="-368.5" font-family="Helvetica,sans-Serif" font-size="10.00">double</text>
<polyline fill="none" stroke="#bfbfbf" points="109.5,-360.5 154.5,-360.5 "/>
<text text-anchor="middle" x="132" y="-347.5" font-family="Helvetica,sans-Serif" font-size="10.00"> </text>
<polyline fill="none" stroke="#bfbfbf" points="109.5,-339.5 154.5,-339.5 "/>
<text text-anchor="middle" x="132" y="-326.5" font-family="Helvetica,sans-Serif" font-size="10.00"> </text>
</g>
<!-- Node3&#45;&gt;Node1 -->
<g id="edge4" class="edge"><title>Node3&#45;&gt;Node1</title>
<path fill="none" stroke="#404040" d="M131.051,-318.463C130.638,-303.22 130.203,-284.66 130,-268 129.653,-239.558 127.591,-232.342 130,-204 132.133,-178.901 136.294,-151.635 140.619,-127.534"/>
<polygon fill="none" stroke="#404040" points="140.64,-127.417 137.794,-120.791 142.815,-115.615 145.662,-122.241 140.64,-127.417"/>
<text text-anchor="middle" x="147" y="-246.5" font-family="Helvetica,sans-Serif" font-size="10.00"> +fFMin</text>
<text text-anchor="middle" x="147" y="-233.5" font-family="Helvetica,sans-Serif" font-size="10.00">+fFMax</text>
<text text-anchor="middle" x="147" y="-220.5" font-family="Helvetica,sans-Serif" font-size="10.00">+fAi</text>
</g>
<!-- Node5 -->
<g id="node8" class="node"><title>Node5</title>
<polygon fill="white" stroke="#bfbfbf" points="172.5,-204.5 172.5,-267.5 275.5,-267.5 275.5,-204.5 172.5,-204.5"/>
<text text-anchor="middle" x="224" y="-254.5" font-family="Helvetica,sans-Serif" font-size="10.00">std::vector&lt; ftype &gt;</text>
<polyline fill="none" stroke="#bfbfbf" points="172.5,-246.5 275.5,-246.5 "/>
<text text-anchor="middle" x="224" y="-233.5" font-family="Helvetica,sans-Serif" font-size="10.00"> </text>
<polyline fill="none" stroke="#bfbfbf" points="172.5,-225.5 275.5,-225.5 "/>
<text text-anchor="middle" x="224" y="-212.5" font-family="Helvetica,sans-Serif" font-size="10.00"> </text>
</g>
<!-- Node3&#45;&gt;Node5 -->
<g id="edge10" class="edge"><title>Node3&#45;&gt;Node5</title>
<path fill="none" stroke="#404040" d="M149.655,-318.349C156.149,-307.686 163.908,-295.97 172,-286 174.605,-282.791 177.402,-279.579 180.298,-276.417"/>
<polygon fill="none" stroke="#404040" points="180.355,-276.358 181.611,-269.257 188.649,-267.685 187.393,-274.786 180.355,-276.358"/>
<text text-anchor="middle" x="196.5" y="-290.5" font-family="Helvetica,sans-Serif" font-size="10.00"> +elements</text>
</g>
<!-- Node4 -->
<g id="node6" class="node"><title>Node4</title>
<polygon fill="white" stroke="#bfbfbf" points="292.5,-204.5 292.5,-267.5 321.5,-267.5 321.5,-204.5 292.5,-204.5"/>
<text text-anchor="middle" x="307" y="-254.5" font-family="Helvetica,sans-Serif" font-size="10.00">int</text>
<polyline fill="none" stroke="#bfbfbf" points="292.5,-246.5 321.5,-246.5 "/>
<text text-anchor="middle" x="307" y="-233.5" font-family="Helvetica,sans-Serif" font-size="10.00"> </text>
<polyline fill="none" stroke="#bfbfbf" points="292.5,-225.5 321.5,-225.5 "/>
<text text-anchor="middle" x="307" y="-212.5" font-family="Helvetica,sans-Serif" font-size="10.00"> </text>
</g>
<!-- Node4&#45;&gt;Node1 -->
<g id="edge6" class="edge"><title>Node4&#45;&gt;Node1</title>
<path fill="none" stroke="#404040" d="M292.345,-210.932C279.31,-189.535 259.094,-158.439 238,-134 235.235,-130.797 232.344,-127.592 229.368,-124.408"/>
<polygon fill="none" stroke="#404040" points="229.12,-124.15 222.076,-122.607 220.79,-115.512 227.835,-117.055 229.12,-124.15"/>
<text text-anchor="middle" x="298.5" y="-177" font-family="Helvetica,sans-Serif" font-size="10.00"> +fNTurns</text>
<text text-anchor="middle" x="298.5" y="-164" font-family="Helvetica,sans-Serif" font-size="10.00">+fCorr</text>
<text text-anchor="middle" x="298.5" y="-151" font-family="Helvetica,sans-Serif" font-size="10.00">+fSeed1</text>
<text text-anchor="middle" x="298.5" y="-138" font-family="Helvetica,sans-Serif" font-size="10.00">+fSeed2</text>
</g>
<!-- Node5&#45;&gt;Node1 -->
<g id="edge8" class="edge"><title>Node5&#45;&gt;Node1</title>
<path fill="none" stroke="#404040" d="M211.664,-204.177C203.354,-182.74 192.069,-153.628 181.757,-127.026"/>
<polygon fill="none" stroke="#404040" points="181.746,-126.998 175.848,-122.849 177.409,-115.809 183.307,-119.957 181.746,-126.998"/>
<text text-anchor="middle" x="219" y="-164" font-family="Helvetica,sans-Serif" font-size="10.00"> +fFs</text>
<text text-anchor="middle" x="219" y="-151" font-family="Helvetica,sans-Serif" font-size="10.00">+fDphi</text>
</g>
<!-- Node6 -->
<g id="node11" class="node"><title>Node6</title>
<a xlink:title="STL class.">
<polygon fill="white" stroke="#bfbfbf" points="182.5,-318.5 182.5,-381.5 269.5,-381.5 269.5,-318.5 182.5,-318.5"/>
<text text-anchor="middle" x="226" y="-368.5" font-family="Helvetica,sans-Serif" font-size="10.00">std::vector&lt; T &gt;</text>
<polyline fill="none" stroke="#bfbfbf" points="182.5,-360.5 269.5,-360.5 "/>
<text text-anchor="middle" x="226" y="-347.5" font-family="Helvetica,sans-Serif" font-size="10.00"> </text>
<polyline fill="none" stroke="#bfbfbf" points="182.5,-339.5 269.5,-339.5 "/>
<text text-anchor="middle" x="226" y="-326.5" font-family="Helvetica,sans-Serif" font-size="10.00"> </text>
</a>
</g>
<!-- Node6&#45;&gt;Node5 -->
<g id="edge12" class="edge"><title>Node6&#45;&gt;Node5</title>
<path fill="none" stroke="orange" d="M225.261,-307.866C225.027,-294.538 224.773,-280.043 224.554,-267.585"/>
<polygon fill="orange" stroke="orange" points="221.768,-308.308 225.443,-318.245 228.767,-308.185 221.768,-308.308"/>
<text text-anchor="middle" x="247.5" y="-290.5" font-family="Helvetica,sans-Serif" font-size="10.00"> &lt; ftype &gt;</text>
</g>
<!-- Node7 -->
<g id="node13" class="node"><title>Node7</title>
<polygon fill="white" stroke="#bfbfbf" points="211.5,-432.5 211.5,-495.5 240.5,-495.5 240.5,-432.5 211.5,-432.5"/>
<text text-anchor="middle" x="226" y="-482.5" font-family="Helvetica,sans-Serif" font-size="10.00">T</text>
<polyline fill="none" stroke="#bfbfbf" points="211.5,-474.5 240.5,-474.5 "/>
<text text-anchor="middle" x="226" y="-461.5" font-family="Helvetica,sans-Serif" font-size="10.00"> </text>
<polyline fill="none" stroke="#bfbfbf" points="211.5,-453.5 240.5,-453.5 "/>
<text text-anchor="middle" x="226" y="-440.5" font-family="Helvetica,sans-Serif" font-size="10.00"> </text>
</g>
<!-- Node7&#45;&gt;Node6 -->
<g id="edge14" class="edge"><title>Node7&#45;&gt;Node6</title>
<path fill="none" stroke="#404040" d="M226,-432.245C226,-420.386 226,-406.7 226,-393.938"/>
<polygon fill="none" stroke="#404040" points="226,-393.585 222,-387.585 226,-381.585 230,-387.585 226,-393.585"/>
<text text-anchor="middle" x="250.5" y="-404.5" font-family="Helvetica,sans-Serif" font-size="10.00"> +elements</text>
</g>
</g>
</svg>
        <g id="navigator" transform="translate(0 0)" fill="#404254">
                <rect fill="#f2f5e9" fill-opacity="0.5" stroke="#606060" stroke-width=".5" x="0" y="0" width="60" height="60"/>
                <use id="zoomplus" xlink:href="#zoomPlus" x="17" y="9" onmousedown="handleZoom(evt,'in')"/>
                <use id="zoomminus" xlink:href="#zoomMin" x="42" y="9" onmousedown="handleZoom(evt,'out')"/>
                <use id="reset" xlink:href="#resetDef" x="30" y="36" onmousedown="handleReset()"/>
                <g id="arrowUp" xlink:href="#dirArrow" transform="translate(30 24)" onmousedown="handlePan(0,-1)">
                  <use xlink:href="#rim" fill="#404040">
                        <set attributeName="fill" to="#808080" begin="arrowUp.mouseover" end="arrowUp.mouseout"/>
                  </use>
                  <path fill="none" stroke="white" stroke-width="1.5" d="M0,-3.0v7 M-2.5,-0.5L0,-3.0L2.5,-0.5"/>
                </g>
                <g id="arrowRight" xlink:href="#dirArrow" transform="rotate(90) translate(36 -43)" onmousedown="handlePan(1,0)">
                  <use xlink:href="#rim" fill="#404040">
                        <set attributeName="fill" to="#808080" begin="arrowRight.mouseover" end="arrowRight.mouseout"/>
                  </use>
                  <path fill="none" stroke="white" stroke-width="1.5" d="M0,-3.0v7 M-2.5,-0.5L0,-3.0L2.5,-0.5"/>
                </g>
                <g id="arrowDown" xlink:href="#dirArrow" transform="rotate(180) translate(-30 -48)" onmousedown="handlePan(0,1)">
                  <use xlink:href="#rim" fill="#404040">
                        <set attributeName="fill" to="#808080" begin="arrowDown.mouseover" end="arrowDown.mouseout"/>
                  </use>
                  <path fill="none" stroke="white" stroke-width="1.5" d="M0,-3.0v7 M-2.5,-0.5L0,-3.0L2.5,-0.5"/>
                </g>
                <g id="arrowLeft" xlink:href="#dirArrow" transform="rotate(270) translate(-36 17)" onmousedown="handlePan(-1,0)">
                  <use xlink:href="#rim" fill="#404040">
                        <set attributeName="fill" to="#808080" begin="arrowLeft.mouseover" end="arrowLeft.mouseout"/>
                  </use>
                  <path fill="none" stroke="white" stroke-width="1.5" d="M0,-3.0v7 M-2.5,-0.5L0,-3.0L2.5,-0.5"/>
                </g>
        </g>
        <svg viewBox="0 0 15 15" width="100%" height="30px" preserveAspectRatio="xMaxYMin meet">
         <g id="arrow_out" transform="scale(0.3 0.3)">
          <a xlink:href="classPhaseNoise__coll__graph_org.svg" target="_base">
           <rect id="button" ry="5" rx="5" y="6" x="6" height="38" width="38"
                fill="#f2f5e9" fill-opacity="0.5" stroke="#606060" stroke-width="1.0"/>
           <path id="arrow"
             d="M 11.500037,31.436501 C 11.940474,20.09759 22.043105,11.32322 32.158766,21.979434 L 37.068811,17.246167 C 37.068811,17.246167 37.088388,32 37.088388,32 L 22.160133,31.978069 C 22.160133,31.978069 26.997745,27.140456 26.997745,27.140456 C 18.528582,18.264221 13.291696,25.230495 11.500037,31.436501 z"
             style="fill:#404040;"/>
          </a>
         </g>
        </svg>
</svg>
