<?xml version="1.0" encoding="UTF-8" standalone="no"?>
<!DOCTYPE svg PUBLIC "-//W3C//DTD SVG 1.1//EN"
 "http://www.w3.org/Graphics/SVG/1.1/DTD/svg11.dtd">
<!-- Generated by graphviz version 2.26.3 (20100126.1600)
 -->
<!-- Title: PhaseNoise.cpp Pages: 1 -->
<svg width="1826pt" height="580pt"
 viewBox="0.00 0.00 1826.00 580.00" xmlns="http://www.w3.org/2000/svg" xmlns:xlink="http://www.w3.org/1999/xlink">
<g id="graph1" class="graph" transform="scale(1 1) rotate(0) translate(4 576)">
<title>PhaseNoise.cpp</title>
<polygon fill="white" stroke="white" points="-4,5 -4,-576 1823,-576 1823,5 -4,5"/>
<!-- Node1 -->
<g id="node1" class="node"><title>Node1</title>
<polygon fill="#bfbfbf" stroke="black" points="1139.5,-550.5 1139.5,-571.5 1228.5,-571.5 1228.5,-550.5 1139.5,-550.5"/>
<text text-anchor="middle" x="1184" y="-558.5" font-family="Helvetica,sans-Serif" font-size="10.00">PhaseNoise.cpp</text>
</g>
<!-- Node2 -->
<g id="node3" class="node"><title>Node2</title>
<a xlink:href="../../d2/d6f/constants_8h.html" target="_top" xlink:title="blond/constants.h">
<polygon fill="white" stroke="black" points="862,-246.5 862,-267.5 956,-267.5 956,-246.5 862,-246.5"/>
<text text-anchor="middle" x="909" y="-254.5" font-family="Helvetica,sans-Serif" font-size="10.00">blond/constants.h</text>
</a>
</g>
<!-- Node1&#45;&gt;Node2 -->
<g id="edge2" class="edge"><title>Node1&#45;&gt;Node2</title>
<path fill="none" stroke="midnightblue" d="M1174.21,-550.18C1133.45,-505.117 976.885,-332.044 925.467,-275.204"/>
<polygon fill="midnightblue" stroke="midnightblue" points="927.974,-272.758 918.67,-267.69 922.783,-277.454 927.974,-272.758"/>
</g>
<!-- Node6 -->
<g id="node11" class="node"><title>Node6</title>
<a xlink:href="../../d9/dc8/PhaseNoise_8h.html" target="_top" xlink:title="blond/llrf/PhaseNoise.h">
<polygon fill="white" stroke="black" points="765,-492.5 765,-513.5 883,-513.5 883,-492.5 765,-492.5"/>
<text text-anchor="middle" x="824" y="-500.5" font-family="Helvetica,sans-Serif" font-size="10.00">blond/llrf/PhaseNoise.h</text>
</a>
</g>
<!-- Node1&#45;&gt;Node6 -->
<g id="edge10" class="edge"><title>Node1&#45;&gt;Node6</title>
<path fill="none" stroke="midnightblue" d="M1139.5,-553.83C1077.78,-543.887 965.619,-525.816 892.999,-514.117"/>
<polygon fill="midnightblue" stroke="midnightblue" points="893.454,-510.645 883.024,-512.509 892.34,-517.556 893.454,-510.645"/>
</g>
<!-- Node24 -->
<g id="node58" class="node"><title>Node24</title>
<a xlink:href="../../d2/de2/math__functions_8h.html" target="_top" xlink:title="blond/math_functions.h">
<polygon fill="white" stroke="black" points="1125,-246.5 1125,-267.5 1243,-267.5 1243,-246.5 1125,-246.5"/>
<text text-anchor="middle" x="1184" y="-254.5" font-family="Helvetica,sans-Serif" font-size="10.00">blond/math_functions.h</text>
</a>
</g>
<!-- Node1&#45;&gt;Node24 -->
<g id="edge120" class="edge"><title>Node1&#45;&gt;Node24</title>
<path fill="none" stroke="midnightblue" d="M1184,-550.444C1184,-530.062 1184,-483.868 1184,-445 1184,-445 1184,-445 1184,-387 1184,-348.466 1184,-303.508 1184,-277.834"/>
<polygon fill="midnightblue" stroke="midnightblue" points="1187.5,-277.786 1184,-267.786 1180.5,-277.786 1187.5,-277.786"/>
</g>
<!-- Node32 -->
<g id="node79" class="node"><title>Node32</title>
<polygon fill="white" stroke="#bfbfbf" points="1271.5,-181.5 1271.5,-202.5 1320.5,-202.5 1320.5,-181.5 1271.5,-181.5"/>
<text text-anchor="middle" x="1296" y="-189.5" font-family="Helvetica,sans-Serif" font-size="10.00">random</text>
</g>
<!-- Node1&#45;&gt;Node32 -->
<g id="edge140" class="edge"><title>Node1&#45;&gt;Node32</title>
<path fill="none" stroke="midnightblue" d="M1202.62,-550.484C1231.3,-532.748 1283,-493.981 1283,-445 1283,-445 1283,-445 1283,-322 1283,-283.274 1288.78,-238.38 1292.63,-212.77"/>
<polygon fill="midnightblue" stroke="midnightblue" points="1296.11,-213.169 1294.19,-202.75 1289.2,-212.093 1296.11,-213.169"/>
</g>
<!-- Node37 -->
<g id="node98" class="node"><title>Node37</title>
<a xlink:href="../../d7/d76/fft_8h.html" target="_top" xlink:title="blond/fft.h">
<polygon fill="white" stroke="black" points="1562,-246.5 1562,-267.5 1622,-267.5 1622,-246.5 1562,-246.5"/>
<text text-anchor="middle" x="1592" y="-254.5" font-family="Helvetica,sans-Serif" font-size="10.00">blond/fft.h</text>
</a>
</g>
<!-- Node1&#45;&gt;Node37 -->
<g id="edge122" class="edge"><title>Node1&#45;&gt;Node37</title>
<path fill="none" stroke="midnightblue" d="M1228.61,-551.639C1305.78,-534.151 1456,-493.835 1456,-445 1456,-445 1456,-445 1456,-387 1456,-331.058 1516.87,-291.782 1557.17,-271.912"/>
<polygon fill="midnightblue" stroke="midnightblue" points="1558.89,-274.966 1566.42,-267.508 1555.89,-268.645 1558.89,-274.966"/>
</g>
<!-- Node3 -->
<g id="node5" class="node"><title>Node3</title>
<a xlink:href="../../d2/d2c/configuration_8h.html" target="_top" xlink:title="blond/configuration.h">
<polygon fill="white" stroke="black" points="929.5,-58.5 929.5,-79.5 1036.5,-79.5 1036.5,-58.5 929.5,-58.5"/>
<text text-anchor="middle" x="983" y="-66.5" font-family="Helvetica,sans-Serif" font-size="10.00">blond/configuration.h</text>
</a>
</g>
<!-- Node2&#45;&gt;Node3 -->
<g id="edge4" class="edge"><title>Node2&#45;&gt;Node3</title>
<path fill="none" stroke="midnightblue" d="M910.86,-246.309C915.322,-222.169 927.935,-161.964 950,-116 954.804,-105.994 961.67,-95.8019 967.897,-87.4783"/>
<polygon fill="midnightblue" stroke="midnightblue" points="970.672,-89.6114 974.041,-79.5666 965.143,-85.3179 970.672,-89.6114"/>
</g>
<!-- Node4 -->
<g id="node7" class="node"><title>Node4</title>
<polygon fill="white" stroke="#bfbfbf" points="956.5,-0.5 956.5,-21.5 1009.5,-21.5 1009.5,-0.5 956.5,-0.5"/>
<text text-anchor="middle" x="983" y="-8.5" font-family="Helvetica,sans-Serif" font-size="10.00">complex</text>
</g>
<!-- Node3&#45;&gt;Node4 -->
<g id="edge6" class="edge"><title>Node3&#45;&gt;Node4</title>
<path fill="none" stroke="midnightblue" d="M983,-58.3619C983,-50.9219 983,-40.7427 983,-31.7276"/>
<polygon fill="midnightblue" stroke="midnightblue" points="986.5,-31.5706 983,-21.5707 979.5,-31.5707 986.5,-31.5706"/>
</g>
<!-- Node5 -->
<g id="node9" class="node"><title>Node5</title>
<polygon fill="white" stroke="#bfbfbf" points="0,-0.5 0,-21.5 44,-21.5 44,-0.5 0,-0.5"/>
<text text-anchor="middle" x="22" y="-8.5" font-family="Helvetica,sans-Serif" font-size="10.00">vector</text>
</g>
<!-- Node3&#45;&gt;Node5 -->
<g id="edge8" class="edge"><title>Node3&#45;&gt;Node5</title>
<path fill="none" stroke="midnightblue" d="M929.291,-59.053C926.492,-58.6655 923.715,-58.3106 921,-58 583.71,-19.4114 171.555,-12.4699 54.4212,-11.2523"/>
<polygon fill="midnightblue" stroke="midnightblue" points="54.3584,-7.75163 44.3249,-11.1542 54.2904,-14.7513 54.3584,-7.75163"/>
</g>
<!-- Node6&#45;&gt;Node3 -->
<g id="edge12" class="edge"><title>Node6&#45;&gt;Node3</title>
<path fill="none" stroke="midnightblue" d="M833.02,-492.165C858.984,-460.271 934.015,-362.99 965,-268 985.376,-205.535 985.454,-126.568 984.116,-89.7115"/>
<polygon fill="midnightblue" stroke="midnightblue" points="987.611,-89.5269 983.676,-79.69 980.618,-89.8339 987.611,-89.5269"/>
</g>
<!-- Node7 -->
<g id="node14" class="node"><title>Node7</title>
<a xlink:href="../../d5/d87/globals_8h.html" target="_top" xlink:title="blond/globals.h">
<polygon fill="white" stroke="black" points="710,-434.5 710,-455.5 792,-455.5 792,-434.5 710,-434.5"/>
<text text-anchor="middle" x="751" y="-442.5" font-family="Helvetica,sans-Serif" font-size="10.00">blond/globals.h</text>
</a>
</g>
<!-- Node6&#45;&gt;Node7 -->
<g id="edge14" class="edge"><title>Node6&#45;&gt;Node7</title>
<path fill="none" stroke="midnightblue" d="M810.611,-492.362C799.909,-483.859 784.704,-471.779 772.329,-461.947"/>
<polygon fill="midnightblue" stroke="midnightblue" points="774.311,-459.051 764.304,-455.571 769.957,-464.532 774.311,-459.051"/>
</g>
<!-- Node9 -->
<g id="node19" class="node"><title>Node9</title>
<a xlink:href="../../de/df0/utilities_8h.html" target="_top" xlink:title="blond/utilities.h">
<polygon fill="white" stroke="black" points="506,-116.5 506,-137.5 588,-137.5 588,-116.5 506,-116.5"/>
<text text-anchor="middle" x="547" y="-124.5" font-family="Helvetica,sans-Serif" font-size="10.00">blond/utilities.h</text>
</a>
</g>
<!-- Node6&#45;&gt;Node9 -->
<g id="edge118" class="edge"><title>Node6&#45;&gt;Node9</title>
<path fill="none" stroke="midnightblue" d="M764.964,-494.38C671.02,-478.982 498,-443.018 498,-387 498,-387 498,-387 498,-257 498,-215.479 520.158,-171.014 534.673,-146.341"/>
<polygon fill="midnightblue" stroke="midnightblue" points="537.774,-147.977 539.979,-137.615 531.793,-144.34 537.774,-147.977"/>
</g>
<!-- Node8 -->
<g id="node16" class="node"><title>Node8</title>
<a xlink:href="../../d5/d34/GeneralParameters_8h.html" target="_top" xlink:title="blond/input_parameters\l/GeneralParameters.h">
<polygon fill="white" stroke="black" points="654,-175 654,-209 772,-209 772,-175 654,-175"/>
<text text-anchor="start" x="662" y="-196" font-family="Helvetica,sans-Serif" font-size="10.00">blond/input_parameters</text>
<text text-anchor="middle" x="713" y="-183" font-family="Helvetica,sans-Serif" font-size="10.00">/GeneralParameters.h</text>
</a>
</g>
<!-- Node7&#45;&gt;Node8 -->
<g id="edge16" class="edge"><title>Node7&#45;&gt;Node8</title>
<path fill="none" stroke="midnightblue" d="M741.096,-434.431C725.158,-416.614 694.449,-378.739 683,-340 670.65,-298.211 686.983,-248.298 699.96,-218.426"/>
<polygon fill="midnightblue" stroke="midnightblue" points="703.244,-219.657 704.185,-209.104 696.869,-216.767 703.244,-219.657"/>
</g>
<!-- Node22 -->
<g id="node48" class="node"><title>Node22</title>
<a xlink:href="../../d6/db7/RfParameters_8h.html" target="_top" xlink:title="blond/input_parameters\l/RfParameters.h">
<polygon fill="white" stroke="black" points="692,-305 692,-339 810,-339 810,-305 692,-305"/>
<text text-anchor="start" x="700" y="-326" font-family="Helvetica,sans-Serif" font-size="10.00">blond/input_parameters</text>
<text text-anchor="middle" x="751" y="-313" font-family="Helvetica,sans-Serif" font-size="10.00">/RfParameters.h</text>
</a>
</g>
<!-- Node7&#45;&gt;Node22 -->
<g id="edge52" class="edge"><title>Node7&#45;&gt;Node22</title>
<path fill="none" stroke="midnightblue" d="M746.953,-434.085C744.048,-415.275 743.484,-376.21 745.263,-349.547"/>
<polygon fill="midnightblue" stroke="midnightblue" points="748.773,-349.578 746.132,-339.317 741.798,-348.985 748.773,-349.578"/>
</g>
<!-- Node23 -->
<g id="node50" class="node"><title>Node23</title>
<a xlink:href="../../d7/d74/Beams_8h.html" target="_top" xlink:title="blond/beams/Beams.h">
<polygon fill="white" stroke="black" points="730,-246.5 730,-267.5 844,-267.5 844,-246.5 730,-246.5"/>
<text text-anchor="middle" x="787" y="-254.5" font-family="Helvetica,sans-Serif" font-size="10.00">blond/beams/Beams.h</text>
</a>
</g>
<!-- Node7&#45;&gt;Node23 -->
<g id="edge106" class="edge"><title>Node7&#45;&gt;Node23</title>
<path fill="none" stroke="midnightblue" d="M755.356,-434.431C767.842,-416.614 798.551,-378.739 810,-340 814.535,-324.656 814.711,-319.291 810,-304 806.908,-293.965 800.86,-284.154 795.493,-276.114"/>
<polygon fill="midnightblue" stroke="midnightblue" points="798.224,-273.905 789.723,-267.582 792.426,-277.826 798.224,-273.905"/>
</g>
<!-- Node35 -->
<g id="node89" class="node"><title>Node35</title>
<a xlink:href="../../dc/df2/Slices_8h.html" target="_top" xlink:title="blond/beams/Slices.h">
<polygon fill="white" stroke="black" points="526,-376.5 526,-397.5 636,-397.5 636,-376.5 526,-376.5"/>
<text text-anchor="middle" x="581" y="-384.5" font-family="Helvetica,sans-Serif" font-size="10.00">blond/beams/Slices.h</text>
</a>
</g>
<!-- Node7&#45;&gt;Node35 -->
<g id="edge108" class="edge"><title>Node7&#45;&gt;Node35</title>
<path fill="none" stroke="midnightblue" d="M720.214,-434.497C692.62,-425.082 651.942,-411.204 621.675,-400.877"/>
<polygon fill="midnightblue" stroke="midnightblue" points="622.438,-397.44 611.843,-397.523 620.178,-404.065 622.438,-397.44"/>
</g>
<!-- Node8&#45;&gt;Node3 -->
<g id="edge18" class="edge"><title>Node8&#45;&gt;Node3</title>
<path fill="none" stroke="midnightblue" d="M735.647,-174.927C758.84,-158.085 796.432,-132.53 832,-116 862.736,-101.715 898.941,-90.2785 928.193,-82.2644"/>
<polygon fill="midnightblue" stroke="midnightblue" points="929.478,-85.5437 938.23,-79.5734 927.665,-78.7825 929.478,-85.5437"/>
</g>
<!-- Node8&#45;&gt;Node5 -->
<g id="edge50" class="edge"><title>Node8&#45;&gt;Node5</title>
<path fill="none" stroke="midnightblue" d="M653.795,-186.664C494.418,-171.715 65.5205,-127.406 24,-80 12.6267,-67.0146 13.4186,-46.7978 16.2868,-31.5981"/>
<polygon fill="midnightblue" stroke="midnightblue" points="19.7576,-32.1234 18.5979,-21.5922 12.9371,-30.548 19.7576,-32.1234"/>
</g>
<!-- Node8&#45;&gt;Node9 -->
<g id="edge20" class="edge"><title>Node8&#45;&gt;Node9</title>
<path fill="none" stroke="midnightblue" d="M669.385,-174.922C642.757,-164.495 609.088,-151.312 583.808,-141.413"/>
<polygon fill="midnightblue" stroke="midnightblue" points="584.808,-138.045 574.22,-137.658 582.255,-144.564 584.808,-138.045"/>
</g>
<!-- Node9&#45;&gt;Node3 -->
<g id="edge44" class="edge"><title>Node9&#45;&gt;Node3</title>
<path fill="none" stroke="midnightblue" d="M588.212,-119.696C596.098,-118.392 604.295,-117.1 612,-116 745.666,-96.9164 782.493,-99.9282 919.242,-80.1966"/>
<polygon fill="midnightblue" stroke="midnightblue" points="919.873,-83.6417 929.263,-78.736 918.863,-76.7149 919.873,-83.6417"/>
</g>
<!-- Node9&#45;&gt;Node5 -->
<g id="edge40" class="edge"><title>Node9&#45;&gt;Node5</title>
<path fill="none" stroke="midnightblue" d="M505.669,-125.823C391.234,-122.197 76.3359,-109.604 41,-80 27.128,-68.3783 22.8905,-47.646 21.8149,-31.9316"/>
<polygon fill="midnightblue" stroke="midnightblue" points="25.3024,-31.4662 21.4979,-21.578 18.3056,-31.6805 25.3024,-31.4662"/>
</g>
<!-- Node10 -->
<g id="node21" class="node"><title>Node10</title>
<polygon fill="white" stroke="#bfbfbf" points="604,-58.5 604,-79.5 650,-79.5 650,-58.5 604,-58.5"/>
<text text-anchor="middle" x="627" y="-66.5" font-family="Helvetica,sans-Serif" font-size="10.00">chrono</text>
</g>
<!-- Node9&#45;&gt;Node10 -->
<g id="edge22" class="edge"><title>Node9&#45;&gt;Node10</title>
<path fill="none" stroke="midnightblue" d="M561.673,-116.362C573.514,-107.777 590.385,-95.5459 604.016,-85.6636"/>
<polygon fill="midnightblue" stroke="midnightblue" points="606.378,-88.274 612.42,-79.5707 602.269,-82.6067 606.378,-88.274"/>
</g>
<!-- Node11 -->
<g id="node23" class="node"><title>Node11</title>
<polygon fill="white" stroke="#bfbfbf" points="667.5,-58.5 667.5,-79.5 710.5,-79.5 710.5,-58.5 667.5,-58.5"/>
<text text-anchor="middle" x="689" y="-66.5" font-family="Helvetica,sans-Serif" font-size="10.00">cstdio</text>
</g>
<!-- Node9&#45;&gt;Node11 -->
<g id="edge24" class="edge"><title>Node9&#45;&gt;Node11</title>
<path fill="none" stroke="midnightblue" d="M572.715,-116.497C596.563,-106.756 632.11,-92.2366 657.62,-81.8171"/>
<polygon fill="midnightblue" stroke="midnightblue" points="659.264,-84.9267 667.198,-77.9052 656.617,-78.4464 659.264,-84.9267"/>
</g>
<!-- Node12 -->
<g id="node25" class="node"><title>Node12</title>
<polygon fill="white" stroke="#bfbfbf" points="727.5,-58.5 727.5,-79.5 772.5,-79.5 772.5,-58.5 727.5,-58.5"/>
<text text-anchor="middle" x="750" y="-66.5" font-family="Helvetica,sans-Serif" font-size="10.00">cstdlib</text>
</g>
<!-- Node9&#45;&gt;Node12 -->
<g id="edge26" class="edge"><title>Node9&#45;&gt;Node12</title>
<path fill="none" stroke="midnightblue" d="M588.258,-116.645C621.138,-108.187 668.525,-95.5408 717.826,-80.2371"/>
<polygon fill="midnightblue" stroke="midnightblue" points="718.881,-83.5742 727.378,-77.2454 716.789,-76.8941 718.881,-83.5742"/>
</g>
<!-- Node13 -->
<g id="node27" class="node"><title>Node13</title>
<polygon fill="white" stroke="#bfbfbf" points="790,-58.5 790,-79.5 840,-79.5 840,-58.5 790,-58.5"/>
<text text-anchor="middle" x="815" y="-66.5" font-family="Helvetica,sans-Serif" font-size="10.00">fstream</text>
</g>
<!-- Node9&#45;&gt;Node13 -->
<g id="edge28" class="edge"><title>Node9&#45;&gt;Node13</title>
<path fill="none" stroke="midnightblue" d="M588.036,-119.346C641.116,-109.351 731.634,-91.9659 779.927,-80.0286"/>
<polygon fill="midnightblue" stroke="midnightblue" points="781.022,-83.3613 789.844,-77.494 779.289,-76.5793 781.022,-83.3613"/>
</g>
<!-- Node14 -->
<g id="node29" class="node"><title>Node14</title>
<polygon fill="white" stroke="#bfbfbf" points="858,-58.5 858,-79.5 912,-79.5 912,-58.5 858,-58.5"/>
<text text-anchor="middle" x="885" y="-66.5" font-family="Helvetica,sans-Serif" font-size="10.00">iostream</text>
</g>
<!-- Node9&#45;&gt;Node14 -->
<g id="edge30" class="edge"><title>Node9&#45;&gt;Node14</title>
<path fill="none" stroke="midnightblue" d="M588.245,-119.912C596.127,-118.588 604.316,-117.234 612,-116 714.01,-99.622 743.351,-103.375 847.965,-79.9874"/>
<polygon fill="midnightblue" stroke="midnightblue" points="849.008,-83.3398 857.987,-77.7162 847.461,-76.5129 849.008,-83.3398"/>
</g>
<!-- Node15 -->
<g id="node31" class="node"><title>Node15</title>
<polygon fill="white" stroke="#bfbfbf" points="49.5,-58.5 49.5,-79.5 96.5,-79.5 96.5,-58.5 49.5,-58.5"/>
<text text-anchor="middle" x="73" y="-66.5" font-family="Helvetica,sans-Serif" font-size="10.00">iterator</text>
</g>
<!-- Node9&#45;&gt;Node15 -->
<g id="edge32" class="edge"><title>Node9&#45;&gt;Node15</title>
<path fill="none" stroke="midnightblue" d="M505.98,-125.716C429.013,-122.645 257.771,-112.685 106.527,-79.9627"/>
<polygon fill="midnightblue" stroke="midnightblue" points="107.114,-76.5081 96.5951,-77.7742 105.608,-83.3442 107.114,-76.5081"/>
</g>
<!-- Node16 -->
<g id="node33" class="node"><title>Node16</title>
<polygon fill="white" stroke="#bfbfbf" points="114,-58.5 114,-79.5 166,-79.5 166,-58.5 114,-58.5"/>
<text text-anchor="middle" x="140" y="-66.5" font-family="Helvetica,sans-Serif" font-size="10.00">memory</text>
</g>
<!-- Node9&#45;&gt;Node16 -->
<g id="edge34" class="edge"><title>Node9&#45;&gt;Node16</title>
<path fill="none" stroke="midnightblue" d="M505.859,-124.218C438.654,-119.152 301.109,-106.598 176.344,-79.9923"/>
<polygon fill="midnightblue" stroke="midnightblue" points="176.752,-76.4995 166.237,-77.7997 175.268,-83.3404 176.752,-76.4995"/>
</g>
<!-- Node17 -->
<g id="node35" class="node"><title>Node17</title>
<polygon fill="white" stroke="#bfbfbf" points="184,-58.5 184,-79.5 236,-79.5 236,-58.5 184,-58.5"/>
<text text-anchor="middle" x="210" y="-66.5" font-family="Helvetica,sans-Serif" font-size="10.00">sstream</text>
</g>
<!-- Node9&#45;&gt;Node17 -->
<g id="edge36" class="edge"><title>Node9&#45;&gt;Node17</title>
<path fill="none" stroke="midnightblue" d="M505.592,-122.552C448.938,-116.03 344.016,-102.398 246.021,-79.9851"/>
<polygon fill="midnightblue" stroke="midnightblue" points="246.789,-76.5704 236.256,-77.7169 245.205,-83.3889 246.789,-76.5704"/>
</g>
<!-- Node18 -->
<g id="node37" class="node"><title>Node18</title>
<polygon fill="white" stroke="#bfbfbf" points="253.5,-58.5 253.5,-79.5 294.5,-79.5 294.5,-58.5 253.5,-58.5"/>
<text text-anchor="middle" x="274" y="-66.5" font-family="Helvetica,sans-Serif" font-size="10.00">string</text>
</g>
<!-- Node9&#45;&gt;Node18 -->
<g id="edge38" class="edge"><title>Node9&#45;&gt;Node18</title>
<path fill="none" stroke="midnightblue" d="M505.914,-121.299C459.015,-114.306 379.96,-101.043 304.433,-80.0969"/>
<polygon fill="midnightblue" stroke="midnightblue" points="305.34,-76.716 294.765,-77.367 303.438,-83.4526 305.34,-76.716"/>
</g>
<!-- Node19 -->
<g id="node40" class="node"><title>Node19</title>
<polygon fill="white" stroke="#bfbfbf" points="312,-58.5 312,-79.5 372,-79.5 372,-58.5 312,-58.5"/>
<text text-anchor="middle" x="342" y="-66.5" font-family="Helvetica,sans-Serif" font-size="10.00">sys/stat.h</text>
</g>
<!-- Node9&#45;&gt;Node19 -->
<g id="edge42" class="edge"><title>Node9&#45;&gt;Node19</title>
<path fill="none" stroke="midnightblue" d="M509.876,-116.497C473.807,-106.292 419.2,-90.842 382.139,-80.3565"/>
<polygon fill="midnightblue" stroke="midnightblue" points="382.756,-76.8938 372.181,-77.5391 380.851,-83.6294 382.756,-76.8938"/>
</g>
<!-- Node20 -->
<g id="node43" class="node"><title>Node20</title>
<polygon fill="white" stroke="#bfbfbf" points="389.5,-58.5 389.5,-79.5 464.5,-79.5 464.5,-58.5 389.5,-58.5"/>
<text text-anchor="middle" x="427" y="-66.5" font-family="Helvetica,sans-Serif" font-size="10.00">mm_malloc.h</text>
</g>
<!-- Node9&#45;&gt;Node20 -->
<g id="edge46" class="edge"><title>Node9&#45;&gt;Node20</title>
<path fill="none" stroke="midnightblue" d="M525.269,-116.497C506.526,-107.438 479.233,-94.2462 458.164,-84.0628"/>
<polygon fill="midnightblue" stroke="midnightblue" points="459.502,-80.8217 448.975,-79.6212 456.455,-87.1242 459.502,-80.8217"/>
</g>
<!-- Node21 -->
<g id="node45" class="node"><title>Node21</title>
<a xlink:href="../../da/d69/optionparser_8h.html" target="_top" xlink:title="This is the only file required to use The Lean Mean C++ Option Parser. Just #include it and you&#39;re se...">
<polygon fill="white" stroke="black" points="482,-58.5 482,-79.5 586,-79.5 586,-58.5 482,-58.5"/>
<text text-anchor="middle" x="534" y="-66.5" font-family="Helvetica,sans-Serif" font-size="10.00">blond/optionparser.h</text>
</a>
</g>
<!-- Node9&#45;&gt;Node21 -->
<g id="edge48" class="edge"><title>Node9&#45;&gt;Node21</title>
<path fill="none" stroke="midnightblue" d="M544.616,-116.362C542.93,-108.84 540.616,-98.5187 538.579,-89.4308"/>
<polygon fill="midnightblue" stroke="midnightblue" points="541.972,-88.563 536.369,-79.5707 535.141,-90.0941 541.972,-88.563"/>
</g>
<!-- Node22&#45;&gt;Node2 -->
<g id="edge102" class="edge"><title>Node22&#45;&gt;Node2</title>
<path fill="none" stroke="midnightblue" d="M792.513,-304.922C817.745,-294.541 849.621,-281.428 873.646,-271.544"/>
<polygon fill="midnightblue" stroke="midnightblue" points="875.176,-274.7 883.092,-267.658 872.512,-268.226 875.176,-274.7"/>
</g>
<!-- Node22&#45;&gt;Node7 -->
<g id="edge104" class="edge"><title>Node22&#45;&gt;Node7</title>
<path fill="none" stroke="midnightblue" d="M755.868,-339.317C758.249,-361.541 758.371,-400.071 756.233,-423.959"/>
<polygon fill="midnightblue" stroke="midnightblue" points="752.734,-423.745 755.047,-434.085 759.686,-424.56 752.734,-423.745"/>
</g>
<!-- Node22&#45;&gt;Node8 -->
<g id="edge66" class="edge"><title>Node22&#45;&gt;Node8</title>
<path fill="none" stroke="midnightblue" d="M739.101,-304.817C732.635,-294.59 725.135,-281.09 721,-268 716.047,-252.323 714.015,-234.014 713.236,-219.296"/>
<polygon fill="midnightblue" stroke="midnightblue" points="716.734,-219.166 712.867,-209.302 709.739,-219.425 716.734,-219.166"/>
</g>
<!-- Node22&#45;&gt;Node23 -->
<g id="edge54" class="edge"><title>Node22&#45;&gt;Node23</title>
<path fill="none" stroke="midnightblue" d="M754.435,-304.922C758.414,-296.12 764.309,-285.354 770.109,-276.258"/>
<polygon fill="midnightblue" stroke="midnightblue" points="773.092,-278.094 775.803,-267.852 767.297,-274.169 773.092,-278.094"/>
</g>
<!-- Node22&#45;&gt;Node24 -->
<g id="edge68" class="edge"><title>Node22&#45;&gt;Node24</title>
<path fill="none" stroke="midnightblue" d="M810.299,-313.098C889.756,-301.171 1030.5,-280.042 1114.74,-267.397"/>
<polygon fill="midnightblue" stroke="midnightblue" points="1115.35,-270.844 1124.72,-265.898 1114.32,-263.922 1115.35,-270.844"/>
</g>
<!-- Node23&#45;&gt;Node3 -->
<g id="edge58" class="edge"><title>Node23&#45;&gt;Node3</title>
<path fill="none" stroke="midnightblue" d="M798.099,-246.354C830.441,-215.332 924.83,-124.796 964.79,-86.4663"/>
<polygon fill="midnightblue" stroke="midnightblue" points="967.228,-88.9778 972.022,-79.5296 962.383,-83.926 967.228,-88.9778"/>
</g>
<!-- Node23&#45;&gt;Node7 -->
<g id="edge56" class="edge"><title>Node23&#45;&gt;Node7</title>
<path fill="none" stroke="midnightblue" d="M804.245,-267.582C813.675,-276.511 823.698,-290.038 828,-304 832.711,-319.291 832.535,-324.656 828,-340 817.893,-374.2 792.775,-407.725 773.686,-427.372"/>
<polygon fill="midnightblue" stroke="midnightblue" points="771.165,-424.942 766.452,-434.431 776.054,-429.952 771.165,-424.942"/>
</g>
<!-- Node23&#45;&gt;Node8 -->
<g id="edge62" class="edge"><title>Node23&#45;&gt;Node8</title>
<path fill="none" stroke="midnightblue" d="M774.78,-246.267C765.352,-237.984 751.949,-226.212 740.036,-215.748"/>
<polygon fill="midnightblue" stroke="midnightblue" points="742.302,-213.08 732.479,-209.11 737.682,-218.339 742.302,-213.08"/>
</g>
<!-- Node23&#45;&gt;Node9 -->
<g id="edge60" class="edge"><title>Node23&#45;&gt;Node9</title>
<path fill="none" stroke="midnightblue" d="M789.885,-246.299C793.884,-228.84 798.767,-194.16 781,-174 757.433,-147.258 659.854,-135.232 598.388,-130.221"/>
<polygon fill="midnightblue" stroke="midnightblue" points="598.346,-126.707 588.104,-129.42 597.802,-133.686 598.346,-126.707"/>
</g>
<!-- Node23&#45;&gt;Node22 -->
<g id="edge64" class="edge"><title>Node23&#45;&gt;Node22</title>
<path fill="none" stroke="midnightblue" d="M786.177,-267.852C783.233,-275.59 777.763,-286.33 771.907,-296.206"/>
<polygon fill="midnightblue" stroke="midnightblue" points="768.794,-294.583 766.482,-304.922 774.737,-298.281 768.794,-294.583"/>
</g>
<!-- Node24&#45;&gt;Node3 -->
<g id="edge72" class="edge"><title>Node24&#45;&gt;Node3</title>
<path fill="none" stroke="midnightblue" d="M1124.65,-248.985C1096.68,-242.532 1064.58,-230.909 1042,-210 1006.63,-177.24 991.746,-119.959 986.086,-89.4645"/>
<polygon fill="midnightblue" stroke="midnightblue" points="989.525,-88.8081 984.398,-79.5365 982.624,-89.9818 989.525,-88.8081"/>
</g>
<!-- Node24&#45;&gt;Node9 -->
<g id="edge90" class="edge"><title>Node24&#45;&gt;Node9</title>
<path fill="none" stroke="midnightblue" d="M1137.52,-246.449C1065.55,-230.22 922.736,-198.448 801,-174 730.926,-159.927 649.657,-145.161 598.292,-136.018"/>
<polygon fill="midnightblue" stroke="midnightblue" points="598.888,-132.569 588.43,-134.267 597.663,-139.461 598.888,-132.569"/>
</g>
<!-- Node25 -->
<g id="node60" class="node"><title>Node25</title>
<polygon fill="white" stroke="#bfbfbf" points="1338,-181.5 1338,-202.5 1394,-202.5 1394,-181.5 1338,-181.5"/>
<text text-anchor="middle" x="1366" y="-189.5" font-family="Helvetica,sans-Serif" font-size="10.00">algorithm</text>
</g>
<!-- Node24&#45;&gt;Node25 -->
<g id="edge70" class="edge"><title>Node24&#45;&gt;Node25</title>
<path fill="none" stroke="midnightblue" d="M1221.46,-246.424C1251.04,-237.699 1293.16,-224.443 1329,-210 1331.38,-209.042 1333.81,-207.999 1336.25,-206.914"/>
<polygon fill="midnightblue" stroke="midnightblue" points="1337.9,-210.005 1345.49,-202.608 1334.94,-203.66 1337.9,-210.005"/>
</g>
<!-- Node26 -->
<g id="node63" class="node"><title>Node26</title>
<a xlink:href="../../d8/dcd/exp_8h.html" target="_top" xlink:title="blond/exp.h">
<polygon fill="white" stroke="black" points="1067.5,-181.5 1067.5,-202.5 1134.5,-202.5 1134.5,-181.5 1067.5,-181.5"/>
<text text-anchor="middle" x="1101" y="-189.5" font-family="Helvetica,sans-Serif" font-size="10.00">blond/exp.h</text>
</a>
</g>
<!-- Node24&#45;&gt;Node26 -->
<g id="edge74" class="edge"><title>Node24&#45;&gt;Node26</title>
<path fill="none" stroke="midnightblue" d="M1170.29,-246.267C1157.36,-236.139 1137.76,-220.792 1122.71,-209"/>
<polygon fill="midnightblue" stroke="midnightblue" points="1124.48,-205.944 1114.45,-202.534 1120.17,-211.455 1124.48,-205.944"/>
</g>
<!-- Node28 -->
<g id="node67" class="node"><title>Node28</title>
<polygon fill="white" stroke="#bfbfbf" points="1203,-0.5 1203,-21.5 1247,-21.5 1247,-0.5 1203,-0.5"/>
<text text-anchor="middle" x="1225" y="-8.5" font-family="Helvetica,sans-Serif" font-size="10.00">cmath</text>
</g>
<!-- Node24&#45;&gt;Node28 -->
<g id="edge92" class="edge"><title>Node24&#45;&gt;Node28</title>
<path fill="none" stroke="midnightblue" d="M1197.53,-246.267C1207.24,-237.646 1219.53,-224.6 1225,-210 1247.97,-148.727 1236.95,-69.1881 1229.66,-31.9534"/>
<polygon fill="midnightblue" stroke="midnightblue" points="1233.02,-30.9044 1227.56,-21.823 1226.17,-32.3253 1233.02,-30.9044"/>
</g>
<!-- Node29 -->
<g id="node69" class="node"><title>Node29</title>
<polygon fill="white" stroke="#bfbfbf" points="1030,-116.5 1030,-137.5 1070,-137.5 1070,-116.5 1030,-116.5"/>
<text text-anchor="middle" x="1050" y="-124.5" font-family="Helvetica,sans-Serif" font-size="10.00">limits</text>
</g>
<!-- Node24&#45;&gt;Node29 -->
<g id="edge96" class="edge"><title>Node24&#45;&gt;Node29</title>
<path fill="none" stroke="midnightblue" d="M1124.95,-248.595C1100.83,-242.081 1074.91,-230.52 1059,-210 1045.33,-192.369 1044.84,-165.933 1046.63,-147.655"/>
<polygon fill="midnightblue" stroke="midnightblue" points="1050.1,-148.085 1047.9,-137.722 1043.16,-147.197 1050.1,-148.085"/>
</g>
<!-- Node30 -->
<g id="node71" class="node"><title>Node30</title>
<a xlink:href="../../d1/d3d/sin_8h.html" target="_top" xlink:title="blond/sin.h">
<polygon fill="white" stroke="black" points="1152,-181.5 1152,-202.5 1216,-202.5 1216,-181.5 1152,-181.5"/>
<text text-anchor="middle" x="1184" y="-189.5" font-family="Helvetica,sans-Serif" font-size="10.00">blond/sin.h</text>
</a>
</g>
<!-- Node24&#45;&gt;Node30 -->
<g id="edge82" class="edge"><title>Node24&#45;&gt;Node30</title>
<path fill="none" stroke="midnightblue" d="M1184,-246.267C1184,-237.18 1184,-223.892 1184,-212.74"/>
<polygon fill="midnightblue" stroke="midnightblue" points="1187.5,-212.534 1184,-202.534 1180.5,-212.534 1187.5,-212.534"/>
</g>
<!-- Node24&#45;&gt;Node32 -->
<g id="edge94" class="edge"><title>Node24&#45;&gt;Node32</title>
<path fill="none" stroke="midnightblue" d="M1202.49,-246.267C1220.6,-235.76 1248.38,-219.637 1268.96,-207.692"/>
<polygon fill="midnightblue" stroke="midnightblue" points="1270.96,-210.58 1277.85,-202.534 1267.44,-204.526 1270.96,-210.58"/>
</g>
<!-- Node33 -->
<g id="node82" class="node"><title>Node33</title>
<polygon fill="white" stroke="#bfbfbf" points="1411.5,-181.5 1411.5,-202.5 1460.5,-202.5 1460.5,-181.5 1411.5,-181.5"/>
<text text-anchor="middle" x="1436" y="-189.5" font-family="Helvetica,sans-Serif" font-size="10.00">cassert</text>
</g>
<!-- Node24&#45;&gt;Node33 -->
<g id="edge98" class="edge"><title>Node24&#45;&gt;Node33</title>
<path fill="none" stroke="midnightblue" d="M1243.4,-248.996C1288.21,-241.833 1350.68,-229.416 1403,-210 1405.14,-209.207 1407.31,-208.295 1409.46,-207.311"/>
<polygon fill="midnightblue" stroke="midnightblue" points="1411.28,-210.314 1418.63,-202.687 1408.13,-204.063 1411.28,-210.314"/>
</g>
<!-- Node34 -->
<g id="node84" class="node"><title>Node34</title>
<a xlink:href="../../d1/db0/openmp_8h.html" target="_top" xlink:title="blond/openmp.h">
<polygon fill="white" stroke="black" points="1478,-181.5 1478,-202.5 1564,-202.5 1564,-181.5 1478,-181.5"/>
<text text-anchor="middle" x="1521" y="-189.5" font-family="Helvetica,sans-Serif" font-size="10.00">blond/openmp.h</text>
</a>
</g>
<!-- Node24&#45;&gt;Node34 -->
<g id="edge100" class="edge"><title>Node24&#45;&gt;Node34</title>
<path fill="none" stroke="midnightblue" d="M1243,-250.242C1301.06,-242.898 1391.95,-229.537 1469,-210 1473.78,-208.787 1478.75,-207.331 1483.64,-205.779"/>
<polygon fill="midnightblue" stroke="midnightblue" points="1485.09,-208.986 1493.47,-202.505 1482.87,-202.345 1485.09,-208.986"/>
</g>
<!-- Node27 -->
<g id="node65" class="node"><title>Node27</title>
<a xlink:href="../../df/de1/vdtcore__common_8h.html" target="_top" xlink:title="vdtcore_common.h">
<polygon fill="white" stroke="black" points="1078,-58.5 1078,-79.5 1178,-79.5 1178,-58.5 1078,-58.5"/>
<text text-anchor="middle" x="1128" y="-66.5" font-family="Helvetica,sans-Serif" font-size="10.00">vdtcore_common.h</text>
</a>
</g>
<!-- Node26&#45;&gt;Node27 -->
<g id="edge76" class="edge"><title>Node26&#45;&gt;Node27</title>
<path fill="none" stroke="midnightblue" d="M1103.4,-181.085C1107.89,-160.609 1117.65,-116.133 1123.44,-89.778"/>
<polygon fill="midnightblue" stroke="midnightblue" points="1126.92,-90.2332 1125.65,-79.7153 1120.09,-88.7323 1126.92,-90.2332"/>
</g>
<!-- Node26&#45;&gt;Node29 -->
<g id="edge80" class="edge"><title>Node26&#45;&gt;Node29</title>
<path fill="none" stroke="midnightblue" d="M1092.58,-181.267C1085,-171.612 1073.71,-157.215 1064.65,-145.675"/>
<polygon fill="midnightblue" stroke="midnightblue" points="1067.19,-143.241 1058.26,-137.534 1061.68,-147.562 1067.19,-143.241"/>
</g>
<!-- Node27&#45;&gt;Node28 -->
<g id="edge78" class="edge"><title>Node27&#45;&gt;Node28</title>
<path fill="none" stroke="midnightblue" d="M1145.79,-58.3619C1160.56,-49.532 1181.78,-36.844 1198.54,-26.8224"/>
<polygon fill="midnightblue" stroke="midnightblue" points="1200.53,-29.7066 1207.32,-21.5707 1196.94,-23.6987 1200.53,-29.7066"/>
</g>
<!-- Node31 -->
<g id="node73" class="node"><title>Node31</title>
<a xlink:href="../../dc/dfa/sincos_8h.html" target="_top" xlink:title="sincos.h">
<polygon fill="white" stroke="black" points="1163.5,-116.5 1163.5,-137.5 1216.5,-137.5 1216.5,-116.5 1163.5,-116.5"/>
<text text-anchor="middle" x="1190" y="-124.5" font-family="Helvetica,sans-Serif" font-size="10.00">sincos.h</text>
</a>
</g>
<!-- Node30&#45;&gt;Node31 -->
<g id="edge84" class="edge"><title>Node30&#45;&gt;Node31</title>
<path fill="none" stroke="midnightblue" d="M1184.99,-181.267C1185.83,-172.18 1187.06,-158.892 1188.09,-147.74"/>
<polygon fill="midnightblue" stroke="midnightblue" points="1191.59,-147.813 1189.03,-137.534 1184.62,-147.17 1191.59,-147.813"/>
</g>
<!-- Node31&#45;&gt;Node27 -->
<g id="edge86" class="edge"><title>Node31&#45;&gt;Node27</title>
<path fill="none" stroke="midnightblue" d="M1178.63,-116.362C1169.71,-108.023 1157.12,-96.2418 1146.72,-86.5162"/>
<polygon fill="midnightblue" stroke="midnightblue" points="1148.99,-83.8463 1139.3,-79.5707 1144.21,-88.9582 1148.99,-83.8463"/>
</g>
<!-- Node31&#45;&gt;Node28 -->
<g id="edge88" class="edge"><title>Node31&#45;&gt;Node28</title>
<path fill="none" stroke="midnightblue" d="M1193.23,-116.295C1199.04,-97.0451 1211.34,-56.2889 1218.81,-31.5091"/>
<polygon fill="midnightblue" stroke="midnightblue" points="1222.24,-32.264 1221.78,-21.6792 1215.54,-30.2419 1222.24,-32.264"/>
</g>
<!-- Node35&#45;&gt;Node3 -->
<g id="edge110" class="edge"><title>Node35&#45;&gt;Node3</title>
<path fill="none" stroke="midnightblue" d="M588.112,-376.219C593.937,-366.956 602.005,-353.065 607,-340 620.514,-304.652 626,-294.843 626,-257 626,-257 626,-257 626,-192 626,-180.368 635.203,-180.272 645,-174 703.456,-136.577 723.893,-137.153 790,-116 833.267,-102.155 883.109,-90.114 921.303,-81.686"/>
<polygon fill="midnightblue" stroke="midnightblue" points="922.226,-85.0668 931.25,-79.5144 920.733,-78.2279 922.226,-85.0668"/>
</g>
<!-- Node35&#45;&gt;Node9 -->
<g id="edge112" class="edge"><title>Node35&#45;&gt;Node9</title>
<path fill="none" stroke="midnightblue" d="M573.247,-376.43C567.032,-367.296 558.75,-353.475 555,-340 536.038,-271.86 540.931,-186.736 544.628,-147.972"/>
<polygon fill="midnightblue" stroke="midnightblue" points="548.122,-148.214 545.664,-137.909 541.158,-147.498 548.122,-148.214"/>
</g>
<!-- Node35&#45;&gt;Node22 -->
<g id="edge114" class="edge"><title>Node35&#45;&gt;Node22</title>
<path fill="none" stroke="midnightblue" d="M608.692,-376.412C632.445,-367.33 667.373,-353.975 696.681,-342.769"/>
<polygon fill="midnightblue" stroke="midnightblue" points="698.29,-345.901 706.38,-339.06 695.79,-339.363 698.29,-345.901"/>
</g>
<!-- Node36 -->
<g id="node94" class="node"><title>Node36</title>
<polygon fill="white" stroke="#bfbfbf" points="563.5,-311.5 563.5,-332.5 598.5,-332.5 598.5,-311.5 563.5,-311.5"/>
<text text-anchor="middle" x="581" y="-319.5" font-family="Helvetica,sans-Serif" font-size="10.00">map</text>
</g>
<!-- Node35&#45;&gt;Node36 -->
<g id="edge116" class="edge"><title>Node35&#45;&gt;Node36</title>
<path fill="none" stroke="midnightblue" d="M581,-376.267C581,-367.18 581,-353.892 581,-342.74"/>
<polygon fill="midnightblue" stroke="midnightblue" points="584.5,-342.534 581,-332.534 577.5,-342.534 584.5,-342.534"/>
</g>
<!-- Node37&#45;&gt;Node3 -->
<g id="edge126" class="edge"><title>Node37&#45;&gt;Node3</title>
<path fill="none" stroke="midnightblue" d="M1596.7,-246.485C1603.72,-228.981 1614.28,-193.837 1596,-174 1562.68,-137.85 1202.85,-149.279 1155,-138 1103.13,-125.773 1046.37,-100.479 1012.77,-84.1486"/>
<polygon fill="midnightblue" stroke="midnightblue" points="1014.04,-80.8731 1003.52,-79.5956 1010.94,-87.1531 1014.04,-80.8731"/>
</g>
<!-- Node37&#45;&gt;Node9 -->
<g id="edge128" class="edge"><title>Node37&#45;&gt;Node9</title>
<path fill="none" stroke="midnightblue" d="M1593.21,-246.313C1594.58,-228.226 1594.33,-191.813 1573,-174 1554.1,-158.22 803.818,-134.676 598.483,-128.518"/>
<polygon fill="midnightblue" stroke="midnightblue" points="598.374,-125.013 588.274,-128.212 598.165,-132.01 598.374,-125.013"/>
</g>
<!-- Node37&#45;&gt;Node25 -->
<g id="edge124" class="edge"><title>Node37&#45;&gt;Node25</title>
<path fill="none" stroke="midnightblue" d="M1561.96,-251.55C1524.19,-244.241 1457.67,-229.846 1403,-210 1400.44,-209.072 1397.83,-208.022 1395.23,-206.907"/>
<polygon fill="midnightblue" stroke="midnightblue" points="1396.57,-203.672 1386.03,-202.685 1393.66,-210.035 1396.57,-203.672"/>
</g>
<!-- Node37&#45;&gt;Node28 -->
<g id="edge132" class="edge"><title>Node37&#45;&gt;Node28</title>
<path fill="none" stroke="midnightblue" d="M1600.05,-246.431C1611.7,-229.76 1630.25,-196.901 1615,-174 1532.45,-50.0326 1335.67,-20.1773 1257.66,-13.1274"/>
<polygon fill="midnightblue" stroke="midnightblue" points="1257.72,-9.62045 1247.47,-12.2765 1257.14,-16.5962 1257.72,-9.62045"/>
</g>
<!-- Node37&#45;&gt;Node33 -->
<g id="edge130" class="edge"><title>Node37&#45;&gt;Node33</title>
<path fill="none" stroke="midnightblue" d="M1561.96,-246.797C1536.77,-237.939 1500.03,-224.314 1469,-210 1467.18,-209.159 1465.32,-208.261 1463.45,-207.331"/>
<polygon fill="midnightblue" stroke="midnightblue" points="1464.76,-204.065 1454.28,-202.536 1461.52,-210.269 1464.76,-204.065"/>
</g>
<!-- Node37&#45;&gt;Node34 -->
<g id="edge138" class="edge"><title>Node37&#45;&gt;Node34</title>
<path fill="none" stroke="midnightblue" d="M1580.28,-246.267C1569.32,-236.233 1552.76,-221.078 1539.93,-209.331"/>
<polygon fill="midnightblue" stroke="midnightblue" points="1542.25,-206.705 1532.51,-202.534 1537.52,-211.868 1542.25,-206.705"/>
</g>
<!-- Node38 -->
<g id="node105" class="node"><title>Node38</title>
<polygon fill="white" stroke="#bfbfbf" points="1771.5,-181.5 1771.5,-202.5 1818.5,-202.5 1818.5,-181.5 1771.5,-181.5"/>
<text text-anchor="middle" x="1795" y="-189.5" font-family="Helvetica,sans-Serif" font-size="10.00">fftw3.h</text>
</g>
<!-- Node37&#45;&gt;Node38 -->
<g id="edge134" class="edge"><title>Node37&#45;&gt;Node38</title>
<path fill="none" stroke="midnightblue" d="M1622.08,-251.068C1656.82,-243.687 1715.31,-229.621 1763,-210 1765.06,-209.153 1767.15,-208.201 1769.23,-207.19"/>
<polygon fill="midnightblue" stroke="midnightblue" points="1770.9,-210.269 1778.11,-202.511 1767.64,-204.076 1770.9,-210.269"/>
</g>
<!-- Node39 -->
<g id="node107" class="node"><title>Node39</title>
<polygon fill="white" stroke="#bfbfbf" points="1695.5,-181.5 1695.5,-202.5 1754.5,-202.5 1754.5,-181.5 1695.5,-181.5"/>
<text text-anchor="middle" x="1725" y="-189.5" font-family="Helvetica,sans-Serif" font-size="10.00">functional</text>
</g>
<!-- Node37&#45;&gt;Node39 -->
<g id="edge136" class="edge"><title>Node37&#45;&gt;Node39</title>
<path fill="none" stroke="midnightblue" d="M1613.66,-246.412C1635.5,-235.741 1669.4,-219.172 1694.06,-207.12"/>
<polygon fill="midnightblue" stroke="midnightblue" points="1695.9,-210.119 1703.34,-202.584 1692.82,-203.83 1695.9,-210.119"/>
</g>
</g>
</svg>
