<?xml version="1.0" encoding="UTF-8" standalone="no"?>
<!DOCTYPE svg PUBLIC "-//W3C//DTD SVG 1.1//EN"
 "http://www.w3.org/Graphics/SVG/1.1/DTD/svg11.dtd">
<!-- Generated by graphviz version 2.26.3 (20100126.1600)
 -->
<!-- Title: PhaseNoise.cpp Pages: 1 -->
<!--zoomable 580 -->
<svg id="main" version="1.1" xmlns="http://www.w3.org/2000/svg" xmlns:xlink="http://www.w3.org/1999/xlink" xml:space="preserve" onload="init(evt)">
        <defs>
                <circle id="rim" cx="0" cy="0" r="7"/>
                <circle id="rim2" cx="0" cy="0" r="3.5"/>
                <g id="zoomPlus">
                        <use xlink:href="#rim" fill="#404040">
                                <set attributeName="fill" to="#808080" begin="zoomplus.mouseover" end="zoomplus.mouseout"/>
                        </use>
                        <path d="M-4,0h8M0,-4v8" fill="none" stroke="white" stroke-width="1.5" pointer-events="none"/>
                </g>
                <g id="zoomMin">
                        <use xlink:href="#rim" fill="#404040">
                                <set attributeName="fill" to="#808080" begin="zoomminus.mouseover" end="zoomminus.mouseout"/>
                        </use>
                        <path d="M-4,0h8" fill="none" stroke="white" stroke-width="1.5" pointer-events="none"/>
                </g>
                <g id="dirArrow">
                        <path fill="none" stroke="white" stroke-width="1.5" d="M0,-3.0v7 M-2.5,-0.5L0,-3.0L2.5,-0.5"/>
                </g>
               <g id="resetDef">
                       <use xlink:href="#rim2" fill="#404040">
                               <set attributeName="fill" to="#808080" begin="reset.mouseover" end="reset.mouseout"/>
                       </use>
               </g>
        </defs>

<script type="text/javascript">
var viewWidth = 1463;
var viewHeight = 580;
var sectionId = 'dynsection-0';
</script>
<script xlink:href="../../svgpan.js"/>
<svg id="graph" class="graph">
<g id="viewport">
<title>PhaseNoise.cpp</title>
<polygon fill="white" stroke="white" points="-4,5 -4,-576 1459.75,-576 1459.75,5 -4,5"/>
<!-- Node1 -->
<g id="node1" class="node"><title>Node1</title>
<polygon fill="#bfbfbf" stroke="black" points="555.5,-550.5 555.5,-571.5 644.5,-571.5 644.5,-550.5 555.5,-550.5"/>
<text text-anchor="middle" x="600" y="-558.5" font-family="Helvetica,sans-Serif" font-size="10.00">PhaseNoise.cpp</text>
</g>
<!-- Node2 -->
<g id="node3" class="node"><title>Node2</title>
<a xlink:href="../../d2/d6f/constants_8h.html" target="_top" xlink:title="blond/constants.h">
<polygon fill="white" stroke="black" points="0,-434.5 0,-455.5 94,-455.5 94,-434.5 0,-434.5"/>
<text text-anchor="middle" x="47" y="-442.5" font-family="Helvetica,sans-Serif" font-size="10.00">blond/constants.h</text>
</a>
</g>
<!-- Node1&#45;&gt;Node2 -->
<g id="edge2" class="edge"><title>Node1&#45;&gt;Node2</title>
<path fill="none" stroke="midnightblue" d="M555.256,-552.039C508.7,-542.682 433.699,-527.514 369,-514 276.169,-494.611 168.449,-471.379 104.109,-457.425"/>
<polygon fill="midnightblue" stroke="midnightblue" points="104.679,-453.967 94.164,-455.267 103.194,-460.808 104.679,-453.967"/>
</g>
<!-- Node6 -->
<g id="node11" class="node"><title>Node6</title>
<a xlink:href="../../d9/dc8/PhaseNoise_8h.html" target="_top" xlink:title="blond/llrf/PhaseNoise.h">
<polygon fill="white" stroke="black" points="378,-492.5 378,-513.5 496,-513.5 496,-492.5 378,-492.5"/>
<text text-anchor="middle" x="437" y="-500.5" font-family="Helvetica,sans-Serif" font-size="10.00">blond/llrf/PhaseNoise.h</text>
</a>
</g>
<!-- Node1&#45;&gt;Node6 -->
<g id="edge10" class="edge"><title>Node1&#45;&gt;Node6</title>
<path fill="none" stroke="midnightblue" d="M570.482,-550.497C544.024,-541.082 505.021,-527.204 476,-516.877"/>
<polygon fill="midnightblue" stroke="midnightblue" points="477.168,-513.578 466.573,-513.523 474.821,-520.173 477.168,-513.578"/>
</g>
<!-- Node24 -->
<g id="node61" class="node"><title>Node24</title>
<a xlink:href="../../d2/de2/math__functions_8h.html" target="_top" xlink:title="blond/math_functions.h">
<polygon fill="white" stroke="black" points="916,-239.5 916,-260.5 1034,-260.5 1034,-239.5 916,-239.5"/>
<text text-anchor="middle" x="975" y="-247.5" font-family="Helvetica,sans-Serif" font-size="10.00">blond/math_functions.h</text>
</a>
</g>
<!-- Node1&#45;&gt;Node24 -->
<g id="edge74" class="edge"><title>Node1&#45;&gt;Node24</title>
<path fill="none" stroke="midnightblue" d="M600,-550.444C600,-530.062 600,-483.868 600,-445 600,-445 600,-445 600,-387 600,-348.6 595.155,-329.349 624,-304 664.803,-268.142 815.732,-256.063 905.852,-252.017"/>
<polygon fill="midnightblue" stroke="midnightblue" points="906.149,-255.508 915.991,-251.584 905.851,-248.514 906.149,-255.508"/>
</g>
<!-- Node34 -->
<g id="node86" class="node"><title>Node34</title>
<a xlink:href="../../d7/d76/fft_8h.html" target="_top" xlink:title="blond/fft.h">
<polygon fill="white" stroke="black" points="1168,-239.5 1168,-260.5 1228,-260.5 1228,-239.5 1168,-239.5"/>
<text text-anchor="middle" x="1198" y="-247.5" font-family="Helvetica,sans-Serif" font-size="10.00">blond/fft.h</text>
</a>
</g>
<!-- Node1&#45;&gt;Node34 -->
<g id="edge104" class="edge"><title>Node1&#45;&gt;Node34</title>
<path fill="none" stroke="midnightblue" d="M606.105,-550.191C616.847,-530.127 638,-485.477 638,-445 638,-445 638,-445 638,-387 638,-333.456 1029.27,-273.704 1157.7,-255.533"/>
<polygon fill="midnightblue" stroke="midnightblue" points="1158.48,-258.958 1167.89,-254.1 1157.5,-252.026 1158.48,-258.958"/>
</g>
<!-- Node37 -->
<g id="node98" class="node"><title>Node37</title>
<polygon fill="white" stroke="#bfbfbf" points="665.5,-492.5 665.5,-513.5 714.5,-513.5 714.5,-492.5 665.5,-492.5"/>
<text text-anchor="middle" x="690" y="-500.5" font-family="Helvetica,sans-Serif" font-size="10.00">random</text>
</g>
<!-- Node1&#45;&gt;Node37 -->
<g id="edge122" class="edge"><title>Node1&#45;&gt;Node37</title>
<path fill="none" stroke="midnightblue" d="M616.507,-550.362C630.082,-541.614 649.533,-529.079 665.015,-519.101"/>
<polygon fill="midnightblue" stroke="midnightblue" points="667.088,-521.93 673.597,-513.571 663.296,-516.046 667.088,-521.93"/>
</g>
<!-- Node3 -->
<g id="node5" class="node"><title>Node3</title>
<a xlink:href="../../d2/d2c/configuration_8h.html" target="_top" xlink:title="blond/configuration.h">
<polygon fill="white" stroke="black" points="75.5,-116.5 75.5,-137.5 182.5,-137.5 182.5,-116.5 75.5,-116.5"/>
<text text-anchor="middle" x="129" y="-124.5" font-family="Helvetica,sans-Serif" font-size="10.00">blond/configuration.h</text>
</a>
</g>
<!-- Node2&#45;&gt;Node3 -->
<g id="edge4" class="edge"><title>Node2&#45;&gt;Node3</title>
<path fill="none" stroke="midnightblue" d="M49.656,-434.218C54.663,-412.916 65,-363.868 65,-322 65,-322 65,-322 65,-250 65,-209.018 93.3057,-168.145 112.268,-145.362"/>
<polygon fill="midnightblue" stroke="midnightblue" points="115.122,-147.412 119,-137.553 109.82,-142.842 115.122,-147.412"/>
</g>
<!-- Node4 -->
<g id="node7" class="node"><title>Node4</title>
<polygon fill="white" stroke="#bfbfbf" points="102.5,-58.5 102.5,-79.5 155.5,-79.5 155.5,-58.5 102.5,-58.5"/>
<text text-anchor="middle" x="129" y="-66.5" font-family="Helvetica,sans-Serif" font-size="10.00">complex</text>
</g>
<!-- Node3&#45;&gt;Node4 -->
<g id="edge6" class="edge"><title>Node3&#45;&gt;Node4</title>
<path fill="none" stroke="midnightblue" d="M129,-116.362C129,-108.922 129,-98.7427 129,-89.7276"/>
<polygon fill="midnightblue" stroke="midnightblue" points="132.5,-89.5706 129,-79.5707 125.5,-89.5707 132.5,-89.5706"/>
</g>
<!-- Node5 -->
<g id="node9" class="node"><title>Node5</title>
<polygon fill="white" stroke="#bfbfbf" points="188,-58.5 188,-79.5 232,-79.5 232,-58.5 188,-58.5"/>
<text text-anchor="middle" x="210" y="-66.5" font-family="Helvetica,sans-Serif" font-size="10.00">vector</text>
</g>
<!-- Node3&#45;&gt;Node5 -->
<g id="edge8" class="edge"><title>Node3&#45;&gt;Node5</title>
<path fill="none" stroke="midnightblue" d="M143.857,-116.362C155.846,-107.777 172.927,-95.5459 186.728,-85.6636"/>
<polygon fill="midnightblue" stroke="midnightblue" points="189.145,-88.2383 195.238,-79.5707 185.069,-82.5469 189.145,-88.2383"/>
</g>
<!-- Node6&#45;&gt;Node3 -->
<g id="edge12" class="edge"><title>Node6&#45;&gt;Node3</title>
<path fill="none" stroke="midnightblue" d="M377.751,-493.621C286.503,-477.48 122,-440.907 122,-387 122,-387 122,-387 122,-250 122,-213.994 125.027,-172.155 127.1,-147.724"/>
<polygon fill="midnightblue" stroke="midnightblue" points="130.608,-147.787 127.997,-137.519 123.635,-147.174 130.608,-147.787"/>
</g>
<!-- Node7 -->
<g id="node14" class="node"><title>Node7</title>
<a xlink:href="../../d5/d87/globals_8h.html" target="_top" xlink:title="blond/globals.h">
<polygon fill="white" stroke="black" points="258,-434.5 258,-455.5 340,-455.5 340,-434.5 258,-434.5"/>
<text text-anchor="middle" x="299" y="-442.5" font-family="Helvetica,sans-Serif" font-size="10.00">blond/globals.h</text>
</a>
</g>
<!-- Node6&#45;&gt;Node7 -->
<g id="edge14" class="edge"><title>Node6&#45;&gt;Node7</title>
<path fill="none" stroke="midnightblue" d="M412.009,-492.497C390.067,-483.275 357.934,-469.769 333.536,-459.515"/>
<polygon fill="midnightblue" stroke="midnightblue" points="334.846,-456.269 324.271,-455.621 332.134,-462.722 334.846,-456.269"/>
</g>
<!-- Node9 -->
<g id="node19" class="node"><title>Node9</title>
<a xlink:href="../../de/df0/utilities_8h.html" target="_top" xlink:title="blond/utilities.h">
<polygon fill="white" stroke="black" points="459,-174.5 459,-195.5 541,-195.5 541,-174.5 459,-174.5"/>
<text text-anchor="middle" x="500" y="-182.5" font-family="Helvetica,sans-Serif" font-size="10.00">blond/utilities.h</text>
</a>
</g>
<!-- Node6&#45;&gt;Node9 -->
<g id="edge72" class="edge"><title>Node6&#45;&gt;Node9</title>
<path fill="none" stroke="midnightblue" d="M447.687,-492.223C465.661,-472.899 500,-430.314 500,-387 500,-387 500,-387 500,-322 500,-280.793 500,-232.614 500,-205.773"/>
<polygon fill="midnightblue" stroke="midnightblue" points="503.5,-205.658 500,-195.658 496.5,-205.658 503.5,-205.658"/>
</g>
<!-- Node8 -->
<g id="node16" class="node"><title>Node8</title>
<a xlink:href="../../d7/d74/Beams_8h.html" target="_top" xlink:title="blond/beams/Beams.h">
<polygon fill="white" stroke="black" points="328,-376.5 328,-397.5 442,-397.5 442,-376.5 328,-376.5"/>
<text text-anchor="middle" x="385" y="-384.5" font-family="Helvetica,sans-Serif" font-size="10.00">blond/beams/Beams.h</text>
</a>
</g>
<!-- Node7&#45;&gt;Node8 -->
<g id="edge16" class="edge"><title>Node7&#45;&gt;Node8</title>
<path fill="none" stroke="midnightblue" d="M314.774,-434.362C327.624,-425.696 345.985,-413.313 360.71,-403.382"/>
<polygon fill="midnightblue" stroke="midnightblue" points="362.993,-406.064 369.326,-397.571 359.079,-400.26 362.993,-406.064"/>
</g>
<!-- Node21 -->
<g id="node45" class="node"><title>Node21</title>
<a xlink:href="../../d5/d34/GeneralParameters_8h.html" target="_top" xlink:title="blond/input_parameters\l/GeneralParameters.h">
<polygon fill="white" stroke="black" points="278,-233 278,-267 396,-267 396,-233 278,-233"/>
<text text-anchor="start" x="286" y="-254" font-family="Helvetica,sans-Serif" font-size="10.00">blond/input_parameters</text>
<text text-anchor="middle" x="337" y="-241" font-family="Helvetica,sans-Serif" font-size="10.00">/GeneralParameters.h</text>
</a>
</g>
<!-- Node7&#45;&gt;Node21 -->
<g id="edge68" class="edge"><title>Node7&#45;&gt;Node21</title>
<path fill="none" stroke="midnightblue" d="M286.585,-434.363C260.078,-410.335 202.598,-350.344 231,-304 239.758,-289.709 253.616,-279.052 268.461,-271.161"/>
<polygon fill="midnightblue" stroke="midnightblue" points="270.348,-274.134 277.794,-266.598 267.273,-267.846 270.348,-274.134"/>
</g>
<!-- Node22 -->
<g id="node50" class="node"><title>Node22</title>
<a xlink:href="../../d6/db7/RfParameters_8h.html" target="_top" xlink:title="blond/input_parameters\l/RfParameters.h">
<polygon fill="white" stroke="black" points="240,-305 240,-339 358,-339 358,-305 240,-305"/>
<text text-anchor="start" x="248" y="-326" font-family="Helvetica,sans-Serif" font-size="10.00">blond/input_parameters</text>
<text text-anchor="middle" x="299" y="-313" font-family="Helvetica,sans-Serif" font-size="10.00">/RfParameters.h</text>
</a>
</g>
<!-- Node7&#45;&gt;Node22 -->
<g id="edge70" class="edge"><title>Node7&#45;&gt;Node22</title>
<path fill="none" stroke="midnightblue" d="M299,-434.085C299,-415.275 299,-376.21 299,-349.547"/>
<polygon fill="midnightblue" stroke="midnightblue" points="302.5,-349.317 299,-339.317 295.5,-349.317 302.5,-349.317"/>
</g>
<!-- Node23 -->
<g id="node54" class="node"><title>Node23</title>
<a xlink:href="../../dc/df2/Slices_8h.html" target="_top" xlink:title="blond/beams/Slices.h">
<polygon fill="white" stroke="black" points="150,-239.5 150,-260.5 260,-260.5 260,-239.5 150,-239.5"/>
<text text-anchor="middle" x="205" y="-247.5" font-family="Helvetica,sans-Serif" font-size="10.00">blond/beams/Slices.h</text>
</a>
</g>
<!-- Node7&#45;&gt;Node23 -->
<g id="edge62" class="edge"><title>Node7&#45;&gt;Node23</title>
<path fill="none" stroke="midnightblue" d="M277.124,-434.421C262.757,-426.371 244.705,-413.96 234,-398 207.747,-358.858 204.075,-301.589 204.209,-271.036"/>
<polygon fill="midnightblue" stroke="midnightblue" points="207.714,-270.794 204.407,-260.728 200.715,-270.659 207.714,-270.794"/>
</g>
<!-- Node8&#45;&gt;Node3 -->
<g id="edge18" class="edge"><title>Node8&#45;&gt;Node3</title>
<path fill="none" stroke="midnightblue" d="M391.184,-376.182C405.96,-348.747 439.597,-275.553 405,-232 361.011,-176.623 314.028,-226.034 250,-196 235.353,-189.13 234.701,-182.602 221,-174 202.031,-162.091 179.678,-150.616 161.755,-141.987"/>
<polygon fill="midnightblue" stroke="midnightblue" points="162.838,-138.627 152.303,-137.501 159.836,-144.951 162.838,-138.627"/>
</g>
<!-- Node8&#45;&gt;Node9 -->
<g id="edge20" class="edge"><title>Node8&#45;&gt;Node9</title>
<path fill="none" stroke="midnightblue" d="M400.707,-376.201C412.316,-367.546 427.813,-354.486 438,-340 453.933,-317.344 480.635,-242.117 493.144,-205.448"/>
<polygon fill="midnightblue" stroke="midnightblue" points="496.518,-206.398 496.41,-195.804 489.887,-204.153 496.518,-206.398"/>
</g>
<!-- Node8&#45;&gt;Node21 -->
<g id="edge48" class="edge"><title>Node8&#45;&gt;Node21</title>
<path fill="none" stroke="midnightblue" d="M383.729,-376.499C381.568,-360.469 376.462,-329.112 367,-304 363.446,-294.566 358.457,-284.78 353.566,-276.172"/>
<polygon fill="midnightblue" stroke="midnightblue" points="356.466,-274.199 348.37,-267.366 350.437,-277.757 356.466,-274.199"/>
</g>
<!-- Node8&#45;&gt;Node22 -->
<g id="edge56" class="edge"><title>Node8&#45;&gt;Node22</title>
<path fill="none" stroke="midnightblue" d="M365.633,-376.267C353.105,-367.906 336.888,-355.988 323.513,-345.449"/>
<polygon fill="midnightblue" stroke="midnightblue" points="325.602,-342.637 315.611,-339.11 321.221,-348.098 325.602,-342.637"/>
</g>
<!-- Node9&#45;&gt;Node3 -->
<g id="edge42" class="edge"><title>Node9&#45;&gt;Node3</title>
<path fill="none" stroke="midnightblue" d="M458.879,-178.571C394.331,-168.48 268.744,-148.847 192.52,-136.93"/>
<polygon fill="midnightblue" stroke="midnightblue" points="192.982,-133.46 182.561,-135.373 191.901,-140.376 192.982,-133.46"/>
</g>
<!-- Node9&#45;&gt;Node5 -->
<g id="edge40" class="edge"><title>Node9&#45;&gt;Node5</title>
<path fill="none" stroke="midnightblue" d="M458.527,-180.016C400.541,-172.482 298.772,-157.032 267,-138 247.02,-126.032 230.896,-104.424 220.963,-88.5675"/>
<polygon fill="midnightblue" stroke="midnightblue" points="223.727,-86.3702 215.598,-79.5755 217.716,-89.9566 223.727,-86.3702"/>
</g>
<!-- Node10 -->
<g id="node21" class="node"><title>Node10</title>
<polygon fill="white" stroke="#bfbfbf" points="1014,-116.5 1014,-137.5 1060,-137.5 1060,-116.5 1014,-116.5"/>
<text text-anchor="middle" x="1037" y="-124.5" font-family="Helvetica,sans-Serif" font-size="10.00">chrono</text>
</g>
<!-- Node9&#45;&gt;Node10 -->
<g id="edge22" class="edge"><title>Node9&#45;&gt;Node10</title>
<path fill="none" stroke="midnightblue" d="M541.255,-182.432C641.997,-175.965 899.345,-158.205 1003.84,-137.756"/>
<polygon fill="midnightblue" stroke="midnightblue" points="1004.68,-141.158 1013.76,-135.705 1003.26,-134.303 1004.68,-141.158"/>
</g>
<!-- Node11 -->
<g id="node23" class="node"><title>Node11</title>
<polygon fill="white" stroke="#bfbfbf" points="275.5,-116.5 275.5,-137.5 318.5,-137.5 318.5,-116.5 275.5,-116.5"/>
<text text-anchor="middle" x="297" y="-124.5" font-family="Helvetica,sans-Serif" font-size="10.00">cstdio</text>
</g>
<!-- Node9&#45;&gt;Node11 -->
<g id="edge24" class="edge"><title>Node9&#45;&gt;Node11</title>
<path fill="none" stroke="midnightblue" d="M458.812,-174.876C425.711,-166.501 377.86,-153.863 328.179,-138.217"/>
<polygon fill="midnightblue" stroke="midnightblue" points="329.144,-134.851 318.553,-135.155 327.022,-141.522 329.144,-134.851"/>
</g>
<!-- Node12 -->
<g id="node25" class="node"><title>Node12</title>
<polygon fill="white" stroke="#bfbfbf" points="335.5,-116.5 335.5,-137.5 380.5,-137.5 380.5,-116.5 335.5,-116.5"/>
<text text-anchor="middle" x="358" y="-124.5" font-family="Helvetica,sans-Serif" font-size="10.00">cstdlib</text>
</g>
<!-- Node9&#45;&gt;Node12 -->
<g id="edge26" class="edge"><title>Node9&#45;&gt;Node12</title>
<path fill="none" stroke="midnightblue" d="M474.285,-174.497C450.719,-164.871 415.729,-150.58 390.29,-140.189"/>
<polygon fill="midnightblue" stroke="midnightblue" points="391.294,-136.818 380.713,-136.277 388.647,-143.298 391.294,-136.818"/>
</g>
<!-- Node13 -->
<g id="node27" class="node"><title>Node13</title>
<polygon fill="white" stroke="#bfbfbf" points="398,-116.5 398,-137.5 448,-137.5 448,-116.5 398,-116.5"/>
<text text-anchor="middle" x="423" y="-124.5" font-family="Helvetica,sans-Serif" font-size="10.00">fstream</text>
</g>
<!-- Node9&#45;&gt;Node13 -->
<g id="edge28" class="edge"><title>Node9&#45;&gt;Node13</title>
<path fill="none" stroke="midnightblue" d="M485.877,-174.362C474.48,-165.777 458.242,-153.546 445.122,-143.664"/>
<polygon fill="midnightblue" stroke="midnightblue" points="447.127,-140.792 437.033,-137.571 442.915,-146.383 447.127,-140.792"/>
</g>
<!-- Node14 -->
<g id="node29" class="node"><title>Node14</title>
<polygon fill="white" stroke="#bfbfbf" points="466,-116.5 466,-137.5 520,-137.5 520,-116.5 466,-116.5"/>
<text text-anchor="middle" x="493" y="-124.5" font-family="Helvetica,sans-Serif" font-size="10.00">iostream</text>
</g>
<!-- Node9&#45;&gt;Node14 -->
<g id="edge30" class="edge"><title>Node9&#45;&gt;Node14</title>
<path fill="none" stroke="midnightblue" d="M498.716,-174.362C497.818,-166.922 496.59,-156.743 495.502,-147.728"/>
<polygon fill="midnightblue" stroke="midnightblue" points="498.949,-147.079 494.276,-137.571 491.999,-147.918 498.949,-147.079"/>
</g>
<!-- Node15 -->
<g id="node31" class="node"><title>Node15</title>
<polygon fill="white" stroke="#bfbfbf" points="537.5,-116.5 537.5,-137.5 584.5,-137.5 584.5,-116.5 537.5,-116.5"/>
<text text-anchor="middle" x="561" y="-124.5" font-family="Helvetica,sans-Serif" font-size="10.00">iterator</text>
</g>
<!-- Node9&#45;&gt;Node15 -->
<g id="edge32" class="edge"><title>Node9&#45;&gt;Node15</title>
<path fill="none" stroke="midnightblue" d="M511.188,-174.362C519.959,-166.023 532.349,-154.242 542.578,-144.516"/>
<polygon fill="midnightblue" stroke="midnightblue" points="545.047,-146.998 549.883,-137.571 540.224,-141.925 545.047,-146.998"/>
</g>
<!-- Node16 -->
<g id="node33" class="node"><title>Node16</title>
<polygon fill="white" stroke="#bfbfbf" points="602,-116.5 602,-137.5 654,-137.5 654,-116.5 602,-116.5"/>
<text text-anchor="middle" x="628" y="-124.5" font-family="Helvetica,sans-Serif" font-size="10.00">memory</text>
</g>
<!-- Node9&#45;&gt;Node16 -->
<g id="edge34" class="edge"><title>Node9&#45;&gt;Node16</title>
<path fill="none" stroke="midnightblue" d="M523.18,-174.497C543.352,-165.356 572.81,-152.008 595.364,-141.788"/>
<polygon fill="midnightblue" stroke="midnightblue" points="596.896,-144.937 604.56,-137.621 594.007,-138.561 596.896,-144.937"/>
</g>
<!-- Node17 -->
<g id="node35" class="node"><title>Node17</title>
<polygon fill="white" stroke="#bfbfbf" points="672,-116.5 672,-137.5 724,-137.5 724,-116.5 672,-116.5"/>
<text text-anchor="middle" x="698" y="-124.5" font-family="Helvetica,sans-Serif" font-size="10.00">sstream</text>
</g>
<!-- Node9&#45;&gt;Node17 -->
<g id="edge36" class="edge"><title>Node9&#45;&gt;Node17</title>
<path fill="none" stroke="midnightblue" d="M537.624,-174.426C568.642,-165.647 614.022,-152.663 662.017,-138.256"/>
<polygon fill="midnightblue" stroke="midnightblue" points="663.081,-141.591 671.647,-135.356 661.063,-134.888 663.081,-141.591"/>
</g>
<!-- Node18 -->
<g id="node37" class="node"><title>Node18</title>
<polygon fill="white" stroke="#bfbfbf" points="741.5,-116.5 741.5,-137.5 782.5,-137.5 782.5,-116.5 741.5,-116.5"/>
<text text-anchor="middle" x="762" y="-124.5" font-family="Helvetica,sans-Serif" font-size="10.00">string</text>
</g>
<!-- Node9&#45;&gt;Node18 -->
<g id="edge38" class="edge"><title>Node9&#45;&gt;Node18</title>
<path fill="none" stroke="midnightblue" d="M541.316,-178.765C586.169,-171.535 659.976,-158.299 731.199,-138.223"/>
<polygon fill="midnightblue" stroke="midnightblue" points="732.582,-141.467 741.229,-135.345 730.651,-134.739 732.582,-141.467"/>
</g>
<!-- Node19 -->
<g id="node41" class="node"><title>Node19</title>
<polygon fill="white" stroke="#bfbfbf" points="799.5,-116.5 799.5,-137.5 874.5,-137.5 874.5,-116.5 799.5,-116.5"/>
<text text-anchor="middle" x="837" y="-124.5" font-family="Helvetica,sans-Serif" font-size="10.00">mm_malloc.h</text>
</g>
<!-- Node9&#45;&gt;Node19 -->
<g id="edge44" class="edge"><title>Node9&#45;&gt;Node19</title>
<path fill="none" stroke="midnightblue" d="M541.136,-179.343C595.732,-171.618 695.324,-156.776 789.427,-138.218"/>
<polygon fill="midnightblue" stroke="midnightblue" points="790.271,-141.619 799.395,-136.234 788.904,-134.754 790.271,-141.619"/>
</g>
<!-- Node20 -->
<g id="node43" class="node"><title>Node20</title>
<a xlink:href="../../da/d69/optionparser_8h.html" target="_top" xlink:title="This is the only file required to use The Lean Mean C++ Option Parser. Just #include it and you&#39;re se...">
<polygon fill="white" stroke="black" points="892,-116.5 892,-137.5 996,-137.5 996,-116.5 892,-116.5"/>
<text text-anchor="middle" x="944" y="-124.5" font-family="Helvetica,sans-Serif" font-size="10.00">blond/optionparser.h</text>
</a>
</g>
<!-- Node9&#45;&gt;Node20 -->
<g id="edge46" class="edge"><title>Node9&#45;&gt;Node20</title>
<path fill="none" stroke="midnightblue" d="M541.196,-180.714C609.689,-173.421 751.531,-157.608 881.645,-138.143"/>
<polygon fill="midnightblue" stroke="midnightblue" points="882.422,-141.566 891.789,-136.615 881.379,-134.644 882.422,-141.566"/>
</g>
<!-- Node21&#45;&gt;Node3 -->
<g id="edge50" class="edge"><title>Node21&#45;&gt;Node3</title>
<path fill="none" stroke="midnightblue" d="M295.531,-232.926C273.192,-223.138 245.478,-210.03 222,-196 195.898,-180.401 168.176,-159.149 149.859,-144.368"/>
<polygon fill="midnightblue" stroke="midnightblue" points="151.632,-141.297 141.671,-137.686 147.205,-146.72 151.632,-141.297"/>
</g>
<!-- Node21&#45;&gt;Node5 -->
<g id="edge54" class="edge"><title>Node21&#45;&gt;Node5</title>
<path fill="none" stroke="midnightblue" d="M318.753,-232.817C297.432,-211.981 262.133,-175.033 239,-138 229.455,-122.719 221.742,-103.749 216.677,-89.5698"/>
<polygon fill="midnightblue" stroke="midnightblue" points="219.883,-88.1283 213.333,-79.8006 213.26,-90.3952 219.883,-88.1283"/>
</g>
<!-- Node21&#45;&gt;Node9 -->
<g id="edge52" class="edge"><title>Node21&#45;&gt;Node9</title>
<path fill="none" stroke="midnightblue" d="M379.826,-232.922C405.973,-222.495 439.034,-209.312 463.857,-199.413"/>
<polygon fill="midnightblue" stroke="midnightblue" points="465.28,-202.614 473.272,-195.658 462.687,-196.111 465.28,-202.614"/>
</g>
<!-- Node22&#45;&gt;Node8 -->
<g id="edge58" class="edge"><title>Node22&#45;&gt;Node8</title>
<path fill="none" stroke="midnightblue" d="M327.664,-339.11C341.165,-348.587 356.71,-360.334 368.306,-369.822"/>
<polygon fill="midnightblue" stroke="midnightblue" points="366.06,-372.507 375.965,-376.267 370.567,-367.15 366.06,-372.507"/>
</g>
<!-- Node22&#45;&gt;Node21 -->
<g id="edge60" class="edge"><title>Node22&#45;&gt;Node21</title>
<path fill="none" stroke="midnightblue" d="M308.005,-304.937C312.483,-296.454 317.995,-286.009 323.007,-276.513"/>
<polygon fill="midnightblue" stroke="midnightblue" points="326.223,-277.918 327.795,-267.441 320.032,-274.651 326.223,-277.918"/>
</g>
<!-- Node23&#45;&gt;Node3 -->
<g id="edge64" class="edge"><title>Node23&#45;&gt;Node3</title>
<path fill="none" stroke="midnightblue" d="M198.256,-239.085C185.378,-218.244 157.137,-172.537 140.977,-146.384"/>
<polygon fill="midnightblue" stroke="midnightblue" points="143.855,-144.383 135.621,-137.715 137.9,-148.062 143.855,-144.383"/>
</g>
<!-- Node23&#45;&gt;Node9 -->
<g id="edge66" class="edge"><title>Node23&#45;&gt;Node9</title>
<path fill="none" stroke="midnightblue" d="M240.758,-239.443C249.929,-236.873 259.801,-234.226 269,-232 330.517,-217.112 402.011,-203.06 448.977,-194.266"/>
<polygon fill="midnightblue" stroke="midnightblue" points="449.716,-197.689 458.906,-192.417 448.434,-190.807 449.716,-197.689"/>
</g>
<!-- Node24&#45;&gt;Node3 -->
<g id="edge78" class="edge"><title>Node24&#45;&gt;Node3</title>
<path fill="none" stroke="midnightblue" d="M915.909,-247.932C773.417,-242.52 414.102,-226.225 298,-196 275.29,-190.088 271.614,-183.141 250,-174 222.454,-162.35 190.949,-150.147 166.993,-141.096"/>
<polygon fill="midnightblue" stroke="midnightblue" points="168.143,-137.789 157.551,-137.544 165.679,-144.341 168.143,-137.789"/>
</g>
<!-- Node24&#45;&gt;Node9 -->
<g id="edge96" class="edge"><title>Node24&#45;&gt;Node9</title>
<path fill="none" stroke="midnightblue" d="M915.801,-241.899C821.786,-229.034 639.927,-204.148 551.195,-192.006"/>
<polygon fill="midnightblue" stroke="midnightblue" points="551.486,-188.513 541.104,-190.625 550.537,-195.448 551.486,-188.513"/>
</g>
<!-- Node25 -->
<g id="node63" class="node"><title>Node25</title>
<polygon fill="white" stroke="#bfbfbf" points="1170,-174.5 1170,-195.5 1226,-195.5 1226,-174.5 1170,-174.5"/>
<text text-anchor="middle" x="1198" y="-182.5" font-family="Helvetica,sans-Serif" font-size="10.00">algorithm</text>
</g>
<!-- Node24&#45;&gt;Node25 -->
<g id="edge76" class="edge"><title>Node24&#45;&gt;Node25</title>
<path fill="none" stroke="midnightblue" d="M1011.72,-239.414C1047.2,-229.169 1102.73,-213.093 1159.81,-196.34"/>
<polygon fill="midnightblue" stroke="midnightblue" points="1161.12,-199.603 1169.72,-193.427 1159.14,-192.887 1161.12,-199.603"/>
</g>
<!-- Node26 -->
<g id="node66" class="node"><title>Node26</title>
<a xlink:href="../../d8/dcd/exp_8h.html" target="_top" xlink:title="blond/exp.h">
<polygon fill="white" stroke="black" points="941.5,-174.5 941.5,-195.5 1008.5,-195.5 1008.5,-174.5 941.5,-174.5"/>
<text text-anchor="middle" x="975" y="-182.5" font-family="Helvetica,sans-Serif" font-size="10.00">blond/exp.h</text>
</a>
</g>
<!-- Node24&#45;&gt;Node26 -->
<g id="edge80" class="edge"><title>Node24&#45;&gt;Node26</title>
<path fill="none" stroke="midnightblue" d="M975,-239.267C975,-230.18 975,-216.892 975,-205.74"/>
<polygon fill="midnightblue" stroke="midnightblue" points="978.5,-205.534 975,-195.534 971.5,-205.534 978.5,-205.534"/>
</g>
<!-- Node28 -->
<g id="node70" class="node"><title>Node28</title>
<polygon fill="white" stroke="#bfbfbf" points="1201,-0.5 1201,-21.5 1245,-21.5 1245,-0.5 1201,-0.5"/>
<text text-anchor="middle" x="1223" y="-8.5" font-family="Helvetica,sans-Serif" font-size="10.00">cmath</text>
</g>
<!-- Node24&#45;&gt;Node28 -->
<g id="edge98" class="edge"><title>Node24&#45;&gt;Node28</title>
<path fill="none" stroke="midnightblue" d="M961.419,-239.313C943.633,-224.02 916.54,-195.383 933,-174 971.139,-124.452 1017.73,-173.79 1069,-138 1104.59,-113.158 1091.91,-86.08 1125,-58 1144.54,-41.4234 1170.92,-29.2091 1191.39,-21.3929"/>
<polygon fill="midnightblue" stroke="midnightblue" points="1192.72,-24.6333 1200.91,-17.9094 1190.31,-18.0597 1192.72,-24.6333"/>
</g>
<!-- Node30 -->
<g id="node74" class="node"><title>Node30</title>
<a xlink:href="../../d1/d3d/sin_8h.html" target="_top" xlink:title="blond/sin.h">
<polygon fill="white" stroke="black" points="1026,-174.5 1026,-195.5 1090,-195.5 1090,-174.5 1026,-174.5"/>
<text text-anchor="middle" x="1058" y="-182.5" font-family="Helvetica,sans-Serif" font-size="10.00">blond/sin.h</text>
</a>
</g>
<!-- Node24&#45;&gt;Node30 -->
<g id="edge88" class="edge"><title>Node24&#45;&gt;Node30</title>
<path fill="none" stroke="midnightblue" d="M988.706,-239.267C1001.64,-229.139 1021.24,-213.792 1036.29,-202"/>
<polygon fill="midnightblue" stroke="midnightblue" points="1038.83,-204.455 1044.55,-195.534 1034.52,-198.944 1038.83,-204.455"/>
</g>
<!-- Node32 -->
<g id="node82" class="node"><title>Node32</title>
<polygon fill="white" stroke="#bfbfbf" points="1243.5,-174.5 1243.5,-195.5 1292.5,-195.5 1292.5,-174.5 1243.5,-174.5"/>
<text text-anchor="middle" x="1268" y="-182.5" font-family="Helvetica,sans-Serif" font-size="10.00">cassert</text>
</g>
<!-- Node24&#45;&gt;Node32 -->
<g id="edge100" class="edge"><title>Node24&#45;&gt;Node32</title>
<path fill="none" stroke="midnightblue" d="M1034.06,-239.771C1084.79,-230.526 1159.98,-215.726 1233.36,-196.254"/>
<polygon fill="midnightblue" stroke="midnightblue" points="1234.48,-199.577 1243.23,-193.603 1232.66,-192.817 1234.48,-199.577"/>
</g>
<!-- Node33 -->
<g id="node84" class="node"><title>Node33</title>
<polygon fill="white" stroke="#bfbfbf" points="1108,-174.5 1108,-195.5 1152,-195.5 1152,-174.5 1108,-174.5"/>
<text text-anchor="middle" x="1130" y="-182.5" font-family="Helvetica,sans-Serif" font-size="10.00">omp.h</text>
</g>
<!-- Node24&#45;&gt;Node33 -->
<g id="edge102" class="edge"><title>Node24&#45;&gt;Node33</title>
<path fill="none" stroke="midnightblue" d="M1000.25,-239.412C1027.07,-228.165 1069.52,-210.363 1098.51,-198.207"/>
<polygon fill="midnightblue" stroke="midnightblue" points="1099.91,-201.413 1107.78,-194.318 1097.2,-194.958 1099.91,-201.413"/>
</g>
<!-- Node27 -->
<g id="node68" class="node"><title>Node27</title>
<a xlink:href="../../df/de1/vdtcore__common_8h.html" target="_top" xlink:title="vdtcore_common.h">
<polygon fill="white" stroke="black" points="1134,-58.5 1134,-79.5 1234,-79.5 1234,-58.5 1134,-58.5"/>
<text text-anchor="middle" x="1184" y="-66.5" font-family="Helvetica,sans-Serif" font-size="10.00">vdtcore_common.h</text>
</a>
</g>
<!-- Node26&#45;&gt;Node27 -->
<g id="edge82" class="edge"><title>Node26&#45;&gt;Node27</title>
<path fill="none" stroke="midnightblue" d="M1008.91,-176.064C1011.65,-175.36 1014.37,-174.664 1017,-174 1082.63,-157.424 1116.42,-185.142 1165,-138 1177.92,-125.467 1182.3,-105.028 1183.67,-89.6409"/>
<polygon fill="midnightblue" stroke="midnightblue" points="1187.17,-89.6888 1184.21,-79.5151 1180.18,-89.3125 1187.17,-89.6888"/>
</g>
<!-- Node29 -->
<g id="node72" class="node"><title>Node29</title>
<polygon fill="white" stroke="#bfbfbf" points="1116,-116.5 1116,-137.5 1156,-137.5 1156,-116.5 1116,-116.5"/>
<text text-anchor="middle" x="1136" y="-124.5" font-family="Helvetica,sans-Serif" font-size="10.00">limits</text>
</g>
<!-- Node26&#45;&gt;Node29 -->
<g id="edge86" class="edge"><title>Node26&#45;&gt;Node29</title>
<path fill="none" stroke="midnightblue" d="M1004.16,-174.497C1033.01,-164.101 1076.98,-148.263 1106.09,-137.774"/>
<polygon fill="midnightblue" stroke="midnightblue" points="1107.5,-140.987 1115.72,-134.304 1105.13,-134.401 1107.5,-140.987"/>
</g>
<!-- Node27&#45;&gt;Node28 -->
<g id="edge84" class="edge"><title>Node27&#45;&gt;Node28</title>
<path fill="none" stroke="midnightblue" d="M1191.15,-58.3619C1196.49,-50.4313 1203.91,-39.3885 1210.25,-29.9606"/>
<polygon fill="midnightblue" stroke="midnightblue" points="1213.22,-31.8221 1215.89,-21.5707 1207.41,-27.9161 1213.22,-31.8221"/>
</g>
<!-- Node31 -->
<g id="node76" class="node"><title>Node31</title>
<a xlink:href="../../dc/dfa/sincos_8h.html" target="_top" xlink:title="sincos.h">
<polygon fill="white" stroke="black" points="1211.5,-116.5 1211.5,-137.5 1264.5,-137.5 1264.5,-116.5 1211.5,-116.5"/>
<text text-anchor="middle" x="1238" y="-124.5" font-family="Helvetica,sans-Serif" font-size="10.00">sincos.h</text>
</a>
</g>
<!-- Node30&#45;&gt;Node31 -->
<g id="edge90" class="edge"><title>Node30&#45;&gt;Node31</title>
<path fill="none" stroke="midnightblue" d="M1090.18,-174.631C1121.52,-164.532 1169.09,-149.206 1201.75,-138.681"/>
<polygon fill="midnightblue" stroke="midnightblue" points="1202.93,-141.979 1211.37,-135.581 1200.78,-135.316 1202.93,-141.979"/>
</g>
<!-- Node31&#45;&gt;Node27 -->
<g id="edge92" class="edge"><title>Node31&#45;&gt;Node27</title>
<path fill="none" stroke="midnightblue" d="M1228.1,-116.362C1220.48,-108.186 1209.79,-96.7025 1200.84,-87.0907"/>
<polygon fill="midnightblue" stroke="midnightblue" points="1203.22,-84.5046 1193.84,-79.5707 1198.09,-89.2746 1203.22,-84.5046"/>
</g>
<!-- Node31&#45;&gt;Node28 -->
<g id="edge94" class="edge"><title>Node31&#45;&gt;Node28</title>
<path fill="none" stroke="midnightblue" d="M1240.59,-116.126C1243.45,-102.431 1247.13,-78.2416 1243,-58 1241.11,-48.734 1237.32,-39.0321 1233.55,-30.8653"/>
<polygon fill="midnightblue" stroke="midnightblue" points="1236.64,-29.2193 1229.08,-21.7974 1230.36,-32.3144 1236.64,-29.2193"/>
</g>
<!-- Node34&#45;&gt;Node3 -->
<g id="edge108" class="edge"><title>Node34&#45;&gt;Node3</title>
<path fill="none" stroke="midnightblue" d="M1167.76,-245.989C1136.55,-241.968 1086.45,-235.839 1043,-232 779.984,-208.762 711.596,-231.847 450,-196 352.904,-182.695 241.442,-156.139 178.705,-140.132"/>
<polygon fill="midnightblue" stroke="midnightblue" points="179.248,-136.658 168.691,-137.561 177.507,-143.438 179.248,-136.658"/>
</g>
<!-- Node34&#45;&gt;Node9 -->
<g id="edge110" class="edge"><title>Node34&#45;&gt;Node9</title>
<path fill="none" stroke="midnightblue" d="M1167.73,-246.22C1136.51,-242.383 1086.39,-236.397 1043,-232 862.472,-213.709 647.718,-196.448 551.31,-188.938"/>
<polygon fill="midnightblue" stroke="midnightblue" points="551.492,-185.441 541.25,-188.156 550.949,-192.42 551.492,-185.441"/>
</g>
<!-- Node34&#45;&gt;Node25 -->
<g id="edge106" class="edge"><title>Node34&#45;&gt;Node25</title>
<path fill="none" stroke="midnightblue" d="M1198,-239.267C1198,-230.18 1198,-216.892 1198,-205.74"/>
<polygon fill="midnightblue" stroke="midnightblue" points="1201.5,-205.534 1198,-195.534 1194.5,-205.534 1201.5,-205.534"/>
</g>
<!-- Node34&#45;&gt;Node28 -->
<g id="edge114" class="edge"><title>Node34&#45;&gt;Node28</title>
<path fill="none" stroke="midnightblue" d="M1228.32,-247.862C1287.44,-242.995 1414.63,-228.868 1441,-196 1504.04,-117.416 1330.11,-47.1578 1255.32,-21.4155"/>
<polygon fill="midnightblue" stroke="midnightblue" points="1256.06,-17.9692 1245.46,-18.0823 1253.81,-24.6006 1256.06,-17.9692"/>
</g>
<!-- Node34&#45;&gt;Node32 -->
<g id="edge112" class="edge"><title>Node34&#45;&gt;Node32</title>
<path fill="none" stroke="midnightblue" d="M1209.56,-239.267C1220.26,-229.328 1236.38,-214.363 1248.98,-202.664"/>
<polygon fill="midnightblue" stroke="midnightblue" points="1251.71,-204.903 1256.66,-195.534 1246.95,-199.773 1251.71,-204.903"/>
</g>
<!-- Node34&#45;&gt;Node33 -->
<g id="edge120" class="edge"><title>Node34&#45;&gt;Node33</title>
<path fill="none" stroke="midnightblue" d="M1186.77,-239.267C1176.37,-229.328 1160.72,-214.363 1148.48,-202.664"/>
<polygon fill="midnightblue" stroke="midnightblue" points="1150.67,-199.913 1141.02,-195.534 1145.83,-204.974 1150.67,-199.913"/>
</g>
<!-- Node35 -->
<g id="node93" class="node"><title>Node35</title>
<polygon fill="white" stroke="#bfbfbf" points="1309.5,-174.5 1309.5,-195.5 1356.5,-195.5 1356.5,-174.5 1309.5,-174.5"/>
<text text-anchor="middle" x="1333" y="-182.5" font-family="Helvetica,sans-Serif" font-size="10.00">fftw3.h</text>
</g>
<!-- Node34&#45;&gt;Node35 -->
<g id="edge116" class="edge"><title>Node34&#45;&gt;Node35</title>
<path fill="none" stroke="midnightblue" d="M1219.99,-239.412C1242.25,-228.694 1276.87,-212.025 1301.93,-199.96"/>
<polygon fill="midnightblue" stroke="midnightblue" points="1303.53,-203.075 1311.02,-195.584 1300.49,-196.768 1303.53,-203.075"/>
</g>
<!-- Node36 -->
<g id="node95" class="node"><title>Node36</title>
<polygon fill="white" stroke="#bfbfbf" points="1373.5,-174.5 1373.5,-195.5 1432.5,-195.5 1432.5,-174.5 1373.5,-174.5"/>
<text text-anchor="middle" x="1403" y="-182.5" font-family="Helvetica,sans-Serif" font-size="10.00">functional</text>
</g>
<!-- Node34&#45;&gt;Node36 -->
<g id="edge118" class="edge"><title>Node34&#45;&gt;Node36</title>
<path fill="none" stroke="midnightblue" d="M1228.25,-240.409C1264.18,-229.015 1324.23,-209.977 1363.72,-197.454"/>
<polygon fill="midnightblue" stroke="midnightblue" points="1364.82,-200.778 1373.29,-194.419 1362.7,-194.105 1364.82,-200.778"/>
</g>
</g>
</svg>
        <g id="navigator" transform="translate(0 0)" fill="#404254">
                <rect fill="#f2f5e9" fill-opacity="0.5" stroke="#606060" stroke-width=".5" x="0" y="0" width="60" height="60"/>
                <use id="zoomplus" xlink:href="#zoomPlus" x="17" y="9" onmousedown="handleZoom(evt,'in')"/>
                <use id="zoomminus" xlink:href="#zoomMin" x="42" y="9" onmousedown="handleZoom(evt,'out')"/>
                <use id="reset" xlink:href="#resetDef" x="30" y="36" onmousedown="handleReset()"/>
                <g id="arrowUp" xlink:href="#dirArrow" transform="translate(30 24)" onmousedown="handlePan(0,-1)">
                  <use xlink:href="#rim" fill="#404040">
                        <set attributeName="fill" to="#808080" begin="arrowUp.mouseover" end="arrowUp.mouseout"/>
                  </use>
                  <path fill="none" stroke="white" stroke-width="1.5" d="M0,-3.0v7 M-2.5,-0.5L0,-3.0L2.5,-0.5"/>
                </g>
                <g id="arrowRight" xlink:href="#dirArrow" transform="rotate(90) translate(36 -43)" onmousedown="handlePan(1,0)">
                  <use xlink:href="#rim" fill="#404040">
                        <set attributeName="fill" to="#808080" begin="arrowRight.mouseover" end="arrowRight.mouseout"/>
                  </use>
                  <path fill="none" stroke="white" stroke-width="1.5" d="M0,-3.0v7 M-2.5,-0.5L0,-3.0L2.5,-0.5"/>
                </g>
                <g id="arrowDown" xlink:href="#dirArrow" transform="rotate(180) translate(-30 -48)" onmousedown="handlePan(0,1)">
                  <use xlink:href="#rim" fill="#404040">
                        <set attributeName="fill" to="#808080" begin="arrowDown.mouseover" end="arrowDown.mouseout"/>
                  </use>
                  <path fill="none" stroke="white" stroke-width="1.5" d="M0,-3.0v7 M-2.5,-0.5L0,-3.0L2.5,-0.5"/>
                </g>
                <g id="arrowLeft" xlink:href="#dirArrow" transform="rotate(270) translate(-36 17)" onmousedown="handlePan(-1,0)">
                  <use xlink:href="#rim" fill="#404040">
                        <set attributeName="fill" to="#808080" begin="arrowLeft.mouseover" end="arrowLeft.mouseout"/>
                  </use>
                  <path fill="none" stroke="white" stroke-width="1.5" d="M0,-3.0v7 M-2.5,-0.5L0,-3.0L2.5,-0.5"/>
                </g>
        </g>
        <svg viewBox="0 0 15 15" width="100%" height="30px" preserveAspectRatio="xMaxYMin meet">
         <g id="arrow_out" transform="scale(0.3 0.3)">
          <a xlink:href="PhaseNoise_8cpp__incl_org.svg" target="_base">
           <rect id="button" ry="5" rx="5" y="6" x="6" height="38" width="38"
                fill="#f2f5e9" fill-opacity="0.5" stroke="#606060" stroke-width="1.0"/>
           <path id="arrow"
             d="M 11.500037,31.436501 C 11.940474,20.09759 22.043105,11.32322 32.158766,21.979434 L 37.068811,17.246167 C 37.068811,17.246167 37.088388,32 37.088388,32 L 22.160133,31.978069 C 22.160133,31.978069 26.997745,27.140456 26.997745,27.140456 C 18.528582,18.264221 13.291696,25.230495 11.500037,31.436501 z"
             style="fill:#404040;"/>
          </a>
         </g>
        </svg>
</svg>
