<?xml version="1.0" encoding="UTF-8" standalone="no"?>
<!DOCTYPE svg PUBLIC "-//W3C//DTD SVG 1.1//EN"
 "http://www.w3.org/Graphics/SVG/1.1/DTD/svg11.dtd">
<!-- Generated by graphviz version 2.26.3 (20100126.1600)
 -->
<!-- Title: PhaseNoise.cpp Pages: 1 -->
<svg width="1753pt" height="638pt"
 viewBox="0.00 0.00 1753.00 638.00" xmlns="http://www.w3.org/2000/svg" xmlns:xlink="http://www.w3.org/1999/xlink">
<g id="graph1" class="graph" transform="scale(1 1) rotate(0) translate(4 634)">
<title>PhaseNoise.cpp</title>
<polygon fill="white" stroke="white" points="-4,5 -4,-634 1750,-634 1750,5 -4,5"/>
<!-- Node1 -->
<g id="node1" class="node"><title>Node1</title>
<polygon fill="#bfbfbf" stroke="black" points="1112.5,-608.5 1112.5,-629.5 1201.5,-629.5 1201.5,-608.5 1112.5,-608.5"/>
<text text-anchor="middle" x="1157" y="-616.5" font-family="Helvetica,sans-Serif" font-size="10.00">PhaseNoise.cpp</text>
</g>
<!-- Node2 -->
<g id="node3" class="node"><title>Node2</title>
<a xlink:href="../../d2/d6f/constants_8h.html" target="_top" xlink:title="blond/constants.h">
<polygon fill="white" stroke="black" points="963.002,-304.5 963.002,-325.5 1057,-325.5 1057,-304.5 963.002,-304.5"/>
<text text-anchor="middle" x="1010" y="-312.5" font-family="Helvetica,sans-Serif" font-size="10.00">blond/constants.h</text>
</a>
</g>
<!-- Node1&#45;&gt;Node2 -->
<g id="edge2" class="edge"><title>Node1&#45;&gt;Node2</title>
<path fill="none" stroke="midnightblue" d="M1143.42,-608.452C1121.07,-589.798 1079,-548.624 1079,-503 1079,-503 1079,-503 1079,-445 1079,-400.887 1047.62,-357.148 1027.18,-333.342"/>
<polygon fill="midnightblue" stroke="midnightblue" points="1029.74,-330.943 1020.48,-325.784 1024.5,-335.588 1029.74,-330.943"/>
</g>
<!-- Node6 -->
<g id="node11" class="node"><title>Node6</title>
<a xlink:href="../../d9/dc8/PhaseNoise_8h.html" target="_top" xlink:title="blond/llrf/PhaseNoise.h">
<polygon fill="white" stroke="black" points="783.002,-550.5 783.002,-571.5 901.002,-571.5 901.002,-550.5 783.002,-550.5"/>
<text text-anchor="middle" x="842.002" y="-558.5" font-family="Helvetica,sans-Serif" font-size="10.00">blond/llrf/PhaseNoise.h</text>
</a>
</g>
<!-- Node1&#45;&gt;Node6 -->
<g id="edge10" class="edge"><title>Node1&#45;&gt;Node6</title>
<path fill="none" stroke="midnightblue" d="M1112.2,-610.752C1059.19,-600.99 970.396,-584.641 909.148,-573.363"/>
<polygon fill="midnightblue" stroke="midnightblue" points="909.655,-569.898 899.186,-571.529 908.387,-576.782 909.655,-569.898"/>
</g>
<!-- Node23 -->
<g id="node56" class="node"><title>Node23</title>
<a xlink:href="../../d2/de2/math__functions_8h.html" target="_top" xlink:title="blond/math_functions.h">
<polygon fill="white" stroke="black" points="1294,-239.5 1294,-260.5 1412,-260.5 1412,-239.5 1294,-239.5"/>
<text text-anchor="middle" x="1353" y="-247.5" font-family="Helvetica,sans-Serif" font-size="10.00">blond/math_functions.h</text>
</a>
</g>
<!-- Node1&#45;&gt;Node23 -->
<g id="edge132" class="edge"><title>Node1&#45;&gt;Node23</title>
<path fill="none" stroke="midnightblue" d="M1197.95,-608.452C1245.06,-593.558 1316,-561.43 1316,-503 1316,-503 1316,-503 1316,-380 1316,-339.783 1332.59,-295.148 1343.55,-270.037"/>
<polygon fill="midnightblue" stroke="midnightblue" points="1346.78,-271.386 1347.7,-260.832 1340.4,-268.508 1346.78,-271.386"/>
</g>
<!-- Node31 -->
<g id="node77" class="node"><title>Node31</title>
<polygon fill="white" stroke="#bfbfbf" points="1696.5,-174.5 1696.5,-195.5 1745.5,-195.5 1745.5,-174.5 1696.5,-174.5"/>
<text text-anchor="middle" x="1721" y="-182.5" font-family="Helvetica,sans-Serif" font-size="10.00">random</text>
</g>
<!-- Node1&#45;&gt;Node31 -->
<g id="edge152" class="edge"><title>Node1&#45;&gt;Node31</title>
<path fill="none" stroke="midnightblue" d="M1201.71,-616.735C1313.83,-609.841 1598,-584.344 1598,-503 1598,-503 1598,-503 1598,-315 1598,-261.437 1653.78,-221.062 1690.21,-200.402"/>
<polygon fill="midnightblue" stroke="midnightblue" points="1691.93,-203.454 1699.01,-195.579 1688.56,-197.316 1691.93,-203.454"/>
</g>
<!-- Node38 -->
<g id="node105" class="node"><title>Node38</title>
<a xlink:href="../../d7/d76/fft_8h.html" target="_top" xlink:title="blond/fft.h">
<polygon fill="white" stroke="black" points="1127,-239.5 1127,-260.5 1187,-260.5 1187,-239.5 1127,-239.5"/>
<text text-anchor="middle" x="1157" y="-247.5" font-family="Helvetica,sans-Serif" font-size="10.00">blond/fft.h</text>
</a>
</g>
<!-- Node1&#45;&gt;Node38 -->
<g id="edge134" class="edge"><title>Node1&#45;&gt;Node38</title>
<path fill="none" stroke="midnightblue" d="M1157,-608.444C1157,-588.062 1157,-541.868 1157,-503 1157,-503 1157,-503 1157,-380 1157,-341.466 1157,-296.508 1157,-270.834"/>
<polygon fill="midnightblue" stroke="midnightblue" points="1160.5,-270.786 1157,-260.786 1153.5,-270.786 1160.5,-270.786"/>
</g>
<!-- Node3 -->
<g id="node5" class="node"><title>Node3</title>
<a xlink:href="../../d2/d2c/configuration_8h.html" target="_top" xlink:title="blond/configuration.h">
<polygon fill="white" stroke="black" points="877.502,-116.5 877.502,-137.5 984.502,-137.5 984.502,-116.5 877.502,-116.5"/>
<text text-anchor="middle" x="931.002" y="-124.5" font-family="Helvetica,sans-Serif" font-size="10.00">blond/configuration.h</text>
</a>
</g>
<!-- Node2&#45;&gt;Node3 -->
<g id="edge4" class="edge"><title>Node2&#45;&gt;Node3</title>
<path fill="none" stroke="midnightblue" d="M1003.28,-304.252C990.775,-283.86 963.798,-237.846 948.002,-196 942.02,-180.153 937.565,-161.457 934.719,-147.526"/>
<polygon fill="midnightblue" stroke="midnightblue" points="938.119,-146.674 932.784,-137.521 931.247,-148.004 938.119,-146.674"/>
</g>
<!-- Node4 -->
<g id="node7" class="node"><title>Node4</title>
<polygon fill="white" stroke="#bfbfbf" points="904.502,-58.5 904.502,-79.5 957.502,-79.5 957.502,-58.5 904.502,-58.5"/>
<text text-anchor="middle" x="931.002" y="-66.5" font-family="Helvetica,sans-Serif" font-size="10.00">complex</text>
</g>
<!-- Node3&#45;&gt;Node4 -->
<g id="edge6" class="edge"><title>Node3&#45;&gt;Node4</title>
<path fill="none" stroke="midnightblue" d="M931.002,-116.362C931.002,-108.922 931.002,-98.7427 931.002,-89.7276"/>
<polygon fill="midnightblue" stroke="midnightblue" points="934.502,-89.5706 931.002,-79.5707 927.502,-89.5707 934.502,-89.5706"/>
</g>
<!-- Node5 -->
<g id="node9" class="node"><title>Node5</title>
<polygon fill="white" stroke="#bfbfbf" points="777.002,-58.5 777.002,-79.5 821.002,-79.5 821.002,-58.5 777.002,-58.5"/>
<text text-anchor="middle" x="799.002" y="-66.5" font-family="Helvetica,sans-Serif" font-size="10.00">vector</text>
</g>
<!-- Node3&#45;&gt;Node5 -->
<g id="edge8" class="edge"><title>Node3&#45;&gt;Node5</title>
<path fill="none" stroke="midnightblue" d="M907.098,-116.497C885.68,-107.086 854.112,-93.2149 830.614,-82.8899"/>
<polygon fill="midnightblue" stroke="midnightblue" points="831.971,-79.6635 821.408,-78.8451 829.155,-86.0722 831.971,-79.6635"/>
</g>
<!-- Node6&#45;&gt;Node3 -->
<g id="edge12" class="edge"><title>Node6&#45;&gt;Node3</title>
<path fill="none" stroke="midnightblue" d="M859.06,-550.493C885.908,-532.491 935.002,-493.01 935.002,-445 935.002,-445 935.002,-445 935.002,-315 935.002,-254.286 932.891,-182.567 931.736,-147.875"/>
<polygon fill="midnightblue" stroke="midnightblue" points="935.225,-147.474 931.386,-137.599 928.229,-147.712 935.225,-147.474"/>
</g>
<!-- Node7 -->
<g id="node14" class="node"><title>Node7</title>
<a xlink:href="../../d5/d87/globals_8h.html" target="_top" xlink:title="blond/globals.h">
<polygon fill="white" stroke="black" points="711.002,-492.5 711.002,-513.5 793.002,-513.5 793.002,-492.5 711.002,-492.5"/>
<text text-anchor="middle" x="752.002" y="-500.5" font-family="Helvetica,sans-Serif" font-size="10.00">blond/globals.h</text>
</a>
</g>
<!-- Node6&#45;&gt;Node7 -->
<g id="edge14" class="edge"><title>Node6&#45;&gt;Node7</title>
<path fill="none" stroke="midnightblue" d="M825.495,-550.362C811.92,-541.614 792.469,-529.079 776.987,-519.101"/>
<polygon fill="midnightblue" stroke="midnightblue" points="778.707,-516.046 768.405,-513.571 774.915,-521.93 778.707,-516.046"/>
</g>
<!-- Node9 -->
<g id="node19" class="node"><title>Node9</title>
<a xlink:href="../../de/df0/utilities_8h.html" target="_top" xlink:title="blond/utilities.h">
<polygon fill="white" stroke="black" points="484.002,-174.5 484.002,-195.5 566.002,-195.5 566.002,-174.5 484.002,-174.5"/>
<text text-anchor="middle" x="525.002" y="-182.5" font-family="Helvetica,sans-Serif" font-size="10.00">blond/utilities.h</text>
</a>
</g>
<!-- Node6&#45;&gt;Node9 -->
<g id="edge130" class="edge"><title>Node6&#45;&gt;Node9</title>
<path fill="none" stroke="midnightblue" d="M782.983,-554.074C682.037,-540.569 487.002,-506.516 487.002,-445 487.002,-445 487.002,-445 487.002,-315 487.002,-274.7 504.034,-230.094 515.292,-205.01"/>
<polygon fill="midnightblue" stroke="midnightblue" points="518.524,-206.36 519.558,-195.816 512.174,-203.414 518.524,-206.36"/>
</g>
<!-- Node8 -->
<g id="node16" class="node"><title>Node8</title>
<a xlink:href="../../d5/d34/GeneralParameters_8h.html" target="_top" xlink:title="blond/input_parameters\l/GeneralParameters.h">
<polygon fill="white" stroke="black" points="591.002,-233 591.002,-267 709.002,-267 709.002,-233 591.002,-233"/>
<text text-anchor="start" x="599.002" y="-254" font-family="Helvetica,sans-Serif" font-size="10.00">blond/input_parameters</text>
<text text-anchor="middle" x="650.002" y="-241" font-family="Helvetica,sans-Serif" font-size="10.00">/GeneralParameters.h</text>
</a>
</g>
<!-- Node7&#45;&gt;Node8 -->
<g id="edge16" class="edge"><title>Node7&#45;&gt;Node8</title>
<path fill="none" stroke="midnightblue" d="M727.691,-492.352C710.759,-484.118 688.368,-471.516 672.002,-456 621.729,-408.336 605.959,-392.339 586.002,-326 583.185,-316.637 581.882,-312.867 586.002,-304 591.609,-291.932 601.388,-281.591 611.639,-273.284"/>
<polygon fill="midnightblue" stroke="midnightblue" points="614.012,-275.878 619.891,-267.064 609.799,-270.289 614.012,-275.878"/>
</g>
<!-- Node21 -->
<g id="node46" class="node"><title>Node21</title>
<a xlink:href="../../d6/db7/RfParameters_8h.html" target="_top" xlink:title="blond/input_parameters\l/RfParameters.h">
<polygon fill="white" stroke="black" points="789.002,-363 789.002,-397 907.002,-397 907.002,-363 789.002,-363"/>
<text text-anchor="start" x="797.002" y="-384" font-family="Helvetica,sans-Serif" font-size="10.00">blond/input_parameters</text>
<text text-anchor="middle" x="848.002" y="-371" font-family="Helvetica,sans-Serif" font-size="10.00">/RfParameters.h</text>
</a>
</g>
<!-- Node7&#45;&gt;Node21 -->
<g id="edge50" class="edge"><title>Node7&#45;&gt;Node21</title>
<path fill="none" stroke="midnightblue" d="M764.096,-492.483C776.512,-484.148 794.878,-471.368 807.002,-456 818.495,-441.432 826.553,-422.135 832.876,-406.631"/>
<polygon fill="midnightblue" stroke="midnightblue" points="836.238,-407.658 836.799,-397.078 829.763,-404.998 836.238,-407.658"/>
</g>
<!-- Node22 -->
<g id="node48" class="node"><title>Node22</title>
<a xlink:href="../../d7/d74/Beams_8h.html" target="_top" xlink:title="blond/beams/Beams.h">
<polygon fill="white" stroke="black" points="595.002,-304.5 595.002,-325.5 709.002,-325.5 709.002,-304.5 595.002,-304.5"/>
<text text-anchor="middle" x="652.002" y="-312.5" font-family="Helvetica,sans-Serif" font-size="10.00">blond/beams/Beams.h</text>
</a>
</g>
<!-- Node7&#45;&gt;Node22 -->
<g id="edge118" class="edge"><title>Node7&#45;&gt;Node22</title>
<path fill="none" stroke="midnightblue" d="M723.275,-492.475C707.668,-484.374 689.721,-471.883 679.002,-456 653.799,-418.655 646.24,-364.92 647.015,-335.75"/>
<polygon fill="midnightblue" stroke="midnightblue" points="650.524,-335.751 647.743,-325.528 643.541,-335.254 650.524,-335.751"/>
</g>
<!-- Node36 -->
<g id="node96" class="node"><title>Node36</title>
<a xlink:href="../../dc/df2/Slices_8h.html" target="_top" xlink:title="blond/beams/Slices.h">
<polygon fill="white" stroke="black" points="697.002,-434.5 697.002,-455.5 807.002,-455.5 807.002,-434.5 697.002,-434.5"/>
<text text-anchor="middle" x="752.002" y="-442.5" font-family="Helvetica,sans-Serif" font-size="10.00">blond/beams/Slices.h</text>
</a>
</g>
<!-- Node7&#45;&gt;Node36 -->
<g id="edge120" class="edge"><title>Node7&#45;&gt;Node36</title>
<path fill="none" stroke="midnightblue" d="M752.002,-492.362C752.002,-484.922 752.002,-474.743 752.002,-465.728"/>
<polygon fill="midnightblue" stroke="midnightblue" points="755.502,-465.571 752.002,-455.571 748.502,-465.571 755.502,-465.571"/>
</g>
<!-- Node8&#45;&gt;Node3 -->
<g id="edge18" class="edge"><title>Node8&#45;&gt;Node3</title>
<path fill="none" stroke="midnightblue" d="M661.861,-232.677C674.815,-215.133 697.192,-188.569 723.002,-174 747.333,-160.266 815.28,-146.389 866.952,-137.311"/>
<polygon fill="midnightblue" stroke="midnightblue" points="867.796,-140.717 877.052,-135.561 866.601,-133.82 867.796,-140.717"/>
</g>
<!-- Node8&#45;&gt;Node5 -->
<g id="edge48" class="edge"><title>Node8&#45;&gt;Node5</title>
<path fill="none" stroke="midnightblue" d="M657.373,-232.77C664.668,-216.728 676.782,-192.568 691.002,-174 705.148,-155.53 712.273,-154.167 729.002,-138 746.81,-120.791 766.924,-100.919 781.006,-86.9335"/>
<polygon fill="midnightblue" stroke="midnightblue" points="783.532,-89.3568 788.155,-79.8238 778.596,-84.3931 783.532,-89.3568"/>
</g>
<!-- Node8&#45;&gt;Node9 -->
<g id="edge20" class="edge"><title>Node8&#45;&gt;Node9</title>
<path fill="none" stroke="midnightblue" d="M617.16,-232.922C597.73,-222.818 573.321,-210.126 554.506,-200.342"/>
<polygon fill="midnightblue" stroke="midnightblue" points="555.986,-197.167 545.499,-195.658 552.756,-203.377 555.986,-197.167"/>
</g>
<!-- Node9&#45;&gt;Node3 -->
<g id="edge44" class="edge"><title>Node9&#45;&gt;Node3</title>
<path fill="none" stroke="midnightblue" d="M566.166,-179.119C637.165,-168.977 783.111,-148.127 867.306,-136.1"/>
<polygon fill="midnightblue" stroke="midnightblue" points="867.853,-139.557 877.258,-134.678 866.863,-132.627 867.853,-139.557"/>
</g>
<!-- Node9&#45;&gt;Node5 -->
<g id="edge40" class="edge"><title>Node9&#45;&gt;Node5</title>
<path fill="none" stroke="midnightblue" d="M483.777,-184.396C366.453,-182.253 37.1024,-173.132 5.00213,-138 -1.59328,-130.782 -1.70442,-123.115 5.00213,-116 31.5677,-87.8154 621.56,-72.9305 766.88,-69.6838"/>
<polygon fill="midnightblue" stroke="midnightblue" points="767.018,-73.1817 776.938,-69.4619 766.863,-66.1834 767.018,-73.1817"/>
</g>
<!-- Node10 -->
<g id="node21" class="node"><title>Node10</title>
<polygon fill="white" stroke="#bfbfbf" points="136.002,-116.5 136.002,-137.5 182.002,-137.5 182.002,-116.5 136.002,-116.5"/>
<text text-anchor="middle" x="159.002" y="-124.5" font-family="Helvetica,sans-Serif" font-size="10.00">chrono</text>
</g>
<!-- Node9&#45;&gt;Node10 -->
<g id="edge22" class="edge"><title>Node9&#45;&gt;Node10</title>
<path fill="none" stroke="midnightblue" d="M483.914,-181.767C422.278,-176.364 302.221,-163.701 192.201,-137.942"/>
<polygon fill="midnightblue" stroke="midnightblue" points="192.807,-134.489 182.268,-135.574 191.184,-141.298 192.807,-134.489"/>
</g>
<!-- Node11 -->
<g id="node23" class="node"><title>Node11</title>
<polygon fill="white" stroke="#bfbfbf" points="199.502,-116.5 199.502,-137.5 242.502,-137.5 242.502,-116.5 199.502,-116.5"/>
<text text-anchor="middle" x="221.002" y="-124.5" font-family="Helvetica,sans-Serif" font-size="10.00">cstdio</text>
</g>
<!-- Node9&#45;&gt;Node11 -->
<g id="edge24" class="edge"><title>Node9&#45;&gt;Node11</title>
<path fill="none" stroke="midnightblue" d="M483.65,-180.284C431.52,-173.82 339.129,-160.641 252.523,-138.092"/>
<polygon fill="midnightblue" stroke="midnightblue" points="253.373,-134.696 242.81,-135.516 251.579,-141.463 253.373,-134.696"/>
</g>
<!-- Node12 -->
<g id="node25" class="node"><title>Node12</title>
<polygon fill="white" stroke="#bfbfbf" points="259.502,-116.5 259.502,-137.5 304.502,-137.5 304.502,-116.5 259.502,-116.5"/>
<text text-anchor="middle" x="282.002" y="-124.5" font-family="Helvetica,sans-Serif" font-size="10.00">cstdlib</text>
</g>
<!-- Node9&#45;&gt;Node12 -->
<g id="edge26" class="edge"><title>Node9&#45;&gt;Node12</title>
<path fill="none" stroke="midnightblue" d="M483.987,-177.46C443.105,-169.601 378.409,-156.239 314.429,-138.191"/>
<polygon fill="midnightblue" stroke="midnightblue" points="315.162,-134.76 304.585,-135.374 313.237,-141.49 315.162,-134.76"/>
</g>
<!-- Node13 -->
<g id="node27" class="node"><title>Node13</title>
<polygon fill="white" stroke="#bfbfbf" points="322.002,-116.5 322.002,-137.5 372.002,-137.5 372.002,-116.5 322.002,-116.5"/>
<text text-anchor="middle" x="347.002" y="-124.5" font-family="Helvetica,sans-Serif" font-size="10.00">fstream</text>
</g>
<!-- Node9&#45;&gt;Node13 -->
<g id="edge28" class="edge"><title>Node9&#45;&gt;Node13</title>
<path fill="none" stroke="midnightblue" d="M492.768,-174.497C461.489,-164.305 414.155,-148.881 381.978,-138.397"/>
<polygon fill="midnightblue" stroke="midnightblue" points="382.695,-134.949 372.103,-135.179 380.526,-141.605 382.695,-134.949"/>
</g>
<!-- Node14 -->
<g id="node29" class="node"><title>Node14</title>
<polygon fill="white" stroke="#bfbfbf" points="666.002,-116.5 666.002,-137.5 720.002,-137.5 720.002,-116.5 666.002,-116.5"/>
<text text-anchor="middle" x="693.002" y="-124.5" font-family="Helvetica,sans-Serif" font-size="10.00">iostream</text>
</g>
<!-- Node9&#45;&gt;Node14 -->
<g id="edge30" class="edge"><title>Node9&#45;&gt;Node14</title>
<path fill="none" stroke="midnightblue" d="M555.426,-174.497C583.715,-164.73 625.919,-150.16 656.116,-139.735"/>
<polygon fill="midnightblue" stroke="midnightblue" points="657.549,-142.943 665.859,-136.371 655.264,-136.326 657.549,-142.943"/>
</g>
<!-- Node15 -->
<g id="node31" class="node"><title>Node15</title>
<polygon fill="white" stroke="#bfbfbf" points="775.502,-116.5 775.502,-137.5 822.502,-137.5 822.502,-116.5 775.502,-116.5"/>
<text text-anchor="middle" x="799.002" y="-124.5" font-family="Helvetica,sans-Serif" font-size="10.00">iterator</text>
</g>
<!-- Node9&#45;&gt;Node15 -->
<g id="edge32" class="edge"><title>Node9&#45;&gt;Node15</title>
<path fill="none" stroke="midnightblue" d="M566.023,-176.317C620.24,-164.84 714.761,-144.832 765.132,-134.17"/>
<polygon fill="midnightblue" stroke="midnightblue" points="766.121,-137.538 775.18,-132.043 764.672,-130.69 766.121,-137.538"/>
</g>
<!-- Node16 -->
<g id="node33" class="node"><title>Node16</title>
<polygon fill="white" stroke="#bfbfbf" points="390.002,-116.5 390.002,-137.5 442.002,-137.5 442.002,-116.5 390.002,-116.5"/>
<text text-anchor="middle" x="416.002" y="-124.5" font-family="Helvetica,sans-Serif" font-size="10.00">memory</text>
</g>
<!-- Node9&#45;&gt;Node16 -->
<g id="edge34" class="edge"><title>Node9&#45;&gt;Node16</title>
<path fill="none" stroke="midnightblue" d="M505.263,-174.497C488.392,-165.519 463.894,-152.484 444.828,-142.339"/>
<polygon fill="midnightblue" stroke="midnightblue" points="446.435,-139.229 435.963,-137.621 443.147,-145.409 446.435,-139.229"/>
</g>
<!-- Node17 -->
<g id="node35" class="node"><title>Node17</title>
<polygon fill="white" stroke="#bfbfbf" points="460.002,-116.5 460.002,-137.5 512.002,-137.5 512.002,-116.5 460.002,-116.5"/>
<text text-anchor="middle" x="486.002" y="-124.5" font-family="Helvetica,sans-Serif" font-size="10.00">sstream</text>
</g>
<!-- Node9&#45;&gt;Node17 -->
<g id="edge36" class="edge"><title>Node9&#45;&gt;Node17</title>
<path fill="none" stroke="midnightblue" d="M517.849,-174.362C512.516,-166.431 505.091,-155.389 498.752,-145.961"/>
<polygon fill="midnightblue" stroke="midnightblue" points="501.594,-143.916 493.11,-137.571 495.786,-147.822 501.594,-143.916"/>
</g>
<!-- Node18 -->
<g id="node37" class="node"><title>Node18</title>
<polygon fill="white" stroke="#bfbfbf" points="529.502,-116.5 529.502,-137.5 570.502,-137.5 570.502,-116.5 529.502,-116.5"/>
<text text-anchor="middle" x="550.002" y="-124.5" font-family="Helvetica,sans-Serif" font-size="10.00">string</text>
</g>
<!-- Node9&#45;&gt;Node18 -->
<g id="edge38" class="edge"><title>Node9&#45;&gt;Node18</title>
<path fill="none" stroke="midnightblue" d="M529.588,-174.362C532.9,-166.677 537.473,-156.069 541.45,-146.84"/>
<polygon fill="midnightblue" stroke="midnightblue" points="544.702,-148.139 545.446,-137.571 538.273,-145.368 544.702,-148.139"/>
</g>
<!-- Node19 -->
<g id="node40" class="node"><title>Node19</title>
<polygon fill="white" stroke="#bfbfbf" points="588.002,-116.5 588.002,-137.5 648.002,-137.5 648.002,-116.5 588.002,-116.5"/>
<text text-anchor="middle" x="618.002" y="-124.5" font-family="Helvetica,sans-Serif" font-size="10.00">sys/stat.h</text>
</g>
<!-- Node9&#45;&gt;Node19 -->
<g id="edge42" class="edge"><title>Node9&#45;&gt;Node19</title>
<path fill="none" stroke="midnightblue" d="M542.06,-174.362C556.087,-165.614 576.186,-153.079 592.184,-143.101"/>
<polygon fill="midnightblue" stroke="midnightblue" points="594.42,-145.832 601.053,-137.571 590.715,-139.893 594.42,-145.832"/>
</g>
<!-- Node20 -->
<g id="node43" class="node"><title>Node20</title>
<a xlink:href="../../da/d69/optionparser_8h.html" target="_top" xlink:title="This is the only file required to use The Lean Mean C++ Option Parser. Just #include it and you&#39;re se...">
<polygon fill="white" stroke="black" points="14.0021,-116.5 14.0021,-137.5 118.002,-137.5 118.002,-116.5 14.0021,-116.5"/>
<text text-anchor="middle" x="66.0021" y="-124.5" font-family="Helvetica,sans-Serif" font-size="10.00">blond/optionparser.h</text>
</a>
</g>
<!-- Node9&#45;&gt;Node20 -->
<g id="edge46" class="edge"><title>Node9&#45;&gt;Node20</title>
<path fill="none" stroke="midnightblue" d="M483.927,-180.982C413.372,-173.9 264.399,-158.156 128.396,-138.141"/>
<polygon fill="midnightblue" stroke="midnightblue" points="128.616,-134.635 118.211,-136.63 127.589,-141.56 128.616,-134.635"/>
</g>
<!-- Node21&#45;&gt;Node2 -->
<g id="edge100" class="edge"><title>Node21&#45;&gt;Node2</title>
<path fill="none" stroke="midnightblue" d="M890.566,-362.922C916.552,-352.495 949.41,-339.312 974.081,-329.413"/>
<polygon fill="midnightblue" stroke="midnightblue" points="975.461,-332.631 983.438,-325.658 972.854,-326.134 975.461,-332.631"/>
</g>
<!-- Node21&#45;&gt;Node7 -->
<g id="edge102" class="edge"><title>Node21&#45;&gt;Node7</title>
<path fill="none" stroke="midnightblue" d="M850.568,-397.078C847.918,-413.454 839.012,-438.241 825.002,-456 815.151,-468.487 801.18,-479.265 787.98,-487.338"/>
<polygon fill="midnightblue" stroke="midnightblue" points="785.952,-484.467 779.024,-492.483 789.439,-490.536 785.952,-484.467"/>
</g>
<!-- Node21&#45;&gt;Node8 -->
<g id="edge64" class="edge"><title>Node21&#45;&gt;Node8</title>
<path fill="none" stroke="midnightblue" d="M821.709,-362.737C786.404,-339.557 723.604,-298.325 684.526,-272.667"/>
<polygon fill="midnightblue" stroke="midnightblue" points="686.369,-269.69 676.088,-267.127 682.527,-275.542 686.369,-269.69"/>
</g>
<!-- Node21&#45;&gt;Node22 -->
<g id="edge52" class="edge"><title>Node21&#45;&gt;Node22</title>
<path fill="none" stroke="midnightblue" d="M790.482,-362.922C757.444,-352.323 717.017,-338.876 688.338,-328.925"/>
<polygon fill="midnightblue" stroke="midnightblue" points="689.309,-325.557 678.715,-325.562 687,-332.165 689.309,-325.557"/>
</g>
<!-- Node21&#45;&gt;Node23 -->
<g id="edge66" class="edge"><title>Node21&#45;&gt;Node23</title>
<path fill="none" stroke="midnightblue" d="M907.283,-365.588C951.16,-354.855 1012.37,-339.743 1066,-326 1149.84,-304.516 1247.18,-278.518 1304.23,-263.17"/>
<polygon fill="midnightblue" stroke="midnightblue" points="1305.31,-266.503 1314.06,-260.524 1303.49,-259.744 1305.31,-266.503"/>
</g>
<!-- Node34 -->
<g id="node86" class="node"><title>Node34</title>
<a xlink:href="../../da/d30/vector__math_8h.html" target="_top" xlink:title="blond/vector_math.h">
<polygon fill="white" stroke="black" points="802.502,-239.5 802.502,-260.5 907.502,-260.5 907.502,-239.5 802.502,-239.5"/>
<text text-anchor="middle" x="855.002" y="-247.5" font-family="Helvetica,sans-Serif" font-size="10.00">blond/vector_math.h</text>
</a>
</g>
<!-- Node21&#45;&gt;Node34 -->
<g id="edge104" class="edge"><title>Node21&#45;&gt;Node34</title>
<path fill="none" stroke="midnightblue" d="M848.932,-362.737C850.215,-338.912 852.524,-296.017 853.895,-270.563"/>
<polygon fill="midnightblue" stroke="midnightblue" points="857.392,-270.7 854.435,-260.527 850.403,-270.324 857.392,-270.7"/>
</g>
<!-- Node22&#45;&gt;Node3 -->
<g id="edge56" class="edge"><title>Node22&#45;&gt;Node3</title>
<path fill="none" stroke="midnightblue" d="M672.344,-304.325C686.63,-295.996 705.369,-283.291 718.002,-268 747.263,-232.583 726.035,-203.798 761.002,-174 777.204,-160.193 825.952,-147.52 867.114,-138.822"/>
<polygon fill="midnightblue" stroke="midnightblue" points="868.035,-142.205 877.119,-136.753 866.618,-135.351 868.035,-142.205"/>
</g>
<!-- Node22&#45;&gt;Node7 -->
<g id="edge54" class="edge"><title>Node22&#45;&gt;Node7</title>
<path fill="none" stroke="midnightblue" d="M656.899,-325.528C662.544,-350.365 668.453,-413.698 697.002,-456 705.46,-468.533 718.419,-478.954 729.761,-486.772"/>
<polygon fill="midnightblue" stroke="midnightblue" points="728.12,-489.883 738.393,-492.475 731.979,-484.042 728.12,-489.883"/>
</g>
<!-- Node22&#45;&gt;Node8 -->
<g id="edge60" class="edge"><title>Node22&#45;&gt;Node8</title>
<path fill="none" stroke="midnightblue" d="M651.672,-304.267C651.446,-296.931 651.136,-286.857 650.845,-277.38"/>
<polygon fill="midnightblue" stroke="midnightblue" points="654.335,-276.997 650.529,-267.11 647.338,-277.213 654.335,-276.997"/>
</g>
<!-- Node22&#45;&gt;Node9 -->
<g id="edge58" class="edge"><title>Node22&#45;&gt;Node9</title>
<path fill="none" stroke="midnightblue" d="M632.134,-304.397C617.261,-295.844 596.985,-282.827 582.002,-268 562.712,-248.911 545.855,-222.45 535.575,-204.578"/>
<polygon fill="midnightblue" stroke="midnightblue" points="538.507,-202.649 530.567,-195.634 532.399,-206.07 538.507,-202.649"/>
</g>
<!-- Node22&#45;&gt;Node21 -->
<g id="edge62" class="edge"><title>Node22&#45;&gt;Node21</title>
<path fill="none" stroke="midnightblue" d="M688.987,-325.562C718.351,-334.757 759.723,-348.348 792.947,-359.649"/>
<polygon fill="midnightblue" stroke="midnightblue" points="791.934,-363.001 802.529,-362.922 794.197,-356.377 791.934,-363.001"/>
</g>
<!-- Node23&#45;&gt;Node3 -->
<g id="edge70" class="edge"><title>Node23&#45;&gt;Node3</title>
<path fill="none" stroke="midnightblue" d="M1360.4,-239.474C1370.75,-223.332 1386.54,-192.403 1370,-174 1345.42,-146.64 1110.87,-133.885 995.063,-129.216"/>
<polygon fill="midnightblue" stroke="midnightblue" points="995.041,-125.712 984.911,-128.815 994.765,-132.707 995.041,-125.712"/>
</g>
<!-- Node23&#45;&gt;Node9 -->
<g id="edge88" class="edge"><title>Node23&#45;&gt;Node9</title>
<path fill="none" stroke="midnightblue" d="M1293.8,-242.586C1264.42,-239.067 1228.38,-234.988 1196,-232 965.118,-210.689 688.742,-194.163 576.328,-187.819"/>
<polygon fill="midnightblue" stroke="midnightblue" points="576.466,-184.321 566.285,-187.255 576.073,-191.31 576.466,-184.321"/>
</g>
<!-- Node24 -->
<g id="node58" class="node"><title>Node24</title>
<polygon fill="white" stroke="#bfbfbf" points="1033,-174.5 1033,-195.5 1089,-195.5 1089,-174.5 1033,-174.5"/>
<text text-anchor="middle" x="1061" y="-182.5" font-family="Helvetica,sans-Serif" font-size="10.00">algorithm</text>
</g>
<!-- Node23&#45;&gt;Node24 -->
<g id="edge68" class="edge"><title>Node23&#45;&gt;Node24</title>
<path fill="none" stroke="midnightblue" d="M1296.99,-239.482C1247.35,-229.858 1172.73,-214.651 1099.13,-196.154"/>
<polygon fill="midnightblue" stroke="midnightblue" points="1099.77,-192.707 1089.22,-193.643 1098.05,-199.493 1099.77,-192.707"/>
</g>
<!-- Node25 -->
<g id="node61" class="node"><title>Node25</title>
<a xlink:href="../../d8/dcd/exp_8h.html" target="_top" xlink:title="blond/exp.h">
<polygon fill="white" stroke="black" points="1536.5,-174.5 1536.5,-195.5 1603.5,-195.5 1603.5,-174.5 1536.5,-174.5"/>
<text text-anchor="middle" x="1570" y="-182.5" font-family="Helvetica,sans-Serif" font-size="10.00">blond/exp.h</text>
</a>
</g>
<!-- Node23&#45;&gt;Node25 -->
<g id="edge72" class="edge"><title>Node23&#45;&gt;Node25</title>
<path fill="none" stroke="midnightblue" d="M1388.35,-239.412C1426.18,-228.079 1486.23,-210.093 1526.83,-197.932"/>
<polygon fill="midnightblue" stroke="midnightblue" points="1527.88,-201.271 1536.45,-195.049 1525.87,-194.566 1527.88,-201.271"/>
</g>
<!-- Node27 -->
<g id="node65" class="node"><title>Node27</title>
<polygon fill="white" stroke="#bfbfbf" points="1570,-0.5 1570,-21.5 1614,-21.5 1614,-0.5 1570,-0.5"/>
<text text-anchor="middle" x="1592" y="-8.5" font-family="Helvetica,sans-Serif" font-size="10.00">cmath</text>
</g>
<!-- Node23&#45;&gt;Node27 -->
<g id="edge90" class="edge"><title>Node23&#45;&gt;Node27</title>
<path fill="none" stroke="midnightblue" d="M1412.23,-247.693C1488.85,-243.32 1615.99,-230.875 1645,-196 1684.23,-148.852 1670.16,-113.936 1645,-58 1639.48,-45.7325 1629.01,-35.3682 1618.82,-27.52"/>
<polygon fill="midnightblue" stroke="midnightblue" points="1620.61,-24.499 1610.44,-21.5328 1616.54,-30.1944 1620.61,-24.499"/>
</g>
<!-- Node28 -->
<g id="node67" class="node"><title>Node28</title>
<polygon fill="white" stroke="#bfbfbf" points="1502,-116.5 1502,-137.5 1542,-137.5 1542,-116.5 1502,-116.5"/>
<text text-anchor="middle" x="1522" y="-124.5" font-family="Helvetica,sans-Serif" font-size="10.00">limits</text>
</g>
<!-- Node23&#45;&gt;Node28 -->
<g id="edge94" class="edge"><title>Node23&#45;&gt;Node28</title>
<path fill="none" stroke="midnightblue" d="M1404.98,-239.463C1433.01,-231.525 1466.56,-218.099 1490,-196 1503.84,-182.952 1512.24,-162.743 1516.93,-147.562"/>
<polygon fill="midnightblue" stroke="midnightblue" points="1520.41,-148.144 1519.73,-137.571 1513.66,-146.26 1520.41,-148.144"/>
</g>
<!-- Node29 -->
<g id="node69" class="node"><title>Node29</title>
<a xlink:href="../../d1/d3d/sin_8h.html" target="_top" xlink:title="blond/sin.h">
<polygon fill="white" stroke="black" points="1417,-174.5 1417,-195.5 1481,-195.5 1481,-174.5 1417,-174.5"/>
<text text-anchor="middle" x="1449" y="-182.5" font-family="Helvetica,sans-Serif" font-size="10.00">blond/sin.h</text>
</a>
</g>
<!-- Node23&#45;&gt;Node29 -->
<g id="edge80" class="edge"><title>Node23&#45;&gt;Node29</title>
<path fill="none" stroke="midnightblue" d="M1368.85,-239.267C1384.09,-228.949 1407.33,-213.216 1424.87,-201.342"/>
<polygon fill="midnightblue" stroke="midnightblue" points="1427.13,-204.038 1433.44,-195.534 1423.2,-198.242 1427.13,-204.038"/>
</g>
<!-- Node23&#45;&gt;Node31 -->
<g id="edge92" class="edge"><title>Node23&#45;&gt;Node31</title>
<path fill="none" stroke="midnightblue" d="M1412.13,-242.497C1478.48,-233.574 1589.14,-217.185 1683,-196 1684.07,-195.758 1685.16,-195.503 1686.26,-195.239"/>
<polygon fill="midnightblue" stroke="midnightblue" points="1687.38,-198.561 1696.18,-192.648 1685.62,-191.788 1687.38,-198.561"/>
</g>
<!-- Node32 -->
<g id="node80" class="node"><title>Node32</title>
<polygon fill="white" stroke="#bfbfbf" points="1106.5,-174.5 1106.5,-195.5 1155.5,-195.5 1155.5,-174.5 1106.5,-174.5"/>
<text text-anchor="middle" x="1131" y="-182.5" font-family="Helvetica,sans-Serif" font-size="10.00">cassert</text>
</g>
<!-- Node23&#45;&gt;Node32 -->
<g id="edge96" class="edge"><title>Node23&#45;&gt;Node32</title>
<path fill="none" stroke="midnightblue" d="M1316.84,-239.412C1275.05,-227.175 1206.75,-207.179 1165.62,-195.137"/>
<polygon fill="midnightblue" stroke="midnightblue" points="1166.37,-191.707 1155.78,-192.256 1164.4,-198.425 1166.37,-191.707"/>
</g>
<!-- Node33 -->
<g id="node82" class="node"><title>Node33</title>
<a xlink:href="../../d1/db0/openmp_8h.html" target="_top" xlink:title="blond/openmp.h">
<polygon fill="white" stroke="black" points="1275,-174.5 1275,-195.5 1361,-195.5 1361,-174.5 1275,-174.5"/>
<text text-anchor="middle" x="1318" y="-182.5" font-family="Helvetica,sans-Serif" font-size="10.00">blond/openmp.h</text>
</a>
</g>
<!-- Node23&#45;&gt;Node33 -->
<g id="edge98" class="edge"><title>Node23&#45;&gt;Node33</title>
<path fill="none" stroke="midnightblue" d="M1347.22,-239.267C1342.13,-229.801 1334.57,-215.777 1328.43,-204.357"/>
<polygon fill="midnightblue" stroke="midnightblue" points="1331.5,-202.679 1323.67,-195.534 1325.33,-205.998 1331.5,-202.679"/>
</g>
<!-- Node26 -->
<g id="node63" class="node"><title>Node26</title>
<a xlink:href="../../df/de1/vdtcore__common_8h.html" target="_top" xlink:title="vdtcore_common.h">
<polygon fill="white" stroke="black" points="1503,-58.5 1503,-79.5 1603,-79.5 1603,-58.5 1503,-58.5"/>
<text text-anchor="middle" x="1553" y="-66.5" font-family="Helvetica,sans-Serif" font-size="10.00">vdtcore_common.h</text>
</a>
</g>
<!-- Node25&#45;&gt;Node26 -->
<g id="edge74" class="edge"><title>Node25&#45;&gt;Node26</title>
<path fill="none" stroke="midnightblue" d="M1568.43,-174.295C1565.62,-155.131 1559.69,-114.654 1556.06,-89.8434"/>
<polygon fill="midnightblue" stroke="midnightblue" points="1559.48,-89.066 1554.57,-79.6792 1552.55,-90.0811 1559.48,-89.066"/>
</g>
<!-- Node25&#45;&gt;Node28 -->
<g id="edge78" class="edge"><title>Node25&#45;&gt;Node28</title>
<path fill="none" stroke="midnightblue" d="M1561.2,-174.362C1554.5,-166.268 1545.12,-154.932 1537.21,-145.38"/>
<polygon fill="midnightblue" stroke="midnightblue" points="1539.82,-143.043 1530.75,-137.571 1534.43,-147.506 1539.82,-143.043"/>
</g>
<!-- Node26&#45;&gt;Node27 -->
<g id="edge76" class="edge"><title>Node26&#45;&gt;Node27</title>
<path fill="none" stroke="midnightblue" d="M1560.16,-58.3619C1565.49,-50.4313 1572.91,-39.3885 1579.25,-29.9606"/>
<polygon fill="midnightblue" stroke="midnightblue" points="1582.22,-31.8221 1584.89,-21.5707 1576.41,-27.9161 1582.22,-31.8221"/>
</g>
<!-- Node30 -->
<g id="node71" class="node"><title>Node30</title>
<a xlink:href="../../dc/dfa/sincos_8h.html" target="_top" xlink:title="sincos.h">
<polygon fill="white" stroke="black" points="1431.5,-116.5 1431.5,-137.5 1484.5,-137.5 1484.5,-116.5 1431.5,-116.5"/>
<text text-anchor="middle" x="1458" y="-124.5" font-family="Helvetica,sans-Serif" font-size="10.00">sincos.h</text>
</a>
</g>
<!-- Node29&#45;&gt;Node30 -->
<g id="edge82" class="edge"><title>Node29&#45;&gt;Node30</title>
<path fill="none" stroke="midnightblue" d="M1450.65,-174.362C1451.81,-166.922 1453.39,-156.743 1454.79,-147.728"/>
<polygon fill="midnightblue" stroke="midnightblue" points="1458.29,-147.989 1456.36,-137.571 1451.37,-146.916 1458.29,-147.989"/>
</g>
<!-- Node30&#45;&gt;Node26 -->
<g id="edge84" class="edge"><title>Node30&#45;&gt;Node26</title>
<path fill="none" stroke="midnightblue" d="M1475.43,-116.362C1489.89,-107.532 1510.67,-94.844 1527.09,-84.8224"/>
<polygon fill="midnightblue" stroke="midnightblue" points="1528.98,-87.7688 1535.69,-79.5707 1525.33,-81.7943 1528.98,-87.7688"/>
</g>
<!-- Node30&#45;&gt;Node27 -->
<g id="edge86" class="edge"><title>Node30&#45;&gt;Node27</title>
<path fill="none" stroke="midnightblue" d="M1461.18,-116.343C1466.06,-101.546 1476.71,-74.7174 1494,-58 1512.54,-40.0783 1539.21,-27.8982 1560.04,-20.4362"/>
<polygon fill="midnightblue" stroke="midnightblue" points="1561.4,-23.6731 1569.74,-17.1476 1559.15,-17.0437 1561.4,-23.6731"/>
</g>
<!-- Node34&#45;&gt;Node5 -->
<g id="edge112" class="edge"><title>Node34&#45;&gt;Node5</title>
<path fill="none" stroke="midnightblue" d="M854.588,-239.154C853.371,-215.792 848.685,-159.326 831.002,-116 826.948,-106.066 820.568,-96.0958 814.568,-87.9102"/>
<polygon fill="midnightblue" stroke="midnightblue" points="817.209,-85.6028 808.335,-79.8147 811.663,-89.8734 817.209,-85.6028"/>
</g>
<!-- Node34&#45;&gt;Node14 -->
<g id="edge114" class="edge"><title>Node34&#45;&gt;Node14</title>
<path fill="none" stroke="midnightblue" d="M840.909,-239.3C812.784,-217.946 749.485,-169.885 715.531,-144.106"/>
<polygon fill="midnightblue" stroke="midnightblue" points="717.259,-141.023 707.178,-137.763 713.026,-146.598 717.259,-141.023"/>
</g>
<!-- Node34&#45;&gt;Node15 -->
<g id="edge116" class="edge"><title>Node34&#45;&gt;Node15</title>
<path fill="none" stroke="midnightblue" d="M850.032,-239.085C840.627,-218.427 820.099,-173.337 808.143,-147.076"/>
<polygon fill="midnightblue" stroke="midnightblue" points="811.21,-145.366 803.881,-137.715 804.839,-148.267 811.21,-145.366"/>
</g>
<!-- Node34&#45;&gt;Node24 -->
<g id="edge106" class="edge"><title>Node34&#45;&gt;Node24</title>
<path fill="none" stroke="midnightblue" d="M888.558,-239.412C925.397,-227.788 984.421,-209.164 1022.95,-197.005"/>
<polygon fill="midnightblue" stroke="midnightblue" points="1024.28,-200.257 1032.76,-193.91 1022.17,-193.582 1024.28,-200.257"/>
</g>
<!-- Node34&#45;&gt;Node32 -->
<g id="edge110" class="edge"><title>Node34&#45;&gt;Node32</title>
<path fill="none" stroke="midnightblue" d="M907.529,-239.956C954.785,-230.554 1026.25,-215.431 1096.34,-196.292"/>
<polygon fill="midnightblue" stroke="midnightblue" points="1097.51,-199.6 1106.22,-193.565 1095.65,-192.853 1097.51,-199.6"/>
</g>
<!-- Node35 -->
<g id="node89" class="node"><title>Node35</title>
<polygon fill="white" stroke="#bfbfbf" points="956.502,-174.5 956.502,-195.5 1015.5,-195.5 1015.5,-174.5 956.502,-174.5"/>
<text text-anchor="middle" x="986.002" y="-182.5" font-family="Helvetica,sans-Serif" font-size="10.00">functional</text>
</g>
<!-- Node34&#45;&gt;Node35 -->
<g id="edge108" class="edge"><title>Node34&#45;&gt;Node35</title>
<path fill="none" stroke="midnightblue" d="M876.341,-239.412C897.847,-228.741 931.241,-212.172 955.53,-200.12"/>
<polygon fill="midnightblue" stroke="midnightblue" points="957.27,-203.164 964.672,-195.584 954.159,-196.893 957.27,-203.164"/>
</g>
<!-- Node36&#45;&gt;Node3 -->
<g id="edge122" class="edge"><title>Node36&#45;&gt;Node3</title>
<path fill="none" stroke="midnightblue" d="M751.562,-434.302C750.707,-401.407 751.844,-299.879 794.002,-232 819.689,-190.642 867.949,-159.49 899.786,-142.246"/>
<polygon fill="midnightblue" stroke="midnightblue" points="901.482,-145.308 908.696,-137.549 898.218,-139.116 901.482,-145.308"/>
</g>
<!-- Node36&#45;&gt;Node9 -->
<g id="edge124" class="edge"><title>Node36&#45;&gt;Node9</title>
<path fill="none" stroke="midnightblue" d="M732.398,-434.488C699.198,-415.97 631.122,-374.833 586.002,-326 553.421,-290.737 536.499,-235.353 529.324,-205.577"/>
<polygon fill="midnightblue" stroke="midnightblue" points="532.666,-204.491 527.039,-195.515 525.84,-206.041 532.666,-204.491"/>
</g>
<!-- Node36&#45;&gt;Node21 -->
<g id="edge126" class="edge"><title>Node36&#45;&gt;Node21</title>
<path fill="none" stroke="midnightblue" d="M767.855,-434.267C780.436,-425.748 798.471,-413.537 814.248,-402.854"/>
<polygon fill="midnightblue" stroke="midnightblue" points="816.414,-405.615 822.732,-397.11 812.489,-399.818 816.414,-405.615"/>
</g>
<!-- Node37 -->
<g id="node101" class="node"><title>Node37</title>
<polygon fill="white" stroke="#bfbfbf" points="698.502,-369.5 698.502,-390.5 733.502,-390.5 733.502,-369.5 698.502,-369.5"/>
<text text-anchor="middle" x="716.002" y="-377.5" font-family="Helvetica,sans-Serif" font-size="10.00">map</text>
</g>
<!-- Node36&#45;&gt;Node37 -->
<g id="edge128" class="edge"><title>Node36&#45;&gt;Node37</title>
<path fill="none" stroke="midnightblue" d="M746.057,-434.267C740.815,-424.801 733.048,-410.777 726.723,-399.357"/>
<polygon fill="midnightblue" stroke="midnightblue" points="729.743,-397.586 721.836,-390.534 723.619,-400.977 729.743,-397.586"/>
</g>
<!-- Node38&#45;&gt;Node3 -->
<g id="edge138" class="edge"><title>Node38&#45;&gt;Node3</title>
<path fill="none" stroke="midnightblue" d="M1162.25,-239.298C1169.29,-223.202 1179.28,-192.662 1164,-174 1142.96,-148.287 1056.19,-136.326 994.715,-130.989"/>
<polygon fill="midnightblue" stroke="midnightblue" points="994.954,-127.497 984.699,-130.159 994.375,-134.473 994.954,-127.497"/>
</g>
<!-- Node38&#45;&gt;Node9 -->
<g id="edge140" class="edge"><title>Node38&#45;&gt;Node9</title>
<path fill="none" stroke="midnightblue" d="M1126.94,-246.909C1026.73,-236.602 703.229,-203.33 576.551,-190.302"/>
<polygon fill="midnightblue" stroke="midnightblue" points="576.649,-186.793 566.344,-189.252 575.933,-193.757 576.649,-186.793"/>
</g>
<!-- Node38&#45;&gt;Node24 -->
<g id="edge136" class="edge"><title>Node38&#45;&gt;Node24</title>
<path fill="none" stroke="midnightblue" d="M1141.15,-239.267C1125.91,-228.949 1102.68,-213.216 1085.14,-201.342"/>
<polygon fill="midnightblue" stroke="midnightblue" points="1086.8,-198.242 1076.56,-195.534 1082.88,-204.038 1086.8,-198.242"/>
</g>
<!-- Node38&#45;&gt;Node27 -->
<g id="edge144" class="edge"><title>Node38&#45;&gt;Node27</title>
<path fill="none" stroke="midnightblue" d="M1187.23,-245.488C1213.14,-241.683 1251.49,-236.2 1285,-232 1357.54,-222.909 1563.22,-250.449 1612,-196 1653.56,-149.617 1621.19,-68.1864 1602.66,-30.7922"/>
<polygon fill="midnightblue" stroke="midnightblue" points="1605.77,-29.1793 1598.09,-21.8788 1599.54,-32.374 1605.77,-29.1793"/>
</g>
<!-- Node38&#45;&gt;Node32 -->
<g id="edge142" class="edge"><title>Node38&#45;&gt;Node32</title>
<path fill="none" stroke="midnightblue" d="M1152.71,-239.267C1149,-229.991 1143.54,-216.336 1139.02,-205.045"/>
<polygon fill="midnightblue" stroke="midnightblue" points="1142.18,-203.519 1135.22,-195.534 1135.68,-206.118 1142.18,-203.519"/>
</g>
<!-- Node38&#45;&gt;Node33 -->
<g id="edge150" class="edge"><title>Node38&#45;&gt;Node33</title>
<path fill="none" stroke="midnightblue" d="M1183.23,-239.412C1210.13,-228.552 1252.16,-211.583 1282.13,-199.484"/>
<polygon fill="midnightblue" stroke="midnightblue" points="1283.83,-202.573 1291.79,-195.584 1281.2,-196.082 1283.83,-202.573"/>
</g>
<!-- Node38&#45;&gt;Node35 -->
<g id="edge148" class="edge"><title>Node38&#45;&gt;Node35</title>
<path fill="none" stroke="midnightblue" d="M1129.15,-239.412C1100.33,-228.458 1055.16,-211.288 1023.28,-199.17"/>
<polygon fill="midnightblue" stroke="midnightblue" points="1024.44,-195.865 1013.84,-195.584 1021.95,-202.408 1024.44,-195.865"/>
</g>
<!-- Node39 -->
<g id="node112" class="node"><title>Node39</title>
<polygon fill="white" stroke="#bfbfbf" points="1210.5,-174.5 1210.5,-195.5 1257.5,-195.5 1257.5,-174.5 1210.5,-174.5"/>
<text text-anchor="middle" x="1234" y="-182.5" font-family="Helvetica,sans-Serif" font-size="10.00">fftw3.h</text>
</g>
<!-- Node38&#45;&gt;Node39 -->
<g id="edge146" class="edge"><title>Node38&#45;&gt;Node39</title>
<path fill="none" stroke="midnightblue" d="M1169.72,-239.267C1181.71,-229.139 1199.9,-213.792 1213.86,-202"/>
<polygon fill="midnightblue" stroke="midnightblue" points="1216.14,-204.659 1221.52,-195.534 1211.62,-199.31 1216.14,-204.659"/>
</g>
</g>
</svg>
