<?xml version="1.0" encoding="UTF-8" standalone="no"?>
<!DOCTYPE svg PUBLIC "-//W3C//DTD SVG 1.1//EN"
 "http://www.w3.org/Graphics/SVG/1.1/DTD/svg11.dtd">
<!-- Generated by graphviz version 2.26.3 (20100126.1600)
 -->
<!-- Title: vdt::fast_sin Pages: 1 -->
<svg width="710pt" height="162pt"
 viewBox="0.00 0.00 710.00 162.00" xmlns="http://www.w3.org/2000/svg" xmlns:xlink="http://www.w3.org/1999/xlink">
<g id="graph1" class="graph" transform="scale(1 1) rotate(0) translate(4 158)">
<title>vdt::fast_sin</title>
<polygon fill="white" stroke="white" points="-4,5 -4,-158 707,-158 707,5 -4,5"/>
<!-- Node1 -->
<g id="node1" class="node"><title>Node1</title>
<polygon fill="#bfbfbf" stroke="black" points="0.5,-92.5 0.5,-113.5 71.5,-113.5 71.5,-92.5 0.5,-92.5"/>
<text text-anchor="middle" x="36" y="-100.5" font-family="Helvetica,sans-Serif" font-size="10.00">vdt::fast_sin</text>
</g>
<!-- Node2 -->
<g id="node3" class="node"><title>Node2</title>
<a xlink:href="../../df/d6d/namespacemymath.html#a56db34e8382851729defc7a3eb906220" target="_top" xlink:title="mymath::fast_cos">
<polygon fill="white" stroke="black" points="108.5,-112.5 108.5,-133.5 203.5,-133.5 203.5,-112.5 108.5,-112.5"/>
<text text-anchor="middle" x="156" y="-120.5" font-family="Helvetica,sans-Serif" font-size="10.00">mymath::fast_cos</text>
</a>
</g>
<!-- Node1&#45;&gt;Node2 -->
<g id="edge2" class="edge"><title>Node1&#45;&gt;Node2</title>
<path fill="none" stroke="midnightblue" d="M81.6468,-110.608C90.3456,-112.058 99.472,-113.579 108.235,-115.039"/>
<polygon fill="midnightblue" stroke="midnightblue" points="82.1184,-107.138 71.6791,-108.947 80.9676,-114.043 82.1184,-107.138"/>
</g>
<!-- Node7 -->
<g id="node13" class="node"><title>Node7</title>
<a xlink:href="../../df/d6d/namespacemymath.html#a38897799c9327d162f914bbb097fb8e3" target="_top" xlink:title="mymath::fast_sin">
<polygon fill="white" stroke="black" points="110,-72.5 110,-93.5 202,-93.5 202,-72.5 110,-72.5"/>
<text text-anchor="middle" x="156" y="-80.5" font-family="Helvetica,sans-Serif" font-size="10.00">mymath::fast_sin</text>
</a>
</g>
<!-- Node1&#45;&gt;Node7 -->
<g id="edge12" class="edge"><title>Node1&#45;&gt;Node7</title>
<path fill="none" stroke="midnightblue" d="M81.5443,-95.4093C90.8569,-93.8572 100.664,-92.2227 109.992,-90.668"/>
<polygon fill="midnightblue" stroke="midnightblue" points="80.9676,-91.957 71.6791,-97.0535 82.1184,-98.8618 80.9676,-91.957"/>
</g>
<!-- Node3 -->
<g id="node5" class="node"><title>Node3</title>
<a xlink:href="../../de/d44/trackers_2utilities_8h.html#a31907045e09e1acf77495337b7c92830" target="_top" xlink:title="hamiltonian">
<polygon fill="white" stroke="black" points="269,-112.5 269,-133.5 335,-133.5 335,-112.5 269,-112.5"/>
<text text-anchor="middle" x="302" y="-120.5" font-family="Helvetica,sans-Serif" font-size="10.00">hamiltonian</text>
</a>
</g>
<!-- Node2&#45;&gt;Node3 -->
<g id="edge4" class="edge"><title>Node2&#45;&gt;Node3</title>
<path fill="none" stroke="midnightblue" d="M213.991,-123C232.637,-123 252.648,-123 268.87,-123"/>
<polygon fill="midnightblue" stroke="midnightblue" points="213.806,-119.5 203.806,-123 213.806,-126.5 213.806,-119.5"/>
</g>
<!-- Node4 -->
<g id="node7" class="node"><title>Node4</title>
<a xlink:href="../../de/d44/trackers_2utilities_8h.html#a8813a5065ff3ab5a0923846ab24ea265" target="_top" xlink:title="is_in_separatrix">
<polygon fill="white" stroke="black" points="425.5,-112.5 425.5,-133.5 510.5,-133.5 510.5,-112.5 425.5,-112.5"/>
<text text-anchor="middle" x="468" y="-120.5" font-family="Helvetica,sans-Serif" font-size="10.00">is_in_separatrix</text>
</a>
</g>
<!-- Node3&#45;&gt;Node4 -->
<g id="edge6" class="edge"><title>Node3&#45;&gt;Node4</title>
<path fill="none" stroke="midnightblue" d="M345.362,-123C370.044,-123 400.838,-123 425.394,-123"/>
<polygon fill="midnightblue" stroke="midnightblue" points="345.194,-119.5 335.194,-123 345.194,-126.5 345.194,-119.5"/>
</g>
<!-- Node5 -->
<g id="node9" class="node"><title>Node5</title>
<a xlink:href="../../dc/d7d/Distributions_8h.html#ad9600030e832de537807b8cae4b59590" target="_top" xlink:title="longitudinal_bigaussian">
<polygon fill="white" stroke="black" points="578.5,-132.5 578.5,-153.5 695.5,-153.5 695.5,-132.5 578.5,-132.5"/>
<text text-anchor="middle" x="637" y="-140.5" font-family="Helvetica,sans-Serif" font-size="10.00">longitudinal_bigaussian</text>
</a>
</g>
<!-- Node4&#45;&gt;Node5 -->
<g id="edge8" class="edge"><title>Node4&#45;&gt;Node5</title>
<path fill="none" stroke="midnightblue" d="M520.822,-129.251C539.103,-131.415 559.695,-133.852 578.411,-136.066"/>
<polygon fill="midnightblue" stroke="midnightblue" points="520.988,-125.746 510.646,-128.047 520.165,-132.698 520.988,-125.746"/>
</g>
<!-- Node6 -->
<g id="node11" class="node"><title>Node6</title>
<a xlink:href="../../d9/d7c/classBeams.html#a76e4b807fd1a83ae8fe190a774acaa19" target="_top" xlink:title="Beams::losses_separatrix">
<polygon fill="white" stroke="black" points="572,-92.5 572,-113.5 702,-113.5 702,-92.5 572,-92.5"/>
<text text-anchor="middle" x="637" y="-100.5" font-family="Helvetica,sans-Serif" font-size="10.00">Beams::losses_separatrix</text>
</a>
</g>
<!-- Node4&#45;&gt;Node6 -->
<g id="edge10" class="edge"><title>Node4&#45;&gt;Node6</title>
<path fill="none" stroke="midnightblue" d="M520.98,-116.73C537.147,-114.817 555.11,-112.691 571.977,-110.695"/>
<polygon fill="midnightblue" stroke="midnightblue" points="520.165,-113.302 510.646,-117.953 520.988,-120.254 520.165,-113.302"/>
</g>
<!-- Node7&#45;&gt;Node3 -->
<g id="edge14" class="edge"><title>Node7&#45;&gt;Node3</title>
<path fill="none" stroke="midnightblue" d="M204.16,-96.1946C225.362,-102.003 249.736,-108.681 268.853,-113.919"/>
<polygon fill="midnightblue" stroke="midnightblue" points="204.929,-92.7763 194.36,-93.5095 203.08,-99.5276 204.929,-92.7763"/>
</g>
<!-- Node8 -->
<g id="node16" class="node"><title>Node8</title>
<a xlink:href="../../de/da1/classRingAndRfSection.html#a10f29492bc5c4da2f978d76e6ffef564" target="_top" xlink:title="RingAndRfSection::kick">
<polygon fill="white" stroke="black" points="241,-72.5 241,-93.5 363,-93.5 363,-72.5 241,-72.5"/>
<text text-anchor="middle" x="302" y="-80.5" font-family="Helvetica,sans-Serif" font-size="10.00">RingAndRfSection::kick</text>
</a>
</g>
<!-- Node7&#45;&gt;Node8 -->
<g id="edge16" class="edge"><title>Node7&#45;&gt;Node8</title>
<path fill="none" stroke="midnightblue" d="M212.199,-83C221.588,-83 231.37,-83 240.876,-83"/>
<polygon fill="midnightblue" stroke="midnightblue" points="212.195,-79.5001 202.195,-83 212.195,-86.5001 212.195,-79.5001"/>
</g>
<!-- Node9 -->
<g id="node18" class="node"><title>Node9</title>
<a xlink:href="../../d6/d13/classFullRingAndRf.html#a76ca8401684654596782338b81268ef2" target="_top" xlink:title="FullRingAndRf::potential\l_well_generation">
<polygon fill="white" stroke="black" points="240.5,-20 240.5,-54 363.5,-54 363.5,-20 240.5,-20"/>
<text text-anchor="start" x="248.5" y="-41" font-family="Helvetica,sans-Serif" font-size="10.00">FullRingAndRf::potential</text>
<text text-anchor="middle" x="302" y="-28" font-family="Helvetica,sans-Serif" font-size="10.00">_well_generation</text>
</a>
</g>
<!-- Node7&#45;&gt;Node9 -->
<g id="edge18" class="edge"><title>Node7&#45;&gt;Node9</title>
<path fill="none" stroke="midnightblue" d="M199.171,-69.398C214.409,-64.5972 231.74,-59.1366 247.775,-54.0845"/>
<polygon fill="midnightblue" stroke="midnightblue" points="197.981,-66.1033 189.495,-72.4467 200.085,-72.7798 197.981,-66.1033"/>
</g>
<!-- Node10 -->
<g id="node20" class="node"><title>Node10</title>
<a xlink:href="../../dc/d7d/Distributions_8h.html#a39ba163b714fe197bd81ac64ffa48d30" target="_top" xlink:title="matched_from_distribution\l_density">
<polygon fill="white" stroke="black" points="402.5,-40 402.5,-74 533.5,-74 533.5,-40 402.5,-40"/>
<text text-anchor="start" x="410.5" y="-61" font-family="Helvetica,sans-Serif" font-size="10.00">matched_from_distribution</text>
<text text-anchor="middle" x="468" y="-48" font-family="Helvetica,sans-Serif" font-size="10.00">_density</text>
</a>
</g>
<!-- Node9&#45;&gt;Node10 -->
<g id="edge20" class="edge"><title>Node9&#45;&gt;Node10</title>
<path fill="none" stroke="midnightblue" d="M373.925,-45.6657C383.336,-46.7996 392.941,-47.9568 402.243,-49.0775"/>
<polygon fill="midnightblue" stroke="midnightblue" points="374.159,-42.1686 363.812,-44.4473 373.322,-49.1184 374.159,-42.1686"/>
</g>
<!-- Node11 -->
<g id="node22" class="node"><title>Node11</title>
<a xlink:href="../../dc/d7d/Distributions_8h.html#aa18b9fc400fa994778e7e811423c2f06" target="_top" xlink:title="matched_from_line_density">
<polygon fill="white" stroke="black" points="400,-0.5 400,-21.5 536,-21.5 536,-0.5 400,-0.5"/>
<text text-anchor="middle" x="468" y="-8.5" font-family="Helvetica,sans-Serif" font-size="10.00">matched_from_line_density</text>
</a>
</g>
<!-- Node9&#45;&gt;Node11 -->
<g id="edge22" class="edge"><title>Node9&#45;&gt;Node11</title>
<path fill="none" stroke="midnightblue" d="M373.839,-25.7481C382.807,-24.3435 391.951,-22.9112 400.844,-21.5184"/>
<polygon fill="midnightblue" stroke="midnightblue" points="373.15,-22.3132 363.812,-27.3186 374.233,-29.2289 373.15,-22.3132"/>
</g>
</g>
</svg>
