<?xml version="1.0" encoding="UTF-8" standalone="no"?>
<!DOCTYPE svg PUBLIC "-//W3C//DTD SVG 1.1//EN"
 "http://www.w3.org/Graphics/SVG/1.1/DTD/svg11.dtd">
<!-- Generated by graphviz version 2.26.3 (20100126.1600)
 -->
<!-- Title: vdt::fast_sin Pages: 1 -->
<!--zoomable 142 -->
<svg id="main" version="1.1" xmlns="http://www.w3.org/2000/svg" xmlns:xlink="http://www.w3.org/1999/xlink" xml:space="preserve" onload="init(evt)">
        <defs>
                <circle id="rim" cx="0" cy="0" r="7"/>
                <circle id="rim2" cx="0" cy="0" r="3.5"/>
                <g id="zoomPlus">
                        <use xlink:href="#rim" fill="#404040">
                                <set attributeName="fill" to="#808080" begin="zoomplus.mouseover" end="zoomplus.mouseout"/>
                        </use>
                        <path d="M-4,0h8M0,-4v8" fill="none" stroke="white" stroke-width="1.5" pointer-events="none"/>
                </g>
                <g id="zoomMin">
                        <use xlink:href="#rim" fill="#404040">
                                <set attributeName="fill" to="#808080" begin="zoomminus.mouseover" end="zoomminus.mouseout"/>
                        </use>
                        <path d="M-4,0h8" fill="none" stroke="white" stroke-width="1.5" pointer-events="none"/>
                </g>
                <g id="dirArrow">
                        <path fill="none" stroke="white" stroke-width="1.5" d="M0,-3.0v7 M-2.5,-0.5L0,-3.0L2.5,-0.5"/>
                </g>
               <g id="resetDef">
                       <use xlink:href="#rim2" fill="#404040">
                               <set attributeName="fill" to="#808080" begin="reset.mouseover" end="reset.mouseout"/>
                       </use>
               </g>
        </defs>

<script type="text/javascript">
var viewWidth = 710;
var viewHeight = 142;
var sectionId = 'dynsection-4';
</script>
<script xlink:href="../../svgpan.js"/>
<svg id="graph" class="graph">
<g id="viewport">
<title>vdt::fast_sin</title>
<polygon fill="white" stroke="white" points="-4,5 -4,-138 707,-138 707,5 -4,5"/>
<!-- Node1 -->
<g id="node1" class="node"><title>Node1</title>
<polygon fill="#bfbfbf" stroke="black" points="0.5,-92.5 0.5,-113.5 71.5,-113.5 71.5,-92.5 0.5,-92.5"/>
<text text-anchor="middle" x="36" y="-100.5" font-family="Helvetica,sans-Serif" font-size="10.00">vdt::fast_sin</text>
</g>
<!-- Node2 -->
<g id="node3" class="node"><title>Node2</title>
<a xlink:href="../../df/d6d/namespacemymath.html#a7e61fb3b4b1b043286fb14b823e8a401" target="_top" xlink:title="mymath::fast_cos">
<polygon fill="white" stroke="black" points="108.5,-112.5 108.5,-133.5 203.5,-133.5 203.5,-112.5 108.5,-112.5"/>
<text text-anchor="middle" x="156" y="-120.5" font-family="Helvetica,sans-Serif" font-size="10.00">mymath::fast_cos</text>
</a>
</g>
<!-- Node1&#45;&gt;Node2 -->
<g id="edge2" class="edge"><title>Node1&#45;&gt;Node2</title>
<path fill="none" stroke="midnightblue" d="M81.6468,-110.608C90.3456,-112.058 99.472,-113.579 108.235,-115.039"/>
<polygon fill="midnightblue" stroke="midnightblue" points="82.1184,-107.138 71.6791,-108.947 80.9676,-114.043 82.1184,-107.138"/>
</g>
<!-- Node6 -->
<g id="node11" class="node"><title>Node6</title>
<a xlink:href="../../df/d6d/namespacemymath.html#ad1aa822800d7c0b68cec8efe86a34602" target="_top" xlink:title="mymath::fast_sin">
<polygon fill="white" stroke="black" points="110,-72.5 110,-93.5 202,-93.5 202,-72.5 110,-72.5"/>
<text text-anchor="middle" x="156" y="-80.5" font-family="Helvetica,sans-Serif" font-size="10.00">mymath::fast_sin</text>
</a>
</g>
<!-- Node1&#45;&gt;Node6 -->
<g id="edge10" class="edge"><title>Node1&#45;&gt;Node6</title>
<path fill="none" stroke="midnightblue" d="M81.5443,-95.4093C90.8569,-93.8572 100.664,-92.2227 109.992,-90.668"/>
<polygon fill="midnightblue" stroke="midnightblue" points="80.9676,-91.957 71.6791,-97.0535 82.1184,-98.8618 80.9676,-91.957"/>
</g>
<!-- Node3 -->
<g id="node5" class="node"><title>Node3</title>
<a xlink:href="../../de/d44/trackers_2utilities_8h.html#a87fe86bb22d0eb949c7eda2b11e8e83d" target="_top" xlink:title="hamiltonian">
<polygon fill="white" stroke="black" points="269,-112.5 269,-133.5 335,-133.5 335,-112.5 269,-112.5"/>
<text text-anchor="middle" x="302" y="-120.5" font-family="Helvetica,sans-Serif" font-size="10.00">hamiltonian</text>
</a>
</g>
<!-- Node2&#45;&gt;Node3 -->
<g id="edge4" class="edge"><title>Node2&#45;&gt;Node3</title>
<path fill="none" stroke="midnightblue" d="M213.991,-123C232.637,-123 252.648,-123 268.87,-123"/>
<polygon fill="midnightblue" stroke="midnightblue" points="213.806,-119.5 203.806,-123 213.806,-126.5 213.806,-119.5"/>
</g>
<!-- Node4 -->
<g id="node7" class="node"><title>Node4</title>
<a xlink:href="../../de/d44/trackers_2utilities_8h.html#a48654bec1980aab27c0929236af271bb" target="_top" xlink:title="is_in_separatrix">
<polygon fill="white" stroke="black" points="425.5,-112.5 425.5,-133.5 510.5,-133.5 510.5,-112.5 425.5,-112.5"/>
<text text-anchor="middle" x="468" y="-120.5" font-family="Helvetica,sans-Serif" font-size="10.00">is_in_separatrix</text>
</a>
</g>
<!-- Node3&#45;&gt;Node4 -->
<g id="edge6" class="edge"><title>Node3&#45;&gt;Node4</title>
<path fill="none" stroke="midnightblue" d="M345.362,-123C370.044,-123 400.838,-123 425.394,-123"/>
<polygon fill="midnightblue" stroke="midnightblue" points="345.194,-119.5 335.194,-123 345.194,-126.5 345.194,-119.5"/>
</g>
<!-- Node5 -->
<g id="node9" class="node"><title>Node5</title>
<a xlink:href="../../d9/d7c/classBeams.html#a76e4b807fd1a83ae8fe190a774acaa19" target="_top" xlink:title="Beams::losses_separatrix">
<polygon fill="white" stroke="black" points="572,-112.5 572,-133.5 702,-133.5 702,-112.5 572,-112.5"/>
<text text-anchor="middle" x="637" y="-120.5" font-family="Helvetica,sans-Serif" font-size="10.00">Beams::losses_separatrix</text>
</a>
</g>
<!-- Node4&#45;&gt;Node5 -->
<g id="edge8" class="edge"><title>Node4&#45;&gt;Node5</title>
<path fill="none" stroke="midnightblue" d="M520.98,-123C537.147,-123 555.11,-123 571.977,-123"/>
<polygon fill="midnightblue" stroke="midnightblue" points="520.646,-119.5 510.646,-123 520.646,-126.5 520.646,-119.5"/>
</g>
<!-- Node6&#45;&gt;Node3 -->
<g id="edge12" class="edge"><title>Node6&#45;&gt;Node3</title>
<path fill="none" stroke="midnightblue" d="M204.16,-96.1946C225.362,-102.003 249.736,-108.681 268.853,-113.919"/>
<polygon fill="midnightblue" stroke="midnightblue" points="204.929,-92.7763 194.36,-93.5095 203.08,-99.5276 204.929,-92.7763"/>
</g>
<!-- Node7 -->
<g id="node14" class="node"><title>Node7</title>
<a xlink:href="../../de/da1/classRingAndRfSection.html#a9edad70fb4b1103d9b0ac3f522be57fe" target="_top" xlink:title="RingAndRfSection::kick">
<polygon fill="white" stroke="black" points="241,-72.5 241,-93.5 363,-93.5 363,-72.5 241,-72.5"/>
<text text-anchor="middle" x="302" y="-80.5" font-family="Helvetica,sans-Serif" font-size="10.00">RingAndRfSection::kick</text>
</a>
</g>
<!-- Node6&#45;&gt;Node7 -->
<g id="edge14" class="edge"><title>Node6&#45;&gt;Node7</title>
<path fill="none" stroke="midnightblue" d="M212.199,-83C221.588,-83 231.37,-83 240.876,-83"/>
<polygon fill="midnightblue" stroke="midnightblue" points="212.195,-79.5001 202.195,-83 212.195,-86.5001 212.195,-79.5001"/>
</g>
<!-- Node8 -->
<g id="node16" class="node"><title>Node8</title>
<a xlink:href="../../d6/d13/classFullRingAndRf.html#abf38f0c9ebe6bb856b6d4ca473ad0e5c" target="_top" xlink:title="FullRingAndRf::potential\l_well_generation">
<polygon fill="white" stroke="black" points="240.5,-20 240.5,-54 363.5,-54 363.5,-20 240.5,-20"/>
<text text-anchor="start" x="248.5" y="-41" font-family="Helvetica,sans-Serif" font-size="10.00">FullRingAndRf::potential</text>
<text text-anchor="middle" x="302" y="-28" font-family="Helvetica,sans-Serif" font-size="10.00">_well_generation</text>
</a>
</g>
<!-- Node6&#45;&gt;Node8 -->
<g id="edge16" class="edge"><title>Node6&#45;&gt;Node8</title>
<path fill="none" stroke="midnightblue" d="M199.171,-69.398C214.409,-64.5972 231.74,-59.1366 247.775,-54.0845"/>
<polygon fill="midnightblue" stroke="midnightblue" points="197.981,-66.1033 189.495,-72.4467 200.085,-72.7798 197.981,-66.1033"/>
</g>
<!-- Node9 -->
<g id="node18" class="node"><title>Node9</title>
<a xlink:href="../../dc/d7d/Distributions_8h.html#a39ba163b714fe197bd81ac64ffa48d30" target="_top" xlink:title="matched_from_distribution\l_density">
<polygon fill="white" stroke="black" points="402.5,-40 402.5,-74 533.5,-74 533.5,-40 402.5,-40"/>
<text text-anchor="start" x="410.5" y="-61" font-family="Helvetica,sans-Serif" font-size="10.00">matched_from_distribution</text>
<text text-anchor="middle" x="468" y="-48" font-family="Helvetica,sans-Serif" font-size="10.00">_density</text>
</a>
</g>
<!-- Node8&#45;&gt;Node9 -->
<g id="edge18" class="edge"><title>Node8&#45;&gt;Node9</title>
<path fill="none" stroke="midnightblue" d="M373.925,-45.6657C383.336,-46.7996 392.941,-47.9568 402.243,-49.0775"/>
<polygon fill="midnightblue" stroke="midnightblue" points="374.159,-42.1686 363.812,-44.4473 373.322,-49.1184 374.159,-42.1686"/>
</g>
<!-- Node10 -->
<g id="node20" class="node"><title>Node10</title>
<a xlink:href="../../dc/d7d/Distributions_8h.html#af8a750601d38e475a922ae843f837cc9" target="_top" xlink:title="matched_from_line_density">
<polygon fill="white" stroke="black" points="400,-0.5 400,-21.5 536,-21.5 536,-0.5 400,-0.5"/>
<text text-anchor="middle" x="468" y="-8.5" font-family="Helvetica,sans-Serif" font-size="10.00">matched_from_line_density</text>
</a>
</g>
<!-- Node8&#45;&gt;Node10 -->
<g id="edge20" class="edge"><title>Node8&#45;&gt;Node10</title>
<path fill="none" stroke="midnightblue" d="M373.839,-25.7481C382.807,-24.3435 391.951,-22.9112 400.844,-21.5184"/>
<polygon fill="midnightblue" stroke="midnightblue" points="373.15,-22.3132 363.812,-27.3186 374.233,-29.2289 373.15,-22.3132"/>
</g>
</g>
</svg>
        <g id="navigator" transform="translate(0 0)" fill="#404254">
                <rect fill="#f2f5e9" fill-opacity="0.5" stroke="#606060" stroke-width=".5" x="0" y="0" width="60" height="60"/>
                <use id="zoomplus" xlink:href="#zoomPlus" x="17" y="9" onmousedown="handleZoom(evt,'in')"/>
                <use id="zoomminus" xlink:href="#zoomMin" x="42" y="9" onmousedown="handleZoom(evt,'out')"/>
                <use id="reset" xlink:href="#resetDef" x="30" y="36" onmousedown="handleReset()"/>
                <g id="arrowUp" xlink:href="#dirArrow" transform="translate(30 24)" onmousedown="handlePan(0,-1)">
                  <use xlink:href="#rim" fill="#404040">
                        <set attributeName="fill" to="#808080" begin="arrowUp.mouseover" end="arrowUp.mouseout"/>
                  </use>
                  <path fill="none" stroke="white" stroke-width="1.5" d="M0,-3.0v7 M-2.5,-0.5L0,-3.0L2.5,-0.5"/>
                </g>
                <g id="arrowRight" xlink:href="#dirArrow" transform="rotate(90) translate(36 -43)" onmousedown="handlePan(1,0)">
                  <use xlink:href="#rim" fill="#404040">
                        <set attributeName="fill" to="#808080" begin="arrowRight.mouseover" end="arrowRight.mouseout"/>
                  </use>
                  <path fill="none" stroke="white" stroke-width="1.5" d="M0,-3.0v7 M-2.5,-0.5L0,-3.0L2.5,-0.5"/>
                </g>
                <g id="arrowDown" xlink:href="#dirArrow" transform="rotate(180) translate(-30 -48)" onmousedown="handlePan(0,1)">
                  <use xlink:href="#rim" fill="#404040">
                        <set attributeName="fill" to="#808080" begin="arrowDown.mouseover" end="arrowDown.mouseout"/>
                  </use>
                  <path fill="none" stroke="white" stroke-width="1.5" d="M0,-3.0v7 M-2.5,-0.5L0,-3.0L2.5,-0.5"/>
                </g>
                <g id="arrowLeft" xlink:href="#dirArrow" transform="rotate(270) translate(-36 17)" onmousedown="handlePan(-1,0)">
                  <use xlink:href="#rim" fill="#404040">
                        <set attributeName="fill" to="#808080" begin="arrowLeft.mouseover" end="arrowLeft.mouseout"/>
                  </use>
                  <path fill="none" stroke="white" stroke-width="1.5" d="M0,-3.0v7 M-2.5,-0.5L0,-3.0L2.5,-0.5"/>
                </g>
        </g>
        <svg viewBox="0 0 15 15" width="100%" height="30px" preserveAspectRatio="xMaxYMin meet">
         <g id="arrow_out" transform="scale(0.3 0.3)">
          <a xlink:href="namespacevdt_a0013dcb44ade5e87e083c6a0daddcfd9_icgraph_org.svg" target="_base">
           <rect id="button" ry="5" rx="5" y="6" x="6" height="38" width="38"
                fill="#f2f5e9" fill-opacity="0.5" stroke="#606060" stroke-width="1.0"/>
           <path id="arrow"
             d="M 11.500037,31.436501 C 11.940474,20.09759 22.043105,11.32322 32.158766,21.979434 L 37.068811,17.246167 C 37.068811,17.246167 37.088388,32 37.088388,32 L 22.160133,31.978069 C 22.160133,31.978069 26.997745,27.140456 26.997745,27.140456 C 18.528582,18.264221 13.291696,25.230495 11.500037,31.436501 z"
             style="fill:#404040;"/>
          </a>
         </g>
        </svg>
</svg>
