<?xml version="1.0" encoding="UTF-8" standalone="no"?>
<!DOCTYPE svg PUBLIC "-//W3C//DTD SVG 1.1//EN"
 "http://www.w3.org/Graphics/SVG/1.1/DTD/svg11.dtd">
<!-- Generated by graphviz version 2.26.3 (20100126.1600)
 -->
<!-- Title: vdt::fast_sin Pages: 1 -->
<svg width="710pt" height="205pt"
 viewBox="0.00 0.00 710.00 205.00" xmlns="http://www.w3.org/2000/svg" xmlns:xlink="http://www.w3.org/1999/xlink">
<g id="graph1" class="graph" transform="scale(1 1) rotate(0) translate(4 201)">
<title>vdt::fast_sin</title>
<polygon fill="white" stroke="white" points="-4,5 -4,-201 707,-201 707,5 -4,5"/>
<!-- Node1 -->
<g id="node1" class="node"><title>Node1</title>
<polygon fill="#bfbfbf" stroke="black" points="0.5,-115.5 0.5,-136.5 71.5,-136.5 71.5,-115.5 0.5,-115.5"/>
<text text-anchor="middle" x="36" y="-123.5" font-family="Helvetica,sans-Serif" font-size="10.00">vdt::fast_sin</text>
</g>
<!-- Node2 -->
<g id="node3" class="node"><title>Node2</title>
<a xlink:href="../../df/d6d/namespacemymath.html#a56db34e8382851729defc7a3eb906220" target="_top" xlink:title="mymath::fast_cos">
<polygon fill="white" stroke="black" points="108.5,-135.5 108.5,-156.5 203.5,-156.5 203.5,-135.5 108.5,-135.5"/>
<text text-anchor="middle" x="156" y="-143.5" font-family="Helvetica,sans-Serif" font-size="10.00">mymath::fast_cos</text>
</a>
</g>
<!-- Node1&#45;&gt;Node2 -->
<g id="edge2" class="edge"><title>Node1&#45;&gt;Node2</title>
<path fill="none" stroke="midnightblue" d="M81.6468,-133.608C90.3456,-135.058 99.472,-136.579 108.235,-138.039"/>
<polygon fill="midnightblue" stroke="midnightblue" points="82.1184,-130.138 71.6791,-131.947 80.9676,-137.043 82.1184,-130.138"/>
</g>
<!-- Node8 -->
<g id="node15" class="node"><title>Node8</title>
<a xlink:href="../../df/d6d/namespacemymath.html#a38897799c9327d162f914bbb097fb8e3" target="_top" xlink:title="mymath::fast_sin">
<polygon fill="white" stroke="black" points="110,-95.5 110,-116.5 202,-116.5 202,-95.5 110,-95.5"/>
<text text-anchor="middle" x="156" y="-103.5" font-family="Helvetica,sans-Serif" font-size="10.00">mymath::fast_sin</text>
</a>
</g>
<!-- Node1&#45;&gt;Node8 -->
<g id="edge14" class="edge"><title>Node1&#45;&gt;Node8</title>
<path fill="none" stroke="midnightblue" d="M81.5443,-118.409C90.8569,-116.857 100.664,-115.223 109.992,-113.668"/>
<polygon fill="midnightblue" stroke="midnightblue" points="80.9676,-114.957 71.6791,-120.053 82.1184,-121.862 80.9676,-114.957"/>
</g>
<!-- Node3 -->
<g id="node5" class="node"><title>Node3</title>
<a xlink:href="../../de/d44/trackers_2utilities_8h.html#a31907045e09e1acf77495337b7c92830" target="_top" xlink:title="hamiltonian">
<polygon fill="white" stroke="black" points="269,-155.5 269,-176.5 335,-176.5 335,-155.5 269,-155.5"/>
<text text-anchor="middle" x="302" y="-163.5" font-family="Helvetica,sans-Serif" font-size="10.00">hamiltonian</text>
</a>
</g>
<!-- Node2&#45;&gt;Node3 -->
<g id="edge4" class="edge"><title>Node2&#45;&gt;Node3</title>
<path fill="none" stroke="midnightblue" d="M213.733,-153.909C232.452,-156.473 252.573,-159.229 268.87,-161.462"/>
<polygon fill="midnightblue" stroke="midnightblue" points="214.188,-150.438 203.806,-152.549 213.238,-157.374 214.188,-150.438"/>
</g>
<!-- Node7 -->
<g id="node13" class="node"><title>Node7</title>
<a xlink:href="../../d2/d2f/classMusic.html#a2016c0b24cc8359176692b37f8f1917e" target="_top" xlink:title="Music::track">
<polygon fill="white" stroke="black" points="266.5,-115.5 266.5,-136.5 337.5,-136.5 337.5,-115.5 266.5,-115.5"/>
<text text-anchor="middle" x="302" y="-123.5" font-family="Helvetica,sans-Serif" font-size="10.00">Music::track</text>
</a>
</g>
<!-- Node2&#45;&gt;Node7 -->
<g id="edge12" class="edge"><title>Node2&#45;&gt;Node7</title>
<path fill="none" stroke="midnightblue" d="M214,-138.055C231.607,-135.643 250.432,-133.064 266.132,-130.913"/>
<polygon fill="midnightblue" stroke="midnightblue" points="213.238,-134.626 203.806,-139.451 214.188,-141.562 213.238,-134.626"/>
</g>
<!-- Node4 -->
<g id="node7" class="node"><title>Node4</title>
<a xlink:href="../../de/d44/trackers_2utilities_8h.html#a8813a5065ff3ab5a0923846ab24ea265" target="_top" xlink:title="is_in_separatrix">
<polygon fill="white" stroke="black" points="425.5,-155.5 425.5,-176.5 510.5,-176.5 510.5,-155.5 425.5,-155.5"/>
<text text-anchor="middle" x="468" y="-163.5" font-family="Helvetica,sans-Serif" font-size="10.00">is_in_separatrix</text>
</a>
</g>
<!-- Node3&#45;&gt;Node4 -->
<g id="edge6" class="edge"><title>Node3&#45;&gt;Node4</title>
<path fill="none" stroke="midnightblue" d="M345.362,-166C370.044,-166 400.838,-166 425.394,-166"/>
<polygon fill="midnightblue" stroke="midnightblue" points="345.194,-162.5 335.194,-166 345.194,-169.5 345.194,-162.5"/>
</g>
<!-- Node5 -->
<g id="node9" class="node"><title>Node5</title>
<a xlink:href="../../dc/d7d/Distributions_8h.html#ad9600030e832de537807b8cae4b59590" target="_top" xlink:title="longitudinal_bigaussian">
<polygon fill="white" stroke="black" points="578.5,-175.5 578.5,-196.5 695.5,-196.5 695.5,-175.5 578.5,-175.5"/>
<text text-anchor="middle" x="637" y="-183.5" font-family="Helvetica,sans-Serif" font-size="10.00">longitudinal_bigaussian</text>
</a>
</g>
<!-- Node4&#45;&gt;Node5 -->
<g id="edge8" class="edge"><title>Node4&#45;&gt;Node5</title>
<path fill="none" stroke="midnightblue" d="M520.822,-172.251C539.103,-174.415 559.695,-176.852 578.411,-179.066"/>
<polygon fill="midnightblue" stroke="midnightblue" points="520.988,-168.746 510.646,-171.047 520.165,-175.698 520.988,-168.746"/>
</g>
<!-- Node6 -->
<g id="node11" class="node"><title>Node6</title>
<a xlink:href="../../d9/d7c/classBeams.html#a76e4b807fd1a83ae8fe190a774acaa19" target="_top" xlink:title="Beams::losses_separatrix">
<polygon fill="white" stroke="black" points="572,-135.5 572,-156.5 702,-156.5 702,-135.5 572,-135.5"/>
<text text-anchor="middle" x="637" y="-143.5" font-family="Helvetica,sans-Serif" font-size="10.00">Beams::losses_separatrix</text>
</a>
</g>
<!-- Node4&#45;&gt;Node6 -->
<g id="edge10" class="edge"><title>Node4&#45;&gt;Node6</title>
<path fill="none" stroke="midnightblue" d="M520.98,-159.73C537.147,-157.817 555.11,-155.691 571.977,-153.695"/>
<polygon fill="midnightblue" stroke="midnightblue" points="520.165,-156.302 510.646,-160.953 520.988,-163.254 520.165,-156.302"/>
</g>
<!-- Node8&#45;&gt;Node3 -->
<g id="edge16" class="edge"><title>Node8&#45;&gt;Node3</title>
<path fill="none" stroke="midnightblue" d="M192.185,-120.563C196.2,-122.331 200.206,-124.163 204,-126 220.474,-133.977 223.21,-138.711 240,-146 249.13,-149.963 259.309,-153.565 268.737,-156.586"/>
<polygon fill="midnightblue" stroke="midnightblue" points="193.465,-117.304 182.895,-116.582 190.708,-123.738 193.465,-117.304"/>
</g>
<!-- Node8&#45;&gt;Node7 -->
<g id="edge26" class="edge"><title>Node8&#45;&gt;Node7</title>
<path fill="none" stroke="midnightblue" d="M212.121,-113.688C230.317,-116.18 249.994,-118.876 266.284,-121.107"/>
<polygon fill="midnightblue" stroke="midnightblue" points="212.578,-110.218 202.195,-112.328 211.628,-117.153 212.578,-110.218"/>
</g>
<!-- Node9 -->
<g id="node18" class="node"><title>Node9</title>
<a xlink:href="../../de/da1/classRingAndRfSection.html#a10f29492bc5c4da2f978d76e6ffef564" target="_top" xlink:title="RingAndRfSection::kick">
<polygon fill="white" stroke="black" points="241,-75.5 241,-96.5 363,-96.5 363,-75.5 241,-75.5"/>
<text text-anchor="middle" x="302" y="-83.5" font-family="Helvetica,sans-Serif" font-size="10.00">RingAndRfSection::kick</text>
</a>
</g>
<!-- Node8&#45;&gt;Node9 -->
<g id="edge18" class="edge"><title>Node8&#45;&gt;Node9</title>
<path fill="none" stroke="midnightblue" d="M212.199,-98.3016C221.588,-97.0153 231.37,-95.6753 240.876,-94.3732"/>
<polygon fill="midnightblue" stroke="midnightblue" points="211.628,-94.847 202.195,-99.6719 212.578,-101.782 211.628,-94.847"/>
</g>
<!-- Node10 -->
<g id="node20" class="node"><title>Node10</title>
<a xlink:href="../../d6/d13/classFullRingAndRf.html#a76ca8401684654596782338b81268ef2" target="_top" xlink:title="FullRingAndRf::potential\l_well_generation">
<polygon fill="white" stroke="black" points="240.5,-23 240.5,-57 363.5,-57 363.5,-23 240.5,-23"/>
<text text-anchor="start" x="248.5" y="-44" font-family="Helvetica,sans-Serif" font-size="10.00">FullRingAndRf::potential</text>
<text text-anchor="middle" x="302" y="-31" font-family="Helvetica,sans-Serif" font-size="10.00">_well_generation</text>
</a>
</g>
<!-- Node8&#45;&gt;Node10 -->
<g id="edge20" class="edge"><title>Node8&#45;&gt;Node10</title>
<path fill="none" stroke="midnightblue" d="M186.922,-90.8453C202.719,-83.2128 222.296,-73.922 240,-66 246.606,-63.0442 253.648,-59.9951 260.529,-57.0713"/>
<polygon fill="midnightblue" stroke="midnightblue" points="185.094,-87.8421 177.624,-95.3564 188.149,-94.14 185.094,-87.8421"/>
</g>
<!-- Node11 -->
<g id="node22" class="node"><title>Node11</title>
<a xlink:href="../../dc/d7d/Distributions_8h.html#a5493d96431d1b52db9fc4617281f457d" target="_top" xlink:title="matched_from_distribution\l_density">
<polygon fill="white" stroke="black" points="402.5,-0 402.5,-34 533.5,-34 533.5,-0 402.5,-0"/>
<text text-anchor="start" x="410.5" y="-21" font-family="Helvetica,sans-Serif" font-size="10.00">matched_from_distribution</text>
<text text-anchor="middle" x="468" y="-8" font-family="Helvetica,sans-Serif" font-size="10.00">_density</text>
</a>
</g>
<!-- Node10&#45;&gt;Node11 -->
<g id="edge22" class="edge"><title>Node10&#45;&gt;Node11</title>
<path fill="none" stroke="midnightblue" d="M373.925,-30.0345C383.336,-28.7305 392.941,-27.3997 402.243,-26.1109"/>
<polygon fill="midnightblue" stroke="midnightblue" points="373.237,-26.5963 363.812,-31.4356 374.198,-33.53 373.237,-26.5963"/>
</g>
<!-- Node12 -->
<g id="node24" class="node"><title>Node12</title>
<a xlink:href="../../dc/d7d/Distributions_8h.html#a00d3d5dce2d6cb66bd5b4bcc53abb901" target="_top" xlink:title="matched_from_line_density">
<polygon fill="white" stroke="black" points="400,-52.5 400,-73.5 536,-73.5 536,-52.5 400,-52.5"/>
<text text-anchor="middle" x="468" y="-60.5" font-family="Helvetica,sans-Serif" font-size="10.00">matched_from_line_density</text>
</a>
</g>
<!-- Node10&#45;&gt;Node12 -->
<g id="edge24" class="edge"><title>Node10&#45;&gt;Node12</title>
<path fill="none" stroke="midnightblue" d="M373.81,-49.9496C382.41,-51.1412 391.174,-52.3554 399.722,-53.5397"/>
<polygon fill="midnightblue" stroke="midnightblue" points="374.198,-46.47 363.812,-48.5644 373.237,-53.4037 374.198,-46.47"/>
</g>
</g>
</svg>
