<?xml version="1.0" encoding="UTF-8" standalone="no"?>
<!DOCTYPE svg PUBLIC "-//W3C//DTD SVG 1.1//EN"
 "http://www.w3.org/Graphics/SVG/1.1/DTD/svg11.dtd">
<!-- Generated by graphviz version 2.26.3 (20100126.1600)
 -->
<!-- Title: blond::optionparser::PrintUsageImplementation::TemporaryWriter&lt; Temporary &gt; Pages: 1 -->
<svg width="264pt" height="252pt"
 viewBox="0.00 0.00 264.00 252.00" xmlns="http://www.w3.org/2000/svg" xmlns:xlink="http://www.w3.org/1999/xlink">
<g id="graph1" class="graph" transform="scale(1 1) rotate(0) translate(4 248)">
<title>blond::optionparser::PrintUsageImplementation::TemporaryWriter&lt; Temporary &gt;</title>
<polygon fill="white" stroke="white" points="-4,5 -4,-248 261,-248 261,5 -4,5"/>
<!-- Node1 -->
<g id="node1" class="node"><title>Node1</title>
<polygon fill="#bfbfbf" stroke="black" points="57,-1 57,-103 217,-103 217,-1 57,-1"/>
<text text-anchor="start" x="65" y="-90" font-family="Helvetica,sans-Serif" font-size="10.00">blond::optionparser</text>
<text text-anchor="start" x="65" y="-77" font-family="Helvetica,sans-Serif" font-size="10.00">::PrintUsageImplementation</text>
<text text-anchor="middle" x="137" y="-64" font-family="Helvetica,sans-Serif" font-size="10.00">::TemporaryWriter&lt; Temporary &gt;</text>
<polyline fill="none" stroke="black" points="57,-56 217,-56 "/>
<text text-anchor="middle" x="137" y="-43" font-family="Helvetica,sans-Serif" font-size="10.00"> </text>
<polyline fill="none" stroke="black" points="57,-35 217,-35 "/>
<text text-anchor="start" x="65" y="-22" font-family="Helvetica,sans-Serif" font-size="10.00">+ TemporaryWriter()</text>
<text text-anchor="start" x="65" y="-9" font-family="Helvetica,sans-Serif" font-size="10.00">+ operator()()</text>
</g>
<!-- Node2 -->
<g id="node2" class="node"><title>Node2</title>
<a xlink:href="../../d5/d5c/structblond_1_1optionparser_1_1PrintUsageImplementation_1_1IStringWriter.html" target="_top" xlink:title="{blond::optionparser\l::PrintUsageImplementation\l::IStringWriter\n||+ operator()()\l}">
<polygon fill="white" stroke="black" points="0,-154.5 0,-243.5 138,-243.5 138,-154.5 0,-154.5"/>
<text text-anchor="start" x="8" y="-230.5" font-family="Helvetica,sans-Serif" font-size="10.00">blond::optionparser</text>
<text text-anchor="start" x="8" y="-217.5" font-family="Helvetica,sans-Serif" font-size="10.00">::PrintUsageImplementation</text>
<text text-anchor="middle" x="69" y="-204.5" font-family="Helvetica,sans-Serif" font-size="10.00">::IStringWriter</text>
<polyline fill="none" stroke="black" points="0,-196.5 138,-196.5 "/>
<text text-anchor="middle" x="69" y="-183.5" font-family="Helvetica,sans-Serif" font-size="10.00"> </text>
<polyline fill="none" stroke="black" points="0,-175.5 138,-175.5 "/>
<text text-anchor="start" x="8" y="-162.5" font-family="Helvetica,sans-Serif" font-size="10.00">+ operator()()</text>
</a>
</g>
<!-- Node2&#45;&gt;Node1 -->
<g id="edge2" class="edge"><title>Node2&#45;&gt;Node1</title>
<path fill="none" stroke="midnightblue" d="M93.906,-145.159C100.268,-131.406 107.089,-116.661 113.384,-103.052"/>
<polygon fill="none" stroke="midnightblue" points="90.6086,-143.951 89.5868,-154.496 96.9618,-146.89 90.6086,-143.951"/>
</g>
<!-- Node3 -->
<g id="node4" class="node"><title>Node3</title>
<polygon fill="white" stroke="#bfbfbf" points="156,-167.5 156,-230.5 256,-230.5 256,-167.5 156,-167.5"/>
<text text-anchor="middle" x="206" y="-217.5" font-family="Helvetica,sans-Serif" font-size="10.00">const Temporary &amp;</text>
<polyline fill="none" stroke="#bfbfbf" points="156,-209.5 256,-209.5 "/>
<text text-anchor="middle" x="206" y="-196.5" font-family="Helvetica,sans-Serif" font-size="10.00"> </text>
<polyline fill="none" stroke="#bfbfbf" points="156,-188.5 256,-188.5 "/>
<text text-anchor="middle" x="206" y="-175.5" font-family="Helvetica,sans-Serif" font-size="10.00"> </text>
</g>
<!-- Node3&#45;&gt;Node1 -->
<g id="edge4" class="edge"><title>Node3&#45;&gt;Node1</title>
<path fill="none" stroke="#404040" d="M191.198,-167.465C183.883,-151.882 174.793,-132.515 166.159,-114.122"/>
<polygon fill="none" stroke="#404040" points="166.104,-114.004 159.933,-110.272 161.005,-103.141 167.175,-106.873 166.104,-114.004"/>
<text text-anchor="middle" x="204" y="-126.5" font-family="Helvetica,sans-Serif" font-size="10.00"> +userstream</text>
</g>
</g>
</svg>
