<?xml version="1.0" encoding="UTF-8" standalone="no"?>
<!DOCTYPE svg PUBLIC "-//W3C//DTD SVG 1.1//EN"
 "http://www.w3.org/Graphics/SVG/1.1/DTD/svg11.dtd">
<!-- Generated by graphviz version 2.26.3 (20100126.1600)
 -->
<!-- Title: math_functions.h Pages: 1 -->
<svg width="1495pt" height="494pt"
 viewBox="0.00 0.00 1495.39 494.00" xmlns="http://www.w3.org/2000/svg" xmlns:xlink="http://www.w3.org/1999/xlink">
<g id="graph1" class="graph" transform="scale(1 1) rotate(0) translate(4 490)">
<title>math_functions.h</title>
<polygon fill="white" stroke="white" points="-4,5 -4,-490 1492.39,-490 1492.39,5 -4,5"/>
<!-- Node1 -->
<g id="node1" class="node"><title>Node1</title>
<polygon fill="#bfbfbf" stroke="black" points="1096.39,-464.5 1096.39,-485.5 1188.39,-485.5 1188.39,-464.5 1096.39,-464.5"/>
<text text-anchor="middle" x="1142.39" y="-472.5" font-family="Helvetica,sans-Serif" font-size="10.00">math_functions.h</text>
</g>
<!-- Node2 -->
<g id="node3" class="node"><title>Node2</title>
<a xlink:href="../../dc/d0f/Beams_8cpp.html" target="_top" xlink:title="Beams.cpp">
<polygon fill="white" stroke="black" points="147.394,-290.5 147.394,-311.5 213.394,-311.5 213.394,-290.5 147.394,-290.5"/>
<text text-anchor="middle" x="180.394" y="-298.5" font-family="Helvetica,sans-Serif" font-size="10.00">Beams.cpp</text>
</a>
</g>
<!-- Node1&#45;&gt;Node2 -->
<g id="edge2" class="edge"><title>Node1&#45;&gt;Node2</title>
<path fill="none" stroke="midnightblue" d="M1085.83,-472.594C978.782,-467.599 739.389,-454.308 539.394,-428 399.557,-409.605 345.501,-447.095 227.394,-370 205.426,-355.66 191.027,-327.105 184.476,-311.604"/>
<polygon fill="midnightblue" stroke="midnightblue" points="1085.92,-476.102 1096.07,-473.066 1086.25,-469.11 1085.92,-476.102"/>
</g>
<!-- Node3 -->
<g id="node5" class="node"><title>Node3</title>
<a xlink:href="../../d7/d91/Slices_8cpp.html" target="_top" xlink:title="Slices.cpp">
<polygon fill="white" stroke="black" points="433.394,-232.5 433.394,-253.5 495.394,-253.5 495.394,-232.5 433.394,-232.5"/>
<text text-anchor="middle" x="464.394" y="-240.5" font-family="Helvetica,sans-Serif" font-size="10.00">Slices.cpp</text>
</a>
</g>
<!-- Node1&#45;&gt;Node3 -->
<g id="edge4" class="edge"><title>Node1&#45;&gt;Node3</title>
<path fill="none" stroke="midnightblue" d="M1086.21,-474.154C890.386,-470.955 245.107,-458.206 157.394,-428 80.6678,-401.578 47.7685,-386.838 16.3942,-312 -22.5773,-219.04 -20.5991,-302.475 386.394,-254 401.875,-252.156 419.036,-249.773 433.311,-247.697"/>
<polygon fill="midnightblue" stroke="midnightblue" points="1086.23,-477.655 1096.28,-474.317 1086.34,-470.656 1086.23,-477.655"/>
</g>
<!-- Node4 -->
<g id="node7" class="node"><title>Node4</title>
<a xlink:href="../../d5/dfa/InducedVoltage_8cpp.html" target="_top" xlink:title="InducedVoltage.cpp">
<polygon fill="white" stroke="black" points="934.894,-232.5 934.894,-253.5 1037.89,-253.5 1037.89,-232.5 934.894,-232.5"/>
<text text-anchor="middle" x="986.394" y="-240.5" font-family="Helvetica,sans-Serif" font-size="10.00">InducedVoltage.cpp</text>
</a>
</g>
<!-- Node1&#45;&gt;Node4 -->
<g id="edge6" class="edge"><title>Node1&#45;&gt;Node4</title>
<path fill="none" stroke="midnightblue" d="M1129.7,-456.118C1098.33,-409.475 1017.97,-289.962 993.544,-253.634"/>
<polygon fill="midnightblue" stroke="midnightblue" points="1126.8,-458.083 1135.29,-464.429 1132.61,-454.177 1126.8,-458.083"/>
</g>
<!-- Node5 -->
<g id="node9" class="node"><title>Node5</title>
<a xlink:href="../../d1/dca/Intensity_8cpp.html" target="_top" xlink:title="Intensity.cpp">
<polygon fill="white" stroke="black" points="1414.89,-406.5 1414.89,-427.5 1487.89,-427.5 1487.89,-406.5 1414.89,-406.5"/>
<text text-anchor="middle" x="1451.39" y="-414.5" font-family="Helvetica,sans-Serif" font-size="10.00">Intensity.cpp</text>
</a>
</g>
<!-- Node1&#45;&gt;Node5 -->
<g id="edge8" class="edge"><title>Node1&#45;&gt;Node5</title>
<path fill="none" stroke="midnightblue" d="M1198.94,-465.36C1251.48,-456.255 1331.87,-441.95 1401.39,-428 1405.75,-427.126 1410.31,-426.173 1414.84,-425.207"/>
<polygon fill="midnightblue" stroke="midnightblue" points="1198.07,-461.959 1188.81,-467.111 1199.26,-468.856 1198.07,-461.959"/>
</g>
<!-- Node6 -->
<g id="node11" class="node"><title>Node6</title>
<a xlink:href="../../d3/db7/LHCNoiseFB_8cpp.html" target="_top" xlink:title="LHCNoiseFB.cpp">
<polygon fill="white" stroke="black" points="1189.39,-232.5 1189.39,-253.5 1283.39,-253.5 1283.39,-232.5 1189.39,-232.5"/>
<text text-anchor="middle" x="1236.39" y="-240.5" font-family="Helvetica,sans-Serif" font-size="10.00">LHCNoiseFB.cpp</text>
</a>
</g>
<!-- Node1&#45;&gt;Node6 -->
<g id="edge10" class="edge"><title>Node1&#45;&gt;Node6</title>
<path fill="none" stroke="midnightblue" d="M1150.52,-454.937C1169.75,-407.489 1217.49,-289.659 1232.09,-253.634"/>
<polygon fill="midnightblue" stroke="midnightblue" points="1147.19,-453.846 1146.68,-464.429 1153.68,-456.475 1147.19,-453.846"/>
</g>
<!-- Node7 -->
<g id="node13" class="node"><title>Node7</title>
<a xlink:href="../../db/dee/PhaseLoop_8cpp.html" target="_top" xlink:title="PhaseLoop.cpp">
<polygon fill="white" stroke="black" points="1149.39,-116.5 1149.39,-137.5 1233.39,-137.5 1233.39,-116.5 1149.39,-116.5"/>
<text text-anchor="middle" x="1191.39" y="-124.5" font-family="Helvetica,sans-Serif" font-size="10.00">PhaseLoop.cpp</text>
</a>
</g>
<!-- Node1&#45;&gt;Node7 -->
<g id="edge12" class="edge"><title>Node1&#45;&gt;Node7</title>
<path fill="none" stroke="midnightblue" d="M1198.55,-467.912C1259.85,-456.665 1349.39,-428.364 1349.39,-359 1349.39,-359 1349.39,-359 1349.39,-243 1349.39,-184.809 1278.9,-152.601 1232.08,-137.627"/>
<polygon fill="midnightblue" stroke="midnightblue" points="1197.85,-464.481 1188.59,-469.636 1199.04,-471.378 1197.85,-464.481"/>
</g>
<!-- Node8 -->
<g id="node15" class="node"><title>Node8</title>
<a xlink:href="../../db/d82/PhaseNoise_8cpp.html" target="_top" xlink:title="PhaseNoise.cpp">
<polygon fill="white" stroke="black" points="1176.89,-174.5 1176.89,-195.5 1265.89,-195.5 1265.89,-174.5 1176.89,-174.5"/>
<text text-anchor="middle" x="1221.39" y="-182.5" font-family="Helvetica,sans-Serif" font-size="10.00">PhaseNoise.cpp</text>
</a>
</g>
<!-- Node1&#45;&gt;Node8 -->
<g id="edge14" class="edge"><title>Node1&#45;&gt;Node8</title>
<path fill="none" stroke="midnightblue" d="M1198.2,-461.589C1247.43,-446.039 1311.39,-415.049 1311.39,-359 1311.39,-359 1311.39,-359 1311.39,-301 1311.39,-269.192 1311.07,-257.751 1292.39,-232 1280.59,-215.724 1261.29,-203.477 1245.79,-195.571"/>
<polygon fill="midnightblue" stroke="midnightblue" points="1197.14,-458.254 1188.57,-464.496 1199.16,-464.955 1197.14,-458.254"/>
</g>
<!-- Node9 -->
<g id="node17" class="node"><title>Node9</title>
<a xlink:href="../../d2/d6f/Tracker_8cpp.html" target="_top" xlink:title="Tracker.cpp">
<polygon fill="white" stroke="black" points="825.394,-58.5 825.394,-79.5 893.394,-79.5 893.394,-58.5 825.394,-58.5"/>
<text text-anchor="middle" x="859.394" y="-66.5" font-family="Helvetica,sans-Serif" font-size="10.00">Tracker.cpp</text>
</a>
</g>
<!-- Node1&#45;&gt;Node9 -->
<g id="edge16" class="edge"><title>Node1&#45;&gt;Node9</title>
<path fill="none" stroke="midnightblue" d="M1198.53,-465.525C1246.85,-456.605 1312.19,-442.483 1334.39,-428 1366.78,-406.875 1387.39,-397.669 1387.39,-359 1387.39,-359 1387.39,-359 1387.39,-185 1387.39,-113.631 1310.92,-135.938 1242.39,-116 1177.1,-97.0044 974.53,-78.5811 893.45,-71.7668"/>
<polygon fill="midnightblue" stroke="midnightblue" points="1197.71,-462.116 1188.5,-467.348 1198.96,-469.004 1197.71,-462.116"/>
</g>
<!-- Node10 -->
<g id="node19" class="node"><title>Node10</title>
<a xlink:href="../../de/da5/utilities_8cpp.html" target="_top" xlink:title="utilities.cpp">
<polygon fill="white" stroke="black" points="25.3942,-290.5 25.3942,-311.5 91.3942,-311.5 91.3942,-290.5 25.3942,-290.5"/>
<text text-anchor="middle" x="58.3942" y="-298.5" font-family="Helvetica,sans-Serif" font-size="10.00">utilities.cpp</text>
</a>
</g>
<!-- Node1&#45;&gt;Node10 -->
<g id="edge18" class="edge"><title>Node1&#45;&gt;Node10</title>
<path fill="none" stroke="midnightblue" d="M1085.9,-473.552C922.096,-469.084 448.894,-454.213 296.394,-428 206.022,-412.466 170.542,-426.597 98.3942,-370 78.7843,-354.617 66.9755,-326.754 61.6923,-311.566"/>
<polygon fill="midnightblue" stroke="midnightblue" points="1086.15,-477.059 1096.24,-473.831 1086.34,-470.062 1086.15,-477.059"/>
</g>
<!-- Node11 -->
<g id="node21" class="node"><title>Node11</title>
<a xlink:href="../../d6/db7/RfParameters_8h.html" target="_top" xlink:title="RfParameters.h">
<polygon fill="white" stroke="black" points="548.394,-406.5 548.394,-427.5 634.394,-427.5 634.394,-406.5 548.394,-406.5"/>
<text text-anchor="middle" x="591.394" y="-414.5" font-family="Helvetica,sans-Serif" font-size="10.00">RfParameters.h</text>
</a>
</g>
<!-- Node1&#45;&gt;Node11 -->
<g id="edge20" class="edge"><title>Node1&#45;&gt;Node11</title>
<path fill="none" stroke="midnightblue" d="M1086.11,-469.076C975.824,-457.466 733.431,-431.951 634.614,-421.549"/>
<polygon fill="midnightblue" stroke="midnightblue" points="1086.05,-472.589 1096.36,-470.155 1086.79,-465.627 1086.05,-472.589"/>
</g>
<!-- Node12 -->
<g id="node23" class="node"><title>Node12</title>
<a xlink:href="../../dc/d61/RfParameters_8cpp.html" target="_top" xlink:title="RfParameters.cpp">
<polygon fill="white" stroke="black" points="383.394,-348.5 383.394,-369.5 479.394,-369.5 479.394,-348.5 383.394,-348.5"/>
<text text-anchor="middle" x="431.394" y="-356.5" font-family="Helvetica,sans-Serif" font-size="10.00">RfParameters.cpp</text>
</a>
</g>
<!-- Node11&#45;&gt;Node12 -->
<g id="edge22" class="edge"><title>Node11&#45;&gt;Node12</title>
<path fill="none" stroke="midnightblue" d="M552.8,-403.009C524.366,-392.702 486.299,-378.903 460.423,-369.523"/>
<polygon fill="midnightblue" stroke="midnightblue" points="551.825,-406.379 562.419,-406.497 554.211,-399.798 551.825,-406.379"/>
</g>
<!-- Node13 -->
<g id="node25" class="node"><title>Node13</title>
<a xlink:href="../../d7/d74/Beams_8h.html" target="_top" xlink:title="Beams.h">
<polygon fill="white" stroke="black" points="663.394,-348.5 663.394,-369.5 719.394,-369.5 719.394,-348.5 663.394,-348.5"/>
<text text-anchor="middle" x="691.394" y="-356.5" font-family="Helvetica,sans-Serif" font-size="10.00">Beams.h</text>
</a>
</g>
<!-- Node11&#45;&gt;Node13 -->
<g id="edge24" class="edge"><title>Node11&#45;&gt;Node13</title>
<path fill="none" stroke="midnightblue" d="M613.163,-400.821C629.348,-390.831 651.213,-378.299 667.817,-369.571"/>
<polygon fill="midnightblue" stroke="midnightblue" points="610.966,-398.069 604.372,-406.362 614.698,-403.991 610.966,-398.069"/>
</g>
<!-- Node16 -->
<g id="node32" class="node"><title>Node16</title>
<a xlink:href="../../d5/d87/globals_8h.html" target="_top" xlink:title="globals.h">
<polygon fill="white" stroke="black" points="867.394,-290.5 867.394,-311.5 923.394,-311.5 923.394,-290.5 867.394,-290.5"/>
<text text-anchor="middle" x="895.394" y="-298.5" font-family="Helvetica,sans-Serif" font-size="10.00">globals.h</text>
</a>
</g>
<!-- Node11&#45;&gt;Node16 -->
<g id="edge108" class="edge"><title>Node11&#45;&gt;Node16</title>
<path fill="none" stroke="midnightblue" d="M626.557,-403.032C652.426,-394.016 688.14,-381.805 719.394,-370 771.778,-350.214 832.303,-324.474 867.199,-310.702"/>
<polygon fill="midnightblue" stroke="midnightblue" points="625.091,-399.837 616.81,-406.446 627.404,-406.444 625.091,-399.837"/>
</g>
<!-- Node19 -->
<g id="node44" class="node"><title>Node19</title>
<a xlink:href="../../d0/da6/Monitors_8h.html" target="_top" xlink:title="Monitors.h">
<polygon fill="white" stroke="black" points="475.394,-116.5 475.394,-137.5 537.394,-137.5 537.394,-116.5 475.394,-116.5"/>
<text text-anchor="middle" x="506.394" y="-124.5" font-family="Helvetica,sans-Serif" font-size="10.00">Monitors.h</text>
</a>
</g>
<!-- Node11&#45;&gt;Node19 -->
<g id="edge110" class="edge"><title>Node11&#45;&gt;Node19</title>
<path fill="none" stroke="midnightblue" d="M537.856,-412C492.623,-406.256 426.991,-394.287 374.394,-370 335.818,-352.187 321.018,-347.967 298.394,-312 279.251,-281.567 267.213,-262.409 286.394,-232 328.278,-165.6 424.976,-140.297 475.059,-131.396"/>
<polygon fill="midnightblue" stroke="midnightblue" points="537.692,-415.505 548.04,-413.232 538.532,-408.556 537.692,-415.505"/>
</g>
<!-- Node28 -->
<g id="node71" class="node"><title>Node28</title>
<a xlink:href="../../d8/d94/plot__beams_8h.html" target="_top" xlink:title="plot_beams.h">
<polygon fill="white" stroke="black" points="588.894,-290.5 588.894,-311.5 663.894,-311.5 663.894,-290.5 588.894,-290.5"/>
<text text-anchor="middle" x="626.394" y="-298.5" font-family="Helvetica,sans-Serif" font-size="10.00">plot_beams.h</text>
</a>
</g>
<!-- Node11&#45;&gt;Node28 -->
<g id="edge112" class="edge"><title>Node11&#45;&gt;Node28</title>
<path fill="none" stroke="midnightblue" d="M597.592,-396.458C605.073,-371.663 617.37,-330.91 623.172,-311.679"/>
<polygon fill="midnightblue" stroke="midnightblue" points="594.162,-395.71 594.624,-406.295 600.864,-397.732 594.162,-395.71"/>
</g>
<!-- Node29 -->
<g id="node74" class="node"><title>Node29</title>
<a xlink:href="../../dc/df2/Slices_8h.html" target="_top" xlink:title="Slices.h">
<polygon fill="white" stroke="black" points="535.394,-348.5 535.394,-369.5 587.394,-369.5 587.394,-348.5 535.394,-348.5"/>
<text text-anchor="middle" x="561.394" y="-356.5" font-family="Helvetica,sans-Serif" font-size="10.00">Slices.h</text>
</a>
</g>
<!-- Node11&#45;&gt;Node29 -->
<g id="edge90" class="edge"><title>Node11&#45;&gt;Node29</title>
<path fill="none" stroke="midnightblue" d="M581.243,-397.373C576.43,-388.068 570.87,-377.32 566.862,-369.571"/>
<polygon fill="midnightblue" stroke="midnightblue" points="578.189,-399.088 585.892,-406.362 584.406,-395.872 578.189,-399.088"/>
</g>
<!-- Node30 -->
<g id="node81" class="node"><title>Node30</title>
<a xlink:href="../../d2/d51/plot__slices_8h.html" target="_top" xlink:title="plot_slices.h">
<polygon fill="white" stroke="black" points="306.894,-290.5 306.894,-311.5 377.894,-311.5 377.894,-290.5 306.894,-290.5"/>
<text text-anchor="middle" x="342.394" y="-298.5" font-family="Helvetica,sans-Serif" font-size="10.00">plot_slices.h</text>
</a>
</g>
<!-- Node11&#45;&gt;Node30 -->
<g id="edge118" class="edge"><title>Node11&#45;&gt;Node30</title>
<path fill="none" stroke="midnightblue" d="M568.29,-400.421C543.187,-382.609 504.511,-355.802 488.394,-348 452.323,-330.538 408.204,-317.364 377.966,-309.471"/>
<polygon fill="midnightblue" stroke="midnightblue" points="566.368,-403.35 576.544,-406.301 570.429,-397.648 566.368,-403.35"/>
</g>
<!-- Node32 -->
<g id="node89" class="node"><title>Node32</title>
<a xlink:href="../../d3/dda/plot__llrf_8h.html" target="_top" xlink:title="plot_llrf.h">
<polygon fill="white" stroke="black" points="183.394,-174.5 183.394,-195.5 239.394,-195.5 239.394,-174.5 183.394,-174.5"/>
<text text-anchor="middle" x="211.394" y="-182.5" font-family="Helvetica,sans-Serif" font-size="10.00">plot_llrf.h</text>
</a>
</g>
<!-- Node11&#45;&gt;Node32 -->
<g id="edge114" class="edge"><title>Node11&#45;&gt;Node32</title>
<path fill="none" stroke="midnightblue" d="M538.046,-412.465C450.899,-404.596 285.621,-387.562 265.394,-370 238.172,-346.364 218.515,-231.426 212.977,-195.651"/>
<polygon fill="midnightblue" stroke="midnightblue" points="538,-415.975 548.272,-413.379 538.623,-409.003 538,-415.975"/>
</g>
<!-- Node33 -->
<g id="node93" class="node"><title>Node33</title>
<a xlink:href="../../de/d44/trackers_2utilities_8h.html" target="_top" xlink:title="utilities.h">
<polygon fill="white" stroke="black" points="107.394,-348.5 107.394,-369.5 163.394,-369.5 163.394,-348.5 107.394,-348.5"/>
<text text-anchor="middle" x="135.394" y="-356.5" font-family="Helvetica,sans-Serif" font-size="10.00">utilities.h</text>
</a>
</g>
<!-- Node11&#45;&gt;Node33 -->
<g id="edge120" class="edge"><title>Node11&#45;&gt;Node33</title>
<path fill="none" stroke="midnightblue" d="M537.875,-410.193C440.54,-397.812 237.74,-372.018 163.447,-362.568"/>
<polygon fill="midnightblue" stroke="midnightblue" points="537.722,-413.701 548.084,-411.491 538.605,-406.757 537.722,-413.701"/>
</g>
<!-- Node13&#45;&gt;Node2 -->
<g id="edge26" class="edge"><title>Node13&#45;&gt;Node2</title>
<path fill="none" stroke="midnightblue" d="M652.859,-354.513C635.591,-352.509 614.973,-350.125 596.394,-348 453.958,-331.707 284.047,-312.619 213.561,-304.716"/>
<polygon fill="midnightblue" stroke="midnightblue" points="652.793,-358.029 663.13,-355.706 653.6,-351.076 652.793,-358.029"/>
</g>
<!-- Node13&#45;&gt;Node11 -->
<g id="edge82" class="edge"><title>Node13&#45;&gt;Node11</title>
<path fill="none" stroke="midnightblue" d="M669.632,-375.175C653.404,-385.192 631.465,-397.764 614.844,-406.497"/>
<polygon fill="midnightblue" stroke="midnightblue" points="671.849,-377.914 678.443,-369.621 668.117,-371.993 671.849,-377.914"/>
</g>
<!-- Node14 -->
<g id="node28" class="node"><title>Node14</title>
<a xlink:href="../../dc/d7d/Distributions_8h.html" target="_top" xlink:title="Distributions.h">
<polygon fill="white" stroke="black" points="718.394,-58.5 718.394,-79.5 798.394,-79.5 798.394,-58.5 718.394,-58.5"/>
<text text-anchor="middle" x="758.394" y="-66.5" font-family="Helvetica,sans-Serif" font-size="10.00">Distributions.h</text>
</a>
</g>
<!-- Node13&#45;&gt;Node14 -->
<g id="edge28" class="edge"><title>Node13&#45;&gt;Node14</title>
<path fill="none" stroke="midnightblue" d="M699.416,-338.821C702.498,-330.59 705.876,-320.925 708.394,-312 733.306,-223.705 751.377,-114.115 756.745,-79.7912"/>
<polygon fill="midnightblue" stroke="midnightblue" points="696.087,-337.727 695.758,-348.317 702.619,-340.243 696.087,-337.727"/>
</g>
<!-- Node13&#45;&gt;Node16 -->
<g id="edge32" class="edge"><title>Node13&#45;&gt;Node16</title>
<path fill="none" stroke="midnightblue" d="M729.264,-346.436C761.343,-337.07 808.276,-323.898 849.394,-312 855.059,-310.361 861.202,-308.549 867.189,-306.876"/>
<polygon fill="midnightblue" stroke="midnightblue" points="728.003,-343.158 719.396,-349.336 729.978,-349.874 728.003,-343.158"/>
</g>
<!-- Node13&#45;&gt;Node19 -->
<g id="edge84" class="edge"><title>Node13&#45;&gt;Node19</title>
<path fill="none" stroke="midnightblue" d="M693.27,-337.875C695.411,-300.054 694.218,-220.401 652.394,-174 636.973,-156.891 575.719,-141.442 537.621,-133.223"/>
<polygon fill="midnightblue" stroke="midnightblue" points="689.755,-337.964 692.539,-348.186 696.737,-338.459 689.755,-337.964"/>
</g>
<!-- Node25 -->
<g id="node60" class="node"><title>Node25</title>
<a xlink:href="../../d9/dee/InducedVoltage_8h.html" target="_top" xlink:title="InducedVoltage.h">
<polygon fill="white" stroke="black" points="757.394,-290.5 757.394,-311.5 849.394,-311.5 849.394,-290.5 757.394,-290.5"/>
<text text-anchor="middle" x="803.394" y="-298.5" font-family="Helvetica,sans-Serif" font-size="10.00">InducedVoltage.h</text>
</a>
</g>
<!-- Node13&#45;&gt;Node25 -->
<g id="edge70" class="edge"><title>Node13&#45;&gt;Node25</title>
<path fill="none" stroke="midnightblue" d="M720.757,-343.794C740.298,-333.675 765.481,-320.634 782.884,-311.621"/>
<polygon fill="midnightblue" stroke="midnightblue" points="718.947,-340.79 711.677,-348.497 722.166,-347.006 718.947,-340.79"/>
</g>
<!-- Node13&#45;&gt;Node28 -->
<g id="edge86" class="edge"><title>Node13&#45;&gt;Node28</title>
<path fill="none" stroke="midnightblue" d="M671.996,-341.691C661.023,-331.9 647.657,-319.973 638.241,-311.571"/>
<polygon fill="midnightblue" stroke="midnightblue" points="669.681,-344.315 679.472,-348.362 674.341,-339.092 669.681,-344.315"/>
</g>
<!-- Node15 -->
<g id="node30" class="node"><title>Node15</title>
<a xlink:href="../../db/de1/Distributions_8cpp.html" target="_top" xlink:title="Distributions.cpp">
<polygon fill="white" stroke="black" points="393.394,-0.5 393.394,-21.5 483.394,-21.5 483.394,-0.5 393.394,-0.5"/>
<text text-anchor="middle" x="438.394" y="-8.5" font-family="Helvetica,sans-Serif" font-size="10.00">Distributions.cpp</text>
</a>
</g>
<!-- Node14&#45;&gt;Node15 -->
<g id="edge30" class="edge"><title>Node14&#45;&gt;Node15</title>
<path fill="none" stroke="midnightblue" d="M708.301,-59.9206C646.656,-48.7474 542.888,-29.9396 483.583,-19.1905"/>
<polygon fill="midnightblue" stroke="midnightblue" points="707.726,-63.3734 718.19,-61.713 708.975,-56.4856 707.726,-63.3734"/>
</g>
<!-- Node16&#45;&gt;Node3 -->
<g id="edge34" class="edge"><title>Node16&#45;&gt;Node3</title>
<path fill="none" stroke="midnightblue" d="M857.06,-290.009C718.089,-262.21 679.327,-271.452 542.394,-254 526.929,-252.029 509.77,-249.632 495.492,-247.579"/>
<polygon fill="midnightblue" stroke="midnightblue" points="856.745,-293.517 867.242,-292.076 858.138,-286.656 856.745,-293.517"/>
</g>
<!-- Node16&#45;&gt;Node4 -->
<g id="edge38" class="edge"><title>Node16&#45;&gt;Node4</title>
<path fill="none" stroke="midnightblue" d="M920.778,-284.821C936.452,-274.831 956.114,-262.299 969.809,-253.571"/>
<polygon fill="midnightblue" stroke="midnightblue" points="918.637,-282.036 912.085,-290.362 922.399,-287.939 918.637,-282.036"/>
</g>
<!-- Node16&#45;&gt;Node6 -->
<g id="edge40" class="edge"><title>Node16&#45;&gt;Node6</title>
<path fill="none" stroke="midnightblue" d="M933.723,-295.06C988.503,-286.483 1092.31,-269.911 1180.39,-254 1183.32,-253.472 1186.33,-252.916 1189.36,-252.347"/>
<polygon fill="midnightblue" stroke="midnightblue" points="933.1,-291.615 923.76,-296.616 934.18,-298.531 933.1,-291.615"/>
</g>
<!-- Node16&#45;&gt;Node11 -->
<g id="edge44" class="edge"><title>Node16&#45;&gt;Node11</title>
<path fill="none" stroke="midnightblue" d="M867.928,-315.918C836.448,-330.333 783.736,-352.496 737.394,-370 701.992,-383.372 660.865,-397.265 631.152,-406.446"/>
<polygon fill="midnightblue" stroke="midnightblue" points="869.777,-318.918 877.367,-311.526 866.824,-312.571 869.777,-318.918"/>
</g>
<!-- Node16&#45;&gt;Node13 -->
<g id="edge42" class="edge"><title>Node16&#45;&gt;Node13</title>
<path fill="none" stroke="midnightblue" d="M859.184,-314.368C808.312,-329.015 752.467,-344.531 719.498,-352.869"/>
<polygon fill="midnightblue" stroke="midnightblue" points="860.313,-317.685 868.95,-311.549 858.372,-310.959 860.313,-317.685"/>
</g>
<!-- Node17 -->
<g id="node35" class="node"><title>Node17</title>
<a xlink:href="../../da/d77/globals_8cpp.html" target="_top" xlink:title="globals.cpp">
<polygon fill="white" stroke="black" points="851.394,-232.5 851.394,-253.5 917.394,-253.5 917.394,-232.5 851.394,-232.5"/>
<text text-anchor="middle" x="884.394" y="-240.5" font-family="Helvetica,sans-Serif" font-size="10.00">globals.cpp</text>
</a>
</g>
<!-- Node16&#45;&gt;Node17 -->
<g id="edge36" class="edge"><title>Node16&#45;&gt;Node17</title>
<path fill="none" stroke="midnightblue" d="M891.504,-280.488C889.779,-271.392 887.822,-261.076 886.399,-253.571"/>
<polygon fill="midnightblue" stroke="midnightblue" points="888.075,-281.189 893.377,-290.362 894.952,-279.885 888.075,-281.189"/>
</g>
<!-- Node18 -->
<g id="node41" class="node"><title>Node18</title>
<a xlink:href="../../d3/d33/PhaseLoop_8h.html" target="_top" xlink:title="PhaseLoop.h">
<polygon fill="white" stroke="black" points="1028.39,-174.5 1028.39,-195.5 1102.39,-195.5 1102.39,-174.5 1028.39,-174.5"/>
<text text-anchor="middle" x="1065.39" y="-182.5" font-family="Helvetica,sans-Serif" font-size="10.00">PhaseLoop.h</text>
</a>
</g>
<!-- Node16&#45;&gt;Node18 -->
<g id="edge46" class="edge"><title>Node16&#45;&gt;Node18</title>
<path fill="none" stroke="midnightblue" d="M933.339,-293.525C972.704,-285.038 1030.68,-270.246 1046.39,-254 1061.86,-238.016 1064.99,-210.65 1065.47,-195.634"/>
<polygon fill="midnightblue" stroke="midnightblue" points="932.584,-290.107 923.522,-295.595 934.029,-296.957 932.584,-290.107"/>
</g>
<!-- Node24 -->
<g id="node56" class="node"><title>Node24</title>
<a xlink:href="../../d9/dc8/PhaseNoise_8h.html" target="_top" xlink:title="PhaseNoise.h">
<polygon fill="white" stroke="black" points="1093.39,-232.5 1093.39,-253.5 1171.39,-253.5 1171.39,-232.5 1093.39,-232.5"/>
<text text-anchor="middle" x="1132.39" y="-240.5" font-family="Helvetica,sans-Serif" font-size="10.00">PhaseNoise.h</text>
</a>
</g>
<!-- Node16&#45;&gt;Node24 -->
<g id="edge64" class="edge"><title>Node16&#45;&gt;Node24</title>
<path fill="none" stroke="midnightblue" d="M933.497,-291.675C977.36,-280.941 1049.03,-263.4 1093.31,-252.565"/>
<polygon fill="midnightblue" stroke="midnightblue" points="932.393,-288.342 923.512,-294.119 934.057,-295.141 932.393,-288.342"/>
</g>
<!-- Node18&#45;&gt;Node7 -->
<g id="edge48" class="edge"><title>Node18&#45;&gt;Node7</title>
<path fill="none" stroke="midnightblue" d="M1097.53,-170.206C1119.64,-160.031 1148.47,-146.757 1168.32,-137.621"/>
<polygon fill="midnightblue" stroke="midnightblue" points="1095.83,-167.136 1088.21,-174.497 1098.76,-173.494 1095.83,-167.136"/>
</g>
<!-- Node18&#45;&gt;Node19 -->
<g id="edge50" class="edge"><title>Node18&#45;&gt;Node19</title>
<path fill="none" stroke="midnightblue" d="M1018.03,-180.086C906.64,-168.528 630.468,-139.873 537.503,-130.228"/>
<polygon fill="midnightblue" stroke="midnightblue" points="1017.98,-183.599 1028.28,-181.15 1018.7,-176.636 1017.98,-183.599"/>
</g>
<!-- Node23 -->
<g id="node52" class="node"><title>Node23</title>
<a xlink:href="../../d2/d0e/Tracker_8h.html" target="_top" xlink:title="Tracker.h">
<polygon fill="white" stroke="black" points="813.394,-116.5 813.394,-137.5 871.394,-137.5 871.394,-116.5 813.394,-116.5"/>
<text text-anchor="middle" x="842.394" y="-124.5" font-family="Helvetica,sans-Serif" font-size="10.00">Tracker.h</text>
</a>
</g>
<!-- Node18&#45;&gt;Node23 -->
<g id="edge58" class="edge"><title>Node18&#45;&gt;Node23</title>
<path fill="none" stroke="midnightblue" d="M1018.37,-172.768C974.06,-161.245 909.064,-144.34 871.717,-134.627"/>
<polygon fill="midnightblue" stroke="midnightblue" points="1017.76,-176.227 1028.32,-175.357 1019.52,-169.453 1017.76,-176.227"/>
</g>
<!-- Node20 -->
<g id="node46" class="node"><title>Node20</title>
<a xlink:href="../../da/dda/Monitors_8cpp.html" target="_top" xlink:title="Monitors.cpp">
<polygon fill="white" stroke="black" points="469.894,-58.5 469.894,-79.5 542.894,-79.5 542.894,-58.5 469.894,-58.5"/>
<text text-anchor="middle" x="506.394" y="-66.5" font-family="Helvetica,sans-Serif" font-size="10.00">Monitors.cpp</text>
</a>
</g>
<!-- Node19&#45;&gt;Node20 -->
<g id="edge52" class="edge"><title>Node19&#45;&gt;Node20</title>
<path fill="none" stroke="midnightblue" d="M506.394,-106.191C506.394,-97.1684 506.394,-86.9941 506.394,-79.5707"/>
<polygon fill="midnightblue" stroke="midnightblue" points="502.894,-106.362 506.394,-116.362 509.894,-106.362 502.894,-106.362"/>
</g>
<!-- Node21 -->
<g id="node48" class="node"><title>Node21</title>
<a xlink:href="../../d3/d2c/plot__beams_8cpp.html" target="_top" xlink:title="plot_beams.cpp">
<polygon fill="white" stroke="black" points="596.394,-58.5 596.394,-79.5 682.394,-79.5 682.394,-58.5 596.394,-58.5"/>
<text text-anchor="middle" x="639.394" y="-66.5" font-family="Helvetica,sans-Serif" font-size="10.00">plot_beams.cpp</text>
</a>
</g>
<!-- Node19&#45;&gt;Node21 -->
<g id="edge54" class="edge"><title>Node19&#45;&gt;Node21</title>
<path fill="none" stroke="midnightblue" d="M539.691,-112.479C563.104,-102.269 593.902,-88.8386 615.039,-79.6212"/>
<polygon fill="midnightblue" stroke="midnightblue" points="538.247,-109.291 530.48,-116.497 541.045,-115.707 538.247,-109.291"/>
</g>
<!-- Node22 -->
<g id="node50" class="node"><title>Node22</title>
<a xlink:href="../../d3/dca/plot__llrf_8cpp.html" target="_top" xlink:title="plot_llrf.cpp">
<polygon fill="white" stroke="black" points="376.894,-58.5 376.894,-79.5 443.894,-79.5 443.894,-58.5 376.894,-58.5"/>
<text text-anchor="middle" x="410.394" y="-66.5" font-family="Helvetica,sans-Serif" font-size="10.00">plot_llrf.cpp</text>
</a>
</g>
<!-- Node19&#45;&gt;Node22 -->
<g id="edge56" class="edge"><title>Node19&#45;&gt;Node22</title>
<path fill="none" stroke="midnightblue" d="M480.079,-111.101C463.469,-101.066 442.473,-88.3808 427.89,-79.5707"/>
<polygon fill="midnightblue" stroke="midnightblue" points="478.417,-114.186 488.786,-116.362 482.037,-108.195 478.417,-114.186"/>
</g>
<!-- Node23&#45;&gt;Node9 -->
<g id="edge60" class="edge"><title>Node23&#45;&gt;Node9</title>
<path fill="none" stroke="midnightblue" d="M848.406,-106.488C851.072,-97.3924 854.096,-87.0756 856.296,-79.5707"/>
<polygon fill="midnightblue" stroke="midnightblue" points="844.966,-105.781 845.512,-116.362 851.684,-107.75 844.966,-105.781"/>
</g>
<!-- Node23&#45;&gt;Node14 -->
<g id="edge62" class="edge"><title>Node23&#45;&gt;Node14</title>
<path fill="none" stroke="midnightblue" d="M818.557,-110.541C804.156,-100.597 786.227,-88.2177 773.703,-79.5707"/>
<polygon fill="midnightblue" stroke="midnightblue" points="816.77,-113.56 826.987,-116.362 820.747,-107.8 816.77,-113.56"/>
</g>
<!-- Node24&#45;&gt;Node8 -->
<g id="edge66" class="edge"><title>Node24&#45;&gt;Node8</title>
<path fill="none" stroke="midnightblue" d="M1157.22,-226.821C1172.55,-216.831 1191.78,-204.299 1205.17,-195.571"/>
<polygon fill="midnightblue" stroke="midnightblue" points="1155.19,-223.97 1148.72,-232.362 1159.01,-229.834 1155.19,-223.97"/>
</g>
<!-- Node24&#45;&gt;Node18 -->
<g id="edge68" class="edge"><title>Node24&#45;&gt;Node18</title>
<path fill="none" stroke="midnightblue" d="M1112.4,-225.691C1101.09,-215.9 1087.31,-203.973 1077.61,-195.571"/>
<polygon fill="midnightblue" stroke="midnightblue" points="1110.25,-228.463 1120.11,-232.362 1114.84,-223.171 1110.25,-228.463"/>
</g>
<!-- Node25&#45;&gt;Node4 -->
<g id="edge72" class="edge"><title>Node25&#45;&gt;Node4</title>
<path fill="none" stroke="midnightblue" d="M846.264,-287.413C878.914,-277.065 923.209,-263.026 953.192,-253.523"/>
<polygon fill="midnightblue" stroke="midnightblue" points="845.009,-284.139 836.534,-290.497 847.124,-290.812 845.009,-284.139"/>
</g>
<!-- Node25&#45;&gt;Node14 -->
<g id="edge74" class="edge"><title>Node25&#45;&gt;Node14</title>
<path fill="none" stroke="midnightblue" d="M799.386,-280.335C790.108,-232.5 767.415,-115.508 760.457,-79.6335"/>
<polygon fill="midnightblue" stroke="midnightblue" points="796.004,-281.278 801.344,-290.429 802.875,-279.945 796.004,-281.278"/>
</g>
<!-- Node25&#45;&gt;Node23 -->
<g id="edge80" class="edge"><title>Node25&#45;&gt;Node23</title>
<path fill="none" stroke="midnightblue" d="M808.056,-280.2C816.391,-243.013 833.572,-166.36 839.945,-137.928"/>
<polygon fill="midnightblue" stroke="midnightblue" points="804.547,-279.854 805.775,-290.377 811.378,-281.385 804.547,-279.854"/>
</g>
<!-- Node26 -->
<g id="node64" class="node"><title>Node26</title>
<a xlink:href="../../da/d77/plot__impedance_8h.html" target="_top" xlink:title="plot_impedance.h">
<polygon fill="white" stroke="black" points="550.894,-232.5 550.894,-253.5 643.894,-253.5 643.894,-232.5 550.894,-232.5"/>
<text text-anchor="middle" x="597.394" y="-240.5" font-family="Helvetica,sans-Serif" font-size="10.00">plot_impedance.h</text>
</a>
</g>
<!-- Node25&#45;&gt;Node26 -->
<g id="edge76" class="edge"><title>Node25&#45;&gt;Node26</title>
<path fill="none" stroke="midnightblue" d="M756.084,-287.68C719.243,-277.307 668.811,-263.108 634.769,-253.523"/>
<polygon fill="midnightblue" stroke="midnightblue" points="755.515,-291.155 766.089,-290.497 757.412,-284.417 755.515,-291.155"/>
</g>
<!-- Node27 -->
<g id="node66" class="node"><title>Node27</title>
<a xlink:href="../../d8/d29/plot__impedance_8cpp.html" target="_top" xlink:title="plot_impedance.cpp">
<polygon fill="white" stroke="black" points="539.394,-174.5 539.394,-195.5 643.394,-195.5 643.394,-174.5 539.394,-174.5"/>
<text text-anchor="middle" x="591.394" y="-182.5" font-family="Helvetica,sans-Serif" font-size="10.00">plot_impedance.cpp</text>
</a>
</g>
<!-- Node26&#45;&gt;Node27 -->
<g id="edge78" class="edge"><title>Node26&#45;&gt;Node27</title>
<path fill="none" stroke="midnightblue" d="M595.242,-222.191C594.308,-213.168 593.256,-202.994 592.488,-195.571"/>
<polygon fill="midnightblue" stroke="midnightblue" points="591.783,-222.775 596.294,-232.362 598.746,-222.055 591.783,-222.775"/>
</g>
<!-- Node28&#45;&gt;Node21 -->
<g id="edge88" class="edge"><title>Node28&#45;&gt;Node21</title>
<path fill="none" stroke="midnightblue" d="M639.756,-282.038C644.764,-273.82 649.854,-263.84 652.394,-254 669.054,-189.467 650.272,-108.339 642.472,-79.6459"/>
<polygon fill="midnightblue" stroke="midnightblue" points="636.794,-280.173 634.277,-290.465 642.663,-283.989 636.794,-280.173"/>
</g>
<!-- Node29&#45;&gt;Node3 -->
<g id="edge92" class="edge"><title>Node29&#45;&gt;Node3</title>
<path fill="none" stroke="midnightblue" d="M539.878,-341.753C530.024,-333.321 518.532,-322.699 509.394,-312 493.232,-293.078 478.252,-268.002 470.313,-253.879"/>
<polygon fill="midnightblue" stroke="midnightblue" points="537.766,-344.549 547.684,-348.275 542.254,-339.177 537.766,-344.549"/>
</g>
<!-- Node29&#45;&gt;Node16 -->
<g id="edge94" class="edge"><title>Node29&#45;&gt;Node16</title>
<path fill="none" stroke="midnightblue" d="M597.599,-354.837C653.829,-348.019 765.366,-333.092 858.394,-312 861.27,-311.348 864.25,-310.595 867.214,-309.795"/>
<polygon fill="midnightblue" stroke="midnightblue" points="596.949,-351.389 587.436,-356.053 597.781,-358.34 596.949,-351.389"/>
</g>
<!-- Node29&#45;&gt;Node19 -->
<g id="edge96" class="edge"><title>Node29&#45;&gt;Node19</title>
<path fill="none" stroke="midnightblue" d="M526.291,-344.226C492.586,-327.819 443.99,-297.747 424.394,-254 403.581,-207.533 461.404,-158.559 490.632,-137.563"/>
<polygon fill="midnightblue" stroke="midnightblue" points="524.827,-347.405 535.366,-348.491 527.804,-341.07 524.827,-347.405"/>
</g>
<!-- Node29&#45;&gt;Node23 -->
<g id="edge106" class="edge"><title>Node29&#45;&gt;Node23</title>
<path fill="none" stroke="midnightblue" d="M549.161,-339.427C527.744,-302.406 489.443,-221.582 530.394,-174 548.774,-152.644 739.147,-135.256 813.174,-129.253"/>
<polygon fill="midnightblue" stroke="midnightblue" points="546.297,-341.458 554.43,-348.248 552.307,-337.868 546.297,-341.458"/>
</g>
<!-- Node29&#45;&gt;Node26 -->
<g id="edge100" class="edge"><title>Node29&#45;&gt;Node26</title>
<path fill="none" stroke="midnightblue" d="M566.652,-338.26C570.252,-324.494 575.284,-306.07 580.394,-290 584.391,-277.431 589.635,-263.218 593.236,-253.745"/>
<polygon fill="midnightblue" stroke="midnightblue" points="563.205,-337.609 564.097,-348.167 569.983,-339.357 563.205,-337.609"/>
</g>
<!-- Node29&#45;&gt;Node28 -->
<g id="edge98" class="edge"><title>Node29&#45;&gt;Node28</title>
<path fill="none" stroke="midnightblue" d="M580.793,-341.691C591.765,-331.9 605.131,-319.973 614.548,-311.571"/>
<polygon fill="midnightblue" stroke="midnightblue" points="578.447,-339.092 573.316,-348.362 583.108,-344.315 578.447,-339.092"/>
</g>
<!-- Node29&#45;&gt;Node30 -->
<g id="edge102" class="edge"><title>Node29&#45;&gt;Node30</title>
<path fill="none" stroke="midnightblue" d="M525.206,-349.028C523.92,-348.68 522.646,-348.336 521.394,-348 471.749,-334.656 414.238,-319.633 378.087,-310.242"/>
<polygon fill="midnightblue" stroke="midnightblue" points="524.588,-352.487 535.156,-351.738 526.427,-345.733 524.588,-352.487"/>
</g>
<!-- Node31 -->
<g id="node83" class="node"><title>Node31</title>
<a xlink:href="../../d4/dfd/plot__slices_8cpp.html" target="_top" xlink:title="plot_slices.cpp">
<polygon fill="white" stroke="black" points="295.394,-232.5 295.394,-253.5 377.394,-253.5 377.394,-232.5 295.394,-232.5"/>
<text text-anchor="middle" x="336.394" y="-240.5" font-family="Helvetica,sans-Serif" font-size="10.00">plot_slices.cpp</text>
</a>
</g>
<!-- Node30&#45;&gt;Node31 -->
<g id="edge104" class="edge"><title>Node30&#45;&gt;Node31</title>
<path fill="none" stroke="midnightblue" d="M340.242,-280.191C339.308,-271.168 338.256,-260.994 337.488,-253.571"/>
<polygon fill="midnightblue" stroke="midnightblue" points="336.783,-280.775 341.294,-290.362 343.746,-280.055 336.783,-280.775"/>
</g>
<!-- Node32&#45;&gt;Node22 -->
<g id="edge116" class="edge"><title>Node32&#45;&gt;Node22</title>
<path fill="none" stroke="midnightblue" d="M238.467,-169.219C279.739,-145.161 357.293,-99.9533 392.361,-79.5117"/>
<polygon fill="midnightblue" stroke="midnightblue" points="236.636,-166.235 229.759,-174.295 240.161,-172.283 236.636,-166.235"/>
</g>
<!-- Node33&#45;&gt;Node2 -->
<g id="edge122" class="edge"><title>Node33&#45;&gt;Node2</title>
<path fill="none" stroke="midnightblue" d="M149.941,-340.25C157.312,-330.75 165.99,-319.565 172.193,-311.571"/>
<polygon fill="midnightblue" stroke="midnightblue" points="147.013,-338.316 143.648,-348.362 152.543,-342.607 147.013,-338.316"/>
</g>
<!-- Node33&#45;&gt;Node10 -->
<g id="edge126" class="edge"><title>Node33&#45;&gt;Node10</title>
<path fill="none" stroke="midnightblue" d="M113.169,-342.259C100.033,-332.364 83.7991,-320.136 72.4277,-311.571"/>
<polygon fill="midnightblue" stroke="midnightblue" points="111.178,-345.141 121.271,-348.362 115.39,-339.55 111.178,-345.141"/>
</g>
<!-- Node33&#45;&gt;Node15 -->
<g id="edge124" class="edge"><title>Node33&#45;&gt;Node15</title>
<path fill="none" stroke="midnightblue" d="M130.766,-338.164C126.041,-315.036 119.394,-276.544 119.394,-243 119.394,-243 119.394,-243 119.394,-127 119.394,-69.396 305.433,-32.1225 393.366,-17.7222"/>
<polygon fill="midnightblue" stroke="midnightblue" points="127.395,-339.138 132.894,-348.194 134.243,-337.685 127.395,-339.138"/>
</g>
</g>
</svg>
