<?xml version="1.0" encoding="UTF-8" standalone="no"?>
<!DOCTYPE svg PUBLIC "-//W3C//DTD SVG 1.1//EN"
 "http://www.w3.org/Graphics/SVG/1.1/DTD/svg11.dtd">
<!-- Generated by graphviz version 2.26.3 (20100126.1600)
 -->
<!-- Title: matched_from_line_density Pages: 1 -->
<!--zoomable 388 -->
<svg id="main" version="1.1" xmlns="http://www.w3.org/2000/svg" xmlns:xlink="http://www.w3.org/1999/xlink" xml:space="preserve" onload="init(evt)">
        <defs>
                <circle id="rim" cx="0" cy="0" r="7"/>
                <circle id="rim2" cx="0" cy="0" r="3.5"/>
                <g id="zoomPlus">
                        <use xlink:href="#rim" fill="#404040">
                                <set attributeName="fill" to="#808080" begin="zoomplus.mouseover" end="zoomplus.mouseout"/>
                        </use>
                        <path d="M-4,0h8M0,-4v8" fill="none" stroke="white" stroke-width="1.5" pointer-events="none"/>
                </g>
                <g id="zoomMin">
                        <use xlink:href="#rim" fill="#404040">
                                <set attributeName="fill" to="#808080" begin="zoomminus.mouseover" end="zoomminus.mouseout"/>
                        </use>
                        <path d="M-4,0h8" fill="none" stroke="white" stroke-width="1.5" pointer-events="none"/>
                </g>
                <g id="dirArrow">
                        <path fill="none" stroke="white" stroke-width="1.5" d="M0,-3.0v7 M-2.5,-0.5L0,-3.0L2.5,-0.5"/>
                </g>
               <g id="resetDef">
                       <use xlink:href="#rim2" fill="#404040">
                               <set attributeName="fill" to="#808080" begin="reset.mouseover" end="reset.mouseout"/>
                       </use>
               </g>
        </defs>

<script type="text/javascript">
var viewWidth = 1038;
var viewHeight = 388;
var sectionId = 'dynsection-4';
</script>
<script xlink:href="../../svgpan.js"/>
<svg id="graph" class="graph">
<g id="viewport">
<title>matched_from_line_density</title>
<polygon fill="white" stroke="white" points="-4,5 -4,-384 1035,-384 1035,5 -4,5"/>
<!-- Node1 -->
<g id="node1" class="node"><title>Node1</title>
<polygon fill="#bfbfbf" stroke="black" points="0,-226.5 0,-247.5 136,-247.5 136,-226.5 0,-226.5"/>
<text text-anchor="middle" x="68" y="-234.5" font-family="Helvetica,sans-Serif" font-size="10.00">matched_from_line_density</text>
</g>
<!-- Node2 -->
<g id="node3" class="node"><title>Node2</title>
<a xlink:href="../../de/d4a/namespacepython.html#a3ed6443d960779c5c83ac6f6a2ff95ee" target="_top" xlink:title="python::convert_dictionary">
<polygon fill="white" stroke="black" points="172.5,-358.5 172.5,-379.5 303.5,-379.5 303.5,-358.5 172.5,-358.5"/>
<text text-anchor="middle" x="238" y="-366.5" font-family="Helvetica,sans-Serif" font-size="10.00">python::convert_dictionary</text>
</a>
</g>
<!-- Node1&#45;&gt;Node2 -->
<g id="edge2" class="edge"><title>Node1&#45;&gt;Node2</title>
<path fill="none" stroke="midnightblue" d="M74.9612,-247.692C89.9777,-269.911 127.665,-321.307 172,-349 175.332,-351.081 178.894,-352.958 182.573,-354.647"/>
<polygon fill="midnightblue" stroke="midnightblue" points="181.312,-357.913 191.892,-358.473 183.97,-351.437 181.312,-357.913"/>
</g>
<!-- Node3 -->
<g id="node5" class="node"><title>Node3</title>
<a xlink:href="../../de/d4a/namespacepython.html#a740e30ed26764f275117126a9547767c" target="_top" xlink:title="python::convert_double">
<polygon fill="white" stroke="black" points="179,-318.5 179,-339.5 297,-339.5 297,-318.5 179,-318.5"/>
<text text-anchor="middle" x="238" y="-326.5" font-family="Helvetica,sans-Serif" font-size="10.00">python::convert_double</text>
</a>
</g>
<!-- Node1&#45;&gt;Node3 -->
<g id="edge4" class="edge"><title>Node1&#45;&gt;Node3</title>
<path fill="none" stroke="midnightblue" d="M80.6442,-247.724C99.4493,-263.198 136.405,-291.81 172,-309 176.599,-311.221 181.498,-313.257 186.469,-315.108"/>
<polygon fill="midnightblue" stroke="midnightblue" points="185.463,-318.464 196.058,-318.44 187.76,-311.852 185.463,-318.464"/>
</g>
<!-- Node4 -->
<g id="node7" class="node"><title>Node4</title>
<a xlink:href="../../de/d4a/namespacepython.html#a38f56692b4793b00b074fc192783947e" target="_top" xlink:title="python::convert_double\l_array">
<polygon fill="white" stroke="black" points="179,-266 179,-300 297,-300 297,-266 179,-266"/>
<text text-anchor="start" x="187" y="-287" font-family="Helvetica,sans-Serif" font-size="10.00">python::convert_double</text>
<text text-anchor="middle" x="238" y="-274" font-family="Helvetica,sans-Serif" font-size="10.00">_array</text>
</a>
</g>
<!-- Node1&#45;&gt;Node4 -->
<g id="edge6" class="edge"><title>Node1&#45;&gt;Node4</title>
<path fill="none" stroke="midnightblue" d="M107.001,-247.553C125.365,-252.522 147.828,-258.6 168.931,-264.311"/>
<polygon fill="midnightblue" stroke="midnightblue" points="168.267,-267.757 178.834,-266.99 170.095,-261 168.267,-267.757"/>
</g>
<!-- Node5 -->
<g id="node9" class="node"><title>Node5</title>
<a xlink:href="../../de/d4a/namespacepython.html#adb27db8de2c6c5b4f381fadcc86a4939" target="_top" xlink:title="python::convert_int">
<polygon fill="white" stroke="black" points="188,-226.5 188,-247.5 288,-247.5 288,-226.5 188,-226.5"/>
<text text-anchor="middle" x="238" y="-234.5" font-family="Helvetica,sans-Serif" font-size="10.00">python::convert_int</text>
</a>
</g>
<!-- Node1&#45;&gt;Node5 -->
<g id="edge8" class="edge"><title>Node1&#45;&gt;Node5</title>
<path fill="none" stroke="midnightblue" d="M136.166,-237C149.931,-237 164.31,-237 177.779,-237"/>
<polygon fill="midnightblue" stroke="midnightblue" points="177.876,-240.5 187.876,-237 177.876,-233.5 177.876,-240.5"/>
</g>
<!-- Node6 -->
<g id="node11" class="node"><title>Node6</title>
<a xlink:href="../../de/d4a/namespacepython.html#aaed0c03f36b79c4703d003314d78b412" target="_top" xlink:title="python::convert_string">
<polygon fill="white" stroke="black" points="181.5,-186.5 181.5,-207.5 294.5,-207.5 294.5,-186.5 181.5,-186.5"/>
<text text-anchor="middle" x="238" y="-194.5" font-family="Helvetica,sans-Serif" font-size="10.00">python::convert_string</text>
</a>
</g>
<!-- Node1&#45;&gt;Node6 -->
<g id="edge10" class="edge"><title>Node1&#45;&gt;Node6</title>
<path fill="none" stroke="midnightblue" d="M112.665,-226.49C134.346,-221.389 160.584,-215.215 183.439,-209.838"/>
<polygon fill="midnightblue" stroke="midnightblue" points="184.405,-213.206 193.338,-207.509 182.802,-206.392 184.405,-213.206"/>
</g>
<!-- Node7 -->
<g id="node13" class="node"><title>Node7</title>
<a xlink:href="../../de/d4a/namespacepython.html#a713f8b295244715fb64ea92c5b172d33" target="_top" xlink:title="python::import">
<polygon fill="white" stroke="black" points="198.5,-146.5 198.5,-167.5 277.5,-167.5 277.5,-146.5 198.5,-146.5"/>
<text text-anchor="middle" x="238" y="-154.5" font-family="Helvetica,sans-Serif" font-size="10.00">python::import</text>
</a>
</g>
<!-- Node1&#45;&gt;Node7 -->
<g id="edge12" class="edge"><title>Node1&#45;&gt;Node7</title>
<path fill="none" stroke="midnightblue" d="M83.6171,-226.462C103.462,-213.437 139.101,-191.251 172,-177 177.349,-174.683 183.051,-172.524 188.777,-170.547"/>
<polygon fill="midnightblue" stroke="midnightblue" points="189.971,-173.839 198.381,-167.394 187.788,-167.188 189.971,-173.839"/>
</g>
<!-- Node8 -->
<g id="node15" class="node"><title>Node8</title>
<a xlink:href="../../d6/d13/classFullRingAndRf.html#a76ca8401684654596782338b81268ef2" target="_top" xlink:title="FullRingAndRf::potential\l_well_generation">
<polygon fill="white" stroke="black" points="176.5,-94 176.5,-128 299.5,-128 299.5,-94 176.5,-94"/>
<text text-anchor="start" x="184.5" y="-115" font-family="Helvetica,sans-Serif" font-size="10.00">FullRingAndRf::potential</text>
<text text-anchor="middle" x="238" y="-102" font-family="Helvetica,sans-Serif" font-size="10.00">_well_generation</text>
</a>
</g>
<!-- Node1&#45;&gt;Node8 -->
<g id="edge14" class="edge"><title>Node1&#45;&gt;Node8</title>
<path fill="none" stroke="midnightblue" d="M76.6609,-226.245C93.2623,-206.237 131.525,-162.974 172,-137 174.301,-135.523 176.7,-134.107 179.162,-132.752"/>
<polygon fill="midnightblue" stroke="midnightblue" points="180.96,-135.764 188.29,-128.114 177.789,-129.523 180.96,-135.764"/>
</g>
<!-- Node9 -->
<g id="node17" class="node"><title>Node9</title>
<a xlink:href="../../df/d6d/namespacemymath.html#a5bcc40b5ebadd9d98f351775df65ec9f" target="_top" xlink:title="mymath::min">
<polygon fill="white" stroke="black" points="364,-200.5 364,-221.5 438,-221.5 438,-200.5 364,-200.5"/>
<text text-anchor="middle" x="401" y="-208.5" font-family="Helvetica,sans-Serif" font-size="10.00">mymath::min</text>
</a>
</g>
<!-- Node8&#45;&gt;Node9 -->
<g id="edge16" class="edge"><title>Node8&#45;&gt;Node9</title>
<path fill="none" stroke="midnightblue" d="M290.481,-128.139C295.28,-130.732 299.879,-133.674 304,-137 326.446,-155.115 317.034,-173.548 340,-191 344.381,-194.329 349.342,-197.118 354.495,-199.452"/>
<polygon fill="midnightblue" stroke="midnightblue" points="353.309,-202.747 363.895,-203.178 355.889,-196.239 353.309,-202.747"/>
</g>
<!-- Node10 -->
<g id="node19" class="node"><title>Node10</title>
<a xlink:href="../../df/d6d/namespacemymath.html#a2a11685fa6ce2396ae977fa1502a2cc4" target="_top" xlink:title="mymath::max">
<polygon fill="white" stroke="black" points="362.5,-160.5 362.5,-181.5 439.5,-181.5 439.5,-160.5 362.5,-160.5"/>
<text text-anchor="middle" x="401" y="-168.5" font-family="Helvetica,sans-Serif" font-size="10.00">mymath::max</text>
</a>
</g>
<!-- Node8&#45;&gt;Node10 -->
<g id="edge18" class="edge"><title>Node8&#45;&gt;Node10</title>
<path fill="none" stroke="midnightblue" d="M281.355,-128.066C307.726,-138.436 336.924,-149.893 340,-151 345.711,-153.054 351.752,-155.139 357.724,-157.149"/>
<polygon fill="midnightblue" stroke="midnightblue" points="357.048,-160.612 367.641,-160.442 359.254,-153.969 357.048,-160.612"/>
</g>
<!-- Node11 -->
<g id="node21" class="node"><title>Node11</title>
<a xlink:href="../../df/d6d/namespacemymath.html#af1c2c7c1207d41744f71b0ecb4ebf67a" target="_top" xlink:title="mymath::linspace">
<polygon fill="white" stroke="black" points="354,-120.5 354,-141.5 448,-141.5 448,-120.5 354,-120.5"/>
<text text-anchor="middle" x="401" y="-128.5" font-family="Helvetica,sans-Serif" font-size="10.00">mymath::linspace</text>
</a>
</g>
<!-- Node8&#45;&gt;Node11 -->
<g id="edge20" class="edge"><title>Node8&#45;&gt;Node11</title>
<path fill="none" stroke="midnightblue" d="M299.623,-118.561C314.06,-120.333 329.383,-122.213 343.625,-123.96"/>
<polygon fill="midnightblue" stroke="midnightblue" points="343.425,-127.462 353.777,-125.206 344.277,-120.514 343.425,-127.462"/>
</g>
<!-- Node12 -->
<g id="node23" class="node"><title>Node12</title>
<a xlink:href="../../df/d6d/namespacemymath.html#a38897799c9327d162f914bbb097fb8e3" target="_top" xlink:title="mymath::fast_sin">
<polygon fill="white" stroke="black" points="355,-80.5 355,-101.5 447,-101.5 447,-80.5 355,-80.5"/>
<text text-anchor="middle" x="401" y="-88.5" font-family="Helvetica,sans-Serif" font-size="10.00">mymath::fast_sin</text>
</a>
</g>
<!-- Node8&#45;&gt;Node12 -->
<g id="edge22" class="edge"><title>Node8&#45;&gt;Node12</title>
<path fill="none" stroke="midnightblue" d="M299.623,-103.439C314.35,-101.632 329.999,-99.7118 344.483,-97.9347"/>
<polygon fill="midnightblue" stroke="midnightblue" points="345.294,-101.361 354.793,-96.6696 344.441,-94.4136 345.294,-101.361"/>
</g>
<!-- Node19 -->
<g id="node37" class="node"><title>Node19</title>
<a xlink:href="../../df/d6d/namespacemymath.html#a31743e3fc7ec3ccb0df630d0cad57959" target="_top" xlink:title="mymath::sign">
<polygon fill="white" stroke="black" points="363,-40.5 363,-61.5 439,-61.5 439,-40.5 363,-40.5"/>
<text text-anchor="middle" x="401" y="-48.5" font-family="Helvetica,sans-Serif" font-size="10.00">mymath::sign</text>
</a>
</g>
<!-- Node8&#45;&gt;Node19 -->
<g id="edge36" class="edge"><title>Node8&#45;&gt;Node19</title>
<path fill="none" stroke="midnightblue" d="M279.979,-93.9168C298.317,-86.6153 320.132,-78.146 340,-71 345.711,-68.946 351.752,-66.8609 357.724,-64.8509"/>
<polygon fill="midnightblue" stroke="midnightblue" points="359.254,-68.0311 367.641,-61.5578 357.048,-61.3878 359.254,-68.0311"/>
</g>
<!-- Node20 -->
<g id="node39" class="node"><title>Node20</title>
<a xlink:href="../../df/d6d/namespacemymath.html#a37e69ec6da5a044211b293b350ed0df5" target="_top" xlink:title="mymath::cum_trapezoid">
<polygon fill="white" stroke="black" points="340,-0.5 340,-21.5 462,-21.5 462,-0.5 340,-0.5"/>
<text text-anchor="middle" x="401" y="-8.5" font-family="Helvetica,sans-Serif" font-size="10.00">mymath::cum_trapezoid</text>
</a>
</g>
<!-- Node8&#45;&gt;Node20 -->
<g id="edge38" class="edge"><title>Node8&#45;&gt;Node20</title>
<path fill="none" stroke="midnightblue" d="M255.795,-93.845C275.143,-75.9991 307.65,-48.2954 340,-31 343.977,-28.8735 348.222,-26.9196 352.549,-25.1367"/>
<polygon fill="midnightblue" stroke="midnightblue" points="353.984,-28.3357 362.084,-21.5066 351.493,-21.7938 353.984,-28.3357"/>
</g>
<!-- Node13 -->
<g id="node25" class="node"><title>Node13</title>
<a xlink:href="../../d5/d7b/namespacevdt.html#a0013dcb44ade5e87e083c6a0daddcfd9" target="_top" xlink:title="Double precision sine: just call sincos.">
<polygon fill="white" stroke="black" points="498.5,-80.5 498.5,-101.5 569.5,-101.5 569.5,-80.5 498.5,-80.5"/>
<text text-anchor="middle" x="534" y="-88.5" font-family="Helvetica,sans-Serif" font-size="10.00">vdt::fast_sin</text>
</a>
</g>
<!-- Node12&#45;&gt;Node13 -->
<g id="edge24" class="edge"><title>Node12&#45;&gt;Node13</title>
<path fill="none" stroke="midnightblue" d="M447.144,-91C460.405,-91 474.861,-91 488.107,-91"/>
<polygon fill="midnightblue" stroke="midnightblue" points="488.424,-94.5001 498.424,-91 488.424,-87.5001 488.424,-94.5001"/>
</g>
<!-- Node14 -->
<g id="node27" class="node"><title>Node14</title>
<a xlink:href="../../d5/d7b/namespacevdt.html#a1993fb5f0f92028ffbf6e853790a0161" target="_top" xlink:title="Double precision sincos.">
<polygon fill="white" stroke="black" points="606,-80.5 606,-101.5 692,-101.5 692,-80.5 606,-80.5"/>
<text text-anchor="middle" x="649" y="-88.5" font-family="Helvetica,sans-Serif" font-size="10.00">vdt::fast_sincos</text>
</a>
</g>
<!-- Node13&#45;&gt;Node14 -->
<g id="edge26" class="edge"><title>Node13&#45;&gt;Node14</title>
<path fill="none" stroke="midnightblue" d="M569.756,-91C578.002,-91 586.948,-91 595.759,-91"/>
<polygon fill="midnightblue" stroke="midnightblue" points="595.992,-94.5001 605.992,-91 595.992,-87.5001 595.992,-94.5001"/>
</g>
<!-- Node15 -->
<g id="node29" class="node"><title>Node15</title>
<a xlink:href="../../d1/d47/namespacevdt_1_1details.html#a50fa4cb8145d71e1867a3d899452fbba" target="_top" xlink:title="Reduce to 0 to 45.">
<polygon fill="white" stroke="black" points="728.5,-103.5 728.5,-124.5 871.5,-124.5 871.5,-103.5 728.5,-103.5"/>
<text text-anchor="middle" x="800" y="-111.5" font-family="Helvetica,sans-Serif" font-size="10.00">vdt::details::reduce2quadrant</text>
</a>
</g>
<!-- Node14&#45;&gt;Node15 -->
<g id="edge28" class="edge"><title>Node14&#45;&gt;Node15</title>
<path fill="none" stroke="midnightblue" d="M692.271,-97.5909C701.196,-98.9505 710.862,-100.423 720.615,-101.908"/>
<polygon fill="midnightblue" stroke="midnightblue" points="720.369,-105.411 730.782,-103.457 721.423,-98.4909 720.369,-105.411"/>
</g>
<!-- Node16 -->
<g id="node31" class="node"><title>Node16</title>
<a xlink:href="../../d1/d47/namespacevdt_1_1details.html#aefa743c10ceb855329b7005d9f353a5d" target="_top" xlink:title="Sincos only for &#45;45deg &lt; x &lt; 45deg.">
<polygon fill="white" stroke="black" points="755,-51 755,-85 845,-85 845,-51 755,-51"/>
<text text-anchor="start" x="763" y="-72" font-family="Helvetica,sans-Serif" font-size="10.00">vdt::details::fast</text>
<text text-anchor="middle" x="800" y="-59" font-family="Helvetica,sans-Serif" font-size="10.00">_sincos_m45_45</text>
</a>
</g>
<!-- Node14&#45;&gt;Node16 -->
<g id="edge30" class="edge"><title>Node14&#45;&gt;Node16</title>
<path fill="none" stroke="midnightblue" d="M692.271,-84.4091C708.662,-81.9124 727.549,-79.0356 744.885,-76.395"/>
<polygon fill="midnightblue" stroke="midnightblue" points="745.524,-79.8381 754.883,-74.8722 744.47,-72.918 745.524,-79.8381"/>
</g>
<!-- Node17 -->
<g id="node33" class="node"><title>Node17</title>
<a xlink:href="../../d1/d47/namespacevdt_1_1details.html#a72ab4125be9fdc73004f1fcec303dea6" target="_top" xlink:title="vdt::details::get_sin_px">
<polygon fill="white" stroke="black" points="910,-77.5 910,-98.5 1028,-98.5 1028,-77.5 910,-77.5"/>
<text text-anchor="middle" x="969" y="-85.5" font-family="Helvetica,sans-Serif" font-size="10.00">vdt::details::get_sin_px</text>
</a>
</g>
<!-- Node16&#45;&gt;Node17 -->
<g id="edge32" class="edge"><title>Node16&#45;&gt;Node17</title>
<path fill="none" stroke="midnightblue" d="M845.289,-73.3596C862.036,-75.3415 881.422,-77.6358 899.809,-79.8117"/>
<polygon fill="midnightblue" stroke="midnightblue" points="899.556,-83.3061 909.898,-81.0056 900.378,-76.3546 899.556,-83.3061"/>
</g>
<!-- Node18 -->
<g id="node35" class="node"><title>Node18</title>
<a xlink:href="../../d1/d47/namespacevdt_1_1details.html#a2d78ddff70416636dcab4eabcab25c8f" target="_top" xlink:title="vdt::details::get_cos_px">
<polygon fill="white" stroke="black" points="908.5,-37.5 908.5,-58.5 1029.5,-58.5 1029.5,-37.5 908.5,-37.5"/>
<text text-anchor="middle" x="969" y="-45.5" font-family="Helvetica,sans-Serif" font-size="10.00">vdt::details::get_cos_px</text>
</a>
</g>
<!-- Node16&#45;&gt;Node18 -->
<g id="edge34" class="edge"><title>Node16&#45;&gt;Node18</title>
<path fill="none" stroke="midnightblue" d="M845.289,-62.6404C861.548,-60.7163 880.295,-58.4977 898.199,-56.3788"/>
<polygon fill="midnightblue" stroke="midnightblue" points="898.807,-59.8314 908.327,-55.1803 897.984,-52.8799 898.807,-59.8314"/>
</g>
</g>
</svg>
        <g id="navigator" transform="translate(0 0)" fill="#404254">
                <rect fill="#f2f5e9" fill-opacity="0.5" stroke="#606060" stroke-width=".5" x="0" y="0" width="60" height="60"/>
                <use id="zoomplus" xlink:href="#zoomPlus" x="17" y="9" onmousedown="handleZoom(evt,'in')"/>
                <use id="zoomminus" xlink:href="#zoomMin" x="42" y="9" onmousedown="handleZoom(evt,'out')"/>
                <use id="reset" xlink:href="#resetDef" x="30" y="36" onmousedown="handleReset()"/>
                <g id="arrowUp" xlink:href="#dirArrow" transform="translate(30 24)" onmousedown="handlePan(0,-1)">
                  <use xlink:href="#rim" fill="#404040">
                        <set attributeName="fill" to="#808080" begin="arrowUp.mouseover" end="arrowUp.mouseout"/>
                  </use>
                  <path fill="none" stroke="white" stroke-width="1.5" d="M0,-3.0v7 M-2.5,-0.5L0,-3.0L2.5,-0.5"/>
                </g>
                <g id="arrowRight" xlink:href="#dirArrow" transform="rotate(90) translate(36 -43)" onmousedown="handlePan(1,0)">
                  <use xlink:href="#rim" fill="#404040">
                        <set attributeName="fill" to="#808080" begin="arrowRight.mouseover" end="arrowRight.mouseout"/>
                  </use>
                  <path fill="none" stroke="white" stroke-width="1.5" d="M0,-3.0v7 M-2.5,-0.5L0,-3.0L2.5,-0.5"/>
                </g>
                <g id="arrowDown" xlink:href="#dirArrow" transform="rotate(180) translate(-30 -48)" onmousedown="handlePan(0,1)">
                  <use xlink:href="#rim" fill="#404040">
                        <set attributeName="fill" to="#808080" begin="arrowDown.mouseover" end="arrowDown.mouseout"/>
                  </use>
                  <path fill="none" stroke="white" stroke-width="1.5" d="M0,-3.0v7 M-2.5,-0.5L0,-3.0L2.5,-0.5"/>
                </g>
                <g id="arrowLeft" xlink:href="#dirArrow" transform="rotate(270) translate(-36 17)" onmousedown="handlePan(-1,0)">
                  <use xlink:href="#rim" fill="#404040">
                        <set attributeName="fill" to="#808080" begin="arrowLeft.mouseover" end="arrowLeft.mouseout"/>
                  </use>
                  <path fill="none" stroke="white" stroke-width="1.5" d="M0,-3.0v7 M-2.5,-0.5L0,-3.0L2.5,-0.5"/>
                </g>
        </g>
        <svg viewBox="0 0 15 15" width="100%" height="30px" preserveAspectRatio="xMaxYMin meet">
         <g id="arrow_out" transform="scale(0.3 0.3)">
          <a xlink:href="Distributions_8h_aa18b9fc400fa994778e7e811423c2f06_cgraph_org.svg" target="_base">
           <rect id="button" ry="5" rx="5" y="6" x="6" height="38" width="38"
                fill="#f2f5e9" fill-opacity="0.5" stroke="#606060" stroke-width="1.0"/>
           <path id="arrow"
             d="M 11.500037,31.436501 C 11.940474,20.09759 22.043105,11.32322 32.158766,21.979434 L 37.068811,17.246167 C 37.068811,17.246167 37.088388,32 37.088388,32 L 22.160133,31.978069 C 22.160133,31.978069 26.997745,27.140456 26.997745,27.140456 C 18.528582,18.264221 13.291696,25.230495 11.500037,31.436501 z"
             style="fill:#404040;"/>
          </a>
         </g>
        </svg>
</svg>
