<?xml version="1.0" encoding="UTF-8" standalone="no"?>
<!DOCTYPE svg PUBLIC "-//W3C//DTD SVG 1.1//EN"
 "http://www.w3.org/Graphics/SVG/1.1/DTD/svg11.dtd">
<!-- Generated by graphviz version 2.26.3 (20100126.1600)
 -->
<!-- Title: _matched_from_distribution_density Pages: 1 -->
<svg width="314pt" height="242pt"
 viewBox="0.00 0.00 314.00 242.00" xmlns="http://www.w3.org/2000/svg" xmlns:xlink="http://www.w3.org/1999/xlink">
<g id="graph1" class="graph" transform="scale(1 1) rotate(0) translate(4 238)">
<title>_matched_from_distribution_density</title>
<polygon fill="white" stroke="white" points="-4,5 -4,-238 311,-238 311,5 -4,5"/>
<!-- Node1 -->
<g id="node1" class="node"><title>Node1</title>
<polygon fill="#bfbfbf" stroke="black" points="0.5,-97 0.5,-131 137.5,-131 137.5,-97 0.5,-97"/>
<text text-anchor="start" x="8.5" y="-118" font-family="Helvetica,sans-Serif" font-size="10.00">_matched_from_distribution</text>
<text text-anchor="middle" x="69" y="-105" font-family="Helvetica,sans-Serif" font-size="10.00">_density</text>
</g>
<!-- Node2 -->
<g id="node3" class="node"><title>Node2</title>
<a xlink:href="../../de/d4a/namespacepython.html#a3ed6443d960779c5c83ac6f6a2ff95ee" target="_top" xlink:title="python::convert_dictionary">
<polygon fill="white" stroke="black" points="174.5,-212.5 174.5,-233.5 305.5,-233.5 305.5,-212.5 174.5,-212.5"/>
<text text-anchor="middle" x="240" y="-220.5" font-family="Helvetica,sans-Serif" font-size="10.00">python::convert_dictionary</text>
</a>
</g>
<!-- Node1&#45;&gt;Node2 -->
<g id="edge2" class="edge"><title>Node1&#45;&gt;Node2</title>
<path fill="none" stroke="midnightblue" d="M84.8494,-131.158C104.134,-151.085 138.533,-183.685 174,-203 177.951,-205.152 182.165,-207.103 186.478,-208.866"/>
<polygon fill="midnightblue" stroke="midnightblue" points="185.425,-212.208 196.018,-212.429 187.875,-205.651 185.425,-212.208"/>
</g>
<!-- Node3 -->
<g id="node5" class="node"><title>Node3</title>
<a xlink:href="../../de/d4a/namespacepython.html#a740e30ed26764f275117126a9547767c" target="_top" xlink:title="python::convert_double">
<polygon fill="white" stroke="black" points="181,-172.5 181,-193.5 299,-193.5 299,-172.5 181,-172.5"/>
<text text-anchor="middle" x="240" y="-180.5" font-family="Helvetica,sans-Serif" font-size="10.00">python::convert_double</text>
</a>
</g>
<!-- Node1&#45;&gt;Node3 -->
<g id="edge4" class="edge"><title>Node1&#45;&gt;Node3</title>
<path fill="none" stroke="midnightblue" d="M102.519,-131.134C122.88,-141.165 149.575,-153.655 174,-163 179.871,-165.246 186.109,-167.412 192.318,-169.437"/>
<polygon fill="midnightblue" stroke="midnightblue" points="191.403,-172.818 201.993,-172.492 193.511,-166.143 191.403,-172.818"/>
</g>
<!-- Node4 -->
<g id="node7" class="node"><title>Node4</title>
<a xlink:href="../../de/d4a/namespacepython.html#a38f56692b4793b00b074fc192783947e" target="_top" xlink:title="python::convert_double\l_array">
<polygon fill="white" stroke="black" points="181,-120 181,-154 299,-154 299,-120 181,-120"/>
<text text-anchor="start" x="189" y="-141" font-family="Helvetica,sans-Serif" font-size="10.00">python::convert_double</text>
<text text-anchor="middle" x="240" y="-128" font-family="Helvetica,sans-Serif" font-size="10.00">_array</text>
</a>
</g>
<!-- Node1&#45;&gt;Node4 -->
<g id="edge6" class="edge"><title>Node1&#45;&gt;Node4</title>
<path fill="none" stroke="midnightblue" d="M137.567,-123.222C148.522,-124.696 159.864,-126.222 170.834,-127.697"/>
<polygon fill="midnightblue" stroke="midnightblue" points="170.404,-131.171 180.781,-129.035 171.337,-124.233 170.404,-131.171"/>
</g>
<!-- Node5 -->
<g id="node9" class="node"><title>Node5</title>
<a xlink:href="../../de/d4a/namespacepython.html#adb27db8de2c6c5b4f381fadcc86a4939" target="_top" xlink:title="python::convert_int">
<polygon fill="white" stroke="black" points="190,-80.5 190,-101.5 290,-101.5 290,-80.5 190,-80.5"/>
<text text-anchor="middle" x="240" y="-88.5" font-family="Helvetica,sans-Serif" font-size="10.00">python::convert_int</text>
</a>
</g>
<!-- Node1&#45;&gt;Node5 -->
<g id="edge8" class="edge"><title>Node1&#45;&gt;Node5</title>
<path fill="none" stroke="midnightblue" d="M137.567,-104.778C151.487,-102.905 166.031,-100.949 179.642,-99.1183"/>
<polygon fill="midnightblue" stroke="midnightblue" points="180.398,-102.548 189.843,-97.7463 179.465,-95.6107 180.398,-102.548"/>
</g>
<!-- Node6 -->
<g id="node11" class="node"><title>Node6</title>
<a xlink:href="../../de/d4a/namespacepython.html#aaed0c03f36b79c4703d003314d78b412" target="_top" xlink:title="python::convert_string">
<polygon fill="white" stroke="black" points="183.5,-40.5 183.5,-61.5 296.5,-61.5 296.5,-40.5 183.5,-40.5"/>
<text text-anchor="middle" x="240" y="-48.5" font-family="Helvetica,sans-Serif" font-size="10.00">python::convert_string</text>
</a>
</g>
<!-- Node1&#45;&gt;Node6 -->
<g id="edge10" class="edge"><title>Node1&#45;&gt;Node6</title>
<path fill="none" stroke="midnightblue" d="M108.051,-96.9804C127.671,-88.693 151.912,-78.8497 174,-71 180.071,-68.8425 186.506,-66.7083 192.884,-64.683"/>
<polygon fill="midnightblue" stroke="midnightblue" points="194.287,-67.912 202.798,-61.6022 192.21,-61.2273 194.287,-67.912"/>
</g>
<!-- Node7 -->
<g id="node13" class="node"><title>Node7</title>
<a xlink:href="../../de/d4a/namespacepython.html#a713f8b295244715fb64ea92c5b172d33" target="_top" xlink:title="python::import">
<polygon fill="white" stroke="black" points="200.5,-0.5 200.5,-21.5 279.5,-21.5 279.5,-0.5 200.5,-0.5"/>
<text text-anchor="middle" x="240" y="-8.5" font-family="Helvetica,sans-Serif" font-size="10.00">python::import</text>
</a>
</g>
<!-- Node1&#45;&gt;Node7 -->
<g id="edge12" class="edge"><title>Node1&#45;&gt;Node7</title>
<path fill="none" stroke="midnightblue" d="M86.4894,-96.7246C106.223,-78.1049 140.02,-48.7582 174,-31 179.234,-28.2645 184.902,-25.8406 190.642,-23.7099"/>
<polygon fill="midnightblue" stroke="midnightblue" points="191.98,-26.9509 200.305,-20.3974 189.71,-20.3292 191.98,-26.9509"/>
</g>
</g>
</svg>
