<?xml version="1.0" encoding="UTF-8" standalone="no"?>
<!DOCTYPE svg PUBLIC "-//W3C//DTD SVG 1.1//EN"
 "http://www.w3.org/Graphics/SVG/1.1/DTD/svg11.dtd">
<!-- Generated by graphviz version 2.26.3 (20100126.1600)
 -->
<!-- Title: matched_from_distribution_density Pages: 1 -->
<!--zoomable 388 -->
<svg id="main" version="1.1" xmlns="http://www.w3.org/2000/svg" xmlns:xlink="http://www.w3.org/1999/xlink" xml:space="preserve" onload="init(evt)">
        <defs>
                <circle id="rim" cx="0" cy="0" r="7"/>
                <circle id="rim2" cx="0" cy="0" r="3.5"/>
                <g id="zoomPlus">
                        <use xlink:href="#rim" fill="#404040">
                                <set attributeName="fill" to="#808080" begin="zoomplus.mouseover" end="zoomplus.mouseout"/>
                        </use>
                        <path d="M-4,0h8M0,-4v8" fill="none" stroke="white" stroke-width="1.5" pointer-events="none"/>
                </g>
                <g id="zoomMin">
                        <use xlink:href="#rim" fill="#404040">
                                <set attributeName="fill" to="#808080" begin="zoomminus.mouseover" end="zoomminus.mouseout"/>
                        </use>
                        <path d="M-4,0h8" fill="none" stroke="white" stroke-width="1.5" pointer-events="none"/>
                </g>
                <g id="dirArrow">
                        <path fill="none" stroke="white" stroke-width="1.5" d="M0,-3.0v7 M-2.5,-0.5L0,-3.0L2.5,-0.5"/>
                </g>
               <g id="resetDef">
                       <use xlink:href="#rim2" fill="#404040">
                               <set attributeName="fill" to="#808080" begin="reset.mouseover" end="reset.mouseout"/>
                       </use>
               </g>
        </defs>

<script type="text/javascript">
var viewWidth = 1034;
var viewHeight = 388;
var sectionId = 'dynsection-3';
</script>
<script xlink:href="../../svgpan.js"/>
<svg id="graph" class="graph">
<g id="viewport">
<title>matched_from_distribution_density</title>
<polygon fill="white" stroke="white" points="-4,5 -4,-384 1031,-384 1031,5 -4,5"/>
<!-- Node1 -->
<g id="node1" class="node"><title>Node1</title>
<polygon fill="#bfbfbf" stroke="black" points="0.5,-220 0.5,-254 131.5,-254 131.5,-220 0.5,-220"/>
<text text-anchor="start" x="8.5" y="-241" font-family="Helvetica,sans-Serif" font-size="10.00">matched_from_distribution</text>
<text text-anchor="middle" x="66" y="-228" font-family="Helvetica,sans-Serif" font-size="10.00">_density</text>
</g>
<!-- Node2 -->
<g id="node3" class="node"><title>Node2</title>
<a xlink:href="../../de/d4a/namespacepython.html#a3ed6443d960779c5c83ac6f6a2ff95ee" target="_top" xlink:title="python::convert_dictionary">
<polygon fill="white" stroke="black" points="168.5,-358.5 168.5,-379.5 299.5,-379.5 299.5,-358.5 168.5,-358.5"/>
<text text-anchor="middle" x="234" y="-366.5" font-family="Helvetica,sans-Serif" font-size="10.00">python::convert_dictionary</text>
</a>
</g>
<!-- Node1&#45;&gt;Node2 -->
<g id="edge2" class="edge"><title>Node1&#45;&gt;Node2</title>
<path fill="none" stroke="midnightblue" d="M77.0478,-254.07C93.8057,-278.623 127.971,-323.727 168,-349 171.173,-351.003 174.559,-352.816 178.057,-354.455"/>
<polygon fill="midnightblue" stroke="midnightblue" points="176.936,-357.779 187.512,-358.397 179.629,-351.318 176.936,-357.779"/>
</g>
<!-- Node3 -->
<g id="node5" class="node"><title>Node3</title>
<a xlink:href="../../de/d4a/namespacepython.html#a740e30ed26764f275117126a9547767c" target="_top" xlink:title="python::convert_double">
<polygon fill="white" stroke="black" points="175,-318.5 175,-339.5 293,-339.5 293,-318.5 175,-318.5"/>
<text text-anchor="middle" x="234" y="-326.5" font-family="Helvetica,sans-Serif" font-size="10.00">python::convert_double</text>
</a>
</g>
<!-- Node1&#45;&gt;Node3 -->
<g id="edge4" class="edge"><title>Node1&#45;&gt;Node3</title>
<path fill="none" stroke="midnightblue" d="M86.2461,-254.273C105.987,-270.366 137.423,-294.062 168,-309 172.589,-311.242 177.481,-313.292 182.448,-315.152"/>
<polygon fill="midnightblue" stroke="midnightblue" points="181.436,-318.506 192.031,-318.495 183.742,-311.896 181.436,-318.506"/>
</g>
<!-- Node4 -->
<g id="node7" class="node"><title>Node4</title>
<a xlink:href="../../de/d4a/namespacepython.html#a38f56692b4793b00b074fc192783947e" target="_top" xlink:title="python::convert_double\l_array">
<polygon fill="white" stroke="black" points="175,-266 175,-300 293,-300 293,-266 175,-266"/>
<text text-anchor="start" x="183" y="-287" font-family="Helvetica,sans-Serif" font-size="10.00">python::convert_double</text>
<text text-anchor="middle" x="234" y="-274" font-family="Helvetica,sans-Serif" font-size="10.00">_array</text>
</a>
</g>
<!-- Node1&#45;&gt;Node4 -->
<g id="edge6" class="edge"><title>Node1&#45;&gt;Node4</title>
<path fill="none" stroke="midnightblue" d="M128.557,-254.129C140.364,-257.362 152.777,-260.76 164.775,-264.045"/>
<polygon fill="midnightblue" stroke="midnightblue" points="164.163,-267.507 174.733,-266.772 166.012,-260.755 164.163,-267.507"/>
</g>
<!-- Node5 -->
<g id="node9" class="node"><title>Node5</title>
<a xlink:href="../../de/d4a/namespacepython.html#adb27db8de2c6c5b4f381fadcc86a4939" target="_top" xlink:title="python::convert_int">
<polygon fill="white" stroke="black" points="184,-226.5 184,-247.5 284,-247.5 284,-226.5 184,-226.5"/>
<text text-anchor="middle" x="234" y="-234.5" font-family="Helvetica,sans-Serif" font-size="10.00">python::convert_int</text>
</a>
</g>
<!-- Node1&#45;&gt;Node5 -->
<g id="edge8" class="edge"><title>Node1&#45;&gt;Node5</title>
<path fill="none" stroke="midnightblue" d="M131.916,-237C145.688,-237 160.14,-237 173.696,-237"/>
<polygon fill="midnightblue" stroke="midnightblue" points="173.861,-240.5 183.861,-237 173.861,-233.5 173.861,-240.5"/>
</g>
<!-- Node6 -->
<g id="node11" class="node"><title>Node6</title>
<a xlink:href="../../de/d4a/namespacepython.html#aaed0c03f36b79c4703d003314d78b412" target="_top" xlink:title="python::convert_string">
<polygon fill="white" stroke="black" points="177.5,-186.5 177.5,-207.5 290.5,-207.5 290.5,-186.5 177.5,-186.5"/>
<text text-anchor="middle" x="234" y="-194.5" font-family="Helvetica,sans-Serif" font-size="10.00">python::convert_string</text>
</a>
</g>
<!-- Node1&#45;&gt;Node6 -->
<g id="edge10" class="edge"><title>Node1&#45;&gt;Node6</title>
<path fill="none" stroke="midnightblue" d="M131.916,-221.306C147.827,-217.517 164.647,-213.513 179.943,-209.871"/>
<polygon fill="midnightblue" stroke="midnightblue" points="180.832,-213.257 189.749,-207.536 179.211,-206.447 180.832,-213.257"/>
</g>
<!-- Node7 -->
<g id="node13" class="node"><title>Node7</title>
<a xlink:href="../../de/d4a/namespacepython.html#a713f8b295244715fb64ea92c5b172d33" target="_top" xlink:title="python::import">
<polygon fill="white" stroke="black" points="194.5,-146.5 194.5,-167.5 273.5,-167.5 273.5,-146.5 194.5,-146.5"/>
<text text-anchor="middle" x="234" y="-154.5" font-family="Helvetica,sans-Serif" font-size="10.00">python::import</text>
</a>
</g>
<!-- Node1&#45;&gt;Node7 -->
<g id="edge12" class="edge"><title>Node1&#45;&gt;Node7</title>
<path fill="none" stroke="midnightblue" d="M91.0955,-219.954C111.214,-206.861 140.526,-189.038 168,-177 173.339,-174.66 179.035,-172.487 184.758,-170.502"/>
<polygon fill="midnightblue" stroke="midnightblue" points="185.954,-173.793 194.358,-167.342 183.765,-167.144 185.954,-173.793"/>
</g>
<!-- Node8 -->
<g id="node15" class="node"><title>Node8</title>
<a xlink:href="../../d6/d13/classFullRingAndRf.html#a76ca8401684654596782338b81268ef2" target="_top" xlink:title="FullRingAndRf::potential\l_well_generation">
<polygon fill="white" stroke="black" points="172.5,-94 172.5,-128 295.5,-128 295.5,-94 172.5,-94"/>
<text text-anchor="start" x="180.5" y="-115" font-family="Helvetica,sans-Serif" font-size="10.00">FullRingAndRf::potential</text>
<text text-anchor="middle" x="234" y="-102" font-family="Helvetica,sans-Serif" font-size="10.00">_well_generation</text>
</a>
</g>
<!-- Node1&#45;&gt;Node8 -->
<g id="edge14" class="edge"><title>Node1&#45;&gt;Node8</title>
<path fill="none" stroke="midnightblue" d="M79.8625,-219.643C98.0785,-197.806 132.006,-160.346 168,-137 170.294,-135.512 172.687,-134.087 175.144,-132.724"/>
<polygon fill="midnightblue" stroke="midnightblue" points="176.947,-135.733 184.259,-128.066 173.762,-129.5 176.947,-135.733"/>
</g>
<!-- Node9 -->
<g id="node17" class="node"><title>Node9</title>
<a xlink:href="../../df/d6d/namespacemymath.html#a5bcc40b5ebadd9d98f351775df65ec9f" target="_top" xlink:title="mymath::min">
<polygon fill="white" stroke="black" points="360,-200.5 360,-221.5 434,-221.5 434,-200.5 360,-200.5"/>
<text text-anchor="middle" x="397" y="-208.5" font-family="Helvetica,sans-Serif" font-size="10.00">mymath::min</text>
</a>
</g>
<!-- Node8&#45;&gt;Node9 -->
<g id="edge16" class="edge"><title>Node8&#45;&gt;Node9</title>
<path fill="none" stroke="midnightblue" d="M286.481,-128.139C291.28,-130.732 295.879,-133.674 300,-137 322.446,-155.115 313.034,-173.548 336,-191 340.381,-194.329 345.342,-197.118 350.495,-199.452"/>
<polygon fill="midnightblue" stroke="midnightblue" points="349.309,-202.747 359.895,-203.178 351.889,-196.239 349.309,-202.747"/>
</g>
<!-- Node10 -->
<g id="node19" class="node"><title>Node10</title>
<a xlink:href="../../df/d6d/namespacemymath.html#a2a11685fa6ce2396ae977fa1502a2cc4" target="_top" xlink:title="mymath::max">
<polygon fill="white" stroke="black" points="358.5,-160.5 358.5,-181.5 435.5,-181.5 435.5,-160.5 358.5,-160.5"/>
<text text-anchor="middle" x="397" y="-168.5" font-family="Helvetica,sans-Serif" font-size="10.00">mymath::max</text>
</a>
</g>
<!-- Node8&#45;&gt;Node10 -->
<g id="edge18" class="edge"><title>Node8&#45;&gt;Node10</title>
<path fill="none" stroke="midnightblue" d="M277.355,-128.066C303.726,-138.436 332.924,-149.893 336,-151 341.711,-153.054 347.752,-155.139 353.724,-157.149"/>
<polygon fill="midnightblue" stroke="midnightblue" points="353.048,-160.612 363.641,-160.442 355.254,-153.969 353.048,-160.612"/>
</g>
<!-- Node11 -->
<g id="node21" class="node"><title>Node11</title>
<a xlink:href="../../df/d6d/namespacemymath.html#af1c2c7c1207d41744f71b0ecb4ebf67a" target="_top" xlink:title="mymath::linspace">
<polygon fill="white" stroke="black" points="350,-120.5 350,-141.5 444,-141.5 444,-120.5 350,-120.5"/>
<text text-anchor="middle" x="397" y="-128.5" font-family="Helvetica,sans-Serif" font-size="10.00">mymath::linspace</text>
</a>
</g>
<!-- Node8&#45;&gt;Node11 -->
<g id="edge20" class="edge"><title>Node8&#45;&gt;Node11</title>
<path fill="none" stroke="midnightblue" d="M295.623,-118.561C310.06,-120.333 325.383,-122.213 339.625,-123.96"/>
<polygon fill="midnightblue" stroke="midnightblue" points="339.425,-127.462 349.777,-125.206 340.277,-120.514 339.425,-127.462"/>
</g>
<!-- Node12 -->
<g id="node23" class="node"><title>Node12</title>
<a xlink:href="../../df/d6d/namespacemymath.html#a38897799c9327d162f914bbb097fb8e3" target="_top" xlink:title="mymath::fast_sin">
<polygon fill="white" stroke="black" points="351,-80.5 351,-101.5 443,-101.5 443,-80.5 351,-80.5"/>
<text text-anchor="middle" x="397" y="-88.5" font-family="Helvetica,sans-Serif" font-size="10.00">mymath::fast_sin</text>
</a>
</g>
<!-- Node8&#45;&gt;Node12 -->
<g id="edge22" class="edge"><title>Node8&#45;&gt;Node12</title>
<path fill="none" stroke="midnightblue" d="M295.623,-103.439C310.35,-101.632 325.999,-99.7118 340.483,-97.9347"/>
<polygon fill="midnightblue" stroke="midnightblue" points="341.294,-101.361 350.793,-96.6696 340.441,-94.4136 341.294,-101.361"/>
</g>
<!-- Node19 -->
<g id="node37" class="node"><title>Node19</title>
<a xlink:href="../../df/d6d/namespacemymath.html#a31743e3fc7ec3ccb0df630d0cad57959" target="_top" xlink:title="mymath::sign">
<polygon fill="white" stroke="black" points="359,-40.5 359,-61.5 435,-61.5 435,-40.5 359,-40.5"/>
<text text-anchor="middle" x="397" y="-48.5" font-family="Helvetica,sans-Serif" font-size="10.00">mymath::sign</text>
</a>
</g>
<!-- Node8&#45;&gt;Node19 -->
<g id="edge36" class="edge"><title>Node8&#45;&gt;Node19</title>
<path fill="none" stroke="midnightblue" d="M275.979,-93.9168C294.317,-86.6153 316.132,-78.146 336,-71 341.711,-68.946 347.752,-66.8609 353.724,-64.8509"/>
<polygon fill="midnightblue" stroke="midnightblue" points="355.254,-68.0311 363.641,-61.5578 353.048,-61.3878 355.254,-68.0311"/>
</g>
<!-- Node20 -->
<g id="node39" class="node"><title>Node20</title>
<a xlink:href="../../df/d6d/namespacemymath.html#a37e69ec6da5a044211b293b350ed0df5" target="_top" xlink:title="mymath::cum_trapezoid">
<polygon fill="white" stroke="black" points="336,-0.5 336,-21.5 458,-21.5 458,-0.5 336,-0.5"/>
<text text-anchor="middle" x="397" y="-8.5" font-family="Helvetica,sans-Serif" font-size="10.00">mymath::cum_trapezoid</text>
</a>
</g>
<!-- Node8&#45;&gt;Node20 -->
<g id="edge38" class="edge"><title>Node8&#45;&gt;Node20</title>
<path fill="none" stroke="midnightblue" d="M251.795,-93.845C271.143,-75.9991 303.65,-48.2954 336,-31 339.977,-28.8735 344.222,-26.9196 348.549,-25.1367"/>
<polygon fill="midnightblue" stroke="midnightblue" points="349.984,-28.3357 358.084,-21.5066 347.493,-21.7938 349.984,-28.3357"/>
</g>
<!-- Node13 -->
<g id="node25" class="node"><title>Node13</title>
<a xlink:href="../../d5/d7b/namespacevdt.html#a0013dcb44ade5e87e083c6a0daddcfd9" target="_top" xlink:title="Double precision sine: just call sincos.">
<polygon fill="white" stroke="black" points="494.5,-80.5 494.5,-101.5 565.5,-101.5 565.5,-80.5 494.5,-80.5"/>
<text text-anchor="middle" x="530" y="-88.5" font-family="Helvetica,sans-Serif" font-size="10.00">vdt::fast_sin</text>
</a>
</g>
<!-- Node12&#45;&gt;Node13 -->
<g id="edge24" class="edge"><title>Node12&#45;&gt;Node13</title>
<path fill="none" stroke="midnightblue" d="M443.144,-91C456.405,-91 470.861,-91 484.107,-91"/>
<polygon fill="midnightblue" stroke="midnightblue" points="484.424,-94.5001 494.424,-91 484.424,-87.5001 484.424,-94.5001"/>
</g>
<!-- Node14 -->
<g id="node27" class="node"><title>Node14</title>
<a xlink:href="../../d5/d7b/namespacevdt.html#a1993fb5f0f92028ffbf6e853790a0161" target="_top" xlink:title="Double precision sincos.">
<polygon fill="white" stroke="black" points="602,-80.5 602,-101.5 688,-101.5 688,-80.5 602,-80.5"/>
<text text-anchor="middle" x="645" y="-88.5" font-family="Helvetica,sans-Serif" font-size="10.00">vdt::fast_sincos</text>
</a>
</g>
<!-- Node13&#45;&gt;Node14 -->
<g id="edge26" class="edge"><title>Node13&#45;&gt;Node14</title>
<path fill="none" stroke="midnightblue" d="M565.756,-91C574.002,-91 582.948,-91 591.759,-91"/>
<polygon fill="midnightblue" stroke="midnightblue" points="591.992,-94.5001 601.992,-91 591.992,-87.5001 591.992,-94.5001"/>
</g>
<!-- Node15 -->
<g id="node29" class="node"><title>Node15</title>
<a xlink:href="../../d1/d47/namespacevdt_1_1details.html#a50fa4cb8145d71e1867a3d899452fbba" target="_top" xlink:title="Reduce to 0 to 45.">
<polygon fill="white" stroke="black" points="724.5,-103.5 724.5,-124.5 867.5,-124.5 867.5,-103.5 724.5,-103.5"/>
<text text-anchor="middle" x="796" y="-111.5" font-family="Helvetica,sans-Serif" font-size="10.00">vdt::details::reduce2quadrant</text>
</a>
</g>
<!-- Node14&#45;&gt;Node15 -->
<g id="edge28" class="edge"><title>Node14&#45;&gt;Node15</title>
<path fill="none" stroke="midnightblue" d="M688.271,-97.5909C697.196,-98.9505 706.862,-100.423 716.615,-101.908"/>
<polygon fill="midnightblue" stroke="midnightblue" points="716.369,-105.411 726.782,-103.457 717.423,-98.4909 716.369,-105.411"/>
</g>
<!-- Node16 -->
<g id="node31" class="node"><title>Node16</title>
<a xlink:href="../../d1/d47/namespacevdt_1_1details.html#aefa743c10ceb855329b7005d9f353a5d" target="_top" xlink:title="Sincos only for &#45;45deg &lt; x &lt; 45deg.">
<polygon fill="white" stroke="black" points="751,-51 751,-85 841,-85 841,-51 751,-51"/>
<text text-anchor="start" x="759" y="-72" font-family="Helvetica,sans-Serif" font-size="10.00">vdt::details::fast</text>
<text text-anchor="middle" x="796" y="-59" font-family="Helvetica,sans-Serif" font-size="10.00">_sincos_m45_45</text>
</a>
</g>
<!-- Node14&#45;&gt;Node16 -->
<g id="edge30" class="edge"><title>Node14&#45;&gt;Node16</title>
<path fill="none" stroke="midnightblue" d="M688.271,-84.4091C704.662,-81.9124 723.549,-79.0356 740.885,-76.395"/>
<polygon fill="midnightblue" stroke="midnightblue" points="741.524,-79.8381 750.883,-74.8722 740.47,-72.918 741.524,-79.8381"/>
</g>
<!-- Node17 -->
<g id="node33" class="node"><title>Node17</title>
<a xlink:href="../../d1/d47/namespacevdt_1_1details.html#a72ab4125be9fdc73004f1fcec303dea6" target="_top" xlink:title="vdt::details::get_sin_px">
<polygon fill="white" stroke="black" points="906,-77.5 906,-98.5 1024,-98.5 1024,-77.5 906,-77.5"/>
<text text-anchor="middle" x="965" y="-85.5" font-family="Helvetica,sans-Serif" font-size="10.00">vdt::details::get_sin_px</text>
</a>
</g>
<!-- Node16&#45;&gt;Node17 -->
<g id="edge32" class="edge"><title>Node16&#45;&gt;Node17</title>
<path fill="none" stroke="midnightblue" d="M841.289,-73.3596C858.036,-75.3415 877.422,-77.6358 895.809,-79.8117"/>
<polygon fill="midnightblue" stroke="midnightblue" points="895.556,-83.3061 905.898,-81.0056 896.378,-76.3546 895.556,-83.3061"/>
</g>
<!-- Node18 -->
<g id="node35" class="node"><title>Node18</title>
<a xlink:href="../../d1/d47/namespacevdt_1_1details.html#a2d78ddff70416636dcab4eabcab25c8f" target="_top" xlink:title="vdt::details::get_cos_px">
<polygon fill="white" stroke="black" points="904.5,-37.5 904.5,-58.5 1025.5,-58.5 1025.5,-37.5 904.5,-37.5"/>
<text text-anchor="middle" x="965" y="-45.5" font-family="Helvetica,sans-Serif" font-size="10.00">vdt::details::get_cos_px</text>
</a>
</g>
<!-- Node16&#45;&gt;Node18 -->
<g id="edge34" class="edge"><title>Node16&#45;&gt;Node18</title>
<path fill="none" stroke="midnightblue" d="M841.289,-62.6404C857.548,-60.7163 876.295,-58.4977 894.199,-56.3788"/>
<polygon fill="midnightblue" stroke="midnightblue" points="894.807,-59.8314 904.327,-55.1803 893.984,-52.8799 894.807,-59.8314"/>
</g>
</g>
</svg>
        <g id="navigator" transform="translate(0 0)" fill="#404254">
                <rect fill="#f2f5e9" fill-opacity="0.5" stroke="#606060" stroke-width=".5" x="0" y="0" width="60" height="60"/>
                <use id="zoomplus" xlink:href="#zoomPlus" x="17" y="9" onmousedown="handleZoom(evt,'in')"/>
                <use id="zoomminus" xlink:href="#zoomMin" x="42" y="9" onmousedown="handleZoom(evt,'out')"/>
                <use id="reset" xlink:href="#resetDef" x="30" y="36" onmousedown="handleReset()"/>
                <g id="arrowUp" xlink:href="#dirArrow" transform="translate(30 24)" onmousedown="handlePan(0,-1)">
                  <use xlink:href="#rim" fill="#404040">
                        <set attributeName="fill" to="#808080" begin="arrowUp.mouseover" end="arrowUp.mouseout"/>
                  </use>
                  <path fill="none" stroke="white" stroke-width="1.5" d="M0,-3.0v7 M-2.5,-0.5L0,-3.0L2.5,-0.5"/>
                </g>
                <g id="arrowRight" xlink:href="#dirArrow" transform="rotate(90) translate(36 -43)" onmousedown="handlePan(1,0)">
                  <use xlink:href="#rim" fill="#404040">
                        <set attributeName="fill" to="#808080" begin="arrowRight.mouseover" end="arrowRight.mouseout"/>
                  </use>
                  <path fill="none" stroke="white" stroke-width="1.5" d="M0,-3.0v7 M-2.5,-0.5L0,-3.0L2.5,-0.5"/>
                </g>
                <g id="arrowDown" xlink:href="#dirArrow" transform="rotate(180) translate(-30 -48)" onmousedown="handlePan(0,1)">
                  <use xlink:href="#rim" fill="#404040">
                        <set attributeName="fill" to="#808080" begin="arrowDown.mouseover" end="arrowDown.mouseout"/>
                  </use>
                  <path fill="none" stroke="white" stroke-width="1.5" d="M0,-3.0v7 M-2.5,-0.5L0,-3.0L2.5,-0.5"/>
                </g>
                <g id="arrowLeft" xlink:href="#dirArrow" transform="rotate(270) translate(-36 17)" onmousedown="handlePan(-1,0)">
                  <use xlink:href="#rim" fill="#404040">
                        <set attributeName="fill" to="#808080" begin="arrowLeft.mouseover" end="arrowLeft.mouseout"/>
                  </use>
                  <path fill="none" stroke="white" stroke-width="1.5" d="M0,-3.0v7 M-2.5,-0.5L0,-3.0L2.5,-0.5"/>
                </g>
        </g>
        <svg viewBox="0 0 15 15" width="100%" height="30px" preserveAspectRatio="xMaxYMin meet">
         <g id="arrow_out" transform="scale(0.3 0.3)">
          <a xlink:href="Distributions_8h_a39ba163b714fe197bd81ac64ffa48d30_cgraph_org.svg" target="_base">
           <rect id="button" ry="5" rx="5" y="6" x="6" height="38" width="38"
                fill="#f2f5e9" fill-opacity="0.5" stroke="#606060" stroke-width="1.0"/>
           <path id="arrow"
             d="M 11.500037,31.436501 C 11.940474,20.09759 22.043105,11.32322 32.158766,21.979434 L 37.068811,17.246167 C 37.068811,17.246167 37.088388,32 37.088388,32 L 22.160133,31.978069 C 22.160133,31.978069 26.997745,27.140456 26.997745,27.140456 C 18.528582,18.264221 13.291696,25.230495 11.500037,31.436501 z"
             style="fill:#404040;"/>
          </a>
         </g>
        </svg>
</svg>
