<?xml version="1.0" encoding="UTF-8" standalone="no"?>
<!DOCTYPE svg PUBLIC "-//W3C//DTD SVG 1.1//EN"
 "http://www.w3.org/Graphics/SVG/1.1/DTD/svg11.dtd">
<!-- Generated by graphviz version 2.26.3 (20100126.1600)
 -->
<!-- Title: blond::mymath::Ham Pages: 1 -->
<svg width="151pt" height="518pt"
 viewBox="0.00 0.00 151.00 518.00" xmlns="http://www.w3.org/2000/svg" xmlns:xlink="http://www.w3.org/1999/xlink">
<g id="graph1" class="graph" transform="scale(1 1) rotate(0) translate(4 514)">
<title>blond::mymath::Ham</title>
<polygon fill="white" stroke="white" points="-4,5 -4,-514 148,-514 148,5 -4,5"/>
<!-- Node1 -->
<g id="node1" class="node"><title>Node1</title>
<polygon fill="#bfbfbf" stroke="black" points="0,-1 0,-129 108,-129 108,-1 0,-1"/>
<text text-anchor="middle" x="54" y="-116" font-family="Helvetica,sans-Serif" font-size="10.00">blond::mymath::Ham</text>
<polyline fill="none" stroke="black" points="0,-108 108,-108 "/>
<text text-anchor="middle" x="54" y="-95" font-family="Helvetica,sans-Serif" font-size="10.00"> </text>
<polyline fill="none" stroke="black" points="0,-87 108,-87 "/>
<text text-anchor="start" x="8" y="-74" font-family="Helvetica,sans-Serif" font-size="10.00">+ Ham()</text>
<text text-anchor="start" x="8" y="-61" font-family="Helvetica,sans-Serif" font-size="10.00">+ begin()</text>
<text text-anchor="start" x="8" y="-48" font-family="Helvetica,sans-Serif" font-size="10.00">+ end()</text>
<text text-anchor="start" x="8" y="-35" font-family="Helvetica,sans-Serif" font-size="10.00">+ operator!=()</text>
<text text-anchor="start" x="8" y="-22" font-family="Helvetica,sans-Serif" font-size="10.00">+ operator*()</text>
<text text-anchor="start" x="8" y="-9" font-family="Helvetica,sans-Serif" font-size="10.00">+ operator++()</text>
</g>
<!-- Node2 -->
<g id="node2" class="node"><title>Node2</title>
<polygon fill="white" stroke="#bfbfbf" points="5.5,-218.5 5.5,-281.5 102.5,-281.5 102.5,-218.5 5.5,-218.5"/>
<text text-anchor="middle" x="54" y="-268.5" font-family="Helvetica,sans-Serif" font-size="10.00">std::vector&lt; uint &gt;</text>
<polyline fill="none" stroke="#bfbfbf" points="5.5,-260.5 102.5,-260.5 "/>
<text text-anchor="middle" x="54" y="-247.5" font-family="Helvetica,sans-Serif" font-size="10.00"> </text>
<polyline fill="none" stroke="#bfbfbf" points="5.5,-239.5 102.5,-239.5 "/>
<text text-anchor="middle" x="54" y="-226.5" font-family="Helvetica,sans-Serif" font-size="10.00"> </text>
</g>
<!-- Node2&#45;&gt;Node1 -->
<g id="edge2" class="edge"><title>Node2&#45;&gt;Node1</title>
<path fill="none" stroke="#404040" d="M54,-218.197C54,-197.055 54,-168.337 54,-141.478"/>
<polygon fill="none" stroke="#404040" points="54.0001,-141.302 50,-135.302 54,-129.302 58,-135.302 54.0001,-141.302"/>
<text text-anchor="middle" x="63.5" y="-191" font-family="Helvetica,sans-Serif" font-size="10.00"> &#45;_x</text>
<text text-anchor="middle" x="63.5" y="-178" font-family="Helvetica,sans-Serif" font-size="10.00">&#45;_H</text>
<text text-anchor="middle" x="63.5" y="-165" font-family="Helvetica,sans-Serif" font-size="10.00">&#45;_hp</text>
<text text-anchor="middle" x="63.5" y="-152" font-family="Helvetica,sans-Serif" font-size="10.00">&#45;_hv</text>
</g>
<!-- Node3 -->
<g id="node4" class="node"><title>Node3</title>
<polygon fill="white" stroke="#bfbfbf" points="1,-332.5 1,-395.5 33,-395.5 33,-332.5 1,-332.5"/>
<text text-anchor="middle" x="17" y="-382.5" font-family="Helvetica,sans-Serif" font-size="10.00">uint</text>
<polyline fill="none" stroke="#bfbfbf" points="1,-374.5 33,-374.5 "/>
<text text-anchor="middle" x="17" y="-361.5" font-family="Helvetica,sans-Serif" font-size="10.00"> </text>
<polyline fill="none" stroke="#bfbfbf" points="1,-353.5 33,-353.5 "/>
<text text-anchor="middle" x="17" y="-340.5" font-family="Helvetica,sans-Serif" font-size="10.00"> </text>
</g>
<!-- Node3&#45;&gt;Node2 -->
<g id="edge4" class="edge"><title>Node3&#45;&gt;Node2</title>
<path fill="none" stroke="#404040" d="M15.0826,-332.447C15.3277,-321.902 16.5854,-310.235 20,-300 20.8503,-297.451 21.8703,-294.913 23.0178,-292.407"/>
<polygon fill="none" stroke="#404040" points="23.0785,-292.294 22.3774,-285.117 28.7326,-281.709 29.4337,-288.886 23.0785,-292.294"/>
<text text-anchor="middle" x="44.5" y="-304.5" font-family="Helvetica,sans-Serif" font-size="10.00"> +elements</text>
</g>
<!-- Node4 -->
<g id="node6" class="node"><title>Node4</title>
<a xlink:title="STL class.">
<polygon fill="white" stroke="#bfbfbf" points="50.5,-332.5 50.5,-395.5 137.5,-395.5 137.5,-332.5 50.5,-332.5"/>
<text text-anchor="middle" x="94" y="-382.5" font-family="Helvetica,sans-Serif" font-size="10.00">std::vector&lt; T &gt;</text>
<polyline fill="none" stroke="#bfbfbf" points="50.5,-374.5 137.5,-374.5 "/>
<text text-anchor="middle" x="94" y="-361.5" font-family="Helvetica,sans-Serif" font-size="10.00"> </text>
<polyline fill="none" stroke="#bfbfbf" points="50.5,-353.5 137.5,-353.5 "/>
<text text-anchor="middle" x="94" y="-340.5" font-family="Helvetica,sans-Serif" font-size="10.00"> </text>
</a>
</g>
<!-- Node4&#45;&gt;Node2 -->
<g id="edge6" class="edge"><title>Node4&#45;&gt;Node2</title>
<path fill="none" stroke="orange" d="M79.4936,-322.657C74.7413,-309.113 69.5402,-294.29 65.0825,-281.585"/>
<polygon fill="orange" stroke="orange" points="76.2442,-323.967 82.8578,-332.245 82.8494,-321.65 76.2442,-323.967"/>
<text text-anchor="middle" x="94.5" y="-304.5" font-family="Helvetica,sans-Serif" font-size="10.00"> &lt; uint &gt;</text>
</g>
<!-- Node5 -->
<g id="node8" class="node"><title>Node5</title>
<polygon fill="white" stroke="#bfbfbf" points="79.5,-446.5 79.5,-509.5 108.5,-509.5 108.5,-446.5 79.5,-446.5"/>
<text text-anchor="middle" x="94" y="-496.5" font-family="Helvetica,sans-Serif" font-size="10.00">T</text>
<polyline fill="none" stroke="#bfbfbf" points="79.5,-488.5 108.5,-488.5 "/>
<text text-anchor="middle" x="94" y="-475.5" font-family="Helvetica,sans-Serif" font-size="10.00"> </text>
<polyline fill="none" stroke="#bfbfbf" points="79.5,-467.5 108.5,-467.5 "/>
<text text-anchor="middle" x="94" y="-454.5" font-family="Helvetica,sans-Serif" font-size="10.00"> </text>
</g>
<!-- Node5&#45;&gt;Node4 -->
<g id="edge8" class="edge"><title>Node5&#45;&gt;Node4</title>
<path fill="none" stroke="#404040" d="M94,-446.245C94,-434.386 94,-420.7 94,-407.938"/>
<polygon fill="none" stroke="#404040" points="94.0001,-407.585 90,-401.585 94,-395.585 98,-401.585 94.0001,-407.585"/>
<text text-anchor="middle" x="118.5" y="-418.5" font-family="Helvetica,sans-Serif" font-size="10.00"> +elements</text>
</g>
</g>
</svg>
