<?xml version="1.0" encoding="UTF-8" standalone="no"?>
<!DOCTYPE svg PUBLIC "-//W3C//DTD SVG 1.1//EN"
 "http://www.w3.org/Graphics/SVG/1.1/DTD/svg11.dtd">
<!-- Generated by graphviz version 2.26.3 (20100126.1600)
 -->
<!-- Title: blond::InputTable Pages: 1 -->
<!--zoomable 622 -->
<svg id="main" version="1.1" xmlns="http://www.w3.org/2000/svg" xmlns:xlink="http://www.w3.org/1999/xlink" xml:space="preserve" onload="init(evt)">
        <defs>
                <circle id="rim" cx="0" cy="0" r="7"/>
                <circle id="rim2" cx="0" cy="0" r="3.5"/>
                <g id="zoomPlus">
                        <use xlink:href="#rim" fill="#404040">
                                <set attributeName="fill" to="#808080" begin="zoomplus.mouseover" end="zoomplus.mouseout"/>
                        </use>
                        <path d="M-4,0h8M0,-4v8" fill="none" stroke="white" stroke-width="1.5" pointer-events="none"/>
                </g>
                <g id="zoomMin">
                        <use xlink:href="#rim" fill="#404040">
                                <set attributeName="fill" to="#808080" begin="zoomminus.mouseover" end="zoomminus.mouseout"/>
                        </use>
                        <path d="M-4,0h8" fill="none" stroke="white" stroke-width="1.5" pointer-events="none"/>
                </g>
                <g id="dirArrow">
                        <path fill="none" stroke="white" stroke-width="1.5" d="M0,-3.0v7 M-2.5,-0.5L0,-3.0L2.5,-0.5"/>
                </g>
               <g id="resetDef">
                       <use xlink:href="#rim2" fill="#404040">
                               <set attributeName="fill" to="#808080" begin="reset.mouseover" end="reset.mouseout"/>
                       </use>
               </g>
        </defs>

<script type="text/javascript">
var viewWidth = 393;
var viewHeight = 622;
var sectionId = 'dynsection-1';
</script>
<script xlink:href="../../svgpan.js"/>
<svg id="graph" class="graph">
<g id="viewport">
<title>blond::InputTable</title>
<polygon fill="white" stroke="white" points="-4,5 -4,-618 390,-618 390,5 -4,5"/>
<!-- Node1 -->
<g id="node1" class="node"><title>Node1</title>
<polygon fill="#bfbfbf" stroke="black" points="159,-1 159,-103 251,-103 251,-1 159,-1"/>
<text text-anchor="middle" x="205" y="-90" font-family="Helvetica,sans-Serif" font-size="10.00">blond::InputTable</text>
<polyline fill="none" stroke="black" points="159,-82 251,-82 "/>
<text text-anchor="middle" x="205" y="-69" font-family="Helvetica,sans-Serif" font-size="10.00"> </text>
<polyline fill="none" stroke="black" points="159,-61 251,-61 "/>
<text text-anchor="start" x="167" y="-48" font-family="Helvetica,sans-Serif" font-size="10.00">+ InputTable()</text>
<text text-anchor="start" x="167" y="-35" font-family="Helvetica,sans-Serif" font-size="10.00">+ ~InputTable()</text>
<text text-anchor="start" x="167" y="-22" font-family="Helvetica,sans-Serif" font-size="10.00">+ imped_calc()</text>
<text text-anchor="start" x="167" y="-9" font-family="Helvetica,sans-Serif" font-size="10.00">+ wake_calc()</text>
</g>
<!-- Node2 -->
<g id="node2" class="node"><title>Node2</title>
<a xlink:href="../../da/dd0/classblond_1_1Intensity.html" target="_top" xlink:title="{blond::Intensity\n||+ Intensity()\l+ ~Intensity()\l+ imped_calc()\l+ wake_calc()\l}">
<polygon fill="white" stroke="black" points="163.5,-143 163.5,-245 246.5,-245 246.5,-143 163.5,-143"/>
<text text-anchor="middle" x="205" y="-232" font-family="Helvetica,sans-Serif" font-size="10.00">blond::Intensity</text>
<polyline fill="none" stroke="black" points="163.5,-224 246.5,-224 "/>
<text text-anchor="middle" x="205" y="-211" font-family="Helvetica,sans-Serif" font-size="10.00"> </text>
<polyline fill="none" stroke="black" points="163.5,-203 246.5,-203 "/>
<text text-anchor="start" x="171.5" y="-190" font-family="Helvetica,sans-Serif" font-size="10.00">+ Intensity()</text>
<text text-anchor="start" x="171.5" y="-177" font-family="Helvetica,sans-Serif" font-size="10.00">+ ~Intensity()</text>
<text text-anchor="start" x="171.5" y="-164" font-family="Helvetica,sans-Serif" font-size="10.00">+ imped_calc()</text>
<text text-anchor="start" x="171.5" y="-151" font-family="Helvetica,sans-Serif" font-size="10.00">+ wake_calc()</text>
</a>
</g>
<!-- Node2&#45;&gt;Node1 -->
<g id="edge2" class="edge"><title>Node2&#45;&gt;Node1</title>
<path fill="none" stroke="midnightblue" d="M205,-132.626C205,-122.807 205,-112.739 205,-103.19"/>
<polygon fill="none" stroke="midnightblue" points="201.5,-132.735 205,-142.735 208.5,-132.735 201.5,-132.735"/>
</g>
<!-- Node3 -->
<g id="node4" class="node"><title>Node3</title>
<polygon fill="white" stroke="#bfbfbf" points="0,-322.5 0,-385.5 126,-385.5 126,-322.5 0,-322.5"/>
<text text-anchor="middle" x="63" y="-372.5" font-family="Helvetica,sans-Serif" font-size="10.00">std::vector&lt; complex_t &gt;</text>
<polyline fill="none" stroke="#bfbfbf" points="0,-364.5 126,-364.5 "/>
<text text-anchor="middle" x="63" y="-351.5" font-family="Helvetica,sans-Serif" font-size="10.00"> </text>
<polyline fill="none" stroke="#bfbfbf" points="0,-343.5 126,-343.5 "/>
<text text-anchor="middle" x="63" y="-330.5" font-family="Helvetica,sans-Serif" font-size="10.00"> </text>
</g>
<!-- Node3&#45;&gt;Node1 -->
<g id="edge18" class="edge"><title>Node3&#45;&gt;Node1</title>
<path fill="none" stroke="#404040" d="M54.0291,-322.201C43.6198,-278.573 31.5991,-199.079 63,-142 81.0429,-109.203 116.646,-86.6788 147.687,-72.3662"/>
<polygon fill="none" stroke="#404040" points="147.886,-72.2792 151.775,-66.2066 158.876,-67.4608 154.987,-73.5334 147.886,-72.2792"/>
<text text-anchor="middle" x="109" y="-191.5" font-family="Helvetica,sans-Serif" font-size="10.00"> +fImpedanceLoaded</text>
</g>
<!-- Node3&#45;&gt;Node2 -->
<g id="edge4" class="edge"><title>Node3&#45;&gt;Node2</title>
<path fill="none" stroke="#404040" d="M88.9643,-322.401C103.46,-304.977 121.979,-283.073 139,-264 144.109,-258.275 149.51,-252.351 154.933,-246.484"/>
<polygon fill="none" stroke="#404040" points="155.26,-246.131 156.419,-239.014 163.434,-237.346 162.276,-244.464 155.26,-246.131"/>
<text text-anchor="middle" x="169.5" y="-281.5" font-family="Helvetica,sans-Serif" font-size="10.00"> +fImpedance</text>
</g>
<!-- Node4 -->
<g id="node6" class="node"><title>Node4</title>
<a xlink:title="STL class.">
<polygon fill="white" stroke="#bfbfbf" points="0.5,-436.5 0.5,-499.5 73.5,-499.5 73.5,-436.5 0.5,-436.5"/>
<text text-anchor="middle" x="37" y="-486.5" font-family="Helvetica,sans-Serif" font-size="10.00">std::complex</text>
<polyline fill="none" stroke="#bfbfbf" points="0.5,-478.5 73.5,-478.5 "/>
<text text-anchor="middle" x="37" y="-465.5" font-family="Helvetica,sans-Serif" font-size="10.00"> </text>
<polyline fill="none" stroke="#bfbfbf" points="0.5,-457.5 73.5,-457.5 "/>
<text text-anchor="middle" x="37" y="-444.5" font-family="Helvetica,sans-Serif" font-size="10.00"> </text>
</a>
</g>
<!-- Node4&#45;&gt;Node3 -->
<g id="edge6" class="edge"><title>Node4&#45;&gt;Node3</title>
<path fill="none" stroke="#404040" d="M34.7164,-436.394C34.6943,-425.954 35.468,-414.363 38,-404 38.5615,-401.702 39.2427,-399.388 40.0157,-397.083"/>
<polygon fill="none" stroke="#404040" points="40.093,-396.888 38.5868,-389.836 44.5171,-385.733 46.0233,-392.785 40.093,-396.888"/>
<text text-anchor="middle" x="62.5" y="-408.5" font-family="Helvetica,sans-Serif" font-size="10.00"> +elements</text>
</g>
<!-- Node5 -->
<g id="node8" class="node"><title>Node5</title>
<a xlink:title="STL class.">
<polygon fill="white" stroke="#bfbfbf" points="117.5,-436.5 117.5,-499.5 204.5,-499.5 204.5,-436.5 117.5,-436.5"/>
<text text-anchor="middle" x="161" y="-486.5" font-family="Helvetica,sans-Serif" font-size="10.00">std::vector&lt; T &gt;</text>
<polyline fill="none" stroke="#bfbfbf" points="117.5,-478.5 204.5,-478.5 "/>
<text text-anchor="middle" x="161" y="-465.5" font-family="Helvetica,sans-Serif" font-size="10.00"> </text>
<polyline fill="none" stroke="#bfbfbf" points="117.5,-457.5 204.5,-457.5 "/>
<text text-anchor="middle" x="161" y="-444.5" font-family="Helvetica,sans-Serif" font-size="10.00"> </text>
</a>
</g>
<!-- Node5&#45;&gt;Node3 -->
<g id="edge8" class="edge"><title>Node5&#45;&gt;Node3</title>
<path fill="none" stroke="orange" d="M125.563,-428.935C122.31,-425.256 119.082,-421.569 116,-418 107.043,-407.627 97.4355,-396.139 88.8933,-385.792"/>
<polygon fill="orange" stroke="orange" points="122.974,-431.289 132.235,-436.434 128.204,-426.637 122.974,-431.289"/>
<text text-anchor="middle" x="149.5" y="-408.5" font-family="Helvetica,sans-Serif" font-size="10.00"> &lt; complex_t &gt;</text>
</g>
<!-- Node7 -->
<g id="node12" class="node"><title>Node7</title>
<polygon fill="white" stroke="#bfbfbf" points="176,-322.5 176,-385.5 286,-385.5 286,-322.5 176,-322.5"/>
<text text-anchor="middle" x="231" y="-372.5" font-family="Helvetica,sans-Serif" font-size="10.00">std::vector&lt; double &gt;</text>
<polyline fill="none" stroke="#bfbfbf" points="176,-364.5 286,-364.5 "/>
<text text-anchor="middle" x="231" y="-351.5" font-family="Helvetica,sans-Serif" font-size="10.00"> </text>
<polyline fill="none" stroke="#bfbfbf" points="176,-343.5 286,-343.5 "/>
<text text-anchor="middle" x="231" y="-330.5" font-family="Helvetica,sans-Serif" font-size="10.00"> </text>
</g>
<!-- Node5&#45;&gt;Node7 -->
<g id="edge16" class="edge"><title>Node5&#45;&gt;Node7</title>
<path fill="none" stroke="orange" d="M182.223,-427.581C186.623,-419.671 191.341,-411.505 196,-404 199.744,-397.968 203.926,-391.669 208.06,-385.656"/>
<polygon fill="orange" stroke="orange" points="179.151,-425.903 177.411,-436.354 185.289,-429.269 179.151,-425.903"/>
<text text-anchor="middle" x="221" y="-408.5" font-family="Helvetica,sans-Serif" font-size="10.00"> &lt; double &gt;</text>
</g>
<!-- Node6 -->
<g id="node10" class="node"><title>Node6</title>
<polygon fill="white" stroke="#bfbfbf" points="146.5,-550.5 146.5,-613.5 175.5,-613.5 175.5,-550.5 146.5,-550.5"/>
<text text-anchor="middle" x="161" y="-600.5" font-family="Helvetica,sans-Serif" font-size="10.00">T</text>
<polyline fill="none" stroke="#bfbfbf" points="146.5,-592.5 175.5,-592.5 "/>
<text text-anchor="middle" x="161" y="-579.5" font-family="Helvetica,sans-Serif" font-size="10.00"> </text>
<polyline fill="none" stroke="#bfbfbf" points="146.5,-571.5 175.5,-571.5 "/>
<text text-anchor="middle" x="161" y="-558.5" font-family="Helvetica,sans-Serif" font-size="10.00"> </text>
</g>
<!-- Node6&#45;&gt;Node5 -->
<g id="edge10" class="edge"><title>Node6&#45;&gt;Node5</title>
<path fill="none" stroke="#404040" d="M161,-550.245C161,-538.386 161,-524.7 161,-511.938"/>
<polygon fill="none" stroke="#404040" points="161,-511.585 157,-505.585 161,-499.585 165,-505.585 161,-511.585"/>
<text text-anchor="middle" x="185.5" y="-522.5" font-family="Helvetica,sans-Serif" font-size="10.00"> +elements</text>
</g>
<!-- Node7&#45;&gt;Node1 -->
<g id="edge20" class="edge"><title>Node7&#45;&gt;Node1</title>
<path fill="none" stroke="#404040" d="M258.928,-322.332C262.652,-316.57 265.903,-310.358 268,-304 279.122,-270.273 269.897,-189.05 255,-142 252.046,-132.672 248.07,-123.217 243.643,-114.118"/>
<polygon fill="none" stroke="#404040" points="243.533,-113.904 237.236,-110.39 238.057,-103.226 244.355,-106.74 243.533,-113.904"/>
<text text-anchor="middle" x="328.5" y="-211" font-family="Helvetica,sans-Serif" font-size="10.00"> +fFrequencyArrayLoaded</text>
<text text-anchor="middle" x="328.5" y="-198" font-family="Helvetica,sans-Serif" font-size="10.00">+fWakeArray</text>
<text text-anchor="middle" x="328.5" y="-185" font-family="Helvetica,sans-Serif" font-size="10.00">+fReZArrayLoaded</text>
<text text-anchor="middle" x="328.5" y="-172" font-family="Helvetica,sans-Serif" font-size="10.00">+fImZArrayLoaded</text>
</g>
<!-- Node7&#45;&gt;Node2 -->
<g id="edge12" class="edge"><title>Node7&#45;&gt;Node2</title>
<path fill="none" stroke="#404040" d="M215.724,-322.274C213.422,-316.322 211.365,-310.062 210,-304 206.636,-289.063 204.887,-272.706 204.073,-257.28"/>
<polygon fill="none" stroke="#404040" points="204.068,-257.143 199.84,-251.301 203.607,-245.152 207.834,-250.994 204.068,-257.143"/>
<text text-anchor="middle" x="239" y="-294.5" font-family="Helvetica,sans-Serif" font-size="10.00"> +fTimeArray</text>
<text text-anchor="middle" x="239" y="-281.5" font-family="Helvetica,sans-Serif" font-size="10.00">+fFreqArray</text>
<text text-anchor="middle" x="239" y="-268.5" font-family="Helvetica,sans-Serif" font-size="10.00">+fWake</text>
</g>
<!-- Node8 -->
<g id="node14" class="node"><title>Node8</title>
<polygon fill="white" stroke="#bfbfbf" points="249.5,-436.5 249.5,-499.5 294.5,-499.5 294.5,-436.5 249.5,-436.5"/>
<text text-anchor="middle" x="272" y="-486.5" font-family="Helvetica,sans-Serif" font-size="10.00">double</text>
<polyline fill="none" stroke="#bfbfbf" points="249.5,-478.5 294.5,-478.5 "/>
<text text-anchor="middle" x="272" y="-465.5" font-family="Helvetica,sans-Serif" font-size="10.00"> </text>
<polyline fill="none" stroke="#bfbfbf" points="249.5,-457.5 294.5,-457.5 "/>
<text text-anchor="middle" x="272" y="-444.5" font-family="Helvetica,sans-Serif" font-size="10.00"> </text>
</g>
<!-- Node8&#45;&gt;Node7 -->
<g id="edge14" class="edge"><title>Node8&#45;&gt;Node7</title>
<path fill="none" stroke="#404040" d="M261.346,-436.353C257.806,-426.016 253.797,-414.496 250,-404 249.194,-401.773 248.361,-399.494 247.513,-397.195"/>
<polygon fill="none" stroke="#404040" points="247.412,-396.926 241.566,-392.704 243.215,-385.684 249.061,-389.905 247.412,-396.926"/>
<text text-anchor="middle" x="278.5" y="-408.5" font-family="Helvetica,sans-Serif" font-size="10.00"> +elements</text>
</g>
</g>
</svg>
        <g id="navigator" transform="translate(0 0)" fill="#404254">
                <rect fill="#f2f5e9" fill-opacity="0.5" stroke="#606060" stroke-width=".5" x="0" y="0" width="60" height="60"/>
                <use id="zoomplus" xlink:href="#zoomPlus" x="17" y="9" onmousedown="handleZoom(evt,'in')"/>
                <use id="zoomminus" xlink:href="#zoomMin" x="42" y="9" onmousedown="handleZoom(evt,'out')"/>
                <use id="reset" xlink:href="#resetDef" x="30" y="36" onmousedown="handleReset()"/>
                <g id="arrowUp" xlink:href="#dirArrow" transform="translate(30 24)" onmousedown="handlePan(0,-1)">
                  <use xlink:href="#rim" fill="#404040">
                        <set attributeName="fill" to="#808080" begin="arrowUp.mouseover" end="arrowUp.mouseout"/>
                  </use>
                  <path fill="none" stroke="white" stroke-width="1.5" d="M0,-3.0v7 M-2.5,-0.5L0,-3.0L2.5,-0.5"/>
                </g>
                <g id="arrowRight" xlink:href="#dirArrow" transform="rotate(90) translate(36 -43)" onmousedown="handlePan(1,0)">
                  <use xlink:href="#rim" fill="#404040">
                        <set attributeName="fill" to="#808080" begin="arrowRight.mouseover" end="arrowRight.mouseout"/>
                  </use>
                  <path fill="none" stroke="white" stroke-width="1.5" d="M0,-3.0v7 M-2.5,-0.5L0,-3.0L2.5,-0.5"/>
                </g>
                <g id="arrowDown" xlink:href="#dirArrow" transform="rotate(180) translate(-30 -48)" onmousedown="handlePan(0,1)">
                  <use xlink:href="#rim" fill="#404040">
                        <set attributeName="fill" to="#808080" begin="arrowDown.mouseover" end="arrowDown.mouseout"/>
                  </use>
                  <path fill="none" stroke="white" stroke-width="1.5" d="M0,-3.0v7 M-2.5,-0.5L0,-3.0L2.5,-0.5"/>
                </g>
                <g id="arrowLeft" xlink:href="#dirArrow" transform="rotate(270) translate(-36 17)" onmousedown="handlePan(-1,0)">
                  <use xlink:href="#rim" fill="#404040">
                        <set attributeName="fill" to="#808080" begin="arrowLeft.mouseover" end="arrowLeft.mouseout"/>
                  </use>
                  <path fill="none" stroke="white" stroke-width="1.5" d="M0,-3.0v7 M-2.5,-0.5L0,-3.0L2.5,-0.5"/>
                </g>
        </g>
        <svg viewBox="0 0 15 15" width="100%" height="30px" preserveAspectRatio="xMaxYMin meet">
         <g id="arrow_out" transform="scale(0.3 0.3)">
          <a xlink:href="classblond_1_1InputTable__coll__graph_org.svg" target="_base">
           <rect id="button" ry="5" rx="5" y="6" x="6" height="38" width="38"
                fill="#f2f5e9" fill-opacity="0.5" stroke="#606060" stroke-width="1.0"/>
           <path id="arrow"
             d="M 11.500037,31.436501 C 11.940474,20.09759 22.043105,11.32322 32.158766,21.979434 L 37.068811,17.246167 C 37.068811,17.246167 37.088388,32 37.088388,32 L 22.160133,31.978069 C 22.160133,31.978069 26.997745,27.140456 26.997745,27.140456 C 18.528582,18.264221 13.291696,25.230495 11.500037,31.436501 z"
             style="fill:#404040;"/>
          </a>
         </g>
        </svg>
</svg>
