<?xml version="1.0" encoding="UTF-8" standalone="no"?>
<!DOCTYPE svg PUBLIC "-//W3C//DTD SVG 1.1//EN"
 "http://www.w3.org/Graphics/SVG/1.1/DTD/svg11.dtd">
<!-- Generated by graphviz version 2.26.3 (20100126.1600)
 -->
<!-- Title: blond::optionparser::Option::isFirst Pages: 1 -->
<svg width="690pt" height="108pt"
 viewBox="0.00 0.00 690.00 108.34" xmlns="http://www.w3.org/2000/svg" xmlns:xlink="http://www.w3.org/1999/xlink">
<g id="graph1" class="graph" transform="scale(1 1) rotate(0) translate(4 104.337)">
<title>blond::optionparser::Option::isFirst</title>
<polygon fill="white" stroke="white" points="-4,5 -4,-104.337 687,-104.337 687,5 -4,5"/>
<!-- Node1 -->
<g id="node1" class="node"><title>Node1</title>
<polygon fill="#bfbfbf" stroke="black" points="0.5,-26 0.5,-60 99.5,-60 99.5,-26 0.5,-26"/>
<text text-anchor="start" x="8.5" y="-47" font-family="Helvetica,sans-Serif" font-size="10.00">blond::optionparser</text>
<text text-anchor="middle" x="50" y="-34" font-family="Helvetica,sans-Serif" font-size="10.00">::Option::isFirst</text>
</g>
<!-- Node2 -->
<g id="node3" class="node"><title>Node2</title>
<a xlink:href="../../d2/dd3/classblond_1_1optionparser_1_1Option.html#af276014331e898eee888c6ed7b6a0de7" target="_top" xlink:title="Returns a pointer to the first element of the linked list.">
<polygon fill="white" stroke="black" points="136.5,-52 136.5,-86 235.5,-86 235.5,-52 136.5,-52"/>
<text text-anchor="start" x="144.5" y="-73" font-family="Helvetica,sans-Serif" font-size="10.00">blond::optionparser</text>
<text text-anchor="middle" x="186" y="-60" font-family="Helvetica,sans-Serif" font-size="10.00">::Option::first</text>
</a>
</g>
<!-- Node1&#45;&gt;Node2 -->
<g id="edge2" class="edge"><title>Node1&#45;&gt;Node2</title>
<path fill="none" stroke="midnightblue" d="M109.715,-54.4161C118.535,-56.1024 127.545,-57.8247 136.137,-59.4673"/>
<polygon fill="midnightblue" stroke="midnightblue" points="110.348,-50.9739 99.8691,-52.5338 109.034,-57.8494 110.348,-50.9739"/>
</g>
<!-- Node7 -->
<g id="node14" class="node"><title>Node7</title>
<a xlink:href="../../d2/dd3/classblond_1_1optionparser_1_1Option.html#a0f831afb90b0f2ed3d05c2a1791fd4b0" target="_top" xlink:title="Returns a pointer to the previous element of the linked list or NULL if called on first()...">
<polygon fill="white" stroke="black" points="136.5,-0 136.5,-34 235.5,-34 235.5,-0 136.5,-0"/>
<text text-anchor="start" x="144.5" y="-21" font-family="Helvetica,sans-Serif" font-size="10.00">blond::optionparser</text>
<text text-anchor="middle" x="186" y="-8" font-family="Helvetica,sans-Serif" font-size="10.00">::Option::prev</text>
</a>
</g>
<!-- Node1&#45;&gt;Node7 -->
<g id="edge14" class="edge"><title>Node1&#45;&gt;Node7</title>
<path fill="none" stroke="midnightblue" d="M109.715,-31.5839C118.535,-29.8976 127.545,-28.1753 136.137,-26.5327"/>
<polygon fill="midnightblue" stroke="midnightblue" points="109.034,-28.1506 99.8691,-33.4662 110.348,-35.0261 109.034,-28.1506"/>
</g>
<!-- Node3 -->
<g id="node5" class="node"><title>Node3</title>
<a xlink:href="../../d2/dd3/classblond_1_1optionparser_1_1Option.html#af27093360c748ca5c062ff1a79954721" target="_top" xlink:title="Makes new_last the new last() by chaining it into the list after last().">
<polygon fill="white" stroke="black" points="408.5,-48 408.5,-82 507.5,-82 507.5,-48 408.5,-48"/>
<text text-anchor="start" x="416.5" y="-69" font-family="Helvetica,sans-Serif" font-size="10.00">blond::optionparser</text>
<text text-anchor="middle" x="458" y="-56" font-family="Helvetica,sans-Serif" font-size="10.00">::Option::append</text>
</a>
</g>
<!-- Node2&#45;&gt;Node3 -->
<g id="edge4" class="edge"><title>Node2&#45;&gt;Node3</title>
<path fill="none" stroke="midnightblue" d="M243.36,-88.87C252.823,-91.4138 262.609,-93.6115 272,-95 315.966,-101.501 328.18,-102.424 372,-95 387.435,-92.3851 403.793,-87.3062 418.053,-82.06"/>
<polygon fill="midnightblue" stroke="midnightblue" points="244.222,-85.4763 233.646,-86.1133 242.311,-92.2104 244.222,-85.4763"/>
</g>
<!-- Node5 -->
<g id="node9" class="node"><title>Node5</title>
<a xlink:href="../../d2/dd3/classblond_1_1optionparser_1_1Option.html#a011a72a080d7b7faf979c16094667f91" target="_top" xlink:title="Returns the number of times this Option (or others with the same Descriptor::index) occurs in the arg...">
<polygon fill="white" stroke="black" points="272.5,-52 272.5,-86 371.5,-86 371.5,-52 272.5,-52"/>
<text text-anchor="start" x="280.5" y="-73" font-family="Helvetica,sans-Serif" font-size="10.00">blond::optionparser</text>
<text text-anchor="middle" x="322" y="-60" font-family="Helvetica,sans-Serif" font-size="10.00">::Option::count</text>
</a>
</g>
<!-- Node2&#45;&gt;Node5 -->
<g id="edge8" class="edge"><title>Node2&#45;&gt;Node5</title>
<path fill="none" stroke="midnightblue" d="M246,-69C254.729,-69 263.637,-69 272.137,-69"/>
<polygon fill="midnightblue" stroke="midnightblue" points="245.869,-65.5001 235.869,-69 245.869,-72.5001 245.869,-65.5001"/>
</g>
<!-- Node6 -->
<g id="node11" class="node"><title>Node6</title>
<a xlink:href="../../d2/dd3/classblond_1_1optionparser_1_1Option.html#a7dd70b5b36b9e9fc26003451127d9f37" target="_top" xlink:title="Returns a pointer to the last element of the linked list.">
<polygon fill="white" stroke="black" points="272.5,-0 272.5,-34 371.5,-34 371.5,-0 272.5,-0"/>
<text text-anchor="start" x="280.5" y="-21" font-family="Helvetica,sans-Serif" font-size="10.00">blond::optionparser</text>
<text text-anchor="middle" x="322" y="-8" font-family="Helvetica,sans-Serif" font-size="10.00">::Option::last</text>
</a>
</g>
<!-- Node2&#45;&gt;Node6 -->
<g id="edge10" class="edge"><title>Node2&#45;&gt;Node6</title>
<path fill="none" stroke="midnightblue" d="M239.876,-48.4003C252.302,-43.6492 265.386,-38.6464 277.368,-34.065"/>
<polygon fill="midnightblue" stroke="midnightblue" points="238.622,-45.1326 230.531,-51.9733 241.122,-51.671 238.622,-45.1326"/>
</g>
<!-- Node4 -->
<g id="node7" class="node"><title>Node4</title>
<a xlink:href="../../d0/d6b/classblond_1_1optionparser_1_1Parser_1_1StoreOptionAction.html#aadf15bf0ebd144216aca843e5f2d475e" target="_top" xlink:title="Called by Parser::workhorse() for each Option that has been successfully parsed (including unknown op...">
<polygon fill="white" stroke="black" points="544.5,-41.5 544.5,-88.5 681.5,-88.5 681.5,-41.5 544.5,-41.5"/>
<text text-anchor="start" x="552.5" y="-75.5" font-family="Helvetica,sans-Serif" font-size="10.00">blond::optionparser</text>
<text text-anchor="start" x="552.5" y="-62.5" font-family="Helvetica,sans-Serif" font-size="10.00">::Parser::StoreOptionAction</text>
<text text-anchor="middle" x="613" y="-49.5" font-family="Helvetica,sans-Serif" font-size="10.00">::perform</text>
</a>
</g>
<!-- Node3&#45;&gt;Node4 -->
<g id="edge6" class="edge"><title>Node3&#45;&gt;Node4</title>
<path fill="none" stroke="midnightblue" d="M518.157,-65C526.715,-65 535.571,-65 544.276,-65"/>
<polygon fill="midnightblue" stroke="midnightblue" points="517.896,-61.5001 507.896,-65 517.896,-68.5001 517.896,-61.5001"/>
</g>
<!-- Node6&#45;&gt;Node3 -->
<g id="edge12" class="edge"><title>Node6&#45;&gt;Node3</title>
<path fill="none" stroke="midnightblue" d="M379.801,-37.4005C389.805,-40.9312 400.11,-44.5684 409.824,-47.9968"/>
<polygon fill="midnightblue" stroke="midnightblue" points="380.926,-34.086 370.331,-34.0582 378.596,-40.6869 380.926,-34.086"/>
</g>
</g>
</svg>
