<?xml version="1.0" encoding="UTF-8" standalone="no"?>
<!DOCTYPE svg PUBLIC "-//W3C//DTD SVG 1.1//EN"
 "http://www.w3.org/Graphics/SVG/1.1/DTD/svg11.dtd">
<!-- Generated by graphviz version 2.26.3 (20100126.1600)
 -->
<!-- Title: blond::optionparser::Option::untag Pages: 1 -->
<svg width="690pt" height="101pt"
 viewBox="0.00 0.00 690.00 101.00" xmlns="http://www.w3.org/2000/svg" xmlns:xlink="http://www.w3.org/1999/xlink">
<g id="graph1" class="graph" transform="scale(1 1) rotate(0) translate(4 97)">
<title>blond::optionparser::Option::untag</title>
<polygon fill="white" stroke="white" points="-4,5 -4,-97 687,-97 687,5 -4,5"/>
<!-- Node1 -->
<g id="node1" class="node"><title>Node1</title>
<polygon fill="#bfbfbf" stroke="black" points="0.5,-33 0.5,-67 99.5,-67 99.5,-33 0.5,-33"/>
<text text-anchor="start" x="8.5" y="-54" font-family="Helvetica,sans-Serif" font-size="10.00">blond::optionparser</text>
<text text-anchor="middle" x="50" y="-41" font-family="Helvetica,sans-Serif" font-size="10.00">::Option::untag</text>
</g>
<!-- Node2 -->
<g id="node3" class="node"><title>Node2</title>
<a xlink:href="../../d2/dd3/classblond_1_1optionparser_1_1Option.html#a0315de9b26478358720a78fbefec608d" target="_top" xlink:title="Returns a pointer to the next element of the linked list with wrap&#45;around from last() to first()...">
<polygon fill="white" stroke="black" points="136.5,-59 136.5,-93 235.5,-93 235.5,-59 136.5,-59"/>
<text text-anchor="start" x="144.5" y="-80" font-family="Helvetica,sans-Serif" font-size="10.00">blond::optionparser</text>
<text text-anchor="middle" x="186" y="-67" font-family="Helvetica,sans-Serif" font-size="10.00">::Option::nextwrap</text>
</a>
</g>
<!-- Node1&#45;&gt;Node2 -->
<g id="edge2" class="edge"><title>Node1&#45;&gt;Node2</title>
<path fill="none" stroke="midnightblue" d="M109.715,-61.4161C118.535,-63.1024 127.545,-64.8247 136.137,-66.4673"/>
<polygon fill="midnightblue" stroke="midnightblue" points="110.348,-57.9739 99.8691,-59.5338 109.034,-64.8494 110.348,-57.9739"/>
</g>
<!-- Node3 -->
<g id="node5" class="node"><title>Node3</title>
<a xlink:href="../../d2/dd3/classblond_1_1optionparser_1_1Option.html#a859584a06f87693b117664dd012c814d" target="_top" xlink:title="Returns a pointer to the previous element of the linked list with wrap&#45;around from first() to last()...">
<polygon fill="white" stroke="black" points="136.5,-7 136.5,-41 235.5,-41 235.5,-7 136.5,-7"/>
<text text-anchor="start" x="144.5" y="-28" font-family="Helvetica,sans-Serif" font-size="10.00">blond::optionparser</text>
<text text-anchor="middle" x="186" y="-15" font-family="Helvetica,sans-Serif" font-size="10.00">::Option::prevwrap</text>
</a>
</g>
<!-- Node1&#45;&gt;Node3 -->
<g id="edge4" class="edge"><title>Node1&#45;&gt;Node3</title>
<path fill="none" stroke="midnightblue" d="M109.715,-38.5839C118.535,-36.8976 127.545,-35.1753 136.137,-33.5327"/>
<polygon fill="midnightblue" stroke="midnightblue" points="109.034,-35.1506 99.8691,-40.4662 110.348,-42.0261 109.034,-35.1506"/>
</g>
<!-- Node4 -->
<g id="node7" class="node"><title>Node4</title>
<a xlink:href="../../d2/dd3/classblond_1_1optionparser_1_1Option.html#a7dd70b5b36b9e9fc26003451127d9f37" target="_top" xlink:title="Returns a pointer to the last element of the linked list.">
<polygon fill="white" stroke="black" points="272.5,-7 272.5,-41 371.5,-41 371.5,-7 272.5,-7"/>
<text text-anchor="start" x="280.5" y="-28" font-family="Helvetica,sans-Serif" font-size="10.00">blond::optionparser</text>
<text text-anchor="middle" x="322" y="-15" font-family="Helvetica,sans-Serif" font-size="10.00">::Option::last</text>
</a>
</g>
<!-- Node3&#45;&gt;Node4 -->
<g id="edge6" class="edge"><title>Node3&#45;&gt;Node4</title>
<path fill="none" stroke="midnightblue" d="M246,-24C254.729,-24 263.637,-24 272.137,-24"/>
<polygon fill="midnightblue" stroke="midnightblue" points="245.869,-20.5001 235.869,-24 245.869,-27.5001 245.869,-20.5001"/>
</g>
<!-- Node5 -->
<g id="node9" class="node"><title>Node5</title>
<a xlink:href="../../d2/dd3/classblond_1_1optionparser_1_1Option.html#af27093360c748ca5c062ff1a79954721" target="_top" xlink:title="Makes new_last the new last() by chaining it into the list after last().">
<polygon fill="white" stroke="black" points="408.5,-7 408.5,-41 507.5,-41 507.5,-7 408.5,-7"/>
<text text-anchor="start" x="416.5" y="-28" font-family="Helvetica,sans-Serif" font-size="10.00">blond::optionparser</text>
<text text-anchor="middle" x="458" y="-15" font-family="Helvetica,sans-Serif" font-size="10.00">::Option::append</text>
</a>
</g>
<!-- Node4&#45;&gt;Node5 -->
<g id="edge8" class="edge"><title>Node4&#45;&gt;Node5</title>
<path fill="none" stroke="midnightblue" d="M382,-24C390.729,-24 399.637,-24 408.137,-24"/>
<polygon fill="midnightblue" stroke="midnightblue" points="381.869,-20.5001 371.869,-24 381.869,-27.5001 381.869,-20.5001"/>
</g>
<!-- Node6 -->
<g id="node11" class="node"><title>Node6</title>
<a xlink:href="../../d0/d6b/classblond_1_1optionparser_1_1Parser_1_1StoreOptionAction.html#aadf15bf0ebd144216aca843e5f2d475e" target="_top" xlink:title="Called by Parser::workhorse() for each Option that has been successfully parsed (including unknown op...">
<polygon fill="white" stroke="black" points="544.5,-0.5 544.5,-47.5 681.5,-47.5 681.5,-0.5 544.5,-0.5"/>
<text text-anchor="start" x="552.5" y="-34.5" font-family="Helvetica,sans-Serif" font-size="10.00">blond::optionparser</text>
<text text-anchor="start" x="552.5" y="-21.5" font-family="Helvetica,sans-Serif" font-size="10.00">::Parser::StoreOptionAction</text>
<text text-anchor="middle" x="613" y="-8.5" font-family="Helvetica,sans-Serif" font-size="10.00">::perform</text>
</a>
</g>
<!-- Node5&#45;&gt;Node6 -->
<g id="edge10" class="edge"><title>Node5&#45;&gt;Node6</title>
<path fill="none" stroke="midnightblue" d="M518.157,-24C526.715,-24 535.571,-24 544.276,-24"/>
<polygon fill="midnightblue" stroke="midnightblue" points="517.896,-20.5001 507.896,-24 517.896,-27.5001 517.896,-20.5001"/>
</g>
</g>
</svg>
