<?xml version="1.0" encoding="UTF-8" standalone="no"?>
<!DOCTYPE svg PUBLIC "-//W3C//DTD SVG 1.1//EN"
 "http://www.w3.org/Graphics/SVG/1.1/DTD/svg11.dtd">
<!-- Generated by graphviz version 2.26.3 (20100126.1600)
 -->
<!-- Title: blond::optionparser::Option::append Pages: 1 -->
<svg width="282pt" height="56pt"
 viewBox="0.00 0.00 282.00 56.00" xmlns="http://www.w3.org/2000/svg" xmlns:xlink="http://www.w3.org/1999/xlink">
<g id="graph1" class="graph" transform="scale(1 1) rotate(0) translate(4 52)">
<title>blond::optionparser::Option::append</title>
<polygon fill="white" stroke="white" points="-4,5 -4,-52 279,-52 279,5 -4,5"/>
<!-- Node1 -->
<g id="node1" class="node"><title>Node1</title>
<polygon fill="#bfbfbf" stroke="black" points="0.5,-7 0.5,-41 99.5,-41 99.5,-7 0.5,-7"/>
<text text-anchor="start" x="8.5" y="-28" font-family="Helvetica,sans-Serif" font-size="10.00">blond::optionparser</text>
<text text-anchor="middle" x="50" y="-15" font-family="Helvetica,sans-Serif" font-size="10.00">::Option::append</text>
</g>
<!-- Node2 -->
<g id="node3" class="node"><title>Node2</title>
<a xlink:href="../../d0/d6b/classblond_1_1optionparser_1_1Parser_1_1StoreOptionAction.html#aadf15bf0ebd144216aca843e5f2d475e" target="_top" xlink:title="Called by Parser::workhorse() for each Option that has been successfully parsed (including unknown op...">
<polygon fill="white" stroke="black" points="136.5,-0.5 136.5,-47.5 273.5,-47.5 273.5,-0.5 136.5,-0.5"/>
<text text-anchor="start" x="144.5" y="-34.5" font-family="Helvetica,sans-Serif" font-size="10.00">blond::optionparser</text>
<text text-anchor="start" x="144.5" y="-21.5" font-family="Helvetica,sans-Serif" font-size="10.00">::Parser::StoreOptionAction</text>
<text text-anchor="middle" x="205" y="-8.5" font-family="Helvetica,sans-Serif" font-size="10.00">::perform</text>
</a>
</g>
<!-- Node1&#45;&gt;Node2 -->
<g id="edge2" class="edge"><title>Node1&#45;&gt;Node2</title>
<path fill="none" stroke="midnightblue" d="M110.157,-24C118.715,-24 127.571,-24 136.276,-24"/>
<polygon fill="midnightblue" stroke="midnightblue" points="109.896,-20.5001 99.8962,-24 109.896,-27.5001 109.896,-20.5001"/>
</g>
</g>
</svg>
