<?xml version="1.0" encoding="UTF-8" standalone="no"?>
<!DOCTYPE svg PUBLIC "-//W3C//DTD SVG 1.1//EN"
 "http://www.w3.org/Graphics/SVG/1.1/DTD/svg11.dtd">
<!-- Generated by graphviz version 2.26.3 (20100126.1600)
 -->
<!-- Title: blond::optionparser::Option::prevwrap Pages: 1 -->
<svg width="554pt" height="56pt"
 viewBox="0.00 0.00 554.00 56.00" xmlns="http://www.w3.org/2000/svg" xmlns:xlink="http://www.w3.org/1999/xlink">
<g id="graph1" class="graph" transform="scale(1 1) rotate(0) translate(4 52)">
<title>blond::optionparser::Option::prevwrap</title>
<polygon fill="white" stroke="white" points="-4,5 -4,-52 551,-52 551,5 -4,5"/>
<!-- Node1 -->
<g id="node1" class="node"><title>Node1</title>
<polygon fill="#bfbfbf" stroke="black" points="0.5,-7 0.5,-41 99.5,-41 99.5,-7 0.5,-7"/>
<text text-anchor="start" x="8.5" y="-28" font-family="Helvetica,sans-Serif" font-size="10.00">blond::optionparser</text>
<text text-anchor="middle" x="50" y="-15" font-family="Helvetica,sans-Serif" font-size="10.00">::Option::prevwrap</text>
</g>
<!-- Node2 -->
<g id="node3" class="node"><title>Node2</title>
<a xlink:href="../../d2/dd3/classblond_1_1optionparser_1_1Option.html#a7dd70b5b36b9e9fc26003451127d9f37" target="_top" xlink:title="Returns a pointer to the last element of the linked list.">
<polygon fill="white" stroke="black" points="136.5,-7 136.5,-41 235.5,-41 235.5,-7 136.5,-7"/>
<text text-anchor="start" x="144.5" y="-28" font-family="Helvetica,sans-Serif" font-size="10.00">blond::optionparser</text>
<text text-anchor="middle" x="186" y="-15" font-family="Helvetica,sans-Serif" font-size="10.00">::Option::last</text>
</a>
</g>
<!-- Node1&#45;&gt;Node2 -->
<g id="edge2" class="edge"><title>Node1&#45;&gt;Node2</title>
<path fill="none" stroke="midnightblue" d="M110,-24C118.729,-24 127.637,-24 136.137,-24"/>
<polygon fill="midnightblue" stroke="midnightblue" points="109.869,-20.5001 99.8691,-24 109.869,-27.5001 109.869,-20.5001"/>
</g>
<!-- Node3 -->
<g id="node5" class="node"><title>Node3</title>
<a xlink:href="../../d2/dd3/classblond_1_1optionparser_1_1Option.html#af27093360c748ca5c062ff1a79954721" target="_top" xlink:title="Makes new_last the new last() by chaining it into the list after last().">
<polygon fill="white" stroke="black" points="272.5,-7 272.5,-41 371.5,-41 371.5,-7 272.5,-7"/>
<text text-anchor="start" x="280.5" y="-28" font-family="Helvetica,sans-Serif" font-size="10.00">blond::optionparser</text>
<text text-anchor="middle" x="322" y="-15" font-family="Helvetica,sans-Serif" font-size="10.00">::Option::append</text>
</a>
</g>
<!-- Node2&#45;&gt;Node3 -->
<g id="edge4" class="edge"><title>Node2&#45;&gt;Node3</title>
<path fill="none" stroke="midnightblue" d="M246,-24C254.729,-24 263.637,-24 272.137,-24"/>
<polygon fill="midnightblue" stroke="midnightblue" points="245.869,-20.5001 235.869,-24 245.869,-27.5001 245.869,-20.5001"/>
</g>
<!-- Node4 -->
<g id="node7" class="node"><title>Node4</title>
<a xlink:href="../../d0/d6b/classblond_1_1optionparser_1_1Parser_1_1StoreOptionAction.html#aadf15bf0ebd144216aca843e5f2d475e" target="_top" xlink:title="Called by Parser::workhorse() for each Option that has been successfully parsed (including unknown op...">
<polygon fill="white" stroke="black" points="408.5,-0.5 408.5,-47.5 545.5,-47.5 545.5,-0.5 408.5,-0.5"/>
<text text-anchor="start" x="416.5" y="-34.5" font-family="Helvetica,sans-Serif" font-size="10.00">blond::optionparser</text>
<text text-anchor="start" x="416.5" y="-21.5" font-family="Helvetica,sans-Serif" font-size="10.00">::Parser::StoreOptionAction</text>
<text text-anchor="middle" x="477" y="-8.5" font-family="Helvetica,sans-Serif" font-size="10.00">::perform</text>
</a>
</g>
<!-- Node3&#45;&gt;Node4 -->
<g id="edge6" class="edge"><title>Node3&#45;&gt;Node4</title>
<path fill="none" stroke="midnightblue" d="M382.157,-24C390.715,-24 399.571,-24 408.276,-24"/>
<polygon fill="midnightblue" stroke="midnightblue" points="381.896,-20.5001 371.896,-24 381.896,-27.5001 381.896,-20.5001"/>
</g>
</g>
</svg>
