<?xml version="1.0" encoding="UTF-8" standalone="no"?>
<!DOCTYPE svg PUBLIC "-//W3C//DTD SVG 1.1//EN"
 "http://www.w3.org/Graphics/SVG/1.1/DTD/svg11.dtd">
<!-- Generated by graphviz version 2.26.3 (20100126.1600)
 -->
<!-- Title: InducedVoltageTime Pages: 1 -->
<svg width="160pt" height="368pt"
 viewBox="0.00 0.00 160.00 368.00" xmlns="http://www.w3.org/2000/svg" xmlns:xlink="http://www.w3.org/1999/xlink">
<g id="graph1" class="graph" transform="scale(1 1) rotate(0) translate(4 364)">
<title>InducedVoltageTime</title>
<polygon fill="white" stroke="white" points="-4,5 -4,-364 157,-364 157,5 -4,5"/>
<!-- Node1 -->
<g id="node1" class="node"><title>Node1</title>
<polygon fill="#bfbfbf" stroke="black" points="0,-0.5 0,-193.5 152,-193.5 152,-0.5 0,-0.5"/>
<text text-anchor="middle" x="76" y="-180.5" font-family="Helvetica,sans-Serif" font-size="10.00">InducedVoltageTime</text>
<polyline fill="none" stroke="black" points="0,-172.5 152,-172.5 "/>
<text text-anchor="start" x="8" y="-159.5" font-family="Helvetica,sans-Serif" font-size="10.00">+ fCut</text>
<text text-anchor="start" x="8" y="-146.5" font-family="Helvetica,sans-Serif" font-size="10.00">+ fShape</text>
<text text-anchor="start" x="8" y="-133.5" font-family="Helvetica,sans-Serif" font-size="10.00">+ fTimeArray</text>
<text text-anchor="start" x="8" y="-120.5" font-family="Helvetica,sans-Serif" font-size="10.00">+ fTimeOrFreq</text>
<text text-anchor="start" x="8" y="-107.5" font-family="Helvetica,sans-Serif" font-size="10.00">+ fTotalWake</text>
<text text-anchor="start" x="8" y="-94.5" font-family="Helvetica,sans-Serif" font-size="10.00">+ fWakeSourceList</text>
<polyline fill="none" stroke="black" points="0,-86.5 152,-86.5 "/>
<text text-anchor="start" x="8" y="-73.5" font-family="Helvetica,sans-Serif" font-size="10.00">+ InducedVoltageTime()</text>
<text text-anchor="start" x="8" y="-60.5" font-family="Helvetica,sans-Serif" font-size="10.00">+ ~InducedVoltageTime()</text>
<text text-anchor="start" x="8" y="-47.5" font-family="Helvetica,sans-Serif" font-size="10.00">+ induced_voltage_generation()</text>
<text text-anchor="start" x="8" y="-34.5" font-family="Helvetica,sans-Serif" font-size="10.00">+ reprocess()</text>
<text text-anchor="start" x="8" y="-21.5" font-family="Helvetica,sans-Serif" font-size="10.00">+ sum_wakes()</text>
<text text-anchor="start" x="8" y="-8.5" font-family="Helvetica,sans-Serif" font-size="10.00">+ track()</text>
</g>
<!-- Node2 -->
<g id="node2" class="node"><title>Node2</title>
<a xlink:href="../../dd/de2/classInducedVoltage.html" target="_top" xlink:title="{InducedVoltage\n|+ fInducedVoltage\l+ fSlices\l|+ InducedVoltage()\l+ ~InducedVoltage()\l+ induced_voltage_generation()\l+ reprocess()\l+ track()\l}">
<polygon fill="white" stroke="black" points="0,-231 0,-359 152,-359 152,-231 0,-231"/>
<text text-anchor="middle" x="76" y="-346" font-family="Helvetica,sans-Serif" font-size="10.00">InducedVoltage</text>
<polyline fill="none" stroke="black" points="0,-338 152,-338 "/>
<text text-anchor="start" x="8" y="-325" font-family="Helvetica,sans-Serif" font-size="10.00">+ fInducedVoltage</text>
<text text-anchor="start" x="8" y="-312" font-family="Helvetica,sans-Serif" font-size="10.00">+ fSlices</text>
<polyline fill="none" stroke="black" points="0,-304 152,-304 "/>
<text text-anchor="start" x="8" y="-291" font-family="Helvetica,sans-Serif" font-size="10.00">+ InducedVoltage()</text>
<text text-anchor="start" x="8" y="-278" font-family="Helvetica,sans-Serif" font-size="10.00">+ ~InducedVoltage()</text>
<text text-anchor="start" x="8" y="-265" font-family="Helvetica,sans-Serif" font-size="10.00">+ induced_voltage_generation()</text>
<text text-anchor="start" x="8" y="-252" font-family="Helvetica,sans-Serif" font-size="10.00">+ reprocess()</text>
<text text-anchor="start" x="8" y="-239" font-family="Helvetica,sans-Serif" font-size="10.00">+ track()</text>
</a>
</g>
<!-- Node2&#45;&gt;Node1 -->
<g id="edge2" class="edge"><title>Node2&#45;&gt;Node1</title>
<path fill="none" stroke="midnightblue" d="M76,-220.716C76,-211.839 76,-202.678 76,-193.545"/>
<polygon fill="none" stroke="midnightblue" points="72.5001,-220.988 76,-230.989 79.5001,-220.989 72.5001,-220.988"/>
</g>
</g>
</svg>
