<?xml version="1.0" encoding="UTF-8" standalone="no"?>
<!DOCTYPE svg PUBLIC "-//W3C//DTD SVG 1.1//EN"
 "http://www.w3.org/Graphics/SVG/1.1/DTD/svg11.dtd">
<!-- Generated by graphviz version 2.26.3 (20100126.1600)
 -->
<!-- Title: RfParameters.h Pages: 1 -->
<svg width="1343pt" height="436pt"
 viewBox="0.00 0.00 1343.00 436.00" xmlns="http://www.w3.org/2000/svg" xmlns:xlink="http://www.w3.org/1999/xlink">
<g id="graph1" class="graph" transform="scale(1 1) rotate(0) translate(4 432)">
<title>RfParameters.h</title>
<polygon fill="white" stroke="white" points="-4,5 -4,-432 1340,-432 1340,5 -4,5"/>
<!-- Node1 -->
<g id="node1" class="node"><title>Node1</title>
<polygon fill="#bfbfbf" stroke="black" points="746,-406.5 746,-427.5 832,-427.5 832,-406.5 746,-406.5"/>
<text text-anchor="middle" x="789" y="-414.5" font-family="Helvetica,sans-Serif" font-size="10.00">RfParameters.h</text>
</g>
<!-- Node2 -->
<g id="node3" class="node"><title>Node2</title>
<a xlink:href="../../dc/d61/RfParameters_8cpp.html" target="_top" xlink:title="RfParameters.cpp">
<polygon fill="white" stroke="black" points="506,-348.5 506,-369.5 602,-369.5 602,-348.5 506,-348.5"/>
<text text-anchor="middle" x="554" y="-356.5" font-family="Helvetica,sans-Serif" font-size="10.00">RfParameters.cpp</text>
</a>
</g>
<!-- Node1&#45;&gt;Node2 -->
<g id="edge2" class="edge"><title>Node1&#45;&gt;Node2</title>
<path fill="none" stroke="midnightblue" d="M736.638,-404.077C694.481,-393.672 635.969,-379.231 596.637,-369.523"/>
<polygon fill="midnightblue" stroke="midnightblue" points="735.896,-407.498 746.443,-406.497 737.573,-400.702 735.896,-407.498"/>
</g>
<!-- Node3 -->
<g id="node5" class="node"><title>Node3</title>
<a xlink:href="../../d7/d74/Beams_8h.html" target="_top" xlink:title="Beams.h">
<polygon fill="white" stroke="black" points="620,-348.5 620,-369.5 676,-369.5 676,-348.5 620,-348.5"/>
<text text-anchor="middle" x="648" y="-356.5" font-family="Helvetica,sans-Serif" font-size="10.00">Beams.h</text>
</a>
</g>
<!-- Node1&#45;&gt;Node3 -->
<g id="edge4" class="edge"><title>Node1&#45;&gt;Node3</title>
<path fill="none" stroke="midnightblue" d="M748.455,-402.751C722.27,-392.509 689.418,-378.921 668.459,-369.621"/>
<polygon fill="midnightblue" stroke="midnightblue" points="747.537,-406.148 758.126,-406.497 750.065,-399.621 747.537,-406.148"/>
</g>
<!-- Node7 -->
<g id="node13" class="node"><title>Node7</title>
<a xlink:href="../../d5/d87/globals_8h.html" target="_top" xlink:title="globals.h">
<polygon fill="white" stroke="black" points="620,-290.5 620,-311.5 676,-311.5 676,-290.5 620,-290.5"/>
<text text-anchor="middle" x="648" y="-298.5" font-family="Helvetica,sans-Serif" font-size="10.00">globals.h</text>
</a>
</g>
<!-- Node1&#45;&gt;Node7 -->
<g id="edge92" class="edge"><title>Node1&#45;&gt;Node7</title>
<path fill="none" stroke="midnightblue" d="M763.812,-400.316C731.693,-376.112 678.274,-331.945 656.872,-311.679"/>
<polygon fill="midnightblue" stroke="midnightblue" points="761.757,-403.149 771.875,-406.295 765.927,-397.527 761.757,-403.149"/>
</g>
<!-- Node14 -->
<g id="node29" class="node"><title>Node14</title>
<a xlink:href="../../d0/da6/Monitors_8h.html" target="_top" xlink:title="Monitors.h">
<polygon fill="white" stroke="black" points="868,-116.5 868,-137.5 930,-137.5 930,-116.5 868,-116.5"/>
<text text-anchor="middle" x="899" y="-124.5" font-family="Helvetica,sans-Serif" font-size="10.00">Monitors.h</text>
</a>
</g>
<!-- Node1&#45;&gt;Node14 -->
<g id="edge94" class="edge"><title>Node1&#45;&gt;Node14</title>
<path fill="none" stroke="midnightblue" d="M842.637,-413.607C956.699,-404.919 1213,-376.949 1213,-301 1213,-301 1213,-301 1213,-243 1213,-183.142 1009.68,-144.505 930.255,-131.696"/>
<polygon fill="midnightblue" stroke="midnightblue" points="842.098,-410.137 832.383,-414.365 842.614,-417.118 842.098,-410.137"/>
</g>
<!-- Node27 -->
<g id="node62" class="node"><title>Node27</title>
<a xlink:href="../../d8/d94/plot__beams_8h.html" target="_top" xlink:title="plot_beams.h">
<polygon fill="white" stroke="black" points="854.5,-290.5 854.5,-311.5 929.5,-311.5 929.5,-290.5 854.5,-290.5"/>
<text text-anchor="middle" x="892" y="-298.5" font-family="Helvetica,sans-Serif" font-size="10.00">plot_beams.h</text>
</a>
</g>
<!-- Node1&#45;&gt;Node27 -->
<g id="edge96" class="edge"><title>Node1&#45;&gt;Node27</title>
<path fill="none" stroke="midnightblue" d="M805.21,-398.744C826.965,-374.243 864.906,-331.513 882.518,-311.679"/>
<polygon fill="midnightblue" stroke="midnightblue" points="802.528,-396.493 798.505,-406.295 807.762,-401.141 802.528,-396.493"/>
</g>
<!-- Node28 -->
<g id="node65" class="node"><title>Node28</title>
<a xlink:href="../../dc/df2/Slices_8h.html" target="_top" xlink:title="Slices.h">
<polygon fill="white" stroke="black" points="763,-348.5 763,-369.5 815,-369.5 815,-348.5 763,-348.5"/>
<text text-anchor="middle" x="789" y="-356.5" font-family="Helvetica,sans-Serif" font-size="10.00">Slices.h</text>
</a>
</g>
<!-- Node1&#45;&gt;Node28 -->
<g id="edge74" class="edge"><title>Node1&#45;&gt;Node28</title>
<path fill="none" stroke="midnightblue" d="M789,-396.191C789,-387.168 789,-376.994 789,-369.571"/>
<polygon fill="midnightblue" stroke="midnightblue" points="785.5,-396.362 789,-406.362 792.5,-396.362 785.5,-396.362"/>
</g>
<!-- Node29 -->
<g id="node72" class="node"><title>Node29</title>
<a xlink:href="../../d2/d51/plot__slices_8h.html" target="_top" xlink:title="plot_slices.h">
<polygon fill="white" stroke="black" points="1030.5,-290.5 1030.5,-311.5 1101.5,-311.5 1101.5,-290.5 1030.5,-290.5"/>
<text text-anchor="middle" x="1066" y="-298.5" font-family="Helvetica,sans-Serif" font-size="10.00">plot_slices.h</text>
</a>
</g>
<!-- Node1&#45;&gt;Node29 -->
<g id="edge102" class="edge"><title>Node1&#45;&gt;Node29</title>
<path fill="none" stroke="midnightblue" d="M823.83,-402.414C880.488,-378.687 991.265,-332.297 1040.9,-311.512"/>
<polygon fill="midnightblue" stroke="midnightblue" points="822.435,-399.204 814.563,-406.295 825.139,-405.661 822.435,-399.204"/>
</g>
<!-- Node31 -->
<g id="node80" class="node"><title>Node31</title>
<a xlink:href="../../d3/dda/plot__llrf_8h.html" target="_top" xlink:title="plot_llrf.h">
<polygon fill="white" stroke="black" points="1279,-174.5 1279,-195.5 1335,-195.5 1335,-174.5 1279,-174.5"/>
<text text-anchor="middle" x="1307" y="-182.5" font-family="Helvetica,sans-Serif" font-size="10.00">plot_llrf.h</text>
</a>
</g>
<!-- Node1&#45;&gt;Node31 -->
<g id="edge98" class="edge"><title>Node1&#45;&gt;Node31</title>
<path fill="none" stroke="midnightblue" d="M842.311,-413.833C951.873,-406.957 1194.8,-389.688 1227,-370 1290.59,-331.115 1303.74,-228.866 1306.37,-195.614"/>
<polygon fill="midnightblue" stroke="midnightblue" points="841.9,-410.351 832.136,-414.465 842.334,-417.338 841.9,-410.351"/>
</g>
<!-- Node32 -->
<g id="node84" class="node"><title>Node32</title>
<a xlink:href="../../de/d44/trackers_2utilities_8h.html" target="_top" xlink:title="utilities.h">
<polygon fill="white" stroke="black" points="971,-348.5 971,-369.5 1027,-369.5 1027,-348.5 971,-348.5"/>
<text text-anchor="middle" x="999" y="-356.5" font-family="Helvetica,sans-Serif" font-size="10.00">utilities.h</text>
</a>
</g>
<!-- Node1&#45;&gt;Node32 -->
<g id="edge104" class="edge"><title>Node1&#45;&gt;Node32</title>
<path fill="none" stroke="midnightblue" d="M836.903,-403.77C878.319,-392.331 936.764,-376.189 970.987,-366.737"/>
<polygon fill="midnightblue" stroke="midnightblue" points="835.737,-400.461 827.029,-406.497 837.6,-407.208 835.737,-400.461"/>
</g>
<!-- Node3&#45;&gt;Node1 -->
<g id="edge66" class="edge"><title>Node3&#45;&gt;Node1</title>
<path fill="none" stroke="midnightblue" d="M685.602,-372.101C712.336,-382.499 747.071,-396.844 768.806,-406.497"/>
<polygon fill="midnightblue" stroke="midnightblue" points="686.744,-368.79 676.154,-368.465 684.229,-375.323 686.744,-368.79"/>
</g>
<!-- Node4 -->
<g id="node7" class="node"><title>Node4</title>
<a xlink:href="../../dc/d0f/Beams_8cpp.html" target="_top" xlink:title="Beams.cpp">
<polygon fill="white" stroke="black" points="947,-290.5 947,-311.5 1013,-311.5 1013,-290.5 947,-290.5"/>
<text text-anchor="middle" x="980" y="-298.5" font-family="Helvetica,sans-Serif" font-size="10.00">Beams.cpp</text>
</a>
</g>
<!-- Node3&#45;&gt;Node4 -->
<g id="edge6" class="edge"><title>Node3&#45;&gt;Node4</title>
<path fill="none" stroke="midnightblue" d="M686.277,-353.984C741.967,-346.417 848.461,-330.936 938,-312 940.802,-311.407 943.698,-310.748 946.598,-310.056"/>
<polygon fill="midnightblue" stroke="midnightblue" points="685.603,-350.543 676.16,-355.347 686.538,-357.48 685.603,-350.543"/>
</g>
<!-- Node5 -->
<g id="node9" class="node"><title>Node5</title>
<a xlink:href="../../dc/d7d/Distributions_8h.html" target="_top" xlink:title="Distributions.h">
<polygon fill="white" stroke="black" points="160,-58.5 160,-79.5 240,-79.5 240,-58.5 160,-58.5"/>
<text text-anchor="middle" x="200" y="-66.5" font-family="Helvetica,sans-Serif" font-size="10.00">Distributions.h</text>
</a>
</g>
<!-- Node3&#45;&gt;Node5 -->
<g id="edge8" class="edge"><title>Node3&#45;&gt;Node5</title>
<path fill="none" stroke="midnightblue" d="M609.743,-348.269C475.64,-328.383 173.187,-362.042 66,-312 27.5473,-294.048 3.55271e-15,-285.437 0,-243 0,-243 0,-243 0,-185 0,-111.945 101.086,-84.1352 159.527,-74.1617"/>
<polygon fill="midnightblue" stroke="midnightblue" points="609.439,-351.766 619.875,-349.934 610.575,-344.858 609.439,-351.766"/>
</g>
<!-- Node3&#45;&gt;Node7 -->
<g id="edge12" class="edge"><title>Node3&#45;&gt;Node7</title>
<path fill="none" stroke="midnightblue" d="M641.495,-338.191C640.941,-329.168 641.326,-318.994 642.648,-311.571"/>
<polygon fill="midnightblue" stroke="midnightblue" points="638.043,-338.814 642.636,-348.362 645,-338.034 638.043,-338.814"/>
</g>
<!-- Node3&#45;&gt;Node14 -->
<g id="edge68" class="edge"><title>Node3&#45;&gt;Node14</title>
<path fill="none" stroke="midnightblue" d="M609.916,-348.355C508.812,-334.147 277.793,-372.114 218,-312 192.877,-286.742 190.686,-259.771 213,-232 254.836,-179.932 738.915,-139.284 867.695,-129.339"/>
<polygon fill="midnightblue" stroke="midnightblue" points="609.422,-351.821 619.86,-350.01 610.57,-344.916 609.422,-351.821"/>
</g>
<!-- Node22 -->
<g id="node47" class="node"><title>Node22</title>
<a xlink:href="../../d9/dee/InducedVoltage_8h.html" target="_top" xlink:title="InducedVoltage.h">
<polygon fill="white" stroke="black" points="227,-290.5 227,-311.5 319,-311.5 319,-290.5 227,-290.5"/>
<text text-anchor="middle" x="273" y="-298.5" font-family="Helvetica,sans-Serif" font-size="10.00">InducedVoltage.h</text>
</a>
</g>
<!-- Node3&#45;&gt;Node22 -->
<g id="edge50" class="edge"><title>Node3&#45;&gt;Node22</title>
<path fill="none" stroke="midnightblue" d="M609.958,-348.02C500.617,-324.803 382.526,-311.429 319.035,-305.179"/>
<polygon fill="midnightblue" stroke="midnightblue" points="609.319,-351.463 619.832,-350.149 610.794,-344.62 609.319,-351.463"/>
</g>
<!-- Node25 -->
<g id="node56" class="node"><title>Node25</title>
<a xlink:href="../../dc/d9c/Music_8h.html" target="_top" xlink:title="Music.h">
<polygon fill="white" stroke="black" points="74.5,-290.5 74.5,-311.5 125.5,-311.5 125.5,-290.5 74.5,-290.5"/>
<text text-anchor="middle" x="100" y="-298.5" font-family="Helvetica,sans-Serif" font-size="10.00">Music.h</text>
</a>
</g>
<!-- Node3&#45;&gt;Node25 -->
<g id="edge62" class="edge"><title>Node3&#45;&gt;Node25</title>
<path fill="none" stroke="midnightblue" d="M609.853,-348.111C420.313,-313.118 367.796,-332.739 180,-312 161.745,-309.984 141.225,-307.151 125.537,-304.865"/>
<polygon fill="midnightblue" stroke="midnightblue" points="609.392,-351.585 619.865,-349.986 610.68,-344.705 609.392,-351.585"/>
</g>
<!-- Node3&#45;&gt;Node27 -->
<g id="edge70" class="edge"><title>Node3&#45;&gt;Node27</title>
<path fill="none" stroke="midnightblue" d="M686.324,-349.89C732.183,-338.989 808.482,-320.853 854.136,-310"/>
<polygon fill="midnightblue" stroke="midnightblue" points="685.387,-346.515 676.467,-352.233 687.006,-353.326 685.387,-346.515"/>
</g>
<!-- Node6 -->
<g id="node11" class="node"><title>Node6</title>
<a xlink:href="../../db/de1/Distributions_8cpp.html" target="_top" xlink:title="Distributions.cpp">
<polygon fill="white" stroke="black" points="721,-0.5 721,-21.5 811,-21.5 811,-0.5 721,-0.5"/>
<text text-anchor="middle" x="766" y="-8.5" font-family="Helvetica,sans-Serif" font-size="10.00">Distributions.cpp</text>
</a>
</g>
<!-- Node5&#45;&gt;Node6 -->
<g id="edge10" class="edge"><title>Node5&#45;&gt;Node6</title>
<path fill="none" stroke="midnightblue" d="M250.346,-63.8408C359.536,-52.6517 616.662,-26.3032 720.912,-15.6204"/>
<polygon fill="midnightblue" stroke="midnightblue" points="249.843,-60.374 240.252,-64.8753 250.556,-67.3376 249.843,-60.374"/>
</g>
<!-- Node7&#45;&gt;Node1 -->
<g id="edge24" class="edge"><title>Node7&#45;&gt;Node1</title>
<path fill="none" stroke="midnightblue" d="M673.147,-317.653C705.248,-341.84 758.672,-386.009 780.101,-406.295"/>
<polygon fill="midnightblue" stroke="midnightblue" points="675.207,-314.824 665.09,-311.679 671.038,-320.447 675.207,-314.824"/>
</g>
<!-- Node7&#45;&gt;Node3 -->
<g id="edge22" class="edge"><title>Node7&#45;&gt;Node3</title>
<path fill="none" stroke="midnightblue" d="M654.5,-321.728C655.059,-330.743 654.681,-340.922 653.364,-348.362"/>
<polygon fill="midnightblue" stroke="midnightblue" points="657.953,-321.114 653.352,-311.571 650.997,-321.9 657.953,-321.114"/>
</g>
<!-- Node8 -->
<g id="node15" class="node"><title>Node8</title>
<a xlink:href="../../d7/d91/Slices_8cpp.html" target="_top" xlink:title="Slices.cpp">
<polygon fill="white" stroke="black" points="782,-232.5 782,-253.5 844,-253.5 844,-232.5 782,-232.5"/>
<text text-anchor="middle" x="813" y="-240.5" font-family="Helvetica,sans-Serif" font-size="10.00">Slices.cpp</text>
</a>
</g>
<!-- Node7&#45;&gt;Node8 -->
<g id="edge14" class="edge"><title>Node7&#45;&gt;Node8</title>
<path fill="none" stroke="midnightblue" d="M685.919,-287.671C715.422,-277.3 755.797,-263.108 783.056,-253.526"/>
<polygon fill="midnightblue" stroke="midnightblue" points="684.638,-284.411 676.365,-291.029 686.959,-291.015 684.638,-284.411"/>
</g>
<!-- Node9 -->
<g id="node17" class="node"><title>Node9</title>
<a xlink:href="../../da/d77/globals_8cpp.html" target="_top" xlink:title="globals.cpp">
<polygon fill="white" stroke="black" points="342,-232.5 342,-253.5 408,-253.5 408,-232.5 342,-232.5"/>
<text text-anchor="middle" x="375" y="-240.5" font-family="Helvetica,sans-Serif" font-size="10.00">globals.cpp</text>
</a>
</g>
<!-- Node7&#45;&gt;Node9 -->
<g id="edge16" class="edge"><title>Node7&#45;&gt;Node9</title>
<path fill="none" stroke="midnightblue" d="M609.692,-293.88C563.752,-285.186 484.492,-269.692 417,-254 414.21,-253.351 411.323,-252.653 408.429,-251.934"/>
<polygon fill="midnightblue" stroke="midnightblue" points="609.324,-297.372 619.799,-295.785 610.621,-290.493 609.324,-297.372"/>
</g>
<!-- Node10 -->
<g id="node19" class="node"><title>Node10</title>
<a xlink:href="../../d5/dfa/InducedVoltage_8cpp.html" target="_top" xlink:title="InducedVoltage.cpp">
<polygon fill="white" stroke="black" points="221.5,-232.5 221.5,-253.5 324.5,-253.5 324.5,-232.5 221.5,-232.5"/>
<text text-anchor="middle" x="273" y="-240.5" font-family="Helvetica,sans-Serif" font-size="10.00">InducedVoltage.cpp</text>
</a>
</g>
<!-- Node7&#45;&gt;Node10 -->
<g id="edge18" class="edge"><title>Node7&#45;&gt;Node10</title>
<path fill="none" stroke="midnightblue" d="M609.668,-295.699C550.299,-287.395 432.566,-270.55 333,-254 330.284,-253.549 327.5,-253.075 324.692,-252.589"/>
<polygon fill="midnightblue" stroke="midnightblue" points="609.326,-299.185 619.714,-297.101 610.294,-292.252 609.326,-299.185"/>
</g>
<!-- Node11 -->
<g id="node21" class="node"><title>Node11</title>
<a xlink:href="../../d3/db7/LHCNoiseFB_8cpp.html" target="_top" xlink:title="LHCNoiseFB.cpp">
<polygon fill="white" stroke="black" points="426,-232.5 426,-253.5 520,-253.5 520,-232.5 426,-232.5"/>
<text text-anchor="middle" x="473" y="-240.5" font-family="Helvetica,sans-Serif" font-size="10.00">LHCNoiseFB.cpp</text>
</a>
</g>
<!-- Node7&#45;&gt;Node11 -->
<g id="edge20" class="edge"><title>Node7&#45;&gt;Node11</title>
<path fill="none" stroke="midnightblue" d="M610.166,-288.461C578.746,-278.047 534.554,-263.401 504.902,-253.573"/>
<polygon fill="midnightblue" stroke="midnightblue" points="609.29,-291.858 619.883,-291.681 611.492,-285.213 609.29,-291.858"/>
</g>
<!-- Node12 -->
<g id="node25" class="node"><title>Node12</title>
<a xlink:href="../../d3/d33/PhaseLoop_8h.html" target="_top" xlink:title="PhaseLoop.h">
<polygon fill="white" stroke="black" points="591,-174.5 591,-195.5 665,-195.5 665,-174.5 591,-174.5"/>
<text text-anchor="middle" x="628" y="-182.5" font-family="Helvetica,sans-Serif" font-size="10.00">PhaseLoop.h</text>
</a>
</g>
<!-- Node7&#45;&gt;Node12 -->
<g id="edge26" class="edge"><title>Node7&#45;&gt;Node12</title>
<path fill="none" stroke="midnightblue" d="M644.401,-280.123C640.12,-255.298 633.142,-214.824 629.841,-195.679"/>
<polygon fill="midnightblue" stroke="midnightblue" points="641.006,-281.035 646.154,-290.295 647.904,-279.846 641.006,-281.035"/>
</g>
<!-- Node20 -->
<g id="node42" class="node"><title>Node20</title>
<a xlink:href="../../d9/dc8/PhaseNoise_8h.html" target="_top" xlink:title="PhaseNoise.h">
<polygon fill="white" stroke="black" points="538,-232.5 538,-253.5 616,-253.5 616,-232.5 538,-232.5"/>
<text text-anchor="middle" x="577" y="-240.5" font-family="Helvetica,sans-Serif" font-size="10.00">PhaseNoise.h</text>
</a>
</g>
<!-- Node7&#45;&gt;Node20 -->
<g id="edge44" class="edge"><title>Node7&#45;&gt;Node20</title>
<path fill="none" stroke="midnightblue" d="M627.159,-283.975C615.109,-274.132 600.325,-262.055 589.94,-253.571"/>
<polygon fill="midnightblue" stroke="midnightblue" points="625.019,-286.746 634.978,-290.362 629.447,-281.325 625.019,-286.746"/>
</g>
<!-- Node13 -->
<g id="node27" class="node"><title>Node13</title>
<a xlink:href="../../db/dee/PhaseLoop_8cpp.html" target="_top" xlink:title="PhaseLoop.cpp">
<polygon fill="white" stroke="black" points="586,-116.5 586,-137.5 670,-137.5 670,-116.5 586,-116.5"/>
<text text-anchor="middle" x="628" y="-124.5" font-family="Helvetica,sans-Serif" font-size="10.00">PhaseLoop.cpp</text>
</a>
</g>
<!-- Node12&#45;&gt;Node13 -->
<g id="edge28" class="edge"><title>Node12&#45;&gt;Node13</title>
<path fill="none" stroke="midnightblue" d="M628,-164.191C628,-155.168 628,-144.994 628,-137.571"/>
<polygon fill="midnightblue" stroke="midnightblue" points="624.5,-164.362 628,-174.362 631.5,-164.362 624.5,-164.362"/>
</g>
<!-- Node12&#45;&gt;Node14 -->
<g id="edge30" class="edge"><title>Node12&#45;&gt;Node14</title>
<path fill="none" stroke="midnightblue" d="M675.179,-173.778C749.832,-157.155 825.97,-141.629 867.635,-133.255"/>
<polygon fill="midnightblue" stroke="midnightblue" points="674.131,-170.425 665.136,-176.023 675.659,-177.257 674.131,-170.425"/>
</g>
<!-- Node18 -->
<g id="node37" class="node"><title>Node18</title>
<a xlink:href="../../d2/d0e/Tracker_8h.html" target="_top" xlink:title="Tracker.h">
<polygon fill="white" stroke="black" points="346,-116.5 346,-137.5 404,-137.5 404,-116.5 346,-116.5"/>
<text text-anchor="middle" x="375" y="-124.5" font-family="Helvetica,sans-Serif" font-size="10.00">Tracker.h</text>
</a>
</g>
<!-- Node12&#45;&gt;Node18 -->
<g id="edge38" class="edge"><title>Node12&#45;&gt;Node18</title>
<path fill="none" stroke="midnightblue" d="M581.112,-173.81C512.039,-157.746 442.458,-142.085 404.163,-133.511"/>
<polygon fill="midnightblue" stroke="midnightblue" points="580.318,-177.218 590.852,-176.078 581.906,-170.401 580.318,-177.218"/>
</g>
<!-- Node15 -->
<g id="node31" class="node"><title>Node15</title>
<a xlink:href="../../da/dda/Monitors_8cpp.html" target="_top" xlink:title="Monitors.cpp">
<polygon fill="white" stroke="black" points="824.5,-58.5 824.5,-79.5 897.5,-79.5 897.5,-58.5 824.5,-58.5"/>
<text text-anchor="middle" x="861" y="-66.5" font-family="Helvetica,sans-Serif" font-size="10.00">Monitors.cpp</text>
</a>
</g>
<!-- Node14&#45;&gt;Node15 -->
<g id="edge32" class="edge"><title>Node14&#45;&gt;Node15</title>
<path fill="none" stroke="midnightblue" d="M886.525,-107.959C880.342,-98.522 873.11,-87.4835 867.926,-79.5707"/>
<polygon fill="midnightblue" stroke="midnightblue" points="883.622,-109.915 892.03,-116.362 889.478,-106.079 883.622,-109.915"/>
</g>
<!-- Node16 -->
<g id="node33" class="node"><title>Node16</title>
<a xlink:href="../../d3/d2c/plot__beams_8cpp.html" target="_top" xlink:title="plot_beams.cpp">
<polygon fill="white" stroke="black" points="915,-58.5 915,-79.5 1001,-79.5 1001,-58.5 915,-58.5"/>
<text text-anchor="middle" x="958" y="-66.5" font-family="Helvetica,sans-Serif" font-size="10.00">plot_beams.cpp</text>
</a>
</g>
<!-- Node14&#45;&gt;Node16 -->
<g id="edge34" class="edge"><title>Node14&#45;&gt;Node16</title>
<path fill="none" stroke="midnightblue" d="M917.19,-109.118C927.037,-99.4377 938.866,-87.8098 947.247,-79.5707"/>
<polygon fill="midnightblue" stroke="midnightblue" points="914.499,-106.856 909.822,-116.362 919.406,-111.847 914.499,-106.856"/>
</g>
<!-- Node17 -->
<g id="node35" class="node"><title>Node17</title>
<a xlink:href="../../d3/dca/plot__llrf_8cpp.html" target="_top" xlink:title="plot_llrf.cpp">
<polygon fill="white" stroke="black" points="1087.5,-58.5 1087.5,-79.5 1154.5,-79.5 1154.5,-58.5 1087.5,-58.5"/>
<text text-anchor="middle" x="1121" y="-66.5" font-family="Helvetica,sans-Serif" font-size="10.00">plot_llrf.cpp</text>
</a>
</g>
<!-- Node14&#45;&gt;Node17 -->
<g id="edge36" class="edge"><title>Node14&#45;&gt;Node17</title>
<path fill="none" stroke="midnightblue" d="M940.064,-116.272C982.455,-105.196 1047.81,-88.1222 1087.28,-77.8097"/>
<polygon fill="midnightblue" stroke="midnightblue" points="939.127,-112.899 930.336,-118.813 940.896,-119.672 939.127,-112.899"/>
</g>
<!-- Node18&#45;&gt;Node5 -->
<g id="edge42" class="edge"><title>Node18&#45;&gt;Node5</title>
<path fill="none" stroke="midnightblue" d="M335.979,-114.067C304.59,-103.664 261.039,-89.2301 231.758,-79.5254"/>
<polygon fill="midnightblue" stroke="midnightblue" points="335.116,-117.468 345.709,-117.292 337.318,-110.824 335.116,-117.468"/>
</g>
<!-- Node19 -->
<g id="node39" class="node"><title>Node19</title>
<a xlink:href="../../d2/d6f/Tracker_8cpp.html" target="_top" xlink:title="Tracker.cpp">
<polygon fill="white" stroke="black" points="341,-58.5 341,-79.5 409,-79.5 409,-58.5 341,-58.5"/>
<text text-anchor="middle" x="375" y="-66.5" font-family="Helvetica,sans-Serif" font-size="10.00">Tracker.cpp</text>
</a>
</g>
<!-- Node18&#45;&gt;Node19 -->
<g id="edge40" class="edge"><title>Node18&#45;&gt;Node19</title>
<path fill="none" stroke="midnightblue" d="M375,-106.191C375,-97.1684 375,-86.9941 375,-79.5707"/>
<polygon fill="midnightblue" stroke="midnightblue" points="371.5,-106.362 375,-116.362 378.5,-106.362 371.5,-106.362"/>
</g>
<!-- Node20&#45;&gt;Node12 -->
<g id="edge48" class="edge"><title>Node20&#45;&gt;Node12</title>
<path fill="none" stroke="midnightblue" d="M592.977,-224.83C601.438,-215.208 611.532,-203.728 618.705,-195.571"/>
<polygon fill="midnightblue" stroke="midnightblue" points="590.329,-222.541 586.354,-232.362 595.586,-227.163 590.329,-222.541"/>
</g>
<!-- Node21 -->
<g id="node44" class="node"><title>Node21</title>
<a xlink:href="../../db/d82/PhaseNoise_8cpp.html" target="_top" xlink:title="PhaseNoise.cpp">
<polygon fill="white" stroke="black" points="484.5,-174.5 484.5,-195.5 573.5,-195.5 573.5,-174.5 484.5,-174.5"/>
<text text-anchor="middle" x="529" y="-182.5" font-family="Helvetica,sans-Serif" font-size="10.00">PhaseNoise.cpp</text>
</a>
</g>
<!-- Node20&#45;&gt;Node21 -->
<g id="edge46" class="edge"><title>Node20&#45;&gt;Node21</title>
<path fill="none" stroke="midnightblue" d="M561.723,-224.541C553.81,-214.979 544.432,-203.647 537.748,-195.571"/>
<polygon fill="midnightblue" stroke="midnightblue" points="559.124,-226.889 568.196,-232.362 564.517,-222.426 559.124,-226.889"/>
</g>
<!-- Node22&#45;&gt;Node5 -->
<g id="edge54" class="edge"><title>Node22&#45;&gt;Node5</title>
<path fill="none" stroke="midnightblue" d="M238.15,-285.495C225.4,-277.932 212.317,-267.504 205,-254 173.164,-195.24 189.761,-109.836 197.104,-79.8754"/>
<polygon fill="midnightblue" stroke="midnightblue" points="236.836,-288.766 247.288,-290.499 240.198,-282.626 236.836,-288.766"/>
</g>
<!-- Node22&#45;&gt;Node10 -->
<g id="edge52" class="edge"><title>Node22&#45;&gt;Node10</title>
<path fill="none" stroke="midnightblue" d="M273,-280.191C273,-271.168 273,-260.994 273,-253.571"/>
<polygon fill="midnightblue" stroke="midnightblue" points="269.5,-280.362 273,-290.362 276.5,-280.362 269.5,-280.362"/>
</g>
<!-- Node22&#45;&gt;Node18 -->
<g id="edge60" class="edge"><title>Node22&#45;&gt;Node18</title>
<path fill="none" stroke="midnightblue" d="M243.298,-285.101C223.103,-272.035 201.906,-252.411 213,-232 241.17,-180.173 307.176,-149.979 345.68,-136.169"/>
<polygon fill="midnightblue" stroke="midnightblue" points="241.728,-288.242 252.09,-290.452 245.367,-282.263 241.728,-288.242"/>
</g>
<!-- Node23 -->
<g id="node51" class="node"><title>Node23</title>
<a xlink:href="../../da/d77/plot__impedance_8h.html" target="_top" xlink:title="plot_impedance.h">
<polygon fill="white" stroke="black" points="671.5,-232.5 671.5,-253.5 764.5,-253.5 764.5,-232.5 671.5,-232.5"/>
<text text-anchor="middle" x="718" y="-240.5" font-family="Helvetica,sans-Serif" font-size="10.00">plot_impedance.h</text>
</a>
</g>
<!-- Node22&#45;&gt;Node23 -->
<g id="edge56" class="edge"><title>Node22&#45;&gt;Node23</title>
<path fill="none" stroke="midnightblue" d="M329.524,-293.633C418.392,-282.05 589.123,-259.797 671.407,-249.073"/>
<polygon fill="midnightblue" stroke="midnightblue" points="328.827,-290.194 319.363,-294.957 329.732,-297.135 328.827,-290.194"/>
</g>
<!-- Node24 -->
<g id="node53" class="node"><title>Node24</title>
<a xlink:href="../../d8/d29/plot__impedance_8cpp.html" target="_top" xlink:title="plot_impedance.cpp">
<polygon fill="white" stroke="black" points="683,-174.5 683,-195.5 787,-195.5 787,-174.5 683,-174.5"/>
<text text-anchor="middle" x="735" y="-182.5" font-family="Helvetica,sans-Serif" font-size="10.00">plot_impedance.cpp</text>
</a>
</g>
<!-- Node23&#45;&gt;Node24 -->
<g id="edge58" class="edge"><title>Node23&#45;&gt;Node24</title>
<path fill="none" stroke="midnightblue" d="M724.012,-222.488C726.678,-213.392 729.702,-203.076 731.902,-195.571"/>
<polygon fill="midnightblue" stroke="midnightblue" points="720.572,-221.781 721.118,-232.362 727.29,-223.75 720.572,-221.781"/>
</g>
<!-- Node26 -->
<g id="node58" class="node"><title>Node26</title>
<a xlink:href="../../d6/df4/Music_8cpp.html" target="_top" xlink:title="Music.cpp">
<polygon fill="white" stroke="black" points="28,-232.5 28,-253.5 90,-253.5 90,-232.5 28,-232.5"/>
<text text-anchor="middle" x="59" y="-240.5" font-family="Helvetica,sans-Serif" font-size="10.00">Music.cpp</text>
</a>
</g>
<!-- Node25&#45;&gt;Node26 -->
<g id="edge64" class="edge"><title>Node25&#45;&gt;Node26</title>
<path fill="none" stroke="midnightblue" d="M86.54,-281.959C79.869,-272.522 72.0659,-261.484 66.4724,-253.571"/>
<polygon fill="midnightblue" stroke="midnightblue" points="83.8495,-284.216 92.48,-290.362 89.5656,-280.176 83.8495,-284.216"/>
</g>
<!-- Node27&#45;&gt;Node16 -->
<g id="edge72" class="edge"><title>Node27&#45;&gt;Node16</title>
<path fill="none" stroke="midnightblue" d="M907.544,-282.081C913.54,-273.894 919.923,-263.924 924,-254 949.685,-191.472 956.062,-109.106 957.563,-79.8662"/>
<polygon fill="midnightblue" stroke="midnightblue" points="904.638,-280.118 901.317,-290.179 910.187,-284.385 904.638,-280.118"/>
</g>
<!-- Node28&#45;&gt;Node7 -->
<g id="edge78" class="edge"><title>Node28&#45;&gt;Node7</title>
<path fill="none" stroke="midnightblue" d="M754.03,-344.615C729.17,-334.389 696.328,-320.88 673.821,-311.621"/>
<polygon fill="midnightblue" stroke="midnightblue" points="752.886,-347.929 763.466,-348.497 755.549,-341.456 752.886,-347.929"/>
</g>
<!-- Node28&#45;&gt;Node8 -->
<g id="edge76" class="edge"><title>Node28&#45;&gt;Node8</title>
<path fill="none" stroke="midnightblue" d="M779.469,-339.28C774.017,-325.261 769.293,-306.135 775,-290 780.108,-275.557 791.75,-262.301 800.811,-253.576"/>
<polygon fill="midnightblue" stroke="midnightblue" points="776.257,-340.67 783.428,-348.469 782.685,-337.9 776.257,-340.67"/>
</g>
<!-- Node28&#45;&gt;Node14 -->
<g id="edge80" class="edge"><title>Node28&#45;&gt;Node14</title>
<path fill="none" stroke="midnightblue" d="M803.272,-340.238C814.397,-325.992 830.507,-306.163 846,-290 862.55,-272.733 875.168,-275.324 886,-254 905.874,-214.874 902.782,-160.299 900.361,-137.578"/>
<polygon fill="midnightblue" stroke="midnightblue" points="800.384,-338.251 797.04,-348.305 805.923,-342.531 800.384,-338.251"/>
</g>
<!-- Node28&#45;&gt;Node18 -->
<g id="edge90" class="edge"><title>Node28&#45;&gt;Node18</title>
<path fill="none" stroke="midnightblue" d="M796.923,-338.93C802.917,-324.746 811.834,-305.567 822,-290 833.545,-272.321 845.652,-273.795 853,-254 868.194,-213.072 835.261,-193.093 796,-174 760.864,-156.913 493.978,-135.809 404.293,-129.13"/>
<polygon fill="midnightblue" stroke="midnightblue" points="793.657,-337.671 793.1,-348.252 800.133,-340.328 793.657,-337.671"/>
</g>
<!-- Node28&#45;&gt;Node23 -->
<g id="edge84" class="edge"><title>Node28&#45;&gt;Node23</title>
<path fill="none" stroke="midnightblue" d="M777.034,-339.45C761.924,-314.764 736.465,-273.168 724.536,-253.679"/>
<polygon fill="midnightblue" stroke="midnightblue" points="774.242,-341.593 782.448,-348.295 780.212,-337.939 774.242,-341.593"/>
</g>
<!-- Node28&#45;&gt;Node27 -->
<g id="edge82" class="edge"><title>Node28&#45;&gt;Node27</title>
<path fill="none" stroke="midnightblue" d="M816.741,-343.379C834.638,-333.301 857.437,-320.462 873.228,-311.571"/>
<polygon fill="midnightblue" stroke="midnightblue" points="814.888,-340.405 807.892,-348.362 818.323,-346.505 814.888,-340.405"/>
</g>
<!-- Node28&#45;&gt;Node29 -->
<g id="edge86" class="edge"><title>Node28&#45;&gt;Node29</title>
<path fill="none" stroke="midnightblue" d="M825.357,-352.202C871.294,-343.49 952.726,-327.637 1022,-312 1024.77,-311.376 1027.62,-310.71 1030.49,-310.026"/>
<polygon fill="midnightblue" stroke="midnightblue" points="824.467,-348.809 815.291,-354.105 825.767,-355.687 824.467,-348.809"/>
</g>
<!-- Node30 -->
<g id="node74" class="node"><title>Node30</title>
<a xlink:href="../../d4/dfd/plot__slices_8cpp.html" target="_top" xlink:title="plot_slices.cpp">
<polygon fill="white" stroke="black" points="1025,-232.5 1025,-253.5 1107,-253.5 1107,-232.5 1025,-232.5"/>
<text text-anchor="middle" x="1066" y="-240.5" font-family="Helvetica,sans-Serif" font-size="10.00">plot_slices.cpp</text>
</a>
</g>
<!-- Node29&#45;&gt;Node30 -->
<g id="edge88" class="edge"><title>Node29&#45;&gt;Node30</title>
<path fill="none" stroke="midnightblue" d="M1066,-280.191C1066,-271.168 1066,-260.994 1066,-253.571"/>
<polygon fill="midnightblue" stroke="midnightblue" points="1062.5,-280.362 1066,-290.362 1069.5,-280.362 1062.5,-280.362"/>
</g>
<!-- Node31&#45;&gt;Node17 -->
<g id="edge100" class="edge"><title>Node31&#45;&gt;Node17</title>
<path fill="none" stroke="midnightblue" d="M1281.21,-168.915C1242.51,-144.781 1170.49,-99.8674 1137.85,-79.5117"/>
<polygon fill="midnightblue" stroke="midnightblue" points="1279.5,-171.973 1289.83,-174.295 1283.2,-166.033 1279.5,-171.973"/>
</g>
<!-- Node32&#45;&gt;Node4 -->
<g id="edge106" class="edge"><title>Node32&#45;&gt;Node4</title>
<path fill="none" stroke="midnightblue" d="M992.377,-338.784C989.375,-329.617 985.948,-319.157 983.463,-311.571"/>
<polygon fill="midnightblue" stroke="midnightblue" points="989.076,-339.948 995.515,-348.362 995.728,-337.769 989.076,-339.948"/>
</g>
<!-- Node32&#45;&gt;Node6 -->
<g id="edge108" class="edge"><title>Node32&#45;&gt;Node6</title>
<path fill="none" stroke="midnightblue" d="M1037.02,-352.786C1086.04,-344.274 1168.08,-328.193 1194,-312 1227.73,-290.924 1251,-282.777 1251,-243 1251,-243 1251,-243 1251,-127 1251,-77.2997 1208.94,-76.9599 1163,-58 1100.21,-32.0857 901.322,-18.3218 811.185,-13.2784"/>
<polygon fill="midnightblue" stroke="midnightblue" points="1036.36,-349.348 1027.09,-354.485 1037.54,-356.248 1036.36,-349.348"/>
</g>
<!-- Node33 -->
<g id="node88" class="node"><title>Node33</title>
<a xlink:href="../../de/da5/utilities_8cpp.html" target="_top" xlink:title="utilities.cpp">
<polygon fill="white" stroke="black" points="1119,-290.5 1119,-311.5 1185,-311.5 1185,-290.5 1119,-290.5"/>
<text text-anchor="middle" x="1152" y="-298.5" font-family="Helvetica,sans-Serif" font-size="10.00">utilities.cpp</text>
</a>
</g>
<!-- Node32&#45;&gt;Node33 -->
<g id="edge110" class="edge"><title>Node32&#45;&gt;Node33</title>
<path fill="none" stroke="midnightblue" d="M1036.26,-344.874C1063.41,-334.582 1099.61,-320.862 1124.24,-311.523"/>
<polygon fill="midnightblue" stroke="midnightblue" points="1034.82,-341.679 1026.71,-348.497 1037.3,-348.225 1034.82,-341.679"/>
</g>
</g>
</svg>
