<?xml version="1.0" encoding="UTF-8" standalone="no"?>
<!DOCTYPE svg PUBLIC "-//W3C//DTD SVG 1.1//EN"
 "http://www.w3.org/Graphics/SVG/1.1/DTD/svg11.dtd">
<!-- Generated by graphviz version 2.26.3 (20100126.1600)
 -->
<!-- Title: RfParameters.h Pages: 1 -->
<!--zoomable 436 -->
<svg id="main" version="1.1" xmlns="http://www.w3.org/2000/svg" xmlns:xlink="http://www.w3.org/1999/xlink" xml:space="preserve" onload="init(evt)">
        <defs>
                <circle id="rim" cx="0" cy="0" r="7"/>
                <circle id="rim2" cx="0" cy="0" r="3.5"/>
                <g id="zoomPlus">
                        <use xlink:href="#rim" fill="#404040">
                                <set attributeName="fill" to="#808080" begin="zoomplus.mouseover" end="zoomplus.mouseout"/>
                        </use>
                        <path d="M-4,0h8M0,-4v8" fill="none" stroke="white" stroke-width="1.5" pointer-events="none"/>
                </g>
                <g id="zoomMin">
                        <use xlink:href="#rim" fill="#404040">
                                <set attributeName="fill" to="#808080" begin="zoomminus.mouseover" end="zoomminus.mouseout"/>
                        </use>
                        <path d="M-4,0h8" fill="none" stroke="white" stroke-width="1.5" pointer-events="none"/>
                </g>
                <g id="dirArrow">
                        <path fill="none" stroke="white" stroke-width="1.5" d="M0,-3.0v7 M-2.5,-0.5L0,-3.0L2.5,-0.5"/>
                </g>
               <g id="resetDef">
                       <use xlink:href="#rim2" fill="#404040">
                               <set attributeName="fill" to="#808080" begin="reset.mouseover" end="reset.mouseout"/>
                       </use>
               </g>
        </defs>

<script type="text/javascript">
var viewWidth = 1580;
var viewHeight = 436;
var sectionId = 'dynsection-1';
</script>
<script xlink:href="../../svgpan.js"/>
<svg id="graph" class="graph">
<g id="viewport">
<title>RfParameters.h</title>
<polygon fill="white" stroke="white" points="-4,5 -4,-432 1577.2,-432 1577.2,5 -4,5"/>
<!-- Node1 -->
<g id="node1" class="node"><title>Node1</title>
<polygon fill="#bfbfbf" stroke="black" points="581,-406.5 581,-427.5 667,-427.5 667,-406.5 581,-406.5"/>
<text text-anchor="middle" x="624" y="-414.5" font-family="Helvetica,sans-Serif" font-size="10.00">RfParameters.h</text>
</g>
<!-- Node2 -->
<g id="node3" class="node"><title>Node2</title>
<a xlink:href="../../dc/d61/RfParameters_8cpp.html" target="_top" xlink:title="RfParameters.cpp">
<polygon fill="white" stroke="black" points="0,-348.5 0,-369.5 96,-369.5 96,-348.5 0,-348.5"/>
<text text-anchor="middle" x="48" y="-356.5" font-family="Helvetica,sans-Serif" font-size="10.00">RfParameters.cpp</text>
</a>
</g>
<!-- Node1&#45;&gt;Node2 -->
<g id="edge2" class="edge"><title>Node1&#45;&gt;Node2</title>
<path fill="none" stroke="midnightblue" d="M570.82,-413.623C477.338,-407.357 277.569,-392.485 110,-370 105.449,-369.389 100.723,-368.683 96.0012,-367.929"/>
<polygon fill="midnightblue" stroke="midnightblue" points="570.668,-417.121 580.878,-414.292 571.132,-410.136 570.668,-417.121"/>
</g>
<!-- Node3 -->
<g id="node5" class="node"><title>Node3</title>
<a xlink:href="../../d7/d74/Beams_8h.html" target="_top" xlink:title="Beams.h">
<polygon fill="white" stroke="black" points="1040,-348.5 1040,-369.5 1096,-369.5 1096,-348.5 1040,-348.5"/>
<text text-anchor="middle" x="1068" y="-356.5" font-family="Helvetica,sans-Serif" font-size="10.00">Beams.h</text>
</a>
</g>
<!-- Node1&#45;&gt;Node3 -->
<g id="edge4" class="edge"><title>Node1&#45;&gt;Node3</title>
<path fill="none" stroke="midnightblue" d="M677.108,-409.445C772,-396.643 967.222,-371.203 1039.98,-362.227"/>
<polygon fill="midnightblue" stroke="midnightblue" points="676.586,-405.984 667.145,-410.793 677.524,-412.921 676.586,-405.984"/>
</g>
<!-- Node7 -->
<g id="node13" class="node"><title>Node7</title>
<a xlink:href="../../d5/dde/blond_8h.html" target="_top" xlink:title="blond.h">
<polygon fill="white" stroke="black" points="774,-0.5 774,-21.5 822,-21.5 822,-0.5 774,-0.5"/>
<text text-anchor="middle" x="798" y="-8.5" font-family="Helvetica,sans-Serif" font-size="10.00">blond.h</text>
</a>
</g>
<!-- Node1&#45;&gt;Node7 -->
<g id="edge118" class="edge"><title>Node1&#45;&gt;Node7</title>
<path fill="none" stroke="midnightblue" d="M570.907,-415.85C442.188,-411.629 124,-391.991 124,-301 124,-301 124,-301 124,-127 124,-92.2025 131.819,-76.9567 161,-58 213.191,-24.0947 663.727,-13.5109 773.811,-11.4197"/>
<polygon fill="midnightblue" stroke="midnightblue" points="570.834,-419.35 580.938,-416.161 571.051,-412.353 570.834,-419.35"/>
</g>
<!-- Node8 -->
<g id="node16" class="node"><title>Node8</title>
<a xlink:href="../../d5/d87/globals_8h.html" target="_top" xlink:title="globals.h">
<polygon fill="white" stroke="black" points="772,-290.5 772,-311.5 828,-311.5 828,-290.5 772,-290.5"/>
<text text-anchor="middle" x="800" y="-298.5" font-family="Helvetica,sans-Serif" font-size="10.00">globals.h</text>
</a>
</g>
<!-- Node1&#45;&gt;Node8 -->
<g id="edge120" class="edge"><title>Node1&#45;&gt;Node8</title>
<path fill="none" stroke="midnightblue" d="M644.429,-400.299C678.555,-376.025 746.089,-331.696 779.969,-311.512"/>
<polygon fill="midnightblue" stroke="midnightblue" points="642.186,-397.602 636.129,-406.295 646.285,-403.277 642.186,-397.602"/>
</g>
<!-- Node15 -->
<g id="node34" class="node"><title>Node15</title>
<a xlink:href="../../d0/da6/Monitors_8h.html" target="_top" xlink:title="Monitors.h">
<polygon fill="white" stroke="black" points="312,-116.5 312,-137.5 374,-137.5 374,-116.5 312,-116.5"/>
<text text-anchor="middle" x="343" y="-124.5" font-family="Helvetica,sans-Serif" font-size="10.00">Monitors.h</text>
</a>
</g>
<!-- Node1&#45;&gt;Node15 -->
<g id="edge122" class="edge"><title>Node1&#45;&gt;Node15</title>
<path fill="none" stroke="midnightblue" d="M570.363,-413.607C456.301,-404.919 200,-376.949 200,-301 200,-301 200,-301 200,-243 200,-185.778 269.914,-151.864 311.971,-136.64"/>
<polygon fill="midnightblue" stroke="midnightblue" points="570.386,-417.118 580.617,-414.365 570.902,-410.137 570.386,-417.118"/>
</g>
<!-- Node28 -->
<g id="node73" class="node"><title>Node28</title>
<a xlink:href="../../d8/d94/plot__beams_8h.html" target="_top" xlink:title="plot_beams.h">
<polygon fill="white" stroke="black" points="227.5,-290.5 227.5,-311.5 302.5,-311.5 302.5,-290.5 227.5,-290.5"/>
<text text-anchor="middle" x="265" y="-298.5" font-family="Helvetica,sans-Serif" font-size="10.00">plot_beams.h</text>
</a>
</g>
<!-- Node1&#45;&gt;Node28 -->
<g id="edge124" class="edge"><title>Node1&#45;&gt;Node28</title>
<path fill="none" stroke="midnightblue" d="M570.847,-408.914C526.755,-401.372 462.803,-388.491 409,-370 362.072,-353.872 310.367,-326.563 283.509,-311.595"/>
<polygon fill="midnightblue" stroke="midnightblue" points="570.333,-412.376 580.775,-410.579 571.491,-405.473 570.333,-412.376"/>
</g>
<!-- Node29 -->
<g id="node77" class="node"><title>Node29</title>
<a xlink:href="../../dc/df2/Slices_8h.html" target="_top" xlink:title="Slices.h">
<polygon fill="white" stroke="black" points="418,-348.5 418,-369.5 470,-369.5 470,-348.5 418,-348.5"/>
<text text-anchor="middle" x="444" y="-356.5" font-family="Helvetica,sans-Serif" font-size="10.00">Slices.h</text>
</a>
</g>
<!-- Node1&#45;&gt;Node29 -->
<g id="edge96" class="edge"><title>Node1&#45;&gt;Node29</title>
<path fill="none" stroke="midnightblue" d="M581.593,-403.336C547.068,-392.211 499.426,-376.86 470.219,-367.448"/>
<polygon fill="midnightblue" stroke="midnightblue" points="580.812,-406.761 591.403,-406.497 582.959,-400.098 580.812,-406.761"/>
</g>
<!-- Node30 -->
<g id="node85" class="node"><title>Node30</title>
<a xlink:href="../../d2/d51/plot__slices_8h.html" target="_top" xlink:title="plot_slices.h">
<polygon fill="white" stroke="black" points="493.5,-290.5 493.5,-311.5 564.5,-311.5 564.5,-290.5 493.5,-290.5"/>
<text text-anchor="middle" x="529" y="-298.5" font-family="Helvetica,sans-Serif" font-size="10.00">plot_slices.h</text>
</a>
</g>
<!-- Node1&#45;&gt;Node30 -->
<g id="edge132" class="edge"><title>Node1&#45;&gt;Node30</title>
<path fill="none" stroke="midnightblue" d="M608.787,-398.424C588.68,-373.872 553.919,-331.427 537.746,-311.679"/>
<polygon fill="midnightblue" stroke="midnightblue" points="606.189,-400.776 615.233,-406.295 611.605,-396.341 606.189,-400.776"/>
</g>
<!-- Node32 -->
<g id="node95" class="node"><title>Node32</title>
<a xlink:href="../../d3/dda/plot__llrf_8h.html" target="_top" xlink:title="plot_llrf.h">
<polygon fill="white" stroke="black" points="1366,-116.5 1366,-137.5 1422,-137.5 1422,-116.5 1366,-116.5"/>
<text text-anchor="middle" x="1394" y="-124.5" font-family="Helvetica,sans-Serif" font-size="10.00">plot_llrf.h</text>
</a>
</g>
<!-- Node1&#45;&gt;Node32 -->
<g id="edge126" class="edge"><title>Node1&#45;&gt;Node32</title>
<path fill="none" stroke="midnightblue" d="M677.197,-414.77C853.873,-406.665 1410,-375.256 1410,-301 1410,-301 1410,-301 1410,-243 1410,-203.967 1401,-158.234 1396.5,-137.806"/>
<polygon fill="midnightblue" stroke="midnightblue" points="676.929,-411.278 667.097,-415.227 677.245,-418.271 676.929,-411.278"/>
</g>
<!-- Node33 -->
<g id="node100" class="node"><title>Node33</title>
<a xlink:href="../../de/d44/trackers_2utilities_8h.html" target="_top" xlink:title="utilities.h">
<polygon fill="white" stroke="black" points="1438,-348.5 1438,-369.5 1494,-369.5 1494,-348.5 1438,-348.5"/>
<text text-anchor="middle" x="1466" y="-356.5" font-family="Helvetica,sans-Serif" font-size="10.00">utilities.h</text>
</a>
</g>
<!-- Node1&#45;&gt;Node33 -->
<g id="edge134" class="edge"><title>Node1&#45;&gt;Node33</title>
<path fill="none" stroke="midnightblue" d="M677.313,-415.243C832.055,-409.924 1279.44,-392.947 1424,-370 1428.47,-369.291 1433.15,-368.31 1437.69,-367.224"/>
<polygon fill="midnightblue" stroke="midnightblue" points="676.992,-411.752 667.117,-415.591 677.23,-418.747 676.992,-411.752"/>
</g>
<!-- Node3&#45;&gt;Node1 -->
<g id="edge86" class="edge"><title>Node3&#45;&gt;Node1</title>
<path fill="none" stroke="midnightblue" d="M1029.98,-364.51C947.643,-375.722 753.725,-401.048 667.043,-411.904"/>
<polygon fill="midnightblue" stroke="midnightblue" points="1030.49,-367.974 1039.92,-363.151 1029.54,-361.038 1030.49,-367.974"/>
</g>
<!-- Node4 -->
<g id="node7" class="node"><title>Node4</title>
<a xlink:href="../../dc/d0f/Beams_8cpp.html" target="_top" xlink:title="Beams.cpp">
<polygon fill="white" stroke="black" points="1316,-290.5 1316,-311.5 1382,-311.5 1382,-290.5 1316,-290.5"/>
<text text-anchor="middle" x="1349" y="-298.5" font-family="Helvetica,sans-Serif" font-size="10.00">Beams.cpp</text>
</a>
</g>
<!-- Node3&#45;&gt;Node4 -->
<g id="edge6" class="edge"><title>Node3&#45;&gt;Node4</title>
<path fill="none" stroke="midnightblue" d="M1106.18,-352.245C1153.49,-343.703 1236.49,-328.151 1307,-312 1309.79,-311.361 1312.68,-310.668 1315.58,-309.954"/>
<polygon fill="midnightblue" stroke="midnightblue" points="1105.31,-348.847 1096.08,-354.06 1106.54,-355.737 1105.31,-348.847"/>
</g>
<!-- Node5 -->
<g id="node9" class="node"><title>Node5</title>
<a xlink:href="../../dc/d7d/Distributions_8h.html" target="_top" xlink:title="Distributions.h">
<polygon fill="white" stroke="black" points="1110,-58.5 1110,-79.5 1190,-79.5 1190,-58.5 1110,-58.5"/>
<text text-anchor="middle" x="1150" y="-66.5" font-family="Helvetica,sans-Serif" font-size="10.00">Distributions.h</text>
</a>
</g>
<!-- Node3&#45;&gt;Node5 -->
<g id="edge8" class="edge"><title>Node3&#45;&gt;Node5</title>
<path fill="none" stroke="midnightblue" d="M1100.14,-343.57C1133.86,-324.883 1182,-289.974 1182,-243 1182,-243 1182,-243 1182,-185 1182,-144.889 1164,-99.6945 1155,-79.6042"/>
<polygon fill="midnightblue" stroke="midnightblue" points="1098.25,-340.615 1091.07,-348.408 1101.54,-346.792 1098.25,-340.615"/>
</g>
<!-- Node3&#45;&gt;Node7 -->
<g id="edge14" class="edge"><title>Node3&#45;&gt;Node7</title>
<path fill="none" stroke="midnightblue" d="M1106,-348.292C1151.02,-333.008 1220,-300.248 1220,-243 1220,-243 1220,-243 1220,-185 1220,-127.789 1240.4,-97.4884 1199,-58 1171.58,-31.844 904.346,-16.3399 822.018,-12.1557"/>
<polygon fill="midnightblue" stroke="midnightblue" points="1104.66,-345.045 1096.23,-351.463 1106.83,-351.703 1104.66,-345.045"/>
</g>
<!-- Node3&#45;&gt;Node8 -->
<g id="edge16" class="edge"><title>Node3&#45;&gt;Node8</title>
<path fill="none" stroke="midnightblue" d="M1029.95,-351.77C975.397,-340.575 876.558,-319.181 828.103,-308.079"/>
<polygon fill="midnightblue" stroke="midnightblue" points="1029.42,-355.234 1039.92,-353.802 1030.82,-348.375 1029.42,-355.234"/>
</g>
<!-- Node3&#45;&gt;Node15 -->
<g id="edge88" class="edge"><title>Node3&#45;&gt;Node15</title>
<path fill="none" stroke="midnightblue" d="M1071.6,-338.403C1075.21,-310.265 1076.84,-260.105 1049,-232 977.421,-159.74 918.841,-230.052 823,-196 804.611,-189.467 803.553,-180.053 785,-174 708.244,-148.958 461.659,-133.452 374.158,-128.624"/>
<polygon fill="midnightblue" stroke="midnightblue" points="1068.13,-337.934 1070.11,-348.341 1075.05,-338.967 1068.13,-337.934"/>
</g>
<!-- Node23 -->
<g id="node55" class="node"><title>Node23</title>
<a xlink:href="../../d9/dee/InducedVoltage_8h.html" target="_top" xlink:title="InducedVoltage.h">
<polygon fill="white" stroke="black" points="1062,-174.5 1062,-195.5 1154,-195.5 1154,-174.5 1062,-174.5"/>
<text text-anchor="middle" x="1108" y="-182.5" font-family="Helvetica,sans-Serif" font-size="10.00">InducedVoltage.h</text>
</a>
</g>
<!-- Node3&#45;&gt;Node23 -->
<g id="edge64" class="edge"><title>Node3&#45;&gt;Node23</title>
<path fill="none" stroke="midnightblue" d="M1080.98,-339.691C1093.79,-319.377 1112.52,-285.975 1120,-254 1124.77,-233.637 1117.71,-209.489 1112.57,-195.834"/>
<polygon fill="midnightblue" stroke="midnightblue" points="1077.9,-338.004 1075.41,-348.3 1083.78,-341.808 1077.9,-338.004"/>
</g>
<!-- Node26 -->
<g id="node66" class="node"><title>Node26</title>
<a xlink:href="../../dc/d9c/Music_8h.html" target="_top" xlink:title="Music.h">
<polygon fill="white" stroke="black" points="1247.5,-290.5 1247.5,-311.5 1298.5,-311.5 1298.5,-290.5 1247.5,-290.5"/>
<text text-anchor="middle" x="1273" y="-298.5" font-family="Helvetica,sans-Serif" font-size="10.00">Music.h</text>
</a>
</g>
<!-- Node3&#45;&gt;Node26 -->
<g id="edge80" class="edge"><title>Node3&#45;&gt;Node26</title>
<path fill="none" stroke="midnightblue" d="M1105.73,-348.324C1146.85,-336.691 1211.52,-318.395 1247.2,-308.299"/>
<polygon fill="midnightblue" stroke="midnightblue" points="1104.74,-344.967 1096.07,-351.057 1106.65,-351.702 1104.74,-344.967"/>
</g>
<!-- Node3&#45;&gt;Node28 -->
<g id="edge90" class="edge"><title>Node3&#45;&gt;Node28</title>
<path fill="none" stroke="midnightblue" d="M1029.58,-356.225C893.765,-346.415 437.302,-313.445 302.676,-303.721"/>
<polygon fill="midnightblue" stroke="midnightblue" points="1029.67,-359.74 1039.89,-356.97 1030.17,-352.758 1029.67,-359.74"/>
</g>
<!-- Node6 -->
<g id="node11" class="node"><title>Node6</title>
<a xlink:href="../../db/de1/Distributions_8cpp.html" target="_top" xlink:title="Distributions.cpp">
<polygon fill="white" stroke="black" points="1317,-0.5 1317,-21.5 1407,-21.5 1407,-0.5 1317,-0.5"/>
<text text-anchor="middle" x="1362" y="-8.5" font-family="Helvetica,sans-Serif" font-size="10.00">Distributions.cpp</text>
</a>
</g>
<!-- Node5&#45;&gt;Node6 -->
<g id="edge10" class="edge"><title>Node5&#45;&gt;Node6</title>
<path fill="none" stroke="midnightblue" d="M1198.2,-55.8123C1236.16,-45.4285 1288.35,-31.1487 1323.54,-21.5231"/>
<polygon fill="midnightblue" stroke="midnightblue" points="1197.11,-52.4818 1188.39,-58.4966 1198.96,-59.2336 1197.11,-52.4818"/>
</g>
<!-- Node5&#45;&gt;Node7 -->
<g id="edge12" class="edge"><title>Node5&#45;&gt;Node7</title>
<path fill="none" stroke="midnightblue" d="M1099.86,-58.7065C1098.56,-58.4655 1097.27,-58.2296 1096,-58 994.463,-39.6605 872.729,-21.7143 822.01,-14.4163"/>
<polygon fill="midnightblue" stroke="midnightblue" points="1099.45,-62.193 1109.93,-60.6317 1100.77,-55.3174 1099.45,-62.193"/>
</g>
<!-- Node8&#45;&gt;Node1 -->
<g id="edge30" class="edge"><title>Node8&#45;&gt;Node1</title>
<path fill="none" stroke="midnightblue" d="M779.637,-317.653C745.641,-341.84 678.362,-386.009 644.355,-406.295"/>
<polygon fill="midnightblue" stroke="midnightblue" points="781.85,-320.373 787.906,-311.679 777.751,-314.698 781.85,-320.373"/>
</g>
<!-- Node8&#45;&gt;Node3 -->
<g id="edge26" class="edge"><title>Node8&#45;&gt;Node3</title>
<path fill="none" stroke="midnightblue" d="M838.059,-308.232C892.556,-319.416 991.247,-340.777 1039.75,-351.888"/>
<polygon fill="midnightblue" stroke="midnightblue" points="838.596,-304.769 828.098,-306.201 837.198,-311.628 838.596,-304.769"/>
</g>
<!-- Node8&#45;&gt;Node7 -->
<g id="edge28" class="edge"><title>Node8&#45;&gt;Node7</title>
<path fill="none" stroke="midnightblue" d="M770.143,-285.436C754.477,-276.837 735.222,-265.572 719,-254 686.937,-231.127 677.184,-226.282 652,-196 632.894,-173.026 625.829,-166.837 618,-138 615.438,-128.564 617.747,-125.775 618,-116 618.667,-90.1964 604.74,-78.0471 621,-58 640.227,-34.2948 730.176,-19.7099 773.949,-13.899"/>
<polygon fill="midnightblue" stroke="midnightblue" points="768.913,-288.749 779.374,-290.424 772.241,-282.591 768.913,-288.749"/>
</g>
<!-- Node9 -->
<g id="node18" class="node"><title>Node9</title>
<a xlink:href="../../d7/d91/Slices_8cpp.html" target="_top" xlink:title="Slices.cpp">
<polygon fill="white" stroke="black" points="610,-232.5 610,-253.5 672,-253.5 672,-232.5 610,-232.5"/>
<text text-anchor="middle" x="641" y="-240.5" font-family="Helvetica,sans-Serif" font-size="10.00">Slices.cpp</text>
</a>
</g>
<!-- Node8&#45;&gt;Node9 -->
<g id="edge18" class="edge"><title>Node8&#45;&gt;Node9</title>
<path fill="none" stroke="midnightblue" d="M762.37,-287.273C734.041,-276.94 695.787,-262.985 669.853,-253.525"/>
<polygon fill="midnightblue" stroke="midnightblue" points="761.346,-290.625 771.94,-290.764 763.745,-284.049 761.346,-290.625"/>
</g>
<!-- Node10 -->
<g id="node20" class="node"><title>Node10</title>
<a xlink:href="../../da/d77/globals_8cpp.html" target="_top" xlink:title="globals.cpp">
<polygon fill="white" stroke="black" points="974,-232.5 974,-253.5 1040,-253.5 1040,-232.5 974,-232.5"/>
<text text-anchor="middle" x="1007" y="-240.5" font-family="Helvetica,sans-Serif" font-size="10.00">globals.cpp</text>
</a>
</g>
<!-- Node8&#45;&gt;Node10 -->
<g id="edge20" class="edge"><title>Node8&#45;&gt;Node10</title>
<path fill="none" stroke="midnightblue" d="M838.255,-290.281C877.183,-279.374 936.902,-262.641 973.87,-252.283"/>
<polygon fill="midnightblue" stroke="midnightblue" points="837.033,-286.989 828.348,-293.057 838.922,-293.729 837.033,-286.989"/>
</g>
<!-- Node11 -->
<g id="node22" class="node"><title>Node11</title>
<a xlink:href="../../d5/dfa/InducedVoltage_8cpp.html" target="_top" xlink:title="InducedVoltage.cpp">
<polygon fill="white" stroke="black" points="975.5,-116.5 975.5,-137.5 1078.5,-137.5 1078.5,-116.5 975.5,-116.5"/>
<text text-anchor="middle" x="1027" y="-124.5" font-family="Helvetica,sans-Serif" font-size="10.00">InducedVoltage.cpp</text>
</a>
</g>
<!-- Node8&#45;&gt;Node11 -->
<g id="edge22" class="edge"><title>Node8&#45;&gt;Node11</title>
<path fill="none" stroke="midnightblue" d="M838.621,-299.508C901.765,-296.169 1022.73,-285.697 1049,-254 1063.71,-236.255 1040.5,-164.833 1030.87,-137.611"/>
<polygon fill="midnightblue" stroke="midnightblue" points="838.088,-296.03 828.272,-300.019 838.433,-303.022 838.088,-296.03"/>
</g>
<!-- Node12 -->
<g id="node24" class="node"><title>Node12</title>
<a xlink:href="../../d3/db7/LHCNoiseFB_8cpp.html" target="_top" xlink:title="LHCNoiseFB.cpp">
<polygon fill="white" stroke="black" points="862,-232.5 862,-253.5 956,-253.5 956,-232.5 862,-232.5"/>
<text text-anchor="middle" x="909" y="-240.5" font-family="Helvetica,sans-Serif" font-size="10.00">LHCNoiseFB.cpp</text>
</a>
</g>
<!-- Node8&#45;&gt;Node12 -->
<g id="edge24" class="edge"><title>Node8&#45;&gt;Node12</title>
<path fill="none" stroke="midnightblue" d="M828.577,-285.794C847.594,-275.675 872.102,-262.634 889.039,-253.621"/>
<polygon fill="midnightblue" stroke="midnightblue" points="826.923,-282.709 819.739,-290.497 830.211,-288.889 826.923,-282.709"/>
</g>
<!-- Node13 -->
<g id="node29" class="node"><title>Node13</title>
<a xlink:href="../../d3/d33/PhaseLoop_8h.html" target="_top" xlink:title="PhaseLoop.h">
<polygon fill="white" stroke="black" points="832,-174.5 832,-195.5 906,-195.5 906,-174.5 832,-174.5"/>
<text text-anchor="middle" x="869" y="-182.5" font-family="Helvetica,sans-Serif" font-size="10.00">PhaseLoop.h</text>
</a>
</g>
<!-- Node8&#45;&gt;Node13 -->
<g id="edge32" class="edge"><title>Node8&#45;&gt;Node13</title>
<path fill="none" stroke="midnightblue" d="M811.629,-281.45C826.313,-256.764 851.055,-215.168 862.648,-195.679"/>
<polygon fill="midnightblue" stroke="midnightblue" points="808.472,-279.911 806.368,-290.295 814.488,-283.49 808.472,-279.911"/>
</g>
<!-- Node21 -->
<g id="node49" class="node"><title>Node21</title>
<a xlink:href="../../d9/dc8/PhaseNoise_8h.html" target="_top" xlink:title="PhaseNoise.h">
<polygon fill="white" stroke="black" points="728,-232.5 728,-253.5 806,-253.5 806,-232.5 728,-232.5"/>
<text text-anchor="middle" x="767" y="-240.5" font-family="Helvetica,sans-Serif" font-size="10.00">PhaseNoise.h</text>
</a>
</g>
<!-- Node8&#45;&gt;Node21 -->
<g id="edge56" class="edge"><title>Node8&#45;&gt;Node21</title>
<path fill="none" stroke="midnightblue" d="M789,-281.667C783.668,-272.295 777.47,-261.402 773.014,-253.571"/>
<polygon fill="midnightblue" stroke="midnightblue" points="785.96,-283.401 793.947,-290.362 792.044,-279.939 785.96,-283.401"/>
</g>
<!-- Node13&#45;&gt;Node7 -->
<g id="edge36" class="edge"><title>Node13&#45;&gt;Node7</title>
<path fill="none" stroke="midnightblue" d="M826.067,-170.035C811.671,-162.728 797.204,-152.336 789,-138 777.746,-118.336 790.287,-48.7263 795.731,-21.7716"/>
<polygon fill="midnightblue" stroke="midnightblue" points="824.908,-173.356 835.451,-174.403 827.862,-167.01 824.908,-173.356"/>
</g>
<!-- Node14 -->
<g id="node31" class="node"><title>Node14</title>
<a xlink:href="../../db/dee/PhaseLoop_8cpp.html" target="_top" xlink:title="PhaseLoop.cpp">
<polygon fill="white" stroke="black" points="874,-116.5 874,-137.5 958,-137.5 958,-116.5 874,-116.5"/>
<text text-anchor="middle" x="916" y="-124.5" font-family="Helvetica,sans-Serif" font-size="10.00">PhaseLoop.cpp</text>
</a>
</g>
<!-- Node13&#45;&gt;Node14 -->
<g id="edge34" class="edge"><title>Node13&#45;&gt;Node14</title>
<path fill="none" stroke="midnightblue" d="M883.958,-166.541C891.707,-156.979 900.89,-145.647 907.434,-137.571"/>
<polygon fill="midnightblue" stroke="midnightblue" points="881.197,-164.389 877.621,-174.362 886.636,-168.796 881.197,-164.389"/>
</g>
<!-- Node13&#45;&gt;Node15 -->
<g id="edge38" class="edge"><title>Node13&#45;&gt;Node15</title>
<path fill="none" stroke="midnightblue" d="M821.817,-174.625C820.532,-174.406 819.258,-174.197 818,-174 651.808,-147.942 450.507,-133.657 374.278,-128.859"/>
<polygon fill="midnightblue" stroke="midnightblue" points="821.299,-178.088 831.768,-176.458 822.568,-171.204 821.299,-178.088"/>
</g>
<!-- Node19 -->
<g id="node43" class="node"><title>Node19</title>
<a xlink:href="../../d2/d0e/Tracker_8h.html" target="_top" xlink:title="Tracker.h">
<polygon fill="white" stroke="black" points="798,-116.5 798,-137.5 856,-137.5 856,-116.5 798,-116.5"/>
<text text-anchor="middle" x="827" y="-124.5" font-family="Helvetica,sans-Serif" font-size="10.00">Tracker.h</text>
</a>
</g>
<!-- Node13&#45;&gt;Node19 -->
<g id="edge48" class="edge"><title>Node13&#45;&gt;Node19</title>
<path fill="none" stroke="midnightblue" d="M855.423,-166.25C848.543,-156.75 840.444,-145.565 834.655,-137.571"/>
<polygon fill="midnightblue" stroke="midnightblue" points="852.597,-168.315 861.297,-174.362 858.266,-164.21 852.597,-168.315"/>
</g>
<!-- Node15&#45;&gt;Node7 -->
<g id="edge46" class="edge"><title>Node15&#45;&gt;Node7</title>
<path fill="none" stroke="midnightblue" d="M328.593,-107.641C319.159,-92.4365 310.657,-71.6251 323,-58 353.566,-24.2609 681.659,-13.8131 773.963,-11.5308"/>
<polygon fill="midnightblue" stroke="midnightblue" points="325.918,-109.934 334.41,-116.269 331.722,-106.021 325.918,-109.934"/>
</g>
<!-- Node16 -->
<g id="node36" class="node"><title>Node16</title>
<a xlink:href="../../da/dda/Monitors_8cpp.html" target="_top" xlink:title="Monitors.cpp">
<polygon fill="white" stroke="black" points="331.5,-58.5 331.5,-79.5 404.5,-79.5 404.5,-58.5 331.5,-58.5"/>
<text text-anchor="middle" x="368" y="-66.5" font-family="Helvetica,sans-Serif" font-size="10.00">Monitors.cpp</text>
</a>
</g>
<!-- Node15&#45;&gt;Node16 -->
<g id="edge40" class="edge"><title>Node15&#45;&gt;Node16</title>
<path fill="none" stroke="midnightblue" d="M351.587,-107.079C355.568,-97.8422 360.138,-87.2388 363.444,-79.5707"/>
<polygon fill="midnightblue" stroke="midnightblue" points="348.33,-105.793 347.585,-116.362 354.758,-108.564 348.33,-105.793"/>
</g>
<!-- Node17 -->
<g id="node38" class="node"><title>Node17</title>
<a xlink:href="../../d3/d2c/plot__beams_8cpp.html" target="_top" xlink:title="plot_beams.cpp">
<polygon fill="white" stroke="black" points="190,-58.5 190,-79.5 276,-79.5 276,-58.5 190,-58.5"/>
<text text-anchor="middle" x="233" y="-66.5" font-family="Helvetica,sans-Serif" font-size="10.00">plot_beams.cpp</text>
</a>
</g>
<!-- Node15&#45;&gt;Node17 -->
<g id="edge42" class="edge"><title>Node15&#45;&gt;Node17</title>
<path fill="none" stroke="midnightblue" d="M314.161,-111.794C294.969,-101.675 270.236,-88.6338 253.144,-79.6212"/>
<polygon fill="midnightblue" stroke="midnightblue" points="312.602,-114.928 323.08,-116.497 315.867,-108.736 312.602,-114.928"/>
</g>
<!-- Node18 -->
<g id="node40" class="node"><title>Node18</title>
<a xlink:href="../../d3/dca/plot__llrf_8cpp.html" target="_top" xlink:title="plot_llrf.cpp">
<polygon fill="white" stroke="black" points="1245.5,-58.5 1245.5,-79.5 1312.5,-79.5 1312.5,-58.5 1245.5,-58.5"/>
<text text-anchor="middle" x="1279" y="-66.5" font-family="Helvetica,sans-Serif" font-size="10.00">plot_llrf.cpp</text>
</a>
</g>
<!-- Node15&#45;&gt;Node18 -->
<g id="edge44" class="edge"><title>Node15&#45;&gt;Node18</title>
<path fill="none" stroke="midnightblue" d="M384.266,-125.183C532.511,-118.587 1037.86,-95.4759 1199,-80 1214.21,-78.5391 1230.97,-76.328 1245.21,-74.2705"/>
<polygon fill="midnightblue" stroke="midnightblue" points="384.054,-121.689 374.219,-125.629 384.365,-128.682 384.054,-121.689"/>
</g>
<!-- Node19&#45;&gt;Node5 -->
<g id="edge52" class="edge"><title>Node19&#45;&gt;Node5</title>
<path fill="none" stroke="midnightblue" d="M866.131,-115.928C958.296,-95.4471 1055.99,-81.2695 1109.59,-74.1293"/>
<polygon fill="midnightblue" stroke="midnightblue" points="865.356,-112.515 856.369,-118.126 866.894,-119.344 865.356,-112.515"/>
</g>
<!-- Node19&#45;&gt;Node7 -->
<g id="edge54" class="edge"><title>Node19&#45;&gt;Node7</title>
<path fill="none" stroke="midnightblue" d="M865.583,-112.756C888.911,-103.273 915.388,-90.6481 922,-80 927.158,-71.6934 927.555,-66.0464 922,-58 910.326,-41.0909 854.646,-24.9117 822.003,-16.6653"/>
<polygon fill="midnightblue" stroke="midnightblue" points="864.187,-109.544 856.181,-116.483 866.767,-116.051 864.187,-109.544"/>
</g>
<!-- Node20 -->
<g id="node45" class="node"><title>Node20</title>
<a xlink:href="../../d2/d6f/Tracker_8cpp.html" target="_top" xlink:title="Tracker.cpp">
<polygon fill="white" stroke="black" points="845,-58.5 845,-79.5 913,-79.5 913,-58.5 845,-58.5"/>
<text text-anchor="middle" x="879" y="-66.5" font-family="Helvetica,sans-Serif" font-size="10.00">Tracker.cpp</text>
</a>
</g>
<!-- Node19&#45;&gt;Node20 -->
<g id="edge50" class="edge"><title>Node19&#45;&gt;Node20</title>
<path fill="none" stroke="midnightblue" d="M843.29,-108.83C851.917,-99.2078 862.209,-87.7282 869.523,-79.5707"/>
<polygon fill="midnightblue" stroke="midnightblue" points="840.607,-106.58 836.538,-116.362 845.819,-111.253 840.607,-106.58"/>
</g>
<!-- Node21&#45;&gt;Node7 -->
<g id="edge60" class="edge"><title>Node21&#45;&gt;Node7</title>
<path fill="none" stroke="midnightblue" d="M729.49,-228.066C712.792,-220.2 693.639,-209.385 679,-196 631.779,-152.825 599.659,-109.223 638,-58 654.351,-36.1549 733.371,-20.9977 773.905,-14.5234"/>
<polygon fill="midnightblue" stroke="midnightblue" points="728.431,-231.428 738.985,-232.354 731.312,-225.048 728.431,-231.428"/>
</g>
<!-- Node21&#45;&gt;Node13 -->
<g id="edge62" class="edge"><title>Node21&#45;&gt;Node13</title>
<path fill="none" stroke="midnightblue" d="M794.471,-227.379C812.195,-217.301 834.773,-204.462 850.41,-195.571"/>
<polygon fill="midnightblue" stroke="midnightblue" points="792.671,-224.376 785.708,-232.362 796.131,-230.461 792.671,-224.376"/>
</g>
<!-- Node22 -->
<g id="node51" class="node"><title>Node22</title>
<a xlink:href="../../db/d82/PhaseNoise_8cpp.html" target="_top" xlink:title="PhaseNoise.cpp">
<polygon fill="white" stroke="black" points="687.5,-174.5 687.5,-195.5 776.5,-195.5 776.5,-174.5 687.5,-174.5"/>
<text text-anchor="middle" x="732" y="-182.5" font-family="Helvetica,sans-Serif" font-size="10.00">PhaseNoise.cpp</text>
</a>
</g>
<!-- Node21&#45;&gt;Node22 -->
<g id="edge58" class="edge"><title>Node21&#45;&gt;Node22</title>
<path fill="none" stroke="midnightblue" d="M755.333,-223.667C749.678,-214.295 743.105,-203.402 738.379,-195.571"/>
<polygon fill="midnightblue" stroke="midnightblue" points="752.417,-225.608 760.58,-232.362 758.41,-221.992 752.417,-225.608"/>
</g>
<!-- Node23&#45;&gt;Node5 -->
<g id="edge68" class="edge"><title>Node23&#45;&gt;Node5</title>
<path fill="none" stroke="midnightblue" d="M1115.32,-164.79C1124.28,-140.029 1139.14,-98.996 1146.13,-79.6792"/>
<polygon fill="midnightblue" stroke="midnightblue" points="1111.99,-163.701 1111.88,-174.295 1118.57,-166.084 1111.99,-163.701"/>
</g>
<!-- Node23&#45;&gt;Node7 -->
<g id="edge70" class="edge"><title>Node23&#45;&gt;Node7</title>
<path fill="none" stroke="midnightblue" d="M1106.46,-164.287C1104.32,-149.188 1099.19,-129.153 1087,-116 1014.06,-37.3088 877.497,-17.458 822.186,-12.5606"/>
<polygon fill="midnightblue" stroke="midnightblue" points="1102.99,-164.682 1107.56,-174.239 1109.94,-163.916 1102.99,-164.682"/>
</g>
<!-- Node23&#45;&gt;Node11 -->
<g id="edge66" class="edge"><title>Node23&#45;&gt;Node11</title>
<path fill="none" stroke="midnightblue" d="M1084.62,-168.259C1070.8,-158.364 1053.72,-146.136 1041.76,-137.571"/>
<polygon fill="midnightblue" stroke="midnightblue" points="1082.98,-171.386 1093.14,-174.362 1087.05,-165.694 1082.98,-171.386"/>
</g>
<!-- Node23&#45;&gt;Node19 -->
<g id="edge78" class="edge"><title>Node23&#45;&gt;Node19</title>
<path fill="none" stroke="midnightblue" d="M1051.74,-175.61C1002.28,-167.003 928.508,-153.3 865,-138 862.196,-137.324 859.289,-136.574 856.388,-135.793"/>
<polygon fill="midnightblue" stroke="midnightblue" points="1051.15,-179.061 1061.6,-177.316 1052.34,-172.163 1051.15,-179.061"/>
</g>
<!-- Node24 -->
<g id="node60" class="node"><title>Node24</title>
<a xlink:href="../../da/d77/plot__impedance_8h.html" target="_top" xlink:title="plot_impedance.h">
<polygon fill="white" stroke="black" points="649.5,-116.5 649.5,-137.5 742.5,-137.5 742.5,-116.5 649.5,-116.5"/>
<text text-anchor="middle" x="696" y="-124.5" font-family="Helvetica,sans-Serif" font-size="10.00">plot_impedance.h</text>
</a>
</g>
<!-- Node23&#45;&gt;Node24 -->
<g id="edge72" class="edge"><title>Node23&#45;&gt;Node24</title>
<path fill="none" stroke="midnightblue" d="M1051.81,-177.09C969.837,-165.55 818.954,-144.309 742.712,-133.576"/>
<polygon fill="midnightblue" stroke="midnightblue" points="1051.55,-180.587 1061.94,-178.515 1052.52,-173.656 1051.55,-180.587"/>
</g>
<!-- Node24&#45;&gt;Node7 -->
<g id="edge76" class="edge"><title>Node24&#45;&gt;Node7</title>
<path fill="none" stroke="midnightblue" d="M723.062,-110.961C735.352,-102.772 749.462,-92.0052 760,-80 775.878,-61.9108 787.885,-36.081 793.838,-21.7038"/>
<polygon fill="midnightblue" stroke="midnightblue" points="721.036,-108.103 714.512,-116.45 724.818,-113.993 721.036,-108.103"/>
</g>
<!-- Node25 -->
<g id="node62" class="node"><title>Node25</title>
<a xlink:href="../../d8/d29/plot__impedance_8cpp.html" target="_top" xlink:title="plot_impedance.cpp">
<polygon fill="white" stroke="black" points="647,-58.5 647,-79.5 751,-79.5 751,-58.5 647,-58.5"/>
<text text-anchor="middle" x="699" y="-66.5" font-family="Helvetica,sans-Serif" font-size="10.00">plot_impedance.cpp</text>
</a>
</g>
<!-- Node24&#45;&gt;Node25 -->
<g id="edge74" class="edge"><title>Node24&#45;&gt;Node25</title>
<path fill="none" stroke="midnightblue" d="M697.076,-106.191C697.543,-97.1684 698.069,-86.9941 698.453,-79.5707"/>
<polygon fill="midnightblue" stroke="midnightblue" points="693.572,-106.194 696.55,-116.362 700.562,-106.556 693.572,-106.194"/>
</g>
<!-- Node26&#45;&gt;Node7 -->
<g id="edge84" class="edge"><title>Node26&#45;&gt;Node7</title>
<path fill="none" stroke="midnightblue" d="M1296.44,-283.616C1305.23,-275.67 1314.25,-265.466 1319,-254 1352.37,-173.528 1379.78,-122.298 1321,-58 1286.94,-20.7403 920.286,-12.7717 822.08,-11.3006"/>
<polygon fill="midnightblue" stroke="midnightblue" points="1293.95,-281.135 1288.55,-290.25 1298.45,-286.493 1293.95,-281.135"/>
</g>
<!-- Node27 -->
<g id="node68" class="node"><title>Node27</title>
<a xlink:href="../../d6/df4/Music_8cpp.html" target="_top" xlink:title="Music.cpp">
<polygon fill="white" stroke="black" points="1248,-232.5 1248,-253.5 1310,-253.5 1310,-232.5 1248,-232.5"/>
<text text-anchor="middle" x="1279" y="-240.5" font-family="Helvetica,sans-Serif" font-size="10.00">Music.cpp</text>
</a>
</g>
<!-- Node26&#45;&gt;Node27 -->
<g id="edge82" class="edge"><title>Node26&#45;&gt;Node27</title>
<path fill="none" stroke="midnightblue" d="M1275.15,-280.191C1276.09,-271.168 1277.14,-260.994 1277.91,-253.571"/>
<polygon fill="midnightblue" stroke="midnightblue" points="1271.65,-280.055 1274.1,-290.362 1278.61,-280.775 1271.65,-280.055"/>
</g>
<!-- Node28&#45;&gt;Node7 -->
<g id="edge94" class="edge"><title>Node28&#45;&gt;Node7</title>
<path fill="none" stroke="midnightblue" d="M236.565,-285.158C206.078,-265.837 162,-230.103 162,-185 162,-185 162,-185 162,-127 162,-95.1919 156.449,-78.224 181,-58 227.434,-19.7496 664.999,-12.453 773.665,-11.2265"/>
<polygon fill="midnightblue" stroke="midnightblue" points="234.782,-288.17 245.141,-290.394 238.429,-282.196 234.782,-288.17"/>
</g>
<!-- Node28&#45;&gt;Node17 -->
<g id="edge92" class="edge"><title>Node28&#45;&gt;Node17</title>
<path fill="none" stroke="midnightblue" d="M262.15,-280.335C255.552,-232.5 239.415,-115.508 234.467,-79.6335"/>
<polygon fill="midnightblue" stroke="midnightblue" points="258.708,-281.001 263.542,-290.429 265.643,-280.044 258.708,-281.001"/>
</g>
<!-- Node29&#45;&gt;Node7 -->
<g id="edge100" class="edge"><title>Node29&#45;&gt;Node7</title>
<path fill="none" stroke="midnightblue" d="M430.638,-340.038C425.63,-331.82 420.54,-321.84 418,-312 414.265,-297.534 410.655,-252.072 419,-232 460.388,-132.455 493.917,-110.636 588,-58 648.971,-23.8894 732.92,-14.5338 773.744,-11.9685"/>
<polygon fill="midnightblue" stroke="midnightblue" points="427.732,-341.989 436.117,-348.465 433.6,-338.173 427.732,-341.989"/>
</g>
<!-- Node29&#45;&gt;Node8 -->
<g id="edge102" class="edge"><title>Node29&#45;&gt;Node8</title>
<path fill="none" stroke="midnightblue" d="M480.447,-353.062C551.65,-341.461 707.848,-316.014 771.826,-305.59"/>
<polygon fill="midnightblue" stroke="midnightblue" points="479.485,-349.673 470.178,-354.735 480.61,-356.581 479.485,-349.673"/>
</g>
<!-- Node29&#45;&gt;Node9 -->
<g id="edge98" class="edge"><title>Node29&#45;&gt;Node9</title>
<path fill="none" stroke="midnightblue" d="M479.835,-350.551C506.868,-343.12 544.104,-330.564 573,-312 598.329,-295.728 621.483,-268.477 633.119,-253.555"/>
<polygon fill="midnightblue" stroke="midnightblue" points="478.785,-347.208 470.013,-353.149 480.576,-353.975 478.785,-347.208"/>
</g>
<!-- Node29&#45;&gt;Node15 -->
<g id="edge104" class="edge"><title>Node29&#45;&gt;Node15</title>
<path fill="none" stroke="midnightblue" d="M408.341,-349.759C388.873,-342.75 366.291,-330.989 354,-312 317.46,-255.549 333.251,-167.966 340.281,-137.709"/>
<polygon fill="midnightblue" stroke="midnightblue" points="407.284,-353.095 417.877,-352.916 409.484,-346.45 407.284,-353.095"/>
</g>
<!-- Node29&#45;&gt;Node19 -->
<g id="edge116" class="edge"><title>Node29&#45;&gt;Node19</title>
<path fill="none" stroke="midnightblue" d="M440.822,-338.089C437.862,-310.355 437.182,-261.482 463,-232 508.01,-180.602 719.686,-143.476 797.879,-131.306"/>
<polygon fill="midnightblue" stroke="midnightblue" points="437.38,-338.764 442.113,-348.243 444.324,-337.881 437.38,-338.764"/>
</g>
<!-- Node29&#45;&gt;Node24 -->
<g id="edge108" class="edge"><title>Node29&#45;&gt;Node24</title>
<path fill="none" stroke="midnightblue" d="M434.848,-338.926C424.296,-312.551 410.72,-265.641 430,-232 455.357,-187.756 482.073,-193.959 529,-174 568.219,-157.319 615.104,-144.719 649.198,-136.785"/>
<polygon fill="midnightblue" stroke="midnightblue" points="431.681,-340.424 438.807,-348.265 438.126,-337.692 431.681,-340.424"/>
</g>
<!-- Node29&#45;&gt;Node28 -->
<g id="edge106" class="edge"><title>Node29&#45;&gt;Node28</title>
<path fill="none" stroke="midnightblue" d="M408.45,-347.481C376.105,-337 328.763,-321.661 297.431,-311.508"/>
<polygon fill="midnightblue" stroke="midnightblue" points="407.38,-350.813 417.972,-350.566 409.538,-344.154 407.38,-350.813"/>
</g>
<!-- Node29&#45;&gt;Node30 -->
<g id="edge110" class="edge"><title>Node29&#45;&gt;Node30</title>
<path fill="none" stroke="midnightblue" d="M468.121,-342.541C482.694,-332.597 500.836,-320.218 513.509,-311.571"/>
<polygon fill="midnightblue" stroke="midnightblue" points="465.878,-339.834 459.59,-348.362 469.823,-345.617 465.878,-339.834"/>
</g>
<!-- Node30&#45;&gt;Node7 -->
<g id="edge114" class="edge"><title>Node30&#45;&gt;Node7</title>
<path fill="none" stroke="midnightblue" d="M545.099,-282.373C551.493,-274.143 558.405,-264.063 563,-254 600.17,-172.608 546.149,-121.687 609,-58 631.978,-34.7161 728.2,-19.7787 773.814,-13.8729"/>
<polygon fill="midnightblue" stroke="midnightblue" points="542.329,-280.233 538.742,-290.202 547.763,-284.645 542.329,-280.233"/>
</g>
<!-- Node31 -->
<g id="node87" class="node"><title>Node31</title>
<a xlink:href="../../d4/dfd/plot__slices_8cpp.html" target="_top" xlink:title="plot_slices.cpp">
<polygon fill="white" stroke="black" points="472,-232.5 472,-253.5 554,-253.5 554,-232.5 472,-232.5"/>
<text text-anchor="middle" x="513" y="-240.5" font-family="Helvetica,sans-Serif" font-size="10.00">plot_slices.cpp</text>
</a>
</g>
<!-- Node30&#45;&gt;Node31 -->
<g id="edge112" class="edge"><title>Node30&#45;&gt;Node31</title>
<path fill="none" stroke="midnightblue" d="M523.341,-280.488C520.832,-271.392 517.986,-261.076 515.916,-253.571"/>
<polygon fill="midnightblue" stroke="midnightblue" points="520.032,-281.653 526.065,-290.362 526.78,-279.791 520.032,-281.653"/>
</g>
<!-- Node32&#45;&gt;Node7 -->
<g id="edge130" class="edge"><title>Node32&#45;&gt;Node7</title>
<path fill="none" stroke="midnightblue" d="M1388.05,-106.798C1382.16,-90.6927 1371.46,-69.0662 1354,-58 1308.54,-29.1869 922.951,-14.9785 822.072,-11.7329"/>
<polygon fill="midnightblue" stroke="midnightblue" points="1384.77,-108.032 1391.24,-116.418 1391.41,-105.825 1384.77,-108.032"/>
</g>
<!-- Node32&#45;&gt;Node18 -->
<g id="edge128" class="edge"><title>Node32&#45;&gt;Node18</title>
<path fill="none" stroke="midnightblue" d="M1364.12,-111.932C1344.02,-101.793 1318.01,-88.6748 1300.06,-79.6212"/>
<polygon fill="midnightblue" stroke="midnightblue" points="1362.67,-115.118 1373.17,-116.497 1365.82,-108.868 1362.67,-115.118"/>
</g>
<!-- Node33&#45;&gt;Node4 -->
<g id="edge136" class="edge"><title>Node33&#45;&gt;Node4</title>
<path fill="none" stroke="midnightblue" d="M1435.6,-343.932C1415.15,-333.793 1388.69,-320.675 1370.43,-311.621"/>
<polygon fill="midnightblue" stroke="midnightblue" points="1434.3,-347.191 1444.81,-348.497 1437.41,-340.919 1434.3,-347.191"/>
</g>
<!-- Node33&#45;&gt;Node6 -->
<g id="edge138" class="edge"><title>Node33&#45;&gt;Node6</title>
<path fill="none" stroke="midnightblue" d="M1503.54,-346.595C1520.88,-339.1 1540.37,-327.869 1553,-312 1572.8,-287.11 1572,-274.808 1572,-243 1572,-243 1572,-243 1572,-127 1572,-52.2369 1468.76,-25.2869 1407.05,-15.8563"/>
<polygon fill="midnightblue" stroke="midnightblue" points="1502.14,-343.384 1494.18,-350.38 1504.77,-349.873 1502.14,-343.384"/>
</g>
<!-- Node33&#45;&gt;Node7 -->
<g id="edge142" class="edge"><title>Node33&#45;&gt;Node7</title>
<path fill="none" stroke="midnightblue" d="M1461.37,-338.164C1456.65,-315.036 1450,-276.544 1450,-243 1450,-243 1450,-243 1450,-127 1450,-82.6779 1418.42,-76.1735 1378,-58 1326.69,-34.9323 925.551,-16.4239 822.215,-12.0052"/>
<polygon fill="midnightblue" stroke="midnightblue" points="1458,-339.138 1463.5,-348.194 1464.85,-337.685 1458,-339.138"/>
</g>
<!-- Node34 -->
<g id="node104" class="node"><title>Node34</title>
<a xlink:href="../../de/da5/utilities_8cpp.html" target="_top" xlink:title="utilities.cpp">
<polygon fill="white" stroke="black" points="1478,-290.5 1478,-311.5 1544,-311.5 1544,-290.5 1478,-290.5"/>
<text text-anchor="middle" x="1511" y="-298.5" font-family="Helvetica,sans-Serif" font-size="10.00">utilities.cpp</text>
</a>
</g>
<!-- Node33&#45;&gt;Node34 -->
<g id="edge140" class="edge"><title>Node33&#45;&gt;Node34</title>
<path fill="none" stroke="midnightblue" d="M1480.55,-340.25C1487.92,-330.75 1496.6,-319.565 1502.8,-311.571"/>
<polygon fill="midnightblue" stroke="midnightblue" points="1477.62,-338.316 1474.25,-348.362 1483.15,-342.607 1477.62,-338.316"/>
</g>
</g>
</svg>
        <g id="navigator" transform="translate(0 0)" fill="#404254">
                <rect fill="#f2f5e9" fill-opacity="0.5" stroke="#606060" stroke-width=".5" x="0" y="0" width="60" height="60"/>
                <use id="zoomplus" xlink:href="#zoomPlus" x="17" y="9" onmousedown="handleZoom(evt,'in')"/>
                <use id="zoomminus" xlink:href="#zoomMin" x="42" y="9" onmousedown="handleZoom(evt,'out')"/>
                <use id="reset" xlink:href="#resetDef" x="30" y="36" onmousedown="handleReset()"/>
                <g id="arrowUp" xlink:href="#dirArrow" transform="translate(30 24)" onmousedown="handlePan(0,-1)">
                  <use xlink:href="#rim" fill="#404040">
                        <set attributeName="fill" to="#808080" begin="arrowUp.mouseover" end="arrowUp.mouseout"/>
                  </use>
                  <path fill="none" stroke="white" stroke-width="1.5" d="M0,-3.0v7 M-2.5,-0.5L0,-3.0L2.5,-0.5"/>
                </g>
                <g id="arrowRight" xlink:href="#dirArrow" transform="rotate(90) translate(36 -43)" onmousedown="handlePan(1,0)">
                  <use xlink:href="#rim" fill="#404040">
                        <set attributeName="fill" to="#808080" begin="arrowRight.mouseover" end="arrowRight.mouseout"/>
                  </use>
                  <path fill="none" stroke="white" stroke-width="1.5" d="M0,-3.0v7 M-2.5,-0.5L0,-3.0L2.5,-0.5"/>
                </g>
                <g id="arrowDown" xlink:href="#dirArrow" transform="rotate(180) translate(-30 -48)" onmousedown="handlePan(0,1)">
                  <use xlink:href="#rim" fill="#404040">
                        <set attributeName="fill" to="#808080" begin="arrowDown.mouseover" end="arrowDown.mouseout"/>
                  </use>
                  <path fill="none" stroke="white" stroke-width="1.5" d="M0,-3.0v7 M-2.5,-0.5L0,-3.0L2.5,-0.5"/>
                </g>
                <g id="arrowLeft" xlink:href="#dirArrow" transform="rotate(270) translate(-36 17)" onmousedown="handlePan(-1,0)">
                  <use xlink:href="#rim" fill="#404040">
                        <set attributeName="fill" to="#808080" begin="arrowLeft.mouseover" end="arrowLeft.mouseout"/>
                  </use>
                  <path fill="none" stroke="white" stroke-width="1.5" d="M0,-3.0v7 M-2.5,-0.5L0,-3.0L2.5,-0.5"/>
                </g>
        </g>
        <svg viewBox="0 0 15 15" width="100%" height="30px" preserveAspectRatio="xMaxYMin meet">
         <g id="arrow_out" transform="scale(0.3 0.3)">
          <a xlink:href="RfParameters_8h__dep__incl_org.svg" target="_base">
           <rect id="button" ry="5" rx="5" y="6" x="6" height="38" width="38"
                fill="#f2f5e9" fill-opacity="0.5" stroke="#606060" stroke-width="1.0"/>
           <path id="arrow"
             d="M 11.500037,31.436501 C 11.940474,20.09759 22.043105,11.32322 32.158766,21.979434 L 37.068811,17.246167 C 37.068811,17.246167 37.088388,32 37.088388,32 L 22.160133,31.978069 C 22.160133,31.978069 26.997745,27.140456 26.997745,27.140456 C 18.528582,18.264221 13.291696,25.230495 11.500037,31.436501 z"
             style="fill:#404040;"/>
          </a>
         </g>
        </svg>
</svg>
