<?xml version="1.0" encoding="UTF-8" standalone="no"?>
<!DOCTYPE svg PUBLIC "-//W3C//DTD SVG 1.1//EN"
 "http://www.w3.org/Graphics/SVG/1.1/DTD/svg11.dtd">
<!-- Generated by graphviz version 2.26.3 (20100126.1600)
 -->
<!-- Title: plot_slices.cpp Pages: 1 -->
<!--zoomable 594 -->
<svg id="main" version="1.1" xmlns="http://www.w3.org/2000/svg" xmlns:xlink="http://www.w3.org/1999/xlink" xml:space="preserve" onload="init(evt)">
        <defs>
                <circle id="rim" cx="0" cy="0" r="7"/>
                <circle id="rim2" cx="0" cy="0" r="3.5"/>
                <g id="zoomPlus">
                        <use xlink:href="#rim" fill="#404040">
                                <set attributeName="fill" to="#808080" begin="zoomplus.mouseover" end="zoomplus.mouseout"/>
                        </use>
                        <path d="M-4,0h8M0,-4v8" fill="none" stroke="white" stroke-width="1.5" pointer-events="none"/>
                </g>
                <g id="zoomMin">
                        <use xlink:href="#rim" fill="#404040">
                                <set attributeName="fill" to="#808080" begin="zoomminus.mouseover" end="zoomminus.mouseout"/>
                        </use>
                        <path d="M-4,0h8" fill="none" stroke="white" stroke-width="1.5" pointer-events="none"/>
                </g>
                <g id="dirArrow">
                        <path fill="none" stroke="white" stroke-width="1.5" d="M0,-3.0v7 M-2.5,-0.5L0,-3.0L2.5,-0.5"/>
                </g>
               <g id="resetDef">
                       <use xlink:href="#rim2" fill="#404040">
                               <set attributeName="fill" to="#808080" begin="reset.mouseover" end="reset.mouseout"/>
                       </use>
               </g>
        </defs>

<script type="text/javascript">
var viewWidth = 1518;
var viewHeight = 594;
var sectionId = 'dynsection-0';
</script>
<script xlink:href="../../svgpan.js"/>
<svg id="graph" class="graph">
<g id="viewport">
<title>plot_slices.cpp</title>
<polygon fill="white" stroke="white" points="-4,5 -4,-590 1515.26,-590 1515.26,5 -4,5"/>
<!-- Node1 -->
<g id="node1" class="node"><title>Node1</title>
<polygon fill="#bfbfbf" stroke="black" points="832.562,-564.5 832.562,-585.5 914.562,-585.5 914.562,-564.5 832.562,-564.5"/>
<text text-anchor="middle" x="873.562" y="-572.5" font-family="Helvetica,sans-Serif" font-size="10.00">plot_slices.cpp</text>
</g>
<!-- Node2 -->
<g id="node3" class="node"><title>Node2</title>
<a xlink:href="../../d2/d51/plot__slices_8h.html" target="_top" xlink:title="blond/plots/plot_slices.h">
<polygon fill="white" stroke="black" points="621.562,-506.5 621.562,-527.5 743.562,-527.5 743.562,-506.5 621.562,-506.5"/>
<text text-anchor="middle" x="682.562" y="-514.5" font-family="Helvetica,sans-Serif" font-size="10.00">blond/plots/plot_slices.h</text>
</a>
</g>
<!-- Node1&#45;&gt;Node2 -->
<g id="edge2" class="edge"><title>Node1&#45;&gt;Node2</title>
<path fill="none" stroke="midnightblue" d="M838.973,-564.497C807.565,-554.959 761.072,-540.841 726.936,-530.475"/>
<polygon fill="midnightblue" stroke="midnightblue" points="727.801,-527.08 717.215,-527.523 725.767,-533.778 727.801,-527.08"/>
</g>
<!-- Node7 -->
<g id="node13" class="node"><title>Node7</title>
<a xlink:href="../../de/df0/utilities_8h.html" target="_top" xlink:title="blond/utilities.h">
<polygon fill="white" stroke="black" points="713.562,-188.5 713.562,-209.5 795.562,-209.5 795.562,-188.5 713.562,-188.5"/>
<text text-anchor="middle" x="754.562" y="-196.5" font-family="Helvetica,sans-Serif" font-size="10.00">blond/utilities.h</text>
</a>
</g>
<!-- Node1&#45;&gt;Node7 -->
<g id="edge148" class="edge"><title>Node1&#45;&gt;Node7</title>
<path fill="none" stroke="midnightblue" d="M873.562,-564.47C873.562,-543.211 873.562,-493.641 873.562,-452 873.562,-452 873.562,-452 873.562,-329 873.562,-289.302 866.873,-275.726 840.562,-246 828.118,-231.941 810.424,-221.27 794.317,-213.678"/>
<polygon fill="midnightblue" stroke="midnightblue" points="795.628,-210.431 785.069,-209.561 792.782,-216.826 795.628,-210.431"/>
</g>
<!-- Node38 -->
<g id="node103" class="node"><title>Node38</title>
<a xlink:href="../../d1/da8/python_8h.html" target="_top" xlink:title="blond/python.h">
<polygon fill="white" stroke="black" points="1187.56,-188.5 1187.56,-209.5 1267.56,-209.5 1267.56,-188.5 1187.56,-188.5"/>
<text text-anchor="middle" x="1227.56" y="-196.5" font-family="Helvetica,sans-Serif" font-size="10.00">blond/python.h</text>
</a>
</g>
<!-- Node1&#45;&gt;Node38 -->
<g id="edge130" class="edge"><title>Node1&#45;&gt;Node38</title>
<path fill="none" stroke="midnightblue" d="M914.601,-564.587C987.632,-544.845 1132.56,-499.663 1132.56,-452 1132.56,-452 1132.56,-452 1132.56,-329 1132.56,-280.614 1175.99,-238.227 1204.12,-215.848"/>
<polygon fill="midnightblue" stroke="midnightblue" points="1206.51,-218.432 1212.3,-209.561 1202.24,-212.883 1206.51,-218.432"/>
</g>
<!-- Node3 -->
<g id="node5" class="node"><title>Node3</title>
<a xlink:href="../../d5/d34/GeneralParameters_8h.html" target="_top" xlink:title="blond/input_parameters\l/GeneralParameters.h">
<polygon fill="white" stroke="black" points="713.562,-247 713.562,-281 831.562,-281 831.562,-247 713.562,-247"/>
<text text-anchor="start" x="721.562" y="-268" font-family="Helvetica,sans-Serif" font-size="10.00">blond/input_parameters</text>
<text text-anchor="middle" x="772.562" y="-255" font-family="Helvetica,sans-Serif" font-size="10.00">/GeneralParameters.h</text>
</a>
</g>
<!-- Node2&#45;&gt;Node3 -->
<g id="edge4" class="edge"><title>Node2&#45;&gt;Node3</title>
<path fill="none" stroke="midnightblue" d="M691.878,-506.422C713.975,-480.408 768.676,-410.304 781.562,-340 784.511,-323.91 782.542,-305.718 779.703,-291.167"/>
<polygon fill="midnightblue" stroke="midnightblue" points="783.099,-290.317 777.54,-281.298 776.262,-291.816 783.099,-290.317"/>
</g>
<!-- Node19 -->
<g id="node40" class="node"><title>Node19</title>
<a xlink:href="../../d6/db7/RfParameters_8h.html" target="_top" xlink:title="blond/input_parameters\l/RfParameters.h">
<polygon fill="white" stroke="black" points="566.562,-435 566.562,-469 684.562,-469 684.562,-435 566.562,-435"/>
<text text-anchor="start" x="574.562" y="-456" font-family="Helvetica,sans-Serif" font-size="10.00">blond/input_parameters</text>
<text text-anchor="middle" x="625.562" y="-443" font-family="Helvetica,sans-Serif" font-size="10.00">/RfParameters.h</text>
</a>
</g>
<!-- Node2&#45;&gt;Node19 -->
<g id="edge42" class="edge"><title>Node2&#45;&gt;Node19</title>
<path fill="none" stroke="midnightblue" d="M673.149,-506.267C666.094,-498.221 656.15,-486.882 647.176,-476.648"/>
<polygon fill="midnightblue" stroke="midnightblue" points="649.79,-474.321 640.566,-469.11 644.527,-478.936 649.79,-474.321"/>
</g>
<!-- Node22 -->
<g id="node49" class="node"><title>Node22</title>
<a xlink:href="../../dc/df2/Slices_8h.html" target="_top" xlink:title="blond/beams/Slices.h">
<polygon fill="white" stroke="black" points="497.562,-253.5 497.562,-274.5 607.562,-274.5 607.562,-253.5 497.562,-253.5"/>
<text text-anchor="middle" x="552.562" y="-261.5" font-family="Helvetica,sans-Serif" font-size="10.00">blond/beams/Slices.h</text>
</a>
</g>
<!-- Node2&#45;&gt;Node22 -->
<g id="edge128" class="edge"><title>Node2&#45;&gt;Node22</title>
<path fill="none" stroke="midnightblue" d="M621.764,-506.436C598.808,-499.593 574.235,-488.369 557.562,-470 510.968,-418.67 505.172,-385.107 522.562,-318 525.742,-305.727 532.382,-293.273 538.609,-283.423"/>
<polygon fill="midnightblue" stroke="midnightblue" points="541.68,-285.127 544.326,-274.868 535.86,-281.238 541.68,-285.127"/>
</g>
<!-- Node4 -->
<g id="node7" class="node"><title>Node4</title>
<a xlink:href="../../d2/d2c/configuration_8h.html" target="_top" xlink:title="blond/configuration.h">
<polygon fill="white" stroke="black" points="233.062,-123.5 233.062,-144.5 340.062,-144.5 340.062,-123.5 233.062,-123.5"/>
<text text-anchor="middle" x="286.562" y="-131.5" font-family="Helvetica,sans-Serif" font-size="10.00">blond/configuration.h</text>
</a>
</g>
<!-- Node3&#45;&gt;Node4 -->
<g id="edge6" class="edge"><title>Node3&#45;&gt;Node4</title>
<path fill="none" stroke="midnightblue" d="M750.163,-246.739C723.51,-226.549 680.268,-194.987 661.562,-188 530.384,-139.007 485.839,-179.618 348.562,-152 342.216,-150.723 335.578,-149.107 329.103,-147.368"/>
<polygon fill="midnightblue" stroke="midnightblue" points="329.701,-143.901 319.127,-144.568 327.809,-150.64 329.701,-143.901"/>
</g>
<!-- Node6 -->
<g id="node11" class="node"><title>Node6</title>
<polygon fill="white" stroke="#bfbfbf" points="1099.56,-58.5 1099.56,-79.5 1143.56,-79.5 1143.56,-58.5 1099.56,-58.5"/>
<text text-anchor="middle" x="1121.56" y="-66.5" font-family="Helvetica,sans-Serif" font-size="10.00">vector</text>
</g>
<!-- Node3&#45;&gt;Node6 -->
<g id="edge40" class="edge"><title>Node3&#45;&gt;Node6</title>
<path fill="none" stroke="midnightblue" d="M831.71,-255.281C853.905,-252.149 879.366,-248.721 902.562,-246 1036.6,-230.276 1419.84,-258.634 1502.56,-152 1512.37,-139.358 1513.16,-127.986 1502.56,-116 1479.57,-89.9984 1241.72,-75.1923 1153.91,-70.5784"/>
<polygon fill="midnightblue" stroke="midnightblue" points="1153.89,-67.0732 1143.73,-70.0542 1153.53,-74.064 1153.89,-67.0732"/>
</g>
<!-- Node3&#45;&gt;Node7 -->
<g id="edge12" class="edge"><title>Node3&#45;&gt;Node7</title>
<path fill="none" stroke="midnightblue" d="M767.832,-246.922C765.522,-238.579 762.723,-228.47 760.292,-219.692"/>
<polygon fill="midnightblue" stroke="midnightblue" points="763.609,-218.555 757.567,-209.852 756.863,-220.423 763.609,-218.555"/>
</g>
<!-- Node5 -->
<g id="node9" class="node"><title>Node5</title>
<polygon fill="white" stroke="#bfbfbf" points="260.062,-58.5 260.062,-79.5 313.062,-79.5 313.062,-58.5 260.062,-58.5"/>
<text text-anchor="middle" x="286.562" y="-66.5" font-family="Helvetica,sans-Serif" font-size="10.00">complex</text>
</g>
<!-- Node4&#45;&gt;Node5 -->
<g id="edge8" class="edge"><title>Node4&#45;&gt;Node5</title>
<path fill="none" stroke="midnightblue" d="M286.562,-123.267C286.562,-114.18 286.562,-100.892 286.562,-89.7395"/>
<polygon fill="midnightblue" stroke="midnightblue" points="290.062,-89.5337 286.562,-79.5337 283.062,-89.5337 290.062,-89.5337"/>
</g>
<!-- Node4&#45;&gt;Node6 -->
<g id="edge10" class="edge"><title>Node4&#45;&gt;Node6</title>
<path fill="none" stroke="midnightblue" d="M317.786,-123.472C327.537,-120.581 338.401,-117.761 348.562,-116 494.5,-90.702 961.818,-74.1355 1089.22,-70.0098"/>
<polygon fill="midnightblue" stroke="midnightblue" points="1089.59,-73.4997 1099.48,-69.6809 1089.37,-66.5033 1089.59,-73.4997"/>
</g>
<!-- Node7&#45;&gt;Node4 -->
<g id="edge36" class="edge"><title>Node7&#45;&gt;Node4</title>
<path fill="none" stroke="midnightblue" d="M713.491,-190.342C708.805,-189.486 704.087,-188.683 699.562,-188 544.499,-164.596 502.487,-181.983 348.562,-152 342.136,-150.748 335.415,-149.131 328.868,-147.38"/>
<polygon fill="midnightblue" stroke="midnightblue" points="329.365,-143.884 318.791,-144.551 327.473,-150.623 329.365,-143.884"/>
</g>
<!-- Node7&#45;&gt;Node6 -->
<g id="edge32" class="edge"><title>Node7&#45;&gt;Node6</title>
<path fill="none" stroke="midnightblue" d="M795.049,-188.432C820.739,-180.659 854.017,-168.557 880.562,-152 900.301,-139.688 898.067,-127.009 918.562,-116 973.97,-86.2359 1047.75,-75.2218 1089.39,-71.2182"/>
<polygon fill="midnightblue" stroke="midnightblue" points="1089.85,-74.6915 1099.5,-70.3243 1089.23,-67.7187 1089.85,-74.6915"/>
</g>
<!-- Node8 -->
<g id="node15" class="node"><title>Node8</title>
<polygon fill="white" stroke="#bfbfbf" points="479.562,-123.5 479.562,-144.5 525.562,-144.5 525.562,-123.5 479.562,-123.5"/>
<text text-anchor="middle" x="502.562" y="-131.5" font-family="Helvetica,sans-Serif" font-size="10.00">chrono</text>
</g>
<!-- Node7&#45;&gt;Node8 -->
<g id="edge14" class="edge"><title>Node7&#45;&gt;Node8</title>
<path fill="none" stroke="midnightblue" d="M713.387,-190.537C652.046,-177.881 542.93,-155.164 534.562,-152 532.43,-151.194 530.27,-150.262 528.13,-149.256"/>
<polygon fill="midnightblue" stroke="midnightblue" points="529.524,-146.035 519.039,-144.519 526.29,-152.243 529.524,-146.035"/>
</g>
<!-- Node9 -->
<g id="node17" class="node"><title>Node9</title>
<polygon fill="white" stroke="#bfbfbf" points="543.062,-123.5 543.062,-144.5 586.062,-144.5 586.062,-123.5 543.062,-123.5"/>
<text text-anchor="middle" x="564.562" y="-131.5" font-family="Helvetica,sans-Serif" font-size="10.00">cstdio</text>
</g>
<!-- Node7&#45;&gt;Node9 -->
<g id="edge16" class="edge"><title>Node7&#45;&gt;Node9</title>
<path fill="none" stroke="midnightblue" d="M713.443,-189.985C680.511,-182.045 633.541,-169.084 594.562,-152 592.955,-151.296 591.33,-150.522 589.709,-149.702"/>
<polygon fill="midnightblue" stroke="midnightblue" points="591.106,-146.474 580.663,-144.684 587.71,-152.596 591.106,-146.474"/>
</g>
<!-- Node10 -->
<g id="node19" class="node"><title>Node10</title>
<polygon fill="white" stroke="#bfbfbf" points="991.062,-123.5 991.062,-144.5 1036.06,-144.5 1036.06,-123.5 991.062,-123.5"/>
<text text-anchor="middle" x="1013.56" y="-131.5" font-family="Helvetica,sans-Serif" font-size="10.00">cstdlib</text>
</g>
<!-- Node7&#45;&gt;Node10 -->
<g id="edge18" class="edge"><title>Node7&#45;&gt;Node10</title>
<path fill="none" stroke="midnightblue" d="M795.75,-189.88C798.731,-189.238 801.692,-188.606 804.562,-188 883.534,-171.328 907.103,-180.645 982.562,-152 984.642,-151.21 986.745,-150.29 988.825,-149.292"/>
<polygon fill="midnightblue" stroke="midnightblue" points="990.482,-152.375 997.648,-144.57 987.179,-146.203 990.482,-152.375"/>
</g>
<!-- Node11 -->
<g id="node21" class="node"><title>Node11</title>
<polygon fill="white" stroke="#bfbfbf" points="603.562,-123.5 603.562,-144.5 653.562,-144.5 653.562,-123.5 603.562,-123.5"/>
<text text-anchor="middle" x="628.562" y="-131.5" font-family="Helvetica,sans-Serif" font-size="10.00">fstream</text>
</g>
<!-- Node7&#45;&gt;Node11 -->
<g id="edge20" class="edge"><title>Node7&#45;&gt;Node11</title>
<path fill="none" stroke="midnightblue" d="M733.69,-188.447C715.014,-178.977 686.907,-164.662 662.562,-152 660.828,-151.099 659.047,-150.168 657.252,-149.227"/>
<polygon fill="midnightblue" stroke="midnightblue" points="658.791,-146.082 648.313,-144.519 655.529,-152.276 658.791,-146.082"/>
</g>
<!-- Node12 -->
<g id="node23" class="node"><title>Node12</title>
<polygon fill="white" stroke="#bfbfbf" points="1149.56,-123.5 1149.56,-144.5 1203.56,-144.5 1203.56,-123.5 1149.56,-123.5"/>
<text text-anchor="middle" x="1176.56" y="-131.5" font-family="Helvetica,sans-Serif" font-size="10.00">iostream</text>
</g>
<!-- Node7&#45;&gt;Node12 -->
<g id="edge22" class="edge"><title>Node7&#45;&gt;Node12</title>
<path fill="none" stroke="midnightblue" d="M795.701,-189.62C798.693,-189.039 801.67,-188.492 804.562,-188 936.082,-165.642 971.296,-175.807 1102.56,-152 1114.64,-149.81 1127.68,-146.842 1139.41,-143.948"/>
<polygon fill="midnightblue" stroke="midnightblue" points="1140.48,-147.288 1149.32,-141.445 1138.76,-140.501 1140.48,-147.288"/>
</g>
<!-- Node13 -->
<g id="node25" class="node"><title>Node13</title>
<polygon fill="white" stroke="#bfbfbf" points="927.062,-123.5 927.062,-144.5 974.062,-144.5 974.062,-123.5 927.062,-123.5"/>
<text text-anchor="middle" x="950.562" y="-131.5" font-family="Helvetica,sans-Serif" font-size="10.00">iterator</text>
</g>
<!-- Node7&#45;&gt;Node13 -->
<g id="edge24" class="edge"><title>Node7&#45;&gt;Node13</title>
<path fill="none" stroke="midnightblue" d="M795.701,-188.844C828.175,-180.35 874.381,-167.201 913.562,-152 916.096,-151.017 918.696,-149.928 921.284,-148.786"/>
<polygon fill="midnightblue" stroke="midnightblue" points="922.878,-151.905 930.474,-144.519 919.93,-145.556 922.878,-151.905"/>
</g>
<!-- Node14 -->
<g id="node27" class="node"><title>Node14</title>
<polygon fill="white" stroke="#bfbfbf" points="671.562,-123.5 671.562,-144.5 723.562,-144.5 723.562,-123.5 671.562,-123.5"/>
<text text-anchor="middle" x="697.562" y="-131.5" font-family="Helvetica,sans-Serif" font-size="10.00">memory</text>
</g>
<!-- Node7&#45;&gt;Node14 -->
<g id="edge26" class="edge"><title>Node7&#45;&gt;Node14</title>
<path fill="none" stroke="midnightblue" d="M745.149,-188.267C736.6,-178.517 723.809,-163.932 713.641,-152.336"/>
<polygon fill="midnightblue" stroke="midnightblue" points="716.024,-149.745 706.799,-144.534 710.761,-154.36 716.024,-149.745"/>
</g>
<!-- Node15 -->
<g id="node29" class="node"><title>Node15</title>
<polygon fill="white" stroke="#bfbfbf" points="741.562,-123.5 741.562,-144.5 793.562,-144.5 793.562,-123.5 741.562,-123.5"/>
<text text-anchor="middle" x="767.562" y="-131.5" font-family="Helvetica,sans-Serif" font-size="10.00">sstream</text>
</g>
<!-- Node7&#45;&gt;Node15 -->
<g id="edge28" class="edge"><title>Node7&#45;&gt;Node15</title>
<path fill="none" stroke="midnightblue" d="M756.708,-188.267C758.545,-179.085 761.239,-165.615 763.483,-154.392"/>
<polygon fill="midnightblue" stroke="midnightblue" points="766.926,-155.026 765.455,-144.534 760.062,-153.653 766.926,-155.026"/>
</g>
<!-- Node16 -->
<g id="node31" class="node"><title>Node16</title>
<polygon fill="white" stroke="#bfbfbf" points="1053.06,-123.5 1053.06,-144.5 1094.06,-144.5 1094.06,-123.5 1053.06,-123.5"/>
<text text-anchor="middle" x="1073.56" y="-131.5" font-family="Helvetica,sans-Serif" font-size="10.00">string</text>
</g>
<!-- Node7&#45;&gt;Node16 -->
<g id="edge30" class="edge"><title>Node7&#45;&gt;Node16</title>
<path fill="none" stroke="midnightblue" d="M795.718,-189.714C798.706,-189.111 801.677,-188.533 804.562,-188 910.626,-168.401 943.322,-189.207 1044.56,-152 1046.44,-151.31 1048.33,-150.489 1050.19,-149.584"/>
<polygon fill="midnightblue" stroke="midnightblue" points="1052.11,-152.52 1059.11,-144.569 1048.68,-146.417 1052.11,-152.52"/>
</g>
<!-- Node17 -->
<g id="node34" class="node"><title>Node17</title>
<polygon fill="white" stroke="#bfbfbf" points="811.562,-123.5 811.562,-144.5 871.562,-144.5 871.562,-123.5 811.562,-123.5"/>
<text text-anchor="middle" x="841.562" y="-131.5" font-family="Helvetica,sans-Serif" font-size="10.00">sys/stat.h</text>
</g>
<!-- Node7&#45;&gt;Node17 -->
<g id="edge34" class="edge"><title>Node7&#45;&gt;Node17</title>
<path fill="none" stroke="midnightblue" d="M768.928,-188.267C782.61,-178.044 803.41,-162.504 819.25,-150.67"/>
<polygon fill="midnightblue" stroke="midnightblue" points="821.546,-153.323 827.463,-144.534 817.357,-147.715 821.546,-153.323"/>
</g>
<!-- Node18 -->
<g id="node37" class="node"><title>Node18</title>
<a xlink:href="../../da/d69/optionparser_8h.html" target="_top" xlink:title="This is the only file required to use The Lean Mean C++ Option Parser. Just #include it and you&#39;re se...">
<polygon fill="white" stroke="black" points="357.562,-123.5 357.562,-144.5 461.562,-144.5 461.562,-123.5 357.562,-123.5"/>
<text text-anchor="middle" x="409.562" y="-131.5" font-family="Helvetica,sans-Serif" font-size="10.00">blond/optionparser.h</text>
</a>
</g>
<!-- Node7&#45;&gt;Node18 -->
<g id="edge38" class="edge"><title>Node7&#45;&gt;Node18</title>
<path fill="none" stroke="midnightblue" d="M713.451,-190.584C708.772,-189.684 704.067,-188.804 699.562,-188 598.137,-169.893 571.074,-174.628 470.562,-152 464.627,-150.664 458.421,-149.069 452.336,-147.389"/>
<polygon fill="midnightblue" stroke="midnightblue" points="452.856,-143.897 442.279,-144.512 450.93,-150.627 452.856,-143.897"/>
</g>
<!-- Node19&#45;&gt;Node3 -->
<g id="edge72" class="edge"><title>Node19&#45;&gt;Node3</title>
<path fill="none" stroke="midnightblue" d="M684.654,-435.137C704.315,-426.851 724.707,-414.898 738.562,-398 763.634,-367.419 770.517,-320.694 772.238,-291.275"/>
<polygon fill="midnightblue" stroke="midnightblue" points="775.735,-291.421 772.663,-281.281 768.741,-291.123 775.735,-291.421"/>
</g>
<!-- Node20 -->
<g id="node42" class="node"><title>Node20</title>
<a xlink:href="../../d7/d74/Beams_8h.html" target="_top" xlink:title="blond/beams/Beams.h">
<polygon fill="white" stroke="black" points="615.562,-376.5 615.562,-397.5 729.562,-397.5 729.562,-376.5 615.562,-376.5"/>
<text text-anchor="middle" x="672.562" y="-384.5" font-family="Helvetica,sans-Serif" font-size="10.00">blond/beams/Beams.h</text>
</a>
</g>
<!-- Node19&#45;&gt;Node20 -->
<g id="edge44" class="edge"><title>Node19&#45;&gt;Node20</title>
<path fill="none" stroke="midnightblue" d="M631.887,-434.922C637.469,-425.937 645.395,-414.905 652.87,-405.691"/>
<polygon fill="midnightblue" stroke="midnightblue" points="655.722,-407.74 659.528,-397.852 650.387,-403.209 655.722,-407.74"/>
</g>
<!-- Node21 -->
<g id="node44" class="node"><title>Node21</title>
<a xlink:href="../../d5/d87/globals_8h.html" target="_top" xlink:title="blond/globals.h">
<polygon fill="white" stroke="black" points="537.562,-318.5 537.562,-339.5 619.562,-339.5 619.562,-318.5 537.562,-318.5"/>
<text text-anchor="middle" x="578.562" y="-326.5" font-family="Helvetica,sans-Serif" font-size="10.00">blond/globals.h</text>
</a>
</g>
<!-- Node19&#45;&gt;Node21 -->
<g id="edge112" class="edge"><title>Node19&#45;&gt;Node21</title>
<path fill="none" stroke="midnightblue" d="M614.181,-434.897C603.233,-412.573 588.2,-373.535 581.242,-349.605"/>
<polygon fill="midnightblue" stroke="midnightblue" points="584.588,-348.567 578.657,-339.787 577.818,-350.349 584.588,-348.567"/>
</g>
<!-- Node24 -->
<g id="node61" class="node"><title>Node24</title>
<a xlink:href="../../d2/de2/math__functions_8h.html" target="_top" xlink:title="blond/math_functions.h">
<polygon fill="white" stroke="black" points="254.562,-253.5 254.562,-274.5 372.562,-274.5 372.562,-253.5 254.562,-253.5"/>
<text text-anchor="middle" x="313.562" y="-261.5" font-family="Helvetica,sans-Serif" font-size="10.00">blond/math_functions.h</text>
</a>
</g>
<!-- Node19&#45;&gt;Node24 -->
<g id="edge74" class="edge"><title>Node19&#45;&gt;Node24</title>
<path fill="none" stroke="midnightblue" d="M566.438,-445.861C499.617,-435.691 392.385,-409.04 332.562,-340 319.391,-324.801 315.097,-301.802 313.818,-285.086"/>
<polygon fill="midnightblue" stroke="midnightblue" points="317.296,-284.52 313.343,-274.69 310.303,-284.84 317.296,-284.52"/>
</g>
<!-- Node35 -->
<g id="node89" class="node"><title>Node35</title>
<a xlink:href="../../d2/d6f/constants_8h.html" target="_top" xlink:title="blond/constants.h">
<polygon fill="white" stroke="black" points="341.562,-318.5 341.562,-339.5 435.562,-339.5 435.562,-318.5 341.562,-318.5"/>
<text text-anchor="middle" x="388.562" y="-326.5" font-family="Helvetica,sans-Serif" font-size="10.00">blond/constants.h</text>
</a>
</g>
<!-- Node19&#45;&gt;Node35 -->
<g id="edge108" class="edge"><title>Node19&#45;&gt;Node35</title>
<path fill="none" stroke="midnightblue" d="M590.906,-434.974C569.662,-424.463 541.953,-410.618 517.562,-398 482.804,-380.019 443.156,-358.688 417.095,-344.552"/>
<polygon fill="midnightblue" stroke="midnightblue" points="418.6,-341.387 408.142,-339.69 415.259,-347.538 418.6,-341.387"/>
</g>
<!-- Node36 -->
<g id="node93" class="node"><title>Node36</title>
<a xlink:href="../../da/d30/vector__math_8h.html" target="_top" xlink:title="blond/vector_math.h">
<polygon fill="white" stroke="black" points="911.062,-253.5 911.062,-274.5 1016.06,-274.5 1016.06,-253.5 911.062,-253.5"/>
<text text-anchor="middle" x="963.562" y="-261.5" font-family="Helvetica,sans-Serif" font-size="10.00">blond/vector_math.h</text>
</a>
</g>
<!-- Node19&#45;&gt;Node36 -->
<g id="edge114" class="edge"><title>Node19&#45;&gt;Node36</title>
<path fill="none" stroke="midnightblue" d="M674.668,-434.884C700.486,-425.223 732.339,-412.246 759.562,-398 828.783,-361.775 904.112,-308.223 940.846,-281.092"/>
<polygon fill="midnightblue" stroke="midnightblue" points="943.387,-283.564 949.326,-274.79 939.212,-277.945 943.387,-283.564"/>
</g>
<!-- Node20&#45;&gt;Node3 -->
<g id="edge68" class="edge"><title>Node20&#45;&gt;Node3</title>
<path fill="none" stroke="midnightblue" d="M681.436,-376.085C697.204,-356.69 730.481,-315.76 752.159,-289.095"/>
<polygon fill="midnightblue" stroke="midnightblue" points="754.89,-291.284 758.482,-281.317 749.458,-286.869 754.89,-291.284"/>
</g>
<!-- Node20&#45;&gt;Node4 -->
<g id="edge64" class="edge"><title>Node20&#45;&gt;Node4</title>
<path fill="none" stroke="midnightblue" d="M671.107,-376.34C667.077,-350.66 653.52,-284.639 616.562,-246 529.313,-154.783 470.281,-185.424 348.562,-152 343.225,-150.535 337.641,-148.965 332.103,-147.386"/>
<polygon fill="midnightblue" stroke="midnightblue" points="332.825,-143.952 322.248,-144.553 330.892,-150.679 332.825,-143.952"/>
</g>
<!-- Node20&#45;&gt;Node7 -->
<g id="edge66" class="edge"><title>Node20&#45;&gt;Node7</title>
<path fill="none" stroke="midnightblue" d="M672.888,-376.336C674.067,-351.739 679.503,-289.792 704.562,-246 711.152,-234.483 721.471,-224.092 731.028,-216.026"/>
<polygon fill="midnightblue" stroke="midnightblue" points="733.487,-218.541 739.117,-209.567 729.119,-213.071 733.487,-218.541"/>
</g>
<!-- Node20&#45;&gt;Node19 -->
<g id="edge70" class="edge"><title>Node20&#45;&gt;Node19</title>
<path fill="none" stroke="midnightblue" d="M669.902,-397.852C665.562,-405.748 658.062,-416.769 650.372,-426.809"/>
<polygon fill="midnightblue" stroke="midnightblue" points="647.409,-424.913 643.934,-434.922 652.892,-429.265 647.409,-424.913"/>
</g>
<!-- Node20&#45;&gt;Node21 -->
<g id="edge46" class="edge"><title>Node20&#45;&gt;Node21</title>
<path fill="none" stroke="midnightblue" d="M649.956,-376.362C634.377,-367.696 614.048,-355.313 598.965,-345.382"/>
<polygon fill="midnightblue" stroke="midnightblue" points="600.59,-342.256 590.341,-339.571 596.678,-348.061 600.59,-342.256"/>
</g>
<!-- Node21&#45;&gt;Node3 -->
<g id="edge48" class="edge"><title>Node21&#45;&gt;Node3</title>
<path fill="none" stroke="midnightblue" d="M610.163,-318.412C637.623,-309.212 678.171,-295.626 711.88,-284.332"/>
<polygon fill="midnightblue" stroke="midnightblue" points="713.273,-287.556 721.643,-281.06 711.049,-280.919 713.273,-287.556"/>
</g>
<!-- Node21&#45;&gt;Node19 -->
<g id="edge50" class="edge"><title>Node21&#45;&gt;Node19</title>
<path fill="none" stroke="midnightblue" d="M586.711,-339.787C596.872,-358.678 612.56,-398.276 620.947,-425.01"/>
<polygon fill="midnightblue" stroke="midnightblue" points="617.679,-426.3 623.871,-434.897 624.392,-424.315 617.679,-426.3"/>
</g>
<!-- Node21&#45;&gt;Node20 -->
<g id="edge52" class="edge"><title>Node21&#45;&gt;Node20</title>
<path fill="none" stroke="midnightblue" d="M601.045,-339.571C616.6,-348.218 636.931,-360.597 652.041,-370.541"/>
<polygon fill="midnightblue" stroke="midnightblue" points="650.435,-373.679 660.685,-376.362 654.345,-367.873 650.435,-373.679"/>
</g>
<!-- Node21&#45;&gt;Node22 -->
<g id="edge54" class="edge"><title>Node21&#45;&gt;Node22</title>
<path fill="none" stroke="midnightblue" d="M574.268,-318.267C570.558,-308.991 565.096,-295.336 560.58,-284.045"/>
<polygon fill="midnightblue" stroke="midnightblue" points="563.739,-282.519 556.775,-274.534 557.239,-285.118 563.739,-282.519"/>
</g>
<!-- Node22&#45;&gt;Node4 -->
<g id="edge56" class="edge"><title>Node22&#45;&gt;Node4</title>
<path fill="none" stroke="midnightblue" d="M541.974,-253.439C525.207,-237.25 490.911,-206.26 456.562,-188 445.321,-182.025 378.382,-161.446 331.935,-147.49"/>
<polygon fill="midnightblue" stroke="midnightblue" points="332.656,-144.052 322.072,-144.533 330.646,-150.757 332.656,-144.052"/>
</g>
<!-- Node22&#45;&gt;Node7 -->
<g id="edge58" class="edge"><title>Node22&#45;&gt;Node7</title>
<path fill="none" stroke="midnightblue" d="M585.466,-253.412C619.948,-242.316 674.251,-224.843 711.98,-212.702"/>
<polygon fill="midnightblue" stroke="midnightblue" points="713.224,-215.978 721.671,-209.584 711.08,-209.315 713.224,-215.978"/>
</g>
<!-- Node22&#45;&gt;Node19 -->
<g id="edge60" class="edge"><title>Node22&#45;&gt;Node19</title>
<path fill="none" stroke="midnightblue" d="M544.503,-274.942C534.588,-289.817 520.054,-317.182 528.562,-340 541.825,-375.575 572.039,-407.358 595.248,-427.897"/>
<polygon fill="midnightblue" stroke="midnightblue" points="593.264,-430.808 603.126,-434.68 597.832,-425.503 593.264,-430.808"/>
</g>
<!-- Node23 -->
<g id="node54" class="node"><title>Node23</title>
<polygon fill="white" stroke="#bfbfbf" points="1221.06,-123.5 1221.06,-144.5 1256.06,-144.5 1256.06,-123.5 1221.06,-123.5"/>
<text text-anchor="middle" x="1238.56" y="-131.5" font-family="Helvetica,sans-Serif" font-size="10.00">map</text>
</g>
<!-- Node22&#45;&gt;Node23 -->
<g id="edge62" class="edge"><title>Node22&#45;&gt;Node23</title>
<path fill="none" stroke="midnightblue" d="M607.84,-257.39C700.079,-246.191 881.479,-223.402 944.562,-210 978.958,-202.693 986.352,-196.139 1020.56,-188 1105.02,-167.906 1132.44,-185.445 1212.56,-152 1213.95,-151.418 1215.35,-150.754 1216.73,-150.031"/>
<polygon fill="midnightblue" stroke="midnightblue" points="1218.75,-152.899 1225.43,-144.677 1215.08,-146.938 1218.75,-152.899"/>
</g>
<!-- Node24&#45;&gt;Node4 -->
<g id="edge78" class="edge"><title>Node24&#45;&gt;Node4</title>
<path fill="none" stroke="midnightblue" d="M337.351,-253.267C363.972,-239.657 401.427,-214.726 385.562,-188 374.439,-169.264 354.278,-156.613 335.038,-148.297"/>
<polygon fill="midnightblue" stroke="midnightblue" points="336.295,-145.03 325.711,-144.555 333.689,-151.527 336.295,-145.03"/>
</g>
<!-- Node24&#45;&gt;Node7 -->
<g id="edge96" class="edge"><title>Node24&#45;&gt;Node7</title>
<path fill="none" stroke="midnightblue" d="M372.579,-255.301C459.572,-242.479 620.795,-218.716 703.185,-206.572"/>
<polygon fill="midnightblue" stroke="midnightblue" points="703.929,-210.001 713.312,-205.08 702.909,-203.076 703.929,-210.001"/>
</g>
<!-- Node25 -->
<g id="node63" class="node"><title>Node25</title>
<polygon fill="white" stroke="#bfbfbf" points="879.562,-188.5 879.562,-209.5 935.562,-209.5 935.562,-188.5 879.562,-188.5"/>
<text text-anchor="middle" x="907.562" y="-196.5" font-family="Helvetica,sans-Serif" font-size="10.00">algorithm</text>
</g>
<!-- Node24&#45;&gt;Node25 -->
<g id="edge76" class="edge"><title>Node24&#45;&gt;Node25</title>
<path fill="none" stroke="midnightblue" d="M372.682,-257.792C406.589,-254.264 449.96,-249.804 488.562,-246 655.038,-229.594 701.393,-241.961 869.491,-209.9"/>
<polygon fill="midnightblue" stroke="midnightblue" points="870.266,-213.316 879.421,-207.982 868.938,-206.443 870.266,-213.316"/>
</g>
<!-- Node26 -->
<g id="node66" class="node"><title>Node26</title>
<a xlink:href="../../d8/dcd/exp_8h.html" target="_top" xlink:title="blond/exp.h">
<polygon fill="white" stroke="black" points="58.0616,-188.5 58.0616,-209.5 125.062,-209.5 125.062,-188.5 58.0616,-188.5"/>
<text text-anchor="middle" x="91.5616" y="-196.5" font-family="Helvetica,sans-Serif" font-size="10.00">blond/exp.h</text>
</a>
</g>
<!-- Node24&#45;&gt;Node26 -->
<g id="edge80" class="edge"><title>Node24&#45;&gt;Node26</title>
<path fill="none" stroke="midnightblue" d="M277.399,-253.412C238.467,-242.013 176.544,-223.882 134.999,-211.718"/>
<polygon fill="midnightblue" stroke="midnightblue" points="135.743,-208.289 125.163,-208.838 133.776,-215.007 135.743,-208.289"/>
</g>
<!-- Node28 -->
<g id="node70" class="node"><title>Node28</title>
<polygon fill="white" stroke="#bfbfbf" points="69.5616,-0.5 69.5616,-21.5 113.562,-21.5 113.562,-0.5 69.5616,-0.5"/>
<text text-anchor="middle" x="91.5616" y="-8.5" font-family="Helvetica,sans-Serif" font-size="10.00">cmath</text>
</g>
<!-- Node24&#45;&gt;Node28 -->
<g id="edge98" class="edge"><title>Node24&#45;&gt;Node28</title>
<path fill="none" stroke="midnightblue" d="M254.479,-259.232C182.943,-252.341 67.9938,-237.32 35.5616,-210 -16.1155,-166.468 -5.99927,-113.485 32.5616,-58 41.0186,-45.8313 53.5266,-35.2374 64.8522,-27.2035"/>
<polygon fill="midnightblue" stroke="midnightblue" points="66.8628,-30.0692 73.1957,-21.5754 62.9482,-24.266 66.8628,-30.0692"/>
</g>
<!-- Node29 -->
<g id="node72" class="node"><title>Node29</title>
<polygon fill="white" stroke="#bfbfbf" points="22.5616,-123.5 22.5616,-144.5 62.5616,-144.5 62.5616,-123.5 22.5616,-123.5"/>
<text text-anchor="middle" x="42.5616" y="-131.5" font-family="Helvetica,sans-Serif" font-size="10.00">limits</text>
</g>
<!-- Node24&#45;&gt;Node29 -->
<g id="edge102" class="edge"><title>Node24&#45;&gt;Node29</title>
<path fill="none" stroke="midnightblue" d="M254.401,-259.948C185.076,-253.879 76.2488,-239.794 49.5616,-210 36.2904,-195.184 36.1765,-171.61 38.3526,-154.645"/>
<polygon fill="midnightblue" stroke="midnightblue" points="41.8339,-155.044 39.998,-144.609 34.9261,-153.911 41.8339,-155.044"/>
</g>
<!-- Node30 -->
<g id="node74" class="node"><title>Node30</title>
<a xlink:href="../../d1/d3d/sin_8h.html" target="_top" xlink:title="blond/sin.h">
<polygon fill="white" stroke="black" points="142.562,-188.5 142.562,-209.5 206.562,-209.5 206.562,-188.5 142.562,-188.5"/>
<text text-anchor="middle" x="174.562" y="-196.5" font-family="Helvetica,sans-Serif" font-size="10.00">blond/sin.h</text>
</a>
</g>
<!-- Node24&#45;&gt;Node30 -->
<g id="edge88" class="edge"><title>Node24&#45;&gt;Node30</title>
<path fill="none" stroke="midnightblue" d="M290.919,-253.412C268,-242.694 232.353,-226.025 206.553,-213.96"/>
<polygon fill="midnightblue" stroke="midnightblue" points="207.735,-210.649 197.194,-209.584 204.77,-216.99 207.735,-210.649"/>
</g>
<!-- Node32 -->
<g id="node82" class="node"><title>Node32</title>
<polygon fill="white" stroke="#bfbfbf" points="224.062,-188.5 224.062,-209.5 273.062,-209.5 273.062,-188.5 224.062,-188.5"/>
<text text-anchor="middle" x="248.562" y="-196.5" font-family="Helvetica,sans-Serif" font-size="10.00">random</text>
</g>
<!-- Node24&#45;&gt;Node32 -->
<g id="edge100" class="edge"><title>Node24&#45;&gt;Node32</title>
<path fill="none" stroke="midnightblue" d="M302.828,-253.267C292.89,-243.328 277.925,-228.363 266.226,-216.664"/>
<polygon fill="midnightblue" stroke="midnightblue" points="268.641,-214.13 259.095,-209.534 263.692,-219.08 268.641,-214.13"/>
</g>
<!-- Node33 -->
<g id="node85" class="node"><title>Node33</title>
<polygon fill="white" stroke="#bfbfbf" points="813.062,-188.5 813.062,-209.5 862.062,-209.5 862.062,-188.5 813.062,-188.5"/>
<text text-anchor="middle" x="837.562" y="-196.5" font-family="Helvetica,sans-Serif" font-size="10.00">cassert</text>
</g>
<!-- Node24&#45;&gt;Node33 -->
<g id="edge104" class="edge"><title>Node24&#45;&gt;Node33</title>
<path fill="none" stroke="midnightblue" d="M372.648,-257.84C489.488,-245.615 743.344,-218.826 802.684,-209.667"/>
<polygon fill="midnightblue" stroke="midnightblue" points="803.619,-213.055 812.853,-207.862 802.396,-206.163 803.619,-213.055"/>
</g>
<!-- Node34 -->
<g id="node87" class="node"><title>Node34</title>
<a xlink:href="../../d1/db0/openmp_8h.html" target="_top" xlink:title="blond/openmp.h">
<polygon fill="white" stroke="black" points="290.562,-188.5 290.562,-209.5 376.562,-209.5 376.562,-188.5 290.562,-188.5"/>
<text text-anchor="middle" x="333.562" y="-196.5" font-family="Helvetica,sans-Serif" font-size="10.00">blond/openmp.h</text>
</a>
</g>
<!-- Node24&#45;&gt;Node34 -->
<g id="edge106" class="edge"><title>Node24&#45;&gt;Node34</title>
<path fill="none" stroke="midnightblue" d="M316.864,-253.267C319.689,-244.085 323.834,-230.615 327.287,-219.392"/>
<polygon fill="midnightblue" stroke="midnightblue" points="330.725,-220.121 330.32,-209.534 324.034,-218.062 330.725,-220.121"/>
</g>
<!-- Node27 -->
<g id="node68" class="node"><title>Node27</title>
<a xlink:href="../../df/de1/vdtcore__common_8h.html" target="_top" xlink:title="vdtcore_common.h">
<polygon fill="white" stroke="black" points="41.5616,-58.5 41.5616,-79.5 141.562,-79.5 141.562,-58.5 41.5616,-58.5"/>
<text text-anchor="middle" x="91.5616" y="-66.5" font-family="Helvetica,sans-Serif" font-size="10.00">vdtcore_common.h</text>
</a>
</g>
<!-- Node26&#45;&gt;Node27 -->
<g id="edge82" class="edge"><title>Node26&#45;&gt;Node27</title>
<path fill="none" stroke="midnightblue" d="M91.5616,-188.362C91.5616,-166.936 91.5616,-118.24 91.5616,-90.1143"/>
<polygon fill="midnightblue" stroke="midnightblue" points="95.0617,-89.7854 91.5616,-79.7854 88.0617,-89.7855 95.0617,-89.7854"/>
</g>
<!-- Node26&#45;&gt;Node29 -->
<g id="edge86" class="edge"><title>Node26&#45;&gt;Node29</title>
<path fill="none" stroke="midnightblue" d="M83.4703,-188.267C76.1922,-178.612 65.3387,-164.215 56.6397,-152.675"/>
<polygon fill="midnightblue" stroke="midnightblue" points="59.3169,-150.412 50.5024,-144.534 53.7272,-154.626 59.3169,-150.412"/>
</g>
<!-- Node27&#45;&gt;Node28 -->
<g id="edge84" class="edge"><title>Node27&#45;&gt;Node28</title>
<path fill="none" stroke="midnightblue" d="M91.5616,-58.3619C91.5616,-50.9219 91.5616,-40.7427 91.5616,-31.7276"/>
<polygon fill="midnightblue" stroke="midnightblue" points="95.0617,-31.5706 91.5616,-21.5707 88.0617,-31.5707 95.0617,-31.5706"/>
</g>
<!-- Node31 -->
<g id="node76" class="node"><title>Node31</title>
<a xlink:href="../../dc/dfa/sincos_8h.html" target="_top" xlink:title="sincos.h">
<polygon fill="white" stroke="black" points="143.062,-123.5 143.062,-144.5 196.062,-144.5 196.062,-123.5 143.062,-123.5"/>
<text text-anchor="middle" x="169.562" y="-131.5" font-family="Helvetica,sans-Serif" font-size="10.00">sincos.h</text>
</a>
</g>
<!-- Node30&#45;&gt;Node31 -->
<g id="edge90" class="edge"><title>Node30&#45;&gt;Node31</title>
<path fill="none" stroke="midnightblue" d="M173.736,-188.267C173.037,-179.18 172.015,-165.892 171.157,-154.74"/>
<polygon fill="midnightblue" stroke="midnightblue" points="174.629,-154.236 170.372,-144.534 167.649,-154.773 174.629,-154.236"/>
</g>
<!-- Node31&#45;&gt;Node27 -->
<g id="edge92" class="edge"><title>Node31&#45;&gt;Node27</title>
<path fill="none" stroke="midnightblue" d="M156.681,-123.267C144.528,-113.139 126.112,-97.7916 111.961,-85.9995"/>
<polygon fill="midnightblue" stroke="midnightblue" points="114.125,-83.2468 104.202,-79.5337 109.644,-88.6244 114.125,-83.2468"/>
</g>
<!-- Node31&#45;&gt;Node28 -->
<g id="edge94" class="edge"><title>Node31&#45;&gt;Node28</title>
<path fill="none" stroke="midnightblue" d="M169.034,-123.326C167.818,-107.799 163.804,-78.59 150.562,-58 142.602,-45.6243 130.264,-35.0581 118.924,-27.0971"/>
<polygon fill="midnightblue" stroke="midnightblue" points="120.803,-24.1438 110.536,-21.5303 116.933,-29.9762 120.803,-24.1438"/>
</g>
<!-- Node35&#45;&gt;Node4 -->
<g id="edge110" class="edge"><title>Node35&#45;&gt;Node4</title>
<path fill="none" stroke="midnightblue" d="M393.607,-318.421C404.7,-293.473 428.187,-229.916 401.562,-188 393.008,-174.534 357.406,-159.046 328.052,-148.119"/>
<polygon fill="midnightblue" stroke="midnightblue" points="328.979,-144.732 318.385,-144.598 326.583,-151.309 328.979,-144.732"/>
</g>
<!-- Node36&#45;&gt;Node6 -->
<g id="edge122" class="edge"><title>Node36&#45;&gt;Node6</title>
<path fill="none" stroke="midnightblue" d="M1016.34,-255.251C1044.28,-247.873 1076.81,-234.41 1096.56,-210 1124.71,-175.211 1125.63,-119.634 1123.7,-89.7025"/>
<polygon fill="midnightblue" stroke="midnightblue" points="1127.18,-89.264 1122.87,-79.5834 1120.2,-89.836 1127.18,-89.264"/>
</g>
<!-- Node36&#45;&gt;Node12 -->
<g id="edge124" class="edge"><title>Node36&#45;&gt;Node12</title>
<path fill="none" stroke="midnightblue" d="M1016.3,-258.039C1053.15,-251.527 1101.65,-237.996 1135.56,-210 1153.08,-195.535 1164.23,-171.563 1170.41,-154.408"/>
<polygon fill="midnightblue" stroke="midnightblue" points="1173.78,-155.348 1173.62,-144.754 1167.14,-153.135 1173.78,-155.348"/>
</g>
<!-- Node36&#45;&gt;Node13 -->
<g id="edge126" class="edge"><title>Node36&#45;&gt;Node13</title>
<path fill="none" stroke="midnightblue" d="M962.498,-253.362C960.346,-231.841 955.442,-182.807 952.636,-154.74"/>
<polygon fill="midnightblue" stroke="midnightblue" points="956.118,-154.388 951.64,-144.785 949.153,-155.084 956.118,-154.388"/>
</g>
<!-- Node36&#45;&gt;Node25 -->
<g id="edge116" class="edge"><title>Node36&#45;&gt;Node25</title>
<path fill="none" stroke="midnightblue" d="M954.314,-253.267C945.915,-243.517 933.349,-228.932 923.359,-217.336"/>
<polygon fill="midnightblue" stroke="midnightblue" points="925.816,-214.825 916.637,-209.534 920.512,-219.394 925.816,-214.825"/>
</g>
<!-- Node36&#45;&gt;Node33 -->
<g id="edge120" class="edge"><title>Node36&#45;&gt;Node33</title>
<path fill="none" stroke="midnightblue" d="M943.037,-253.412C922.444,-242.788 890.517,-226.318 867.181,-214.28"/>
<polygon fill="midnightblue" stroke="midnightblue" points="868.569,-211.058 858.077,-209.584 865.36,-217.279 868.569,-211.058"/>
</g>
<!-- Node37 -->
<g id="node96" class="node"><title>Node37</title>
<polygon fill="white" stroke="#bfbfbf" points="1029.06,-188.5 1029.06,-209.5 1088.06,-209.5 1088.06,-188.5 1029.06,-188.5"/>
<text text-anchor="middle" x="1058.56" y="-196.5" font-family="Helvetica,sans-Serif" font-size="10.00">functional</text>
</g>
<!-- Node36&#45;&gt;Node37 -->
<g id="edge118" class="edge"><title>Node36&#45;&gt;Node37</title>
<path fill="none" stroke="midnightblue" d="M979.249,-253.267C994.328,-242.949 1017.32,-227.216 1034.68,-215.342"/>
<polygon fill="midnightblue" stroke="midnightblue" points="1036.89,-218.069 1043.17,-209.534 1032.94,-212.292 1036.89,-218.069"/>
</g>
<!-- Node38&#45;&gt;Node4 -->
<g id="edge138" class="edge"><title>Node38&#45;&gt;Node4</title>
<path fill="none" stroke="midnightblue" d="M1187.46,-195.259C1161.54,-192.934 1127.08,-190.015 1096.56,-188 764.456,-166.072 676.853,-206.774 348.562,-152 341.654,-150.847 334.424,-149.185 327.442,-147.331"/>
<polygon fill="midnightblue" stroke="midnightblue" points="328.029,-143.86 317.455,-144.513 326.129,-150.597 328.029,-143.86"/>
</g>
<!-- Node38&#45;&gt;Node6 -->
<g id="edge146" class="edge"><title>Node38&#45;&gt;Node6</title>
<path fill="none" stroke="midnightblue" d="M1239,-188.307C1255.31,-171.751 1281.49,-139.386 1264.56,-116 1251.43,-97.8604 1191.79,-82.9435 1153.8,-75.0644"/>
<polygon fill="midnightblue" stroke="midnightblue" points="1154.21,-71.5767 1143.71,-73.0319 1152.82,-78.4387 1154.21,-71.5767"/>
</g>
<!-- Node38&#45;&gt;Node10 -->
<g id="edge140" class="edge"><title>Node38&#45;&gt;Node10</title>
<path fill="none" stroke="midnightblue" d="M1187.28,-191.966C1149.51,-184.605 1091.91,-171.395 1044.56,-152 1042.7,-151.239 1040.82,-150.385 1038.95,-149.472"/>
<polygon fill="midnightblue" stroke="midnightblue" points="1040.33,-146.238 1029.86,-144.587 1037.02,-152.404 1040.33,-146.238"/>
</g>
<!-- Node38&#45;&gt;Node12 -->
<g id="edge142" class="edge"><title>Node38&#45;&gt;Node12</title>
<path fill="none" stroke="midnightblue" d="M1219.14,-188.267C1211.56,-178.612 1200.27,-164.215 1191.21,-152.675"/>
<polygon fill="midnightblue" stroke="midnightblue" points="1193.75,-150.241 1184.83,-144.534 1188.25,-154.562 1193.75,-150.241"/>
</g>
<!-- Node38&#45;&gt;Node16 -->
<g id="edge144" class="edge"><title>Node38&#45;&gt;Node16</title>
<path fill="none" stroke="midnightblue" d="M1202.48,-188.412C1175.49,-177.02 1132.57,-158.906 1103.75,-146.742"/>
<polygon fill="midnightblue" stroke="midnightblue" points="1104.77,-143.373 1094.19,-142.709 1102.05,-149.822 1104.77,-143.373"/>
</g>
<!-- Node38&#45;&gt;Node23 -->
<g id="edge136" class="edge"><title>Node38&#45;&gt;Node23</title>
<path fill="none" stroke="midnightblue" d="M1229.38,-188.267C1230.92,-179.18 1233.16,-165.892 1235.05,-154.74"/>
<polygon fill="midnightblue" stroke="midnightblue" points="1238.56,-154.978 1236.78,-144.534 1231.66,-153.809 1238.56,-154.978"/>
</g>
<!-- Node39 -->
<g id="node105" class="node"><title>Node39</title>
<polygon fill="white" stroke="#bfbfbf" points="1437.56,-123.5 1437.56,-144.5 1493.56,-144.5 1493.56,-123.5 1437.56,-123.5"/>
<text text-anchor="middle" x="1465.56" y="-131.5" font-family="Helvetica,sans-Serif" font-size="10.00">Python.h</text>
</g>
<!-- Node38&#45;&gt;Node39 -->
<g id="edge132" class="edge"><title>Node38&#45;&gt;Node39</title>
<path fill="none" stroke="midnightblue" d="M1267.6,-192.364C1308.71,-184.92 1374.19,-171.309 1428.56,-152 1431.28,-151.036 1434.05,-149.93 1436.8,-148.749"/>
<polygon fill="midnightblue" stroke="midnightblue" points="1438.32,-151.906 1445.94,-144.551 1435.39,-145.546 1438.32,-151.906"/>
</g>
<!-- Node40 -->
<g id="node107" class="node"><title>Node40</title>
<polygon fill="white" stroke="#bfbfbf" points="1311.56,-117 1311.56,-151 1419.56,-151 1419.56,-117 1311.56,-117"/>
<text text-anchor="start" x="1319.56" y="-138" font-family="Helvetica,sans-Serif" font-size="10.00">numpy/core/include</text>
<text text-anchor="middle" x="1365.56" y="-125" font-family="Helvetica,sans-Serif" font-size="10.00">/numpy/arrayobject.h</text>
</g>
<!-- Node38&#45;&gt;Node40 -->
<g id="edge134" class="edge"><title>Node38&#45;&gt;Node40</title>
<path fill="none" stroke="midnightblue" d="M1250.04,-188.412C1268.99,-179.488 1296.69,-166.438 1320.22,-155.356"/>
<polygon fill="midnightblue" stroke="midnightblue" points="1321.79,-158.488 1329.34,-151.06 1318.8,-152.155 1321.79,-158.488"/>
</g>
</g>
</svg>
        <g id="navigator" transform="translate(0 0)" fill="#404254">
                <rect fill="#f2f5e9" fill-opacity="0.5" stroke="#606060" stroke-width=".5" x="0" y="0" width="60" height="60"/>
                <use id="zoomplus" xlink:href="#zoomPlus" x="17" y="9" onmousedown="handleZoom(evt,'in')"/>
                <use id="zoomminus" xlink:href="#zoomMin" x="42" y="9" onmousedown="handleZoom(evt,'out')"/>
                <use id="reset" xlink:href="#resetDef" x="30" y="36" onmousedown="handleReset()"/>
                <g id="arrowUp" xlink:href="#dirArrow" transform="translate(30 24)" onmousedown="handlePan(0,-1)">
                  <use xlink:href="#rim" fill="#404040">
                        <set attributeName="fill" to="#808080" begin="arrowUp.mouseover" end="arrowUp.mouseout"/>
                  </use>
                  <path fill="none" stroke="white" stroke-width="1.5" d="M0,-3.0v7 M-2.5,-0.5L0,-3.0L2.5,-0.5"/>
                </g>
                <g id="arrowRight" xlink:href="#dirArrow" transform="rotate(90) translate(36 -43)" onmousedown="handlePan(1,0)">
                  <use xlink:href="#rim" fill="#404040">
                        <set attributeName="fill" to="#808080" begin="arrowRight.mouseover" end="arrowRight.mouseout"/>
                  </use>
                  <path fill="none" stroke="white" stroke-width="1.5" d="M0,-3.0v7 M-2.5,-0.5L0,-3.0L2.5,-0.5"/>
                </g>
                <g id="arrowDown" xlink:href="#dirArrow" transform="rotate(180) translate(-30 -48)" onmousedown="handlePan(0,1)">
                  <use xlink:href="#rim" fill="#404040">
                        <set attributeName="fill" to="#808080" begin="arrowDown.mouseover" end="arrowDown.mouseout"/>
                  </use>
                  <path fill="none" stroke="white" stroke-width="1.5" d="M0,-3.0v7 M-2.5,-0.5L0,-3.0L2.5,-0.5"/>
                </g>
                <g id="arrowLeft" xlink:href="#dirArrow" transform="rotate(270) translate(-36 17)" onmousedown="handlePan(-1,0)">
                  <use xlink:href="#rim" fill="#404040">
                        <set attributeName="fill" to="#808080" begin="arrowLeft.mouseover" end="arrowLeft.mouseout"/>
                  </use>
                  <path fill="none" stroke="white" stroke-width="1.5" d="M0,-3.0v7 M-2.5,-0.5L0,-3.0L2.5,-0.5"/>
                </g>
        </g>
        <svg viewBox="0 0 15 15" width="100%" height="30px" preserveAspectRatio="xMaxYMin meet">
         <g id="arrow_out" transform="scale(0.3 0.3)">
          <a xlink:href="plot__slices_8cpp__incl_org.svg" target="_base">
           <rect id="button" ry="5" rx="5" y="6" x="6" height="38" width="38"
                fill="#f2f5e9" fill-opacity="0.5" stroke="#606060" stroke-width="1.0"/>
           <path id="arrow"
             d="M 11.500037,31.436501 C 11.940474,20.09759 22.043105,11.32322 32.158766,21.979434 L 37.068811,17.246167 C 37.068811,17.246167 37.088388,32 37.088388,32 L 22.160133,31.978069 C 22.160133,31.978069 26.997745,27.140456 26.997745,27.140456 C 18.528582,18.264221 13.291696,25.230495 11.500037,31.436501 z"
             style="fill:#404040;"/>
          </a>
         </g>
        </svg>
</svg>
