<?xml version="1.0" encoding="UTF-8" standalone="no"?>
<!DOCTYPE svg PUBLIC "-//W3C//DTD SVG 1.1//EN"
 "http://www.w3.org/Graphics/SVG/1.1/DTD/svg11.dtd">
<!-- Generated by graphviz version 2.26.3 (20100126.1600)
 -->
<!-- Title: plot_slices.cpp Pages: 1 -->
<!--zoomable 464 -->
<svg id="main" version="1.1" xmlns="http://www.w3.org/2000/svg" xmlns:xlink="http://www.w3.org/1999/xlink" xml:space="preserve" onload="init(evt)">
        <defs>
                <circle id="rim" cx="0" cy="0" r="7"/>
                <circle id="rim2" cx="0" cy="0" r="3.5"/>
                <g id="zoomPlus">
                        <use xlink:href="#rim" fill="#404040">
                                <set attributeName="fill" to="#808080" begin="zoomplus.mouseover" end="zoomplus.mouseout"/>
                        </use>
                        <path d="M-4,0h8M0,-4v8" fill="none" stroke="white" stroke-width="1.5" pointer-events="none"/>
                </g>
                <g id="zoomMin">
                        <use xlink:href="#rim" fill="#404040">
                                <set attributeName="fill" to="#808080" begin="zoomminus.mouseover" end="zoomminus.mouseout"/>
                        </use>
                        <path d="M-4,0h8" fill="none" stroke="white" stroke-width="1.5" pointer-events="none"/>
                </g>
                <g id="dirArrow">
                        <path fill="none" stroke="white" stroke-width="1.5" d="M0,-3.0v7 M-2.5,-0.5L0,-3.0L2.5,-0.5"/>
                </g>
               <g id="resetDef">
                       <use xlink:href="#rim2" fill="#404040">
                               <set attributeName="fill" to="#808080" begin="reset.mouseover" end="reset.mouseout"/>
                       </use>
               </g>
        </defs>

<script type="text/javascript">
var viewWidth = 1062;
var viewHeight = 464;
var sectionId = 'dynsection-0';
</script>
<script xlink:href="../../svgpan.js"/>
<svg id="graph" class="graph">
<g id="viewport">
<title>plot_slices.cpp</title>
<polygon fill="white" stroke="white" points="-4,5 -4,-460 1058.77,-460 1058.77,5 -4,5"/>
<!-- Node1 -->
<g id="node1" class="node"><title>Node1</title>
<polygon fill="#bfbfbf" stroke="black" points="551.772,-434.5 551.772,-455.5 633.772,-455.5 633.772,-434.5 551.772,-434.5"/>
<text text-anchor="middle" x="592.772" y="-442.5" font-family="Helvetica,sans-Serif" font-size="10.00">plot_slices.cpp</text>
</g>
<!-- Node2 -->
<g id="node3" class="node"><title>Node2</title>
<a xlink:href="../../d2/d51/plot__slices_8h.html" target="_top" xlink:title="blond/plots/plot_slices.h">
<polygon fill="white" stroke="black" points="531.772,-376.5 531.772,-397.5 653.772,-397.5 653.772,-376.5 531.772,-376.5"/>
<text text-anchor="middle" x="592.772" y="-384.5" font-family="Helvetica,sans-Serif" font-size="10.00">blond/plots/plot_slices.h</text>
</a>
</g>
<!-- Node1&#45;&gt;Node2 -->
<g id="edge2" class="edge"><title>Node1&#45;&gt;Node2</title>
<path fill="none" stroke="midnightblue" d="M592.772,-434.362C592.772,-426.922 592.772,-416.743 592.772,-407.728"/>
<polygon fill="midnightblue" stroke="midnightblue" points="596.272,-407.571 592.772,-397.571 589.272,-407.571 596.272,-407.571"/>
</g>
<!-- Node7 -->
<g id="node13" class="node"><title>Node7</title>
<a xlink:href="../../de/df0/utilities_8h.html" target="_top" xlink:title="blond/utilities.h">
<polygon fill="white" stroke="black" points="467.772,-116.5 467.772,-137.5 549.772,-137.5 549.772,-116.5 467.772,-116.5"/>
<text text-anchor="middle" x="508.772" y="-124.5" font-family="Helvetica,sans-Serif" font-size="10.00">blond/utilities.h</text>
</a>
</g>
<!-- Node1&#45;&gt;Node7 -->
<g id="edge74" class="edge"><title>Node1&#45;&gt;Node7</title>
<path fill="none" stroke="midnightblue" d="M551.377,-434.811C500.769,-419.587 421.772,-385.631 421.772,-322 421.772,-322 421.772,-322 421.772,-257 421.772,-219.157 419.544,-205.328 440.772,-174 449.667,-160.872 463.553,-150.32 476.463,-142.567"/>
<polygon fill="midnightblue" stroke="midnightblue" points="478.185,-145.614 485.172,-137.649 474.743,-139.519 478.185,-145.614"/>
</g>
<!-- Node22 -->
<g id="node53" class="node"><title>Node22</title>
<a xlink:href="../../d1/da8/python_8h.html" target="_top" xlink:title="blond/python.h">
<polygon fill="white" stroke="black" points="841.772,-376.5 841.772,-397.5 921.772,-397.5 921.772,-376.5 841.772,-376.5"/>
<text text-anchor="middle" x="881.772" y="-384.5" font-family="Helvetica,sans-Serif" font-size="10.00">blond/python.h</text>
</a>
</g>
<!-- Node1&#45;&gt;Node22 -->
<g id="edge62" class="edge"><title>Node1&#45;&gt;Node22</title>
<path fill="none" stroke="midnightblue" d="M633.871,-436.752C685.951,-426.3 775.663,-408.295 831.691,-397.051"/>
<polygon fill="midnightblue" stroke="midnightblue" points="832.628,-400.433 841.743,-395.033 831.25,-393.57 832.628,-400.433"/>
</g>
<!-- Node3 -->
<g id="node5" class="node"><title>Node3</title>
<a xlink:href="../../d5/d34/GeneralParameters_8h.html" target="_top" xlink:title="blond/input_parameters\l/GeneralParameters.h">
<polygon fill="white" stroke="black" points="449.772,-175 449.772,-209 567.772,-209 567.772,-175 449.772,-175"/>
<text text-anchor="start" x="457.772" y="-196" font-family="Helvetica,sans-Serif" font-size="10.00">blond/input_parameters</text>
<text text-anchor="middle" x="508.772" y="-183" font-family="Helvetica,sans-Serif" font-size="10.00">/GeneralParameters.h</text>
</a>
</g>
<!-- Node2&#45;&gt;Node3 -->
<g id="edge4" class="edge"><title>Node2&#45;&gt;Node3</title>
<path fill="none" stroke="midnightblue" d="M567.955,-376.354C552.908,-368.549 534.744,-356.443 524.772,-340 502.353,-303.036 502.401,-251.187 505.127,-219.689"/>
<polygon fill="midnightblue" stroke="midnightblue" points="508.638,-219.757 506.17,-209.454 501.674,-219.047 508.638,-219.757"/>
</g>
<!-- Node19 -->
<g id="node40" class="node"><title>Node19</title>
<a xlink:href="../../d6/db7/RfParameters_8h.html" target="_top" xlink:title="blond/input_parameters\l/RfParameters.h">
<polygon fill="white" stroke="black" points="533.772,-305 533.772,-339 651.772,-339 651.772,-305 533.772,-305"/>
<text text-anchor="start" x="541.772" y="-326" font-family="Helvetica,sans-Serif" font-size="10.00">blond/input_parameters</text>
<text text-anchor="middle" x="592.772" y="-313" font-family="Helvetica,sans-Serif" font-size="10.00">/RfParameters.h</text>
</a>
</g>
<!-- Node2&#45;&gt;Node19 -->
<g id="edge42" class="edge"><title>Node2&#45;&gt;Node19</title>
<path fill="none" stroke="midnightblue" d="M592.772,-376.267C592.772,-368.931 592.772,-358.857 592.772,-349.38"/>
<polygon fill="midnightblue" stroke="midnightblue" points="596.272,-349.11 592.772,-339.11 589.272,-349.11 596.272,-349.11"/>
</g>
<!-- Node21 -->
<g id="node49" class="node"><title>Node21</title>
<a xlink:href="../../dc/df2/Slices_8h.html" target="_top" xlink:title="blond/beams/Slices.h">
<polygon fill="white" stroke="black" points="661.772,-181.5 661.772,-202.5 771.772,-202.5 771.772,-181.5 661.772,-181.5"/>
<text text-anchor="middle" x="716.772" y="-189.5" font-family="Helvetica,sans-Serif" font-size="10.00">blond/beams/Slices.h</text>
</a>
</g>
<!-- Node2&#45;&gt;Node21 -->
<g id="edge56" class="edge"><title>Node2&#45;&gt;Node21</title>
<path fill="none" stroke="midnightblue" d="M614.697,-376.367C629.489,-368.217 648.48,-355.711 660.772,-340 691.376,-300.88 706.684,-243.198 713.036,-212.684"/>
<polygon fill="midnightblue" stroke="midnightblue" points="716.493,-213.243 714.983,-202.756 709.624,-211.896 716.493,-213.243"/>
</g>
<!-- Node4 -->
<g id="node7" class="node"><title>Node4</title>
<a xlink:href="../../d2/d2c/configuration_8h.html" target="_top" xlink:title="blond/configuration.h">
<polygon fill="white" stroke="black" points="856.272,-58.5 856.272,-79.5 963.272,-79.5 963.272,-58.5 856.272,-58.5"/>
<text text-anchor="middle" x="909.772" y="-66.5" font-family="Helvetica,sans-Serif" font-size="10.00">blond/configuration.h</text>
</a>
</g>
<!-- Node3&#45;&gt;Node4 -->
<g id="edge6" class="edge"><title>Node3&#45;&gt;Node4</title>
<path fill="none" stroke="midnightblue" d="M528.07,-174.767C549.069,-157.032 584.397,-130.067 619.772,-116 712.121,-79.2765 744.564,-95.8375 845.98,-80.217"/>
<polygon fill="midnightblue" stroke="midnightblue" points="846.697,-83.6467 856.014,-78.602 845.585,-76.7356 846.697,-83.6467"/>
</g>
<!-- Node6 -->
<g id="node11" class="node"><title>Node6</title>
<polygon fill="white" stroke="#bfbfbf" points="620.772,-0.5 620.772,-21.5 664.772,-21.5 664.772,-0.5 620.772,-0.5"/>
<text text-anchor="middle" x="642.772" y="-8.5" font-family="Helvetica,sans-Serif" font-size="10.00">vector</text>
</g>
<!-- Node3&#45;&gt;Node6 -->
<g id="edge40" class="edge"><title>Node3&#45;&gt;Node6</title>
<path fill="none" stroke="midnightblue" d="M449.565,-186.216C304.015,-170.871 -55.0309,-125.623 7.77162,-58 28.4898,-35.6916 483.91,-16.9686 610.426,-12.1839"/>
<polygon fill="midnightblue" stroke="midnightblue" points="610.77,-15.6736 620.632,-11.8014 610.507,-8.67854 610.77,-15.6736"/>
</g>
<!-- Node3&#45;&gt;Node7 -->
<g id="edge12" class="edge"><title>Node3&#45;&gt;Node7</title>
<path fill="none" stroke="midnightblue" d="M508.772,-174.922C508.772,-166.67 508.772,-156.692 508.772,-147.982"/>
<polygon fill="midnightblue" stroke="midnightblue" points="512.272,-147.852 508.772,-137.852 505.272,-147.852 512.272,-147.852"/>
</g>
<!-- Node5 -->
<g id="node9" class="node"><title>Node5</title>
<polygon fill="white" stroke="#bfbfbf" points="883.272,-0.5 883.272,-21.5 936.272,-21.5 936.272,-0.5 883.272,-0.5"/>
<text text-anchor="middle" x="909.772" y="-8.5" font-family="Helvetica,sans-Serif" font-size="10.00">complex</text>
</g>
<!-- Node4&#45;&gt;Node5 -->
<g id="edge8" class="edge"><title>Node4&#45;&gt;Node5</title>
<path fill="none" stroke="midnightblue" d="M909.772,-58.3619C909.772,-50.9219 909.772,-40.7427 909.772,-31.7276"/>
<polygon fill="midnightblue" stroke="midnightblue" points="913.272,-31.5706 909.772,-21.5707 906.272,-31.5707 913.272,-31.5706"/>
</g>
<!-- Node4&#45;&gt;Node6 -->
<g id="edge10" class="edge"><title>Node4&#45;&gt;Node6</title>
<path fill="none" stroke="midnightblue" d="M861.42,-58.4966C807.212,-46.7211 720.858,-27.9625 674.56,-17.9053"/>
<polygon fill="midnightblue" stroke="midnightblue" points="675.289,-14.4821 664.774,-15.7795 673.803,-21.3226 675.289,-14.4821"/>
</g>
<!-- Node7&#45;&gt;Node4 -->
<g id="edge34" class="edge"><title>Node7&#45;&gt;Node4</title>
<path fill="none" stroke="midnightblue" d="M550.046,-119.656C557.597,-118.384 565.415,-117.113 572.772,-116 691.435,-98.0426 724.231,-98.7211 845.941,-80.234"/>
<polygon fill="midnightblue" stroke="midnightblue" points="846.673,-83.6628 856.028,-78.6891 845.613,-76.7434 846.673,-83.6628"/>
</g>
<!-- Node7&#45;&gt;Node6 -->
<g id="edge32" class="edge"><title>Node7&#45;&gt;Node6</title>
<path fill="none" stroke="midnightblue" d="M549.998,-119.663C574.664,-113.215 604.804,-101.376 623.772,-80 635.469,-66.8172 640.037,-47.0599 641.785,-32.0608"/>
<polygon fill="midnightblue" stroke="midnightblue" points="645.305,-31.961 642.643,-21.706 638.329,-31.3827 645.305,-31.961"/>
</g>
<!-- Node8 -->
<g id="node15" class="node"><title>Node8</title>
<polygon fill="white" stroke="#bfbfbf" points="670.772,-58.5 670.772,-79.5 716.772,-79.5 716.772,-58.5 670.772,-58.5"/>
<text text-anchor="middle" x="693.772" y="-66.5" font-family="Helvetica,sans-Serif" font-size="10.00">chrono</text>
</g>
<!-- Node7&#45;&gt;Node8 -->
<g id="edge14" class="edge"><title>Node7&#45;&gt;Node8</title>
<path fill="none" stroke="midnightblue" d="M542.274,-116.497C575.961,-105.935 627.567,-89.7561 660.995,-79.276"/>
<polygon fill="midnightblue" stroke="midnightblue" points="662.25,-82.5505 670.745,-76.2191 660.156,-75.871 662.25,-82.5505"/>
</g>
<!-- Node9 -->
<g id="node17" class="node"><title>Node9</title>
<polygon fill="white" stroke="#bfbfbf" points="734.272,-58.5 734.272,-79.5 777.272,-79.5 777.272,-58.5 734.272,-58.5"/>
<text text-anchor="middle" x="755.772" y="-66.5" font-family="Helvetica,sans-Serif" font-size="10.00">cstdio</text>
</g>
<!-- Node7&#45;&gt;Node9 -->
<g id="edge16" class="edge"><title>Node7&#45;&gt;Node9</title>
<path fill="none" stroke="midnightblue" d="M549.988,-119.83C591.893,-112.152 658.788,-98.8309 724.566,-80.0952"/>
<polygon fill="midnightblue" stroke="midnightblue" points="725.626,-83.4322 734.26,-77.2916 723.681,-76.7077 725.626,-83.4322"/>
</g>
<!-- Node10 -->
<g id="node19" class="node"><title>Node10</title>
<polygon fill="white" stroke="#bfbfbf" points="794.272,-58.5 794.272,-79.5 839.272,-79.5 839.272,-58.5 794.272,-58.5"/>
<text text-anchor="middle" x="816.772" y="-66.5" font-family="Helvetica,sans-Serif" font-size="10.00">cstdlib</text>
</g>
<!-- Node7&#45;&gt;Node10 -->
<g id="edge18" class="edge"><title>Node7&#45;&gt;Node10</title>
<path fill="none" stroke="midnightblue" d="M550.082,-119.882C557.63,-118.587 565.437,-117.25 572.772,-116 664.273,-100.404 691.083,-103.883 784.373,-80.0628"/>
<polygon fill="midnightblue" stroke="midnightblue" points="785.423,-83.4065 794.226,-77.5102 783.668,-76.6302 785.423,-83.4065"/>
</g>
<!-- Node11 -->
<g id="node21" class="node"><title>Node11</title>
<polygon fill="white" stroke="#bfbfbf" points="16.7716,-58.5 16.7716,-79.5 66.7716,-79.5 66.7716,-58.5 16.7716,-58.5"/>
<text text-anchor="middle" x="41.7716" y="-66.5" font-family="Helvetica,sans-Serif" font-size="10.00">fstream</text>
</g>
<!-- Node7&#45;&gt;Node11 -->
<g id="edge20" class="edge"><title>Node7&#45;&gt;Node11</title>
<path fill="none" stroke="midnightblue" d="M467.736,-125.344C392.061,-121.69 225.452,-110.839 77.0647,-79.916"/>
<polygon fill="midnightblue" stroke="midnightblue" points="77.3751,-76.404 66.8664,-77.7525 75.9223,-83.2516 77.3751,-76.404"/>
</g>
<!-- Node12 -->
<g id="node23" class="node"><title>Node12</title>
<polygon fill="white" stroke="#bfbfbf" points="84.7716,-58.5 84.7716,-79.5 138.772,-79.5 138.772,-58.5 84.7716,-58.5"/>
<text text-anchor="middle" x="111.772" y="-66.5" font-family="Helvetica,sans-Serif" font-size="10.00">iostream</text>
</g>
<!-- Node7&#45;&gt;Node12 -->
<g id="edge22" class="edge"><title>Node7&#45;&gt;Node12</title>
<path fill="none" stroke="midnightblue" d="M467.515,-123.886C401.905,-118.445 269.694,-105.486 149.289,-80.0602"/>
<polygon fill="midnightblue" stroke="midnightblue" points="149.676,-76.5636 139.164,-77.8862 148.207,-83.4076 149.676,-76.5636"/>
</g>
<!-- Node13 -->
<g id="node25" class="node"><title>Node13</title>
<polygon fill="white" stroke="#bfbfbf" points="156.272,-58.5 156.272,-79.5 203.272,-79.5 203.272,-58.5 156.272,-58.5"/>
<text text-anchor="middle" x="179.772" y="-66.5" font-family="Helvetica,sans-Serif" font-size="10.00">iterator</text>
</g>
<!-- Node7&#45;&gt;Node13 -->
<g id="edge24" class="edge"><title>Node7&#45;&gt;Node13</title>
<path fill="none" stroke="midnightblue" d="M467.483,-122.768C411.617,-116.539 308.806,-103.305 213.22,-80.0655"/>
<polygon fill="midnightblue" stroke="midnightblue" points="213.947,-76.64 203.399,-77.6356 212.266,-83.4351 213.947,-76.64"/>
</g>
<!-- Node14 -->
<g id="node27" class="node"><title>Node14</title>
<polygon fill="white" stroke="#bfbfbf" points="220.772,-58.5 220.772,-79.5 272.772,-79.5 272.772,-58.5 220.772,-58.5"/>
<text text-anchor="middle" x="246.772" y="-66.5" font-family="Helvetica,sans-Serif" font-size="10.00">memory</text>
</g>
<!-- Node7&#45;&gt;Node14 -->
<g id="edge26" class="edge"><title>Node7&#45;&gt;Node14</title>
<path fill="none" stroke="midnightblue" d="M467.477,-119.739C423.817,-111.777 352.783,-98.0153 282.912,-80.1255"/>
<polygon fill="midnightblue" stroke="midnightblue" points="283.621,-76.6939 273.063,-77.574 281.866,-83.4702 283.621,-76.6939"/>
</g>
<!-- Node15 -->
<g id="node29" class="node"><title>Node15</title>
<polygon fill="white" stroke="#bfbfbf" points="290.772,-58.5 290.772,-79.5 342.772,-79.5 342.772,-58.5 290.772,-58.5"/>
<text text-anchor="middle" x="316.772" y="-66.5" font-family="Helvetica,sans-Serif" font-size="10.00">sstream</text>
</g>
<!-- Node7&#45;&gt;Node15 -->
<g id="edge28" class="edge"><title>Node7&#45;&gt;Node15</title>
<path fill="none" stroke="midnightblue" d="M473.188,-116.498C443.392,-107.671 399.503,-94.5909 352.818,-80.2977"/>
<polygon fill="midnightblue" stroke="midnightblue" points="353.72,-76.9134 343.133,-77.3273 351.667,-83.6057 353.72,-76.9134"/>
</g>
<!-- Node16 -->
<g id="node31" class="node"><title>Node16</title>
<polygon fill="white" stroke="#bfbfbf" points="360.272,-58.5 360.272,-79.5 401.272,-79.5 401.272,-58.5 360.272,-58.5"/>
<text text-anchor="middle" x="380.772" y="-66.5" font-family="Helvetica,sans-Serif" font-size="10.00">string</text>
</g>
<!-- Node7&#45;&gt;Node16 -->
<g id="edge30" class="edge"><title>Node7&#45;&gt;Node16</title>
<path fill="none" stroke="midnightblue" d="M485.592,-116.497C464.663,-107.013 433.74,-93.0011 410.9,-82.6521"/>
<polygon fill="midnightblue" stroke="midnightblue" points="412.213,-79.4044 401.66,-78.465 409.324,-85.7803 412.213,-79.4044"/>
</g>
<!-- Node17 -->
<g id="node35" class="node"><title>Node17</title>
<polygon fill="white" stroke="#bfbfbf" points="418.272,-58.5 418.272,-79.5 493.272,-79.5 493.272,-58.5 418.272,-58.5"/>
<text text-anchor="middle" x="455.772" y="-66.5" font-family="Helvetica,sans-Serif" font-size="10.00">mm_malloc.h</text>
</g>
<!-- Node7&#45;&gt;Node17 -->
<g id="edge36" class="edge"><title>Node7&#45;&gt;Node17</title>
<path fill="none" stroke="midnightblue" d="M499.051,-116.362C491.58,-108.186 481.086,-96.7025 472.303,-87.0907"/>
<polygon fill="midnightblue" stroke="midnightblue" points="474.76,-84.5918 465.431,-79.5707 469.593,-89.3138 474.76,-84.5918"/>
</g>
<!-- Node18 -->
<g id="node37" class="node"><title>Node18</title>
<a xlink:href="../../da/d69/optionparser_8h.html" target="_top" xlink:title="This is the only file required to use The Lean Mean C++ Option Parser. Just #include it and you&#39;re se...">
<polygon fill="white" stroke="black" points="510.772,-58.5 510.772,-79.5 614.772,-79.5 614.772,-58.5 510.772,-58.5"/>
<text text-anchor="middle" x="562.772" y="-66.5" font-family="Helvetica,sans-Serif" font-size="10.00">blond/optionparser.h</text>
</a>
</g>
<!-- Node7&#45;&gt;Node18 -->
<g id="edge38" class="edge"><title>Node7&#45;&gt;Node18</title>
<path fill="none" stroke="midnightblue" d="M518.676,-116.362C526.288,-108.186 536.98,-96.7025 545.929,-87.0907"/>
<polygon fill="midnightblue" stroke="midnightblue" points="548.677,-89.2746 552.93,-79.5707 543.554,-84.5046 548.677,-89.2746"/>
</g>
<!-- Node19&#45;&gt;Node3 -->
<g id="edge54" class="edge"><title>Node19&#45;&gt;Node3</title>
<path fill="none" stroke="midnightblue" d="M565.667,-304.958C552.737,-295.534 538.092,-282.747 528.772,-268 519.473,-253.288 514.476,-234.367 511.801,-219.085"/>
<polygon fill="midnightblue" stroke="midnightblue" points="515.259,-218.544 510.297,-209.183 508.339,-219.595 515.259,-218.544"/>
</g>
<!-- Node20 -->
<g id="node42" class="node"><title>Node20</title>
<a xlink:href="../../d7/d74/Beams_8h.html" target="_top" xlink:title="blond/beams/Beams.h">
<polygon fill="white" stroke="black" points="537.772,-246.5 537.772,-267.5 651.772,-267.5 651.772,-246.5 537.772,-246.5"/>
<text text-anchor="middle" x="594.772" y="-254.5" font-family="Helvetica,sans-Serif" font-size="10.00">blond/beams/Beams.h</text>
</a>
</g>
<!-- Node19&#45;&gt;Node20 -->
<g id="edge44" class="edge"><title>Node19&#45;&gt;Node20</title>
<path fill="none" stroke="midnightblue" d="M587.274,-304.922C586.687,-296.67 586.883,-286.692 587.768,-277.982"/>
<polygon fill="midnightblue" stroke="midnightblue" points="591.265,-278.254 589.251,-267.852 584.339,-277.24 591.265,-278.254"/>
</g>
<!-- Node20&#45;&gt;Node3 -->
<g id="edge50" class="edge"><title>Node20&#45;&gt;Node3</title>
<path fill="none" stroke="midnightblue" d="M580.57,-246.267C569.404,-237.827 553.442,-225.762 539.402,-215.151"/>
<polygon fill="midnightblue" stroke="midnightblue" points="541.497,-212.347 531.409,-209.11 537.277,-217.932 541.497,-212.347"/>
</g>
<!-- Node20&#45;&gt;Node4 -->
<g id="edge46" class="edge"><title>Node20&#45;&gt;Node4</title>
<path fill="none" stroke="midnightblue" d="M599.681,-246.356C608.187,-228.98 627.232,-194.417 652.772,-174 712.792,-126.02 797.729,-97.0775 853.27,-82.0694"/>
<polygon fill="midnightblue" stroke="midnightblue" points="854.17,-85.452 862.945,-79.5157 852.383,-78.6838 854.17,-85.452"/>
</g>
<!-- Node20&#45;&gt;Node7 -->
<g id="edge48" class="edge"><title>Node20&#45;&gt;Node7</title>
<path fill="none" stroke="midnightblue" d="M594.882,-246.347C594.558,-229.561 591.861,-196.547 576.772,-174 567.952,-160.821 554.077,-150.263 541.153,-142.518"/>
<polygon fill="midnightblue" stroke="midnightblue" points="542.864,-139.464 532.433,-137.608 539.429,-145.564 542.864,-139.464"/>
</g>
<!-- Node20&#45;&gt;Node19 -->
<g id="edge52" class="edge"><title>Node20&#45;&gt;Node19</title>
<path fill="none" stroke="midnightblue" d="M599.625,-267.852C600.672,-275.195 600.858,-285.242 600.285,-294.688"/>
<polygon fill="midnightblue" stroke="midnightblue" points="596.774,-294.638 599.32,-304.922 603.743,-295.295 596.774,-294.638"/>
</g>
<!-- Node21&#45;&gt;Node4 -->
<g id="edge58" class="edge"><title>Node21&#45;&gt;Node4</title>
<path fill="none" stroke="midnightblue" d="M733.561,-181.3C767.51,-159.664 844.475,-110.614 884.512,-85.0981"/>
<polygon fill="midnightblue" stroke="midnightblue" points="886.606,-87.914 893.158,-79.588 882.844,-82.0108 886.606,-87.914"/>
</g>
<!-- Node21&#45;&gt;Node7 -->
<g id="edge60" class="edge"><title>Node21&#45;&gt;Node7</title>
<path fill="none" stroke="midnightblue" d="M682.89,-181.412C647.384,-170.316 591.468,-152.843 552.618,-140.702"/>
<polygon fill="midnightblue" stroke="midnightblue" points="553.228,-137.226 542.639,-137.584 551.14,-143.907 553.228,-137.226"/>
</g>
<!-- Node22&#45;&gt;Node4 -->
<g id="edge70" class="edge"><title>Node22&#45;&gt;Node4</title>
<path fill="none" stroke="midnightblue" d="M905.716,-376.432C920.88,-368.528 939.659,-356.281 950.772,-340 972.106,-308.744 969.772,-294.843 969.772,-257 969.772,-257 969.772,-257 969.772,-192 969.772,-151.55 943.235,-110.501 925.458,-87.5407"/>
<polygon fill="midnightblue" stroke="midnightblue" points="928.131,-85.2802 919.147,-79.6654 922.669,-89.6576 928.131,-85.2802"/>
</g>
<!-- Node23 -->
<g id="node55" class="node"><title>Node23</title>
<polygon fill="white" stroke="#bfbfbf" points="997.772,-311.5 997.772,-332.5 1053.77,-332.5 1053.77,-311.5 997.772,-311.5"/>
<text text-anchor="middle" x="1025.77" y="-319.5" font-family="Helvetica,sans-Serif" font-size="10.00">Python.h</text>
</g>
<!-- Node22&#45;&gt;Node23 -->
<g id="edge64" class="edge"><title>Node22&#45;&gt;Node23</title>
<path fill="none" stroke="midnightblue" d="M905.228,-376.412C929.077,-365.647 966.227,-348.878 992.982,-336.801"/>
<polygon fill="midnightblue" stroke="midnightblue" points="994.651,-339.888 1002.33,-332.584 991.771,-333.508 994.651,-339.888"/>
</g>
<!-- Node24 -->
<g id="node57" class="node"><title>Node24</title>
<polygon fill="white" stroke="#bfbfbf" points="707.772,-305 707.772,-339 815.772,-339 815.772,-305 707.772,-305"/>
<text text-anchor="start" x="715.772" y="-326" font-family="Helvetica,sans-Serif" font-size="10.00">numpy/core/include</text>
<text text-anchor="middle" x="761.772" y="-313" font-family="Helvetica,sans-Serif" font-size="10.00">/numpy/arrayobject.h</text>
</g>
<!-- Node22&#45;&gt;Node24 -->
<g id="edge66" class="edge"><title>Node22&#45;&gt;Node24</title>
<path fill="none" stroke="midnightblue" d="M862.224,-376.412C846.099,-367.677 822.675,-354.99 802.503,-344.063"/>
<polygon fill="midnightblue" stroke="midnightblue" points="803.961,-340.872 793.501,-339.187 800.627,-347.027 803.961,-340.872"/>
</g>
<!-- Node25 -->
<g id="node59" class="node"><title>Node25</title>
<polygon fill="white" stroke="#bfbfbf" points="833.272,-311.5 833.272,-332.5 868.272,-332.5 868.272,-311.5 833.272,-311.5"/>
<text text-anchor="middle" x="850.772" y="-319.5" font-family="Helvetica,sans-Serif" font-size="10.00">map</text>
</g>
<!-- Node22&#45;&gt;Node25 -->
<g id="edge68" class="edge"><title>Node22&#45;&gt;Node25</title>
<path fill="none" stroke="midnightblue" d="M876.653,-376.267C872.184,-366.896 865.584,-353.057 860.167,-341.7"/>
<polygon fill="midnightblue" stroke="midnightblue" points="863.259,-340.053 855.795,-332.534 856.941,-343.066 863.259,-340.053"/>
</g>
<!-- Node26 -->
<g id="node62" class="node"><title>Node26</title>
<polygon fill="white" stroke="#bfbfbf" points="885.772,-311.5 885.772,-332.5 941.772,-332.5 941.772,-311.5 885.772,-311.5"/>
<text text-anchor="middle" x="913.772" y="-319.5" font-family="Helvetica,sans-Serif" font-size="10.00">algorithm</text>
</g>
<!-- Node22&#45;&gt;Node26 -->
<g id="edge72" class="edge"><title>Node22&#45;&gt;Node26</title>
<path fill="none" stroke="midnightblue" d="M887.056,-376.267C891.669,-366.896 898.482,-353.057 904.073,-341.7"/>
<polygon fill="midnightblue" stroke="midnightblue" points="907.309,-343.051 908.586,-332.534 901.029,-339.96 907.309,-343.051"/>
</g>
</g>
</svg>
        <g id="navigator" transform="translate(0 0)" fill="#404254">
                <rect fill="#f2f5e9" fill-opacity="0.5" stroke="#606060" stroke-width=".5" x="0" y="0" width="60" height="60"/>
                <use id="zoomplus" xlink:href="#zoomPlus" x="17" y="9" onmousedown="handleZoom(evt,'in')"/>
                <use id="zoomminus" xlink:href="#zoomMin" x="42" y="9" onmousedown="handleZoom(evt,'out')"/>
                <use id="reset" xlink:href="#resetDef" x="30" y="36" onmousedown="handleReset()"/>
                <g id="arrowUp" xlink:href="#dirArrow" transform="translate(30 24)" onmousedown="handlePan(0,-1)">
                  <use xlink:href="#rim" fill="#404040">
                        <set attributeName="fill" to="#808080" begin="arrowUp.mouseover" end="arrowUp.mouseout"/>
                  </use>
                  <path fill="none" stroke="white" stroke-width="1.5" d="M0,-3.0v7 M-2.5,-0.5L0,-3.0L2.5,-0.5"/>
                </g>
                <g id="arrowRight" xlink:href="#dirArrow" transform="rotate(90) translate(36 -43)" onmousedown="handlePan(1,0)">
                  <use xlink:href="#rim" fill="#404040">
                        <set attributeName="fill" to="#808080" begin="arrowRight.mouseover" end="arrowRight.mouseout"/>
                  </use>
                  <path fill="none" stroke="white" stroke-width="1.5" d="M0,-3.0v7 M-2.5,-0.5L0,-3.0L2.5,-0.5"/>
                </g>
                <g id="arrowDown" xlink:href="#dirArrow" transform="rotate(180) translate(-30 -48)" onmousedown="handlePan(0,1)">
                  <use xlink:href="#rim" fill="#404040">
                        <set attributeName="fill" to="#808080" begin="arrowDown.mouseover" end="arrowDown.mouseout"/>
                  </use>
                  <path fill="none" stroke="white" stroke-width="1.5" d="M0,-3.0v7 M-2.5,-0.5L0,-3.0L2.5,-0.5"/>
                </g>
                <g id="arrowLeft" xlink:href="#dirArrow" transform="rotate(270) translate(-36 17)" onmousedown="handlePan(-1,0)">
                  <use xlink:href="#rim" fill="#404040">
                        <set attributeName="fill" to="#808080" begin="arrowLeft.mouseover" end="arrowLeft.mouseout"/>
                  </use>
                  <path fill="none" stroke="white" stroke-width="1.5" d="M0,-3.0v7 M-2.5,-0.5L0,-3.0L2.5,-0.5"/>
                </g>
        </g>
        <svg viewBox="0 0 15 15" width="100%" height="30px" preserveAspectRatio="xMaxYMin meet">
         <g id="arrow_out" transform="scale(0.3 0.3)">
          <a xlink:href="plot__slices_8cpp__incl_org.svg" target="_base">
           <rect id="button" ry="5" rx="5" y="6" x="6" height="38" width="38"
                fill="#f2f5e9" fill-opacity="0.5" stroke="#606060" stroke-width="1.0"/>
           <path id="arrow"
             d="M 11.500037,31.436501 C 11.940474,20.09759 22.043105,11.32322 32.158766,21.979434 L 37.068811,17.246167 C 37.068811,17.246167 37.088388,32 37.088388,32 L 22.160133,31.978069 C 22.160133,31.978069 26.997745,27.140456 26.997745,27.140456 C 18.528582,18.264221 13.291696,25.230495 11.500037,31.436501 z"
             style="fill:#404040;"/>
          </a>
         </g>
        </svg>
</svg>
