<?xml version="1.0" encoding="UTF-8" standalone="no"?>
<!DOCTYPE svg PUBLIC "-//W3C//DTD SVG 1.1//EN"
 "http://www.w3.org/Graphics/SVG/1.1/DTD/svg11.dtd">
<!-- Generated by graphviz version 2.26.3 (20100126.1600)
 -->
<!-- Title: plot_slices.cpp Pages: 1 -->
<!--zoomable 594 -->
<svg id="main" version="1.1" xmlns="http://www.w3.org/2000/svg" xmlns:xlink="http://www.w3.org/1999/xlink" xml:space="preserve" onload="init(evt)">
        <defs>
                <circle id="rim" cx="0" cy="0" r="7"/>
                <circle id="rim2" cx="0" cy="0" r="3.5"/>
                <g id="zoomPlus">
                        <use xlink:href="#rim" fill="#404040">
                                <set attributeName="fill" to="#808080" begin="zoomplus.mouseover" end="zoomplus.mouseout"/>
                        </use>
                        <path d="M-4,0h8M0,-4v8" fill="none" stroke="white" stroke-width="1.5" pointer-events="none"/>
                </g>
                <g id="zoomMin">
                        <use xlink:href="#rim" fill="#404040">
                                <set attributeName="fill" to="#808080" begin="zoomminus.mouseover" end="zoomminus.mouseout"/>
                        </use>
                        <path d="M-4,0h8" fill="none" stroke="white" stroke-width="1.5" pointer-events="none"/>
                </g>
                <g id="dirArrow">
                        <path fill="none" stroke="white" stroke-width="1.5" d="M0,-3.0v7 M-2.5,-0.5L0,-3.0L2.5,-0.5"/>
                </g>
               <g id="resetDef">
                       <use xlink:href="#rim2" fill="#404040">
                               <set attributeName="fill" to="#808080" begin="reset.mouseover" end="reset.mouseout"/>
                       </use>
               </g>
        </defs>

<script type="text/javascript">
var viewWidth = 1778;
var viewHeight = 594;
var sectionId = 'dynsection-0';
</script>
<script xlink:href="../../svgpan.js"/>
<svg id="graph" class="graph">
<g id="viewport">
<title>plot_slices.cpp</title>
<polygon fill="white" stroke="white" points="-4,5 -4,-590 1775,-590 1775,5 -4,5"/>
<!-- Node1 -->
<g id="node1" class="node"><title>Node1</title>
<polygon fill="#bfbfbf" stroke="black" points="1235,-564.5 1235,-585.5 1317,-585.5 1317,-564.5 1235,-564.5"/>
<text text-anchor="middle" x="1276" y="-572.5" font-family="Helvetica,sans-Serif" font-size="10.00">plot_slices.cpp</text>
</g>
<!-- Node2 -->
<g id="node3" class="node"><title>Node2</title>
<a xlink:href="../../d2/d51/plot__slices_8h.html" target="_top" xlink:title="blond/plots/plot_slices.h">
<polygon fill="white" stroke="black" points="1215,-506.5 1215,-527.5 1337,-527.5 1337,-506.5 1215,-506.5"/>
<text text-anchor="middle" x="1276" y="-514.5" font-family="Helvetica,sans-Serif" font-size="10.00">blond/plots/plot_slices.h</text>
</a>
</g>
<!-- Node1&#45;&gt;Node2 -->
<g id="edge2" class="edge"><title>Node1&#45;&gt;Node2</title>
<path fill="none" stroke="midnightblue" d="M1276,-564.362C1276,-556.922 1276,-546.743 1276,-537.728"/>
<polygon fill="midnightblue" stroke="midnightblue" points="1279.5,-537.571 1276,-527.571 1272.5,-537.571 1279.5,-537.571"/>
</g>
<!-- Node7 -->
<g id="node13" class="node"><title>Node7</title>
<a xlink:href="../../de/df0/utilities_8h.html" target="_top" xlink:title="blond/utilities.h">
<polygon fill="white" stroke="black" points="970,-181.5 970,-202.5 1052,-202.5 1052,-181.5 970,-181.5"/>
<text text-anchor="middle" x="1011" y="-189.5" font-family="Helvetica,sans-Serif" font-size="10.00">blond/utilities.h</text>
</a>
</g>
<!-- Node1&#45;&gt;Node7 -->
<g id="edge142" class="edge"><title>Node1&#45;&gt;Node7</title>
<path fill="none" stroke="midnightblue" d="M1234.83,-565.634C1158.11,-546.98 1001,-502.601 1001,-452 1001,-452 1001,-452 1001,-329 1001,-287.683 1005.58,-239.543 1008.54,-212.738"/>
<polygon fill="midnightblue" stroke="midnightblue" points="1012.04,-212.971 1009.69,-202.639 1005.08,-212.178 1012.04,-212.971"/>
</g>
<!-- Node38 -->
<g id="node103" class="node"><title>Node38</title>
<a xlink:href="../../d1/da8/python_8h.html" target="_top" xlink:title="blond/python.h">
<polygon fill="white" stroke="black" points="1552,-253.5 1552,-274.5 1632,-274.5 1632,-253.5 1552,-253.5"/>
<text text-anchor="middle" x="1592" y="-261.5" font-family="Helvetica,sans-Serif" font-size="10.00">blond/python.h</text>
</a>
</g>
<!-- Node1&#45;&gt;Node38 -->
<g id="edge130" class="edge"><title>Node1&#45;&gt;Node38</title>
<path fill="none" stroke="midnightblue" d="M1317.12,-567.979C1402.89,-552.166 1593,-510.516 1593,-452 1593,-452 1593,-452 1593,-387 1593,-351.051 1592.57,-309.194 1592.27,-284.744"/>
<polygon fill="midnightblue" stroke="midnightblue" points="1595.77,-284.485 1592.14,-274.53 1588.77,-284.573 1595.77,-284.485"/>
</g>
<!-- Node3 -->
<g id="node5" class="node"><title>Node3</title>
<a xlink:href="../../d5/d34/GeneralParameters_8h.html" target="_top" xlink:title="blond/input_parameters\l/GeneralParameters.h">
<polygon fill="white" stroke="black" points="1181,-247 1181,-281 1299,-281 1299,-247 1181,-247"/>
<text text-anchor="start" x="1189" y="-268" font-family="Helvetica,sans-Serif" font-size="10.00">blond/input_parameters</text>
<text text-anchor="middle" x="1240" y="-255" font-family="Helvetica,sans-Serif" font-size="10.00">/GeneralParameters.h</text>
</a>
</g>
<!-- Node2&#45;&gt;Node3 -->
<g id="edge4" class="edge"><title>Node2&#45;&gt;Node3</title>
<path fill="none" stroke="midnightblue" d="M1251.11,-506.4C1236.03,-498.614 1217.86,-486.51 1208,-470 1173.33,-411.938 1179.64,-382.165 1201,-318 1204.4,-307.796 1210.47,-297.879 1216.83,-289.387"/>
<polygon fill="midnightblue" stroke="midnightblue" points="1219.7,-291.412 1223.2,-281.413 1214.22,-287.045 1219.7,-291.412"/>
</g>
<!-- Node19 -->
<g id="node40" class="node"><title>Node19</title>
<a xlink:href="../../d6/db7/RfParameters_8h.html" target="_top" xlink:title="blond/input_parameters\l/RfParameters.h">
<polygon fill="white" stroke="black" points="1217,-435 1217,-469 1335,-469 1335,-435 1217,-435"/>
<text text-anchor="start" x="1225" y="-456" font-family="Helvetica,sans-Serif" font-size="10.00">blond/input_parameters</text>
<text text-anchor="middle" x="1276" y="-443" font-family="Helvetica,sans-Serif" font-size="10.00">/RfParameters.h</text>
</a>
</g>
<!-- Node2&#45;&gt;Node19 -->
<g id="edge42" class="edge"><title>Node2&#45;&gt;Node19</title>
<path fill="none" stroke="midnightblue" d="M1276,-506.267C1276,-498.931 1276,-488.857 1276,-479.38"/>
<polygon fill="midnightblue" stroke="midnightblue" points="1279.5,-479.11 1276,-469.11 1272.5,-479.11 1279.5,-479.11"/>
</g>
<!-- Node22 -->
<g id="node49" class="node"><title>Node22</title>
<a xlink:href="../../dc/df2/Slices_8h.html" target="_top" xlink:title="blond/beams/Slices.h">
<polygon fill="white" stroke="black" points="1422,-253.5 1422,-274.5 1532,-274.5 1532,-253.5 1422,-253.5"/>
<text text-anchor="middle" x="1477" y="-261.5" font-family="Helvetica,sans-Serif" font-size="10.00">blond/beams/Slices.h</text>
</a>
</g>
<!-- Node2&#45;&gt;Node22 -->
<g id="edge128" class="edge"><title>Node2&#45;&gt;Node22</title>
<path fill="none" stroke="midnightblue" d="M1298.39,-506.354C1336.03,-487.787 1413.23,-446.771 1468,-398 1498.63,-370.723 1526.13,-357.178 1514,-318 1509.94,-304.902 1501.49,-292.155 1493.69,-282.338"/>
<polygon fill="midnightblue" stroke="midnightblue" points="1496.24,-279.933 1487.13,-274.53 1490.88,-284.437 1496.24,-279.933"/>
</g>
<!-- Node4 -->
<g id="node7" class="node"><title>Node4</title>
<a xlink:href="../../d2/d2c/configuration_8h.html" target="_top" xlink:title="blond/configuration.h">
<polygon fill="white" stroke="black" points="1359.5,-116.5 1359.5,-137.5 1466.5,-137.5 1466.5,-116.5 1359.5,-116.5"/>
<text text-anchor="middle" x="1413" y="-124.5" font-family="Helvetica,sans-Serif" font-size="10.00">blond/configuration.h</text>
</a>
</g>
<!-- Node3&#45;&gt;Node4 -->
<g id="edge6" class="edge"><title>Node3&#45;&gt;Node4</title>
<path fill="none" stroke="midnightblue" d="M1257.55,-246.895C1277.16,-228.129 1310.22,-197.548 1341,-174 1355.59,-162.839 1372.79,-151.549 1386.72,-142.832"/>
<polygon fill="midnightblue" stroke="midnightblue" points="1388.67,-145.738 1395.34,-137.503 1384.99,-139.784 1388.67,-145.738"/>
</g>
<!-- Node6 -->
<g id="node11" class="node"><title>Node6</title>
<polygon fill="white" stroke="#bfbfbf" points="996,-58.5 996,-79.5 1040,-79.5 1040,-58.5 996,-58.5"/>
<text text-anchor="middle" x="1018" y="-66.5" font-family="Helvetica,sans-Serif" font-size="10.00">vector</text>
</g>
<!-- Node3&#45;&gt;Node6 -->
<g id="edge40" class="edge"><title>Node3&#45;&gt;Node6</title>
<path fill="none" stroke="midnightblue" d="M1250.19,-246.961C1269.88,-213.943 1311.4,-143.951 1313,-138 1315.54,-128.557 1319.35,-123.438 1313,-116 1296.03,-96.1181 1122.87,-78.4047 1050.02,-71.7729"/>
<polygon fill="midnightblue" stroke="midnightblue" points="1050.3,-68.2843 1040.03,-70.8759 1049.68,-75.2562 1050.3,-68.2843"/>
</g>
<!-- Node3&#45;&gt;Node7 -->
<g id="edge12" class="edge"><title>Node3&#45;&gt;Node7</title>
<path fill="none" stroke="midnightblue" d="M1185.73,-246.937C1145.54,-234.302 1091.52,-217.315 1054.23,-205.592"/>
<polygon fill="midnightblue" stroke="midnightblue" points="1055.25,-202.243 1044.66,-202.582 1053.15,-208.92 1055.25,-202.243"/>
</g>
<!-- Node5 -->
<g id="node9" class="node"><title>Node5</title>
<polygon fill="white" stroke="#bfbfbf" points="1386.5,-58.5 1386.5,-79.5 1439.5,-79.5 1439.5,-58.5 1386.5,-58.5"/>
<text text-anchor="middle" x="1413" y="-66.5" font-family="Helvetica,sans-Serif" font-size="10.00">complex</text>
</g>
<!-- Node4&#45;&gt;Node5 -->
<g id="edge8" class="edge"><title>Node4&#45;&gt;Node5</title>
<path fill="none" stroke="midnightblue" d="M1413,-116.362C1413,-108.922 1413,-98.7427 1413,-89.7276"/>
<polygon fill="midnightblue" stroke="midnightblue" points="1416.5,-89.5706 1413,-79.5707 1409.5,-89.5707 1416.5,-89.5706"/>
</g>
<!-- Node4&#45;&gt;Node6 -->
<g id="edge10" class="edge"><title>Node4&#45;&gt;Node6</title>
<path fill="none" stroke="midnightblue" d="M1359.26,-118.078C1354.78,-117.364 1350.31,-116.663 1346,-116 1237.88,-99.3792 1109.4,-81.5169 1050.47,-73.4288"/>
<polygon fill="midnightblue" stroke="midnightblue" points="1050.68,-69.9248 1040.29,-72.0348 1049.73,-76.86 1050.68,-69.9248"/>
</g>
<!-- Node7&#45;&gt;Node4 -->
<g id="edge36" class="edge"><title>Node7&#45;&gt;Node4</title>
<path fill="none" stroke="midnightblue" d="M1052.13,-185.349C1122.34,-173.997 1265.79,-150.802 1349.13,-137.327"/>
<polygon fill="midnightblue" stroke="midnightblue" points="1349.92,-140.744 1359.24,-135.693 1348.81,-133.834 1349.92,-140.744"/>
</g>
<!-- Node7&#45;&gt;Node6 -->
<g id="edge32" class="edge"><title>Node7&#45;&gt;Node6</title>
<path fill="none" stroke="midnightblue" d="M969.881,-190.513C897.935,-186.952 753.904,-175.238 723,-138 716.756,-130.476 716.653,-123.438 723,-116 739.965,-96.1181 913.133,-78.4047 985.981,-71.7729"/>
<polygon fill="midnightblue" stroke="midnightblue" points="986.324,-75.2562 995.971,-70.8759 985.698,-68.2843 986.324,-75.2562"/>
</g>
<!-- Node8 -->
<g id="node15" class="node"><title>Node8</title>
<polygon fill="white" stroke="#bfbfbf" points="1258,-116.5 1258,-137.5 1304,-137.5 1304,-116.5 1258,-116.5"/>
<text text-anchor="middle" x="1281" y="-124.5" font-family="Helvetica,sans-Serif" font-size="10.00">chrono</text>
</g>
<!-- Node7&#45;&gt;Node8 -->
<g id="edge14" class="edge"><title>Node7&#45;&gt;Node8</title>
<path fill="none" stroke="midnightblue" d="M1052.19,-184.062C1097.86,-174.951 1173.85,-158.873 1247.74,-138.162"/>
<polygon fill="midnightblue" stroke="midnightblue" points="1249.01,-141.439 1257.67,-135.344 1247.1,-134.705 1249.01,-141.439"/>
</g>
<!-- Node9 -->
<g id="node17" class="node"><title>Node9</title>
<polygon fill="white" stroke="#bfbfbf" points="731.5,-116.5 731.5,-137.5 774.5,-137.5 774.5,-116.5 731.5,-116.5"/>
<text text-anchor="middle" x="753" y="-124.5" font-family="Helvetica,sans-Serif" font-size="10.00">cstdio</text>
</g>
<!-- Node7&#45;&gt;Node9 -->
<g id="edge16" class="edge"><title>Node7&#45;&gt;Node9</title>
<path fill="none" stroke="midnightblue" d="M969.837,-183.792C925.94,-174.699 854.276,-158.883 784.375,-138.193"/>
<polygon fill="midnightblue" stroke="midnightblue" points="785.111,-134.759 774.527,-135.241 783.101,-141.464 785.111,-134.759"/>
</g>
<!-- Node10 -->
<g id="node19" class="node"><title>Node10</title>
<polygon fill="white" stroke="#bfbfbf" points="1500.5,-116.5 1500.5,-137.5 1545.5,-137.5 1545.5,-116.5 1500.5,-116.5"/>
<text text-anchor="middle" x="1523" y="-124.5" font-family="Helvetica,sans-Serif" font-size="10.00">cstdlib</text>
</g>
<!-- Node7&#45;&gt;Node10 -->
<g id="edge18" class="edge"><title>Node7&#45;&gt;Node10</title>
<path fill="none" stroke="midnightblue" d="M1052.18,-188.731C1133.43,-181.947 1319.95,-164.706 1475,-138 1479.9,-137.156 1485.06,-136.127 1490.09,-135.041"/>
<polygon fill="midnightblue" stroke="midnightblue" points="1491.17,-138.387 1500.15,-132.773 1489.63,-131.558 1491.17,-138.387"/>
</g>
<!-- Node11 -->
<g id="node21" class="node"><title>Node11</title>
<polygon fill="white" stroke="#bfbfbf" points="792,-116.5 792,-137.5 842,-137.5 842,-116.5 792,-116.5"/>
<text text-anchor="middle" x="817" y="-124.5" font-family="Helvetica,sans-Serif" font-size="10.00">fstream</text>
</g>
<!-- Node7&#45;&gt;Node11 -->
<g id="edge20" class="edge"><title>Node7&#45;&gt;Node11</title>
<path fill="none" stroke="midnightblue" d="M979.399,-181.412C944.363,-169.673 888.019,-150.795 851.76,-138.646"/>
<polygon fill="midnightblue" stroke="midnightblue" points="852.694,-135.268 842.1,-135.41 850.47,-141.906 852.694,-135.268"/>
</g>
<!-- Node12 -->
<g id="node23" class="node"><title>Node12</title>
<polygon fill="white" stroke="#bfbfbf" points="558,-116.5 558,-137.5 612,-137.5 612,-116.5 558,-116.5"/>
<text text-anchor="middle" x="585" y="-124.5" font-family="Helvetica,sans-Serif" font-size="10.00">iostream</text>
</g>
<!-- Node7&#45;&gt;Node12 -->
<g id="edge22" class="edge"><title>Node7&#45;&gt;Node12</title>
<path fill="none" stroke="midnightblue" d="M969.915,-188.478C900.145,-182.03 754.019,-166.496 621.896,-137.925"/>
<polygon fill="midnightblue" stroke="midnightblue" points="622.522,-134.479 612.004,-135.755 621.022,-141.316 622.522,-134.479"/>
</g>
<!-- Node13 -->
<g id="node25" class="node"><title>Node13</title>
<polygon fill="white" stroke="#bfbfbf" points="629.5,-116.5 629.5,-137.5 676.5,-137.5 676.5,-116.5 629.5,-116.5"/>
<text text-anchor="middle" x="653" y="-124.5" font-family="Helvetica,sans-Serif" font-size="10.00">iterator</text>
</g>
<!-- Node7&#45;&gt;Node13 -->
<g id="edge24" class="edge"><title>Node7&#45;&gt;Node13</title>
<path fill="none" stroke="midnightblue" d="M969.892,-186.726C908.522,-178.482 789.507,-161.07 690,-138 688.923,-137.75 687.831,-137.487 686.73,-137.213"/>
<polygon fill="midnightblue" stroke="midnightblue" points="687.336,-133.752 676.77,-134.533 685.517,-140.511 687.336,-133.752"/>
</g>
<!-- Node14 -->
<g id="node27" class="node"><title>Node14</title>
<polygon fill="white" stroke="#bfbfbf" points="860,-116.5 860,-137.5 912,-137.5 912,-116.5 860,-116.5"/>
<text text-anchor="middle" x="886" y="-124.5" font-family="Helvetica,sans-Serif" font-size="10.00">memory</text>
</g>
<!-- Node7&#45;&gt;Node14 -->
<g id="edge26" class="edge"><title>Node7&#45;&gt;Node14</title>
<path fill="none" stroke="midnightblue" d="M990.638,-181.412C970.209,-170.788 938.535,-154.318 915.385,-142.28"/>
<polygon fill="midnightblue" stroke="midnightblue" points="916.84,-139.092 906.353,-137.584 913.61,-145.302 916.84,-139.092"/>
</g>
<!-- Node15 -->
<g id="node29" class="node"><title>Node15</title>
<polygon fill="white" stroke="#bfbfbf" points="930,-116.5 930,-137.5 982,-137.5 982,-116.5 930,-116.5"/>
<text text-anchor="middle" x="956" y="-124.5" font-family="Helvetica,sans-Serif" font-size="10.00">sstream</text>
</g>
<!-- Node7&#45;&gt;Node15 -->
<g id="edge28" class="edge"><title>Node7&#45;&gt;Node15</title>
<path fill="none" stroke="midnightblue" d="M1001.92,-181.267C993.669,-171.517 981.327,-156.932 971.515,-145.336"/>
<polygon fill="midnightblue" stroke="midnightblue" points="974.044,-142.907 964.913,-137.534 968.701,-147.428 974.044,-142.907"/>
</g>
<!-- Node16 -->
<g id="node31" class="node"><title>Node16</title>
<polygon fill="white" stroke="#bfbfbf" points="999.5,-116.5 999.5,-137.5 1040.5,-137.5 1040.5,-116.5 999.5,-116.5"/>
<text text-anchor="middle" x="1020" y="-124.5" font-family="Helvetica,sans-Serif" font-size="10.00">string</text>
</g>
<!-- Node7&#45;&gt;Node16 -->
<g id="edge30" class="edge"><title>Node7&#45;&gt;Node16</title>
<path fill="none" stroke="midnightblue" d="M1012.49,-181.267C1013.74,-172.18 1015.58,-158.892 1017.13,-147.74"/>
<polygon fill="midnightblue" stroke="midnightblue" points="1020.64,-147.919 1018.54,-137.534 1013.7,-146.959 1020.64,-147.919"/>
</g>
<!-- Node17 -->
<g id="node34" class="node"><title>Node17</title>
<polygon fill="white" stroke="#bfbfbf" points="1058,-116.5 1058,-137.5 1118,-137.5 1118,-116.5 1058,-116.5"/>
<text text-anchor="middle" x="1088" y="-124.5" font-family="Helvetica,sans-Serif" font-size="10.00">sys/stat.h</text>
</g>
<!-- Node7&#45;&gt;Node17 -->
<g id="edge34" class="edge"><title>Node7&#45;&gt;Node17</title>
<path fill="none" stroke="midnightblue" d="M1023.71,-181.267C1035.71,-171.139 1053.89,-155.792 1067.86,-144"/>
<polygon fill="midnightblue" stroke="midnightblue" points="1070.14,-146.659 1075.52,-137.534 1065.62,-141.31 1070.14,-146.659"/>
</g>
<!-- Node18 -->
<g id="node37" class="node"><title>Node18</title>
<a xlink:href="../../da/d69/optionparser_8h.html" target="_top" xlink:title="This is the only file required to use The Lean Mean C++ Option Parser. Just #include it and you&#39;re se...">
<polygon fill="white" stroke="black" points="1136,-116.5 1136,-137.5 1240,-137.5 1240,-116.5 1136,-116.5"/>
<text text-anchor="middle" x="1188" y="-124.5" font-family="Helvetica,sans-Serif" font-size="10.00">blond/optionparser.h</text>
</a>
</g>
<!-- Node7&#45;&gt;Node18 -->
<g id="edge38" class="edge"><title>Node7&#45;&gt;Node18</title>
<path fill="none" stroke="midnightblue" d="M1039.83,-181.412C1069.66,-170.458 1116.42,-153.288 1149.42,-141.17"/>
<polygon fill="midnightblue" stroke="midnightblue" points="1151,-144.316 1159.18,-137.584 1148.59,-137.745 1151,-144.316"/>
</g>
<!-- Node19&#45;&gt;Node3 -->
<g id="edge72" class="edge"><title>Node19&#45;&gt;Node3</title>
<path fill="none" stroke="midnightblue" d="M1244.63,-434.903C1231.35,-425.845 1217.29,-413.386 1210,-398 1193.38,-362.927 1210.03,-318.268 1224.36,-290.402"/>
<polygon fill="midnightblue" stroke="midnightblue" points="1227.61,-291.752 1229.27,-281.288 1221.45,-288.43 1227.61,-291.752"/>
</g>
<!-- Node20 -->
<g id="node42" class="node"><title>Node20</title>
<a xlink:href="../../d7/d74/Beams_8h.html" target="_top" xlink:title="blond/beams/Beams.h">
<polygon fill="white" stroke="black" points="1219,-376.5 1219,-397.5 1333,-397.5 1333,-376.5 1219,-376.5"/>
<text text-anchor="middle" x="1276" y="-384.5" font-family="Helvetica,sans-Serif" font-size="10.00">blond/beams/Beams.h</text>
</a>
</g>
<!-- Node19&#45;&gt;Node20 -->
<g id="edge44" class="edge"><title>Node19&#45;&gt;Node20</title>
<path fill="none" stroke="midnightblue" d="M1269.98,-434.922C1269.14,-426.67 1269.02,-416.692 1269.64,-407.982"/>
<polygon fill="midnightblue" stroke="midnightblue" points="1273.14,-408.188 1270.81,-397.852 1266.19,-407.384 1273.14,-408.188"/>
</g>
<!-- Node21 -->
<g id="node44" class="node"><title>Node21</title>
<a xlink:href="../../d5/d87/globals_8h.html" target="_top" xlink:title="blond/globals.h">
<polygon fill="white" stroke="black" points="1295,-318.5 1295,-339.5 1377,-339.5 1377,-318.5 1295,-318.5"/>
<text text-anchor="middle" x="1336" y="-326.5" font-family="Helvetica,sans-Serif" font-size="10.00">blond/globals.h</text>
</a>
</g>
<!-- Node19&#45;&gt;Node21 -->
<g id="edge112" class="edge"><title>Node19&#45;&gt;Node21</title>
<path fill="none" stroke="midnightblue" d="M1299.19,-434.903C1311.65,-425.845 1325.71,-413.386 1333,-398 1340.07,-383.081 1337.83,-364.318 1335.62,-350.125"/>
<polygon fill="midnightblue" stroke="midnightblue" points="1339.03,-349.23 1334.04,-339.883 1332.11,-350.301 1339.03,-349.23"/>
</g>
<!-- Node24 -->
<g id="node61" class="node"><title>Node24</title>
<a xlink:href="../../d2/de2/math__functions_8h.html" target="_top" xlink:title="blond/math_functions.h">
<polygon fill="white" stroke="black" points="311,-253.5 311,-274.5 429,-274.5 429,-253.5 311,-253.5"/>
<text text-anchor="middle" x="370" y="-261.5" font-family="Helvetica,sans-Serif" font-size="10.00">blond/math_functions.h</text>
</a>
</g>
<!-- Node19&#45;&gt;Node24 -->
<g id="edge74" class="edge"><title>Node19&#45;&gt;Node24</title>
<path fill="none" stroke="midnightblue" d="M1216.9,-439.737C1053.44,-405.818 596.437,-310.987 430.871,-276.631"/>
<polygon fill="midnightblue" stroke="midnightblue" points="431.363,-273.159 420.861,-274.554 429.941,-280.013 431.363,-273.159"/>
</g>
<!-- Node35 -->
<g id="node89" class="node"><title>Node35</title>
<a xlink:href="../../d2/d6f/constants_8h.html" target="_top" xlink:title="blond/constants.h">
<polygon fill="white" stroke="black" points="1395,-318.5 1395,-339.5 1489,-339.5 1489,-318.5 1395,-318.5"/>
<text text-anchor="middle" x="1442" y="-326.5" font-family="Helvetica,sans-Serif" font-size="10.00">blond/constants.h</text>
</a>
</g>
<!-- Node19&#45;&gt;Node35 -->
<g id="edge108" class="edge"><title>Node19&#45;&gt;Node35</title>
<path fill="none" stroke="midnightblue" d="M1308.63,-434.819C1326.45,-424.903 1348.58,-411.707 1367,-398 1388.08,-382.316 1409.94,-361.61 1424.58,-346.986"/>
<polygon fill="midnightblue" stroke="midnightblue" points="1427.38,-349.131 1431.92,-339.558 1422.41,-344.21 1427.38,-349.131"/>
</g>
<!-- Node36 -->
<g id="node93" class="node"><title>Node36</title>
<a xlink:href="../../da/d30/vector__math_8h.html" target="_top" xlink:title="blond/vector_math.h">
<polygon fill="white" stroke="black" points="547.5,-253.5 547.5,-274.5 652.5,-274.5 652.5,-253.5 547.5,-253.5"/>
<text text-anchor="middle" x="600" y="-261.5" font-family="Helvetica,sans-Serif" font-size="10.00">blond/vector_math.h</text>
</a>
</g>
<!-- Node19&#45;&gt;Node36 -->
<g id="edge114" class="edge"><title>Node19&#45;&gt;Node36</title>
<path fill="none" stroke="midnightblue" d="M1250.77,-434.979C1201.69,-402.187 1094.56,-332.228 1053,-318 982.315,-293.799 769.78,-275.94 662.864,-268.22"/>
<polygon fill="midnightblue" stroke="midnightblue" points="663.08,-264.726 652.856,-267.504 662.581,-271.708 663.08,-264.726"/>
</g>
<!-- Node20&#45;&gt;Node3 -->
<g id="edge68" class="edge"><title>Node20&#45;&gt;Node3</title>
<path fill="none" stroke="midnightblue" d="M1269.59,-376.169C1264.36,-366.875 1257.19,-352.968 1253,-340 1247.9,-324.214 1244.7,-305.902 1242.74,-291.209"/>
<polygon fill="midnightblue" stroke="midnightblue" points="1246.21,-290.743 1241.53,-281.238 1239.26,-291.587 1246.21,-290.743"/>
</g>
<!-- Node20&#45;&gt;Node4 -->
<g id="edge64" class="edge"><title>Node20&#45;&gt;Node4</title>
<path fill="none" stroke="midnightblue" d="M1276.1,-376.352C1276.56,-362.478 1278.48,-337.671 1286,-318 1289.63,-308.498 1368.41,-192.435 1400.03,-146.01"/>
<polygon fill="midnightblue" stroke="midnightblue" points="1402.95,-147.94 1405.69,-137.706 1397.17,-143.998 1402.95,-147.94"/>
</g>
<!-- Node20&#45;&gt;Node7 -->
<g id="edge66" class="edge"><title>Node20&#45;&gt;Node7</title>
<path fill="none" stroke="midnightblue" d="M1261.37,-376.238C1217.49,-343.943 1086.68,-247.69 1033.68,-208.689"/>
<polygon fill="midnightblue" stroke="midnightblue" points="1035.71,-205.836 1025.58,-202.729 1031.56,-211.474 1035.71,-205.836"/>
</g>
<!-- Node20&#45;&gt;Node19 -->
<g id="edge70" class="edge"><title>Node20&#45;&gt;Node19</title>
<path fill="none" stroke="midnightblue" d="M1281.19,-397.852C1282.46,-405.195 1282.96,-415.242 1282.67,-424.688"/>
<polygon fill="midnightblue" stroke="midnightblue" points="1279.16,-424.72 1282.02,-434.922 1286.15,-425.164 1279.16,-424.72"/>
</g>
<!-- Node20&#45;&gt;Node21 -->
<g id="edge46" class="edge"><title>Node20&#45;&gt;Node21</title>
<path fill="none" stroke="midnightblue" d="M1281.64,-376.362C1288.86,-367.941 1300.92,-356.011 1311.95,-346.231"/>
<polygon fill="midnightblue" stroke="midnightblue" points="1314.4,-348.737 1319.71,-339.571 1309.84,-343.423 1314.4,-348.737"/>
</g>
<!-- Node21&#45;&gt;Node3 -->
<g id="edge48" class="edge"><title>Node21&#45;&gt;Node3</title>
<path fill="none" stroke="midnightblue" d="M1320.15,-318.267C1307.57,-309.748 1289.53,-297.537 1273.75,-286.854"/>
<polygon fill="midnightblue" stroke="midnightblue" points="1275.51,-283.818 1265.27,-281.11 1271.59,-289.615 1275.51,-283.818"/>
</g>
<!-- Node21&#45;&gt;Node19 -->
<g id="edge50" class="edge"><title>Node21&#45;&gt;Node19</title>
<path fill="none" stroke="midnightblue" d="M1346.38,-339.883C1353.97,-354.011 1359.96,-379.093 1351,-398 1345.19,-410.26 1335.08,-420.663 1324.09,-428.966"/>
<polygon fill="midnightblue" stroke="midnightblue" points="1321.77,-426.316 1315.56,-434.903 1325.77,-432.061 1321.77,-426.316"/>
</g>
<!-- Node21&#45;&gt;Node20 -->
<g id="edge52" class="edge"><title>Node21&#45;&gt;Node20</title>
<path fill="none" stroke="midnightblue" d="M1330.42,-339.571C1323.22,-347.973 1311.18,-359.9 1300.14,-369.691"/>
<polygon fill="midnightblue" stroke="midnightblue" points="1297.68,-367.193 1292.37,-376.362 1302.24,-372.506 1297.68,-367.193"/>
</g>
<!-- Node21&#45;&gt;Node22 -->
<g id="edge54" class="edge"><title>Node21&#45;&gt;Node22</title>
<path fill="none" stroke="midnightblue" d="M1358.97,-318.412C1382.32,-307.647 1418.7,-290.878 1444.89,-278.801"/>
<polygon fill="midnightblue" stroke="midnightblue" points="1446.43,-281.949 1454.04,-274.584 1443.5,-275.592 1446.43,-281.949"/>
</g>
<!-- Node22&#45;&gt;Node4 -->
<g id="edge56" class="edge"><title>Node22&#45;&gt;Node4</title>
<path fill="none" stroke="midnightblue" d="M1471.76,-253.271C1466.46,-242.396 1458.08,-225.069 1451,-210 1440.9,-188.498 1429.6,-163.721 1421.97,-146.876"/>
<polygon fill="midnightblue" stroke="midnightblue" points="1425.04,-145.181 1417.73,-137.512 1418.67,-148.066 1425.04,-145.181"/>
</g>
<!-- Node22&#45;&gt;Node7 -->
<g id="edge58" class="edge"><title>Node22&#45;&gt;Node7</title>
<path fill="none" stroke="midnightblue" d="M1421.71,-255.458C1330.69,-241.394 1150.58,-213.565 1062.26,-199.92"/>
<polygon fill="midnightblue" stroke="midnightblue" points="1062.63,-196.436 1052.21,-198.368 1061.56,-203.354 1062.63,-196.436"/>
</g>
<!-- Node22&#45;&gt;Node19 -->
<g id="edge60" class="edge"><title>Node22&#45;&gt;Node19</title>
<path fill="none" stroke="midnightblue" d="M1484.76,-274.507C1495.05,-289.827 1510.52,-318.779 1498,-340 1465.8,-394.575 1397.54,-423.388 1345.15,-438.039"/>
<polygon fill="midnightblue" stroke="midnightblue" points="1343.99,-434.727 1335.24,-440.698 1345.8,-441.488 1343.99,-434.727"/>
</g>
<!-- Node23 -->
<g id="node54" class="node"><title>Node23</title>
<polygon fill="white" stroke="#bfbfbf" points="1459.5,-181.5 1459.5,-202.5 1494.5,-202.5 1494.5,-181.5 1459.5,-181.5"/>
<text text-anchor="middle" x="1477" y="-189.5" font-family="Helvetica,sans-Serif" font-size="10.00">map</text>
</g>
<!-- Node22&#45;&gt;Node23 -->
<g id="edge62" class="edge"><title>Node22&#45;&gt;Node23</title>
<path fill="none" stroke="midnightblue" d="M1477,-253.376C1477,-242.741 1477,-226.095 1477,-212.82"/>
<polygon fill="midnightblue" stroke="midnightblue" points="1480.5,-212.667 1477,-202.667 1473.5,-212.667 1480.5,-212.667"/>
</g>
<!-- Node24&#45;&gt;Node4 -->
<g id="edge78" class="edge"><title>Node24&#45;&gt;Node4</title>
<path fill="none" stroke="midnightblue" d="M429.389,-257.128C461.763,-253.52 502.552,-249.197 539,-246 770.662,-225.682 831.068,-244.801 1061,-210 1172.45,-193.131 1300.71,-159.101 1367.38,-140.277"/>
<polygon fill="midnightblue" stroke="midnightblue" points="1368.48,-143.601 1377.15,-137.502 1366.57,-136.867 1368.48,-143.601"/>
</g>
<!-- Node24&#45;&gt;Node7 -->
<g id="edge96" class="edge"><title>Node24&#45;&gt;Node7</title>
<path fill="none" stroke="midnightblue" d="M429.155,-257.355C553.858,-243.348 841.891,-210.995 959.536,-197.781"/>
<polygon fill="midnightblue" stroke="midnightblue" points="960.166,-201.232 969.713,-196.638 959.385,-194.276 960.166,-201.232"/>
</g>
<!-- Node25 -->
<g id="node63" class="node"><title>Node25</title>
<polygon fill="white" stroke="#bfbfbf" points="412,-181.5 412,-202.5 468,-202.5 468,-181.5 412,-181.5"/>
<text text-anchor="middle" x="440" y="-189.5" font-family="Helvetica,sans-Serif" font-size="10.00">algorithm</text>
</g>
<!-- Node24&#45;&gt;Node25 -->
<g id="edge76" class="edge"><title>Node24&#45;&gt;Node25</title>
<path fill="none" stroke="midnightblue" d="M380.329,-253.376C391.392,-241.997 409.147,-223.735 422.418,-210.085"/>
<polygon fill="midnightblue" stroke="midnightblue" points="425.168,-212.277 429.629,-202.667 420.149,-207.398 425.168,-212.277"/>
</g>
<!-- Node26 -->
<g id="node66" class="node"><title>Node26</title>
<a xlink:href="../../d8/dcd/exp_8h.html" target="_top" xlink:title="blond/exp.h">
<polygon fill="white" stroke="black" points="179.5,-181.5 179.5,-202.5 246.5,-202.5 246.5,-181.5 179.5,-181.5"/>
<text text-anchor="middle" x="213" y="-189.5" font-family="Helvetica,sans-Serif" font-size="10.00">blond/exp.h</text>
</a>
</g>
<!-- Node24&#45;&gt;Node26 -->
<g id="edge80" class="edge"><title>Node24&#45;&gt;Node26</title>
<path fill="none" stroke="midnightblue" d="M346.834,-253.376C319.972,-241.057 275.523,-220.673 245.284,-206.805"/>
<polygon fill="midnightblue" stroke="midnightblue" points="246.554,-203.537 236.005,-202.55 243.636,-209.9 246.554,-203.537"/>
</g>
<!-- Node28 -->
<g id="node70" class="node"><title>Node28</title>
<polygon fill="white" stroke="#bfbfbf" points="191,-0.5 191,-21.5 235,-21.5 235,-0.5 191,-0.5"/>
<text text-anchor="middle" x="213" y="-8.5" font-family="Helvetica,sans-Serif" font-size="10.00">cmath</text>
</g>
<!-- Node24&#45;&gt;Node28 -->
<g id="edge98" class="edge"><title>Node24&#45;&gt;Node28</title>
<path fill="none" stroke="midnightblue" d="M310.806,-255.841C255.128,-247.012 177.108,-231.29 155,-210 106.338,-163.139 115.017,-113.175 154,-58 162.551,-45.8972 175.07,-35.3109 186.378,-27.2651"/>
<polygon fill="midnightblue" stroke="midnightblue" points="188.388,-30.131 194.704,-21.6245 184.462,-24.3357 188.388,-30.131"/>
</g>
<!-- Node29 -->
<g id="node72" class="node"><title>Node29</title>
<polygon fill="white" stroke="#bfbfbf" points="143,-116.5 143,-137.5 183,-137.5 183,-116.5 143,-116.5"/>
<text text-anchor="middle" x="163" y="-124.5" font-family="Helvetica,sans-Serif" font-size="10.00">limits</text>
</g>
<!-- Node24&#45;&gt;Node29 -->
<g id="edge102" class="edge"><title>Node24&#45;&gt;Node29</title>
<path fill="none" stroke="midnightblue" d="M310.871,-255.486C258.965,-246.723 189.009,-231.339 171,-210 156.551,-192.879 156.648,-166.126 158.984,-147.643"/>
<polygon fill="midnightblue" stroke="midnightblue" points="162.466,-148.032 160.572,-137.608 155.552,-146.938 162.466,-148.032"/>
</g>
<!-- Node30 -->
<g id="node74" class="node"><title>Node30</title>
<a xlink:href="../../d1/d3d/sin_8h.html" target="_top" xlink:title="blond/sin.h">
<polygon fill="white" stroke="black" points="264,-181.5 264,-202.5 328,-202.5 328,-181.5 264,-181.5"/>
<text text-anchor="middle" x="296" y="-189.5" font-family="Helvetica,sans-Serif" font-size="10.00">blond/sin.h</text>
</a>
</g>
<!-- Node24&#45;&gt;Node30 -->
<g id="edge88" class="edge"><title>Node24&#45;&gt;Node30</title>
<path fill="none" stroke="midnightblue" d="M359.081,-253.376C347.276,-241.89 328.265,-223.393 314.195,-209.703"/>
<polygon fill="midnightblue" stroke="midnightblue" points="316.572,-207.132 306.964,-202.667 311.69,-212.15 316.572,-207.132"/>
</g>
<!-- Node32 -->
<g id="node82" class="node"><title>Node32</title>
<polygon fill="white" stroke="#bfbfbf" points="345.5,-181.5 345.5,-202.5 394.5,-202.5 394.5,-181.5 345.5,-181.5"/>
<text text-anchor="middle" x="370" y="-189.5" font-family="Helvetica,sans-Serif" font-size="10.00">random</text>
</g>
<!-- Node24&#45;&gt;Node32 -->
<g id="edge100" class="edge"><title>Node24&#45;&gt;Node32</title>
<path fill="none" stroke="midnightblue" d="M370,-253.376C370,-242.741 370,-226.095 370,-212.82"/>
<polygon fill="midnightblue" stroke="midnightblue" points="373.5,-212.667 370,-202.667 366.5,-212.667 373.5,-212.667"/>
</g>
<!-- Node33 -->
<g id="node85" class="node"><title>Node33</title>
<polygon fill="white" stroke="#bfbfbf" points="485.5,-181.5 485.5,-202.5 534.5,-202.5 534.5,-181.5 485.5,-181.5"/>
<text text-anchor="middle" x="510" y="-189.5" font-family="Helvetica,sans-Serif" font-size="10.00">cassert</text>
</g>
<!-- Node24&#45;&gt;Node33 -->
<g id="edge104" class="edge"><title>Node24&#45;&gt;Node33</title>
<path fill="none" stroke="midnightblue" d="M391.419,-253.442C413.094,-242.699 447.521,-225.473 477,-210 478.549,-209.187 480.136,-208.346 481.736,-207.494"/>
<polygon fill="midnightblue" stroke="midnightblue" points="483.719,-210.4 490.861,-202.574 480.398,-204.239 483.719,-210.4"/>
</g>
<!-- Node34 -->
<g id="node87" class="node"><title>Node34</title>
<a xlink:href="../../d1/db0/openmp_8h.html" target="_top" xlink:title="blond/openmp.h">
<polygon fill="white" stroke="black" points="0,-181.5 0,-202.5 86,-202.5 86,-181.5 0,-181.5"/>
<text text-anchor="middle" x="43" y="-189.5" font-family="Helvetica,sans-Serif" font-size="10.00">blond/openmp.h</text>
</a>
</g>
<!-- Node24&#45;&gt;Node34 -->
<g id="edge106" class="edge"><title>Node24&#45;&gt;Node34</title>
<path fill="none" stroke="midnightblue" d="M310.857,-254.078C255.875,-244.405 171.877,-228.479 100,-210 94.7234,-208.643 89.2138,-207.086 83.7886,-205.468"/>
<polygon fill="midnightblue" stroke="midnightblue" points="84.77,-202.108 74.1831,-202.518 82.7153,-208.8 84.77,-202.108"/>
</g>
<!-- Node27 -->
<g id="node68" class="node"><title>Node27</title>
<a xlink:href="../../df/de1/vdtcore__common_8h.html" target="_top" xlink:title="vdtcore_common.h">
<polygon fill="white" stroke="black" points="163,-58.5 163,-79.5 263,-79.5 263,-58.5 163,-58.5"/>
<text text-anchor="middle" x="213" y="-66.5" font-family="Helvetica,sans-Serif" font-size="10.00">vdtcore_common.h</text>
</a>
</g>
<!-- Node26&#45;&gt;Node27 -->
<g id="edge82" class="edge"><title>Node26&#45;&gt;Node27</title>
<path fill="none" stroke="midnightblue" d="M213,-181.085C213,-160.609 213,-116.133 213,-89.778"/>
<polygon fill="midnightblue" stroke="midnightblue" points="216.5,-89.7153 213,-79.7153 209.5,-89.7154 216.5,-89.7153"/>
</g>
<!-- Node26&#45;&gt;Node29 -->
<g id="edge86" class="edge"><title>Node26&#45;&gt;Node29</title>
<path fill="none" stroke="midnightblue" d="M204.744,-181.267C197.317,-171.612 186.242,-157.215 177.365,-145.675"/>
<polygon fill="midnightblue" stroke="midnightblue" points="179.974,-143.326 171.103,-137.534 174.426,-147.594 179.974,-143.326"/>
</g>
<!-- Node27&#45;&gt;Node28 -->
<g id="edge84" class="edge"><title>Node27&#45;&gt;Node28</title>
<path fill="none" stroke="midnightblue" d="M213,-58.3619C213,-50.9219 213,-40.7427 213,-31.7276"/>
<polygon fill="midnightblue" stroke="midnightblue" points="216.5,-31.5706 213,-21.5707 209.5,-31.5707 216.5,-31.5706"/>
</g>
<!-- Node31 -->
<g id="node76" class="node"><title>Node31</title>
<a xlink:href="../../dc/dfa/sincos_8h.html" target="_top" xlink:title="sincos.h">
<polygon fill="white" stroke="black" points="264.5,-116.5 264.5,-137.5 317.5,-137.5 317.5,-116.5 264.5,-116.5"/>
<text text-anchor="middle" x="291" y="-124.5" font-family="Helvetica,sans-Serif" font-size="10.00">sincos.h</text>
</a>
</g>
<!-- Node30&#45;&gt;Node31 -->
<g id="edge90" class="edge"><title>Node30&#45;&gt;Node31</title>
<path fill="none" stroke="midnightblue" d="M295.174,-181.267C294.475,-172.18 293.453,-158.892 292.595,-147.74"/>
<polygon fill="midnightblue" stroke="midnightblue" points="296.067,-147.236 291.81,-137.534 289.088,-147.773 296.067,-147.236"/>
</g>
<!-- Node31&#45;&gt;Node27 -->
<g id="edge92" class="edge"><title>Node31&#45;&gt;Node27</title>
<path fill="none" stroke="midnightblue" d="M276.694,-116.362C265.149,-107.777 248.7,-95.5459 235.41,-85.6636"/>
<polygon fill="midnightblue" stroke="midnightblue" points="237.329,-82.7291 227.216,-79.5707 233.152,-88.3463 237.329,-82.7291"/>
</g>
<!-- Node31&#45;&gt;Node28 -->
<g id="edge94" class="edge"><title>Node31&#45;&gt;Node28</title>
<path fill="none" stroke="midnightblue" d="M290.123,-116.343C288.51,-102.02 284.047,-76.2508 272,-58 263.894,-45.7195 251.538,-35.1651 240.224,-27.1871"/>
<polygon fill="midnightblue" stroke="midnightblue" points="242.123,-24.2464 231.863,-21.6027 238.235,-30.0674 242.123,-24.2464"/>
</g>
<!-- Node35&#45;&gt;Node4 -->
<g id="edge110" class="edge"><title>Node35&#45;&gt;Node4</title>
<path fill="none" stroke="midnightblue" d="M1432.94,-318.252C1425.96,-309.227 1416.87,-295.652 1413,-282 1399.85,-235.63 1405.1,-178.268 1409.44,-147.996"/>
<polygon fill="midnightblue" stroke="midnightblue" points="1412.95,-148.218 1411.02,-137.8 1406.03,-147.147 1412.95,-148.218"/>
</g>
<!-- Node36&#45;&gt;Node6 -->
<g id="edge122" class="edge"><title>Node36&#45;&gt;Node6</title>
<path fill="none" stroke="midnightblue" d="M593.797,-253.431C576.438,-223.195 529.854,-137.16 549,-116 578.267,-83.653 884.16,-72.5842 985.553,-69.7886"/>
<polygon fill="midnightblue" stroke="midnightblue" points="985.895,-73.2808 995.798,-69.5154 985.709,-66.2833 985.895,-73.2808"/>
</g>
<!-- Node36&#45;&gt;Node12 -->
<g id="edge124" class="edge"><title>Node36&#45;&gt;Node12</title>
<path fill="none" stroke="midnightblue" d="M598.823,-253.25C596.337,-230.541 590.513,-177.348 587.274,-147.768"/>
<polygon fill="midnightblue" stroke="midnightblue" points="590.739,-147.26 586.172,-137.7 583.781,-148.022 590.739,-147.26"/>
</g>
<!-- Node36&#45;&gt;Node13 -->
<g id="edge126" class="edge"><title>Node36&#45;&gt;Node13</title>
<path fill="none" stroke="midnightblue" d="M604.159,-253.25C612.983,-230.441 633.704,-176.879 645.116,-147.379"/>
<polygon fill="midnightblue" stroke="midnightblue" points="648.517,-148.289 648.86,-137.7 641.988,-145.764 648.517,-148.289"/>
</g>
<!-- Node36&#45;&gt;Node25 -->
<g id="edge116" class="edge"><title>Node36&#45;&gt;Node25</title>
<path fill="none" stroke="midnightblue" d="M574.901,-253.322C549.953,-242.628 510.655,-225.567 477,-210 474.946,-209.05 472.833,-208.059 470.708,-207.052"/>
<polygon fill="midnightblue" stroke="midnightblue" points="471.984,-203.783 461.454,-202.613 468.956,-210.094 471.984,-203.783"/>
</g>
<!-- Node36&#45;&gt;Node33 -->
<g id="edge120" class="edge"><title>Node36&#45;&gt;Node33</title>
<path fill="none" stroke="midnightblue" d="M586.72,-253.376C572.097,-241.678 548.381,-222.705 531.184,-208.948"/>
<polygon fill="midnightblue" stroke="midnightblue" points="533.329,-206.181 523.334,-202.667 528.957,-211.647 533.329,-206.181"/>
</g>
<!-- Node37 -->
<g id="node96" class="node"><title>Node37</title>
<polygon fill="white" stroke="#bfbfbf" points="665.5,-181.5 665.5,-202.5 724.5,-202.5 724.5,-181.5 665.5,-181.5"/>
<text text-anchor="middle" x="695" y="-189.5" font-family="Helvetica,sans-Serif" font-size="10.00">functional</text>
</g>
<!-- Node36&#45;&gt;Node37 -->
<g id="edge118" class="edge"><title>Node36&#45;&gt;Node37</title>
<path fill="none" stroke="midnightblue" d="M614.018,-253.376C629.453,-241.678 654.486,-222.705 672.639,-208.948"/>
<polygon fill="midnightblue" stroke="midnightblue" points="675.069,-211.497 680.925,-202.667 670.841,-205.918 675.069,-211.497"/>
</g>
<!-- Node38&#45;&gt;Node4 -->
<g id="edge138" class="edge"><title>Node38&#45;&gt;Node4</title>
<path fill="none" stroke="midnightblue" d="M1582.18,-253.273C1562.85,-232.285 1520.23,-186.728 1503,-174 1485.89,-161.365 1464.92,-150.199 1447.52,-141.925"/>
<polygon fill="midnightblue" stroke="midnightblue" points="1448.82,-138.668 1438.27,-137.635 1445.87,-145.018 1448.82,-138.668"/>
</g>
<!-- Node38&#45;&gt;Node10 -->
<g id="edge140" class="edge"><title>Node38&#45;&gt;Node10</title>
<path fill="none" stroke="midnightblue" d="M1586.59,-253.25C1575.05,-230.341 1547.88,-176.409 1533.07,-146.992"/>
<polygon fill="midnightblue" stroke="midnightblue" points="1536.01,-145.057 1528.39,-137.7 1529.76,-148.206 1536.01,-145.057"/>
</g>
<!-- Node38&#45;&gt;Node23 -->
<g id="edge136" class="edge"><title>Node38&#45;&gt;Node23</title>
<path fill="none" stroke="midnightblue" d="M1575.03,-253.376C1555.92,-241.412 1524.66,-221.839 1502.58,-208.018"/>
<polygon fill="midnightblue" stroke="midnightblue" points="1504.37,-205.008 1494.04,-202.667 1500.66,-210.941 1504.37,-205.008"/>
</g>
<!-- Node39 -->
<g id="node105" class="node"><title>Node39</title>
<polygon fill="white" stroke="#bfbfbf" points="1588,-181.5 1588,-202.5 1644,-202.5 1644,-181.5 1588,-181.5"/>
<text text-anchor="middle" x="1616" y="-189.5" font-family="Helvetica,sans-Serif" font-size="10.00">Python.h</text>
</g>
<!-- Node38&#45;&gt;Node39 -->
<g id="edge132" class="edge"><title>Node38&#45;&gt;Node39</title>
<path fill="none" stroke="midnightblue" d="M1595.54,-253.376C1599.12,-242.635 1604.75,-225.761 1609.19,-212.422"/>
<polygon fill="midnightblue" stroke="midnightblue" points="1612.6,-213.261 1612.44,-202.667 1605.96,-211.047 1612.6,-213.261"/>
</g>
<!-- Node40 -->
<g id="node107" class="node"><title>Node40</title>
<polygon fill="white" stroke="#bfbfbf" points="1662,-175 1662,-209 1770,-209 1770,-175 1662,-175"/>
<text text-anchor="start" x="1670" y="-196" font-family="Helvetica,sans-Serif" font-size="10.00">numpy/core/include</text>
<text text-anchor="middle" x="1716" y="-183" font-family="Helvetica,sans-Serif" font-size="10.00">/numpy/arrayobject.h</text>
</g>
<!-- Node38&#45;&gt;Node40 -->
<g id="edge134" class="edge"><title>Node38&#45;&gt;Node40</title>
<path fill="none" stroke="midnightblue" d="M1610.3,-253.376C1628.02,-243.085 1655.44,-227.166 1677.91,-214.118"/>
<polygon fill="midnightblue" stroke="midnightblue" points="1679.67,-217.143 1686.56,-209.094 1676.15,-211.089 1679.67,-217.143"/>
</g>
</g>
</svg>
        <g id="navigator" transform="translate(0 0)" fill="#404254">
                <rect fill="#f2f5e9" fill-opacity="0.5" stroke="#606060" stroke-width=".5" x="0" y="0" width="60" height="60"/>
                <use id="zoomplus" xlink:href="#zoomPlus" x="17" y="9" onmousedown="handleZoom(evt,'in')"/>
                <use id="zoomminus" xlink:href="#zoomMin" x="42" y="9" onmousedown="handleZoom(evt,'out')"/>
                <use id="reset" xlink:href="#resetDef" x="30" y="36" onmousedown="handleReset()"/>
                <g id="arrowUp" xlink:href="#dirArrow" transform="translate(30 24)" onmousedown="handlePan(0,-1)">
                  <use xlink:href="#rim" fill="#404040">
                        <set attributeName="fill" to="#808080" begin="arrowUp.mouseover" end="arrowUp.mouseout"/>
                  </use>
                  <path fill="none" stroke="white" stroke-width="1.5" d="M0,-3.0v7 M-2.5,-0.5L0,-3.0L2.5,-0.5"/>
                </g>
                <g id="arrowRight" xlink:href="#dirArrow" transform="rotate(90) translate(36 -43)" onmousedown="handlePan(1,0)">
                  <use xlink:href="#rim" fill="#404040">
                        <set attributeName="fill" to="#808080" begin="arrowRight.mouseover" end="arrowRight.mouseout"/>
                  </use>
                  <path fill="none" stroke="white" stroke-width="1.5" d="M0,-3.0v7 M-2.5,-0.5L0,-3.0L2.5,-0.5"/>
                </g>
                <g id="arrowDown" xlink:href="#dirArrow" transform="rotate(180) translate(-30 -48)" onmousedown="handlePan(0,1)">
                  <use xlink:href="#rim" fill="#404040">
                        <set attributeName="fill" to="#808080" begin="arrowDown.mouseover" end="arrowDown.mouseout"/>
                  </use>
                  <path fill="none" stroke="white" stroke-width="1.5" d="M0,-3.0v7 M-2.5,-0.5L0,-3.0L2.5,-0.5"/>
                </g>
                <g id="arrowLeft" xlink:href="#dirArrow" transform="rotate(270) translate(-36 17)" onmousedown="handlePan(-1,0)">
                  <use xlink:href="#rim" fill="#404040">
                        <set attributeName="fill" to="#808080" begin="arrowLeft.mouseover" end="arrowLeft.mouseout"/>
                  </use>
                  <path fill="none" stroke="white" stroke-width="1.5" d="M0,-3.0v7 M-2.5,-0.5L0,-3.0L2.5,-0.5"/>
                </g>
        </g>
        <svg viewBox="0 0 15 15" width="100%" height="30px" preserveAspectRatio="xMaxYMin meet">
         <g id="arrow_out" transform="scale(0.3 0.3)">
          <a xlink:href="plot__slices_8cpp__incl_org.svg" target="_base">
           <rect id="button" ry="5" rx="5" y="6" x="6" height="38" width="38"
                fill="#f2f5e9" fill-opacity="0.5" stroke="#606060" stroke-width="1.0"/>
           <path id="arrow"
             d="M 11.500037,31.436501 C 11.940474,20.09759 22.043105,11.32322 32.158766,21.979434 L 37.068811,17.246167 C 37.068811,17.246167 37.088388,32 37.088388,32 L 22.160133,31.978069 C 22.160133,31.978069 26.997745,27.140456 26.997745,27.140456 C 18.528582,18.264221 13.291696,25.230495 11.500037,31.436501 z"
             style="fill:#404040;"/>
          </a>
         </g>
        </svg>
</svg>
