<?xml version="1.0" encoding="UTF-8" standalone="no"?>
<!DOCTYPE svg PUBLIC "-//W3C//DTD SVG 1.1//EN"
 "http://www.w3.org/Graphics/SVG/1.1/DTD/svg11.dtd">
<!-- Generated by graphviz version 2.26.3 (20100126.1600)
 -->
<!-- Title: plot_slices.cpp Pages: 1 -->
<svg width="1613pt" height="594pt"
 viewBox="0.00 0.00 1613.00 594.00" xmlns="http://www.w3.org/2000/svg" xmlns:xlink="http://www.w3.org/1999/xlink">
<g id="graph1" class="graph" transform="scale(1 1) rotate(0) translate(4 590)">
<title>plot_slices.cpp</title>
<polygon fill="white" stroke="white" points="-4,5 -4,-590 1610,-590 1610,5 -4,5"/>
<!-- Node1 -->
<g id="node1" class="node"><title>Node1</title>
<polygon fill="#bfbfbf" stroke="black" points="1085,-564.5 1085,-585.5 1167,-585.5 1167,-564.5 1085,-564.5"/>
<text text-anchor="middle" x="1126" y="-572.5" font-family="Helvetica,sans-Serif" font-size="10.00">plot_slices.cpp</text>
</g>
<!-- Node2 -->
<g id="node3" class="node"><title>Node2</title>
<a xlink:href="../../d2/d51/plot__slices_8h.html" target="_top" xlink:title="blond/plots/plot_slices.h">
<polygon fill="white" stroke="black" points="1065,-506.5 1065,-527.5 1187,-527.5 1187,-506.5 1065,-506.5"/>
<text text-anchor="middle" x="1126" y="-514.5" font-family="Helvetica,sans-Serif" font-size="10.00">blond/plots/plot_slices.h</text>
</a>
</g>
<!-- Node1&#45;&gt;Node2 -->
<g id="edge2" class="edge"><title>Node1&#45;&gt;Node2</title>
<path fill="none" stroke="midnightblue" d="M1126,-564.362C1126,-556.922 1126,-546.743 1126,-537.728"/>
<polygon fill="midnightblue" stroke="midnightblue" points="1129.5,-537.571 1126,-527.571 1122.5,-537.571 1129.5,-537.571"/>
</g>
<!-- Node7 -->
<g id="node13" class="node"><title>Node7</title>
<a xlink:href="../../de/df0/utilities_8h.html" target="_top" xlink:title="blond/utilities.h">
<polygon fill="white" stroke="black" points="835,-181.5 835,-202.5 917,-202.5 917,-181.5 835,-181.5"/>
<text text-anchor="middle" x="876" y="-189.5" font-family="Helvetica,sans-Serif" font-size="10.00">blond/utilities.h</text>
</a>
</g>
<!-- Node1&#45;&gt;Node7 -->
<g id="edge130" class="edge"><title>Node1&#45;&gt;Node7</title>
<path fill="none" stroke="midnightblue" d="M1086.94,-564.488C1016.62,-544.406 876,-498.437 876,-452 876,-452 876,-452 876,-329 876,-287.793 876,-239.614 876,-212.773"/>
<polygon fill="midnightblue" stroke="midnightblue" points="879.5,-212.658 876,-202.658 872.5,-212.658 879.5,-212.658"/>
</g>
<!-- Node37 -->
<g id="node96" class="node"><title>Node37</title>
<a xlink:href="../../d1/da8/python_8h.html" target="_top" xlink:title="blond/python.h">
<polygon fill="white" stroke="black" points="1387,-253.5 1387,-274.5 1467,-274.5 1467,-253.5 1387,-253.5"/>
<text text-anchor="middle" x="1427" y="-261.5" font-family="Helvetica,sans-Serif" font-size="10.00">blond/python.h</text>
</a>
</g>
<!-- Node1&#45;&gt;Node37 -->
<g id="edge118" class="edge"><title>Node1&#45;&gt;Node37</title>
<path fill="none" stroke="midnightblue" d="M1167.32,-567.284C1250.43,-550.579 1430,-508.009 1430,-452 1430,-452 1430,-452 1430,-387 1430,-351.042 1428.7,-309.188 1427.81,-284.741"/>
<polygon fill="midnightblue" stroke="midnightblue" points="1431.3,-284.389 1427.43,-274.528 1424.31,-284.653 1431.3,-284.389"/>
</g>
<!-- Node3 -->
<g id="node5" class="node"><title>Node3</title>
<a xlink:href="../../d5/d34/GeneralParameters_8h.html" target="_top" xlink:title="blond/input_parameters\l/GeneralParameters.h">
<polygon fill="white" stroke="black" points="1008,-247 1008,-281 1126,-281 1126,-247 1008,-247"/>
<text text-anchor="start" x="1016" y="-268" font-family="Helvetica,sans-Serif" font-size="10.00">blond/input_parameters</text>
<text text-anchor="middle" x="1067" y="-255" font-family="Helvetica,sans-Serif" font-size="10.00">/GeneralParameters.h</text>
</a>
</g>
<!-- Node2&#45;&gt;Node3 -->
<g id="edge4" class="edge"><title>Node2&#45;&gt;Node3</title>
<path fill="none" stroke="midnightblue" d="M1106.32,-506.379C1076.08,-488.686 1019.82,-449.929 1002,-398 996.052,-380.664 1001.24,-331.427 1008,-318 1013.86,-306.354 1023.36,-295.986 1033.04,-287.526"/>
<polygon fill="midnightblue" stroke="midnightblue" points="1035.28,-290.218 1040.78,-281.162 1030.83,-284.812 1035.28,-290.218"/>
</g>
<!-- Node20 -->
<g id="node42" class="node"><title>Node20</title>
<a xlink:href="../../d6/db7/RfParameters_8h.html" target="_top" xlink:title="blond/input_parameters\l/RfParameters.h">
<polygon fill="white" stroke="black" points="1067,-435 1067,-469 1185,-469 1185,-435 1067,-435"/>
<text text-anchor="start" x="1075" y="-456" font-family="Helvetica,sans-Serif" font-size="10.00">blond/input_parameters</text>
<text text-anchor="middle" x="1126" y="-443" font-family="Helvetica,sans-Serif" font-size="10.00">/RfParameters.h</text>
</a>
</g>
<!-- Node2&#45;&gt;Node20 -->
<g id="edge44" class="edge"><title>Node2&#45;&gt;Node20</title>
<path fill="none" stroke="midnightblue" d="M1126,-506.267C1126,-498.931 1126,-488.857 1126,-479.38"/>
<polygon fill="midnightblue" stroke="midnightblue" points="1129.5,-479.11 1126,-469.11 1122.5,-479.11 1129.5,-479.11"/>
</g>
<!-- Node23 -->
<g id="node51" class="node"><title>Node23</title>
<a xlink:href="../../dc/df2/Slices_8h.html" target="_top" xlink:title="blond/beams/Slices.h">
<polygon fill="white" stroke="black" points="1184,-253.5 1184,-274.5 1294,-274.5 1294,-253.5 1184,-253.5"/>
<text text-anchor="middle" x="1239" y="-261.5" font-family="Helvetica,sans-Serif" font-size="10.00">blond/beams/Slices.h</text>
</a>
</g>
<!-- Node2&#45;&gt;Node23 -->
<g id="edge116" class="edge"><title>Node2&#45;&gt;Node23</title>
<path fill="none" stroke="midnightblue" d="M1148.03,-506.45C1162.87,-498.338 1181.88,-485.843 1194,-470 1236.89,-413.942 1240.65,-388.578 1240,-318 1239.9,-307.1 1239.68,-294.964 1239.48,-284.963"/>
<polygon fill="midnightblue" stroke="midnightblue" points="1242.97,-284.679 1239.26,-274.757 1235.97,-284.83 1242.97,-284.679"/>
</g>
<!-- Node4 -->
<g id="node7" class="node"><title>Node4</title>
<a xlink:href="../../d2/d2c/configuration_8h.html" target="_top" xlink:title="blond/configuration.h">
<polygon fill="white" stroke="black" points="1290.5,-116.5 1290.5,-137.5 1397.5,-137.5 1397.5,-116.5 1290.5,-116.5"/>
<text text-anchor="middle" x="1344" y="-124.5" font-family="Helvetica,sans-Serif" font-size="10.00">blond/configuration.h</text>
</a>
</g>
<!-- Node3&#45;&gt;Node4 -->
<g id="edge6" class="edge"><title>Node3&#45;&gt;Node4</title>
<path fill="none" stroke="midnightblue" d="M1076.33,-246.852C1088.46,-226.262 1111.6,-192.23 1141,-174 1152.97,-166.574 1225.56,-150.778 1280.55,-139.551"/>
<polygon fill="midnightblue" stroke="midnightblue" points="1281.49,-142.931 1290.6,-137.511 1280.1,-136.072 1281.49,-142.931"/>
</g>
<!-- Node6 -->
<g id="node11" class="node"><title>Node6</title>
<polygon fill="white" stroke="#bfbfbf" points="1241,-58.5 1241,-79.5 1285,-79.5 1285,-58.5 1241,-58.5"/>
<text text-anchor="middle" x="1263" y="-66.5" font-family="Helvetica,sans-Serif" font-size="10.00">vector</text>
</g>
<!-- Node3&#45;&gt;Node6 -->
<g id="edge42" class="edge"><title>Node3&#45;&gt;Node6</title>
<path fill="none" stroke="midnightblue" d="M1068.34,-246.763C1070.85,-226.408 1078.11,-192.931 1099,-174 1148.2,-129.41 1196.46,-184.354 1244,-138 1256.89,-125.437 1261.27,-105.001 1262.65,-89.6236"/>
<polygon fill="midnightblue" stroke="midnightblue" points="1266.15,-89.6809 1263.2,-79.505 1259.17,-89.2995 1266.15,-89.6809"/>
</g>
<!-- Node3&#45;&gt;Node7 -->
<g id="edge12" class="edge"><title>Node3&#45;&gt;Node7</title>
<path fill="none" stroke="midnightblue" d="M1021.74,-246.937C988.787,-234.517 944.686,-217.892 913.657,-206.195"/>
<polygon fill="midnightblue" stroke="midnightblue" points="914.664,-202.835 904.072,-202.582 912.195,-209.385 914.664,-202.835"/>
</g>
<!-- Node5 -->
<g id="node9" class="node"><title>Node5</title>
<polygon fill="white" stroke="#bfbfbf" points="1317.5,-58.5 1317.5,-79.5 1370.5,-79.5 1370.5,-58.5 1317.5,-58.5"/>
<text text-anchor="middle" x="1344" y="-66.5" font-family="Helvetica,sans-Serif" font-size="10.00">complex</text>
</g>
<!-- Node4&#45;&gt;Node5 -->
<g id="edge8" class="edge"><title>Node4&#45;&gt;Node5</title>
<path fill="none" stroke="midnightblue" d="M1344,-116.362C1344,-108.922 1344,-98.7427 1344,-89.7276"/>
<polygon fill="midnightblue" stroke="midnightblue" points="1347.5,-89.5706 1344,-79.5707 1340.5,-89.5707 1347.5,-89.5706"/>
</g>
<!-- Node4&#45;&gt;Node6 -->
<g id="edge10" class="edge"><title>Node4&#45;&gt;Node6</title>
<path fill="none" stroke="midnightblue" d="M1329.14,-116.362C1317.15,-107.777 1300.07,-95.5459 1286.27,-85.6636"/>
<polygon fill="midnightblue" stroke="midnightblue" points="1287.93,-82.5469 1277.76,-79.5707 1283.86,-88.2383 1287.93,-82.5469"/>
</g>
<!-- Node7&#45;&gt;Node4 -->
<g id="edge36" class="edge"><title>Node7&#45;&gt;Node4</title>
<path fill="none" stroke="midnightblue" d="M917.122,-186.289C998.983,-174.919 1182.83,-149.385 1280.39,-135.835"/>
<polygon fill="midnightblue" stroke="midnightblue" points="1280.99,-139.285 1290.41,-134.443 1280.02,-132.352 1280.99,-139.285"/>
</g>
<!-- Node7&#45;&gt;Node6 -->
<g id="edge32" class="edge"><title>Node7&#45;&gt;Node6</title>
<path fill="none" stroke="midnightblue" d="M836.639,-181.457C795.33,-168.56 739.756,-144.843 766,-116 797.297,-81.6032 1125.46,-71.846 1230.71,-69.5907"/>
<polygon fill="midnightblue" stroke="midnightblue" points="1230.82,-73.0893 1240.74,-69.3842 1230.67,-66.0908 1230.82,-73.0893"/>
</g>
<!-- Node8 -->
<g id="node15" class="node"><title>Node8</title>
<polygon fill="white" stroke="#bfbfbf" points="1067,-116.5 1067,-137.5 1113,-137.5 1113,-116.5 1067,-116.5"/>
<text text-anchor="middle" x="1090" y="-124.5" font-family="Helvetica,sans-Serif" font-size="10.00">chrono</text>
</g>
<!-- Node7&#45;&gt;Node8 -->
<g id="edge14" class="edge"><title>Node7&#45;&gt;Node8</title>
<path fill="none" stroke="midnightblue" d="M913.091,-181.497C947.953,-171.514 1001.8,-155.811 1057.32,-138.135"/>
<polygon fill="midnightblue" stroke="midnightblue" points="1058.51,-141.429 1066.97,-135.049 1056.38,-134.762 1058.51,-141.429"/>
</g>
<!-- Node9 -->
<g id="node17" class="node"><title>Node9</title>
<polygon fill="white" stroke="#bfbfbf" points="1130.5,-116.5 1130.5,-137.5 1173.5,-137.5 1173.5,-116.5 1130.5,-116.5"/>
<text text-anchor="middle" x="1152" y="-124.5" font-family="Helvetica,sans-Serif" font-size="10.00">cstdio</text>
</g>
<!-- Node7&#45;&gt;Node9 -->
<g id="edge16" class="edge"><title>Node7&#45;&gt;Node9</title>
<path fill="none" stroke="midnightblue" d="M917.344,-184.697C964.555,-175.969 1044.19,-160.062 1120.69,-138.131"/>
<polygon fill="midnightblue" stroke="midnightblue" points="1121.86,-141.436 1130.49,-135.284 1119.91,-134.714 1121.86,-141.436"/>
</g>
<!-- Node10 -->
<g id="node19" class="node"><title>Node10</title>
<polygon fill="white" stroke="#bfbfbf" points="1190.5,-116.5 1190.5,-137.5 1235.5,-137.5 1235.5,-116.5 1190.5,-116.5"/>
<text text-anchor="middle" x="1213" y="-124.5" font-family="Helvetica,sans-Serif" font-size="10.00">cstdlib</text>
</g>
<!-- Node7&#45;&gt;Node10 -->
<g id="edge18" class="edge"><title>Node7&#45;&gt;Node10</title>
<path fill="none" stroke="midnightblue" d="M917.056,-186.965C974.319,-179.462 1081.44,-163.682 1180.57,-138.081"/>
<polygon fill="midnightblue" stroke="midnightblue" points="1181.66,-141.414 1190.45,-135.491 1179.89,-134.643 1181.66,-141.414"/>
</g>
<!-- Node11 -->
<g id="node21" class="node"><title>Node11</title>
<polygon fill="white" stroke="#bfbfbf" points="335,-116.5 335,-137.5 385,-137.5 385,-116.5 335,-116.5"/>
<text text-anchor="middle" x="360" y="-124.5" font-family="Helvetica,sans-Serif" font-size="10.00">fstream</text>
</g>
<!-- Node7&#45;&gt;Node11 -->
<g id="edge20" class="edge"><title>Node7&#45;&gt;Node11</title>
<path fill="none" stroke="midnightblue" d="M834.927,-190.188C752.798,-185.966 562.548,-173.189 395.077,-137.88"/>
<polygon fill="midnightblue" stroke="midnightblue" points="395.608,-134.414 385.097,-135.743 394.142,-141.259 395.608,-134.414"/>
</g>
<!-- Node12 -->
<g id="node23" class="node"><title>Node12</title>
<polygon fill="white" stroke="#bfbfbf" points="403,-116.5 403,-137.5 457,-137.5 457,-116.5 403,-116.5"/>
<text text-anchor="middle" x="430" y="-124.5" font-family="Helvetica,sans-Serif" font-size="10.00">iostream</text>
</g>
<!-- Node7&#45;&gt;Node12 -->
<g id="edge22" class="edge"><title>Node7&#45;&gt;Node12</title>
<path fill="none" stroke="midnightblue" d="M834.878,-188.853C762.323,-182.811 606.819,-167.668 467.036,-137.94"/>
<polygon fill="midnightblue" stroke="midnightblue" points="467.513,-134.463 457,-135.775 466.037,-141.306 467.513,-134.463"/>
</g>
<!-- Node13 -->
<g id="node25" class="node"><title>Node13</title>
<polygon fill="white" stroke="#bfbfbf" points="474.5,-116.5 474.5,-137.5 521.5,-137.5 521.5,-116.5 474.5,-116.5"/>
<text text-anchor="middle" x="498" y="-124.5" font-family="Helvetica,sans-Serif" font-size="10.00">iterator</text>
</g>
<!-- Node7&#45;&gt;Node13 -->
<g id="edge24" class="edge"><title>Node7&#45;&gt;Node13</title>
<path fill="none" stroke="midnightblue" d="M834.788,-187.946C771.314,-181.188 645.802,-165.781 531.583,-138.094"/>
<polygon fill="midnightblue" stroke="midnightblue" points="532.173,-134.635 521.626,-135.641 530.499,-141.431 532.173,-134.635"/>
</g>
<!-- Node14 -->
<g id="node27" class="node"><title>Node14</title>
<polygon fill="white" stroke="#bfbfbf" points="539,-116.5 539,-137.5 591,-137.5 591,-116.5 539,-116.5"/>
<text text-anchor="middle" x="565" y="-124.5" font-family="Helvetica,sans-Serif" font-size="10.00">memory</text>
</g>
<!-- Node7&#45;&gt;Node14 -->
<g id="edge26" class="edge"><title>Node7&#45;&gt;Node14</title>
<path fill="none" stroke="midnightblue" d="M834.999,-185.446C782.774,-176.777 689.617,-160.236 601.204,-138.116"/>
<polygon fill="midnightblue" stroke="midnightblue" points="601.836,-134.666 591.283,-135.605 600.119,-141.452 601.836,-134.666"/>
</g>
<!-- Node15 -->
<g id="node29" class="node"><title>Node15</title>
<polygon fill="white" stroke="#bfbfbf" points="609,-116.5 609,-137.5 661,-137.5 661,-116.5 609,-116.5"/>
<text text-anchor="middle" x="635" y="-124.5" font-family="Helvetica,sans-Serif" font-size="10.00">sstream</text>
</g>
<!-- Node7&#45;&gt;Node15 -->
<g id="edge28" class="edge"><title>Node7&#45;&gt;Node15</title>
<path fill="none" stroke="midnightblue" d="M834.802,-181.821C795.22,-171.904 733.511,-156.083 671.315,-138.296"/>
<polygon fill="midnightblue" stroke="midnightblue" points="671.91,-134.825 661.332,-135.425 669.975,-141.553 671.91,-134.825"/>
</g>
<!-- Node16 -->
<g id="node31" class="node"><title>Node16</title>
<polygon fill="white" stroke="#bfbfbf" points="678.5,-116.5 678.5,-137.5 719.5,-137.5 719.5,-116.5 678.5,-116.5"/>
<text text-anchor="middle" x="699" y="-124.5" font-family="Helvetica,sans-Serif" font-size="10.00">string</text>
</g>
<!-- Node7&#45;&gt;Node16 -->
<g id="edge30" class="edge"><title>Node7&#45;&gt;Node16</title>
<path fill="none" stroke="midnightblue" d="M847.168,-181.412C814.676,-169.48 762.099,-150.172 729.097,-138.053"/>
<polygon fill="midnightblue" stroke="midnightblue" points="730.121,-134.7 719.527,-134.538 727.708,-141.271 730.121,-134.7"/>
</g>
<!-- Node17 -->
<g id="node34" class="node"><title>Node17</title>
<polygon fill="white" stroke="#bfbfbf" points="775,-116.5 775,-137.5 835,-137.5 835,-116.5 775,-116.5"/>
<text text-anchor="middle" x="805" y="-124.5" font-family="Helvetica,sans-Serif" font-size="10.00">sys/stat.h</text>
</g>
<!-- Node7&#45;&gt;Node17 -->
<g id="edge34" class="edge"><title>Node7&#45;&gt;Node17</title>
<path fill="none" stroke="midnightblue" d="M864.276,-181.267C853.316,-171.233 836.762,-156.078 823.931,-144.331"/>
<polygon fill="midnightblue" stroke="midnightblue" points="826.245,-141.705 816.506,-137.534 821.519,-146.868 826.245,-141.705"/>
</g>
<!-- Node18 -->
<g id="node37" class="node"><title>Node18</title>
<polygon fill="white" stroke="#bfbfbf" points="852.5,-116.5 852.5,-137.5 927.5,-137.5 927.5,-116.5 852.5,-116.5"/>
<text text-anchor="middle" x="890" y="-124.5" font-family="Helvetica,sans-Serif" font-size="10.00">mm_malloc.h</text>
</g>
<!-- Node7&#45;&gt;Node18 -->
<g id="edge38" class="edge"><title>Node7&#45;&gt;Node18</title>
<path fill="none" stroke="midnightblue" d="M878.312,-181.267C880.289,-172.085 883.191,-158.615 885.608,-147.392"/>
<polygon fill="midnightblue" stroke="midnightblue" points="889.047,-148.046 887.731,-137.534 882.204,-146.573 889.047,-148.046"/>
</g>
<!-- Node19 -->
<g id="node39" class="node"><title>Node19</title>
<a xlink:href="../../da/d69/optionparser_8h.html" target="_top" xlink:title="This is the only file required to use The Lean Mean C++ Option Parser. Just #include it and you&#39;re se...">
<polygon fill="white" stroke="black" points="945,-116.5 945,-137.5 1049,-137.5 1049,-116.5 945,-116.5"/>
<text text-anchor="middle" x="997" y="-124.5" font-family="Helvetica,sans-Serif" font-size="10.00">blond/optionparser.h</text>
</a>
</g>
<!-- Node7&#45;&gt;Node19 -->
<g id="edge40" class="edge"><title>Node7&#45;&gt;Node19</title>
<path fill="none" stroke="midnightblue" d="M895.71,-181.412C915.398,-170.836 945.874,-154.465 968.256,-142.441"/>
<polygon fill="midnightblue" stroke="midnightblue" points="970.145,-145.399 977.298,-137.584 966.833,-139.233 970.145,-145.399"/>
</g>
<!-- Node20&#45;&gt;Node3 -->
<g id="edge74" class="edge"><title>Node20&#45;&gt;Node3</title>
<path fill="none" stroke="midnightblue" d="M1066.85,-437.843C1046.17,-429.747 1025.12,-417.221 1013,-398 990.721,-362.661 1020.29,-316.583 1043.67,-288.7"/>
<polygon fill="midnightblue" stroke="midnightblue" points="1046.44,-290.847 1050.36,-281.002 1041.16,-286.256 1046.44,-290.847"/>
</g>
<!-- Node21 -->
<g id="node44" class="node"><title>Node21</title>
<a xlink:href="../../d7/d74/Beams_8h.html" target="_top" xlink:title="blond/beams/Beams.h">
<polygon fill="white" stroke="black" points="1022,-376.5 1022,-397.5 1136,-397.5 1136,-376.5 1022,-376.5"/>
<text text-anchor="middle" x="1079" y="-384.5" font-family="Helvetica,sans-Serif" font-size="10.00">blond/beams/Beams.h</text>
</a>
</g>
<!-- Node20&#45;&gt;Node21 -->
<g id="edge46" class="edge"><title>Node20&#45;&gt;Node21</title>
<path fill="none" stroke="midnightblue" d="M1107.63,-434.922C1100.44,-426.212 1092.68,-415.578 1086.88,-406.542"/>
<polygon fill="midnightblue" stroke="midnightblue" points="1089.81,-404.621 1081.66,-397.852 1083.81,-408.226 1089.81,-404.621"/>
</g>
<!-- Node22 -->
<g id="node46" class="node"><title>Node22</title>
<a xlink:href="../../d5/d87/globals_8h.html" target="_top" xlink:title="blond/globals.h">
<polygon fill="white" stroke="black" points="1132,-318.5 1132,-339.5 1214,-339.5 1214,-318.5 1132,-318.5"/>
<text text-anchor="middle" x="1173" y="-326.5" font-family="Helvetica,sans-Serif" font-size="10.00">blond/globals.h</text>
</a>
</g>
<!-- Node20&#45;&gt;Node22 -->
<g id="edge114" class="edge"><title>Node20&#45;&gt;Node22</title>
<path fill="none" stroke="midnightblue" d="M1127.69,-434.897C1133.86,-412.372 1148.87,-372.83 1160.24,-348.962"/>
<polygon fill="midnightblue" stroke="midnightblue" points="1163.49,-350.294 1164.85,-339.787 1157.23,-347.15 1163.49,-350.294"/>
</g>
<!-- Node25 -->
<g id="node63" class="node"><title>Node25</title>
<a xlink:href="../../d2/de2/math__functions_8h.html" target="_top" xlink:title="blond/math_functions.h">
<polygon fill="white" stroke="black" points="330,-253.5 330,-274.5 448,-274.5 448,-253.5 330,-253.5"/>
<text text-anchor="middle" x="389" y="-261.5" font-family="Helvetica,sans-Serif" font-size="10.00">blond/math_functions.h</text>
</a>
</g>
<!-- Node20&#45;&gt;Node25 -->
<g id="edge76" class="edge"><title>Node20&#45;&gt;Node25</title>
<path fill="none" stroke="midnightblue" d="M1066.93,-436.933C926.116,-401.012 572.539,-310.819 440.126,-277.042"/>
<polygon fill="midnightblue" stroke="midnightblue" points="440.79,-273.599 430.235,-274.518 439.059,-280.382 440.79,-273.599"/>
</g>
<!-- Node36 -->
<g id="node91" class="node"><title>Node36</title>
<a xlink:href="../../d2/d6f/constants_8h.html" target="_top" xlink:title="blond/constants.h">
<polygon fill="white" stroke="black" points="1308,-318.5 1308,-339.5 1402,-339.5 1402,-318.5 1308,-318.5"/>
<text text-anchor="middle" x="1355" y="-326.5" font-family="Helvetica,sans-Serif" font-size="10.00">blond/constants.h</text>
</a>
</g>
<!-- Node20&#45;&gt;Node36 -->
<g id="edge110" class="edge"><title>Node20&#45;&gt;Node36</title>
<path fill="none" stroke="midnightblue" d="M1173.77,-434.996C1198.85,-425.367 1229.74,-412.384 1256,-398 1284.33,-382.48 1314.45,-360.626 1333.92,-345.697"/>
<polygon fill="midnightblue" stroke="midnightblue" points="1336.07,-348.46 1341.83,-339.567 1331.78,-342.928 1336.07,-348.46"/>
</g>
<!-- Node21&#45;&gt;Node3 -->
<g id="edge70" class="edge"><title>Node21&#45;&gt;Node3</title>
<path fill="none" stroke="midnightblue" d="M1077.94,-376.085C1076.1,-357.275 1072.29,-318.21 1069.69,-291.547"/>
<polygon fill="midnightblue" stroke="midnightblue" points="1073.14,-290.93 1068.69,-281.317 1066.18,-291.61 1073.14,-290.93"/>
</g>
<!-- Node21&#45;&gt;Node4 -->
<g id="edge66" class="edge"><title>Node21&#45;&gt;Node4</title>
<path fill="none" stroke="midnightblue" d="M1084.86,-376.276C1107.97,-334.08 1191.9,-181.423 1201,-174 1223.54,-155.621 1253.5,-144.34 1280.18,-137.458"/>
<polygon fill="midnightblue" stroke="midnightblue" points="1281.32,-140.782 1290.22,-135.03 1279.68,-133.978 1281.32,-140.782"/>
</g>
<!-- Node21&#45;&gt;Node7 -->
<g id="edge68" class="edge"><title>Node21&#45;&gt;Node7</title>
<path fill="none" stroke="midnightblue" d="M1067.8,-376.238C1034.53,-344.284 936.086,-249.718 894.681,-209.945"/>
<polygon fill="midnightblue" stroke="midnightblue" points="897.055,-207.372 887.419,-202.969 892.206,-212.421 897.055,-207.372"/>
</g>
<!-- Node21&#45;&gt;Node20 -->
<g id="edge72" class="edge"><title>Node21&#45;&gt;Node20</title>
<path fill="none" stroke="midnightblue" d="M1092.03,-397.852C1099.04,-405.669 1107.38,-416.549 1114.18,-426.508"/>
<polygon fill="midnightblue" stroke="midnightblue" points="1111.27,-428.466 1119.67,-434.922 1117.13,-424.636 1111.27,-428.466"/>
</g>
<!-- Node21&#45;&gt;Node22 -->
<g id="edge48" class="edge"><title>Node21&#45;&gt;Node22</title>
<path fill="none" stroke="midnightblue" d="M1090.88,-376.362C1103.74,-367.45 1124.32,-354.609 1141.75,-344.545"/>
<polygon fill="midnightblue" stroke="midnightblue" points="1143.55,-347.55 1150.52,-339.571 1140.09,-341.461 1143.55,-347.55"/>
</g>
<!-- Node22&#45;&gt;Node3 -->
<g id="edge50" class="edge"><title>Node22&#45;&gt;Node3</title>
<path fill="none" stroke="midnightblue" d="M1155.5,-318.267C1141.48,-309.669 1121.32,-297.31 1103.79,-286.558"/>
<polygon fill="midnightblue" stroke="midnightblue" points="1105.26,-283.354 1094.9,-281.11 1101.6,-289.321 1105.26,-283.354"/>
</g>
<!-- Node22&#45;&gt;Node20 -->
<g id="edge52" class="edge"><title>Node22&#45;&gt;Node20</title>
<path fill="none" stroke="midnightblue" d="M1172.91,-339.787C1168.59,-358.845 1153.8,-398.978 1141.69,-425.716"/>
<polygon fill="midnightblue" stroke="midnightblue" points="1138.46,-424.358 1137.38,-434.897 1144.8,-427.335 1138.46,-424.358"/>
</g>
<!-- Node22&#45;&gt;Node21 -->
<g id="edge54" class="edge"><title>Node22&#45;&gt;Node21</title>
<path fill="none" stroke="midnightblue" d="M1161.22,-339.571C1148.39,-348.462 1127.82,-361.301 1110.38,-371.379"/>
<polygon fill="midnightblue" stroke="midnightblue" points="1108.57,-368.381 1101.61,-376.362 1112.03,-374.469 1108.57,-368.381"/>
</g>
<!-- Node22&#45;&gt;Node23 -->
<g id="edge56" class="edge"><title>Node22&#45;&gt;Node23</title>
<path fill="none" stroke="midnightblue" d="M1183.9,-318.267C1193.99,-308.328 1209.18,-293.363 1221.06,-281.664"/>
<polygon fill="midnightblue" stroke="midnightblue" points="1223.64,-284.044 1228.3,-274.534 1218.72,-279.057 1223.64,-284.044"/>
</g>
<!-- Node23&#45;&gt;Node4 -->
<g id="edge58" class="edge"><title>Node23&#45;&gt;Node4</title>
<path fill="none" stroke="midnightblue" d="M1230.34,-253.342C1216.93,-235.46 1194.42,-198.927 1212,-174 1221.28,-160.85 1256.23,-148.738 1287.83,-140.103"/>
<polygon fill="midnightblue" stroke="midnightblue" points="1288.73,-143.486 1297.5,-137.538 1286.94,-136.72 1288.73,-143.486"/>
</g>
<!-- Node23&#45;&gt;Node7 -->
<g id="edge60" class="edge"><title>Node23&#45;&gt;Node7</title>
<path fill="none" stroke="midnightblue" d="M1185.83,-253.453C1116.43,-239.688 995.782,-215.758 927.313,-202.178"/>
<polygon fill="midnightblue" stroke="midnightblue" points="927.685,-198.683 917.195,-200.171 926.323,-205.55 927.685,-198.683"/>
</g>
<!-- Node23&#45;&gt;Node20 -->
<g id="edge62" class="edge"><title>Node23&#45;&gt;Node20</title>
<path fill="none" stroke="midnightblue" d="M1238.43,-274.62C1237.26,-289.83 1233.7,-318.367 1223,-340 1205.96,-374.442 1175.78,-406.825 1153.59,-427.825"/>
<polygon fill="midnightblue" stroke="midnightblue" points="1151.06,-425.396 1146.11,-434.762 1155.82,-430.527 1151.06,-425.396"/>
</g>
<!-- Node24 -->
<g id="node56" class="node"><title>Node24</title>
<polygon fill="white" stroke="#bfbfbf" points="1294.5,-181.5 1294.5,-202.5 1329.5,-202.5 1329.5,-181.5 1294.5,-181.5"/>
<text text-anchor="middle" x="1312" y="-189.5" font-family="Helvetica,sans-Serif" font-size="10.00">map</text>
</g>
<!-- Node23&#45;&gt;Node24 -->
<g id="edge64" class="edge"><title>Node23&#45;&gt;Node24</title>
<path fill="none" stroke="midnightblue" d="M1249.77,-253.376C1261.42,-241.89 1280.17,-223.393 1294.05,-209.703"/>
<polygon fill="midnightblue" stroke="midnightblue" points="1296.52,-212.181 1301.18,-202.667 1291.61,-207.198 1296.52,-212.181"/>
</g>
<!-- Node25&#45;&gt;Node4 -->
<g id="edge80" class="edge"><title>Node25&#45;&gt;Node4</title>
<path fill="none" stroke="midnightblue" d="M448.057,-260.098C547.216,-253.092 753.284,-236.579 926,-210 1003.62,-198.055 1021.99,-189.399 1099,-174 1160.59,-161.686 1231.01,-148.242 1280.5,-138.899"/>
<polygon fill="midnightblue" stroke="midnightblue" points="1281.25,-142.321 1290.42,-137.028 1279.95,-135.442 1281.25,-142.321"/>
</g>
<!-- Node25&#45;&gt;Node7 -->
<g id="edge98" class="edge"><title>Node25&#45;&gt;Node7</title>
<path fill="none" stroke="midnightblue" d="M448.229,-255.243C544.641,-240.989 733.871,-213.013 824.815,-199.567"/>
<polygon fill="midnightblue" stroke="midnightblue" points="825.501,-203.004 834.881,-198.079 824.477,-196.079 825.501,-203.004"/>
</g>
<!-- Node26 -->
<g id="node65" class="node"><title>Node26</title>
<polygon fill="white" stroke="#bfbfbf" points="1221,-181.5 1221,-202.5 1277,-202.5 1277,-181.5 1221,-181.5"/>
<text text-anchor="middle" x="1249" y="-189.5" font-family="Helvetica,sans-Serif" font-size="10.00">algorithm</text>
</g>
<!-- Node25&#45;&gt;Node26 -->
<g id="edge78" class="edge"><title>Node25&#45;&gt;Node26</title>
<path fill="none" stroke="midnightblue" d="M448.403,-260.215C569.679,-252.318 854.451,-232.903 1093,-210 1133.23,-206.138 1179.18,-200.713 1210.73,-196.83"/>
<polygon fill="midnightblue" stroke="midnightblue" points="1211.36,-200.279 1220.85,-195.577 1210.5,-193.332 1211.36,-200.279"/>
</g>
<!-- Node27 -->
<g id="node68" class="node"><title>Node27</title>
<a xlink:href="../../d8/dcd/exp_8h.html" target="_top" xlink:title="blond/exp.h">
<polygon fill="white" stroke="black" points="355.5,-181.5 355.5,-202.5 422.5,-202.5 422.5,-181.5 355.5,-181.5"/>
<text text-anchor="middle" x="389" y="-189.5" font-family="Helvetica,sans-Serif" font-size="10.00">blond/exp.h</text>
</a>
</g>
<!-- Node25&#45;&gt;Node27 -->
<g id="edge82" class="edge"><title>Node25&#45;&gt;Node27</title>
<path fill="none" stroke="midnightblue" d="M389,-253.376C389,-242.741 389,-226.095 389,-212.82"/>
<polygon fill="midnightblue" stroke="midnightblue" points="392.5,-212.667 389,-202.667 385.5,-212.667 392.5,-212.667"/>
</g>
<!-- Node29 -->
<g id="node72" class="node"><title>Node29</title>
<polygon fill="white" stroke="#bfbfbf" points="207,-0.5 207,-21.5 251,-21.5 251,-0.5 207,-0.5"/>
<text text-anchor="middle" x="229" y="-8.5" font-family="Helvetica,sans-Serif" font-size="10.00">cmath</text>
</g>
<!-- Node25&#45;&gt;Node29 -->
<g id="edge100" class="edge"><title>Node25&#45;&gt;Node29</title>
<path fill="none" stroke="midnightblue" d="M400.885,-253.346C419.023,-235.782 449.641,-200.098 431,-174 402.326,-133.856 362.801,-170.856 326,-138 296.637,-111.785 312.468,-88.8342 288,-58 278.659,-46.2285 265.838,-35.5667 254.533,-27.3848"/>
<polygon fill="midnightblue" stroke="midnightblue" points="256.474,-24.4718 246.266,-21.6343 252.477,-30.2182 256.474,-24.4718"/>
</g>
<!-- Node30 -->
<g id="node74" class="node"><title>Node30</title>
<polygon fill="white" stroke="#bfbfbf" points="197,-116.5 197,-137.5 237,-137.5 237,-116.5 197,-116.5"/>
<text text-anchor="middle" x="217" y="-124.5" font-family="Helvetica,sans-Serif" font-size="10.00">limits</text>
</g>
<!-- Node25&#45;&gt;Node30 -->
<g id="edge104" class="edge"><title>Node25&#45;&gt;Node30</title>
<path fill="none" stroke="midnightblue" d="M329.763,-261.065C256.52,-256.052 138.171,-242.957 111,-210 100.822,-197.655 102.276,-187.412 111,-174 115.487,-167.102 157.488,-149.841 187.249,-138.269"/>
<polygon fill="midnightblue" stroke="midnightblue" points="188.73,-141.45 196.801,-134.587 186.212,-134.918 188.73,-141.45"/>
</g>
<!-- Node31 -->
<g id="node76" class="node"><title>Node31</title>
<a xlink:href="../../d1/d3d/sin_8h.html" target="_top" xlink:title="blond/sin.h">
<polygon fill="white" stroke="black" points="0,-181.5 0,-202.5 64,-202.5 64,-181.5 0,-181.5"/>
<text text-anchor="middle" x="32" y="-189.5" font-family="Helvetica,sans-Serif" font-size="10.00">blond/sin.h</text>
</a>
</g>
<!-- Node25&#45;&gt;Node31 -->
<g id="edge90" class="edge"><title>Node25&#45;&gt;Node31</title>
<path fill="none" stroke="midnightblue" d="M329.751,-257.315C266.589,-249.357 164.031,-234.037 78,-210 74.1155,-208.915 70.1057,-207.621 66.1478,-206.231"/>
<polygon fill="midnightblue" stroke="midnightblue" points="67.1098,-202.855 56.5171,-202.645 64.6672,-209.415 67.1098,-202.855"/>
</g>
<!-- Node33 -->
<g id="node84" class="node"><title>Node33</title>
<polygon fill="white" stroke="#bfbfbf" points="119.5,-181.5 119.5,-202.5 168.5,-202.5 168.5,-181.5 119.5,-181.5"/>
<text text-anchor="middle" x="144" y="-189.5" font-family="Helvetica,sans-Serif" font-size="10.00">random</text>
</g>
<!-- Node25&#45;&gt;Node33 -->
<g id="edge102" class="edge"><title>Node25&#45;&gt;Node33</title>
<path fill="none" stroke="midnightblue" d="M331.549,-253.428C288.198,-244.485 227.727,-229.931 177,-210 174.878,-209.166 172.72,-208.225 170.577,-207.221"/>
<polygon fill="midnightblue" stroke="midnightblue" points="171.918,-203.976 161.419,-202.555 168.741,-210.213 171.918,-203.976"/>
</g>
<!-- Node34 -->
<g id="node87" class="node"><title>Node34</title>
<polygon fill="white" stroke="#bfbfbf" points="185.5,-181.5 185.5,-202.5 234.5,-202.5 234.5,-181.5 185.5,-181.5"/>
<text text-anchor="middle" x="210" y="-189.5" font-family="Helvetica,sans-Serif" font-size="10.00">cassert</text>
</g>
<!-- Node25&#45;&gt;Node34 -->
<g id="edge106" class="edge"><title>Node25&#45;&gt;Node34</title>
<path fill="none" stroke="midnightblue" d="M356.271,-253.416C326.317,-243.375 281.009,-227.285 243,-210 241.173,-209.169 239.309,-208.278 237.443,-207.354"/>
<polygon fill="midnightblue" stroke="midnightblue" points="238.747,-204.086 228.26,-202.573 235.514,-210.295 238.747,-204.086"/>
</g>
<!-- Node35 -->
<g id="node89" class="node"><title>Node35</title>
<a xlink:href="../../d1/db0/openmp_8h.html" target="_top" xlink:title="blond/openmp.h">
<polygon fill="white" stroke="black" points="252,-181.5 252,-202.5 338,-202.5 338,-181.5 252,-181.5"/>
<text text-anchor="middle" x="295" y="-189.5" font-family="Helvetica,sans-Serif" font-size="10.00">blond/openmp.h</text>
</a>
</g>
<!-- Node25&#45;&gt;Node35 -->
<g id="edge108" class="edge"><title>Node25&#45;&gt;Node35</title>
<path fill="none" stroke="midnightblue" d="M375.13,-253.376C359.857,-241.678 335.087,-222.705 317.126,-208.948"/>
<polygon fill="midnightblue" stroke="midnightblue" points="318.994,-205.97 308.927,-202.667 314.737,-211.527 318.994,-205.97"/>
</g>
<!-- Node28 -->
<g id="node70" class="node"><title>Node28</title>
<a xlink:href="../../df/de1/vdtcore__common_8h.html" target="_top" xlink:title="vdtcore_common.h">
<polygon fill="white" stroke="black" points="179,-58.5 179,-79.5 279,-79.5 279,-58.5 179,-58.5"/>
<text text-anchor="middle" x="229" y="-66.5" font-family="Helvetica,sans-Serif" font-size="10.00">vdtcore_common.h</text>
</a>
</g>
<!-- Node27&#45;&gt;Node28 -->
<g id="edge84" class="edge"><title>Node27&#45;&gt;Node28</title>
<path fill="none" stroke="midnightblue" d="M365.643,-181.415C345.389,-171.66 315.824,-155.997 293,-138 274.124,-123.116 255.806,-102.55 243.639,-87.7491"/>
<polygon fill="midnightblue" stroke="midnightblue" points="246.226,-85.3812 237.228,-79.7871 240.773,-89.7712 246.226,-85.3812"/>
</g>
<!-- Node27&#45;&gt;Node30 -->
<g id="edge88" class="edge"><title>Node27&#45;&gt;Node30</title>
<path fill="none" stroke="midnightblue" d="M365.112,-181.479C359.219,-178.961 352.903,-176.33 347,-174 312.953,-160.563 273.333,-146.454 246.864,-137.244"/>
<polygon fill="midnightblue" stroke="midnightblue" points="247.997,-133.933 237.403,-133.965 245.705,-140.547 247.997,-133.933"/>
</g>
<!-- Node28&#45;&gt;Node29 -->
<g id="edge86" class="edge"><title>Node28&#45;&gt;Node29</title>
<path fill="none" stroke="midnightblue" d="M229,-58.3619C229,-50.9219 229,-40.7427 229,-31.7276"/>
<polygon fill="midnightblue" stroke="midnightblue" points="232.5,-31.5706 229,-21.5707 225.5,-31.5707 232.5,-31.5706"/>
</g>
<!-- Node32 -->
<g id="node78" class="node"><title>Node32</title>
<a xlink:href="../../dc/dfa/sincos_8h.html" target="_top" xlink:title="sincos.h">
<polygon fill="white" stroke="black" points="124.5,-116.5 124.5,-137.5 177.5,-137.5 177.5,-116.5 124.5,-116.5"/>
<text text-anchor="middle" x="151" y="-124.5" font-family="Helvetica,sans-Serif" font-size="10.00">sincos.h</text>
</a>
</g>
<!-- Node31&#45;&gt;Node32 -->
<g id="edge92" class="edge"><title>Node31&#45;&gt;Node32</title>
<path fill="none" stroke="midnightblue" d="M51.3843,-181.412C70.7469,-170.836 100.719,-154.465 122.731,-142.441"/>
<polygon fill="midnightblue" stroke="midnightblue" points="124.526,-145.449 131.624,-137.584 121.17,-139.306 124.526,-145.449"/>
</g>
<!-- Node32&#45;&gt;Node28 -->
<g id="edge94" class="edge"><title>Node32&#45;&gt;Node28</title>
<path fill="none" stroke="midnightblue" d="M165.306,-116.362C176.851,-107.777 193.3,-95.5459 206.59,-85.6636"/>
<polygon fill="midnightblue" stroke="midnightblue" points="208.848,-88.3463 214.784,-79.5707 204.671,-82.7291 208.848,-88.3463"/>
</g>
<!-- Node32&#45;&gt;Node29 -->
<g id="edge96" class="edge"><title>Node32&#45;&gt;Node29</title>
<path fill="none" stroke="midnightblue" d="M151.877,-116.343C153.49,-102.02 157.953,-76.2508 170,-58 178.106,-45.7195 190.462,-35.1651 201.776,-27.1871"/>
<polygon fill="midnightblue" stroke="midnightblue" points="203.765,-30.0674 210.137,-21.6027 199.877,-24.2464 203.765,-30.0674"/>
</g>
<!-- Node36&#45;&gt;Node4 -->
<g id="edge112" class="edge"><title>Node36&#45;&gt;Node4</title>
<path fill="none" stroke="midnightblue" d="M1354.42,-318.424C1352.69,-286.53 1347.48,-190.865 1345.15,-148.081"/>
<polygon fill="midnightblue" stroke="midnightblue" points="1348.64,-147.756 1344.6,-137.961 1341.65,-148.137 1348.64,-147.756"/>
</g>
<!-- Node37&#45;&gt;Node4 -->
<g id="edge126" class="edge"><title>Node37&#45;&gt;Node4</title>
<path fill="none" stroke="midnightblue" d="M1420.49,-253.25C1406.55,-230.241 1373.65,-175.937 1355.88,-146.608"/>
<polygon fill="midnightblue" stroke="midnightblue" points="1358.66,-144.439 1350.48,-137.7 1352.67,-148.067 1358.66,-144.439"/>
</g>
<!-- Node37&#45;&gt;Node24 -->
<g id="edge124" class="edge"><title>Node37&#45;&gt;Node24</title>
<path fill="none" stroke="midnightblue" d="M1410.03,-253.376C1390.92,-241.412 1359.66,-221.839 1337.58,-208.018"/>
<polygon fill="midnightblue" stroke="midnightblue" points="1339.37,-205.008 1329.04,-202.667 1335.66,-210.941 1339.37,-205.008"/>
</g>
<!-- Node37&#45;&gt;Node26 -->
<g id="edge128" class="edge"><title>Node37&#45;&gt;Node26</title>
<path fill="none" stroke="midnightblue" d="M1397.26,-253.465C1368.52,-243.082 1323.88,-226.429 1286,-210 1283.79,-209.041 1281.52,-208.021 1279.24,-206.975"/>
<polygon fill="midnightblue" stroke="midnightblue" points="1280.52,-203.709 1269.98,-202.601 1277.53,-210.038 1280.52,-203.709"/>
</g>
<!-- Node38 -->
<g id="node98" class="node"><title>Node38</title>
<polygon fill="white" stroke="#bfbfbf" points="1423,-181.5 1423,-202.5 1479,-202.5 1479,-181.5 1423,-181.5"/>
<text text-anchor="middle" x="1451" y="-189.5" font-family="Helvetica,sans-Serif" font-size="10.00">Python.h</text>
</g>
<!-- Node37&#45;&gt;Node38 -->
<g id="edge120" class="edge"><title>Node37&#45;&gt;Node38</title>
<path fill="none" stroke="midnightblue" d="M1430.54,-253.376C1434.12,-242.635 1439.75,-225.761 1444.19,-212.422"/>
<polygon fill="midnightblue" stroke="midnightblue" points="1447.6,-213.261 1447.44,-202.667 1440.96,-211.047 1447.6,-213.261"/>
</g>
<!-- Node39 -->
<g id="node100" class="node"><title>Node39</title>
<polygon fill="white" stroke="#bfbfbf" points="1497,-175 1497,-209 1605,-209 1605,-175 1497,-175"/>
<text text-anchor="start" x="1505" y="-196" font-family="Helvetica,sans-Serif" font-size="10.00">numpy/core/include</text>
<text text-anchor="middle" x="1551" y="-183" font-family="Helvetica,sans-Serif" font-size="10.00">/numpy/arrayobject.h</text>
</g>
<!-- Node37&#45;&gt;Node39 -->
<g id="edge122" class="edge"><title>Node37&#45;&gt;Node39</title>
<path fill="none" stroke="midnightblue" d="M1445.3,-253.376C1463.02,-243.085 1490.44,-227.166 1512.91,-214.118"/>
<polygon fill="midnightblue" stroke="midnightblue" points="1514.67,-217.143 1521.56,-209.094 1511.15,-211.089 1514.67,-217.143"/>
</g>
</g>
</svg>
