<?xml version="1.0" encoding="UTF-8" standalone="no"?>
<!DOCTYPE svg PUBLIC "-//W3C//DTD SVG 1.1//EN"
 "http://www.w3.org/Graphics/SVG/1.1/DTD/svg11.dtd">
<!-- Generated by graphviz version 2.26.3 (20100126.1600)
 -->
<!-- Title: InducedVoltageTime Pages: 1 -->
<svg width="1411pt" height="1382pt"
 viewBox="0.00 0.00 1411.00 1382.00" xmlns="http://www.w3.org/2000/svg" xmlns:xlink="http://www.w3.org/1999/xlink">
<g id="graph1" class="graph" transform="scale(1 1) rotate(0) translate(4 1378)">
<title>InducedVoltageTime</title>
<polygon fill="white" stroke="white" points="-4,5 -4,-1378 1408,-1378 1408,5 -4,5"/>
<!-- Node1 -->
<g id="node1" class="node"><title>Node1</title>
<polygon fill="#bfbfbf" stroke="black" points="1068,-1 1068,-129 1220,-129 1220,-1 1068,-1"/>
<text text-anchor="middle" x="1144" y="-116" font-family="Helvetica,sans-Serif" font-size="10.00">InducedVoltageTime</text>
<polyline fill="none" stroke="black" points="1068,-108 1220,-108 "/>
<text text-anchor="middle" x="1144" y="-95" font-family="Helvetica,sans-Serif" font-size="10.00"> </text>
<polyline fill="none" stroke="black" points="1068,-87 1220,-87 "/>
<text text-anchor="start" x="1076" y="-74" font-family="Helvetica,sans-Serif" font-size="10.00">+ InducedVoltageTime()</text>
<text text-anchor="start" x="1076" y="-61" font-family="Helvetica,sans-Serif" font-size="10.00">+ ~InducedVoltageTime()</text>
<text text-anchor="start" x="1076" y="-48" font-family="Helvetica,sans-Serif" font-size="10.00">+ induced_voltage_generation()</text>
<text text-anchor="start" x="1076" y="-35" font-family="Helvetica,sans-Serif" font-size="10.00">+ reprocess()</text>
<text text-anchor="start" x="1076" y="-22" font-family="Helvetica,sans-Serif" font-size="10.00">+ sum_wakes()</text>
<text text-anchor="start" x="1076" y="-9" font-family="Helvetica,sans-Serif" font-size="10.00">+ track()</text>
</g>
<!-- Node2 -->
<g id="node2" class="node"><title>Node2</title>
<a xlink:href="../../dd/de2/classInducedVoltage.html" target="_top" xlink:title="{InducedVoltage\n||+ InducedVoltage()\l+ ~InducedVoltage()\l+ induced_voltage_generation()\l+ reprocess()\l+ track()\l}">
<polygon fill="white" stroke="black" points="964,-180.5 964,-295.5 1116,-295.5 1116,-180.5 964,-180.5"/>
<text text-anchor="middle" x="1040" y="-282.5" font-family="Helvetica,sans-Serif" font-size="10.00">InducedVoltage</text>
<polyline fill="none" stroke="black" points="964,-274.5 1116,-274.5 "/>
<text text-anchor="middle" x="1040" y="-261.5" font-family="Helvetica,sans-Serif" font-size="10.00"> </text>
<polyline fill="none" stroke="black" points="964,-253.5 1116,-253.5 "/>
<text text-anchor="start" x="972" y="-240.5" font-family="Helvetica,sans-Serif" font-size="10.00">+ InducedVoltage()</text>
<text text-anchor="start" x="972" y="-227.5" font-family="Helvetica,sans-Serif" font-size="10.00">+ ~InducedVoltage()</text>
<text text-anchor="start" x="972" y="-214.5" font-family="Helvetica,sans-Serif" font-size="10.00">+ induced_voltage_generation()</text>
<text text-anchor="start" x="972" y="-201.5" font-family="Helvetica,sans-Serif" font-size="10.00">+ reprocess()</text>
<text text-anchor="start" x="972" y="-188.5" font-family="Helvetica,sans-Serif" font-size="10.00">+ track()</text>
</a>
</g>
<!-- Node2&#45;&gt;Node1 -->
<g id="edge2" class="edge"><title>Node2&#45;&gt;Node1</title>
<path fill="none" stroke="midnightblue" d="M1079.79,-171.805C1088.19,-157.832 1097.04,-143.111 1105.4,-129.213"/>
<polygon fill="none" stroke="midnightblue" points="1076.78,-170.02 1074.63,-180.394 1082.78,-173.626 1076.78,-170.02"/>
</g>
<!-- Node3 -->
<g id="node4" class="node"><title>Node3</title>
<a xlink:href="../../dc/d45/classSlices.html" target="_top" xlink:title="{Slices\n||+ Slices()\l+ ~Slices()\l+ beam_profile_derivative()\l+ beam_profile_filter\l_chebyshev()\l+ beam_profile_filter\l_chebyshev()\l+ beam_spectrum_generation()\l+ convert_coordinates()\l+ fwhm()\l+ fwhm_multibunch()\l+ gaussian_fit()\land 9 more...\l&#45; gaussian_filter1d()\l&#45; gradient()\l}">
<polygon fill="white" stroke="black" points="720,-346.5 720,-591.5 872,-591.5 872,-346.5 720,-346.5"/>
<text text-anchor="middle" x="796" y="-578.5" font-family="Helvetica,sans-Serif" font-size="10.00">Slices</text>
<polyline fill="none" stroke="black" points="720,-570.5 872,-570.5 "/>
<text text-anchor="middle" x="796" y="-557.5" font-family="Helvetica,sans-Serif" font-size="10.00"> </text>
<polyline fill="none" stroke="black" points="720,-549.5 872,-549.5 "/>
<text text-anchor="start" x="728" y="-536.5" font-family="Helvetica,sans-Serif" font-size="10.00">+ Slices()</text>
<text text-anchor="start" x="728" y="-523.5" font-family="Helvetica,sans-Serif" font-size="10.00">+ ~Slices()</text>
<text text-anchor="start" x="728" y="-510.5" font-family="Helvetica,sans-Serif" font-size="10.00">+ beam_profile_derivative()</text>
<text text-anchor="start" x="728" y="-497.5" font-family="Helvetica,sans-Serif" font-size="10.00">+ beam_profile_filter</text>
<text text-anchor="start" x="728" y="-484.5" font-family="Helvetica,sans-Serif" font-size="10.00">_chebyshev()</text>
<text text-anchor="start" x="728" y="-471.5" font-family="Helvetica,sans-Serif" font-size="10.00">+ beam_profile_filter</text>
<text text-anchor="start" x="728" y="-458.5" font-family="Helvetica,sans-Serif" font-size="10.00">_chebyshev()</text>
<text text-anchor="start" x="728" y="-445.5" font-family="Helvetica,sans-Serif" font-size="10.00">+ beam_spectrum_generation()</text>
<text text-anchor="start" x="728" y="-432.5" font-family="Helvetica,sans-Serif" font-size="10.00">+ convert_coordinates()</text>
<text text-anchor="start" x="728" y="-419.5" font-family="Helvetica,sans-Serif" font-size="10.00">+ fwhm()</text>
<text text-anchor="start" x="728" y="-406.5" font-family="Helvetica,sans-Serif" font-size="10.00">+ fwhm_multibunch()</text>
<text text-anchor="start" x="728" y="-393.5" font-family="Helvetica,sans-Serif" font-size="10.00">+ gaussian_fit()</text>
<text text-anchor="start" x="728" y="-380.5" font-family="Helvetica,sans-Serif" font-size="10.00">and 9 more...</text>
<text text-anchor="start" x="728" y="-367.5" font-family="Helvetica,sans-Serif" font-size="10.00">&#45; gaussian_filter1d()</text>
<text text-anchor="start" x="728" y="-354.5" font-family="Helvetica,sans-Serif" font-size="10.00">&#45; gradient()</text>
</a>
</g>
<!-- Node3&#45;&gt;Node2 -->
<g id="edge4" class="edge"><title>Node3&#45;&gt;Node2</title>
<path fill="none" stroke="#404040" d="M872.199,-396.86C903.507,-367.221 939.522,-333.125 970.14,-304.138"/>
<polygon fill="none" stroke="#404040" points="970.325,-303.963 971.932,-296.933 979.039,-295.713 977.432,-302.742 970.325,-303.963"/>
<text text-anchor="middle" x="975" y="-318.5" font-family="Helvetica,sans-Serif" font-size="10.00"> +fSlices</text>
</g>
<!-- Node4 -->
<g id="node6" class="node"><title>Node4</title>
<a xlink:href="../../d9/d7c/classBeams.html" target="_top" xlink:title="{Beams\n|+ mass\l+ momentum\l|+ Beams()\l+ ~Beams()\l+ losses_energy_cut()\l+ losses_longitudinal_cut()\l+ losses_separatrix()\l+ n_macroparticles_alive()\l+ statistics()\l&#45; statistics()\l}">
<polygon fill="white" stroke="black" points="398.5,-654.5 398.5,-821.5 531.5,-821.5 531.5,-654.5 398.5,-654.5"/>
<text text-anchor="middle" x="465" y="-808.5" font-family="Helvetica,sans-Serif" font-size="10.00">Beams</text>
<polyline fill="none" stroke="black" points="398.5,-800.5 531.5,-800.5 "/>
<text text-anchor="start" x="406.5" y="-787.5" font-family="Helvetica,sans-Serif" font-size="10.00">+ mass</text>
<text text-anchor="start" x="406.5" y="-774.5" font-family="Helvetica,sans-Serif" font-size="10.00">+ momentum</text>
<polyline fill="none" stroke="black" points="398.5,-766.5 531.5,-766.5 "/>
<text text-anchor="start" x="406.5" y="-753.5" font-family="Helvetica,sans-Serif" font-size="10.00">+ Beams()</text>
<text text-anchor="start" x="406.5" y="-740.5" font-family="Helvetica,sans-Serif" font-size="10.00">+ ~Beams()</text>
<text text-anchor="start" x="406.5" y="-727.5" font-family="Helvetica,sans-Serif" font-size="10.00">+ losses_energy_cut()</text>
<text text-anchor="start" x="406.5" y="-714.5" font-family="Helvetica,sans-Serif" font-size="10.00">+ losses_longitudinal_cut()</text>
<text text-anchor="start" x="406.5" y="-701.5" font-family="Helvetica,sans-Serif" font-size="10.00">+ losses_separatrix()</text>
<text text-anchor="start" x="406.5" y="-688.5" font-family="Helvetica,sans-Serif" font-size="10.00">+ n_macroparticles_alive()</text>
<text text-anchor="start" x="406.5" y="-675.5" font-family="Helvetica,sans-Serif" font-size="10.00">+ statistics()</text>
<text text-anchor="start" x="406.5" y="-662.5" font-family="Helvetica,sans-Serif" font-size="10.00">&#45; statistics()</text>
</a>
</g>
<!-- Node4&#45;&gt;Node3 -->
<g id="edge6" class="edge"><title>Node4&#45;&gt;Node3</title>
<path fill="none" stroke="#404040" d="M531.585,-683.887C583.07,-642.046 654.729,-583.809 710.462,-538.515"/>
<polygon fill="none" stroke="#404040" points="710.656,-538.358 712.789,-531.47 719.968,-530.79 717.835,-537.678 710.656,-538.358"/>
<text text-anchor="middle" x="638" y="-620.5" font-family="Helvetica,sans-Serif" font-size="10.00"> +beam</text>
</g>
<!-- Node5 -->
<g id="node8" class="node"><title>Node5</title>
<polygon fill="white" stroke="#bfbfbf" points="647.5,-1196.5 647.5,-1259.5 692.5,-1259.5 692.5,-1196.5 647.5,-1196.5"/>
<text text-anchor="middle" x="670" y="-1246.5" font-family="Helvetica,sans-Serif" font-size="10.00">double</text>
<polyline fill="none" stroke="#bfbfbf" points="647.5,-1238.5 692.5,-1238.5 "/>
<text text-anchor="middle" x="670" y="-1225.5" font-family="Helvetica,sans-Serif" font-size="10.00"> </text>
<polyline fill="none" stroke="#bfbfbf" points="647.5,-1217.5 692.5,-1217.5 "/>
<text text-anchor="middle" x="670" y="-1204.5" font-family="Helvetica,sans-Serif" font-size="10.00"> </text>
</g>
<!-- Node5&#45;&gt;Node3 -->
<g id="edge28" class="edge"><title>Node5&#45;&gt;Node3</title>
<path fill="none" stroke="#404040" d="M692.627,-1197.83C702.892,-1182.89 714.407,-1164.2 722,-1146 747.279,-1085.4 708.48,-1048.34 755,-1002 780.821,-976.281 812.233,-1012.46 835,-984 874.98,-934.024 861.038,-898.464 835,-840 830.135,-829.076 820.157,-832.79 815,-822 782.916,-754.876 776.957,-672.17 779.575,-603.691"/>
<polygon fill="none" stroke="#404040" points="779.583,-603.503 775.864,-597.326 780.135,-591.516 783.855,-597.694 779.583,-603.503"/>
<text text-anchor="middle" x="887" y="-974.5" font-family="Helvetica,sans-Serif" font-size="10.00"> +bp_fwhm</text>
<text text-anchor="middle" x="887" y="-961.5" font-family="Helvetica,sans-Serif" font-size="10.00">&#45;cfwhm</text>
<text text-anchor="middle" x="887" y="-948.5" font-family="Helvetica,sans-Serif" font-size="10.00">+cut_right</text>
<text text-anchor="middle" x="887" y="-935.5" font-family="Helvetica,sans-Serif" font-size="10.00">+bl_rms</text>
<text text-anchor="middle" x="887" y="-922.5" font-family="Helvetica,sans-Serif" font-size="10.00">+bl_fwhm</text>
<text text-anchor="middle" x="887" y="-909.5" font-family="Helvetica,sans-Serif" font-size="10.00">+bl_gauss</text>
<text text-anchor="middle" x="887" y="-896.5" font-family="Helvetica,sans-Serif" font-size="10.00">+cut_left</text>
<text text-anchor="middle" x="887" y="-883.5" font-family="Helvetica,sans-Serif" font-size="10.00">+bp_rms</text>
<text text-anchor="middle" x="887" y="-870.5" font-family="Helvetica,sans-Serif" font-size="10.00">&#45;thread_hist</text>
<text text-anchor="middle" x="887" y="-857.5" font-family="Helvetica,sans-Serif" font-size="10.00">+bp_gauss</text>
<text text-anchor="middle" x="887" y="-844.5" font-family="Helvetica,sans-Serif" font-size="10.00">...</text>
</g>
<!-- Node5&#45;&gt;Node4 -->
<g id="edge8" class="edge"><title>Node5&#45;&gt;Node4</title>
<path fill="none" stroke="#404040" d="M647.497,-1223.9C592.121,-1213.3 451.794,-1183.22 425,-1146 390.218,-1097.68 417.981,-938.262 441.396,-833.594"/>
<polygon fill="none" stroke="#404040" points="441.428,-833.449 438.853,-826.714 444.08,-821.746 446.655,-828.481 441.428,-833.449"/>
<text text-anchor="middle" x="453.5" y="-1136.5" font-family="Helvetica,sans-Serif" font-size="10.00"> +energy</text>
<text text-anchor="middle" x="453.5" y="-1123.5" font-family="Helvetica,sans-Serif" font-size="10.00">+sigma_dt</text>
<text text-anchor="middle" x="453.5" y="-1110.5" font-family="Helvetica,sans-Serif" font-size="10.00">+sigma_dE</text>
<text text-anchor="middle" x="453.5" y="-1097.5" font-family="Helvetica,sans-Serif" font-size="10.00">+gamma</text>
<text text-anchor="middle" x="453.5" y="-1084.5" font-family="Helvetica,sans-Serif" font-size="10.00">+beta</text>
<text text-anchor="middle" x="453.5" y="-1071.5" font-family="Helvetica,sans-Serif" font-size="10.00">+ratio</text>
<text text-anchor="middle" x="453.5" y="-1058.5" font-family="Helvetica,sans-Serif" font-size="10.00">+epsn_rms_l</text>
<text text-anchor="middle" x="453.5" y="-1045.5" font-family="Helvetica,sans-Serif" font-size="10.00">+mean_dE</text>
<text text-anchor="middle" x="453.5" y="-1032.5" font-family="Helvetica,sans-Serif" font-size="10.00">+mean_dt</text>
<text text-anchor="middle" x="453.5" y="-1019.5" font-family="Helvetica,sans-Serif" font-size="10.00">+charge</text>
<text text-anchor="middle" x="453.5" y="-1006.5" font-family="Helvetica,sans-Serif" font-size="10.00">...</text>
</g>
<!-- Node11 -->
<g id="node21" class="node"><title>Node11</title>
<polygon fill="white" stroke="#bfbfbf" points="997,-1042.5 997,-1105.5 1107,-1105.5 1107,-1042.5 997,-1042.5"/>
<text text-anchor="middle" x="1052" y="-1092.5" font-family="Helvetica,sans-Serif" font-size="10.00">std::vector&lt; double &gt;</text>
<polyline fill="none" stroke="#bfbfbf" points="997,-1084.5 1107,-1084.5 "/>
<text text-anchor="middle" x="1052" y="-1071.5" font-family="Helvetica,sans-Serif" font-size="10.00"> </text>
<polyline fill="none" stroke="#bfbfbf" points="997,-1063.5 1107,-1063.5 "/>
<text text-anchor="middle" x="1052" y="-1050.5" font-family="Helvetica,sans-Serif" font-size="10.00"> </text>
</g>
<!-- Node5&#45;&gt;Node11 -->
<g id="edge24" class="edge"><title>Node5&#45;&gt;Node11</title>
<path fill="none" stroke="#404040" d="M692.543,-1209.59C712.417,-1194.49 742.831,-1174.02 773,-1164 861.898,-1134.47 898.491,-1186.42 983,-1146 997.936,-1138.86 1011.34,-1127 1022.27,-1114.96"/>
<polygon fill="none" stroke="#404040" points="1022.33,-1114.89 1023.2,-1107.73 1030.14,-1105.78 1029.27,-1112.94 1022.33,-1114.89"/>
<text text-anchor="middle" x="797.5" y="-1168.5" font-family="Helvetica,sans-Serif" font-size="10.00"> +elements</text>
</g>
<!-- Node13 -->
<g id="node29" class="node"><title>Node13</title>
<a xlink:href="../../da/d49/classRfParameters.html" target="_top" xlink:title="{RfParameters\n||+ RfParameters()\l+ ~RfParameters()\l+ calc_phi_s()\l+ eta_tracking()\l}">
<polygon fill="white" stroke="black" points="603,-687 603,-789 701,-789 701,-687 603,-687"/>
<text text-anchor="middle" x="652" y="-776" font-family="Helvetica,sans-Serif" font-size="10.00">RfParameters</text>
<polyline fill="none" stroke="black" points="603,-768 701,-768 "/>
<text text-anchor="middle" x="652" y="-755" font-family="Helvetica,sans-Serif" font-size="10.00"> </text>
<polyline fill="none" stroke="black" points="603,-747 701,-747 "/>
<text text-anchor="start" x="611" y="-734" font-family="Helvetica,sans-Serif" font-size="10.00">+ RfParameters()</text>
<text text-anchor="start" x="611" y="-721" font-family="Helvetica,sans-Serif" font-size="10.00">+ ~RfParameters()</text>
<text text-anchor="start" x="611" y="-708" font-family="Helvetica,sans-Serif" font-size="10.00">+ calc_phi_s()</text>
<text text-anchor="start" x="611" y="-695" font-family="Helvetica,sans-Serif" font-size="10.00">+ eta_tracking()</text>
</a>
</g>
<!-- Node5&#45;&gt;Node13 -->
<g id="edge36" class="edge"><title>Node5&#45;&gt;Node13</title>
<path fill="none" stroke="#404040" d="M651.934,-1196.37C644.492,-1181.57 636.745,-1163.41 633,-1146 607.214,-1026.16 624.919,-882.115 639.135,-801.208"/>
<polygon fill="none" stroke="#404040" points="639.16,-801.069 636.289,-794.454 641.291,-789.259 644.162,-795.874 639.16,-801.069"/>
<text text-anchor="middle" x="677.5" y="-1091" font-family="Helvetica,sans-Serif" font-size="10.00"> +length_ratio</text>
<text text-anchor="middle" x="677.5" y="-1078" font-family="Helvetica,sans-Serif" font-size="10.00">+ring_circumference</text>
<text text-anchor="middle" x="677.5" y="-1065" font-family="Helvetica,sans-Serif" font-size="10.00">+section_length</text>
<text text-anchor="middle" x="677.5" y="-1052" font-family="Helvetica,sans-Serif" font-size="10.00">+charge</text>
</g>
<!-- Node6 -->
<g id="node10" class="node"><title>Node6</title>
<polygon fill="white" stroke="#bfbfbf" points="218,-1042.5 218,-1105.5 274,-1105.5 274,-1042.5 218,-1042.5"/>
<text text-anchor="middle" x="246" y="-1092.5" font-family="Helvetica,sans-Serif" font-size="10.00">long long</text>
<polyline fill="none" stroke="#bfbfbf" points="218,-1084.5 274,-1084.5 "/>
<text text-anchor="middle" x="246" y="-1071.5" font-family="Helvetica,sans-Serif" font-size="10.00"> </text>
<polyline fill="none" stroke="#bfbfbf" points="218,-1063.5 274,-1063.5 "/>
<text text-anchor="middle" x="246" y="-1050.5" font-family="Helvetica,sans-Serif" font-size="10.00"> </text>
</g>
<!-- Node6&#45;&gt;Node4 -->
<g id="edge10" class="edge"><title>Node6&#45;&gt;Node4</title>
<path fill="none" stroke="#404040" d="M251.737,-1042.47C262.262,-993.089 289.114,-897.251 347,-840 359.601,-827.537 369.764,-832.024 388.317,-821.995"/>
<polygon fill="none" stroke="#404040" points="388.369,-821.962 391.281,-815.365 398.491,-815.517 395.578,-822.113 388.369,-821.962"/>
<text text-anchor="middle" x="370" y="-909.5" font-family="Helvetica,sans-Serif" font-size="10.00"> +intensity</text>
</g>
<!-- Node7 -->
<g id="node12" class="node"><title>Node7</title>
<polygon fill="white" stroke="#bfbfbf" points="83.5,-1196.5 83.5,-1259.5 112.5,-1259.5 112.5,-1196.5 83.5,-1196.5"/>
<text text-anchor="middle" x="98" y="-1246.5" font-family="Helvetica,sans-Serif" font-size="10.00">int</text>
<polyline fill="none" stroke="#bfbfbf" points="83.5,-1238.5 112.5,-1238.5 "/>
<text text-anchor="middle" x="98" y="-1225.5" font-family="Helvetica,sans-Serif" font-size="10.00"> </text>
<polyline fill="none" stroke="#bfbfbf" points="83.5,-1217.5 112.5,-1217.5 "/>
<text text-anchor="middle" x="98" y="-1204.5" font-family="Helvetica,sans-Serif" font-size="10.00"> </text>
</g>
<!-- Node7&#45;&gt;Node1 -->
<g id="edge76" class="edge"><title>Node7&#45;&gt;Node1</title>
<path fill="none" stroke="#404040" d="M83.1159,-1215.72C55.7007,-1191.63 0,-1135.16 0,-1074 0,-1074 0,-1074 0,-238 0,-131.358 787.22,-82.5963 1055.61,-69.0708"/>
<polygon fill="none" stroke="#404040" points="1055.62,-69.0701 1061.42,-64.7761 1067.61,-68.4721 1061.82,-72.7661 1055.62,-69.0701"/>
<text text-anchor="middle" x="18.5" y="-627" font-family="Helvetica,sans-Serif" font-size="10.00"> +fCut</text>
<text text-anchor="middle" x="18.5" y="-614" font-family="Helvetica,sans-Serif" font-size="10.00">+fShape</text>
</g>
<!-- Node7&#45;&gt;Node3 -->
<g id="edge32" class="edge"><title>Node7&#45;&gt;Node3</title>
<path fill="none" stroke="#404040" d="M84.6237,-1196.28C57.6074,-1126.97 4.22358,-958.733 67,-840 194.893,-598.108 543.234,-510.171 707.733,-481.468"/>
<polygon fill="none" stroke="#404040" points="707.902,-481.44 713.145,-476.488 719.731,-479.423 714.489,-484.375 707.902,-481.44"/>
<text text-anchor="middle" x="90" y="-916" font-family="Helvetica,sans-Serif" font-size="10.00"> +n_sigma</text>
<text text-anchor="middle" x="90" y="-903" font-family="Helvetica,sans-Serif" font-size="10.00">+n_slices</text>
</g>
<!-- Node7&#45;&gt;Node4 -->
<g id="edge12" class="edge"><title>Node7&#45;&gt;Node4</title>
<path fill="none" stroke="#404040" d="M92.4126,-1196.48C85.8872,-1151.33 79.2179,-1066.56 107,-1002 146.753,-909.616 175.352,-885.59 265,-840 311.708,-816.247 337.045,-844.287 387.049,-822.581"/>
<polygon fill="none" stroke="#404040" points="387.335,-822.44 390.962,-816.207 398.11,-817.157 394.484,-823.39 387.335,-822.44"/>
<text text-anchor="middle" x="158" y="-1078" font-family="Helvetica,sans-Serif" font-size="10.00"> +n_macroparticles</text>
<text text-anchor="middle" x="158" y="-1065" font-family="Helvetica,sans-Serif" font-size="10.00">+n_macroparticles_lost</text>
</g>
<!-- Node8 -->
<g id="node14" class="node"><title>Node8</title>
<polygon fill="white" stroke="#bfbfbf" points="491,-1042.5 491,-1105.5 583,-1105.5 583,-1042.5 491,-1042.5"/>
<text text-anchor="middle" x="537" y="-1092.5" font-family="Helvetica,sans-Serif" font-size="10.00">std::vector&lt; int &gt;</text>
<polyline fill="none" stroke="#bfbfbf" points="491,-1084.5 583,-1084.5 "/>
<text text-anchor="middle" x="537" y="-1071.5" font-family="Helvetica,sans-Serif" font-size="10.00"> </text>
<polyline fill="none" stroke="#bfbfbf" points="491,-1063.5 583,-1063.5 "/>
<text text-anchor="middle" x="537" y="-1050.5" font-family="Helvetica,sans-Serif" font-size="10.00"> </text>
</g>
<!-- Node7&#45;&gt;Node8 -->
<g id="edge16" class="edge"><title>Node7&#45;&gt;Node8</title>
<path fill="none" stroke="#404040" d="M112.898,-1226.09C175.009,-1217.95 413.083,-1184.71 477,-1146 489.83,-1138.23 501.201,-1126.72 510.499,-1115.17"/>
<polygon fill="none" stroke="#404040" points="510.553,-1115.1 510.995,-1107.9 517.808,-1105.54 517.367,-1112.74 510.553,-1115.1"/>
<text text-anchor="middle" x="458.5" y="-1168.5" font-family="Helvetica,sans-Serif" font-size="10.00"> +elements</text>
</g>
<!-- Node7&#45;&gt;Node13 -->
<g id="edge44" class="edge"><title>Node7&#45;&gt;Node13</title>
<path fill="none" stroke="#404040" d="M112.508,-1225.57C146.975,-1219.06 234.504,-1198.05 283,-1146 329.385,-1096.21 285.37,-1048.55 335,-1002 355.928,-982.37 376.255,-1003.82 397,-984 445.877,-937.295 394.997,-884.373 446,-840 478.091,-812.08 501.097,-839.203 540,-822 558.501,-813.819 576.809,-802.079 593.096,-789.959"/>
<polygon fill="none" stroke="#404040" points="593.438,-789.697 595.764,-782.871 602.959,-782.392 600.633,-789.218 593.438,-789.697"/>
<text text-anchor="middle" x="370" y="-1097.5" font-family="Helvetica,sans-Serif" font-size="10.00"> +section_index</text>
<text text-anchor="middle" x="370" y="-1084.5" font-family="Helvetica,sans-Serif" font-size="10.00">+n_turns</text>
<text text-anchor="middle" x="370" y="-1071.5" font-family="Helvetica,sans-Serif" font-size="10.00">+counter</text>
<text text-anchor="middle" x="370" y="-1058.5" font-family="Helvetica,sans-Serif" font-size="10.00">+n_rf</text>
<text text-anchor="middle" x="370" y="-1045.5" font-family="Helvetica,sans-Serif" font-size="10.00">+alpha_order</text>
</g>
<!-- Node8&#45;&gt;Node4 -->
<g id="edge14" class="edge"><title>Node8&#45;&gt;Node4</title>
<path fill="none" stroke="#404040" d="M510.266,-1042.23C491.151,-1019.17 468.395,-990.858 466,-984 449.39,-936.438 447.874,-880.478 451.07,-833.956"/>
<polygon fill="none" stroke="#404040" points="451.091,-833.686 447.574,-827.391 452.032,-821.723 455.549,-828.019 451.091,-833.686"/>
<text text-anchor="middle" x="474.5" y="-909.5" font-family="Helvetica,sans-Serif" font-size="10.00"> +id</text>
</g>
<!-- Node8&#45;&gt;Node13 -->
<g id="edge46" class="edge"><title>Node8&#45;&gt;Node13</title>
<path fill="none" stroke="#404040" d="M520.904,-1042.27C499.253,-994.71 467.635,-903.721 506,-840 514.819,-825.352 525.561,-831.157 540,-822 557.759,-810.737 576.306,-797.493 593.082,-784.892"/>
<polygon fill="none" stroke="#404040" points="593.175,-784.822 595.537,-778.008 602.734,-777.568 600.372,-784.381 593.175,-784.822"/>
<text text-anchor="middle" x="534.5" y="-909.5" font-family="Helvetica,sans-Serif" font-size="10.00"> +sign_eta_0</text>
</g>
<!-- Node9 -->
<g id="node17" class="node"><title>Node9</title>
<a xlink:title="STL class.">
<polygon fill="white" stroke="#bfbfbf" points="934.5,-1196.5 934.5,-1259.5 1021.5,-1259.5 1021.5,-1196.5 934.5,-1196.5"/>
<text text-anchor="middle" x="978" y="-1246.5" font-family="Helvetica,sans-Serif" font-size="10.00">std::vector&lt; T &gt;</text>
<polyline fill="none" stroke="#bfbfbf" points="934.5,-1238.5 1021.5,-1238.5 "/>
<text text-anchor="middle" x="978" y="-1225.5" font-family="Helvetica,sans-Serif" font-size="10.00"> </text>
<polyline fill="none" stroke="#bfbfbf" points="934.5,-1217.5 1021.5,-1217.5 "/>
<text text-anchor="middle" x="978" y="-1204.5" font-family="Helvetica,sans-Serif" font-size="10.00"> </text>
</a>
</g>
<!-- Node9&#45;&gt;Node8 -->
<g id="edge18" class="edge"><title>Node9&#45;&gt;Node8</title>
<path fill="none" stroke="orange" d="M924.242,-1221.27C832.512,-1209 650.474,-1181 597,-1146 581.208,-1135.66 567.408,-1119.91 557.037,-1105.77"/>
<polygon fill="orange" stroke="orange" points="923.793,-1224.74 934.166,-1222.58 924.712,-1217.8 923.793,-1224.74"/>
<text text-anchor="middle" x="699" y="-1168.5" font-family="Helvetica,sans-Serif" font-size="10.00"> &lt; int &gt;</text>
</g>
<!-- Node9&#45;&gt;Node11 -->
<g id="edge26" class="edge"><title>Node9&#45;&gt;Node11</title>
<path fill="none" stroke="orange" d="M997.509,-1187.4C1009.78,-1161.87 1025.38,-1129.4 1036.74,-1105.76"/>
<polygon fill="orange" stroke="orange" points="994.33,-1185.93 993.154,-1196.46 1000.64,-1188.97 994.33,-1185.93"/>
<text text-anchor="middle" x="1034" y="-1168.5" font-family="Helvetica,sans-Serif" font-size="10.00"> &lt; double &gt;</text>
</g>
<!-- Node9&#45;&gt;Node13 -->
<g id="edge50" class="edge"><title>Node9&#45;&gt;Node13</title>
<path fill="none" stroke="#404040" d="M976.262,-1196.23C974.375,-1185.2 970.768,-1173.28 964,-1164 954.613,-1151.13 942.576,-1158.73 933,-1146 893.347,-1093.28 946.613,-1045.48 897,-1002 843.848,-955.417 790.901,-1031.97 739,-984 691.122,-939.745 733.86,-901.06 711,-840 705.929,-826.454 699.158,-812.61 692.014,-799.666"/>
<polygon fill="none" stroke="#404040" points="691.895,-799.457 685.449,-796.225 685.954,-789.031 692.4,-792.264 691.895,-799.457"/>
<text text-anchor="middle" x="960.5" y="-1117" font-family="Helvetica,sans-Serif" font-size="10.00"> +energy</text>
<text text-anchor="middle" x="960.5" y="-1104" font-family="Helvetica,sans-Serif" font-size="10.00">+t_rev</text>
<text text-anchor="middle" x="960.5" y="-1091" font-family="Helvetica,sans-Serif" font-size="10.00">+eta_0</text>
<text text-anchor="middle" x="960.5" y="-1078" font-family="Helvetica,sans-Serif" font-size="10.00">+gamma</text>
<text text-anchor="middle" x="960.5" y="-1065" font-family="Helvetica,sans-Serif" font-size="10.00">+eta_1</text>
<text text-anchor="middle" x="960.5" y="-1052" font-family="Helvetica,sans-Serif" font-size="10.00">+beta</text>
<text text-anchor="middle" x="960.5" y="-1039" font-family="Helvetica,sans-Serif" font-size="10.00">+eta_2</text>
<text text-anchor="middle" x="960.5" y="-1026" font-family="Helvetica,sans-Serif" font-size="10.00">+momentum</text>
</g>
<!-- Node14 -->
<g id="node32" class="node"><title>Node14</title>
<polygon fill="white" stroke="#bfbfbf" points="763.5,-1042.5 763.5,-1105.5 888.5,-1105.5 888.5,-1042.5 763.5,-1042.5"/>
<text text-anchor="middle" x="826" y="-1092.5" font-family="Helvetica,sans-Serif" font-size="10.00">std::vector&lt; f_vector_t &gt;</text>
<polyline fill="none" stroke="#bfbfbf" points="763.5,-1084.5 888.5,-1084.5 "/>
<text text-anchor="middle" x="826" y="-1071.5" font-family="Helvetica,sans-Serif" font-size="10.00"> </text>
<polyline fill="none" stroke="#bfbfbf" points="763.5,-1063.5 888.5,-1063.5 "/>
<text text-anchor="middle" x="826" y="-1050.5" font-family="Helvetica,sans-Serif" font-size="10.00"> </text>
</g>
<!-- Node9&#45;&gt;Node14 -->
<g id="edge40" class="edge"><title>Node9&#45;&gt;Node14</title>
<path fill="none" stroke="#404040" d="M935.703,-1196.28C928.59,-1190.43 921.435,-1184.2 915,-1178 894.854,-1158.59 874.414,-1135.03 858.211,-1115.25"/>
<polygon fill="none" stroke="#404040" points="858.172,-1115.2 851.287,-1113.06 850.618,-1105.88 857.503,-1108.02 858.172,-1115.2"/>
<text text-anchor="middle" x="939.5" y="-1168.5" font-family="Helvetica,sans-Serif" font-size="10.00"> +elements</text>
</g>
<!-- Node9&#45;&gt;Node14 -->
<g id="edge42" class="edge"><title>Node9&#45;&gt;Node14</title>
<path fill="none" stroke="orange" d="M924.285,-1216.05C887.927,-1206.78 844.497,-1193.03 833,-1178 817.498,-1157.73 816.949,-1128.24 819.584,-1105.84"/>
<polygon fill="orange" stroke="orange" points="923.772,-1219.52 934.32,-1218.54 925.458,-1212.73 923.772,-1219.52"/>
<text text-anchor="middle" x="865.5" y="-1168.5" font-family="Helvetica,sans-Serif" font-size="10.00"> &lt; f_vector_t &gt;</text>
</g>
<!-- Node15 -->
<g id="node40" class="node"><title>Node15</title>
<polygon fill="white" stroke="#bfbfbf" points="1125,-1042.5 1125,-1105.5 1251,-1105.5 1251,-1042.5 1125,-1042.5"/>
<text text-anchor="middle" x="1188" y="-1092.5" font-family="Helvetica,sans-Serif" font-size="10.00">std::vector&lt; complex_t &gt;</text>
<polyline fill="none" stroke="#bfbfbf" points="1125,-1084.5 1251,-1084.5 "/>
<text text-anchor="middle" x="1188" y="-1071.5" font-family="Helvetica,sans-Serif" font-size="10.00"> </text>
<polyline fill="none" stroke="#bfbfbf" points="1125,-1063.5 1251,-1063.5 "/>
<text text-anchor="middle" x="1188" y="-1050.5" font-family="Helvetica,sans-Serif" font-size="10.00"> </text>
</g>
<!-- Node9&#45;&gt;Node15 -->
<g id="edge56" class="edge"><title>Node9&#45;&gt;Node15</title>
<path fill="none" stroke="orange" d="M1030.61,-1200.93C1057.25,-1186.19 1089.48,-1166.76 1116,-1146 1131.31,-1134.01 1146.76,-1119.03 1159.4,-1105.85"/>
<polygon fill="orange" stroke="orange" points="1028.9,-1197.87 1021.81,-1205.74 1032.26,-1204.01 1028.9,-1197.87"/>
<text text-anchor="middle" x="1125.5" y="-1168.5" font-family="Helvetica,sans-Serif" font-size="10.00"> &lt; complex_t &gt;</text>
</g>
<!-- Node18 -->
<g id="node49" class="node"><title>Node18</title>
<polygon fill="white" stroke="#bfbfbf" points="1219.5,-437.5 1219.5,-500.5 1344.5,-500.5 1344.5,-437.5 1219.5,-437.5"/>
<text text-anchor="middle" x="1282" y="-487.5" font-family="Helvetica,sans-Serif" font-size="10.00">std::vector&lt; Intensity * &gt;</text>
<polyline fill="none" stroke="#bfbfbf" points="1219.5,-479.5 1344.5,-479.5 "/>
<text text-anchor="middle" x="1282" y="-466.5" font-family="Helvetica,sans-Serif" font-size="10.00"> </text>
<polyline fill="none" stroke="#bfbfbf" points="1219.5,-458.5 1344.5,-458.5 "/>
<text text-anchor="middle" x="1282" y="-445.5" font-family="Helvetica,sans-Serif" font-size="10.00"> </text>
</g>
<!-- Node9&#45;&gt;Node18 -->
<g id="edge72" class="edge"><title>Node9&#45;&gt;Node18</title>
<path fill="none" stroke="orange" d="M1031.86,-1217.41C1064.09,-1211.12 1105.87,-1203.01 1143,-1196 1186.52,-1187.78 1204.66,-1203.31 1241,-1178 1254.57,-1168.55 1254.07,-1161.44 1260,-1146 1339.12,-940.113 1350.13,-873.13 1325,-654 1318.73,-599.292 1302.34,-537.233 1291.7,-500.696"/>
<polygon fill="orange" stroke="orange" points="1030.89,-1214.04 1021.75,-1219.39 1032.24,-1220.91 1030.89,-1214.04"/>
<text text-anchor="middle" x="1370" y="-909.5" font-family="Helvetica,sans-Serif" font-size="10.00"> &lt; Intensity * &gt;</text>
</g>
<!-- Node10 -->
<g id="node19" class="node"><title>Node10</title>
<polygon fill="white" stroke="#bfbfbf" points="963.5,-1310.5 963.5,-1373.5 992.5,-1373.5 992.5,-1310.5 963.5,-1310.5"/>
<text text-anchor="middle" x="978" y="-1360.5" font-family="Helvetica,sans-Serif" font-size="10.00">T</text>
<polyline fill="none" stroke="#bfbfbf" points="963.5,-1352.5 992.5,-1352.5 "/>
<text text-anchor="middle" x="978" y="-1339.5" font-family="Helvetica,sans-Serif" font-size="10.00"> </text>
<polyline fill="none" stroke="#bfbfbf" points="963.5,-1331.5 992.5,-1331.5 "/>
<text text-anchor="middle" x="978" y="-1318.5" font-family="Helvetica,sans-Serif" font-size="10.00"> </text>
</g>
<!-- Node10&#45;&gt;Node9 -->
<g id="edge20" class="edge"><title>Node10&#45;&gt;Node9</title>
<path fill="none" stroke="#404040" d="M978,-1310.24C978,-1298.39 978,-1284.7 978,-1271.94"/>
<polygon fill="none" stroke="#404040" points="978,-1271.59 974,-1265.59 978,-1259.59 982,-1265.59 978,-1271.59"/>
<text text-anchor="middle" x="1002.5" y="-1282.5" font-family="Helvetica,sans-Serif" font-size="10.00"> +elements</text>
</g>
<!-- Node11&#45;&gt;Node1 -->
<g id="edge78" class="edge"><title>Node11&#45;&gt;Node1</title>
<path fill="none" stroke="#404040" d="M1055.4,-1042.2C1065.67,-947.166 1096.2,-670.813 1106,-654 1112.71,-642.48 1123.89,-647.852 1130,-636 1152.04,-593.23 1148.71,-287.086 1145.81,-141.521"/>
<polygon fill="none" stroke="#404040" points="1145.8,-141.211 1141.68,-135.294 1145.56,-129.213 1149.68,-135.13 1145.8,-141.211"/>
<text text-anchor="middle" x="1177" y="-473" font-family="Helvetica,sans-Serif" font-size="10.00"> +fTimeArray</text>
<text text-anchor="middle" x="1177" y="-460" font-family="Helvetica,sans-Serif" font-size="10.00">+fTotalWake</text>
</g>
<!-- Node11&#45;&gt;Node2 -->
<g id="edge62" class="edge"><title>Node11&#45;&gt;Node2</title>
<path fill="none" stroke="#404040" d="M1051.54,-1042.25C1049.79,-920.271 1043.47,-480.01 1041,-307.77"/>
<polygon fill="none" stroke="#404040" points="1041,-307.594 1036.91,-301.652 1040.83,-295.596 1044.91,-301.538 1041,-307.594"/>
<text text-anchor="middle" x="1086" y="-620.5" font-family="Helvetica,sans-Serif" font-size="10.00"> +fInducedVoltage</text>
</g>
<!-- Node11&#45;&gt;Node3 -->
<g id="edge60" class="edge"><title>Node11&#45;&gt;Node3</title>
<path fill="none" stroke="#404040" d="M1035.24,-1042.17C1011.01,-995.128 966.045,-903.757 938,-822 906.555,-730.333 925.149,-699.086 887,-610 884.208,-603.48 881.124,-596.925 877.829,-590.401"/>
<polygon fill="none" stroke="#404040" points="877.667,-590.092 871.34,-586.633 872.099,-579.462 878.426,-582.921 877.667,-590.092"/>
<text text-anchor="middle" x="986.5" y="-755" font-family="Helvetica,sans-Serif" font-size="10.00"> +bin_centers</text>
<text text-anchor="middle" x="986.5" y="-742" font-family="Helvetica,sans-Serif" font-size="10.00">+fBeamSpectrumFreq</text>
<text text-anchor="middle" x="986.5" y="-729" font-family="Helvetica,sans-Serif" font-size="10.00">+n_macroparticles</text>
<text text-anchor="middle" x="986.5" y="-716" font-family="Helvetica,sans-Serif" font-size="10.00">+edges</text>
</g>
<!-- Node11&#45;&gt;Node4 -->
<g id="edge22" class="edge"><title>Node11&#45;&gt;Node4</title>
<path fill="none" stroke="#404040" d="M1030.57,-1042.3C1018.52,-1027.25 1002.06,-1010.69 983,-1002 945.853,-985.061 648.903,-1008.17 616,-984 561.038,-943.626 599.17,-897.815 563,-840 556.219,-829.161 548.143,-818.512 539.579,-808.424"/>
<polygon fill="none" stroke="#404040" points="539.514,-808.35 532.55,-806.477 531.6,-799.328 538.564,-801.201 539.514,-808.35"/>
<text text-anchor="middle" x="625.5" y="-916" font-family="Helvetica,sans-Serif" font-size="10.00"> +dt</text>
<text text-anchor="middle" x="625.5" y="-903" font-family="Helvetica,sans-Serif" font-size="10.00">+dE</text>
</g>
<!-- Node11&#45;&gt;Node13 -->
<g id="edge48" class="edge"><title>Node11&#45;&gt;Node13</title>
<path fill="none" stroke="#404040" d="M1030.16,-1042.18C1018.1,-1027.29 1001.77,-1010.91 983,-1002 937.891,-980.575 795.665,-1017.9 759,-984 711.415,-939.998 762.644,-899.081 736,-840 729.094,-824.687 719.266,-809.788 708.753,-796.32"/>
<polygon fill="none" stroke="#404040" points="708.572,-796.097 701.685,-793.96 701.008,-786.781 707.896,-788.918 708.572,-796.097"/>
<text text-anchor="middle" x="797" y="-948.5" font-family="Helvetica,sans-Serif" font-size="10.00"> +omega_s0</text>
<text text-anchor="middle" x="797" y="-935.5" font-family="Helvetica,sans-Serif" font-size="10.00">+phi_s</text>
<text text-anchor="middle" x="797" y="-922.5" font-family="Helvetica,sans-Serif" font-size="10.00">+dphi_rf</text>
<text text-anchor="middle" x="797" y="-909.5" font-family="Helvetica,sans-Serif" font-size="10.00">+Qs</text>
<text text-anchor="middle" x="797" y="-896.5" font-family="Helvetica,sans-Serif" font-size="10.00">+t_rf</text>
<text text-anchor="middle" x="797" y="-883.5" font-family="Helvetica,sans-Serif" font-size="10.00">+dphi_rf_steering</text>
<text text-anchor="middle" x="797" y="-870.5" font-family="Helvetica,sans-Serif" font-size="10.00">+E_increment</text>
</g>
<!-- Node19 -->
<g id="node51" class="node"><title>Node19</title>
<a xlink:href="../../dc/dad/classIntensity.html" target="_top" xlink:title="{Intensity\n||+ Intensity()\l+ ~Intensity()\l+ imped_calc()\l+ wake_calc()\l}">
<polygon fill="white" stroke="black" points="1114.5,-687 1114.5,-789 1195.5,-789 1195.5,-687 1114.5,-687"/>
<text text-anchor="middle" x="1155" y="-776" font-family="Helvetica,sans-Serif" font-size="10.00">Intensity</text>
<polyline fill="none" stroke="black" points="1114.5,-768 1195.5,-768 "/>
<text text-anchor="middle" x="1155" y="-755" font-family="Helvetica,sans-Serif" font-size="10.00"> </text>
<polyline fill="none" stroke="black" points="1114.5,-747 1195.5,-747 "/>
<text text-anchor="start" x="1122.5" y="-734" font-family="Helvetica,sans-Serif" font-size="10.00">+ Intensity()</text>
<text text-anchor="start" x="1122.5" y="-721" font-family="Helvetica,sans-Serif" font-size="10.00">+ ~Intensity()</text>
<text text-anchor="start" x="1122.5" y="-708" font-family="Helvetica,sans-Serif" font-size="10.00">+ imped_calc()</text>
<text text-anchor="start" x="1122.5" y="-695" font-family="Helvetica,sans-Serif" font-size="10.00">+ wake_calc()</text>
</a>
</g>
<!-- Node11&#45;&gt;Node19 -->
<g id="edge70" class="edge"><title>Node11&#45;&gt;Node19</title>
<path fill="none" stroke="#404040" d="M1065.51,-1042.46C1072.3,-1025.43 1080.11,-1003.88 1085,-984 1100.43,-921.316 1085.08,-901.721 1104,-840 1108.08,-826.677 1113.78,-812.97 1119.89,-800.097"/>
<polygon fill="none" stroke="#404040" points="1120.03,-799.797 1119.09,-792.647 1125.33,-789.03 1126.27,-796.179 1120.03,-799.797"/>
<text text-anchor="middle" x="1133" y="-922.5" font-family="Helvetica,sans-Serif" font-size="10.00"> +fTimeArray</text>
<text text-anchor="middle" x="1133" y="-909.5" font-family="Helvetica,sans-Serif" font-size="10.00">+fFreqArray</text>
<text text-anchor="middle" x="1133" y="-896.5" font-family="Helvetica,sans-Serif" font-size="10.00">+fWake</text>
</g>
<!-- Node12 -->
<g id="node26" class="node"><title>Node12</title>
<polygon fill="white" stroke="#bfbfbf" points="823.5,-706.5 823.5,-769.5 888.5,-769.5 888.5,-706.5 823.5,-706.5"/>
<text text-anchor="middle" x="856" y="-756.5" font-family="Helvetica,sans-Serif" font-size="10.00">cuts_unit_t</text>
<polyline fill="none" stroke="#bfbfbf" points="823.5,-748.5 888.5,-748.5 "/>
<text text-anchor="middle" x="856" y="-735.5" font-family="Helvetica,sans-Serif" font-size="10.00"> </text>
<polyline fill="none" stroke="#bfbfbf" points="823.5,-727.5 888.5,-727.5 "/>
<text text-anchor="middle" x="856" y="-714.5" font-family="Helvetica,sans-Serif" font-size="10.00"> </text>
</g>
<!-- Node12&#45;&gt;Node3 -->
<g id="edge30" class="edge"><title>Node12&#45;&gt;Node3</title>
<path fill="none" stroke="#404040" d="M848.941,-706.351C843.172,-680.487 834.595,-642.035 826.017,-603.575"/>
<polygon fill="none" stroke="#404040" points="825.97,-603.365 820.76,-598.38 823.357,-591.653 828.568,-596.638 825.97,-603.365"/>
<text text-anchor="middle" x="858.5" y="-620.5" font-family="Helvetica,sans-Serif" font-size="10.00"> +cuts_unit</text>
</g>
<!-- Node13&#45;&gt;Node3 -->
<g id="edge34" class="edge"><title>Node13&#45;&gt;Node3</title>
<path fill="none" stroke="#404040" d="M679.424,-686.77C692.381,-662.566 708.513,-632.431 724.604,-602.371"/>
<polygon fill="none" stroke="#404040" points="724.626,-602.331 723.931,-595.153 730.289,-591.751 730.984,-598.929 724.626,-602.331"/>
<text text-anchor="middle" x="730.5" y="-620.5" font-family="Helvetica,sans-Serif" font-size="10.00"> +rfp</text>
</g>
<!-- Node14&#45;&gt;Node13 -->
<g id="edge38" class="edge"><title>Node14&#45;&gt;Node13</title>
<path fill="none" stroke="#404040" d="M782.078,-1042.38C761.52,-1028.61 736.26,-1013.12 712,-1002 687.077,-990.578 669.359,-1006 653,-984 632.304,-956.167 637.467,-864.627 644.007,-801.423"/>
<polygon fill="none" stroke="#404040" points="644.04,-801.118 640.706,-794.724 645.326,-789.187 648.66,-795.582 644.04,-801.118"/>
<text text-anchor="middle" x="682" y="-948.5" font-family="Helvetica,sans-Serif" font-size="10.00"> +harmonic</text>
<text text-anchor="middle" x="682" y="-935.5" font-family="Helvetica,sans-Serif" font-size="10.00">+phi_offset</text>
<text text-anchor="middle" x="682" y="-922.5" font-family="Helvetica,sans-Serif" font-size="10.00">+voltage</text>
<text text-anchor="middle" x="682" y="-909.5" font-family="Helvetica,sans-Serif" font-size="10.00">+omega_rf</text>
<text text-anchor="middle" x="682" y="-896.5" font-family="Helvetica,sans-Serif" font-size="10.00">+phi_noise</text>
<text text-anchor="middle" x="682" y="-883.5" font-family="Helvetica,sans-Serif" font-size="10.00">+phi_rf</text>
<text text-anchor="middle" x="682" y="-870.5" font-family="Helvetica,sans-Serif" font-size="10.00">+omega_rf_d</text>
</g>
<!-- Node15&#45;&gt;Node3 -->
<g id="edge52" class="edge"><title>Node15&#45;&gt;Node3</title>
<path fill="none" stroke="#404040" d="M1214.23,-1042.42C1226.12,-1026.07 1238.87,-1005.14 1245,-984 1262.83,-922.533 1251.93,-903.624 1245,-840 1235.84,-755.846 1267.17,-710.354 1204,-654 1174.99,-628.121 1066.36,-649.747 1030,-636 976.186,-615.654 923.391,-579.772 881.608,-546.469"/>
<polygon fill="none" stroke="#404040" points="881.382,-546.286 874.201,-545.625 872.049,-538.743 879.23,-539.404 881.382,-546.286"/>
<text text-anchor="middle" x="1285" y="-735.5" font-family="Helvetica,sans-Serif" font-size="10.00"> +fBeamSpectrum</text>
</g>
<!-- Node15&#45;&gt;Node19 -->
<g id="edge68" class="edge"><title>Node15&#45;&gt;Node19</title>
<path fill="none" stroke="#404040" d="M1185.15,-1042.19C1181.08,-997.166 1173.29,-912.264 1166,-840 1164.73,-827.444 1163.32,-814.024 1161.95,-801.181"/>
<polygon fill="none" stroke="#404040" points="1161.93,-801.022 1157.31,-795.485 1160.65,-789.091 1165.27,-794.629 1161.93,-801.022"/>
<text text-anchor="middle" x="1210.5" y="-909.5" font-family="Helvetica,sans-Serif" font-size="10.00"> +fImpedance</text>
</g>
<!-- Node16 -->
<g id="node42" class="node"><title>Node16</title>
<a xlink:title="STL class.">
<polygon fill="white" stroke="#bfbfbf" points="1151.5,-1196.5 1151.5,-1259.5 1224.5,-1259.5 1224.5,-1196.5 1151.5,-1196.5"/>
<text text-anchor="middle" x="1188" y="-1246.5" font-family="Helvetica,sans-Serif" font-size="10.00">std::complex</text>
<polyline fill="none" stroke="#bfbfbf" points="1151.5,-1238.5 1224.5,-1238.5 "/>
<text text-anchor="middle" x="1188" y="-1225.5" font-family="Helvetica,sans-Serif" font-size="10.00"> </text>
<polyline fill="none" stroke="#bfbfbf" points="1151.5,-1217.5 1224.5,-1217.5 "/>
<text text-anchor="middle" x="1188" y="-1204.5" font-family="Helvetica,sans-Serif" font-size="10.00"> </text>
</a>
</g>
<!-- Node16&#45;&gt;Node15 -->
<g id="edge54" class="edge"><title>Node16&#45;&gt;Node15</title>
<path fill="none" stroke="#404040" d="M1188,-1196.46C1188,-1173.81 1188,-1142.96 1188,-1117.9"/>
<polygon fill="none" stroke="#404040" points="1188,-1117.76 1184,-1111.76 1188,-1105.76 1192,-1111.76 1188,-1117.76"/>
<text text-anchor="middle" x="1212.5" y="-1168.5" font-family="Helvetica,sans-Serif" font-size="10.00"> +elements</text>
</g>
<!-- Node17 -->
<g id="node45" class="node"><title>Node17</title>
<polygon fill="white" stroke="#bfbfbf" points="348.5,-706.5 348.5,-769.5 381.5,-769.5 381.5,-706.5 348.5,-706.5"/>
<text text-anchor="middle" x="365" y="-756.5" font-family="Helvetica,sans-Serif" font-size="10.00">fit_t</text>
<polyline fill="none" stroke="#bfbfbf" points="348.5,-748.5 381.5,-748.5 "/>
<text text-anchor="middle" x="365" y="-735.5" font-family="Helvetica,sans-Serif" font-size="10.00"> </text>
<polyline fill="none" stroke="#bfbfbf" points="348.5,-727.5 381.5,-727.5 "/>
<text text-anchor="middle" x="365" y="-714.5" font-family="Helvetica,sans-Serif" font-size="10.00"> </text>
</g>
<!-- Node17&#45;&gt;Node3 -->
<g id="edge58" class="edge"><title>Node17&#45;&gt;Node3</title>
<path fill="none" stroke="#404040" d="M368.055,-706.203C371.16,-689.035 377.413,-668.46 390,-654 473.191,-558.429 615.837,-509.459 707.989,-486.557"/>
<polygon fill="none" stroke="#404040" points="708.144,-486.52 713.033,-481.219 719.806,-483.694 714.917,-488.995 708.144,-486.52"/>
<text text-anchor="middle" x="458.5" y="-620.5" font-family="Helvetica,sans-Serif" font-size="10.00"> +fit_option</text>
</g>
<!-- Node18&#45;&gt;Node1 -->
<g id="edge64" class="edge"><title>Node18&#45;&gt;Node1</title>
<path fill="none" stroke="#404040" d="M1264.28,-437.358C1245.83,-403.322 1217.14,-347.181 1199,-296 1181.12,-245.526 1167.22,-186.802 1157.87,-141.195"/>
<polygon fill="none" stroke="#404040" points="1157.84,-141.061 1152.74,-135.969 1155.47,-129.297 1160.58,-134.389 1157.84,-141.061"/>
<text text-anchor="middle" x="1241.5" y="-235.5" font-family="Helvetica,sans-Serif" font-size="10.00"> +fWakeSourceList</text>
</g>
<!-- Node19&#45;&gt;Node18 -->
<g id="edge66" class="edge"><title>Node19&#45;&gt;Node18</title>
<path fill="none" stroke="#404040" d="M1179.19,-686.77C1203.12,-636.073 1239.34,-559.353 1261.79,-511.808"/>
<polygon fill="none" stroke="#404040" points="1261.92,-511.525 1260.87,-504.392 1267.05,-500.674 1268.1,-507.807 1261.92,-511.525"/>
<text text-anchor="middle" x="1239.5" y="-620.5" font-family="Helvetica,sans-Serif" font-size="10.00"> +elements</text>
</g>
<!-- Node20 -->
<g id="node56" class="node"><title>Node20</title>
<polygon fill="white" stroke="#bfbfbf" points="1292.5,-206.5 1292.5,-269.5 1363.5,-269.5 1363.5,-206.5 1292.5,-206.5"/>
<text text-anchor="middle" x="1328" y="-256.5" font-family="Helvetica,sans-Serif" font-size="10.00">time_or_freq</text>
<polyline fill="none" stroke="#bfbfbf" points="1292.5,-248.5 1363.5,-248.5 "/>
<text text-anchor="middle" x="1328" y="-235.5" font-family="Helvetica,sans-Serif" font-size="10.00"> </text>
<polyline fill="none" stroke="#bfbfbf" points="1292.5,-227.5 1363.5,-227.5 "/>
<text text-anchor="middle" x="1328" y="-214.5" font-family="Helvetica,sans-Serif" font-size="10.00"> </text>
</g>
<!-- Node20&#45;&gt;Node1 -->
<g id="edge74" class="edge"><title>Node20&#45;&gt;Node1</title>
<path fill="none" stroke="#404040" d="M1302.97,-206.468C1295.53,-197.641 1287.19,-188.219 1279,-180 1263.6,-164.539 1246.38,-148.824 1229.53,-134.181"/>
<polygon fill="none" stroke="#404040" points="1229.31,-133.994 1222.16,-133.111 1220.22,-126.164 1227.38,-127.048 1229.31,-133.994"/>
<text text-anchor="middle" x="1291" y="-152.5" font-family="Helvetica,sans-Serif" font-size="10.00"> +fTimeOrFreq</text>
</g>
</g>
</svg>
