<?xml version="1.0" encoding="UTF-8" standalone="no"?>
<!DOCTYPE svg PUBLIC "-//W3C//DTD SVG 1.1//EN"
 "http://www.w3.org/Graphics/SVG/1.1/DTD/svg11.dtd">
<!-- Generated by graphviz version 2.26.3 (20100126.1600)
 -->
<!-- Title: InducedVoltageTime Pages: 1 -->
<svg width="575pt" height="888pt"
 viewBox="0.00 0.00 575.00 888.00" xmlns="http://www.w3.org/2000/svg" xmlns:xlink="http://www.w3.org/1999/xlink">
<g id="graph1" class="graph" transform="scale(1 1) rotate(0) translate(4 884)">
<title>InducedVoltageTime</title>
<polygon fill="white" stroke="white" points="-4,5 -4,-884 572,-884 572,5 -4,5"/>
<!-- Node1 -->
<g id="node1" class="node"><title>Node1</title>
<polygon fill="#bfbfbf" stroke="black" points="314,-1 314,-129 466,-129 466,-1 314,-1"/>
<text text-anchor="middle" x="390" y="-116" font-family="Helvetica,sans-Serif" font-size="10.00">InducedVoltageTime</text>
<polyline fill="none" stroke="black" points="314,-108 466,-108 "/>
<text text-anchor="middle" x="390" y="-95" font-family="Helvetica,sans-Serif" font-size="10.00"> </text>
<polyline fill="none" stroke="black" points="314,-87 466,-87 "/>
<text text-anchor="start" x="322" y="-74" font-family="Helvetica,sans-Serif" font-size="10.00">+ InducedVoltageTime()</text>
<text text-anchor="start" x="322" y="-61" font-family="Helvetica,sans-Serif" font-size="10.00">+ ~InducedVoltageTime()</text>
<text text-anchor="start" x="322" y="-48" font-family="Helvetica,sans-Serif" font-size="10.00">+ induced_voltage_generation()</text>
<text text-anchor="start" x="322" y="-35" font-family="Helvetica,sans-Serif" font-size="10.00">+ reprocess()</text>
<text text-anchor="start" x="322" y="-22" font-family="Helvetica,sans-Serif" font-size="10.00">+ sum_wakes()</text>
<text text-anchor="start" x="322" y="-9" font-family="Helvetica,sans-Serif" font-size="10.00">+ track()</text>
</g>
<!-- Node2 -->
<g id="node2" class="node"><title>Node2</title>
<a xlink:href="../../dd/de2/classInducedVoltage.html" target="_top" xlink:title="{InducedVoltage\n||+ InducedVoltage()\l+ ~InducedVoltage()\l+ induced_voltage_generation()\l+ reprocess()\l+ track()\l}">
<polygon fill="white" stroke="black" points="415,-274.5 415,-389.5 567,-389.5 567,-274.5 415,-274.5"/>
<text text-anchor="middle" x="491" y="-376.5" font-family="Helvetica,sans-Serif" font-size="10.00">InducedVoltage</text>
<polyline fill="none" stroke="black" points="415,-368.5 567,-368.5 "/>
<text text-anchor="middle" x="491" y="-355.5" font-family="Helvetica,sans-Serif" font-size="10.00"> </text>
<polyline fill="none" stroke="black" points="415,-347.5 567,-347.5 "/>
<text text-anchor="start" x="423" y="-334.5" font-family="Helvetica,sans-Serif" font-size="10.00">+ InducedVoltage()</text>
<text text-anchor="start" x="423" y="-321.5" font-family="Helvetica,sans-Serif" font-size="10.00">+ ~InducedVoltage()</text>
<text text-anchor="start" x="423" y="-308.5" font-family="Helvetica,sans-Serif" font-size="10.00">+ induced_voltage_generation()</text>
<text text-anchor="start" x="423" y="-295.5" font-family="Helvetica,sans-Serif" font-size="10.00">+ reprocess()</text>
<text text-anchor="start" x="423" y="-282.5" font-family="Helvetica,sans-Serif" font-size="10.00">+ track()</text>
</a>
</g>
<!-- Node2&#45;&gt;Node1 -->
<g id="edge2" class="edge"><title>Node2&#45;&gt;Node1</title>
<path fill="none" stroke="midnightblue" d="M414.718,-266.012C412.619,-262.757 410.698,-259.417 409,-256 389.571,-216.908 385.051,-167.81 385.269,-129.183"/>
<polygon fill="none" stroke="midnightblue" points="412.032,-268.276 420.661,-274.424 417.749,-264.237 412.032,-268.276"/>
</g>
<!-- Node3 -->
<g id="node4" class="node"><title>Node3</title>
<polygon fill="white" stroke="#bfbfbf" points="284.5,-588.5 284.5,-651.5 387.5,-651.5 387.5,-588.5 284.5,-588.5"/>
<text text-anchor="middle" x="336" y="-638.5" font-family="Helvetica,sans-Serif" font-size="10.00">std::vector&lt; ftype &gt;</text>
<polyline fill="none" stroke="#bfbfbf" points="284.5,-630.5 387.5,-630.5 "/>
<text text-anchor="middle" x="336" y="-617.5" font-family="Helvetica,sans-Serif" font-size="10.00"> </text>
<polyline fill="none" stroke="#bfbfbf" points="284.5,-609.5 387.5,-609.5 "/>
<text text-anchor="middle" x="336" y="-596.5" font-family="Helvetica,sans-Serif" font-size="10.00"> </text>
</g>
<!-- Node3&#45;&gt;Node1 -->
<g id="edge30" class="edge"><title>Node3&#45;&gt;Node1</title>
<path fill="none" stroke="#404040" d="M337.299,-588.261C337.539,-582.199 337.782,-575.903 338,-570 342.853,-438.459 332.759,-404.745 348,-274 353.184,-229.525 362.849,-180.408 371.601,-140.97"/>
<polygon fill="none" stroke="#404040" points="371.648,-140.764 369.063,-134.032 374.282,-129.057 376.867,-135.789 371.648,-140.764"/>
<text text-anchor="middle" x="377" y="-336" font-family="Helvetica,sans-Serif" font-size="10.00"> +fTimeArray</text>
<text text-anchor="middle" x="377" y="-323" font-family="Helvetica,sans-Serif" font-size="10.00">+fTotalWake</text>
</g>
<!-- Node3&#45;&gt;Node2 -->
<g id="edge4" class="edge"><title>Node3&#45;&gt;Node2</title>
<path fill="none" stroke="#404040" d="M355.318,-588.418C358.93,-582.342 362.627,-576.001 366,-570 397.714,-513.569 431.755,-448.425 456.293,-400.573"/>
<polygon fill="none" stroke="#404040" points="456.381,-400.4 455.554,-393.237 461.848,-389.718 462.675,-396.882 456.381,-400.4"/>
<text text-anchor="middle" x="426" y="-547.5" font-family="Helvetica,sans-Serif" font-size="10.00"> +fInducedVoltage</text>
</g>
<!-- Node8 -->
<g id="node14" class="node"><title>Node8</title>
<a xlink:href="../../dc/dad/classIntensity.html" target="_top" xlink:title="{Intensity\n||+ Intensity()\l+ ~Intensity()\l+ imped_calc()\l+ wake_calc()\l}">
<polygon fill="white" stroke="black" points="81.5,-409 81.5,-511 162.5,-511 162.5,-409 81.5,-409"/>
<text text-anchor="middle" x="122" y="-498" font-family="Helvetica,sans-Serif" font-size="10.00">Intensity</text>
<polyline fill="none" stroke="black" points="81.5,-490 162.5,-490 "/>
<text text-anchor="middle" x="122" y="-477" font-family="Helvetica,sans-Serif" font-size="10.00"> </text>
<polyline fill="none" stroke="black" points="81.5,-469 162.5,-469 "/>
<text text-anchor="start" x="89.5" y="-456" font-family="Helvetica,sans-Serif" font-size="10.00">+ Intensity()</text>
<text text-anchor="start" x="89.5" y="-443" font-family="Helvetica,sans-Serif" font-size="10.00">+ ~Intensity()</text>
<text text-anchor="start" x="89.5" y="-430" font-family="Helvetica,sans-Serif" font-size="10.00">+ imped_calc()</text>
<text text-anchor="start" x="89.5" y="-417" font-family="Helvetica,sans-Serif" font-size="10.00">+ wake_calc()</text>
</a>
</g>
<!-- Node3&#45;&gt;Node8 -->
<g id="edge22" class="edge"><title>Node3&#45;&gt;Node8</title>
<path fill="none" stroke="#404040" d="M297.329,-588.464C291.195,-582.64 285.175,-576.375 280,-570 267.075,-554.079 271.813,-544.182 257,-530 233.389,-507.394 201.039,-490.281 173.926,-478.635"/>
<polygon fill="none" stroke="#404040" points="173.756,-478.565 166.683,-479.968 162.667,-473.979 169.74,-472.576 173.756,-478.565"/>
<text text-anchor="middle" x="309" y="-560.5" font-family="Helvetica,sans-Serif" font-size="10.00"> +fTimeArray</text>
<text text-anchor="middle" x="309" y="-547.5" font-family="Helvetica,sans-Serif" font-size="10.00">+fFreqArray</text>
<text text-anchor="middle" x="309" y="-534.5" font-family="Helvetica,sans-Serif" font-size="10.00">+fWake</text>
</g>
<!-- Node4 -->
<g id="node6" class="node"><title>Node4</title>
<polygon fill="white" stroke="#bfbfbf" points="313.5,-702.5 313.5,-765.5 358.5,-765.5 358.5,-702.5 313.5,-702.5"/>
<text text-anchor="middle" x="336" y="-752.5" font-family="Helvetica,sans-Serif" font-size="10.00">double</text>
<polyline fill="none" stroke="#bfbfbf" points="313.5,-744.5 358.5,-744.5 "/>
<text text-anchor="middle" x="336" y="-731.5" font-family="Helvetica,sans-Serif" font-size="10.00"> </text>
<polyline fill="none" stroke="#bfbfbf" points="313.5,-723.5 358.5,-723.5 "/>
<text text-anchor="middle" x="336" y="-710.5" font-family="Helvetica,sans-Serif" font-size="10.00"> </text>
</g>
<!-- Node4&#45;&gt;Node3 -->
<g id="edge6" class="edge"><title>Node4&#45;&gt;Node3</title>
<path fill="none" stroke="#404040" d="M336,-702.245C336,-690.386 336,-676.7 336,-663.938"/>
<polygon fill="none" stroke="#404040" points="336,-663.585 332,-657.585 336,-651.585 340,-657.585 336,-663.585"/>
<text text-anchor="middle" x="360.5" y="-674.5" font-family="Helvetica,sans-Serif" font-size="10.00"> +elements</text>
</g>
<!-- Node5 -->
<g id="node8" class="node"><title>Node5</title>
<a xlink:title="STL class.">
<polygon fill="white" stroke="#bfbfbf" points="146.5,-702.5 146.5,-765.5 233.5,-765.5 233.5,-702.5 146.5,-702.5"/>
<text text-anchor="middle" x="190" y="-752.5" font-family="Helvetica,sans-Serif" font-size="10.00">std::vector&lt; T &gt;</text>
<polyline fill="none" stroke="#bfbfbf" points="146.5,-744.5 233.5,-744.5 "/>
<text text-anchor="middle" x="190" y="-731.5" font-family="Helvetica,sans-Serif" font-size="10.00"> </text>
<polyline fill="none" stroke="#bfbfbf" points="146.5,-723.5 233.5,-723.5 "/>
<text text-anchor="middle" x="190" y="-710.5" font-family="Helvetica,sans-Serif" font-size="10.00"> </text>
</a>
</g>
<!-- Node5&#45;&gt;Node3 -->
<g id="edge8" class="edge"><title>Node5&#45;&gt;Node3</title>
<path fill="none" stroke="orange" d="M238.938,-695.788C257.329,-681.428 278.014,-665.276 295.549,-651.585"/>
<polygon fill="orange" stroke="orange" points="236.397,-693.332 230.669,-702.245 240.705,-698.849 236.397,-693.332"/>
<text text-anchor="middle" x="293.5" y="-674.5" font-family="Helvetica,sans-Serif" font-size="10.00"> &lt; ftype &gt;</text>
</g>
<!-- Node7 -->
<g id="node12" class="node"><title>Node7</title>
<polygon fill="white" stroke="#bfbfbf" points="127.5,-192.5 127.5,-255.5 252.5,-255.5 252.5,-192.5 127.5,-192.5"/>
<text text-anchor="middle" x="190" y="-242.5" font-family="Helvetica,sans-Serif" font-size="10.00">std::vector&lt; Intensity * &gt;</text>
<polyline fill="none" stroke="#bfbfbf" points="127.5,-234.5 252.5,-234.5 "/>
<text text-anchor="middle" x="190" y="-221.5" font-family="Helvetica,sans-Serif" font-size="10.00"> </text>
<polyline fill="none" stroke="#bfbfbf" points="127.5,-213.5 252.5,-213.5 "/>
<text text-anchor="middle" x="190" y="-200.5" font-family="Helvetica,sans-Serif" font-size="10.00"> </text>
</g>
<!-- Node5&#45;&gt;Node7 -->
<g id="edge24" class="edge"><title>Node5&#45;&gt;Node7</title>
<path fill="none" stroke="orange" d="M189.021,-692.026C188.299,-658.894 187.38,-611.497 187,-570 185.942,-454.367 188.172,-316.995 189.343,-255.96"/>
<polygon fill="orange" stroke="orange" points="185.527,-692.336 189.247,-702.256 192.525,-692.181 185.527,-692.336"/>
<text text-anchor="middle" x="220" y="-547.5" font-family="Helvetica,sans-Serif" font-size="10.00"> &lt; Intensity * &gt;</text>
</g>
<!-- Node9 -->
<g id="node16" class="node"><title>Node9</title>
<polygon fill="white" stroke="#bfbfbf" points="36,-588.5 36,-651.5 162,-651.5 162,-588.5 36,-588.5"/>
<text text-anchor="middle" x="99" y="-638.5" font-family="Helvetica,sans-Serif" font-size="10.00">std::vector&lt; complex_t &gt;</text>
<polyline fill="none" stroke="#bfbfbf" points="36,-630.5 162,-630.5 "/>
<text text-anchor="middle" x="99" y="-617.5" font-family="Helvetica,sans-Serif" font-size="10.00"> </text>
<polyline fill="none" stroke="#bfbfbf" points="36,-609.5 162,-609.5 "/>
<text text-anchor="middle" x="99" y="-596.5" font-family="Helvetica,sans-Serif" font-size="10.00"> </text>
</g>
<!-- Node5&#45;&gt;Node9 -->
<g id="edge20" class="edge"><title>Node5&#45;&gt;Node9</title>
<path fill="none" stroke="orange" d="M137.371,-710.701C126.47,-703.599 116.144,-694.753 109,-684 102.715,-674.539 99.8325,-662.581 98.6463,-651.57"/>
<polygon fill="orange" stroke="orange" points="135.818,-713.852 146.187,-716.026 139.437,-707.86 135.818,-713.852"/>
<text text-anchor="middle" x="142.5" y="-674.5" font-family="Helvetica,sans-Serif" font-size="10.00"> &lt; complex_t &gt;</text>
</g>
<!-- Node6 -->
<g id="node10" class="node"><title>Node6</title>
<polygon fill="white" stroke="#bfbfbf" points="175.5,-816.5 175.5,-879.5 204.5,-879.5 204.5,-816.5 175.5,-816.5"/>
<text text-anchor="middle" x="190" y="-866.5" font-family="Helvetica,sans-Serif" font-size="10.00">T</text>
<polyline fill="none" stroke="#bfbfbf" points="175.5,-858.5 204.5,-858.5 "/>
<text text-anchor="middle" x="190" y="-845.5" font-family="Helvetica,sans-Serif" font-size="10.00"> </text>
<polyline fill="none" stroke="#bfbfbf" points="175.5,-837.5 204.5,-837.5 "/>
<text text-anchor="middle" x="190" y="-824.5" font-family="Helvetica,sans-Serif" font-size="10.00"> </text>
</g>
<!-- Node6&#45;&gt;Node5 -->
<g id="edge10" class="edge"><title>Node6&#45;&gt;Node5</title>
<path fill="none" stroke="#404040" d="M190,-816.245C190,-804.386 190,-790.7 190,-777.938"/>
<polygon fill="none" stroke="#404040" points="190,-777.585 186,-771.585 190,-765.585 194,-771.585 190,-777.585"/>
<text text-anchor="middle" x="214.5" y="-788.5" font-family="Helvetica,sans-Serif" font-size="10.00"> +elements</text>
</g>
<!-- Node7&#45;&gt;Node1 -->
<g id="edge12" class="edge"><title>Node7&#45;&gt;Node1</title>
<path fill="none" stroke="#404040" d="M212.409,-192.321C223.598,-177.806 237.945,-160.984 253,-148 268.316,-134.791 285.986,-122.389 303.437,-111.4"/>
<polygon fill="none" stroke="#404040" points="303.45,-111.392 306.461,-104.84 313.667,-105.099 310.656,-111.651 303.45,-111.392"/>
<text text-anchor="middle" x="295.5" y="-158.5" font-family="Helvetica,sans-Serif" font-size="10.00"> +fWakeSourceList</text>
</g>
<!-- Node8&#45;&gt;Node7 -->
<g id="edge14" class="edge"><title>Node8&#45;&gt;Node7</title>
<path fill="none" stroke="#404040" d="M112.145,-408.646C107.231,-369.634 106.135,-315.755 127,-274 128.58,-270.838 130.463,-267.813 132.575,-264.928"/>
<polygon fill="none" stroke="#404040" points="132.708,-264.772 133.58,-257.614 140.523,-255.666 139.651,-262.824 132.708,-264.772"/>
<text text-anchor="middle" x="151.5" y="-329.5" font-family="Helvetica,sans-Serif" font-size="10.00"> +elements</text>
</g>
<!-- Node9&#45;&gt;Node8 -->
<g id="edge16" class="edge"><title>Node9&#45;&gt;Node8</title>
<path fill="none" stroke="#404040" d="M100.871,-588.232C102.128,-570.95 104.096,-549.233 107,-530 107.348,-527.696 107.725,-525.354 108.126,-522.991"/>
<polygon fill="none" stroke="#404040" points="108.143,-522.901 105.284,-516.281 110.296,-511.096 113.154,-517.716 108.143,-522.901"/>
<text text-anchor="middle" x="137.5" y="-547.5" font-family="Helvetica,sans-Serif" font-size="10.00"> +fImpedance</text>
</g>
<!-- Node10 -->
<g id="node18" class="node"><title>Node10</title>
<a xlink:title="STL class.">
<polygon fill="white" stroke="#bfbfbf" points="-0.5,-702.5 -0.5,-765.5 72.5,-765.5 72.5,-702.5 -0.5,-702.5"/>
<text text-anchor="middle" x="36" y="-752.5" font-family="Helvetica,sans-Serif" font-size="10.00">std::complex</text>
<polyline fill="none" stroke="#bfbfbf" points="-0.5,-744.5 72.5,-744.5 "/>
<text text-anchor="middle" x="36" y="-731.5" font-family="Helvetica,sans-Serif" font-size="10.00"> </text>
<polyline fill="none" stroke="#bfbfbf" points="-0.5,-723.5 72.5,-723.5 "/>
<text text-anchor="middle" x="36" y="-710.5" font-family="Helvetica,sans-Serif" font-size="10.00"> </text>
</a>
</g>
<!-- Node10&#45;&gt;Node9 -->
<g id="edge18" class="edge"><title>Node10&#45;&gt;Node9</title>
<path fill="none" stroke="#404040" d="M31.2244,-702.468C30.934,-691.699 32.1764,-679.887 37,-670 38.5347,-666.854 40.372,-663.842 42.4372,-660.967"/>
<polygon fill="none" stroke="#404040" points="42.4914,-660.902 43.3016,-653.737 50.2275,-651.729 49.4173,-658.894 42.4914,-660.902"/>
<text text-anchor="middle" x="61.5" y="-674.5" font-family="Helvetica,sans-Serif" font-size="10.00"> +elements</text>
</g>
<!-- Node11 -->
<g id="node23" class="node"><title>Node11</title>
<polygon fill="white" stroke="#bfbfbf" points="417.5,-192.5 417.5,-255.5 488.5,-255.5 488.5,-192.5 417.5,-192.5"/>
<text text-anchor="middle" x="453" y="-242.5" font-family="Helvetica,sans-Serif" font-size="10.00">time_or_freq</text>
<polyline fill="none" stroke="#bfbfbf" points="417.5,-234.5 488.5,-234.5 "/>
<text text-anchor="middle" x="453" y="-221.5" font-family="Helvetica,sans-Serif" font-size="10.00"> </text>
<polyline fill="none" stroke="#bfbfbf" points="417.5,-213.5 488.5,-213.5 "/>
<text text-anchor="middle" x="453" y="-200.5" font-family="Helvetica,sans-Serif" font-size="10.00"> </text>
</g>
<!-- Node11&#45;&gt;Node1 -->
<g id="edge26" class="edge"><title>Node11&#45;&gt;Node1</title>
<path fill="none" stroke="#404040" d="M440.402,-192.206C434.485,-177.271 427.155,-158.772 419.935,-140.55"/>
<polygon fill="none" stroke="#404040" points="419.888,-140.431 413.959,-136.326 415.467,-129.275 421.396,-133.379 419.888,-140.431"/>
<text text-anchor="middle" x="464" y="-158.5" font-family="Helvetica,sans-Serif" font-size="10.00"> +fTimeOrFreq</text>
</g>
<!-- Node12 -->
<g id="node25" class="node"><title>Node12</title>
<polygon fill="white" stroke="#bfbfbf" points="515.5,-192.5 515.5,-255.5 544.5,-255.5 544.5,-192.5 515.5,-192.5"/>
<text text-anchor="middle" x="530" y="-242.5" font-family="Helvetica,sans-Serif" font-size="10.00">int</text>
<polyline fill="none" stroke="#bfbfbf" points="515.5,-234.5 544.5,-234.5 "/>
<text text-anchor="middle" x="530" y="-221.5" font-family="Helvetica,sans-Serif" font-size="10.00"> </text>
<polyline fill="none" stroke="#bfbfbf" points="515.5,-213.5 544.5,-213.5 "/>
<text text-anchor="middle" x="530" y="-200.5" font-family="Helvetica,sans-Serif" font-size="10.00"> </text>
</g>
<!-- Node12&#45;&gt;Node1 -->
<g id="edge28" class="edge"><title>Node12&#45;&gt;Node1</title>
<path fill="none" stroke="#404040" d="M521.834,-192.423C517.054,-177.93 509.961,-161.098 500,-148 492.832,-138.574 484.323,-129.69 475.26,-121.491"/>
<polygon fill="none" stroke="#404040" points="475.121,-121.371 467.966,-120.474 466.041,-113.525 473.196,-114.421 475.121,-121.371"/>
<text text-anchor="middle" x="532.5" y="-165" font-family="Helvetica,sans-Serif" font-size="10.00"> +fCut</text>
<text text-anchor="middle" x="532.5" y="-152" font-family="Helvetica,sans-Serif" font-size="10.00">+fShape</text>
</g>
</g>
</svg>
