<?xml version="1.0" encoding="UTF-8" standalone="no"?>
<!DOCTYPE svg PUBLIC "-//W3C//DTD SVG 1.1//EN"
 "http://www.w3.org/Graphics/SVG/1.1/DTD/svg11.dtd">
<!-- Generated by graphviz version 2.26.3 (20100126.1600)
 -->
<!-- Title: InducedVoltageTime Pages: 1 -->
<svg width="1407pt" height="1356pt"
 viewBox="0.00 0.00 1407.00 1356.00" xmlns="http://www.w3.org/2000/svg" xmlns:xlink="http://www.w3.org/1999/xlink">
<g id="graph1" class="graph" transform="scale(1 1) rotate(0) translate(4 1352)">
<title>InducedVoltageTime</title>
<polygon fill="white" stroke="white" points="-4,5 -4,-1352 1404,-1352 1404,5 -4,5"/>
<!-- Node1 -->
<g id="node1" class="node"><title>Node1</title>
<polygon fill="#bfbfbf" stroke="black" points="1065,-1 1065,-129 1217,-129 1217,-1 1065,-1"/>
<text text-anchor="middle" x="1141" y="-116" font-family="Helvetica,sans-Serif" font-size="10.00">InducedVoltageTime</text>
<polyline fill="none" stroke="black" points="1065,-108 1217,-108 "/>
<text text-anchor="middle" x="1141" y="-95" font-family="Helvetica,sans-Serif" font-size="10.00"> </text>
<polyline fill="none" stroke="black" points="1065,-87 1217,-87 "/>
<text text-anchor="start" x="1073" y="-74" font-family="Helvetica,sans-Serif" font-size="10.00">+ InducedVoltageTime()</text>
<text text-anchor="start" x="1073" y="-61" font-family="Helvetica,sans-Serif" font-size="10.00">+ ~InducedVoltageTime()</text>
<text text-anchor="start" x="1073" y="-48" font-family="Helvetica,sans-Serif" font-size="10.00">+ induced_voltage_generation()</text>
<text text-anchor="start" x="1073" y="-35" font-family="Helvetica,sans-Serif" font-size="10.00">+ reprocess()</text>
<text text-anchor="start" x="1073" y="-22" font-family="Helvetica,sans-Serif" font-size="10.00">+ sum_wakes()</text>
<text text-anchor="start" x="1073" y="-9" font-family="Helvetica,sans-Serif" font-size="10.00">+ track()</text>
</g>
<!-- Node2 -->
<g id="node2" class="node"><title>Node2</title>
<a xlink:href="../../dd/de2/classInducedVoltage.html" target="_top" xlink:title="{InducedVoltage\n||+ InducedVoltage()\l+ ~InducedVoltage()\l+ induced_voltage_generation()\l+ reprocess()\l+ track()\l}">
<polygon fill="white" stroke="black" points="961,-180.5 961,-295.5 1113,-295.5 1113,-180.5 961,-180.5"/>
<text text-anchor="middle" x="1037" y="-282.5" font-family="Helvetica,sans-Serif" font-size="10.00">InducedVoltage</text>
<polyline fill="none" stroke="black" points="961,-274.5 1113,-274.5 "/>
<text text-anchor="middle" x="1037" y="-261.5" font-family="Helvetica,sans-Serif" font-size="10.00"> </text>
<polyline fill="none" stroke="black" points="961,-253.5 1113,-253.5 "/>
<text text-anchor="start" x="969" y="-240.5" font-family="Helvetica,sans-Serif" font-size="10.00">+ InducedVoltage()</text>
<text text-anchor="start" x="969" y="-227.5" font-family="Helvetica,sans-Serif" font-size="10.00">+ ~InducedVoltage()</text>
<text text-anchor="start" x="969" y="-214.5" font-family="Helvetica,sans-Serif" font-size="10.00">+ induced_voltage_generation()</text>
<text text-anchor="start" x="969" y="-201.5" font-family="Helvetica,sans-Serif" font-size="10.00">+ reprocess()</text>
<text text-anchor="start" x="969" y="-188.5" font-family="Helvetica,sans-Serif" font-size="10.00">+ track()</text>
</a>
</g>
<!-- Node2&#45;&gt;Node1 -->
<g id="edge2" class="edge"><title>Node2&#45;&gt;Node1</title>
<path fill="none" stroke="midnightblue" d="M1076.79,-171.805C1085.19,-157.832 1094.04,-143.111 1102.4,-129.213"/>
<polygon fill="none" stroke="midnightblue" points="1073.78,-170.02 1071.63,-180.394 1079.78,-173.626 1073.78,-170.02"/>
</g>
<!-- Node3 -->
<g id="node4" class="node"><title>Node3</title>
<a xlink:href="../../dc/d45/classSlices.html" target="_top" xlink:title="{Slices\n||+ Slices()\l+ ~Slices()\l+ beam_profile_derivative()\l+ beam_profile_filter\l_chebyshev()\l+ beam_profile_filter\l_chebyshev()\l+ beam_spectrum_generation()\l+ convert_coordinates()\l+ fwhm()\l+ fwhm_multibunch()\l+ gaussian_fit()\land 9 more...\l&#45; gaussian_filter1d()\l&#45; gradient()\l}">
<polygon fill="white" stroke="black" points="717,-346.5 717,-591.5 869,-591.5 869,-346.5 717,-346.5"/>
<text text-anchor="middle" x="793" y="-578.5" font-family="Helvetica,sans-Serif" font-size="10.00">Slices</text>
<polyline fill="none" stroke="black" points="717,-570.5 869,-570.5 "/>
<text text-anchor="middle" x="793" y="-557.5" font-family="Helvetica,sans-Serif" font-size="10.00"> </text>
<polyline fill="none" stroke="black" points="717,-549.5 869,-549.5 "/>
<text text-anchor="start" x="725" y="-536.5" font-family="Helvetica,sans-Serif" font-size="10.00">+ Slices()</text>
<text text-anchor="start" x="725" y="-523.5" font-family="Helvetica,sans-Serif" font-size="10.00">+ ~Slices()</text>
<text text-anchor="start" x="725" y="-510.5" font-family="Helvetica,sans-Serif" font-size="10.00">+ beam_profile_derivative()</text>
<text text-anchor="start" x="725" y="-497.5" font-family="Helvetica,sans-Serif" font-size="10.00">+ beam_profile_filter</text>
<text text-anchor="start" x="725" y="-484.5" font-family="Helvetica,sans-Serif" font-size="10.00">_chebyshev()</text>
<text text-anchor="start" x="725" y="-471.5" font-family="Helvetica,sans-Serif" font-size="10.00">+ beam_profile_filter</text>
<text text-anchor="start" x="725" y="-458.5" font-family="Helvetica,sans-Serif" font-size="10.00">_chebyshev()</text>
<text text-anchor="start" x="725" y="-445.5" font-family="Helvetica,sans-Serif" font-size="10.00">+ beam_spectrum_generation()</text>
<text text-anchor="start" x="725" y="-432.5" font-family="Helvetica,sans-Serif" font-size="10.00">+ convert_coordinates()</text>
<text text-anchor="start" x="725" y="-419.5" font-family="Helvetica,sans-Serif" font-size="10.00">+ fwhm()</text>
<text text-anchor="start" x="725" y="-406.5" font-family="Helvetica,sans-Serif" font-size="10.00">+ fwhm_multibunch()</text>
<text text-anchor="start" x="725" y="-393.5" font-family="Helvetica,sans-Serif" font-size="10.00">+ gaussian_fit()</text>
<text text-anchor="start" x="725" y="-380.5" font-family="Helvetica,sans-Serif" font-size="10.00">and 9 more...</text>
<text text-anchor="start" x="725" y="-367.5" font-family="Helvetica,sans-Serif" font-size="10.00">&#45; gaussian_filter1d()</text>
<text text-anchor="start" x="725" y="-354.5" font-family="Helvetica,sans-Serif" font-size="10.00">&#45; gradient()</text>
</a>
</g>
<!-- Node3&#45;&gt;Node2 -->
<g id="edge4" class="edge"><title>Node3&#45;&gt;Node2</title>
<path fill="none" stroke="#404040" d="M869.199,-396.86C900.507,-367.221 936.522,-333.125 967.14,-304.138"/>
<polygon fill="none" stroke="#404040" points="967.325,-303.963 968.932,-296.933 976.039,-295.713 974.432,-302.742 967.325,-303.963"/>
<text text-anchor="middle" x="972" y="-318.5" font-family="Helvetica,sans-Serif" font-size="10.00"> +fSlices</text>
</g>
<!-- Node4 -->
<g id="node6" class="node"><title>Node4</title>
<a xlink:href="../../d9/d7c/classBeams.html" target="_top" xlink:title="{Beams\n|+ mass\l+ momentum\l|+ Beams()\l+ ~Beams()\l+ losses_energy_cut()\l+ losses_longitudinal_cut()\l+ losses_separatrix()\l+ n_macroparticles_alive()\l+ statistics()\l&#45; statistics()\l}">
<polygon fill="white" stroke="black" points="398.5,-654.5 398.5,-821.5 531.5,-821.5 531.5,-654.5 398.5,-654.5"/>
<text text-anchor="middle" x="465" y="-808.5" font-family="Helvetica,sans-Serif" font-size="10.00">Beams</text>
<polyline fill="none" stroke="black" points="398.5,-800.5 531.5,-800.5 "/>
<text text-anchor="start" x="406.5" y="-787.5" font-family="Helvetica,sans-Serif" font-size="10.00">+ mass</text>
<text text-anchor="start" x="406.5" y="-774.5" font-family="Helvetica,sans-Serif" font-size="10.00">+ momentum</text>
<polyline fill="none" stroke="black" points="398.5,-766.5 531.5,-766.5 "/>
<text text-anchor="start" x="406.5" y="-753.5" font-family="Helvetica,sans-Serif" font-size="10.00">+ Beams()</text>
<text text-anchor="start" x="406.5" y="-740.5" font-family="Helvetica,sans-Serif" font-size="10.00">+ ~Beams()</text>
<text text-anchor="start" x="406.5" y="-727.5" font-family="Helvetica,sans-Serif" font-size="10.00">+ losses_energy_cut()</text>
<text text-anchor="start" x="406.5" y="-714.5" font-family="Helvetica,sans-Serif" font-size="10.00">+ losses_longitudinal_cut()</text>
<text text-anchor="start" x="406.5" y="-701.5" font-family="Helvetica,sans-Serif" font-size="10.00">+ losses_separatrix()</text>
<text text-anchor="start" x="406.5" y="-688.5" font-family="Helvetica,sans-Serif" font-size="10.00">+ n_macroparticles_alive()</text>
<text text-anchor="start" x="406.5" y="-675.5" font-family="Helvetica,sans-Serif" font-size="10.00">+ statistics()</text>
<text text-anchor="start" x="406.5" y="-662.5" font-family="Helvetica,sans-Serif" font-size="10.00">&#45; statistics()</text>
</a>
</g>
<!-- Node4&#45;&gt;Node3 -->
<g id="edge6" class="edge"><title>Node4&#45;&gt;Node3</title>
<path fill="none" stroke="#404040" d="M531.771,-683.24C582.5,-641.635 652.655,-584.1 707.49,-539.129"/>
<polygon fill="none" stroke="#404040" points="707.568,-539.065 709.67,-532.167 716.846,-531.455 714.744,-538.353 707.568,-539.065"/>
<text text-anchor="middle" x="637" y="-620.5" font-family="Helvetica,sans-Serif" font-size="10.00"> +beam</text>
</g>
<!-- Node5 -->
<g id="node8" class="node"><title>Node5</title>
<polygon fill="white" stroke="#bfbfbf" points="647.5,-1170.5 647.5,-1233.5 692.5,-1233.5 692.5,-1170.5 647.5,-1170.5"/>
<text text-anchor="middle" x="670" y="-1220.5" font-family="Helvetica,sans-Serif" font-size="10.00">double</text>
<polyline fill="none" stroke="#bfbfbf" points="647.5,-1212.5 692.5,-1212.5 "/>
<text text-anchor="middle" x="670" y="-1199.5" font-family="Helvetica,sans-Serif" font-size="10.00"> </text>
<polyline fill="none" stroke="#bfbfbf" points="647.5,-1191.5 692.5,-1191.5 "/>
<text text-anchor="middle" x="670" y="-1178.5" font-family="Helvetica,sans-Serif" font-size="10.00"> </text>
</g>
<!-- Node5&#45;&gt;Node3 -->
<g id="edge28" class="edge"><title>Node5&#45;&gt;Node3</title>
<path fill="none" stroke="#404040" d="M692.627,-1171.83C702.892,-1156.89 714.407,-1138.2 722,-1120 747.279,-1059.4 708.48,-1022.34 755,-976 780.821,-950.281 812.233,-986.458 835,-958 867.762,-917.048 857.971,-887.146 835,-840 829.315,-828.331 817.997,-833.512 812,-822 777.494,-755.762 771.5,-672.73 774.709,-603.839"/>
<polygon fill="none" stroke="#404040" points="774.723,-603.572 771.059,-597.361 775.382,-591.59 779.047,-597.8 774.723,-603.572"/>
<text text-anchor="middle" x="881.5" y="-948.5" font-family="Helvetica,sans-Serif" font-size="10.00"> +bp_fwhm</text>
<text text-anchor="middle" x="881.5" y="-935.5" font-family="Helvetica,sans-Serif" font-size="10.00">&#45;cfwhm</text>
<text text-anchor="middle" x="881.5" y="-922.5" font-family="Helvetica,sans-Serif" font-size="10.00">+cut_right</text>
<text text-anchor="middle" x="881.5" y="-909.5" font-family="Helvetica,sans-Serif" font-size="10.00">+bl_rms</text>
<text text-anchor="middle" x="881.5" y="-896.5" font-family="Helvetica,sans-Serif" font-size="10.00">+bl_fwhm</text>
<text text-anchor="middle" x="881.5" y="-883.5" font-family="Helvetica,sans-Serif" font-size="10.00">+bl_gauss</text>
<text text-anchor="middle" x="881.5" y="-870.5" font-family="Helvetica,sans-Serif" font-size="10.00">+cut_left</text>
<text text-anchor="middle" x="881.5" y="-857.5" font-family="Helvetica,sans-Serif" font-size="10.00">+bp_rms</text>
<text text-anchor="middle" x="881.5" y="-844.5" font-family="Helvetica,sans-Serif" font-size="10.00">+bp_gauss</text>
</g>
<!-- Node5&#45;&gt;Node4 -->
<g id="edge8" class="edge"><title>Node5&#45;&gt;Node4</title>
<path fill="none" stroke="#404040" d="M647.497,-1197.9C592.121,-1187.3 451.794,-1157.22 425,-1120 393.087,-1075.67 418.406,-931.612 440.773,-833.639"/>
<polygon fill="none" stroke="#404040" points="440.777,-833.621 438.232,-826.874 443.481,-821.93 446.026,-828.677 440.777,-833.621"/>
<text text-anchor="middle" x="453.5" y="-1110.5" font-family="Helvetica,sans-Serif" font-size="10.00"> +energy</text>
<text text-anchor="middle" x="453.5" y="-1097.5" font-family="Helvetica,sans-Serif" font-size="10.00">+sigma_dt</text>
<text text-anchor="middle" x="453.5" y="-1084.5" font-family="Helvetica,sans-Serif" font-size="10.00">+sigma_dE</text>
<text text-anchor="middle" x="453.5" y="-1071.5" font-family="Helvetica,sans-Serif" font-size="10.00">+gamma</text>
<text text-anchor="middle" x="453.5" y="-1058.5" font-family="Helvetica,sans-Serif" font-size="10.00">+beta</text>
<text text-anchor="middle" x="453.5" y="-1045.5" font-family="Helvetica,sans-Serif" font-size="10.00">+ratio</text>
<text text-anchor="middle" x="453.5" y="-1032.5" font-family="Helvetica,sans-Serif" font-size="10.00">+epsn_rms_l</text>
<text text-anchor="middle" x="453.5" y="-1019.5" font-family="Helvetica,sans-Serif" font-size="10.00">+mean_dE</text>
<text text-anchor="middle" x="453.5" y="-1006.5" font-family="Helvetica,sans-Serif" font-size="10.00">+mean_dt</text>
<text text-anchor="middle" x="453.5" y="-993.5" font-family="Helvetica,sans-Serif" font-size="10.00">+charge</text>
<text text-anchor="middle" x="453.5" y="-980.5" font-family="Helvetica,sans-Serif" font-size="10.00">...</text>
</g>
<!-- Node11 -->
<g id="node21" class="node"><title>Node11</title>
<polygon fill="white" stroke="#bfbfbf" points="997,-1016.5 997,-1079.5 1107,-1079.5 1107,-1016.5 997,-1016.5"/>
<text text-anchor="middle" x="1052" y="-1066.5" font-family="Helvetica,sans-Serif" font-size="10.00">std::vector&lt; double &gt;</text>
<polyline fill="none" stroke="#bfbfbf" points="997,-1058.5 1107,-1058.5 "/>
<text text-anchor="middle" x="1052" y="-1045.5" font-family="Helvetica,sans-Serif" font-size="10.00"> </text>
<polyline fill="none" stroke="#bfbfbf" points="997,-1037.5 1107,-1037.5 "/>
<text text-anchor="middle" x="1052" y="-1024.5" font-family="Helvetica,sans-Serif" font-size="10.00"> </text>
</g>
<!-- Node5&#45;&gt;Node11 -->
<g id="edge24" class="edge"><title>Node5&#45;&gt;Node11</title>
<path fill="none" stroke="#404040" d="M692.543,-1183.59C712.417,-1168.49 742.831,-1148.02 773,-1138 861.898,-1108.47 898.491,-1160.42 983,-1120 997.936,-1112.86 1011.34,-1101 1022.27,-1088.96"/>
<polygon fill="none" stroke="#404040" points="1022.33,-1088.89 1023.2,-1081.73 1030.14,-1079.78 1029.27,-1086.94 1022.33,-1088.89"/>
<text text-anchor="middle" x="797.5" y="-1142.5" font-family="Helvetica,sans-Serif" font-size="10.00"> +elements</text>
</g>
<!-- Node13 -->
<g id="node29" class="node"><title>Node13</title>
<a xlink:href="../../da/d49/classRfParameters.html" target="_top" xlink:title="{RfParameters\n||+ RfParameters()\l+ ~RfParameters()\l+ calc_phi_s()\l+ eta_tracking()\l}">
<polygon fill="white" stroke="black" points="603,-687 603,-789 701,-789 701,-687 603,-687"/>
<text text-anchor="middle" x="652" y="-776" font-family="Helvetica,sans-Serif" font-size="10.00">RfParameters</text>
<polyline fill="none" stroke="black" points="603,-768 701,-768 "/>
<text text-anchor="middle" x="652" y="-755" font-family="Helvetica,sans-Serif" font-size="10.00"> </text>
<polyline fill="none" stroke="black" points="603,-747 701,-747 "/>
<text text-anchor="start" x="611" y="-734" font-family="Helvetica,sans-Serif" font-size="10.00">+ RfParameters()</text>
<text text-anchor="start" x="611" y="-721" font-family="Helvetica,sans-Serif" font-size="10.00">+ ~RfParameters()</text>
<text text-anchor="start" x="611" y="-708" font-family="Helvetica,sans-Serif" font-size="10.00">+ calc_phi_s()</text>
<text text-anchor="start" x="611" y="-695" font-family="Helvetica,sans-Serif" font-size="10.00">+ eta_tracking()</text>
</a>
</g>
<!-- Node5&#45;&gt;Node13 -->
<g id="edge36" class="edge"><title>Node5&#45;&gt;Node13</title>
<path fill="none" stroke="#404040" d="M651.934,-1170.37C644.492,-1155.57 636.745,-1137.41 633,-1120 609.283,-1009.77 625.386,-877.715 638.92,-801.277"/>
<polygon fill="none" stroke="#404040" points="638.999,-800.847 636.139,-794.227 641.15,-789.041 644.009,-795.661 638.999,-800.847"/>
<text text-anchor="middle" x="677.5" y="-1065" font-family="Helvetica,sans-Serif" font-size="10.00"> +length_ratio</text>
<text text-anchor="middle" x="677.5" y="-1052" font-family="Helvetica,sans-Serif" font-size="10.00">+ring_circumference</text>
<text text-anchor="middle" x="677.5" y="-1039" font-family="Helvetica,sans-Serif" font-size="10.00">+section_length</text>
<text text-anchor="middle" x="677.5" y="-1026" font-family="Helvetica,sans-Serif" font-size="10.00">+charge</text>
</g>
<!-- Node6 -->
<g id="node10" class="node"><title>Node6</title>
<polygon fill="white" stroke="#bfbfbf" points="218,-1016.5 218,-1079.5 274,-1079.5 274,-1016.5 218,-1016.5"/>
<text text-anchor="middle" x="246" y="-1066.5" font-family="Helvetica,sans-Serif" font-size="10.00">long long</text>
<polyline fill="none" stroke="#bfbfbf" points="218,-1058.5 274,-1058.5 "/>
<text text-anchor="middle" x="246" y="-1045.5" font-family="Helvetica,sans-Serif" font-size="10.00"> </text>
<polyline fill="none" stroke="#bfbfbf" points="218,-1037.5 274,-1037.5 "/>
<text text-anchor="middle" x="246" y="-1024.5" font-family="Helvetica,sans-Serif" font-size="10.00"> </text>
</g>
<!-- Node6&#45;&gt;Node4 -->
<g id="edge10" class="edge"><title>Node6&#45;&gt;Node4</title>
<path fill="none" stroke="#404040" d="M253.747,-1016.27C266.217,-971.397 294.797,-889.378 347,-840 359.876,-827.821 369.843,-832.106 388.334,-822.013"/>
<polygon fill="none" stroke="#404040" points="388.382,-821.982 391.281,-815.38 398.491,-815.517 395.591,-822.119 388.382,-821.982"/>
<text text-anchor="middle" x="370" y="-896.5" font-family="Helvetica,sans-Serif" font-size="10.00"> +intensity</text>
</g>
<!-- Node7 -->
<g id="node12" class="node"><title>Node7</title>
<polygon fill="white" stroke="#bfbfbf" points="83.5,-1170.5 83.5,-1233.5 112.5,-1233.5 112.5,-1170.5 83.5,-1170.5"/>
<text text-anchor="middle" x="98" y="-1220.5" font-family="Helvetica,sans-Serif" font-size="10.00">int</text>
<polyline fill="none" stroke="#bfbfbf" points="83.5,-1212.5 112.5,-1212.5 "/>
<text text-anchor="middle" x="98" y="-1199.5" font-family="Helvetica,sans-Serif" font-size="10.00"> </text>
<polyline fill="none" stroke="#bfbfbf" points="83.5,-1191.5 112.5,-1191.5 "/>
<text text-anchor="middle" x="98" y="-1178.5" font-family="Helvetica,sans-Serif" font-size="10.00"> </text>
</g>
<!-- Node7&#45;&gt;Node1 -->
<g id="edge76" class="edge"><title>Node7&#45;&gt;Node1</title>
<path fill="none" stroke="#404040" d="M83.1159,-1189.72C55.7007,-1165.63 0,-1109.16 0,-1048 0,-1048 0,-1048 0,-238 0,-131.684 784.377,-82.738 1052.44,-69.1149"/>
<polygon fill="none" stroke="#404040" points="1052.82,-69.0957 1058.62,-64.7993 1064.81,-68.4928 1059.02,-72.7892 1052.82,-69.0957"/>
<text text-anchor="middle" x="18.5" y="-627" font-family="Helvetica,sans-Serif" font-size="10.00"> +fCut</text>
<text text-anchor="middle" x="18.5" y="-614" font-family="Helvetica,sans-Serif" font-size="10.00">+fShape</text>
</g>
<!-- Node7&#45;&gt;Node3 -->
<g id="edge32" class="edge"><title>Node7&#45;&gt;Node3</title>
<path fill="none" stroke="#404040" d="M84.4651,-1170.43C58.4597,-1104.61 8.99227,-949.713 67,-840 194.395,-599.051 540.889,-510.674 704.805,-481.668"/>
<polygon fill="none" stroke="#404040" points="704.937,-481.646 710.168,-476.682 716.762,-479.601 711.531,-484.565 704.937,-481.646"/>
<text text-anchor="middle" x="90" y="-903" font-family="Helvetica,sans-Serif" font-size="10.00"> +n_sigma</text>
<text text-anchor="middle" x="90" y="-890" font-family="Helvetica,sans-Serif" font-size="10.00">+n_slices</text>
</g>
<!-- Node7&#45;&gt;Node4 -->
<g id="edge12" class="edge"><title>Node7&#45;&gt;Node4</title>
<path fill="none" stroke="#404040" d="M91.5626,-1170.44C83.9064,-1124.87 75.7633,-1039.19 107,-976 148.964,-891.116 184.587,-878.717 271,-840 316.478,-819.624 339.672,-843.688 387.218,-822.55"/>
<polygon fill="none" stroke="#404040" points="387.355,-822.482 390.942,-816.226 398.096,-817.131 394.509,-823.387 387.355,-822.482"/>
<text text-anchor="middle" x="158" y="-1052" font-family="Helvetica,sans-Serif" font-size="10.00"> +n_macroparticles</text>
<text text-anchor="middle" x="158" y="-1039" font-family="Helvetica,sans-Serif" font-size="10.00">+n_macroparticles_lost</text>
</g>
<!-- Node8 -->
<g id="node14" class="node"><title>Node8</title>
<polygon fill="white" stroke="#bfbfbf" points="491,-1016.5 491,-1079.5 583,-1079.5 583,-1016.5 491,-1016.5"/>
<text text-anchor="middle" x="537" y="-1066.5" font-family="Helvetica,sans-Serif" font-size="10.00">std::vector&lt; int &gt;</text>
<polyline fill="none" stroke="#bfbfbf" points="491,-1058.5 583,-1058.5 "/>
<text text-anchor="middle" x="537" y="-1045.5" font-family="Helvetica,sans-Serif" font-size="10.00"> </text>
<polyline fill="none" stroke="#bfbfbf" points="491,-1037.5 583,-1037.5 "/>
<text text-anchor="middle" x="537" y="-1024.5" font-family="Helvetica,sans-Serif" font-size="10.00"> </text>
</g>
<!-- Node7&#45;&gt;Node8 -->
<g id="edge16" class="edge"><title>Node7&#45;&gt;Node8</title>
<path fill="none" stroke="#404040" d="M112.898,-1200.09C175.009,-1191.95 413.083,-1158.71 477,-1120 489.83,-1112.23 501.201,-1100.72 510.499,-1089.17"/>
<polygon fill="none" stroke="#404040" points="510.553,-1089.1 510.995,-1081.9 517.808,-1079.54 517.367,-1086.74 510.553,-1089.1"/>
<text text-anchor="middle" x="458.5" y="-1142.5" font-family="Helvetica,sans-Serif" font-size="10.00"> +elements</text>
</g>
<!-- Node7&#45;&gt;Node13 -->
<g id="edge44" class="edge"><title>Node7&#45;&gt;Node13</title>
<path fill="none" stroke="#404040" d="M112.743,-1199.5C147.34,-1192.9 234.465,-1171.77 283,-1120 329.641,-1070.25 286.219,-1022.61 336,-976 356.634,-956.68 375.84,-976.742 397,-958 439.768,-920.118 403.504,-875.837 448,-840 480.449,-813.866 501.929,-838.926 540,-822 558.484,-813.782 576.787,-802.029 593.074,-789.909"/>
<polygon fill="none" stroke="#404040" points="593.416,-789.646 595.742,-782.821 602.937,-782.342 600.611,-789.168 593.416,-789.646"/>
<text text-anchor="middle" x="371" y="-1071.5" font-family="Helvetica,sans-Serif" font-size="10.00"> +section_index</text>
<text text-anchor="middle" x="371" y="-1058.5" font-family="Helvetica,sans-Serif" font-size="10.00">+n_turns</text>
<text text-anchor="middle" x="371" y="-1045.5" font-family="Helvetica,sans-Serif" font-size="10.00">+counter</text>
<text text-anchor="middle" x="371" y="-1032.5" font-family="Helvetica,sans-Serif" font-size="10.00">+n_rf</text>
<text text-anchor="middle" x="371" y="-1019.5" font-family="Helvetica,sans-Serif" font-size="10.00">+alpha_order</text>
</g>
<!-- Node8&#45;&gt;Node4 -->
<g id="edge14" class="edge"><title>Node8&#45;&gt;Node4</title>
<path fill="none" stroke="#404040" d="M510.266,-1016.23C491.153,-993.166 468.397,-964.857 466,-958 452.295,-918.789 450.054,-873.191 452.009,-833.709"/>
<polygon fill="none" stroke="#404040" points="452.013,-833.643 448.386,-827.411 452.743,-821.666 456.371,-827.898 452.013,-833.643"/>
<text text-anchor="middle" x="474.5" y="-896.5" font-family="Helvetica,sans-Serif" font-size="10.00"> +id</text>
</g>
<!-- Node8&#45;&gt;Node13 -->
<g id="edge46" class="edge"><title>Node8&#45;&gt;Node13</title>
<path fill="none" stroke="#404040" d="M520.271,-1016.25C500.091,-973.16 472.761,-895.206 506,-840 514.819,-825.352 525.561,-831.157 540,-822 557.759,-810.737 576.306,-797.493 593.082,-784.892"/>
<polygon fill="none" stroke="#404040" points="593.175,-784.822 595.537,-778.008 602.734,-777.568 600.372,-784.381 593.175,-784.822"/>
<text text-anchor="middle" x="534.5" y="-896.5" font-family="Helvetica,sans-Serif" font-size="10.00"> +sign_eta_0</text>
</g>
<!-- Node9 -->
<g id="node17" class="node"><title>Node9</title>
<a xlink:title="STL class.">
<polygon fill="white" stroke="#bfbfbf" points="934.5,-1170.5 934.5,-1233.5 1021.5,-1233.5 1021.5,-1170.5 934.5,-1170.5"/>
<text text-anchor="middle" x="978" y="-1220.5" font-family="Helvetica,sans-Serif" font-size="10.00">std::vector&lt; T &gt;</text>
<polyline fill="none" stroke="#bfbfbf" points="934.5,-1212.5 1021.5,-1212.5 "/>
<text text-anchor="middle" x="978" y="-1199.5" font-family="Helvetica,sans-Serif" font-size="10.00"> </text>
<polyline fill="none" stroke="#bfbfbf" points="934.5,-1191.5 1021.5,-1191.5 "/>
<text text-anchor="middle" x="978" y="-1178.5" font-family="Helvetica,sans-Serif" font-size="10.00"> </text>
</a>
</g>
<!-- Node9&#45;&gt;Node8 -->
<g id="edge18" class="edge"><title>Node9&#45;&gt;Node8</title>
<path fill="none" stroke="orange" d="M924.242,-1195.27C832.512,-1183 650.474,-1155 597,-1120 581.208,-1109.66 567.408,-1093.91 557.037,-1079.77"/>
<polygon fill="orange" stroke="orange" points="923.793,-1198.74 934.166,-1196.58 924.712,-1191.8 923.793,-1198.74"/>
<text text-anchor="middle" x="699" y="-1142.5" font-family="Helvetica,sans-Serif" font-size="10.00"> &lt; int &gt;</text>
</g>
<!-- Node9&#45;&gt;Node11 -->
<g id="edge26" class="edge"><title>Node9&#45;&gt;Node11</title>
<path fill="none" stroke="orange" d="M997.509,-1161.4C1009.78,-1135.87 1025.38,-1103.4 1036.74,-1079.76"/>
<polygon fill="orange" stroke="orange" points="994.33,-1159.93 993.154,-1170.46 1000.64,-1162.97 994.33,-1159.93"/>
<text text-anchor="middle" x="1034" y="-1142.5" font-family="Helvetica,sans-Serif" font-size="10.00"> &lt; double &gt;</text>
</g>
<!-- Node9&#45;&gt;Node13 -->
<g id="edge50" class="edge"><title>Node9&#45;&gt;Node13</title>
<path fill="none" stroke="#404040" d="M976.262,-1170.23C974.375,-1159.2 970.768,-1147.28 964,-1138 954.613,-1125.13 942.576,-1132.73 933,-1120 893.347,-1067.28 946.613,-1019.48 897,-976 843.848,-929.417 791.872,-1004.9 739,-958 698.678,-922.231 730.927,-890.082 711,-840 705.653,-826.561 698.758,-812.765 691.58,-799.834"/>
<polygon fill="none" stroke="#404040" points="691.46,-799.624 685.012,-796.396 685.511,-789.202 691.959,-792.43 691.46,-799.624"/>
<text text-anchor="middle" x="960.5" y="-1091" font-family="Helvetica,sans-Serif" font-size="10.00"> +energy</text>
<text text-anchor="middle" x="960.5" y="-1078" font-family="Helvetica,sans-Serif" font-size="10.00">+t_rev</text>
<text text-anchor="middle" x="960.5" y="-1065" font-family="Helvetica,sans-Serif" font-size="10.00">+eta_0</text>
<text text-anchor="middle" x="960.5" y="-1052" font-family="Helvetica,sans-Serif" font-size="10.00">+gamma</text>
<text text-anchor="middle" x="960.5" y="-1039" font-family="Helvetica,sans-Serif" font-size="10.00">+eta_1</text>
<text text-anchor="middle" x="960.5" y="-1026" font-family="Helvetica,sans-Serif" font-size="10.00">+beta</text>
<text text-anchor="middle" x="960.5" y="-1013" font-family="Helvetica,sans-Serif" font-size="10.00">+eta_2</text>
<text text-anchor="middle" x="960.5" y="-1000" font-family="Helvetica,sans-Serif" font-size="10.00">+momentum</text>
</g>
<!-- Node14 -->
<g id="node32" class="node"><title>Node14</title>
<polygon fill="white" stroke="#bfbfbf" points="763.5,-1016.5 763.5,-1079.5 888.5,-1079.5 888.5,-1016.5 763.5,-1016.5"/>
<text text-anchor="middle" x="826" y="-1066.5" font-family="Helvetica,sans-Serif" font-size="10.00">std::vector&lt; f_vector_t &gt;</text>
<polyline fill="none" stroke="#bfbfbf" points="763.5,-1058.5 888.5,-1058.5 "/>
<text text-anchor="middle" x="826" y="-1045.5" font-family="Helvetica,sans-Serif" font-size="10.00"> </text>
<polyline fill="none" stroke="#bfbfbf" points="763.5,-1037.5 888.5,-1037.5 "/>
<text text-anchor="middle" x="826" y="-1024.5" font-family="Helvetica,sans-Serif" font-size="10.00"> </text>
</g>
<!-- Node9&#45;&gt;Node14 -->
<g id="edge40" class="edge"><title>Node9&#45;&gt;Node14</title>
<path fill="none" stroke="#404040" d="M935.703,-1170.28C928.59,-1164.43 921.435,-1158.2 915,-1152 894.854,-1132.59 874.414,-1109.03 858.211,-1089.25"/>
<polygon fill="none" stroke="#404040" points="858.172,-1089.2 851.287,-1087.06 850.618,-1079.88 857.503,-1082.02 858.172,-1089.2"/>
<text text-anchor="middle" x="939.5" y="-1142.5" font-family="Helvetica,sans-Serif" font-size="10.00"> +elements</text>
</g>
<!-- Node9&#45;&gt;Node14 -->
<g id="edge42" class="edge"><title>Node9&#45;&gt;Node14</title>
<path fill="none" stroke="orange" d="M924.285,-1190.05C887.927,-1180.78 844.497,-1167.03 833,-1152 817.498,-1131.73 816.949,-1102.24 819.584,-1079.84"/>
<polygon fill="orange" stroke="orange" points="923.772,-1193.52 934.32,-1192.54 925.458,-1186.73 923.772,-1193.52"/>
<text text-anchor="middle" x="865.5" y="-1142.5" font-family="Helvetica,sans-Serif" font-size="10.00"> &lt; f_vector_t &gt;</text>
</g>
<!-- Node15 -->
<g id="node40" class="node"><title>Node15</title>
<polygon fill="white" stroke="#bfbfbf" points="1125,-1016.5 1125,-1079.5 1251,-1079.5 1251,-1016.5 1125,-1016.5"/>
<text text-anchor="middle" x="1188" y="-1066.5" font-family="Helvetica,sans-Serif" font-size="10.00">std::vector&lt; complex_t &gt;</text>
<polyline fill="none" stroke="#bfbfbf" points="1125,-1058.5 1251,-1058.5 "/>
<text text-anchor="middle" x="1188" y="-1045.5" font-family="Helvetica,sans-Serif" font-size="10.00"> </text>
<polyline fill="none" stroke="#bfbfbf" points="1125,-1037.5 1251,-1037.5 "/>
<text text-anchor="middle" x="1188" y="-1024.5" font-family="Helvetica,sans-Serif" font-size="10.00"> </text>
</g>
<!-- Node9&#45;&gt;Node15 -->
<g id="edge56" class="edge"><title>Node9&#45;&gt;Node15</title>
<path fill="none" stroke="orange" d="M1030.61,-1174.93C1057.25,-1160.19 1089.48,-1140.76 1116,-1120 1131.31,-1108.01 1146.76,-1093.03 1159.4,-1079.85"/>
<polygon fill="orange" stroke="orange" points="1028.9,-1171.87 1021.81,-1179.74 1032.26,-1178.01 1028.9,-1171.87"/>
<text text-anchor="middle" x="1125.5" y="-1142.5" font-family="Helvetica,sans-Serif" font-size="10.00"> &lt; complex_t &gt;</text>
</g>
<!-- Node18 -->
<g id="node49" class="node"><title>Node18</title>
<polygon fill="white" stroke="#bfbfbf" points="1216.5,-437.5 1216.5,-500.5 1341.5,-500.5 1341.5,-437.5 1216.5,-437.5"/>
<text text-anchor="middle" x="1279" y="-487.5" font-family="Helvetica,sans-Serif" font-size="10.00">std::vector&lt; Intensity * &gt;</text>
<polyline fill="none" stroke="#bfbfbf" points="1216.5,-479.5 1341.5,-479.5 "/>
<text text-anchor="middle" x="1279" y="-466.5" font-family="Helvetica,sans-Serif" font-size="10.00"> </text>
<polyline fill="none" stroke="#bfbfbf" points="1216.5,-458.5 1341.5,-458.5 "/>
<text text-anchor="middle" x="1279" y="-445.5" font-family="Helvetica,sans-Serif" font-size="10.00"> </text>
</g>
<!-- Node9&#45;&gt;Node18 -->
<g id="edge72" class="edge"><title>Node9&#45;&gt;Node18</title>
<path fill="none" stroke="orange" d="M1031.86,-1191.41C1064.09,-1185.12 1105.87,-1177.01 1143,-1170 1186.52,-1161.78 1204.66,-1177.31 1241,-1152 1254.57,-1142.55 1254.01,-1135.42 1260,-1120 1335.65,-925.239 1345.81,-861.575 1322,-654 1315.73,-599.292 1299.34,-537.233 1288.7,-500.696"/>
<polygon fill="orange" stroke="orange" points="1030.89,-1188.04 1021.75,-1193.39 1032.24,-1194.91 1030.89,-1188.04"/>
<text text-anchor="middle" x="1366" y="-896.5" font-family="Helvetica,sans-Serif" font-size="10.00"> &lt; Intensity * &gt;</text>
</g>
<!-- Node10 -->
<g id="node19" class="node"><title>Node10</title>
<polygon fill="white" stroke="#bfbfbf" points="963.5,-1284.5 963.5,-1347.5 992.5,-1347.5 992.5,-1284.5 963.5,-1284.5"/>
<text text-anchor="middle" x="978" y="-1334.5" font-family="Helvetica,sans-Serif" font-size="10.00">T</text>
<polyline fill="none" stroke="#bfbfbf" points="963.5,-1326.5 992.5,-1326.5 "/>
<text text-anchor="middle" x="978" y="-1313.5" font-family="Helvetica,sans-Serif" font-size="10.00"> </text>
<polyline fill="none" stroke="#bfbfbf" points="963.5,-1305.5 992.5,-1305.5 "/>
<text text-anchor="middle" x="978" y="-1292.5" font-family="Helvetica,sans-Serif" font-size="10.00"> </text>
</g>
<!-- Node10&#45;&gt;Node9 -->
<g id="edge20" class="edge"><title>Node10&#45;&gt;Node9</title>
<path fill="none" stroke="#404040" d="M978,-1284.24C978,-1272.39 978,-1258.7 978,-1245.94"/>
<polygon fill="none" stroke="#404040" points="978,-1245.59 974,-1239.59 978,-1233.59 982,-1239.59 978,-1245.59"/>
<text text-anchor="middle" x="1002.5" y="-1256.5" font-family="Helvetica,sans-Serif" font-size="10.00"> +elements</text>
</g>
<!-- Node11&#45;&gt;Node1 -->
<g id="edge78" class="edge"><title>Node11&#45;&gt;Node1</title>
<path fill="none" stroke="#404040" d="M1054.66,-1016.5C1062.29,-928.621 1084.82,-685.168 1103,-654 1109.72,-642.483 1120.89,-647.852 1127,-636 1149.04,-593.23 1145.71,-287.086 1142.81,-141.521"/>
<polygon fill="none" stroke="#404040" points="1142.8,-141.211 1138.68,-135.294 1142.56,-129.213 1146.68,-135.13 1142.8,-141.211"/>
<text text-anchor="middle" x="1174" y="-473" font-family="Helvetica,sans-Serif" font-size="10.00"> +fTimeArray</text>
<text text-anchor="middle" x="1174" y="-460" font-family="Helvetica,sans-Serif" font-size="10.00">+fTotalWake</text>
</g>
<!-- Node11&#45;&gt;Node2 -->
<g id="edge62" class="edge"><title>Node11&#45;&gt;Node2</title>
<path fill="none" stroke="#404040" d="M1051.41,-1016.25C1049.21,-897.183 1041.4,-475.514 1038.29,-307.669"/>
<polygon fill="none" stroke="#404040" points="1038.29,-307.552 1034.18,-301.627 1038.07,-295.554 1042.18,-301.479 1038.29,-307.552"/>
<text text-anchor="middle" x="1085" y="-620.5" font-family="Helvetica,sans-Serif" font-size="10.00"> +fInducedVoltage</text>
</g>
<!-- Node11&#45;&gt;Node3 -->
<g id="edge60" class="edge"><title>Node11&#45;&gt;Node3</title>
<path fill="none" stroke="#404040" d="M1032.39,-1016.2C1006.77,-973.455 962.013,-894.447 935,-822 901.143,-731.196 922.149,-699.086 884,-610 881.208,-603.48 878.124,-596.925 874.829,-590.401"/>
<polygon fill="none" stroke="#404040" points="874.667,-590.092 868.34,-586.633 869.099,-579.462 875.426,-582.921 874.667,-590.092"/>
<text text-anchor="middle" x="983.5" y="-755" font-family="Helvetica,sans-Serif" font-size="10.00"> +bin_centers</text>
<text text-anchor="middle" x="983.5" y="-742" font-family="Helvetica,sans-Serif" font-size="10.00">+fBeamSpectrumFreq</text>
<text text-anchor="middle" x="983.5" y="-729" font-family="Helvetica,sans-Serif" font-size="10.00">+n_macroparticles</text>
<text text-anchor="middle" x="983.5" y="-716" font-family="Helvetica,sans-Serif" font-size="10.00">+edges</text>
</g>
<!-- Node11&#45;&gt;Node4 -->
<g id="edge22" class="edge"><title>Node11&#45;&gt;Node4</title>
<path fill="none" stroke="#404040" d="M1030.57,-1016.3C1018.52,-1001.25 1002.06,-984.693 983,-976 908.911,-942.209 684.42,-1003.67 617,-958 569.249,-925.654 595.437,-887.689 563,-840 556.092,-829.844 548.143,-819.763 539.823,-810.116"/>
<polygon fill="none" stroke="#404040" points="539.713,-809.991 532.74,-808.154 531.754,-801.01 538.727,-802.848 539.713,-809.991"/>
<text text-anchor="middle" x="626.5" y="-903" font-family="Helvetica,sans-Serif" font-size="10.00"> +dt</text>
<text text-anchor="middle" x="626.5" y="-890" font-family="Helvetica,sans-Serif" font-size="10.00">+dE</text>
</g>
<!-- Node11&#45;&gt;Node13 -->
<g id="edge48" class="edge"><title>Node11&#45;&gt;Node13</title>
<path fill="none" stroke="#404040" d="M1030.16,-1016.18C1018.1,-1001.29 1001.77,-984.914 983,-976 937.891,-954.575 796.238,-991.274 759,-958 719.157,-922.399 758.793,-888.326 736,-840 728.913,-824.974 719.113,-810.286 708.702,-796.948"/>
<polygon fill="none" stroke="#404040" points="708.595,-796.815 701.711,-794.669 701.044,-787.489 707.928,-789.635 708.595,-796.815"/>
<text text-anchor="middle" x="797" y="-935.5" font-family="Helvetica,sans-Serif" font-size="10.00"> +omega_s0</text>
<text text-anchor="middle" x="797" y="-922.5" font-family="Helvetica,sans-Serif" font-size="10.00">+phi_s</text>
<text text-anchor="middle" x="797" y="-909.5" font-family="Helvetica,sans-Serif" font-size="10.00">+dphi_rf</text>
<text text-anchor="middle" x="797" y="-896.5" font-family="Helvetica,sans-Serif" font-size="10.00">+Qs</text>
<text text-anchor="middle" x="797" y="-883.5" font-family="Helvetica,sans-Serif" font-size="10.00">+t_rf</text>
<text text-anchor="middle" x="797" y="-870.5" font-family="Helvetica,sans-Serif" font-size="10.00">+dphi_rf_steering</text>
<text text-anchor="middle" x="797" y="-857.5" font-family="Helvetica,sans-Serif" font-size="10.00">+E_increment</text>
</g>
<!-- Node19 -->
<g id="node51" class="node"><title>Node19</title>
<a xlink:href="../../dc/dad/classIntensity.html" target="_top" xlink:title="{Intensity\n||+ Intensity()\l+ ~Intensity()\l+ imped_calc()\l+ wake_calc()\l}">
<polygon fill="white" stroke="black" points="1111.5,-687 1111.5,-789 1192.5,-789 1192.5,-687 1111.5,-687"/>
<text text-anchor="middle" x="1152" y="-776" font-family="Helvetica,sans-Serif" font-size="10.00">Intensity</text>
<polyline fill="none" stroke="black" points="1111.5,-768 1192.5,-768 "/>
<text text-anchor="middle" x="1152" y="-755" font-family="Helvetica,sans-Serif" font-size="10.00"> </text>
<polyline fill="none" stroke="black" points="1111.5,-747 1192.5,-747 "/>
<text text-anchor="start" x="1119.5" y="-734" font-family="Helvetica,sans-Serif" font-size="10.00">+ Intensity()</text>
<text text-anchor="start" x="1119.5" y="-721" font-family="Helvetica,sans-Serif" font-size="10.00">+ ~Intensity()</text>
<text text-anchor="start" x="1119.5" y="-708" font-family="Helvetica,sans-Serif" font-size="10.00">+ imped_calc()</text>
<text text-anchor="start" x="1119.5" y="-695" font-family="Helvetica,sans-Serif" font-size="10.00">+ wake_calc()</text>
</a>
</g>
<!-- Node11&#45;&gt;Node19 -->
<g id="edge70" class="edge"><title>Node11&#45;&gt;Node19</title>
<path fill="none" stroke="#404040" d="M1063.84,-1016.26C1069.89,-999.177 1077.01,-977.634 1082,-958 1095.12,-906.374 1086.65,-890.697 1103,-840 1107.27,-826.768 1112.92,-813.057 1118.87,-800.143"/>
<polygon fill="none" stroke="#404040" points="1118.99,-799.872 1117.95,-792.737 1124.14,-789.031 1125.18,-796.167 1118.99,-799.872"/>
<text text-anchor="middle" x="1132" y="-909.5" font-family="Helvetica,sans-Serif" font-size="10.00"> +fTimeArray</text>
<text text-anchor="middle" x="1132" y="-896.5" font-family="Helvetica,sans-Serif" font-size="10.00">+fFreqArray</text>
<text text-anchor="middle" x="1132" y="-883.5" font-family="Helvetica,sans-Serif" font-size="10.00">+fWake</text>
</g>
<!-- Node12 -->
<g id="node26" class="node"><title>Node12</title>
<polygon fill="white" stroke="#bfbfbf" points="820.5,-706.5 820.5,-769.5 885.5,-769.5 885.5,-706.5 820.5,-706.5"/>
<text text-anchor="middle" x="853" y="-756.5" font-family="Helvetica,sans-Serif" font-size="10.00">cuts_unit_t</text>
<polyline fill="none" stroke="#bfbfbf" points="820.5,-748.5 885.5,-748.5 "/>
<text text-anchor="middle" x="853" y="-735.5" font-family="Helvetica,sans-Serif" font-size="10.00"> </text>
<polyline fill="none" stroke="#bfbfbf" points="820.5,-727.5 885.5,-727.5 "/>
<text text-anchor="middle" x="853" y="-714.5" font-family="Helvetica,sans-Serif" font-size="10.00"> </text>
</g>
<!-- Node12&#45;&gt;Node3 -->
<g id="edge30" class="edge"><title>Node12&#45;&gt;Node3</title>
<path fill="none" stroke="#404040" d="M845.941,-706.351C840.172,-680.487 831.595,-642.035 823.017,-603.575"/>
<polygon fill="none" stroke="#404040" points="822.97,-603.365 817.76,-598.38 820.357,-591.653 825.568,-596.638 822.97,-603.365"/>
<text text-anchor="middle" x="855.5" y="-620.5" font-family="Helvetica,sans-Serif" font-size="10.00"> +cuts_unit</text>
</g>
<!-- Node13&#45;&gt;Node3 -->
<g id="edge34" class="edge"><title>Node13&#45;&gt;Node3</title>
<path fill="none" stroke="#404040" d="M678.853,-686.77C691.484,-662.672 707.198,-632.694 722.885,-602.765"/>
<polygon fill="none" stroke="#404040" points="723.087,-602.38 722.33,-595.208 728.658,-591.751 729.416,-598.923 723.087,-602.38"/>
<text text-anchor="middle" x="729.5" y="-620.5" font-family="Helvetica,sans-Serif" font-size="10.00"> +rfp</text>
</g>
<!-- Node14&#45;&gt;Node13 -->
<g id="edge38" class="edge"><title>Node14&#45;&gt;Node13</title>
<path fill="none" stroke="#404040" d="M782.078,-1016.38C761.52,-1002.61 736.26,-987.118 712,-976 687.077,-964.578 669.364,-979.996 653,-958 635.185,-934.054 638.749,-857.354 644.228,-801.235"/>
<polygon fill="none" stroke="#404040" points="644.234,-801.181 640.866,-794.804 645.457,-789.244 648.825,-795.62 644.234,-801.181"/>
<text text-anchor="middle" x="682" y="-935.5" font-family="Helvetica,sans-Serif" font-size="10.00"> +harmonic</text>
<text text-anchor="middle" x="682" y="-922.5" font-family="Helvetica,sans-Serif" font-size="10.00">+phi_offset</text>
<text text-anchor="middle" x="682" y="-909.5" font-family="Helvetica,sans-Serif" font-size="10.00">+voltage</text>
<text text-anchor="middle" x="682" y="-896.5" font-family="Helvetica,sans-Serif" font-size="10.00">+omega_rf</text>
<text text-anchor="middle" x="682" y="-883.5" font-family="Helvetica,sans-Serif" font-size="10.00">+phi_noise</text>
<text text-anchor="middle" x="682" y="-870.5" font-family="Helvetica,sans-Serif" font-size="10.00">+phi_rf</text>
<text text-anchor="middle" x="682" y="-857.5" font-family="Helvetica,sans-Serif" font-size="10.00">+omega_rf_d</text>
</g>
<!-- Node15&#45;&gt;Node3 -->
<g id="edge52" class="edge"><title>Node15&#45;&gt;Node3</title>
<path fill="none" stroke="#404040" d="M1213.32,-1016.28C1224.8,-999.898 1237.1,-978.976 1243,-958 1257.2,-907.516 1248.81,-892.121 1243,-840 1238.3,-797.887 1232.69,-682.128 1201,-654 1171.93,-628.196 1063.36,-649.747 1027,-636 973.186,-615.654 920.391,-579.772 878.608,-546.469"/>
<polygon fill="none" stroke="#404040" points="878.382,-546.286 871.201,-545.625 869.049,-538.743 876.23,-539.404 878.382,-546.286"/>
<text text-anchor="middle" x="1282" y="-735.5" font-family="Helvetica,sans-Serif" font-size="10.00"> +fBeamSpectrum</text>
</g>
<!-- Node15&#45;&gt;Node19 -->
<g id="edge68" class="edge"><title>Node15&#45;&gt;Node19</title>
<path fill="none" stroke="#404040" d="M1184.32,-1016.28C1178.47,-965.904 1166.94,-866.633 1159.35,-801.3"/>
<polygon fill="none" stroke="#404040" points="1159.32,-801.033 1154.65,-795.535 1157.94,-789.113 1162.6,-794.612 1159.32,-801.033"/>
<text text-anchor="middle" x="1208.5" y="-896.5" font-family="Helvetica,sans-Serif" font-size="10.00"> +fImpedance</text>
</g>
<!-- Node16 -->
<g id="node42" class="node"><title>Node16</title>
<a xlink:title="STL class.">
<polygon fill="white" stroke="#bfbfbf" points="1151.5,-1170.5 1151.5,-1233.5 1224.5,-1233.5 1224.5,-1170.5 1151.5,-1170.5"/>
<text text-anchor="middle" x="1188" y="-1220.5" font-family="Helvetica,sans-Serif" font-size="10.00">std::complex</text>
<polyline fill="none" stroke="#bfbfbf" points="1151.5,-1212.5 1224.5,-1212.5 "/>
<text text-anchor="middle" x="1188" y="-1199.5" font-family="Helvetica,sans-Serif" font-size="10.00"> </text>
<polyline fill="none" stroke="#bfbfbf" points="1151.5,-1191.5 1224.5,-1191.5 "/>
<text text-anchor="middle" x="1188" y="-1178.5" font-family="Helvetica,sans-Serif" font-size="10.00"> </text>
</a>
</g>
<!-- Node16&#45;&gt;Node15 -->
<g id="edge54" class="edge"><title>Node16&#45;&gt;Node15</title>
<path fill="none" stroke="#404040" d="M1188,-1170.46C1188,-1147.81 1188,-1116.96 1188,-1091.9"/>
<polygon fill="none" stroke="#404040" points="1188,-1091.76 1184,-1085.76 1188,-1079.76 1192,-1085.76 1188,-1091.76"/>
<text text-anchor="middle" x="1212.5" y="-1142.5" font-family="Helvetica,sans-Serif" font-size="10.00"> +elements</text>
</g>
<!-- Node17 -->
<g id="node45" class="node"><title>Node17</title>
<polygon fill="white" stroke="#bfbfbf" points="348.5,-706.5 348.5,-769.5 381.5,-769.5 381.5,-706.5 348.5,-706.5"/>
<text text-anchor="middle" x="365" y="-756.5" font-family="Helvetica,sans-Serif" font-size="10.00">fit_t</text>
<polyline fill="none" stroke="#bfbfbf" points="348.5,-748.5 381.5,-748.5 "/>
<text text-anchor="middle" x="365" y="-735.5" font-family="Helvetica,sans-Serif" font-size="10.00"> </text>
<polyline fill="none" stroke="#bfbfbf" points="348.5,-727.5 381.5,-727.5 "/>
<text text-anchor="middle" x="365" y="-714.5" font-family="Helvetica,sans-Serif" font-size="10.00"> </text>
</g>
<!-- Node17&#45;&gt;Node3 -->
<g id="edge58" class="edge"><title>Node17&#45;&gt;Node3</title>
<path fill="none" stroke="#404040" d="M368.071,-706.216C371.18,-689.053 377.433,-668.478 390,-654 472.429,-559.037 613.734,-509.941 705.226,-486.842"/>
<polygon fill="none" stroke="#404040" points="705.309,-486.822 710.179,-481.503 716.961,-483.952 712.092,-489.271 705.309,-486.822"/>
<text text-anchor="middle" x="457.5" y="-620.5" font-family="Helvetica,sans-Serif" font-size="10.00"> +fit_option</text>
</g>
<!-- Node18&#45;&gt;Node1 -->
<g id="edge64" class="edge"><title>Node18&#45;&gt;Node1</title>
<path fill="none" stroke="#404040" d="M1261.28,-437.358C1242.83,-403.322 1214.14,-347.181 1196,-296 1178.12,-245.526 1164.22,-186.802 1154.87,-141.195"/>
<polygon fill="none" stroke="#404040" points="1154.84,-141.061 1149.74,-135.969 1152.47,-129.297 1157.58,-134.389 1154.84,-141.061"/>
<text text-anchor="middle" x="1238.5" y="-235.5" font-family="Helvetica,sans-Serif" font-size="10.00"> +fWakeSourceList</text>
</g>
<!-- Node19&#45;&gt;Node18 -->
<g id="edge66" class="edge"><title>Node19&#45;&gt;Node18</title>
<path fill="none" stroke="#404040" d="M1176.19,-686.77C1200.12,-636.073 1236.34,-559.353 1258.79,-511.808"/>
<polygon fill="none" stroke="#404040" points="1258.92,-511.525 1257.87,-504.392 1264.05,-500.674 1265.1,-507.807 1258.92,-511.525"/>
<text text-anchor="middle" x="1236.5" y="-620.5" font-family="Helvetica,sans-Serif" font-size="10.00"> +elements</text>
</g>
<!-- Node20 -->
<g id="node56" class="node"><title>Node20</title>
<polygon fill="white" stroke="#bfbfbf" points="1289.5,-206.5 1289.5,-269.5 1360.5,-269.5 1360.5,-206.5 1289.5,-206.5"/>
<text text-anchor="middle" x="1325" y="-256.5" font-family="Helvetica,sans-Serif" font-size="10.00">time_or_freq</text>
<polyline fill="none" stroke="#bfbfbf" points="1289.5,-248.5 1360.5,-248.5 "/>
<text text-anchor="middle" x="1325" y="-235.5" font-family="Helvetica,sans-Serif" font-size="10.00"> </text>
<polyline fill="none" stroke="#bfbfbf" points="1289.5,-227.5 1360.5,-227.5 "/>
<text text-anchor="middle" x="1325" y="-214.5" font-family="Helvetica,sans-Serif" font-size="10.00"> </text>
</g>
<!-- Node20&#45;&gt;Node1 -->
<g id="edge74" class="edge"><title>Node20&#45;&gt;Node1</title>
<path fill="none" stroke="#404040" d="M1299.97,-206.468C1292.53,-197.641 1284.19,-188.219 1276,-180 1260.6,-164.539 1243.38,-148.824 1226.53,-134.181"/>
<polygon fill="none" stroke="#404040" points="1226.31,-133.994 1219.16,-133.111 1217.22,-126.164 1224.38,-127.048 1226.31,-133.994"/>
<text text-anchor="middle" x="1288" y="-152.5" font-family="Helvetica,sans-Serif" font-size="10.00"> +fTimeOrFreq</text>
</g>
</g>
</svg>
