<?xml version="1.0" encoding="UTF-8" standalone="no"?>
<!DOCTYPE svg PUBLIC "-//W3C//DTD SVG 1.1//EN"
 "http://www.w3.org/Graphics/SVG/1.1/DTD/svg11.dtd">
<!-- Generated by graphviz version 2.26.3 (20100126.1600)
 -->
<!-- Title: blond::optionparser::PrintUsageImplementation::FunctionWriter&lt; Function &gt; Pages: 1 -->
<svg width="224pt" height="252pt"
 viewBox="0.00 0.00 224.00 252.00" xmlns="http://www.w3.org/2000/svg" xmlns:xlink="http://www.w3.org/1999/xlink">
<g id="graph1" class="graph" transform="scale(1 1) rotate(0) translate(4 248)">
<title>blond::optionparser::PrintUsageImplementation::FunctionWriter&lt; Function &gt;</title>
<polygon fill="white" stroke="white" points="-4,5 -4,-248 221,-248 221,5 -4,5"/>
<!-- Node1 -->
<g id="node1" class="node"><title>Node1</title>
<polygon fill="#bfbfbf" stroke="black" points="56,-1 56,-103 198,-103 198,-1 56,-1"/>
<text text-anchor="start" x="64" y="-90" font-family="Helvetica,sans-Serif" font-size="10.00">blond::optionparser</text>
<text text-anchor="start" x="64" y="-77" font-family="Helvetica,sans-Serif" font-size="10.00">::PrintUsageImplementation</text>
<text text-anchor="middle" x="127" y="-64" font-family="Helvetica,sans-Serif" font-size="10.00">::FunctionWriter&lt; Function &gt;</text>
<polyline fill="none" stroke="black" points="56,-56 198,-56 "/>
<text text-anchor="middle" x="127" y="-43" font-family="Helvetica,sans-Serif" font-size="10.00"> </text>
<polyline fill="none" stroke="black" points="56,-35 198,-35 "/>
<text text-anchor="start" x="64" y="-22" font-family="Helvetica,sans-Serif" font-size="10.00">+ FunctionWriter()</text>
<text text-anchor="start" x="64" y="-9" font-family="Helvetica,sans-Serif" font-size="10.00">+ operator()()</text>
</g>
<!-- Node2 -->
<g id="node2" class="node"><title>Node2</title>
<a xlink:href="../../d5/d5c/structblond_1_1optionparser_1_1PrintUsageImplementation_1_1IStringWriter.html" target="_top" xlink:title="{blond::optionparser\l::PrintUsageImplementation\l::IStringWriter\n||+ operator()()\l}">
<polygon fill="white" stroke="black" points="0,-154.5 0,-243.5 138,-243.5 138,-154.5 0,-154.5"/>
<text text-anchor="start" x="8" y="-230.5" font-family="Helvetica,sans-Serif" font-size="10.00">blond::optionparser</text>
<text text-anchor="start" x="8" y="-217.5" font-family="Helvetica,sans-Serif" font-size="10.00">::PrintUsageImplementation</text>
<text text-anchor="middle" x="69" y="-204.5" font-family="Helvetica,sans-Serif" font-size="10.00">::IStringWriter</text>
<polyline fill="none" stroke="black" points="0,-196.5 138,-196.5 "/>
<text text-anchor="middle" x="69" y="-183.5" font-family="Helvetica,sans-Serif" font-size="10.00"> </text>
<polyline fill="none" stroke="black" points="0,-175.5 138,-175.5 "/>
<text text-anchor="start" x="8" y="-162.5" font-family="Helvetica,sans-Serif" font-size="10.00">+ operator()()</text>
</a>
</g>
<!-- Node2&#45;&gt;Node1 -->
<g id="edge2" class="edge"><title>Node2&#45;&gt;Node1</title>
<path fill="none" stroke="midnightblue" d="M90.2433,-145.159C95.6698,-131.406 101.487,-116.661 106.857,-103.052"/>
<polygon fill="none" stroke="midnightblue" points="86.9739,-143.91 86.5593,-154.496 93.4853,-146.479 86.9739,-143.91"/>
</g>
<!-- Node3 -->
<g id="node4" class="node"><title>Node3</title>
<polygon fill="white" stroke="#bfbfbf" points="155.5,-167.5 155.5,-230.5 216.5,-230.5 216.5,-167.5 155.5,-167.5"/>
<text text-anchor="middle" x="186" y="-217.5" font-family="Helvetica,sans-Serif" font-size="10.00">Function *</text>
<polyline fill="none" stroke="#bfbfbf" points="155.5,-209.5 216.5,-209.5 "/>
<text text-anchor="middle" x="186" y="-196.5" font-family="Helvetica,sans-Serif" font-size="10.00"> </text>
<polyline fill="none" stroke="#bfbfbf" points="155.5,-188.5 216.5,-188.5 "/>
<text text-anchor="middle" x="186" y="-175.5" font-family="Helvetica,sans-Serif" font-size="10.00"> </text>
</g>
<!-- Node3&#45;&gt;Node1 -->
<g id="edge4" class="edge"><title>Node3&#45;&gt;Node1</title>
<path fill="none" stroke="#404040" d="M173.343,-167.465C167.118,-151.955 159.389,-132.697 152.037,-114.381"/>
<polygon fill="none" stroke="#404040" points="151.996,-114.278 146.049,-110.199 147.526,-103.141 153.473,-107.219 151.996,-114.278"/>
<text text-anchor="middle" x="175.5" y="-126.5" font-family="Helvetica,sans-Serif" font-size="10.00"> +write</text>
</g>
</g>
</svg>
