<?xml version="1.0" encoding="UTF-8" standalone="no"?>
<!DOCTYPE svg PUBLIC "-//W3C//DTD SVG 1.1//EN"
 "http://www.w3.org/Graphics/SVG/1.1/DTD/svg11.dtd">
<!-- Generated by graphviz version 2.26.3 (20100126.1600)
 -->
<!-- Title: plot_beams.h Pages: 1 -->
<svg width="160pt" height="88pt"
 viewBox="0.00 0.00 160.00 88.00" xmlns="http://www.w3.org/2000/svg" xmlns:xlink="http://www.w3.org/1999/xlink">
<g id="graph1" class="graph" transform="scale(1 1) rotate(0) translate(4 84)">
<title>plot_beams.h</title>
<polygon fill="white" stroke="white" points="-4,5 -4,-84 157,-84 157,5 -4,5"/>
<!-- Node1 -->
<g id="node1" class="node"><title>Node1</title>
<polygon fill="#bfbfbf" stroke="black" points="47.5,-58.5 47.5,-79.5 122.5,-79.5 122.5,-58.5 47.5,-58.5"/>
<text text-anchor="middle" x="85" y="-66.5" font-family="Helvetica,sans-Serif" font-size="10.00">plot_beams.h</text>
</g>
<!-- Node2 -->
<g id="node3" class="node"><title>Node2</title>
<a xlink:href="../../d3/d2c/plot__beams_8cpp.html" target="_top" xlink:title="plot_beams.cpp">
<polygon fill="white" stroke="black" points="0,-0.5 0,-21.5 86,-21.5 86,-0.5 0,-0.5"/>
<text text-anchor="middle" x="43" y="-8.5" font-family="Helvetica,sans-Serif" font-size="10.00">plot_beams.cpp</text>
</a>
</g>
<!-- Node1&#45;&gt;Node2 -->
<g id="edge2" class="edge"><title>Node1&#45;&gt;Node2</title>
<path fill="none" stroke="midnightblue" d="M71.4227,-50.2504C64.5431,-40.75 56.4437,-29.5651 50.6546,-21.5707"/>
<polygon fill="midnightblue" stroke="midnightblue" points="68.5966,-52.3153 77.2966,-58.3619 74.2662,-48.2097 68.5966,-52.3153"/>
</g>
<!-- Node3 -->
<g id="node5" class="node"><title>Node3</title>
<a xlink:href="../../d5/dde/blond_8h.html" target="_top" xlink:title="blond.h">
<polygon fill="white" stroke="black" points="104,-0.5 104,-21.5 152,-21.5 152,-0.5 104,-0.5"/>
<text text-anchor="middle" x="128" y="-8.5" font-family="Helvetica,sans-Serif" font-size="10.00">blond.h</text>
</a>
</g>
<!-- Node1&#45;&gt;Node3 -->
<g id="edge4" class="edge"><title>Node1&#45;&gt;Node3</title>
<path fill="none" stroke="midnightblue" d="M98.9006,-50.2504C105.944,-40.75 114.236,-29.5651 120.163,-21.5707"/>
<polygon fill="midnightblue" stroke="midnightblue" points="96.0309,-48.2443 92.8869,-58.3619 101.654,-52.4132 96.0309,-48.2443"/>
</g>
</g>
</svg>
