<?xml version="1.0" encoding="UTF-8" standalone="no"?>
<!DOCTYPE svg PUBLIC "-//W3C//DTD SVG 1.1//EN"
 "http://www.w3.org/Graphics/SVG/1.1/DTD/svg11.dtd">
<!-- Generated by graphviz version 2.26.3 (20100126.1600)
 -->
<!-- Title: plot_beam_profile Pages: 1 -->
<svg width="256pt" height="162pt"
 viewBox="0.00 0.00 256.00 162.00" xmlns="http://www.w3.org/2000/svg" xmlns:xlink="http://www.w3.org/1999/xlink">
<g id="graph1" class="graph" transform="scale(1 1) rotate(0) translate(4 158)">
<title>plot_beam_profile</title>
<polygon fill="white" stroke="white" points="-4,5 -4,-158 253,-158 253,5 -4,5"/>
<!-- Node1 -->
<g id="node1" class="node"><title>Node1</title>
<polygon fill="#bfbfbf" stroke="black" points="0.5,-60.5 0.5,-81.5 93.5,-81.5 93.5,-60.5 0.5,-60.5"/>
<text text-anchor="middle" x="47" y="-68.5" font-family="Helvetica,sans-Serif" font-size="10.00">plot_beam_profile</text>
</g>
<!-- Node2 -->
<g id="node3" class="node"><title>Node2</title>
<a xlink:href="../../de/d4a/namespacepython.html#a38f56692b4793b00b074fc192783947e" target="_top" xlink:title="python::convert_double\l_array">
<polygon fill="white" stroke="black" points="130,-120 130,-154 248,-154 248,-120 130,-120"/>
<text text-anchor="start" x="138" y="-141" font-family="Helvetica,sans-Serif" font-size="10.00">python::convert_double</text>
<text text-anchor="middle" x="189" y="-128" font-family="Helvetica,sans-Serif" font-size="10.00">_array</text>
</a>
</g>
<!-- Node1&#45;&gt;Node2 -->
<g id="edge2" class="edge"><title>Node1&#45;&gt;Node2</title>
<path fill="none" stroke="midnightblue" d="M68.4017,-81.561C85.1073,-89.7446 108.938,-101.287 130,-111 133.402,-112.569 136.923,-114.172 140.474,-115.773"/>
<polygon fill="midnightblue" stroke="midnightblue" points="139.323,-119.093 149.88,-119.984 142.183,-112.704 139.323,-119.093"/>
</g>
<!-- Node3 -->
<g id="node5" class="node"><title>Node3</title>
<a xlink:href="../../de/d4a/namespacepython.html#adb27db8de2c6c5b4f381fadcc86a4939" target="_top" xlink:title="python::convert_int">
<polygon fill="white" stroke="black" points="139,-80.5 139,-101.5 239,-101.5 239,-80.5 139,-80.5"/>
<text text-anchor="middle" x="189" y="-88.5" font-family="Helvetica,sans-Serif" font-size="10.00">python::convert_int</text>
</a>
</g>
<!-- Node1&#45;&gt;Node3 -->
<g id="edge4" class="edge"><title>Node1&#45;&gt;Node3</title>
<path fill="none" stroke="midnightblue" d="M93.8897,-77.6042C105.011,-79.1706 117.029,-80.8632 128.656,-82.5008"/>
<polygon fill="midnightblue" stroke="midnightblue" points="128.351,-85.9923 138.741,-83.9213 129.327,-79.0607 128.351,-85.9923"/>
</g>
<!-- Node4 -->
<g id="node7" class="node"><title>Node4</title>
<a xlink:href="../../de/d4a/namespacepython.html#aaed0c03f36b79c4703d003314d78b412" target="_top" xlink:title="python::convert_string">
<polygon fill="white" stroke="black" points="132.5,-40.5 132.5,-61.5 245.5,-61.5 245.5,-40.5 132.5,-40.5"/>
<text text-anchor="middle" x="189" y="-48.5" font-family="Helvetica,sans-Serif" font-size="10.00">python::convert_string</text>
</a>
</g>
<!-- Node1&#45;&gt;Node4 -->
<g id="edge6" class="edge"><title>Node1&#45;&gt;Node4</title>
<path fill="none" stroke="midnightblue" d="M93.8897,-64.3958C103.003,-63.1122 112.718,-61.744 122.327,-60.3906"/>
<polygon fill="midnightblue" stroke="midnightblue" points="122.858,-63.8504 132.272,-58.9899 121.882,-56.9188 122.858,-63.8504"/>
</g>
<!-- Node5 -->
<g id="node9" class="node"><title>Node5</title>
<a xlink:href="../../de/d4a/namespacepython.html#a713f8b295244715fb64ea92c5b172d33" target="_top" xlink:title="python::import">
<polygon fill="white" stroke="black" points="149.5,-0.5 149.5,-21.5 228.5,-21.5 228.5,-0.5 149.5,-0.5"/>
<text text-anchor="middle" x="189" y="-8.5" font-family="Helvetica,sans-Serif" font-size="10.00">python::import</text>
</a>
</g>
<!-- Node1&#45;&gt;Node5 -->
<g id="edge8" class="edge"><title>Node1&#45;&gt;Node5</title>
<path fill="none" stroke="midnightblue" d="M67.1517,-60.4311C83.7687,-51.9255 108.086,-39.9557 130,-31 135.131,-28.9031 140.572,-26.8442 145.994,-24.8922"/>
<polygon fill="midnightblue" stroke="midnightblue" points="147.378,-28.116 155.66,-21.5087 145.065,-21.509 147.378,-28.116"/>
</g>
</g>
</svg>
