<?xml version="1.0" encoding="UTF-8" standalone="no"?>
<!DOCTYPE svg PUBLIC "-//W3C//DTD SVG 1.1//EN"
 "http://www.w3.org/Graphics/SVG/1.1/DTD/svg11.dtd">
<!-- Generated by graphviz version 2.26.3 (20100126.1600)
 -->
<!-- Title: fft::init_irfft Pages: 1 -->
<!--zoomable 210 -->
<svg id="main" version="1.1" xmlns="http://www.w3.org/2000/svg" xmlns:xlink="http://www.w3.org/1999/xlink" xml:space="preserve" onload="init(evt)">
        <defs>
                <circle id="rim" cx="0" cy="0" r="7"/>
                <circle id="rim2" cx="0" cy="0" r="3.5"/>
                <g id="zoomPlus">
                        <use xlink:href="#rim" fill="#404040">
                                <set attributeName="fill" to="#808080" begin="zoomplus.mouseover" end="zoomplus.mouseout"/>
                        </use>
                        <path d="M-4,0h8M0,-4v8" fill="none" stroke="white" stroke-width="1.5" pointer-events="none"/>
                </g>
                <g id="zoomMin">
                        <use xlink:href="#rim" fill="#404040">
                                <set attributeName="fill" to="#808080" begin="zoomminus.mouseover" end="zoomminus.mouseout"/>
                        </use>
                        <path d="M-4,0h8" fill="none" stroke="white" stroke-width="1.5" pointer-events="none"/>
                </g>
                <g id="dirArrow">
                        <path fill="none" stroke="white" stroke-width="1.5" d="M0,-3.0v7 M-2.5,-0.5L0,-3.0L2.5,-0.5"/>
                </g>
               <g id="resetDef">
                       <use xlink:href="#rim2" fill="#404040">
                               <set attributeName="fill" to="#808080" begin="reset.mouseover" end="reset.mouseout"/>
                       </use>
               </g>
        </defs>

<script type="text/javascript">
var viewWidth = 764;
var viewHeight = 210;
var sectionId = 'dynsection-11';
</script>
<script xlink:href="../../svgpan.js"/>
<svg id="graph" class="graph">
<g id="viewport">
<title>fft::init_irfft</title>
<polygon fill="white" stroke="white" points="-4,5 -4,-206 761,-206 761,5 -4,5"/>
<!-- Node1 -->
<g id="node1" class="node"><title>Node1</title>
<polygon fill="#bfbfbf" stroke="black" points="0,-120.5 0,-141.5 64,-141.5 64,-120.5 0,-120.5"/>
<text text-anchor="middle" x="32" y="-128.5" font-family="Helvetica,sans-Serif" font-size="10.00">fft::init_irfft</text>
</g>
<!-- Node2 -->
<g id="node3" class="node"><title>Node2</title>
<a xlink:href="../../d8/de0/namespacefft.html#af7197252dd2a265bd53282a343582d02" target="_top" xlink:title="fft::find_plan">
<polygon fill="white" stroke="black" points="100.5,-120.5 100.5,-141.5 171.5,-141.5 171.5,-120.5 100.5,-120.5"/>
<text text-anchor="middle" x="136" y="-128.5" font-family="Helvetica,sans-Serif" font-size="10.00">fft::find_plan</text>
</a>
</g>
<!-- Node1&#45;&gt;Node2 -->
<g id="edge2" class="edge"><title>Node1&#45;&gt;Node2</title>
<path fill="none" stroke="midnightblue" d="M74.3046,-131C82.9138,-131 91.8907,-131 100.245,-131"/>
<polygon fill="midnightblue" stroke="midnightblue" points="74.0521,-127.5 64.052,-131 74.052,-134.5 74.0521,-127.5"/>
</g>
<!-- Node3 -->
<g id="node5" class="node"><title>Node3</title>
<a xlink:href="../../d8/de0/namespacefft.html#ace866b5e38da8e32910f39bc63eb91e9" target="_top" xlink:title="fft::fft">
<polygon fill="white" stroke="black" points="210.5,-180.5 210.5,-201.5 251.5,-201.5 251.5,-180.5 210.5,-180.5"/>
<text text-anchor="middle" x="231" y="-188.5" font-family="Helvetica,sans-Serif" font-size="10.00">fft::fft</text>
</a>
</g>
<!-- Node2&#45;&gt;Node3 -->
<g id="edge4" class="edge"><title>Node2&#45;&gt;Node3</title>
<path fill="none" stroke="midnightblue" d="M161.703,-147.234C178.374,-157.762 199.618,-171.18 214.163,-180.366"/>
<polygon fill="midnightblue" stroke="midnightblue" points="163.308,-144.108 152.984,-141.727 159.57,-150.026 163.308,-144.108"/>
</g>
<!-- Node7 -->
<g id="node13" class="node"><title>Node7</title>
<a xlink:href="../../d8/de0/namespacefft.html#abf17de86632e9d1624635de461dbcd4f" target="_top" xlink:title="fft::ifft">
<polygon fill="white" stroke="black" points="209.5,-140.5 209.5,-161.5 252.5,-161.5 252.5,-140.5 209.5,-140.5"/>
<text text-anchor="middle" x="231" y="-148.5" font-family="Helvetica,sans-Serif" font-size="10.00">fft::ifft</text>
</a>
</g>
<!-- Node2&#45;&gt;Node7 -->
<g id="edge12" class="edge"><title>Node2&#45;&gt;Node7</title>
<path fill="none" stroke="midnightblue" d="M181.59,-140.598C191.233,-142.628 200.982,-144.68 209.242,-146.419"/>
<polygon fill="midnightblue" stroke="midnightblue" points="182.151,-137.139 171.645,-138.504 180.709,-143.989 182.151,-137.139"/>
</g>
<!-- Node8 -->
<g id="node16" class="node"><title>Node8</title>
<a xlink:href="../../d8/de0/namespacefft.html#a7870786fb204fa75feedfb6eeadbd788" target="_top" xlink:title="fft::irfft">
<polygon fill="white" stroke="black" points="208,-57.5 208,-78.5 254,-78.5 254,-57.5 208,-57.5"/>
<text text-anchor="middle" x="231" y="-65.5" font-family="Helvetica,sans-Serif" font-size="10.00">fft::irfft</text>
</a>
</g>
<!-- Node2&#45;&gt;Node8 -->
<g id="edge16" class="edge"><title>Node2&#45;&gt;Node8</title>
<path fill="none" stroke="midnightblue" d="M160.56,-114.713C177.758,-103.308 200.237,-88.4011 215.123,-78.5293"/>
<polygon fill="midnightblue" stroke="midnightblue" points="158.515,-111.869 152.115,-120.313 162.384,-117.703 158.515,-111.869"/>
</g>
<!-- Node14 -->
<g id="node29" class="node"><title>Node14</title>
<a xlink:href="../../d8/de0/namespacefft.html#a789573d204d06c288f6b74c45cd92137" target="_top" xlink:title="fft::rfft">
<polygon fill="white" stroke="black" points="209,-100.5 209,-121.5 253,-121.5 253,-100.5 209,-100.5"/>
<text text-anchor="middle" x="231" y="-108.5" font-family="Helvetica,sans-Serif" font-size="10.00">fft::rfft</text>
</a>
</g>
<!-- Node2&#45;&gt;Node14 -->
<g id="edge30" class="edge"><title>Node2&#45;&gt;Node14</title>
<path fill="none" stroke="midnightblue" d="M181.506,-121.42C191.068,-119.407 200.739,-117.371 208.964,-115.639"/>
<polygon fill="midnightblue" stroke="midnightblue" points="180.709,-118.011 171.645,-123.496 182.151,-124.861 180.709,-118.011"/>
</g>
<!-- Node4 -->
<g id="node7" class="node"><title>Node4</title>
<a xlink:href="../../da/dd4/classPhaseNoise.html#a5b9bb8a443851f55cd0845608c35112f" target="_top" xlink:title="PhaseNoise::spectrum\l_to_phase_noise">
<polygon fill="white" stroke="black" points="304,-148 304,-182 420,-182 420,-148 304,-148"/>
<text text-anchor="start" x="312" y="-169" font-family="Helvetica,sans-Serif" font-size="10.00">PhaseNoise::spectrum</text>
<text text-anchor="middle" x="362" y="-156" font-family="Helvetica,sans-Serif" font-size="10.00">_to_phase_noise</text>
</a>
</g>
<!-- Node3&#45;&gt;Node4 -->
<g id="edge6" class="edge"><title>Node3&#45;&gt;Node4</title>
<path fill="none" stroke="midnightblue" d="M261.684,-184.91C274.251,-182.416 289.229,-179.443 303.729,-176.565"/>
<polygon fill="midnightblue" stroke="midnightblue" points="260.885,-181.5 251.757,-186.88 262.247,-188.366 260.885,-181.5"/>
</g>
<!-- Node5 -->
<g id="node9" class="node"><title>Node5</title>
<a xlink:href="../../d5/d73/classLHCFlatSpectrum.html#a2c1a3a410f3213af74e4839aaa560e80" target="_top" xlink:title="LHCFlatSpectrum::generate">
<polygon fill="white" stroke="black" points="472.5,-178.5 472.5,-199.5 611.5,-199.5 611.5,-178.5 472.5,-178.5"/>
<text text-anchor="middle" x="542" y="-186.5" font-family="Helvetica,sans-Serif" font-size="10.00">LHCFlatSpectrum::generate</text>
</a>
</g>
<!-- Node4&#45;&gt;Node5 -->
<g id="edge8" class="edge"><title>Node4&#45;&gt;Node5</title>
<path fill="none" stroke="midnightblue" d="M430.691,-174.159C444.3,-175.973 458.599,-177.88 472.243,-179.699"/>
<polygon fill="midnightblue" stroke="midnightblue" points="430.816,-170.645 420.441,-172.792 429.891,-177.583 430.816,-170.645"/>
</g>
<!-- Node6 -->
<g id="node11" class="node"><title>Node6</title>
<a xlink:href="../../db/d7b/classPSBPhaseNoiseInjection.html#a0afaaacc5c71047473edfcf7613f6f6f" target="_top" xlink:title="PSBPhaseNoiseInjection\l::generate">
<polygon fill="white" stroke="black" points="478.5,-126 478.5,-160 605.5,-160 605.5,-126 478.5,-126"/>
<text text-anchor="start" x="486.5" y="-147" font-family="Helvetica,sans-Serif" font-size="10.00">PSBPhaseNoiseInjection</text>
<text text-anchor="middle" x="542" y="-134" font-family="Helvetica,sans-Serif" font-size="10.00">::generate</text>
</a>
</g>
<!-- Node4&#45;&gt;Node6 -->
<g id="edge10" class="edge"><title>Node4&#45;&gt;Node6</title>
<path fill="none" stroke="midnightblue" d="M430.577,-156.618C446.235,-154.705 462.812,-152.679 478.258,-150.791"/>
<polygon fill="midnightblue" stroke="midnightblue" points="429.942,-153.17 420.441,-157.857 430.792,-160.118 429.942,-153.17"/>
</g>
<!-- Node7&#45;&gt;Node4 -->
<g id="edge14" class="edge"><title>Node7&#45;&gt;Node4</title>
<path fill="none" stroke="midnightblue" d="M262.863,-154.405C275.224,-155.726 289.778,-157.282 303.871,-158.788"/>
<polygon fill="midnightblue" stroke="midnightblue" points="262.947,-150.894 252.632,-153.312 262.203,-157.855 262.947,-150.894"/>
</g>
<!-- Node8&#45;&gt;Node4 -->
<g id="edge28" class="edge"><title>Node8&#45;&gt;Node4</title>
<path fill="none" stroke="midnightblue" d="M249.812,-86.3608C251.256,-87.9055 252.668,-89.4642 254,-91 271.472,-111.145 268.562,-123.141 290,-139 294.487,-142.32 299.44,-145.25 304.585,-147.829"/>
<polygon fill="midnightblue" stroke="midnightblue" points="252.047,-83.6396 242.56,-78.9233 247.036,-88.5265 252.047,-83.6396"/>
</g>
<!-- Node9 -->
<g id="node18" class="node"><title>Node9</title>
<a xlink:href="../../d8/de0/namespacefft.html#acfc0c7a2bf86a2515926f3b0284732c8" target="_top" xlink:title="fft::convolution_with_ffts">
<polygon fill="white" stroke="black" points="300,-56.5 300,-77.5 424,-77.5 424,-56.5 300,-56.5"/>
<text text-anchor="middle" x="362" y="-64.5" font-family="Helvetica,sans-Serif" font-size="10.00">fft::convolution_with_ffts</text>
</a>
</g>
<!-- Node8&#45;&gt;Node9 -->
<g id="edge18" class="edge"><title>Node8&#45;&gt;Node9</title>
<path fill="none" stroke="midnightblue" d="M264.348,-67.7454C275.159,-67.6629 287.524,-67.5685 299.739,-67.4753"/>
<polygon fill="midnightblue" stroke="midnightblue" points="264.092,-64.2472 254.119,-67.8235 264.145,-71.247 264.092,-64.2472"/>
</g>
<!-- Node12 -->
<g id="node24" class="node"><title>Node12</title>
<a xlink:href="../../d5/de7/classInducedVoltageFreq.html#a1e5148ba1149372dc16509ca858ab4d3" target="_top" xlink:title="InducedVoltageFreq\l::induced_voltage_generation">
<polygon fill="white" stroke="black" points="290.5,-3 290.5,-37 433.5,-37 433.5,-3 290.5,-3"/>
<text text-anchor="start" x="298.5" y="-24" font-family="Helvetica,sans-Serif" font-size="10.00">InducedVoltageFreq</text>
<text text-anchor="middle" x="362" y="-11" font-family="Helvetica,sans-Serif" font-size="10.00">::induced_voltage_generation</text>
</a>
</g>
<!-- Node8&#45;&gt;Node12 -->
<g id="edge24" class="edge"><title>Node8&#45;&gt;Node12</title>
<path fill="none" stroke="midnightblue" d="M263.854,-55.9618C279.483,-50.2353 298.443,-43.2882 315.515,-37.0325"/>
<polygon fill="midnightblue" stroke="midnightblue" points="262.304,-52.8022 254.119,-59.5291 264.712,-59.3749 262.304,-52.8022"/>
</g>
<!-- Node10 -->
<g id="node20" class="node"><title>Node10</title>
<a xlink:href="../../d0/d6b/classInducedVoltageTime.html#ada28e04191e2d2933ba9e3820e61d5c2" target="_top" xlink:title="InducedVoltageTime\l::induced_voltage_generation">
<polygon fill="white" stroke="black" points="470.5,-52 470.5,-86 613.5,-86 613.5,-52 470.5,-52"/>
<text text-anchor="start" x="478.5" y="-73" font-family="Helvetica,sans-Serif" font-size="10.00">InducedVoltageTime</text>
<text text-anchor="middle" x="542" y="-60" font-family="Helvetica,sans-Serif" font-size="10.00">::induced_voltage_generation</text>
</a>
</g>
<!-- Node9&#45;&gt;Node10 -->
<g id="edge20" class="edge"><title>Node9&#45;&gt;Node10</title>
<path fill="none" stroke="midnightblue" d="M434.432,-67.8048C446.226,-67.9358 458.438,-68.0715 470.216,-68.2024"/>
<polygon fill="midnightblue" stroke="midnightblue" points="434.236,-64.3025 424.198,-67.6911 434.158,-71.3021 434.236,-64.3025"/>
</g>
<!-- Node11 -->
<g id="node22" class="node"><title>Node11</title>
<a xlink:href="../../d0/d6b/classInducedVoltageTime.html#a63d40bebb86206cd65c7d448e65a87a8" target="_top" xlink:title="InducedVoltageTime\l::track">
<polygon fill="white" stroke="black" points="650,-52 650,-86 756,-86 756,-52 650,-52"/>
<text text-anchor="start" x="658" y="-73" font-family="Helvetica,sans-Serif" font-size="10.00">InducedVoltageTime</text>
<text text-anchor="middle" x="703" y="-60" font-family="Helvetica,sans-Serif" font-size="10.00">::track</text>
</a>
</g>
<!-- Node10&#45;&gt;Node11 -->
<g id="edge22" class="edge"><title>Node10&#45;&gt;Node11</title>
<path fill="none" stroke="midnightblue" d="M623.798,-69C632.538,-69 641.257,-69 649.543,-69"/>
<polygon fill="midnightblue" stroke="midnightblue" points="623.555,-65.5001 613.555,-69 623.555,-72.5001 623.555,-65.5001"/>
</g>
<!-- Node13 -->
<g id="node26" class="node"><title>Node13</title>
<a xlink:href="../../d5/de7/classInducedVoltageFreq.html#acc7f20769421b46ad8fcf1518f642548" target="_top" xlink:title="InducedVoltageFreq\l::track">
<polygon fill="white" stroke="black" points="490,-0 490,-34 594,-34 594,-0 490,-0"/>
<text text-anchor="start" x="498" y="-21" font-family="Helvetica,sans-Serif" font-size="10.00">InducedVoltageFreq</text>
<text text-anchor="middle" x="542" y="-8" font-family="Helvetica,sans-Serif" font-size="10.00">::track</text>
</a>
</g>
<!-- Node12&#45;&gt;Node13 -->
<g id="edge26" class="edge"><title>Node12&#45;&gt;Node13</title>
<path fill="none" stroke="midnightblue" d="M443.893,-18.6351C459.572,-18.3738 475.581,-18.107 489.997,-17.8667"/>
<polygon fill="midnightblue" stroke="midnightblue" points="443.598,-15.1394 433.658,-18.8057 443.715,-22.1385 443.598,-15.1394"/>
</g>
<!-- Node14&#45;&gt;Node4 -->
<g id="edge34" class="edge"><title>Node14&#45;&gt;Node4</title>
<path fill="none" stroke="midnightblue" d="M261.203,-126.021C270.37,-130.393 280.524,-135.051 290,-139 297.238,-142.016 304.964,-145.023 312.569,-147.865"/>
<polygon fill="midnightblue" stroke="midnightblue" points="262.604,-122.811 252.078,-121.61 259.558,-129.113 262.604,-122.811"/>
</g>
<!-- Node14&#45;&gt;Node9 -->
<g id="edge32" class="edge"><title>Node14&#45;&gt;Node9</title>
<path fill="none" stroke="midnightblue" d="M262.672,-97.3332C271.447,-93.7621 281.027,-90.0599 290,-87 299.946,-83.6083 310.806,-80.3607 321.006,-77.5055"/>
<polygon fill="midnightblue" stroke="midnightblue" points="261.08,-94.2044 253.184,-101.268 263.761,-100.67 261.08,-94.2044"/>
</g>
<!-- Node15 -->
<g id="node33" class="node"><title>Node15</title>
<a xlink:href="../../dc/d45/classSlices.html#a77b0f27dab45e9f789d5725b1d660673" target="_top" xlink:title="Slices::beam_spectrum\l_generation">
<polygon fill="white" stroke="black" points="302.5,-96 302.5,-130 421.5,-130 421.5,-96 302.5,-96"/>
<text text-anchor="start" x="310.5" y="-117" font-family="Helvetica,sans-Serif" font-size="10.00">Slices::beam_spectrum</text>
<text text-anchor="middle" x="362" y="-104" font-family="Helvetica,sans-Serif" font-size="10.00">_generation</text>
</a>
</g>
<!-- Node14&#45;&gt;Node15 -->
<g id="edge36" class="edge"><title>Node14&#45;&gt;Node15</title>
<path fill="none" stroke="midnightblue" d="M263.444,-111.495C275.239,-111.675 288.971,-111.885 302.373,-112.09"/>
<polygon fill="midnightblue" stroke="midnightblue" points="263.275,-107.992 253.222,-111.339 263.168,-114.992 263.275,-107.992"/>
</g>
</g>
</svg>
        <g id="navigator" transform="translate(0 0)" fill="#404254">
                <rect fill="#f2f5e9" fill-opacity="0.5" stroke="#606060" stroke-width=".5" x="0" y="0" width="60" height="60"/>
                <use id="zoomplus" xlink:href="#zoomPlus" x="17" y="9" onmousedown="handleZoom(evt,'in')"/>
                <use id="zoomminus" xlink:href="#zoomMin" x="42" y="9" onmousedown="handleZoom(evt,'out')"/>
                <use id="reset" xlink:href="#resetDef" x="30" y="36" onmousedown="handleReset()"/>
                <g id="arrowUp" xlink:href="#dirArrow" transform="translate(30 24)" onmousedown="handlePan(0,-1)">
                  <use xlink:href="#rim" fill="#404040">
                        <set attributeName="fill" to="#808080" begin="arrowUp.mouseover" end="arrowUp.mouseout"/>
                  </use>
                  <path fill="none" stroke="white" stroke-width="1.5" d="M0,-3.0v7 M-2.5,-0.5L0,-3.0L2.5,-0.5"/>
                </g>
                <g id="arrowRight" xlink:href="#dirArrow" transform="rotate(90) translate(36 -43)" onmousedown="handlePan(1,0)">
                  <use xlink:href="#rim" fill="#404040">
                        <set attributeName="fill" to="#808080" begin="arrowRight.mouseover" end="arrowRight.mouseout"/>
                  </use>
                  <path fill="none" stroke="white" stroke-width="1.5" d="M0,-3.0v7 M-2.5,-0.5L0,-3.0L2.5,-0.5"/>
                </g>
                <g id="arrowDown" xlink:href="#dirArrow" transform="rotate(180) translate(-30 -48)" onmousedown="handlePan(0,1)">
                  <use xlink:href="#rim" fill="#404040">
                        <set attributeName="fill" to="#808080" begin="arrowDown.mouseover" end="arrowDown.mouseout"/>
                  </use>
                  <path fill="none" stroke="white" stroke-width="1.5" d="M0,-3.0v7 M-2.5,-0.5L0,-3.0L2.5,-0.5"/>
                </g>
                <g id="arrowLeft" xlink:href="#dirArrow" transform="rotate(270) translate(-36 17)" onmousedown="handlePan(-1,0)">
                  <use xlink:href="#rim" fill="#404040">
                        <set attributeName="fill" to="#808080" begin="arrowLeft.mouseover" end="arrowLeft.mouseout"/>
                  </use>
                  <path fill="none" stroke="white" stroke-width="1.5" d="M0,-3.0v7 M-2.5,-0.5L0,-3.0L2.5,-0.5"/>
                </g>
        </g>
        <svg viewBox="0 0 15 15" width="100%" height="30px" preserveAspectRatio="xMaxYMin meet">
         <g id="arrow_out" transform="scale(0.3 0.3)">
          <a xlink:href="namespacefft_a88d4a20e5d9813ff03802c42ff5b944c_icgraph_org.svg" target="_base">
           <rect id="button" ry="5" rx="5" y="6" x="6" height="38" width="38"
                fill="#f2f5e9" fill-opacity="0.5" stroke="#606060" stroke-width="1.0"/>
           <path id="arrow"
             d="M 11.500037,31.436501 C 11.940474,20.09759 22.043105,11.32322 32.158766,21.979434 L 37.068811,17.246167 C 37.068811,17.246167 37.088388,32 37.088388,32 L 22.160133,31.978069 C 22.160133,31.978069 26.997745,27.140456 26.997745,27.140456 C 18.528582,18.264221 13.291696,25.230495 11.500037,31.436501 z"
             style="fill:#404040;"/>
          </a>
         </g>
        </svg>
</svg>
