<?xml version="1.0" encoding="UTF-8" standalone="no"?>
<!DOCTYPE svg PUBLIC "-//W3C//DTD SVG 1.1//EN"
 "http://www.w3.org/Graphics/SVG/1.1/DTD/svg11.dtd">
<!-- Generated by graphviz version 2.26.3 (20100126.1600)
 -->
<!-- Title: fft::irfft Pages: 1 -->
<svg width="374pt" height="110pt"
 viewBox="0.00 0.00 374.00 110.00" xmlns="http://www.w3.org/2000/svg" xmlns:xlink="http://www.w3.org/1999/xlink">
<g id="graph1" class="graph" transform="scale(1 1) rotate(0) translate(4 106)">
<title>fft::irfft</title>
<polygon fill="white" stroke="white" points="-4,5 -4,-106 371,-106 371,5 -4,5"/>
<!-- Node1 -->
<g id="node1" class="node"><title>Node1</title>
<polygon fill="#bfbfbf" stroke="black" points="0,-20.5 0,-41.5 46,-41.5 46,-20.5 0,-20.5"/>
<text text-anchor="middle" x="23" y="-28.5" font-family="Helvetica,sans-Serif" font-size="10.00">fft::irfft</text>
</g>
<!-- Node2 -->
<g id="node3" class="node"><title>Node2</title>
<a xlink:href="../../d8/de0/namespacefft.html#af7197252dd2a265bd53282a343582d02" target="_top" xlink:title="fft::find_plan">
<polygon fill="white" stroke="black" points="82.5,-40.5 82.5,-61.5 153.5,-61.5 153.5,-40.5 82.5,-40.5"/>
<text text-anchor="middle" x="118" y="-48.5" font-family="Helvetica,sans-Serif" font-size="10.00">fft::find_plan</text>
</a>
</g>
<!-- Node1&#45;&gt;Node2 -->
<g id="edge2" class="edge"><title>Node1&#45;&gt;Node2</title>
<path fill="none" stroke="midnightblue" d="M46.4832,-35.9438C54.3078,-37.5911 63.3123,-39.4868 72.2351,-41.3653"/>
<polygon fill="midnightblue" stroke="midnightblue" points="71.7007,-44.8294 82.2073,-43.4647 73.1428,-37.9796 71.7007,-44.8294"/>
</g>
<!-- Node7 -->
<g id="node13" class="node"><title>Node7</title>
<a xlink:href="../../d8/de0/namespacefft.html#a032995ee545c6cd17120d4478fcb25b5" target="_top" xlink:title="fft::run_fft">
<polygon fill="white" stroke="black" points="88.5,-0.5 88.5,-21.5 147.5,-21.5 147.5,-0.5 88.5,-0.5"/>
<text text-anchor="middle" x="118" y="-8.5" font-family="Helvetica,sans-Serif" font-size="10.00">fft::run_fft</text>
</a>
</g>
<!-- Node1&#45;&gt;Node7 -->
<g id="edge12" class="edge"><title>Node1&#45;&gt;Node7</title>
<path fill="none" stroke="midnightblue" d="M46.4832,-26.0562C56.06,-24.04 67.4045,-21.6517 78.2032,-19.3783"/>
<polygon fill="midnightblue" stroke="midnightblue" points="79.2495,-22.7348 88.3139,-17.2497 77.8073,-15.885 79.2495,-22.7348"/>
</g>
<!-- Node3 -->
<g id="node5" class="node"><title>Node3</title>
<a xlink:href="../../d8/de0/namespacefft.html#abb6f84e834ac2b3b2b1da535a152bcbb" target="_top" xlink:title="fft::init_fft">
<polygon fill="white" stroke="black" points="192.5,-80.5 192.5,-101.5 251.5,-101.5 251.5,-80.5 192.5,-80.5"/>
<text text-anchor="middle" x="222" y="-88.5" font-family="Helvetica,sans-Serif" font-size="10.00">fft::init_fft</text>
</a>
</g>
<!-- Node2&#45;&gt;Node3 -->
<g id="edge4" class="edge"><title>Node2&#45;&gt;Node3</title>
<path fill="none" stroke="midnightblue" d="M145.325,-61.5095C157.41,-66.1578 171.81,-71.6963 184.851,-76.7118"/>
<polygon fill="midnightblue" stroke="midnightblue" points="183.907,-80.0986 194.497,-80.4218 186.42,-73.5652 183.907,-80.0986"/>
</g>
<!-- Node5 -->
<g id="node9" class="node"><title>Node5</title>
<a xlink:href="../../d8/de0/namespacefft.html#a88d4a20e5d9813ff03802c42ff5b944c" target="_top" xlink:title="fft::init_irfft">
<polygon fill="white" stroke="black" points="190,-40.5 190,-61.5 254,-61.5 254,-40.5 190,-40.5"/>
<text text-anchor="middle" x="222" y="-48.5" font-family="Helvetica,sans-Serif" font-size="10.00">fft::init_irfft</text>
</a>
</g>
<!-- Node2&#45;&gt;Node5 -->
<g id="edge8" class="edge"><title>Node2&#45;&gt;Node5</title>
<path fill="none" stroke="midnightblue" d="M153.5,-51C161.959,-51 171.067,-51 179.794,-51"/>
<polygon fill="midnightblue" stroke="midnightblue" points="179.802,-54.5001 189.802,-51 179.802,-47.5001 179.802,-54.5001"/>
</g>
<!-- Node6 -->
<g id="node11" class="node"><title>Node6</title>
<a xlink:href="../../d8/de0/namespacefft.html#aabee360fd4b67414d2f0edca8253ecf2" target="_top" xlink:title="fft::init_rfft">
<polygon fill="white" stroke="black" points="191,-0.5 191,-21.5 253,-21.5 253,-0.5 191,-0.5"/>
<text text-anchor="middle" x="222" y="-8.5" font-family="Helvetica,sans-Serif" font-size="10.00">fft::init_rfft</text>
</a>
</g>
<!-- Node2&#45;&gt;Node6 -->
<g id="edge10" class="edge"><title>Node2&#45;&gt;Node6</title>
<path fill="none" stroke="midnightblue" d="M145.325,-40.4905C157.41,-35.8422 171.81,-30.3037 184.851,-25.2882"/>
<polygon fill="midnightblue" stroke="midnightblue" points="186.42,-28.4348 194.497,-21.5782 183.907,-21.9014 186.42,-28.4348"/>
</g>
<!-- Node4 -->
<g id="node7" class="node"><title>Node4</title>
<a xlink:href="../../df/d6d/namespacemymath.html#ad7df5693cd882f31037d7533f5f77bbe" target="_top" xlink:title="mymath::sign">
<polygon fill="white" stroke="black" points="290,-80.5 290,-101.5 366,-101.5 366,-80.5 290,-80.5"/>
<text text-anchor="middle" x="328" y="-88.5" font-family="Helvetica,sans-Serif" font-size="10.00">mymath::sign</text>
</a>
</g>
<!-- Node3&#45;&gt;Node4 -->
<g id="edge6" class="edge"><title>Node3&#45;&gt;Node4</title>
<path fill="none" stroke="midnightblue" d="M251.527,-91C260.254,-91 270.046,-91 279.634,-91"/>
<polygon fill="midnightblue" stroke="midnightblue" points="279.898,-94.5001 289.898,-91 279.898,-87.5001 279.898,-94.5001"/>
</g>
</g>
</svg>
