<?xml version="1.0" encoding="UTF-8" standalone="no"?>
<!DOCTYPE svg PUBLIC "-//W3C//DTD SVG 1.1//EN"
 "http://www.w3.org/Graphics/SVG/1.1/DTD/svg11.dtd">
<!-- Generated by graphviz version 2.26.3 (20100126.1600)
 -->
<!-- Title: fft::rfft Pages: 1 -->
<!--zoomable 189 -->
<svg id="main" version="1.1" xmlns="http://www.w3.org/2000/svg" xmlns:xlink="http://www.w3.org/1999/xlink" xml:space="preserve" onload="init(evt)">
        <defs>
                <circle id="rim" cx="0" cy="0" r="7"/>
                <circle id="rim2" cx="0" cy="0" r="3.5"/>
                <g id="zoomPlus">
                        <use xlink:href="#rim" fill="#404040">
                                <set attributeName="fill" to="#808080" begin="zoomplus.mouseover" end="zoomplus.mouseout"/>
                        </use>
                        <path d="M-4,0h8M0,-4v8" fill="none" stroke="white" stroke-width="1.5" pointer-events="none"/>
                </g>
                <g id="zoomMin">
                        <use xlink:href="#rim" fill="#404040">
                                <set attributeName="fill" to="#808080" begin="zoomminus.mouseover" end="zoomminus.mouseout"/>
                        </use>
                        <path d="M-4,0h8" fill="none" stroke="white" stroke-width="1.5" pointer-events="none"/>
                </g>
                <g id="dirArrow">
                        <path fill="none" stroke="white" stroke-width="1.5" d="M0,-3.0v7 M-2.5,-0.5L0,-3.0L2.5,-0.5"/>
                </g>
               <g id="resetDef">
                       <use xlink:href="#rim2" fill="#404040">
                               <set attributeName="fill" to="#808080" begin="reset.mouseover" end="reset.mouseout"/>
                       </use>
               </g>
        </defs>

<script type="text/javascript">
var viewWidth = 530;
var viewHeight = 189;
var sectionId = 'dynsection-16';
</script>
<script xlink:href="../../svgpan.js"/>
<svg id="graph" class="graph">
<g id="viewport">
<title>fft::rfft</title>
<polygon fill="white" stroke="white" points="-4,5 -4,-185 527,-185 527,5 -4,5"/>
<!-- Node1 -->
<g id="node1" class="node"><title>Node1</title>
<polygon fill="#bfbfbf" stroke="black" points="0,-101.5 0,-122.5 44,-122.5 44,-101.5 0,-101.5"/>
<text text-anchor="middle" x="22" y="-109.5" font-family="Helvetica,sans-Serif" font-size="10.00">fft::rfft</text>
</g>
<!-- Node2 -->
<g id="node3" class="node"><title>Node2</title>
<a xlink:href="../../dc/d45/classSlices.html#a77b0f27dab45e9f789d5725b1d660673" target="_top" xlink:title="Slices::beam_spectrum\l_generation">
<polygon fill="white" stroke="black" points="80.5,-147 80.5,-181 199.5,-181 199.5,-147 80.5,-147"/>
<text text-anchor="start" x="88.5" y="-168" font-family="Helvetica,sans-Serif" font-size="10.00">Slices::beam_spectrum</text>
<text text-anchor="middle" x="140" y="-155" font-family="Helvetica,sans-Serif" font-size="10.00">_generation</text>
</a>
</g>
<!-- Node1&#45;&gt;Node2 -->
<g id="edge2" class="edge"><title>Node1&#45;&gt;Node2</title>
<path fill="none" stroke="midnightblue" d="M53.3532,-126.141C61.9793,-130.008 71.343,-134.184 80,-138 86.5446,-140.885 93.5017,-143.924 100.272,-146.868"/>
<polygon fill="midnightblue" stroke="midnightblue" points="54.5606,-122.846 44.0044,-121.942 51.6924,-129.232 54.5606,-122.846"/>
</g>
<!-- Node3 -->
<g id="node5" class="node"><title>Node3</title>
<a xlink:href="../../df/d6d/namespacemymath.html#ad9a3bb795e12d3f347816837e628087b" target="_top" xlink:title="mymath::convolution\l_with_ffts">
<polygon fill="white" stroke="black" points="86.5,-95 86.5,-129 193.5,-129 193.5,-95 86.5,-95"/>
<text text-anchor="start" x="94.5" y="-116" font-family="Helvetica,sans-Serif" font-size="10.00">mymath::convolution</text>
<text text-anchor="middle" x="140" y="-103" font-family="Helvetica,sans-Serif" font-size="10.00">_with_ffts</text>
</a>
</g>
<!-- Node1&#45;&gt;Node3 -->
<g id="edge4" class="edge"><title>Node1&#45;&gt;Node3</title>
<path fill="none" stroke="midnightblue" d="M54.2965,-112C64.1235,-112 75.2031,-112 86.0531,-112"/>
<polygon fill="midnightblue" stroke="midnightblue" points="54.1949,-108.5 44.1949,-112 54.1949,-115.5 54.1949,-108.5"/>
</g>
<!-- Node6 -->
<g id="node11" class="node"><title>Node6</title>
<a xlink:href="../../da/dd4/classPhaseNoise.html#a5b9bb8a443851f55cd0845608c35112f" target="_top" xlink:title="PhaseNoise::spectrum\l_to_phase_noise">
<polygon fill="white" stroke="black" points="82,-43 82,-77 198,-77 198,-43 82,-43"/>
<text text-anchor="start" x="90" y="-64" font-family="Helvetica,sans-Serif" font-size="10.00">PhaseNoise::spectrum</text>
<text text-anchor="middle" x="140" y="-51" font-family="Helvetica,sans-Serif" font-size="10.00">_to_phase_noise</text>
</a>
</g>
<!-- Node1&#45;&gt;Node6 -->
<g id="edge10" class="edge"><title>Node1&#45;&gt;Node6</title>
<path fill="none" stroke="midnightblue" d="M53.3532,-97.8591C61.9793,-93.992 71.343,-89.8159 80,-86 86.5446,-83.1153 93.5017,-80.0757 100.272,-77.1323"/>
<polygon fill="midnightblue" stroke="midnightblue" points="51.6924,-94.7681 44.0044,-102.058 54.5606,-101.154 51.6924,-94.7681"/>
</g>
<!-- Node4 -->
<g id="node7" class="node"><title>Node4</title>
<a xlink:href="../../d0/d6b/classInducedVoltageTime.html#ada28e04191e2d2933ba9e3820e61d5c2" target="_top" xlink:title="InducedVoltageTime\l::induced_voltage_generation">
<polygon fill="white" stroke="black" points="236.5,-95 236.5,-129 379.5,-129 379.5,-95 236.5,-95"/>
<text text-anchor="start" x="244.5" y="-116" font-family="Helvetica,sans-Serif" font-size="10.00">InducedVoltageTime</text>
<text text-anchor="middle" x="308" y="-103" font-family="Helvetica,sans-Serif" font-size="10.00">::induced_voltage_generation</text>
</a>
</g>
<!-- Node3&#45;&gt;Node4 -->
<g id="edge6" class="edge"><title>Node3&#45;&gt;Node4</title>
<path fill="none" stroke="midnightblue" d="M203.718,-112C214.428,-112 225.605,-112 236.496,-112"/>
<polygon fill="midnightblue" stroke="midnightblue" points="203.618,-108.5 193.618,-112 203.618,-115.5 203.618,-108.5"/>
</g>
<!-- Node5 -->
<g id="node9" class="node"><title>Node5</title>
<a xlink:href="../../d0/d6b/classInducedVoltageTime.html#a63d40bebb86206cd65c7d448e65a87a8" target="_top" xlink:title="InducedVoltageTime\l::track">
<polygon fill="white" stroke="black" points="416,-95 416,-129 522,-129 522,-95 416,-95"/>
<text text-anchor="start" x="424" y="-116" font-family="Helvetica,sans-Serif" font-size="10.00">InducedVoltageTime</text>
<text text-anchor="middle" x="469" y="-103" font-family="Helvetica,sans-Serif" font-size="10.00">::track</text>
</a>
</g>
<!-- Node4&#45;&gt;Node5 -->
<g id="edge8" class="edge"><title>Node4&#45;&gt;Node5</title>
<path fill="none" stroke="midnightblue" d="M389.798,-112C398.538,-112 407.257,-112 415.543,-112"/>
<polygon fill="midnightblue" stroke="midnightblue" points="389.555,-108.5 379.555,-112 389.555,-115.5 389.555,-108.5"/>
</g>
<!-- Node7 -->
<g id="node13" class="node"><title>Node7</title>
<a xlink:href="../../d5/d73/classLHCFlatSpectrum.html#a2c1a3a410f3213af74e4839aaa560e80" target="_top" xlink:title="LHCFlatSpectrum::generate">
<polygon fill="white" stroke="black" points="238.5,-52.5 238.5,-73.5 377.5,-73.5 377.5,-52.5 238.5,-52.5"/>
<text text-anchor="middle" x="308" y="-60.5" font-family="Helvetica,sans-Serif" font-size="10.00">LHCFlatSpectrum::generate</text>
</a>
</g>
<!-- Node6&#45;&gt;Node7 -->
<g id="edge12" class="edge"><title>Node6&#45;&gt;Node7</title>
<path fill="none" stroke="midnightblue" d="M208.41,-61.2216C218.25,-61.3973 228.385,-61.5783 238.25,-61.7545"/>
<polygon fill="midnightblue" stroke="midnightblue" points="208.348,-57.72 198.287,-61.0408 208.223,-64.7189 208.348,-57.72"/>
</g>
<!-- Node8 -->
<g id="node15" class="node"><title>Node8</title>
<a xlink:href="../../db/d7b/classPSBPhaseNoiseInjection.html#a0afaaacc5c71047473edfcf7613f6f6f" target="_top" xlink:title="PSBPhaseNoiseInjection\l::generate">
<polygon fill="white" stroke="black" points="244.5,-0 244.5,-34 371.5,-34 371.5,-0 244.5,-0"/>
<text text-anchor="start" x="252.5" y="-21" font-family="Helvetica,sans-Serif" font-size="10.00">PSBPhaseNoiseInjection</text>
<text text-anchor="middle" x="308" y="-8" font-family="Helvetica,sans-Serif" font-size="10.00">::generate</text>
</a>
</g>
<!-- Node6&#45;&gt;Node8 -->
<g id="edge14" class="edge"><title>Node6&#45;&gt;Node8</title>
<path fill="none" stroke="midnightblue" d="M208.2,-42.5441C220.151,-39.485 232.546,-36.3127 244.368,-33.2869"/>
<polygon fill="midnightblue" stroke="midnightblue" points="207.107,-39.211 198.287,-45.0814 208.842,-45.9924 207.107,-39.211"/>
</g>
</g>
</svg>
        <g id="navigator" transform="translate(0 0)" fill="#404254">
                <rect fill="#f2f5e9" fill-opacity="0.5" stroke="#606060" stroke-width=".5" x="0" y="0" width="60" height="60"/>
                <use id="zoomplus" xlink:href="#zoomPlus" x="17" y="9" onmousedown="handleZoom(evt,'in')"/>
                <use id="zoomminus" xlink:href="#zoomMin" x="42" y="9" onmousedown="handleZoom(evt,'out')"/>
                <use id="reset" xlink:href="#resetDef" x="30" y="36" onmousedown="handleReset()"/>
                <g id="arrowUp" xlink:href="#dirArrow" transform="translate(30 24)" onmousedown="handlePan(0,-1)">
                  <use xlink:href="#rim" fill="#404040">
                        <set attributeName="fill" to="#808080" begin="arrowUp.mouseover" end="arrowUp.mouseout"/>
                  </use>
                  <path fill="none" stroke="white" stroke-width="1.5" d="M0,-3.0v7 M-2.5,-0.5L0,-3.0L2.5,-0.5"/>
                </g>
                <g id="arrowRight" xlink:href="#dirArrow" transform="rotate(90) translate(36 -43)" onmousedown="handlePan(1,0)">
                  <use xlink:href="#rim" fill="#404040">
                        <set attributeName="fill" to="#808080" begin="arrowRight.mouseover" end="arrowRight.mouseout"/>
                  </use>
                  <path fill="none" stroke="white" stroke-width="1.5" d="M0,-3.0v7 M-2.5,-0.5L0,-3.0L2.5,-0.5"/>
                </g>
                <g id="arrowDown" xlink:href="#dirArrow" transform="rotate(180) translate(-30 -48)" onmousedown="handlePan(0,1)">
                  <use xlink:href="#rim" fill="#404040">
                        <set attributeName="fill" to="#808080" begin="arrowDown.mouseover" end="arrowDown.mouseout"/>
                  </use>
                  <path fill="none" stroke="white" stroke-width="1.5" d="M0,-3.0v7 M-2.5,-0.5L0,-3.0L2.5,-0.5"/>
                </g>
                <g id="arrowLeft" xlink:href="#dirArrow" transform="rotate(270) translate(-36 17)" onmousedown="handlePan(-1,0)">
                  <use xlink:href="#rim" fill="#404040">
                        <set attributeName="fill" to="#808080" begin="arrowLeft.mouseover" end="arrowLeft.mouseout"/>
                  </use>
                  <path fill="none" stroke="white" stroke-width="1.5" d="M0,-3.0v7 M-2.5,-0.5L0,-3.0L2.5,-0.5"/>
                </g>
        </g>
        <svg viewBox="0 0 15 15" width="100%" height="30px" preserveAspectRatio="xMaxYMin meet">
         <g id="arrow_out" transform="scale(0.3 0.3)">
          <a xlink:href="namespacefft_a789573d204d06c288f6b74c45cd92137_icgraph_org.svg" target="_base">
           <rect id="button" ry="5" rx="5" y="6" x="6" height="38" width="38"
                fill="#f2f5e9" fill-opacity="0.5" stroke="#606060" stroke-width="1.0"/>
           <path id="arrow"
             d="M 11.500037,31.436501 C 11.940474,20.09759 22.043105,11.32322 32.158766,21.979434 L 37.068811,17.246167 C 37.068811,17.246167 37.088388,32 37.088388,32 L 22.160133,31.978069 C 22.160133,31.978069 26.997745,27.140456 26.997745,27.140456 C 18.528582,18.264221 13.291696,25.230495 11.500037,31.436501 z"
             style="fill:#404040;"/>
          </a>
         </g>
        </svg>
</svg>
