<?xml version="1.0" encoding="UTF-8" standalone="no"?>
<!DOCTYPE svg PUBLIC "-//W3C//DTD SVG 1.1//EN"
 "http://www.w3.org/Graphics/SVG/1.1/DTD/svg11.dtd">
<!-- Generated by graphviz version 2.26.3 (20100126.1600)
 -->
<!-- Title: fft::rfft Pages: 1 -->
<svg width="534pt" height="238pt"
 viewBox="0.00 0.00 534.00 238.00" xmlns="http://www.w3.org/2000/svg" xmlns:xlink="http://www.w3.org/1999/xlink">
<g id="graph1" class="graph" transform="scale(1 1) rotate(0) translate(4 234)">
<title>fft::rfft</title>
<polygon fill="white" stroke="white" points="-4,5 -4,-234 531,-234 531,5 -4,5"/>
<!-- Node1 -->
<g id="node1" class="node"><title>Node1</title>
<polygon fill="#bfbfbf" stroke="black" points="0,-98.5 0,-119.5 44,-119.5 44,-98.5 0,-98.5"/>
<text text-anchor="middle" x="22" y="-106.5" font-family="Helvetica,sans-Serif" font-size="10.00">fft::rfft</text>
</g>
<!-- Node2 -->
<g id="node3" class="node"><title>Node2</title>
<a xlink:href="../../dc/d45/classSlices.html#a2fbf7afb49412b0c6cbbcac5cca64ee4" target="_top" xlink:title="Slices::beam_spectrum\l_generation">
<polygon fill="white" stroke="black" points="82.5,-144 82.5,-178 201.5,-178 201.5,-144 82.5,-144"/>
<text text-anchor="start" x="90.5" y="-165" font-family="Helvetica,sans-Serif" font-size="10.00">Slices::beam_spectrum</text>
<text text-anchor="middle" x="142" y="-152" font-family="Helvetica,sans-Serif" font-size="10.00">_generation</text>
</a>
</g>
<!-- Node1&#45;&gt;Node2 -->
<g id="edge2" class="edge"><title>Node1&#45;&gt;Node2</title>
<path fill="none" stroke="midnightblue" d="M53.4013,-122.607C68.4663,-129.135 86.6711,-137.024 102.65,-143.949"/>
<polygon fill="midnightblue" stroke="midnightblue" points="54.5771,-119.302 44.0098,-118.538 51.7938,-125.725 54.5771,-119.302"/>
</g>
<!-- Node6 -->
<g id="node11" class="node"><title>Node6</title>
<a xlink:href="../../d8/de0/namespacefft.html#acfc0c7a2bf86a2515926f3b0284732c8" target="_top" xlink:title="fft::convolution_with_ffts">
<polygon fill="white" stroke="black" points="80,-98.5 80,-119.5 204,-119.5 204,-98.5 80,-98.5"/>
<text text-anchor="middle" x="142" y="-106.5" font-family="Helvetica,sans-Serif" font-size="10.00">fft::convolution_with_ffts</text>
</a>
</g>
<!-- Node1&#45;&gt;Node6 -->
<g id="edge10" class="edge"><title>Node1&#45;&gt;Node6</title>
<path fill="none" stroke="midnightblue" d="M54.2476,-109C62.1861,-109 70.9558,-109 79.7894,-109"/>
<polygon fill="midnightblue" stroke="midnightblue" points="54.0099,-105.5 44.0098,-109 54.0098,-112.5 54.0099,-105.5"/>
</g>
<!-- Node9 -->
<g id="node17" class="node"><title>Node9</title>
<a xlink:href="../../da/dd4/classPhaseNoise.html#a5b9bb8a443851f55cd0845608c35112f" target="_top" xlink:title="PhaseNoise::spectrum\l_to_phase_noise">
<polygon fill="white" stroke="black" points="84,-46 84,-80 200,-80 200,-46 84,-46"/>
<text text-anchor="start" x="92" y="-67" font-family="Helvetica,sans-Serif" font-size="10.00">PhaseNoise::spectrum</text>
<text text-anchor="middle" x="142" y="-54" font-family="Helvetica,sans-Serif" font-size="10.00">_to_phase_noise</text>
</a>
</g>
<!-- Node1&#45;&gt;Node9 -->
<g id="edge16" class="edge"><title>Node1&#45;&gt;Node9</title>
<path fill="none" stroke="midnightblue" d="M53.6756,-96.8577C67.0132,-91.745 82.7741,-85.7033 97.2631,-80.1491"/>
<polygon fill="midnightblue" stroke="midnightblue" points="52.0945,-93.7154 44.0098,-100.563 54.6001,-100.252 52.0945,-93.7154"/>
</g>
<!-- Node3 -->
<g id="node5" class="node"><title>Node3</title>
<a xlink:href="../../d5/de7/classInducedVoltageFreq.html#a0d32221f87feb031ad8db7524739cbb1" target="_top" xlink:title="InducedVoltageFreq\l::induced_voltage_generation">
<polygon fill="white" stroke="black" points="240.5,-196 240.5,-230 383.5,-230 383.5,-196 240.5,-196"/>
<text text-anchor="start" x="248.5" y="-217" font-family="Helvetica,sans-Serif" font-size="10.00">InducedVoltageFreq</text>
<text text-anchor="middle" x="312" y="-204" font-family="Helvetica,sans-Serif" font-size="10.00">::induced_voltage_generation</text>
</a>
</g>
<!-- Node2&#45;&gt;Node3 -->
<g id="edge4" class="edge"><title>Node2&#45;&gt;Node3</title>
<path fill="none" stroke="midnightblue" d="M207.522,-181.042C223.593,-185.958 240.646,-191.174 256.211,-195.935"/>
<polygon fill="midnightblue" stroke="midnightblue" points="208.251,-177.605 197.664,-178.027 206.203,-184.299 208.251,-177.605"/>
</g>
<!-- Node5 -->
<g id="node9" class="node"><title>Node5</title>
<a xlink:href="../../d5/de7/classInducedVoltageFreq.html#ae3727a320bc179d51b54be5721224c99" target="_top" xlink:title="InducedVoltageFreq\l::reprocess">
<polygon fill="white" stroke="black" points="260,-144 260,-178 364,-178 364,-144 260,-144"/>
<text text-anchor="start" x="268" y="-165" font-family="Helvetica,sans-Serif" font-size="10.00">InducedVoltageFreq</text>
<text text-anchor="middle" x="312" y="-152" font-family="Helvetica,sans-Serif" font-size="10.00">::reprocess</text>
</a>
</g>
<!-- Node2&#45;&gt;Node5 -->
<g id="edge8" class="edge"><title>Node2&#45;&gt;Node5</title>
<path fill="none" stroke="midnightblue" d="M212.291,-161C228.242,-161 244.906,-161 259.942,-161"/>
<polygon fill="midnightblue" stroke="midnightblue" points="211.936,-157.5 201.936,-161 211.936,-164.5 211.936,-157.5"/>
</g>
<!-- Node4 -->
<g id="node7" class="node"><title>Node4</title>
<a xlink:href="../../d5/de7/classInducedVoltageFreq.html#a93a0cc8269cbf89d0714e6f1513fa68a" target="_top" xlink:title="InducedVoltageFreq\l::track">
<polygon fill="white" stroke="black" points="421,-196 421,-230 525,-230 525,-196 421,-196"/>
<text text-anchor="start" x="429" y="-217" font-family="Helvetica,sans-Serif" font-size="10.00">InducedVoltageFreq</text>
<text text-anchor="middle" x="473" y="-204" font-family="Helvetica,sans-Serif" font-size="10.00">::track</text>
</a>
</g>
<!-- Node3&#45;&gt;Node4 -->
<g id="edge6" class="edge"><title>Node3&#45;&gt;Node4</title>
<path fill="none" stroke="midnightblue" d="M393.632,-213C402.934,-213 412.215,-213 420.98,-213"/>
<polygon fill="midnightblue" stroke="midnightblue" points="393.555,-209.5 383.555,-213 393.555,-216.5 393.555,-209.5"/>
</g>
<!-- Node7 -->
<g id="node13" class="node"><title>Node7</title>
<a xlink:href="../../d0/d6b/classInducedVoltageTime.html#a79450cec4f3620f9c0e16faa544d5491" target="_top" xlink:title="InducedVoltageTime\l::induced_voltage_generation">
<polygon fill="white" stroke="black" points="240.5,-92 240.5,-126 383.5,-126 383.5,-92 240.5,-92"/>
<text text-anchor="start" x="248.5" y="-113" font-family="Helvetica,sans-Serif" font-size="10.00">InducedVoltageTime</text>
<text text-anchor="middle" x="312" y="-100" font-family="Helvetica,sans-Serif" font-size="10.00">::induced_voltage_generation</text>
</a>
</g>
<!-- Node6&#45;&gt;Node7 -->
<g id="edge12" class="edge"><title>Node6&#45;&gt;Node7</title>
<path fill="none" stroke="midnightblue" d="M214.377,-109C223.018,-109 231.837,-109 240.467,-109"/>
<polygon fill="midnightblue" stroke="midnightblue" points="214.336,-105.5 204.336,-109 214.336,-112.5 214.336,-105.5"/>
</g>
<!-- Node8 -->
<g id="node15" class="node"><title>Node8</title>
<a xlink:href="../../d0/d6b/classInducedVoltageTime.html#af93ca939b9d7e240a346c89d791c30c8" target="_top" xlink:title="InducedVoltageTime\l::track">
<polygon fill="white" stroke="black" points="420,-92 420,-126 526,-126 526,-92 420,-92"/>
<text text-anchor="start" x="428" y="-113" font-family="Helvetica,sans-Serif" font-size="10.00">InducedVoltageTime</text>
<text text-anchor="middle" x="473" y="-100" font-family="Helvetica,sans-Serif" font-size="10.00">::track</text>
</a>
</g>
<!-- Node7&#45;&gt;Node8 -->
<g id="edge14" class="edge"><title>Node7&#45;&gt;Node8</title>
<path fill="none" stroke="midnightblue" d="M393.798,-109C402.538,-109 411.257,-109 419.543,-109"/>
<polygon fill="midnightblue" stroke="midnightblue" points="393.555,-105.5 383.555,-109 393.555,-112.5 393.555,-105.5"/>
</g>
<!-- Node10 -->
<g id="node19" class="node"><title>Node10</title>
<a xlink:href="../../d5/d73/classLHCFlatSpectrum.html#a2c1a3a410f3213af74e4839aaa560e80" target="_top" xlink:title="LHCFlatSpectrum::generate">
<polygon fill="white" stroke="black" points="242.5,-52.5 242.5,-73.5 381.5,-73.5 381.5,-52.5 242.5,-52.5"/>
<text text-anchor="middle" x="312" y="-60.5" font-family="Helvetica,sans-Serif" font-size="10.00">LHCFlatSpectrum::generate</text>
</a>
</g>
<!-- Node9&#45;&gt;Node10 -->
<g id="edge18" class="edge"><title>Node9&#45;&gt;Node10</title>
<path fill="none" stroke="midnightblue" d="M210.112,-63C220.771,-63 231.799,-63 242.489,-63"/>
<polygon fill="midnightblue" stroke="midnightblue" points="210.029,-59.5001 200.029,-63 210.029,-66.5001 210.029,-59.5001"/>
</g>
<!-- Node11 -->
<g id="node21" class="node"><title>Node11</title>
<a xlink:href="../../db/d7b/classPSBPhaseNoiseInjection.html#a0afaaacc5c71047473edfcf7613f6f6f" target="_top" xlink:title="PSBPhaseNoiseInjection\l::generate">
<polygon fill="white" stroke="black" points="248.5,-0 248.5,-34 375.5,-34 375.5,-0 248.5,-0"/>
<text text-anchor="start" x="256.5" y="-21" font-family="Helvetica,sans-Serif" font-size="10.00">PSBPhaseNoiseInjection</text>
<text text-anchor="middle" x="312" y="-8" font-family="Helvetica,sans-Serif" font-size="10.00">::generate</text>
</a>
</g>
<!-- Node9&#45;&gt;Node11 -->
<g id="edge20" class="edge"><title>Node9&#45;&gt;Node11</title>
<path fill="none" stroke="midnightblue" d="M209.792,-44.6564C222.727,-41.1561 236.218,-37.5057 248.996,-34.048"/>
<polygon fill="midnightblue" stroke="midnightblue" points="208.768,-41.3075 200.029,-47.2981 210.596,-48.0645 208.768,-41.3075"/>
</g>
</g>
</svg>
