<?xml version="1.0" encoding="UTF-8" standalone="no"?>
<!DOCTYPE svg PUBLIC "-//W3C//DTD SVG 1.1//EN"
 "http://www.w3.org/Graphics/SVG/1.1/DTD/svg11.dtd">
<!-- Generated by graphviz version 2.26.3 (20100126.1600)
 -->
<!-- Title: InducedVoltage.h Pages: 1 -->
<svg width="1391pt" height="580pt"
 viewBox="0.00 0.00 1391.00 580.00" xmlns="http://www.w3.org/2000/svg" xmlns:xlink="http://www.w3.org/1999/xlink">
<g id="graph1" class="graph" transform="scale(1 1) rotate(0) translate(4 576)">
<title>InducedVoltage.h</title>
<polygon fill="white" stroke="white" points="-4,5 -4,-576 1388,-576 1388,5 -4,5"/>
<!-- Node1 -->
<g id="node1" class="node"><title>Node1</title>
<polygon fill="#bfbfbf" stroke="black" points="1072,-550.5 1072,-571.5 1164,-571.5 1164,-550.5 1072,-550.5"/>
<text text-anchor="middle" x="1118" y="-558.5" font-family="Helvetica,sans-Serif" font-size="10.00">InducedVoltage.h</text>
</g>
<!-- Node2 -->
<g id="node3" class="node"><title>Node2</title>
<a xlink:href="../../d2/d2c/configuration_8h.html" target="_top" xlink:title="blond/configuration.h">
<polygon fill="white" stroke="black" points="1129.5,-116.5 1129.5,-137.5 1236.5,-137.5 1236.5,-116.5 1129.5,-116.5"/>
<text text-anchor="middle" x="1183" y="-124.5" font-family="Helvetica,sans-Serif" font-size="10.00">blond/configuration.h</text>
</a>
</g>
<!-- Node1&#45;&gt;Node2 -->
<g id="edge2" class="edge"><title>Node1&#45;&gt;Node2</title>
<path fill="none" stroke="midnightblue" d="M1164.16,-550.787C1240.08,-532.639 1383,-492.208 1383,-445 1383,-445 1383,-445 1383,-250 1383,-184.878 1305.11,-153.134 1246.55,-138.469"/>
<polygon fill="midnightblue" stroke="midnightblue" points="1247.14,-135.012 1236.6,-136.093 1245.51,-141.82 1247.14,-135.012"/>
</g>
<!-- Node4 -->
<g id="node7" class="node"><title>Node4</title>
<polygon fill="white" stroke="#bfbfbf" points="1080,-58.5 1080,-79.5 1124,-79.5 1124,-58.5 1080,-58.5"/>
<text text-anchor="middle" x="1102" y="-66.5" font-family="Helvetica,sans-Serif" font-size="10.00">vector</text>
</g>
<!-- Node1&#45;&gt;Node4 -->
<g id="edge120" class="edge"><title>Node1&#45;&gt;Node4</title>
<path fill="none" stroke="midnightblue" d="M1071.66,-558.336C869.035,-546.389 71,-496.093 71,-445 71,-445 71,-445 71,-250 71,-178.258 94.0469,-141.771 161,-116 247.184,-82.8264 913.587,-71.6061 1069.46,-69.4222"/>
<polygon fill="midnightblue" stroke="midnightblue" points="1069.84,-72.9175 1079.79,-69.2804 1069.74,-65.9182 1069.84,-72.9175"/>
</g>
<!-- Node5 -->
<g id="node9" class="node"><title>Node5</title>
<a xlink:href="../../d7/d74/Beams_8h.html" target="_top" xlink:title="blond/beams/Beams.h">
<polygon fill="white" stroke="black" points="858,-492.5 858,-513.5 972,-513.5 972,-492.5 858,-492.5"/>
<text text-anchor="middle" x="915" y="-500.5" font-family="Helvetica,sans-Serif" font-size="10.00">blond/beams/Beams.h</text>
</a>
</g>
<!-- Node1&#45;&gt;Node5 -->
<g id="edge8" class="edge"><title>Node1&#45;&gt;Node5</title>
<path fill="none" stroke="midnightblue" d="M1081.24,-550.497C1047.71,-540.918 998.018,-526.72 961.696,-516.342"/>
<polygon fill="midnightblue" stroke="midnightblue" points="962.408,-512.905 951.831,-513.523 960.484,-519.636 962.408,-512.905"/>
</g>
<!-- Node35 -->
<g id="node91" class="node"><title>Node35</title>
<a xlink:href="../../d6/d70/Intensity_8h.html" target="_top" xlink:title="blond/impedances/Intensity.h">
<polygon fill="white" stroke="black" points="1211,-239.5 1211,-260.5 1355,-260.5 1355,-239.5 1211,-239.5"/>
<text text-anchor="middle" x="1283" y="-247.5" font-family="Helvetica,sans-Serif" font-size="10.00">blond/impedances/Intensity.h</text>
</a>
</g>
<!-- Node1&#45;&gt;Node35 -->
<g id="edge112" class="edge"><title>Node1&#45;&gt;Node35</title>
<path fill="none" stroke="midnightblue" d="M1148.07,-550.374C1187.58,-534.262 1252,-499.616 1252,-445 1252,-445 1252,-445 1252,-387 1252,-344.777 1266.18,-296.999 1275.36,-270.495"/>
<polygon fill="midnightblue" stroke="midnightblue" points="1278.75,-271.416 1278.82,-260.821 1272.16,-269.059 1278.75,-271.416"/>
</g>
<!-- Node3 -->
<g id="node5" class="node"><title>Node3</title>
<polygon fill="white" stroke="#bfbfbf" points="1156.5,-58.5 1156.5,-79.5 1209.5,-79.5 1209.5,-58.5 1156.5,-58.5"/>
<text text-anchor="middle" x="1183" y="-66.5" font-family="Helvetica,sans-Serif" font-size="10.00">complex</text>
</g>
<!-- Node2&#45;&gt;Node3 -->
<g id="edge4" class="edge"><title>Node2&#45;&gt;Node3</title>
<path fill="none" stroke="midnightblue" d="M1183,-116.362C1183,-108.922 1183,-98.7427 1183,-89.7276"/>
<polygon fill="midnightblue" stroke="midnightblue" points="1186.5,-89.5706 1183,-79.5707 1179.5,-89.5707 1186.5,-89.5706"/>
</g>
<!-- Node2&#45;&gt;Node4 -->
<g id="edge6" class="edge"><title>Node2&#45;&gt;Node4</title>
<path fill="none" stroke="midnightblue" d="M1168.14,-116.362C1156.15,-107.777 1139.07,-95.5459 1125.27,-85.6636"/>
<polygon fill="midnightblue" stroke="midnightblue" points="1126.93,-82.5469 1116.76,-79.5707 1122.86,-88.2383 1126.93,-82.5469"/>
</g>
<!-- Node5&#45;&gt;Node2 -->
<g id="edge104" class="edge"><title>Node5&#45;&gt;Node2</title>
<path fill="none" stroke="midnightblue" d="M963.533,-492.447C1040.76,-474.235 1183,-434.277 1183,-387 1183,-387 1183,-387 1183,-250 1183,-214.052 1183,-172.195 1183,-147.745"/>
<polygon fill="midnightblue" stroke="midnightblue" points="1186.5,-147.53 1183,-137.53 1179.5,-147.53 1186.5,-147.53"/>
</g>
<!-- Node6 -->
<g id="node11" class="node"><title>Node6</title>
<a xlink:href="../../d5/d87/globals_8h.html" target="_top" xlink:title="blond/globals.h">
<polygon fill="white" stroke="black" points="913,-434.5 913,-455.5 995,-455.5 995,-434.5 913,-434.5"/>
<text text-anchor="middle" x="954" y="-442.5" font-family="Helvetica,sans-Serif" font-size="10.00">blond/globals.h</text>
</a>
</g>
<!-- Node5&#45;&gt;Node6 -->
<g id="edge10" class="edge"><title>Node5&#45;&gt;Node6</title>
<path fill="none" stroke="midnightblue" d="M916.789,-492.362C920.759,-484.35 927.953,-473.161 935.092,-463.67"/>
<polygon fill="midnightblue" stroke="midnightblue" points="938.05,-465.574 941.54,-455.571 932.573,-461.214 938.05,-465.574"/>
</g>
<!-- Node7 -->
<g id="node13" class="node"><title>Node7</title>
<a xlink:href="../../d5/d34/GeneralParameters_8h.html" target="_top" xlink:title="blond/input_parameters\l/GeneralParameters.h">
<polygon fill="white" stroke="black" points="887,-233 887,-267 1005,-267 1005,-233 887,-233"/>
<text text-anchor="start" x="895" y="-254" font-family="Helvetica,sans-Serif" font-size="10.00">blond/input_parameters</text>
<text text-anchor="middle" x="946" y="-241" font-family="Helvetica,sans-Serif" font-size="10.00">/GeneralParameters.h</text>
</a>
</g>
<!-- Node5&#45;&gt;Node7 -->
<g id="edge108" class="edge"><title>Node5&#45;&gt;Node7</title>
<path fill="none" stroke="midnightblue" d="M905.516,-492.418C879.092,-461.597 809.063,-369.912 848,-304 856.105,-290.28 869.078,-279.808 882.968,-271.911"/>
<polygon fill="midnightblue" stroke="midnightblue" points="884.949,-274.825 892.185,-267.086 881.703,-268.623 884.949,-274.825"/>
</g>
<!-- Node8 -->
<g id="node16" class="node"><title>Node8</title>
<a xlink:href="../../de/df0/utilities_8h.html" target="_top" xlink:title="blond/utilities.h">
<polygon fill="white" stroke="black" points="754,-174.5 754,-195.5 836,-195.5 836,-174.5 754,-174.5"/>
<text text-anchor="middle" x="795" y="-182.5" font-family="Helvetica,sans-Serif" font-size="10.00">blond/utilities.h</text>
</a>
</g>
<!-- Node5&#45;&gt;Node8 -->
<g id="edge106" class="edge"><title>Node5&#45;&gt;Node8</title>
<path fill="none" stroke="midnightblue" d="M888.703,-492.429C852.304,-475.854 791,-440.062 791,-387 791,-387 791,-387 791,-322 791,-280.775 792.832,-232.603 794.016,-205.767"/>
<polygon fill="midnightblue" stroke="midnightblue" points="797.518,-205.804 794.477,-195.655 790.525,-205.486 797.518,-205.804"/>
</g>
<!-- Node20 -->
<g id="node43" class="node"><title>Node20</title>
<a xlink:href="../../d6/db7/RfParameters_8h.html" target="_top" xlink:title="blond/input_parameters\l/RfParameters.h">
<polygon fill="white" stroke="black" points="857,-305 857,-339 975,-339 975,-305 857,-305"/>
<text text-anchor="start" x="865" y="-326" font-family="Helvetica,sans-Serif" font-size="10.00">blond/input_parameters</text>
<text text-anchor="middle" x="916" y="-313" font-family="Helvetica,sans-Serif" font-size="10.00">/RfParameters.h</text>
</a>
</g>
<!-- Node5&#45;&gt;Node20 -->
<g id="edge110" class="edge"><title>Node5&#45;&gt;Node20</title>
<path fill="none" stroke="midnightblue" d="M904.636,-492.297C900.065,-482.851 896.461,-468.654 895,-456 890.743,-419.129 896.394,-376.401 903.446,-349.294"/>
<polygon fill="midnightblue" stroke="midnightblue" points="906.899,-349.953 906.309,-339.375 900.173,-348.013 906.899,-349.953"/>
</g>
<!-- Node6&#45;&gt;Node5 -->
<g id="edge92" class="edge"><title>Node6&#45;&gt;Node5</title>
<path fill="none" stroke="midnightblue" d="M952.244,-455.571C948.252,-463.647 940.961,-474.979 933.749,-484.541"/>
<polygon fill="midnightblue" stroke="midnightblue" points="931.012,-482.36 927.517,-492.362 936.486,-486.722 931.012,-482.36"/>
</g>
<!-- Node6&#45;&gt;Node7 -->
<g id="edge12" class="edge"><title>Node6&#45;&gt;Node7</title>
<path fill="none" stroke="midnightblue" d="M995.296,-436.02C1030.46,-427.439 1076.99,-413.536 1088,-398 1093.66,-390.024 1088.94,-385.733 1088,-376 1084.87,-343.551 1094.54,-329.311 1074,-304 1065.03,-292.944 1037.1,-280.599 1009.61,-270.506"/>
<polygon fill="midnightblue" stroke="midnightblue" points="1010.53,-267.118 999.94,-267.035 1008.17,-273.707 1010.53,-267.118"/>
</g>
<!-- Node6&#45;&gt;Node20 -->
<g id="edge46" class="edge"><title>Node6&#45;&gt;Node20</title>
<path fill="none" stroke="midnightblue" d="M946.581,-434.085C937.826,-415.191 925.12,-375.862 918.688,-349.192"/>
<polygon fill="midnightblue" stroke="midnightblue" points="922.078,-348.314 916.482,-339.317 915.246,-349.84 922.078,-348.314"/>
</g>
<!-- Node33 -->
<g id="node80" class="node"><title>Node33</title>
<a xlink:href="../../dc/df2/Slices_8h.html" target="_top" xlink:title="blond/beams/Slices.h">
<polygon fill="white" stroke="black" points="969,-376.5 969,-397.5 1079,-397.5 1079,-376.5 969,-376.5"/>
<text text-anchor="middle" x="1024" y="-384.5" font-family="Helvetica,sans-Serif" font-size="10.00">blond/beams/Slices.h</text>
</a>
</g>
<!-- Node6&#45;&gt;Node33 -->
<g id="edge94" class="edge"><title>Node6&#45;&gt;Node33</title>
<path fill="none" stroke="midnightblue" d="M966.839,-434.362C977.002,-425.941 991.401,-414.011 1003.2,-404.231"/>
<polygon fill="midnightblue" stroke="midnightblue" points="1005.78,-406.646 1011.24,-397.571 1001.31,-401.256 1005.78,-406.646"/>
</g>
<!-- Node7&#45;&gt;Node2 -->
<g id="edge14" class="edge"><title>Node7&#45;&gt;Node2</title>
<path fill="none" stroke="midnightblue" d="M978.954,-232.897C1025.29,-208.852 1108.98,-165.418 1153.41,-142.355"/>
<polygon fill="midnightblue" stroke="midnightblue" points="1155.27,-145.336 1162.53,-137.623 1152.04,-139.123 1155.27,-145.336"/>
</g>
<!-- Node7&#45;&gt;Node4 -->
<g id="edge44" class="edge"><title>Node7&#45;&gt;Node4</title>
<path fill="none" stroke="midnightblue" d="M970.947,-232.972C998.706,-212.967 1043.4,-177.458 1072,-138 1082.75,-123.166 1090.73,-103.876 1095.74,-89.4646"/>
<polygon fill="midnightblue" stroke="midnightblue" points="1099.2,-90.1426 1098.99,-79.5498 1092.55,-87.9597 1099.2,-90.1426"/>
</g>
<!-- Node7&#45;&gt;Node8 -->
<g id="edge16" class="edge"><title>Node7&#45;&gt;Node8</title>
<path fill="none" stroke="midnightblue" d="M906.327,-232.922C882.319,-222.588 852.019,-209.545 829.094,-199.676"/>
<polygon fill="midnightblue" stroke="midnightblue" points="830.329,-196.397 819.76,-195.658 827.561,-202.827 830.329,-196.397"/>
</g>
<!-- Node8&#45;&gt;Node2 -->
<g id="edge40" class="edge"><title>Node8&#45;&gt;Node2</title>
<path fill="none" stroke="midnightblue" d="M836.155,-178.848C903.861,-168.727 1039.21,-148.495 1119.34,-136.516"/>
<polygon fill="midnightblue" stroke="midnightblue" points="1119.94,-139.965 1129.31,-135.025 1118.91,-133.042 1119.94,-139.965"/>
</g>
<!-- Node8&#45;&gt;Node4 -->
<g id="edge36" class="edge"><title>Node8&#45;&gt;Node4</title>
<path fill="none" stroke="midnightblue" d="M836.155,-180.695C897.71,-173.687 1010.25,-158.508 1045,-138 1065.06,-126.164 1081.17,-104.534 1091.08,-88.6357"/>
<polygon fill="midnightblue" stroke="midnightblue" points="1094.34,-90.0033 1096.43,-79.6167 1088.32,-86.4328 1094.34,-90.0033"/>
</g>
<!-- Node9 -->
<g id="node18" class="node"><title>Node9</title>
<polygon fill="white" stroke="#bfbfbf" points="868,-116.5 868,-137.5 914,-137.5 914,-116.5 868,-116.5"/>
<text text-anchor="middle" x="891" y="-124.5" font-family="Helvetica,sans-Serif" font-size="10.00">chrono</text>
</g>
<!-- Node8&#45;&gt;Node9 -->
<g id="edge18" class="edge"><title>Node8&#45;&gt;Node9</title>
<path fill="none" stroke="midnightblue" d="M812.608,-174.362C827.223,-165.532 848.224,-152.844 864.811,-142.822"/>
<polygon fill="midnightblue" stroke="midnightblue" points="866.754,-145.738 873.504,-137.571 863.135,-139.746 866.754,-145.738"/>
</g>
<!-- Node10 -->
<g id="node20" class="node"><title>Node10</title>
<polygon fill="white" stroke="#bfbfbf" points="931.5,-116.5 931.5,-137.5 974.5,-137.5 974.5,-116.5 931.5,-116.5"/>
<text text-anchor="middle" x="953" y="-124.5" font-family="Helvetica,sans-Serif" font-size="10.00">cstdio</text>
</g>
<!-- Node8&#45;&gt;Node10 -->
<g id="edge20" class="edge"><title>Node8&#45;&gt;Node10</title>
<path fill="none" stroke="midnightblue" d="M823.613,-174.497C851.296,-164.334 893.146,-148.972 921.703,-138.489"/>
<polygon fill="midnightblue" stroke="midnightblue" points="923.023,-141.733 931.204,-135.001 920.611,-135.161 923.023,-141.733"/>
</g>
<!-- Node11 -->
<g id="node22" class="node"><title>Node11</title>
<polygon fill="white" stroke="#bfbfbf" points="991.5,-116.5 991.5,-137.5 1036.5,-137.5 1036.5,-116.5 991.5,-116.5"/>
<text text-anchor="middle" x="1014" y="-124.5" font-family="Helvetica,sans-Serif" font-size="10.00">cstdlib</text>
</g>
<!-- Node8&#45;&gt;Node11 -->
<g id="edge22" class="edge"><title>Node8&#45;&gt;Node11</title>
<path fill="none" stroke="midnightblue" d="M836.016,-175.942C872.216,-167.682 926.565,-154.635 981.804,-138.191"/>
<polygon fill="midnightblue" stroke="midnightblue" points="982.83,-141.537 991.396,-135.303 980.812,-134.834 982.83,-141.537"/>
</g>
<!-- Node12 -->
<g id="node24" class="node"><title>Node12</title>
<polygon fill="white" stroke="#bfbfbf" points="266,-116.5 266,-137.5 316,-137.5 316,-116.5 266,-116.5"/>
<text text-anchor="middle" x="291" y="-124.5" font-family="Helvetica,sans-Serif" font-size="10.00">fstream</text>
</g>
<!-- Node8&#45;&gt;Node12 -->
<g id="edge24" class="edge"><title>Node8&#45;&gt;Node12</title>
<path fill="none" stroke="midnightblue" d="M753.747,-182.01C658.259,-174.912 423.37,-156.394 325.908,-137.756"/>
<polygon fill="midnightblue" stroke="midnightblue" points="326.584,-134.322 316.09,-135.777 325.201,-141.184 326.584,-134.322"/>
</g>
<!-- Node13 -->
<g id="node26" class="node"><title>Node13</title>
<polygon fill="white" stroke="#bfbfbf" points="334,-116.5 334,-137.5 388,-137.5 388,-116.5 334,-116.5"/>
<text text-anchor="middle" x="361" y="-124.5" font-family="Helvetica,sans-Serif" font-size="10.00">iostream</text>
</g>
<!-- Node8&#45;&gt;Node13 -->
<g id="edge26" class="edge"><title>Node8&#45;&gt;Node13</title>
<path fill="none" stroke="midnightblue" d="M753.93,-182.582C683.069,-177.885 533.241,-165.65 398.473,-138.024"/>
<polygon fill="midnightblue" stroke="midnightblue" points="398.889,-134.535 388.385,-135.921 397.461,-141.388 398.889,-134.535"/>
</g>
<!-- Node14 -->
<g id="node28" class="node"><title>Node14</title>
<polygon fill="white" stroke="#bfbfbf" points="405.5,-116.5 405.5,-137.5 452.5,-137.5 452.5,-116.5 405.5,-116.5"/>
<text text-anchor="middle" x="429" y="-124.5" font-family="Helvetica,sans-Serif" font-size="10.00">iterator</text>
</g>
<!-- Node8&#45;&gt;Node14 -->
<g id="edge28" class="edge"><title>Node8&#45;&gt;Node14</title>
<path fill="none" stroke="midnightblue" d="M753.911,-181.767C692.276,-176.364 572.219,-163.701 462.519,-138.041"/>
<polygon fill="midnightblue" stroke="midnightblue" points="463.155,-134.595 452.616,-135.682 461.533,-141.404 463.155,-134.595"/>
</g>
<!-- Node15 -->
<g id="node30" class="node"><title>Node15</title>
<polygon fill="white" stroke="#bfbfbf" points="470,-116.5 470,-137.5 522,-137.5 522,-116.5 470,-116.5"/>
<text text-anchor="middle" x="496" y="-124.5" font-family="Helvetica,sans-Serif" font-size="10.00">memory</text>
</g>
<!-- Node8&#45;&gt;Node15 -->
<g id="edge30" class="edge"><title>Node8&#45;&gt;Node15</title>
<path fill="none" stroke="midnightblue" d="M753.957,-179.362C703.737,-172.098 616.004,-158.225 532.204,-138.077"/>
<polygon fill="midnightblue" stroke="midnightblue" points="532.816,-134.624 522.271,-135.654 531.157,-141.424 532.816,-134.624"/>
</g>
<!-- Node16 -->
<g id="node32" class="node"><title>Node16</title>
<polygon fill="white" stroke="#bfbfbf" points="540,-116.5 540,-137.5 592,-137.5 592,-116.5 540,-116.5"/>
<text text-anchor="middle" x="566" y="-124.5" font-family="Helvetica,sans-Serif" font-size="10.00">sstream</text>
</g>
<!-- Node8&#45;&gt;Node16 -->
<g id="edge32" class="edge"><title>Node8&#45;&gt;Node16</title>
<path fill="none" stroke="midnightblue" d="M753.92,-175.887C716.589,-167.418 659.804,-154.071 601.981,-138.159"/>
<polygon fill="midnightblue" stroke="midnightblue" points="602.889,-134.779 592.317,-135.478 601.018,-141.524 602.889,-134.779"/>
</g>
<!-- Node17 -->
<g id="node34" class="node"><title>Node17</title>
<polygon fill="white" stroke="#bfbfbf" points="609.5,-116.5 609.5,-137.5 650.5,-137.5 650.5,-116.5 609.5,-116.5"/>
<text text-anchor="middle" x="630" y="-124.5" font-family="Helvetica,sans-Serif" font-size="10.00">string</text>
</g>
<!-- Node8&#45;&gt;Node17 -->
<g id="edge34" class="edge"><title>Node8&#45;&gt;Node17</title>
<path fill="none" stroke="midnightblue" d="M763.577,-174.437C737.948,-165.756 700.591,-152.955 660.086,-138.336"/>
<polygon fill="midnightblue" stroke="midnightblue" points="661.161,-135.003 650.567,-134.888 658.777,-141.585 661.161,-135.003"/>
</g>
<!-- Node18 -->
<g id="node37" class="node"><title>Node18</title>
<polygon fill="white" stroke="#bfbfbf" points="668,-116.5 668,-137.5 728,-137.5 728,-116.5 668,-116.5"/>
<text text-anchor="middle" x="698" y="-124.5" font-family="Helvetica,sans-Serif" font-size="10.00">sys/stat.h</text>
</g>
<!-- Node8&#45;&gt;Node18 -->
<g id="edge38" class="edge"><title>Node8&#45;&gt;Node18</title>
<path fill="none" stroke="midnightblue" d="M777.209,-174.362C762.441,-165.532 741.222,-152.844 724.462,-142.822"/>
<polygon fill="midnightblue" stroke="midnightblue" points="726.057,-139.699 715.679,-137.571 722.465,-145.707 726.057,-139.699"/>
</g>
<!-- Node19 -->
<g id="node40" class="node"><title>Node19</title>
<a xlink:href="../../da/d69/optionparser_8h.html" target="_top" xlink:title="This is the only file required to use The Lean Mean C++ Option Parser. Just #include it and you&#39;re se...">
<polygon fill="white" stroke="black" points="746,-116.5 746,-137.5 850,-137.5 850,-116.5 746,-116.5"/>
<text text-anchor="middle" x="798" y="-124.5" font-family="Helvetica,sans-Serif" font-size="10.00">blond/optionparser.h</text>
</a>
</g>
<!-- Node8&#45;&gt;Node19 -->
<g id="edge42" class="edge"><title>Node8&#45;&gt;Node19</title>
<path fill="none" stroke="midnightblue" d="M795.55,-174.362C795.935,-166.922 796.462,-156.743 796.928,-147.728"/>
<polygon fill="midnightblue" stroke="midnightblue" points="800.432,-147.738 797.453,-137.571 793.441,-147.376 800.432,-147.738"/>
</g>
<!-- Node20&#45;&gt;Node5 -->
<g id="edge48" class="edge"><title>Node20&#45;&gt;Node5</title>
<path fill="none" stroke="midnightblue" d="M918.052,-339.375C916.069,-364.954 908.178,-414.235 913,-456 914.004,-464.7 916.022,-474.128 917.446,-482.241"/>
<polygon fill="midnightblue" stroke="midnightblue" points="914.002,-482.886 918.868,-492.297 920.933,-481.905 914.002,-482.886"/>
</g>
<!-- Node20&#45;&gt;Node6 -->
<g id="edge90" class="edge"><title>Node20&#45;&gt;Node6</title>
<path fill="none" stroke="midnightblue" d="M926.218,-339.317C935.465,-361.541 947.49,-400.071 952.732,-423.959"/>
<polygon fill="midnightblue" stroke="midnightblue" points="949.353,-424.923 954.675,-434.085 956.228,-423.604 949.353,-424.923"/>
</g>
<!-- Node20&#45;&gt;Node7 -->
<g id="edge50" class="edge"><title>Node20&#45;&gt;Node7</title>
<path fill="none" stroke="midnightblue" d="M923.11,-304.937C926.607,-296.542 930.906,-286.227 934.829,-276.81"/>
<polygon fill="midnightblue" stroke="midnightblue" points="938.118,-278.018 938.733,-267.441 931.656,-275.325 938.118,-278.018"/>
</g>
<!-- Node21 -->
<g id="node47" class="node"><title>Node21</title>
<a xlink:href="../../d2/de2/math__functions_8h.html" target="_top" xlink:title="blond/math_functions.h">
<polygon fill="white" stroke="black" points="380,-239.5 380,-260.5 498,-260.5 498,-239.5 380,-239.5"/>
<text text-anchor="middle" x="439" y="-247.5" font-family="Helvetica,sans-Serif" font-size="10.00">blond/math_functions.h</text>
</a>
</g>
<!-- Node20&#45;&gt;Node21 -->
<g id="edge52" class="edge"><title>Node20&#45;&gt;Node21</title>
<path fill="none" stroke="midnightblue" d="M856.552,-313.027C767.998,-299.66 601.836,-274.579 508.03,-260.42"/>
<polygon fill="midnightblue" stroke="midnightblue" points="508.482,-256.948 498.072,-258.917 507.437,-263.87 508.482,-256.948"/>
</g>
<!-- Node32 -->
<g id="node75" class="node"><title>Node32</title>
<a xlink:href="../../d2/d6f/constants_8h.html" target="_top" xlink:title="blond/constants.h">
<polygon fill="white" stroke="black" points="1023,-239.5 1023,-260.5 1117,-260.5 1117,-239.5 1023,-239.5"/>
<text text-anchor="middle" x="1070" y="-247.5" font-family="Helvetica,sans-Serif" font-size="10.00">blond/constants.h</text>
</a>
</g>
<!-- Node20&#45;&gt;Node32 -->
<g id="edge86" class="edge"><title>Node20&#45;&gt;Node32</title>
<path fill="none" stroke="midnightblue" d="M952.496,-304.937C978.408,-292.822 1012.88,-276.708 1037.77,-265.067"/>
<polygon fill="midnightblue" stroke="midnightblue" points="1039.56,-268.094 1047.14,-260.688 1036.6,-261.753 1039.56,-268.094"/>
</g>
<!-- Node21&#45;&gt;Node2 -->
<g id="edge56" class="edge"><title>Node21&#45;&gt;Node2</title>
<path fill="none" stroke="midnightblue" d="M498.023,-243.447C577.21,-234.359 722.115,-216.69 845,-196 944.712,-179.212 1059.91,-154.556 1126.81,-139.712"/>
<polygon fill="midnightblue" stroke="midnightblue" points="1127.72,-143.095 1136.72,-137.506 1126.2,-136.263 1127.72,-143.095"/>
</g>
<!-- Node21&#45;&gt;Node8 -->
<g id="edge74" class="edge"><title>Node21&#45;&gt;Node8</title>
<path fill="none" stroke="midnightblue" d="M496.593,-239.484C565.054,-226.985 678.249,-206.317 743.78,-194.352"/>
<polygon fill="midnightblue" stroke="midnightblue" points="744.665,-197.748 753.874,-192.509 743.408,-190.862 744.665,-197.748"/>
</g>
<!-- Node22 -->
<g id="node49" class="node"><title>Node22</title>
<polygon fill="white" stroke="#bfbfbf" points="265,-174.5 265,-195.5 321,-195.5 321,-174.5 265,-174.5"/>
<text text-anchor="middle" x="293" y="-182.5" font-family="Helvetica,sans-Serif" font-size="10.00">algorithm</text>
</g>
<!-- Node21&#45;&gt;Node22 -->
<g id="edge54" class="edge"><title>Node21&#45;&gt;Node22</title>
<path fill="none" stroke="midnightblue" d="M415.218,-239.412C391.038,-228.647 353.372,-211.878 326.245,-199.801"/>
<polygon fill="midnightblue" stroke="midnightblue" points="327.331,-196.453 316.772,-195.584 324.484,-202.848 327.331,-196.453"/>
</g>
<!-- Node23 -->
<g id="node52" class="node"><title>Node23</title>
<a xlink:href="../../d8/dcd/exp_8h.html" target="_top" xlink:title="blond/exp.h">
<polygon fill="white" stroke="black" points="180.5,-174.5 180.5,-195.5 247.5,-195.5 247.5,-174.5 180.5,-174.5"/>
<text text-anchor="middle" x="214" y="-182.5" font-family="Helvetica,sans-Serif" font-size="10.00">blond/exp.h</text>
</a>
</g>
<!-- Node21&#45;&gt;Node23 -->
<g id="edge58" class="edge"><title>Node21&#45;&gt;Node23</title>
<path fill="none" stroke="midnightblue" d="M402.6,-239.484C362.99,-228.042 299.687,-209.754 257.491,-197.564"/>
<polygon fill="midnightblue" stroke="midnightblue" points="258.351,-194.169 247.772,-194.756 256.408,-200.894 258.351,-194.169"/>
</g>
<!-- Node25 -->
<g id="node56" class="node"><title>Node25</title>
<polygon fill="white" stroke="#bfbfbf" points="70,-0.5 70,-21.5 114,-21.5 114,-0.5 70,-0.5"/>
<text text-anchor="middle" x="92" y="-8.5" font-family="Helvetica,sans-Serif" font-size="10.00">cmath</text>
</g>
<!-- Node21&#45;&gt;Node25 -->
<g id="edge76" class="edge"><title>Node21&#45;&gt;Node25</title>
<path fill="none" stroke="midnightblue" d="M430.916,-239.4C418.012,-223.159 391.221,-192.1 362,-174 320.061,-148.022 300.455,-161.354 257,-138 241.505,-129.672 154.177,-60.5826 113.214,-27.9485"/>
<polygon fill="midnightblue" stroke="midnightblue" points="115.22,-25.0715 105.219,-21.5731 110.856,-30.5444 115.22,-25.0715"/>
</g>
<!-- Node26 -->
<g id="node58" class="node"><title>Node26</title>
<polygon fill="white" stroke="#bfbfbf" points="170,-116.5 170,-137.5 210,-137.5 210,-116.5 170,-116.5"/>
<text text-anchor="middle" x="190" y="-124.5" font-family="Helvetica,sans-Serif" font-size="10.00">limits</text>
</g>
<!-- Node21&#45;&gt;Node26 -->
<g id="edge80" class="edge"><title>Node21&#45;&gt;Node26</title>
<path fill="none" stroke="midnightblue" d="M426.343,-239.353C406.773,-223.328 367.502,-192.88 330,-174 324.918,-171.441 259.546,-149.825 219.955,-136.816"/>
<polygon fill="midnightblue" stroke="midnightblue" points="220.852,-133.427 210.259,-133.633 218.669,-140.078 220.852,-133.427"/>
</g>
<!-- Node27 -->
<g id="node60" class="node"><title>Node27</title>
<a xlink:href="../../d1/d3d/sin_8h.html" target="_top" xlink:title="blond/sin.h">
<polygon fill="white" stroke="black" points="99,-174.5 99,-195.5 163,-195.5 163,-174.5 99,-174.5"/>
<text text-anchor="middle" x="131" y="-182.5" font-family="Helvetica,sans-Serif" font-size="10.00">blond/sin.h</text>
</a>
</g>
<!-- Node21&#45;&gt;Node27 -->
<g id="edge66" class="edge"><title>Node21&#45;&gt;Node27</title>
<path fill="none" stroke="midnightblue" d="M381.743,-239.494C329.748,-229.71 250.742,-214.24 173.129,-196.17"/>
<polygon fill="midnightblue" stroke="midnightblue" points="173.716,-192.713 163.181,-193.838 172.118,-199.528 173.716,-192.713"/>
</g>
<!-- Node29 -->
<g id="node68" class="node"><title>Node29</title>
<polygon fill="white" stroke="#bfbfbf" points="414.5,-174.5 414.5,-195.5 463.5,-195.5 463.5,-174.5 414.5,-174.5"/>
<text text-anchor="middle" x="439" y="-182.5" font-family="Helvetica,sans-Serif" font-size="10.00">random</text>
</g>
<!-- Node21&#45;&gt;Node29 -->
<g id="edge78" class="edge"><title>Node21&#45;&gt;Node29</title>
<path fill="none" stroke="midnightblue" d="M439,-239.267C439,-230.18 439,-216.892 439,-205.74"/>
<polygon fill="midnightblue" stroke="midnightblue" points="442.5,-205.534 439,-195.534 435.5,-205.534 442.5,-205.534"/>
</g>
<!-- Node30 -->
<g id="node71" class="node"><title>Node30</title>
<polygon fill="white" stroke="#bfbfbf" points="480.5,-174.5 480.5,-195.5 529.5,-195.5 529.5,-174.5 480.5,-174.5"/>
<text text-anchor="middle" x="505" y="-182.5" font-family="Helvetica,sans-Serif" font-size="10.00">cassert</text>
</g>
<!-- Node21&#45;&gt;Node30 -->
<g id="edge82" class="edge"><title>Node21&#45;&gt;Node30</title>
<path fill="none" stroke="midnightblue" d="M449.899,-239.267C459.99,-229.328 475.185,-214.363 487.064,-202.664"/>
<polygon fill="midnightblue" stroke="midnightblue" points="489.635,-205.044 494.304,-195.534 484.723,-200.057 489.635,-205.044"/>
</g>
<!-- Node31 -->
<g id="node73" class="node"><title>Node31</title>
<a xlink:href="../../d1/db0/openmp_8h.html" target="_top" xlink:title="blond/openmp.h">
<polygon fill="white" stroke="black" points="547,-174.5 547,-195.5 633,-195.5 633,-174.5 547,-174.5"/>
<text text-anchor="middle" x="590" y="-182.5" font-family="Helvetica,sans-Serif" font-size="10.00">blond/openmp.h</text>
</a>
</g>
<!-- Node21&#45;&gt;Node31 -->
<g id="edge84" class="edge"><title>Node21&#45;&gt;Node31</title>
<path fill="none" stroke="midnightblue" d="M463.597,-239.412C488.715,-228.6 527.902,-211.731 555.985,-199.642"/>
<polygon fill="midnightblue" stroke="midnightblue" points="557.612,-202.752 565.414,-195.584 554.845,-196.323 557.612,-202.752"/>
</g>
<!-- Node24 -->
<g id="node54" class="node"><title>Node24</title>
<a xlink:href="../../df/de1/vdtcore__common_8h.html" target="_top" xlink:title="vdtcore_common.h">
<polygon fill="white" stroke="black" points="42,-58.5 42,-79.5 142,-79.5 142,-58.5 42,-58.5"/>
<text text-anchor="middle" x="92" y="-66.5" font-family="Helvetica,sans-Serif" font-size="10.00">vdtcore_common.h</text>
</a>
</g>
<!-- Node23&#45;&gt;Node24 -->
<g id="edge60" class="edge"><title>Node23&#45;&gt;Node24</title>
<path fill="none" stroke="midnightblue" d="M201.603,-174.377C190.741,-164.983 174.608,-150.816 161,-138 143.102,-121.144 123.322,-101.225 109.546,-87.1321"/>
<polygon fill="midnightblue" stroke="midnightblue" points="112.044,-84.681 102.56,-79.9589 107.03,-89.5649 112.044,-84.681"/>
</g>
<!-- Node23&#45;&gt;Node26 -->
<g id="edge64" class="edge"><title>Node23&#45;&gt;Node26</title>
<path fill="none" stroke="midnightblue" d="M209.598,-174.362C206.418,-166.677 202.028,-156.069 198.21,-146.84"/>
<polygon fill="midnightblue" stroke="midnightblue" points="201.432,-145.473 194.374,-137.571 194.964,-148.149 201.432,-145.473"/>
</g>
<!-- Node24&#45;&gt;Node25 -->
<g id="edge62" class="edge"><title>Node24&#45;&gt;Node25</title>
<path fill="none" stroke="midnightblue" d="M92,-58.3619C92,-50.9219 92,-40.7427 92,-31.7276"/>
<polygon fill="midnightblue" stroke="midnightblue" points="95.5001,-31.5706 92,-21.5707 88.5001,-31.5707 95.5001,-31.5706"/>
</g>
<!-- Node28 -->
<g id="node62" class="node"><title>Node28</title>
<a xlink:href="../../dc/dfa/sincos_8h.html" target="_top" xlink:title="sincos.h">
<polygon fill="white" stroke="black" points="-0.5,-116.5 -0.5,-137.5 52.5,-137.5 52.5,-116.5 -0.5,-116.5"/>
<text text-anchor="middle" x="26" y="-124.5" font-family="Helvetica,sans-Serif" font-size="10.00">sincos.h</text>
</a>
</g>
<!-- Node27&#45;&gt;Node28 -->
<g id="edge68" class="edge"><title>Node27&#45;&gt;Node28</title>
<path fill="none" stroke="midnightblue" d="M111.741,-174.362C95.5342,-165.409 72.1471,-152.491 53.8909,-142.406"/>
<polygon fill="midnightblue" stroke="midnightblue" points="55.5822,-139.342 45.1365,-137.571 52.1976,-145.47 55.5822,-139.342"/>
</g>
<!-- Node28&#45;&gt;Node24 -->
<g id="edge70" class="edge"><title>Node28&#45;&gt;Node24</title>
<path fill="none" stroke="midnightblue" d="M38.1054,-116.362C47.6881,-107.941 61.2639,-96.0105 72.3926,-86.2308"/>
<polygon fill="midnightblue" stroke="midnightblue" points="74.7701,-88.8009 79.9713,-79.5707 70.1492,-83.5427 74.7701,-88.8009"/>
</g>
<!-- Node28&#45;&gt;Node25 -->
<g id="edge72" class="edge"><title>Node28&#45;&gt;Node25</title>
<path fill="none" stroke="midnightblue" d="M24.6491,-116.446C23.346,-102.239 22.8474,-76.6012 33,-58 39.8995,-45.359 51.7585,-34.9055 63.043,-27.0928"/>
<polygon fill="midnightblue" stroke="midnightblue" points="64.9745,-30.0118 71.4686,-21.6406 61.1716,-24.1349 64.9745,-30.0118"/>
</g>
<!-- Node32&#45;&gt;Node2 -->
<g id="edge88" class="edge"><title>Node32&#45;&gt;Node2</title>
<path fill="none" stroke="midnightblue" d="M1077.6,-239.489C1088.68,-224.411 1110.22,-196.033 1131,-174 1140.78,-163.625 1152.51,-152.9 1162.34,-144.319"/>
<polygon fill="midnightblue" stroke="midnightblue" points="1164.78,-146.844 1170.08,-137.671 1160.21,-141.535 1164.78,-146.844"/>
</g>
<!-- Node33&#45;&gt;Node2 -->
<g id="edge96" class="edge"><title>Node33&#45;&gt;Node2</title>
<path fill="none" stroke="midnightblue" d="M1036.55,-376.404C1047.07,-367.253 1062.2,-353.424 1074,-340 1100.05,-310.347 1106.91,-302.549 1126,-268 1148.55,-227.196 1167.11,-175.606 1176.45,-147.517"/>
<polygon fill="midnightblue" stroke="midnightblue" points="1179.9,-148.247 1179.68,-137.654 1173.24,-146.072 1179.9,-148.247"/>
</g>
<!-- Node33&#45;&gt;Node8 -->
<g id="edge98" class="edge"><title>Node33&#45;&gt;Node8</title>
<path fill="none" stroke="midnightblue" d="M1021.73,-376.482C1017.42,-358.975 1006.4,-323.826 984,-304 946.745,-271.023 920.249,-294.277 878,-268 850.214,-250.719 824.631,-222.463 809.419,-203.798"/>
<polygon fill="midnightblue" stroke="midnightblue" points="811.968,-201.381 803.004,-195.733 806.49,-205.738 811.968,-201.381"/>
</g>
<!-- Node33&#45;&gt;Node20 -->
<g id="edge100" class="edge"><title>Node33&#45;&gt;Node20</title>
<path fill="none" stroke="midnightblue" d="M1006.17,-376.267C991.881,-367.669 971.346,-355.31 953.481,-344.558"/>
<polygon fill="midnightblue" stroke="midnightblue" points="954.801,-341.268 944.429,-339.11 951.192,-347.265 954.801,-341.268"/>
</g>
<!-- Node34 -->
<g id="node85" class="node"><title>Node34</title>
<polygon fill="white" stroke="#bfbfbf" points="1030.5,-311.5 1030.5,-332.5 1065.5,-332.5 1065.5,-311.5 1030.5,-311.5"/>
<text text-anchor="middle" x="1048" y="-319.5" font-family="Helvetica,sans-Serif" font-size="10.00">map</text>
</g>
<!-- Node33&#45;&gt;Node34 -->
<g id="edge102" class="edge"><title>Node33&#45;&gt;Node34</title>
<path fill="none" stroke="midnightblue" d="M1027.96,-376.267C1031.39,-366.991 1036.43,-353.336 1040.6,-342.045"/>
<polygon fill="midnightblue" stroke="midnightblue" points="1043.93,-343.127 1044.11,-332.534 1037.36,-340.702 1043.93,-343.127"/>
</g>
<!-- Node35&#45;&gt;Node2 -->
<g id="edge114" class="edge"><title>Node35&#45;&gt;Node2</title>
<path fill="none" stroke="midnightblue" d="M1274.13,-239.085C1257.03,-218.061 1219.37,-171.733 1198.2,-145.7"/>
<polygon fill="midnightblue" stroke="midnightblue" points="1200.74,-143.267 1191.71,-137.715 1195.3,-147.682 1200.74,-143.267"/>
</g>
<!-- Node35&#45;&gt;Node4 -->
<g id="edge118" class="edge"><title>Node35&#45;&gt;Node4</title>
<path fill="none" stroke="midnightblue" d="M1283.16,-239.333C1282.93,-214.3 1278.82,-151.244 1245,-116 1237.11,-107.782 1173.66,-88.9624 1133.97,-77.7901"/>
<polygon fill="midnightblue" stroke="midnightblue" points="1134.77,-74.3801 1124.2,-75.0584 1132.89,-81.1216 1134.77,-74.3801"/>
</g>
<!-- Node35&#45;&gt;Node8 -->
<g id="edge116" class="edge"><title>Node35&#45;&gt;Node8</title>
<path fill="none" stroke="midnightblue" d="M1210.99,-240.409C1111.15,-227.11 933.129,-203.398 845.95,-191.786"/>
<polygon fill="midnightblue" stroke="midnightblue" points="846.407,-188.316 836.032,-190.465 845.482,-195.255 846.407,-188.316"/>
</g>
</g>
</svg>
