<?xml version="1.0" encoding="UTF-8" standalone="no"?>
<!DOCTYPE svg PUBLIC "-//W3C//DTD SVG 1.1//EN"
 "http://www.w3.org/Graphics/SVG/1.1/DTD/svg11.dtd">
<!-- Generated by graphviz version 2.26.3 (20100126.1600)
 -->
<!-- Title: PhaseNoise.h Pages: 1 -->
<svg width="1025pt" height="464pt"
 viewBox="0.00 0.00 1024.67 464.00" xmlns="http://www.w3.org/2000/svg" xmlns:xlink="http://www.w3.org/1999/xlink">
<g id="graph1" class="graph" transform="scale(1 1) rotate(0) translate(4 460)">
<title>PhaseNoise.h</title>
<polygon fill="white" stroke="white" points="-4,5 -4,-460 1021.67,-460 1021.67,5 -4,5"/>
<!-- Node1 -->
<g id="node1" class="node"><title>Node1</title>
<polygon fill="#bfbfbf" stroke="black" points="165.949,-434.5 165.949,-455.5 243.949,-455.5 243.949,-434.5 165.949,-434.5"/>
<text text-anchor="middle" x="204.949" y="-442.5" font-family="Helvetica,sans-Serif" font-size="10.00">PhaseNoise.h</text>
</g>
<!-- Node2 -->
<g id="node3" class="node"><title>Node2</title>
<a xlink:href="../../d2/d2c/configuration_8h.html" target="_top" xlink:title="blond/configuration.h">
<polygon fill="white" stroke="black" points="11.449,-58.5 11.449,-79.5 118.449,-79.5 118.449,-58.5 11.449,-58.5"/>
<text text-anchor="middle" x="64.949" y="-66.5" font-family="Helvetica,sans-Serif" font-size="10.00">blond/configuration.h</text>
</a>
</g>
<!-- Node1&#45;&gt;Node2 -->
<g id="edge2" class="edge"><title>Node1&#45;&gt;Node2</title>
<path fill="none" stroke="midnightblue" d="M165.752,-436.445C115.828,-422.974 35.949,-391.633 35.949,-329 35.949,-329 35.949,-329 35.949,-192 35.949,-154.924 48.5862,-113.198 57.1764,-89.1182"/>
<polygon fill="midnightblue" stroke="midnightblue" points="60.4884,-90.2528 60.67,-79.6595 53.922,-87.8274 60.4884,-90.2528"/>
</g>
<!-- Node5 -->
<g id="node9" class="node"><title>Node5</title>
<a xlink:href="../../d5/d87/globals_8h.html" target="_top" xlink:title="blond/globals.h">
<polygon fill="white" stroke="black" points="163.949,-376.5 163.949,-397.5 245.949,-397.5 245.949,-376.5 163.949,-376.5"/>
<text text-anchor="middle" x="204.949" y="-384.5" font-family="Helvetica,sans-Serif" font-size="10.00">blond/globals.h</text>
</a>
</g>
<!-- Node1&#45;&gt;Node5 -->
<g id="edge8" class="edge"><title>Node1&#45;&gt;Node5</title>
<path fill="none" stroke="midnightblue" d="M204.949,-434.362C204.949,-426.922 204.949,-416.743 204.949,-407.728"/>
<polygon fill="midnightblue" stroke="midnightblue" points="208.449,-407.571 204.949,-397.571 201.449,-407.571 208.449,-407.571"/>
</g>
<!-- Node7 -->
<g id="node14" class="node"><title>Node7</title>
<a xlink:href="../../de/df0/utilities_8h.html" target="_top" xlink:title="blond/utilities.h">
<polygon fill="white" stroke="black" points="386.949,-116.5 386.949,-137.5 468.949,-137.5 468.949,-116.5 386.949,-116.5"/>
<text text-anchor="middle" x="427.949" y="-124.5" font-family="Helvetica,sans-Serif" font-size="10.00">blond/utilities.h</text>
</a>
</g>
<!-- Node1&#45;&gt;Node7 -->
<g id="edge70" class="edge"><title>Node1&#45;&gt;Node7</title>
<path fill="none" stroke="midnightblue" d="M243.979,-437.62C322.034,-421.742 489.949,-381.486 489.949,-329 489.949,-329 489.949,-329 489.949,-264 489.949,-223.118 489.628,-210.365 470.949,-174 465.358,-163.116 456.568,-152.861 448.388,-144.724"/>
<polygon fill="midnightblue" stroke="midnightblue" points="450.533,-141.936 440.857,-137.62 445.73,-147.028 450.533,-141.936"/>
</g>
<!-- Node3 -->
<g id="node5" class="node"><title>Node3</title>
<polygon fill="white" stroke="#bfbfbf" points="71.449,-0.5 71.449,-21.5 124.449,-21.5 124.449,-0.5 71.449,-0.5"/>
<text text-anchor="middle" x="97.949" y="-8.5" font-family="Helvetica,sans-Serif" font-size="10.00">complex</text>
</g>
<!-- Node2&#45;&gt;Node3 -->
<g id="edge4" class="edge"><title>Node2&#45;&gt;Node3</title>
<path fill="none" stroke="midnightblue" d="M71.0017,-58.3619C75.4209,-50.5949 81.5386,-39.8426 86.8281,-30.5458"/>
<polygon fill="midnightblue" stroke="midnightblue" points="90.0315,-31.9932 91.9347,-21.5707 83.9473,-28.5315 90.0315,-31.9932"/>
</g>
<!-- Node4 -->
<g id="node7" class="node"><title>Node4</title>
<polygon fill="white" stroke="#bfbfbf" points="9.94903,-0.5 9.94903,-21.5 53.949,-21.5 53.949,-0.5 9.94903,-0.5"/>
<text text-anchor="middle" x="31.949" y="-8.5" font-family="Helvetica,sans-Serif" font-size="10.00">vector</text>
</g>
<!-- Node2&#45;&gt;Node4 -->
<g id="edge6" class="edge"><title>Node2&#45;&gt;Node4</title>
<path fill="none" stroke="midnightblue" d="M58.8963,-58.3619C54.4771,-50.5949 48.3595,-39.8426 43.0699,-30.5458"/>
<polygon fill="midnightblue" stroke="midnightblue" points="45.9507,-28.5315 37.9634,-21.5707 39.8666,-31.9932 45.9507,-28.5315"/>
</g>
<!-- Node6 -->
<g id="node11" class="node"><title>Node6</title>
<a xlink:href="../../d7/d74/Beams_8h.html" target="_top" xlink:title="blond/beams/Beams.h">
<polygon fill="white" stroke="black" points="190.949,-318.5 190.949,-339.5 304.949,-339.5 304.949,-318.5 190.949,-318.5"/>
<text text-anchor="middle" x="247.949" y="-326.5" font-family="Helvetica,sans-Serif" font-size="10.00">blond/beams/Beams.h</text>
</a>
</g>
<!-- Node5&#45;&gt;Node6 -->
<g id="edge10" class="edge"><title>Node5&#45;&gt;Node6</title>
<path fill="none" stroke="midnightblue" d="M212.836,-376.362C218.776,-368.35 227.071,-357.161 234.108,-347.67"/>
<polygon fill="midnightblue" stroke="midnightblue" points="236.968,-349.688 240.112,-339.571 231.345,-345.519 236.968,-349.688"/>
</g>
<!-- Node20 -->
<g id="node42" class="node"><title>Node20</title>
<a xlink:href="../../d5/d34/GeneralParameters_8h.html" target="_top" xlink:title="blond/input_parameters\l/GeneralParameters.h">
<polygon fill="white" stroke="black" points="82.949,-175 82.949,-209 200.949,-209 200.949,-175 82.949,-175"/>
<text text-anchor="start" x="90.949" y="-196" font-family="Helvetica,sans-Serif" font-size="10.00">blond/input_parameters</text>
<text text-anchor="middle" x="141.949" y="-183" font-family="Helvetica,sans-Serif" font-size="10.00">/GeneralParameters.h</text>
</a>
</g>
<!-- Node5&#45;&gt;Node20 -->
<g id="edge66" class="edge"><title>Node5&#45;&gt;Node20</title>
<path fill="none" stroke="midnightblue" d="M186.239,-376.372C159.644,-360.048 112.021,-326.022 92.949,-282 86.5886,-267.319 87.1864,-260.926 92.949,-246 97.2513,-234.856 105.039,-224.591 113.159,-216.071"/>
<polygon fill="midnightblue" stroke="midnightblue" points="115.62,-218.559 120.3,-209.054 110.714,-213.566 115.62,-218.559"/>
</g>
<!-- Node21 -->
<g id="node47" class="node"><title>Node21</title>
<a xlink:href="../../d6/db7/RfParameters_8h.html" target="_top" xlink:title="blond/input_parameters\l/RfParameters.h">
<polygon fill="white" stroke="black" points="101.949,-247 101.949,-281 219.949,-281 219.949,-247 101.949,-247"/>
<text text-anchor="start" x="109.949" y="-268" font-family="Helvetica,sans-Serif" font-size="10.00">blond/input_parameters</text>
<text text-anchor="middle" x="160.949" y="-255" font-family="Helvetica,sans-Serif" font-size="10.00">/RfParameters.h</text>
</a>
</g>
<!-- Node5&#45;&gt;Node21 -->
<g id="edge68" class="edge"><title>Node5&#45;&gt;Node21</title>
<path fill="none" stroke="midnightblue" d="M199.069,-376.425C194.034,-367.06 186.844,-352.912 181.949,-340 175.936,-324.138 170.824,-305.824 167.149,-291.149"/>
<polygon fill="midnightblue" stroke="midnightblue" points="170.493,-290.087 164.735,-281.193 163.69,-291.736 170.493,-290.087"/>
</g>
<!-- Node22 -->
<g id="node51" class="node"><title>Node22</title>
<a xlink:href="../../dc/df2/Slices_8h.html" target="_top" xlink:title="blond/beams/Slices.h">
<polygon fill="white" stroke="black" points="351.949,-181.5 351.949,-202.5 461.949,-202.5 461.949,-181.5 351.949,-181.5"/>
<text text-anchor="middle" x="406.949" y="-189.5" font-family="Helvetica,sans-Serif" font-size="10.00">blond/beams/Slices.h</text>
</a>
</g>
<!-- Node5&#45;&gt;Node22 -->
<g id="edge58" class="edge"><title>Node5&#45;&gt;Node22</title>
<path fill="none" stroke="midnightblue" d="M244.165,-376.459C266.455,-369.005 293.84,-357.23 313.949,-340 356.185,-303.812 385.613,-243.58 398.924,-212.281"/>
<polygon fill="midnightblue" stroke="midnightblue" points="402.235,-213.432 402.815,-202.853 395.765,-210.761 402.235,-213.432"/>
</g>
<!-- Node6&#45;&gt;Node2 -->
<g id="edge12" class="edge"><title>Node6&#45;&gt;Node2</title>
<path fill="none" stroke="midnightblue" d="M248.54,-318.177C249.029,-308.653 249.685,-294.411 249.949,-282 250.289,-266.004 253.962,-261.488 249.949,-246 240.767,-210.564 234.24,-201.386 209.949,-174 175.785,-135.483 125.124,-102.85 93.6183,-84.612"/>
<polygon fill="midnightblue" stroke="midnightblue" points="95.305,-81.5448 84.8828,-79.6402 91.8425,-87.6285 95.305,-81.5448"/>
</g>
<!-- Node6&#45;&gt;Node7 -->
<g id="edge14" class="edge"><title>Node6&#45;&gt;Node7</title>
<path fill="none" stroke="midnightblue" d="M263.357,-318.146C274.745,-309.462 289.948,-296.389 299.949,-282 329.435,-239.576 308.793,-212.763 342.949,-174 355.25,-160.04 372.739,-149.382 388.658,-141.773"/>
<polygon fill="midnightblue" stroke="midnightblue" points="390.126,-144.951 397.798,-137.644 387.244,-138.572 390.126,-144.951"/>
</g>
<!-- Node6&#45;&gt;Node20 -->
<g id="edge44" class="edge"><title>Node6&#45;&gt;Node20</title>
<path fill="none" stroke="midnightblue" d="M248.037,-318.249C247.656,-301.329 244.757,-268.135 228.949,-246 219.626,-232.946 206.067,-222.386 192.415,-214.183"/>
<polygon fill="midnightblue" stroke="midnightblue" points="193.903,-211.003 183.475,-209.13 190.459,-217.097 193.903,-211.003"/>
</g>
<!-- Node6&#45;&gt;Node21 -->
<g id="edge52" class="edge"><title>Node6&#45;&gt;Node21</title>
<path fill="none" stroke="midnightblue" d="M228.416,-318.267C215.76,-309.906 199.36,-297.988 185.823,-287.449"/>
<polygon fill="midnightblue" stroke="midnightblue" points="187.835,-284.578 177.823,-281.11 183.487,-290.064 187.835,-284.578"/>
</g>
<!-- Node7&#45;&gt;Node2 -->
<g id="edge38" class="edge"><title>Node7&#45;&gt;Node2</title>
<path fill="none" stroke="midnightblue" d="M386.52,-120.808C330.373,-112.356 226.725,-96.5378 128.775,-80.2836"/>
<polygon fill="midnightblue" stroke="midnightblue" points="129.145,-76.797 118.706,-78.6077 127.995,-83.702 129.145,-76.797"/>
</g>
<!-- Node7&#45;&gt;Node4 -->
<g id="edge34" class="edge"><title>Node7&#45;&gt;Node4</title>
<path fill="none" stroke="midnightblue" d="M469.061,-117.448C472.06,-116.907 475.046,-116.416 477.949,-116 595.015,-99.2343 1088.96,-143.201 1006.95,-58 971.903,-21.5919 176.899,-31.0883 64.0062,-21.0128"/>
<polygon fill="midnightblue" stroke="midnightblue" points="64.4358,-17.5393 54.0757,-19.7569 63.5575,-24.484 64.4358,-17.5393"/>
</g>
<!-- Node8 -->
<g id="node16" class="node"><title>Node8</title>
<polygon fill="white" stroke="#bfbfbf" points="891.949,-58.5 891.949,-79.5 937.949,-79.5 937.949,-58.5 891.949,-58.5"/>
<text text-anchor="middle" x="914.949" y="-66.5" font-family="Helvetica,sans-Serif" font-size="10.00">chrono</text>
</g>
<!-- Node7&#45;&gt;Node8 -->
<g id="edge16" class="edge"><title>Node7&#45;&gt;Node8</title>
<path fill="none" stroke="midnightblue" d="M469.071,-117.516C472.068,-116.96 475.05,-116.446 477.949,-116 653.332,-89.0263 704.369,-116.615 881.792,-79.8137"/>
<polygon fill="midnightblue" stroke="midnightblue" points="882.655,-83.2087 891.715,-77.7163 881.207,-76.36 882.655,-83.2087"/>
</g>
<!-- Node9 -->
<g id="node18" class="node"><title>Node9</title>
<polygon fill="white" stroke="#bfbfbf" points="955.449,-58.5 955.449,-79.5 998.449,-79.5 998.449,-58.5 955.449,-58.5"/>
<text text-anchor="middle" x="976.949" y="-66.5" font-family="Helvetica,sans-Serif" font-size="10.00">cstdio</text>
</g>
<!-- Node7&#45;&gt;Node9 -->
<g id="edge18" class="edge"><title>Node7&#45;&gt;Node9</title>
<path fill="none" stroke="midnightblue" d="M469.065,-117.476C472.063,-116.929 475.047,-116.428 477.949,-116 681.533,-85.9431 740.816,-123.203 945.35,-79.8849"/>
<polygon fill="midnightblue" stroke="midnightblue" points="946.163,-83.2901 955.2,-77.7606 944.687,-76.4474 946.163,-83.2901"/>
</g>
<!-- Node10 -->
<g id="node20" class="node"><title>Node10</title>
<polygon fill="white" stroke="#bfbfbf" points="135.449,-58.5 135.449,-79.5 180.449,-79.5 180.449,-58.5 135.449,-58.5"/>
<text text-anchor="middle" x="157.949" y="-66.5" font-family="Helvetica,sans-Serif" font-size="10.00">cstdlib</text>
</g>
<!-- Node7&#45;&gt;Node10 -->
<g id="edge20" class="edge"><title>Node7&#45;&gt;Node10</title>
<path fill="none" stroke="midnightblue" d="M386.929,-120.816C341.042,-113.484 264.408,-100.006 190.456,-80.1514"/>
<polygon fill="midnightblue" stroke="midnightblue" points="191.083,-76.6946 180.514,-77.4385 189.24,-83.4477 191.083,-76.6946"/>
</g>
<!-- Node11 -->
<g id="node22" class="node"><title>Node11</title>
<polygon fill="white" stroke="#bfbfbf" points="197.949,-58.5 197.949,-79.5 247.949,-79.5 247.949,-58.5 197.949,-58.5"/>
<text text-anchor="middle" x="222.949" y="-66.5" font-family="Helvetica,sans-Serif" font-size="10.00">fstream</text>
</g>
<!-- Node7&#45;&gt;Node11 -->
<g id="edge22" class="edge"><title>Node7&#45;&gt;Node11</title>
<path fill="none" stroke="midnightblue" d="M387.725,-116.488C355.084,-107.836 307.665,-94.9922 257.824,-80.1825"/>
<polygon fill="midnightblue" stroke="midnightblue" points="258.744,-76.8046 248.161,-77.2952 256.74,-83.5116 258.744,-76.8046"/>
</g>
<!-- Node12 -->
<g id="node24" class="node"><title>Node12</title>
<polygon fill="white" stroke="#bfbfbf" points="265.949,-58.5 265.949,-79.5 319.949,-79.5 319.949,-58.5 265.949,-58.5"/>
<text text-anchor="middle" x="292.949" y="-66.5" font-family="Helvetica,sans-Serif" font-size="10.00">iostream</text>
</g>
<!-- Node7&#45;&gt;Node12 -->
<g id="edge24" class="edge"><title>Node7&#45;&gt;Node12</title>
<path fill="none" stroke="midnightblue" d="M403.502,-116.497C382.131,-107.315 350.88,-93.8889 327.052,-83.6516"/>
<polygon fill="midnightblue" stroke="midnightblue" points="328.24,-80.3529 317.671,-79.6212 325.477,-86.7845 328.24,-80.3529"/>
</g>
<!-- Node13 -->
<g id="node26" class="node"><title>Node13</title>
<polygon fill="white" stroke="#bfbfbf" points="337.449,-58.5 337.449,-79.5 384.449,-79.5 384.449,-58.5 337.449,-58.5"/>
<text text-anchor="middle" x="360.949" y="-66.5" font-family="Helvetica,sans-Serif" font-size="10.00">iterator</text>
</g>
<!-- Node7&#45;&gt;Node13 -->
<g id="edge26" class="edge"><title>Node7&#45;&gt;Node13</title>
<path fill="none" stroke="midnightblue" d="M415.66,-116.362C405.932,-107.941 392.151,-96.0105 380.854,-86.2308"/>
<polygon fill="midnightblue" stroke="midnightblue" points="383.011,-83.4695 373.16,-79.5707 378.43,-88.7619 383.011,-83.4695"/>
</g>
<!-- Node14 -->
<g id="node28" class="node"><title>Node14</title>
<polygon fill="white" stroke="#bfbfbf" points="401.949,-58.5 401.949,-79.5 453.949,-79.5 453.949,-58.5 401.949,-58.5"/>
<text text-anchor="middle" x="427.949" y="-66.5" font-family="Helvetica,sans-Serif" font-size="10.00">memory</text>
</g>
<!-- Node7&#45;&gt;Node14 -->
<g id="edge28" class="edge"><title>Node7&#45;&gt;Node14</title>
<path fill="none" stroke="midnightblue" d="M427.949,-116.362C427.949,-108.922 427.949,-98.7427 427.949,-89.7276"/>
<polygon fill="midnightblue" stroke="midnightblue" points="431.449,-89.5706 427.949,-79.5707 424.449,-89.5707 431.449,-89.5706"/>
</g>
<!-- Node15 -->
<g id="node30" class="node"><title>Node15</title>
<polygon fill="white" stroke="#bfbfbf" points="471.949,-58.5 471.949,-79.5 523.949,-79.5 523.949,-58.5 471.949,-58.5"/>
<text text-anchor="middle" x="497.949" y="-66.5" font-family="Helvetica,sans-Serif" font-size="10.00">sstream</text>
</g>
<!-- Node7&#45;&gt;Node15 -->
<g id="edge30" class="edge"><title>Node7&#45;&gt;Node15</title>
<path fill="none" stroke="midnightblue" d="M440.788,-116.362C450.952,-107.941 465.35,-96.0105 477.153,-86.2308"/>
<polygon fill="midnightblue" stroke="midnightblue" points="479.724,-88.6459 485.191,-79.5707 475.258,-83.2558 479.724,-88.6459"/>
</g>
<!-- Node16 -->
<g id="node32" class="node"><title>Node16</title>
<polygon fill="white" stroke="#bfbfbf" points="541.449,-58.5 541.449,-79.5 582.449,-79.5 582.449,-58.5 541.449,-58.5"/>
<text text-anchor="middle" x="561.949" y="-66.5" font-family="Helvetica,sans-Serif" font-size="10.00">string</text>
</g>
<!-- Node7&#45;&gt;Node16 -->
<g id="edge32" class="edge"><title>Node7&#45;&gt;Node16</title>
<path fill="none" stroke="midnightblue" d="M452.215,-116.497C474.621,-106.799 507.968,-92.365 532.017,-81.9556"/>
<polygon fill="midnightblue" stroke="midnightblue" points="533.588,-85.0895 541.375,-77.9052 530.807,-78.6655 533.588,-85.0895"/>
</g>
<!-- Node17 -->
<g id="node35" class="node"><title>Node17</title>
<polygon fill="white" stroke="#bfbfbf" points="599.949,-58.5 599.949,-79.5 659.949,-79.5 659.949,-58.5 599.949,-58.5"/>
<text text-anchor="middle" x="629.949" y="-66.5" font-family="Helvetica,sans-Serif" font-size="10.00">sys/stat.h</text>
</g>
<!-- Node7&#45;&gt;Node17 -->
<g id="edge36" class="edge"><title>Node7&#45;&gt;Node17</title>
<path fill="none" stroke="midnightblue" d="M464.53,-116.497C499.967,-106.321 553.564,-90.9323 590.076,-80.4486"/>
<polygon fill="midnightblue" stroke="midnightblue" points="591.247,-83.754 599.893,-77.6301 589.315,-77.0259 591.247,-83.754"/>
</g>
<!-- Node18 -->
<g id="node38" class="node"><title>Node18</title>
<polygon fill="white" stroke="#bfbfbf" points="677.449,-58.5 677.449,-79.5 752.449,-79.5 752.449,-58.5 677.449,-58.5"/>
<text text-anchor="middle" x="714.949" y="-66.5" font-family="Helvetica,sans-Serif" font-size="10.00">mm_malloc.h</text>
</g>
<!-- Node7&#45;&gt;Node18 -->
<g id="edge40" class="edge"><title>Node7&#45;&gt;Node18</title>
<path fill="none" stroke="midnightblue" d="M469.129,-117.837C472.112,-117.205 475.075,-116.587 477.949,-116 559.528,-99.3422 582.809,-98.1205 667.534,-80.2365"/>
<polygon fill="midnightblue" stroke="midnightblue" points="668.274,-83.6574 677.327,-78.1533 666.818,-76.8105 668.274,-83.6574"/>
</g>
<!-- Node19 -->
<g id="node40" class="node"><title>Node19</title>
<a xlink:href="../../da/d69/optionparser_8h.html" target="_top" xlink:title="This is the only file required to use The Lean Mean C++ Option Parser. Just #include it and you&#39;re se...">
<polygon fill="white" stroke="black" points="769.949,-58.5 769.949,-79.5 873.949,-79.5 873.949,-58.5 769.949,-58.5"/>
<text text-anchor="middle" x="821.949" y="-66.5" font-family="Helvetica,sans-Serif" font-size="10.00">blond/optionparser.h</text>
</a>
</g>
<!-- Node7&#45;&gt;Node19 -->
<g id="edge42" class="edge"><title>Node7&#45;&gt;Node19</title>
<path fill="none" stroke="midnightblue" d="M469.092,-117.641C472.083,-117.055 475.059,-116.501 477.949,-116 599.707,-94.9063 633.906,-99.0253 759.713,-80.1244"/>
<polygon fill="midnightblue" stroke="midnightblue" points="760.376,-83.5639 769.735,-78.5994 759.323,-76.6436 760.376,-83.5639"/>
</g>
<!-- Node20&#45;&gt;Node2 -->
<g id="edge46" class="edge"><title>Node20&#45;&gt;Node2</title>
<path fill="none" stroke="midnightblue" d="M131.243,-174.897C117.015,-152.17 91.9446,-112.123 77.0476,-88.3263"/>
<polygon fill="midnightblue" stroke="midnightblue" points="79.975,-86.4064 71.7022,-79.7875 74.0417,-90.1208 79.975,-86.4064"/>
</g>
<!-- Node20&#45;&gt;Node4 -->
<g id="edge50" class="edge"><title>Node20&#45;&gt;Node4</title>
<path fill="none" stroke="midnightblue" d="M106.046,-174.919C72.3818,-156.685 24.15,-124.31 2.94903,-80 -5.03948,-63.3041 4.8393,-43.8265 15.1758,-29.8313"/>
<polygon fill="midnightblue" stroke="midnightblue" points="18.0059,-31.8964 21.5153,-21.8996 12.5378,-27.5259 18.0059,-31.8964"/>
</g>
<!-- Node20&#45;&gt;Node7 -->
<g id="edge48" class="edge"><title>Node20&#45;&gt;Node7</title>
<path fill="none" stroke="midnightblue" d="M201.208,-178.532C253.099,-166.739 327.704,-149.783 376.973,-138.585"/>
<polygon fill="midnightblue" stroke="midnightblue" points="377.804,-141.986 386.78,-136.357 376.253,-135.16 377.804,-141.986"/>
</g>
<!-- Node21&#45;&gt;Node6 -->
<g id="edge54" class="edge"><title>Node21&#45;&gt;Node6</title>
<path fill="none" stroke="midnightblue" d="M189.876,-281.11C203.523,-290.587 219.249,-302.334 230.99,-311.822"/>
<polygon fill="midnightblue" stroke="midnightblue" points="228.82,-314.569 238.749,-318.267 233.293,-309.185 228.82,-314.569"/>
</g>
<!-- Node21&#45;&gt;Node20 -->
<g id="edge56" class="edge"><title>Node21&#45;&gt;Node20</title>
<path fill="none" stroke="midnightblue" d="M156.446,-246.937C154.278,-238.719 151.623,-228.66 149.181,-219.406"/>
<polygon fill="midnightblue" stroke="midnightblue" points="152.487,-218.217 146.551,-209.441 145.719,-220.003 152.487,-218.217"/>
</g>
<!-- Node22&#45;&gt;Node2 -->
<g id="edge60" class="edge"><title>Node22&#45;&gt;Node2</title>
<path fill="none" stroke="midnightblue" d="M395.453,-181.289C376.877,-164.608 338.441,-132.615 299.949,-116 284.335,-109.26 192.805,-91.9574 128.701,-80.3338"/>
<polygon fill="midnightblue" stroke="midnightblue" points="129.128,-76.8542 118.664,-78.5196 127.882,-83.7426 129.128,-76.8542"/>
</g>
<!-- Node22&#45;&gt;Node7 -->
<g id="edge62" class="edge"><title>Node22&#45;&gt;Node7</title>
<path fill="none" stroke="midnightblue" d="M410.417,-181.267C413.383,-172.085 417.735,-158.615 421.361,-147.392"/>
<polygon fill="midnightblue" stroke="midnightblue" points="424.802,-148.125 424.546,-137.534 418.141,-145.973 424.802,-148.125"/>
</g>
<!-- Node23 -->
<g id="node55" class="node"><title>Node23</title>
<polygon fill="white" stroke="#bfbfbf" points="486.449,-116.5 486.449,-137.5 521.449,-137.5 521.449,-116.5 486.449,-116.5"/>
<text text-anchor="middle" x="503.949" y="-124.5" font-family="Helvetica,sans-Serif" font-size="10.00">map</text>
</g>
<!-- Node22&#45;&gt;Node23 -->
<g id="edge64" class="edge"><title>Node22&#45;&gt;Node23</title>
<path fill="none" stroke="midnightblue" d="M422.967,-181.267C438.363,-170.949 461.842,-155.216 479.562,-143.342"/>
<polygon fill="midnightblue" stroke="midnightblue" points="481.871,-146.008 488.23,-137.534 477.974,-140.193 481.871,-146.008"/>
</g>
</g>
</svg>
