<?xml version="1.0" encoding="UTF-8" standalone="no"?>
<!DOCTYPE svg PUBLIC "-//W3C//DTD SVG 1.1//EN"
 "http://www.w3.org/Graphics/SVG/1.1/DTD/svg11.dtd">
<!-- Generated by graphviz version 2.26.3 (20100126.1600)
 -->
<!-- Title: PhaseNoise.h Pages: 1 -->
<!--zoomable 464 -->
<svg id="main" version="1.1" xmlns="http://www.w3.org/2000/svg" xmlns:xlink="http://www.w3.org/1999/xlink" xml:space="preserve" onload="init(evt)">
        <defs>
                <circle id="rim" cx="0" cy="0" r="7"/>
                <circle id="rim2" cx="0" cy="0" r="3.5"/>
                <g id="zoomPlus">
                        <use xlink:href="#rim" fill="#404040">
                                <set attributeName="fill" to="#808080" begin="zoomplus.mouseover" end="zoomplus.mouseout"/>
                        </use>
                        <path d="M-4,0h8M0,-4v8" fill="none" stroke="white" stroke-width="1.5" pointer-events="none"/>
                </g>
                <g id="zoomMin">
                        <use xlink:href="#rim" fill="#404040">
                                <set attributeName="fill" to="#808080" begin="zoomminus.mouseover" end="zoomminus.mouseout"/>
                        </use>
                        <path d="M-4,0h8" fill="none" stroke="white" stroke-width="1.5" pointer-events="none"/>
                </g>
                <g id="dirArrow">
                        <path fill="none" stroke="white" stroke-width="1.5" d="M0,-3.0v7 M-2.5,-0.5L0,-3.0L2.5,-0.5"/>
                </g>
               <g id="resetDef">
                       <use xlink:href="#rim2" fill="#404040">
                               <set attributeName="fill" to="#808080" begin="reset.mouseover" end="reset.mouseout"/>
                       </use>
               </g>
        </defs>

<script type="text/javascript">
var viewWidth = 1077;
var viewHeight = 464;
var sectionId = 'dynsection-0';
</script>
<script xlink:href="../../svgpan.js"/>
<svg id="graph" class="graph">
<g id="viewport">
<title>PhaseNoise.h</title>
<polygon fill="white" stroke="white" points="-4,5 -4,-460 1074,-460 1074,5 -4,5"/>
<!-- Node1 -->
<g id="node1" class="node"><title>Node1</title>
<polygon fill="#bfbfbf" stroke="black" points="191,-434.5 191,-455.5 269,-455.5 269,-434.5 191,-434.5"/>
<text text-anchor="middle" x="230" y="-442.5" font-family="Helvetica,sans-Serif" font-size="10.00">PhaseNoise.h</text>
</g>
<!-- Node2 -->
<g id="node3" class="node"><title>Node2</title>
<a xlink:href="../../d2/d2c/configuration_8h.html" target="_top" xlink:title="blond/configuration.h">
<polygon fill="white" stroke="black" points="84.5,-58.5 84.5,-79.5 191.5,-79.5 191.5,-58.5 84.5,-58.5"/>
<text text-anchor="middle" x="138" y="-66.5" font-family="Helvetica,sans-Serif" font-size="10.00">blond/configuration.h</text>
</a>
</g>
<!-- Node1&#45;&gt;Node2 -->
<g id="edge2" class="edge"><title>Node1&#45;&gt;Node2</title>
<path fill="none" stroke="midnightblue" d="M190.984,-442.691C125.364,-436.47 0,-413.524 0,-329 0,-329 0,-329 0,-192 0,-138.108 59.375,-101.995 100.232,-83.5234"/>
<polygon fill="midnightblue" stroke="midnightblue" points="101.636,-86.7299 109.406,-79.5281 98.8405,-80.3122 101.636,-86.7299"/>
</g>
<!-- Node5 -->
<g id="node9" class="node"><title>Node5</title>
<a xlink:href="../../d5/d87/globals_8h.html" target="_top" xlink:title="blond/globals.h">
<polygon fill="white" stroke="black" points="189,-376.5 189,-397.5 271,-397.5 271,-376.5 189,-376.5"/>
<text text-anchor="middle" x="230" y="-384.5" font-family="Helvetica,sans-Serif" font-size="10.00">blond/globals.h</text>
</a>
</g>
<!-- Node1&#45;&gt;Node5 -->
<g id="edge8" class="edge"><title>Node1&#45;&gt;Node5</title>
<path fill="none" stroke="midnightblue" d="M230,-434.362C230,-426.922 230,-416.743 230,-407.728"/>
<polygon fill="midnightblue" stroke="midnightblue" points="233.5,-407.571 230,-397.571 226.5,-407.571 233.5,-407.571"/>
</g>
<!-- Node7 -->
<g id="node14" class="node"><title>Node7</title>
<a xlink:href="../../de/df0/utilities_8h.html" target="_top" xlink:title="blond/utilities.h">
<polygon fill="white" stroke="black" points="430,-116.5 430,-137.5 512,-137.5 512,-116.5 430,-116.5"/>
<text text-anchor="middle" x="471" y="-124.5" font-family="Helvetica,sans-Serif" font-size="10.00">blond/utilities.h</text>
</a>
</g>
<!-- Node1&#45;&gt;Node7 -->
<g id="edge66" class="edge"><title>Node1&#45;&gt;Node7</title>
<path fill="none" stroke="midnightblue" d="M269.186,-442.751C335.091,-436.623 461,-413.817 461,-329 461,-329 461,-329 461,-264 461,-222.683 465.58,-174.543 468.541,-147.738"/>
<polygon fill="midnightblue" stroke="midnightblue" points="472.037,-147.971 469.693,-137.639 465.082,-147.178 472.037,-147.971"/>
</g>
<!-- Node3 -->
<g id="node5" class="node"><title>Node3</title>
<polygon fill="white" stroke="#bfbfbf" points="111.5,-0.5 111.5,-21.5 164.5,-21.5 164.5,-0.5 111.5,-0.5"/>
<text text-anchor="middle" x="138" y="-8.5" font-family="Helvetica,sans-Serif" font-size="10.00">complex</text>
</g>
<!-- Node2&#45;&gt;Node3 -->
<g id="edge4" class="edge"><title>Node2&#45;&gt;Node3</title>
<path fill="none" stroke="midnightblue" d="M138,-58.3619C138,-50.9219 138,-40.7427 138,-31.7276"/>
<polygon fill="midnightblue" stroke="midnightblue" points="141.5,-31.5706 138,-21.5707 134.5,-31.5707 141.5,-31.5706"/>
</g>
<!-- Node4 -->
<g id="node7" class="node"><title>Node4</title>
<polygon fill="white" stroke="#bfbfbf" points="197,-0.5 197,-21.5 241,-21.5 241,-0.5 197,-0.5"/>
<text text-anchor="middle" x="219" y="-8.5" font-family="Helvetica,sans-Serif" font-size="10.00">vector</text>
</g>
<!-- Node2&#45;&gt;Node4 -->
<g id="edge6" class="edge"><title>Node2&#45;&gt;Node4</title>
<path fill="none" stroke="midnightblue" d="M152.857,-58.3619C164.846,-49.7773 181.927,-37.5459 195.728,-27.6636"/>
<polygon fill="midnightblue" stroke="midnightblue" points="198.145,-30.2383 204.238,-21.5707 194.069,-24.5469 198.145,-30.2383"/>
</g>
<!-- Node6 -->
<g id="node11" class="node"><title>Node6</title>
<a xlink:href="../../d7/d74/Beams_8h.html" target="_top" xlink:title="blond/beams/Beams.h">
<polygon fill="white" stroke="black" points="216,-318.5 216,-339.5 330,-339.5 330,-318.5 216,-318.5"/>
<text text-anchor="middle" x="273" y="-326.5" font-family="Helvetica,sans-Serif" font-size="10.00">blond/beams/Beams.h</text>
</a>
</g>
<!-- Node5&#45;&gt;Node6 -->
<g id="edge10" class="edge"><title>Node5&#45;&gt;Node6</title>
<path fill="none" stroke="midnightblue" d="M237.887,-376.362C243.827,-368.35 252.122,-357.161 259.159,-347.67"/>
<polygon fill="midnightblue" stroke="midnightblue" points="262.019,-349.688 265.163,-339.571 256.396,-345.519 262.019,-349.688"/>
</g>
<!-- Node19 -->
<g id="node40" class="node"><title>Node19</title>
<a xlink:href="../../d5/d34/GeneralParameters_8h.html" target="_top" xlink:title="blond/input_parameters\l/GeneralParameters.h">
<polygon fill="white" stroke="black" points="237,-175 237,-209 355,-209 355,-175 237,-175"/>
<text text-anchor="start" x="245" y="-196" font-family="Helvetica,sans-Serif" font-size="10.00">blond/input_parameters</text>
<text text-anchor="middle" x="296" y="-183" font-family="Helvetica,sans-Serif" font-size="10.00">/GeneralParameters.h</text>
</a>
</g>
<!-- Node5&#45;&gt;Node19 -->
<g id="edge62" class="edge"><title>Node5&#45;&gt;Node19</title>
<path fill="none" stroke="midnightblue" d="M271.15,-380.666C295.322,-374.601 323.994,-362.812 339,-340 346.557,-328.512 356.347,-303.593 336,-246 332.386,-235.769 326.119,-225.846 319.603,-217.356"/>
<polygon fill="midnightblue" stroke="midnightblue" points="322.13,-214.916 313.094,-209.385 316.708,-219.344 322.13,-214.916"/>
</g>
<!-- Node20 -->
<g id="node45" class="node"><title>Node20</title>
<a xlink:href="../../d6/db7/RfParameters_8h.html" target="_top" xlink:title="blond/input_parameters\l/RfParameters.h">
<polygon fill="white" stroke="black" points="194,-247 194,-281 312,-281 312,-247 194,-247"/>
<text text-anchor="start" x="202" y="-268" font-family="Helvetica,sans-Serif" font-size="10.00">blond/input_parameters</text>
<text text-anchor="middle" x="253" y="-255" font-family="Helvetica,sans-Serif" font-size="10.00">/RfParameters.h</text>
</a>
</g>
<!-- Node5&#45;&gt;Node20 -->
<g id="edge64" class="edge"><title>Node5&#45;&gt;Node20</title>
<path fill="none" stroke="midnightblue" d="M221.772,-376.171C212.458,-362.523 199.496,-338.381 207,-318 210.975,-307.205 218.173,-297.099 225.713,-288.615"/>
<polygon fill="midnightblue" stroke="midnightblue" points="228.304,-290.97 232.651,-281.308 223.227,-286.15 228.304,-290.97"/>
</g>
<!-- Node21 -->
<g id="node49" class="node"><title>Node21</title>
<a xlink:href="../../dc/df2/Slices_8h.html" target="_top" xlink:title="blond/beams/Slices.h">
<polygon fill="white" stroke="black" points="28,-181.5 28,-202.5 138,-202.5 138,-181.5 28,-181.5"/>
<text text-anchor="middle" x="83" y="-189.5" font-family="Helvetica,sans-Serif" font-size="10.00">blond/beams/Slices.h</text>
</a>
</g>
<!-- Node5&#45;&gt;Node21 -->
<g id="edge56" class="edge"><title>Node5&#45;&gt;Node21</title>
<path fill="none" stroke="midnightblue" d="M221.887,-376.238C198.049,-344.617 127.987,-251.677 97.4759,-211.203"/>
<polygon fill="midnightblue" stroke="midnightblue" points="100.083,-208.847 91.2689,-202.969 94.4937,-213.061 100.083,-208.847"/>
</g>
<!-- Node6&#45;&gt;Node2 -->
<g id="edge12" class="edge"><title>Node6&#45;&gt;Node2</title>
<path fill="none" stroke="midnightblue" d="M238.169,-318.403C219.709,-311.048 198.185,-299.39 185,-282 161.913,-251.549 146.017,-136.729 140.322,-89.4915"/>
<polygon fill="midnightblue" stroke="midnightblue" points="143.793,-89.0358 139.151,-79.512 136.841,-89.8519 143.793,-89.0358"/>
</g>
<!-- Node6&#45;&gt;Node7 -->
<g id="edge14" class="edge"><title>Node6&#45;&gt;Node7</title>
<path fill="none" stroke="midnightblue" d="M289.003,-318.476C302.194,-309.477 321.09,-295.824 336,-282 384.35,-237.173 433.229,-176.314 456.688,-145.914"/>
<polygon fill="midnightblue" stroke="midnightblue" points="459.565,-147.914 462.868,-137.847 454.008,-143.657 459.565,-147.914"/>
</g>
<!-- Node6&#45;&gt;Node19 -->
<g id="edge42" class="edge"><title>Node6&#45;&gt;Node19</title>
<path fill="none" stroke="midnightblue" d="M289.26,-318.423C300.515,-310.058 314.582,-297.267 321,-282 329.777,-261.122 321.537,-236.239 312.236,-217.934"/>
<polygon fill="midnightblue" stroke="midnightblue" points="315.228,-216.111 307.359,-209.017 309.087,-219.47 315.228,-216.111"/>
</g>
<!-- Node6&#45;&gt;Node20 -->
<g id="edge50" class="edge"><title>Node6&#45;&gt;Node20</title>
<path fill="none" stroke="midnightblue" d="M264.531,-318.267C260.95,-310.852 257.308,-300.64 254.665,-291.074"/>
<polygon fill="midnightblue" stroke="midnightblue" points="258.005,-289.998 252.238,-281.11 251.204,-291.654 258.005,-289.998"/>
</g>
<!-- Node7&#45;&gt;Node2 -->
<g id="edge36" class="edge"><title>Node7&#45;&gt;Node2</title>
<path fill="none" stroke="midnightblue" d="M429.834,-119.83C372.731,-109.884 268.944,-91.8071 201.772,-80.1075"/>
<polygon fill="midnightblue" stroke="midnightblue" points="202.181,-76.626 191.728,-78.3581 200.979,-83.5222 202.181,-76.626"/>
</g>
<!-- Node7&#45;&gt;Node4 -->
<g id="edge34" class="edge"><title>Node7&#45;&gt;Node4</title>
<path fill="none" stroke="midnightblue" d="M512.137,-125.159C574.625,-121.402 688.875,-110.451 714,-80 720.223,-72.4581 720.579,-65.2333 714,-58 682.865,-23.7691 356.649,-13.9084 251.481,-11.608"/>
<polygon fill="midnightblue" stroke="midnightblue" points="251.24,-8.10222 241.169,-11.3914 251.093,-15.1007 251.24,-8.10222"/>
</g>
<!-- Node8 -->
<g id="node16" class="node"><title>Node8</title>
<polygon fill="white" stroke="#bfbfbf" points="761,-58.5 761,-79.5 807,-79.5 807,-58.5 761,-58.5"/>
<text text-anchor="middle" x="784" y="-66.5" font-family="Helvetica,sans-Serif" font-size="10.00">chrono</text>
</g>
<!-- Node7&#45;&gt;Node8 -->
<g id="edge16" class="edge"><title>Node7&#45;&gt;Node8</title>
<path fill="none" stroke="midnightblue" d="M512.458,-121.528C566.726,-114.003 664.629,-99.1844 747,-80 748.248,-79.7093 749.516,-79.4006 750.795,-79.0783"/>
<polygon fill="midnightblue" stroke="midnightblue" points="751.891,-82.4076 760.626,-76.4115 750.058,-75.6517 751.891,-82.4076"/>
</g>
<!-- Node9 -->
<g id="node18" class="node"><title>Node9</title>
<polygon fill="white" stroke="#bfbfbf" points="824.5,-58.5 824.5,-79.5 867.5,-79.5 867.5,-58.5 824.5,-58.5"/>
<text text-anchor="middle" x="846" y="-66.5" font-family="Helvetica,sans-Serif" font-size="10.00">cstdio</text>
</g>
<!-- Node7&#45;&gt;Node9 -->
<g id="edge18" class="edge"><title>Node7&#45;&gt;Node9</title>
<path fill="none" stroke="midnightblue" d="M512.169,-124.279C575.56,-119.466 700.844,-107.477 814.325,-80.0446"/>
<polygon fill="midnightblue" stroke="midnightblue" points="815.344,-83.3982 824.215,-77.6064 813.668,-76.6017 815.344,-83.3982"/>
</g>
<!-- Node10 -->
<g id="node20" class="node"><title>Node10</title>
<polygon fill="white" stroke="#bfbfbf" points="884.5,-58.5 884.5,-79.5 929.5,-79.5 929.5,-58.5 884.5,-58.5"/>
<text text-anchor="middle" x="907" y="-66.5" font-family="Helvetica,sans-Serif" font-size="10.00">cstdlib</text>
</g>
<!-- Node7&#45;&gt;Node10 -->
<g id="edge20" class="edge"><title>Node7&#45;&gt;Node10</title>
<path fill="none" stroke="midnightblue" d="M512.046,-125.292C584.053,-121.64 737.746,-110.911 874.661,-79.9168"/>
<polygon fill="midnightblue" stroke="midnightblue" points="875.531,-83.3081 884.489,-77.65 873.958,-76.4872 875.531,-83.3081"/>
</g>
<!-- Node11 -->
<g id="node22" class="node"><title>Node11</title>
<polygon fill="white" stroke="#bfbfbf" points="947,-58.5 947,-79.5 997,-79.5 997,-58.5 947,-58.5"/>
<text text-anchor="middle" x="972" y="-66.5" font-family="Helvetica,sans-Serif" font-size="10.00">fstream</text>
</g>
<!-- Node7&#45;&gt;Node11 -->
<g id="edge22" class="edge"><title>Node7&#45;&gt;Node11</title>
<path fill="none" stroke="midnightblue" d="M512.049,-125.795C592.218,-122.814 775.174,-112.929 936.788,-79.8814"/>
<polygon fill="midnightblue" stroke="midnightblue" points="937.833,-83.239 946.91,-77.775 936.407,-76.3859 937.833,-83.239"/>
</g>
<!-- Node12 -->
<g id="node24" class="node"><title>Node12</title>
<polygon fill="white" stroke="#bfbfbf" points="1015,-58.5 1015,-79.5 1069,-79.5 1069,-58.5 1015,-58.5"/>
<text text-anchor="middle" x="1042" y="-66.5" font-family="Helvetica,sans-Serif" font-size="10.00">iostream</text>
</g>
<!-- Node7&#45;&gt;Node12 -->
<g id="edge24" class="edge"><title>Node7&#45;&gt;Node12</title>
<path fill="none" stroke="midnightblue" d="M512.009,-126.308C600.586,-124.19 816.333,-115.684 1004.56,-79.9518"/>
<polygon fill="midnightblue" stroke="midnightblue" points="1005.48,-83.3388 1014.63,-78.0074 1004.15,-76.4656 1005.48,-83.3388"/>
</g>
<!-- Node13 -->
<g id="node26" class="node"><title>Node13</title>
<polygon fill="white" stroke="#bfbfbf" points="246.5,-58.5 246.5,-79.5 293.5,-79.5 293.5,-58.5 246.5,-58.5"/>
<text text-anchor="middle" x="270" y="-66.5" font-family="Helvetica,sans-Serif" font-size="10.00">iterator</text>
</g>
<!-- Node7&#45;&gt;Node13 -->
<g id="edge26" class="edge"><title>Node7&#45;&gt;Node13</title>
<path fill="none" stroke="midnightblue" d="M430.509,-116.469C398.296,-107.927 351.877,-95.2583 303.427,-80.3411"/>
<polygon fill="midnightblue" stroke="midnightblue" points="304.302,-76.9479 293.714,-77.3282 302.228,-83.6337 304.302,-76.9479"/>
</g>
<!-- Node14 -->
<g id="node28" class="node"><title>Node14</title>
<polygon fill="white" stroke="#bfbfbf" points="311,-58.5 311,-79.5 363,-79.5 363,-58.5 311,-58.5"/>
<text text-anchor="middle" x="337" y="-66.5" font-family="Helvetica,sans-Serif" font-size="10.00">memory</text>
</g>
<!-- Node7&#45;&gt;Node14 -->
<g id="edge28" class="edge"><title>Node7&#45;&gt;Node14</title>
<path fill="none" stroke="midnightblue" d="M446.734,-116.497C425.522,-107.315 394.502,-93.8889 370.85,-83.6516"/>
<polygon fill="midnightblue" stroke="midnightblue" points="372.106,-80.3815 361.539,-79.6212 369.326,-86.8055 372.106,-80.3815"/>
</g>
<!-- Node15 -->
<g id="node30" class="node"><title>Node15</title>
<polygon fill="white" stroke="#bfbfbf" points="381,-58.5 381,-79.5 433,-79.5 433,-58.5 381,-58.5"/>
<text text-anchor="middle" x="407" y="-66.5" font-family="Helvetica,sans-Serif" font-size="10.00">sstream</text>
</g>
<!-- Node7&#45;&gt;Node15 -->
<g id="edge30" class="edge"><title>Node7&#45;&gt;Node15</title>
<path fill="none" stroke="midnightblue" d="M459.261,-116.362C450.059,-108.023 437.06,-96.2418 426.328,-86.5162"/>
<polygon fill="midnightblue" stroke="midnightblue" points="428.424,-83.6924 418.664,-79.5707 423.724,-88.8793 428.424,-83.6924"/>
</g>
<!-- Node16 -->
<g id="node32" class="node"><title>Node16</title>
<polygon fill="white" stroke="#bfbfbf" points="450.5,-58.5 450.5,-79.5 491.5,-79.5 491.5,-58.5 450.5,-58.5"/>
<text text-anchor="middle" x="471" y="-66.5" font-family="Helvetica,sans-Serif" font-size="10.00">string</text>
</g>
<!-- Node7&#45;&gt;Node16 -->
<g id="edge32" class="edge"><title>Node7&#45;&gt;Node16</title>
<path fill="none" stroke="midnightblue" d="M471,-116.362C471,-108.922 471,-98.7427 471,-89.7276"/>
<polygon fill="midnightblue" stroke="midnightblue" points="474.5,-89.5706 471,-79.5707 467.5,-89.5707 474.5,-89.5706"/>
</g>
<!-- Node17 -->
<g id="node36" class="node"><title>Node17</title>
<polygon fill="white" stroke="#bfbfbf" points="508.5,-58.5 508.5,-79.5 583.5,-79.5 583.5,-58.5 508.5,-58.5"/>
<text text-anchor="middle" x="546" y="-66.5" font-family="Helvetica,sans-Serif" font-size="10.00">mm_malloc.h</text>
</g>
<!-- Node7&#45;&gt;Node17 -->
<g id="edge38" class="edge"><title>Node7&#45;&gt;Node17</title>
<path fill="none" stroke="midnightblue" d="M484.756,-116.362C495.751,-107.859 511.373,-95.7785 524.086,-85.9466"/>
<polygon fill="midnightblue" stroke="midnightblue" points="526.562,-88.4569 532.331,-79.5707 522.279,-82.9195 526.562,-88.4569"/>
</g>
<!-- Node18 -->
<g id="node38" class="node"><title>Node18</title>
<a xlink:href="../../da/d69/optionparser_8h.html" target="_top" xlink:title="This is the only file required to use The Lean Mean C++ Option Parser. Just #include it and you&#39;re se...">
<polygon fill="white" stroke="black" points="601,-58.5 601,-79.5 705,-79.5 705,-58.5 601,-58.5"/>
<text text-anchor="middle" x="653" y="-66.5" font-family="Helvetica,sans-Serif" font-size="10.00">blond/optionparser.h</text>
</a>
</g>
<!-- Node7&#45;&gt;Node18 -->
<g id="edge40" class="edge"><title>Node7&#45;&gt;Node18</title>
<path fill="none" stroke="midnightblue" d="M503.959,-116.497C533.758,-107 577.809,-92.9619 610.297,-82.6087"/>
<polygon fill="midnightblue" stroke="midnightblue" points="611.514,-85.8942 619.979,-79.5231 609.389,-79.2247 611.514,-85.8942"/>
</g>
<!-- Node19&#45;&gt;Node2 -->
<g id="edge44" class="edge"><title>Node19&#45;&gt;Node2</title>
<path fill="none" stroke="midnightblue" d="M264.312,-174.902C247.036,-165.012 225.641,-151.813 208,-138 188.048,-122.377 167.689,-101.662 154.109,-87.0184"/>
<polygon fill="midnightblue" stroke="midnightblue" points="156.638,-84.5978 147.308,-79.5789 151.472,-89.3211 156.638,-84.5978"/>
</g>
<!-- Node19&#45;&gt;Node4 -->
<g id="edge48" class="edge"><title>Node19&#45;&gt;Node4</title>
<path fill="none" stroke="midnightblue" d="M285.579,-174.688C272.946,-153.125 251.654,-114.866 238,-80 231.779,-64.1155 226.766,-45.4224 223.454,-31.5023"/>
<polygon fill="midnightblue" stroke="midnightblue" points="226.81,-30.477 221.173,-21.5067 219.986,-32.0348 226.81,-30.477"/>
</g>
<!-- Node19&#45;&gt;Node7 -->
<g id="edge46" class="edge"><title>Node19&#45;&gt;Node7</title>
<path fill="none" stroke="midnightblue" d="M341.979,-174.922C370.39,-164.37 406.403,-150.993 433.157,-141.056"/>
<polygon fill="midnightblue" stroke="midnightblue" points="434.408,-144.325 442.564,-137.562 431.971,-137.763 434.408,-144.325"/>
</g>
<!-- Node20&#45;&gt;Node6 -->
<g id="edge52" class="edge"><title>Node20&#45;&gt;Node6</title>
<path fill="none" stroke="midnightblue" d="M264.291,-281.11C267.718,-289.483 270.94,-299.628 272.997,-308.421"/>
<polygon fill="midnightblue" stroke="midnightblue" points="269.562,-309.094 274.864,-318.267 276.44,-307.79 269.562,-309.094"/>
</g>
<!-- Node20&#45;&gt;Node19 -->
<g id="edge54" class="edge"><title>Node20&#45;&gt;Node19</title>
<path fill="none" stroke="midnightblue" d="M263.19,-246.937C268.31,-238.365 274.625,-227.791 280.343,-218.217"/>
<polygon fill="midnightblue" stroke="midnightblue" points="283.461,-219.821 285.584,-209.441 277.452,-216.232 283.461,-219.821"/>
</g>
<!-- Node21&#45;&gt;Node2 -->
<g id="edge58" class="edge"><title>Node21&#45;&gt;Node2</title>
<path fill="none" stroke="midnightblue" d="M87.8809,-181.085C97.1182,-160.427 117.28,-115.337 129.023,-89.0765"/>
<polygon fill="midnightblue" stroke="midnightblue" points="132.322,-90.273 133.209,-79.7153 125.931,-87.4155 132.322,-90.273"/>
</g>
<!-- Node21&#45;&gt;Node7 -->
<g id="edge60" class="edge"><title>Node21&#45;&gt;Node7</title>
<path fill="none" stroke="midnightblue" d="M138.179,-182.756C213.411,-170.153 347.134,-147.751 420.081,-135.53"/>
<polygon fill="midnightblue" stroke="midnightblue" points="420.674,-138.98 429.958,-133.876 419.517,-132.076 420.674,-138.98"/>
</g>
</g>
</svg>
        <g id="navigator" transform="translate(0 0)" fill="#404254">
                <rect fill="#f2f5e9" fill-opacity="0.5" stroke="#606060" stroke-width=".5" x="0" y="0" width="60" height="60"/>
                <use id="zoomplus" xlink:href="#zoomPlus" x="17" y="9" onmousedown="handleZoom(evt,'in')"/>
                <use id="zoomminus" xlink:href="#zoomMin" x="42" y="9" onmousedown="handleZoom(evt,'out')"/>
                <use id="reset" xlink:href="#resetDef" x="30" y="36" onmousedown="handleReset()"/>
                <g id="arrowUp" xlink:href="#dirArrow" transform="translate(30 24)" onmousedown="handlePan(0,-1)">
                  <use xlink:href="#rim" fill="#404040">
                        <set attributeName="fill" to="#808080" begin="arrowUp.mouseover" end="arrowUp.mouseout"/>
                  </use>
                  <path fill="none" stroke="white" stroke-width="1.5" d="M0,-3.0v7 M-2.5,-0.5L0,-3.0L2.5,-0.5"/>
                </g>
                <g id="arrowRight" xlink:href="#dirArrow" transform="rotate(90) translate(36 -43)" onmousedown="handlePan(1,0)">
                  <use xlink:href="#rim" fill="#404040">
                        <set attributeName="fill" to="#808080" begin="arrowRight.mouseover" end="arrowRight.mouseout"/>
                  </use>
                  <path fill="none" stroke="white" stroke-width="1.5" d="M0,-3.0v7 M-2.5,-0.5L0,-3.0L2.5,-0.5"/>
                </g>
                <g id="arrowDown" xlink:href="#dirArrow" transform="rotate(180) translate(-30 -48)" onmousedown="handlePan(0,1)">
                  <use xlink:href="#rim" fill="#404040">
                        <set attributeName="fill" to="#808080" begin="arrowDown.mouseover" end="arrowDown.mouseout"/>
                  </use>
                  <path fill="none" stroke="white" stroke-width="1.5" d="M0,-3.0v7 M-2.5,-0.5L0,-3.0L2.5,-0.5"/>
                </g>
                <g id="arrowLeft" xlink:href="#dirArrow" transform="rotate(270) translate(-36 17)" onmousedown="handlePan(-1,0)">
                  <use xlink:href="#rim" fill="#404040">
                        <set attributeName="fill" to="#808080" begin="arrowLeft.mouseover" end="arrowLeft.mouseout"/>
                  </use>
                  <path fill="none" stroke="white" stroke-width="1.5" d="M0,-3.0v7 M-2.5,-0.5L0,-3.0L2.5,-0.5"/>
                </g>
        </g>
        <svg viewBox="0 0 15 15" width="100%" height="30px" preserveAspectRatio="xMaxYMin meet">
         <g id="arrow_out" transform="scale(0.3 0.3)">
          <a xlink:href="PhaseNoise_8h__incl_org.svg" target="_base">
           <rect id="button" ry="5" rx="5" y="6" x="6" height="38" width="38"
                fill="#f2f5e9" fill-opacity="0.5" stroke="#606060" stroke-width="1.0"/>
           <path id="arrow"
             d="M 11.500037,31.436501 C 11.940474,20.09759 22.043105,11.32322 32.158766,21.979434 L 37.068811,17.246167 C 37.068811,17.246167 37.088388,32 37.088388,32 L 22.160133,31.978069 C 22.160133,31.978069 26.997745,27.140456 26.997745,27.140456 C 18.528582,18.264221 13.291696,25.230495 11.500037,31.436501 z"
             style="fill:#404040;"/>
          </a>
         </g>
        </svg>
</svg>
