<?xml version="1.0" encoding="UTF-8" standalone="no"?>
<!DOCTYPE svg PUBLIC "-//W3C//DTD SVG 1.1//EN"
 "http://www.w3.org/Graphics/SVG/1.1/DTD/svg11.dtd">
<!-- Generated by graphviz version 2.26.3 (20100126.1600)
 -->
<!-- Title: plot_beams.h Pages: 1 -->
<svg width="1477pt" height="522pt"
 viewBox="0.00 0.00 1476.50 522.00" xmlns="http://www.w3.org/2000/svg" xmlns:xlink="http://www.w3.org/1999/xlink">
<g id="graph1" class="graph" transform="scale(1 1) rotate(0) translate(4 518)">
<title>plot_beams.h</title>
<polygon fill="white" stroke="white" points="-4,5 -4,-518 1473.5,-518 1473.5,5 -4,5"/>
<!-- Node1 -->
<g id="node1" class="node"><title>Node1</title>
<polygon fill="#bfbfbf" stroke="black" points="676.739,-492.5 676.739,-513.5 751.739,-513.5 751.739,-492.5 676.739,-492.5"/>
<text text-anchor="middle" x="714.239" y="-500.5" font-family="Helvetica,sans-Serif" font-size="10.00">plot_beams.h</text>
</g>
<!-- Node2 -->
<g id="node3" class="node"><title>Node2</title>
<a xlink:href="../../d5/d34/GeneralParameters_8h.html" target="_top" xlink:title="blond/input_parameters\l/GeneralParameters.h">
<polygon fill="white" stroke="black" points="485.239,-233 485.239,-267 603.239,-267 603.239,-233 485.239,-233"/>
<text text-anchor="start" x="493.239" y="-254" font-family="Helvetica,sans-Serif" font-size="10.00">blond/input_parameters</text>
<text text-anchor="middle" x="544.239" y="-241" font-family="Helvetica,sans-Serif" font-size="10.00">/GeneralParameters.h</text>
</a>
</g>
<!-- Node1&#45;&gt;Node2 -->
<g id="edge2" class="edge"><title>Node1&#45;&gt;Node2</title>
<path fill="none" stroke="midnightblue" d="M698.169,-492.229C670.731,-473.169 614.411,-431.043 579.239,-384 562.213,-361.227 559.831,-353.402 552.239,-326 547.892,-310.31 545.874,-292.198 544.952,-277.592"/>
<polygon fill="midnightblue" stroke="midnightblue" points="548.428,-277.019 544.439,-267.204 541.436,-277.364 548.428,-277.019"/>
</g>
<!-- Node18 -->
<g id="node38" class="node"><title>Node18</title>
<a xlink:href="../../d6/db7/RfParameters_8h.html" target="_top" xlink:title="blond/input_parameters\l/RfParameters.h">
<polygon fill="white" stroke="black" points="701.239,-421 701.239,-455 819.239,-455 819.239,-421 701.239,-421"/>
<text text-anchor="start" x="709.239" y="-442" font-family="Helvetica,sans-Serif" font-size="10.00">blond/input_parameters</text>
<text text-anchor="middle" x="760.239" y="-429" font-family="Helvetica,sans-Serif" font-size="10.00">/RfParameters.h</text>
</a>
</g>
<!-- Node1&#45;&gt;Node18 -->
<g id="edge40" class="edge"><title>Node1&#45;&gt;Node18</title>
<path fill="none" stroke="midnightblue" d="M721.835,-492.267C727.362,-484.458 735.084,-473.546 742.155,-463.554"/>
<polygon fill="midnightblue" stroke="midnightblue" points="745.211,-465.294 748.131,-455.11 739.497,-461.251 745.211,-465.294"/>
</g>
<!-- Node19 -->
<g id="node40" class="node"><title>Node19</title>
<a xlink:href="../../d7/d74/Beams_8h.html" target="_top" xlink:title="blond/beams/Beams.h">
<polygon fill="white" stroke="black" points="609.239,-362.5 609.239,-383.5 723.239,-383.5 723.239,-362.5 609.239,-362.5"/>
<text text-anchor="middle" x="666.239" y="-370.5" font-family="Helvetica,sans-Serif" font-size="10.00">blond/beams/Beams.h</text>
</a>
</g>
<!-- Node1&#45;&gt;Node19 -->
<g id="edge112" class="edge"><title>Node1&#45;&gt;Node19</title>
<path fill="none" stroke="midnightblue" d="M708.753,-492.352C704.026,-482.94 697.2,-468.764 692.239,-456 684.118,-435.103 676.671,-410.526 671.848,-393.567"/>
<polygon fill="midnightblue" stroke="midnightblue" points="675.136,-392.329 669.077,-383.638 668.394,-394.211 675.136,-392.329"/>
</g>
<!-- Node21 -->
<g id="node47" class="node"><title>Node21</title>
<a xlink:href="../../dc/df2/Slices_8h.html" target="_top" xlink:title="blond/beams/Slices.h">
<polygon fill="white" stroke="black" points="720.239,-239.5 720.239,-260.5 830.239,-260.5 830.239,-239.5 720.239,-239.5"/>
<text text-anchor="middle" x="775.239" y="-247.5" font-family="Helvetica,sans-Serif" font-size="10.00">blond/beams/Slices.h</text>
</a>
</g>
<!-- Node1&#45;&gt;Node21 -->
<g id="edge114" class="edge"><title>Node1&#45;&gt;Node21</title>
<path fill="none" stroke="midnightblue" d="M751.966,-492.49C775.358,-484.8 805.229,-472.77 828.239,-456 889.405,-411.423 912.206,-397.068 938.239,-326 954.735,-280.967 892.756,-262.613 840.533,-255.136"/>
<polygon fill="midnightblue" stroke="midnightblue" points="840.953,-251.661 830.581,-253.822 840.036,-258.601 840.953,-251.661"/>
</g>
<!-- Node3 -->
<g id="node5" class="node"><title>Node3</title>
<a xlink:href="../../d2/d2c/configuration_8h.html" target="_top" xlink:title="blond/configuration.h">
<polygon fill="white" stroke="black" points="842.739,-116.5 842.739,-137.5 949.739,-137.5 949.739,-116.5 842.739,-116.5"/>
<text text-anchor="middle" x="896.239" y="-124.5" font-family="Helvetica,sans-Serif" font-size="10.00">blond/configuration.h</text>
</a>
</g>
<!-- Node2&#45;&gt;Node3 -->
<g id="edge4" class="edge"><title>Node2&#45;&gt;Node3</title>
<path fill="none" stroke="midnightblue" d="M564.03,-232.694C585.159,-215.164 620.339,-188.611 655.239,-174 663.473,-170.553 764.119,-151.493 832.713,-138.729"/>
<polygon fill="midnightblue" stroke="midnightblue" points="833.394,-142.162 842.586,-136.894 832.115,-135.28 833.394,-142.162"/>
</g>
<!-- Node5 -->
<g id="node9" class="node"><title>Node5</title>
<polygon fill="white" stroke="#bfbfbf" points="607.239,-58.5 607.239,-79.5 651.239,-79.5 651.239,-58.5 607.239,-58.5"/>
<text text-anchor="middle" x="629.239" y="-66.5" font-family="Helvetica,sans-Serif" font-size="10.00">vector</text>
</g>
<!-- Node2&#45;&gt;Node5 -->
<g id="edge38" class="edge"><title>Node2&#45;&gt;Node5</title>
<path fill="none" stroke="midnightblue" d="M485.15,-245.128C332.376,-231.43 -59.2183,-188.756 8.23929,-116 28.4628,-94.188 472.894,-75.1423 597.196,-70.2277"/>
<polygon fill="midnightblue" stroke="midnightblue" points="597.375,-73.7234 607.23,-69.8342 597.101,-66.7288 597.375,-73.7234"/>
</g>
<!-- Node6 -->
<g id="node11" class="node"><title>Node6</title>
<a xlink:href="../../de/df0/utilities_8h.html" target="_top" xlink:title="blond/utilities.h">
<polygon fill="white" stroke="black" points="508.239,-174.5 508.239,-195.5 590.239,-195.5 590.239,-174.5 508.239,-174.5"/>
<text text-anchor="middle" x="549.239" y="-182.5" font-family="Helvetica,sans-Serif" font-size="10.00">blond/utilities.h</text>
</a>
</g>
<!-- Node2&#45;&gt;Node6 -->
<g id="edge10" class="edge"><title>Node2&#45;&gt;Node6</title>
<path fill="none" stroke="midnightblue" d="M545.553,-232.922C546.188,-224.67 546.955,-214.692 547.625,-205.982"/>
<polygon fill="midnightblue" stroke="midnightblue" points="551.127,-206.091 548.405,-195.852 544.148,-205.554 551.127,-206.091"/>
</g>
<!-- Node4 -->
<g id="node7" class="node"><title>Node4</title>
<polygon fill="white" stroke="#bfbfbf" points="869.739,-58.5 869.739,-79.5 922.739,-79.5 922.739,-58.5 869.739,-58.5"/>
<text text-anchor="middle" x="896.239" y="-66.5" font-family="Helvetica,sans-Serif" font-size="10.00">complex</text>
</g>
<!-- Node3&#45;&gt;Node4 -->
<g id="edge6" class="edge"><title>Node3&#45;&gt;Node4</title>
<path fill="none" stroke="midnightblue" d="M896.239,-116.362C896.239,-108.922 896.239,-98.7427 896.239,-89.7276"/>
<polygon fill="midnightblue" stroke="midnightblue" points="899.739,-89.5706 896.239,-79.5707 892.739,-89.5707 899.739,-89.5706"/>
</g>
<!-- Node3&#45;&gt;Node5 -->
<g id="edge8" class="edge"><title>Node3&#45;&gt;Node5</title>
<path fill="none" stroke="midnightblue" d="M847.888,-116.497C793.68,-104.721 707.325,-85.9625 661.027,-75.9053"/>
<polygon fill="midnightblue" stroke="midnightblue" points="661.757,-72.4821 651.242,-73.7795 660.271,-79.3226 661.757,-72.4821"/>
</g>
<!-- Node6&#45;&gt;Node3 -->
<g id="edge34" class="edge"><title>Node6&#45;&gt;Node3</title>
<path fill="none" stroke="midnightblue" d="M590.543,-177.846C598.092,-176.555 605.901,-175.228 613.239,-174 708.228,-158.101 734.462,-154.892 832.446,-138.29"/>
<polygon fill="midnightblue" stroke="midnightblue" points="833.206,-141.711 842.479,-136.586 832.034,-134.81 833.206,-141.711"/>
</g>
<!-- Node6&#45;&gt;Node5 -->
<g id="edge30" class="edge"><title>Node6&#45;&gt;Node5</title>
<path fill="none" stroke="midnightblue" d="M569.034,-174.365C582.538,-166.137 599.803,-153.537 610.239,-138 619.956,-123.535 624.729,-104.209 627.058,-89.6906"/>
<polygon fill="midnightblue" stroke="midnightblue" points="630.54,-90.0627 628.405,-79.6852 623.602,-89.1291 630.54,-90.0627"/>
</g>
<!-- Node7 -->
<g id="node13" class="node"><title>Node7</title>
<polygon fill="white" stroke="#bfbfbf" points="657.239,-116.5 657.239,-137.5 703.239,-137.5 703.239,-116.5 657.239,-116.5"/>
<text text-anchor="middle" x="680.239" y="-124.5" font-family="Helvetica,sans-Serif" font-size="10.00">chrono</text>
</g>
<!-- Node6&#45;&gt;Node7 -->
<g id="edge12" class="edge"><title>Node6&#45;&gt;Node7</title>
<path fill="none" stroke="midnightblue" d="M572.962,-174.497C593.865,-165.242 624.511,-151.674 647.7,-141.407"/>
<polygon fill="midnightblue" stroke="midnightblue" points="649.406,-144.479 657.132,-137.231 646.572,-138.079 649.406,-144.479"/>
</g>
<!-- Node8 -->
<g id="node15" class="node"><title>Node8</title>
<polygon fill="white" stroke="#bfbfbf" points="720.739,-116.5 720.739,-137.5 763.739,-137.5 763.739,-116.5 720.739,-116.5"/>
<text text-anchor="middle" x="742.239" y="-124.5" font-family="Helvetica,sans-Serif" font-size="10.00">cstdio</text>
</g>
<!-- Node6&#45;&gt;Node8 -->
<g id="edge14" class="edge"><title>Node6&#45;&gt;Node8</title>
<path fill="none" stroke="midnightblue" d="M588.67,-174.471C619.693,-166 664.195,-153.437 710.975,-138.283"/>
<polygon fill="midnightblue" stroke="midnightblue" points="712.254,-141.547 720.673,-135.115 710.08,-134.893 712.254,-141.547"/>
</g>
<!-- Node9 -->
<g id="node17" class="node"><title>Node9</title>
<polygon fill="white" stroke="#bfbfbf" points="780.739,-116.5 780.739,-137.5 825.739,-137.5 825.739,-116.5 780.739,-116.5"/>
<text text-anchor="middle" x="803.239" y="-124.5" font-family="Helvetica,sans-Serif" font-size="10.00">cstdlib</text>
</g>
<!-- Node6&#45;&gt;Node9 -->
<g id="edge16" class="edge"><title>Node6&#45;&gt;Node9</title>
<path fill="none" stroke="midnightblue" d="M590.328,-178.037C633.263,-170.388 702.694,-156.967 770.652,-138.209"/>
<polygon fill="midnightblue" stroke="midnightblue" points="771.98,-141.471 780.664,-135.402 770.091,-134.731 771.98,-141.471"/>
</g>
<!-- Node10 -->
<g id="node19" class="node"><title>Node10</title>
<polygon fill="white" stroke="#bfbfbf" points="17.2393,-116.5 17.2393,-137.5 67.2393,-137.5 67.2393,-116.5 17.2393,-116.5"/>
<text text-anchor="middle" x="42.2393" y="-124.5" font-family="Helvetica,sans-Serif" font-size="10.00">fstream</text>
</g>
<!-- Node6&#45;&gt;Node10 -->
<g id="edge18" class="edge"><title>Node6&#45;&gt;Node10</title>
<path fill="none" stroke="midnightblue" d="M507.982,-183.861C426.952,-180.988 241.372,-171.278 77.5863,-137.906"/>
<polygon fill="midnightblue" stroke="midnightblue" points="77.831,-134.382 67.3286,-135.779 76.4094,-141.237 77.831,-134.382"/>
</g>
<!-- Node11 -->
<g id="node21" class="node"><title>Node11</title>
<polygon fill="white" stroke="#bfbfbf" points="85.2393,-116.5 85.2393,-137.5 139.239,-137.5 139.239,-116.5 85.2393,-116.5"/>
<text text-anchor="middle" x="112.239" y="-124.5" font-family="Helvetica,sans-Serif" font-size="10.00">iostream</text>
</g>
<!-- Node6&#45;&gt;Node11 -->
<g id="edge20" class="edge"><title>Node6&#45;&gt;Node11</title>
<path fill="none" stroke="midnightblue" d="M508.149,-182.631C436.876,-177.993 285.689,-165.827 149.796,-138.039"/>
<polygon fill="midnightblue" stroke="midnightblue" points="150.127,-134.533 139.624,-135.923 148.702,-141.386 150.127,-134.533"/>
</g>
<!-- Node12 -->
<g id="node23" class="node"><title>Node12</title>
<polygon fill="white" stroke="#bfbfbf" points="156.739,-116.5 156.739,-137.5 203.739,-137.5 203.739,-116.5 156.739,-116.5"/>
<text text-anchor="middle" x="180.239" y="-124.5" font-family="Helvetica,sans-Serif" font-size="10.00">iterator</text>
</g>
<!-- Node6&#45;&gt;Node12 -->
<g id="edge22" class="edge"><title>Node6&#45;&gt;Node12</title>
<path fill="none" stroke="midnightblue" d="M508.044,-181.828C445.935,-176.488 324.61,-163.887 213.852,-138.06"/>
<polygon fill="midnightblue" stroke="midnightblue" points="214.393,-134.591 203.855,-135.685 212.775,-141.402 214.393,-134.591"/>
</g>
<!-- Node13 -->
<g id="node25" class="node"><title>Node13</title>
<polygon fill="white" stroke="#bfbfbf" points="221.239,-116.5 221.239,-137.5 273.239,-137.5 273.239,-116.5 221.239,-116.5"/>
<text text-anchor="middle" x="247.239" y="-124.5" font-family="Helvetica,sans-Serif" font-size="10.00">memory</text>
</g>
<!-- Node6&#45;&gt;Node13 -->
<g id="edge24" class="edge"><title>Node6&#45;&gt;Node13</title>
<path fill="none" stroke="midnightblue" d="M508.185,-179.47C457.423,-172.26 368.272,-158.385 283.311,-138.041"/>
<polygon fill="midnightblue" stroke="midnightblue" points="284.053,-134.619 273.509,-135.66 282.4,-141.421 284.053,-134.619"/>
</g>
<!-- Node14 -->
<g id="node27" class="node"><title>Node14</title>
<polygon fill="white" stroke="#bfbfbf" points="291.239,-116.5 291.239,-137.5 343.239,-137.5 343.239,-116.5 291.239,-116.5"/>
<text text-anchor="middle" x="317.239" y="-124.5" font-family="Helvetica,sans-Serif" font-size="10.00">sstream</text>
</g>
<!-- Node6&#45;&gt;Node14 -->
<g id="edge26" class="edge"><title>Node6&#45;&gt;Node14</title>
<path fill="none" stroke="midnightblue" d="M507.897,-176.025C469.996,-167.6 412.127,-154.24 353.371,-138.193"/>
<polygon fill="midnightblue" stroke="midnightblue" points="354.124,-134.77 343.554,-135.488 352.265,-141.518 354.124,-134.77"/>
</g>
<!-- Node15 -->
<g id="node29" class="node"><title>Node15</title>
<polygon fill="white" stroke="#bfbfbf" points="360.739,-116.5 360.739,-137.5 401.739,-137.5 401.739,-116.5 360.739,-116.5"/>
<text text-anchor="middle" x="381.239" y="-124.5" font-family="Helvetica,sans-Serif" font-size="10.00">string</text>
</g>
<!-- Node6&#45;&gt;Node15 -->
<g id="edge28" class="edge"><title>Node6&#45;&gt;Node15</title>
<path fill="none" stroke="midnightblue" d="M516.824,-174.411C490.62,-165.769 452.568,-153.035 411.458,-138.367"/>
<polygon fill="midnightblue" stroke="midnightblue" points="412.395,-134.985 401.8,-134.905 410.033,-141.574 412.395,-134.985"/>
</g>
<!-- Node16 -->
<g id="node32" class="node"><title>Node16</title>
<polygon fill="white" stroke="#bfbfbf" points="419.239,-116.5 419.239,-137.5 479.239,-137.5 479.239,-116.5 419.239,-116.5"/>
<text text-anchor="middle" x="449.239" y="-124.5" font-family="Helvetica,sans-Serif" font-size="10.00">sys/stat.h</text>
</g>
<!-- Node6&#45;&gt;Node16 -->
<g id="edge32" class="edge"><title>Node6&#45;&gt;Node16</title>
<path fill="none" stroke="midnightblue" d="M530.898,-174.362C515.674,-165.532 493.798,-152.844 476.519,-142.822"/>
<polygon fill="midnightblue" stroke="midnightblue" points="477.871,-139.56 467.465,-137.571 474.359,-145.615 477.871,-139.56"/>
</g>
<!-- Node17 -->
<g id="node35" class="node"><title>Node17</title>
<a xlink:href="../../da/d69/optionparser_8h.html" target="_top" xlink:title="This is the only file required to use The Lean Mean C++ Option Parser. Just #include it and you&#39;re se...">
<polygon fill="white" stroke="black" points="497.239,-116.5 497.239,-137.5 601.239,-137.5 601.239,-116.5 497.239,-116.5"/>
<text text-anchor="middle" x="549.239" y="-124.5" font-family="Helvetica,sans-Serif" font-size="10.00">blond/optionparser.h</text>
</a>
</g>
<!-- Node6&#45;&gt;Node17 -->
<g id="edge36" class="edge"><title>Node6&#45;&gt;Node17</title>
<path fill="none" stroke="midnightblue" d="M549.239,-174.362C549.239,-166.922 549.239,-156.743 549.239,-147.728"/>
<polygon fill="midnightblue" stroke="midnightblue" points="552.739,-147.571 549.239,-137.571 545.739,-147.571 552.739,-147.571"/>
</g>
<!-- Node18&#45;&gt;Node2 -->
<g id="edge70" class="edge"><title>Node18&#45;&gt;Node2</title>
<path fill="none" stroke="midnightblue" d="M701.216,-430.272C668.004,-423.19 627.798,-409.685 600.239,-384 569.55,-355.398 555.098,-307.371 548.74,-277.251"/>
<polygon fill="midnightblue" stroke="midnightblue" points="552.169,-276.548 546.815,-267.406 545.299,-277.891 552.169,-276.548"/>
</g>
<!-- Node18&#45;&gt;Node19 -->
<g id="edge42" class="edge"><title>Node18&#45;&gt;Node19</title>
<path fill="none" stroke="midnightblue" d="M729.519,-420.922C714.758,-411.387 697.637,-399.546 684.836,-390.02"/>
<polygon fill="midnightblue" stroke="midnightblue" points="686.82,-387.132 676.746,-383.852 682.576,-392.699 686.82,-387.132"/>
</g>
<!-- Node20 -->
<g id="node42" class="node"><title>Node20</title>
<a xlink:href="../../d5/d87/globals_8h.html" target="_top" xlink:title="blond/globals.h">
<polygon fill="white" stroke="black" points="697.239,-304.5 697.239,-325.5 779.239,-325.5 779.239,-304.5 697.239,-304.5"/>
<text text-anchor="middle" x="738.239" y="-312.5" font-family="Helvetica,sans-Serif" font-size="10.00">blond/globals.h</text>
</a>
</g>
<!-- Node18&#45;&gt;Node20 -->
<g id="edge110" class="edge"><title>Node18&#45;&gt;Node20</title>
<path fill="none" stroke="midnightblue" d="M752.335,-420.897C745.953,-398.673 738.89,-359.886 736.76,-335.929"/>
<polygon fill="midnightblue" stroke="midnightblue" points="740.244,-335.556 736.142,-325.787 733.257,-335.982 740.244,-335.556"/>
</g>
<!-- Node23 -->
<g id="node59" class="node"><title>Node23</title>
<a xlink:href="../../d2/de2/math__functions_8h.html" target="_top" xlink:title="blond/math_functions.h">
<polygon fill="white" stroke="black" points="1094.24,-239.5 1094.24,-260.5 1212.24,-260.5 1212.24,-239.5 1094.24,-239.5"/>
<text text-anchor="middle" x="1153.24" y="-247.5" font-family="Helvetica,sans-Serif" font-size="10.00">blond/math_functions.h</text>
</a>
</g>
<!-- Node18&#45;&gt;Node23 -->
<g id="edge72" class="edge"><title>Node18&#45;&gt;Node23</title>
<path fill="none" stroke="midnightblue" d="M795.809,-420.985C871.937,-384.567 1049.59,-299.581 1121.84,-265.019"/>
<polygon fill="midnightblue" stroke="midnightblue" points="1123.41,-268.151 1130.92,-260.678 1120.39,-261.836 1123.41,-268.151"/>
</g>
<!-- Node34 -->
<g id="node87" class="node"><title>Node34</title>
<a xlink:href="../../d2/d6f/constants_8h.html" target="_top" xlink:title="blond/constants.h">
<polygon fill="white" stroke="black" points="835.239,-304.5 835.239,-325.5 929.239,-325.5 929.239,-304.5 835.239,-304.5"/>
<text text-anchor="middle" x="882.239" y="-312.5" font-family="Helvetica,sans-Serif" font-size="10.00">blond/constants.h</text>
</a>
</g>
<!-- Node18&#45;&gt;Node34 -->
<g id="edge106" class="edge"><title>Node18&#45;&gt;Node34</title>
<path fill="none" stroke="midnightblue" d="M780.86,-420.845C792.954,-410.517 808.342,-396.906 821.239,-384 837.525,-367.703 854.803,-347.892 866.797,-333.685"/>
<polygon fill="midnightblue" stroke="midnightblue" points="869.792,-335.561 873.526,-325.646 864.424,-331.068 869.792,-335.561"/>
</g>
<!-- Node19&#45;&gt;Node2 -->
<g id="edge66" class="edge"><title>Node19&#45;&gt;Node2</title>
<path fill="none" stroke="midnightblue" d="M654.824,-362.303C644.811,-352.86 629.913,-338.665 617.239,-326 600.268,-309.041 581.528,-289.513 567.285,-274.499"/>
<polygon fill="midnightblue" stroke="midnightblue" points="569.695,-271.954 560.28,-267.096 564.611,-276.765 569.695,-271.954"/>
</g>
<!-- Node19&#45;&gt;Node3 -->
<g id="edge62" class="edge"><title>Node19&#45;&gt;Node3</title>
<path fill="none" stroke="midnightblue" d="M667.707,-362.286C671.487,-337.584 683.287,-275.43 711.239,-232 742.178,-183.93 803.34,-155.602 846.865,-140.717"/>
<polygon fill="midnightblue" stroke="midnightblue" points="848.015,-144.023 856.417,-137.568 845.824,-137.375 848.015,-144.023"/>
</g>
<!-- Node19&#45;&gt;Node6 -->
<g id="edge64" class="edge"><title>Node19&#45;&gt;Node6</title>
<path fill="none" stroke="midnightblue" d="M662.991,-362.281C654.057,-333.234 628.69,-253.739 612.239,-232 602.897,-219.654 589.46,-209.019 577.394,-201.004"/>
<polygon fill="midnightblue" stroke="midnightblue" points="579.249,-198.036 568.928,-195.644 575.505,-203.95 579.249,-198.036"/>
</g>
<!-- Node19&#45;&gt;Node18 -->
<g id="edge68" class="edge"><title>Node19&#45;&gt;Node18</title>
<path fill="none" stroke="midnightblue" d="M686.806,-383.658C700.512,-392.105 718.473,-404.216 733.273,-414.862"/>
<polygon fill="midnightblue" stroke="midnightblue" points="731.426,-417.847 741.565,-420.922 735.556,-412.196 731.426,-417.847"/>
</g>
<!-- Node19&#45;&gt;Node20 -->
<g id="edge44" class="edge"><title>Node19&#45;&gt;Node20</title>
<path fill="none" stroke="midnightblue" d="M674.081,-362.362C683.219,-353.777 698.132,-341.546 711.379,-331.664"/>
<polygon fill="midnightblue" stroke="midnightblue" points="713.732,-334.28 719.765,-325.571 709.618,-328.617 713.732,-334.28"/>
</g>
<!-- Node20&#45;&gt;Node2 -->
<g id="edge46" class="edge"><title>Node20&#45;&gt;Node2</title>
<path fill="none" stroke="midnightblue" d="M706.638,-304.412C679.178,-295.212 638.63,-281.626 604.921,-270.332"/>
<polygon fill="midnightblue" stroke="midnightblue" points="605.752,-266.919 595.158,-267.06 603.528,-273.556 605.752,-266.919"/>
</g>
<!-- Node20&#45;&gt;Node18 -->
<g id="edge48" class="edge"><title>Node20&#45;&gt;Node18</title>
<path fill="none" stroke="midnightblue" d="M744.196,-325.787C750.49,-344.594 758.09,-383.926 761.071,-410.654"/>
<polygon fill="midnightblue" stroke="midnightblue" points="757.613,-411.265 762.025,-420.897 764.583,-410.616 757.613,-411.265"/>
</g>
<!-- Node20&#45;&gt;Node19 -->
<g id="edge50" class="edge"><title>Node20&#45;&gt;Node19</title>
<path fill="none" stroke="midnightblue" d="M730.469,-325.571C721.362,-334.136 706.459,-346.364 693.204,-356.259"/>
<polygon fill="midnightblue" stroke="midnightblue" points="690.84,-353.651 684.809,-362.362 694.956,-359.312 690.84,-353.651"/>
</g>
<!-- Node20&#45;&gt;Node21 -->
<g id="edge52" class="edge"><title>Node20&#45;&gt;Node21</title>
<path fill="none" stroke="midnightblue" d="M744.349,-304.267C749.737,-294.801 757.72,-280.777 764.221,-269.357"/>
<polygon fill="midnightblue" stroke="midnightblue" points="767.338,-270.956 769.243,-260.534 761.254,-267.493 767.338,-270.956"/>
</g>
<!-- Node21&#45;&gt;Node3 -->
<g id="edge54" class="edge"><title>Node21&#45;&gt;Node3</title>
<path fill="none" stroke="midnightblue" d="M774.445,-239.414C773.824,-223.468 774.96,-193.122 790.239,-174 802.486,-158.674 820.769,-148.205 838.719,-141.117"/>
<polygon fill="midnightblue" stroke="midnightblue" points="840.414,-144.225 848.616,-137.517 838.022,-137.646 840.414,-144.225"/>
</g>
<!-- Node21&#45;&gt;Node6 -->
<g id="edge56" class="edge"><title>Node21&#45;&gt;Node6</title>
<path fill="none" stroke="midnightblue" d="M738.677,-239.484C699.701,-228.274 637.885,-210.496 595.537,-198.316"/>
<polygon fill="midnightblue" stroke="midnightblue" points="596.327,-194.901 585.749,-195.501 594.392,-201.628 596.327,-194.901"/>
</g>
<!-- Node21&#45;&gt;Node18 -->
<g id="edge58" class="edge"><title>Node21&#45;&gt;Node18</title>
<path fill="none" stroke="midnightblue" d="M778.586,-260.622C781.797,-271.415 786.421,-288.679 788.239,-304 792.71,-341.669 780.722,-384.455 771.06,-411.335"/>
<polygon fill="midnightblue" stroke="midnightblue" points="767.74,-410.222 767.51,-420.814 774.295,-412.677 767.74,-410.222"/>
</g>
<!-- Node22 -->
<g id="node52" class="node"><title>Node22</title>
<polygon fill="white" stroke="#bfbfbf" points="798.739,-174.5 798.739,-195.5 833.739,-195.5 833.739,-174.5 798.739,-174.5"/>
<text text-anchor="middle" x="816.239" y="-182.5" font-family="Helvetica,sans-Serif" font-size="10.00">map</text>
</g>
<!-- Node21&#45;&gt;Node22 -->
<g id="edge60" class="edge"><title>Node21&#45;&gt;Node22</title>
<path fill="none" stroke="midnightblue" d="M782.01,-239.267C788.04,-229.707 797.003,-215.496 804.245,-204.015"/>
<polygon fill="midnightblue" stroke="midnightblue" points="807.22,-205.859 809.595,-195.534 801.3,-202.124 807.22,-205.859"/>
</g>
<!-- Node23&#45;&gt;Node3 -->
<g id="edge76" class="edge"><title>Node23&#45;&gt;Node3</title>
<path fill="none" stroke="midnightblue" d="M1165.34,-239.457C1181.84,-223.834 1207.48,-194.21 1190.24,-174 1175.47,-156.68 1041.82,-140.942 959.891,-132.81"/>
<polygon fill="midnightblue" stroke="midnightblue" points="960.215,-129.325 949.921,-131.832 959.532,-136.292 960.215,-129.325"/>
</g>
<!-- Node23&#45;&gt;Node6 -->
<g id="edge94" class="edge"><title>Node23&#45;&gt;Node6</title>
<path fill="none" stroke="midnightblue" d="M1094.23,-243.649C975.918,-230.917 711.561,-202.468 600.223,-190.487"/>
<polygon fill="midnightblue" stroke="midnightblue" points="600.569,-187.004 590.252,-189.414 599.82,-193.964 600.569,-187.004"/>
</g>
<!-- Node24 -->
<g id="node61" class="node"><title>Node24</title>
<polygon fill="white" stroke="#bfbfbf" points="1125.24,-174.5 1125.24,-195.5 1181.24,-195.5 1181.24,-174.5 1125.24,-174.5"/>
<text text-anchor="middle" x="1153.24" y="-182.5" font-family="Helvetica,sans-Serif" font-size="10.00">algorithm</text>
</g>
<!-- Node23&#45;&gt;Node24 -->
<g id="edge74" class="edge"><title>Node23&#45;&gt;Node24</title>
<path fill="none" stroke="midnightblue" d="M1153.24,-239.267C1153.24,-230.18 1153.24,-216.892 1153.24,-205.74"/>
<polygon fill="midnightblue" stroke="midnightblue" points="1156.74,-205.534 1153.24,-195.534 1149.74,-205.534 1156.74,-205.534"/>
</g>
<!-- Node25 -->
<g id="node64" class="node"><title>Node25</title>
<a xlink:href="../../d8/dcd/exp_8h.html" target="_top" xlink:title="blond/exp.h">
<polygon fill="white" stroke="black" points="1356.74,-174.5 1356.74,-195.5 1423.74,-195.5 1423.74,-174.5 1356.74,-174.5"/>
<text text-anchor="middle" x="1390.24" y="-182.5" font-family="Helvetica,sans-Serif" font-size="10.00">blond/exp.h</text>
</a>
</g>
<!-- Node23&#45;&gt;Node25 -->
<g id="edge78" class="edge"><title>Node23&#45;&gt;Node25</title>
<path fill="none" stroke="midnightblue" d="M1191.58,-239.484C1234,-227.851 1302.21,-209.142 1346.63,-196.959"/>
<polygon fill="midnightblue" stroke="midnightblue" points="1347.84,-200.258 1356.56,-194.238 1345.99,-193.507 1347.84,-200.258"/>
</g>
<!-- Node27 -->
<g id="node68" class="node"><title>Node27</title>
<polygon fill="white" stroke="#bfbfbf" points="1346.24,-0.5 1346.24,-21.5 1390.24,-21.5 1390.24,-0.5 1346.24,-0.5"/>
<text text-anchor="middle" x="1368.24" y="-8.5" font-family="Helvetica,sans-Serif" font-size="10.00">cmath</text>
</g>
<!-- Node23&#45;&gt;Node27 -->
<g id="edge96" class="edge"><title>Node23&#45;&gt;Node27</title>
<path fill="none" stroke="midnightblue" d="M1212.37,-247.119C1285.85,-242.157 1404.92,-229.109 1432.24,-196 1448.73,-176.006 1507.21,-215.196 1427.24,-58 1420.76,-45.2572 1409.07,-34.8352 1397.8,-27.0722"/>
<polygon fill="midnightblue" stroke="midnightblue" points="1399.67,-24.1094 1389.36,-21.6596 1395.89,-30.0027 1399.67,-24.1094"/>
</g>
<!-- Node28 -->
<g id="node70" class="node"><title>Node28</title>
<polygon fill="white" stroke="#bfbfbf" points="1322.24,-116.5 1322.24,-137.5 1362.24,-137.5 1362.24,-116.5 1322.24,-116.5"/>
<text text-anchor="middle" x="1342.24" y="-124.5" font-family="Helvetica,sans-Serif" font-size="10.00">limits</text>
</g>
<!-- Node23&#45;&gt;Node28 -->
<g id="edge100" class="edge"><title>Node23&#45;&gt;Node28</title>
<path fill="none" stroke="midnightblue" d="M1212.33,-241.274C1244.51,-233.894 1283.16,-220.422 1310.24,-196 1324.36,-183.261 1332.72,-163.013 1337.34,-147.739"/>
<polygon fill="midnightblue" stroke="midnightblue" points="1340.82,-148.242 1340.06,-137.675 1334.07,-146.413 1340.82,-148.242"/>
</g>
<!-- Node29 -->
<g id="node72" class="node"><title>Node29</title>
<a xlink:href="../../d1/d3d/sin_8h.html" target="_top" xlink:title="blond/sin.h">
<polygon fill="white" stroke="black" points="1237.24,-174.5 1237.24,-195.5 1301.24,-195.5 1301.24,-174.5 1237.24,-174.5"/>
<text text-anchor="middle" x="1269.24" y="-182.5" font-family="Helvetica,sans-Serif" font-size="10.00">blond/sin.h</text>
</a>
</g>
<!-- Node23&#45;&gt;Node29 -->
<g id="edge86" class="edge"><title>Node23&#45;&gt;Node29</title>
<path fill="none" stroke="midnightblue" d="M1172.13,-239.412C1190.93,-228.883 1219.97,-212.611 1241.4,-200.602"/>
<polygon fill="midnightblue" stroke="midnightblue" points="1243.34,-203.525 1250.35,-195.584 1239.92,-197.419 1243.34,-203.525"/>
</g>
<!-- Node31 -->
<g id="node80" class="node"><title>Node31</title>
<polygon fill="white" stroke="#bfbfbf" points="888.739,-174.5 888.739,-195.5 937.739,-195.5 937.739,-174.5 888.739,-174.5"/>
<text text-anchor="middle" x="913.239" y="-182.5" font-family="Helvetica,sans-Serif" font-size="10.00">random</text>
</g>
<!-- Node23&#45;&gt;Node31 -->
<g id="edge98" class="edge"><title>Node23&#45;&gt;Node31</title>
<path fill="none" stroke="midnightblue" d="M1109.39,-239.461C1069.47,-229.664 1008.7,-214.253 947.819,-196.359"/>
<polygon fill="midnightblue" stroke="midnightblue" points="948.632,-192.95 938.049,-193.467 946.644,-199.662 948.632,-192.95"/>
</g>
<!-- Node32 -->
<g id="node83" class="node"><title>Node32</title>
<polygon fill="white" stroke="#bfbfbf" points="954.739,-174.5 954.739,-195.5 1003.74,-195.5 1003.74,-174.5 954.739,-174.5"/>
<text text-anchor="middle" x="979.239" y="-182.5" font-family="Helvetica,sans-Serif" font-size="10.00">cassert</text>
</g>
<!-- Node23&#45;&gt;Node32 -->
<g id="edge102" class="edge"><title>Node23&#45;&gt;Node32</title>
<path fill="none" stroke="midnightblue" d="M1124.9,-239.412C1094.44,-228.034 1046.03,-209.95 1013.47,-197.786"/>
<polygon fill="midnightblue" stroke="midnightblue" points="1014.5,-194.436 1003.91,-194.216 1012.05,-200.994 1014.5,-194.436"/>
</g>
<!-- Node33 -->
<g id="node85" class="node"><title>Node33</title>
<a xlink:href="../../d1/db0/openmp_8h.html" target="_top" xlink:title="blond/openmp.h">
<polygon fill="white" stroke="black" points="1021.24,-174.5 1021.24,-195.5 1107.24,-195.5 1107.24,-174.5 1021.24,-174.5"/>
<text text-anchor="middle" x="1064.24" y="-182.5" font-family="Helvetica,sans-Serif" font-size="10.00">blond/openmp.h</text>
</a>
</g>
<!-- Node23&#45;&gt;Node33 -->
<g id="edge104" class="edge"><title>Node23&#45;&gt;Node33</title>
<path fill="none" stroke="midnightblue" d="M1138.54,-239.267C1124.55,-229.044 1103.27,-213.504 1087.06,-201.67"/>
<polygon fill="midnightblue" stroke="midnightblue" points="1088.8,-198.605 1078.66,-195.534 1084.67,-204.258 1088.8,-198.605"/>
</g>
<!-- Node26 -->
<g id="node66" class="node"><title>Node26</title>
<a xlink:href="../../df/de1/vdtcore__common_8h.html" target="_top" xlink:title="vdtcore_common.h">
<polygon fill="white" stroke="black" points="1318.24,-58.5 1318.24,-79.5 1418.24,-79.5 1418.24,-58.5 1318.24,-58.5"/>
<text text-anchor="middle" x="1368.24" y="-66.5" font-family="Helvetica,sans-Serif" font-size="10.00">vdtcore_common.h</text>
</a>
</g>
<!-- Node25&#45;&gt;Node26 -->
<g id="edge80" class="edge"><title>Node25&#45;&gt;Node26</title>
<path fill="none" stroke="midnightblue" d="M1388.21,-174.295C1384.56,-155.045 1376.83,-114.289 1372.13,-89.5091"/>
<polygon fill="midnightblue" stroke="midnightblue" points="1375.57,-88.8519 1370.26,-79.6792 1368.69,-90.1563 1375.57,-88.8519"/>
</g>
<!-- Node25&#45;&gt;Node28 -->
<g id="edge84" class="edge"><title>Node25&#45;&gt;Node28</title>
<path fill="none" stroke="midnightblue" d="M1381.44,-174.362C1374.74,-166.268 1365.36,-154.932 1357.45,-145.38"/>
<polygon fill="midnightblue" stroke="midnightblue" points="1360.06,-143.043 1350.99,-137.571 1354.67,-147.506 1360.06,-143.043"/>
</g>
<!-- Node26&#45;&gt;Node27 -->
<g id="edge82" class="edge"><title>Node26&#45;&gt;Node27</title>
<path fill="none" stroke="midnightblue" d="M1368.24,-58.3619C1368.24,-50.9219 1368.24,-40.7427 1368.24,-31.7276"/>
<polygon fill="midnightblue" stroke="midnightblue" points="1371.74,-31.5706 1368.24,-21.5707 1364.74,-31.5707 1371.74,-31.5706"/>
</g>
<!-- Node30 -->
<g id="node74" class="node"><title>Node30</title>
<a xlink:href="../../dc/dfa/sincos_8h.html" target="_top" xlink:title="sincos.h">
<polygon fill="white" stroke="black" points="1251.74,-116.5 1251.74,-137.5 1304.74,-137.5 1304.74,-116.5 1251.74,-116.5"/>
<text text-anchor="middle" x="1278.24" y="-124.5" font-family="Helvetica,sans-Serif" font-size="10.00">sincos.h</text>
</a>
</g>
<!-- Node29&#45;&gt;Node30 -->
<g id="edge88" class="edge"><title>Node29&#45;&gt;Node30</title>
<path fill="none" stroke="midnightblue" d="M1270.89,-174.362C1272.04,-166.922 1273.62,-156.743 1275.02,-147.728"/>
<polygon fill="midnightblue" stroke="midnightblue" points="1278.52,-147.989 1276.6,-137.571 1271.61,-146.916 1278.52,-147.989"/>
</g>
<!-- Node30&#45;&gt;Node26 -->
<g id="edge90" class="edge"><title>Node30&#45;&gt;Node26</title>
<path fill="none" stroke="midnightblue" d="M1294.75,-116.362C1308.32,-107.614 1327.77,-95.0786 1343.25,-85.1015"/>
<polygon fill="midnightblue" stroke="midnightblue" points="1345.33,-87.9297 1351.84,-79.5707 1341.53,-82.0457 1345.33,-87.9297"/>
</g>
<!-- Node30&#45;&gt;Node27 -->
<g id="edge92" class="edge"><title>Node30&#45;&gt;Node27</title>
<path fill="none" stroke="midnightblue" d="M1281.28,-116.345C1285.73,-102.024 1295.06,-76.2567 1309.24,-58 1318.46,-46.1301 1331.26,-35.4581 1342.59,-27.295"/>
<polygon fill="midnightblue" stroke="midnightblue" points="1344.65,-30.1292 1350.88,-21.5634 1340.67,-24.3712 1344.65,-30.1292"/>
</g>
<!-- Node34&#45;&gt;Node3 -->
<g id="edge108" class="edge"><title>Node34&#45;&gt;Node3</title>
<path fill="none" stroke="midnightblue" d="M880.803,-304.291C877.904,-280.605 872.282,-222.064 880.239,-174 881.744,-164.912 884.781,-155.22 887.808,-147.013"/>
<polygon fill="midnightblue" stroke="midnightblue" points="891.12,-148.155 891.522,-137.568 884.606,-145.594 891.12,-148.155"/>
</g>
</g>
</svg>
