<?xml version="1.0" encoding="UTF-8" standalone="no"?>
<!DOCTYPE svg PUBLIC "-//W3C//DTD SVG 1.1//EN"
 "http://www.w3.org/Graphics/SVG/1.1/DTD/svg11.dtd">
<!-- Generated by graphviz version 2.26.3 (20100126.1600)
 -->
<!-- Title: plot_beams.h Pages: 1 -->
<svg width="1399pt" height="522pt"
 viewBox="0.00 0.00 1399.47 522.00" xmlns="http://www.w3.org/2000/svg" xmlns:xlink="http://www.w3.org/1999/xlink">
<g id="graph1" class="graph" transform="scale(1 1) rotate(0) translate(4 518)">
<title>plot_beams.h</title>
<polygon fill="white" stroke="white" points="-4,5 -4,-518 1396.47,-518 1396.47,5 -4,5"/>
<!-- Node1 -->
<g id="node1" class="node"><title>Node1</title>
<polygon fill="#bfbfbf" stroke="black" points="193.45,-492.5 193.45,-513.5 268.45,-513.5 268.45,-492.5 193.45,-492.5"/>
<text text-anchor="middle" x="230.95" y="-500.5" font-family="Helvetica,sans-Serif" font-size="10.00">plot_beams.h</text>
</g>
<!-- Node2 -->
<g id="node3" class="node"><title>Node2</title>
<a xlink:href="../../d5/d34/GeneralParameters_8h.html" target="_top" xlink:title="blond/input_parameters\l/GeneralParameters.h">
<polygon fill="white" stroke="black" points="293.95,-233 293.95,-267 411.95,-267 411.95,-233 293.95,-233"/>
<text text-anchor="start" x="301.95" y="-254" font-family="Helvetica,sans-Serif" font-size="10.00">blond/input_parameters</text>
<text text-anchor="middle" x="352.95" y="-241" font-family="Helvetica,sans-Serif" font-size="10.00">/GeneralParameters.h</text>
</a>
</g>
<!-- Node1&#45;&gt;Node2 -->
<g id="edge2" class="edge"><title>Node1&#45;&gt;Node2</title>
<path fill="none" stroke="midnightblue" d="M247.722,-492.431C275.557,-473.978 331.083,-433.124 359.95,-384 378.238,-352.879 380.606,-339.477 373.95,-304 372.217,-294.762 368.952,-285.074 365.503,-276.495"/>
<polygon fill="midnightblue" stroke="midnightblue" points="368.604,-274.844 361.452,-267.027 362.168,-277.597 368.604,-274.844"/>
</g>
<!-- Node19 -->
<g id="node40" class="node"><title>Node19</title>
<a xlink:href="../../d6/db7/RfParameters_8h.html" target="_top" xlink:title="blond/input_parameters\l/RfParameters.h">
<polygon fill="white" stroke="black" points="128.95,-421 128.95,-455 246.95,-455 246.95,-421 128.95,-421"/>
<text text-anchor="start" x="136.95" y="-442" font-family="Helvetica,sans-Serif" font-size="10.00">blond/input_parameters</text>
<text text-anchor="middle" x="187.95" y="-429" font-family="Helvetica,sans-Serif" font-size="10.00">/RfParameters.h</text>
</a>
</g>
<!-- Node1&#45;&gt;Node19 -->
<g id="edge42" class="edge"><title>Node1&#45;&gt;Node19</title>
<path fill="none" stroke="midnightblue" d="M223.85,-492.267C218.684,-484.458 211.466,-473.546 204.855,-463.554"/>
<polygon fill="midnightblue" stroke="midnightblue" points="207.706,-461.519 199.269,-455.11 201.868,-465.381 207.706,-461.519"/>
</g>
<!-- Node20 -->
<g id="node42" class="node"><title>Node20</title>
<a xlink:href="../../d7/d74/Beams_8h.html" target="_top" xlink:title="blond/beams/Beams.h">
<polygon fill="white" stroke="black" points="217.95,-362.5 217.95,-383.5 331.95,-383.5 331.95,-362.5 217.95,-362.5"/>
<text text-anchor="middle" x="274.95" y="-370.5" font-family="Helvetica,sans-Serif" font-size="10.00">blond/beams/Beams.h</text>
</a>
</g>
<!-- Node1&#45;&gt;Node20 -->
<g id="edge114" class="edge"><title>Node1&#45;&gt;Node20</title>
<path fill="none" stroke="midnightblue" d="M237.768,-492.18C243.356,-482.893 251.106,-468.99 255.95,-456 263.62,-435.435 268.784,-410.805 271.769,-393.743"/>
<polygon fill="midnightblue" stroke="midnightblue" points="275.245,-394.179 273.421,-383.742 268.338,-393.038 275.245,-394.179"/>
</g>
<!-- Node22 -->
<g id="node49" class="node"><title>Node22</title>
<a xlink:href="../../dc/df2/Slices_8h.html" target="_top" xlink:title="blond/beams/Slices.h">
<polygon fill="white" stroke="black" points="104.95,-239.5 104.95,-260.5 214.95,-260.5 214.95,-239.5 104.95,-239.5"/>
<text text-anchor="middle" x="159.95" y="-247.5" font-family="Helvetica,sans-Serif" font-size="10.00">blond/beams/Slices.h</text>
</a>
</g>
<!-- Node1&#45;&gt;Node22 -->
<g id="edge116" class="edge"><title>Node1&#45;&gt;Node22</title>
<path fill="none" stroke="midnightblue" d="M195.417,-492.416C172.566,-484.572 142.956,-472.398 119.95,-456 56.6525,-410.882 30.799,-398.572 2.95041,-326 -13.5267,-283.061 44.8043,-264.321 94.9811,-256.181"/>
<polygon fill="midnightblue" stroke="midnightblue" points="95.5157,-259.64 104.883,-254.69 94.4735,-252.718 95.5157,-259.64"/>
</g>
<!-- Node3 -->
<g id="node5" class="node"><title>Node3</title>
<a xlink:href="../../d2/d2c/configuration_8h.html" target="_top" xlink:title="blond/configuration.h">
<polygon fill="white" stroke="black" points="140.45,-116.5 140.45,-137.5 247.45,-137.5 247.45,-116.5 140.45,-116.5"/>
<text text-anchor="middle" x="193.95" y="-124.5" font-family="Helvetica,sans-Serif" font-size="10.00">blond/configuration.h</text>
</a>
</g>
<!-- Node2&#45;&gt;Node3 -->
<g id="edge4" class="edge"><title>Node2&#45;&gt;Node3</title>
<path fill="none" stroke="midnightblue" d="M330.842,-232.897C300.553,-209.466 246.466,-167.625 216.137,-144.163"/>
<polygon fill="midnightblue" stroke="midnightblue" points="217.946,-141.138 207.895,-137.787 213.663,-146.675 217.946,-141.138"/>
</g>
<!-- Node5 -->
<g id="node9" class="node"><title>Node5</title>
<polygon fill="white" stroke="#bfbfbf" points="252.95,-58.5 252.95,-79.5 296.95,-79.5 296.95,-58.5 252.95,-58.5"/>
<text text-anchor="middle" x="274.95" y="-66.5" font-family="Helvetica,sans-Serif" font-size="10.00">vector</text>
</g>
<!-- Node2&#45;&gt;Node5 -->
<g id="edge40" class="edge"><title>Node2&#45;&gt;Node5</title>
<path fill="none" stroke="midnightblue" d="M344.439,-232.719C333.792,-210.87 315.225,-171.998 300.95,-138 294.158,-121.822 287.186,-103.189 282.174,-89.3661"/>
<polygon fill="midnightblue" stroke="midnightblue" points="285.432,-88.0831 278.758,-79.8543 278.844,-90.4488 285.432,-88.0831"/>
</g>
<!-- Node6 -->
<g id="node11" class="node"><title>Node6</title>
<a xlink:href="../../de/df0/utilities_8h.html" target="_top" xlink:title="blond/utilities.h">
<polygon fill="white" stroke="black" points="645.95,-174.5 645.95,-195.5 727.95,-195.5 727.95,-174.5 645.95,-174.5"/>
<text text-anchor="middle" x="686.95" y="-182.5" font-family="Helvetica,sans-Serif" font-size="10.00">blond/utilities.h</text>
</a>
</g>
<!-- Node2&#45;&gt;Node6 -->
<g id="edge10" class="edge"><title>Node2&#45;&gt;Node6</title>
<path fill="none" stroke="midnightblue" d="M412.099,-237.792C421.738,-235.834 431.619,-233.846 440.95,-232 508.191,-218.7 585.9,-203.958 635.689,-194.593"/>
<polygon fill="midnightblue" stroke="midnightblue" points="636.387,-198.023 645.569,-192.737 635.094,-191.144 636.387,-198.023"/>
</g>
<!-- Node4 -->
<g id="node7" class="node"><title>Node4</title>
<polygon fill="white" stroke="#bfbfbf" points="167.45,-58.5 167.45,-79.5 220.45,-79.5 220.45,-58.5 167.45,-58.5"/>
<text text-anchor="middle" x="193.95" y="-66.5" font-family="Helvetica,sans-Serif" font-size="10.00">complex</text>
</g>
<!-- Node3&#45;&gt;Node4 -->
<g id="edge6" class="edge"><title>Node3&#45;&gt;Node4</title>
<path fill="none" stroke="midnightblue" d="M193.95,-116.362C193.95,-108.922 193.95,-98.7427 193.95,-89.7276"/>
<polygon fill="midnightblue" stroke="midnightblue" points="197.451,-89.5706 193.95,-79.5707 190.451,-89.5707 197.451,-89.5706"/>
</g>
<!-- Node3&#45;&gt;Node5 -->
<g id="edge8" class="edge"><title>Node3&#45;&gt;Node5</title>
<path fill="none" stroke="midnightblue" d="M208.807,-116.362C220.796,-107.777 237.878,-95.5459 251.679,-85.6636"/>
<polygon fill="midnightblue" stroke="midnightblue" points="254.095,-88.2383 260.188,-79.5707 250.02,-82.5469 254.095,-88.2383"/>
</g>
<!-- Node6&#45;&gt;Node3 -->
<g id="edge34" class="edge"><title>Node6&#45;&gt;Node3</title>
<path fill="none" stroke="midnightblue" d="M645.765,-180.155C559.739,-170.034 360.462,-146.59 257.731,-134.504"/>
<polygon fill="midnightblue" stroke="midnightblue" points="257.837,-130.992 247.497,-133.3 257.019,-137.944 257.837,-130.992"/>
</g>
<!-- Node6&#45;&gt;Node5 -->
<g id="edge30" class="edge"><title>Node6&#45;&gt;Node5</title>
<path fill="none" stroke="midnightblue" d="M645.747,-183.301C564.109,-179.332 385.106,-167.454 331.95,-138 311.273,-126.543 295.041,-104.333 285.273,-88.1983"/>
<polygon fill="midnightblue" stroke="midnightblue" points="288.305,-86.4498 280.285,-79.5275 282.238,-89.9407 288.305,-86.4498"/>
</g>
<!-- Node7 -->
<g id="node13" class="node"><title>Node7</title>
<polygon fill="white" stroke="#bfbfbf" points="632.95,-116.5 632.95,-137.5 678.95,-137.5 678.95,-116.5 632.95,-116.5"/>
<text text-anchor="middle" x="655.95" y="-124.5" font-family="Helvetica,sans-Serif" font-size="10.00">chrono</text>
</g>
<!-- Node6&#45;&gt;Node7 -->
<g id="edge12" class="edge"><title>Node6&#45;&gt;Node7</title>
<path fill="none" stroke="midnightblue" d="M681.265,-174.362C677.113,-166.595 671.366,-155.843 666.397,-146.546"/>
<polygon fill="midnightblue" stroke="midnightblue" points="669.401,-144.74 661.6,-137.571 663.227,-148.04 669.401,-144.74"/>
</g>
<!-- Node8 -->
<g id="node15" class="node"><title>Node8</title>
<polygon fill="white" stroke="#bfbfbf" points="696.45,-116.5 696.45,-137.5 739.45,-137.5 739.45,-116.5 696.45,-116.5"/>
<text text-anchor="middle" x="717.95" y="-124.5" font-family="Helvetica,sans-Serif" font-size="10.00">cstdio</text>
</g>
<!-- Node6&#45;&gt;Node8 -->
<g id="edge14" class="edge"><title>Node6&#45;&gt;Node8</title>
<path fill="none" stroke="midnightblue" d="M692.636,-174.362C696.788,-166.595 702.535,-155.843 707.504,-146.546"/>
<polygon fill="midnightblue" stroke="midnightblue" points="710.674,-148.04 712.301,-137.571 704.5,-144.74 710.674,-148.04"/>
</g>
<!-- Node9 -->
<g id="node17" class="node"><title>Node9</title>
<polygon fill="white" stroke="#bfbfbf" points="756.45,-116.5 756.45,-137.5 801.45,-137.5 801.45,-116.5 756.45,-116.5"/>
<text text-anchor="middle" x="778.95" y="-124.5" font-family="Helvetica,sans-Serif" font-size="10.00">cstdlib</text>
</g>
<!-- Node6&#45;&gt;Node9 -->
<g id="edge16" class="edge"><title>Node6&#45;&gt;Node9</title>
<path fill="none" stroke="midnightblue" d="M703.825,-174.362C717.701,-165.614 737.584,-153.079 753.41,-143.101"/>
<polygon fill="midnightblue" stroke="midnightblue" points="755.59,-145.864 762.183,-137.571 751.857,-139.943 755.59,-145.864"/>
</g>
<!-- Node10 -->
<g id="node19" class="node"><title>Node10</title>
<polygon fill="white" stroke="#bfbfbf" points="818.95,-116.5 818.95,-137.5 868.95,-137.5 868.95,-116.5 818.95,-116.5"/>
<text text-anchor="middle" x="843.95" y="-124.5" font-family="Helvetica,sans-Serif" font-size="10.00">fstream</text>
</g>
<!-- Node6&#45;&gt;Node10 -->
<g id="edge18" class="edge"><title>Node6&#45;&gt;Node10</title>
<path fill="none" stroke="midnightblue" d="M715.382,-174.497C741.783,-164.743 781.152,-150.199 809.364,-139.777"/>
<polygon fill="midnightblue" stroke="midnightblue" points="810.671,-143.026 818.839,-136.277 808.245,-136.459 810.671,-143.026"/>
</g>
<!-- Node11 -->
<g id="node21" class="node"><title>Node11</title>
<polygon fill="white" stroke="#bfbfbf" points="886.95,-116.5 886.95,-137.5 940.95,-137.5 940.95,-116.5 886.95,-116.5"/>
<text text-anchor="middle" x="913.95" y="-124.5" font-family="Helvetica,sans-Serif" font-size="10.00">iostream</text>
</g>
<!-- Node6&#45;&gt;Node11 -->
<g id="edge20" class="edge"><title>Node6&#45;&gt;Node11</title>
<path fill="none" stroke="midnightblue" d="M728.105,-175.567C764.78,-167.006 820.126,-153.708 876.99,-138.169"/>
<polygon fill="midnightblue" stroke="midnightblue" points="878.157,-141.478 886.87,-135.45 876.3,-134.728 878.157,-141.478"/>
</g>
<!-- Node12 -->
<g id="node23" class="node"><title>Node12</title>
<polygon fill="white" stroke="#bfbfbf" points="958.45,-116.5 958.45,-137.5 1005.45,-137.5 1005.45,-116.5 958.45,-116.5"/>
<text text-anchor="middle" x="981.95" y="-124.5" font-family="Helvetica,sans-Serif" font-size="10.00">iterator</text>
</g>
<!-- Node6&#45;&gt;Node12 -->
<g id="edge22" class="edge"><title>Node6&#45;&gt;Node12</title>
<path fill="none" stroke="midnightblue" d="M728.375,-179.614C778.565,-172.646 865.767,-159.125 948.505,-138.113"/>
<polygon fill="midnightblue" stroke="midnightblue" points="949.501,-141.47 958.309,-135.582 947.751,-134.693 949.501,-141.47"/>
</g>
<!-- Node13 -->
<g id="node25" class="node"><title>Node13</title>
<polygon fill="white" stroke="#bfbfbf" points="1022.95,-116.5 1022.95,-137.5 1074.95,-137.5 1074.95,-116.5 1022.95,-116.5"/>
<text text-anchor="middle" x="1048.95" y="-124.5" font-family="Helvetica,sans-Serif" font-size="10.00">memory</text>
</g>
<!-- Node6&#45;&gt;Node13 -->
<g id="edge24" class="edge"><title>Node6&#45;&gt;Node13</title>
<path fill="none" stroke="midnightblue" d="M728.123,-181.241C788.613,-175.249 905.116,-161.925 1012.66,-138.02"/>
<polygon fill="midnightblue" stroke="midnightblue" points="1013.72,-141.369 1022.7,-135.75 1012.18,-134.541 1013.72,-141.369"/>
</g>
<!-- Node14 -->
<g id="node27" class="node"><title>Node14</title>
<polygon fill="white" stroke="#bfbfbf" points="1092.95,-116.5 1092.95,-137.5 1144.95,-137.5 1144.95,-116.5 1092.95,-116.5"/>
<text text-anchor="middle" x="1118.95" y="-124.5" font-family="Helvetica,sans-Serif" font-size="10.00">sstream</text>
</g>
<!-- Node6&#45;&gt;Node14 -->
<g id="edge26" class="edge"><title>Node6&#45;&gt;Node14</title>
<path fill="none" stroke="midnightblue" d="M728.228,-182.659C799.063,-178.091 948.338,-166.066 1082.66,-137.963"/>
<polygon fill="midnightblue" stroke="midnightblue" points="1083.67,-141.328 1092.72,-135.822 1082.21,-134.481 1083.67,-141.328"/>
</g>
<!-- Node15 -->
<g id="node29" class="node"><title>Node15</title>
<polygon fill="white" stroke="#bfbfbf" points="1162.45,-116.5 1162.45,-137.5 1203.45,-137.5 1203.45,-116.5 1162.45,-116.5"/>
<text text-anchor="middle" x="1182.95" y="-124.5" font-family="Helvetica,sans-Serif" font-size="10.00">string</text>
</g>
<!-- Node6&#45;&gt;Node15 -->
<g id="edge28" class="edge"><title>Node6&#45;&gt;Node15</title>
<path fill="none" stroke="midnightblue" d="M727.997,-182.255C822.902,-175.693 1056.17,-158.277 1152.3,-137.845"/>
<polygon fill="midnightblue" stroke="midnightblue" points="1153.26,-141.215 1162.25,-135.599 1151.72,-134.387 1153.26,-141.215"/>
</g>
<!-- Node16 -->
<g id="node32" class="node"><title>Node16</title>
<polygon fill="white" stroke="#bfbfbf" points="340.95,-116.5 340.95,-137.5 400.95,-137.5 400.95,-116.5 340.95,-116.5"/>
<text text-anchor="middle" x="370.95" y="-124.5" font-family="Helvetica,sans-Serif" font-size="10.00">sys/stat.h</text>
</g>
<!-- Node6&#45;&gt;Node16 -->
<g id="edge32" class="edge"><title>Node6&#45;&gt;Node16</title>
<path fill="none" stroke="midnightblue" d="M645.85,-179.428C593.489,-172.021 500.051,-157.777 411.087,-138.086"/>
<polygon fill="midnightblue" stroke="midnightblue" points="411.626,-134.62 401.103,-135.848 410.095,-141.45 411.626,-134.62"/>
</g>
<!-- Node17 -->
<g id="node35" class="node"><title>Node17</title>
<polygon fill="white" stroke="#bfbfbf" points="418.45,-116.5 418.45,-137.5 493.45,-137.5 493.45,-116.5 418.45,-116.5"/>
<text text-anchor="middle" x="455.95" y="-124.5" font-family="Helvetica,sans-Serif" font-size="10.00">mm_malloc.h</text>
</g>
<!-- Node6&#45;&gt;Node17 -->
<g id="edge36" class="edge"><title>Node6&#45;&gt;Node17</title>
<path fill="none" stroke="midnightblue" d="M645.918,-174.698C605.95,-164.662 545.24,-149.419 503.258,-138.878"/>
<polygon fill="midnightblue" stroke="midnightblue" points="504.093,-135.479 493.542,-136.439 502.389,-142.269 504.093,-135.479"/>
</g>
<!-- Node18 -->
<g id="node37" class="node"><title>Node18</title>
<a xlink:href="../../da/d69/optionparser_8h.html" target="_top" xlink:title="This is the only file required to use The Lean Mean C++ Option Parser. Just #include it and you&#39;re se...">
<polygon fill="white" stroke="black" points="510.95,-116.5 510.95,-137.5 614.95,-137.5 614.95,-116.5 510.95,-116.5"/>
<text text-anchor="middle" x="562.95" y="-124.5" font-family="Helvetica,sans-Serif" font-size="10.00">blond/optionparser.h</text>
</a>
</g>
<!-- Node6&#45;&gt;Node18 -->
<g id="edge38" class="edge"><title>Node6&#45;&gt;Node18</title>
<path fill="none" stroke="midnightblue" d="M664.495,-174.497C645.04,-165.397 616.671,-152.127 594.86,-141.925"/>
<polygon fill="midnightblue" stroke="midnightblue" points="596.199,-138.688 585.658,-137.621 593.233,-145.028 596.199,-138.688"/>
</g>
<!-- Node19&#45;&gt;Node2 -->
<g id="edge72" class="edge"><title>Node19&#45;&gt;Node2</title>
<path fill="none" stroke="midnightblue" d="M247.088,-424.16C284.866,-414.052 328.941,-399.461 340.95,-384 364.558,-353.607 362.748,-306.829 358.46,-277.347"/>
<polygon fill="midnightblue" stroke="midnightblue" points="361.889,-276.628 356.81,-267.33 354.982,-277.766 361.889,-276.628"/>
</g>
<!-- Node19&#45;&gt;Node20 -->
<g id="edge44" class="edge"><title>Node19&#45;&gt;Node20</title>
<path fill="none" stroke="midnightblue" d="M204.785,-420.922C216.881,-411.141 233.247,-398.934 247.209,-389.289"/>
<polygon fill="midnightblue" stroke="midnightblue" points="249.21,-392.161 255.531,-383.658 245.288,-386.363 249.21,-392.161"/>
</g>
<!-- Node21 -->
<g id="node44" class="node"><title>Node21</title>
<a xlink:href="../../d5/d87/globals_8h.html" target="_top" xlink:title="blond/globals.h">
<polygon fill="white" stroke="black" points="161.95,-304.5 161.95,-325.5 243.95,-325.5 243.95,-304.5 161.95,-304.5"/>
<text text-anchor="middle" x="202.95" y="-312.5" font-family="Helvetica,sans-Serif" font-size="10.00">blond/globals.h</text>
</a>
</g>
<!-- Node19&#45;&gt;Node21 -->
<g id="edge112" class="edge"><title>Node19&#45;&gt;Node21</title>
<path fill="none" stroke="midnightblue" d="M185.191,-420.897C185.496,-398.573 190.14,-359.535 195.244,-335.605"/>
<polygon fill="midnightblue" stroke="midnightblue" points="198.67,-336.329 197.608,-325.787 191.864,-334.69 198.67,-336.329"/>
</g>
<!-- Node24 -->
<g id="node61" class="node"><title>Node24</title>
<a xlink:href="../../d2/de2/math__functions_8h.html" target="_top" xlink:title="blond/math_functions.h">
<polygon fill="white" stroke="black" points="998.95,-239.5 998.95,-260.5 1116.95,-260.5 1116.95,-239.5 998.95,-239.5"/>
<text text-anchor="middle" x="1057.95" y="-247.5" font-family="Helvetica,sans-Serif" font-size="10.00">blond/math_functions.h</text>
</a>
</g>
<!-- Node19&#45;&gt;Node24 -->
<g id="edge74" class="edge"><title>Node19&#45;&gt;Node24</title>
<path fill="none" stroke="midnightblue" d="M247.065,-425.226C405.927,-390.897 840.739,-296.938 999.19,-262.698"/>
<polygon fill="midnightblue" stroke="midnightblue" points="1000.19,-266.063 1009.22,-260.53 998.708,-259.221 1000.19,-266.063"/>
</g>
<!-- Node35 -->
<g id="node89" class="node"><title>Node35</title>
<a xlink:href="../../d2/d6f/constants_8h.html" target="_top" xlink:title="blond/constants.h">
<polygon fill="white" stroke="black" points="11.9504,-304.5 11.9504,-325.5 105.95,-325.5 105.95,-304.5 11.9504,-304.5"/>
<text text-anchor="middle" x="58.9504" y="-312.5" font-family="Helvetica,sans-Serif" font-size="10.00">blond/constants.h</text>
</a>
</g>
<!-- Node19&#45;&gt;Node35 -->
<g id="edge108" class="edge"><title>Node19&#45;&gt;Node35</title>
<path fill="none" stroke="midnightblue" d="M164.45,-420.96C150.95,-410.78 133.95,-397.28 119.95,-384 103.235,-368.144 86.0105,-348.277 74.1461,-333.938"/>
<polygon fill="midnightblue" stroke="midnightblue" points="76.5417,-331.339 67.5039,-325.81 71.1212,-335.768 76.5417,-331.339"/>
</g>
<!-- Node20&#45;&gt;Node2 -->
<g id="edge68" class="edge"><title>Node20&#45;&gt;Node2</title>
<path fill="none" stroke="midnightblue" d="M281.872,-362.085C294.065,-342.857 319.681,-302.464 336.597,-275.788"/>
<polygon fill="midnightblue" stroke="midnightblue" points="339.569,-277.637 341.969,-267.317 333.657,-273.888 339.569,-277.637"/>
</g>
<!-- Node20&#45;&gt;Node3 -->
<g id="edge64" class="edge"><title>Node20&#45;&gt;Node3</title>
<path fill="none" stroke="midnightblue" d="M272.932,-362.354C267.003,-332.105 248.256,-243.36 219.95,-174 216.152,-164.692 210.941,-154.888 206.182,-146.656"/>
<polygon fill="midnightblue" stroke="midnightblue" points="209.048,-144.629 200.913,-137.84 203.039,-148.22 209.048,-144.629"/>
</g>
<!-- Node20&#45;&gt;Node6 -->
<g id="edge66" class="edge"><title>Node20&#45;&gt;Node6</title>
<path fill="none" stroke="midnightblue" d="M297.984,-362.489C367.355,-330.835 574.444,-236.338 654.686,-199.723"/>
<polygon fill="midnightblue" stroke="midnightblue" points="656.18,-202.888 663.825,-195.552 653.274,-196.52 656.18,-202.888"/>
</g>
<!-- Node20&#45;&gt;Node19 -->
<g id="edge70" class="edge"><title>Node20&#45;&gt;Node19</title>
<path fill="none" stroke="midnightblue" d="M265.612,-383.852C255.77,-392.3 240.107,-404.328 225.359,-414.902"/>
<polygon fill="midnightblue" stroke="midnightblue" points="222.982,-412.295 216.832,-420.922 227.02,-418.014 222.982,-412.295"/>
</g>
<!-- Node20&#45;&gt;Node21 -->
<g id="edge46" class="edge"><title>Node20&#45;&gt;Node21</title>
<path fill="none" stroke="midnightblue" d="M256.38,-362.362C244.552,-354.023 229.631,-342.242 218.439,-332.516"/>
<polygon fill="midnightblue" stroke="midnightblue" points="220.495,-329.658 210.72,-325.571 215.813,-334.861 220.495,-329.658"/>
</g>
<!-- Node21&#45;&gt;Node2 -->
<g id="edge48" class="edge"><title>Node21&#45;&gt;Node2</title>
<path fill="none" stroke="midnightblue" d="M227.384,-304.412C248.16,-295.409 278.627,-282.207 304.346,-271.062"/>
<polygon fill="midnightblue" stroke="midnightblue" points="305.796,-274.248 313.58,-267.06 303.013,-267.825 305.796,-274.248"/>
</g>
<!-- Node21&#45;&gt;Node19 -->
<g id="edge50" class="edge"><title>Node21&#45;&gt;Node19</title>
<path fill="none" stroke="midnightblue" d="M205.662,-325.787C206.301,-344.678 202.03,-384.276 196.941,-411.01"/>
<polygon fill="midnightblue" stroke="midnightblue" points="193.494,-410.394 194.881,-420.897 200.347,-411.821 193.494,-410.394"/>
</g>
<!-- Node21&#45;&gt;Node20 -->
<g id="edge52" class="edge"><title>Node21&#45;&gt;Node20</title>
<path fill="none" stroke="midnightblue" d="M221.425,-325.571C233.236,-333.891 248.159,-345.668 259.371,-355.405"/>
<polygon fill="midnightblue" stroke="midnightblue" points="257.332,-358.278 267.109,-362.362 262.013,-353.073 257.332,-358.278"/>
</g>
<!-- Node21&#45;&gt;Node22 -->
<g id="edge54" class="edge"><title>Node21&#45;&gt;Node22</title>
<path fill="none" stroke="midnightblue" d="M195.85,-304.267C189.526,-294.707 180.125,-280.496 172.53,-269.015"/>
<polygon fill="midnightblue" stroke="midnightblue" points="175.355,-266.943 166.919,-260.534 169.517,-270.805 175.355,-266.943"/>
</g>
<!-- Node22&#45;&gt;Node3 -->
<g id="edge56" class="edge"><title>Node22&#45;&gt;Node3</title>
<path fill="none" stroke="midnightblue" d="M159.75,-239.407C159.76,-224.469 160.857,-196.525 167.95,-174 171.003,-164.306 176.169,-154.348 181.095,-146.108"/>
<polygon fill="midnightblue" stroke="midnightblue" points="184.061,-147.966 186.43,-137.639 178.138,-144.234 184.061,-147.966"/>
</g>
<!-- Node22&#45;&gt;Node6 -->
<g id="edge58" class="edge"><title>Node22&#45;&gt;Node6</title>
<path fill="none" stroke="midnightblue" d="M214.978,-241.753C236.752,-238.575 262.014,-234.992 284.95,-232 410.724,-215.595 558.997,-198.957 635.508,-190.571"/>
<polygon fill="midnightblue" stroke="midnightblue" points="636.257,-194.01 645.817,-189.443 635.496,-187.051 636.257,-194.01"/>
</g>
<!-- Node22&#45;&gt;Node19 -->
<g id="edge60" class="edge"><title>Node22&#45;&gt;Node19</title>
<path fill="none" stroke="midnightblue" d="M158.147,-260.718C156.415,-271.586 153.925,-288.906 152.95,-304 152.321,-313.757 151.475,-316.334 152.95,-326 157.535,-356.038 168.658,-389.094 177.145,-411.454"/>
<polygon fill="midnightblue" stroke="midnightblue" points="173.941,-412.873 180.826,-420.926 180.466,-410.337 173.941,-412.873"/>
</g>
<!-- Node23 -->
<g id="node54" class="node"><title>Node23</title>
<polygon fill="white" stroke="#bfbfbf" points="176.45,-174.5 176.45,-195.5 211.45,-195.5 211.45,-174.5 176.45,-174.5"/>
<text text-anchor="middle" x="193.95" y="-182.5" font-family="Helvetica,sans-Serif" font-size="10.00">map</text>
</g>
<!-- Node22&#45;&gt;Node23 -->
<g id="edge62" class="edge"><title>Node22&#45;&gt;Node23</title>
<path fill="none" stroke="midnightblue" d="M165.565,-239.267C170.466,-229.896 177.705,-216.057 183.646,-204.7"/>
<polygon fill="midnightblue" stroke="midnightblue" points="186.907,-206.017 188.44,-195.534 180.704,-202.772 186.907,-206.017"/>
</g>
<!-- Node24&#45;&gt;Node3 -->
<g id="edge78" class="edge"><title>Node24&#45;&gt;Node3</title>
<path fill="none" stroke="midnightblue" d="M998.62,-242.901C917.049,-233.024 765.72,-214.283 636.95,-196 501.802,-176.811 343.926,-151.532 257.884,-137.512"/>
<polygon fill="midnightblue" stroke="midnightblue" points="258.186,-134.015 247.753,-135.859 257.059,-140.924 258.186,-134.015"/>
</g>
<!-- Node24&#45;&gt;Node6 -->
<g id="edge96" class="edge"><title>Node24&#45;&gt;Node6</title>
<path fill="none" stroke="midnightblue" d="M998.754,-239.629C926.757,-227.015 806.417,-205.931 738.21,-193.981"/>
<polygon fill="midnightblue" stroke="midnightblue" points="738.585,-190.493 728.131,-192.215 737.377,-197.388 738.585,-190.493"/>
</g>
<!-- Node25 -->
<g id="node63" class="node"><title>Node25</title>
<polygon fill="white" stroke="#bfbfbf" points="1269.95,-174.5 1269.95,-195.5 1325.95,-195.5 1325.95,-174.5 1269.95,-174.5"/>
<text text-anchor="middle" x="1297.95" y="-182.5" font-family="Helvetica,sans-Serif" font-size="10.00">algorithm</text>
</g>
<!-- Node24&#45;&gt;Node25 -->
<g id="edge76" class="edge"><title>Node24&#45;&gt;Node25</title>
<path fill="none" stroke="midnightblue" d="M1098.87,-239.486C1137.85,-229.389 1198.42,-213.485 1259.83,-196.267"/>
<polygon fill="midnightblue" stroke="midnightblue" points="1261.01,-199.57 1269.69,-193.493 1259.12,-192.831 1261.01,-199.57"/>
</g>
<!-- Node26 -->
<g id="node66" class="node"><title>Node26</title>
<a xlink:href="../../d8/dcd/exp_8h.html" target="_top" xlink:title="blond/exp.h">
<polygon fill="white" stroke="black" points="949.45,-174.5 949.45,-195.5 1016.45,-195.5 1016.45,-174.5 949.45,-174.5"/>
<text text-anchor="middle" x="982.95" y="-182.5" font-family="Helvetica,sans-Serif" font-size="10.00">blond/exp.h</text>
</a>
</g>
<!-- Node24&#45;&gt;Node26 -->
<g id="edge80" class="edge"><title>Node24&#45;&gt;Node26</title>
<path fill="none" stroke="midnightblue" d="M1045.57,-239.267C1033.99,-229.233 1016.5,-214.078 1002.95,-202.331"/>
<polygon fill="midnightblue" stroke="midnightblue" points="1004.95,-199.438 995.105,-195.534 1000.37,-204.728 1004.95,-199.438"/>
</g>
<!-- Node28 -->
<g id="node70" class="node"><title>Node28</title>
<polygon fill="white" stroke="#bfbfbf" points="1287.95,-0.5 1287.95,-21.5 1331.95,-21.5 1331.95,-0.5 1287.95,-0.5"/>
<text text-anchor="middle" x="1309.95" y="-8.5" font-family="Helvetica,sans-Serif" font-size="10.00">cmath</text>
</g>
<!-- Node24&#45;&gt;Node28 -->
<g id="edge98" class="edge"><title>Node24&#45;&gt;Node28</title>
<path fill="none" stroke="midnightblue" d="M1117.1,-245.856C1192.77,-239.451 1318.34,-224.762 1353.95,-196 1401.94,-157.233 1399.93,-111.354 1368.95,-58 1361.67,-45.4554 1349.64,-34.9675 1338.34,-27.1049"/>
<polygon fill="midnightblue" stroke="midnightblue" points="1340.22,-24.1502 1329.93,-21.6136 1336.39,-30.0114 1340.22,-24.1502"/>
</g>
<!-- Node29 -->
<g id="node72" class="node"><title>Node29</title>
<polygon fill="white" stroke="#bfbfbf" points="1328.95,-116.5 1328.95,-137.5 1368.95,-137.5 1368.95,-116.5 1328.95,-116.5"/>
<text text-anchor="middle" x="1348.95" y="-124.5" font-family="Helvetica,sans-Serif" font-size="10.00">limits</text>
</g>
<!-- Node24&#45;&gt;Node29 -->
<g id="edge102" class="edge"><title>Node24&#45;&gt;Node29</title>
<path fill="none" stroke="midnightblue" d="M1117.25,-246.04C1189.28,-239.978 1304.91,-225.81 1334.95,-196 1347.52,-183.529 1350.35,-163.081 1350.43,-147.676"/>
<polygon fill="midnightblue" stroke="midnightblue" points="1353.93,-147.419 1350.11,-137.535 1346.93,-147.641 1353.93,-147.419"/>
</g>
<!-- Node30 -->
<g id="node74" class="node"><title>Node30</title>
<a xlink:href="../../d1/d3d/sin_8h.html" target="_top" xlink:title="blond/sin.h">
<polygon fill="white" stroke="black" points="867.95,-174.5 867.95,-195.5 931.95,-195.5 931.95,-174.5 867.95,-174.5"/>
<text text-anchor="middle" x="899.95" y="-182.5" font-family="Helvetica,sans-Serif" font-size="10.00">blond/sin.h</text>
</a>
</g>
<!-- Node24&#45;&gt;Node30 -->
<g id="edge88" class="edge"><title>Node24&#45;&gt;Node30</title>
<path fill="none" stroke="midnightblue" d="M1032.21,-239.412C1005.82,-228.552 964.568,-211.583 935.158,-199.484"/>
<polygon fill="midnightblue" stroke="midnightblue" points="936.256,-196.151 925.676,-195.584 933.593,-202.625 936.256,-196.151"/>
</g>
<!-- Node32 -->
<g id="node82" class="node"><title>Node32</title>
<polygon fill="white" stroke="#bfbfbf" points="1033.45,-174.5 1033.45,-195.5 1082.45,-195.5 1082.45,-174.5 1033.45,-174.5"/>
<text text-anchor="middle" x="1057.95" y="-182.5" font-family="Helvetica,sans-Serif" font-size="10.00">random</text>
</g>
<!-- Node24&#45;&gt;Node32 -->
<g id="edge100" class="edge"><title>Node24&#45;&gt;Node32</title>
<path fill="none" stroke="midnightblue" d="M1057.95,-239.267C1057.95,-230.18 1057.95,-216.892 1057.95,-205.74"/>
<polygon fill="midnightblue" stroke="midnightblue" points="1061.45,-205.534 1057.95,-195.534 1054.45,-205.534 1061.45,-205.534"/>
</g>
<!-- Node33 -->
<g id="node85" class="node"><title>Node33</title>
<polygon fill="white" stroke="#bfbfbf" points="1099.45,-174.5 1099.45,-195.5 1148.45,-195.5 1148.45,-174.5 1099.45,-174.5"/>
<text text-anchor="middle" x="1123.95" y="-182.5" font-family="Helvetica,sans-Serif" font-size="10.00">cassert</text>
</g>
<!-- Node24&#45;&gt;Node33 -->
<g id="edge104" class="edge"><title>Node24&#45;&gt;Node33</title>
<path fill="none" stroke="midnightblue" d="M1068.85,-239.267C1078.94,-229.328 1094.14,-214.363 1106.01,-202.664"/>
<polygon fill="midnightblue" stroke="midnightblue" points="1108.59,-205.044 1113.25,-195.534 1103.67,-200.057 1108.59,-205.044"/>
</g>
<!-- Node34 -->
<g id="node87" class="node"><title>Node34</title>
<a xlink:href="../../d1/db0/openmp_8h.html" target="_top" xlink:title="blond/openmp.h">
<polygon fill="white" stroke="black" points="1165.95,-174.5 1165.95,-195.5 1251.95,-195.5 1251.95,-174.5 1165.95,-174.5"/>
<text text-anchor="middle" x="1208.95" y="-182.5" font-family="Helvetica,sans-Serif" font-size="10.00">blond/openmp.h</text>
</a>
</g>
<!-- Node24&#45;&gt;Node34 -->
<g id="edge106" class="edge"><title>Node24&#45;&gt;Node34</title>
<path fill="none" stroke="midnightblue" d="M1082.55,-239.412C1107.67,-228.6 1146.85,-211.731 1174.94,-199.642"/>
<polygon fill="midnightblue" stroke="midnightblue" points="1176.56,-202.752 1184.36,-195.584 1173.8,-196.323 1176.56,-202.752"/>
</g>
<!-- Node27 -->
<g id="node68" class="node"><title>Node27</title>
<a xlink:href="../../df/de1/vdtcore__common_8h.html" target="_top" xlink:title="vdtcore_common.h">
<polygon fill="white" stroke="black" points="1259.95,-58.5 1259.95,-79.5 1359.95,-79.5 1359.95,-58.5 1259.95,-58.5"/>
<text text-anchor="middle" x="1309.95" y="-66.5" font-family="Helvetica,sans-Serif" font-size="10.00">vdtcore_common.h</text>
</a>
</g>
<!-- Node26&#45;&gt;Node27 -->
<g id="edge82" class="edge"><title>Node26&#45;&gt;Node27</title>
<path fill="none" stroke="midnightblue" d="M1016.8,-175.772C1019.55,-175.133 1022.29,-174.533 1024.95,-174 1081.5,-162.675 1236.47,-173.459 1281.95,-138 1296.94,-126.31 1303.95,-105.28 1307.2,-89.4994"/>
<polygon fill="midnightblue" stroke="midnightblue" points="1310.66,-90.0401 1308.9,-79.5921 1303.76,-88.8558 1310.66,-90.0401"/>
</g>
<!-- Node26&#45;&gt;Node29 -->
<g id="edge86" class="edge"><title>Node26&#45;&gt;Node29</title>
<path fill="none" stroke="midnightblue" d="M1016.79,-175.726C1019.54,-175.098 1022.29,-174.512 1024.95,-174 1152.5,-149.493 1188.15,-166.116 1314.95,-138 1316.21,-137.72 1317.49,-137.414 1318.78,-137.086"/>
<polygon fill="midnightblue" stroke="midnightblue" points="1319.98,-140.384 1328.63,-134.267 1318.05,-133.654 1319.98,-140.384"/>
</g>
<!-- Node27&#45;&gt;Node28 -->
<g id="edge84" class="edge"><title>Node27&#45;&gt;Node28</title>
<path fill="none" stroke="midnightblue" d="M1309.95,-58.3619C1309.95,-50.9219 1309.95,-40.7427 1309.95,-31.7276"/>
<polygon fill="midnightblue" stroke="midnightblue" points="1313.45,-31.5706 1309.95,-21.5707 1306.45,-31.5707 1313.45,-31.5706"/>
</g>
<!-- Node31 -->
<g id="node76" class="node"><title>Node31</title>
<a xlink:href="../../dc/dfa/sincos_8h.html" target="_top" xlink:title="sincos.h">
<polygon fill="white" stroke="black" points="1220.45,-116.5 1220.45,-137.5 1273.45,-137.5 1273.45,-116.5 1220.45,-116.5"/>
<text text-anchor="middle" x="1246.95" y="-124.5" font-family="Helvetica,sans-Serif" font-size="10.00">sincos.h</text>
</a>
</g>
<!-- Node30&#45;&gt;Node31 -->
<g id="edge90" class="edge"><title>Node30&#45;&gt;Node31</title>
<path fill="none" stroke="midnightblue" d="M932.086,-175.955C935.071,-175.243 938.06,-174.577 940.95,-174 1056.96,-150.835 1091.52,-163.595 1210.47,-138.049"/>
<polygon fill="midnightblue" stroke="midnightblue" points="1211.31,-141.449 1220.33,-135.888 1209.81,-134.612 1211.31,-141.449"/>
</g>
<!-- Node31&#45;&gt;Node27 -->
<g id="edge92" class="edge"><title>Node31&#45;&gt;Node27</title>
<path fill="none" stroke="midnightblue" d="M1258.51,-116.362C1267.56,-108.023 1280.36,-96.2418 1290.92,-86.5162"/>
<polygon fill="midnightblue" stroke="midnightblue" points="1293.48,-88.9187 1298.47,-79.5707 1288.74,-83.7688 1293.48,-88.9187"/>
</g>
<!-- Node31&#45;&gt;Node28 -->
<g id="edge94" class="edge"><title>Node31&#45;&gt;Node28</title>
<path fill="none" stroke="midnightblue" d="M1245.03,-116.49C1242.99,-102.333 1241.24,-76.7515 1250.95,-58 1257.58,-45.2129 1269.4,-34.7389 1280.73,-26.9502"/>
<polygon fill="midnightblue" stroke="midnightblue" points="1282.67,-29.864 1289.2,-21.5238 1278.89,-23.969 1282.67,-29.864"/>
</g>
<!-- Node35&#45;&gt;Node3 -->
<g id="edge110" class="edge"><title>Node35&#45;&gt;Node3</title>
<path fill="none" stroke="midnightblue" d="M62.3705,-304.473C67.9492,-288.14 80.0044,-256.068 95.9504,-232 118.665,-197.716 152.788,-164.025 174.191,-144.394"/>
<polygon fill="midnightblue" stroke="midnightblue" points="176.651,-146.889 181.722,-137.586 171.956,-141.696 176.651,-146.889"/>
</g>
</g>
</svg>
