<?xml version="1.0" encoding="UTF-8" standalone="no"?>
<!DOCTYPE svg PUBLIC "-//W3C//DTD SVG 1.1//EN"
 "http://www.w3.org/Graphics/SVG/1.1/DTD/svg11.dtd">
<!-- Generated by graphviz version 2.26.3 (20100126.1600)
 -->
<!-- Title: GeneralParameters.h Pages: 1 -->
<!--zoomable 436 -->
<svg id="main" version="1.1" xmlns="http://www.w3.org/2000/svg" xmlns:xlink="http://www.w3.org/1999/xlink" xml:space="preserve" onload="init(evt)">
        <defs>
                <circle id="rim" cx="0" cy="0" r="7"/>
                <circle id="rim2" cx="0" cy="0" r="3.5"/>
                <g id="zoomPlus">
                        <use xlink:href="#rim" fill="#404040">
                                <set attributeName="fill" to="#808080" begin="zoomplus.mouseover" end="zoomplus.mouseout"/>
                        </use>
                        <path d="M-4,0h8M0,-4v8" fill="none" stroke="white" stroke-width="1.5" pointer-events="none"/>
                </g>
                <g id="zoomMin">
                        <use xlink:href="#rim" fill="#404040">
                                <set attributeName="fill" to="#808080" begin="zoomminus.mouseover" end="zoomminus.mouseout"/>
                        </use>
                        <path d="M-4,0h8" fill="none" stroke="white" stroke-width="1.5" pointer-events="none"/>
                </g>
                <g id="dirArrow">
                        <path fill="none" stroke="white" stroke-width="1.5" d="M0,-3.0v7 M-2.5,-0.5L0,-3.0L2.5,-0.5"/>
                </g>
               <g id="resetDef">
                       <use xlink:href="#rim2" fill="#404040">
                               <set attributeName="fill" to="#808080" begin="reset.mouseover" end="reset.mouseout"/>
                       </use>
               </g>
        </defs>

<script type="text/javascript">
var viewWidth = 1216;
var viewHeight = 436;
var sectionId = 'dynsection-1';
</script>
<script xlink:href="../../svgpan.js"/>
<svg id="graph" class="graph">
<g id="viewport">
<title>GeneralParameters.h</title>
<polygon fill="white" stroke="white" points="-4,5 -4,-432 1213,-432 1213,5 -4,5"/>
<!-- Node1 -->
<g id="node1" class="node"><title>Node1</title>
<polygon fill="#bfbfbf" stroke="black" points="295.5,-406.5 295.5,-427.5 404.5,-427.5 404.5,-406.5 295.5,-406.5"/>
<text text-anchor="middle" x="350" y="-414.5" font-family="Helvetica,sans-Serif" font-size="10.00">GeneralParameters.h</text>
</g>
<!-- Node2 -->
<g id="node3" class="node"><title>Node2</title>
<a xlink:href="../../da/d56/GeneralParameters_8cpp.html" target="_top" xlink:title="GeneralParameters.cpp">
<polygon fill="white" stroke="black" points="-0.5,-348.5 -0.5,-369.5 118.5,-369.5 118.5,-348.5 -0.5,-348.5"/>
<text text-anchor="middle" x="59" y="-356.5" font-family="Helvetica,sans-Serif" font-size="10.00">GeneralParameters.cpp</text>
</a>
</g>
<!-- Node1&#45;&gt;Node2 -->
<g id="edge2" class="edge"><title>Node1&#45;&gt;Node2</title>
<path fill="none" stroke="midnightblue" d="M287.459,-404.535C235.102,-394.099 161.221,-379.374 111.797,-369.523"/>
<polygon fill="midnightblue" stroke="midnightblue" points="286.811,-407.974 297.302,-406.497 288.179,-401.109 286.811,-407.974"/>
</g>
<!-- Node3 -->
<g id="node5" class="node"><title>Node3</title>
<a xlink:href="../../d7/d74/Beams_8h.html" target="_top" xlink:title="Beams.h">
<polygon fill="white" stroke="black" points="322,-348.5 322,-369.5 378,-369.5 378,-348.5 322,-348.5"/>
<text text-anchor="middle" x="350" y="-356.5" font-family="Helvetica,sans-Serif" font-size="10.00">Beams.h</text>
</a>
</g>
<!-- Node1&#45;&gt;Node3 -->
<g id="edge4" class="edge"><title>Node1&#45;&gt;Node3</title>
<path fill="none" stroke="midnightblue" d="M350,-396.191C350,-387.168 350,-376.994 350,-369.571"/>
<polygon fill="midnightblue" stroke="midnightblue" points="346.5,-396.362 350,-406.362 353.5,-396.362 346.5,-396.362"/>
</g>
<!-- Node5 -->
<g id="node9" class="node"><title>Node5</title>
<a xlink:href="../../d5/d87/globals_8h.html" target="_top" xlink:title="globals.h">
<polygon fill="white" stroke="black" points="542,-232.5 542,-253.5 598,-253.5 598,-232.5 542,-232.5"/>
<text text-anchor="middle" x="570" y="-240.5" font-family="Helvetica,sans-Serif" font-size="10.00">globals.h</text>
</a>
</g>
<!-- Node1&#45;&gt;Node5 -->
<g id="edge78" class="edge"><title>Node1&#45;&gt;Node5</title>
<path fill="none" stroke="midnightblue" d="M375.19,-400.777C405.319,-381.005 456.843,-346.009 498,-312 521.223,-292.811 546.139,-267.831 559.719,-253.796"/>
<polygon fill="midnightblue" stroke="midnightblue" points="373.024,-398.011 366.562,-406.407 376.849,-403.874 373.024,-398.011"/>
</g>
<!-- Node14 -->
<g id="node27" class="node"><title>Node14</title>
<a xlink:href="../../d0/da6/Monitors_8h.html" target="_top" xlink:title="Monitors.h">
<polygon fill="white" stroke="black" points="179,-58.5 179,-79.5 241,-79.5 241,-58.5 179,-58.5"/>
<text text-anchor="middle" x="210" y="-66.5" font-family="Helvetica,sans-Serif" font-size="10.00">Monitors.h</text>
</a>
</g>
<!-- Node1&#45;&gt;Node14 -->
<g id="edge82" class="edge"><title>Node1&#45;&gt;Node14</title>
<path fill="none" stroke="midnightblue" d="M328.785,-399.806C319.096,-391.385 307.837,-380.757 299,-370 260.63,-323.294 252.05,-309.455 228,-254 203.26,-196.954 201.707,-178.092 205,-116 205.661,-103.545 207.299,-89.3108 208.522,-79.8013"/>
<polygon fill="midnightblue" stroke="midnightblue" points="326.575,-402.521 336.468,-406.315 331.1,-397.18 326.575,-402.521"/>
</g>
<!-- Node22 -->
<g id="node45" class="node"><title>Node22</title>
<a xlink:href="../../d6/db7/RfParameters_8h.html" target="_top" xlink:title="RfParameters.h">
<polygon fill="white" stroke="black" points="403,-290.5 403,-311.5 489,-311.5 489,-290.5 403,-290.5"/>
<text text-anchor="middle" x="446" y="-298.5" font-family="Helvetica,sans-Serif" font-size="10.00">RfParameters.h</text>
</a>
</g>
<!-- Node1&#45;&gt;Node22 -->
<g id="edge80" class="edge"><title>Node1&#45;&gt;Node22</title>
<path fill="none" stroke="midnightblue" d="M365.374,-398.424C385.692,-373.872 420.819,-331.427 437.162,-311.679"/>
<polygon fill="midnightblue" stroke="midnightblue" points="362.539,-396.359 358.859,-406.295 367.931,-400.822 362.539,-396.359"/>
</g>
<!-- Node23 -->
<g id="node51" class="node"><title>Node23</title>
<a xlink:href="../../d8/d94/plot__beams_8h.html" target="_top" xlink:title="plot_beams.h">
<polygon fill="white" stroke="black" points="81.5,-232.5 81.5,-253.5 156.5,-253.5 156.5,-232.5 81.5,-232.5"/>
<text text-anchor="middle" x="119" y="-240.5" font-family="Helvetica,sans-Serif" font-size="10.00">plot_beams.h</text>
</a>
</g>
<!-- Node1&#45;&gt;Node23 -->
<g id="edge84" class="edge"><title>Node1&#45;&gt;Node23</title>
<path fill="none" stroke="midnightblue" d="M285.603,-406.483C241.241,-398.088 187.293,-385.233 170,-370 134.164,-338.432 123.162,-278.144 120.088,-253.696"/>
<polygon fill="midnightblue" stroke="midnightblue" points="285.015,-409.933 295.484,-408.31 286.288,-403.05 285.015,-409.933"/>
</g>
<!-- Node24 -->
<g id="node55" class="node"><title>Node24</title>
<a xlink:href="../../d3/dda/plot__llrf_8h.html" target="_top" xlink:title="plot_llrf.h">
<polygon fill="white" stroke="black" points="654,-232.5 654,-253.5 710,-253.5 710,-232.5 654,-232.5"/>
<text text-anchor="middle" x="682" y="-240.5" font-family="Helvetica,sans-Serif" font-size="10.00">plot_llrf.h</text>
</a>
</g>
<!-- Node1&#45;&gt;Node24 -->
<g id="edge86" class="edge"><title>Node1&#45;&gt;Node24</title>
<path fill="none" stroke="midnightblue" d="M382.694,-402.038C402.095,-393.02 427.101,-381.156 449,-370 529.87,-328.804 624.254,-275.805 663.463,-253.563"/>
<polygon fill="midnightblue" stroke="midnightblue" points="380.987,-398.971 373.382,-406.347 383.927,-405.323 380.987,-398.971"/>
</g>
<!-- Node25 -->
<g id="node57" class="node"><title>Node25</title>
<a xlink:href="../../d2/d51/plot__slices_8h.html" target="_top" xlink:title="plot_slices.h">
<polygon fill="white" stroke="black" points="727.5,-232.5 727.5,-253.5 798.5,-253.5 798.5,-232.5 727.5,-232.5"/>
<text text-anchor="middle" x="763" y="-240.5" font-family="Helvetica,sans-Serif" font-size="10.00">plot_slices.h</text>
</a>
</g>
<!-- Node1&#45;&gt;Node25 -->
<g id="edge88" class="edge"><title>Node1&#45;&gt;Node25</title>
<path fill="none" stroke="midnightblue" d="M391.94,-403.213C418.295,-394.295 452.885,-382.125 483,-370 581.04,-330.528 694.922,-276.142 741.492,-253.525"/>
<polygon fill="midnightblue" stroke="midnightblue" points="390.632,-399.96 382.269,-406.465 392.863,-406.595 390.632,-399.96"/>
</g>
<!-- Node27 -->
<g id="node61" class="node"><title>Node27</title>
<a xlink:href="../../de/d44/trackers_2utilities_8h.html" target="_top" xlink:title="utilities.h">
<polygon fill="white" stroke="black" points="252,-232.5 252,-253.5 308,-253.5 308,-232.5 252,-232.5"/>
<text text-anchor="middle" x="280" y="-240.5" font-family="Helvetica,sans-Serif" font-size="10.00">utilities.h</text>
</a>
</g>
<!-- Node1&#45;&gt;Node27 -->
<g id="edge90" class="edge"><title>Node1&#45;&gt;Node27</title>
<path fill="none" stroke="midnightblue" d="M332.767,-398.784C325.76,-390.534 318.123,-380.326 313,-370 293.054,-329.798 284.264,-276.263 281.272,-253.722"/>
<polygon fill="midnightblue" stroke="midnightblue" points="330.193,-401.157 339.448,-406.314 335.429,-396.511 330.193,-401.157"/>
</g>
<!-- Node4 -->
<g id="node7" class="node"><title>Node4</title>
<a xlink:href="../../dc/d0f/Beams_8cpp.html" target="_top" xlink:title="Beams.cpp">
<polygon fill="white" stroke="black" points="322,-174.5 322,-195.5 388,-195.5 388,-174.5 322,-174.5"/>
<text text-anchor="middle" x="355" y="-182.5" font-family="Helvetica,sans-Serif" font-size="10.00">Beams.cpp</text>
</a>
</g>
<!-- Node3&#45;&gt;Node4 -->
<g id="edge6" class="edge"><title>Node3&#45;&gt;Node4</title>
<path fill="none" stroke="midnightblue" d="M350.598,-338.2C351.666,-301.013 353.869,-224.36 354.686,-195.928"/>
<polygon fill="midnightblue" stroke="midnightblue" points="347.094,-338.281 350.305,-348.377 354.091,-338.482 347.094,-338.281"/>
</g>
<!-- Node3&#45;&gt;Node5 -->
<g id="edge8" class="edge"><title>Node3&#45;&gt;Node5</title>
<path fill="none" stroke="midnightblue" d="M357.877,-339.044C365.036,-323.445 377.074,-302.394 394,-290 417.539,-272.763 498.566,-255.959 541.99,-247.917"/>
<polygon fill="midnightblue" stroke="midnightblue" points="354.606,-337.792 353.876,-348.362 361.038,-340.554 354.606,-337.792"/>
</g>
<!-- Node3&#45;&gt;Node14 -->
<g id="edge74" class="edge"><title>Node3&#45;&gt;Node14</title>
<path fill="none" stroke="midnightblue" d="M326.497,-342.347C301.906,-323.659 264.016,-291.061 243,-254 209.527,-194.97 208.662,-109.735 209.515,-79.8469"/>
<polygon fill="midnightblue" stroke="midnightblue" points="324.477,-345.207 334.591,-348.362 328.652,-339.588 324.477,-345.207"/>
</g>
<!-- Node3&#45;&gt;Node22 -->
<g id="edge46" class="edge"><title>Node3&#45;&gt;Node22</title>
<path fill="none" stroke="midnightblue" d="M370.653,-342.821C386.149,-332.831 407.15,-320.299 423.152,-311.571"/>
<polygon fill="midnightblue" stroke="midnightblue" points="368.668,-339.937 362.244,-348.362 372.52,-345.783 368.668,-339.937"/>
</g>
<!-- Node3&#45;&gt;Node23 -->
<g id="edge76" class="edge"><title>Node3&#45;&gt;Node23</title>
<path fill="none" stroke="midnightblue" d="M319.475,-343.671C271.801,-319.731 180.896,-274.082 139.933,-253.512"/>
<polygon fill="midnightblue" stroke="midnightblue" points="318.175,-346.935 328.682,-348.295 321.316,-340.679 318.175,-346.935"/>
</g>
<!-- Node6 -->
<g id="node11" class="node"><title>Node6</title>
<a xlink:href="../../d7/d91/Slices_8cpp.html" target="_top" xlink:title="Slices.cpp">
<polygon fill="white" stroke="black" points="894,-174.5 894,-195.5 956,-195.5 956,-174.5 894,-174.5"/>
<text text-anchor="middle" x="925" y="-182.5" font-family="Helvetica,sans-Serif" font-size="10.00">Slices.cpp</text>
</a>
</g>
<!-- Node5&#45;&gt;Node6 -->
<g id="edge10" class="edge"><title>Node5&#45;&gt;Node6</title>
<path fill="none" stroke="midnightblue" d="M608.209,-232.778C609.486,-232.505 610.752,-232.245 612,-232 732.097,-208.45 765.049,-220.283 885,-196 887.824,-195.428 890.741,-194.767 893.655,-194.057"/>
<polygon fill="midnightblue" stroke="midnightblue" points="607.308,-229.394 598.356,-235.06 608.887,-236.213 607.308,-229.394"/>
</g>
<!-- Node7 -->
<g id="node13" class="node"><title>Node7</title>
<a xlink:href="../../da/d77/globals_8cpp.html" target="_top" xlink:title="globals.cpp">
<polygon fill="white" stroke="black" points="444,-174.5 444,-195.5 510,-195.5 510,-174.5 444,-174.5"/>
<text text-anchor="middle" x="477" y="-182.5" font-family="Helvetica,sans-Serif" font-size="10.00">globals.cpp</text>
</a>
</g>
<!-- Node5&#45;&gt;Node7 -->
<g id="edge12" class="edge"><title>Node5&#45;&gt;Node7</title>
<path fill="none" stroke="midnightblue" d="M544.059,-226.821C528.04,-216.831 507.945,-204.299 493.949,-195.571"/>
<polygon fill="midnightblue" stroke="midnightblue" points="542.605,-230.04 552.942,-232.362 546.309,-224.1 542.605,-230.04"/>
</g>
<!-- Node8 -->
<g id="node15" class="node"><title>Node8</title>
<a xlink:href="../../d5/dfa/InducedVoltage_8cpp.html" target="_top" xlink:title="InducedVoltage.cpp">
<polygon fill="white" stroke="black" points="527.5,-174.5 527.5,-195.5 630.5,-195.5 630.5,-174.5 527.5,-174.5"/>
<text text-anchor="middle" x="579" y="-182.5" font-family="Helvetica,sans-Serif" font-size="10.00">InducedVoltage.cpp</text>
</a>
</g>
<!-- Node5&#45;&gt;Node8 -->
<g id="edge14" class="edge"><title>Node5&#45;&gt;Node8</title>
<path fill="none" stroke="midnightblue" d="M573.229,-222.191C574.629,-213.168 576.208,-202.994 577.36,-195.571"/>
<polygon fill="midnightblue" stroke="midnightblue" points="569.726,-221.943 571.651,-232.362 576.643,-223.017 569.726,-221.943"/>
</g>
<!-- Node9 -->
<g id="node17" class="node"><title>Node9</title>
<a xlink:href="../../dc/d61/RfParameters_8cpp.html" target="_top" xlink:title="RfParameters.cpp">
<polygon fill="white" stroke="black" points="1012,-174.5 1012,-195.5 1108,-195.5 1108,-174.5 1012,-174.5"/>
<text text-anchor="middle" x="1060" y="-182.5" font-family="Helvetica,sans-Serif" font-size="10.00">RfParameters.cpp</text>
</a>
</g>
<!-- Node5&#45;&gt;Node9 -->
<g id="edge16" class="edge"><title>Node5&#45;&gt;Node9</title>
<path fill="none" stroke="midnightblue" d="M608.198,-232.715C609.477,-232.461 610.747,-232.221 612,-232 781.681,-202.074 827.251,-219.069 998,-196 1002.55,-195.385 1007.28,-194.676 1012,-193.92"/>
<polygon fill="midnightblue" stroke="midnightblue" points="607.329,-229.323 598.328,-234.911 608.849,-236.156 607.329,-229.323"/>
</g>
<!-- Node10 -->
<g id="node19" class="node"><title>Node10</title>
<a xlink:href="../../d3/db7/LHCNoiseFB_8cpp.html" target="_top" xlink:title="LHCNoiseFB.cpp">
<polygon fill="white" stroke="black" points="648,-174.5 648,-195.5 742,-195.5 742,-174.5 648,-174.5"/>
<text text-anchor="middle" x="695" y="-182.5" font-family="Helvetica,sans-Serif" font-size="10.00">LHCNoiseFB.cpp</text>
</a>
</g>
<!-- Node5&#45;&gt;Node10 -->
<g id="edge18" class="edge"><title>Node5&#45;&gt;Node10</title>
<path fill="none" stroke="midnightblue" d="M601.883,-228.206C623.812,-218.031 652.421,-204.757 672.109,-195.621"/>
<polygon fill="midnightblue" stroke="midnightblue" points="600.234,-225.113 592.637,-232.497 603.181,-231.462 600.234,-225.113"/>
</g>
<!-- Node11 -->
<g id="node21" class="node"><title>Node11</title>
<a xlink:href="../../dc/d7d/Distributions_8h.html" target="_top" xlink:title="Distributions.h">
<polygon fill="white" stroke="black" points="770,-0.5 770,-21.5 850,-21.5 850,-0.5 770,-0.5"/>
<text text-anchor="middle" x="810" y="-8.5" font-family="Helvetica,sans-Serif" font-size="10.00">Distributions.h</text>
</a>
</g>
<!-- Node5&#45;&gt;Node11 -->
<g id="edge20" class="edge"><title>Node5&#45;&gt;Node11</title>
<path fill="none" stroke="midnightblue" d="M608.036,-230.857C671.359,-215.922 703.901,-239.907 751,-196 777.57,-171.231 801.216,-57.0678 808.032,-21.5658"/>
<polygon fill="midnightblue" stroke="midnightblue" points="606.821,-227.557 598.035,-233.479 608.596,-234.328 606.821,-227.557"/>
</g>
<!-- Node12 -->
<g id="node23" class="node"><title>Node12</title>
<a xlink:href="../../d3/d33/PhaseLoop_8h.html" target="_top" xlink:title="PhaseLoop.h">
<polygon fill="white" stroke="black" points="904,-116.5 904,-137.5 978,-137.5 978,-116.5 904,-116.5"/>
<text text-anchor="middle" x="941" y="-124.5" font-family="Helvetica,sans-Serif" font-size="10.00">PhaseLoop.h</text>
</a>
</g>
<!-- Node5&#45;&gt;Node12 -->
<g id="edge22" class="edge"><title>Node5&#45;&gt;Node12</title>
<path fill="none" stroke="midnightblue" d="M608.2,-232.73C609.479,-232.471 610.748,-232.226 612,-232 689.593,-217.969 912.148,-254.516 965,-196 980.132,-179.246 962.618,-152.432 950.541,-137.647"/>
<polygon fill="midnightblue" stroke="midnightblue" points="607.324,-229.339 598.334,-234.945 608.858,-236.169 607.324,-229.339"/>
</g>
<!-- Node20 -->
<g id="node40" class="node"><title>Node20</title>
<a xlink:href="../../d9/dc8/PhaseNoise_8h.html" target="_top" xlink:title="PhaseNoise.h">
<polygon fill="white" stroke="black" points="798,-174.5 798,-195.5 876,-195.5 876,-174.5 798,-174.5"/>
<text text-anchor="middle" x="837" y="-182.5" font-family="Helvetica,sans-Serif" font-size="10.00">PhaseNoise.h</text>
</a>
</g>
<!-- Node5&#45;&gt;Node20 -->
<g id="edge40" class="edge"><title>Node5&#45;&gt;Node20</title>
<path fill="none" stroke="midnightblue" d="M608.236,-232.899C609.504,-232.592 610.762,-232.291 612,-232 621.032,-229.875 735.715,-206.027 797.757,-193.144"/>
<polygon fill="midnightblue" stroke="midnightblue" points="607.273,-229.532 598.418,-235.351 608.968,-236.324 607.273,-229.532"/>
</g>
<!-- Node13 -->
<g id="node25" class="node"><title>Node13</title>
<a xlink:href="../../db/dee/PhaseLoop_8cpp.html" target="_top" xlink:title="PhaseLoop.cpp">
<polygon fill="white" stroke="black" points="810,-58.5 810,-79.5 894,-79.5 894,-58.5 810,-58.5"/>
<text text-anchor="middle" x="852" y="-66.5" font-family="Helvetica,sans-Serif" font-size="10.00">PhaseLoop.cpp</text>
</a>
</g>
<!-- Node12&#45;&gt;Node13 -->
<g id="edge24" class="edge"><title>Node12&#45;&gt;Node13</title>
<path fill="none" stroke="midnightblue" d="M916.174,-110.821C900.844,-100.831 881.614,-88.2993 868.22,-79.5707"/>
<polygon fill="midnightblue" stroke="midnightblue" points="914.387,-113.834 924.676,-116.362 918.209,-107.97 914.387,-113.834"/>
</g>
<!-- Node12&#45;&gt;Node14 -->
<g id="edge26" class="edge"><title>Node12&#45;&gt;Node14</title>
<path fill="none" stroke="midnightblue" d="M894.059,-116.081C637.151,-77.6063 337.403,-70.6138 241.267,-69.3007"/>
<polygon fill="midnightblue" stroke="midnightblue" points="893.536,-119.541 903.947,-117.581 894.585,-112.62 893.536,-119.541"/>
</g>
<!-- Node18 -->
<g id="node35" class="node"><title>Node18</title>
<a xlink:href="../../d2/d0e/Tracker_8h.html" target="_top" xlink:title="Tracker.h">
<polygon fill="white" stroke="black" points="912,-58.5 912,-79.5 970,-79.5 970,-58.5 912,-58.5"/>
<text text-anchor="middle" x="941" y="-66.5" font-family="Helvetica,sans-Serif" font-size="10.00">Tracker.h</text>
</a>
</g>
<!-- Node12&#45;&gt;Node18 -->
<g id="edge34" class="edge"><title>Node12&#45;&gt;Node18</title>
<path fill="none" stroke="midnightblue" d="M941,-106.191C941,-97.1684 941,-86.9941 941,-79.5707"/>
<polygon fill="midnightblue" stroke="midnightblue" points="937.5,-106.362 941,-116.362 944.5,-106.362 937.5,-106.362"/>
</g>
<!-- Node15 -->
<g id="node29" class="node"><title>Node15</title>
<a xlink:href="../../da/dda/Monitors_8cpp.html" target="_top" xlink:title="Monitors.cpp">
<polygon fill="white" stroke="black" points="250.5,-0.5 250.5,-21.5 323.5,-21.5 323.5,-0.5 250.5,-0.5"/>
<text text-anchor="middle" x="287" y="-8.5" font-family="Helvetica,sans-Serif" font-size="10.00">Monitors.cpp</text>
</a>
</g>
<!-- Node14&#45;&gt;Node15 -->
<g id="edge28" class="edge"><title>Node14&#45;&gt;Node15</title>
<path fill="none" stroke="midnightblue" d="M232.226,-52.2587C245.361,-42.3641 261.595,-30.1361 272.967,-21.5707"/>
<polygon fill="midnightblue" stroke="midnightblue" points="230.005,-49.5496 224.123,-58.3619 234.216,-55.1409 230.005,-49.5496"/>
</g>
<!-- Node16 -->
<g id="node31" class="node"><title>Node16</title>
<a xlink:href="../../d3/d2c/plot__beams_8cpp.html" target="_top" xlink:title="plot_beams.cpp">
<polygon fill="white" stroke="black" points="147,-0.5 147,-21.5 233,-21.5 233,-0.5 147,-0.5"/>
<text text-anchor="middle" x="190" y="-8.5" font-family="Helvetica,sans-Serif" font-size="10.00">plot_beams.cpp</text>
</a>
</g>
<!-- Node14&#45;&gt;Node16 -->
<g id="edge30" class="edge"><title>Node14&#45;&gt;Node16</title>
<path fill="none" stroke="midnightblue" d="M203.029,-48.7838C199.868,-39.617 196.261,-29.1572 193.645,-21.5707"/>
<polygon fill="midnightblue" stroke="midnightblue" points="199.763,-50.0492 206.332,-58.3619 206.381,-47.7672 199.763,-50.0492"/>
</g>
<!-- Node17 -->
<g id="node33" class="node"><title>Node17</title>
<a xlink:href="../../d3/dca/plot__llrf_8cpp.html" target="_top" xlink:title="plot_llrf.cpp">
<polygon fill="white" stroke="black" points="62.5,-0.5 62.5,-21.5 129.5,-21.5 129.5,-0.5 62.5,-0.5"/>
<text text-anchor="middle" x="96" y="-8.5" font-family="Helvetica,sans-Serif" font-size="10.00">plot_llrf.cpp</text>
</a>
</g>
<!-- Node14&#45;&gt;Node17 -->
<g id="edge32" class="edge"><title>Node14&#45;&gt;Node17</title>
<path fill="none" stroke="midnightblue" d="M180.383,-53.9319C160.456,-43.7932 134.671,-30.6748 116.876,-21.6212"/>
<polygon fill="midnightblue" stroke="midnightblue" points="178.856,-57.0815 189.355,-58.4966 182.03,-50.8425 178.856,-57.0815"/>
</g>
<!-- Node18&#45;&gt;Node11 -->
<g id="edge38" class="edge"><title>Node18&#45;&gt;Node11</title>
<path fill="none" stroke="midnightblue" d="M907.896,-54.3431C884.874,-44.1502 854.715,-30.7977 833.989,-21.6212"/>
<polygon fill="midnightblue" stroke="midnightblue" points="906.716,-57.6485 917.277,-58.4966 909.55,-51.2478 906.716,-57.6485"/>
</g>
<!-- Node19 -->
<g id="node37" class="node"><title>Node19</title>
<a xlink:href="../../d2/d6f/Tracker_8cpp.html" target="_top" xlink:title="Tracker.cpp">
<polygon fill="white" stroke="black" points="907,-0.5 907,-21.5 975,-21.5 975,-0.5 907,-0.5"/>
<text text-anchor="middle" x="941" y="-8.5" font-family="Helvetica,sans-Serif" font-size="10.00">Tracker.cpp</text>
</a>
</g>
<!-- Node18&#45;&gt;Node19 -->
<g id="edge36" class="edge"><title>Node18&#45;&gt;Node19</title>
<path fill="none" stroke="midnightblue" d="M941,-48.1906C941,-39.1684 941,-28.9941 941,-21.5707"/>
<polygon fill="midnightblue" stroke="midnightblue" points="937.5,-48.3619 941,-58.3619 944.5,-48.3619 937.5,-48.3619"/>
</g>
<!-- Node20&#45;&gt;Node12 -->
<g id="edge44" class="edge"><title>Node20&#45;&gt;Node12</title>
<path fill="none" stroke="midnightblue" d="M865.01,-169.379C883.081,-159.301 906.102,-146.462 922.046,-137.571"/>
<polygon fill="midnightblue" stroke="midnightblue" points="863.104,-166.434 856.075,-174.362 866.514,-172.548 863.104,-166.434"/>
</g>
<!-- Node21 -->
<g id="node42" class="node"><title>Node21</title>
<a xlink:href="../../db/d82/PhaseNoise_8cpp.html" target="_top" xlink:title="PhaseNoise.cpp">
<polygon fill="white" stroke="black" points="797.5,-116.5 797.5,-137.5 886.5,-137.5 886.5,-116.5 797.5,-116.5"/>
<text text-anchor="middle" x="842" y="-124.5" font-family="Helvetica,sans-Serif" font-size="10.00">PhaseNoise.cpp</text>
</a>
</g>
<!-- Node20&#45;&gt;Node21 -->
<g id="edge42" class="edge"><title>Node20&#45;&gt;Node21</title>
<path fill="none" stroke="midnightblue" d="M838.794,-164.191C839.572,-155.168 840.449,-144.994 841.089,-137.571"/>
<polygon fill="midnightblue" stroke="midnightblue" points="835.289,-164.098 837.917,-174.362 842.263,-164.699 835.289,-164.098"/>
</g>
<!-- Node22&#45;&gt;Node3 -->
<g id="edge50" class="edge"><title>Node22&#45;&gt;Node3</title>
<path fill="none" stroke="midnightblue" d="M425.467,-317.101C409.999,-327.079 389,-339.614 372.972,-348.362"/>
<polygon fill="midnightblue" stroke="midnightblue" points="427.434,-319.997 433.856,-311.571 423.581,-314.153 427.434,-319.997"/>
</g>
<!-- Node22&#45;&gt;Node5 -->
<g id="edge52" class="edge"><title>Node22&#45;&gt;Node5</title>
<path fill="none" stroke="midnightblue" d="M477.628,-286.206C499.382,-276.031 527.762,-262.757 547.293,-253.621"/>
<polygon fill="midnightblue" stroke="midnightblue" points="476.031,-283.089 468.455,-290.497 478.996,-289.43 476.031,-283.089"/>
</g>
<!-- Node22&#45;&gt;Node9 -->
<g id="edge48" class="edge"><title>Node22&#45;&gt;Node9</title>
<path fill="none" stroke="midnightblue" d="M499.037,-288.948C530.981,-280.853 572.096,-268.939 607,-254 624.941,-246.321 626.45,-238.06 645,-232 787.763,-185.36 831.938,-214.359 981,-196 991.033,-194.764 1001.77,-193.339 1011.99,-191.932"/>
<polygon fill="midnightblue" stroke="midnightblue" points="497.867,-285.632 489.007,-291.441 499.556,-292.425 497.867,-285.632"/>
</g>
<!-- Node22&#45;&gt;Node14 -->
<g id="edge54" class="edge"><title>Node22&#45;&gt;Node14</title>
<path fill="none" stroke="midnightblue" d="M442.51,-280.247C437.016,-253.078 424.059,-205.247 397,-174 354.224,-124.604 282.212,-93.5869 241.154,-78.9648"/>
<polygon fill="midnightblue" stroke="midnightblue" points="439.093,-281.017 444.373,-290.203 445.974,-279.73 439.093,-281.017"/>
</g>
<!-- Node22&#45;&gt;Node23 -->
<g id="edge56" class="edge"><title>Node22&#45;&gt;Node23</title>
<path fill="none" stroke="midnightblue" d="M392.667,-291.54C326.3,-279.769 214.651,-259.966 156.603,-249.67"/>
<polygon fill="midnightblue" stroke="midnightblue" points="392.457,-295.058 402.914,-293.358 393.679,-288.165 392.457,-295.058"/>
</g>
<!-- Node22&#45;&gt;Node24 -->
<g id="edge62" class="edge"><title>Node22&#45;&gt;Node24</title>
<path fill="none" stroke="midnightblue" d="M499.285,-288.371C538.297,-279.056 592.495,-265.974 640,-254 644.385,-252.895 649.022,-251.703 653.552,-250.527"/>
<polygon fill="midnightblue" stroke="midnightblue" points="498.121,-285.05 489.206,-290.774 499.745,-291.859 498.121,-285.05"/>
</g>
<!-- Node22&#45;&gt;Node25 -->
<g id="edge64" class="edge"><title>Node22&#45;&gt;Node25</title>
<path fill="none" stroke="midnightblue" d="M499.118,-293.056C554.294,-284.523 643.022,-270.014 719,-254 721.62,-253.448 724.319,-252.848 727.032,-252.224"/>
<polygon fill="midnightblue" stroke="midnightblue" points="498.568,-289.599 489.217,-294.578 499.632,-296.518 498.568,-289.599"/>
</g>
<!-- Node22&#45;&gt;Node27 -->
<g id="edge68" class="edge"><title>Node22&#45;&gt;Node27</title>
<path fill="none" stroke="midnightblue" d="M406.125,-287.068C375.89,-276.504 335.082,-262.245 308.177,-252.845"/>
<polygon fill="midnightblue" stroke="midnightblue" points="405.344,-290.502 415.939,-290.497 407.653,-283.894 405.344,-290.502"/>
</g>
<!-- Node23&#45;&gt;Node16 -->
<g id="edge58" class="edge"><title>Node23&#45;&gt;Node16</title>
<path fill="none" stroke="midnightblue" d="M123.673,-222.628C131.766,-188.259 149.502,-116.757 170,-58 174.44,-45.2732 180.658,-31.0901 184.978,-21.6668"/>
<polygon fill="midnightblue" stroke="midnightblue" points="120.253,-221.885 121.393,-232.418 127.07,-223.473 120.253,-221.885"/>
</g>
<!-- Node23&#45;&gt;Node17 -->
<g id="edge60" class="edge"><title>Node23&#45;&gt;Node17</title>
<path fill="none" stroke="midnightblue" d="M116.951,-222.335C112.209,-174.5 100.611,-57.5078 97.0542,-21.6335"/>
<polygon fill="midnightblue" stroke="midnightblue" points="113.482,-222.823 117.952,-232.429 120.448,-222.132 113.482,-222.823"/>
</g>
<!-- Node26 -->
<g id="node59" class="node"><title>Node26</title>
<a xlink:href="../../d4/dfd/plot__slices_8cpp.html" target="_top" xlink:title="plot_slices.cpp">
<polygon fill="white" stroke="black" points="1126,-174.5 1126,-195.5 1208,-195.5 1208,-174.5 1126,-174.5"/>
<text text-anchor="middle" x="1167" y="-182.5" font-family="Helvetica,sans-Serif" font-size="10.00">plot_slices.cpp</text>
</a>
</g>
<!-- Node25&#45;&gt;Node26 -->
<g id="edge66" class="edge"><title>Node25&#45;&gt;Node26</title>
<path fill="none" stroke="midnightblue" d="M808.886,-238.163C876.566,-230.745 1007.02,-215.362 1117,-196 1119.89,-195.491 1122.86,-194.931 1125.85,-194.341"/>
<polygon fill="midnightblue" stroke="midnightblue" points="808.138,-234.723 798.576,-239.284 808.895,-241.682 808.138,-234.723"/>
</g>
<!-- Node27&#45;&gt;Node4 -->
<g id="edge70" class="edge"><title>Node27&#45;&gt;Node4</title>
<path fill="none" stroke="midnightblue" d="M302.015,-225.975C314.744,-216.132 330.361,-204.055 341.331,-195.571"/>
<polygon fill="midnightblue" stroke="midnightblue" points="299.526,-223.476 293.756,-232.362 303.808,-229.013 299.526,-223.476"/>
</g>
<!-- Node28 -->
<g id="node64" class="node"><title>Node28</title>
<a xlink:href="../../de/da5/utilities_8cpp.html" target="_top" xlink:title="utilities.cpp">
<polygon fill="white" stroke="black" points="238,-174.5 238,-195.5 304,-195.5 304,-174.5 238,-174.5"/>
<text text-anchor="middle" x="271" y="-182.5" font-family="Helvetica,sans-Serif" font-size="10.00">utilities.cpp</text>
</a>
</g>
<!-- Node27&#45;&gt;Node28 -->
<g id="edge72" class="edge"><title>Node27&#45;&gt;Node28</title>
<path fill="none" stroke="midnightblue" d="M276.771,-222.191C275.371,-213.168 273.792,-202.994 272.64,-195.571"/>
<polygon fill="midnightblue" stroke="midnightblue" points="273.357,-223.017 278.349,-232.362 280.274,-221.943 273.357,-223.017"/>
</g>
</g>
</svg>
        <g id="navigator" transform="translate(0 0)" fill="#404254">
                <rect fill="#f2f5e9" fill-opacity="0.5" stroke="#606060" stroke-width=".5" x="0" y="0" width="60" height="60"/>
                <use id="zoomplus" xlink:href="#zoomPlus" x="17" y="9" onmousedown="handleZoom(evt,'in')"/>
                <use id="zoomminus" xlink:href="#zoomMin" x="42" y="9" onmousedown="handleZoom(evt,'out')"/>
                <use id="reset" xlink:href="#resetDef" x="30" y="36" onmousedown="handleReset()"/>
                <g id="arrowUp" xlink:href="#dirArrow" transform="translate(30 24)" onmousedown="handlePan(0,-1)">
                  <use xlink:href="#rim" fill="#404040">
                        <set attributeName="fill" to="#808080" begin="arrowUp.mouseover" end="arrowUp.mouseout"/>
                  </use>
                  <path fill="none" stroke="white" stroke-width="1.5" d="M0,-3.0v7 M-2.5,-0.5L0,-3.0L2.5,-0.5"/>
                </g>
                <g id="arrowRight" xlink:href="#dirArrow" transform="rotate(90) translate(36 -43)" onmousedown="handlePan(1,0)">
                  <use xlink:href="#rim" fill="#404040">
                        <set attributeName="fill" to="#808080" begin="arrowRight.mouseover" end="arrowRight.mouseout"/>
                  </use>
                  <path fill="none" stroke="white" stroke-width="1.5" d="M0,-3.0v7 M-2.5,-0.5L0,-3.0L2.5,-0.5"/>
                </g>
                <g id="arrowDown" xlink:href="#dirArrow" transform="rotate(180) translate(-30 -48)" onmousedown="handlePan(0,1)">
                  <use xlink:href="#rim" fill="#404040">
                        <set attributeName="fill" to="#808080" begin="arrowDown.mouseover" end="arrowDown.mouseout"/>
                  </use>
                  <path fill="none" stroke="white" stroke-width="1.5" d="M0,-3.0v7 M-2.5,-0.5L0,-3.0L2.5,-0.5"/>
                </g>
                <g id="arrowLeft" xlink:href="#dirArrow" transform="rotate(270) translate(-36 17)" onmousedown="handlePan(-1,0)">
                  <use xlink:href="#rim" fill="#404040">
                        <set attributeName="fill" to="#808080" begin="arrowLeft.mouseover" end="arrowLeft.mouseout"/>
                  </use>
                  <path fill="none" stroke="white" stroke-width="1.5" d="M0,-3.0v7 M-2.5,-0.5L0,-3.0L2.5,-0.5"/>
                </g>
        </g>
        <svg viewBox="0 0 15 15" width="100%" height="30px" preserveAspectRatio="xMaxYMin meet">
         <g id="arrow_out" transform="scale(0.3 0.3)">
          <a xlink:href="GeneralParameters_8h__dep__incl_org.svg" target="_base">
           <rect id="button" ry="5" rx="5" y="6" x="6" height="38" width="38"
                fill="#f2f5e9" fill-opacity="0.5" stroke="#606060" stroke-width="1.0"/>
           <path id="arrow"
             d="M 11.500037,31.436501 C 11.940474,20.09759 22.043105,11.32322 32.158766,21.979434 L 37.068811,17.246167 C 37.068811,17.246167 37.088388,32 37.088388,32 L 22.160133,31.978069 C 22.160133,31.978069 26.997745,27.140456 26.997745,27.140456 C 18.528582,18.264221 13.291696,25.230495 11.500037,31.436501 z"
             style="fill:#404040;"/>
          </a>
         </g>
        </svg>
</svg>
