<?xml version="1.0" encoding="UTF-8" standalone="no"?>
<!DOCTYPE svg PUBLIC "-//W3C//DTD SVG 1.1//EN"
 "http://www.w3.org/Graphics/SVG/1.1/DTD/svg11.dtd">
<!-- Generated by graphviz version 2.26.3 (20100126.1600)
 -->
<!-- Title: math_functions.h Pages: 1 -->
<svg width="1229pt" height="262pt"
 viewBox="0.00 0.00 1229.00 262.00" xmlns="http://www.w3.org/2000/svg" xmlns:xlink="http://www.w3.org/1999/xlink">
<g id="graph1" class="graph" transform="scale(1 1) rotate(0) translate(4 258)">
<title>math_functions.h</title>
<polygon fill="white" stroke="white" points="-4,5 -4,-258 1226,-258 1226,5 -4,5"/>
<!-- Node1 -->
<g id="node1" class="node"><title>Node1</title>
<polygon fill="#bfbfbf" stroke="black" points="269,-232.5 269,-253.5 361,-253.5 361,-232.5 269,-232.5"/>
<text text-anchor="middle" x="315" y="-240.5" font-family="Helvetica,sans-Serif" font-size="10.00">math_functions.h</text>
</g>
<!-- Node2 -->
<g id="node3" class="node"><title>Node2</title>
<polygon fill="white" stroke="#bfbfbf" points="0,-174.5 0,-195.5 56,-195.5 56,-174.5 0,-174.5"/>
<text text-anchor="middle" x="28" y="-182.5" font-family="Helvetica,sans-Serif" font-size="10.00">algorithm</text>
</g>
<!-- Node1&#45;&gt;Node2 -->
<g id="edge2" class="edge"><title>Node1&#45;&gt;Node2</title>
<path fill="none" stroke="midnightblue" d="M268.619,-235.752C220.265,-227.869 142.134,-214.212 65.9609,-196.063"/>
<polygon fill="midnightblue" stroke="midnightblue" points="66.7422,-192.652 56.2004,-193.71 65.1014,-199.457 66.7422,-192.652"/>
</g>
<!-- Node3 -->
<g id="node5" class="node"><title>Node3</title>
<a xlink:href="../../d2/d2c/configuration_8h.html" target="_top" xlink:title="blond/configuration.h">
<polygon fill="white" stroke="black" points="288.5,-116.5 288.5,-137.5 395.5,-137.5 395.5,-116.5 288.5,-116.5"/>
<text text-anchor="middle" x="342" y="-124.5" font-family="Helvetica,sans-Serif" font-size="10.00">blond/configuration.h</text>
</a>
</g>
<!-- Node1&#45;&gt;Node3 -->
<g id="edge4" class="edge"><title>Node1&#45;&gt;Node3</title>
<path fill="none" stroke="midnightblue" d="M317.492,-232.295C321.972,-213.045 331.459,-172.289 337.226,-147.509"/>
<polygon fill="midnightblue" stroke="midnightblue" points="340.656,-148.212 339.514,-137.679 333.838,-146.625 340.656,-148.212"/>
</g>
<!-- Node6 -->
<g id="node11" class="node"><title>Node6</title>
<a xlink:href="../../d8/dcd/exp_8h.html" target="_top" xlink:title="blond/exp.h">
<polygon fill="white" stroke="black" points="193.5,-174.5 193.5,-195.5 260.5,-195.5 260.5,-174.5 193.5,-174.5"/>
<text text-anchor="middle" x="227" y="-182.5" font-family="Helvetica,sans-Serif" font-size="10.00">blond/exp.h</text>
</a>
</g>
<!-- Node1&#45;&gt;Node6 -->
<g id="edge10" class="edge"><title>Node1&#45;&gt;Node6</title>
<path fill="none" stroke="midnightblue" d="M298.859,-232.362C285.586,-223.614 266.568,-211.079 251.43,-201.101"/>
<polygon fill="midnightblue" stroke="midnightblue" points="253.314,-198.151 243.038,-195.571 249.462,-203.996 253.314,-198.151"/>
</g>
<!-- Node8 -->
<g id="node15" class="node"><title>Node8</title>
<polygon fill="white" stroke="#bfbfbf" points="161,-0.5 161,-21.5 205,-21.5 205,-0.5 161,-0.5"/>
<text text-anchor="middle" x="183" y="-8.5" font-family="Helvetica,sans-Serif" font-size="10.00">cmath</text>
</g>
<!-- Node1&#45;&gt;Node8 -->
<g id="edge54" class="edge"><title>Node1&#45;&gt;Node8</title>
<path fill="none" stroke="midnightblue" d="M311.524,-232.094C300.222,-197.022 263.974,-87.6999 242,-58 233.124,-46.0034 220.46,-35.3743 209.138,-27.2722"/>
<polygon fill="midnightblue" stroke="midnightblue" points="211.058,-24.3446 200.828,-21.5884 207.106,-30.1226 211.058,-24.3446"/>
</g>
<!-- Node9 -->
<g id="node17" class="node"><title>Node9</title>
<polygon fill="white" stroke="#bfbfbf" points="151,-116.5 151,-137.5 191,-137.5 191,-116.5 151,-116.5"/>
<text text-anchor="middle" x="171" y="-124.5" font-family="Helvetica,sans-Serif" font-size="10.00">limits</text>
</g>
<!-- Node1&#45;&gt;Node9 -->
<g id="edge58" class="edge"><title>Node1&#45;&gt;Node9</title>
<path fill="none" stroke="midnightblue" d="M268.883,-237.739C240.645,-232.082 206.012,-220.345 185,-196 173.672,-182.875 170.599,-163.111 170.111,-148.095"/>
<polygon fill="midnightblue" stroke="midnightblue" points="173.612,-147.738 170.148,-137.726 166.612,-147.714 173.612,-147.738"/>
</g>
<!-- Node10 -->
<g id="node19" class="node"><title>Node10</title>
<a xlink:href="../../d1/d3d/sin_8h.html" target="_top" xlink:title="blond/sin.h">
<polygon fill="white" stroke="black" points="74,-174.5 74,-195.5 138,-195.5 138,-174.5 74,-174.5"/>
<text text-anchor="middle" x="106" y="-182.5" font-family="Helvetica,sans-Serif" font-size="10.00">blond/sin.h</text>
</a>
</g>
<!-- Node1&#45;&gt;Node10 -->
<g id="edge18" class="edge"><title>Node1&#45;&gt;Node10</title>
<path fill="none" stroke="midnightblue" d="M277.152,-232.497C240.653,-222.368 185.538,-207.073 147.772,-196.592"/>
<polygon fill="midnightblue" stroke="midnightblue" points="148.661,-193.207 138.089,-193.905 146.789,-199.952 148.661,-193.207"/>
</g>
<!-- Node12 -->
<g id="node25" class="node"><title>Node12</title>
<a xlink:href="../../de/df0/utilities_8h.html" target="_top" xlink:title="blond/utilities.h">
<polygon fill="white" stroke="black" points="604,-174.5 604,-195.5 686,-195.5 686,-174.5 604,-174.5"/>
<text text-anchor="middle" x="645" y="-182.5" font-family="Helvetica,sans-Serif" font-size="10.00">blond/utilities.h</text>
</a>
</g>
<!-- Node1&#45;&gt;Node12 -->
<g id="edge26" class="edge"><title>Node1&#45;&gt;Node12</title>
<path fill="none" stroke="midnightblue" d="M361.233,-234.874C422.395,-224.124 529.876,-205.234 593.549,-194.043"/>
<polygon fill="midnightblue" stroke="midnightblue" points="594.518,-197.426 603.761,-192.248 593.306,-190.532 594.518,-197.426"/>
</g>
<!-- Node24 -->
<g id="node52" class="node"><title>Node24</title>
<polygon fill="white" stroke="#bfbfbf" points="703.5,-174.5 703.5,-195.5 752.5,-195.5 752.5,-174.5 703.5,-174.5"/>
<text text-anchor="middle" x="728" y="-182.5" font-family="Helvetica,sans-Serif" font-size="10.00">random</text>
</g>
<!-- Node1&#45;&gt;Node24 -->
<g id="edge56" class="edge"><title>Node1&#45;&gt;Node24</title>
<path fill="none" stroke="midnightblue" d="M361.131,-240.26C431.251,-235.45 568.845,-223.486 693.21,-196.085"/>
<polygon fill="midnightblue" stroke="midnightblue" points="694.292,-199.43 703.283,-193.825 692.76,-192.6 694.292,-199.43"/>
</g>
<!-- Node25 -->
<g id="node55" class="node"><title>Node25</title>
<polygon fill="white" stroke="#bfbfbf" points="769.5,-174.5 769.5,-195.5 818.5,-195.5 818.5,-174.5 769.5,-174.5"/>
<text text-anchor="middle" x="794" y="-182.5" font-family="Helvetica,sans-Serif" font-size="10.00">cassert</text>
</g>
<!-- Node1&#45;&gt;Node25 -->
<g id="edge60" class="edge"><title>Node1&#45;&gt;Node25</title>
<path fill="none" stroke="midnightblue" d="M361.105,-241.43C440.873,-238.004 609.725,-227.62 759.46,-195.989"/>
<polygon fill="midnightblue" stroke="midnightblue" points="760.254,-199.399 769.294,-193.875 758.782,-192.555 760.254,-199.399"/>
</g>
<!-- Node26 -->
<g id="node57" class="node"><title>Node26</title>
<a xlink:href="../../d1/db0/openmp_8h.html" target="_top" xlink:title="blond/openmp.h">
<polygon fill="white" stroke="black" points="836,-174.5 836,-195.5 922,-195.5 922,-174.5 836,-174.5"/>
<text text-anchor="middle" x="879" y="-182.5" font-family="Helvetica,sans-Serif" font-size="10.00">blond/openmp.h</text>
</a>
</g>
<!-- Node1&#45;&gt;Node26 -->
<g id="edge62" class="edge"><title>Node1&#45;&gt;Node26</title>
<path fill="none" stroke="midnightblue" d="M361.113,-240.579C449.422,-235.551 648.644,-222.315 825.911,-196.019"/>
<polygon fill="midnightblue" stroke="midnightblue" points="826.571,-199.46 835.94,-194.514 825.532,-192.537 826.571,-199.46"/>
</g>
<!-- Node4 -->
<g id="node7" class="node"><title>Node4</title>
<polygon fill="white" stroke="#bfbfbf" points="315.5,-58.5 315.5,-79.5 368.5,-79.5 368.5,-58.5 315.5,-58.5"/>
<text text-anchor="middle" x="342" y="-66.5" font-family="Helvetica,sans-Serif" font-size="10.00">complex</text>
</g>
<!-- Node3&#45;&gt;Node4 -->
<g id="edge6" class="edge"><title>Node3&#45;&gt;Node4</title>
<path fill="none" stroke="midnightblue" d="M342,-116.362C342,-108.922 342,-98.7427 342,-89.7276"/>
<polygon fill="midnightblue" stroke="midnightblue" points="345.5,-89.5706 342,-79.5707 338.5,-89.5707 345.5,-89.5706"/>
</g>
<!-- Node5 -->
<g id="node9" class="node"><title>Node5</title>
<polygon fill="white" stroke="#bfbfbf" points="660,-58.5 660,-79.5 704,-79.5 704,-58.5 660,-58.5"/>
<text text-anchor="middle" x="682" y="-66.5" font-family="Helvetica,sans-Serif" font-size="10.00">vector</text>
</g>
<!-- Node3&#45;&gt;Node5 -->
<g id="edge8" class="edge"><title>Node3&#45;&gt;Node5</title>
<path fill="none" stroke="midnightblue" d="M395.764,-117.434C398.549,-116.947 401.307,-116.467 404,-116 492.89,-100.601 597.879,-83.0141 649.714,-74.3711"/>
<polygon fill="midnightblue" stroke="midnightblue" points="650.359,-77.8119 659.648,-72.7157 649.209,-70.9071 650.359,-77.8119"/>
</g>
<!-- Node7 -->
<g id="node13" class="node"><title>Node7</title>
<a xlink:href="../../df/de1/vdtcore__common_8h.html" target="_top" xlink:title="vdtcore_common.h">
<polygon fill="white" stroke="black" points="133,-58.5 133,-79.5 233,-79.5 233,-58.5 133,-58.5"/>
<text text-anchor="middle" x="183" y="-66.5" font-family="Helvetica,sans-Serif" font-size="10.00">vdtcore_common.h</text>
</a>
</g>
<!-- Node6&#45;&gt;Node7 -->
<g id="edge12" class="edge"><title>Node6&#45;&gt;Node7</title>
<path fill="none" stroke="midnightblue" d="M222.939,-174.295C215.605,-154.959 200.04,-113.923 190.653,-89.1767"/>
<polygon fill="midnightblue" stroke="midnightblue" points="193.87,-87.7879 187.051,-79.6792 187.325,-90.2705 193.87,-87.7879"/>
</g>
<!-- Node6&#45;&gt;Node9 -->
<g id="edge16" class="edge"><title>Node6&#45;&gt;Node9</title>
<path fill="none" stroke="midnightblue" d="M216.729,-174.362C208.756,-166.104 197.525,-154.472 188.189,-144.803"/>
<polygon fill="midnightblue" stroke="midnightblue" points="190.67,-142.334 181.206,-137.571 185.634,-147.196 190.67,-142.334"/>
</g>
<!-- Node7&#45;&gt;Node8 -->
<g id="edge14" class="edge"><title>Node7&#45;&gt;Node8</title>
<path fill="none" stroke="midnightblue" d="M183,-58.3619C183,-50.9219 183,-40.7427 183,-31.7276"/>
<polygon fill="midnightblue" stroke="midnightblue" points="186.5,-31.5706 183,-21.5707 179.5,-31.5707 186.5,-31.5706"/>
</g>
<!-- Node11 -->
<g id="node21" class="node"><title>Node11</title>
<a xlink:href="../../dc/dfa/sincos_8h.html" target="_top" xlink:title="sincos.h">
<polygon fill="white" stroke="black" points="79.5,-116.5 79.5,-137.5 132.5,-137.5 132.5,-116.5 79.5,-116.5"/>
<text text-anchor="middle" x="106" y="-124.5" font-family="Helvetica,sans-Serif" font-size="10.00">sincos.h</text>
</a>
</g>
<!-- Node10&#45;&gt;Node11 -->
<g id="edge20" class="edge"><title>Node10&#45;&gt;Node11</title>
<path fill="none" stroke="midnightblue" d="M106,-174.362C106,-166.922 106,-156.743 106,-147.728"/>
<polygon fill="midnightblue" stroke="midnightblue" points="109.5,-147.571 106,-137.571 102.5,-147.571 109.5,-147.571"/>
</g>
<!-- Node11&#45;&gt;Node7 -->
<g id="edge22" class="edge"><title>Node11&#45;&gt;Node7</title>
<path fill="none" stroke="midnightblue" d="M120.123,-116.362C131.52,-107.777 147.758,-95.5459 160.878,-85.6636"/>
<polygon fill="midnightblue" stroke="midnightblue" points="163.085,-88.3829 168.967,-79.5707 158.873,-82.7916 163.085,-88.3829"/>
</g>
<!-- Node11&#45;&gt;Node8 -->
<g id="edge24" class="edge"><title>Node11&#45;&gt;Node8</title>
<path fill="none" stroke="midnightblue" d="M106.694,-116.348C108.067,-102.029 112.12,-76.2655 124,-58 132.023,-45.665 144.368,-35.1039 155.697,-27.1356"/>
<polygon fill="midnightblue" stroke="midnightblue" points="157.688,-30.0153 164.074,-21.5613 153.809,-24.1877 157.688,-30.0153"/>
</g>
<!-- Node12&#45;&gt;Node3 -->
<g id="edge50" class="edge"><title>Node12&#45;&gt;Node3</title>
<path fill="none" stroke="midnightblue" d="M603.821,-177.118C552.809,-167.353 465.35,-150.612 405.67,-139.188"/>
<polygon fill="midnightblue" stroke="midnightblue" points="406.083,-135.703 395.603,-137.261 404.767,-142.578 406.083,-135.703"/>
</g>
<!-- Node12&#45;&gt;Node5 -->
<g id="edge46" class="edge"><title>Node12&#45;&gt;Node5</title>
<path fill="none" stroke="midnightblue" d="M686.155,-175.709C689.143,-175.107 692.115,-174.53 695,-174 748.69,-164.129 902.34,-179.332 938,-138 944.387,-130.597 944.259,-123.512 938,-116 909.838,-82.1966 776.39,-72.6245 714.129,-69.979"/>
<polygon fill="midnightblue" stroke="midnightblue" points="714.202,-66.4793 704.073,-69.5861 713.928,-73.4739 714.202,-66.4793"/>
</g>
<!-- Node13 -->
<g id="node27" class="node"><title>Node13</title>
<polygon fill="white" stroke="#bfbfbf" points="985,-116.5 985,-137.5 1031,-137.5 1031,-116.5 985,-116.5"/>
<text text-anchor="middle" x="1008" y="-124.5" font-family="Helvetica,sans-Serif" font-size="10.00">chrono</text>
</g>
<!-- Node12&#45;&gt;Node13 -->
<g id="edge28" class="edge"><title>Node12&#45;&gt;Node13</title>
<path fill="none" stroke="midnightblue" d="M686.145,-175.651C689.136,-175.063 692.111,-174.505 695,-174 816.856,-152.69 849.995,-163.708 971,-138 972.254,-137.734 973.527,-137.446 974.809,-137.141"/>
<polygon fill="midnightblue" stroke="midnightblue" points="975.875,-140.479 984.657,-134.552 974.096,-133.71 975.875,-140.479"/>
</g>
<!-- Node14 -->
<g id="node29" class="node"><title>Node14</title>
<polygon fill="white" stroke="#bfbfbf" points="1048.5,-116.5 1048.5,-137.5 1091.5,-137.5 1091.5,-116.5 1048.5,-116.5"/>
<text text-anchor="middle" x="1070" y="-124.5" font-family="Helvetica,sans-Serif" font-size="10.00">cstdio</text>
</g>
<!-- Node12&#45;&gt;Node14 -->
<g id="edge30" class="edge"><title>Node12&#45;&gt;Node14</title>
<path fill="none" stroke="midnightblue" d="M686.13,-175.567C689.125,-174.998 692.104,-174.468 695,-174 843.921,-149.927 887.932,-171.819 1038.18,-137.998"/>
<polygon fill="midnightblue" stroke="midnightblue" points="1039.27,-141.339 1048.24,-135.689 1037.71,-134.517 1039.27,-141.339"/>
</g>
<!-- Node15 -->
<g id="node31" class="node"><title>Node15</title>
<polygon fill="white" stroke="#bfbfbf" points="1108.5,-116.5 1108.5,-137.5 1153.5,-137.5 1153.5,-116.5 1108.5,-116.5"/>
<text text-anchor="middle" x="1131" y="-124.5" font-family="Helvetica,sans-Serif" font-size="10.00">cstdlib</text>
</g>
<!-- Node12&#45;&gt;Node15 -->
<g id="edge32" class="edge"><title>Node12&#45;&gt;Node15</title>
<path fill="none" stroke="midnightblue" d="M686.122,-175.516C689.119,-174.96 692.101,-174.446 695,-174 870.383,-147.026 921.601,-175.457 1098.28,-137.965"/>
<polygon fill="midnightblue" stroke="midnightblue" points="1099.13,-141.363 1108.16,-135.828 1097.65,-134.521 1099.13,-141.363"/>
</g>
<!-- Node16 -->
<g id="node33" class="node"><title>Node16</title>
<polygon fill="white" stroke="#bfbfbf" points="1171,-116.5 1171,-137.5 1221,-137.5 1221,-116.5 1171,-116.5"/>
<text text-anchor="middle" x="1196" y="-124.5" font-family="Helvetica,sans-Serif" font-size="10.00">fstream</text>
</g>
<!-- Node12&#45;&gt;Node16 -->
<g id="edge34" class="edge"><title>Node12&#45;&gt;Node16</title>
<path fill="none" stroke="midnightblue" d="M686.117,-175.478C689.114,-174.93 692.098,-174.429 695,-174 897.716,-144.037 955.958,-177.25 1161.05,-137.778"/>
<polygon fill="midnightblue" stroke="midnightblue" points="1161.78,-141.2 1170.92,-135.843 1160.44,-134.33 1161.78,-141.2"/>
</g>
<!-- Node17 -->
<g id="node35" class="node"><title>Node17</title>
<polygon fill="white" stroke="#bfbfbf" points="413,-116.5 413,-137.5 467,-137.5 467,-116.5 413,-116.5"/>
<text text-anchor="middle" x="440" y="-124.5" font-family="Helvetica,sans-Serif" font-size="10.00">iostream</text>
</g>
<!-- Node12&#45;&gt;Node17 -->
<g id="edge36" class="edge"><title>Node12&#45;&gt;Node17</title>
<path fill="none" stroke="midnightblue" d="M605.989,-174.452C573.761,-165.67 526.58,-152.66 476.766,-138.18"/>
<polygon fill="midnightblue" stroke="midnightblue" points="477.685,-134.802 467.105,-135.362 475.725,-141.522 477.685,-134.802"/>
</g>
<!-- Node18 -->
<g id="node37" class="node"><title>Node18</title>
<polygon fill="white" stroke="#bfbfbf" points="484.5,-116.5 484.5,-137.5 531.5,-137.5 531.5,-116.5 484.5,-116.5"/>
<text text-anchor="middle" x="508" y="-124.5" font-family="Helvetica,sans-Serif" font-size="10.00">iterator</text>
</g>
<!-- Node12&#45;&gt;Node18 -->
<g id="edge38" class="edge"><title>Node12&#45;&gt;Node18</title>
<path fill="none" stroke="midnightblue" d="M620.19,-174.497C597.999,-165.102 565.307,-151.262 540.932,-140.942"/>
<polygon fill="midnightblue" stroke="midnightblue" points="542.282,-137.713 531.708,-137.037 539.553,-144.159 542.282,-137.713"/>
</g>
<!-- Node19 -->
<g id="node39" class="node"><title>Node19</title>
<polygon fill="white" stroke="#bfbfbf" points="549,-116.5 549,-137.5 601,-137.5 601,-116.5 549,-116.5"/>
<text text-anchor="middle" x="575" y="-124.5" font-family="Helvetica,sans-Serif" font-size="10.00">memory</text>
</g>
<!-- Node12&#45;&gt;Node19 -->
<g id="edge40" class="edge"><title>Node12&#45;&gt;Node19</title>
<path fill="none" stroke="midnightblue" d="M632.161,-174.362C621.998,-165.941 607.599,-154.011 595.796,-144.231"/>
<polygon fill="midnightblue" stroke="midnightblue" points="597.691,-141.256 587.758,-137.571 593.225,-146.646 597.691,-141.256"/>
</g>
<!-- Node20 -->
<g id="node41" class="node"><title>Node20</title>
<polygon fill="white" stroke="#bfbfbf" points="619,-116.5 619,-137.5 671,-137.5 671,-116.5 619,-116.5"/>
<text text-anchor="middle" x="645" y="-124.5" font-family="Helvetica,sans-Serif" font-size="10.00">sstream</text>
</g>
<!-- Node12&#45;&gt;Node20 -->
<g id="edge42" class="edge"><title>Node12&#45;&gt;Node20</title>
<path fill="none" stroke="midnightblue" d="M645,-174.362C645,-166.922 645,-156.743 645,-147.728"/>
<polygon fill="midnightblue" stroke="midnightblue" points="648.5,-147.571 645,-137.571 641.5,-147.571 648.5,-147.571"/>
</g>
<!-- Node21 -->
<g id="node43" class="node"><title>Node21</title>
<polygon fill="white" stroke="#bfbfbf" points="688.5,-116.5 688.5,-137.5 729.5,-137.5 729.5,-116.5 688.5,-116.5"/>
<text text-anchor="middle" x="709" y="-124.5" font-family="Helvetica,sans-Serif" font-size="10.00">string</text>
</g>
<!-- Node12&#45;&gt;Node21 -->
<g id="edge44" class="edge"><title>Node12&#45;&gt;Node21</title>
<path fill="none" stroke="midnightblue" d="M656.739,-174.362C665.941,-166.023 678.94,-154.242 689.672,-144.516"/>
<polygon fill="midnightblue" stroke="midnightblue" points="692.276,-146.879 697.336,-137.571 687.576,-141.692 692.276,-146.879"/>
</g>
<!-- Node22 -->
<g id="node46" class="node"><title>Node22</title>
<polygon fill="white" stroke="#bfbfbf" points="747,-116.5 747,-137.5 807,-137.5 807,-116.5 747,-116.5"/>
<text text-anchor="middle" x="777" y="-124.5" font-family="Helvetica,sans-Serif" font-size="10.00">sys/stat.h</text>
</g>
<!-- Node12&#45;&gt;Node22 -->
<g id="edge48" class="edge"><title>Node12&#45;&gt;Node22</title>
<path fill="none" stroke="midnightblue" d="M668.904,-174.497C689.8,-165.315 720.356,-151.889 743.655,-141.652"/>
<polygon fill="midnightblue" stroke="midnightblue" points="745.08,-144.848 752.828,-137.621 742.264,-138.44 745.08,-144.848"/>
</g>
<!-- Node23 -->
<g id="node49" class="node"><title>Node23</title>
<a xlink:href="../../da/d69/optionparser_8h.html" target="_top" xlink:title="This is the only file required to use The Lean Mean C++ Option Parser. Just #include it and you&#39;re se...">
<polygon fill="white" stroke="black" points="825,-116.5 825,-137.5 929,-137.5 929,-116.5 825,-116.5"/>
<text text-anchor="middle" x="877" y="-124.5" font-family="Helvetica,sans-Serif" font-size="10.00">blond/optionparser.h</text>
</a>
</g>
<!-- Node12&#45;&gt;Node23 -->
<g id="edge52" class="edge"><title>Node12&#45;&gt;Node23</title>
<path fill="none" stroke="midnightblue" d="M686.21,-174.698C724.905,-165.024 782.956,-150.511 824.858,-140.035"/>
<polygon fill="midnightblue" stroke="midnightblue" points="825.754,-143.419 834.606,-137.598 824.056,-136.628 825.754,-143.419"/>
</g>
</g>
</svg>
