<?xml version="1.0" encoding="UTF-8" standalone="no"?>
<!DOCTYPE svg PUBLIC "-//W3C//DTD SVG 1.1//EN"
 "http://www.w3.org/Graphics/SVG/1.1/DTD/svg11.dtd">
<!-- Generated by graphviz version 2.26.3 (20100126.1600)
 -->
<!-- Title: math_functions.h Pages: 1 -->
<!--zoomable 262 -->
<svg id="main" version="1.1" xmlns="http://www.w3.org/2000/svg" xmlns:xlink="http://www.w3.org/1999/xlink" xml:space="preserve" onload="init(evt)">
        <defs>
                <circle id="rim" cx="0" cy="0" r="7"/>
                <circle id="rim2" cx="0" cy="0" r="3.5"/>
                <g id="zoomPlus">
                        <use xlink:href="#rim" fill="#404040">
                                <set attributeName="fill" to="#808080" begin="zoomplus.mouseover" end="zoomplus.mouseout"/>
                        </use>
                        <path d="M-4,0h8M0,-4v8" fill="none" stroke="white" stroke-width="1.5" pointer-events="none"/>
                </g>
                <g id="zoomMin">
                        <use xlink:href="#rim" fill="#404040">
                                <set attributeName="fill" to="#808080" begin="zoomminus.mouseover" end="zoomminus.mouseout"/>
                        </use>
                        <path d="M-4,0h8" fill="none" stroke="white" stroke-width="1.5" pointer-events="none"/>
                </g>
                <g id="dirArrow">
                        <path fill="none" stroke="white" stroke-width="1.5" d="M0,-3.0v7 M-2.5,-0.5L0,-3.0L2.5,-0.5"/>
                </g>
               <g id="resetDef">
                       <use xlink:href="#rim2" fill="#404040">
                               <set attributeName="fill" to="#808080" begin="reset.mouseover" end="reset.mouseout"/>
                       </use>
               </g>
        </defs>

<script type="text/javascript">
var viewWidth = 1232;
var viewHeight = 262;
var sectionId = 'dynsection-0';
</script>
<script xlink:href="../../svgpan.js"/>
<svg id="graph" class="graph">
<g id="viewport">
<title>math_functions.h</title>
<polygon fill="white" stroke="white" points="-4,5 -4,-258 1229,-258 1229,5 -4,5"/>
<!-- Node1 -->
<g id="node1" class="node"><title>Node1</title>
<polygon fill="#bfbfbf" stroke="black" points="251,-232.5 251,-253.5 343,-253.5 343,-232.5 251,-232.5"/>
<text text-anchor="middle" x="297" y="-240.5" font-family="Helvetica,sans-Serif" font-size="10.00">math_functions.h</text>
</g>
<!-- Node2 -->
<g id="node3" class="node"><title>Node2</title>
<polygon fill="white" stroke="#bfbfbf" points="0,-174.5 0,-195.5 56,-195.5 56,-174.5 0,-174.5"/>
<text text-anchor="middle" x="28" y="-182.5" font-family="Helvetica,sans-Serif" font-size="10.00">algorithm</text>
</g>
<!-- Node1&#45;&gt;Node2 -->
<g id="edge2" class="edge"><title>Node1&#45;&gt;Node2</title>
<path fill="none" stroke="midnightblue" d="M250.761,-234.158C204.781,-225.193 132.303,-210.598 70,-196 68.7616,-195.71 67.5039,-195.41 66.2349,-195.103"/>
<polygon fill="midnightblue" stroke="midnightblue" points="66.9663,-191.679 56.4167,-192.656 65.2733,-198.471 66.9663,-191.679"/>
</g>
<!-- Node3 -->
<g id="node5" class="node"><title>Node3</title>
<a xlink:href="../../d2/d2c/configuration_8h.html" target="_top" xlink:title="blond/configuration.h">
<polygon fill="white" stroke="black" points="277.5,-116.5 277.5,-137.5 384.5,-137.5 384.5,-116.5 277.5,-116.5"/>
<text text-anchor="middle" x="331" y="-124.5" font-family="Helvetica,sans-Serif" font-size="10.00">blond/configuration.h</text>
</a>
</g>
<!-- Node1&#45;&gt;Node3 -->
<g id="edge4" class="edge"><title>Node1&#45;&gt;Node3</title>
<path fill="none" stroke="midnightblue" d="M300.138,-232.295C305.78,-213.045 317.726,-172.289 324.989,-147.509"/>
<polygon fill="midnightblue" stroke="midnightblue" points="328.416,-148.26 327.87,-137.679 321.698,-146.291 328.416,-148.26"/>
</g>
<!-- Node6 -->
<g id="node11" class="node"><title>Node6</title>
<a xlink:href="../../d8/dcd/exp_8h.html" target="_top" xlink:title="blond/exp.h">
<polygon fill="white" stroke="black" points="146.5,-174.5 146.5,-195.5 213.5,-195.5 213.5,-174.5 146.5,-174.5"/>
<text text-anchor="middle" x="180" y="-182.5" font-family="Helvetica,sans-Serif" font-size="10.00">blond/exp.h</text>
</a>
</g>
<!-- Node1&#45;&gt;Node6 -->
<g id="edge10" class="edge"><title>Node1&#45;&gt;Node6</title>
<path fill="none" stroke="midnightblue" d="M275.812,-232.497C257.538,-223.438 230.928,-210.246 210.385,-200.063"/>
<polygon fill="midnightblue" stroke="midnightblue" points="211.94,-196.927 201.426,-195.621 208.831,-203.199 211.94,-196.927"/>
</g>
<!-- Node8 -->
<g id="node15" class="node"><title>Node8</title>
<polygon fill="white" stroke="#bfbfbf" points="149,-0.5 149,-21.5 193,-21.5 193,-0.5 149,-0.5"/>
<text text-anchor="middle" x="171" y="-8.5" font-family="Helvetica,sans-Serif" font-size="10.00">cmath</text>
</g>
<!-- Node1&#45;&gt;Node8 -->
<g id="edge54" class="edge"><title>Node1&#45;&gt;Node8</title>
<path fill="none" stroke="midnightblue" d="M250.81,-238.375C216.693,-232.959 170.692,-221.248 138,-196 114.172,-177.597 111.073,-167.005 103,-138 97.0684,-116.69 109.674,-62.0057 112,-58 119.283,-45.4554 131.31,-34.9675 142.611,-27.1049"/>
<polygon fill="midnightblue" stroke="midnightblue" points="144.561,-30.0114 151.021,-21.6136 140.734,-24.1502 144.561,-30.0114"/>
</g>
<!-- Node10 -->
<g id="node19" class="node"><title>Node10</title>
<a xlink:href="../../d1/d3d/sin_8h.html" target="_top" xlink:title="blond/sin.h">
<polygon fill="white" stroke="black" points="233,-174.5 233,-195.5 297,-195.5 297,-174.5 233,-174.5"/>
<text text-anchor="middle" x="265" y="-182.5" font-family="Helvetica,sans-Serif" font-size="10.00">blond/sin.h</text>
</a>
</g>
<!-- Node1&#45;&gt;Node10 -->
<g id="edge18" class="edge"><title>Node1&#45;&gt;Node10</title>
<path fill="none" stroke="midnightblue" d="M291.131,-232.362C286.845,-224.595 280.913,-213.843 275.784,-204.546"/>
<polygon fill="midnightblue" stroke="midnightblue" points="278.727,-202.636 270.832,-195.571 272.598,-206.017 278.727,-202.636"/>
</g>
<!-- Node12 -->
<g id="node25" class="node"><title>Node12</title>
<a xlink:href="../../de/df0/utilities_8h.html" target="_top" xlink:title="blond/utilities.h">
<polygon fill="white" stroke="black" points="625,-174.5 625,-195.5 707,-195.5 707,-174.5 625,-174.5"/>
<text text-anchor="middle" x="666" y="-182.5" font-family="Helvetica,sans-Serif" font-size="10.00">blond/utilities.h</text>
</a>
</g>
<!-- Node1&#45;&gt;Node12 -->
<g id="edge26" class="edge"><title>Node1&#45;&gt;Node12</title>
<path fill="none" stroke="midnightblue" d="M343.36,-235.713C412.637,-224.824 542.714,-204.378 614.738,-193.057"/>
<polygon fill="midnightblue" stroke="midnightblue" points="615.594,-196.466 624.93,-191.456 614.507,-189.551 615.594,-196.466"/>
</g>
<!-- Node24 -->
<g id="node52" class="node"><title>Node24</title>
<polygon fill="white" stroke="#bfbfbf" points="724.5,-174.5 724.5,-195.5 773.5,-195.5 773.5,-174.5 724.5,-174.5"/>
<text text-anchor="middle" x="749" y="-182.5" font-family="Helvetica,sans-Serif" font-size="10.00">cassert</text>
</g>
<!-- Node1&#45;&gt;Node24 -->
<g id="edge56" class="edge"><title>Node1&#45;&gt;Node24</title>
<path fill="none" stroke="midnightblue" d="M343.086,-240.996C418.978,-237.01 574.965,-225.931 714.289,-196.041"/>
<polygon fill="midnightblue" stroke="midnightblue" points="715.268,-199.41 724.29,-193.856 713.774,-192.571 715.268,-199.41"/>
</g>
<!-- Node25 -->
<g id="node54" class="node"><title>Node25</title>
<a xlink:href="../../df/d28/omp_8h.html" target="_top" xlink:title="blond/omp.h">
<polygon fill="white" stroke="black" points="791,-174.5 791,-195.5 861,-195.5 861,-174.5 791,-174.5"/>
<text text-anchor="middle" x="826" y="-182.5" font-family="Helvetica,sans-Serif" font-size="10.00">blond/omp.h</text>
</a>
</g>
<!-- Node1&#45;&gt;Node25 -->
<g id="edge58" class="edge"><title>Node1&#45;&gt;Node25</title>
<path fill="none" stroke="midnightblue" d="M343.108,-240.814C427.969,-236.298 614.669,-224.061 780.66,-196.035"/>
<polygon fill="midnightblue" stroke="midnightblue" points="781.289,-199.478 790.555,-194.341 780.107,-192.579 781.289,-199.478"/>
</g>
<!-- Node4 -->
<g id="node7" class="node"><title>Node4</title>
<polygon fill="white" stroke="#bfbfbf" points="304.5,-58.5 304.5,-79.5 357.5,-79.5 357.5,-58.5 304.5,-58.5"/>
<text text-anchor="middle" x="331" y="-66.5" font-family="Helvetica,sans-Serif" font-size="10.00">complex</text>
</g>
<!-- Node3&#45;&gt;Node4 -->
<g id="edge6" class="edge"><title>Node3&#45;&gt;Node4</title>
<path fill="none" stroke="midnightblue" d="M331,-116.362C331,-108.922 331,-98.7427 331,-89.7276"/>
<polygon fill="midnightblue" stroke="midnightblue" points="334.5,-89.5706 331,-79.5707 327.5,-89.5707 334.5,-89.5706"/>
</g>
<!-- Node5 -->
<g id="node9" class="node"><title>Node5</title>
<polygon fill="white" stroke="#bfbfbf" points="656,-58.5 656,-79.5 700,-79.5 700,-58.5 656,-58.5"/>
<text text-anchor="middle" x="678" y="-66.5" font-family="Helvetica,sans-Serif" font-size="10.00">vector</text>
</g>
<!-- Node3&#45;&gt;Node5 -->
<g id="edge8" class="edge"><title>Node3&#45;&gt;Node5</title>
<path fill="none" stroke="midnightblue" d="M384.762,-117.42C387.547,-116.937 390.306,-116.461 393,-116 484.561,-100.329 592.837,-82.7282 645.699,-74.1957"/>
<polygon fill="midnightblue" stroke="midnightblue" points="646.497,-77.6123 655.812,-72.5649 645.383,-70.7016 646.497,-77.6123"/>
</g>
<!-- Node7 -->
<g id="node13" class="node"><title>Node7</title>
<a xlink:href="../../df/de1/vdtcore__common_8h.html" target="_top" xlink:title="vdtcore_common.h">
<polygon fill="white" stroke="black" points="121,-58.5 121,-79.5 221,-79.5 221,-58.5 121,-58.5"/>
<text text-anchor="middle" x="171" y="-66.5" font-family="Helvetica,sans-Serif" font-size="10.00">vdtcore_common.h</text>
</a>
</g>
<!-- Node6&#45;&gt;Node7 -->
<g id="edge12" class="edge"><title>Node6&#45;&gt;Node7</title>
<path fill="none" stroke="midnightblue" d="M179.169,-174.295C177.683,-155.131 174.542,-114.654 172.617,-89.8434"/>
<polygon fill="midnightblue" stroke="midnightblue" points="176.092,-89.3785 171.829,-79.6792 169.113,-89.92 176.092,-89.3785"/>
</g>
<!-- Node9 -->
<g id="node17" class="node"><title>Node9</title>
<polygon fill="white" stroke="#bfbfbf" points="112,-116.5 112,-137.5 152,-137.5 152,-116.5 112,-116.5"/>
<text text-anchor="middle" x="132" y="-124.5" font-family="Helvetica,sans-Serif" font-size="10.00">limits</text>
</g>
<!-- Node6&#45;&gt;Node9 -->
<g id="edge16" class="edge"><title>Node6&#45;&gt;Node9</title>
<path fill="none" stroke="midnightblue" d="M171.196,-174.362C164.498,-166.268 155.116,-154.932 147.211,-145.38"/>
<polygon fill="midnightblue" stroke="midnightblue" points="149.82,-143.043 140.748,-137.571 144.427,-147.506 149.82,-143.043"/>
</g>
<!-- Node7&#45;&gt;Node8 -->
<g id="edge14" class="edge"><title>Node7&#45;&gt;Node8</title>
<path fill="none" stroke="midnightblue" d="M171,-58.3619C171,-50.9219 171,-40.7427 171,-31.7276"/>
<polygon fill="midnightblue" stroke="midnightblue" points="174.5,-31.5706 171,-21.5707 167.5,-31.5707 174.5,-31.5706"/>
</g>
<!-- Node11 -->
<g id="node21" class="node"><title>Node11</title>
<a xlink:href="../../dc/dfa/sincos_8h.html" target="_top" xlink:title="sincos.h">
<polygon fill="white" stroke="black" points="207.5,-116.5 207.5,-137.5 260.5,-137.5 260.5,-116.5 207.5,-116.5"/>
<text text-anchor="middle" x="234" y="-124.5" font-family="Helvetica,sans-Serif" font-size="10.00">sincos.h</text>
</a>
</g>
<!-- Node10&#45;&gt;Node11 -->
<g id="edge20" class="edge"><title>Node10&#45;&gt;Node11</title>
<path fill="none" stroke="midnightblue" d="M259.314,-174.362C255.163,-166.595 249.416,-155.843 244.447,-146.546"/>
<polygon fill="midnightblue" stroke="midnightblue" points="247.45,-144.74 239.65,-137.571 241.277,-148.04 247.45,-144.74"/>
</g>
<!-- Node11&#45;&gt;Node7 -->
<g id="edge22" class="edge"><title>Node11&#45;&gt;Node7</title>
<path fill="none" stroke="midnightblue" d="M222.445,-116.362C213.387,-108.023 200.59,-96.2418 190.026,-86.5162"/>
<polygon fill="midnightblue" stroke="midnightblue" points="192.21,-83.7688 182.482,-79.5707 187.468,-88.9187 192.21,-83.7688"/>
</g>
<!-- Node11&#45;&gt;Node8 -->
<g id="edge24" class="edge"><title>Node11&#45;&gt;Node8</title>
<path fill="none" stroke="midnightblue" d="M235.918,-116.49C237.963,-102.333 239.715,-76.7515 230,-58 223.375,-45.2129 211.555,-34.7389 200.225,-26.9502"/>
<polygon fill="midnightblue" stroke="midnightblue" points="202.06,-23.969 191.751,-21.5238 198.285,-29.864 202.06,-23.969"/>
</g>
<!-- Node12&#45;&gt;Node3 -->
<g id="edge48" class="edge"><title>Node12&#45;&gt;Node3</title>
<path fill="none" stroke="midnightblue" d="M624.826,-177.979C573.357,-169.187 482.275,-153.58 394.854,-138.319"/>
<polygon fill="midnightblue" stroke="midnightblue" points="395.219,-134.83 384.766,-136.556 394.014,-141.725 395.219,-134.83"/>
</g>
<!-- Node12&#45;&gt;Node5 -->
<g id="edge46" class="edge"><title>Node12&#45;&gt;Node5</title>
<path fill="none" stroke="midnightblue" d="M707.162,-175.747C710.149,-175.136 713.118,-174.547 716,-174 765.748,-164.556 908.145,-176.53 941,-138 947.344,-130.56 947.276,-123.497 941,-116 911.94,-81.2864 774.277,-72.1849 710.534,-69.8198"/>
<polygon fill="midnightblue" stroke="midnightblue" points="710.361,-66.3121 700.248,-69.4733 710.125,-73.3081 710.361,-66.3121"/>
</g>
<!-- Node13 -->
<g id="node27" class="node"><title>Node13</title>
<polygon fill="white" stroke="#bfbfbf" points="988,-116.5 988,-137.5 1034,-137.5 1034,-116.5 988,-116.5"/>
<text text-anchor="middle" x="1011" y="-124.5" font-family="Helvetica,sans-Serif" font-size="10.00">chrono</text>
</g>
<!-- Node12&#45;&gt;Node13 -->
<g id="edge28" class="edge"><title>Node12&#45;&gt;Node13</title>
<path fill="none" stroke="midnightblue" d="M707.15,-175.681C710.14,-175.086 713.113,-174.518 716,-174 829.957,-153.546 860.859,-162.566 974,-138 975.252,-137.728 976.524,-137.435 977.806,-137.127"/>
<polygon fill="midnightblue" stroke="midnightblue" points="978.879,-140.463 987.65,-134.52 977.087,-133.696 978.879,-140.463"/>
</g>
<!-- Node14 -->
<g id="node29" class="node"><title>Node14</title>
<polygon fill="white" stroke="#bfbfbf" points="1051.5,-116.5 1051.5,-137.5 1094.5,-137.5 1094.5,-116.5 1051.5,-116.5"/>
<text text-anchor="middle" x="1073" y="-124.5" font-family="Helvetica,sans-Serif" font-size="10.00">cstdio</text>
</g>
<!-- Node12&#45;&gt;Node14 -->
<g id="edge30" class="edge"><title>Node12&#45;&gt;Node14</title>
<path fill="none" stroke="midnightblue" d="M707.133,-175.585C710.127,-175.013 713.106,-174.476 716,-174 857.031,-150.792 898.79,-170.483 1041.25,-137.997"/>
<polygon fill="midnightblue" stroke="midnightblue" points="1042.29,-141.35 1051.23,-135.674 1040.7,-134.532 1042.29,-141.35"/>
</g>
<!-- Node15 -->
<g id="node31" class="node"><title>Node15</title>
<polygon fill="white" stroke="#bfbfbf" points="1111.5,-116.5 1111.5,-137.5 1156.5,-137.5 1156.5,-116.5 1111.5,-116.5"/>
<text text-anchor="middle" x="1134" y="-124.5" font-family="Helvetica,sans-Serif" font-size="10.00">cstdlib</text>
</g>
<!-- Node12&#45;&gt;Node15 -->
<g id="edge32" class="edge"><title>Node12&#45;&gt;Node15</title>
<path fill="none" stroke="midnightblue" d="M707.124,-175.53C710.12,-174.97 713.102,-174.452 716,-174 883.431,-147.898 932.445,-174.131 1101.2,-137.993"/>
<polygon fill="midnightblue" stroke="midnightblue" points="1102.14,-141.37 1111.16,-135.817 1100.65,-134.531 1102.14,-141.37"/>
</g>
<!-- Node16 -->
<g id="node33" class="node"><title>Node16</title>
<polygon fill="white" stroke="#bfbfbf" points="1174,-116.5 1174,-137.5 1224,-137.5 1224,-116.5 1174,-116.5"/>
<text text-anchor="middle" x="1199" y="-124.5" font-family="Helvetica,sans-Serif" font-size="10.00">fstream</text>
</g>
<!-- Node12&#45;&gt;Node16 -->
<g id="edge34" class="edge"><title>Node12&#45;&gt;Node16</title>
<path fill="none" stroke="midnightblue" d="M707.118,-175.488C710.115,-174.938 713.099,-174.433 716,-174 910.712,-144.915 966.801,-176.01 1163.82,-137.827"/>
<polygon fill="midnightblue" stroke="midnightblue" points="1164.79,-141.204 1173.92,-135.834 1163.43,-134.337 1164.79,-141.204"/>
</g>
<!-- Node17 -->
<g id="node35" class="node"><title>Node17</title>
<polygon fill="white" stroke="#bfbfbf" points="402,-116.5 402,-137.5 456,-137.5 456,-116.5 402,-116.5"/>
<text text-anchor="middle" x="429" y="-124.5" font-family="Helvetica,sans-Serif" font-size="10.00">iostream</text>
</g>
<!-- Node12&#45;&gt;Node17 -->
<g id="edge36" class="edge"><title>Node12&#45;&gt;Node17</title>
<path fill="none" stroke="midnightblue" d="M624.994,-176.254C586.302,-167.813 526.481,-154.283 465.812,-138.103"/>
<polygon fill="midnightblue" stroke="midnightblue" points="466.637,-134.7 456.071,-135.484 464.819,-141.46 466.637,-134.7"/>
</g>
<!-- Node18 -->
<g id="node37" class="node"><title>Node18</title>
<polygon fill="white" stroke="#bfbfbf" points="473.5,-116.5 473.5,-137.5 520.5,-137.5 520.5,-116.5 473.5,-116.5"/>
<text text-anchor="middle" x="497" y="-124.5" font-family="Helvetica,sans-Serif" font-size="10.00">iterator</text>
</g>
<!-- Node12&#45;&gt;Node18 -->
<g id="edge38" class="edge"><title>Node12&#45;&gt;Node18</title>
<path fill="none" stroke="midnightblue" d="M635.256,-174.459C609.495,-165.625 571.499,-152.592 530.417,-138.486"/>
<polygon fill="midnightblue" stroke="midnightblue" points="531.36,-135.109 520.765,-135.171 529.086,-141.729 531.36,-135.109"/>
</g>
<!-- Node19 -->
<g id="node39" class="node"><title>Node19</title>
<polygon fill="white" stroke="#bfbfbf" points="538,-116.5 538,-137.5 590,-137.5 590,-116.5 538,-116.5"/>
<text text-anchor="middle" x="564" y="-124.5" font-family="Helvetica,sans-Serif" font-size="10.00">memory</text>
</g>
<!-- Node12&#45;&gt;Node19 -->
<g id="edge40" class="edge"><title>Node12&#45;&gt;Node19</title>
<path fill="none" stroke="midnightblue" d="M647.292,-174.362C631.619,-165.45 609.036,-152.609 591.337,-142.545"/>
<polygon fill="midnightblue" stroke="midnightblue" points="593.013,-139.471 582.59,-137.571 589.553,-145.556 593.013,-139.471"/>
</g>
<!-- Node20 -->
<g id="node41" class="node"><title>Node20</title>
<polygon fill="white" stroke="#bfbfbf" points="608,-116.5 608,-137.5 660,-137.5 660,-116.5 608,-116.5"/>
<text text-anchor="middle" x="634" y="-124.5" font-family="Helvetica,sans-Serif" font-size="10.00">sstream</text>
</g>
<!-- Node12&#45;&gt;Node20 -->
<g id="edge42" class="edge"><title>Node12&#45;&gt;Node20</title>
<path fill="none" stroke="midnightblue" d="M660.131,-174.362C655.845,-166.595 649.913,-155.843 644.784,-146.546"/>
<polygon fill="midnightblue" stroke="midnightblue" points="647.727,-144.636 639.832,-137.571 641.598,-148.017 647.727,-144.636"/>
</g>
<!-- Node21 -->
<g id="node43" class="node"><title>Node21</title>
<polygon fill="white" stroke="#bfbfbf" points="677.5,-116.5 677.5,-137.5 718.5,-137.5 718.5,-116.5 677.5,-116.5"/>
<text text-anchor="middle" x="698" y="-124.5" font-family="Helvetica,sans-Serif" font-size="10.00">string</text>
</g>
<!-- Node12&#45;&gt;Node21 -->
<g id="edge44" class="edge"><title>Node12&#45;&gt;Node21</title>
<path fill="none" stroke="midnightblue" d="M671.869,-174.362C676.155,-166.595 682.087,-155.843 687.216,-146.546"/>
<polygon fill="midnightblue" stroke="midnightblue" points="690.402,-148.017 692.168,-137.571 684.273,-144.636 690.402,-148.017"/>
</g>
<!-- Node22 -->
<g id="node47" class="node"><title>Node22</title>
<polygon fill="white" stroke="#bfbfbf" points="735.5,-116.5 735.5,-137.5 810.5,-137.5 810.5,-116.5 735.5,-116.5"/>
<text text-anchor="middle" x="773" y="-124.5" font-family="Helvetica,sans-Serif" font-size="10.00">mm_malloc.h</text>
</g>
<!-- Node12&#45;&gt;Node22 -->
<g id="edge50" class="edge"><title>Node12&#45;&gt;Node22</title>
<path fill="none" stroke="midnightblue" d="M685.625,-174.362C702.141,-165.409 725.974,-152.491 744.578,-142.406"/>
<polygon fill="midnightblue" stroke="midnightblue" points="746.375,-145.413 753.499,-137.571 743.04,-139.259 746.375,-145.413"/>
</g>
<!-- Node23 -->
<g id="node49" class="node"><title>Node23</title>
<a xlink:href="../../da/d69/optionparser_8h.html" target="_top" xlink:title="This is the only file required to use The Lean Mean C++ Option Parser. Just #include it and you&#39;re se...">
<polygon fill="white" stroke="black" points="828,-116.5 828,-137.5 932,-137.5 932,-116.5 828,-116.5"/>
<text text-anchor="middle" x="880" y="-124.5" font-family="Helvetica,sans-Serif" font-size="10.00">blond/optionparser.h</text>
</a>
</g>
<!-- Node12&#45;&gt;Node23 -->
<g id="edge52" class="edge"><title>Node12&#45;&gt;Node23</title>
<path fill="none" stroke="midnightblue" d="M704.754,-174.497C740.246,-164.877 792.931,-150.598 831.264,-140.209"/>
<polygon fill="midnightblue" stroke="midnightblue" points="832.437,-143.517 841.174,-137.523 830.606,-136.761 832.437,-143.517"/>
</g>
</g>
</svg>
        <g id="navigator" transform="translate(0 0)" fill="#404254">
                <rect fill="#f2f5e9" fill-opacity="0.5" stroke="#606060" stroke-width=".5" x="0" y="0" width="60" height="60"/>
                <use id="zoomplus" xlink:href="#zoomPlus" x="17" y="9" onmousedown="handleZoom(evt,'in')"/>
                <use id="zoomminus" xlink:href="#zoomMin" x="42" y="9" onmousedown="handleZoom(evt,'out')"/>
                <use id="reset" xlink:href="#resetDef" x="30" y="36" onmousedown="handleReset()"/>
                <g id="arrowUp" xlink:href="#dirArrow" transform="translate(30 24)" onmousedown="handlePan(0,-1)">
                  <use xlink:href="#rim" fill="#404040">
                        <set attributeName="fill" to="#808080" begin="arrowUp.mouseover" end="arrowUp.mouseout"/>
                  </use>
                  <path fill="none" stroke="white" stroke-width="1.5" d="M0,-3.0v7 M-2.5,-0.5L0,-3.0L2.5,-0.5"/>
                </g>
                <g id="arrowRight" xlink:href="#dirArrow" transform="rotate(90) translate(36 -43)" onmousedown="handlePan(1,0)">
                  <use xlink:href="#rim" fill="#404040">
                        <set attributeName="fill" to="#808080" begin="arrowRight.mouseover" end="arrowRight.mouseout"/>
                  </use>
                  <path fill="none" stroke="white" stroke-width="1.5" d="M0,-3.0v7 M-2.5,-0.5L0,-3.0L2.5,-0.5"/>
                </g>
                <g id="arrowDown" xlink:href="#dirArrow" transform="rotate(180) translate(-30 -48)" onmousedown="handlePan(0,1)">
                  <use xlink:href="#rim" fill="#404040">
                        <set attributeName="fill" to="#808080" begin="arrowDown.mouseover" end="arrowDown.mouseout"/>
                  </use>
                  <path fill="none" stroke="white" stroke-width="1.5" d="M0,-3.0v7 M-2.5,-0.5L0,-3.0L2.5,-0.5"/>
                </g>
                <g id="arrowLeft" xlink:href="#dirArrow" transform="rotate(270) translate(-36 17)" onmousedown="handlePan(-1,0)">
                  <use xlink:href="#rim" fill="#404040">
                        <set attributeName="fill" to="#808080" begin="arrowLeft.mouseover" end="arrowLeft.mouseout"/>
                  </use>
                  <path fill="none" stroke="white" stroke-width="1.5" d="M0,-3.0v7 M-2.5,-0.5L0,-3.0L2.5,-0.5"/>
                </g>
        </g>
        <svg viewBox="0 0 15 15" width="100%" height="30px" preserveAspectRatio="xMaxYMin meet">
         <g id="arrow_out" transform="scale(0.3 0.3)">
          <a xlink:href="math__functions_8h__incl_org.svg" target="_base">
           <rect id="button" ry="5" rx="5" y="6" x="6" height="38" width="38"
                fill="#f2f5e9" fill-opacity="0.5" stroke="#606060" stroke-width="1.0"/>
           <path id="arrow"
             d="M 11.500037,31.436501 C 11.940474,20.09759 22.043105,11.32322 32.158766,21.979434 L 37.068811,17.246167 C 37.068811,17.246167 37.088388,32 37.088388,32 L 22.160133,31.978069 C 22.160133,31.978069 26.997745,27.140456 26.997745,27.140456 C 18.528582,18.264221 13.291696,25.230495 11.500037,31.436501 z"
             style="fill:#404040;"/>
          </a>
         </g>
        </svg>
</svg>
