<?xml version="1.0" encoding="UTF-8" standalone="no"?>
<!DOCTYPE svg PUBLIC "-//W3C//DTD SVG 1.1//EN"
 "http://www.w3.org/Graphics/SVG/1.1/DTD/svg11.dtd">
<!-- Generated by graphviz version 2.26.3 (20100126.1600)
 -->
<!-- Title: math_functions.h Pages: 1 -->
<!--zoomable 262 -->
<svg id="main" version="1.1" xmlns="http://www.w3.org/2000/svg" xmlns:xlink="http://www.w3.org/1999/xlink" xml:space="preserve" onload="init(evt)">
        <defs>
                <circle id="rim" cx="0" cy="0" r="7"/>
                <circle id="rim2" cx="0" cy="0" r="3.5"/>
                <g id="zoomPlus">
                        <use xlink:href="#rim" fill="#404040">
                                <set attributeName="fill" to="#808080" begin="zoomplus.mouseover" end="zoomplus.mouseout"/>
                        </use>
                        <path d="M-4,0h8M0,-4v8" fill="none" stroke="white" stroke-width="1.5" pointer-events="none"/>
                </g>
                <g id="zoomMin">
                        <use xlink:href="#rim" fill="#404040">
                                <set attributeName="fill" to="#808080" begin="zoomminus.mouseover" end="zoomminus.mouseout"/>
                        </use>
                        <path d="M-4,0h8" fill="none" stroke="white" stroke-width="1.5" pointer-events="none"/>
                </g>
                <g id="dirArrow">
                        <path fill="none" stroke="white" stroke-width="1.5" d="M0,-3.0v7 M-2.5,-0.5L0,-3.0L2.5,-0.5"/>
                </g>
               <g id="resetDef">
                       <use xlink:href="#rim2" fill="#404040">
                               <set attributeName="fill" to="#808080" begin="reset.mouseover" end="reset.mouseout"/>
                       </use>
               </g>
        </defs>

<script type="text/javascript">
var viewWidth = 1307;
var viewHeight = 262;
var sectionId = 'dynsection-0';
</script>
<script xlink:href="../../svgpan.js"/>
<svg id="graph" class="graph">
<g id="viewport">
<title>math_functions.h</title>
<polygon fill="white" stroke="white" points="-4,5 -4,-258 1304,-258 1304,5 -4,5"/>
<!-- Node1 -->
<g id="node1" class="node"><title>Node1</title>
<polygon fill="#bfbfbf" stroke="black" points="243,-232.5 243,-253.5 335,-253.5 335,-232.5 243,-232.5"/>
<text text-anchor="middle" x="289" y="-240.5" font-family="Helvetica,sans-Serif" font-size="10.00">math_functions.h</text>
</g>
<!-- Node2 -->
<g id="node3" class="node"><title>Node2</title>
<polygon fill="white" stroke="#bfbfbf" points="0,-174.5 0,-195.5 56,-195.5 56,-174.5 0,-174.5"/>
<text text-anchor="middle" x="28" y="-182.5" font-family="Helvetica,sans-Serif" font-size="10.00">algorithm</text>
</g>
<!-- Node1&#45;&gt;Node2 -->
<g id="edge2" class="edge"><title>Node1&#45;&gt;Node2</title>
<path fill="none" stroke="midnightblue" d="M242.843,-234.465C199.506,-226.195 132.685,-212.785 66.0438,-196.129"/>
<polygon fill="midnightblue" stroke="midnightblue" points="66.7682,-192.702 56.2156,-193.648 65.055,-199.489 66.7682,-192.702"/>
</g>
<!-- Node3 -->
<g id="node5" class="node"><title>Node3</title>
<a xlink:href="../../d2/d2c/configuration_8h.html" target="_top" xlink:title="blond/configuration.h">
<polygon fill="white" stroke="black" points="274.5,-116.5 274.5,-137.5 381.5,-137.5 381.5,-116.5 274.5,-116.5"/>
<text text-anchor="middle" x="328" y="-124.5" font-family="Helvetica,sans-Serif" font-size="10.00">blond/configuration.h</text>
</a>
</g>
<!-- Node1&#45;&gt;Node3 -->
<g id="edge4" class="edge"><title>Node1&#45;&gt;Node3</title>
<path fill="none" stroke="midnightblue" d="M292.599,-232.295C299.1,-212.959 312.897,-171.923 321.216,-147.177"/>
<polygon fill="midnightblue" stroke="midnightblue" points="324.54,-148.273 324.41,-137.679 317.905,-146.042 324.54,-148.273"/>
</g>
<!-- Node6 -->
<g id="node11" class="node"><title>Node6</title>
<a xlink:href="../../d8/dcd/exp_8h.html" target="_top" xlink:title="blond/exp.h">
<polygon fill="white" stroke="black" points="73.5,-174.5 73.5,-195.5 140.5,-195.5 140.5,-174.5 73.5,-174.5"/>
<text text-anchor="middle" x="107" y="-182.5" font-family="Helvetica,sans-Serif" font-size="10.00">blond/exp.h</text>
</a>
</g>
<!-- Node1&#45;&gt;Node6 -->
<g id="edge10" class="edge"><title>Node1&#45;&gt;Node6</title>
<path fill="none" stroke="midnightblue" d="M256.041,-232.497C226.242,-223 182.191,-208.962 149.703,-198.609"/>
<polygon fill="midnightblue" stroke="midnightblue" points="150.611,-195.225 140.021,-195.523 148.486,-201.894 150.611,-195.225"/>
</g>
<!-- Node8 -->
<g id="node15" class="node"><title>Node8</title>
<polygon fill="white" stroke="#bfbfbf" points="187,-0.5 187,-21.5 231,-21.5 231,-0.5 187,-0.5"/>
<text text-anchor="middle" x="209" y="-8.5" font-family="Helvetica,sans-Serif" font-size="10.00">cmath</text>
</g>
<!-- Node1&#45;&gt;Node8 -->
<g id="edge56" class="edge"><title>Node1&#45;&gt;Node8</title>
<path fill="none" stroke="midnightblue" d="M285.355,-232.429C272.965,-196.497 232.336,-78.6742 215.947,-31.1453"/>
<polygon fill="midnightblue" stroke="midnightblue" points="219.236,-29.9463 212.667,-21.6335 212.618,-32.2282 219.236,-29.9463"/>
</g>
<!-- Node10 -->
<g id="node19" class="node"><title>Node10</title>
<a xlink:href="../../d1/d3d/sin_8h.html" target="_top" xlink:title="blond/sin.h">
<polygon fill="white" stroke="black" points="158,-174.5 158,-195.5 222,-195.5 222,-174.5 158,-174.5"/>
<text text-anchor="middle" x="190" y="-182.5" font-family="Helvetica,sans-Serif" font-size="10.00">blond/sin.h</text>
</a>
</g>
<!-- Node1&#45;&gt;Node10 -->
<g id="edge18" class="edge"><title>Node1&#45;&gt;Node10</title>
<path fill="none" stroke="midnightblue" d="M270.842,-232.362C255.77,-223.532 234.113,-210.844 217.007,-200.822"/>
<polygon fill="midnightblue" stroke="midnightblue" points="218.441,-197.606 208.043,-195.571 214.902,-203.646 218.441,-197.606"/>
</g>
<!-- Node12 -->
<g id="node25" class="node"><title>Node12</title>
<a xlink:href="../../de/df0/utilities_8h.html" target="_top" xlink:title="blond/utilities.h">
<polygon fill="white" stroke="black" points="654,-174.5 654,-195.5 736,-195.5 736,-174.5 654,-174.5"/>
<text text-anchor="middle" x="695" y="-182.5" font-family="Helvetica,sans-Serif" font-size="10.00">blond/utilities.h</text>
</a>
</g>
<!-- Node1&#45;&gt;Node12 -->
<g id="edge26" class="edge"><title>Node1&#45;&gt;Node12</title>
<path fill="none" stroke="midnightblue" d="M335.178,-236.403C411.558,-225.492 563.671,-203.761 643.447,-192.365"/>
<polygon fill="midnightblue" stroke="midnightblue" points="644.338,-195.773 653.742,-190.894 643.348,-188.843 644.338,-195.773"/>
</g>
<!-- Node25 -->
<g id="node54" class="node"><title>Node25</title>
<polygon fill="white" stroke="#bfbfbf" points="753.5,-174.5 753.5,-195.5 802.5,-195.5 802.5,-174.5 753.5,-174.5"/>
<text text-anchor="middle" x="778" y="-182.5" font-family="Helvetica,sans-Serif" font-size="10.00">cassert</text>
</g>
<!-- Node1&#45;&gt;Node25 -->
<g id="edge58" class="edge"><title>Node1&#45;&gt;Node25</title>
<path fill="none" stroke="midnightblue" d="M335.151,-241.577C416.287,-238.356 589.714,-228.256 743.215,-196.035"/>
<polygon fill="midnightblue" stroke="midnightblue" points="744.248,-199.394 753.296,-193.881 742.785,-192.548 744.248,-199.394"/>
</g>
<!-- Node26 -->
<g id="node56" class="node"><title>Node26</title>
<a xlink:href="../../d1/db0/openmp_8h.html" target="_top" xlink:title="blond/openmp.h">
<polygon fill="white" stroke="black" points="820,-174.5 820,-195.5 906,-195.5 906,-174.5 820,-174.5"/>
<text text-anchor="middle" x="863" y="-182.5" font-family="Helvetica,sans-Serif" font-size="10.00">blond/openmp.h</text>
</a>
</g>
<!-- Node1&#45;&gt;Node26 -->
<g id="edge60" class="edge"><title>Node1&#45;&gt;Node26</title>
<path fill="none" stroke="midnightblue" d="M335.306,-240.68C425.021,-235.785 628.895,-222.711 809.971,-196.007"/>
<polygon fill="midnightblue" stroke="midnightblue" points="810.567,-199.457 819.941,-194.52 809.534,-192.534 810.567,-199.457"/>
</g>
<!-- Node4 -->
<g id="node7" class="node"><title>Node4</title>
<polygon fill="white" stroke="#bfbfbf" points="301.5,-58.5 301.5,-79.5 354.5,-79.5 354.5,-58.5 301.5,-58.5"/>
<text text-anchor="middle" x="328" y="-66.5" font-family="Helvetica,sans-Serif" font-size="10.00">complex</text>
</g>
<!-- Node3&#45;&gt;Node4 -->
<g id="edge6" class="edge"><title>Node3&#45;&gt;Node4</title>
<path fill="none" stroke="midnightblue" d="M328,-116.362C328,-108.922 328,-98.7427 328,-89.7276"/>
<polygon fill="midnightblue" stroke="midnightblue" points="331.5,-89.5706 328,-79.5707 324.5,-89.5707 331.5,-89.5706"/>
</g>
<!-- Node5 -->
<g id="node9" class="node"><title>Node5</title>
<polygon fill="white" stroke="#bfbfbf" points="692,-58.5 692,-79.5 736,-79.5 736,-58.5 692,-58.5"/>
<text text-anchor="middle" x="714" y="-66.5" font-family="Helvetica,sans-Serif" font-size="10.00">vector</text>
</g>
<!-- Node3&#45;&gt;Node5 -->
<g id="edge8" class="edge"><title>Node3&#45;&gt;Node5</title>
<path fill="none" stroke="midnightblue" d="M381.751,-117.357C384.539,-116.89 387.302,-116.435 390,-116 496.709,-98.7985 623.666,-81.2182 681.909,-73.3136"/>
<polygon fill="midnightblue" stroke="midnightblue" points="682.524,-76.7623 691.964,-71.9525 681.584,-69.8256 682.524,-76.7623"/>
</g>
<!-- Node7 -->
<g id="node13" class="node"><title>Node7</title>
<a xlink:href="../../df/de1/vdtcore__common_8h.html" target="_top" xlink:title="vdtcore_common.h">
<polygon fill="white" stroke="black" points="81,-58.5 81,-79.5 181,-79.5 181,-58.5 81,-58.5"/>
<text text-anchor="middle" x="131" y="-66.5" font-family="Helvetica,sans-Serif" font-size="10.00">vdtcore_common.h</text>
</a>
</g>
<!-- Node6&#45;&gt;Node7 -->
<g id="edge12" class="edge"><title>Node6&#45;&gt;Node7</title>
<path fill="none" stroke="midnightblue" d="M109.215,-174.295C113.198,-155.045 121.63,-114.289 126.757,-89.5091"/>
<polygon fill="midnightblue" stroke="midnightblue" points="130.192,-90.181 128.791,-79.6792 123.337,-88.7627 130.192,-90.181"/>
</g>
<!-- Node9 -->
<g id="node17" class="node"><title>Node9</title>
<polygon fill="white" stroke="#bfbfbf" points="63,-116.5 63,-137.5 103,-137.5 103,-116.5 63,-116.5"/>
<text text-anchor="middle" x="83" y="-124.5" font-family="Helvetica,sans-Serif" font-size="10.00">limits</text>
</g>
<!-- Node6&#45;&gt;Node9 -->
<g id="edge16" class="edge"><title>Node6&#45;&gt;Node9</title>
<path fill="none" stroke="midnightblue" d="M102.598,-174.362C99.4179,-166.677 95.0284,-156.069 91.2096,-146.84"/>
<polygon fill="midnightblue" stroke="midnightblue" points="94.4317,-145.473 87.3741,-137.571 87.9636,-148.149 94.4317,-145.473"/>
</g>
<!-- Node7&#45;&gt;Node8 -->
<g id="edge14" class="edge"><title>Node7&#45;&gt;Node8</title>
<path fill="none" stroke="midnightblue" d="M145.306,-58.3619C156.851,-49.7773 173.3,-37.5459 186.59,-27.6636"/>
<polygon fill="midnightblue" stroke="midnightblue" points="188.848,-30.3463 194.784,-21.5707 184.671,-24.7291 188.848,-30.3463"/>
</g>
<!-- Node11 -->
<g id="node21" class="node"><title>Node11</title>
<a xlink:href="../../dc/dfa/sincos_8h.html" target="_top" xlink:title="sincos.h">
<polygon fill="white" stroke="black" points="163.5,-116.5 163.5,-137.5 216.5,-137.5 216.5,-116.5 163.5,-116.5"/>
<text text-anchor="middle" x="190" y="-124.5" font-family="Helvetica,sans-Serif" font-size="10.00">sincos.h</text>
</a>
</g>
<!-- Node10&#45;&gt;Node11 -->
<g id="edge20" class="edge"><title>Node10&#45;&gt;Node11</title>
<path fill="none" stroke="midnightblue" d="M190,-174.362C190,-166.922 190,-156.743 190,-147.728"/>
<polygon fill="midnightblue" stroke="midnightblue" points="193.5,-147.571 190,-137.571 186.5,-147.571 193.5,-147.571"/>
</g>
<!-- Node11&#45;&gt;Node7 -->
<g id="edge22" class="edge"><title>Node11&#45;&gt;Node7</title>
<path fill="none" stroke="midnightblue" d="M179.178,-116.362C170.779,-108.104 158.946,-96.4725 149.11,-86.8029"/>
<polygon fill="midnightblue" stroke="midnightblue" points="151.338,-84.0851 141.753,-79.5707 146.431,-89.077 151.338,-84.0851"/>
</g>
<!-- Node11&#45;&gt;Node8 -->
<g id="edge24" class="edge"><title>Node11&#45;&gt;Node8</title>
<path fill="none" stroke="midnightblue" d="M191.753,-116.295C194.892,-97.1314 201.522,-56.654 205.586,-31.8434"/>
<polygon fill="midnightblue" stroke="midnightblue" points="209.088,-32.1135 207.251,-21.6792 202.18,-30.9819 209.088,-32.1135"/>
</g>
<!-- Node12&#45;&gt;Node3 -->
<g id="edge50" class="edge"><title>Node12&#45;&gt;Node3</title>
<path fill="none" stroke="midnightblue" d="M653.513,-178.912C596.679,-170.505 491.164,-154.657 391.673,-138.254"/>
<polygon fill="midnightblue" stroke="midnightblue" points="392.193,-134.793 381.756,-136.614 391.051,-141.699 392.193,-134.793"/>
</g>
<!-- Node12&#45;&gt;Node5 -->
<g id="edge46" class="edge"><title>Node12&#45;&gt;Node5</title>
<path fill="none" stroke="midnightblue" d="M736.146,-175.659C739.137,-175.069 742.111,-174.509 745,-174 804.831,-163.464 975.971,-183.699 1016,-138 1022.44,-130.645 1022.36,-123.427 1016,-116 998.565,-95.6412 820.505,-78.1398 746.248,-71.6688"/>
<polygon fill="midnightblue" stroke="midnightblue" points="746.339,-68.1638 736.076,-70.795 745.74,-75.1381 746.339,-68.1638"/>
</g>
<!-- Node13 -->
<g id="node27" class="node"><title>Node13</title>
<polygon fill="white" stroke="#bfbfbf" points="1063,-116.5 1063,-137.5 1109,-137.5 1109,-116.5 1063,-116.5"/>
<text text-anchor="middle" x="1086" y="-124.5" font-family="Helvetica,sans-Serif" font-size="10.00">chrono</text>
</g>
<!-- Node12&#45;&gt;Node13 -->
<g id="edge28" class="edge"><title>Node12&#45;&gt;Node13</title>
<path fill="none" stroke="midnightblue" d="M736.138,-175.612C739.13,-175.033 742.108,-174.488 745,-174 879.158,-151.356 915.75,-165.486 1049,-138 1050.26,-137.741 1051.53,-137.459 1052.81,-137.16"/>
<polygon fill="midnightblue" stroke="midnightblue" points="1053.87,-140.501 1062.67,-134.594 1052.11,-133.727 1053.87,-140.501"/>
</g>
<!-- Node14 -->
<g id="node29" class="node"><title>Node14</title>
<polygon fill="white" stroke="#bfbfbf" points="1126.5,-116.5 1126.5,-137.5 1169.5,-137.5 1169.5,-116.5 1126.5,-116.5"/>
<text text-anchor="middle" x="1148" y="-124.5" font-family="Helvetica,sans-Serif" font-size="10.00">cstdio</text>
</g>
<!-- Node12&#45;&gt;Node14 -->
<g id="edge30" class="edge"><title>Node12&#45;&gt;Node14</title>
<path fill="none" stroke="midnightblue" d="M736.126,-175.541C739.122,-174.979 742.103,-174.457 745,-174 906.303,-148.567 953.761,-173.937 1116.38,-137.935"/>
<polygon fill="midnightblue" stroke="midnightblue" points="1117.26,-141.326 1126.24,-135.709 1115.71,-134.497 1117.26,-141.326"/>
</g>
<!-- Node15 -->
<g id="node31" class="node"><title>Node15</title>
<polygon fill="white" stroke="#bfbfbf" points="1186.5,-116.5 1186.5,-137.5 1231.5,-137.5 1231.5,-116.5 1186.5,-116.5"/>
<text text-anchor="middle" x="1209" y="-124.5" font-family="Helvetica,sans-Serif" font-size="10.00">cstdlib</text>
</g>
<!-- Node12&#45;&gt;Node15 -->
<g id="edge32" class="edge"><title>Node12&#45;&gt;Node15</title>
<path fill="none" stroke="midnightblue" d="M736.119,-175.497C739.116,-174.945 742.1,-174.438 745,-174 932.684,-145.682 987.353,-177.502 1176.19,-137.97"/>
<polygon fill="midnightblue" stroke="midnightblue" points="1177.12,-141.352 1186.17,-135.843 1175.66,-134.506 1177.12,-141.352"/>
</g>
<!-- Node16 -->
<g id="node33" class="node"><title>Node16</title>
<polygon fill="white" stroke="#bfbfbf" points="1249,-116.5 1249,-137.5 1299,-137.5 1299,-116.5 1249,-116.5"/>
<text text-anchor="middle" x="1274" y="-124.5" font-family="Helvetica,sans-Serif" font-size="10.00">fstream</text>
</g>
<!-- Node12&#45;&gt;Node16 -->
<g id="edge34" class="edge"><title>Node12&#45;&gt;Node16</title>
<path fill="none" stroke="midnightblue" d="M736.114,-175.463C739.112,-174.919 742.098,-174.423 745,-174 959.976,-142.702 1021.64,-179.119 1238.8,-137.815"/>
<polygon fill="midnightblue" stroke="midnightblue" points="1239.77,-141.192 1248.93,-135.855 1238.44,-134.32 1239.77,-141.192"/>
</g>
<!-- Node17 -->
<g id="node35" class="node"><title>Node17</title>
<polygon fill="white" stroke="#bfbfbf" points="399,-116.5 399,-137.5 453,-137.5 453,-116.5 399,-116.5"/>
<text text-anchor="middle" x="426" y="-124.5" font-family="Helvetica,sans-Serif" font-size="10.00">iostream</text>
</g>
<!-- Node12&#45;&gt;Node17 -->
<g id="edge36" class="edge"><title>Node12&#45;&gt;Node17</title>
<path fill="none" stroke="midnightblue" d="M653.901,-177.962C609.145,-170.021 535.299,-156.113 462.801,-138.034"/>
<polygon fill="midnightblue" stroke="midnightblue" points="463.6,-134.626 453.047,-135.574 461.888,-141.413 463.6,-134.626"/>
</g>
<!-- Node18 -->
<g id="node37" class="node"><title>Node18</title>
<polygon fill="white" stroke="#bfbfbf" points="470.5,-116.5 470.5,-137.5 517.5,-137.5 517.5,-116.5 470.5,-116.5"/>
<text text-anchor="middle" x="494" y="-124.5" font-family="Helvetica,sans-Serif" font-size="10.00">iterator</text>
</g>
<!-- Node12&#45;&gt;Node18 -->
<g id="edge38" class="edge"><title>Node12&#45;&gt;Node18</title>
<path fill="none" stroke="midnightblue" d="M654.509,-174.469C622.296,-165.927 575.877,-153.258 527.427,-138.341"/>
<polygon fill="midnightblue" stroke="midnightblue" points="528.302,-134.948 517.714,-135.328 526.228,-141.634 528.302,-134.948"/>
</g>
<!-- Node19 -->
<g id="node39" class="node"><title>Node19</title>
<polygon fill="white" stroke="#bfbfbf" points="535,-116.5 535,-137.5 587,-137.5 587,-116.5 535,-116.5"/>
<text text-anchor="middle" x="561" y="-124.5" font-family="Helvetica,sans-Serif" font-size="10.00">memory</text>
</g>
<!-- Node12&#45;&gt;Node19 -->
<g id="edge40" class="edge"><title>Node12&#45;&gt;Node19</title>
<path fill="none" stroke="midnightblue" d="M670.734,-174.497C649.522,-165.315 618.502,-151.889 594.85,-141.652"/>
<polygon fill="midnightblue" stroke="midnightblue" points="596.106,-138.381 585.539,-137.621 593.326,-144.806 596.106,-138.381"/>
</g>
<!-- Node20 -->
<g id="node41" class="node"><title>Node20</title>
<polygon fill="white" stroke="#bfbfbf" points="605,-116.5 605,-137.5 657,-137.5 657,-116.5 605,-116.5"/>
<text text-anchor="middle" x="631" y="-124.5" font-family="Helvetica,sans-Serif" font-size="10.00">sstream</text>
</g>
<!-- Node12&#45;&gt;Node20 -->
<g id="edge42" class="edge"><title>Node12&#45;&gt;Node20</title>
<path fill="none" stroke="midnightblue" d="M683.261,-174.362C674.059,-166.023 661.06,-154.242 650.328,-144.516"/>
<polygon fill="midnightblue" stroke="midnightblue" points="652.424,-141.692 642.664,-137.571 647.724,-146.879 652.424,-141.692"/>
</g>
<!-- Node21 -->
<g id="node43" class="node"><title>Node21</title>
<polygon fill="white" stroke="#bfbfbf" points="674.5,-116.5 674.5,-137.5 715.5,-137.5 715.5,-116.5 674.5,-116.5"/>
<text text-anchor="middle" x="695" y="-124.5" font-family="Helvetica,sans-Serif" font-size="10.00">string</text>
</g>
<!-- Node12&#45;&gt;Node21 -->
<g id="edge44" class="edge"><title>Node12&#45;&gt;Node21</title>
<path fill="none" stroke="midnightblue" d="M695,-174.362C695,-166.922 695,-156.743 695,-147.728"/>
<polygon fill="midnightblue" stroke="midnightblue" points="698.5,-147.571 695,-137.571 691.5,-147.571 698.5,-147.571"/>
</g>
<!-- Node22 -->
<g id="node46" class="node"><title>Node22</title>
<polygon fill="white" stroke="#bfbfbf" points="733,-116.5 733,-137.5 793,-137.5 793,-116.5 733,-116.5"/>
<text text-anchor="middle" x="763" y="-124.5" font-family="Helvetica,sans-Serif" font-size="10.00">sys/stat.h</text>
</g>
<!-- Node12&#45;&gt;Node22 -->
<g id="edge48" class="edge"><title>Node12&#45;&gt;Node22</title>
<path fill="none" stroke="midnightblue" d="M707.472,-174.362C717.345,-165.941 731.333,-154.011 742.798,-144.231"/>
<polygon fill="midnightblue" stroke="midnightblue" points="745.27,-146.723 750.607,-137.571 740.727,-141.397 745.27,-146.723"/>
</g>
<!-- Node23 -->
<g id="node49" class="node"><title>Node23</title>
<polygon fill="white" stroke="#bfbfbf" points="810.5,-116.5 810.5,-137.5 885.5,-137.5 885.5,-116.5 810.5,-116.5"/>
<text text-anchor="middle" x="848" y="-124.5" font-family="Helvetica,sans-Serif" font-size="10.00">mm_malloc.h</text>
</g>
<!-- Node12&#45;&gt;Node23 -->
<g id="edge52" class="edge"><title>Node12&#45;&gt;Node23</title>
<path fill="none" stroke="midnightblue" d="M722.707,-174.497C747.326,-165.164 783.517,-151.445 810.68,-141.147"/>
<polygon fill="midnightblue" stroke="midnightblue" points="812.131,-144.341 820.241,-137.523 809.65,-137.795 812.131,-144.341"/>
</g>
<!-- Node24 -->
<g id="node51" class="node"><title>Node24</title>
<a xlink:href="../../da/d69/optionparser_8h.html" target="_top" xlink:title="This is the only file required to use The Lean Mean C++ Option Parser. Just #include it and you&#39;re se...">
<polygon fill="white" stroke="black" points="903,-116.5 903,-137.5 1007,-137.5 1007,-116.5 903,-116.5"/>
<text text-anchor="middle" x="955" y="-124.5" font-family="Helvetica,sans-Serif" font-size="10.00">blond/optionparser.h</text>
</a>
</g>
<!-- Node12&#45;&gt;Node24 -->
<g id="edge54" class="edge"><title>Node12&#45;&gt;Node24</title>
<path fill="none" stroke="midnightblue" d="M736.198,-175.81C779.869,-166.068 849.151,-150.613 898.035,-139.707"/>
<polygon fill="midnightblue" stroke="midnightblue" points="898.836,-143.115 907.834,-137.522 897.311,-136.283 898.836,-143.115"/>
</g>
</g>
</svg>
        <g id="navigator" transform="translate(0 0)" fill="#404254">
                <rect fill="#f2f5e9" fill-opacity="0.5" stroke="#606060" stroke-width=".5" x="0" y="0" width="60" height="60"/>
                <use id="zoomplus" xlink:href="#zoomPlus" x="17" y="9" onmousedown="handleZoom(evt,'in')"/>
                <use id="zoomminus" xlink:href="#zoomMin" x="42" y="9" onmousedown="handleZoom(evt,'out')"/>
                <use id="reset" xlink:href="#resetDef" x="30" y="36" onmousedown="handleReset()"/>
                <g id="arrowUp" xlink:href="#dirArrow" transform="translate(30 24)" onmousedown="handlePan(0,-1)">
                  <use xlink:href="#rim" fill="#404040">
                        <set attributeName="fill" to="#808080" begin="arrowUp.mouseover" end="arrowUp.mouseout"/>
                  </use>
                  <path fill="none" stroke="white" stroke-width="1.5" d="M0,-3.0v7 M-2.5,-0.5L0,-3.0L2.5,-0.5"/>
                </g>
                <g id="arrowRight" xlink:href="#dirArrow" transform="rotate(90) translate(36 -43)" onmousedown="handlePan(1,0)">
                  <use xlink:href="#rim" fill="#404040">
                        <set attributeName="fill" to="#808080" begin="arrowRight.mouseover" end="arrowRight.mouseout"/>
                  </use>
                  <path fill="none" stroke="white" stroke-width="1.5" d="M0,-3.0v7 M-2.5,-0.5L0,-3.0L2.5,-0.5"/>
                </g>
                <g id="arrowDown" xlink:href="#dirArrow" transform="rotate(180) translate(-30 -48)" onmousedown="handlePan(0,1)">
                  <use xlink:href="#rim" fill="#404040">
                        <set attributeName="fill" to="#808080" begin="arrowDown.mouseover" end="arrowDown.mouseout"/>
                  </use>
                  <path fill="none" stroke="white" stroke-width="1.5" d="M0,-3.0v7 M-2.5,-0.5L0,-3.0L2.5,-0.5"/>
                </g>
                <g id="arrowLeft" xlink:href="#dirArrow" transform="rotate(270) translate(-36 17)" onmousedown="handlePan(-1,0)">
                  <use xlink:href="#rim" fill="#404040">
                        <set attributeName="fill" to="#808080" begin="arrowLeft.mouseover" end="arrowLeft.mouseout"/>
                  </use>
                  <path fill="none" stroke="white" stroke-width="1.5" d="M0,-3.0v7 M-2.5,-0.5L0,-3.0L2.5,-0.5"/>
                </g>
        </g>
        <svg viewBox="0 0 15 15" width="100%" height="30px" preserveAspectRatio="xMaxYMin meet">
         <g id="arrow_out" transform="scale(0.3 0.3)">
          <a xlink:href="math__functions_8h__incl_org.svg" target="_base">
           <rect id="button" ry="5" rx="5" y="6" x="6" height="38" width="38"
                fill="#f2f5e9" fill-opacity="0.5" stroke="#606060" stroke-width="1.0"/>
           <path id="arrow"
             d="M 11.500037,31.436501 C 11.940474,20.09759 22.043105,11.32322 32.158766,21.979434 L 37.068811,17.246167 C 37.068811,17.246167 37.088388,32 37.088388,32 L 22.160133,31.978069 C 22.160133,31.978069 26.997745,27.140456 26.997745,27.140456 C 18.528582,18.264221 13.291696,25.230495 11.500037,31.436501 z"
             style="fill:#404040;"/>
          </a>
         </g>
        </svg>
</svg>
