<?xml version="1.0" encoding="UTF-8" standalone="no"?>
<!DOCTYPE svg PUBLIC "-//W3C//DTD SVG 1.1//EN"
 "http://www.w3.org/Graphics/SVG/1.1/DTD/svg11.dtd">
<!-- Generated by graphviz version 2.26.3 (20100126.1600)
 -->
<!-- Title: plot_beams.cpp Pages: 1 -->
<!--zoomable 652 -->
<svg id="main" version="1.1" xmlns="http://www.w3.org/2000/svg" xmlns:xlink="http://www.w3.org/1999/xlink" xml:space="preserve" onload="init(evt)">
        <defs>
                <circle id="rim" cx="0" cy="0" r="7"/>
                <circle id="rim2" cx="0" cy="0" r="3.5"/>
                <g id="zoomPlus">
                        <use xlink:href="#rim" fill="#404040">
                                <set attributeName="fill" to="#808080" begin="zoomplus.mouseover" end="zoomplus.mouseout"/>
                        </use>
                        <path d="M-4,0h8M0,-4v8" fill="none" stroke="white" stroke-width="1.5" pointer-events="none"/>
                </g>
                <g id="zoomMin">
                        <use xlink:href="#rim" fill="#404040">
                                <set attributeName="fill" to="#808080" begin="zoomminus.mouseover" end="zoomminus.mouseout"/>
                        </use>
                        <path d="M-4,0h8" fill="none" stroke="white" stroke-width="1.5" pointer-events="none"/>
                </g>
                <g id="dirArrow">
                        <path fill="none" stroke="white" stroke-width="1.5" d="M0,-3.0v7 M-2.5,-0.5L0,-3.0L2.5,-0.5"/>
                </g>
               <g id="resetDef">
                       <use xlink:href="#rim2" fill="#404040">
                               <set attributeName="fill" to="#808080" begin="reset.mouseover" end="reset.mouseout"/>
                       </use>
               </g>
        </defs>

<script type="text/javascript">
var viewWidth = 1387;
var viewHeight = 652;
var sectionId = 'dynsection-0';
</script>
<script xlink:href="../../svgpan.js"/>
<svg id="graph" class="graph">
<g id="viewport">
<title>plot_beams.cpp</title>
<polygon fill="white" stroke="white" points="-4,5 -4,-648 1383.55,-648 1383.55,5 -4,5"/>
<!-- Node1 -->
<g id="node1" class="node"><title>Node1</title>
<polygon fill="#bfbfbf" stroke="black" points="681.55,-622.5 681.55,-643.5 767.55,-643.5 767.55,-622.5 681.55,-622.5"/>
<text text-anchor="middle" x="724.55" y="-630.5" font-family="Helvetica,sans-Serif" font-size="10.00">plot_beams.cpp</text>
</g>
<!-- Node2 -->
<g id="node3" class="node"><title>Node2</title>
<a xlink:href="../../d8/d94/plot__beams_8h.html" target="_top" xlink:title="blond/plots/plot_beams.h">
<polygon fill="white" stroke="black" points="279.05,-390.5 279.05,-411.5 404.05,-411.5 404.05,-390.5 279.05,-390.5"/>
<text text-anchor="middle" x="341.55" y="-398.5" font-family="Helvetica,sans-Serif" font-size="10.00">blond/plots/plot_beams.h</text>
</a>
</g>
<!-- Node1&#45;&gt;Node2 -->
<g id="edge2" class="edge"><title>Node1&#45;&gt;Node2</title>
<path fill="none" stroke="midnightblue" d="M684.157,-622.407C630.766,-607.177 535.215,-575.582 464.55,-528 418.801,-497.195 376.676,-447.065 355.628,-419.916"/>
<polygon fill="midnightblue" stroke="midnightblue" points="358.17,-417.478 349.322,-411.651 352.605,-421.724 358.17,-417.478"/>
</g>
<!-- Node24 -->
<g id="node58" class="node"><title>Node24</title>
<a xlink:href="../../d1/da8/python_8h.html" target="_top" xlink:title="blond/python.h">
<polygon fill="white" stroke="black" points="1097.55,-325.5 1097.55,-346.5 1177.55,-346.5 1177.55,-325.5 1097.55,-325.5"/>
<text text-anchor="middle" x="1137.55" y="-333.5" font-family="Helvetica,sans-Serif" font-size="10.00">blond/python.h</text>
</a>
</g>
<!-- Node1&#45;&gt;Node24 -->
<g id="edge68" class="edge"><title>Node1&#45;&gt;Node24</title>
<path fill="none" stroke="midnightblue" d="M767.888,-629.384C869.69,-619.699 1115.55,-588.868 1115.55,-517 1115.55,-517 1115.55,-517 1115.55,-459 1115.55,-422.505 1125.05,-380.857 1131.57,-356.59"/>
<polygon fill="midnightblue" stroke="midnightblue" points="1135,-357.316 1134.3,-346.744 1128.25,-355.44 1135,-357.316"/>
</g>
<!-- Node28 -->
<g id="node68" class="node"><title>Node28</title>
<a xlink:href="../../d0/da6/Monitors_8h.html" target="_top" xlink:title="blond/monitors/Monitors.h">
<polygon fill="white" stroke="black" points="660.05,-564.5 660.05,-585.5 789.05,-585.5 789.05,-564.5 660.05,-564.5"/>
<text text-anchor="middle" x="724.55" y="-572.5" font-family="Helvetica,sans-Serif" font-size="10.00">blond/monitors/Monitors.h</text>
</a>
</g>
<!-- Node1&#45;&gt;Node28 -->
<g id="edge80" class="edge"><title>Node1&#45;&gt;Node28</title>
<path fill="none" stroke="midnightblue" d="M724.55,-622.362C724.55,-614.922 724.55,-604.743 724.55,-595.728"/>
<polygon fill="midnightblue" stroke="midnightblue" points="728.05,-595.571 724.55,-585.571 721.05,-595.571 728.05,-595.571"/>
</g>
<!-- Node3 -->
<g id="node5" class="node"><title>Node3</title>
<a xlink:href="../../d5/d34/GeneralParameters_8h.html" target="_top" xlink:title="blond/input_parameters\l/GeneralParameters.h">
<polygon fill="white" stroke="black" points="349.55,-175 349.55,-209 467.55,-209 467.55,-175 349.55,-175"/>
<text text-anchor="start" x="357.55" y="-196" font-family="Helvetica,sans-Serif" font-size="10.00">blond/input_parameters</text>
<text text-anchor="middle" x="408.55" y="-183" font-family="Helvetica,sans-Serif" font-size="10.00">/GeneralParameters.h</text>
</a>
</g>
<!-- Node2&#45;&gt;Node3 -->
<g id="edge4" class="edge"><title>Node2&#45;&gt;Node3</title>
<path fill="none" stroke="midnightblue" d="M337.646,-390.314C332.38,-374.308 324.435,-343.288 331.55,-318 342.358,-279.589 368.488,-241.308 387.313,-217.198"/>
<polygon fill="midnightblue" stroke="midnightblue" points="390.126,-219.283 393.629,-209.284 384.656,-214.916 390.126,-219.283"/>
</g>
<!-- Node20 -->
<g id="node42" class="node"><title>Node20</title>
<a xlink:href="../../d6/db7/RfParameters_8h.html" target="_top" xlink:title="blond/input_parameters\l/RfParameters.h">
<polygon fill="white" stroke="black" points="355.55,-319 355.55,-353 473.55,-353 473.55,-319 355.55,-319"/>
<text text-anchor="start" x="363.55" y="-340" font-family="Helvetica,sans-Serif" font-size="10.00">blond/input_parameters</text>
<text text-anchor="middle" x="414.55" y="-327" font-family="Helvetica,sans-Serif" font-size="10.00">/RfParameters.h</text>
</a>
</g>
<!-- Node2&#45;&gt;Node20 -->
<g id="edge44" class="edge"><title>Node2&#45;&gt;Node20</title>
<path fill="none" stroke="midnightblue" d="M353.605,-390.267C362.818,-382.063 375.876,-370.436 387.543,-360.047"/>
<polygon fill="midnightblue" stroke="midnightblue" points="390.194,-362.374 395.334,-353.11 385.539,-357.146 390.194,-362.374"/>
</g>
<!-- Node21 -->
<g id="node44" class="node"><title>Node21</title>
<a xlink:href="../../d7/d74/Beams_8h.html" target="_top" xlink:title="blond/beams/Beams.h">
<polygon fill="white" stroke="black" points="435.55,-253.5 435.55,-274.5 549.55,-274.5 549.55,-253.5 435.55,-253.5"/>
<text text-anchor="middle" x="492.55" y="-261.5" font-family="Helvetica,sans-Serif" font-size="10.00">blond/beams/Beams.h</text>
</a>
</g>
<!-- Node2&#45;&gt;Node21 -->
<g id="edge58" class="edge"><title>Node2&#45;&gt;Node21</title>
<path fill="none" stroke="midnightblue" d="M338.818,-390.337C335.112,-373.242 330.637,-339.447 346.55,-318 358.081,-302.46 402.397,-287.408 439.21,-277.161"/>
<polygon fill="midnightblue" stroke="midnightblue" points="440.141,-280.536 448.871,-274.533 438.303,-273.781 440.141,-280.536"/>
</g>
<!-- Node22 -->
<g id="node52" class="node"><title>Node22</title>
<a xlink:href="../../dc/df2/Slices_8h.html" target="_top" xlink:title="blond/beams/Slices.h">
<polygon fill="white" stroke="black" points="605.55,-325.5 605.55,-346.5 715.55,-346.5 715.55,-325.5 605.55,-325.5"/>
<text text-anchor="middle" x="660.55" y="-333.5" font-family="Helvetica,sans-Serif" font-size="10.00">blond/beams/Slices.h</text>
</a>
</g>
<!-- Node2&#45;&gt;Node22 -->
<g id="edge60" class="edge"><title>Node2&#45;&gt;Node22</title>
<path fill="none" stroke="midnightblue" d="M393.158,-390.484C449.333,-379.038 539.122,-360.742 598.947,-348.552"/>
<polygon fill="midnightblue" stroke="midnightblue" points="599.917,-351.927 609.017,-346.501 598.519,-345.068 599.917,-351.927"/>
</g>
<!-- Node4 -->
<g id="node7" class="node"><title>Node4</title>
<a xlink:href="../../d2/d2c/configuration_8h.html" target="_top" xlink:title="blond/configuration.h">
<polygon fill="white" stroke="black" points="933.05,-58.5 933.05,-79.5 1040.05,-79.5 1040.05,-58.5 933.05,-58.5"/>
<text text-anchor="middle" x="986.55" y="-66.5" font-family="Helvetica,sans-Serif" font-size="10.00">blond/configuration.h</text>
</a>
</g>
<!-- Node3&#45;&gt;Node4 -->
<g id="edge6" class="edge"><title>Node3&#45;&gt;Node4</title>
<path fill="none" stroke="midnightblue" d="M454.743,-174.989C482.823,-164.541 519.354,-150.757 551.55,-138 575.261,-128.605 579.877,-122.459 604.55,-116 735.316,-81.7663 772.477,-97.2072 906.55,-80 911.852,-79.3196 917.348,-78.5979 922.865,-77.8623"/>
<polygon fill="midnightblue" stroke="midnightblue" points="923.333,-81.3309 932.777,-76.529 922.4,-74.3934 923.333,-81.3309"/>
</g>
<!-- Node6 -->
<g id="node11" class="node"><title>Node6</title>
<polygon fill="white" stroke="#bfbfbf" points="883.55,-0.5 883.55,-21.5 927.55,-21.5 927.55,-0.5 883.55,-0.5"/>
<text text-anchor="middle" x="905.55" y="-8.5" font-family="Helvetica,sans-Serif" font-size="10.00">vector</text>
</g>
<!-- Node3&#45;&gt;Node6 -->
<g id="edge42" class="edge"><title>Node3&#45;&gt;Node6</title>
<path fill="none" stroke="midnightblue" d="M349.211,-182.772C225.666,-162.356 -43.7135,-110.96 6.55018,-58 36.9543,-25.9648 714.762,-13.8564 872.814,-11.4633"/>
<polygon fill="midnightblue" stroke="midnightblue" points="873.333,-14.9561 883.28,-11.3077 873.229,-7.95687 873.333,-14.9561"/>
</g>
<!-- Node7 -->
<g id="node13" class="node"><title>Node7</title>
<a xlink:href="../../de/df0/utilities_8h.html" target="_top" xlink:title="blond/utilities.h">
<polygon fill="white" stroke="black" points="460.55,-116.5 460.55,-137.5 542.55,-137.5 542.55,-116.5 460.55,-116.5"/>
<text text-anchor="middle" x="501.55" y="-124.5" font-family="Helvetica,sans-Serif" font-size="10.00">blond/utilities.h</text>
</a>
</g>
<!-- Node3&#45;&gt;Node7 -->
<g id="edge12" class="edge"><title>Node3&#45;&gt;Node7</title>
<path fill="none" stroke="midnightblue" d="M432.985,-174.922C446.847,-165.233 464.115,-153.165 477.853,-143.562"/>
<polygon fill="midnightblue" stroke="midnightblue" points="480.109,-146.256 486.301,-137.658 476.099,-140.518 480.109,-146.256"/>
</g>
<!-- Node5 -->
<g id="node9" class="node"><title>Node5</title>
<polygon fill="white" stroke="#bfbfbf" points="960.05,-0.5 960.05,-21.5 1013.05,-21.5 1013.05,-0.5 960.05,-0.5"/>
<text text-anchor="middle" x="986.55" y="-8.5" font-family="Helvetica,sans-Serif" font-size="10.00">complex</text>
</g>
<!-- Node4&#45;&gt;Node5 -->
<g id="edge8" class="edge"><title>Node4&#45;&gt;Node5</title>
<path fill="none" stroke="midnightblue" d="M986.55,-58.3619C986.55,-50.9219 986.55,-40.7427 986.55,-31.7276"/>
<polygon fill="midnightblue" stroke="midnightblue" points="990.05,-31.5706 986.55,-21.5707 983.05,-31.5707 990.05,-31.5706"/>
</g>
<!-- Node4&#45;&gt;Node6 -->
<g id="edge10" class="edge"><title>Node4&#45;&gt;Node6</title>
<path fill="none" stroke="midnightblue" d="M971.694,-58.3619C959.705,-49.7773 942.623,-37.5459 928.822,-27.6636"/>
<polygon fill="midnightblue" stroke="midnightblue" points="930.481,-24.5469 920.313,-21.5707 926.406,-30.2383 930.481,-24.5469"/>
</g>
<!-- Node7&#45;&gt;Node4 -->
<g id="edge36" class="edge"><title>Node7&#45;&gt;Node4</title>
<path fill="none" stroke="midnightblue" d="M542.618,-118.327C547.305,-117.474 552.024,-116.675 556.55,-116 716.9,-92.0733 758.81,-101.144 919.55,-80 920.631,-79.8578 921.722,-79.7115 922.819,-79.5616"/>
<polygon fill="midnightblue" stroke="midnightblue" points="923.435,-83.0093 932.838,-78.1283 922.443,-76.0799 923.435,-83.0093"/>
</g>
<!-- Node7&#45;&gt;Node6 -->
<g id="edge32" class="edge"><title>Node7&#45;&gt;Node6</title>
<path fill="none" stroke="midnightblue" d="M542.625,-118.371C547.311,-117.51 552.027,-116.698 556.55,-116 629.457,-104.755 830.385,-127.826 886.55,-80 900.329,-68.2674 904.579,-47.5504 905.683,-31.8698"/>
<polygon fill="midnightblue" stroke="midnightblue" points="909.192,-31.6521 906.022,-21.5425 902.196,-31.4222 909.192,-31.6521"/>
</g>
<!-- Node8 -->
<g id="node15" class="node"><title>Node8</title>
<polygon fill="white" stroke="#bfbfbf" points="15.5502,-58.5 15.5502,-79.5 61.5502,-79.5 61.5502,-58.5 15.5502,-58.5"/>
<text text-anchor="middle" x="38.5502" y="-66.5" font-family="Helvetica,sans-Serif" font-size="10.00">chrono</text>
</g>
<!-- Node7&#45;&gt;Node8 -->
<g id="edge14" class="edge"><title>Node7&#45;&gt;Node8</title>
<path fill="none" stroke="midnightblue" d="M460.35,-125.553C384.796,-122.245 219.07,-111.954 71.9095,-79.9045"/>
<polygon fill="midnightblue" stroke="midnightblue" points="72.3171,-76.4099 61.7963,-77.6607 70.8008,-83.2437 72.3171,-76.4099"/>
</g>
<!-- Node9 -->
<g id="node17" class="node"><title>Node9</title>
<polygon fill="white" stroke="#bfbfbf" points="79.0502,-58.5 79.0502,-79.5 122.05,-79.5 122.05,-58.5 79.0502,-58.5"/>
<text text-anchor="middle" x="100.55" y="-66.5" font-family="Helvetica,sans-Serif" font-size="10.00">cstdio</text>
</g>
<!-- Node7&#45;&gt;Node9 -->
<g id="edge16" class="edge"><title>Node7&#45;&gt;Node9</title>
<path fill="none" stroke="midnightblue" d="M460.379,-124.82C393.154,-120.605 255.697,-109.253 132.32,-80.0435"/>
<polygon fill="midnightblue" stroke="midnightblue" points="132.871,-76.5761 122.329,-77.6309 131.228,-83.3805 132.871,-76.5761"/>
</g>
<!-- Node10 -->
<g id="node19" class="node"><title>Node10</title>
<polygon fill="white" stroke="#bfbfbf" points="139.05,-58.5 139.05,-79.5 184.05,-79.5 184.05,-58.5 139.05,-58.5"/>
<text text-anchor="middle" x="161.55" y="-66.5" font-family="Helvetica,sans-Serif" font-size="10.00">cstdlib</text>
</g>
<!-- Node7&#45;&gt;Node10 -->
<g id="edge18" class="edge"><title>Node7&#45;&gt;Node10</title>
<path fill="none" stroke="midnightblue" d="M460.07,-123.221C402.22,-117.4 294.019,-104.516 194.043,-80.0385"/>
<polygon fill="midnightblue" stroke="midnightblue" points="194.634,-76.579 184.085,-77.5545 192.94,-83.3708 194.634,-76.579"/>
</g>
<!-- Node11 -->
<g id="node21" class="node"><title>Node11</title>
<polygon fill="white" stroke="#bfbfbf" points="201.55,-58.5 201.55,-79.5 251.55,-79.5 251.55,-58.5 201.55,-58.5"/>
<text text-anchor="middle" x="226.55" y="-66.5" font-family="Helvetica,sans-Serif" font-size="10.00">fstream</text>
</g>
<!-- Node7&#45;&gt;Node11 -->
<g id="edge20" class="edge"><title>Node7&#45;&gt;Node11</title>
<path fill="none" stroke="midnightblue" d="M460.277,-120.506C414.086,-112.895 336.885,-99.1551 261.8,-80.1076"/>
<polygon fill="midnightblue" stroke="midnightblue" points="262.259,-76.6118 251.702,-77.51 260.515,-83.3911 262.259,-76.6118"/>
</g>
<!-- Node12 -->
<g id="node23" class="node"><title>Node12</title>
<polygon fill="white" stroke="#bfbfbf" points="269.55,-58.5 269.55,-79.5 323.55,-79.5 323.55,-58.5 269.55,-58.5"/>
<text text-anchor="middle" x="296.55" y="-66.5" font-family="Helvetica,sans-Serif" font-size="10.00">iostream</text>
</g>
<!-- Node7&#45;&gt;Node12 -->
<g id="edge22" class="edge"><title>Node7&#45;&gt;Node12</title>
<path fill="none" stroke="midnightblue" d="M462.539,-116.452C430.311,-107.67 383.131,-94.6603 333.316,-80.1797"/>
<polygon fill="midnightblue" stroke="midnightblue" points="334.235,-76.8019 323.655,-77.3623 332.275,-83.522 334.235,-76.8019"/>
</g>
<!-- Node13 -->
<g id="node25" class="node"><title>Node13</title>
<polygon fill="white" stroke="#bfbfbf" points="341.05,-58.5 341.05,-79.5 388.05,-79.5 388.05,-58.5 341.05,-58.5"/>
<text text-anchor="middle" x="364.55" y="-66.5" font-family="Helvetica,sans-Serif" font-size="10.00">iterator</text>
</g>
<!-- Node7&#45;&gt;Node13 -->
<g id="edge24" class="edge"><title>Node7&#45;&gt;Node13</title>
<path fill="none" stroke="midnightblue" d="M476.741,-116.497C454.549,-107.102 421.858,-93.2615 397.482,-82.942"/>
<polygon fill="midnightblue" stroke="midnightblue" points="398.832,-79.7127 388.259,-79.0371 396.103,-86.1588 398.832,-79.7127"/>
</g>
<!-- Node14 -->
<g id="node27" class="node"><title>Node14</title>
<polygon fill="white" stroke="#bfbfbf" points="405.55,-58.5 405.55,-79.5 457.55,-79.5 457.55,-58.5 405.55,-58.5"/>
<text text-anchor="middle" x="431.55" y="-66.5" font-family="Helvetica,sans-Serif" font-size="10.00">memory</text>
</g>
<!-- Node7&#45;&gt;Node14 -->
<g id="edge26" class="edge"><title>Node7&#45;&gt;Node14</title>
<path fill="none" stroke="midnightblue" d="M488.711,-116.362C478.548,-107.941 464.149,-96.0105 452.346,-86.2308"/>
<polygon fill="midnightblue" stroke="midnightblue" points="454.241,-83.2558 444.308,-79.5707 449.775,-88.6459 454.241,-83.2558"/>
</g>
<!-- Node15 -->
<g id="node29" class="node"><title>Node15</title>
<polygon fill="white" stroke="#bfbfbf" points="475.55,-58.5 475.55,-79.5 527.55,-79.5 527.55,-58.5 475.55,-58.5"/>
<text text-anchor="middle" x="501.55" y="-66.5" font-family="Helvetica,sans-Serif" font-size="10.00">sstream</text>
</g>
<!-- Node7&#45;&gt;Node15 -->
<g id="edge28" class="edge"><title>Node7&#45;&gt;Node15</title>
<path fill="none" stroke="midnightblue" d="M501.55,-116.362C501.55,-108.922 501.55,-98.7427 501.55,-89.7276"/>
<polygon fill="midnightblue" stroke="midnightblue" points="505.05,-89.5706 501.55,-79.5707 498.05,-89.5707 505.05,-89.5706"/>
</g>
<!-- Node16 -->
<g id="node31" class="node"><title>Node16</title>
<polygon fill="white" stroke="#bfbfbf" points="545.05,-58.5 545.05,-79.5 586.05,-79.5 586.05,-58.5 545.05,-58.5"/>
<text text-anchor="middle" x="565.55" y="-66.5" font-family="Helvetica,sans-Serif" font-size="10.00">string</text>
</g>
<!-- Node7&#45;&gt;Node16 -->
<g id="edge30" class="edge"><title>Node7&#45;&gt;Node16</title>
<path fill="none" stroke="midnightblue" d="M513.289,-116.362C522.491,-108.023 535.49,-96.2418 546.222,-86.5162"/>
<polygon fill="midnightblue" stroke="midnightblue" points="548.826,-88.8793 553.886,-79.5707 544.126,-83.6924 548.826,-88.8793"/>
</g>
<!-- Node17 -->
<g id="node34" class="node"><title>Node17</title>
<polygon fill="white" stroke="#bfbfbf" points="603.55,-58.5 603.55,-79.5 663.55,-79.5 663.55,-58.5 603.55,-58.5"/>
<text text-anchor="middle" x="633.55" y="-66.5" font-family="Helvetica,sans-Serif" font-size="10.00">sys/stat.h</text>
</g>
<!-- Node7&#45;&gt;Node17 -->
<g id="edge34" class="edge"><title>Node7&#45;&gt;Node17</title>
<path fill="none" stroke="midnightblue" d="M525.454,-116.497C546.35,-107.315 576.906,-93.8889 600.205,-83.6516"/>
<polygon fill="midnightblue" stroke="midnightblue" points="601.631,-86.8483 609.378,-79.6212 598.815,-80.4397 601.631,-86.8483"/>
</g>
<!-- Node18 -->
<g id="node37" class="node"><title>Node18</title>
<polygon fill="white" stroke="#bfbfbf" points="681.05,-58.5 681.05,-79.5 756.05,-79.5 756.05,-58.5 681.05,-58.5"/>
<text text-anchor="middle" x="718.55" y="-66.5" font-family="Helvetica,sans-Serif" font-size="10.00">mm_malloc.h</text>
</g>
<!-- Node7&#45;&gt;Node18 -->
<g id="edge38" class="edge"><title>Node7&#45;&gt;Node18</title>
<path fill="none" stroke="midnightblue" d="M540.847,-116.497C577.397,-106.728 631.929,-92.1522 670.936,-81.7263"/>
<polygon fill="midnightblue" stroke="midnightblue" points="672.24,-85.0007 680.997,-79.0371 670.433,-78.2381 672.24,-85.0007"/>
</g>
<!-- Node19 -->
<g id="node39" class="node"><title>Node19</title>
<a xlink:href="../../da/d69/optionparser_8h.html" target="_top" xlink:title="This is the only file required to use The Lean Mean C++ Option Parser. Just #include it and you&#39;re se...">
<polygon fill="white" stroke="black" points="773.55,-58.5 773.55,-79.5 877.55,-79.5 877.55,-58.5 773.55,-58.5"/>
<text text-anchor="middle" x="825.55" y="-66.5" font-family="Helvetica,sans-Serif" font-size="10.00">blond/optionparser.h</text>
</a>
</g>
<!-- Node7&#45;&gt;Node19 -->
<g id="edge40" class="edge"><title>Node7&#45;&gt;Node19</title>
<path fill="none" stroke="midnightblue" d="M542.673,-118.654C547.35,-117.741 552.051,-116.839 556.55,-116 645.626,-99.3868 670.484,-96.5112 763.206,-80.2257"/>
<polygon fill="midnightblue" stroke="midnightblue" points="764.07,-83.6274 773.311,-78.4451 762.855,-76.7336 764.07,-83.6274"/>
</g>
<!-- Node20&#45;&gt;Node3 -->
<g id="edge56" class="edge"><title>Node20&#45;&gt;Node3</title>
<path fill="none" stroke="midnightblue" d="M413.838,-318.916C412.814,-294.341 410.915,-248.753 409.693,-219.427"/>
<polygon fill="midnightblue" stroke="midnightblue" points="413.174,-218.908 409.261,-209.062 406.181,-219.199 413.174,-218.908"/>
</g>
<!-- Node20&#45;&gt;Node21 -->
<g id="edge46" class="edge"><title>Node20&#45;&gt;Node21</title>
<path fill="none" stroke="midnightblue" d="M427.195,-318.937C438.301,-307.573 454.417,-292.689 467.967,-281.28"/>
<polygon fill="midnightblue" stroke="midnightblue" points="470.492,-283.736 476.005,-274.688 466.053,-278.323 470.492,-283.736"/>
</g>
<!-- Node21&#45;&gt;Node3 -->
<g id="edge52" class="edge"><title>Node21&#45;&gt;Node3</title>
<path fill="none" stroke="midnightblue" d="M480.156,-253.376C468.681,-243.541 451.207,-228.563 436.394,-215.866"/>
<polygon fill="midnightblue" stroke="midnightblue" points="438.364,-212.945 428.494,-209.094 433.808,-218.26 438.364,-212.945"/>
</g>
<!-- Node21&#45;&gt;Node4 -->
<g id="edge48" class="edge"><title>Node21&#45;&gt;Node4</title>
<path fill="none" stroke="midnightblue" d="M511.081,-253.46C558.116,-227.076 686.491,-157.341 800.55,-116 840.478,-101.528 886.776,-89.8123 923.193,-81.6975"/>
<polygon fill="midnightblue" stroke="midnightblue" points="924.171,-85.0663 933.189,-79.5049 922.671,-78.2288 924.171,-85.0663"/>
</g>
<!-- Node21&#45;&gt;Node7 -->
<g id="edge50" class="edge"><title>Node21&#45;&gt;Node7</title>
<path fill="none" stroke="midnightblue" d="M493.256,-253.25C494.748,-230.541 498.243,-177.348 500.186,-147.768"/>
<polygon fill="midnightblue" stroke="midnightblue" points="503.684,-147.908 500.847,-137.7 496.699,-147.449 503.684,-147.908"/>
</g>
<!-- Node21&#45;&gt;Node20 -->
<g id="edge54" class="edge"><title>Node21&#45;&gt;Node20</title>
<path fill="none" stroke="midnightblue" d="M485.744,-274.901C476.754,-284.761 461.118,-299.622 446.706,-312.218"/>
<polygon fill="midnightblue" stroke="midnightblue" points="444.185,-309.769 438.875,-318.937 448.743,-315.082 444.185,-309.769"/>
</g>
<!-- Node22&#45;&gt;Node4 -->
<g id="edge62" class="edge"><title>Node22&#45;&gt;Node4</title>
<path fill="none" stroke="midnightblue" d="M666.072,-325.461C685.056,-290.251 751.311,-175.558 838.55,-116 863.635,-98.8748 895.306,-87.7199 922.907,-80.5971"/>
<polygon fill="midnightblue" stroke="midnightblue" points="923.994,-83.9343 932.872,-78.1518 922.326,-77.136 923.994,-83.9343"/>
</g>
<!-- Node22&#45;&gt;Node7 -->
<g id="edge64" class="edge"><title>Node22&#45;&gt;Node7</title>
<path fill="none" stroke="midnightblue" d="M652.447,-325.348C626.983,-291.877 548.344,-188.509 515.838,-145.781"/>
<polygon fill="midnightblue" stroke="midnightblue" points="518.478,-143.47 509.637,-137.63 512.906,-147.708 518.478,-143.47"/>
</g>
<!-- Node23 -->
<g id="node56" class="node"><title>Node23</title>
<polygon fill="white" stroke="#bfbfbf" points="918.05,-253.5 918.05,-274.5 953.05,-274.5 953.05,-253.5 918.05,-253.5"/>
<text text-anchor="middle" x="935.55" y="-261.5" font-family="Helvetica,sans-Serif" font-size="10.00">map</text>
</g>
<!-- Node22&#45;&gt;Node23 -->
<g id="edge66" class="edge"><title>Node22&#45;&gt;Node23</title>
<path fill="none" stroke="midnightblue" d="M700.832,-325.453C757.54,-310.606 859.415,-283.934 908.138,-271.177"/>
<polygon fill="midnightblue" stroke="midnightblue" points="909.178,-274.523 917.965,-268.604 907.405,-267.751 909.178,-274.523"/>
</g>
<!-- Node24&#45;&gt;Node4 -->
<g id="edge76" class="edge"><title>Node24&#45;&gt;Node4</title>
<path fill="none" stroke="midnightblue" d="M1132.24,-325.452C1126.98,-314.717 1118.96,-297.498 1113.55,-282 1088.43,-210.045 1117.1,-176.344 1070.55,-116 1059.65,-101.865 1043.22,-91.3426 1027.77,-83.8791"/>
<polygon fill="midnightblue" stroke="midnightblue" points="1028.89,-80.5458 1018.34,-79.6224 1026.01,-86.9261 1028.89,-80.5458"/>
</g>
<!-- Node24&#45;&gt;Node23 -->
<g id="edge74" class="edge"><title>Node24&#45;&gt;Node23</title>
<path fill="none" stroke="midnightblue" d="M1107.74,-325.376C1068.72,-311.467 1000.85,-287.276 963.022,-273.792"/>
<polygon fill="midnightblue" stroke="midnightblue" points="963.792,-270.351 953.197,-270.29 961.442,-276.944 963.792,-270.351"/>
</g>
<!-- Node25 -->
<g id="node60" class="node"><title>Node25</title>
<polygon fill="white" stroke="#bfbfbf" points="1122.55,-253.5 1122.55,-274.5 1178.55,-274.5 1178.55,-253.5 1122.55,-253.5"/>
<text text-anchor="middle" x="1150.55" y="-261.5" font-family="Helvetica,sans-Serif" font-size="10.00">Python.h</text>
</g>
<!-- Node24&#45;&gt;Node25 -->
<g id="edge70" class="edge"><title>Node24&#45;&gt;Node25</title>
<path fill="none" stroke="midnightblue" d="M1139.47,-325.376C1141.39,-314.741 1144.39,-298.095 1146.79,-284.82"/>
<polygon fill="midnightblue" stroke="midnightblue" points="1150.29,-285.13 1148.62,-274.667 1143.4,-283.886 1150.29,-285.13"/>
</g>
<!-- Node26 -->
<g id="node62" class="node"><title>Node26</title>
<polygon fill="white" stroke="#bfbfbf" points="1196.55,-247 1196.55,-281 1304.55,-281 1304.55,-247 1196.55,-247"/>
<text text-anchor="start" x="1204.55" y="-268" font-family="Helvetica,sans-Serif" font-size="10.00">numpy/core/include</text>
<text text-anchor="middle" x="1250.55" y="-255" font-family="Helvetica,sans-Serif" font-size="10.00">/numpy/arrayobject.h</text>
</g>
<!-- Node24&#45;&gt;Node26 -->
<g id="edge72" class="edge"><title>Node24&#45;&gt;Node26</title>
<path fill="none" stroke="midnightblue" d="M1154.22,-325.376C1170.16,-315.222 1194.7,-299.587 1215.02,-286.639"/>
<polygon fill="midnightblue" stroke="midnightblue" points="1217.17,-289.42 1223.72,-281.094 1213.41,-283.516 1217.17,-289.42"/>
</g>
<!-- Node27 -->
<g id="node66" class="node"><title>Node27</title>
<polygon fill="white" stroke="#bfbfbf" points="1322.55,-253.5 1322.55,-274.5 1378.55,-274.5 1378.55,-253.5 1322.55,-253.5"/>
<text text-anchor="middle" x="1350.55" y="-261.5" font-family="Helvetica,sans-Serif" font-size="10.00">algorithm</text>
</g>
<!-- Node24&#45;&gt;Node27 -->
<g id="edge78" class="edge"><title>Node24&#45;&gt;Node27</title>
<path fill="none" stroke="midnightblue" d="M1177.65,-325.609C1213.72,-315.813 1267.9,-299.981 1313.55,-282 1315.93,-281.061 1318.38,-280.031 1320.82,-278.955"/>
<polygon fill="midnightblue" stroke="midnightblue" points="1322.46,-282.05 1330.06,-274.667 1319.52,-275.7 1322.46,-282.05"/>
</g>
<!-- Node28&#45;&gt;Node3 -->
<g id="edge96" class="edge"><title>Node28&#45;&gt;Node3</title>
<path fill="none" stroke="midnightblue" d="M659.773,-565.845C530.231,-546.652 251.55,-500.536 251.55,-459 251.55,-459 251.55,-459 251.55,-336 251.55,-277.696 311.082,-236.594 356.829,-213.617"/>
<polygon fill="midnightblue" stroke="midnightblue" points="358.601,-216.647 366.064,-209.127 355.54,-210.352 358.601,-216.647"/>
</g>
<!-- Node28&#45;&gt;Node4 -->
<g id="edge88" class="edge"><title>Node28&#45;&gt;Node4</title>
<path fill="none" stroke="midnightblue" d="M789.31,-573.387C870.04,-570.035 1001.79,-559.722 1037.55,-528 1061.35,-506.893 1056.55,-490.808 1056.55,-459 1056.55,-459 1056.55,-459 1056.55,-192 1056.55,-150.204 1025.64,-109.644 1004.9,-87.1319"/>
<polygon fill="midnightblue" stroke="midnightblue" points="1007.23,-84.5045 997.797,-79.6858 1002.17,-89.3369 1007.23,-84.5045"/>
</g>
<!-- Node28&#45;&gt;Node7 -->
<g id="edge90" class="edge"><title>Node28&#45;&gt;Node7</title>
<path fill="none" stroke="midnightblue" d="M659.75,-569.538C568.452,-561.384 406.811,-545.144 350.55,-528 285.335,-508.127 213.55,-527.176 213.55,-459 213.55,-459 213.55,-459 213.55,-264 213.55,-194.819 278.265,-204.108 340.55,-174 375.712,-157.003 418.224,-144.915 450.732,-137.258"/>
<polygon fill="midnightblue" stroke="midnightblue" points="451.515,-140.669 460.48,-135.023 449.951,-133.846 451.515,-140.669"/>
</g>
<!-- Node28&#45;&gt;Node20 -->
<g id="edge98" class="edge"><title>Node28&#45;&gt;Node20</title>
<path fill="none" stroke="midnightblue" d="M659.802,-569.204C598.814,-562.523 513.101,-549.592 487.55,-528 437.562,-485.757 421.729,-405.406 416.77,-363.296"/>
<polygon fill="midnightblue" stroke="midnightblue" points="420.237,-362.796 415.707,-353.218 413.276,-363.53 420.237,-362.796"/>
</g>
<!-- Node28&#45;&gt;Node21 -->
<g id="edge92" class="edge"><title>Node28&#45;&gt;Node21</title>
<path fill="none" stroke="midnightblue" d="M660.049,-568.744C594.189,-558.381 501.55,-531.006 501.55,-459 501.55,-459 501.55,-459 501.55,-401 501.55,-359.704 497.428,-311.557 494.763,-284.745"/>
<polygon fill="midnightblue" stroke="midnightblue" points="498.229,-284.233 493.727,-274.643 491.266,-284.948 498.229,-284.233"/>
</g>
<!-- Node28&#45;&gt;Node22 -->
<g id="edge94" class="edge"><title>Node28&#45;&gt;Node22</title>
<path fill="none" stroke="midnightblue" d="M700.119,-564.473C685.452,-556.715 668.041,-544.617 659.55,-528 630.823,-471.778 645.152,-393.648 654.551,-356.804"/>
<polygon fill="midnightblue" stroke="midnightblue" points="658.033,-357.332 657.256,-346.765 651.274,-355.51 658.033,-357.332"/>
</g>
<!-- Node29 -->
<g id="node70" class="node"><title>Node29</title>
<polygon fill="white" stroke="#bfbfbf" points="836.55,-506.5 836.55,-527.5 892.55,-527.5 892.55,-506.5 836.55,-506.5"/>
<text text-anchor="middle" x="864.55" y="-514.5" font-family="Helvetica,sans-Serif" font-size="10.00">H5Cpp.h</text>
</g>
<!-- Node28&#45;&gt;Node29 -->
<g id="edge82" class="edge"><title>Node28&#45;&gt;Node29</title>
<path fill="none" stroke="midnightblue" d="M749.903,-564.497C772.163,-555.275 804.762,-541.769 829.513,-531.515"/>
<polygon fill="midnightblue" stroke="midnightblue" points="831.014,-534.682 838.913,-527.621 828.335,-528.215 831.014,-534.682"/>
</g>
<!-- Node30 -->
<g id="node72" class="node"><title>Node30</title>
<polygon fill="white" stroke="#bfbfbf" points="910.55,-506.5 910.55,-527.5 954.55,-527.5 954.55,-506.5 910.55,-506.5"/>
<text text-anchor="middle" x="932.55" y="-514.5" font-family="Helvetica,sans-Serif" font-size="10.00">hdf5.h</text>
</g>
<!-- Node28&#45;&gt;Node30 -->
<g id="edge84" class="edge"><title>Node28&#45;&gt;Node30</title>
<path fill="none" stroke="midnightblue" d="M768.112,-564.485C801.933,-556.085 850.171,-543.592 900.515,-528.168"/>
<polygon fill="midnightblue" stroke="midnightblue" points="901.753,-531.449 910.272,-525.15 899.684,-524.761 901.753,-531.449"/>
</g>
<!-- Node31 -->
<g id="node74" class="node"><title>Node31</title>
<polygon fill="white" stroke="#bfbfbf" points="972.55,-506.5 972.55,-527.5 1028.55,-527.5 1028.55,-506.5 972.55,-506.5"/>
<text text-anchor="middle" x="1000.55" y="-514.5" font-family="Helvetica,sans-Serif" font-size="10.00">hdf5_hl.h</text>
</g>
<!-- Node28&#45;&gt;Node31 -->
<g id="edge86" class="edge"><title>Node28&#45;&gt;Node31</title>
<path fill="none" stroke="midnightblue" d="M786.554,-564.472C832.643,-556.266 897.231,-543.968 962.319,-528.149"/>
<polygon fill="midnightblue" stroke="midnightblue" points="963.468,-531.471 972.344,-525.686 961.797,-524.673 963.468,-531.471"/>
</g>
<!-- Node32 -->
<g id="node82" class="node"><title>Node32</title>
<a xlink:href="../../d3/d33/PhaseLoop_8h.html" target="_top" xlink:title="blond/llrf/PhaseLoop.h">
<polygon fill="white" stroke="black" points="668.05,-506.5 668.05,-527.5 781.05,-527.5 781.05,-506.5 668.05,-506.5"/>
<text text-anchor="middle" x="724.55" y="-514.5" font-family="Helvetica,sans-Serif" font-size="10.00">blond/llrf/PhaseLoop.h</text>
</a>
</g>
<!-- Node28&#45;&gt;Node32 -->
<g id="edge100" class="edge"><title>Node28&#45;&gt;Node32</title>
<path fill="none" stroke="midnightblue" d="M724.55,-564.362C724.55,-556.922 724.55,-546.743 724.55,-537.728"/>
<polygon fill="midnightblue" stroke="midnightblue" points="728.05,-537.571 724.55,-527.571 721.05,-537.571 728.05,-537.571"/>
</g>
<!-- Node34 -->
<g id="node91" class="node"><title>Node34</title>
<a xlink:href="../../d4/dba/LHCNoiseFB_8h.html" target="_top" xlink:title="blond/llrf/LHCNoiseFB.h">
<polygon fill="white" stroke="black" points="885.05,-448.5 885.05,-469.5 1008.05,-469.5 1008.05,-448.5 885.05,-448.5"/>
<text text-anchor="middle" x="946.55" y="-456.5" font-family="Helvetica,sans-Serif" font-size="10.00">blond/llrf/LHCNoiseFB.h</text>
</a>
</g>
<!-- Node28&#45;&gt;Node34 -->
<g id="edge132" class="edge"><title>Node28&#45;&gt;Node34</title>
<path fill="none" stroke="midnightblue" d="M738.285,-564.4C757.491,-549.909 793.815,-523.7 827.55,-506 852.334,-492.996 881.549,-481.408 904.829,-472.991"/>
<polygon fill="midnightblue" stroke="midnightblue" points="906.163,-476.231 914.413,-469.583 903.818,-469.636 906.163,-476.231"/>
</g>
<!-- Node32&#45;&gt;Node4 -->
<g id="edge102" class="edge"><title>Node32&#45;&gt;Node4</title>
<path fill="none" stroke="midnightblue" d="M751.236,-506.443C769.904,-498.251 794.759,-485.663 813.55,-470 895.234,-401.911 920.937,-380.279 961.55,-282 988.859,-215.917 989.264,-129.114 987.762,-89.8671"/>
<polygon fill="midnightblue" stroke="midnightblue" points="991.25,-89.5254 987.286,-79.7003 984.258,-89.8532 991.25,-89.5254"/>
</g>
<!-- Node32&#45;&gt;Node7 -->
<g id="edge130" class="edge"><title>Node32&#45;&gt;Node7</title>
<path fill="none" stroke="midnightblue" d="M754.136,-506.479C770.379,-499.006 789.095,-487.206 798.55,-470 803.259,-461.431 800.494,-457.583 798.55,-448 778.791,-350.583 764.641,-323.622 702.55,-246 672.876,-208.903 663.965,-198.968 623.55,-174 600.487,-159.752 572.388,-148.568 548.973,-140.691"/>
<polygon fill="midnightblue" stroke="midnightblue" points="549.845,-137.294 539.253,-137.518 547.673,-143.948 549.845,-137.294"/>
</g>
<!-- Node33 -->
<g id="node85" class="node"><title>Node33</title>
<a xlink:href="../../d5/d87/globals_8h.html" target="_top" xlink:title="blond/globals.h">
<polygon fill="white" stroke="black" points="530.55,-390.5 530.55,-411.5 612.55,-411.5 612.55,-390.5 530.55,-390.5"/>
<text text-anchor="middle" x="571.55" y="-398.5" font-family="Helvetica,sans-Serif" font-size="10.00">blond/globals.h</text>
</a>
</g>
<!-- Node32&#45;&gt;Node33 -->
<g id="edge104" class="edge"><title>Node32&#45;&gt;Node33</title>
<path fill="none" stroke="midnightblue" d="M710.431,-506.295C683.788,-486.096 625.912,-442.216 593.924,-417.963"/>
<polygon fill="midnightblue" stroke="midnightblue" points="595.719,-414.932 585.636,-411.679 591.49,-420.51 595.719,-414.932"/>
</g>
<!-- Node32&#45;&gt;Node34 -->
<g id="edge114" class="edge"><title>Node32&#45;&gt;Node34</title>
<path fill="none" stroke="midnightblue" d="M764.753,-506.497C801.728,-496.836 856.692,-482.477 896.499,-472.077"/>
<polygon fill="midnightblue" stroke="midnightblue" points="897.482,-475.437 906.272,-469.523 895.712,-468.665 897.482,-475.437"/>
</g>
<!-- Node36 -->
<g id="node97" class="node"><title>Node36</title>
<a xlink:href="../../d9/dc8/PhaseNoise_8h.html" target="_top" xlink:title="blond/llrf/PhaseNoise.h">
<polygon fill="white" stroke="black" points="671.55,-448.5 671.55,-469.5 789.55,-469.5 789.55,-448.5 671.55,-448.5"/>
<text text-anchor="middle" x="730.55" y="-456.5" font-family="Helvetica,sans-Serif" font-size="10.00">blond/llrf/PhaseNoise.h</text>
</a>
</g>
<!-- Node32&#45;&gt;Node36 -->
<g id="edge122" class="edge"><title>Node32&#45;&gt;Node36</title>
<path fill="none" stroke="midnightblue" d="M725.651,-506.362C726.42,-498.922 727.473,-488.743 728.406,-479.728"/>
<polygon fill="midnightblue" stroke="midnightblue" points="731.909,-479.878 729.457,-469.571 724.946,-479.157 731.909,-479.878"/>
</g>
<!-- Node33&#45;&gt;Node3 -->
<g id="edge110" class="edge"><title>Node33&#45;&gt;Node3</title>
<path fill="none" stroke="midnightblue" d="M574.22,-390.225C580.313,-362.893 592.249,-289.92 558.55,-246 548.008,-232.26 511.926,-219.048 477.794,-209.133"/>
<polygon fill="midnightblue" stroke="midnightblue" points="478.345,-205.651 467.77,-206.295 476.439,-212.387 478.345,-205.651"/>
</g>
<!-- Node33&#45;&gt;Node20 -->
<g id="edge112" class="edge"><title>Node33&#45;&gt;Node20</title>
<path fill="none" stroke="midnightblue" d="M545.976,-390.412C524.135,-381.37 492.062,-368.091 465.069,-356.915"/>
<polygon fill="midnightblue" stroke="midnightblue" points="466.336,-353.652 455.758,-353.06 463.658,-360.12 466.336,-353.652"/>
</g>
<!-- Node33&#45;&gt;Node21 -->
<g id="edge106" class="edge"><title>Node33&#45;&gt;Node21</title>
<path fill="none" stroke="midnightblue" d="M565.351,-390.25C552.083,-367.241 520.769,-312.937 503.857,-283.608"/>
<polygon fill="midnightblue" stroke="midnightblue" points="506.748,-281.615 498.72,-274.7 500.684,-285.112 506.748,-281.615"/>
</g>
<!-- Node33&#45;&gt;Node22 -->
<g id="edge108" class="edge"><title>Node33&#45;&gt;Node22</title>
<path fill="none" stroke="midnightblue" d="M586.247,-390.267C600.244,-380.044 621.521,-364.504 637.725,-352.67"/>
<polygon fill="midnightblue" stroke="midnightblue" points="640.116,-355.258 646.127,-346.534 635.987,-349.605 640.116,-355.258"/>
</g>
<!-- Node34&#45;&gt;Node4 -->
<g id="edge116" class="edge"><title>Node34&#45;&gt;Node4</title>
<path fill="none" stroke="midnightblue" d="M958.799,-448.48C968.516,-439.588 981.865,-426.079 990.55,-412 1009.45,-381.363 1018.55,-371.997 1018.55,-336 1018.55,-336 1018.55,-336 1018.55,-192 1018.55,-154.712 1004.61,-113.054 995.127,-89.0448"/>
<polygon fill="midnightblue" stroke="midnightblue" points="998.296,-87.5482 991.272,-79.6167 991.817,-90.1975 998.296,-87.5482"/>
</g>
<!-- Node34&#45;&gt;Node7 -->
<g id="edge118" class="edge"><title>Node34&#45;&gt;Node7</title>
<path fill="none" stroke="midnightblue" d="M938.803,-448.412C932.077,-439.039 922.237,-424.886 914.55,-412 853.444,-309.568 887.402,-243.612 790.55,-174 753.372,-147.278 625.416,-134.891 552.847,-129.896"/>
<polygon fill="midnightblue" stroke="midnightblue" points="552.77,-126.383 542.56,-129.212 552.305,-133.368 552.77,-126.383"/>
</g>
<!-- Node35 -->
<g id="node95" class="node"><title>Node35</title>
<polygon fill="white" stroke="#bfbfbf" points="923.05,-390.5 923.05,-411.5 982.05,-411.5 982.05,-390.5 923.05,-390.5"/>
<text text-anchor="middle" x="952.55" y="-398.5" font-family="Helvetica,sans-Serif" font-size="10.00">functional</text>
</g>
<!-- Node34&#45;&gt;Node35 -->
<g id="edge120" class="edge"><title>Node34&#45;&gt;Node35</title>
<path fill="none" stroke="midnightblue" d="M947.651,-448.362C948.42,-440.922 949.473,-430.743 950.406,-421.728"/>
<polygon fill="midnightblue" stroke="midnightblue" points="953.909,-421.878 951.457,-411.571 946.946,-421.157 953.909,-421.878"/>
</g>
<!-- Node36&#45;&gt;Node4 -->
<g id="edge124" class="edge"><title>Node36&#45;&gt;Node4</title>
<path fill="none" stroke="midnightblue" d="M737.664,-448.162C772.834,-394.584 928.253,-157.813 973.902,-88.2687"/>
<polygon fill="midnightblue" stroke="midnightblue" points="977.029,-89.8826 979.591,-79.6021 971.177,-86.0413 977.029,-89.8826"/>
</g>
<!-- Node36&#45;&gt;Node7 -->
<g id="edge128" class="edge"><title>Node36&#45;&gt;Node7</title>
<path fill="none" stroke="midnightblue" d="M732.745,-448.441C737.267,-424.066 745.538,-362.552 724.55,-318 683.853,-231.61 583.297,-169.374 532.286,-142.205"/>
<polygon fill="midnightblue" stroke="midnightblue" points="533.848,-139.072 523.364,-137.542 530.605,-145.276 533.848,-139.072"/>
</g>
<!-- Node36&#45;&gt;Node33 -->
<g id="edge126" class="edge"><title>Node36&#45;&gt;Node33</title>
<path fill="none" stroke="midnightblue" d="M701.756,-448.497C676.06,-439.123 638.232,-425.324 609.963,-415.012"/>
<polygon fill="midnightblue" stroke="midnightblue" points="610.992,-411.662 600.398,-411.523 608.593,-418.238 610.992,-411.662"/>
</g>
</g>
</svg>
        <g id="navigator" transform="translate(0 0)" fill="#404254">
                <rect fill="#f2f5e9" fill-opacity="0.5" stroke="#606060" stroke-width=".5" x="0" y="0" width="60" height="60"/>
                <use id="zoomplus" xlink:href="#zoomPlus" x="17" y="9" onmousedown="handleZoom(evt,'in')"/>
                <use id="zoomminus" xlink:href="#zoomMin" x="42" y="9" onmousedown="handleZoom(evt,'out')"/>
                <use id="reset" xlink:href="#resetDef" x="30" y="36" onmousedown="handleReset()"/>
                <g id="arrowUp" xlink:href="#dirArrow" transform="translate(30 24)" onmousedown="handlePan(0,-1)">
                  <use xlink:href="#rim" fill="#404040">
                        <set attributeName="fill" to="#808080" begin="arrowUp.mouseover" end="arrowUp.mouseout"/>
                  </use>
                  <path fill="none" stroke="white" stroke-width="1.5" d="M0,-3.0v7 M-2.5,-0.5L0,-3.0L2.5,-0.5"/>
                </g>
                <g id="arrowRight" xlink:href="#dirArrow" transform="rotate(90) translate(36 -43)" onmousedown="handlePan(1,0)">
                  <use xlink:href="#rim" fill="#404040">
                        <set attributeName="fill" to="#808080" begin="arrowRight.mouseover" end="arrowRight.mouseout"/>
                  </use>
                  <path fill="none" stroke="white" stroke-width="1.5" d="M0,-3.0v7 M-2.5,-0.5L0,-3.0L2.5,-0.5"/>
                </g>
                <g id="arrowDown" xlink:href="#dirArrow" transform="rotate(180) translate(-30 -48)" onmousedown="handlePan(0,1)">
                  <use xlink:href="#rim" fill="#404040">
                        <set attributeName="fill" to="#808080" begin="arrowDown.mouseover" end="arrowDown.mouseout"/>
                  </use>
                  <path fill="none" stroke="white" stroke-width="1.5" d="M0,-3.0v7 M-2.5,-0.5L0,-3.0L2.5,-0.5"/>
                </g>
                <g id="arrowLeft" xlink:href="#dirArrow" transform="rotate(270) translate(-36 17)" onmousedown="handlePan(-1,0)">
                  <use xlink:href="#rim" fill="#404040">
                        <set attributeName="fill" to="#808080" begin="arrowLeft.mouseover" end="arrowLeft.mouseout"/>
                  </use>
                  <path fill="none" stroke="white" stroke-width="1.5" d="M0,-3.0v7 M-2.5,-0.5L0,-3.0L2.5,-0.5"/>
                </g>
        </g>
        <svg viewBox="0 0 15 15" width="100%" height="30px" preserveAspectRatio="xMaxYMin meet">
         <g id="arrow_out" transform="scale(0.3 0.3)">
          <a xlink:href="plot__beams_8cpp__incl_org.svg" target="_base">
           <rect id="button" ry="5" rx="5" y="6" x="6" height="38" width="38"
                fill="#f2f5e9" fill-opacity="0.5" stroke="#606060" stroke-width="1.0"/>
           <path id="arrow"
             d="M 11.500037,31.436501 C 11.940474,20.09759 22.043105,11.32322 32.158766,21.979434 L 37.068811,17.246167 C 37.068811,17.246167 37.088388,32 37.088388,32 L 22.160133,31.978069 C 22.160133,31.978069 26.997745,27.140456 26.997745,27.140456 C 18.528582,18.264221 13.291696,25.230495 11.500037,31.436501 z"
             style="fill:#404040;"/>
          </a>
         </g>
        </svg>
</svg>
