<?xml version="1.0" encoding="UTF-8" standalone="no"?>
<!DOCTYPE svg PUBLIC "-//W3C//DTD SVG 1.1//EN"
 "http://www.w3.org/Graphics/SVG/1.1/DTD/svg11.dtd">
<!-- Generated by graphviz version 2.26.3 (20100126.1600)
 -->
<!-- Title: mymath::sum Pages: 1 -->
<svg width="618pt" height="382pt"
 viewBox="0.00 0.00 618.00 382.00" xmlns="http://www.w3.org/2000/svg" xmlns:xlink="http://www.w3.org/1999/xlink">
<g id="graph1" class="graph" transform="scale(1 1) rotate(0) translate(4 378)">
<title>mymath::sum</title>
<polygon fill="white" stroke="white" points="-4,5 -4,-378 615,-378 615,5 -4,5"/>
<!-- Node1 -->
<g id="node1" class="node"><title>Node1</title>
<polygon fill="#bfbfbf" stroke="black" points="0.5,-184.5 0.5,-205.5 77.5,-205.5 77.5,-184.5 0.5,-184.5"/>
<text text-anchor="middle" x="39" y="-192.5" font-family="Helvetica,sans-Serif" font-size="10.00">mymath::sum</text>
</g>
<!-- Node2 -->
<g id="node3" class="node"><title>Node2</title>
<a xlink:href="../../d5/de7/classInducedVoltageFreq.html#a0d32221f87feb031ad8db7524739cbb1" target="_top" xlink:title="InducedVoltageFreq\l::induced_voltage_generation">
<polygon fill="white" stroke="black" points="114.5,-336 114.5,-370 257.5,-370 257.5,-336 114.5,-336"/>
<text text-anchor="start" x="122.5" y="-357" font-family="Helvetica,sans-Serif" font-size="10.00">InducedVoltageFreq</text>
<text text-anchor="middle" x="186" y="-344" font-family="Helvetica,sans-Serif" font-size="10.00">::induced_voltage_generation</text>
</a>
</g>
<!-- Node1&#45;&gt;Node2 -->
<g id="edge2" class="edge"><title>Node1&#45;&gt;Node2</title>
<path fill="none" stroke="midnightblue" d="M46.8243,-215.216C58.0862,-242.025 81.1818,-289.393 114,-319 121.39,-325.667 130.319,-331.273 139.336,-335.888"/>
<polygon fill="midnightblue" stroke="midnightblue" points="49.9729,-213.667 42.9699,-205.717 43.4864,-216.299 49.9729,-213.667"/>
</g>
<!-- Node4 -->
<g id="node7" class="node"><title>Node4</title>
<a xlink:href="../../dc/d7d/Distributions_8h.html#a5493d96431d1b52db9fc4617281f457d" target="_top" xlink:title="matched_from_distribution\l_density">
<polygon fill="white" stroke="black" points="298.5,-288 298.5,-322 429.5,-322 429.5,-288 298.5,-288"/>
<text text-anchor="start" x="306.5" y="-309" font-family="Helvetica,sans-Serif" font-size="10.00">matched_from_distribution</text>
<text text-anchor="middle" x="364" y="-296" font-family="Helvetica,sans-Serif" font-size="10.00">_density</text>
</a>
</g>
<!-- Node1&#45;&gt;Node4 -->
<g id="edge6" class="edge"><title>Node1&#45;&gt;Node4</title>
<path fill="none" stroke="midnightblue" d="M48.8084,-214.496C60.8832,-236.176 83.5862,-270.218 114,-286 171.084,-315.622 245.551,-317.381 298.322,-313.571"/>
<polygon fill="midnightblue" stroke="midnightblue" points="51.8127,-212.691 44.0188,-205.514 45.6361,-215.985 51.8127,-212.691"/>
</g>
<!-- Node5 -->
<g id="node9" class="node"><title>Node5</title>
<a xlink:href="../../dc/d7d/Distributions_8h.html#a00d3d5dce2d6cb66bd5b4bcc53abb901" target="_top" xlink:title="matched_from_line_density">
<polygon fill="white" stroke="black" points="296,-248.5 296,-269.5 432,-269.5 432,-248.5 296,-248.5"/>
<text text-anchor="middle" x="364" y="-256.5" font-family="Helvetica,sans-Serif" font-size="10.00">matched_from_line_density</text>
</a>
</g>
<!-- Node1&#45;&gt;Node5 -->
<g id="edge8" class="edge"><title>Node1&#45;&gt;Node5</title>
<path fill="none" stroke="midnightblue" d="M87.8545,-202.904C132.335,-210.288 199.758,-221.955 258,-234 279.108,-238.365 302.437,-243.8 321.823,-248.487"/>
<polygon fill="midnightblue" stroke="midnightblue" points="88.3298,-199.435 77.893,-201.258 87.1886,-206.341 88.3298,-199.435"/>
</g>
<!-- Node6 -->
<g id="node11" class="node"><title>Node6</title>
<a xlink:href="../../df/d6d/namespacemymath.html#ac815b54cedc0318b700fb483ee23ec2e" target="_top" xlink:title="mymath::mean">
<polygon fill="white" stroke="black" points="145,-165.5 145,-186.5 227,-186.5 227,-165.5 145,-165.5"/>
<text text-anchor="middle" x="186" y="-173.5" font-family="Helvetica,sans-Serif" font-size="10.00">mymath::mean</text>
</a>
</g>
<!-- Node1&#45;&gt;Node6 -->
<g id="edge10" class="edge"><title>Node1&#45;&gt;Node6</title>
<path fill="none" stroke="midnightblue" d="M87.6278,-188.715C106.143,-186.322 127.045,-183.62 144.805,-181.325"/>
<polygon fill="midnightblue" stroke="midnightblue" points="87.0913,-185.255 77.6225,-190.008 87.9887,-192.197 87.0913,-185.255"/>
</g>
<!-- Node16 -->
<g id="node33" class="node"><title>Node16</title>
<a xlink:href="../../d6/d13/classFullRingAndRf.html#a76ca8401684654596782338b81268ef2" target="_top" xlink:title="FullRingAndRf::potential\l_well_generation">
<polygon fill="white" stroke="black" points="124.5,-243 124.5,-277 247.5,-277 247.5,-243 124.5,-243"/>
<text text-anchor="start" x="132.5" y="-264" font-family="Helvetica,sans-Serif" font-size="10.00">FullRingAndRf::potential</text>
<text text-anchor="middle" x="186" y="-251" font-family="Helvetica,sans-Serif" font-size="10.00">_well_generation</text>
</a>
</g>
<!-- Node1&#45;&gt;Node16 -->
<g id="edge34" class="edge"><title>Node1&#45;&gt;Node16</title>
<path fill="none" stroke="midnightblue" d="M71.1204,-209.723C84.3719,-215.755 99.8999,-222.769 114,-229 124.332,-233.566 135.533,-238.429 145.953,-242.918"/>
<polygon fill="midnightblue" stroke="midnightblue" points="72.4773,-206.495 61.9265,-205.53 69.5724,-212.864 72.4773,-206.495"/>
</g>
<!-- Node17 -->
<g id="node37" class="node"><title>Node17</title>
<a xlink:href="../../d6/d87/classPhaseLoop.html#a533be96ab317002d494f831e746c465a" target="_top" xlink:title="PhaseLoop::radial_difference">
<polygon fill="white" stroke="black" points="114.5,-125.5 114.5,-146.5 257.5,-146.5 257.5,-125.5 114.5,-125.5"/>
<text text-anchor="middle" x="186" y="-133.5" font-family="Helvetica,sans-Serif" font-size="10.00">PhaseLoop::radial_difference</text>
</a>
</g>
<!-- Node1&#45;&gt;Node17 -->
<g id="edge40" class="edge"><title>Node1&#45;&gt;Node17</title>
<path fill="none" stroke="midnightblue" d="M65.7671,-179.344C79.8004,-171.586 97.469,-162.511 114,-156 123.053,-152.434 132.981,-149.241 142.495,-146.508"/>
<polygon fill="midnightblue" stroke="midnightblue" points="63.6862,-176.499 56.6912,-184.456 67.1218,-182.598 63.6862,-176.499"/>
</g>
<!-- Node19 -->
<g id="node41" class="node"><title>Node19</title>
<a xlink:href="../../de/da1/classRingAndRfSection.html#a6c82be356a8115487da14df8bdf0e9e0" target="_top" xlink:title="RingAndRfSection::rf\l_voltage_calculation">
<polygon fill="white" stroke="black" points="131,-73 131,-107 241,-107 241,-73 131,-73"/>
<text text-anchor="start" x="139" y="-94" font-family="Helvetica,sans-Serif" font-size="10.00">RingAndRfSection::rf</text>
<text text-anchor="middle" x="186" y="-81" font-family="Helvetica,sans-Serif" font-size="10.00">_voltage_calculation</text>
</a>
</g>
<!-- Node1&#45;&gt;Node19 -->
<g id="edge44" class="edge"><title>Node1&#45;&gt;Node19</title>
<path fill="none" stroke="midnightblue" d="M52.9058,-175.877C66.6593,-158.174 89.1968,-132.213 114,-116 119.228,-112.582 124.964,-109.543 130.844,-106.859"/>
<polygon fill="midnightblue" stroke="midnightblue" points="49.7873,-174.198 46.5488,-184.286 55.3713,-178.42 49.7873,-174.198"/>
</g>
<!-- Node20 -->
<g id="node43" class="node"><title>Node20</title>
<a xlink:href="../../df/d6d/namespacemymath.html#a47420afeb05f18763067540f74b8f0b3" target="_top" xlink:title="mymath::sum">
<polygon fill="white" stroke="black" points="147.5,-33.5 147.5,-54.5 224.5,-54.5 224.5,-33.5 147.5,-33.5"/>
<text text-anchor="middle" x="186" y="-41.5" font-family="Helvetica,sans-Serif" font-size="10.00">mymath::sum</text>
</a>
</g>
<!-- Node1&#45;&gt;Node20 -->
<g id="edge46" class="edge"><title>Node1&#45;&gt;Node20</title>
<path fill="none" stroke="midnightblue" d="M45.2036,-174.447C55.0257,-145.437 76.9428,-92.813 114,-64 123.525,-56.5942 135.631,-51.9297 147.187,-48.9922"/>
<polygon fill="midnightblue" stroke="midnightblue" points="41.7611,-173.719 42.025,-184.31 48.4237,-175.866 41.7611,-173.719"/>
</g>
<!-- Node3 -->
<g id="node5" class="node"><title>Node3</title>
<a xlink:href="../../d5/de7/classInducedVoltageFreq.html#a93a0cc8269cbf89d0714e6f1513fa68a" target="_top" xlink:title="InducedVoltageFreq\l::track">
<polygon fill="white" stroke="black" points="312,-340 312,-374 416,-374 416,-340 312,-340"/>
<text text-anchor="start" x="320" y="-361" font-family="Helvetica,sans-Serif" font-size="10.00">InducedVoltageFreq</text>
<text text-anchor="middle" x="364" y="-348" font-family="Helvetica,sans-Serif" font-size="10.00">::track</text>
</a>
</g>
<!-- Node2&#45;&gt;Node3 -->
<g id="edge4" class="edge"><title>Node2&#45;&gt;Node3</title>
<path fill="none" stroke="midnightblue" d="M267.931,-354.841C282.902,-355.178 298.142,-355.52 311.941,-355.83"/>
<polygon fill="midnightblue" stroke="midnightblue" points="267.706,-351.335 257.63,-354.61 267.549,-358.334 267.706,-351.335"/>
</g>
<!-- Node7 -->
<g id="node13" class="node"><title>Node7</title>
<a xlink:href="../../d8/d2b/classLHCNoiseFB.html#a1f4261d97326d23f1f980cd2adc3d2be" target="_top" xlink:title="LHCNoiseFB::fwhm_multi\l_bunch">
<polygon fill="white" stroke="black" points="298.5,-40 298.5,-74 429.5,-74 429.5,-40 298.5,-40"/>
<text text-anchor="start" x="306.5" y="-61" font-family="Helvetica,sans-Serif" font-size="10.00">LHCNoiseFB::fwhm_multi</text>
<text text-anchor="middle" x="364" y="-48" font-family="Helvetica,sans-Serif" font-size="10.00">_bunch</text>
</a>
</g>
<!-- Node6&#45;&gt;Node7 -->
<g id="edge12" class="edge"><title>Node6&#45;&gt;Node7</title>
<path fill="none" stroke="midnightblue" d="M236.887,-167.523C244.477,-164.713 251.816,-160.974 258,-156 284.645,-134.566 268.988,-111.319 294,-88 299.833,-82.5618 306.777,-77.9699 313.991,-74.1263"/>
<polygon fill="midnightblue" stroke="midnightblue" points="235.672,-164.237 227.207,-170.609 237.798,-170.906 235.672,-164.237"/>
</g>
<!-- Node9 -->
<g id="node17" class="node"><title>Node9</title>
<a xlink:href="../../dc/d45/classSlices.html#a31398a7ae3bf058bf358e38e61eb50c9" target="_top" xlink:title="Slices::gaussian_fit">
<polygon fill="white" stroke="black" points="489,-85.5 489,-106.5 591,-106.5 591,-85.5 489,-85.5"/>
<text text-anchor="middle" x="540" y="-93.5" font-family="Helvetica,sans-Serif" font-size="10.00">Slices::gaussian_fit</text>
</a>
</g>
<!-- Node6&#45;&gt;Node9 -->
<g id="edge16" class="edge"><title>Node6&#45;&gt;Node9</title>
<path fill="none" stroke="midnightblue" d="M236.971,-165.305C244.272,-162.795 251.502,-159.73 258,-156 277.353,-144.89 273.775,-130.43 294,-121 356.446,-91.8839 437.286,-89.4499 488.91,-91.6858"/>
<polygon fill="midnightblue" stroke="midnightblue" points="235.543,-162.084 227.032,-168.394 237.621,-168.768 235.543,-162.084"/>
</g>
<!-- Node10 -->
<g id="node19" class="node"><title>Node10</title>
<a xlink:href="../../df/d6d/namespacemymath.html#a80566d33dfa4aa35efbc0bcc021623d2" target="_top" xlink:title="mymath::mean">
<polygon fill="white" stroke="black" points="323,-130.5 323,-151.5 405,-151.5 405,-130.5 323,-130.5"/>
<text text-anchor="middle" x="364" y="-138.5" font-family="Helvetica,sans-Serif" font-size="10.00">mymath::mean</text>
</a>
</g>
<!-- Node6&#45;&gt;Node10 -->
<g id="edge18" class="edge"><title>Node6&#45;&gt;Node10</title>
<path fill="none" stroke="midnightblue" d="M237.393,-165.895C264.572,-160.551 297.485,-154.079 322.94,-149.074"/>
<polygon fill="midnightblue" stroke="midnightblue" points="236.421,-162.519 227.284,-167.882 237.772,-169.387 236.421,-162.519"/>
</g>
<!-- Node11 -->
<g id="node21" class="node"><title>Node11</title>
<a xlink:href="../../dc/d45/classSlices.html#a842041861f0211874450e5d659aec229" target="_top" xlink:title="Slices::set_cuts">
<polygon fill="white" stroke="black" points="496.5,-257.5 496.5,-278.5 583.5,-278.5 583.5,-257.5 496.5,-257.5"/>
<text text-anchor="middle" x="540" y="-265.5" font-family="Helvetica,sans-Serif" font-size="10.00">Slices::set_cuts</text>
</a>
</g>
<!-- Node6&#45;&gt;Node11 -->
<g id="edge20" class="edge"><title>Node6&#45;&gt;Node11</title>
<path fill="none" stroke="midnightblue" d="M237.265,-188.732C287.464,-201.269 366.087,-221.086 434,-239 456.691,-244.986 482.048,-251.914 502.27,-257.498"/>
<polygon fill="midnightblue" stroke="midnightblue" points="237.858,-185.273 227.308,-186.248 236.163,-192.065 237.858,-185.273"/>
</g>
<!-- Node12 -->
<g id="node23" class="node"><title>Node12</title>
<a xlink:href="../../df/d6d/namespacemymath.html#aa50ebf887bdf0acc40e9d54519351de6" target="_top" xlink:title="mymath::standard_deviation">
<polygon fill="white" stroke="black" points="294,-170.5 294,-191.5 434,-191.5 434,-170.5 294,-170.5"/>
<text text-anchor="middle" x="364" y="-178.5" font-family="Helvetica,sans-Serif" font-size="10.00">mymath::standard_deviation</text>
</a>
</g>
<!-- Node6&#45;&gt;Node12 -->
<g id="edge22" class="edge"><title>Node6&#45;&gt;Node12</title>
<path fill="none" stroke="midnightblue" d="M237.321,-177.442C254.884,-177.935 274.848,-178.496 293.65,-179.024"/>
<polygon fill="midnightblue" stroke="midnightblue" points="237.379,-173.942 227.284,-177.16 237.182,-180.939 237.379,-173.942"/>
</g>
<!-- Node8 -->
<g id="node15" class="node"><title>Node8</title>
<a xlink:href="../../d8/d2b/classLHCNoiseFB.html#a200019c2d3e3ea77870f95dca0142d35" target="_top" xlink:title="LHCNoiseFB::LHCNoiseFB">
<polygon fill="white" stroke="black" points="470,-45.5 470,-66.5 610,-66.5 610,-45.5 470,-45.5"/>
<text text-anchor="middle" x="540" y="-53.5" font-family="Helvetica,sans-Serif" font-size="10.00">LHCNoiseFB::LHCNoiseFB</text>
</a>
</g>
<!-- Node7&#45;&gt;Node8 -->
<g id="edge14" class="edge"><title>Node7&#45;&gt;Node8</title>
<path fill="none" stroke="midnightblue" d="M439.546,-56.5708C449.652,-56.5133 459.981,-56.4547 469.986,-56.3978"/>
<polygon fill="midnightblue" stroke="midnightblue" points="439.516,-53.0708 429.536,-56.6276 439.556,-60.0707 439.516,-53.0708"/>
</g>
<!-- Node12&#45;&gt;Node9 -->
<g id="edge24" class="edge"><title>Node12&#45;&gt;Node9</title>
<path fill="none" stroke="midnightblue" d="M424.234,-166.539C427.641,-164.885 430.926,-163.046 434,-161 455.323,-146.81 448.677,-130.19 470,-116 475.787,-112.149 482.319,-109.029 489.008,-106.505"/>
<polygon fill="midnightblue" stroke="midnightblue" points="422.808,-163.342 414.992,-170.495 425.563,-169.777 422.808,-163.342"/>
</g>
<!-- Node12&#45;&gt;Node11 -->
<g id="edge30" class="edge"><title>Node12&#45;&gt;Node11</title>
<path fill="none" stroke="midnightblue" d="M414.126,-195.266C421.093,-198.271 427.933,-201.826 434,-206 454.255,-219.935 449.305,-234.728 470,-248 477.979,-253.117 487.292,-256.953 496.471,-259.818"/>
<polygon fill="midnightblue" stroke="midnightblue" points="415.193,-191.925 404.607,-191.503 412.62,-198.435 415.193,-191.925"/>
</g>
<!-- Node13 -->
<g id="node26" class="node"><title>Node13</title>
<a xlink:href="../../d5/d73/classLHCFlatSpectrum.html#a2c1a3a410f3213af74e4839aaa560e80" target="_top" xlink:title="LHCFlatSpectrum::generate">
<polygon fill="white" stroke="black" points="470.5,-217.5 470.5,-238.5 609.5,-238.5 609.5,-217.5 470.5,-217.5"/>
<text text-anchor="middle" x="540" y="-225.5" font-family="Helvetica,sans-Serif" font-size="10.00">LHCFlatSpectrum::generate</text>
</a>
</g>
<!-- Node12&#45;&gt;Node13 -->
<g id="edge26" class="edge"><title>Node12&#45;&gt;Node13</title>
<path fill="none" stroke="midnightblue" d="M413.348,-194.178C440.935,-201.545 474.846,-210.601 500.634,-217.487"/>
<polygon fill="midnightblue" stroke="midnightblue" points="414.062,-190.746 403.498,-191.548 412.256,-197.509 414.062,-190.746"/>
</g>
<!-- Node14 -->
<g id="node28" class="node"><title>Node14</title>
<a xlink:href="../../db/d7b/classPSBPhaseNoiseInjection.html#a0afaaacc5c71047473edfcf7613f6f6f" target="_top" xlink:title="PSBPhaseNoiseInjection\l::generate">
<polygon fill="white" stroke="black" points="476.5,-165 476.5,-199 603.5,-199 603.5,-165 476.5,-165"/>
<text text-anchor="start" x="484.5" y="-186" font-family="Helvetica,sans-Serif" font-size="10.00">PSBPhaseNoiseInjection</text>
<text text-anchor="middle" x="540" y="-173" font-family="Helvetica,sans-Serif" font-size="10.00">::generate</text>
</a>
</g>
<!-- Node12&#45;&gt;Node14 -->
<g id="edge28" class="edge"><title>Node12&#45;&gt;Node14</title>
<path fill="none" stroke="midnightblue" d="M444.324,-181.456C455.096,-181.518 466.022,-181.58 476.45,-181.639"/>
<polygon fill="midnightblue" stroke="midnightblue" points="444.085,-177.955 434.066,-181.398 444.045,-184.955 444.085,-177.955"/>
</g>
<!-- Node15 -->
<g id="node31" class="node"><title>Node15</title>
<a xlink:href="../../df/d6d/namespacemymath.html#a8a058539a0449c296f5ef407c314dde6" target="_top" xlink:title="mymath::standard_deviation">
<polygon fill="white" stroke="black" points="470,-125.5 470,-146.5 610,-146.5 610,-125.5 470,-125.5"/>
<text text-anchor="middle" x="540" y="-133.5" font-family="Helvetica,sans-Serif" font-size="10.00">mymath::standard_deviation</text>
</a>
</g>
<!-- Node12&#45;&gt;Node15 -->
<g id="edge32" class="edge"><title>Node12&#45;&gt;Node15</title>
<path fill="none" stroke="midnightblue" d="M415.148,-167.922C441.705,-161.132 473.725,-152.945 498.69,-146.562"/>
<polygon fill="midnightblue" stroke="midnightblue" points="414.085,-164.581 405.264,-170.449 415.82,-171.363 414.085,-164.581"/>
</g>
<!-- Node16&#45;&gt;Node4 -->
<g id="edge36" class="edge"><title>Node16&#45;&gt;Node4</title>
<path fill="none" stroke="midnightblue" d="M257.483,-278.072C271.004,-281.49 285.086,-285.05 298.414,-288.419"/>
<polygon fill="midnightblue" stroke="midnightblue" points="258.309,-274.67 247.756,-275.613 256.593,-281.457 258.309,-274.67"/>
</g>
<!-- Node16&#45;&gt;Node5 -->
<g id="edge38" class="edge"><title>Node16&#45;&gt;Node5</title>
<path fill="none" stroke="midnightblue" d="M258.124,-259.595C270.622,-259.525 283.582,-259.452 295.967,-259.382"/>
<polygon fill="midnightblue" stroke="midnightblue" points="257.736,-256.097 247.756,-259.653 257.776,-263.097 257.736,-256.097"/>
</g>
<!-- Node18 -->
<g id="node39" class="node"><title>Node18</title>
<a xlink:href="../../dc/d32/classSPS__RL.html#a864641f5311c3b9aaedc4d3fd03c5749" target="_top" xlink:title="SPS_RL::track">
<polygon fill="white" stroke="black" points="322.5,-0.5 322.5,-21.5 405.5,-21.5 405.5,-0.5 322.5,-0.5"/>
<text text-anchor="middle" x="364" y="-8.5" font-family="Helvetica,sans-Serif" font-size="10.00">SPS_RL::track</text>
</a>
</g>
<!-- Node17&#45;&gt;Node18 -->
<g id="edge42" class="edge"><title>Node17&#45;&gt;Node18</title>
<path fill="none" stroke="midnightblue" d="M252.341,-120.339C254.323,-119.008 256.218,-117.565 258,-116 288.829,-88.9306 263.271,-58.1825 294,-31 301.952,-23.9657 312.222,-19.3943 322.433,-16.4269"/>
<polygon fill="midnightblue" stroke="midnightblue" points="250.175,-117.541 243.167,-125.487 253.601,-123.646 250.175,-117.541"/>
</g>
</g>
</svg>
