<?xml version="1.0" encoding="UTF-8" standalone="no"?>
<!DOCTYPE svg PUBLIC "-//W3C//DTD SVG 1.1//EN"
 "http://www.w3.org/Graphics/SVG/1.1/DTD/svg11.dtd">
<!-- Generated by graphviz version 2.26.3 (20100126.1600)
 -->
<!-- Title: mymath::min Pages: 1 -->
<!--zoomable 422 -->
<svg id="main" version="1.1" xmlns="http://www.w3.org/2000/svg" xmlns:xlink="http://www.w3.org/1999/xlink" xml:space="preserve" onload="init(evt)">
        <defs>
                <circle id="rim" cx="0" cy="0" r="7"/>
                <circle id="rim2" cx="0" cy="0" r="3.5"/>
                <g id="zoomPlus">
                        <use xlink:href="#rim" fill="#404040">
                                <set attributeName="fill" to="#808080" begin="zoomplus.mouseover" end="zoomplus.mouseout"/>
                        </use>
                        <path d="M-4,0h8M0,-4v8" fill="none" stroke="white" stroke-width="1.5" pointer-events="none"/>
                </g>
                <g id="zoomMin">
                        <use xlink:href="#rim" fill="#404040">
                                <set attributeName="fill" to="#808080" begin="zoomminus.mouseover" end="zoomminus.mouseout"/>
                        </use>
                        <path d="M-4,0h8" fill="none" stroke="white" stroke-width="1.5" pointer-events="none"/>
                </g>
                <g id="dirArrow">
                        <path fill="none" stroke="white" stroke-width="1.5" d="M0,-3.0v7 M-2.5,-0.5L0,-3.0L2.5,-0.5"/>
                </g>
               <g id="resetDef">
                       <use xlink:href="#rim2" fill="#404040">
                               <set attributeName="fill" to="#808080" begin="reset.mouseover" end="reset.mouseout"/>
                       </use>
               </g>
        </defs>

<script type="text/javascript">
var viewWidth = 724;
var viewHeight = 422;
var sectionId = 'dynsection-21';
</script>
<script xlink:href="../../svgpan.js"/>
<svg id="graph" class="graph">
<g id="viewport">
<title>mymath::min</title>
<polygon fill="white" stroke="white" points="-4,5 -4,-417.528 721,-417.528 721,5 -4,5"/>
<!-- Node1 -->
<g id="node1" class="node"><title>Node1</title>
<polygon fill="#bfbfbf" stroke="black" points="0,-301.028 0,-322.028 74,-322.028 74,-301.028 0,-301.028"/>
<text text-anchor="middle" x="37" y="-309.028" font-family="Helvetica,sans-Serif" font-size="10.00">mymath::min</text>
</g>
<!-- Node2 -->
<g id="node3" class="node"><title>Node2</title>
<a xlink:href="../../da/d49/classRfParameters.html#a89b4a71d7f56a66f1a35586adc06b760" target="_top" xlink:title="RfParameters::calc\l_phi_s">
<polygon fill="white" stroke="black" points="111.5,-379.528 111.5,-413.528 212.5,-413.528 212.5,-379.528 111.5,-379.528"/>
<text text-anchor="start" x="119.5" y="-400.528" font-family="Helvetica,sans-Serif" font-size="10.00">RfParameters::calc</text>
<text text-anchor="middle" x="162" y="-387.528" font-family="Helvetica,sans-Serif" font-size="10.00">_phi_s</text>
</a>
</g>
<!-- Node1&#45;&gt;Node2 -->
<g id="edge2" class="edge"><title>Node1&#45;&gt;Node2</title>
<path fill="none" stroke="midnightblue" d="M56.4312,-329.173C70.6552,-341.594 90.7541,-358.146 110,-370.528 114.838,-373.641 120.1,-376.657 125.357,-379.464"/>
<polygon fill="midnightblue" stroke="midnightblue" points="58.5921,-326.411 48.7861,-322.4 53.9502,-331.651 58.5921,-326.411"/>
</g>
<!-- Node3 -->
<g id="node5" class="node"><title>Node3</title>
<a xlink:href="../../dc/d45/classSlices.html#a663512ec224f285fa8e5b3e3bee65761" target="_top" xlink:title="Slices::histogram">
<polygon fill="white" stroke="black" points="116,-340.028 116,-361.028 208,-361.028 208,-340.028 116,-340.028"/>
<text text-anchor="middle" x="162" y="-348.028" font-family="Helvetica,sans-Serif" font-size="10.00">Slices::histogram</text>
</a>
</g>
<!-- Node1&#45;&gt;Node3 -->
<g id="edge4" class="edge"><title>Node1&#45;&gt;Node3</title>
<path fill="none" stroke="midnightblue" d="M80.7522,-325.179C96.2994,-330.03 113.552,-335.413 128.146,-339.966"/>
<polygon fill="midnightblue" stroke="midnightblue" points="81.4154,-321.72 70.8268,-322.082 79.3305,-328.402 81.4154,-321.72"/>
</g>
<!-- Node4 -->
<g id="node7" class="node"><title>Node4</title>
<a xlink:href="../../df/d6d/namespacemymath.html#a9be6643559654e4fd81774f43bd8cdc0" target="_top" xlink:title="mymath::interp">
<polygon fill="white" stroke="black" points="121,-172.028 121,-193.028 203,-193.028 203,-172.028 121,-172.028"/>
<text text-anchor="middle" x="162" y="-180.028" font-family="Helvetica,sans-Serif" font-size="10.00">mymath::interp</text>
</a>
</g>
<!-- Node1&#45;&gt;Node4 -->
<g id="edge6" class="edge"><title>Node1&#45;&gt;Node4</title>
<path fill="none" stroke="midnightblue" d="M54.3199,-293.654C80.7075,-266.422 130.172,-215.375 151.629,-193.231"/>
<polygon fill="midnightblue" stroke="midnightblue" points="51.6746,-291.355 47.2293,-300.972 56.7017,-296.226 51.6746,-291.355"/>
</g>
<!-- Node12 -->
<g id="node24" class="node"><title>Node12</title>
<a xlink:href="../../de/d44/trackers_2utilities_8h.html#ab18ed3529eff62c38aca18633f6a7cd1" target="_top" xlink:title="potential_well_cut">
<polygon fill="white" stroke="black" points="426.5,-115.028 426.5,-136.028 521.5,-136.028 521.5,-115.028 426.5,-115.028"/>
<text text-anchor="middle" x="474" y="-123.028" font-family="Helvetica,sans-Serif" font-size="10.00">potential_well_cut</text>
</a>
</g>
<!-- Node1&#45;&gt;Node12 -->
<g id="edge32" class="edge"><title>Node1&#45;&gt;Node12</title>
<path fill="none" stroke="midnightblue" d="M84.5866,-313.693C152.375,-314.6 278.438,-308.049 368,-254.528 390.285,-241.211 387.629,-228.677 404,-208.528 425.397,-182.195 451.311,-151.859 464.812,-136.168"/>
<polygon fill="midnightblue" stroke="midnightblue" points="84.2887,-310.187 74.2219,-313.49 84.1512,-317.185 84.2887,-310.187"/>
</g>
<!-- Node14 -->
<g id="node31" class="node"><title>Node14</title>
<a xlink:href="../../d8/d2b/classLHCNoiseFB.html#af1f65e30469f9049bc3116d9033635dd" target="_top" xlink:title="LHCNoiseFB::track">
<polygon fill="white" stroke="black" points="110.5,-132.028 110.5,-153.028 213.5,-153.028 213.5,-132.028 110.5,-132.028"/>
<text text-anchor="middle" x="162" y="-140.028" font-family="Helvetica,sans-Serif" font-size="10.00">LHCNoiseFB::track</text>
</a>
</g>
<!-- Node1&#45;&gt;Node14 -->
<g id="edge34" class="edge"><title>Node1&#45;&gt;Node14</title>
<path fill="none" stroke="midnightblue" d="M41.8835,-290.97C50.4349,-259.218 71.0342,-198.194 110,-162.528 114.138,-158.741 119.071,-155.642 124.225,-153.116"/>
<polygon fill="midnightblue" stroke="midnightblue" points="38.4332,-290.336 39.3509,-300.891 45.2157,-292.068 38.4332,-290.336"/>
</g>
<!-- Node5 -->
<g id="node9" class="node"><title>Node5</title>
<a xlink:href="../../dc/d45/classSlices.html#ada42a57f8bea7bb582076bfb6f9f1812" target="_top" xlink:title="Slices::beam_profile\l_derivative">
<polygon fill="white" stroke="black" points="256.5,-211.528 256.5,-245.528 361.5,-245.528 361.5,-211.528 256.5,-211.528"/>
<text text-anchor="start" x="264.5" y="-232.528" font-family="Helvetica,sans-Serif" font-size="10.00">Slices::beam_profile</text>
<text text-anchor="middle" x="309" y="-219.528" font-family="Helvetica,sans-Serif" font-size="10.00">_derivative</text>
</a>
</g>
<!-- Node4&#45;&gt;Node5 -->
<g id="edge8" class="edge"><title>Node4&#45;&gt;Node5</title>
<path fill="none" stroke="midnightblue" d="M205.358,-196.096C221.364,-201.105 239.678,-206.836 256.413,-212.072"/>
<polygon fill="midnightblue" stroke="midnightblue" points="206.314,-192.728 195.725,-193.082 204.223,-199.408 206.314,-192.728"/>
</g>
<!-- Node7 -->
<g id="node13" class="node"><title>Node7</title>
<a xlink:href="../../db/da5/classInputTable.html#a8fd3b73432c461936a7f8f5e0aebbdcd" target="_top" xlink:title="InputTable::imped_calc">
<polygon fill="white" stroke="black" points="250,-132.028 250,-153.028 368,-153.028 368,-132.028 250,-132.028"/>
<text text-anchor="middle" x="309" y="-140.028" font-family="Helvetica,sans-Serif" font-size="10.00">InputTable::imped_calc</text>
</a>
</g>
<!-- Node4&#45;&gt;Node7 -->
<g id="edge12" class="edge"><title>Node4&#45;&gt;Node7</title>
<path fill="none" stroke="midnightblue" d="M210.516,-169.327C229.961,-164.036 252.054,-158.024 270.38,-153.037"/>
<polygon fill="midnightblue" stroke="midnightblue" points="209.353,-166.016 200.623,-172.019 211.191,-172.77 209.353,-166.016"/>
</g>
<!-- Node8 -->
<g id="node15" class="node"><title>Node8</title>
<a xlink:href="../../df/d6d/namespacemymath.html#a1ad0bc05a9722e2dad00ea41ff54c65f" target="_top" xlink:title="mymath::interp">
<polygon fill="white" stroke="black" points="268,-92.0283 268,-113.028 350,-113.028 350,-92.0283 268,-92.0283"/>
<text text-anchor="middle" x="309" y="-100.028" font-family="Helvetica,sans-Serif" font-size="10.00">mymath::interp</text>
</a>
</g>
<!-- Node4&#45;&gt;Node8 -->
<g id="edge14" class="edge"><title>Node4&#45;&gt;Node8</title>
<path fill="none" stroke="midnightblue" d="M205.512,-167.628C208.469,-166.063 211.33,-164.365 214,-162.528 233.705,-148.973 230.025,-135.684 250,-122.528 255.691,-118.78 262.153,-115.666 268.664,-113.1"/>
<polygon fill="midnightblue" stroke="midnightblue" points="203.984,-164.479 196.448,-171.927 206.984,-170.804 203.984,-164.479"/>
</g>
<!-- Node9 -->
<g id="node17" class="node"><title>Node9</title>
<a xlink:href="../../dc/d7d/Distributions_8h.html#a5493d96431d1b52db9fc4617281f457d" target="_top" xlink:title="matched_from_distribution\l_density">
<polygon fill="white" stroke="black" points="582.5,-131.528 582.5,-165.528 713.5,-165.528 713.5,-131.528 582.5,-131.528"/>
<text text-anchor="start" x="590.5" y="-152.528" font-family="Helvetica,sans-Serif" font-size="10.00">matched_from_distribution</text>
<text text-anchor="middle" x="648" y="-139.528" font-family="Helvetica,sans-Serif" font-size="10.00">_density</text>
</a>
</g>
<!-- Node4&#45;&gt;Node9 -->
<g id="edge16" class="edge"><title>Node4&#45;&gt;Node9</title>
<path fill="none" stroke="midnightblue" d="M177.601,-201.166C193.658,-218.763 220.443,-243.978 250,-254.528 281.853,-265.899 527.009,-255.711 544,-248.528 585.067,-231.168 619.305,-189.604 636.356,-165.887"/>
<polygon fill="midnightblue" stroke="midnightblue" points="179.853,-198.427 170.616,-193.238 174.6,-203.055 179.853,-198.427"/>
</g>
<!-- Node10 -->
<g id="node19" class="node"><title>Node10</title>
<a xlink:href="../../dc/d7d/Distributions_8h.html#a00d3d5dce2d6cb66bd5b4bcc53abb901" target="_top" xlink:title="matched_from_line_density">
<polygon fill="white" stroke="black" points="580,-52.0283 580,-73.0283 716,-73.0283 716,-52.0283 580,-52.0283"/>
<text text-anchor="middle" x="648" y="-60.0283" font-family="Helvetica,sans-Serif" font-size="10.00">matched_from_line_density</text>
</a>
</g>
<!-- Node4&#45;&gt;Node10 -->
<g id="edge18" class="edge"><title>Node4&#45;&gt;Node10</title>
<path fill="none" stroke="midnightblue" d="M210.069,-166.227C211.462,-165.076 212.779,-163.845 214,-162.528 251.854,-121.693 205.327,-75.7664 250,-42.5283 366.008,43.7851 557.871,-24.1655 624.411,-52.0254"/>
<polygon fill="midnightblue" stroke="midnightblue" points="207.8,-163.532 201.402,-171.977 211.67,-169.365 207.8,-163.532"/>
</g>
<!-- Node11 -->
<g id="node21" class="node"><title>Node11</title>
<a xlink:href="../../de/d44/trackers_2utilities_8h.html#a69254a443ce03ae3f136093fff843cae" target="_top" xlink:title="minmax_location">
<polygon fill="white" stroke="black" points="264,-52.0283 264,-73.0283 354,-73.0283 354,-52.0283 264,-52.0283"/>
<text text-anchor="middle" x="309" y="-60.0283" font-family="Helvetica,sans-Serif" font-size="10.00">minmax_location</text>
</a>
</g>
<!-- Node4&#45;&gt;Node11 -->
<g id="edge20" class="edge"><title>Node4&#45;&gt;Node11</title>
<path fill="none" stroke="midnightblue" d="M208.762,-166.809C210.614,-165.492 212.373,-164.067 214,-162.528 242.327,-135.737 221.139,-108.743 250,-82.5283 254.243,-78.6742 259.258,-75.5587 264.544,-73.0412"/>
<polygon fill="midnightblue" stroke="midnightblue" points="206.959,-163.809 200.153,-171.929 210.537,-169.826 206.959,-163.809"/>
</g>
<!-- Node13 -->
<g id="node28" class="node"><title>Node13</title>
<a xlink:href="../../db/da5/classInputTable.html#ae64468233934df7fe3d6ee8d4dcce12d" target="_top" xlink:title="InputTable::wake_calc">
<polygon fill="white" stroke="black" points="251.5,-172.028 251.5,-193.028 366.5,-193.028 366.5,-172.028 251.5,-172.028"/>
<text text-anchor="middle" x="309" y="-180.028" font-family="Helvetica,sans-Serif" font-size="10.00">InputTable::wake_calc</text>
</a>
</g>
<!-- Node4&#45;&gt;Node13 -->
<g id="edge30" class="edge"><title>Node4&#45;&gt;Node13</title>
<path fill="none" stroke="midnightblue" d="M213.371,-182.528C225.607,-182.528 238.746,-182.528 251.247,-182.528"/>
<polygon fill="midnightblue" stroke="midnightblue" points="213.339,-179.028 203.339,-182.528 213.339,-186.028 213.339,-179.028"/>
</g>
<!-- Node6 -->
<g id="node11" class="node"><title>Node6</title>
<a xlink:href="../../d2/d51/plot__slices_8h.html#ad931c13f8d5ee8947ed320ac51b3a2b3" target="_top" xlink:title="plot_beam_profile_derivative">
<polygon fill="white" stroke="black" points="404,-218.028 404,-239.028 544,-239.028 544,-218.028 404,-218.028"/>
<text text-anchor="middle" x="474" y="-226.028" font-family="Helvetica,sans-Serif" font-size="10.00">plot_beam_profile_derivative</text>
</a>
</g>
<!-- Node5&#45;&gt;Node6 -->
<g id="edge10" class="edge"><title>Node5&#45;&gt;Node6</title>
<path fill="none" stroke="midnightblue" d="M371.906,-228.528C382.325,-228.528 393.187,-228.528 403.773,-228.528"/>
<polygon fill="midnightblue" stroke="midnightblue" points="371.661,-225.028 361.661,-228.528 371.661,-232.028 371.661,-225.028"/>
</g>
<!-- Node11&#45;&gt;Node10 -->
<g id="edge22" class="edge"><title>Node11&#45;&gt;Node10</title>
<path fill="none" stroke="midnightblue" d="M364.241,-62.5283C423.15,-62.5283 516.515,-62.5283 579.925,-62.5283"/>
<polygon fill="midnightblue" stroke="midnightblue" points="364.017,-59.0284 354.017,-62.5283 364.017,-66.0284 364.017,-59.0284"/>
</g>
<!-- Node11&#45;&gt;Node12 -->
<g id="edge24" class="edge"><title>Node11&#45;&gt;Node12</title>
<path fill="none" stroke="midnightblue" d="M350.863,-76.3807C356.639,-78.3905 362.48,-80.4751 368,-82.5283 395.92,-92.9134 427.514,-105.891 448.89,-114.858"/>
<polygon fill="midnightblue" stroke="midnightblue" points="351.867,-73.025 341.272,-73.0878 349.594,-79.6456 351.867,-73.025"/>
</g>
<!-- Node12&#45;&gt;Node9 -->
<g id="edge26" class="edge"><title>Node12&#45;&gt;Node9</title>
<path fill="none" stroke="midnightblue" d="M531.907,-133.183C548.046,-135.316 565.694,-137.649 582.249,-139.837"/>
<polygon fill="midnightblue" stroke="midnightblue" points="531.919,-129.654 521.546,-131.813 531.001,-136.594 531.919,-129.654"/>
</g>
<!-- Node12&#45;&gt;Node10 -->
<g id="edge28" class="edge"><title>Node12&#45;&gt;Node10</title>
<path fill="none" stroke="midnightblue" d="M512.633,-111.54C544.708,-99.9271 589.639,-83.6591 618.781,-73.1075"/>
<polygon fill="midnightblue" stroke="midnightblue" points="511.335,-108.288 503.124,-114.984 513.718,-114.87 511.335,-108.288"/>
</g>
</g>
</svg>
        <g id="navigator" transform="translate(0 0)" fill="#404254">
                <rect fill="#f2f5e9" fill-opacity="0.5" stroke="#606060" stroke-width=".5" x="0" y="0" width="60" height="60"/>
                <use id="zoomplus" xlink:href="#zoomPlus" x="17" y="9" onmousedown="handleZoom(evt,'in')"/>
                <use id="zoomminus" xlink:href="#zoomMin" x="42" y="9" onmousedown="handleZoom(evt,'out')"/>
                <use id="reset" xlink:href="#resetDef" x="30" y="36" onmousedown="handleReset()"/>
                <g id="arrowUp" xlink:href="#dirArrow" transform="translate(30 24)" onmousedown="handlePan(0,-1)">
                  <use xlink:href="#rim" fill="#404040">
                        <set attributeName="fill" to="#808080" begin="arrowUp.mouseover" end="arrowUp.mouseout"/>
                  </use>
                  <path fill="none" stroke="white" stroke-width="1.5" d="M0,-3.0v7 M-2.5,-0.5L0,-3.0L2.5,-0.5"/>
                </g>
                <g id="arrowRight" xlink:href="#dirArrow" transform="rotate(90) translate(36 -43)" onmousedown="handlePan(1,0)">
                  <use xlink:href="#rim" fill="#404040">
                        <set attributeName="fill" to="#808080" begin="arrowRight.mouseover" end="arrowRight.mouseout"/>
                  </use>
                  <path fill="none" stroke="white" stroke-width="1.5" d="M0,-3.0v7 M-2.5,-0.5L0,-3.0L2.5,-0.5"/>
                </g>
                <g id="arrowDown" xlink:href="#dirArrow" transform="rotate(180) translate(-30 -48)" onmousedown="handlePan(0,1)">
                  <use xlink:href="#rim" fill="#404040">
                        <set attributeName="fill" to="#808080" begin="arrowDown.mouseover" end="arrowDown.mouseout"/>
                  </use>
                  <path fill="none" stroke="white" stroke-width="1.5" d="M0,-3.0v7 M-2.5,-0.5L0,-3.0L2.5,-0.5"/>
                </g>
                <g id="arrowLeft" xlink:href="#dirArrow" transform="rotate(270) translate(-36 17)" onmousedown="handlePan(-1,0)">
                  <use xlink:href="#rim" fill="#404040">
                        <set attributeName="fill" to="#808080" begin="arrowLeft.mouseover" end="arrowLeft.mouseout"/>
                  </use>
                  <path fill="none" stroke="white" stroke-width="1.5" d="M0,-3.0v7 M-2.5,-0.5L0,-3.0L2.5,-0.5"/>
                </g>
        </g>
        <svg viewBox="0 0 15 15" width="100%" height="30px" preserveAspectRatio="xMaxYMin meet">
         <g id="arrow_out" transform="scale(0.3 0.3)">
          <a xlink:href="namespacemymath_a5bcc40b5ebadd9d98f351775df65ec9f_icgraph_org.svg" target="_base">
           <rect id="button" ry="5" rx="5" y="6" x="6" height="38" width="38"
                fill="#f2f5e9" fill-opacity="0.5" stroke="#606060" stroke-width="1.0"/>
           <path id="arrow"
             d="M 11.500037,31.436501 C 11.940474,20.09759 22.043105,11.32322 32.158766,21.979434 L 37.068811,17.246167 C 37.068811,17.246167 37.088388,32 37.088388,32 L 22.160133,31.978069 C 22.160133,31.978069 26.997745,27.140456 26.997745,27.140456 C 18.528582,18.264221 13.291696,25.230495 11.500037,31.436501 z"
             style="fill:#404040;"/>
          </a>
         </g>
        </svg>
</svg>
