<?xml version="1.0" encoding="UTF-8" standalone="no"?>
<!DOCTYPE svg PUBLIC "-//W3C//DTD SVG 1.1//EN"
 "http://www.w3.org/Graphics/SVG/1.1/DTD/svg11.dtd">
<!-- Generated by graphviz version 2.26.3 (20100126.1600)
 -->
<!-- Title: mymath::mean Pages: 1 -->
<svg width="664pt" height="212pt"
 viewBox="0.00 0.00 664.00 212.00" xmlns="http://www.w3.org/2000/svg" xmlns:xlink="http://www.w3.org/1999/xlink">
<g id="graph1" class="graph" transform="scale(1 1) rotate(0) translate(4 208)">
<title>mymath::mean</title>
<polygon fill="white" stroke="white" points="-4,5 -4,-208 661,-208 661,5 -4,5"/>
<!-- Node1 -->
<g id="node1" class="node"><title>Node1</title>
<polygon fill="#bfbfbf" stroke="black" points="0,-112.5 0,-133.5 82,-133.5 82,-112.5 0,-112.5"/>
<text text-anchor="middle" x="41" y="-120.5" font-family="Helvetica,sans-Serif" font-size="10.00">mymath::mean</text>
</g>
<!-- Node2 -->
<g id="node3" class="node"><title>Node2</title>
<a xlink:href="../../d8/d2b/classLHCNoiseFB.html#a1f4261d97326d23f1f980cd2adc3d2be" target="_top" xlink:title="LHCNoiseFB::fwhm_multi\l_bunch">
<polygon fill="white" stroke="black" points="122.5,-170 122.5,-204 253.5,-204 253.5,-170 122.5,-170"/>
<text text-anchor="start" x="130.5" y="-191" font-family="Helvetica,sans-Serif" font-size="10.00">LHCNoiseFB::fwhm_multi</text>
<text text-anchor="middle" x="188" y="-178" font-family="Helvetica,sans-Serif" font-size="10.00">_bunch</text>
</a>
</g>
<!-- Node1&#45;&gt;Node2 -->
<g id="edge2" class="edge"><title>Node1&#45;&gt;Node2</title>
<path fill="none" stroke="midnightblue" d="M74.5762,-137.618C96.6423,-147.225 125.601,-159.833 148.733,-169.904"/>
<polygon fill="midnightblue" stroke="midnightblue" points="75.8399,-134.351 65.2741,-133.568 73.0456,-140.769 75.8399,-134.351"/>
</g>
<!-- Node4 -->
<g id="node7" class="node"><title>Node4</title>
<a xlink:href="../../dc/d45/classSlices.html#a31398a7ae3bf058bf358e38e61eb50c9" target="_top" xlink:title="Slices::gaussian_fit">
<polygon fill="white" stroke="black" points="313,-132.5 313,-153.5 415,-153.5 415,-132.5 313,-132.5"/>
<text text-anchor="middle" x="364" y="-140.5" font-family="Helvetica,sans-Serif" font-size="10.00">Slices::gaussian_fit</text>
</a>
</g>
<!-- Node1&#45;&gt;Node4 -->
<g id="edge6" class="edge"><title>Node1&#45;&gt;Node4</title>
<path fill="none" stroke="midnightblue" d="M92.3162,-126.177C152.76,-129.92 252.561,-136.1 312.907,-139.836"/>
<polygon fill="midnightblue" stroke="midnightblue" points="92.4335,-122.678 82.2363,-125.553 92.0008,-129.665 92.4335,-122.678"/>
</g>
<!-- Node7 -->
<g id="node13" class="node"><title>Node7</title>
<a xlink:href="../../dc/d45/classSlices.html#a842041861f0211874450e5d659aec229" target="_top" xlink:title="Slices::set_cuts">
<polygon fill="white" stroke="black" points="320.5,-92.5 320.5,-113.5 407.5,-113.5 407.5,-92.5 320.5,-92.5"/>
<text text-anchor="middle" x="364" y="-100.5" font-family="Helvetica,sans-Serif" font-size="10.00">Slices::set_cuts</text>
</a>
</g>
<!-- Node1&#45;&gt;Node7 -->
<g id="edge12" class="edge"><title>Node1&#45;&gt;Node7</title>
<path fill="none" stroke="midnightblue" d="M92.3508,-119.82C155.386,-115.917 261.187,-109.366 320.434,-105.698"/>
<polygon fill="midnightblue" stroke="midnightblue" points="92.0008,-116.335 82.2363,-120.447 92.4335,-123.322 92.0008,-116.335"/>
</g>
<!-- Node8 -->
<g id="node16" class="node"><title>Node8</title>
<a xlink:href="../../df/d6d/namespacemymath.html#aa50ebf887bdf0acc40e9d54519351de6" target="_top" xlink:title="mymath::standard_deviation">
<polygon fill="white" stroke="black" points="118,-54.5 118,-75.5 258,-75.5 258,-54.5 118,-54.5"/>
<text text-anchor="middle" x="188" y="-62.5" font-family="Helvetica,sans-Serif" font-size="10.00">mymath::standard_deviation</text>
</a>
</g>
<!-- Node1&#45;&gt;Node8 -->
<g id="edge16" class="edge"><title>Node1&#45;&gt;Node8</title>
<path fill="none" stroke="midnightblue" d="M74.1583,-108.257C87.678,-102.386 103.51,-95.6861 118,-90 130.733,-85.0031 144.923,-79.858 157.181,-75.5443"/>
<polygon fill="midnightblue" stroke="midnightblue" points="72.535,-105.147 64.7747,-112.36 75.3394,-111.561 72.535,-105.147"/>
</g>
<!-- Node3 -->
<g id="node5" class="node"><title>Node3</title>
<a xlink:href="../../d8/d2b/classLHCNoiseFB.html#a200019c2d3e3ea77870f95dca0142d35" target="_top" xlink:title="LHCNoiseFB::LHCNoiseFB">
<polygon fill="white" stroke="black" points="294,-176.5 294,-197.5 434,-197.5 434,-176.5 294,-176.5"/>
<text text-anchor="middle" x="364" y="-184.5" font-family="Helvetica,sans-Serif" font-size="10.00">LHCNoiseFB::LHCNoiseFB</text>
</a>
</g>
<!-- Node2&#45;&gt;Node3 -->
<g id="edge4" class="edge"><title>Node2&#45;&gt;Node3</title>
<path fill="none" stroke="midnightblue" d="M263.546,-187C273.652,-187 283.981,-187 293.986,-187"/>
<polygon fill="midnightblue" stroke="midnightblue" points="263.536,-183.5 253.536,-187 263.536,-190.5 263.536,-183.5"/>
</g>
<!-- Node5 -->
<g id="node9" class="node"><title>Node5</title>
<a xlink:href="../../dc/d45/classSlices.html#adee634f207f19e4484a7a509e07776b2" target="_top" xlink:title="Slices::track">
<polygon fill="white" stroke="black" points="470.5,-131.5 470.5,-152.5 541.5,-152.5 541.5,-131.5 470.5,-131.5"/>
<text text-anchor="middle" x="506" y="-139.5" font-family="Helvetica,sans-Serif" font-size="10.00">Slices::track</text>
</a>
</g>
<!-- Node4&#45;&gt;Node5 -->
<g id="edge8" class="edge"><title>Node4&#45;&gt;Node5</title>
<path fill="none" stroke="midnightblue" d="M425.267,-142.569C440.671,-142.46 456.698,-142.347 470.374,-142.251"/>
<polygon fill="midnightblue" stroke="midnightblue" points="425.24,-139.069 415.265,-142.639 425.29,-146.068 425.24,-139.069"/>
</g>
<!-- Node6 -->
<g id="node11" class="node"><title>Node6</title>
<a xlink:href="../../dc/d45/classSlices.html#aa6f4a80f2e363315eb7c3a325b0b50c3" target="_top" xlink:title="Slices::Slices">
<polygon fill="white" stroke="black" points="578.5,-111.5 578.5,-132.5 655.5,-132.5 655.5,-111.5 578.5,-111.5"/>
<text text-anchor="middle" x="617" y="-119.5" font-family="Helvetica,sans-Serif" font-size="10.00">Slices::Slices</text>
</a>
</g>
<!-- Node5&#45;&gt;Node6 -->
<g id="edge10" class="edge"><title>Node5&#45;&gt;Node6</title>
<path fill="none" stroke="midnightblue" d="M551.834,-133.742C560.617,-132.159 569.733,-130.517 578.265,-128.979"/>
<polygon fill="midnightblue" stroke="midnightblue" points="550.953,-130.344 541.732,-135.562 552.194,-137.233 550.953,-130.344"/>
</g>
<!-- Node7&#45;&gt;Node6 -->
<g id="edge14" class="edge"><title>Node7&#45;&gt;Node6</title>
<path fill="none" stroke="midnightblue" d="M418.021,-107.057C466.18,-110.674 535.491,-115.879 578.31,-119.094"/>
<polygon fill="midnightblue" stroke="midnightblue" points="418.014,-103.547 407.78,-106.288 417.49,-110.527 418.014,-103.547"/>
</g>
<!-- Node8&#45;&gt;Node4 -->
<g id="edge24" class="edge"><title>Node8&#45;&gt;Node4</title>
<path fill="none" stroke="midnightblue" d="M213.307,-80.9419C234.302,-93.6476 265.262,-111.204 294,-123 302.652,-126.551 312.152,-129.721 321.285,-132.432"/>
<polygon fill="midnightblue" stroke="midnightblue" points="215.036,-77.8962 204.681,-75.6543 211.378,-83.8643 215.036,-77.8962"/>
</g>
<!-- Node8&#45;&gt;Node7 -->
<g id="edge22" class="edge"><title>Node8&#45;&gt;Node7</title>
<path fill="none" stroke="midnightblue" d="M247.074,-77.7546C271.035,-82.9281 298.216,-88.7967 320.337,-93.5728"/>
<polygon fill="midnightblue" stroke="midnightblue" points="247.539,-74.2745 237.026,-75.5851 246.062,-81.1168 247.539,-74.2745"/>
</g>
<!-- Node9 -->
<g id="node18" class="node"><title>Node9</title>
<a xlink:href="../../db/d7b/classPSBPhaseNoiseInjection.html#a0afaaacc5c71047473edfcf7613f6f6f" target="_top" xlink:title="PSBPhaseNoiseInjection\l::generate">
<polygon fill="white" stroke="black" points="300.5,-0 300.5,-34 427.5,-34 427.5,-0 300.5,-0"/>
<text text-anchor="start" x="308.5" y="-21" font-family="Helvetica,sans-Serif" font-size="10.00">PSBPhaseNoiseInjection</text>
<text text-anchor="middle" x="364" y="-8" font-family="Helvetica,sans-Serif" font-size="10.00">::generate</text>
</a>
</g>
<!-- Node8&#45;&gt;Node9 -->
<g id="edge18" class="edge"><title>Node8&#45;&gt;Node9</title>
<path fill="none" stroke="midnightblue" d="M236.497,-51.7734C256.619,-46.2858 280.217,-39.8498 301.605,-34.0167"/>
<polygon fill="midnightblue" stroke="midnightblue" points="235.351,-48.4583 226.624,-54.4662 237.193,-55.2116 235.351,-48.4583"/>
</g>
<!-- Node10 -->
<g id="node20" class="node"><title>Node10</title>
<a xlink:href="../../d5/d73/classLHCFlatSpectrum.html#a2c1a3a410f3213af74e4839aaa560e80" target="_top" xlink:title="LHCFlatSpectrum::generate">
<polygon fill="white" stroke="black" points="294.5,-52.5 294.5,-73.5 433.5,-73.5 433.5,-52.5 294.5,-52.5"/>
<text text-anchor="middle" x="364" y="-60.5" font-family="Helvetica,sans-Serif" font-size="10.00">LHCFlatSpectrum::generate</text>
</a>
</g>
<!-- Node8&#45;&gt;Node10 -->
<g id="edge20" class="edge"><title>Node8&#45;&gt;Node10</title>
<path fill="none" stroke="midnightblue" d="M268.265,-64.0879C277.011,-63.9885 285.86,-63.888 294.463,-63.7902"/>
<polygon fill="midnightblue" stroke="midnightblue" points="268.025,-60.5903 258.066,-64.2038 268.105,-67.5898 268.025,-60.5903"/>
</g>
</g>
</svg>
