<?xml version="1.0" encoding="UTF-8" standalone="no"?>
<!DOCTYPE svg PUBLIC "-//W3C//DTD SVG 1.1//EN"
 "http://www.w3.org/Graphics/SVG/1.1/DTD/svg11.dtd">
<!-- Generated by graphviz version 2.26.3 (20100126.1600)
 -->
<!-- Title: mymath::fast_exp Pages: 1 -->
<svg width="514pt" height="70pt"
 viewBox="0.00 0.00 514.00 70.00" xmlns="http://www.w3.org/2000/svg" xmlns:xlink="http://www.w3.org/1999/xlink">
<g id="graph1" class="graph" transform="scale(1 1) rotate(0) translate(4 66)">
<title>mymath::fast_exp</title>
<polygon fill="white" stroke="white" points="-4,5 -4,-66 511,-66 511,5 -4,5"/>
<!-- Node1 -->
<g id="node1" class="node"><title>Node1</title>
<polygon fill="#bfbfbf" stroke="black" points="0.5,-20.5 0.5,-41.5 95.5,-41.5 95.5,-20.5 0.5,-20.5"/>
<text text-anchor="middle" x="48" y="-28.5" font-family="Helvetica,sans-Serif" font-size="10.00">mymath::fast_exp</text>
</g>
<!-- Node2 -->
<g id="node3" class="node"><title>Node2</title>
<a xlink:href="../../d5/d7b/namespacevdt.html#a5a8d5eaec2a0588b2b67e06aa187bd71" target="_top" xlink:title="Exponential Function double precision.">
<polygon fill="white" stroke="black" points="132,-20.5 132,-41.5 206,-41.5 206,-20.5 132,-20.5"/>
<text text-anchor="middle" x="169" y="-28.5" font-family="Helvetica,sans-Serif" font-size="10.00">vdt::fast_exp</text>
</a>
</g>
<!-- Node1&#45;&gt;Node2 -->
<g id="edge2" class="edge"><title>Node1&#45;&gt;Node2</title>
<path fill="none" stroke="midnightblue" d="M95.8224,-31C104.37,-31 113.27,-31 121.8,-31"/>
<polygon fill="midnightblue" stroke="midnightblue" points="121.972,-34.5001 131.972,-31 121.972,-27.5001 121.972,-34.5001"/>
</g>
<!-- Node3 -->
<g id="node5" class="node"><title>Node3</title>
<a xlink:href="../../d1/d47/namespacevdt_1_1details.html#aa6b6cf3665a8a7088fe3225a877a899a" target="_top" xlink:title="vdt::details::fpfloor">
<polygon fill="white" stroke="black" points="250,-40.5 250,-61.5 348,-61.5 348,-40.5 250,-40.5"/>
<text text-anchor="middle" x="299" y="-48.5" font-family="Helvetica,sans-Serif" font-size="10.00">vdt::details::fpfloor</text>
</a>
</g>
<!-- Node2&#45;&gt;Node3 -->
<g id="edge4" class="edge"><title>Node2&#45;&gt;Node3</title>
<path fill="none" stroke="midnightblue" d="M206.253,-36.7312C216.698,-38.3382 228.321,-40.1262 239.707,-41.8781"/>
<polygon fill="midnightblue" stroke="midnightblue" points="239.202,-45.3414 249.618,-43.4028 240.266,-38.4228 239.202,-45.3414"/>
</g>
<!-- Node5 -->
<g id="node9" class="node"><title>Node5</title>
<a xlink:href="../../d1/d47/namespacevdt_1_1details.html#a940d4813176edb5cb2c79353982a6f1d" target="_top" xlink:title="Converts an unsigned long long to a double.">
<polygon fill="white" stroke="black" points="242.5,-0.5 242.5,-21.5 355.5,-21.5 355.5,-0.5 242.5,-0.5"/>
<text text-anchor="middle" x="299" y="-8.5" font-family="Helvetica,sans-Serif" font-size="10.00">vdt::details::uint642dp</text>
</a>
</g>
<!-- Node2&#45;&gt;Node5 -->
<g id="edge8" class="edge"><title>Node2&#45;&gt;Node5</title>
<path fill="none" stroke="midnightblue" d="M206.253,-25.2688C214.43,-24.0108 223.328,-22.6419 232.27,-21.2662"/>
<polygon fill="midnightblue" stroke="midnightblue" points="232.996,-24.6957 242.348,-19.7157 231.932,-17.7771 232.996,-24.6957"/>
</g>
<!-- Node4 -->
<g id="node7" class="node"><title>Node4</title>
<a xlink:href="../../d1/d47/namespacevdt_1_1details.html#a631572330106e60e1dbe032a3eb10610" target="_top" xlink:title="Converts a float to an int.">
<polygon fill="white" stroke="black" points="392.5,-40.5 392.5,-61.5 505.5,-61.5 505.5,-40.5 392.5,-40.5"/>
<text text-anchor="middle" x="449" y="-48.5" font-family="Helvetica,sans-Serif" font-size="10.00">vdt::details::sp2uint32</text>
</a>
</g>
<!-- Node3&#45;&gt;Node4 -->
<g id="edge6" class="edge"><title>Node3&#45;&gt;Node4</title>
<path fill="none" stroke="midnightblue" d="M348.116,-51C359.086,-51 370.898,-51 382.44,-51"/>
<polygon fill="midnightblue" stroke="midnightblue" points="382.485,-54.5001 392.485,-51 382.485,-47.5001 382.485,-54.5001"/>
</g>
</g>
</svg>
