<?xml version="1.0" encoding="UTF-8" standalone="no"?>
<!DOCTYPE svg PUBLIC "-//W3C//DTD SVG 1.1//EN"
 "http://www.w3.org/Graphics/SVG/1.1/DTD/svg11.dtd">
<!-- Generated by graphviz version 2.26.3 (20100126.1600)
 -->
<!-- Title: mymath::sign Pages: 1 -->
<svg width="1000pt" height="222pt"
 viewBox="0.00 0.00 1000.00 222.00" xmlns="http://www.w3.org/2000/svg" xmlns:xlink="http://www.w3.org/1999/xlink">
<g id="graph1" class="graph" transform="scale(1 1) rotate(0) translate(4 218)">
<title>mymath::sign</title>
<polygon fill="white" stroke="white" points="-4,5 -4,-218 997,-218 997,5 -4,5"/>
<!-- Node1 -->
<g id="node1" class="node"><title>Node1</title>
<polygon fill="#bfbfbf" stroke="black" points="0,-63.5 0,-84.5 76,-84.5 76,-63.5 0,-63.5"/>
<text text-anchor="middle" x="38" y="-71.5" font-family="Helvetica,sans-Serif" font-size="10.00">mymath::sign</text>
</g>
<!-- Node2 -->
<g id="node3" class="node"><title>Node2</title>
<a xlink:href="../../d8/de0/namespacefft.html#abb6f84e834ac2b3b2b1da535a152bcbb" target="_top" xlink:title="fft::init_fft">
<polygon fill="white" stroke="black" points="144.5,-132.5 144.5,-153.5 203.5,-153.5 203.5,-132.5 144.5,-132.5"/>
<text text-anchor="middle" x="174" y="-140.5" font-family="Helvetica,sans-Serif" font-size="10.00">fft::init_fft</text>
</a>
</g>
<!-- Node1&#45;&gt;Node2 -->
<g id="edge2" class="edge"><title>Node1&#45;&gt;Node2</title>
<path fill="none" stroke="midnightblue" d="M59.6738,-90.6429C73.9463,-101.012 93.3727,-114.037 112,-123 122.192,-127.904 133.882,-132.028 144.344,-135.234"/>
<polygon fill="midnightblue" stroke="midnightblue" points="61.6247,-87.7323 51.5064,-84.5903 57.4568,-93.3563 61.6247,-87.7323"/>
</g>
<!-- Node17 -->
<g id="node37" class="node"><title>Node17</title>
<a xlink:href="../../d6/d13/classFullRingAndRf.html#abf38f0c9ebe6bb856b6d4ca473ad0e5c" target="_top" xlink:title="FullRingAndRf::potential\l_well_generation">
<polygon fill="white" stroke="black" points="112.5,-80 112.5,-114 235.5,-114 235.5,-80 112.5,-80"/>
<text text-anchor="start" x="120.5" y="-101" font-family="Helvetica,sans-Serif" font-size="10.00">FullRingAndRf::potential</text>
<text text-anchor="middle" x="174" y="-88" font-family="Helvetica,sans-Serif" font-size="10.00">_well_generation</text>
</a>
</g>
<!-- Node1&#45;&gt;Node17 -->
<g id="edge40" class="edge"><title>Node1&#45;&gt;Node17</title>
<path fill="none" stroke="midnightblue" d="M86.2872,-82.1662C94.7324,-83.5944 103.622,-85.0978 112.369,-86.5771"/>
<polygon fill="midnightblue" stroke="midnightblue" points="86.6891,-78.6846 76.2455,-80.468 85.5218,-85.5866 86.6891,-78.6846"/>
</g>
<!-- Node20 -->
<g id="node43" class="node"><title>Node20</title>
<a xlink:href="../../dc/d32/classSPS__RL.html#a864641f5311c3b9aaedc4d3fd03c5749" target="_top" xlink:title="SPS_RL::track">
<polygon fill="white" stroke="black" points="132.5,-40.5 132.5,-61.5 215.5,-61.5 215.5,-40.5 132.5,-40.5"/>
<text text-anchor="middle" x="174" y="-48.5" font-family="Helvetica,sans-Serif" font-size="10.00">SPS_RL::track</text>
</a>
</g>
<!-- Node1&#45;&gt;Node20 -->
<g id="edge46" class="edge"><title>Node1&#45;&gt;Node20</title>
<path fill="none" stroke="midnightblue" d="M86.3592,-65.8216C101.347,-63.2868 117.728,-60.5166 132.229,-58.0642"/>
<polygon fill="midnightblue" stroke="midnightblue" points="85.5218,-62.4134 76.2455,-67.532 86.6891,-69.3154 85.5218,-62.4134"/>
</g>
<!-- Node21 -->
<g id="node45" class="node"><title>Node21</title>
<a xlink:href="../../da/d97/classResonators.html#af9b393a40560230dc7f1d6d3618e9e2f" target="_top" xlink:title="Resonators::wake_calc">
<polygon fill="white" stroke="black" points="114.5,-0.5 114.5,-21.5 233.5,-21.5 233.5,-0.5 114.5,-0.5"/>
<text text-anchor="middle" x="174" y="-8.5" font-family="Helvetica,sans-Serif" font-size="10.00">Resonators::wake_calc</text>
</a>
</g>
<!-- Node1&#45;&gt;Node21 -->
<g id="edge48" class="edge"><title>Node1&#45;&gt;Node21</title>
<path fill="none" stroke="midnightblue" d="M62.5278,-57.9599C76.6108,-49.2114 94.8547,-38.6405 112,-31 119.851,-27.5012 128.505,-24.3171 136.793,-21.5692"/>
<polygon fill="midnightblue" stroke="midnightblue" points="60.5099,-55.0947 53.9274,-63.3966 64.2503,-61.0116 60.5099,-55.0947"/>
</g>
<!-- Node3 -->
<g id="node5" class="node"><title>Node3</title>
<a xlink:href="../../d8/de0/namespacefft.html#af7197252dd2a265bd53282a343582d02" target="_top" xlink:title="fft::find_plan">
<polygon fill="white" stroke="black" points="304.5,-132.5 304.5,-153.5 375.5,-153.5 375.5,-132.5 304.5,-132.5"/>
<text text-anchor="middle" x="340" y="-140.5" font-family="Helvetica,sans-Serif" font-size="10.00">fft::find_plan</text>
</a>
</g>
<!-- Node2&#45;&gt;Node3 -->
<g id="edge4" class="edge"><title>Node2&#45;&gt;Node3</title>
<path fill="none" stroke="midnightblue" d="M213.757,-143C241.282,-143 277.61,-143 304.226,-143"/>
<polygon fill="midnightblue" stroke="midnightblue" points="213.678,-139.5 203.677,-143 213.677,-146.5 213.678,-139.5"/>
</g>
<!-- Node4 -->
<g id="node7" class="node"><title>Node4</title>
<a xlink:href="../../d8/de0/namespacefft.html#ace866b5e38da8e32910f39bc63eb91e9" target="_top" xlink:title="fft::fft">
<polygon fill="white" stroke="black" points="446.5,-192.5 446.5,-213.5 487.5,-213.5 487.5,-192.5 446.5,-192.5"/>
<text text-anchor="middle" x="467" y="-200.5" font-family="Helvetica,sans-Serif" font-size="10.00">fft::fft</text>
</a>
</g>
<!-- Node3&#45;&gt;Node4 -->
<g id="edge6" class="edge"><title>Node3&#45;&gt;Node4</title>
<path fill="none" stroke="midnightblue" d="M371.597,-157.928C395.012,-168.99 426.247,-183.746 446.491,-193.31"/>
<polygon fill="midnightblue" stroke="midnightblue" points="372.95,-154.696 362.413,-153.589 369.959,-161.025 372.95,-154.696"/>
</g>
<!-- Node8 -->
<g id="node15" class="node"><title>Node8</title>
<a xlink:href="../../d8/de0/namespacefft.html#abf17de86632e9d1624635de461dbcd4f" target="_top" xlink:title="fft::ifft">
<polygon fill="white" stroke="black" points="445.5,-152.5 445.5,-173.5 488.5,-173.5 488.5,-152.5 445.5,-152.5"/>
<text text-anchor="middle" x="467" y="-160.5" font-family="Helvetica,sans-Serif" font-size="10.00">fft::ifft</text>
</a>
</g>
<!-- Node3&#45;&gt;Node8 -->
<g id="edge14" class="edge"><title>Node3&#45;&gt;Node8</title>
<path fill="none" stroke="midnightblue" d="M385.765,-150.207C406.131,-153.414 429.143,-157.038 445.462,-159.608"/>
<polygon fill="midnightblue" stroke="midnightblue" points="386.137,-146.723 375.715,-148.624 385.048,-153.637 386.137,-146.723"/>
</g>
<!-- Node9 -->
<g id="node18" class="node"><title>Node9</title>
<a xlink:href="../../d8/de0/namespacefft.html#a7870786fb204fa75feedfb6eeadbd788" target="_top" xlink:title="fft::irfft">
<polygon fill="white" stroke="black" points="444,-66.5 444,-87.5 490,-87.5 490,-66.5 444,-66.5"/>
<text text-anchor="middle" x="467" y="-74.5" font-family="Helvetica,sans-Serif" font-size="10.00">fft::irfft</text>
</a>
</g>
<!-- Node3&#45;&gt;Node9 -->
<g id="edge18" class="edge"><title>Node3&#45;&gt;Node9</title>
<path fill="none" stroke="midnightblue" d="M385.43,-129.783C393.131,-126.939 400.92,-123.668 408,-120 425.332,-111.021 443.162,-97.2845 454.619,-87.7632"/>
<polygon fill="midnightblue" stroke="midnightblue" points="384.068,-126.551 375.782,-133.154 386.377,-133.159 384.068,-126.551"/>
</g>
<!-- Node15 -->
<g id="node31" class="node"><title>Node15</title>
<a xlink:href="../../d8/de0/namespacefft.html#a789573d204d06c288f6b74c45cd92137" target="_top" xlink:title="fft::rfft">
<polygon fill="white" stroke="black" points="445,-112.5 445,-133.5 489,-133.5 489,-112.5 445,-112.5"/>
<text text-anchor="middle" x="467" y="-120.5" font-family="Helvetica,sans-Serif" font-size="10.00">fft::rfft</text>
</a>
</g>
<!-- Node3&#45;&gt;Node15 -->
<g id="edge32" class="edge"><title>Node3&#45;&gt;Node15</title>
<path fill="none" stroke="midnightblue" d="M385.631,-135.814C405.719,-132.651 428.404,-129.078 444.709,-126.51"/>
<polygon fill="midnightblue" stroke="midnightblue" points="385.048,-132.363 375.715,-137.376 386.137,-139.277 385.048,-132.363"/>
</g>
<!-- Node5 -->
<g id="node9" class="node"><title>Node5</title>
<a xlink:href="../../da/dd4/classPhaseNoise.html#a5b9bb8a443851f55cd0845608c35112f" target="_top" xlink:title="PhaseNoise::spectrum\l_to_phase_noise">
<polygon fill="white" stroke="black" points="540,-161 540,-195 656,-195 656,-161 540,-161"/>
<text text-anchor="start" x="548" y="-182" font-family="Helvetica,sans-Serif" font-size="10.00">PhaseNoise::spectrum</text>
<text text-anchor="middle" x="598" y="-169" font-family="Helvetica,sans-Serif" font-size="10.00">_to_phase_noise</text>
</a>
</g>
<!-- Node4&#45;&gt;Node5 -->
<g id="edge8" class="edge"><title>Node4&#45;&gt;Node5</title>
<path fill="none" stroke="midnightblue" d="M497.684,-197.144C510.251,-194.746 525.229,-191.888 539.729,-189.12"/>
<polygon fill="midnightblue" stroke="midnightblue" points="496.924,-193.726 487.757,-199.039 498.236,-200.602 496.924,-193.726"/>
</g>
<!-- Node6 -->
<g id="node11" class="node"><title>Node6</title>
<a xlink:href="../../d5/d73/classLHCFlatSpectrum.html#a2c1a3a410f3213af74e4839aaa560e80" target="_top" xlink:title="LHCFlatSpectrum::generate">
<polygon fill="white" stroke="black" points="708.5,-190.5 708.5,-211.5 847.5,-211.5 847.5,-190.5 708.5,-190.5"/>
<text text-anchor="middle" x="778" y="-198.5" font-family="Helvetica,sans-Serif" font-size="10.00">LHCFlatSpectrum::generate</text>
</a>
</g>
<!-- Node5&#45;&gt;Node6 -->
<g id="edge10" class="edge"><title>Node5&#45;&gt;Node6</title>
<path fill="none" stroke="midnightblue" d="M666.691,-186.777C680.3,-188.516 694.599,-190.343 708.243,-192.087"/>
<polygon fill="midnightblue" stroke="midnightblue" points="666.804,-183.263 656.441,-185.467 665.917,-190.207 666.804,-183.263"/>
</g>
<!-- Node7 -->
<g id="node13" class="node"><title>Node7</title>
<a xlink:href="../../db/d7b/classPSBPhaseNoiseInjection.html#a0afaaacc5c71047473edfcf7613f6f6f" target="_top" xlink:title="PSBPhaseNoiseInjection\l::generate">
<polygon fill="white" stroke="black" points="714.5,-138 714.5,-172 841.5,-172 841.5,-138 714.5,-138"/>
<text text-anchor="start" x="722.5" y="-159" font-family="Helvetica,sans-Serif" font-size="10.00">PSBPhaseNoiseInjection</text>
<text text-anchor="middle" x="778" y="-146" font-family="Helvetica,sans-Serif" font-size="10.00">::generate</text>
</a>
</g>
<!-- Node5&#45;&gt;Node7 -->
<g id="edge12" class="edge"><title>Node5&#45;&gt;Node7</title>
<path fill="none" stroke="midnightblue" d="M666.577,-169.237C682.235,-167.237 698.812,-165.118 714.258,-163.145"/>
<polygon fill="midnightblue" stroke="midnightblue" points="665.917,-165.793 656.441,-170.533 666.804,-172.737 665.917,-165.793"/>
</g>
<!-- Node8&#45;&gt;Node5 -->
<g id="edge16" class="edge"><title>Node8&#45;&gt;Node5</title>
<path fill="none" stroke="midnightblue" d="M498.863,-166.648C511.224,-168.064 525.778,-169.73 539.871,-171.344"/>
<polygon fill="midnightblue" stroke="midnightblue" points="498.965,-163.137 488.632,-165.477 498.169,-170.092 498.965,-163.137"/>
</g>
<!-- Node9&#45;&gt;Node5 -->
<g id="edge30" class="edge"><title>Node9&#45;&gt;Node5</title>
<path fill="none" stroke="midnightblue" d="M483.843,-95.6338C485.95,-98.0827 488.049,-100.582 490,-103 506.97,-124.031 504.354,-135.822 526,-152 530.471,-155.342 535.413,-158.287 540.551,-160.875"/>
<polygon fill="midnightblue" stroke="midnightblue" points="486.083,-92.8817 476.848,-87.69 480.83,-97.5079 486.083,-92.8817"/>
</g>
<!-- Node10 -->
<g id="node20" class="node"><title>Node10</title>
<a xlink:href="../../df/d6d/namespacemymath.html#ad9a3bb795e12d3f347816837e628087b" target="_top" xlink:title="mymath::convolution\l_with_ffts">
<polygon fill="white" stroke="black" points="544.5,-57 544.5,-91 651.5,-91 651.5,-57 544.5,-57"/>
<text text-anchor="start" x="552.5" y="-78" font-family="Helvetica,sans-Serif" font-size="10.00">mymath::convolution</text>
<text text-anchor="middle" x="598" y="-65" font-family="Helvetica,sans-Serif" font-size="10.00">_with_ffts</text>
</a>
</g>
<!-- Node9&#45;&gt;Node10 -->
<g id="edge20" class="edge"><title>Node9&#45;&gt;Node10</title>
<path fill="none" stroke="midnightblue" d="M500.284,-76.2378C513.677,-75.9311 529.463,-75.5696 544.395,-75.2276"/>
<polygon fill="midnightblue" stroke="midnightblue" points="500.036,-72.7424 490.119,-76.4706 500.196,-79.7406 500.036,-72.7424"/>
</g>
<!-- Node13 -->
<g id="node26" class="node"><title>Node13</title>
<a xlink:href="../../d5/de7/classInducedVoltageFreq.html#a1e5148ba1149372dc16509ca858ab4d3" target="_top" xlink:title="InducedVoltageFreq\l::induced_voltage_generation">
<polygon fill="white" stroke="black" points="526.5,-5 526.5,-39 669.5,-39 669.5,-5 526.5,-5"/>
<text text-anchor="start" x="534.5" y="-26" font-family="Helvetica,sans-Serif" font-size="10.00">InducedVoltageFreq</text>
<text text-anchor="middle" x="598" y="-13" font-family="Helvetica,sans-Serif" font-size="10.00">::induced_voltage_generation</text>
</a>
</g>
<!-- Node9&#45;&gt;Node13 -->
<g id="edge26" class="edge"><title>Node9&#45;&gt;Node13</title>
<path fill="none" stroke="midnightblue" d="M496.19,-61.8605C505.604,-57.1921 516.152,-52.1835 526,-48 533.217,-44.9343 540.932,-41.9007 548.531,-39.0472"/>
<polygon fill="midnightblue" stroke="midnightblue" points="494.582,-58.7514 487.221,-66.3722 497.728,-65.0047 494.582,-58.7514"/>
</g>
<!-- Node11 -->
<g id="node22" class="node"><title>Node11</title>
<a xlink:href="../../d0/d6b/classInducedVoltageTime.html#ada28e04191e2d2933ba9e3820e61d5c2" target="_top" xlink:title="InducedVoltageTime\l::induced_voltage_generation">
<polygon fill="white" stroke="black" points="706.5,-57 706.5,-91 849.5,-91 849.5,-57 706.5,-57"/>
<text text-anchor="start" x="714.5" y="-78" font-family="Helvetica,sans-Serif" font-size="10.00">InducedVoltageTime</text>
<text text-anchor="middle" x="778" y="-65" font-family="Helvetica,sans-Serif" font-size="10.00">::induced_voltage_generation</text>
</a>
</g>
<!-- Node10&#45;&gt;Node11 -->
<g id="edge22" class="edge"><title>Node10&#45;&gt;Node11</title>
<path fill="none" stroke="midnightblue" d="M661.819,-74C676.237,-74 691.636,-74 706.352,-74"/>
<polygon fill="midnightblue" stroke="midnightblue" points="661.519,-70.5001 651.519,-74 661.519,-77.5001 661.519,-70.5001"/>
</g>
<!-- Node12 -->
<g id="node24" class="node"><title>Node12</title>
<a xlink:href="../../d0/d6b/classInducedVoltageTime.html#a63d40bebb86206cd65c7d448e65a87a8" target="_top" xlink:title="InducedVoltageTime\l::track">
<polygon fill="white" stroke="black" points="886,-57 886,-91 992,-91 992,-57 886,-57"/>
<text text-anchor="start" x="894" y="-78" font-family="Helvetica,sans-Serif" font-size="10.00">InducedVoltageTime</text>
<text text-anchor="middle" x="939" y="-65" font-family="Helvetica,sans-Serif" font-size="10.00">::track</text>
</a>
</g>
<!-- Node11&#45;&gt;Node12 -->
<g id="edge24" class="edge"><title>Node11&#45;&gt;Node12</title>
<path fill="none" stroke="midnightblue" d="M859.798,-74C868.538,-74 877.257,-74 885.543,-74"/>
<polygon fill="midnightblue" stroke="midnightblue" points="859.555,-70.5001 849.555,-74 859.555,-77.5001 859.555,-70.5001"/>
</g>
<!-- Node14 -->
<g id="node28" class="node"><title>Node14</title>
<a xlink:href="../../d5/de7/classInducedVoltageFreq.html#acc7f20769421b46ad8fcf1518f642548" target="_top" xlink:title="InducedVoltageFreq\l::track">
<polygon fill="white" stroke="black" points="726,-5 726,-39 830,-39 830,-5 726,-5"/>
<text text-anchor="start" x="734" y="-26" font-family="Helvetica,sans-Serif" font-size="10.00">InducedVoltageFreq</text>
<text text-anchor="middle" x="778" y="-13" font-family="Helvetica,sans-Serif" font-size="10.00">::track</text>
</a>
</g>
<!-- Node13&#45;&gt;Node14 -->
<g id="edge28" class="edge"><title>Node13&#45;&gt;Node14</title>
<path fill="none" stroke="midnightblue" d="M679.893,-22C695.572,-22 711.581,-22 725.997,-22"/>
<polygon fill="midnightblue" stroke="midnightblue" points="679.658,-18.5001 669.658,-22 679.658,-25.5001 679.658,-18.5001"/>
</g>
<!-- Node15&#45;&gt;Node5 -->
<g id="edge38" class="edge"><title>Node15&#45;&gt;Node5</title>
<path fill="none" stroke="midnightblue" d="M496.19,-138.14C505.604,-142.808 516.152,-147.816 526,-152 533.217,-155.066 540.932,-158.099 548.531,-160.953"/>
<polygon fill="midnightblue" stroke="midnightblue" points="497.728,-134.995 487.221,-133.628 494.582,-141.249 497.728,-134.995"/>
</g>
<!-- Node15&#45;&gt;Node10 -->
<g id="edge36" class="edge"><title>Node15&#45;&gt;Node10</title>
<path fill="none" stroke="midnightblue" d="M498.647,-110.494C507.483,-107.048 517.101,-103.341 526,-100 533.839,-97.0574 542.18,-93.9885 550.301,-91.0336"/>
<polygon fill="midnightblue" stroke="midnightblue" points="497.118,-107.334 489.083,-114.24 499.671,-113.852 497.118,-107.334"/>
</g>
<!-- Node16 -->
<g id="node33" class="node"><title>Node16</title>
<a xlink:href="../../dc/d45/classSlices.html#a77b0f27dab45e9f789d5725b1d660673" target="_top" xlink:title="Slices::beam_spectrum\l_generation">
<polygon fill="white" stroke="black" points="538.5,-109 538.5,-143 657.5,-143 657.5,-109 538.5,-109"/>
<text text-anchor="start" x="546.5" y="-130" font-family="Helvetica,sans-Serif" font-size="10.00">Slices::beam_spectrum</text>
<text text-anchor="middle" x="598" y="-117" font-family="Helvetica,sans-Serif" font-size="10.00">_generation</text>
</a>
</g>
<!-- Node15&#45;&gt;Node16 -->
<g id="edge34" class="edge"><title>Node15&#45;&gt;Node16</title>
<path fill="none" stroke="midnightblue" d="M499.444,-123.743C511.239,-124.013 524.971,-124.328 538.373,-124.634"/>
<polygon fill="midnightblue" stroke="midnightblue" points="499.3,-120.239 489.222,-123.509 499.14,-127.237 499.3,-120.239"/>
</g>
<!-- Node18 -->
<g id="node39" class="node"><title>Node18</title>
<a xlink:href="../../dc/d7d/Distributions_8h.html#a39ba163b714fe197bd81ac64ffa48d30" target="_top" xlink:title="matched_from_distribution\l_density">
<polygon fill="white" stroke="black" points="274.5,-37 274.5,-71 405.5,-71 405.5,-37 274.5,-37"/>
<text text-anchor="start" x="282.5" y="-58" font-family="Helvetica,sans-Serif" font-size="10.00">matched_from_distribution</text>
<text text-anchor="middle" x="340" y="-45" font-family="Helvetica,sans-Serif" font-size="10.00">_density</text>
</a>
</g>
<!-- Node17&#45;&gt;Node18 -->
<g id="edge42" class="edge"><title>Node17&#45;&gt;Node18</title>
<path fill="none" stroke="midnightblue" d="M245.625,-78.4466C255.132,-75.9839 264.842,-73.4686 274.243,-71.0333"/>
<polygon fill="midnightblue" stroke="midnightblue" points="244.615,-75.0925 235.812,-80.9884 246.37,-81.8689 244.615,-75.0925"/>
</g>
<!-- Node19 -->
<g id="node41" class="node"><title>Node19</title>
<a xlink:href="../../dc/d7d/Distributions_8h.html#af8a750601d38e475a922ae843f837cc9" target="_top" xlink:title="matched_from_line_density">
<polygon fill="white" stroke="black" points="272,-89.5 272,-110.5 408,-110.5 408,-89.5 272,-89.5"/>
<text text-anchor="middle" x="340" y="-97.5" font-family="Helvetica,sans-Serif" font-size="10.00">matched_from_line_density</text>
</a>
</g>
<!-- Node17&#45;&gt;Node19 -->
<g id="edge44" class="edge"><title>Node17&#45;&gt;Node19</title>
<path fill="none" stroke="midnightblue" d="M246.091,-98.3028C254.601,-98.4566 263.266,-98.6132 271.722,-98.7661"/>
<polygon fill="midnightblue" stroke="midnightblue" points="245.874,-94.7984 235.812,-98.1171 245.747,-101.797 245.874,-94.7984"/>
</g>
</g>
</svg>
