<?xml version="1.0" encoding="UTF-8" standalone="no"?>
<!DOCTYPE svg PUBLIC "-//W3C//DTD SVG 1.1//EN"
 "http://www.w3.org/Graphics/SVG/1.1/DTD/svg11.dtd">
<!-- Generated by graphviz version 2.26.3 (20100126.1600)
 -->
<!-- Title: mymath::arange Pages: 1 -->
<svg width="268pt" height="82pt"
 viewBox="0.00 0.00 268.00 82.00" xmlns="http://www.w3.org/2000/svg" xmlns:xlink="http://www.w3.org/1999/xlink">
<g id="graph1" class="graph" transform="scale(1 1) rotate(0) translate(4 78)">
<title>mymath::arange</title>
<polygon fill="white" stroke="white" points="-4,5 -4,-78 265,-78 265,5 -4,5"/>
<!-- Node1 -->
<g id="node1" class="node"><title>Node1</title>
<polygon fill="#bfbfbf" stroke="black" points="0.5,-23.5 0.5,-44.5 87.5,-44.5 87.5,-23.5 0.5,-23.5"/>
<text text-anchor="middle" x="44" y="-31.5" font-family="Helvetica,sans-Serif" font-size="10.00">mymath::arange</text>
</g>
<!-- Node2 -->
<g id="node3" class="node"><title>Node2</title>
<a xlink:href="../../dc/d7d/Distributions_8h.html#a5493d96431d1b52db9fc4617281f457d" target="_top" xlink:title="matched_from_distribution\l_density">
<polygon fill="white" stroke="black" points="126.5,-40 126.5,-74 257.5,-74 257.5,-40 126.5,-40"/>
<text text-anchor="start" x="134.5" y="-61" font-family="Helvetica,sans-Serif" font-size="10.00">matched_from_distribution</text>
<text text-anchor="middle" x="192" y="-48" font-family="Helvetica,sans-Serif" font-size="10.00">_density</text>
</a>
</g>
<!-- Node1&#45;&gt;Node2 -->
<g id="edge2" class="edge"><title>Node1&#45;&gt;Node2</title>
<path fill="none" stroke="midnightblue" d="M97.5711,-42.3252C106.957,-43.7839 116.819,-45.3165 126.486,-46.8188"/>
<polygon fill="midnightblue" stroke="midnightblue" points="98.0233,-38.8536 87.6044,-40.7764 96.9483,-45.7706 98.0233,-38.8536"/>
</g>
<!-- Node3 -->
<g id="node5" class="node"><title>Node3</title>
<a xlink:href="../../dc/d7d/Distributions_8h.html#a00d3d5dce2d6cb66bd5b4bcc53abb901" target="_top" xlink:title="matched_from_line_density">
<polygon fill="white" stroke="black" points="124,-0.5 124,-21.5 260,-21.5 260,-0.5 124,-0.5"/>
<text text-anchor="middle" x="192" y="-8.5" font-family="Helvetica,sans-Serif" font-size="10.00">matched_from_line_density</text>
</a>
</g>
<!-- Node1&#45;&gt;Node3 -->
<g id="edge4" class="edge"><title>Node1&#45;&gt;Node3</title>
<path fill="none" stroke="midnightblue" d="M97.5669,-25.6754C106.239,-24.3277 115.318,-22.9168 124.274,-21.525"/>
<polygon fill="midnightblue" stroke="midnightblue" points="96.9483,-22.2294 87.6044,-27.2236 98.0233,-29.1464 96.9483,-22.2294"/>
</g>
</g>
</svg>
