<?xml version="1.0" encoding="UTF-8" standalone="no"?>
<!DOCTYPE svg PUBLIC "-//W3C//DTD SVG 1.1//EN"
 "http://www.w3.org/Graphics/SVG/1.1/DTD/svg11.dtd">
<!-- Generated by graphviz version 2.26.3 (20100126.1600)
 -->
<!-- Title: mymath::lin_interp Pages: 1 -->
<svg width="220pt" height="70pt"
 viewBox="0.00 0.00 220.00 70.00" xmlns="http://www.w3.org/2000/svg" xmlns:xlink="http://www.w3.org/1999/xlink">
<g id="graph1" class="graph" transform="scale(1 1) rotate(0) translate(4 66)">
<title>mymath::lin_interp</title>
<polygon fill="white" stroke="white" points="-4,5 -4,-66 217,-66 217,5 -4,5"/>
<!-- Node1 -->
<g id="node1" class="node"><title>Node1</title>
<polygon fill="#bfbfbf" stroke="black" points="0.5,-20.5 0.5,-41.5 97.5,-41.5 97.5,-20.5 0.5,-20.5"/>
<text text-anchor="middle" x="49" y="-28.5" font-family="Helvetica,sans-Serif" font-size="10.00">mymath::lin_interp</text>
</g>
<!-- Node2 -->
<g id="node3" class="node"><title>Node2</title>
<a xlink:href="../../df/d6d/namespacemymath.html#a2a11685fa6ce2396ae977fa1502a2cc4" target="_top" xlink:title="mymath::max">
<polygon fill="white" stroke="black" points="134.5,-40.5 134.5,-61.5 211.5,-61.5 211.5,-40.5 134.5,-40.5"/>
<text text-anchor="middle" x="173" y="-48.5" font-family="Helvetica,sans-Serif" font-size="10.00">mymath::max</text>
</a>
</g>
<!-- Node1&#45;&gt;Node2 -->
<g id="edge2" class="edge"><title>Node1&#45;&gt;Node2</title>
<path fill="none" stroke="midnightblue" d="M97.6522,-38.8471C106.43,-40.263 115.583,-41.7392 124.361,-43.155"/>
<polygon fill="midnightblue" stroke="midnightblue" points="124.018,-46.6449 134.448,-44.7819 125.133,-39.7342 124.018,-46.6449"/>
</g>
<!-- Node3 -->
<g id="node5" class="node"><title>Node3</title>
<a xlink:href="../../df/d6d/namespacemymath.html#a5bcc40b5ebadd9d98f351775df65ec9f" target="_top" xlink:title="mymath::min">
<polygon fill="white" stroke="black" points="136,-0.5 136,-21.5 210,-21.5 210,-0.5 136,-0.5"/>
<text text-anchor="middle" x="173" y="-8.5" font-family="Helvetica,sans-Serif" font-size="10.00">mymath::min</text>
</a>
</g>
<!-- Node1&#45;&gt;Node3 -->
<g id="edge4" class="edge"><title>Node1&#45;&gt;Node3</title>
<path fill="none" stroke="midnightblue" d="M97.6522,-23.1529C106.92,-21.658 116.606,-20.0958 125.827,-18.6086"/>
<polygon fill="midnightblue" stroke="midnightblue" points="126.678,-22.0167 135.993,-16.9689 125.563,-15.106 126.678,-22.0167"/>
</g>
</g>
</svg>
