<?xml version="1.0" encoding="UTF-8" standalone="no"?>
<!DOCTYPE svg PUBLIC "-//W3C//DTD SVG 1.1//EN"
 "http://www.w3.org/Graphics/SVG/1.1/DTD/svg11.dtd">
<!-- Generated by graphviz version 2.26.3 (20100126.1600)
 -->
<!-- Title: mymath::min Pages: 1 -->
<svg width="758pt" height="500pt"
 viewBox="0.00 0.00 758.00 500.00" xmlns="http://www.w3.org/2000/svg" xmlns:xlink="http://www.w3.org/1999/xlink">
<g id="graph1" class="graph" transform="scale(1 1) rotate(0) translate(4 496)">
<title>mymath::min</title>
<polygon fill="white" stroke="white" points="-4,5 -4,-496 755,-496 755,5 -4,5"/>
<!-- Node1 -->
<g id="node1" class="node"><title>Node1</title>
<polygon fill="#bfbfbf" stroke="black" points="0,-240.5 0,-261.5 74,-261.5 74,-240.5 0,-240.5"/>
<text text-anchor="middle" x="37" y="-248.5" font-family="Helvetica,sans-Serif" font-size="10.00">mymath::min</text>
</g>
<!-- Node2 -->
<g id="node3" class="node"><title>Node2</title>
<a xlink:href="../../da/d49/classRfParameters.html#a89b4a71d7f56a66f1a35586adc06b760" target="_top" xlink:title="RfParameters::calc\l_phi_s">
<polygon fill="white" stroke="black" points="121.5,-458 121.5,-492 222.5,-492 222.5,-458 121.5,-458"/>
<text text-anchor="start" x="129.5" y="-479" font-family="Helvetica,sans-Serif" font-size="10.00">RfParameters::calc</text>
<text text-anchor="middle" x="172" y="-466" font-family="Helvetica,sans-Serif" font-size="10.00">_phi_s</text>
</a>
</g>
<!-- Node1&#45;&gt;Node2 -->
<g id="edge2" class="edge"><title>Node1&#45;&gt;Node2</title>
<path fill="none" stroke="midnightblue" d="M39.1746,-271.566C44.382,-310.99 61.0163,-397.82 110,-449 113.309,-452.457 117.148,-455.474 121.263,-458.103"/>
<polygon fill="midnightblue" stroke="midnightblue" points="42.6406,-271.073 37.9688,-261.564 35.6909,-271.911 42.6406,-271.073"/>
</g>
<!-- Node3 -->
<g id="node5" class="node"><title>Node3</title>
<a xlink:href="../../dc/d45/classSlices.html#a663512ec224f285fa8e5b3e3bee65761" target="_top" xlink:title="Slices::histogram">
<polygon fill="white" stroke="black" points="126,-418.5 126,-439.5 218,-439.5 218,-418.5 126,-418.5"/>
<text text-anchor="middle" x="172" y="-426.5" font-family="Helvetica,sans-Serif" font-size="10.00">Slices::histogram</text>
</a>
</g>
<!-- Node1&#45;&gt;Node3 -->
<g id="edge4" class="edge"><title>Node1&#45;&gt;Node3</title>
<path fill="none" stroke="midnightblue" d="M41.6869,-271.604C50.0527,-303.975 70.5029,-366.875 110,-404 116.512,-410.121 124.715,-414.821 133.004,-418.402"/>
<polygon fill="midnightblue" stroke="midnightblue" points="45.083,-270.757 39.303,-261.877 38.2842,-272.423 45.083,-270.757"/>
</g>
<!-- Node7 -->
<g id="node13" class="node"><title>Node7</title>
<a xlink:href="../../df/d6d/namespacemymath.html#a9be6643559654e4fd81774f43bd8cdc0" target="_top" xlink:title="mymath::interp">
<polygon fill="white" stroke="black" points="131,-240.5 131,-261.5 213,-261.5 213,-240.5 131,-240.5"/>
<text text-anchor="middle" x="172" y="-248.5" font-family="Helvetica,sans-Serif" font-size="10.00">mymath::interp</text>
</a>
</g>
<!-- Node1&#45;&gt;Node7 -->
<g id="edge12" class="edge"><title>Node1&#45;&gt;Node7</title>
<path fill="none" stroke="midnightblue" d="M84.3987,-251C99.4622,-251 115.995,-251 130.601,-251"/>
<polygon fill="midnightblue" stroke="midnightblue" points="84.2467,-247.5 74.2467,-251 84.2467,-254.5 84.2467,-247.5"/>
</g>
<!-- Node12 -->
<g id="node23" class="node"><title>Node12</title>
<a xlink:href="../../dc/d7d/Distributions_8h.html#a392bda1df22a9c5034cb059fc9f8f349" target="_top" xlink:title="matched_from_line_density">
<polygon fill="white" stroke="black" points="614,-134.5 614,-155.5 750,-155.5 750,-134.5 614,-134.5"/>
<text text-anchor="middle" x="682" y="-142.5" font-family="Helvetica,sans-Serif" font-size="10.00">matched_from_line_density</text>
</a>
</g>
<!-- Node1&#45;&gt;Node12 -->
<g id="edge34" class="edge"><title>Node1&#45;&gt;Node12</title>
<path fill="none" stroke="midnightblue" d="M58.1039,-267.821C114.253,-310.44 271.905,-416.177 402,-371 530.648,-326.325 643.237,-193.851 673.827,-155.507"/>
<polygon fill="midnightblue" stroke="midnightblue" points="60.0389,-264.893 49.9835,-261.555 55.7627,-270.435 60.0389,-264.893"/>
</g>
<!-- Node14 -->
<g id="node28" class="node"><title>Node14</title>
<a xlink:href="../../de/d44/trackers_2utilities_8h.html#ab18ed3529eff62c38aca18633f6a7cd1" target="_top" xlink:title="potential_well_cut">
<polygon fill="white" stroke="black" points="460.5,-95.5 460.5,-116.5 555.5,-116.5 555.5,-95.5 460.5,-95.5"/>
<text text-anchor="middle" x="508" y="-103.5" font-family="Helvetica,sans-Serif" font-size="10.00">potential_well_cut</text>
</a>
</g>
<!-- Node1&#45;&gt;Node14 -->
<g id="edge36" class="edge"><title>Node1&#45;&gt;Node14</title>
<path fill="none" stroke="midnightblue" d="M58.8529,-234.325C98.4319,-205.194 185.715,-145.779 270,-121 333.95,-102.2 411.597,-101.114 460.42,-102.897"/>
<polygon fill="midnightblue" stroke="midnightblue" points="56.643,-231.607 50.7133,-240.387 60.8241,-237.221 56.643,-231.607"/>
</g>
<!-- Node16 -->
<g id="node35" class="node"><title>Node16</title>
<a xlink:href="../../d6/d13/classFullRingAndRf.html#a76ca8401684654596782338b81268ef2" target="_top" xlink:title="FullRingAndRf::potential\l_well_generation">
<polygon fill="white" stroke="black" points="110.5,-40 110.5,-74 233.5,-74 233.5,-40 110.5,-40"/>
<text text-anchor="start" x="118.5" y="-61" font-family="Helvetica,sans-Serif" font-size="10.00">FullRingAndRf::potential</text>
<text text-anchor="middle" x="172" y="-48" font-family="Helvetica,sans-Serif" font-size="10.00">_well_generation</text>
</a>
</g>
<!-- Node1&#45;&gt;Node16 -->
<g id="edge38" class="edge"><title>Node1&#45;&gt;Node16</title>
<path fill="none" stroke="midnightblue" d="M41.4419,-230.431C49.6467,-196.801 70.1015,-129.635 110,-88 115.162,-82.6129 121.461,-78.0169 128.042,-74.1448"/>
<polygon fill="midnightblue" stroke="midnightblue" points="37.9647,-229.932 39.1186,-240.464 44.7843,-231.512 37.9647,-229.932"/>
</g>
<!-- Node18 -->
<g id="node40" class="node"><title>Node18</title>
<a xlink:href="../../d8/d2b/classLHCNoiseFB.html#af1f65e30469f9049bc3116d9033635dd" target="_top" xlink:title="LHCNoiseFB::track">
<polygon fill="white" stroke="black" points="120.5,-0.5 120.5,-21.5 223.5,-21.5 223.5,-0.5 120.5,-0.5"/>
<text text-anchor="middle" x="172" y="-8.5" font-family="Helvetica,sans-Serif" font-size="10.00">LHCNoiseFB::track</text>
</a>
</g>
<!-- Node1&#45;&gt;Node18 -->
<g id="edge44" class="edge"><title>Node1&#45;&gt;Node18</title>
<path fill="none" stroke="midnightblue" d="M41.3344,-230.44C52.0392,-181.453 80.9725,-59.7863 110,-31 113.855,-27.1773 118.444,-24.085 123.356,-21.5835"/>
<polygon fill="midnightblue" stroke="midnightblue" points="37.8547,-229.974 39.1732,-240.486 44.6981,-231.446 37.8547,-229.974"/>
</g>
<!-- Node4 -->
<g id="node7" class="node"><title>Node4</title>
<a xlink:href="../../dc/d45/classSlices.html#ae9463517699373a87a1dae18becf9319" target="_top" xlink:title="Slices::slice_constant\l_space_histogram">
<polygon fill="white" stroke="black" points="279.5,-418 279.5,-452 392.5,-452 392.5,-418 279.5,-418"/>
<text text-anchor="start" x="287.5" y="-439" font-family="Helvetica,sans-Serif" font-size="10.00">Slices::slice_constant</text>
<text text-anchor="middle" x="336" y="-426" font-family="Helvetica,sans-Serif" font-size="10.00">_space_histogram</text>
</a>
</g>
<!-- Node3&#45;&gt;Node4 -->
<g id="edge6" class="edge"><title>Node3&#45;&gt;Node4</title>
<path fill="none" stroke="midnightblue" d="M228.196,-431.056C244.748,-431.661 262.861,-432.324 279.436,-432.931"/>
<polygon fill="midnightblue" stroke="midnightblue" points="228.241,-427.555 218.12,-430.687 227.985,-434.551 228.241,-427.555"/>
</g>
<!-- Node5 -->
<g id="node9" class="node"><title>Node5</title>
<a xlink:href="../../dc/d45/classSlices.html#adee634f207f19e4484a7a509e07776b2" target="_top" xlink:title="Slices::track">
<polygon fill="white" stroke="black" points="472.5,-424.5 472.5,-445.5 543.5,-445.5 543.5,-424.5 472.5,-424.5"/>
<text text-anchor="middle" x="508" y="-432.5" font-family="Helvetica,sans-Serif" font-size="10.00">Slices::track</text>
</a>
</g>
<!-- Node4&#45;&gt;Node5 -->
<g id="edge8" class="edge"><title>Node4&#45;&gt;Node5</title>
<path fill="none" stroke="midnightblue" d="M402.8,-435C426.489,-435 452.225,-435 472.313,-435"/>
<polygon fill="midnightblue" stroke="midnightblue" points="402.796,-431.5 392.796,-435 402.796,-438.5 402.796,-431.5"/>
</g>
<!-- Node6 -->
<g id="node11" class="node"><title>Node6</title>
<a xlink:href="../../dc/d45/classSlices.html#aa6f4a80f2e363315eb7c3a325b0b50c3" target="_top" xlink:title="Slices::Slices">
<polygon fill="white" stroke="black" points="643.5,-424.5 643.5,-445.5 720.5,-445.5 720.5,-424.5 643.5,-424.5"/>
<text text-anchor="middle" x="682" y="-432.5" font-family="Helvetica,sans-Serif" font-size="10.00">Slices::Slices</text>
</a>
</g>
<!-- Node5&#45;&gt;Node6 -->
<g id="edge10" class="edge"><title>Node5&#45;&gt;Node6</title>
<path fill="none" stroke="midnightblue" d="M553.922,-435C581.793,-435 616.963,-435 643.394,-435"/>
<polygon fill="midnightblue" stroke="midnightblue" points="553.631,-431.5 543.631,-435 553.631,-438.5 553.631,-431.5"/>
</g>
<!-- Node8 -->
<g id="node15" class="node"><title>Node8</title>
<a xlink:href="../../dc/d45/classSlices.html#ada42a57f8bea7bb582076bfb6f9f1812" target="_top" xlink:title="Slices::beam_profile\l_derivative">
<polygon fill="white" stroke="black" points="283.5,-170 283.5,-204 388.5,-204 388.5,-170 283.5,-170"/>
<text text-anchor="start" x="291.5" y="-191" font-family="Helvetica,sans-Serif" font-size="10.00">Slices::beam_profile</text>
<text text-anchor="middle" x="336" y="-178" font-family="Helvetica,sans-Serif" font-size="10.00">_derivative</text>
</a>
</g>
<!-- Node7&#45;&gt;Node8 -->
<g id="edge14" class="edge"><title>Node7&#45;&gt;Node8</title>
<path fill="none" stroke="midnightblue" d="M208.47,-236.768C233.207,-227.114 266.037,-214.303 292.192,-204.096"/>
<polygon fill="midnightblue" stroke="midnightblue" points="207.125,-233.536 199.081,-240.432 209.669,-240.057 207.125,-233.536"/>
</g>
<!-- Node10 -->
<g id="node19" class="node"><title>Node10</title>
<a xlink:href="../../db/da5/classInputTable.html#a8fd3b73432c461936a7f8f5e0aebbdcd" target="_top" xlink:title="InputTable::imped_calc">
<polygon fill="white" stroke="black" points="277,-340.5 277,-361.5 395,-361.5 395,-340.5 277,-340.5"/>
<text text-anchor="middle" x="336" y="-348.5" font-family="Helvetica,sans-Serif" font-size="10.00">InputTable::imped_calc</text>
</a>
</g>
<!-- Node7&#45;&gt;Node10 -->
<g id="edge18" class="edge"><title>Node7&#45;&gt;Node10</title>
<path fill="none" stroke="midnightblue" d="M189.277,-268.713C207.742,-286.723 238.621,-314.286 270,-331 276.974,-334.715 284.739,-337.844 292.424,-340.442"/>
<polygon fill="midnightblue" stroke="midnightblue" points="191.718,-266.205 182.158,-261.64 186.784,-271.171 191.718,-266.205"/>
</g>
<!-- Node11 -->
<g id="node21" class="node"><title>Node11</title>
<a xlink:href="../../df/d6d/namespacemymath.html#a1ad0bc05a9722e2dad00ea41ff54c65f" target="_top" xlink:title="mymath::interp">
<polygon fill="white" stroke="black" points="295,-300.5 295,-321.5 377,-321.5 377,-300.5 295,-300.5"/>
<text text-anchor="middle" x="336" y="-308.5" font-family="Helvetica,sans-Serif" font-size="10.00">mymath::interp</text>
</a>
</g>
<!-- Node7&#45;&gt;Node11 -->
<g id="edge20" class="edge"><title>Node7&#45;&gt;Node11</title>
<path fill="none" stroke="midnightblue" d="M205.635,-265.636C224.41,-273.576 248.32,-283.309 270,-291 279.366,-294.322 289.596,-297.593 299.146,-300.495"/>
<polygon fill="midnightblue" stroke="midnightblue" points="206.895,-262.369 196.324,-261.668 204.151,-268.808 206.895,-262.369"/>
</g>
<!-- Node7&#45;&gt;Node12 -->
<g id="edge22" class="edge"><title>Node7&#45;&gt;Node12</title>
<path fill="none" stroke="midnightblue" d="M223.261,-248.177C317.248,-242.552 513.435,-228.595 578,-207 613.285,-195.198 649.494,-170.078 668.481,-155.697"/>
<polygon fill="midnightblue" stroke="midnightblue" points="222.91,-244.692 213.134,-248.775 223.323,-251.68 222.91,-244.692"/>
</g>
<!-- Node13 -->
<g id="node25" class="node"><title>Node13</title>
<a xlink:href="../../de/d44/trackers_2utilities_8h.html#a69254a443ce03ae3f136093fff843cae" target="_top" xlink:title="minmax_location">
<polygon fill="white" stroke="black" points="291,-130.5 291,-151.5 381,-151.5 381,-130.5 291,-130.5"/>
<text text-anchor="middle" x="336" y="-138.5" font-family="Helvetica,sans-Serif" font-size="10.00">minmax_location</text>
</a>
</g>
<!-- Node7&#45;&gt;Node13 -->
<g id="edge24" class="edge"><title>Node7&#45;&gt;Node13</title>
<path fill="none" stroke="midnightblue" d="M187.152,-232.86C205.002,-212.591 236.496,-180.119 270,-161 276.551,-157.262 283.875,-154.152 291.195,-151.588"/>
<polygon fill="midnightblue" stroke="midnightblue" points="184.464,-230.618 180.581,-240.476 189.764,-235.191 184.464,-230.618"/>
</g>
<!-- Node15 -->
<g id="node31" class="node"><title>Node15</title>
<a xlink:href="../../db/da5/classInputTable.html#ae64468233934df7fe3d6ee8d4dcce12d" target="_top" xlink:title="InputTable::wake_calc">
<polygon fill="white" stroke="black" points="278.5,-260.5 278.5,-281.5 393.5,-281.5 393.5,-260.5 278.5,-260.5"/>
<text text-anchor="middle" x="336" y="-268.5" font-family="Helvetica,sans-Serif" font-size="10.00">InputTable::wake_calc</text>
</a>
</g>
<!-- Node7&#45;&gt;Node15 -->
<g id="edge32" class="edge"><title>Node7&#45;&gt;Node15</title>
<path fill="none" stroke="midnightblue" d="M223.359,-257.263C240.771,-259.387 260.337,-261.773 278.216,-263.953"/>
<polygon fill="midnightblue" stroke="midnightblue" points="223.734,-253.783 213.384,-256.047 222.887,-260.732 223.734,-253.783"/>
</g>
<!-- Node9 -->
<g id="node17" class="node"><title>Node9</title>
<a xlink:href="../../d2/d51/plot__slices_8h.html#ad931c13f8d5ee8947ed320ac51b3a2b3" target="_top" xlink:title="plot_beam_profile_derivative">
<polygon fill="white" stroke="black" points="438,-176.5 438,-197.5 578,-197.5 578,-176.5 438,-176.5"/>
<text text-anchor="middle" x="508" y="-184.5" font-family="Helvetica,sans-Serif" font-size="10.00">plot_beam_profile_derivative</text>
</a>
</g>
<!-- Node8&#45;&gt;Node9 -->
<g id="edge16" class="edge"><title>Node8&#45;&gt;Node9</title>
<path fill="none" stroke="midnightblue" d="M398.562,-187C411.285,-187 424.749,-187 437.719,-187"/>
<polygon fill="midnightblue" stroke="midnightblue" points="398.54,-183.5 388.54,-187 398.54,-190.5 398.54,-183.5"/>
</g>
<!-- Node13&#45;&gt;Node12 -->
<g id="edge26" class="edge"><title>Node13&#45;&gt;Node12</title>
<path fill="none" stroke="midnightblue" d="M391.348,-141.64C451.809,-142.339 548.705,-143.459 613.813,-144.212"/>
<polygon fill="midnightblue" stroke="midnightblue" points="391.273,-138.139 381.233,-141.523 391.192,-145.138 391.273,-138.139"/>
</g>
<!-- Node13&#45;&gt;Node14 -->
<g id="edge28" class="edge"><title>Node13&#45;&gt;Node14</title>
<path fill="none" stroke="midnightblue" d="M391.183,-129.771C413.473,-125.235 438.947,-120.051 460.406,-115.685"/>
<polygon fill="midnightblue" stroke="midnightblue" points="390.292,-126.38 381.191,-131.804 391.688,-133.24 390.292,-126.38"/>
</g>
<!-- Node14&#45;&gt;Node12 -->
<g id="edge30" class="edge"><title>Node14&#45;&gt;Node12</title>
<path fill="none" stroke="midnightblue" d="M564.913,-118.756C587.557,-123.832 613.303,-129.602 634.875,-134.438"/>
<polygon fill="midnightblue" stroke="midnightblue" points="565.61,-115.326 555.087,-116.554 564.079,-122.156 565.61,-115.326"/>
</g>
<!-- Node16&#45;&gt;Node12 -->
<g id="edge42" class="edge"><title>Node16&#45;&gt;Node12</title>
<path fill="none" stroke="midnightblue" d="M235.938,-37.4963C247.189,-34.7959 258.862,-32.4523 270,-31 328.174,-23.4142 344.005,-22.1493 402,-31 483.015,-43.3637 502.822,-53.3735 578,-86 610.563,-100.132 646.027,-121.709 665.987,-134.48"/>
<polygon fill="midnightblue" stroke="midnightblue" points="235.029,-34.1158 226.184,-39.9478 236.735,-40.9047 235.029,-34.1158"/>
</g>
<!-- Node17 -->
<g id="node37" class="node"><title>Node17</title>
<a xlink:href="../../dc/d7d/Distributions_8h.html#a39ba163b714fe197bd81ac64ffa48d30" target="_top" xlink:title="matched_from_distribution\l_density">
<polygon fill="white" stroke="black" points="270.5,-40 270.5,-74 401.5,-74 401.5,-40 270.5,-40"/>
<text text-anchor="start" x="278.5" y="-61" font-family="Helvetica,sans-Serif" font-size="10.00">matched_from_distribution</text>
<text text-anchor="middle" x="336" y="-48" font-family="Helvetica,sans-Serif" font-size="10.00">_density</text>
</a>
</g>
<!-- Node16&#45;&gt;Node17 -->
<g id="edge40" class="edge"><title>Node16&#45;&gt;Node17</title>
<path fill="none" stroke="midnightblue" d="M243.78,-57C252.592,-57 261.564,-57 270.28,-57"/>
<polygon fill="midnightblue" stroke="midnightblue" points="243.534,-53.5001 233.534,-57 243.534,-60.5001 243.534,-53.5001"/>
</g>
</g>
</svg>
