<?xml version="1.0" encoding="UTF-8" standalone="no"?>
<!DOCTYPE svg PUBLIC "-//W3C//DTD SVG 1.1//EN"
 "http://www.w3.org/Graphics/SVG/1.1/DTD/svg11.dtd">
<!-- Generated by graphviz version 2.26.3 (20100126.1600)
 -->
<!-- Title: mymath::standard_deviation Pages: 1 -->
<svg width="556pt" height="49pt"
 viewBox="0.00 0.00 556.00 49.00" xmlns="http://www.w3.org/2000/svg" xmlns:xlink="http://www.w3.org/1999/xlink">
<g id="graph1" class="graph" transform="scale(1 1) rotate(0) translate(4 45)">
<title>mymath::standard_deviation</title>
<polygon fill="white" stroke="white" points="-4,5 -4,-45 553,-45 553,5 -4,5"/>
<!-- Node1 -->
<g id="node1" class="node"><title>Node1</title>
<polygon fill="#bfbfbf" stroke="black" points="0,-19.5 0,-40.5 140,-40.5 140,-19.5 0,-19.5"/>
<text text-anchor="middle" x="70" y="-27.5" font-family="Helvetica,sans-Serif" font-size="10.00">mymath::standard_deviation</text>
</g>
<!-- Node2 -->
<g id="node3" class="node"><title>Node2</title>
<a xlink:href="../../df/d6d/namespacemymath.html#ac815b54cedc0318b700fb483ee23ec2e" target="_top" xlink:title="mymath::mean">
<polygon fill="white" stroke="black" points="352,-19.5 352,-40.5 434,-40.5 434,-19.5 352,-19.5"/>
<text text-anchor="middle" x="393" y="-27.5" font-family="Helvetica,sans-Serif" font-size="10.00">mymath::mean</text>
</a>
</g>
<!-- Node1&#45;&gt;Node2 -->
<g id="edge2" class="edge"><title>Node1&#45;&gt;Node2</title>
<path fill="none" stroke="midnightblue" d="M140.131,-30.7549C152.099,-30.857 164.406,-30.9453 176,-31 238.222,-31.2935 253.779,-31.404 316,-31 324.269,-30.9463 333.037,-30.8602 341.58,-30.7604"/>
<polygon fill="midnightblue" stroke="midnightblue" points="341.885,-34.257 351.841,-30.6333 341.798,-27.2576 341.885,-34.257"/>
</g>
<!-- Node4 -->
<g id="node7" class="node"><title>Node4</title>
<a xlink:href="../../df/d6d/namespacemymath.html#aa50ebf887bdf0acc40e9d54519351de6" target="_top" xlink:title="mymath::standard_deviation">
<polygon fill="white" stroke="black" points="176,-0.5 176,-21.5 316,-21.5 316,-0.5 176,-0.5"/>
<text text-anchor="middle" x="246" y="-8.5" font-family="Helvetica,sans-Serif" font-size="10.00">mymath::standard_deviation</text>
</a>
</g>
<!-- Node1&#45;&gt;Node4 -->
<g id="edge6" class="edge"><title>Node1&#45;&gt;Node4</title>
<path fill="none" stroke="midnightblue" d="M140.066,-22.4361C148.54,-21.5212 157.247,-20.5813 165.852,-19.6523"/>
<polygon fill="midnightblue" stroke="midnightblue" points="166.321,-23.1221 175.888,-18.5689 165.57,-16.1625 166.321,-23.1221"/>
</g>
<!-- Node3 -->
<g id="node5" class="node"><title>Node3</title>
<a xlink:href="../../df/d6d/namespacemymath.html#a80532a0f537928e78a30ae10afeecb6c" target="_top" xlink:title="mymath::sum">
<polygon fill="white" stroke="black" points="470.5,-19.5 470.5,-40.5 547.5,-40.5 547.5,-19.5 470.5,-19.5"/>
<text text-anchor="middle" x="509" y="-27.5" font-family="Helvetica,sans-Serif" font-size="10.00">mymath::sum</text>
</a>
</g>
<!-- Node2&#45;&gt;Node3 -->
<g id="edge4" class="edge"><title>Node2&#45;&gt;Node3</title>
<path fill="none" stroke="midnightblue" d="M434.224,-30C442.557,-30 451.396,-30 459.967,-30"/>
<polygon fill="midnightblue" stroke="midnightblue" points="460.238,-33.5001 470.238,-30 460.238,-26.5001 460.238,-33.5001"/>
</g>
<!-- Node4&#45;&gt;Node2 -->
<g id="edge8" class="edge"><title>Node4&#45;&gt;Node2</title>
<path fill="none" stroke="midnightblue" d="M316.056,-20.0548C324.783,-21.1828 333.575,-22.3192 341.938,-23.4001"/>
<polygon fill="midnightblue" stroke="midnightblue" points="341.527,-26.8761 351.894,-24.6869 342.425,-19.9338 341.527,-26.8761"/>
</g>
</g>
</svg>
