<?xml version="1.0" encoding="UTF-8" standalone="no"?>
<!DOCTYPE svg PUBLIC "-//W3C//DTD SVG 1.1//EN"
 "http://www.w3.org/Graphics/SVG/1.1/DTD/svg11.dtd">
<!-- Generated by graphviz version 2.26.3 (20100126.1600)
 -->
<!-- Title: blond::LHC::track Pages: 1 -->
<svg width="432pt" height="146pt"
 viewBox="0.00 0.00 432.00 146.00" xmlns="http://www.w3.org/2000/svg" xmlns:xlink="http://www.w3.org/1999/xlink">
<g id="graph1" class="graph" transform="scale(1 1) rotate(0) translate(4 142)">
<title>blond::LHC::track</title>
<polygon fill="white" stroke="white" points="-4,5 -4,-142 429,-142 429,5 -4,5"/>
<!-- Node1 -->
<g id="node1" class="node"><title>Node1</title>
<polygon fill="#bfbfbf" stroke="black" points="0,-58.5 0,-79.5 94,-79.5 94,-58.5 0,-58.5"/>
<text text-anchor="middle" x="47" y="-66.5" font-family="Helvetica,sans-Serif" font-size="10.00">blond::LHC::track</text>
</g>
<!-- Node2 -->
<g id="node3" class="node"><title>Node2</title>
<a xlink:href="../../db/d01/classblond_1_1PhaseLoop.html#aa62e59a49e478864890f339e62b3b428" target="_top" xlink:title="blond::PhaseLoop::beam\l_phase">
<polygon fill="white" stroke="black" points="132.5,-104 132.5,-138 257.5,-138 257.5,-104 132.5,-104"/>
<text text-anchor="start" x="140.5" y="-125" font-family="Helvetica,sans-Serif" font-size="10.00">blond::PhaseLoop::beam</text>
<text text-anchor="middle" x="195" y="-112" font-family="Helvetica,sans-Serif" font-size="10.00">_phase</text>
</a>
</g>
<!-- Node1&#45;&gt;Node2 -->
<g id="edge2" class="edge"><title>Node1&#45;&gt;Node2</title>
<path fill="none" stroke="midnightblue" d="M76.95,-79.523C94.1584,-85.5692 116.364,-93.371 136.864,-100.574"/>
<polygon fill="midnightblue" stroke="midnightblue" points="135.855,-103.929 146.45,-103.942 138.175,-97.3247 135.855,-103.929"/>
</g>
<!-- Node4 -->
<g id="node7" class="node"><title>Node4</title>
<a xlink:href="../../db/d01/classblond_1_1PhaseLoop.html#aa9249dc8c9d21f044065cd903929172f" target="_top" xlink:title="blond::PhaseLoop::default\l_track">
<polygon fill="white" stroke="black" points="130,-52 130,-86 260,-86 260,-52 130,-52"/>
<text text-anchor="start" x="138" y="-73" font-family="Helvetica,sans-Serif" font-size="10.00">blond::PhaseLoop::default</text>
<text text-anchor="middle" x="195" y="-60" font-family="Helvetica,sans-Serif" font-size="10.00">_track</text>
</a>
</g>
<!-- Node1&#45;&gt;Node4 -->
<g id="edge6" class="edge"><title>Node1&#45;&gt;Node4</title>
<path fill="none" stroke="midnightblue" d="M94.235,-69C102.383,-69 111.031,-69 119.702,-69"/>
<polygon fill="midnightblue" stroke="midnightblue" points="119.865,-72.5001 129.865,-69 119.865,-65.5001 119.865,-72.5001"/>
</g>
<!-- Node5 -->
<g id="node9" class="node"><title>Node5</title>
<a xlink:href="../../db/d01/classblond_1_1PhaseLoop.html#a5c272e2d61820256ab38d422b4b59df5" target="_top" xlink:title="blond::PhaseLoop::phase\l_difference">
<polygon fill="white" stroke="black" points="131.5,-0 131.5,-34 258.5,-34 258.5,-0 131.5,-0"/>
<text text-anchor="start" x="139.5" y="-21" font-family="Helvetica,sans-Serif" font-size="10.00">blond::PhaseLoop::phase</text>
<text text-anchor="middle" x="195" y="-8" font-family="Helvetica,sans-Serif" font-size="10.00">_difference</text>
</a>
</g>
<!-- Node1&#45;&gt;Node5 -->
<g id="edge8" class="edge"><title>Node1&#45;&gt;Node5</title>
<path fill="none" stroke="midnightblue" d="M76.95,-58.477C94.1584,-52.4308 116.364,-44.629 136.864,-37.426"/>
<polygon fill="midnightblue" stroke="midnightblue" points="138.175,-40.6753 146.45,-34.0582 135.855,-34.0711 138.175,-40.6753"/>
</g>
<!-- Node3 -->
<g id="node5" class="node"><title>Node3</title>
<a xlink:href="../../dc/d3e/namespaceblond_1_1mymath.html#aed09bae4588ac02eda04e9b8afb694cd" target="_top" xlink:title="blond::mymath::trapezoid">
<polygon fill="white" stroke="black" points="296.5,-110.5 296.5,-131.5 423.5,-131.5 423.5,-110.5 296.5,-110.5"/>
<text text-anchor="middle" x="360" y="-118.5" font-family="Helvetica,sans-Serif" font-size="10.00">blond::mymath::trapezoid</text>
</a>
</g>
<!-- Node2&#45;&gt;Node3 -->
<g id="edge4" class="edge"><title>Node2&#45;&gt;Node3</title>
<path fill="none" stroke="midnightblue" d="M257.85,-121C267.08,-121 276.658,-121 286.085,-121"/>
<polygon fill="midnightblue" stroke="midnightblue" points="286.231,-124.5 296.231,-121 286.231,-117.5 286.231,-124.5"/>
</g>
</g>
</svg>
