<?xml version="1.0" encoding="UTF-8" standalone="no"?>
<!DOCTYPE svg PUBLIC "-//W3C//DTD SVG 1.1//EN"
 "http://www.w3.org/Graphics/SVG/1.1/DTD/svg11.dtd">
<!-- Generated by graphviz version 2.26.3 (20100126.1600)
 -->
<!-- Title: Monitors.h Pages: 1 -->
<!--zoomable 580 -->
<svg id="main" version="1.1" xmlns="http://www.w3.org/2000/svg" xmlns:xlink="http://www.w3.org/1999/xlink" xml:space="preserve" onload="init(evt)">
        <defs>
                <circle id="rim" cx="0" cy="0" r="7"/>
                <circle id="rim2" cx="0" cy="0" r="3.5"/>
                <g id="zoomPlus">
                        <use xlink:href="#rim" fill="#404040">
                                <set attributeName="fill" to="#808080" begin="zoomplus.mouseover" end="zoomplus.mouseout"/>
                        </use>
                        <path d="M-4,0h8M0,-4v8" fill="none" stroke="white" stroke-width="1.5" pointer-events="none"/>
                </g>
                <g id="zoomMin">
                        <use xlink:href="#rim" fill="#404040">
                                <set attributeName="fill" to="#808080" begin="zoomminus.mouseover" end="zoomminus.mouseout"/>
                        </use>
                        <path d="M-4,0h8" fill="none" stroke="white" stroke-width="1.5" pointer-events="none"/>
                </g>
                <g id="dirArrow">
                        <path fill="none" stroke="white" stroke-width="1.5" d="M0,-3.0v7 M-2.5,-0.5L0,-3.0L2.5,-0.5"/>
                </g>
               <g id="resetDef">
                       <use xlink:href="#rim2" fill="#404040">
                               <set attributeName="fill" to="#808080" begin="reset.mouseover" end="reset.mouseout"/>
                       </use>
               </g>
        </defs>

<script type="text/javascript">
var viewWidth = 1257;
var viewHeight = 580;
var sectionId = 'dynsection-0';
</script>
<script xlink:href="../../svgpan.js"/>
<svg id="graph" class="graph">
<g id="viewport">
<title>Monitors.h</title>
<polygon fill="white" stroke="white" points="-4,5 -4,-576 1254,-576 1254,5 -4,5"/>
<!-- Node1 -->
<g id="node1" class="node"><title>Node1</title>
<polygon fill="#bfbfbf" stroke="black" points="334,-550.5 334,-571.5 396,-571.5 396,-550.5 334,-550.5"/>
<text text-anchor="middle" x="365" y="-558.5" font-family="Helvetica,sans-Serif" font-size="10.00">Monitors.h</text>
</g>
<!-- Node2 -->
<g id="node3" class="node"><title>Node2</title>
<polygon fill="white" stroke="#bfbfbf" points="0,-492.5 0,-513.5 56,-513.5 56,-492.5 0,-492.5"/>
<text text-anchor="middle" x="28" y="-500.5" font-family="Helvetica,sans-Serif" font-size="10.00">H5Cpp.h</text>
</g>
<!-- Node1&#45;&gt;Node2 -->
<g id="edge2" class="edge"><title>Node1&#45;&gt;Node2</title>
<path fill="none" stroke="midnightblue" d="M333.645,-557.488C280.485,-551.232 169.174,-536.836 66.1239,-514.033"/>
<polygon fill="midnightblue" stroke="midnightblue" points="66.7032,-510.576 56.1793,-511.8 65.1695,-517.406 66.7032,-510.576"/>
</g>
<!-- Node3 -->
<g id="node5" class="node"><title>Node3</title>
<polygon fill="white" stroke="#bfbfbf" points="74,-492.5 74,-513.5 118,-513.5 118,-492.5 74,-492.5"/>
<text text-anchor="middle" x="96" y="-500.5" font-family="Helvetica,sans-Serif" font-size="10.00">hdf5.h</text>
</g>
<!-- Node1&#45;&gt;Node3 -->
<g id="edge4" class="edge"><title>Node1&#45;&gt;Node3</title>
<path fill="none" stroke="midnightblue" d="M333.856,-556.34C289.948,-549.449 207.25,-535.297 128.329,-514.085"/>
<polygon fill="midnightblue" stroke="midnightblue" points="128.796,-510.585 118.227,-511.325 126.951,-517.337 128.796,-510.585"/>
</g>
<!-- Node4 -->
<g id="node7" class="node"><title>Node4</title>
<polygon fill="white" stroke="#bfbfbf" points="136,-492.5 136,-513.5 192,-513.5 192,-492.5 136,-492.5"/>
<text text-anchor="middle" x="164" y="-500.5" font-family="Helvetica,sans-Serif" font-size="10.00">hdf5_hl.h</text>
</g>
<!-- Node1&#45;&gt;Node4 -->
<g id="edge6" class="edge"><title>Node1&#45;&gt;Node4</title>
<path fill="none" stroke="midnightblue" d="M333.594,-551.938C298.018,-541.672 240.054,-524.946 201.969,-513.956"/>
<polygon fill="midnightblue" stroke="midnightblue" points="202.844,-510.566 192.266,-511.156 200.903,-517.292 202.844,-510.566"/>
</g>
<!-- Node5 -->
<g id="node9" class="node"><title>Node5</title>
<a xlink:href="../../d2/d2c/configuration_8h.html" target="_top" xlink:title="blond/configuration.h">
<polygon fill="white" stroke="black" points="212.5,-58.5 212.5,-79.5 319.5,-79.5 319.5,-58.5 212.5,-58.5"/>
<text text-anchor="middle" x="266" y="-66.5" font-family="Helvetica,sans-Serif" font-size="10.00">blond/configuration.h</text>
</a>
</g>
<!-- Node1&#45;&gt;Node5 -->
<g id="edge8" class="edge"><title>Node1&#45;&gt;Node5</title>
<path fill="none" stroke="midnightblue" d="M337.634,-550.465C301.74,-535.205 239.414,-503.476 206,-456 172.559,-408.487 175,-387.102 175,-329 175,-329 175,-329 175,-192 175,-146.699 215.386,-107.168 242.349,-85.8239"/>
<polygon fill="midnightblue" stroke="midnightblue" points="244.741,-88.4007 250.563,-79.5488 240.492,-82.8381 244.741,-88.4007"/>
</g>
<!-- Node8 -->
<g id="node15" class="node"><title>Node8</title>
<a xlink:href="../../de/df0/utilities_8h.html" target="_top" xlink:title="blond/utilities.h">
<polygon fill="white" stroke="black" points="635,-116.5 635,-137.5 717,-137.5 717,-116.5 635,-116.5"/>
<text text-anchor="middle" x="676" y="-124.5" font-family="Helvetica,sans-Serif" font-size="10.00">blond/utilities.h</text>
</a>
</g>
<!-- Node1&#45;&gt;Node8 -->
<g id="edge14" class="edge"><title>Node1&#45;&gt;Node8</title>
<path fill="none" stroke="midnightblue" d="M396.207,-557.078C447.783,-548.756 549.7,-524.136 596,-456 613.76,-429.864 658.127,-215.515 671.873,-147.575"/>
<polygon fill="midnightblue" stroke="midnightblue" points="675.329,-148.142 673.875,-137.647 668.467,-146.758 675.329,-148.142"/>
</g>
<!-- Node21 -->
<g id="node43" class="node"><title>Node21</title>
<a xlink:href="../../d7/d74/Beams_8h.html" target="_top" xlink:title="blond/beams/Beams.h">
<polygon fill="white" stroke="black" points="703,-318.5 703,-339.5 817,-339.5 817,-318.5 703,-318.5"/>
<text text-anchor="middle" x="760" y="-326.5" font-family="Helvetica,sans-Serif" font-size="10.00">blond/beams/Beams.h</text>
</a>
</g>
<!-- Node1&#45;&gt;Node21 -->
<g id="edge44" class="edge"><title>Node1&#45;&gt;Node21</title>
<path fill="none" stroke="midnightblue" d="M396.12,-559.695C464.28,-556.285 624.095,-545.108 667,-514 723.276,-473.198 747.597,-388.485 756.129,-349.476"/>
<polygon fill="midnightblue" stroke="midnightblue" points="759.584,-350.052 758.17,-339.552 752.727,-348.642 759.584,-350.052"/>
</g>
<!-- Node22 -->
<g id="node47" class="node"><title>Node22</title>
<a xlink:href="../../d5/d34/GeneralParameters_8h.html" target="_top" xlink:title="blond/input_parameters\l/GeneralParameters.h">
<polygon fill="white" stroke="black" points="711,-175 711,-209 829,-209 829,-175 711,-175"/>
<text text-anchor="start" x="719" y="-196" font-family="Helvetica,sans-Serif" font-size="10.00">blond/input_parameters</text>
<text text-anchor="middle" x="770" y="-183" font-family="Helvetica,sans-Serif" font-size="10.00">/GeneralParameters.h</text>
</a>
</g>
<!-- Node1&#45;&gt;Node22 -->
<g id="edge72" class="edge"><title>Node1&#45;&gt;Node22</title>
<path fill="none" stroke="midnightblue" d="M396.089,-558.933C481.045,-553.067 715.71,-535.35 790,-514 857.822,-494.508 933,-515.567 933,-445 933,-445 933,-445 933,-329 933,-291.157 938.911,-274.487 914,-246 894.824,-224.072 865.839,-211.026 838.888,-203.275"/>
<polygon fill="midnightblue" stroke="midnightblue" points="839.637,-199.852 829.072,-200.652 837.83,-206.615 839.637,-199.852"/>
</g>
<!-- Node23 -->
<g id="node52" class="node"><title>Node23</title>
<a xlink:href="../../d6/db7/RfParameters_8h.html" target="_top" xlink:title="blond/input_parameters\l/RfParameters.h">
<polygon fill="white" stroke="black" points="787,-247 787,-281 905,-281 905,-247 787,-247"/>
<text text-anchor="start" x="795" y="-268" font-family="Helvetica,sans-Serif" font-size="10.00">blond/input_parameters</text>
<text text-anchor="middle" x="846" y="-255" font-family="Helvetica,sans-Serif" font-size="10.00">/RfParameters.h</text>
</a>
</g>
<!-- Node1&#45;&gt;Node23 -->
<g id="edge74" class="edge"><title>Node1&#45;&gt;Node23</title>
<path fill="none" stroke="midnightblue" d="M396.061,-558.659C454.643,-553.777 585.161,-540.679 692,-514 779.569,-492.133 883,-535.258 883,-445 883,-445 883,-445 883,-387 883,-352.506 869.491,-314.788 858.798,-290.337"/>
<polygon fill="midnightblue" stroke="midnightblue" points="861.896,-288.694 854.582,-281.03 855.52,-291.583 861.896,-288.694"/>
</g>
<!-- Node24 -->
<g id="node56" class="node"><title>Node24</title>
<a xlink:href="../../dc/df2/Slices_8h.html" target="_top" xlink:title="blond/beams/Slices.h">
<polygon fill="white" stroke="black" points="393,-318.5 393,-339.5 503,-339.5 503,-318.5 393,-318.5"/>
<text text-anchor="middle" x="448" y="-326.5" font-family="Helvetica,sans-Serif" font-size="10.00">blond/beams/Slices.h</text>
</a>
</g>
<!-- Node1&#45;&gt;Node24 -->
<g id="edge64" class="edge"><title>Node1&#45;&gt;Node24</title>
<path fill="none" stroke="midnightblue" d="M367.677,-550.158C371.12,-536.496 377.443,-512.34 384,-492 400.87,-439.668 406.218,-426.905 427,-376 430.65,-367.059 434.961,-357.291 438.724,-348.988"/>
<polygon fill="midnightblue" stroke="midnightblue" points="441.977,-350.29 442.961,-339.741 435.613,-347.374 441.977,-350.29"/>
</g>
<!-- Node26 -->
<g id="node64" class="node"><title>Node26</title>
<a xlink:href="../../d3/d33/PhaseLoop_8h.html" target="_top" xlink:title="blond/llrf/PhaseLoop.h">
<polygon fill="white" stroke="black" points="392.5,-492.5 392.5,-513.5 505.5,-513.5 505.5,-492.5 392.5,-492.5"/>
<text text-anchor="middle" x="449" y="-500.5" font-family="Helvetica,sans-Serif" font-size="10.00">blond/llrf/PhaseLoop.h</text>
</a>
</g>
<!-- Node1&#45;&gt;Node26 -->
<g id="edge76" class="edge"><title>Node1&#45;&gt;Node26</title>
<path fill="none" stroke="midnightblue" d="M380.407,-550.362C392.958,-541.696 410.892,-529.313 425.275,-519.382"/>
<polygon fill="midnightblue" stroke="midnightblue" points="427.45,-522.133 433.691,-513.571 423.473,-516.372 427.45,-522.133"/>
</g>
<!-- Node28 -->
<g id="node73" class="node"><title>Node28</title>
<a xlink:href="../../d4/dba/LHCNoiseFB_8h.html" target="_top" xlink:title="blond/llrf/LHCNoiseFB.h">
<polygon fill="white" stroke="black" points="214.5,-434.5 214.5,-455.5 337.5,-455.5 337.5,-434.5 214.5,-434.5"/>
<text text-anchor="middle" x="276" y="-442.5" font-family="Helvetica,sans-Serif" font-size="10.00">blond/llrf/LHCNoiseFB.h</text>
</a>
</g>
<!-- Node1&#45;&gt;Node28 -->
<g id="edge108" class="edge"><title>Node1&#45;&gt;Node28</title>
<path fill="none" stroke="midnightblue" d="M356.787,-550.295C341.686,-530.613 309.337,-488.45 290.475,-463.867"/>
<polygon fill="midnightblue" stroke="midnightblue" points="293.058,-461.483 284.194,-455.679 287.504,-465.744 293.058,-461.483"/>
</g>
<!-- Node6 -->
<g id="node11" class="node"><title>Node6</title>
<polygon fill="white" stroke="#bfbfbf" points="239.5,-0.5 239.5,-21.5 292.5,-21.5 292.5,-0.5 239.5,-0.5"/>
<text text-anchor="middle" x="266" y="-8.5" font-family="Helvetica,sans-Serif" font-size="10.00">complex</text>
</g>
<!-- Node5&#45;&gt;Node6 -->
<g id="edge10" class="edge"><title>Node5&#45;&gt;Node6</title>
<path fill="none" stroke="midnightblue" d="M266,-58.3619C266,-50.9219 266,-40.7427 266,-31.7276"/>
<polygon fill="midnightblue" stroke="midnightblue" points="269.5,-31.5706 266,-21.5707 262.5,-31.5707 269.5,-31.5706"/>
</g>
<!-- Node7 -->
<g id="node13" class="node"><title>Node7</title>
<polygon fill="white" stroke="#bfbfbf" points="1205,-0.5 1205,-21.5 1249,-21.5 1249,-0.5 1205,-0.5"/>
<text text-anchor="middle" x="1227" y="-8.5" font-family="Helvetica,sans-Serif" font-size="10.00">vector</text>
</g>
<!-- Node5&#45;&gt;Node7 -->
<g id="edge12" class="edge"><title>Node5&#45;&gt;Node7</title>
<path fill="none" stroke="midnightblue" d="M319.709,-59.053C322.508,-58.6655 325.285,-58.3106 328,-58 665.29,-19.4114 1077.45,-12.4699 1194.58,-11.2523"/>
<polygon fill="midnightblue" stroke="midnightblue" points="1194.71,-14.7513 1204.68,-11.1542 1194.64,-7.75163 1194.71,-14.7513"/>
</g>
<!-- Node8&#45;&gt;Node5 -->
<g id="edge38" class="edge"><title>Node8&#45;&gt;Node5</title>
<path fill="none" stroke="midnightblue" d="M634.916,-118.433C630.232,-117.56 625.518,-116.728 621,-116 494.633,-95.6297 459.453,-99.2696 329.664,-80.191"/>
<polygon fill="midnightblue" stroke="midnightblue" points="330.146,-76.7242 319.74,-78.7153 329.116,-83.6481 330.146,-76.7242"/>
</g>
<!-- Node8&#45;&gt;Node7 -->
<g id="edge34" class="edge"><title>Node8&#45;&gt;Node7</title>
<path fill="none" stroke="midnightblue" d="M717.313,-126.024C835.78,-122.859 1170.57,-111.214 1208,-80 1221.9,-68.4096 1226.13,-47.6729 1227.2,-31.949"/>
<polygon fill="midnightblue" stroke="midnightblue" points="1230.71,-31.6885 1227.51,-21.588 1223.71,-31.4786 1230.71,-31.6885"/>
</g>
<!-- Node9 -->
<g id="node17" class="node"><title>Node9</title>
<polygon fill="white" stroke="#bfbfbf" points="1093,-58.5 1093,-79.5 1139,-79.5 1139,-58.5 1093,-58.5"/>
<text text-anchor="middle" x="1116" y="-66.5" font-family="Helvetica,sans-Serif" font-size="10.00">chrono</text>
</g>
<!-- Node8&#45;&gt;Node9 -->
<g id="edge16" class="edge"><title>Node8&#45;&gt;Node9</title>
<path fill="none" stroke="midnightblue" d="M717.028,-125.21C789.394,-121.422 944.391,-110.476 1082.81,-79.8808"/>
<polygon fill="midnightblue" stroke="midnightblue" points="1083.76,-83.2547 1092.75,-77.6438 1082.23,-76.4256 1083.76,-83.2547"/>
</g>
<!-- Node10 -->
<g id="node19" class="node"><title>Node10</title>
<polygon fill="white" stroke="#bfbfbf" points="1156.5,-58.5 1156.5,-79.5 1199.5,-79.5 1199.5,-58.5 1156.5,-58.5"/>
<text text-anchor="middle" x="1178" y="-66.5" font-family="Helvetica,sans-Serif" font-size="10.00">cstdio</text>
</g>
<!-- Node8&#45;&gt;Node10 -->
<g id="edge18" class="edge"><title>Node8&#45;&gt;Node10</title>
<path fill="none" stroke="midnightblue" d="M717.106,-124.243C812.856,-117.613 1049.41,-99.9841 1146.47,-79.848"/>
<polygon fill="midnightblue" stroke="midnightblue" points="1147.22,-83.2662 1156.24,-77.7011 1145.72,-76.4293 1147.22,-83.2662"/>
</g>
<!-- Node11 -->
<g id="node21" class="node"><title>Node11</title>
<polygon fill="white" stroke="#bfbfbf" points="336.5,-58.5 336.5,-79.5 381.5,-79.5 381.5,-58.5 336.5,-58.5"/>
<text text-anchor="middle" x="359" y="-66.5" font-family="Helvetica,sans-Serif" font-size="10.00">cstdlib</text>
</g>
<!-- Node8&#45;&gt;Node11 -->
<g id="edge20" class="edge"><title>Node8&#45;&gt;Node11</title>
<path fill="none" stroke="midnightblue" d="M634.891,-118.579C630.211,-117.679 625.506,-116.801 621,-116 521.796,-98.3578 492.494,-105.043 391.235,-79.9859"/>
<polygon fill="midnightblue" stroke="midnightblue" points="392.089,-76.5917 381.537,-77.5447 390.38,-83.3799 392.089,-76.5917"/>
</g>
<!-- Node12 -->
<g id="node23" class="node"><title>Node12</title>
<polygon fill="white" stroke="#bfbfbf" points="399,-58.5 399,-79.5 449,-79.5 449,-58.5 399,-58.5"/>
<text text-anchor="middle" x="424" y="-66.5" font-family="Helvetica,sans-Serif" font-size="10.00">fstream</text>
</g>
<!-- Node8&#45;&gt;Node12 -->
<g id="edge22" class="edge"><title>Node8&#45;&gt;Node12</title>
<path fill="none" stroke="midnightblue" d="M634.621,-118.597C584.957,-108.428 503.665,-91.4986 458.925,-80.0289"/>
<polygon fill="midnightblue" stroke="midnightblue" points="459.729,-76.6214 449.167,-77.4537 457.943,-83.3897 459.729,-76.6214"/>
</g>
<!-- Node13 -->
<g id="node25" class="node"><title>Node13</title>
<polygon fill="white" stroke="#bfbfbf" points="467,-58.5 467,-79.5 521,-79.5 521,-58.5 467,-58.5"/>
<text text-anchor="middle" x="494" y="-66.5" font-family="Helvetica,sans-Serif" font-size="10.00">iostream</text>
</g>
<!-- Node8&#45;&gt;Node13 -->
<g id="edge24" class="edge"><title>Node8&#45;&gt;Node13</title>
<path fill="none" stroke="midnightblue" d="M643.041,-116.497C611.385,-106.408 563.646,-91.195 530.772,-80.7184"/>
<polygon fill="midnightblue" stroke="midnightblue" points="531.671,-77.3318 521.081,-77.6301 529.546,-84.0013 531.671,-77.3318"/>
</g>
<!-- Node14 -->
<g id="node27" class="node"><title>Node14</title>
<polygon fill="white" stroke="#bfbfbf" points="538.5,-58.5 538.5,-79.5 585.5,-79.5 585.5,-58.5 538.5,-58.5"/>
<text text-anchor="middle" x="562" y="-66.5" font-family="Helvetica,sans-Serif" font-size="10.00">iterator</text>
</g>
<!-- Node8&#45;&gt;Node14 -->
<g id="edge26" class="edge"><title>Node8&#45;&gt;Node14</title>
<path fill="none" stroke="midnightblue" d="M655.355,-116.497C637.63,-107.479 611.855,-94.3649 591.877,-84.2006"/>
<polygon fill="midnightblue" stroke="midnightblue" points="593.376,-81.0364 582.876,-79.6212 590.202,-87.2753 593.376,-81.0364"/>
</g>
<!-- Node15 -->
<g id="node29" class="node"><title>Node15</title>
<polygon fill="white" stroke="#bfbfbf" points="603,-58.5 603,-79.5 655,-79.5 655,-58.5 603,-58.5"/>
<text text-anchor="middle" x="629" y="-66.5" font-family="Helvetica,sans-Serif" font-size="10.00">memory</text>
</g>
<!-- Node8&#45;&gt;Node15 -->
<g id="edge28" class="edge"><title>Node8&#45;&gt;Node15</title>
<path fill="none" stroke="midnightblue" d="M667.379,-116.362C660.82,-108.268 651.634,-96.9318 643.894,-87.3796"/>
<polygon fill="midnightblue" stroke="midnightblue" points="646.581,-85.1364 637.566,-79.5707 641.142,-89.5436 646.581,-85.1364"/>
</g>
<!-- Node16 -->
<g id="node31" class="node"><title>Node16</title>
<polygon fill="white" stroke="#bfbfbf" points="673,-58.5 673,-79.5 725,-79.5 725,-58.5 673,-58.5"/>
<text text-anchor="middle" x="699" y="-66.5" font-family="Helvetica,sans-Serif" font-size="10.00">sstream</text>
</g>
<!-- Node8&#45;&gt;Node16 -->
<g id="edge30" class="edge"><title>Node8&#45;&gt;Node16</title>
<path fill="none" stroke="midnightblue" d="M680.219,-116.362C683.234,-108.758 687.383,-98.294 691.015,-89.1349"/>
<polygon fill="midnightblue" stroke="midnightblue" points="694.375,-90.1567 694.808,-79.5707 687.868,-87.5762 694.375,-90.1567"/>
</g>
<!-- Node17 -->
<g id="node33" class="node"><title>Node17</title>
<polygon fill="white" stroke="#bfbfbf" points="742.5,-58.5 742.5,-79.5 783.5,-79.5 783.5,-58.5 742.5,-58.5"/>
<text text-anchor="middle" x="763" y="-66.5" font-family="Helvetica,sans-Serif" font-size="10.00">string</text>
</g>
<!-- Node8&#45;&gt;Node17 -->
<g id="edge32" class="edge"><title>Node8&#45;&gt;Node17</title>
<path fill="none" stroke="midnightblue" d="M691.957,-116.362C704.957,-107.696 723.531,-95.3126 738.427,-85.3819"/>
<polygon fill="midnightblue" stroke="midnightblue" points="740.765,-88.0299 747.144,-79.5707 736.882,-82.2055 740.765,-88.0299"/>
</g>
<!-- Node18 -->
<g id="node36" class="node"><title>Node18</title>
<polygon fill="white" stroke="#bfbfbf" points="801,-58.5 801,-79.5 861,-79.5 861,-58.5 801,-58.5"/>
<text text-anchor="middle" x="831" y="-66.5" font-family="Helvetica,sans-Serif" font-size="10.00">sys/stat.h</text>
</g>
<!-- Node8&#45;&gt;Node18 -->
<g id="edge36" class="edge"><title>Node8&#45;&gt;Node18</title>
<path fill="none" stroke="midnightblue" d="M704.069,-116.497C729.01,-107.164 765.674,-93.4447 793.192,-83.1475"/>
<polygon fill="midnightblue" stroke="midnightblue" points="794.739,-86.3058 802.878,-79.5231 792.286,-79.7497 794.739,-86.3058"/>
</g>
<!-- Node19 -->
<g id="node39" class="node"><title>Node19</title>
<polygon fill="white" stroke="#bfbfbf" points="878.5,-58.5 878.5,-79.5 953.5,-79.5 953.5,-58.5 878.5,-58.5"/>
<text text-anchor="middle" x="916" y="-66.5" font-family="Helvetica,sans-Serif" font-size="10.00">mm_malloc.h</text>
</g>
<!-- Node8&#45;&gt;Node19 -->
<g id="edge40" class="edge"><title>Node8&#45;&gt;Node19</title>
<path fill="none" stroke="midnightblue" d="M717.257,-117.029C759.283,-106.873 824.379,-91.1417 868.523,-80.4737"/>
<polygon fill="midnightblue" stroke="midnightblue" points="869.538,-83.8291 878.436,-78.0779 867.894,-77.025 869.538,-83.8291"/>
</g>
<!-- Node20 -->
<g id="node41" class="node"><title>Node20</title>
<a xlink:href="../../da/d69/optionparser_8h.html" target="_top" xlink:title="This is the only file required to use The Lean Mean C++ Option Parser. Just #include it and you&#39;re se...">
<polygon fill="white" stroke="black" points="971,-58.5 971,-79.5 1075,-79.5 1075,-58.5 971,-58.5"/>
<text text-anchor="middle" x="1023" y="-66.5" font-family="Helvetica,sans-Serif" font-size="10.00">blond/optionparser.h</text>
</a>
</g>
<!-- Node8&#45;&gt;Node20 -->
<g id="edge42" class="edge"><title>Node8&#45;&gt;Node20</title>
<path fill="none" stroke="midnightblue" d="M717.238,-120.429C770.9,-111.833 867.851,-96.149 960.642,-80.2165"/>
<polygon fill="midnightblue" stroke="midnightblue" points="961.504,-83.6196 970.766,-78.4743 960.317,-76.721 961.504,-83.6196"/>
</g>
<!-- Node21&#45;&gt;Node5 -->
<g id="edge46" class="edge"><title>Node21&#45;&gt;Node5</title>
<path fill="none" stroke="midnightblue" d="M740.733,-318.298C683.552,-286.615 509.658,-190.833 363,-116 341.326,-104.941 316.644,-92.9902 297.602,-83.9073"/>
<polygon fill="midnightblue" stroke="midnightblue" points="299.009,-80.7009 288.475,-79.5673 296.003,-87.0225 299.009,-80.7009"/>
</g>
<!-- Node21&#45;&gt;Node8 -->
<g id="edge48" class="edge"><title>Node21&#45;&gt;Node8</title>
<path fill="none" stroke="midnightblue" d="M754.169,-318.415C743.034,-297.923 718.393,-251.217 702,-210 693.714,-189.167 686.294,-164.58 681.522,-147.601"/>
<polygon fill="midnightblue" stroke="midnightblue" points="684.814,-146.371 678.786,-137.658 678.065,-148.229 684.814,-146.371"/>
</g>
<!-- Node21&#45;&gt;Node22 -->
<g id="edge50" class="edge"><title>Node21&#45;&gt;Node22</title>
<path fill="none" stroke="midnightblue" d="M760.785,-318.25C762.318,-297.239 765.757,-250.131 767.973,-219.776"/>
<polygon fill="midnightblue" stroke="midnightblue" points="771.49,-219.658 768.728,-209.429 764.509,-219.148 771.49,-219.658"/>
</g>
<!-- Node21&#45;&gt;Node23 -->
<g id="edge58" class="edge"><title>Node21&#45;&gt;Node23</title>
<path fill="none" stroke="midnightblue" d="M769.035,-318.267C778.722,-309.827 794.241,-297.762 808.874,-287.151"/>
<polygon fill="midnightblue" stroke="midnightblue" points="811.231,-289.769 817.336,-281.11 807.163,-284.072 811.231,-289.769"/>
</g>
<!-- Node22&#45;&gt;Node5 -->
<g id="edge52" class="edge"><title>Node22&#45;&gt;Node5</title>
<path fill="none" stroke="midnightblue" d="M720.454,-175C692.42,-164.989 656.897,-151.644 626,-138 606.362,-129.328 603.466,-122.479 583,-116 476.97,-82.4353 442.955,-97.1041 329.844,-80.215"/>
<polygon fill="midnightblue" stroke="midnightblue" points="330.166,-76.7233 319.749,-78.6559 329.098,-83.6413 330.166,-76.7233"/>
</g>
<!-- Node22&#45;&gt;Node7 -->
<g id="edge56" class="edge"><title>Node22&#45;&gt;Node7</title>
<path fill="none" stroke="midnightblue" d="M829.387,-186.418C941.846,-174.49 1179.04,-142.378 1228,-80 1238.6,-66.5015 1237.02,-46.5076 1233.58,-31.5125"/>
<polygon fill="midnightblue" stroke="midnightblue" points="1236.89,-30.3696 1230.89,-21.6415 1230.14,-32.2099 1236.89,-30.3696"/>
</g>
<!-- Node22&#45;&gt;Node8 -->
<g id="edge54" class="edge"><title>Node22&#45;&gt;Node8</title>
<path fill="none" stroke="midnightblue" d="M745.303,-174.922C731.291,-165.233 713.838,-153.165 699.952,-143.562"/>
<polygon fill="midnightblue" stroke="midnightblue" points="701.629,-140.467 691.414,-137.658 697.648,-146.225 701.629,-140.467"/>
</g>
<!-- Node23&#45;&gt;Node21 -->
<g id="edge60" class="edge"><title>Node23&#45;&gt;Node21</title>
<path fill="none" stroke="midnightblue" d="M829.389,-281.11C817.588,-290.771 801.667,-302.791 787.977,-312.372"/>
<polygon fill="midnightblue" stroke="midnightblue" points="785.641,-309.729 779.367,-318.267 789.596,-315.505 785.641,-309.729"/>
</g>
<!-- Node23&#45;&gt;Node22 -->
<g id="edge62" class="edge"><title>Node23&#45;&gt;Node22</title>
<path fill="none" stroke="midnightblue" d="M827.989,-246.937C818.311,-237.768 806.214,-226.308 795.577,-216.231"/>
<polygon fill="midnightblue" stroke="midnightblue" points="797.812,-213.527 788.145,-209.19 792.997,-218.608 797.812,-213.527"/>
</g>
<!-- Node24&#45;&gt;Node5 -->
<g id="edge66" class="edge"><title>Node24&#45;&gt;Node5</title>
<path fill="none" stroke="midnightblue" d="M441.852,-318.258C436.48,-308.786 428.541,-294.575 422,-282 384.119,-209.17 395.897,-177.037 341,-116 329.283,-102.973 313.125,-92.2261 298.806,-84.313"/>
<polygon fill="midnightblue" stroke="midnightblue" points="300.206,-81.0943 289.728,-79.5267 296.941,-87.2864 300.206,-81.0943"/>
</g>
<!-- Node24&#45;&gt;Node8 -->
<g id="edge68" class="edge"><title>Node24&#45;&gt;Node8</title>
<path fill="none" stroke="midnightblue" d="M454.384,-318.375C459.907,-308.979 467.936,-294.811 474,-282 496.104,-235.303 478.835,-208.823 517,-174 532.927,-159.468 584.66,-145.849 624.84,-137.051"/>
<polygon fill="midnightblue" stroke="midnightblue" points="625.733,-140.439 634.777,-134.921 624.266,-133.595 625.733,-140.439"/>
</g>
<!-- Node25 -->
<g id="node60" class="node"><title>Node25</title>
<polygon fill="white" stroke="#bfbfbf" points="430.5,-253.5 430.5,-274.5 465.5,-274.5 465.5,-253.5 430.5,-253.5"/>
<text text-anchor="middle" x="448" y="-261.5" font-family="Helvetica,sans-Serif" font-size="10.00">map</text>
</g>
<!-- Node24&#45;&gt;Node25 -->
<g id="edge70" class="edge"><title>Node24&#45;&gt;Node25</title>
<path fill="none" stroke="midnightblue" d="M448,-318.267C448,-309.18 448,-295.892 448,-284.74"/>
<polygon fill="midnightblue" stroke="midnightblue" points="451.5,-284.534 448,-274.534 444.5,-284.534 451.5,-284.534"/>
</g>
<!-- Node26&#45;&gt;Node5 -->
<g id="edge78" class="edge"><title>Node26&#45;&gt;Node5</title>
<path fill="none" stroke="midnightblue" d="M434.801,-492.343C395.643,-461.618 289,-368.359 289,-264 289,-264 289,-264 289,-192 289,-155.452 279.067,-113.821 272.256,-89.571"/>
<polygon fill="midnightblue" stroke="midnightblue" points="275.548,-88.3569 269.394,-79.733 268.827,-90.3127 275.548,-88.3569"/>
</g>
<!-- Node26&#45;&gt;Node8 -->
<g id="edge106" class="edge"><title>Node26&#45;&gt;Node8</title>
<path fill="none" stroke="midnightblue" d="M449.537,-492.436C450.493,-478.653 453.092,-453.945 460,-434 460.677,-432.046 603.595,-175.516 605,-174 616.593,-161.491 632.158,-150.71 645.759,-142.641"/>
<polygon fill="midnightblue" stroke="midnightblue" points="647.831,-145.49 654.789,-137.501 644.367,-139.406 647.831,-145.49"/>
</g>
<!-- Node27 -->
<g id="node67" class="node"><title>Node27</title>
<a xlink:href="../../d5/d87/globals_8h.html" target="_top" xlink:title="blond/globals.h">
<polygon fill="white" stroke="black" points="635,-376.5 635,-397.5 717,-397.5 717,-376.5 635,-376.5"/>
<text text-anchor="middle" x="676" y="-384.5" font-family="Helvetica,sans-Serif" font-size="10.00">blond/globals.h</text>
</a>
</g>
<!-- Node26&#45;&gt;Node27 -->
<g id="edge80" class="edge"><title>Node26&#45;&gt;Node27</title>
<path fill="none" stroke="midnightblue" d="M498.692,-492.421C528.178,-484.876 565.611,-473.022 596,-456 620.392,-442.338 644.099,-420.482 659.29,-405.034"/>
<polygon fill="midnightblue" stroke="midnightblue" points="662.011,-407.254 666.415,-397.618 656.963,-402.404 662.011,-407.254"/>
</g>
<!-- Node26&#45;&gt;Node28 -->
<g id="edge90" class="edge"><title>Node26&#45;&gt;Node28</title>
<path fill="none" stroke="midnightblue" d="M417.671,-492.497C389.467,-483.041 347.833,-469.083 316.991,-458.743"/>
<polygon fill="midnightblue" stroke="midnightblue" points="317.982,-455.383 307.388,-455.523 315.757,-462.02 317.982,-455.383"/>
</g>
<!-- Node30 -->
<g id="node79" class="node"><title>Node30</title>
<a xlink:href="../../d9/dc8/PhaseNoise_8h.html" target="_top" xlink:title="blond/llrf/PhaseNoise.h">
<polygon fill="white" stroke="black" points="469,-434.5 469,-455.5 587,-455.5 587,-434.5 469,-434.5"/>
<text text-anchor="middle" x="528" y="-442.5" font-family="Helvetica,sans-Serif" font-size="10.00">blond/llrf/PhaseNoise.h</text>
</a>
</g>
<!-- Node26&#45;&gt;Node30 -->
<g id="edge98" class="edge"><title>Node26&#45;&gt;Node30</title>
<path fill="none" stroke="midnightblue" d="M463.49,-492.362C475.183,-483.777 491.843,-471.546 505.303,-461.664"/>
<polygon fill="midnightblue" stroke="midnightblue" points="507.613,-464.31 513.602,-455.571 503.47,-458.667 507.613,-464.31"/>
</g>
<!-- Node27&#45;&gt;Node21 -->
<g id="edge82" class="edge"><title>Node27&#45;&gt;Node21</title>
<path fill="none" stroke="midnightblue" d="M691.407,-376.362C703.958,-367.696 721.892,-355.313 736.275,-345.382"/>
<polygon fill="midnightblue" stroke="midnightblue" points="738.45,-348.133 744.691,-339.571 734.473,-342.372 738.45,-348.133"/>
</g>
<!-- Node27&#45;&gt;Node22 -->
<g id="edge86" class="edge"><title>Node27&#45;&gt;Node22</title>
<path fill="none" stroke="midnightblue" d="M677.782,-376.407C680.324,-362.592 685.632,-337.85 694,-318 709.556,-281.101 734.555,-242.149 751.602,-217.493"/>
<polygon fill="midnightblue" stroke="midnightblue" points="754.62,-219.285 757.49,-209.086 748.886,-215.269 754.62,-219.285"/>
</g>
<!-- Node27&#45;&gt;Node23 -->
<g id="edge88" class="edge"><title>Node27&#45;&gt;Node23</title>
<path fill="none" stroke="midnightblue" d="M717.101,-378.791C756.099,-370.203 810.924,-355.791 826,-340 838.325,-327.091 843.276,-307.53 845.171,-291.487"/>
<polygon fill="midnightblue" stroke="midnightblue" points="848.697,-291.325 846.048,-281.066 841.722,-290.738 848.697,-291.325"/>
</g>
<!-- Node27&#45;&gt;Node24 -->
<g id="edge84" class="edge"><title>Node27&#45;&gt;Node24</title>
<path fill="none" stroke="midnightblue" d="M634.975,-376.564C596.955,-366.892 540.253,-352.468 499.264,-342.041"/>
<polygon fill="midnightblue" stroke="midnightblue" points="500.019,-338.622 489.465,-339.548 498.294,-345.406 500.019,-338.622"/>
</g>
<!-- Node28&#45;&gt;Node5 -->
<g id="edge92" class="edge"><title>Node28&#45;&gt;Node5</title>
<path fill="none" stroke="midnightblue" d="M263.027,-434.311C253.165,-425.523 239.975,-412.238 232,-398 216.456,-370.249 213,-360.808 213,-329 213,-329 213,-329 213,-192 213,-152.382 236.477,-111.015 252.181,-87.7769"/>
<polygon fill="midnightblue" stroke="midnightblue" points="255.087,-89.7282 257.95,-79.5275 249.351,-85.7162 255.087,-89.7282"/>
</g>
<!-- Node28&#45;&gt;Node8 -->
<g id="edge94" class="edge"><title>Node28&#45;&gt;Node8</title>
<path fill="none" stroke="midnightblue" d="M283.184,-434.317C303.726,-403.974 364.911,-315.001 422,-246 449.865,-212.321 451.369,-196.241 489,-174 530.886,-149.244 585.49,-137.448 624.868,-131.877"/>
<polygon fill="midnightblue" stroke="midnightblue" points="625.335,-135.345 634.787,-130.559 624.413,-128.406 625.335,-135.345"/>
</g>
<!-- Node29 -->
<g id="node77" class="node"><title>Node29</title>
<polygon fill="white" stroke="#bfbfbf" points="240.5,-376.5 240.5,-397.5 299.5,-397.5 299.5,-376.5 240.5,-376.5"/>
<text text-anchor="middle" x="270" y="-384.5" font-family="Helvetica,sans-Serif" font-size="10.00">functional</text>
</g>
<!-- Node28&#45;&gt;Node29 -->
<g id="edge96" class="edge"><title>Node28&#45;&gt;Node29</title>
<path fill="none" stroke="midnightblue" d="M274.9,-434.362C274.13,-426.922 273.077,-416.743 272.144,-407.728"/>
<polygon fill="midnightblue" stroke="midnightblue" points="275.604,-407.157 271.094,-397.571 268.641,-407.878 275.604,-407.157"/>
</g>
<!-- Node30&#45;&gt;Node5 -->
<g id="edge100" class="edge"><title>Node30&#45;&gt;Node5</title>
<path fill="none" stroke="midnightblue" d="M506.04,-434.374C474.722,-418.169 417.339,-384.418 384,-340 320.45,-255.332 354.398,-208.55 303,-116 297.404,-105.923 289.704,-95.748 282.778,-87.4552"/>
<polygon fill="midnightblue" stroke="midnightblue" points="285.402,-85.1396 276.215,-79.8628 280.106,-89.7171 285.402,-85.1396"/>
</g>
<!-- Node30&#45;&gt;Node8 -->
<g id="edge104" class="edge"><title>Node30&#45;&gt;Node8</title>
<path fill="none" stroke="midnightblue" d="M529.944,-434.481C537.395,-396.327 566.98,-262.801 631,-174 638.486,-163.616 648.161,-153.217 656.621,-144.85"/>
<polygon fill="midnightblue" stroke="midnightblue" points="659.173,-147.252 663.951,-137.796 654.319,-142.208 659.173,-147.252"/>
</g>
<!-- Node30&#45;&gt;Node27 -->
<g id="edge102" class="edge"><title>Node30&#45;&gt;Node27</title>
<path fill="none" stroke="midnightblue" d="M554.802,-434.497C578.438,-425.234 613.1,-411.65 639.308,-401.379"/>
<polygon fill="midnightblue" stroke="midnightblue" points="640.864,-404.529 648.898,-397.621 638.31,-398.011 640.864,-404.529"/>
</g>
</g>
</svg>
        <g id="navigator" transform="translate(0 0)" fill="#404254">
                <rect fill="#f2f5e9" fill-opacity="0.5" stroke="#606060" stroke-width=".5" x="0" y="0" width="60" height="60"/>
                <use id="zoomplus" xlink:href="#zoomPlus" x="17" y="9" onmousedown="handleZoom(evt,'in')"/>
                <use id="zoomminus" xlink:href="#zoomMin" x="42" y="9" onmousedown="handleZoom(evt,'out')"/>
                <use id="reset" xlink:href="#resetDef" x="30" y="36" onmousedown="handleReset()"/>
                <g id="arrowUp" xlink:href="#dirArrow" transform="translate(30 24)" onmousedown="handlePan(0,-1)">
                  <use xlink:href="#rim" fill="#404040">
                        <set attributeName="fill" to="#808080" begin="arrowUp.mouseover" end="arrowUp.mouseout"/>
                  </use>
                  <path fill="none" stroke="white" stroke-width="1.5" d="M0,-3.0v7 M-2.5,-0.5L0,-3.0L2.5,-0.5"/>
                </g>
                <g id="arrowRight" xlink:href="#dirArrow" transform="rotate(90) translate(36 -43)" onmousedown="handlePan(1,0)">
                  <use xlink:href="#rim" fill="#404040">
                        <set attributeName="fill" to="#808080" begin="arrowRight.mouseover" end="arrowRight.mouseout"/>
                  </use>
                  <path fill="none" stroke="white" stroke-width="1.5" d="M0,-3.0v7 M-2.5,-0.5L0,-3.0L2.5,-0.5"/>
                </g>
                <g id="arrowDown" xlink:href="#dirArrow" transform="rotate(180) translate(-30 -48)" onmousedown="handlePan(0,1)">
                  <use xlink:href="#rim" fill="#404040">
                        <set attributeName="fill" to="#808080" begin="arrowDown.mouseover" end="arrowDown.mouseout"/>
                  </use>
                  <path fill="none" stroke="white" stroke-width="1.5" d="M0,-3.0v7 M-2.5,-0.5L0,-3.0L2.5,-0.5"/>
                </g>
                <g id="arrowLeft" xlink:href="#dirArrow" transform="rotate(270) translate(-36 17)" onmousedown="handlePan(-1,0)">
                  <use xlink:href="#rim" fill="#404040">
                        <set attributeName="fill" to="#808080" begin="arrowLeft.mouseover" end="arrowLeft.mouseout"/>
                  </use>
                  <path fill="none" stroke="white" stroke-width="1.5" d="M0,-3.0v7 M-2.5,-0.5L0,-3.0L2.5,-0.5"/>
                </g>
        </g>
        <svg viewBox="0 0 15 15" width="100%" height="30px" preserveAspectRatio="xMaxYMin meet">
         <g id="arrow_out" transform="scale(0.3 0.3)">
          <a xlink:href="Monitors_8h__incl_org.svg" target="_base">
           <rect id="button" ry="5" rx="5" y="6" x="6" height="38" width="38"
                fill="#f2f5e9" fill-opacity="0.5" stroke="#606060" stroke-width="1.0"/>
           <path id="arrow"
             d="M 11.500037,31.436501 C 11.940474,20.09759 22.043105,11.32322 32.158766,21.979434 L 37.068811,17.246167 C 37.068811,17.246167 37.088388,32 37.088388,32 L 22.160133,31.978069 C 22.160133,31.978069 26.997745,27.140456 26.997745,27.140456 C 18.528582,18.264221 13.291696,25.230495 11.500037,31.436501 z"
             style="fill:#404040;"/>
          </a>
         </g>
        </svg>
</svg>
