<?xml version="1.0" encoding="UTF-8" standalone="no"?>
<!DOCTYPE svg PUBLIC "-//W3C//DTD SVG 1.1//EN"
 "http://www.w3.org/Graphics/SVG/1.1/DTD/svg11.dtd">
<!-- Generated by graphviz version 2.26.3 (20100126.1600)
 -->
<!-- Title: Monitors.h Pages: 1 -->
<!--zoomable 580 -->
<svg id="main" version="1.1" xmlns="http://www.w3.org/2000/svg" xmlns:xlink="http://www.w3.org/1999/xlink" xml:space="preserve" onload="init(evt)">
        <defs>
                <circle id="rim" cx="0" cy="0" r="7"/>
                <circle id="rim2" cx="0" cy="0" r="3.5"/>
                <g id="zoomPlus">
                        <use xlink:href="#rim" fill="#404040">
                                <set attributeName="fill" to="#808080" begin="zoomplus.mouseover" end="zoomplus.mouseout"/>
                        </use>
                        <path d="M-4,0h8M0,-4v8" fill="none" stroke="white" stroke-width="1.5" pointer-events="none"/>
                </g>
                <g id="zoomMin">
                        <use xlink:href="#rim" fill="#404040">
                                <set attributeName="fill" to="#808080" begin="zoomminus.mouseover" end="zoomminus.mouseout"/>
                        </use>
                        <path d="M-4,0h8" fill="none" stroke="white" stroke-width="1.5" pointer-events="none"/>
                </g>
                <g id="dirArrow">
                        <path fill="none" stroke="white" stroke-width="1.5" d="M0,-3.0v7 M-2.5,-0.5L0,-3.0L2.5,-0.5"/>
                </g>
               <g id="resetDef">
                       <use xlink:href="#rim2" fill="#404040">
                               <set attributeName="fill" to="#808080" begin="reset.mouseover" end="reset.mouseout"/>
                       </use>
               </g>
        </defs>

<script type="text/javascript">
var viewWidth = 1420;
var viewHeight = 580;
var sectionId = 'dynsection-0';
</script>
<script xlink:href="../../svgpan.js"/>
<svg id="graph" class="graph">
<g id="viewport">
<title>Monitors.h</title>
<polygon fill="white" stroke="white" points="-4,5 -4,-576 1417,-576 1417,5 -4,5"/>
<!-- Node1 -->
<g id="node1" class="node"><title>Node1</title>
<polygon fill="#bfbfbf" stroke="black" points="311,-550.5 311,-571.5 373,-571.5 373,-550.5 311,-550.5"/>
<text text-anchor="middle" x="342" y="-558.5" font-family="Helvetica,sans-Serif" font-size="10.00">Monitors.h</text>
</g>
<!-- Node2 -->
<g id="node3" class="node"><title>Node2</title>
<polygon fill="white" stroke="#bfbfbf" points="0,-492.5 0,-513.5 56,-513.5 56,-492.5 0,-492.5"/>
<text text-anchor="middle" x="28" y="-500.5" font-family="Helvetica,sans-Serif" font-size="10.00">H5Cpp.h</text>
</g>
<!-- Node1&#45;&gt;Node2 -->
<g id="edge2" class="edge"><title>Node1&#45;&gt;Node2</title>
<path fill="none" stroke="midnightblue" d="M310.599,-556.934C260.746,-550.206 160.303,-535.546 66.157,-514.068"/>
<polygon fill="midnightblue" stroke="midnightblue" points="66.7194,-510.606 56.1879,-511.763 65.142,-517.426 66.7194,-510.606"/>
</g>
<!-- Node3 -->
<g id="node5" class="node"><title>Node3</title>
<polygon fill="white" stroke="#bfbfbf" points="74,-492.5 74,-513.5 118,-513.5 118,-492.5 74,-492.5"/>
<text text-anchor="middle" x="96" y="-500.5" font-family="Helvetica,sans-Serif" font-size="10.00">hdf5.h</text>
</g>
<!-- Node1&#45;&gt;Node3 -->
<g id="edge4" class="edge"><title>Node1&#45;&gt;Node3</title>
<path fill="none" stroke="midnightblue" d="M310.719,-555.441C270.488,-548.015 198.336,-533.764 128.132,-514.083"/>
<polygon fill="midnightblue" stroke="midnightblue" points="128.819,-510.639 118.243,-511.27 126.904,-517.372 128.819,-510.639"/>
</g>
<!-- Node4 -->
<g id="node7" class="node"><title>Node4</title>
<polygon fill="white" stroke="#bfbfbf" points="136,-492.5 136,-513.5 192,-513.5 192,-492.5 136,-492.5"/>
<text text-anchor="middle" x="164" y="-500.5" font-family="Helvetica,sans-Serif" font-size="10.00">hdf5_hl.h</text>
</g>
<!-- Node1&#45;&gt;Node4 -->
<g id="edge6" class="edge"><title>Node1&#45;&gt;Node4</title>
<path fill="none" stroke="midnightblue" d="M310.995,-550.897C280.575,-540.985 234.143,-525.856 201.626,-515.26"/>
<polygon fill="midnightblue" stroke="midnightblue" points="202.607,-511.899 192.014,-512.128 200.438,-518.554 202.607,-511.899"/>
</g>
<!-- Node5 -->
<g id="node9" class="node"><title>Node5</title>
<a xlink:href="../../d2/d2c/configuration_8h.html" target="_top" xlink:title="blond/configuration.h">
<polygon fill="white" stroke="black" points="427.5,-58.5 427.5,-79.5 534.5,-79.5 534.5,-58.5 427.5,-58.5"/>
<text text-anchor="middle" x="481" y="-66.5" font-family="Helvetica,sans-Serif" font-size="10.00">blond/configuration.h</text>
</a>
</g>
<!-- Node1&#45;&gt;Node5 -->
<g id="edge8" class="edge"><title>Node1&#45;&gt;Node5</title>
<path fill="none" stroke="midnightblue" d="M319.789,-550.499C305.201,-542.484 286.871,-530.083 276,-514 190.636,-387.716 152.925,-304.915 231,-174 269.35,-109.694 356.546,-84.7635 417.091,-75.1032"/>
<polygon fill="midnightblue" stroke="midnightblue" points="417.944,-78.5147 427.316,-73.5752 416.909,-71.5916 417.944,-78.5147"/>
</g>
<!-- Node8 -->
<g id="node15" class="node"><title>Node8</title>
<a xlink:href="../../de/df0/utilities_8h.html" target="_top" xlink:title="blond/utilities.h">
<polygon fill="white" stroke="black" points="800,-116.5 800,-137.5 882,-137.5 882,-116.5 800,-116.5"/>
<text text-anchor="middle" x="841" y="-124.5" font-family="Helvetica,sans-Serif" font-size="10.00">blond/utilities.h</text>
</a>
</g>
<!-- Node1&#45;&gt;Node8 -->
<g id="edge14" class="edge"><title>Node1&#45;&gt;Node8</title>
<path fill="none" stroke="midnightblue" d="M373.198,-558.197C494.76,-546.866 930,-502.293 930,-445 930,-445 930,-445 930,-264 930,-214.134 888.023,-168.145 861.726,-144.227"/>
<polygon fill="midnightblue" stroke="midnightblue" points="863.948,-141.52 854.132,-137.533 859.319,-146.771 863.948,-141.52"/>
</g>
<!-- Node20 -->
<g id="node41" class="node"><title>Node20</title>
<a xlink:href="../../d7/d74/Beams_8h.html" target="_top" xlink:title="blond/beams/Beams.h">
<polygon fill="white" stroke="black" points="535,-318.5 535,-339.5 649,-339.5 649,-318.5 535,-318.5"/>
<text text-anchor="middle" x="592" y="-326.5" font-family="Helvetica,sans-Serif" font-size="10.00">blond/beams/Beams.h</text>
</a>
</g>
<!-- Node1&#45;&gt;Node20 -->
<g id="edge42" class="edge"><title>Node1&#45;&gt;Node20</title>
<path fill="none" stroke="midnightblue" d="M373.264,-557.134C427.319,-550.021 535.577,-533.763 568,-514 596.331,-496.731 603.919,-487.274 615,-456 627.891,-419.616 613.018,-374.692 601.91,-349.196"/>
<polygon fill="midnightblue" stroke="midnightblue" points="604.967,-347.466 597.615,-339.837 598.605,-350.385 604.967,-347.466"/>
</g>
<!-- Node21 -->
<g id="node45" class="node"><title>Node21</title>
<a xlink:href="../../d5/d34/GeneralParameters_8h.html" target="_top" xlink:title="blond/input_parameters\l/GeneralParameters.h">
<polygon fill="white" stroke="black" points="446,-175 446,-209 564,-209 564,-175 446,-175"/>
<text text-anchor="start" x="454" y="-196" font-family="Helvetica,sans-Serif" font-size="10.00">blond/input_parameters</text>
<text text-anchor="middle" x="505" y="-183" font-family="Helvetica,sans-Serif" font-size="10.00">/GeneralParameters.h</text>
</a>
</g>
<!-- Node1&#45;&gt;Node21 -->
<g id="edge68" class="edge"><title>Node1&#45;&gt;Node21</title>
<path fill="none" stroke="midnightblue" d="M342,-550.444C342,-530.062 342,-483.868 342,-445 342,-445 342,-445 342,-387 342,-309.531 418.669,-246.602 466.843,-214.708"/>
<polygon fill="midnightblue" stroke="midnightblue" points="468.988,-217.489 475.482,-209.118 465.185,-211.612 468.988,-217.489"/>
</g>
<!-- Node22 -->
<g id="node50" class="node"><title>Node22</title>
<a xlink:href="../../d6/db7/RfParameters_8h.html" target="_top" xlink:title="blond/input_parameters\l/RfParameters.h">
<polygon fill="white" stroke="black" points="446,-247 446,-281 564,-281 564,-247 446,-247"/>
<text text-anchor="start" x="454" y="-268" font-family="Helvetica,sans-Serif" font-size="10.00">blond/input_parameters</text>
<text text-anchor="middle" x="505" y="-255" font-family="Helvetica,sans-Serif" font-size="10.00">/RfParameters.h</text>
</a>
</g>
<!-- Node1&#45;&gt;Node22 -->
<g id="edge70" class="edge"><title>Node1&#45;&gt;Node22</title>
<path fill="none" stroke="midnightblue" d="M348.105,-550.191C358.847,-530.127 380,-485.477 380,-445 380,-445 380,-445 380,-387 380,-341.11 423.332,-306.619 458.971,-286.012"/>
<polygon fill="midnightblue" stroke="midnightblue" points="460.802,-288.998 467.834,-281.074 457.395,-282.883 460.802,-288.998"/>
</g>
<!-- Node23 -->
<g id="node54" class="node"><title>Node23</title>
<a xlink:href="../../dc/df2/Slices_8h.html" target="_top" xlink:title="blond/beams/Slices.h">
<polygon fill="white" stroke="black" points="242,-253.5 242,-274.5 352,-274.5 352,-253.5 242,-253.5"/>
<text text-anchor="middle" x="297" y="-261.5" font-family="Helvetica,sans-Serif" font-size="10.00">blond/beams/Slices.h</text>
</a>
</g>
<!-- Node1&#45;&gt;Node23 -->
<g id="edge62" class="edge"><title>Node1&#45;&gt;Node23</title>
<path fill="none" stroke="midnightblue" d="M328.762,-550.375C306.987,-531.606 266,-490.263 266,-445 266,-445 266,-445 266,-387 266,-349.785 279.509,-308.104 288.691,-284.07"/>
<polygon fill="midnightblue" stroke="midnightblue" points="292.001,-285.218 292.426,-274.631 285.492,-282.642 292.001,-285.218"/>
</g>
<!-- Node24 -->
<g id="node60" class="node"><title>Node24</title>
<a xlink:href="../../d3/d33/PhaseLoop_8h.html" target="_top" xlink:title="blond/llrf/PhaseLoop.h">
<polygon fill="white" stroke="black" points="446.5,-492.5 446.5,-513.5 559.5,-513.5 559.5,-492.5 446.5,-492.5"/>
<text text-anchor="middle" x="503" y="-500.5" font-family="Helvetica,sans-Serif" font-size="10.00">blond/llrf/PhaseLoop.h</text>
</a>
</g>
<!-- Node1&#45;&gt;Node24 -->
<g id="edge72" class="edge"><title>Node1&#45;&gt;Node24</title>
<path fill="none" stroke="midnightblue" d="M371.156,-550.497C397.176,-541.123 435.479,-527.324 464.104,-517.012"/>
<polygon fill="midnightblue" stroke="midnightblue" points="465.568,-520.205 473.789,-513.523 463.195,-513.62 465.568,-520.205"/>
</g>
<!-- Node26 -->
<g id="node69" class="node"><title>Node26</title>
<a xlink:href="../../d4/dba/LHCNoiseFB_8h.html" target="_top" xlink:title="blond/llrf/LHCNoiseFB.h">
<polygon fill="white" stroke="black" points="716.5,-434.5 716.5,-455.5 839.5,-455.5 839.5,-434.5 716.5,-434.5"/>
<text text-anchor="middle" x="778" y="-442.5" font-family="Helvetica,sans-Serif" font-size="10.00">blond/llrf/LHCNoiseFB.h</text>
</a>
</g>
<!-- Node1&#45;&gt;Node26 -->
<g id="edge104" class="edge"><title>Node1&#45;&gt;Node26</title>
<path fill="none" stroke="midnightblue" d="M373.123,-558.758C446.71,-553.137 629.474,-537.212 686,-514 714.886,-502.138 742.817,-479.015 760.177,-462.818"/>
<polygon fill="midnightblue" stroke="midnightblue" points="763.011,-464.95 767.808,-455.503 758.167,-459.897 763.011,-464.95"/>
</g>
<!-- Node6 -->
<g id="node11" class="node"><title>Node6</title>
<polygon fill="white" stroke="#bfbfbf" points="454.5,-0.5 454.5,-21.5 507.5,-21.5 507.5,-0.5 454.5,-0.5"/>
<text text-anchor="middle" x="481" y="-8.5" font-family="Helvetica,sans-Serif" font-size="10.00">complex</text>
</g>
<!-- Node5&#45;&gt;Node6 -->
<g id="edge10" class="edge"><title>Node5&#45;&gt;Node6</title>
<path fill="none" stroke="midnightblue" d="M481,-58.3619C481,-50.9219 481,-40.7427 481,-31.7276"/>
<polygon fill="midnightblue" stroke="midnightblue" points="484.5,-31.5706 481,-21.5707 477.5,-31.5707 484.5,-31.5706"/>
</g>
<!-- Node7 -->
<g id="node13" class="node"><title>Node7</title>
<polygon fill="white" stroke="#bfbfbf" points="540,-0.5 540,-21.5 584,-21.5 584,-0.5 540,-0.5"/>
<text text-anchor="middle" x="562" y="-8.5" font-family="Helvetica,sans-Serif" font-size="10.00">vector</text>
</g>
<!-- Node5&#45;&gt;Node7 -->
<g id="edge12" class="edge"><title>Node5&#45;&gt;Node7</title>
<path fill="none" stroke="midnightblue" d="M495.857,-58.3619C507.846,-49.7773 524.927,-37.5459 538.728,-27.6636"/>
<polygon fill="midnightblue" stroke="midnightblue" points="541.145,-30.2383 547.238,-21.5707 537.069,-24.5469 541.145,-30.2383"/>
</g>
<!-- Node8&#45;&gt;Node5 -->
<g id="edge36" class="edge"><title>Node8&#45;&gt;Node5</title>
<path fill="none" stroke="midnightblue" d="M799.703,-120.347C737.261,-110.286 618.313,-91.1226 544.714,-79.265"/>
<polygon fill="midnightblue" stroke="midnightblue" points="545.07,-75.7773 534.64,-77.6421 543.956,-82.6882 545.07,-75.7773"/>
</g>
<!-- Node8&#45;&gt;Node7 -->
<g id="edge34" class="edge"><title>Node8&#45;&gt;Node7</title>
<path fill="none" stroke="midnightblue" d="M882.041,-126.051C992.525,-123.075 1289.88,-112.126 1319,-80 1325.57,-72.7557 1325.7,-65.1249 1319,-58 1293.81,-31.2022 735.963,-15.3798 594.42,-11.7875"/>
<polygon fill="midnightblue" stroke="midnightblue" points="594.307,-8.28362 584.222,-11.5316 594.131,-15.2814 594.307,-8.28362"/>
</g>
<!-- Node9 -->
<g id="node17" class="node"><title>Node9</title>
<polygon fill="white" stroke="#bfbfbf" points="1366,-58.5 1366,-79.5 1412,-79.5 1412,-58.5 1366,-58.5"/>
<text text-anchor="middle" x="1389" y="-66.5" font-family="Helvetica,sans-Serif" font-size="10.00">chrono</text>
</g>
<!-- Node8&#45;&gt;Node9 -->
<g id="edge16" class="edge"><title>Node8&#45;&gt;Node9</title>
<path fill="none" stroke="midnightblue" d="M882.122,-125.963C969.428,-123.163 1179.44,-113.248 1352,-80 1353.26,-79.7575 1354.54,-79.4899 1355.82,-79.2022"/>
<polygon fill="midnightblue" stroke="midnightblue" points="1356.86,-82.5498 1365.68,-76.689 1355.13,-75.7665 1356.86,-82.5498"/>
</g>
<!-- Node10 -->
<g id="node19" class="node"><title>Node10</title>
<polygon fill="white" stroke="#bfbfbf" points="589.5,-58.5 589.5,-79.5 632.5,-79.5 632.5,-58.5 589.5,-58.5"/>
<text text-anchor="middle" x="611" y="-66.5" font-family="Helvetica,sans-Serif" font-size="10.00">cstdio</text>
</g>
<!-- Node8&#45;&gt;Node10 -->
<g id="edge18" class="edge"><title>Node8&#45;&gt;Node10</title>
<path fill="none" stroke="midnightblue" d="M799.632,-118.802C761.065,-110.822 701.816,-97.7036 642.439,-80.208"/>
<polygon fill="midnightblue" stroke="midnightblue" points="643.109,-76.7551 632.525,-77.2455 641.105,-83.4621 643.109,-76.7551"/>
</g>
<!-- Node11 -->
<g id="node21" class="node"><title>Node11</title>
<polygon fill="white" stroke="#bfbfbf" points="649.5,-58.5 649.5,-79.5 694.5,-79.5 694.5,-58.5 649.5,-58.5"/>
<text text-anchor="middle" x="672" y="-66.5" font-family="Helvetica,sans-Serif" font-size="10.00">cstdlib</text>
</g>
<!-- Node8&#45;&gt;Node11 -->
<g id="edge20" class="edge"><title>Node8&#45;&gt;Node11</title>
<path fill="none" stroke="midnightblue" d="M809.721,-116.473C783.748,-107.705 745.594,-94.7593 704.362,-80.4507"/>
<polygon fill="midnightblue" stroke="midnightblue" points="705.27,-77.0609 694.675,-77.0835 702.972,-83.6728 705.27,-77.0609"/>
</g>
<!-- Node12 -->
<g id="node23" class="node"><title>Node12</title>
<polygon fill="white" stroke="#bfbfbf" points="712,-58.5 712,-79.5 762,-79.5 762,-58.5 712,-58.5"/>
<text text-anchor="middle" x="737" y="-66.5" font-family="Helvetica,sans-Serif" font-size="10.00">fstream</text>
</g>
<!-- Node8&#45;&gt;Node12 -->
<g id="edge22" class="edge"><title>Node8&#45;&gt;Node12</title>
<path fill="none" stroke="midnightblue" d="M821.925,-116.362C805.945,-107.45 782.919,-94.6087 764.873,-84.5447"/>
<polygon fill="midnightblue" stroke="midnightblue" points="766.393,-81.3846 755.954,-79.5707 762.983,-87.4982 766.393,-81.3846"/>
</g>
<!-- Node13 -->
<g id="node25" class="node"><title>Node13</title>
<polygon fill="white" stroke="#bfbfbf" points="780,-58.5 780,-79.5 834,-79.5 834,-58.5 780,-58.5"/>
<text text-anchor="middle" x="807" y="-66.5" font-family="Helvetica,sans-Serif" font-size="10.00">iostream</text>
</g>
<!-- Node8&#45;&gt;Node13 -->
<g id="edge24" class="edge"><title>Node8&#45;&gt;Node13</title>
<path fill="none" stroke="midnightblue" d="M834.764,-116.362C830.163,-108.513 823.775,-97.6159 818.286,-88.2527"/>
<polygon fill="midnightblue" stroke="midnightblue" points="821.273,-86.4276 813.197,-79.5707 815.234,-89.9677 821.273,-86.4276"/>
</g>
<!-- Node14 -->
<g id="node27" class="node"><title>Node14</title>
<polygon fill="white" stroke="#bfbfbf" points="851.5,-58.5 851.5,-79.5 898.5,-79.5 898.5,-58.5 851.5,-58.5"/>
<text text-anchor="middle" x="875" y="-66.5" font-family="Helvetica,sans-Serif" font-size="10.00">iterator</text>
</g>
<!-- Node8&#45;&gt;Node14 -->
<g id="edge26" class="edge"><title>Node8&#45;&gt;Node14</title>
<path fill="none" stroke="midnightblue" d="M847.236,-116.362C851.837,-108.513 858.225,-97.6159 863.714,-88.2527"/>
<polygon fill="midnightblue" stroke="midnightblue" points="866.766,-89.9677 868.803,-79.5707 860.727,-86.4276 866.766,-89.9677"/>
</g>
<!-- Node15 -->
<g id="node29" class="node"><title>Node15</title>
<polygon fill="white" stroke="#bfbfbf" points="916,-58.5 916,-79.5 968,-79.5 968,-58.5 916,-58.5"/>
<text text-anchor="middle" x="942" y="-66.5" font-family="Helvetica,sans-Serif" font-size="10.00">memory</text>
</g>
<!-- Node8&#45;&gt;Node15 -->
<g id="edge28" class="edge"><title>Node8&#45;&gt;Node15</title>
<path fill="none" stroke="midnightblue" d="M859.525,-116.362C874.901,-107.532 896.996,-94.844 914.447,-84.8224"/>
<polygon fill="midnightblue" stroke="midnightblue" points="916.664,-87.5857 923.592,-79.5707 913.178,-81.5154 916.664,-87.5857"/>
</g>
<!-- Node16 -->
<g id="node31" class="node"><title>Node16</title>
<polygon fill="white" stroke="#bfbfbf" points="986,-58.5 986,-79.5 1038,-79.5 1038,-58.5 986,-58.5"/>
<text text-anchor="middle" x="1012" y="-66.5" font-family="Helvetica,sans-Serif" font-size="10.00">sstream</text>
</g>
<!-- Node8&#45;&gt;Node16 -->
<g id="edge30" class="edge"><title>Node8&#45;&gt;Node16</title>
<path fill="none" stroke="midnightblue" d="M871.967,-116.497C901.321,-106.54 945.393,-91.5918 976.233,-81.1316"/>
<polygon fill="midnightblue" stroke="midnightblue" points="977.399,-84.4319 985.745,-77.9052 975.151,-77.8028 977.399,-84.4319"/>
</g>
<!-- Node17 -->
<g id="node33" class="node"><title>Node17</title>
<polygon fill="white" stroke="#bfbfbf" points="1055.5,-58.5 1055.5,-79.5 1096.5,-79.5 1096.5,-58.5 1055.5,-58.5"/>
<text text-anchor="middle" x="1076" y="-66.5" font-family="Helvetica,sans-Serif" font-size="10.00">string</text>
</g>
<!-- Node8&#45;&gt;Node17 -->
<g id="edge32" class="edge"><title>Node8&#45;&gt;Node17</title>
<path fill="none" stroke="midnightblue" d="M882.085,-119.367C921.851,-111.595 983.934,-98.4509 1045.36,-80.2453"/>
<polygon fill="midnightblue" stroke="midnightblue" points="1046.64,-83.5143 1055.21,-77.28 1044.63,-76.8114 1046.64,-83.5143"/>
</g>
<!-- Node18 -->
<g id="node37" class="node"><title>Node18</title>
<polygon fill="white" stroke="#bfbfbf" points="1113.5,-58.5 1113.5,-79.5 1188.5,-79.5 1188.5,-58.5 1113.5,-58.5"/>
<text text-anchor="middle" x="1151" y="-66.5" font-family="Helvetica,sans-Serif" font-size="10.00">mm_malloc.h</text>
</g>
<!-- Node8&#45;&gt;Node18 -->
<g id="edge38" class="edge"><title>Node8&#45;&gt;Node18</title>
<path fill="none" stroke="midnightblue" d="M882.299,-120.416C932.4,-112.26 1019.64,-97.5138 1103.45,-80.2471"/>
<polygon fill="midnightblue" stroke="midnightblue" points="1104.3,-83.6441 1113.38,-78.1845 1102.88,-76.7902 1104.3,-83.6441"/>
</g>
<!-- Node19 -->
<g id="node39" class="node"><title>Node19</title>
<a xlink:href="../../da/d69/optionparser_8h.html" target="_top" xlink:title="This is the only file required to use The Lean Mean C++ Option Parser. Just #include it and you&#39;re se...">
<polygon fill="white" stroke="black" points="1206,-58.5 1206,-79.5 1310,-79.5 1310,-58.5 1206,-58.5"/>
<text text-anchor="middle" x="1258" y="-66.5" font-family="Helvetica,sans-Serif" font-size="10.00">blond/optionparser.h</text>
</a>
</g>
<!-- Node8&#45;&gt;Node19 -->
<g id="edge40" class="edge"><title>Node8&#45;&gt;Node19</title>
<path fill="none" stroke="midnightblue" d="M882.204,-122.2C946.792,-114.536 1076.04,-98.6387 1195.71,-80.1485"/>
<polygon fill="midnightblue" stroke="midnightblue" points="1196.44,-83.5779 1205.78,-78.5831 1195.36,-76.661 1196.44,-83.5779"/>
</g>
<!-- Node20&#45;&gt;Node5 -->
<g id="edge44" class="edge"><title>Node20&#45;&gt;Node5</title>
<path fill="none" stroke="midnightblue" d="M593.22,-318.436C595.743,-292.196 599.283,-222.662 573,-174 554.189,-139.172 521.935,-106.047 501.047,-86.627"/>
<polygon fill="midnightblue" stroke="midnightblue" points="503.136,-83.7954 493.387,-79.646 498.421,-88.969 503.136,-83.7954"/>
</g>
<!-- Node20&#45;&gt;Node8 -->
<g id="edge46" class="edge"><title>Node20&#45;&gt;Node8</title>
<path fill="none" stroke="midnightblue" d="M603.764,-318.456C640.348,-285.693 750.701,-187.07 768,-174 782.7,-162.894 800.003,-151.679 814.074,-142.991"/>
<polygon fill="midnightblue" stroke="midnightblue" points="816.078,-145.868 822.793,-137.673 812.433,-139.892 816.078,-145.868"/>
</g>
<!-- Node20&#45;&gt;Node21 -->
<g id="edge48" class="edge"><title>Node20&#45;&gt;Node21</title>
<path fill="none" stroke="midnightblue" d="M591.778,-318.457C590.973,-301.822 587.502,-269.011 573,-246 565.442,-234.008 554.262,-223.539 543.14,-215.094"/>
<polygon fill="midnightblue" stroke="midnightblue" points="544.872,-212.029 534.708,-209.038 540.789,-217.714 544.872,-212.029"/>
</g>
<!-- Node20&#45;&gt;Node22 -->
<g id="edge56" class="edge"><title>Node20&#45;&gt;Node22</title>
<path fill="none" stroke="midnightblue" d="M572.467,-318.267C559.811,-309.906 543.411,-297.988 529.874,-287.449"/>
<polygon fill="midnightblue" stroke="midnightblue" points="531.886,-284.578 521.874,-281.11 527.538,-290.064 531.886,-284.578"/>
</g>
<!-- Node21&#45;&gt;Node5 -->
<g id="edge50" class="edge"><title>Node21&#45;&gt;Node5</title>
<path fill="none" stroke="midnightblue" d="M501.663,-174.897C497.307,-152.573 489.69,-113.535 485.02,-89.605"/>
<polygon fill="midnightblue" stroke="midnightblue" points="488.455,-88.9321 483.105,-79.7875 481.585,-90.2727 488.455,-88.9321"/>
</g>
<!-- Node21&#45;&gt;Node7 -->
<g id="edge54" class="edge"><title>Node21&#45;&gt;Node7</title>
<path fill="none" stroke="midnightblue" d="M511.241,-174.643C519.043,-152.715 532.634,-113.761 543,-80 547.95,-63.8796 552.991,-45.4586 556.636,-31.707"/>
<polygon fill="midnightblue" stroke="midnightblue" points="560.08,-32.3737 559.232,-21.8128 553.309,-30.5975 560.08,-32.3737"/>
</g>
<!-- Node21&#45;&gt;Node8 -->
<g id="edge52" class="edge"><title>Node21&#45;&gt;Node8</title>
<path fill="none" stroke="midnightblue" d="M564.297,-180.529C628.232,-168.16 728.978,-148.671 789.647,-136.934"/>
<polygon fill="midnightblue" stroke="midnightblue" points="790.606,-140.314 799.759,-134.978 789.276,-133.441 790.606,-140.314"/>
</g>
<!-- Node22&#45;&gt;Node20 -->
<g id="edge58" class="edge"><title>Node22&#45;&gt;Node20</title>
<path fill="none" stroke="midnightblue" d="M533.927,-281.11C547.574,-290.587 563.3,-302.334 575.041,-311.822"/>
<polygon fill="midnightblue" stroke="midnightblue" points="572.871,-314.569 582.8,-318.267 577.344,-309.185 572.871,-314.569"/>
</g>
<!-- Node22&#45;&gt;Node21 -->
<g id="edge60" class="edge"><title>Node22&#45;&gt;Node21</title>
<path fill="none" stroke="midnightblue" d="M505,-246.937C505,-238.807 505,-228.876 505,-219.705"/>
<polygon fill="midnightblue" stroke="midnightblue" points="508.5,-219.441 505,-209.441 501.5,-219.441 508.5,-219.441"/>
</g>
<!-- Node23&#45;&gt;Node5 -->
<g id="edge64" class="edge"><title>Node23&#45;&gt;Node5</title>
<path fill="none" stroke="midnightblue" d="M303.811,-253.496C315.276,-236.147 339.578,-200.764 364,-174 394.773,-140.275 435.285,-105.792 459.67,-85.9413"/>
<polygon fill="midnightblue" stroke="midnightblue" points="461.998,-88.5602 467.58,-79.5553 457.601,-83.1137 461.998,-88.5602"/>
</g>
<!-- Node23&#45;&gt;Node8 -->
<g id="edge66" class="edge"><title>Node23&#45;&gt;Node8</title>
<path fill="none" stroke="midnightblue" d="M309.081,-253.442C332.132,-233.969 384.765,-192.688 437,-174 500.762,-151.188 695.775,-136.175 789.563,-130.08"/>
<polygon fill="midnightblue" stroke="midnightblue" points="789.916,-133.565 799.672,-129.433 789.468,-126.579 789.916,-133.565"/>
</g>
<!-- Node24&#45;&gt;Node5 -->
<g id="edge74" class="edge"><title>Node24&#45;&gt;Node5</title>
<path fill="none" stroke="midnightblue" d="M479.021,-492.409C423.209,-466.25 285.388,-392.58 233,-282 185.774,-182.316 353.189,-111.225 436.562,-82.7656"/>
<polygon fill="midnightblue" stroke="midnightblue" points="437.922,-86.0014 446.293,-79.5072 435.699,-79.3637 437.922,-86.0014"/>
</g>
<!-- Node24&#45;&gt;Node8 -->
<g id="edge102" class="edge"><title>Node24&#45;&gt;Node8</title>
<path fill="none" stroke="midnightblue" d="M534.116,-492.436C576.228,-476.947 651.956,-444.749 703,-398 782.092,-325.563 822.556,-197.45 835.895,-147.628"/>
<polygon fill="midnightblue" stroke="midnightblue" points="839.34,-148.284 838.461,-137.726 832.564,-146.528 839.34,-148.284"/>
</g>
<!-- Node25 -->
<g id="node63" class="node"><title>Node25</title>
<a xlink:href="../../d5/d87/globals_8h.html" target="_top" xlink:title="blond/globals.h">
<polygon fill="white" stroke="black" points="459,-376.5 459,-397.5 541,-397.5 541,-376.5 459,-376.5"/>
<text text-anchor="middle" x="500" y="-384.5" font-family="Helvetica,sans-Serif" font-size="10.00">blond/globals.h</text>
</a>
</g>
<!-- Node24&#45;&gt;Node25 -->
<g id="edge76" class="edge"><title>Node24&#45;&gt;Node25</title>
<path fill="none" stroke="midnightblue" d="M495.716,-492.372C489.901,-483.201 482.214,-469.362 479,-456 474.947,-439.15 481.415,-420.351 488.212,-406.636"/>
<polygon fill="midnightblue" stroke="midnightblue" points="491.394,-408.109 493.074,-397.648 485.237,-404.778 491.394,-408.109"/>
</g>
<!-- Node24&#45;&gt;Node26 -->
<g id="edge86" class="edge"><title>Node24&#45;&gt;Node26</title>
<path fill="none" stroke="midnightblue" d="M552.8,-492.497C599.283,-482.693 668.713,-468.05 718.181,-457.616"/>
<polygon fill="midnightblue" stroke="midnightblue" points="719.044,-461.011 728.106,-455.523 717.599,-454.162 719.044,-461.011"/>
</g>
<!-- Node28 -->
<g id="node75" class="node"><title>Node28</title>
<a xlink:href="../../d9/dc8/PhaseNoise_8h.html" target="_top" xlink:title="blond/llrf/PhaseNoise.h">
<polygon fill="white" stroke="black" points="488,-434.5 488,-455.5 606,-455.5 606,-434.5 488,-434.5"/>
<text text-anchor="middle" x="547" y="-442.5" font-family="Helvetica,sans-Serif" font-size="10.00">blond/llrf/PhaseNoise.h</text>
</a>
</g>
<!-- Node24&#45;&gt;Node28 -->
<g id="edge94" class="edge"><title>Node24&#45;&gt;Node28</title>
<path fill="none" stroke="midnightblue" d="M511.07,-492.362C517.149,-484.35 525.637,-473.161 532.837,-463.67"/>
<polygon fill="midnightblue" stroke="midnightblue" points="535.725,-465.653 538.981,-455.571 530.149,-461.422 535.725,-465.653"/>
</g>
<!-- Node25&#45;&gt;Node20 -->
<g id="edge78" class="edge"><title>Node25&#45;&gt;Node20</title>
<path fill="none" stroke="midnightblue" d="M516.874,-376.362C530.751,-367.614 550.634,-355.079 566.46,-345.101"/>
<polygon fill="midnightblue" stroke="midnightblue" points="568.64,-347.864 575.233,-339.571 564.907,-341.943 568.64,-347.864"/>
</g>
<!-- Node25&#45;&gt;Node21 -->
<g id="edge82" class="edge"><title>Node25&#45;&gt;Node21</title>
<path fill="none" stroke="midnightblue" d="M488.571,-376.288C464.738,-352.597 413.801,-294.047 437,-246 442.955,-233.667 453.246,-223.288 464.047,-215.028"/>
<polygon fill="midnightblue" stroke="midnightblue" points="466.222,-217.776 472.342,-209.127 462.164,-212.071 466.222,-217.776"/>
</g>
<!-- Node25&#45;&gt;Node22 -->
<g id="edge84" class="edge"><title>Node25&#45;&gt;Node22</title>
<path fill="none" stroke="midnightblue" d="M500.444,-376.085C501.208,-357.275 502.796,-318.21 503.88,-291.547"/>
<polygon fill="midnightblue" stroke="midnightblue" points="507.387,-291.451 504.296,-281.317 500.393,-291.167 507.387,-291.451"/>
</g>
<!-- Node25&#45;&gt;Node23 -->
<g id="edge80" class="edge"><title>Node25&#45;&gt;Node23</title>
<path fill="none" stroke="midnightblue" d="M482.34,-376.3C446.483,-354.573 364.997,-305.2 323.039,-279.777"/>
<polygon fill="midnightblue" stroke="midnightblue" points="324.841,-276.777 314.474,-274.588 321.213,-282.763 324.841,-276.777"/>
</g>
<!-- Node26&#45;&gt;Node5 -->
<g id="edge88" class="edge"><title>Node26&#45;&gt;Node5</title>
<path fill="none" stroke="midnightblue" d="M774.776,-434.497C760.211,-388.861 696.044,-206.045 577,-116 559.356,-102.654 537.325,-91.5451 518.821,-83.4844"/>
<polygon fill="midnightblue" stroke="midnightblue" points="520.081,-80.2174 509.507,-79.5512 517.358,-86.6659 520.081,-80.2174"/>
</g>
<!-- Node26&#45;&gt;Node8 -->
<g id="edge90" class="edge"><title>Node26&#45;&gt;Node8</title>
<path fill="none" stroke="midnightblue" d="M816.141,-434.435C835.733,-427.174 858.475,-415.597 873,-398 893.248,-373.469 892,-360.808 892,-329 892,-329 892,-329 892,-264 892,-219.667 868.254,-172.047 853.168,-146.268"/>
<polygon fill="midnightblue" stroke="midnightblue" points="856.044,-144.26 847.878,-137.509 850.052,-147.879 856.044,-144.26"/>
</g>
<!-- Node27 -->
<g id="node73" class="node"><title>Node27</title>
<polygon fill="white" stroke="#bfbfbf" points="805.5,-376.5 805.5,-397.5 864.5,-397.5 864.5,-376.5 805.5,-376.5"/>
<text text-anchor="middle" x="835" y="-384.5" font-family="Helvetica,sans-Serif" font-size="10.00">functional</text>
</g>
<!-- Node26&#45;&gt;Node27 -->
<g id="edge92" class="edge"><title>Node26&#45;&gt;Node27</title>
<path fill="none" stroke="midnightblue" d="M788.455,-434.362C796.57,-426.104 808.001,-414.472 817.504,-404.803"/>
<polygon fill="midnightblue" stroke="midnightblue" points="820.099,-407.156 824.612,-397.571 815.106,-402.25 820.099,-407.156"/>
</g>
<!-- Node28&#45;&gt;Node5 -->
<g id="edge96" class="edge"><title>Node28&#45;&gt;Node5</title>
<path fill="none" stroke="midnightblue" d="M568.504,-434.423C603.943,-415.314 669.615,-371.963 658,-318 636.709,-219.083 625.45,-186.631 553,-116 540.374,-103.691 524.07,-92.7344 510.171,-84.503"/>
<polygon fill="midnightblue" stroke="midnightblue" points="511.863,-81.4387 501.447,-79.5004 508.381,-87.5112 511.863,-81.4387"/>
</g>
<!-- Node28&#45;&gt;Node8 -->
<g id="edge100" class="edge"><title>Node28&#45;&gt;Node8</title>
<path fill="none" stroke="midnightblue" d="M602.093,-434.459C627.368,-427.452 656.435,-416.093 678,-398 765.842,-324.302 743.199,-269.936 806,-174 812.286,-164.397 819.829,-154.131 826.3,-145.65"/>
<polygon fill="midnightblue" stroke="midnightblue" points="829.207,-147.613 832.558,-137.562 823.67,-143.329 829.207,-147.613"/>
</g>
<!-- Node28&#45;&gt;Node25 -->
<g id="edge98" class="edge"><title>Node28&#45;&gt;Node25</title>
<path fill="none" stroke="midnightblue" d="M538.379,-434.362C531.82,-426.268 522.634,-414.932 514.894,-405.38"/>
<polygon fill="midnightblue" stroke="midnightblue" points="517.581,-403.136 508.566,-397.571 512.142,-407.544 517.581,-403.136"/>
</g>
</g>
</svg>
        <g id="navigator" transform="translate(0 0)" fill="#404254">
                <rect fill="#f2f5e9" fill-opacity="0.5" stroke="#606060" stroke-width=".5" x="0" y="0" width="60" height="60"/>
                <use id="zoomplus" xlink:href="#zoomPlus" x="17" y="9" onmousedown="handleZoom(evt,'in')"/>
                <use id="zoomminus" xlink:href="#zoomMin" x="42" y="9" onmousedown="handleZoom(evt,'out')"/>
                <use id="reset" xlink:href="#resetDef" x="30" y="36" onmousedown="handleReset()"/>
                <g id="arrowUp" xlink:href="#dirArrow" transform="translate(30 24)" onmousedown="handlePan(0,-1)">
                  <use xlink:href="#rim" fill="#404040">
                        <set attributeName="fill" to="#808080" begin="arrowUp.mouseover" end="arrowUp.mouseout"/>
                  </use>
                  <path fill="none" stroke="white" stroke-width="1.5" d="M0,-3.0v7 M-2.5,-0.5L0,-3.0L2.5,-0.5"/>
                </g>
                <g id="arrowRight" xlink:href="#dirArrow" transform="rotate(90) translate(36 -43)" onmousedown="handlePan(1,0)">
                  <use xlink:href="#rim" fill="#404040">
                        <set attributeName="fill" to="#808080" begin="arrowRight.mouseover" end="arrowRight.mouseout"/>
                  </use>
                  <path fill="none" stroke="white" stroke-width="1.5" d="M0,-3.0v7 M-2.5,-0.5L0,-3.0L2.5,-0.5"/>
                </g>
                <g id="arrowDown" xlink:href="#dirArrow" transform="rotate(180) translate(-30 -48)" onmousedown="handlePan(0,1)">
                  <use xlink:href="#rim" fill="#404040">
                        <set attributeName="fill" to="#808080" begin="arrowDown.mouseover" end="arrowDown.mouseout"/>
                  </use>
                  <path fill="none" stroke="white" stroke-width="1.5" d="M0,-3.0v7 M-2.5,-0.5L0,-3.0L2.5,-0.5"/>
                </g>
                <g id="arrowLeft" xlink:href="#dirArrow" transform="rotate(270) translate(-36 17)" onmousedown="handlePan(-1,0)">
                  <use xlink:href="#rim" fill="#404040">
                        <set attributeName="fill" to="#808080" begin="arrowLeft.mouseover" end="arrowLeft.mouseout"/>
                  </use>
                  <path fill="none" stroke="white" stroke-width="1.5" d="M0,-3.0v7 M-2.5,-0.5L0,-3.0L2.5,-0.5"/>
                </g>
        </g>
        <svg viewBox="0 0 15 15" width="100%" height="30px" preserveAspectRatio="xMaxYMin meet">
         <g id="arrow_out" transform="scale(0.3 0.3)">
          <a xlink:href="Monitors_8h__incl_org.svg" target="_base">
           <rect id="button" ry="5" rx="5" y="6" x="6" height="38" width="38"
                fill="#f2f5e9" fill-opacity="0.5" stroke="#606060" stroke-width="1.0"/>
           <path id="arrow"
             d="M 11.500037,31.436501 C 11.940474,20.09759 22.043105,11.32322 32.158766,21.979434 L 37.068811,17.246167 C 37.068811,17.246167 37.088388,32 37.088388,32 L 22.160133,31.978069 C 22.160133,31.978069 26.997745,27.140456 26.997745,27.140456 C 18.528582,18.264221 13.291696,25.230495 11.500037,31.436501 z"
             style="fill:#404040;"/>
          </a>
         </g>
        </svg>
</svg>
