<?xml version="1.0" encoding="UTF-8" standalone="no"?>
<!DOCTYPE svg PUBLIC "-//W3C//DTD SVG 1.1//EN"
 "http://www.w3.org/Graphics/SVG/1.1/DTD/svg11.dtd">
<!-- Generated by graphviz version 2.26.3 (20100126.1600)
 -->
<!-- Title: InducedVoltageFreq::reprocess Pages: 1 -->
<svg width="260pt" height="82pt"
 viewBox="0.00 0.00 260.00 82.00" xmlns="http://www.w3.org/2000/svg" xmlns:xlink="http://www.w3.org/1999/xlink">
<g id="graph1" class="graph" transform="scale(1 1) rotate(0) translate(4 78)">
<title>InducedVoltageFreq::reprocess</title>
<polygon fill="white" stroke="white" points="-4,5 -4,-78 257,-78 257,5 -4,5"/>
<!-- Node1 -->
<g id="node1" class="node"><title>Node1</title>
<polygon fill="#bfbfbf" stroke="black" points="0,-23 0,-57 104,-57 104,-23 0,-23"/>
<text text-anchor="start" x="8" y="-44" font-family="Helvetica,sans-Serif" font-size="10.00">InducedVoltageFreq</text>
<text text-anchor="middle" x="52" y="-31" font-family="Helvetica,sans-Serif" font-size="10.00">::reprocess</text>
</g>
<!-- Node2 -->
<g id="node3" class="node"><title>Node2</title>
<a xlink:href="../../df/d6d/namespacemymath.html#accbb9ef1f97a6dca6e5fb46dc038130a" target="_top" xlink:title="mymath::next_regular">
<polygon fill="white" stroke="black" points="140.5,-52.5 140.5,-73.5 251.5,-73.5 251.5,-52.5 140.5,-52.5"/>
<text text-anchor="middle" x="196" y="-60.5" font-family="Helvetica,sans-Serif" font-size="10.00">mymath::next_regular</text>
</a>
</g>
<!-- Node1&#45;&gt;Node2 -->
<g id="edge2" class="edge"><title>Node1&#45;&gt;Node2</title>
<path fill="none" stroke="midnightblue" d="M104.395,-48.3686C112.833,-49.7164 121.661,-51.1264 130.364,-52.5164"/>
<polygon fill="midnightblue" stroke="midnightblue" points="130.065,-56.013 140.492,-54.1341 131.169,-49.1006 130.065,-56.013"/>
</g>
<!-- Node3 -->
<g id="node5" class="node"><title>Node3</title>
<a xlink:href="../../d5/de7/classInducedVoltageFreq.html#ad4bf4411c545885d9272093b6469748b" target="_top" xlink:title="InducedVoltageFreq\l::sum_impedances">
<polygon fill="white" stroke="black" points="144,-0 144,-34 248,-34 248,-0 144,-0"/>
<text text-anchor="start" x="152" y="-21" font-family="Helvetica,sans-Serif" font-size="10.00">InducedVoltageFreq</text>
<text text-anchor="middle" x="196" y="-8" font-family="Helvetica,sans-Serif" font-size="10.00">::sum_impedances</text>
</a>
</g>
<!-- Node1&#45;&gt;Node3 -->
<g id="edge4" class="edge"><title>Node1&#45;&gt;Node3</title>
<path fill="none" stroke="midnightblue" d="M104.395,-31.6314C113.944,-30.1062 123.992,-28.5013 133.792,-26.9359"/>
<polygon fill="midnightblue" stroke="midnightblue" points="134.563,-30.3574 143.885,-25.3238 133.459,-23.445 134.563,-30.3574"/>
</g>
</g>
</svg>
