<?xml version="1.0" encoding="UTF-8" standalone="no"?>
<!DOCTYPE svg PUBLIC "-//W3C//DTD SVG 1.1//EN"
 "http://www.w3.org/Graphics/SVG/1.1/DTD/svg11.dtd">
<!-- Generated by graphviz version 2.26.3 (20100126.1600)
 -->
<!-- Title: InducedVoltageFreq::InducedVoltageFreq Pages: 1 -->
<svg width="266pt" height="122pt"
 viewBox="0.00 0.00 266.00 122.00" xmlns="http://www.w3.org/2000/svg" xmlns:xlink="http://www.w3.org/1999/xlink">
<g id="graph1" class="graph" transform="scale(1 1) rotate(0) translate(4 118)">
<title>InducedVoltageFreq::InducedVoltageFreq</title>
<polygon fill="white" stroke="white" points="-4,5 -4,-118 263,-118 263,5 -4,5"/>
<!-- Node1 -->
<g id="node1" class="node"><title>Node1</title>
<polygon fill="#bfbfbf" stroke="black" points="0,-46 0,-80 110,-80 110,-46 0,-46"/>
<text text-anchor="start" x="8" y="-67" font-family="Helvetica,sans-Serif" font-size="10.00">InducedVoltageFreq</text>
<text text-anchor="middle" x="55" y="-54" font-family="Helvetica,sans-Serif" font-size="10.00">::InducedVoltageFreq</text>
</g>
<!-- Node2 -->
<g id="node3" class="node"><title>Node2</title>
<a xlink:href="../../df/d6d/namespacemymath.html#accbb9ef1f97a6dca6e5fb46dc038130a" target="_top" xlink:title="mymath::next_regular">
<polygon fill="white" stroke="black" points="146.5,-92.5 146.5,-113.5 257.5,-113.5 257.5,-92.5 146.5,-92.5"/>
<text text-anchor="middle" x="202" y="-100.5" font-family="Helvetica,sans-Serif" font-size="10.00">mymath::next_regular</text>
</a>
</g>
<!-- Node1&#45;&gt;Node2 -->
<g id="edge2" class="edge"><title>Node1&#45;&gt;Node2</title>
<path fill="none" stroke="midnightblue" d="M110.156,-78.0083C124.316,-81.8615 139.447,-85.9786 153.257,-89.7366"/>
<polygon fill="midnightblue" stroke="midnightblue" points="152.479,-93.152 163.047,-92.4005 154.317,-86.3976 152.479,-93.152"/>
</g>
<!-- Node3 -->
<g id="node5" class="node"><title>Node3</title>
<a xlink:href="../../d8/de0/namespacefft.html#a011fc652588e7ee1e8872f8b8b675d6e" target="_top" xlink:title="fft::rfftfreq">
<polygon fill="white" stroke="black" points="172,-52.5 172,-73.5 232,-73.5 232,-52.5 172,-52.5"/>
<text text-anchor="middle" x="202" y="-60.5" font-family="Helvetica,sans-Serif" font-size="10.00">fft::rfftfreq</text>
</a>
</g>
<!-- Node1&#45;&gt;Node3 -->
<g id="edge4" class="edge"><title>Node1&#45;&gt;Node3</title>
<path fill="none" stroke="midnightblue" d="M110.156,-63C127.264,-63 145.789,-63 161.69,-63"/>
<polygon fill="midnightblue" stroke="midnightblue" points="161.72,-66.5001 171.72,-63 161.72,-59.5001 161.72,-66.5001"/>
</g>
<!-- Node4 -->
<g id="node7" class="node"><title>Node4</title>
<a xlink:href="../../d5/de7/classInducedVoltageFreq.html#ad4bf4411c545885d9272093b6469748b" target="_top" xlink:title="InducedVoltageFreq\l::sum_impedances">
<polygon fill="white" stroke="black" points="150,-0 150,-34 254,-34 254,-0 150,-0"/>
<text text-anchor="start" x="158" y="-21" font-family="Helvetica,sans-Serif" font-size="10.00">InducedVoltageFreq</text>
<text text-anchor="middle" x="202" y="-8" font-family="Helvetica,sans-Serif" font-size="10.00">::sum_impedances</text>
</a>
</g>
<!-- Node1&#45;&gt;Node4 -->
<g id="edge6" class="edge"><title>Node1&#45;&gt;Node4</title>
<path fill="none" stroke="midnightblue" d="M109.737,-45.8713C119.635,-42.7741 130.019,-39.5247 140.104,-36.3688"/>
<polygon fill="midnightblue" stroke="midnightblue" points="141.157,-39.7066 149.656,-33.3798 139.067,-33.0261 141.157,-39.7066"/>
</g>
</g>
</svg>
