<?xml version="1.0" encoding="UTF-8" standalone="no"?>
<!DOCTYPE svg PUBLIC "-//W3C//DTD SVG 1.1//EN"
 "http://www.w3.org/Graphics/SVG/1.1/DTD/svg11.dtd">
<!-- Generated by graphviz version 2.26.3 (20100126.1600)
 -->
<!-- Title: blond::Intensity Pages: 1 -->
<svg width="311pt" height="480pt"
 viewBox="0.00 0.00 311.00 480.00" xmlns="http://www.w3.org/2000/svg" xmlns:xlink="http://www.w3.org/1999/xlink">
<g id="graph1" class="graph" transform="scale(1 1) rotate(0) translate(4 476)">
<title>blond::Intensity</title>
<polygon fill="white" stroke="white" points="-4,5 -4,-476 308,-476 308,5 -4,5"/>
<!-- Node1 -->
<g id="node1" class="node"><title>Node1</title>
<polygon fill="#bfbfbf" stroke="black" points="117.5,-1 117.5,-103 200.5,-103 200.5,-1 117.5,-1"/>
<text text-anchor="middle" x="159" y="-90" font-family="Helvetica,sans-Serif" font-size="10.00">blond::Intensity</text>
<polyline fill="none" stroke="black" points="117.5,-82 200.5,-82 "/>
<text text-anchor="middle" x="159" y="-69" font-family="Helvetica,sans-Serif" font-size="10.00"> </text>
<polyline fill="none" stroke="black" points="117.5,-61 200.5,-61 "/>
<text text-anchor="start" x="125.5" y="-48" font-family="Helvetica,sans-Serif" font-size="10.00">+ Intensity()</text>
<text text-anchor="start" x="125.5" y="-35" font-family="Helvetica,sans-Serif" font-size="10.00">+ ~Intensity()</text>
<text text-anchor="start" x="125.5" y="-22" font-family="Helvetica,sans-Serif" font-size="10.00">+ imped_calc()</text>
<text text-anchor="start" x="125.5" y="-9" font-family="Helvetica,sans-Serif" font-size="10.00">+ wake_calc()</text>
</g>
<!-- Node2 -->
<g id="node2" class="node"><title>Node2</title>
<polygon fill="white" stroke="#bfbfbf" points="22,-180.5 22,-243.5 148,-243.5 148,-180.5 22,-180.5"/>
<text text-anchor="middle" x="85" y="-230.5" font-family="Helvetica,sans-Serif" font-size="10.00">std::vector&lt; complex_t &gt;</text>
<polyline fill="none" stroke="#bfbfbf" points="22,-222.5 148,-222.5 "/>
<text text-anchor="middle" x="85" y="-209.5" font-family="Helvetica,sans-Serif" font-size="10.00"> </text>
<polyline fill="none" stroke="#bfbfbf" points="22,-201.5 148,-201.5 "/>
<text text-anchor="middle" x="85" y="-188.5" font-family="Helvetica,sans-Serif" font-size="10.00"> </text>
</g>
<!-- Node2&#45;&gt;Node1 -->
<g id="edge2" class="edge"><title>Node2&#45;&gt;Node1</title>
<path fill="none" stroke="#404040" d="M96.6101,-180.377C103.268,-162.946 112.06,-141.042 121,-122 122.215,-119.412 123.481,-116.786 124.783,-114.145"/>
<polygon fill="none" stroke="#404040" points="124.874,-113.965 124.014,-106.805 130.292,-103.258 131.152,-110.417 124.874,-113.965"/>
<text text-anchor="middle" x="151.5" y="-139.5" font-family="Helvetica,sans-Serif" font-size="10.00"> +fImpedance</text>
</g>
<!-- Node3 -->
<g id="node4" class="node"><title>Node3</title>
<a xlink:title="STL class.">
<polygon fill="white" stroke="#bfbfbf" points="-0.5,-294.5 -0.5,-357.5 72.5,-357.5 72.5,-294.5 -0.5,-294.5"/>
<text text-anchor="middle" x="36" y="-344.5" font-family="Helvetica,sans-Serif" font-size="10.00">std::complex</text>
<polyline fill="none" stroke="#bfbfbf" points="-0.5,-336.5 72.5,-336.5 "/>
<text text-anchor="middle" x="36" y="-323.5" font-family="Helvetica,sans-Serif" font-size="10.00"> </text>
<polyline fill="none" stroke="#bfbfbf" points="-0.5,-315.5 72.5,-315.5 "/>
<text text-anchor="middle" x="36" y="-302.5" font-family="Helvetica,sans-Serif" font-size="10.00"> </text>
</a>
</g>
<!-- Node3&#45;&gt;Node2 -->
<g id="edge4" class="edge"><title>Node3&#45;&gt;Node2</title>
<path fill="none" stroke="#404040" d="M31.9376,-294.465C31.7389,-283.811 32.8566,-272.071 37,-262 38.1818,-259.128 39.6132,-256.326 41.232,-253.61"/>
<polygon fill="none" stroke="#404040" points="41.3723,-253.411 41.5496,-246.202 48.2723,-243.593 48.0949,-250.802 41.3723,-253.411"/>
<text text-anchor="middle" x="61.5" y="-266.5" font-family="Helvetica,sans-Serif" font-size="10.00"> +elements</text>
</g>
<!-- Node4 -->
<g id="node6" class="node"><title>Node4</title>
<a xlink:title="STL class.">
<polygon fill="white" stroke="#bfbfbf" points="116.5,-294.5 116.5,-357.5 203.5,-357.5 203.5,-294.5 116.5,-294.5"/>
<text text-anchor="middle" x="160" y="-344.5" font-family="Helvetica,sans-Serif" font-size="10.00">std::vector&lt; T &gt;</text>
<polyline fill="none" stroke="#bfbfbf" points="116.5,-336.5 203.5,-336.5 "/>
<text text-anchor="middle" x="160" y="-323.5" font-family="Helvetica,sans-Serif" font-size="10.00"> </text>
<polyline fill="none" stroke="#bfbfbf" points="116.5,-315.5 203.5,-315.5 "/>
<text text-anchor="middle" x="160" y="-302.5" font-family="Helvetica,sans-Serif" font-size="10.00"> </text>
</a>
</g>
<!-- Node4&#45;&gt;Node2 -->
<g id="edge6" class="edge"><title>Node4&#45;&gt;Node2</title>
<path fill="none" stroke="orange" d="M122.568,-286.451C119.884,-283.011 117.324,-279.504 115,-276 108.354,-265.978 102.399,-254.25 97.5816,-243.591"/>
<polygon fill="orange" stroke="orange" points="119.964,-288.796 129.002,-294.324 125.384,-284.366 119.964,-288.796"/>
<text text-anchor="middle" x="148.5" y="-266.5" font-family="Helvetica,sans-Serif" font-size="10.00"> &lt; complex_t &gt;</text>
</g>
<!-- Node6 -->
<g id="node10" class="node"><title>Node6</title>
<polygon fill="white" stroke="#bfbfbf" points="166,-180.5 166,-243.5 276,-243.5 276,-180.5 166,-180.5"/>
<text text-anchor="middle" x="221" y="-230.5" font-family="Helvetica,sans-Serif" font-size="10.00">std::vector&lt; double &gt;</text>
<polyline fill="none" stroke="#bfbfbf" points="166,-222.5 276,-222.5 "/>
<text text-anchor="middle" x="221" y="-209.5" font-family="Helvetica,sans-Serif" font-size="10.00"> </text>
<polyline fill="none" stroke="#bfbfbf" points="166,-201.5 276,-201.5 "/>
<text text-anchor="middle" x="221" y="-188.5" font-family="Helvetica,sans-Serif" font-size="10.00"> </text>
</g>
<!-- Node4&#45;&gt;Node6 -->
<g id="edge14" class="edge"><title>Node4&#45;&gt;Node6</title>
<path fill="none" stroke="orange" d="M181.911,-285.051C189.215,-271.401 197.235,-256.413 204.099,-243.585"/>
<polygon fill="orange" stroke="orange" points="178.624,-283.776 176.992,-294.245 184.796,-287.079 178.624,-283.776"/>
<text text-anchor="middle" x="219" y="-266.5" font-family="Helvetica,sans-Serif" font-size="10.00"> &lt; double &gt;</text>
</g>
<!-- Node5 -->
<g id="node8" class="node"><title>Node5</title>
<polygon fill="white" stroke="#bfbfbf" points="145.5,-408.5 145.5,-471.5 174.5,-471.5 174.5,-408.5 145.5,-408.5"/>
<text text-anchor="middle" x="160" y="-458.5" font-family="Helvetica,sans-Serif" font-size="10.00">T</text>
<polyline fill="none" stroke="#bfbfbf" points="145.5,-450.5 174.5,-450.5 "/>
<text text-anchor="middle" x="160" y="-437.5" font-family="Helvetica,sans-Serif" font-size="10.00"> </text>
<polyline fill="none" stroke="#bfbfbf" points="145.5,-429.5 174.5,-429.5 "/>
<text text-anchor="middle" x="160" y="-416.5" font-family="Helvetica,sans-Serif" font-size="10.00"> </text>
</g>
<!-- Node5&#45;&gt;Node4 -->
<g id="edge8" class="edge"><title>Node5&#45;&gt;Node4</title>
<path fill="none" stroke="#404040" d="M160,-408.245C160,-396.386 160,-382.7 160,-369.938"/>
<polygon fill="none" stroke="#404040" points="160,-369.585 156,-363.585 160,-357.585 164,-363.585 160,-369.585"/>
<text text-anchor="middle" x="184.5" y="-380.5" font-family="Helvetica,sans-Serif" font-size="10.00"> +elements</text>
</g>
<!-- Node6&#45;&gt;Node1 -->
<g id="edge10" class="edge"><title>Node6&#45;&gt;Node1</title>
<path fill="none" stroke="#404040" d="M208.751,-180.389C201.445,-161.535 191.913,-136.937 183.15,-114.323"/>
<polygon fill="none" stroke="#404040" points="183.125,-114.258 177.227,-110.108 178.789,-103.068 184.687,-107.218 183.125,-114.258"/>
<text text-anchor="middle" x="229" y="-152.5" font-family="Helvetica,sans-Serif" font-size="10.00"> +fTimeArray</text>
<text text-anchor="middle" x="229" y="-139.5" font-family="Helvetica,sans-Serif" font-size="10.00">+fFreqArray</text>
<text text-anchor="middle" x="229" y="-126.5" font-family="Helvetica,sans-Serif" font-size="10.00">+fWake</text>
</g>
<!-- Node7 -->
<g id="node12" class="node"><title>Node7</title>
<polygon fill="white" stroke="#bfbfbf" points="248.5,-294.5 248.5,-357.5 293.5,-357.5 293.5,-294.5 248.5,-294.5"/>
<text text-anchor="middle" x="271" y="-344.5" font-family="Helvetica,sans-Serif" font-size="10.00">double</text>
<polyline fill="none" stroke="#bfbfbf" points="248.5,-336.5 293.5,-336.5 "/>
<text text-anchor="middle" x="271" y="-323.5" font-family="Helvetica,sans-Serif" font-size="10.00"> </text>
<polyline fill="none" stroke="#bfbfbf" points="248.5,-315.5 293.5,-315.5 "/>
<text text-anchor="middle" x="271" y="-302.5" font-family="Helvetica,sans-Serif" font-size="10.00"> </text>
</g>
<!-- Node7&#45;&gt;Node6 -->
<g id="edge12" class="edge"><title>Node7&#45;&gt;Node6</title>
<path fill="none" stroke="#404040" d="M261.36,-294.315C257.853,-283.869 253.607,-272.295 249,-262 247.894,-259.528 246.706,-257.017 245.467,-254.502"/>
<polygon fill="none" stroke="#404040" points="245.322,-254.222 239.009,-250.737 239.798,-243.569 246.111,-247.054 245.322,-254.222"/>
<text text-anchor="middle" x="278.5" y="-266.5" font-family="Helvetica,sans-Serif" font-size="10.00"> +elements</text>
</g>
</g>
</svg>
