<?xml version="1.0" encoding="UTF-8" standalone="no"?>
<!DOCTYPE svg PUBLIC "-//W3C//DTD SVG 1.1//EN"
 "http://www.w3.org/Graphics/SVG/1.1/DTD/svg11.dtd">
<!-- Generated by graphviz version 2.26.3 (20100126.1600)
 -->
<!-- Title: openmp.h Pages: 1 -->
<!--zoomable 552 -->
<svg id="main" version="1.1" xmlns="http://www.w3.org/2000/svg" xmlns:xlink="http://www.w3.org/1999/xlink" xml:space="preserve" onload="init(evt)">
        <defs>
                <circle id="rim" cx="0" cy="0" r="7"/>
                <circle id="rim2" cx="0" cy="0" r="3.5"/>
                <g id="zoomPlus">
                        <use xlink:href="#rim" fill="#404040">
                                <set attributeName="fill" to="#808080" begin="zoomplus.mouseover" end="zoomplus.mouseout"/>
                        </use>
                        <path d="M-4,0h8M0,-4v8" fill="none" stroke="white" stroke-width="1.5" pointer-events="none"/>
                </g>
                <g id="zoomMin">
                        <use xlink:href="#rim" fill="#404040">
                                <set attributeName="fill" to="#808080" begin="zoomminus.mouseover" end="zoomminus.mouseout"/>
                        </use>
                        <path d="M-4,0h8" fill="none" stroke="white" stroke-width="1.5" pointer-events="none"/>
                </g>
                <g id="dirArrow">
                        <path fill="none" stroke="white" stroke-width="1.5" d="M0,-3.0v7 M-2.5,-0.5L0,-3.0L2.5,-0.5"/>
                </g>
               <g id="resetDef">
                       <use xlink:href="#rim2" fill="#404040">
                               <set attributeName="fill" to="#808080" begin="reset.mouseover" end="reset.mouseout"/>
                       </use>
               </g>
        </defs>

<script type="text/javascript">
var viewWidth = 1413;
var viewHeight = 552;
var sectionId = 'dynsection-0';
</script>
<script xlink:href="../../svgpan.js"/>
<svg id="graph" class="graph">
<g id="viewport">
<title>openmp.h</title>
<polygon fill="white" stroke="white" points="-4,5 -4,-548 1410,-548 1410,5 -4,5"/>
<!-- Node1 -->
<g id="node1" class="node"><title>Node1</title>
<polygon fill="#bfbfbf" stroke="black" points="426.5,-522.5 426.5,-543.5 485.5,-543.5 485.5,-522.5 426.5,-522.5"/>
<text text-anchor="middle" x="456" y="-530.5" font-family="Helvetica,sans-Serif" font-size="10.00">openmp.h</text>
</g>
<!-- Node2 -->
<g id="node3" class="node"><title>Node2</title>
<a xlink:href="../../d7/d76/fft_8h.html" target="_top" xlink:title="fft.h">
<polygon fill="white" stroke="black" points="575,-290.5 575,-311.5 609,-311.5 609,-290.5 575,-290.5"/>
<text text-anchor="middle" x="592" y="-298.5" font-family="Helvetica,sans-Serif" font-size="10.00">fft.h</text>
</a>
</g>
<!-- Node1&#45;&gt;Node2 -->
<g id="edge2" class="edge"><title>Node1&#45;&gt;Node2</title>
<path fill="none" stroke="midnightblue" d="M479.354,-515.991C503.47,-497.172 540.4,-464.621 561,-428 583.032,-388.833 589.528,-334.281 591.34,-311.572"/>
<polygon fill="midnightblue" stroke="midnightblue" points="476.93,-513.438 471.102,-522.286 481.176,-519.004 476.93,-513.438"/>
</g>
<!-- Node6 -->
<g id="node11" class="node"><title>Node6</title>
<a xlink:href="../../d2/de2/math__functions_8h.html" target="_top" xlink:title="math_functions.h">
<polygon fill="white" stroke="black" points="279,-464.5 279,-485.5 371,-485.5 371,-464.5 279,-464.5"/>
<text text-anchor="middle" x="325" y="-472.5" font-family="Helvetica,sans-Serif" font-size="10.00">math_functions.h</text>
</a>
</g>
<!-- Node1&#45;&gt;Node6 -->
<g id="edge10" class="edge"><title>Node1&#45;&gt;Node6</title>
<path fill="none" stroke="midnightblue" d="M422.896,-518.343C399.874,-508.15 369.715,-494.798 348.989,-485.621"/>
<polygon fill="midnightblue" stroke="midnightblue" points="421.716,-521.649 432.277,-522.497 424.55,-515.248 421.716,-521.649"/>
</g>
<!-- Node3 -->
<g id="node5" class="node"><title>Node3</title>
<a xlink:href="../../d7/d91/Slices_8cpp.html" target="_top" xlink:title="Slices.cpp">
<polygon fill="white" stroke="black" points="537,-232.5 537,-253.5 599,-253.5 599,-232.5 537,-232.5"/>
<text text-anchor="middle" x="568" y="-240.5" font-family="Helvetica,sans-Serif" font-size="10.00">Slices.cpp</text>
</a>
</g>
<!-- Node2&#45;&gt;Node3 -->
<g id="edge4" class="edge"><title>Node2&#45;&gt;Node3</title>
<path fill="none" stroke="midnightblue" d="M583.757,-281.079C579.935,-271.842 575.547,-261.239 572.374,-253.571"/>
<polygon fill="midnightblue" stroke="midnightblue" points="580.54,-282.46 587.598,-290.362 587.009,-279.783 580.54,-282.46"/>
</g>
<!-- Node4 -->
<g id="node7" class="node"><title>Node4</title>
<a xlink:href="../../d5/dfa/InducedVoltage_8cpp.html" target="_top" xlink:title="InducedVoltage.cpp">
<polygon fill="white" stroke="black" points="416.5,-232.5 416.5,-253.5 519.5,-253.5 519.5,-232.5 416.5,-232.5"/>
<text text-anchor="middle" x="468" y="-240.5" font-family="Helvetica,sans-Serif" font-size="10.00">InducedVoltage.cpp</text>
</a>
</g>
<!-- Node2&#45;&gt;Node4 -->
<g id="edge6" class="edge"><title>Node2&#45;&gt;Node4</title>
<path fill="none" stroke="midnightblue" d="M565.53,-288.619C543.229,-278.188 511.671,-263.427 490.554,-253.55"/>
<polygon fill="midnightblue" stroke="midnightblue" points="564.217,-291.869 574.758,-292.935 567.183,-285.528 564.217,-291.869"/>
</g>
<!-- Node5 -->
<g id="node9" class="node"><title>Node5</title>
<a xlink:href="../../db/d82/PhaseNoise_8cpp.html" target="_top" xlink:title="PhaseNoise.cpp">
<polygon fill="white" stroke="black" points="378.5,-174.5 378.5,-195.5 467.5,-195.5 467.5,-174.5 378.5,-174.5"/>
<text text-anchor="middle" x="423" y="-182.5" font-family="Helvetica,sans-Serif" font-size="10.00">PhaseNoise.cpp</text>
</a>
</g>
<!-- Node2&#45;&gt;Node5 -->
<g id="edge8" class="edge"><title>Node2&#45;&gt;Node5</title>
<path fill="none" stroke="midnightblue" d="M564.848,-291.175C563.551,-290.766 562.264,-290.372 561,-290 493.981,-270.29 451.372,-308.762 408,-254 394.452,-236.894 406.996,-210.217 415.898,-195.549"/>
<polygon fill="midnightblue" stroke="midnightblue" points="564.137,-294.628 574.731,-294.494 566.365,-287.992 564.137,-294.628"/>
</g>
<!-- Node6&#45;&gt;Node3 -->
<g id="edge16" class="edge"><title>Node6&#45;&gt;Node3</title>
<path fill="none" stroke="midnightblue" d="M381.393,-469.539C442.027,-462.681 533.446,-449.179 561,-428 613.613,-387.56 644.339,-350.908 618,-290 611.38,-274.691 597.047,-262.07 585.417,-253.775"/>
<polygon fill="midnightblue" stroke="midnightblue" points="380.753,-466.088 371.197,-470.663 381.52,-473.046 380.753,-466.088"/>
</g>
<!-- Node6&#45;&gt;Node4 -->
<g id="edge18" class="edge"><title>Node6&#45;&gt;Node4</title>
<path fill="none" stroke="midnightblue" d="M320.686,-454.442C317.436,-440.497 312.438,-421.798 306,-406 284.677,-353.68 218.593,-334.028 254,-290 273.994,-265.138 359.673,-252.678 416.369,-247.042"/>
<polygon fill="midnightblue" stroke="midnightblue" points="317.326,-455.457 322.912,-464.459 324.159,-453.938 317.326,-455.457"/>
</g>
<!-- Node6&#45;&gt;Node5 -->
<g id="edge28" class="edge"><title>Node6&#45;&gt;Node5</title>
<path fill="none" stroke="midnightblue" d="M268.777,-467.474C208.392,-455.863 121,-427.266 121,-359 121,-359 121,-359 121,-301 121,-269.192 116.368,-253.291 140,-232 174.32,-201.08 307.494,-190.292 378.242,-186.695"/>
<polygon fill="midnightblue" stroke="midnightblue" points="268.5,-470.981 278.964,-469.324 269.75,-464.094 268.5,-470.981"/>
</g>
<!-- Node7 -->
<g id="node13" class="node"><title>Node7</title>
<a xlink:href="../../dc/d0f/Beams_8cpp.html" target="_top" xlink:title="Beams.cpp">
<polygon fill="white" stroke="black" points="385,-290.5 385,-311.5 451,-311.5 451,-290.5 385,-290.5"/>
<text text-anchor="middle" x="418" y="-298.5" font-family="Helvetica,sans-Serif" font-size="10.00">Beams.cpp</text>
</a>
</g>
<!-- Node6&#45;&gt;Node7 -->
<g id="edge12" class="edge"><title>Node6&#45;&gt;Node7</title>
<path fill="none" stroke="midnightblue" d="M357.451,-459.577C388.978,-442.584 434.939,-411.991 455,-370 465.078,-348.904 444.912,-325.008 430.592,-311.598"/>
<polygon fill="midnightblue" stroke="midnightblue" points="355.425,-456.686 348.175,-464.411 358.66,-462.893 355.425,-456.686"/>
</g>
<!-- Node8 -->
<g id="node15" class="node"><title>Node8</title>
<a xlink:href="../../db/de1/Distributions_8cpp.html" target="_top" xlink:title="Distributions.cpp">
<polygon fill="white" stroke="black" points="0,-0.5 0,-21.5 90,-21.5 90,-0.5 0,-0.5"/>
<text text-anchor="middle" x="45" y="-8.5" font-family="Helvetica,sans-Serif" font-size="10.00">Distributions.cpp</text>
</a>
</g>
<!-- Node6&#45;&gt;Node8 -->
<g id="edge14" class="edge"><title>Node6&#45;&gt;Node8</title>
<path fill="none" stroke="midnightblue" d="M268.579,-470.174C221.53,-464.554 153.611,-452.668 99,-428 52.4205,-406.96 7,-410.111 7,-359 7,-359 7,-359 7,-127 7,-86.5234 28.1529,-41.8734 38.8946,-21.809"/>
<polygon fill="midnightblue" stroke="midnightblue" points="268.253,-473.659 278.585,-471.312 269.045,-466.704 268.253,-473.659"/>
</g>
<!-- Node9 -->
<g id="node19" class="node"><title>Node9</title>
<a xlink:href="../../d1/dca/Intensity_8cpp.html" target="_top" xlink:title="Intensity.cpp">
<polygon fill="white" stroke="black" points="224.5,-406.5 224.5,-427.5 297.5,-427.5 297.5,-406.5 224.5,-406.5"/>
<text text-anchor="middle" x="261" y="-414.5" font-family="Helvetica,sans-Serif" font-size="10.00">Intensity.cpp</text>
</a>
</g>
<!-- Node6&#45;&gt;Node9 -->
<g id="edge20" class="edge"><title>Node6&#45;&gt;Node9</title>
<path fill="none" stroke="midnightblue" d="M305.585,-457.405C294.841,-447.668 281.846,-435.891 272.664,-427.571"/>
<polygon fill="midnightblue" stroke="midnightblue" points="303.501,-460.24 313.261,-464.362 308.202,-455.053 303.501,-460.24"/>
</g>
<!-- Node10 -->
<g id="node21" class="node"><title>Node10</title>
<a xlink:href="../../d6/df4/Music_8cpp.html" target="_top" xlink:title="Music.cpp">
<polygon fill="white" stroke="black" points="149,-232.5 149,-253.5 211,-253.5 211,-232.5 149,-232.5"/>
<text text-anchor="middle" x="180" y="-240.5" font-family="Helvetica,sans-Serif" font-size="10.00">Music.cpp</text>
</a>
</g>
<!-- Node6&#45;&gt;Node10 -->
<g id="edge22" class="edge"><title>Node6&#45;&gt;Node10</title>
<path fill="none" stroke="midnightblue" d="M268.634,-463.347C233.713,-454.866 193.566,-442.38 183,-428 143.057,-373.64 166.627,-283.976 176.387,-253.508"/>
<polygon fill="midnightblue" stroke="midnightblue" points="268.254,-466.853 278.79,-465.74 269.859,-460.04 268.254,-466.853"/>
</g>
<!-- Node11 -->
<g id="node23" class="node"><title>Node11</title>
<a xlink:href="../../d3/db7/LHCNoiseFB_8cpp.html" target="_top" xlink:title="LHCNoiseFB.cpp">
<polygon fill="white" stroke="black" points="229,-232.5 229,-253.5 323,-253.5 323,-232.5 229,-232.5"/>
<text text-anchor="middle" x="276" y="-240.5" font-family="Helvetica,sans-Serif" font-size="10.00">LHCNoiseFB.cpp</text>
</a>
</g>
<!-- Node6&#45;&gt;Node11 -->
<g id="edge24" class="edge"><title>Node6&#45;&gt;Node11</title>
<path fill="none" stroke="midnightblue" d="M269.304,-464.417C248.997,-457.574 228.075,-446.356 216,-428 201.295,-405.645 150.48,-434.739 221,-290 228.647,-274.305 244.205,-261.798 256.828,-253.643"/>
<polygon fill="midnightblue" stroke="midnightblue" points="268.281,-467.764 278.868,-467.349 270.333,-461.071 268.281,-467.764"/>
</g>
<!-- Node12 -->
<g id="node25" class="node"><title>Node12</title>
<a xlink:href="../../db/dee/PhaseLoop_8cpp.html" target="_top" xlink:title="PhaseLoop.cpp">
<polygon fill="white" stroke="black" points="496,-116.5 496,-137.5 580,-137.5 580,-116.5 496,-116.5"/>
<text text-anchor="middle" x="538" y="-124.5" font-family="Helvetica,sans-Serif" font-size="10.00">PhaseLoop.cpp</text>
</a>
</g>
<!-- Node6&#45;&gt;Node12 -->
<g id="edge26" class="edge"><title>Node6&#45;&gt;Node12</title>
<path fill="none" stroke="midnightblue" d="M368.863,-461.037C389.263,-453.263 413.128,-442.247 432,-428 485.409,-387.678 505.325,-374.963 528,-312 549.437,-252.475 446.569,-294.544 398,-254 369.081,-229.859 347.232,-204.012 370,-174 385.193,-153.973 451.322,-140.156 495.941,-132.917"/>
<polygon fill="midnightblue" stroke="midnightblue" points="367.646,-457.756 359.465,-464.487 370.058,-464.327 367.646,-457.756"/>
</g>
<!-- Node13 -->
<g id="node28" class="node"><title>Node13</title>
<a xlink:href="../../d2/d6f/Tracker_8cpp.html" target="_top" xlink:title="Tracker.cpp">
<polygon fill="white" stroke="black" points="380,-58.5 380,-79.5 448,-79.5 448,-58.5 380,-58.5"/>
<text text-anchor="middle" x="414" y="-66.5" font-family="Helvetica,sans-Serif" font-size="10.00">Tracker.cpp</text>
</a>
</g>
<!-- Node6&#45;&gt;Node13 -->
<g id="edge30" class="edge"><title>Node6&#45;&gt;Node13</title>
<path fill="none" stroke="midnightblue" d="M268.659,-465.513C220.592,-456.635 155.888,-442.585 134,-428 102.266,-406.854 83,-397.134 83,-359 83,-359 83,-359 83,-185 83,-122.586 295.254,-85.7467 379.824,-73.5458"/>
<polygon fill="midnightblue" stroke="midnightblue" points="268.177,-468.983 278.642,-467.328 269.429,-462.096 268.177,-468.983"/>
</g>
<!-- Node14 -->
<g id="node30" class="node"><title>Node14</title>
<a xlink:href="../../de/da5/utilities_8cpp.html" target="_top" xlink:title="utilities.cpp">
<polygon fill="white" stroke="black" points="263,-290.5 263,-311.5 329,-311.5 329,-290.5 263,-290.5"/>
<text text-anchor="middle" x="296" y="-298.5" font-family="Helvetica,sans-Serif" font-size="10.00">utilities.cpp</text>
</a>
</g>
<!-- Node6&#45;&gt;Node14 -->
<g id="edge32" class="edge"><title>Node6&#45;&gt;Node14</title>
<path fill="none" stroke="midnightblue" d="M321.533,-454.2C315.335,-417.013 302.56,-340.36 297.821,-311.928"/>
<polygon fill="midnightblue" stroke="midnightblue" points="318.133,-455.089 323.23,-464.377 325.038,-453.938 318.133,-455.089"/>
</g>
<!-- Node15 -->
<g id="node32" class="node"><title>Node15</title>
<a xlink:href="../../d6/db7/RfParameters_8h.html" target="_top" xlink:title="RfParameters.h">
<polygon fill="white" stroke="black" points="880,-406.5 880,-427.5 966,-427.5 966,-406.5 880,-406.5"/>
<text text-anchor="middle" x="923" y="-414.5" font-family="Helvetica,sans-Serif" font-size="10.00">RfParameters.h</text>
</a>
</g>
<!-- Node6&#45;&gt;Node15 -->
<g id="edge34" class="edge"><title>Node6&#45;&gt;Node15</title>
<path fill="none" stroke="midnightblue" d="M381.408,-469.529C500.165,-458.011 773.743,-431.476 879.845,-421.186"/>
<polygon fill="midnightblue" stroke="midnightblue" points="381.042,-466.048 371.426,-470.497 381.718,-473.015 381.042,-466.048"/>
</g>
<!-- Node16 -->
<g id="node34" class="node"><title>Node16</title>
<a xlink:href="../../dc/d61/RfParameters_8cpp.html" target="_top" xlink:title="RfParameters.cpp">
<polygon fill="white" stroke="black" points="1079,-348.5 1079,-369.5 1175,-369.5 1175,-348.5 1079,-348.5"/>
<text text-anchor="middle" x="1127" y="-356.5" font-family="Helvetica,sans-Serif" font-size="10.00">RfParameters.cpp</text>
</a>
</g>
<!-- Node15&#45;&gt;Node16 -->
<g id="edge36" class="edge"><title>Node15&#45;&gt;Node16</title>
<path fill="none" stroke="midnightblue" d="M969.851,-403.68C1006.33,-393.307 1056.28,-379.108 1089.99,-369.523"/>
<polygon fill="midnightblue" stroke="midnightblue" points="968.604,-400.395 959.943,-406.497 970.519,-407.128 968.604,-400.395"/>
</g>
<!-- Node17 -->
<g id="node36" class="node"><title>Node17</title>
<a xlink:href="../../d7/d74/Beams_8h.html" target="_top" xlink:title="Beams.h">
<polygon fill="white" stroke="black" points="839,-348.5 839,-369.5 895,-369.5 895,-348.5 839,-348.5"/>
<text text-anchor="middle" x="867" y="-356.5" font-family="Helvetica,sans-Serif" font-size="10.00">Beams.h</text>
</a>
</g>
<!-- Node15&#45;&gt;Node17 -->
<g id="edge38" class="edge"><title>Node15&#45;&gt;Node17</title>
<path fill="none" stroke="midnightblue" d="M899.749,-399.405C889.473,-389.668 878.406,-377.891 871.854,-369.571"/>
<polygon fill="midnightblue" stroke="midnightblue" points="897.621,-402.202 907.365,-406.362 902.342,-397.033 897.621,-402.202"/>
</g>
<!-- Node19 -->
<g id="node42" class="node"><title>Node19</title>
<a xlink:href="../../d5/d87/globals_8h.html" target="_top" xlink:title="globals.h">
<polygon fill="white" stroke="black" points="689,-290.5 689,-311.5 745,-311.5 745,-290.5 689,-290.5"/>
<text text-anchor="middle" x="717" y="-298.5" font-family="Helvetica,sans-Serif" font-size="10.00">globals.h</text>
</a>
</g>
<!-- Node15&#45;&gt;Node19 -->
<g id="edge126" class="edge"><title>Node15&#45;&gt;Node19</title>
<path fill="none" stroke="midnightblue" d="M884.595,-402.317C865.123,-393.339 841.51,-381.42 821,-370 786.056,-350.542 746.411,-325.659 727.424,-311.714"/>
<polygon fill="midnightblue" stroke="midnightblue" points="883.236,-405.543 893.79,-406.473 886.119,-399.165 883.236,-405.543"/>
</g>
<!-- Node22 -->
<g id="node54" class="node"><title>Node22</title>
<a xlink:href="../../d0/da6/Monitors_8h.html" target="_top" xlink:title="Monitors.h">
<polygon fill="white" stroke="black" points="1173,-116.5 1173,-137.5 1235,-137.5 1235,-116.5 1173,-116.5"/>
<text text-anchor="middle" x="1204" y="-124.5" font-family="Helvetica,sans-Serif" font-size="10.00">Monitors.h</text>
</a>
</g>
<!-- Node15&#45;&gt;Node22 -->
<g id="edge128" class="edge"><title>Node15&#45;&gt;Node22</title>
<path fill="none" stroke="midnightblue" d="M976.444,-412.674C1084.98,-402.413 1321,-371.943 1321,-301 1321,-301 1321,-301 1321,-243 1321,-191.084 1262.19,-154.475 1227.96,-137.564"/>
<polygon fill="midnightblue" stroke="midnightblue" points="975.987,-409.201 966.351,-413.605 976.63,-416.172 975.987,-409.201"/>
</g>
<!-- Node32 -->
<g id="node84" class="node"><title>Node32</title>
<a xlink:href="../../d8/d94/plot__beams_8h.html" target="_top" xlink:title="plot_beams.h">
<polygon fill="white" stroke="black" points="1080.5,-290.5 1080.5,-311.5 1155.5,-311.5 1155.5,-290.5 1080.5,-290.5"/>
<text text-anchor="middle" x="1118" y="-298.5" font-family="Helvetica,sans-Serif" font-size="10.00">plot_beams.h</text>
</a>
</g>
<!-- Node15&#45;&gt;Node32 -->
<g id="edge130" class="edge"><title>Node15&#45;&gt;Node32</title>
<path fill="none" stroke="midnightblue" d="M949.156,-400.981C972.209,-386.907 1006.74,-365.935 1037,-348 1058.4,-335.317 1083.15,-321.006 1099.61,-311.543"/>
<polygon fill="midnightblue" stroke="midnightblue" points="947.03,-398.178 940.322,-406.379 950.68,-404.151 947.03,-398.178"/>
</g>
<!-- Node33 -->
<g id="node87" class="node"><title>Node33</title>
<a xlink:href="../../dc/df2/Slices_8h.html" target="_top" xlink:title="Slices.h">
<polygon fill="white" stroke="black" points="933,-348.5 933,-369.5 985,-369.5 985,-348.5 933,-348.5"/>
<text text-anchor="middle" x="959" y="-356.5" font-family="Helvetica,sans-Serif" font-size="10.00">Slices.h</text>
</a>
</g>
<!-- Node15&#45;&gt;Node33 -->
<g id="edge108" class="edge"><title>Node15&#45;&gt;Node33</title>
<path fill="none" stroke="midnightblue" d="M935,-397.667C940.817,-388.295 947.578,-377.402 952.439,-369.571"/>
<polygon fill="midnightblue" stroke="midnightblue" points="931.903,-396.02 929.603,-406.362 937.85,-399.711 931.903,-396.02"/>
</g>
<!-- Node34 -->
<g id="node94" class="node"><title>Node34</title>
<a xlink:href="../../d2/d51/plot__slices_8h.html" target="_top" xlink:title="plot_slices.h">
<polygon fill="white" stroke="black" points="1210.5,-290.5 1210.5,-311.5 1281.5,-311.5 1281.5,-290.5 1210.5,-290.5"/>
<text text-anchor="middle" x="1246" y="-298.5" font-family="Helvetica,sans-Serif" font-size="10.00">plot_slices.h</text>
</a>
</g>
<!-- Node15&#45;&gt;Node34 -->
<g id="edge136" class="edge"><title>Node15&#45;&gt;Node34</title>
<path fill="none" stroke="midnightblue" d="M960.052,-402.601C981.654,-393.855 1009.24,-382.074 1033,-370 1050.06,-361.334 1052.37,-355.427 1070,-348 1095.21,-337.38 1166.72,-319.649 1210.44,-309.269"/>
<polygon fill="midnightblue" stroke="midnightblue" points="958.563,-399.427 950.584,-406.397 961.168,-405.925 958.563,-399.427"/>
</g>
<!-- Node36 -->
<g id="node102" class="node"><title>Node36</title>
<a xlink:href="../../d3/dda/plot__llrf_8h.html" target="_top" xlink:title="plot_llrf.h">
<polygon fill="white" stroke="black" points="1349,-174.5 1349,-195.5 1405,-195.5 1405,-174.5 1349,-174.5"/>
<text text-anchor="middle" x="1377" y="-182.5" font-family="Helvetica,sans-Serif" font-size="10.00">plot_llrf.h</text>
</a>
</g>
<!-- Node15&#45;&gt;Node36 -->
<g id="edge132" class="edge"><title>Node15&#45;&gt;Node36</title>
<path fill="none" stroke="midnightblue" d="M976.389,-414.32C1081.8,-408.544 1308.76,-393.507 1335,-370 1386.76,-323.627 1381.73,-228.02 1378.36,-195.841"/>
<polygon fill="midnightblue" stroke="midnightblue" points="976.072,-410.832 966.275,-414.867 976.449,-417.822 976.072,-410.832"/>
</g>
<!-- Node37 -->
<g id="node106" class="node"><title>Node37</title>
<a xlink:href="../../de/d44/trackers_2utilities_8h.html" target="_top" xlink:title="utilities.h">
<polygon fill="white" stroke="black" points="390,-348.5 390,-369.5 446,-369.5 446,-348.5 390,-348.5"/>
<text text-anchor="middle" x="418" y="-356.5" font-family="Helvetica,sans-Serif" font-size="10.00">utilities.h</text>
</a>
</g>
<!-- Node15&#45;&gt;Node37 -->
<g id="edge138" class="edge"><title>Node15&#45;&gt;Node37</title>
<path fill="none" stroke="midnightblue" d="M869.75,-410.884C763.29,-398.657 527.446,-371.57 446.173,-362.236"/>
<polygon fill="midnightblue" stroke="midnightblue" points="869.61,-414.391 879.944,-412.055 870.409,-407.437 869.61,-414.391"/>
</g>
<!-- Node17&#45;&gt;Node7 -->
<g id="edge40" class="edge"><title>Node17&#45;&gt;Node7</title>
<path fill="none" stroke="midnightblue" d="M828.635,-356.385C756.142,-351.044 594.262,-337.204 460,-312 457.185,-311.472 454.28,-310.858 451.374,-310.195"/>
<polygon fill="midnightblue" stroke="midnightblue" points="828.442,-359.88 838.668,-357.112 828.947,-352.899 828.442,-359.88"/>
</g>
<!-- Node17&#45;&gt;Node15 -->
<g id="edge100" class="edge"><title>Node17&#45;&gt;Node15</title>
<path fill="none" stroke="midnightblue" d="M890.168,-376.516C900.439,-386.242 911.517,-398.023 918.093,-406.362"/>
<polygon fill="midnightblue" stroke="midnightblue" points="892.304,-373.727 882.558,-369.571 887.585,-378.897 892.304,-373.727"/>
</g>
<!-- Node18 -->
<g id="node39" class="node"><title>Node18</title>
<a xlink:href="../../dc/d7d/Distributions_8h.html" target="_top" xlink:title="Distributions.h">
<polygon fill="white" stroke="black" points="802,-58.5 802,-79.5 882,-79.5 882,-58.5 802,-58.5"/>
<text text-anchor="middle" x="842" y="-66.5" font-family="Helvetica,sans-Serif" font-size="10.00">Distributions.h</text>
</a>
</g>
<!-- Node17&#45;&gt;Node18 -->
<g id="edge42" class="edge"><title>Node17&#45;&gt;Node18</title>
<path fill="none" stroke="midnightblue" d="M885.036,-340.575C891.729,-332.491 898.532,-322.464 902,-312 905.076,-302.719 902.996,-299.727 902,-290 893.958,-211.439 892.192,-190.501 866,-116 861.442,-103.035 853.986,-89.1271 848.592,-79.8326"/>
<polygon fill="midnightblue" stroke="midnightblue" points="882.26,-338.43 878.245,-348.234 887.498,-343.074 882.26,-338.43"/>
</g>
<!-- Node17&#45;&gt;Node19 -->
<g id="edge46" class="edge"><title>Node17&#45;&gt;Node19</title>
<path fill="none" stroke="midnightblue" d="M829.221,-346.578C800.761,-336.174 762.866,-321.484 739.104,-311.62"/>
<polygon fill="midnightblue" stroke="midnightblue" points="828.261,-349.953 838.855,-350.065 830.643,-343.371 828.261,-349.953"/>
</g>
<!-- Node17&#45;&gt;Node22 -->
<g id="edge102" class="edge"><title>Node17&#45;&gt;Node22</title>
<path fill="none" stroke="midnightblue" d="M904.637,-346.238C950.661,-329.526 1029.63,-297.198 1088,-254 1135.77,-218.651 1179.37,-161.517 1196.41,-137.827"/>
<polygon fill="midnightblue" stroke="midnightblue" points="903.297,-343 895.06,-349.662 905.654,-349.591 903.297,-343"/>
</g>
<!-- Node28 -->
<g id="node70" class="node"><title>Node28</title>
<a xlink:href="../../d9/dee/InducedVoltage_8h.html" target="_top" xlink:title="InducedVoltage.h">
<polygon fill="white" stroke="black" points="801,-290.5 801,-311.5 893,-311.5 893,-290.5 801,-290.5"/>
<text text-anchor="middle" x="847" y="-298.5" font-family="Helvetica,sans-Serif" font-size="10.00">InducedVoltage.h</text>
</a>
</g>
<!-- Node17&#45;&gt;Node28 -->
<g id="edge84" class="edge"><title>Node17&#45;&gt;Node28</title>
<path fill="none" stroke="midnightblue" d="M860.029,-338.784C856.868,-329.617 853.261,-319.157 850.645,-311.571"/>
<polygon fill="midnightblue" stroke="midnightblue" points="856.763,-340.049 863.332,-348.362 863.381,-337.767 856.763,-340.049"/>
</g>
<!-- Node31 -->
<g id="node79" class="node"><title>Node31</title>
<a xlink:href="../../dc/d9c/Music_8h.html" target="_top" xlink:title="Music.h">
<polygon fill="white" stroke="black" points="468.5,-290.5 468.5,-311.5 519.5,-311.5 519.5,-290.5 468.5,-290.5"/>
<text text-anchor="middle" x="494" y="-298.5" font-family="Helvetica,sans-Serif" font-size="10.00">Music.h</text>
</a>
</g>
<!-- Node17&#45;&gt;Node31 -->
<g id="edge96" class="edge"><title>Node17&#45;&gt;Node31</title>
<path fill="none" stroke="midnightblue" d="M828.879,-353.072C752.911,-341.26 584.411,-315.059 519.856,-305.021"/>
<polygon fill="midnightblue" stroke="midnightblue" points="828.545,-356.562 838.964,-354.641 829.621,-349.646 828.545,-356.562"/>
</g>
<!-- Node17&#45;&gt;Node32 -->
<g id="edge104" class="edge"><title>Node17&#45;&gt;Node32</title>
<path fill="none" stroke="midnightblue" d="M905.199,-350.173C952.691,-339.199 1033.24,-320.587 1080.43,-309.681"/>
<polygon fill="midnightblue" stroke="midnightblue" points="904.26,-346.798 895.305,-352.459 905.836,-353.618 904.26,-346.798"/>
</g>
<!-- Node18&#45;&gt;Node8 -->
<g id="edge44" class="edge"><title>Node18&#45;&gt;Node8</title>
<path fill="none" stroke="midnightblue" d="M791.54,-65.3279C646.208,-54.7517 228.271,-24.3372 90.0115,-14.2756"/>
<polygon fill="midnightblue" stroke="midnightblue" points="791.703,-68.8489 801.93,-66.084 792.211,-61.8674 791.703,-68.8489"/>
</g>
<!-- Node19&#45;&gt;Node3 -->
<g id="edge48" class="edge"><title>Node19&#45;&gt;Node3</title>
<path fill="none" stroke="midnightblue" d="M680.363,-286.739C653.962,-276.462 618.92,-262.821 595.033,-253.523"/>
<polygon fill="midnightblue" stroke="midnightblue" points="679.429,-290.131 690.017,-290.497 681.968,-283.607 679.429,-290.131"/>
</g>
<!-- Node19&#45;&gt;Node4 -->
<g id="edge52" class="edge"><title>Node19&#45;&gt;Node4</title>
<path fill="none" stroke="midnightblue" d="M679.07,-292.165C634.525,-281.789 560.699,-264.593 513.218,-253.533"/>
<polygon fill="midnightblue" stroke="midnightblue" points="678.387,-295.599 688.921,-294.459 679.975,-288.782 678.387,-295.599"/>
</g>
<!-- Node19&#45;&gt;Node11 -->
<g id="edge54" class="edge"><title>Node19&#45;&gt;Node11</title>
<path fill="none" stroke="midnightblue" d="M678.531,-295.941C597.818,-285.325 411.016,-260.757 323.213,-249.209"/>
<polygon fill="midnightblue" stroke="midnightblue" points="678.372,-299.45 688.743,-297.284 679.284,-292.509 678.372,-299.45"/>
</g>
<!-- Node19&#45;&gt;Node15 -->
<g id="edge58" class="edge"><title>Node19&#45;&gt;Node15</title>
<path fill="none" stroke="midnightblue" d="M748.695,-316.85C773.333,-331.227 808.014,-352.747 839,-370 862.866,-383.289 890.934,-397.253 908.096,-406.473"/>
<polygon fill="midnightblue" stroke="midnightblue" points="750.185,-313.67 739.772,-311.714 746.693,-319.736 750.185,-313.67"/>
</g>
<!-- Node19&#45;&gt;Node17 -->
<g id="edge56" class="edge"><title>Node19&#45;&gt;Node17</title>
<path fill="none" stroke="midnightblue" d="M754.732,-313.404C783.309,-323.85 821.42,-338.627 845.176,-348.497"/>
<polygon fill="midnightblue" stroke="midnightblue" points="755.655,-310.016 745.06,-309.905 753.273,-316.599 755.655,-310.016"/>
</g>
<!-- Node20 -->
<g id="node45" class="node"><title>Node20</title>
<a xlink:href="../../da/d77/globals_8cpp.html" target="_top" xlink:title="globals.cpp">
<polygon fill="white" stroke="black" points="713,-232.5 713,-253.5 779,-253.5 779,-232.5 713,-232.5"/>
<text text-anchor="middle" x="746" y="-240.5" font-family="Helvetica,sans-Serif" font-size="10.00">globals.cpp</text>
</a>
</g>
<!-- Node19&#45;&gt;Node20 -->
<g id="edge50" class="edge"><title>Node19&#45;&gt;Node20</title>
<path fill="none" stroke="midnightblue" d="M726.813,-281.373C731.466,-272.068 736.84,-261.32 740.715,-253.571"/>
<polygon fill="midnightblue" stroke="midnightblue" points="723.661,-279.852 722.319,-290.362 729.922,-282.983 723.661,-279.852"/>
</g>
<!-- Node21 -->
<g id="node51" class="node"><title>Node21</title>
<a xlink:href="../../d3/d33/PhaseLoop_8h.html" target="_top" xlink:title="PhaseLoop.h">
<polygon fill="white" stroke="black" points="731,-174.5 731,-195.5 805,-195.5 805,-174.5 731,-174.5"/>
<text text-anchor="middle" x="768" y="-182.5" font-family="Helvetica,sans-Serif" font-size="10.00">PhaseLoop.h</text>
</a>
</g>
<!-- Node19&#45;&gt;Node21 -->
<g id="edge60" class="edge"><title>Node19&#45;&gt;Node21</title>
<path fill="none" stroke="midnightblue" d="M754.064,-285.638C767.231,-278.16 780.61,-267.754 788,-254 798.271,-234.883 785.341,-209.877 776.003,-195.819"/>
<polygon fill="midnightblue" stroke="midnightblue" points="752.294,-282.614 745.058,-290.353 755.541,-288.816 752.294,-282.614"/>
</g>
<!-- Node27 -->
<g id="node66" class="node"><title>Node27</title>
<a xlink:href="../../d9/dc8/PhaseNoise_8h.html" target="_top" xlink:title="PhaseNoise.h">
<polygon fill="white" stroke="black" points="617,-232.5 617,-253.5 695,-253.5 695,-232.5 617,-232.5"/>
<text text-anchor="middle" x="656" y="-240.5" font-family="Helvetica,sans-Serif" font-size="10.00">PhaseNoise.h</text>
</a>
</g>
<!-- Node19&#45;&gt;Node27 -->
<g id="edge78" class="edge"><title>Node19&#45;&gt;Node27</title>
<path fill="none" stroke="midnightblue" d="M698.495,-283.405C688.255,-273.668 675.869,-261.891 667.117,-253.571"/>
<polygon fill="midnightblue" stroke="midnightblue" points="696.153,-286.008 705.812,-290.362 700.976,-280.935 696.153,-286.008"/>
</g>
<!-- Node21&#45;&gt;Node12 -->
<g id="edge62" class="edge"><title>Node21&#45;&gt;Node12</title>
<path fill="none" stroke="midnightblue" d="M720.931,-173.13C679.469,-162.675 619.644,-147.589 579.831,-137.549"/>
<polygon fill="midnightblue" stroke="midnightblue" points="720.239,-176.565 730.791,-175.617 721.95,-169.778 720.239,-176.565"/>
</g>
<!-- Node21&#45;&gt;Node22 -->
<g id="edge64" class="edge"><title>Node21&#45;&gt;Node22</title>
<path fill="none" stroke="midnightblue" d="M815.331,-178.704C905.033,-166.771 1097.54,-141.162 1172.87,-131.141"/>
<polygon fill="midnightblue" stroke="midnightblue" points="814.624,-175.267 805.173,-180.055 815.547,-182.206 814.624,-175.267"/>
</g>
<!-- Node26 -->
<g id="node62" class="node"><title>Node26</title>
<a xlink:href="../../d2/d0e/Tracker_8h.html" target="_top" xlink:title="Tracker.h">
<polygon fill="white" stroke="black" points="785,-116.5 785,-137.5 843,-137.5 843,-116.5 785,-116.5"/>
<text text-anchor="middle" x="814" y="-124.5" font-family="Helvetica,sans-Serif" font-size="10.00">Tracker.h</text>
</a>
</g>
<!-- Node21&#45;&gt;Node26 -->
<g id="edge72" class="edge"><title>Node21&#45;&gt;Node26</title>
<path fill="none" stroke="midnightblue" d="M782.87,-166.25C790.405,-156.75 799.276,-145.565 805.616,-137.571"/>
<polygon fill="midnightblue" stroke="midnightblue" points="779.909,-164.352 776.437,-174.362 785.393,-168.702 779.909,-164.352"/>
</g>
<!-- Node23 -->
<g id="node56" class="node"><title>Node23</title>
<a xlink:href="../../da/dda/Monitors_8cpp.html" target="_top" xlink:title="Monitors.cpp">
<polygon fill="white" stroke="black" points="1205.5,-58.5 1205.5,-79.5 1278.5,-79.5 1278.5,-58.5 1205.5,-58.5"/>
<text text-anchor="middle" x="1242" y="-66.5" font-family="Helvetica,sans-Serif" font-size="10.00">Monitors.cpp</text>
</a>
</g>
<!-- Node22&#45;&gt;Node23 -->
<g id="edge66" class="edge"><title>Node22&#45;&gt;Node23</title>
<path fill="none" stroke="midnightblue" d="M1216.48,-107.959C1222.66,-98.522 1229.89,-87.4835 1235.07,-79.5707"/>
<polygon fill="midnightblue" stroke="midnightblue" points="1213.52,-106.079 1210.97,-116.362 1219.38,-109.915 1213.52,-106.079"/>
</g>
<!-- Node24 -->
<g id="node58" class="node"><title>Node24</title>
<a xlink:href="../../d3/d2c/plot__beams_8cpp.html" target="_top" xlink:title="plot_beams.cpp">
<polygon fill="white" stroke="black" points="1102,-58.5 1102,-79.5 1188,-79.5 1188,-58.5 1102,-58.5"/>
<text text-anchor="middle" x="1145" y="-66.5" font-family="Helvetica,sans-Serif" font-size="10.00">plot_beams.cpp</text>
</a>
</g>
<!-- Node22&#45;&gt;Node24 -->
<g id="edge68" class="edge"><title>Node22&#45;&gt;Node24</title>
<path fill="none" stroke="midnightblue" d="M1185.81,-109.118C1175.96,-99.4377 1164.13,-87.8098 1155.75,-79.5707"/>
<polygon fill="midnightblue" stroke="midnightblue" points="1183.59,-111.847 1193.18,-116.362 1188.5,-106.856 1183.59,-111.847"/>
</g>
<!-- Node25 -->
<g id="node60" class="node"><title>Node25</title>
<a xlink:href="../../d3/dca/plot__llrf_8cpp.html" target="_top" xlink:title="plot_llrf.cpp">
<polygon fill="white" stroke="black" points="1307.5,-58.5 1307.5,-79.5 1374.5,-79.5 1374.5,-58.5 1307.5,-58.5"/>
<text text-anchor="middle" x="1341" y="-66.5" font-family="Helvetica,sans-Serif" font-size="10.00">plot_llrf.cpp</text>
</a>
</g>
<!-- Node22&#45;&gt;Node25 -->
<g id="edge70" class="edge"><title>Node22&#45;&gt;Node25</title>
<path fill="none" stroke="midnightblue" d="M1238.3,-112.479C1262.42,-102.269 1294.14,-88.8386 1315.91,-79.6212"/>
<polygon fill="midnightblue" stroke="midnightblue" points="1236.65,-109.375 1228.81,-116.497 1239.38,-115.821 1236.65,-109.375"/>
</g>
<!-- Node26&#45;&gt;Node13 -->
<g id="edge74" class="edge"><title>Node26&#45;&gt;Node13</title>
<path fill="none" stroke="midnightblue" d="M774.988,-121.343C696.856,-110.014 522.342,-84.7096 448.286,-73.9714"/>
<polygon fill="midnightblue" stroke="midnightblue" points="774.512,-124.811 784.911,-122.782 775.517,-117.883 774.512,-124.811"/>
</g>
<!-- Node26&#45;&gt;Node18 -->
<g id="edge76" class="edge"><title>Node26&#45;&gt;Node18</title>
<path fill="none" stroke="midnightblue" d="M823.617,-107.079C828.076,-97.8422 833.195,-87.2388 836.897,-79.5707"/>
<polygon fill="midnightblue" stroke="midnightblue" points="820.331,-105.835 819.136,-116.362 826.635,-108.878 820.331,-105.835"/>
</g>
<!-- Node27&#45;&gt;Node5 -->
<g id="edge80" class="edge"><title>Node27&#45;&gt;Node5</title>
<path fill="none" stroke="midnightblue" d="M606.998,-230.802C564.986,-220.344 505.097,-205.436 465.184,-195.501"/>
<polygon fill="midnightblue" stroke="midnightblue" points="606.189,-234.207 616.738,-233.227 607.88,-227.415 606.189,-234.207"/>
</g>
<!-- Node27&#45;&gt;Node21 -->
<g id="edge82" class="edge"><title>Node27&#45;&gt;Node21</title>
<path fill="none" stroke="midnightblue" d="M685.363,-227.794C704.904,-217.675 730.086,-204.634 747.49,-195.621"/>
<polygon fill="midnightblue" stroke="midnightblue" points="683.553,-224.79 676.282,-232.497 686.772,-231.006 683.553,-224.79"/>
</g>
<!-- Node28&#45;&gt;Node4 -->
<g id="edge86" class="edge"><title>Node28&#45;&gt;Node4</title>
<path fill="none" stroke="midnightblue" d="M790.718,-293.315C726.91,-284.462 619.818,-269.176 528,-254 525.283,-253.551 522.5,-253.08 519.691,-252.595"/>
<polygon fill="midnightblue" stroke="midnightblue" points="790.577,-296.829 800.962,-294.733 791.536,-289.895 790.577,-296.829"/>
</g>
<!-- Node28&#45;&gt;Node18 -->
<g id="edge88" class="edge"><title>Node28&#45;&gt;Node18</title>
<path fill="none" stroke="midnightblue" d="M849.371,-279.888C852.834,-245.462 858.222,-175.139 852,-116 850.673,-103.389 847.397,-89.1844 844.953,-79.7243"/>
<polygon fill="midnightblue" stroke="midnightblue" points="845.86,-279.806 848.29,-290.118 852.822,-280.541 845.86,-279.806"/>
</g>
<!-- Node28&#45;&gt;Node26 -->
<g id="edge94" class="edge"><title>Node28&#45;&gt;Node26</title>
<path fill="none" stroke="midnightblue" d="M843.055,-280.2C836.002,-243.013 821.465,-166.36 816.072,-137.928"/>
<polygon fill="midnightblue" stroke="midnightblue" points="839.683,-281.205 844.985,-290.377 846.561,-279.9 839.683,-281.205"/>
</g>
<!-- Node29 -->
<g id="node74" class="node"><title>Node29</title>
<a xlink:href="../../da/d77/plot__impedance_8h.html" target="_top" xlink:title="plot_impedance.h">
<polygon fill="white" stroke="black" points="986.5,-232.5 986.5,-253.5 1079.5,-253.5 1079.5,-232.5 986.5,-232.5"/>
<text text-anchor="middle" x="1033" y="-240.5" font-family="Helvetica,sans-Serif" font-size="10.00">plot_impedance.h</text>
</a>
</g>
<!-- Node28&#45;&gt;Node29 -->
<g id="edge90" class="edge"><title>Node28&#45;&gt;Node29</title>
<path fill="none" stroke="midnightblue" d="M890.573,-287.413C923.758,-277.065 968.779,-263.026 999.254,-253.523"/>
<polygon fill="midnightblue" stroke="midnightblue" points="889.188,-284.178 880.683,-290.497 891.272,-290.861 889.188,-284.178"/>
</g>
<!-- Node30 -->
<g id="node76" class="node"><title>Node30</title>
<a xlink:href="../../d8/d29/plot__impedance_8cpp.html" target="_top" xlink:title="plot_impedance.cpp">
<polygon fill="white" stroke="black" points="975,-174.5 975,-195.5 1079,-195.5 1079,-174.5 975,-174.5"/>
<text text-anchor="middle" x="1027" y="-182.5" font-family="Helvetica,sans-Serif" font-size="10.00">plot_impedance.cpp</text>
</a>
</g>
<!-- Node29&#45;&gt;Node30 -->
<g id="edge92" class="edge"><title>Node29&#45;&gt;Node30</title>
<path fill="none" stroke="midnightblue" d="M1030.85,-222.191C1029.91,-213.168 1028.86,-202.994 1028.09,-195.571"/>
<polygon fill="midnightblue" stroke="midnightblue" points="1027.39,-222.775 1031.9,-232.362 1034.35,-222.055 1027.39,-222.775"/>
</g>
<!-- Node31&#45;&gt;Node10 -->
<g id="edge98" class="edge"><title>Node31&#45;&gt;Node10</title>
<path fill="none" stroke="midnightblue" d="M458.086,-289.814C353.148,-265.953 322.327,-275.663 220,-254 217.182,-253.403 214.267,-252.725 211.356,-252.004"/>
<polygon fill="midnightblue" stroke="midnightblue" points="457.602,-293.294 468.135,-292.148 459.187,-286.476 457.602,-293.294"/>
</g>
<!-- Node32&#45;&gt;Node24 -->
<g id="edge106" class="edge"><title>Node32&#45;&gt;Node24</title>
<path fill="none" stroke="midnightblue" d="M1120.4,-280.335C1125.97,-232.5 1139.59,-115.508 1143.76,-79.6335"/>
<polygon fill="midnightblue" stroke="midnightblue" points="1116.91,-280.091 1119.23,-290.429 1123.86,-280.9 1116.91,-280.091"/>
</g>
<!-- Node33&#45;&gt;Node3 -->
<g id="edge110" class="edge"><title>Node33&#45;&gt;Node3</title>
<path fill="none" stroke="midnightblue" d="M922.792,-351.571C888.356,-343.868 835.502,-330.37 792,-312 774.022,-304.408 772.099,-297.298 754,-290 692.017,-265.007 672.67,-270.862 608,-254 605.212,-253.273 602.319,-252.505 599.422,-251.726"/>
<polygon fill="midnightblue" stroke="midnightblue" points="922.34,-355.055 932.857,-353.774 923.837,-348.217 922.34,-355.055"/>
</g>
<!-- Node33&#45;&gt;Node19 -->
<g id="edge112" class="edge"><title>Node33&#45;&gt;Node19</title>
<path fill="none" stroke="midnightblue" d="M922.895,-350.805C882.792,-341.635 816.16,-326.199 759,-312 754.611,-310.91 749.972,-309.726 745.442,-308.553"/>
<polygon fill="midnightblue" stroke="midnightblue" points="922.213,-354.239 932.741,-353.052 923.77,-347.415 922.213,-354.239"/>
</g>
<!-- Node33&#45;&gt;Node22 -->
<g id="edge114" class="edge"><title>Node33&#45;&gt;Node22</title>
<path fill="none" stroke="midnightblue" d="M995.179,-352.87C1050.8,-343.127 1152.16,-323.99 1164,-312 1212.72,-262.669 1208.3,-168.98 1205.24,-137.566"/>
<polygon fill="midnightblue" stroke="midnightblue" points="994.286,-349.472 985.032,-354.632 995.483,-356.369 994.286,-349.472"/>
</g>
<!-- Node33&#45;&gt;Node26 -->
<g id="edge124" class="edge"><title>Node33&#45;&gt;Node26</title>
<path fill="none" stroke="midnightblue" d="M947.016,-339.825C917.736,-292.977 843.304,-173.886 820.646,-137.634"/>
<polygon fill="midnightblue" stroke="midnightblue" points="944.125,-341.804 952.393,-348.429 950.061,-338.094 944.125,-341.804"/>
</g>
<!-- Node33&#45;&gt;Node29 -->
<g id="edge118" class="edge"><title>Node33&#45;&gt;Node29</title>
<path fill="none" stroke="midnightblue" d="M971.263,-339.776C986.984,-315.132 1013.7,-273.255 1026.19,-253.679"/>
<polygon fill="midnightblue" stroke="midnightblue" points="968.257,-337.982 965.829,-348.295 974.158,-341.747 968.257,-337.982"/>
</g>
<!-- Node33&#45;&gt;Node32 -->
<g id="edge116" class="edge"><title>Node33&#45;&gt;Node32</title>
<path fill="none" stroke="midnightblue" d="M994.826,-345.931C1023.27,-335.556 1062.52,-321.237 1089.01,-311.575"/>
<polygon fill="midnightblue" stroke="midnightblue" points="993.451,-342.707 985.256,-349.422 995.85,-349.284 993.451,-342.707"/>
</g>
<!-- Node33&#45;&gt;Node34 -->
<g id="edge120" class="edge"><title>Node33&#45;&gt;Node34</title>
<path fill="none" stroke="midnightblue" d="M995.036,-352.184C1041.71,-343.288 1125.55,-327.073 1197,-312 1201.35,-311.082 1205.91,-310.094 1210.43,-309.099"/>
<polygon fill="midnightblue" stroke="midnightblue" points="994.276,-348.766 985.106,-354.074 995.584,-355.643 994.276,-348.766"/>
</g>
<!-- Node35 -->
<g id="node96" class="node"><title>Node35</title>
<a xlink:href="../../d4/dfd/plot__slices_8cpp.html" target="_top" xlink:title="plot_slices.cpp">
<polygon fill="white" stroke="black" points="1211,-232.5 1211,-253.5 1293,-253.5 1293,-232.5 1211,-232.5"/>
<text text-anchor="middle" x="1252" y="-240.5" font-family="Helvetica,sans-Serif" font-size="10.00">plot_slices.cpp</text>
</a>
</g>
<!-- Node34&#45;&gt;Node35 -->
<g id="edge122" class="edge"><title>Node34&#45;&gt;Node35</title>
<path fill="none" stroke="midnightblue" d="M1248.15,-280.191C1249.09,-271.168 1250.14,-260.994 1250.91,-253.571"/>
<polygon fill="midnightblue" stroke="midnightblue" points="1244.65,-280.055 1247.1,-290.362 1251.61,-280.775 1244.65,-280.055"/>
</g>
<!-- Node36&#45;&gt;Node25 -->
<g id="edge134" class="edge"><title>Node36&#45;&gt;Node25</title>
<path fill="none" stroke="midnightblue" d="M1370.62,-164.458C1362.93,-139.663 1350.28,-98.9098 1344.31,-79.6792"/>
<polygon fill="midnightblue" stroke="midnightblue" points="1367.37,-165.782 1373.68,-174.295 1374.06,-163.707 1367.37,-165.782"/>
</g>
<!-- Node37&#45;&gt;Node7 -->
<g id="edge140" class="edge"><title>Node37&#45;&gt;Node7</title>
<path fill="none" stroke="midnightblue" d="M418,-338.191C418,-329.168 418,-318.994 418,-311.571"/>
<polygon fill="midnightblue" stroke="midnightblue" points="414.5,-338.362 418,-348.362 421.5,-338.362 414.5,-338.362"/>
</g>
<!-- Node37&#45;&gt;Node8 -->
<g id="edge142" class="edge"><title>Node37&#45;&gt;Node8</title>
<path fill="none" stroke="midnightblue" d="M402.196,-340.709C387.3,-324.713 363.507,-302.189 338,-290 213.187,-230.357 45,-323.332 45,-185 45,-185 45,-185 45,-127 45,-88.1319 45,-41.9382 45,-21.5561"/>
<polygon fill="midnightblue" stroke="midnightblue" points="399.835,-343.316 409.137,-348.389 405.029,-338.623 399.835,-343.316"/>
</g>
<!-- Node37&#45;&gt;Node14 -->
<g id="edge144" class="edge"><title>Node37&#45;&gt;Node14</title>
<path fill="none" stroke="midnightblue" d="M386.594,-344.069C365.229,-333.912 337.471,-320.716 318.341,-311.621"/>
<polygon fill="midnightblue" stroke="midnightblue" points="385.373,-347.364 395.907,-348.497 388.378,-341.042 385.373,-347.364"/>
</g>
</g>
</svg>
        <g id="navigator" transform="translate(0 0)" fill="#404254">
                <rect fill="#f2f5e9" fill-opacity="0.5" stroke="#606060" stroke-width=".5" x="0" y="0" width="60" height="60"/>
                <use id="zoomplus" xlink:href="#zoomPlus" x="17" y="9" onmousedown="handleZoom(evt,'in')"/>
                <use id="zoomminus" xlink:href="#zoomMin" x="42" y="9" onmousedown="handleZoom(evt,'out')"/>
                <use id="reset" xlink:href="#resetDef" x="30" y="36" onmousedown="handleReset()"/>
                <g id="arrowUp" xlink:href="#dirArrow" transform="translate(30 24)" onmousedown="handlePan(0,-1)">
                  <use xlink:href="#rim" fill="#404040">
                        <set attributeName="fill" to="#808080" begin="arrowUp.mouseover" end="arrowUp.mouseout"/>
                  </use>
                  <path fill="none" stroke="white" stroke-width="1.5" d="M0,-3.0v7 M-2.5,-0.5L0,-3.0L2.5,-0.5"/>
                </g>
                <g id="arrowRight" xlink:href="#dirArrow" transform="rotate(90) translate(36 -43)" onmousedown="handlePan(1,0)">
                  <use xlink:href="#rim" fill="#404040">
                        <set attributeName="fill" to="#808080" begin="arrowRight.mouseover" end="arrowRight.mouseout"/>
                  </use>
                  <path fill="none" stroke="white" stroke-width="1.5" d="M0,-3.0v7 M-2.5,-0.5L0,-3.0L2.5,-0.5"/>
                </g>
                <g id="arrowDown" xlink:href="#dirArrow" transform="rotate(180) translate(-30 -48)" onmousedown="handlePan(0,1)">
                  <use xlink:href="#rim" fill="#404040">
                        <set attributeName="fill" to="#808080" begin="arrowDown.mouseover" end="arrowDown.mouseout"/>
                  </use>
                  <path fill="none" stroke="white" stroke-width="1.5" d="M0,-3.0v7 M-2.5,-0.5L0,-3.0L2.5,-0.5"/>
                </g>
                <g id="arrowLeft" xlink:href="#dirArrow" transform="rotate(270) translate(-36 17)" onmousedown="handlePan(-1,0)">
                  <use xlink:href="#rim" fill="#404040">
                        <set attributeName="fill" to="#808080" begin="arrowLeft.mouseover" end="arrowLeft.mouseout"/>
                  </use>
                  <path fill="none" stroke="white" stroke-width="1.5" d="M0,-3.0v7 M-2.5,-0.5L0,-3.0L2.5,-0.5"/>
                </g>
        </g>
        <svg viewBox="0 0 15 15" width="100%" height="30px" preserveAspectRatio="xMaxYMin meet">
         <g id="arrow_out" transform="scale(0.3 0.3)">
          <a xlink:href="openmp_8h__dep__incl_org.svg" target="_base">
           <rect id="button" ry="5" rx="5" y="6" x="6" height="38" width="38"
                fill="#f2f5e9" fill-opacity="0.5" stroke="#606060" stroke-width="1.0"/>
           <path id="arrow"
             d="M 11.500037,31.436501 C 11.940474,20.09759 22.043105,11.32322 32.158766,21.979434 L 37.068811,17.246167 C 37.068811,17.246167 37.088388,32 37.088388,32 L 22.160133,31.978069 C 22.160133,31.978069 26.997745,27.140456 26.997745,27.140456 C 18.528582,18.264221 13.291696,25.230495 11.500037,31.436501 z"
             style="fill:#404040;"/>
          </a>
         </g>
        </svg>
</svg>
