<?xml version="1.0" encoding="UTF-8" standalone="no"?>
<!DOCTYPE svg PUBLIC "-//W3C//DTD SVG 1.1//EN"
 "http://www.w3.org/Graphics/SVG/1.1/DTD/svg11.dtd">
<!-- Generated by graphviz version 2.26.3 (20100126.1600)
 -->
<!-- Title: openmp.h Pages: 1 -->
<!--zoomable 552 -->
<svg id="main" version="1.1" xmlns="http://www.w3.org/2000/svg" xmlns:xlink="http://www.w3.org/1999/xlink" xml:space="preserve" onload="init(evt)">
        <defs>
                <circle id="rim" cx="0" cy="0" r="7"/>
                <circle id="rim2" cx="0" cy="0" r="3.5"/>
                <g id="zoomPlus">
                        <use xlink:href="#rim" fill="#404040">
                                <set attributeName="fill" to="#808080" begin="zoomplus.mouseover" end="zoomplus.mouseout"/>
                        </use>
                        <path d="M-4,0h8M0,-4v8" fill="none" stroke="white" stroke-width="1.5" pointer-events="none"/>
                </g>
                <g id="zoomMin">
                        <use xlink:href="#rim" fill="#404040">
                                <set attributeName="fill" to="#808080" begin="zoomminus.mouseover" end="zoomminus.mouseout"/>
                        </use>
                        <path d="M-4,0h8" fill="none" stroke="white" stroke-width="1.5" pointer-events="none"/>
                </g>
                <g id="dirArrow">
                        <path fill="none" stroke="white" stroke-width="1.5" d="M0,-3.0v7 M-2.5,-0.5L0,-3.0L2.5,-0.5"/>
                </g>
               <g id="resetDef">
                       <use xlink:href="#rim2" fill="#404040">
                               <set attributeName="fill" to="#808080" begin="reset.mouseover" end="reset.mouseout"/>
                       </use>
               </g>
        </defs>

<script type="text/javascript">
var viewWidth = 1385;
var viewHeight = 552;
var sectionId = 'dynsection-0';
</script>
<script xlink:href="../../svgpan.js"/>
<svg id="graph" class="graph">
<g id="viewport">
<title>openmp.h</title>
<polygon fill="white" stroke="white" points="-4,5 -4,-548 1382,-548 1382,5 -4,5"/>
<!-- Node1 -->
<g id="node1" class="node"><title>Node1</title>
<polygon fill="#bfbfbf" stroke="black" points="1183.5,-522.5 1183.5,-543.5 1242.5,-543.5 1242.5,-522.5 1183.5,-522.5"/>
<text text-anchor="middle" x="1213" y="-530.5" font-family="Helvetica,sans-Serif" font-size="10.00">openmp.h</text>
</g>
<!-- Node2 -->
<g id="node3" class="node"><title>Node2</title>
<a xlink:href="../../d7/d76/fft_8h.html" target="_top" xlink:title="fft.h">
<polygon fill="white" stroke="black" points="1277,-290.5 1277,-311.5 1311,-311.5 1311,-290.5 1277,-290.5"/>
<text text-anchor="middle" x="1294" y="-298.5" font-family="Helvetica,sans-Serif" font-size="10.00">fft.h</text>
</a>
</g>
<!-- Node1&#45;&gt;Node2 -->
<g id="edge2" class="edge"><title>Node1&#45;&gt;Node2</title>
<path fill="none" stroke="midnightblue" d="M1220,-512.937C1236.57,-465.489 1277.71,-347.659 1290.29,-311.634"/>
<polygon fill="midnightblue" stroke="midnightblue" points="1216.68,-511.834 1216.69,-522.429 1223.29,-514.141 1216.68,-511.834"/>
</g>
<!-- Node6 -->
<g id="node11" class="node"><title>Node6</title>
<a xlink:href="../../d2/de2/math__functions_8h.html" target="_top" xlink:title="math_functions.h">
<polygon fill="white" stroke="black" points="1024,-464.5 1024,-485.5 1116,-485.5 1116,-464.5 1024,-464.5"/>
<text text-anchor="middle" x="1070" y="-472.5" font-family="Helvetica,sans-Serif" font-size="10.00">math_functions.h</text>
</a>
</g>
<!-- Node1&#45;&gt;Node6 -->
<g id="edge10" class="edge"><title>Node1&#45;&gt;Node6</title>
<path fill="none" stroke="midnightblue" d="M1177.53,-518.615C1152.32,-508.389 1119.01,-494.88 1096.19,-485.621"/>
<polygon fill="midnightblue" stroke="midnightblue" points="1176.52,-521.981 1187.1,-522.497 1179.15,-515.495 1176.52,-521.981"/>
</g>
<!-- Node3 -->
<g id="node5" class="node"><title>Node3</title>
<a xlink:href="../../d7/d91/Slices_8cpp.html" target="_top" xlink:title="Slices.cpp">
<polygon fill="white" stroke="black" points="804,-232.5 804,-253.5 866,-253.5 866,-232.5 804,-232.5"/>
<text text-anchor="middle" x="835" y="-240.5" font-family="Helvetica,sans-Serif" font-size="10.00">Slices.cpp</text>
</a>
</g>
<!-- Node2&#45;&gt;Node3 -->
<g id="edge4" class="edge"><title>Node2&#45;&gt;Node3</title>
<path fill="none" stroke="midnightblue" d="M1266.78,-296.416C1254.1,-294.343 1238.8,-291.93 1225,-290 1091.78,-271.36 932.316,-253.542 866.143,-246.345"/>
<polygon fill="midnightblue" stroke="midnightblue" points="1266.29,-299.882 1276.73,-298.059 1267.43,-292.976 1266.29,-299.882"/>
</g>
<!-- Node4 -->
<g id="node7" class="node"><title>Node4</title>
<a xlink:href="../../d5/dfa/InducedVoltage_8cpp.html" target="_top" xlink:title="InducedVoltage.cpp">
<polygon fill="white" stroke="black" points="1073.5,-232.5 1073.5,-253.5 1176.5,-253.5 1176.5,-232.5 1073.5,-232.5"/>
<text text-anchor="middle" x="1125" y="-240.5" font-family="Helvetica,sans-Serif" font-size="10.00">InducedVoltage.cpp</text>
</a>
</g>
<!-- Node2&#45;&gt;Node4 -->
<g id="edge6" class="edge"><title>Node2&#45;&gt;Node4</title>
<path fill="none" stroke="midnightblue" d="M1267.33,-291.513C1265.87,-290.999 1264.42,-290.492 1263,-290 1226.42,-277.283 1184.28,-262.979 1156.28,-253.527"/>
<polygon fill="midnightblue" stroke="midnightblue" points="1266.36,-294.883 1276.96,-294.909 1268.69,-288.281 1266.36,-294.883"/>
</g>
<!-- Node5 -->
<g id="node9" class="node"><title>Node5</title>
<a xlink:href="../../db/d82/PhaseNoise_8cpp.html" target="_top" xlink:title="PhaseNoise.cpp">
<polygon fill="white" stroke="black" points="1249.5,-174.5 1249.5,-195.5 1338.5,-195.5 1338.5,-174.5 1249.5,-174.5"/>
<text text-anchor="middle" x="1294" y="-182.5" font-family="Helvetica,sans-Serif" font-size="10.00">PhaseNoise.cpp</text>
</a>
</g>
<!-- Node2&#45;&gt;Node5 -->
<g id="edge8" class="edge"><title>Node2&#45;&gt;Node5</title>
<path fill="none" stroke="midnightblue" d="M1294,-280.123C1294,-255.298 1294,-214.824 1294,-195.679"/>
<polygon fill="midnightblue" stroke="midnightblue" points="1290.5,-280.295 1294,-290.295 1297.5,-280.295 1290.5,-280.295"/>
</g>
<!-- Node6&#45;&gt;Node3 -->
<g id="edge16" class="edge"><title>Node6&#45;&gt;Node3</title>
<path fill="none" stroke="midnightblue" d="M1090.09,-456.984C1127.2,-421.58 1198.79,-341.876 1154,-290 1135.3,-268.338 942.912,-251.293 866.265,-245.311"/>
<polygon fill="midnightblue" stroke="midnightblue" points="1087.25,-454.844 1082.33,-464.225 1092.03,-459.963 1087.25,-454.844"/>
</g>
<!-- Node6&#45;&gt;Node4 -->
<g id="edge18" class="edge"><title>Node6&#45;&gt;Node4</title>
<path fill="none" stroke="midnightblue" d="M1126.14,-465.215C1165.42,-457.094 1212.94,-444.258 1225,-428 1261.54,-378.739 1257.88,-341.778 1225,-290 1213.43,-271.781 1192.72,-260.499 1173.13,-253.574"/>
<polygon fill="midnightblue" stroke="midnightblue" points="1125.22,-461.831 1116.1,-467.228 1126.6,-468.694 1125.22,-461.831"/>
</g>
<!-- Node6&#45;&gt;Node5 -->
<g id="edge26" class="edge"><title>Node6&#45;&gt;Node5</title>
<path fill="none" stroke="midnightblue" d="M1126.32,-464.446C1169.96,-455.44 1226.07,-441.791 1245,-428 1294.62,-391.85 1302.62,-370.882 1320,-312 1332.49,-269.692 1310.61,-217.723 1299.67,-195.687"/>
<polygon fill="midnightblue" stroke="midnightblue" points="1125.48,-461.046 1116.37,-466.464 1126.87,-467.906 1125.48,-461.046"/>
</g>
<!-- Node7 -->
<g id="node13" class="node"><title>Node7</title>
<a xlink:href="../../dc/d0f/Beams_8cpp.html" target="_top" xlink:title="Beams.cpp">
<polygon fill="white" stroke="black" points="1079,-290.5 1079,-311.5 1145,-311.5 1145,-290.5 1079,-290.5"/>
<text text-anchor="middle" x="1112" y="-298.5" font-family="Helvetica,sans-Serif" font-size="10.00">Beams.cpp</text>
</a>
</g>
<!-- Node6&#45;&gt;Node7 -->
<g id="edge12" class="edge"><title>Node6&#45;&gt;Node7</title>
<path fill="none" stroke="midnightblue" d="M1078.91,-454.871C1087.68,-434.067 1100.65,-400.43 1107,-370 1111.22,-349.777 1112.02,-325.581 1112.1,-311.88"/>
<polygon fill="midnightblue" stroke="midnightblue" points="1075.61,-453.671 1074.87,-464.24 1082.04,-456.439 1075.61,-453.671"/>
</g>
<!-- Node8 -->
<g id="node15" class="node"><title>Node8</title>
<a xlink:href="../../db/de1/Distributions_8cpp.html" target="_top" xlink:title="Distributions.cpp">
<polygon fill="white" stroke="black" points="1159,-0.5 1159,-21.5 1249,-21.5 1249,-0.5 1159,-0.5"/>
<text text-anchor="middle" x="1204" y="-8.5" font-family="Helvetica,sans-Serif" font-size="10.00">Distributions.cpp</text>
</a>
</g>
<!-- Node6&#45;&gt;Node8 -->
<g id="edge14" class="edge"><title>Node6&#45;&gt;Node8</title>
<path fill="none" stroke="midnightblue" d="M1126.35,-469.748C1162.84,-464.089 1209.92,-452.347 1245,-428 1327.98,-370.409 1377,-344.006 1377,-243 1377,-243 1377,-243 1377,-127 1377,-65.3445 1300.26,-34.3612 1249,-20.5426"/>
<polygon fill="midnightblue" stroke="midnightblue" points="1125.76,-466.297 1116.36,-471.188 1126.75,-473.226 1125.76,-466.297"/>
</g>
<!-- Node9 -->
<g id="node19" class="node"><title>Node9</title>
<a xlink:href="../../d1/dca/Intensity_8cpp.html" target="_top" xlink:title="Intensity.cpp">
<polygon fill="white" stroke="black" points="591.5,-406.5 591.5,-427.5 664.5,-427.5 664.5,-406.5 591.5,-406.5"/>
<text text-anchor="middle" x="628" y="-414.5" font-family="Helvetica,sans-Serif" font-size="10.00">Intensity.cpp</text>
</a>
</g>
<!-- Node6&#45;&gt;Node9 -->
<g id="edge20" class="edge"><title>Node6&#45;&gt;Node9</title>
<path fill="none" stroke="midnightblue" d="M1013.89,-470.528C936.7,-463.884 793.596,-449.794 673,-428 670.309,-427.514 667.539,-426.963 664.759,-426.372"/>
<polygon fill="midnightblue" stroke="midnightblue" points="1013.62,-474.018 1023.88,-471.378 1014.21,-467.043 1013.62,-474.018"/>
</g>
<!-- Node10 -->
<g id="node21" class="node"><title>Node10</title>
<a xlink:href="../../d3/db7/LHCNoiseFB_8cpp.html" target="_top" xlink:title="LHCNoiseFB.cpp">
<polygon fill="white" stroke="black" points="326,-232.5 326,-253.5 420,-253.5 420,-232.5 326,-232.5"/>
<text text-anchor="middle" x="373" y="-240.5" font-family="Helvetica,sans-Serif" font-size="10.00">LHCNoiseFB.cpp</text>
</a>
</g>
<!-- Node6&#45;&gt;Node10 -->
<g id="edge22" class="edge"><title>Node6&#45;&gt;Node10</title>
<path fill="none" stroke="midnightblue" d="M1013.93,-473.715C839.409,-468.367 311.853,-441.566 217,-312 186.561,-270.422 269.568,-253.488 325.868,-246.905"/>
<polygon fill="midnightblue" stroke="midnightblue" points="1013.84,-477.214 1023.93,-474.01 1014.04,-470.217 1013.84,-477.214"/>
</g>
<!-- Node11 -->
<g id="node23" class="node"><title>Node11</title>
<a xlink:href="../../db/dee/PhaseLoop_8cpp.html" target="_top" xlink:title="PhaseLoop.cpp">
<polygon fill="white" stroke="black" points="207,-116.5 207,-137.5 291,-137.5 291,-116.5 207,-116.5"/>
<text text-anchor="middle" x="249" y="-124.5" font-family="Helvetica,sans-Serif" font-size="10.00">PhaseLoop.cpp</text>
</a>
</g>
<!-- Node6&#45;&gt;Node11 -->
<g id="edge24" class="edge"><title>Node6&#45;&gt;Node11</title>
<path fill="none" stroke="midnightblue" d="M1013.77,-474.069C809.975,-469.962 122,-449.401 122,-359 122,-359 122,-359 122,-243 122,-189.398 184.439,-153.934 221.755,-137.525"/>
<polygon fill="midnightblue" stroke="midnightblue" points="1013.89,-477.572 1023.96,-474.269 1014.03,-470.573 1013.89,-477.572"/>
</g>
<!-- Node12 -->
<g id="node26" class="node"><title>Node12</title>
<a xlink:href="../../d2/d6f/Tracker_8cpp.html" target="_top" xlink:title="Tracker.cpp">
<polygon fill="white" stroke="black" points="222,-58.5 222,-79.5 290,-79.5 290,-58.5 222,-58.5"/>
<text text-anchor="middle" x="256" y="-66.5" font-family="Helvetica,sans-Serif" font-size="10.00">Tracker.cpp</text>
</a>
</g>
<!-- Node6&#45;&gt;Node12 -->
<g id="edge28" class="edge"><title>Node6&#45;&gt;Node12</title>
<path fill="none" stroke="midnightblue" d="M1013.84,-473.773C833.516,-469.581 276.465,-454.602 200,-428 157.839,-413.333 141.824,-407.751 118,-370 85.1813,-317.996 93.8715,-291.849 108,-232 125.213,-159.087 202.823,-102.274 238.258,-79.6487"/>
<polygon fill="midnightblue" stroke="midnightblue" points="1013.83,-477.273 1023.91,-474.004 1013.99,-470.275 1013.83,-477.273"/>
</g>
<!-- Node13 -->
<g id="node28" class="node"><title>Node13</title>
<a xlink:href="../../de/da5/utilities_8cpp.html" target="_top" xlink:title="utilities.cpp">
<polygon fill="white" stroke="black" points="995,-290.5 995,-311.5 1061,-311.5 1061,-290.5 995,-290.5"/>
<text text-anchor="middle" x="1028" y="-298.5" font-family="Helvetica,sans-Serif" font-size="10.00">utilities.cpp</text>
</a>
</g>
<!-- Node6&#45;&gt;Node13 -->
<g id="edge30" class="edge"><title>Node6&#45;&gt;Node13</title>
<path fill="none" stroke="midnightblue" d="M1061.09,-454.871C1052.32,-434.067 1039.35,-400.43 1033,-370 1028.78,-349.777 1027.98,-325.581 1027.9,-311.88"/>
<polygon fill="midnightblue" stroke="midnightblue" points="1057.96,-456.439 1065.13,-464.24 1064.39,-453.671 1057.96,-456.439"/>
</g>
<!-- Node14 -->
<g id="node30" class="node"><title>Node14</title>
<a xlink:href="../../d6/db7/RfParameters_8h.html" target="_top" xlink:title="RfParameters.h">
<polygon fill="white" stroke="black" points="682,-406.5 682,-427.5 768,-427.5 768,-406.5 682,-406.5"/>
<text text-anchor="middle" x="725" y="-414.5" font-family="Helvetica,sans-Serif" font-size="10.00">RfParameters.h</text>
</a>
</g>
<!-- Node6&#45;&gt;Node14 -->
<g id="edge32" class="edge"><title>Node6&#45;&gt;Node14</title>
<path fill="none" stroke="midnightblue" d="M1013.62,-465.522C944.905,-453.97 830.289,-434.701 768.181,-424.259"/>
<polygon fill="midnightblue" stroke="midnightblue" points="1013.39,-469.032 1023.83,-467.238 1014.55,-462.129 1013.39,-469.032"/>
</g>
<!-- Node15 -->
<g id="node32" class="node"><title>Node15</title>
<a xlink:href="../../dc/d61/RfParameters_8cpp.html" target="_top" xlink:title="RfParameters.cpp">
<polygon fill="white" stroke="black" points="677,-348.5 677,-369.5 773,-369.5 773,-348.5 677,-348.5"/>
<text text-anchor="middle" x="725" y="-356.5" font-family="Helvetica,sans-Serif" font-size="10.00">RfParameters.cpp</text>
</a>
</g>
<!-- Node14&#45;&gt;Node15 -->
<g id="edge34" class="edge"><title>Node14&#45;&gt;Node15</title>
<path fill="none" stroke="midnightblue" d="M725,-396.191C725,-387.168 725,-376.994 725,-369.571"/>
<polygon fill="midnightblue" stroke="midnightblue" points="721.5,-396.362 725,-406.362 728.5,-396.362 721.5,-396.362"/>
</g>
<!-- Node16 -->
<g id="node34" class="node"><title>Node16</title>
<a xlink:href="../../d7/d74/Beams_8h.html" target="_top" xlink:title="Beams.h">
<polygon fill="white" stroke="black" points="791,-348.5 791,-369.5 847,-369.5 847,-348.5 791,-348.5"/>
<text text-anchor="middle" x="819" y="-356.5" font-family="Helvetica,sans-Serif" font-size="10.00">Beams.h</text>
</a>
</g>
<!-- Node14&#45;&gt;Node16 -->
<g id="edge36" class="edge"><title>Node14&#45;&gt;Node16</title>
<path fill="none" stroke="midnightblue" d="M745.521,-400.541C760.631,-390.597 780.962,-378.218 796.516,-369.571"/>
<polygon fill="midnightblue" stroke="midnightblue" points="743.216,-397.873 736.877,-406.362 747.127,-403.679 743.216,-397.873"/>
</g>
<!-- Node18 -->
<g id="node40" class="node"><title>Node18</title>
<a xlink:href="../../d5/d87/globals_8h.html" target="_top" xlink:title="globals.h">
<polygon fill="white" stroke="black" points="612,-290.5 612,-311.5 668,-311.5 668,-290.5 612,-290.5"/>
<text text-anchor="middle" x="640" y="-298.5" font-family="Helvetica,sans-Serif" font-size="10.00">globals.h</text>
</a>
</g>
<!-- Node14&#45;&gt;Node18 -->
<g id="edge120" class="edge"><title>Node14&#45;&gt;Node18</title>
<path fill="none" stroke="midnightblue" d="M692.204,-400.938C680.308,-392.744 667.796,-381.979 659,-370 645.533,-351.66 637.349,-325.924 636.473,-311.63"/>
<polygon fill="midnightblue" stroke="midnightblue" points="690.398,-403.938 700.695,-406.432 694.2,-398.061 690.398,-403.938"/>
</g>
<!-- Node21 -->
<g id="node52" class="node"><title>Node21</title>
<a xlink:href="../../d0/da6/Monitors_8h.html" target="_top" xlink:title="Monitors.h">
<polygon fill="white" stroke="black" points="357,-116.5 357,-137.5 419,-137.5 419,-116.5 357,-116.5"/>
<text text-anchor="middle" x="388" y="-124.5" font-family="Helvetica,sans-Serif" font-size="10.00">Monitors.h</text>
</a>
</g>
<!-- Node14&#45;&gt;Node21 -->
<g id="edge122" class="edge"><title>Node14&#45;&gt;Node21</title>
<path fill="none" stroke="midnightblue" d="M672.04,-405.941C466.819,-370.592 382.6,-430.609 217,-312 184.999,-289.08 158.338,-265.504 179,-232 218.113,-168.578 308.538,-142.129 356.618,-132.234"/>
<polygon fill="midnightblue" stroke="midnightblue" points="671.446,-409.39 681.905,-407.697 672.674,-402.498 671.446,-409.39"/>
</g>
<!-- Node30 -->
<g id="node79" class="node"><title>Node30</title>
<a xlink:href="../../d8/d94/plot__beams_8h.html" target="_top" xlink:title="plot_beams.h">
<polygon fill="white" stroke="black" points="864.5,-290.5 864.5,-311.5 939.5,-311.5 939.5,-290.5 864.5,-290.5"/>
<text text-anchor="middle" x="902" y="-298.5" font-family="Helvetica,sans-Serif" font-size="10.00">plot_beams.h</text>
</a>
</g>
<!-- Node14&#45;&gt;Node30 -->
<g id="edge124" class="edge"><title>Node14&#45;&gt;Node30</title>
<path fill="none" stroke="midnightblue" d="M778.104,-406.196C803.582,-399.063 833.399,-387.673 856,-370 876.301,-354.126 890.702,-326.716 897.529,-311.664"/>
<polygon fill="midnightblue" stroke="midnightblue" points="776.985,-402.872 768.215,-408.816 778.778,-409.638 776.985,-402.872"/>
</g>
<!-- Node31 -->
<g id="node82" class="node"><title>Node31</title>
<a xlink:href="../../dc/df2/Slices_8h.html" target="_top" xlink:title="Slices.h">
<polygon fill="white" stroke="black" points="535,-348.5 535,-369.5 587,-369.5 587,-348.5 535,-348.5"/>
<text text-anchor="middle" x="561" y="-356.5" font-family="Helvetica,sans-Serif" font-size="10.00">Slices.h</text>
</a>
</g>
<!-- Node14&#45;&gt;Node31 -->
<g id="edge102" class="edge"><title>Node14&#45;&gt;Node31</title>
<path fill="none" stroke="midnightblue" d="M685.817,-403.143C655.317,-392.356 613.833,-377.685 587.231,-368.277"/>
<polygon fill="midnightblue" stroke="midnightblue" points="684.706,-406.462 695.301,-406.497 687.04,-399.863 684.706,-406.462"/>
</g>
<!-- Node32 -->
<g id="node89" class="node"><title>Node32</title>
<a xlink:href="../../d2/d51/plot__slices_8h.html" target="_top" xlink:title="plot_slices.h">
<polygon fill="white" stroke="black" points="225.5,-290.5 225.5,-311.5 296.5,-311.5 296.5,-290.5 225.5,-290.5"/>
<text text-anchor="middle" x="261" y="-298.5" font-family="Helvetica,sans-Serif" font-size="10.00">plot_slices.h</text>
</a>
</g>
<!-- Node14&#45;&gt;Node32 -->
<g id="edge130" class="edge"><title>Node14&#45;&gt;Node32</title>
<path fill="none" stroke="midnightblue" d="M672.004,-404.829C631.865,-395.528 575.389,-382.261 526,-370 443.639,-349.554 347.296,-324.074 296.511,-310.521"/>
<polygon fill="midnightblue" stroke="midnightblue" points="671.311,-408.262 681.843,-407.106 672.889,-401.442 671.311,-408.262"/>
</g>
<!-- Node34 -->
<g id="node97" class="node"><title>Node34</title>
<a xlink:href="../../d3/dda/plot__llrf_8h.html" target="_top" xlink:title="plot_llrf.h">
<polygon fill="white" stroke="black" points="0,-174.5 0,-195.5 56,-195.5 56,-174.5 0,-174.5"/>
<text text-anchor="middle" x="28" y="-182.5" font-family="Helvetica,sans-Serif" font-size="10.00">plot_llrf.h</text>
</a>
</g>
<!-- Node14&#45;&gt;Node34 -->
<g id="edge126" class="edge"><title>Node14&#45;&gt;Node34</title>
<path fill="none" stroke="midnightblue" d="M672.005,-406.054C471.899,-379.185 406.755,-440.76 222,-370 129.428,-334.545 56.5999,-230.018 34.7462,-195.904"/>
<polygon fill="midnightblue" stroke="midnightblue" points="671.558,-409.525 681.946,-407.446 672.528,-402.593 671.558,-409.525"/>
</g>
<!-- Node35 -->
<g id="node101" class="node"><title>Node35</title>
<a xlink:href="../../de/d44/trackers_2utilities_8h.html" target="_top" xlink:title="utilities.h">
<polygon fill="white" stroke="black" points="1042,-348.5 1042,-369.5 1098,-369.5 1098,-348.5 1042,-348.5"/>
<text text-anchor="middle" x="1070" y="-356.5" font-family="Helvetica,sans-Serif" font-size="10.00">utilities.h</text>
</a>
</g>
<!-- Node14&#45;&gt;Node35 -->
<g id="edge132" class="edge"><title>Node14&#45;&gt;Node35</title>
<path fill="none" stroke="midnightblue" d="M778.411,-408.021C852.54,-395.559 983.981,-373.461 1041.6,-363.774"/>
<polygon fill="midnightblue" stroke="midnightblue" points="777.626,-404.603 768.345,-409.713 778.787,-411.507 777.626,-404.603"/>
</g>
<!-- Node16&#45;&gt;Node7 -->
<g id="edge38" class="edge"><title>Node16&#45;&gt;Node7</title>
<path fill="none" stroke="midnightblue" d="M857.289,-352.701C906.66,-344.381 995.083,-328.802 1070,-312 1072.79,-311.373 1075.69,-310.69 1078.58,-309.981"/>
<polygon fill="midnightblue" stroke="midnightblue" points="856.649,-349.26 847.365,-354.365 857.806,-356.163 856.649,-349.26"/>
</g>
<!-- Node16&#45;&gt;Node14 -->
<g id="edge94" class="edge"><title>Node16&#45;&gt;Node14</title>
<path fill="none" stroke="midnightblue" d="M798.597,-375.382C783.514,-385.313 763.184,-397.696 747.605,-406.362"/>
<polygon fill="midnightblue" stroke="midnightblue" points="800.883,-378.061 807.22,-369.571 796.972,-372.256 800.883,-378.061"/>
</g>
<!-- Node17 -->
<g id="node37" class="node"><title>Node17</title>
<a xlink:href="../../dc/d7d/Distributions_8h.html" target="_top" xlink:title="Distributions.h">
<polygon fill="white" stroke="black" points="978,-58.5 978,-79.5 1058,-79.5 1058,-58.5 978,-58.5"/>
<text text-anchor="middle" x="1018" y="-66.5" font-family="Helvetica,sans-Serif" font-size="10.00">Distributions.h</text>
</a>
</g>
<!-- Node16&#45;&gt;Node17 -->
<g id="edge40" class="edge"><title>Node16&#45;&gt;Node17</title>
<path fill="none" stroke="midnightblue" d="M857.172,-353.657C885.503,-347.853 923.342,-335.974 948,-312 1007.65,-254.008 1000.8,-219.599 1017,-138 1021.01,-117.788 1020.09,-93.5883 1019.04,-79.8833"/>
<polygon fill="midnightblue" stroke="midnightblue" points="856.388,-350.243 847.207,-355.531 857.681,-357.122 856.388,-350.243"/>
</g>
<!-- Node16&#45;&gt;Node18 -->
<g id="edge44" class="edge"><title>Node16&#45;&gt;Node18</title>
<path fill="none" stroke="midnightblue" d="M781.214,-348.487C747.007,-338.011 697.639,-322.016 667.161,-311.533"/>
<polygon fill="midnightblue" stroke="midnightblue" points="780.282,-351.862 790.868,-351.418 782.315,-345.164 780.282,-351.862"/>
</g>
<!-- Node16&#45;&gt;Node21 -->
<g id="edge96" class="edge"><title>Node16&#45;&gt;Node21</title>
<path fill="none" stroke="midnightblue" d="M783.489,-343.925C757.826,-330.843 730.223,-310.783 746,-290 781.991,-242.59 839.009,-301.41 875,-254 910.802,-206.839 847.644,-193.03 801,-174 666.032,-118.934 619.758,-155.143 475,-138 456.555,-135.816 435.932,-133.215 419.395,-131.091"/>
<polygon fill="midnightblue" stroke="midnightblue" points="782.247,-347.212 792.773,-348.418 785.296,-340.911 782.247,-347.212"/>
</g>
<!-- Node27 -->
<g id="node68" class="node"><title>Node27</title>
<a xlink:href="../../d9/dee/InducedVoltage_8h.html" target="_top" xlink:title="InducedVoltage.h">
<polygon fill="white" stroke="black" points="755,-290.5 755,-311.5 847,-311.5 847,-290.5 755,-290.5"/>
<text text-anchor="middle" x="801" y="-298.5" font-family="Helvetica,sans-Serif" font-size="10.00">InducedVoltage.h</text>
</a>
</g>
<!-- Node16&#45;&gt;Node27 -->
<g id="edge82" class="edge"><title>Node16&#45;&gt;Node27</title>
<path fill="none" stroke="midnightblue" d="M812.726,-338.784C809.881,-329.617 806.635,-319.157 804.281,-311.571"/>
<polygon fill="midnightblue" stroke="midnightblue" points="809.392,-339.849 815.699,-348.362 816.077,-337.774 809.392,-339.849"/>
</g>
<!-- Node16&#45;&gt;Node30 -->
<g id="edge98" class="edge"><title>Node16&#45;&gt;Node30</title>
<path fill="none" stroke="midnightblue" d="M842.554,-342.541C856.783,-332.597 874.499,-320.218 886.873,-311.571"/>
<polygon fill="midnightblue" stroke="midnightblue" points="840.416,-339.765 834.223,-348.362 844.425,-345.503 840.416,-339.765"/>
</g>
<!-- Node17&#45;&gt;Node8 -->
<g id="edge42" class="edge"><title>Node17&#45;&gt;Node8</title>
<path fill="none" stroke="midnightblue" d="M1061.57,-55.4127C1094.76,-45.0646 1139.78,-31.0258 1170.25,-21.5231"/>
<polygon fill="midnightblue" stroke="midnightblue" points="1060.19,-52.1783 1051.68,-58.4966 1062.27,-58.861 1060.19,-52.1783"/>
</g>
<!-- Node18&#45;&gt;Node3 -->
<g id="edge46" class="edge"><title>Node18&#45;&gt;Node3</title>
<path fill="none" stroke="midnightblue" d="M678.184,-289.643C714.842,-278.739 769.546,-262.468 803.705,-252.308"/>
<polygon fill="midnightblue" stroke="midnightblue" points="676.942,-286.361 668.355,-292.566 678.938,-293.07 676.942,-286.361"/>
</g>
<!-- Node18&#45;&gt;Node4 -->
<g id="edge50" class="edge"><title>Node18&#45;&gt;Node4</title>
<path fill="none" stroke="midnightblue" d="M678.337,-296.415C764.882,-286.066 975.463,-260.883 1073.37,-249.174"/>
<polygon fill="midnightblue" stroke="midnightblue" points="677.686,-292.968 668.172,-297.631 678.517,-299.919 677.686,-292.968"/>
</g>
<!-- Node18&#45;&gt;Node10 -->
<g id="edge52" class="edge"><title>Node18&#45;&gt;Node10</title>
<path fill="none" stroke="midnightblue" d="M601.991,-292.743C554.208,-282.364 472.18,-264.545 420.364,-253.289"/>
<polygon fill="midnightblue" stroke="midnightblue" points="601.416,-296.2 611.931,-294.903 602.902,-289.36 601.416,-296.2"/>
</g>
<!-- Node18&#45;&gt;Node14 -->
<g id="edge56" class="edge"><title>Node18&#45;&gt;Node14</title>
<path fill="none" stroke="midnightblue" d="M652.76,-321.175C658.747,-335.695 666.163,-355.242 677,-370 687.932,-384.887 704.6,-397.897 715.491,-406.432"/>
<polygon fill="midnightblue" stroke="midnightblue" points="655.812,-319.414 648.624,-311.63 649.389,-322.198 655.812,-319.414"/>
</g>
<!-- Node18&#45;&gt;Node16 -->
<g id="edge54" class="edge"><title>Node18&#45;&gt;Node16</title>
<path fill="none" stroke="midnightblue" d="M677.729,-311.495C711.97,-321.98 761.436,-338.008 791.925,-348.497"/>
<polygon fill="midnightblue" stroke="midnightblue" points="678.652,-308.118 668.067,-308.563 676.619,-314.816 678.652,-308.118"/>
</g>
<!-- Node19 -->
<g id="node43" class="node"><title>Node19</title>
<a xlink:href="../../da/d77/globals_8cpp.html" target="_top" xlink:title="globals.cpp">
<polygon fill="white" stroke="black" points="514,-232.5 514,-253.5 580,-253.5 580,-232.5 514,-232.5"/>
<text text-anchor="middle" x="547" y="-240.5" font-family="Helvetica,sans-Serif" font-size="10.00">globals.cpp</text>
</a>
</g>
<!-- Node18&#45;&gt;Node19 -->
<g id="edge48" class="edge"><title>Node18&#45;&gt;Node19</title>
<path fill="none" stroke="midnightblue" d="M614.059,-284.821C598.04,-274.831 577.945,-262.299 563.949,-253.571"/>
<polygon fill="midnightblue" stroke="midnightblue" points="612.605,-288.04 622.942,-290.362 616.309,-282.1 612.605,-288.04"/>
</g>
<!-- Node20 -->
<g id="node49" class="node"><title>Node20</title>
<a xlink:href="../../d3/d33/PhaseLoop_8h.html" target="_top" xlink:title="PhaseLoop.h">
<polygon fill="white" stroke="black" points="476,-174.5 476,-195.5 550,-195.5 550,-174.5 476,-174.5"/>
<text text-anchor="middle" x="513" y="-182.5" font-family="Helvetica,sans-Serif" font-size="10.00">PhaseLoop.h</text>
</a>
</g>
<!-- Node18&#45;&gt;Node20 -->
<g id="edge58" class="edge"><title>Node18&#45;&gt;Node20</title>
<path fill="none" stroke="midnightblue" d="M601.652,-292.841C565.911,-284.367 516.45,-270.11 505,-254 492.704,-236.7 501.096,-210.574 507.542,-195.935"/>
<polygon fill="midnightblue" stroke="midnightblue" points="601.254,-296.341 611.785,-295.178 602.827,-289.52 601.254,-296.341"/>
</g>
<!-- Node26 -->
<g id="node64" class="node"><title>Node26</title>
<a xlink:href="../../d9/dc8/PhaseNoise_8h.html" target="_top" xlink:title="PhaseNoise.h">
<polygon fill="white" stroke="black" points="598,-232.5 598,-253.5 676,-253.5 676,-232.5 598,-232.5"/>
<text text-anchor="middle" x="637" y="-240.5" font-family="Helvetica,sans-Serif" font-size="10.00">PhaseNoise.h</text>
</a>
</g>
<!-- Node18&#45;&gt;Node26 -->
<g id="edge76" class="edge"><title>Node18&#45;&gt;Node26</title>
<path fill="none" stroke="midnightblue" d="M638.924,-280.191C638.457,-271.168 637.931,-260.994 637.547,-253.571"/>
<polygon fill="midnightblue" stroke="midnightblue" points="635.438,-280.556 639.45,-290.362 642.428,-280.194 635.438,-280.556"/>
</g>
<!-- Node20&#45;&gt;Node11 -->
<g id="edge60" class="edge"><title>Node20&#45;&gt;Node11</title>
<path fill="none" stroke="midnightblue" d="M465.903,-174.653C416.331,-163.762 339.005,-146.774 291.313,-136.296"/>
<polygon fill="midnightblue" stroke="midnightblue" points="465.217,-178.086 475.735,-176.813 466.719,-171.249 465.217,-178.086"/>
</g>
<!-- Node20&#45;&gt;Node21 -->
<g id="edge62" class="edge"><title>Node20&#45;&gt;Node21</title>
<path fill="none" stroke="midnightblue" d="M481.117,-170.206C459.188,-160.031 430.579,-146.757 410.891,-137.621"/>
<polygon fill="midnightblue" stroke="midnightblue" points="479.819,-173.462 490.363,-174.497 482.766,-167.113 479.819,-173.462"/>
</g>
<!-- Node25 -->
<g id="node60" class="node"><title>Node25</title>
<a xlink:href="../../d2/d0e/Tracker_8h.html" target="_top" xlink:title="Tracker.h">
<polygon fill="white" stroke="black" points="484,-116.5 484,-137.5 542,-137.5 542,-116.5 484,-116.5"/>
<text text-anchor="middle" x="513" y="-124.5" font-family="Helvetica,sans-Serif" font-size="10.00">Tracker.h</text>
</a>
</g>
<!-- Node20&#45;&gt;Node25 -->
<g id="edge70" class="edge"><title>Node20&#45;&gt;Node25</title>
<path fill="none" stroke="midnightblue" d="M513,-164.191C513,-155.168 513,-144.994 513,-137.571"/>
<polygon fill="midnightblue" stroke="midnightblue" points="509.5,-164.362 513,-174.362 516.5,-164.362 509.5,-164.362"/>
</g>
<!-- Node22 -->
<g id="node54" class="node"><title>Node22</title>
<a xlink:href="../../da/dda/Monitors_8cpp.html" target="_top" xlink:title="Monitors.cpp">
<polygon fill="white" stroke="black" points="351.5,-58.5 351.5,-79.5 424.5,-79.5 424.5,-58.5 351.5,-58.5"/>
<text text-anchor="middle" x="388" y="-66.5" font-family="Helvetica,sans-Serif" font-size="10.00">Monitors.cpp</text>
</a>
</g>
<!-- Node21&#45;&gt;Node22 -->
<g id="edge64" class="edge"><title>Node21&#45;&gt;Node22</title>
<path fill="none" stroke="midnightblue" d="M388,-106.191C388,-97.1684 388,-86.9941 388,-79.5707"/>
<polygon fill="midnightblue" stroke="midnightblue" points="384.5,-106.362 388,-116.362 391.5,-106.362 384.5,-106.362"/>
</g>
<!-- Node23 -->
<g id="node56" class="node"><title>Node23</title>
<a xlink:href="../../d3/d2c/plot__beams_8cpp.html" target="_top" xlink:title="plot_beams.cpp">
<polygon fill="white" stroke="black" points="708,-58.5 708,-79.5 794,-79.5 794,-58.5 708,-58.5"/>
<text text-anchor="middle" x="751" y="-66.5" font-family="Helvetica,sans-Serif" font-size="10.00">plot_beams.cpp</text>
</a>
</g>
<!-- Node21&#45;&gt;Node23 -->
<g id="edge66" class="edge"><title>Node21&#45;&gt;Node23</title>
<path fill="none" stroke="midnightblue" d="M429.36,-120.392C498.606,-109.327 637.327,-87.1626 707.79,-75.9041"/>
<polygon fill="midnightblue" stroke="midnightblue" points="428.586,-116.971 419.263,-122.005 429.69,-123.883 428.586,-116.971"/>
</g>
<!-- Node24 -->
<g id="node58" class="node"><title>Node24</title>
<a xlink:href="../../d3/dca/plot__llrf_8cpp.html" target="_top" xlink:title="plot_llrf.cpp">
<polygon fill="white" stroke="black" points="48.5,-58.5 48.5,-79.5 115.5,-79.5 115.5,-58.5 48.5,-58.5"/>
<text text-anchor="middle" x="82" y="-66.5" font-family="Helvetica,sans-Serif" font-size="10.00">plot_llrf.cpp</text>
</a>
</g>
<!-- Node21&#45;&gt;Node24 -->
<g id="edge68" class="edge"><title>Node21&#45;&gt;Node24</title>
<path fill="none" stroke="midnightblue" d="M346.934,-119.216C285.92,-107.651 172.464,-86.1467 115.894,-75.4243"/>
<polygon fill="midnightblue" stroke="midnightblue" points="346.498,-122.696 356.975,-121.119 347.802,-115.818 346.498,-122.696"/>
</g>
<!-- Node25&#45;&gt;Node12 -->
<g id="edge72" class="edge"><title>Node25&#45;&gt;Node12</title>
<path fill="none" stroke="midnightblue" d="M473.681,-118.126C423.496,-106.801 337.506,-87.3943 290.012,-76.6758"/>
<polygon fill="midnightblue" stroke="midnightblue" points="472.994,-121.559 483.519,-120.347 474.535,-114.731 472.994,-121.559"/>
</g>
<!-- Node25&#45;&gt;Node17 -->
<g id="edge74" class="edge"><title>Node25&#45;&gt;Node17</title>
<path fill="none" stroke="midnightblue" d="M552.276,-122.489C646.164,-111.706 882.835,-84.5239 977.726,-73.6255"/>
<polygon fill="midnightblue" stroke="midnightblue" points="551.869,-119.013 542.334,-123.631 552.668,-125.967 551.869,-119.013"/>
</g>
<!-- Node26&#45;&gt;Node5 -->
<g id="edge78" class="edge"><title>Node26&#45;&gt;Node5</title>
<path fill="none" stroke="midnightblue" d="M686.146,-232.014C902.316,-199.742 1149.96,-189.294 1249.42,-186.179"/>
<polygon fill="midnightblue" stroke="midnightblue" points="685.566,-228.562 676.202,-233.518 686.613,-235.484 685.566,-228.562"/>
</g>
<!-- Node26&#45;&gt;Node20 -->
<g id="edge80" class="edge"><title>Node26&#45;&gt;Node20</title>
<path fill="none" stroke="midnightblue" d="M605.372,-228.206C583.618,-218.031 555.238,-204.757 535.707,-195.621"/>
<polygon fill="midnightblue" stroke="midnightblue" points="604.004,-231.43 614.545,-232.497 606.969,-225.089 604.004,-231.43"/>
</g>
<!-- Node27&#45;&gt;Node4 -->
<g id="edge84" class="edge"><title>Node27&#45;&gt;Node4</title>
<path fill="none" stroke="midnightblue" d="M857.089,-289.826C938.287,-274.691 1021.28,-260.436 1073.36,-251.637"/>
<polygon fill="midnightblue" stroke="midnightblue" points="856.384,-286.397 847.198,-291.675 857.671,-293.277 856.384,-286.397"/>
</g>
<!-- Node27&#45;&gt;Node17 -->
<g id="edge86" class="edge"><title>Node27&#45;&gt;Node17</title>
<path fill="none" stroke="midnightblue" d="M848.474,-287.482C879.275,-277.962 915.856,-265.005 928,-254 983.58,-203.633 1008.54,-111.411 1015.71,-79.8943"/>
<polygon fill="midnightblue" stroke="midnightblue" points="847.267,-284.19 838.715,-290.445 849.301,-290.888 847.267,-284.19"/>
</g>
<!-- Node27&#45;&gt;Node25 -->
<g id="edge92" class="edge"><title>Node27&#45;&gt;Node25</title>
<path fill="none" stroke="midnightblue" d="M845.224,-287.067C871.261,-277.87 900.524,-265.449 908,-254 927.439,-224.229 931.61,-200.585 908,-174 883.724,-146.665 629.359,-132.394 542.149,-128.277"/>
<polygon fill="midnightblue" stroke="midnightblue" points="843.774,-283.864 835.455,-290.425 846.05,-290.484 843.774,-283.864"/>
</g>
<!-- Node28 -->
<g id="node72" class="node"><title>Node28</title>
<a xlink:href="../../da/d77/plot__impedance_8h.html" target="_top" xlink:title="plot_impedance.h">
<polygon fill="white" stroke="black" points="693.5,-232.5 693.5,-253.5 786.5,-253.5 786.5,-232.5 693.5,-232.5"/>
<text text-anchor="middle" x="740" y="-240.5" font-family="Helvetica,sans-Serif" font-size="10.00">plot_impedance.h</text>
</a>
</g>
<!-- Node27&#45;&gt;Node28 -->
<g id="edge88" class="edge"><title>Node27&#45;&gt;Node28</title>
<path fill="none" stroke="midnightblue" d="M782.495,-283.405C772.255,-273.668 759.869,-261.891 751.117,-253.571"/>
<polygon fill="midnightblue" stroke="midnightblue" points="780.153,-286.008 789.812,-290.362 784.976,-280.935 780.153,-286.008"/>
</g>
<!-- Node29 -->
<g id="node74" class="node"><title>Node29</title>
<a xlink:href="../../d8/d29/plot__impedance_8cpp.html" target="_top" xlink:title="plot_impedance.cpp">
<polygon fill="white" stroke="black" points="688,-174.5 688,-195.5 792,-195.5 792,-174.5 688,-174.5"/>
<text text-anchor="middle" x="740" y="-182.5" font-family="Helvetica,sans-Serif" font-size="10.00">plot_impedance.cpp</text>
</a>
</g>
<!-- Node28&#45;&gt;Node29 -->
<g id="edge90" class="edge"><title>Node28&#45;&gt;Node29</title>
<path fill="none" stroke="midnightblue" d="M740,-222.191C740,-213.168 740,-202.994 740,-195.571"/>
<polygon fill="midnightblue" stroke="midnightblue" points="736.5,-222.362 740,-232.362 743.5,-222.362 736.5,-222.362"/>
</g>
<!-- Node30&#45;&gt;Node23 -->
<g id="edge100" class="edge"><title>Node30&#45;&gt;Node23</title>
<path fill="none" stroke="midnightblue" d="M915.278,-282.016C920.273,-273.795 925.375,-263.818 928,-254 937.185,-219.648 946.635,-204.877 929,-174 899.373,-122.126 832.989,-93.313 790.193,-79.5067"/>
<polygon fill="midnightblue" stroke="midnightblue" points="912.316,-280.152 909.823,-290.449 918.193,-283.954 912.316,-280.152"/>
</g>
<!-- Node31&#45;&gt;Node3 -->
<g id="edge104" class="edge"><title>Node31&#45;&gt;Node3</title>
<path fill="none" stroke="midnightblue" d="M567.938,-338.973C574.482,-323.154 585.87,-301.837 603,-290 674.426,-240.643 710.404,-273.527 795,-254 797.807,-253.352 800.714,-252.638 803.62,-251.894"/>
<polygon fill="midnightblue" stroke="midnightblue" points="564.628,-337.828 564.325,-348.419 571.167,-340.329 564.628,-337.828"/>
</g>
<!-- Node31&#45;&gt;Node18 -->
<g id="edge106" class="edge"><title>Node31&#45;&gt;Node18</title>
<path fill="none" stroke="midnightblue" d="M583.803,-342.259C597.28,-332.364 613.935,-320.136 625.602,-311.571"/>
<polygon fill="midnightblue" stroke="midnightblue" points="581.479,-339.623 575.49,-348.362 585.622,-345.265 581.479,-339.623"/>
</g>
<!-- Node31&#45;&gt;Node21 -->
<g id="edge108" class="edge"><title>Node31&#45;&gt;Node21</title>
<path fill="none" stroke="midnightblue" d="M524.978,-348.8C463.121,-330.476 341.021,-290.488 317,-254 289.637,-212.436 346.432,-159.635 374.064,-137.505"/>
<polygon fill="midnightblue" stroke="midnightblue" points="524.14,-352.202 534.721,-351.655 526.109,-345.484 524.14,-352.202"/>
</g>
<!-- Node31&#45;&gt;Node25 -->
<g id="edge118" class="edge"><title>Node31&#45;&gt;Node25</title>
<path fill="none" stroke="midnightblue" d="M545.014,-340.187C521.83,-311.414 480.203,-253.718 467,-196 464.82,-186.468 463.307,-183.053 467,-174 473.124,-158.988 486.607,-146.169 497.401,-137.729"/>
<polygon fill="midnightblue" stroke="midnightblue" points="542.511,-342.654 551.565,-348.156 547.918,-338.208 542.511,-342.654"/>
</g>
<!-- Node31&#45;&gt;Node28 -->
<g id="edge112" class="edge"><title>Node31&#45;&gt;Node28</title>
<path fill="none" stroke="midnightblue" d="M558.094,-338.233C557.184,-323.107 558.65,-303.062 570,-290 578.235,-280.523 645.687,-263.9 693.104,-253.176"/>
<polygon fill="midnightblue" stroke="midnightblue" points="554.613,-338.595 559.069,-348.207 561.579,-337.914 554.613,-338.595"/>
</g>
<!-- Node31&#45;&gt;Node30 -->
<g id="edge110" class="edge"><title>Node31&#45;&gt;Node30</title>
<path fill="none" stroke="midnightblue" d="M597.259,-354.137C653.071,-346.446 763.297,-330.441 856,-312 858.738,-311.455 861.56,-310.861 864.396,-310.241"/>
<polygon fill="midnightblue" stroke="midnightblue" points="596.597,-350.695 587.165,-355.519 597.547,-357.63 596.597,-350.695"/>
</g>
<!-- Node31&#45;&gt;Node32 -->
<g id="edge114" class="edge"><title>Node31&#45;&gt;Node32</title>
<path fill="none" stroke="midnightblue" d="M524.854,-352.65C476.008,-343.974 386.258,-327.694 310,-312 305.645,-311.104 301.08,-310.128 296.562,-309.14"/>
<polygon fill="midnightblue" stroke="midnightblue" points="524.466,-356.136 534.924,-354.434 525.688,-349.243 524.466,-356.136"/>
</g>
<!-- Node33 -->
<g id="node91" class="node"><title>Node33</title>
<a xlink:href="../../d4/dfd/plot__slices_8cpp.html" target="_top" xlink:title="plot_slices.cpp">
<polygon fill="white" stroke="black" points="188,-232.5 188,-253.5 270,-253.5 270,-232.5 188,-232.5"/>
<text text-anchor="middle" x="229" y="-240.5" font-family="Helvetica,sans-Serif" font-size="10.00">plot_slices.cpp</text>
</a>
</g>
<!-- Node32&#45;&gt;Node33 -->
<g id="edge116" class="edge"><title>Node32&#45;&gt;Node33</title>
<path fill="none" stroke="midnightblue" d="M250.171,-281.373C245.038,-272.068 239.108,-261.32 234.832,-253.571"/>
<polygon fill="midnightblue" stroke="midnightblue" points="247.235,-283.297 255.131,-290.362 253.364,-279.915 247.235,-283.297"/>
</g>
<!-- Node34&#45;&gt;Node24 -->
<g id="edge128" class="edge"><title>Node34&#45;&gt;Node24</title>
<path fill="none" stroke="midnightblue" d="M37.2541,-165.121C48.7638,-140.396 67.9962,-99.0822 77.0286,-79.6792"/>
<polygon fill="midnightblue" stroke="midnightblue" points="34.0307,-163.752 32.9834,-174.295 40.3768,-166.706 34.0307,-163.752"/>
</g>
<!-- Node35&#45;&gt;Node7 -->
<g id="edge134" class="edge"><title>Node35&#45;&gt;Node7</title>
<path fill="none" stroke="midnightblue" d="M1083.58,-340.25C1090.46,-330.75 1098.56,-319.565 1104.35,-311.571"/>
<polygon fill="midnightblue" stroke="midnightblue" points="1080.73,-338.21 1077.7,-348.362 1086.4,-342.315 1080.73,-338.21"/>
</g>
<!-- Node35&#45;&gt;Node8 -->
<g id="edge136" class="edge"><title>Node35&#45;&gt;Node8</title>
<path fill="none" stroke="midnightblue" d="M1106.68,-344.149C1122.64,-336.348 1140.7,-325.563 1154,-312 1196.48,-268.695 1204,-245.661 1204,-185 1204,-185 1204,-185 1204,-127 1204,-88.1319 1204,-41.9382 1204,-21.5561"/>
<polygon fill="midnightblue" stroke="midnightblue" points="1105.16,-340.996 1097.58,-348.395 1108.12,-347.34 1105.16,-340.996"/>
</g>
<!-- Node35&#45;&gt;Node13 -->
<g id="edge138" class="edge"><title>Node35&#45;&gt;Node13</title>
<path fill="none" stroke="midnightblue" d="M1056.42,-340.25C1049.54,-330.75 1041.44,-319.565 1035.65,-311.571"/>
<polygon fill="midnightblue" stroke="midnightblue" points="1053.6,-342.315 1062.3,-348.362 1059.27,-338.21 1053.6,-342.315"/>
</g>
</g>
</svg>
        <g id="navigator" transform="translate(0 0)" fill="#404254">
                <rect fill="#f2f5e9" fill-opacity="0.5" stroke="#606060" stroke-width=".5" x="0" y="0" width="60" height="60"/>
                <use id="zoomplus" xlink:href="#zoomPlus" x="17" y="9" onmousedown="handleZoom(evt,'in')"/>
                <use id="zoomminus" xlink:href="#zoomMin" x="42" y="9" onmousedown="handleZoom(evt,'out')"/>
                <use id="reset" xlink:href="#resetDef" x="30" y="36" onmousedown="handleReset()"/>
                <g id="arrowUp" xlink:href="#dirArrow" transform="translate(30 24)" onmousedown="handlePan(0,-1)">
                  <use xlink:href="#rim" fill="#404040">
                        <set attributeName="fill" to="#808080" begin="arrowUp.mouseover" end="arrowUp.mouseout"/>
                  </use>
                  <path fill="none" stroke="white" stroke-width="1.5" d="M0,-3.0v7 M-2.5,-0.5L0,-3.0L2.5,-0.5"/>
                </g>
                <g id="arrowRight" xlink:href="#dirArrow" transform="rotate(90) translate(36 -43)" onmousedown="handlePan(1,0)">
                  <use xlink:href="#rim" fill="#404040">
                        <set attributeName="fill" to="#808080" begin="arrowRight.mouseover" end="arrowRight.mouseout"/>
                  </use>
                  <path fill="none" stroke="white" stroke-width="1.5" d="M0,-3.0v7 M-2.5,-0.5L0,-3.0L2.5,-0.5"/>
                </g>
                <g id="arrowDown" xlink:href="#dirArrow" transform="rotate(180) translate(-30 -48)" onmousedown="handlePan(0,1)">
                  <use xlink:href="#rim" fill="#404040">
                        <set attributeName="fill" to="#808080" begin="arrowDown.mouseover" end="arrowDown.mouseout"/>
                  </use>
                  <path fill="none" stroke="white" stroke-width="1.5" d="M0,-3.0v7 M-2.5,-0.5L0,-3.0L2.5,-0.5"/>
                </g>
                <g id="arrowLeft" xlink:href="#dirArrow" transform="rotate(270) translate(-36 17)" onmousedown="handlePan(-1,0)">
                  <use xlink:href="#rim" fill="#404040">
                        <set attributeName="fill" to="#808080" begin="arrowLeft.mouseover" end="arrowLeft.mouseout"/>
                  </use>
                  <path fill="none" stroke="white" stroke-width="1.5" d="M0,-3.0v7 M-2.5,-0.5L0,-3.0L2.5,-0.5"/>
                </g>
        </g>
        <svg viewBox="0 0 15 15" width="100%" height="30px" preserveAspectRatio="xMaxYMin meet">
         <g id="arrow_out" transform="scale(0.3 0.3)">
          <a xlink:href="openmp_8h__dep__incl_org.svg" target="_base">
           <rect id="button" ry="5" rx="5" y="6" x="6" height="38" width="38"
                fill="#f2f5e9" fill-opacity="0.5" stroke="#606060" stroke-width="1.0"/>
           <path id="arrow"
             d="M 11.500037,31.436501 C 11.940474,20.09759 22.043105,11.32322 32.158766,21.979434 L 37.068811,17.246167 C 37.068811,17.246167 37.088388,32 37.088388,32 L 22.160133,31.978069 C 22.160133,31.978069 26.997745,27.140456 26.997745,27.140456 C 18.528582,18.264221 13.291696,25.230495 11.500037,31.436501 z"
             style="fill:#404040;"/>
          </a>
         </g>
        </svg>
</svg>
