<?xml version="1.0" encoding="UTF-8" standalone="no"?>
<!DOCTYPE svg PUBLIC "-//W3C//DTD SVG 1.1//EN"
 "http://www.w3.org/Graphics/SVG/1.1/DTD/svg11.dtd">
<!-- Generated by graphviz version 2.26.3 (20100126.1600)
 -->
<!-- Title: sincos.h Pages: 1 -->
<svg width="1260pt" height="610pt"
 viewBox="0.00 0.00 1260.00 610.00" xmlns="http://www.w3.org/2000/svg" xmlns:xlink="http://www.w3.org/1999/xlink">
<g id="graph1" class="graph" transform="scale(1 1) rotate(0) translate(4 606)">
<title>sincos.h</title>
<polygon fill="white" stroke="white" points="-4,5 -4,-606 1257,-606 1257,5 -4,5"/>
<!-- Node1 -->
<g id="node1" class="node"><title>Node1</title>
<polygon fill="#bfbfbf" stroke="black" points="215.5,-580.5 215.5,-601.5 268.5,-601.5 268.5,-580.5 215.5,-580.5"/>
<text text-anchor="middle" x="242" y="-588.5" font-family="Helvetica,sans-Serif" font-size="10.00">sincos.h</text>
</g>
<!-- Node2 -->
<g id="node3" class="node"><title>Node2</title>
<a xlink:href="../../d1/d3d/sin_8h.html" target="_top" xlink:title="sin.h">
<polygon fill="white" stroke="black" points="223,-522.5 223,-543.5 261,-543.5 261,-522.5 223,-522.5"/>
<text text-anchor="middle" x="242" y="-530.5" font-family="Helvetica,sans-Serif" font-size="10.00">sin.h</text>
</a>
</g>
<!-- Node1&#45;&gt;Node2 -->
<g id="edge2" class="edge"><title>Node1&#45;&gt;Node2</title>
<path fill="none" stroke="midnightblue" d="M242,-570.191C242,-561.168 242,-550.994 242,-543.571"/>
<polygon fill="midnightblue" stroke="midnightblue" points="238.5,-570.362 242,-580.362 245.5,-570.362 238.5,-570.362"/>
</g>
<!-- Node3 -->
<g id="node5" class="node"><title>Node3</title>
<a xlink:href="../../d2/de2/math__functions_8h.html" target="_top" xlink:title="math_functions.h">
<polygon fill="white" stroke="black" points="196,-464.5 196,-485.5 288,-485.5 288,-464.5 196,-464.5"/>
<text text-anchor="middle" x="242" y="-472.5" font-family="Helvetica,sans-Serif" font-size="10.00">math_functions.h</text>
</a>
</g>
<!-- Node2&#45;&gt;Node3 -->
<g id="edge4" class="edge"><title>Node2&#45;&gt;Node3</title>
<path fill="none" stroke="midnightblue" d="M242,-512.191C242,-503.168 242,-492.994 242,-485.571"/>
<polygon fill="midnightblue" stroke="midnightblue" points="238.5,-512.362 242,-522.362 245.5,-512.362 238.5,-512.362"/>
</g>
<!-- Node4 -->
<g id="node7" class="node"><title>Node4</title>
<a xlink:href="../../dc/d0f/Beams_8cpp.html" target="_top" xlink:title="Beams.cpp">
<polygon fill="white" stroke="black" points="367,-290.5 367,-311.5 433,-311.5 433,-290.5 367,-290.5"/>
<text text-anchor="middle" x="400" y="-298.5" font-family="Helvetica,sans-Serif" font-size="10.00">Beams.cpp</text>
</a>
</g>
<!-- Node3&#45;&gt;Node4 -->
<g id="edge6" class="edge"><title>Node3&#45;&gt;Node4</title>
<path fill="none" stroke="midnightblue" d="M271.69,-459.305C302.525,-441.552 350.085,-409.856 378,-370 390.695,-351.875 396.333,-326.058 398.617,-311.693"/>
<polygon fill="midnightblue" stroke="midnightblue" points="269.7,-456.409 262.698,-464.36 273.13,-462.511 269.7,-456.409"/>
</g>
<!-- Node5 -->
<g id="node9" class="node"><title>Node5</title>
<a xlink:href="../../db/de1/Distributions_8cpp.html" target="_top" xlink:title="Distributions.cpp">
<polygon fill="white" stroke="black" points="633,-0.5 633,-21.5 723,-21.5 723,-0.5 633,-0.5"/>
<text text-anchor="middle" x="678" y="-8.5" font-family="Helvetica,sans-Serif" font-size="10.00">Distributions.cpp</text>
</a>
</g>
<!-- Node3&#45;&gt;Node5 -->
<g id="edge8" class="edge"><title>Node3&#45;&gt;Node5</title>
<path fill="none" stroke="midnightblue" d="M298.327,-474.498C510.843,-471.869 1252,-455.765 1252,-359 1252,-359 1252,-359 1252,-127 1252,-83.3154 1221.61,-76.4327 1182,-58 1140.92,-38.8802 838.889,-20.0612 723.05,-13.4689"/>
<polygon fill="midnightblue" stroke="midnightblue" points="297.98,-471.001 288.022,-474.62 298.063,-478.001 297.98,-471.001"/>
</g>
<!-- Node6 -->
<g id="node11" class="node"><title>Node6</title>
<a xlink:href="../../d7/d91/Slices_8cpp.html" target="_top" xlink:title="Slices.cpp">
<polygon fill="white" stroke="black" points="744,-232.5 744,-253.5 806,-253.5 806,-232.5 744,-232.5"/>
<text text-anchor="middle" x="775" y="-240.5" font-family="Helvetica,sans-Serif" font-size="10.00">Slices.cpp</text>
</a>
</g>
<!-- Node3&#45;&gt;Node6 -->
<g id="edge10" class="edge"><title>Node3&#45;&gt;Node6</title>
<path fill="none" stroke="midnightblue" d="M298.304,-468.269C407.708,-454.248 643.894,-419.087 708,-370 747.783,-339.537 766.398,-278.619 772.56,-253.849"/>
<polygon fill="midnightblue" stroke="midnightblue" points="297.603,-464.829 288.123,-469.559 298.484,-471.774 297.603,-464.829"/>
</g>
<!-- Node7 -->
<g id="node13" class="node"><title>Node7</title>
<a xlink:href="../../d5/dfa/InducedVoltage_8cpp.html" target="_top" xlink:title="InducedVoltage.cpp">
<polygon fill="white" stroke="black" points="291.5,-232.5 291.5,-253.5 394.5,-253.5 394.5,-232.5 291.5,-232.5"/>
<text text-anchor="middle" x="343" y="-240.5" font-family="Helvetica,sans-Serif" font-size="10.00">InducedVoltage.cpp</text>
</a>
</g>
<!-- Node3&#45;&gt;Node7 -->
<g id="edge12" class="edge"><title>Node3&#45;&gt;Node7</title>
<path fill="none" stroke="midnightblue" d="M238.375,-453.913C231.504,-411.233 218.743,-316.429 236,-290 248.424,-270.973 270.458,-259.598 291.314,-252.822"/>
<polygon fill="midnightblue" stroke="midnightblue" points="234.962,-454.727 240.05,-464.02 241.868,-453.582 234.962,-454.727"/>
</g>
<!-- Node8 -->
<g id="node15" class="node"><title>Node8</title>
<a xlink:href="../../d1/dca/Intensity_8cpp.html" target="_top" xlink:title="Intensity.cpp">
<polygon fill="white" stroke="black" points="141.5,-406.5 141.5,-427.5 214.5,-427.5 214.5,-406.5 141.5,-406.5"/>
<text text-anchor="middle" x="178" y="-414.5" font-family="Helvetica,sans-Serif" font-size="10.00">Intensity.cpp</text>
</a>
</g>
<!-- Node3&#45;&gt;Node8 -->
<g id="edge14" class="edge"><title>Node3&#45;&gt;Node8</title>
<path fill="none" stroke="midnightblue" d="M222.585,-457.405C211.841,-447.668 198.846,-435.891 189.664,-427.571"/>
<polygon fill="midnightblue" stroke="midnightblue" points="220.501,-460.24 230.261,-464.362 225.202,-455.053 220.501,-460.24"/>
</g>
<!-- Node9 -->
<g id="node17" class="node"><title>Node9</title>
<a xlink:href="../../d3/db7/LHCNoiseFB_8cpp.html" target="_top" xlink:title="LHCNoiseFB.cpp">
<polygon fill="white" stroke="black" points="180,-232.5 180,-253.5 274,-253.5 274,-232.5 180,-232.5"/>
<text text-anchor="middle" x="227" y="-240.5" font-family="Helvetica,sans-Serif" font-size="10.00">LHCNoiseFB.cpp</text>
</a>
</g>
<!-- Node3&#45;&gt;Node9 -->
<g id="edge16" class="edge"><title>Node3&#45;&gt;Node9</title>
<path fill="none" stroke="midnightblue" d="M186.304,-464.417C165.997,-457.574 145.075,-446.356 133,-428 91.9173,-365.546 179.19,-282.793 213.733,-253.679"/>
<polygon fill="midnightblue" stroke="midnightblue" points="185.281,-467.764 195.868,-467.349 187.333,-461.071 185.281,-467.764"/>
</g>
<!-- Node10 -->
<g id="node19" class="node"><title>Node10</title>
<a xlink:href="../../db/dee/PhaseLoop_8cpp.html" target="_top" xlink:title="PhaseLoop.cpp">
<polygon fill="white" stroke="black" points="229,-116.5 229,-137.5 313,-137.5 313,-116.5 229,-116.5"/>
<text text-anchor="middle" x="271" y="-124.5" font-family="Helvetica,sans-Serif" font-size="10.00">PhaseLoop.cpp</text>
</a>
</g>
<!-- Node3&#45;&gt;Node10 -->
<g id="edge18" class="edge"><title>Node3&#45;&gt;Node10</title>
<path fill="none" stroke="midnightblue" d="M186.304,-464.417C165.997,-457.574 145.075,-446.356 133,-428 127.626,-419.831 132.441,-415.762 133,-406 138.946,-302.201 98.801,-255.781 163,-174 179.099,-153.492 205.951,-141.754 228.852,-135.136"/>
<polygon fill="midnightblue" stroke="midnightblue" points="185.281,-467.764 195.868,-467.349 187.333,-461.071 185.281,-467.764"/>
</g>
<!-- Node11 -->
<g id="node21" class="node"><title>Node11</title>
<a xlink:href="../../db/d82/PhaseNoise_8cpp.html" target="_top" xlink:title="PhaseNoise.cpp">
<polygon fill="white" stroke="black" points="244.5,-174.5 244.5,-195.5 333.5,-195.5 333.5,-174.5 244.5,-174.5"/>
<text text-anchor="middle" x="289" y="-182.5" font-family="Helvetica,sans-Serif" font-size="10.00">PhaseNoise.cpp</text>
</a>
</g>
<!-- Node3&#45;&gt;Node11 -->
<g id="edge20" class="edge"><title>Node3&#45;&gt;Node11</title>
<path fill="none" stroke="midnightblue" d="M190.35,-461.631C160.689,-452.795 127.647,-440.561 119,-428 114.4,-421.319 111.87,-388.689 121,-348 133.291,-293.221 130.752,-271.139 171,-232 190.998,-212.553 220.045,-200.849 244.315,-193.984"/>
<polygon fill="midnightblue" stroke="midnightblue" points="189.661,-465.075 200.24,-464.493 191.607,-458.351 189.661,-465.075"/>
</g>
<!-- Node12 -->
<g id="node23" class="node"><title>Node12</title>
<a xlink:href="../../d2/d6f/Tracker_8cpp.html" target="_top" xlink:title="Tracker.cpp">
<polygon fill="white" stroke="black" points="259,-58.5 259,-79.5 327,-79.5 327,-58.5 259,-58.5"/>
<text text-anchor="middle" x="293" y="-66.5" font-family="Helvetica,sans-Serif" font-size="10.00">Tracker.cpp</text>
</a>
</g>
<!-- Node3&#45;&gt;Node12 -->
<g id="edge22" class="edge"><title>Node3&#45;&gt;Node12</title>
<path fill="none" stroke="midnightblue" d="M191.562,-461.738C120.638,-441.581 0,-401.106 0,-359 0,-359 0,-359 0,-243 0,-123.789 181.526,-84.4421 258.816,-73.0918"/>
<polygon fill="midnightblue" stroke="midnightblue" points="190.648,-465.117 201.222,-464.445 192.537,-458.376 190.648,-465.117"/>
</g>
<!-- Node13 -->
<g id="node25" class="node"><title>Node13</title>
<a xlink:href="../../de/da5/utilities_8cpp.html" target="_top" xlink:title="utilities.cpp">
<polygon fill="white" stroke="black" points="245,-290.5 245,-311.5 311,-311.5 311,-290.5 245,-290.5"/>
<text text-anchor="middle" x="278" y="-298.5" font-family="Helvetica,sans-Serif" font-size="10.00">utilities.cpp</text>
</a>
</g>
<!-- Node3&#45;&gt;Node13 -->
<g id="edge24" class="edge"><title>Node3&#45;&gt;Node13</title>
<path fill="none" stroke="midnightblue" d="M248.685,-454.478C251.2,-446.298 253.944,-436.76 256,-428 266.021,-385.301 273.593,-333.54 276.592,-311.622"/>
<polygon fill="midnightblue" stroke="midnightblue" points="245.267,-453.68 245.59,-464.27 251.942,-455.79 245.267,-453.68"/>
</g>
<!-- Node14 -->
<g id="node27" class="node"><title>Node14</title>
<a xlink:href="../../d6/db7/RfParameters_8h.html" target="_top" xlink:title="RfParameters.h">
<polygon fill="white" stroke="black" points="758,-406.5 758,-427.5 844,-427.5 844,-406.5 758,-406.5"/>
<text text-anchor="middle" x="801" y="-414.5" font-family="Helvetica,sans-Serif" font-size="10.00">RfParameters.h</text>
</a>
</g>
<!-- Node3&#45;&gt;Node14 -->
<g id="edge26" class="edge"><title>Node3&#45;&gt;Node14</title>
<path fill="none" stroke="midnightblue" d="M298.244,-471.312C390.842,-464.881 581.074,-450.148 741,-428 746.455,-427.245 752.169,-426.342 757.813,-425.384"/>
<polygon fill="midnightblue" stroke="midnightblue" points="297.985,-467.822 288.249,-472.001 298.466,-474.805 297.985,-467.822"/>
</g>
<!-- Node15 -->
<g id="node29" class="node"><title>Node15</title>
<a xlink:href="../../dc/d61/RfParameters_8cpp.html" target="_top" xlink:title="RfParameters.cpp">
<polygon fill="white" stroke="black" points="755,-348.5 755,-369.5 851,-369.5 851,-348.5 755,-348.5"/>
<text text-anchor="middle" x="803" y="-356.5" font-family="Helvetica,sans-Serif" font-size="10.00">RfParameters.cpp</text>
</a>
</g>
<!-- Node14&#45;&gt;Node15 -->
<g id="edge28" class="edge"><title>Node14&#45;&gt;Node15</title>
<path fill="none" stroke="midnightblue" d="M801.718,-396.191C802.029,-387.168 802.38,-376.994 802.635,-369.571"/>
<polygon fill="midnightblue" stroke="midnightblue" points="798.214,-396.247 801.367,-406.362 805.209,-396.488 798.214,-396.247"/>
</g>
<!-- Node16 -->
<g id="node31" class="node"><title>Node16</title>
<a xlink:href="../../d7/d74/Beams_8h.html" target="_top" xlink:title="Beams.h">
<polygon fill="white" stroke="black" points="643,-348.5 643,-369.5 699,-369.5 699,-348.5 643,-348.5"/>
<text text-anchor="middle" x="671" y="-356.5" font-family="Helvetica,sans-Serif" font-size="10.00">Beams.h</text>
</a>
</g>
<!-- Node14&#45;&gt;Node16 -->
<g id="edge30" class="edge"><title>Node14&#45;&gt;Node16</title>
<path fill="none" stroke="midnightblue" d="M762.837,-402.615C738.648,-392.389 708.556,-378.88 689.445,-369.621"/>
<polygon fill="midnightblue" stroke="midnightblue" points="761.542,-405.867 772.118,-406.497 764.243,-399.409 761.542,-405.867"/>
</g>
<!-- Node18 -->
<g id="node37" class="node"><title>Node18</title>
<a xlink:href="../../d5/d87/globals_8h.html" target="_top" xlink:title="globals.h">
<polygon fill="white" stroke="black" points="522,-290.5 522,-311.5 578,-311.5 578,-290.5 522,-290.5"/>
<text text-anchor="middle" x="550" y="-298.5" font-family="Helvetica,sans-Serif" font-size="10.00">globals.h</text>
</a>
</g>
<!-- Node14&#45;&gt;Node18 -->
<g id="edge114" class="edge"><title>Node14&#45;&gt;Node18</title>
<path fill="none" stroke="midnightblue" d="M748.074,-409.467C711.766,-402.502 663.563,-390.126 625,-370 595.051,-354.37 565.916,-326.863 554.175,-311.73"/>
<polygon fill="midnightblue" stroke="midnightblue" points="747.513,-412.923 757.982,-411.29 748.78,-406.038 747.513,-412.923"/>
</g>
<!-- Node21 -->
<g id="node49" class="node"><title>Node21</title>
<a xlink:href="../../d0/da6/Monitors_8h.html" target="_top" xlink:title="Monitors.h">
<polygon fill="white" stroke="black" points="970,-116.5 970,-137.5 1032,-137.5 1032,-116.5 970,-116.5"/>
<text text-anchor="middle" x="1001" y="-124.5" font-family="Helvetica,sans-Serif" font-size="10.00">Monitors.h</text>
</a>
</g>
<!-- Node14&#45;&gt;Node21 -->
<g id="edge116" class="edge"><title>Node14&#45;&gt;Node21</title>
<path fill="none" stroke="midnightblue" d="M854.082,-407.282C937.382,-390.878 1092.85,-355.22 1127,-312 1149.29,-283.789 1154.97,-264.213 1139,-232 1115.54,-184.662 1059.39,-152.882 1026.39,-137.575"/>
<polygon fill="midnightblue" stroke="midnightblue" points="853.197,-403.888 844.05,-409.233 854.534,-410.759 853.197,-403.888"/>
</g>
<!-- Node30 -->
<g id="node76" class="node"><title>Node30</title>
<a xlink:href="../../d8/d94/plot__beams_8h.html" target="_top" xlink:title="plot_beams.h">
<polygon fill="white" stroke="black" points="830.5,-290.5 830.5,-311.5 905.5,-311.5 905.5,-290.5 830.5,-290.5"/>
<text text-anchor="middle" x="868" y="-298.5" font-family="Helvetica,sans-Serif" font-size="10.00">plot_beams.h</text>
</a>
</g>
<!-- Node14&#45;&gt;Node30 -->
<g id="edge118" class="edge"><title>Node14&#45;&gt;Node30</title>
<path fill="none" stroke="midnightblue" d="M829.624,-401.028C840.966,-393.189 852.959,-382.683 860,-370 870.302,-351.443 870.22,-325.789 869.163,-311.567"/>
<polygon fill="midnightblue" stroke="midnightblue" points="827.667,-398.126 821.17,-406.495 831.468,-404.004 827.667,-398.126"/>
</g>
<!-- Node31 -->
<g id="node79" class="node"><title>Node31</title>
<a xlink:href="../../dc/df2/Slices_8h.html" target="_top" xlink:title="Slices.h">
<polygon fill="white" stroke="black" points="907,-348.5 907,-369.5 959,-369.5 959,-348.5 907,-348.5"/>
<text text-anchor="middle" x="933" y="-356.5" font-family="Helvetica,sans-Serif" font-size="10.00">Slices.h</text>
</a>
</g>
<!-- Node14&#45;&gt;Node31 -->
<g id="edge96" class="edge"><title>Node14&#45;&gt;Node31</title>
<path fill="none" stroke="midnightblue" d="M834.357,-402.343C857.555,-392.15 887.943,-378.798 908.828,-369.621"/>
<polygon fill="midnightblue" stroke="midnightblue" points="832.651,-399.27 824.904,-406.497 835.467,-405.678 832.651,-399.27"/>
</g>
<!-- Node32 -->
<g id="node86" class="node"><title>Node32</title>
<a xlink:href="../../d2/d51/plot__slices_8h.html" target="_top" xlink:title="plot_slices.h">
<polygon fill="white" stroke="black" points="1047.5,-290.5 1047.5,-311.5 1118.5,-311.5 1118.5,-290.5 1047.5,-290.5"/>
<text text-anchor="middle" x="1083" y="-298.5" font-family="Helvetica,sans-Serif" font-size="10.00">plot_slices.h</text>
</a>
</g>
<!-- Node14&#45;&gt;Node32 -->
<g id="edge124" class="edge"><title>Node14&#45;&gt;Node32</title>
<path fill="none" stroke="midnightblue" d="M854.314,-405.826C887.735,-397.895 931.284,-385.844 968,-370 1006.05,-353.58 1046.79,-326.635 1068.08,-311.74"/>
<polygon fill="midnightblue" stroke="midnightblue" points="853.236,-402.483 844.287,-408.155 854.819,-409.302 853.236,-402.483"/>
</g>
<!-- Node34 -->
<g id="node94" class="node"><title>Node34</title>
<a xlink:href="../../d3/dda/plot__llrf_8h.html" target="_top" xlink:title="plot_llrf.h">
<polygon fill="white" stroke="black" points="1168,-174.5 1168,-195.5 1224,-195.5 1224,-174.5 1168,-174.5"/>
<text text-anchor="middle" x="1196" y="-182.5" font-family="Helvetica,sans-Serif" font-size="10.00">plot_llrf.h</text>
</a>
</g>
<!-- Node14&#45;&gt;Node34 -->
<g id="edge120" class="edge"><title>Node14&#45;&gt;Node34</title>
<path fill="none" stroke="midnightblue" d="M854.458,-413.806C951.773,-407.478 1149.9,-392.031 1172,-370 1220.39,-321.751 1205.32,-227.36 1198.52,-195.667"/>
<polygon fill="midnightblue" stroke="midnightblue" points="853.991,-410.329 844.235,-414.461 854.439,-417.314 853.991,-410.329"/>
</g>
<!-- Node35 -->
<g id="node98" class="node"><title>Node35</title>
<a xlink:href="../../de/d44/trackers_2utilities_8h.html" target="_top" xlink:title="utilities.h">
<polygon fill="white" stroke="black" points="313,-348.5 313,-369.5 369,-369.5 369,-348.5 313,-348.5"/>
<text text-anchor="middle" x="341" y="-356.5" font-family="Helvetica,sans-Serif" font-size="10.00">utilities.h</text>
</a>
</g>
<!-- Node14&#45;&gt;Node35 -->
<g id="edge126" class="edge"><title>Node14&#45;&gt;Node35</title>
<path fill="none" stroke="midnightblue" d="M747.735,-410.284C649.738,-397.928 444.035,-371.991 369.084,-362.541"/>
<polygon fill="midnightblue" stroke="midnightblue" points="747.365,-413.765 757.724,-411.544 748.241,-406.82 747.365,-413.765"/>
</g>
<!-- Node16&#45;&gt;Node4 -->
<g id="edge32" class="edge"><title>Node16&#45;&gt;Node4</title>
<path fill="none" stroke="midnightblue" d="M632.83,-351.27C588.201,-342.168 512.14,-326.455 447,-312 442.5,-311.002 437.765,-309.924 433.102,-308.848"/>
<polygon fill="midnightblue" stroke="midnightblue" points="632.169,-354.708 642.667,-353.273 633.566,-347.849 632.169,-354.708"/>
</g>
<!-- Node16&#45;&gt;Node14 -->
<g id="edge88" class="edge"><title>Node16&#45;&gt;Node14</title>
<path fill="none" stroke="midnightblue" d="M708.566,-373.132C732.957,-383.431 763.544,-397.159 782.798,-406.497"/>
<polygon fill="midnightblue" stroke="midnightblue" points="709.797,-369.854 699.221,-369.231 707.1,-376.313 709.797,-369.854"/>
</g>
<!-- Node17 -->
<g id="node34" class="node"><title>Node17</title>
<a xlink:href="../../dc/d7d/Distributions_8h.html" target="_top" xlink:title="Distributions.h">
<polygon fill="white" stroke="black" points="638,-58.5 638,-79.5 718,-79.5 718,-58.5 638,-58.5"/>
<text text-anchor="middle" x="678" y="-66.5" font-family="Helvetica,sans-Serif" font-size="10.00">Distributions.h</text>
</a>
</g>
<!-- Node16&#45;&gt;Node17 -->
<g id="edge34" class="edge"><title>Node16&#45;&gt;Node17</title>
<path fill="none" stroke="midnightblue" d="M683.505,-339.818C696.821,-317.504 716,-279.101 716,-243 716,-243 716,-243 716,-185 716,-144.523 694.847,-99.8734 684.105,-79.809"/>
<polygon fill="midnightblue" stroke="midnightblue" points="680.516,-337.997 678.23,-348.342 686.469,-341.68 680.516,-337.997"/>
</g>
<!-- Node16&#45;&gt;Node18 -->
<g id="edge38" class="edge"><title>Node16&#45;&gt;Node18</title>
<path fill="none" stroke="midnightblue" d="M634.468,-344.343C611.973,-334.15 584.314,-320.798 566.797,-311.621"/>
<polygon fill="midnightblue" stroke="midnightblue" points="633.19,-347.606 643.748,-348.497 636.05,-341.217 633.19,-347.606"/>
</g>
<!-- Node16&#45;&gt;Node21 -->
<g id="edge90" class="edge"><title>Node16&#45;&gt;Node21</title>
<path fill="none" stroke="midnightblue" d="M700.085,-343.818C730.029,-328.643 778.345,-305.408 822,-290 882.99,-268.474 916.344,-298.792 963,-254 996.37,-221.963 1000.76,-161.942 1001.11,-137.631"/>
<polygon fill="midnightblue" stroke="midnightblue" points="698.35,-340.775 691.038,-348.442 701.535,-347.008 698.35,-340.775"/>
</g>
<!-- Node27 -->
<g id="node65" class="node"><title>Node27</title>
<a xlink:href="../../d9/dee/InducedVoltage_8h.html" target="_top" xlink:title="InducedVoltage.h">
<polygon fill="white" stroke="black" points="596,-290.5 596,-311.5 688,-311.5 688,-290.5 596,-290.5"/>
<text text-anchor="middle" x="642" y="-298.5" font-family="Helvetica,sans-Serif" font-size="10.00">InducedVoltage.h</text>
</a>
</g>
<!-- Node16&#45;&gt;Node27 -->
<g id="edge76" class="edge"><title>Node16&#45;&gt;Node27</title>
<path fill="none" stroke="midnightblue" d="M661.187,-339.373C656.534,-330.068 651.16,-319.32 647.285,-311.571"/>
<polygon fill="midnightblue" stroke="midnightblue" points="658.078,-340.983 665.681,-348.362 664.339,-337.852 658.078,-340.983"/>
</g>
<!-- Node16&#45;&gt;Node30 -->
<g id="edge92" class="edge"><title>Node16&#45;&gt;Node30</title>
<path fill="none" stroke="midnightblue" d="M709.224,-347.746C744.783,-337.277 797.368,-321.795 832.144,-311.556"/>
<polygon fill="midnightblue" stroke="midnightblue" points="707.83,-344.508 699.225,-350.69 709.807,-351.223 707.83,-344.508"/>
</g>
<!-- Node17&#45;&gt;Node5 -->
<g id="edge36" class="edge"><title>Node17&#45;&gt;Node5</title>
<path fill="none" stroke="midnightblue" d="M678,-48.1906C678,-39.1684 678,-28.9941 678,-21.5707"/>
<polygon fill="midnightblue" stroke="midnightblue" points="674.5,-48.3619 678,-58.3619 681.5,-48.3619 674.5,-48.3619"/>
</g>
<!-- Node18&#45;&gt;Node6 -->
<g id="edge40" class="edge"><title>Node18&#45;&gt;Node6</title>
<path fill="none" stroke="midnightblue" d="M587.961,-289.811C648.494,-273.376 708.486,-258.777 743.953,-250.319"/>
<polygon fill="midnightblue" stroke="midnightblue" points="586.97,-286.453 578.245,-292.464 588.814,-293.206 586.97,-286.453"/>
</g>
<!-- Node18&#45;&gt;Node7 -->
<g id="edge44" class="edge"><title>Node18&#45;&gt;Node7</title>
<path fill="none" stroke="midnightblue" d="M511.662,-290.258C474.341,-279.801 417.966,-264.005 380.822,-253.598"/>
<polygon fill="midnightblue" stroke="midnightblue" points="511.078,-293.729 521.652,-293.057 512.967,-286.989 511.078,-293.729"/>
</g>
<!-- Node18&#45;&gt;Node9 -->
<g id="edge46" class="edge"><title>Node18&#45;&gt;Node9</title>
<path fill="none" stroke="midnightblue" d="M511.829,-294.524C459.97,-285.671 364.384,-269.154 283,-254 280.078,-253.456 277.071,-252.888 274.041,-252.31"/>
<polygon fill="midnightblue" stroke="midnightblue" points="511.459,-298.012 521.905,-296.242 512.636,-291.111 511.459,-298.012"/>
</g>
<!-- Node18&#45;&gt;Node14 -->
<g id="edge50" class="edge"><title>Node18&#45;&gt;Node14</title>
<path fill="none" stroke="midnightblue" d="M573.722,-318.357C591.669,-333.96 617.029,-356.446 643,-370 679.715,-389.161 725.167,-401.298 757.985,-408.428"/>
<polygon fill="midnightblue" stroke="midnightblue" points="575.884,-315.601 566.022,-311.73 571.318,-320.906 575.884,-315.601"/>
</g>
<!-- Node18&#45;&gt;Node16 -->
<g id="edge48" class="edge"><title>Node18&#45;&gt;Node16</title>
<path fill="none" stroke="midnightblue" d="M586.822,-315.788C609.361,-326.008 636.998,-339.356 654.428,-348.497"/>
<polygon fill="midnightblue" stroke="midnightblue" points="588.076,-312.515 577.519,-311.621 585.215,-318.903 588.076,-312.515"/>
</g>
<!-- Node19 -->
<g id="node40" class="node"><title>Node19</title>
<a xlink:href="../../da/d77/globals_8cpp.html" target="_top" xlink:title="globals.cpp">
<polygon fill="white" stroke="black" points="546,-232.5 546,-253.5 612,-253.5 612,-232.5 546,-232.5"/>
<text text-anchor="middle" x="579" y="-240.5" font-family="Helvetica,sans-Serif" font-size="10.00">globals.cpp</text>
</a>
</g>
<!-- Node18&#45;&gt;Node19 -->
<g id="edge42" class="edge"><title>Node18&#45;&gt;Node19</title>
<path fill="none" stroke="midnightblue" d="M559.813,-281.373C564.466,-272.068 569.84,-261.32 573.715,-253.571"/>
<polygon fill="midnightblue" stroke="midnightblue" points="556.661,-279.852 555.319,-290.362 562.922,-282.983 556.661,-279.852"/>
</g>
<!-- Node20 -->
<g id="node46" class="node"><title>Node20</title>
<a xlink:href="../../d3/d33/PhaseLoop_8h.html" target="_top" xlink:title="PhaseLoop.h">
<polygon fill="white" stroke="black" points="448,-174.5 448,-195.5 522,-195.5 522,-174.5 448,-174.5"/>
<text text-anchor="middle" x="485" y="-182.5" font-family="Helvetica,sans-Serif" font-size="10.00">PhaseLoop.h</text>
</a>
</g>
<!-- Node18&#45;&gt;Node20 -->
<g id="edge52" class="edge"><title>Node18&#45;&gt;Node20</title>
<path fill="none" stroke="midnightblue" d="M539.045,-281.45C525.213,-256.764 501.905,-215.168 490.984,-195.679"/>
<polygon fill="midnightblue" stroke="midnightblue" points="536.06,-283.282 544.001,-290.295 542.166,-279.86 536.06,-283.282"/>
</g>
<!-- Node26 -->
<g id="node61" class="node"><title>Node26</title>
<a xlink:href="../../d9/dc8/PhaseNoise_8h.html" target="_top" xlink:title="PhaseNoise.h">
<polygon fill="white" stroke="black" points="412,-232.5 412,-253.5 490,-253.5 490,-232.5 412,-232.5"/>
<text text-anchor="middle" x="451" y="-240.5" font-family="Helvetica,sans-Serif" font-size="10.00">PhaseNoise.h</text>
</a>
</g>
<!-- Node18&#45;&gt;Node26 -->
<g id="edge70" class="edge"><title>Node18&#45;&gt;Node26</title>
<path fill="none" stroke="midnightblue" d="M522.862,-285.101C505.733,-275.066 484.081,-262.381 469.043,-253.571"/>
<polygon fill="midnightblue" stroke="midnightblue" points="521.444,-288.327 531.842,-290.362 524.983,-282.287 521.444,-288.327"/>
</g>
<!-- Node20&#45;&gt;Node10 -->
<g id="edge54" class="edge"><title>Node20&#45;&gt;Node10</title>
<path fill="none" stroke="midnightblue" d="M437.826,-172.215C399.467,-161.818 345.992,-147.325 310.018,-137.575"/>
<polygon fill="midnightblue" stroke="midnightblue" points="437.157,-175.659 447.724,-174.897 438.988,-168.903 437.157,-175.659"/>
</g>
<!-- Node20&#45;&gt;Node21 -->
<g id="edge56" class="edge"><title>Node20&#45;&gt;Node21</title>
<path fill="none" stroke="midnightblue" d="M532.317,-179.681C636.396,-167.983 882.849,-140.281 969.893,-130.497"/>
<polygon fill="midnightblue" stroke="midnightblue" points="531.656,-176.234 522.109,-180.829 532.438,-183.19 531.656,-176.234"/>
</g>
<!-- Node25 -->
<g id="node57" class="node"><title>Node25</title>
<a xlink:href="../../d2/d0e/Tracker_8h.html" target="_top" xlink:title="Tracker.h">
<polygon fill="white" stroke="black" points="456,-116.5 456,-137.5 514,-137.5 514,-116.5 456,-116.5"/>
<text text-anchor="middle" x="485" y="-124.5" font-family="Helvetica,sans-Serif" font-size="10.00">Tracker.h</text>
</a>
</g>
<!-- Node20&#45;&gt;Node25 -->
<g id="edge64" class="edge"><title>Node20&#45;&gt;Node25</title>
<path fill="none" stroke="midnightblue" d="M485,-164.191C485,-155.168 485,-144.994 485,-137.571"/>
<polygon fill="midnightblue" stroke="midnightblue" points="481.5,-164.362 485,-174.362 488.5,-164.362 481.5,-164.362"/>
</g>
<!-- Node22 -->
<g id="node51" class="node"><title>Node22</title>
<a xlink:href="../../da/dda/Monitors_8cpp.html" target="_top" xlink:title="Monitors.cpp">
<polygon fill="white" stroke="black" points="964.5,-58.5 964.5,-79.5 1037.5,-79.5 1037.5,-58.5 964.5,-58.5"/>
<text text-anchor="middle" x="1001" y="-66.5" font-family="Helvetica,sans-Serif" font-size="10.00">Monitors.cpp</text>
</a>
</g>
<!-- Node21&#45;&gt;Node22 -->
<g id="edge58" class="edge"><title>Node21&#45;&gt;Node22</title>
<path fill="none" stroke="midnightblue" d="M1001,-106.191C1001,-97.1684 1001,-86.9941 1001,-79.5707"/>
<polygon fill="midnightblue" stroke="midnightblue" points="997.5,-106.362 1001,-116.362 1004.5,-106.362 997.5,-106.362"/>
</g>
<!-- Node23 -->
<g id="node53" class="node"><title>Node23</title>
<a xlink:href="../../d3/d2c/plot__beams_8cpp.html" target="_top" xlink:title="plot_beams.cpp">
<polygon fill="white" stroke="black" points="820,-58.5 820,-79.5 906,-79.5 906,-58.5 820,-58.5"/>
<text text-anchor="middle" x="863" y="-66.5" font-family="Helvetica,sans-Serif" font-size="10.00">plot_beams.cpp</text>
</a>
</g>
<!-- Node21&#45;&gt;Node23 -->
<g id="edge60" class="edge"><title>Node21&#45;&gt;Node23</title>
<path fill="none" stroke="midnightblue" d="M966.774,-112.615C942.443,-102.389 910.3,-88.8796 888.271,-79.6212"/>
<polygon fill="midnightblue" stroke="midnightblue" points="965.434,-115.849 976.009,-116.497 968.146,-109.395 965.434,-115.849"/>
</g>
<!-- Node24 -->
<g id="node55" class="node"><title>Node24</title>
<a xlink:href="../../d3/dca/plot__llrf_8cpp.html" target="_top" xlink:title="plot_llrf.cpp">
<polygon fill="white" stroke="black" points="1106.5,-58.5 1106.5,-79.5 1173.5,-79.5 1173.5,-58.5 1106.5,-58.5"/>
<text text-anchor="middle" x="1140" y="-66.5" font-family="Helvetica,sans-Serif" font-size="10.00">plot_llrf.cpp</text>
</a>
</g>
<!-- Node21&#45;&gt;Node24 -->
<g id="edge62" class="edge"><title>Node21&#45;&gt;Node24</title>
<path fill="none" stroke="midnightblue" d="M1035.47,-112.615C1059.98,-102.389 1092.36,-88.8796 1114.55,-79.6212"/>
<polygon fill="midnightblue" stroke="midnightblue" points="1034.05,-109.416 1026.17,-116.497 1036.75,-115.876 1034.05,-109.416"/>
</g>
<!-- Node25&#45;&gt;Node12 -->
<g id="edge66" class="edge"><title>Node25&#45;&gt;Node12</title>
<path fill="none" stroke="midnightblue" d="M446.014,-115.223C411.18,-104.7 360.64,-89.4329 327.31,-79.3645"/>
<polygon fill="midnightblue" stroke="midnightblue" points="445.254,-118.65 455.839,-118.191 447.279,-111.949 445.254,-118.65"/>
</g>
<!-- Node25&#45;&gt;Node17 -->
<g id="edge68" class="edge"><title>Node25&#45;&gt;Node17</title>
<path fill="none" stroke="midnightblue" d="M524.126,-115.242C558.91,-104.789 609.31,-89.6427 642.838,-79.567"/>
<polygon fill="midnightblue" stroke="midnightblue" points="522.882,-111.961 514.313,-118.191 524.897,-118.665 522.882,-111.961"/>
</g>
<!-- Node26&#45;&gt;Node11 -->
<g id="edge72" class="edge"><title>Node26&#45;&gt;Node11</title>
<path fill="none" stroke="midnightblue" d="M411.923,-229.009C383.134,-218.702 344.591,-204.903 318.392,-195.523"/>
<polygon fill="midnightblue" stroke="midnightblue" points="411.068,-232.421 421.663,-232.497 413.428,-225.831 411.068,-232.421"/>
</g>
<!-- Node26&#45;&gt;Node20 -->
<g id="edge74" class="edge"><title>Node26&#45;&gt;Node20</title>
<path fill="none" stroke="midnightblue" d="M462.333,-223.667C467.827,-214.295 474.213,-203.402 478.803,-195.571"/>
<polygon fill="midnightblue" stroke="midnightblue" points="459.274,-221.965 457.236,-232.362 465.313,-225.505 459.274,-221.965"/>
</g>
<!-- Node27&#45;&gt;Node7 -->
<g id="edge78" class="edge"><title>Node27&#45;&gt;Node7</title>
<path fill="none" stroke="midnightblue" d="M585.672,-289.748C513.938,-275.687 442.094,-261.901 394.903,-252.887"/>
<polygon fill="midnightblue" stroke="midnightblue" points="585.304,-293.243 595.791,-291.734 586.652,-286.374 585.304,-293.243"/>
</g>
<!-- Node27&#45;&gt;Node17 -->
<g id="edge80" class="edge"><title>Node27&#45;&gt;Node17</title>
<path fill="none" stroke="midnightblue" d="M645.207,-280.335C652.629,-232.5 670.783,-115.508 676.35,-79.6335"/>
<polygon fill="midnightblue" stroke="midnightblue" points="641.715,-280.01 643.64,-290.429 648.632,-281.084 641.715,-280.01"/>
</g>
<!-- Node27&#45;&gt;Node25 -->
<g id="edge86" class="edge"><title>Node27&#45;&gt;Node25</title>
<path fill="none" stroke="midnightblue" d="M639.123,-280.3C636.327,-265.777 630.98,-246.451 621,-232 590.489,-187.819 535.648,-153.857 505.775,-137.586"/>
<polygon fill="midnightblue" stroke="midnightblue" points="635.696,-281.024 640.798,-290.309 642.6,-279.869 635.696,-281.024"/>
</g>
<!-- Node28 -->
<g id="node69" class="node"><title>Node28</title>
<a xlink:href="../../da/d77/plot__impedance_8h.html" target="_top" xlink:title="plot_impedance.h">
<polygon fill="white" stroke="black" points="861.5,-232.5 861.5,-253.5 954.5,-253.5 954.5,-232.5 861.5,-232.5"/>
<text text-anchor="middle" x="908" y="-240.5" font-family="Helvetica,sans-Serif" font-size="10.00">plot_impedance.h</text>
</a>
</g>
<!-- Node27&#45;&gt;Node28 -->
<g id="edge82" class="edge"><title>Node27&#45;&gt;Node28</title>
<path fill="none" stroke="midnightblue" d="M698.034,-288.782C746.469,-278.221 815.667,-263.133 861.194,-253.206"/>
<polygon fill="midnightblue" stroke="midnightblue" points="697.055,-285.413 688.03,-290.963 698.546,-292.253 697.055,-285.413"/>
</g>
<!-- Node29 -->
<g id="node71" class="node"><title>Node29</title>
<a xlink:href="../../d8/d29/plot__impedance_8cpp.html" target="_top" xlink:title="plot_impedance.cpp">
<polygon fill="white" stroke="black" points="850,-174.5 850,-195.5 954,-195.5 954,-174.5 850,-174.5"/>
<text text-anchor="middle" x="902" y="-182.5" font-family="Helvetica,sans-Serif" font-size="10.00">plot_impedance.cpp</text>
</a>
</g>
<!-- Node28&#45;&gt;Node29 -->
<g id="edge84" class="edge"><title>Node28&#45;&gt;Node29</title>
<path fill="none" stroke="midnightblue" d="M905.847,-222.191C904.914,-213.168 903.861,-202.994 903.094,-195.571"/>
<polygon fill="midnightblue" stroke="midnightblue" points="902.389,-222.775 906.9,-232.362 909.352,-222.055 902.389,-222.775"/>
</g>
<!-- Node30&#45;&gt;Node23 -->
<g id="edge94" class="edge"><title>Node30&#45;&gt;Node23</title>
<path fill="none" stroke="midnightblue" d="M861.024,-280.749C858.32,-272.508 855.322,-262.855 853,-254 843.88,-219.223 837.294,-209.762 841,-174 844.629,-138.986 854.891,-98.4413 860.014,-79.6168"/>
<polygon fill="midnightblue" stroke="midnightblue" points="857.719,-281.901 864.22,-290.267 864.355,-279.673 857.719,-281.901"/>
</g>
<!-- Node31&#45;&gt;Node6 -->
<g id="edge98" class="edge"><title>Node31&#45;&gt;Node6</title>
<path fill="none" stroke="midnightblue" d="M932.327,-338.418C930.762,-323.226 926.287,-303.013 914,-290 899.091,-274.21 842.384,-258.605 806.169,-249.942"/>
<polygon fill="midnightblue" stroke="midnightblue" points="928.837,-338.684 933.021,-348.417 935.82,-338.198 928.837,-338.684"/>
</g>
<!-- Node31&#45;&gt;Node18 -->
<g id="edge100" class="edge"><title>Node31&#45;&gt;Node18</title>
<path fill="none" stroke="midnightblue" d="M896.764,-353.405C885.04,-351.631 871.975,-349.692 860,-348 738.819,-330.882 706.694,-337.517 587,-312 584.116,-311.385 581.131,-310.657 578.164,-309.872"/>
<polygon fill="midnightblue" stroke="midnightblue" points="896.249,-356.867 906.662,-354.911 897.302,-349.946 896.249,-356.867"/>
</g>
<!-- Node31&#45;&gt;Node21 -->
<g id="edge102" class="edge"><title>Node31&#45;&gt;Node21</title>
<path fill="none" stroke="midnightblue" d="M948.324,-340.304C963.659,-320.33 986.323,-287.057 996,-254 1008.15,-212.493 1004.63,-160.099 1002.31,-137.819"/>
<polygon fill="midnightblue" stroke="midnightblue" points="945.501,-338.232 942.063,-348.253 951,-342.563 945.501,-338.232"/>
</g>
<!-- Node31&#45;&gt;Node25 -->
<g id="edge112" class="edge"><title>Node31&#45;&gt;Node25</title>
<path fill="none" stroke="midnightblue" d="M896.791,-353.206C885.068,-351.421 871.997,-349.525 860,-348 706.188,-328.443 664.9,-343.096 513,-312 480.636,-305.374 474.266,-297.089 442,-290 382.664,-276.963 211.029,-299.699 171,-254 88.0829,-159.34 363.213,-134.193 455.722,-128.49"/>
<polygon fill="midnightblue" stroke="midnightblue" points="896.268,-356.667 906.685,-354.735 897.337,-349.749 896.268,-356.667"/>
</g>
<!-- Node31&#45;&gt;Node28 -->
<g id="edge106" class="edge"><title>Node31&#45;&gt;Node28</title>
<path fill="none" stroke="midnightblue" d="M942.595,-339.257C948.076,-325.228 952.809,-306.098 947,-290 941.745,-275.439 929.799,-262.199 920.503,-253.51"/>
<polygon fill="midnightblue" stroke="midnightblue" points="939.374,-337.887 938.611,-348.455 945.797,-340.669 939.374,-337.887"/>
</g>
<!-- Node31&#45;&gt;Node30 -->
<g id="edge104" class="edge"><title>Node31&#45;&gt;Node30</title>
<path fill="none" stroke="midnightblue" d="M913.602,-341.691C902.629,-331.9 889.263,-319.973 879.846,-311.571"/>
<polygon fill="midnightblue" stroke="midnightblue" points="911.286,-344.315 921.078,-348.362 915.947,-339.092 911.286,-344.315"/>
</g>
<!-- Node31&#45;&gt;Node32 -->
<g id="edge108" class="edge"><title>Node31&#45;&gt;Node32</title>
<path fill="none" stroke="midnightblue" d="M968.496,-345.275C995.175,-334.959 1031.19,-321.035 1055.65,-311.575"/>
<polygon fill="midnightblue" stroke="midnightblue" points="967.193,-342.026 959.128,-348.897 969.717,-348.555 967.193,-342.026"/>
</g>
<!-- Node33 -->
<g id="node88" class="node"><title>Node33</title>
<a xlink:href="../../d4/dfd/plot__slices_8cpp.html" target="_top" xlink:title="plot_slices.cpp">
<polygon fill="white" stroke="black" points="1048,-232.5 1048,-253.5 1130,-253.5 1130,-232.5 1048,-232.5"/>
<text text-anchor="middle" x="1089" y="-240.5" font-family="Helvetica,sans-Serif" font-size="10.00">plot_slices.cpp</text>
</a>
</g>
<!-- Node32&#45;&gt;Node33 -->
<g id="edge110" class="edge"><title>Node32&#45;&gt;Node33</title>
<path fill="none" stroke="midnightblue" d="M1085.15,-280.191C1086.09,-271.168 1087.14,-260.994 1087.91,-253.571"/>
<polygon fill="midnightblue" stroke="midnightblue" points="1081.65,-280.055 1084.1,-290.362 1088.61,-280.775 1081.65,-280.055"/>
</g>
<!-- Node34&#45;&gt;Node24 -->
<g id="edge122" class="edge"><title>Node34&#45;&gt;Node24</title>
<path fill="none" stroke="midnightblue" d="M1186.4,-165.121C1174.47,-140.396 1154.52,-99.0822 1145.16,-79.6792"/>
<polygon fill="midnightblue" stroke="midnightblue" points="1183.33,-166.811 1190.83,-174.295 1189.64,-163.768 1183.33,-166.811"/>
</g>
<!-- Node35&#45;&gt;Node4 -->
<g id="edge128" class="edge"><title>Node35&#45;&gt;Node4</title>
<path fill="none" stroke="midnightblue" d="M359.19,-341.118C369.037,-331.438 380.866,-319.81 389.247,-311.571"/>
<polygon fill="midnightblue" stroke="midnightblue" points="356.499,-338.856 351.822,-348.362 361.406,-343.847 356.499,-338.856"/>
</g>
<!-- Node35&#45;&gt;Node5 -->
<g id="edge130" class="edge"><title>Node35&#45;&gt;Node5</title>
<path fill="none" stroke="midnightblue" d="M340.109,-338.217C338.313,-322.753 333.346,-302.281 320,-290 264.127,-238.588 223.613,-281.907 153,-254 97.5668,-232.092 38,-244.605 38,-185 38,-185 38,-185 38,-127 38,-66.4459 487.319,-25.9282 632.996,-14.3829"/>
<polygon fill="midnightblue" stroke="midnightblue" points="336.638,-338.716 340.932,-348.402 343.616,-338.153 336.638,-338.716"/>
</g>
<!-- Node35&#45;&gt;Node13 -->
<g id="edge132" class="edge"><title>Node35&#45;&gt;Node13</title>
<path fill="none" stroke="midnightblue" d="M321.888,-341.405C311.312,-331.668 298.52,-319.891 289.482,-311.571"/>
<polygon fill="midnightblue" stroke="midnightblue" points="319.717,-344.164 329.445,-348.362 324.458,-339.014 319.717,-344.164"/>
</g>
</g>
</svg>
