<?xml version="1.0" encoding="UTF-8" standalone="no"?>
<!DOCTYPE svg PUBLIC "-//W3C//DTD SVG 1.1//EN"
 "http://www.w3.org/Graphics/SVG/1.1/DTD/svg11.dtd">
<!-- Generated by graphviz version 2.26.3 (20100126.1600)
 -->
<!-- Title: plot_long_phase_space Pages: 1 -->
<svg width="282pt" height="334pt"
 viewBox="0.00 0.00 282.00 334.00" xmlns="http://www.w3.org/2000/svg" xmlns:xlink="http://www.w3.org/1999/xlink">
<g id="graph1" class="graph" transform="scale(1 1) rotate(0) translate(4 330)">
<title>plot_long_phase_space</title>
<polygon fill="white" stroke="white" points="-4,5 -4,-330 279,-330 279,5 -4,5"/>
<!-- Node1 -->
<g id="node1" class="node"><title>Node1</title>
<polygon fill="#bfbfbf" stroke="black" points="0.5,-149.5 0.5,-170.5 119.5,-170.5 119.5,-149.5 0.5,-149.5"/>
<text text-anchor="middle" x="60" y="-157.5" font-family="Helvetica,sans-Serif" font-size="10.00">plot_long_phase_space</text>
</g>
<!-- Node2 -->
<g id="node3" class="node"><title>Node2</title>
<a xlink:href="../../de/d4a/namespacepython.html#abf56eb1110be99d1157083e1536f3e5c" target="_top" xlink:title="python::convert_bool">
<polygon fill="white" stroke="black" points="161.5,-304.5 161.5,-325.5 268.5,-325.5 268.5,-304.5 161.5,-304.5"/>
<text text-anchor="middle" x="215" y="-312.5" font-family="Helvetica,sans-Serif" font-size="10.00">python::convert_bool</text>
</a>
</g>
<!-- Node1&#45;&gt;Node2 -->
<g id="edge2" class="edge"><title>Node1&#45;&gt;Node2</title>
<path fill="none" stroke="midnightblue" d="M64.7913,-170.857C76.5667,-196.315 109.394,-260.319 156,-295 158.48,-296.845 161.141,-298.528 163.912,-300.061"/>
<polygon fill="midnightblue" stroke="midnightblue" points="162.524,-303.277 173.052,-304.465 165.563,-296.971 162.524,-303.277"/>
</g>
<!-- Node3 -->
<g id="node5" class="node"><title>Node3</title>
<a xlink:href="../../de/d4a/namespacepython.html#a740e30ed26764f275117126a9547767c" target="_top" xlink:title="python::convert_double">
<polygon fill="white" stroke="black" points="156,-264.5 156,-285.5 274,-285.5 274,-264.5 156,-264.5"/>
<text text-anchor="middle" x="215" y="-272.5" font-family="Helvetica,sans-Serif" font-size="10.00">python::convert_double</text>
</a>
</g>
<!-- Node1&#45;&gt;Node3 -->
<g id="edge4" class="edge"><title>Node1&#45;&gt;Node3</title>
<path fill="none" stroke="midnightblue" d="M68.0556,-170.71C83.2141,-190.163 117.901,-231.458 156,-255 159.177,-256.963 162.571,-258.761 166.064,-260.401"/>
<polygon fill="midnightblue" stroke="midnightblue" points="164.893,-263.706 175.467,-264.385 167.624,-257.261 164.893,-263.706"/>
</g>
<!-- Node4 -->
<g id="node7" class="node"><title>Node4</title>
<a xlink:href="../../de/d4a/namespacepython.html#a38f56692b4793b00b074fc192783947e" target="_top" xlink:title="python::convert_double\l_array">
<polygon fill="white" stroke="black" points="156,-212 156,-246 274,-246 274,-212 156,-212"/>
<text text-anchor="start" x="164" y="-233" font-family="Helvetica,sans-Serif" font-size="10.00">python::convert_double</text>
<text text-anchor="middle" x="215" y="-220" font-family="Helvetica,sans-Serif" font-size="10.00">_array</text>
</a>
</g>
<!-- Node1&#45;&gt;Node4 -->
<g id="edge6" class="edge"><title>Node1&#45;&gt;Node4</title>
<path fill="none" stroke="midnightblue" d="M83.6534,-170.643C103.073,-179.369 131.3,-192.026 156,-203 159.58,-204.591 163.284,-206.232 167.012,-207.881"/>
<polygon fill="midnightblue" stroke="midnightblue" points="165.705,-211.131 176.266,-211.971 168.534,-204.728 165.705,-211.131"/>
</g>
<!-- Node5 -->
<g id="node9" class="node"><title>Node5</title>
<a xlink:href="../../de/d4a/namespacepython.html#adb27db8de2c6c5b4f381fadcc86a4939" target="_top" xlink:title="python::convert_int">
<polygon fill="white" stroke="black" points="165,-172.5 165,-193.5 265,-193.5 265,-172.5 165,-172.5"/>
<text text-anchor="middle" x="215" y="-180.5" font-family="Helvetica,sans-Serif" font-size="10.00">python::convert_int</text>
</a>
</g>
<!-- Node1&#45;&gt;Node5 -->
<g id="edge8" class="edge"><title>Node1&#45;&gt;Node5</title>
<path fill="none" stroke="midnightblue" d="M119.927,-168.892C131.392,-170.594 143.398,-172.375 154.869,-174.077"/>
<polygon fill="midnightblue" stroke="midnightblue" points="154.379,-177.543 164.785,-175.549 155.407,-170.619 154.379,-177.543"/>
</g>
<!-- Node6 -->
<g id="node11" class="node"><title>Node6</title>
<a xlink:href="../../de/d4a/namespacepython.html#aba320bc348e153e5057cb5a4add54102" target="_top" xlink:title="python::convert_int\l_array">
<polygon fill="white" stroke="black" points="165,-120 165,-154 265,-154 265,-120 165,-120"/>
<text text-anchor="start" x="173" y="-141" font-family="Helvetica,sans-Serif" font-size="10.00">python::convert_int</text>
<text text-anchor="middle" x="215" y="-128" font-family="Helvetica,sans-Serif" font-size="10.00">_array</text>
</a>
</g>
<!-- Node1&#45;&gt;Node6 -->
<g id="edge10" class="edge"><title>Node1&#45;&gt;Node6</title>
<path fill="none" stroke="midnightblue" d="M119.927,-151.108C131.392,-149.406 143.398,-147.625 154.869,-145.923"/>
<polygon fill="midnightblue" stroke="midnightblue" points="155.407,-149.381 164.785,-144.451 154.379,-142.457 155.407,-149.381"/>
</g>
<!-- Node7 -->
<g id="node13" class="node"><title>Node7</title>
<a xlink:href="../../de/d4a/namespacepython.html#aaed0c03f36b79c4703d003314d78b412" target="_top" xlink:title="python::convert_string">
<polygon fill="white" stroke="black" points="158.5,-80.5 158.5,-101.5 271.5,-101.5 271.5,-80.5 158.5,-80.5"/>
<text text-anchor="middle" x="215" y="-88.5" font-family="Helvetica,sans-Serif" font-size="10.00">python::convert_string</text>
</a>
</g>
<!-- Node1&#45;&gt;Node7 -->
<g id="edge12" class="edge"><title>Node1&#45;&gt;Node7</title>
<path fill="none" stroke="midnightblue" d="M78.7383,-149.408C97.8126,-138.872 128.417,-122.642 156,-111 160.982,-108.897 166.269,-106.853 171.551,-104.924"/>
<polygon fill="midnightblue" stroke="midnightblue" points="172.724,-108.222 180.987,-101.591 170.393,-101.622 172.724,-108.222"/>
</g>
<!-- Node8 -->
<g id="node15" class="node"><title>Node8</title>
<a xlink:href="../../de/d4a/namespacepython.html#a09c1faa5c89cea1c2d9383f7fa2e7649" target="_top" xlink:title="python::get_none">
<polygon fill="white" stroke="black" points="169,-40.5 169,-61.5 261,-61.5 261,-40.5 169,-40.5"/>
<text text-anchor="middle" x="215" y="-48.5" font-family="Helvetica,sans-Serif" font-size="10.00">python::get_none</text>
</a>
</g>
<!-- Node1&#45;&gt;Node8 -->
<g id="edge14" class="edge"><title>Node1&#45;&gt;Node8</title>
<path fill="none" stroke="midnightblue" d="M68.7017,-149.419C84.3574,-131.016 119.096,-92.9812 156,-71 159.405,-68.9721 163.043,-67.1149 166.779,-65.4212"/>
<polygon fill="midnightblue" stroke="midnightblue" points="168.277,-68.5898 176.189,-61.5436 165.609,-62.1179 168.277,-68.5898"/>
</g>
<!-- Node9 -->
<g id="node17" class="node"><title>Node9</title>
<a xlink:href="../../de/d4a/namespacepython.html#a713f8b295244715fb64ea92c5b172d33" target="_top" xlink:title="python::import">
<polygon fill="white" stroke="black" points="175.5,-0.5 175.5,-21.5 254.5,-21.5 254.5,-0.5 175.5,-0.5"/>
<text text-anchor="middle" x="215" y="-8.5" font-family="Helvetica,sans-Serif" font-size="10.00">python::import</text>
</a>
</g>
<!-- Node1&#45;&gt;Node9 -->
<g id="edge16" class="edge"><title>Node1&#45;&gt;Node9</title>
<path fill="none" stroke="midnightblue" d="M65.106,-149.266C77.3213,-124.709 110.624,-64.0099 156,-31 159.067,-28.7691 162.4,-26.7742 165.869,-24.9924"/>
<polygon fill="midnightblue" stroke="midnightblue" points="167.598,-28.0526 175.282,-20.758 164.726,-21.6689 167.598,-28.0526"/>
</g>
</g>
</svg>
