<?xml version="1.0" encoding="UTF-8" standalone="no"?>
<!DOCTYPE svg PUBLIC "-//W3C//DTD SVG 1.1//EN"
 "http://www.w3.org/Graphics/SVG/1.1/DTD/svg11.dtd">
<!-- Generated by graphviz version 2.26.3 (20100126.1600)
 -->
<!-- Title: plot_bunch_length_evol Pages: 1 -->
<svg width="282pt" height="202pt"
 viewBox="0.00 0.00 282.00 202.00" xmlns="http://www.w3.org/2000/svg" xmlns:xlink="http://www.w3.org/1999/xlink">
<g id="graph1" class="graph" transform="scale(1 1) rotate(0) translate(4 198)">
<title>plot_bunch_length_evol</title>
<polygon fill="white" stroke="white" points="-4,5 -4,-198 279,-198 279,5 -4,5"/>
<!-- Node1 -->
<g id="node1" class="node"><title>Node1</title>
<polygon fill="#bfbfbf" stroke="black" points="0.5,-80.5 0.5,-101.5 119.5,-101.5 119.5,-80.5 0.5,-80.5"/>
<text text-anchor="middle" x="60" y="-88.5" font-family="Helvetica,sans-Serif" font-size="10.00">plot_bunch_length_evol</text>
</g>
<!-- Node2 -->
<g id="node3" class="node"><title>Node2</title>
<a xlink:href="../../de/d4a/namespacepython.html#a38f56692b4793b00b074fc192783947e" target="_top" xlink:title="python::convert_double\l_array">
<polygon fill="white" stroke="black" points="156,-160 156,-194 274,-194 274,-160 156,-160"/>
<text text-anchor="start" x="164" y="-181" font-family="Helvetica,sans-Serif" font-size="10.00">python::convert_double</text>
<text text-anchor="middle" x="215" y="-168" font-family="Helvetica,sans-Serif" font-size="10.00">_array</text>
</a>
</g>
<!-- Node1&#45;&gt;Node2 -->
<g id="edge2" class="edge"><title>Node1&#45;&gt;Node2</title>
<path fill="none" stroke="midnightblue" d="M75.5548,-101.695C94.2094,-114.29 126.644,-135.461 156,-151 158.918,-152.545 161.948,-154.079 165.024,-155.584"/>
<polygon fill="midnightblue" stroke="midnightblue" points="163.791,-158.873 174.326,-159.995 166.79,-152.548 163.791,-158.873"/>
</g>
<!-- Node3 -->
<g id="node5" class="node"><title>Node3</title>
<a xlink:href="../../de/d4a/namespacepython.html#adb27db8de2c6c5b4f381fadcc86a4939" target="_top" xlink:title="python::convert_int">
<polygon fill="white" stroke="black" points="165,-120.5 165,-141.5 265,-141.5 265,-120.5 165,-120.5"/>
<text text-anchor="middle" x="215" y="-128.5" font-family="Helvetica,sans-Serif" font-size="10.00">python::convert_int</text>
</a>
</g>
<!-- Node1&#45;&gt;Node3 -->
<g id="edge4" class="edge"><title>Node1&#45;&gt;Node3</title>
<path fill="none" stroke="midnightblue" d="M100.724,-101.51C120.226,-106.542 143.772,-112.619 164.411,-117.945"/>
<polygon fill="midnightblue" stroke="midnightblue" points="163.721,-121.381 174.279,-120.491 165.471,-114.603 163.721,-121.381"/>
</g>
<!-- Node4 -->
<g id="node7" class="node"><title>Node4</title>
<a xlink:href="../../de/d4a/namespacepython.html#aaed0c03f36b79c4703d003314d78b412" target="_top" xlink:title="python::convert_string">
<polygon fill="white" stroke="black" points="158.5,-80.5 158.5,-101.5 271.5,-101.5 271.5,-80.5 158.5,-80.5"/>
<text text-anchor="middle" x="215" y="-88.5" font-family="Helvetica,sans-Serif" font-size="10.00">python::convert_string</text>
</a>
</g>
<!-- Node1&#45;&gt;Node4 -->
<g id="edge6" class="edge"><title>Node1&#45;&gt;Node4</title>
<path fill="none" stroke="midnightblue" d="M119.927,-91C129.186,-91 138.798,-91 148.197,-91"/>
<polygon fill="midnightblue" stroke="midnightblue" points="148.284,-94.5001 158.284,-91 148.284,-87.5001 148.284,-94.5001"/>
</g>
<!-- Node5 -->
<g id="node9" class="node"><title>Node5</title>
<a xlink:href="../../de/d4a/namespacepython.html#a713f8b295244715fb64ea92c5b172d33" target="_top" xlink:title="python::import">
<polygon fill="white" stroke="black" points="175.5,-40.5 175.5,-61.5 254.5,-61.5 254.5,-40.5 175.5,-40.5"/>
<text text-anchor="middle" x="215" y="-48.5" font-family="Helvetica,sans-Serif" font-size="10.00">python::import</text>
</a>
</g>
<!-- Node1&#45;&gt;Node5 -->
<g id="edge8" class="edge"><title>Node1&#45;&gt;Node5</title>
<path fill="none" stroke="midnightblue" d="M100.724,-80.4905C120.534,-75.3782 144.518,-69.189 165.388,-63.8032"/>
<polygon fill="midnightblue" stroke="midnightblue" points="166.543,-67.1198 175.351,-61.232 164.794,-60.3419 166.543,-67.1198"/>
</g>
<!-- Node6 -->
<g id="node11" class="node"><title>Node6</title>
<a xlink:href="../../da/dda/Monitors_8cpp.html#a24cd35802fcba6633b02321bc436ab5f" target="_top" xlink:title="read_1D">
<polygon fill="white" stroke="black" points="188.5,-0.5 188.5,-21.5 241.5,-21.5 241.5,-0.5 188.5,-0.5"/>
<text text-anchor="middle" x="215" y="-8.5" font-family="Helvetica,sans-Serif" font-size="10.00">read_1D</text>
</a>
</g>
<!-- Node1&#45;&gt;Node6 -->
<g id="edge10" class="edge"><title>Node1&#45;&gt;Node6</title>
<path fill="none" stroke="midnightblue" d="M74.6785,-80.3103C93,-67.3319 125.632,-45.3977 156,-31 163.215,-27.5793 171.176,-24.4682 178.852,-21.7727"/>
<polygon fill="midnightblue" stroke="midnightblue" points="179.977,-25.0869 188.345,-18.5885 177.751,-18.4503 179.977,-25.0869"/>
</g>
</g>
</svg>
