<?xml version="1.0" encoding="UTF-8" standalone="no"?>
<!DOCTYPE svg PUBLIC "-//W3C//DTD SVG 1.1//EN"
 "http://www.w3.org/Graphics/SVG/1.1/DTD/svg11.dtd">
<!-- Generated by graphviz version 2.26.3 (20100126.1600)
 -->
<!-- Title: omp_get_thread_num Pages: 1 -->
<svg width="618pt" height="42pt"
 viewBox="0.00 0.00 618.00 42.00" xmlns="http://www.w3.org/2000/svg" xmlns:xlink="http://www.w3.org/1999/xlink">
<g id="graph1" class="graph" transform="scale(1 1) rotate(0) translate(4 38)">
<title>omp_get_thread_num</title>
<polygon fill="white" stroke="white" points="-4,5 -4,-38 615,-38 615,5 -4,5"/>
<!-- Node1 -->
<g id="node1" class="node"><title>Node1</title>
<polygon fill="#bfbfbf" stroke="black" points="0,-6.5 0,-27.5 110,-27.5 110,-6.5 0,-6.5"/>
<text text-anchor="middle" x="55" y="-14.5" font-family="Helvetica,sans-Serif" font-size="10.00">omp_get_thread_num</text>
</g>
<!-- Node2 -->
<g id="node3" class="node"><title>Node2</title>
<a xlink:href="../../dc/d45/classSlices.html#a212e6cf79b793d0546ad34e45cc519d7" target="_top" xlink:title="Slices::histogram">
<polygon fill="white" stroke="black" points="146,-6.5 146,-27.5 238,-27.5 238,-6.5 146,-6.5"/>
<text text-anchor="middle" x="192" y="-14.5" font-family="Helvetica,sans-Serif" font-size="10.00">Slices::histogram</text>
</a>
</g>
<!-- Node1&#45;&gt;Node2 -->
<g id="edge2" class="edge"><title>Node1&#45;&gt;Node2</title>
<path fill="none" stroke="midnightblue" d="M120.603,-17C129.079,-17 137.614,-17 145.688,-17"/>
<polygon fill="midnightblue" stroke="midnightblue" points="120.328,-13.5001 110.328,-17 120.328,-20.5001 120.328,-13.5001"/>
</g>
<!-- Node3 -->
<g id="node5" class="node"><title>Node3</title>
<a xlink:href="../../dc/d45/classSlices.html#ae9463517699373a87a1dae18becf9319" target="_top" xlink:title="Slices::slice_constant\l_space_histogram">
<polygon fill="white" stroke="black" points="274.5,-0 274.5,-34 387.5,-34 387.5,-0 274.5,-0"/>
<text text-anchor="start" x="282.5" y="-21" font-family="Helvetica,sans-Serif" font-size="10.00">Slices::slice_constant</text>
<text text-anchor="middle" x="331" y="-8" font-family="Helvetica,sans-Serif" font-size="10.00">_space_histogram</text>
</a>
</g>
<!-- Node2&#45;&gt;Node3 -->
<g id="edge4" class="edge"><title>Node2&#45;&gt;Node3</title>
<path fill="none" stroke="midnightblue" d="M248.489,-17C256.994,-17 265.769,-17 274.279,-17"/>
<polygon fill="midnightblue" stroke="midnightblue" points="248.285,-13.5001 238.285,-17 248.285,-20.5001 248.285,-13.5001"/>
</g>
<!-- Node4 -->
<g id="node7" class="node"><title>Node4</title>
<a xlink:href="../../dc/d45/classSlices.html#adee634f207f19e4484a7a509e07776b2" target="_top" xlink:title="Slices::track">
<polygon fill="white" stroke="black" points="424.5,-6.5 424.5,-27.5 495.5,-27.5 495.5,-6.5 424.5,-6.5"/>
<text text-anchor="middle" x="460" y="-14.5" font-family="Helvetica,sans-Serif" font-size="10.00">Slices::track</text>
</a>
</g>
<!-- Node3&#45;&gt;Node4 -->
<g id="edge6" class="edge"><title>Node3&#45;&gt;Node4</title>
<path fill="none" stroke="midnightblue" d="M397.85,-17C406.956,-17 416,-17 424.254,-17"/>
<polygon fill="midnightblue" stroke="midnightblue" points="397.581,-13.5001 387.581,-17 397.581,-20.5001 397.581,-13.5001"/>
</g>
<!-- Node5 -->
<g id="node9" class="node"><title>Node5</title>
<a xlink:href="../../dc/d45/classSlices.html#a10c5c52b833e4f5d7fe45aa3cefbc782" target="_top" xlink:title="Slices::Slices">
<polygon fill="white" stroke="black" points="532.5,-6.5 532.5,-27.5 609.5,-27.5 609.5,-6.5 532.5,-6.5"/>
<text text-anchor="middle" x="571" y="-14.5" font-family="Helvetica,sans-Serif" font-size="10.00">Slices::Slices</text>
</a>
</g>
<!-- Node4&#45;&gt;Node5 -->
<g id="edge8" class="edge"><title>Node4&#45;&gt;Node5</title>
<path fill="none" stroke="midnightblue" d="M505.834,-17C514.617,-17 523.733,-17 532.265,-17"/>
<polygon fill="midnightblue" stroke="midnightblue" points="505.732,-13.5001 495.732,-17 505.732,-20.5001 505.732,-13.5001"/>
</g>
</g>
</svg>
