<?xml version="1.0" encoding="UTF-8" standalone="no"?>
<!DOCTYPE svg PUBLIC "-//W3C//DTD SVG 1.1//EN"
 "http://www.w3.org/Graphics/SVG/1.1/DTD/svg11.dtd">
<!-- Generated by graphviz version 2.26.3 (20100126.1600)
 -->
<!-- Title: blond::python::convert_double_list Pages: 1 -->
<svg width="422pt" height="42pt"
 viewBox="0.00 0.00 422.00 42.00" xmlns="http://www.w3.org/2000/svg" xmlns:xlink="http://www.w3.org/1999/xlink">
<g id="graph1" class="graph" transform="scale(1 1) rotate(0) translate(4 38)">
<title>blond::python::convert_double_list</title>
<polygon fill="white" stroke="white" points="-4,5 -4,-38 419,-38 419,5 -4,5"/>
<!-- Node1 -->
<g id="node1" class="node"><title>Node1</title>
<polygon fill="#bfbfbf" stroke="black" points="0.5,-0 0.5,-34 113.5,-34 113.5,-0 0.5,-0"/>
<text text-anchor="start" x="8.5" y="-21" font-family="Helvetica,sans-Serif" font-size="10.00">blond::python::convert</text>
<text text-anchor="middle" x="57" y="-8" font-family="Helvetica,sans-Serif" font-size="10.00">_double_list</text>
</g>
<!-- Node2 -->
<g id="node3" class="node"><title>Node2</title>
<a xlink:href="../../d4/d48/namespaceblond_1_1python.html#a484fe930ab390446fb976edb7dc21497" target="_top" xlink:title="blond::python::convert\l_double_list">
<polygon fill="white" stroke="black" points="150.5,-0 150.5,-34 263.5,-34 263.5,-0 150.5,-0"/>
<text text-anchor="start" x="158.5" y="-21" font-family="Helvetica,sans-Serif" font-size="10.00">blond::python::convert</text>
<text text-anchor="middle" x="207" y="-8" font-family="Helvetica,sans-Serif" font-size="10.00">_double_list</text>
</a>
</g>
<!-- Node1&#45;&gt;Node2 -->
<g id="edge2" class="edge"><title>Node1&#45;&gt;Node2</title>
<path fill="none" stroke="midnightblue" d="M113.709,-17C122.295,-17 131.223,-17 140.002,-17"/>
<polygon fill="midnightblue" stroke="midnightblue" points="140.211,-20.5001 150.211,-17 140.211,-13.5001 140.211,-20.5001"/>
</g>
<!-- Node3 -->
<g id="node5" class="node"><title>Node3</title>
<a xlink:href="../../d4/d48/namespaceblond_1_1python.html#a645f76c2bf5b759da8b0e76530fa9190" target="_top" xlink:title="blond::python::convert\l_double">
<polygon fill="white" stroke="black" points="300.5,-0 300.5,-34 413.5,-34 413.5,-0 300.5,-0"/>
<text text-anchor="start" x="308.5" y="-21" font-family="Helvetica,sans-Serif" font-size="10.00">blond::python::convert</text>
<text text-anchor="middle" x="357" y="-8" font-family="Helvetica,sans-Serif" font-size="10.00">_double</text>
</a>
</g>
<!-- Node2&#45;&gt;Node3 -->
<g id="edge4" class="edge"><title>Node2&#45;&gt;Node3</title>
<path fill="none" stroke="midnightblue" d="M263.709,-17C272.295,-17 281.223,-17 290.002,-17"/>
<polygon fill="midnightblue" stroke="midnightblue" points="290.211,-20.5001 300.211,-17 290.211,-13.5001 290.211,-20.5001"/>
</g>
</g>
</svg>
