<?xml version="1.0" encoding="UTF-8" standalone="no"?>
<!DOCTYPE svg PUBLIC "-//W3C//DTD SVG 1.1//EN"
 "http://www.w3.org/Graphics/SVG/1.1/DTD/svg11.dtd">
<!-- Generated by graphviz version 2.26.3 (20100126.1600)
 -->
<!-- Title: blond::python::convert_string Pages: 1 -->
<svg width="464pt" height="1318pt"
 viewBox="0.00 0.00 464.00 1318.00" xmlns="http://www.w3.org/2000/svg" xmlns:xlink="http://www.w3.org/1999/xlink">
<g id="graph1" class="graph" transform="scale(1 1) rotate(0) translate(4 1314)">
<title>blond::python::convert_string</title>
<polygon fill="white" stroke="white" points="-4,5 -4,-1314 461,-1314 461,5 -4,5"/>
<!-- Node1 -->
<g id="node1" class="node"><title>Node1</title>
<polygon fill="#bfbfbf" stroke="black" points="0.5,-632 0.5,-666 113.5,-666 113.5,-632 0.5,-632"/>
<text text-anchor="start" x="8.5" y="-653" font-family="Helvetica,sans-Serif" font-size="10.00">blond::python::convert</text>
<text text-anchor="middle" x="57" y="-640" font-family="Helvetica,sans-Serif" font-size="10.00">_string</text>
</g>
<!-- Node2 -->
<g id="node3" class="node"><title>Node2</title>
<a xlink:href="../../d4/d48/namespaceblond_1_1python.html#adf5ea97a3b582d52645fa9e3b467a4f7" target="_top" xlink:title="blond::python::convert\l_dictionary">
<polygon fill="white" stroke="black" points="174.5,-1276 174.5,-1310 287.5,-1310 287.5,-1276 174.5,-1276"/>
<text text-anchor="start" x="182.5" y="-1297" font-family="Helvetica,sans-Serif" font-size="10.00">blond::python::convert</text>
<text text-anchor="middle" x="231" y="-1284" font-family="Helvetica,sans-Serif" font-size="10.00">_dictionary</text>
</a>
</g>
<!-- Node1&#45;&gt;Node2 -->
<g id="edge2" class="edge"><title>Node1&#45;&gt;Node2</title>
<path fill="none" stroke="midnightblue" d="M57.4003,-676.202C59.5192,-783.493 72.5262,-1175.91 150,-1267 156.411,-1274.54 165.014,-1279.91 174.223,-1283.74"/>
<polygon fill="midnightblue" stroke="midnightblue" points="60.8994,-676.115 57.2184,-666.18 53.9006,-676.242 60.8994,-676.115"/>
</g>
<!-- Node3 -->
<g id="node5" class="node"><title>Node3</title>
<a xlink:href="../../d4/d46/classblond_1_1Slices.html#ab1443b2ebec9ed465a8301be8e1c747f" target="_top" xlink:title="blond::Slices::gaussian\l_filter1d">
<polygon fill="white" stroke="black" points="172,-1224 172,-1258 290,-1258 290,-1224 172,-1224"/>
<text text-anchor="start" x="180" y="-1245" font-family="Helvetica,sans-Serif" font-size="10.00">blond::Slices::gaussian</text>
<text text-anchor="middle" x="231" y="-1232" font-family="Helvetica,sans-Serif" font-size="10.00">_filter1d</text>
</a>
</g>
<!-- Node1&#45;&gt;Node3 -->
<g id="edge4" class="edge"><title>Node1&#45;&gt;Node3</title>
<path fill="none" stroke="midnightblue" d="M57.8152,-676.185C61.3933,-777.633 78.8688,-1132.5 150,-1215 155.883,-1221.82 163.561,-1226.87 171.845,-1230.6"/>
<polygon fill="midnightblue" stroke="midnightblue" points="61.3113,-676.007 57.4775,-666.13 54.3153,-676.242 61.3113,-676.007"/>
</g>
<!-- Node4 -->
<g id="node7" class="node"><title>Node4</title>
<a xlink:href="../../d5/d60/namespaceblond.html#a1b026afe70ab02cc3de660b33eee4aed" target="_top" xlink:title="blond::plot_beam_profile">
<polygon fill="white" stroke="black" points="170,-1184.5 170,-1205.5 292,-1205.5 292,-1184.5 170,-1184.5"/>
<text text-anchor="middle" x="231" y="-1192.5" font-family="Helvetica,sans-Serif" font-size="10.00">blond::plot_beam_profile</text>
</a>
</g>
<!-- Node1&#45;&gt;Node4 -->
<g id="edge6" class="edge"><title>Node1&#45;&gt;Node4</title>
<path fill="none" stroke="midnightblue" d="M58.0112,-676.284C62.1735,-773.542 81.1598,-1101.38 150,-1175 155.441,-1180.82 162.283,-1185.06 169.673,-1188.13"/>
<polygon fill="midnightblue" stroke="midnightblue" points="61.5002,-675.943 57.594,-666.095 54.5061,-676.23 61.5002,-675.943"/>
</g>
<!-- Node5 -->
<g id="node9" class="node"><title>Node5</title>
<a xlink:href="../../d5/d60/namespaceblond.html#ab9c0b997c8b94ee83493eea4daf50c12" target="_top" xlink:title="blond::plot_beam_profile\l_derivative">
<polygon fill="white" stroke="black" points="170,-1132 170,-1166 292,-1166 292,-1132 170,-1132"/>
<text text-anchor="start" x="178" y="-1153" font-family="Helvetica,sans-Serif" font-size="10.00">blond::plot_beam_profile</text>
<text text-anchor="middle" x="231" y="-1140" font-family="Helvetica,sans-Serif" font-size="10.00">_derivative</text>
</a>
</g>
<!-- Node1&#45;&gt;Node5 -->
<g id="edge8" class="edge"><title>Node1&#45;&gt;Node5</title>
<path fill="none" stroke="midnightblue" d="M58.7595,-676.081C65.1544,-766.423 90.0158,-1055.56 150,-1123 155.497,-1129.18 162.465,-1133.9 169.997,-1137.5"/>
<polygon fill="midnightblue" stroke="midnightblue" points="62.2494,-675.813 58.07,-666.078 55.266,-676.295 62.2494,-675.813"/>
</g>
<!-- Node6 -->
<g id="node11" class="node"><title>Node6</title>
<a xlink:href="../../d5/d60/namespaceblond.html#a0e901c201cd52a14d304cfebc3f54aa2" target="_top" xlink:title="blond::plot_beam_spectrum">
<polygon fill="white" stroke="black" points="162.5,-1092.5 162.5,-1113.5 299.5,-1113.5 299.5,-1092.5 162.5,-1092.5"/>
<text text-anchor="middle" x="231" y="-1100.5" font-family="Helvetica,sans-Serif" font-size="10.00">blond::plot_beam_spectrum</text>
</a>
</g>
<!-- Node1&#45;&gt;Node6 -->
<g id="edge10" class="edge"><title>Node1&#45;&gt;Node6</title>
<path fill="none" stroke="midnightblue" d="M59.117,-676.181C66.3354,-761.84 92.7757,-1023.97 150,-1083 153.63,-1086.74 157.84,-1089.83 162.397,-1092.37"/>
<polygon fill="midnightblue" stroke="midnightblue" points="62.6031,-675.868 58.2954,-666.189 55.6267,-676.442 62.6031,-675.868"/>
</g>
<!-- Node7 -->
<g id="node13" class="node"><title>Node7</title>
<a xlink:href="../../d5/d60/namespaceblond.html#a58a256bc492c79065287f58cfb6a9e5d" target="_top" xlink:title="blond::plot_bunch_length_evol">
<polygon fill="white" stroke="black" points="157,-1052.5 157,-1073.5 305,-1073.5 305,-1052.5 157,-1052.5"/>
<text text-anchor="middle" x="231" y="-1060.5" font-family="Helvetica,sans-Serif" font-size="10.00">blond::plot_bunch_length_evol</text>
</a>
</g>
<!-- Node1&#45;&gt;Node7 -->
<g id="edge12" class="edge"><title>Node1&#45;&gt;Node7</title>
<path fill="none" stroke="midnightblue" d="M59.8259,-676.823C68.5969,-757.711 97.9396,-990.402 150,-1043 153.77,-1046.81 158.143,-1049.93 162.864,-1052.5"/>
<polygon fill="midnightblue" stroke="midnightblue" points="63.261,-676.026 58.7245,-666.451 56.3001,-676.765 63.261,-676.026"/>
</g>
<!-- Node8 -->
<g id="node15" class="node"><title>Node8</title>
<a xlink:href="../../d5/d60/namespaceblond.html#a3d4aee386e2f26803dd421d4fb1fb7e9" target="_top" xlink:title="blond::plot_bunch_length\l_evol_gaussian">
<polygon fill="white" stroke="black" points="168.5,-1000 168.5,-1034 293.5,-1034 293.5,-1000 168.5,-1000"/>
<text text-anchor="start" x="176.5" y="-1021" font-family="Helvetica,sans-Serif" font-size="10.00">blond::plot_bunch_length</text>
<text text-anchor="middle" x="231" y="-1008" font-family="Helvetica,sans-Serif" font-size="10.00">_evol_gaussian</text>
</a>
</g>
<!-- Node1&#45;&gt;Node8 -->
<g id="edge14" class="edge"><title>Node1&#45;&gt;Node8</title>
<path fill="none" stroke="midnightblue" d="M61.0228,-676.357C72.2331,-749.098 105.919,-944.885 150,-991 155.205,-996.445 161.55,-1000.75 168.376,-1004.16"/>
<polygon fill="midnightblue" stroke="midnightblue" points="64.4368,-675.526 59.4757,-666.165 57.5161,-676.577 64.4368,-675.526"/>
</g>
<!-- Node9 -->
<g id="node17" class="node"><title>Node9</title>
<a xlink:href="../../d5/d60/namespaceblond.html#af4abc0353bad94b674853c6084ce03bc" target="_top" xlink:title="blond::plot_COM_motion">
<polygon fill="white" stroke="black" points="168.5,-960.5 168.5,-981.5 293.5,-981.5 293.5,-960.5 168.5,-960.5"/>
<text text-anchor="middle" x="231" y="-968.5" font-family="Helvetica,sans-Serif" font-size="10.00">blond::plot_COM_motion</text>
</a>
</g>
<!-- Node1&#45;&gt;Node9 -->
<g id="edge16" class="edge"><title>Node1&#45;&gt;Node9</title>
<path fill="none" stroke="midnightblue" d="M61.8932,-676.429C74.3743,-743.389 109.3,-912.543 150,-951 155.264,-955.974 161.562,-959.768 168.289,-962.653"/>
<polygon fill="midnightblue" stroke="midnightblue" points="65.27,-675.439 60.0203,-666.236 58.3853,-676.704 65.27,-675.439"/>
</g>
<!-- Node10 -->
<g id="node19" class="node"><title>Node10</title>
<a xlink:href="../../d5/d60/namespaceblond.html#a7018a5ac5303a9f060b14f6ba32069e9" target="_top" xlink:title="blond::plot_energy_evol">
<polygon fill="white" stroke="black" points="171.5,-920.5 171.5,-941.5 290.5,-941.5 290.5,-920.5 171.5,-920.5"/>
<text text-anchor="middle" x="231" y="-928.5" font-family="Helvetica,sans-Serif" font-size="10.00">blond::plot_energy_evol</text>
</a>
</g>
<!-- Node1&#45;&gt;Node10 -->
<g id="edge18" class="edge"><title>Node1&#45;&gt;Node10</title>
<path fill="none" stroke="midnightblue" d="M58.4687,-676.11C62.8655,-729.371 80.3804,-847.954 150,-911 156.12,-916.542 163.53,-920.608 171.353,-923.58"/>
<polygon fill="midnightblue" stroke="midnightblue" points="61.9547,-675.789 57.734,-666.071 54.9733,-676.3 61.9547,-675.789"/>
</g>
<!-- Node11 -->
<g id="node21" class="node"><title>Node11</title>
<a xlink:href="../../d5/d60/namespaceblond.html#ad4c48aaba02ead05336c078bceb3b25b" target="_top" xlink:title="blond::plot_generated\l_bunch">
<polygon fill="white" stroke="black" points="176,-868 176,-902 286,-902 286,-868 176,-868"/>
<text text-anchor="start" x="184" y="-889" font-family="Helvetica,sans-Serif" font-size="10.00">blond::plot_generated</text>
<text text-anchor="middle" x="231" y="-876" font-family="Helvetica,sans-Serif" font-size="10.00">_bunch</text>
</a>
</g>
<!-- Node1&#45;&gt;Node11 -->
<g id="edge20" class="edge"><title>Node1&#45;&gt;Node11</title>
<path fill="none" stroke="midnightblue" d="M61.6642,-676.287C70.7042,-720.883 94.8008,-809.377 150,-859 157.359,-865.615 166.414,-870.549 175.774,-874.228"/>
<polygon fill="midnightblue" stroke="midnightblue" points="65.0498,-675.358 59.7262,-666.197 58.1754,-676.678 65.0498,-675.358"/>
</g>
<!-- Node13 -->
<g id="node25" class="node"><title>Node13</title>
<a xlink:href="../../d5/d60/namespaceblond.html#aa22b2b1fc87164387959040f2a8a6813" target="_top" xlink:title="blond::plot_impedance\l_vs_frequency">
<polygon fill="white" stroke="black" points="174,-816 174,-850 288,-850 288,-816 174,-816"/>
<text text-anchor="start" x="182" y="-837" font-family="Helvetica,sans-Serif" font-size="10.00">blond::plot_impedance</text>
<text text-anchor="middle" x="231" y="-824" font-family="Helvetica,sans-Serif" font-size="10.00">_vs_frequency</text>
</a>
</g>
<!-- Node1&#45;&gt;Node13 -->
<g id="edge24" class="edge"><title>Node1&#45;&gt;Node13</title>
<path fill="none" stroke="midnightblue" d="M65.8288,-675.597C78.8083,-710.687 106.339,-772.074 150,-807 157.035,-812.628 165.317,-817.05 173.851,-820.521"/>
<polygon fill="midnightblue" stroke="midnightblue" points="69.0695,-674.264 62.409,-666.025 62.4775,-676.619 69.0695,-674.264"/>
</g>
<!-- Node14 -->
<g id="node27" class="node"><title>Node14</title>
<a xlink:href="../../d5/d60/namespaceblond.html#a7e4544b6cd2dbe79c1a10ad19f11f470" target="_top" xlink:title="blond::plot_induced\l_voltage_vs_bin_centers">
<polygon fill="white" stroke="black" points="168.5,-764 168.5,-798 293.5,-798 293.5,-764 168.5,-764"/>
<text text-anchor="start" x="176.5" y="-785" font-family="Helvetica,sans-Serif" font-size="10.00">blond::plot_induced</text>
<text text-anchor="middle" x="231" y="-772" font-family="Helvetica,sans-Serif" font-size="10.00">_voltage_vs_bin_centers</text>
</a>
</g>
<!-- Node1&#45;&gt;Node14 -->
<g id="edge26" class="edge"><title>Node1&#45;&gt;Node14</title>
<path fill="none" stroke="midnightblue" d="M73.5652,-674.86C90.183,-698.848 117.873,-733.923 150,-755 155.68,-758.727 161.935,-761.954 168.373,-764.74"/>
<polygon fill="midnightblue" stroke="midnightblue" points="76.2526,-672.586 67.7522,-666.262 70.4536,-676.507 76.2526,-672.586"/>
</g>
<!-- Node15 -->
<g id="node29" class="node"><title>Node15</title>
<a xlink:href="../../d5/d60/namespaceblond.html#a31888731ec1b08cc230f908aeefa4a3b" target="_top" xlink:title="blond::plot_LHCNoiseFB">
<polygon fill="white" stroke="black" points="168.5,-724.5 168.5,-745.5 293.5,-745.5 293.5,-724.5 168.5,-724.5"/>
<text text-anchor="middle" x="231" y="-732.5" font-family="Helvetica,sans-Serif" font-size="10.00">blond::plot_LHCNoiseFB</text>
</a>
</g>
<!-- Node1&#45;&gt;Node15 -->
<g id="edge28" class="edge"><title>Node1&#45;&gt;Node15</title>
<path fill="none" stroke="midnightblue" d="M84.4603,-672.681C102.133,-686.817 126.179,-704.086 150,-715 158.164,-718.741 167.125,-721.843 176.018,-724.396"/>
<polygon fill="midnightblue" stroke="midnightblue" points="86.284,-669.652 76.3256,-666.035 81.8551,-675.073 86.284,-669.652"/>
</g>
<!-- Node16 -->
<g id="node31" class="node"><title>Node16</title>
<a xlink:href="../../d5/d60/namespaceblond.html#a6e08a1fe75dec223515c2c56a3806f4c" target="_top" xlink:title="blond::plot_LHCNoiseFB_FWHM">
<polygon fill="white" stroke="black" points="150,-684.5 150,-705.5 312,-705.5 312,-684.5 150,-684.5"/>
<text text-anchor="middle" x="231" y="-692.5" font-family="Helvetica,sans-Serif" font-size="10.00">blond::plot_LHCNoiseFB_FWHM</text>
</a>
</g>
<!-- Node1&#45;&gt;Node16 -->
<g id="edge30" class="edge"><title>Node1&#45;&gt;Node16</title>
<path fill="none" stroke="midnightblue" d="M123.829,-667.947C132.62,-670.362 141.519,-672.768 150,-675 162.047,-678.17 175.141,-681.468 187.219,-684.449"/>
<polygon fill="midnightblue" stroke="midnightblue" points="124.548,-664.515 113.977,-665.226 122.684,-671.262 124.548,-664.515"/>
</g>
<!-- Node17 -->
<g id="node33" class="node"><title>Node17</title>
<a xlink:href="../../d5/d60/namespaceblond.html#afb7d1ccbdb675641b702d15088ccf5d5" target="_top" xlink:title="blond::plot_LHCNoiseFB\l_FWHM_bbb">
<polygon fill="white" stroke="black" points="168.5,-632 168.5,-666 293.5,-666 293.5,-632 168.5,-632"/>
<text text-anchor="start" x="176.5" y="-653" font-family="Helvetica,sans-Serif" font-size="10.00">blond::plot_LHCNoiseFB</text>
<text text-anchor="middle" x="231" y="-640" font-family="Helvetica,sans-Serif" font-size="10.00">_FWHM_bbb</text>
</a>
</g>
<!-- Node1&#45;&gt;Node17 -->
<g id="edge32" class="edge"><title>Node1&#45;&gt;Node17</title>
<path fill="none" stroke="midnightblue" d="M124.38,-649C138.892,-649 154.172,-649 168.489,-649"/>
<polygon fill="midnightblue" stroke="midnightblue" points="123.974,-645.5 113.974,-649 123.974,-652.5 123.974,-645.5"/>
</g>
<!-- Node18 -->
<g id="node35" class="node"><title>Node18</title>
<a xlink:href="../../d5/d60/namespaceblond.html#a9279509d8f97f25ea9b53c30e79dea5e" target="_top" xlink:title="blond::plot_long_phase\l_space">
<polygon fill="white" stroke="black" points="173,-580 173,-614 289,-614 289,-580 173,-580"/>
<text text-anchor="start" x="181" y="-601" font-family="Helvetica,sans-Serif" font-size="10.00">blond::plot_long_phase</text>
<text text-anchor="middle" x="231" y="-588" font-family="Helvetica,sans-Serif" font-size="10.00">_space</text>
</a>
</g>
<!-- Node1&#45;&gt;Node18 -->
<g id="edge34" class="edge"><title>Node1&#45;&gt;Node18</title>
<path fill="none" stroke="midnightblue" d="M123.598,-629.097C140.183,-624.141 157.816,-618.871 173.898,-614.065"/>
<polygon fill="midnightblue" stroke="midnightblue" points="122.553,-625.756 113.974,-631.973 124.558,-632.463 122.553,-625.756"/>
</g>
<!-- Node19 -->
<g id="node37" class="node"><title>Node19</title>
<a xlink:href="../../d5/d60/namespaceblond.html#aab46d75ea3b7ba1e5b1c74cf4a948983" target="_top" xlink:title="blond::plot_noise_spectrum">
<polygon fill="white" stroke="black" points="163,-540.5 163,-561.5 299,-561.5 299,-540.5 163,-540.5"/>
<text text-anchor="middle" x="231" y="-548.5" font-family="Helvetica,sans-Serif" font-size="10.00">blond::plot_noise_spectrum</text>
</a>
</g>
<!-- Node1&#45;&gt;Node19 -->
<g id="edge36" class="edge"><title>Node1&#45;&gt;Node19</title>
<path fill="none" stroke="midnightblue" d="M80.2715,-624.197C97.8597,-606.863 123.443,-584.49 150,-571 157.49,-567.195 165.744,-564.088 174.032,-561.557"/>
<polygon fill="midnightblue" stroke="midnightblue" points="77.3323,-622.19 72.7782,-631.756 82.3039,-627.118 77.3323,-622.19"/>
</g>
<!-- Node20 -->
<g id="node39" class="node"><title>Node20</title>
<a xlink:href="../../d5/d60/namespaceblond.html#a7e29b022819e42c95cffe3c0e47da303" target="_top" xlink:title="blond::plot_phase_noise">
<polygon fill="white" stroke="black" points="170,-500.5 170,-521.5 292,-521.5 292,-500.5 170,-500.5"/>
<text text-anchor="middle" x="231" y="-508.5" font-family="Helvetica,sans-Serif" font-size="10.00">blond::plot_phase_noise</text>
</a>
</g>
<!-- Node1&#45;&gt;Node20 -->
<g id="edge38" class="edge"><title>Node1&#45;&gt;Node20</title>
<path fill="none" stroke="midnightblue" d="M70.556,-623.067C86.0952,-595.935 114.114,-554.139 150,-531 156.087,-527.075 162.886,-523.921 169.887,-521.385"/>
<polygon fill="midnightblue" stroke="midnightblue" points="67.3908,-621.557 65.5875,-631.997 73.5078,-624.96 67.3908,-621.557"/>
</g>
<!-- Node21 -->
<g id="node41" class="node"><title>Node21</title>
<a xlink:href="../../d5/d60/namespaceblond.html#a097d28c7859ccc2f65daf182b4241d7f" target="_top" xlink:title="blond::plot_PL_bunch\l_phase">
<polygon fill="white" stroke="black" points="176,-448 176,-482 286,-482 286,-448 176,-448"/>
<text text-anchor="start" x="184" y="-469" font-family="Helvetica,sans-Serif" font-size="10.00">blond::plot_PL_bunch</text>
<text text-anchor="middle" x="231" y="-456" font-family="Helvetica,sans-Serif" font-size="10.00">_phase</text>
</a>
</g>
<!-- Node1&#45;&gt;Node21 -->
<g id="edge40" class="edge"><title>Node1&#45;&gt;Node21</title>
<path fill="none" stroke="midnightblue" d="M65.8288,-622.403C78.8083,-587.313 106.339,-525.926 150,-491 157.612,-484.911 166.683,-480.234 175.954,-476.644"/>
<polygon fill="midnightblue" stroke="midnightblue" points="62.4775,-621.381 62.409,-631.975 69.0695,-623.736 62.4775,-621.381"/>
</g>
<!-- Node22 -->
<g id="node43" class="node"><title>Node22</title>
<a xlink:href="../../d5/d60/namespaceblond.html#aef6e820c1f9b0feaa486ba263cfb504d" target="_top" xlink:title="blond::plot_PL_freq_corr">
<polygon fill="white" stroke="black" points="170,-408.5 170,-429.5 292,-429.5 292,-408.5 170,-408.5"/>
<text text-anchor="middle" x="231" y="-416.5" font-family="Helvetica,sans-Serif" font-size="10.00">blond::plot_PL_freq_corr</text>
</a>
</g>
<!-- Node1&#45;&gt;Node22 -->
<g id="edge42" class="edge"><title>Node1&#45;&gt;Node22</title>
<path fill="none" stroke="midnightblue" d="M61.1754,-621.906C69.5802,-576.892 92.8716,-486.922 150,-439 155.771,-434.159 162.539,-430.46 169.662,-427.638"/>
<polygon fill="midnightblue" stroke="midnightblue" points="57.7168,-621.365 59.4312,-631.82 64.611,-622.578 57.7168,-621.365"/>
</g>
<!-- Node23 -->
<g id="node45" class="node"><title>Node23</title>
<a xlink:href="../../d5/d60/namespaceblond.html#ae424e03f8ab057ea162be0ecd761f98d" target="_top" xlink:title="blond::plot_PL_phase_corr">
<polygon fill="white" stroke="black" points="165,-368.5 165,-389.5 297,-389.5 297,-368.5 165,-368.5"/>
<text text-anchor="middle" x="231" y="-376.5" font-family="Helvetica,sans-Serif" font-size="10.00">blond::plot_PL_phase_corr</text>
</a>
</g>
<!-- Node1&#45;&gt;Node23 -->
<g id="edge44" class="edge"><title>Node1&#45;&gt;Node23</title>
<path fill="none" stroke="midnightblue" d="M59.0242,-621.669C64.3553,-570.129 83.3758,-458.427 150,-399 154.432,-395.047 159.522,-391.847 164.945,-389.26"/>
<polygon fill="midnightblue" stroke="midnightblue" points="55.5313,-621.43 58.0822,-631.713 62.5007,-622.084 55.5313,-621.43"/>
</g>
<!-- Node24 -->
<g id="node47" class="node"><title>Node24</title>
<a xlink:href="../../d5/d60/namespaceblond.html#a927de322fc625da5ba7e2c075804f231" target="_top" xlink:title="blond::plot_PL_RF_freq">
<polygon fill="white" stroke="black" points="171.5,-328.5 171.5,-349.5 290.5,-349.5 290.5,-328.5 171.5,-328.5"/>
<text text-anchor="middle" x="231" y="-336.5" font-family="Helvetica,sans-Serif" font-size="10.00">blond::plot_PL_RF_freq</text>
</a>
</g>
<!-- Node1&#45;&gt;Node24 -->
<g id="edge46" class="edge"><title>Node1&#45;&gt;Node24</title>
<path fill="none" stroke="midnightblue" d="M62.2286,-621.748C75.2161,-556.818 110.743,-395.665 150,-359 156.034,-353.364 163.397,-349.247 171.197,-346.251"/>
<polygon fill="midnightblue" stroke="midnightblue" points="58.7751,-621.171 60.2724,-631.659 65.6426,-622.526 58.7751,-621.171"/>
</g>
<!-- Node25 -->
<g id="node49" class="node"><title>Node25</title>
<a xlink:href="../../d5/d60/namespaceblond.html#aa745dea26791ce879c21688e8f4868be" target="_top" xlink:title="blond::plot_PL_RF_phase">
<polygon fill="white" stroke="black" points="166.5,-288.5 166.5,-309.5 295.5,-309.5 295.5,-288.5 166.5,-288.5"/>
<text text-anchor="middle" x="231" y="-296.5" font-family="Helvetica,sans-Serif" font-size="10.00">blond::plot_PL_RF_phase</text>
</a>
</g>
<!-- Node1&#45;&gt;Node25 -->
<g id="edge48" class="edge"><title>Node1&#45;&gt;Node25</title>
<path fill="none" stroke="midnightblue" d="M61.0714,-621.944C72.2872,-550.944 105.759,-361.821 150,-319 154.684,-314.467 160.223,-310.909 166.174,-308.124"/>
<polygon fill="midnightblue" stroke="midnightblue" points="57.6001,-621.489 59.5216,-631.908 64.5169,-622.565 57.6001,-621.489"/>
</g>
<!-- Node26 -->
<g id="node51" class="node"><title>Node26</title>
<a xlink:href="../../d5/d60/namespaceblond.html#a433b2df7fba18f02bf7053afc502ee41" target="_top" xlink:title="blond::plot_position_evol">
<polygon fill="white" stroke="black" points="169,-248.5 169,-269.5 293,-269.5 293,-248.5 169,-248.5"/>
<text text-anchor="middle" x="231" y="-256.5" font-family="Helvetica,sans-Serif" font-size="10.00">blond::plot_position_evol</text>
</a>
</g>
<!-- Node1&#45;&gt;Node26 -->
<g id="edge50" class="edge"><title>Node1&#45;&gt;Node26</title>
<path fill="none" stroke="midnightblue" d="M60.2644,-621.338C69.9428,-543.981 100.906,-327.889 150,-279 155.337,-273.685 161.848,-269.704 168.836,-266.735"/>
<polygon fill="midnightblue" stroke="midnightblue" points="56.736,-621.356 58.9913,-631.708 63.6838,-622.209 56.736,-621.356"/>
</g>
<!-- Node27 -->
<g id="node53" class="node"><title>Node27</title>
<a xlink:href="../../d5/d60/namespaceblond.html#a6ab00ea09a818a22dbb9e750dc6ca360" target="_top" xlink:title="blond::plot_RF_phase\l_error">
<polygon fill="white" stroke="black" points="175,-196 175,-230 287,-230 287,-196 175,-196"/>
<text text-anchor="start" x="183" y="-217" font-family="Helvetica,sans-Serif" font-size="10.00">blond::plot_RF_phase</text>
<text text-anchor="middle" x="231" y="-204" font-family="Helvetica,sans-Serif" font-size="10.00">_error</text>
</a>
</g>
<!-- Node1&#45;&gt;Node27 -->
<g id="edge52" class="edge"><title>Node1&#45;&gt;Node27</title>
<path fill="none" stroke="midnightblue" d="M59.6681,-621.863C68.2615,-539.744 97.7431,-296.044 150,-239 156.684,-231.703 165.418,-226.445 174.67,-222.658"/>
<polygon fill="midnightblue" stroke="midnightblue" points="56.1758,-621.611 58.6368,-631.916 63.1392,-622.325 56.1758,-621.611"/>
</g>
<!-- Node28 -->
<g id="node55" class="node"><title>Node28</title>
<a xlink:href="../../d5/d60/namespaceblond.html#a0fe2680754db29eb257b117ff3078764" target="_top" xlink:title="blond::plot_RL_radial\l_error">
<polygon fill="white" stroke="black" points="177,-144 177,-178 285,-178 285,-144 177,-144"/>
<text text-anchor="start" x="185" y="-165" font-family="Helvetica,sans-Serif" font-size="10.00">blond::plot_RL_radial</text>
<text text-anchor="middle" x="231" y="-152" font-family="Helvetica,sans-Serif" font-size="10.00">_error</text>
</a>
</g>
<!-- Node1&#45;&gt;Node28 -->
<g id="edge54" class="edge"><title>Node1&#45;&gt;Node28</title>
<path fill="none" stroke="midnightblue" d="M58.9243,-621.735C65.736,-532.697 91.5067,-252.438 150,-187 157.087,-179.072 166.594,-173.547 176.601,-169.7"/>
<polygon fill="midnightblue" stroke="midnightblue" points="55.4235,-621.616 58.1699,-631.848 62.4041,-622.136 55.4235,-621.616"/>
</g>
<!-- Node29 -->
<g id="node57" class="node"><title>Node29</title>
<a xlink:href="../../d5/d60/namespaceblond.html#ab5220a2f6d98f38d0744c5c9412190ad" target="_top" xlink:title="blond::plot_transmitted\l_particles">
<polygon fill="white" stroke="black" points="173,-92 173,-126 289,-126 289,-92 173,-92"/>
<text text-anchor="start" x="181" y="-113" font-family="Helvetica,sans-Serif" font-size="10.00">blond::plot_transmitted</text>
<text text-anchor="middle" x="231" y="-100" font-family="Helvetica,sans-Serif" font-size="10.00">_particles</text>
</a>
</g>
<!-- Node1&#45;&gt;Node29 -->
<g id="edge56" class="edge"><title>Node1&#45;&gt;Node29</title>
<path fill="none" stroke="midnightblue" d="M58.3101,-621.856C63.4406,-526.547 85.1833,-208.962 150,-135 156.132,-128.002 164.152,-122.874 172.759,-119.119"/>
<polygon fill="midnightblue" stroke="midnightblue" points="54.8141,-621.69 57.7894,-631.858 61.8046,-622.054 54.8141,-621.69"/>
</g>
<!-- Node30 -->
<g id="node59" class="node"><title>Node30</title>
<a xlink:href="../../d5/d60/namespaceblond.html#a279ac3ee78b4c285ab86372128838323" target="_top" xlink:title="blond::plot_voltage\l_programme">
<polygon fill="white" stroke="black" points="182,-40 182,-74 280,-74 280,-40 182,-40"/>
<text text-anchor="start" x="190" y="-61" font-family="Helvetica,sans-Serif" font-size="10.00">blond::plot_voltage</text>
<text text-anchor="middle" x="231" y="-48" font-family="Helvetica,sans-Serif" font-size="10.00">_programme</text>
</a>
</g>
<!-- Node1&#45;&gt;Node30 -->
<g id="edge58" class="edge"><title>Node1&#45;&gt;Node30</title>
<path fill="none" stroke="midnightblue" d="M57.8152,-621.815C61.3933,-520.367 78.8688,-165.501 150,-83 158.198,-73.4922 169.881,-67.4318 181.832,-63.5777"/>
<polygon fill="midnightblue" stroke="midnightblue" points="54.3153,-621.758 57.4775,-631.87 61.3113,-621.993 54.3153,-621.758"/>
</g>
<!-- Node31 -->
<g id="node61" class="node"><title>Node31</title>
<a xlink:href="../../d5/d60/namespaceblond.html#a59056be6624ea020886cf73f36d4f1aa" target="_top" xlink:title="blond::plot_xy">
<polygon fill="white" stroke="black" points="192.5,-0.5 192.5,-21.5 269.5,-21.5 269.5,-0.5 192.5,-0.5"/>
<text text-anchor="middle" x="231" y="-8.5" font-family="Helvetica,sans-Serif" font-size="10.00">blond::plot_xy</text>
</a>
</g>
<!-- Node1&#45;&gt;Node31 -->
<g id="edge60" class="edge"><title>Node1&#45;&gt;Node31</title>
<path fill="none" stroke="midnightblue" d="M59.3252,-621.708C69.251,-507.972 109.42,-75.5282 150,-31 160.732,-19.2235 177.197,-13.8748 192.486,-11.6043"/>
<polygon fill="midnightblue" stroke="midnightblue" points="55.8112,-621.719 58.4354,-631.984 62.7851,-622.323 55.8112,-621.719"/>
</g>
<!-- Node12 -->
<g id="node23" class="node"><title>Node12</title>
<a xlink:href="../../d5/d60/namespaceblond.html#a87deee1fff62742855312a1fedec871d" target="_top" xlink:title="blond::matched_from\l_line_density">
<polygon fill="white" stroke="black" points="348,-868 348,-902 456,-902 456,-868 348,-868"/>
<text text-anchor="start" x="356" y="-889" font-family="Helvetica,sans-Serif" font-size="10.00">blond::matched_from</text>
<text text-anchor="middle" x="402" y="-876" font-family="Helvetica,sans-Serif" font-size="10.00">_line_density</text>
</a>
</g>
<!-- Node11&#45;&gt;Node12 -->
<g id="edge22" class="edge"><title>Node11&#45;&gt;Node12</title>
<path fill="none" stroke="midnightblue" d="M296.463,-885C313.466,-885 331.59,-885 347.933,-885"/>
<polygon fill="midnightblue" stroke="midnightblue" points="296.047,-881.5 286.047,-885 296.047,-888.5 296.047,-881.5"/>
</g>
</g>
</svg>
