<?xml version="1.0" encoding="UTF-8" standalone="no"?>
<!DOCTYPE svg PUBLIC "-//W3C//DTD SVG 1.1//EN"
 "http://www.w3.org/Graphics/SVG/1.1/DTD/svg11.dtd">
<!-- Generated by graphviz version 2.26.3 (20100126.1600)
 -->
<!-- Title: Slices Pages: 1 -->
<svg width="1209pt" height="998pt"
 viewBox="0.00 0.00 1208.76 998.00" xmlns="http://www.w3.org/2000/svg" xmlns:xlink="http://www.w3.org/1999/xlink">
<g id="graph1" class="graph" transform="scale(1 1) rotate(0) translate(4 994)">
<title>Slices</title>
<polygon fill="white" stroke="white" points="-4,5 -4,-994 1205.76,-994 1205.76,5 -4,5"/>
<!-- Node1 -->
<g id="node1" class="node"><title>Node1</title>
<polygon fill="#bfbfbf" stroke="black" points="366.763,-0.5 366.763,-245.5 518.763,-245.5 518.763,-0.5 366.763,-0.5"/>
<text text-anchor="middle" x="442.763" y="-232.5" font-family="Helvetica,sans-Serif" font-size="10.00">Slices</text>
<polyline fill="none" stroke="black" points="366.763,-224.5 518.763,-224.5 "/>
<text text-anchor="middle" x="442.763" y="-211.5" font-family="Helvetica,sans-Serif" font-size="10.00"> </text>
<polyline fill="none" stroke="black" points="366.763,-203.5 518.763,-203.5 "/>
<text text-anchor="start" x="374.763" y="-190.5" font-family="Helvetica,sans-Serif" font-size="10.00">+ Slices()</text>
<text text-anchor="start" x="374.763" y="-177.5" font-family="Helvetica,sans-Serif" font-size="10.00">+ ~Slices()</text>
<text text-anchor="start" x="374.763" y="-164.5" font-family="Helvetica,sans-Serif" font-size="10.00">+ beam_profile_derivative()</text>
<text text-anchor="start" x="374.763" y="-151.5" font-family="Helvetica,sans-Serif" font-size="10.00">+ beam_profile_filter</text>
<text text-anchor="start" x="374.763" y="-138.5" font-family="Helvetica,sans-Serif" font-size="10.00">_chebyshev()</text>
<text text-anchor="start" x="374.763" y="-125.5" font-family="Helvetica,sans-Serif" font-size="10.00">+ beam_profile_filter</text>
<text text-anchor="start" x="374.763" y="-112.5" font-family="Helvetica,sans-Serif" font-size="10.00">_chebyshev()</text>
<text text-anchor="start" x="374.763" y="-99.5" font-family="Helvetica,sans-Serif" font-size="10.00">+ beam_spectrum_generation()</text>
<text text-anchor="start" x="374.763" y="-86.5" font-family="Helvetica,sans-Serif" font-size="10.00">+ convert_coordinates()</text>
<text text-anchor="start" x="374.763" y="-73.5" font-family="Helvetica,sans-Serif" font-size="10.00">+ fwhm()</text>
<text text-anchor="start" x="374.763" y="-60.5" font-family="Helvetica,sans-Serif" font-size="10.00">+ fwhm_multibunch()</text>
<text text-anchor="start" x="374.763" y="-47.5" font-family="Helvetica,sans-Serif" font-size="10.00">+ gaussian_fit()</text>
<text text-anchor="start" x="374.763" y="-34.5" font-family="Helvetica,sans-Serif" font-size="10.00">and 9 more...</text>
<text text-anchor="start" x="374.763" y="-21.5" font-family="Helvetica,sans-Serif" font-size="10.00">&#45; gaussian_filter1d()</text>
<text text-anchor="start" x="374.763" y="-8.5" font-family="Helvetica,sans-Serif" font-size="10.00">&#45; gradient()</text>
</g>
<!-- Node2 -->
<g id="node2" class="node"><title>Node2</title>
<a xlink:href="../../d9/d7c/classBeams.html" target="_top" xlink:title="{Beams\n|+ mass\l+ momentum\l|+ Beams()\l+ ~Beams()\l+ losses_energy_cut()\l+ losses_longitudinal_cut()\l+ losses_separatrix()\l+ n_macroparticles_alive()\l+ statistics()\l&#45; statistics()\l}">
<polygon fill="white" stroke="black" points="192.263,-296.5 192.263,-463.5 325.263,-463.5 325.263,-296.5 192.263,-296.5"/>
<text text-anchor="middle" x="258.763" y="-450.5" font-family="Helvetica,sans-Serif" font-size="10.00">Beams</text>
<polyline fill="none" stroke="black" points="192.263,-442.5 325.263,-442.5 "/>
<text text-anchor="start" x="200.263" y="-429.5" font-family="Helvetica,sans-Serif" font-size="10.00">+ mass</text>
<text text-anchor="start" x="200.263" y="-416.5" font-family="Helvetica,sans-Serif" font-size="10.00">+ momentum</text>
<polyline fill="none" stroke="black" points="192.263,-408.5 325.263,-408.5 "/>
<text text-anchor="start" x="200.263" y="-395.5" font-family="Helvetica,sans-Serif" font-size="10.00">+ Beams()</text>
<text text-anchor="start" x="200.263" y="-382.5" font-family="Helvetica,sans-Serif" font-size="10.00">+ ~Beams()</text>
<text text-anchor="start" x="200.263" y="-369.5" font-family="Helvetica,sans-Serif" font-size="10.00">+ losses_energy_cut()</text>
<text text-anchor="start" x="200.263" y="-356.5" font-family="Helvetica,sans-Serif" font-size="10.00">+ losses_longitudinal_cut()</text>
<text text-anchor="start" x="200.263" y="-343.5" font-family="Helvetica,sans-Serif" font-size="10.00">+ losses_separatrix()</text>
<text text-anchor="start" x="200.263" y="-330.5" font-family="Helvetica,sans-Serif" font-size="10.00">+ n_macroparticles_alive()</text>
<text text-anchor="start" x="200.263" y="-317.5" font-family="Helvetica,sans-Serif" font-size="10.00">+ statistics()</text>
<text text-anchor="start" x="200.263" y="-304.5" font-family="Helvetica,sans-Serif" font-size="10.00">&#45; statistics()</text>
</a>
</g>
<!-- Node2&#45;&gt;Node1 -->
<g id="edge2" class="edge"><title>Node2&#45;&gt;Node1</title>
<path fill="none" stroke="#404040" d="M297.996,-296.45C304.177,-285.279 310.832,-274.177 317.763,-264 329.961,-246.092 344.214,-228.011 358.643,-211.047"/>
<polygon fill="none" stroke="#404040" points="358.828,-210.833 359.717,-203.677 366.665,-201.745 365.775,-208.901 358.828,-210.833"/>
<text text-anchor="middle" x="334.763" y="-268.5" font-family="Helvetica,sans-Serif" font-size="10.00"> +beam</text>
</g>
<!-- Node3 -->
<g id="node4" class="node"><title>Node3</title>
<polygon fill="white" stroke="#bfbfbf" points="78.2635,-812.5 78.2635,-875.5 123.263,-875.5 123.263,-812.5 78.2635,-812.5"/>
<text text-anchor="middle" x="100.763" y="-862.5" font-family="Helvetica,sans-Serif" font-size="10.00">double</text>
<polyline fill="none" stroke="#bfbfbf" points="78.2635,-854.5 123.263,-854.5 "/>
<text text-anchor="middle" x="100.763" y="-841.5" font-family="Helvetica,sans-Serif" font-size="10.00"> </text>
<polyline fill="none" stroke="#bfbfbf" points="78.2635,-833.5 123.263,-833.5 "/>
<text text-anchor="middle" x="100.763" y="-820.5" font-family="Helvetica,sans-Serif" font-size="10.00"> </text>
</g>
<!-- Node3&#45;&gt;Node1 -->
<g id="edge24" class="edge"><title>Node3&#45;&gt;Node1</title>
<path fill="none" stroke="#404040" d="M78.5673,-812.436C68.9585,-797.655 58.227,-779.482 50.7635,-762 21.5141,-693.489 17.4,-673.867 7.76349,-600 -10.4483,-460.401 -1.91722,-396.408 96.7635,-296 168.854,-222.648 278.509,-175.147 354.989,-148.818"/>
<polygon fill="none" stroke="#404040" points="355.127,-148.772 359.531,-143.061 366.495,-144.93 362.092,-150.64 355.127,-148.772"/>
<text text-anchor="middle" x="32.2635" y="-590.5" font-family="Helvetica,sans-Serif" font-size="10.00"> +bp_fwhm</text>
<text text-anchor="middle" x="32.2635" y="-577.5" font-family="Helvetica,sans-Serif" font-size="10.00">&#45;cfwhm</text>
<text text-anchor="middle" x="32.2635" y="-564.5" font-family="Helvetica,sans-Serif" font-size="10.00">+cut_right</text>
<text text-anchor="middle" x="32.2635" y="-551.5" font-family="Helvetica,sans-Serif" font-size="10.00">+bl_rms</text>
<text text-anchor="middle" x="32.2635" y="-538.5" font-family="Helvetica,sans-Serif" font-size="10.00">+bl_fwhm</text>
<text text-anchor="middle" x="32.2635" y="-525.5" font-family="Helvetica,sans-Serif" font-size="10.00">+bl_gauss</text>
<text text-anchor="middle" x="32.2635" y="-512.5" font-family="Helvetica,sans-Serif" font-size="10.00">+cut_left</text>
<text text-anchor="middle" x="32.2635" y="-499.5" font-family="Helvetica,sans-Serif" font-size="10.00">+bp_rms</text>
<text text-anchor="middle" x="32.2635" y="-486.5" font-family="Helvetica,sans-Serif" font-size="10.00">+bp_gauss</text>
</g>
<!-- Node3&#45;&gt;Node2 -->
<g id="edge4" class="edge"><title>Node3&#45;&gt;Node2</title>
<path fill="none" stroke="#404040" d="M94.2018,-812.229C86.3098,-767.843 76.2757,-685.171 94.7635,-618 111.015,-558.954 149.045,-502.115 184.394,-458.798"/>
<polygon fill="none" stroke="#404040" points="184.459,-458.72 185.213,-451.548 192.123,-449.486 191.369,-456.657 184.459,-458.72"/>
<text text-anchor="middle" x="123.263" y="-752.5" font-family="Helvetica,sans-Serif" font-size="10.00"> +energy</text>
<text text-anchor="middle" x="123.263" y="-739.5" font-family="Helvetica,sans-Serif" font-size="10.00">+sigma_dt</text>
<text text-anchor="middle" x="123.263" y="-726.5" font-family="Helvetica,sans-Serif" font-size="10.00">+sigma_dE</text>
<text text-anchor="middle" x="123.263" y="-713.5" font-family="Helvetica,sans-Serif" font-size="10.00">+gamma</text>
<text text-anchor="middle" x="123.263" y="-700.5" font-family="Helvetica,sans-Serif" font-size="10.00">+beta</text>
<text text-anchor="middle" x="123.263" y="-687.5" font-family="Helvetica,sans-Serif" font-size="10.00">+ratio</text>
<text text-anchor="middle" x="123.263" y="-674.5" font-family="Helvetica,sans-Serif" font-size="10.00">+epsn_rms_l</text>
<text text-anchor="middle" x="123.263" y="-661.5" font-family="Helvetica,sans-Serif" font-size="10.00">+mean_dE</text>
<text text-anchor="middle" x="123.263" y="-648.5" font-family="Helvetica,sans-Serif" font-size="10.00">+mean_dt</text>
<text text-anchor="middle" x="123.263" y="-635.5" font-family="Helvetica,sans-Serif" font-size="10.00">+charge</text>
<text text-anchor="middle" x="123.263" y="-622.5" font-family="Helvetica,sans-Serif" font-size="10.00">...</text>
</g>
<!-- Node9 -->
<g id="node17" class="node"><title>Node9</title>
<polygon fill="white" stroke="#bfbfbf" points="497.763,-658.5 497.763,-721.5 607.763,-721.5 607.763,-658.5 497.763,-658.5"/>
<text text-anchor="middle" x="552.763" y="-708.5" font-family="Helvetica,sans-Serif" font-size="10.00">std::vector&lt; double &gt;</text>
<polyline fill="none" stroke="#bfbfbf" points="497.763,-700.5 607.763,-700.5 "/>
<text text-anchor="middle" x="552.763" y="-687.5" font-family="Helvetica,sans-Serif" font-size="10.00"> </text>
<polyline fill="none" stroke="#bfbfbf" points="497.763,-679.5 607.763,-679.5 "/>
<text text-anchor="middle" x="552.763" y="-666.5" font-family="Helvetica,sans-Serif" font-size="10.00"> </text>
</g>
<!-- Node3&#45;&gt;Node9 -->
<g id="edge20" class="edge"><title>Node3&#45;&gt;Node9</title>
<path fill="none" stroke="#404040" d="M123.43,-840.93C195.801,-830.852 420.294,-797.402 483.763,-762 497.842,-754.147 510.807,-742.482 521.606,-730.817"/>
<polygon fill="none" stroke="#404040" points="521.851,-730.539 522.815,-723.393 529.783,-721.535 528.818,-728.681 521.851,-730.539"/>
<text text-anchor="middle" x="456.263" y="-784.5" font-family="Helvetica,sans-Serif" font-size="10.00"> +elements</text>
</g>
<!-- Node11 -->
<g id="node25" class="node"><title>Node11</title>
<a xlink:href="../../da/d49/classRfParameters.html" target="_top" xlink:title="{RfParameters\n||+ RfParameters()\l+ ~RfParameters()\l+ calc_phi_s()\l+ eta_tracking()\l}">
<polygon fill="white" stroke="black" points="594.763,-329 594.763,-431 692.763,-431 692.763,-329 594.763,-329"/>
<text text-anchor="middle" x="643.763" y="-418" font-family="Helvetica,sans-Serif" font-size="10.00">RfParameters</text>
<polyline fill="none" stroke="black" points="594.763,-410 692.763,-410 "/>
<text text-anchor="middle" x="643.763" y="-397" font-family="Helvetica,sans-Serif" font-size="10.00"> </text>
<polyline fill="none" stroke="black" points="594.763,-389 692.763,-389 "/>
<text text-anchor="start" x="602.763" y="-376" font-family="Helvetica,sans-Serif" font-size="10.00">+ RfParameters()</text>
<text text-anchor="start" x="602.763" y="-363" font-family="Helvetica,sans-Serif" font-size="10.00">+ ~RfParameters()</text>
<text text-anchor="start" x="602.763" y="-350" font-family="Helvetica,sans-Serif" font-size="10.00">+ calc_phi_s()</text>
<text text-anchor="start" x="602.763" y="-337" font-family="Helvetica,sans-Serif" font-size="10.00">+ eta_tracking()</text>
</a>
</g>
<!-- Node3&#45;&gt;Node11 -->
<g id="edge32" class="edge"><title>Node3&#45;&gt;Node11</title>
<path fill="none" stroke="#404040" d="M123.56,-840.062C181.984,-829.515 334.861,-798.91 368.763,-762 413.049,-713.786 368.451,-675.492 399.763,-618 440.649,-542.931 463.049,-526.94 535.763,-482 557.283,-468.7 569.787,-479.523 589.763,-464 597.93,-457.654 605.223,-449.704 611.606,-441.242"/>
<polygon fill="none" stroke="#404040" points="611.797,-440.97 611.961,-433.761 618.679,-431.139 618.514,-438.349 611.797,-440.97"/>
<text text-anchor="middle" x="444.263" y="-707" font-family="Helvetica,sans-Serif" font-size="10.00"> +length_ratio</text>
<text text-anchor="middle" x="444.263" y="-694" font-family="Helvetica,sans-Serif" font-size="10.00">+ring_circumference</text>
<text text-anchor="middle" x="444.263" y="-681" font-family="Helvetica,sans-Serif" font-size="10.00">+section_length</text>
<text text-anchor="middle" x="444.263" y="-668" font-family="Helvetica,sans-Serif" font-size="10.00">+charge</text>
</g>
<!-- Node4 -->
<g id="node6" class="node"><title>Node4</title>
<polygon fill="white" stroke="#bfbfbf" points="160.763,-658.5 160.763,-721.5 216.763,-721.5 216.763,-658.5 160.763,-658.5"/>
<text text-anchor="middle" x="188.763" y="-708.5" font-family="Helvetica,sans-Serif" font-size="10.00">long long</text>
<polyline fill="none" stroke="#bfbfbf" points="160.763,-700.5 216.763,-700.5 "/>
<text text-anchor="middle" x="188.763" y="-687.5" font-family="Helvetica,sans-Serif" font-size="10.00"> </text>
<polyline fill="none" stroke="#bfbfbf" points="160.763,-679.5 216.763,-679.5 "/>
<text text-anchor="middle" x="188.763" y="-666.5" font-family="Helvetica,sans-Serif" font-size="10.00"> </text>
</g>
<!-- Node4&#45;&gt;Node2 -->
<g id="edge6" class="edge"><title>Node4&#45;&gt;Node2</title>
<path fill="none" stroke="#404040" d="M184.075,-658.147C179.142,-616.591 174.386,-542.098 192.763,-482 193.498,-479.597 194.308,-477.197 195.183,-474.804"/>
<polygon fill="none" stroke="#404040" points="195.189,-474.789 193.757,-467.722 199.73,-463.681 201.162,-470.749 195.189,-474.789"/>
<text text-anchor="middle" x="215.763" y="-538.5" font-family="Helvetica,sans-Serif" font-size="10.00"> +intensity</text>
</g>
<!-- Node5 -->
<g id="node8" class="node"><title>Node5</title>
<polygon fill="white" stroke="#bfbfbf" points="429.263,-812.5 429.263,-875.5 458.263,-875.5 458.263,-812.5 429.263,-812.5"/>
<text text-anchor="middle" x="443.763" y="-862.5" font-family="Helvetica,sans-Serif" font-size="10.00">int</text>
<polyline fill="none" stroke="#bfbfbf" points="429.263,-854.5 458.263,-854.5 "/>
<text text-anchor="middle" x="443.763" y="-841.5" font-family="Helvetica,sans-Serif" font-size="10.00"> </text>
<polyline fill="none" stroke="#bfbfbf" points="429.263,-833.5 458.263,-833.5 "/>
<text text-anchor="middle" x="443.763" y="-820.5" font-family="Helvetica,sans-Serif" font-size="10.00"> </text>
</g>
<!-- Node5&#45;&gt;Node1 -->
<g id="edge28" class="edge"><title>Node5&#45;&gt;Node1</title>
<path fill="none" stroke="#404040" d="M429.048,-843.039C366.721,-838.638 125.641,-818.146 80.7635,-762 -5.37061,-654.238 138.376,-356.234 183.763,-296 228.397,-236.766 299.552,-191.343 355.996,-161.936"/>
<polygon fill="none" stroke="#404040" points="356.033,-161.917 359.552,-155.623 366.715,-156.45 363.197,-162.745 356.033,-161.917"/>
<text text-anchor="middle" x="115.763" y="-545" font-family="Helvetica,sans-Serif" font-size="10.00"> +n_sigma</text>
<text text-anchor="middle" x="115.763" y="-532" font-family="Helvetica,sans-Serif" font-size="10.00">+n_slices</text>
</g>
<!-- Node5&#45;&gt;Node2 -->
<g id="edge8" class="edge"><title>Node5&#45;&gt;Node2</title>
<path fill="none" stroke="#404040" d="M429.242,-842.347C394.076,-837.477 304.472,-819.688 266.763,-762 237.092,-716.607 242.059,-573.367 249.522,-475.788"/>
<polygon fill="none" stroke="#404040" points="249.545,-475.492 246.03,-469.195 250.491,-463.529 254.005,-469.825 249.545,-475.492"/>
<text text-anchor="middle" x="317.763" y="-694" font-family="Helvetica,sans-Serif" font-size="10.00"> +n_macroparticles</text>
<text text-anchor="middle" x="317.763" y="-681" font-family="Helvetica,sans-Serif" font-size="10.00">+n_macroparticles_lost</text>
</g>
<!-- Node6 -->
<g id="node10" class="node"><title>Node6</title>
<polygon fill="white" stroke="#bfbfbf" points="731.763,-658.5 731.763,-721.5 823.763,-721.5 823.763,-658.5 731.763,-658.5"/>
<text text-anchor="middle" x="777.763" y="-708.5" font-family="Helvetica,sans-Serif" font-size="10.00">std::vector&lt; int &gt;</text>
<polyline fill="none" stroke="#bfbfbf" points="731.763,-700.5 823.763,-700.5 "/>
<text text-anchor="middle" x="777.763" y="-687.5" font-family="Helvetica,sans-Serif" font-size="10.00"> </text>
<polyline fill="none" stroke="#bfbfbf" points="731.763,-679.5 823.763,-679.5 "/>
<text text-anchor="middle" x="777.763" y="-666.5" font-family="Helvetica,sans-Serif" font-size="10.00"> </text>
</g>
<!-- Node5&#45;&gt;Node6 -->
<g id="edge12" class="edge"><title>Node5&#45;&gt;Node6</title>
<path fill="none" stroke="#404040" d="M458.325,-842.968C508.861,-839.144 675.929,-824.406 718.763,-794 739.569,-779.231 753.997,-754.67 763.375,-733.125"/>
<polygon fill="none" stroke="#404040" points="763.429,-732.991 761.984,-725.926 767.949,-721.875 769.395,-728.939 763.429,-732.991"/>
<text text-anchor="middle" x="758.263" y="-784.5" font-family="Helvetica,sans-Serif" font-size="10.00"> +elements</text>
</g>
<!-- Node5&#45;&gt;Node11 -->
<g id="edge40" class="edge"><title>Node5&#45;&gt;Node11</title>
<path fill="none" stroke="#404040" d="M458.518,-841.969C492.961,-836.366 578.625,-817.256 616.763,-762 651.316,-711.94 650.269,-538.283 646.86,-443.29"/>
<polygon fill="none" stroke="#404040" points="646.859,-443.26 642.633,-437.417 646.401,-431.269 650.627,-437.112 646.859,-443.26"/>
<text text-anchor="middle" x="681.763" y="-713.5" font-family="Helvetica,sans-Serif" font-size="10.00"> +section_index</text>
<text text-anchor="middle" x="681.763" y="-700.5" font-family="Helvetica,sans-Serif" font-size="10.00">+n_turns</text>
<text text-anchor="middle" x="681.763" y="-687.5" font-family="Helvetica,sans-Serif" font-size="10.00">+counter</text>
<text text-anchor="middle" x="681.763" y="-674.5" font-family="Helvetica,sans-Serif" font-size="10.00">+n_rf</text>
<text text-anchor="middle" x="681.763" y="-661.5" font-family="Helvetica,sans-Serif" font-size="10.00">+alpha_order</text>
</g>
<!-- Node6&#45;&gt;Node2 -->
<g id="edge10" class="edge"><title>Node6&#45;&gt;Node2</title>
<path fill="none" stroke="#404040" d="M759.594,-658.309C749.319,-643.458 735.054,-627.071 717.763,-618 639.122,-576.745 601.384,-632.562 518.763,-600 427.121,-563.882 417.815,-528.956 343.763,-464 340.627,-461.249 337.459,-458.411 334.283,-455.519"/>
<polygon fill="none" stroke="#404040" points="334.145,-455.391 327.024,-454.254 325.335,-447.244 332.456,-448.381 334.145,-455.391"/>
<text text-anchor="middle" x="527.263" y="-538.5" font-family="Helvetica,sans-Serif" font-size="10.00"> +id</text>
</g>
<!-- Node6&#45;&gt;Node11 -->
<g id="edge42" class="edge"><title>Node6&#45;&gt;Node11</title>
<path fill="none" stroke="#404040" d="M764.053,-658.281C742.186,-607.695 699.009,-507.806 670.774,-442.487"/>
<polygon fill="none" stroke="#404040" points="670.619,-442.128 664.567,-438.208 665.858,-431.113 671.91,-435.034 670.619,-442.128"/>
<text text-anchor="middle" x="767.263" y="-538.5" font-family="Helvetica,sans-Serif" font-size="10.00"> +sign_eta_0</text>
</g>
<!-- Node7 -->
<g id="node13" class="node"><title>Node7</title>
<a xlink:title="STL class.">
<polygon fill="white" stroke="#bfbfbf" points="832.263,-812.5 832.263,-875.5 919.263,-875.5 919.263,-812.5 832.263,-812.5"/>
<text text-anchor="middle" x="875.763" y="-862.5" font-family="Helvetica,sans-Serif" font-size="10.00">std::vector&lt; T &gt;</text>
<polyline fill="none" stroke="#bfbfbf" points="832.263,-854.5 919.263,-854.5 "/>
<text text-anchor="middle" x="875.763" y="-841.5" font-family="Helvetica,sans-Serif" font-size="10.00"> </text>
<polyline fill="none" stroke="#bfbfbf" points="832.263,-833.5 919.263,-833.5 "/>
<text text-anchor="middle" x="875.763" y="-820.5" font-family="Helvetica,sans-Serif" font-size="10.00"> </text>
</a>
</g>
<!-- Node7&#45;&gt;Node6 -->
<g id="edge14" class="edge"><title>Node7&#45;&gt;Node6</title>
<path fill="none" stroke="orange" d="M824.625,-806.945C820.645,-802.857 816.944,-798.525 813.763,-794 798.491,-772.273 789.19,-743.479 783.878,-721.698"/>
<polygon fill="orange" stroke="orange" points="822.391,-809.652 832.039,-814.03 827.228,-804.591 822.391,-809.652"/>
<text text-anchor="middle" x="829.763" y="-784.5" font-family="Helvetica,sans-Serif" font-size="10.00"> &lt; int &gt;</text>
</g>
<!-- Node7&#45;&gt;Node9 -->
<g id="edge22" class="edge"><title>Node7&#45;&gt;Node9</title>
<path fill="none" stroke="orange" d="M821.929,-836.468C779.106,-829.199 718.356,-815.991 668.763,-794 645.662,-783.756 641.056,-778.323 621.763,-762 607.225,-749.699 592.44,-734.676 580.306,-721.541"/>
<polygon fill="orange" stroke="orange" points="821.432,-839.933 831.867,-838.103 822.568,-833.026 821.432,-839.933"/>
<text text-anchor="middle" x="693.763" y="-784.5" font-family="Helvetica,sans-Serif" font-size="10.00"> &lt; double &gt;</text>
</g>
<!-- Node7&#45;&gt;Node11 -->
<g id="edge46" class="edge"><title>Node7&#45;&gt;Node11</title>
<path fill="none" stroke="#404040" d="M872.373,-812.456C863.501,-734.582 837.642,-535.636 799.763,-482 775.865,-448.16 736.854,-422.656 703.822,-405.614"/>
<polygon fill="none" stroke="#404040" points="703.62,-405.513 696.465,-406.416 692.88,-400.16 700.035,-399.257 703.62,-405.513"/>
<text text-anchor="middle" x="894.263" y="-733" font-family="Helvetica,sans-Serif" font-size="10.00"> +energy</text>
<text text-anchor="middle" x="894.263" y="-720" font-family="Helvetica,sans-Serif" font-size="10.00">+t_rev</text>
<text text-anchor="middle" x="894.263" y="-707" font-family="Helvetica,sans-Serif" font-size="10.00">+eta_0</text>
<text text-anchor="middle" x="894.263" y="-694" font-family="Helvetica,sans-Serif" font-size="10.00">+gamma</text>
<text text-anchor="middle" x="894.263" y="-681" font-family="Helvetica,sans-Serif" font-size="10.00">+eta_1</text>
<text text-anchor="middle" x="894.263" y="-668" font-family="Helvetica,sans-Serif" font-size="10.00">+beta</text>
<text text-anchor="middle" x="894.263" y="-655" font-family="Helvetica,sans-Serif" font-size="10.00">+eta_2</text>
<text text-anchor="middle" x="894.263" y="-642" font-family="Helvetica,sans-Serif" font-size="10.00">+momentum</text>
</g>
<!-- Node12 -->
<g id="node28" class="node"><title>Node12</title>
<polygon fill="white" stroke="#bfbfbf" points="932.263,-658.5 932.263,-721.5 1057.26,-721.5 1057.26,-658.5 932.263,-658.5"/>
<text text-anchor="middle" x="994.763" y="-708.5" font-family="Helvetica,sans-Serif" font-size="10.00">std::vector&lt; f_vector_t &gt;</text>
<polyline fill="none" stroke="#bfbfbf" points="932.263,-700.5 1057.26,-700.5 "/>
<text text-anchor="middle" x="994.763" y="-687.5" font-family="Helvetica,sans-Serif" font-size="10.00"> </text>
<polyline fill="none" stroke="#bfbfbf" points="932.263,-679.5 1057.26,-679.5 "/>
<text text-anchor="middle" x="994.763" y="-666.5" font-family="Helvetica,sans-Serif" font-size="10.00"> </text>
</g>
<!-- Node7&#45;&gt;Node12 -->
<g id="edge36" class="edge"><title>Node7&#45;&gt;Node12</title>
<path fill="none" stroke="#404040" d="M880.299,-812.203C882.953,-801.292 887.147,-789.457 893.763,-780 901.612,-768.781 908.214,-770.728 918.763,-762 930.697,-752.126 943.108,-740.848 954.355,-730.194"/>
<polygon fill="none" stroke="#404040" points="954.429,-730.123 955.995,-723.084 963.094,-721.822 961.529,-728.861 954.429,-730.123"/>
<text text-anchor="middle" x="918.263" y="-784.5" font-family="Helvetica,sans-Serif" font-size="10.00"> +elements</text>
</g>
<!-- Node7&#45;&gt;Node12 -->
<g id="edge38" class="edge"><title>Node7&#45;&gt;Node12</title>
<path fill="none" stroke="orange" d="M927.219,-809.641C932.821,-804.759 938.154,-799.51 942.763,-794 960.768,-772.479 974.551,-743.667 983.389,-721.827"/>
<polygon fill="orange" stroke="orange" points="924.93,-806.993 919.453,-816.062 929.39,-812.387 924.93,-806.993"/>
<text text-anchor="middle" x="985.263" y="-784.5" font-family="Helvetica,sans-Serif" font-size="10.00"> &lt; f_vector_t &gt;</text>
</g>
<!-- Node13 -->
<g id="node36" class="node"><title>Node13</title>
<polygon fill="white" stroke="#bfbfbf" points="1074.76,-658.5 1074.76,-721.5 1200.76,-721.5 1200.76,-658.5 1074.76,-658.5"/>
<text text-anchor="middle" x="1137.76" y="-708.5" font-family="Helvetica,sans-Serif" font-size="10.00">std::vector&lt; complex_t &gt;</text>
<polyline fill="none" stroke="#bfbfbf" points="1074.76,-700.5 1200.76,-700.5 "/>
<text text-anchor="middle" x="1137.76" y="-687.5" font-family="Helvetica,sans-Serif" font-size="10.00"> </text>
<polyline fill="none" stroke="#bfbfbf" points="1074.76,-679.5 1200.76,-679.5 "/>
<text text-anchor="middle" x="1137.76" y="-666.5" font-family="Helvetica,sans-Serif" font-size="10.00"> </text>
</g>
<!-- Node7&#45;&gt;Node13 -->
<g id="edge52" class="edge"><title>Node7&#45;&gt;Node13</title>
<path fill="none" stroke="orange" d="M929.054,-829.936C957.425,-821.423 992.417,-809.254 1021.76,-794 1043.22,-782.847 1047.38,-777.708 1065.76,-762 1080.41,-749.483 1095.64,-734.572 1108.3,-721.575"/>
<polygon fill="orange" stroke="orange" points="927.926,-826.619 919.316,-832.793 929.897,-833.336 927.926,-826.619"/>
<text text-anchor="middle" x="1077.26" y="-784.5" font-family="Helvetica,sans-Serif" font-size="10.00"> &lt; complex_t &gt;</text>
</g>
<!-- Node8 -->
<g id="node15" class="node"><title>Node8</title>
<polygon fill="white" stroke="#bfbfbf" points="861.263,-926.5 861.263,-989.5 890.263,-989.5 890.263,-926.5 861.263,-926.5"/>
<text text-anchor="middle" x="875.763" y="-976.5" font-family="Helvetica,sans-Serif" font-size="10.00">T</text>
<polyline fill="none" stroke="#bfbfbf" points="861.263,-968.5 890.263,-968.5 "/>
<text text-anchor="middle" x="875.763" y="-955.5" font-family="Helvetica,sans-Serif" font-size="10.00"> </text>
<polyline fill="none" stroke="#bfbfbf" points="861.263,-947.5 890.263,-947.5 "/>
<text text-anchor="middle" x="875.763" y="-934.5" font-family="Helvetica,sans-Serif" font-size="10.00"> </text>
</g>
<!-- Node8&#45;&gt;Node7 -->
<g id="edge16" class="edge"><title>Node8&#45;&gt;Node7</title>
<path fill="none" stroke="#404040" d="M875.763,-926.245C875.763,-914.386 875.763,-900.7 875.763,-887.938"/>
<polygon fill="none" stroke="#404040" points="875.764,-887.585 871.764,-881.585 875.763,-875.585 879.764,-881.585 875.764,-887.585"/>
<text text-anchor="middle" x="900.263" y="-898.5" font-family="Helvetica,sans-Serif" font-size="10.00"> +elements</text>
</g>
<!-- Node9&#45;&gt;Node1 -->
<g id="edge56" class="edge"><title>Node9&#45;&gt;Node1</title>
<path fill="none" stroke="#404040" d="M542.201,-658.169C528.146,-614.738 503.375,-534.268 488.763,-464 474.738,-396.555 464.015,-320.678 456.464,-257.652"/>
<polygon fill="none" stroke="#404040" points="456.452,-257.549 451.776,-252.06 455.044,-245.632 459.72,-251.121 456.452,-257.549"/>
<text text-anchor="middle" x="537.263" y="-397" font-family="Helvetica,sans-Serif" font-size="10.00"> +bin_centers</text>
<text text-anchor="middle" x="537.263" y="-384" font-family="Helvetica,sans-Serif" font-size="10.00">+fBeamSpectrumFreq</text>
<text text-anchor="middle" x="537.263" y="-371" font-family="Helvetica,sans-Serif" font-size="10.00">+n_macroparticles</text>
<text text-anchor="middle" x="537.263" y="-358" font-family="Helvetica,sans-Serif" font-size="10.00">+edges</text>
</g>
<!-- Node9&#45;&gt;Node2 -->
<g id="edge18" class="edge"><title>Node9&#45;&gt;Node2</title>
<path fill="none" stroke="#404040" d="M530.872,-658.282C518.801,-643.423 502.47,-627.038 483.763,-618 445.177,-599.357 322.894,-629.451 291.763,-600 282.338,-591.082 273.714,-530.9 267.648,-475.734"/>
<polygon fill="none" stroke="#404040" points="267.636,-475.625 263.018,-470.086 266.354,-463.693 270.972,-469.232 267.636,-475.625"/>
<text text-anchor="middle" x="301.263" y="-545" font-family="Helvetica,sans-Serif" font-size="10.00"> +dt</text>
<text text-anchor="middle" x="301.263" y="-532" font-family="Helvetica,sans-Serif" font-size="10.00">+dE</text>
</g>
<!-- Node9&#45;&gt;Node11 -->
<g id="edge44" class="edge"><title>Node9&#45;&gt;Node11</title>
<path fill="none" stroke="#404040" d="M546.245,-658.444C539.063,-616.571 531.271,-541.057 553.763,-482 560.863,-463.358 573.076,-445.913 586.255,-430.905"/>
<polygon fill="none" stroke="#404040" points="586.426,-430.719 587.543,-423.595 594.549,-421.886 593.432,-429.011 586.426,-430.719"/>
<text text-anchor="middle" x="591.763" y="-577.5" font-family="Helvetica,sans-Serif" font-size="10.00"> +omega_s0</text>
<text text-anchor="middle" x="591.763" y="-564.5" font-family="Helvetica,sans-Serif" font-size="10.00">+phi_s</text>
<text text-anchor="middle" x="591.763" y="-551.5" font-family="Helvetica,sans-Serif" font-size="10.00">+dphi_rf</text>
<text text-anchor="middle" x="591.763" y="-538.5" font-family="Helvetica,sans-Serif" font-size="10.00">+Qs</text>
<text text-anchor="middle" x="591.763" y="-525.5" font-family="Helvetica,sans-Serif" font-size="10.00">+t_rf</text>
<text text-anchor="middle" x="591.763" y="-512.5" font-family="Helvetica,sans-Serif" font-size="10.00">+dphi_rf_steering</text>
<text text-anchor="middle" x="591.763" y="-499.5" font-family="Helvetica,sans-Serif" font-size="10.00">+E_increment</text>
</g>
<!-- Node10 -->
<g id="node22" class="node"><title>Node10</title>
<polygon fill="white" stroke="#bfbfbf" points="1063.26,-348.5 1063.26,-411.5 1128.26,-411.5 1128.26,-348.5 1063.26,-348.5"/>
<text text-anchor="middle" x="1095.76" y="-398.5" font-family="Helvetica,sans-Serif" font-size="10.00">cuts_unit_t</text>
<polyline fill="none" stroke="#bfbfbf" points="1063.26,-390.5 1128.26,-390.5 "/>
<text text-anchor="middle" x="1095.76" y="-377.5" font-family="Helvetica,sans-Serif" font-size="10.00"> </text>
<polyline fill="none" stroke="#bfbfbf" points="1063.26,-369.5 1128.26,-369.5 "/>
<text text-anchor="middle" x="1095.76" y="-356.5" font-family="Helvetica,sans-Serif" font-size="10.00"> </text>
</g>
<!-- Node10&#45;&gt;Node1 -->
<g id="edge26" class="edge"><title>Node10&#45;&gt;Node1</title>
<path fill="none" stroke="#404040" d="M1084.27,-348.464C1076.67,-331.168 1065.22,-310.382 1049.76,-296 1024.72,-272.701 1011.98,-275.497 979.763,-264 825.104,-208.808 638.471,-164.63 530.914,-141.25"/>
<polygon fill="none" stroke="#404040" points="530.887,-141.244 524.177,-143.886 519.157,-138.709 525.867,-136.067 530.887,-141.244"/>
<text text-anchor="middle" x="1047.26" y="-268.5" font-family="Helvetica,sans-Serif" font-size="10.00"> +cuts_unit</text>
</g>
<!-- Node11&#45;&gt;Node1 -->
<g id="edge30" class="edge"><title>Node11&#45;&gt;Node1</title>
<path fill="none" stroke="#404040" d="M603.812,-328.918C581.626,-300.551 553.165,-264.16 526.356,-229.882"/>
<polygon fill="none" stroke="#404040" points="526.238,-229.73 519.39,-227.468 518.845,-220.278 525.692,-222.54 526.238,-229.73"/>
<text text-anchor="middle" x="572.263" y="-268.5" font-family="Helvetica,sans-Serif" font-size="10.00"> +rfp</text>
</g>
<!-- Node12&#45;&gt;Node11 -->
<g id="edge34" class="edge"><title>Node12&#45;&gt;Node11</title>
<path fill="none" stroke="#404040" d="M963.094,-658.178C949.777,-645.283 933.888,-630.513 918.763,-618 908.214,-609.272 901.148,-611.53 893.763,-600 864.947,-555.006 903.964,-523.864 870.763,-482 829.792,-430.338 756.998,-404.022 704.883,-391.193"/>
<polygon fill="none" stroke="#404040" points="704.79,-391.171 698.036,-393.698 693.106,-388.435 699.86,-385.908 704.79,-391.171"/>
<text text-anchor="middle" x="922.763" y="-577.5" font-family="Helvetica,sans-Serif" font-size="10.00"> +harmonic</text>
<text text-anchor="middle" x="922.763" y="-564.5" font-family="Helvetica,sans-Serif" font-size="10.00">+phi_offset</text>
<text text-anchor="middle" x="922.763" y="-551.5" font-family="Helvetica,sans-Serif" font-size="10.00">+voltage</text>
<text text-anchor="middle" x="922.763" y="-538.5" font-family="Helvetica,sans-Serif" font-size="10.00">+omega_rf</text>
<text text-anchor="middle" x="922.763" y="-525.5" font-family="Helvetica,sans-Serif" font-size="10.00">+phi_noise</text>
<text text-anchor="middle" x="922.763" y="-512.5" font-family="Helvetica,sans-Serif" font-size="10.00">+phi_rf</text>
<text text-anchor="middle" x="922.763" y="-499.5" font-family="Helvetica,sans-Serif" font-size="10.00">+omega_rf_d</text>
</g>
<!-- Node13&#45;&gt;Node1 -->
<g id="edge48" class="edge"><title>Node13&#45;&gt;Node1</title>
<path fill="none" stroke="#404040" d="M1112.77,-658.246C1078.65,-615.824 1014.52,-539.353 951.763,-482 815.412,-357.396 634.41,-239.245 529.046,-174.409"/>
<polygon fill="none" stroke="#404040" points="529.006,-174.385 521.8,-174.658 518.776,-168.111 525.982,-167.838 529.006,-174.385"/>
<text text-anchor="middle" x="971.763" y="-377.5" font-family="Helvetica,sans-Serif" font-size="10.00"> +fBeamSpectrum</text>
</g>
<!-- Node14 -->
<g id="node38" class="node"><title>Node14</title>
<a xlink:title="STL class.">
<polygon fill="white" stroke="#bfbfbf" points="1106.26,-812.5 1106.26,-875.5 1179.26,-875.5 1179.26,-812.5 1106.26,-812.5"/>
<text text-anchor="middle" x="1142.76" y="-862.5" font-family="Helvetica,sans-Serif" font-size="10.00">std::complex</text>
<polyline fill="none" stroke="#bfbfbf" points="1106.26,-854.5 1179.26,-854.5 "/>
<text text-anchor="middle" x="1142.76" y="-841.5" font-family="Helvetica,sans-Serif" font-size="10.00"> </text>
<polyline fill="none" stroke="#bfbfbf" points="1106.26,-833.5 1179.26,-833.5 "/>
<text text-anchor="middle" x="1142.76" y="-820.5" font-family="Helvetica,sans-Serif" font-size="10.00"> </text>
</a>
</g>
<!-- Node14&#45;&gt;Node13 -->
<g id="edge50" class="edge"><title>Node14&#45;&gt;Node13</title>
<path fill="none" stroke="#404040" d="M1141.74,-812.464C1141,-789.805 1140,-758.963 1139.19,-733.899"/>
<polygon fill="none" stroke="#404040" points="1139.18,-733.752 1134.99,-727.885 1138.79,-721.758 1142.99,-727.625 1139.18,-733.752"/>
<text text-anchor="middle" x="1165.26" y="-784.5" font-family="Helvetica,sans-Serif" font-size="10.00"> +elements</text>
</g>
<!-- Node15 -->
<g id="node41" class="node"><title>Node15</title>
<polygon fill="white" stroke="#bfbfbf" points="1148.26,-348.5 1148.26,-411.5 1181.26,-411.5 1181.26,-348.5 1148.26,-348.5"/>
<text text-anchor="middle" x="1164.76" y="-398.5" font-family="Helvetica,sans-Serif" font-size="10.00">fit_t</text>
<polyline fill="none" stroke="#bfbfbf" points="1148.26,-390.5 1181.26,-390.5 "/>
<text text-anchor="middle" x="1164.76" y="-377.5" font-family="Helvetica,sans-Serif" font-size="10.00"> </text>
<polyline fill="none" stroke="#bfbfbf" points="1148.26,-369.5 1181.26,-369.5 "/>
<text text-anchor="middle" x="1164.76" y="-356.5" font-family="Helvetica,sans-Serif" font-size="10.00"> </text>
</g>
<!-- Node15&#45;&gt;Node1 -->
<g id="edge54" class="edge"><title>Node15&#45;&gt;Node1</title>
<path fill="none" stroke="#404040" d="M1160.14,-348.431C1156.29,-331.335 1149.31,-310.755 1136.76,-296 1116.93,-272.677 1104.51,-274.531 1075.76,-264 887.765,-195.131 655.51,-153.904 531.198,-135.148"/>
<polygon fill="none" stroke="#404040" points="531.012,-135.12 524.487,-138.191 519.144,-133.349 525.669,-130.278 531.012,-135.12"/>
<text text-anchor="middle" x="1139.26" y="-268.5" font-family="Helvetica,sans-Serif" font-size="10.00"> +fit_option</text>
</g>
</g>
</svg>
