<?xml version="1.0" encoding="UTF-8" standalone="no"?>
<!DOCTYPE svg PUBLIC "-//W3C//DTD SVG 1.1//EN"
 "http://www.w3.org/Graphics/SVG/1.1/DTD/svg11.dtd">
<!-- Generated by graphviz version 2.26.3 (20100126.1600)
 -->
<!-- Title: util::print_time_elapsed Pages: 1 -->
<svg width="366pt" height="70pt"
 viewBox="0.00 0.00 366.00 70.00" xmlns="http://www.w3.org/2000/svg" xmlns:xlink="http://www.w3.org/1999/xlink">
<g id="graph1" class="graph" transform="scale(1 1) rotate(0) translate(4 66)">
<title>util::print_time_elapsed</title>
<polygon fill="white" stroke="white" points="-4,5 -4,-66 363,-66 363,5 -4,5"/>
<!-- Node1 -->
<g id="node1" class="node"><title>Node1</title>
<polygon fill="#bfbfbf" stroke="black" points="0.5,-20.5 0.5,-41.5 117.5,-41.5 117.5,-20.5 0.5,-20.5"/>
<text text-anchor="middle" x="59" y="-28.5" font-family="Helvetica,sans-Serif" font-size="10.00">util::print_time_elapsed</text>
</g>
<!-- Node2 -->
<g id="node3" class="node"><title>Node2</title>
<a xlink:href="../../d6/d72/namespaceutil.html#a7ab3cb9080ebe19b6755a564b316473e" target="_top" xlink:title="util::time_elapsed">
<polygon fill="white" stroke="black" points="154.5,-20.5 154.5,-41.5 247.5,-41.5 247.5,-20.5 154.5,-20.5"/>
<text text-anchor="middle" x="201" y="-28.5" font-family="Helvetica,sans-Serif" font-size="10.00">util::time_elapsed</text>
</a>
</g>
<!-- Node1&#45;&gt;Node2 -->
<g id="edge2" class="edge"><title>Node1&#45;&gt;Node2</title>
<path fill="none" stroke="midnightblue" d="M117.577,-31C126.362,-31 135.41,-31 144.159,-31"/>
<polygon fill="midnightblue" stroke="midnightblue" points="144.258,-34.5001 154.258,-31 144.258,-27.5001 144.258,-34.5001"/>
</g>
<!-- Node3 -->
<g id="node5" class="node"><title>Node3</title>
<a xlink:href="../../d6/d72/namespaceutil.html#afeae4d3075fe9a2e1efbc83e92b44534" target="_top" xlink:title="util::get_time">
<polygon fill="white" stroke="black" points="284.5,-40.5 284.5,-61.5 357.5,-61.5 357.5,-40.5 284.5,-40.5"/>
<text text-anchor="middle" x="321" y="-48.5" font-family="Helvetica,sans-Serif" font-size="10.00">util::get_time</text>
</a>
</g>
<!-- Node2&#45;&gt;Node3 -->
<g id="edge4" class="edge"><title>Node2&#45;&gt;Node3</title>
<path fill="none" stroke="midnightblue" d="M247.739,-38.7898C256.442,-40.2403 265.537,-41.7562 274.241,-43.2068"/>
<polygon fill="midnightblue" stroke="midnightblue" points="273.792,-46.6802 284.232,-44.8719 274.943,-39.7755 273.792,-46.6802"/>
</g>
<!-- Node4 -->
<g id="node7" class="node"><title>Node4</title>
<a xlink:href="../../d6/d72/namespaceutil.html#a300c175d0eb8013d3a9e9f316d447b64" target="_top" xlink:title="util::time_diff">
<polygon fill="white" stroke="black" points="284.5,-0.5 284.5,-21.5 357.5,-21.5 357.5,-0.5 284.5,-0.5"/>
<text text-anchor="middle" x="321" y="-8.5" font-family="Helvetica,sans-Serif" font-size="10.00">util::time_diff</text>
</a>
</g>
<!-- Node2&#45;&gt;Node4 -->
<g id="edge6" class="edge"><title>Node2&#45;&gt;Node4</title>
<path fill="none" stroke="midnightblue" d="M247.739,-23.2102C256.442,-21.7597 265.537,-20.2438 274.241,-18.7932"/>
<polygon fill="midnightblue" stroke="midnightblue" points="274.943,-22.2245 284.232,-17.1281 273.792,-15.3198 274.943,-22.2245"/>
</g>
</g>
</svg>
