<?xml version="1.0" encoding="UTF-8" standalone="no"?>
<!DOCTYPE svg PUBLIC "-//W3C//DTD SVG 1.1//EN"
 "http://www.w3.org/Graphics/SVG/1.1/DTD/svg11.dtd">
<!-- Generated by graphviz version 2.26.3 (20100126.1600)
 -->
<!-- Title: python::convert_double Pages: 1 -->
<svg width="600pt" height="122pt"
 viewBox="0.00 0.00 600.00 122.00" xmlns="http://www.w3.org/2000/svg" xmlns:xlink="http://www.w3.org/1999/xlink">
<g id="graph1" class="graph" transform="scale(1 1) rotate(0) translate(4 118)">
<title>python::convert_double</title>
<polygon fill="white" stroke="white" points="-4,5 -4,-118 597,-118 597,5 -4,5"/>
<!-- Node1 -->
<g id="node1" class="node"><title>Node1</title>
<polygon fill="#bfbfbf" stroke="black" points="0,-40.5 0,-61.5 118,-61.5 118,-40.5 0,-40.5"/>
<text text-anchor="middle" x="59" y="-48.5" font-family="Helvetica,sans-Serif" font-size="10.00">python::convert_double</text>
</g>
<!-- Node2 -->
<g id="node3" class="node"><title>Node2</title>
<a xlink:href="../../dc/d45/classSlices.html#a39a24f6986bcf7f9c99cea7cacd72310" target="_top" xlink:title="Slices::beam_profile\l_filter_chebyshev">
<polygon fill="white" stroke="black" points="161.5,-80 161.5,-114 266.5,-114 266.5,-80 161.5,-80"/>
<text text-anchor="start" x="169.5" y="-101" font-family="Helvetica,sans-Serif" font-size="10.00">Slices::beam_profile</text>
<text text-anchor="middle" x="214" y="-88" font-family="Helvetica,sans-Serif" font-size="10.00">_filter_chebyshev</text>
</a>
</g>
<!-- Node1&#45;&gt;Node2 -->
<g id="edge2" class="edge"><title>Node1&#45;&gt;Node2</title>
<path fill="none" stroke="midnightblue" d="M104.169,-64.405C122.038,-69.7081 142.701,-75.8404 161.251,-81.3455"/>
<polygon fill="midnightblue" stroke="midnightblue" points="105.143,-61.0431 94.5601,-61.5533 103.151,-67.7539 105.143,-61.0431"/>
</g>
<!-- Node3 -->
<g id="node5" class="node"><title>Node3</title>
<a xlink:href="../../dc/d45/classSlices.html#abe64ffb4100f12aad3f2e97520a5ce4e" target="_top" xlink:title="Slices::gradient">
<polygon fill="white" stroke="black" points="172,-40.5 172,-61.5 256,-61.5 256,-40.5 172,-40.5"/>
<text text-anchor="middle" x="214" y="-48.5" font-family="Helvetica,sans-Serif" font-size="10.00">Slices::gradient</text>
</a>
</g>
<!-- Node1&#45;&gt;Node3 -->
<g id="edge4" class="edge"><title>Node1&#45;&gt;Node3</title>
<path fill="none" stroke="midnightblue" d="M128.268,-51C143.174,-51 158.491,-51 171.98,-51"/>
<polygon fill="midnightblue" stroke="midnightblue" points="128.041,-47.5001 118.041,-51 128.041,-54.5001 128.041,-47.5001"/>
</g>
<!-- Node6 -->
<g id="node11" class="node"><title>Node6</title>
<a xlink:href="../../d8/d94/plot__beams_8h.html#a60f0c5f4e19f811bd8cea940c70007b6" target="_top" xlink:title="plot_long_phase_space">
<polygon fill="white" stroke="black" points="154.5,-0.5 154.5,-21.5 273.5,-21.5 273.5,-0.5 154.5,-0.5"/>
<text text-anchor="middle" x="214" y="-8.5" font-family="Helvetica,sans-Serif" font-size="10.00">plot_long_phase_space</text>
</a>
</g>
<!-- Node1&#45;&gt;Node6 -->
<g id="edge10" class="edge"><title>Node1&#45;&gt;Node6</title>
<path fill="none" stroke="midnightblue" d="M109.592,-37.9439C130.232,-32.6177 153.778,-26.5413 173.279,-21.5087"/>
<polygon fill="midnightblue" stroke="midnightblue" points="108.533,-34.6026 99.7244,-40.4905 110.282,-41.3806 108.533,-34.6026"/>
</g>
<!-- Node4 -->
<g id="node7" class="node"><title>Node4</title>
<a xlink:href="../../dc/d45/classSlices.html#ada42a57f8bea7bb582076bfb6f9f1812" target="_top" xlink:title="Slices::beam_profile\l_derivative">
<polygon fill="white" stroke="black" points="310.5,-34 310.5,-68 415.5,-68 415.5,-34 310.5,-34"/>
<text text-anchor="start" x="318.5" y="-55" font-family="Helvetica,sans-Serif" font-size="10.00">Slices::beam_profile</text>
<text text-anchor="middle" x="363" y="-42" font-family="Helvetica,sans-Serif" font-size="10.00">_derivative</text>
</a>
</g>
<!-- Node3&#45;&gt;Node4 -->
<g id="edge6" class="edge"><title>Node3&#45;&gt;Node4</title>
<path fill="none" stroke="midnightblue" d="M266.405,-51C280.615,-51 296.005,-51 310.236,-51"/>
<polygon fill="midnightblue" stroke="midnightblue" points="266.299,-47.5001 256.299,-51 266.299,-54.5001 266.299,-47.5001"/>
</g>
<!-- Node5 -->
<g id="node9" class="node"><title>Node5</title>
<a xlink:href="../../d2/d51/plot__slices_8h.html#ad931c13f8d5ee8947ed320ac51b3a2b3" target="_top" xlink:title="plot_beam_profile_derivative">
<polygon fill="white" stroke="black" points="452,-40.5 452,-61.5 592,-61.5 592,-40.5 452,-40.5"/>
<text text-anchor="middle" x="522" y="-48.5" font-family="Helvetica,sans-Serif" font-size="10.00">plot_beam_profile_derivative</text>
</a>
</g>
<!-- Node4&#45;&gt;Node5 -->
<g id="edge8" class="edge"><title>Node4&#45;&gt;Node5</title>
<path fill="none" stroke="midnightblue" d="M425.531,-51C434.207,-51 443.165,-51 451.967,-51"/>
<polygon fill="midnightblue" stroke="midnightblue" points="425.503,-47.5001 415.503,-51 425.503,-54.5001 425.503,-47.5001"/>
</g>
</g>
</svg>
