<?xml version="1.0" encoding="UTF-8" standalone="no"?>
<!DOCTYPE svg PUBLIC "-//W3C//DTD SVG 1.1//EN"
 "http://www.w3.org/Graphics/SVG/1.1/DTD/svg11.dtd">
<!-- Generated by graphviz version 2.26.3 (20100126.1600)
 -->
<!-- Title: python::convert_double_array Pages: 1 -->
<svg width="484pt" height="1106pt"
 viewBox="0.00 0.00 484.00 1106.00" xmlns="http://www.w3.org/2000/svg" xmlns:xlink="http://www.w3.org/1999/xlink">
<g id="graph1" class="graph" transform="scale(1 1) rotate(0) translate(4 1102)">
<title>python::convert_double_array</title>
<polygon fill="white" stroke="white" points="-4,5 -4,-1102 481,-1102 481,5 -4,5"/>
<!-- Node1 -->
<g id="node1" class="node"><title>Node1</title>
<polygon fill="#bfbfbf" stroke="black" points="0,-514 0,-548 118,-548 118,-514 0,-514"/>
<text text-anchor="start" x="8" y="-535" font-family="Helvetica,sans-Serif" font-size="10.00">python::convert_double</text>
<text text-anchor="middle" x="59" y="-522" font-family="Helvetica,sans-Serif" font-size="10.00">_array</text>
</g>
<!-- Node2 -->
<g id="node3" class="node"><title>Node2</title>
<a xlink:href="../../dc/d45/classSlices.html#a39a24f6986bcf7f9c99cea7cacd72310" target="_top" xlink:title="Slices::beam_profile\l_filter_chebyshev">
<polygon fill="white" stroke="black" points="176.5,-1064 176.5,-1098 281.5,-1098 281.5,-1064 176.5,-1064"/>
<text text-anchor="start" x="184.5" y="-1085" font-family="Helvetica,sans-Serif" font-size="10.00">Slices::beam_profile</text>
<text text-anchor="middle" x="229" y="-1072" font-family="Helvetica,sans-Serif" font-size="10.00">_filter_chebyshev</text>
</a>
</g>
<!-- Node1&#45;&gt;Node2 -->
<g id="edge2" class="edge"><title>Node1&#45;&gt;Node2</title>
<path fill="none" stroke="midnightblue" d="M60.3895,-558.298C65.831,-654.887 88.7077,-978.763 154,-1055 159.916,-1061.91 167.767,-1066.98 176.162,-1070.71"/>
<polygon fill="midnightblue" stroke="midnightblue" points="63.8766,-557.964 59.8366,-548.17 56.887,-558.346 63.8766,-557.964"/>
</g>
<!-- Node3 -->
<g id="node5" class="node"><title>Node3</title>
<a xlink:href="../../dc/d45/classSlices.html#ab1443b2ebec9ed465a8301be8e1c747f" target="_top" xlink:title="Slices::gaussian_filter1d">
<polygon fill="white" stroke="black" points="167.5,-1024.5 167.5,-1045.5 290.5,-1045.5 290.5,-1024.5 167.5,-1024.5"/>
<text text-anchor="middle" x="229" y="-1032.5" font-family="Helvetica,sans-Serif" font-size="10.00">Slices::gaussian_filter1d</text>
</a>
</g>
<!-- Node1&#45;&gt;Node3 -->
<g id="edge4" class="edge"><title>Node1&#45;&gt;Node3</title>
<path fill="none" stroke="midnightblue" d="M60.6491,-558.461C66.7405,-650.733 90.9745,-947.618 154,-1015 157.866,-1019.13 162.483,-1022.45 167.499,-1025.1"/>
<polygon fill="midnightblue" stroke="midnightblue" points="64.1273,-558.008 59.9948,-548.252 57.1416,-558.455 64.1273,-558.008"/>
</g>
<!-- Node4 -->
<g id="node7" class="node"><title>Node4</title>
<a xlink:href="../../dc/d45/classSlices.html#a31398a7ae3bf058bf358e38e61eb50c9" target="_top" xlink:title="Slices::gaussian_fit">
<polygon fill="white" stroke="black" points="178,-984.5 178,-1005.5 280,-1005.5 280,-984.5 178,-984.5"/>
<text text-anchor="middle" x="229" y="-992.5" font-family="Helvetica,sans-Serif" font-size="10.00">Slices::gaussian_fit</text>
</a>
</g>
<!-- Node1&#45;&gt;Node4 -->
<g id="edge6" class="edge"><title>Node1&#45;&gt;Node4</title>
<path fill="none" stroke="midnightblue" d="M61.1528,-558.175C68.5758,-645.054 95.9021,-913.933 154,-975 160.409,-981.737 168.812,-986.295 177.668,-989.359"/>
<polygon fill="midnightblue" stroke="midnightblue" points="64.628,-557.731 60.3087,-548.057 57.6523,-558.313 64.628,-557.731"/>
</g>
<!-- Node5 -->
<g id="node9" class="node"><title>Node5</title>
<a xlink:href="../../dc/d45/classSlices.html#abe64ffb4100f12aad3f2e97520a5ce4e" target="_top" xlink:title="Slices::gradient">
<polygon fill="white" stroke="black" points="187,-944.5 187,-965.5 271,-965.5 271,-944.5 187,-944.5"/>
<text text-anchor="middle" x="229" y="-952.5" font-family="Helvetica,sans-Serif" font-size="10.00">Slices::gradient</text>
</a>
</g>
<!-- Node1&#45;&gt;Node5 -->
<g id="edge8" class="edge"><title>Node1&#45;&gt;Node5</title>
<path fill="none" stroke="midnightblue" d="M61.8021,-558.418C70.7044,-640.23 100.926,-880.328 154,-935 162.636,-943.896 174.751,-948.98 186.729,-951.845"/>
<polygon fill="midnightblue" stroke="midnightblue" points="65.2731,-557.959 60.7318,-548.386 58.3126,-558.701 65.2731,-557.959"/>
</g>
<!-- Node6 -->
<g id="node11" class="node"><title>Node6</title>
<a xlink:href="../../d2/d51/plot__slices_8h.html#a880d8f74eddb227b7ce8bd03a684f57e" target="_top" xlink:title="plot_beam_profile">
<polygon fill="white" stroke="black" points="182.5,-904.5 182.5,-925.5 275.5,-925.5 275.5,-904.5 182.5,-904.5"/>
<text text-anchor="middle" x="229" y="-912.5" font-family="Helvetica,sans-Serif" font-size="10.00">plot_beam_profile</text>
</a>
</g>
<!-- Node1&#45;&gt;Node6 -->
<g id="edge10" class="edge"><title>Node1&#45;&gt;Node6</title>
<path fill="none" stroke="midnightblue" d="M62.6034,-558.701C73.0908,-635.158 105.929,-846.673 154,-895 161.603,-902.643 171.778,-907.463 182.176,-910.477"/>
<polygon fill="midnightblue" stroke="midnightblue" points="66.0243,-557.878 61.2192,-548.436 59.0871,-558.814 66.0243,-557.878"/>
</g>
<!-- Node7 -->
<g id="node13" class="node"><title>Node7</title>
<a xlink:href="../../d2/d51/plot__slices_8h.html#a97786bacfe2a198ca748d497ecd0c3c8" target="_top" xlink:title="plot_beam_spectrum">
<polygon fill="white" stroke="black" points="175.5,-864.5 175.5,-885.5 282.5,-885.5 282.5,-864.5 175.5,-864.5"/>
<text text-anchor="middle" x="229" y="-872.5" font-family="Helvetica,sans-Serif" font-size="10.00">plot_beam_spectrum</text>
</a>
</g>
<!-- Node1&#45;&gt;Node7 -->
<g id="edge12" class="edge"><title>Node1&#45;&gt;Node7</title>
<path fill="none" stroke="midnightblue" d="M63.5142,-558.446C75.6113,-628.767 110.789,-812.84 154,-855 159.98,-860.835 167.463,-865.016 175.369,-868.003"/>
<polygon fill="midnightblue" stroke="midnightblue" points="66.8953,-557.45 61.7731,-548.175 59.9938,-558.62 66.8953,-557.45"/>
</g>
<!-- Node8 -->
<g id="node15" class="node"><title>Node8</title>
<a xlink:href="../../d8/d94/plot__beams_8h.html#ad94cdaedd5dbe47dd60c3c54213cfd30" target="_top" xlink:title="plot_bunch_length_evol">
<polygon fill="white" stroke="black" points="169.5,-824.5 169.5,-845.5 288.5,-845.5 288.5,-824.5 169.5,-824.5"/>
<text text-anchor="middle" x="229" y="-832.5" font-family="Helvetica,sans-Serif" font-size="10.00">plot_bunch_length_evol</text>
</a>
</g>
<!-- Node1&#45;&gt;Node8 -->
<g id="edge14" class="edge"><title>Node1&#45;&gt;Node8</title>
<path fill="none" stroke="midnightblue" d="M64.7284,-558.496C78.5982,-622.547 115.676,-778.989 154,-815 158.419,-819.153 163.602,-822.463 169.144,-825.1"/>
<polygon fill="midnightblue" stroke="midnightblue" points="68.0723,-557.396 62.5585,-548.348 61.227,-558.859 68.0723,-557.396"/>
</g>
<!-- Node9 -->
<g id="node17" class="node"><title>Node9</title>
<a xlink:href="../../d8/d94/plot__beams_8h.html#a0db7edddd522f6703fbdf92e5a512ef5" target="_top" xlink:title="plot_bunch_length_evol\l_gaussian">
<polygon fill="white" stroke="black" points="169.5,-772 169.5,-806 288.5,-806 288.5,-772 169.5,-772"/>
<text text-anchor="start" x="177.5" y="-793" font-family="Helvetica,sans-Serif" font-size="10.00">plot_bunch_length_evol</text>
<text text-anchor="middle" x="229" y="-780" font-family="Helvetica,sans-Serif" font-size="10.00">_gaussian</text>
</a>
</g>
<!-- Node1&#45;&gt;Node9 -->
<g id="edge16" class="edge"><title>Node1&#45;&gt;Node9</title>
<path fill="none" stroke="midnightblue" d="M62.755,-558.236C70.7864,-606.256 94.0499,-706.257 154,-763 158.504,-767.263 163.742,-770.831 169.317,-773.816"/>
<polygon fill="midnightblue" stroke="midnightblue" points="66.1992,-557.606 61.1849,-548.273 59.2845,-558.696 66.1992,-557.606"/>
</g>
<!-- Node10 -->
<g id="node19" class="node"><title>Node10</title>
<a xlink:href="../../d3/dda/plot__llrf_8h.html#af5a02a39bc6683e75fbb078ba25f91cd" target="_top" xlink:title="plot_COM_motion">
<polygon fill="white" stroke="black" points="181.5,-732.5 181.5,-753.5 276.5,-753.5 276.5,-732.5 181.5,-732.5"/>
<text text-anchor="middle" x="229" y="-740.5" font-family="Helvetica,sans-Serif" font-size="10.00">plot_COM_motion</text>
</a>
</g>
<!-- Node1&#45;&gt;Node10 -->
<g id="edge18" class="edge"><title>Node1&#45;&gt;Node10</title>
<path fill="none" stroke="midnightblue" d="M64.7657,-557.792C75.1615,-599.506 101.073,-679.675 154,-723 161.821,-729.402 171.496,-733.769 181.269,-736.745"/>
<polygon fill="midnightblue" stroke="midnightblue" points="68.1701,-556.979 62.45,-548.061 61.3603,-558.6 68.1701,-556.979"/>
</g>
<!-- Node11 -->
<g id="node21" class="node"><title>Node11</title>
<a xlink:href="../../d8/d94/plot__beams_8h.html#a4c91d74ff98dda69ada829279371d511" target="_top" xlink:title="plot_energy_evol">
<polygon fill="white" stroke="black" points="184,-692.5 184,-713.5 274,-713.5 274,-692.5 184,-692.5"/>
<text text-anchor="middle" x="229" y="-700.5" font-family="Helvetica,sans-Serif" font-size="10.00">plot_energy_evol</text>
</a>
</g>
<!-- Node1&#45;&gt;Node11 -->
<g id="edge20" class="edge"><title>Node1&#45;&gt;Node11</title>
<path fill="none" stroke="midnightblue" d="M68.4176,-557.448C81.9717,-591.658 110.265,-650.681 154,-683 162.67,-689.407 173.246,-693.763 183.689,-696.724"/>
<polygon fill="midnightblue" stroke="midnightblue" points="71.6794,-556.179 64.834,-548.092 65.1425,-558.682 71.6794,-556.179"/>
</g>
<!-- Node12 -->
<g id="node23" class="node"><title>Node12</title>
<a xlink:href="../../dc/d7d/Distributions_8h.html#acbf747cb2f921b5b334987f33a027741" target="_top" xlink:title="plot_generated_bunch">
<polygon fill="white" stroke="black" points="173,-652.5 173,-673.5 285,-673.5 285,-652.5 173,-652.5"/>
<text text-anchor="middle" x="229" y="-660.5" font-family="Helvetica,sans-Serif" font-size="10.00">plot_generated_bunch</text>
</a>
</g>
<!-- Node1&#45;&gt;Node12 -->
<g id="edge22" class="edge"><title>Node1&#45;&gt;Node12</title>
<path fill="none" stroke="midnightblue" d="M74.2001,-556.751C90.6708,-582.408 119.303,-621.054 154,-643 160.036,-646.818 166.788,-649.912 173.699,-652.419"/>
<polygon fill="midnightblue" stroke="midnightblue" points="77.1626,-554.887 68.8914,-548.266 71.2284,-558.6 77.1626,-554.887"/>
</g>
<!-- Node14 -->
<g id="node27" class="node"><title>Node14</title>
<a xlink:href="../../da/d77/plot__impedance_8h.html#a2c91da10e1b692849d85e285874f90b3" target="_top" xlink:title="plot_impedance_vs_frequency">
<polygon fill="white" stroke="black" points="154.5,-612.5 154.5,-633.5 303.5,-633.5 303.5,-612.5 154.5,-612.5"/>
<text text-anchor="middle" x="229" y="-620.5" font-family="Helvetica,sans-Serif" font-size="10.00">plot_impedance_vs_frequency</text>
</a>
</g>
<!-- Node1&#45;&gt;Node14 -->
<g id="edge26" class="edge"><title>Node1&#45;&gt;Node14</title>
<path fill="none" stroke="midnightblue" d="M84.9799,-555.134C103.105,-570.802 128.524,-590.55 154,-603 161.628,-606.728 170.043,-609.832 178.397,-612.394"/>
<polygon fill="midnightblue" stroke="midnightblue" points="87.0059,-552.254 77.1913,-548.264 82.3751,-557.504 87.0059,-552.254"/>
</g>
<!-- Node15 -->
<g id="node29" class="node"><title>Node15</title>
<a xlink:href="../../da/d77/plot__impedance_8h.html#af6f3f2783431ef676828a728fdd28490" target="_top" xlink:title="plot_induced_voltage\l_vs_bin_centers">
<polygon fill="white" stroke="black" points="175,-560 175,-594 283,-594 283,-560 175,-560"/>
<text text-anchor="start" x="183" y="-581" font-family="Helvetica,sans-Serif" font-size="10.00">plot_induced_voltage</text>
<text text-anchor="middle" x="229" y="-568" font-family="Helvetica,sans-Serif" font-size="10.00">_vs_bin_centers</text>
</a>
</g>
<!-- Node1&#45;&gt;Node15 -->
<g id="edge28" class="edge"><title>Node1&#45;&gt;Node15</title>
<path fill="none" stroke="midnightblue" d="M128.515,-549.81C144.01,-554.003 160.216,-558.388 174.977,-562.382"/>
<polygon fill="midnightblue" stroke="midnightblue" points="129.025,-546.322 118.458,-547.089 127.196,-553.079 129.025,-546.322"/>
</g>
<!-- Node16 -->
<g id="node31" class="node"><title>Node16</title>
<a xlink:href="../../d3/dda/plot__llrf_8h.html#acd7e44035fa3120550b2e4043a09de31" target="_top" xlink:title="plot_LHCNoiseFB">
<polygon fill="white" stroke="black" points="181,-520.5 181,-541.5 277,-541.5 277,-520.5 181,-520.5"/>
<text text-anchor="middle" x="229" y="-528.5" font-family="Helvetica,sans-Serif" font-size="10.00">plot_LHCNoiseFB</text>
</a>
</g>
<!-- Node1&#45;&gt;Node16 -->
<g id="edge30" class="edge"><title>Node1&#45;&gt;Node16</title>
<path fill="none" stroke="midnightblue" d="M128.647,-531C146.168,-531 164.59,-531 180.8,-531"/>
<polygon fill="midnightblue" stroke="midnightblue" points="128.458,-527.5 118.458,-531 128.458,-534.5 128.458,-527.5"/>
</g>
<!-- Node17 -->
<g id="node33" class="node"><title>Node17</title>
<a xlink:href="../../d3/dda/plot__llrf_8h.html#a56ecdfbeea2fc00be9bcca4a3747cdeb" target="_top" xlink:title="plot_LHCNoiseFB_FWHM">
<polygon fill="white" stroke="black" points="162.5,-480.5 162.5,-501.5 295.5,-501.5 295.5,-480.5 162.5,-480.5"/>
<text text-anchor="middle" x="229" y="-488.5" font-family="Helvetica,sans-Serif" font-size="10.00">plot_LHCNoiseFB_FWHM</text>
</a>
</g>
<!-- Node1&#45;&gt;Node17 -->
<g id="edge32" class="edge"><title>Node1&#45;&gt;Node17</title>
<path fill="none" stroke="midnightblue" d="M128.234,-514.71C147.157,-510.257 167.161,-505.55 184.314,-501.514"/>
<polygon fill="midnightblue" stroke="midnightblue" points="127.39,-511.313 118.458,-517.01 128.994,-518.126 127.39,-511.313"/>
</g>
<!-- Node18 -->
<g id="node35" class="node"><title>Node18</title>
<a xlink:href="../../d8/d94/plot__beams_8h.html#a60f0c5f4e19f811bd8cea940c70007b6" target="_top" xlink:title="plot_long_phase_space">
<polygon fill="white" stroke="black" points="169.5,-440.5 169.5,-461.5 288.5,-461.5 288.5,-440.5 169.5,-440.5"/>
<text text-anchor="middle" x="229" y="-448.5" font-family="Helvetica,sans-Serif" font-size="10.00">plot_long_phase_space</text>
</a>
</g>
<!-- Node1&#45;&gt;Node18 -->
<g id="edge34" class="edge"><title>Node1&#45;&gt;Node18</title>
<path fill="none" stroke="midnightblue" d="M90.0493,-508.007C107.99,-495.607 131.419,-480.867 154,-471 162.397,-467.331 171.625,-464.2 180.65,-461.58"/>
<polygon fill="midnightblue" stroke="midnightblue" points="87.8744,-505.258 81.7106,-513.875 91.9029,-510.983 87.8744,-505.258"/>
</g>
<!-- Node19 -->
<g id="node37" class="node"><title>Node19</title>
<a xlink:href="../../d3/dda/plot__llrf_8h.html#a333661d5cf95b6534ac63ab61b415e00" target="_top" xlink:title="plot_noise_spectrum">
<polygon fill="white" stroke="black" points="175.5,-400.5 175.5,-421.5 282.5,-421.5 282.5,-400.5 175.5,-400.5"/>
<text text-anchor="middle" x="229" y="-408.5" font-family="Helvetica,sans-Serif" font-size="10.00">plot_noise_spectrum</text>
</a>
</g>
<!-- Node1&#45;&gt;Node19 -->
<g id="edge36" class="edge"><title>Node1&#45;&gt;Node19</title>
<path fill="none" stroke="midnightblue" d="M76.732,-505.512C93.9271,-482.686 122.049,-449.971 154,-431 160.605,-427.078 167.986,-423.912 175.472,-421.358"/>
<polygon fill="midnightblue" stroke="midnightblue" points="73.7957,-503.597 70.6915,-513.727 79.4353,-507.744 73.7957,-503.597"/>
</g>
<!-- Node20 -->
<g id="node39" class="node"><title>Node20</title>
<a xlink:href="../../d3/dda/plot__llrf_8h.html#a8863c0678df39a4807f02ad6c64e6600" target="_top" xlink:title="plot_phase_noise">
<polygon fill="white" stroke="black" points="183,-360.5 183,-381.5 275,-381.5 275,-360.5 183,-360.5"/>
<text text-anchor="middle" x="229" y="-368.5" font-family="Helvetica,sans-Serif" font-size="10.00">plot_phase_noise</text>
</a>
</g>
<!-- Node1&#45;&gt;Node20 -->
<g id="edge38" class="edge"><title>Node1&#45;&gt;Node20</title>
<path fill="none" stroke="midnightblue" d="M70.038,-504.311C84.5728,-472.499 113.16,-420.008 154,-391 162.46,-384.991 172.615,-380.788 182.682,-377.847"/>
<polygon fill="midnightblue" stroke="midnightblue" points="66.6599,-503.296 65.815,-513.857 73.0615,-506.128 66.6599,-503.296"/>
</g>
<!-- Node21 -->
<g id="node41" class="node"><title>Node21</title>
<a xlink:href="../../d3/dda/plot__llrf_8h.html#a0cf92ca93a86bbdc1bfa9331a83ea320" target="_top" xlink:title="plot_PL_bunch_phase">
<polygon fill="white" stroke="black" points="172.5,-320.5 172.5,-341.5 285.5,-341.5 285.5,-320.5 172.5,-320.5"/>
<text text-anchor="middle" x="229" y="-328.5" font-family="Helvetica,sans-Serif" font-size="10.00">plot_PL_bunch_phase</text>
</a>
</g>
<!-- Node1&#45;&gt;Node21 -->
<g id="edge40" class="edge"><title>Node1&#45;&gt;Node21</title>
<path fill="none" stroke="midnightblue" d="M65.749,-504.164C77.1156,-464.58 103.902,-390.927 154,-351 159.48,-346.633 165.828,-343.214 172.466,-340.54"/>
<polygon fill="midnightblue" stroke="midnightblue" points="62.3454,-503.341 63.0656,-513.911 69.0944,-505.199 62.3454,-503.341"/>
</g>
<!-- Node22 -->
<g id="node43" class="node"><title>Node22</title>
<a xlink:href="../../d3/dda/plot__llrf_8h.html#a458b12e1ab74c68d5bab0b7cebf18c09" target="_top" xlink:title="plot_PL_freq_corr">
<polygon fill="white" stroke="black" points="182.5,-280.5 182.5,-301.5 275.5,-301.5 275.5,-280.5 182.5,-280.5"/>
<text text-anchor="middle" x="229" y="-288.5" font-family="Helvetica,sans-Serif" font-size="10.00">plot_PL_freq_corr</text>
</a>
</g>
<!-- Node1&#45;&gt;Node22 -->
<g id="edge42" class="edge"><title>Node1&#45;&gt;Node22</title>
<path fill="none" stroke="midnightblue" d="M62.9694,-503.74C71.2237,-457.124 94.6775,-362.184 154,-311 161.958,-304.133 172.03,-299.595 182.188,-296.602"/>
<polygon fill="midnightblue" stroke="midnightblue" points="59.4994,-503.27 61.3074,-513.71 66.4041,-504.421 59.4994,-503.27"/>
</g>
<!-- Node23 -->
<g id="node45" class="node"><title>Node23</title>
<a xlink:href="../../d3/dda/plot__llrf_8h.html#a4cb55b3cec0038d53eecda7f25e2f426" target="_top" xlink:title="plot_PL_phase_corr">
<polygon fill="white" stroke="black" points="177.5,-240.5 177.5,-261.5 280.5,-261.5 280.5,-240.5 177.5,-240.5"/>
<text text-anchor="middle" x="229" y="-248.5" font-family="Helvetica,sans-Serif" font-size="10.00">plot_PL_phase_corr</text>
</a>
</g>
<!-- Node1&#45;&gt;Node23 -->
<g id="edge44" class="edge"><title>Node1&#45;&gt;Node23</title>
<path fill="none" stroke="midnightblue" d="M60.8985,-503.808C66.0865,-450.933 85.1406,-333.943 154,-271 160.565,-264.999 168.73,-260.763 177.233,-257.781"/>
<polygon fill="midnightblue" stroke="midnightblue" points="57.4109,-503.514 60.0119,-513.784 64.3835,-504.133 57.4109,-503.514"/>
</g>
<!-- Node24 -->
<g id="node47" class="node"><title>Node24</title>
<a xlink:href="../../d3/dda/plot__llrf_8h.html#a36abfb65cca9b6fff4241fc4ab085efd" target="_top" xlink:title="plot_PL_RF_freq">
<polygon fill="white" stroke="black" points="184,-200.5 184,-221.5 274,-221.5 274,-200.5 184,-200.5"/>
<text text-anchor="middle" x="229" y="-208.5" font-family="Helvetica,sans-Serif" font-size="10.00">plot_PL_RF_freq</text>
</a>
</g>
<!-- Node1&#45;&gt;Node24 -->
<g id="edge46" class="edge"><title>Node1&#45;&gt;Node24</title>
<path fill="none" stroke="midnightblue" d="M64.1521,-503.791C77.2535,-437.361 113.672,-269.511 154,-231 162.089,-223.275 172.817,-218.457 183.622,-215.473"/>
<polygon fill="midnightblue" stroke="midnightblue" points="60.659,-503.418 62.1842,-513.903 67.5301,-504.756 60.659,-503.418"/>
</g>
<!-- Node25 -->
<g id="node49" class="node"><title>Node25</title>
<a xlink:href="../../d3/dda/plot__llrf_8h.html#ab90c89b375ef96ed998a974351f5f3e1" target="_top" xlink:title="plot_PL_RF_phase">
<polygon fill="white" stroke="black" points="179,-160.5 179,-181.5 279,-181.5 279,-160.5 179,-160.5"/>
<text text-anchor="middle" x="229" y="-168.5" font-family="Helvetica,sans-Serif" font-size="10.00">plot_PL_RF_phase</text>
</a>
</g>
<!-- Node1&#45;&gt;Node25 -->
<g id="edge48" class="edge"><title>Node1&#45;&gt;Node25</title>
<path fill="none" stroke="midnightblue" d="M63.0911,-503.675C74.4967,-431.038 108.803,-235.664 154,-191 160.805,-184.275 169.605,-179.742 178.769,-176.702"/>
<polygon fill="midnightblue" stroke="midnightblue" points="59.5864,-503.436 61.5172,-513.854 66.5042,-504.506 59.5864,-503.436"/>
</g>
<!-- Node26 -->
<g id="node51" class="node"><title>Node26</title>
<a xlink:href="../../d8/d94/plot__beams_8h.html#af8562d72b4487b1744e3126cf245ea52" target="_top" xlink:title="plot_position_evol">
<polygon fill="white" stroke="black" points="181.5,-120.5 181.5,-141.5 276.5,-141.5 276.5,-120.5 181.5,-120.5"/>
<text text-anchor="middle" x="229" y="-128.5" font-family="Helvetica,sans-Serif" font-size="10.00">plot_position_evol</text>
</a>
</g>
<!-- Node1&#45;&gt;Node26 -->
<g id="edge50" class="edge"><title>Node1&#45;&gt;Node26</title>
<path fill="none" stroke="midnightblue" d="M62.231,-503.661C72.0355,-425.242 103.879,-201.911 154,-151 161.374,-143.51 171.217,-138.727 181.34,-135.698"/>
<polygon fill="midnightblue" stroke="midnightblue" points="58.7394,-503.38 60.9942,-513.732 65.6872,-504.233 58.7394,-503.38"/>
</g>
<!-- Node27 -->
<g id="node53" class="node"><title>Node27</title>
<a xlink:href="../../d3/dda/plot__llrf_8h.html#af4f563c0864d6e4ba163b1e6ab46b5c8" target="_top" xlink:title="plot_RF_phase_error">
<polygon fill="white" stroke="black" points="175.5,-80.5 175.5,-101.5 282.5,-101.5 282.5,-80.5 175.5,-80.5"/>
<text text-anchor="middle" x="229" y="-88.5" font-family="Helvetica,sans-Serif" font-size="10.00">plot_RF_phase_error</text>
</a>
</g>
<!-- Node1&#45;&gt;Node27 -->
<g id="edge52" class="edge"><title>Node1&#45;&gt;Node27</title>
<path fill="none" stroke="midnightblue" d="M61.5045,-503.908C69.7734,-420.262 98.8693,-168.275 154,-111 159.888,-104.883 167.42,-100.566 175.43,-97.5329"/>
<polygon fill="midnightblue" stroke="midnightblue" points="58.0165,-503.616 60.5368,-513.906 64.984,-504.29 58.0165,-503.616"/>
</g>
<!-- Node28 -->
<g id="node55" class="node"><title>Node28</title>
<a xlink:href="../../d3/dda/plot__llrf_8h.html#a7d64d79aafd6df5c91eccb73505de169" target="_top" xlink:title="plot_RL_radial_error">
<polygon fill="white" stroke="black" points="177,-40.5 177,-61.5 281,-61.5 281,-40.5 177,-40.5"/>
<text text-anchor="middle" x="229" y="-48.5" font-family="Helvetica,sans-Serif" font-size="10.00">plot_RL_radial_error</text>
</a>
</g>
<!-- Node1&#45;&gt;Node28 -->
<g id="edge54" class="edge"><title>Node1&#45;&gt;Node28</title>
<path fill="none" stroke="midnightblue" d="M60.9405,-503.73C67.8202,-414.695 93.9287,-134.593 154,-71 160.2,-64.4365 168.292,-59.9386 176.861,-56.8748"/>
<polygon fill="midnightblue" stroke="midnightblue" points="57.4398,-503.609 60.1789,-513.844 64.42,-504.135 57.4398,-503.609"/>
</g>
<!-- Node29 -->
<g id="node57" class="node"><title>Node29</title>
<a xlink:href="../../d8/d1b/plot__parameters_8h.html#a85d8f3cd2cb068b4acb7e34897d0d622" target="_top" xlink:title="plot_voltage_programme">
<polygon fill="white" stroke="black" points="167.5,-0.5 167.5,-21.5 290.5,-21.5 290.5,-0.5 167.5,-0.5"/>
<text text-anchor="middle" x="229" y="-8.5" font-family="Helvetica,sans-Serif" font-size="10.00">plot_voltage_programme</text>
</a>
</g>
<!-- Node1&#45;&gt;Node29 -->
<g id="edge56" class="edge"><title>Node1&#45;&gt;Node29</title>
<path fill="none" stroke="midnightblue" d="M60.441,-503.875C65.9719,-410.026 88.895,-101.029 154,-31 157.854,-26.8548 162.462,-23.5314 167.473,-20.8718"/>
<polygon fill="midnightblue" stroke="midnightblue" points="56.9398,-503.8 59.8643,-513.983 63.9284,-504.198 56.9398,-503.8"/>
</g>
<!-- Node13 -->
<g id="node25" class="node"><title>Node13</title>
<a xlink:href="../../dc/d7d/Distributions_8h.html#a00d3d5dce2d6cb66bd5b4bcc53abb901" target="_top" xlink:title="matched_from_line_density">
<polygon fill="white" stroke="black" points="340,-652.5 340,-673.5 476,-673.5 476,-652.5 340,-652.5"/>
<text text-anchor="middle" x="408" y="-660.5" font-family="Helvetica,sans-Serif" font-size="10.00">matched_from_line_density</text>
</a>
</g>
<!-- Node12&#45;&gt;Node13 -->
<g id="edge24" class="edge"><title>Node12&#45;&gt;Node13</title>
<path fill="none" stroke="midnightblue" d="M295.497,-663C309.955,-663 325.272,-663 339.794,-663"/>
<polygon fill="midnightblue" stroke="midnightblue" points="295.146,-659.5 285.146,-663 295.146,-666.5 295.146,-659.5"/>
</g>
</g>
</svg>
