<?xml version="1.0" encoding="UTF-8" standalone="no"?>
<!DOCTYPE svg PUBLIC "-//W3C//DTD SVG 1.1//EN"
 "http://www.w3.org/Graphics/SVG/1.1/DTD/svg11.dtd">
<!-- Generated by graphviz version 2.26.3 (20100126.1600)
 -->
<!-- Title: python::convert_dictionary Pages: 1 -->
<svg width="312pt" height="134pt"
 viewBox="0.00 0.00 312.00 134.00" xmlns="http://www.w3.org/2000/svg" xmlns:xlink="http://www.w3.org/1999/xlink">
<g id="graph1" class="graph" transform="scale(1 1) rotate(0) translate(4 130)">
<title>python::convert_dictionary</title>
<polygon fill="white" stroke="white" points="-4,5 -4,-130 309,-130 309,5 -4,5"/>
<!-- Node1 -->
<g id="node1" class="node"><title>Node1</title>
<polygon fill="#bfbfbf" stroke="black" points="0.5,-46.5 0.5,-67.5 131.5,-67.5 131.5,-46.5 0.5,-46.5"/>
<text text-anchor="middle" x="66" y="-54.5" font-family="Helvetica,sans-Serif" font-size="10.00">python::convert_dictionary</text>
</g>
<!-- Node2 -->
<g id="node3" class="node"><title>Node2</title>
<a xlink:href="../../dc/d45/classSlices.html#a39a24f6986bcf7f9c99cea7cacd72310" target="_top" xlink:title="Slices::beam_profile\l_filter_chebyshev">
<polygon fill="white" stroke="black" points="183.5,-92 183.5,-126 288.5,-126 288.5,-92 183.5,-92"/>
<text text-anchor="start" x="191.5" y="-113" font-family="Helvetica,sans-Serif" font-size="10.00">Slices::beam_profile</text>
<text text-anchor="middle" x="236" y="-100" font-family="Helvetica,sans-Serif" font-size="10.00">_filter_chebyshev</text>
</a>
</g>
<!-- Node1&#45;&gt;Node2 -->
<g id="edge2" class="edge"><title>Node1&#45;&gt;Node2</title>
<path fill="none" stroke="midnightblue" d="M109.979,-70.4525C132.356,-77.297 159.721,-85.6675 183.226,-92.8575"/>
<polygon fill="midnightblue" stroke="midnightblue" points="110.988,-67.1012 100.402,-67.523 108.941,-73.795 110.988,-67.1012"/>
</g>
<!-- Node3 -->
<g id="node5" class="node"><title>Node3</title>
<a xlink:href="../../dc/d7d/Distributions_8h.html#a39ba163b714fe197bd81ac64ffa48d30" target="_top" xlink:title="matched_from_distribution\l_density">
<polygon fill="white" stroke="black" points="170.5,-40 170.5,-74 301.5,-74 301.5,-40 170.5,-40"/>
<text text-anchor="start" x="178.5" y="-61" font-family="Helvetica,sans-Serif" font-size="10.00">matched_from_distribution</text>
<text text-anchor="middle" x="236" y="-48" font-family="Helvetica,sans-Serif" font-size="10.00">_density</text>
</a>
</g>
<!-- Node1&#45;&gt;Node3 -->
<g id="edge4" class="edge"><title>Node1&#45;&gt;Node3</title>
<path fill="none" stroke="midnightblue" d="M141.958,-57C151.463,-57 161.121,-57 170.448,-57"/>
<polygon fill="midnightblue" stroke="midnightblue" points="141.726,-53.5001 131.726,-57 141.726,-60.5001 141.726,-53.5001"/>
</g>
<!-- Node4 -->
<g id="node7" class="node"><title>Node4</title>
<a xlink:href="../../dc/d7d/Distributions_8h.html#aa18b9fc400fa994778e7e811423c2f06" target="_top" xlink:title="matched_from_line_density">
<polygon fill="white" stroke="black" points="168,-0.5 168,-21.5 304,-21.5 304,-0.5 168,-0.5"/>
<text text-anchor="middle" x="236" y="-8.5" font-family="Helvetica,sans-Serif" font-size="10.00">matched_from_line_density</text>
</a>
</g>
<!-- Node1&#45;&gt;Node4 -->
<g id="edge6" class="edge"><title>Node1&#45;&gt;Node4</title>
<path fill="none" stroke="midnightblue" d="M114.726,-43.8152C140.893,-36.7349 172.704,-28.1271 197.18,-21.5042"/>
<polygon fill="midnightblue" stroke="midnightblue" points="113.74,-40.4561 105.001,-46.4467 115.569,-47.2131 113.74,-40.4561"/>
</g>
</g>
</svg>
