<?xml version="1.0" encoding="UTF-8" standalone="no"?>
<!DOCTYPE svg PUBLIC "-//W3C//DTD SVG 1.1//EN"
 "http://www.w3.org/Graphics/SVG/1.1/DTD/svg11.dtd">
<!-- Generated by graphviz version 2.26.3 (20100126.1600)
 -->
<!-- Title: python::import Pages: 1 -->
<!--zoomable 372 -->
<svg id="main" version="1.1" xmlns="http://www.w3.org/2000/svg" xmlns:xlink="http://www.w3.org/1999/xlink" xml:space="preserve" onload="init(evt)">
        <defs>
                <circle id="rim" cx="0" cy="0" r="7"/>
                <circle id="rim2" cx="0" cy="0" r="3.5"/>
                <g id="zoomPlus">
                        <use xlink:href="#rim" fill="#404040">
                                <set attributeName="fill" to="#808080" begin="zoomplus.mouseover" end="zoomplus.mouseout"/>
                        </use>
                        <path d="M-4,0h8M0,-4v8" fill="none" stroke="white" stroke-width="1.5" pointer-events="none"/>
                </g>
                <g id="zoomMin">
                        <use xlink:href="#rim" fill="#404040">
                                <set attributeName="fill" to="#808080" begin="zoomminus.mouseover" end="zoomminus.mouseout"/>
                        </use>
                        <path d="M-4,0h8" fill="none" stroke="white" stroke-width="1.5" pointer-events="none"/>
                </g>
                <g id="dirArrow">
                        <path fill="none" stroke="white" stroke-width="1.5" d="M0,-3.0v7 M-2.5,-0.5L0,-3.0L2.5,-0.5"/>
                </g>
               <g id="resetDef">
                       <use xlink:href="#rim2" fill="#404040">
                               <set attributeName="fill" to="#808080" begin="reset.mouseover" end="reset.mouseout"/>
                       </use>
               </g>
        </defs>

<script type="text/javascript">
var viewWidth = 610;
var viewHeight = 372;
var sectionId = 'dynsection-11';
</script>
<script xlink:href="../../svgpan.js"/>
<svg id="graph" class="graph">
<g id="viewport">
<title>python::import</title>
<polygon fill="white" stroke="white" points="-4,5 -4,-368 607,-368 607,5 -4,5"/>
<!-- Node1 -->
<g id="node1" class="node"><title>Node1</title>
<polygon fill="#bfbfbf" stroke="black" points="0.5,-159.5 0.5,-180.5 79.5,-180.5 79.5,-159.5 0.5,-159.5"/>
<text text-anchor="middle" x="40" y="-167.5" font-family="Helvetica,sans-Serif" font-size="10.00">python::import</text>
</g>
<!-- Node2 -->
<g id="node3" class="node"><title>Node2</title>
<a xlink:href="../../dc/d7d/Distributions_8h.html#a775adebc7be25b67916c028a031074be" target="_top" xlink:title="_matched_from_distribution\l_density">
<polygon fill="white" stroke="black" points="116.5,-330 116.5,-364 253.5,-364 253.5,-330 116.5,-330"/>
<text text-anchor="start" x="124.5" y="-351" font-family="Helvetica,sans-Serif" font-size="10.00">_matched_from_distribution</text>
<text text-anchor="middle" x="185" y="-338" font-family="Helvetica,sans-Serif" font-size="10.00">_density</text>
</a>
</g>
<!-- Node1&#45;&gt;Node2 -->
<g id="edge2" class="edge"><title>Node1&#45;&gt;Node2</title>
<path fill="none" stroke="midnightblue" d="M45.217,-190.872C54.2991,-223.101 75.9828,-285.012 116,-321 119.712,-324.338 123.895,-327.263 128.318,-329.823"/>
<polygon fill="midnightblue" stroke="midnightblue" points="48.4879,-189.555 42.5207,-180.801 41.7261,-191.366 48.4879,-189.555"/>
</g>
<!-- Node4 -->
<g id="node7" class="node"><title>Node4</title>
<a xlink:href="../../dc/d7d/Distributions_8h.html#a190d2b58297ff88be6d2ab351eba1207" target="_top" xlink:title="_matched_from_line\l_density">
<polygon fill="white" stroke="black" points="133,-278 133,-312 237,-312 237,-278 133,-278"/>
<text text-anchor="start" x="141" y="-299" font-family="Helvetica,sans-Serif" font-size="10.00">_matched_from_line</text>
<text text-anchor="middle" x="185" y="-286" font-family="Helvetica,sans-Serif" font-size="10.00">_density</text>
</a>
</g>
<!-- Node1&#45;&gt;Node4 -->
<g id="edge6" class="edge"><title>Node1&#45;&gt;Node4</title>
<path fill="none" stroke="midnightblue" d="M50.3755,-189.316C63.1352,-211.403 86.7421,-247.297 116,-269 121.141,-272.813 126.906,-276.129 132.855,-278.996"/>
<polygon fill="midnightblue" stroke="midnightblue" points="53.3821,-187.522 45.4404,-180.509 47.2755,-190.944 53.3821,-187.522"/>
</g>
<!-- Node6 -->
<g id="node11" class="node"><title>Node6</title>
<a xlink:href="../../dc/d45/classSlices.html#ab1443b2ebec9ed465a8301be8e1c747f" target="_top" xlink:title="Slices::gaussian_filter1d">
<polygon fill="white" stroke="black" points="123.5,-238.5 123.5,-259.5 246.5,-259.5 246.5,-238.5 123.5,-238.5"/>
<text text-anchor="middle" x="185" y="-246.5" font-family="Helvetica,sans-Serif" font-size="10.00">Slices::gaussian_filter1d</text>
</a>
</g>
<!-- Node1&#45;&gt;Node6 -->
<g id="edge10" class="edge"><title>Node1&#45;&gt;Node6</title>
<path fill="none" stroke="midnightblue" d="M58.6715,-187.788C73.2643,-200.832 94.5997,-218.099 116,-229 123.335,-232.736 131.474,-235.875 139.515,-238.477"/>
<polygon fill="midnightblue" stroke="midnightblue" points="60.6468,-184.851 50.9091,-180.676 55.9181,-190.012 60.6468,-184.851"/>
</g>
<!-- Node8 -->
<g id="node15" class="node"><title>Node8</title>
<a xlink:href="../../d2/d51/plot__slices_8h.html#a16593c6d713f81f5527a58a8c33f6104" target="_top" xlink:title="plot_beam_profile_derivative">
<polygon fill="white" stroke="black" points="462,-181.5 462,-202.5 602,-202.5 602,-181.5 462,-181.5"/>
<text text-anchor="middle" x="532" y="-189.5" font-family="Helvetica,sans-Serif" font-size="10.00">plot_beam_profile_derivative</text>
</a>
</g>
<!-- Node1&#45;&gt;Node8 -->
<g id="edge22" class="edge"><title>Node1&#45;&gt;Node8</title>
<path fill="none" stroke="midnightblue" d="M89.8426,-172.229C177.865,-176.165 361.041,-184.355 461.805,-188.861"/>
<polygon fill="midnightblue" stroke="midnightblue" points="89.9921,-168.732 79.8457,-171.782 89.6793,-175.725 89.9921,-168.732"/>
</g>
<!-- Node9 -->
<g id="node17" class="node"><title>Node9</title>
<a xlink:href="../../dc/d45/classSlices.html#ac11f46cb378680434a059361c5c5f0fe" target="_top" xlink:title="Slices::gradient">
<polygon fill="white" stroke="black" points="143,-198.5 143,-219.5 227,-219.5 227,-198.5 143,-198.5"/>
<text text-anchor="middle" x="185" y="-206.5" font-family="Helvetica,sans-Serif" font-size="10.00">Slices::gradient</text>
</a>
</g>
<!-- Node1&#45;&gt;Node9 -->
<g id="edge16" class="edge"><title>Node1&#45;&gt;Node9</title>
<path fill="none" stroke="midnightblue" d="M88.9558,-183.167C107.45,-188.142 128.236,-193.733 145.73,-198.438"/>
<polygon fill="midnightblue" stroke="midnightblue" points="89.805,-179.772 79.2391,-180.554 87.9868,-186.531 89.805,-179.772"/>
</g>
<!-- Node10 -->
<g id="node20" class="node"><title>Node10</title>
<a xlink:href="../../d2/d51/plot__slices_8h.html#a0412f1f52fc8c9279224be608d8d3f43" target="_top" xlink:title="plot_beam_profile">
<polygon fill="white" stroke="black" points="138.5,-120.5 138.5,-141.5 231.5,-141.5 231.5,-120.5 138.5,-120.5"/>
<text text-anchor="middle" x="185" y="-128.5" font-family="Helvetica,sans-Serif" font-size="10.00">plot_beam_profile</text>
</a>
</g>
<!-- Node1&#45;&gt;Node10 -->
<g id="edge20" class="edge"><title>Node1&#45;&gt;Node10</title>
<path fill="none" stroke="midnightblue" d="M88.9558,-156.833C107.45,-151.858 128.236,-146.267 145.73,-141.562"/>
<polygon fill="midnightblue" stroke="midnightblue" points="87.9868,-153.469 79.2391,-159.446 89.805,-160.228 87.9868,-153.469"/>
</g>
<!-- Node11 -->
<g id="node23" class="node"><title>Node11</title>
<a xlink:href="../../d2/d51/plot__slices_8h.html#ab17db03931ff95e016a858c2d2e95fd5" target="_top" xlink:title="plot_beam_spectrum">
<polygon fill="white" stroke="black" points="131.5,-80.5 131.5,-101.5 238.5,-101.5 238.5,-80.5 131.5,-80.5"/>
<text text-anchor="middle" x="185" y="-88.5" font-family="Helvetica,sans-Serif" font-size="10.00">plot_beam_spectrum</text>
</a>
</g>
<!-- Node1&#45;&gt;Node11 -->
<g id="edge24" class="edge"><title>Node1&#45;&gt;Node11</title>
<path fill="none" stroke="midnightblue" d="M58.6715,-152.212C73.2643,-139.168 94.5997,-121.901 116,-111 123.335,-107.264 131.474,-104.125 139.515,-101.523"/>
<polygon fill="midnightblue" stroke="midnightblue" points="55.9181,-149.988 50.9091,-159.324 60.6468,-155.149 55.9181,-149.988"/>
</g>
<!-- Node12 -->
<g id="node25" class="node"><title>Node12</title>
<a xlink:href="../../d8/d94/plot__beams_8h.html#ae6215f03e38354ba5f04e99f640cf700" target="_top" xlink:title="plot_long_phase_space">
<polygon fill="white" stroke="black" points="125.5,-40.5 125.5,-61.5 244.5,-61.5 244.5,-40.5 125.5,-40.5"/>
<text text-anchor="middle" x="185" y="-48.5" font-family="Helvetica,sans-Serif" font-size="10.00">plot_long_phase_space</text>
</a>
</g>
<!-- Node1&#45;&gt;Node12 -->
<g id="edge26" class="edge"><title>Node1&#45;&gt;Node12</title>
<path fill="none" stroke="midnightblue" d="M50.0834,-150.273C62.5679,-127.8 85.9158,-91.542 116,-71 121.562,-67.2021 127.848,-64.1166 134.304,-61.6119"/>
<polygon fill="midnightblue" stroke="midnightblue" points="46.9116,-148.782 45.268,-159.249 53.0799,-152.091 46.9116,-148.782"/>
</g>
<!-- Node13 -->
<g id="node27" class="node"><title>Node13</title>
<a xlink:href="../../d8/d1b/plot__parameters_8h.html#a12d0870215c7365ba3c9b175bc7e18c5" target="_top" xlink:title="plot_voltage_programme">
<polygon fill="white" stroke="black" points="123.5,-0.5 123.5,-21.5 246.5,-21.5 246.5,-0.5 123.5,-0.5"/>
<text text-anchor="middle" x="185" y="-8.5" font-family="Helvetica,sans-Serif" font-size="10.00">plot_voltage_programme</text>
</a>
</g>
<!-- Node1&#45;&gt;Node13 -->
<g id="edge28" class="edge"><title>Node1&#45;&gt;Node13</title>
<path fill="none" stroke="midnightblue" d="M45.6424,-149.568C55.093,-119.172 77.0278,-62.2764 116,-31 120.766,-27.1749 126.236,-24.0813 131.965,-21.5795"/>
<polygon fill="midnightblue" stroke="midnightblue" points="42.1934,-148.889 42.717,-159.471 48.9066,-150.873 42.1934,-148.889"/>
</g>
<!-- Node3 -->
<g id="node5" class="node"><title>Node3</title>
<a xlink:href="../../dc/d7d/Distributions_8h.html#a39ba163b714fe197bd81ac64ffa48d30" target="_top" xlink:title="matched_from_distribution\l_density">
<polygon fill="white" stroke="black" points="292.5,-330 292.5,-364 423.5,-364 423.5,-330 292.5,-330"/>
<text text-anchor="start" x="300.5" y="-351" font-family="Helvetica,sans-Serif" font-size="10.00">matched_from_distribution</text>
<text text-anchor="middle" x="358" y="-338" font-family="Helvetica,sans-Serif" font-size="10.00">_density</text>
</a>
</g>
<!-- Node2&#45;&gt;Node3 -->
<g id="edge4" class="edge"><title>Node2&#45;&gt;Node3</title>
<path fill="none" stroke="midnightblue" d="M264.099,-347C273.587,-347 283.195,-347 292.462,-347"/>
<polygon fill="midnightblue" stroke="midnightblue" points="263.871,-343.5 253.871,-347 263.871,-350.5 263.871,-343.5"/>
</g>
<!-- Node5 -->
<g id="node9" class="node"><title>Node5</title>
<a xlink:href="../../dc/d7d/Distributions_8h.html#af8a750601d38e475a922ae843f837cc9" target="_top" xlink:title="matched_from_line_density">
<polygon fill="white" stroke="black" points="290,-284.5 290,-305.5 426,-305.5 426,-284.5 290,-284.5"/>
<text text-anchor="middle" x="358" y="-292.5" font-family="Helvetica,sans-Serif" font-size="10.00">matched_from_line_density</text>
</a>
</g>
<!-- Node4&#45;&gt;Node5 -->
<g id="edge8" class="edge"><title>Node4&#45;&gt;Node5</title>
<path fill="none" stroke="midnightblue" d="M247.654,-295C261.35,-295 275.911,-295 289.81,-295"/>
<polygon fill="midnightblue" stroke="midnightblue" points="247.375,-291.5 237.375,-295 247.375,-298.5 247.375,-291.5"/>
</g>
<!-- Node7 -->
<g id="node13" class="node"><title>Node7</title>
<a xlink:href="../../dc/d45/classSlices.html#ada42a57f8bea7bb582076bfb6f9f1812" target="_top" xlink:title="Slices::beam_profile\l_derivative">
<polygon fill="white" stroke="black" points="305.5,-198 305.5,-232 410.5,-232 410.5,-198 305.5,-198"/>
<text text-anchor="start" x="313.5" y="-219" font-family="Helvetica,sans-Serif" font-size="10.00">Slices::beam_profile</text>
<text text-anchor="middle" x="358" y="-206" font-family="Helvetica,sans-Serif" font-size="10.00">_derivative</text>
</a>
</g>
<!-- Node6&#45;&gt;Node7 -->
<g id="edge12" class="edge"><title>Node6&#45;&gt;Node7</title>
<path fill="none" stroke="midnightblue" d="M248.683,-236.484C267.348,-232.816 287.54,-228.848 305.43,-225.332"/>
<polygon fill="midnightblue" stroke="midnightblue" points="247.927,-233.066 238.79,-238.429 249.277,-239.934 247.927,-233.066"/>
</g>
<!-- Node7&#45;&gt;Node8 -->
<g id="edge14" class="edge"><title>Node7&#45;&gt;Node8</title>
<path fill="none" stroke="midnightblue" d="M420.699,-206.712C434.046,-204.948 448.222,-203.074 461.828,-201.276"/>
<polygon fill="midnightblue" stroke="midnightblue" points="420.133,-203.256 410.678,-208.037 421.05,-210.196 420.133,-203.256"/>
</g>
<!-- Node9&#45;&gt;Node7 -->
<g id="edge18" class="edge"><title>Node9&#45;&gt;Node7</title>
<path fill="none" stroke="midnightblue" d="M237.562,-210.823C259.025,-211.567 283.801,-212.427 305.28,-213.172"/>
<polygon fill="midnightblue" stroke="midnightblue" points="237.436,-207.317 227.321,-210.468 237.193,-214.312 237.436,-207.317"/>
</g>
</g>
</svg>
        <g id="navigator" transform="translate(0 0)" fill="#404254">
                <rect fill="#f2f5e9" fill-opacity="0.5" stroke="#606060" stroke-width=".5" x="0" y="0" width="60" height="60"/>
                <use id="zoomplus" xlink:href="#zoomPlus" x="17" y="9" onmousedown="handleZoom(evt,'in')"/>
                <use id="zoomminus" xlink:href="#zoomMin" x="42" y="9" onmousedown="handleZoom(evt,'out')"/>
                <use id="reset" xlink:href="#resetDef" x="30" y="36" onmousedown="handleReset()"/>
                <g id="arrowUp" xlink:href="#dirArrow" transform="translate(30 24)" onmousedown="handlePan(0,-1)">
                  <use xlink:href="#rim" fill="#404040">
                        <set attributeName="fill" to="#808080" begin="arrowUp.mouseover" end="arrowUp.mouseout"/>
                  </use>
                  <path fill="none" stroke="white" stroke-width="1.5" d="M0,-3.0v7 M-2.5,-0.5L0,-3.0L2.5,-0.5"/>
                </g>
                <g id="arrowRight" xlink:href="#dirArrow" transform="rotate(90) translate(36 -43)" onmousedown="handlePan(1,0)">
                  <use xlink:href="#rim" fill="#404040">
                        <set attributeName="fill" to="#808080" begin="arrowRight.mouseover" end="arrowRight.mouseout"/>
                  </use>
                  <path fill="none" stroke="white" stroke-width="1.5" d="M0,-3.0v7 M-2.5,-0.5L0,-3.0L2.5,-0.5"/>
                </g>
                <g id="arrowDown" xlink:href="#dirArrow" transform="rotate(180) translate(-30 -48)" onmousedown="handlePan(0,1)">
                  <use xlink:href="#rim" fill="#404040">
                        <set attributeName="fill" to="#808080" begin="arrowDown.mouseover" end="arrowDown.mouseout"/>
                  </use>
                  <path fill="none" stroke="white" stroke-width="1.5" d="M0,-3.0v7 M-2.5,-0.5L0,-3.0L2.5,-0.5"/>
                </g>
                <g id="arrowLeft" xlink:href="#dirArrow" transform="rotate(270) translate(-36 17)" onmousedown="handlePan(-1,0)">
                  <use xlink:href="#rim" fill="#404040">
                        <set attributeName="fill" to="#808080" begin="arrowLeft.mouseover" end="arrowLeft.mouseout"/>
                  </use>
                  <path fill="none" stroke="white" stroke-width="1.5" d="M0,-3.0v7 M-2.5,-0.5L0,-3.0L2.5,-0.5"/>
                </g>
        </g>
        <svg viewBox="0 0 15 15" width="100%" height="30px" preserveAspectRatio="xMaxYMin meet">
         <g id="arrow_out" transform="scale(0.3 0.3)">
          <a xlink:href="namespacepython_a713f8b295244715fb64ea92c5b172d33_icgraph_org.svg" target="_base">
           <rect id="button" ry="5" rx="5" y="6" x="6" height="38" width="38"
                fill="#f2f5e9" fill-opacity="0.5" stroke="#606060" stroke-width="1.0"/>
           <path id="arrow"
             d="M 11.500037,31.436501 C 11.940474,20.09759 22.043105,11.32322 32.158766,21.979434 L 37.068811,17.246167 C 37.068811,17.246167 37.088388,32 37.088388,32 L 22.160133,31.978069 C 22.160133,31.978069 26.997745,27.140456 26.997745,27.140456 C 18.528582,18.264221 13.291696,25.230495 11.500037,31.436501 z"
             style="fill:#404040;"/>
          </a>
         </g>
        </svg>
</svg>
