<?xml version="1.0" encoding="UTF-8" standalone="no"?>
<!DOCTYPE svg PUBLIC "-//W3C//DTD SVG 1.1//EN"
 "http://www.w3.org/Graphics/SVG/1.1/DTD/svg11.dtd">
<!-- Generated by graphviz version 2.26.3 (20100126.1600)
 -->
<!-- Title: python::import Pages: 1 -->
<!--zoomable 584 -->
<svg id="main" version="1.1" xmlns="http://www.w3.org/2000/svg" xmlns:xlink="http://www.w3.org/1999/xlink" xml:space="preserve" onload="init(evt)">
        <defs>
                <circle id="rim" cx="0" cy="0" r="7"/>
                <circle id="rim2" cx="0" cy="0" r="3.5"/>
                <g id="zoomPlus">
                        <use xlink:href="#rim" fill="#404040">
                                <set attributeName="fill" to="#808080" begin="zoomplus.mouseover" end="zoomplus.mouseout"/>
                        </use>
                        <path d="M-4,0h8M0,-4v8" fill="none" stroke="white" stroke-width="1.5" pointer-events="none"/>
                </g>
                <g id="zoomMin">
                        <use xlink:href="#rim" fill="#404040">
                                <set attributeName="fill" to="#808080" begin="zoomminus.mouseover" end="zoomminus.mouseout"/>
                        </use>
                        <path d="M-4,0h8" fill="none" stroke="white" stroke-width="1.5" pointer-events="none"/>
                </g>
                <g id="dirArrow">
                        <path fill="none" stroke="white" stroke-width="1.5" d="M0,-3.0v7 M-2.5,-0.5L0,-3.0L2.5,-0.5"/>
                </g>
               <g id="resetDef">
                       <use xlink:href="#rim2" fill="#404040">
                               <set attributeName="fill" to="#808080" begin="reset.mouseover" end="reset.mouseout"/>
                       </use>
               </g>
        </defs>

<script type="text/javascript">
var viewWidth = 610;
var viewHeight = 584;
var sectionId = 'dynsection-11';
</script>
<script xlink:href="../../svgpan.js"/>
<svg id="graph" class="graph">
<g id="viewport">
<title>python::import</title>
<polygon fill="white" stroke="white" points="-4,5 -4,-580 607,-580 607,5 -4,5"/>
<!-- Node1 -->
<g id="node1" class="node"><title>Node1</title>
<polygon fill="#bfbfbf" stroke="black" points="0.5,-272.5 0.5,-293.5 79.5,-293.5 79.5,-272.5 0.5,-272.5"/>
<text text-anchor="middle" x="40" y="-280.5" font-family="Helvetica,sans-Serif" font-size="10.00">python::import</text>
</g>
<!-- Node2 -->
<g id="node3" class="node"><title>Node2</title>
<a xlink:href="../../dc/d7d/Distributions_8h.html#a775adebc7be25b67916c028a031074be" target="_top" xlink:title="_matched_from_distribution\l_density">
<polygon fill="white" stroke="black" points="116.5,-542 116.5,-576 253.5,-576 253.5,-542 116.5,-542"/>
<text text-anchor="start" x="124.5" y="-563" font-family="Helvetica,sans-Serif" font-size="10.00">_matched_from_distribution</text>
<text text-anchor="middle" x="185" y="-550" font-family="Helvetica,sans-Serif" font-size="10.00">_density</text>
</a>
</g>
<!-- Node1&#45;&gt;Node2 -->
<g id="edge2" class="edge"><title>Node1&#45;&gt;Node2</title>
<path fill="none" stroke="midnightblue" d="M43.8603,-303.729C54.2164,-357.355 84.0053,-498.847 116,-533 119.151,-536.363 122.78,-539.295 126.69,-541.849"/>
<polygon fill="midnightblue" stroke="midnightblue" points="47.2579,-302.86 41.9516,-293.69 40.381,-304.168 47.2579,-302.86"/>
</g>
<!-- Node4 -->
<g id="node7" class="node"><title>Node4</title>
<a xlink:href="../../dc/d7d/Distributions_8h.html#a190d2b58297ff88be6d2ab351eba1207" target="_top" xlink:title="_matched_from_line\l_density">
<polygon fill="white" stroke="black" points="133,-490 133,-524 237,-524 237,-490 133,-490"/>
<text text-anchor="start" x="141" y="-511" font-family="Helvetica,sans-Serif" font-size="10.00">_matched_from_line</text>
<text text-anchor="middle" x="185" y="-498" font-family="Helvetica,sans-Serif" font-size="10.00">_density</text>
</a>
</g>
<!-- Node1&#45;&gt;Node4 -->
<g id="edge6" class="edge"><title>Node1&#45;&gt;Node4</title>
<path fill="none" stroke="midnightblue" d="M42.3533,-303.744C47.9288,-343.474 65.5009,-430.81 116,-481 120.812,-485.783 126.589,-489.7 132.726,-492.904"/>
<polygon fill="midnightblue" stroke="midnightblue" points="45.8036,-303.132 41.057,-293.66 38.8607,-304.025 45.8036,-303.132"/>
</g>
<!-- Node6 -->
<g id="node11" class="node"><title>Node6</title>
<a xlink:href="../../dc/d45/classSlices.html#ab1443b2ebec9ed465a8301be8e1c747f" target="_top" xlink:title="Slices::gaussian_filter1d">
<polygon fill="white" stroke="black" points="123.5,-450.5 123.5,-471.5 246.5,-471.5 246.5,-450.5 123.5,-450.5"/>
<text text-anchor="middle" x="185" y="-458.5" font-family="Helvetica,sans-Serif" font-size="10.00">Slices::gaussian_filter1d</text>
</a>
</g>
<!-- Node1&#45;&gt;Node6 -->
<g id="edge10" class="edge"><title>Node1&#45;&gt;Node6</title>
<path fill="none" stroke="midnightblue" d="M44.2484,-303.789C52.2499,-337.609 72.7864,-404.432 116,-441 120.475,-444.787 125.632,-447.857 131.071,-450.346"/>
<polygon fill="midnightblue" stroke="midnightblue" points="47.5871,-302.679 42.0007,-293.676 40.7538,-304.197 47.5871,-302.679"/>
</g>
<!-- Node8 -->
<g id="node15" class="node"><title>Node8</title>
<a xlink:href="../../d2/d51/plot__slices_8h.html#a16593c6d713f81f5527a58a8c33f6104" target="_top" xlink:title="plot_beam_profile_derivative">
<polygon fill="white" stroke="black" points="462,-393.5 462,-414.5 602,-414.5 602,-393.5 462,-393.5"/>
<text text-anchor="middle" x="532" y="-401.5" font-family="Helvetica,sans-Serif" font-size="10.00">plot_beam_profile_derivative</text>
</a>
</g>
<!-- Node1&#45;&gt;Node8 -->
<g id="edge22" class="edge"><title>Node1&#45;&gt;Node8</title>
<path fill="none" stroke="midnightblue" d="M52.0445,-302.079C65.2142,-321.109 88.1933,-349.408 116,-363 146.237,-377.779 351.078,-392.668 461.608,-399.747"/>
<polygon fill="midnightblue" stroke="midnightblue" points="54.8453,-299.97 46.3892,-293.587 49.019,-303.851 54.8453,-299.97"/>
</g>
<!-- Node9 -->
<g id="node17" class="node"><title>Node9</title>
<a xlink:href="../../dc/d45/classSlices.html#ac11f46cb378680434a059361c5c5f0fe" target="_top" xlink:title="Slices::gradient">
<polygon fill="white" stroke="black" points="143,-410.5 143,-431.5 227,-431.5 227,-410.5 143,-410.5"/>
<text text-anchor="middle" x="185" y="-418.5" font-family="Helvetica,sans-Serif" font-size="10.00">Slices::gradient</text>
</a>
</g>
<!-- Node1&#45;&gt;Node9 -->
<g id="edge16" class="edge"><title>Node1&#45;&gt;Node9</title>
<path fill="none" stroke="midnightblue" d="M48.5925,-302.929C60.3527,-327.996 83.7409,-370.8 116,-396 123.832,-402.118 133.297,-406.829 142.672,-410.422"/>
<polygon fill="midnightblue" stroke="midnightblue" points="51.7138,-301.337 44.401,-293.671 45.3368,-304.224 51.7138,-301.337"/>
</g>
<!-- Node10 -->
<g id="node20" class="node"><title>Node10</title>
<a xlink:href="../../d2/d51/plot__slices_8h.html#a0412f1f52fc8c9279224be608d8d3f43" target="_top" xlink:title="plot_beam_profile">
<polygon fill="white" stroke="black" points="138.5,-332.5 138.5,-353.5 231.5,-353.5 231.5,-332.5 138.5,-332.5"/>
<text text-anchor="middle" x="185" y="-340.5" font-family="Helvetica,sans-Serif" font-size="10.00">plot_beam_profile</text>
</a>
</g>
<!-- Node1&#45;&gt;Node10 -->
<g id="edge20" class="edge"><title>Node1&#45;&gt;Node10</title>
<path fill="none" stroke="midnightblue" d="M66.4363,-298.608C80.7682,-306.632 98.9846,-316.139 116,-323 124.791,-326.545 134.444,-329.748 143.672,-332.499"/>
<polygon fill="midnightblue" stroke="midnightblue" points="68.0523,-295.501 57.6308,-293.592 64.5875,-301.583 68.0523,-295.501"/>
</g>
<!-- Node11 -->
<g id="node23" class="node"><title>Node11</title>
<a xlink:href="../../d2/d51/plot__slices_8h.html#ab17db03931ff95e016a858c2d2e95fd5" target="_top" xlink:title="plot_beam_spectrum">
<polygon fill="white" stroke="black" points="131.5,-292.5 131.5,-313.5 238.5,-313.5 238.5,-292.5 131.5,-292.5"/>
<text text-anchor="middle" x="185" y="-300.5" font-family="Helvetica,sans-Serif" font-size="10.00">plot_beam_spectrum</text>
</a>
</g>
<!-- Node1&#45;&gt;Node11 -->
<g id="edge24" class="edge"><title>Node1&#45;&gt;Node11</title>
<path fill="none" stroke="midnightblue" d="M89.6278,-289.845C103.056,-291.697 117.65,-293.71 131.291,-295.592"/>
<polygon fill="midnightblue" stroke="midnightblue" points="90.0064,-286.364 79.6219,-288.465 89.0498,-293.299 90.0064,-286.364"/>
</g>
<!-- Node12 -->
<g id="node25" class="node"><title>Node12</title>
<a xlink:href="../../d8/d94/plot__beams_8h.html#a7b5c6ac8b8a54e16e8ad2e6009036935" target="_top" xlink:title="plot_bunch_length_evol">
<polygon fill="white" stroke="black" points="125.5,-252.5 125.5,-273.5 244.5,-273.5 244.5,-252.5 125.5,-252.5"/>
<text text-anchor="middle" x="185" y="-260.5" font-family="Helvetica,sans-Serif" font-size="10.00">plot_bunch_length_evol</text>
</a>
</g>
<!-- Node1&#45;&gt;Node12 -->
<g id="edge26" class="edge"><title>Node1&#45;&gt;Node12</title>
<path fill="none" stroke="midnightblue" d="M89.8358,-276.126C101.253,-274.551 113.505,-272.861 125.291,-271.236"/>
<polygon fill="midnightblue" stroke="midnightblue" points="89.0498,-272.701 79.6219,-277.535 90.0064,-279.636 89.0498,-272.701"/>
</g>
<!-- Node13 -->
<g id="node27" class="node"><title>Node13</title>
<a xlink:href="../../d8/d94/plot__beams_8h.html#ab78555117ca7153c811de718d84ed052" target="_top" xlink:title="plot_bunch_length_evol\l_gaussian">
<polygon fill="white" stroke="black" points="125.5,-200 125.5,-234 244.5,-234 244.5,-200 125.5,-200"/>
<text text-anchor="start" x="133.5" y="-221" font-family="Helvetica,sans-Serif" font-size="10.00">plot_bunch_length_evol</text>
<text text-anchor="middle" x="185" y="-208" font-family="Helvetica,sans-Serif" font-size="10.00">_gaussian</text>
</a>
</g>
<!-- Node1&#45;&gt;Node13 -->
<g id="edge28" class="edge"><title>Node1&#45;&gt;Node13</title>
<path fill="none" stroke="midnightblue" d="M67.2418,-267.61C81.5456,-259.8 99.4891,-250.421 116,-243 122.772,-239.956 130.018,-236.957 137.174,-234.138"/>
<polygon fill="midnightblue" stroke="midnightblue" points="65.4829,-264.583 58.4194,-272.48 68.8656,-270.712 65.4829,-264.583"/>
</g>
<!-- Node14 -->
<g id="node29" class="node"><title>Node14</title>
<a xlink:href="../../d8/d94/plot__beams_8h.html#a87891b0c397e75daceb729f00d3ad076" target="_top" xlink:title="plot_energy_evol">
<polygon fill="white" stroke="black" points="140,-160.5 140,-181.5 230,-181.5 230,-160.5 140,-160.5"/>
<text text-anchor="middle" x="185" y="-168.5" font-family="Helvetica,sans-Serif" font-size="10.00">plot_energy_evol</text>
</a>
</g>
<!-- Node1&#45;&gt;Node14 -->
<g id="edge30" class="edge"><title>Node1&#45;&gt;Node14</title>
<path fill="none" stroke="midnightblue" d="M51.0035,-263.745C63.9378,-242.814 87.3204,-209.841 116,-191 123.193,-186.275 131.521,-182.644 139.849,-179.861"/>
<polygon fill="midnightblue" stroke="midnightblue" points="47.9438,-262.042 45.8144,-272.421 53.9513,-265.635 47.9438,-262.042"/>
</g>
<!-- Node15 -->
<g id="node31" class="node"><title>Node15</title>
<a xlink:href="../../d8/d94/plot__beams_8h.html#ae6215f03e38354ba5f04e99f640cf700" target="_top" xlink:title="plot_long_phase_space">
<polygon fill="white" stroke="black" points="125.5,-120.5 125.5,-141.5 244.5,-141.5 244.5,-120.5 125.5,-120.5"/>
<text text-anchor="middle" x="185" y="-128.5" font-family="Helvetica,sans-Serif" font-size="10.00">plot_long_phase_space</text>
</a>
</g>
<!-- Node1&#45;&gt;Node15 -->
<g id="edge32" class="edge"><title>Node1&#45;&gt;Node15</title>
<path fill="none" stroke="midnightblue" d="M46.2317,-262.729C56.215,-233.648 78.571,-180.366 116,-151 120.906,-147.151 126.528,-144.042 132.399,-141.532"/>
<polygon fill="midnightblue" stroke="midnightblue" points="42.8969,-261.666 43.1084,-272.259 49.5488,-263.846 42.8969,-261.666"/>
</g>
<!-- Node16 -->
<g id="node33" class="node"><title>Node16</title>
<a xlink:href="../../d8/d94/plot__beams_8h.html#ab1102a9d176b48aff9607b9568641ac0" target="_top" xlink:title="plot_position_evol">
<polygon fill="white" stroke="black" points="137.5,-80.5 137.5,-101.5 232.5,-101.5 232.5,-80.5 137.5,-80.5"/>
<text text-anchor="middle" x="185" y="-88.5" font-family="Helvetica,sans-Serif" font-size="10.00">plot_position_evol</text>
</a>
</g>
<!-- Node1&#45;&gt;Node16 -->
<g id="edge34" class="edge"><title>Node1&#45;&gt;Node16</title>
<path fill="none" stroke="midnightblue" d="M43.3026,-262.401C50.1783,-226.328 69.4487,-151.699 116,-111 122.103,-105.664 129.556,-101.748 137.278,-98.8757"/>
<polygon fill="midnightblue" stroke="midnightblue" points="39.8511,-261.82 41.5503,-272.277 46.7435,-263.043 39.8511,-261.82"/>
</g>
<!-- Node17 -->
<g id="node35" class="node"><title>Node17</title>
<a xlink:href="../../d8/d94/plot__beams_8h.html#a198f97a92351f9813d557ebd71b482ee" target="_top" xlink:title="plot_transmitted_particles">
<polygon fill="white" stroke="black" points="121,-40.5 121,-61.5 249,-61.5 249,-40.5 121,-40.5"/>
<text text-anchor="middle" x="185" y="-48.5" font-family="Helvetica,sans-Serif" font-size="10.00">plot_transmitted_particles</text>
</a>
</g>
<!-- Node1&#45;&gt;Node17 -->
<g id="edge36" class="edge"><title>Node1&#45;&gt;Node17</title>
<path fill="none" stroke="midnightblue" d="M41.3629,-262.189C45.2689,-219.898 60.1475,-123.488 116,-71 120.09,-67.1565 124.874,-64.0462 129.982,-61.5302"/>
<polygon fill="midnightblue" stroke="midnightblue" points="37.8563,-262.132 40.5422,-272.38 44.8337,-262.694 37.8563,-262.132"/>
</g>
<!-- Node18 -->
<g id="node37" class="node"><title>Node18</title>
<a xlink:href="../../d8/d1b/plot__parameters_8h.html#a12d0870215c7365ba3c9b175bc7e18c5" target="_top" xlink:title="plot_voltage_programme">
<polygon fill="white" stroke="black" points="123.5,-0.5 123.5,-21.5 246.5,-21.5 246.5,-0.5 123.5,-0.5"/>
<text text-anchor="middle" x="185" y="-8.5" font-family="Helvetica,sans-Serif" font-size="10.00">plot_voltage_programme</text>
</a>
</g>
<!-- Node1&#45;&gt;Node18 -->
<g id="edge38" class="edge"><title>Node1&#45;&gt;Node18</title>
<path fill="none" stroke="midnightblue" d="M43.6216,-262.329C53.4965,-208.206 82.4109,-64.2287 116,-31 119.813,-27.2283 124.291,-24.1593 129.104,-21.6635"/>
<polygon fill="midnightblue" stroke="midnightblue" points="40.1282,-261.982 41.8086,-272.443 47.0183,-263.217 40.1282,-261.982"/>
</g>
<!-- Node3 -->
<g id="node5" class="node"><title>Node3</title>
<a xlink:href="../../dc/d7d/Distributions_8h.html#a39ba163b714fe197bd81ac64ffa48d30" target="_top" xlink:title="matched_from_distribution\l_density">
<polygon fill="white" stroke="black" points="292.5,-542 292.5,-576 423.5,-576 423.5,-542 292.5,-542"/>
<text text-anchor="start" x="300.5" y="-563" font-family="Helvetica,sans-Serif" font-size="10.00">matched_from_distribution</text>
<text text-anchor="middle" x="358" y="-550" font-family="Helvetica,sans-Serif" font-size="10.00">_density</text>
</a>
</g>
<!-- Node2&#45;&gt;Node3 -->
<g id="edge4" class="edge"><title>Node2&#45;&gt;Node3</title>
<path fill="none" stroke="midnightblue" d="M264.099,-559C273.587,-559 283.195,-559 292.462,-559"/>
<polygon fill="midnightblue" stroke="midnightblue" points="263.871,-555.5 253.871,-559 263.871,-562.5 263.871,-555.5"/>
</g>
<!-- Node5 -->
<g id="node9" class="node"><title>Node5</title>
<a xlink:href="../../dc/d7d/Distributions_8h.html#af8a750601d38e475a922ae843f837cc9" target="_top" xlink:title="matched_from_line_density">
<polygon fill="white" stroke="black" points="290,-496.5 290,-517.5 426,-517.5 426,-496.5 290,-496.5"/>
<text text-anchor="middle" x="358" y="-504.5" font-family="Helvetica,sans-Serif" font-size="10.00">matched_from_line_density</text>
</a>
</g>
<!-- Node4&#45;&gt;Node5 -->
<g id="edge8" class="edge"><title>Node4&#45;&gt;Node5</title>
<path fill="none" stroke="midnightblue" d="M247.654,-507C261.35,-507 275.911,-507 289.81,-507"/>
<polygon fill="midnightblue" stroke="midnightblue" points="247.375,-503.5 237.375,-507 247.375,-510.5 247.375,-503.5"/>
</g>
<!-- Node7 -->
<g id="node13" class="node"><title>Node7</title>
<a xlink:href="../../dc/d45/classSlices.html#ada42a57f8bea7bb582076bfb6f9f1812" target="_top" xlink:title="Slices::beam_profile\l_derivative">
<polygon fill="white" stroke="black" points="305.5,-410 305.5,-444 410.5,-444 410.5,-410 305.5,-410"/>
<text text-anchor="start" x="313.5" y="-431" font-family="Helvetica,sans-Serif" font-size="10.00">Slices::beam_profile</text>
<text text-anchor="middle" x="358" y="-418" font-family="Helvetica,sans-Serif" font-size="10.00">_derivative</text>
</a>
</g>
<!-- Node6&#45;&gt;Node7 -->
<g id="edge12" class="edge"><title>Node6&#45;&gt;Node7</title>
<path fill="none" stroke="midnightblue" d="M248.683,-448.484C267.348,-444.816 287.54,-440.848 305.43,-437.332"/>
<polygon fill="midnightblue" stroke="midnightblue" points="247.927,-445.066 238.79,-450.429 249.277,-451.934 247.927,-445.066"/>
</g>
<!-- Node7&#45;&gt;Node8 -->
<g id="edge14" class="edge"><title>Node7&#45;&gt;Node8</title>
<path fill="none" stroke="midnightblue" d="M420.699,-418.712C434.046,-416.948 448.222,-415.074 461.828,-413.276"/>
<polygon fill="midnightblue" stroke="midnightblue" points="420.133,-415.256 410.678,-420.037 421.05,-422.196 420.133,-415.256"/>
</g>
<!-- Node9&#45;&gt;Node7 -->
<g id="edge18" class="edge"><title>Node9&#45;&gt;Node7</title>
<path fill="none" stroke="midnightblue" d="M237.562,-422.823C259.025,-423.567 283.801,-424.427 305.28,-425.172"/>
<polygon fill="midnightblue" stroke="midnightblue" points="237.436,-419.317 227.321,-422.468 237.193,-426.312 237.436,-419.317"/>
</g>
</g>
</svg>
        <g id="navigator" transform="translate(0 0)" fill="#404254">
                <rect fill="#f2f5e9" fill-opacity="0.5" stroke="#606060" stroke-width=".5" x="0" y="0" width="60" height="60"/>
                <use id="zoomplus" xlink:href="#zoomPlus" x="17" y="9" onmousedown="handleZoom(evt,'in')"/>
                <use id="zoomminus" xlink:href="#zoomMin" x="42" y="9" onmousedown="handleZoom(evt,'out')"/>
                <use id="reset" xlink:href="#resetDef" x="30" y="36" onmousedown="handleReset()"/>
                <g id="arrowUp" xlink:href="#dirArrow" transform="translate(30 24)" onmousedown="handlePan(0,-1)">
                  <use xlink:href="#rim" fill="#404040">
                        <set attributeName="fill" to="#808080" begin="arrowUp.mouseover" end="arrowUp.mouseout"/>
                  </use>
                  <path fill="none" stroke="white" stroke-width="1.5" d="M0,-3.0v7 M-2.5,-0.5L0,-3.0L2.5,-0.5"/>
                </g>
                <g id="arrowRight" xlink:href="#dirArrow" transform="rotate(90) translate(36 -43)" onmousedown="handlePan(1,0)">
                  <use xlink:href="#rim" fill="#404040">
                        <set attributeName="fill" to="#808080" begin="arrowRight.mouseover" end="arrowRight.mouseout"/>
                  </use>
                  <path fill="none" stroke="white" stroke-width="1.5" d="M0,-3.0v7 M-2.5,-0.5L0,-3.0L2.5,-0.5"/>
                </g>
                <g id="arrowDown" xlink:href="#dirArrow" transform="rotate(180) translate(-30 -48)" onmousedown="handlePan(0,1)">
                  <use xlink:href="#rim" fill="#404040">
                        <set attributeName="fill" to="#808080" begin="arrowDown.mouseover" end="arrowDown.mouseout"/>
                  </use>
                  <path fill="none" stroke="white" stroke-width="1.5" d="M0,-3.0v7 M-2.5,-0.5L0,-3.0L2.5,-0.5"/>
                </g>
                <g id="arrowLeft" xlink:href="#dirArrow" transform="rotate(270) translate(-36 17)" onmousedown="handlePan(-1,0)">
                  <use xlink:href="#rim" fill="#404040">
                        <set attributeName="fill" to="#808080" begin="arrowLeft.mouseover" end="arrowLeft.mouseout"/>
                  </use>
                  <path fill="none" stroke="white" stroke-width="1.5" d="M0,-3.0v7 M-2.5,-0.5L0,-3.0L2.5,-0.5"/>
                </g>
        </g>
        <svg viewBox="0 0 15 15" width="100%" height="30px" preserveAspectRatio="xMaxYMin meet">
         <g id="arrow_out" transform="scale(0.3 0.3)">
          <a xlink:href="namespacepython_a713f8b295244715fb64ea92c5b172d33_icgraph_org.svg" target="_base">
           <rect id="button" ry="5" rx="5" y="6" x="6" height="38" width="38"
                fill="#f2f5e9" fill-opacity="0.5" stroke="#606060" stroke-width="1.0"/>
           <path id="arrow"
             d="M 11.500037,31.436501 C 11.940474,20.09759 22.043105,11.32322 32.158766,21.979434 L 37.068811,17.246167 C 37.068811,17.246167 37.088388,32 37.088388,32 L 22.160133,31.978069 C 22.160133,31.978069 26.997745,27.140456 26.997745,27.140456 C 18.528582,18.264221 13.291696,25.230495 11.500037,31.436501 z"
             style="fill:#404040;"/>
          </a>
         </g>
        </svg>
</svg>
