<?xml version="1.0" encoding="UTF-8" standalone="no"?>
<!DOCTYPE svg PUBLIC "-//W3C//DTD SVG 1.1//EN"
 "http://www.w3.org/Graphics/SVG/1.1/DTD/svg11.dtd">
<!-- Generated by graphviz version 2.26.3 (20100126.1600)
 -->
<!-- Title: python::import Pages: 1 -->
<!--zoomable 1196 -->
<svg id="main" version="1.1" xmlns="http://www.w3.org/2000/svg" xmlns:xlink="http://www.w3.org/1999/xlink" xml:space="preserve" onload="init(evt)">
        <defs>
                <circle id="rim" cx="0" cy="0" r="7"/>
                <circle id="rim2" cx="0" cy="0" r="3.5"/>
                <g id="zoomPlus">
                        <use xlink:href="#rim" fill="#404040">
                                <set attributeName="fill" to="#808080" begin="zoomplus.mouseover" end="zoomplus.mouseout"/>
                        </use>
                        <path d="M-4,0h8M0,-4v8" fill="none" stroke="white" stroke-width="1.5" pointer-events="none"/>
                </g>
                <g id="zoomMin">
                        <use xlink:href="#rim" fill="#404040">
                                <set attributeName="fill" to="#808080" begin="zoomminus.mouseover" end="zoomminus.mouseout"/>
                        </use>
                        <path d="M-4,0h8" fill="none" stroke="white" stroke-width="1.5" pointer-events="none"/>
                </g>
                <g id="dirArrow">
                        <path fill="none" stroke="white" stroke-width="1.5" d="M0,-3.0v7 M-2.5,-0.5L0,-3.0L2.5,-0.5"/>
                </g>
               <g id="resetDef">
                       <use xlink:href="#rim2" fill="#404040">
                               <set attributeName="fill" to="#808080" begin="reset.mouseover" end="reset.mouseout"/>
                       </use>
               </g>
        </defs>

<script type="text/javascript">
var viewWidth = 626;
var viewHeight = 1196;
var sectionId = 'dynsection-11';
</script>
<script xlink:href="../../svgpan.js"/>
<svg id="graph" class="graph">
<g id="viewport">
<title>python::import</title>
<polygon fill="white" stroke="white" points="-4,5 -4,-1192 623,-1192 623,5 -4,5"/>
<!-- Node1 -->
<g id="node1" class="node"><title>Node1</title>
<polygon fill="#bfbfbf" stroke="black" points="0.5,-560.5 0.5,-581.5 79.5,-581.5 79.5,-560.5 0.5,-560.5"/>
<text text-anchor="middle" x="40" y="-568.5" font-family="Helvetica,sans-Serif" font-size="10.00">python::import</text>
</g>
<!-- Node2 -->
<g id="node3" class="node"><title>Node2</title>
<a xlink:href="../../dc/d7d/Distributions_8h.html#a775adebc7be25b67916c028a031074be" target="_top" xlink:title="_matched_from_distribution\l_density">
<polygon fill="white" stroke="black" points="124.5,-1154 124.5,-1188 261.5,-1188 261.5,-1154 124.5,-1154"/>
<text text-anchor="start" x="132.5" y="-1175" font-family="Helvetica,sans-Serif" font-size="10.00">_matched_from_distribution</text>
<text text-anchor="middle" x="193" y="-1162" font-family="Helvetica,sans-Serif" font-size="10.00">_density</text>
</a>
</g>
<!-- Node1&#45;&gt;Node2 -->
<g id="edge2" class="edge"><title>Node1&#45;&gt;Node2</title>
<path fill="none" stroke="midnightblue" d="M41.4398,-591.549C48.4327,-688.946 79.9869,-1101.22 116,-1145 118.779,-1148.38 122.014,-1151.32 125.553,-1153.88"/>
<polygon fill="midnightblue" stroke="midnightblue" points="44.926,-591.23 40.7259,-581.503 37.9436,-591.726 44.926,-591.23"/>
</g>
<!-- Node4 -->
<g id="node7" class="node"><title>Node4</title>
<a xlink:href="../../dc/d7d/Distributions_8h.html#a190d2b58297ff88be6d2ab351eba1207" target="_top" xlink:title="_matched_from_line\l_density">
<polygon fill="white" stroke="black" points="141,-1102 141,-1136 245,-1136 245,-1102 141,-1102"/>
<text text-anchor="start" x="149" y="-1123" font-family="Helvetica,sans-Serif" font-size="10.00">_matched_from_line</text>
<text text-anchor="middle" x="193" y="-1110" font-family="Helvetica,sans-Serif" font-size="10.00">_density</text>
</a>
</g>
<!-- Node1&#45;&gt;Node4 -->
<g id="edge6" class="edge"><title>Node1&#45;&gt;Node4</title>
<path fill="none" stroke="midnightblue" d="M40.2208,-592.008C41.5554,-679.613 50.9033,-1014.9 116,-1093 122.505,-1100.8 131.441,-1106.27 140.927,-1110.11"/>
<polygon fill="midnightblue" stroke="midnightblue" points="43.7172,-591.705 40.0852,-581.752 36.7178,-591.797 43.7172,-591.705"/>
</g>
<!-- Node6 -->
<g id="node11" class="node"><title>Node6</title>
<a xlink:href="../../dc/d45/classSlices.html#ab1443b2ebec9ed465a8301be8e1c747f" target="_top" xlink:title="Slices::gaussian_filter1d">
<polygon fill="white" stroke="black" points="131.5,-1062.5 131.5,-1083.5 254.5,-1083.5 254.5,-1062.5 131.5,-1062.5"/>
<text text-anchor="middle" x="193" y="-1070.5" font-family="Helvetica,sans-Serif" font-size="10.00">Slices::gaussian_filter1d</text>
</a>
</g>
<!-- Node1&#45;&gt;Node6 -->
<g id="edge10" class="edge"><title>Node1&#45;&gt;Node6</title>
<path fill="none" stroke="midnightblue" d="M40.3511,-591.848C42.1821,-675.248 53.1636,-983.701 116,-1053 120.268,-1057.71 125.488,-1061.37 131.18,-1064.21"/>
<polygon fill="midnightblue" stroke="midnightblue" points="43.8499,-591.747 40.1524,-581.819 36.8512,-591.886 43.8499,-591.747"/>
</g>
<!-- Node8 -->
<g id="node15" class="node"><title>Node8</title>
<a xlink:href="../../d2/d51/plot__slices_8h.html#a16593c6d713f81f5527a58a8c33f6104" target="_top" xlink:title="plot_beam_profile_derivative">
<polygon fill="white" stroke="black" points="478,-1005.5 478,-1026.5 618,-1026.5 618,-1005.5 478,-1005.5"/>
<text text-anchor="middle" x="548" y="-1013.5" font-family="Helvetica,sans-Serif" font-size="10.00">plot_beam_profile_derivative</text>
</a>
</g>
<!-- Node1&#45;&gt;Node8 -->
<g id="edge22" class="edge"><title>Node1&#45;&gt;Node8</title>
<path fill="none" stroke="midnightblue" d="M40.7361,-591.783C43.8537,-666.895 58.5869,-922.604 116,-975 142.119,-998.837 362.288,-1009.76 477.826,-1013.89"/>
<polygon fill="midnightblue" stroke="midnightblue" points="44.2298,-591.552 40.3436,-581.696 37.2351,-591.824 44.2298,-591.552"/>
</g>
<!-- Node9 -->
<g id="node17" class="node"><title>Node9</title>
<a xlink:href="../../dc/d45/classSlices.html#ac11f46cb378680434a059361c5c5f0fe" target="_top" xlink:title="Slices::gradient">
<polygon fill="white" stroke="black" points="151,-1022.5 151,-1043.5 235,-1043.5 235,-1022.5 151,-1022.5"/>
<text text-anchor="middle" x="193" y="-1030.5" font-family="Helvetica,sans-Serif" font-size="10.00">Slices::gradient</text>
</a>
</g>
<!-- Node1&#45;&gt;Node9 -->
<g id="edge16" class="edge"><title>Node1&#45;&gt;Node9</title>
<path fill="none" stroke="midnightblue" d="M40.8526,-592.002C44.444,-670.357 60.8051,-944.369 116,-1008 124.841,-1018.19 137.88,-1024.26 150.724,-1027.85"/>
<polygon fill="midnightblue" stroke="midnightblue" points="44.3287,-591.375 40.3969,-581.537 37.3353,-591.68 44.3287,-591.375"/>
</g>
<!-- Node10 -->
<g id="node20" class="node"><title>Node10</title>
<a xlink:href="../../d2/d51/plot__slices_8h.html#a0412f1f52fc8c9279224be608d8d3f43" target="_top" xlink:title="plot_beam_profile">
<polygon fill="white" stroke="black" points="146.5,-944.5 146.5,-965.5 239.5,-965.5 239.5,-944.5 146.5,-944.5"/>
<text text-anchor="middle" x="193" y="-952.5" font-family="Helvetica,sans-Serif" font-size="10.00">plot_beam_profile</text>
</a>
</g>
<!-- Node1&#45;&gt;Node10 -->
<g id="edge20" class="edge"><title>Node1&#45;&gt;Node10</title>
<path fill="none" stroke="midnightblue" d="M41.5014,-591.664C46.9615,-661.121 68.0146,-884.64 116,-935 124.003,-943.399 135.045,-948.44 146.269,-951.422"/>
<polygon fill="midnightblue" stroke="midnightblue" points="44.9808,-591.259 40.7326,-581.553 38.001,-591.79 44.9808,-591.259"/>
</g>
<!-- Node11 -->
<g id="node23" class="node"><title>Node11</title>
<a xlink:href="../../d2/d51/plot__slices_8h.html#ab17db03931ff95e016a858c2d2e95fd5" target="_top" xlink:title="plot_beam_spectrum">
<polygon fill="white" stroke="black" points="139.5,-904.5 139.5,-925.5 246.5,-925.5 246.5,-904.5 139.5,-904.5"/>
<text text-anchor="middle" x="193" y="-912.5" font-family="Helvetica,sans-Serif" font-size="10.00">plot_beam_spectrum</text>
</a>
</g>
<!-- Node1&#45;&gt;Node11 -->
<g id="edge24" class="edge"><title>Node1&#45;&gt;Node11</title>
<path fill="none" stroke="midnightblue" d="M42.1,-591.874C49.0064,-656.412 73.0642,-851.033 116,-895 122.369,-901.522 130.572,-906.01 139.24,-909.08"/>
<polygon fill="midnightblue" stroke="midnightblue" points="45.5592,-591.3 41.0412,-581.717 38.597,-592.026 45.5592,-591.3"/>
</g>
<!-- Node12 -->
<g id="node25" class="node"><title>Node12</title>
<a xlink:href="../../d8/d94/plot__beams_8h.html#a7b5c6ac8b8a54e16e8ad2e6009036935" target="_top" xlink:title="plot_bunch_length_evol">
<polygon fill="white" stroke="black" points="133.5,-864.5 133.5,-885.5 252.5,-885.5 252.5,-864.5 133.5,-864.5"/>
<text text-anchor="middle" x="193" y="-872.5" font-family="Helvetica,sans-Serif" font-size="10.00">plot_bunch_length_evol</text>
</a>
</g>
<!-- Node1&#45;&gt;Node12 -->
<g id="edge26" class="edge"><title>Node1&#45;&gt;Node12</title>
<path fill="none" stroke="midnightblue" d="M42.7994,-591.584C51.1981,-650.375 77.9711,-817.25 116,-855 120.901,-859.865 126.825,-863.593 133.185,-866.442"/>
<polygon fill="midnightblue" stroke="midnightblue" points="46.2583,-591.045 41.4064,-581.627 39.3258,-592.015 46.2583,-591.045"/>
</g>
<!-- Node13 -->
<g id="node27" class="node"><title>Node13</title>
<a xlink:href="../../d8/d94/plot__beams_8h.html#ab78555117ca7153c811de718d84ed052" target="_top" xlink:title="plot_bunch_length_evol\l_gaussian">
<polygon fill="white" stroke="black" points="133.5,-812 133.5,-846 252.5,-846 252.5,-812 133.5,-812"/>
<text text-anchor="start" x="141.5" y="-833" font-family="Helvetica,sans-Serif" font-size="10.00">plot_bunch_length_evol</text>
<text text-anchor="middle" x="193" y="-820" font-family="Helvetica,sans-Serif" font-size="10.00">_gaussian</text>
</a>
</g>
<!-- Node1&#45;&gt;Node13 -->
<g id="edge28" class="edge"><title>Node1&#45;&gt;Node13</title>
<path fill="none" stroke="midnightblue" d="M44.2124,-591.309C55.0925,-641.984 85.4263,-772.148 116,-803 120.966,-808.011 126.929,-812.057 133.311,-815.322"/>
<polygon fill="midnightblue" stroke="midnightblue" points="47.6331,-590.568 42.1392,-581.509 40.7846,-592.017 47.6331,-590.568"/>
</g>
<!-- Node14 -->
<g id="node29" class="node"><title>Node14</title>
<a xlink:href="../../d3/dda/plot__llrf_8h.html#a233ce800a7902302fb26c5a54fbbbb98" target="_top" xlink:title="plot_COM_motion">
<polygon fill="white" stroke="black" points="145.5,-772.5 145.5,-793.5 240.5,-793.5 240.5,-772.5 145.5,-772.5"/>
<text text-anchor="middle" x="193" y="-780.5" font-family="Helvetica,sans-Serif" font-size="10.00">plot_COM_motion</text>
</a>
</g>
<!-- Node1&#45;&gt;Node14 -->
<g id="edge30" class="edge"><title>Node1&#45;&gt;Node14</title>
<path fill="none" stroke="midnightblue" d="M42.0958,-591.609C47.2273,-630.988 64.0671,-717.082 116,-763 124.174,-770.227 134.636,-774.899 145.195,-777.903"/>
<polygon fill="midnightblue" stroke="midnightblue" points="45.5633,-591.126 40.9177,-581.604 38.6113,-591.945 45.5633,-591.126"/>
</g>
<!-- Node15 -->
<g id="node31" class="node"><title>Node15</title>
<a xlink:href="../../d8/d94/plot__beams_8h.html#a87891b0c397e75daceb729f00d3ad076" target="_top" xlink:title="plot_energy_evol">
<polygon fill="white" stroke="black" points="148,-732.5 148,-753.5 238,-753.5 238,-732.5 148,-732.5"/>
<text text-anchor="middle" x="193" y="-740.5" font-family="Helvetica,sans-Serif" font-size="10.00">plot_energy_evol</text>
</a>
</g>
<!-- Node1&#45;&gt;Node15 -->
<g id="edge32" class="edge"><title>Node1&#45;&gt;Node15</title>
<path fill="none" stroke="midnightblue" d="M44.4959,-591.622C52.7633,-624.514 73.5626,-688.638 116,-723 125.017,-730.301 136.406,-734.964 147.641,-737.934"/>
<polygon fill="midnightblue" stroke="midnightblue" points="47.8691,-590.678 42.1594,-581.753 41.0574,-592.29 47.8691,-590.678"/>
</g>
<!-- Node16 -->
<g id="node33" class="node"><title>Node16</title>
<a xlink:href="../../da/d77/plot__impedance_8h.html#a384680e132c69ce4d0a769ddd10fe5b2" target="_top" xlink:title="plot_impedance_vs_frequency">
<polygon fill="white" stroke="black" points="118.5,-692.5 118.5,-713.5 267.5,-713.5 267.5,-692.5 118.5,-692.5"/>
<text text-anchor="middle" x="193" y="-700.5" font-family="Helvetica,sans-Serif" font-size="10.00">plot_impedance_vs_frequency</text>
</a>
</g>
<!-- Node1&#45;&gt;Node16 -->
<g id="edge34" class="edge"><title>Node1&#45;&gt;Node16</title>
<path fill="none" stroke="midnightblue" d="M48.109,-590.847C59.4799,-616.148 82.5847,-659.428 116,-683 121.417,-686.822 127.51,-689.913 133.835,-692.414"/>
<polygon fill="midnightblue" stroke="midnightblue" points="51.2564,-589.307 44.081,-581.512 44.8292,-592.08 51.2564,-589.307"/>
</g>
<!-- Node17 -->
<g id="node35" class="node"><title>Node17</title>
<a xlink:href="../../da/d77/plot__impedance_8h.html#a6f22a73ba44197499a4897c94e2b6ccb" target="_top" xlink:title="plot_induced_voltage\l_vs_bin_centers">
<polygon fill="white" stroke="black" points="139,-640 139,-674 247,-674 247,-640 139,-640"/>
<text text-anchor="start" x="147" y="-661" font-family="Helvetica,sans-Serif" font-size="10.00">plot_induced_voltage</text>
<text text-anchor="middle" x="193" y="-648" font-family="Helvetica,sans-Serif" font-size="10.00">_vs_bin_centers</text>
</a>
</g>
<!-- Node1&#45;&gt;Node17 -->
<g id="edge36" class="edge"><title>Node1&#45;&gt;Node17</title>
<path fill="none" stroke="midnightblue" d="M58.3513,-588.47C72.9997,-601.643 94.5546,-619.369 116,-631 123.194,-634.902 131.08,-638.37 138.976,-641.401"/>
<polygon fill="midnightblue" stroke="midnightblue" points="60.7006,-585.875 50.9684,-581.688 55.9651,-591.031 60.7006,-585.875"/>
</g>
<!-- Node18 -->
<g id="node37" class="node"><title>Node18</title>
<a xlink:href="../../d3/dda/plot__llrf_8h.html#a5e7e6af39dbf4a76e9d24a7573ba5f26" target="_top" xlink:title="plot_LHCNoiseFB">
<polygon fill="white" stroke="black" points="145,-600.5 145,-621.5 241,-621.5 241,-600.5 145,-600.5"/>
<text text-anchor="middle" x="193" y="-608.5" font-family="Helvetica,sans-Serif" font-size="10.00">plot_LHCNoiseFB</text>
</a>
</g>
<!-- Node1&#45;&gt;Node18 -->
<g id="edge38" class="edge"><title>Node1&#45;&gt;Node18</title>
<path fill="none" stroke="midnightblue" d="M89.598,-584.077C98.3917,-586.388 107.464,-588.768 116,-591 127.759,-594.074 140.532,-597.398 152.233,-600.437"/>
<polygon fill="midnightblue" stroke="midnightblue" points="90.393,-580.667 79.8316,-581.508 88.6123,-587.436 90.393,-580.667"/>
</g>
<!-- Node19 -->
<g id="node39" class="node"><title>Node19</title>
<a xlink:href="../../d3/dda/plot__llrf_8h.html#a51bcedf44ad1de89f53a2a7ace2d9ffb" target="_top" xlink:title="plot_LHCNoiseFB_FWHM">
<polygon fill="white" stroke="black" points="126.5,-560.5 126.5,-581.5 259.5,-581.5 259.5,-560.5 126.5,-560.5"/>
<text text-anchor="middle" x="193" y="-568.5" font-family="Helvetica,sans-Serif" font-size="10.00">plot_LHCNoiseFB_FWHM</text>
</a>
</g>
<!-- Node1&#45;&gt;Node19 -->
<g id="edge40" class="edge"><title>Node1&#45;&gt;Node19</title>
<path fill="none" stroke="midnightblue" d="M90.1537,-571C101.749,-571 114.265,-571 126.439,-571"/>
<polygon fill="midnightblue" stroke="midnightblue" points="89.7996,-567.5 79.7995,-571 89.7995,-574.5 89.7996,-567.5"/>
</g>
<!-- Node20 -->
<g id="node41" class="node"><title>Node20</title>
<a xlink:href="../../d3/dda/plot__llrf_8h.html#ad79f78d54d3a92124ce0800391440add" target="_top" xlink:title="plot_LHCNoiseFB_FWHM_bbb">
<polygon fill="white" stroke="black" points="116,-520.5 116,-541.5 270,-541.5 270,-520.5 116,-520.5"/>
<text text-anchor="middle" x="193" y="-528.5" font-family="Helvetica,sans-Serif" font-size="10.00">plot_LHCNoiseFB_FWHM_bbb</text>
</a>
</g>
<!-- Node1&#45;&gt;Node20 -->
<g id="edge42" class="edge"><title>Node1&#45;&gt;Node20</title>
<path fill="none" stroke="midnightblue" d="M89.598,-557.923C98.3917,-555.612 107.464,-553.232 116,-551 127.759,-547.926 140.532,-544.602 152.233,-541.563"/>
<polygon fill="midnightblue" stroke="midnightblue" points="88.6123,-554.564 79.8316,-560.492 90.393,-561.333 88.6123,-554.564"/>
</g>
<!-- Node21 -->
<g id="node43" class="node"><title>Node21</title>
<a xlink:href="../../d8/d94/plot__beams_8h.html#ae6215f03e38354ba5f04e99f640cf700" target="_top" xlink:title="plot_long_phase_space">
<polygon fill="white" stroke="black" points="133.5,-480.5 133.5,-501.5 252.5,-501.5 252.5,-480.5 133.5,-480.5"/>
<text text-anchor="middle" x="193" y="-488.5" font-family="Helvetica,sans-Serif" font-size="10.00">plot_long_phase_space</text>
</a>
</g>
<!-- Node1&#45;&gt;Node21 -->
<g id="edge44" class="edge"><title>Node1&#45;&gt;Node21</title>
<path fill="none" stroke="midnightblue" d="M57.6211,-553.56C72.1514,-540.102 93.8985,-521.983 116,-511 123.545,-507.251 131.866,-504.152 140.165,-501.608"/>
<polygon fill="midnightblue" stroke="midnightblue" points="55.1741,-551.057 50.3348,-560.482 59.9954,-556.132 55.1741,-551.057"/>
</g>
<!-- Node22 -->
<g id="node45" class="node"><title>Node22</title>
<a xlink:href="../../d3/dda/plot__llrf_8h.html#ac30f01e38f6f6a145294930d859ae4f8" target="_top" xlink:title="plot_noise_spectrum">
<polygon fill="white" stroke="black" points="139.5,-440.5 139.5,-461.5 246.5,-461.5 246.5,-440.5 139.5,-440.5"/>
<text text-anchor="middle" x="193" y="-448.5" font-family="Helvetica,sans-Serif" font-size="10.00">plot_noise_spectrum</text>
</a>
</g>
<!-- Node1&#45;&gt;Node22 -->
<g id="edge46" class="edge"><title>Node1&#45;&gt;Node22</title>
<path fill="none" stroke="midnightblue" d="M49.7408,-551.276C62.0331,-528.461 85.3288,-491.426 116,-471 123.012,-466.33 131.055,-462.75 139.238,-460.006"/>
<polygon fill="midnightblue" stroke="midnightblue" points="46.5206,-549.883 45.0184,-560.371 52.733,-553.109 46.5206,-549.883"/>
</g>
<!-- Node23 -->
<g id="node47" class="node"><title>Node23</title>
<a xlink:href="../../d3/dda/plot__llrf_8h.html#a042e6fffb5a6d09ab3bb2dc67637420d" target="_top" xlink:title="plot_phase_noise">
<polygon fill="white" stroke="black" points="147,-400.5 147,-421.5 239,-421.5 239,-400.5 147,-400.5"/>
<text text-anchor="middle" x="193" y="-408.5" font-family="Helvetica,sans-Serif" font-size="10.00">plot_phase_noise</text>
</a>
</g>
<!-- Node1&#45;&gt;Node23 -->
<g id="edge48" class="edge"><title>Node1&#45;&gt;Node23</title>
<path fill="none" stroke="midnightblue" d="M45.3682,-550.687C54.5514,-519.996 76.2483,-462.094 116,-431 124.812,-424.107 135.756,-419.574 146.601,-416.597"/>
<polygon fill="midnightblue" stroke="midnightblue" points="41.9977,-549.744 42.6328,-560.32 48.7315,-551.657 41.9977,-549.744"/>
</g>
<!-- Node24 -->
<g id="node49" class="node"><title>Node24</title>
<a xlink:href="../../d3/dda/plot__llrf_8h.html#a0cd9dca8ef76cd784a3e58025f2d5f46" target="_top" xlink:title="plot_PL_bunch_phase">
<polygon fill="white" stroke="black" points="136.5,-360.5 136.5,-381.5 249.5,-381.5 249.5,-360.5 136.5,-360.5"/>
<text text-anchor="middle" x="193" y="-368.5" font-family="Helvetica,sans-Serif" font-size="10.00">plot_PL_bunch_phase</text>
</a>
</g>
<!-- Node1&#45;&gt;Node24 -->
<g id="edge50" class="edge"><title>Node1&#45;&gt;Node24</title>
<path fill="none" stroke="midnightblue" d="M42.7961,-549.866C48.9326,-512.141 67.1567,-433.212 116,-391 121.852,-385.943 128.828,-382.141 136.157,-379.287"/>
<polygon fill="midnightblue" stroke="midnightblue" points="39.2735,-549.758 41.2592,-560.165 46.1969,-550.791 39.2735,-549.758"/>
</g>
<!-- Node25 -->
<g id="node51" class="node"><title>Node25</title>
<a xlink:href="../../d3/dda/plot__llrf_8h.html#ab1b66029a759c257c6a205088b5ac943" target="_top" xlink:title="plot_PL_freq_corr">
<polygon fill="white" stroke="black" points="146.5,-320.5 146.5,-341.5 239.5,-341.5 239.5,-320.5 146.5,-320.5"/>
<text text-anchor="middle" x="193" y="-328.5" font-family="Helvetica,sans-Serif" font-size="10.00">plot_PL_freq_corr</text>
</a>
</g>
<!-- Node1&#45;&gt;Node25 -->
<g id="edge52" class="edge"><title>Node1&#45;&gt;Node25</title>
<path fill="none" stroke="midnightblue" d="M40.9178,-550.182C44.0005,-506.561 57.4367,-405.138 116,-351 124.316,-343.312 135.205,-338.497 146.165,-335.504"/>
<polygon fill="midnightblue" stroke="midnightblue" points="37.4091,-550.228 40.3146,-560.417 44.397,-550.64 37.4091,-550.228"/>
</g>
<!-- Node26 -->
<g id="node53" class="node"><title>Node26</title>
<a xlink:href="../../d3/dda/plot__llrf_8h.html#ab34b88b795a269148850c5d71afb04ab" target="_top" xlink:title="plot_PL_phase_corr">
<polygon fill="white" stroke="black" points="141.5,-280.5 141.5,-301.5 244.5,-301.5 244.5,-280.5 141.5,-280.5"/>
<text text-anchor="middle" x="193" y="-288.5" font-family="Helvetica,sans-Serif" font-size="10.00">plot_PL_phase_corr</text>
</a>
</g>
<!-- Node1&#45;&gt;Node26 -->
<g id="edge54" class="edge"><title>Node1&#45;&gt;Node26</title>
<path fill="none" stroke="midnightblue" d="M43.3531,-550.352C52.7483,-494.966 80.949,-345.006 116,-311 122.939,-304.268 131.84,-299.722 141.112,-296.67"/>
<polygon fill="midnightblue" stroke="midnightblue" points="39.8729,-549.944 41.683,-560.383 46.7778,-551.094 39.8729,-549.944"/>
</g>
<!-- Node27 -->
<g id="node55" class="node"><title>Node27</title>
<a xlink:href="../../d3/dda/plot__llrf_8h.html#ae31c5d3af630234b7a4c01fb032ee3d1" target="_top" xlink:title="plot_PL_RF_freq">
<polygon fill="white" stroke="black" points="148,-240.5 148,-261.5 238,-261.5 238,-240.5 148,-240.5"/>
<text text-anchor="middle" x="193" y="-248.5" font-family="Helvetica,sans-Serif" font-size="10.00">plot_PL_RF_freq</text>
</a>
</g>
<!-- Node1&#45;&gt;Node27 -->
<g id="edge56" class="edge"><title>Node1&#45;&gt;Node27</title>
<path fill="none" stroke="midnightblue" d="M42.4769,-550.476C50.2375,-489.517 75.9737,-311.268 116,-271 124.471,-262.478 136.078,-257.438 147.71,-254.498"/>
<polygon fill="midnightblue" stroke="midnightblue" points="38.9995,-550.078 41.2377,-560.434 45.9459,-550.943 38.9995,-550.078"/>
</g>
<!-- Node28 -->
<g id="node57" class="node"><title>Node28</title>
<a xlink:href="../../d3/dda/plot__llrf_8h.html#a88e6c6e9563f9a09e5286933ffa97cd6" target="_top" xlink:title="plot_PL_RF_phase">
<polygon fill="white" stroke="black" points="143,-200.5 143,-221.5 243,-221.5 243,-200.5 143,-200.5"/>
<text text-anchor="middle" x="193" y="-208.5" font-family="Helvetica,sans-Serif" font-size="10.00">plot_PL_RF_phase</text>
</a>
</g>
<!-- Node1&#45;&gt;Node28 -->
<g id="edge58" class="edge"><title>Node1&#45;&gt;Node28</title>
<path fill="none" stroke="midnightblue" d="M41.8242,-550.411C48.1107,-484.078 71.0028,-277.563 116,-231 123.198,-223.551 132.788,-218.75 142.75,-215.685"/>
<polygon fill="midnightblue" stroke="midnightblue" points="38.3308,-550.179 40.8988,-560.458 45.3013,-550.821 38.3308,-550.179"/>
</g>
<!-- Node29 -->
<g id="node59" class="node"><title>Node29</title>
<a xlink:href="../../d8/d94/plot__beams_8h.html#ab1102a9d176b48aff9607b9568641ac0" target="_top" xlink:title="plot_position_evol">
<polygon fill="white" stroke="black" points="145.5,-160.5 145.5,-181.5 240.5,-181.5 240.5,-160.5 145.5,-160.5"/>
<text text-anchor="middle" x="193" y="-168.5" font-family="Helvetica,sans-Serif" font-size="10.00">plot_position_evol</text>
</a>
</g>
<!-- Node1&#45;&gt;Node29 -->
<g id="edge60" class="edge"><title>Node1&#45;&gt;Node29</title>
<path fill="none" stroke="midnightblue" d="M41.3027,-550.355C46.2232,-478.948 66.0013,-243.919 116,-191 123.778,-182.768 134.473,-177.757 145.419,-174.749"/>
<polygon fill="midnightblue" stroke="midnightblue" points="37.8089,-550.147 40.6383,-560.358 44.7935,-550.612 37.8089,-550.147"/>
</g>
<!-- Node30 -->
<g id="node61" class="node"><title>Node30</title>
<a xlink:href="../../d3/dda/plot__llrf_8h.html#a1b536e9a32a5a0dc3143c620ee11b816" target="_top" xlink:title="plot_RF_phase_error">
<polygon fill="white" stroke="black" points="139.5,-120.5 139.5,-141.5 246.5,-141.5 246.5,-120.5 139.5,-120.5"/>
<text text-anchor="middle" x="193" y="-128.5" font-family="Helvetica,sans-Serif" font-size="10.00">plot_RF_phase_error</text>
</a>
</g>
<!-- Node1&#45;&gt;Node30 -->
<g id="edge62" class="edge"><title>Node1&#45;&gt;Node30</title>
<path fill="none" stroke="midnightblue" d="M40.8809,-550.209C44.5367,-473.856 60.9976,-210.297 116,-151 122.293,-144.216 130.566,-139.612 139.352,-136.513"/>
<polygon fill="midnightblue" stroke="midnightblue" points="37.3739,-550.285 40.4156,-560.434 44.3666,-550.604 37.3739,-550.285"/>
</g>
<!-- Node31 -->
<g id="node63" class="node"><title>Node31</title>
<a xlink:href="../../d3/dda/plot__llrf_8h.html#a75ca1c1f14b3af3f4ba26b67f1d17076" target="_top" xlink:title="plot_RL_radial_error">
<polygon fill="white" stroke="black" points="141,-80.5 141,-101.5 245,-101.5 245,-80.5 141,-80.5"/>
<text text-anchor="middle" x="193" y="-88.5" font-family="Helvetica,sans-Serif" font-size="10.00">plot_RL_radial_error</text>
</a>
</g>
<!-- Node1&#45;&gt;Node31 -->
<g id="edge64" class="edge"><title>Node1&#45;&gt;Node31</title>
<path fill="none" stroke="midnightblue" d="M40.5338,-549.831C43.0188,-468.401 56.0324,-176.649 116,-111 122.614,-103.76 131.482,-98.9972 140.845,-95.8949"/>
<polygon fill="midnightblue" stroke="midnightblue" points="37.0228,-550.172 40.2392,-560.267 44.0201,-550.37 37.0228,-550.172"/>
</g>
<!-- Node32 -->
<g id="node65" class="node"><title>Node32</title>
<a xlink:href="../../d8/d94/plot__beams_8h.html#a198f97a92351f9813d557ebd71b482ee" target="_top" xlink:title="plot_transmitted_particles">
<polygon fill="white" stroke="black" points="129,-40.5 129,-61.5 257,-61.5 257,-40.5 129,-40.5"/>
<text text-anchor="middle" x="193" y="-48.5" font-family="Helvetica,sans-Serif" font-size="10.00">plot_transmitted_particles</text>
</a>
</g>
<!-- Node1&#45;&gt;Node32 -->
<g id="edge66" class="edge"><title>Node1&#45;&gt;Node32</title>
<path fill="none" stroke="midnightblue" d="M40.2199,-550.201C41.548,-464.933 50.8653,-143.235 116,-71 119.7,-66.897 124.123,-63.588 128.954,-60.9249"/>
<polygon fill="midnightblue" stroke="midnightblue" points="36.7201,-550.166 40.085,-560.212 43.7195,-550.26 36.7201,-550.166"/>
</g>
<!-- Node33 -->
<g id="node67" class="node"><title>Node33</title>
<a xlink:href="../../d8/d1b/plot__parameters_8h.html#a12d0870215c7365ba3c9b175bc7e18c5" target="_top" xlink:title="plot_voltage_programme">
<polygon fill="white" stroke="black" points="131.5,-0.5 131.5,-21.5 254.5,-21.5 254.5,-0.5 131.5,-0.5"/>
<text text-anchor="middle" x="193" y="-8.5" font-family="Helvetica,sans-Serif" font-size="10.00">plot_voltage_programme</text>
</a>
</g>
<!-- Node1&#45;&gt;Node33 -->
<g id="edge68" class="edge"><title>Node1&#45;&gt;Node33</title>
<path fill="none" stroke="midnightblue" d="M41.5743,-550.133C48.8836,-455.629 80.6539,-70.6361 116,-31 120.32,-26.1551 125.65,-22.4151 131.472,-19.5376"/>
<polygon fill="midnightblue" stroke="midnightblue" points="38.0792,-549.937 40.8056,-560.175 45.0588,-550.471 38.0792,-549.937"/>
</g>
<!-- Node3 -->
<g id="node5" class="node"><title>Node3</title>
<a xlink:href="../../dc/d7d/Distributions_8h.html#a39ba163b714fe197bd81ac64ffa48d30" target="_top" xlink:title="matched_from_distribution\l_density">
<polygon fill="white" stroke="black" points="308.5,-1154 308.5,-1188 439.5,-1188 439.5,-1154 308.5,-1154"/>
<text text-anchor="start" x="316.5" y="-1175" font-family="Helvetica,sans-Serif" font-size="10.00">matched_from_distribution</text>
<text text-anchor="middle" x="374" y="-1162" font-family="Helvetica,sans-Serif" font-size="10.00">_density</text>
</a>
</g>
<!-- Node2&#45;&gt;Node3 -->
<g id="edge4" class="edge"><title>Node2&#45;&gt;Node3</title>
<path fill="none" stroke="midnightblue" d="M271.835,-1171C284.02,-1171 296.493,-1171 308.348,-1171"/>
<polygon fill="midnightblue" stroke="midnightblue" points="271.686,-1167.5 261.686,-1171 271.686,-1174.5 271.686,-1167.5"/>
</g>
<!-- Node5 -->
<g id="node9" class="node"><title>Node5</title>
<a xlink:href="../../dc/d7d/Distributions_8h.html#af8a750601d38e475a922ae843f837cc9" target="_top" xlink:title="matched_from_line_density">
<polygon fill="white" stroke="black" points="306,-1108.5 306,-1129.5 442,-1129.5 442,-1108.5 306,-1108.5"/>
<text text-anchor="middle" x="374" y="-1116.5" font-family="Helvetica,sans-Serif" font-size="10.00">matched_from_line_density</text>
</a>
</g>
<!-- Node4&#45;&gt;Node5 -->
<g id="edge8" class="edge"><title>Node4&#45;&gt;Node5</title>
<path fill="none" stroke="midnightblue" d="M255.778,-1119C271.967,-1119 289.467,-1119 305.912,-1119"/>
<polygon fill="midnightblue" stroke="midnightblue" points="255.353,-1115.5 245.353,-1119 255.353,-1122.5 255.353,-1115.5"/>
</g>
<!-- Node7 -->
<g id="node13" class="node"><title>Node7</title>
<a xlink:href="../../dc/d45/classSlices.html#ada42a57f8bea7bb582076bfb6f9f1812" target="_top" xlink:title="Slices::beam_profile\l_derivative">
<polygon fill="white" stroke="black" points="321.5,-1022 321.5,-1056 426.5,-1056 426.5,-1022 321.5,-1022"/>
<text text-anchor="start" x="329.5" y="-1043" font-family="Helvetica,sans-Serif" font-size="10.00">Slices::beam_profile</text>
<text text-anchor="middle" x="374" y="-1030" font-family="Helvetica,sans-Serif" font-size="10.00">_derivative</text>
</a>
</g>
<!-- Node6&#45;&gt;Node7 -->
<g id="edge12" class="edge"><title>Node6&#45;&gt;Node7</title>
<path fill="none" stroke="midnightblue" d="M259.182,-1060.57C279.694,-1056.71 302.007,-1052.52 321.461,-1048.87"/>
<polygon fill="midnightblue" stroke="midnightblue" points="258.459,-1057.14 249.277,-1062.43 259.752,-1064.02 258.459,-1057.14"/>
</g>
<!-- Node7&#45;&gt;Node8 -->
<g id="edge14" class="edge"><title>Node7&#45;&gt;Node8</title>
<path fill="none" stroke="midnightblue" d="M436.699,-1030.71C450.046,-1028.95 464.222,-1027.07 477.828,-1025.28"/>
<polygon fill="midnightblue" stroke="midnightblue" points="436.133,-1027.26 426.678,-1032.04 437.05,-1034.2 436.133,-1027.26"/>
</g>
<!-- Node9&#45;&gt;Node7 -->
<g id="edge18" class="edge"><title>Node9&#45;&gt;Node7</title>
<path fill="none" stroke="midnightblue" d="M245.712,-1034.75C269.552,-1035.54 297.657,-1036.47 321.474,-1037.26"/>
<polygon fill="midnightblue" stroke="midnightblue" points="245.547,-1031.24 235.436,-1034.41 245.315,-1038.24 245.547,-1031.24"/>
</g>
</g>
</svg>
        <g id="navigator" transform="translate(0 0)" fill="#404254">
                <rect fill="#f2f5e9" fill-opacity="0.5" stroke="#606060" stroke-width=".5" x="0" y="0" width="60" height="60"/>
                <use id="zoomplus" xlink:href="#zoomPlus" x="17" y="9" onmousedown="handleZoom(evt,'in')"/>
                <use id="zoomminus" xlink:href="#zoomMin" x="42" y="9" onmousedown="handleZoom(evt,'out')"/>
                <use id="reset" xlink:href="#resetDef" x="30" y="36" onmousedown="handleReset()"/>
                <g id="arrowUp" xlink:href="#dirArrow" transform="translate(30 24)" onmousedown="handlePan(0,-1)">
                  <use xlink:href="#rim" fill="#404040">
                        <set attributeName="fill" to="#808080" begin="arrowUp.mouseover" end="arrowUp.mouseout"/>
                  </use>
                  <path fill="none" stroke="white" stroke-width="1.5" d="M0,-3.0v7 M-2.5,-0.5L0,-3.0L2.5,-0.5"/>
                </g>
                <g id="arrowRight" xlink:href="#dirArrow" transform="rotate(90) translate(36 -43)" onmousedown="handlePan(1,0)">
                  <use xlink:href="#rim" fill="#404040">
                        <set attributeName="fill" to="#808080" begin="arrowRight.mouseover" end="arrowRight.mouseout"/>
                  </use>
                  <path fill="none" stroke="white" stroke-width="1.5" d="M0,-3.0v7 M-2.5,-0.5L0,-3.0L2.5,-0.5"/>
                </g>
                <g id="arrowDown" xlink:href="#dirArrow" transform="rotate(180) translate(-30 -48)" onmousedown="handlePan(0,1)">
                  <use xlink:href="#rim" fill="#404040">
                        <set attributeName="fill" to="#808080" begin="arrowDown.mouseover" end="arrowDown.mouseout"/>
                  </use>
                  <path fill="none" stroke="white" stroke-width="1.5" d="M0,-3.0v7 M-2.5,-0.5L0,-3.0L2.5,-0.5"/>
                </g>
                <g id="arrowLeft" xlink:href="#dirArrow" transform="rotate(270) translate(-36 17)" onmousedown="handlePan(-1,0)">
                  <use xlink:href="#rim" fill="#404040">
                        <set attributeName="fill" to="#808080" begin="arrowLeft.mouseover" end="arrowLeft.mouseout"/>
                  </use>
                  <path fill="none" stroke="white" stroke-width="1.5" d="M0,-3.0v7 M-2.5,-0.5L0,-3.0L2.5,-0.5"/>
                </g>
        </g>
        <svg viewBox="0 0 15 15" width="100%" height="30px" preserveAspectRatio="xMaxYMin meet">
         <g id="arrow_out" transform="scale(0.3 0.3)">
          <a xlink:href="namespacepython_a713f8b295244715fb64ea92c5b172d33_icgraph_org.svg" target="_base">
           <rect id="button" ry="5" rx="5" y="6" x="6" height="38" width="38"
                fill="#f2f5e9" fill-opacity="0.5" stroke="#606060" stroke-width="1.0"/>
           <path id="arrow"
             d="M 11.500037,31.436501 C 11.940474,20.09759 22.043105,11.32322 32.158766,21.979434 L 37.068811,17.246167 C 37.068811,17.246167 37.088388,32 37.088388,32 L 22.160133,31.978069 C 22.160133,31.978069 26.997745,27.140456 26.997745,27.140456 C 18.528582,18.264221 13.291696,25.230495 11.500037,31.436501 z"
             style="fill:#404040;"/>
          </a>
         </g>
        </svg>
</svg>
