<?xml version="1.0" encoding="UTF-8" standalone="no"?>
<!DOCTYPE svg PUBLIC "-//W3C//DTD SVG 1.1//EN"
 "http://www.w3.org/Graphics/SVG/1.1/DTD/svg11.dtd">
<!-- Generated by graphviz version 2.26.3 (20100126.1600)
 -->
<!-- Title: python::convert_complex_array Pages: 1 -->
<svg width="320pt" height="70pt"
 viewBox="0.00 0.00 320.00 70.00" xmlns="http://www.w3.org/2000/svg" xmlns:xlink="http://www.w3.org/1999/xlink">
<g id="graph1" class="graph" transform="scale(1 1) rotate(0) translate(4 66)">
<title>python::convert_complex_array</title>
<polygon fill="white" stroke="white" points="-4,5 -4,-66 317,-66 317,5 -4,5"/>
<!-- Node1 -->
<g id="node1" class="node"><title>Node1</title>
<polygon fill="#bfbfbf" stroke="black" points="0,-14 0,-48 126,-48 126,-14 0,-14"/>
<text text-anchor="start" x="8" y="-35" font-family="Helvetica,sans-Serif" font-size="10.00">python::convert_complex</text>
<text text-anchor="middle" x="63" y="-22" font-family="Helvetica,sans-Serif" font-size="10.00">_array</text>
</g>
<!-- Node2 -->
<g id="node3" class="node"><title>Node2</title>
<a xlink:href="../../d2/d51/plot__slices_8h.html#a97786bacfe2a198ca748d497ecd0c3c8" target="_top" xlink:title="plot_beam_spectrum">
<polygon fill="white" stroke="black" points="183.5,-40.5 183.5,-61.5 290.5,-61.5 290.5,-40.5 183.5,-40.5"/>
<text text-anchor="middle" x="237" y="-48.5" font-family="Helvetica,sans-Serif" font-size="10.00">plot_beam_spectrum</text>
</a>
</g>
<!-- Node1&#45;&gt;Node2 -->
<g id="edge2" class="edge"><title>Node1&#45;&gt;Node2</title>
<path fill="none" stroke="midnightblue" d="M136.551,-39.4542C152.302,-41.2645 168.654,-43.1442 183.477,-44.848"/>
<polygon fill="midnightblue" stroke="midnightblue" points="136.644,-35.9419 126.31,-38.277 135.845,-42.8961 136.644,-35.9419"/>
</g>
<!-- Node3 -->
<g id="node5" class="node"><title>Node3</title>
<a xlink:href="../../da/d77/plot__impedance_8h.html#a2c91da10e1b692849d85e285874f90b3" target="_top" xlink:title="plot_impedance_vs_frequency">
<polygon fill="white" stroke="black" points="162.5,-0.5 162.5,-21.5 311.5,-21.5 311.5,-0.5 162.5,-0.5"/>
<text text-anchor="middle" x="237" y="-8.5" font-family="Helvetica,sans-Serif" font-size="10.00">plot_impedance_vs_frequency</text>
</a>
</g>
<!-- Node1&#45;&gt;Node3 -->
<g id="edge4" class="edge"><title>Node1&#45;&gt;Node3</title>
<path fill="none" stroke="midnightblue" d="M136.274,-22.5777C144.85,-21.5919 153.61,-20.5851 162.206,-19.597"/>
<polygon fill="midnightblue" stroke="midnightblue" points="135.845,-19.1039 126.31,-23.723 136.644,-26.0581 135.845,-19.1039"/>
</g>
</g>
</svg>
