<?xml version="1.0" encoding="UTF-8" standalone="no"?>
<!DOCTYPE svg PUBLIC "-//W3C//DTD SVG 1.1//EN"
 "http://www.w3.org/Graphics/SVG/1.1/DTD/svg11.dtd">
<!-- Generated by graphviz version 2.26.3 (20100126.1600)
 -->
<!-- Title: python::convert_double_list Pages: 1 -->
<svg width="470pt" height="30pt"
 viewBox="0.00 0.00 470.00 30.00" xmlns="http://www.w3.org/2000/svg" xmlns:xlink="http://www.w3.org/1999/xlink">
<g id="graph1" class="graph" transform="scale(1 1) rotate(0) translate(4 26)">
<title>python::convert_double_list</title>
<polygon fill="white" stroke="white" points="-4,5 -4,-26 467,-26 467,5 -4,5"/>
<!-- Node1 -->
<g id="node1" class="node"><title>Node1</title>
<polygon fill="#bfbfbf" stroke="black" points="0,-0.5 0,-21.5 136,-21.5 136,-0.5 0,-0.5"/>
<text text-anchor="middle" x="68" y="-8.5" font-family="Helvetica,sans-Serif" font-size="10.00">python::convert_double_list</text>
</g>
<!-- Node2 -->
<g id="node3" class="node"><title>Node2</title>
<a xlink:href="../../de/d4a/namespacepython.html#a75933ea0e6bf3093dcf01814bc534580" target="_top" xlink:title="python::convert_double_list">
<polygon fill="white" stroke="black" points="172,-0.5 172,-21.5 308,-21.5 308,-0.5 172,-0.5"/>
<text text-anchor="middle" x="240" y="-8.5" font-family="Helvetica,sans-Serif" font-size="10.00">python::convert_double_list</text>
</a>
</g>
<!-- Node1&#45;&gt;Node2 -->
<g id="edge2" class="edge"><title>Node1&#45;&gt;Node2</title>
<path fill="none" stroke="midnightblue" d="M136.473,-11C144.732,-11 153.216,-11 161.602,-11"/>
<polygon fill="midnightblue" stroke="midnightblue" points="161.762,-14.5001 171.762,-11 161.762,-7.5001 161.762,-14.5001"/>
</g>
<!-- Node3 -->
<g id="node5" class="node"><title>Node3</title>
<a xlink:href="../../de/d4a/namespacepython.html#a740e30ed26764f275117126a9547767c" target="_top" xlink:title="python::convert_double">
<polygon fill="white" stroke="black" points="344,-0.5 344,-21.5 462,-21.5 462,-0.5 344,-0.5"/>
<text text-anchor="middle" x="403" y="-8.5" font-family="Helvetica,sans-Serif" font-size="10.00">python::convert_double</text>
</a>
</g>
<!-- Node2&#45;&gt;Node3 -->
<g id="edge4" class="edge"><title>Node2&#45;&gt;Node3</title>
<path fill="none" stroke="midnightblue" d="M308.182,-11C316.617,-11 325.248,-11 333.699,-11"/>
<polygon fill="midnightblue" stroke="midnightblue" points="333.894,-14.5001 343.894,-11 333.894,-7.5001 333.894,-14.5001"/>
</g>
</g>
</svg>
