<?xml version="1.0" encoding="UTF-8" standalone="no"?>
<!DOCTYPE svg PUBLIC "-//W3C//DTD SVG 1.1//EN"
 "http://www.w3.org/Graphics/SVG/1.1/DTD/svg11.dtd">
<!-- Generated by graphviz version 2.26.3 (20100126.1600)
 -->
<!-- Title: python::convert_string Pages: 1 -->
<!--zoomable 1134 -->
<svg id="main" version="1.1" xmlns="http://www.w3.org/2000/svg" xmlns:xlink="http://www.w3.org/1999/xlink" xml:space="preserve" onload="init(evt)">
        <defs>
                <circle id="rim" cx="0" cy="0" r="7"/>
                <circle id="rim2" cx="0" cy="0" r="3.5"/>
                <g id="zoomPlus">
                        <use xlink:href="#rim" fill="#404040">
                                <set attributeName="fill" to="#808080" begin="zoomplus.mouseover" end="zoomplus.mouseout"/>
                        </use>
                        <path d="M-4,0h8M0,-4v8" fill="none" stroke="white" stroke-width="1.5" pointer-events="none"/>
                </g>
                <g id="zoomMin">
                        <use xlink:href="#rim" fill="#404040">
                                <set attributeName="fill" to="#808080" begin="zoomminus.mouseover" end="zoomminus.mouseout"/>
                        </use>
                        <path d="M-4,0h8" fill="none" stroke="white" stroke-width="1.5" pointer-events="none"/>
                </g>
                <g id="dirArrow">
                        <path fill="none" stroke="white" stroke-width="1.5" d="M0,-3.0v7 M-2.5,-0.5L0,-3.0L2.5,-0.5"/>
                </g>
               <g id="resetDef">
                       <use xlink:href="#rim2" fill="#404040">
                               <set attributeName="fill" to="#808080" begin="reset.mouseover" end="reset.mouseout"/>
                       </use>
               </g>
        </defs>

<script type="text/javascript">
var viewWidth = 484;
var viewHeight = 1134;
var sectionId = 'dynsection-8';
</script>
<script xlink:href="../../svgpan.js"/>
<svg id="graph" class="graph">
<g id="viewport">
<title>python::convert_string</title>
<polygon fill="white" stroke="white" points="-4,5 -4,-1130 481,-1130 481,5 -4,5"/>
<!-- Node1 -->
<g id="node1" class="node"><title>Node1</title>
<polygon fill="#bfbfbf" stroke="black" points="0.5,-540.5 0.5,-561.5 113.5,-561.5 113.5,-540.5 0.5,-540.5"/>
<text text-anchor="middle" x="57" y="-548.5" font-family="Helvetica,sans-Serif" font-size="10.00">python::convert_string</text>
</g>
<!-- Node2 -->
<g id="node3" class="node"><title>Node2</title>
<a xlink:href="../../dc/d45/classSlices.html#ab1443b2ebec9ed465a8301be8e1c747f" target="_top" xlink:title="Slices::gaussian_filter1d">
<polygon fill="white" stroke="black" points="165.5,-1104.5 165.5,-1125.5 288.5,-1125.5 288.5,-1104.5 165.5,-1104.5"/>
<text text-anchor="middle" x="227" y="-1112.5" font-family="Helvetica,sans-Serif" font-size="10.00">Slices::gaussian_filter1d</text>
</a>
</g>
<!-- Node1&#45;&gt;Node2 -->
<g id="edge2" class="edge"><title>Node1&#45;&gt;Node2</title>
<path fill="none" stroke="midnightblue" d="M57.6364,-571.91C60.804,-662.041 77.7393,-1016.34 150,-1095 154.298,-1099.68 159.538,-1103.32 165.242,-1106.15"/>
<polygon fill="midnightblue" stroke="midnightblue" points="61.132,-571.715 57.3023,-561.837 54.1358,-571.948 61.132,-571.715"/>
</g>
<!-- Node3 -->
<g id="node5" class="node"><title>Node3</title>
<a xlink:href="../../d2/d51/plot__slices_8h.html#a880d8f74eddb227b7ce8bd03a684f57e" target="_top" xlink:title="plot_beam_profile">
<polygon fill="white" stroke="black" points="180.5,-1064.5 180.5,-1085.5 273.5,-1085.5 273.5,-1064.5 180.5,-1064.5"/>
<text text-anchor="middle" x="227" y="-1072.5" font-family="Helvetica,sans-Serif" font-size="10.00">plot_beam_profile</text>
</a>
</g>
<!-- Node1&#45;&gt;Node3 -->
<g id="edge4" class="edge"><title>Node1&#45;&gt;Node3</title>
<path fill="none" stroke="midnightblue" d="M57.9507,-572.002C62.2714,-658.094 82.8447,-982.852 150,-1055 157.905,-1063.49 168.912,-1068.56 180.135,-1071.55"/>
<polygon fill="midnightblue" stroke="midnightblue" points="61.441,-571.714 57.4643,-561.894 54.4491,-572.05 61.441,-571.714"/>
</g>
<!-- Node4 -->
<g id="node7" class="node"><title>Node4</title>
<a xlink:href="../../d2/d51/plot__slices_8h.html#ad931c13f8d5ee8947ed320ac51b3a2b3" target="_top" xlink:title="plot_beam_profile_derivative">
<polygon fill="white" stroke="black" points="157,-1024.5 157,-1045.5 297,-1045.5 297,-1024.5 157,-1024.5"/>
<text text-anchor="middle" x="227" y="-1032.5" font-family="Helvetica,sans-Serif" font-size="10.00">plot_beam_profile_derivative</text>
</a>
</g>
<!-- Node1&#45;&gt;Node4 -->
<g id="edge6" class="edge"><title>Node1&#45;&gt;Node4</title>
<path fill="none" stroke="midnightblue" d="M58.3062,-571.888C63.8255,-653.461 87.8797,-949.279 150,-1015 153.605,-1018.81 157.837,-1021.94 162.429,-1024.49"/>
<polygon fill="midnightblue" stroke="midnightblue" points="61.7946,-571.596 57.6484,-561.846 54.8096,-572.053 61.7946,-571.596"/>
</g>
<!-- Node5 -->
<g id="node9" class="node"><title>Node5</title>
<a xlink:href="../../d2/d51/plot__slices_8h.html#a97786bacfe2a198ca748d497ecd0c3c8" target="_top" xlink:title="plot_beam_spectrum">
<polygon fill="white" stroke="black" points="173.5,-984.5 173.5,-1005.5 280.5,-1005.5 280.5,-984.5 173.5,-984.5"/>
<text text-anchor="middle" x="227" y="-992.5" font-family="Helvetica,sans-Serif" font-size="10.00">plot_beam_spectrum</text>
</a>
</g>
<!-- Node1&#45;&gt;Node5 -->
<g id="edge8" class="edge"><title>Node1&#45;&gt;Node5</title>
<path fill="none" stroke="midnightblue" d="M58.746,-572.028C65.5752,-649.245 92.959,-915.737 150,-975 156.321,-981.568 164.501,-986.078 173.161,-989.156"/>
<polygon fill="midnightblue" stroke="midnightblue" points="62.2006,-571.349 57.8555,-561.687 55.2264,-571.95 62.2006,-571.349"/>
</g>
<!-- Node6 -->
<g id="node11" class="node"><title>Node6</title>
<a xlink:href="../../d8/d94/plot__beams_8h.html#ad94cdaedd5dbe47dd60c3c54213cfd30" target="_top" xlink:title="plot_bunch_length_evol">
<polygon fill="white" stroke="black" points="167.5,-944.5 167.5,-965.5 286.5,-965.5 286.5,-944.5 167.5,-944.5"/>
<text text-anchor="middle" x="227" y="-952.5" font-family="Helvetica,sans-Serif" font-size="10.00">plot_bunch_length_evol</text>
</a>
</g>
<!-- Node1&#45;&gt;Node6 -->
<g id="edge10" class="edge"><title>Node1&#45;&gt;Node6</title>
<path fill="none" stroke="midnightblue" d="M59.249,-571.902C67.4388,-644.194 97.9493,-882.083 150,-935 154.94,-940.022 160.967,-943.836 167.453,-946.726"/>
<polygon fill="midnightblue" stroke="midnightblue" points="62.7069,-571.329 58.1263,-561.776 55.7496,-572.1 62.7069,-571.329"/>
</g>
<!-- Node7 -->
<g id="node13" class="node"><title>Node7</title>
<a xlink:href="../../d8/d94/plot__beams_8h.html#a0db7edddd522f6703fbdf92e5a512ef5" target="_top" xlink:title="plot_bunch_length_evol\l_gaussian">
<polygon fill="white" stroke="black" points="167.5,-892 167.5,-926 286.5,-926 286.5,-892 167.5,-892"/>
<text text-anchor="start" x="175.5" y="-913" font-family="Helvetica,sans-Serif" font-size="10.00">plot_bunch_length_evol</text>
<text text-anchor="middle" x="227" y="-900" font-family="Helvetica,sans-Serif" font-size="10.00">_gaussian</text>
</a>
</g>
<!-- Node1&#45;&gt;Node7 -->
<g id="edge12" class="edge"><title>Node1&#45;&gt;Node7</title>
<path fill="none" stroke="midnightblue" d="M60.2466,-571.856C70.8122,-637.256 106.081,-836.712 150,-883 154.953,-888.22 160.988,-892.392 167.478,-895.727"/>
<polygon fill="midnightblue" stroke="midnightblue" points="63.6409,-570.914 58.6141,-561.588 56.7277,-572.013 63.6409,-570.914"/>
</g>
<!-- Node8 -->
<g id="node15" class="node"><title>Node8</title>
<a xlink:href="../../d3/dda/plot__llrf_8h.html#af5a02a39bc6683e75fbb078ba25f91cd" target="_top" xlink:title="plot_COM_motion">
<polygon fill="white" stroke="black" points="179.5,-852.5 179.5,-873.5 274.5,-873.5 274.5,-852.5 179.5,-852.5"/>
<text text-anchor="middle" x="227" y="-860.5" font-family="Helvetica,sans-Serif" font-size="10.00">plot_COM_motion</text>
</a>
</g>
<!-- Node1&#45;&gt;Node8 -->
<g id="edge14" class="edge"><title>Node1&#45;&gt;Node8</title>
<path fill="none" stroke="midnightblue" d="M60.9269,-571.798C72.6912,-631.987 109.358,-804.503 150,-843 158.022,-850.598 168.55,-855.401 179.234,-858.413"/>
<polygon fill="midnightblue" stroke="midnightblue" points="64.296,-570.784 58.9682,-561.626 57.4223,-572.107 64.296,-570.784"/>
</g>
<!-- Node9 -->
<g id="node17" class="node"><title>Node9</title>
<a xlink:href="../../d8/d94/plot__beams_8h.html#a4c91d74ff98dda69ada829279371d511" target="_top" xlink:title="plot_energy_evol">
<polygon fill="white" stroke="black" points="182,-812.5 182,-833.5 272,-833.5 272,-812.5 182,-812.5"/>
<text text-anchor="middle" x="227" y="-820.5" font-family="Helvetica,sans-Serif" font-size="10.00">plot_energy_evol</text>
</a>
</g>
<!-- Node1&#45;&gt;Node9 -->
<g id="edge16" class="edge"><title>Node1&#45;&gt;Node9</title>
<path fill="none" stroke="midnightblue" d="M58.3874,-571.929C62.7456,-620.195 80.3844,-739.983 150,-803 158.806,-810.971 170.385,-815.844 181.881,-818.8"/>
<polygon fill="midnightblue" stroke="midnightblue" points="61.8608,-571.455 57.5753,-561.766 54.883,-572.013 61.8608,-571.455"/>
</g>
<!-- Node10 -->
<g id="node19" class="node"><title>Node10</title>
<a xlink:href="../../dc/d7d/Distributions_8h.html#acbf747cb2f921b5b334987f33a027741" target="_top" xlink:title="plot_generated_bunch">
<polygon fill="white" stroke="black" points="171,-772.5 171,-793.5 283,-793.5 283,-772.5 171,-772.5"/>
<text text-anchor="middle" x="227" y="-780.5" font-family="Helvetica,sans-Serif" font-size="10.00">plot_generated_bunch</text>
</a>
</g>
<!-- Node1&#45;&gt;Node10 -->
<g id="edge18" class="edge"><title>Node1&#45;&gt;Node10</title>
<path fill="none" stroke="midnightblue" d="M60.0009,-571.767C67.2775,-614.337 89.9068,-711.79 150,-763 155.992,-768.106 163.133,-771.93 170.614,-774.79"/>
<polygon fill="midnightblue" stroke="midnightblue" points="63.4334,-571.066 58.4022,-561.742 56.5207,-572.168 63.4334,-571.066"/>
</g>
<!-- Node12 -->
<g id="node23" class="node"><title>Node12</title>
<a xlink:href="../../da/d77/plot__impedance_8h.html#a2c91da10e1b692849d85e285874f90b3" target="_top" xlink:title="plot_impedance_vs_frequency">
<polygon fill="white" stroke="black" points="152.5,-732.5 152.5,-753.5 301.5,-753.5 301.5,-732.5 152.5,-732.5"/>
<text text-anchor="middle" x="227" y="-740.5" font-family="Helvetica,sans-Serif" font-size="10.00">plot_impedance_vs_frequency</text>
</a>
</g>
<!-- Node1&#45;&gt;Node12 -->
<g id="edge22" class="edge"><title>Node1&#45;&gt;Node12</title>
<path fill="none" stroke="midnightblue" d="M62.331,-571.811C72.7601,-608.215 99.3887,-683.344 150,-723 154.892,-726.833 160.444,-729.937 166.272,-732.449"/>
<polygon fill="midnightblue" stroke="midnightblue" points="65.6182,-570.563 59.6059,-561.839 58.8658,-572.408 65.6182,-570.563"/>
</g>
<!-- Node13 -->
<g id="node25" class="node"><title>Node13</title>
<a xlink:href="../../da/d77/plot__impedance_8h.html#af6f3f2783431ef676828a728fdd28490" target="_top" xlink:title="plot_induced_voltage\l_vs_bin_centers">
<polygon fill="white" stroke="black" points="173,-680 173,-714 281,-714 281,-680 173,-680"/>
<text text-anchor="start" x="181" y="-701" font-family="Helvetica,sans-Serif" font-size="10.00">plot_induced_voltage</text>
<text text-anchor="middle" x="227" y="-688" font-family="Helvetica,sans-Serif" font-size="10.00">_vs_bin_centers</text>
</a>
</g>
<!-- Node1&#45;&gt;Node13 -->
<g id="edge24" class="edge"><title>Node1&#45;&gt;Node13</title>
<path fill="none" stroke="midnightblue" d="M67.3815,-570.745C82.2672,-597.227 112.108,-644.031 150,-671 156.897,-675.909 164.791,-679.945 172.835,-683.248"/>
<polygon fill="midnightblue" stroke="midnightblue" points="70.2908,-568.77 62.423,-561.675 64.1486,-572.128 70.2908,-568.77"/>
</g>
<!-- Node14 -->
<g id="node27" class="node"><title>Node14</title>
<a xlink:href="../../d3/dda/plot__llrf_8h.html#acd7e44035fa3120550b2e4043a09de31" target="_top" xlink:title="plot_LHCNoiseFB">
<polygon fill="white" stroke="black" points="179,-640.5 179,-661.5 275,-661.5 275,-640.5 179,-640.5"/>
<text text-anchor="middle" x="227" y="-648.5" font-family="Helvetica,sans-Serif" font-size="10.00">plot_LHCNoiseFB</text>
</a>
</g>
<!-- Node1&#45;&gt;Node14 -->
<g id="edge26" class="edge"><title>Node1&#45;&gt;Node14</title>
<path fill="none" stroke="midnightblue" d="M73.2701,-569.203C90.5631,-587.454 119.566,-615.068 150,-631 158.933,-635.676 169.032,-639.312 178.906,-642.12"/>
<polygon fill="midnightblue" stroke="midnightblue" points="75.548,-566.512 66.1855,-561.552 70.4117,-571.268 75.548,-566.512"/>
</g>
<!-- Node15 -->
<g id="node29" class="node"><title>Node15</title>
<a xlink:href="../../d3/dda/plot__llrf_8h.html#a56ecdfbeea2fc00be9bcca4a3747cdeb" target="_top" xlink:title="plot_LHCNoiseFB_FWHM">
<polygon fill="white" stroke="black" points="160.5,-600.5 160.5,-621.5 293.5,-621.5 293.5,-600.5 160.5,-600.5"/>
<text text-anchor="middle" x="227" y="-608.5" font-family="Helvetica,sans-Serif" font-size="10.00">plot_LHCNoiseFB_FWHM</text>
</a>
</g>
<!-- Node1&#45;&gt;Node15 -->
<g id="edge28" class="edge"><title>Node1&#45;&gt;Node15</title>
<path fill="none" stroke="midnightblue" d="M88.502,-565.969C106.296,-574.062 129.097,-583.837 150,-591 160.061,-594.448 171.035,-597.631 181.464,-600.397"/>
<polygon fill="midnightblue" stroke="midnightblue" points="89.7226,-562.678 79.1755,-561.673 86.7939,-569.036 89.7226,-562.678"/>
</g>
<!-- Node16 -->
<g id="node31" class="node"><title>Node16</title>
<a xlink:href="../../d3/dda/plot__llrf_8h.html#a323326634be1c515da00ebd14f8ed8b3" target="_top" xlink:title="plot_LHCNoiseFB_FWHM_bbb">
<polygon fill="white" stroke="black" points="150,-560.5 150,-581.5 304,-581.5 304,-560.5 150,-560.5"/>
<text text-anchor="middle" x="227" y="-568.5" font-family="Helvetica,sans-Serif" font-size="10.00">plot_LHCNoiseFB_FWHM_bbb</text>
</a>
</g>
<!-- Node1&#45;&gt;Node16 -->
<g id="edge30" class="edge"><title>Node1&#45;&gt;Node16</title>
<path fill="none" stroke="midnightblue" d="M123.553,-558.83C132.148,-559.841 141.008,-560.883 149.757,-561.913"/>
<polygon fill="midnightblue" stroke="midnightblue" points="123.948,-555.352 113.608,-557.66 123.13,-562.304 123.948,-555.352"/>
</g>
<!-- Node17 -->
<g id="node33" class="node"><title>Node17</title>
<a xlink:href="../../d8/d94/plot__beams_8h.html#a60f0c5f4e19f811bd8cea940c70007b6" target="_top" xlink:title="plot_long_phase_space">
<polygon fill="white" stroke="black" points="167.5,-520.5 167.5,-541.5 286.5,-541.5 286.5,-520.5 167.5,-520.5"/>
<text text-anchor="middle" x="227" y="-528.5" font-family="Helvetica,sans-Serif" font-size="10.00">plot_long_phase_space</text>
</a>
</g>
<!-- Node1&#45;&gt;Node17 -->
<g id="edge32" class="edge"><title>Node1&#45;&gt;Node17</title>
<path fill="none" stroke="midnightblue" d="M123.916,-543.128C138.282,-541.437 153.371,-539.662 167.436,-538.008"/>
<polygon fill="midnightblue" stroke="midnightblue" points="123.13,-539.696 113.608,-544.34 123.948,-546.648 123.13,-539.696"/>
</g>
<!-- Node18 -->
<g id="node35" class="node"><title>Node18</title>
<a xlink:href="../../d3/dda/plot__llrf_8h.html#a333661d5cf95b6534ac63ab61b415e00" target="_top" xlink:title="plot_noise_spectrum">
<polygon fill="white" stroke="black" points="173.5,-480.5 173.5,-501.5 280.5,-501.5 280.5,-480.5 173.5,-480.5"/>
<text text-anchor="middle" x="227" y="-488.5" font-family="Helvetica,sans-Serif" font-size="10.00">plot_noise_spectrum</text>
</a>
</g>
<!-- Node1&#45;&gt;Node18 -->
<g id="edge34" class="edge"><title>Node1&#45;&gt;Node18</title>
<path fill="none" stroke="midnightblue" d="M88.502,-536.031C106.296,-527.938 129.097,-518.163 150,-511 160.061,-507.552 171.035,-504.369 181.464,-501.603"/>
<polygon fill="midnightblue" stroke="midnightblue" points="86.7939,-532.964 79.1755,-540.327 89.7226,-539.322 86.7939,-532.964"/>
</g>
<!-- Node19 -->
<g id="node37" class="node"><title>Node19</title>
<a xlink:href="../../d3/dda/plot__llrf_8h.html#a8863c0678df39a4807f02ad6c64e6600" target="_top" xlink:title="plot_phase_noise">
<polygon fill="white" stroke="black" points="181,-440.5 181,-461.5 273,-461.5 273,-440.5 181,-440.5"/>
<text text-anchor="middle" x="227" y="-448.5" font-family="Helvetica,sans-Serif" font-size="10.00">plot_phase_noise</text>
</a>
</g>
<!-- Node1&#45;&gt;Node19 -->
<g id="edge36" class="edge"><title>Node1&#45;&gt;Node19</title>
<path fill="none" stroke="midnightblue" d="M73.2701,-532.797C90.5631,-514.546 119.566,-486.932 150,-471 159.544,-466.004 170.421,-462.195 180.932,-459.315"/>
<polygon fill="midnightblue" stroke="midnightblue" points="70.4117,-530.732 66.1855,-540.448 75.548,-535.488 70.4117,-530.732"/>
</g>
<!-- Node20 -->
<g id="node39" class="node"><title>Node20</title>
<a xlink:href="../../d3/dda/plot__llrf_8h.html#a0cf92ca93a86bbdc1bfa9331a83ea320" target="_top" xlink:title="plot_PL_bunch_phase">
<polygon fill="white" stroke="black" points="170.5,-400.5 170.5,-421.5 283.5,-421.5 283.5,-400.5 170.5,-400.5"/>
<text text-anchor="middle" x="227" y="-408.5" font-family="Helvetica,sans-Serif" font-size="10.00">plot_PL_bunch_phase</text>
</a>
</g>
<!-- Node1&#45;&gt;Node20 -->
<g id="edge38" class="edge"><title>Node1&#45;&gt;Node20</title>
<path fill="none" stroke="midnightblue" d="M66.8906,-531.262C81.387,-504.397 110.973,-456.726 150,-431 156.227,-426.895 163.253,-423.632 170.464,-421.039"/>
<polygon fill="midnightblue" stroke="midnightblue" points="63.6181,-529.967 62.0854,-540.451 69.8211,-533.211 63.6181,-529.967"/>
</g>
<!-- Node21 -->
<g id="node41" class="node"><title>Node21</title>
<a xlink:href="../../d3/dda/plot__llrf_8h.html#a458b12e1ab74c68d5bab0b7cebf18c09" target="_top" xlink:title="plot_PL_freq_corr">
<polygon fill="white" stroke="black" points="180.5,-360.5 180.5,-381.5 273.5,-381.5 273.5,-360.5 180.5,-360.5"/>
<text text-anchor="middle" x="227" y="-368.5" font-family="Helvetica,sans-Serif" font-size="10.00">plot_PL_freq_corr</text>
</a>
</g>
<!-- Node1&#45;&gt;Node21 -->
<g id="edge40" class="edge"><title>Node1&#45;&gt;Node21</title>
<path fill="none" stroke="midnightblue" d="M63.0712,-530.689C74.3751,-496.459 101.965,-427.456 150,-391 158.802,-384.32 169.622,-379.862 180.339,-376.889"/>
<polygon fill="midnightblue" stroke="midnightblue" points="59.6481,-529.905 59.968,-540.495 66.3219,-532.017 59.6481,-529.905"/>
</g>
<!-- Node22 -->
<g id="node43" class="node"><title>Node22</title>
<a xlink:href="../../d3/dda/plot__llrf_8h.html#a4cb55b3cec0038d53eecda7f25e2f426" target="_top" xlink:title="plot_PL_phase_corr">
<polygon fill="white" stroke="black" points="175.5,-320.5 175.5,-341.5 278.5,-341.5 278.5,-320.5 175.5,-320.5"/>
<text text-anchor="middle" x="227" y="-328.5" font-family="Helvetica,sans-Serif" font-size="10.00">plot_PL_phase_corr</text>
</a>
</g>
<!-- Node1&#45;&gt;Node22 -->
<g id="edge42" class="edge"><title>Node1&#45;&gt;Node22</title>
<path fill="none" stroke="midnightblue" d="M60.5405,-530.558C68.6775,-489.931 92.6082,-398.836 150,-351 157.321,-344.898 166.289,-340.633 175.485,-337.657"/>
<polygon fill="midnightblue" stroke="midnightblue" points="57.1007,-529.912 58.6871,-540.388 63.9794,-531.209 57.1007,-529.912"/>
</g>
<!-- Node23 -->
<g id="node45" class="node"><title>Node23</title>
<a xlink:href="../../d3/dda/plot__llrf_8h.html#a36abfb65cca9b6fff4241fc4ab085efd" target="_top" xlink:title="plot_PL_RF_freq">
<polygon fill="white" stroke="black" points="182,-280.5 182,-301.5 272,-301.5 272,-280.5 182,-280.5"/>
<text text-anchor="middle" x="227" y="-288.5" font-family="Helvetica,sans-Serif" font-size="10.00">plot_PL_RF_freq</text>
</a>
</g>
<!-- Node1&#45;&gt;Node23 -->
<g id="edge44" class="edge"><title>Node1&#45;&gt;Node23</title>
<path fill="none" stroke="midnightblue" d="M58.7864,-530.432C63.9489,-484.022 83.1041,-370.58 150,-311 158.87,-303.1 170.47,-298.251 181.965,-295.294"/>
<polygon fill="midnightblue" stroke="midnightblue" points="55.2944,-530.177 57.7758,-540.477 62.2593,-530.878 55.2944,-530.177"/>
</g>
<!-- Node24 -->
<g id="node47" class="node"><title>Node24</title>
<a xlink:href="../../d3/dda/plot__llrf_8h.html#ab90c89b375ef96ed998a974351f5f3e1" target="_top" xlink:title="plot_PL_RF_phase">
<polygon fill="white" stroke="black" points="177,-240.5 177,-261.5 277,-261.5 277,-240.5 177,-240.5"/>
<text text-anchor="middle" x="227" y="-248.5" font-family="Helvetica,sans-Serif" font-size="10.00">plot_PL_RF_phase</text>
</a>
</g>
<!-- Node1&#45;&gt;Node24 -->
<g id="edge46" class="edge"><title>Node1&#45;&gt;Node24</title>
<path fill="none" stroke="midnightblue" d="M61.1305,-530.66C73.3162,-472.57 110.731,-307.739 150,-271 157.464,-264.017 167.046,-259.4 176.899,-256.365"/>
<polygon fill="midnightblue" stroke="midnightblue" points="57.6936,-529.997 59.095,-540.498 64.5485,-531.415 57.6936,-529.997"/>
</g>
<!-- Node25 -->
<g id="node49" class="node"><title>Node25</title>
<a xlink:href="../../d8/d94/plot__beams_8h.html#af8562d72b4487b1744e3126cf245ea52" target="_top" xlink:title="plot_position_evol">
<polygon fill="white" stroke="black" points="179.5,-200.5 179.5,-221.5 274.5,-221.5 274.5,-200.5 179.5,-200.5"/>
<text text-anchor="middle" x="227" y="-208.5" font-family="Helvetica,sans-Serif" font-size="10.00">plot_position_evol</text>
</a>
</g>
<!-- Node1&#45;&gt;Node25 -->
<g id="edge48" class="edge"><title>Node1&#45;&gt;Node25</title>
<path fill="none" stroke="midnightblue" d="M60.2904,-530.338C70.8632,-466.459 105.867,-273.883 150,-231 158.023,-223.204 168.678,-218.339 179.496,-215.331"/>
<polygon fill="midnightblue" stroke="midnightblue" points="56.8061,-529.959 58.6536,-540.391 63.7151,-531.084 56.8061,-529.959"/>
</g>
<!-- Node26 -->
<g id="node51" class="node"><title>Node26</title>
<a xlink:href="../../d3/dda/plot__llrf_8h.html#af4f563c0864d6e4ba163b1e6ab46b5c8" target="_top" xlink:title="plot_RF_phase_error">
<polygon fill="white" stroke="black" points="173.5,-160.5 173.5,-181.5 280.5,-181.5 280.5,-160.5 173.5,-160.5"/>
<text text-anchor="middle" x="227" y="-168.5" font-family="Helvetica,sans-Serif" font-size="10.00">plot_RF_phase_error</text>
</a>
</g>
<!-- Node1&#45;&gt;Node26 -->
<g id="edge50" class="edge"><title>Node1&#45;&gt;Node26</title>
<path fill="none" stroke="midnightblue" d="M59.6152,-530.062C68.688,-460.709 100.957,-240.107 150,-191 156.442,-184.55 164.68,-180.096 173.36,-177.039"/>
<polygon fill="midnightblue" stroke="midnightblue" points="56.1178,-529.819 58.3168,-540.183 63.0609,-530.71 56.1178,-529.819"/>
</g>
<!-- Node27 -->
<g id="node53" class="node"><title>Node27</title>
<a xlink:href="../../d3/dda/plot__llrf_8h.html#a7d64d79aafd6df5c91eccb73505de169" target="_top" xlink:title="plot_RL_radial_error">
<polygon fill="white" stroke="black" points="175,-120.5 175,-141.5 279,-141.5 279,-120.5 175,-120.5"/>
<text text-anchor="middle" x="227" y="-128.5" font-family="Helvetica,sans-Serif" font-size="10.00">plot_RL_radial_error</text>
</a>
</g>
<!-- Node1&#45;&gt;Node27 -->
<g id="edge52" class="edge"><title>Node1&#45;&gt;Node27</title>
<path fill="none" stroke="midnightblue" d="M59.0221,-530.187C66.6342,-456.074 95.922,-206.485 150,-151 156.748,-144.076 165.563,-139.444 174.81,-136.367"/>
<polygon fill="midnightblue" stroke="midnightblue" points="55.537,-529.864 58.0208,-540.164 62.502,-530.563 55.537,-529.864"/>
</g>
<!-- Node28 -->
<g id="node55" class="node"><title>Node28</title>
<a xlink:href="../../d8/d94/plot__beams_8h.html#a823f1dc9ce1b63898e543add25cadb93" target="_top" xlink:title="plot_transmitted_particles">
<polygon fill="white" stroke="black" points="163,-80.5 163,-101.5 291,-101.5 291,-80.5 163,-80.5"/>
<text text-anchor="middle" x="227" y="-88.5" font-family="Helvetica,sans-Serif" font-size="10.00">plot_transmitted_particles</text>
</a>
</g>
<!-- Node1&#45;&gt;Node28 -->
<g id="edge54" class="edge"><title>Node1&#45;&gt;Node28</title>
<path fill="none" stroke="midnightblue" d="M58.547,-530.194C64.8182,-451.43 90.8887,-172.884 150,-111 153.721,-107.105 158.095,-103.932 162.837,-101.353"/>
<polygon fill="midnightblue" stroke="midnightblue" points="55.0458,-530.075 57.7639,-540.315 62.025,-530.615 55.0458,-530.075"/>
</g>
<!-- Node29 -->
<g id="node57" class="node"><title>Node29</title>
<a xlink:href="../../d8/d1b/plot__parameters_8h.html#a85d8f3cd2cb068b4acb7e34897d0d622" target="_top" xlink:title="plot_voltage_programme">
<polygon fill="white" stroke="black" points="165.5,-40.5 165.5,-61.5 288.5,-61.5 288.5,-40.5 165.5,-40.5"/>
<text text-anchor="middle" x="227" y="-48.5" font-family="Helvetica,sans-Serif" font-size="10.00">plot_voltage_programme</text>
</a>
</g>
<!-- Node1&#45;&gt;Node29 -->
<g id="edge56" class="edge"><title>Node1&#45;&gt;Node29</title>
<path fill="none" stroke="midnightblue" d="M58.1494,-530.2C63.1648,-446.996 85.8334,-139.325 150,-71 154.349,-66.3688 159.622,-62.7562 165.345,-59.9456"/>
<polygon fill="midnightblue" stroke="midnightblue" points="54.654,-530.019 57.5673,-540.206 61.6422,-530.426 54.654,-530.019"/>
</g>
<!-- Node30 -->
<g id="node59" class="node"><title>Node30</title>
<a xlink:href="../../d0/d31/plot__xy_8h.html#a7408df757331fca8669502312250285e" target="_top" xlink:title="plot_xy">
<polygon fill="white" stroke="black" points="203,-0.5 203,-21.5 251,-21.5 251,-0.5 203,-0.5"/>
<text text-anchor="middle" x="227" y="-8.5" font-family="Helvetica,sans-Serif" font-size="10.00">plot_xy</text>
</a>
</g>
<!-- Node1&#45;&gt;Node30 -->
<g id="edge58" class="edge"><title>Node1&#45;&gt;Node30</title>
<path fill="none" stroke="midnightblue" d="M57.8128,-530.178C61.6496,-442.672 80.767,-105.792 150,-31 163.323,-16.6073 185.557,-12.028 202.717,-10.8036"/>
<polygon fill="midnightblue" stroke="midnightblue" points="54.3145,-530.067 57.3934,-540.204 61.3083,-530.36 54.3145,-530.067"/>
</g>
<!-- Node11 -->
<g id="node21" class="node"><title>Node11</title>
<a xlink:href="../../dc/d7d/Distributions_8h.html#a00d3d5dce2d6cb66bd5b4bcc53abb901" target="_top" xlink:title="matched_from_line_density">
<polygon fill="white" stroke="black" points="340,-772.5 340,-793.5 476,-793.5 476,-772.5 340,-772.5"/>
<text text-anchor="middle" x="408" y="-780.5" font-family="Helvetica,sans-Serif" font-size="10.00">matched_from_line_density</text>
</a>
</g>
<!-- Node10&#45;&gt;Node11 -->
<g id="edge20" class="edge"><title>Node10&#45;&gt;Node11</title>
<path fill="none" stroke="midnightblue" d="M293.575,-783C308.705,-783 324.796,-783 339.985,-783"/>
<polygon fill="midnightblue" stroke="midnightblue" points="293.277,-779.5 283.277,-783 293.277,-786.5 293.277,-779.5"/>
</g>
</g>
</svg>
        <g id="navigator" transform="translate(0 0)" fill="#404254">
                <rect fill="#f2f5e9" fill-opacity="0.5" stroke="#606060" stroke-width=".5" x="0" y="0" width="60" height="60"/>
                <use id="zoomplus" xlink:href="#zoomPlus" x="17" y="9" onmousedown="handleZoom(evt,'in')"/>
                <use id="zoomminus" xlink:href="#zoomMin" x="42" y="9" onmousedown="handleZoom(evt,'out')"/>
                <use id="reset" xlink:href="#resetDef" x="30" y="36" onmousedown="handleReset()"/>
                <g id="arrowUp" xlink:href="#dirArrow" transform="translate(30 24)" onmousedown="handlePan(0,-1)">
                  <use xlink:href="#rim" fill="#404040">
                        <set attributeName="fill" to="#808080" begin="arrowUp.mouseover" end="arrowUp.mouseout"/>
                  </use>
                  <path fill="none" stroke="white" stroke-width="1.5" d="M0,-3.0v7 M-2.5,-0.5L0,-3.0L2.5,-0.5"/>
                </g>
                <g id="arrowRight" xlink:href="#dirArrow" transform="rotate(90) translate(36 -43)" onmousedown="handlePan(1,0)">
                  <use xlink:href="#rim" fill="#404040">
                        <set attributeName="fill" to="#808080" begin="arrowRight.mouseover" end="arrowRight.mouseout"/>
                  </use>
                  <path fill="none" stroke="white" stroke-width="1.5" d="M0,-3.0v7 M-2.5,-0.5L0,-3.0L2.5,-0.5"/>
                </g>
                <g id="arrowDown" xlink:href="#dirArrow" transform="rotate(180) translate(-30 -48)" onmousedown="handlePan(0,1)">
                  <use xlink:href="#rim" fill="#404040">
                        <set attributeName="fill" to="#808080" begin="arrowDown.mouseover" end="arrowDown.mouseout"/>
                  </use>
                  <path fill="none" stroke="white" stroke-width="1.5" d="M0,-3.0v7 M-2.5,-0.5L0,-3.0L2.5,-0.5"/>
                </g>
                <g id="arrowLeft" xlink:href="#dirArrow" transform="rotate(270) translate(-36 17)" onmousedown="handlePan(-1,0)">
                  <use xlink:href="#rim" fill="#404040">
                        <set attributeName="fill" to="#808080" begin="arrowLeft.mouseover" end="arrowLeft.mouseout"/>
                  </use>
                  <path fill="none" stroke="white" stroke-width="1.5" d="M0,-3.0v7 M-2.5,-0.5L0,-3.0L2.5,-0.5"/>
                </g>
        </g>
        <svg viewBox="0 0 15 15" width="100%" height="30px" preserveAspectRatio="xMaxYMin meet">
         <g id="arrow_out" transform="scale(0.3 0.3)">
          <a xlink:href="namespacepython_aaed0c03f36b79c4703d003314d78b412_icgraph_org.svg" target="_base">
           <rect id="button" ry="5" rx="5" y="6" x="6" height="38" width="38"
                fill="#f2f5e9" fill-opacity="0.5" stroke="#606060" stroke-width="1.0"/>
           <path id="arrow"
             d="M 11.500037,31.436501 C 11.940474,20.09759 22.043105,11.32322 32.158766,21.979434 L 37.068811,17.246167 C 37.068811,17.246167 37.088388,32 37.088388,32 L 22.160133,31.978069 C 22.160133,31.978069 26.997745,27.140456 26.997745,27.140456 C 18.528582,18.264221 13.291696,25.230495 11.500037,31.436501 z"
             style="fill:#404040;"/>
          </a>
         </g>
        </svg>
</svg>
