<?xml version="1.0" encoding="UTF-8" standalone="no"?>
<!DOCTYPE svg PUBLIC "-//W3C//DTD SVG 1.1//EN"
 "http://www.w3.org/Graphics/SVG/1.1/DTD/svg11.dtd">
<!-- Generated by graphviz version 2.26.3 (20100126.1600)
 -->
<!-- Title: python::convert_double_array Pages: 1 -->
<svg width="648pt" height="986pt"
 viewBox="0.00 0.00 648.00 986.00" xmlns="http://www.w3.org/2000/svg" xmlns:xlink="http://www.w3.org/1999/xlink">
<g id="graph1" class="graph" transform="scale(1 1) rotate(0) translate(4 982)">
<title>python::convert_double_array</title>
<polygon fill="white" stroke="white" points="-4,5 -4,-982 645,-982 645,5 -4,5"/>
<!-- Node1 -->
<g id="node1" class="node"><title>Node1</title>
<polygon fill="#bfbfbf" stroke="black" points="0,-454 0,-488 118,-488 118,-454 0,-454"/>
<text text-anchor="start" x="8" y="-475" font-family="Helvetica,sans-Serif" font-size="10.00">python::convert_double</text>
<text text-anchor="middle" x="59" y="-462" font-family="Helvetica,sans-Serif" font-size="10.00">_array</text>
</g>
<!-- Node2 -->
<g id="node3" class="node"><title>Node2</title>
<a xlink:href="../../dc/d7d/Distributions_8h.html#a775adebc7be25b67916c028a031074be" target="_top" xlink:title="_matched_from_distribution\l_density">
<polygon fill="white" stroke="black" points="154.5,-944 154.5,-978 291.5,-978 291.5,-944 154.5,-944"/>
<text text-anchor="start" x="162.5" y="-965" font-family="Helvetica,sans-Serif" font-size="10.00">_matched_from_distribution</text>
<text text-anchor="middle" x="223" y="-952" font-family="Helvetica,sans-Serif" font-size="10.00">_density</text>
</a>
</g>
<!-- Node1&#45;&gt;Node2 -->
<g id="edge2" class="edge"><title>Node1&#45;&gt;Node2</title>
<path fill="none" stroke="midnightblue" d="M61.1629,-498.274C68.7361,-587.356 96.7573,-867.887 154,-935 156.908,-938.409 160.31,-941.372 164.017,-943.947"/>
<polygon fill="midnightblue" stroke="midnightblue" points="64.6383,-497.831 60.3214,-488.156 57.6624,-498.412 64.6383,-497.831"/>
</g>
<!-- Node4 -->
<g id="node7" class="node"><title>Node4</title>
<a xlink:href="../../dc/d7d/Distributions_8h.html#a190d2b58297ff88be6d2ab351eba1207" target="_top" xlink:title="_matched_from_line\l_density">
<polygon fill="white" stroke="black" points="171,-892 171,-926 275,-926 275,-892 171,-892"/>
<text text-anchor="start" x="179" y="-913" font-family="Helvetica,sans-Serif" font-size="10.00">_matched_from_line</text>
<text text-anchor="middle" x="223" y="-900" font-family="Helvetica,sans-Serif" font-size="10.00">_density</text>
</a>
</g>
<!-- Node1&#45;&gt;Node4 -->
<g id="edge6" class="edge"><title>Node1&#45;&gt;Node4</title>
<path fill="none" stroke="midnightblue" d="M61.9175,-498.159C71.2482,-580.36 102.784,-824.432 154,-883 158.635,-888.3 164.463,-892.523 170.758,-895.887"/>
<polygon fill="midnightblue" stroke="midnightblue" points="65.3823,-497.647 60.7953,-488.097 58.4254,-498.423 65.3823,-497.647"/>
</g>
<!-- Node6 -->
<g id="node11" class="node"><title>Node6</title>
<a xlink:href="../../dc/d45/classSlices.html#ab1443b2ebec9ed465a8301be8e1c747f" target="_top" xlink:title="Slices::gaussian_filter1d">
<polygon fill="white" stroke="black" points="161.5,-852.5 161.5,-873.5 284.5,-873.5 284.5,-852.5 161.5,-852.5"/>
<text text-anchor="middle" x="223" y="-860.5" font-family="Helvetica,sans-Serif" font-size="10.00">Slices::gaussian_filter1d</text>
</a>
</g>
<!-- Node1&#45;&gt;Node6 -->
<g id="edge10" class="edge"><title>Node1&#45;&gt;Node6</title>
<path fill="none" stroke="midnightblue" d="M62.4361,-498.243C72.688,-575.356 105.394,-792.809 154,-843 157.644,-846.763 161.95,-849.83 166.602,-852.327"/>
<polygon fill="midnightblue" stroke="midnightblue" points="65.9064,-497.787 61.1393,-488.325 58.9655,-498.695 65.9064,-497.787"/>
</g>
<!-- Node9 -->
<g id="node17" class="node"><title>Node9</title>
<a xlink:href="../../dc/d45/classSlices.html#ac11f46cb378680434a059361c5c5f0fe" target="_top" xlink:title="Slices::gradient">
<polygon fill="white" stroke="black" points="181,-812.5 181,-833.5 265,-833.5 265,-812.5 181,-812.5"/>
<text text-anchor="middle" x="223" y="-820.5" font-family="Helvetica,sans-Serif" font-size="10.00">Slices::gradient</text>
</a>
</g>
<!-- Node1&#45;&gt;Node9 -->
<g id="edge16" class="edge"><title>Node1&#45;&gt;Node9</title>
<path fill="none" stroke="midnightblue" d="M63.3155,-498.127C75.1598,-569.326 110.224,-759.074 154,-803 161.219,-810.244 170.893,-814.899 180.708,-817.881"/>
<polygon fill="midnightblue" stroke="midnightblue" points="66.7491,-497.437 61.6769,-488.135 59.8414,-498.569 66.7491,-497.437"/>
</g>
<!-- Node10 -->
<g id="node20" class="node"><title>Node10</title>
<a xlink:href="../../d2/d51/plot__slices_8h.html#a0412f1f52fc8c9279224be608d8d3f43" target="_top" xlink:title="plot_beam_profile">
<polygon fill="white" stroke="black" points="176.5,-772.5 176.5,-793.5 269.5,-793.5 269.5,-772.5 176.5,-772.5"/>
<text text-anchor="middle" x="223" y="-780.5" font-family="Helvetica,sans-Serif" font-size="10.00">plot_beam_profile</text>
</a>
</g>
<!-- Node1&#45;&gt;Node10 -->
<g id="edge20" class="edge"><title>Node1&#45;&gt;Node10</title>
<path fill="none" stroke="midnightblue" d="M64.398,-497.89C77.9258,-562.752 114.997,-725.241 154,-763 160.183,-768.986 168.046,-773.198 176.233,-776.157"/>
<polygon fill="midnightblue" stroke="midnightblue" points="67.8071,-497.091 62.3614,-488.003 60.9511,-498.504 67.8071,-497.091"/>
</g>
<!-- Node11 -->
<g id="node22" class="node"><title>Node11</title>
<a xlink:href="../../d2/d51/plot__slices_8h.html#ab17db03931ff95e016a858c2d2e95fd5" target="_top" xlink:title="plot_beam_spectrum">
<polygon fill="white" stroke="black" points="169.5,-732.5 169.5,-753.5 276.5,-753.5 276.5,-732.5 169.5,-732.5"/>
<text text-anchor="middle" x="223" y="-740.5" font-family="Helvetica,sans-Serif" font-size="10.00">plot_beam_spectrum</text>
</a>
</g>
<!-- Node1&#45;&gt;Node11 -->
<g id="edge22" class="edge"><title>Node1&#45;&gt;Node11</title>
<path fill="none" stroke="midnightblue" d="M61.41,-498.314C67.4374,-549.866 87.8138,-661.809 154,-723 158.487,-727.149 163.785,-730.442 169.418,-733.055"/>
<polygon fill="midnightblue" stroke="midnightblue" points="64.8791,-497.839 60.3303,-488.27 57.9192,-498.587 64.8791,-497.839"/>
</g>
<!-- Node12 -->
<g id="node24" class="node"><title>Node12</title>
<a xlink:href="../../d8/d94/plot__beams_8h.html#a7b5c6ac8b8a54e16e8ad2e6009036935" target="_top" xlink:title="plot_bunch_length_evol">
<polygon fill="white" stroke="black" points="163.5,-692.5 163.5,-713.5 282.5,-713.5 282.5,-692.5 163.5,-692.5"/>
<text text-anchor="middle" x="223" y="-700.5" font-family="Helvetica,sans-Serif" font-size="10.00">plot_bunch_length_evol</text>
</a>
</g>
<!-- Node1&#45;&gt;Node12 -->
<g id="edge24" class="edge"><title>Node1&#45;&gt;Node12</title>
<path fill="none" stroke="midnightblue" d="M63.5801,-498.109C72.6298,-543.192 97.0883,-633.504 154,-683 158.423,-686.847 163.548,-689.955 168.968,-692.467"/>
<polygon fill="midnightblue" stroke="midnightblue" points="66.999,-497.352 61.6919,-488.183 60.1223,-498.66 66.999,-497.352"/>
</g>
<!-- Node13 -->
<g id="node26" class="node"><title>Node13</title>
<a xlink:href="../../d8/d94/plot__beams_8h.html#ab78555117ca7153c811de718d84ed052" target="_top" xlink:title="plot_bunch_length_evol\l_gaussian">
<polygon fill="white" stroke="black" points="163.5,-640 163.5,-674 282.5,-674 282.5,-640 163.5,-640"/>
<text text-anchor="start" x="171.5" y="-661" font-family="Helvetica,sans-Serif" font-size="10.00">plot_bunch_length_evol</text>
<text text-anchor="middle" x="223" y="-648" font-family="Helvetica,sans-Serif" font-size="10.00">_gaussian</text>
</a>
</g>
<!-- Node1&#45;&gt;Node13 -->
<g id="edge26" class="edge"><title>Node1&#45;&gt;Node13</title>
<path fill="none" stroke="midnightblue" d="M68.3474,-497.612C81.9756,-532.785 110.512,-594.544 154,-631 158.022,-634.372 162.526,-637.331 167.254,-639.922"/>
<polygon fill="midnightblue" stroke="midnightblue" points="71.539,-496.155 64.7474,-488.023 64.9856,-498.615 71.539,-496.155"/>
</g>
<!-- Node14 -->
<g id="node28" class="node"><title>Node14</title>
<a xlink:href="../../d3/dda/plot__llrf_8h.html#a233ce800a7902302fb26c5a54fbbbb98" target="_top" xlink:title="plot_COM_motion">
<polygon fill="white" stroke="black" points="175.5,-600.5 175.5,-621.5 270.5,-621.5 270.5,-600.5 175.5,-600.5"/>
<text text-anchor="middle" x="223" y="-608.5" font-family="Helvetica,sans-Serif" font-size="10.00">plot_COM_motion</text>
</a>
</g>
<!-- Node1&#45;&gt;Node14 -->
<g id="edge28" class="edge"><title>Node1&#45;&gt;Node14</title>
<path fill="none" stroke="midnightblue" d="M73.0634,-497.089C89.1202,-524.439 117.896,-566.74 154,-591 160.418,-595.313 167.775,-598.71 175.239,-601.381"/>
<polygon fill="midnightblue" stroke="midnightblue" points="75.9232,-495.039 67.9232,-488.092 69.8453,-498.512 75.9232,-495.039"/>
</g>
<!-- Node15 -->
<g id="node30" class="node"><title>Node15</title>
<a xlink:href="../../d8/d94/plot__beams_8h.html#a87891b0c397e75daceb729f00d3ad076" target="_top" xlink:title="plot_energy_evol">
<polygon fill="white" stroke="black" points="178,-560.5 178,-581.5 268,-581.5 268,-560.5 178,-560.5"/>
<text text-anchor="middle" x="223" y="-568.5" font-family="Helvetica,sans-Serif" font-size="10.00">plot_energy_evol</text>
</a>
</g>
<!-- Node1&#45;&gt;Node15 -->
<g id="edge30" class="edge"><title>Node1&#45;&gt;Node15</title>
<path fill="none" stroke="midnightblue" d="M82.1059,-495.317C100.168,-513.04 126.714,-536.411 154,-551 161.369,-554.94 169.607,-558.188 177.755,-560.836"/>
<polygon fill="midnightblue" stroke="midnightblue" points="84.4502,-492.712 74.907,-488.11 79.4974,-497.659 84.4502,-492.712"/>
</g>
<!-- Node16 -->
<g id="node32" class="node"><title>Node16</title>
<a xlink:href="../../d3/dda/plot__llrf_8h.html#a5e7e6af39dbf4a76e9d24a7573ba5f26" target="_top" xlink:title="plot_LHCNoiseFB">
<polygon fill="white" stroke="black" points="175,-520.5 175,-541.5 271,-541.5 271,-520.5 175,-520.5"/>
<text text-anchor="middle" x="223" y="-528.5" font-family="Helvetica,sans-Serif" font-size="10.00">plot_LHCNoiseFB</text>
</a>
</g>
<!-- Node1&#45;&gt;Node16 -->
<g id="edge32" class="edge"><title>Node1&#45;&gt;Node16</title>
<path fill="none" stroke="midnightblue" d="M106.564,-492.305C121.595,-498.691 138.363,-505.463 154,-511 163.523,-514.372 173.928,-517.613 183.702,-520.467"/>
<polygon fill="midnightblue" stroke="midnightblue" points="107.537,-488.914 96.9678,-488.181 104.773,-495.345 107.537,-488.914"/>
</g>
<!-- Node17 -->
<g id="node34" class="node"><title>Node17</title>
<a xlink:href="../../d3/dda/plot__llrf_8h.html#a51bcedf44ad1de89f53a2a7ace2d9ffb" target="_top" xlink:title="plot_LHCNoiseFB_FWHM">
<polygon fill="white" stroke="black" points="156.5,-480.5 156.5,-501.5 289.5,-501.5 289.5,-480.5 156.5,-480.5"/>
<text text-anchor="middle" x="223" y="-488.5" font-family="Helvetica,sans-Serif" font-size="10.00">plot_LHCNoiseFB_FWHM</text>
</a>
</g>
<!-- Node1&#45;&gt;Node17 -->
<g id="edge34" class="edge"><title>Node1&#45;&gt;Node17</title>
<path fill="none" stroke="midnightblue" d="M128.214,-479.441C137.539,-480.578 147.09,-481.743 156.369,-482.874"/>
<polygon fill="midnightblue" stroke="midnightblue" points="128.558,-475.957 118.208,-478.22 127.711,-482.905 128.558,-475.957"/>
</g>
<!-- Node18 -->
<g id="node36" class="node"><title>Node18</title>
<a xlink:href="../../d8/d94/plot__beams_8h.html#ae6215f03e38354ba5f04e99f640cf700" target="_top" xlink:title="plot_long_phase_space">
<polygon fill="white" stroke="black" points="163.5,-440.5 163.5,-461.5 282.5,-461.5 282.5,-440.5 163.5,-440.5"/>
<text text-anchor="middle" x="223" y="-448.5" font-family="Helvetica,sans-Serif" font-size="10.00">plot_long_phase_space</text>
</a>
</g>
<!-- Node1&#45;&gt;Node18 -->
<g id="edge36" class="edge"><title>Node1&#45;&gt;Node18</title>
<path fill="none" stroke="midnightblue" d="M128.324,-462.546C139.966,-461.126 151.957,-459.664 163.328,-458.277"/>
<polygon fill="midnightblue" stroke="midnightblue" points="127.711,-459.095 118.208,-463.78 128.558,-466.043 127.711,-459.095"/>
</g>
<!-- Node19 -->
<g id="node38" class="node"><title>Node19</title>
<a xlink:href="../../d3/dda/plot__llrf_8h.html#ac30f01e38f6f6a145294930d859ae4f8" target="_top" xlink:title="plot_noise_spectrum">
<polygon fill="white" stroke="black" points="169.5,-400.5 169.5,-421.5 276.5,-421.5 276.5,-400.5 169.5,-400.5"/>
<text text-anchor="middle" x="223" y="-408.5" font-family="Helvetica,sans-Serif" font-size="10.00">plot_noise_spectrum</text>
</a>
</g>
<!-- Node1&#45;&gt;Node19 -->
<g id="edge38" class="edge"><title>Node1&#45;&gt;Node19</title>
<path fill="none" stroke="midnightblue" d="M106.564,-449.695C121.595,-443.309 138.363,-436.537 154,-431 163.523,-427.628 173.928,-424.387 183.702,-421.533"/>
<polygon fill="midnightblue" stroke="midnightblue" points="104.773,-446.655 96.9678,-453.819 107.537,-453.086 104.773,-446.655"/>
</g>
<!-- Node20 -->
<g id="node40" class="node"><title>Node20</title>
<a xlink:href="../../d3/dda/plot__llrf_8h.html#a042e6fffb5a6d09ab3bb2dc67637420d" target="_top" xlink:title="plot_phase_noise">
<polygon fill="white" stroke="black" points="177,-360.5 177,-381.5 269,-381.5 269,-360.5 177,-360.5"/>
<text text-anchor="middle" x="223" y="-368.5" font-family="Helvetica,sans-Serif" font-size="10.00">plot_phase_noise</text>
</a>
</g>
<!-- Node1&#45;&gt;Node20 -->
<g id="edge40" class="edge"><title>Node1&#45;&gt;Node20</title>
<path fill="none" stroke="midnightblue" d="M82.1059,-446.683C100.168,-428.96 126.714,-405.589 154,-391 161.039,-387.236 168.871,-384.104 176.66,-381.524"/>
<polygon fill="midnightblue" stroke="midnightblue" points="79.4974,-444.341 74.907,-453.89 84.4502,-449.288 79.4974,-444.341"/>
</g>
<!-- Node21 -->
<g id="node42" class="node"><title>Node21</title>
<a xlink:href="../../d3/dda/plot__llrf_8h.html#a0cd9dca8ef76cd784a3e58025f2d5f46" target="_top" xlink:title="plot_PL_bunch_phase">
<polygon fill="white" stroke="black" points="166.5,-320.5 166.5,-341.5 279.5,-341.5 279.5,-320.5 166.5,-320.5"/>
<text text-anchor="middle" x="223" y="-328.5" font-family="Helvetica,sans-Serif" font-size="10.00">plot_PL_bunch_phase</text>
</a>
</g>
<!-- Node1&#45;&gt;Node21 -->
<g id="edge42" class="edge"><title>Node1&#45;&gt;Node21</title>
<path fill="none" stroke="midnightblue" d="M73.0634,-444.911C89.1202,-417.561 117.896,-375.26 154,-351 159.694,-347.174 166.126,-344.069 172.716,-341.552"/>
<polygon fill="midnightblue" stroke="midnightblue" points="69.8453,-443.488 67.9232,-453.908 75.9232,-446.961 69.8453,-443.488"/>
</g>
<!-- Node22 -->
<g id="node44" class="node"><title>Node22</title>
<a xlink:href="../../d3/dda/plot__llrf_8h.html#ab1b66029a759c257c6a205088b5ac943" target="_top" xlink:title="plot_PL_freq_corr">
<polygon fill="white" stroke="black" points="176.5,-280.5 176.5,-301.5 269.5,-301.5 269.5,-280.5 176.5,-280.5"/>
<text text-anchor="middle" x="223" y="-288.5" font-family="Helvetica,sans-Serif" font-size="10.00">plot_PL_freq_corr</text>
</a>
</g>
<!-- Node1&#45;&gt;Node22 -->
<g id="edge44" class="edge"><title>Node1&#45;&gt;Node22</title>
<path fill="none" stroke="midnightblue" d="M67.834,-444.155C80.9565,-408.454 109.004,-345.818 154,-311 160.51,-305.962 168.25,-302.193 176.152,-299.373"/>
<polygon fill="midnightblue" stroke="midnightblue" points="64.4263,-443.292 64.3822,-453.887 71.0237,-445.632 64.4263,-443.292"/>
</g>
<!-- Node23 -->
<g id="node46" class="node"><title>Node23</title>
<a xlink:href="../../d3/dda/plot__llrf_8h.html#ab34b88b795a269148850c5d71afb04ab" target="_top" xlink:title="plot_PL_phase_corr">
<polygon fill="white" stroke="black" points="171.5,-240.5 171.5,-261.5 274.5,-261.5 274.5,-240.5 171.5,-240.5"/>
<text text-anchor="middle" x="223" y="-248.5" font-family="Helvetica,sans-Serif" font-size="10.00">plot_PL_phase_corr</text>
</a>
</g>
<!-- Node1&#45;&gt;Node23 -->
<g id="edge46" class="edge"><title>Node1&#45;&gt;Node23</title>
<path fill="none" stroke="midnightblue" d="M64.3943,-443.898C74.3837,-400.852 99.8743,-317.029 154,-271 159.131,-266.637 165.167,-263.224 171.498,-260.556"/>
<polygon fill="midnightblue" stroke="midnightblue" points="60.9209,-443.396 62.1806,-453.916 67.756,-444.906 60.9209,-443.396"/>
</g>
<!-- Node24 -->
<g id="node48" class="node"><title>Node24</title>
<a xlink:href="../../d3/dda/plot__llrf_8h.html#ae31c5d3af630234b7a4c01fb032ee3d1" target="_top" xlink:title="plot_PL_RF_freq">
<polygon fill="white" stroke="black" points="178,-200.5 178,-221.5 268,-221.5 268,-200.5 178,-200.5"/>
<text text-anchor="middle" x="223" y="-208.5" font-family="Helvetica,sans-Serif" font-size="10.00">plot_PL_RF_freq</text>
</a>
</g>
<!-- Node1&#45;&gt;Node24 -->
<g id="edge48" class="edge"><title>Node1&#45;&gt;Node24</title>
<path fill="none" stroke="midnightblue" d="M61.9676,-443.93C68.8597,-394.339 90.5286,-288.723 154,-231 160.736,-224.874 169.241,-220.616 177.958,-217.658"/>
<polygon fill="midnightblue" stroke="midnightblue" points="58.4898,-443.534 60.6785,-453.9 65.432,-444.431 58.4898,-443.534"/>
</g>
<!-- Node25 -->
<g id="node50" class="node"><title>Node25</title>
<a xlink:href="../../d3/dda/plot__llrf_8h.html#a88e6c6e9563f9a09e5286933ffa97cd6" target="_top" xlink:title="plot_PL_RF_phase">
<polygon fill="white" stroke="black" points="173,-160.5 173,-181.5 273,-181.5 273,-160.5 173,-160.5"/>
<text text-anchor="middle" x="223" y="-168.5" font-family="Helvetica,sans-Serif" font-size="10.00">plot_PL_RF_phase</text>
</a>
</g>
<!-- Node1&#45;&gt;Node25 -->
<g id="edge50" class="edge"><title>Node1&#45;&gt;Node25</title>
<path fill="none" stroke="midnightblue" d="M60.1999,-443.871C64.1523,-388.249 81.1239,-260.67 154,-191 159.319,-185.915 165.851,-182.112 172.755,-179.269"/>
<polygon fill="midnightblue" stroke="midnightblue" points="56.6976,-443.799 59.5703,-453.997 63.6842,-444.234 56.6976,-443.799"/>
</g>
<!-- Node26 -->
<g id="node52" class="node"><title>Node26</title>
<a xlink:href="../../d8/d94/plot__beams_8h.html#ab1102a9d176b48aff9607b9568641ac0" target="_top" xlink:title="plot_position_evol">
<polygon fill="white" stroke="black" points="175.5,-120.5 175.5,-141.5 270.5,-141.5 270.5,-120.5 175.5,-120.5"/>
<text text-anchor="middle" x="223" y="-128.5" font-family="Helvetica,sans-Serif" font-size="10.00">plot_position_evol</text>
</a>
</g>
<!-- Node1&#45;&gt;Node26 -->
<g id="edge52" class="edge"><title>Node1&#45;&gt;Node26</title>
<path fill="none" stroke="midnightblue" d="M63.6996,-443.461C76.1162,-373.771 111.758,-192.97 154,-151 159.928,-145.11 167.479,-140.933 175.398,-137.977"/>
<polygon fill="midnightblue" stroke="midnightblue" points="60.1921,-443.199 61.9087,-453.654 67.0865,-444.41 60.1921,-443.199"/>
</g>
<!-- Node27 -->
<g id="node54" class="node"><title>Node27</title>
<a xlink:href="../../d3/dda/plot__llrf_8h.html#a1b536e9a32a5a0dc3143c620ee11b816" target="_top" xlink:title="plot_RF_phase_error">
<polygon fill="white" stroke="black" points="169.5,-80.5 169.5,-101.5 276.5,-101.5 276.5,-80.5 169.5,-80.5"/>
<text text-anchor="middle" x="223" y="-88.5" font-family="Helvetica,sans-Serif" font-size="10.00">plot_RF_phase_error</text>
</a>
</g>
<!-- Node1&#45;&gt;Node27 -->
<g id="edge54" class="edge"><title>Node1&#45;&gt;Node27</title>
<path fill="none" stroke="midnightblue" d="M62.7002,-443.653C73.4402,-368.163 106.875,-159.275 154,-111 158.356,-106.538 163.643,-103.055 169.33,-100.341"/>
<polygon fill="midnightblue" stroke="midnightblue" points="59.2017,-443.399 61.2814,-453.787 66.1341,-444.369 59.2017,-443.399"/>
</g>
<!-- Node28 -->
<g id="node56" class="node"><title>Node28</title>
<a xlink:href="../../d3/dda/plot__llrf_8h.html#a75ca1c1f14b3af3f4ba26b67f1d17076" target="_top" xlink:title="plot_RL_radial_error">
<polygon fill="white" stroke="black" points="171,-40.5 171,-61.5 275,-61.5 275,-40.5 171,-40.5"/>
<text text-anchor="middle" x="223" y="-48.5" font-family="Helvetica,sans-Serif" font-size="10.00">plot_RL_radial_error</text>
</a>
</g>
<!-- Node1&#45;&gt;Node28 -->
<g id="edge56" class="edge"><title>Node1&#45;&gt;Node28</title>
<path fill="none" stroke="midnightblue" d="M61.9512,-443.405C71.1861,-362.068 102.055,-125.552 154,-71 158.73,-66.0322 164.613,-62.2758 170.935,-59.4397"/>
<polygon fill="midnightblue" stroke="midnightblue" points="58.4201,-443.491 60.7918,-453.817 65.3771,-444.266 58.4201,-443.491"/>
</g>
<!-- Node29 -->
<g id="node58" class="node"><title>Node29</title>
<a xlink:href="../../d8/d1b/plot__parameters_8h.html#a12d0870215c7365ba3c9b175bc7e18c5" target="_top" xlink:title="plot_voltage_programme">
<polygon fill="white" stroke="black" points="161.5,-0.5 161.5,-21.5 284.5,-21.5 284.5,-0.5 161.5,-0.5"/>
<text text-anchor="middle" x="223" y="-8.5" font-family="Helvetica,sans-Serif" font-size="10.00">plot_voltage_programme</text>
</a>
</g>
<!-- Node1&#45;&gt;Node29 -->
<g id="edge58" class="edge"><title>Node1&#45;&gt;Node29</title>
<path fill="none" stroke="midnightblue" d="M61.2942,-443.537C69.0634,-356.975 97.1282,-91.9671 154,-31 157.573,-27.1695 161.831,-24.0576 166.453,-21.5315"/>
<polygon fill="midnightblue" stroke="midnightblue" points="57.7958,-443.366 60.408,-453.634 64.769,-443.978 57.7958,-443.366"/>
</g>
<!-- Node3 -->
<g id="node5" class="node"><title>Node3</title>
<a xlink:href="../../dc/d7d/Distributions_8h.html#a39ba163b714fe197bd81ac64ffa48d30" target="_top" xlink:title="matched_from_distribution\l_density">
<polygon fill="white" stroke="black" points="330.5,-944 330.5,-978 461.5,-978 461.5,-944 330.5,-944"/>
<text text-anchor="start" x="338.5" y="-965" font-family="Helvetica,sans-Serif" font-size="10.00">matched_from_distribution</text>
<text text-anchor="middle" x="396" y="-952" font-family="Helvetica,sans-Serif" font-size="10.00">_density</text>
</a>
</g>
<!-- Node2&#45;&gt;Node3 -->
<g id="edge4" class="edge"><title>Node2&#45;&gt;Node3</title>
<path fill="none" stroke="midnightblue" d="M302.099,-961C311.587,-961 321.195,-961 330.462,-961"/>
<polygon fill="midnightblue" stroke="midnightblue" points="301.871,-957.5 291.871,-961 301.871,-964.5 301.871,-957.5"/>
</g>
<!-- Node5 -->
<g id="node9" class="node"><title>Node5</title>
<a xlink:href="../../dc/d7d/Distributions_8h.html#af8a750601d38e475a922ae843f837cc9" target="_top" xlink:title="matched_from_line_density">
<polygon fill="white" stroke="black" points="328,-898.5 328,-919.5 464,-919.5 464,-898.5 328,-898.5"/>
<text text-anchor="middle" x="396" y="-906.5" font-family="Helvetica,sans-Serif" font-size="10.00">matched_from_line_density</text>
</a>
</g>
<!-- Node4&#45;&gt;Node5 -->
<g id="edge8" class="edge"><title>Node4&#45;&gt;Node5</title>
<path fill="none" stroke="midnightblue" d="M285.654,-909C299.35,-909 313.911,-909 327.81,-909"/>
<polygon fill="midnightblue" stroke="midnightblue" points="285.375,-905.5 275.375,-909 285.375,-912.5 285.375,-905.5"/>
</g>
<!-- Node7 -->
<g id="node13" class="node"><title>Node7</title>
<a xlink:href="../../dc/d45/classSlices.html#ada42a57f8bea7bb582076bfb6f9f1812" target="_top" xlink:title="Slices::beam_profile\l_derivative">
<polygon fill="white" stroke="black" points="343.5,-826 343.5,-860 448.5,-860 448.5,-826 343.5,-826"/>
<text text-anchor="start" x="351.5" y="-847" font-family="Helvetica,sans-Serif" font-size="10.00">Slices::beam_profile</text>
<text text-anchor="middle" x="396" y="-834" font-family="Helvetica,sans-Serif" font-size="10.00">_derivative</text>
</a>
</g>
<!-- Node6&#45;&gt;Node7 -->
<g id="edge12" class="edge"><title>Node6&#45;&gt;Node7</title>
<path fill="none" stroke="midnightblue" d="M294.95,-854.682C311.16,-852.808 328.073,-850.853 343.321,-849.09"/>
<polygon fill="midnightblue" stroke="midnightblue" points="294.5,-851.211 284.968,-855.836 295.304,-858.164 294.5,-851.211"/>
</g>
<!-- Node8 -->
<g id="node15" class="node"><title>Node8</title>
<a xlink:href="../../d2/d51/plot__slices_8h.html#a16593c6d713f81f5527a58a8c33f6104" target="_top" xlink:title="plot_beam_profile_derivative">
<polygon fill="white" stroke="black" points="500,-832.5 500,-853.5 640,-853.5 640,-832.5 500,-832.5"/>
<text text-anchor="middle" x="570" y="-840.5" font-family="Helvetica,sans-Serif" font-size="10.00">plot_beam_profile_derivative</text>
</a>
</g>
<!-- Node7&#45;&gt;Node8 -->
<g id="edge14" class="edge"><title>Node7&#45;&gt;Node8</title>
<path fill="none" stroke="midnightblue" d="M458.699,-843C472.046,-843 486.222,-843 499.828,-843"/>
<polygon fill="midnightblue" stroke="midnightblue" points="458.678,-839.5 448.678,-843 458.678,-846.5 458.678,-839.5"/>
</g>
<!-- Node9&#45;&gt;Node7 -->
<g id="edge18" class="edge"><title>Node9&#45;&gt;Node7</title>
<path fill="none" stroke="midnightblue" d="M275.269,-829.043C296.8,-831.532 321.703,-834.411 343.28,-836.905"/>
<polygon fill="midnightblue" stroke="midnightblue" points="275.656,-825.564 265.321,-827.893 274.852,-832.518 275.656,-825.564"/>
</g>
</g>
</svg>
