<?xml version="1.0" encoding="UTF-8" standalone="no"?>
<!DOCTYPE svg PUBLIC "-//W3C//DTD SVG 1.1//EN"
 "http://www.w3.org/Graphics/SVG/1.1/DTD/svg11.dtd">
<!-- Generated by graphviz version 2.26.3 (20100126.1600)
 -->
<!-- Title: python::convert_int Pages: 1 -->
<svg width="616pt" height="1196pt"
 viewBox="0.00 0.00 616.00 1196.00" xmlns="http://www.w3.org/2000/svg" xmlns:xlink="http://www.w3.org/1999/xlink">
<g id="graph1" class="graph" transform="scale(1 1) rotate(0) translate(4 1192)">
<title>python::convert_int</title>
<polygon fill="white" stroke="white" points="-4,5 -4,-1192 613,-1192 613,5 -4,5"/>
<!-- Node1 -->
<g id="node1" class="node"><title>Node1</title>
<polygon fill="#bfbfbf" stroke="black" points="0,-560.5 0,-581.5 100,-581.5 100,-560.5 0,-560.5"/>
<text text-anchor="middle" x="50" y="-568.5" font-family="Helvetica,sans-Serif" font-size="10.00">python::convert_int</text>
</g>
<!-- Node2 -->
<g id="node3" class="node"><title>Node2</title>
<a xlink:href="../../dc/d45/classSlices.html#a39a24f6986bcf7f9c99cea7cacd72310" target="_top" xlink:title="Slices::beam_profile\l_filter_chebyshev">
<polygon fill="white" stroke="black" points="160.5,-1154 160.5,-1188 265.5,-1188 265.5,-1154 160.5,-1154"/>
<text text-anchor="start" x="168.5" y="-1175" font-family="Helvetica,sans-Serif" font-size="10.00">Slices::beam_profile</text>
<text text-anchor="middle" x="213" y="-1162" font-family="Helvetica,sans-Serif" font-size="10.00">_filter_chebyshev</text>
</a>
</g>
<!-- Node1&#45;&gt;Node2 -->
<g id="edge2" class="edge"><title>Node1&#45;&gt;Node2</title>
<path fill="none" stroke="midnightblue" d="M50.3075,-592.016C52.0803,-684.996 63.6668,-1058.59 136,-1145 142.34,-1152.57 150.969,-1157.95 160.163,-1161.76"/>
<polygon fill="midnightblue" stroke="midnightblue" points="53.8048,-591.826 50.1332,-581.887 46.8058,-591.946 53.8048,-591.826"/>
</g>
<!-- Node3 -->
<g id="node5" class="node"><title>Node3</title>
<a xlink:href="../../dc/d45/classSlices.html#ab1443b2ebec9ed465a8301be8e1c747f" target="_top" xlink:title="Slices::gaussian_filter1d">
<polygon fill="white" stroke="black" points="151.5,-1114.5 151.5,-1135.5 274.5,-1135.5 274.5,-1114.5 151.5,-1114.5"/>
<text text-anchor="middle" x="213" y="-1122.5" font-family="Helvetica,sans-Serif" font-size="10.00">Slices::gaussian_filter1d</text>
</a>
</g>
<!-- Node1&#45;&gt;Node3 -->
<g id="edge4" class="edge"><title>Node1&#45;&gt;Node3</title>
<path fill="none" stroke="midnightblue" d="M50.5796,-592.057C53.4295,-680.571 68.6774,-1021.52 136,-1100 141.308,-1106.19 148.163,-1110.85 155.591,-1114.37"/>
<polygon fill="midnightblue" stroke="midnightblue" points="54.0737,-591.806 50.2729,-581.916 47.0769,-592.018 54.0737,-591.806"/>
</g>
<!-- Node5 -->
<g id="node9" class="node"><title>Node5</title>
<a xlink:href="../../d2/d51/plot__slices_8h.html#ad931c13f8d5ee8947ed320ac51b3a2b3" target="_top" xlink:title="plot_beam_profile_derivative">
<polygon fill="white" stroke="black" points="468,-1097.5 468,-1118.5 608,-1118.5 608,-1097.5 468,-1097.5"/>
<text text-anchor="middle" x="538" y="-1105.5" font-family="Helvetica,sans-Serif" font-size="10.00">plot_beam_profile_derivative</text>
</a>
</g>
<!-- Node1&#45;&gt;Node5 -->
<g id="edge16" class="edge"><title>Node1&#45;&gt;Node5</title>
<path fill="none" stroke="midnightblue" d="M50.4059,-591.939C52.53,-677.735 65.1872,-1000.98 136,-1067 159.732,-1089.13 359.101,-1100.68 467.863,-1105.39"/>
<polygon fill="midnightblue" stroke="midnightblue" points="53.9033,-591.782 50.1792,-581.864 46.9051,-591.94 53.9033,-591.782"/>
</g>
<!-- Node6 -->
<g id="node11" class="node"><title>Node6</title>
<a xlink:href="../../dc/d7d/Distributions_8h.html#a39ba163b714fe197bd81ac64ffa48d30" target="_top" xlink:title="matched_from_distribution\l_density">
<polygon fill="white" stroke="black" points="147.5,-1024 147.5,-1058 278.5,-1058 278.5,-1024 147.5,-1024"/>
<text text-anchor="start" x="155.5" y="-1045" font-family="Helvetica,sans-Serif" font-size="10.00">matched_from_distribution</text>
<text text-anchor="middle" x="213" y="-1032" font-family="Helvetica,sans-Serif" font-size="10.00">_density</text>
</a>
</g>
<!-- Node1&#45;&gt;Node6 -->
<g id="edge10" class="edge"><title>Node1&#45;&gt;Node6</title>
<path fill="none" stroke="midnightblue" d="M51.3085,-591.85C56.6633,-670.799 79.3668,-950.199 136,-1015 139.25,-1018.72 143.05,-1021.91 147.19,-1024.64"/>
<polygon fill="midnightblue" stroke="midnightblue" points="54.7902,-591.454 50.6424,-581.705 47.8052,-591.913 54.7902,-591.454"/>
</g>
<!-- Node7 -->
<g id="node13" class="node"><title>Node7</title>
<a xlink:href="../../dc/d7d/Distributions_8h.html#aa18b9fc400fa994778e7e811423c2f06" target="_top" xlink:title="matched_from_line_density">
<polygon fill="white" stroke="black" points="145,-984.5 145,-1005.5 281,-1005.5 281,-984.5 145,-984.5"/>
<text text-anchor="middle" x="213" y="-992.5" font-family="Helvetica,sans-Serif" font-size="10.00">matched_from_line_density</text>
</a>
</g>
<!-- Node1&#45;&gt;Node7 -->
<g id="edge12" class="edge"><title>Node1&#45;&gt;Node7</title>
<path fill="none" stroke="midnightblue" d="M51.6035,-591.973C57.7369,-666.727 82.1254,-918.68 136,-975 139.628,-978.793 143.875,-981.9 148.479,-984.442"/>
<polygon fill="midnightblue" stroke="midnightblue" points="55.0566,-591.245 50.7741,-581.554 48.0787,-591.8 55.0566,-591.245"/>
</g>
<!-- Node8 -->
<g id="node15" class="node"><title>Node8</title>
<a xlink:href="../../d2/d51/plot__slices_8h.html#a880d8f74eddb227b7ce8bd03a684f57e" target="_top" xlink:title="plot_beam_profile">
<polygon fill="white" stroke="black" points="166.5,-944.5 166.5,-965.5 259.5,-965.5 259.5,-944.5 166.5,-944.5"/>
<text text-anchor="middle" x="213" y="-952.5" font-family="Helvetica,sans-Serif" font-size="10.00">plot_beam_profile</text>
</a>
</g>
<!-- Node1&#45;&gt;Node8 -->
<g id="edge14" class="edge"><title>Node1&#45;&gt;Node8</title>
<path fill="none" stroke="midnightblue" d="M52.1025,-591.69C59.578,-661.23 87.0755,-884.981 136,-935 144.112,-943.294 155.191,-948.298 166.417,-951.279"/>
<polygon fill="midnightblue" stroke="midnightblue" points="55.5648,-591.146 51.0399,-581.566 48.603,-591.877 55.5648,-591.146"/>
</g>
<!-- Node9 -->
<g id="node18" class="node"><title>Node9</title>
<a xlink:href="../../d2/d51/plot__slices_8h.html#a97786bacfe2a198ca748d497ecd0c3c8" target="_top" xlink:title="plot_beam_spectrum">
<polygon fill="white" stroke="black" points="159.5,-904.5 159.5,-925.5 266.5,-925.5 266.5,-904.5 159.5,-904.5"/>
<text text-anchor="middle" x="213" y="-912.5" font-family="Helvetica,sans-Serif" font-size="10.00">plot_beam_spectrum</text>
</a>
</g>
<!-- Node1&#45;&gt;Node9 -->
<g id="edge18" class="edge"><title>Node1&#45;&gt;Node9</title>
<path fill="none" stroke="midnightblue" d="M52.7791,-591.901C61.7797,-656.518 92.1127,-851.346 136,-895 142.463,-901.429 150.711,-905.872 159.395,-908.926"/>
<polygon fill="midnightblue" stroke="midnightblue" points="56.2112,-591.165 51.3902,-581.731 49.2756,-592.112 56.2112,-591.165"/>
</g>
<!-- Node10 -->
<g id="node20" class="node"><title>Node10</title>
<a xlink:href="../../d8/d94/plot__beams_8h.html#ad94cdaedd5dbe47dd60c3c54213cfd30" target="_top" xlink:title="plot_bunch_length_evol">
<polygon fill="white" stroke="black" points="153.5,-864.5 153.5,-885.5 272.5,-885.5 272.5,-864.5 153.5,-864.5"/>
<text text-anchor="middle" x="213" y="-872.5" font-family="Helvetica,sans-Serif" font-size="10.00">plot_bunch_length_evol</text>
</a>
</g>
<!-- Node1&#45;&gt;Node10 -->
<g id="edge20" class="edge"><title>Node1&#45;&gt;Node10</title>
<path fill="none" stroke="midnightblue" d="M53.5591,-591.611C64.1223,-650.475 97.0012,-817.528 136,-855 140.98,-859.785 146.951,-863.463 153.338,-866.285"/>
<polygon fill="midnightblue" stroke="midnightblue" points="56.9843,-590.88 51.7991,-581.641 50.0909,-592.097 56.9843,-590.88"/>
</g>
<!-- Node11 -->
<g id="node22" class="node"><title>Node11</title>
<a xlink:href="../../d8/d94/plot__beams_8h.html#a0db7edddd522f6703fbdf92e5a512ef5" target="_top" xlink:title="plot_bunch_length_evol\l_gaussian">
<polygon fill="white" stroke="black" points="153.5,-812 153.5,-846 272.5,-846 272.5,-812 153.5,-812"/>
<text text-anchor="start" x="161.5" y="-833" font-family="Helvetica,sans-Serif" font-size="10.00">plot_bunch_length_evol</text>
<text text-anchor="middle" x="213" y="-820" font-family="Helvetica,sans-Serif" font-size="10.00">_gaussian</text>
</a>
</g>
<!-- Node1&#45;&gt;Node11 -->
<g id="edge22" class="edge"><title>Node1&#45;&gt;Node11</title>
<path fill="none" stroke="midnightblue" d="M51.7964,-591.753C56.785,-636.653 74.7779,-743.549 136,-803 141.061,-807.915 147.083,-811.902 153.496,-815.135"/>
<polygon fill="midnightblue" stroke="midnightblue" points="55.2726,-591.34 50.7898,-581.74 48.3077,-592.04 55.2726,-591.34"/>
</g>
<!-- Node12 -->
<g id="node24" class="node"><title>Node12</title>
<a xlink:href="../../d3/dda/plot__llrf_8h.html#af5a02a39bc6683e75fbb078ba25f91cd" target="_top" xlink:title="plot_COM_motion">
<polygon fill="white" stroke="black" points="165.5,-772.5 165.5,-793.5 260.5,-793.5 260.5,-772.5 165.5,-772.5"/>
<text text-anchor="middle" x="213" y="-780.5" font-family="Helvetica,sans-Serif" font-size="10.00">plot_COM_motion</text>
</a>
</g>
<!-- Node1&#45;&gt;Node12 -->
<g id="edge24" class="edge"><title>Node1&#45;&gt;Node12</title>
<path fill="none" stroke="midnightblue" d="M53.2398,-591.666C60.544,-631.143 82.0687,-717.399 136,-763 144.332,-770.045 154.854,-774.647 165.422,-777.642"/>
<polygon fill="midnightblue" stroke="midnightblue" points="56.6584,-590.894 51.5082,-581.635 49.7604,-592.085 56.6584,-590.894"/>
</g>
<!-- Node13 -->
<g id="node26" class="node"><title>Node13</title>
<a xlink:href="../../d8/d94/plot__beams_8h.html#a4c91d74ff98dda69ada829279371d511" target="_top" xlink:title="plot_energy_evol">
<polygon fill="white" stroke="black" points="168,-732.5 168,-753.5 258,-753.5 258,-732.5 168,-732.5"/>
<text text-anchor="middle" x="213" y="-740.5" font-family="Helvetica,sans-Serif" font-size="10.00">plot_energy_evol</text>
</a>
</g>
<!-- Node1&#45;&gt;Node13 -->
<g id="edge26" class="edge"><title>Node1&#45;&gt;Node13</title>
<path fill="none" stroke="midnightblue" d="M55.8978,-591.663C66.3928,-624.613 91.4984,-688.816 136,-723 145.201,-730.067 156.654,-734.65 167.89,-737.618"/>
<polygon fill="midnightblue" stroke="midnightblue" points="59.1493,-590.325 52.8919,-581.776 52.452,-592.361 59.1493,-590.325"/>
</g>
<!-- Node14 -->
<g id="node28" class="node"><title>Node14</title>
<a xlink:href="../../da/d77/plot__impedance_8h.html#a2c91da10e1b692849d85e285874f90b3" target="_top" xlink:title="plot_impedance_vs_frequency">
<polygon fill="white" stroke="black" points="138.5,-692.5 138.5,-713.5 287.5,-713.5 287.5,-692.5 138.5,-692.5"/>
<text text-anchor="middle" x="213" y="-700.5" font-family="Helvetica,sans-Serif" font-size="10.00">plot_impedance_vs_frequency</text>
</a>
</g>
<!-- Node1&#45;&gt;Node14 -->
<g id="edge28" class="edge"><title>Node1&#45;&gt;Node14</title>
<path fill="none" stroke="midnightblue" d="M59.6858,-590.515C73.2412,-615.771 100.275,-659.335 136,-683 141.757,-686.814 148.203,-689.901 154.848,-692.399"/>
<polygon fill="midnightblue" stroke="midnightblue" points="62.7265,-588.776 55.0113,-581.514 56.5143,-592.002 62.7265,-588.776"/>
</g>
<!-- Node15 -->
<g id="node30" class="node"><title>Node15</title>
<a xlink:href="../../da/d77/plot__impedance_8h.html#af6f3f2783431ef676828a728fdd28490" target="_top" xlink:title="plot_induced_voltage\l_vs_bin_centers">
<polygon fill="white" stroke="black" points="159,-640 159,-674 267,-674 267,-640 159,-640"/>
<text text-anchor="start" x="167" y="-661" font-family="Helvetica,sans-Serif" font-size="10.00">plot_induced_voltage</text>
<text text-anchor="middle" x="213" y="-648" font-family="Helvetica,sans-Serif" font-size="10.00">_vs_bin_centers</text>
</a>
</g>
<!-- Node1&#45;&gt;Node15 -->
<g id="edge30" class="edge"><title>Node1&#45;&gt;Node15</title>
<path fill="none" stroke="midnightblue" d="M70.6848,-587.954C87.4779,-601.078 112.195,-618.986 136,-631 143.18,-634.624 150.98,-637.923 158.768,-640.862"/>
<polygon fill="midnightblue" stroke="midnightblue" points="72.6779,-585.067 62.6722,-581.583 68.3215,-590.547 72.6779,-585.067"/>
</g>
<!-- Node16 -->
<g id="node32" class="node"><title>Node16</title>
<a xlink:href="../../d3/dda/plot__llrf_8h.html#acd7e44035fa3120550b2e4043a09de31" target="_top" xlink:title="plot_LHCNoiseFB">
<polygon fill="white" stroke="black" points="165,-600.5 165,-621.5 261,-621.5 261,-600.5 165,-600.5"/>
<text text-anchor="middle" x="213" y="-608.5" font-family="Helvetica,sans-Serif" font-size="10.00">plot_LHCNoiseFB</text>
</a>
</g>
<!-- Node1&#45;&gt;Node16 -->
<g id="edge32" class="edge"><title>Node1&#45;&gt;Node16</title>
<path fill="none" stroke="midnightblue" d="M102.612,-583.911C124.457,-589.272 149.483,-595.413 170.177,-600.491"/>
<polygon fill="midnightblue" stroke="midnightblue" points="103.372,-580.494 92.8263,-581.51 101.704,-587.292 103.372,-580.494"/>
</g>
<!-- Node17 -->
<g id="node34" class="node"><title>Node17</title>
<a xlink:href="../../d3/dda/plot__llrf_8h.html#a56ecdfbeea2fc00be9bcca4a3747cdeb" target="_top" xlink:title="plot_LHCNoiseFB_FWHM">
<polygon fill="white" stroke="black" points="146.5,-560.5 146.5,-581.5 279.5,-581.5 279.5,-560.5 146.5,-560.5"/>
<text text-anchor="middle" x="213" y="-568.5" font-family="Helvetica,sans-Serif" font-size="10.00">plot_LHCNoiseFB_FWHM</text>
</a>
</g>
<!-- Node1&#45;&gt;Node17 -->
<g id="edge34" class="edge"><title>Node1&#45;&gt;Node17</title>
<path fill="none" stroke="midnightblue" d="M110.37,-571C122.116,-571 134.492,-571 146.426,-571"/>
<polygon fill="midnightblue" stroke="midnightblue" points="110.235,-567.5 100.235,-571 110.235,-574.5 110.235,-567.5"/>
</g>
<!-- Node18 -->
<g id="node36" class="node"><title>Node18</title>
<a xlink:href="../../d3/dda/plot__llrf_8h.html#a323326634be1c515da00ebd14f8ed8b3" target="_top" xlink:title="plot_LHCNoiseFB_FWHM_bbb">
<polygon fill="white" stroke="black" points="136,-520.5 136,-541.5 290,-541.5 290,-520.5 136,-520.5"/>
<text text-anchor="middle" x="213" y="-528.5" font-family="Helvetica,sans-Serif" font-size="10.00">plot_LHCNoiseFB_FWHM_bbb</text>
</a>
</g>
<!-- Node1&#45;&gt;Node18 -->
<g id="edge36" class="edge"><title>Node1&#45;&gt;Node18</title>
<path fill="none" stroke="midnightblue" d="M102.612,-558.089C124.457,-552.728 149.483,-546.587 170.177,-541.509"/>
<polygon fill="midnightblue" stroke="midnightblue" points="101.704,-554.708 92.8263,-560.49 103.372,-561.506 101.704,-554.708"/>
</g>
<!-- Node19 -->
<g id="node38" class="node"><title>Node19</title>
<a xlink:href="../../d8/d94/plot__beams_8h.html#a60f0c5f4e19f811bd8cea940c70007b6" target="_top" xlink:title="plot_long_phase_space">
<polygon fill="white" stroke="black" points="153.5,-480.5 153.5,-501.5 272.5,-501.5 272.5,-480.5 153.5,-480.5"/>
<text text-anchor="middle" x="213" y="-488.5" font-family="Helvetica,sans-Serif" font-size="10.00">plot_long_phase_space</text>
</a>
</g>
<!-- Node1&#45;&gt;Node19 -->
<g id="edge38" class="edge"><title>Node1&#45;&gt;Node19</title>
<path fill="none" stroke="midnightblue" d="M70.1674,-553.807C86.8367,-540.397 111.64,-522.221 136,-511 144.154,-507.244 153.132,-504.106 161.989,-501.514"/>
<polygon fill="midnightblue" stroke="midnightblue" points="67.7414,-551.271 62.2374,-560.324 72.1856,-556.679 67.7414,-551.271"/>
</g>
<!-- Node20 -->
<g id="node40" class="node"><title>Node20</title>
<a xlink:href="../../d3/dda/plot__llrf_8h.html#a333661d5cf95b6534ac63ab61b415e00" target="_top" xlink:title="plot_noise_spectrum">
<polygon fill="white" stroke="black" points="159.5,-440.5 159.5,-461.5 266.5,-461.5 266.5,-440.5 159.5,-440.5"/>
<text text-anchor="middle" x="213" y="-448.5" font-family="Helvetica,sans-Serif" font-size="10.00">plot_noise_spectrum</text>
</a>
</g>
<!-- Node1&#45;&gt;Node20 -->
<g id="edge40" class="edge"><title>Node1&#45;&gt;Node20</title>
<path fill="none" stroke="midnightblue" d="M61.4746,-551.596C75.9592,-528.821 103.012,-491.559 136,-471 143.15,-466.544 151.265,-463.076 159.478,-460.378"/>
<polygon fill="midnightblue" stroke="midnightblue" points="58.328,-550.031 56.0557,-560.379 64.2853,-553.706 58.328,-550.031"/>
</g>
<!-- Node21 -->
<g id="node42" class="node"><title>Node21</title>
<a xlink:href="../../d3/dda/plot__llrf_8h.html#a8863c0678df39a4807f02ad6c64e6600" target="_top" xlink:title="plot_phase_noise">
<polygon fill="white" stroke="black" points="167,-400.5 167,-421.5 259,-421.5 259,-400.5 167,-400.5"/>
<text text-anchor="middle" x="213" y="-408.5" font-family="Helvetica,sans-Serif" font-size="10.00">plot_phase_noise</text>
</a>
</g>
<!-- Node1&#45;&gt;Node21 -->
<g id="edge42" class="edge"><title>Node1&#45;&gt;Node21</title>
<path fill="none" stroke="midnightblue" d="M56.8508,-550.655C68.2683,-519.921 94.1557,-461.962 136,-431 144.993,-424.346 156.004,-419.9 166.855,-416.931"/>
<polygon fill="midnightblue" stroke="midnightblue" points="53.473,-549.707 53.4134,-560.302 60.0669,-552.057 53.473,-549.707"/>
</g>
<!-- Node22 -->
<g id="node44" class="node"><title>Node22</title>
<a xlink:href="../../d3/dda/plot__llrf_8h.html#a0cf92ca93a86bbdc1bfa9331a83ea320" target="_top" xlink:title="plot_PL_bunch_phase">
<polygon fill="white" stroke="black" points="156.5,-360.5 156.5,-381.5 269.5,-381.5 269.5,-360.5 156.5,-360.5"/>
<text text-anchor="middle" x="213" y="-368.5" font-family="Helvetica,sans-Serif" font-size="10.00">plot_PL_bunch_phase</text>
</a>
</g>
<!-- Node1&#45;&gt;Node22 -->
<g id="edge44" class="edge"><title>Node1&#45;&gt;Node22</title>
<path fill="none" stroke="midnightblue" d="M53.9298,-550.298C62.1799,-512.681 84.9298,-433.116 136,-391 141.967,-386.079 149.008,-382.354 156.368,-379.537"/>
<polygon fill="midnightblue" stroke="midnightblue" points="50.4932,-549.634 51.8972,-560.135 57.3484,-551.051 50.4932,-549.634"/>
</g>
<!-- Node23 -->
<g id="node46" class="node"><title>Node23</title>
<a xlink:href="../../d3/dda/plot__llrf_8h.html#a458b12e1ab74c68d5bab0b7cebf18c09" target="_top" xlink:title="plot_PL_freq_corr">
<polygon fill="white" stroke="black" points="166.5,-320.5 166.5,-341.5 259.5,-341.5 259.5,-320.5 166.5,-320.5"/>
<text text-anchor="middle" x="213" y="-328.5" font-family="Helvetica,sans-Serif" font-size="10.00">plot_PL_freq_corr</text>
</a>
</g>
<!-- Node1&#45;&gt;Node23 -->
<g id="edge46" class="edge"><title>Node1&#45;&gt;Node23</title>
<path fill="none" stroke="midnightblue" d="M51.9103,-550.398C57.0828,-506.812 75.3513,-404.855 136,-351 144.469,-343.48 155.412,-338.725 166.376,-335.736"/>
<polygon fill="midnightblue" stroke="midnightblue" points="48.4259,-550.067 50.838,-560.383 55.3858,-550.814 48.4259,-550.067"/>
</g>
<!-- Node24 -->
<g id="node48" class="node"><title>Node24</title>
<a xlink:href="../../d3/dda/plot__llrf_8h.html#a4cb55b3cec0038d53eecda7f25e2f426" target="_top" xlink:title="plot_PL_phase_corr">
<polygon fill="white" stroke="black" points="161.5,-280.5 161.5,-301.5 264.5,-301.5 264.5,-280.5 161.5,-280.5"/>
<text text-anchor="middle" x="213" y="-288.5" font-family="Helvetica,sans-Serif" font-size="10.00">plot_PL_phase_corr</text>
</a>
</g>
<!-- Node1&#45;&gt;Node24 -->
<g id="edge48" class="edge"><title>Node1&#45;&gt;Node24</title>
<path fill="none" stroke="midnightblue" d="M54.1821,-550.324C65.7957,-494.87 99.967,-344.753 136,-311 143.056,-304.39 152.01,-299.9 161.297,-296.864"/>
<polygon fill="midnightblue" stroke="midnightblue" points="50.7027,-549.868 52.1098,-560.369 57.5583,-551.282 50.7027,-549.868"/>
</g>
<!-- Node25 -->
<g id="node50" class="node"><title>Node25</title>
<a xlink:href="../../d3/dda/plot__llrf_8h.html#a36abfb65cca9b6fff4241fc4ab085efd" target="_top" xlink:title="plot_PL_RF_freq">
<polygon fill="white" stroke="black" points="168,-240.5 168,-261.5 258,-261.5 258,-240.5 168,-240.5"/>
<text text-anchor="middle" x="213" y="-248.5" font-family="Helvetica,sans-Serif" font-size="10.00">plot_PL_RF_freq</text>
</a>
</g>
<!-- Node1&#45;&gt;Node25 -->
<g id="edge50" class="edge"><title>Node1&#45;&gt;Node25</title>
<path fill="none" stroke="midnightblue" d="M53.1957,-550.45C63.0859,-489.415 95.0108,-310.975 136,-271 144.602,-262.61 156.251,-257.613 167.882,-254.672"/>
<polygon fill="midnightblue" stroke="midnightblue" points="49.7242,-549.994 51.6081,-560.42 56.6371,-551.095 49.7242,-549.994"/>
</g>
<!-- Node26 -->
<g id="node52" class="node"><title>Node26</title>
<a xlink:href="../../d3/dda/plot__llrf_8h.html#ab90c89b375ef96ed998a974351f5f3e1" target="_top" xlink:title="plot_PL_RF_phase">
<polygon fill="white" stroke="black" points="163,-200.5 163,-221.5 263,-221.5 263,-200.5 163,-200.5"/>
<text text-anchor="middle" x="213" y="-208.5" font-family="Helvetica,sans-Serif" font-size="10.00">plot_PL_RF_phase</text>
</a>
</g>
<!-- Node1&#45;&gt;Node26 -->
<g id="edge52" class="edge"><title>Node1&#45;&gt;Node26</title>
<path fill="none" stroke="midnightblue" d="M52.4636,-550.385C60.8055,-483.972 90.0557,-277.238 136,-231 143.301,-223.652 152.933,-218.893 162.904,-215.836"/>
<polygon fill="midnightblue" stroke="midnightblue" points="48.9734,-550.092 51.2266,-560.445 55.9211,-550.947 48.9734,-550.092"/>
</g>
<!-- Node27 -->
<g id="node54" class="node"><title>Node27</title>
<a xlink:href="../../d8/d94/plot__beams_8h.html#af8562d72b4487b1744e3126cf245ea52" target="_top" xlink:title="plot_position_evol">
<polygon fill="white" stroke="black" points="165.5,-160.5 165.5,-181.5 260.5,-181.5 260.5,-160.5 165.5,-160.5"/>
<text text-anchor="middle" x="213" y="-168.5" font-family="Helvetica,sans-Serif" font-size="10.00">plot_position_evol</text>
</a>
</g>
<!-- Node1&#45;&gt;Node27 -->
<g id="edge54" class="edge"><title>Node1&#45;&gt;Node27</title>
<path fill="none" stroke="midnightblue" d="M51.8789,-550.33C58.7872,-478.839 85.0667,-243.567 136,-191 143.785,-182.965 154.352,-178.013 165.162,-174.997"/>
<polygon fill="midnightblue" stroke="midnightblue" points="48.3889,-550.06 50.9357,-560.344 55.358,-550.716 48.3889,-550.06"/>
</g>
<!-- Node28 -->
<g id="node56" class="node"><title>Node28</title>
<a xlink:href="../../d3/dda/plot__llrf_8h.html#af4f563c0864d6e4ba163b1e6ab46b5c8" target="_top" xlink:title="plot_RF_phase_error">
<polygon fill="white" stroke="black" points="159.5,-120.5 159.5,-141.5 266.5,-141.5 266.5,-120.5 159.5,-120.5"/>
<text text-anchor="middle" x="213" y="-128.5" font-family="Helvetica,sans-Serif" font-size="10.00">plot_RF_phase_error</text>
</a>
</g>
<!-- Node1&#45;&gt;Node28 -->
<g id="edge56" class="edge"><title>Node1&#45;&gt;Node28</title>
<path fill="none" stroke="midnightblue" d="M51.4077,-550.184C56.9934,-473.746 80.0737,-209.922 136,-151 142.371,-144.288 150.681,-139.72 159.479,-136.632"/>
<polygon fill="midnightblue" stroke="midnightblue" points="47.8979,-550.2 50.6837,-560.422 54.8805,-550.693 47.8979,-550.2"/>
</g>
<!-- Node29 -->
<g id="node58" class="node"><title>Node29</title>
<a xlink:href="../../d3/dda/plot__llrf_8h.html#a7d64d79aafd6df5c91eccb73505de169" target="_top" xlink:title="plot_RL_radial_error">
<polygon fill="white" stroke="black" points="161,-80.5 161,-101.5 265,-101.5 265,-80.5 161,-80.5"/>
<text text-anchor="middle" x="213" y="-88.5" font-family="Helvetica,sans-Serif" font-size="10.00">plot_RL_radial_error</text>
</a>
</g>
<!-- Node1&#45;&gt;Node29 -->
<g id="edge58" class="edge"><title>Node1&#45;&gt;Node29</title>
<path fill="none" stroke="midnightblue" d="M51.0249,-549.807C55.3946,-468.289 75.118,-176.254 136,-111 142.69,-103.83 151.591,-99.0985 160.964,-96.0047"/>
<polygon fill="midnightblue" stroke="midnightblue" points="47.506,-550.088 50.4885,-560.255 54.4968,-550.447 47.506,-550.088"/>
</g>
<!-- Node30 -->
<g id="node60" class="node"><title>Node30</title>
<a xlink:href="../../d8/d94/plot__beams_8h.html#a823f1dc9ce1b63898e543add25cadb93" target="_top" xlink:title="plot_transmitted_particles">
<polygon fill="white" stroke="black" points="149,-40.5 149,-61.5 277,-61.5 277,-40.5 149,-40.5"/>
<text text-anchor="middle" x="213" y="-48.5" font-family="Helvetica,sans-Serif" font-size="10.00">plot_transmitted_particles</text>
</a>
</g>
<!-- Node1&#45;&gt;Node30 -->
<g id="edge60" class="edge"><title>Node1&#45;&gt;Node30</title>
<path fill="none" stroke="midnightblue" d="M50.665,-550.178C53.8135,-464.822 69.9564,-142.823 136,-71 139.646,-67.035 143.968,-63.8138 148.676,-61.202"/>
<polygon fill="midnightblue" stroke="midnightblue" points="47.1662,-550.084 50.3161,-560.2 54.162,-550.328 47.1662,-550.084"/>
</g>
<!-- Node31 -->
<g id="node62" class="node"><title>Node31</title>
<a xlink:href="../../d8/d1b/plot__parameters_8h.html#a85d8f3cd2cb068b4acb7e34897d0d622" target="_top" xlink:title="plot_voltage_programme">
<polygon fill="white" stroke="black" points="151.5,-0.5 151.5,-21.5 274.5,-21.5 274.5,-0.5 151.5,-0.5"/>
<text text-anchor="middle" x="213" y="-8.5" font-family="Helvetica,sans-Serif" font-size="10.00">plot_voltage_programme</text>
</a>
</g>
<!-- Node1&#45;&gt;Node31 -->
<g id="edge62" class="edge"><title>Node1&#45;&gt;Node31</title>
<path fill="none" stroke="midnightblue" d="M50.3785,-549.983C52.426,-460.127 64.9227,-109.266 136,-31 140.271,-26.2967 145.494,-22.6379 151.188,-19.8001"/>
<polygon fill="midnightblue" stroke="midnightblue" points="46.8738,-550.179 50.1654,-560.25 53.8723,-550.324 46.8738,-550.179"/>
</g>
<!-- Node4 -->
<g id="node7" class="node"><title>Node4</title>
<a xlink:href="../../dc/d45/classSlices.html#ada42a57f8bea7bb582076bfb6f9f1812" target="_top" xlink:title="Slices::beam_profile\l_derivative">
<polygon fill="white" stroke="black" points="326.5,-1114 326.5,-1148 431.5,-1148 431.5,-1114 326.5,-1114"/>
<text text-anchor="start" x="334.5" y="-1135" font-family="Helvetica,sans-Serif" font-size="10.00">Slices::beam_profile</text>
<text text-anchor="middle" x="379" y="-1122" font-family="Helvetica,sans-Serif" font-size="10.00">_derivative</text>
</a>
</g>
<!-- Node3&#45;&gt;Node4 -->
<g id="edge6" class="edge"><title>Node3&#45;&gt;Node4</title>
<path fill="none" stroke="midnightblue" d="M284.872,-1127.6C298.823,-1128.1 313.201,-1128.62 326.391,-1129.1"/>
<polygon fill="midnightblue" stroke="midnightblue" points="284.932,-1124.1 274.812,-1127.23 284.679,-1131.09 284.932,-1124.1"/>
</g>
<!-- Node4&#45;&gt;Node5 -->
<g id="edge8" class="edge"><title>Node4&#45;&gt;Node5</title>
<path fill="none" stroke="midnightblue" d="M441.531,-1121.95C450.207,-1120.7 459.165,-1119.4 467.967,-1118.13"/>
<polygon fill="midnightblue" stroke="midnightblue" points="440.899,-1118.51 431.503,-1123.41 441.901,-1125.44 440.899,-1118.51"/>
</g>
</g>
</svg>
