<?xml version="1.0" encoding="UTF-8" standalone="no"?>
<!DOCTYPE svg PUBLIC "-//W3C//DTD SVG 1.1//EN"
 "http://www.w3.org/Graphics/SVG/1.1/DTD/svg11.dtd">
<!-- Generated by graphviz version 2.26.3 (20100126.1600)
 -->
<!-- Title: python::convert_string Pages: 1 -->
<svg width="644pt" height="544pt"
 viewBox="0.00 0.00 644.00 544.00" xmlns="http://www.w3.org/2000/svg" xmlns:xlink="http://www.w3.org/1999/xlink">
<g id="graph1" class="graph" transform="scale(1 1) rotate(0) translate(4 540)">
<title>python::convert_string</title>
<polygon fill="white" stroke="white" points="-4,5 -4,-540 641,-540 641,5 -4,5"/>
<!-- Node1 -->
<g id="node1" class="node"><title>Node1</title>
<polygon fill="#bfbfbf" stroke="black" points="0.5,-252.5 0.5,-273.5 113.5,-273.5 113.5,-252.5 0.5,-252.5"/>
<text text-anchor="middle" x="57" y="-260.5" font-family="Helvetica,sans-Serif" font-size="10.00">python::convert_string</text>
</g>
<!-- Node2 -->
<g id="node3" class="node"><title>Node2</title>
<a xlink:href="../../dc/d7d/Distributions_8h.html#a775adebc7be25b67916c028a031074be" target="_top" xlink:title="_matched_from_distribution\l_density">
<polygon fill="white" stroke="black" points="150.5,-502 150.5,-536 287.5,-536 287.5,-502 150.5,-502"/>
<text text-anchor="start" x="158.5" y="-523" font-family="Helvetica,sans-Serif" font-size="10.00">_matched_from_distribution</text>
<text text-anchor="middle" x="219" y="-510" font-family="Helvetica,sans-Serif" font-size="10.00">_density</text>
</a>
</g>
<!-- Node1&#45;&gt;Node2 -->
<g id="edge2" class="edge"><title>Node1&#45;&gt;Node2</title>
<path fill="none" stroke="midnightblue" d="M59.7362,-283.73C66.6631,-328.158 88.9061,-433.349 150,-493 153.481,-496.398 157.448,-499.361 161.682,-501.942"/>
<polygon fill="midnightblue" stroke="midnightblue" points="63.1627,-282.971 58.2599,-273.579 56.2356,-283.979 63.1627,-282.971"/>
</g>
<!-- Node4 -->
<g id="node7" class="node"><title>Node4</title>
<a xlink:href="../../dc/d7d/Distributions_8h.html#a190d2b58297ff88be6d2ab351eba1207" target="_top" xlink:title="_matched_from_line\l_density">
<polygon fill="white" stroke="black" points="167,-450 167,-484 271,-484 271,-450 167,-450"/>
<text text-anchor="start" x="175" y="-471" font-family="Helvetica,sans-Serif" font-size="10.00">_matched_from_line</text>
<text text-anchor="middle" x="219" y="-458" font-family="Helvetica,sans-Serif" font-size="10.00">_density</text>
</a>
</g>
<!-- Node1&#45;&gt;Node4 -->
<g id="edge6" class="edge"><title>Node1&#45;&gt;Node4</title>
<path fill="none" stroke="midnightblue" d="M62.5694,-283.98C73.371,-320.782 100.563,-397.215 150,-441 154.983,-445.414 160.789,-449.107 166.877,-452.19"/>
<polygon fill="midnightblue" stroke="midnightblue" points="65.8142,-282.589 59.7369,-273.911 59.0757,-284.485 65.8142,-282.589"/>
</g>
<!-- Node6 -->
<g id="node11" class="node"><title>Node6</title>
<a xlink:href="../../dc/d45/classSlices.html#ab1443b2ebec9ed465a8301be8e1c747f" target="_top" xlink:title="Slices::gaussian_filter1d">
<polygon fill="white" stroke="black" points="157.5,-410.5 157.5,-431.5 280.5,-431.5 280.5,-410.5 157.5,-410.5"/>
<text text-anchor="middle" x="219" y="-418.5" font-family="Helvetica,sans-Serif" font-size="10.00">Slices::gaussian_filter1d</text>
</a>
</g>
<!-- Node1&#45;&gt;Node6 -->
<g id="edge10" class="edge"><title>Node1&#45;&gt;Node6</title>
<path fill="none" stroke="midnightblue" d="M65.9191,-282.714C79.8963,-311.514 109.597,-365.024 150,-396 157.988,-402.124 167.617,-406.849 177.113,-410.456"/>
<polygon fill="midnightblue" stroke="midnightblue" points="69.0691,-281.187 61.6392,-273.634 62.7374,-284.172 69.0691,-281.187"/>
</g>
<!-- Node8 -->
<g id="node15" class="node"><title>Node8</title>
<a xlink:href="../../d2/d51/plot__slices_8h.html#a16593c6d713f81f5527a58a8c33f6104" target="_top" xlink:title="plot_beam_profile_derivative">
<polygon fill="white" stroke="black" points="496,-393.5 496,-414.5 636,-414.5 636,-393.5 496,-393.5"/>
<text text-anchor="middle" x="566" y="-401.5" font-family="Helvetica,sans-Serif" font-size="10.00">plot_beam_profile_derivative</text>
</a>
</g>
<!-- Node1&#45;&gt;Node8 -->
<g id="edge18" class="edge"><title>Node1&#45;&gt;Node8</title>
<path fill="none" stroke="midnightblue" d="M68.5941,-282.278C83.9475,-305.859 113.403,-344.87 150,-363 180.158,-377.94 385.035,-392.756 495.59,-399.783"/>
<polygon fill="midnightblue" stroke="midnightblue" points="71.3598,-280.102 63.0693,-273.505 65.4365,-283.832 71.3598,-280.102"/>
</g>
<!-- Node9 -->
<g id="node17" class="node"><title>Node9</title>
<a xlink:href="../../d2/d51/plot__slices_8h.html#a0412f1f52fc8c9279224be608d8d3f43" target="_top" xlink:title="plot_beam_profile">
<polygon fill="white" stroke="black" points="172.5,-332.5 172.5,-353.5 265.5,-353.5 265.5,-332.5 172.5,-332.5"/>
<text text-anchor="middle" x="219" y="-340.5" font-family="Helvetica,sans-Serif" font-size="10.00">plot_beam_profile</text>
</a>
</g>
<!-- Node1&#45;&gt;Node9 -->
<g id="edge16" class="edge"><title>Node1&#45;&gt;Node9</title>
<path fill="none" stroke="midnightblue" d="M78.9425,-279.781C97.151,-293.044 124.155,-311.224 150,-323 157.945,-326.62 166.704,-329.756 175.238,-332.401"/>
<polygon fill="midnightblue" stroke="midnightblue" points="80.8727,-276.855 70.754,-273.714 76.7058,-282.479 80.8727,-276.855"/>
</g>
<!-- Node10 -->
<g id="node20" class="node"><title>Node10</title>
<a xlink:href="../../d2/d51/plot__slices_8h.html#ab17db03931ff95e016a858c2d2e95fd5" target="_top" xlink:title="plot_beam_spectrum">
<polygon fill="white" stroke="black" points="165.5,-292.5 165.5,-313.5 272.5,-313.5 272.5,-292.5 165.5,-292.5"/>
<text text-anchor="middle" x="219" y="-300.5" font-family="Helvetica,sans-Serif" font-size="10.00">plot_beam_spectrum</text>
</a>
</g>
<!-- Node1&#45;&gt;Node10 -->
<g id="edge20" class="edge"><title>Node1&#45;&gt;Node10</title>
<path fill="none" stroke="midnightblue" d="M109.29,-275.911C131.001,-281.272 155.873,-287.413 176.44,-292.491"/>
<polygon fill="midnightblue" stroke="midnightblue" points="110.111,-272.509 99.5636,-273.51 108.433,-279.305 110.111,-272.509"/>
</g>
<!-- Node11 -->
<g id="node22" class="node"><title>Node11</title>
<a xlink:href="../../d8/d94/plot__beams_8h.html#a7b5c6ac8b8a54e16e8ad2e6009036935" target="_top" xlink:title="plot_bunch_length_evol">
<polygon fill="white" stroke="black" points="159.5,-252.5 159.5,-273.5 278.5,-273.5 278.5,-252.5 159.5,-252.5"/>
<text text-anchor="middle" x="219" y="-260.5" font-family="Helvetica,sans-Serif" font-size="10.00">plot_bunch_length_evol</text>
</a>
</g>
<!-- Node1&#45;&gt;Node11 -->
<g id="edge22" class="edge"><title>Node1&#45;&gt;Node11</title>
<path fill="none" stroke="midnightblue" d="M123.864,-263C135.625,-263 147.797,-263 159.346,-263"/>
<polygon fill="midnightblue" stroke="midnightblue" points="123.66,-259.5 113.66,-263 123.66,-266.5 123.66,-259.5"/>
</g>
<!-- Node12 -->
<g id="node24" class="node"><title>Node12</title>
<a xlink:href="../../d8/d94/plot__beams_8h.html#ab78555117ca7153c811de718d84ed052" target="_top" xlink:title="plot_bunch_length_evol\l_gaussian">
<polygon fill="white" stroke="black" points="159.5,-200 159.5,-234 278.5,-234 278.5,-200 159.5,-200"/>
<text text-anchor="start" x="167.5" y="-221" font-family="Helvetica,sans-Serif" font-size="10.00">plot_bunch_length_evol</text>
<text text-anchor="middle" x="219" y="-208" font-family="Helvetica,sans-Serif" font-size="10.00">_gaussian</text>
</a>
</g>
<!-- Node1&#45;&gt;Node12 -->
<g id="edge24" class="edge"><title>Node1&#45;&gt;Node12</title>
<path fill="none" stroke="midnightblue" d="M104.037,-249.644C121.352,-244.727 141.195,-239.093 159.467,-233.904"/>
<polygon fill="midnightblue" stroke="midnightblue" points="102.83,-246.348 94.1661,-252.447 104.742,-253.082 102.83,-246.348"/>
</g>
<!-- Node13 -->
<g id="node26" class="node"><title>Node13</title>
<a xlink:href="../../d8/d94/plot__beams_8h.html#a87891b0c397e75daceb729f00d3ad076" target="_top" xlink:title="plot_energy_evol">
<polygon fill="white" stroke="black" points="174,-160.5 174,-181.5 264,-181.5 264,-160.5 174,-160.5"/>
<text text-anchor="middle" x="219" y="-168.5" font-family="Helvetica,sans-Serif" font-size="10.00">plot_energy_evol</text>
</a>
</g>
<!-- Node1&#45;&gt;Node13 -->
<g id="edge26" class="edge"><title>Node1&#45;&gt;Node13</title>
<path fill="none" stroke="midnightblue" d="M75.1606,-245.533C92.9346,-229.308 121.432,-205.528 150,-191 157.449,-187.212 165.725,-184.037 173.885,-181.413"/>
<polygon fill="midnightblue" stroke="midnightblue" points="72.7226,-243.02 67.787,-252.395 77.4917,-248.144 72.7226,-243.02"/>
</g>
<!-- Node14 -->
<g id="node28" class="node"><title>Node14</title>
<a xlink:href="../../d8/d94/plot__beams_8h.html#ae6215f03e38354ba5f04e99f640cf700" target="_top" xlink:title="plot_long_phase_space">
<polygon fill="white" stroke="black" points="159.5,-120.5 159.5,-141.5 278.5,-141.5 278.5,-120.5 159.5,-120.5"/>
<text text-anchor="middle" x="219" y="-128.5" font-family="Helvetica,sans-Serif" font-size="10.00">plot_long_phase_space</text>
</a>
</g>
<!-- Node1&#45;&gt;Node14 -->
<g id="edge28" class="edge"><title>Node1&#45;&gt;Node14</title>
<path fill="none" stroke="midnightblue" d="M68.0107,-243.601C83.2369,-218.519 113.07,-175.194 150,-151 155.842,-147.173 162.43,-144.063 169.158,-141.539"/>
<polygon fill="midnightblue" stroke="midnightblue" points="64.9783,-241.853 62.9059,-252.243 71.0054,-245.413 64.9783,-241.853"/>
</g>
<!-- Node15 -->
<g id="node30" class="node"><title>Node15</title>
<a xlink:href="../../d8/d94/plot__beams_8h.html#ab1102a9d176b48aff9607b9568641ac0" target="_top" xlink:title="plot_position_evol">
<polygon fill="white" stroke="black" points="171.5,-80.5 171.5,-101.5 266.5,-101.5 266.5,-80.5 171.5,-80.5"/>
<text text-anchor="middle" x="219" y="-88.5" font-family="Helvetica,sans-Serif" font-size="10.00">plot_position_evol</text>
</a>
</g>
<!-- Node1&#45;&gt;Node15 -->
<g id="edge30" class="edge"><title>Node1&#45;&gt;Node15</title>
<path fill="none" stroke="midnightblue" d="M63.9787,-242.464C76.1729,-209.694 104.486,-145.738 150,-111 156.345,-106.157 163.83,-102.486 171.489,-99.7026"/>
<polygon fill="midnightblue" stroke="midnightblue" points="60.5348,-241.7 60.4597,-252.295 67.1252,-244.06 60.5348,-241.7"/>
</g>
<!-- Node16 -->
<g id="node32" class="node"><title>Node16</title>
<a xlink:href="../../d8/d94/plot__beams_8h.html#a198f97a92351f9813d557ebd71b482ee" target="_top" xlink:title="plot_transmitted_particles">
<polygon fill="white" stroke="black" points="155,-40.5 155,-61.5 283,-61.5 283,-40.5 155,-40.5"/>
<text text-anchor="middle" x="219" y="-48.5" font-family="Helvetica,sans-Serif" font-size="10.00">plot_transmitted_particles</text>
</a>
</g>
<!-- Node1&#45;&gt;Node16 -->
<g id="edge32" class="edge"><title>Node1&#45;&gt;Node16</title>
<path fill="none" stroke="midnightblue" d="M61.1476,-242.44C70.1572,-203.145 95.2655,-117.189 150,-71 154.575,-67.139 159.861,-64.0228 165.429,-61.5078"/>
<polygon fill="midnightblue" stroke="midnightblue" points="57.6818,-241.907 58.9794,-252.422 64.5223,-243.393 57.6818,-241.907"/>
</g>
<!-- Node17 -->
<g id="node34" class="node"><title>Node17</title>
<a xlink:href="../../d8/d1b/plot__parameters_8h.html#a12d0870215c7365ba3c9b175bc7e18c5" target="_top" xlink:title="plot_voltage_programme">
<polygon fill="white" stroke="black" points="157.5,-0.5 157.5,-21.5 280.5,-21.5 280.5,-0.5 157.5,-0.5"/>
<text text-anchor="middle" x="219" y="-8.5" font-family="Helvetica,sans-Serif" font-size="10.00">plot_voltage_programme</text>
</a>
</g>
<!-- Node1&#45;&gt;Node17 -->
<g id="edge34" class="edge"><title>Node1&#45;&gt;Node17</title>
<path fill="none" stroke="midnightblue" d="M59.247,-242.323C65.2727,-197.135 85.949,-88.997 150,-31 154.253,-27.1491 159.205,-24.0364 164.468,-21.5209"/>
<polygon fill="midnightblue" stroke="midnightblue" points="55.7562,-242.034 58.0132,-252.386 62.7042,-242.886 55.7562,-242.034"/>
</g>
<!-- Node3 -->
<g id="node5" class="node"><title>Node3</title>
<a xlink:href="../../dc/d7d/Distributions_8h.html#a39ba163b714fe197bd81ac64ffa48d30" target="_top" xlink:title="matched_from_distribution\l_density">
<polygon fill="white" stroke="black" points="326.5,-502 326.5,-536 457.5,-536 457.5,-502 326.5,-502"/>
<text text-anchor="start" x="334.5" y="-523" font-family="Helvetica,sans-Serif" font-size="10.00">matched_from_distribution</text>
<text text-anchor="middle" x="392" y="-510" font-family="Helvetica,sans-Serif" font-size="10.00">_density</text>
</a>
</g>
<!-- Node2&#45;&gt;Node3 -->
<g id="edge4" class="edge"><title>Node2&#45;&gt;Node3</title>
<path fill="none" stroke="midnightblue" d="M298.099,-519C307.587,-519 317.195,-519 326.462,-519"/>
<polygon fill="midnightblue" stroke="midnightblue" points="297.871,-515.5 287.871,-519 297.871,-522.5 297.871,-515.5"/>
</g>
<!-- Node5 -->
<g id="node9" class="node"><title>Node5</title>
<a xlink:href="../../dc/d7d/Distributions_8h.html#af8a750601d38e475a922ae843f837cc9" target="_top" xlink:title="matched_from_line_density">
<polygon fill="white" stroke="black" points="324,-462.5 324,-483.5 460,-483.5 460,-462.5 324,-462.5"/>
<text text-anchor="middle" x="392" y="-470.5" font-family="Helvetica,sans-Serif" font-size="10.00">matched_from_line_density</text>
</a>
</g>
<!-- Node4&#45;&gt;Node5 -->
<g id="edge8" class="edge"><title>Node4&#45;&gt;Node5</title>
<path fill="none" stroke="midnightblue" d="M281.654,-469.173C295.35,-469.648 309.911,-470.153 323.81,-470.635"/>
<polygon fill="midnightblue" stroke="midnightblue" points="281.491,-465.665 271.375,-468.816 281.248,-472.661 281.491,-465.665"/>
</g>
<!-- Node7 -->
<g id="node13" class="node"><title>Node7</title>
<a xlink:href="../../dc/d45/classSlices.html#ada42a57f8bea7bb582076bfb6f9f1812" target="_top" xlink:title="Slices::beam_profile\l_derivative">
<polygon fill="white" stroke="black" points="339.5,-410 339.5,-444 444.5,-444 444.5,-410 339.5,-410"/>
<text text-anchor="start" x="347.5" y="-431" font-family="Helvetica,sans-Serif" font-size="10.00">Slices::beam_profile</text>
<text text-anchor="middle" x="392" y="-418" font-family="Helvetica,sans-Serif" font-size="10.00">_derivative</text>
</a>
</g>
<!-- Node6&#45;&gt;Node7 -->
<g id="edge12" class="edge"><title>Node6&#45;&gt;Node7</title>
<path fill="none" stroke="midnightblue" d="M291.409,-423.511C307.479,-424.069 324.216,-424.649 339.321,-425.173"/>
<polygon fill="midnightblue" stroke="midnightblue" points="291.084,-419.998 280.968,-423.149 290.841,-426.994 291.084,-419.998"/>
</g>
<!-- Node7&#45;&gt;Node8 -->
<g id="edge14" class="edge"><title>Node7&#45;&gt;Node8</title>
<path fill="none" stroke="midnightblue" d="M454.699,-418.712C468.046,-416.948 482.222,-415.074 495.828,-413.276"/>
<polygon fill="midnightblue" stroke="midnightblue" points="454.133,-415.256 444.678,-420.037 455.05,-422.196 454.133,-415.256"/>
</g>
</g>
</svg>
