<?xml version="1.0" encoding="UTF-8" standalone="no"?>
<!DOCTYPE svg PUBLIC "-//W3C//DTD SVG 1.1//EN"
 "http://www.w3.org/Graphics/SVG/1.1/DTD/svg11.dtd">
<!-- Generated by graphviz version 2.26.3 (20100126.1600)
 -->
<!-- Title: python::convert_double_array Pages: 1 -->
<svg width="660pt" height="1158pt"
 viewBox="0.00 0.00 660.00 1158.00" xmlns="http://www.w3.org/2000/svg" xmlns:xlink="http://www.w3.org/1999/xlink">
<g id="graph1" class="graph" transform="scale(1 1) rotate(0) translate(4 1154)">
<title>python::convert_double_array</title>
<polygon fill="white" stroke="white" points="-4,5 -4,-1154 657,-1154 657,5 -4,5"/>
<!-- Node1 -->
<g id="node1" class="node"><title>Node1</title>
<polygon fill="#bfbfbf" stroke="black" points="0,-537 0,-571 118,-571 118,-537 0,-537"/>
<text text-anchor="start" x="8" y="-558" font-family="Helvetica,sans-Serif" font-size="10.00">python::convert_double</text>
<text text-anchor="middle" x="59" y="-545" font-family="Helvetica,sans-Serif" font-size="10.00">_array</text>
</g>
<!-- Node2 -->
<g id="node3" class="node"><title>Node2</title>
<a xlink:href="../../dc/d45/classSlices.html#a39a24f6986bcf7f9c99cea7cacd72310" target="_top" xlink:title="Slices::beam_profile\l_filter_chebyshev">
<polygon fill="white" stroke="black" points="176.5,-1116 176.5,-1150 281.5,-1150 281.5,-1116 176.5,-1116"/>
<text text-anchor="start" x="184.5" y="-1137" font-family="Helvetica,sans-Serif" font-size="10.00">Slices::beam_profile</text>
<text text-anchor="middle" x="229" y="-1124" font-family="Helvetica,sans-Serif" font-size="10.00">_filter_chebyshev</text>
</a>
</g>
<!-- Node1&#45;&gt;Node2 -->
<g id="edge2" class="edge"><title>Node1&#45;&gt;Node2</title>
<path fill="none" stroke="midnightblue" d="M60.1126,-581.481C64.7016,-681.714 85.2801,-1026.01 154,-1107 159.974,-1114.04 167.958,-1119.18 176.491,-1122.92"/>
<polygon fill="midnightblue" stroke="midnightblue" points="63.5993,-581.101 59.6622,-571.265 56.6061,-581.409 63.5993,-581.101"/>
</g>
<!-- Node3 -->
<g id="node5" class="node"><title>Node3</title>
<a xlink:href="../../dc/d45/classSlices.html#ab1443b2ebec9ed465a8301be8e1c747f" target="_top" xlink:title="Slices::gaussian_filter1d">
<polygon fill="white" stroke="black" points="167.5,-1076.5 167.5,-1097.5 290.5,-1097.5 290.5,-1076.5 167.5,-1076.5"/>
<text text-anchor="middle" x="229" y="-1084.5" font-family="Helvetica,sans-Serif" font-size="10.00">Slices::gaussian_filter1d</text>
</a>
</g>
<!-- Node1&#45;&gt;Node3 -->
<g id="edge4" class="edge"><title>Node1&#45;&gt;Node3</title>
<path fill="none" stroke="midnightblue" d="M60.303,-581.212C65.4253,-676.741 87.286,-994.905 154,-1067 157.844,-1071.15 162.446,-1074.48 167.452,-1077.15"/>
<polygon fill="midnightblue" stroke="midnightblue" points="63.7964,-580.991 59.7838,-571.186 56.8058,-581.354 63.7964,-580.991"/>
</g>
<!-- Node6 -->
<g id="node11" class="node"><title>Node6</title>
<a xlink:href="../../dc/d45/classSlices.html#a31398a7ae3bf058bf358e38e61eb50c9" target="_top" xlink:title="Slices::gaussian_fit">
<polygon fill="white" stroke="black" points="178,-996.5 178,-1017.5 280,-1017.5 280,-996.5 178,-996.5"/>
<text text-anchor="middle" x="229" y="-1004.5" font-family="Helvetica,sans-Serif" font-size="10.00">Slices::gaussian_fit</text>
</a>
</g>
<!-- Node1&#45;&gt;Node6 -->
<g id="edge10" class="edge"><title>Node1&#45;&gt;Node6</title>
<path fill="none" stroke="midnightblue" d="M61.3283,-581.342C69.1615,-666.962 97.3084,-927.72 154,-987 160.427,-993.72 168.837,-998.27 177.696,-1001.33"/>
<polygon fill="midnightblue" stroke="midnightblue" points="64.7914,-580.773 60.4146,-571.125 57.8192,-581.397 64.7914,-580.773"/>
</g>
<!-- Node9 -->
<g id="node17" class="node"><title>Node9</title>
<a xlink:href="../../dc/d45/classSlices.html#abe64ffb4100f12aad3f2e97520a5ce4e" target="_top" xlink:title="Slices::gradient">
<polygon fill="white" stroke="black" points="187,-1036.5 187,-1057.5 271,-1057.5 271,-1036.5 187,-1036.5"/>
<text text-anchor="middle" x="229" y="-1044.5" font-family="Helvetica,sans-Serif" font-size="10.00">Slices::gradient</text>
</a>
</g>
<!-- Node1&#45;&gt;Node9 -->
<g id="edge16" class="edge"><title>Node1&#45;&gt;Node9</title>
<path fill="none" stroke="midnightblue" d="M60.7632,-581.145C67.1871,-671.683 92.2774,-961.301 154,-1027 162.581,-1036.13 174.826,-1041.27 186.939,-1044.11"/>
<polygon fill="midnightblue" stroke="midnightblue" points="64.2516,-580.855 60.0712,-571.119 57.2682,-581.337 64.2516,-580.855"/>
</g>
<!-- Node10 -->
<g id="node20" class="node"><title>Node10</title>
<a xlink:href="../../dc/d7d/Distributions_8h.html#a39ba163b714fe197bd81ac64ffa48d30" target="_top" xlink:title="matched_from_distribution\l_density">
<polygon fill="white" stroke="black" points="163.5,-944 163.5,-978 294.5,-978 294.5,-944 163.5,-944"/>
<text text-anchor="start" x="171.5" y="-965" font-family="Helvetica,sans-Serif" font-size="10.00">matched_from_distribution</text>
<text text-anchor="middle" x="229" y="-952" font-family="Helvetica,sans-Serif" font-size="10.00">_density</text>
</a>
</g>
<!-- Node1&#45;&gt;Node10 -->
<g id="edge20" class="edge"><title>Node1&#45;&gt;Node10</title>
<path fill="none" stroke="midnightblue" d="M62.4036,-581.236C72.6774,-659.388 105.669,-882.146 154,-935 157.069,-938.356 160.593,-941.279 164.404,-943.825"/>
<polygon fill="midnightblue" stroke="midnightblue" points="65.8595,-580.669 61.1055,-571.201 58.9174,-581.568 65.8595,-580.669"/>
</g>
<!-- Node11 -->
<g id="node22" class="node"><title>Node11</title>
<a xlink:href="../../d2/d51/plot__slices_8h.html#a880d8f74eddb227b7ce8bd03a684f57e" target="_top" xlink:title="plot_beam_profile">
<polygon fill="white" stroke="black" points="182.5,-904.5 182.5,-925.5 275.5,-925.5 275.5,-904.5 182.5,-904.5"/>
<text text-anchor="middle" x="229" y="-912.5" font-family="Helvetica,sans-Serif" font-size="10.00">plot_beam_profile</text>
</a>
</g>
<!-- Node1&#45;&gt;Node11 -->
<g id="edge22" class="edge"><title>Node1&#45;&gt;Node11</title>
<path fill="none" stroke="midnightblue" d="M63.0796,-581.405C74.4563,-654.253 108.697,-850.197 154,-895 161.665,-902.581 171.864,-907.377 182.264,-910.388"/>
<polygon fill="midnightblue" stroke="midnightblue" points="66.4891,-580.548 61.5099,-571.196 59.5704,-581.612 66.4891,-580.548"/>
</g>
<!-- Node12 -->
<g id="node24" class="node"><title>Node12</title>
<a xlink:href="../../d2/d51/plot__slices_8h.html#a97786bacfe2a198ca748d497ecd0c3c8" target="_top" xlink:title="plot_beam_spectrum">
<polygon fill="white" stroke="black" points="175.5,-864.5 175.5,-885.5 282.5,-885.5 282.5,-864.5 175.5,-864.5"/>
<text text-anchor="middle" x="229" y="-872.5" font-family="Helvetica,sans-Serif" font-size="10.00">plot_beam_spectrum</text>
</a>
</g>
<!-- Node1&#45;&gt;Node12 -->
<g id="edge24" class="edge"><title>Node1&#45;&gt;Node12</title>
<path fill="none" stroke="midnightblue" d="M64.1393,-581.299C77.2114,-647.948 113.569,-816.353 154,-855 160.04,-860.773 167.553,-864.923 175.472,-867.897"/>
<polygon fill="midnightblue" stroke="midnightblue" points="67.5123,-580.306 62.176,-571.153 60.6398,-581.636 67.5123,-580.306"/>
</g>
<!-- Node13 -->
<g id="node26" class="node"><title>Node13</title>
<a xlink:href="../../d8/d94/plot__beams_8h.html#ad94cdaedd5dbe47dd60c3c54213cfd30" target="_top" xlink:title="plot_bunch_length_evol">
<polygon fill="white" stroke="black" points="169.5,-824.5 169.5,-845.5 288.5,-845.5 288.5,-824.5 169.5,-824.5"/>
<text text-anchor="middle" x="229" y="-832.5" font-family="Helvetica,sans-Serif" font-size="10.00">plot_bunch_length_evol</text>
</a>
</g>
<!-- Node1&#45;&gt;Node13 -->
<g id="edge26" class="edge"><title>Node1&#45;&gt;Node13</title>
<path fill="none" stroke="midnightblue" d="M60.8644,-581.294C65.9924,-634.368 84.9459,-751.8 154,-815 158.473,-819.094 163.692,-822.367 169.254,-824.981"/>
<polygon fill="midnightblue" stroke="midnightblue" points="64.3467,-580.938 59.9895,-571.28 57.3732,-581.547 64.3467,-580.938"/>
</g>
<!-- Node14 -->
<g id="node28" class="node"><title>Node14</title>
<a xlink:href="../../d8/d94/plot__beams_8h.html#a0db7edddd522f6703fbdf92e5a512ef5" target="_top" xlink:title="plot_bunch_length_evol\l_gaussian">
<polygon fill="white" stroke="black" points="169.5,-772 169.5,-806 288.5,-806 288.5,-772 169.5,-772"/>
<text text-anchor="start" x="177.5" y="-793" font-family="Helvetica,sans-Serif" font-size="10.00">plot_bunch_length_evol</text>
<text text-anchor="middle" x="229" y="-780" font-family="Helvetica,sans-Serif" font-size="10.00">_gaussian</text>
</a>
</g>
<!-- Node1&#45;&gt;Node14 -->
<g id="edge28" class="edge"><title>Node1&#45;&gt;Node14</title>
<path fill="none" stroke="midnightblue" d="M64.109,-581.026C73.8407,-625.222 99.1562,-713.03 154,-763 158.584,-767.177 163.874,-770.688 169.48,-773.64"/>
<polygon fill="midnightblue" stroke="midnightblue" points="67.4905,-580.098 62.0118,-571.029 60.6396,-581.535 67.4905,-580.098"/>
</g>
<!-- Node15 -->
<g id="node30" class="node"><title>Node15</title>
<a xlink:href="../../d3/dda/plot__llrf_8h.html#af5a02a39bc6683e75fbb078ba25f91cd" target="_top" xlink:title="plot_COM_motion">
<polygon fill="white" stroke="black" points="181.5,-732.5 181.5,-753.5 276.5,-753.5 276.5,-732.5 181.5,-732.5"/>
<text text-anchor="middle" x="229" y="-740.5" font-family="Helvetica,sans-Serif" font-size="10.00">plot_COM_motion</text>
</a>
</g>
<!-- Node1&#45;&gt;Node15 -->
<g id="edge30" class="edge"><title>Node1&#45;&gt;Node15</title>
<path fill="none" stroke="midnightblue" d="M66.7539,-580.839C79.0067,-618.392 106.471,-686.14 154,-723 161.88,-729.111 171.471,-733.361 181.126,-736.314"/>
<polygon fill="midnightblue" stroke="midnightblue" points="70.031,-579.592 63.6974,-571.098 63.3521,-581.688 70.031,-579.592"/>
</g>
<!-- Node16 -->
<g id="node32" class="node"><title>Node16</title>
<a xlink:href="../../d8/d94/plot__beams_8h.html#a4c91d74ff98dda69ada829279371d511" target="_top" xlink:title="plot_energy_evol">
<polygon fill="white" stroke="black" points="184,-692.5 184,-713.5 274,-713.5 274,-692.5 184,-692.5"/>
<text text-anchor="middle" x="229" y="-700.5" font-family="Helvetica,sans-Serif" font-size="10.00">plot_energy_evol</text>
</a>
</g>
<!-- Node1&#45;&gt;Node16 -->
<g id="edge32" class="edge"><title>Node1&#45;&gt;Node16</title>
<path fill="none" stroke="midnightblue" d="M71.5164,-580.389C86.849,-609.851 115.595,-656.82 154,-683 162.797,-688.996 173.306,-693.196 183.634,-696.138"/>
<polygon fill="midnightblue" stroke="midnightblue" points="74.4692,-578.472 66.8363,-571.125 68.2211,-581.629 74.4692,-578.472"/>
</g>
<!-- Node17 -->
<g id="node34" class="node"><title>Node17</title>
<a xlink:href="../../dc/d7d/Distributions_8h.html#acbf747cb2f921b5b334987f33a027741" target="_top" xlink:title="plot_generated_bunch">
<polygon fill="white" stroke="black" points="173,-652.5 173,-673.5 285,-673.5 285,-652.5 173,-652.5"/>
<text text-anchor="middle" x="229" y="-660.5" font-family="Helvetica,sans-Serif" font-size="10.00">plot_generated_bunch</text>
</a>
</g>
<!-- Node1&#45;&gt;Node17 -->
<g id="edge34" class="edge"><title>Node1&#45;&gt;Node17</title>
<path fill="none" stroke="midnightblue" d="M79.337,-578.915C97.0532,-599.037 124.475,-626.613 154,-643 160.834,-646.793 168.421,-649.894 176.069,-652.422"/>
<polygon fill="midnightblue" stroke="midnightblue" points="81.7627,-576.368 72.5869,-571.071 76.4569,-580.934 81.7627,-576.368"/>
</g>
<!-- Node19 -->
<g id="node38" class="node"><title>Node19</title>
<a xlink:href="../../da/d77/plot__impedance_8h.html#a2c91da10e1b692849d85e285874f90b3" target="_top" xlink:title="plot_impedance_vs_frequency">
<polygon fill="white" stroke="black" points="154.5,-612.5 154.5,-633.5 303.5,-633.5 303.5,-612.5 154.5,-612.5"/>
<text text-anchor="middle" x="229" y="-620.5" font-family="Helvetica,sans-Serif" font-size="10.00">plot_impedance_vs_frequency</text>
</a>
</g>
<!-- Node1&#45;&gt;Node19 -->
<g id="edge38" class="edge"><title>Node1&#45;&gt;Node19</title>
<path fill="none" stroke="midnightblue" d="M97.2402,-576.12C114.233,-585.315 134.718,-595.557 154,-603 163.303,-606.591 173.495,-609.777 183.284,-612.493"/>
<polygon fill="midnightblue" stroke="midnightblue" points="98.6383,-572.894 88.1892,-571.143 95.2654,-579.028 98.6383,-572.894"/>
</g>
<!-- Node20 -->
<g id="node40" class="node"><title>Node20</title>
<a xlink:href="../../da/d77/plot__impedance_8h.html#af6f3f2783431ef676828a728fdd28490" target="_top" xlink:title="plot_induced_voltage\l_vs_bin_centers">
<polygon fill="white" stroke="black" points="175,-560 175,-594 283,-594 283,-560 175,-560"/>
<text text-anchor="start" x="183" y="-581" font-family="Helvetica,sans-Serif" font-size="10.00">plot_induced_voltage</text>
<text text-anchor="middle" x="229" y="-568" font-family="Helvetica,sans-Serif" font-size="10.00">_vs_bin_centers</text>
</a>
</g>
<!-- Node1&#45;&gt;Node20 -->
<g id="edge40" class="edge"><title>Node1&#45;&gt;Node20</title>
<path fill="none" stroke="midnightblue" d="M128.515,-563.405C144.01,-565.501 160.216,-567.694 174.977,-569.691"/>
<polygon fill="midnightblue" stroke="midnightblue" points="128.837,-559.917 118.458,-562.044 127.898,-566.853 128.837,-559.917"/>
</g>
<!-- Node21 -->
<g id="node42" class="node"><title>Node21</title>
<a xlink:href="../../d3/dda/plot__llrf_8h.html#acd7e44035fa3120550b2e4043a09de31" target="_top" xlink:title="plot_LHCNoiseFB">
<polygon fill="white" stroke="black" points="181,-520.5 181,-541.5 277,-541.5 277,-520.5 181,-520.5"/>
<text text-anchor="middle" x="229" y="-528.5" font-family="Helvetica,sans-Serif" font-size="10.00">plot_LHCNoiseFB</text>
</a>
</g>
<!-- Node1&#45;&gt;Node21 -->
<g id="edge42" class="edge"><title>Node1&#45;&gt;Node21</title>
<path fill="none" stroke="midnightblue" d="M128.647,-544.577C146.168,-542.207 164.59,-539.714 180.8,-537.521"/>
<polygon fill="midnightblue" stroke="midnightblue" points="127.898,-541.147 118.458,-545.956 128.837,-548.083 127.898,-541.147"/>
</g>
<!-- Node22 -->
<g id="node44" class="node"><title>Node22</title>
<a xlink:href="../../d3/dda/plot__llrf_8h.html#a56ecdfbeea2fc00be9bcca4a3747cdeb" target="_top" xlink:title="plot_LHCNoiseFB_FWHM">
<polygon fill="white" stroke="black" points="162.5,-480.5 162.5,-501.5 295.5,-501.5 295.5,-480.5 162.5,-480.5"/>
<text text-anchor="middle" x="229" y="-488.5" font-family="Helvetica,sans-Serif" font-size="10.00">plot_LHCNoiseFB_FWHM</text>
</a>
</g>
<!-- Node1&#45;&gt;Node22 -->
<g id="edge44" class="edge"><title>Node1&#45;&gt;Node22</title>
<path fill="none" stroke="midnightblue" d="M102.297,-532.591C118.305,-525.16 136.754,-517.155 154,-511 163.773,-507.512 174.452,-504.313 184.608,-501.544"/>
<polygon fill="midnightblue" stroke="midnightblue" points="100.738,-529.456 93.1807,-536.881 103.719,-535.789 100.738,-529.456"/>
</g>
<!-- Node23 -->
<g id="node46" class="node"><title>Node23</title>
<a xlink:href="../../d8/d94/plot__beams_8h.html#a60f0c5f4e19f811bd8cea940c70007b6" target="_top" xlink:title="plot_long_phase_space">
<polygon fill="white" stroke="black" points="169.5,-440.5 169.5,-461.5 288.5,-461.5 288.5,-440.5 169.5,-440.5"/>
<text text-anchor="middle" x="229" y="-448.5" font-family="Helvetica,sans-Serif" font-size="10.00">plot_long_phase_space</text>
</a>
</g>
<!-- Node1&#45;&gt;Node23 -->
<g id="edge46" class="edge"><title>Node1&#45;&gt;Node23</title>
<path fill="none" stroke="midnightblue" d="M81.191,-529.234C99.1231,-510.657 125.922,-485.953 154,-471 161.137,-467.199 169.048,-464.082 176.978,-461.536"/>
<polygon fill="midnightblue" stroke="midnightblue" points="78.3919,-527.1 74.0707,-536.774 83.4813,-531.906 78.3919,-527.1"/>
</g>
<!-- Node24 -->
<g id="node48" class="node"><title>Node24</title>
<a xlink:href="../../d3/dda/plot__llrf_8h.html#a333661d5cf95b6534ac63ab61b415e00" target="_top" xlink:title="plot_noise_spectrum">
<polygon fill="white" stroke="black" points="175.5,-400.5 175.5,-421.5 282.5,-421.5 282.5,-400.5 175.5,-400.5"/>
<text text-anchor="middle" x="229" y="-408.5" font-family="Helvetica,sans-Serif" font-size="10.00">plot_noise_spectrum</text>
</a>
</g>
<!-- Node1&#45;&gt;Node24 -->
<g id="edge48" class="edge"><title>Node1&#45;&gt;Node24</title>
<path fill="none" stroke="midnightblue" d="M72.336,-527.928C88.0711,-499.79 116.859,-455.7 154,-431 160.508,-426.672 167.917,-423.278 175.485,-420.618"/>
<polygon fill="midnightblue" stroke="midnightblue" points="69.2096,-526.351 67.5069,-536.808 75.3591,-529.696 69.2096,-526.351"/>
</g>
<!-- Node25 -->
<g id="node50" class="node"><title>Node25</title>
<a xlink:href="../../d3/dda/plot__llrf_8h.html#a8863c0678df39a4807f02ad6c64e6600" target="_top" xlink:title="plot_phase_noise">
<polygon fill="white" stroke="black" points="183,-360.5 183,-381.5 275,-381.5 275,-360.5 183,-360.5"/>
<text text-anchor="middle" x="229" y="-368.5" font-family="Helvetica,sans-Serif" font-size="10.00">plot_phase_noise</text>
</a>
</g>
<!-- Node1&#45;&gt;Node25 -->
<g id="edge50" class="edge"><title>Node1&#45;&gt;Node25</title>
<path fill="none" stroke="midnightblue" d="M67.3847,-527.076C80.1332,-490.647 107.906,-426.176 154,-391 162.356,-384.623 172.583,-380.276 182.764,-377.313"/>
<polygon fill="midnightblue" stroke="midnightblue" points="63.9208,-526.396 64.0454,-536.99 70.5545,-528.63 63.9208,-526.396"/>
</g>
<!-- Node26 -->
<g id="node52" class="node"><title>Node26</title>
<a xlink:href="../../d3/dda/plot__llrf_8h.html#a0cf92ca93a86bbdc1bfa9331a83ea320" target="_top" xlink:title="plot_PL_bunch_phase">
<polygon fill="white" stroke="black" points="172.5,-320.5 172.5,-341.5 285.5,-341.5 285.5,-320.5 172.5,-320.5"/>
<text text-anchor="middle" x="229" y="-328.5" font-family="Helvetica,sans-Serif" font-size="10.00">plot_PL_bunch_phase</text>
</a>
</g>
<!-- Node1&#45;&gt;Node26 -->
<g id="edge52" class="edge"><title>Node1&#45;&gt;Node26</title>
<path fill="none" stroke="midnightblue" d="M64.0229,-526.967C73.5809,-483.277 98.5904,-397.373 154,-351 159.374,-346.503 165.659,-343.007 172.264,-340.292"/>
<polygon fill="midnightblue" stroke="midnightblue" points="60.5735,-526.364 61.9654,-536.867 67.427,-527.788 60.5735,-526.364"/>
</g>
<!-- Node27 -->
<g id="node54" class="node"><title>Node27</title>
<a xlink:href="../../d3/dda/plot__llrf_8h.html#a458b12e1ab74c68d5bab0b7cebf18c09" target="_top" xlink:title="plot_PL_freq_corr">
<polygon fill="white" stroke="black" points="182.5,-280.5 182.5,-301.5 275.5,-301.5 275.5,-280.5 182.5,-280.5"/>
<text text-anchor="middle" x="229" y="-288.5" font-family="Helvetica,sans-Serif" font-size="10.00">plot_PL_freq_corr</text>
</a>
</g>
<!-- Node1&#45;&gt;Node27 -->
<g id="edge54" class="edge"><title>Node1&#45;&gt;Node27</title>
<path fill="none" stroke="midnightblue" d="M61.6936,-526.834C68.158,-476.574 89.1828,-368.931 154,-311 161.938,-303.906 172.118,-299.285 182.402,-296.287"/>
<polygon fill="midnightblue" stroke="midnightblue" points="58.1986,-526.585 60.4943,-536.928 65.1497,-527.411 58.1986,-526.585"/>
</g>
<!-- Node28 -->
<g id="node56" class="node"><title>Node28</title>
<a xlink:href="../../d3/dda/plot__llrf_8h.html#a4cb55b3cec0038d53eecda7f25e2f426" target="_top" xlink:title="plot_PL_phase_corr">
<polygon fill="white" stroke="black" points="177.5,-240.5 177.5,-261.5 280.5,-261.5 280.5,-240.5 177.5,-240.5"/>
<text text-anchor="middle" x="229" y="-248.5" font-family="Helvetica,sans-Serif" font-size="10.00">plot_PL_phase_corr</text>
</a>
</g>
<!-- Node1&#45;&gt;Node28 -->
<g id="edge56" class="edge"><title>Node1&#45;&gt;Node28</title>
<path fill="none" stroke="midnightblue" d="M64.7419,-526.6C78.6411,-462.772 115.779,-306.877 154,-271 160.583,-264.821 168.858,-260.506 177.487,-257.503"/>
<polygon fill="midnightblue" stroke="midnightblue" points="61.248,-526.2 62.5673,-536.712 68.0916,-527.671 61.248,-526.2"/>
</g>
<!-- Node29 -->
<g id="node58" class="node"><title>Node29</title>
<a xlink:href="../../d3/dda/plot__llrf_8h.html#a36abfb65cca9b6fff4241fc4ab085efd" target="_top" xlink:title="plot_PL_RF_freq">
<polygon fill="white" stroke="black" points="184,-200.5 184,-221.5 274,-221.5 274,-200.5 184,-200.5"/>
<text text-anchor="middle" x="229" y="-208.5" font-family="Helvetica,sans-Serif" font-size="10.00">plot_PL_RF_freq</text>
</a>
</g>
<!-- Node1&#45;&gt;Node29 -->
<g id="edge58" class="edge"><title>Node1&#45;&gt;Node29</title>
<path fill="none" stroke="midnightblue" d="M63.5262,-526.638C75.6524,-456.531 110.894,-273.022 154,-231 162.105,-223.098 172.967,-218.229 183.902,-215.252"/>
<polygon fill="midnightblue" stroke="midnightblue" points="60.0111,-526.431 61.7809,-536.877 66.9115,-527.608 60.0111,-526.431"/>
</g>
<!-- Node30 -->
<g id="node60" class="node"><title>Node30</title>
<a xlink:href="../../d3/dda/plot__llrf_8h.html#ab90c89b375ef96ed998a974351f5f3e1" target="_top" xlink:title="plot_PL_RF_phase">
<polygon fill="white" stroke="black" points="179,-160.5 179,-181.5 279,-181.5 279,-160.5 179,-160.5"/>
<text text-anchor="middle" x="229" y="-168.5" font-family="Helvetica,sans-Serif" font-size="10.00">plot_PL_RF_phase</text>
</a>
</g>
<!-- Node1&#45;&gt;Node30 -->
<g id="edge60" class="edge"><title>Node1&#45;&gt;Node30</title>
<path fill="none" stroke="midnightblue" d="M62.6144,-526.375C73.1304,-450.125 106.037,-239.186 154,-191 160.75,-184.219 169.525,-179.661 178.682,-176.614"/>
<polygon fill="midnightblue" stroke="midnightblue" points="59.1018,-526.232 61.2262,-536.612 66.0383,-527.173 59.1018,-526.232"/>
</g>
<!-- Node31 -->
<g id="node62" class="node"><title>Node31</title>
<a xlink:href="../../d8/d94/plot__beams_8h.html#af8562d72b4487b1744e3126cf245ea52" target="_top" xlink:title="plot_position_evol">
<polygon fill="white" stroke="black" points="181.5,-120.5 181.5,-141.5 276.5,-141.5 276.5,-120.5 181.5,-120.5"/>
<text text-anchor="middle" x="229" y="-128.5" font-family="Helvetica,sans-Serif" font-size="10.00">plot_position_evol</text>
</a>
</g>
<!-- Node1&#45;&gt;Node31 -->
<g id="edge62" class="edge"><title>Node1&#45;&gt;Node31</title>
<path fill="none" stroke="midnightblue" d="M61.8121,-526.649C70.7424,-445.037 101.035,-205.529 154,-151 161.324,-143.46 171.147,-138.658 181.267,-135.626"/>
<polygon fill="midnightblue" stroke="midnightblue" points="58.3253,-526.34 60.7383,-536.656 65.2853,-527.087 58.3253,-526.34"/>
</g>
<!-- Node32 -->
<g id="node64" class="node"><title>Node32</title>
<a xlink:href="../../d3/dda/plot__llrf_8h.html#af4f563c0864d6e4ba163b1e6ab46b5c8" target="_top" xlink:title="plot_RF_phase_error">
<polygon fill="white" stroke="black" points="175.5,-80.5 175.5,-101.5 282.5,-101.5 282.5,-80.5 175.5,-80.5"/>
<text text-anchor="middle" x="229" y="-88.5" font-family="Helvetica,sans-Serif" font-size="10.00">plot_RF_phase_error</text>
</a>
</g>
<!-- Node1&#45;&gt;Node32 -->
<g id="edge64" class="edge"><title>Node1&#45;&gt;Node32</title>
<path fill="none" stroke="midnightblue" d="M61.1618,-526.885C68.6124,-440.201 96.0131,-171.922 154,-111 159.853,-104.851 167.368,-100.516 175.371,-97.4768"/>
<polygon fill="midnightblue" stroke="midnightblue" points="57.6632,-526.723 60.3145,-536.981 64.6387,-527.309 57.6632,-526.723"/>
</g>
<!-- Node33 -->
<g id="node66" class="node"><title>Node33</title>
<a xlink:href="../../d3/dda/plot__llrf_8h.html#a7d64d79aafd6df5c91eccb73505de169" target="_top" xlink:title="plot_RL_radial_error">
<polygon fill="white" stroke="black" points="177,-40.5 177,-61.5 281,-61.5 281,-40.5 177,-40.5"/>
<text text-anchor="middle" x="229" y="-48.5" font-family="Helvetica,sans-Serif" font-size="10.00">plot_RL_radial_error</text>
</a>
</g>
<!-- Node1&#45;&gt;Node33 -->
<g id="edge66" class="edge"><title>Node1&#45;&gt;Node33</title>
<path fill="none" stroke="midnightblue" d="M60.6575,-526.595C66.776,-434.512 91.0867,-138.235 154,-71 160.169,-64.4073 168.246,-59.8955 176.81,-56.827"/>
<polygon fill="midnightblue" stroke="midnightblue" points="57.1514,-526.579 60.0002,-536.783 64.1369,-527.029 57.1514,-526.579"/>
</g>
<!-- Node34 -->
<g id="node68" class="node"><title>Node34</title>
<a xlink:href="../../d8/d1b/plot__parameters_8h.html#a85d8f3cd2cb068b4acb7e34897d0d622" target="_top" xlink:title="plot_voltage_programme">
<polygon fill="white" stroke="black" points="167.5,-0.5 167.5,-21.5 290.5,-21.5 290.5,-0.5 167.5,-0.5"/>
<text text-anchor="middle" x="229" y="-8.5" font-family="Helvetica,sans-Serif" font-size="10.00">plot_voltage_programme</text>
</a>
</g>
<!-- Node1&#45;&gt;Node34 -->
<g id="edge68" class="edge"><title>Node1&#45;&gt;Node34</title>
<path fill="none" stroke="midnightblue" d="M60.2077,-526.586C65.0328,-429.608 86.0789,-104.652 154,-31 157.837,-26.8393 162.434,-23.5055 167.438,-20.8392"/>
<polygon fill="midnightblue" stroke="midnightblue" points="56.7031,-526.599 59.7203,-536.755 63.6951,-526.934 56.7031,-526.599"/>
</g>
<!-- Node4 -->
<g id="node7" class="node"><title>Node4</title>
<a xlink:href="../../dc/d45/classSlices.html#ada42a57f8bea7bb582076bfb6f9f1812" target="_top" xlink:title="Slices::beam_profile\l_derivative">
<polygon fill="white" stroke="black" points="355.5,-1053 355.5,-1087 460.5,-1087 460.5,-1053 355.5,-1053"/>
<text text-anchor="start" x="363.5" y="-1074" font-family="Helvetica,sans-Serif" font-size="10.00">Slices::beam_profile</text>
<text text-anchor="middle" x="408" y="-1061" font-family="Helvetica,sans-Serif" font-size="10.00">_derivative</text>
</a>
</g>
<!-- Node3&#45;&gt;Node4 -->
<g id="edge6" class="edge"><title>Node3&#45;&gt;Node4</title>
<path fill="none" stroke="midnightblue" d="M300.609,-1080.2C318.85,-1078.47 338.124,-1076.64 355.232,-1075.01"/>
<polygon fill="midnightblue" stroke="midnightblue" points="300.226,-1076.72 290.602,-1081.15 300.888,-1083.69 300.226,-1076.72"/>
</g>
<!-- Node5 -->
<g id="node9" class="node"><title>Node5</title>
<a xlink:href="../../d2/d51/plot__slices_8h.html#ad931c13f8d5ee8947ed320ac51b3a2b3" target="_top" xlink:title="plot_beam_profile_derivative">
<polygon fill="white" stroke="black" points="512,-1059.5 512,-1080.5 652,-1080.5 652,-1059.5 512,-1059.5"/>
<text text-anchor="middle" x="582" y="-1067.5" font-family="Helvetica,sans-Serif" font-size="10.00">plot_beam_profile_derivative</text>
</a>
</g>
<!-- Node4&#45;&gt;Node5 -->
<g id="edge8" class="edge"><title>Node4&#45;&gt;Node5</title>
<path fill="none" stroke="midnightblue" d="M470.699,-1070C484.046,-1070 498.222,-1070 511.828,-1070"/>
<polygon fill="midnightblue" stroke="midnightblue" points="470.678,-1066.5 460.678,-1070 470.678,-1073.5 470.678,-1066.5"/>
</g>
<!-- Node7 -->
<g id="node13" class="node"><title>Node7</title>
<a xlink:href="../../dc/d45/classSlices.html#adee634f207f19e4484a7a509e07776b2" target="_top" xlink:title="Slices::track">
<polygon fill="white" stroke="black" points="372.5,-996.5 372.5,-1017.5 443.5,-1017.5 443.5,-996.5 372.5,-996.5"/>
<text text-anchor="middle" x="408" y="-1004.5" font-family="Helvetica,sans-Serif" font-size="10.00">Slices::track</text>
</a>
</g>
<!-- Node6&#45;&gt;Node7 -->
<g id="edge12" class="edge"><title>Node6&#45;&gt;Node7</title>
<path fill="none" stroke="midnightblue" d="M290.537,-1007C317.82,-1007 348.955,-1007 372.313,-1007"/>
<polygon fill="midnightblue" stroke="midnightblue" points="290.294,-1003.5 280.294,-1007 290.294,-1010.5 290.294,-1003.5"/>
</g>
<!-- Node8 -->
<g id="node15" class="node"><title>Node8</title>
<a xlink:href="../../dc/d45/classSlices.html#aa6f4a80f2e363315eb7c3a325b0b50c3" target="_top" xlink:title="Slices::Slices">
<polygon fill="white" stroke="black" points="543.5,-996.5 543.5,-1017.5 620.5,-1017.5 620.5,-996.5 543.5,-996.5"/>
<text text-anchor="middle" x="582" y="-1004.5" font-family="Helvetica,sans-Serif" font-size="10.00">Slices::Slices</text>
</a>
</g>
<!-- Node7&#45;&gt;Node8 -->
<g id="edge14" class="edge"><title>Node7&#45;&gt;Node8</title>
<path fill="none" stroke="midnightblue" d="M453.922,-1007C481.793,-1007 516.963,-1007 543.394,-1007"/>
<polygon fill="midnightblue" stroke="midnightblue" points="453.631,-1003.5 443.631,-1007 453.631,-1010.5 453.631,-1003.5"/>
</g>
<!-- Node9&#45;&gt;Node4 -->
<g id="edge18" class="edge"><title>Node9&#45;&gt;Node4</title>
<path fill="none" stroke="midnightblue" d="M281.454,-1053.74C304.715,-1056.73 332.03,-1060.24 355.317,-1063.23"/>
<polygon fill="midnightblue" stroke="midnightblue" points="281.785,-1050.25 271.421,-1052.45 280.893,-1057.2 281.785,-1050.25"/>
</g>
<!-- Node18 -->
<g id="node36" class="node"><title>Node18</title>
<a xlink:href="../../dc/d7d/Distributions_8h.html#ad0a60cd86b0b9037b473d0b7b8956ec2" target="_top" xlink:title="matched_from_line_density">
<polygon fill="white" stroke="black" points="340,-652.5 340,-673.5 476,-673.5 476,-652.5 340,-652.5"/>
<text text-anchor="middle" x="408" y="-660.5" font-family="Helvetica,sans-Serif" font-size="10.00">matched_from_line_density</text>
</a>
</g>
<!-- Node17&#45;&gt;Node18 -->
<g id="edge36" class="edge"><title>Node17&#45;&gt;Node18</title>
<path fill="none" stroke="midnightblue" d="M295.497,-663C309.955,-663 325.272,-663 339.794,-663"/>
<polygon fill="midnightblue" stroke="midnightblue" points="295.146,-659.5 285.146,-663 295.146,-666.5 295.146,-659.5"/>
</g>
</g>
</svg>
